<svg enable-background="new 0 0 78.79 68.873" viewBox="0 0 78.79 68.873" xmlns="http://www.w3.org/2000/svg"><g clip-rule="evenodd" fill-rule="evenodd"><path d="m50.902.152c-.154.944-.825 1.772-1.303 2.605-2.888 5.039-5.809 10.199-8.733 15.294-.478.834-.913 1.724-1.544 2.461-.499-.179-.638-.757-.868-1.158-2.658-4.625-5.436-9.44-8.154-14.137-.746-1.29-1.458-2.578-2.219-3.86-.21-.353-.674-.826-.434-1.303 7.647-.048 15.825-.129 23.255.098zm-11.773.627c-.976 1.522-1.798 3.115-2.701 4.68-.899 1.558-1.914 3.097-2.605 4.825.353.336.821.151 1.255.145.908-.014 1.898.05 2.895.048.824-.002 1.684-.117 2.509-.097 1.3.031 2.934.211 4.197-.097-.19-.902-.77-1.683-1.206-2.509-1.098-2.078-2.205-4.021-3.329-6.079-.23-.423-.43-1.099-.868-1.061-.071.028-.12.076-.147.145z"/><path d="m19.348.152c.503.069 1.083 1.409 1.447 2.026 2.928 4.962 5.627 10.232 8.54 15.15 1.702 2.874 3.29 5.791 4.922 8.636 1.656 2.891 3.259 5.779 5.066 8.492.677-.492.956-1.339 1.351-2.026 1.21-2.107 2.473-4.268 3.715-6.417 1.648-2.852 3.261-5.737 4.921-8.588 2.909-4.996 5.631-10.047 8.589-15.053.41-.695.775-1.45 1.351-2.026.557.344.754 1.047 1.109 1.592.743 1.209 1.522 2.445 2.268 3.811.216.395.665.993.676 1.351.01.335-.408.965-.627 1.351-.701 1.238-1.461 2.523-2.123 3.715-.962 1.733-2.159 3.34-2.799 5.018.781.323 1.76.205 2.702.193 2.641-.034 5.859-.047 8.396.096.055.488-.319.882-.53 1.254-1.095 1.929-2.396 3.917-3.33 6.031-.37.839-.941 1.603-1.206 2.509.322.308.826.193 1.255.193 3.038 0 6.368.034 9.601.096.762 1.129 1.488 2.285 2.171 3.474.679 1.182 1.469 2.342 1.979 3.667-.753.262-1.587.145-2.364.145-12.272 0-24.532-.201-36.862 0 .634 1.527 1.522 2.93 2.364 4.342 2.48 4.163 4.841 8.466 7.285 12.689 2.438 4.211 4.824 8.422 7.334 12.641.414.695.777 1.423 1.206 2.123.409.666.979 1.315 1.11 2.123-2.471.233-5.426.026-7.864.048-.606-.663-1.034-1.47-1.496-2.268-1.116-1.929-2.188-3.919-3.378-5.935-.175-.297-.542-1.009-.82-1.013-.332-.005-.621.733-.819 1.061-1.165 1.937-2.356 3.928-3.57 5.838-.478.753-.902 1.556-1.496 2.219-.488-.141-.632-.7-.868-1.062-1.234-1.882-2.395-3.928-3.619-5.886-.479-.767-.822-1.664-1.544-2.219-.698.588-1.039 1.49-1.495 2.268-.457.778-.931 1.547-1.399 2.316-.956 1.566-1.746 3.223-2.847 4.632-2.625-.02-5.354.057-7.72-.097.161-.796.653-1.489 1.062-2.171 2.045-3.418 4.022-7.058 6.079-10.566 2.42-4.126 4.882-8.369 7.286-12.593 1.604-2.822 3.378-5.536 4.824-8.444-.751-.265-1.58-.145-2.364-.145-10.634 0-21.347-.096-32.037-.097-1.614 0-3.215.115-4.776-.144.545-1.305 1.277-2.532 1.979-3.715.354-.598.706-1.188 1.061-1.785.335-.565.644-1.209 1.158-1.641 3.419-.202 7.192.165 10.47-.145.025-.487-.262-.953-.483-1.351-1.108-2-2.28-4.021-3.426-6.08-.444-.798-1.029-1.582-1.255-2.509.759-.263 1.676-.129 2.605-.097 1.829.063 3.807 0 5.693 0 .939 0 1.894.113 2.702-.145-.259-.927-.809-1.708-1.255-2.509-.445-.801-.954-1.571-1.399-2.364-.884-1.577-1.968-3.056-2.653-4.825.86-1.671 1.952-3.58 2.943-5.307.387-.673.76-1.446 1.204-1.877zm1.35 17.707c-.461.678-.877 1.552-1.303 2.316-1.284 2.307-2.722 4.546-3.763 6.996.385.265 1.015.125 1.495.145 2.157.091 4.695.048 6.899.048.731 0 1.521.141 2.123-.193-.343-1.404-1.107-2.531-1.785-3.763-.753-1.369-1.428-2.472-2.219-3.86-.322-.565-.83-1.679-1.303-1.785-.055.023-.108.051-.144.096zm35.174 2.412c-.876 1.548-1.796 3.062-2.654 4.583-.45.798-.986 1.551-1.206 2.413.507.214 1.18.18 1.785.193 1.438.032 3.021 0 4.584 0 1.584 0 3.16.116 4.535-.145-.225-.884-.746-1.7-1.206-2.509-1.14-2.002-2.229-3.956-3.426-5.983-.226-.382-.553-1.066-.917-1.013-.564.625-1.02 1.623-1.495 2.461zm-16.694 29.191c-.508.687-.948 1.537-1.399 2.316-.904 1.563-1.839 3.045-2.75 4.583-.458.773-1.016 1.552-1.206 2.461 3.002.175 6.626.096 9.746.096.415 0 .96.148 1.255-.193.007-.45-.315-.823-.531-1.206-1.147-2.034-2.266-3.883-3.426-5.886-.357-.618-.902-1.997-1.544-2.268-.069.012-.082.08-.145.097z"/><path d="m26.729 42.273c-.102.574-.494 1.022-.771 1.496-.287.49-.469 1.004-.724 1.496-.731 1.407-1.608 2.776-2.412 4.149-1.598 2.723-3.281 5.387-4.874 8.154-.785 1.364-1.539 2.759-2.509 4.005-.47-.11-.642-.645-.868-1.013-1.679-2.727-3.369-5.729-4.921-8.588-1.708-2.746-3.416-5.605-5.019-8.492-.221-.398-.565-.848-.482-1.351 6.066-.191 13.946 0 20.36 0 .745-.001 1.509-.111 2.22.144zm-11.531.289c-.264.16-.49.717-.724 1.109-1.169 1.964-2.251 3.799-3.329 5.693-.447.787-1.048 1.485-1.255 2.364 1.182.258 2.544.145 3.908.145 1.351 0 2.733-.003 4.005 0 .913.002 2.134.27 2.75-.193-.228-.823-.74-1.561-1.158-2.316-.863-1.562-1.721-3.126-2.604-4.632-.444-.756-.759-1.62-1.399-2.219-.003-.029-.008-.057-.049-.048-.057.024-.11.052-.145.097z"/><path d="m52.253 42.176c6.641.184 12.662-.217 19.251.097 1.081.052 2.152-.167 3.185.096-.286.896-.864 1.685-1.351 2.509-1.398 2.371-2.778 4.853-4.246 7.237-.923 1.5-1.93 3.105-2.896 4.777-.64 1.109-1.255 2.478-2.026 3.763-.227.379-.535 1.062-.819 1.062-.452 0-1.35-1.985-1.544-2.316-1.455-2.468-2.951-4.792-4.246-7.334-1.776-2.705-3.349-5.633-4.97-8.54-.209-.375-.602-.762-.53-1.254.071-.025.121-.071.192-.097zm9.457 2.847c-1.133 1.904-2.231 3.803-3.281 5.693-.208.375-.583.735-.53 1.206 2.19.215 4.653.064 6.996.145 1.213.042 2.44.061 3.521-.145-.044-.592-.479-1.073-.771-1.592-.291-.517-.518-1.069-.82-1.592-.587-1.013-1.272-2.022-1.737-3.04-.221-.484-.435-1.045-.771-1.641-.242-.427-.656-1.411-1.11-1.399-.546.65-1.004 1.536-1.497 2.365z"/></g></svg>