<svg enable-background="new 0 0 77.88 78.351" viewBox="0 0 77.88 78.351" xmlns="http://www.w3.org/2000/svg"><path clip-rule="evenodd" d="m66.377 11.464c5.682 6.016 9.857 12.925 11.172 22.979 1.472 11.253-2.185 20.543-6.586 26.979-4.47 6.537-11.103 12.014-19.319 14.832-4.405 1.511-9.27 2.306-14.929 2.049-5.262-.239-9.646-1.573-13.661-3.367-5.923-2.646-10.573-6.442-14.441-11.172-1.269-1.552-2.357-3.287-3.415-5.123-2.024-3.511-3.773-7.868-4.538-12.538-.416-2.538-.76-5.136-.634-7.904.364-8.014 2.565-14.452 5.903-19.71 1.115-1.756 2.261-3.436 3.562-4.976 3.828-4.532 8.957-8.319 14.929-10.685 3.116-1.234 6.397-2.134 10.197-2.585 7.671-.912 14.909.861 20.198 3.268 4.496 2.048 8.282 4.736 11.562 7.953zm-29.37 2.098c-8.371.571-14.36 4.845-18.344 9.904-.599.761-1.238 1.564-1.561 2.488.801.265 1.678.146 2.537.146 6.298 0 12.69.099 18.685-.098.26-.936.146-1.996.146-3.025 0-3.242.035-6.425-.146-9.367-.386-.204-.918-.075-1.317-.048zm2.537.049c-.204.579-.133 1.994-.098 2.928.083 2.226-.049 4.275-.049 6.391 0 1.069-.108 2.139.146 3.074 5.082.167 10.502.146 15.807.146 1.773 0 3.55.115 5.22-.146-.267-.979-.949-1.823-1.561-2.586-1.868-2.328-4.079-4.349-6.586-5.952-3.368-2.154-7.467-3.802-12.733-3.952-.057.023-.11.051-.146.097zm-23.174 13.563c-1.74 3.007-3.094 6.974-2.976 11.465 1.996.259 4.092.146 6.196.146h15.807c1.007 0 2.037.09 2.976-.146.177-2.694.098-5.876.098-8.685 0-.957.112-1.931-.146-2.781-7.078-.17-14.937-.15-21.955.001zm23.369-.097c-.058.023-.11.052-.146.097-.305.366-.214 1.994-.195 2.83.022 1.005 0 2.008 0 2.878 0 2.118-.114 4.14.146 5.806 8.433.139 16.764.217 24.735 0 .199-1.074.058-2.214-.098-3.269-.312-2.128-.887-4.08-1.61-5.806-.368-.878-.661-1.799-1.269-2.439-6.648-.086-14.435-.031-21.563-.097zm-4.342 12.684c-7.226 0-14.855-.041-21.955.049-.253 1.066-.024 2.231.146 3.269.526 3.205 1.383 6.161 2.878 8.294 6.281.038 12.83 0 19.173 0 .89 0 1.833.116 2.684-.146.23-.861.182-1.833.146-2.781-.072-1.921 0-3.828 0-5.708 0-.975.113-1.959-.146-2.829-.94-.258-1.935-.148-2.926-.148zm-.293 12.587c-1.146 0-2.296 0-3.464 0-2.257 0-4.885-.183-6.928 0-2.491.223-5.202-.288-7.562.146.337.972.997 1.794 1.61 2.585 3.01 3.881 7.234 7.037 12.441 8.635 2.133.655 4.538 1.302 7.171 1.073.182-1.83.098-3.984.098-6.098 0-2.128.081-4.279-.098-6.196-1.046-.264-2.169-.145-3.268-.145zm20.491.049c-5.159 0-11.046-.036-15.954 0-.319.358-.195.907-.195 1.366v8.001c0 1.077-.116 2.143.146 3.073 2.576.079 4.975-.376 7.074-1.073 5.222-1.734 9.277-4.761 12.294-8.635.608-.781 1.335-1.59 1.61-2.585-1.545-.248-3.246-.148-4.975-.147z" fill-rule="evenodd"/></svg>