<svg enable-background="new 0 0 78.893 54.603" viewBox="0 0 78.893 54.603" xmlns="http://www.w3.org/2000/svg"><g clip-rule="evenodd" fill-rule="evenodd"><path d="m46.993.293c-.299.377-1.154.174-1.812.15-2.128-.072-3.848.189-5.333.906-1.937.936-3.207 2.465-4.076 4.377.479-.115.724-.59 1.057-.904 2.016-1.904 4.864-3.229 8.303-3.824.577-.1 1.169-.271 1.71-.303 6.103-.355 11.163 1.336 16.151 2.617 4.593 1.178 10.226 3.359 15.899 1.609-4.948 2.27-12.292 2.787-18.918 1.861-4.66-.65-9.086-1.613-13.887-2.315-1.646-.24-3.283-.607-4.881-.502-2.399.156-3.987 1.231-5.232 2.615-.405.451-.901.957-1.007 1.611.463.398 1.136.201 1.711.201 8.428-.002 17.228.15 25.459.15.979 0 1.97-.068 2.868-.051.234.006.61-.074.755.201-1.84.34-4.451-.254-6.592.101-2.127.352-3.624 1.51-4.88 2.768-1.318 1.316-1.923 3.039-2.718 4.879-1.493 3.463-2.993 7.369-4.427 10.818-1.497 3.6-2.957 7.184-4.378 10.867-1.014 2.629-2.237 5.34-3.271 8.152-.357.973-.776 2.021-.805 2.967-.075 2.521 1.661 4.393 3.723 4.83 1.301.277 2.796.199 4.428.303-.848.266-1.763.131-2.666.15-6.836.16-13.859 0-20.881 0-8.073.007-15.7-.089-23.293-.197.306-.279.784-.15 1.157-.15 2.886 0 5.886.139 8.603-.102.274-.92.151-1.916.151-2.867 0-10.857 0-21.756 0-32.352 0-1.98-.039-4.004 0-5.988.037-1.938.144-3.961 0-5.836-.263-3.412-2.857-5.871-6.037-6.54-1.197-.252-2.461-.116-3.823-.252.374-.293.887-.105 1.357-.1 1.349.018 3.272-.084 4.629-.102 10.143-.128 20.859.082 30.993.102 2.568.004 5.064-.066 7.599.051.79.035 1.604-.215 2.364.099zm-16.15 8.202c.915.018 2.191.207 2.867-.1.489-.223.766-1.186 1.007-1.812.246-.641.597-1.434.603-2.264.011-1.328-.747-2.531-1.409-3.068-1.074-.875-2.706-.855-4.83-.855-1.009 0-2.066-.08-2.817 0-1.643.174-3.043 1.465-3.572 2.816-.552 1.408-.247 3.286-.252 4.982-.021 7.064-.089 14.504.1 21.686.414.012.458-.488.604-.756.157-.287.353-.568.503-.856.306-.586.558-1.307 1.006-1.609-2.157 4.701-4.599 9.119-6.893 13.685-1.85 3.373-3.482 6.828-5.283 10.162-.607 1.125-1.331 2.242-1.66 3.523.616.215 1.575.201 2.516.201.91 0 1.875.08 2.717 0 1.875-.182 3.668-.92 5.082-1.861 1.351-.9 2.744-2.174 3.421-3.572 1.347-2.783 2.364-5.904 3.673-8.957 3.196-7.453 6.108-14.83 9.157-22.389.596-1.479 1.564-3.186 1.711-4.629.027-.273.025-.715 0-.906-.199-1.574-1.895-3.404-3.925-3.17-.51.059-.794.24-1.207.1-.884 1.197-1.499 2.93-2.314 4.025.531-1.381 1.389-2.434 1.761-3.975-1.087-.383-2.886-.16-4.075-.201-.468-.016-1.036.15-1.309-.201.863-.126 1.835-.019 2.818.001zm3.672-.454c.21.025.242-.127.252-.301-.209-.025-.242.128-.252.301z"/><path d="m30.188 15.639c-.188.768-.798 1.551-1.157 2.314.209-.746.806-1.54 1.157-2.314z"/><path d="m28.729 18.407c-.536 1.486-1.402 2.906-2.164 4.377-.501.969-.942 1.965-1.509 2.869.335-1.377 1.293-2.564 1.911-3.824.548-1.182 1.085-2.372 1.762-3.422z"/></g></svg>