<svg enable-background="new 0 0 52.805 78.177" viewBox="0 0 52.805 78.177" xmlns="http://www.w3.org/2000/svg"><g clip-rule="evenodd" fill-rule="evenodd"><path d="m34.616 38.543c.345.364.904.367 1.329.443 3.399.61 6.099 1.893 8.562 3.543 2.744 1.837 4.759 4.542 6.348 7.529 1.648 3.098 2.351 7.445 1.723 11.563-.615 4.031-2.195 6.983-4.232 9.645-.977 1.276-2.29 2.293-3.642 3.297-2.743 2.037-6.017 3.104-10.383 3.494-2.127.189-4.402.099-6.741.099-7.949-.001-16.26.001-24.161 0-1.099 0-2.199.084-3.247-.197-.258-.759-.147-1.58-.147-2.362 0-24.197.049-48.597.049-73.27 0-.708-.188-1.574.246-2.214 8.618-.206 17.834-.049 26.572-.049 2.315 0 4.554-.142 6.594 0 6.232.432 10.204 3.118 13.434 6.594 2.125 2.288 3.507 5.433 4.232 9.152.712 3.657.188 8.109-1.279 11.269-2.458 5.289-6.588 9.072-12.745 10.678-.423.11-.879.224-1.329.344-.379.101-.907.053-1.183.442zm-17.911-35.774c-2.103.957-3.84 2.418-5.265 4.035-1.523 1.728-2.528 3.349-3.494 5.807-.817 2.08-1.628 5.109-1.378 7.824.508 5.522 2.704 9.578 5.954 12.597 3.123 2.902 7.629 5.336 13.532 5.068 2.709-.124 5.328-.816 7.381-1.87 2.045-1.05 3.937-2.283 5.314-3.986 2.657-3.285 5.209-7.646 4.773-13.729-.409-5.707-2.787-9.697-5.954-12.597-3.134-2.869-7.404-5.407-13.483-5.118-3.031.145-5.185.97-7.38 1.969zm-5.118 42.417c-1.57 1.701-2.696 3.462-3.69 5.806-.911 2.146-1.551 5.048-1.329 8.07.218 2.968.779 5.447 1.919 7.578 2.155 4.027 5.276 7.469 9.694 9.3 3.274 1.358 8.253 1.897 12.105.837 3.583-.987 6.63-2.931 8.858-5.364 2.948-3.221 5.338-7.66 5.167-13.828-.17-6.131-2.777-9.962-5.905-13.089-2.938-2.938-7.701-5.553-13.729-5.265-6.019.288-10.085 2.7-13.09 5.955z"/><path d="m24.824 12.119c2.87-.199 5.203 1.629 6.2 3.101.759 1.119 1.273 2.703 1.279 4.084.013 2.784-1.318 4.742-2.805 5.954-1.975 1.61-5.216 1.947-7.627.689-2.48-1.294-4.724-4.799-3.543-8.71.635-2.101 2.001-3.649 3.74-4.477.714-.342 1.686-.567 2.756-.641z"/><path d="m24.971 50.648c3.789-.384 6.571 2.229 7.529 4.872 1.865 5.145-1.771 9.666-5.954 10.284-2.51.371-4.457-.631-5.856-1.87-1.51-1.337-2.643-3.191-2.657-5.757-.008-1.354.671-3.253 1.083-3.937.396-.657 1.24-1.572 1.968-2.116 1.036-.773 2.248-1.31 3.887-1.476z"/></g></svg>