<svg enable-background="new 0 0 77.032 72.532" viewBox="0 0 77.032 72.532" xmlns="http://www.w3.org/2000/svg"><g clip-rule="evenodd" fill-rule="evenodd"><path d="m25.11 2.299c.981.296 2.199.171 3.414.195 1.199.023 2.476-.098 3.56.098.231 1.273.193 2.619.146 3.95-.137 3.885 0 8.076 0 12.193 0 5.489-.088 11.006.098 16.193.465.046.827-.323 1.219-.488 2.961-1.242 7.32-1.169 10.341.098 3.146 1.319 5.854 3.914 7.169 6.975 1.505 3.502 1.508 8.403-.194 11.657-1.584 3.026-4.139 5.472-7.512 6.633-1.94.668-4.129.99-6.194.731-4.112-.515-6.86-2.521-8.926-5.219-1.038-1.357-1.891-3.029-2.341-4.731-1.043-3.939-.673-8.61-.731-13.218-.043-3.354.16-6.821 0-10.34-.05-1.098.204-2.239-.146-3.268-1.156.393-2.112 1.206-3.024 1.95-2.744 2.24-5.021 4.73-6.829 7.999-2.317 4.191-4.006 9.695-3.267 16.047.673 5.783 2.889 10.31 5.804 13.998 2.249 2.844 4.651 5.112 7.902 6.926.52.291 1.023.642 1.561.927.506.268 1.174.378 1.512.926-4.198-.94-7.681-2.7-10.877-4.779-3.113-2.025-6.05-4.391-8.438-7.268-4.748-5.72-8.398-12.697-9.219-22.191-.65-7.538 1.088-14.448 3.658-19.559 3.476-6.91 8.648-12.478 15.169-16.241 1.659-.958 3.454-1.674 5.414-2.438 1.055-.412.403 1.586.731 2.244zm16.876 49.798c1.534-1.035 2.808-2.958 2.78-5.17-.043-3.287-2.898-6.418-6.78-5.901-2.838.377-4.684 2.388-5.316 5.121-.182 3.059 1.177 4.579 2.731 5.901 1.744 1.459 5.021 1.103 6.585.049z"/><path d="m52.959.25c6.752 2.569 11.816 6.936 15.949 12.047.41.508.846 1.024 1.22 1.561.38.547.638 1.185 1.023 1.755 1.533 2.268 2.741 4.873 3.658 7.463 1.924 5.433 2.923 12.892 1.658 19.51-.594 3.112-1.451 5.97-2.585 8.584-1.116 2.576-2.616 4.841-3.95 7.17-3.732 4.832-8.175 8.981-13.998 11.754-1.925.917-3.974 1.851-6.292 2.244.386-.623 1.151-.763 1.756-1.073 1.753-.9 3.448-2.205 4.927-3.463 5.028-4.507 9.077-10.745 9.51-19.851.146-3.067-.485-5.98-1.219-8.535-1.385-4.829-4.144-9.004-7.414-12.146-2.476-2.378-5.468-4.419-8.974-5.706-1.173-.431-2.402-.728-3.609-1.269-.023-5.851-.214-11.905.048-17.655 2.35-.409 5.677.075 7.902-.196.307-.473-.012-1.571.243-2.097.037-.044.09-.073.147-.097z"/></g></svg>