<svg enable-background="new 0 0 16.431 10.966" viewBox="0 0 16.431 10.966" xmlns="http://www.w3.org/2000/svg"><path d="m1.236 1.339c.798-.81 1.909-1.309 3.048-1.339 1.673.003 3.347 0 5.02.001-.002 2.924.001 5.848-.001 8.772.915-.006 1.829-.003 2.744-.002.555-.028 1.113-.24 1.506-.641.469-.449.72-1.114.653-1.761-.033-.513-.285-.991-.632-1.362-.409-.389-.959-.641-1.528-.643-.746.001-1.491-.004-2.237.003.001-1.455 0-2.911-.001-4.367.745.001 1.49.001 2.234 0-.003.727 0 1.454-.002 2.18 1.541-.015 3.044.868 3.802 2.205.484.832.686 1.832.544 2.786-.161 1.157-.808 2.241-1.757 2.923-.643.469-1.413.771-2.208.835-.503.063-1.011.022-1.517.034-1.265.001-2.531-.002-3.796.002.001-2.925 0-5.85 0-8.775-.968.008-1.938-.002-2.908.005-.58.067-1.134.362-1.503.817-.294.378-.491.849-.482 1.332-.03.632.26 1.26.73 1.678.357.317.818.521 1.295.559.788 0 1.576.001 2.363-.001v4.386c-.731-.005-1.463-.003-2.194-.001 0-.731-.002-1.461.001-2.192-1.442.014-2.869-.743-3.663-1.948-.738-1.066-.939-2.471-.559-3.708.202-.665.571-1.274 1.048-1.778z"/></svg>