<svg enable-background="new 0 0 79.385 68.379" viewBox="0 0 79.385 68.379" xmlns="http://www.w3.org/2000/svg"><path clip-rule="evenodd" d="m39.548 0h.097c4.831 8.702 10.326 17.274 15.318 26.061 1.648 2.901 3.649 5.791 4.624 9.152 1.132 3.9.795 8.539-.53 11.802-1.279 3.151-3.46 5.858-5.973 7.804-1.8 1.393-4.173 2.767-7.033 3.323-4.804.936-10.833.633-14.018-2.119-1.532-1.052-2.746-2.444-3.757-4.095-.965-1.573-1.774-3.661-1.831-6.021-.144-5.987 3.131-10.08 7.418-12.091 2.326-1.092 5.247-1.651 8.141-1.061 2.667.546 4.815 1.665 6.551 3.228.474.454.943.885 1.349 1.445.366.508.562 1.339 1.301 1.493.192-.503-.249-.979-.482-1.349-1.781-2.821-3.422-5.83-5.154-8.767-1.674-2.839-3.352-5.839-5.154-8.815-.238-.393-.571-1.094-.867-1.108-.543-.025-1.389 1.94-1.638 2.36-3.414 5.797-6.773 11.802-10.212 17.486-2.987 4.937-5.862 9.948-8.767 14.98-.48.832-.974 1.66-1.445 2.506-.476.854-1.102 1.697-1.253 2.697.977.547 2.229.343 3.372.337 18.014-.095 36.907.064 54.529.097.692.533 1.011 1.387 1.445 2.119.866 1.462 1.717 2.935 2.601 4.432.434.734 1.024 1.438 1.205 2.312-.778.256-1.602.145-2.409.145-25.23.003-51.491-.026-76.976-.143.025-.864.571-1.596.963-2.312 1.178-2.153 2.473-4.265 3.709-6.406 1.641-2.843 3.228-5.733 4.865-8.574 6.542-11.351 13.253-22.602 19.895-33.912 3.316-5.647 6.472-11.376 9.971-16.908.036-.046.088-.075.145-.098zm.53 40.223c-2.015.59-3.771 2.362-3.95 4.721-.319 4.206 4.122 7.107 7.755 5.348 1.991-.965 3.844-3.677 2.794-6.6-.336-.937-.849-1.571-1.252-1.976-.966-.966-2.706-1.789-4.576-1.59-.266.028-.482.012-.771.097z" fill-rule="evenodd"/></svg>