<svg enable-background="new 0 0 19.515 11.336" viewBox="0 0 19.515 11.336" xmlns="http://www.w3.org/2000/svg"><path d="m6.279 0c3.497-.004 6.995.022 10.493 0 .914.001 1.829-.003 2.743.002-.736 1.263-1.479 2.522-2.207 3.789.23.379.45.765.674 1.148.112.188.219.379.331.567.05.094.107.184.158.277.113.188.221.377.33.567.099.167.199.332.293.501.044.074.092.147.134.222.059.103.123.204.18.308.034.062.063.127.089.193-1.444.009-2.887.003-4.33.003.054.081.106.164.151.251.05.085.101.17.151.256.095.168.197.332.292.5.05.086.102.17.152.255.052.093.11.182.159.277.05.086.101.171.152.256.05.094.107.184.159.278.112.188.217.379.331.566.051.093.108.183.158.277.051.085.103.17.153.255.042.075.088.148.132.223.068.122.148.237.208.363-1.453-.035-2.908-.001-4.361-.017-.107-.033-.139-.172-.201-.258-.059-.104-.122-.205-.178-.31-.052-.085-.103-.17-.153-.255-.873-1.497-1.754-2.989-2.621-4.49-.051-.092-.112-.18-.159-.275-.051-.086-.103-.17-.152-.256-.095-.168-.197-.332-.292-.5-.049-.086-.102-.17-.152-.255-.052-.094-.111-.183-.16-.278-.05-.085-.102-.17-.152-.256-.047-.079-.081-.176-.165-.223-.095.181-.203.356-.304.534-.104.177-.209.354-.311.533-.104.177-.207.356-.312.534-.103.178-.208.355-.311.533-.05.085-.102.17-.151.256-.096.167-.197.332-.292.5-.052.085-.102.17-.152.256-.05.095-.11.183-.161.276-.053.087-.111.173-.134.274 1.426.02 2.851-.028 4.277-.007-.705 1.218-1.422 2.428-2.127 3.645-.013.003-.039.008-.052.011-.468-.826-.961-1.638-1.431-2.464-.049-.072-.093-.147-.133-.224-.05-.086-.1-.171-.151-.256-.052-.093-.111-.181-.159-.275-.051-.086-.103-.172-.152-.26-.025-.058-.065-.105-.123-.131-.046.085-.095.169-.144.254-.053.092-.109.181-.158.275-.051.087-.102.173-.153.26-.05.093-.109.182-.159.275-.05.086-.101.171-.151.257-.044.075-.091.148-.135.223-.054.106-.119.206-.177.31-.043.075-.09.149-.134.223-.051.093-.11.182-.16.277-.05.085-.103.169-.152.256-.099.166-.193.334-.292.5-.051.085-.102.17-.152.255-.048.085-.091.176-.159.248-.112.028-.229.007-.343.012-1.323.003-2.647-.004-3.971.005.047-.107.108-.206.163-.308.079-.145.162-.288.242-.434.072-.135.148-.267.222-.4.068-.136.146-.267.222-.4.074-.156.171-.3.248-.455.063-.117.129-.231.196-.345.068-.137.149-.266.222-.4.064-.124.14-.241.204-.366 1.512-2.743 3.041-5.478 4.56-8.218zm6.668 3.793c.012.009.037.026.05.035.154.316.351.608.523.913.5.864 1.011 1.721 1.503 2.588.028.054.065.102.118.133.015-.031.045-.093.06-.123.044-.075.09-.148.135-.222.049-.094.108-.183.159-.276.32-.549.643-1.095.96-1.646.266-.471.559-.927.809-1.407-1.439.005-2.878-.003-4.317.005z"/></svg>