<svg enable-background="new 0 0 26.549 32.569" viewBox="0 0 26.549 32.569" xmlns="http://www.w3.org/2000/svg"><path d="m22.331 1.798c.105-1.326 1.708-2.201 2.895-1.61 1.068.474 1.38 1.669 1.179 2.737-.029-.052-.056-.102-.082-.151-.237.793-1.056 1.343-1.873 1.345-1.213.136-2.373-1.119-2.119-2.321z"/><path d="m7.616 7.572c4.8-2.335 10.85-1.28 14.72 2.349.014-1.194-.005-2.389.01-3.583 1.355-.076 2.72-.032 4.079-.026.065 8.743.089 17.487.124 26.23-1.375-.018-2.753.042-4.126-.029.005-1.177-.007-2.355-.01-3.532-2.434 2.285-5.738 3.729-9.107 3.578-5.088.196-9.996-3.06-12.092-7.65-1.306-2.741-1.551-5.954-.77-8.878.993-3.689 3.701-6.87 7.172-8.459zm4.999 2.874c-3.899.161-7.491 3.178-8.281 7.009-.92 3.742.942 7.88 4.27 9.788 2.066 1.242 4.636 1.602 6.963.997 2.928-.729 5.393-3.034 6.363-5.884.726-2.112.606-4.494-.307-6.531-1.494-3.425-5.269-5.723-9.008-5.379z"/></svg>