<svg enable-background="new 0 0 76.636 76.907" viewBox="0 0 76.636 76.907" xmlns="http://www.w3.org/2000/svg"><path clip-rule="evenodd" d="m45.821.931c.216 4.901-.01 10.542.142 15.522 1.297-.114 2.408-.546 3.597-.757 3.888-.69 8.355-.227 11.594.899 4.325 1.504 7.669 4.238 10.316 7.382 1.348 1.6 2.448 3.536 3.218 5.632.794 2.161 1.528 4.456 1.798 7.051.42 4.029-.086 8.495-.994 11.925-.308 1.161-.599 2.339-.947 3.455-.637 2.043-1.767 4.12-2.839 6.01-1.079 1.903-2.404 3.612-3.691 5.159-4.04 4.854-9.055 8.621-15.38 11.168-2.094.843-4.348 1.569-6.862 1.988-5.023.837-11.049.737-16.042-.521-2.418-.609-4.603-1.258-6.673-2.177-6.008-2.668-11.138-6.601-14.954-11.595-3.774-4.939-6.77-10.85-7.761-18.787-.332-2.657-.477-5.526-.189-8.376 1.08-10.71 5.46-18.049 11.405-23.993 2.931-2.931 6.432-5.323 10.458-7.241 5.193-2.473 11.546-4.163 19.403-3.549 1.583.124 3.212.226 4.401.805zm-9.133 14.386c-5.746.396-10.178 2.86-13.44 5.679-2.966 2.66-5.188 5.818-6.625 9.938-1.464 4.197-1.481 9.895-.142 14.339 1.266 4.2 3.563 7.474 6.483 10.08 2.927 2.612 6.634 4.646 11.026 5.584 5.125 1.095 10.392.304 14.15-1.372 3.849-1.717 6.835-4.383 9.086-7.524 1.039-1.45 2.209-3.303 2.887-5.395.675-2.084 1.319-4.47 1.183-7.004-.139-2.602-.797-4.516-2.177-6.105-1.256-1.445-2.918-2.718-5.631-2.697-3.204.024-5.568 1.863-6.72 4.022-.666 1.248-1.027 2.867-.899 4.354.256 2.968 1.997 5.122 4.07 6.294.313.178.819.245.946.663-2.915.205-6.231.047-9.464.047-3.247 0-6.588.109-9.465-.142-1.608-3.327-1.677-8.618-.805-12.588.446-2.028 1.086-3.801 1.893-5.442.815-1.658 1.973-2.997 2.839-4.496 2.305-2.495 5.051-4.83 8.329-6.247.456-.197 1.077-.257 1.373-.757-2.418-.947-5.562-1.46-8.897-1.231z" fill-rule="evenodd"/></svg>