<svg enable-background="new 0 0 62.366 74.628" viewBox="0 0 62.366 74.628" xmlns="http://www.w3.org/2000/svg"><path clip-rule="evenodd" d="m31.694 19.325c.576-.716.562-1.628.851-2.403 1.97-5.305 6.179-9.249 12.617-10.163 4.138-.589 7.762.71 10.364 2.353 2.682 1.693 4.718 4.146 5.907 7.109 1.372 3.417 1.153 7.929-.15 10.965-1.252 2.917-3.484 5.482-6.008 7.009-2.721 1.646-6.38 2.787-10.514 2.203-2.943-.415-4.983-1.446-6.91-2.854-.596-.436-1.127-1-1.852-1.252-.358.754-.2 1.647-.2 2.453-.002 13.088.083 26.734-.1 39.704-.977.273-2.798.187-3.856.05-.264-.939-.149-1.933-.149-2.904 0-13.085-.001-26.023 0-39.253 0-.975.022-2.035 0-3.054-.022-.995.132-2.051-.051-2.854-.117-.516-.5-.89-.801-1.302-.288-.396-.48-.927-1.002-1.052-.503.613-.573 1.525-.851 2.303-.28.785-.637 1.509-1.052 2.104-.69 1.412-1.701 2.503-2.754 3.555-1.882 1.799-4.227 3.108-7.259 3.755-3.169.676-6.976.272-9.413-1.002-4.59-2.398-8.539-6.813-8.511-13.418.015-3.345 1.186-6.121 2.754-8.261 1.604-2.19 3.661-3.815 6.108-4.907 4.129-1.841 9.852-1.287 13.368.651.584.322 1.126.723 1.651 1.102.513.369.965.914 1.652 1.052.343-.931-.152-1.992-.5-2.704-1.064-2.177-3.134-4.084-5.959-4.506-2.043-.306-4.35-.185-6.658-.25-2.289-.064-4.609.153-6.709-.15-.242-.365-.15-1.08-.15-1.702 0-.64-.114-1.334.2-1.652 3.202-.11 6.958-.001 10.265 0 1.836 0 3.367.021 4.706.351 1.31.322 2.419.894 3.454 1.552 3.109 1.976 5.312 4.981 5.407 9.764.017.81 0 1.648 0 2.503 0 .771-.113 1.634.101 2.403.152.55.533 1.051.851 1.502.318.45.578.957 1.153 1.2zm10.012-7.61c-1.29.697-2.378 1.518-3.254 2.503-1.675 1.882-3.138 4.805-2.904 8.561.154 2.484 1.27 4.36 2.554 5.908 1.344 1.619 3.027 2.84 5.007 3.505 2.42.812 5.009.816 7.26.1 4.06-1.292 7.227-4.356 8.011-8.962.415-2.442.006-5.011-1.102-7.01-1.795-3.239-5.642-6.352-11.065-5.907-1.82.149-3.224.608-4.507 1.302zm-17.072 14.82c.994-1.761 1.65-4.271 1.201-7.009-.418-2.547-1.993-4.726-3.755-6.159-1.726-1.402-4.435-2.69-7.36-2.604-3.897.116-6.539 1.841-8.512 4.256-.922 1.13-1.67 2.523-2.053 4.206-.898 3.958.596 7.391 2.554 9.513 1.018 1.102 2.261 2.14 3.605 2.703 2.892 1.214 7.569 1.284 10.163-.65 1.88-.972 3.112-2.408 4.157-4.256z" fill-rule="evenodd"/></svg>