<svg enable-background="new 0 0 69.829 75.009" viewBox="0 0 69.829 75.009" xmlns="http://www.w3.org/2000/svg"><g clip-rule="evenodd" fill-rule="evenodd"><path d="m69.798 35.915c-.687.262-1.516.145-2.321.145-2.303 0-4.968.079-7.157-.097-.429-2.217-.731-4.283-1.402-6.287-.225-.671-.351-1.356-.58-1.983-.883-2.419-2.26-4.615-3.676-6.529-2.874-3.887-6.716-6.857-11.364-9.044-2.298-1.08-4.933-2.095-7.786-2.417-3.132-.354-6.494-.029-10.012-.193-6.708-.312-13.775.286-20.263-.145-.192-1.317-.173-2.888-.097-4.498.075-1.584-.034-3.253.146-4.739 2.644-.213 5.585-.096 8.414-.097 6.041 0 12.092.049 18.136.048 7.846 0 13.975 2.397 19.198 5.416 5.136 2.968 9.349 7.153 12.622 12.042 3.276 4.892 5.75 10.918 6.142 18.378z"/><path d="m58.385 35.963c-2.593.221-5.587.012-8.27 0-.565-1.399-.844-2.893-1.402-4.255-.555-1.355-1.176-2.605-1.934-3.724-2.606-3.511-5.995-6.31-10.785-7.592-2.624-.703-5.487-.871-8.221-.58-2.71.289-4.954 1.142-7.012 2.176-3.942 1.982-7.141 5.083-9.383 8.995-2.265 3.953-3.351 9.409-2.176 15.185 1.017 4.995 3.372 8.841 6.286 12.09 2.942 3.278 6.675 5.605 11.317 7.012 5.016 1.521 11.635.633 15.958-.87 4.531-1.576 8.041-4.199 10.978-7.351.907-.899 1.789-1.954 2.563-3.095 1.524-2.245 2.607-4.919 3.482-7.834.444-1.483.433-3.067 1.016-4.594 2.064-.157 4.582-.12 6.866-.097.748.007 1.507-.029 2.128.193.111.905-.097 1.799-.241 2.66-1.344 7.986-4.649 13.713-8.995 18.715-.474.545-.952 1.093-1.499 1.596-.533.49-.977 1.082-1.499 1.547-2.165 1.927-4.714 3.426-7.448 4.836-2.657 1.371-5.729 2.481-9.14 3.192-3.521.734-7.579 1.104-11.268.629-7.119-.919-12.744-3.53-17.265-7.303-4.386-3.66-8.215-8.316-10.35-14.266-1.639-4.568-2.675-10.092-1.74-15.959 1.385-8.701 5.368-14.954 11.171-19.586 2.362-1.886 4.895-3.29 7.737-4.546 1.46-.645 2.99-1.155 4.643-1.499 1.705-.355 3.631-.632 5.61-.725 4.563-.216 8.218.71 11.51 2.031 3.245 1.302 6.115 3.005 8.463 5.077 2.429 2.145 4.34 4.667 5.948 7.593 1.589 2.888 3.145 6.177 2.952 10.349z"/></g></svg>