<svg enable-background="new 0 0 77.766 80.606" viewBox="0 0 77.766 80.606" xmlns="http://www.w3.org/2000/svg"><g clip-rule="evenodd" fill-rule="evenodd"><path d="m37.066.199c.134 26.623-.16 53.558-.1 80.208-4.879.083-10.106.083-14.986 0-.026-.332.087-.64.1-.996.223-6.383-.017-12.782.05-19.169.071-6.812.122-13.731-.05-20.463-3.199-.392-6.068.081-8.464.946-4.818 1.74-8.144 4.641-10.655 8.712-.921 1.494-1.673 3.19-2.19 5.079-.163.595-.207 1.261-.598 1.792-.25-17.51.051-35.244.05-52.974 0-.577.023-1.169.05-1.743.025-.533-.129-1.1.149-1.591 11.918.044 24.778-.089 36.644.199z"/><path d="m41.447.149c12.022.095 24.296-.021 36.246.199.144 12.684.057 26.359-.1 39.382-1.389.376-2.74.479-3.983.896-3.773 1.267-6.519 2.939-9.012 5.526-3.077 3.194-5.626 7.667-5.626 13.791 0 5.989 2.392 10.855 5.477 13.94 1.662 1.662 3.347 3.087 5.477 4.232 2.114 1.136 4.586 1.726 7.368 2.29-.684.302-1.473.178-2.19.149-2.271-.091-4.611 0-6.97 0-9.378 0-19.482.118-28.777-.199 2.018-.428 3.937-.753 5.676-1.444 4.882-1.94 8.87-5.664 11.003-10.356 1.481-3.256 2.368-7.739 1.593-12.048-.708-3.936-2.437-7.175-4.581-9.659-2.217-2.461-4.903-4.667-8.314-5.924-1.153-.425-2.374-.653-3.634-1.096-.192-12.321.049-24.679.05-37.191 0-.798-.091-2.102.149-2.39.036-.044.09-.073.148-.098z"/><path d="m17.998 76.026c-2.79-.206-5.043-1.263-6.92-2.539-1.875-1.275-3.416-2.841-4.68-4.83-1.743-2.741-2.93-7.167-2.091-11.749.117-.638.251-1.315.448-1.942.657-2.087 1.396-3.577 2.639-5.129 2.458-3.067 5.632-5.163 10.157-6.074.401-.08.578-.133.648.548.104 1.032.013 2.076 0 2.938-.128 8.383-.05 16.478-.05 24.794-.002 1.353.113 2.77-.151 3.983z"/><path d="m77.444 43.863c.372.516.272 1.235.249 1.842-.171 4.569-.05 9.564-.05 14.289 0 2.713-.05 5.458-.05 8.166 0 2.733.119 5.464-.149 8.065-4.517-.448-7.693-2.338-10.107-5.028-2.375-2.647-4.451-6.263-4.381-10.854.073-4.772 1.656-8.301 4.083-11.053 2.426-2.752 5.448-4.57 9.858-5.377.109-.02.316-.081.547-.05z"/><path d="m41.249 44.012c4.058.911 7.398 3.314 9.509 6.224 1.5 2.068 2.581 4.456 3.037 7.418.475 3.084-.124 6.332-1.195 8.912-.947 2.278-2.589 4.49-4.481 5.974-1.941 1.522-4.145 2.971-7.07 3.336-.217-1.192-.216-2.577-.149-3.983.06-1.271.05-2.553.05-3.833 0-2.62.044-5.26.05-7.966.008-4.53 0-9.16 0-13.99 0-.706-.072-1.649.1-1.992.035-.047.09-.075.149-.1z"/><path d="m.173 63.38c.041.009.05.05.1.05 2.28 9.454 8.098 15.369 18.322 16.878-5.878.284-12.569.181-18.471 0-.167-5.341-.163-11.385 0-16.779-.005-.071-.008-.141.049-.149z"/></g></svg>