<svg enable-background="new 0 0 82.962 82.677" viewBox="0 0 82.962 82.677" xmlns="http://www.w3.org/2000/svg"><path clip-rule="evenodd" d="m15.782.085c3.247-.192 6.964-.001 10.367 0 10.511.001 20.465-.001 30.895 0 3.694 0 7.14-.167 10.265 0 6.217.332 10.594 3.644 13.166 7.775 1.312 2.108 2.418 4.683 2.437 8.035.019 3.52.052 6.926.052 10.212 0 10.506-.052 19.904-.052 30.532 0 3.585.048 6.908 0 10.057-.05 3.232-1.123 5.82-2.437 8.034-1.239 2.09-3.002 4.065-5.132 5.339-2.072 1.24-4.814 2.523-7.879 2.54-6.655.037-13.564.133-20.32 0-5.218-.103-10.446-.001-15.499 0-4.933 0-10.685.095-15.499 0-6.306-.124-10.802-3.459-13.426-7.516-1.383-2.138-2.358-4.723-2.592-7.879-.252-3.405-.053-6.937-.052-10.419 0-10.441.051-20.149.052-30.532 0-3.556-.212-7.034-.052-10.419.302-6.399 3.491-10.597 7.672-13.27 1.719-1.1 5.067-2.653 7.931-2.488.032.001.07.001.103-.001zm17.52 7.62c-4.157 0-8.353 0-12.44 0-1.647 0-3.302-.157-4.821-.052-3.572.247-6.118 2.338-7.413 5.029-1.336 2.776-.934 7.245-.934 11.352v21.098c0 .992-.121 2.025.156 2.955 2.94.206 6.459.104 9.485.052.634-.666.868-1.576 1.244-2.385 1.184-2.542 2.327-5.014 3.474-7.517 4.203-9.177 8.316-18.588 12.492-27.732.387-.847.877-1.702 1.037-2.644-.712-.275-1.511-.156-2.28-.156zm41.989 16.225c0-3.992.464-8.513-.881-11.3-1.224-2.535-3.802-4.628-7.258-4.924-1.492-.129-3.157 0-4.82 0-4.859 0-10.09-.042-14.773.052-.157.445.144.923.311 1.296 2.832 6.318 5.57 12.621 8.397 18.92 1.518 3.381 2.789 6.857 4.354 10.212 1.171 2.509 2.253 5.067 3.369 7.516.375.822.714 1.697 1.244 2.437 3.209.093 6.972.248 9.953-.052.199-7.89.104-16.217.104-24.157zm-37.738-.829c-.052 0-.062-.042-.104-.052-.075.029-.127.081-.155.156-.509.909-.971 2.034-1.452 3.058-2.433 5.174-4.699 10.323-6.998 15.499-.928 2.089-2.048 4.097-2.747 6.272.829.28 1.8.156 2.747.156 2.898 0 6.04.085 8.709-.104.173-8.119.172-16.92 0-24.985zm16.433 18.609c-2.747-6.265-5.486-12.533-8.397-18.662-.035 0-.069 0-.104 0-.072.014-.059.114-.104.156-.093 1.941-.052 4.261-.052 6.428 0 6.163-.085 12.514.104 18.402.834.277 1.796.156 2.748.156h5.702c.965 0 1.956.124 2.799-.156-.711-2.189-1.778-4.229-2.696-6.324zm-46.187 14.255c-.187 1.923-.105 4.292-.105 6.531 0 1.696-.063 3.45.156 4.821.07.44.039 1.028.467 1.245 1.16-1.925 1.972-4.114 2.902-6.221.699-1.581 1.44-3.153 2.125-4.717.232-.531.592-1.057.57-1.659-1.764-.274-4.249-.121-6.115 0zm26.23-.103c-3.693 0-7.938-.043-11.456.052-.507.51-.714 1.233-.985 1.866-.845 1.967-1.751 3.918-2.644 5.909-.873 1.948-1.79 3.947-2.695 5.857-.305.643-.684 1.317-.934 1.97-.129.339-.135.705-.259 1.037-.243.651-.704 1.174-.725 1.918 1.547.603 3.507.466 5.391.466 5.873.001 12.198.085 17.78-.104.274-1.472.155-3.04.155-4.614.001-4.798.089-9.603-.104-14.151-1.078-.345-2.312-.206-3.524-.206zm30.169 9.33c-1.03-2.353-2.069-4.707-3.11-6.998-.343-.753-.516-1.636-1.141-2.229-3.542-.102-7.065-.066-10.523-.052-1.07.004-2.434-.271-3.576-.052-.741.142-.519 1.112-.519 2.125 0 5.614-.085 11.542.104 16.795.863.27 1.817.155 2.748.155 5.772.001 11.719.107 17.417-.052.904-.025 1.882.131 2.644-.311-1.109-3.252-2.688-6.282-4.044-9.381zm5.701-9.278c-.42.019-.882-.104-1.191.155.308 1.184.853 2.27 1.348 3.37.987 2.196 1.965 4.356 2.902 6.531.462 1.071.933 2.176 1.556 3.162.604-.61.726-1.718.777-2.747.114-2.299 0-4.789 0-7.05 0-1.204.12-2.378-.155-3.37-1.521-.185-3.59-.128-5.237-.051z" fill-rule="evenodd"/></svg>