<svg enable-background="new 0 0 73.807 75.775" viewBox="0 0 73.807 75.775" xmlns="http://www.w3.org/2000/svg"><path clip-rule="evenodd" d="m73.807 73.674c-1.497.255-3.263.142-5.003.142-1.71 0-3.471.077-5.002-.094-.466-.412-.627-1.066-.85-1.604-2.101-5.082-4.25-10.255-6.418-15.385-.488-1.156-.842-2.349-1.321-3.492-.481-1.149-.945-2.299-1.416-3.445-.454-1.106-.886-2.262-1.557-3.256-.169.372.181 1.02-.142 1.274-1.45.077-3.223.079-4.672 0-1.295-2.731-2.662-5.196-5.097-6.843-1.163-.786-2.753-1.465-4.389-1.604-1.831-.156-3.69.12-5.333.613-5.96 1.792-8.163 7.846-8.164 15.668 0 7.658 2.069 14.085 8.164 15.714 3.533.944 7.439.211 9.769-1.321 1.233-.811 2.2-1.765 2.974-2.973.771-1.207 1.266-2.59 1.887-4.059 1.58-.145 3.774-.177 5.238 0-.182 1.21-.672 2.379-1.18 3.445-2.548 5.353-6.491 8.939-14.062 9.296-2.945.139-5.802-.328-8.117-1.227-4.213-1.635-7.347-5.304-8.871-9.815-.769-2.274-1.274-5.097-1.274-8.07 0-3.021.266-5.816.802-8.541-.647.897-1.034 1.987-1.463 3.067-2.143 5.4-4.494 10.868-6.748 16.233-.909 2.165-1.722 4.342-2.784 6.371-2.659.134-5.998.088-8.778-.046.108-.83.496-1.593.802-2.36.899-2.25 1.925-4.581 2.879-6.89 3.785-9.156 7.685-18.359 11.421-27.606.631-1.562 1.369-3.036 1.84-4.672.223-.773.639-1.545.943-2.312 1.513-3.811 3.157-7.661 4.767-11.468 1.945-4.601 3.785-9.231 5.71-13.826.628-1.5 1.172-3.063 1.982-4.483 3.906-.104 8.127-.147 12.081-.047.595.584.806 1.433 1.132 2.171 2.341 5.297 4.609 10.737 6.891 16.092 1.305 3.062 2.614 6.122 3.916 9.202 1.303 3.081 2.456 6.239 3.823 9.297 4.074 9.118 7.667 18.472 11.797 27.559.691 1.521 1.263 3.084 1.936 4.625.667 1.53 1.379 3.074 1.887 4.67zm-37.612-65.218c-1.205 2.807-2.456 5.684-3.634 8.542-2.952 7.163-5.999 14.345-8.967 21.377-.608 1.442-1.227 2.915-1.651 4.436.751-.54 1.137-1.443 1.746-2.124 2.097-2.334 5.044-4.045 8.777-4.814 4.01-.825 8.383-.37 11.609 1.086 1.378.621 2.593 1.503 3.634 2.406.976.847 1.7 1.854 2.501 2.784.06.069.213.35.377.236-1.007-2.894-2.233-5.738-3.444-8.589-3.31-7.791-6.497-15.651-9.769-23.454-.265-.631-.616-1.943-1.038-2.029-.067.028-.114.076-.141.143z" fill-rule="evenodd"/></svg>