<svg enable-background="new 0 0 68.808 78.825" viewBox="0 0 68.808 78.825" xmlns="http://www.w3.org/2000/svg"><g clip-rule="evenodd" fill-rule="evenodd"><path d="m36.613.002c.043-.009.047.019.05.05.18 3.264.1 7.13.1 10.728 0 1.197.174 2.52-.05 3.526-.129.58-.687 1.396-1.093 2.086-2.695 4.583-5.484 9.552-8.046 14.056-3.092 5.436-6.156 10.78-9.139 16.093-1.519 2.703-2.928 5.46-4.471 8.146-4.203 7.314-8.466 14.671-12.615 22.102-.178.32-.4.665-.596.994-.153.258-.262.78-.695.745-.115-4.669-.017-9.552-.05-14.304 12.222-21.306 24.107-42.947 36.457-64.123.036-.046.09-.075.148-.099z"/><path d="m42.971 11.525c.295.497.199 1.132.199 1.689 0 4.244-.001 8.269-.05 12.566-3.572 6.731-7.665 13.167-11.324 19.867-3.631 6.648-7.571 13.189-11.324 19.817-1.878 3.317-3.715 6.604-5.612 9.983-.307.545-.587 1.137-.894 1.688-.293.526-.59 1.129-1.093 1.49-.231-4.603-.033-9.635-.099-14.404 4.865-8.759 9.82-17.552 14.949-26.324 2.505-4.283 5.002-8.734 7.5-13.162 1.801-3.192 3.781-6.522 5.662-9.834.667-1.173 1.31-2.502 2.086-3.376z"/><path d="m49.726 21.707c.041.01.05.05.1.05.115 4.603.018 9.42.05 14.106-5.968 10.852-12.312 21.473-18.427 32.234-1.782 3.137-3.631 6.226-5.414 9.387-.236.419-.424.961-.894 1.192-.19-4.616-.096-9.793-.1-14.454 8.195-14.139 16.241-28.425 24.536-42.466.005-.039.164-.15.149-.049z"/><path d="m55.885 32.982c.04.009.05.05.1.049.064 3.639.094 7.201 0 10.729-.031 1.159.233 2.462 0 3.526-.138.627-.689 1.339-1.093 2.037-5.518 9.534-10.867 19.058-16.49 28.509-.179.301-.292.751-.695.845-.231-4.587-.033-9.602-.1-14.354 6.026-10.448 11.968-20.978 18.13-31.292.004-.039.164-.15.148-.049z"/><path d="m61.796 43.71c.333.461.198 1.093.198 1.639v9.139c0 1.198.179 2.544-.05 3.576-.146.663-.773 1.469-1.192 2.186-.847 1.448-1.638 2.811-2.483 4.271-.431.745-.93 1.481-1.241 2.136-.141.295-.181.656-.298.894-.477.965-1.135 1.878-1.689 2.831-1.508 2.591-3.036 5.265-4.619 7.847-.101.165-.166.579-.496.497-.208-3.597-.029-7.034-.1-10.579-.022-1.162-.149-2.73.05-3.725.19-.951 1.217-2.227 1.738-3.08.646-1.057 1.209-2.115 1.738-3.03.578-.998 1.151-2.032 1.738-3.029.589-1 1.313-1.957 1.788-2.98.111-.239.137-.515.249-.745.62-1.277 1.546-2.538 2.284-3.824.773-1.347 1.447-2.727 2.235-3.874.046-.066-.018-.179.15-.15z"/><path d="m62.739 78.825c-.231-4.587-.034-9.602-.1-14.354 1.889-3.41 3.814-6.782 5.861-10.033.005-.04.164-.15.148-.05.042-.009.047.02.05.05.264 4.639-.05 9.55.05 14.354-1.685 2.958-3.45 5.927-5.165 8.891-.231.401-.382.937-.844 1.142z"/></g></svg>