<svg enable-background="new 0 0 79.178 58.579" viewBox="0 0 79.178 58.579" xmlns="http://www.w3.org/2000/svg"><path clip-rule="evenodd" d="m52.571 29.294c2.668-5.315 5.112-10.402 7.851-15.849.268-.533 1.135-1.843 1.03-2.355-.188-.926-1.543-1.376-1.668-2.601-.123-1.207.538-2.041 1.276-2.502 1.046-.654 2.259-1.111 3.386-1.57 2.797-1.139 5.822-2.509 8.734-3.68.538-.216 1.558-.757 1.962-.736.671.035.7 1.064.835 1.668.154.692.399 1.356.539 1.914.372 1.477.6 2.757.884 4.023.419 1.862 1.015 4.002 1.472 5.938.163.69.354 1.464.294 2.159-.095 1.092-.939 1.993-1.815 2.208-.835.206-1.351-.098-2.209-.147-.956.437-1.252 1.507-1.668 2.355-3.04 6.194-6.199 12.382-9.323 18.597-1.74 3.461-3.466 7.099-5.348 10.648-1.96 3.695-2.888 7.436-7.164 8.783-1.954.616-4.921.392-7.605.392-2.718 0-5.308-.049-7.851-.049-8.144 0-15.64-.148-23.7-.147-2.646 0-5.421.144-7.36-.589-3.413-1.288-6.336-5.417-4.613-10.354.643-1.842 1.711-3.628 2.601-5.397.9-1.791 1.823-3.585 2.649-5.349.866-1.846 1.561-3.743 2.503-5.495.939-1.748 1.824-3.511 2.699-5.25 2.605-5.181 5.273-10.675 7.949-15.997.898-1.786 1.722-3.723 2.796-5.152 1.156-1.538 3.1-2.571 5.103-2.895 2.363-.383 4.722.576 6.133 1.766 1.336 1.127 2.312 3.091 3.141 4.858.869 1.854 1.844 3.67 2.601 5.349 1.643 3.642 3.593 6.979 5.299 10.647.812 1.746 1.759 3.578 2.649 5.349.212.422.329.938.54 1.472.381.964.809 1.605 1.325 2.649.189.382.56 1.121.834 1.129.481.014.722-.89.932-1.325.743-1.538 1.552-3.041 2.307-4.465zm22.376-18.106c-.334-1.633-.715-2.925-1.129-4.71-.179-.771-.28-2.26-1.128-1.963-1.445.507-2.666 1.15-4.122 1.767-.611.259-1.312.571-2.061.883-.458.191-1.91.665-1.914 1.08-.002.305.761.634 1.03.785.44.247.96.369 1.031.834.081.538-.658 1.603-.981 2.257-2.576 5.208-4.977 9.934-7.508 15.163-2.454 5.07-5.069 10.152-7.606 15.064-.366.708-.573 1.57-1.227 2.061-.708-.57-.929-1.492-1.325-2.257-.204-.396-.387-.791-.588-1.178-.226-.434-.303-.881-.491-1.325-.69-1.626-1.596-3.205-2.355-4.809-1.145-2.416-2.372-4.797-3.533-7.213-.385-.802-.865-1.549-1.227-2.355-.722-1.614-1.568-3.183-2.355-4.809-1.571-3.246-3.15-6.291-4.71-9.617-.999-2.131-1.911-4.711-4.612-4.858-2.669-.146-3.737 2.065-4.662 4.023-1.899 4.024-3.953 7.678-5.888 11.58-3.404 6.864-6.781 13.694-10.108 20.461-.974 1.982-1.745 3.951-2.797 5.938-.535 1.009-.811 2.368-.442 3.533.214.674.679 1.17 1.031 1.619 1.224 1.201 3.353 1.08 5.79 1.079 4.603 0 9.04.004 13.347.049 5.266.055 10.535.098 15.702.098.634 0 1.476.203 2.012-.294-.027-.582-.332-1.107-.589-1.619-.54-1.074-1.015-1.969-1.57-3.091-.213-.432-.522-1.343-.834-1.521-.569-.324-2.368-.098-3.336-.098-6.033 0-11.441 0-17.076 0-1.703 0-3.34.049-5.054.049-.507 0-1.114.078-1.521-.245.039-.75.478-1.417.785-2.061 3.486-7.311 7.262-14.563 10.844-21.688.992-1.972 1.889-4.011 2.944-5.889.349-.62.542-1.391 1.128-1.864.613.606.956 1.445 1.325 2.208 1.179 2.442 2.379 4.771 3.582 7.164 4.013 7.982 7.786 15.958 11.826 23.994.788 1.566 1.471 3.575 2.748 4.417 1.386.913 3.497.439 4.514-.393 1.204-.985 1.952-3.311 2.797-4.858.948-1.736 1.754-3.566 2.551-5.152 1.702-3.384 3.596-6.856 5.152-10.255.782-1.708 1.681-3.421 2.552-5.152.849-1.69 1.723-3.396 2.601-5.103 1.277-2.484 2.409-5.192 3.827-7.704.37-.654.974-2.319 1.472-2.404.844-.144 1.734 1.087 2.503.736.134-.75-.182-1.556-.345-2.357zm-48.579 16.536c-.373.742-.778 1.512-1.128 2.208-1.896 3.77-3.635 7.491-5.545 11.139-.388.742-.975 1.469-.883 2.355.61.329 1.354.196 2.061.196 4.589 0 9.323.001 13.837 0 .705 0 1.502.158 2.11-.196-.077-.856-.576-1.589-.932-2.355-2.128-4.575-4.485-9.04-6.723-13.592-.317-.645-.792-2.037-1.423-2.061-.491.529-.962 1.488-1.374 2.306z" fill-rule="evenodd"/></svg>