<svg enable-background="new 0 0 84.452 72.394" viewBox="0 0 84.452 72.394" xmlns="http://www.w3.org/2000/svg"><path clip-rule="evenodd" d="m58.994 56.219c-3.256-.146-6.654-.103-10.057-.104-.358 0-.852.363-1.244.57-4.012 2.119-10.629 1.352-16.276 1.503-1.027.028-2.149-.052-3.267-.052-1.143 0-2.798-.22-3.628.104-.686.268-1.656 2.078-2.073 2.747-.65 1.043-1.291 2.025-1.866 2.903-2.543 3.878-4.491 8.406-10.679 8.502-5.546.085-9.771-3.864-9.9-9.279-.078-3.25 1.109-5.108 2.384-7.206 2.449-4.03 4.911-7.899 7.361-11.818 2.422-3.875 5.073-7.655 7.567-11.611 2.453-3.889 4.943-7.823 7.361-11.819 1.188-1.963 2.361-3.985 3.629-5.961 1.247-1.944 2.479-3.927 3.68-5.909 1.226-2.025 2.369-4.1 3.837-5.754 1.872-2.112 5.118-3.565 8.863-2.851 2.124.404 3.67 1.214 4.925 2.384 1.704 1.589 2.795 3.936 3.939 5.806 3.807 6.221 7.303 12.075 10.938 18.247 1.194 2.028 2.502 4.003 3.732 6.013.618 1.009 1.105 2.086 1.763 3.11 1.885 2.936 3.576 6.105 5.494 9.071 2.594 4.009 4.991 8.008 7.413 12.078 1.152 1.936 2.022 4.781 1.296 7.827-.628 2.635-2.111 4.453-3.939 5.754-2.027 1.443-4.923 2.086-7.775 1.451-2.733-.607-4.349-2.068-5.755-3.991-1.399-1.915-2.465-4.041-3.732-6.013-.633-.984-1.27-2-1.866-3.006-.572-.966-1.036-2.085-2.125-2.696zm-23.119-6.272c1.384 2.859 3.994 4.344 8.086 4.406 3.906.06 8.387 0 12.44 0 1.449 0 3.017-.13 4.044.155 1.027.286 1.542 1.49 2.073 2.437.538.958 1.155 1.801 1.607 2.644.968 1.805 2.104 3.562 3.162 5.339.527.886 1.063 1.762 1.658 2.591 1.117 1.56 3.427 2.579 5.961 2.54 3.745-.057 6.376-2.661 7.206-5.598.755-2.673-.166-4.962-1.192-6.739-2.014-3.483-4.301-7.142-6.428-10.626-1.055-1.728-2.089-3.547-3.214-5.287-1.123-1.737-2.104-3.534-3.162-5.339-2.084-3.553-4.429-7.005-6.479-10.575-2.023-3.518-4.184-7.067-6.428-10.626-1.6-2.537-3.184-5.397-4.77-7.983-.545-.888-1.076-1.869-1.71-2.592-1.253-1.427-3.367-2.724-6.117-2.591-5.433.262-7.058 5.222-9.383 8.708-1.223 1.834-2.392 3.634-3.473 5.443-1.121 1.876-2.353 3.661-3.369 5.598-1.002 1.909-2.276 3.677-3.37 5.547-1.094 1.871-2.419 3.6-3.524 5.443-2.244 3.74-4.665 7.35-6.998 10.937-2.318 3.565-4.677 7.443-6.895 10.99-1.059 1.694-2.647 3.817-3.214 5.754-.766 2.62.002 5.321 1.348 6.998 1.334 1.662 3.454 2.875 6.065 2.851 2.718-.024 4.644-1.346 5.961-3.006 1.257-1.583 2.373-3.669 3.525-5.443.529-.815 1.141-1.748 1.762-2.695.594-.905 1.027-2.077 1.814-2.695 1.016-.799 3.11-.57 4.925-.57 4.286 0 8.041.147 12.13-.052-.248-.442-.776-.569-1.192-.777-.895-.447-1.688-.932-2.437-1.607-.329-.297-.654-.848-1.089-.933-.983-.192-2.336 0-3.524 0-2.513 0-4.321-.052-6.895-.052-1.136 0-2.611-.23-3.473.052-.524.172-.896.929-1.244 1.451-1.906 2.851-3.521 5.44-5.288 8.243-1.266 2.008-2.453 4.971-5.701 4.406-1.281-.223-2.278-.988-2.852-2.021-1.349-2.434.41-4.745 1.399-6.324 3.453-5.507 6.679-10.785 10.212-16.173 2.65-4.041 5.237-8.049 7.724-12.026.853-1.364 1.556-2.769 2.436-4.147 1.149-1.798 2.289-3.59 3.369-5.443 2.23-3.554 4.62-7.099 6.843-10.73.754-1.232 1.448-2.641 2.54-3.37 1.989-1.326 4.485-.313 5.599 1.192.736.995 1.36 2.198 2.021 3.317 2 3.386 3.996 6.747 6.013 10.057 2.75 4.511 5.374 9.069 8.139 13.27 4.684 7.685 9.378 15.659 14.048 23.378.684 1.13 1.616 2.26 1.97 3.421 1.103 3.618-2.58 6.541-5.702 4.976-1.314-.659-2.13-2.363-2.902-3.629-.833-1.362-1.653-2.869-2.437-4.146-.78-1.273-1.611-2.641-2.488-4.044-.858-1.372-1.646-3.549-3.317-3.888-4.518-.137-9.8-.103-14.67-.103-1.67 0-3.461.18-4.873-.104-1.057-.212-1.755-.881-2.384-1.606-.366-.568-.422-1.445-.83-1.97-1.105-.026-2.796-.21-3.732.104-.217 1.262.258 2.399.676 3.262zm22.289-1.659c.837 0 1.906.052 2.696.052 1.022 0 1.928-.1 2.644.155 1.238.442 2.032 2.4 2.799 3.681.809 1.351 1.73 2.573 2.437 3.939.398.772.737 1.502 1.192 2.229.433.691.805 1.417 1.243 2.177.579 1.002 1.825 3.541 3.215 3.68 1.188.119 1.698-.592 2.073-1.399.065-.579-.074-1.09-.26-1.503-.503-1.12-1.297-2.229-1.97-3.369-1.353-2.294-2.708-4.507-4.043-6.739-.686-1.147-1.31-2.292-1.97-3.421-1.3-2.222-2.854-4.385-4.095-6.687-1.215-2.252-2.718-4.532-4.096-6.687-2.804-4.385-5.369-8.796-8.138-13.425-1.948-3.256-4.132-6.71-6.117-10.057-.659-1.111-1.416-2.62-2.54-2.851-1.671-.342-2.476 1.672-3.266 2.903-2.22 3.457-4.464 6.925-6.531 10.264-2.2 3.553-4.268 6.894-6.428 10.315-.715 1.132-1.338 2.349-2.074 3.525-2.912 4.659-5.782 8.961-8.708 13.633-2.452 3.916-5.098 8.013-7.568 12.026-.318.517-.793 1.354-.726 2.074.076.809.795 1.72 1.97 1.607 1.289-.124 2.214-1.939 2.955-3.11 1.5-2.37 3.19-5.135 4.717-7.464.729-1.111 1.394-2.989 2.695-3.421.846-.281 2.317-.156 3.525-.156 2.274 0 4.478.052 6.738.052 1.118 0 2.267.125 3.317-.156-.213-1.017-.4-2.5-.777-3.524-1.035-.15-2.243-.138-3.473-.156-1.195-.018-2.558.217-3.577-.104-1.063-.335-2.004-1.45-1.658-3.007.125-.566.598-1.207.984-1.814 1.115-1.75 2.239-3.645 3.266-5.288 1.461-2.336 3.017-4.754 4.51-6.894.778-1.115 1.38-2.403 2.125-3.577 1.523-2.398 2.88-4.536 4.406-6.997.732-1.18 1.395-2.701 2.748-2.955 2.173-.407 2.983 1.811 3.784 3.162 1.914 3.233 3.826 6.564 5.649 9.642 1.923 3.247 3.889 6.199 5.858 9.435.517.849 1.665 2.352 1.762 3.37.137 1.442-.736 2.253-1.762 2.591-1.63.539-4.093-.27-5.65.312.131 1.168.551 2.488.726 3.784 1.649.277 3.515.153 5.393.153zm-15.551-30.013c-.709.708-1.432 2.203-2.073 3.214-2.069 3.258-4.139 6.478-6.117 9.642-2.377 3.802-4.796 7.511-7.153 11.197-.336.525-.859 1.069-.777 1.763.517.346 1.222.259 1.866.259h10.781c1.559 0 3.078-.136 4.354 0 1.349.143 2.58 1.143 3.059 2.125.251.516.241 1.188.622 1.71 1.123.062 2.403.163 3.421-.052.229-1.257-.14-2.197-.466-2.955-1.081-2.508-3.513-4.462-6.791-4.666-1.411-.087-2.924.135-4.51.104-.646-.013-1.45-.081-2.229-.052-.639.024-1.544.161-2.074-.052-1.385-.556-.389-2.129.156-2.955.421-.638.778-1.241 1.088-1.762 1.806-3.035 3.746-5.791 5.495-8.812.337-.583.792-1.375 1.555-1.348.955.034 1.652 1.774 2.126 2.592 1.267 2.188 2.359 3.795 3.628 5.857.424.688 1.668 2.211 1.607 3.162-.037.588-.58 1.099-1.089 1.244-1.116.319-2.411-.138-3.628.208.379.403.936.527 1.399.726.505.217.997.432 1.451.726.9.583 1.479 1.446 2.385 1.97.995.093 2.197.052 3.369.052 1.128 0 2.406.187 3.162-.259-.047-.615-.43-1.146-.726-1.659-.289-.501-.581-1.016-.882-1.503-1.816-2.948-3.613-5.879-5.494-8.812-2.139-3.335-4.139-7.007-6.272-10.419-.323-.518-.641-1.331-1.089-1.348-.059.024-.116.054-.154.103zm3.836 16.38c-.774-1.22-1.595-2.433-2.385-3.732-.317-.523-.956-1.958-1.555-1.607-.511.612-1.043 1.416-1.504 2.177-1.147 1.896-2.426 3.786-3.576 5.599-.229.361-.583.784-.519 1.244.49.395.989-.046 1.399-.259.437-.228.921-.449 1.4-.622 1.661-.601 3.448-.57 5.649-.57.722 0 1.608.193 2.073-.259-.12-.668-.559-1.306-.982-1.971zm-4.977 11.871c-.151.038-.223.157-.311.259.089 1.489 2.026 1.663 3.576 1.348.142-1.56-1.543-1.737-3.265-1.607z" fill-rule="evenodd"/></svg>