<svg enable-background="new 0 0 18.351 13.362" viewBox="0 0 18.351 13.362" xmlns="http://www.w3.org/2000/svg"><path d="m6.903.023c.277-.054.558-.001.834.034.225.034.433.128.648.192.794.006 1.589 0 2.384.003.133.003.225.131.35.156.622.005 1.246-.004 1.868.003.21.081.377.249.553.386-.645-.006-1.29.008-1.935-.008.052.052.105.105.153.162-.816-.03-1.635.007-2.452-.02.057.091.121.178.186.264-1.249-.016-2.499-.003-3.749-.007-.335.005-.67-.011-1.004.009.51-.674 1.327-1.093 2.164-1.174z"/><path d="m4.637 1.381c1.649-.001 3.298.004 4.947-.002.037.071.075.142.111.214.811-.002 1.622 0 2.433-.001.026.056.054.112.081.169.658-.001 1.315-.006 1.972.002.067.127.129.255.198.381-.655-.018-1.31-.001-1.964-.008.028.055.057.11.084.167-.812-.001-1.624.006-2.436-.004.043.071.083.143.126.214-2.071 0-4.142 0-6.212 0 .214-.381.444-.752.66-1.132z"/><path d="m3.842 2.726c2.152-.009 4.304 0 6.455-.005.043.078.085.155.127.233.808.002 1.617.006 2.425-.003.026.049.051.099.076.149.595-.004 1.19 0 1.785-.003.059.008.131-.017.183.021.081.123.142.257.208.389-.651-.016-1.303.008-1.954-.015.022.049.043.099.065.149-.806.007-1.613-.006-2.419.007.044.082.093.161.138.242-.919-.024-1.839-.003-2.758-.01-1.664.003-3.328-.008-4.992.005.229-.381.444-.771.661-1.159z"/><path d="m3.077 4.074c2.396.015 4.793.002 7.19.006.251-.005.503.011.753-.01.046.081.088.163.134.243.812.001 1.624-.002 2.437.002.028.055.057.111.085.166.653-.022 1.307.007 1.96-.015.073.129.14.261.209.392-.663-.009-1.326.012-1.987-.012.039.052.078.104.116.157-.819-.016-1.639.008-2.459-.012.047.08.094.161.14.243-1.447.002-2.895 0-4.342.002-.109-.203-.226-.4-.339-.601-.127.196-.233.404-.359.6-1.411.003-2.822-.007-4.233.006.247-.379.46-.781.695-1.167z"/><path d="m2.276 5.44c1.41.002 2.819.004 4.229-.001-.212.38-.435.755-.647 1.136-1.413-.003-2.826.007-4.238-.005.221-.375.433-.756.656-1.13z"/><path d="m7.421 5.438c1.447.007 2.894.005 4.341.001.041.072.081.144.118.218.811-.008 1.622.001 2.433-.005.026.056.055.113.083.169.657.001 1.314.001 1.97-.001.062.131.138.255.205.383-.653-.012-1.306-.003-1.958-.005.03.056.061.112.093.168-.813-.01-1.626.006-2.439-.008.038.07.076.14.111.212-1.437.011-2.875.001-4.312.005-.209-.382-.422-.763-.645-1.137z"/><path d="m1.492 6.781c1.42.005 2.84.008 4.259-.001-.252.373-.44.793-.692 1.162-1.412-.004-2.824-.008-4.235.001.221-.388.453-.771.668-1.162z"/><path d="m8.166 6.784c1.442 0 2.884.002 4.326-.001.046.079.09.158.135.238.805-.019 1.611.003 2.417-.011.034.056.066.113.099.17.65-.018 1.3.005 1.949-.012.074.135.145.272.23.401-.658-.017-1.316.01-1.973-.015.023.051.047.102.072.153-.811-.002-1.621 0-2.432-.001.052.077.101.157.145.24-1.319-.018-2.638-.003-3.957-.008-.114-.008-.234.02-.343-.011-.224-.379-.43-.772-.668-1.143z"/><path d="m.721 8.132c1.415.01 2.83.01 4.245 0-.224.388-.45.774-.665 1.167-1.391-.002-2.783 0-4.175-.001.137-.417.369-.793.595-1.166z"/><path d="m8.949 8.132c1.165.012 2.331.002 3.496.005.261-.004.521.008.782-.007.041.084.088.165.138.245.808.001 1.615.001 2.423 0 .033.054.064.109.098.163.651-.009 1.302-.003 1.954-.003.072.127.136.259.21.385-.655-.002-1.31-.001-1.964-.001.029.048.059.096.087.145-.815-.017-1.631.001-2.446-.01.043.085.093.167.152.243-1.424-.003-2.847 0-4.271-.001-.22-.388-.431-.78-.659-1.164z"/><path d="m.061 9.505c2.023.002 4.046.007 6.069-.002-.008.378-.007.757-.002 1.135-2.024.001-4.048-.003-6.073.002-.056-.375-.091-.764.006-1.135z"/><path d="m7.773 9.504c2.046.006 4.091.004 6.137.001.002.073.003.147.005.221.807-.008 1.614.007 2.421-.008.003.056.007.111.011.168.668-.004 1.336-.001 2.004-.001 0 .116 0 .232.001.348-.666-.016-1.334.007-2-.011-.006.055-.012.111-.017.166-.8-.001-1.599 0-2.398-.001-.007.083-.013.167-.017.25-2.049.001-4.098 0-6.146.001.003-.378.002-.756-.001-1.134z"/><path d="m.08 10.85c2.016-.006 4.032-.001 6.048-.002-.008.385-.003.77 0 1.156-1.273-.012-2.546-.002-3.819-.005-.584.004-1.168-.008-1.752.007-.197-.368-.386-.747-.477-1.156z"/><path d="m7.774 10.849c2.046-.002 4.091 0 6.137-.001-.023.078-.04.157-.05.238.797-.024 1.595.004 2.393-.014.002.057.004.114.006.172.67-.018 1.341.001 2.012-.01-.043.13-.082.262-.111.397-.67-.031-1.342.005-2.012-.011-.026.051-.052.102-.076.153-.798-.006-1.595-.002-2.393-.002-.036.078-.07.158-.105.237-.753-.022-1.507-.003-2.261-.01-1.18.003-2.361-.006-3.541.005.004-.385.002-.77.001-1.154z"/><path d="m.654 12.197c.956.013 1.913.002 2.87.006.867-.003 1.734.007 2.6-.005-.006.388-.003.775-.002 1.163-1.186-.003-2.372.007-3.557-.004-.746-.141-1.45-.554-1.911-1.16z"/><path d="m7.773 12.196c1.902.005 3.804.007 5.706-.001-.054.081-.109.162-.162.245.804-.002 1.608.005 2.412-.003-.052.057-.106.114-.157.171.697-.008 1.394.008 2.09-.009-.134.129-.245.292-.413.379-.667.016-1.334.004-2.001.005-.186-.023-.323.15-.503.156-.738-.002-1.477-.001-2.215-.001-.278.07-.544.212-.836.224-1.307-.002-2.614 0-3.921-.001.005-.388.002-.777 0-1.165z"/></svg>