<svg enable-background="new 0 0 67.435 59.845" viewBox="0 0 67.435 59.845" xmlns="http://www.w3.org/2000/svg"><path d="m15.903 0c10.991.077 21.991-.085 32.977.135 1.554 2.591 3.207 5.139 4.733 7.735-1.208 2.582-2.513 5.156-3.927 7.636-5.354.077-10.718-.039-16.075.044 1.214 2.264 2.55 4.483 3.913 6.656 8.339.074 16.696-.021 25.033.082 1.755 2.447 3.218 5.142 4.879 7.673-1.635 2.582-3.237 5.189-4.879 7.766-4.095-.068-8.203.06-12.29-.074-.476.233-.611.809-.893 1.219-4.267 6.981-8.664 13.888-12.751 20.972-2.897-.005-5.796-.005-8.693 0-.496-1.137-1.046-2.255-1.71-3.305-.546 1.142-1.312 2.168-1.916 3.284-2.868.029-5.737.026-8.605-.001-5.264-10.018-10.585-20.006-15.699-30.078 5.289-9.929 10.62-19.812 15.903-29.744zm.87.754c5.109 9.427 10.733 18.57 15.968 27.929.29.419.508 1.064 1.144.97 10.822-.107 21.657.127 32.475-.088-1.405-2.183-2.735-4.413-4.129-6.604-8.388-.048-16.778.02-25.156-.11-3.061-5.106-6.149-10.203-9.067-15.396 8.186.016 16.374-.01 24.559.027-1.339-2.222-2.728-4.419-4.091-6.628-10.586.041-21.124-.14-31.703-.1zm-.648.457c-5.252 9.455-10.26 19.106-15.403 28.645 5.164 9.59 10.022 19.315 15.233 28.878 1.274-2.224 2.63-4.43 3.851-6.667-1.278-2.467-2.642-4.895-3.969-7.339 2.888-5.153 5.768-10.312 8.778-15.394 1.472 2.338 2.67 4.835 4.13 7.18 1.372-2.135 2.654-4.331 3.891-6.543-5.39-9.628-11.099-19.252-16.511-28.76zm13.081 6.969c1.279 2.205 2.543 4.434 3.908 6.582 5.357.151 10.739-.085 16.097.117 1.284-2.127 2.293-4.405 3.465-6.597-7.814-.155-15.649-.021-23.47-.102zm4.148 22.119c-1.361 2.2-2.717 4.408-3.96 6.678 4.218.033 8.439-.059 12.654.05-4.329 7.394-8.764 14.727-13.214 22.055 2.443.06 4.888.004 7.331.033 4.493-7.384 8.976-14.777 13.534-22.123 4.174.007 8.35.016 12.526.007 1.323-2.224 2.731-4.395 4.109-6.586-.635-.16-1.288-.137-1.934-.128-10.35.018-20.698-.016-31.046.014zm-16.53 14.007c2.486.032 4.977.039 7.461.001 1.378-2.318 2.739-4.662 4.074-7.012-1.29-2.177-2.48-4.411-3.724-6.615-2.691 4.494-5.152 9.114-7.811 13.626zm12.092-6.616c-1.103 2.082-2.36 4.082-3.522 6.132-1.07 1.263.732 2.434.991 3.68h.323c1.921-3.256 3.798-6.537 5.751-9.776-1.165-.197-2.37-.111-3.543-.036zm4.339.026c-2.092 3.599-4.246 7.167-6.293 10.795.589 1.222 1.428 2.351 1.864 3.63-.655 1.218-1.432 2.37-2.081 3.593.356.992.945 1.894 1.362 2.867.059.002.175.007.233.01 4.107-6.988 8.459-13.847 12.474-20.891-2.505-.157-5.053-.164-7.559-.004zm-16.443 7.329c1.178 2.252 2.458 4.447 3.624 6.705 2.485-.021 4.968.012 7.453-.018-1.225-2.219-2.346-4.496-3.626-6.684-2.484-.008-4.968-.007-7.451-.003zm3.562 7.413c-1.279 2.219-2.497 4.486-3.886 6.637 2.464-.02 4.953.088 7.402-.05 1.413-2.152 2.696-4.41 3.937-6.669-2.472.184-4.969.059-7.453.082z"/><path d="m16.264 14.613c1.699 2.536 2.994 5.322 4.565 7.942-2.888 5.125-5.692 10.304-8.648 15.384-1.436-2.468-2.706-5.031-4.125-7.512-.228-.37-.155-.835.072-1.185 2.758-4.851 5.306-9.826 8.136-14.629zm-.001 1.349c-2.487 4.507-5.051 8.986-7.39 13.569 2.402.033 4.821.077 7.213-.018 1.388-2.28 2.652-4.654 3.964-6.986-1.298-2.167-2.429-4.432-3.787-6.565zm-3.982 20.531c1.058-2.124 2.316-4.135 3.414-6.238-2.277-.037-4.567.107-6.836-.103.977 2.172 2.108 4.344 3.422 6.341z"/></svg>