<svg enable-background="new 0 0 76.114 64.861" viewBox="0 0 76.114 64.861" xmlns="http://www.w3.org/2000/svg"><g clip-rule="evenodd" fill-rule="evenodd"><path d="m35.334.257c.164 4.282.164 9.251 0 13.533-5.646.306-11.782.034-17.633.099-5.033.056-10.222-.098-15.51-.099-.691 0-1.423.113-2.074-.148-.22-3.525-.05-8.071-.049-11.904 0-.55-.098-1.492.147-1.63.037-.045.092-.074.149-.098 2.918-.039 5.834.049 8.792.049 2.92 0 5.902-.075 8.841.049 5.842.247 11.743-.267 17.337.149z"/><path d="m35.334 15.914c.175 10.114.1 20.657.099 31.068 0 .642.111 1.322-.148 1.926-11.264.242-23.361.106-35.168-.099-.18-9.93-.1-20.696-.099-31.019 0-.729-.087-1.727.148-1.976.036-.046.089-.075.147-.099 11.621.08 23.851.047 35.021.199zm-20.103 13.929c-.325.599-.198 1.552-.198 2.47 0 .916-.106 1.915.148 2.568 1.548.131 3.599.288 4.988 0 .054-1.537.144-3.533-.049-4.989-1.336-.169-3.342-.116-4.889-.049z"/><path d="m75.984 15.914c.177 10.757.168 22.088 0 32.994-11.776.159-23.467.153-35.168 0-.226-10.172-.05-20.743-.049-31.019 0-.686-.095-1.804.147-1.976.036-.046.091-.075.148-.099 11.428.061 23.664-.116 34.922.1zm-19.905 13.88c-.059.024-.112.053-.148.099-.314.331-.197 1.638-.197 2.47 0 1.009-.091 1.921.147 2.469.669.188 1.592.148 2.47.148.893 0 1.817.11 2.47-.148.163-1.409.163-3.481 0-4.89-1.299-.331-3.2-.061-4.742-.148z"/><path d="m75.984 51.032c.163 4.308.164 9.322 0 13.682-5.821.092-11.8.217-17.733.099-5.871-.117-11.767.165-17.436-.148-.179-3.236-.099-6.919-.099-10.373 0-1.135-.117-2.283.148-3.309 8.062-.174 16.701-.099 25.092-.099 3.456 0 6.835-.096 10.028.148z"/></g></svg>