<svg enable-background="new 0 0 34.699 25.742" viewBox="0 0 34.699 25.742" xmlns="http://www.w3.org/2000/svg"><g fill="#010101"><path d="m28.693 19.753-1.028-3.828h-4.171-7.319-2.121-2.047-9.44l-1.031 3.828h9.44 2.049 4.181 5.257z"/><path d="m0 25.742h9.563l1.031-3.829h-9.565z"/><path d="m29.074 21.913h-9.475l1.031 3.829h9.474z"/><path d="m26.507 10.104h-.098l-1.029-3.825c-.642-2.394-3.051-4.269-5.48-4.269h-2.413v-1.343c0-.366-.301-.667-.671-.667h-3.05c-.371 0-.671.301-.671.667v1.343h-2.411c-2.43 0-4.839 1.875-5.482 4.268l-2.058 7.655h1.826 2.153 5.579l2.647-9.843 2.65 9.843h4.712.752.84 3.138.097 7.163v-3.829z"/></g></svg>