<svg enable-background="new 0 0 17.272 14.792" viewBox="0 0 17.272 14.792" xmlns="http://www.w3.org/2000/svg"><path d="m7.731 1.571c.297-.526.623-1.036.905-1.571 1.388 2.359 2.757 4.73 4.147 7.089-1.106.65-2.375 1.008-3.652 1.09-.542.004-1.087.023-1.623-.066-1.052-.143-2.078-.49-2.999-1.019 1.069-1.844 2.149-3.681 3.222-5.523z"/><path d="m4.149 7.709c.591.352 1.16.752 1.644 1.243 1.047.994 1.804 2.286 2.193 3.675.187.705.302 1.433.276 2.163-2.753-.003-5.508-.005-8.262.002.827-1.382 1.628-2.78 2.448-4.167.563-.975 1.143-1.939 1.701-2.916z"/><path d="m11.814 8.647c.412-.349.854-.661 1.319-.935.776 1.319 1.548 2.642 2.323 3.962.602 1.04 1.222 2.069 1.816 3.114-2.758.001-5.516-.003-8.275.002.033-.516.053-1.035.161-1.543.269-1.409.931-2.737 1.873-3.816.256-.267.516-.528.783-.784z"/></svg>