<svg enable-background="new 0 0 83.917 85.946" viewBox="0 0 83.917 85.946" xmlns="http://www.w3.org/2000/svg"><path d="m29.884 1.059c10.091-2.62 21.434-.333 29.488 6.362-6.245 1.074-12.406 2.923-17.995 5.946-5.057 2.727-9.637 6.445-13.014 11.12-3.834 5.263-6.255 11.68-6.21 18.238.002 8.023 4.319 15.987 11.211 20.154 2.999 1.81 6.515 2.781 10.024 2.637 5.921-.216 11.614-3.232 15.305-7.836 3.88-4.854 5.438-11.326 4.749-17.451-.561-5.388-3.01-10.576-6.924-14.336-3.124-3.044-7.294-5.144-11.7-5.285 5.084-4.564 11.326-7.827 17.981-9.371.029-2.987.049-5.975.068-8.964 7.017.003 14.034-.01 21.051.014v81.419c-7.014-.022-14.027-.003-21.041-.01.019-2.926.039-5.852.066-8.776-3.772 4.169-8.601 7.368-13.911 9.219-5.426 1.925-11.364 2.303-17.007 1.177-3.772-.734-7.419-2.07-10.816-3.865-2.482-1.297-4.824-2.87-6.912-4.739-4.245-3.79-7.528-8.579-9.884-13.74-2.622-5.774-4.149-12.057-4.383-18.397-.27-7.758 1.297-15.606 4.738-22.577 2.178-4.429 5.144-8.474 8.759-11.837 4.602-4.3 10.241-7.535 16.357-9.102z"/></svg>