<svg enable-background="new 0 0 58.194 74.027" viewBox="0 0 58.194 74.027" xmlns="http://www.w3.org/2000/svg"><g clip-rule="evenodd" fill-rule="evenodd"><path d="m34.362 46.293c-3.295-.198-7.152-.102-10.531-.05-.633 1.061-.929 2.138-1.504 3.059-1.648 2.636-4.328 4.904-8.075 5.517-6.114 1.001-9.903-1.972-12.287-5.467-1.23-1.803-2.058-4.177-1.956-7.122.097-2.787 1.021-4.969 2.307-6.771 2.143-3.001 6.42-5.718 11.887-4.714.32.059.718.198.953.151.555-.114 1.173-1.763 1.453-2.257 1.188-2.088 2.047-3.802 3.211-5.968.213-.398.615-.864.602-1.204-.018-.438-.994-1.31-1.305-1.705-1.549-1.976-2.707-4.691-2.607-8.225.098-3.421 1.76-6.072 3.661-7.974 1.983-1.984 4.858-3.495 8.275-3.56 3.028-.059 5.304.924 7.122 2.156 1.859 1.261 3.336 2.975 4.212 5.015.916 2.132 1.393 5.291.753 7.924-.421 1.727-1.23 3.382-2.258 4.665-.284.355-.974.913-1.003 1.304-.026.367.418.909.652 1.304 1.237 2.086 2.446 4.091 3.61 6.169.467.833.855 1.713 1.505 2.357 5.826-1.149 10.311 1.295 12.788 4.714 1.306 1.8 2.238 4.022 2.358 6.77.115 2.633-.771 5.243-1.955 7.122-2.297 3.643-6.794 6.31-12.237 5.366-3.839-.665-6.353-2.807-8.125-5.567-.597-.929-.958-1.955-1.506-3.009zm-1.104-19.861c-.34-.584-1.041-2.419-1.854-2.257-1.482.295-3.654.324-5.316.101-.599.674-1.009 1.506-1.454 2.307-1.121 2.01-2.297 4.021-3.41 6.019-.217.389-.619 1.002-.603 1.304.024.411.632.84.953 1.254.683.877 1.243 1.783 1.655 2.758.218.516.263 1.122.701 1.555 3.366.151 7.176.204 10.432.05.505-1.036.81-2.067 1.355-3.009.537-.931 1.336-1.641 1.855-2.558-1.212-2.255-2.913-5.12-4.314-7.524z"/><path d="m43.691 62.04c.335.371.899.264 1.253.552.73.592.77 1.909-.049 2.507-.289.211-.952.232-1.154.452-.438.475-.201 1.604-.201 2.457.001.949.001 1.76.252 2.408.312.81 1.017 1.053.952 2.006-.051.75-.58 1.385-1.354 1.455-1.918.172-2.873-2.818-2.908-5.016-.039-2.371.15-4.641.15-7.121 0-1.864-.289-3.343 1.153-3.711.066-.017.097-.046.151-.05 2.018-.147 1.506 2.253 1.755 4.061z"/><path d="m25.134 58.278c.767-.187 1.401.354 1.604.702.336.574.158 1.293.201 2.207.102 2.174.127 4.924.051 7.021-.074 2.019-.818 3.225-1.656 4.062-.995.996-2.732 1.889-4.664 1.555-2.583-.448-4.607-2.522-4.664-5.517-.031-1.715.723-3.358 1.606-4.313.293-.316 1.117-.941 1.756-1.204 1.31-.54 4.086-.881 3.81 1.354-.176 1.426-1.395 1.155-2.558 1.555-.705.242-1.308.998-1.454 1.555-.912 3.476 3.629 4.303 4.564 1.705.229-.635.1-1.486.1-2.407 0-1.744.051-3.213.051-5.065 0-1.631-.157-2.98 1.253-3.21z"/><path d="m9.237 62.241c1.992-.12 3.35.829 4.363 1.855 1.197 1.239 1.354 3.222 1.354 5.968 0 1.784.228 3.74-1.404 3.812-.618.027-1.223-.443-1.454-.903-.645-1.282.087-4.266-.301-5.617-.232-.807-.874-1.545-1.655-1.755-3.164-.849-4.005 3.732-1.555 4.714.594.238 1.295.128 1.756.351 1.342.648 1.041 2.985-.652 3.16-.844.087-1.818-.275-2.407-.552-.737-.346-1.298-.947-1.806-1.454-.273-.769-.836-1.52-1.053-2.458-.443-1.912.223-3.786.952-5.116.901-1.054 2.051-1.86 3.862-2.005z"/><path d="m53.52 72.822c-.158-1.023-.246-2.35-.25-3.61-.003-.72.126-1.365-.051-1.956-.332-1.116-1.422-1.977-2.908-1.655-1.622.352-2.59 2.723-1.204 4.213 1.029 1.061 3.974.206 3.562 2.709-.286 1.314-1.931 1.48-3.41 1.053-1.084-.312-2.209-1.107-2.709-1.856-.395-.59-.813-1.476-1.003-2.207-.466-1.794.052-3.981 1.003-5.266.793-1.071 2.485-1.98 4.162-2.056 2.381-.107 4.213 1.264 5.115 2.859.303.533.633 1.464.703 2.256.075.859-.021 2.05 0 2.959.037 1.628.272 3.777-1.705 3.561-.665-.073-.914-.48-1.305-1.004z"/><path d="m32.657 62.441c3.693-.418 6.236 1.73 6.52 5.065.077.895.01 1.815 0 2.859-.013 1.65.154 3.617-1.453 3.661-2.072.057-1.778-2.67-1.756-4.765.005-.475.139-.969.05-1.504-.191-1.158-1.061-1.968-2.056-2.106-1.808-.25-3.245 1.498-2.607 3.31.205.587.652 1.188 1.454 1.504.528.209 1.33.099 1.805.351 1.196.636.802 2.671-.3 3.009-1.419.436-3.392-.553-4.163-1.204-.886-.748-1.504-1.824-1.806-2.859-1.09-3.73 1.4-6.8 4.312-7.321z"/></g></svg>