<svg enable-background="new 0 0 88.665 45.559" viewBox="0 0 88.665 45.559" xmlns="http://www.w3.org/2000/svg"><g clip-rule="evenodd" fill-rule="evenodd"><path d="m76.712 22.327c-6.261.337-13.736.079-20.27.052-.717-.652-1.004-1.644-1.455-2.495-.893-1.681-1.78-3.426-2.703-5.145-.448-.835-.767-1.791-1.455-2.442-.686.731-1.095 1.675-1.611 2.546-1.27 2.144-2.444 4.38-3.794 6.6-.188.311-.557 1.165-.831 1.195-.346.038-.734-.782-.936-1.144-1.489-2.67-2.981-5.275-4.521-7.952-.236-.41-.461-.925-.884-1.195-.456.23-.61.785-.831 1.195-1.137 2.108-2.289 4.316-3.482 6.444-.474.844-.806 1.781-1.508 2.443-5.026.141-10.358.025-15.384-.052-1.676-.026-3.359.121-4.885-.156.451-1.381 1.297-2.63 2.027-3.95 1.396-2.524 2.695-5.15 4.157-7.692 1.712-2.978 2.976-5.881 4.729-8.991.365-.647.611-1.476 1.299-1.559.779-.094 1.676.052 2.547.052 5.767.001 11.974-.09 17.723.104 3.283-.321 6.704-.052 10.135-.104 3.416-.052 6.874-.112 10.29 0 .752.725 1.153 1.747 1.611 2.651 2.326 4.591 4.867 9.239 7.225 13.929.949 1.888 2.074 3.677 2.807 5.666zm-32.224-21.828c-1.869 3.179-3.492 6.639-5.301 9.823-.266.467-.678.921-.676 1.507.884.279 1.911.156 2.911.156 3.06 0 6.366.085 9.198-.104-.229-1.08-.854-2.027-1.351-3.014-1.214-2.413-2.479-4.761-3.742-7.172-.25-.477-.535-1.256-.884-1.352-.074.029-.125.081-.155.156z"/><path d="m88.665 45.351c-.32.287-.82.15-1.195.156-5.979.091-12.971-.013-19.229-.052-.969-1.393-1.7-2.957-2.495-4.47-1.855-3.533-3.636-7.093-5.561-10.602-1.095-1.995-1.999-4.099-3.274-5.925-.646.621-1.004 1.477-1.455 2.234-3.175 5.337-6.188 11-9.459 16.319-.143.365-.419.833-.728 1.352-.142.24-.593 1.194-.884 1.195-.295.001-.647-.839-.884-1.247-2.804-4.857-5.719-9.766-8.472-14.604-1.025-1.803-1.94-3.709-3.118-5.249-.702.716-1.038 1.688-1.507 2.546-2.84 5.199-5.655 10.54-8.524 15.799-.476.873-.895 1.755-1.403 2.599-6.909.011-13.932.073-20.477-.155.232-1.023.872-1.858 1.352-2.754 2.33-4.356 4.73-8.775 7.068-13.201.929-1.758 1.84-3.525 2.91-5.197 5.086-.108 10.355.052 15.592.052 1.685 0 3.351-.111 4.938.156 1.119-.294 2.298-.104 3.43-.104 6.28.001 12.329.007 18.866 0 7.328-.007 15.43-.143 23.232 0 .601.642.931 1.466 1.351 2.235 2.892 5.299 5.717 10.923 8.68 16.215.325.956 1.134 1.705 1.246 2.702z"/></g></svg>