<svg clip-rule="evenodd" fill-rule="evenodd" stroke-linejoin="round" stroke-miterlimit="2" viewBox="0 0 560 400" xmlns="http://www.w3.org/2000/svg"><path d="m597.1 389.9-221.4-389.9h-31l-15.7 27.2-15.4-27.2h-31l-13.9 24.2-13.8-24.2h-31l-223.9 389.9 17.2 30.2h26.5l-13.5 23.5 17.6 30.2h25.1l-13.4 23.4 17.7 31.1h441.1l16.8-30.2-13.8-24.3h29.7l16.8-30.2-13.3-23.5h25.9zm-297.7-358.9 13.6 24.2-13.4 23.4-13.7-24.1zm-178.2 358.1h-28.1l176.6-306.5 13.6 24.3zm179.1-252 141.6 252h-286.8zm-161.5 283h320.6l12.7 22.6h-346.3zm337-31-159.1-280.4 13.3-23.1 170.6 303.5zm-235.1-358.1 11.9 21.2-193.4 336.9h-24.8zm-163.1 389.1h27.3l-13 22.6h-27.3zm15.5 77.2 13.5-23.5h380.8l13.2 23.5zm412.9-54.5-12.9-22.6h27.4l12.7 22.6zm28.5-53.7-188.3-331.7 15.2-26.4 201.3 358.1z" fill-rule="nonzero" transform="matrix(.452186 0 0 .452186 145 80.5552)"/></svg>