<svg enable-background="new 0 0 77.68 45.781" viewBox="0 0 77.68 45.781" xmlns="http://www.w3.org/2000/svg"><g clip-rule="evenodd" fill-rule="evenodd"><path d="m31.072 2.955c.597-.187.955-.688 1.447-1.013 1.364-.902 3.205-1.861 5.452-1.882 5.041-.047 7.9 2.792 10.035 5.838 1.086 1.548 1.839 3.435 2.51 5.404.68 1.997 1.279 4.12 1.785 6.127 1.096 4.354 1.564 9.091 2.412 13.461.636 3.278 1.717 6.188 3.137 8.733.47.843.88 1.762 1.64 2.316.502-.238.828-.783 1.11-1.254 1.731-2.895 2.638-6.733 2.846-11.242.033-.699-.136-1.474.146-2.171 3.402-.203 7.037-.048 10.614-.048 1.188 0 2.384-.117 3.474.145-.061 6.404-.867 12.48-4.246 15.729-1.763 1.52-4.148 2.907-7.285 2.654-1.544-.125-2.771-.539-3.908-1.11-1.144-.575-2.01-1.373-2.942-2.075-1.965 1.312-3.569 2.62-6.417 2.75-2.979.137-5.109-.82-6.9-2.219-3.295-2.576-4.661-7.611-5.789-12.448-.583-2.498-.951-5.143-1.303-7.816-.344-2.605-.936-5.132-1.593-7.527-1.113-4.059-2.673-7.894-4.969-11-.331-.447-.766-1.097-1.158-1.11-.547-.019-1.61 1.115-2.075 1.592-1.82 1.87-3.305 4.127-4.68 6.32-5.657 9.022-8.099 21.164-9.746 34.112-3.481.176-7.43.096-11.145.096-1.228 0-2.45.122-3.523-.193.115-2.454.732-4.932 1.11-7.382.372-2.423.915-4.833 1.447-7.141 2.118-9.181 5.461-17.32 10.422-23.883 1.185-1.568 2.608-3.07 4.294-4.294 1.738-1.263 3.765-2.291 6.32-2.413 3.508-.166 5.463 1.5 7.478 2.944z"/><path d="m29.239 31.228c.455.037.694-.406.964-.675 1.562-1.562 3.155-3.292 4.825-4.825.238-.219.553-.65.965-.338.002.788-.83 1.322-1.302 1.834-1.026 1.111-2.138 2.057-3.185 3.184-.517.556-1.137 1.029-1.496 1.689.65.317 1.605.193 2.557.193h4.825c.578 0 1.78-.174 1.689.434-.068.459-1.449.29-2.074.29-1.589 0-3.136 0-4.729 0-.773 0-1.577-.106-2.171.145.267.781.988 1.229 1.544 1.737.568.521 1.042 1.148 1.64 1.64.831.78 1.638 1.611 2.51 2.413.252.232.724.518.53.965-.422.387-.77-.143-1.013-.386-.817-.817-1.724-1.579-2.558-2.413-1.121-1.122-2.238-2.308-3.474-3.185-.326.571-.193 1.442-.193 2.268.001 1.622 0 3.195 0 4.921 0 .675.113 2.019-.338 2.074-.634.078-.434-1.435-.434-2.026 0-1.613.048-3.202.048-4.873 0-.819.073-1.648-.192-2.268-.814.162-1.168.993-1.689 1.544-1.282 1.356-2.617 2.72-4.004 4.053-.236.227-.59.667-1.014.386-.008-.779.858-1.293 1.351-1.785.525-.525 1.026-1.123 1.544-1.641 1.061-1.06 2.26-2.038 2.992-3.377-.494-.39-1.378-.241-2.172-.241-1.608 0-3.117 0-4.824 0-.683 0-2.026.128-2.026-.386 0-.542 1.469-.338 2.026-.338h4.729c.768 0 1.579.106 2.171-.145-.205-.805-.917-1.278-1.496-1.834-1.396-1.341-2.774-2.677-4.197-4.101-.243-.243-.693-.627-.241-1.013.64-.015 1.046.619 1.447 1.013.853.835 1.685 1.636 2.558 2.509.418.418.912.793 1.303 1.206.457.483.736 1.265 1.495 1.351.346-.578.193-1.371.193-2.123 0-1.461.048-2.928.048-4.584 0-.737-.071-1.798.097-2.22.822-.751.627 1.276.627 1.979v2.364c0 1.794-.112 3.462.144 4.585z"/></g></svg>