<svg enable-background="new 0 0 72.778 71.003" viewBox="0 0 72.778 71.003" xmlns="http://www.w3.org/2000/svg"><g clip-rule="evenodd" fill-rule="evenodd"><path d="m48.55 67.005c.102 3.367-2.799 3.593-6.08 3.781-2.933.168-6.25.299-9.453.153-2.224-.101-4.426.116-5.62-.869-1.669-1.501-.661-4.163 1.175-4.752.705-.226 1.633-.175 2.248-.46.998-.462 1.161-1.816 1.431-3.117.477-2.292.585-4.448.767-7.307.108-1.708.205-3.29.204-5.161 0-2.789.337-5.521-1.635-6.081-1.6-.454-3.733.534-4.803 1.176-1.326.795-2.425 1.949-2.81 3.321-.366 1.305-.012 2.647 1.124 2.81.512.074.917-.129 1.329-.153 4.146-.238 6.193 4.97 3.934 8.277-1.278 1.339-2.549 2.206-4.7 2.299-2.189.095-3.955-.61-5.314-1.635-2.487-1.875-4.28-5.823-3.27-10.117.912-3.875 2.634-6.614 5.16-8.788 1.252-1.078 2.915-1.89 4.394-2.555 1.93-.868 4.65-1.337 5.365-3.423.398-1.163.727-3.559-.46-4.037-2.052-.421-4.419-.047-5.161 1.329-2.9 5.141-5.47 10.594-12.467 11.547-3.982.543-7.198-.746-9.401-2.503-1.995-1.593-4.155-4.182-4.445-7.511-.349-3.99.838-7.222 2.605-9.402 1.739-2.144 4.407-3.886 7.869-4.138 1.89-.138 3.732.378 4.956 1.073 1.28.727 2.239 1.953 2.759 3.219.707 1.721.298 3.658-.46 4.803-.726 1.1-2.131 2.194-3.985 2.146-1.451-.038-2.294-.535-2.963-1.226-.615-.634-.949-1.697-2.096-2.044-1.056.094-1.481.733-1.89 1.482-1.48 2.713.385 5.491 2.503 6.387 2.352.995 5.007-.096 6.592-1.175 1.708-1.164 3.044-2.794 4.087-4.394 4.086-6.262 5.574-15.731 10.985-20.847 1.827-1.727 3.802-2.902 7.001-3.577 2.576-.543 8.139-.897 8.38 2.197.105 1.367-.517 2.479-.767 4.19-.114.774-.716 3.921.204 4.087.63.114 1.14-.825 1.38-1.124 1.043-1.302 2.729-2.608 4.139-3.321 1.12-.567 2.373-.945 4.036-.919.777.012 1.564.146 2.197.307.594.15 1.315.635 1.891.562 1.003-.127 1.446-2.766.561-3.423-.595-.443-1.296-.081-1.992-.307-1.176-.382-1.508-2.01-.869-3.372.806-1.714 3.032-2.423 5.109-3.065 2.316-.716 4.585-1.068 6.848-1.329 1.13-.13 2.259.4 2.605 1.379.307.869.109 2.142.051 3.321-.173 3.486-.553 6.871-.817 10.117-.306 3.747-.763 6.299-.971 10.015-.071 1.282-.312 2.965.204 3.628 1.041.884 2.408.536 2.555 2.146.062.673-.209 1.558-.511 2.095-.884 1.575-2.581 2.511-4.803 3.424-.928.381-1.957.747-3.065 1.022-1.084.269-2.521.671-3.475.409-.694-.191-1.213-.825-1.482-1.431-.328-.74-.377-2.479-1.226-2.555-.58-.052-1.179.718-1.482 1.022-.366.366-1.06.86-1.072 1.431-.016.654.788 1.167 1.226 1.482 1.647 1.183 2.483 2.612 3.271 4.701 1.024 2.718.697 6.43-.511 8.84-1.405 2.802-3.812 5.096-7.46 5.927-1.391.316-2.83.578-4.599.715-1.363.106-2.929.067-3.424 1.175-.331.742-.438 3.492-.153 4.496.372 1.315 1.846 1.25 3.015 1.84.742.374 1.275.869 1.532 1.787zm20.387-37.657c-.455-.796-.366-2.008-.307-3.27.335-7.077 1.376-13.358 1.789-20.336.06-1.01.317-2.954-.052-3.475-.364-.517-.965-.75-1.839-.664-1.439.14-3.126.537-4.701.919-1.44.35-2.992.74-4.036 1.38-.489.3-1.339.955-1.175 1.635.177.741 1.326.598 1.992.92 1.381.668 1.375 1.799 1.227 3.628-.122 1.492-.417 2.929-1.636 3.117-.844.129-1.583-.377-2.197-.613-1.43-.549-3.026-.629-4.547-.204-2.17.606-3.473 1.888-4.905 3.321-.824.824-1.685 2.446-3.168 2.299-2.274-.225-1.467-3.772-1.175-5.927.093-.689.213-1.387.357-2.044.141-.642.405-1.5.255-2.044-.373-1.351-2.562-1.175-4.087-1.175-5.232 0-8.526 2.632-10.577 5.57-3.031 4.342-4.485 9.628-6.847 14.664-1.157 2.468-2.377 4.576-4.189 6.54-1.638 1.774-3.818 3.682-7 3.781-3.505.11-5.832-1.543-6.796-3.985-1.155-2.926.146-6.521 2.605-7.255 2.641-.789 3.054 1.729 4.241 2.657 2.219 1.733 4.981-.65 5.059-2.861.052-1.464-.854-2.544-1.635-3.168-.912-.727-2.082-1.234-3.424-1.431-3.042-.446-5.682 1.031-7.204 2.351-1.622 1.405-2.833 3.718-3.271 6.387-.471 2.876.376 5.82 1.788 7.562 1.376 1.632 3.354 3.131 5.876 3.781 2.712.699 6.054.343 8.022-.92 4.389-2.066 5.815-7.095 8.737-10.628 1.358-1.157 4.358-1.674 6.08-.868.59.275 1.074.769 1.328 1.277.507 1.01.238 3.378-.051 4.394-.591 2.081-2.238 2.843-4.19 3.526-4.023 1.406-6.977 3.184-8.993 6.438-.92 1.484-1.87 3.318-2.145 5.569-.31 2.525.357 4.702 1.379 6.234.962 1.441 2.325 2.782 4.65 3.066 2.617.32 4.545-.619 5.415-2.197 1.288-2.332-.003-5.085-2.095-5.569-.876-.203-1.622.141-2.452.051-1.719-.187-2.584-1.809-2.401-3.679.139-1.424 1.076-2.676 1.788-3.475.715-.8 1.74-1.63 3.065-2.197 1.233-.527 3.373-.957 4.599-.562 1.853.596 2.236 2.674 2.3 5.313.058 2.417.048 4.917-.103 7.256-.144 2.249-.291 4.674-.715 6.898-.457 2.398-.925 4.155-2.861 4.803-1.388.464-2.787.355-2.861 1.993.258 1.679 2.831 1.4 4.854 1.533 3.32.217 6.505.032 9.605-.205 2.168-.166 4.816-.007 5.008-1.941-.123-1.51-1.774-1.386-2.811-1.942-.595-.319-1.084-.754-1.379-1.533-.271-.717-.204-1.785-.204-2.913 0-1.077-.05-2.155.255-2.912.547-1.357 1.755-1.604 3.424-1.737 2.41-.192 4.646-.409 6.591-1.073 2.353-.804 4.347-2.743 5.365-4.854 1.114-2.308 1.407-5.874.357-8.431-.487-1.187-1.193-2.27-2.095-3.015-.824-.681-2.305-1.305-2.555-2.555-.291-1.452.972-2.351 1.737-3.117.767-.767 1.42-1.483 2.504-1.635 2.11.133 1.228 3.705 3.065 4.241.833.244 1.989-.066 2.759-.255 2.413-.591 4.904-1.578 6.336-3.066.392-.406.799-.97.767-1.737-.7-.982-1.946-.669-2.5-1.636z"/><path d="m33.119 13.202c2.123-.32 1.504 4.745 1.38 7-.151 2.73.172 5.072-1.636 5.978-1.545.775-4.276.473-4.905-.971-.198-.455-.221-1.201-.102-1.839.355-1.905 1.104-3.26 1.839-4.905.551-1.232 1.047-2.303 1.687-3.372.503-.84.7-1.411 1.635-1.891zm-1.993 5.621c-.693 1.546-1.614 3.504-1.839 5.211.083.206.218.361.306.562.906.689 2.849.352 3.22-.562.341-1.853.211-4.64.307-6.745.026-.589.222-1.234-.153-1.686-.034 0-.068 0-.103 0-.951.579-1.232 2.093-1.738 3.22z"/><path d="m58.514 15.041c1.685-.228 2.728 1.171 2.759 3.066.021 1.313-.278 2.426-.46 3.423-.193 1.062-.405 2.074-.767 3.117-.652 1.884-1.638 4.029-2.708 5.007-1.164 1.065-3.196 1.345-4.139-.102-.849-1.303-.446-3.946-.102-5.519.227-1.038.466-2.039.817-3.015.734-2.038 1.457-3.85 2.656-5.007.496-.475 1.126-.859 1.944-.97zm-.92 2.095c-.982.846-1.881 2.855-2.401 4.548-.267.865-.56 1.756-.767 2.708-.314 1.442-.975 4.65.767 4.701.923.027 1.654-1.29 2.095-1.993 1.112-1.776 1.807-3.764 2.197-6.029.239-1.391.873-4.635-.971-4.394-.366.048-.692.263-.92.459z"/><path d="m45.791 40.333c1.403-.13 2.56.745 3.168 1.635 1.408 2.065 1.252 6.554-.256 8.942-.493.781-1.298 1.454-1.941 1.788-1.217.632-3.091.774-3.68-.664-.22-.537-.139-1.809-.102-2.606.082-1.761.175-3.701.307-5.314.167-2.063.353-3.581 2.504-3.781zm1.431 10.526c1.64-1.853 2.567-8.042-.357-9.044-1.91-.654-2.395 1.249-2.504 2.861-.113 1.649-.127 3.398-.205 5.109-.042.923-.105 1.741.562 1.993 1.113.191 1.988-.337 2.504-.919z"/></g></svg>