<svg enable-background="new 0 0 80.687 40.092" viewBox="0 0 80.687 40.092" xmlns="http://www.w3.org/2000/svg"><g clip-rule="evenodd" fill-rule="evenodd"><path d="m30.682.339c1.142-.278 2.389-.155 3.667-.155 3.057-.001 6.429-.06 9.453 0 .609.012 1.305-.073 1.704.051.409.127.815.954 1.137 1.498.974 1.654 1.928 3.426 2.892 5.01 1.376 2.26 2.518 4.561 3.823 6.663 1.371 2.208 2.578 4.497 3.822 6.715.638 1.136 1.358 2.206 1.859 3.409.239.577.609 1.164.93 1.705.315.532.628 1.123 1.137 1.446 3.517-.397 6.156-2.655 6.353-6.353.163-3.049-1.729-5.465-4.028-6.457-.706-.304-1.64-.335-2.376-.671-.188-3.072-.104-6.616-.104-10.072 0-.822-.193-2.921.361-3.047 1.371-.311 3.692.358 4.856.671 4.243 1.144 7.438 3.47 9.814 6.405 2.645 2.989 4.278 6.699 4.648 11.622.382 5.078-1.208 9.512-3.357 12.655-2.146 3.138-5.333 5.687-9.039 7.18-1.896.763-3.877 1.291-6.818 1.291-2.034 0-3.954-.051-6.044-.052-.576 0-1.476.171-1.911 0-.507-.199-1.135-1.706-1.549-2.376-1.512-2.44-2.831-5.036-4.236-7.438-2.941-5.032-5.781-9.764-8.522-14.825-.907-1.676-2.005-3.239-2.893-4.907-1.325-2.492-2.881-4.915-4.287-7.386-.473-.829-1.048-1.643-1.292-2.582z"/><path d="m27.376.39c1.644 2.333 2.882 4.936 4.339 7.387.726 1.221 1.454 2.451 2.169 3.667 3.586 6.098 7.084 12.37 10.692 18.492 1.377 2.528 2.854 4.885 4.235 7.438.446.823 1.172 1.571 1.292 2.583-4.74.206-10.079.103-14.928.052-.803-.994-1.414-2.144-2.066-3.254-1.933-3.291-3.816-6.724-5.733-10.072-2.317-3.797-4.378-7.901-6.716-11.725-.32-.526-.547-1.205-1.136-1.498-4.052.316-7.122 4.033-5.991 8.419.464 1.802 2.084 3.781 3.822 4.494.646.266 1.459.277 2.221.568.246.96.104 2.06.104 3.151 0 3.24.084 6.873-.104 9.969-3.025.214-5.869-.692-8.058-1.756-2.27-1.104-4.131-2.581-5.786-4.235-3.245-3.248-5.753-8.334-5.732-14.258.02-5.83 2.516-10.208 5.371-13.327 2.75-3.003 7.312-5.911 12.707-6.198 3.155-.168 6.043.168 9.298.103z"/></g></svg>