<svg enable-background="new 0 0 35.235 42.612" viewBox="0 0 35.235 42.612" xmlns="http://www.w3.org/2000/svg"><path d="m17.288.068c1.666-.345 3.545.659 3.953 2.364 4.354 11.095 8.766 22.166 13 33.306.416 1.142 1.16 2.26.96 3.528-.431 2.47-3.55 3.907-5.717 2.654-.871-.426-1.276-1.347-1.572-2.214-4.67-11.602-9.237-23.247-13.748-34.913-.924-2.13.973-4.49 3.124-4.725z"/><path d="m9.069 15.11c.555-1.295.973-2.76 1.638-3.939 1.275 3.273 2.608 6.526 3.763 9.845-.561 1.731-1.252 3.43-1.765 5.174 1.231.016 2.463-.001 3.693.013.854 2.009 1.589 4.093 2.355 6.141-2.76.022-5.506-.007-8.262.058-1.007 2.583-1.911 5.213-3.046 7.748-.513.925-1.065 2.037-2.203 2.28-1.915.614-4.155-.382-4.963-2.223-.488-1.057-.255-2.272.105-3.33 2.889-7.254 5.686-14.553 8.685-21.767z"/></svg>