<svg height="73" viewBox="0 0 130 73" width="130" xmlns="http://www.w3.org/2000/svg"><path d="m114.313 10.0092c0 5.5051-.046 10.0092-.102 10.0092s-.744-.4512-1.53-1.0025c-3.297-2.3134-5.962-3.479-9.286-4.0606-6.039-1.0572-12.1066.505-16.8934 4.3489-1.7544 1.4092-4.025 3.8888-4.5156 4.9315-.1311.2785-.348.5052-.4824.5043-.1343-.0011-.7243-.6064-1.3114-1.3455-2.0766-2.6141-5.1995-4.9423-8.6193-6.4263-5.5944-2.4277-13.7863-2.7767-19.893-.8475-1.7026.5379-4.9749 2.2435-6.6632 3.4732-.83.6046-1.5592 1.0993-1.6202 1.0993-.0611 0-.6476-.3444-1.3033-.7654-3.3593-2.1569-7.1067-3.6765-10.9619-4.4448-3.5876-.7151-10.8965-.7256-14.0729-.0207-7.11371 1.5789-11.75591 5.1174-13.56521 10.3399-.49343 1.4239-1.22464 4.9719-1.22464 5.9418 0 .403.34243.4204 8.26575.4204h8.2659l.1589-1.0633c.3375-2.2594 1.7004-3.8365 3.8704-4.4793 1.9722-.5844 5.818-.5095 7.5621.147 1.7907.6741 3.3145 2.2185 3.7967 3.8479.3603 1.2182.4854 5.2621.1775 5.7385-.1121.1732-1.9935.2935-5.879.3761-7.1356.1515-11.5725.8202-16.6972 2.5164-4.36567 1.4449-7.77674 4.1841-9.66558 7.7617-1.975109 3.7419-2.615094 8.2298-1.741375 12.2142.464752 2.1183 2.021945 5.3181 3.429885 7.0471 2.19428 2.6948 5.88007 4.9356 10.02837 6.0966 2.0648.5779 2.4946.6182 6.5788.6166 4.8362-.0021 6.6287-.2589 10.3251-1.4805 4.0443-1.3365 6.352-2.5916 9.545-5.1915.884-.7196 1.7219-1.3084 1.8619-1.3084.1403 0 .7048.4231 1.2545.9404 3.3532 3.1546 8.0743 5.5393 13.0916 6.6121 2.9383.6283 8.365.5835 11.403-.0945 5.1979-1.1596 10.1494-3.6887 13.6821-6.9886l1.2197-1.1392 1.8055 1.7508c.9929.9629 2.3097 2.1136 2.9259 2.5569 2.5288 1.8199 6.2868 3.3231 9.4778 3.7916 2.3397.3432 6.6182.1691 8.5612-.3484 2.984-.7947 6.085-2.5594 8.469-4.8195.529-.5016 1.005-.912 1.057-.912s.123 1.0879.158 2.4179l.064 2.4179h14.566l.113-71.1889h-15.687zm-50.8234 16.7851c3.719.7926 7.178 3.9078 8.881 7.9984.8552 2.0539 1.8851 1.8701-10.4814 1.8701-6.032 0-11.0128-.0759-11.0686-.1686-.2015-.3347.7482-3.4814 1.4489-4.801 1.2872-2.4239 3.6648-4.3121 6.1774-4.9054 1.228-.2902 3.6654-.2871 5.0427.0065zm44.3964.7499c4.554 2.1624 6.649 7.2315 6.649 16.0914.001 5.6609-.663 8.9711-2.374 11.8366-3.367 5.6396-10.258 6.9836-14.5027 2.8285-1.9948-1.9523-3.2477-4.853-3.9455-9.134l-.37-2.2697-20.1719-.117-.2719 1.8579c-1.139 7.7888-6.8483 12.4934-13.1586 10.8436-2.1345-.5579-3.2423-1.2201-5.0557-3.0218-2.1806-2.167-3.1903-4.142-3.6685-7.1758-.1831-1.1613-.2792-2.1989-.2136-2.3055.0657-.1066 5.1032-.1938 11.1944-.1938h11.0748l.1206-10.0092 20.8133-.225.6019-1.7232c.8387-2.4015 1.7859-3.967 3.2291-5.337 2.7603-2.6202 6.9293-3.4274 10.0493-1.946zm-73.6473 19.9713c-.2353 4.8917-1.308 7.7798-3.7953 10.2193-1.6531 1.6213-2.9074 2.3522-4.8937 2.8523-5.1376 1.2933-9.3794-1.1577-9.4282-5.4482-.029-2.5396.9162-4.3314 3.0162-5.718 1.9883-1.3127 3.351-1.7767 10.1279-3.4477 1.8455-.455 3.6607-.9609 4.0335-1.124.3729-.163.7691-.3002.8805-.3052.1178-.0051.1427 1.2371.0591 2.9715z" fill-rule="evenodd"/></svg>