<svg viewBox="0 0 90 51" fill="none" xmlns="http://www.w3.org/2000/svg">
<path fill-rule="evenodd" clip-rule="evenodd" d="M79.1394 6.91471C79.1394 10.7178 79.1079 13.8294 79.0693 13.8294C79.0307 13.8294 78.5541 13.5177 78.01 13.1369C75.7276 11.5387 73.8823 10.7335 71.5813 10.3317C67.4003 9.60134 63.1996 10.6805 59.8857 13.3361C58.6712 14.3096 57.0992 16.0225 56.7596 16.7429C56.6688 16.9353 56.5186 17.0919 56.4255 17.0913C56.3326 17.0905 55.9241 16.6724 55.5177 16.1618C54.08 14.3559 51.918 12.7475 49.5505 11.7222C45.6774 10.0451 40.0061 9.80397 35.7784 11.1367C34.5997 11.5084 32.3342 12.6867 31.1654 13.5362C30.5908 13.9539 30.086 14.2956 30.0438 14.2956C30.0014 14.2956 29.5954 14.0577 29.1415 13.7668C26.8158 12.2768 24.2214 11.227 21.5524 10.6962C19.0687 10.2022 14.0087 10.1949 11.8096 10.6819C6.88479 11.7727 3.67095 14.2173 2.41837 17.825C2.07676 18.8088 1.57054 21.2599 1.57054 21.9299C1.57054 22.2083 1.80759 22.2203 7.29296 22.2203H13.0155L13.1255 21.4858C13.3592 19.9249 14.3027 18.8354 15.8051 18.3913C17.1704 17.9876 19.8329 18.0393 21.0403 18.4929C22.28 18.9586 23.335 20.0255 23.6688 21.1511C23.9183 21.9927 24.0049 24.7864 23.7917 25.1155C23.7141 25.2351 22.4116 25.3182 19.7217 25.3753C14.7816 25.48 11.7099 25.942 8.16204 27.1137C5.13964 28.1119 2.77814 30.0042 1.47048 32.4758C0.103096 35.0608 -0.339977 38.1613 0.264905 40.9138C0.586661 42.3772 1.66471 44.5877 2.63944 45.7822C4.15855 47.6439 6.71026 49.1919 9.58217 49.994C11.0116 50.3932 11.3092 50.421 14.1367 50.4199C17.4849 50.4185 18.7258 50.241 21.2848 49.3971C24.0848 48.4738 25.6824 47.6068 27.8929 45.8106C28.5049 45.3136 29.085 44.9068 29.182 44.9068C29.2791 44.9068 29.6699 45.199 30.0504 45.5564C32.3719 47.7357 35.6403 49.3831 39.1139 50.1243C41.1481 50.5583 44.905 50.5274 47.0082 50.0591C50.6068 49.2579 54.0347 47.5107 56.4805 45.2311L57.3249 44.444L58.5748 45.6535C59.2622 46.3188 60.1738 47.1137 60.6005 47.42C62.3512 48.6772 64.9529 49.7157 67.162 50.0393C68.7818 50.2765 71.7439 50.1562 73.0891 49.7986C75.1547 49.2497 77.3015 48.0305 78.9522 46.4692C79.3186 46.1227 79.6478 45.8391 79.684 45.8391C79.7199 45.8391 79.7693 46.5907 79.7935 47.5095L79.8375 49.1799H89.9215L90 0H79.1394V6.91471ZM43.9543 18.5104C46.529 19.058 48.9237 21.2101 50.1028 24.036C50.6948 25.455 51.4078 25.328 42.8463 25.328C38.6703 25.328 35.2221 25.2755 35.1835 25.2115C35.044 24.9803 35.7015 22.8064 36.1866 21.8948C37.0777 20.2203 38.7237 18.9158 40.4633 18.5059C41.3134 18.3055 43.0009 18.3077 43.9543 18.5104ZM74.6904 19.0285C77.8429 20.5224 79.2932 24.0243 79.2938 30.145C79.2942 34.0558 78.8346 36.3426 77.6499 38.3222C75.3187 42.2183 70.5482 43.1467 67.6096 40.2762C66.2285 38.9275 65.3612 36.9236 64.8781 33.9661L64.6219 32.3981L50.6567 32.3173L50.4686 33.6008C49.68 38.9816 45.7274 42.2318 41.3587 41.092C39.881 40.7065 39.114 40.249 37.8587 39.0044C36.349 37.5074 35.65 36.1429 35.3189 34.0471C35.1922 33.2448 35.1256 32.528 35.1711 32.4544C35.2165 32.3807 38.704 32.3204 42.921 32.3204H50.5882L50.6716 25.4057L65.0808 25.2503L65.4975 24.0599C66.0782 22.4009 66.734 21.3194 67.7331 20.3729C69.6439 18.5628 72.5306 18.0051 74.6904 19.0285ZM23.7037 32.8254C23.5408 36.2048 22.7982 38.2 21.0762 39.8853C19.9317 41.0053 19.0634 41.5103 17.6883 41.8557C14.1314 42.7492 11.1948 41.056 11.161 38.092C11.141 36.3375 11.7954 35.0997 13.2492 34.1417C14.6257 33.2349 15.5691 32.9143 20.2608 31.76C21.5385 31.4456 22.7951 31.0961 23.0532 30.9835C23.3114 30.8708 23.5857 30.776 23.6628 30.7726C23.7444 30.7691 23.7616 31.6273 23.7037 32.8254Z" fill="black"/>
</svg>
