<svg enable-background="new 0 0 72.719 73.941" viewBox="0 0 72.719 73.941" xmlns="http://www.w3.org/2000/svg"><g clip-rule="evenodd" fill-rule="evenodd"><path d="m50.353 73.919c-.202-7.4.083-15.232-.197-22.613-.681.1-1.073.746-1.484 1.188-1.313 1.407-2.765 2.764-4.157 4.156-4.586 4.587-9.19 9.233-13.854 13.806-.922.903-1.754 1.934-2.87 2.622-4.749-.136-9.688.486-13.657-.297-3.797-.749-6.745-2.639-9.105-4.998-2.203-2.202-4.187-5.392-4.75-9.401-.288-2.051-.198-4.29-.198-6.68 0-1.059 0-2.294 0-3.514 0-1.092-.208-2.547.05-3.464.127-.452.832-.98 1.286-1.435 3.11-3.111 6.299-6.398 9.352-9.451.9-.9 1.791-1.82 2.721-2.672.469-.429.791-.984 1.238-1.436 1.747-1.766 3.6-3.551 5.393-5.344.45-.45.96-.878 1.188-1.484-1.687-.266-3.481-.148-5.244-.148-5.104 0-10.565-.066-15.785-.198.109-.697.816-1.033 1.236-1.484 1.321-1.415 2.756-2.805 4.156-4.206 3.709-3.706 7.351-7.498 11.085-11.232 1.868-1.868 3.618-3.816 5.591-5.542 6.748.007 14.044 0 21.08 0 2.415 0 4.967.055 7.175-.049 6.224-.294 11.361.925 14.795 3.661 2.601 2.106 4.741 4.443 6.037 7.818 1.318 3.435 1.286 7.658 1.286 12.519v27.611c-.525.855-1.334 1.483-2.028 2.178-4.849 4.847-9.823 9.746-14.696 14.647-1.508 1.701-3.212 3.309-4.85 4.948-.198.195-.41.619-.794.494zm-24.642-51.164c-1.181 0-2.572-.2-3.562 0-.639.129-.445.402-.445 1.534v5.295c0 6.045-.049 11.811-.05 17.664 0 1.183-.082 2.458.148 3.464 9.191.227 18.966.133 28.353 0 .165-9.085.164-18.825 0-27.858-7.873-.18-16.567-.1-24.444-.099z"/><path d="m35.608 25.872c3.687-.255 6.344 1.374 8.115 3.167 1.75 1.772 3.182 4.439 3.019 8.214-.13 2.993-1.604 5.215-3.217 6.829-1.724 1.724-4.121 2.932-6.977 3.019-2.99.09-5.508-1.032-7.324-2.673-1.824-1.648-3.239-3.729-3.611-6.63-.225-1.745.052-3.557.544-4.948.944-2.668 2.644-4.558 5.047-5.839 1.151-.616 2.789-1.027 4.404-1.139z"/></g></svg>