<svg enable-background="new 0 0 83.663 58.605" viewBox="0 0 83.663 58.605" xmlns="http://www.w3.org/2000/svg"><path clip-rule="evenodd" d="m83.564 0c.041.009.049.049.1.049-.816 2.511-1.834 4.949-2.857 7.39-1.014 2.416-1.853 4.919-2.857 7.341-1.002 2.412-2.025 4.827-2.908 7.291-2.646 7.393-5.773 14.67-8.67 21.974-.963 2.427-1.988 4.826-2.957 7.242-.973 2.423-1.762 4.92-2.955 7.242-2.963.13-6.408.049-9.656.049-1.072 0-2.152.118-3.106-.147.129-.878.525-1.698.838-2.513.939-2.44 2.055-4.873 2.857-7.489-.723-.287-2.045-.211-2.955-.148-.541.715-.844 1.609-1.184 2.463-1.021 2.576-1.924 5.377-3.152 7.784-3.172.118-6.504.032-9.559 0-1.033-.011-2.104.126-3.055-.147.81-2.794 2.063-5.207 2.908-7.981.168-.551.461-1.079.541-1.675-.408-.116-.672.288-.936.493-.816.634-1.738 1.253-2.611 1.872-3.484 2.473-7.051 4.987-10.643 7.39-6.807-.052-14.078.102-20.742-.147-.06-.393.42-.534.641-.69 1.916-1.35 3.887-2.787 5.863-4.138 15.705-10.735 31.412-21.912 47.1-32.714 1.908-1.366 3.838-2.608 5.766-3.991.625-.449 1.254-.997 2.019-1.232-.48 1.804-1.268 3.475-1.922 5.173-1.617 4.196-3.324 8.361-5.025 12.612-.334.835-.801 1.646-.935 2.562.697.29 2.1.13 2.955.099.443-.319.555-.919.74-1.379 2.621-6.495 5.131-12.981 7.834-19.559.186-.453.445-.973.639-1.479.207-.537.342-1.132.592-1.478.404-.561 1.494-1.048 2.168-1.528 5-3.557 9.848-7.124 14.979-10.543.077.015.082-.046.145-.048z" fill-rule="evenodd"/></svg>