<svg enable-background="new 0 0 19.694 18.541" viewBox="0 0 19.694 18.541" xmlns="http://www.w3.org/2000/svg"><path d="m9.015.046c.458-.021.917-.078 1.376-.022 2.127.086 4.232.869 5.863 2.246 1.33 1.086 2.347 2.55 2.909 4.173.298.855.446 1.755.516 2.654-.002 1.379 0 2.757-.001 4.136.026 1.763.016 3.527.016 5.29-.748.003-1.497.003-2.244 0 .001-.624 0-1.248.001-1.872-.034-1.003-.01-2.007-.017-3.01 0-1.429 0-2.858 0-4.287-.031-1.883-.853-3.728-2.205-5.035-1.179-1.145-2.747-1.879-4.379-2.056-.439-.055-.885-.092-1.327-.041-1.972.073-3.893.964-5.242 2.401-.816.869-1.442 1.93-1.748 3.085 1.215-1.75 3.221-2.937 5.348-3.113.39-.076.79-.018 1.184-.037 1.457.067 2.905.556 4.072 1.44 1.577 1.153 2.632 2.992 2.815 4.937-.026.242.07.473.053.714-.011 2.291.015 4.583-.018 6.873-.742.009-1.485.025-2.227.016-.006-2.228.01-4.456-.018-6.682.031-.742-.109-1.489-.41-2.168-.679-1.556-2.216-2.694-3.902-2.892-.356-.08-.722-.029-1.083-.044-1.406.075-2.769.755-3.672 1.836-.603.728-1.034 1.627-1.123 2.572.248-.285.462-.607.77-.833.833-.751 1.94-1.176 3.055-1.229 1.224-.041 2.47.388 3.381 1.214.799.71 1.345 1.703 1.496 2.763.096.575.028 1.159.039 1.739-.007 1.241.014 2.483-.01 3.724-.735.002-1.47.002-2.205 0-.025-.254-.007-.51-.012-.764-.003-1.327-.013-2.654-.007-3.981.029-.823-.419-1.635-1.109-2.08-.31-.209-.668-.337-1.036-.395-1.311-.207-2.69.759-2.934 2.067-.114.437-.025.899.121 1.317.273.739.938 1.296 1.69 1.504.592.178 1.215.087 1.823.11.019.734.005 1.468-.012 2.202-.805.001-1.625.043-2.406-.184-.85-.213-1.59-.706-2.287-1.219-1.427-1.073-2.62-2.496-3.283-4.165-.538-1.316-.726-2.766-.577-4.177.165-1.713.81-3.375 1.838-4.754.944-1.273 2.199-2.313 3.626-3.004 1.093-.54 2.289-.861 3.502-.969z"/></svg>