<svg enable-background="new 0 0 13.095 13.088" viewBox="0 0 13.095 13.088" xmlns="http://www.w3.org/2000/svg"><path d="m0 .001c3.12 0 6.24.003 9.361-.001 1.089 1.886 2.159 3.783 3.243 5.673.163.29.333.576.491.869-1.245 2.182-2.492 4.362-3.733 6.546-2.038-.015-4.076-.001-6.114-.006-1.081.001-2.161-.002-3.242.001.007-4.218.001-8.437.004-12.655-.001-.143.003-.285-.01-.427zm4.132.015c.007 4.345-.002 8.691.005 13.036 1.053-1.417 2.108-2.833 3.157-4.253-.871-.002-1.742.003-2.613-.002 0-1.511-.004-3.022.002-4.532.869.007 1.739-.006 2.608.007-1.051-1.42-2.108-2.836-3.159-4.256z"/></svg>