<svg enable-background="new 0 0 16.572 14.183" viewBox="0 0 16.572 14.183" xmlns="http://www.w3.org/2000/svg"><path d="m7.802.912c.191-.299.338-.626.551-.912.254.166.523.311.754.51.726.602 1.224 1.469 1.389 2.398.096.388.07.79.066 1.186-.075.978-.512 1.926-1.216 2.61-.813.854-2.037 1.227-3.194 1.173-.284-.037-.57-.072-.843-.157-.262-.064-.498-.203-.759-.269.403.76.862 1.49 1.29 2.237.625 1.1 1.298 2.172 1.947 3.258.177.284.342.576.524.857.207-.266.343-.578.534-.854.631-1.077 1.254-2.157 1.894-3.228.469-.744.893-1.515 1.361-2.259.088-.153.175-.309.295-.44.225.358.423.731.641 1.093.176.296.371.581.529.888.739 1.273 1.454 2.56 2.21 3.822.258.457.521.91.796 1.357-5.333 0-10.667 0-16.001 0-.189-.001-.38.007-.57-.013.226-.431.49-.84.719-1.27.434-.771.887-1.532 1.319-2.304.267-.418.503-.854.768-1.272.734-1.212 1.484-2.415 2.179-3.649.555-.946 1.097-1.899 1.661-2.838.385-.642.756-1.292 1.156-1.924z"/></svg>