<svg enable-background="new 0 0 36.183 26.927" viewBox="0 0 36.183 26.927" xmlns="http://www.w3.org/2000/svg"><path d="m13.201 1.552c.391-.929 1.354-1.568 2.365-1.541 1.787.028 3.583-.066 5.364.045 1.85.362 2.165 2.478 3.104 3.798 4.033 7.678 8.128 15.324 12.149 23.007-1.75.01-3.501.008-5.251.012-.883-.067-1.704-.638-2.084-1.436-.665-1.289-1.405-2.542-2.024-3.853.56-1.009 1.745-1.354 2.78-1.67.018-.104-.121-.077-.181-.104-7.817-1.574-16.413.75-22.153 6.346-.47.491-1.137.776-1.817.771-1.818-.008-3.636.005-5.453-.009 4.394-8.457 8.783-16.923 13.201-25.366zm-1.517 15.627c3.455-1.699 7.256-2.65 11.09-2.921-1.492-3.13-3.237-6.186-4.843-9.278-2.088 4.06-4.333 8.056-6.247 12.199z"/></svg>