<svg enable-background="new 0 0 43.338 62.908" viewBox="0 0 43.338 62.908" xmlns="http://www.w3.org/2000/svg"><path d="m26.887 0c.403.116.606.492.812.823.076-.272.149-.544.223-.816.317.334.51.758.647 1.193.061-.249.11-.502.189-.745.263.317.39.714.526 1.096.157-.217.311-.434.47-.65.885.583.892 1.895.435 2.756.424.242.896.469 1.136.921-.501.162-1.029-.067-1.522.13.51.394.913 1.037.728 1.703-.12.473-.65.622-1.07.711.292.574.748 1.071.897 1.711.383 1.418-.038 2.96-.927 4.103-1.41 1.842-3.536 2.927-5.59 3.897-.613.296-.897.942-1.201 1.508-.477.521-.103 1.259.006 1.856.607.156 1.247-.096 1.868-.017 1.058.448 2.238.158 3.356.235 5.211 14.102 10.32 28.239 15.467 42.363-3.657.013-7.317.033-10.971.021-1.022-2.746-2.096-5.471-3.11-8.221-4.976.002-9.953.014-14.929.033-.98 2.778-2.083 5.511-3.147 8.258-3.726.01-7.452.057-11.18.033 3.285-8.823 6.538-17.659 9.759-26.506 2.004-5.285 3.924-10.606 5.875-15.908 2.045-.19 4.206.106 6.274-.163-.145-.963-.335-1.931-.715-2.832-.838-.208-1.634-.553-2.376-.991-.089.249-.208.488-.38.692-.049-.25-.1-.5-.154-.748-.413.328-.598.826-.758 1.31-.363-.735-.32-1.579-.577-2.347-.076.304-.124.614-.203.917-.364-.514-.302-1.161-.458-1.742-.372 1.022-.377 2.13-.474 3.201-.646-1.288-.747-2.808-.341-4.184-.766.437-.805 1.407-1.043 2.16-.346-1.505-.068-3.082.534-4.484-1.062.556-1.955 1.525-2.149 2.74-.56-1.509-.661-3.254-.052-4.764-1.578 1.339-1.806 3.587-1.955 5.521-.947-1.901-1.086-4.312-.004-6.19.434-.769 1.11-1.358 1.828-1.853-1.341.111-2.527 1.02-3.071 2.235-.55 1.126-.691 2.385-.854 3.611-.536-.852-.659-1.893-.568-2.879.255-2.147 1.468-4.174 3.267-5.379 2.086-1.45 5.237-1.327 7.021.554 1.164 1.194 1.504 2.871 1.628 4.471.779.62 2.099.42 2.676-.414.767-1.089.927-2.497 1.785-3.536.637-.911 1.529-1.61 2.526-2.09-.63.057-1.382.185-1.87-.329.002-.365.314-.626.418-.958-.188-.293-.393-.594-.367-.962.317.06.631.148.955.169.033-.326.022-.653.004-.979.35.252.651.577.79.993-.004-.415.008-.831-.084-1.238zm-15.001 35.968c-3.118 8.347-6.126 16.735-9.211 25.092 2.417-.002 4.836.008 7.251-.046 1.042-2.756 2.133-5.493 3.151-8.259 5.81-.008 11.621-.027 17.431-.034 1.059 2.732 2.039 5.494 3.099 8.224 2.384-.008 4.768-.005 7.152-.016-4.741-12.878-9.388-25.79-14.142-38.662-3.248.005-6.498.012-9.746.016-1.689 4.551-3.232 9.16-4.985 13.685z"/><path d="m17.044 23.454c.171-.088.342-.204.543-.191 2.838.003 5.677-.015 8.515-.012.108.165.083.332-.059.467-2.921-.04-5.842.032-8.761.113-.081-.126-.16-.251-.238-.377z"/><path d="m17.345 25.18c-.5.07-.672-.563-.268-.82 3.143.26 6.299.121 9.45.147.058.067.115.133.174.201-.045.089-.089.177-.133.266-3.076.036-6.157-.082-9.223.206z"/><path d="m16.615 25.631c3.433.252 6.873.113 10.312.127.279-.051.31.238.275.439-3.521.088-7.048-.054-10.562.23-.095-.133-.187-.266-.281-.399.086-.131.172-.264.256-.397z"/><path d="m16.099 27.618c-.34-.285-.155-.858.318-.782 3.697.238 7.404.13 11.107.13.059.085.12.17.18.256-.069.073-.137.147-.204.221-3.802.002-7.604-.028-11.401.175z"/><path d="m15.365 28.443c.101-.154.199-.311.298-.467 1.463.069 2.92.272 4.388.215.393.037.869-.137 1.17.199-.066.096-.132.191-.197.288-1.79-.024-3.578.063-5.361.215-.1-.15-.2-.299-.298-.45z"/><path d="m22.523 28.186c1.542-.011 3.085.005 4.626-.032.344.018.771-.096 1.008.228-.071.094-.142.19-.211.285-1.812.005-3.625.024-5.437.004-.052-.088-.105-.175-.157-.262.057-.075.114-.149.171-.223z"/><path d="m15.686 45.491c1.951-5.561 4.067-11.062 6.074-16.602 2.049 5.504 4.049 11.026 6.052 16.547-4.039.078-8.084.027-12.126.055zm2.6-1.849c2.306-.001 4.611-.005 6.917-.015-1.143-3.167-2.263-6.342-3.443-9.497-1.177 3.163-2.331 6.336-3.474 9.512z"/><path d="m15.281 30.08c-.292-.276-.245-.615.045-.871 1.707.17 3.425.204 5.14.168.066.096.133.192.198.289-.069.073-.137.147-.205.221-1.73-.059-3.452.105-5.178.193z"/><path d="m23.287 29.386c1.748-.017 3.497-.012 5.245-.01.075.092.149.183.225.275-.116.076-.216.206-.368.196-1.701.01-3.403.059-5.103.02-.334-.004-.335-.471.001-.481z"/><path d="m14.873 30.428c1.715.097 3.427.228 5.147.171.086.157.084.324-.016.475-1.61-.02-3.218.039-4.821.199-.298.083-.444-.216-.6-.404.097-.147.194-.294.29-.441z"/><path d="m23.584 30.591c1.799-.012 3.599-.008 5.398-.013.056.089.11.178.165.269-.126.118-.269.238-.454.216-1.704-.005-3.409.012-5.113 0-.062-.086-.123-.17-.186-.253.064-.073.127-.146.19-.219z"/><path d="m14.377 32.467c-.29-.266-.249-.597.021-.859 1.69.164 3.389.194 5.086.157.174.167.174.358-.004.522-1.705-.047-3.404.067-5.103.18z"/><path d="m24.071 32.258c-.289-.005-.224-.317-.145-.495 1.807-.008 3.615 0 5.423-.019.058.091.116.183.175.275-.056.073-.11.146-.164.22-1.763.02-3.529.066-5.289.019z"/><path d="m13.873 32.809c1.769.228 3.551.161 5.329.173.056.081.11.162.166.245-.059.073-.119.148-.177.223-1.776-.037-3.543.133-5.316.189-.098-.131-.197-.262-.296-.393.095-.148.194-.293.294-.437z"/><path d="m24.419 32.921c1.752-.025 3.505-.019 5.257-.012.067.079.134.157.203.238-.103.093-.171.27-.334.248-1.735-.008-3.468.019-5.203.042-.224-.147-.251-.499.077-.516z"/><path d="m13.173 34.471c.133-.16.204-.474.468-.421 1.695.07 3.387.204 5.086.168.071.093.141.187.212.283-.278.242-.647.191-.986.19-1.502-.05-2.994.143-4.492.174-.097-.131-.193-.263-.288-.394z"/><path d="m24.673 34.148c1.812-.015 3.624-.016 5.436-.009.056.088.11.177.167.267-.078.068-.154.137-.231.206-1.775.004-3.55.004-5.326.013-.059-.07-.119-.14-.177-.209.043-.089.086-.179.131-.268z"/><path d="m12.67 35.708c.103-.157.208-.31.319-.461 1.657.121 3.319.241 4.983.195.214-.032.396.08.552.212-.347.371-.881.215-1.329.245-1.403-.036-2.799.116-4.198.182-.109-.124-.218-.249-.327-.373z"/><path d="m25.992 35.399c1.491.002 2.983-.011 4.474-.002.056.081.113.162.171.244-.072.068-.143.137-.214.205-1.766.007-3.532.028-5.299.006-.065-.078-.13-.156-.194-.233.27-.318.698-.204 1.062-.22z"/><path d="m12.497 36.519c1.783.066 3.562.208 5.349.157.054.073.109.147.164.221-.06.086-.119.174-.177.261-1.782-.035-3.555.105-5.332.183-.1-.145-.201-.289-.297-.434.098-.129.197-.257.293-.388z"/><path d="m25.605 36.693c1.792-.014 3.582-.013 5.373-.015.056.069.114.14.173.209-.053.087-.106.174-.157.262-1.762.016-3.526.027-5.288.008-.267-.04-.216-.294-.101-.464z"/><path d="m11.823 38.168c.142-.164.242-.458.502-.44 1.289.066 2.576.186 3.868.151.444.018.916-.073 1.332.129-.018.255-.226.427-.481.385-1.638-.054-3.268.112-4.902.177-.107-.134-.213-.268-.319-.402z"/><path d="m25.842 38.107c.07-.083.14-.166.209-.248 1.706.001 3.413-.011 5.119-.009.191-.025.285.167.408.275-.112.068-.204.189-.339.204-1.729.025-3.458.049-5.187.052-.071-.093-.14-.184-.21-.274z"/><path d="m11.334 39.378c.106-.142.209-.285.31-.431 1.72.098 3.439.216 5.162.199.366.034.174.533-.127.469-1.685-.043-3.362.11-5.042.192-.102-.143-.203-.285-.303-.429z"/><path d="m26.331 39.336c.058-.082.117-.164.175-.245 1.809.012 3.617-.021 5.425-.001.047.085.096.171.144.256-.065.073-.128.144-.191.218-1.795-.006-3.591.002-5.386.005-.056-.077-.112-.155-.167-.233z"/><path d="m11.196 40.224c1.684-.017 3.387.244 5.082.123.394-.102.492.512.073.501-1.657-.032-3.309.086-4.962.179-.425.025-.588-.609-.193-.803z"/><path d="m26.962 40.804c-.153-.178-.113-.482.162-.477 1.702-.002 3.405-.019 5.106-.005.284-.013.224.284.163.465-1.81.016-3.621.011-5.431.017z"/><path d="m10.832 41.458c1.791.087 3.578.207 5.372.18.041.081.082.163.123.245-.059.072-.117.145-.175.218-1.742-.039-3.478.111-5.217.191-.411-.128-.39-.578-.103-.834z"/><path d="m27.415 41.566c1.769.011 3.539.006 5.309-.011.172.188.147.517-.165.505-1.651.028-3.305.009-4.956.017-.184.023-.304-.133-.433-.232.08-.094.163-.187.245-.279z"/><path d="m10.352 43.414c-.309-.26-.266-.623.042-.86 1.723.165 3.455.182 5.184.178.394.02.29.562-.07.502-1.722-.049-3.437.108-5.156.18z"/><path d="m27.623 42.944c.092-.088.15-.252.3-.246 1.723-.025 3.449.025 5.17-.035.117.06.206.158.305.244-.117.115-.221.296-.412.269-1.724.005-3.447.016-5.171.011-.065-.082-.129-.162-.192-.243z"/><path d="m9.688 44.184c.142-.193.269-.477.56-.404 1.648.061 3.292.221 4.943.163.277-.043.346.279.208.464-1.803-.017-3.601.093-5.401.165-.103-.131-.206-.26-.31-.388z"/><path d="m28.102 44.131c.064-.081.13-.16.195-.238 1.677-.002 3.353-.01 5.031-.011.174-.023.319.076.457.167-.086.089-.121.263-.252.293-1.745.068-3.493.042-5.24.055-.064-.09-.128-.179-.191-.266z"/><path d="m9.653 44.957c1.768.137 3.54.201 5.314.164.076.086.153.172.23.258-.071.086-.141.171-.211.259-1.711-.025-3.42.046-5.128.136-.255.043-.367-.221-.505-.38.101-.145.202-.291.3-.437z"/><path d="m28.467 45.355c.099-.121.189-.298.376-.264 1.65-.008 3.299-.008 4.949-.008.182-.034.279.131.382.248-.069.08-.137.162-.204.244-1.759.004-3.518.008-5.277.014-.075-.079-.152-.157-.226-.234z"/><path d="m9.254 46.172c1.258.061 2.514.194 3.775.164 7.123.013 14.243-.09 21.365-.057.052.085.106.171.159.256-.072.083-.144.165-.215.248-6.099.018-12.2.026-18.299.041-2.262.012-4.527.007-6.783.203-.102-.14-.205-.278-.309-.416.101-.147.203-.293.307-.439z"/><path d="m8.778 47.484c1.058.015 2.114.104 3.17.16 7.634-.001 15.268-.083 22.902-.059.047.091.095.182.144.274-.147.076-.289.19-.464.174-7.595.005-15.19.031-22.784.079-.972.028-1.943.165-2.914.157-.353-.186-.363-.553-.054-.785z"/><path d="m8.43 48.634c1.303.042 2.599.231 3.905.199 7.562-.012 15.125-.049 22.687-.048.306-.036.329.316.158.49-7.409-.006-14.815.069-22.223.068-1.517-.031-3.029.103-4.543.184-.1-.144-.199-.288-.296-.433.106-.152.21-.306.312-.46z"/><path d="m7.806 50.025c1.073.029 2.144.116 3.217.163 8.251-.027 16.5-.079 24.752-.07.045.087.091.174.138.263-.059.071-.117.143-.174.215-7.852.09-15.707.046-23.559.081-1.42-.035-2.833.128-4.25.181-.201-.035-.292-.263-.427-.395.099-.148.202-.293.303-.438z"/><path d="m6.955 51.747c.13-.145.215-.414.443-.408 1.173.021 2.341.144 3.514.165 8.459-.03 16.916-.073 25.377-.084.067.097.135.195.204.294-.086.063-.167.133-.259.186-8.556.072-17.115.061-25.673.093-1.097.079-2.197.119-3.294.198-.103-.15-.207-.298-.312-.444z"/><path d="m31.389 52.755c1.735 0 3.471.003 5.206-.01.056.086.113.171.171.258-.052.073-.103.145-.154.219-1.665.056-3.331.037-4.997.044-.185.028-.317-.119-.45-.219.074-.098.149-.195.224-.292z"/><path d="m6.717 52.791c1.72.052 3.435.213 5.157.161.36-.089.392.519.015.471-1.718-.029-3.43.105-5.145.194-.104-.132-.21-.262-.316-.392.096-.145.192-.289.289-.434z"/><path d="m31.894 54.051c1.747-.01 3.494-.011 5.24-.005.062.097.123.195.185.295-.134.091-.266.218-.441.195-1.573.004-3.145.005-4.718.009-.179.024-.319-.087-.449-.191.06-.103.122-.203.183-.303z"/><path d="m6.244 54.119c1.767.064 3.531.221 5.302.158.058.068.116.137.174.207-.046.091-.092.183-.138.276-1.764-.007-3.528.062-5.284.221-.112-.146-.223-.292-.335-.436.093-.142.187-.284.281-.426z"/><path d="m32.269 55.298c1.69-.039 3.38-.004 5.07-.027.194-.042.313.12.437.238-.081.085-.16.173-.239.259-1.772-.021-3.545.029-5.315-.015-.007-.153.011-.306.047-.455z"/><path d="m5.915 55.365c1.468.114 2.94.203 4.413.173.34.018.766-.112.988.232-.073.09-.146.181-.218.272-1.741-.054-3.473.113-5.21.181-.316-.27-.259-.597.027-.858z"/><path d="m33.205 56.688c1.606 0 3.212-.005 4.819-.012.19-.027.289.155.407.269-.106.068-.185.207-.321.215-1.702.017-3.402.024-5.103.036-.074-.088-.147-.176-.22-.262.118-.113.234-.265.418-.246z"/><path d="m5.311 56.756c1.675.059 3.346.232 5.025.162.389-.08.475.468.083.504-1.695-.023-3.387.067-5.077.189-.103-.142-.206-.284-.309-.424.094-.144.187-.287.278-.431z"/><path d="m4.866 58.044c1.779.06 3.552.221 5.335.172.012.154 0 .309-.038.46-1.769-.032-3.531.128-5.296.181-.091-.131-.181-.262-.273-.391.088-.143.179-.283.272-.422z"/><path d="m33.481 58.076c1.754.002 3.507.001 5.26-.017.073.156.102.324.022.485-1.714.012-3.427.065-5.142.04-.149-.016-.248-.15-.365-.23.075-.093.15-.185.225-.278z"/><path d="m4.398 59.351c1.671.029 3.336.218 5.008.16.319-.106.377.431.068.421-1.62.019-3.241.007-4.861.009-.204.021-.369-.111-.534-.208.11-.125.216-.253.319-.382z"/><path d="m33.992 59.862c-.155-.169-.111-.484.174-.427 1.761.053 3.544-.171 5.292.056-.057.123-.116.245-.178.366-1.763-.005-3.525.008-5.288.005z"/></svg>