<svg enable-background="new 0 0 15.096 18.169" viewBox="0 0 15.096 18.169" xmlns="http://www.w3.org/2000/svg"><path d="m0 13.058c2.517-4.353 5.032-8.707 7.551-13.058 2.51 4.355 5.032 8.704 7.545 13.058-.952 0-1.904 0-2.856 0 .015 1.704-.009 3.407.012 5.11-.546-.001-1.092-.003-1.638.001.02-1.704-.006-3.407.012-5.111-.756-.001-1.512 0-2.268 0 .001 1.704.001 3.407.001 5.11-.54 0-1.08 0-1.621 0 .001-1.703 0-3.406.001-5.11-.728 0-1.457 0-2.185 0 .015 1.704-.007 3.408.011 5.112-.545-.003-1.089-.002-1.634 0 .02-1.703-.01-3.408.015-5.111-.982 0-1.964-.002-2.946-.001zm3.918-6.273c.074.108.136.222.203.334.871 1.513 1.757 3.018 2.617 4.537.002-1.624 0-3.247.001-4.871-.941.001-1.881.001-2.821 0zm4.44 0c.001 1.624-.001 3.248 0 4.872.562-1.001 1.147-1.989 1.718-2.986.372-.626.719-1.266 1.102-1.885-.94 0-1.88 0-2.82-.001z"/></svg>