<svg enable-background="new 0 0 30.743 33.358" viewBox="0 0 30.743 33.358" xmlns="http://www.w3.org/2000/svg"><path d="m11.796.009c2.917-.008 5.836-.012 8.753-.007 2.438 8.021 4.978 16.01 7.353 24.05.98 2.983 1.937 5.975 2.84 8.982-3.074.038-6.157.077-9.228-.006-3.237-11.007-6.569-21.986-9.718-33.019z"/><path d="m4.264 24.041c1.575-.14 3.085.734 3.992 1.98 1.279 1.959.923 4.866-.943 6.337-1.675 1.46-4.45 1.294-5.955-.33-1.685-1.663-1.841-4.644-.249-6.418.805-.896 1.934-1.526 3.155-1.569z"/></svg>