<svg enable-background="new 0 0 76.486 57.019" viewBox="0 0 76.486 57.019" xmlns="http://www.w3.org/2000/svg"><g clip-rule="evenodd" fill-rule="evenodd"><path d="m18.48 0c.691.17.848.875 1.339 1.244.392.438.793.865 1.148 1.339.812.863 1.577 1.772 2.344 2.679 4.295 4.874 8.691 10.02 13.106 15.02.327.371.725.739.813 1.052.129.455.035 1.177.048 1.818.039 1.938-.022 3.8-.048 5.501-.04 2.602.173 5.039-.096 7.366-8.1.081-16.782-.001-25.208 0-1.167 0-2.332.113-3.444-.144-.173-1.087-.096-2.414-.096-3.683 0-1.286-.114-2.596.144-3.635 7.901-.217 16.49.062 24.491-.144.076-.495-.518-.722-.717-1.1-.922-.976-1.769-2.026-2.679-3.014-1.202-1.333-2.445-2.625-3.587-4.018-2.136-2.21-4.127-4.652-6.362-6.936-.278-.284-.665-.897-.957-.909-.403-.016-1.043 1.02-1.292 1.339-1.175 1.513-2.287 2.957-3.444 4.401-4.378 5.411-8.549 11.033-12.914 16.504-.264.331-.485.834-.957.957-.222-3.732-.033-7.875-.096-11.767 2.922-4.029 6.059-7.917 9.136-11.911 2.264-2.939 4.599-5.918 6.888-8.897.799-1.04 1.585-2.117 2.44-3.062z"/><path d="m57.991.144h.095c3.149 3.468 6.14 7.095 9.184 10.667 3.03 3.587 6.228 7.006 9.137 10.715v11.002c0 1.129.207 2.618-.048 3.587-.136.517-.684.905-1.1 1.387-1.185 1.371-2.256 2.595-3.444 3.922-3.094 3.459-6.097 7.009-9.232 10.428-.725.918-1.509 1.775-2.296 2.631-.528.647-1.09 1.247-1.722 1.961-.163.184-.404.559-.622.574-.452.031-.996-.867-1.292-1.196-.451-.501-.771-.91-1.196-1.292-2.214-2.712-4.628-5.226-6.84-7.94-1.573-1.728-3.094-3.507-4.64-5.262-1.192-1.327-2.229-2.542-3.444-3.97-.415-.487-.918-.864-1.052-1.387-.264-1.026-.048-2.542-.048-3.683 0-3.731.055-7.262.048-10.954 6.13-7.04 12.206-14.134 18.368-21.143.077.014.082-.045.144-.047zm3.683 16.12c-.557-.63-1.139-1.315-1.77-2.057-.503-.592-1.301-1.641-1.913-2.009-.012-.123-.083.066-.192 0-4.179 4.734-8.291 9.535-12.437 14.303-.274.276-.517.657-.861 1.052-.264.302-.829.646-.813 1.1.011.297.525.764.813 1.1 4.218 4.92 8.202 9.641 12.437 14.542.276.32.673.97 1.005.956.275-.01.691-.645.957-.956 3.273-3.845 6.599-7.613 9.806-11.384 1.178-1.385 2.492-2.651 3.492-4.209-3.365-4.291-7.037-8.272-10.524-12.438z"/></g></svg>