<svg enable-background="new 0 0 77.669 76.545" viewBox="0 0 77.669 76.545" xmlns="http://www.w3.org/2000/svg"><g clip-rule="evenodd" fill-rule="evenodd"><path d="m24.806 0c.574.016.65.53.957.813.829.845 1.54 1.808 2.344 2.679 1.812 2.124 3.627 4.202 5.453 6.314 1.788 2.069 3.456 4.284 5.31 6.41 1.783 2.045 3.625 4.078 5.501 6.266 1.301 1.518 2.721 3.083 4.114 4.688.432.498 1.165 1.18 1.292 1.627.175.614.048 1.584.048 2.439 0 5.764.01 11.708-.143 17.268-6.337.074-12.814.186-19.277 0-6.378-.183-12.82.122-19.038-.191-.284-3.031-.148-6.787 0-9.854 10.867-.353 22.238.212 32.957-.048-.074-.623-.674-.994-1.052-1.434-1.156-1.346-2.45-2.71-3.587-4.114-3.637-4.061-7.174-8.199-10.858-12.246-1.22-1.339-2.386-2.754-3.732-3.97-.716.452-1.168 1.201-1.674 1.865-.507.666-1.046 1.324-1.579 1.961-6.948 8.935-13.946 17.817-20.905 26.739-.259.263-.443.816-.861.765-.149-5.073-.041-10.63 0-15.929.868-1.448 1.974-2.749 3.013-4.066 7.238-9.167 14.38-18.553 21.573-27.839.028-.068.075-.116.144-.143z"/><path d="m77.519.526h.096c.129 5.367-.016 10.699 0 15.594-3.002 3.917-6.317 7.523-9.567 11.193-2.766 3.197-5.501 6.546-8.418 9.758-.28.309-1.099 1.135-1.1 1.483-.003.413.827 1.112 1.148 1.483 2.804 3.245 5.622 6.682 8.371 9.95 2.321 2.799 4.802 5.513 7.223 8.467.348.424.782.895 1.196 1.435.154.201.285.558.478.814.265.349.463.475.526.765.203.937 0 2.636 0 3.779 0 3.781.03 7.736-.096 11.289-.442.101-.506-.573-.813-.766-.757-.885-1.518-1.767-2.296-2.631-1.008-1.176-2.033-2.336-3.062-3.492-3.035-3.532-6.147-6.995-9.184-10.524-3.039-3.531-6.15-6.991-9.088-10.619 0-5.809 0-11.355 0-17.268 0-.882-.126-1.856.048-2.487.141-.511 1.065-1.336 1.482-1.818 3.587-4.14 7.221-8.117 10.715-12.246 4.149-4.621 8.124-9.415 12.198-14.111.005-.038.158-.145.143-.048z"/></g></svg>