<svg enable-background="new 0 0 75.161 74.92" viewBox="0 0 75.161 74.92" xmlns="http://www.w3.org/2000/svg"><path clip-rule="evenodd" d="m43.311.002c.042-.009.047.019.05.05.551.307.793.975 1.093 1.49 1.542 2.649 3.091 5.396 4.569 8.146.588 1.094 1.371 2.095 1.887 3.179.238.501.37 1.014.646 1.49 5.859 10.123 11.464 20.385 17.483 30.546 1.003 1.693 2.072 3.469 3.079 5.265 1.041 1.857 2.051 3.624 2.583 5.762 1.301 5.229-.345 10.056-2.633 13.112-2.337 3.121-6.112 5.317-10.877 5.811-2.706.281-5.084-.339-7.003-1.192-4.981-2.212-7.234-6.502-9.885-10.977-.5-.845-.943-1.774-1.688-2.483-.637.304-.947 1.026-1.292 1.589-1.806 2.951-3.499 6.09-5.265 9.139-.697 1.204-1.289 2.486-2.235 3.477-3.304.09-7.007.049-10.48.05-1.119 0-2.248.1-3.228-.149.011-.511.341-.934.596-1.341 1.682-2.686 3.315-5.568 4.967-8.344 2.849-4.788 5.644-9.568 8.444-14.404 2.521-4.355 5.112-8.828 7.698-13.212.216-.366.331-.932.845-1.043.652.106.918.844 1.192 1.341 2.067 3.756 4.299 7.379 6.357 11.225.596 1.112 1.113 2.247 1.739 3.328 1.226 2.118 2.416 4.177 3.675 6.358.63 1.09 1.186 2.269 1.938 3.08.676.729 2.18 1.503 3.526.993.737-.279 1.372-1.044 1.639-1.738.102-1.331-.461-2.267-1.043-3.278-2.946-5.12-5.748-10.2-8.642-15.397-.403-.725-.881-1.443-1.292-2.186-.414-.75-.73-1.527-1.142-2.285-1.615-2.974-3.279-5.673-4.967-8.742-.366-.666-.875-1.426-1.292-2.136-.282-.48-.966-2.021-1.391-2.036-.512-.019-.861 1.046-1.093 1.44-.324.551-.76 1.058-.944 1.54-7.003 11.658-13.66 23.613-20.662 35.314-1.75 2.926-3.482 5.821-5.166 8.841-.539.966-1.032 1.998-1.838 2.781-3.173.046-6.662 0-10.033 0-1.099 0-2.232.119-3.229-.149.195-.901.757-1.673 1.242-2.434 2.84-4.46 5.55-9.135 8.195-13.857 2.18-3.892 4.292-7.842 6.656-11.622 1.892-3.026 3.522-6.227 5.364-9.288s3.654-6.153 5.463-9.238c1.81-3.087 3.612-6.182 5.364-9.288 1.754-3.109 3.655-6.143 5.414-9.238 1.768-3.112 3.546-6.195 5.414-9.238.107.018.134-.037.202-.052z" fill-rule="evenodd"/></svg>