<svg enable-background="new 0 0 76.723 74.341" viewBox="0 0 76.723 74.341" xmlns="http://www.w3.org/2000/svg"><g clip-rule="evenodd" fill-rule="evenodd"><path d="m76.431 74.255c-17.713.221-36.236-.055-54.243-.051-3.196.002-6.014.008-8.436-.744-2.39-.74-4.402-1.516-6.203-2.928-3.362-2.632-5.714-6.626-6.751-11.613-.561-2.697-.837-5.539-.794-8.387.041-2.709.752-5.326 1.588-7.543 1.648-4.375 4.893-7.408 9.131-9.23 3.335-1.434 7.269-1.59 12.159-1.588 1.419 0 2.943.119 4.417-.15.404-3.283-.075-7.451.248-10.818 1.163-.225 2.65-.1 4.119-.1h2.134c.701 0 1.422-.111 1.985.15.249 3.377-.108 7.162.149 10.521.853.293 1.793.115 2.729.148 6.161.213 13.922-.545 17.866 2.133 1.85 1.021 3.404 2.344 4.516 4.119 1.14 1.822 1.668 3.963 1.886 6.699.444 5.566-1.31 10.27-4.318 12.756-1.526 1.389-3.434 2.346-5.905 2.729-2.48.385-5.375.248-8.238.248-5.547.002-11.637-.101-16.973-.197-.3-6.922.097-14.467-.149-21.143-1.124-.303-2.431-.129-3.772-.149-1.356-.021-2.683-.039-3.92 0-2.527.08-4.3 1.074-5.757 2.283-2.885 2.395-4.764 6.115-4.764 11.266 0 1.385.24 2.848.496 4.119.26 1.289.585 2.529 1.042 3.523.923 2.008 2.62 3.641 4.467 4.664 1.907 1.057 4.526 1.744 7.395 1.787 2.882.043 5.977.049 9.082.049 11.915.002 24.522.184 36.277-.049.263-.656.149-1.408.149-2.084.001-10.854.05-21.188.05-32.209 0-5.733.577-11.658-1.39-15.781-1.805-3.785-5.68-6.162-10.074-7.445-2.227-.648-4.792-1.078-7.494-1.289-2.692-.211-5.525-.447-8.337-.447-5.657.002-11.65-.08-16.625.795-5.067.891-8.969 2.713-11.564 5.955-1.29 1.613-2.221 3.756-2.581 6.203-.369 2.516-.097 5.322-.347 8.189-2.799.164-6.282.164-9.082 0-.105-1.976-.288-3.824 0-5.758.091-.607.053-1.191.099-1.787.564-7.234 4.275-11.984 8.835-15.283 3.149-2.277 6.996-3.719 11.514-4.564 4.417-.83 9.69-.953 14.839-1.191 4.708-.219 9.592.185 13.995.545 13.365 1.093 23.339 5.487 26.202 17.022.975 3.924.546 9.182.546 13.894 0 4.769.146 9.713 0 14.393-.291 9.287.238 18.815-.198 28.338zm-31.663-20.051c1.497 0 2.894-.096 4.02-.545 2.828-1.127 4.483-3.859 4.168-7.941-.212-2.752-1.779-4.703-3.821-5.707-1.545-.758-3.803-.842-6.054-.844-2.302 0-4.978-.1-7.047 0-.346 1.074-.198 2.332-.198 3.574 0 3.803-.093 7.797.099 11.266 2.933.164 6.009.197 8.833.197z"/><path d="m35.736 10.781c.264 1.064.149 2.447.149 3.771 0 1.314.113 2.668-.149 3.723-1.338.07-2.758.055-4.168.1-1.378.043-2.815.002-4.02-.199-.178-1.662-.099-3.852-.099-5.756 0-.605-.16-1.307.248-1.688 2.496.002 5.469-.045 8.039.049z"/></g></svg>