<svg enable-background="new 0 0 75.035 63.577" viewBox="0 0 75.035 63.577" xmlns="http://www.w3.org/2000/svg"><g clip-rule="evenodd" fill-rule="evenodd"><path d="m64.64.203c.21 15.732.151 30.833.152 46.674 0 .99.125 2.034-.152 3-.851.265-1.792.152-2.695.153-4.515 0-9.075-.058-13.626.051-2.488.06-5.378-.362-6.508 1.322.957.269 1.984.152 3 .152h9.457c4.214 0 8.478.089 12.355-.102.271-.898.152-1.874.152-2.796 0-6.702-.021-13.75 0-20.388.024-7.453-.139-15.294.153-22.727.586-.261 1.979-.199 2.644-.051.187 10.369.101 21.03.102 31.319 0 2.01-.086 4.033 0 6 .09 2.033.145 4.128.051 6.152-.092 1.976.159 3.953-.152 5.847-7.766.188-16.01.101-23.845.101-1.984 0-3.907-.051-5.949-.051-.584 0-1.258.139-1.779-.204-.011-2.272.992-4.196 2.288-5.542 1.274-1.323 3.074-2.447 5.389-2.644 4.909-.417 10.45-.057 15.609-.356.276-1.7.111-3.442.102-5.186-.02-3.581.019-7.14 0-10.677-.01-1.767-.036-3.538 0-5.288.109-5.364 0-10.96 0-16.167 0-1.786.105-3.554-.102-5.288-3.184-.319-6.922-.091-10.626-.152-1.612-.027-3.429.015-5.135 0-1.735-.016-3.752-.165-4.932.356-1.363.602-2.223 1.892-2.796 3.254-.408-.125-.417-.598-.559-.864-.7-1.308-1.909-2.467-3.813-2.695-1.592-.19-3.326-.051-5.034-.051-4.674 0-9.967-.137-14.592.051-.319 1.706-.097 3.439-.152 5.186-.113 3.513 0 7.093 0 10.677 0 8.895-.012 17.942.152 26.845 7.476.659 17.71-1.44 21.456 2.949 1.198 1.38 2.464 3.227 2.288 5.644-1.279.277-2.635.152-3.966.153-6.804 0-13.331-.001-20.286 0-2.689 0-5.424.123-8.033-.153-.278-2.013-.07-4.088-.101-6.152-.159-10.283-.054-20.728-.054-31.066 0-4.089-.062-8.156.153-12.05.817-.163 2.286-.169 3.101 0 .295 15.182-.099 30.601.203 45.962 2.066.268 4.232.152 6.356.152h15.66c1.036 0 2.074.107 3.05-.152-.157-.642-1.071-1.026-1.83-1.22-.889-.228-1.927-.18-2.949-.204-5.959-.138-12.656.167-18.354-.152-.268-4.007-.153-8.225-.153-12.355 0-12.117-.119-24.654.102-37.268 5.984-.256 12.396-.102 18.558-.102 1.665 0 3.336-.131 4.932-.051.828.042 1.56.395 2.085.712.473.286 1.09 1.054 1.678 1.067.757.018 1.755-1.137 2.339-1.423.34-.167.834-.318 1.322-.356 1.751-.138 3.792.051 5.847.051 5.621.002 12.111-.082 17.437.103z"/><path d="m27.118 4.575c1.668-.265 3.004 1.305 2.644 2.898-.227 1.001-1.287 1.945-2.644 1.78-1.35-.164-2.37-1.733-1.779-3.305.2-.535.904-1.234 1.779-1.373z"/><path d="m3.171 10.575c.093 13.482.051 27.067.051 40.573 0 1.892-.12 3.792.152 5.643 8.691.122 17.802.1 26.692.102 1.045 0 3.367-.252 3.966.102.606.358.641 1.102 1.169 1.729 1.292 1.532 3.721 1.658 5.135.102.444-.489.646-1.625 1.373-1.881.841-.297 2.657-.039 3.762-.051 8.388-.086 17.756.215 26.337-.102.022-.045.045-.091.102-.102.311-15.264-.117-31.123.204-46.165.714-.167 2.082-.167 2.796 0 .151 15.961.181 33.072 0 49.368-1.192.331-2.462.083-3.711.102-6.054.092-13.089-.092-19.219.051-2.685.062-5.315-.255-7.779 0-1.568.163-2.127 1.627-3.152 2.44-2.269 1.801-5.316 1.192-7.016-.508-.714-.714-1.243-1.694-2.39-1.932-1.14-.236-2.626-.05-4.017-.051-6.284-.001-12.845.001-19.676 0-1.325 0-2.658.04-3.966 0-1.259-.038-2.534.151-3.763-.152-.207-1.938-.152-3.972-.152-6.05 0-2.082 0-4.193 0-6.305 0-4.135-.157-8.368 0-12.558.143-3.818-.08-8.167 0-12.202.06-3.02-.081-6.071 0-9.355.02-.788-.067-2.532.204-2.847.037-.048.092-.077.152-.102.886.079 2.107-.176 2.746.151z"/><path d="m23.712 38.284c-.383.714-1.554.559-3 .559-2.039 0-3.689.107-4.576-.915-.873-1.006-.814-2.986-.814-4.983 0-2.079-.011-3.856 0-5.694.004-.779.094-1.811.356-2.39.663-1.467 2.44-1.549 4.169-1.678.954-.408.575-2.523.508-3.813-.052-1.018.009-2.146.051-3.254.042-1.112.133-2.357-.864-2.339-1.068.019-.864 1.833-.864 3.203 0 1.353.261 3.136-.305 3.712-.395.401-1.932.472-2.44.152-.845-.531-.513-2.681-.457-4.067.079-1.978-.2-3.782.457-4.881.618-1.033 1.734-1.113 3.051-1.271 2.343-.281 4.042.47 4.626 1.983.325.839.272 1.978.254 3.101-.081 5.303-.043 11.247-.051 16.219-.003 2.095.19 4.19-.101 6.356zm-4.983-9.202v2.085c0 1.461-.434 4.723.915 4.677 1.028-.035.814-1.737.814-3 0-1.318.051-2.982.051-3.915 0-1.147 0-2.75-1.119-2.44-.864.304-.661 1.337-.661 2.593z"/><path d="m28.846 11.134c.328 2.154.198 4.433.102 6.711-.047 1.12.08 2.253.102 3.406.098 5.022 0 10.346 0 15.558 0 .486.131 1.102-.204 1.525-.084.647-2.174.758-2.746.305-.555-.44-.406-2.099-.406-3.458 0-3.98-.035-7.475 0-11.44.019-2.157-.108-3.89-.102-5.745.003-.959.102-2.142.102-3.457 0-1.027-.214-2.812.152-3.407.489-.789 2.515-.647 3 .002z"/><path d="m34.388 10.676c2.556-.2 4.632.343 4.881 2.746.152 1.468 0 3.207 0 4.932 0 3.063-.068 6.753.051 9.711.151 3.75-.182 5.853-3.864 5.999-.939.038-1.744.138-1.78.814-.044.843.816.966 2.085.966 2.825 0 4.168.494 4.169 3.356 0 .897.091 1.829-.102 2.491-.532 1.831-2.089 1.97-4.474 1.983-2.047.011-3.705.045-4.321-1.322-.236-.523-.295-1.538-.204-2.186.073-.516.425-.881.407-1.423-.021-.621-.559-1.064-.712-1.678-.135-.543-.158-1.335 0-1.881.168-.581 1.083-1.222 1.119-1.78.03-.485-.54-1.13-.661-1.678-.287-1.3-.086-3.231-.102-4.779-.035-3.408-.035-6.425 0-9.762.017-1.59-.16-3.731.305-4.779.522-1.175 1.825-1.622 3.203-1.73zm-.152 5.441c0 3.361-.051 7.245-.051 10.982 0 1.371-.194 3.757.814 3.813 1.144.063 1.017-1.923 1.017-3.457 0-3.109-.022-5.931-.051-8.694-.017-1.593.61-5.071-.915-4.932-1.13.103-.814 1.265-.814 2.288zm2.644 23.641c-.038-1.266-3.399-1.36-3.559-.051.033 1.596 3.601 1.451 3.559.051z"/><path d="m49.438 25.98c-.34.764-1.353.661-2.644.661-.71 0-1.76-.122-2.136.254-.35.35-.223 1.455-.254 2.288-.035.94-.051 1.783-.051 2.491 0 1.652-.422 3.92.966 4.118 1.149-.239.864-1.871.864-3.05 0-1.147-.265-2.876.254-3.508.393-.479 2.287-.682 2.847 0 .561.682.254 2.967.254 4.118 0 2.632.011 4.822-2.288 5.441-.847.227-3.377.231-4.169-.102-.628-.263-1.304-.981-1.576-1.576-.732-1.597-.306-5.487-.305-7.982 0-4.238 0-8.233 0-12.456 0-1.161-.059-3.357.305-4.22.314-.745 1.3-1.604 2.339-1.729 2.572-.311 4.615.226 5.338 1.729.374.776.355 2.071.355 3.203.003 3.236.008 7.156-.099 10.32zm-5.033-10.219c-.003 1.114-.102 2.607-.102 4.373 0 1.488-.125 3.513.966 3.508 1.053-.005.915-1.639.915-2.796 0-.692-.082-1.448-.051-2.237.059-1.476.626-5.018-1.017-4.678-.846.174-.709.939-.711 1.83z"/><path d="m57.013 26.336c.706-.081 1.771-.318 2.288.102.485.395.407 1.646.407 2.288 0 2.1.046 3.281-.051 5.338-.041.867.041 1.922-.102 2.542-.199.872-1.067 1.678-1.474 1.881-1.17.584-3.637.631-4.881.254-2.708-.821-2.085-4.424-2.085-7.83 0-2.213.122-4.345.102-6.253-.031-2.984.107-6.567.102-9.559-.004-2.464.488-4.191 2.949-4.373 2.138-.157 4.23.031 4.983 1.525.562 1.117.442 3.532.356 5.338-.054 1.13 0 1.842 0 2.898 0 1.037.093 2.105-.407 2.492-.5.386-2.196.315-2.593-.153-.342-.404-.215-1.474-.254-2.339-.04-.885-.051-1.745-.051-2.491 0-1.296.506-4.07-.813-4.118-.823-.03-.966.884-.966 1.983 0 2.574.083 6.117.051 8.491-.032 2.35-.036 4.761-.051 7.525-.008 1.439-.26 3.882.915 3.915.883.024.921-.958.915-1.983-.006-1.133.034-1.998.051-2.898.029-1.595-.387-3.941.609-4.575z"/></g></svg>