<svg enable-background="new 0 0 46.932 78.38" viewBox="0 0 46.932 78.38" xmlns="http://www.w3.org/2000/svg"><g clip-rule="evenodd" fill-rule="evenodd"><path d="m46.931 61.918c-1.681.321-3.5.1-5.316.1-1.921 0-3.754.08-5.366-.1-4.734-.528-7.632-3.446-9.127-7.373-1.459-3.83-2.826-8.256-4.163-12.237-.905-2.694-1.794-5.506-2.658-8.325-.859-2.803-1.784-5.582-2.558-8.375-1.136-4.102-2.757-8.283-4.012-12.437-.923-3.058-1.823-6.148-5.065-6.821-1.168-.242-2.297.063-3.36-.25-.744-.22-1.02-1.072-1.907-1.305-.535-.14-1.078.11-1.555-.1.101-1.208 1.004-2.035 1.605-2.909.377-.287.697-.589 1.053-.752 1.845-.846 4.149.377 6.37.401 1.926.021 3.348-1.148 5.065-1.354 4.236-.507 7.587 1.442 9.128 4.062 1.195 2.032 1.934 4.767 2.758 7.222.851 2.536 1.595 5.151 2.357 7.573 1.586 5.042 3.157 10.192 4.815 15.096 1.744 5.158 3.173 10.048 4.915 14.996.883 2.509 1.534 5.106 2.558 7.422.892 2.019 2.196 3.585 3.912 4.815.205.147.569.304.551.651zm-28.687-57.022c1.226-.085 1.256-2.486-.301-2.207-1.285.296-.923 2.291.301 2.207z"/><path d="m18.996 59.861c-2.139 1.597-5.02 2.584-8.576 2.257-.091-.008-.163-.031-.25-.05-4.67-.992-8.368-4.02-9.629-8.426-.242-.845-.441-1.874-.501-2.658-.27-3.502.92-6.356 1.906-8.827 1.534-3.847 3.557-7.071 5.617-10.432 2.01-3.28 3.971-6.707 6.219-9.83.46-.452.824.985.953 1.404.213.701.265 1.22.45 1.757.734 2.141 1.607 4.436 2.257 6.67.336 1.158.833 2.25 1.103 3.36.114.469.128.911.251 1.355.327 1.178.764 2.386 1.204 3.611 1.153 3.214 1.933 6.386 3.109 9.729.248.706.541 1.607.802 2.407.26.793.753 1.793.702 2.357-.11 1.216-1.728 2.274-2.558 2.909-1.147.879-1.887 1.66-3.059 2.407z"/><path d="m18.645 77.966c-.689.361-2.065.235-2.608 0-.671-.291-.943-1.169-1.003-2.006-.108-1.513.182-3.27.1-5.065-.081-1.774.183-3.532 0-5.015-.076-.614-.631-.986-.25-1.555 1.735-.271 3.19.145 3.36 1.705.076.695-.069 1.608-.1 2.608-.026.839.05 1.771.05 2.658 0 1.943-.227 4.003.05 5.366.106.523.429.863.401 1.304z"/><path d="m24.312 70.945c.624-.045.669-.668 1.053-.953.87-.809 1.654-2.48 2.658-3.36.562-.493 1.749-.775 2.809-.452.041.634-.468 1.035-.803 1.455-.677.849-1.27 1.658-1.956 2.658-.25.365-.788 1.127-.802 1.505-.018.477.575 1.138.853 1.604.643 1.082 1.224 1.973 1.906 2.959.321.464.758.936.752 1.555-.601.673-2.282.359-3.009-.05-.657-.37-1.218-1.31-1.705-2.006-.185-.265-1.145-2.121-1.655-2.057-.497.062-.351 1.332-.351 2.057 0 .806.074 1.824-.301 2.106-.723.543-2.087-.149-2.407-.802-.289-.592-.25-1.683-.25-2.708 0-.872-.047-1.97 0-2.959.095-2.017.248-4.293.05-5.818-.065-.501-.526-.843-.25-1.354 2.067-.306 3.283.243 3.26 2.307-.008.738-.1 1.75-.1 2.708-.002.547-.143 1.205.248 1.605z"/><path d="m41.063 77.816c-1.146.5-2.725-.095-3.26-.802-.413-.545-.625-1.533-.903-2.407-.269-.848-.551-1.713-.802-2.508-.556-1.756-.98-3.638-1.604-4.965-.196-.416-.557-.596-.652-1.053.883-.448 2.457-.076 3.16.301.096.138.213.255.351.351.703 1.563 1.161 3.274 1.705 4.965.538 1.671.964 3.414 1.605 5.015.144.362.436.67.4 1.103z"/><path d="m6.207 66.131c1.795-.116 3.228.071 3.912 1.253.366.632.521 1.566.802 2.407.27.807.478 1.66.752 2.458.559 1.625 1.011 3.361 1.655 4.714.176.37.488.626.452 1.104-.749.346-1.937.283-2.558 0-1.22-.557-1.491-1.941-1.956-3.411-.253-.801-.528-1.665-.803-2.457-.588-1.699-.91-3.538-1.655-4.814-.264-.453-.777-.562-.802-1.153.075-.027.127-.075.201-.101z"/><path d="m34.393 70.745c.009-.057.05-.028.05 0 .535.29.791 1.833 1.053 2.708.298.997.955 1.912.903 2.758-.05.816-1.091 1.569-1.705 1.755-1.818.551-3.524-1.151-3.059-2.909.434-1.645 1.92-3.079 2.608-4.313.05.001.099.001.15.001z"/><path d="m6.909 71.246c.445-.003.535.789.652 1.204.272.963.605 1.761.902 2.708.15.475.394.996.352 1.454-.115 1.247-1.846 2.08-2.959 1.655-1.018-.388-1.633-1.414-1.505-2.959.655-1.468 1.51-2.736 2.407-3.962.038-.046.092-.075.151-.1z"/></g></svg>