<svg enable-background="new 0 0 78.48 77.698" viewBox="0 0 78.48 77.698" xmlns="http://www.w3.org/2000/svg"><g clip-rule="evenodd" fill-rule="evenodd"><path d="m67.926 12.756c-.761.095-1.48.09-2.253.098-.809.008-1.806.224-2.595.049-.501-.111-.894-.384-1.371-.539-2.019-.656-5.117-.602-5.974 1.224-.405.865-.486 2.167-.588 3.33-.313 3.571.024 7.638-.049 11.164-.48-.087-.641-.616-.833-.93-1.51-2.472-4.196-3.875-8.225-3.917-2.121-.022-4.445-.098-6.757-.098-1.67 0-3.293.013-5.093-.049-.466-.016-1.06-.208-1.42.196-.041.875.713 1.375 1.126 1.958 1.88 2.112 5.138 2.707 8.716 3.183 3.572.475 7.246.513 9.549 2.351 2.158 1.723 3.463 5.052 2.839 8.863-.535 3.276-2.711 5.324-4.749 7.1-3.783 3.484-8.655 6.125-15.228 6.953-3.544.447-6.916-.055-9.744-.979-2.836-.927-5.254-2.163-7.148-3.918-.673-.464-1.05-.934-1.665-1.518-.401-.381-1.381-1.097-1.42-1.714-.032-.514.487-1.159.734-1.567 2.001-3.308 5.182-5.514 9.157-6.708 2.418-.727 5.661-.627 8.128-.098 1.748.375 3.354 1.149 4.799 2.008.252.15.979.731 1.615.636.35-.052.795-.295.833-.93.067-1.16-1.765-1.804-2.693-2.252-1.279-.618-2.354-1.062-3.574-1.371-5.823-1.476-12.281.144-15.67 2.889-1.375 1.114-2.655 2.257-3.721 3.672-.326.434-.569 1.072-1.175 1.273-.666-.729-1.124-1.707-1.519-2.693-1.165-2.916-2.027-6.647-1.664-10.674.444-4.943 2.545-8.977 5.043-11.654 2.773-2.971 5.943-4.927 10.919-5.778 4.79-.819 9.064.508 11.85 2.399.514.349 1.058.639 1.47.587.236-.029.715-.301.782-.734.186-1.191-1.728-2.045-2.448-2.399-3.18-1.566-7.599-2.564-12.045-1.812-8.222 1.392-13.281 6.077-16.012 12.927-.941 2.361-1.532 4.867-1.714 7.933-.19 3.215.531 5.803 1.322 8.226.59 1.807 1.404 3.308 2.203 4.994.219.461.828 1.264.784 1.714-.094.951-.442 1.768-.588 2.595-.306 1.733-.278 4.112-.098 5.974.084.874.277 1.782.538 2.645.991 3.275 2.582 5.764 4.75 7.932 4.152 4.153 10.141 6.879 18.803 6.366 4.066-.241 7.162-1.245 9.891-2.792 2.765-1.566 4.899-3.349 6.806-5.875 1.848-2.447 3.125-5.332 3.82-8.863.364-1.853.475-3.724.636-5.729.155-1.919-.098-3.944.147-6.072.061-.53.674-1.162 1.028-1.616 1.043-1.333 2.187-2.801 3.134-4.162 1.207-1.734 2.317-4.129 2.154-7.54-.146-3.059-1.424-5.134-1.812-7.883-.564-4.003 1.028-7.055 4.798-7.345.668-.052 1.838-.065 2.448.147.733.254 1.604 1.53 2.057 2.154 1.746 2.407 3.21 5.246 4.407 8.079 1.714 4.054 2.839 8.461 3.085 13.612.128 2.675-.217 5.384-.637 7.737-1.253 7.014-4.09 12.769-7.639 17.333-1.211 1.557-2.435 3.092-3.917 4.456-1.421 1.306-2.982 2.549-4.701 3.623-5.19 3.246-10.961 5.764-18.508 6.561-8.142.861-15.356-1.029-20.81-3.77-3.788-1.904-7.118-4.03-9.989-6.708-5.647-5.268-9.96-12.408-11.702-21.693-.889-4.739-.655-10.379.393-15.081 1.958-8.792 6.657-15.761 12.485-20.859 2.954-2.583 6.437-4.593 10.381-6.316 6.226-2.721 15.545-4.053 23.65-2.204 5.972 1.363 10.664 3.636 14.983 6.66 1.575 1.102 3.005 2.39 4.407 3.721.429.406 1.063.847 1.078 1.518z"/><path d="m61.315 14.763c-.559.957-2.126.54-2.008-.587.135-1.278 2.475-1.067 2.008.587z"/><path d="m54.803 45.317c.042-.009.046.02.049.049.435.237.212.778.196 1.126-.062 1.35-.082 2.688-.147 3.966-.169 3.337-1.138 6.161-2.399 8.569-3.068 5.855-8.563 10.097-16.796 10.625-7.183.461-12.901-1.64-16.55-5.289-2.677-2.676-5.02-5.924-5.436-11.017-.128-1.572-.149-3.421.49-4.896.486-.089.796.416 1.077.685 4.465 4.301 11.322 7.588 20.418 6.513 8.586-1.016 14.281-5.438 18.95-10.283.08.015.085-.045.148-.048z"/></g></svg>