<svg clip-rule="evenodd" fill-rule="evenodd" stroke-linejoin="round" stroke-miterlimit="2" viewBox="0 0 560 400" xmlns="http://www.w3.org/2000/svg"><g fill-rule="nonzero" transform="matrix(.46729 0 0 .46729 130.005 50)"><path d="m632.872 397.205c-34.976 143.481-163.954 244.795-311.884 244.795-147.84 0-276.888-101.237-311.883-244.795 99.914-49.183 224.096-35.842 311.883 43.207 87.839-79.1 212.034-92.365 311.884-43.207"/><path d="m641.475 338.848c-102.611-51.868-228.2-40.934-320.487 30.238-94.547-72.61-219.846-81.11-320.486-30.238-1.252-23.088-.128-44.748 3.017-65.228 99.947-53.318 223.577-46.326 317.534 21.186 94.701-67.923 218.19-74.048 317.404-21.121 3.185 20.672 4.257 42.397 3.018 65.163"/><path d="m623.05 212.374c-94.708-47.277-211.052-41.198-302.062 22.726-92.993-65.317-209.863-68.899-302.06-22.726 11.139-31.05 27.037-60.182 47.122-86.35 83.402-28.292 178.264-17.648 254.938 34.604 76.707-52.278 171.569-62.883 254.939-34.603 20.085 26.168 35.983 55.299 47.122 86.349m-113.89-151.384c-63.507-11.794-131.283.398-188.17 38.327-56.856-37.903-124.638-50.12-188.17-38.327 52.899-38.392 117.869-60.99 188.169-60.99 70.298 0 135.269 22.598 188.17 60.99"/></g></svg>