<svg enable-background="new 0 0 43.608 31.899" viewBox="0 0 43.608 31.899" xmlns="http://www.w3.org/2000/svg"><path d="m10.278 6.837c2.102-4 6.458-6.629 10.943-6.837 7.45.008 14.9.086 22.349.019.093 2.534-.012 5.07-.021 7.609-4.248.039-8.483.05-12.73.025-.084.52-.092 1.048-.056 1.573-.019.207-.028.419.017.626-.052 2.001-.075 4.016-.002 6.016 2.831-.002 5.662.014 8.493.017-.155 2.524-.024 5.067-.078 7.599-2.818.016-5.636.009-8.454-.006-.048 2.802-.103 5.604-.071 8.408-2.538-.008-5.136.066-7.641-.062-.075-2.774.04-5.6.024-8.396-2.824-.009-5.648-.016-8.472-.023-.079-2.287.05-4.596-.019-6.893-2.199 5.005-4.169 10.129-6.364 15.141-2.732-.006-5.464-.013-8.196-.009 3.382-8.276 6.742-16.589 10.278-24.807zm6.672 3.625c-.677 1.781-1.611 3.484-2.089 5.33 2.736.004 5.472.019 8.208.016-.027-2.723.013-5.45.063-8.161-2.377-.34-5.045.587-6.182 2.815z"/></svg>