<svg enable-background="new 0 0 66.049 71.23" viewBox="0 0 66.049 71.23" xmlns="http://www.w3.org/2000/svg"><g clip-rule="evenodd" fill-rule="evenodd"><path d="m26.162 14.42c-3.481 3.791-12.402 4.989-18.11 2.276-2.755-1.31-5.516-4.323-5.047-8.362.657-5.667 5.835-8.03 11.826-8.313 4.234-.2 8.221 1.07 10.589 2.92 1.467 1.145 2.689 3.231 2.87 5.493.213 2.673-.755 4.477-2.128 5.986z"/><path d="m38.582 68.751c-1.918-1.146-3.352-2.542-4.255-4.651-.955-2.227-.644-5.074-.644-8.115-.001-16.452.001-32.243 0-48.592 0-2.394.334-4.581-1.286-5.195-1.121-.425-3.302-.148-4.751-.148-.471 0-1.069.142-1.336-.247-.562-1.467.788-1.156 1.93-1.188 3.123-.087 6.562-.09 9.798 0 3.905.108 7.392-.049 10.292.99 2.834 1.015 4.71 2.808 5.889 5.394 1.183 2.594.798 6.444.841 10.143.148 12.765.001 25.354 0 38.646 0 1.871-.109 4.026.445 5.196.841 1.771 3.35 3.478 6.087 2.326 1.548-.652 2.769-1.798 3.067-3.761.126-.822-.183-1.985.891-1.781.543.103.502 1.075.495 2.177-.017 2.578-.84 4.542-1.979 6.037-1.509 1.98-3.809 3.486-6.631 4.008-3.208.593-6.558.562-9.945.495-3.251-.066-6.308-.572-8.908-1.734z"/><path d="m30.418 62.863c.477-.704 1.044-1.263 1.286-2.227.172-.681-.039-2.285.594-2.424 1.301-.286.829 1.909.792 2.623-.159 3.101-1.755 5.559-3.514 7.026-1.795 1.498-4.418 2.625-7.422 3.117-5.492.9-10.584-.718-13.806-3.167-5.257-3.996-7.876-10.984-8.313-19.744-.213-4.279.549-8.692 1.782-12.123 2.415-6.72 7.093-11.914 15.587-12.469 4.764-.312 8.705.942 11.381 2.771 1.933 1.322 3.546 3.526 4.106 6.433.208 1.075.649 3.421-.742 2.919-.551-.199-.326-1.235-.445-1.93-.444-2.597-3.445-4.822-6.581-3.563-1.272.511-2.45 1.656-2.82 2.969-.452 1.603-.198 4.539-.198 6.828.001 5.888 0 11.563 0 17.567 0 1.776-.043 3.264.545 4.354.431.798 1.349 1.628 2.227 2.029 1.9.868 4.039.358 5.541-.989z"/></g></svg>