<svg enable-background="new 0 0 41.642 75.466" viewBox="0 0 41.642 75.466" xmlns="http://www.w3.org/2000/svg"><g clip-rule="evenodd" fill-rule="evenodd"><path d="m41.278.087c.198 1.5.204 3.072.194 4.609-.069 10.588.143 22.184-.049 33.09-1.815.088-3.806.048-5.774.048-.617 0-1.396-.106-1.892.049-.531.167-.972 1.09-1.358 1.649-1.084 1.568-2.016 2.887-3.057 4.464-.175.266-.371.681-.728.679-.31-2.019.147-4.804-.243-6.744-2.251-.256-5.044.03-7.375-.146-.133-9.187-.194-18.699-.194-28.044-.001-3.105.106-6.201-.146-9.219-.58.498-.904 1.234-1.261 1.892-1.103 2.031-2.206 4.064-3.299 6.114-2.173 4.072-4.398 8.12-6.647 12.178-2.21 3.988-4.386 8.11-6.599 12.179-.634 1.076-1.3 2.286-1.941 3.445-.186.336-.333.833-.728.922-.148-12.31-.269-24.951-.096-37.068 13.792-.278 27.518-.18 41.193-.097z"/><path d="m12.943 31.042c.233.462.167 1.039.194 1.601.083 1.742-.165 3.519.049 5.095 2.215.364 5.213-.011 7.618.194.278 12.15-.132 24.667.243 36.923.477-.116.581-.657.776-1.019 1.408-2.599 3.021-5.389 4.416-8.054 2.486-4.571 4.994-9.23 7.521-13.828 2.36-4.296 4.743-8.609 7.132-12.906.121-.217.218-.655.583-.631.094 10.296.146 21.521.146 32.362 0 1.531.097 3.051-.097 4.513-3.404.217-6.86.097-10.335.097-3.46 0-7.014-.178-10.383-.049-6.818.262-13.691.036-20.524 0-.354-4.633.133-9.335-.097-14.167-.073-1.522-.115-3.099-.048-4.609.197-4.496 0-9.41 0-14.168 0-1.531-.19-3.033.097-4.464 2.571-.092 4.924.008 7.618-.048.604-.355.929-1.047 1.31-1.601 1.158-1.681 2.41-3.425 3.59-5.143.029-.066.1-.091.191-.098z"/></g></svg>