<svg enable-background="new 0 0 49.56 49.622" viewBox="0 0 49.56 49.622" xmlns="http://www.w3.org/2000/svg"><path d="m24.39.005c.326-.005.652-.007.978-.002-.001.778.032 1.556.042 2.333-.356.053-.716.019-1.074.04.021-.791.066-1.579.054-2.371z"/><path d="m27.633.16c.333-.014.657.074.982.132-.098.776-.172 1.557-.278 2.332-.357-.067-.722-.071-1.075-.152.152-.766.247-1.542.371-2.312z"/><path d="m21.155.294c.332-.028.657-.122.992-.126.047.78.256 1.544.32 2.324-.353.058-.711.09-1.066.131-.111-.773-.15-1.555-.246-2.329z"/><path d="m18.036 1c.307-.1.62-.202.944-.225.192.745.423 1.479.578 2.234-.329.1-.654.247-1.002.257-.174-.755-.375-1.504-.52-2.266z"/><path d="m30.777.78c.329.015.642.127.954.222-.137.773-.378 1.523-.532 2.292-.342-.069-.704-.139-1.015-.286.08-.761.464-1.468.593-2.228z"/><path d="m14.954 2.088c.3-.124.601-.246.904-.361.321.718.626 1.443.949 2.161-.332.126-.654.279-.992.39-.32-.716-.583-1.457-.861-2.19z"/><path d="m33.91 1.739c.288.147.597.246.892.377-.289.736-.548 1.484-.873 2.205-.333-.129-.659-.278-.99-.411.34-.717.618-1.461.971-2.171z"/><path d="m12.071 3.579c.27-.167.551-.316.826-.474.417.649.824 1.308 1.203 1.978-.254.228-.609.378-.918.545-.382-.676-.752-1.36-1.111-2.049z"/><path d="m36.843 3.143c.285.135.546.314.828.454-.316.708-.721 1.389-1.129 2.048-.324-.081-.636-.315-.929-.5.41-.667.798-1.348 1.23-2.002z"/><path d="m22.993 3.662c.258-.171.625-.078.927-.149.119.778.172 1.564.204 2.349-.347.001-.688.091-1.036.067-.052-.755-.102-1.514-.095-2.267z"/><path d="m25.738 3.516c.329.008.658.024.984.071.017.782-.039 1.563-.113 2.338-.35.006-.695-.062-1.043-.077.027-.779.165-1.55.172-2.332z"/><path d="m20.203 4.082c.309-.116.641-.144.959-.224.206.747.334 1.512.524 2.263-.349.08-.709.236-1.068.196-.154-.742-.221-1.501-.415-2.235z"/><path d="m28.048 6.113c.11-.773.336-1.526.498-2.289.316.079.635.141.955.202-.144.769-.28 1.538-.422 2.306-.351-.036-.694-.118-1.031-.219z"/><path d="m17.591 4.81c.306-.106.613-.206.92-.309.249.748.558 1.479.773 2.236-.335.082-.651.275-.995.29-.26-.727-.476-1.475-.698-2.217z"/><path d="m31.183 4.552c.022-.009.065-.029.086-.039.278.127.588.18.858.321-.226.748-.463 1.497-.712 2.24-.346-.099-.698-.197-1.013-.378.269-.712.518-1.432.781-2.144z"/><path d="m9.415 5.436c.227-.225.497-.403.754-.591.483.619.987 1.223 1.461 1.849-.271.223-.551.441-.851.623-.481-.605-.941-1.236-1.364-1.881z"/><path d="m39.569 4.933c.246.182.97.446.588.821-.414.544-.796 1.112-1.218 1.65-.274-.233-.573-.433-.844-.67.5-.59.933-1.253 1.474-1.801z"/><path d="m15.135 6.191c-.226-.465.519-.467.776-.682.347.704.736 1.387 1.068 2.098-.305.184-.64.311-.958.468-.293-.628-.584-1.258-.886-1.884z"/><path d="m32.727 7.656c.315-.728.725-1.417 1.071-2.133.289.138.573.285.87.407-.281.746-.655 1.455-.986 2.18-.32-.149-.625-.33-.955-.454z"/><path d="m12.683 7.432c.155-.265.519-.386.771-.571.468.623.895 1.279 1.34 1.919-.277.224-.581.411-.884.595-.417-.642-.839-1.286-1.227-1.943z"/><path d="m34.904 8.793c.455-.644.878-1.312 1.369-1.929.244.217.539.362.792.567-.449.646-.827 1.337-1.285 1.977-.298-.195-.613-.372-.876-.615z"/><path d="m7.034 7.632c.213-.245.45-.468.696-.68.565.519 1.092 1.077 1.62 1.634-.226.257-.48.486-.718.732-.537-.557-1.073-1.117-1.598-1.686z"/><path d="m40.565 8.409c.483-.473.948-.967 1.47-1.397.218.23.449.449.651.694-.557.551-1.042 1.181-1.644 1.682-.13-.341-.922-.617-.477-.979z"/><path d="m11.18 8.502c.557.555 1.081 1.145 1.594 1.741-.259.245-.524.483-.809.698-.485-.609-1.015-1.182-1.49-1.799.237-.212.469-.428.705-.64z"/><path d="m36.905 10.275c.523-.584 1.05-1.166 1.587-1.738.246.199.474.419.717.622-.43.638-.971 1.205-1.48 1.777-.314-.122-.557-.441-.824-.661z"/><path d="m5.504 9.335c.629.464 1.271.91 1.881 1.399-.18.304-.409.576-.635.845-.613-.492-1.244-.963-1.831-1.486.202-.247.409-.49.585-.758z"/><path d="m42.288 10.822c.627-.458 1.24-.939 1.891-1.361.258.188.416.49.615.738-.611.481-1.223.959-1.818 1.46-.266-.247-.439-.573-.688-.837z"/><path d="m8.581 11.146c.164-.269.397-.484.603-.72.588.496 1.192.98 1.759 1.498-.121.32-.474.535-.66.835-.573-.529-1.186-1.026-1.702-1.613z"/><path d="m38.734 11.982c.56-.514 1.157-1 1.74-1.493.266.153.436.457.616.706-.506.588-1.114 1.086-1.686 1.61-.22-.277-.499-.512-.67-.823z"/><path d="m3.162 12.863c.156-.28.298-.567.472-.836.702.325 1.363.736 2.036 1.114-.108.329-.327.619-.488.927-.703-.34-1.341-.814-2.02-1.205z"/><path d="m44.009 13.227c.691-.35 1.346-.771 2.045-1.102.168.271.323.55.474.831-.658.432-1.332.839-2.014 1.23-.166-.322-.392-.613-.505-.959z"/><path d="m7.468 12.61c.659.396 1.313.827 1.917 1.296-.167.305-.374.588-.572.874-.598-.481-1.262-.879-1.853-1.364.097-.3.336-.542.508-.806z"/><path d="m40.261 13.947c.65-.432 1.273-.911 1.967-1.269.138.282.412.509.47.82-.587.472-1.254.843-1.821 1.338-.24-.27-.408-.594-.616-.889z"/><path d="m18.985 14.599c3.439.034 6.881-.095 10.317.018.168.04.219.224.254.371 1.504 6.272 3.11 12.522 4.662 18.784.245.452.899.148 1.317.232.399-.079.411.379.351.649-.043.217.104.652-.239.653-2.597-.006-5.199.024-7.793-.071-.072-.387-.168-.902.048-1.236.863-.093 1.753.005 2.623-.015.093-.028.143-.143.122-.233-1.363-5.835-2.856-11.645-4.283-17.467-.039-.359-.464-.303-.726-.283-.818.005-1.637.007-2.455.019-.252-.011-.27.283-.332.46-1.518 5.769-3.082 11.522-4.519 17.307-.012.096.072.187.17.18.783.016 1.568.009 2.35.035.247.122.125.463.155.684-.008.206.056.613-.261.584-2.255-.002-4.51-.009-6.764-.01-.176-.024-.526.026-.478-.25.055-.333-.115-.755.104-1.03.814-.054 1.638.004 2.456-.021.141-.003.273-.104.308-.241.74-2.931 1.544-5.847 2.328-8.767.736-2.768 1.395-5.555 2.17-8.313.034-.211.282-.61-.082-.644-.673.016-1.351.021-2.022-.027-.259-.203-.035-.593-.107-.874-.05-.232.02-.555.326-.494z"/><path d="m2.147 14.934c.735.27 1.5.513 2.186.887-.191.286-.265.628-.432.927-.714-.297-1.415-.621-2.124-.928.081-.311.231-.597.37-.886z"/><path d="m5.575 15.866c.146-.295.284-.594.447-.879.697.346 1.413.652 2.102 1.014-.141.321-.296.635-.467.941-.701-.343-1.383-.726-2.082-1.076z"/><path d="m41.525 16.044c.703-.346 1.43-.642 2.131-.992.118.291.342.584.373.884-.646.402-1.363.696-2.03 1.068-.178-.309-.346-.627-.474-.96z"/><path d="m45.349 15.86c.738-.253 1.447-.599 2.197-.809.122.286.229.577.355.861-.712.337-1.442.636-2.163.953-.135-.333-.285-.66-.389-1.005z"/><path d="m4.882 17.51c.732.263 1.484.461 2.216.723-.081.348-.206.687-.347 1.015-.729-.261-1.458-.523-2.175-.818.08-.314.177-.623.306-.92z"/><path d="m42.526 18.308c.732-.252 1.476-.487 2.223-.679.155.28.212.602.317.903-.741.249-1.464.549-2.211.777-.102-.336-.255-.659-.329-1.001z"/><path d="m.764 18.887c.054-.319.172-.622.25-.935.77.164 1.526.387 2.294.556-.083.351-.179.698-.297 1.038-.748-.222-1.505-.416-2.247-.659z"/><path d="m46.346 18.628c.765-.148 1.502-.431 2.274-.535.087.308.17.618.245.93-.752.224-1.508.433-2.263.644-.075-.349-.208-.684-.256-1.039z"/><path d="m3.88 21.173c.082-.32.098-.654.205-.967.765.138 1.543.239 2.297.425-.008.345-.146.668-.175 1.01-.785-.063-1.542-.373-2.327-.468z"/><path d="m43.23 20.706c.76-.169 1.533-.289 2.304-.404.071.312.153.625.162.947-.755.176-1.512.336-2.268.506-.087-.345-.128-.7-.198-1.049z"/><path d="m.328 21.135c.77.085 1.542.163 2.309.266-.001.348-.091.688-.121 1.034-.786-.058-1.565-.217-2.341-.344.073-.316.056-.646.153-.956z"/><path d="m46.979 21.538c.757-.141 1.536-.184 2.302-.282.063.325.148.652.139.986-.782.083-1.549.286-2.335.317.001-.344-.093-.678-.106-1.021z"/><path d="m3.639 22.958c.782.052 1.566.05 2.349.102-.004.36-.051.718-.093 1.076-.767-.051-1.532-.154-2.3-.194-.069-.329.039-.656.044-.984z"/><path d="m43.604 23.159c.794-.085 1.593-.061 2.388-.11-.011.325-.021.651.023.975-.78.086-1.565.116-2.346.209-.035-.356-.069-.715-.065-1.074z"/><path d="m12.69 23.44c.312-.191.731-.159 1.067-.056.589.244.601 1.16.015 1.418.624.232.719 1.182.172 1.547-.506.323-1.351.25-1.645-.325-.177-.456-.022-1.05.472-1.228-.556-.224-.602-1.069-.081-1.356zm.379.103c-.405.026-.603.519-.402.847.257.453 1.06.416 1.247-.082.213-.519-.377-.927-.845-.765zm.041 1.377c-.48.024-.769.587-.55 1.004.242.535 1.135.511 1.406.011.293-.55-.276-1.175-.856-1.015z"/><path d="m10.746 23.784c.225-.175.379-.498.707-.476-.009 1.061.019 2.124-.021 3.184-.079-.001-.159-.001-.238-.002-.037-.926.015-1.856-.02-2.783-.262.172-.446.433-.698.617-.159-.236.123-.396.27-.54z"/><path d="m35.319 23.399c.564-.032 1.131-.008 1.696-.007.002.076.003.151.005.228-.508.039-1.019-.015-1.526.031-.03.327-.024.657-.015.985.358-.276.874-.362 1.268-.107.528.354.533 1.142.249 1.651-.461.765-1.944.476-1.849-.511.086-.002.172-.002.259 0-.04.791 1.165.944 1.419.253.189-.507.017-1.344-.659-1.305-.438-.106-.56.512-.97.442.039-.551-.04-1.13.123-1.66z"/><path d="m39.194 23.563c.101-.151.277-.194.449-.181.003 1.058.034 2.12-.022 3.178-.08-.004-.159-.007-.237-.009-.056-.289-.031-.582-.039-.874-.543-.015-1.089.026-1.63-.031-.012-.149.004-.303.113-.415.451-.559.915-1.108 1.366-1.668zm-1.153 1.83c.437.063.885.067 1.323.017.033-.54-.018-1.081.013-1.62-.51.467-.896 1.068-1.336 1.603z"/><path d="m.02 24.372c.785.017 1.568-.024 2.352-.056.003.355.037.713-.015 1.066-.777-.015-1.562-.03-2.342-.049.001-.321-.038-.642.005-.961z"/><path d="m47.225 24.453c.778.019 1.554.051 2.331.062-.011.319.025.642-.015.959-.771.013-1.544.034-2.316.056-.003-.359-.005-.718 0-1.077z"/><path d="m22.065 25.149c-.025-.149.123-.24.256-.222 1.013.01 2.026-.042 3.039-.022.519.019 1.049.181 1.427.552.852.826.73 2.492-.427 2.985 1.453.481 1.545 2.663.382 3.494-.84.519-1.862.355-2.797.377-.558.042-1.117.025-1.676.03-.138.01-.24-.121-.234-.251 0-2.314.036-4.629.03-6.943zm1.178.731c-.118.016-.118.153-.117.246.007.566-.003 1.133.005 1.699-.022.142.153.142.252.146.714-.016 1.431.014 2.143-.054.856-.07.999-1.384.417-1.852-.836-.398-1.808-.153-2.7-.185zm-.134 3.289c.03.718-.043 1.443.034 2.158.822-.007 1.647.016 2.468-.02 1.042-.09 1.175-1.732.379-2.216-.755-.321-1.606-.122-2.403-.174-.197-.014-.496-.026-.478.252z"/><path d="m3.568 25.755c.774-.112 1.555-.161 2.335-.2.05.345.034.696.077 1.042-.788.043-1.573.114-2.362.108.001-.318-.061-.632-.05-.95z"/><path d="m43.651 25.631c.79.068 1.584.106 2.369.222-.045.325-.056.652-.054.98-.791-.073-1.584-.07-2.375-.127-.005-.36.053-.716.06-1.075z"/><path d="m.165 27.613c.768-.086 1.529-.273 2.3-.306.099.322.12.679.153 1.019-.773.104-1.553.174-2.33.248-.088-.313-.074-.641-.123-.961z"/><path d="m47.071 27.428c.784.028 1.553.22 2.329.323.009.33-.083.65-.129.975-.776-.09-1.559-.152-2.328-.286.039-.338.116-.672.128-1.012z"/><path d="m3.869 28.522c.765-.187 1.538-.331 2.302-.52.039.361.171.708.173 1.073-.756.149-1.524.235-2.279.396-.115-.304-.14-.631-.196-.949z"/><path d="m43.399 28.11c.77.151 1.547.298 2.296.525-.046.312-.108.621-.194.924-.768-.148-1.543-.248-2.307-.412.083-.343.131-.692.205-1.037z"/><path d="m.729 30.819c.742-.232 1.493-.433 2.24-.65.108.342.215.687.268 1.043-.765.175-1.521.42-2.3.513-.057-.306-.175-.596-.208-.906z"/><path d="m46.561 30.316c.762.184 1.525.401 2.264.669-.082.311-.155.625-.256.931-.764-.148-1.493-.435-2.263-.562.061-.352.185-.688.255-1.038z"/><path d="m4.54 31.215c.728-.248 1.444-.532 2.175-.771.145.322.268.657.343 1.002-.748.232-1.486.502-2.242.712-.082-.317-.256-.611-.276-.943z"/><path d="m42.48 31.504c.122-.322.213-.655.348-.973.746.225 1.468.526 2.199.8-.108.316-.194.64-.307.954-.735-.297-1.525-.435-2.24-.781z"/><path d="m5.528 33.874c.687-.37 1.383-.727 2.079-1.08.17.321.331.648.469.984-.717.308-1.417.655-2.138.952-.142-.283-.292-.562-.41-.856z"/><path d="m41.945 32.876c.695.352 1.387.711 2.073 1.082-.13.292-.288.569-.43.855-.713-.311-1.429-.622-2.119-.982.137-.329.3-.646.476-.955z"/><path d="m1.694 33.963c.726-.297 1.427-.653 2.161-.928.122.326.266.642.403.962-.717.31-1.45.607-2.202.819-.14-.275-.269-.558-.362-.853z"/><path d="m45.685 33.152c.721.31 1.446.616 2.149.959-.141.271-.207.62-.403.838-.723-.236-1.436-.526-2.148-.803.128-.333.244-.673.402-.994z"/><path d="m6.881 36.251c.586-.448 1.239-.813 1.841-1.241.256.224.396.558.616.82-.656.401-1.279.856-1.952 1.23-.179-.261-.402-.511-.505-.809z"/><path d="m40.189 35.902c.195-.284.376-.623.627-.84.592.454 1.265.81 1.84 1.284-.135.288-.365.519-.514.801-.678-.369-1.28-.863-1.953-1.245z"/><path d="m3.058 36.855c.652-.399 1.304-.831 1.993-1.153.254.205.375.572.548.857-.675.388-1.356.77-2.05 1.124-.182-.265-.323-.555-.491-.828z"/><path d="m43.905 36.673c.167-.311.34-.619.538-.911.667.402 1.344.789 1.994 1.22-.154.275-.304.553-.466.824-.715-.324-1.39-.738-2.066-1.133z"/><path d="m8.496 38.533c.528-.573 1.127-1.075 1.703-1.596.221.279.464.541.683.822-.593.507-1.188 1.012-1.8 1.495-.211-.226-.394-.478-.586-.721z"/><path d="m38.615 37.813c.244-.269.479-.546.708-.828.556.559 1.177 1.049 1.73 1.611-.193.255-.416.485-.633.72-.618-.481-1.206-.999-1.805-1.503z"/><path d="m4.815 39.594c.599-.494 1.214-.969 1.822-1.453.185.312.917.788.371 1.07-.546.355-1.045.782-1.604 1.117-.24-.197-.404-.484-.589-.734z"/><path d="m42.813 38.274c.68.383 1.23.973 1.864 1.432-.176.273-.392.518-.614.755-.622-.459-1.254-.905-1.868-1.375.194-.28.425-.532.618-.812z"/><path d="m10.392 40.526c.459-.608.998-1.172 1.488-1.763.28.2.52.448.781.671-.457.592-.99 1.135-1.517 1.666-.293-.043-.55-.369-.752-.574z"/><path d="m36.821 39.499c.28-.202.503-.532.823-.649.517.564.987 1.174 1.49 1.753-.306.149-.64.842-.957.401-.452-.502-.932-.98-1.356-1.505z"/><path d="m13.801 40.301c.291.213.603.397.9.603-.445.622-.919 1.223-1.331 1.868-.303-.127-.565-.327-.825-.524.386-.669.852-1.289 1.256-1.947z"/><path d="m34.796 40.925c.308-.172.585-.393.892-.566.439.636.849 1.291 1.262 1.943-.276.154-.527.449-.836.488-.46-.601-.898-1.232-1.318-1.865z"/><path d="m6.898 42.034c.543-.531 1.061-1.102 1.622-1.605.264.189.481.482.718.719-.551.517-1.064 1.084-1.659 1.548-.267-.172-.468-.429-.681-.662z"/><path d="m40.235 41.214c.241-.248.496-.482.741-.726.524.556 1.079 1.083 1.586 1.656-.215.233-.437.46-.678.667-.593-.487-1.089-1.077-1.649-1.597z"/><path d="m15.93 41.592c.286.174.662.27.898.479-.282.709-.694 1.375-1.061 2.047-.282-.14-.567-.275-.844-.426.305-.713.632-1.42 1.007-2.1z"/><path d="m32.616 42.083c.317-.158.634-.319.954-.471.319.714.699 1.402.982 2.132-.287.141-.574.283-.863.421-.364-.691-.75-1.373-1.073-2.082z"/><path d="m9.254 44.233c.45-.632.911-1.258 1.392-1.866.284.209.565.423.843.641-.481.61-.978 1.207-1.47 1.808-.259-.189-.527-.367-.765-.583z"/><path d="m37.982 43.091c.231-.27.558-.441.831-.666.457.636.95 1.247 1.394 1.892-.263.178-.502.424-.793.542-.5-.57-.973-1.168-1.432-1.768z"/><path d="m17.483 44.786c.198-.737.449-1.463.697-2.186.331.104.664.209.982.348-.213.728-.489 1.454-.797 2.146-.278-.03-.628-.151-.882-.308z"/><path d="m30.291 42.949c.336-.102.657-.279 1.006-.317.265.721.492 1.463.707 2.204-.295.125-.601.237-.915.299-.287-.718-.549-1.453-.798-2.186z"/><path d="m20.512 43.295c.351.09.709.149 1.063.223-.195.745-.356 1.498-.528 2.248-.327-.013-.649-.083-.966-.157.153-.769.274-1.545.431-2.314z"/><path d="m27.931 43.466c.342-.024.673-.11 1.008-.175.192.758.299 1.547.408 2.319-.319.056-.635.137-.959.152-.141-.768-.362-1.523-.457-2.296z"/><path d="m22.959 43.693c.359.001.717.056 1.077.039-.103.767-.118 1.541-.231 2.307-.32-.009-.642.018-.96-.021.019-.776.077-1.55.114-2.325z"/><path d="m25.456 43.728c.346-.018.693-.024 1.037-.069.109.773.028 1.558.116 2.334-.324.072-.657.023-.985.045-.063-.77-.16-1.537-.168-2.31z"/><path d="m11.91 46.1c.35-.702.752-1.377 1.137-2.06.301.181.626.339.906.545-.383.669-.798 1.321-1.201 1.979-.289-.139-.562-.308-.842-.464z"/><path d="m35.466 44.627c.323-.175.626-.402.982-.508.314.704.755 1.343 1.073 2.045-.271.173-.564.308-.84.47-.418-.661-.813-1.336-1.215-2.007z"/><path d="m15.658 45.411c.33.137.664.268.993.409-.338.691-.616 1.417-.974 2.094-.302-.041-.595-.241-.892-.347.294-.718.556-1.452.873-2.156z"/><path d="m32.786 45.851c.338-.133.671-.287 1.019-.391.249.732.589 1.429.816 2.169-.291.136-.592.246-.894.352-.327-.704-.622-1.423-.941-2.13z"/><path d="m18.405 46.451c.344.041.707.129 1.011.29-.174.722-.424 1.438-.624 2.158-.317-.018-.618-.129-.923-.211.109-.758.357-1.492.536-2.237z"/><path d="m30.026 46.739c.319-.15.669-.225 1.014-.288.135.76.409 1.492.508 2.258-.304.089-.609.186-.926.214-.234-.719-.379-1.46-.596-2.184z"/><path d="m21.24 47.051c.341.079.694.062 1.035.136-.028.776-.25 1.532-.322 2.306-.325-.004-.643-.082-.963-.13.074-.772.143-1.543.25-2.312z"/><path d="m27.099 47.186c.355-.088.727-.063 1.085-.139.062.774.175 1.544.246 2.317-.328.041-.654.095-.982.135-.086-.776-.23-1.542-.349-2.313z"/><path d="m24.165 47.287c.361.01.722-.011 1.083.005-.021.771-.073 1.543-.061 2.316-.327.021-.653.001-.98.014.001-.779-.014-1.558-.042-2.335z"/></svg>