<svg enable-background="new 0 0 11.99 10.378" viewBox="0 0 11.99 10.378" xmlns="http://www.w3.org/2000/svg"><path d="m5.984 0c.062.089.109.187.17.278-.129.24-.274.47-.405.709-.947 1.635-1.89 3.272-2.835 4.908-.13.208-.146.472-.067.702.073.216.041.459-.073.655-.418.721-.833 1.444-1.251 2.166-.183.314-.361.631-.546.945-.107.025-.221.003-.33.01.117-.227.256-.442.377-.668.345-.586.682-1.176 1.022-1.765.138-.247.284-.487.423-.732.1-.179.131-.396.069-.593-.051-.157-.078-.327-.04-.49.047-.211.179-.386.282-.572 1.068-1.85 2.138-3.701 3.204-5.553z"/><path d="m6.307.558c.058.091.111.185.163.278-.042.121-.128.224-.186.338-.908 1.565-1.808 3.135-2.716 4.701-.13.205-.16.466-.08.696.074.21.054.446-.049.643-.529.919-1.059 1.837-1.589 2.755-.082.135-.157.275-.24.409-.108-.011-.217-.006-.326-.004.17-.294.341-.587.508-.882.436-.739.857-1.486 1.289-2.227.088-.144.14-.312.134-.481-.008-.17-.101-.325-.092-.497-.005-.178.07-.342.159-.49.9-1.549 1.793-3.103 2.689-4.654.115-.193.224-.39.336-.585z"/><path d="m7.597 2.788c.055.098.126.191.164.296-.218.37-.428.744-.645 1.114-.319.561-.646 1.118-.967 1.677-.082.14-.126.304-.114.466.01.161.097.309.086.473.008.155-.044.306-.123.437-.567.978-1.128 1.959-1.696 2.937-.035.061-.068.122-.098.185-.113-.003-.225-.001-.338.004.028-.057.06-.111.092-.165.528-.914 1.056-1.829 1.583-2.744.118-.202.265-.408.262-.653.012-.192-.099-.366-.094-.557.01-.149.053-.296.133-.424.523-.906 1.047-1.812 1.568-2.72.064-.108.126-.217.187-.326z"/><path d="m8.888 5.023c.064.092.115.193.169.291-.11.169-.204.348-.309.521-.123.205-.158.462-.08.69.072.21.058.448-.043.646-.586 1.01-1.169 2.023-1.753 3.035-.032.054-.062.109-.09.165-.113.002-.225.002-.338.001.075-.126.149-.253.22-.382.482-.826.956-1.657 1.437-2.485.114-.206.268-.404.29-.646.013-.096-.002-.192-.024-.285-.086-.226-.085-.491.035-.706.159-.283.326-.562.486-.845z"/><path d="m9.59 6.248c.082.098.129.22.2.326.066.121.142.237.204.361-.036.219-.183.395-.283.587-.321.544-.628 1.096-.948 1.64-.226.404-.469.797-.688 1.205-.111.008-.222.005-.333.007.069-.149.16-.287.239-.431.433-.744.863-1.49 1.292-2.236.097-.166.19-.335.289-.5.118-.19.165-.43.097-.646-.032-.102-.058-.206-.069-.313z"/><path d="m10.181 7.247c.056.1.115.198.168.299-.27.443-.522.897-.783 1.346-.28.482-.562.962-.836 1.448-.004.008-.013.025-.018.033-.104 0-.208-.001-.311.005.002-.075.056-.133.089-.197.501-.867 1.003-1.734 1.501-2.602.066-.11.13-.22.19-.332z"/><path d="m10.828 8.368c.057.096.11.194.166.291-.128.203-.242.414-.363.621-.168.283-.329.571-.495.855-.046.081-.093.162-.141.242-.108-.012-.216-.005-.324-.003.379-.672.773-1.337 1.157-2.006z"/><path d="m10.91 9.342c.081-.139.159-.279.242-.416.052.098.113.191.165.29-.234.381-.447.775-.675 1.16-.106-.008-.213-.003-.319.001.008-.019.025-.058.033-.077.185-.319.369-.639.554-.958z"/><path d="m6.63 1.115c.06.091.107.19.17.279-.104.185-.212.367-.317.551-.757 1.31-1.512 2.621-2.269 3.93-.134.212-.157.482-.071.716.074.205.042.433-.058.623-.608 1.054-1.217 2.107-1.824 3.162-.106-.007-.213-.005-.32-.002.013-.034.028-.067.046-.098.587-1.017 1.174-2.034 1.761-3.052.07-.124.118-.265.114-.41.005-.171-.086-.327-.089-.498-.009-.162.042-.322.121-.462.89-1.537 1.776-3.077 2.664-4.615.024-.041.048-.083.072-.124z"/><path d="m7.92 3.344c.058.092.108.189.168.28-.065.128-.14.25-.213.374-.342.596-.685 1.19-1.029 1.784-.094.151-.169.323-.167.504-.004.182.102.345.091.528.007.163-.055.318-.137.456-.536.926-1.069 1.853-1.606 2.778-.063.108-.125.216-.184.326-.11-.006-.221 0-.331-.003.023-.043.048-.085.072-.126.594-1.032 1.192-2.062 1.785-3.095.098-.192.108-.424.036-.626-.07-.214-.049-.456.06-.653.315-.551.636-1.098.951-1.648.169-.293.338-.585.504-.879z"/><path d="m8.956 6.227c-.002-.244.137-.454.261-.652.047.102.118.193.157.298-.108.197-.135.437-.056.651.081.226.05.484-.073.69-.104.168-.195.343-.296.512-.251.428-.495.861-.745 1.289-.156.283-.331.555-.481.841-.107.171-.206.347-.306.521-.108-.01-.217-.004-.325-.005.009-.016.026-.048.034-.064.553-.957 1.108-1.912 1.657-2.871.108-.188.247-.372.256-.597.033-.212-.101-.402-.083-.613z"/><path d="m1.832 7.193c.125-.205.231-.423.37-.619.025.13.054.265.025.397-.024.181-.127.334-.216.487-.076.125-.147.253-.221.379-.393.683-.788 1.365-1.181 2.048-.097.161-.187.326-.281.489-.11-.004-.219-.003-.328.004.232-.429.487-.846.728-1.271z"/><path d="m9.921 8.819c.196-.336.388-.676.585-1.012.057.098.111.197.165.297-.445.755-.88 1.515-1.319 2.274-.109-.008-.217-.002-.326-.006l.017-.031c.292-.509.586-1.015.878-1.522z"/><path d="m6.951 1.672c.057.097.127.19.165.297-.146.246-.289.495-.43.743-.61 1.054-1.218 2.108-1.827 3.163-.122.197-.155.447-.08.667.078.218.068.47-.049.672-.556.968-1.118 1.933-1.674 2.901-.05.088-.099.178-.156.262-.105-.01-.211-.006-.316.001.032-.076.075-.145.115-.216.563-.98 1.131-1.957 1.695-2.936.115-.191.151-.43.081-.643-.051-.153-.076-.319-.035-.477.032-.169.136-.31.219-.457.644-1.121 1.295-2.237 1.936-3.359.119-.206.244-.408.356-.618z"/><path d="m6.963 2.775c.108-.18.206-.366.314-.546.055.094.105.19.166.28-.115.217-.246.425-.366.639-.521.903-1.041 1.807-1.565 2.708-.089.145-.136.318-.125.489.007.161.098.306.089.469.004.147-.04.292-.112.419-.545.944-1.087 1.889-1.635 2.831-.058.104-.119.205-.176.309-.108-.009-.222.02-.325-.015.008-.014.024-.04.032-.054.605-1.043 1.207-2.088 1.809-3.132.102-.195.115-.431.043-.638-.08-.224-.049-.479.073-.682.594-1.025 1.186-2.051 1.778-3.077z"/><path d="m8.209 3.965c.009-.016.029-.049.039-.065.054.1.11.199.166.299-.096.141-.176.292-.261.44-.239.411-.478.823-.715 1.236-.116.197-.144.441-.07.657.079.215.062.461-.048.662-.493.857-.989 1.713-1.482 2.57-.118.202-.236.405-.351.609-.109-.004-.219-.003-.328.002.027-.056.058-.11.089-.163.58-1.01 1.164-2.017 1.745-3.025.064-.114.102-.242.103-.373.014-.21-.11-.404-.08-.616.006-.213.13-.392.234-.57.319-.555.642-1.107.959-1.663z"/><path d="m8.566 4.462c.06.096.118.194.168.295-.222.37-.437.744-.651 1.118-.069.116-.098.25-.111.383-.004.161.078.308.089.467.01.154-.009.312-.086.449-.532.926-1.066 1.851-1.6 2.776-.078.142-.164.28-.242.423-.109 0-.218.003-.327-.001.103-.194.216-.382.324-.572.453-.775.897-1.555 1.347-2.331.097-.184.236-.355.261-.567.024-.136-.001-.273-.041-.402-.067-.215-.043-.456.069-.65.165-.295.342-.583.506-.878.1-.169.2-.338.294-.51z"/><path d="m11.469 9.487c.062.092.117.189.169.287-.119.191-.225.389-.338.584-.102.037-.225.004-.335.016.158-.302.338-.591.504-.887z"/><path d="m11.794 10.037c.057.114.13.219.195.328-.127.011-.255.007-.382.005.061-.112.127-.22.187-.333z"/></svg>