<svg enable-background="new 0 0 71.649 72.042" viewBox="0 0 71.649 72.042" xmlns="http://www.w3.org/2000/svg"><g clip-rule="evenodd" fill-rule="evenodd"><path d="m46.024 1.638c-.419 1.458-.916 2.878-1.392 4.324-2.316 7.038-4.976 14.132-7.356 21.223-1.896 5.651-3.897 11.272-5.864 16.949-.978 2.82-1.924 5.668-2.982 8.45-1.067 2.804-1.918 5.682-2.933 8.499-.749 2.082-1.603 4.104-2.286 6.263-.216.679-.351 1.442-.846 1.988-2.848-1.101-5.432-2.512-7.703-4.225-.744-.56-1.374-1.231-2.088-1.839-2.837-2.415-5.313-5.282-7.256-8.599-2.901-4.766-5.319-10.829-5.318-18.49 0-12.77 5.605-21.192 12.275-27.336 4.779-4.243 11.08-7.601 19.137-8.599 3.998-.496 8.715-.215 12.326.596.808.182 1.694.295 2.286.796zm-27.833 50.995c2.012 0 4.227.04 6.063-.05.596-.629.693-1.552.994-2.337.31-.809.617-1.611.895-2.435 2.24-6.675 4.559-13.256 6.908-19.931.59-1.677 1.266-3.404 1.591-5.12.905-4.772-1.112-7.465-4.175-8.847-1.779-.802-3.881-1.312-6.76-1.144-3.962.233-6.845 2.361-8.748 4.871-.586.773-1.308 1.693-1.64 2.485-.107.256-.096.546-.199.795-.345.829-1.004 1.532-1.044 2.535.504.354 1.228.237 1.889.248 1.977.035 4.283.157 6.163 0 .773-1.422 1.393-3.788 3.331-4.026 1.631-.2 3.021.906 2.634 2.485-.148.604-.736 1.092-1.293 1.491-1.65 1.186-3.962 1.756-6.014 2.386-1.322.406-2.8.944-4.125 1.491-1.29.532-2.667 1.201-3.629 1.988-2.037 1.667-2.963 5.282-3.926 8.151-.523 1.556-1.129 3.027-1.591 4.424-.687 2.074-1.555 4.569-.845 6.759.827 2.556 3.923 4.452 7.405 3.678 1.466-.325 2.741-.931 3.728-1.69.291-.224.643-.684 1.094-.547-.01.82-.606 1.312-.497 2.088.43.399 1.153.252 1.791.252z"/><path d="m30.865 71.52c-.013-.792.377-1.527.646-2.236 1.893-4.981 3.492-10.213 5.367-15.309 1.865-5.068 3.621-10.152 5.368-15.309.235-.694.355-1.495.845-2.087.321.133.351.579.398.845.667 3.722 1.395 7.567 2.087 11.283.25 1.344.349 2.734.895 3.927 2.763.133 5.8.173 8.599-.05.118-1.457-.447-2.882-.646-4.374-.505-3.793-1.297-7.306-1.987-11.034-.136-.733-.461-1.629-.398-2.187.079-.699 1.102-1.71 1.591-2.336.619-.79 1.157-1.518 1.69-2.187 2.932-3.678 5.7-7.225 8.599-10.935.552-.706 1.295-1.346 1.54-2.237-.684-.27-1.502-.145-2.286-.149-2.188-.012-4.741-.034-7.058.05-.635.382-1.051 1.028-1.491 1.59-.455.581-.833 1.219-1.292 1.79-2.258 2.806-4.542 5.65-6.81 8.499-.442.556-.776 1.26-1.441 1.591.542-2.223 1.379-4.358 2.088-6.511 2.117-6.434 4.286-12.839 6.511-19.235.113.068.188-.128.199 0 6.557 3.96 11.754 9.415 14.812 16.8 1.552 3.749 2.746 7.843 2.932 12.823.377 10.128-3.146 17.936-7.705 23.757-2.288 2.922-5.101 5.562-8.151 7.605-4.628 3.098-10.325 5.584-17.595 6.064-1.861.123-3.945.097-5.716-.1-.524-.058-1.13-.035-1.591-.348z"/><path d="m13.519 43.637c.1-2.007.872-3.647 1.441-5.368.504-1.523 1.054-3.069 2.087-3.927.748-.62 1.77-1.128 2.685-1.54.938-.423 1.953-.793 2.932-1.293.873-.445.201 1.166.1 1.441.018-.048-.396 1.201-.547 1.64-.399 1.163-.827 2.224-1.193 3.181-.703 1.84-1.344 4.772-2.634 6.113-1.249 1.3-4.246 1.939-4.871-.247z"/></g></svg>