<svg enable-background="new 0 0 84.773 65.166" viewBox="0 0 84.773 65.166" xmlns="http://www.w3.org/2000/svg"><path clip-rule="evenodd" d="m84.387 21.803c-.827-.23-.808-1.243-.997-1.836-.677-2.129-1.425-4.17-2.519-5.93-2.843-4.573-7.225-7.755-13.329-9.236-2.124-.515-5.027-.711-7.766-.524-.783.053-1.703-.014-2.204.577.16.681.825 1.049 1.312 1.417.523.395 1.02.792 1.469 1.259 3.478 3.461 6.357 7.06 8.501 11.912 2.037 4.611 3.537 10.382 2.676 17.055-.724 5.612-3.299 10.641-5.982 14.431-.706.998-1.423 1.953-2.203 2.886-.741.885-1.66 1.641-2.519 2.571-.777.842-1.594 1.641-2.624 2.466-.431.345-.888.662-1.469 1.101-.276.209-1.329.849-1.259 1.26.077.455 1.744.543 2.204.63 2.42.455 5.57.266 7.819-.105 3.242-.535 5.896-1.879 8.081-3.201 2.424-1.467 4.153-3.285 5.772-5.51 1.176-1.617 2.198-3.375 2.886-5.615.176-.573.282-1.766 1.207-1.575.703.146.307 1.257.21 2.046-.292 2.386-.818 4.653-1.101 6.927-.111.891-.135 1.646-.263 2.414-.267 1.601-.339 2.885-.525 4.828-.078.827-.106 1.838-.682 1.942-.441.079-.886-.068-1.05-.892-.272-1.368-.416-2.624-1.679-2.991-1.069-.311-2.476.226-3.254.525-4.471 1.719-9.545 3.675-15.952 3.201-1.691-.124-3.451-.359-5.038-.734-.563-.133-1.117-.431-1.627-.367-.785.097-1.638.659-2.466.944-2.458.847-5.274 1.618-8.659 1.469-3.19-.14-6.176-.612-8.711-1.521-.932-.334-1.747-.959-2.834-.892-.49.03-.99.254-1.521.367-3.58.758-8.133.773-11.859 0-1.928-.4-3.845-.956-5.72-1.784-2.005-.886-5.561-2.964-6.874-.682-.165.287-.355.787-.472 1.417-.152.817-.213 1.586-1.102 1.26-.641-.235-.743-3.479-.84-4.303-.479-4.072-.697-7.638-1.259-11.597-.099-.698-.364-1.55.105-2.099 1.104-.372 1.217.693 1.364 1.312.526 2.215 1.407 4.118 2.571 5.772 1.536 2.182 3.229 4.099 5.457 5.667 2.068 1.455 4.748 2.666 7.661 3.463 2.14.586 5.213.538 7.609.21.784-.107 1.662-.005 2.204-.524-.03-.604-.646-.812-.997-1.102-.394-.326-.758-.652-1.155-.944-.754-.628-1.506-1.258-2.204-1.942-1.902-1.795-3.578-3.729-4.985-5.982-.468-.75-.808-1.563-1.26-2.361-.884-1.561-1.578-3.226-2.204-5.09-1.197-3.565-2.171-7.742-1.837-12.646.412-6.04 2.565-11.009 4.985-15.113.23-.391.353-.84.577-1.207.544-.893 1.337-1.892 2.099-2.781 1.896-2.211 3.801-4.17 6.245-5.982.393-.292 1.239-.818 1.207-1.207-.049-.584-1.279-.723-1.994-.84-2.41-.395-5.533-.258-7.767.158-3.396.628-5.793 1.562-8.078 3.145-2.149 1.488-4.123 3.49-5.51 5.772-.998 1.642-2.127 3.562-2.624 5.825-.125.566-.169 1.865-.944 1.836-.782-.029-.455-1.407-.368-2.099.104-.813.261-1.728.368-2.414.227-1.464.214-3.924.629-4.88.366-.842 1.76-1.765 2.571-2.466 4.556-3.938 9.903-6.778 18.052-7.137 2.312-.102 4.773.224 6.822.735.738.184 1.435.476 2.046.419.755-.069 1.548-.68 2.309-.997 2.286-.953 5.119-1.747 8.133-1.89 4.733-.224 8.591 1.055 11.807 2.519.495.225 1.005.531 1.469.577.494.05 1.085-.148 1.679-.315 1.454-.407 3.636-.616 5.3-.629 7.592-.063 13.81 2.881 18.366 6.455.683.535 1.435 1.112 2.257 1.889.6.567 1.798 1.534 1.993 2.257.161.592.044 1.529.105 2.361.114 1.54.223 3.087.42 4.618.088.668.332 1.574-.261 2.047zm-35.21-18.576c-2.183-.638-5.083-1.432-7.662-1.311-2.347.109-4.42.432-6.14 1.154-.407.171-1.375.54-1.364.944.009.316.618.596.944.735 2.252.96 3.741 1.73 5.562 2.991.612.424 1.359 1.325 2.151 1.312.6-.009 1.542-.858 2.099-1.207 1.484-.93 2.759-1.746 4.25-2.466.761-.368 1.7-.487 2.151-1.207-.358-.595-1.231-.723-1.991-.945zm-20.466 4.512c-2.163 2.164-3.953 4.76-5.3 7.452-1.925 3.846-3.355 8.119-3.935 13.066-.637 5.428-.095 10.699.944 15.428 1.034 4.704 2.853 8.767 5.195 11.859.659.923 1.284 1.732 2.256 2.624.63.579 1.747 2.008 2.781 2.099.73.064 1.822-.472 2.466-.787 1.583-.775 2.747-1.446 4.198-2.414.54-.36 1.733-.983 1.732-1.574 0-.322-.464-.692-.84-1.102-1.004-1.097-1.865-2.207-2.676-3.253-2.375-3.066-4.016-6.242-5.195-10.548-.561-2.048-1.067-4.503-1.049-6.874.018-2.477.59-4.89 1.101-7.084.239-1.024.636-2.084 1.05-3.044 1.682-3.904 3.866-6.957 6.507-9.865.335-.369 1.903-1.702 1.889-2.204-.015-.517-1.313-1.396-1.784-1.784-1.545-1.272-2.617-1.962-4.303-2.938-.819-.474-1.94-1.224-2.624-1.049-.727.22-1.716 1.296-2.413 1.992zm22.459-.681c-1.56.817-2.698 1.677-4.093 2.729-.504.38-1.764 1.008-1.784 1.627-.019.59 1.141 1.383 1.627 1.889 1.766 1.839 3.196 3.959 4.408 6.14 1.654 2.976 3.173 6.502 3.516 10.548.383 4.521-.463 8.581-1.626 12.122-1.15 3.499-2.959 6.352-5.09 8.973-.921 1.161-1.836 2.079-2.938 3.096-.337.312-.903.697-.892 1.154.014.589 1.081 1.36 1.521 1.679.779.565 1.346.892 1.994 1.26 1.488.843 3.08 1.829 4.46 2.046.675.106 1.874-1.225 2.414-1.731.733-.688 1.436-1.354 2.046-2.047 1.311-1.486 2.657-2.927 3.516-4.618.322-.634.556-1.367.892-2.047.329-.664.634-1.348.892-2.046 1.552-4.194 2.834-9.434 2.834-14.903 0-4.019-.326-7.512-1.102-10.705-.665-2.735-1.671-5.378-2.677-7.661-1.197-2.718-3.059-5.223-5.195-7.242-.543-.513-1.56-1.633-2.361-1.364-.762.278-1.565.683-2.362 1.101zm-10.127 9.288c-.45.708-.86 1.335-1.207 1.941-1.692 2.952-2.518 5.714-3.148 9.341-.301 1.732-.577 3.803-.578 5.72 0 7.361 1.488 13.065 4.303 17.631.377.612.958 1.657 1.522 1.627.457-.024 1.087-1.063 1.469-1.627.468-.689.863-1.374 1.154-1.994 1.996-4.251 3.665-9.172 3.726-15.06.043-4.112-.185-7.575-1.364-11.177-.779-2.378-1.592-4.537-2.834-6.559-.382-.622-.911-1.744-1.574-1.627-.598.106-1.123 1.238-1.469 1.784zm-5.667 46.388c1.988.591 4.693 1.071 7.242.944 2.003-.1 3.858-.456 5.458-.997.459-.156 1.417-.354 1.417-.787 0-.401-1.359-.938-1.836-1.207-1.508-.85-2.53-1.399-3.883-2.204-.584-.348-1.846-1.37-2.519-.997-1.833 1.017-3.753 2.282-5.772 3.201-.669.304-1.504.5-1.889 1.154.324.568 1.099.69 1.782.893z" fill-rule="evenodd"/></svg>