<svg enable-background="new 0 0 55.333 74.134" viewBox="0 0 55.333 74.134" xmlns="http://www.w3.org/2000/svg"><path clip-rule="evenodd" d="m29.378 0c.525.065.855 1.195 1.192 2.036.938 2.347 1.928 4.472 2.881 6.656 2.623 6.013 4.989 11.731 7.549 17.781 2.526 5.969 5.054 11.725 7.699 17.682 1.291 2.908 2.507 5.896 3.824 8.841 1.27 2.837 2.437 5.824 2.731 9.934.205 2.86.009 6.343-.646 8.791-.217.81-.449 1.994-.893 2.235-.609.331-2.148.1-3.13.1-2.377 0-4.08-.05-6.308-.05-1.052 0-2.103.117-3.029-.149-.036-.697.478-1.227.744-1.788.839-1.762 1.439-3.779 1.49-6.357.065-3.287-.887-6.101-2.186-8.294-2.353-3.972-6.944-7.666-13.311-7.6-6.477.068-10.858 3.357-13.46 7.5-1.289 2.052-2.434 4.921-2.434 8.046 0 2.64.442 4.746 1.241 6.606.242.564.723 1.103.695 1.788-.888.353-2.018.198-3.129.198-2.308.001-4.146.11-6.507 0-.811-.038-2.487.203-3.029-.149-.438-.284-.68-1.594-.845-2.434-.518-2.627-.68-6.29-.348-9.04.474-3.93 1.786-7.065 3.179-9.834 2.959-5.886 5.64-11.85 8.593-17.483 1.444-2.757 2.88-5.87 4.271-8.792 1.219-2.56 2.54-5.083 3.774-7.649.181-.375.282-.755.447-1.142.623-1.456 1.472-2.864 2.185-4.371 1.381-2.914 2.942-5.635 4.321-8.692.318-.707.735-1.464 1.093-2.185.379-.767.808-1.575 1.191-2.086.043-.046.096-.075.155-.099zm2.483 35.711c-.651-1.483-1.364-2.889-2.036-4.42-.241-.55-.674-2.371-1.341-1.987-.44.419-.759 1.421-1.094 2.086-.75 1.493-1.469 2.744-2.135 4.172-.336.718-.869 1.386-.894 2.186.769.405 1.733.063 2.682 0 1.975-.129 4.064.425 5.662.249-.005-.78-.495-1.491-.844-2.286z" fill-rule="evenodd"/></svg>