<svg enable-background="new 0 0 37.315 37.512" viewBox="0 0 37.315 37.512" xmlns="http://www.w3.org/2000/svg"><path d="m17.923.035c6.054-.398 12.135 2.637 15.667 7.534-3.54 2.764-7.199 5.38-10.81 8.056-1.653-5.184-3.291-10.378-4.857-15.59z"/><path d="m.063 17.196c.511-7.62 6.242-14.56 13.624-16.486-3.4 9.579-6.787 19.163-10.326 28.69-2.561-3.469-3.644-7.93-3.298-12.204z"/><path d="m8.529 26.148c2.486-6.734 4.691-13.579 7.291-20.268 1.254 4.033 2.559 8.05 3.771 12.096-3.694 2.715-7.325 5.521-11.062 8.172z"/><path d="m23.971 19.38c3.874-2.837 7.685-5.76 11.57-8.578 1.514 3.123 2.023 6.674 1.664 10.111-.642 5.496-3.808 10.727-8.519 13.669-1.561-5.071-3.234-10.108-4.715-15.202z"/><path d="m6.287 32.443c4.838-3.564 9.641-7.178 14.508-10.704 1.421 4.875 3.116 9.676 4.475 14.565-6.375 2.494-14.055 1.05-19.061-3.627-.032-.09-.008-.188.078-.234z"/></svg>