<svg enable-background="new 0 0 76.271 69.737" viewBox="0 0 76.271 69.737" xmlns="http://www.w3.org/2000/svg"><g clip-rule="evenodd" fill-rule="evenodd"><path d="m76.152.328c.159 2.331.159 5.323 0 7.653-15.417.243-31.579-.071-46.734-.047-.472.474-.642 1.169-.861 1.77-3.479 9.565-6.807 19.329-10.237 28.987-2.742 7.724-5.335 15.485-8.179 23.2-.468 1.268-.952 2.546-1.387 3.827-.434 1.275-.787 2.593-1.435 3.779-2.358.03-5.018.108-7.319-.145.003-.792.414-1.481.67-2.2 1.764-4.967 3.605-10.071 5.31-15.164.494-1.477.929-2.976 1.435-4.449 1.472-4.284 2.998-8.661 4.592-12.963 1.063-2.869 1.999-5.794 3.061-8.658 2.127-5.729 3.997-11.55 6.123-17.316.792-2.148 1.531-4.323 2.296-6.505.246-.701.375-1.468.861-2.057 8.521-.131 17.525.096 26.069.096 4.313 0 8.625-.08 12.867.048 4.334.131 8.63-.209 12.868.144z"/><path d="m52.761 9.704c.214 6.956-.102 14.588.096 21.477.84.258 1.744.144 2.631.144 6.165 0 12.646.007 18.894.143.218 2.2.132 5.078 0 7.558-7.076.317-14.51-.124-21.478.144-.257.799-.144 1.69-.144 2.535 0 4.372-.048 8.824-.047 13.298 0 1.763.115 3.514-.144 5.166-2.324.145-5.119.196-7.414 0-.147-3.758-.013-7.895.048-11.671.012-.755-.112-1.527-.096-2.296.034-1.619.038-3.223 0-4.784-.018-.764.164-1.543-.096-2.248-6.719-.316-14.074-.016-20.856-.287-.167-2.464-.128-5.296.048-7.558.778-.212 1.646-.096 2.487-.096 6.22 0 12.205.099 18.32 0 .266-.823.144-1.719.144-2.583 0-5.34.048-10.602.048-16.407 0-.873-.114-1.797.144-2.631 2.392.024 5.061-.114 7.415.096z"/><path d="m75.96 62.082c.159 2.299.159 5.259 0 7.558-8.804.187-18.059.047-27.122.048-1.233 0-2.503.087-3.683-.191-.143-2.284-.2-5.299.048-7.51.113-.04.125-.096.239-.096 7.72-.001 15.739.11 22.96.048 2.559-.023 5.088.026 7.558.143z"/></g></svg>