<svg enable-background="new 0 0 18.896 8.5" viewBox="0 0 18.896 8.5" xmlns="http://www.w3.org/2000/svg"><path d="m13.555.145c.609-.174 1.26-.181 1.882-.075.772.147 1.5.513 2.085 1.038 1.018.924 1.54 2.37 1.329 3.731-.116.789-.455 1.546-.978 2.148-.155.158-.31.314-.468.469-.878.731-2.052 1.11-3.191.982-.991-.095-1.931-.565-2.63-1.268-.271-.304-.525-.628-.707-.995-.72-1.446-1.444-2.889-2.156-4.339-.257-.51-.5-1.024-.761-1.53 1.191-.007 2.381-.005 3.572-.001.383.809.788 1.608 1.172 2.416.35.707.675 1.426 1.041 2.125.153.233.397.401.67.461.558.143 1.18-.265 1.279-.831.119-.503-.208-1.05-.694-1.211-.454-.165-1.017.019-1.263.44-.125.163-.119.378-.196.561.034-.536.013-1.074.019-1.61-.004-.837.006-1.674-.005-2.511z"/><path d="m1.105 1.418c.846-.933 2.127-1.455 3.385-1.37 1.451.062 2.831.943 3.505 2.228.661 1.328 1.326 2.654 1.982 3.984.319.644.629 1.292.958 1.931-1.196-.018-2.393.004-3.589-.011-.255-.568-.533-1.127-.812-1.683-.401-.818-.782-1.647-1.19-2.461-.11-.208-.19-.444-.377-.599-.246-.22-.594-.316-.918-.254-.325.063-.623.279-.765.581-.143.293-.141.653.009.944.167.328.511.555.877.585.36.026.73-.144.942-.438.14-.174.179-.397.225-.608.015.646 0 1.293.005 1.939-.004.725.006 1.449-.005 2.173-1.069.284-2.247.136-3.203-.423-1.105-.608-1.886-1.752-2.078-2.995-.212-1.252.187-2.592 1.049-3.523z"/></svg>