<svg enable-background="new 0 0 70.816 70.221" viewBox="0 0 70.816 70.221" xmlns="http://www.w3.org/2000/svg"><g clip-rule="evenodd" fill-rule="evenodd"><path d="m70.674 69.886c-.044.022-.088.044-.099.099-2.354.199-4.745.099-7.158.099-15.23.002-31.441.05-46.945.05-1.245 0-2.862.227-3.949-.05-.633-.16-1.222-.976-1.678-1.432-.571-.57-1.144-.957-1.629-1.48-2.357-2.343-4.427-4.675-6.861-7.108-.339-.339-.837-.673-1.234-1.086-.342-.356-.912-1.064-.988-1.432-.205-1.002-.049-2.344-.049-3.604 0-8.341-.05-16.729-.05-24.929 0-9.973-.104-19.465.05-28.681.943-.297 1.956-.15 2.961-.148 5.219.015 10.384-.1 15.55-.099 11.824.002 23.799-.002 35.246 0 1.382 0 3.095-.222 4.196.05.559.138 1.146.967 1.679 1.48 3.205 3.097 6.353 6.255 9.527 9.429.446.446 1.425 1.26 1.481 1.777.257 2.356-.116 4.827 0 7.256.116 2.424 0 4.815 0 7.158-.001 14.037.163 28.657-.05 42.651zm-51.782-68.616c-.186.368-.149 1.452-.149 2.32 0 2.481.034 5.108.149 7.504.075 1.584.04 3.24 0 4.788-.041 1.561.106 3.337.099 4.887-.007 1.507-.076 3.105-.148 4.689-.076 1.656.178 3.312.148 4.838-.055 2.755 0 5.843 0 8.688 0 2.646.062 5.259.049 7.849-.016 3.425.155 6.812-.148 10.12-1.306.324-2.771.246-4.246.246-3.62.001-7.566.149-11.206.148-.693 0-1.518-.183-2.073.247.256.694 1.169.422 1.827.395 2.382-.101 4.8.024 6.812-.148 2.896-.248 6.055.074 9.132-.099.497.219 1.11.949 1.629 1.432.556.518 1.058.979 1.48 1.432 2.42 2.595 4.703 5.01 7.108 7.454.443.45.937 1.26 1.728 1.136.087-.765-.752-1.024-1.086-1.531-.504-.417-.869-.974-1.382-1.382-2.27-2.288-4.445-4.671-6.812-6.861-.345-.513-1.112-.86-1.136-1.53.305-.334.821-.179 1.234-.197 2.664-.122 5.785-.094 8.589-.148.394-.008.971.092 1.135-.346-.256-.417-.874-.246-1.284-.246-2.435-.001-5.222-.036-7.553.049-1 .037-2.066.227-2.912-.148-.1-2.174-.391-4.313-.247-6.516.204-3.118-.049-6.443-.049-9.676 0-.405-.14-.948.197-1.283.651.209 1.042.795 1.481 1.234.461.46.96.885 1.333 1.432 1.899 1.787 3.649 3.723 5.529 5.528.387.499.935.881 1.382 1.383.404.452.746 1.211 1.481 1.185.207-.388-.195-.628-.395-.84-2.871-3.044-5.821-6.118-8.738-9.033-.438-.438-1.082-.808-1.185-1.48.899-.324 1.873-.198 2.814-.198 7.179 0 13.907-.083 20.684-.099 3.337-.007 6.859.12 10.07 0 1.172-.044 2.368-.116 3.258.197.212 3.161.297 6.723.148 10.12-.027.616-.22 1.537.395 1.876.472-.389.196-1.347.197-1.925.005-2.398 0-5.019 0-7.455 0-.596-.173-1.314.247-1.776.701.204.972.838 1.53 1.185 1.491 1.273 2.76 2.769 4.295 3.998.83.997 1.841 1.812 2.764 2.715.384.502.935.903 1.382 1.383.423.453.788 1.16 1.481 1.184.006-.765-.744-1.188-1.185-1.629-2.983-2.985-5.993-5.681-8.984-8.737-.434-.443-1.285-1.007-1.431-1.53-.149-.533-.019-1.296 0-2.073.053-2.225-.044-4.516-.049-6.517-.006-2.462-.22-4.744-.099-7.306.026-.55-.104-1.217.247-1.679.664.172 1.008.802 1.481 1.234 2.382 2.18 4.638 4.485 6.911 6.714.451.441.886.916 1.333 1.382.216.226.548.369.79.593.222.205.389.684.79.493.054-.797-.85-1.057-1.185-1.629-1.519-1.427-3.026-2.864-4.492-4.344-1.489-1.556-2.862-2.885-4.443-4.344-.499-.461-1.231-1.046-1.382-1.58-.168-.594-.049-1.538-.049-2.37 0-4.697-.155-9.117.049-13.771.021-.455.173-1.217-.395-1.432-.417.354-.272 1.002-.247 1.529.029.605 0 1.256 0 1.876 0 1.226.157 2.496.148 3.603-.021 2.759-.049 4.824-.049 7.701 0 .949.035 2.556-.346 2.765-9.845.16-20.193.134-29.915-.099-2.539-.06-5.08.183-7.553.049-.695-.917-.343-3.091-.346-4.442-.008-3.848-.049-7.677-.049-11.848 0-.415.156-1.764-.444-1.48-.068.026-.117.076-.144.146zm16.438 50.105c-.917-.001-1.975-.154-2.715 0-.804.167-.44 1.727-.444 2.517-.006 1.174-.186 2.126.099 2.666 1.319.353 2.743.197 4.146.197 5.564.001 11.344.104 16.883-.049 1.35-.038 2.725.084 3.999-.197.27-.733.126-1.708.148-2.617.02-.858.178-1.786-.148-2.419-6.989-.103-14.587-.097-21.968-.098zm29.125 0c-1.955-.001-3.922-.195-5.529 0-.817.099-.537 1.792-.543 2.566-.009 1.267.024 2.065.049 2.962 1.51 1.813 3.275 3.373 4.937 5.035s3.373 3.274 5.035 4.937c.539.353.866 1.167 1.58 1.184.101-3.988.226-8.469.049-12.489-.062-1.399.165-2.808-.148-4.098-1.586-.177-3.508-.097-5.43-.097zm3.06 15.993c-.502-.469-.95-.999-1.432-1.48-2.421-2.422-4.819-4.722-7.306-7.208-.466-.465-1.093-1.115-1.826-1.085-1.958.08-4.16.099-6.269.099-5.052-.002-10.179.001-15.402 0-.984 0-2.05-.142-3.011.197-.277.842-.138 1.774-.099 2.715.077 1.846-.049 3.725-.049 5.578 0 .917-.101 1.875.197 2.666 1.454.28 2.977.131 4.492.147 4.448.049 9.125.049 13.772.05 6.231.001 12.487.083 18.265-.148-.174-.703-.851-1.082-1.332-1.531z"/><path d="m57.445 19.634c.42 2.332.063 4.932.148 7.453.022.672-.004 1.354 0 2.074.002.407.144 1.016.148 1.481.01 1.011-.039 2.288-.049 3.603-.007.922.088 3.076-.247 3.455-.472.535-3.613.247-4.64.247-4.962.001-9.391.049-14.266.05-5.771.001-11.055-.171-16.537.049-.751.03-1.571.093-2.271-.148-.227-.675-.148-1.449-.148-2.171 0-3.981-.071-7.641-.049-11.552.008-1.515-.188-3.045.099-4.492 1.063-.346 2.236-.197 3.357-.197 1.18-.001 2.372.047 3.554 0 4.503-.181 8.598-.006 12.983-.05 4.024-.04 8.078.051 12.094.05 1.002-.001 2.018-.014 3.011 0 .94.012 1.923-.246 2.813.148z"/></g></svg>