<svg enable-background="new 0 0 78.48 83.534" viewBox="0 0 78.48 83.534" xmlns="http://www.w3.org/2000/svg"><g clip-rule="evenodd" fill-rule="evenodd"><path d="m40.874.129c.774 2.752 1.243 5.623 1.781 8.462 1.339 7.062 2.724 14.185 4.206 21.277.295 1.409.61 2.858.693 4.305-4.682.295-9.961.121-14.746.049-.475-1.197-.752-2.58-1.039-3.958-.285-1.369-.562-2.773-.99-4.009-.497.443-.493 1.228-.643 1.881-.447 1.941-.911 4.2-1.484 6.086-1.992.085-4.089.189-6.136.1-2.001-.089-4.052.126-5.889-.149.115-1.45.461-2.886.742-4.305 1.393-7.027 2.844-14.159 4.255-21.277.562-2.835 1.075-5.652 1.782-8.412 5.345-.27 11.916-.19 17.468-.05z"/><path d="m35.283 35.409c.425.818.503 1.782.693 2.673.581 2.729 1.118 5.501 1.682 8.263.758 3.707 1.506 7.42 2.128 11.184-1.522.254-3.119.099-4.75.099-9.962.003-20.111.049-30.184.05-1.639 0-3.269.119-4.85-.148-.024-.946.212-1.903.396-2.82.547-2.728 1.095-5.528 1.633-8.313.711-3.685 1.402-7.381 2.276-10.936 2.844-.09 5.964-.05 8.956-.05.966 0 1.961-.119 2.821.149-.818 5.599-2.18 11.082-3.019 16.824.691.346 1.615.198 2.474.198h5.344c.889 0 1.784.117 2.524-.148-.062-1.435-.429-2.852-.693-4.256-.268-1.426-.519-2.839-.791-4.255-.542-2.82-1.234-5.603-1.584-8.412.935-.296 1.942-.127 2.969-.1.994.027 2.073-.049 3.117-.049 3.051-.002 6.03-.056 8.858.047z"/><path d="m46.614 41.595c.429-.303.446-.919.594-1.435.417-1.456.722-3.342 1.336-4.701.27-.069.84-.106 1.039.05-.251 2.141-1.22 3.991-1.583 6.184.747.458 2.633.247 3.612.149.403-1.749-.074-4.451.247-6.333 1.574-.08 3.83-.426 4.75.495.791.79.441 2.379-.395 2.969.245.403.618.446.841.792 1.157 1.789-.559 3.062-2.226 3.166-2.767.173-6.867-.056-9.154-.099-.524-.366-.422-1.359-.94-1.731-.976-.084-2.29-.081-3.266 0-.478.395-.468 1.28-.891 1.731-.298.092-.826.182-1.039-.05.454-1.663 1.394-3.751 2.177-5.641.378-.912.607-2.343 2.079-1.633.611.889.951 2.01 1.385 3.067.432 1.056.829 2.145 1.434 3.02zm9.005-3.513c.904-1.414-1.328-2.156-2.573-1.534-.081.523-.081 1.357 0 1.88.761.392 2.218.209 2.573-.346zm-12.469-1.188c-.033 0-.066 0-.099 0-.556.814-.987 2.012-1.138 3.067.51.236 1.865.236 2.375 0-.21-1.191-.651-2.152-1.138-3.067zm12.618 4.652c.942-1.451-.653-2.368-2.425-2.029-.604.226-.296 1.609-.297 2.276.711.389 2.194.168 2.722-.247z"/><path d="m66.357 35.557v.594c-.396.462-1.754-.038-2.227.347-.29 1.871.091 4.413-.198 6.284-.25.2-.891.199-1.138 0-.146-1.965.047-4.27-.099-6.234-.299-.269-1.161-.248-1.583-.099-.573.891-.771 2.062-1.088 3.166-.316 1.099-.623 2.21-.99 3.217-.228.116-.874.181-1.088 0 .094-1.264.598-2.493.94-3.711.349-1.241.653-2.485 1.138-3.612.911-.138 1.948-.132 2.969-.149 1.12-.018 2.443-.132 3.364.197z"/><path d="m75.116 37.982c1.204-.597 1.054-3.065 3.118-2.474-.366 1-1.055 1.658-1.683 2.573-.183.267-.492.65-.495.891-.006.494 1.017 1.56 1.287 1.93.49.673.993 1.215 1.138 1.93-.243.137-.665.093-1.039.099-1.012-.735-1.356-2.14-2.375-2.87-.974.692-1.279 2.053-2.177 2.821-.309.066-.951.113-1.188-.05.198-.691.714-1.289 1.188-1.93.36-.487 1.231-1.325 1.237-1.881.005-.473-.609-1.011-.89-1.385-.366-.486-.584-.908-.99-1.237-.997-.053-2.398-.137-3.315.05-.388.438-.584 1.326-.594 1.979.729.409 2.386-.109 3.117.297.044.324-.091.47-.148.693-.82.335-2.293.016-3.266.197-.438.475-.636 1.436-.693 2.128.733.521 2.602-.095 3.415.347.038.385-.081.611-.248.792-1.432.027-3.429.197-4.701-.1.098-1.163.556-2.401.94-3.711.156-.531.347-1.146.544-1.831.154-.537.345-1.491.643-1.731.036-.047.09-.075.148-.1h4.899c.909.658 1.228 1.906 2.128 2.573z"/><path d="m57.054 83.357c-4.658.197-9.909.1-14.696.05-.51-1.552-.798-3.212-1.138-4.849-.68-3.272-1.377-6.587-2.079-9.898-.342-1.618-.617-3.267-1.138-4.8-4.585-.174-10.026-.157-14.746 0-.467.69-.47 1.566-.643 2.376-.51 2.383-1.038 4.892-1.583 7.373-.724 3.292-1.246 6.662-2.128 9.797-2.825.196-5.93-.015-8.956.099-.992.038-2.036.082-2.919-.197 1.321-8.378 3.039-16.403 4.8-24.444 13.268-.183 26.808-.199 40.13 0h.099c1.597 7.033 2.991 14.286 4.503 21.426.214 1.012.501 2.033.494 3.067z"/></g></svg>