<svg enable-background="new 0 0 81.516 69.375" viewBox="0 0 81.516 69.375" xmlns="http://www.w3.org/2000/svg"><g clip-rule="evenodd" fill-rule="evenodd"><path d="m48.505.129c.246.651.099 1.39.099 2.082 0 5.135.123 10.221-.099 15.217-5.012.203-10.584.109-15.614 0-.298-.817-.105-2.233 0-3.123-.195-4.626-.171-9.301 0-14.176 4.818-.205 10.679-.135 15.614 0z"/><path d="m48.505 20.402c.296 4.843-.098 10.375.198 15.218.439-.047.527-.543.694-.843 1.222-2.194 2.455-4.517 3.718-6.791 1.075-1.938 2.138-3.857 3.222-5.8.348-.623.66-1.305 1.19-1.784 4.086-.023 7.476 1.121 10.359 2.527 2.887 1.408 5.267 3.347 7.337 5.601 3.984 4.341 7.123 10.982 6.097 19.432-.888 7.312-4.898 12.73-9.616 16.308-2.501 1.897-5.283 3.282-8.773 4.214-3.371.899-7.596 1.057-11.897.743-.291-1.246-.099-2.605-.099-3.965 0-2.741.009-5.446.049-8.08.021-1.349-.133-2.714.149-3.966 2.01-.146 3.91.023 5.651-.05 1.804-.075 3.176-.468 4.511-1.189 2.321-1.255 4.225-3.787 4.263-7.088.022-2.006-.673-3.63-1.537-4.857-.876-1.245-2.06-2.192-3.519-2.826-1.58-.687-3.4-.743-5.601-.743-2.059 0-4.224-.096-6.196.05-.324 10.734.062 21.617-.248 32.715-5.213.187-10.662.141-15.664-.049-.302-4.929.099-10.335-.199-15.317-.415.086-.518.545-.694.843-2.456 4.151-4.856 8.337-7.336 12.641-.301.522-.78 1.678-1.19 1.834-.503.19-1.864-.119-2.677-.248-4.303-.684-7.833-2.2-10.558-4.462-1.108-.919-2.336-1.7-3.272-2.726-1.82-1.996-3.552-4.392-4.808-7.188-1.55-3.446-2.462-7.911-1.884-12.739.722-6.027 3.314-10.699 6.791-14.177 3.123-3.124 6.562-5.336 11.401-6.593 3.233-.84 7.509-.793 11.698-.793 5.24 0 10.502.077 15.565.049.956-.005 1.952-.164 2.875.099zm-24.785 16.011c-2.538.162-4.45 1.302-5.8 2.775-1.39 1.518-2.375 3.674-2.131 6.444.153 1.737.966 3.17 1.834 4.263.92 1.159 2.053 1.992 3.519 2.578 1.576.629 3.382.645 5.453.645 1.947 0 4.007.082 5.998-.1.162-4.101.149-8.446.149-12.441 0-1.382.11-2.791-.149-4.064-2.847-.042-5.947-.287-8.873-.1z"/></g></svg>