<svg enable-background="new 0 0 77.646 73.217" viewBox="0 0 77.646 73.217" xmlns="http://www.w3.org/2000/svg"><g clip-rule="evenodd" fill-rule="evenodd"><path d="m17.898 59.095c.1.799.808 1.437 1.302 2.027.525.626 1.108 1.21 1.641 1.785 4.232 3.924 9.119 7.015 15.97 8.443 1.084.226 2.274.479 3.474.579 1.235.102 2.539.32 3.812.145 1.101-.152 2.222-.475 3.281-.82 1.036-.339 2.071-.649 2.991-1.062.925-.415 1.726-.993 2.605-1.447.901-.466 1.653-1.072 2.413-1.641 6.149-4.602 11.068-10.606 13.413-19.058 1.191-4.294 1.412-9.572.531-14.571-1.604-9.104-5.875-15.799-11.387-21.085-3.781-3.185-8.002-5.662-13.413-7.141-5.482-1.498-12.623-1.47-18.286-.097-2.759.669-5.141 1.647-7.479 2.799-1.092.538-2.209 1.206-3.185 1.93-.948.704-1.954 1.545-2.702 2.412-1.576 1.828-3.353 3.486-4.728 5.549-.678 1.017-1.271 2.108-1.978 3.137-.716 1.04-1.145 2.227-1.833 3.28-.455.697-1.312 1.111-2.123 1.641-.585.382-1.315 1.191-2.075.579-.386-.564.105-1.062.386-1.447 1.443-1.976 2.687-4.259 4.246-6.176.622-.765 1.3-1.448 1.978-2.172 1.976-2.107 4.283-4.126 6.562-5.982 1.525-1.242 3.278-2.272 4.97-3.377.854-.559 1.816-.972 2.605-1.544 1.633-1.187 3.647-1.945 5.548-2.799 1.946-.873 4.044-1.565 6.273-2.074 2.257-.517 4.661-.709 7.43-.869 3.611-.209 7.678.444 10.518 1.255 6.11 1.742 11.198 4.333 15.15 8.202 1.909 1.869 3.889 4.042 5.355 6.32 3.102 4.815 5.282 10.186 6.272 17.08.263 1.829.239 3.743.145 5.597-.375 7.32-2.551 12.977-5.597 17.707-.761 1.182-1.571 2.299-2.412 3.426-1.678 2.246-3.667 4.104-5.838 5.838-2.244 1.791-4.534 3.228-7.286 4.391-1.378.583-2.816 1.007-4.342 1.496-1.524.488-3.261.646-4.921.916-3.469.567-7.033 1.171-10.615.869-3.604-.304-6.657-.924-9.505-2.172-5.421-2.375-9.738-5.541-13.317-9.987-.974-1.417-1.79-2.942-2.557-4.486-2.256-4.543-4.27-10.202-3.86-17.177.26-4.418 1.375-7.952 2.992-11.097.816-1.589 1.658-3.084 2.605-4.44.91-1.303 2.268-2.402 3.474-3.521 2.28-2.119 5.454-3.994 8.83-5.26 1.733-.649 3.472-1.25 5.211-1.833 1.806-.606 3.689-1.029 5.741-1.303 4.436-.592 8.843-.443 12.641.676 1.726.508 3.317 1.321 4.873 2.171 4.522 2.467 8.184 5.882 10.566 10.518 1.584 3.08 2.811 6.684 3.04 11.049.115 2.195-.195 4.459-.579 6.466-.738 3.854-2.294 7.09-4.294 9.794-3.008 4.065-6.64 7.39-11.483 9.602-1.589.726-3.404 1.281-5.355 1.688-1.944.406-4.043.56-6.127.868-4.381.649-8.907.431-12.497-.724-.91-.292-1.803-.548-2.605-.916-.78-.358-1.495-.866-2.268-1.255-1.198-.602-2.145-1.28-3.136-2.122-.288-.246-.622-.613-1.061-.58zm16.259-44.919c-3.223-.352-6.56.723-9.022 1.448-1.897 1-3.536 2.422-5.018 3.811-.492.461-1.106.966-1.254 1.641.383.134.623-.258.868-.434 1.926-1.39 4.079-2.554 6.417-3.474 2.354-.927 5.055-1.601 7.479-2.364.312-.099.809-.1.965-.482-.075-.213-.245-.125-.435-.146zm.434 44.051c1.556.812 3.235 1.329 5.115 1.737.759.165 1.608.384 2.364.386 1.326.004 3.017-.731 4.198-1.206 3.835-1.541 6.862-4.202 8.926-7.285 2.806-4.19 4.962-10.321 3.571-17.129-.875-4.276-2.947-7.962-5.5-10.711-.882-.95-1.681-1.915-2.702-2.75-2.008-1.642-4.239-2.88-6.948-3.859-3.44-1.245-8.721-1.858-12.931-1.014-1.032.207-2.075.428-2.943.82-.751.34-1.545.989-2.316 1.544-5.159 3.71-9.147 9.304-9.939 17.128-.499 4.936.354 9.448 1.978 13.124 1.586 3.589 3.633 6.535 6.465 9.022 1.787 1.476 3.843 2.835 6.321 4.004.573.271 1.202.467 1.833.725 1.263.514 2.533.835 4.053 1.109.79.142 1.567.363 2.268.338 1.015-.038 2.069-.373 3.088-.628 2.507-.625 4.67-1.615 6.61-2.75.363-.212.863-.44 1.013-.868-.8-.28-1.661.024-2.413.192-2.466.555-4.857.984-7.526 1.255-7.852.794-13.147-2.259-16.549-6.562-.849-1.074-1.643-2.21-2.268-3.57-.608-1.324-1.29-2.816-1.544-4.343-.289-1.735-.592-3.558-.386-5.355.193-1.688.574-3.287 1.207-4.632 1.33-2.828 2.815-4.793 4.872-6.852 1.911-1.91 4.76-3.064 7.382-4.342 1.364-.665 2.579-1.347 4.053-1.785 1.476-.439 3.145-.846 5.066-.82 2.951.039 5.493.835 7.526 1.93 2.09 1.125 3.696 2.547 5.163 4.294 1.342 1.6 2.731 3.69 3.474 5.982.771 2.379.99 5.574.387 8.396-.529 2.475-1.601 4.691-2.992 6.466-2.157 2.75-4.661 4.741-8.54 5.645-2.527.589-5.078 1.281-7.768 1.689-1.079.163-2.348.042-3.377-.049-.304-.026-.743-.18-1.014.097.038.349.464.491.723.627zm8.01-30.638c-2.08-.94-4.972-1.557-7.961-1.351-2.003.138-4.423.681-5.597 1.641-.878.718-1.493 1.799-2.171 2.75-.339.476-.59 1.039-.868 1.592-.253.504-.721 1.064-.579 1.688.678-.052 1.028-.833 1.592-1.157.72-.617 1.663-1.142 2.654-1.641.952-.479 1.932-1.091 2.991-1.351.772-.19 1.627-.122 2.557-.193.985-.076 1.871-.554 2.847-.771 1.051-.236 2.195-.389 3.232-.387 1.09.003 2.077.413 3.136.434-.323-.692-1.143-.941-1.833-1.254zm-8.444 2.751c-1.119.312-2.121 1.33-2.847 2.025-.892.854-1.588 1.776-2.219 2.702-1.202 1.763-2.426 4.57-2.316 7.527.149 3.983 2.155 6.942 4.101 9.167.319.364.563.781.869 1.062 1.05.96 2.442 1.767 3.956 2.46 1.524.698 3.424 1.284 5.356 1.062.829-.095 1.764-.584 2.557-1.013 2.339-1.266 4.338-3.113 5.693-5.163 1.808-2.733 3.352-6.922 2.413-11.579-.341-1.694-1.22-3.917-2.123-5.211-.229-.327-.786-1.102-1.303-1.158-.375-.041-.85.169-1.303.29-.44.117-.897.203-1.302.289-.733.156-1.835.67-2.606.579-.333-.039-.776-.455-1.158-.724-1.739-1.225-3.502-2.478-6.224-2.412-.515.012-1.029-.047-1.544.097z"/><path d="m47.812 44.331c.463 1.203.288 2.892-.289 3.86-.877 1.47-3.749 1.857-5.307.53-.349-.297-.406-.75-.917-.965-.596.128-.816.577-1.254.868-1.213.809-3.164 1.134-4.825.627-2.578-.785-3.096-4.195-1.254-5.886 1.776-1.631 5.414-1.278 7.189-2.991 1.226-2.801-2.998-3.645-4.776-2.412.159.66.929.711 1.061 1.398.278 2.519-3.048 2.524-3.715.82-.237-.605-.186-1.409 0-1.978 1.03-3.157 8.136-3.37 10.18-.869 1.105 1.353.724 3.989.724 6.417 0 1.299-.171 3.307.82 3.329 1.194.028.542-2.038 1.11-2.75.243-.207 1.008-.207 1.253.002zm-7.189-1.785c-.897.359-2.666 1.022-3.281 1.689-1.044 1.131-.453 2.83 1.061 2.895 2.047.086 3.634-2.269 2.799-4.584-.23-.082-.448-.052-.579 0z"/></g></svg>