<svg enable-background="new 0 0 36.583 34.692" viewBox="0 0 36.583 34.692" xmlns="http://www.w3.org/2000/svg"><path d="m12.748.041c2.54 0 5.076-.062 7.618-.034.875.053 1.724.578 2.137 1.355 4.662 11.093 9.47 22.125 14.08 33.241-2.406.027-4.815-.032-7.22.043-1.223.122-2.503-.633-2.838-1.845-1.602-3.861-3.172-7.736-4.76-11.603-2.382-.006-4.765.015-7.147.001-1.628 3.937-3.207 7.895-4.848 11.83-.359 1.02-1.453 1.752-2.538 1.644-2.411-.025-4.827.051-7.232.002 1.861-4.693 3.836-9.338 5.746-14.011.354-.749 1.103-1.304 1.918-1.436 4.405-.083 8.813-.034 13.22-.064-2.754-6.354-5.603-12.674-8.136-19.123z"/></svg>