<svg enable-background="new 0 0 49.894 78.223" viewBox="0 0 49.894 78.223" xmlns="http://www.w3.org/2000/svg"><g clip-rule="evenodd" fill-rule="evenodd"><path d="m34.897 0c.537.053 1.154 1.061 1.507 1.658 1.143 1.936 1.964 4.255 2.462 6.732.716 3.561.615 7.72-.101 11.052-.696 3.241-1.854 6.39-2.713 9.545-.433 1.591-.888 3.214-1.356 4.773-.481 1.599-.797 3.241-1.507 4.622-2.323-.528-4.44-1.174-6.782-1.809-.764-.207-1.505-.645-2.211-.653-.695-.009-1.562.361-2.311.603-2.22.714-4.387 1.484-6.732 2.01-.614-.746-.711-1.779-1.005-2.713-.864-2.75-1.892-5.496-2.612-8.439-.264-1.079-.733-2.142-1.104-3.216-1.095-3.169-1.986-6.521-2.161-10.65-.108-2.561.55-5.126 1.256-7.285.352-1.076.726-2.11 1.205-3.065.465-.924.824-1.987 1.608-2.662.554.436.652 1.321.903 2.06 2.694 7.927 5.335 16.1 7.988 24.114.731 2.206 1.374 4.407 2.11 6.632.225.679.302 1.511.904 2.01.574-.503.65-1.34.854-2.01.655-2.159 1.264-4.385 1.909-6.632 1.693-5.892 3.315-11.675 5.125-17.684.646-2.147 1.266-4.435 1.908-6.682.214-.748.444-1.675.704-2.16.029-.072.08-.123.152-.151zm-5.878 35.921c.421.111.993.27 1.558.452.434.14 1.287.465 1.657.302.345-.152.532-1.188.754-1.859 1.579-4.77 2.861-9.398 4.22-14.218.771-2.731 1.218-5.918.855-9.444-.15-1.456-.429-2.996-.855-4.421-.367-1.23-.877-3.359-1.607-3.718-.012-.129-.086.069-.201 0-1.021 2.541-1.676 5.226-2.462 7.888-1.956 6.631-3.967 13.405-5.928 19.944-.396 1.324-.857 2.683-1.005 4.069.719.586 1.826.689 3.014 1.005zm-19.292-20.497c.083.957.185 1.897.353 2.763.34 1.766.955 3.366 1.356 4.873.324 1.219.64 2.397 1.004 3.567.357 1.145.76 2.336 1.105 3.467.488 1.597 1.034 3.492 1.607 5.225.182.549.481 1.448.754 1.557.389.155 1.198-.245 1.708-.401 1.273-.392 2.087-.633 3.315-1.105.516-.198 1.292-.414 1.407-.854.096-.369-.265-1.216-.503-1.959-.219-.685-.472-1.365-.652-1.909-2.81-8.455-5.583-16.735-8.34-25.169-.202-.618-.496-1.731-.854-1.808-.013-.13-.087.068-.201 0-1.468 3.28-2.451 7.193-2.059 11.753z"/><path d="m26.407 42.703c-2.162 2.102-5.958.448-5.728-2.663.142-1.908 2.321-3.666 4.571-2.813 2.063.781 2.838 3.714 1.157 5.476zm-4.421-2.964c-.533 3.26 4.207 3.187 4.069.502-.06-1.171-1.077-2.049-2.462-1.858-.88.107-1.319.656-1.607 1.356z"/><path d="m30.828 54.66c.439-.061.602-.535.804-.805 1.473-1.955 4.061-3.684 7.787-3.416 3.421.245 6.138 2.809 7.385 5.426.689 1.447 1.218 2.949 1.809 4.622.573 1.622 1.137 3.455 1.256 5.124.233 3.255-1.117 5.646-2.813 7.134-1.796 1.575-4.481 2.616-7.536 1.81-.437-.116-.845-.224-1.255-.402-.356-.155-.712-.486-1.155-.402-.287.802.474 1.393.401 2.312-.671.512-1.576.673-2.411.954-.845.284-1.701.617-2.612.754-.649-.754-.755-1.804-1.056-2.713-1.814-5.484-3.828-11.126-5.677-16.629-.305-.907-.514-1.869-1.055-2.663-.483.194-.542.799-.653 1.206-1.415 5.151-3.014 10.451-4.421 15.675-.258.956-.563 1.914-.804 2.863-.234.926-.379 1.914-.904 2.713-.938.029-1.905-.327-2.813-.553-.912-.227-1.875-.364-2.563-.854-.161-.815.512-1.657.251-2.411-.614-.092-1.081.314-1.557.503-.501.197-1.094.401-1.658.502-2.856.512-5.862-.886-7.335-2.312-1.501-1.453-2.43-3.722-2.21-6.781.135-1.883.61-3.706 1.205-5.526 1.409-4.313 2.761-8.173 7.335-9.495.877-.254 1.924-.502 2.914-.402 2.299.233 4.628 1.461 5.878 2.813.257.277.693 1.339 1.106 1.307.618-.049.312-1.264.903-1.457.841.035 1.636.418 2.462.652.825.235 1.622.693 2.462.554.047-.816-.336-1.577-.603-2.311-.271-.748-.502-1.511-.754-2.261-.499-1.487-1.071-2.967-1.406-4.472.417-.661 1.427-.76 2.261-1.055.853-.301 1.75-.612 2.512-.804.902-.227 1.189 1.71 1.457 2.513.658 1.966 1.299 3.755 1.959 5.626.348.989.474 2.087 1.104 2.661zm2.06 1.406c-1.098 1.865-.325 5.125.201 6.933.324 1.117.696 2.227 1.155 3.366.915 2.272 2.288 4.181 3.919 5.124.712.412 1.384.669 2.311.653 2.185-.038 3.697-1.695 4.02-3.617.305-1.822-.284-3.163-.653-4.672-.456-1.859-1.145-3.935-1.809-5.426-.966-2.169-2.15-4.633-5.124-4.472-1.811.099-3.298.883-4.02 2.111zm-16.428 6.883c.257-.986.581-2.046.653-3.015.235-3.171-1.544-5.656-4.622-5.476-.815.047-1.685.313-2.261.703-1.383.936-2.295 3.334-3.064 5.426-.405 1.101-.69 2.244-.955 3.266-.29 1.119-.626 2.357-.703 3.566-.114 1.801.586 3.272 1.356 4.02.83.805 2.736 1.627 4.471.954.946-.366 1.38-1.057 2.211-1.809 1.428-1.976 2.187-4.85 2.914-7.635z"/></g></svg>