<svg enable-background="new 0 0 53.597 75.98" viewBox="0 0 53.597 75.98" xmlns="http://www.w3.org/2000/svg"><g clip-rule="evenodd" fill-rule="evenodd"><path d="m53.32 75.598c-.558.492-1.786.401-2.116 0-.247-.299-.155-1.084-.102-1.865.143-2.067-.047-4.19.051-6.25.135-2.846.072-5.758.101-8.417.029-2.718-.086-5.462-.101-8.266-.03-5.666-.062-11.276.051-16.935.026-1.361-.141-2.722-.102-4.133.074-2.674.051-5.771-.05-8.467-.049-1.293-.44-2.445-.706-3.579-1.069-4.563-3.57-7.863-6.703-10.584-.762-.662-1.652-1.191-2.57-1.764-2.542-1.587-6.093-2.864-9.98-2.923-2.589-.04-5.207.379-7.408 1.21-5.938 2.242-10.846 6.646-12.702 13.205-.272.964-.592 2.182-.756 3.579-.068.583-.015 1.356-.05 2.117-.025.536.084 1.523-.151 1.865-.325.471-1.58.518-1.966.202-.466-.382-.336-1.58-.303-2.47.247-6.599 2.482-10.863 5.695-14.415 1.937-2.14 3.933-3.774 6.451-5.04.652-.328 1.201-.761 1.865-1.008.688-.255 1.421-.415 2.167-.706 2.834-1.104 7.434-1.192 10.988-.554 3.723.668 6.301 2.099 8.921 3.88 1.232.838 2.476 1.934 3.377 2.974 1.008 1.162 2.117 2.237 2.873 3.528 1.515 2.587 2.888 5.705 3.226 9.526.518 5.857.062 12.287.151 18.497.029 2.064.002 4.131.101 6.2.099 2.073-.127 4.143-.051 6.2.113 3.017-.112 6.021-.05 9.223.059 2.979-.244 6.104-.101 9.173.047 1.007.107 2.021.15 3.024.045.979.107 2.026-.2 2.973z"/><path d="m31.596 47.827c.203-.628.671-1.421 1.361-1.411.668.009 1.426 1.457 1.714 1.915.456.727.753 1.862 1.411 2.218.558.301 1.31.174 1.562.706.238.501-.1 1.466-.201 2.117-.258 1.646-.458 2.566-.656 4.385-.084.772-.123 1.623-.604 1.865-.408.206-1.131-.05-1.562.05-.631.147-1.208 1.007-1.663 1.461-1.089 1.09-2.274 1.76-3.881 2.319-.689.24-1.602.705-2.47.705-1.685 0-2.923-.154-4.284-.504-2.947-.758-5.08-3.043-6.301-5.645-.211-.45-.521-1.144-.957-1.412-.522-.319-1.16-.032-1.613-.756.048-2.139.707-4.457 1.008-6.603.096-.68.099-1.47.706-1.814.616-.176.986.169 1.613.05.777-.148 1.136-1.064 1.713-1.562 1.442-1.242 3.067-2.292 5.494-2.57.724-.083 1.462-.091 1.815-.504.481-.563.567-2.487.756-3.427.503-2.499.688-4.575 1.21-7.107.213-1.029.236-2.984.907-3.226.612-.221 1.357.238 1.915.252 1.05.026 2.818-.632 3.68-1.16 1.774-1.087 3.428-3.51 3.176-6.401-.214-2.438-1.883-4.39-3.63-5.292-1.223-.631-2.809-.766-4.183-.655-2.152.174-4.469 1.935-5.343 3.528-.413.753-.739 1.845-.757 2.873-.011.707.466 1.591.102 2.218-.409.702-2.116.354-2.419.051-.748-.748-.266-2.235-.101-3.327.508-3.369 2.609-5.729 5.142-7.006 1.423-.717 2.829-.983 4.434-.907 1.752.083 3.004.457 4.284 1.109 2.378 1.211 4.111 3.313 4.738 6.048.744 3.248-.493 6.456-1.966 8.064-1.45 1.584-3.235 2.883-5.947 3.125-.406.036-.814-.002-1.109.151-.714.372-.791 2.232-.957 3.276-.425 2.667-.83 4.472-1.21 7.258-.116.851-.142 3.033-.807 3.377-.515.267-1.48 0-2.066 0-2.234 0-3.665.611-5.04 1.613-1.683 1.226-3.059 3.144-3.226 5.645-.319 4.777 2.884 7.633 6.401 8.619 1.162.326 2.439.235 3.528-.05 3.058-.799 5.464-2.895 6.3-6.048.565-2.131-.045-4.421-.907-5.846-.339-.561-.902-1.005-1.11-1.765z"/><path d="m6.749 66.072c1.502 1.966 3.568 3.615 5.947 4.94 1.686.938 3.585 1.915 5.947 2.217.773.099 1.597.318 2.369.353 2.73.125 5.171-.264 7.358-.907 1.997-.587 4.008-1.679 5.645-2.722.564-.36 1.1-.765 1.562-1.209.43-.413.809-1.146 1.562-1.109.549.317.229 1.072.201 1.714-.044 1.049-.053 2.368 0 3.427.046.912.433 2.391-.101 2.923-.454.454-1.524.299-1.865-.05-.692-.709.249-2.461-.554-2.974-.846-.102-1.533.447-2.117.806-1.835 1.13-4.273 1.703-6.854 2.167-3.472.624-7.61.26-10.585-.806-1.315-.473-2.636-1.171-3.881-1.865-3.47-1.935-6.873-4.944-8.619-8.467-.682-1.377-1.215-2.835-1.713-4.385-.507-1.574-.898-3.228-1.008-5.04-.227-3.753.413-7.031 1.561-9.829.273-.666.612-1.332.908-1.965.316-.68.575-1.293.957-1.865.771-1.153 1.617-2.172 2.57-3.125 3.911-3.91 9.092-6.22 16.229-6.552.512-.024 1.192-.08 1.513.353.298.403.333 1.39-.051 1.764-.477.465-3.357.306-4.133.403-3.996.499-7.121 2.05-9.678 3.881-2.489 1.784-4.645 4.435-6.048 7.51-.804 1.764-1.206 3.416-1.411 5.847-.213 2.523-.129 5.343.504 7.459.836 2.78 2.023 5.08 3.785 7.106z"/></g></svg>