<svg clip-rule="evenodd" fill-rule="evenodd" stroke-linejoin="round" stroke-miterlimit="2" viewBox="0 0 560 400" xmlns="http://www.w3.org/2000/svg"><g fill-rule="nonzero" transform="matrix(.49636 0 0 .49636 130 50)"><path d="m436.9 309.6 145.2-28.8-147.9-6.3 132.8-65.4-144.5 32.2 111.4-97.6-131.3 68.5 82.4-123-109.1 100.1 47.7-140.2-79.4 125 9.7-147.7-44.3 141.2-28.8-145.2-6.3 147.9-65.4-132.8 32.2 144.5-97.6-111.4 68.5 131.3-123-82.4 100.1 109.1-140.2-47.7 125 79.4-147.7-9.7 141.2 44.3-145.2 28.8 147.9 6.3-132.8 65.4 144.5-32.2-111.4 97.6 131.3-68.5-82.4 123 109.1-100.1-47.7 140.2 79.4-125-9.7 147.7 44.3-141.2 28.8 145.2 6.3-147.9 65.4 132.8-32.2-144.5 97.6 111.4-68.5-131.3 123 82.4-100.1-109.1 140.2 47.7-125-79.4 147.7 9.7z"/><path d="m302.2 0c-166.6 0-302.2 135.6-302.2 302.2 0 166.7 135.6 302.2 302.2 302.2 166.7 0 302.2-135.6 302.2-302.2.1-166.6-135.5-302.2-302.2-302.2zm0 593.8c-160.7 0-291.5-130.8-291.5-291.6s130.8-291.5 291.5-291.5 291.5 130.8 291.5 291.5-130.7 291.6-291.5 291.6z"/></g></svg>