<svg enable-background="new 0 0 51.374 65.38" viewBox="0 0 51.374 65.38" xmlns="http://www.w3.org/2000/svg"><path d="m14.561 2.26c4.361-1.959 9.228-2.305 13.946-2.255 4.445.243 9.108 1.134 12.687 3.962 2.731 2.128 4.407 5.564 4.341 9.031-.021 8.07-.02 16.139-.032 24.208.022 1.253-.165 2.639.566 3.737.792.558 1.876.032 2.34-.719 1.737-2.501 2.021-5.67 1.977-8.63.327.006.654.016.982.016-.005 1.491.026 2.984-.027 4.477-.095-.099-.19-.196-.283-.294-.156 2.647-1.401 5.505-3.892 6.726-5.507 2.401-13.362.619-15.683-5.405-1.091-3.992-2.921-7.891-5.905-10.824-2.773-2.792-7.32-4.668-11.048-2.74-2.874 1.605-2.955 5.839-1.02 8.206 2.028 2.471 5.289 3.171 8.162 4.18 3.708 1.108 7.63 2.258 10.503 4.992 4.021 3.75 4.456 10.025 2.752 14.987-2.665 6.921-10.783 10.242-17.795 9.313-3.683-.326-6.994-2.142-10.553-2.974-2.119-.447-4.94-.204-5.927 2.052-.216-.009-.435-.015-.652-.019 0-6.257.024-12.515.032-18.773.216-.005.432-.007.648-.01.535 2.528 1.793 4.831 2.988 7.097 2.658 4.4 6.024 8.704 10.796 10.916 2.576 1.134 5.732 1.382 8.244-.051 3.15-2.13 3.038-7.431-.157-9.499-5.446-3.564-12.471-4.057-17.494-8.38-5.313-4.444-5.901-13.485-.964-18.431 3.869-3.975 9.686-5.741 15.142-5.253 2.784.409 5.418 1.418 8.129 2.124 1.408.413 3-.547 3.376-1.947.188-2.576.083-5.165.148-7.747.067-2.972.548-6.138-.785-8.922-1.922-3.744-6.936-4.18-10.555-3.05-1.489.541-3.356 1.017-4.081 2.576.082.105.164.211.247.317 4.649-.792 8.568 4.331 7.118 8.67-.924 4.026-5.527 6.963-9.522 5.499-4.601-1.153-6.754-6.805-4.868-10.973.958-2.881 3.472-4.903 6.119-6.19z"/></svg>