<svg enable-background="new 0 0 84.19 42.629" viewBox="0 0 84.19 42.629" xmlns="http://www.w3.org/2000/svg"><g clip-rule="evenodd" fill-rule="evenodd"><path d="m46.939 4.832c1.28 1.341 2.358 2.33 3.625 3.725.306.336 1.14.868 1.143 1.291.003.387-.765.917-1.143 1.292-.911.905-1.567 1.621-2.434 2.434-1.217 1.141-2.344 2.444-3.576 3.675-.339.339-.738.788-1.192 1.242-.332.332-.986 1.093-1.292 1.093-.294 0-1.031-.833-1.341-1.143-2.522-2.521-4.718-4.767-7.301-7.351-.336-.335-1.141-.913-1.143-1.291-.002-.461.842-.974 1.143-1.292.458-.485.798-.861 1.142-1.241 2.5-2.319 4.771-4.865 7.251-7.202.509-.32 1.145.648 1.54 1.043 1.16 1.157 2.738 2.568 3.578 3.725z"/><path d="m31.194 10.842c.042-.009.046.02.049.05 3.052 2.556 5.582 5.646 8.593 8.443.36.335 1.121.914 1.142 1.242.025.388-.87 1.118-1.242 1.49-5.917 5.917-11.83 11.731-17.731 17.632-.909.909-1.73 1.921-2.781 2.632-6.318.092-12.965.084-19.222-.05-.044-.517.502-.8.794-1.093 2.246-2.245 4.476-4.624 6.755-6.904 7.117-7.117 14.22-14.315 21.506-21.457.73-.713 1.436-1.486 2.137-1.985z"/><path d="m52.8 10.941c.042-.009.047.019.05.049 1.442 1.173 2.715 2.517 4.023 3.825 6.5 6.5 13.081 13.081 19.619 19.619 2.287 2.287 4.545 4.595 6.854 6.904.308.308.74.628.844 1.092-6.205.068-13.091.196-19.47 0-1.053-.711-1.875-1.726-2.782-2.632-4.922-4.922-9.972-9.77-14.9-14.9-.441-.459-.815-1.014-1.242-1.44-.381-.382-.89-.841-1.391-1.341-.327-.327-1.242-1.093-1.242-1.44 0-.412.836-.985 1.143-1.292 1.244-1.244 2.352-2.402 3.477-3.675 1.695-1.568 3.237-3.287 5.017-4.769z"/><path d="m41.972 21.719c.616.191 1.575 1.277 2.136 1.838 1.973 1.973 3.878 4.084 5.761 6.01.439.421.841.791 1.341 1.291.293.293 1.192.972 1.192 1.391 0 .434-.983 1.133-1.242 1.391-2.632 2.632-5.035 5.134-7.699 7.798-.337.337-1.071 1.189-1.391 1.192-.349.003-1.144-.901-1.441-1.192-2.738-2.681-5.097-5.097-7.848-7.848-.315-.315-1.173-1.095-1.192-1.391-.027-.441.753-.952 1.192-1.391 3.084-3.084 5.912-5.936 9.039-8.99.039-.046.094-.075.152-.099z"/></g></svg>