<svg enable-background="new 0 0 170.291 63.725" viewBox="0 0 170.291 63.725" xmlns="http://www.w3.org/2000/svg"><path clip-rule="evenodd" d="m114.676.163c.248 4.372.089 8.745.145 13.116.054 4.357-.045 8.725 0 13.067.022 2.189.044 4.394-.048 6.581-.089 2.131.075 4.265.048 6.39-.055 4.295-.157 8.656.048 12.924 1.071.3 2.198.177 3.315.144 3.353-.099 6.85.049 10.329.049 4.666-.001 9.369 0 14.076 0 9.342-.001 18.722-.104 27.576.096.195 1.756.067 3.623.096 5.429.028 1.755.094 3.713-.143 5.381-32.144.23-64.358.045-97.142.048-1.075 0-2.261.164-3.123 0-.705-.135-1.54-1.328-2.066-1.873-1.939-2.014-3.956-3.853-5.765-5.909.687-1.041 1.693-1.934 2.594-2.835.449-.448.945-.849 1.394-1.297.433-.433.923-.88 1.153-1.441-3.638-.312-7.413-.097-11.146-.096-10.143 0-20.727-.097-31.227-.097-.981 0-2.064-.154-2.835 0-.699.14-1.383 1.191-1.874 1.682-.634.634-1.214 1.182-1.778 1.729-3.048 3.018-6.141 6.122-9.272 9.224-.319.317-1.024 1.219-1.345 1.25-.572.054-1.709-1.518-2.018-1.826-1.928-1.932-3.88-3.778-5.668-5.767.419-.696 1.063-1.256 1.633-1.826 8.559-8.56 17.217-17.076 25.847-25.702 6.784-6.783 13.678-13.823 20.562-20.706 1.935-1.935 4.088-3.877 6.053-6.005.305-.331.77-.758.913-.769.503-.038 1.85 1.562 2.21 1.922 4.18 4.18 8.241 8.24 12.395 12.395.681.681 1.303 1.478 2.162 1.97 10.451.043 21.441.146 31.996-.048.254-.643.144-1.364.144-2.065 0-4.911-.079-10.317.096-15.134 3.306-.291 7.309-.131 10.665-.001zm-62.551 19.265c-5.525 5.525-10.946 10.947-16.382 16.382-.916.916-1.989 1.713-2.594 2.883 1.211.259 2.494.143 3.747.143 3.889 0 7.811.059 11.626.049 9.58-.027 18.991.075 28.441-.145-.098-.502-.586-.786-.913-1.105-.359-.35-.664-.711-1.009-1.057-4.81-4.81-9.552-9.647-14.316-14.46-.953-.874-1.867-1.783-2.787-2.691-.923-.911-1.746-1.949-2.834-2.69-.002-.029-.007-.057-.048-.048-.967.696-1.982 1.791-2.931 2.739zm33.198 9.079c-.826.039-1.753-.138-2.45.145.309.629.806.95 1.345 1.489.263.263 1.049 1.347 1.489 1.346.224-.001.623-.432.816-.625.554-.554.955-.954 1.441-1.441.231-.23.577-.484.577-.816-.941-.229-2.103-.149-3.218-.098zm18.208 1.01c-2.512 2.432-4.962 4.957-7.447 7.351-.835.804-1.738 1.575-2.402 2.546.649 1.02 1.643 1.729 2.45 2.594 2.034 2.18 4.225 4.272 6.294 6.342.41.41.774 1.003 1.393 1.153.175-5.665.096-11.921.096-17.68 0-.814.11-1.644-.144-2.402-.032 0-.064 0-.096 0-.057.023-.109.051-.144.096zm-14.221 21.426c-.758-.812-1.536-1.632-2.354-2.449-.345-.346-1.09-1.304-1.538-.961-.877.672-1.522 1.523-2.306 2.306-.386.387-.774.786-1.153 1.153s-.925.692-1.009 1.249c2.934.158 6.531.161 9.464 0-.156-.587-.712-.877-1.104-1.298z" fill-rule="evenodd"/></svg>