<svg enable-background="new 0 0 169.678 132.381" viewBox="0 0 169.678 132.381" xmlns="http://www.w3.org/2000/svg"><path clip-rule="evenodd" d="m168.233.24c.057.521-.541.774-.865 1.057-.368.323-.666.675-1.009.961-2.105 1.882-4.134 3.841-6.293 5.669-2.718 2.584-5.528 5.073-8.311 7.591-5.427 5.175-11.029 10.174-16.574 15.23-7.025 6.248-13.851 12.686-20.851 18.976-2.779 2.498-5.481 5.084-8.263 7.639-1.376 1.264-2.835 2.451-4.084 3.844.509.91 1.33 1.564 2.018 2.306.694.746 1.421 1.462 2.162 2.162 7.808 8.354 15.728 16.639 23.829 24.741 4.046 4.047 8.055 8.132 12.011 12.299 3.91 4.119 7.934 8.232 11.915 12.347 3.981 4.116 8.027 8.154 12.011 12.299.992 1.033 1.944 2.042 2.979 3.075.3.3.818.643.769 1.153-7.726.102-15.72.058-23.396-.048-9.095-9.259-18.107-18.597-27.192-27.865-2.331-2.262-4.475-4.721-6.822-6.966-1.113-1.065-2.385-2.272-3.363-3.507-1.002-1.267-2.226-2.37-3.363-3.508-3.435-3.434-6.823-6.883-10.185-10.425-.56-.591-1.111-1.195-1.681-1.777-.553-.563-1.071-1.257-1.826-1.586-.163 7.984-.192 16.201-.192 24.598-.001 10.393.094 21.515-.144 31.708-.907.258-1.863.145-2.787.145-29.464-.003-59.046-.158-88.638-.385-.281-.231.211-.483.336-.624 1.404-1.238 2.731-2.554 4.18-3.748 4.69-4.357 9.504-8.591 14.269-12.875 6.312-5.745 12.643-11.475 18.977-17.199 4.816-4.223 9.512-8.562 14.365-12.779 4.81-4.18 9.396-8.686 14.22-12.923 1.183-1.039 2.448-2.067 3.555-3.219 1.081-1.125 2.27-2.234 3.459-3.316.787-.715 1.658-1.354 2.306-2.21.069-19.912.192-40.889.192-61.302 0-.574-.147-1.246.192-1.777 30.563.016 61.544.174 92.094.239zm-76.051 15.71c-.057.023-.109.051-.144.096-.294.107-.192 1.211-.192 1.874 0 10.313-.209 20.851.048 30.41.516-.097.85-.542 1.201-.864 1.117-1.026 2.231-2 3.314-3.026 5.136-4.659 10.257-9.402 15.374-14.125 2.557-2.359 5.185-4.66 7.735-7.014 2.239-2.066 4.524-4.166 6.774-6.149.295-.261.744-.557.769-1.01-11.511-.289-23.245-.12-34.879-.192zm-16.719 69.277c-5.817 5.121-11.508 10.367-17.295 15.518-5.351 4.818-10.705 9.634-16.046 14.461-.272.361-.901.593-.865 1.105 11.145.11 23.045.221 34.35.048.044-10.005.343-20.281.144-30.363-.004-.217.13-.689-.24-.769-.015.001-.031 0-.048 0z" fill-rule="evenodd"/></svg>