<svg enable-background="new 0 0 79.321 81.183" viewBox="0 0 79.321 81.183" xmlns="http://www.w3.org/2000/svg"><g clip-rule="evenodd" fill-rule="evenodd"><path d="m48.521.12c.175 9.047.153 18.569.152 28.008 0 1.309.124 2.639-.152 3.899-1.307-.422-2.458-1.166-3.646-1.823-3.508-1.941-7.095-3.834-10.636-5.723-4.133-2.206-8.169-4.565-12.357-6.787-.558-.296-1.172-.608-1.621-1.063.398-1.19 1.109-2.503 1.874-3.495 3.808 1.846 7.403 3.955 11.041 5.977 1.826 1.016 3.68 1.966 5.521 2.988 1.808 1.003 3.612 2.101 5.571 2.887.242-.416.186-.956.202-1.418.131-3.459 0-7.288 0-10.99.001-3.172 0-6.34 0-9.521.001-1.015-.121-2.04.152-2.988 1.173-.053 2.811-.15 3.899.049z"/><path d="m54.954 11.414c.536 7.102.265 14.749.607 22.133.047.999-.038 2.041.254 2.988 1.065-.217 1.892-.93 2.785-1.418 2.72-1.486 5.226-2.95 8.053-4.559 3.02-1.717 6.113-3.629 9.269-5.419.478-.27 1.071-.742 1.367-.709.437.049.909 1.126 1.165 1.57.182.314.939 1.385.861 1.822-.062.354-1.13.837-1.621 1.115-1.669.945-3.654 2.092-5.166 2.988-5.752 3.407-11.439 6.603-17.169 9.977-.571.337-1.137.691-1.722 1.014-.549.302-1.13.702-1.773.81-.323-.549-.231-1.248-.253-1.874-.068-1.962-.152-4.051-.152-6.078.002-8.023-.625-16.425-.506-24.311 1.13-.145 2.954-.312 4.001-.049z"/><path d="m8.967 12.681c.978.433 2.6 1.329 3.596 1.924 3.404 2.037 6.932 4.037 10.281 5.977 1.732 1.003 3.445 1.942 5.217 2.937.555.312 1.062.744 1.62 1.065 1.737.995 3.482 1.934 5.218 2.936.54.314 1.15.637 1.569 1.114-.357.593-1.067.837-1.62 1.165-1.698 1.009-3.446 2.063-5.167 3.141-4.542 2.844-9.058 5.492-13.674 8.458-1.499.963-3.436 2.093-5.166 3.14-.464.281-1.384 1.015-1.774.963-.414-.056-.873-1.096-1.164-1.57-.164-.267-1.003-1.342-.963-1.723.045-.431 2.176-1.574 2.583-1.824 5.462-3.352 10.865-6.558 16.309-9.876.886-.539 1.824-1.062 2.583-1.772-.773-.693-1.748-1.149-2.634-1.671-4.406-2.6-9.039-5.127-13.522-7.749-.891-.52-1.803-1.037-2.685-1.57-.878-.531-1.847-.948-2.583-1.672.576-1.214 1.148-2.431 1.976-3.393z"/><path d="m70.3 35.573c.044-.01.048.02.051.05.517.424.685 1.117 1.013 1.672.323.545.829 1.004.963 1.671-.743.735-1.702 1.218-2.583 1.772-4.357 2.749-8.933 5.476-13.422 8.256-1.229.761-2.698 1.656-4.052 2.482-.414.252-1.22.59-1.216.911.004.248.797.677 1.216.911 5.957 3.341 11.557 6.65 17.524 9.979.394.219.777.525 1.266.86.417.286 1.152.543 1.216.861.109.545-.578 1.377-.811 1.772-.339.578-.532 1.141-.962 1.621-.678-.064-1.216-.539-1.773-.861-1.691-.979-3.46-1.998-5.217-2.988-5.771-3.254-11.558-6.717-17.372-9.977-1.145-.642-2.349-1.22-3.394-2.025.358-.594 1.058-.846 1.621-1.165 1.71-.972 3.452-2.076 5.166-3.141 5.682-3.53 11.387-6.991 17.169-10.534 1.212-.742 2.391-1.501 3.597-2.127z"/><path d="m27.554 37.447c.343-.015.3 1.171.305 1.873.042 7.671.517 14.852.557 22.437.015 2.748.33 5.477.051 8.053-1.137.166-2.663.203-3.9.102-.303-2.058-.159-4.212-.253-6.331-.233-5.302-.375-10.571-.456-15.903-.016-1.025.062-2.063-.202-3.039-1.034.264-1.892.942-2.785 1.469-4.438 2.612-8.948 5.109-13.422 7.749-1.771 1.044-3.593 2.078-5.47 2.988-.384-.302-.68-.971-1.064-1.621-.285-.48-.954-1.304-.912-1.722.062-.615 1.164-.731 1.621-1.114 6.288-3.753 12.881-7.323 19.347-11.193 1.505-.9 3.206-1.885 4.811-2.836.591-.351 1.265-.79 1.772-.912z"/><path d="m30.745 49.147c1.036.245 2.729 1.354 3.697 1.874 7.114 3.824 14.121 7.598 21.322 11.496.534.29 1.099.605 1.773.963.53.281 1.607.729 1.672 1.063.083.438-.635 1.462-.861 1.874-.374.682-.641 1.176-1.114 1.57-6.508-3.476-13.025-6.842-19.499-10.434-.897-.498-1.743-1.18-2.786-1.367-.35.928-.202 1.969-.202 2.988.001 7.029.188 14.829-.051 21.828-1.012.27-2.859.194-3.95.051-.154-8.861-.152-17.87-.152-26.995 0-1.633-.042-3.301.051-4.761.043-.04.029-.138.1-.15z"/></g></svg>