<svg enable-background="new 0 0 61.82 77.824" viewBox="0 0 61.82 77.824" xmlns="http://www.w3.org/2000/svg"><g clip-rule="evenodd" fill-rule="evenodd"><path d="m61.646.286c.119 4.031.267 8.622.097 12.836-.056 1.374.184 2.696-.097 3.909-14.793.322-30.273-.127-44.733.097-.236 4.253-.203 9.286-.048 13.608 5.778.366 12.36-.07 18.096.338.154 5.183.171 11.004 0 16.069-5.75.215-12.309-.108-18.048.096-.255.525-.145 1.161-.145 1.737 0 4.24-.079 8.95.097 13.078 1.828.252 3.714.193 5.598.193 13.643.001 25.729.048 39.184.193.159 4.932.165 10.44 0 15.297-17.692.161-35.997.049-53.902.048-1.947 0-3.836-.048-5.839-.048-.588 0-1.233.112-1.786-.145-.18-6.449-.097-12.938-.097-19.399 0-18.706 0-36.56 0-55.784 0-.737-.108-1.541.145-2.268 6.487-.114 13.153-.195 19.592-.097 13.89.212 28.206-.063 41.886.242z"/><path d="m61.646 31.073c.155 5.152.17 10.985 0 16.069-6.316.16-13.322.161-19.688 0-.161-5.133-.161-10.937 0-16.069 6.265-.175 13.229-.153 19.688 0z"/></g></svg>