<svg enable-background="new 0 0 30.766 30.949" viewBox="0 0 30.766 30.949" xmlns="http://www.w3.org/2000/svg"><path d="m25.7 2.017c1.682-.675 3.36-1.36 5.05-2.017.04 1.912-.009 3.84.001 5.759-1.938.703-3.831 1.534-5.746 2.3.992 2.896 1.453 6.005 1.22 9.067-.161 1.955-.612 3.881-1.256 5.732 1.911.784 3.815 1.582 5.73 2.355.007 1.912.002 3.824-.01 5.736-4.172-1.677-8.33-3.39-12.482-5.117-.152-.052-.307-.096-.454-.165-5.911-2.439-11.815-4.9-17.73-7.326.004-1.96-.022-3.93-.024-5.893.146-.013.273-.092.41-.14 5.093-2.088 10.193-4.159 15.288-6.242 3.349-1.307 6.658-2.727 10.003-4.049zm-18.596 13.393c2.852 1.211 5.719 2.392 8.575 3.595 1.475.563 2.913 1.239 4.389 1.794 1.209-3.442 1.163-7.266.008-10.714-4.326 1.77-8.661 3.516-12.972 5.325z"/></svg>