<svg enable-background="new 0 0 79.241 69.197" viewBox="0 0 79.241 69.197" xmlns="http://www.w3.org/2000/svg"><g clip-rule="evenodd" fill-rule="evenodd"><path d="m79.128.22c.169 5.674.1 11.404.099 17.137 0 17.111-.032 34.664-.149 51.654-.045.021-.089.043-.1.1-5.583.127-11.684.115-17.434-.049-.271-1.186-.149-2.408-.149-3.627 0-18.348.18-37.582 0-55.578-.294-.078-.514.274-.646.447-1.158 1.525-2.282 3.254-3.427 4.867-1.304 1.838-2.597 3.703-3.874 5.562-1.287 1.875-2.516 3.795-3.825 5.662-6.457 9.221-12.959 18.643-19.47 27.814-2.958 4.326-6.006 8.553-9.04 13.014-.36.529-.995 1.641-1.49 1.738-.724.143-1.589.029-2.434 0-5.323-.186-11.919.191-17.185-.1-.06-.49.351-.889.596-1.242.264-.381.502-.771.795-1.092.476-.781.985-1.531 1.539-2.236 13.1-19.426 27.041-39.27 40.532-58.754 1.007-1.455 1.932-2.803 3.377-3.727 1.384-.883 3.451-1.586 5.513-1.738 2.207-.162 4.522 0 6.755 0h16.788c1.078 0 2.177-.113 3.229.148z"/><path d="m55.436 28.929c.348.254.198.754.198 1.092v18.775c0 6.635.105 13.66-.149 20.215-8.687.094-18.748.123-27.665-.049-.013-.537.425-.947.695-1.342 4.256-6.182 8.599-12.467 12.963-18.625 4.662-6.578 9.152-13.299 13.758-19.918.044-.071.075-.155.2-.148z"/></g></svg>