<svg enable-background="new 0 0 61.899 55.565" viewBox="0 0 61.899 55.565" xmlns="http://www.w3.org/2000/svg"><path d="m19.706.019c5.683-.014 11.368-.027 17.05 0-.021 5.719.118 11.457-.096 17.164-5.676-.018-11.354.022-17.028-.017.055-5.713.066-11.43.074-17.147z"/><path d="m38.878.034c9.144-.48 17.442 8.146 16.889 17.14-5.637.007-11.273.018-16.911-.009-.011-5.709.014-11.421.022-17.131z"/><path d="m.103 17.195c-.243-9.203 8.136-17.367 17.287-17.192.184 5.703.017 11.439.025 17.174-5.77.023-11.542.02-17.312.018z"/><path d="m.091 19.24c5.759-.103 11.545-.07 17.319-.073.024 5.72-.021 11.445-.015 17.167-5.78.017-11.653.231-17.382-.044.031-5.683-.045-11.373.078-17.05z"/><path d="m38.856 19.166c5.637-.027 11.276-.003 16.913-.007.173 5.632-.013 11.467.031 17.178-5.653.03-11.308.005-16.963-.002-.15-5.705.047-11.446.019-17.169z"/><path d="m.005 38.525c5.786-.003 11.554-.172 17.3-.039.186 5.678-.031 11.388-.032 17.076-9.09.185-17.513-7.849-17.268-17.037z"/><path d="m19.573 38.503c5.623-.105 11.378-.122 17.003-.015.454 9.091-8.014 17.289-17.071 17.069-.024-5.701.105-11.352.068-17.054z"/><path d="m38.829 38.491c5.602-.163 11.309-.035 16.951-.056-.05 5.694.157 11.498-.134 17.123-8.944.082-17.209-8.112-16.817-17.067z"/><path d="m57.744 53.387c.578-.164 1.171.009 1.762-.022-.007.063-.02.188-.027.25-.221.014-.445 0-.664.022-.069.633.017 1.272-.054 1.904-.075-.016-.226-.048-.301-.065-.022-.612.03-1.227-.01-1.838-.226-.015-.45-.008-.673-.031-.009-.054-.025-.164-.033-.22z"/><path d="m59.796 53.361c.15-.006.325-.044.46.051.16.499.309 1.002.461 1.504.451-.248.427-1.084.744-1.546.88 0 .123 1.492.36 2.136-.066-.005-.198-.015-.265-.02-.017-.455.029-.914-.037-1.366-.324.368-.36.893-.568 1.326-.093.06-.193.073-.297.038-.226-.442-.255-.979-.578-1.367-.054.454-.002.911-.015 1.367-.11.01-.217.007-.322-.01.02-.701-.064-1.429.057-2.113z"/></svg>