<svg enable-background="new 0 0 60.072 80.507" viewBox="0 0 60.072 80.507" xmlns="http://www.w3.org/2000/svg"><path clip-rule="evenodd" d="m33.761.158c.573 1.041.577 2.27.813 3.406 1.172 5.638 2.888 11.191 4.372 16.627.303 1.107.604 2.222.916 3.305.3 1.043.564 2.129 1.118 3.051.903-.25 1.084-1.222 1.729-1.729 1.791-2.011 3.878-4.156 6.61-5.39.71-.321 1.397-.632 2.186-.814 1.659-.381 3.862-.104 5.644-.151.921-.025 1.897-.192 2.746.151.269.976.152 1.997.152 3.001 0 11.377-.051 22.442-.051 33.964v9.305c0 .978.12 1.997-.153 2.948-1.017.353-2.396.204-3.711.204-1.317 0-2.689.036-3.864-.051-1.46-1.056-2.776-3.41-3.763-4.983-1.13-1.804-2.13-3.65-3.152-5.39-1.606-2.734-2.984-5.548-4.322-8.49-.437-.96-.708-2.041-1.475-2.797-.489.309-.696.926-.915 1.424-.697 1.582-1.307 3.26-1.932 4.982-.815 2.244-1.629 4.707-1.729 7.373.828.473 2.11.28 3.305.305 1.273.025 2.58-.097 3.712.102.023.045.045.091.102.102.211 1.523.102 3.165.102 4.83 0 4.763.101 10.074-.102 14.745-.649.386-2.905.305-3.966.306-1.495 0-2.812.104-3.712-.255-.298-.891-.107-1.906-.102-2.898.006-1.013-.05-2.031-.05-3.05 0-2.054.218-4.162-.102-6-.962-.487-2.46-.184-4.017-.254-.597-.027-1.29 0-2.034 0-.799 0-1.712-.171-2.034.254-.269 2.242-.102 4.987-.102 7.627 0 1.499.12 2.987-.153 4.321-1.02.347-2.455.203-3.814.203-1.348 0-2.742.12-3.762-.203-.299-.727-.174-1.557-.153-2.339.063-2.258 0-4.904 0-7.475 0-1.668-.011-3.378-.051-5.033-.04-1.68-.071-3.357.254-4.881 1.947-.433 4.984.19 6.965-.406-.152-2.553-.867-4.86-1.729-7.373-.536-1.563-1.223-3.277-1.983-4.881-.146-.308-.488-1.421-.864-1.424-.438-.003-.657 1.011-.814 1.322-.225.446-.522.925-.712 1.424-2.682 5.617-5.711 11.654-9.253 16.778-.439.635-1.072 1.841-1.678 2.034-.497.158-1.312.101-1.983.101-.715.001-1.457.03-2.085 0-1.36-.062-2.73.061-3.915-.203-.35-.931-.204-1.976-.204-2.948.005-7.252-.046-14.429-.046-21.559 0-7.231.051-14.44.051-21.608 0-.989-.116-1.997.153-2.949.989-.32 2.096-.221 3.152-.254 1.118-.035 2.265-.021 3.305 0 2.161.042 3.805.742 5.186 1.627 1.389.889 2.744 1.828 3.864 2.949 1.161 1.16 2.172 2.385 3.356 3.457.458-.243.567-.888.711-1.424 1.332-4.944 2.846-9.807 4.119-14.999.537-2.189 1.078-4.534 1.627-6.864.203-.859.356-3.046 1.068-3.203.938-.207 2.576-.051 3.711-.051 1.185 0 2.335-.077 3.458.101zm-2.695 46.269c.78-2.533 1.567-4.956 2.593-7.169.257-.556.547-1.236.864-1.881.302-.615.793-1.376.813-1.983.027-.819-.486-1.993-.763-2.898-.632-2.064-1.151-3.716-1.678-5.745-1.116-4.296-1.86-8.821-2.644-13.423-.051 0-.061-.041-.102-.051-.073.028-.124.079-.153.152-.293.869-.346 1.922-.508 2.949-.927 5.87-2.45 11.192-4.067 16.372-.261.836-.78 1.984-.712 2.694.047.484.505 1.026.763 1.576.769 1.64 1.574 3.314 2.186 4.83.81 2.009 1.433 4.049 2.135 6.051.081.23.085.66.407.763.381-.707.635-1.485.866-2.237zm-22.829-18.202c-.135.438-.128 1.361-.152 2.085-.026.759.038 1.55.051 2.186.122 5.894.004 12.664.101 18.71.005.315-.13.824.254 1.017.568-.38.803-1.114 1.119-1.729 1.971-3.839 3.885-7.594 5.441-11.796.264-.715.74-1.576.661-2.237-.04-.333-.398-.825-.661-1.271-1.281-2.175-2.673-3.741-4.373-5.44-.57-.57-1.524-1.561-2.288-1.678-.074.029-.125.079-.153.153zm43.37-.051c.031-.066-.213.006-.204 0-1.546.931-2.689 2.272-3.915 3.813-.571.717-1.066 1.3-1.678 2.186-.355.516-1.301 1.898-1.322 2.543-.019.576.427 1.429.711 2.084.302.697.574 1.415.814 1.983 1.425 3.381 2.943 6.533 4.576 9.508.331.602.561 1.334 1.169 1.678.326-6.412.085-14.336.102-21.151.002-.896.216-1.955-.203-2.644-.016 0-.033 0-.05 0z" fill-rule="evenodd"/></svg>