<svg enable-background="new 0 0 75.664 34.869" viewBox="0 0 75.664 34.869" xmlns="http://www.w3.org/2000/svg"><g clip-rule="evenodd" fill-rule="evenodd"><path d="m4.633.193c.292 7.32-.097 15.322.195 22.643 1.432.264 2.897.147 4.353.147h4.45c8.556 0 17.528.096 26.506.097 11.854.003 23.748-.06 35.407.196.163 1.831.049 3.803.049 5.771-.001 1.933.215 3.977-.098 5.77-24.715.126-50.415.012-75.361-.195-.187-8.37-.098-17.448-.099-26.164 0-2.116 0-4.133 0-6.406 0-.642-.157-1.375.196-1.956 1.332-.024 3.229-.201 4.402.097zm.39 27.484c-.502.25-.334 1.778-.147 2.25 5.299.198 10.739.146 16.236.146 16.607 0 33.491.203 49.686.049.156-.535.161-1.667 0-2.201-22.079-.241-43.539-.149-65.775-.244z"/><path d="m75.495.34c.239 4.628.147 9.851.147 14.866 0 1.662.106 3.301-.147 4.793-21.727.07-44.64.081-67.048-.196-.163-3.881-.162-8.441 0-12.323 20.882-.148 41.642.121 62.255.049.345-.472.223-1.873.098-2.494-1.244-.267-2.549-.147-3.814-.147-19.844-.006-38.941-.048-58.539-.245-.161-.425-.098-1.369-.098-2.395 0-1.014-.215-2.061.488-2.201.574-.114 1.372.015 2.104.049 2.041.097 4.277 0 6.309 0 8.387-.001 16.925.048 25.234.049 10.664 0 22.451.019 33.011.195zm-47.535 11.785c-4.621-.001-10.175-.168-14.672.049-.361.352-.204 2.361-.098 2.935 2.351.261 4.748.147 7.141.146 17.281-.005 33.824.209 50.469 0 .193-.876.188-2.146 0-2.934-14.314-.159-28.616-.193-42.84-.196z"/></g></svg>