<svg enable-background="new 0 0 21.08 35.683" viewBox="0 0 21.08 35.683" xmlns="http://www.w3.org/2000/svg"><path d="m17.96.413c.681-.239 1.4-.363 2.121-.391.331-.039.667-.017 1-.012-.424.502-.74 1.089-.953 1.707-.02.047-.003.091.049.099.01-.012.03-.036.04-.048-.177.518-.417 1.009-.687 1.483.034.001.069.006.103.009-.107.167-.189.373-.331.503-.312.557-.871.961-1.295 1.392.044.012.087.023.132.035.013-.011.04-.032.054-.042-.204.333-.566.527-.871.759-.89.513-1.911.852-2.938.856-.122.048-.25-.03-.372.028.935-2.268 2.565-4.293 4.7-5.534-.049-.013-.097-.005-.141.016-1.274.5-2.337 1.424-3.204 2.466-.135.22-.328.4-.453.628-.012.008-.025.015-.038.021-.256.387-.516.774-.739 1.182-.188.323-.361.656-.496 1.004-.015-.117-.038-.264.019-.367-.063-.036.011-.128-.023-.186.033-.222-.008-.453.028-.675-.013-.038-.017-.078.006-.113-.02-.102.054-.21.007-.306.005-.004.015-.011.021-.014.057-.839.346-1.663.853-2.342.386-.476.849-.893 1.348-1.251 0 .034.001.069.002.104.512-.359 1.006-.76 1.598-.983.106.008.203-.07.307-.092-.004.037-.008.074-.011.112.043-.006.082-.023.113-.053.015.002.033.004.051.005z"/><path d="m3.521 9.695c2.374-1.771 5.692-2.21 8.419-1.035.59.217 1.117.562 1.649.888.074-.499.002-1.015.039-1.519 1.235-.029 2.46.001 3.698.013-.063.127-.003 17.31 0 17.358-1.198.006-2.396-.003-3.593.002-.043-.002-.113 0-.111-.059-.011-.488.01-.977-.011-1.464-1.381.914-3.021 1.517-4.686 1.503-1.16.068-2.346-.131-3.434-.562-1.394-.548-2.597-1.506-3.572-2.632-1.47-1.796-2.097-4.188-1.875-6.477.128-.793.246-1.609.587-2.348.6-1.464 1.664-2.692 2.89-3.668zm3.7 2.345c-2.115.687-3.654 2.937-3.371 5.162.141 1.969 1.719 3.673 3.584 4.199.597.177 1.227.164 1.841.13 1.335-.128 2.509-.951 3.318-1.988.944-1.319 1.134-3.108.572-4.619-.351-.977-1.115-1.744-1.946-2.337-1.178-.734-2.67-.962-3.998-.547z"/><path d="m19.822 8.051c.498-.079 1.029.275 1.143.768.14.54-.233 1.174-.798 1.258-.491.117-1.005-.22-1.161-.687-.211-.573.211-1.264.816-1.339zm-.123.228c-.251.096-.431.321-.527.566-.11.442.2 1.007.7 1.045.466.06.91-.326.928-.794.014-.548-.572-1.023-1.101-.817z"/><path d="m19.63 9.038c.032-.308.344-.534.647-.505.016.075.009.152-.004.228-.209-.034-.418.129-.43.341.01.021.02.042.031.063-.025.145-.026.3.003.442-.082.009-.165.009-.247.004-.006-.191-.004-.382 0-.573z"/><path d="m.005 27.002c1.123-.005 2.25-.005 3.374.006-.026 1.761.845 3.534 2.355 4.476 2.156 1.413 5.333.894 6.881-1.184.703-.931 1.049-2.116 1.024-3.276.67-.026 1.349.006 2.019-.016.553.034 1.114-.006 1.668.031-.011.944-.109 1.902-.418 2.8-.481 1.599-1.506 3.013-2.818 4.04-2.806 2.158-6.931 2.409-9.977.604-1.725-1.023-3.066-2.677-3.698-4.583-.257-.943-.448-1.914-.41-2.898z"/></svg>