<svg enable-background="new 0 0 65.393 79.315" viewBox="0 0 65.393 79.315" xmlns="http://www.w3.org/2000/svg"><g clip-rule="evenodd" fill-rule="evenodd"><path d="m65.246.136c.172 16.67.102 33.597.099 50.472 0 2.369.121 4.723-.099 7.027-10.833.357-21.675-.088-32.658.147-5.322.114-10.784-.17-16.23 0-5.405.17-10.858.016-16.181-.049-.264-5.737-.147-11.727-.148-17.715-.001-5.968-.081-11.984.1-17.764 4.172-.224 9.013-.147 13.904-.148 4.757-.002 9.649-.187 14.102 0 4.569.19 9.597-.271 14.25-.05 1.053.05 2.35 0 3.612 0 1.19 0 2.404.042 3.267-.347 1.529-.69 2.744-2.663 1.929-4.75-.32-.822-.865-1.365-1.583-1.88-1.432-.779-4.648-.496-6.927-.495-14.175.004-28.756.138-42.555-.05-.181-3.37-.099-7.281-.1-10.886 0-1.2-.086-2.374.148-3.414 15.256-.201 31.071-.197 46.711-.198 6.2 0 12.221-.129 18.359.1zm-43.099 35.973c-1.868.001-4.618-.313-6.186.347-.752.316-1.398.947-1.732 1.534-1.126 1.983-.153 4.435 1.782 5.245.995.417 2.553.297 4.156.297 8.21 0 16.495-.052 24.493-.05 1.397.001 2.92.15 4.008-.148 1.83-.502 3.241-2.273 2.673-4.453-.387-1.482-1.37-2.285-2.475-2.623-.782-.239-2.214-.148-3.364-.148-1.329.001-2.783-.015-3.563 0-6.902.137-12.912-.002-19.792-.001z"/><path d="m65.196 64.858c.267 1.104.149 2.344.149 3.563-.001 3.587.16 7.474-.099 10.737-10.878.096-21.926.147-32.807.148-11.029 0-21.336.049-32.263-.099-.286-4.42-.166-9.851-.049-14.201 1.063-.271 2.19-.148 3.266-.149 14.615-.003 29.568-.1 44.088-.099 6.012.003 11.772-.122 17.715.1z"/></g></svg>