<svg clip-rule="evenodd" fill-rule="evenodd" stroke-linejoin="round" stroke-miterlimit="2" viewBox="0 0 560 400" xmlns="http://www.w3.org/2000/svg"><path d="m356.6 351.1h-351.6l.6 2.8c4.6 23.7 12.2 46.8 22.4 68.7l.6 1.4h368.3zm191.1-213.2c-29.271-46.164-70.689-83.396-119.7-107.6l-2-1-48.3 81.8 114.8 208 .7 1.2h99.6l.2-2.2c.5-7.2.8-14.4.8-21.4-.1-56.4-16-111.4-46.1-158.8zm-502.2 316.9 2.4 3.7c14.3 21.9 31.4 41.9 50.8 59.3l2.1 1.9 38.3-64.9zm271.1-240 170.8 309.5 2.2-1.9c18.5-15.8 34.9-33.7 49-53.4l.9-1.2-179.9-325.9zm-98.1 105.6 178.9-303-2.7-1c-22.8-8-46.6-13.1-70.8-15.3l-1.5-.1-188.5 319.4zm195.4 134.4h-239l-49.7 84.2 1.8 1.3c50 34.9 108.7 53.4 169.8 53.4 58.6 0 115.3-17.1 163.9-49.3l1.8-1.2-48-87zm-126.6-454.8-4.4.2c-25.3 1.2-50.4 5.6-74.4 13l-2.8.9 35.4 64.1zm-64.3 108.9-46.2-83.8-2 .9c-106.2 48-174.8 154.3-174.8 270.7 0 7 .3 14.2.8 21.4l.2 2.2h97.2zm75.4 136.7-44.1 74.8h85.4zm259.7 192.3 2-3.9c13.2-25.2 22.6-52.1 28.1-80.1l.5-2.8h-78.6z" fill-rule="nonzero" transform="matrix(.505221 0 0 .505221 130 50.0253)"/></svg>