<svg enable-background="new 0 0 76.082 76.944" viewBox="0 0 76.082 76.944" xmlns="http://www.w3.org/2000/svg"><path clip-rule="evenodd" d="m64.477 10.874c1.816 1.783 3.41 3.74 4.926 5.861.49.685.883 1.461 1.33 2.217 1.771 2.992 3.283 6.41 4.187 10.15.957 3.951 1.447 8.576.986 13.055-.662 6.445-2.611 11.738-5.32 16.211-.465.766-.824 1.551-1.33 2.266-4.43 6.238-10.246 11.096-18.182 14.041-1.641.609-3.566 1.219-5.615 1.527-2.078.314-4.277.789-6.404.738-4.613-.109-8.748-.605-12.465-1.871-3.52-1.199-6.861-2.699-9.607-4.731-5.527-4.086-10.139-8.832-13.205-15.42-1.482-3.188-2.74-6.848-3.35-10.986-.615-4.18-.611-9.146.297-13.254 1.715-7.767 5.166-13.892 9.803-18.82 5.49-5.57 12.43-10.019 21.975-11.478 1.414-.217 3.025-.271 4.582-.346 6.244-.293 11.471 1.371 15.963 3.154 4.572 1.815 8.216 4.815 11.429 7.686zm-29.217-5.274c-.381.416-.662 1.027-.984 1.578-.934 1.584-1.826 3.242-2.76 4.779-1.309 2.152-2.398 4.414-3.547 6.502-2.387 4.336-4.947 8.586-7.342 12.762-4.59 8.008-9.223 15.963-13.744 23.943-.307.539-.725 1.076-.789 1.725 1.092.268 2.227.146 3.35.146 12.853-.002 25.748.145 38.578.148 4.689.002 9.35.104 13.941-.049-.553-.371-1.213-.52-1.822-.738-4.516-1.639-8.635-3.418-11.873-6.258-5.779-4.43-10.508-10.391-13.105-17.982-1.289-3.764-2.338-8.377-2.119-13.352.109-2.48.238-4.861.69-7.096.439-2.168 1.053-4.17 1.725-6.059-.012-.039 0-.098-.049-.1-.002-.029-.008-.059-.049-.049-.001.067-.087.047-.101.1z" fill-rule="evenodd"/></svg>