<svg enable-background="new 0 0 83.783 73.365" viewBox="0 0 83.783 73.365" xmlns="http://www.w3.org/2000/svg"><path clip-rule="evenodd" d="m41.475.002c.04-.009.045.019.048.048.653.552 1.02 1.39 1.445 2.168 1.688 2.967 3.474 5.89 5.154 8.863 1.68 2.976 3.335 5.965 5.058 8.912 3.451 5.903 6.775 11.871 10.212 17.774 3.435 5.901 6.846 11.806 10.309 17.679 1.732 2.938 3.34 5.946 5.106 8.863 1.542 2.548 2.972 5.146 4.479 7.756.198.343.577.711.482 1.156-6.862.274-14.205.004-21.34.096-1.136-1.327-1.755-2.984-2.649-4.479-.893-1.491-1.685-3.061-2.553-4.576-1.294-2.257-2.616-4.479-3.95-6.744-.428-.727-.808-1.512-1.397-2.119-.675.569-1.012 1.428-1.444 2.167-2.611 4.454-5.243 8.991-7.805 13.584-.417.749-.788 1.556-1.396 2.168-13.792.126-27.42-.018-41.234-.193.138-.887.741-1.597 1.155-2.36 4.569-8.425 9.475-16.654 14.21-25.097.854-1.521 1.731-3.044 2.602-4.576 2.575-4.531 5.02-9.21 7.707-13.728 1.805-3.032 3.443-6.164 5.203-9.104 3.622-6.053 6.755-12.315 10.405-18.209.1.019.127-.034.193-.049zm8.814 52.361c-1.428-2.452-2.816-4.905-4.19-7.37-.904-1.622-1.811-3.288-2.794-4.913-.991-1.638-1.869-3.353-3.131-4.576-1.99-1.928-4.887-3.464-8.912-3.228-3.498.205-6.137 2.071-7.852 3.998-1.117 1.255-2.031 3.098-2.408 5.058-.914 4.759 1.447 8.566 3.805 10.742 1.258 1.161 2.862 2.123 4.914 2.553 1.991.418 4.6.444 7.081.386 3.394-.079 7.564-.048 11.127-.048 1.214 0 2.458.116 3.613-.145-.213-.895-.785-1.654-1.253-2.457z" fill-rule="evenodd"/></svg>