<svg enable-background="new 0 0 68.213 66.313" viewBox="0 0 68.213 66.313" xmlns="http://www.w3.org/2000/svg"><path clip-rule="evenodd" d="m39.693 59.425c1.478-.481 3.021-.5 4.418-.862 3.434-.892 6.264-2.413 8.734-4.469.442-.369 1.129-.899 1.168-1.422.05-.668-.75-1.758-1.117-2.438-3.749-6.933-7.486-13.774-11.273-20.566-.422-.757-.804-1.545-1.219-2.335-.405-.773-.684-1.608-1.117-2.387-1.186-2.132-2.555-4.577-3.758-6.855-.289-.548-.86-2.066-1.421-2.082-.558-.016-1.178 1.529-1.473 2.082-2.075 3.893-4.055 7.712-6.144 11.476-2.511 4.523-4.846 9.247-7.312 13.862-1.165 2.181-2.464 4.502-3.707 6.855-.356.674-1.154 1.774-1.117 2.387.035.582.803 1.132 1.219 1.473.542.443 1.124.739 1.523 1.117 2.38 1.51 5.204 2.789 8.48 3.452 1.084.221 2.266.191 3.352.61.259.863.152 2.288.152 3.401 0 .845.249 2.899-.203 3.301-.477.424-2.754.132-3.504.152-7.704.216-15.664.051-23.561.051-.523 0-1.144.132-1.574-.203-.064-.646.382-1.214.66-1.727 1.418-2.61 2.932-5.319 4.316-8.073.547-1.089 1.27-2.101 1.624-3.301 0-.034 0-.068 0-.101-.199-.714-.783-1.203-1.219-1.726-3.005-3.601-5.134-8.618-5.535-14.878-.501-7.818 1.255-13.837 4.113-18.992 2.755-4.971 6.341-9.346 11.121-12.238.589-.355 1.296-.625 1.93-1.016 3.549-2.188 8.242-3.499 13.608-3.858 2.728-.183 5.705-.171 8.43.203 12.107 1.659 19.601 7.94 24.526 16.706 2.888 5.02 4.836 11.32 4.316 18.94-.43 6.302-2.41 11.358-5.484 15.133-.476.584-1.195 1.226-1.219 1.727-.023.479.479 1.248.762 1.777 1.459 2.727 2.949 5.327 4.367 8.073.28.543.579 1.089.863 1.625.275.52.732 1.027.711 1.676-.389.435-1.101.254-1.625.254-7.885.001-15.852.049-23.409.052-.668 0-3.03.164-3.402-.255-.409-.459-.152-2.444-.152-3.301 0-1.083-.106-2.458.152-3.3zm-8.226-53.927c-3.704.187-7.155 1.384-9.953 2.792-2.848 1.435-5.364 3.352-7.363 5.434-4.136 4.306-7.061 10.311-7.566 18.027-.094 1.432-.017 3.024.101 4.469.239 2.908.804 5.169 1.676 7.565.2.549 1.048 2.958 1.676 2.945.473-.01 1.327-1.716 1.625-2.285 1.404-2.684 2.767-5.232 4.113-7.77 3.808-7.18 7.417-13.536 11.07-20.515 1.357-2.594 2.892-5.148 4.113-7.77.404-.867 1.101-1.664 1.168-2.69-.219-.247-.444-.214-.66-.202zm4.976 1.522c.239.429.429.925.66 1.32 1.479 2.529 2.677 5.217 4.062 7.82 1.832 3.442 3.768 6.837 5.637 10.258 3.496 6.398 7.055 12.867 10.511 19.194.21.385.418 1.003.965 1.066.565-.13.71-.786.914-1.219.712-1.513 1.163-3.121 1.625-4.875.639-2.425.692-5.021.66-7.819-.046-4.025-.743-7.724-2.132-10.867-2.729-6.177-6.801-10.591-12.695-13.508-2.081-1.028-4.675-1.979-7.363-2.487-.957-.182-2.579-.509-3.25-.255-.34.532.184.975.406 1.372zm-19.55 53.319c-1.315-.611-2.456-1.279-3.707-2.081-.573-.368-1.546-1.243-2.082-.915-.483.363-.877 1.288-1.219 1.931-.38.715-.926 1.382-.914 2.081.481.428 1.261.254 1.93.255 2.167 0 4.479.025 6.398-.051.492-.021.99.114 1.371-.153-.434-.556-1.135-.768-1.777-1.067zm41.588-1.218c-.365-.663-.694-1.447-1.371-1.828-1.44.54-2.4 1.561-3.758 2.184-.908.449-1.895.953-2.793 1.371-.278.129-.79.201-.812.608.398.284 1.013.13 1.523.153 1.97.087 4.342.09 6.348.05.646-.013 1.368.077 1.828-.305-.134-.84-.593-1.556-.965-2.233z" fill-rule="evenodd"/></svg>