<svg enable-background="new 0 0 76.274 51.245" viewBox="0 0 76.274 51.245" xmlns="http://www.w3.org/2000/svg"><g clip-rule="evenodd" fill-rule="evenodd"><path d="m24.847.156c.332 1.18.079 2.554.099 3.827.02 1.24.074 2.538-.05 3.777-1.209.492-2.437.458-3.579.746-3.379.851-6.053 2.624-8.201 4.771-2.217 2.217-3.768 4.708-4.772 8.201-.324 1.127-.304 2.375-.696 3.628-1.064.265-2.45.149-3.777.149-1.313 0-2.677.115-3.728-.149-.172-3.868.782-7.19 2.087-9.94 1.32-2.781 2.906-5.275 4.921-7.307 3.922-3.812 9.241-7.46 16.601-7.803.315-.014.837-.166 1.095.1z"/><path d="m50.395 25.256c-1.644.24-3.717.149-5.766.149-.658 0-1.523.053-1.79-.199-.285-.27-.281-1.635-.348-2.137-.285-2.132-1.065-4.05-1.889-5.567-1.339-2.465-2.697-3.763-4.374-5.567-2.04-1.513-4.414-2.865-7.406-3.529-.976-.216-2.062-.15-2.982-.646-.162-1.734-.12-4.03-.099-6.014.006-.614-.076-1.296.298-1.69 9.686.487 15.645 5.131 20.03 11.084 1.887 2.749 3.318 6.022 4.125 9.94.268 1.293.518 2.739.201 4.176z"/><path d="m76.141.305c.223 1.092.099 2.489.099 3.877 0 1.357.118 2.781-.149 3.877-1.285.294-2.52.317-3.678.646-3.217.912-6.003 2.645-8.052 4.772-2.11 2.19-3.773 4.706-4.622 8.201-.273 1.119-.345 2.324-.696 3.579-1.071.31-2.376.099-3.678.099-1.267 0-2.609.081-3.728-.099-.327-1.863.081-3.708.447-5.368 1.07-4.851 3.553-8.757 6.412-11.879 1.845-2.016 4.33-3.886 7.058-5.169 2.829-1.331 5.919-2.387 9.543-2.635.322-.022.765-.139 1.044.099z"/><path d="m24.798 8.804c.362 1.067.181 2.452.149 3.777-.032 1.337.104 2.757-.099 3.976-1.756.436-3.333.888-4.623 1.839-1.64 1.209-2.986 2.934-3.579 5.169-.136.514-.055 1.142-.398 1.59-1.136.179-2.483.1-3.827.1-1.297 0-2.665.116-3.728-.149-.176-2.386.594-4.521 1.442-6.362.889-1.931 1.897-3.248 3.28-4.722 2.471-2.631 6.25-4.994 10.736-5.219.137-.006.396-.119.647.001z"/><path d="m41.796 25.256c-1.121.178-2.463.099-3.777.099-1.296 0-2.621.095-3.628-.149-.364-.87-.404-1.841-.696-2.634-.788-2.137-2.452-3.484-4.125-4.722-1.031-.692-2.645-.801-3.777-1.392-.13-1.182-.159-2.535-.1-3.877.057-1.292-.057-2.639.199-3.728 4.447.06 7.543 1.9 10.189 3.927 1.661 1.76 3.442 3.627 4.474 6.114.743 1.796 1.37 3.934 1.241 6.362z"/><path d="m76.091 9.053c.267 1.076.149 2.484.149 3.827 0 1.328.119 2.716-.149 3.778-.463.365-1.111.309-1.64.447-1.913.501-3.401 1.74-4.573 2.982-.555.691-1.039 1.457-1.392 2.386-.341.898-.524 1.908-.895 2.833-1.107.175-2.455.099-3.777.099-1.296 0-2.684.146-3.678-.199-.175-2.356.464-4.568 1.342-6.412.852-1.79 1.959-3.351 3.281-4.672 2.636-2.636 6.22-4.853 10.736-5.119.159-.009.384-.082.596.05z"/><path d="m24.798 17.651c.267 1.064.149 2.413.149 3.728 0 1.301.046 2.642-.149 3.727-1.529.288-3.44.111-5.169.1-.798-.005-1.629.208-2.287-.1-.14-2.049 1.047-3.93 2.336-5.219 1.228-1.228 2.737-1.915 4.424-2.286.152-.033.461-.126.696.05z"/><path d="m33.346 25.206c-1.068.192-2.454.1-3.777.1-1.335 0-2.711.045-3.777-.199-.18-1.682-.1-3.894-.1-5.815 0-.601-.124-1.285.248-1.69 2.085-.078 3.415 1.023 4.722 1.889.718.835 1.624 1.744 2.137 2.883.358.792.662 1.806.547 2.832z"/><path d="m76.041 17.701c.393.708.151 1.748.149 2.635-.003 1.656.124 3.452-.1 4.97-1.474.267-3.431.17-5.119.099-.813-.034-1.611.159-2.237-.149.052-3.917 3.08-7.019 6.71-7.555.138-.02.357-.091.597 0z"/><path d="m24.798 26.101c.162 1.174.125 2.539.099 3.827-.026 1.304.259 2.711-.149 3.778-3.098-.336-5.39-2.183-6.56-4.672-.396-.841-.869-1.795-.795-2.833.903-.435 2.254-.094 3.429-.199 1.159-.105 2.853-.069 3.976.099z"/><path d="m7.65 26.101c.368 1.204.488 2.402.795 3.529 1.493 5.463 4.997 9.458 9.692 11.78 1.94.959 4.116 1.542 6.66 1.889.178 1.169.099 2.55.099 3.927 0 1.331.116 2.729-.149 3.827-3.822.039-7.131-1.13-9.99-2.485-5.585-2.648-9.794-6.859-12.425-12.676-1.048-2.315-1.681-4.335-2.137-7.257-.089-.571-.462-2.394.149-2.584.85-.265 2.604-.05 3.827-.05 1.253 0 2.477-.076 3.479.1z"/><path d="m16.248 26.051c.47.511.441 1.361.646 1.988 1.177 3.575 4.066 5.753 7.953 6.661.113 2.138.108 5.26-.05 7.604-1.086.298-2.28-.073-3.28-.348-2.944-.811-5.628-2.338-7.555-4.175-2.17-2.068-3.731-4.892-4.722-8.251-.15-.508-.357-1.106-.447-1.69-.084-.541-.287-1.294.149-1.789 2.321-.083 4.985-.083 7.306 0z"/><path d="m33.396 26.15c.267.985.149 2.045.149 3.082 0 7.431.044 14.725-.149 21.77-1.093.221-2.518.208-3.827.149-1.324-.06-2.686.058-3.777-.198-.27-1.182-.149-2.416-.149-3.629 0-5.477.05-10.491.05-16.153 0-.909.041-1.848 0-2.733-.038-.816-.183-1.683.199-2.386 2.426-.09 5.179-.08 7.504.098z"/><path d="m41.746 26.2c.257.449.149.994.149 1.491v20.378c0 1.008.114 2.063-.149 3.032-2.269.16-4.998.101-7.356-.049-.266-.899-.149-2.016-.149-3.131 0-1.063 0-2.172 0-3.23 0-4.376 0-8.094 0-12.625 0-1.419-.061-3.15 0-4.672.037-.928-.142-1.265.497-1.342.551-.066 1.226-.01 1.839 0 1.634.026 3.479-.027 5.169.148z"/><path d="m50.395 26.25c.265.454.096 1.007.099 1.54.041 6.644 0 13.74 0 20.527 0 .928.118 1.899-.149 2.783-2.28.197-5.055.187-7.456 0-.257-.846-.149-1.96-.149-3.082 0-6.341-.02-12.642.049-19.036.009-.775-.164-1.412 0-2.336.077-.431.115-.472.497-.547 1.128-.219 2.502 0 3.678 0 1.201.002 2.373-.092 3.431.151z"/><path d="m58.894 26.25c.15 1.637-.704 3.096-1.491 4.125-.78 1.078-1.814 2.099-3.082 2.734-.734.368-1.655.726-2.634.696-.331-1.127-.216-2.6-.199-3.976.007-.586 0-1.25 0-1.889 0-.632-.144-1.372.249-1.79 1.63-.131 4.234-.015 6.064 0 .39.004.771-.136 1.093.1z"/><path d="m67.542 26.299c.197 1.013-.025 1.985-.249 2.933-1.204 5.106-4.475 8.951-8.648 11.333-.958.546-2.105.959-3.28 1.292-1.178.333-2.446.807-3.728.597-.265-1.095-.149-2.486-.149-3.827 0-1.344-.039-2.692.1-3.778.863-.449 1.745-.57 2.535-.944 2.695-1.277 4.747-3.234 5.567-6.461.109-.432.14-1.066.447-1.193.036-.046.09-.076.149-.1h5.567c.593-.001 1.205-.11 1.689.148z"/><path d="m76.141 26.349c.217 2.885-.576 5.536-1.441 7.853-.856 2.291-1.977 4.36-3.28 6.163-2.005 2.771-4.35 5.055-7.307 6.909-2.151 1.348-4.545 2.518-7.406 3.23-1.569.391-3.311.771-5.069.596-.268-1.095-.149-2.476-.149-3.827 0-1.321-.078-2.693.1-3.827 1.285-.344 2.448-.48 3.529-.795 6.229-1.818 11.115-6.471 12.873-13.022.111-.414.24-1.112.348-1.789.123-.77.021-1.608.696-1.69 1.063-.128 2.359.05 3.628.05 1.236 0 2.497-.117 3.478.149z"/></g></svg>