<svg enable-background="new 0 0 70.032 75.176" viewBox="0 0 70.032 75.176" xmlns="http://www.w3.org/2000/svg"><g clip-rule="evenodd" fill-rule="evenodd"><path d="m69.709 62.998c-.709-.004-1.297-.496-1.852-.828-3.95-2.373-7.713-5.06-11.009-8.135-4.118-4.084-7.857-8.572-11.009-13.641-1.042-1.674-1.844-3.555-2.68-5.504-2.438-5.682-4.78-11.658-7.015-17.586-.552-1.465-1.199-2.902-1.803-4.336-.189-.447-.219-1.072-.73-1.314-.637.396-.805 1.205-1.071 1.852-1.406 3.4-2.851 6.9-4.141 10.473-.508 1.404-1.23 2.74-1.511 4.189.67.414 1.661.244 2.533.244 2.699 0 5.481-.154 7.989.049.523.402.703 1.115.925 1.705.239.633.493 1.262.731 1.898.47 1.258 1.136 2.49 1.363 3.898-.979.266-2.048.145-3.068.145-3.111 0-6.326.049-9.499.049-4.227.002-8.51.107-12.568-.146-.017-.84.418-1.59.731-2.338 2.15-5.137 4.234-10.492 6.332-15.734 2.102-5.252 4.306-10.414 6.333-15.783.271-.715.515-1.496 1.023-2.094 2.518-.08 5.374-.082 7.892 0 .576.402.701 1.158.926 1.754 1.672 4.422 3.596 8.949 5.309 13.443.972 2.549 2.113 5.086 3.069 7.648 1.938 5.195 4.275 9.854 7.258 14.127.763 1.092 1.343 2.211 2.143 3.215 3.508 4.395 7.593 8.383 12.228 11.887.517.391 1.213.869 1.363 1.266.213.562.098 1.603.098 2.435v4.971c.002.785.139 1.631-.29 2.191z"/><path d="m33.71 39.567c2.791-.107 5.654-.139 8.427-.049.608.598.952 1.393 1.364 2.096 3.733 6.365 8.477 12.035 14.078 16.756 3.088 2.604 6.407 4.865 10.182 6.967.685.381 1.917.764 2.143 1.266.212.473.098 1.451.098 2.193 0 1.586-.072 2.994-.049 4.432.011.682.14 1.389-.194 1.949-.937-.066-1.764-.564-2.582-.926-2.441-1.078-4.822-2.361-7.015-3.75-4.423-2.746-8.425-5.795-12.081-9.451-3.162-3.162-5.899-6.467-8.622-10.23-.317-.436-.862-1.424-1.267-1.412-.401.012-.653.852-.877 1.365-2.5 5.719-4.665 11.607-7.063 17.391-.658 1.586-1.212 3.15-1.851 4.822-.183.475-.328 1.09-.779 1.412-.438-.287-.597-.871-.78-1.315-1.394-3.377-2.699-6.973-4.043-10.426-1.155-2.971-2.366-5.867-3.556-8.865-.379-.955-.545-2.08-1.315-2.826-.47.197-.648.775-.828 1.219-1.368 3.354-2.657 6.812-4.092 10.229-1.174 2.795-2.311 5.789-3.507 8.769-.144.355-.428.898-.634 1.412-.222.551-.361 1.186-.634 1.365-.655.432-3.262.107-4.092.144-.743.035-1.479-.019-2.143-.049-.707-.029-1.41.141-1.998-.145.287-1.514 1.027-2.922 1.607-4.385 1.719-4.332 3.486-8.531 5.262-13.006 1.677-4.227 3.52-8.572 5.261-13.008.233-.592.651-1.375.926-2.094.339-.891.479-1.826 1.315-1.949.512-.074 1.24.049 1.899.049 1.827 0 4.121-.039 5.797.049.718.924 1.09 2.121 1.51 3.264.829 2.254 1.731 4.523 2.68 6.82.191.465.418 1.076.682 1.705.164.391.497 1.438.877 1.461.444.027.738-1.051.926-1.51 1.154-2.838 2.233-5.67 3.41-8.525.464-1.128.807-2.347 1.558-3.214z"/></g></svg>