<svg enable-background="new 0 0 67.496 67.786" viewBox="0 0 67.496 67.786" xmlns="http://www.w3.org/2000/svg"><g clip-rule="evenodd" fill-rule="evenodd"><path d="m46.131 2.52c-3.21.025-6.559-.048-9.983-.047-.615 0-1.335-.165-1.806.237-.023.579.243 1.214.475 1.711.229.492.54 1.009.998 1.236 5.525.177 11.155.003 16.828.143.78.456 1.453 1.019 2.139 1.569.35.269.716.52.999.855.305.313.818.418.855.999-5.777.437-11.715-.076-17.588.047-1.31-.861-1.989-2.352-3.375-3.137-.471.197-.716.581-.951 1.141-.124.296-.308 1.217-.808 1.236-.417.016-.698-.757-.903-1.141-.229-.431-.498-1.072-.951-1.093-.47-.023-1.438 1.096-1.712 1.378-.582.601-.902 1.038-1.616 1.426-5-.049-10.213-.13-15.069-.143-.849-.002-1.718.149-2.52-.095.448-.849 1.211-1.269 1.902-1.807.514-.399 1.427-1.323 2.139-1.521.506-.14 1.279-.047 1.997-.047 1.535 0 2.747.069 4.136 0 2.376-.118 5.319.023 7.463.143 1.014.056 2.469.166 3.138-.095.462-.18.751-.757 1.046-1.236.299-.488.67-.991.618-1.521-.355-.47-1.075-.357-1.616-.38-3.36-.142-6.758.008-9.935-.19.098-.369.601-.422.903-.523 2.518-.843 5.51-1.447 8.747-1.616 4.861-.255 9.523.529 13.072 1.759.487.168 1.095.292 1.378.712z"/><path d="m59.726 12.312c.517.413.923 1.006 1.331 1.569.393.542.902 1.126.998 1.806-2.702.152-5.697.062-8.318.238-.916.061-1.899-.005-2.853-.048-1.96-.089-3.648.075-5.514 0-1.016-.04-1.975.199-2.662 0-.652-.188-1.061-.961-1.616-1.474-.39-.359-1.22-1.394-1.711-1.378-.515.016-.872 1.034-1.093 1.474-.273.544-.639 1.267-1.141 1.426-.424.134-1.066.002-1.617 0-1.201-.005-2.279-.018-3.422 0-.507.007-1.252.092-1.664-.095-1.064-.484-.799-2.453-1.949-2.995-1.439.7-2.085 2.193-3.518 2.9-5.495-.13-11.611 0-17.255 0-.774 0-1.603.042-2.329-.19.612-1.305 1.446-2.389 2.424-3.328 5.527.031 12.011-.08 17.588 0 .372.005.782.092 1.141.047.703-.087 1.477-.796 1.949-1.236.39-.363 1.158-1.508 1.712-1.474.504.031.735.906.998 1.331.261.42.626 1.067 1.046 1.236.928.372 2.124-.018 3.137.095 1.015-.207 1.083-2.24 1.997-2.662.564-.26 1.357.923 1.807 1.331.532.483 1.121 1.11 1.664 1.284.513.164 1.482.144 2.139.19 2.025.142 4.529-.083 6.37-.095 1.021-.006 2.019.095 2.995.095 2.473.001 4.973-.162 7.366-.047z"/><path d="m64.004 19.014c.393.374.624.967.855 1.521.222.532.525 1.128.523 1.711-.691.28-1.496.143-2.234.142-3.911 0-8.1.165-12.074.143-.767-.004-1.637-.034-2.472 0-.797.031-1.694.152-2.281-.048-.635-.216-1.029-.899-1.617-1.474-.356-.348-1.237-1.342-1.711-1.331-.513.012-.864.973-1.093 1.378-.346.613-.608 1.197-.998 1.474-4.401.162-9.331.057-13.833-.095-.603-.159-.806-.774-1.188-1.426-.235-.401-.685-1.378-1.141-1.426-.549-.058-1.244.94-1.616 1.284-.552.51-1.025 1.177-1.568 1.331-.624.177-1.596.047-2.424.047-4.084 0-8.28 0-12.264 0-.824 0-1.624.011-2.424.048-.766.035-1.579.086-2.282-.143-.045-.603.264-1.192.475-1.711.218-.537.46-1.083.808-1.474 2.347-.348 4.76.086 7.13-.047 4.08-.23 8.248-.121 12.597-.143 1.128-.41 2.011-2.151 3.137-2.662.048-.022.145-.084.238-.047.976.375 1.129 2.463 2.187 2.804.67.216 1.843.012 2.614.048 1.724.08 3.293.069 5.134 0 .825-.031 1.811.197 2.472-.048.454-.168.855-.863 1.141-1.331.234-.383.646-1.334 1.046-1.378.558-.062 1.353 1.002 1.711 1.331.515.473 1.068 1.139 1.664 1.331.65.21 1.653.095 2.567.095 5.814.002 11.526-.091 16.921.096z"/><path d="m46.606 24.196c.596.47.96 1.138 1.711 1.378 1.194.382 3.152.069 4.516.047 3.165-.051 6.083.129 9.127.048 1.551-.042 3.075-.167 4.516.095.389.882.623 2.163.618 3.28-.652.28-1.354.125-2.044.095-.712-.031-1.453.031-2.186.048-2.667.061-5.438-.161-8.461.095-.624.052-1.404.047-2.187.047-.741 0-1.62.056-2.139-.095-.59-.172-1.064-.964-1.568-1.426-.414-.379-1.188-1.303-1.711-1.284-.948.035-1.324 2.256-2.139 2.614-.744.327-2.931.154-4.183.095-1.482-.069-2.97.048-4.278.048-2.974 0-5.992-.162-8.557-.143-.689.005-1.488.101-2.282.095-.714-.005-1.641.098-2.187-.095-1.061-.375-1.066-2.456-2.139-2.899-.745.259-1.146.777-1.711 1.331-.428.42-1.002 1.211-1.568 1.426-.635.241-1.674.113-2.567.095-3.571-.07-7.135.025-10.6 0-1.452-.011-2.884.209-4.136-.047-.162-1.06.246-2.345.523-3.28 2.605-.404 4.948-.115 7.891-.095 2.614.018 5.293-.095 8.033-.095.874 0 1.839.08 2.472-.095 1.345-.372 2.101-2.112 3.28-2.757.916-.501 1.491 2.387 2.377 2.757.69.288 1.825.095 2.899.095 3.142 0 6.094.123 8.984.143.944.006 1.909-.095 2.947-.095.874 0 2.235.189 2.947-.095.484-.193.683-.802 1.046-1.379.226-.358.676-1.286 1.046-1.33.829-.101 1.02 1.097 1.71 1.378z"/><path d="m67.379 32.277c.159.901.154 2.425 0 3.327-1.071.275-2.208.126-3.328.095-3.231-.089-6.72.132-10.268.143-.936-.568-1.648-1.377-2.52-2.187-.223-.207-.606-.673-.903-.666-.53.014-.878.981-1.141 1.378-.372.562-.627 1.044-1.141 1.331-7.027.203-14.549.048-21.866.047-1.518 0-3.453-.003-4.992-.047-.655-.019-1.225.129-1.616 0-.501-.165-.767-.872-1.093-1.378-.273-.424-.728-1.301-1.141-1.331-.482-.035-1.449 1.037-1.759 1.284-.586.467-1.033 1.124-1.664 1.331-.879.289-2.278.143-3.422.143-2.372 0-4.725-.048-7.083-.047-1.139.001-2.263.165-3.328-.143-.148-.83-.163-2.262 0-3.09 1.029-.322 2.134-.19 3.185-.19 3.368 0 6.689-.048 10.172-.048.791 0 1.632.043 2.234-.143.572-.176 1.115-.729 1.616-1.188.506-.463.974-.971 1.474-1.284.586-.367 1.135.679 1.473 1.188.419.631.736 1.148 1.236 1.331 6.913.129 15.003.005 22.009.095 1.042.014 2.163.11 2.757-.143.448-.189.772-.818 1.093-1.283.29-.419.715-1.246 1.094-1.284.497-.05 1.353.999 1.664 1.284.49.45 1.039 1.184 1.568 1.331.421.117 1.061.002 1.569 0 3.832-.018 8.902.006 12.692.047.47.007 1.009-.159 1.429.097z"/><path d="m67.094 38.979c-.041 1.169-.289 2.527-.713 3.47-1.527.087-3.082.047-4.611.047-1.471.001-3.244.312-4.468-.095-.897-.298-1.6-1.495-2.329-2.187-.256-.243-.642-.579-.903-.571-.57.018-.913 1.045-1.188 1.474-.326.508-.696 1.076-1.236 1.378-8.552.115-17.815-.096-26.477-.095-2.189 0-4.445 0-6.941 0-.822 0-1.801.129-2.282-.047-.454-.167-.754-.955-1.046-1.474-.186-.33-.662-1.38-1.093-1.426-.607-.063-1.472 1.11-1.807 1.428-.534.507-1.115 1.281-1.759 1.474-.955.285-3.32.047-4.564.047-.771 0-1.453 0-2.329 0-.508 0-1.804.117-2.187-.142-.648-.441-.575-2.305-.713-3.185.891-.41 1.925-.237 2.9-.238.983 0 2-.047 2.995-.047.983 0 2.017.136 3.042.095.985-.04 2.075.08 2.899-.19 1.043-.342 2.019-1.938 2.947-2.519.597-.374 1.06.705 1.378 1.236.372.619.68 1.19 1.188 1.331 3.104-.001 6.363.068 9.459-.047 2.781-.104 5.946.232 8.794.142 3.351-.105 6.864.064 10.411-.095 1.022-.046 2.545.189 3.375-.047 1.161-.331 1.199-2.084 2.376-2.472.774.188 1.076.743 1.569 1.236.418.418.881 1.037 1.521 1.236.713.222 1.949.031 2.852.047 2.057.037 4.094-.077 6.132 0 .983.036 1.962-.073 2.808.236z"/><path d="m55.876 42.783c1.026.367 1.986 2.337 3.089 2.71.589.199 1.441.05 2.187.047.772-.003 1.566.1 2.234.095.65-.005 1.359-.192 1.949.095-.004.63-.325 1.234-.571 1.806-.238.554-.484 1.149-.856 1.569-.827.076-1.979.081-2.805 0-.735-.305-1.07-.88-1.664-1.474-.41-.41-1.02-1.504-1.616-1.474-.505.026-.935 1.074-1.188 1.474-.391.614-.682 1.109-1.188 1.474-12.456.059-25.239.095-37.932.095-1.82 0-3.631.129-5.372-.095-.561-.286-.737-.847-1.093-1.474-.233-.411-.634-1.397-1.141-1.426-.562-.033-1.327 1.111-1.664 1.426-.492.462-.963 1.286-1.616 1.474-.899.258-1.698-.013-2.852.047-.547-.285-.753-.963-.998-1.521-.249-.566-.531-1.193-.618-1.854 1.12-.401 2.571-.28 4.04-.285.796-.003 1.73.196 2.472 0 .539-.143 1.102-.854 1.521-1.331.32-.365 1.089-1.301 1.568-1.283.484.017.807.871 1.046 1.283.258.446.684 1.074 1.093 1.236.633.25 1.592.095 2.519.095 2.696 0 5.335-.039 7.843-.047 9.414-.033 19.793.23 29.186.095 1.196-.534 1.288-2.169 2.427-2.757z"/><path d="m57.397 52.195c.517-.133.733-.765 1.093-1.331.279-.439.703-1.287 1.093-1.331.728-.082.956.845 1.474 1.141.101.473 1.096.845 1.141 1.426.022.292-.343.777-.523 1.045-.227.339-.445.597-.666.903-.37.516-.891 1.522-1.474 1.664-.371.09-1.114-.043-1.568-.048-4.058-.043-8.201.047-12.455.048-11.27.001-23.024-.094-34.463-.095-1.084 0-2.348.161-3.09-.047-.595-.167-.933-.891-1.378-1.474-.362-.474-1.126-1.325-1.141-1.711-.019-.483.782-1.076 1.093-1.426.532-.598.748-1.02 1.236-1.331.54-.343 1.098.808 1.426 1.283.396.573.709 1.224 1.189 1.378.438.141 1.253.021 1.806 0 3.507-.131 7.492 0 11.124 0 10.618 0 23.382-.027 34.083-.094z"/><path d="m56.208 59.039c.094.48-.591.578-.761.951-.444.349-.959.773-1.521 1.188-.505.374-1.065.907-1.616 1.046-.628.158-1.473-.013-2.282 0-5.631.086-10.668 0-16.209 0-5.484 0-10.935-.156-16.542-.095-.779.009-1.608.116-2.139 0-.676-.148-1.614-1.017-2.139-1.426-.361-.28-.699-.543-.999-.808-.281-.249-.723-.519-.713-.951 9.827-.269 20.309-.016 29.899-.048 5.004-.016 10.261.047 15.022.143z"/><path d="m45.893 65.457c-.688.568-1.667.783-2.614 1.046-2.747.762-6.062 1.284-9.602 1.283-3.498-.001-6.775-.557-9.507-1.378-.923-.278-1.903-.477-2.567-1.046 8.029-.19 16.131-.03 24.29.095z"/></g></svg>