<svg enable-background="new 0 0 45.159 68.841" viewBox="0 0 45.159 68.841" xmlns="http://www.w3.org/2000/svg"><path clip-rule="evenodd" d="m36.471.038c1.109-.307 1.222 1.321 1.447 2.315.159.703.288 1.492.435 2.267.583 3.104 1.482 5.699 2.074 8.733.866 4.444 2.289 8.563 3.232 13.026.304 1.438.688 2.893 1.013 4.392.161.738.205 1.547.338 2.364.947 5.822-2.761 8.758-7.188 9.6-1.755.334-3.573.306-5.355.387-.872.039-1.869.134-2.702.096-2.082-.094-3.452.224-4.053 1.688-.306.745-.268 1.771-.338 2.799-.195 2.865-.386 6.049-.386 8.878 0 3.109-.168 5.883-.097 8.829.023.972.167 1.951-.193 2.799-.148.108-.277.237-.386.386-1.283.255-3.537.532-4.053-.435-.287-.537-.145-1.896-.145-2.894-.001-3.205.047-5.857-.097-8.878-.128-2.697-.261-5.927-.386-8.685-.092-2.035-.045-3.479-1.447-4.149-1.23-.588-3.724-.465-5.355-.482-1.784-.019-3.69-.193-5.26-.53-2.438-.525-4.253-1.415-5.693-3.04-.476-.537-.981-1.065-1.254-1.641-1.42-2.991-.055-7.092.579-9.843 1.105-4.8 2.404-9.202 3.521-13.992.182-.775.379-1.561.579-2.363.195-.782.261-1.609.482-2.413.552-1.998 1.172-4.697 1.737-6.995.194-.789.294-1.783.916-1.978.791-.248 1.843.436 2.461.724 2.238 1.043 4.062 2.62 5.259 4.535.854 1.366 1.672 2.789 1.834 4.68.171 2-.235 4.138-.676 5.839-.419 1.616-.971 3.464-1.447 5.065-.503 1.694-.873 3.442-1.399 5.114-.722 2.294-1.44 5.029-2.123 7.672-.217.84-.493 1.99-.24 2.799.265.848 1.637 1.711 2.75 1.302 1.13-.414 1.353-2.492 1.736-3.859.881-3.131 1.571-5.684 2.413-8.685.202-.724.438-1.444.627-2.172.177-.681.198-1.488.724-2.025 1.275-.173 3.131-.137 4.294 0 .55.423.667 1.183.82 1.833.503 2.133.993 4.188 1.592 6.32.367 1.308.897 2.642 1.255 4.005.175.669.32 1.407.53 2.123.326 1.107.463 2.134 1.448 2.557 1.467.213 2.381-.289 2.701-1.206.263-.749-.043-1.978-.241-2.799-.616-2.556-1.451-5.095-2.026-7.574-.393-1.693-.846-3.424-1.351-5.066-.261-.849-.387-1.744-.627-2.605-.637-2.276-1.508-5.524-1.11-8.299.26-1.81.888-3.297 1.737-4.68 1.569-2.554 4.225-4.398 7.094-5.839zm-14.185 25.812c-.673 1.418-.963 3.22-1.303 4.97.366.34 1.083.191 1.688.192.553.004 1.178.138 1.496-.192-.317-1.742-.66-3.457-1.206-4.97-.247-.091-.427-.091-.675 0zm-2.123 9.167c-.594.583-.759 1.843-.82 2.799.774.353 1.976.31 3.137.338.567.014 1.172 0 1.736 0 .565 0 1.19.108 1.544-.241-.167-1.006-.197-2.15-.675-2.847-1.551-.128-3.285-.113-4.922-.049z" fill-rule="evenodd"/></svg>