<svg enable-background="new 0 0 70.725 83.24" viewBox="0 0 70.725 83.24" xmlns="http://www.w3.org/2000/svg"><g clip-rule="evenodd" fill-rule="evenodd"><path d="m70.618 21.265c-.008.059.012.09.051.101-.005 13.504.13 27.213 0 41.383-.526.676-1.363 1.012-2.084 1.424-5.082 2.914-10.269 5.82-15.353 8.898-5.03 3.043-10.08 6.01-15.304 8.947-.6.338-1.688 1.195-2.237 1.221-.579.025-1.695-.9-2.338-1.271-6.784-3.916-13.37-8.023-20.082-12.049-1.487-.893-3.049-1.711-4.424-2.695-2.807-2.008-5.933-3.492-8.744-5.49 0-.035 0-.068 0-.102-.066-14.314-.164-28.164-.052-42.248 1.355-.998 2.91-1.693 4.372-2.492 7.274-3.977 14.682-7.967 22.014-12.049 2.114-1.178 4.366-2.336 6.609-3.609.664-.377 1.598-1.086 2.187-1.221.578-.133 1.773.787 2.491 1.221 3.734 2.252 7.347 4.312 11.032 6.609 1.462.91 2.889 1.877 4.321 2.744 4.53 2.742 8.856 5.18 13.27 7.932 1.447.902 2.94 1.715 4.271 2.746zm-12.406 8.592c-1.398-2.828-3.186-5.201-5.439-7.373-2.14-2.06-4.531-3.805-7.677-5.084-2.812-1.143-6.988-2.117-10.981-1.932-7.688.355-12.767 3.389-16.93 7.371-2.939 3.059-5.263 6.976-6.406 11.797-.386 1.627-.8 3.4-.61 5.287 1.945.244 3.964.105 5.999.102 13.552-.027 28.042-.047 41.639-.051 1.029 0 2.101.121 3.102-.152-.138-3.743-1.285-7.114-2.697-9.965zm.154 12.81c-16.24 0-32.381-.035-48.197.152-.216 1.375.204 2.74.508 4.018.928 3.898 2.244 7.199 4.169 10.016 2.421 3.539 6.204 6.858 10.22 8.693 2.078.949 4.718 1.803 7.423 2.033 9.436.805 16.499-2.48 20.895-7.219 3.167-3.062 5.624-7.068 6.813-12.1.395-1.672.845-3.504.712-5.441-.819-.275-1.694-.152-2.543-.152z"/><path d="m36.3 17.552c.621 1.641.771 3.445 1.119 5.188.686 3.441 1.445 6.92 2.084 10.473.314 1.748.88 3.465.915 5.236-.301.363-1.379.305-1.881.152-.65-1.08-.673-2.543-.966-3.914-.295-1.379-.497-2.781-.864-4.017-.587-.371-1.764-.149-2.542-.102-.541.248-.602 1.059-.712 1.779-.221 1.441-.399 2.736-.61 4.322-.089.672-.188 1.633-.56 1.881-.387.258-1.476.172-1.881-.152.06-1.764.4-3.562.712-5.338.76-4.32 1.456-8.807 2.187-13.219.134-.81.104-1.756.711-2.34.656-.06 1.713-.133 2.288.051zm-1.219 6.254c-.456 1.156-.749 2.74-.712 4.221.312.379 1.31.275 1.678 0 .11-.982-.295-2.305-.508-3.254-.077-.344-.006-.875-.407-.967-.017 0-.035 0-.051 0z"/><path d="m40.418 54.665c.601-.379 2.403-.394 3 0 .273 1.225.152 2.69.152 4.17 0 1.416.239 3.072-.051 4.27-.468 1.93-3.519 3.24-5.491 1.781-2.007-1.488-1.373-6.645-1.372-10.221 0-2.818 0-5.523 0-7.879.618-3.16 5.147-3.363 6.456-.764.276.549.336 1.207.407 2.137.054.705.295 1.775-.152 2.287-.316.361-1.567.416-1.881.102-.356-.355-.167-1.172-.204-1.932-.051-1.068-.21-2.17-1.22-2.186-1.489-.025-1.268 2.074-1.221 3.559.056 1.73 0 3.42 0 4.932 0 1.828.065 3 0 4.727-.055 1.475-.129 3.523 1.221 3.611 1.942.127 1.211-3.293 1.22-4.932.003-.479.104-.975 0-1.373-.186-.722-1.619-1.019-.864-2.289z"/><path d="m31.928 44.345c.464.713.481 1.625.661 2.441 1.11 5.051 2.023 10.422 2.999 15.608.157.832.574 1.678.356 2.543-.349.312-1.31.318-1.83.152-.449-.518-.512-1.311-.661-2.035-.302-1.461-.586-3.059-.814-4.574-.11-.731-.202-1.496-.61-2.033-.57-.16-1.562-.145-2.135 0-.478.389-.562 1.209-.661 1.982-.195 1.502-.479 2.947-.712 4.574-.113.793-.119 1.797-.559 2.086-.413.271-1.346.139-1.576-.152-.346-.438.02-1.863.153-2.594.471-2.58.792-5.348 1.22-7.779.45-2.555.854-5.205 1.271-7.727.144-.871.13-1.777.559-2.441.539-.242 1.727-.198 2.339-.051zm-1.169 5.645c-.455 1.121-.517 2.635-.763 3.965.059.01.055.08.051.152.292.404 1.354.377 1.678 0 .035-.645-.184-1.4-.306-2.135-.117-.705-.125-1.539-.559-1.982-.033 0-.068 0-.101 0z"/></g></svg>