<svg clip-rule="evenodd" fill-rule="evenodd" stroke-linejoin="round" stroke-miterlimit="2" viewBox="0 0 560 400" xmlns="http://www.w3.org/2000/svg"><path d="m559.5 351.7-200.4-351.7h-96.8l-200.4 351.7h-61.9v155.4h289.2v-155.4h-91.7c-.8-5.4-1.2-10.8-1.2-16.4 0-49.7 31.7-92 75.9-107.9v-76.3c0-21.3 17.3-38.6 38.6-38.6s38.6 17.3 38.6 38.6v76.3c44.3 15.8 75.9 58.1 75.9 107.9 0 5.6-.4 11.1-1.2 16.4h-91.9v155.4h289.2v-155.4zm-248.7-247c-17.7 0-32.1-14.4-32.1-32.1s14.4-32.1 32.1-32.1 32.1 14.4 32.1 32.1c-.1 17.7-14.4 32.1-32.1 32.1z" fill-rule="nonzero" transform="matrix(.434503 0 0 .434503 145 89.8318)"/></svg>