<svg enable-background="new 0 0 81.089 80.974" viewBox="0 0 81.089 80.974" xmlns="http://www.w3.org/2000/svg"><g clip-rule="evenodd" fill-rule="evenodd"><path d="m15.167.1c3.206-.19 6.927-.05 10.294-.051 3.387 0 6.768-.093 10.043.051 3.393.148 6.758-.111 10.144.05 1.65.079 3.349 0 5.021 0 5.059 0 10.172-.221 14.914 0 6.131.286 10.485 3.321 13.006 7.382 1.265 2.037 2.312 4.648 2.41 7.783.159 5.049.071 9.834 0 14.764-.113 7.914.05 16.581.05 24.705 0 3.505.083 6.959 0 10.044-.171 6.377-3.013 10.575-7.03 13.356-2.033 1.407-4.564 2.43-7.532 2.661-3.296.258-6.705.051-10.094.051-5.088 0-10.071-.05-15.165-.051-8.244 0-17.106-.251-25.258-.05-6.247.154-10.823-3.166-13.357-7.03-.686-1.044-1.272-2.181-1.707-3.414-1.294-3.662-.804-9.634-.804-14.513 0-9.753-.05-19.941-.05-30.129 0-3.46-.067-6.818-.05-10.093.035-6.406 3.359-10.432 7.332-13.056 1.676-1.106 4.819-2.626 7.733-2.46.033.001.068.002.1 0zm25.158 9.44c-.405.336-.759.809-1.155 1.255-.363.41-.743.838-1.104 1.256-5.17 5.974-10.179 11.824-15.215 17.876-5.288 6.354-11.025 12.65-16.269 19.133-.366.452-1.011 1.063-1.004 1.405.009.472.718 1.017 1.004 1.356.418.496.704.882 1.104 1.255 2.48 3.026 5.029 5.984 7.582 8.938 2.552 2.953 5.047 5.967 7.683 8.838.978-.562 1.471-1.608 2.26-2.36 3.597-4.169 7.29-8.242 10.846-12.453.789-.768 1.478-1.635 2.209-2.461.723-.816 1.4-1.729 2.31-2.359 1.476 1.603 2.783 3.376 4.268 4.971 3.559 4.175 7.277 8.189 10.847 12.353.31.268.675.721 1.105 1.206.325.366.768 1.171 1.205 1.154.287-.01.877-.837 1.155-1.154 5.258-6.01 10.044-11.855 15.165-17.877.294-.347 1.017-.999 1.004-1.355-.011-.309-.724-1.012-1.004-1.356-2.602-3.194-5.101-5.845-7.633-8.938-5.772-6.866-11.627-13.649-17.425-20.488-1.501-1.662-2.883-3.444-4.369-5.122-.728-.846-1.454-1.693-2.159-2.56-.711-.874-1.418-1.762-2.159-2.611-.034 0-.067 0-.101 0-.058.022-.113.051-.15.098z"/><path d="m56.545 31.987c-.499.918-1.225 1.663-1.908 2.41-.678.741-1.369 1.478-2.009 2.26-1.342 1.52-2.704 3.021-4.017 4.569-1.397 1.465-2.707 3.018-4.067 4.52-1.369 1.477-2.604 3.088-3.967 4.569-.888-.555-1.474-1.45-2.16-2.21-2.021-2.237-4.036-4.593-6.025-6.93-2.314-2.718-4.76-5.33-7.08-8.084-.305-.362-.795-.724-.803-1.255 9.377-.316 19.773.222 29.024 0 1.002-.024 2.029-.097 3.012.151z"/></g></svg>