<svg enable-background="new 0 0 38.587 36.302" viewBox="0 0 38.587 36.302" xmlns="http://www.w3.org/2000/svg"><path d="m7.78.015c8.977-.016 17.944-.022 26.92-.005 2.141.117 3.9 2.068 3.872 4.199-.021 10.686.072 21.377-.048 32.058-1.923-.006-3.86.081-5.766 0 .008-9.982-.001-19.963.002-29.945-.05-.648-.657-1.192-1.307-1.16-9.457-.032-18.915.02-28.372-.021 1.512-1.752 3.15-3.403 4.699-5.126z"/><path d="m.008 17.107c.106-2.237 2.311-4.028 4.501-3.843 5.2.063 10.405-.069 15.63.051 2.563-.065 5.192-.125 7.802.01 1.594 1.628 3.207 3.264 4.732 4.963-8.632.005-17.268-.005-25.901-.002-.595.172-1.126.718-1.035 1.375.021 3.13-.002 6.259.013 9.389.008.658-.158 1.464.454 1.92.738.461 1.648.235 2.468.307 2.715-.044 5.355.032 8.014-.063 5.398.128 10.591-.045 15.925.069-1.597 1.634-3.111 3.371-4.73 4.989-7.804-.041-15.616.011-23.424-.02-1.771.143-3.594-.95-4.197-2.653-.404-1.009-.2-2.123-.254-3.195.014-4.434-.007-8.89.002-13.297z"/></svg>