<svg enable-background="new 0 0 78.83 79.574" viewBox="0 0 78.83 79.574" xmlns="http://www.w3.org/2000/svg"><g clip-rule="evenodd" fill-rule="evenodd"><path d="m39.218.007c6.192-.123 11.852 1.421 16.308 3.497 2.32 1.081 4.413 2.212 6.307 3.597 5.691 4.163 10.396 9.426 13.449 16.258 2.052 4.59 3.547 9.959 3.548 16.258 0 6.471-1.374 11.772-3.399 16.406-2.018 4.617-4.712 8.456-8.031 11.775-3.237 3.238-7.094 6.128-11.627 8.179-2.29 1.036-4.561 1.917-7.341 2.562-2.735.634-5.675 1.034-8.868 1.034-6.355 0-11.852-1.333-16.357-3.449-4.575-2.148-8.307-4.858-11.627-8.178-3.293-3.293-5.99-7.149-8.08-11.726-2.099-4.596-3.45-9.986-3.498-16.308-.047-6.202 1.304-11.817 3.399-16.308 3.163-6.775 7.565-12.254 13.302-16.404 3.756-2.718 8.395-4.903 13.647-6.158 2.682-.642 5.552-.97 8.868-1.035zm.099 1.872c-.713 1.056-1.409 2.315-2.119 3.498-.705 1.174-1.358 2.417-2.02 3.597-1.35 2.408-2.755 4.833-4.089 7.144-5.547 9.609-10.842 19.044-16.406 28.477-.703 1.192-1.27 2.451-1.971 3.646-1.736 2.96-3.418 5.97-5.124 8.917-.349.602-.829 1.164-.936 1.872 5.326.192 10.752.148 16.209.148 16.229.001 32.832.18 49.218-.049-.037-.709-.509-1.29-.837-1.873-3.705-6.567-7.666-13.033-11.332-19.559-1.349-2.401-2.708-4.807-4.089-7.193-.694-1.198-1.308-2.424-1.971-3.646-1.977-3.64-4.056-7.192-6.109-10.74-1.38-2.384-2.647-4.818-4.04-7.193-1.046-1.784-2.113-3.603-3.055-5.37-.318-.599-.587-1.28-1.133-1.725-.002-.03-.007-.059-.049-.049-.058.023-.111.052-.147.098z"/><path d="m39.218 32.671c2.72-.096 5.13 1.412 6.257 3.055 1.059 1.545 1.656 4.363.887 6.602-1.24 3.608-5.619 6.081-9.755 4.385-1.823-.748-3.564-2.513-4.237-4.631-.685-2.16-.149-4.724.936-6.306.854-1.247 2.598-2.545 4.631-3.005.369-.085.732-.081 1.281-.1z"/></g></svg>