<svg enable-background="new 0 0 41.972 42.522" viewBox="0 0 41.972 42.522" xmlns="http://www.w3.org/2000/svg"><path d="m34.349 1.504c1.186-1.35 3.269-1.948 4.921-1.135 1.595.599 2.665 2.254 2.702 3.936-.056 11.37.003 22.757-.002 34.155-.165 2.127-2.075 3.926-4.199 3.987-1.272.06-2.543-.517-3.381-1.468-4.493-4.471-8.946-8.973-13.41-13.474-4.489 4.61-9.05 9.138-13.565 13.718-1.247 1.32-3.352 1.684-4.972.861-2.527-1.155-3.3-4.845-1.342-6.86 10.984-11.341 22.184-22.462 33.248-33.72zm-7.063 19.598c-.163.145.056.301.157.402 1.938 1.904 3.766 3.983 5.791 5.76-.008-4.012.024-8.023.004-12.034-2.072 1.848-3.982 3.904-5.952 5.872z"/></svg>