<svg enable-background="new 0 0 78.313 73.687" viewBox="0 0 78.313 73.687" xmlns="http://www.w3.org/2000/svg"><g clip-rule="evenodd" fill-rule="evenodd"><path d="m55.966.276c.258.92-.187 1.891-.459 2.755-.56 1.779-1.085 3.369-1.735 5.305-.251.749-.458 2.214-.969 2.552-.368.242-1.498.178-2.143.203-.929.038-1.598 0-2.244 0-1.361 0-3.476.246-4.49-.152-.735-.289-1.305-1.717-1.734-2.449-1.106-1.886-1.986-3.48-3.061-5.305-.514-.875-1.181-1.69-1.428-2.705.19-.293.444-.363.816-.408 1.336-.161 2.917 0 4.438 0 3.568 0 7.304.052 10.968.051.684-.001 1.418-.115 2.041.153z"/><path d="m42.498 11.856c-.107.805-.589 1.482-.969 2.143-1.127 1.962-2.241 3.939-3.418 5.918-2.264 3.935-4.455 7.948-6.734 11.886-1.714 2.961-3.33 5.908-5.05 8.928-.549.963-.993 2.045-1.786 2.856-4.011.16-8.241.153-12.09 0-.043-.544.376-.947.612-1.377 3.588-6.529 7.312-13.149 11.07-19.641 4.027-6.957 7.768-14.058 11.937-20.865.591-.357.928.527 1.224 1.02 1.278 2.127 2.591 4.352 3.877 6.377.567.891 1.16 1.775 1.327 2.755z"/><path d="m52.14 12.775c.147.665-.383 1.162-.663 1.683-1.412 2.627-2.913 5.228-4.336 7.856-.566 1.046-1.25 2.058-1.734 3.111-.199.434-.293.868-.51 1.276-2.191 4.107-4.63 8.286-6.887 12.447-.815 1.503-1.58 3.068-2.601 4.438-2.185.022-4.593.052-6.887.052-.731 0-1.514.118-2.143-.153.509-1.419 1.407-2.665 2.143-3.979 2.187-3.906 4.349-7.608 6.632-11.581 2.545-4.429 5.204-8.93 7.754-13.569.328-.597.842-1.582 1.275-1.734.376-.133 1.372-.099 1.684-.103 1.018-.013 2.117.051 3.214.051 1.064 0 2.206-.158 3.059.205z"/><path d="m53.62 13.743c.385-.019.694.716.969 1.174 3.872 6.435 7.657 13.226 11.479 19.589 3.84 6.538 7.657 13.045 11.529 19.59.239.404.654.883.51 1.428-.221.458-.843.307-1.275.307-2.344 0-5.014.051-7.601.051-1.05 0-2.256.146-2.959-.101-.822-.29-.938-1.291-1.428-1.734-4.184-7.261-8.425-14.464-12.651-21.682-1.141-2.005-2.257-3.797-3.469-5.867-.299-.511-1.063-1.479-1.071-2.04-.005-.348.436-1.015.663-1.429.72-1.312 1.531-2.597 2.245-3.877 1.063-1.911 1.943-3.651 3.059-5.409z"/><path d="m46.835 25.936c.467.151.906 1.213 1.275 1.837 4.91 8.288 9.708 16.489 14.54 24.895.331.577.715 1.258 1.122 1.938.422.706 1.005 1.419 1.02 2.092-.338 1.354-1.214 2.486-1.887 3.826-.282.561-.604 1.196-.969 1.888-.265.501-.658 1.632-1.225 1.632-.403 0-.803-.856-1.122-1.377-3.534-5.756-6.856-11.349-10.254-17.191-.586-1.01-1.292-2.05-1.888-3.112-.801-1.429-1.478-2.55-2.193-4.03-.525-1.086-1.373-2.401-2.092-3.622-.263-.447-.658-.856-.663-1.225-.009-.577.994-1.824 1.275-2.296.454-.758.962-1.542 1.327-2.244.549-1.061.991-2.328 1.734-3.011z"/><path d="m51.987 52.821c-2.798.226-5.767.152-8.774.153-8.665.001-17.791.046-26.63-.052-1.038-.862-1.654-2.298-2.346-3.52-.338-.597-.765-1.187-1.123-1.786-.356-.596-.879-1.237-.816-1.989.405-.506 1.143-.306 1.684-.306 3.162 0 6.307-.051 9.54-.051 8.064 0 15.966-.101 23.925.051.617.424.851 1.172 1.225 1.785.748 1.228 1.516 2.44 2.295 3.724.372.614.9 1.224 1.02 1.991z"/><path d="m.003 48.688c.654-.568 1.607-.592 2.449-.765 2.085-.43 4.16-1.044 6.428-1.531.438-.093.962-.317 1.327-.306.729.024 1.152 1.135 1.53 1.734.929 1.472 1.546 2.626 2.398 4.03.361.596 1.046 1.491 1.071 2.143.034.881-.927 2.094-1.327 2.806-1.255 2.239-2.335 4.298-3.724 6.632-.246.414-.574 1.104-.918 1.122-.57.031-1.146-1.312-1.428-1.785-1.22-2.039-2.339-4.032-3.571-5.969-.074-.3-.208-.54-.306-.816-1.095-1.751-2.018-3.584-3.112-5.407-.34-.567-.867-1.157-.817-1.888z"/><path d="m59.333 65.115c-.955.271-1.97.153-2.959.153-5.07 0-10.323-.05-15.406-.051-8.931-.002-18.133.051-27.497.051-.924 0-1.933.222-2.806-.153.036-.572.369-1.057.612-1.48 1.23-2.141 2.424-4.297 3.724-6.529.45-.773.898-2.045 1.683-2.397.882-.396 2.859-.153 4.234-.153 10.381 0 21.697-.169 32.088.051.511.215.661.804.918 1.225 1.293 2.109 2.598 4.405 3.928 6.581.53.862 1.214 1.687 1.481 2.702z"/><path d="m78.31 57.616c.048.798-.489 1.526-.867 2.194-2.253 3.977-4.479 7.989-6.836 12.09-.284.494-.861 1.744-1.326 1.785-.555.05-1.28-.938-1.633-1.326-1.42-1.56-2.751-3.085-4.183-4.54-.336-.829-1.58-1.18-1.683-2.194-.074-.726.63-1.557.969-2.142.816-1.411 1.403-2.565 2.245-3.979.507-.853.844-1.953 1.989-2.092 1.739-.21 3.823 0 5.765 0h2.908c.902-.001 1.863-.163 2.652.204z"/></g></svg>