<svg enable-background="new 0 0 19.051 16.429" viewBox="0 0 19.051 16.429" xmlns="http://www.w3.org/2000/svg"><path d="m7.624.01c.592.963 1.141 1.954 1.735 2.916-1.391 2.37-2.78 4.742-4.169 7.114 1.336-.006 2.673.001 4.01-.004.065.009.169-.027.201.055.558.987 1.136 1.963 1.698 2.949-3.699-.002-7.399.006-11.099-.005 2.544-4.34 5.079-8.685 7.624-13.025z"/><path d="m5.901 9.63c1.883-3.206 3.751-6.421 5.627-9.63 2.161 3.7 4.329 7.397 6.49 11.097.349.58.679 1.172 1.032 1.749-1.154-.001-2.309-.006-3.463.002-.991-1.69-1.973-3.386-2.965-5.075-.362-.626-.723-1.254-1.099-1.873-.719 1.243-1.45 2.48-2.171 3.722-1.049-.017-2.098-.003-3.147-.007-.102-.002-.203.004-.304.015z"/><path d="m11.203 7.271c.106-.193.23-.376.319-.578 1.003 1.731 2.017 3.454 3.028 5.181.89 1.519 1.773 3.041 2.67 4.555-5.07 0-10.139.001-15.208 0 .53-.889 1.034-1.793 1.563-2.682.061-.098.117-.199.168-.302 2.684-.013 5.369-.002 8.053-.005-.702-1.205-1.393-2.415-2.094-3.62.514-.842 1.002-1.699 1.501-2.549z"/></svg>