<svg enable-background="new 0 0 84.139 84.591" viewBox="0 0 84.139 84.591" xmlns="http://www.w3.org/2000/svg"><g clip-rule="evenodd" fill-rule="evenodd"><path d="m70.797 11.367c3.64 3.186 6.591 7.389 8.969 12.118 2.345 4.662 4.02 10.276 4.324 16.71.328 6.913-1.015 13.281-3.096 17.99-2.173 4.917-4.738 9.411-8.168 12.866-4.35 4.742-9.329 8.084-15.695 10.677-6.023 2.453-14.914 3.777-22.796 2.136-7.025-1.464-12.916-4.405-18.044-8.275-4.877-3.679-9.109-8.921-11.852-14.467-2.747-5.555-4.979-13.352-4.324-21.781.629-8.089 3.006-14.458 6.513-19.806 3.385-5.161 7.851-9.711 13.24-13.08 5.377-3.361 12.063-6.024 20.126-6.405 7.166-.339 13.011 1.099 17.99 3.096 5.016 2.011 9.213 4.838 12.813 8.221zm-41.159-1.815c-.478 1.106-.489 2.383-.642 3.577-.792 6.239-1.66 12.425-2.455 18.631-.32 2.503-.704 4.994-.855 7.475 1.189.269 3.399.254 4.591 0 .525-2.162.179-5.196.802-7.261.981-.14 2.377-.163 3.363.106.454 2.243.326 5.093.907 7.207 1.38.043 3.324.195 4.537-.106.039-2.434-.292-4.887-.48-7.367-.376-4.953-.875-9.936-1.282-14.841-.206-2.484-.355-4.967-.747-7.367-2.351-.214-5.299-.108-7.739-.054zm20.819 9.769c-1.943.81-3.482 1.968-4.697 3.523-.461.59-1.442 1.95-1.441 2.67 0 .579.636 1.478.961 1.975.456.697.826 1.216 1.281 1.708 2.26 2.448 6.92 4.214 11.691 2.99 2.71-.696 5.065-2.628 6.353-4.645.331-.519.958-1.514.907-2.189-.032-.449-.69-1.217-1.067-1.762-.432-.622-.936-1.288-1.228-1.601-2.034-2.182-5.128-3.805-9.396-3.471-1.285.102-2.363.385-3.364.802zm5.553 33.473c1.881-1.587 2.252-5.267 1.228-7.527-1.043-2.302-3.784-3.111-7.101-3.203-.871-.024-1.801-.151-2.615-.054-5.063.609-12.533-.967-15.482 1.868-.909.875-1.737 2.921-1.067 4.912.198.589.619.714.908 1.389-.242.26-.618.128-.748.587-.114.406 0 1.187 0 1.814 0 .657-.078 1.332.16 1.655 3.653.171 7.837.115 11.531.106.768-.001 1.619-.001 2.296-.213.212-1.771.13-4.145-.054-5.873-.802-.233-2.382-.142-3.31 0-.372.411.056 1.621-.32 2.029-2.404.008-6.306.689-6.993-1.229-.221-.612-.124-1.599.319-2.028 1.07-.578 3.035-.427 4.752-.427 3.566-.001 6.824-.109 10.41-.054 1.724.026 3.587.154 4.004 1.228.217.56.104 1.185-.054 1.549-.663 1.53-3.616.982-5.499 1.281-.156.956-.223 2.702.054 3.576 2.896.329 5.961-.083 7.581-1.386zm-21.781 6.833c-.386.692-.259 2.471-.054 3.257.896.439 2.59.079 3.417.587.056.783.151 2.027-.054 2.723-.916.384-2.452.146-3.363.534-.212.915-.085 2.343.054 3.257 4.153-.235 8.481-.799 12.546-1.281 1.406-.168 2.835-.106 4.11-.588.188-1.802.083-4.203-.054-6.032-5.37-.947-11.094-1.826-16.602-2.457z"/><path d="m32.894 16.118c.046-.01.051.021.054.054.045-.01.05.021.053.053.352 1.925.321 4.036.48 6.086.159 2.041.507 4.047.374 5.926-.545.126-1.692.101-2.296-.053.208-4.046.711-8.259 1.335-12.066z"/><path d="m54.408 19.161c5.354-.524 8.585 5.54 5.766 9.823-.558.846-1.467 1.644-2.51 2.135-4.131 1.943-8.871-.904-9.022-5.498-.094-2.85 1.543-4.914 3.524-5.873.574-.277 1.471-.511 2.242-.587zm-4.698 3.844c-.264.559-.468 1.05-.534 1.762-.373 4.01 2.868 6.733 6.354 6.406 2.812-.264 5.273-2.668 5.178-5.926-.1-3.415-2.877-5.811-6.513-5.499-2.382.327-3.785 1.775-4.485 3.257z"/><path d="m54.355 22.791c2.259-.486 3.855 1.722 3.097 3.684-.807 2.087-4.29 2.118-5.072-.106-.58-1.649.481-3.266 1.975-3.578z"/><path d="m47.414 65.072c-2.109.315-4.819.584-6.939.534-.183-.438-.196-1.213 0-1.655.039-.05.097-.08.16-.107 1.632.197 3.614.475 5.285.747.531.088 1.135.122 1.494.481z"/></g></svg>