<svg enable-background="new 0 0 76.466 52.748" viewBox="0 0 76.466 52.748" xmlns="http://www.w3.org/2000/svg"><g clip-rule="evenodd" fill-rule="evenodd"><path d="m.168 52.419c-.254-8.458-.143-17.382-.148-26.098-.006-8.78-.037-17.434.148-26.097 14.439-.175 29.11-.197 43.431-.197 1.742 0 3.583-.092 3.644 1.477.032.842-1.303 2.323-1.772 2.856-2.13 2.416-4.621 4.806-6.696 7.091-2.933 3.23-5.916 6.436-8.864 9.504-6.137 6.388-11.87 12.761-17.775 19.007-2.968 3.172-5.936 6.343-8.916 9.503-.479.538-1.027 1.008-1.476 1.575-.531.424-.909 1.256-1.576 1.379z"/><path d="m76.344.174c.167 17.17.16 35.148 0 52.393-1.073.223-2.212.139-3.349.148-8.112.06-16.472.044-24.67-.099-.267-4.286-.146-8.672-.147-13.098-.001-8.735.002-17.603 0-26.393 0-4.385-.104-8.743.147-12.951 7.113-.21 14.988-.147 22.159-.147 1.969 0 3.955-.12 5.86.147z"/></g></svg>