<svg enable-background="new 0 0 162.058 164.395" viewBox="0 0 162.058 164.395" xmlns="http://www.w3.org/2000/svg"><g clip-rule="evenodd" fill-rule="evenodd"><path d="m22.909 25.084c3.38-3.438 6.899-6.736 10.85-9.587 7.875-5.68 16.987-10.271 27.757-13.115 7.605-2.008 17.287-2.927 26.407-2.048 13.669 1.317 24.331 5.437 33.77 10.894 3.752 2.168 7.123 4.824 10.415 7.451 1.625 1.297 3.148 2.801 4.706 4.227 1.555 1.423 3.062 2.969 4.401 4.532 2.734 3.19 5.395 6.476 7.756 10.109 4.656 7.161 8.551 15.558 10.808 24.882.147.612.306 1.204.436 1.83.131.631.139 1.302.261 1.961.678 3.65 1.304 7.67 1.482 11.896.243 5.763.062 11.462-.785 16.733-.31 1.933-.688 3.818-1.045 5.665-.125.644-.181 1.289-.306 1.917-.234 1.18-.661 2.339-1.002 3.486-1.706 5.736-3.859 10.974-6.493 15.774-2.11 3.848-4.455 7.421-7.016 10.851-2.537 3.399-5.394 6.61-8.453 9.412-1.576 1.444-3.069 2.914-4.706 4.227-1.656 1.327-3.33 2.61-5.099 3.835-3.498 2.422-7.202 4.548-11.242 6.58-1.979.995-4.124 1.818-6.275 2.658-6.407 2.501-13.739 4.202-21.919 4.88-11.683.968-22.569-.86-31.417-3.834-13.26-4.459-24.051-11.675-32.987-20.611-1.851-1.853-3.539-3.901-5.185-5.97-.336-.422-.591-.877-.915-1.308-8.315-11.033-14.477-23.992-16.603-41.44-.651-5.351-.678-11.286-.086-16.951 1.124-10.761 3.906-19.926 7.843-27.889 3.929-7.945 8.765-14.943 14.642-21.047zm39.958 14.947c-2.278 0-4.727-.026-6.666.13-.147 10.262.043 21.779.043 32.42 0 2.166-.032 4.33.044 6.362.085 2.297.013 4.314.305 6.231.282 1.855.723 3.556 1.395 5.186 2.517 6.107 6.948 10.526 12.768 13.465 3.042 1.536 6.417 2.344 10.589 2.527 4.226.186 7.743-.922 10.763-2.353 5.77-2.734 10.255-7.5 12.55-13.683 1.215-3.271 1.75-7.184 1.352-11.417-.36-3.816-1.643-7.089-3.269-9.848-3.167-5.377-8.35-9.571-14.903-11.33-3.554-.954-8.108-1.125-11.46 0-2.892.971-4.954 2.731-6.841 4.619-.239.239-.504.663-.916.653-.102-6.609-.174-13.388-.174-20.088 0-.93.092-1.885-.131-2.789-1.739-.156-3.58-.085-5.449-.085zm92.381 27.975c-2.961-4.609-6.78-7.97-12.201-10.153-3.631-1.462-9.182-2.161-13.683-1.133-3.621.827-6.487 2.176-9.151 4.053-3.41 2.404-6.241 5.752-8.018 9.63-1.844 4.024-2.869 9.352-1.874 14.903.888 4.944 2.937 8.771 5.709 11.939 2.699 3.085 6.284 5.621 10.458 7.146 4.414 1.614 10.415 1.693 15.208.262 2.164-.647 4.194-1.63 6.014-2.789 1.796-1.144 3.521-2.468 4.88-3.965 2.777-3.058 5.049-6.852 5.883-11.678-.919-.256-1.928-.087-2.92-.087-3.176 0-6.156.001-9.15.044-.801 1.03-1.296 2.364-2.223 3.268-1.61 1.813-3.759 3.182-6.449 3.878-3.014.779-6.357.186-8.672-.959-2.259-1.117-3.955-2.746-5.229-5.098-1.226-2.263-2.012-5.291-1.395-8.628.24-1.297.783-2.68 1.395-3.747 1.875-3.272 4.814-5.728 9.238-6.275 5.127-.634 8.864 1.658 11.111 4.227.809.924 1.352 2.034 2.049 3.137 2.784.102 6.049.131 9.15.131 1.039 0 2.085.082 3.007-.174-.461-3.054-1.688-5.676-3.137-7.932zm-101.662 18.999c.077-3.22.181-6.382-.174-9.151-.351-2.735-1.105-5.141-2.179-7.277-2.065-4.107-5.15-7.578-8.89-9.978-3.818-2.452-8.338-4.334-14.555-4.314-1.106.003-2.271.166-3.267.305-3.04.426-5.375 1.345-7.713 2.571-2.904 1.522-5.487 3.666-7.539 6.188-1.989 2.445-3.683 5.526-4.662 9.063-1.018 3.675-1.091 8.202-.218 12.201.781 3.582 2.434 6.639 4.4 9.282 1.957 2.627 4.529 4.8 7.277 6.449 2.78 1.668 6.24 3.047 10.458 3.268 2.337.122 4.341.036 6.188-.479 1.742-.485 3.229-1.2 4.662-2.222 1.06-.751 2.034-1.685 2.92-2.571.278-.279.554-.752 1.002-.741.13 2.035-.062 4.391.174 6.318 3.797.09 8.27.108 12.027-.13.273-6.089-.06-12.562.089-18.782z"/><path d="m80.733 68.398c3.935-.21 7.102 1.395 9.107 3.399 1.978 1.977 3.767 4.646 3.922 8.541.161 4.025-1.269 7.009-3.268 9.194-1.96 2.142-4.692 3.846-8.498 3.965-3.884.122-6.979-1.329-9.15-3.355-2.108-1.966-3.744-4.827-3.922-8.541-.201-4.2 1.393-7.151 3.269-9.194 1.433-1.561 3.318-2.883 5.795-3.573.901-.251 1.828-.386 2.745-.436z"/><path d="m37.463 89.62c-2.384 2.527-6.309 4.745-11.416 3.747-3.121-.609-5.543-2.284-7.321-4.401-1.684-2.004-2.878-5.455-2.702-8.89.117-2.264.945-4.2 1.961-5.839.272-.439.448-.853.741-1.22 1.881-2.357 5.22-4.386 9.238-4.575 2.95-.139 5.405.849 7.276 2.091 1.974 1.311 3.361 2.952 4.358 5.011 1.027 2.123 1.603 5.09 1.046 7.888-.509 2.56-1.628 4.622-3.181 6.188z"/></g></svg>