<svg enable-background="new 0 0 79.754 73.394" viewBox="0 0 79.754 73.394" xmlns="http://www.w3.org/2000/svg"><g clip-rule="evenodd" fill-rule="evenodd"><path d="m51.798 6.067c2.221-.819 4.199-2.019 6.262-3.056 1.546-.777 3.095-1.568 4.658-2.355.502-.252 1.015-.617 1.603-.601.256 9.229.051 18.341.051 27.752-.001 1.296-.138 2.74.05 3.958.096.624.671 1.447 1.052 2.204.374.745.678 1.56 1.002 2.204 1.835 3.653 3.347 7.054 5.159 10.721 2.507 5.07 5.007 9.997 7.515 15.179.247.511.646 1.156.602 1.453-.071.467-1.486 1.066-2.005 1.353-4.356 2.408-8.426 4.729-12.774 7.114-.702.385-1.356.961-2.204 1.102-2.765-4.951-5.324-10.039-7.966-15.079-2.639-5.037-5.286-10.069-7.814-15.179-.003-7.955-.001-16.795 0-25.248.001-1.937.051-3.962.051-6.162 0-.979.136-2.017-.851-1.653-.464.415-.227 1.133-.251 1.653-.418 8.872.308 19.003-.2 27.703-.564-.402-.791-1.12-1.102-1.704-3.501-6.562-6.781-13.477-10.319-20.087-.967-1.807-1.842-3.642-2.806-5.46-.31-.586-.484-1.294-1.052-1.704-.775.908-1.262 2.072-1.854 3.156-.597 1.093-1.045 2.247-1.602 3.356-3.283 6.529-6.991 12.974-10.319 19.486-.092.269-.264.693-.552.602-.079-9.282-.104-18.637.051-27.853 2.698-1.671 5.63-3.029 8.466-4.509 2.115-1.104 4.129-2.309 6.311-3.406.686-.345 1.364-.87 2.154-.952.242 1.157.045 2.433.101 3.657.054 1.193-.131 2.397.2 3.406 1.285-.405 2.503-1.094 3.757-1.703 3.511-1.707 7.461-3.635 10.871-5.36.603-.306.966.734 1.252 1.303.325.646.564 1.132.802 1.603.625 1.246.97 2.341 1.701 3.106z"/><path d="m30.457 12.429h.101c1.696 3.169 3.47 6.558 5.159 9.919.243.482.594 1.119.601 1.503.012.587-.503 1.251-.751 1.803-.821 1.825-1.668 3.439-2.305 5.36.382.337 1.007.2 1.553.2 1.579 0 3.496.058 5.109.1.632.591.962 1.44 1.352 2.204.804 1.571 1.517 3.184 2.354 4.759.414.778.9 1.535 1.103 2.404-.469.268-1.038.14-1.553.15-7.974.157-16.603-.049-24.797 0-.808.005-1.572-.017-2.354-.15.319-1.281 1.099-2.367 1.652-3.557.549-1.178 1.221-2.328 1.804-3.507 1.149-2.323 2.374-4.662 3.607-7.013 1.167-2.225 2.358-4.666 3.607-7.013.895-1.681 1.724-3.57 2.655-5.31.32-.6.561-1.302.951-1.753.039-.046.093-.075.152-.099z"/><path d="m32.461 42.586c.199 1.776.1 3.645.101 5.51.001 5.7.032 10.865-.101 16.431-1.274.893-2.717 1.489-4.107 2.204-1.359.699-2.683 1.513-4.058 2.204-2.096 1.054-4.196 2.078-6.313 3.156-.683.349-1.363.831-2.153.952-.122-7.687-.2-15.613-.051-22.943.051-2.498-.162-5.05.15-7.514 5.285-.162 11.397-.174 16.532 0z"/><path d="m14.527 44.64h.1c.055 6.77.147 14.439-.05 21.291-.462.521-1.155.749-1.753 1.052-3.573 1.81-7.265 3.822-10.921 5.661-.601.302-1.218.7-1.903.751 2.203-4.883 4.772-9.572 7.163-14.327 2.4-4.774 4.657-9.601 7.214-14.277.028-.073.078-.123.15-.151z"/><path d="m57.959 67.032c-.738.743-1.745 1.121-2.654 1.604-1.814.962-3.633 1.969-5.461 3.005-.898.51-1.785 1.119-2.805 1.403-.183-7.436-.101-15.558-.1-23.394 0-1.094-.072-2.569.1-3.306-.037-.082.099-.218.1-.1h.101c1.852 3.428 3.654 6.877 5.41 10.37 1.742 3.465 3.693 6.85 5.309 10.418z"/></g></svg>