<svg enable-background="new 0 0 72.965 67.506" viewBox="0 0 72.965 67.506" xmlns="http://www.w3.org/2000/svg"><g clip-rule="evenodd" fill-rule="evenodd"><path d="m72.965 67.41c-2.181.17-4.688.064-6.946.051-.841-1.125-1.421-2.443-2.119-3.695-.692-1.244-1.302-2.547-1.971-3.795-6.58-11.963-12.662-24.359-19.264-36.359-.608-1.105-1.064-2.264-1.626-3.398-1.932-3.908-4.052-7.746-6.109-11.578-.277-.518-.492-1.148-.985-1.527-.659.769-1.127 1.777-1.626 2.709-5.491 10.262-10.908 20.705-16.406 31.039-1.502 2.824-2.892 5.691-4.434 8.524-.51.935-1.082 1.869-1.379 2.906.84.285 1.769.197 2.66.197 13.953-.002 28.294-.02 42.173.098.771.826 1.18 1.979 1.725 3.006.269.508.581 1.018.837 1.527.262.522.633 1.033.64 1.627-9.534.123-19.385.164-29.117 0-9.643-.166-19.523.182-29.018-.15.129-.717.578-1.301.838-1.971.741-1.908 1.868-3.697 2.808-5.518 3.769-7.299 7.551-14.654 11.43-21.924 5.169-9.685 10.059-19.512 15.372-29.117 2.12-.082 4.581-.084 6.7 0 .559.475.914 1.293 1.281 1.971 1.881 3.475 3.59 7.131 5.468 10.641.75 1.4 1.527 2.793 2.267 4.188 2.972 5.611 5.883 11.262 8.967 16.801 3.092 5.555 5.876 11.291 8.967 16.85 2.693 4.846 5.261 9.783 7.883 14.682.371.693.774 1.442.984 2.215z"/><path d="m33.847 12.379c.015.004.034-.004.049 0 .46.141 1.073 1.637 1.379 2.217 1.226 2.322 2.455 4.725 3.646 6.996 1.669 3.186 3.219 6.336 4.828 9.41 2.857 5.459 5.675 10.887 8.572 16.357.415.783.938 1.541 1.133 2.414-.755.264-1.575.146-2.365.146-11.726.002-22.911-.1-34.635-.098-.757 0-1.582.115-2.315-.148.229-.869.718-1.633 1.133-2.414 6.145-11.549 12.188-23.219 18.426-34.732.029-.072.078-.121.149-.148z"/></g></svg>