<svg enable-background="new 0 0 83.299 76.699" viewBox="0 0 83.299 76.699" xmlns="http://www.w3.org/2000/svg"><g clip-rule="evenodd" fill-rule="evenodd"><path d="m83.14 44.422c.354 2.478-.007 5.21.101 7.986.03.784.157 2.012-.252 2.325-.582.446-2.33-.045-2.933-.151-6.582-1.159-10.803-5.158-12.939-10.716-1.374-3.572-.866-7.971-1.87-11.626-1.02-3.71-2.264-6.58-4.146-9.351-1.705-2.513-4.084-5.057-6.723-6.824-2.692-1.804-5.743-3.444-9.199-4.297-3.877-.955-8.295-1.019-12.131-.354-3.816.662-6.901 1.988-9.756 3.741-5.495 3.372-9.6 8.602-11.677 15.366-1.099 3.578-1.502 7.982-.858 12.029.58 3.657 1.936 7.129 3.589 9.907 3.417 5.745 8.587 10.027 14.81 12.232 3.49 1.236 7.556 1.8 11.727 1.365 3.499-.365 6.573-1.216 9.301-2.527.401-.193.88-.514 1.163-.506.691.02 1.532 1.434 1.921 1.87 1.522 1.713 3.109 2.979 4.953 4.448.277.222.904.537.91.96.006.445-1.08.988-1.567 1.264-1.861 1.054-3.511 1.906-5.61 2.729-5.289 2.075-12.645 3.023-19.461 1.972-3.227-.498-6.243-1.373-8.744-2.426-7.784-3.277-13.822-8.557-18.146-15.366-1.462-2.303-2.538-4.87-3.538-7.582-1.001-2.716-1.791-5.819-1.972-9.2-.194-3.659-.093-7.157.455-10.412 1.572-9.35 6.118-16.363 11.93-21.584 3.963-3.562 8.66-6.17 14.304-8.036 2.126-.704 4.394-1.107 6.976-1.365.872-.087 1.859-.185 2.729-.253 1.752-.137 3.443.096 5.055.152 4.646.162 8.852 1.474 12.435 2.981 2.374.999 4.605 2.343 6.622 3.741.993.688 1.976 1.507 2.881 2.325.92.83 1.877 1.629 2.68 2.477 1.752 1.852 3.068 3.854 4.447 5.914 2.739 4.089 4.795 9.096 5.661 15.062.408 2.81.268 6.35 1.567 8.745.556 1.022 1.823 1.913 3.033 2.324.725.252 1.647.172 2.272.661z"/><path d="m82.988 56.201c.416 1.443.124 2.873.202 4.549.026.575.05 1.448.05 2.325.001.749.095 1.813-.202 2.123-.635.664-3.779.076-4.65-.051-4.532-.658-7.963-2.124-11.171-4.397-4.155-2.945-7.418-6.684-9.502-11.222-1.072-2.333-1.903-5.08-2.274-8.138-.207-1.694-.162-3.33-.354-4.853-.183-1.445-.568-2.885-1.062-4.095-1.951-4.788-5.654-8.283-10.767-9.957-5.905-1.935-12.865-.024-16.024 3.134-3.425 3.425-6.608 7.769-5.863 14.658.343 3.169 1.312 5.411 2.78 7.633 1.467 2.22 3.131 3.967 5.156 5.206 3.04 1.861 7.746 3.178 12.686 2.072.637-.142 1.271-.348 1.972-.606.461-.171 1.468-.667 1.92-.556.579.142.991 1.424 1.214 1.921.819 1.832 1.801 3.212 2.932 4.853.183.265.525.708.506 1.011-.043.648-1.721 1.199-2.376 1.466-4.342 1.766-11.215 2.569-16.377 1.061-2.046-.598-3.81-1.192-5.561-2.072-6.646-3.344-11.662-9.263-13.748-16.883-.575-2.098-.911-4.37-.91-6.773 0-7.412 2.621-12.856 5.964-16.983 2.35-2.9 5.274-4.955 8.543-6.773 2.46-1.369 5.36-2.37 8.795-2.679 1.146-.104 2.503-.24 3.74-.253.845-.009 1.681.188 2.527.253 5.771.439 10.363 2.801 13.8 5.61 4.998 4.087 8.938 9.843 9.857 17.843.197 1.724.178 3.462.404 5.156.223 1.662.687 3.01 1.264 4.297.563 1.255 1.287 2.326 1.972 3.537 1.257 2.226 3.521 3.906 5.863 5.207 1.778.987 3.977 1.629 6.369 1.972.751.106 1.571.134 2.325.404z"/><path d="m83.038 66.866c.184 2.2.1 4.937.101 7.38 0 .784.131 1.615-.151 2.224-.783.246-1.61.086-2.376.051-5.661-.263-10.478-1.577-14.558-3.538-2.355-1.132-4.586-2.359-6.521-3.842-1.948-1.493-3.737-3.131-5.459-4.853-3.458-3.457-6.001-7.872-7.886-12.788-.92-2.4-1.68-5.406-2.123-8.239-.461-2.949.024-6.549-1.971-8.34-1.353-1.267-3.649-2.115-5.813-1.365-2.083.723-3.907 2.889-3.639 5.763.32 3.444 4.418 6.27 8.037 4.347.338-.18.687-.475 1.111-.707.279-.257.522-.774 1.011-.658.407.771.453 1.718.606 2.629.305 1.799.714 3.403 1.265 5.206.212.694.851 1.822.707 2.427-.176.742-1.661 1.047-2.376 1.264-1.037.313-1.925.535-2.982.657-7.043.808-11.99-2.679-14.709-6.673-2.021-2.968-3.563-6.731-2.882-11.372.297-2.024.906-3.892 1.77-5.46.845-1.535 2.022-2.772 3.083-4.144 2.635-2.21 5.715-3.837 10.16-4.145 1.752-.12 3.549.189 5.004.607 4.215 1.212 7.556 3.877 9.503 7.329.686 1.215 1.294 2.483 1.668 3.942.39 1.518.548 3.144.606 5.004.108 3.425.946 6.595 2.022 9.2 2.186 5.296 5.608 9.442 9.908 12.535 3.351 2.412 7.002 4.047 11.929 4.903.827.145 1.635.264 2.527.304.772.031 1.646-.016 2.428.352z"/></g></svg>