<svg enable-background="new 0 0 79.664 58.498" viewBox="0 0 79.664 58.498" xmlns="http://www.w3.org/2000/svg"><g clip-rule="evenodd" fill-rule="evenodd"><path d="m60.606 20.855c2.556 3.639 5.164 7.128 7.769 10.737 2.575 3.568 5.293 7.104 7.818 10.639 1.3 1.819 2.851 3.526 3.315 5.938.556 2.887-.453 5.42-1.831 7.076-1.399 1.682-3.354 2.997-6.037 3.216-2.826.229-5.295-.634-7.076-2.128-1.643-1.378-2.822-3.277-4.206-5.047-1.363-1.744-2.619-3.633-3.909-5.345-2.703-3.585-5.266-7.247-7.769-10.688-1.265-1.739-2.465-3.67-3.958-5.295-1.586-1.726-3.844-2.767-6.63-1.979-2.235.632-3.693 2.579-4.948 4.306-1.34 1.843-2.616 3.551-3.909 5.294-3.967 5.502-7.795 10.551-11.727 16.033-1.324 1.845-2.874 3.274-5.047 4.156-2.376.964-5.579.94-7.67-.1-2.866-1.425-5.291-4.477-4.701-8.956.35-2.656 1.701-4.389 3.019-6.186 3.246-4.425 6.375-8.769 9.748-13.311 3.929-5.292 7.739-10.706 11.628-16.081 1.277-1.766 2.67-3.473 3.909-5.295 2.532-3.724 5.047-7.446 10.836-7.818 3.404-.219 6.031 1.146 7.868 2.722 1.918 1.645 3.235 3.942 4.651 5.889 2.998 4.122 5.985 8.096 8.857 12.223z"/><path d="m39.328 31.841c2.683-.325 3.874 2.005 4.948 3.464 1.897 2.575 3.865 5.427 5.74 8.016.75 1.036 2.37 2.791 2.573 4.305.19 1.419-.683 2.694-1.88 3.068-1.29.402-3.725.05-5.394.05-4.66-.001-9.192.049-13.855 0-.908-.01-1.883.058-2.523-.149-1.002-.323-1.851-1.414-1.93-2.424-.071-.899.379-1.738.891-2.524 2.28-3.506 4.851-6.451 7.125-9.848.732-1.093 1.969-2.959 3.167-3.612.314-.171.687-.269 1.138-.346z"/></g></svg>