<svg enable-background="new 0 0 20.834 18.516" viewBox="0 0 20.834 18.516" xmlns="http://www.w3.org/2000/svg"><path d="m7.589 2.918c2.149-.972 4.292-1.956 6.445-2.918 1.724 3.989 3.462 7.973 5.188 11.962.545 1.226 1.057 2.467 1.612 3.689-2.149.944-4.299 1.886-6.443 2.842-2.276-5.188-4.528-10.386-6.802-15.575z"/><path d="m7.055 3.614c.737 1.659 1.453 3.327 2.182 4.989-1.921.853-3.837 1.718-5.759 2.566.854-1.734 1.65-3.497 2.497-5.235.348-.779.742-1.537 1.08-2.32z"/><path d="m5.103 11.28c1.472-.675 2.941-1.353 4.413-2.026 1.351 3.084 2.68 6.178 4.033 9.26-2.809-1.693-5.633-3.359-8.447-5.043-.697-.401-1.372-.841-2.079-1.223.682-.346 1.39-.64 2.08-.968z"/><path d="m0 18.516c.904-1.867 1.77-3.752 2.676-5.618 1.417.854 2.838 1.703 4.256 2.556-2.122.941-4.25 1.872-6.376 2.804-.19.077-.377.159-.556.258z"/></svg>