<svg enable-background="new 0 0 75.511 72.873" viewBox="0 0 75.511 72.873" xmlns="http://www.w3.org/2000/svg"><path clip-rule="evenodd" d="m.255 0c12.778.016 25.271.023 37.95.146 1.816 2.814 3.409 5.787 5.04 8.724 1.625 2.926 3.321 5.82 4.992 8.724 2.924 5.08 5.808 10.191 8.725 15.316.4.704.684 1.526 1.309 2.084.264-1.384.146-2.82.146-4.265-.001-10.229-.071-20.248.097-30.486 5.366-.157 11.473-.185 16.818.048.258 9.022.146 18.254.146 27.481-.002 15.203.104 30.093-.049 44.977-2.984.199-6.097.097-9.209.097-9.117-.001-18.644-.065-27.82-.097-.629-.63-.975-1.472-1.405-2.229-3.011-5.293-6.061-10.723-9.111-16.091-1.752-3.083-3.401-6.226-5.138-9.306-1.299-2.302-2.605-4.579-3.926-6.882-.424-.74-.794-1.567-1.454-2.132-.277 1.454-.116 2.971-.146 4.459-.203 10.289.255 21.577-.097 32.037-5.689.177-11.429.133-16.964-.048-.177-9.163-.098-18.433-.097-27.578.001-10.601-.049-20.745-.049-31.406 0-3.868 0-7.195 0-11.196 0-.774-.064-1.833.098-2.229.026-.072.075-.121.144-.148zm34.073 30.486c-2.427-4.454-5.061-8.999-7.561-13.329-.249-.432-.356-.91-.582-1.357-.646-1.289-1.486-2.51-2.181-3.781-2.115-3.873-4.354-7.651-6.543-11.438-.032 0-.065 0-.097 0-.062.02-.099.062-.097.146-.089 1.306-.049 2.896-.049 4.362v26.075c0 1.409-.119 2.838.146 4.217 4.783.13 9.963.145 14.782.145 1.641 0 3.304.116 4.847-.145-.699-1.729-1.78-3.269-2.665-4.895zm20.065 5.089c-5.595.001-11.545-.184-16.915.048.163.87.734 1.581 1.163 2.327 6.131 10.655 12.271 21.39 18.225 32.085.422.759.773 1.613 1.453 2.181.248-12.577.157-24.42 0-36.544-1.264-.2-2.587-.097-3.926-.097z" fill-rule="evenodd"/></svg>