<svg enable-background="new 0 0 85.333 69.783" viewBox="0 0 85.333 69.783" xmlns="http://www.w3.org/2000/svg"><g clip-rule="evenodd" fill-rule="evenodd"><path d="m32.709.165c-.389 1.547-1.178 2.934-1.763 4.406-1.151 2.903-2.439 5.779-3.68 8.657-.632 1.466-1.104 2.987-1.711 4.457-4.771 11.564-9.889 22.994-14.722 34.575-2.11 5.058-4.309 10.108-6.376 15.188-.284.699-.512 1.462-.984 2.074-1.026.058-2.531.148-3.473-.051.079-.788.464-1.529.778-2.229 4.767-10.652 8.966-21.689 13.736-32.45 3.764-8.49 7.311-17.274 11.041-25.97.298-.695.664-1.423.934-2.177.266-.745.452-1.507.777-2.281.261-.623.58-1.335.933-2.125.284-.634.753-1.822 1.037-2.073.038-.048.095-.079.155-.104 1.079.062 2.411-.129 3.318.103z"/><path d="m40.381.165c-.033.806-.479 1.512-.777 2.229-3.902 9.351-7.942 18.747-11.922 28.147-.616 1.454-1.158 2.941-1.763 4.406-3.596 8.714-7.381 17.319-10.989 26.022-.599 1.443-1.233 2.865-1.866 4.303-.621 1.41-1.085 2.913-1.866 4.25-.981.199-2.536.133-3.474-.052.046-.802.472-1.517.778-2.229 4.616-10.729 9.183-21.575 13.736-32.45 2.391-5.71 4.853-11.517 7.258-17.417 2.024-4.971 4.275-10.004 6.428-15.136.295-.703.715-1.773 1.036-2.073.038-.048.095-.079.155-.104 1.065.06 2.371-.124 3.266.104z"/><path d="m47.846.165c-.221 1.179-.828 2.231-1.296 3.317-4.121 9.57-8.154 19.341-12.285 28.977-.913 2.13-1.872 4.282-2.747 6.428-1.779 4.36-3.859 8.616-5.34 13.011-.507 1.505-1.256 2.959-1.866 4.458-1.214 2.982-2.564 5.879-3.783 8.864-.597 1.459-1.13 2.981-1.919 4.354-.928.108-2.493.117-3.473-.052.035-.804.473-1.522.777-2.229 2.149-4.987 4.335-10.117 6.428-15.188 2.398-5.808 4.832-11.616 7.257-17.417 3.631-8.683 7.297-17.323 11.042-25.97 1.244-2.875 2.288-5.829 3.732-8.605 1.034-.057 2.523-.146 3.473.052z"/><path d="m55.673.165c3.596 7.944 6.983 16.047 10.471 24.104 2.624 6.062 5.035 12.21 7.725 18.247.669 1.504 1.276 2.987 1.917 4.561.197.483.519 1 .467 1.555-11.337.148-23.637 0-35.715 0-1.792 0-3.759-.042-5.288.052-.609.98-1.098 2.081-1.399 3.369.865.282 1.799.156 2.695.156 13.836 0 27.907.072 41.366.208.598.94 1.091 1.984 1.399 3.214-1.884.324-3.811.104-5.754.104-13.663 0-27.82-.132-41.21 0-.45.35-.603.974-.829 1.503-.232.541-.525 1.098-.622 1.71.944.362 2.014.208 3.006.208 15.627-.001 31.931-.004 47.017.208.412.403.54 1.036.777 1.606.217.523.645 1.063.57 1.659-17.524.226-35.561-.184-52.874 0-.669.972-1.136 2.147-1.503 3.421 1.07.303 2.216.132 3.317.156 8.177.178 16.574.052 24.778.052 9.476 0 18.97.065 27.939.208.47.338.585 1.008.829 1.555.238.532.646 1.101.571 1.711-20.918.111-41.97.042-62.464-.156.024-.798.487-1.504.777-2.229.294-.733.634-1.449.934-2.177.597-1.454 1.319-2.903 1.762-4.406.443-1.501 1.2-2.918 1.814-4.406 7.16-17.344 14.705-34.669 22.084-52.098.278-.658.602-1.373.933-2.177.352-.853.58-1.907 1.296-2.022 1.045-.167 2.236.057 3.214.104zm-13.581 32.19c-.488.927-.916 2.092-1.348 3.162-.864 2.142-1.803 4.211-2.695 6.272-.451 1.042-.985 2.103-1.192 3.214 2.042.32 4.321.104 6.531.104 1.479 0 3.105.234 4.458-.104-.197-1.125-.774-2.176-1.244-3.266-1.16-2.688-2.278-5.305-3.474-8.034-.218-.499-.482-1.457-.881-1.503-.074.029-.126.081-.155.155z"/></g></svg>