<svg enable-background="new 0 0 87.064 68.663" viewBox="0 0 87.064 68.663" xmlns="http://www.w3.org/2000/svg"><g clip-rule="evenodd" fill-rule="evenodd"><path d="m18.509.064c.271 2.478.155 5.127.155 7.775v15.758c0 2.63-.094 5.058-.726 7.205-1.146 3.895-3.48 7.316-6.272 9.59-2.904 2.366-6.602 4.112-11.456 4.303-.305-.88-.156-2.501 0-3.421 4.112-.582 7.45-1.928 9.85-4.25 1.863-1.734 3.297-3.658 4.302-6.272 1.023-2.66.882-5.983.882-9.693 0-6.008 0-12.405 0-18.506 0-.825-.12-1.704.155-2.488.923-.084 2.187-.089 3.11-.001z"/><path d="m21.463.064c1.022.032 2.175-.066 3.11.052.278 5.835.09 12.083.155 18.298.036 3.314.055 6.42-.207 9.279-.779 8.51-4.849 14.226-10.212 18.247-3.636 2.726-8.141 4.656-14.1 4.769-.282-.848-.19-2.541-.052-3.473 5.199-.539 9.27-2.045 12.493-4.614 3.169-2.526 5.727-5.621 7.309-9.797.821-2.168 1.113-4.557 1.244-7.309.131-2.746-.116-5.648-.052-8.501.104-4.605.052-9.779.052-14.722 0-.743-.075-1.717.104-2.073.03-.075.081-.127.156-.156z"/><path d="m27.58.064c.971.032 2.069-.066 2.954.052.164 7.177.156 14.381.156 21.512 0 3.635-.054 7.103-.726 10.16-1.938 8.805-6.683 15.365-13.219 19.646-4.37 2.862-9.655 5.266-16.536 5.184-.271-.784-.199-2.401-.052-3.266 1.214-.3 2.347-.216 3.525-.363.65-.082 1.372-.271 2.021-.415 4.377-.97 8.148-3.254 11.145-5.598 3.572-2.794 6.497-6.428 8.294-10.834.947-2.321 1.656-4.826 1.918-7.672.267-2.905.207-6.017.207-9.382.001-5.29-.164-11.139 0-16.743.023-.776-.088-1.749.156-2.177.04-.049.095-.079.157-.104z"/><path d="m36.392.168c.206 8.073.155 16.122.155 24.208 0 4.183-.336 7.929-1.296 11.197-1.4 4.767-3.501 8.991-6.221 12.493-.908 1.17-1.901 2.224-2.903 3.318-1.995 2.179-4.327 3.924-6.894 5.598-2.479 1.617-5.35 2.987-8.554 3.939-3.173.944-6.679 1.949-10.574 1.659-.034-1.003-.2-2.583.103-3.421 1.854-.244 3.59-.297 5.235-.57 4.817-.8 8.888-2.787 12.39-4.976 4.738-2.963 8.401-7.019 11.196-11.975 1.401-2.485 2.494-5.307 3.214-8.397 1.462-6.274.832-14.609.882-22.083.019-2.845-.037-5.62.052-8.449.027-.859-.161-1.764.155-2.592.899-.058 2.246-.146 3.06.051z"/><path d="m42.095.271c.104 4.167.103 8.46.104 12.596 0 4.225.137 8.542 0 12.907-.131 4.184-.662 8.055-1.607 11.508-1.184 4.324-3.095 8.288-5.184 11.715-3.176 5.21-7.799 9.333-12.855 12.7-2.882 1.919-6.275 3.485-9.9 4.717-1.805.613-3.837 1.104-5.858 1.451-2.09.359-4.314.598-6.583.519-.296-.877-.246-2.239-.052-3.11.948-.386 1.978-.289 2.903-.363 6.759-.539 12.592-2.855 17.158-5.702 7.372-4.597 12.83-10.903 16.276-19.646.323-.822.462-1.624.726-2.54.987-3.434 1.658-6.893 1.659-11.404 0-5.935-.001-12.656 0-19.18 0-1.007-.04-2.13 0-3.266.028-.843-.113-2.568.207-2.955.038-.048.095-.079.155-.103.919.083 2.182-.178 2.851.156z"/><path d="m48.055.219c.187 8.456.104 17.565.104 25.867 0 4.202.668 7.849 1.711 11.249 1.013 3.304 2.46 6.389 4.095 8.916 1.734 2.682 3.48 5.309 5.702 7.361 2.251 2.078 4.587 3.958 7.309 5.702 2.646 1.695 5.569 3.043 8.864 4.147 3.293 1.103 6.984 1.659 11.041 1.97.143.835.231 2.463-.052 3.214-3.254.142-6.363-.503-9.123-1.192-.949-.237-1.934-.381-2.799-.674-1.742-.59-3.396-1.324-4.977-2.022-1.621-.716-3.032-1.583-4.458-2.488-2.87-1.822-5.464-3.752-7.827-6.117-2.342-2.342-4.499-4.788-6.221-7.724-.869-1.483-1.685-2.938-2.436-4.562-2.162-4.667-3.917-10.151-4.147-16.795-.075-2.169.052-4.5.052-6.843-.001-4.395-.101-8.905-.052-13.581.017-1.652-.003-3.224.052-4.976.015-.479-.164-1.092.207-1.503.867-.059 2.172-.143 2.955.051z"/><path d="m53.913.219c.198 1.771.155 3.593.156 5.443 0 5.424-.001 11.421 0 17.106 0 2.018-.052 3.901.102 5.702.452 5.271 2.001 9.498 4.096 13.27 1.386 2.497 2.944 4.75 4.82 6.791 4.565 4.965 10.736 8.753 18.714 10.315 1.626.318 3.324.285 5.132.622.165.906.172 2.464 0 3.369-3.844.197-7.411-.708-10.575-1.762-3.157-1.053-6.053-2.276-8.501-3.992-2.461-1.724-4.864-3.484-6.895-5.65-1.996-2.129-3.875-4.485-5.339-7.154-2.186-3.982-4.141-8.467-4.77-14.047-.212-1.887-.176-3.824-.155-5.858.075-7.196.001-14.422 0-21.253 0-.964-.125-2.001.155-2.955.9-.056 2.246-.143 3.06.053z"/><path d="m59.822.271c.19 6.407.102 13.431.104 20.009.001 3.481-.099 6.786.363 9.693 1.342 8.448 5.976 14.315 11.663 18.506 3.274 2.412 7.694 4.234 12.752 4.873.719.09 1.495-.012 2.23.259.121.89.102 2.33 0 3.213-.801.256-1.661.074-2.437 0-4.057-.387-7.618-1.597-10.627-3.11-1.205-.606-2.271-1.352-3.369-2.074-4.345-2.857-7.843-6.801-10.315-11.611-1.855-3.606-3.344-7.746-3.577-12.907-.075-1.672.004-3.427-.052-5.184-.195-6.247 0-12.827 0-19.18 0-.837-.119-1.728.155-2.54.807-.148 2.383-.219 3.11.053z"/><path d="m65.887.219c.275 1.106.155 2.271.155 3.421-.001 5.783.001 11.855 0 17.728-.001 2.375-.119 4.74.052 6.998.215 2.828 1.359 5.401 2.488 7.516 1.195 2.24 2.688 4.063 4.406 5.599 2.565 2.372 5.724 4.295 9.693 5.287 1.337.334 2.764.39 4.251.726.165.986.094 2.471-.053 3.473-5.84-.059-10.284-2.157-13.943-4.769-3.42-2.44-6.633-6.173-8.294-10.522-.861-2.257-1.67-4.603-1.97-7.465-.299-2.848-.156-5.857-.155-9.227 0-5.274-.001-10.973 0-16.484 0-.757-.094-1.969.155-2.229.038-.048.094-.079.155-.104 1.007.033 2.141-.065 3.06.052z"/><path d="m71.848.323c.226 4.106.064 8.308.156 12.544.091 4.26-.053 8.592-.053 12.804.001 4.901 1.99 8.313 4.561 10.886 1.927 1.928 4.124 3.515 7.206 4.355 1.003.273 2.098.274 3.214.622.145.919.221 2.583-.053 3.421-4.938-.142-8.454-2.155-11.403-4.458-3.123-2.801-5.714-6.396-6.636-11.352-.31-1.666-.259-3.536-.259-5.598 0-6.663-.188-13.975 0-20.372.026-.906-.128-2.54.155-2.851.038-.048.095-.079.155-.103.961.059 2.168-.128 2.957.102z"/></g></svg>