<svg enable-background="new 0 0 35.932 30.503" viewBox="0 0 35.932 30.503" xmlns="http://www.w3.org/2000/svg"><path d="m17.074.53c.221-.544 1.032-.762 1.368-.202 1.218 1.984 2.407 3.988 3.598 5.988.226.321.115.734-.091 1.033-2.751 4.62-5.469 9.258-8.219 13.877-.408.446-.603 1.33.18 1.49 2.597.041 5.2-.001 7.799.001.555.041.973-.621.642-1.089-1.134-1.853-2.264-3.71-3.366-5.582-.241-.427-.002-1.029.506-1.094 2.394-.109 4.796-.036 7.193-.07.26-.019.518.097.677.305 2.226 3.891 4.647 7.681 6.926 11.547.559.837.978 1.774 1.609 2.557.139.513-.147 1.14-.743 1.093-11.537.089-23.076.117-34.615.119-.686-.135-.648-.985-.274-1.423 5.641-9.496 11.207-19.033 16.81-28.55z"/></svg>