<svg enable-background="new 0 0 74.269 26.726" viewBox="0 0 74.269 26.726" xmlns="http://www.w3.org/2000/svg"><g clip-rule="evenodd" fill-rule="evenodd"><path d="m36.956.252c.35.951.198 2.128.198 3.23 0 1.134.073 2.252.1 3.33.021.834-.1 1.722-.1 2.584 0 .873.08 1.735-.099 2.535-.593.448-1.713-.14-2.336.348-.367.287-.427 1.457-.05 1.839.451.459 1.724-.034 2.336.348.268 1.046.148 2.205.148 3.38v6.063c0 .88.107 1.76-.148 2.535-1.885.296-3.915.149-5.965.149-4.106 0-8.292.12-12.326 0-1.056-.031-2.118.048-3.132 0-.939-.044-1.885.083-2.732-.248-.445-.634.179-1.789-.299-2.336-.401-.46-1.699-.189-2.236 0-.348.548.053 1.842-.299 2.386-1.471.252-3.223.099-4.97.1-.825 0-1.656-.033-2.485-.05-.853-.017-1.742.122-2.485-.149-.195-1.065.024-2.215.198-3.281 1.056-6.454 1.802-13.313 2.735-19.93.147-1.047.134-2.169.646-3.081 10.993-.03 22.278.152 33.301.248zm-18.787 20.776c-.102-4.997 0-10.06 0-15.309 0-.889.079-2.381-.299-2.684-.357-.286-1.908-.134-2.635-.099-2.174.103-3.717-.05-5.865-.05-.982 0-2.088-.237-2.932-.05-.684.151-.73 1.467-.846 2.336-.58 4.426-1.248 8.752-1.738 12.973-.207 1.771-.645 3.549-.548 5.169.856.337 2.122.199 3.28.199 1.168 0 2.396.218 3.231-.149.488-1.286-.133-3.378.398-4.623.676-.146 1.898-.111 2.535.1.316 1.37-.025 3.164.298 4.572 1.271.299 3.538.299 4.871.05.38-.72.266-1.623.25-2.435zm11.133-9.245c.333.29 1.827.188 2.436.199.666.011 2.081.07 2.386-.249.277-.292.198-1.415.198-2.187 0-.874-.031-1.502 0-2.336.038-1.021.337-3.478-.148-4.026-.342-.385-2.185-.199-3.032-.199-2.757 0-5.46-.033-8.002-.049-.518-.004-1.417-.077-1.74.049-.683.267-.499 2.478-.497 3.43.013 4.168.051 9.071.051 13.519 0 1.262-.146 2.519.198 3.529.962.294 2.044.199 3.131.199h6.562c1.114 0 2.223.114 3.23-.149.448-1.179.24-2.824.248-4.374.009-1.542.127-3.166-.198-4.424-1.259-.335-3.602-.29-4.871 0-.646.73.306 3.237-.348 3.827-.328.296-2.216.314-2.535-.05-.334-.38-.149-2.23-.149-3.131 0-1.151.059-2.053.05-3.131-.011-1.451-.21-3.089.149-4.026.656-.22 1.927-.218 2.534.05.55.913-.343 2.927.347 3.529z"/><path d="m51.023 2.886c-.573.224-1.235.099-1.889.099-1.991 0-4.156-.02-6.164.05-1.117.039-2.281.023-3.23-.199-.317-.5-.271-1.913-.05-2.485.747-.298 2.092-.154 3.28-.199 1.687-.063 3.652.05 5.518.05.887 0 2.172-.208 2.535.149.464.457.208 1.969 0 2.535z"/><path d="m72.295 12.031c-.517.538-1.806-.173-2.236.447-.325.467.007 1.471.348 1.839.593.235 1.712-.055 2.236.249.399.861.403 1.894.547 2.883.287 1.979.543 4.033.795 6.064.126 1.01.376 2.014.249 2.982-1.341.405-3.189.153-4.771.149-3.861-.011-7.919 0-11.929 0-1.288 0-2.608.12-3.827-.149-.414-1.129-.138-2.57-.149-3.877-.054-6.246.049-13.261.05-19.981 0-.808-.212-1.705.248-2.385 4.773-.09 10.214-.05 15.011-.05.556 0 1.599-.035 1.839.149.394.3.47 2.178.547 2.833.228 1.922.524 4.019.795 5.964.13.94.451 1.91.247 2.883zm-15.656-8.946c-.466.48-.348 1.196-.348 1.839 0 5.082-.068 10.512-.05 15.408.004 1.059.003 2.247.148 3.181.804.343 1.736.199 2.635.199 1.915 0 3.786.085 5.566 0 .95-.045 1.889.12 2.783.1.272-.006.567-.1.846-.1.929 0 2.027.317 2.832-.149.104-2.115-.449-4.599-.745-6.809-.078-.586-.078-1.81-.547-2.088-.555-.329-1.815-.1-2.684-.1-.998 0-1.959-.103-2.635.149-.426.999.158 3.008-.348 3.927-.725.152-1.916.263-2.485-.1-.185-3.486-.091-6.945 0-10.239.552-.288 2.04-.319 2.585 0 .315.96-.175 2.726.298 3.529.676.288 1.668.11 2.585.149.893.037 1.866.2 2.436-.199.111-2.099-.569-4.45-.796-6.511-.08-.731.014-1.54-.447-2.087-3.943-.279-7.906-.166-11.629-.099z"/><path d="m12.701 8.105c.215.943.197 2.129.199 3.231.002.896-.016 1.82 0 2.684.012.668.004 1.335-.199 1.889-.615.249-2.035.24-2.534-.1-.341-1.695-.063-4.243-.149-6.262-.023-.548-.193-1.185.199-1.541.716-.039 1.923-.179 2.484.099z"/><path d="m46.549 8.204c.588.733-.228 3.083.397 3.628.69.602 2.981-.184 3.927.199.447.368.362 1.765.149 2.336-.994.531-3.188-.138-4.176.398-.531.78.407 3.204-.298 3.827-.284.251-.74.088-1.094.099-.569.018-1.252.252-1.491-.199-.244-1.086.171-2.848-.298-3.777-1.028-.43-3.075.159-4.026-.348-.034-.71-.409-1.878.1-2.286.745-.597 3.373.456 4.076-.397.477-1.229-.61-3.298.695-3.579.487-.104 1.587-.08 2.039.099z"/><path d="m51.023 23.861c.147.676.199 2.032-.05 2.634-.836.264-1.814.149-2.783.149-1.872 0-3.844 0-5.767 0-.95 0-1.913.117-2.733-.149-.267-.588-.184-1.967-.05-2.634 1.122-.268 2.427-.149 3.728-.149 2.106 0 4.053-.003 6.064 0 .574.001 1.165-.2 1.591.149z"/></g></svg>