<svg enable-background="new 0 0 74.797 59.982" viewBox="0 0 74.797 59.982" xmlns="http://www.w3.org/2000/svg"><g clip-rule="evenodd" fill-rule="evenodd"><path d="m37.082.02c5.113-.274 9.362 2.37 11.81 5.098 1.317 1.468 2.343 3.286 3.381 5.047 3.17 5.375 6.13 10.627 9.387 15.948 3.393 5.543 6.205 10.563 9.438 15.898 1.065 1.757 2.258 3.532 3.028 5.4.898 2.18.888 4.96 0 7.016-1.185 2.742-3.904 4.875-7.318 5.35-1.195.166-2.594.101-4.088.101-16.396 0-32.795.101-49.914.101-2.891 0-5.768.097-7.671-.757-3.298-1.48-6.487-6.282-4.543-11.255.351-.897.916-1.854 1.464-2.775.533-.896.955-1.871 1.463-2.725 3.215-5.405 6.043-10.359 9.387-15.948 1.045-1.747 2.197-3.444 3.129-5.3.93-1.85 2.077-3.628 3.079-5.35.97-1.665 1.985-3.537 3.079-5.35 1.063-1.762 2.025-3.577 3.381-5.047 1.956-2.119 4.371-4.003 7.773-4.896 1.193-.314 2.497-.489 3.735-.556zm-4.441 6.258c-1.327.606-2.364 1.322-3.23 2.171-1.835 1.798-3.098 4.261-4.34 6.41-1.338 2.315-2.646 4.571-3.937 6.813-1.321 2.295-2.722 4.477-4.038 6.763-3.273 5.687-6.61 11.279-10.044 16.857-.715 1.162-1.484 2.261-1.867 3.533-.991 3.293 1.294 5.791 4.038 6.258 2.394.407 5.135.202 7.772.202h24.074c4.964 0 10.3.05 15.747.05 2.704 0 5.651.194 7.974-.101 2.335-.296 3.908-1.715 4.492-3.633.869-2.857-1.451-5.326-2.422-7.016-1.251-2.175-2.515-4.208-3.685-6.207-1.308-2.237-2.325-4.128-3.583-6.258-2.464-4.171-5.032-8.237-7.318-12.416-1.127-2.06-2.335-4.183-3.583-6.309-.611-1.042-1.197-2.043-1.867-3.028-1.379-2.025-2.936-3.452-5.451-4.441-1.279-.503-2.932-.721-4.29-.656-1.606.075-3.114.403-4.442 1.008z"/><path d="m59.137 47.31c-.829.401-1.949.157-3.028.151-3.053-.017-6.493.157-9.589 0-.624-.368-.897-1.113-1.262-1.716-.371-.612-.798-1.246-1.009-1.968-4.373-7.679-9.128-15.02-13.476-22.762-.609-1.085-1.424-2.115-1.817-3.331.891-.265 1.885-.151 2.877-.151 3.297 0 7.271-.05 10.295.05 1.127 1.261 1.78 2.885 2.574 4.492 1.061 2.148 2.438 4.196 3.634 6.309 3.267 5.768 6.743 11.494 10.043 17.311.285.5.686 1.017.758 1.615z"/><path d="m32.489 32.724c-.514.275-1.32.151-2.069.151-2.082.001-4.549.082-6.511-.101.117-.73.604-1.326.959-1.917 1.059-1.766 2.092-3.67 3.231-5.4.037-.047.091-.077.151-.101h.101c1.12 1.764 2.187 3.626 3.23 5.501.333.598.846 1.154.908 1.867z"/><path d="m34.205 36.964c-.222 1.003-.946 1.806-1.463 2.675-.527.885-1.05 1.782-1.564 2.675-1.03 1.787-2.056 3.605-3.281 5.198-4.173-.078-8.707.151-12.567-.101.283-1.008.963-1.846 1.464-2.725.998-1.754 1.968-3.536 3.028-5.299.513-.853.948-1.781 1.666-2.473 4.072-.068 8.602-.145 12.717.05z"/></g></svg>