<svg enable-background="new 0 0 71.964 74.476" viewBox="0 0 71.964 74.476" xmlns="http://www.w3.org/2000/svg"><g clip-rule="evenodd" fill-rule="evenodd"><path d="m27.886 1.756c2.123 2.44 4.315 4.81 6.43 7.257 1.058 1.223 2.19 2.377 3.262 3.582 1.072 1.207 2.083 2.481 3.353 3.491 1.953-.05 3.642-.727 5.374-1.103.891-.193 1.772-.335 2.663-.551 3.388-.825 6.87-1.515 10.519-2.342.855-.194 1.935-.656 2.664-.551.55.079 1.071.884 1.516 1.424 2.211 2.689 4.05 5.575 5.419 9.048.544 1.378 1.21 2.762 1.517 4.271.326 1.609.697 3.183.964 4.869.666 4.215.46 9.161-.321 13.228-.169.875-.354 1.976-.781 2.297-.523.393-1.739.55-2.571.734-2.608.577-5.357 1.257-7.946 1.837-3.62.812-7.198 1.593-10.563 2.526-.455.42-.773 1.802-1.057 2.709-.301.964-.554 1.909-.781 2.756-.239.893-.609 1.77-.872 2.664-1.191 4.055-2.292 8.198-3.629 12.355-.172.536-.353 1.086-.597 1.286-.415.341-1.473.418-2.389.551-4.486.648-9.015.45-13.136-.46-4.835-1.067-8.765-2.796-12.354-5.19-1.135-.756-2.166-1.615-3.354-2.526-.478-.367-1.098-.814-1.608-1.332-.424-.427-1.228-1.119-1.288-1.606-.052-.413.215-.825.367-1.378.143-.522.234-1.012.367-1.378.34-.939.521-1.932.734-2.756.963-3.71 2.184-7.032 3.262-10.655.243-.82.489-1.734.78-2.71.228-.761.845-1.907.781-2.664-.035-.418-.534-.846-.827-1.194-.949-1.13-1.837-2.052-2.802-3.123-.99-1.026-1.945-2.008-2.894-3.077-.9-1.016-1.632-2.229-2.664-3.261-1.48-1.48-2.679-3.112-4.179-4.731-.443-.478-1.186-1.249-1.24-1.791-.072-.704.451-1.672.78-2.343.395-.804.641-1.55.965-2.159 1.499-2.809 2.848-5.326 4.822-7.624 3.922-4.562 8.35-8.016 14.33-10.564.699-.298 1.51-.542 2.297-.827.82-.297 1.598-.646 2.342-.735 1.239-.147 1.518 1.231 2.345 1.746zm-8.36 7.9c-.404-.358-1.956-.263-2.664-.229-.349.017-1.497-.01-1.745.138-.262.156-.308.735-.413 1.24-.303 1.444-.553 3.024-.781 4.317-.381 2.162-.733 3.987-.78 5.879.027.002.055.007.046.046.388.289 1.168.224 1.699.138.576-.312.288-1.497.873-1.883.362-.24 1.579-.226 1.929 0 .525.34.211 1.458.78 1.837.761.114 1.92.258 2.572-.046.252-.741.101-1.546 0-2.296-.102-.762-.231-1.534-.321-2.296-.201-1.7-.609-3.461-.643-5.098-.316-.536-.124-1.368-.552-1.747zm41.567 15.341c-.424 1.142-.6 2.932-.781 4.271-.06.445.022 1.088-.459 1.24-.356-.281-.348-.825-.459-1.286-.345-1.422-.374-3.176-.965-4.317-.835-.151-1.784-.097-2.71-.092-.692.004-1.474-.005-2.066.184-.312.698-.184 1.678-.184 2.664-.001 1.881-.037 3.639.045 5.512.038.851-.217 2.258.185 2.71.349.393 1.298.148 1.699.092.415-.497.275-1.317.275-2.067 0-1.281.046-2.482.046-3.721 0-.467-.133-1.079.275-1.286.475.993.644 2.285.873 3.537.23 1.256.336 2.567.872 3.537 1.101.171 2.38.235 3.445 0 .456-.907.538-2.132.734-3.307.095-.563.209-1.144.321-1.699.111-.543.003-1.226.46-1.562.322.402.203 1.01.23 1.562.08 1.688-.076 3.656.275 5.006.313.218.847.117 1.332.138.456.019 1.037.136 1.332-.092.481-.372.269-1.787.229-2.756-.078-1.984.003-4.033-.092-6.063-.042-.896.144-1.809-.321-2.296-1.39-.092-3.397-.32-4.591.091zm-31.784 30.221c-1.194.183-2.739.021-3.858.046-1.301.029-2.104.861-2.342 1.929-.201.897-.138 2.441-.139 3.95 0 1.472-.145 2.908 0 4.087.202 1.631 1.988 2.511 3.95 2.067.542-.123 1.058-.756 1.516-.689.429.062.333.609.781.735.885-.211 2.066.366 2.572-.184.253-.274.184-1.022.184-1.607 0-1.7.005-3.948-.184-5.19-.481-.293-1.332-.176-2.067-.184-.754-.008-1.576-.162-2.02.184-.201.483-.175 1.348.046 1.792.344.341.73.208.919.551.228.414.202 1.441-.093 1.883-.396.594-1.646.596-2.112.092-.51-.549-.253-2.432-.229-3.583.023-1.226-.301-2.906.459-3.398.505-.328 1.322-.287 1.745 0 .39.264.306.79.735 1.01.722.051 1.833.127 2.479-.046.779-1.662-.459-3.733-2.342-3.445z"/><path d="m16.908 13.147c.336.357.318 1.058.414 1.653.097.609.276 1.293 0 1.792-.191.199-.777.257-1.057.092-.369-1.007.152-2.481.413-3.445.034-.043.083-.069.138-.092z"/></g></svg>