<svg enable-background="new 0 0 169.592 155.909" viewBox="0 0 169.592 155.909" xmlns="http://www.w3.org/2000/svg"><g clip-rule="evenodd" fill-rule="evenodd"><path d="m117.068 29.118c.299.47.935.434 1.407.516 1.594.276 3.291.562 4.971.797 2.269.317 4.559.539 6.611 1.079 2.038.536 3.988 1.249 6.002 1.688 1.587.346 3.192.643 4.736 1.032.538.135 1.041.131 1.595.234.354.066.802.391 1.312.563 2.295.769 4.202 2.02 6.237 3.001 1.558.75 2.956 2.128 4.736 2.673 2.799.857 5.237 2.144 7.55 3.517.214.127.429.497.609.656.661.585 1.641.892 1.923 1.782.075 1.217-.384 1.899-.798 2.626-.608 3.315-2.321 5.053-5.299 6.049-3.334 1.115-7.643.572-10.316-.75-.688-.34-1.242-.675-2.062-.984-.648-.244-1.733-.837-2.298-.75-.475.073-1.014.91-1.032 1.36-.026.655.852 1.314 1.36 1.829 1.568 1.588 2.963 3.481 4.502 4.97.498.483 1.125.845 1.641 1.36.51.51 1.027.934 1.595 1.36 1.279.962 2.536 2.202 3.563 3.563 1.031 1.366 2.295 2.443 3.423 3.658.438.472.724 1.066 1.173 1.547.462.495.752 1.051 1.172 1.547.349.413.826.733 1.22 1.126 1.124 1.125 2.443 2.175 3.423 3.47.995 1.217 2.111 2.403 2.954 3.939.237.432.661 1.243.609 1.688-.064.555-1.071 1.119-1.453 1.547-1.035 1.159-1.549 2.172-2.955 2.954-.648.361-1.457.752-2.156.798-1.155.075-2.324-.507-3.563-.423-.369.688-.377 1.575-.517 2.439-.136.841-.403 1.708-.328 2.531.447.059.704-.447 1.031-.75.637-.587 1.234-1.121 1.923-1.781.304-.292.654-.819.985-.845.579-.044 1.466.811 1.922 1.031-.393 1.228-1.142 2.305-1.734 3.424-.606 1.14-.907 2.437-1.782 3.376-.475.017-.987-.322-1.266-.656.482-1.564 1.53-2.564 1.969-4.174-.981.473-1.938 1.595-2.86 2.438-.273.25-.734.719-.984.75-.464.06-.861-.332-1.125-.656.111-1.7.571-3.055.609-4.83-.412.053-.525.563-.704.892-.559 1.026-1.186 2.254-1.828 3.235.446.89 1.07 1.581 1.594 2.392.557.859.786 1.729 1.032 2.907.058.277.221.525.281.844.147.776.101 1.773.047 2.579-.085 1.26-.648 2.841-1.36 3.846-.222.313-.623.63-.938.984-.395.444-.678.866-1.173 1.031-.411.139-.938.126-1.453.188-.483.058-.977.148-1.453.187-.995.082-2.055.055-3.096.188-1.829.234-3.77.722-5.393 1.172-1.67.464-3.503.729-5.393 1.172-1.87.44-3.809.794-5.627.798-1.138.002-2.344.055-3.517.141-.526.038-1.063.201-1.595.234-.588.036-1.13.054-1.688.141-1.169.183-2.333.11-3.47.188-3.172.216-6.186 1.269-9.19 1.782-2.086.355-4.089.763-6.003 1.313-.507.145-.999.46-1.5.656-1.536.604-3.241 1.056-4.971 1.501-1.084.279-2.073.861-3.143 1.173-1.073.312-1.971.877-2.72 1.547-.883 1.306-2.156 2.271-3.423 3.282-1.236.987-2.385 2.096-3.704 3.002-2.641 1.812-5.105 3.895-8.112 5.299-1.463.682-3.073 1.297-4.455 2.25-.712.492-1.355.889-2.157 1.22-.776.321-1.55.673-2.345.984-.864.339-1.816.424-2.673.703-.83.271-1.659.579-2.439.892-1.493.599-2.409 2.133-3.985 2.72-2.818 1.896-6.024 2.998-10.082 3.329-2.049.168-4.259.365-6.378.141-2.123-.225-4.131.228-6.143.47-1.04.124-2.04.203-2.954.421-.873.209-1.663.542-2.485.845-1.702.627-3.314 1.067-5.111 1.594-.83.244-1.593.674-2.438.938-1.691.529-3.379 1.072-5.252 1.453-1.001.204-2.021.242-2.767.563-.451.194-.785.54-1.406.609-.356.039-.673-.01-.985.047-.383.069-.708.267-1.125.375-2.062.534-4.409.068-6.659.422-1.43.225-2.777.472-3.704 1.173-1.166.038-1.818.838-3.095.609-.253-.961-.141-1.975-.141-2.954-.001-16.061-.001-32.926 0-49.05.166-.382.754-.217.75-.609-.005-.413-.46-.137-.609-.516.179-.602.963-.591 1.547-.751.597-.162 1.155-.441 1.829-.469.649-.025 1.304.231 2.11.094.266-.003.638.481 1.031.375.318-.085.426-.508.704-.656.173-.093.436-.091.656-.188.36-.158.804-.521 1.266-.75.496-.245 1.142-.501 1.313-.703.188-.224.168-.571.328-.798.296-.419.914-.873 1.547-.984.024.592-1.027 1.105-.234 1.688.035.399-.433.477-.281.845.764.503.985-.599 1.126-1.173.994-.111 1.633-.412 2.062-1.078.212-.113.365.058.564.094.368-.517 1.199-.264 1.5-.844.215-.415-.104-1.196.328-1.548.409.1.324.438.704.516.737.152 1.782-.699 1.922-1.172.083-.279-.112-.501 0-.751.272-.219.636-.158.985-.234.331-.072.66-.296.938-.281.514.027.576.634 1.126.609.412-.182.171-1.017.469-1.312.517-.34 1.18-.327 1.734-.562.466-.198.657-.61 1.079-.797.411.119.314.747.656.938.589-.135.869-.714 1.595-.328.852-.742.506-2.933 1.828-3.049.673.354-.035 1.111-.047 1.642.717-.097.672-.953.845-1.595.377-.466.884-.804 1.641-.891.48-.223.64-.768.938-1.172.114-.104.334-.104.562-.094.547-.484 1.021-1.097 1.781-1.454.307-.143.674-.128.938-.328.307-.231.319-.613.516-.938.095-.297.563-.219.656-.517.016-.408-.233-.883 0-1.219.445-.156.308.656.798.609.519-.456-.262-.901-.376-1.312-.196-.708.163-1.42.704-1.313.506.1.177.964.703 1.126.375-.19.279-.671.375-1.032.118-.444.445-.868.422-1.359.431-.542.577-1.264.938-1.829.378-.594.928-1.03 1.312-1.641.194-.309.412-.616.562-.939.134-.284.152-.787.61-.844.182.338-.293.774 0 1.078.443-.028.534-.494.75-.797.211-.297.536-.524.656-.845.195-.518.121-1.146.469-1.547.239-.275.686-.321.985-.562.656-.531 1.302-1.973 1.688-2.813.551-.367.895-.915 1.267-1.501.335-.528.798-1.06 1.078-1.641.298-.618.325-1.351.704-1.97.302-.052.327.173.609.141.424-.106.54-.576.844-.891.396-.411.914-.652 1.266-1.125.236-.316.333-.727.563-1.032.368-.486 1.178-.742 1.406-1.313.152-.379.038-.781.281-1.079 1.308-.486 1.922-1.738 2.767-2.86.656-.871 1.041-1.91 1.595-2.767.308-.475.876-.933 1.313-1.407 1.279-1.387 2.569-2.937 3.939-4.22.901-.845 1.798-1.825 2.673-2.767.429-.461.828-1.008 1.267-1.454.751-.766 1.651-1.09 2.016-2.204.957-.259 1.252-1.141 1.923-1.875.333-.365.782-.621.984-.985.173-.311.158-.718.423-.985.102-.343.65-.391.984-.656.24-.192.338-.525.562-.75.288-.287.752-.394.985-.75.212-.538.476-1.024.844-1.407 1.274-.211 1.523-1.446 2.579-1.875.238-.341.286-.817.516-1.172.216-.335.626-.47.984-.75.381-.297 1.065-.954 1.407-1.36.239-.284.329-.669.562-.938.382-.439 1.018-.763 1.548-1.172 1.021-.788 1.871-1.675 2.86-2.532.487-.422.859-.96 1.313-1.36 1.062-.938 2.226-1.748 3.095-2.907.855-1.144 1.596-2.363 2.813-3.189.943-1.411 2.038-2.562 3.704-3.189 1.679-.631 3.724-.711 5.627-1.266.622-.182 1.227-.472 1.876-.657.659-.188 1.312-.373 1.97-.562 1.324-.381 2.702-.589 3.798-1.219.021-.525-.662-.583-.469-1.126.734-.06 1.102.81 1.781.844.291.015.696-.233 1.22-.375 1.236-.335 2.413-.679 3.61-1.031 1.282-.377 2.411-.709 3.564-1.126.485-.175.987-.218 1.453-.375.442-.149.807-.437 1.22-.656.444-.237.857-.327 1.406-.469.899-.233 1.786-.681 2.72-.984.942-.306 1.919-.533 2.955-.75.97-.204 1.882-.683 2.813-.891.062-.014.159-.038.234-.047 1.262-.141 2.429-.08 3.564-.141.997-.053 1.915-.431 2.907-.75 2.012-.647 4.193-1.176 6.19-1.313 1.532-.105 3.274-.097 4.126.891.294.631.41 1.693.656 2.438.27.816.468 1.494.517 2.298.212 3.511-1.781 5.813-3.611 7.55-.502.477-.943.961-1.406 1.407-1.425 1.372-3.277 2.244-5.346 3.048-.674.262-1.407.468-2.063.751-.67.289-1.254.679-1.876.891-1.276.435-2.767 1.06-4.22 1.36-1.527.315-3.421.524-4.643 1.172-1.107.587-1.98 1.621-3.142 2.25-1.152.624-2.385 1.154-3.564 1.782-2.404 1.279-5.176 1.952-7.496 3.231zm26.166 55.566c.449-.398.997-.923 1.501-1.359.349-.302 1.455-.988 1.406-1.453-.026-.256-.651-.602-.938-.845-.379-.321-.793-.551-1.032-.797-.385-.396-.648-.886-1.078-1.36-.333-.368-.654-.772-1.078-1.172-.709-.667-1.625-1.85-2.392-2.11-.406-.138-.87-.088-1.267-.187-1.149-.288-2.191-.814-3.235-1.266-.847-.727-1.764-1.143-2.579-1.782-.26-.204-.463-.498-.75-.703-.793-.566-1.571-.999-2.251-1.642-.671-.634-1.189-1.437-1.829-2.11-.573-.604-1.284-1.286-1.922-1.969-.621-.666-1.206-1.67-1.876-2.063-.215-.126-.595-.225-.938-.375-.555-.242-1.201-.516-1.876-.328-.7.195-1.249.546-1.97.75-2.692.764-5.39 1.744-8.722 1.83-1.081.027-2.184-.135-3.329-.329-.872.676-1.208 1.71-1.782 2.579-1.148 1.738-2.718 3.046-4.221 4.549-.766.766-1.733 1.353-2.204 2.204-.625 1.133-.541 3.184-.703 4.643-.144 1.293-.614 2.432-.938 3.61-.332 1.208-.663 2.329-1.032 3.47-.368 1.142-.842 2.335-.844 3.611.57.608 1.552.752 2.392.938 2.597.575 5.885.994 9.237.75 1.386-.101 2.812-.366 4.268-.469 1.409-.099 2.756-.336 4.127-.609 1.319-.263 2.701-.402 4.079-.656 1.472-.271 3.061.098 4.455-.188.75-.153 1.322-.548 2.063-.61.468-.038 1.006.051 1.547 0 .961-.089 1.902-.377 2.954-.422 1.04-.044 2.059-.323 3.095-.328 1.47-.007 3.047-.157 4.408 0 1.092.126 2.178.323 3.236.516 1.367.25 2.534.975 3.892 1.032.353-.289.339-.943.375-1.548-.304-.313-.715-.514-1.172-.75-.344-.178-.903-.633-1.314-.609-.567.032-.854 1.005-1.5 1.031-.505.021-.891-.412-1.267-.75.865-1.043 1.924-1.763 3.004-2.724zm4.924-1.406c.015-.096-.135.01-.141.047-.22.366-.242 1.178-.328 1.782-.254 1.793-.567 3.718-.703 5.486.16.17.47.273.75.188-.337-2.773 1.011-4.468 2.673-5.533-.496-.78-1.532-1.491-2.251-1.97zm-3.939 2.767c.298.428.911.769 1.453.798.247-.219.259-.764.329-1.22.063-.419.293-1.013-.048-1.22-.656.469-1.329.922-1.734 1.642zm11.02 3.47c-.424.113-1.043-.483-1.313-.797.135-1.338-.77-1.637-1.547-2.063-2.331-.152-3.724 2.943-2.485 4.549.626.717 2.51 1.058 2.86-.141-.234-.484-.968-.47-1.22-.938.11-1.473 1.244-.703 2.017-.281.412.226 1.209.549 1.267.891.043.261-.216.65-.375.937-.194.349-.353.67-.47.892-.319.608-.861 1.113-.703 1.781.363.092.482-.289.609-.516.689-1.215 1.335-2.458 1.97-3.657.268-.505.648-1.002.703-1.595-.137-.213-.546-.329-.844-.234-.279.36-.02 1.052-.469 1.172z"/><path d="m108.299 10.454c-.349.09-.635-.266-.75-.563.331-.073.648.254.75.563z"/></g></svg>