<svg enable-background="new 0 0 78.304 67.893" viewBox="0 0 78.304 67.893" xmlns="http://www.w3.org/2000/svg"><path clip-rule="evenodd" d="m39.177.004c.583-.076.942 1.064 1.229 1.689.913 1.99 1.725 4.129 2.612 5.992.936 1.967 1.74 3.924 2.612 5.992.28.666.676 1.287.921 1.945 1.633 4.377 3.738 8.658 5.685 13.01 5.274 11.787 10.635 23.584 15.927 35.387.471 1.051.85 2.18 1.587 3.072 1.979.025 4.415.064 6.658.053.673-.004 1.477-.234 1.895.256-.268.527-1.038.307-1.485.307-1.768 0-3.523 0-5.275 0-6.328 0-12.783.053-19.461.051-.504 0-1.165.176-1.536-.256.311-.592 1.268-.357 1.946-.357h2.253c1.56 0 3.187.17 4.302-.154-.221-1.166-.84-2.189-1.28-3.277-.424-1.049-.898-2.107-1.383-3.125-2.435-5.113-4.6-10.373-7.016-15.568-.466-1.002-.827-2.098-1.536-2.971-1.215-.174-2.61-.102-3.995-.102-1.339 0-2.724-.209-3.841.102.159.434.637.607.973.871.337.264.659.533.922.871 1.302 1.271 1.559 4.004.717 5.889-.798 1.787-2.654 2.684-4.2 3.432.572.488 1.351.516 1.997.768 1.844.723 3.636 1.992 4.456 3.791 1.302 2.857.133 6.721-1.998 7.938-.968.854-2.115 1.518-3.636 1.895-1.518.377-3.393.205-5.275.205-3.08 0-6.379.053-9.577.051-.355 0-.846.127-1.075-.256.26-.559 1.189-.357 1.946-.357.789 0 1.613.072 2.151-.104.277-.973.154-2.039.154-3.072 0-5.256 0-10.576 0-15.877 0-2.078.083-4.141-.154-5.99-1.473-.275-3.376-.154-5.172-.154-.61 0-1.283-.098-1.69.051-.42.152-.594.82-.871 1.434-.686 1.52-1.463 3.193-2.151 4.66-2.004 4.275-3.719 8.287-5.633 12.6-.707 1.592-1.492 3.1-2.203 4.66-.233.51-.499 1.064-.512 1.639.522.361 1.317.205 2.048.205h4.507c.714 0 1.546-.195 1.997.256-.335.582-1.258.357-1.946.357-4.663.002-9 .055-13.776.053-.425 0-2.005.18-1.997-.309.007-.445 1.476-.307 1.895-.307 2.187.002 4.466.07 6.402-.102.637-.463.825-1.283 1.127-1.947 2.843-6.244 5.762-12.549 8.604-18.896 1.266-2.83 2.438-5.6 3.79-8.4.668-1.383 1.226-2.846 1.895-4.199 1.347-2.725 2.565-5.58 3.789-8.449.593-1.389 1.33-2.746 1.946-4.148.622-1.418 1.172-2.879 1.843-4.25 2.294-4.689 4.461-9.742 6.711-14.654.329-.717.686-1.518 1.024-2.047.029-.074.08-.125.153-.154zm-5.018 11.779c-3.692 7.012-6.692 14.715-10.191 21.918-.731 1.939-1.738 3.658-2.458 5.531-.244.635-.653 1.262-.717 1.998.42.338.993.205 1.485.205 3.979 0 7.858-.051 11.881-.051 4.079 0 8.016.051 11.83.051.474 0 1.111.139 1.485-.256.085-.395-.18-.74-.308-1.076-.147-.389-.209-.795-.358-1.178-.447-1.144-1.066-2.225-1.536-3.381-1.429-3.508-2.94-6.971-4.507-10.344-1.832-3.943-3.718-7.961-5.429-11.83-.241-.547-.394-1.221-.922-1.588-.003-.031-.007-.061-.051-.051-.068.017-.097.073-.204.052zm3.943 40.457c1.767-2.561 1.682-8.641-.922-10.037-.967-.518-3.759-.314-4.968-.205-.362.736-.205 1.699-.205 2.611v5.531c0 .934-.115 1.9.153 2.715 1.749.248 4.816.401 5.942-.615zm-3.021 14.904c1.087 0 2.108.033 2.868-.256 1.075-.41 2.059-1.689 2.407-2.766.938-2.9.616-7.65-1.229-9.475-1.61-1.594-4.41-1.113-6.965-.973-.277 1.322-.153 2.766-.153 4.199 0 1.398.055 2.828.051 4.199-.005 1.641-.226 3.4.102 4.916.856.27 1.935.156 2.919.156z" fill-rule="evenodd"/></svg>