<svg enable-background="new 0 0 75.453 82.248" viewBox="0 0 75.453 82.248" xmlns="http://www.w3.org/2000/svg"><g clip-rule="evenodd" fill-rule="evenodd"><path d="m75.153.126c.276 1.408.154 2.926.154 4.455-.001 4.422.112 9.15-.052 13.008-1.37.275-2.865.154-4.354.154-4.385 0-9.16.068-13.366-.051-.07-3.779-.213-7.773-.153-11.676.03-1.988-.133-3.959.153-5.84 5.483-.222 11.966-.229 17.618-.05z"/><path d="m56.359 81.554c-4.304.158-8.867.104-13.571.104-1.483 0-2.971.201-4.352-.104-.296-1.172.091-3.027-.205-4.199-.521-.037-.803.455-1.127.717-1.067.865-2.215 1.533-3.585 2.152-3.395 1.531-8.222 2.281-13.008 1.945-2.339-.164-4.652-.357-6.709-.922-7.694-2.109-13.09-7.615-13.726-16.796-.359-5.176.551-9.121 2.714-12.24 3.122-4.504 8.003-7.291 14.903-7.99 4.656-.471 10.168.039 14.8-.461 2.34-.252 4.458-.906 5.173-2.766.512-1.33.362-4.715-.154-5.889-1.112-2.529-4.453-3.893-8.143-3.893-2.881 0-6.029.059-7.836 1.332-.429.303-.769.826-1.126 1.279-.354.451-.729.938-.974 1.383-.851 1.559-.652 3.535-1.074 5.686-3.803.121-8.194.051-12.291.051-1.32 0-2.65.109-3.842-.152-.24-7.652 2.184-13.522 6.606-16.85 3.308-2.803 7.239-4.539 12.649-5.121 1.741-.188 3.594-.162 5.633-.256 7.677-.357 14.963.932 19.666 3.738 2.451 1.461 4.464 3.328 5.787 5.838 1.348 2.555 1.844 5.797 1.844 9.781 0 7.209.103 15.164.103 22.533 0 3.822.103 7.857 0 11.523-.055 1.983-.111 3.838.308 5.428.401 1.524 1.284 2.667 1.537 4.149zm-39.076-14.801c.526.713 1.678 1.385 2.663 1.742 3.936 1.426 10.604.803 13.827-.82 2.321-1.168 3.366-2.529 3.995-5.121.439-1.814.409-3.328.409-5.531 0-.775.146-2.045-.358-2.047-.112-.002-.156.09-.205.102-.586.141-1.18.525-1.844.717-5.11 1.471-14.685-.902-18.18 2.1-2.108 2.128-1.807 6.833-.307 8.858z"/><path d="m75.256 20.663c.276 7.453-.013 15.219.102 22.84.183 12.062.054 25.529 0 38-5.643.188-12.103.125-17.72.051-.271-1.225-.153-2.482-.153-3.738.002-19.139-.126-37.883 0-57.102 2.708-.27 6.252-.154 9.423-.154 2.857 0 5.687-.084 8.348.103z"/></g></svg>