<svg enable-background="new 0 0 89.89 46.379" viewBox="0 0 89.89 46.379" xmlns="http://www.w3.org/2000/svg"><g clip-rule="evenodd" fill-rule="evenodd"><path d="m44.194 46.204c-4.369.207-9.301.098-13.584 0-.247-6.692-.051-14.004-.052-20.846 0-1.189.043-2.369 0-3.501-.042-1.113-.249-2.131-.315-3.24-1.57-3.081-3.922-5.664-8.358-5.486-3.965.159-6.704 2.703-7.682 6.113-.529 1.852-.312 4.296-.312 6.583 0 6.808.017 13.828-.157 20.324-4.262.174-9.268.174-13.585 0-.354-4.224.096-8.423-.052-12.644-.145-4.145-.129-8.427.052-12.54.175-3.947 1.448-7.108 2.979-9.822 1.578-2.798 3.614-4.945 6.06-6.74 3.378-2.53 7.277-4.125 12.853-4.389 2.68-.126 5.354.454 7.42 1.202 6.09 2.207 10.826 6.685 13.218 12.644.857 2.137 1.434 4.441 1.567 7.054.139 2.705-.086 5.514 0 8.516.155 5.384-.022 11.222-.052 16.772zm-.312-17.241c0-2.919.153-5.695-.053-8.255-.614-7.628-4.453-12.896-9.3-16.354-3.175-2.264-7.705-4.127-13.219-3.866-2.727.128-4.942.709-6.949 1.515-5.766 2.314-10.163 6.726-12.435 12.487-.802 2.034-1.311 4.392-1.41 6.844-.104 2.577 0 5.375 0 8.308 0 4.005-.053 8.152-.052 12.069 0 1.334-.125 2.711.157 4.023 2.97.196 6.461.157 9.613.157 1.085 0 2.173.142 3.082-.208.138-6.481.157-13.607.156-20.115 0-2.356-.128-4.587.366-6.427.881-3.282 3.535-5.973 7.21-6.375 2.161-.236 4.054.213 5.591 1.097 1.383.796 2.735 1.947 3.396 3.449.2.455.27.986.47 1.515.517 1.366.464 3.193.471 5.068.016 4.737-.053 9.982-.053 14.734 0 2.45-.228 4.868.104 7.105.947.231 1.997.087 3.083.104 3.033.049 6.627.193 9.613-.104.208-5.498.159-11.182.159-16.771z"/><path d="m59.452.644c.152 15.097.093 30.101-.053 45.56-4.419.173-9.582.174-14.056 0-.283-1.758-.156-3.665-.156-5.643-.002-12.221.103-24.712.104-37.252 0-.909-.124-1.846.156-2.717 4.507-.055 9.755-.153 14.005.052zm-13.377.314c-.062.025-.118.056-.156.105-.33.231-.209 1.805-.209 2.664-.001 8.866-.052 16.972-.052 25.079v14.211c0 .897-.127 1.857.156 2.717 3.129.15 6.704.157 9.875.157 1.116 0 2.242.125 3.239-.157.204-12.777.157-26.026.156-39.133 0-1.839.139-3.705-.104-5.486-4.001-.353-8.645-.062-12.905-.157z"/><path d="m89.807.697c.106 14.906.145 30.584-.105 45.56-2.154.241-4.586.053-7.001.053-2.417 0-4.887.146-7.053-.105-.105-13.7.001-28.534 0-42.895 0-.882-.162-1.84.209-2.665 4.68-.074 9.541-.1 13.95.052zm-13.532.366c-.371.805-.21 1.751-.21 2.612.001 4.889-.052 9.223-.052 13.898.001 7.561.092 15.271-.052 22.623-.037 1.871-.1 3.768.156 5.591.032.003.062.007.052.052 3.994.127 9.055.243 13.115-.052.308-.848.062-1.764.104-2.665.125-2.701.053-5.573.053-8.412 0-10.631.05-19.962.052-30.774 0-.907.125-1.871-.157-2.768-4.166-.189-8.787-.199-13.061-.105z"/><path d="m73.349 29.642c-.54-.281-.733-.838-1.149-1.254-1.567-1.566-4.329-2.424-6.793-1.463-2.169.847-4.224 3.026-4.231 5.956-.009 3.012 1.876 5.468 4.337 6.322 2.683.931 5.545-.248 6.896-1.724.357-.389.514-.916.993-1.149-.313 1.141-1.207 1.876-2.143 2.456-.929.575-2.093 1.037-3.5 1.044-4.151.023-7.11-3.176-6.792-7.367.255-3.36 2.927-6.135 6.479-6.27 1.412-.054 2.786.419 3.709.992.969.603 1.806 1.353 2.194 2.457z"/><path d="m21.676 26.298c2.913-.25 4.965 1.14 6.113 2.769.6.85 1.127 2.074 1.201 3.553.143 2.822-1.233 4.939-2.978 6.061-.736.474-1.943 1.001-3.03 1.097-4.377.385-8.302-3.338-7.263-8.255.34-1.606 1.024-2.613 1.881-3.448.938-.915 2.256-1.621 4.076-1.777zm-5.33 3.971c-.249.565-.545 1.644-.574 2.404-.145 3.719 2.593 6.288 5.485 6.792 3.621.631 7.149-2.268 7.472-5.747.3-3.228-1.688-5.697-3.762-6.688-.87-.416-2.106-.617-3.135-.522-2.738.251-4.665 1.902-5.486 3.761z"/><path d="m21.833 27.238c.94-.077 1.893.035 2.665.366 2.018.864 3.811 2.965 3.5 6.165-.3 3.089-3.267 5.527-6.74 4.963-2.689-.436-4.747-2.701-4.754-5.695-.005-1.754.71-3.105 1.567-4.023.856-.918 2.052-1.635 3.762-1.776z"/><path d="m66.974 27.291c3.296-.361 5.85 1.858 6.375 4.545.692 3.545-1.611 6.321-4.39 6.897-3.665.761-6.777-1.774-7.053-5.173-.079-.969.191-2.371.627-3.239.646-1.289 2.255-2.79 4.441-3.03z"/><path d="m73.557 30.374c.939 1.076.939 4.308 0 5.381.017-.768.353-1.387.419-2.142.096-1.107-.232-2.046-.419-3.082 0-.053 0-.105 0-.157z"/></g></svg>