<svg enable-background="new 0 0 69.711 70.32" viewBox="0 0 69.711 70.32" xmlns="http://www.w3.org/2000/svg"><g clip-rule="evenodd" fill-rule="evenodd"><path d="m69.328.12c.266 2.744.148 5.582.148 8.405 0 5.589.098 11.17.098 16.811 0 2.77.18 5.544-.098 8.208-1.252.113-3.188.233-4.352-.05-.155-10.032-.198-20.874-.196-31.594 0-.393-.15-1.779.297-1.829.96-.108 3.019-.093 4.103.049z"/><path d="m27.597.218c-.195.724-.723 1.281-1.137 1.879-1.203 1.738-2.385 3.559-3.609 5.34-1.633 2.371-3.1 4.859-4.748 7.219-2.455 3.519-4.873 7.08-7.316 10.63-.812 1.181-1.65 2.363-2.275 3.659.522.267 1.147.14 1.731.149 4.058.062 8.738.016 12.855.099.258 1.157.217 3.185 0 4.351-7.709.208-15.353.106-23.09.049-.07-.467.359-.761.594-1.088 1.695-2.375 3.285-4.887 4.994-7.367 4.744-6.889 9.584-13.839 14.289-20.964.43-.652.82-1.371 1.334-2.175.373-.583 1.076-1.845 1.633-1.879 1.298-.079 3.351-.045 4.745.098z"/><path d="m32.838.218c.217 11.001.268 22.441.148 33.325-1.246.16-3.156.167-4.4 0-.178-10.922-.225-22.216-.148-33.325 1.355-.128 3.249-.247 4.4 0z"/><path d="m40.847.169c.203 10.838.277 22.44.148 33.375-.66.233-1.43.029-2.176.049-.715.02-1.592.199-2.225-.099-.102-10.33-.197-20.96-.197-31.446 0-.632-.152-1.362.197-1.928 1.298-.054 3.039-.14 4.253.049z"/><path d="m46.187.12c2.56 4.279 4.807 8.81 7.219 13.3 2.072 3.853 4.217 7.733 6.279 11.668.91 1.735 1.748 3.65 2.721 5.389.551.988 1.191 1.95 1.482 3.066-1.373.11-3.074.154-4.5.049-.605-.534-.869-1.333-1.234-2.027-1.072-2.028-2.318-4.102-3.412-6.229-4.149-8.068-8.58-16.142-12.904-24.129-.158-.29-.488-.711-.297-1.087 1.437-.082 3.209-.082 4.646 0z"/><path d="m4.656 70.181c-.215-10.779-.182-22.088-.148-32.979 4.404-.27 9.744-.124 14.24-.148 4.119-.022 7.086.65 9.74 2.175 4.762 2.737 8.867 7.748 8.504 15.426-.168 3.527-1.518 6.596-3.164 8.851-2.518 3.445-6.146 5.978-11.373 6.675-1.783.238-3.795.099-5.883.099-3.953 0-8.031.081-11.916-.099zm8.949-3.956c2.975 0 6.238.253 8.801-.198 1.289-.227 2.451-.527 3.51-1.038 3.832-1.85 6.836-5.681 7.021-11.026.096-2.742-.809-5.183-1.979-7.021-1.733-2.726-4.496-4.745-8.01-5.538-1.221-.275-2.662-.248-4.252-.248-2.99 0-6.254-.031-9.047 0-.143.006-.324-.027-.397.05-.328.378-.197.932-.197 1.384-.002 8.053-.059 15.747.197 23.486 1.392.268 2.881.149 4.353.149z"/><path d="m63.888 37.202c-.635 1.293-1.518 2.433-2.324 3.609-.811 1.183-1.512 2.433-2.324 3.609-4.41 6.398-9.02 12.729-13.348 19.283-.391.591-.892 1.136-1.09 1.83.545.269 1.18.148 1.781.148h9.295c1.236 0 2.514-.117 3.658.148.162 1.234.166 3.118 0 4.351-6.803.281-14.271-.024-21.309.05-.654.006-1.361.184-1.979-.099.744-1.504 1.859-2.807 2.818-4.203 5.66-8.233 11.365-16.494 17.107-24.87.42-.613.977-1.282 1.483-2.027.457-.671 1.057-1.978 1.781-1.978 1.354.001 3.25-.055 4.451.149z"/><path d="m69.476 37.152c.268 1.319.148 2.696.148 4.055 0 9.359.193 19.404 0 28.974-1.24.153-3.117.171-4.352 0-.189-10.44-.197-20.734-.197-31.199 0-.606-.158-1.333.197-1.879 1.236-.015 2.941-.163 4.204.049z"/></g></svg>