<svg enable-background="new 0 0 43.538 40.187" viewBox="0 0 43.538 40.187" xmlns="http://www.w3.org/2000/svg"><path d="m29.675.172c.86-.486 2.137.108 2.264 1.107.131.597-.184 1.154-.491 1.641-2.035 3.695-4.124 7.361-6.219 11.024-.392-.126-.777-.273-1.179-.364.029-.215.075-.43.192-.615 1.877-3.295 3.756-6.586 5.638-9.878.241-.465.555-.894.718-1.395-.025-.068-.076-.205-.101-.273-.181-.03-.378-.097-.546.012-.84.412-1.639.901-2.469 1.332-.179-.376-.388-.737-.57-1.11.933-.473 1.842-.989 2.763-1.481z"/><path d="m11.964 1.492c.068-.749.748-1.363 1.49-1.404.675-.107 1.228.372 1.795.653 1.688.883 3.372 1.774 5.021 2.728-.248.325-.485.659-.697 1.009-1.619-.907-3.263-1.768-4.9-2.64-.376-.246-.799-.453-1.262-.404-.018.146-.09.304-.037.452 1.06 1.955 2.238 3.851 3.278 5.813-.36.238-.757.416-1.127.639-1.038-1.855-2.127-3.681-3.154-5.542-.225-.395-.531-.823-.407-1.304z"/><path d="m17.883 1.655c1.747-1.136 4.326-.542 5.427 1.216.102.205.32.408.251.658-.22.241-.514.399-.749.626-.046.01-.138.03-.184.04-.308-.598-.7-1.172-1.265-1.554-.7-.431-1.57-.537-2.353-.293-.422-.124-.775-.435-1.127-.693z"/><path d="m22.713 1.644c.845-.731 2.161-.729 3.117-.209 1.014.521 1.524 1.682 1.575 2.777-.066 1.044-.113 2.184-.718 3.077-.303-.209-.596-.431-.888-.653.174-.802.366-1.607.369-2.432-.006-.804-.496-1.681-1.329-1.859-.449-.162-.902.039-1.342.127-.222-.313-.484-.593-.784-.828z"/><path d="m8.411 3.1c.33-1.05 1.836-1.49 2.629-.673.598.745 1.033 1.606 1.531 2.419.984 1.603 1.991 3.193 2.953 4.809.804 1.432 1.796 2.75 2.596 4.186.403.545-.438.867-.761 1.185-.285-.259-.451-.617-.666-.931-.911-1.525-1.837-3.039-2.759-4.556-1.32-2.021-2.482-4.139-3.842-6.135-.485-.034-.615.447-.533.841-.11.815.104 1.649-.111 2.455-.392-.009-.785-.03-1.175.01.055-1.203-.068-2.419.138-3.61z"/><path d="m32.49 2.887c.283-.548.84-.799 1.423-.885.679.114 1.425.553 1.528 1.292.179 1.196.087 2.409.139 3.612.014 1.136-.057 2.278.06 3.407-.402.116-.808-.039-1.214-.041-.041-.118-.08-.233-.121-.348.166-.426-.039-.863.004-1.299.004-1.612-.023-3.224-.011-4.836-.138-.221-.366-.313-.62-.292-1.199 1.904-2.363 3.832-3.494 5.776-.406-.191-.794-.42-1.163-.675 1.169-1.895 2.316-3.805 3.469-5.711z"/><path d="m22.417 5.131c.745-.889 1.695-1.609 2.697-2.177.326.264.709.737.578 1.164-.926.663-1.793 1.408-2.573 2.242-.275-.385-.517-.794-.702-1.229z"/><path d="m21.036 3.164c.088-.079.208-.098.316-.132.244.272.55.524.622.903-1.023.932-1.59 2.263-1.858 3.599-.333-.212-.67-.419-1.009-.619.209-1.422.907-2.748 1.929-3.751z"/><path d="m16.725 3.382c.399.144.757.374 1.145.542-.053 1.789.575 3.66 1.926 4.874-.088.455-.157.914-.146 1.381-1.177-.704-1.955-1.931-2.464-3.178-.529-1.112-.717-2.409-.461-3.619z"/><path d="m21.639 4.705c.894 1.193 1.502 2.581 2.299 3.842-.357.219-.968 1.023-1.241.353-.513-.984-1.11-1.924-1.58-2.929-.08-.486.346-.852.522-1.266z"/><path d="m23.777 6.18c.278-.264.57-.511.881-.735.496.953 1.169 1.926 2.193 2.357-.152.4-.374.769-.633 1.109-1.008-.698-1.916-1.61-2.441-2.731z"/><path d="m21.062 6.937c.041.001.122.003.162.004.222.388.431.786.676 1.163-.2.522-.45 1.037-.48 1.607-.095.698-.237 1.571.349 2.1.576.369 1.31-.023 1.437-.665.503-.056.932-.337 1.359-.583.051 1.269-.857 2.629-2.174 2.793-.566-.019-1.194-.136-1.588-.579-.588-.628-.824-1.499-.843-2.341.107-1.235.515-2.418 1.102-3.499z"/><path d="m6.488 8.487c.604-1.01 1.872-1.635 3.037-1.363 1.488.256 2.765 1.265 3.596 2.496-.348.201-.721.359-1.118.432-.538-.628-1.225-1.106-1.942-1.506-.715-.356-1.694-.378-2.271.247-.357.305-.42.79-.525 1.222-.389.053-.77.155-1.129.313-.1-.636.088-1.269.352-1.841z"/><path d="m29.391 13.082c.307-2.603 2.08-5.066 4.607-5.903-.072.45.046.911-.079 1.358-1.646.76-2.822 2.362-3.256 4.1-.439.102-.859.262-1.272.445z"/><path d="m36.204 9.024c-.442-.432-.281-1.118-.199-1.663 2.067 1.113 2.672 4.102 1.261 5.961-.396-.118-.774-.285-1.152-.449.314-.633.653-1.275.729-1.988.051-.676-.21-1.344-.639-1.861z"/><path d="m15.596 8.626c.614-.221 1.121-.709 1.782-.797.171.363.373.71.547 1.071-.629.268-1.189.673-1.831.912-.186-.384-.545-.729-.498-1.186z"/><path d="m21.783 9.753c1.21.166 2.202-.729 3.008-1.509.284.261.57.524.874.764-.903 1.218-2.358 2.117-3.911 2.027-.125-.425-.11-.865.029-1.282z"/><path d="m8.597 8.755c.388.004.776.003 1.163-.006.132 1.193.391 2.375.723 3.534-.48.018-.96.009-1.44.009-.236-.786-.432-1.589-.509-2.405-.062-.379-.115-.778.063-1.132z"/><path d="m28.025 9.847c.203-.36.398-.733.692-1.028.534.345 1.079.675 1.64.976-.175.377-.412.722-.616 1.086-.599-.294-1.187-.625-1.716-1.034z"/><path d="m16.503 10.064c.323-.313.758-.459 1.154-.65.688 1.409 1.648 2.689 2.248 4.132-.45.074-1.115.827-1.352.125-.61-1.242-1.432-2.376-2.05-3.607z"/><path d="m10.463 10.482c1.11.022 2.313-.093 3.238-.767.224.357.441.72.633 1.098-.703.417-1.523.546-2.302.756-.444.14-.905.066-1.351-.016-.118-.347-.212-.704-.218-1.071z"/><path d="m4.012 12.957c.621-1.67 2.435-2.744 4.198-2.575.071.422.149.845.201 1.271-1.085-.111-2.316.165-2.98 1.1-.288.329-.369.766-.551 1.152-.318.28-.719.447-1.074.677-.214-.543.081-1.097.206-1.625z"/><path d="m27.962 10.304c.399.168.774.388 1.131.634-.756 1.353-1.59 2.662-2.324 4.027-.46-.122-.8-.475-1.18-.738.809-1.299 1.596-2.607 2.373-3.923z"/><path d="m32.039 11.034c1.358-.559 2.859-.478 4.267-.186.059.063.117.128.177.195-.097.367-.205.734-.352 1.086-.634-.185-1.284-.35-1.949-.309-.773-.033-1.491.301-2.243.414.018-.087.053-.259.071-.346-.095-.282-.045-.576.029-.854z"/><path d="m12.997 11.788c.39-.136.772-.296 1.145-.475.208.512.33 1.052.457 1.59.116.985-.162 1.98-.596 2.859-.43-.083-.788-.337-1.136-.584.249-.397.403-.84.469-1.302-.039-.707-.065-1.418-.339-2.088z"/><path d="m38.385 11.567c.955.44 1.575 1.44 1.673 2.471.034 1.474-1.03 2.912-2.474 3.253-.718.208-1.462.621-2.221.409.088-.334.162-.671.223-1.009 1.061-.289 2.308-.536 2.961-1.516.565-.743.323-1.934-.501-2.384.102-.411.228-.816.339-1.224z"/><path d="m6.551 12.301c.375-.105 1.011-.534 1.259-.075.355 1.287 1.198 2.39 2.247 3.199-.364.23-.749.573-1.202.545-1.189-.896-1.89-2.269-2.304-3.669z"/><path d="m33.902 12.192c.444-.005.89-.031 1.334.014-.72 1.297-1.516 2.549-2.251 3.839-.38-.101-.727-.288-1.072-.468.445-1.232 1.354-2.243 1.989-3.385z"/><path d="m8.356 12.66c1.489-.018 2.98-.029 4.469-.017.145.417.208.865.005 1.277-1.271-.077-2.546-.084-3.822-.088-.281-.35-.529-.735-.652-1.172z"/><path d="m27.952 14.873c1.039-1.729 3.268-2.113 5.124-2.124-.191.474-.465.923-.807 1.302-1.073.184-2.281.438-3.016 1.315-.357.357-.171.952.204 1.217.301.19.702.044.987.274.344.262.716.484 1.114.653-.478.242-1.003.423-1.546.388-.993.107-1.996-.581-2.303-1.522-.043-.507-.109-1.083.243-1.503z"/><path d="m35.204 13.058c1.126.238 2.261.616 3.195 1.303-.051.392-.278.718-.508 1.028-.588-.023-1.078-.385-1.617-.573-.594-.24-1.228-.352-1.831-.564.225-.416.466-.825.761-1.194z"/><path d="m14.985 13.044c.832.598 1.548 1.5 1.525 2.573-.09.557-.356 1.103-.77 1.489-.943.533-2.074.327-3.041-.022-1.186-.653-2.158-1.669-2.775-2.872.491-.037.983-.003 1.473-.034.746.802 1.515 1.716 2.64 1.956.476.151 1.075-.165 1.126-.683.07-.326-.188-.589-.274-.881-.063-.514.148-1.012.096-1.526z"/><path d="m.461 17.176c1.975-1.369 4.054-2.582 6.088-3.86.133.383.297.755.503 1.107-1.309.878-2.674 1.67-3.987 2.543-.501.316-1.125.472-1.535.911-.257.34.151.681.496.618 2.156-.051 4.315.008 6.47-.045-.008.444-.004.889-.014 1.334-2.373-.028-4.748.005-7.122-.016-1.142-.148-1.747-1.786-.899-2.592z"/><path d="m21.469 13.727c2.282-.151 4.631.956 5.868 2.898.993 1.387 1.239 3.238.829 4.874-.45 2.206-2.252 4.007-4.385 4.652-1.494.398-3.118.283-4.528-.36-1.504-.781-2.742-2.1-3.32-3.703-.542-1.508-.376-3.192.23-4.653 1.013-2.007 3.034-3.527 5.306-3.708zm.44 1.172c-2.172.054-4.177 1.583-4.806 3.657-.589 1.664-.036 3.563 1.088 4.872 1.807 2.233 5.576 2.331 7.501.2 1.129-1.031 1.673-2.637 1.502-4.141-.177-2.616-2.731-4.641-5.285-4.588z"/><path d="m29.936 15.745c-.45-.511.433-.868.841-.947.604 1.068 1.761 1.58 2.909 1.832-.092.358-.183.718-.265 1.08-1.345-.211-2.738-.754-3.485-1.965z"/><path d="m34.966 14.764c.372.09.737.215 1.075.395-.534.906-1.136 1.9-1.007 2.998-.392-.002-.783.099-1.172.021-.026-.065-.079-.196-.105-.262.25-1.096.47-2.262 1.209-3.152z"/><path d="m40.25 15.271c.995.578 1.968 1.2 2.886 1.893.515.338.399 1.021.372 1.546-.204.609-.83 1.127-1.494 1.065-3.881-.01-7.762.015-11.643-.008-.521-.002-1.048.037-1.562-.067.018-.429-.073-.848-.134-1.268 3.726-.011 7.455.002 11.175.051.805-.1 1.672.206 2.429-.187-.049-.508-.532-.743-.924-.968-.601-.271-1.141-.655-1.682-1.027.252-.308.428-.665.577-1.03z"/><path d="m4.657 16.369c.359-.227.725-.444 1.078-.68 1.441.916 3.271 1.188 4.921.756.643-.269.935.589 1.5.731-1.912.8-4.148.845-6.061.037-.567-.109-.992-.511-1.438-.844z"/><path d="m21.139 16.707c.527.003 1.054-.002 1.582.004.292.468.512.975.669 1.503.569 1.537 1.147 3.071 1.665 4.626-.556.029-1.113-.016-1.668.026-.143-.329-.186-.705-.38-1.007-.694-.032-1.393.007-2.088-.011-.171.31-.252.66-.373.991-.551.006-1.102.022-1.653-.013.669-2.068 1.519-4.069 2.246-6.119zm.804 1.633c-.266.769-.488 1.554-.69 2.343.481-.018.961.004 1.441-.012-.241-.779-.426-1.579-.751-2.331z"/><path d="m8.781 19.84c.079-.619.039-1.243.054-1.864.425.017.852.003 1.278.022-.028.681-.017 1.364-.009 2.046-.409-.023-.817-.005-1.225-.002-.024-.051-.074-.152-.098-.202z"/><path d="m10.379 19.756c.031-.445-.023-.895.07-1.333 1.611.028 3.222.014 4.834.016-.011.454-.124.895-.21 1.339-1.565-.013-3.131.029-4.694-.022z"/><path d="m33.76 20.134c.415-.009.831.02 1.247-.018.046.666.027 1.335.006 2.002-.418-.002-.837.02-1.254-.019.01-.655.019-1.311.001-1.965z"/><path d="m2.026 20.334c4.351.009 8.704-.036 13.053.048.052.46.165.916.162 1.382-4.459-.047-8.918-.127-13.378-.093-.202.017-.377.128-.56.208.106.219.204.465.431.589.78.496 1.601.929 2.352 1.47-.265.286-.459.627-.639.973-.968-.514-1.903-1.098-2.804-1.722-.803-.517-.873-1.841-.111-2.424.378-.415.976-.425 1.494-.431z"/><path d="m28.818 20.31c1.527.007 3.056.012 4.584-.016-.005.459.073.932-.08 1.377-1.543-.06-3.091.033-4.636-.009.042-.38.147-.763.042-1.14.021-.053.067-.16.09-.212z"/><path d="m35.384 20.358c2.257-.066 4.52-.014 6.781-.027 1.247.15 1.861 1.927.878 2.767-1.856 1.334-3.814 2.52-5.732 3.759-.189-.366-.381-.73-.552-1.104 1.813-1.142 3.59-2.341 5.394-3.494.028-.214.002-.424-.141-.592-2.211-.023-4.424.039-6.631-.028.007-.427-.024-.855.003-1.281z"/><path d="m8.82 21.924c.403.008.805.028 1.209.017.048 1.22-.394 2.452-1.113 3.422-.366.044-.764-.177-1.123-.289.351-.691.78-1.352.981-2.107.112-.343-.052-.697.046-1.043z"/><path d="m12.397 22.552c.619-.178 1.258-.446 1.914-.279.984.069 1.788.84 2.011 1.784-.011 1.456-1.254 2.579-2.57 2.969-.965.261-1.956.493-2.963.413.249-.444.476-.91.802-1.302 1.005-.15 2.053-.382 2.877-1.015.372-.308.605-.951.199-1.328-.251-.352-.71-.33-1.095-.335-.364-.34-.812-.569-1.175-.907z"/><path d="m5.211 23.355c.967-.598 2.081-.888 3.197-1.052-.005.422-.084.839-.216 1.24-1.191.232-2.578.641-3.159 1.816-.329.798.071 1.655.755 2.115-.156.361-.281.737-.335 1.13-1.312-.422-2.069-2.064-1.627-3.362.142-.812.752-1.416 1.385-1.887z"/><path d="m31.847 22.922c1.542-.716 3.332-.755 4.955-.32.801.293 1.666.542 2.257 1.199-.299.28-.655.486-1.009.686-1.527-.946-3.469-1.224-5.18-.648-.328-.305-.828-.538-1.023-.917z"/><path d="m10.414 22.447c1.518.177 3.147.959 3.761 2.431-.295.279-.676.454-1.069.547-.545-1.118-1.801-1.59-2.937-1.857.091-.372.193-.742.245-1.121z"/><path d="m28.678 22.822c1.043-.398 2.175.007 3.054.6.896.678 1.696 1.526 2.18 2.551-.492.018-.983.013-1.474.016-.457-.575-.95-1.129-1.583-1.514-.467-.316-1.118-.635-1.661-.326-.346.171-.394.589-.421.932.554.549.153 1.338.168 2.006-.788-.487-1.382-1.323-1.495-2.25.042-.808.394-1.745 1.232-2.015z"/><path d="m10.9 24.156c.403.144.821.291 1.136.595-.667 1.085-1.388 2.136-2.063 3.216-.445.172-.92.12-1.368-.005.775-1.261 1.489-2.563 2.295-3.806z"/><path d="m33.804 24.775c.344-.216.692-.572 1.113-.571 1.288.826 1.851 2.321 2.378 3.685-.385.166-.797.255-1.211.314-.333-1.372-1.142-2.593-2.28-3.428z"/><path d="m29.944 24.406c.394.089.719.332 1.053.546-.525 1.078-.526 2.349-.087 3.455-.383.166-.774.318-1.181.418-.104-.453-.24-.898-.34-1.351-.196-1.055.11-2.118.555-3.068z"/><path d="m5.394 25.884c.092-.437.279-.847.609-1.154 1.042.552 2.184.844 3.296 1.219-.069.465-.446.838-.662 1.251-1.128-.306-2.245-.695-3.243-1.316z"/><path d="m25.691 25.96c.375-.252.726-.536 1.071-.828 2.191 3.731 4.391 7.457 6.633 11.156.141.27.354.516.687.487.105-.223.222-.452.205-.705.006-.861.018-1.723.005-2.582.425.01.85-.004 1.276.011-.055 1.144.097 2.305-.107 3.437-.208 1.246-2.09 1.739-2.795.627-2.358-3.845-4.702-7.706-6.975-11.603z"/><path d="m17.271 25.209c.391.218.755.477 1.108.754-.746 1.345-1.584 2.637-2.409 3.935-.414-.091-.755-.413-1.114-.633.802-1.354 1.574-2.726 2.415-4.056z"/><path d="m38.771 26.606c.13-.568.766-.732 1.203-1.007.242 2.339-1.997 4.507-4.331 4.212-.11-.416-.144-.847-.252-1.263.53-.035 1.078.042 1.588-.146.853-.238 1.545-.951 1.792-1.796z"/><path d="m23.975 26.679c.416-.132.8-.34 1.185-.542.777 1.348 1.611 2.667 2.319 4.053-.375.191-.713.517-1.153.541-.816-1.33-1.588-2.691-2.351-4.052z"/><path d="m18.725 26.23c.42.136.817.343 1.249.442-1.144 2.188-2.337 4.352-3.637 6.453-.919 1.689-1.898 3.342-2.872 5-.194.235-.171.761.232.706 1.045-.172 1.821-1.133 2.857-1.297.109.366.361.655.542.985-.956.516-1.916 1.025-2.881 1.525-.415.245-.923.13-1.356-.003-.777-.272-1.168-1.256-.827-1.995 1.194-2.167 2.443-4.301 3.66-6.455.976-1.806 2.1-3.53 3.033-5.361z"/><path d="m31.119 26.265c1.238.025 2.466.091 3.705.093.262.375.573.73.705 1.179-1.491-.005-2.982.007-4.473.015-.105-.366-.12-.744-.102-1.119.054-.058.11-.115.165-.168z"/><path d="m6.535 26.858c.411.153.805.346 1.211.513-.435.674-.878 1.438-.799 2.273.036.771.484 1.409.99 1.954-.094.413-.074.838-.082 1.259-1.316-.69-2.173-2.166-2.097-3.652-.044-.854.351-1.638.777-2.347z"/><path d="m20.386 27.354c.57-.484 1.395-.589 2.092-.357.734.259 1.157.994 1.368 1.702.346 1.57-.185 3.174-.937 4.543-.047 0-.139.002-.185.003-.219-.368-.412-.753-.652-1.108.248-.87.589-1.741.51-2.663.056-.579-.357-1.334-1.023-1.219-.42.029-.614.419-.801.736-.447.242-.957.361-1.386.648 0-.86.373-1.711 1.014-2.285z"/><path d="m13.285 27.543c.471-.069.902-.275 1.347-.431-.448 2.58-2.187 5.102-4.769 5.886-.021-.426-.008-.852-.018-1.277 1.757-.742 2.894-2.405 3.44-4.178z"/><path d="m33.351 27.889c.471.005.942-.011 1.414.006.375 1.118.679 2.328.542 3.51-.429.038-.864.088-1.287-.018-.023-1.19-.357-2.355-.669-3.498z"/><path d="m7.684 28.137c1.398.354 2.899.329 4.247-.214-.021.406-.029.814-.03 1.222-1.431.619-3.059.542-4.54.156.031-.406.172-.791.323-1.164z"/><path d="m29.641 29.333c1.104-.48 2.347-.956 3.558-.694.102.347.184.701.218 1.064-1.093-.002-2.26.084-3.18.742-.253-.339-.483-.702-.596-1.112z"/><path d="m18.281 31.197c.901-1.204 2.315-2.053 3.846-2.044.202.402.212.865.064 1.286-1.174-.158-2.164.702-2.945 1.461-.389-.092-.641-.481-.965-.703z"/><path d="m13.599 30.421c.153-.394.393-.742.614-1.098.618.295 1.191.674 1.774 1.034-.268.304-.448.669-.661 1.012-.64-.18-1.137-.659-1.727-.948z"/><path d="m8.218 29.879c.413.019.828.001 1.242.02.036 1.061.016 2.122.031 3.184.058 1.121.088 2.244.078 3.367.133.198.408.467.622.202 1.275-1.847 2.34-3.832 3.582-5.702.406.167.777.403 1.142.647-.693 1.173-1.421 2.325-2.157 3.471-.579.915-1.045 1.919-1.771 2.732-.902.816-2.48.16-2.606-1.029-.119-1.218-.092-2.458-.09-3.675-.139-1.057-.047-2.148-.073-3.217z"/><path d="m36.475 30.168c.397-.058.788-.154 1.162-.301.358 1.564-1.051 3.227-2.637 3.267-1.143.059-2.22-.525-3.058-1.256-.416-.414-.951-.777-1.136-1.36.348-.156.704-.289 1.072-.386.77.841 1.73 1.69 2.925 1.759.924.066 1.747-.812 1.672-1.723z"/><path d="m24.308 30.024c.325.096.552.348.776.588 1.604 1.587 2.597 3.943 2.169 6.206-.419-.12-.799-.332-1.156-.575.181-1.855-.723-3.624-1.971-4.935.071-.408.209-.848.182-1.284z"/><path d="m26.178 31.268c.575-.262 1.093-.628 1.659-.907.188.377.397.746.607 1.113-.594.292-1.114.781-1.784.888-.151-.313-.323-.614-.521-.898.011-.05.03-.147.039-.196z"/><path d="m20.181 32.001c-.441-.553.512-.825.902-1.004.623 1.108 1.171 2.261 1.842 3.341-.144.369-.346.711-.535 1.059-.056.006-.167.018-.223.024-.686-1.128-1.31-2.288-1.986-3.42z"/><path d="m17.692 31.357c.532.099.844.57 1.219.913.52.5.932 1.104 1.242 1.755-.278.257-.561.51-.86.743-.514-.952-1.158-1.944-2.182-2.4.197-.336.394-.67.581-1.011z"/><path d="m27.374 32.448c.357-.178.699-.386 1.066-.543 1.1 1.955 2.205 3.908 3.314 5.859.34.534.209 1.228-.112 1.739-.53.588-1.436.847-2.134.394-1.942-1.052-3.919-2.044-5.818-3.171.241-.336.476-.676.714-1.014 1.708.997 3.487 1.867 5.201 2.854.266.178.587.191.896.178.037-.131.075-.256.111-.384-1.116-1.894-2.186-3.816-3.274-5.727.009-.046.027-.138.036-.185z"/><path d="m23.78 32.71c.397.132.743.367 1.073.62-.171 1.482-1.034 2.783-2.046 3.837-.394-.129-.716-.451-.833-.85.963-.96 1.66-2.242 1.806-3.607z"/><path d="m17.191 32.995c.503.05 1.16.536.908 1.099-.29.903-.361 1.918-.06 2.826.354.94 1.556 1.257 2.402.79.234.332.525.616.818.897-.672.526-1.592.603-2.41.477-1.377-.375-2.345-1.801-2.248-3.216-.086-.996.302-1.939.59-2.873z"/><path d="m18.528 35.879c.853-.571 1.603-1.278 2.312-2.017.242.392.617.786.64 1.258-.565.809-1.436 1.357-2.242 1.907-.575.6-1.377-.839-.71-1.148z"/><path d="m21.138 36.005c.072-.001.145 0 .218.005.517 1.394 2.146 2.41 3.603 1.824.396.264.841.453 1.215.755-1.12.542-2.471.793-3.645.268-1.012-.355-1.783-1.191-2.241-2.138.315-.198.602-.437.85-.714z"/></svg>