<svg enable-background="new 0 0 58.751 76.075" viewBox="0 0 58.751 76.075" xmlns="http://www.w3.org/2000/svg"><g clip-rule="evenodd" fill-rule="evenodd"><path d="m43.232 19.872c1.237-1.661 2.575-3.263 3.876-4.907 1.291-1.632 2.43-3.379 3.729-5.005 2.282-2.856 4.426-5.766 6.723-8.636.287-.358.612-.815 1.079-.98.219 3.241.04 7.279.099 10.843-2.779 3.643-5.445 7.215-8.293 10.942-.666.872-1.466 1.733-2.061 2.747-.582.992-1.383 1.885-2.061 2.748-.99 1.261-2.075 2.647-3.189 4.023-.3.37-.796 1.297-1.079 1.324-.354.035-.605-.569-.884-.932-1.84-2.402-3.783-4.787-5.495-7.164-1.533-2.128-3.026-4.166-4.612-6.231-.51-.664-.964-1.435-1.668-1.913-.713.503-1.152 1.291-1.668 1.963-3.111 4.049-6.385 8.129-9.519 12.217-.518.676-.935 1.447-1.619 1.963-.87-.753-1.514-1.712-2.209-2.6-.695-.892-1.327-1.841-2.011-2.748-1.348-1.787-2.775-3.511-4.072-5.446-1.201-1.79-2.754-3.534-4.122-5.446-.892-1.245-2.063-2.684-3.091-4.072-.321-.433-.875-1.012-.981-1.374-.199-.678-.049-1.772-.049-2.698 0-1.897 0-3.615 0-5.495 0-.982-.039-2.066.049-2.847-.003-.085.035-.128.097-.148.49.206 1.188 1.323 1.62 1.913 1.467 2.009 3.131 3.963 4.562 5.888 2.03 2.732 3.948 5.404 5.986 7.9.654.891 1.337 1.772 2.011 2.649.664.863 1.315 1.769 2.11 2.502.615-.204.936-.86 1.325-1.324 2.842-3.388 5.597-7.087 8.39-10.549.807-1.029 1.558-1.921 2.404-3.043.223-.294.623-.848.933-.834.23.011.665.646.883.933 3.366 4.405 6.585 8.768 10.01 13.101.19.24 1.249 1.883 1.619 1.913.587.049.833-1.059 1.178-1.177z"/><path d="m16.59 37.584c.748-.453 1.204-1.234 1.717-1.913 1.537-2.036 3.075-4.079 4.661-6.183 1.791-2.375 3.832-4.57 5.643-7.065.252-.347.553-.932.834-.932.309 0 .597.651.834.981 1.758 2.436 3.59 4.781 5.397 7.164 2.13 2.807 4.101 5.483 6.28 8.096.639-.163.748-.854 1.227-1.178 1.914-2.519 3.877-5.02 5.741-7.654.61-.863 1.279-1.71 1.913-2.551 1.911-2.536 3.895-5.016 5.79-7.605.311-.427.64-.857.981-1.275.295-.361.558-.912 1.079-1.031.114 3.739.026 7.409.05 11.188-1.729 2.3-3.428 4.786-5.3 7.114-1.858 2.311-3.803 4.593-5.397 7.017-1.33 2.023-2.984 3.787-4.514 5.839-.189.254-1.213 1.819-1.619 1.815-.332-.003-1.011-1.07-1.275-1.423-2.723-3.616-5.388-7.155-8.096-10.696-1.1-1.288-1.924-2.853-3.189-3.975-1.299 1.151-2.164 2.67-3.287 3.975-2.235 2.596-4.142 5.285-6.33 8.096-.652.838-1.609 2.042-2.404 3.042-.249.313-.652.88-.883.883-.305.004-.891-.849-1.178-1.227-1.024-1.348-2.026-2.786-2.993-4.072-1.344-1.788-2.869-3.538-4.072-5.397-.607-.936-1.384-1.817-2.061-2.698-2.039-2.655-4.106-5.341-6.085-8.099.032-3.778-.065-7.687.049-11.384-.002-.084.036-.127.098-.147h.099c2.114 2.58 4.025 5.354 6.084 8.048.675.883 1.442 1.714 2.012 2.649 1.156 1.898 2.739 3.546 4.072 5.348 1.333 1.804 2.644 3.615 4.122 5.25z"/><path d="m58.491 75.904c-.625.258-1.387.147-2.109.147-2.171 0-4.586.025-6.723-.049-.79-.648-1.267-1.514-1.814-2.355-.674-1.034-1.538-1.999-2.307-2.993-2.282-2.948-4.622-5.991-6.918-8.979-1.536-1.999-3.162-3.918-4.661-5.938-1.494-2.012-2.956-4.064-4.612-5.937-.696.285-.908 1.055-1.423 1.521-1.248 1.664-2.519 3.305-3.827 4.907-5.088 6.558-10.152 13.137-15.309 19.626-2.777.043-5.955.069-8.636-.147.106-.521.539-.886.834-1.275.88-1.161 1.796-2.335 2.748-3.483 8.417-11.046 16.942-21.981 25.465-32.923.447-.317 1.036.815 1.423 1.324 2.659 3.498 5.361 7.067 7.998 10.5 2.313 3.013 4.605 5.916 6.918 8.979.751.996 1.631 1.949 2.307 2.944.431.637.808 1.261 1.275 1.865 2.66 3.436 5.405 6.973 8.096 10.45.448.58.985 1.137 1.275 1.816z"/><path d="m29.248 54.61c.356.033.819.775 1.178 1.227 1.043 1.312 2.083 2.75 3.042 4.023 3.407 4.524 6.863 8.773 10.304 13.247.685.89 1.403 1.755 1.914 2.748-.643.259-1.41.148-2.159.148-2.229.001-4.668.028-6.771-.049-1.939-2.327-3.752-4.805-5.643-7.213-.629-.8-1.111-1.717-1.914-2.355-.854.586-1.291 1.588-2.012 2.307-.897 1.231-1.877 2.41-2.797 3.63-.919 1.221-1.79 2.487-2.846 3.582-2.816-.063-5.885.129-8.537-.098.04-.581.553-.951.883-1.374 2.341-2.997 4.754-6.141 7.114-9.175 2.645-3.556 5.414-6.984 8.047-10.55.134.036.099-.098.197-.098z"/></g></svg>