<svg enable-background="new 0 0 80.181 81.04" viewBox="0 0 80.181 81.04" xmlns="http://www.w3.org/2000/svg"><g clip-rule="evenodd" fill-rule="evenodd"><path d="m79.908.142c.231 13.473.198 27.158.201 40.453.001 6.622.051 13.368.05 20.125 0 6.762.092 13.562-.101 20.226-19.727.177-40.083.049-60.276.05-6.613.001-13.156.031-19.571-.151-.023-.045-.045-.09-.101-.101.081-27.082-.237-53.607-.05-80.551 17.168-.302 34.446.077 51.571-.151 4.558-.061 9.286-.064 14.038.05 4.765.114 9.577-.156 14.239.05zm-10.315 6.541c-20.633 0-40.412-.05-60.628-.05-.738 0-1.764-.066-2.214.05-.533.138-.353 1.847-.353 2.717 0 3.101.051 5.888.051 8.905 0 4.128-.109 8.205.15 11.925 2.099.297 4.609-.08 6.642.201 3.268 9.822 6.202 20.095 9.409 29.887.212.648.299 1.375.755 1.912.46-.453.57-1.162.755-1.761 2.683-8.718 5.742-17.429 8.302-26.113.391-1.325.772-2.7 1.408-3.924 4.21-.084 8.771-.084 12.981 0 .581 1.266.871 2.642 1.258 3.975.385 1.327.901 2.602 1.308 3.925 2.045 6.646 4.154 13.447 6.239 20.025.421 1.326.708 2.7 1.358 3.925.479-.48.605-1.192.805-1.812.65-2.021 1.271-4.016 1.912-6.038 2.113-6.662 4.409-13.367 6.391-20.025.413-1.389.742-2.801 1.408-3.924 1.882-.231 4.279.053 6.139-.201.25-1.792.101-3.718.101-5.686 0-5.917.112-12.209-.151-17.811-1.313-.218-2.667-.102-4.026-.102zm-29.736 26.314c-.286.784-.525 1.694-.805 2.566-1.363 4.254-2.703 8.381-4.075 12.528-.572 1.728-.941 3.5-1.459 5.182-1.046 3.4-2.129 6.766-3.221 10.063-.839 2.537-1.597 5.075-2.415 7.547-.27.816-.482 1.718-.956 2.364-2.633.084-5.617.084-8.251 0-.692-1.555-1.061-3.232-1.56-4.88-2.497-8.236-5.019-16.626-7.397-24.855-.832-2.88-1.795-5.834-2.667-8.604-.109-.349-.089-.885-.503-1.057-.132 12.67-.001 25.703 0 38.088 0 .81-.119 1.677.151 2.465 22.113.157 44.611.154 67.018.051.264-.772.151-1.611.151-2.415 0-2.63-.146-5.184-.051-7.749.127-3.361.146-6.791 0-10.113-.303-6.916.321-13.824-.15-20.628-.547.646-.699 1.538-.956 2.314-.278.84-.533 1.684-.806 2.516-1.635 5.002-3.277 9.989-4.83 14.993-1.818 5.864-3.84 11.721-5.635 17.51-.252.813-.35 1.722-.905 2.415-2.777-.001-5.448.06-8.201-.051-.476-.725-.613-1.593-.856-2.415-3.725-12.638-7.529-25.397-11.371-37.886-.034 0-.067 0-.101 0 .018-.101-.143.011-.149.051z"/><path d="m39.606 55.437c2.509-.206 4.504 1.25 5.333 2.768.788 1.442.823 3.275.201 4.78-1.069 2.587-4.29 4.058-7.145 2.918-1.687-.673-3.156-2.338-3.321-4.629-.238-3.346 2.071-5.601 4.932-5.837z"/></g></svg>