<svg enable-background="new 0 0 14.517 14.615" viewBox="0 0 14.517 14.615" xmlns="http://www.w3.org/2000/svg"><path d="m.003.016c1.053-.007 2.107.014 3.16-.014 1.525-.006 3.05.006 4.575 0 .361.003.722-.01 1.082.014.957-.003 1.913.005 2.87-.004.941-.012 1.882.017 2.824.002 0 4.864.007 9.727-.001 14.59-2.897.002-5.793.02-8.69.008-.539-.033-1.079-.005-1.618-.015-1.402.003-2.804.004-4.206 0 .008-4.862-.004-9.721.004-14.581zm5.904 1.493c-.137.034-.276.059-.414.088-.055.016-.109.031-.162.049-.043.011-.085.023-.127.036-.195.067-.391.134-.578.219-.171.071-.338.152-.5.242-.475.272-.92.599-1.303.989-.141.135-.274.279-.397.431-.042.053-.084.107-.125.16-.156.197-.293.41-.414.63-.021.036-.042.072-.063.108-.268.483-.454 1.008-.576 1.546-.012.067-.024.135-.039.202-.013.083-.023.168-.044.251-.031.35-.078.703-.048 1.056.01.628.163 1.247.37 1.838.019.057.043.113.066.17.109.257.238.504.374.748.036.052.069.105.104.158.046.074.096.146.144.219.208.289.435.563.687.815.337.307.696.593 1.085.831.153.089.308.175.466.255.189.084.379.165.572.239.043.014.086.03.129.045.022.005.067.016.089.021.283.104.58.163.876.214.383.061.775.025 1.162.038.215-.041.44-.034.648-.107.039-.006.079-.011.119-.016.448-.138.9-.292 1.288-.562.111-.067.22-.14.316-.229-.012-1.029.026-2.058.005-3.087-.01.016-.026.046-.034.062-.149.144-.255.328-.414.462-.131.107-.253.225-.393.319-.134.091-.274.173-.421.241-.233.121-.485.203-.742.257-.352.094-.721.077-1.08.054-.313-.054-.625-.128-.912-.267-.057-.023-.112-.051-.167-.077-.52-.265-.952-.69-1.263-1.182-.054-.078-.099-.162-.143-.246-.029-.067-.057-.135-.084-.203-.026-.071-.053-.142-.082-.211-.093-.29-.154-.59-.177-.894-.02-.302.039-.599.094-.895.024-.069.037-.142.062-.211.005-.019.014-.056.019-.075.245-.73.755-1.373 1.42-1.763.134-.08.273-.148.416-.211.213-.075.428-.152.654-.178.298-.068.607-.03.91-.038.339.032.673.12.985.258.04.021.079.041.119.062.119.051.227.122.337.19.04.029.082.056.124.083.217.14.382.341.567.519.286.34.509.737.616 1.17.012.069.024.139.043.208.012.084.022.169.042.252.054.734.015 1.47.025 2.205 0 .542-.017 1.083.01 1.624-.004.458-.004.915-.015 1.373.014.346-.019.696.018 1.04.858-.004 1.717.005 2.575-.004.092-.109.067-.277.073-.412-.035-.776.025-1.553.014-2.329-.005-.804.012-1.608-.013-2.411-.005-.569.008-1.145-.114-1.704-.055-.267-.133-.528-.211-.789-.015-.042-.03-.084-.045-.125-.062-.169-.135-.334-.21-.498-.023-.044-.044-.088-.066-.132-.06-.114-.116-.23-.192-.335.002-.014.007-.041.009-.054l-.034-.005c-.155-.247-.319-.491-.509-.713-.01-.011-.03-.032-.04-.044-.582-.698-1.338-1.251-2.176-1.603-.071-.029-.141-.056-.21-.084-.68-.258-1.41-.378-2.135-.376-.321.022-.643.034-.96.093zm3.64-.035c.078.082.194.095.296.131.106.05.215.094.32.148.924.553 1.719 1.325 2.267 2.256.041.072.081.145.122.218.093.168.172.346.215.534.017.058.034.116.053.173.048-.208.019-.423.025-.635.003-.942-.011-1.885.011-2.827-1.103 0-2.206-.004-3.309.002z"/></svg>