<svg enable-background="new 0 0 75.69 75.899" viewBox="0 0 75.69 75.899" xmlns="http://www.w3.org/2000/svg"><path clip-rule="evenodd" d="m75.512.273c.272 1.44.15 3.06.15 4.72-.001 21.153.001 40.816 0 61.463v7.13c0 .744.117 1.537-.15 2.26-24.677.146-50.455-.05-75.323-.101-.27-.687-.084-1.427-.101-2.159-.052-2.312-.082-4.675 0-7.03.11-3.175-.126-6.387 0-9.541.126-3.141-.196-6.302-.05-9.44.144-3.091 0-6.201 0-9.24 0-12.524.035-25.217.101-38.113 1.026-.267 2.129-.15 3.213-.15 3.247 0 6.791.151 10.043 0 2.346-.109 5.346.122 7.934 0 2.596-.123 5.235-.051 7.683-.05 5.173.001 10.339.1 15.466.1 8.911.001 18.016.05 27.066.051 1.317-.001 3.019-.077 3.968.1zm-8.837 39.067c0-1.963.082-3.847-.201-5.524-.537-3.179-1.374-6.212-2.712-8.737-2.71-5.117-5.833-9.048-10.545-12.252-5.166-3.514-12.95-6.227-21.693-4.972-3.758.539-6.937 1.73-9.792 3.315-7.502 4.164-12.858 10.397-15.265 19.684-1.201 4.631-1.127 10.823.251 15.516 2.541 8.653 8.2 15.355 15.968 18.981 3.893 1.817 8.252 3.407 14.362 3.013 4.017-.259 7.379-1.225 10.294-2.812.644-.351 2.327-1.181 2.511-1.858.127-.467 0-1.19 0-1.808 0-4.554.083-8.965-.101-13.257-.56.035-.848.664-1.205 1.055-.386.421-.874.773-1.205 1.205-3.293 2.72-8.108 5.113-14.01 3.967-4.782-.929-8.714-3.767-11.147-7.331-1.246-1.825-2.185-4.047-2.662-6.578-1.086-5.768 1.046-10.822 3.816-13.96 2.915-3.302 6.845-5.788 12.604-5.925 2.899-.069 5.385.667 7.532 1.708 4.06 1.966 7.205 5.425 8.587 9.892 1.525 4.929.819 11.588.954 17.224.149 6.231-.272 12 .1 17.827 4.394.142 9.23.212 13.458 0 .184-9.299.101-19.009.101-28.373zm-14.814-31.033c.221.401.69.584 1.055.804 3.579 2.153 6.557 4.712 9.089 7.833 1.414 1.743 2.666 3.635 3.766 5.624.213.384.307.921.753 1.155.268-1.063.151-2.187.151-3.314 0-3.333.08-6.869.05-10.093-.007-.737.049-1.396-.15-2.009-4.843-.146-9.993-.221-14.714 0z" fill-rule="evenodd"/></svg>