<svg enable-background="new 0 0 83.527 72.574" viewBox="0 0 83.527 72.574" xmlns="http://www.w3.org/2000/svg"><path clip-rule="evenodd" d="m83.325 71.068c-2.267.053-5.024.152-7.205-.051-.269-4.404.028-9.664-.26-14.205-.409.17-.517.666-.674.986-.185.377-.325.779-.519 1.141-1.09 2.043-2.873 3.678-4.664 5.131-2.42 1.963-5.336 3.348-8.502 4.613-6.188 2.477-13.731 4.228-22.29 3.836-3.983-.182-7.763-.959-11.145-1.969-3.367-1.006-6.456-2.309-9.331-3.785-2.825-1.449-5.45-3.174-7.568-5.547-1.999-2.238-3.736-5.381-3.888-9.174-.162-4.076 1.667-7.088 3.681-9.436 2.038-2.375 4.903-4.076 7.724-5.391 2.986-1.391 6.23-2.477 9.642-3.473 3.466-1.012 7.226-1.541 11.456-1.658 4.232-.119 8.268.451 11.975 1.141 3.716.689 7.057 1.803 10.056 3.057 3.07 1.287 5.85 2.949 8.346 4.77 1.295.943 2.336 2.006 3.318 3.215.497.611.992 1.252 1.296 1.969.306.725.438 1.574 1.036 2.229.279-2.988.156-5.939.156-8.76-.001-2.887-.476-5.578-.83-8.035-.719-4.984-2.881-9.082-5.546-12.232-2.782-3.289-5.764-6.209-9.85-7.932-2.091-.881-4.261-1.623-6.687-2.176-2.383-.545-4.981-.789-7.828-1.037-9.076-.796-16.941.765-22.652 3.835-3.953 2.125-6.997 4.67-9.538 8.242-1.867 2.623-3.502 5.475-4.354 8.967-.288 1.184-.457 2.42-.674 3.732-.207 1.259-.406 2.639-.466 3.993-.061 1.359.066 2.764-.208 4.197-1.13.189-2.458.104-3.731.104-1.223.002-2.513.109-3.525-.154-.382-6.902.721-12.83 2.644-17.781.97-2.496 2.12-4.668 3.577-6.738 4.327-6.146 9.412-11.092 17.262-13.684 2.609-.863 5.288-1.553 8.242-2.074 2.977-.525 6.292-.479 9.642-.881 1.069-.129 2.339.01 3.473.103 7.754.633 14.164 2.293 19.696 5.027 6.327 3.129 10.859 7.885 14.307 13.996 2.585 4.582 4.247 10.029 4.562 16.691.105 2.238 0 4.606 0 7.051v21.252c-.001 2.319.122 4.641-.156 6.895zm-44.268-30.998c-7.944.482-13.982 2.742-19.335 5.857-1.788 1.041-3.417 2.25-4.251 4.199-.486 1.137-.534 2.701-.052 3.732.894 1.906 2.941 3.342 4.769 4.561 3.898 2.6 8.365 4.107 13.426 5.34 2.682.652 5.509 1.037 8.347 1.037 3.001 0 5.77-.463 8.397-.934 2.623-.471 5.036-1.221 7.36-2.021 2.237-.772 4.367-1.791 6.272-3.109 1.805-1.252 3.904-2.734 4.355-5.029.131-.67.045-1.615-.104-2.072-.765-2.361-2.886-3.834-4.924-5.236-2.191-1.508-4.571-2.563-6.791-3.422-4.985-1.928-10.534-3.223-17.365-2.902-.035.001-.07-.003-.104-.001z" fill-rule="evenodd"/></svg>