<svg enable-background="new 0 0 78.536 79.296" viewBox="0 0 78.536 79.296" xmlns="http://www.w3.org/2000/svg"><g clip-rule="evenodd" fill-rule="evenodd"><path d="m.428 0c16.157-.003 32.296.05 47.942.201-.059.653-.473 1.215-.804 1.757-3.608 5.924-7.104 12.112-10.793 18.072-1.338 2.162-2.659 4.365-3.916 6.576-3.789 6.672-7.709 13.249-11.646 19.83-1.3 2.172-2.583 4.376-4.066 6.425-.058-.008-.089.012-.1.051-4.081.085-8.208 0-12.701 0-1.42 0-2.845.116-4.167-.15-.239-16.048-.048-33.114-.05-49.498 0-.987-.099-2.692.15-3.163.037-.047.092-.076.151-.101z"/><path d="m78.391.301c.252 1.474.1 3.007.101 4.569.001 25.024.014 48.739-.101 73.344-.387.077-.519-.387-.652-.603-2.581-4.134-5.02-8.505-7.53-12.802-5.361-9.169-10.776-17.902-16.165-27.159-2.277-3.91-4.745-7.862-7.078-11.897-.302-.521-.896-1.406-.904-1.757-.008-.376.519-1.146.804-1.606 4.532-7.311 8.68-14.938 13.253-22.139 6.079-.028 12.245-.117 18.272.05z"/><path d="m39.887 34.439c.366-.059.646.583.903 1.004.722 1.181 1.407 2.411 2.058 3.514 1.864 3.16 3.639 6.139 5.522 9.237.949 1.562 1.959 3.067 2.661 4.719-.315.279-.811.1-1.205.1-5.869.013-12.262.001-18.273 0-.827 0-1.684.118-2.46-.151.188-.896.877-1.524 1.306-2.309.428-.784.758-1.634 1.204-2.41 2.181-3.787 4.474-7.488 6.777-11.295.502-.828.937-1.693 1.507-2.409z"/><path d="m.327 63.253c14.242-.067 28.393.153 42.771.151 3.386-.001 6.784 0 10.543 0 1.166-.001 2.689-.201 3.514.05.518.158.972 1.271 1.306 1.857 1.147 2.021 2.399 4.12 3.514 5.975 1.208 2.009 2.406 3.905 3.565 5.924.367.64.845 1.297.954 2.058-16.631.115-33.141-.153-49.8-.15-5.568.001-11.166.076-16.517-.15-.196-1.228-.199-2.553-.15-3.865.117-3.142.051-6.424.05-9.79 0-.682-.072-1.609.101-1.958.065-.019.078-.089.149-.102z"/></g></svg>