<svg enable-background="new 0 0 77.846 78.439" viewBox="0 0 77.846 78.439" xmlns="http://www.w3.org/2000/svg"><g clip-rule="evenodd" fill-rule="evenodd"><path d="m38.439.176c-.133.914-.583 1.767-1.004 2.56-1.244 2.349-2.4 4.814-3.616 7.232-3.229 6.424-6.377 12.935-9.591 19.433-3.194 6.459-6.366 12.912-9.591 19.434-1.196 2.42-2.392 4.799-3.616 7.281-.406.823-.697 1.699-1.104 2.511-1.622 3.231-3.152 6.523-4.77 9.742-1.402 2.788-2.801 5.57-4.218 8.436-.18.363-.317.915-.804 1.005-.198-22.751-.102-44.94-.101-68.093.001-2.448.05-4.918.05-7.331 0-.769-.117-1.571.151-2.311 6.329-.129 12.92.095 19.483 0 3.137-.045 6.305.087 9.44 0 3.138-.087 6.27-.145 9.291.101z"/><path d="m42.507.075c.654.032 1.437-.064 2.008.05.502.286.618.888.854 1.357 1.698 3.376 3.372 6.963 5.021 10.445.482 1.018.817 2.087 1.305 3.112 4.229 8.885 8.723 17.875 12.905 26.865.697 1.497 1.434 2.938 2.16 4.47.225.475.577.991.502 1.557-.555.106-1.025-.246-1.506-.452-.484-.207-1.041-.364-1.356-.703-.282-.304-.552-1.056-.854-1.657-3.622-7.206-6.928-14.648-10.545-21.844-.543-1.081-1.215-2.172-1.657-3.314-.111-.288-.16-.668-.251-.903-.621-1.611-1.5-3.153-2.26-4.721-1.883-3.889-3.823-7.771-5.574-11.75-.347-.788-.907-1.516-.954-2.41.075-.028.127-.076.202-.102z"/><path d="m48.03.075c.655.032 1.437-.064 2.009.05.725.507.837 1.416 1.155 2.21.415 1.038.986 2.022 1.456 3.063 1.375 3.039 2.968 6.062 4.369 9.139.924 2.03 1.961 4.034 2.963 6.026 1.009 2.007 1.969 4.055 2.913 6.075 3.572 7.653 7.369 15.181 10.947 22.849.224.48.605.975.552 1.557-.574.047-1.102-.327-1.607-.553-.524-.234-1.083-.414-1.506-.753-5.944-12.336-11.906-24.649-17.878-36.958-.461-1.047-.947-2.076-1.457-3.114-.516-1.051-.839-2.17-1.355-3.213-.762-1.541-1.456-3.108-2.209-4.67-.242-.502-.526-1.043-.552-1.607.074-.027.126-.075.2-.101z"/><path d="m77.708.225c.202 9.146.126 19.409 0 28.321-.546-.368-.771-1.042-1.055-1.607-.863-1.717-1.715-3.523-2.561-5.322-2.783-5.917-5.596-11.936-8.436-17.928-.418-.881-.842-1.714-1.255-2.661-.104-.24-.406-.63-.101-.904 4.492-.026 8.97-.122 13.408.101z"/><path d="m53.403.125c.655.032 1.437-.064 2.008.051.489.294.587.894.804 1.355 1.551 3.294 3.268 6.677 4.871 10.043 1.821 3.827 3.637 7.684 5.523 11.5 3.246 6.564 6.416 13.35 9.691 20.136.445.922 1.211 1.971 1.406 2.812.363 1.564-.115 3.551 0 5.121-.313.037-.451-.358-.553-.552-2.003-3.825-3.8-8.023-5.774-11.951-2.115-4.206-4.018-8.561-6.126-12.755-2.119-4.214-4.051-8.529-6.176-12.755-1.847-3.673-3.486-7.513-5.323-11.197-.254-.511-.578-1.108-.552-1.708.075-.025.127-.074.201-.1z"/><path d="m58.876.125c.708.03 1.535-.061 2.16.051.811 1.373 1.454 2.843 2.159 4.269 4.921 9.952 9.62 20.203 14.562 30.179.045 1.712.038 3.264-.05 5.021-.468-.095-.581-.672-.753-1.004-1.435-2.758-2.749-5.768-4.168-8.637-1.602-3.239-3.251-6.525-4.771-9.843-2.615-5.712-5.459-11.537-8.285-17.374-.361-.745-1.096-2.017-1.004-2.561.037-.047.091-.076.15-.101z"/><path d="m40.297 2.888c.509-.101.681.665.854 1.055.212.477.518.902.502 1.306-.149.867-.673 1.589-1.054 2.359-2.609 5.276-5.323 10.574-7.984 15.868-6.098 12.127-11.921 24.36-18.027 36.507-2.683 5.336-5.13 10.759-7.733 16.169-.357.741-.662 1.53-1.205 2.159-.713.06-1.826.13-2.461-.05-.055-.455.273-.837.452-1.206 1.309-2.707 2.669-5.491 4.067-8.235 1.191-2.337 2.218-4.717 3.364-7.181 3.266-7.02 7.053-13.964 10.445-21.09 2.964-6.226 6.171-12.472 9.29-18.78 2.283-4.618 4.592-9.304 6.98-14.061.368-.733.728-1.572 1.155-2.36.475-.879.79-1.895 1.355-2.46z"/><path d="m10.821 78.36c-.817-.074-1.747.139-2.36-.05.078-.919.635-1.646 1.004-2.41.191-.396.357-.803.552-1.206.196-.405.269-.831.452-1.255.292-.676.723-1.338 1.055-2.009 2.316-4.684 4.643-9.538 6.98-14.261 2.661-5.38 5.464-10.738 8.034-16.22 2.527-5.39 5.448-10.712 8.035-16.269.624-1.341 1.288-2.716 2.008-4.067 1.745-3.27 3.38-6.672 5.072-10.093.348-.703.706-1.484 1.055-2.009.026-.054.112-.111.201-.101.553.064 1.341 1.724 1.356 2.26.017.613-.598 1.49-.954 2.209-2.424 4.901-4.97 9.966-7.382 14.764-2.853 5.675-5.563 11.405-8.335 16.922-2.835 5.642-5.757 11.281-8.386 16.923-1.324 2.842-2.833 5.629-4.168 8.486-1.002 2.146-2.153 4.211-3.113 6.378-.312.7-.576 1.455-1.106 2.008z"/><path d="m45.72 14.136c.41.25 1.293 1.74 1.306 2.41.01.505-.542 1.443-.854 2.059-4.845 9.564-9.547 19.337-14.261 28.924-2.531 5.147-5.107 10.308-7.633 15.416-2.211 4.474-4.388 8.991-6.628 13.508-.309.622-.488 1.354-1.004 1.858-.842.025-1.988.212-2.662-.05.441-1.452 1.212-2.76 1.858-4.118 4.469-9.386 9.24-18.655 13.809-28.019 4.873-9.875 9.715-20.048 14.814-29.978.36-.7.725-1.483 1.105-1.908.036-.049.091-.078.15-.102z"/><path d="m21.969 78.31c-.809.012-1.991.223-2.611-.05.361-1.312 1.086-2.489 1.657-3.717 1.69-3.633 3.592-7.254 5.423-10.897 2.423-4.818 4.735-9.748 7.181-14.612 2.396-4.766 4.679-9.742 7.181-14.612 2.115-4.118 4.263-8.41 6.377-12.705.322-.654.627-1.381 1.004-1.758.52-.365.725.414.955.904.229.49.503.901.502 1.256-.002.443-.484 1.211-.804 1.858-6.654 13.461-13.312 26.926-19.936 40.324-1.159 2.344-2.297 4.707-3.465 7.03-1.182 2.351-2.161 4.78-3.464 6.979z"/><path d="m51.093 25.735c.043-.01.047.019.05.05.651.627.92 1.523 1.306 2.309 2.53 5.156 5.091 10.511 7.583 15.768.178.376.513.795.402 1.256-.781-.088-1.495-.513-2.21-.804-.738-.3-1.44-.637-2.16-.953-1.451-.64-2.955-1.17-4.369-1.858-.582-.283-1.111-.614-1.707-.853-1.202-.483-2.381-.996-3.565-1.558-.539-.254-1.216-.396-1.607-.903.302-1.113.862-2.188 1.406-3.214 1.07-2.018 2.124-3.98 3.113-6.126.481-1.045.978-2.211 1.607-3.013.038-.047.092-.076.151-.101z"/><path d="m77.708 55.311c.052.793.142 2.001-.05 2.712-.797-.077-1.548-.471-2.26-.804-5.055-2.359-10.158-4.435-15.416-6.729-4.454-1.942-8.701-3.809-13.206-5.774-.67-.292-1.404-.599-2.21-.954-.553-.244-1.957-.622-2.059-1.104-.088-.423.754-2.111 1.255-2.009.694.142 1.403.569 2.16.903 2.045.904 4.496 1.877 6.377 2.712 5.687 2.524 11.205 4.923 16.973 7.332 2.86 1.195 5.687 2.379 8.436 3.715z"/><path d="m77.708 61.237c.027.752.196 2.021-.101 2.611-1.638-.521-3.153-1.318-4.72-2.009-1.556-.686-3.148-1.333-4.72-2.009-4.628-1.987-9.398-4.045-14.211-5.976-1.569-.629-3.102-1.473-4.62-2.108-2.232-.937-4.601-2.104-7.03-3.063-.567-.225-2.107-.684-2.209-1.155-.09-.417.769-2.11 1.255-2.059.672.071 1.513.627 2.31.954 5.448 2.238 10.538 4.68 15.868 6.93 4.688 1.979 9.094 3.896 13.709 5.875 1.493.641 3.058 1.184 4.469 2.009z"/><path d="m77.657 69.522c-.92-.073-1.733-.587-2.561-.954-8.955-3.97-18.313-7.92-27.468-11.951-1.562-.688-3.247-1.469-4.971-2.209-.788-.339-1.593-.613-2.511-1.055-.6-.288-2.196-.732-2.31-1.256-.094-.431.789-2.079 1.256-2.059.674.029 1.756.606 2.561.954 7.281 3.146 14.327 6.427 21.693 9.491 4.045 1.683 7.98 3.579 12.051 5.272.78.324 1.676.542 2.31 1.154.056.752.141 1.945-.05 2.613z"/><path d="m77.708 72.736c.052.705.142 1.838-.05 2.461-.966-.112-1.836-.621-2.711-1.004-6.069-2.657-12.313-5.391-18.53-7.984-3.525-1.472-6.933-3.218-10.444-4.721-2.648-1.134-5.309-2.233-7.934-3.415-.846-.38-1.805-.606-2.511-1.255.005-.784.464-1.543.904-2.059.618-.251 1.977.629 2.812 1.004 2.574 1.157 5.292 2.246 7.783 3.314 3.487 1.496 6.904 3.081 10.244 4.52 5.238 2.256 10.213 4.563 15.466 6.728.865.356 1.714.754 2.561 1.155.811.386 1.734.634 2.41 1.256z"/><path d="m34.221 59.379c7.151 3.012 14.449 6.359 21.492 9.44 3.608 1.579 7.196 3.205 10.796 4.671 3.186 1.297 6.268 2.699 9.44 4.067.395.17.931.322 1.155.753-4.32.178-8.683.099-13.056.101-12.169.004-24.009-.188-36.004 0-1.054.016-2.134.105-3.163-.15.19-.879.676-1.656 1.054-2.461 2.577-5.479 5.349-10.926 8.085-16.32.075-.026.127-.075.201-.101z"/></g></svg>