<svg enable-background="new 0 0 77.805 61.41" viewBox="0 0 77.805 61.41" xmlns="http://www.w3.org/2000/svg"><g clip-rule="evenodd" fill-rule="evenodd"><path d="m65.96.015c3.919-.196 6.723 1.607 8.543 3.427 1.819 1.82 3.519 4.773 3.278 8.642-.203 3.264-1.912 6.073-4.123 7.848-2.173 1.744-5.676 3.066-9.238 2.285-3.42-.749-6.045-2.922-7.55-5.662-.759-1.381-1.303-3.167-1.391-5.215-.082-1.911.405-3.772 1.192-5.314 1.197-2.346 3.575-4.642 6.605-5.562.77-.235 1.655-.398 2.684-.449z"/><path d="m60.249.114c-.078.444-.559.584-.845.794-3.011 2.208-5.689 5.891-5.165 11.523.203 2.183 1.099 4.024 1.937 5.812 1.622 3.458 3.282 7.003 4.967 10.43 1.026 2.087 2.008 3.888 2.781 6.01 3.771 7.91 7.733 15.816 11.474 23.791.237.507.63 1 .646 1.589-.593.349-1.347.199-2.036.199-4.971 0-10.294-.01-15.248-.099-.543-.506-.736-1.266-1.043-1.937-2.138-4.682-4.29-9.599-6.407-14.404-2.395-5.438-5.03-11.006-7.45-16.292-1.312-2.865-2.499-5.325-2.683-9.188-.355-7.516 3.472-12.631 8.097-15.546 1.884-1.188 3.791-2.032 6.456-2.483 1.331-.226 3.022-.377 4.519-.199z"/><path d="m45.695.958c-.078.702-.432 1.365-.744 1.987-2.105 4.188-4.16 8.571-6.159 12.913-2.271 4.935-4.721 9.804-7.053 14.702-1.172 2.461-2.374 4.905-3.576 7.351-2.994 6.089-5.805 12.328-8.693 18.527-.566 1.217-1.068 2.467-1.838 3.576-5.901.063-11.941.133-17.632-.149-.021-.718.495-1.324.795-1.887 6.905-14.43 14.768-28.33 21.655-42.864.58-1.224 1.098-2.471 1.688-3.675.582-1.185 1.22-2.347 1.838-3.526 1.227-2.34 2.259-4.809 3.676-7.053 3.785-.09 8.268-.05 12.219-.049 1.317-.001 2.619-.123 3.824.147z"/><path d="m49.57 43.574c1.947 3.469 1.297 8.457-.298 11.324-1.623 2.917-4.416 5.324-7.947 6.159-4.211.995-8.208-.214-10.928-2.384-2.574-2.055-4.637-5.225-4.668-9.437-.028-3.777 1.544-6.83 3.526-8.791 2.132-2.109 4.732-3.661 8.543-3.924 3.125-.215 5.547.817 7.4 2.036 1.933 1.271 3.368 2.914 4.372 5.017z"/></g></svg>