<svg enable-background="new 0 0 85.385 46.37" viewBox="0 0 85.385 46.37" xmlns="http://www.w3.org/2000/svg"><g clip-rule="evenodd" fill-rule="evenodd"><path d="m59.709.254c.996 1.295 1.757 2.754 2.532 4.203 1.542 2.882 3.296 5.693 4.861 8.609.783 1.458 1.662 2.828 2.381 4.304 1.431 2.942 3.188 5.747 4.811 8.609 1.628 2.873 3.14 5.815 4.71 8.71 1.818 3.368 3.941 6.476 5.672 9.977.249.505.636.944.709 1.519-.955.272-1.956.152-2.938.152-1.952 0-3.688.042-5.773 0-.882-.018-2.191.134-2.937-.102-.491-.155-1.125-1.384-1.469-2.025-.869-1.623-1.586-2.961-2.482-4.507-.44-.76-.764-1.561-1.165-2.279-3.38-6.054-6.583-11.74-9.977-17.826-1.188-2.13-2.468-4.39-3.798-6.634-.384-.648-.885-1.862-1.367-2.076-.53-.235-1.74-.101-2.583-.101-5.47 0-10.17-.05-15.749-.051-.872 0-2.019-.139-2.583.051-.538.18-1.026 1.416-1.418 2.076-3.038 5.121-5.859 10.396-8.862 15.496-2.597 4.41-4.989 8.902-7.546 13.319-.43.742-.853 1.486-1.266 2.228-.399.717-.719 1.538-1.367 2.077-3.011.118-5.989 0-9.166 0-.987 0-2.023.121-2.938-.152-.044-.587.387-1.061.658-1.519 4.205-7.098 8.223-14.29 12.458-21.523 3.865-6.602 7.659-13.283 11.647-20.054.326-.553 1.455-2.56 2.076-2.684.576-.115 1.399-.002 2.127 0 10.065.033 20.675.048 30.742.203z"/><path d="m59.962 46.186c-.775-.792-1.088-1.901-1.62-2.836-3.187-5.6-6.281-11.372-9.419-17.117-.51-.933-.933-1.95-1.672-2.734-1.769-.066-3.99-.102-6.025-.102-.674 0-1.479-.11-1.976.051-.86.279-1.002 1.838-1.62 2.38-2.83 5.231-5.799 10.388-8.66 15.648-.407.749-.866 1.477-1.215 2.229-.376.807-.577 1.74-1.317 2.329-2.912.093-6.146.051-9.217.051-1.01 0-2.044.146-2.887-.203.142-.832.721-1.465 1.114-2.177.384-.694.829-1.38 1.216-2.077 2.321-4.183 4.642-8.232 7.09-12.559 2.704-4.779 5.374-9.9 8.204-14.787.422-.729.845-1.849 1.519-1.975.702-.131 1.603 0 2.432 0 4.911 0 9.556.051 14.533.051.837 0 1.787-.121 2.33.05.549.173 1.004 1.25 1.367 1.925 2.672 4.957 5.529 9.868 8.204 14.736 1.554 2.83 3.17 5.633 4.71 8.407 1.376 2.48 2.562 5.028 4 7.495.186.318.539.684.405 1.114-.784.389-1.786.185-2.734.152-2.819-.098-5.99.114-8.762-.051z"/></g></svg>