<svg enable-background="new 0 0 81.745 81.185" viewBox="0 0 81.745 81.185" xmlns="http://www.w3.org/2000/svg"><g clip-rule="evenodd" fill-rule="evenodd"><path d="m81.603.504c.263 1.679.078 3.489.101 5.286.023 1.825.107 3.676-.101 5.388-5.011.152-10.058.051-15.307.051-5.088-.001-10.68-.614-14.601.956-3.528 1.413-6.375 4.186-8.006 7.653-.852 1.812-1.541 4.011-1.511 6.344.062 4.631 2.327 8.427 4.884 10.775 1.354 1.242 2.96 2.191 4.532 3.272 3.101 2.133 6.291 4.351 9.264 6.395 3.2 2.2 5.994 4.166 6.897 8.761.958 4.866-1.016 9.09-3.775 11.379-2.784 2.31-7.627 3.728-11.983 1.762-1.844-.831-3.229-2.038-4.381-3.474-1.181-1.473-1.823-3.295-2.467-5.337-1.858-5.897-3.854-11.88-5.689-17.824-1.835-5.942-3.703-11.774-5.689-17.773-.665-2.009-1.329-3.967-2.266-5.589-1.809-3.134-4.813-5.933-8.711-6.947-1.97-.515-4.572-.604-7.199-.604-2.574 0-5.194-.12-7.805-.051-2.503.067-5.04.1-7.552-.15-.181-2.333-.1-5.3-.1-8.058-.001-.736-.103-2.286.15-2.618.037-.047.092-.076.152-.101 22.375.017 43.998.294 66.159.303 3.345.001 6.673.05 10.019.05 1.653.001 3.344-.12 4.985.151z"/><path d="m81.603 14.753c.168 21.779.038 44.294-.101 66.26.014.081-.048.087-.05.151-23.832.11-47.856-.252-71.496-.253-2.498 0-4.914-.051-7.502-.05-.772 0-1.617.066-2.367-.201-.195-16.322-.001-33.032 0-49.695 0-5.003.051-9.815.051-14.702-.001-.649-.118-1.35.15-1.963h.1c4.882-.03 10.639.05 15.659.05 2.728.001 5.107.025 6.998.806 1.909.788 3.279 1.922 4.481 3.323 1.182 1.379 1.892 3.192 2.568 5.236 1.927 5.827 3.874 11.807 5.739 17.673 1.814 5.705 3.784 11.832 5.639 17.774.631 2.02 1.232 4.04 2.115 5.689 2.466 4.605 7.704 8.804 15.406 7.703 2.105-.301 4.062-1.142 5.64-2.165 2.881-1.867 5.425-5.397 6.294-9.314 1.607-7.249-2.234-13.052-6.546-16.062-3.06-2.136-6.17-4.196-9.315-6.294-3.059-2.041-6.546-3.948-8.257-7.351-.957-1.903-1.533-4.12-1.31-6.394.206-2.098 1.243-4.116 2.266-5.538 1.075-1.496 2.491-2.807 4.129-3.676 1.725-.915 3.95-1.26 6.545-1.259 7.654.003 15.605.091 23.164.252zm-42.797 40.581c-.18-1.578-.737-2.87-1.359-4.129-1.129-2.281-2.9-4.263-5.136-5.739-2.242-1.48-5.094-2.598-8.509-2.417-4.521.24-7.562 2.256-9.97 4.733-2.31 2.618-4.077 5.852-3.876 10.623.183 4.344 2.191 7.478 4.632 9.919 2.334 2.334 6.071 4.125 10.473 3.928 4.399-.198 7.574-2.044 9.919-4.633 2.618-2.639 4.431-6.946 3.826-12.285z"/><path d="m17.709 48.437c1.663-1.255 3.55-2.188 6.244-2.316 3.556-.168 6.227 1.229 8.056 3.021 2.312 2.268 4.096 4.959 3.725 9.768-.305 3.953-2.853 7.163-5.841 8.812-1.686.93-3.604 1.536-5.841 1.459-2.143-.073-4.01-.757-5.538-1.762-2.958-1.945-5.301-4.93-5.538-9.113-.27-4.758 1.883-7.676 4.733-9.869z"/></g></svg>