<svg enable-background="new 0 0 81.557 56.142" viewBox="0 0 81.557 56.142" xmlns="http://www.w3.org/2000/svg"><g clip-rule="evenodd" fill-rule="evenodd"><path d="m74.694 22.387c-.462.828-1.736 1.041-1.737 2.095-.001.547.704 1.042 1.328 1.431 1.62 1.01 3.183 2.448 4.241 3.883 1.485 2.015 2.671 4.694 2.964 7.869.337 3.662-.637 6.482-1.789 8.942-1.174 2.505-3.004 4.253-4.956 5.876-1.99 1.654-4.522 2.605-7.613 3.219-3.007.597-6.645.505-10.219.205-3.147-.265-6.441-.701-10.168-.562-1.621.061-3.055.408-4.854.562-1.979.17-5.927.69-5.977-1.226-.028-1.046.988-1.289 2.196-1.482 2.126-.339 3.846-1.146 4.599-2.657.868-1.739.519-4.969.46-7.409-.033-1.369-.051-2.664-.051-4.037 0-1.307.189-2.834-.103-3.934-.687-2.591-3.866-2.644-7.153-2.811-1.858-.094-3.878-.033-5.672.051-3.978.188-7.442.062-9.043 2.555-2.434 3.393-4.615 6.857-6.847 10.577-.34.566-.713 1.198-1.023 1.891-.348.778-.814 1.733-.664 2.606.361 2.101 2.421 2.539 4.548 2.913 1.259.221 2.446.519 2.452 1.686.011 2.014-3.281 1.219-5.059 1.073-1.674-.137-3.264-.255-4.905-.255-1.823 0-3.041.335-4.7.46-1.95.146-5.372.617-4.905-1.635.247-1.191 2.248-1.215 3.576-1.686 1.287-.456 2.416-1.222 3.168-2.044 1.655-1.807 3.11-4.252 4.292-6.183 1.334-2.178 2.835-4.189 4.189-6.285 1.372-2.12 2.617-4.247 4.191-6.285 4.468-7.173 8.728-13.627 13.336-20.745.328-.506.578-1.041.92-1.686.561-1.06 1.615-2.273 1.532-3.679-.053-.906-.559-1.54-1.124-1.89-1.12-.695-3.369-.808-3.423-2.299-.07-1.959 2.451-1.481 4.189-1.226 1.221.179 2.395.404 3.475.562 4.872.712 10.424.02 15.227-.307 1.24-.084 2.495-.197 3.729-.306 2.643-.233 5.373-.258 8.176-.153 5.215.194 8.708 2.011 10.985 5.211 1.316 1.85 2.487 4.654 2.351 7.767-.185 4.193-1.886 6.905-4.139 9.348zm3.628-7.97c.374-3.24-.293-6.031-1.687-8.227-.671-1.057-1.315-2.003-2.248-2.759-.906-.733-1.937-1.33-3.168-1.891-2.307-1.05-5.888-1.273-9.096-1.124-5.593.26-10.5.505-15.941 1.073-2.515.263-5.74.131-8.175-.256-1.075-.17-2.387-.44-3.628-.613-1.045-.146-3.167-.491-3.219.766-.05 1.198 2.094 1.475 2.912 1.891 1.064.541 1.881 1.634 1.584 3.219-.202 1.08-1.096 2.416-1.737 3.423-.351.553-.577 1.173-.92 1.686-1.743 2.615-3.459 5.445-5.109 7.92-5.574 8.359-10.925 16.952-16.453 25.241-1.412 2.118-2.676 4.304-4.343 6.08-.876.934-1.877 1.656-3.065 2.146-1.254.518-3.19.227-3.577 1.635.107 1.345 3.167.979 4.497.869 1.586-.132 3.202-.511 4.905-.511 1.851 0 3.234.139 5.007.307 1.385.131 4.295.724 4.343-.664.035-1-1.38-1.107-2.248-1.278-1.125-.221-2.095-.407-2.861-.715-1.312-.527-2.384-2.077-1.839-3.985.402-1.408 1.239-2.706 1.992-3.935 1.547-2.523 3.082-4.758 4.65-7.307 1.464-2.378 2.821-4.61 5.978-5.161 1.144-.2 2.47-.192 3.833-.255 1.275-.059 2.629-.102 3.984-.103 2.702 0 5.586-.021 7.716.46 1.52.343 2.894 1.509 3.117 3.27.134 1.059.02 2.133 0 3.219-.045 2.288.054 4.491.152 6.591.054 1.115.11 2.348 0 3.475-.279 2.866-2.4 4.101-5.058 4.649-.853.176-2.19.173-2.197 1.073-.011 1.324 2.968 1.028 4.292.919 1.907-.156 3.513-.322 4.956-.511 3.635-.476 7.028.063 10.168.358 3.536.331 7.32.385 10.424.102 3.285-.3 5.763-1.581 7.868-3.066 4.033-2.843 7.563-7.762 7-14.665-.282-3.463-1.49-5.883-2.963-7.971-.756-1.07-1.801-1.853-2.76-2.708-.895-.799-2.573-.936-2.81-2.657 0-.034 0-.068 0-.102.378-1.478 1.816-1.896 2.656-2.913 1.391-2.106 2.723-4.013 3.068-6.995z"/><path d="m52.825 4.197c2.094-2.957 9.117-2.92 12.519-1.124 1.423.751 2.785 1.658 3.679 2.81 2.151 2.772 3.309 7.742 1.737 11.905-1.458 3.863-4.93 6.937-10.117 7.357-1.641.133-3.669.2-5.416-.255-2.009-.524-3.506-2.293-3.679-4.753-.078-1.12-.01-2.483.051-3.781.057-1.194-.001-2.432.052-3.679.136-3.296-.355-6.624 1.174-8.48zm-.307 1.533c-.193.528-.375 1.709-.408 2.248-.13 2.075-.021 4.648-.102 6.847-.041 1.078-.039 2.347-.051 3.474-.033 3.079.556 4.879 2.503 5.825 1.907.926 4.553.709 6.54.511 2.083-.208 4.099-.878 5.468-1.891 2.085-1.542 3.766-3.855 4.395-6.591.53-2.308.305-4.902-.357-6.795-1.477-4.216-5.273-7.335-11.241-7.051-3.189.152-5.78.787-6.747 3.423z"/><path d="m40.51 4.197c-.009-.043.021-.048.052-.051 3.7-.417 3.065 4.063 3.065 7.256 0 2.338.066 4.783.103 7 .037 2.241.129 4.677 0 7-.134 2.42-1.583 4.081-3.372 4.701-2.136.74-5.073.562-8.227.562-2.647 0-6.615.391-7.103-1.839-.25-1.146.818-2.652 1.38-3.525 2.298-3.578 4.621-7.159 6.796-10.73.331-.545.496-1.18.817-1.686 1.315-2.07 2.501-4.003 3.883-6.131.7-1.078 1.465-2.115 2.504-2.555.035-.002.069-.002.102-.002zm-2.145 2.708c-1.454 2.074-2.59 4.067-3.884 6.131-.306.489-.68.968-.97 1.533-.276.538-.525 1.127-.869 1.687-1.988 3.238-3.924 6.147-5.825 9.248-.544.888-1.717 2.445-1.226 3.628.312.751 1.765.987 2.861 1.073 2.674.209 5.223.114 7.613-.051 1.215-.084 2.538-.013 3.679-.307 1.548-.399 2.777-1.587 3.27-2.963.483-1.354.217-2.984.205-4.905-.021-3.224.039-6.594.051-9.657.006-1.525.073-3.382-.051-4.905-.114-1.393-.684-2.998-2.095-2.912-1.257.075-2.161 1.546-2.759 2.4z"/><path d="m58.65 26.168c2.472-.118 4.888.389 6.591 1.073 3.6 1.446 5.929 4.146 7.358 7.971.709 1.899 1.089 4.259.817 6.745-.231 2.106-1.034 4.232-2.044 5.825-1.925 3.035-5.126 5.662-9.708 6.029-2.182.175-4.938-.021-6.847-.919-1.666-.785-3.015-2.418-3.22-4.752-.124-1.411.052-2.963.052-4.497-.001-2.997.051-6.044.051-8.737 0-3.069-.405-6.349 1.584-7.715 1.132-.778 3.369-.928 5.366-1.023zm.101.358c-1.962.093-4.125.271-5.416 1.175-1.54 1.155-1.276 4.053-1.328 6.642-.066 3.37.088 6.678 0 9.811-.043 1.522-.152 3.584.153 4.854 1.046 4.349 7.107 5.176 11.752 3.935 2.959-.791 5.272-2.54 6.744-4.803 1.556-2.391 2.755-5.485 2.453-8.993-.288-3.348-1.436-5.973-3.372-8.175-2.188-2.586-6.098-4.677-10.986-4.446z"/></g></svg>