<svg enable-background="new 0 0 38.298 38.554" viewBox="0 0 38.298 38.554" xmlns="http://www.w3.org/2000/svg"><path d="m.012 17.695c-.013-5.898-.018-11.799.015-17.695 11.345.006 22.683.032 34.029.035 1.412.009 2.824-.015 4.235.023.007 6.405-.07 12.812.007 19.218-.038 6.426-.027 12.852-.035 19.278-12.755-.009-25.51.004-38.263-.034.014-5.307-.01-10.615.016-15.922.034-1.633.027-3.27-.004-4.903zm1.288-16.294c.014 2.351-.019 4.704.008 7.055 1.196-2.366 2.37-4.747 3.525-7.133-1.154-.019-2.307-.034-3.461-.021-.059-.006-.086.048-.072.099zm5.646-.084c.628 1.348 1.292 2.68 1.957 4.01 1.273.006 2.547.013 3.819.001-.658-1.335-1.326-2.666-1.98-4.003-1.265-.016-2.53-.002-3.796-.008zm5.266.003c.468 1.076 1.042 2.109 1.54 3.174.013-.002.039-.005.052-.007.523-1.055 1.05-2.109 1.563-3.169-1.052.008-2.104 0-3.155.002zm4.62 0c-.915 1.762-1.752 3.566-2.663 5.331-1.758-.001-3.516-.003-5.274-.001-.665 1.32-1.344 2.639-1.942 3.991 3.021.005 6.042.008 9.063.004 1.532-3.109 3.126-6.19 4.616-9.318-1.266-.014-2.533-.003-3.8-.007zm11.165.023c.489 1.078 1.027 2.136 1.574 3.187.548-1.062 1.093-2.127 1.615-3.202-1.062.011-2.128-.029-3.189.015zm-5.253-.021c.637 1.346 1.313 2.673 1.972 4.008 1.259.05 2.523.008 3.784.022-.59-1.264-1.209-2.513-1.815-3.77-.055-.103-.091-.278-.242-.258-1.232-.001-2.465 0-3.699-.002zm7.413 4.989c-.089.13-.126.384-.326.36-1.696.011-3.395-.045-5.089-.004-.734 1.288-1.342 2.65-2.002 3.979 3.035.007 6.072.008 9.105.008 1.551-3.103 3.139-6.189 4.676-9.298-1.281-.02-2.56-.021-3.84-.029-.874 1.644-1.667 3.331-2.524 4.984zm-28.796 4.963c1.485 3.076 3.012 6.134 4.557 9.179.665-1.263 1.238-2.569 1.862-3.852-.873-1.774-1.751-3.543-2.614-5.322.879-1.755 1.737-3.517 2.617-5.27-.618-1.299-1.22-2.605-1.897-3.875-1.497 3.052-3.027 6.088-4.525 9.14zm18.437-5.315c-.036.061.018.121.04.177.626 1.226 1.211 2.474 1.848 3.694.608-1.27 1.255-2.52 1.889-3.777.035-.055-.016-.113-.035-.164-.62-1.249-1.218-2.511-1.868-3.743-.609 1.279-1.247 2.543-1.874 3.813zm13.167 5.354c1.333 2.613 2.586 5.269 4.003 7.837-.062-5.201.002-10.406-.028-15.608-1.388 2.556-2.639 5.186-3.975 7.771zm-17.895 4.136c-1.383 2.781-2.69 5.602-4.14 8.349-1.346 2.697-2.691 5.395-3.986 8.116 1.231.018 2.463.018 3.695.016.075.01.121-.055.146-.115.853-1.738 1.734-3.464 2.575-5.207 3.755.001 7.509 0 11.264.004.062-.006.118.021.14.082.816 1.667 1.648 3.327 2.459 4.997.056.09.075.273.218.246 1.247.003 2.493.001 3.74.003-.468-.971-.971-1.924-1.453-2.888-1.82-3.545-3.452-7.183-5.273-10.728-1.848-3.599-3.588-7.253-5.403-10.868-1.337 2.66-2.639 5.338-3.982 7.993zm7.657-3.48c.676 1.323 1.283 2.689 2.007 3.983 1.739.035 3.486-.014 5.225.029.941 1.764 1.828 3.558 2.732 5.341 1.28-.02 2.565.003 3.847-.003-1.523-3.132-3.17-6.214-4.697-9.349-3.038-.001-6.076-.01-9.114-.001zm-15.795-.001c.633 1.304 1.255 2.613 1.919 3.9.023.039.052.084.105.074 1.442.006 2.884.002 4.325.003.054.01.09-.029.114-.071.689-1.287 1.309-2.611 1.976-3.91-2.813.022-5.628-.054-8.439.004zm-5.629 2.155c-.042 2.381.036 4.763.023 7.145 1.177-.023 2.357.055 3.532-.002-1.161-2.393-2.365-4.766-3.555-7.143zm7.666 3.137c-.077-.01-.097.078-.126.131-.827 1.682-1.621 3.38-2.457 5.057-.031.069-.077.158-.168.142-1.632-.001-3.264-.002-4.896-.005-.036 1.331-.039 2.669-.012 4 2.264-.003 4.529.011 6.793.001 1.536-3.111 3.134-6.189 4.628-9.32-1.254-.007-2.508-.004-3.762-.006zm16.414.017c.527 1.071 1.064 2.137 1.602 3.203.518-1.068 1.016-2.147 1.53-3.218-1.043.027-2.089-.021-3.132.015zm2.302 4.706c.61 1.271 1.213 2.55 1.88 3.793.642-1.227 1.281-2.455 1.918-3.685.03-.061.063-.135.023-.2-.622-1.274-1.267-2.537-1.923-3.793-.656 1.282-1.3 2.575-1.898 3.885zm4.985.641c-.69 1.32-1.364 2.651-2.03 3.985 2.102.011 4.204.012 6.306.006-.005-1.323.004-2.647.026-3.968-1.432-.056-2.869-.022-4.302-.023zm-31.378 5.273c.002 1.334-.005 2.669.002 4.003 1.404 0 2.808.023 4.212.003.619-1.345 1.346-2.639 1.941-3.996-2.052-.007-4.104-.005-6.155-.01zm13.535.014c.658 1.345 1.315 2.691 1.997 4.024 1.751.003 3.502-.001 5.254.005.92 1.744 1.738 3.542 2.646 5.292 1.25.004 2.501.01 3.752-.002-1.463-3.135-3.01-6.234-4.574-9.321-3.025.005-6.05-.007-9.075.002zm15.815.018c.663 1.34 1.339 2.673 2.002 4.013 1.434 0 2.868.02 4.302-.003-.001-1.334.006-2.669-.005-4.003-2.099-.006-4.2-.011-6.299-.007zm-18.684 4.412c-.044.095-.124.207-.056.311.633 1.246 1.23 2.51 1.863 3.757.667-1.267 1.282-2.561 1.923-3.841-.641-1.277-1.265-2.565-1.921-3.834-.618 1.194-1.175 2.42-1.809 3.607zm-10.666.853c.005 1.341-.017 2.683.001 4.023.522 0 1.045.018 1.565-.007.658-1.335 1.348-2.66 1.976-4.011-1.181-.004-2.362-.004-3.542-.005zm5.657.008c.596 1.363 1.295 2.683 1.941 4.024 1.276.01 2.552.007 3.828.002-.659-1.334-1.322-2.665-1.978-4.001-1.261-.057-2.528-.014-3.791-.025zm7.879 4.026c2.81.012 5.621.009 8.431.005-.646-1.342-1.326-2.667-1.972-4.008-1.479-.039-2.962-.001-4.443-.024-.714 1.319-1.34 2.687-2.016 4.027zm13.155-4.002c.49 1.078 1.037 2.129 1.565 3.189.583-1.042 1.097-2.125 1.639-3.189-1.067-.002-2.135-.005-3.204 0zm4.685.001c-.689 1.328-1.352 2.672-2.025 4.009 2.1.044 4.203.007 6.304.024-.003-1.344.002-2.689.002-4.033-1.427.001-2.854.004-4.281 0zm-28.363 3.997c1.047.002 2.095.006 3.142.001-.509-1.065-1.006-2.137-1.562-3.177-.56 1.038-1.052 2.119-1.58 3.176z"/><path d="m19.016 15.232c.013-.003.04-.009.053-.011 1.234 2.457 2.486 4.906 3.664 7.39-2.447 0-4.894-.001-7.341-.001 1.232-2.448 2.4-4.927 3.624-7.378zm-1.508 6.059c1.051.002 2.102.006 3.153-.001-.534-1.063-1.028-2.149-1.605-3.19-.507 1.068-1.048 2.12-1.548 3.191z"/></svg>