<svg enable-background="new 0 0 79.423 79.801" viewBox="0 0 79.423 79.801" xmlns="http://www.w3.org/2000/svg"><path clip-rule="evenodd" d="m38.082.045c6.534-.311 12.228 1.027 16.937 2.978 7.055 2.926 12.521 7.492 16.688 13.213 3.968 5.445 7.464 13.086 7.699 22.102.258 9.943-2.436 17.336-6.358 23.443-.636.99-1.477 1.879-2.086 2.881-.627 1.033-1.448 1.916-2.234 2.732-6.451 6.697-15.249 11.824-27.417 12.367-9.769.436-17.33-2.758-23.245-6.557-6.002-3.853-10.812-9.192-14.056-15.794-2.173-4.42-3.7-9.662-3.974-15.893-.278-6.32 1.079-12.121 2.931-16.789 1.927-4.855 4.544-8.565 7.798-12.119 4.69-5.123 10.799-9.035 18.575-11.273 2.674-.77 5.57-1.141 8.742-1.291zm-2.98 5.91c-5.646.674-10.762 2.949-14.553 5.562-3.931 2.711-7.354 6.399-9.834 10.33-2.536 4.021-4.439 9.238-4.967 15.15-.511 5.707.597 11.246 2.186 15.248.222.559.344 1.271.894 1.639 2.449-3.883 4.57-7.939 6.854-11.92 4.571-7.967 9.191-15.869 13.708-23.842 1.133-1.998 2.188-4.055 3.328-6.059.566-.998 1.185-1.984 1.738-2.98.567-1.024 1.233-2.006 1.59-3.129-.272-.124-.74-.024-.944.001zm38.741 34.221c.164-4.73-1.035-9.035-2.284-12.416-.202-.549-.312-1.119-.497-1.641-.454-1.281-1.27-2.607-2.036-3.873-.757-1.248-1.61-2.443-2.434-3.477-3.519-4.416-7.762-8.035-13.361-10.381-2.592-1.086-6.199-2.318-9.586-2.434-.045.599.365 1.11.645 1.591 4.373 7.457 8.524 15.041 12.814 22.498 2.297 3.992 4.505 8.047 6.805 12.021 2.013 3.477 3.906 7.111 5.91 10.529.281.479.5 1.072.994 1.391 1.918-3.974 2.847-8.533 3.03-13.808zm-35.413-26.672c-.386.656-.769 1.35-1.143 1.986-1.912 3.262-3.856 6.598-5.662 9.836-.376.674-.845 1.342-1.142 1.986-.119.258-.134.547-.248.795-.273.586-.781 1.037-.845 1.738.587-.209.885-.705 1.242-1.143 1.75-1.234 3.676-2.457 6.108-2.932 4.336-.844 8.244.328 10.878 2.037.956.621 1.708 1.387 2.583 1.938-.647-1.666-1.59-3.174-2.434-4.719-.837-1.531-1.802-2.992-2.633-4.52-1.673-3.072-3.425-6.115-5.265-9.09-.033 0-.067 0-.1 0-.504.523-.904 1.346-1.339 2.088zm-4.371 19.818c-1.29 1.146-2.272 2.498-2.731 4.371-.829 3.383.507 6.414 2.086 8.096 1.335 1.422 3.153 2.648 5.513 2.83 3.276.252 5.465-1.008 7.054-2.633 1.337-1.365 2.331-3.242 2.483-5.512.2-2.99-1.105-5.277-2.533-6.705-1.479-1.48-3.829-2.762-6.755-2.533-2.17.168-3.876.983-5.117 2.086zm13.509 18.676c-2.366 1.498-5.543 2.566-9.039 2.283-3.224-.26-6.223-1.662-8.047-3.377-.394-.371-.765-.887-1.192-1.34-1.201-1.283-2.263-2.994-2.88-4.769-.893-2.566-1.134-5.898-.398-8.94-.003-.031-.008-.059-.05-.051-.059.025-.113.055-.149.1-.927 1.314-1.775 2.976-2.682 4.57-2.166 3.805-4.456 7.568-6.606 11.424-.396.709-.896 2.043-1.391 2.234-.357.139-.97.035-1.49.051-1.231.035-2.217-.045-3.178-.051-.573-.004-1.204-.072-1.49.199.148.732.528 1.455.894 2.135.365.68.817 1.348 1.241 1.938 2.571 4.062 6.062 7.598 10.282 10.281 4.206 2.674 9.119 4.752 15.198 5.365 6.687.672 12.746-.773 17.334-2.932 4.755-2.236 8.654-5.107 11.772-8.84 1.03-1.08 1.922-2.297 2.732-3.576.809-1.279 1.729-2.582 2.185-4.172-1.895-.226-4.204-.035-6.158-.199-1.074-1.359-1.807-2.98-2.683-4.52-2.394-4.209-4.789-8.6-7.202-12.717-.196-.334-.363-.834-.794-.943 1.456 7.433-1.715 13.001-6.209 15.847z" fill-rule="evenodd"/></svg>