<svg enable-background="new 0 0 62.96 70.167" viewBox="0 0 62.96 70.167" xmlns="http://www.w3.org/2000/svg"><g clip-rule="evenodd" fill-rule="evenodd"><path d="m62.723 68.976c-1.008.301-2.393.198-3.711.198-1.305 0-2.713.098-3.711-.248-.259-.641-.148-1.358-.148-2.029 0-4.758-.051-9.866-.05-14.894 0-2.809-.079-5.609.05-8.363.13-2.783-.148-5.568-.149-8.263 0-2.852-.08-5.662-.296-8.313-.225-2.744-.476-5.31-1.089-7.522-1.162-4.19-4.188-7.535-7.868-9.302-3.913-1.881-9.14-2.289-14.993-2.227-5.588.06-11.079.569-14.548 2.624-1.694 1.004-3.283 2.579-4.502 4.107-2.562 3.21-3.108 8.249-3.514 13.707-.135 1.81-.297 4.006-.247 6.086.016.648.073 1.623-.247 1.88-.486.388-2.941.148-3.761.148-1.395 0-2.641.146-3.761-.05-.022-.044-.044-.088-.1-.099-.437-11.092.892-20.912 5.296-27.115 1.147-1.617 2.597-2.913 4.106-4.107 3.877-3.064 8.904-4.515 15.439-4.998 3.267-.241 7.034-.218 10.54-.148 6.158.122 11.886 1.297 15.983 3.464 2.693 1.425 5.063 3.762 6.729 6.284 1.729 2.619 2.859 5.671 3.662 9.303.81 3.664.855 7.768 1.039 11.975.092 2.094 0 4.239 0 6.383 0 4.236.05 8.465.05 12.767-.001 5.38-.196 10.463 0 15.735.037 1.005.12 2.058-.199 3.017z"/><path d="m53.272 38.396c.434 1.054.221 2.249.248 3.365.086 3.594-.053 7.367-.149 10.836-.267 9.568-4.154 15.437-12.667 16.725-8.074 1.221-19.483 1.236-26.918-.743-7.671-2.041-11.479-7.956-12.618-16.724-.42-3.229-.926-6.315-1.039-9.946-.03-.963-.289-2.897.198-3.365.362-.348 1.917-.247 2.919-.247 15.685 0 31.432-.088 47.106-.099.868 0 2.143-.117 2.92.198z"/></g></svg>