<svg enable-background="new 0 0 84.38 30.688" viewBox="0 0 84.38 30.688" xmlns="http://www.w3.org/2000/svg"><g clip-rule="evenodd" fill-rule="evenodd"><path d="m30.889 24.315c.018 4.246-2.757 6.096-6.591 6.088-.723-.002-1.563-.082-2.264-.303-2.286-.721-2.775-2.82-4.025-4.326-.687-.828-2.105-1.773-3.874-1.057-.976.395-1.256 1.371-1.761 2.264-.65 1.152-1.442 2.164-2.969 2.768-3.317 1.309-7.792.299-9.006-2.113-.567-1.127-.478-2.816-.05-4.127.703-2.148 2.008-3.994 3.018-5.986.979-1.93 1.79-4.039 2.717-6.289.909-2.205 1.529-4.428 2.667-6.34 1.12-1.881 2.603-3.512 4.579-4.377.034-.016.091-.047.101-.051 2.375-.766 5.368-.119 6.994.957 1.501.992 2.351 2.854 3.069 4.83 1.382 3.799 2.513 8.113 4.226 11.521.433.861.971 1.639 1.459 2.465.484.818.854 1.699 1.359 2.566-.09-3.447.479-5.496 1.861-7.396.757-1.039 1.737-1.922 1.812-3.674.034-.797-.106-1.637-.201-2.414-.681-5.545 2.586-8.818 7.346-9.258 2.528-.233 5.32.182 7.044 1.207 1.626.969 3.152 2.516 3.321 4.83.132 1.82-.599 3.098-.856 4.478-.239 1.287.215 2.449 1.358 2.717 1.072.252 1.938-.084 2.818.102.97.203 1.97.894 2.314 1.912.309.912.083 2.146-.201 2.766-.47 1.023-2.057 1.758-1.661 3.17.335 1.195 1.828 1.18 2.818 1.66 1.455.709 2.294 2.523 1.358 4.58-.567 1.244-1.848 2.418-3.321 2.766-1.456.346-3.169.142-4.478-.25-1.319-.397-2.668-1.033-3.874-1.158-.273-.027-.594-.02-.855 0-1.597.121-3.149.939-4.729 1.309-1.658.387-3.636.389-5.233-.15-3.023-1.025-5.013-2.795-6.29-5.687zm10.465-15.498c.07 1.488 1.818 1.889 2.717 1.008.31-.305.694-1.086.302-1.863-.21-.416-.868-.887-1.71-.754-.879.138-1.353.677-1.309 1.609zm-27.673 6.24c.187 2.377 3.888 1.256 2.969-.957-.221-.531-.81-.979-1.761-.805-.764.225-1.282.817-1.208 1.762zm27.673 6.389c.288.535 1.069.834 1.61.805 2.463-.127 2.149-3.994-.503-3.471-1.085.142-1.678 1.605-1.107 2.666z"/><path d="m60.976.465c1.961-.18 3.465.377 4.981.805 1.135.32 2.264.504 3.724.504 2.516 0 4.711-1.273 7.194-1.258 4.352.027 7.015 2.486 7.446 6.439.399 3.648-1.306 6.234-3.472 7.447-.692.387-1.552.646-2.364 1.006-1.107.49-2.5.935-3.069 2.113-1.181 2.443.231 5.777-.201 8.855-.1.717-.349 1.379-.704 1.912-2.29 3.418-9.703 3.123-11.271-.504-.622-1.438-.369-3.664-.151-5.584.152-1.336.416-2.711.151-3.824-.717-3.014-4.29-3.145-6.491-4.779-1.257-.935-2.27-2.73-2.465-4.73-.331-3.393.953-5.617 2.868-6.994 1.046-.75 2.521-1.289 3.824-1.408zm2.616 9.459c1.172-.486 1.141-2.439.051-2.867-.254-.1-.562-.076-.855-.051-2.5.217-1.3 3.793.804 2.918zm10.768-.906c.542 1.801 3.676.934 3.019-1.105-.196-.611-.937-1.031-1.861-.856-.918.174-1.424 1.08-1.158 1.961z"/></g></svg>