<svg enable-background="new 0 0 92.909 94.856" viewBox="0 0 92.909 94.856" xmlns="http://www.w3.org/2000/svg"><g clip-rule="evenodd" fill-rule="evenodd"><path d="m56.218 23.761c-1.087.248-2.48.149-3.661.104-.887-1.014-.837-2.964-1.779-3.923-1.726-.072-3.35 0-5.44 0-.87 0-2.39-.212-2.877.053-.426.231-.677 1.413-.837 1.883-.257.758-.4 1.431-.732 1.988-1.103.22-2.577.03-3.766 0 .048-1.063.526-2.031.837-3.034 1.831-5.907 3.85-11.909 5.649-17.89.292-.969.581-1.976 1.046-2.877 1.103-.082 2.56-.09 3.661 0 .454.303.476.901.628 1.36 1.449 4.378 2.961 8.914 4.446 13.338.33.982.585 2.012.942 2.981.722 1.961 1.402 3.966 1.883 6.017zm-9.886-17.576c-.303.753-.589 1.619-.836 2.459-.517 1.748-1.027 3.415-1.517 5.074-.251.852-.571 1.74-.576 2.616.365.321.909.151 1.413.157.784.01 1.648.009 2.511 0 .896-.009 1.811.125 2.511-.157.059-.916-.401-1.767-.68-2.616-.286-.87-.485-1.767-.785-2.615-.606-1.719-.995-3.514-1.778-5.022-.035 0-.07 0-.104 0-.064.025-.121.055-.159.104z"/><path d="m92.781 28.52c.163.812.178 2.277 0 3.086-19.36.259-38.783.313-58.009.313-11.278 0-22.997.21-34.681-.104-.036-.958-.187-2.179 0-3.034 3.567-.199 7.138-.104 10.724-.104 21.494 0 42.815-.157 64.443-.157 5.856 0 11.561-.221 17.523 0z"/><path d="m46.384 54.779c-3.124.208-6.833.105-10.043.052-.164-1.434-.141-2.978-.104-4.499.061-2.489.298-5.346-1.778-5.806-1.265-.28-2.278.603-2.563 1.569-.287.972-.104 2.903-.104 4.237 0 2.066.023 3.776.68 5.126s1.88 2.567 2.929 3.767c1.057 1.207 2.112 2.432 3.086 3.557 1.942 2.245 4.213 4.827 5.963 7.323.917 1.309 1.574 2.912 1.883 4.812.314 1.931.262 3.994.262 6.172 0 4.533-.842 7.86-3.086 10.2-2.036 1.9-4.581 3.188-8.108 3.505-3.698.333-6.84-.713-9.102-2.354-2.254-1.635-3.8-3.967-4.394-7.218-.577-3.163-.177-7.218-.157-11.089 3.195-.214 6.806-.093 9.991-.052.358 2.365.055 5.272.157 8.003.034.911-.037 1.763.209 2.406.295.769 1.109 1.495 2.197 1.413 2.141-.164 2.022-2.397 2.04-4.76.014-1.767.033-3.805-.471-4.969-.355-.822-1.101-1.638-1.778-2.406-3.267-3.705-6.303-7.319-9.363-11.351-1.236-1.629-2.199-3.162-2.72-5.545-.504-2.305-.419-5.174-.418-7.899 0-2.98.284-5.254 1.15-7.114 1.662-3.566 5.112-6.031 10.2-6.382 5.471-.377 9.341 1.878 11.456 5.021 1.103 1.641 1.938 3.817 2.04 6.225.102 2.45-.027 5.156-.054 8.056z"/><path d="m73.375 36.262c.199 2.685.124 5.803.052 8.474-2.214.396-4.896-.062-6.957.314-.28.665-.157 1.449-.157 2.145 0 15.454.213 31.421.104 47.129-3.293.248-7.161.156-10.514 0-.213-11.962-.235-24.804-.313-37.086-.013-2.048 0-4.076 0-6.12 0-2.019.131-4.074-.157-6.067-1.906-.342-4.741.073-7.009-.157-.208-2.661-.211-6.025-.053-8.579 8.122-.175 17.061-.154 25.004-.053z"/></g></svg>