<svg enable-background="new 0 0 68.44 76.687" viewBox="0 0 68.44 76.687" xmlns="http://www.w3.org/2000/svg"><path clip-rule="evenodd" d="m43.396 62.645c-.394 2.357.231 5.02-.445 7.373-.599 2.083-1.716 3.628-3.266 4.8-1.565 1.183-3.841 2.068-6.185 1.83-4.444-.45-7.637-3.555-8.362-7.817-.382-2.246-.149-5.115-.149-7.918 0-5.473.01-10.73-.099-15.784-.569.043-.758.697-.99 1.088-1.832 3.098-3.648 6.321-5.542 9.452-1.049 1.734-2.072 3.531-3.81 4.75-1.666 1.168-3.948 2.017-6.779 1.583-2.365-.361-4.232-1.641-5.493-3.067-1.337-1.515-2.276-3.607-2.276-6.285 0-2.768 1.206-4.426 2.276-6.284 5.188-9.014 10.359-18.008 15.636-27.216 2.026-3.533 4.093-7.233 6.235-10.886 1.079-1.839 2.007-3.827 3.315-5.245 1.336-1.447 3.396-2.728 5.789-2.969 5.011-.506 7.866 2.887 9.501 5.889 3.703 6.799 7.278 13.137 11.133 19.644 3.813 6.436 7.39 12.94 11.282 19.445.886 1.481 2.097 3.184 2.771 4.948.754 1.977.604 4.655-.099 6.482-1.413 3.674-4.502 5.907-9.303 6.086-4.685.176-9.968-.332-15.14.101zm-10.194-32.46c-.513 1.065-1.222 2.134-1.88 3.216-1.597 2.628-3.088 5.504-4.651 8.115-.327.546-.814 1.042-.891 1.683.539.281 1.243.242 1.88.247 4.039.028 8.643 0 12.767 0 .653 0 1.356.146 1.93-.148-.539-1.283-1.249-2.515-1.93-3.711-1.382-2.429-2.754-4.82-4.157-7.175-.706-1.185-1.236-2.494-2.177-3.514-.654.084-.652.79-.891 1.287z" fill-rule="evenodd"/></svg>