<svg enable-background="new 0 0 71.875 72.157" viewBox="0 0 71.875 72.157" xmlns="http://www.w3.org/2000/svg"><path clip-rule="evenodd" d="m71.552 39.424c-14.677.217-29.824.047-44.689.047-.405 0-.894-.119-1.232.189.06 1.299.923 2.205 1.469 3.176 2.117 2.58 5.002 4.379 9.667 4.455.181.979.095 2.162.095 3.316 0 1.156.112 2.361-.142 3.316-4.158.303-7.577-.951-10.236-2.652-2.654-1.697-4.899-3.994-6.35-6.73-1.513-2.852-2.488-6.883-1.991-10.805.475-3.742 1.997-6.695 3.934-9.146 1.905-2.41 4.544-4.273 7.583-5.496 3.215-1.295 7.618-1.389 11.231-.332 3.283.961 5.867 2.842 8.009 5.07 2.164 2.252 3.562 5.223 4.502 8.578.459.213 1.677.232 2.133 0 .117-1.049-.247-2.07-.569-2.986-2.162-6.15-6.795-10.748-13.127-12.748-3.947-1.246-9.094-1.229-12.748.189-3.592 1.396-6.342 3.377-8.672 6.113-2.241 2.633-4.033 6.111-4.597 10.236-.612 4.473.45 9.031 2.18 12.227 1.748 3.229 4.135 5.691 7.156 7.678 3.009 1.981 6.809 3.17 11.564 3.223.021.043.042.084.095.094.128 2 .099 4.475-.047 6.494-.755.268-1.59.145-2.322.094-5.322-.363-9.575-2.08-13.08-4.359-6.034-3.924-10.507-9.539-11.99-17.914-.518-2.926-.526-6.035-.047-9.146.862-5.598 3.452-9.988 6.398-13.506 3.035-3.529 6.988-6.316 12.037-7.914 2.554-.809 5.613-1.358 8.672-1.279 3.006.078 5.913.676 8.388 1.564 8.296 2.977 14.287 9.209 16.871 17.961.373 1.262.606 2.605.995 3.98.468.223 1.678.234 2.085-.047-.01-1.605-.388-3.105-.806-4.502-1.229-4.111-3.133-7.664-5.639-10.568-4.223-5.111-10.023-8.982-18.15-10.189-2.741-.406-5.639-.398-8.672 0-5.372.707-9.577 2.943-13.269 5.639-3.579 2.615-6.561 6.359-8.53 10.332-2.1 4.234-3.503 9.853-2.891 15.732.589 5.666 2.449 10.072 5.023 13.84 2.49 3.641 6.013 6.721 9.952 8.908 3.077 1.709 6.513 2.865 10.663 3.506 1.377.213 2.816.098 4.312.381.207 1.85.125 4.557 0 6.539-.68.225-1.458.188-2.133.143-4.772-.32-8.968-1.424-12.605-2.986-4.118-1.768-7.852-4.109-10.805-7.061-5.898-5.898-10.638-13.498-11.186-24.502-.283-5.668.938-10.982 2.701-15.166 3.546-8.416 9.442-14.553 17.155-18.576 2.964-1.547 6.217-2.648 10.046-3.318 1.3-.227 2.734-.404 4.17-.473 6.514-.309 11.914 1.066 16.302 3.08 4.467 2.049 8.222 4.715 11.421 7.961 5.251 5.801 9.546 13.145 9.999 23.885.063 1.469.098 3.031-.283 4.455zm-26.254-9.099c-1.144-1.889-3.044-3.541-5.071-4.455-3.751-1.691-9.102-.787-11.373 1.565-.749.584-1.458 1.289-2.038 2.086-.567.777-1.185 1.709-1.279 2.795.728.334 1.596.189 2.417.189 5.388 0 10.424.029 15.686.049.803.002 1.662.109 2.417-.143.031-.735-.389-1.475-.759-2.086z" fill-rule="evenodd"/></svg>