<svg enable-background="new 0 0 83.375 40.272" viewBox="0 0 83.375 40.272" xmlns="http://www.w3.org/2000/svg"><path clip-rule="evenodd" d="m28.338.171c.283 4.894-.08 10.436.198 15.335.503-.064.725-.602.992-.943 1.915-2.442 4.776-4.697 8.288-5.608 4.564-1.184 9.877-.227 12.804 2.035 1.67.97 2.995 2.271 4.169 3.771.379.485.671 1.073 1.191 1.439.265-.594.148-1.282.148-1.935 0-4.569-.054-9.414.05-14.045.502-.184 1.503-.107 2.084-.049.387 5.939-.067 12.412.248 18.412.556-.11.795-.678 1.092-1.042.321-.393.633-.758.993-1.092.592-.814 1.203-1.608 1.886-2.333 2.717-3.577 5.509-7.068 8.387-10.521.958-1.149 1.776-2.41 2.879-3.424.699.029 1.516-.06 2.134.049-.153.749-.852 1.326-1.34 1.936-3.453 4.309-7.094 8.662-10.422 13.151-1.311 1.683-2.768 3.221-3.971 5.012.82.933 1.888 1.579 2.879 2.333.976.741 1.89 1.588 2.879 2.333 5.411 4.079 10.823 8.304 16.228 12.456.439.338 1.071.647 1.241 1.241-.995.113-2.198.019-3.275.05-6.388-4.643-12.442-9.607-18.76-14.342-.894-.67-1.719-1.472-2.729-1.985-.328.559-.198 1.281-.198 1.936.001 4.847.125 9.626-.05 14.243-.509.155-1.577.161-2.084 0-.294-1.886.051-4.114-.248-6.005-.558.268-.86.935-1.241 1.439-2.489 3.297-6.45 6.192-12.208 6.253-5.991.063-9.966-2.473-12.705-5.757-.39-.468-.734-.997-1.24-1.39-.403 1.483.073 3.845-.248 5.409-.483.166-1.55.153-2.035 0-.269-1.047-.148-2.215-.148-3.375 0-3.355.08-7.084-.1-10.322-1.093-.265-2.303-.149-3.524-.149-3.593 0-7.45-.013-10.819 0-.559.43-.953 1.061-1.34 1.638-1.17 1.748-2.396 3.557-3.623 5.31-.838 1.147-1.551 2.402-2.382 3.573-.815 1.15-1.549 2.383-2.531 3.375-.608-.055-1.442.117-1.887-.099.31-.854.928-1.672 1.489-2.481 3.816-5.504 7.688-11.244 11.563-16.774 3.112-4.441 6.53-9.633 9.875-14.392.522-.743 1.037-1.551 1.589-2.481.39-.657 1.246-2.122 1.786-2.283.63-.189 1.45.043 2.036.098zm-2.531 3.723c-.44.684-1.021 1.285-1.439 1.985-.147.248-.203.544-.348.794-.787 1.368-1.875 2.643-2.778 3.97-2.521 3.701-5.031 7.394-7.544 11.018-.227.327-.648.628-.546 1.092 3.99.263 8.836.195 12.903.049.183-6.081.162-12.932 0-18.957-.05 0-.059-.04-.1-.05-.058.023-.112.052-.148.099zm21.489 7.989c-1.579-.642-3.495-1.197-5.708-1.092-3.665.173-6.428 1.679-8.535 3.474-2.105 1.791-3.674 4.429-4.269 7.543-.705 3.692.241 7.113 1.737 9.578 1.531 2.524 3.714 4.325 6.402 5.46 1.5.633 2.988 1.042 4.863 1.042 5.614 0 9.489-2.687 11.662-6.104 1.513-2.379 2.64-5.786 2.035-9.479-.541-3.297-1.968-5.753-4.119-7.742-1.111-1.084-2.483-2.035-4.068-2.68z" fill-rule="evenodd"/></svg>