<svg enable-background="new 0 0 67.545 68.263" viewBox="0 0 67.545 68.263" xmlns="http://www.w3.org/2000/svg"><g clip-rule="evenodd" fill-rule="evenodd"><path d="m51.691 5.409c3.239 1.798 5.858 4.356 8.136 7.193 2.25 2.804 4.168 6.059 5.556 9.723 1.34 3.537 2.347 7.979 2.134 13.047-.096 2.255-.287 4.586-.844 6.796-.229.906-.435 1.941-.794 3.026-.256.775-.79 2.332-1.389 2.431-.351.058-1.002-.42-1.488-.695-1.292-.729-2.943-1.708-3.919-2.58-1.649-1.471-3.256-2.546-4.763-3.919-4.687-4.268-8.032-9.091-10.914-15.081-.965-2.006-1.781-4.128-2.381-6.25-1.117-3.954-1.978-8.041-2.134-13.047-.021-.68.024-1.458-.148-2.083-.471-1.709-2.132-3.263-3.969-3.671-.171-.038-.58.016-.595-.298 7.293-.066 13.068 2.472 17.512 5.408z"/><path d="m33.484.051c-2.316.537-4.147 1.537-4.861 3.572-.391 1.115-.394 2.506-.496 3.87-.505 6.722-1.876 12.439-4.217 17.462-1.408 3.022-2.864 5.744-4.713 8.285-.613.843-1.127 1.776-1.786 2.53-2.023 2.313-4.118 4.422-6.498 6.499-1.915 1.67-3.913 3.137-6.35 4.465-.537.292-1.137.679-1.538.595-.457-.096-.726-1.043-.943-1.587-1.61-4.032-2.503-9.942-1.885-15.43.657-5.831 2.669-11.021 5.259-14.932 3.823-5.774 9.584-10.795 16.817-13.493 3.23-1.206 6.787-2.053 11.211-1.836z"/><path d="m52.832 62.111c-.161.827-1.038 1.08-1.687 1.439-1.972 1.091-4.002 2.181-6.35 2.977-3.06 1.036-6.648 1.736-10.666 1.736-6.117 0-10.873-1.329-15.23-3.423-.631-.303-1.189-.732-1.983-1.141-.575-.295-1.703-.829-1.786-1.29-.079-.433.426-1.105.744-1.637.852-1.426 1.858-3.013 2.529-4.464.944-2.042 2.126-4.213 3.126-6.201 2.145-4.267 3.726-8.728 5.209-13.444 2.639-8.389 4.115-17.357 4.613-28.028.033-.709.069-1.473.1-2.232.031-.795-.062-1.596.149-2.183.225-.624 1.044-1.355 1.638-1.438 2.716-.382 2.691 2.831 2.729 5.258.069 4.587.752 9.03 1.24 12.948.667 5.365 2.291 10.823 3.571 15.33.688 2.418 1.629 4.711 2.529 6.945 1.828 4.53 3.773 8.803 6.103 12.849.579 1.006 1.186 1.962 1.736 2.977.547 1.005 1.324 1.85 1.686 3.022zm-24.011-30.558c-1.076 2.045-.554 4.857.694 6.25.688.767 1.818 1.538 2.878 1.786 3.685.862 6.816-1.88 6.846-5.258.011-1.234-.433-2.472-1.042-3.324-.761-1.065-2.761-2.467-4.96-2.232-2.242.239-3.802 1.612-4.416 2.778z"/></g></svg>