<svg enable-background="new 0 0 11.293 13.434" viewBox="0 0 11.293 13.434" xmlns="http://www.w3.org/2000/svg"><path d="m0 0c3.764.001 7.528.002 11.293 0-.009 3.745-.002 7.489-.004 11.234-.738.001-1.476 0-2.214.001-.005-1.93-.001-3.861-.002-5.791.002-1.076-.005-2.153.004-3.229-2.286.004-4.572.002-6.858.001.001 3.007.004 6.015-.001 9.022-.737-.005-1.474-.003-2.212-.001-.002-3.047 0-6.095-.001-9.143-.003-.698.006-1.396-.005-2.094z"/><path d="m4.538 4.398c.739 0 1.478-.001 2.216.001 0 .743.001 1.487 0 2.23-.739.003-1.478 0-2.216.001.001-.744.002-1.488 0-2.232z"/><path d="m6.406 9.021c.117-.004.235.009.351-.01-.004 1.078-.001 2.157-.002 3.235.004.396-.009.792.007 1.187-.742 0-1.484 0-2.227 0 .008-1.472.005-2.944.002-4.416.622.007 1.246.002 1.869.004z"/></svg>