<svg enable-background="new 0 0 32.699 33.136" viewBox="0 0 32.699 33.136" xmlns="http://www.w3.org/2000/svg"><path d="m26.348.043c2.112-.032 4.231-.082 6.343.01-.009 11.005.014 22.01.007 33.015-10.874.03-21.75.012-32.619.069-.05-.232-.067-.47-.058-.707-.007-10.783-.025-21.565-.02-32.347 8.782-.023 17.565-.03 26.347-.04zm-7.922 3.178c-4.312 8.864-8.342 17.872-12.582 26.773 2.503.003 5.007.002 7.51-.004 2.767-5.849 5.518-11.706 8.272-17.561 1.396-3.115 3.002-6.133 4.336-9.275-2.511.043-5.035-.072-7.536.067zm4.523 14.718c-2.717.063-4.447 3.462-2.972 5.722 1.149 2.087 4.361 2.465 5.927.652 1.347-1.357 1.409-3.759.075-5.146-.746-.855-1.904-1.308-3.03-1.228z"/></svg>