<svg enable-background="new 0 0 44.772 28.781" viewBox="0 0 44.772 28.781" xmlns="http://www.w3.org/2000/svg"><path d="m22.175.065c7.52-.043 15.019-.013 22.537-.065.116 1.966.02 3.944.046 5.915-7.411.077-14.825.05-22.241.058-.117-.014-.266.033-.338-.088-.034-1.941.036-3.886-.004-5.82z"/><path d="m2.177.115c2.924-.09 5.861-.018 8.791-.05 1.862 5.032 3.752 10.053 5.551 15.108.464.017.928.007 1.392.011-.083.737-.028 1.479-.053 2.219-2.295.013-4.589.004-6.884.014-.012-.742-.014-1.484.006-2.226.671-.016 1.343-.001 2.016-.014-.335-1.023-.699-2.036-1.049-3.054-2.123-.05-4.242-.011-6.365.004-.393 1.006-.742 2.029-1.06 3.061.687.014 1.373-.006 2.06.011-.012.741-.002 1.481-.003 2.221-2.192.002-4.384.019-6.576.002.002-.727-.008-1.455.002-2.182.458-.004.918.02 1.374-.045 1.567-4.307 3.155-8.608 4.804-12.883-1.337-.011-2.673-.001-4.01-.005.008-.729-.026-1.461.004-2.192zm4.263 9.779c1.545-.037 3.097.06 4.638-.06-.774-2.27-1.495-4.559-2.304-6.817-.837 2.271-1.633 4.561-2.334 6.877z"/><path d="m22.203 11.423c7.458-.059 14.931.039 22.381-.06.137-.014.189.14.175.252.011 1.912.006 3.824.002 5.736-7.509.102-15.021.028-22.531.051-.083-1.991-.027-3.987-.027-5.979z"/><path d="m.007 22.869c14.911-.014 29.823-.05 44.733-.028.069 1.952.001 3.91.03 5.864-14.913.098-29.839.032-44.756.076-.017-1.971-.006-3.942-.007-5.912z"/></svg>