<svg enable-background="new 0 0 77.143 46.794" viewBox="0 0 77.143 46.794" xmlns="http://www.w3.org/2000/svg"><path clip-rule="evenodd" d="m77.143 46.612c-.661.266-1.411.148-2.128.148-4.385 0-8.957 0-13.459 0-.778 0-1.609.102-2.177-.049-.482-.129-1.162-.705-1.683-1.039-3.855-2.479-8.087-4.597-12.568-6.285-2.563-.996-5.266-1.986-8.165-2.623-2.895-.635-5.928-1.281-9.204-1.534-1.194.833-1.976 2.082-2.969 3.117-.991 1.033-2.009 2.003-3.068 2.969-2.107 1.921-4.245 3.85-6.779 5.344-4.166-.089-8.628.138-12.717 0-.737-.023-1.542.146-2.226-.147.221-.517.856-.662 1.286-.891 3.263-1.738 6.291-3.848 9.056-6.136.54-.414 1.036-.876 1.534-1.336.483-.445 1.115-.839 1.386-1.484-.961-.193-1.886.238-2.772.445-1.806.423-3.551.957-5.294 1.484-.443.134-.905.196-1.336.346-.416.146-.823.448-1.287.297.38-.634 1.13-1.024 1.732-1.484 1.779-1.36 3.535-2.855 5.196-4.404 1.758-1.709 3.07-3.018 4.75-4.849.451-.492 1.026-1.385 1.584-1.583.409-.146 1.056-.105 1.633-.148.56-.043 1.152-.097 1.633-.099.929-.005 2.403.306 3.365-.049.652-.241 1.559-1.818 2.078-2.573 1.84-2.679 3.694-5.865 4.75-9.055 1.132-3.422 2.201-6.968 2.721-11.133.127-1.016.112-3.613.792-3.81.041-.013.257-.051.297-.051 2.081.018 4.771.05 7.076.05.774 0 1.593-.117 2.227.148.406.617.374 1.409.495 2.078.897 4.939 2.137 9.595 4.008 13.707 2.163 4.751 4.297 9.165 7.274 13.014 3.012 3.893 6.017 7.328 10.045 10.243 2.96 2.142 6.011 4.082 9.55 5.69.562.256 1.152.535 1.731.792.535.237 1.262.337 1.633.89zm-39.685-29.392c-.24.299-.336.831-.495 1.287-.443 1.268-.896 2.643-1.435 3.81-.377.817-.782 1.586-1.138 2.326-.386.802-.881 1.542-1.088 2.425.482.454 1.214.496 1.88.594.691.102 1.407.238 2.127.396 1.436.315 2.949.47 4.305.742.424.085.914.45 1.336.099-.297-1.007-.86-1.931-1.336-2.919-1.174-2.439-2.242-4.829-3.167-7.521-.167-.485-.415-1.413-.841-1.386-.071.026-.121.075-.148.147z" fill-rule="evenodd"/></svg>