<svg enable-background="new 0 0 69.946 52.647" viewBox="0 0 69.946 52.647" xmlns="http://www.w3.org/2000/svg"><g clip-rule="evenodd" fill-rule="evenodd"><path d="m33.254.049c4.795-.202 9.853.246 14.225.942 4.533.722 8.332 1.849 11.634 3.674 1.57.868 3.176 1.998 4.428 3.25 2.562 2.562 4.485 5.627 5.464 9.844.471 2.032.946 4.355.941 6.688-.005 2.628-.228 4.941-.564 7.112-.336 2.159-1.056 4.101-1.79 5.888-1.473 3.58-3.886 6.268-6.688 8.62-1.331 1.117-3.07 1.989-4.852 2.826-8.23 3.87-22.448 4.687-33.583 2.732-6.522-1.145-11.783-3.399-15.684-7.301-3.823-3.822-6.376-8.982-6.736-16.203-.509-10.161 3.11-17.568 8.712-21.855 5.848-4.475 14.109-6.215 24.398-6.217.032 0 .064.001.095 0zm-1.037 4.145c-8.992.002-15.982 1.623-20.96 5.558-4.788 3.785-7.644 10.268-6.924 19.311.315 3.958 1.608 7.21 3.392 9.844 3.579 5.286 9.646 8.143 17.333 9.185 3.889.527 8.26.575 12.576.424 8.722-.305 15.819-1.692 20.819-5.699 1.256-1.006 2.287-2.038 3.25-3.344 2.8-3.801 4.53-8.968 4.051-15.779-.588-8.339-4.427-13.352-10.316-16.203-5.857-2.836-14.586-3.53-23.127-3.297-.03.001-.062 0-.094 0z"/><path d="m50.493 26.896c1.193.634 2.136.725 2.685 1.837.703 1.427-.324 4.411.564 5.605.312.419 1.323.61 2.12.659.681.043 1.447-.082 1.743.236.431.464.157 1.682.141 2.496-.016.83.059 2.023-.33 2.355-.281.241-1.21.214-1.837.236-2.109.073-3.706.165-5.981 0-1.427-.104-2.803-.847-3.344-1.932-1.099-2.201.421-7.031-1.225-8.478-.926-.814-3.102-.82-4.993-.8-.616.006-1.28-.11-1.648.141-.417.285-.282 1.645-.282 2.213 0 .869-.158 1.772.094 2.402.286.717 1.014.858 1.743.942.64.074 1.896-.112 2.354.283.449.387.235 1.649.235 2.496 0 1.004-.005 1.848-.282 2.544-1.393.377-2.931.282-4.428.283-4.655 0-9.771.023-14.271 0-6.188-.032-9.545-3.268-8.996-10.033.267-3.289 2.365-5.389 4.945-6.406 1.981-.781 5.148-.544 7.725-.565.767-.006 2.294.056 2.684-.33.674-.666.352-3.444-.188-4.334-1.265-2.081-6.031-2.083-7.206-.047-.27.626-.361.961-.472 1.602-.091.533-.046 1.354-.376 1.648-.486.435-2.375.236-3.25.236-1.04 0-2.703.215-3.109-.283-.387-.475-.155-2.335-.094-3.014.103-1.14.159-1.958.471-2.685.427-.997 1.532-2.326 2.402-2.873 1.681-1.059 3.753-1.337 6.406-1.46 4.206-.196 9.094-.047 13.612-.047 4.482 0 9.281-.241 12.011 1.507 2.041 1.307 3.516 3.424 3.532 6.594.014 2.526-.61 4.419-1.837 5.793-.382.431-.948.636-1.318 1.179zm-8.713-3.485c1.932.054 3.414-.403 4.003-1.554 1.133-2.212-.887-3.878-2.92-4.004-1.349-.083-3.451-.066-4.428.188-.238.684-.142 1.66-.142 2.544 0 .926-.173 1.861.095 2.543.966.361 2.247.251 3.392.283zm-14.084 5.747c-2.076 0-4.248-.234-4.992 1.083-.473.837-.545 2.39 0 3.392.593 1.09 2.681 1.135 4.521 1.177.831.019 1.987-.032 2.684-.189.312-.623.331-1.619.33-2.543-.002-.941.013-1.966-.235-2.685-.597-.36-1.48-.235-2.308-.235z"/></g></svg>