<svg enable-background="new 0 0 54.818 45.96" viewBox="0 0 54.818 45.96" xmlns="http://www.w3.org/2000/svg"><path d="m20.579.01c.964-.005 1.928-.012 2.893-.002-1.947 4.508-3.866 9.034-5.99 13.46-4.849 10.825-9.701 21.648-14.52 32.484-.988.011-1.975.009-2.962.005 6.128-13.633 12.137-27.321 18.355-40.913.85-1.63 1.48-3.357 2.224-5.034z"/><path d="m26.344.011c.97-.011 1.94-.019 2.911.006-3.115 7.283-6.486 14.451-9.586 21.739-3.635 8.057-7.332 16.086-10.863 24.19-.985-.002-1.971.016-2.957-.004 6.765-15.341 13.786-30.566 20.495-45.931z"/><path d="m32.109.01c.968-.013 1.936-.014 2.904-.002-6.789 15.321-13.456 30.699-20.421 45.94-.962-.006-1.924.007-2.886-.002 2.492-6.054 5.414-11.92 8.033-17.921 4.036-9.377 8.299-18.652 12.37-28.015z"/><path d="m35.037 6.69c.355-1.11.858-2.359 1.466-3.319 6.336 14.084 12.074 28.429 18.315 42.555-.952-.029-1.957.076-2.879-.042-5.734-13.019-11.037-26.231-16.902-39.194z"/><path d="m32.127 13.199c.253-1.17.97-2.221 1.401-3.347 5.402 11.931 10.482 24.007 15.579 36.071-.941.024-1.882.003-2.823.012-4.535-10.991-9.466-21.812-14.157-32.736z"/><path d="m29.209 19.712c.42-1.078.871-2.348 1.475-3.238 4.198 9.849 8.729 19.559 12.821 29.453-.942.005-1.883.012-2.825-.008-3.826-8.734-7.766-17.421-11.471-26.207z"/><path d="m27.73 22.979c3.361 7.643 6.711 15.296 10.059 22.946-.972.002-1.944.018-2.915-.003-2.862-6.543-5.78-13.062-8.564-19.637.381-1.123.934-2.214 1.42-3.306z"/><path d="m24.595 29.972c.04-.165.236-.524.345-.201 2.375 5.376 4.743 10.756 7.061 16.157-.961.019-1.921-.003-2.882.012-1.885-4.365-3.858-8.694-5.716-13.068.304-.982.829-1.924 1.192-2.9z"/><path d="m21.833 36.22c.166-.252.247.187.331.303 1.345 3.144 2.719 6.274 4.089 9.407-.971.013-1.94-.002-2.911.004-.927-2.214-1.998-4.376-2.85-6.614.424-1.04.858-2.085 1.341-3.1z"/><path d="m19.015 42.655c.628 1.015.987 2.182 1.45 3.281-.974.002-1.947.013-2.921-.001.415-1.126 1.004-2.177 1.471-3.28z"/></svg>