<svg enable-background="new 0 0 75.551 76.361" viewBox="0 0 75.551 76.361" xmlns="http://www.w3.org/2000/svg"><g clip-rule="evenodd" fill-rule="evenodd"><path d="m75.377 76.18c-2.954.165-6.085.098-9.203.099-3.165.001-6.375.213-9.353-.049-3.01-.266-5.433-.731-7.62-1.782-2.126-1.021-3.888-2.314-5.394-3.959-3.172-3.033-5.204-7.234-5.493-13.31-.212-4.474-.05-9.405-.049-14.053 0-1.504-.204-3.023.099-4.453.989-.265 1.949-.225 2.87-.396 4.426-.824 8.033-2.707 10.639-5.542 1.008-1.096 2.113-2.336 2.77-3.662.283-.571.523-1.195.792-1.781.754-1.647 1.456-3.816 1.633-5.987.383-4.683-.923-8.557-2.622-11.827-1.426-2.744-4.109-4.963-6.779-6.531-2.364-1.388-5.514-2.425-9.204-2.425-.479 0-1.019.109-1.484-.148.361-.438 1.184-.228 1.881-.248 2.011-.056 4.041 0 6.136-.049 2.789-.066 5.766.076 8.412-.049 2.108-.1 4.123.09 5.888.297 5.275.618 9.003 3.471 11.777 6.729 1.907 2.24 3.324 4.985 3.958 8.362.649 3.457.494 7.512.495 11.826.002 15.129-.002 30.572 0 46.019 0 .962.115 1.98-.149 2.919z"/><path d="m37.524 1.66c2.561-.178 5.539.513 7.52 1.385 4.185 1.843 7.206 4.622 9.154 8.66.459.949.759 2.231 1.039 3.414.873 3.678.55 8.409-.742 11.529-.872 2.108-2.148 3.915-3.513 5.394-1.408 1.526-3.244 2.846-5.195 3.711-2.133.945-4.464 1.459-7.176 1.682-2.683.221-5.357-.546-7.422-1.385-2.123-.863-3.939-2.158-5.344-3.563-3.099-3.098-5.099-6.545-5.443-12.371-.325-5.499 2.206-10.002 4.849-12.865 1.998-2.164 4.899-4.08 8.363-4.998 1.216-.321 2.583-.501 3.91-.593z"/><path d="m36.83 38.673c.167 6.159.149 12.272.149 18.259 0 6.4-1.986 10.27-5.146 13.657-3.106 3.329-7.011 5.74-13.064 5.74-6.023 0-12.293-.091-18.555-.198-.308-1.05-.191-2.233-.198-3.365-.019-3.494.05-7.193.05-10.738 0-2.464-.068-4.82.099-6.977.162-2.096.704-4.04 1.534-5.69 1.625-3.233 3.986-5.779 6.878-7.669 1.523-.996 3.119-1.768 4.997-2.276 1.914-.519 3.906-.727 6.384-.841 4.71-.219 10.083-.05 14.943-.049.644-.002 1.331-.118 1.929.147z"/></g></svg>