<svg enable-background="new 0 0 71.873 73.578" viewBox="0 0 71.873 73.578" xmlns="http://www.w3.org/2000/svg"><g clip-rule="evenodd" fill-rule="evenodd"><path d="m71.705 73.266c-.689.2-1.506.197-2.315.192-1.541-.008-3.219.001-4.922 0-.825 0-1.658.106-2.363-.145-.41-12.058.229-24.856-.146-37.055-.117-3.812-.969-7.313-2.219-10.229-2.447-5.706-6.702-10.175-11.917-12.979-2.555-1.374-5.978-2.558-9.602-2.847-4.022-.321-7.782.272-11 1.351-6.484 2.518-11.856 7.011-14.813 13.22-.488 1.026-1.074 2.143-1.351 3.33-.28 1.201-.688 2.407-.916 3.715-.501 2.864-.551 5.88-.097 8.588.454 2.703.981 5.254 1.93 7.382 1.93 4.327 4.745 7.778 8.202 10.471 4.092 2.844 9.28 5.563 16.356 5.355.928-.028 1.86-.24 2.799-.097.293 1.437.145 3.142.145 4.825 0 1.716.079 3.474-.097 5.066-.698.269-1.47.128-2.171.144-8.25.198-14.859-2.11-20.023-5.307-1.895-1.173-3.668-2.473-5.308-3.908-.782-.686-1.46-1.586-2.219-2.413-5.046-5.496-8.87-12.978-9.553-22.725-.215-3.066-.097-6.048.338-8.732.412-2.546 1.22-4.979 1.978-7.238.744-2.216 1.869-4.297 3.04-6.176 4.099-6.574 9.847-11.839 17.611-14.716 1.109-.41 2.232-.791 3.425-1.157 2.409-.739 5.08-1.02 8.058-1.158 1.997-.093 4.751.078 6.707.387 4.028.634 7.4 1.906 10.47 3.473 7.523 3.841 13.489 9.896 16.983 17.804 2.206 4.993 3.415 10.445 3.088 17.659-.102 2.256.144 4.605.049 6.803-.097 2.198-.072 4.495-.049 6.756.024 2.281 0 4.568 0 6.851-.001 4.577.091 9.14-.098 13.51z"/><path d="m60.705 73.314c-1.384.261-3.047.146-4.681.145-1.619 0-3.292.079-4.728-.096-.321-.794-.193-1.667-.193-2.51 0-9.831 0-19.706 0-29.431 0-2.763.145-5.377-.338-7.672-.16-.76-.235-1.559-.434-2.22-.399-1.325-1.21-2.63-1.978-3.715-2.34-3.307-5.673-5.921-10.518-6.562-3.616-.479-6.919.403-9.312 1.785-2.524 1.457-4.389 3.288-5.79 5.597-1.572 2.591-2.393 5.499-2.268 9.119.119 3.435 1.376 6.288 2.991 8.395 1.578 2.06 3.688 3.936 6.321 5.066 1.925.827 4.314 1.587 7.092 1.352.79-.067 1.593-.274 2.461-.242.259.714.145 1.569.145 2.413v5.114c0 .826.109 1.659-.145 2.364-4.024.708-8.254.052-11.339-1.061-3.245-1.171-6.052-2.704-8.25-4.729-4.189-3.914-7.608-8.676-8.637-15.681-.219-1.491-.193-3.04-.193-4.68 0-3.101.557-5.851 1.447-8.251 1.751-4.717 4.534-8.458 8.203-11.241 1.893-1.438 3.827-2.722 6.176-3.571 1.224-.442 2.406-.823 3.715-1.157 4.295-1.099 10.325-.599 13.992.868 2 .801 3.732 1.828 5.404 2.943.542.361.985.851 1.496 1.254 4.164 3.292 7.134 7.657 8.685 13.462.823 3.079.82 6.483.82 10.276v27.309c0 1.804.112 3.618-.144 5.357z"/><path d="m49.993 73.363c-1.483.214-3.091.043-4.632.096-1.523.054-3.133.063-4.535-.145-.26-1.532-.145-3.103-.145-4.68 0-4.591 0-9.466 0-14.281 0-4.639 0-9.108 0-13.848 0-1.538.221-3.2-.048-4.632-.27-1.437-1.208-2.533-2.123-3.136-2.028-1.336-5.092-.697-6.465 1.206-.467.647-.843 1.613-.917 2.509-.168 2.048.856 3.609 2.027 4.438.897.636 2.475 1.125 3.956.724.844-.229 1.188-.67 2.22-.868.258.779.145 1.666.145 2.558 0 .868.044 1.777.048 2.653.009 1.758.048 3.557-.145 5.114-1.356.583-3.409.574-5.211.386-5.02-.526-8.376-3.478-10.518-6.852-1.482-2.333-2.509-5.722-2.123-9.359.36-3.396 1.718-6.012 3.474-8.058 2.456-2.774 5.572-4.883 10.47-5.114 2.665-.126 4.942.608 6.754 1.544 3.662 1.891 6.196 4.848 7.479 9.119.668 2.225.531 4.875.531 7.768 0 5.38.125 11.001-.048 16.549-.175 5.57.175 11.207-.194 16.309z"/></g></svg>