<svg enable-background="new 0 0 74.623 51.001" viewBox="0 0 74.623 51.001" xmlns="http://www.w3.org/2000/svg"><g clip-rule="evenodd" fill-rule="evenodd"><path d="m74.457.86c.068 1.301.22 3.016 0 4.279-.822.053-1.611-.258-2.459-.393-6.802-1.095-12.712 1.454-16.327 4.427-3.27 2.686-5.945 6.316-7.132 11.065-.409 1.641-.613 3.283-.639 5.31-.047 3.769.937 7.006 2.312 9.738 1.358 2.701 3.22 4.889 5.459 6.639 2.234 1.748 4.909 3.184 8.114 4.033 3.3.873 7.248.611 10.721-.1.193 1.236.101 3.012.049 4.328-3.613 1.279-8.924.9-12.59-.098-3.658-.996-6.908-2.887-9.393-4.918-5.272-4.312-8.812-10.869-9.049-19.523-.107-3.932.889-7.377 2.114-10.328 1.231-2.963 2.951-5.41 4.968-7.426 4.29-4.291 9.032-7.397 17.114-7.869 1.217-.07 2.501.023 3.639.148 1.126.124 2.246.237 3.099.688z"/><path d="m35.064.811c.04.01.049.049.099.049.257 8.215.146 16.484.147 24.787.001 8.238.148 16.107-.049 24.344-1.029.164-2.708.158-3.738 0-.021-6.938-.308-13.918-.148-20.951.03-1.31-.062-2.633-.049-3.934.027-2.73.097-5.551-.147-8.31-.392.039-.611.49-.787.785-.558.943-1.127 1.988-1.672 3-.716 1.316-1.656 2.535-2.312 3.885-.149.309-.2.641-.344.936-.381.773-.923 1.59-1.377 2.41-1.767 3.182-3.683 6.359-5.459 9.59-1.182 2.145-2.402 4.295-3.64 6.393-1.245 2.111-2.405 4.258-3.737 6.295-1.403.111-3.403.221-4.722-.049.065-.584.401-1.125.689-1.623.864-1.502 1.801-3.008 2.705-4.525 2.39-4.012 4.686-8.107 6.983-12.244 2.273-4.096 4.639-8.09 6.983-12.246.574-1.018 1.24-2.025 1.721-3.098.481-1.074 1.079-2.098 1.673-3.1 1.16-1.955 2.282-4.1 3.491-6.147.877-1.484 1.787-3.027 2.656-4.574.345-.612.56-1.27 1.034-1.673z"/><path d="m32.212 1.401c-.234 1.029-.886 1.889-1.377 2.803-.985 1.838-2.043 3.627-3.098 5.459-.975 1.693-1.787 3.434-2.754 5.213-2.988 5.5-6.485 10.943-9.442 16.525-.849 1.6-1.778 3.156-2.705 4.721-2.301 3.885-4.421 7.936-6.787 11.754-.471.76-.705 1.682-1.426 2.262-1.403.025-3.381.201-4.623-.098.434-1.103 1.071-2.121 1.673-3.148 4.098-6.998 8.102-14.109 12.195-21.295 1.15-2.017 2.276-4.072 3.492-6.098 2.412-4.014 4.527-8.076 6.935-12.244.814-1.412 1.601-3.064 2.508-4.672.427-.758.555-1.217 1.278-1.328.6-.092 1.428.049 2.164.049.712-.001 1.449-.163 1.967.097z"/><path d="m41.162 1.352c.226 15.891.205 32.5.099 48.588-.041-.008-.046.02-.049.051-1.025.068-2.618.258-3.541-.051-.241-4.061-.018-8.152-.099-12.244-.158-8.037-.048-15.998-.049-24.295 0-3.576.001-7.148 0-10.769 0-.432-.141-.971.197-1.328 1.028-.053 2.495-.141 3.442.048z"/><path d="m74.506 7.55c.053 1.316.142 3.09-.049 4.326-1.124-.156-2.199-.682-3.394-.885-4.116-.699-8.149.652-10.476 2.312-3.16 2.256-6.102 5.897-6.441 10.967-.406 6.055 2.343 10.353 5.753 13.031 2.417 1.898 6.455 3.521 10.869 2.805.67-.109 1.317-.217 1.967-.395.584-.16 1.16-.424 1.77-.443.188 1.242.105 3.008.049 4.328-4.223 1.904-10.059.945-13.573-.639-3.749-1.691-6.633-4.424-8.557-7.77-1.931-3.361-3.326-8.453-2.263-13.426.947-4.428 3.129-7.832 5.853-10.477 2.984-2.463 6.685-4.574 11.95-4.818 2.34-.108 4.849.181 6.542 1.084z"/></g></svg>