<svg enable-background="new 0 0 78.868 78.864" viewBox="0 0 78.868 78.864" xmlns="http://www.w3.org/2000/svg"><path clip-rule="evenodd" d="m42.124.071c.66 1.316.934 2.789 1.334 4.201 2.011 7.092 4.069 14.242 6.079 21.399.803 2.859 1.464 5.744 2.471 8.5 4.01.088 8.11.082 12.157 0 .434-1.088.198-2.471.198-3.953 0-10-.115-20.248.049-30.047 2.113-.254 4.603-.148 7.067-.148 2.443 0 4.941-.08 7.166.1.265.762.148 1.58.148 2.371-.001 25.369.169 51.123 0 76.154-8.88.172-18.272.246-27.378.049-.594-1.32-.938-2.758-1.334-4.15-2.4-8.412-5-17.047-7.462-25.451-.412-1.406-.707-2.838-1.335-4.15-5.969-.18-12.608-.143-18.631 0-.466.57-.5 1.342-.692 2.025-2.733 9.756-5.203 19.934-7.808 29.801-.178.674-.231 1.428-.642 2.025-4.361.043-9.3.174-13.245-.1.126-1.447.579-2.854.939-4.25 1.074-4.158 2.204-8.326 3.311-12.502.74-2.791 1.379-5.611 2.175-8.4.793-2.781 1.42-5.617 2.075-8.451-.575-.332-1.34-.197-2.075-.197-2.148 0-4.573.002-6.573-.148-.154-3.32-.16-7.041 0-10.379 3.466-.34 7.856.125 11.465-.197.414-.654.356-1.465.544-2.174 2.04-7.68 4.133-15.539 6.078-23.375.354-1.424.742-2.844 1.137-4.25.39-1.393.549-2.854 1.186-4.152 7.319-.284 14.46-.148 21.596-.151zm-10.822 11.218c-.314.801-.544 1.867-.791 2.816-1.244 4.799-2.432 9.531-3.706 14.283-.515 1.918-1.102 3.805-1.384 5.732 1.884.238 4.058.098 6.227.098h4.942c.489 0 1.094.131 1.483-.197.015-1-.413-1.934-.692-2.865-2.005-6.705-3.712-13.424-5.832-19.967-.033 0-.066 0-.099 0-.015-.117-.134.057-.148.1zm29.354 33.506c-1.92.09-3.954-.045-5.684.148.076 1.404.666 2.709 1.038 4.053 2.458 8.859 5.013 17.777 7.512 26.537.181.637.318 1.348.741 1.879.312-1.887.104-3.811.099-5.732-.028-8.949.152-17.918-.099-26.688-1.023-.293-2.364-.255-3.607-.197z" fill-rule="evenodd"/></svg>