<svg enable-background="new 0 0 83.943 83.916" viewBox="0 0 83.943 83.916" xmlns="http://www.w3.org/2000/svg"><g clip-rule="evenodd" fill-rule="evenodd"><path d="m53.163.33c.077 8.458.221 17.993 0 26.788-8.46.226-17.477.094-26-.053-.21-4.254-.196-8.841-.105-13.446.079-3.967 0-8.009 0-12.029 0-.758-.151-1.393.473-1.523.854-.178 2.122.052 3.204.052 6.439.002 12.939.053 19.382.053 1.03.001 2.071-.119 3.046.158z"/><path d="m83.838 73.183c-.554-.062-.758-.748-1.051-1.207-.301-.474-.684-.94-.893-1.419-8.997-14.132-17.94-28.318-26.946-42.44-.032-8.937-.127-17.479.053-26.684-.004-.074-.009-.148.052-.157.647.44 1.478 1.984 1.944 2.731 4.11 6.593 8.46 13.176 12.554 19.697 4.16 6.627 8.169 13.111 12.554 19.749.258.392.587.92.893 1.419.325.53.77 1.067.84 1.418.18.9.08 2.362.052 3.309-.219 7.633.201 15.615-.052 23.584z"/><path d="m25.535 9.522c.042.01.052.054.105.053.154 5.608.105 10.871.105 16.703 0 .809-.118 1.684 0 2.416.08.501.638 1.265.945 1.733 2.18 3.323 4.105 6.333 6.25 9.771.329.526.933 1.252.945 1.681.014.468-.636 1.354-.893 1.838-1.543 2.919-3.118 5.797-4.728 8.667-.646 1.152-1.126 2.388-1.996 3.362-8.519.163-17.426.17-25.895 0 .216-1.01.827-1.625 1.208-2.469 1.732-3.781 3.869-7.35 5.831-11.031 3.896-7.312 8.008-14.319 11.976-21.745 1.402-2.624 3.027-5.439 4.465-8.142.513-.964.963-1.924 1.523-2.731.04-.05.096-.081.159-.106z"/><path d="m27.898 28.903c8.917.003 16.896-.004 25.685.105 1.386 1.717 2.441 3.657 3.625 5.516 1.173 1.841 2.411 3.653 3.572 5.515 6.395 10.256 13.025 20.431 19.33 30.833.567.937 1.331 1.804 1.628 2.889-8.378.159-17.34.131-26.001.053-.729-.803-1.333-1.76-1.891-2.679-2.268-3.738-4.67-7.453-7.038-11.188-1.761-2.776-3.259-5.762-5.095-8.562-3.557-5.424-7.069-11.048-10.61-16.703-.824-1.315-1.686-2.75-2.626-4.202-.316-.488-.894-1.106-.735-1.471.037-.049.094-.079.156-.106z"/><path d="m34.989 43.821c.498.067.908 1.069 1.26 1.628 2.223 3.521 4.239 6.869 6.461 10.453.35.563.992 1.32.998 1.786.005.387-.497 1.064-.788 1.522-4.388 6.893-8.679 13.994-13.026 20.854-.677 1.038-1.152 2.279-2.101 3.046-.232-7.338-.158-15.078-.158-22.743 0-1.101-.168-2.316 0-3.257.086-.481.594-1.144.893-1.681 2.106-3.787 4.226-7.816 6.303-11.451.03-.075.082-.127.158-.157z"/><path d="m26.112 57.32c.249 6.364.157 13.284.157 19.96 0 2.217.108 4.399-.105 6.461-8.412.229-17.307.218-26 .053-.195-8.84-.222-17.664-.053-26.369 3.775-.143 7.707-.158 11.661-.157 4.842.001 9.836-.067 14.34.052z"/></g></svg>