<svg enable-background="new 0 0 82.671 71.167" viewBox="0 0 82.671 71.167" xmlns="http://www.w3.org/2000/svg"><g clip-rule="evenodd" fill-rule="evenodd"><path d="m79.16 34.486c.871.383 2.559-.053 3.507.25.043.459-.296.848-.501 1.203-2.339 4.047-4.676 8.359-7.113 12.424-.896 1.492-1.587 3.098-2.454 4.609-1.729 3.012-3.442 6.045-5.21 9.016-1.773 2.982-3.348 6.061-5.26 8.918-1.101.035-2.716.186-3.657-.101-.228-6.434-.042-13.283-.2-19.787-.514.043-.703.656-.901 1.002-2.651 4.6-5.293 9.395-8.065 13.977-1.008 1.666-1.881 3.414-3.006 4.959-1.093.055-2.646.145-3.657-.049-.249-3.207.01-6.611-.15-9.969-.16-3.369.241-6.771-.15-9.92-.471.209-.62.75-.851 1.152-2.61 4.535-5.338 9.269-8.015 13.826-.984 1.674-1.666 3.516-2.905 5.01-1.047.133-2.57.174-3.608 0-.374-1.646.052-4.092-.25-5.811-.566.244-.766.916-1.052 1.402-.302.51-.607 1.039-.902 1.553-.592 1.027-1.173 2.088-1.903 2.955-1.171-.031-2.47.064-3.557-.049-.392-4.186.05-9.201-.251-13.476-.934-.373-2.19-.193-3.456-.15-.557.019-1.267 0-1.853 0-.587 0-1.329-.109-1.754.051-.432.162-.802 1.121-1.101 1.652-1.989 3.527-4.03 6.881-6.012 10.369-.325.572-.597 1.209-1.101 1.604-1.071.084-2.485.082-3.557 0-.231-1.666-.203-3.525-.15-5.41.147-5.303-.052-10.977-.051-16.33.001-3.834-.189-7.453 1.002-10.07.566-1.242 1.353-2.381 2.004-3.506.676-1.166 1.329-2.312 2.054-3.457 1.318-2.344 2.65-4.715 4.008-7.062 3.703-6.402 7.351-12.842 11.071-19.287.312-.541.611-1.197 1.102-1.553-.753 4.535-.401 9.922-.4 15.029.001 5.213-.069 10.467.15 15.277 1.081.168 2.519.238 3.557 0 .201-2.039.1-4.387.1-6.713 0-2.334-.082-4.691.101-6.812 2.298-.223 4.92-.15 7.515-.15 2.573.002 5.202-.16 7.564.102.273 4.387-.068 9.225.25 13.475.968.268 2.487.162 3.507.051.271-.957.15-2.012.15-3.006-.001-7.188-.056-14.299 0-21.34 1-2.256 2.315-4.197 3.456-6.312.165-.227.276-.748.602-.65-.322 2.66-.2 6.057-.2 9.166 0 7.361-.072 14.978.15 22.043.938.322 2.435.076 3.506.049.331-.807.2-1.731.2-2.606 0-8.105-.107-16.937-.05-24.896.013-1.83.146-3.297 1.002-4.459 1.553-2.109 4.587-3.498 7.765-1.854 2.146 1.111 3.155 2.942 3.156 6.213.001 9.108-.05 18.695.1 27.451.88.42 2.456.096 3.558.102.267-.742.149-1.588.149-2.406 0-2.465 0-5.029 0-7.562 0-4.976-.049-9.795-.05-14.779 0-1.732-.144-3.496.15-4.908.536-2.578 2.602-4.668 5.36-4.91 2.771-.244 5.067 1.682 5.911 3.656.811 1.896.501 4.91.501 7.564-.005 7.898-.074 15.824.145 23.24z"/><path d="m39.736 17.054c-1.166.301-2.449.1-3.707.1-3.614-.002-7.736.185-11.272-.051-.169-1.963-.119-3.982-.101-5.861.021-2.07-.167-3.906.351-5.561.889-2.832 3.27-5.254 6.764-5.51 1.601-.117 3.235.418 4.258 1.002 1.287.734 2.486 2.041 3.105 3.406.732 1.615.651 3.75.651 6.012.001 2.194.102 4.422-.049 6.463z"/></g></svg>