<svg enable-background="new 0 0 80.89 57.986" viewBox="0 0 80.89 57.986" xmlns="http://www.w3.org/2000/svg"><g clip-rule="evenodd" fill-rule="evenodd"><path d="m57.059.315c-.136.665-.714 1.116-1.155 1.557-3.069 3.07-6.231 6.231-9.34 9.341-.889.889-1.808 1.764-2.662 2.711-.428.476-.79.971-1.255 1.406-.455.426-.915.864-1.356 1.306-1.784 1.785-3.622 3.542-5.323 5.373-1.705 1.836-3.647 3.482-5.373 5.323-.862.919-1.761 1.811-2.661 2.711-4.415 4.417-8.972 8.836-13.408 13.308-2.386 2.326-4.812 4.688-7.13 7.13-1.156 1.218-2.47 2.288-3.616 3.516-.85.91-1.707 1.807-2.611 2.712-.255.254-.527.772-1.004.652-.418-14.306.111-28.293-.101-43.085-.056-3.893 0-8.447 0-12.754 0-.92-.042-1.353.602-1.456 1.065-.172 2.334.05 3.515.05 16.035.001 33.169.054 49.512.05 1.118-.001 2.27-.121 3.366.149z"/><path d="m80.56.467h.101c.341.58.201 1.315.201 1.958-.001 7.657 0 15.68 0 23.4-.001 2.104-.032 4.174-.05 6.126-.006.625.12 1.282-.151 1.858-1.286.207-2.656.101-4.017.1-8.514-.001-16.643.002-25.007 0-1.357 0-2.749.121-4.067-.15-.049-.544.494-.875.804-1.205.972-1.036 2.075-2.038 3.113-3.062 4.141-4.09 8.179-8.279 12.353-12.454 4.732-4.732 9.477-9.787 14.462-14.462.8-.752 1.486-1.567 2.258-2.109z"/><path d="m80.711 44.605c.203 4.244.237 9.159 0 13.257-4.679.197-9.487.1-14.311.101-11.823.002-24.026-.15-35.854-.15-1.141 0-2.278.028-3.415 0-1.115-.028-2.294.26-3.364-.151.051-.825.96-1.212 1.406-1.808 3.055-3.251 6.74-6.695 10.043-10.043.47-.476 1.073-1.343 1.657-1.456.784-.152 1.866 0 2.862 0 6.604-.002 12.8.05 19.283.051 5.626 0 10.937.057 16.37.05.887-.001 1.78-.035 2.662 0 .889.034 1.803-.143 2.661.149z"/></g></svg>