<svg enable-background="new 0 0 76.469 65.399" viewBox="0 0 76.469 65.399" xmlns="http://www.w3.org/2000/svg"><g clip-rule="evenodd" fill-rule="evenodd"><path d="m76.469 41.585c-.274 1.115-.886 2.127-1.391 3.131-2.467 4.904-5.164 9.857-7.648 14.801-.505 1.002-.954 2.029-1.49 3.029-.511.951-.903 2.01-1.639 2.83-3.484.072-7.217-.049-11.027-.049-3.664 0-7.798.271-10.579-.547-5.93-1.742-7.712-6.863-10.083-12.168-4.008-8.971-7.745-18.17-11.721-27.268-.528-1.209-1.44-2.822-1.49-4.072-.035-.855.868-2.289 1.291-3.131 2.409-4.791 4.832-9.211 7.252-14.105.999-2.022 2.215-3.842 4.718-4.023 2.003-.145 3.53 1.002 4.321 2.185.634.949 1.076 2.176 1.59 3.379 3.393 7.949 7.047 16.191 10.48 24.039 1.059 2.418 1.811 4.826 3.13 6.754 1.301 1.904 3.203 3.436 5.562 4.322 2.541.955 5.722.695 9.089.695 3.199-.002 6.469-.025 9.635.198z"/><path d="m15.675 28.473c.505.039.952 1.314 1.143 1.738.603 1.336 1.084 2.594 1.689 3.924.299.656.677 1.281.894 1.887.199.557.301 1.09.546 1.639 2.42 5.416 4.78 10.918 7.152 16.441.402.938.857 1.963 1.292 3.029.73 1.795 1.35 3.809.248 5.613-.741 1.213-2.174 2.359-4.271 2.482-2.099.123-4.308-.051-6.656-.049-3.334 0-6.676-.051-10.082-.051-1.119 0-2.3.115-3.328 0-2.762-.309-5.046-3.152-4.072-6.457.375-1.274 1.227-2.723 1.837-3.873 1.95-3.682 3.879-7.508 5.762-11.225 2.183-4.31 4.363-8.736 6.705-13.113.341-.637.66-1.59 1.141-1.985z"/></g></svg>