<svg clip-rule="evenodd" fill-rule="evenodd" stroke-linejoin="round" stroke-miterlimit="2" viewBox="0 0 560 400" xmlns="http://www.w3.org/2000/svg"><path d="m607.5 241.5-207 .1v-122h8v79.4c0 19.1 15.5 34.5 34.5 34.5v-191l-42.5-42.5h-124.4l-34.5 34.5.1 207h-122v-8h79.3c19.1 0 34.5-15.4 34.5-34.5h-191l-42.5 42.5v124.4l34.5 34.5 207-.1v122h-8v-79.3c0-19.1-15.5-34.5-34.5-34.5v191l42.5 42.6h124.4l34.5-34.5-.1-207h122v8h-79.3c-19.1 0-34.5 15.5-34.5 34.5h191l42.6-42.6v-124.4zm-240 33h113.8v8h-121.8v-121.8h8zm-8 85h121.8v8h-113.8v113.8h-8zm-77-77h-121.8v-8h113.8v-113.8h8zm0 77v121.8h-8v-113.8h-113.8v-8zm42.5-34.5v156.3h-8v-156.3h-156.3v-8h156.3v-156.3h8v156.3h156.3v8z" fill-rule="nonzero" transform="matrix(.420495 0 0 .420495 145 65)"/></svg>