<svg enable-background="new 0 0 69.215 60.573" viewBox="0 0 69.215 60.573" xmlns="http://www.w3.org/2000/svg"><g clip-rule="evenodd" fill-rule="evenodd"><path d="m61.84.05c2.639-.282 4.44.654 5.646 2.075.759.895 1.593 2.337 1.592 4.15 0 3.519-2.715 6.143-5.887 6.37-.396.029-.785.015-1.207-.048-3.589-.538-7.054-4.485-5.019-8.977.68-1.496 2.524-3.318 4.875-3.57z"/><path d="m53.733 36.389c.428.301.712.644 1.158 1.062.304.285.861.936 1.352.772.535-.179.386-1.902.386-2.751 0-1.127 0-2.208 0-3.137 0-2.216-.174-4.284-.097-6.129.131-3.143 2.051-5.488 4.682-6.129 2.087-.508 3.969.146 5.163 1.062 1.284.985 2.165 2.128 2.51 4.054.354 1.985-.073 4.284.097 6.515.155 2.046.097 4.427.096 6.467 0 4.512.028 8.518.097 12.789.035 2.17.188 4.111-.482 5.791-.631 1.583-1.687 2.524-3.233 3.33-1.869.944-4.568.391-5.936-.579-.82-.583-1.603-1.476-2.364-2.269-2.233-2.323-4.579-4.721-6.95-6.901-3.283-3.019-6.154-6.313-9.217-9.218-.995-1.064-2.039-2.08-3.138-3.04-1.016-1.027-1.834-2.252-3.329-2.799-.879.105-1.414.679-1.931 1.158-1.588 1.475-2.978 3.026-4.585 4.633-1.43 1.429-3.109 3.109-4.633 4.633-.383.382-1.412 1.158-1.303 1.737.094.499 1.172.476 1.689.482 3.44.045 7.208-.118 10.665.097 1.229.076 2.46.565 3.281 1.062 1.93 1.167 3.222 2.877 3.089 5.598-.125 2.559-1.679 4.276-3.523 5.164-1.965.946-5.108.58-7.914.58-2.854-.001-5.924 0-8.59 0-4.169-.001-8.427-.049-12.789-.048-1.414 0-2.899-.022-3.957-.386-1.605-.553-3.117-2.11-3.717-3.812-.699-1.989-.134-4.409.917-5.936.965-1.401 2.529-2.473 3.717-3.764 1.148-1.249 2.467-2.554 3.667-3.764 5.009-5.049 9.957-9.764 15.009-14.816 1.769-1.768 3.813-3.599 5.646-5.501.658-.683 1.229-1.428 1.882-1.833.693-.43 1.715-.81 2.751-.917 1.661-.172 3.234.576 4.198 1.254.719.505 1.305 1.272 1.98 1.931 1.949 1.903 3.857 3.933 5.888 5.791.669.612 1.29 1.338 1.93 1.979 1.906 1.905 3.973 3.815 5.838 5.788z"/></g></svg>