<svg enable-background="new 0 0 75.649 66.971" viewBox="0 0 75.649 66.971" xmlns="http://www.w3.org/2000/svg"><g clip-rule="evenodd" fill-rule="evenodd"><path d="m43.452 0c5.434.294 8.502 2.587 10.701 5.724 1.131 1.613 1.953 3.677 2.19 6.022.236 2.331 0 5.097 0 7.914 0 2.649.05 5.395.05 8.162 0 4.164.099 7.977.099 12.046 0 2.576-.059 4.941 0 7.913.051 2.579-.259 4.827 2.091 5.227 1.292.22 2.809.121 4.23.1 3.988-.061 8.627-.135 12.692.05.16 4.418.22 9.438 0 13.638-6.002.028-12.349.291-18.416.1-1.142-.036-2.136.051-3.086-.05-4.292-.454-7.369-3.517-9.108-6.471-.774-1.313-1.496-2.817-1.643-4.579-.15-1.8-.05-3.843-.05-6.172-.001-15.283-.05-31.266-.049-46.537 0-.967-.094-2.601.149-2.986.037-.048.091-.078.15-.101z"/><path d="m31.656 37.329c.642.262 1.437.149 2.19.149 2.184 0 4.75-.081 6.819.1.154 4.574.127 9.491 0 14.086-5.475.262-11.188-.013-16.773.149-.587.446-.842 1.167-1.194 1.792-2.096 3.71-4.203 7.705-6.272 11.497-.337.618-.549 1.371-1.145 1.792-3.723.091-7.725.05-11.597.05-1.256 0-2.533.121-3.683-.149.239-.797.706-1.512 1.095-2.24 1.898-3.558 3.943-7.167 5.823-10.85.2-.391.298-.812.498-1.193 5.074-9.708 10.618-19.353 15.728-29.118.764-1.459 1.505-2.934 2.29-4.38 1.531-2.818 3.148-5.723 4.729-8.561.798-1.435 1.503-2.915 2.339-4.28 1.734-2.833 4.167-4.533 7.565-5.725.916-.32.647 1.192.647 2.091v15.031c0 .84.122 1.78 0 2.539-.111.692-.717 1.522-1.095 2.189-1.993 3.519-3.851 7.223-5.773 10.651-.74 1.318-1.511 2.733-2.191 4.38z"/></g></svg>