<svg enable-background="new 0 0 78.015 70.726" viewBox="0 0 78.015 70.726" xmlns="http://www.w3.org/2000/svg"><g clip-rule="evenodd" fill-rule="evenodd"><path d="m77.856 40.085c.175 9.862.228 19.63.05 29.591-1.3.261-2.652.148-4.009.148-4.011-.001-8.395.116-12.32-.05-5.114-.216-9.431-1.736-12.965-3.514-5.473-2.751-9.534-7.086-12.37-12.42-.726-1.365-1.277-2.802-1.931-4.255-.193-.432-.267-1.016-.742-1.287-.533.978.129 2.847-.296 3.909-2.312.268-4.905.149-7.472.148-2.553 0-5.158.082-7.521-.099-.249-3.467-.149-7.603-.149-11.481.001-1.276-.116-2.559.149-3.711 3.449-.286 7.451.099 10.737-.247-.038-1.316-.784-2.348-1.287-3.364-1.409-1.244-2.828-2.448-4.948-2.97-2.144-.527-4.717-.352-7.422-.346-3.757.009-7.887-.074-11.579-.05-1.247.008-2.492.165-3.612-.099-.193-9.172-.147-18.49-.149-28.304 0-.796-.186-1.55.594-1.633 1.142-.122 2.408 0 3.612 0h10.887c4.807 0 10.081-.242 14.102.593 8.056 1.675 14.169 5.514 18.308 11.035 1.091 1.455 2.036 2.879 2.821 4.553.773 1.65 1.345 3.412 2.078 5.244 1.416 3.541 2.824 7.162 4.156 10.54 1.358 3.447 2.871 6.833 6.928 7.769 2.056.475 4.67.198 7.125.198 2.414.002 4.891-.078 7.225.102z"/><path d="m14.914 37.066c.263 1.173.148 2.465.148 3.761-.001 3.738.045 7.888-.049 11.431-2.182.257-4.874.148-7.423.148-2.586 0-5.154.064-7.373-.099-.264-4.161-.148-9.025-.148-13.509 0-.589-.142-1.251.198-1.732 4.767-.082 9.881-.082 14.647 0z"/><path d="m33.223 55.078c.271 3.582.148 7.757.148 11.678 0 1.305.093 2.572-.099 3.761-4.748.202-10.191.231-14.993.05-.166-5.002-.173-10.685-.05-15.439 2.302-.178 5.13-.148 7.817-.148 2.402-.001 4.821-.083 7.177.098z"/><path d="m14.964 55.176c.174 3.581.148 7.68.148 11.629 0 1.296.118 2.621-.148 3.81-4.028.034-7.973.519-10.787-.841-2.193-1.06-3.464-2.955-3.909-5.641-.339-2.039-.198-4.476-.198-6.978 0-.738-.158-1.952.297-2.078.062-.018.233-.042.297-.049 2.307-.277 4.821.14 7.274.049 1.182-.044 2.368-.049 3.513-.049 1.202 0 2.398-.12 3.513.148z"/></g></svg>