<svg clip-rule="evenodd" fill-rule="evenodd" stroke-linejoin="round" stroke-miterlimit="2" viewBox="0 0 560 400" xmlns="http://www.w3.org/2000/svg"><g fill="#d30c2f" transform="matrix(1.46538 0 0 1.46538 89.5005 136.034)"><g><path d="m3.47 64.5h-3.47v-2.22h9.46v2.22h-3.45v9.64h-2.54z"/><path d="m16.47 68.91c0-1.19-.62-1.57-1.6-1.57-.87 0-1.57.5-1.96 1.01v5.78h-2.26v-11.85h2.26v4.39c.55-.66 1.62-1.33 3.02-1.33 1.89 0 2.79 1.03 2.79 2.7v6.1h-2.26v-5.23z"/><path d="m24.63 65.34c2.56 0 4.3 1.92 4.3 4.73v.5h-6.39c.14 1.09 1.01 1.99 2.47 1.99.8 0 1.74-.32 2.29-.85l1 1.46c-.85.78-2.21 1.19-3.54 1.19-2.61 0-4.59-1.76-4.59-4.52.01-2.49 1.85-4.5 4.46-4.5zm-2.12 3.7h4.23c-.05-.82-.62-1.9-2.12-1.9-1.39-.01-2 1.04-2.11 1.9z"/><path d="m40.94 68.91c0-1.19-.62-1.57-1.6-1.57-.87 0-1.57.5-1.96 1.01v5.78h-2.26v-11.85h2.26v4.39c.55-.66 1.62-1.33 3.02-1.33 1.89 0 2.79 1.03 2.79 2.7v6.1h-2.26v-5.23z"/><path d="m44.66 69.84c0-2.44 1.71-4.5 4.54-4.5 2.85 0 4.55 2.06 4.55 4.5 0 2.45-1.71 4.52-4.55 4.52-2.84-.01-4.54-2.07-4.54-4.52zm6.74 0c0-1.33-.8-2.49-2.21-2.49s-2.19 1.16-2.19 2.49c0 1.35.78 2.51 2.19 2.51 1.41-.01 2.21-1.16 2.21-2.51z"/><path d="m65.88 68.72c0-.8-.36-1.37-1.28-1.37-.8 0-1.46.53-1.78 1v5.8h-2.28v-5.42c0-.8-.36-1.37-1.28-1.37-.78 0-1.44.53-1.78 1.01v5.78h-2.26v-8.59h2.26v1.12c.36-.52 1.49-1.33 2.81-1.33 1.26 0 2.06.59 2.38 1.57.5-.78 1.64-1.57 2.95-1.57 1.58 0 2.53.84 2.53 2.6v6.21h-2.28v-5.44z"/><path d="m74.07 65.34c2.56 0 4.3 1.92 4.3 4.73v.5h-6.39c.14 1.09 1.01 1.99 2.47 1.99.8 0 1.74-.32 2.29-.85l1 1.46c-.85.78-2.21 1.19-3.54 1.19-2.61 0-4.59-1.76-4.59-4.52.02-2.49 1.85-4.5 4.46-4.5zm-2.11 3.7h4.23c-.05-.82-.62-1.9-2.12-1.9-1.4-.01-2.01 1.04-2.11 1.9z"/><path d="m84.01 69.84c0-2.44 1.71-4.5 4.54-4.5 2.85 0 4.55 2.06 4.55 4.5 0 2.45-1.71 4.52-4.55 4.52-2.83-.01-4.54-2.07-4.54-4.52zm6.75 0c0-1.33-.8-2.49-2.21-2.49s-2.19 1.16-2.19 2.49c0 1.35.78 2.51 2.19 2.51 1.41-.01 2.21-1.16 2.21-2.51z"/><path d="m95.08 67.52h-1.42v-1.97h1.42v-.46c0-1.87 1.21-2.99 2.9-2.99.64 0 1.23.14 1.64.36l-.46 1.6c-.2-.12-.46-.18-.73-.18-.64 0-1.07.43-1.07 1.25v.43h1.74v1.97h-1.74v6.62h-2.28z"/><path d="m105.18 71.44c.62.59 1.9 1.17 2.97 1.17.98 0 1.44-.34 1.44-.87 0-.6-.75-.82-1.73-1.01-1.48-.28-3.38-.64-3.38-2.69 0-1.44 1.26-2.7 3.52-2.7 1.46 0 2.61.5 3.47 1.17l-.91 1.55c-.52-.55-1.49-1-2.54-1-.82 0-1.35.3-1.35.8 0 .53.68.73 1.64.92 1.48.28 3.45.68 3.45 2.81 0 1.57-1.33 2.76-3.72 2.76-1.49 0-2.93-.5-3.84-1.33z"/><path d="m118.98 73.06c-.59.66-1.62 1.3-3.02 1.3-1.89 0-2.77-1.03-2.77-2.7v-6.1h2.26v5.21c0 1.19.62 1.58 1.58 1.58.87 0 1.57-.48 1.96-.98v-5.82h2.26v8.59h-2.26v-1.08z"/><path d="m123.55 71.44c.62.59 1.9 1.17 2.97 1.17.98 0 1.44-.34 1.44-.87 0-.6-.75-.82-1.73-1.01-1.48-.28-3.38-.64-3.38-2.69 0-1.44 1.26-2.7 3.52-2.7 1.46 0 2.61.5 3.47 1.17l-.91 1.55c-.52-.55-1.49-1-2.54-1-.82 0-1.35.3-1.35.8 0 .53.68.73 1.64.92 1.48.28 3.45.68 3.45 2.81 0 1.57-1.33 2.76-3.72 2.76-1.49 0-2.93-.5-3.84-1.33z"/><path d="m132.16 72.01v-4.48h-1.42v-1.97h1.42v-2.36h2.28v2.35h1.74v1.97h-1.74v3.88c0 .53.28.94.78.94.34 0 .66-.12.78-.25l.48 1.71c-.34.3-.94.55-1.89.55-1.57 0-2.43-.81-2.43-2.34z"/><path d="m142.76 73.25c-.59.69-1.6 1.1-2.72 1.1-1.37 0-2.99-.92-2.99-2.85 0-2.01 1.62-2.74 2.99-2.74 1.14 0 2.15.36 2.72 1.05v-1.19c0-.87-.75-1.44-1.89-1.44-.93 0-1.78.34-2.51 1.01l-.85-1.51c1.05-.93 2.4-1.35 3.75-1.35 1.96 0 3.75.78 3.75 3.26v5.55h-2.26v-.89zm0-2.24c-.37-.5-1.09-.75-1.81-.75-.89 0-1.62.46-1.62 1.3 0 .8.73 1.26 1.62 1.26.73 0 1.44-.25 1.81-.75z"/><path d="m146.74 62.94c0-.75.62-1.35 1.35-1.35.75 0 1.35.6 1.35 1.35s-.6 1.35-1.35 1.35c-.73 0-1.35-.61-1.35-1.35zm.23 2.61h2.26v8.59h-2.26z"/><path d="m157.02 68.95c0-1.19-.62-1.6-1.58-1.6-.89 0-1.58.5-1.96 1.01v5.78h-2.26v-8.59h2.26v1.12c.55-.66 1.6-1.33 3.01-1.33 1.89 0 2.79 1.07 2.79 2.74v6.07h-2.26z"/><path d="m166.45 73.25c-.59.69-1.6 1.1-2.72 1.1-1.37 0-2.99-.92-2.99-2.85 0-2.01 1.62-2.74 2.99-2.74 1.14 0 2.15.36 2.72 1.05v-1.19c0-.87-.75-1.44-1.89-1.44-.93 0-1.78.34-2.51 1.01l-.85-1.51c1.05-.93 2.4-1.35 3.75-1.35 1.96 0 3.75.78 3.75 3.26v5.55h-2.26v-.89zm0-2.24c-.37-.5-1.08-.75-1.81-.75-.89 0-1.62.46-1.62 1.3 0 .8.73 1.26 1.62 1.26.73 0 1.44-.25 1.81-.75z"/><path d="m170.68 62.28h2.26v4.38c.68-.87 1.64-1.32 2.65-1.32 2.19 0 3.81 1.71 3.81 4.52 0 2.86-1.64 4.5-3.81 4.5-1.03 0-1.97-.46-2.65-1.32v1.1h-2.26zm4.2 10.06c1.32 0 2.19-1 2.19-2.49s-.87-2.51-2.19-2.51c-.73 0-1.57.43-1.94 1v3.04c.37.56 1.21.96 1.94.96z"/><path d="m180.94 62.28h2.26v11.86h-2.26z"/><path d="m189.11 65.34c2.56 0 4.3 1.92 4.3 4.73v.5h-6.39c.14 1.09 1.01 1.99 2.47 1.99.8 0 1.74-.32 2.29-.85l1 1.46c-.85.78-2.21 1.19-3.54 1.19-2.61 0-4.59-1.76-4.59-4.52.01-2.49 1.84-4.5 4.46-4.5zm-2.12 3.7h4.23c-.05-.82-.62-1.9-2.12-1.9-1.4-.01-2 1.04-2.11 1.9z"/><path d="m203.6 65.34c1.76 0 2.83.76 3.4 1.55l-1.48 1.39c-.41-.6-1.03-.93-1.81-.93-1.37 0-2.33 1-2.33 2.49s.96 2.51 2.33 2.51c.78 0 1.41-.36 1.81-.92l1.48 1.37c-.57.8-1.64 1.56-3.4 1.56-2.65 0-4.55-1.87-4.55-4.52 0-2.64 1.9-4.5 4.55-4.5z"/><path d="m207.47 69.84c0-2.44 1.71-4.5 4.54-4.5 2.85 0 4.55 2.06 4.55 4.5 0 2.45-1.71 4.52-4.55 4.52-2.84-.01-4.54-2.07-4.54-4.52zm6.74 0c0-1.33-.8-2.49-2.21-2.49s-2.19 1.16-2.19 2.49c0 1.35.78 2.51 2.19 2.51 1.41-.01 2.21-1.16 2.21-2.51z"/><path d="m228.69 68.72c0-.8-.36-1.37-1.28-1.37-.8 0-1.46.53-1.78 1v5.8h-2.28v-5.42c0-.8-.36-1.37-1.28-1.37-.78 0-1.44.53-1.78 1.01v5.78h-2.26v-8.59h2.26v1.12c.36-.52 1.49-1.33 2.81-1.33 1.26 0 2.06.59 2.38 1.57.5-.78 1.64-1.57 2.95-1.57 1.58 0 2.53.84 2.53 2.6v6.21h-2.28v-5.44z"/><path d="m233.5 67.52h-1.42v-1.97h1.42v-.46c0-1.87 1.21-2.99 2.9-2.99.64 0 1.23.14 1.64.36l-.46 1.6c-.2-.12-.46-.18-.73-.18-.64 0-1.07.43-1.07 1.25v.43h1.74v1.97h-1.74v6.62h-2.28z"/><path d="m238.06 69.84c0-2.44 1.71-4.5 4.54-4.5 2.85 0 4.55 2.06 4.55 4.5 0 2.45-1.71 4.52-4.55 4.52-2.83-.01-4.54-2.07-4.54-4.52zm6.74 0c0-1.33-.8-2.49-2.21-2.49s-2.19 1.16-2.19 2.49c0 1.35.78 2.51 2.19 2.51s2.21-1.16 2.21-2.51z"/><path d="m248.63 65.55h2.26v1.17c.6-.76 1.67-1.37 2.74-1.37v2.21c-.16-.04-.37-.07-.62-.07-.75 0-1.74.43-2.12.98v5.67h-2.26z"/><path d="m255.68 72.01v-4.48h-1.42v-1.97h1.42v-2.36h2.28v2.35h1.74v1.97h-1.74v3.88c0 .53.28.94.78.94.34 0 .66-.12.78-.25l.48 1.71c-.34.3-.94.55-1.89.55-1.58 0-2.43-.81-2.43-2.34z"/></g><g><path d="m167.16 30.05v5.32h10.35v19.51h5.62v-19.51h10.05v-5.32z"/><path d="m252.38 53.37c1.81 1.79 2.3 2.1 4.07 2.1 2.37 0 3.55-2.07 3.55-3.55v-21.87h-5.91v17.44l-15.37-15.97c-1.81-1.79-2.37-2.07-4.14-2.07-2.37 0-3.55 2.07-3.55 3.55v21.88h5.91v-17.44z"/><path d="m211.22 29.16c-9.85 0-15.37 2.44-15.37 13.3s5.53 13.3 15.37 13.3c9.85 0 15.37-2.44 15.37-13.3s-5.53-13.3-15.37-13.3zm0 20.99c-6.08 0-9.16-.44-9.16-7.69s3.09-7.69 9.16-7.69c6.08 0 9.25.44 9.25 7.69s-3.17 7.69-9.25 7.69z"/><path d="m123.09 54.88h5.64l-.02-24.83h-5.62z"/><path d="m95.32 35.37h11.33c3.34 0 3.74 1.51 3.74 2.95s-.44 2.97-3.72 2.97h-11.35zm15.53 10.08c3.55-.88 5.56-3.58 5.56-7.27 0-5.02-3.32-8.14-8.65-8.14h-17.76v24.83h5.32v-8.87h9.46l5.88 8.87h6.84z"/><path d="m151.86 39.28h-4.98c-4.27 0-5.14-.81-5.14-2.33 0-1.86 2.86-2.58 6.89-2.58 3.54 0 6.89.6 10.77 2.41l2.98-4.19c-4.23-2.56-8.54-3.44-13.82-3.44-8.08 0-12.8 2.98-12.8 8.07 0 5.54 4.58 7.42 10.48 7.37h5.48c5.39 0 6.11.62 6.11 2.68 0 2.04-2.99 3.3-7.79 3.3-4.22 0-8.57-.83-12.38-3.38l-3.02 4.29c4.05 3.22 9.04 4.34 15.37 4.34 8.83 0 13.9-3.22 13.9-8.81 0-5.15-4.05-7.73-12.05-7.73"/><path d="m51.54 54.88h6.82l2.66-4.43h15.97l2.66 4.43h6.8l-14.49-23.95c-.59-.89-1.77-1.48-2.96-1.48-1.18 0-2.37.59-2.96 1.48zm17.47-18.35 5.32 9.19h-10.64l5.32-9.17"/></g><g><path d="m12.39 34.85v8.86h13v-8.86l-6.5-5.91z"/><path d="m37.8 30.14v21.63c0 1.72-1.39 3.11-3.11 3.11h-31.58c-1.72 0-3.11-1.39-3.11-3.11v-21.63c0-.89.38-1.73 1.04-2.32l15.78-14.09c1.18-1.05 2.96-1.05 4.15 0l15.79 14.09c.66.59 1.04 1.44 1.04 2.32zm-18.91-11.54-14.18 12.71v18.9h28.36v-18.9z"/></g></g></svg>