<svg enable-background="new 0 0 77.784 40.147" viewBox="0 0 77.784 40.147" xmlns="http://www.w3.org/2000/svg"><g clip-rule="evenodd" fill-rule="evenodd"><path d="m22.53.099c1.007 1.476 1.831 3.079 2.713 4.651 2.187 3.899 4.486 7.802 6.686 11.725.436.775.928 1.56 1.163 2.423-6.68.185-14.1.076-20.93-.098.173-.836.7-1.562 1.114-2.276 2.112-3.648 4.261-7.355 6.347-11.096.839-1.503 1.749-2.965 2.374-4.603-.644-.336-1.596-.193-2.52-.193-6.095.001-12.543-.136-18.604-.048-.328.669-.194 1.456-.194 2.18.001 11.598-.156 23.392.049 35.029.581-.169.75-.846 1.017-1.309.846-1.465 1.755-2.983 2.616-4.505 1.155-2.038 2.28-4.13 3.586-5.959 9.509-.119 19.534.06 29.312.096 1.421 2.134 2.67 4.438 3.973 6.687.978 1.688 1.932 3.369 2.907 5.087.308.544.736 1.096.774 1.744-14.85.11-30.018.011-44.766-.242-.315-3.091-.013-6.3-.098-9.593-.084-3.274 0-6.653 0-10.028 0-5.729.048-11.502.049-17.49 0-.76-.182-1.617.242-2.277 7.247-.013 14.873.015 22.19.095z"/><path d="m77.616.729c.281.744.134 1.556.097 2.325-.107 2.28.001 4.858 0 7.365-.001 9.887.036 19.956-.145 29.65-7.253.151-14.933.058-22.238-.098-.743-.591-1.074-1.559-1.551-2.374-.479-.821-1.025-1.604-1.404-2.471-5.852-9.943-11.475-20.304-17.298-30.375-.616-1.066-1.199-2.119-1.841-3.246-.139-.244-.685-.724-.242-1.066 14.676.018 29.934.055 44.622.29zm-.824 1.696c-4.561 7.556-8.78 15.359-13.275 22.916-.904 1.521-1.815 3.077-2.616 4.65-1.222 2.399-2.599 4.727-3.924 6.978-.451.765-.973 1.544-1.212 2.422 1.691.241 3.482.146 5.281.146 3.534 0 7.177-.033 10.804.049 1.747.039 3.494.148 5.136-.098.041-6.091.296-12.396.097-18.652-.195-6.148.334-12.689-.048-18.508-.032 0-.064 0-.097 0-.058.024-.111.051-.146.097z"/></g></svg>