<svg enable-background="new 0 0 63.747 71.86" viewBox="0 0 63.747 71.86" xmlns="http://www.w3.org/2000/svg"><path clip-rule="evenodd" d="m38.59.189c.244.881.205 1.81.301 2.706 1.237 11.674 2.229 23.4 3.508 35.181.189 1.749.273 3.521.701 5.212 5.117.135 10.529.15 15.786.15.718 0 1.446-.112 2.105.15-.034.869-.471 1.702-.752 2.606-.779 2.504-1.857 4.96-2.807 7.417-1.27 3.286-2.571 6.597-3.458 10.224.64.355 1.526.2 2.355.2h5.111c.824 0 1.667-.076 2.306.251.005.678-.259 1.373-.501 2.005-.24.623-.485 1.237-.702 1.854-.443 1.267-.783 2.578-1.453 3.658-6.718.13-13.718.001-20.647 0-.88 0-2.427.135-2.756-.2-.279-.284-.328-1.672-.4-2.405-.249-2.522-.427-5.079-.702-7.618-.371-3.418-.55-6.873-1.053-10.023-2.213-.283-5.015-.137-7.467-.1-.323.738-.323 1.597-.4 2.405-.481 5.022-.92 10.336-1.454 15.385-.084.796-.057 1.634-.4 2.356-.891.266-1.866.15-2.807.15-6.666 0-13.58-.028-20.196-.15-.82-1.776-1.492-3.691-2.204-5.613-.228-.612-.638-1.223-.602-1.904.588-.438 1.528-.25 2.355-.25 2.503.001 5.154.148 7.367-.101.028-.919-.446-1.774-.751-2.606-1.829-4.979-3.708-10.038-5.564-15.035-.309-.835-.655-1.703-.701-2.606.584-.353 1.324-.19 2.005-.2 4.911-.073 10.85.118 15.735-.05.519-1.726.425-3.561.651-5.362.672-5.33 1.104-10.807 1.654-16.237.642-6.347 1.142-12.76 1.904-19.044.053-.439.117-.9.15-1.353.027-.375-.096-.88.301-1.153 3.174-.01 7.032-.157 10.373-.05 1.087.034 2.147-.133 3.109.15zm-6.916 12.228c-.156.393-.215 1.192-.301 1.854-.083.648-.133 1.326-.2 1.904-.906 7.782-1.378 15.484-2.155 23.153-.131 1.298-.303 2.586-.2 3.858 1.799.107 4.292.268 5.913 0-.229-5.168-.88-10.332-1.303-15.485-.211-2.571-.466-5.173-.752-7.717-.288-2.564-.447-5.113-.851-7.618-.003-.03-.007-.059-.05-.05-.003-.031-.008-.06-.051-.05-.003.065-.065.07-.05.151zm-17.69 39.039c.057 1.072.573 2.056.902 3.057.831 2.533 1.961 5.057 2.807 7.467.157.448.186 1.114.701 1.353.329-.896.285-1.907.401-2.906.112-.973.262-1.977.351-2.957.183-2.022.515-4.036.451-5.963-1.642-.213-3.582-.127-5.413-.15-.074.025-.126.073-.2.099zm30.018.05c-.279.906 0 1.906.1 2.907.26 2.589.464 5.138.753 7.567.052.438-.027 1.038.351 1.353.438-.312.479-.885.651-1.353.884-2.393 1.941-4.852 2.756-7.316.333-1.007.851-1.989.902-3.057-1.641-.2-3.754-.186-5.513-.101z" fill-rule="evenodd"/></svg>