<svg enable-background="new 0 0 76.856 33.163" viewBox="0 0 76.856 33.163" xmlns="http://www.w3.org/2000/svg"><path d="m58.647.046c.263-.004.526-.006.79.006.163.443.314.894.548 1.306.169-.439.343-.875.512-1.315.935-.277.857.835 1.24 1.371.144-.468.338-.917.511-1.374.249.006.5.007.75.009.201.452.312.939.531 1.383.191-.459.327-.94.54-1.391.248.001.497.002.746.005 4.016 10.971 7.983 21.971 12.042 32.92-.313.014-.626.01-.938.008-3.823-10.48-7.626-20.97-11.49-31.434-.171.416-.408.853-.391 1.308 3.618 10.053 7.352 20.066 10.96 30.12-.29-.025-.654.094-.899-.059-3.529-9.603-7.017-19.226-10.549-28.828-.203.371-.323.778-.451 1.179 3.321 9.251 6.786 18.449 10.08 27.71-.294-.051-.77.162-.933-.15-3.198-8.743-6.378-17.493-9.603-26.225-.189.38-.329.78-.453 1.185 3.063 8.401 6.14 16.794 9.216 25.19-.299.009-.599.008-.898.01-2.92-7.974-5.876-15.934-8.743-23.927-2.752 8.014-5.754 15.943-8.479 23.97-.277.002-.553.003-.829.004-.192-.425-.332-.871-.503-1.304-.214.417-.379.857-.512 1.307-.277-.001-.555-.001-.832-.001-.143-.446-.301-.889-.496-1.315-.148.445-.349.87-.497 1.315-.918.313-1.008-.596-1.258-1.234-.023-.004-.07-.011-.093-.015-.131.426-.306.838-.474 1.251-.287-.052-.805.175-.882-.222-2.823-7.913-5.702-15.805-8.589-23.697-2.898 7.942-5.706 15.932-8.561 23.89-.216.178-.554.044-.818.088-.186-.428-.321-.877-.532-1.295-.197.413-.347.847-.457 1.291-.255-.002-.509-.001-.762.005-.168-.433-.328-.87-.525-1.29-.327.634-.323 1.633-1.307 1.291-.182-.436-.283-.903-.509-1.321-.146.446-.334.878-.485 1.323-.273.003-.546.002-.819-.003-1.126-3.117-2.269-6.229-3.407-9.341-3.491-.004-6.983.005-10.474.011-1.165 3.119-2.206 6.288-3.387 9.395-.275-.005-.551 0-.827-.005 1.005-3.158 2.217-6.246 3.278-9.387-.285-.001-.571.005-.856-.006-1.181 3.11-2.239 6.266-3.374 9.393-.287.005-.575.008-.862.002 1.009-3.153 2.218-6.245 3.29-9.378-.349.025-.916-.189-1.001.297-1.074 3.031-2.181 6.046-3.228 9.086-.295.004-.591.005-.887.001 1.045-3.15 2.208-6.258 3.314-9.386-.296-.002-.594-.025-.889.013-1.163 3.109-2.236 6.249-3.356 9.377-.294 0-.587.001-.88-.002 3.813-11.025 7.913-21.958 11.664-33.005.264 0 .529.001.793.005.176.462.308.942.522 1.389.153-.471.347-.926.521-1.389.254-.003.509-.004.763-.001.181.456.309.934.545 1.367.16-.459.282-.933.507-1.368.248-.002.496-.005.745-.006.177.451.339.908.538 1.35.242-.418.308-.905.504-1.343.259-.007.518-.007.778-.006 2.93 7.99 5.805 15.998 8.76 23.978 2.816-8.013 5.645-16.028 8.524-24.021.251-.11.533-.033.796-.011.15.458.354.896.506 1.354.173-.467.381-.921.524-1.4.248.002.497.002.746 0 .154.432.351.847.494 1.284.025.005.076.016.101.021.209-.631.368-1.658 1.281-1.256.122.469.282.932.503 1.364.251-.629.297-1.723 1.263-1.406 2.928 7.977 5.695 16.009 8.706 23.955 2.95-7.953 5.702-15.984 8.563-23.97zm-19.911 2.751c.156.397.29.804.474 1.19.11-.408.275-.796.42-1.19-.122-.426-.3-.839-.415-1.269-.237.391-.345.837-.479 1.269zm1.982.434c2.877 7.73 5.511 15.552 8.465 23.249.207-.453.597-.967.351-1.477-2.957-7.784-5.64-15.66-8.526-23.468-.201.53-.581 1.13-.29 1.696zm20.151-1.716c-.47.791-.516 1.644.008 2.425.414-.784.381-1.639-.008-2.425zm1.746.009c-.491.783-.469 1.649.012 2.43.453-.786.481-1.65-.012-2.43zm-56.116 15.959c.303-.007.606 0 .909-.005 1.599-4.695 3.327-9.346 4.9-14.05.416-.603-.073-1.232-.241-1.826-1.792 5.314-3.755 10.573-5.568 15.881zm29.032-15.896c-2.771 7.849-5.628 15.671-8.331 23.54-.174.506.205.998.352 1.472 2.775-7.954 5.658-15.88 8.453-23.824-.092-.417-.279-.811-.474-1.188zm1.862 2.353c.436-.775.476-1.571-.01-2.339-.548.723-.447 1.604.01 2.339zm13.341 20.884c-.359.57.091 1.154.27 1.701 2.875-7.748 5.52-15.578 8.368-23.337.291-.568-.165-1.125-.327-1.658-2.808 7.754-5.504 15.543-8.311 23.294zm-36.842-20.765c.432-.791.489-1.619-.015-2.392-.521.753-.427 1.631.015 2.392zm1.812.009c.451-.794.456-1.637-.013-2.422-.536.771-.436 1.644.013 2.422zm1.376-1.153c1.747 4.791 3.484 9.592 5.233 14.382.192.314.651.098.954.115-1.932-5.266-3.828-10.549-5.771-15.812-.152.431-.356.861-.416 1.315zm21.225 1.157c-.495.758-.504 1.641.002 2.397.106-.397.304-.761.419-1.152-.099-.427-.289-.828-.421-1.245zm13.217 23.607c-.095.489.272.931.421 1.382 2.834-7.935 5.645-15.875 8.497-23.801-.166-.391-.299-.794-.457-1.188-2.897 7.84-5.605 15.753-8.461 23.607zm10.198-23.613c-.162.396-.31.798-.449 1.202.154.392.26.805.465 1.175.457-.777.487-1.605-.016-2.377zm-22.002 1.399c2.911 7.85 5.658 15.757 8.565 23.609.169-.434.459-.875.419-1.354-2.945-7.85-5.661-15.776-8.587-23.633-.185.433-.463.894-.397 1.378zm-28.214 2.796c-.982 3.099-2.174 6.133-3.2 9.22.29-.013.581.001.872-.007 1.512-4.003 2.739-8.104 4.285-12.091-.157-.39-.301-.785-.45-1.179-.597 1.308-1.004 2.705-1.507 4.057zm2.855-2.881c.14.402.275.807.446 1.199.428-.785.494-1.61-.005-2.383-.221.364-.32.78-.441 1.184zm1.952.425c1.45 3.876 2.807 7.79 4.27 11.659.29 0 .581.001.868-.05-1.638-4.415-3.184-8.866-4.852-13.271-.14.54-.597 1.107-.286 1.662zm11.777 21.692c-.27.568.186 1.1.328 1.637 2.803-7.781 5.559-15.573 8.339-23.355.38-.546-.094-1.115-.267-1.641-2.896 7.747-5.536 15.594-8.4 23.359zm10.69-19.649c2.897 7.906 5.749 15.832 8.599 23.756.197-.43.444-.886.424-1.369-2.898-7.867-5.678-15.777-8.579-23.645-.191.4-.391.813-.444 1.258zm22.095-1.287c-2.819 7.931-5.682 15.853-8.473 23.798.075.432.282.84.459 1.242 2.7-7.79 5.593-15.503 8.258-23.296.292-.574-.056-1.19-.244-1.744zm-23.511.147c-2.832 7.778-5.568 15.597-8.375 23.388-.275.526.226 1.015.322 1.523 2.874-7.79 5.601-15.638 8.406-23.451.276-.453-.191-1.237-.353-1.46zm-27.242 10.755c.303-.036.768.154.94-.186 1.043-3.141 2.154-6.271 3.305-9.377-.142-.396-.292-.789-.463-1.173-1.388 3.527-2.537 7.153-3.782 10.736zm5.158-9.546c1.177 3.177 2.28 6.387 3.493 9.553.289-.016.578.003.866-.012-1.312-3.56-2.53-7.161-3.913-10.694-.29.254-.311.78-.446 1.153zm-.478 1.313c-1.017 2.729-1.977 5.487-2.935 8.239 1.988.011 3.977-.009 5.965-.003-1.008-2.744-1.936-5.525-3.03-8.236zm-3.235 9.086c-.159.3-.23.633-.283.966 2.402.011 4.805-.005 7.207-.008-.087-.307-.22-.598-.329-.897-2.191-.171-4.404.062-6.595-.061zm7.507.009c.055.699.498 1.173 1.223.905-.126-.303-.235-.612-.361-.914-.287.008-.574-.002-.862.009zm1.802-.012c.108.312.231.618.348.927.292-.01.584-.003.875-.004-.097-.313-.209-.621-.328-.925-.298.007-.596.005-.895.002zm1.814.004c.102.311.215.619.361.914.286.001.573.012.859-.009-.058-.716-.512-1.093-1.22-.905zm-16.542.057c-.107.305-.209.611-.302.92.283-.008.565.003.848-.003.153-.291.263-.602.368-.912-.305-.015-.609-.007-.914-.005zm1.819.002c-.094.306-.236.595-.308.908.282.01.564.007.846-.005.132-.291.266-.583.34-.896-.291-.045-.588-.071-.878-.007zm1.824-.012c-.11.307-.245.604-.34.917.294.01.589.001.883.002.114-.303.215-.61.351-.903-.297-.022-.597-.074-.894-.016zm-4.597 2.744c.297-.008.594-.006.891.001.091-.31.191-.618.341-.905-.716-.312-1.167.235-1.232.904zm1.811-.008c.708.193 1.116-.207 1.208-.891-.697-.364-1.153.247-1.208.891zm2.182-.97c-.179.294-.263.63-.355.959.288.015.577.005.866.006.135-.307.242-.627.301-.957-.272.003-.543.015-.812-.008zm2.036.012c-.505-.045-.411.629-.578.951 2.828-.017 5.662.053 8.486-.051-.095-.309-.2-.614-.327-.911-2.526.008-5.053.009-7.581.011zm8.494-.016c.136.305.245.619.36.932.297-.028.591.014.886.04-.101-.325-.198-.651-.332-.963-.305-.013-.61.008-.914-.009zm1.822.011c.111.308.217.619.361.914.286-.012.573.003.859-.01-.058-.71-.51-1.105-1.22-.904zm1.816.001c.098.304.215.602.325.902.294.005.588.014.883-.005-.078-.314-.203-.614-.323-.913-.295.013-.591-.006-.885.016zm-18.47 1.823c-.143.305-.24.629-.325.954.288.004.575.001.862.005.137-.298.22-.616.336-.92-.288-.049-.581-.06-.873-.039zm1.775.037c-.093.308-.202.611-.295.919.281-.006.563.003.844-.002.152-.283.26-.586.336-.897-.291-.066-.593-.098-.885-.02zm1.51.906c.284.009.569.017.853.005.159-.307.272-.634.375-.962-.743-.213-1.142.257-1.228.957zm2.16-.964c-.124.319-.259.634-.364.96 3.285 0 6.575.04 9.859-.035-.122-.307-.233-.618-.356-.925-3.045-.004-6.092.02-9.139 0zm10.041.009c.106.331.242.653.413.956.272-.054.55-.044.825-.043-.092-.311-.218-.61-.333-.913-.301-.023-.603-.005-.905 0zm1.868-.004c.035.689.434 1.137 1.155.909-.079-.31-.189-.611-.284-.916-.291.003-.582-.011-.871.007zm1.811-.034c.052.329.188.634.312.941.285.016.571.011.856.002-.094-.319-.174-.647-.325-.945-.28.037-.563.036-.843.002zm-2.983 1.847c.959 2.62 1.864 5.269 2.9 7.856.164-.5.562-1.021.299-1.56-.785-2.096-1.53-4.209-2.32-6.301-.27-.116-.59.015-.879.005zm1.809.002c.647 1.797 1.31 3.589 1.961 5.385.162-.5.59-1.016.341-1.556-.441-1.2-.905-2.392-1.313-3.604-.086-.472-.663-.222-.989-.225zm1.806-.005c.369.949.685 1.918 1.058 2.865.114-.411.365-.779.434-1.2-.15-.573-.404-1.117-.601-1.676-.296-.057-.597-.043-.891.011zm1.974 5.389c.467-.796.478-1.641-.006-2.434-.497.788-.448 1.638.006 2.434zm23.434-2.409c-.496.752-.429 1.573.054 2.315.401-.755.504-1.6-.054-2.315zm.931 2.469c-.498.773-.461 1.59.002 2.37.475-.764.483-1.606-.002-2.37zm-25.272 2.465c.157-.399.302-.802.47-1.196-.135-.411-.277-.819-.439-1.22-.523.772-.487 1.622-.031 2.416zm1.834-2.384c-.533.748-.452 1.61.006 2.37.39-.779.492-1.611-.006-2.37zm21.188 1.052c.098.419.297.811.43 1.223.191-.375.338-.769.472-1.167-.143-.404-.272-.815-.47-1.196-.104.395-.328.747-.432 1.14z"/></svg>