<svg enable-background="new 0 0 80.199 53.942" viewBox="0 0 80.199 53.942" xmlns="http://www.w3.org/2000/svg"><path clip-rule="evenodd" d="m48.857 15.174c4.203 6.826 8.226 14.18 12.445 21.15 2.125 3.511 3.925 7.238 6.965 9.833 2.242 1.914 5.06 3.406 8.501 4.097 1.183.237 2.419.208 3.431.717-.223.353-.73.205-1.024.205-10.586 0-21.238 0-32.264 0-1.203 0-2.415-.045-3.585-.051-.32-.002-.743.114-.973-.205.266-.354.755-.268 1.075-.307 1.199-.149 2.08-.473 2.971-1.024.984-.609 2.167-1.722 2.663-2.816 1.032-2.28.733-5.066-.153-7.17-.21-.5-.529-.995-.819-1.485-.583-.982-1.055-1.833-1.69-2.919-.267-.456-.605-1.267-.973-1.28-.558-.02-1.388 1.977-1.639 2.407-2.98 5.119-5.871 10.215-8.962 15.21-.5.807-.888 1.735-1.588 2.407-.489-.205-.616-.752-.871-1.178-3.486-5.827-7.12-11.74-10.601-17.771-.239-.415-.55-1.112-.871-1.126-.718-.033-1.138 1.953-1.587 2.253-.632 1.221-1.347 2.413-2.048 3.636-.709 1.238-1.309 2.678-1.178 4.506.113 1.574.788 3.015 1.69 4.097.893 1.072 2.431 2.152 3.994 2.305.641.062 1.211-.186 1.742.205-.289.402-.877.256-1.281.256-3.405 0-7.015 0-10.499 0-3.523 0-7.003.114-10.498-.051-.371-.018-.946.072-1.23-.257.332-.327.836-.157 1.178-.153 3.122.033 5.517-1.094 7.631-2.253 4.859-2.666 7.375-7.658 10.089-12.547 5.349-9.634 10.883-19.095 16.542-28.73.976-1.661 2.026-3.597 3.124-5.326.398-.627.765-1.3 1.127-1.741.565-.394 1.132 1.073 1.485 1.639 1.172 1.879 2.191 3.898 3.329 5.736 1.659 2.679 3.197 5.213 4.352 7.731zm-17.361-.358c-.752 1.335-1.543 2.644-2.304 3.943-.397.677-.847 1.357-1.024 2.1.738 1.818 1.86 3.46 2.868 5.121 1.024 1.688 1.936 3.422 2.919 5.121 1.71 2.954 3.534 5.944 5.224 8.809.227.385.402.982.922 1.127.717-.352 1.003-1.174 1.383-1.844.805-1.42 1.546-2.626 2.407-4.097.323-.552 1.098-1.561 1.076-2.202-.022-.636-.978-1.893-1.383-2.612-3.161-5.62-6.465-11.002-9.73-16.49-.215-.361-.468-1.158-1.025-1.076-.572.531-.908 1.344-1.333 2.1z" fill-rule="evenodd"/></svg>