<svg enable-background="new 0 0 48.202 48.126" viewBox="0 0 48.202 48.126" xmlns="http://www.w3.org/2000/svg"><path d="m20.638.005c2.285-.014 4.574.005 6.861.004 2.073 4.893 4.249 9.741 6.275 14.653 1.56 3.685 3.024 7.414 4.694 11.052 1.373 3.184 2.738 6.371 4.084 9.567-10.024.018-20.042-.051-30.066-.053 2.638-6.344 5.441-12.617 8.09-18.957 1.187-2.646 2.346-5.307 3.494-7.969 2.945 6.808 5.825 13.642 8.794 20.44-.017.014-.05.041-.067.055-3.529-.015-7.063-.041-10.594-.044.365-.983.736-1.962 1.112-2.94 1.681-.009 3.361.006 5.042-.001-1.428-3.343-2.88-6.682-4.323-10.02-2.4 5.444-4.711 10.929-7.062 16.395 7.027.057 14.055.041 21.082.071-1.133-2.774-2.347-5.531-3.495-8.304-2.911-6.754-5.731-13.549-8.718-20.27-.13-.237-.162-.559-.38-.727-.931-.016-1.863-.003-2.795-.011-1.342 2.844-2.476 5.782-3.737 8.663-3.409 7.628-6.654 15.335-9.985 22.999-1.485 3.479-3.025 6.937-4.498 10.421 1.269-.007 2.539.014 3.808-.005.841-2.127 1.782-4.209 2.675-6.314.029-.11.166-.08.253-.09 1.701.015 3.402-.004 5.103.016 5.299.043 10.603.005 15.903.053 1.547-.044 3.098.03 4.646.004.097.005.219-.019.294.06.885 2.134 1.874 4.224 2.755 6.36 1.241-.013 2.491.027 3.726-.006-.858-2.151-1.867-4.249-2.693-6.407 1.052 0 2.105.011 3.157 0 1.342 3.157 2.775 6.276 4.132 9.427-3.429.004-6.857-.012-10.286-.009-.976-2.115-1.866-4.276-2.747-6.435-3.739-.082-7.488-.013-11.231-.052-3.669-.014-7.338-.026-11.008-.032-.952 2.133-1.839 4.296-2.764 6.443-3.392-.013-6.781.014-10.169-.035 2.597-6.154 5.333-12.248 7.936-18.401 2.357-5.416 4.62-10.873 7.002-16.278 1.939-4.425 3.762-8.897 5.7-13.323z"/></svg>