<svg enable-background="new 0 0 53.938 54.491" viewBox="0 0 53.938 54.491" xmlns="http://www.w3.org/2000/svg"><path d="m.032 18.147c-.069-6.023-.016-12.12.054-18.141 17.947-.016 35.891.005 53.836.001.067 18.172-.102 36.28-.135 54.433-6.012.095-11.979.027-17.992.026-.069-12.105.103-24.19.073-36.29-11.945-.037-23.891.016-35.836-.029z"/><path d="m16.138 19.161c8.418-1.133 16.811 5.213 18.404 13.483 1.035 5.017-.1 10.646-3.527 14.546-3.511 4.387-9.3 6.9-14.902 6.232-8.396-.674-15.439-8.426-15.266-16.855-.29-8.566 6.694-16.687 15.291-17.406z"/></svg>