<svg enable-background="new 0 0 17.95 17.901" viewBox="0 0 17.95 17.901" xmlns="http://www.w3.org/2000/svg"><path d="m.001 0c5.983.01 11.966.005 17.949.002-.002 5.966-.001 11.933-.001 17.899-1.999 0-3.998.001-5.996-.001.002-3.968-.005-7.935.003-11.904-3.983-.007-7.968.002-11.953-.005-.005-1.997-.002-3.994-.002-5.991z"/><path d="m5.432 6.364c1.871-.195 3.815.632 4.968 2.118 1.271 1.566 1.575 3.84.777 5.69-.306.731-.773 1.392-1.35 1.933-1.366 1.3-3.411 1.822-5.236 1.354-1.142-.281-2.194-.927-2.951-1.826-.631-.745-1.077-1.651-1.244-2.615-.386-1.9.334-3.97 1.79-5.245.894-.801 2.048-1.309 3.246-1.409z"/></svg>