<svg enable-background="new 0 0 69.762 70.464" viewBox="0 0 69.762 70.464" xmlns="http://www.w3.org/2000/svg"><g clip-rule="evenodd" fill-rule="evenodd"><path d="m55.13.178c.168 4.446.165 9.293 0 13.703-4.505.2-9.089.151-13.702.151-12.899 0-25.029-.05-38.085-.05-1.086 0-2.188.1-3.225-.151-.233-3.933-.05-8.252-.05-12.191 0-.552-.11-1.136.15-1.612 16.604-.039 34.312 0 51.637 0 1.093-.001 2.211-.122 3.275.15z"/><path d="m69.538.128c.271 1.126.151 2.285.151 3.425.001 15.096-.001 29.325 0 45.289 0 1.184.073 2.361.051 3.526-.021 1.092.048 2.222-.202 3.274-4.233.167-9.167.168-13.4 0-.188-9.18-.151-18.592-.151-27.959.001-8.249 0-16.178 0-24.282 0-1.114-.122-2.243.151-3.325 4.37-.062 9.248-.129 13.4.052z"/><path d="m55.13 28.49c.203 2.152.1 4.421.101 6.7 0 2.268.196 4.662-.101 6.801-4.548.19-9.201.101-13.803.101-13.733 0-27.121.106-41.108-.101-.269-1.021-.15-2.172-.15-3.325 0-2.268 0-4.631 0-6.953 0-1.151-.123-2.307.15-3.325 13.831.108 28.117-.266 41.41 0 4.542.092 9.049-.239 13.501.102z"/><path d="m13.771 42.898c.206 2.176.086 4.471.101 6.801.037 5.654.051 11.445.051 17.279 0 1.12.12 2.262-.151 3.325-4.281.181-9.179.162-13.552 0-.182-7.975-.15-16.064-.15-24.08 0-.924-.129-2.971.201-3.325.037-.047.092-.076.151-.101 4.416.066 9.1-.134 13.349.101z"/><path d="m69.589 56.701c.181 2.123.15 4.511.151 6.851 0 2.348.107 4.71-.151 6.751-6.836.181-13.798.101-20.705.101-11.591 0-22.542.19-34.105-.101-.265-2.074-.101-4.2-.101-6.851 0-1.945-.187-4.158 0-6.247.052-.583.054-.577.504-.655.485-.084 1.083.041 1.713.051 13.213.202 26.216.006 39.394-.051 4.535-.019 9.016-.074 13.3.151z"/></g></svg>