<svg enable-background="new 0 0 70.077 82.583" viewBox="0 0 70.077 82.583" xmlns="http://www.w3.org/2000/svg"><path clip-rule="evenodd" d="m51.327.001c.295.598.144 1.324.104 1.941-.624 9.758-1.444 19.776-1.89 29.544.869.344 1.845.225 2.729.262 2.815.119 5.86-.06 8.239.682 2.852.889 5.167 2.883 6.664 5.195 1.558 2.404 2.545 5.531 2.834 9.026.3 3.62-.399 7.069-1.417 10.232-1.831 5.697-5.673 10.474-11.964 11.807-3.234.685-7.322.367-11.388.367-2.671 0-5.958-.041-8.815 0-.812.012-2.294.1-2.467-.472-.252-.836.529-.916 1.26-1.05 1.841-.337 3.263-1.655 3.673-3.411.34-1.451.368-3.36.473-4.985.109-1.695.191-3.424.315-5.09.258-3.454.607-6.896.524-10.127-1.169-.123-2.148.596-2.938 1.207-2.324 1.798-3.586 4.914-4.354 8.239-.53 2.292-.672 4.876-.893 7.504-.421 5.009-1.052 11.386.84 15.165.966 1.931 2.532 3.056 4.984 3.411 4.119.597 7.299-.898 9.131-3.148.627-.77 1.117-1.621 1.784-2.414.572-.04 1.639-.186 2.047.105-.023.782-.484 1.473-.84 2.099-2.443 4.309-7.232 7.415-14.483 6.245-6.679-1.079-10.815-5.266-12.437-11.754-1.768-7.081-.128-15.203 2.467-20.256 2.774-5.403 7.499-8.657 14.903-9.288.357-.886.279-2.065.367-3.201.086-1.118.258-2.294.105-3.253-1.253-.285-2.678-.158-4.093-.158-1.397 0-2.793-.033-4.094 0-.95.858-1.613 2.01-2.309 3.096-2.056 3.214-4.251 6.375-6.402 9.655-2.097 3.198-4.23 6.487-6.35 9.708-1.179 1.793-2.2 3.274-3.096 5.353-.535 1.242-.875 3.39.053 4.46.375.432 1.082.722 1.784.892.728.176 1.757.237 1.679.944-.066.613-1.116.472-1.941.472-4.81 0-9.231-.052-14.221-.052-.969 0-1.816.088-1.889-.472-.125-.956 2.009-.88 2.781-1.102 4.869-1.397 7.674-5.427 10.285-9.131.541-.768 1.015-1.582 1.522-2.361.517-.796.919-1.624 1.417-2.414 3.003-4.761 6.245-9.266 9.235-14.063.739-1.186 1.507-2.338 2.309-3.516.242-.354.63-.774.525-1.259-.685-.289-1.388-.005-1.941.157-4.225 1.238-6.666 4.282-10.968 5.615-3.349 1.038-6.309.059-8.028-1.574-1.884-1.788-2.998-4.113-2.938-7.504.056-3.26 1.248-5.536 3.096-7.346 1.575-1.544 5.153-3.374 8.081-1.732.847.475 1.647 1.487 1.89 2.414.763 2.926-2.181 6.321-5.195 4.618-.756-.427-1.256-1.81-2.047-1.889-.577-.058-1.204.441-1.574.735-.703.558-1.238 1.318-.892 2.518.467 1.622 2.16 2.717 3.883 3.149 1.972.493 4.149.087 6.087-.368 2.983-.699 5.661-1.239 9.131-1.417 1.089-.056 2.388.139 3.201-.21 1.113-.478 2.241-2.678 2.886-3.726 2.468-4.007 5.396-8.144 7.871-11.964 3.578-5.523 6.957-10.513 10.495-15.953.044-.077.078-.166.21-.157zm-9.604 20.413c-.723.723-1.369 1.825-1.994 2.833-.561.904-1.223 1.809-1.784 2.676-.895 1.383-1.725 2.769-2.624 4.04-.313.444-.768.885-.787 1.47 2.044.249 4.484.153 6.56.052.322-.807.253-1.756.314-2.676.159-2.358.37-4.719.473-7.084.018-.413.213-.959-.106-1.312-.017.001-.034.001-.052.001zm6.401 30.278c-.338 3.912-.646 8.122-.892 11.964-.056.878-.233 1.78-.053 2.414.636 2.226 4.696 1.739 6.56.892 3.342-1.519 4.719-4.254 5.772-7.924 1.962-6.835 2.736-19.837-2.729-23.037-1.628-.953-4.781-.698-7.242-.629-.421.523-.307 1.295-.367 1.994-.194 2.251-.355 4.566-.472 6.769.301.401.677.709 1.102 1.102.36.333.856.838 1.47.787 1.589-.133.784-2.895 1.889-3.411.379-.177.97-.152 1.311.263-.068 2.543-.444 5.909-.682 8.763-.107 1.285.146 3.528-1.522 2.886-.567-.661-.567-1.629-.786-2.466-.385-1.469-1.064-2.787-1.784-3.83-.298-.432-.527-1.084-1.103-1.155-.383 1.463-.333 3.024-.472 4.618z" fill-rule="evenodd"/></svg>