<svg enable-background="new 0 0 24.321 28.391" viewBox="0 0 24.321 28.391" xmlns="http://www.w3.org/2000/svg"><path d="m8.668.067c.24-.127.545-.026.811-.064 3.508 7.991 7.067 15.963 10.734 23.885.813 1.576 1.886 3.338 3.785 3.678.402.002.316.4.314.674-3.898.063-7.805.065-11.698.074.005-.197.006-.394-.004-.589 1.072-.14 2.349-.128 3.102-1.033.613-.822.181-1.854-.149-2.694-2.952-6.51-5.794-13.066-8.731-19.584.665-1.425 1.168-2.924 1.836-4.347z"/><path d="m2.596 14.718c.252-.005.505-.003.757-.004 1.255 2.652 2.436 5.344 3.665 8.01.563 1.352 1.277 2.657 2.249 3.76.627.69 1.531 1.021 2.411 1.251-.052.192.146.628-.174.608-3.826-.014-7.651.06-11.475.046-.022-.198-.031-.397-.027-.597 1.173-.128 2.712-.176 3.307-1.392.284-.757-.068-1.54-.323-2.252-.726-1.659-1.506-3.297-2.217-4.959.546-1.507 1.245-2.97 1.827-4.471z"/></svg>