<svg enable-background="new 0 0 77.045 72.774" viewBox="0 0 77.045 72.774" xmlns="http://www.w3.org/2000/svg"><g clip-rule="evenodd" fill-rule="evenodd"><path d="m76.798 0h.097c.175 6.745.097 13.997.097 20.954 0 2.281.169 4.539-.097 6.696-9.38.176-19.391.106-29.144.048-.016-.459.462-.713.723-.964 4.473-4.308 8.988-8.647 13.584-12.957 2.362-2.215 4.889-4.503 7.274-6.888 1.711-1.712 3.678-3.377 5.491-5.154.644-.632 1.4-1.447 1.975-1.735z"/><path d="m76.895 30.588c.22 10.321.097 20.599.097 31.455 0 3.555.092 7.145-.097 10.598-25.588.141-51.66.246-76.88-.096-.096-.346.287-.544.481-.723 5.009-4.622 10.009-9.473 15.077-14.114 1.766-1.616 3.431-3.352 5.203-4.961 7.102-6.45 13.921-13.225 20.953-19.702.489-.459.929-.841 1.397-1.301.399-.392.912-1.058 1.493-1.204.745-.188 1.708-.048 2.602-.048 9.142 0 18.133-.094 27.071 0 .884.009 1.779-.16 2.603.096z"/></g></svg>