<svg enable-background="new 0 0 44.169 37.646" viewBox="0 0 44.169 37.646" xmlns="http://www.w3.org/2000/svg"><path d="m11.41.169c1.548-.228 3.116-.089 4.673-.147 4.57-.012 9.145-.012 13.717-.016 2.007-.05 4.055.216 5.905 1.03 1.928.776 3.55 2.211 4.716 3.917 1.579 2.162 2.421 4.765 2.952 7.363.627 3.124.788 6.319.763 9.499-.01 5.255.035 10.506.034 15.761-6.676.062-13.359.024-20.034.036-.056-3.964-.012-7.929-.043-11.893-.021-.102-.161-.055-.235-.067-1.326.02-2.655-.034-3.979.031.012 3.976-.007 7.953.029 11.928-6.622.058-13.247.025-19.87.033-.004-5.427-.03-10.851-.036-16.277-.013-3.389.162-6.809.958-10.115.834-3.232 2.213-6.51 4.83-8.703 1.579-1.336 3.589-2.082 5.62-2.38zm-1.337 2.22c-1.411.409-2.716 1.183-3.741 2.238-1.789 1.798-2.801 4.205-3.478 6.612-.878 3.348-1.033 6.833-1.023 10.278.003 4.731.04 9.46.029 14.191 5.4.003 10.806-.007 16.208-.01.015-7.789-.044-15.578-.024-23.369.088-1.991.619-3.974 1.608-5.71 1.062-1.93 2.685-3.506 4.522-4.702-3.12-.013-6.241.009-9.361.001-1.589.004-3.206-.002-4.74.471zm12.777 3.059c-.164.132.095.249.176.343 1.812 1.742 2.808 4.246 2.86 6.744.02 3.724 0 7.45.037 11.172 2.558.006 5.116-.003 7.675-.001.008.646.003 1.293 0 1.939-2.556-.006-5.113.002-7.669.004-.011 3.348.009 6.695.005 10.043 5.446-.025 10.895-.019 16.342-.032.035-4.934-.029-9.877-.011-14.817-.043-4.373-.41-8.878-2.246-12.909-.774-1.704-1.964-3.236-3.511-4.304-1.613-1.14-3.599-1.623-5.55-1.708-3.055-.113-5.994 1.389-8.108 3.526zm-1.253 1.602c-1.121 1.643-1.704 3.627-1.751 5.608-.001 3.689.036 7.374.03 11.063 1.407.013 2.819.025 4.223-.017-.006-3.597-.032-7.189-.034-10.785.034-2.174-.812-4.424-2.468-5.869z"/></svg>