<svg enable-background="new 0 0 73.893 74.728" viewBox="0 0 73.893 74.728" xmlns="http://www.w3.org/2000/svg"><g clip-rule="evenodd" fill-rule="evenodd"><path d="m37.191.001c.306-.028.578.66.785 1.079 2.92 5.914 5.979 11.981 8.93 17.762 2.879 5.982 5.853 11.837 8.881 17.86.203.402.534.979.54 1.226.013.54-.816 1.685-1.128 2.257-2.398 4.395-4.6 8.715-7.017 13.052-.39.698-.602 1.549-1.227 2.11-.546-.624-.858-1.426-1.226-2.159-2.226-4.428-4.461-9.047-6.624-13.542-.354-.736-.631-1.539-1.178-2.159-.461.132-.604.662-.785 1.03-1.34 2.71-2.925 5.473-4.317 8.243-1.192 2.372-2.565 4.655-3.778 7.017-.393.764-.622 1.693-1.325 2.257-.994-1.499-1.474-3.226-2.257-4.809-1.964-3.971-3.699-7.759-5.691-11.874-.333-.688-1.08-1.801-1.08-2.404 0-.561.777-1.695 1.129-2.354 1.224-2.292 2.371-4.708 3.435-6.919.751-1.56 1.593-3.047 2.355-4.563.779-1.551 1.445-3.144 2.208-4.66 2.284-4.543 4.598-9.174 6.918-13.788.81-1.613 1.647-3.24 2.452-4.662z"/><path d="m27.183 57.162c-.07.663-.539 1.149-.785 1.718-.129.296-.161.638-.295.933-.277.613-.675 1.196-.981 1.816-1.515 3.063-3.226 6.09-4.808 9.126-.629 1.205-1.206 2.446-2.012 3.532-5.951-.083-12.487.167-18.302-.147.092-.8.581-1.499.932-2.208 1.037-2.098 2.164-4.241 3.239-6.379 1.434-2.852 2.821-5.739 4.366-8.488 6.002-.059 12.738-.095 18.646.097z"/><path d="m28.458 57.064c5.659.156 11.789-.174 17.517.098-.144.821-.65 1.538-1.03 2.258-2.312 4.364-4.783 8.801-7.065 13.247-.364.709-.656 1.523-1.276 2.062-2.449-4.889-5.097-10.045-7.408-15.26-.29-.653-.893-1.804-.884-2.257.026-.071.076-.12.146-.148z"/><path d="m65.748 57.212c.37.363.399.874.589 1.324.562 1.338 1.261 2.655 1.913 3.975 1.595 3.224 3.155 6.523 4.809 9.814.316.629.779 1.231.834 1.962-5.805.179-12.01.138-17.811.05-1.537-2.758-2.82-5.659-4.22-8.488-.699-1.414-1.471-2.818-2.11-4.269-.641-1.457-1.462-2.853-1.913-4.417 5.724-.121 12.065-.037 17.909.049z"/></g></svg>