<svg enable-background="new 0 0 77.318 66.052" viewBox="0 0 77.318 66.052" xmlns="http://www.w3.org/2000/svg"><path clip-rule="evenodd" d="m42.713 20.79c-.257 1.811-.146 3.693-.146 5.553v5.699c-.001 11.268.152 22.381-.049 33.76-2.224.168-4.814.258-7.015 0-.316-4.393.152-9.57-.244-13.885-.714 1.391-1.026 2.846-1.607 4.141-1.696 3.779-4.927 6.756-8.769 8.477-1.353.607-2.831 1.076-4.433 1.316-5.476.816-10.189-.949-13.348-3.361-2.225-1.701-3.93-3.617-5.212-6.285-1.266-2.635-2.19-5.754-1.802-9.449.525-5.01 3.057-8.51 6.04-11.205 2.222-2.006 4.983-3.535 8.623-4.141 1.999-.332 4.257-.4 6.576-.389 4.538.021 9.397.082 13.883-.098.264-.967.146-2.131.146-3.312 0-7.967.075-16.215-.146-23.82-4.496-.131-9.187-.141-13.64-.098-1.506.014-3.014.207-4.433-.098-.16-.928-.16-2.482 0-3.41 2.202-.35 4.6-.035 7.015-.098 4.61-.121 8.915-.049 13.542-.049 5.94.002 11.695 0 17.78 0 2.181 0 4.178-.111 6.041.049 5.337.461 9.073 3.123 11.837 6.283 2.492 3.094 4.162 6.812 3.946 12.228-.094 2.356-.816 4.586-1.705 6.381-.919 1.855-2.086 3.316-3.361 4.676-2.477 2.643-6.512 4.838-11.204 4.969-5.307.148-9.176-1.252-12.129-3.896-2.472-2.26-4.546-4.797-5.651-8.476-.14-.47-.112-1.076-.535-1.462zm5.456 3.117c.336.568.625 1.201.974 1.705.713 1.029 1.866 2.041 2.972 2.826 2.177 1.545 5.525 2.775 9.061 2.338 6.346-.787 10.546-4.434 11.983-9.986 1.33-5.139-.652-9.498-3.02-12.226-2.432-2.803-5.955-4.822-11.302-4.822-5.063 0-10.895-.072-16.075 0-.342.434-.195 1.074-.195 1.607 0 3.023.002 6.111-.049 9.012-.021 1.18-.081 2.355.195 3.361.956.293 2.626-.127 3.507.242.379 2.382.964 4.281 1.949 5.943zm-24.162 11.156c-2.379 0-4.747-.141-7.063 0-3.065.186-5.536 1.133-7.453 2.582-.792.598-1.52 1.422-2.241 2.191-2.049 2.184-3.781 5.656-3.312 9.986.27 2.5 1.166 4.697 2.436 6.479 1.205 1.689 2.781 3.334 4.677 4.287 1.878.945 4.442 1.748 7.258 1.559 2.65-.178 4.971-.865 6.82-2.094 2.632-1.75 4.886-4.26 5.894-7.502.385-1.238.34-2.486.828-3.654 1.103-.164 2.522.076 3.41-.195.235-.975.147-2.108.147-3.264 0-2.373-.049-4.691-.049-6.965 0-1.164.117-2.332-.146-3.361-3.602-.137-7.416-.049-11.206-.049z" fill-rule="evenodd"/></svg>