<svg enable-background="new 0 0 78.819 61.209" viewBox="0 0 78.819 61.209" xmlns="http://www.w3.org/2000/svg"><g clip-rule="evenodd" fill-rule="evenodd"><path d="m6.872 0c19.034.018 37.155-.004 56.057.1.544.855.744 1.879 1.102 2.805.37.961.685 1.934 1.002 2.906.631 1.934 1.425 3.824 2.054 5.762 1.265 3.891 2.658 7.746 3.958 11.672 1.271 3.84 2.53 7.82 3.856 11.771.976 2.906 1.977 5.877 2.855 8.867.295 1 .736 1.965.952 2.955.218.994.05 2.23.05 3.457.001 3.623.15 7.398-.1 10.721-5.894.236-11.876.148-17.834.15-.89 0-1.905.039-2.654-.051-.599-1.15-.861-2.484-1.253-3.758-.579-1.881-1.233-3.742-1.804-5.66-.198-.666-.293-1.32-.45-2.004-.295-1.279-.762-2.566-1.152-3.807-.788-2.504-1.591-5.037-2.354-7.564-.763-2.525-1.706-4.971-2.455-7.465-1.495-4.98-3.129-9.969-4.859-15.027-1.468-4.295-2.881-8.627-4.357-13.025-.219-.652-.436-1.52-.752-1.703-.601-.35-1.871-.09-2.655.051-2.579.459-4.089 1.924-5.66 3.307-2.101 1.957-3.477 4.475-6.162 5.76-1.824.873-4.338 1.01-6.361.701-4.312-.654-6.712-3.076-8.717-6.012-.999-1.46-1.943-3.063-2.508-4.809.075-.026.127-.075.201-.1z"/><path d="m38.332 61.016c-2.577.266-5.194.15-7.865.15-6.683 0-12.997-.053-19.837-.051-1.264 0-2.898.242-3.907-.051-.524-.15-1.001-.961-1.354-1.402-1.215-1.523-2.259-3.297-3.155-5.109-1.272-2.57-2.087-5.363-2.204-8.766-.12-3.469.939-6.4 2.254-8.717 2.071-3.65 4.662-6.248 7.814-8.666 5.104-3.916 11.38-7.023 18.586-8.867 3.025-.775 6.05-1.639 9.317-2.055.568-.016.444.623.451.953.062 3.184-.063 6.584 0 9.668.219 10.852-.057 21.975-.1 32.913z"/></g></svg>