<svg enable-background="new 0 0 77.269 77.744" viewBox="0 0 77.269 77.744" xmlns="http://www.w3.org/2000/svg"><path clip-rule="evenodd" d="m35.299 2.888c.517.272 1.052.244 1.544.386 1.429.411 2.572 1.272 3.329 2.461.993 1.56 1.284 4 .241 6.031-1.125 2.191-4.628 3.971-7.671 2.364-1.429-.755-2.39-1.973-2.895-3.667-.518-1.736-.309-4.148.434-5.549 1.075-2.027 3.211-3.382 5.742-4.102.817-.232 1.675-.562 2.509-.724 1.022-.198 2.606-.02 3.763.097 5.564.566 10.204 2.28 14.282 4.343 1.624.821 3.107 1.851 4.535 2.895 5.748 4.203 10.319 9.71 13.172 16.646 2.11 5.131 3.581 11.883 2.75 19.155-.252 2.206-.637 4.247-1.206 6.224-3.282 11.396-10.388 19.497-20.265 24.461-3.185 1.601-7.207 3.018-11.387 3.522-4.676.564-9.397.35-13.606-.531-8.085-1.692-14.301-5.699-19.348-10.47-1.257-1.188-2.376-2.617-3.426-4.053-.528-.723-1.05-1.434-1.544-2.171-1.492-2.229-2.618-4.655-3.715-7.479-1.052-2.707-1.811-5.601-2.22-8.927-.402-3.278-.524-7.315.241-10.421.196-.794.652-1.579 1.013-2.364.898-1.954 1.976-3.776 3.233-5.356 1.717-2.095 3.97-3.653 6.514-4.922 7.669-3.604 20.328-2.685 28.804-5.597 2.155-.74 3.882-1.698 5.211-3.377.62-.785 1.234-1.642 1.496-2.799 1.196-5.301-3.293-8.945-8.733-7.575-1.094.279-2.153.662-2.797 1.499zm8.25 12.014c-4.351 2.246-11.143 2.436-13.22 6.851-1.096 2.329-.786 5.953.531 7.72 1.042 1.363 2.615 2.534 4.583 3.039 2.579.663 5.731.265 7.768-.724.324-.157.662-.471 1.013-.724 1.465-1.052 2.511-2.725 2.654-5.018.216-3.487 0-7.876 0-11.436 0-.436.178-1.074-.29-1.351-.986.594-1.979 1.096-3.039 1.643z" fill-rule="evenodd"/></svg>