<svg enable-background="new 0 0 72.622 76.678" viewBox="0 0 72.622 76.678" xmlns="http://www.w3.org/2000/svg"><path clip-rule="evenodd" d="m8.215 29.62c-1.228.178-2.711.099-4.156.099-1.416 0-2.949.151-4.059-.198.524-4.631 2.31-8.441 4.306-11.777 2.021-3.376 4.565-6.247 7.472-8.709 6.019-5.016 13.014-8.51 23.504-9.006 4.641-.219 8.845.811 12.52 1.979 3.715 1.182 6.897 2.823 9.648 4.85 5.476 4.033 9.514 9.978 12.173 16.824.665 1.712 1.159 3.626 1.682 5.591 1.488 5.587 1.867 13.409.347 19.496-.969 3.878-2.331 7.326-4.156 10.342-1.821 3.01-4.087 5.566-6.531 7.967-6.032 5.248-14.046 9.599-25.187 9.6-11.278 0-18.765-4.715-24.741-10.045-1.86-1.861-3.759-3.964-5.196-6.433-1.401-2.408-2.752-5.057-3.562-8.017-.855-3.121-.829-7.183.197-10.144 1.959-5.652 6.07-9.546 11.481-11.728 2.679-1.081 6.301-1.519 9.945-1.633 7.264-.228 14.608 2.301 21.179 0 2.776-.973 5.073-3.024 6.185-5.443.633-1.376 1.053-3.004.94-4.849-.104-1.704-.673-3.118-1.484-4.305-2.974-4.349-9.756-6.176-17.27-5.591-3.725.29-6.797.929-9.55 2.078-2.675 1.116-5.007 2.695-7.125 4.453-3.679 3.053-6.275 7.255-7.868 12.42-.218.703-.315 1.485-.694 2.179zm50.719-7.076c-.163.557-.245 1.276-.346 1.831-.8 4.394-2.736 7.069-5.493 9.5-3.189 2.813-7.278 3.859-13.212 3.859-5.171 0-10.165-1.534-15.587-1.534-5.345 0-9.456 1.808-12.222 4.948-1.112 1.211-1.935 3.025-2.226 5.097-.098.695-.278 1.53.098 2.178.519-1.196.847-2.315 1.436-3.315 1.799-3.06 4.302-5.191 8.114-6.235 5.31-1.454 11.6.147 17.418.544 3.163.216 6.221.386 8.956-.099 3.993-.708 7.162-2.355 9.353-4.948 2.354-2.787 4.546-6.929 3.909-11.875-.05 0-.059-.041-.099-.05-.003-.03-.008-.058-.05-.049-.003.063-.063.068-.049.148zm-40.674 28.106c1.413-1.515 3.231-2.483 5.492-2.92 2.388-.461 5.104-.086 7.67.247 4.913.639 10.182 1.6 15.29.94 4.799-.62 8.478-2.881 11.281-5.542 1.422-1.35 2.864-2.918 3.712-4.701.606-1.276 1.191-2.388 1.385-4.058-.254-.032-.133.072-.197.148-.589.699-.741 1.568-1.139 2.375-.322.657-.86 1.396-1.336 2.029-1.454 1.935-3.396 3.551-5.394 4.8-2.892 1.808-6.072 2.993-10.342 3.216-2.034.106-4.183-.037-6.383-.297-2.058-.243-4.163-.368-6.136-.643-3.834-.535-8.757-1.088-11.876.692-1.797 1.037-3.56 2.485-4.552 4.503-.696 1.416-1.216 3.615-.842 5.74.102.575.258 1.244.693 1.583-.408-3.783.859-6.167 2.674-8.112zm43.345-1.435c-3.522 3.523-7.851 6.336-14.053 7.225-3.473.498-7.852.204-11.232-.198-1.614-.192-3.457-.551-5.344-.742-1.844-.187-4.005-.312-5.443.347-2.422 1.107-3.988 4.606-2.474 7.769 1.18 2.465 4.138 3.86 7.175 4.404 8.883 1.588 16.703-1.029 22.02-4.404 2.777-1.764 5.149-3.989 6.977-6.68 1.393-2.053 2.417-4.371 3.365-6.878.308-.814.758-1.692.643-2.622-.032 0-.065 0-.099 0-.676.477-1 1.246-1.535 1.779z" fill-rule="evenodd"/></svg>