<svg enable-background="new 0 0 17.707 17.918" viewBox="0 0 17.707 17.918" xmlns="http://www.w3.org/2000/svg"><path d="m13.155.031c.315-.05.636-.023.953-.026 1.461.109 2.846 1.077 3.382 2.452.147.405.233.837.214 1.269-.001 3.511-.002 7.021.001 10.531-.007 1.316-.803 2.581-1.976 3.172-.536.278-1.139.409-1.74.432-.499-.032-1.005-.104-1.462-.32-.925-.378-1.666-1.168-2.011-2.103-.205-.541-.238-1.126-.229-1.698.001-2.899-.001-5.799.001-8.698.015-.36-.206-.728-.561-.83-.324-.083-.7-.042-.959.184-.184.158-.255.41-.269.645.001 2.975 0 5.951.001 8.927-.015.881-.337 1.749-.878 2.442-.31.342-.639.676-1.045.902-.562.335-1.202.53-1.851.6-.308.009-.617.006-.926.001-1.035-.115-2.034-.604-2.728-1.385-.773-.853-1.182-2.042-1.046-3.19.057-.604.302-1.172.591-1.698.563-1.051 1.462-1.854 2.288-2.693.364-.301.686-.648 1.021-.98.908-.866 1.763-1.789 2.687-2.637.512-.48 1-.985 1.502-1.477.575-.488 1.073-1.061 1.65-1.548.41-.412.853-.788 1.291-1.171.585-.541 1.291-1.002 2.099-1.103z"/></svg>