<svg clip-rule="evenodd" fill-rule="evenodd" stroke-linejoin="round" stroke-miterlimit="2" viewBox="0 0 560 400" xmlns="http://www.w3.org/2000/svg"><path d="m457.9 0c-30.1 0-51.3 6.8-72.8 23.5l-5.4 3.7s-5.7 4.6-25.1 21.9c-34.6 31-114 107.9-289.9 284.7 0 0-22.6 22.9-35.7 43.5-16 25.2-29 53.3-29 85.5 0 77.6 62.9 140.5 140.5 140.5s141.2-54.4 141.2-140.5v-292.6c0-20.4 14.2-30.4 31-30.4 20 0 29 15.4 29 30.4v307.5c0 67.8 54.9 122.7 122.7 122.7s122.7-55 122.7-122.7v-356.3c.1-64.1-59.3-121.4-129.2-121.4z" fill-rule="nonzero" transform="matrix(.447539 0 0 .447539 148.625 65)"/></svg>