<svg enable-background="new 0 0 82.844 71.728" viewBox="0 0 82.844 71.728" xmlns="http://www.w3.org/2000/svg"><path clip-rule="evenodd" d="m52.44.034c.784 1.396 1.276 2.933 1.871 4.418 2.954 7.37 6.011 14.899 8.991 22.348 1.193 2.982 2.295 6.012 3.586 8.939 5.15.189 10.767-.031 15.955.208.018.817-.417 1.556-.675 2.287-1.826 5.179-3.782 10.413-5.665 15.592-1.081 2.974-2.109 5.989-3.223 8.939-1.114 2.953-1.884 6.019-3.274 8.835-7.463.063-15.227.12-22.712 0-.512-.343-.625-1.033-.831-1.56-1.073-2.738-2.311-5.656-3.326-8.472-.409-1.133-.756-2.296-1.403-3.273-.459.386-.616 1.02-.832 1.559-.663 1.66-1.332 3.345-1.975 5.041-.863 2.28-1.65 4.606-2.703 6.705-7.477.206-14.951.116-22.451.052-.602-.554-.7-1.413-.988-2.131-4.097-10.219-8.086-20.824-12.109-31.183-.282-.724-.66-1.48-.676-2.288 5.208-.249 10.91-.004 16.216-.155.701-1.432 1.173-2.974 1.715-4.47 3.245-8.95 6.525-18.016 9.875-26.974.547-1.463.938-3.027 1.768-4.366 7.523-.079 15.275-.118 22.866-.051zm-11.122 14.656c-.414.714-.711 1.713-1.039 2.599-1.637 4.421-3.464 8.76-5.094 13.098-.67 1.783-1.513 3.493-1.923 5.352 5.123.254 11.203.223 16.475 0-.134-.964-.558-1.861-.883-2.754-1.929-5.302-4.173-10.628-6.185-15.851-.333-.864-.572-1.8-1.144-2.547-.003-.032-.008-.062-.052-.053-.074.029-.125.082-.155.156zm9.772 21.205c-.3.016-.69-.071-.937.104.476 1.849 1.28 3.589 1.976 5.353 1.755 4.453 3.369 8.908 5.093 13.305.351.892.663 1.831 1.195 2.495.672-.687.812-1.69 1.144-2.547 2.049-5.284 4.194-10.682 6.185-15.955.336-.891.837-1.78.884-2.755-5.149.094-10.525-.264-15.54 0zm-34.198.052c-.139.001-.297-.019-.364.053.026.963.544 1.817.884 2.702 2.239 5.824 4.463 11.653 6.704 17.358.161.41.248.951.676 1.195.482-.375.523-1.023.728-1.559 1.476-3.876 3.204-7.745 4.418-11.746.403-1.328.993-2.662 1.507-3.95.526-1.317 1.14-2.619 1.403-4.001-5.303-.214-10.697-.077-15.956-.052z" fill-rule="evenodd"/></svg>