<svg fill="none" viewBox="0 0 130 214" xmlns="http://www.w3.org/2000/svg"><path clip-rule="evenodd" d="m104.508.351241c-8.7483 1.101289-16.9353 4.933939-22.5818 10.570659-3.2206 3.2158-14.6751 18.1376-14.6751 19.1178 0 .2444 16.567 9.5284 17.0031 9.5284.1218 0 .9139-1.0194 1.76-2.2653 2.0508-3.0187 6.4052-7.5464 10.2161-10.6213 1.7057-1.3765 3.1501-2.4539 3.2096-2.3945.193.193-3.0499 8.8011-4.0979 10.8775-.5601 1.11-1.886 3.3548-2.9464 4.9878l-1.9278 2.9699 8.1146 4.501 8.1146 4.5013.924-1.1714c3.97-5.0301 10.748-17.8305 12.268-23.1692 2.164-7.6015 2.268-17.7171.256-25.14936-.471-1.741647-.515-1.760361-5.371-2.316325-3.79-.434128-6.627-.424955-10.266.033026zm-73.3428 35.150059-2.1326.2136-.1072 8.2569c-.1138 8.7721-.4651 11.9996-1.9128 17.5692-2.7992 10.7713-10.8837 19.142-23.48389 24.3152-3.697047 1.5182-3.746964 1.5549-3.382104 2.4888.20372.5215 1.164684 3.0947 2.135564 5.7185.97088 2.6239 1.87496 5.0437 2.00894 5.3773.21473.535.55867.4609 2.91557-.6279 5.06292-2.3387 8.68142-3.1901 13.61102-3.2033 3.8042-.0103 4.7667.1159 7.0597.9255 1.4602.5156 3.4122 1.3813 4.338 1.9237 1.9924 1.1673 6.6508 5.4712 6.9532 6.4232.2085.656-.8692 2.373-19.3897 30.9-3.3652 5.184-6.1189 9.519-6.1189 9.633 0 .115 7.9285.208 17.619.208 9.6904 0 17.619.133 17.619.296 0 1.035-1.5824 8.507-2.3852 11.264-2.2248 7.64-6.134 15.807-11.1943 23.388-3.1887 4.777-8.0306 10.788-8.9853 11.154-.2658.102-3.2503-1.321-6.6325-3.164-5.7346-3.124-6.2191-3.32-7.1958-2.915-.576.238-1.0473.471-1.0473.518 0 .184 15.1542 27.551 15.4119 27.833.1508.165 12.686-5.905 27.856-13.489l27.581-13.788 2.4747 1.777c1.3611.978 5.9975 4.219 10.3031 7.204l7.8287 5.427-7.2781 4.833c-6.1699 4.097-7.2954 4.984-7.3937 5.826l-.1164.992h20.9372 20.938l-5.802-11.651c-9.972-20.027-13.905-28.156-13.753-28.427.081-.144 2.928-1.63 6.328-3.303l6.182-3.041.426-3.303c.234-1.816.517-3.921.627-4.679l.202-1.376-2.143-.002c-1.178-.001-3.755-.108-5.726-.239l-3.585-.237.205-1.871c.113-1.029.288-2.558.39-3.399l.186-1.528 5.671.207 5.672.207v-4.091-4.093h-5.506-5.506v-3.669-3.67h5.655 5.655l-.198-4.495c-.109-2.473-.219-4.526-.246-4.562-.026-.036-2.49.107-5.475.319-2.985.211-5.5.311-5.59.221-.18-.18-.875-7.752-.726-7.918.051-.057 2.593-.206 5.648-.332 3.646-.15 5.552-.366 5.548-.629-.015-.805-1.034-7.619-1.154-7.717-.068-.055-2.106.113-4.529.375-7.232.78-6.609.968-7.121-2.143-.241-1.463-.526-3.011-.633-3.44-.188-.754-.014-.795 5.354-1.249 3.051-.259 5.598-.569 5.661-.689.094-.18-1.563-7.4067-1.748-7.625-.032-.0371-2.284.4117-5.006.9978-2.722.5864-5.222 1.0708-5.556 1.077-.434.0077-.818-.6936-1.349-2.466-1.254-4.1835-1.56-3.7494 3.424-4.858 6.968-1.5497 6.416-1.3244 6.074-2.4819-.485-1.6366-2.617-6.8546-2.934-7.182-.161-.1658-2.294.7013-4.739 1.9266-2.446 1.2257-4.663 2.2283-4.929 2.2283-.497 0-3.482-5.7112-3.155-6.0374.1-.1002 2.278-1.1732 4.841-2.3839 2.562-1.2106 4.659-2.3651 4.659-2.5651s-.757-1.6096-1.682-3.1325c-1.069-1.7611-1.837-2.6749-2.111-2.5108-.236.1416-2.312 1.6469-4.614 3.3449-3.139 2.316-4.2556 2.963-4.4693 2.5897-.1567-.2737-.9576-1.3945-1.7798-2.4906-.8223-1.0958-1.4951-2.1255-1.4951-2.2877s1.8996-1.7215 4.2212-3.465c2.322-1.7434 4.221-3.3016 4.221-3.4623 0-.4213-4.0642-5.1222-4.4287-5.1222-.1678 0-1.8937 1.775-3.8358 3.9449-1.9418 2.1699-3.6607 3.945-3.82 3.945-.159 0-1.3835-1.0235-2.7207-2.2742l-2.4314-2.2741 3.7033-4.0745c3.5399-3.8947 3.6761-4.1046 3.0811-4.7622-.6637-.7332-4.919-3.6793-5.3143-3.6793-.1296 0-1.6048 1.9938-3.2786 4.4305-2.3426 3.411-3.1832 4.3773-3.6531 4.1985-1.9898-.7574-5.1851-2.8491-4.9465-3.2385.1472-.24 1.4723-2.3215 2.9446-4.6249 1.4723-2.3039 2.6766-4.2907 2.6766-4.4151s-.454-.4114-1.0094-.6374c-.5554-.2265-2.3672-.9982-4.0267-1.7149-1.6591-.7171-3.0862-1.1875-3.1714-1.0455-.0848.142-.8508 2.4877-1.7024 5.2125s-1.6144 5.0242-1.6948 5.1097c-.0807.0855-1.386-.233-2.9009-.7083-2.2222-.6965-2.7158-.9831-2.5573-1.4836.1083-.3409.6644-2.803 1.2352-5.4708.7062-3.2991.9088-4.8929.6328-4.9832-1.4638-.4781-7.2234-1.5192-7.3324-1.3251-.0734.1306-.4321 2.6066-.7969 5.5027l-.6633 5.2654-2.4134-.2349c-3.4515-.3358-4.4331-.5706-4.4261-1.0587.0033-.2363.3216-2.6573.7077-5.3798.3858-2.7226.6369-5.0147.5576-5.0936-.0789-.0793-2.0493-.2279-4.3783-.3306l-4.2345-.1868v5.5559 5.5556h-3.487-3.4871v-5.5046-5.5045l-1.5601.0616c-.8578.0341-2.5198.1578-3.6926.2752zm14.8132 82.8327c1.1188 3.308 2.6902 10.026 2.4108 10.306-.2187.218-16.469 3.071-16.8008 2.949-.2382-.088 1.7553-2.894 9.5594-13.456 3.4945-4.73 3.159-4.744 4.8306.201z" fill="#000" fill-rule="evenodd"/></svg>