<svg enable-background="new 0 0 36.184 31.957" viewBox="0 0 36.184 31.957" xmlns="http://www.w3.org/2000/svg"><path d="m18.106.061c.415-.204.938.136.956.59-.052 10.173-.081 20.358-.165 30.535.166.87-1.279 1.091-1.349.207.008-10.224.099-20.449.139-30.672-.013-.281.155-.558.419-.66z"/><path d="m15.937.756c.595-.075 1.028.692.595 1.142-5.028 7.576-10.2 15.055-15.264 22.608-.471.682-1.608-.042-1.169-.752 4.963-7.417 10.031-14.761 14.997-22.174.228-.315.395-.782.841-.824z"/><path d="m20.473.808c.314-.147.672.027.843.305 1.738 2.658 3.495 5.306 5.25 7.954 3.303 4.783 6.289 9.774 9.461 14.644.327.398.115 1.06-.41 1.136-.524.087-.797-.444-1.028-.815-4.607-7.505-9.593-14.761-14.423-22.121-.284-.351-.141-.968.307-1.103z"/><path d="m15.658 20.04c.503-.227 1.137.328.922.851-.123.423-.62.487-.975.618-4.122 1.281-8.229 2.618-12.368 3.838-.783.214-1.149-1.036-.401-1.3 4.267-1.356 8.549-2.669 12.822-4.007z"/><path d="m20.407 20.036c.219-.087.45-.006.662.06 4.124 1.352 8.288 2.591 12.385 4.024.76.3.285 1.603-.5 1.27-4.163-1.382-8.356-2.674-12.527-4.033-.623-.164-.638-1.146-.02-1.321z"/><path d="m.706 25.765c.405-.044.78.15 1.162.247 4.768 1.469 9.601 2.706 14.35 4.237.726.29.297 1.483-.448 1.289-5.005-1.477-9.996-3.019-15.026-4.404-.75-.077-.769-1.253-.038-1.369z"/><path d="m35.226 25.841c.833-.221 1.123 1.16.307 1.337-4.983 1.436-9.947 2.956-14.937 4.372-.824.143-1.016-1.181-.235-1.364 4.947-1.481 9.932-2.814 14.865-4.345z"/></svg>