<svg enable-background="new 0 0 81.288 82.475" viewBox="0 0 81.288 82.475" xmlns="http://www.w3.org/2000/svg"><g clip-rule="evenodd" fill-rule="evenodd"><path d="m11.586.122c.023.046.045.093.104.103.09 5.804.104 11.464.104 17.142 0 5.745-.283 11.421-.053 17.193.111 2.756-.059 5.635 0 8.493.029 1.371-.022 2.784 0 4.194.023 1.427-.011 2.847.053 4.194.066 1.432-.121 2.875-.053 4.351.182 3.877-.6 9.214 1.088 12.015 1.228 2.038 3.039 2.641 6.37 2.641 8.622.001 17.718.052 26.618.053 11.82 0 23.879-.215 35.268 0 .01.041.051.051.051.103.143 3.593.174 7.91 0 11.652-1.625.312-3.312.137-4.971.103-4.992-.099-10.088.051-15.227.052-13.553.003-27.553.05-41.17.052-1.838 0-3.543.078-5.023-.155-4.371-.691-7.543-2.543-10.098-5.334-2.413-2.636-4.443-6.174-4.558-10.979-.2-8.38.001-17.259 0-25.583-.001-12.178-.054-23.469-.052-35.577 0-1.249.017-2.462.052-3.728.009-.347-.126-.789.207-1.037 3.636-.063 7.735-.141 11.29.052z"/><path d="m81.084 58.641c-19.133.131-38.574.26-57.795.052-.205-1.37-.104-2.823-.104-4.247 0-10.074-.151-20.552.052-30.45 1.321-.243 2.702-.107 4.091-.155 1.375-.048 2.777.052 4.195.052 8.535-.002 17.785-.188 26.463.052.166 1.827.15 3.796.104 5.748-.047 1.925.266 3.976-.104 5.749-7.359.287-15.381-.088-22.734.206-.273.792-.156 1.733-.156 2.642 0 2.668-.084 5.739.105 8.285 1.279.281 2.742.156 4.246.156 4.148 0 8.49-.052 12.791-.052 5.822-.001 11.607.097 17.193-.155.215-8.201.104-16.743.104-25.272 0-1.737.121-3.453-.26-4.816-.731-2.619-2.736-4.234-5.645-4.557-1.621-.18-3.367-.052-5.074-.052-10.17-.001-20.471.053-30.4.052-1.643 0-3.305.118-4.919-.155-.173-3.576-.171-7.869 0-11.445 2.649-.266 5.388-.103 8.183-.103 6.949 0 14.215-.05 21.336-.052 3.262-.001 6.357.001 9.477 0 1.734 0 3.451-.06 5.023.207 2.77.473 5.279 1.801 7.146 3.314 3.73 3.023 6.783 7.364 6.785 14.086 0 3.436-.002 6.975 0 10.461 0 3.416-.232 6.829 0 10.099.229 3.243-.002 6.728 0 10.15 0 3.392.153 6.807-.103 10.2z"/></g></svg>