<svg enable-background="new 0 0 83.614 84.159" viewBox="0 0 83.614 84.159" xmlns="http://www.w3.org/2000/svg"><path clip-rule="evenodd" d="m42.51 1.43c-.366.674-.189 1.474-.206 2.219-.091 3.757-.306 7.877.052 11.508.142 1.442.379 2.83.619 4.181.728 4.101 2.078 7.509 3.251 11.199.192.602.401 1.203.62 1.806.22.609.326 1.227.516 1.858.264.876.782 1.797 1.188 2.684 1.213 2.659 2.364 5.301 3.664 7.896 1.692 3.382 3.328 6.952 4.541 10.837 1.697 5.435 2.629 13.728 1.238 20.386-.186.888-.527 1.949-.877 2.993-.313.937-.642 2.248-1.29 2.735-.383.287-1.286.466-2.013.671-4.676 1.318-10.671 2.225-16.67 1.496-5.373-.653-10.304-2.168-14.398-4.284-.611-.316-1.535-.712-1.548-1.084-.018-.489 1.35-1.201 1.651-1.445.639-.517 1.077-.961 1.6-1.445 7.393-7.723 12.236-18.338 13.006-32.772.197-3.732.116-7.39-.104-11.044-.225-3.714-.315-7.386 0-11.044.447-5.208 1.423-10.017 2.838-14.347.475-1.454 1.043-2.875 1.188-4.387-.583.413-.893 1.112-1.238 1.703-2.572 4.385-5.213 8.89-7.793 13.367-1.471 2.55-3.001 5.12-4.387 7.741-2.794 5.284-5.809 10.2-8.877 15.328-4.143 6.925-8.086 13.968-12.231 21.057-.311.531-.843 1.754-1.239 1.754-.425 0-1.036-1.78-1.238-2.167-1.186-2.273-2.082-4.762-2.838-7.329-1.025-3.472-1.705-7.636-1.498-11.972.203-4.258.913-8.129 1.961-11.611 1.044-3.468 2.32-6.867 3.974-9.599 3.352-5.539 7.932-10.095 13.47-13.676 2.807-1.815 5.839-3.246 9.134-4.438 2.533-.916 5.272-1.538 8.309-1.91 1.044-.128 2.224-.207 3.303-.258 4.539-.215 8.693.539 12.438 1.548 5.623 1.515 10.056 3.965 14.089 6.915 1.34.981 2.426 2.142 3.664 3.303 2.412 2.263 4.652 4.734 6.451 7.535 3.598 5.604 6.474 12.077 6.76 21.211.255 8.106-1.556 14.805-4.283 20.23-.207.413-.884 2.1-1.342 2.116-.312.011-.819-.906-1.135-1.497-3.361-6.281-7.149-12.174-10.58-18.373-3.752-6.778-7.582-13.393-11.561-20.024-1.974-3.29-3.82-6.67-5.779-10.012-.33-.563-.696-1.081-.981-1.652-.294-.588-.487-1.23-.774-1.857-.316-.693-.779-1.345-1.135-2.065-.859-1.737-1.815-3.448-2.787-5.161-.168-.295-.312-.762-.723-.824z" fill-rule="evenodd"/></svg>