<svg enable-background="new 0 0 69.379 74.914" viewBox="0 0 69.379 74.914" xmlns="http://www.w3.org/2000/svg"><g clip-rule="evenodd" fill-rule="evenodd"><path d="m37.361.245c-.298.457-1.301.643-1.88.94-2.271 1.164-3.842 3.843-4.8 6.631-.472 1.375-1.201 2.645-1.732 4.008-.533 1.367-1.149 2.694-1.683 4.008-2.226 5.483-4.28 10.98-6.482 16.379-2.202 5.396-4.215 10.921-6.482 16.378-1.629 3.923-3.272 8.083-4.948 12.173-.931 2.272-1.292 4.708-.594 7.225.215.776.6 1.442.742 2.177-1.495.662-3.23-.381-4.651-.297-2.798-1.524-4.918-4.228-4.849-8.511.044-2.739 1.433-5.177 2.276-7.472.894-2.432 1.882-4.711 2.771-6.928 5.074-12.659 10.08-25.627 15.142-38.299.462-1.158.88-2.352 1.435-3.414 1.48-2.836 4.095-4.984 8.066-5.196 2.48-.132 5.41.043 7.669.198z"/><path d="m56.906 73.429c.146-.506.651-.751.99-1.089 1.66-1.66 3.147-4.023 2.821-7.769-.202-2.312-1.578-5.021-2.425-7.324-1.384-3.76-2.69-6.997-4.008-10.638-1.25-3.453-2.774-6.974-4.107-10.441-1.833-4.769-3.628-9.463-5.492-14.003-1.428-3.478-2.634-6.984-4.107-10.49-.475-1.13-1.041-2.231-1.484-3.365-.33-.843-.521-1.657-.841-2.425-.311-.742-.673-1.462-1.139-2.127-.359-.515-1.036-.986-1.187-1.633.825-1.019 2.549-1.266 4.206-1.485.208-.006.237-.191.445-.197.037-.046.09-.075.149-.1 2.968.167 5.501 2.2 6.779 4.207.729 1.147 1.134 2.45 1.681 3.76 2.709 6.492 5.002 12.867 7.719 19.496 2.117 5.165 4.038 10.49 6.086 15.685 1.516 3.845 2.941 7.871 4.503 11.826.255.648.511 1.325.742 1.98.466 1.316 1.095 2.889 1.138 4.602.09 3.606-1.901 6.455-4.058 7.967-1.211.849-2.664 1.28-4.107 1.881-1.451.603-2.89 1.263-4.304 1.682z"/><path d="m35.778 14.594c.387.556 1.13.638 1.682.891 2.461 1.13 4.455 3.308 4.701 6.681.181 2.482-.064 5.251-.049 8.016.017 3.051-.131 6.148-.148 9.006-.005.768-.045 1.675.049 2.425.075.594.473 1.395.742 2.128.743 2.017 1.62 4.136 2.425 6.036 2.309 5.453 4.015 11.028 6.383 16.28.878 1.947 2.185 3.471 4.008 4.503.597.338 1.258.532 1.88.939-.15.84-.922 1.058-1.336 1.633-.195.246.214.516-.05.693-1.587.646-3.074 1.1-4.998 1.089-3.809-.021-6.098-2.187-7.571-4.603-.767-1.258-1.211-2.795-1.781-4.305-1.626-4.307-3.363-8.841-5.047-13.212-.282-.732-.591-1.47-.89-2.177-.29-.685-.432-1.51-1.04-1.979-.668.588-.854 1.52-1.188 2.325-2.324 5.633-4.731 11.673-7.076 17.319-1.343 3.232-3.894 5.745-7.769 6.186-3.296.374-5.724-1.099-8.214-2.079-.398-.156-.789-.361-1.188-.544-.371-.17-.865-.257-1.088-.643.428-.188.993-.061 1.583-.1 3.424-.225 5.827-2.116 7.274-4.503.722-1.19 1.248-2.654 1.831-4.058 2.58-6.211 4.885-12.601 7.571-18.853.307-.715.654-1.471.791-2.128.148-.704.081-1.532.049-2.375-.09-2.469.099-5.215.099-7.769 0-1.734.06-3.52 0-5.245-.06-1.742-.149-3.482.099-4.998.328-2.006 1.396-3.716 2.721-4.75.97-.756 2.393-1.056 3.513-1.731-.302-.564-.912-.627-1.335-.94-.781-.578-1.507-1.438-1.732-2.523-.61-2.943 1.325-4.948 3.563-5.295 3.25-.504 5.527 2.846 4.305 5.987-.276.71-.748 1.272-1.286 1.683-.444.34-1.063.477-1.483.99z"/></g></svg>