<svg enable-background="new 0 0 76.991 58.165" viewBox="0 0 76.991 58.165" xmlns="http://www.w3.org/2000/svg"><g clip-rule="evenodd" fill-rule="evenodd"><path d="m38.623 0c.558.245 1.214 1.609 1.583 2.177 1.025 1.576 1.937 2.935 2.87 4.552.46.797.826 1.611 1.287 2.375 1.892 3.135 4.005 6.028 5.74 9.006 3.229 5.298 6.841 10.436 10.094 15.735.446.726.892 1.544 1.583 2.078 1.607-.419 3.119-.61 4.651-.544 1.567.068 2.937.584 4.107 1.138 2.404 1.14 4.226 2.941 5.344 5.196 1.213 2.447 1.506 6.08.495 8.758-.939 2.489-2.601 4.534-4.651 5.889-2.223 1.468-5.3 2.205-8.461 1.583-2.74-.539-4.967-2.105-6.532-4.008-1.661-2.021-2.627-4.452-2.474-8.066.103-2.424.979-4.305 2.128-5.789.317-.41 1.034-1.109 1.039-1.583.005-.519-.739-1.418-1.088-1.979-1.162-1.864-2.459-3.718-3.563-5.542-2.356-3.893-4.722-7.292-7.076-11.133-.784-1.278-1.655-2.498-2.276-3.81-.624-1.315-1.498-2.569-2.276-3.811-.384-.612-.788-1.219-1.188-1.83-.383-.587-.693-1.328-1.336-1.682-.654.386-.952 1.128-1.336 1.732-2.719 4.275-5.604 8.731-8.412 13.014-2.724 4.431-5.559 8.541-8.362 13.063-.325.523-1.126 1.372-1.138 1.88-.012.493.81 1.193 1.089 1.584 1.081 1.516 1.835 3.423 2.078 5.79.336 3.271-.958 6.047-2.474 7.917-1.498 1.847-3.764 3.541-6.383 4.107-3.213.695-6.378-.076-8.511-1.484-2.009-1.327-3.731-3.48-4.553-5.938-2.081-6.221 1.385-11.968 5.74-13.954 1.862-.85 4.057-1.37 6.581-.99.614.093 1.514.554 2.177.445.513-.084 1.226-1.458 1.633-2.078 3.401-5.186 6.816-10.562 10.144-15.686 2.92-4.497 5.608-9.057 8.61-13.558.465-.697.96-1.497 1.484-2.227.553-.77.971-1.616 1.484-2.227.065-.019.078-.088.149-.1z"/><path d="m43.571 23.158c.026.848-.434 1.545-.792 2.177-.884 1.56-1.889 3.058-2.821 4.602-.173.288-.276.711-.643.841-.358-.469-.211-1.208-.198-1.88.028-1.394 0-2.895 0-4.355 0-.676.143-1.43-.198-1.93-.724.115-1.1.754-1.534 1.188-.454.454-.963.852-1.386 1.336-1.395 1.326-2.761 2.684-4.157 4.008-1.051.998-2.097 1.956-3.117 3.018-.323.337-.812.59-.94 1.089.203.321.666.198.99.198h5.69c.729 0 1.523-.139 2.079.198-.314.66-1.226.921-1.88 1.287-.689.385-1.338.823-2.029 1.138-1.356.739-2.595 1.595-4.107 2.177-.703-.592-.937-1.693-1.138-2.721-.877-4.481.794-7.919 3.117-10.292 1.668-1.704 4.012-3.093 6.729-3.315 2.447-.201 4.868.185 6.335 1.236z"/><path d="m44.561 23.85c.965.332 2.021 1.406 2.721 2.276.234.291.652.697.644.99-.018.589-1.268 1.045-1.781 1.336-.727.412-1.415.746-1.979 1.088-.625.38-1.241.837-1.88 1.188-.691.379-1.378.858-2.078.891.032-.649.503-1.19.841-1.732.655-1.051 1.351-2.196 1.979-3.315.538-.961.736-2.055 1.533-2.722z"/><path d="m37.782 24.642c.402.238.248.832.248 1.237 0 1.364-.048 2.874-.049 4.256-.001.857.207 1.788-.099 2.474-1.85.179-4.197.1-6.284.099-.692 0-1.415.128-1.93-.198.445-.845 1.278-1.377 1.93-2.029 1.927-1.927 4.008-3.797 5.987-5.74.036-.046.09-.075.149-.099z"/><path d="m49.608 32.608c-1.681.291-3.651.121-5.492.099-1.119-.013-2.266.197-3.216-.099.027-.403.486-.512.792-.692 1.448-.857 2.995-1.81 4.552-2.672.683-.378 1.339-.863 1.979-1.089.597-.21.983 1.458 1.138 1.979.248.836.48 1.777.247 2.474z"/><path d="m40.701 33.499h4.553c1.531 0 3.084-.117 4.404.148.244 1.287-.234 2.738-.693 3.811-.125.294-.277.873-.594.94-.359.077-1.107-.417-1.484-.643-1.313-.786-2.721-1.508-3.811-2.425-.502-.16-.91-.526-1.385-.792-.413-.23-1.104-.341-1.188-.94.073-.025.125-.073.198-.099z"/><path d="m36.742 34.687h.198c.185.394-.206.731-.396 1.039-1.023 1.65-1.961 3.275-3.019 4.998-.286.467-.796 1.791-1.336 1.831-.534.04-1.511-1.013-1.831-1.336-.265-.268-.532-.629-.792-.94-.219-.262-.63-.707-.544-1.138.09-.454 1.31-.899 1.831-1.188 1.974-1.091 3.999-2.326 5.889-3.266z"/><path d="m40.256 34.786c.959.218 2.093 1.096 2.969 1.682.89.596 1.71 1.132 2.82 1.732.541.292 1.682.768 1.732 1.237.062.59-1.113 1.629-1.435 1.93-.625.582-1.202 1.167-1.93 1.336-.482-.04-.499-.567-.644-.891-.725-1.621-1.711-3.212-2.672-4.85-.346-.589-.916-1.551-.94-2.028-.001-.084.038-.128.1-.148z"/><path d="m39.167 44.435c-.26-.628-.148-1.39-.148-2.128 0-.723 0-1.467 0-2.227 0-1.525-.04-3.16.049-4.503.028-.071.077-.121.148-.148.042-.009.047.019.049.049.503.474.812 1.161 1.188 1.831.695 1.239 1.414 2.436 2.177 3.81.298.537.963 1.59.891 2.078-.083.562-1.282.872-1.88 1.039-.836.235-1.689.399-2.474.199z"/><path d="m37.881 44.435c-.962.179-2.059-.083-2.919-.347-.648-.199-1.348-.529-1.683-.99 1.293-2.666 2.938-4.979 4.404-7.472.028-.071.077-.121.149-.148.04.009.049.05.099.05.176 1.366.099 2.932.099 4.502-.001 1.523.115 3.114-.149 4.405z"/></g></svg>