<svg enable-background="new 0 0 80.78 60.293" viewBox="0 0 80.78 60.293" xmlns="http://www.w3.org/2000/svg"><path clip-rule="evenodd" d="m58.313 55.521c-1.602-1.972-3.014-4.125-4.47-6.308-.367-.55-.62-1.178-.993-1.739-1.053-1.578-2.173-3.158-3.278-4.768-2.151-3.132-4.268-6.425-6.556-9.636-.746-1.046-1.502-2.832-3.179-2.682-.987.088-1.619.992-2.185 1.837-3.76 5.615-7.541 11.238-11.275 16.837-1.046 1.57-2.16 3.179-3.278 4.769-2.204 3.131-4.975 5.768-10.033 6.01-1.246.059-2.402-.084-3.526-.397-.942-.263-2.117-.44-2.632-1.341.028-.917 1.044-2.086 1.54-2.88 1.657-2.657 3.5-5.112 5.017-7.798 4.294-6.391 8.566-12.876 12.864-19.321 1.418-2.126 2.714-4.355 4.47-6.208 1.303-1.634 4.564-1.751 6.358-.695 1.276.752 2.347 2.461 3.278 3.725 1.028 1.396 1.931 2.815 2.831 4.122 3.844 5.585 7.533 11.058 11.225 16.689 1.855 2.829 3.661 5.664 5.712 8.195 1.025 1.137 2.269 2.023 3.924 2.186 1.846.181 3.497-.59 4.47-1.639.998-1.075 1.865-2.509 1.64-4.47-.188-1.639-1.089-2.947-1.938-4.172-4.191-6.056-8.274-12.11-12.367-18.129-1.674-2.462-3.117-4.913-4.818-7.4-.838-1.227-1.733-2.402-2.533-3.526-1.755-2.466-3.663-4.458-7.202-5.017-3.901-.616-6.711 1.319-8.593 3.377-2.548 3.212-4.678 6.859-7.103 10.331-4.152 5.947-8.16 12.191-12.218 18.278-.577.865-1.066 1.799-1.639 2.682-1.653 2.545-3.421 5.158-5.215 7.848-.456.683-1.245 2.316-1.938 2.384-.907.089-1.162-1.005-1.738-1.391-1.708-2.221-3.237-5.438-2.881-9.139.341-3.535 2.215-6.042 3.725-8.394 2.748-4.28 5.556-8.547 8.394-12.814.403-.606.736-1.25 1.142-1.837 3.234-4.677 6.331-9.826 9.834-14.404 3.46-4.521 8.503-8.178 15.745-8.642 5.286-.339 9.667 1.438 12.765 3.427 3.128 2.008 5.585 5.404 7.698 8.443 4.42 6.356 8.931 13.059 13.162 19.172 1.09 1.574 2.212 3.171 3.278 4.818 2.094 3.234 4.727 6.175 4.967 11.225.25 5.25-2.285 8.599-5.314 10.828-1.591 1.171-3.521 1.949-5.861 2.235-5.349.652-8.797-1.921-11.276-4.671z" fill-rule="evenodd"/></svg>