<svg enable-background="new 0 0 44.38 25.503" viewBox="0 0 44.38 25.503" xmlns="http://www.w3.org/2000/svg"><path d="m27.395.026c5.658-.028 11.318-.019 16.977-.026-.024 8.388.024 16.776.002 25.165-.881.004-1.761.005-2.641.006-.038-1.81.005-3.62-.025-5.431-1.185-.013-2.37.004-3.556-.003-3.625-6.549-7.16-13.148-10.757-19.711z"/><path d="m.008.086c3.334-.003 6.669-.013 10.003-.01-.022 1.899-.006 3.797.002 5.695 1.375.01 2.75-.008 4.126.011-2.445 4.637-4.89 9.276-7.363 13.898-1.249-.018-2.495.086-3.744.048-.037 1.818.058 3.669-.056 5.467-.859.138-1.806.021-2.699.061-.281.066-.277-.241-.264-.427.006-8.247-.028-16.495-.005-24.743z"/><path d="m15.364 19.583c2.239-4.628 4.58-9.213 6.912-13.798 2.386 4.587 4.801 9.16 7.114 13.783-1.3.006-2.601.011-3.901.01-.006 1.915-.003 3.829-.003 5.743.026.145-.145.191-.256.175-1.989-.002-3.978.012-5.966.003-.046-1.97.05-3.946-.056-5.912-1.282.005-2.563.015-3.844-.004z"/></svg>