<svg enable-background="new 0 0 77.951 45.378" viewBox="0 0 77.951 45.378" xmlns="http://www.w3.org/2000/svg"><g clip-rule="evenodd" fill-rule="evenodd"><path d="m36.482 37.872c-2.158 2.319-4.512 4.278-7.6 5.602-3.121 1.338-6.796 2.283-11.106 1.754-3.812-.468-6.852-1.856-9.548-3.654-2.609-1.74-4.856-4.194-6.382-6.771-.834-1.411-1.489-3.093-1.754-4.871-.308-2.074.189-4.059.926-5.554 1.328-2.692 4.209-4.754 8.086-5.066 2.025-.163 4.078.201 6.139.341 4.016.274 8.588.399 12.179-.487 2.42-.597 4.744-1.717 4.433-4.872-.238-2.408-2.463-4.512-4.385-5.504-2.218-1.146-5.166-1.738-8.184-1.461-6.111.56-9.987 3.489-10.912 8.817-1.175.173-2.568.097-3.945.097-1.355 0-2.762.101-3.849-.195.005-1.089.444-2.085.779-3.02.991-2.76 2.727-5.1 4.677-6.966 3.908-3.723 9.556-6.461 17.342-5.456 3.222.416 6.172 1.735 8.428 3.215 1.723 1.129 3.232 2.412 4.726 3.995.449.478 1.01 1.352 1.51 1.364.626.016 1.325-1.093 1.753-1.559.58-.631 1.12-1.217 1.608-1.705 1.12-1.121 2.597-1.96 3.847-2.727 1.365-.837 2.808-1.546 4.482-2.095 1.72-.563 3.703-.978 5.699-1.072 4.826-.228 8.599 1.329 11.594 3.02 3.033 1.713 5.661 4.413 7.404 7.161 1.957 3.087 3.045 6.51 3.458 11.107.199 2.212-.092 4.659-.584 6.625-1.449 5.79-4.36 10.103-8.671 13.201-2.873 2.064-6.33 3.628-10.571 3.995-7.476.646-12.429-2.024-16.318-5.358-.9-.771-1.872-1.692-2.728-2.728-.249-.301-.603-.916-.878-.925-.695-.026-1.086 1.526-1.655 1.752zm13.737-28.546c-2.886 1.416-5.039 3.499-6.527 6.138-.708 1.255-1.377 2.698-1.705 4.627-.675 3.965.384 8.064 1.9 10.376 1.744 2.661 3.732 4.505 6.819 5.846 3.265 1.418 7.683 1.311 10.717.098 2.974-1.19 5.354-3.327 6.869-5.797 1.58-2.579 2.635-6.23 2.046-10.23-.507-3.437-2.247-6.416-4.287-8.378-1.167-1.123-2.711-2.228-4.433-2.923-1.644-.663-4.025-1.265-6.284-1.072-1.897.163-3.671.606-5.115 1.315zm-16.221 14.664c-1.67 1.489-3.823 2.034-6.382 2.582-3.906.835-8.219 1.091-12.666.779-1.519-.106-3.297-.232-4.335.293-1.384.7-2.058 2.864-1.267 4.822.449 1.113 1.384 2.104 2.338 2.826.995.753 2.172 1.512 3.264 1.9 4.189 1.487 9.148.602 12.423-1.267 2.007-1.146 3.644-2.8 4.822-4.725 1.004-1.64 1.985-3.843 2.144-6.235.019-.281.163-.757-.146-.974-.003-.03-.007-.058-.049-.049-.063.001-.068.061-.146.048z"/><path d="m61.52 18.193c2.602-.366 4.445 1.505 4.822 3.458.697 3.611-2.751 6.494-5.991 5.066-1.409-.621-2.884-2.326-2.631-4.676.225-2.08 1.839-3.572 3.8-3.848z"/><path d="m49.975 18.29c2.127-.212 3.39.865 4.238 2.095.663 1.44.619 3.319 0 4.579-.403.819-1.391 1.634-2.192 1.948-3.634 1.423-7.257-2.459-5.505-6.187.585-1.244 1.792-2.134 3.459-2.435z"/></g></svg>