<svg enable-background="new 0 0 80.784 57.824" viewBox="0 0 80.784 57.824" xmlns="http://www.w3.org/2000/svg"><path clip-rule="evenodd" d="m60.645.112c.384 8.223-.074 17.229.198 25.632.742.227 1.619.198 2.474.198 2.527 0 5.381.041 7.868-.049.264-1.081.148-2.452.148-3.761 0-1.334-.065-2.664.099-3.81.569.281.957.963 1.336 1.484 1.182 1.622 2.295 3.271 3.513 4.948 1.18 1.625 2.205 3.324 3.415 5.047.306.436 1.092 1.212 1.088 1.682-.003.441-.782 1.305-1.088 1.732-1.175 1.638-2.253 3.322-3.415 4.948-1.186 1.66-2.288 3.217-3.513 4.849-.375.5-.733 1.139-1.336 1.435-.323-2.208.157-5.293-.247-7.472-3.2-.167-7.008-.248-10.243-.05-.258.751-.172 1.598-.148 2.425.076 2.599-.025 5.286 0 7.769.035 3.387-.038 6.972-.148 10.293-3.3.197-7.157.1-10.54.049-.352-6.541.17-13.725-.248-20.485-3.23-.267-7.11-.147-10.49-.099-.542.477-.773 1.223-1.039 1.88-.814 2.015-1.651 4.187-2.672 6.086-1.361 2.532-2.972 4.704-4.948 6.68-1.903 1.903-4.079 3.612-6.928 4.75-2.823 1.128-5.956 1.904-9.847 1.386-6.556-.873-10.984-4.968-12.965-10.341-1.079-2.927-1.323-6.935-.396-10.095.893-3.04 2.531-5.163 4.602-7.026 2.584-2.487 6.236-4.118 11.233-4.305 4.958-.186 10.432.18 15.488-.05.431-.357.633-.927.841-1.435 1.084-2.641 2.125-5.393 3.216-8.115.433-1.081.994-2.139 1.287-3.217.613-2.256 1.602-4.42 2.474-6.581.438-1.088.894-2.149 1.336-3.216.443-1.07.677-2.228 1.287-3.217 5.897-.018 12.354-.155 18.308.051zm-10.688 22.861c0-3.975.176-8.194-.099-11.925-.033 0-.066 0-.099 0-.428.503-.602 1.265-.891 1.979-1.46 3.619-2.879 7.2-4.256 10.737-.237.609-.595 1.217-.544 1.88 1.757.132 4.068.208 5.789.049.251-.855.1-1.783.1-2.72zm-25.434 13.756c-2.936 0-6.259-.218-9.055 0-2.923.228-5.102 2.651-4.85 5.542.121 1.379.737 2.1 1.484 3.019.497.345.932.751 1.534.989 3.795 1.675 7.574-.829 9.649-2.82.935-.897 1.761-1.897 2.425-2.969.699-1.129 1.47-2.293 1.682-3.612-.893-.27-1.897-.149-2.869-.149z" fill-rule="evenodd"/></svg>