<svg enable-background="new 0 0 77.317 77.763" viewBox="0 0 77.317 77.763" xmlns="http://www.w3.org/2000/svg"><path clip-rule="evenodd" d="m77.157.117c.158 25.455.241 51.476.049 77.481-6.216.176-12.574.097-18.854.096-6.229 0-12.479.206-18.517-.096-.16-10.336-.16-21.357 0-31.743 1.83-.293 3.8-.053 5.675-.096 1.829-.042 3.71-.093 5.531.096.224 6.567-.129 13.794.144 20.681.527-.103.617-.734.817-1.106 3.014-5.605 6.013-11.426 8.994-17.122.45-.86.787-1.816 1.442-2.549 3.905-.134 8.319.097 12.312-.145.256-.853.145-1.768.145-2.645 0-4.547-.001-9.253 0-13.755 0-1.802-.133-3.622-.048-5.387.164-3.444-.108-7.006.048-10.437.166-3.66-.083-7.213-.145-10.821-1.447-.361-2.939-.026-4.425-.097-4.248-.202-8.924 0-13.467 0-18.215.002-36.075-.079-54.299 0-.339.788-.141 1.66-.141 2.502.001 13.567-.083 27.001.096 40.544.615.241 1.335.183 2.02.192 5.007.067 10.763.048 15.919.048 5.212 0 10.36-.023 15.535-.048.675-.003 1.382-.066 2.019.144.193 5.348.097 10.612.097 15.92 0 2.615.121 5.288.048 7.936-.072 2.638.044 5.319-.145 7.888-1.48.263-3.03.096-4.568.096-1.598 0-3.215.108-4.81.048-4.71-.178-9.267-.048-14.092-.048-4.78 0-9.622.08-14.381-.096-.267-3.242-.097-6.774-.096-10.292 0-3.513-.124-7.031.096-10.293 7.479-.225 15.262-.048 22.797-.048 1.035 0 2.065.113 3.03-.145.127-.333.129-.954.048-1.347-1.024-.299-2.105-.096-3.174-.144-3.143-.143-6.368-.049-9.571-.048-4.375.001-8.813.079-13.13-.096-.153-18.35-.235-36.518-.047-55.068 7.281-.231 15.181-.048 22.652-.048 18.232 0 36.246-.089 54.396.048zm-3.559 49.249c-2.079 4.049-4.274 8.09-6.252 12.024-2.062 4.1-4.149 8.029-6.253 11.976-.3.563-.726 1.118-.77 1.78 1.019.185 2.186.144 3.367.144 3.832-.001 7.75.065 11.109-.144.16-8.992.16-18.617 0-27.559-.048 0-.057-.04-.096-.048-.442.435-.764 1.163-1.105 1.827zm-58.339 16.882c-.833 0-2.052-.187-2.692 0-.505.147-.465.98-.241 1.491 4.449.143 9.398.207 13.659 0 .156-.332.151-1.121-.048-1.395-3.352-.127-6.976-.096-10.678-.096z" fill-rule="evenodd"/></svg>