<svg enable-background="new 0 0 41.429 46.483" viewBox="0 0 41.429 46.483" xmlns="http://www.w3.org/2000/svg"><path d="m29.195.007c.261-.006.522-.008.785-.006.001.052.003.155.004.207-.092.028-.182.054-.272.082.005.422.007.844-.003 1.266-.057.003-.17.01-.227.014-.026-.43-.014-.861-.012-1.293-.096-.033-.191-.065-.284-.099.002-.043.008-.129.009-.171z"/><path d="m30.131.001c.114.003.228.005.343.009.142.366.273.738.461 1.084.139-.362.259-.732.408-1.09.108.003.218.005.329.008.008.519.002 1.037.003 1.556-.08-.009-.159-.018-.237-.028.003-.329.006-.658-.027-.985-.16.325-.286.666-.426 1-.04.006-.121.018-.161.024-.129-.362-.25-.727-.415-1.075-.151.335.201 1.01-.271 1.086-.01-.53.001-1.06-.007-1.589z"/><path d="m10.007.106c5.404-.04 10.81-.011 16.214-.018.885-.052 1.635.666 1.806 1.503 3.093 10.269 6.203 20.533 9.2 30.831 1.29 4.716 2.937 9.333 4.201 14.054-1.022-.081-2.118.105-3.093-.092-4.055-13.901-8.241-27.767-12.429-41.629-.204-.983-1.078-1.788-2.097-1.811-4.601-.02-9.203.027-13.803-.026.004-.936.005-1.873.001-2.812z"/><path d="m10.063 4.911c4.124-.028 8.251-.015 12.376-.006 1.177.051 1.927 1.152 2.132 2.216 3.954 13.106 7.889 26.217 11.795 39.338-.874.034-1.748-.005-2.621.024-3.853-12.583-7.569-25.214-11.418-37.8-.309-.786-1.102-1.376-1.956-1.374-3.457-.027-6.923.039-10.373-.054.047-.776-.069-1.599.065-2.344z"/><path d="m10.009 9.225c2.907-.009 5.814-.004 8.722-.003.994-.033 1.935.666 2.2 1.622 3.557 11.879 7.191 23.738 10.714 35.628-.961.017-1.924-.008-2.885.009-3.331-10.773-6.53-21.59-9.796-32.384-.211-.993-1.069-1.867-2.121-1.874-2.281-.002-4.562-.003-6.844-.009.003-.997.002-1.993.01-2.989z"/><path d="m9.91 14.186c1.016-.078 2.04-.025 3.059-.04-3.283 10.785-6.622 21.562-9.945 32.337-1.008-.019-2.016.002-3.024-.014 3.295-10.764 6.586-21.529 9.91-32.283z"/><path d="m15.017 14.217c.955-.225 1.906.477 2.3 1.322-3.171 10.3-6.319 20.62-9.538 30.896-.868.09-1.775.024-2.658.035 3.231-10.771 6.652-21.488 9.896-32.253z"/><path d="m9.865 46.473c2.839-9.17 5.605-18.372 8.504-27.52.471 1.59.98 3.171 1.423 4.768-2.269 7.601-4.674 15.164-6.994 22.753-.977-.001-1.956.007-2.933-.001z"/></svg>