<svg enable-background="new 0 0 60.112 60.112" viewBox="0 0 60.112 60.112" xmlns="http://www.w3.org/2000/svg"><path d="m8.041 50.044c-.267 0-.532-.111-.72-.329-4.965-5.731-7.559-13.074-7.304-20.677.257-7.64 3.377-14.827 8.786-20.236 5.409-5.408 12.595-8.529 20.236-8.785 7.599-.255 14.946 2.338 20.677 7.304.397.344.44.946.096 1.343s-.946.441-1.343.096c-11.095-9.614-27.927-9.004-38.319 1.389-10.393 10.393-11.004 27.224-1.39 38.319.344.397.301.998-.096 1.343-.18.156-.402.233-.623.233"/><path d="m30.049 60.112c-7.236 0-14.179-2.579-19.652-7.321-.397-.345-.441-.946-.096-1.343.344-.397.945-.44 1.343-.096 11.095 9.614 27.927 9.004 38.32-1.389s11.003-27.224 1.389-38.319c-.344-.397-.301-.999.096-1.343.398-.345.999-.301 1.343.096 4.965 5.73 7.559 13.074 7.304 20.677-.257 7.64-3.377 14.827-8.786 20.236-5.409 5.408-12.595 8.529-20.236 8.786-.343.01-.684.016-1.025.016"/><path d="m16.445 26.368 4.947-13.705c.26-.758.663-1.184 1.373-1.184s1.16.426 1.42 1.184l4.876 13.705c.047.142.095.308.095.473 0 .592-.45.97-.994.97-.474 0-.852-.26-1.018-.757l-1.089-3.101h-6.604l-1.089 3.101c-.166.497-.545.757-1.018.757-.545 0-.994-.379-.994-.97.001-.165.048-.331.095-.473m8.924-4.355-2.556-7.314h-.071l-2.604 7.314z"/><path d="m32.256 26.439c-.331-.237-.521-.545-.521-.923 0-.521.402-.994 1.018-.994.236 0 .473.095.662.213 1.16.734 2.462 1.255 4 1.255 2.272 0 3.598-1.089 3.598-2.746 0-1.373-.757-2.225-3.361-2.627l-.781-.118c-3.243-.497-4.758-1.941-4.758-4.474 0-2.864 2.036-4.687 5.255-4.687 1.728 0 3.29.497 4.261 1.089.402.26.568.568.568.923 0 .521-.402.947-.947.947-.213 0-.473-.094-.686-.189-1.018-.45-2.083-.805-3.267-.805-2.035 0-3.053 1.112-3.053 2.604 0 1.349.828 2.201 3.338 2.58l.781.118c3.243.497 4.781 1.941 4.781 4.521 0 2.793-1.988 4.829-5.894 4.829-2.083-.001-3.858-.735-4.994-1.516"/><path d="m17.558 32.806c0-.71.426-1.136 1.065-1.136.615 0 1.042.426 1.042 1.136v7.669l6.864-8.355c.213-.26.521-.45.876-.45.497 0 .947.379.947.923 0 .26-.119.497-.284.686l-4.119 4.876 4.71 8.19c.142.237.213.45.213.663 0 .545-.402.994-.994.994-.426 0-.758-.213-.994-.615l-4.332-7.598-2.888 3.503v3.574c0 .71-.426 1.136-1.042 1.136-.639 0-1.065-.426-1.065-1.136v-14.06z"/><path d="m32.161 32.735c0-.568.355-.947.947-.947h8.285c.639 0 1.041.426 1.041.971 0 .568-.402.994-1.041.994h-6.983c-.095 0-.142.048-.142.143v4.734c0 .095.047.142.142.142h5.823c.639 0 1.042.426 1.042.971 0 .568-.402.994-1.042.994h-5.823c-.095 0-.142.047-.142.142v4.899c0 .095.047.142.142.142h6.983c.639 0 1.041.426 1.041.97 0 .568-.402.994-1.041.994h-8.285c-.592 0-.947-.379-.947-.947z"/></svg>