<svg enable-background="new 0 0 67.603 69.863" viewBox="0 0 67.603 69.863" xmlns="http://www.w3.org/2000/svg"><path clip-rule="evenodd" d="m67.459.113c.208 14.179.074 29.519.049 43.713-.007 3.736.249 7.608-.049 10.856-.303 3.312-1.29 5.936-2.798 8.154-2.854 4.197-7.725 7.157-14.716 6.852-.302-8.541.078-16.691-.193-25.282-.043-.021-.086-.042-.097-.096-10.384-.161-21.457-.161-31.892 0-.173 1.099-.097 2.434-.097 3.715 0 1.297-.113 2.615.145 3.667 8.35.272 16.671-.024 24.8.193.302 1.214.132 2.436 0 3.522-.41 3.38-1.605 6.04-3.281 8.154-2.214 2.794-5.308 4.961-9.505 5.742-2.188.406-4.429.571-6.899.53-7.395-.12-15.138.195-22.532-.096-.264-.892-.145-1.849-.145-2.75.001-8.641-.001-17.157 0-25.813 0-1.873.468-3.358 1.013-4.777 1.06-2.757 2.755-4.916 4.921-6.61 2.234-1.747 4.659-3.128 8.058-3.522 3.364-.39 7.202-.386 11.145-.386h17.08c2.929 0 5.784.193 6.755-1.834.626-1.307.465-3.244.386-5.163-.971-.262-1.99-.145-2.991-.145-13.118 0-27.017-.048-40.48-.048-2.035 0-4.086.116-6.079-.145-.436-6.129 1.714-10.554 4.486-13.557 1.47-1.593 3.318-2.859 5.404-3.715 1.139-.468 2.229-.824 3.522-1.013 2.309-.338 4.974-.153 7.623-.193 7.122-.109 14.645-.048 21.76-.048 8.374-.001 16.638-.055 24.607.095z" fill-rule="evenodd"/></svg>