<svg enable-background="new 0 0 77.477 79.548" viewBox="0 0 77.477 79.548" xmlns="http://www.w3.org/2000/svg"><g clip-rule="evenodd" fill-rule="evenodd"><path d="m26.196.201c.313 6.176-.085 12.371.201 18.629 1.232.273 2.589.151 3.928.151 3.956-.001 8.088.109 11.983 0 .303-.271.241-1.204.1-1.611-4.587-.266-9.687-.027-14.198-.252-.318-1.306-.11-2.727-.101-4.129.026-4.081-.102-8.648.101-12.788 4.092-.235 8.177-.051 12.285-.051 12.003 0 24.524-.064 36.806.151.271 1.017.15 2.099.15 3.172.001 7.61.062 15.652-.1 23.16-2.086.268-5.036.197-7.2.051-.302-5.976.1-12.653-.202-18.629-.339-.155-1.171-.155-1.51 0-.272 1.475-.152 3.055-.151 4.632.001 4.61.06 9.435-.151 13.997-2.173.206-4.887.091-7.049-.051-.268-5.947.033-12.499-.15-18.578-.345-.255-1.107-.231-1.562-.102-.267.691-.151 1.481-.151 2.216.001 5.243-.022 11.177-.15 16.414-1.081.271-2.467.151-3.776.151-1.306 0-2.63.014-3.726-.151-.271-5.956.036-12.702-.151-18.579-1.13-.301-2.501-.22-3.826-.201-3.935.053-8.316.024-12.286.101-.224.372-.18 1.171 0 1.561 4.398.413 9.769-.078 14.3.252.192 2.582.101 5.503.101 8.408 0 2.882.121 5.85-.15 8.459-7.913.29-15.99.051-24.37.05-8.311 0-16.798.011-25.023-.201-.186-3.904-.101-8.465-.101-12.738 0-1.423-.117-2.836.151-4.129 5.892-.184 12.267.117 18.075-.15.162-.37.142-1.188 0-1.561-5.969-.295-12.245.028-18.078-.252-.316-1.5-.11-3.815-.101-5.74.003-.623-.149-1.52.152-1.763.036-.046.091-.076.15-.1 7.766-.004 14.886.05 22.657.05 1.047 0 2.114-.117 3.123.151zm-12.89 16.917c-1.815 0-3.713-.165-5.086 0-.717.086-.443 1.278-.352 1.712 3.224.2 7.014.102 10.321.051.259-.337.283-1.277.051-1.662-1.354-.177-3.138-.101-4.934-.101z"/><path d="m77.351 28.699c.152 8.309.048 16.832.05 25.376.001 7.476-.002 14.86 0 22.355 0 .999.119 2.044-.151 3.021-19.265.268-38.481-.1-57.852-.1-6.469 0-12.948.091-19.283-.151-.168-8.409-.102-16.769-.102-25.376 0-7.39.05-14.831.051-22.405 0-1.015-.122-2.04.151-3.021 25.486.007 51.245 0 77.136.301z"/></g></svg>