<svg enable-background="new 0 0 79.979 78.261" viewBox="0 0 79.979 78.261" xmlns="http://www.w3.org/2000/svg"><g clip-rule="evenodd" fill-rule="evenodd"><path d="m26.187 26.605c-2.091.259-4.41.152-6.711.152-2.37 0-4.742.11-6.812.102-3.605-.015-6.25-1.585-8.287-3.355-.691-.601-1.42-1.257-1.881-1.983-.346-.543-.628-1.24-.966-1.881-.984-1.864-1.587-4.126-1.525-6.914.07-3.112 1.356-5.114 2.492-7.372 2.322-2.751 5.186-5.115 9.913-5.338 3.254-.153 5.792.87 7.728 2.135.64.418 1.35.823 1.881 1.322 1.978 1.855 3.702 4.739 4.22 7.728.213 1.227.102 2.574.102 3.864-.001 3.682-.006 7.758-.154 11.54zm-15.252-13.981c.894-2.561 1.601-5.19 2.44-7.727.423-1.277 1.038-2.52 1.119-3.864-.461-.539-2.592-.58-3.203-.102-.302.236-.592 1.215-.762 1.729-1.09 3.294-2.043 6.442-3.051 9.608-.416 1.308-.975 2.58-1.067 3.915.755.303 2.232.129 3.152.102.678-1.103.942-2.428 1.372-3.661zm1.017 3.711c.589 0 1.304.085 1.627-.101.326-.188.626-1.32.813-1.881.264-.792.462-1.468.661-2.085.978-3.039 1.922-5.559 2.796-8.643.158-.558.447-1.27.356-1.576-.148-.498-1.671-1.122-2.39-1.067-.773.058-.937 1.08-1.22 1.83-.702 1.859-1.208 3.949-1.78 5.694-.966 2.95-1.744 5.17-2.338 7.626.213.282.87.203 1.475.203zm7.778-5.999c.517-1.466 1.043-2.907 1.475-4.474.158-.574.475-1.158.407-1.576-.072-.439-.624-.72-1.068-1.067-.586-.459-1.011-.898-1.626-.763-.954 1.583-1.237 3.489-1.779 5.338-.197.666-.554 1.306-.764 1.982-.447 1.442-.829 2.842-1.322 4.22-.25.697-.523 1.444-.508 2.186.892.148 2.295.191 3.152.051.861-1.582 1.248-3.669 2.033-5.897z"/><path d="m79.824 26.707c-2.959.155-6.188.152-9.253.152-3.271 0-6.163.142-8.541-.864-3.782-1.601-6.818-4.538-7.931-8.745-.144-.542-.225-1.194-.661-1.678-.42.483-.48 1.258-.711 1.932-.645 1.877-1.675 3.533-2.796 4.982-1.196 1.22-2.544 2.313-4.169 3.152-.508.263-1.188.378-1.525.915.161.444.724.42 1.068.509 6.165 1.588 10.582 4.592 14.184 8.846 3.75 4.428 6.292 10.418 5.948 18.557-.154 3.645-1.319 6.923-2.644 9.66-1.336 2.76-3.08 5.126-5.186 7.118-3.081 2.913-6.977 5.283-11.999 6.457-5.423 1.268-11.376.249-15.506-1.678-5.548-2.589-9.83-6.595-12.608-11.998-1.391-2.705-2.42-5.856-2.694-9.558-.595-8.041 2.036-14.134 5.694-18.607 3.184-3.895 7.378-7.071 13.015-8.491.759-.191 1.596-.309 2.339-.711-.268-.604-1.097-.791-1.729-1.169-3.139-1.883-5.412-4.122-6.711-8.033-.521-1.566-.821-3.29-.61-5.186.368-3.301 1.786-6.08 3.711-8.083.938-.976 1.993-1.842 3.356-2.542 1.283-.659 2.789-1.356 4.372-1.525 1.199-.128 2.561 0 3.864 0h7.626c1.249 0 2.504-.124 3.661.153.343 3.285-.092 6.966.254 10.269.345-.182.405-.61.509-.915.833-2.456 2.209-4.345 3.915-6.05 1.878-1.878 4.754-3.351 8.083-3.508 3.013-.142 5.571.759 7.474 1.881 2.995 1.766 5.358 4.86 6.152 8.846.308 1.545.189 3.332.152 5.186-.036 1.807 0 3.677 0 5.541-.001 1.752.131 3.525-.103 5.185zm-14.032-25.878c-1.029.174-1.102 1.074-1.424 2.034-1.09 3.248-1.988 6.361-3.05 9.405-.44 1.261-.963 2.531-1.017 3.864.708.329 2.07.16 2.949.102.76-1.035 1.052-2.366 1.474-3.61.875-2.578 1.646-5.163 2.44-7.727.396-1.276 1.104-2.525 1.067-3.915-.485-.303-1.709-.277-2.439-.153zm-26.691.051c-.641.077-.836.943-1.068 1.678-1.248 3.966-2.446 7.844-3.66 11.592-.213.656-.533 1.31-.458 1.982.664.369 2.277.219 3.102.102 1.451-3.626 2.562-7.503 3.762-11.236.412-1.281.932-2.548 1.119-3.914-.645-.265-1.946-.307-2.797-.204zm3.61.102c-.562 1.149-.94 2.415-1.322 3.66-.794 2.591-1.542 5.179-2.39 7.677-.43 1.267-.975 2.531-1.067 3.864.828.264 2.449.195 3.356.051 1.196-2.601 1.862-5.73 2.898-8.49.166-1.218.531-2.288.864-3.355.332-1.063.861-2.095.864-3.305-.797-.29-2.284-.252-3.203-.102zm4.016.05c-.789 1.792-1.256 3.782-1.83 5.694-.194.646-.526 1.237-.661 1.881-.064.308-.037.611-.102.915-.23 1.075-.715 2.137-1.068 3.203-.368 1.113-.747 2.238-.915 3.406.596.357 2.095.225 2.847.102 1.115-2.325 1.693-4.945 2.542-7.474.424-1.262.845-2.537 1.22-3.813.379-1.289.991-2.521 1.067-3.864-.754-.293-2.284-.278-3.1-.05zm23.082 8.236c.56-1.621 1.167-3.477 1.729-5.287.161-.519.636-1.318.508-1.83-.179-.723-2.307-1.172-2.847-1.067-.774 1.006-1.03 2.322-1.423 3.559-.815 2.558-1.562 5.122-2.441 7.626-.438 1.247-1.012 2.553-1.017 3.915.747.27 2.273.188 3.101.051.972-1.942 1.466-4.292 2.39-6.967zm2.796 4.169c.612-1.942 1.278-4.049 1.982-5.948.252-.679.969-2.391.865-3.101-.121-.817-1.962-1.954-2.644-1.932-.458.365-.533 1.005-.712 1.525-.596 1.733-1.052 3.494-1.678 5.186-.418 1.131-.766 2.277-1.118 3.457-.344 1.153-.942 2.312-.915 3.559.718.273 2.25.189 3.05.051.609-.701.841-1.753 1.17-2.797z"/></g></svg>