<svg enable-background="new 0 0 80.02 66.91" viewBox="0 0 80.02 66.91" xmlns="http://www.w3.org/2000/svg"><path clip-rule="evenodd" d="m27.062.207c.299 4.136-.098 8.967.2 13.104.928.242 1.964.183 3.001.15 2.887-.091 6.188.109 9.203-.05.271-.949.149-2.125.149-3.301.001-3.455-.021-6.651.15-9.853 4.403-.172 9.209-.219 13.604-.05.353 4.251-.066 8.776.201 12.954.964.267 2.041.15 3.101.15 3.166 0 6.353.086 9.402 0 .326-.928.2-2.015.2-3.101 0-3.117-.087-6.742.1-9.903 4.293-.188 9.118-.219 13.454-.05.266 2.207.15 4.464.15 6.702.001 15.519.12 31.206-.05 46.564-4.019.281-8.729-.089-12.854.2-.426 4.175.163 8.815-.199 13.104-4.323.14-9.374.093-13.805-.05-.298-4.12.099-8.935-.2-13.054-.936-.27-2.001-.15-3.051-.15-1.025 0-2.076-.025-3.1 0-2.108.05-4.289-.158-6.202.15-.265 1.01-.15 2.155-.15 3.251 0 3.409.127 6.73-.1 9.803-2.121.183-4.49.1-6.802.1-2.318 0-4.637.115-6.702-.15-.251-4.175.021-9.055-.2-12.854-.964-.264-2.031-.15-3.101-.15-3.168 0-6.429-.122-9.403.05-.265.961-.205 2.049-.199 3.101.016 3.05.167 6.574-.051 9.853-4.31.141-9.423.222-13.653-.05-.179-17.5-.19-35.482-.101-53.166 4.103-.298 8.9.098 13.004-.2.246-.839.1-2.085.101-3.251 0-2.156.05-4.494.05-6.852 0-.786-.289-2.958.3-3.101.791-.192 2.62-.071 3.501-.05 3.255.077 6.813-.037 10.052.15zm-13.053.6c-.269.979-.149 2.095-.149 3.201 0 3.349.087 6.966-.101 9.953-4.102.299-8.901-.099-13.004.2-.182 1.924-.1 4.088-.1 6.202 0 2.148-.116 4.308.149 6.202 3.052.269 6.513.1 9.753.1 1.107 0 2.217-.12 3.201.15.295 4.073-.096 8.832.2 12.904 2.941.202 6.348.15 9.453.15 1.063 0 2.148.12 3.101-.15.299-4.069-.099-8.834.2-12.904 3.076-.207 6.72-.067 9.753-.1 1.077-.012 2.126.188 3.051-.1.229-2.82.101-6.248.1-9.303 0-1.049.116-2.119-.149-3.051-3.042-.175-6.507-.149-9.703-.15-1.087 0-2.181.12-3.151-.15-.22-3.144-.1-6.413-.1-9.803 0-1.128.119-2.263-.15-3.301-3.996-.134-8.507-.23-12.354-.05zm39.662 26.558c-.392 3.99.1 8.892-.25 12.954-4.105.296-8.914-.111-12.954.25-.268 3.032-.003 6.383-.05 9.252-.017 1.026-.209 2.064.1 3.001 3.582.245 7.947.039 11.554.05.507.002 1.062-.013 1.501.2.124 4.249-.013 8.95.149 13.004.924.27 1.959.15 3.001.15 3.199 0 6.487.162 9.452-.05.278-2.031.162-4.333.101-6.552-.062-2.235-.026-4.485.15-6.502 3.795-.394 8.775.067 12.804-.25.267-.917.149-1.958.149-3 0-2.123.007-4.242-.05-6.252-.029-1.065.139-2.121-.15-3.051-4.02-.298-8.733.098-12.753-.2-.257-.567-.115-1.225-.101-1.851.085-3.513-.063-7.494-.15-11.103-3.956-.194-8.767-.259-12.503-.05z" fill-rule="evenodd"/></svg>