<svg enable-background="new 0 0 80.35 77.54" viewBox="0 0 80.35 77.54" xmlns="http://www.w3.org/2000/svg"><g clip-rule="evenodd" fill-rule="evenodd"><path d="m76.646.325c.021.043.043.087.098.097.09 10.153.15 20.858.049 31.489-.016 1.488.127 2.981-.146 4.416-17.734.074-37.119-.005-55.457-.098-1.697-.008-3.367.02-4.949-.145-6.123-.64-10.01-3.674-12.857-7.569-1.729-2.375-2.943-5.364-3.301-8.976-.389-3.942.656-7.444 2.137-10.044 2.486-4.373 6.396-8.071 12.227-9.219 2.023-.398 4.293-.251 6.646-.242 18.26.061 37.53.142 55.553.291zm-42.842 1.262c-1.148 2.323-1.898 4.814-2.863 7.229-.965 2.412-1.811 4.887-2.766 7.326-.951 2.433-1.68 4.986-2.668 7.423-.746 1.835-1.443 3.723-2.088 5.483-.238.651-.318 1.324-.533 1.989-.404 1.252-1.178 2.406-1.213 3.784.555.31 1.293.194 1.99.194 2.213 0 4.584.04 6.647-.049.549-.703.775-1.603 1.115-2.426.351-.85.658-1.743.971-2.62 1.719-4.801 3.728-9.628 5.435-14.314.139-.385.131-1.03.678-1.115.66.829.836 1.927 1.213 2.911.779 2.029 1.512 4.053 2.233 6.065.369 1.029.873 2.05.922 3.153-.631.392-1.432.243-2.086.243-.771 0-1.533-.01-2.232 0-1.955.028-3.621.959-4.318 2.377-1.086 2.212.102 4.595 1.844 5.531 1.031.555 3.213.291 4.756.292 4.391.001 7.916.048 12.08.048.775 0 1.602.114 2.33-.146.035-.753-.387-1.413-.631-2.086-.779-2.154-1.5-4.221-2.281-6.308-1.047-2.803-1.893-5.666-2.959-8.442-1.6-4.163-3.078-8.343-4.609-12.519-.498-1.357-.846-2.833-1.697-4.026-3.049-.09-6.186-.078-9.27.003z"/><path d="m38.656 77.277c-.176-2.803-.098-6.04-.098-9.073 0-.995-.115-1.989.146-2.863 3.117-.078 6.428-.083 9.461 0 3.139.087 5.711-.532 7.666-1.892 1.686-1.172 3.316-3.28 4.076-5.482.834-2.419.475-5.82-.631-8.006-1.598-3.16-4.152-5.563-8.346-6.017-1.41-.153-3.037-.027-4.609-.049-4.568-.06-9.535-.049-14.266-.049-1.541.001-3.08-.141-4.56.098-.26 1.166-.145 2.61-.145 4.027 0 1.387-.078 2.824.096 4.026.736.273 1.574.146 2.426.146 5.045-.001 10.508-.023 15.721.049 1.689.023 3.164.352 3.543 1.747.352 1.3-.586 2.319-1.408 2.669-1.127.479-3.334.194-4.949.193-5.332-.001-10.385-.105-15.283.049-.264 1.646-.145 3.406-.145 5.143-.002 5.167.039 10.381-.146 15.284-7.776.113-16.145.012-24.018-.097-.262-.691-.145-1.453-.145-2.184 0-8.379.047-16.919.049-24.842 0-2.262-.002-4.447 0-6.793 0-.696-.113-1.461.144-2.136 6.455-.121 12.662.051 19.311.049 3.264-.001 6.537.126 9.754.049 9.338-.224 18.834.049 28.48.049 3.498-.001 6.078.273 8.49 1.31 2.281.979 4.144 2.284 5.773 3.979 1.666 1.563 2.877 3.586 3.883 5.92.986 2.291 1.637 5.156 1.357 8.345-.512 5.862-3.35 9.903-6.793 12.761-1.822 1.445-3.791 2.706-6.404 3.396-2.637.698-5.867.389-9.266.389-6.426-.002-13.09-.026-19.164-.195z"/></g></svg>