<svg enable-background="new 0 0 56.071 25.372" viewBox="0 0 56.071 25.372" xmlns="http://www.w3.org/2000/svg"><path d="m9.904 2.168c.765-1.517 2.599-2.452 4.272-2.09.543.027 1.003.427 1.502.509 1.728-1.101 4.152-.522 5.303 1.14 3.207 6.6 6.447 13.192 9.847 19.697.013-4.983.053-9.959.058-14.942-.113-1.293.968-2.567 2.268-2.647.54-.013 1.08.008 1.62-.008.019-.578-.038-1.161.047-1.735.223-.987 1.035-1.837 2.056-1.983 1.565-.118 3.15.027 4.721-.057 2.544.05 5.092.01 7.637.023 2.074-.023 4.151.938 5.409 2.602 1.532 1.916 1.867 4.707.829 6.929-.056.501.09 1.007-.003 1.512-.203 3.534-3.579 6.495-7.114 6.196-3.068-.04-6.14.014-9.208-.034-1.584-.137-2.641-2-1.95-3.432.389-.888 1.331-1.485 2.298-1.475 2.548.007 5.098-.013 7.643.024 1.552-.057 3.239.238 4.662-.552 1.035-.489 1.961-1.317 2.438-2.363-.418-2.375-2.586-4.303-4.99-4.463-2.217-.052-4.439-.008-6.658-.028-2.227.016-4.457-.072-6.683-.005-.041 5.202-.043 10.401-.062 15.606-.024 1.23.158 2.543-.41 3.683-.866 1.471-3.181 1.415-4.179.106-.545.587-1.337.891-2.126.932-1.262.059-2.443-.722-3.073-1.784-3.39-6.789-6.575-13.673-9.908-20.489-.149-.333-.304-.672-.567-.931-.156.212-.325.419-.44.658-1.816 3.704-3.669 7.39-5.517 11.08-1.617 3.377-3.305 6.723-4.998 10.063-.727 1.351-2.774 1.635-3.86.565-.938-.79-.973-2.232-.342-3.223 3.144-6.368 6.391-12.689 9.478-19.084zm.918.686c-3.118 6.474-6.41 12.867-9.572 19.321-.41.797.26 1.879 1.16 1.833.543.06 1.053-.281 1.285-.76 3.331-6.599 6.574-13.238 9.865-19.857.349-.657.615-1.366 1.088-1.948-1.355-.785-3.223.018-3.826 1.411zm5.746-1.442c.002.03.006.091.007.121.416.43.567 1.025.865 1.528 3.151 6.619 6.307 13.23 9.56 19.805.566 1.358 2.64 1.868 3.544.578-3.48-6.891-7.053-13.741-10.307-20.739-.634-1.288-2.366-1.949-3.669-1.293zm19.335 1.259c0 .387-.003.774-.002 1.161 4.341.02 8.673.021 13.01.042 2.526-.03 4.859 1.605 5.971 3.829.06-.612.1-1.23-.038-1.836-.361-2.538-2.715-4.582-5.268-4.646-4.096-.024-8.192-.003-12.288-.019-.763-.017-1.442.712-1.385 1.469zm-2.619 2.287c-.657.073-1.273.65-1.273 1.333.002 5.062-.033 10.118-.045 15.179.007.599-.009 1.205-.16 1.788.396.7 1.244 1.237 2.052.908.852-.214.819-1.276.861-1.974.01-5.626.011-11.253.058-16.876.003-.117-.016-.233-.033-.348-.487-.019-.974-.01-1.46-.01zm16.152 8.585c-3.378-.011-6.756-.002-10.133-.006-.769.035-1.356.902-1.14 1.631.186.814 1.098 1.089 1.836.998 2.964 0 5.928 0 8.892.008 2.643-.026 5.083-2.142 5.405-4.778-1.246 1.321-3.028 2.178-4.86 2.147z"/></svg>