<svg enable-background="new 0 0 49.171 50.032" viewBox="0 0 49.171 50.032" xmlns="http://www.w3.org/2000/svg"><path d="m29.957 0c.475 0 .95.004 1.426.001 5.922 16.673 11.93 33.32 17.787 50.014-2.024 0-4.048.007-6.073.006-4.167-11.587-8.275-23.197-12.451-34.781-.277.796-.587 1.582-.855 2.38 3.818 10.811 7.713 21.595 11.55 32.399-2.05.005-4.099.004-6.149.003-.821-2.285-1.618-4.579-2.452-6.86-5.321-.002-10.643 0-15.964 0-.847 2.287-1.63 4.598-2.533 6.864-2.055-.001-4.11-.003-6.165-.003 2.834-7.849 5.626-15.715 8.525-23.54 1.386-3.757 2.632-7.564 3.999-11.328 1.501-4.368 3.122-8.692 4.656-13.048-.578-.006-1.157-.007-1.736-.002-1.223 3.439-2.488 6.862-3.684 10.311-1.766 5.186-3.645 10.333-5.535 15.475-2.693 7.375-5.284 14.788-8.04 22.139-2.088 0-4.175.002-6.263.003 2.712-7.285 5.297-14.616 8.03-21.893 2.38-6.6 4.77-13.197 7.149-19.798 1.048-2.765 2.068-5.541 3.043-8.334.718-.007 1.436-.004 2.154-.002-1.046 2.902-2.017 5.831-3.09 8.724-.047.101-.061.211-.046.321-.026.003-.051.007-.077.011-3.106 8.55-6.209 17.102-9.294 25.658-1.657 4.399-3.243 8.825-4.838 13.246.587.012 1.174.004 1.761.003 1.432-4.055 2.971-8.07 4.412-12.12 1.634-4.587 3.322-9.153 4.961-13.738 1.361-3.835 2.844-7.626 4.135-11.486 1.247-3.546 2.503-7.089 3.781-10.624 2.039.007 4.077-.002 6.115-.001-2.886 8.214-5.886 16.387-8.756 24.607-2.685 7.824-5.661 15.544-8.374 23.357.579.002 1.157.01 1.735-.001 2.114-5.997 4.405-11.93 6.44-17.954 3.559-10.007 7.111-20.019 10.716-30.009zm.695 4.207c-1.59 4.267-3.066 8.578-4.596 12.867-1.539 4.254-3.039 8.523-4.576 12.777 2.171.005 4.342.004 6.514-.002-.758-2.247-1.592-4.471-2.372-6.709.363-1.015.712-2.039 1.088-3.049 1.409 3.955 2.853 7.899 4.236 11.862-3.404.005-6.808-.001-10.213.005-.194.546-.389 1.092-.567 1.644 3.792.006 7.585-.004 11.378.003.683 1.939 1.36 3.881 2.083 5.804-5.166.007-10.333.006-15.499.003-.194.547-.413 1.086-.576 1.644 5.548.015 11.096-.003 16.644.007.842 2.291 1.628 4.603 2.468 6.896.576.008 1.152.008 1.728-.003-3.576-10.119-7.243-20.206-10.792-30.335 1.029-2.857 2.006-5.737 3.046-8.591 4.627 12.977 9.295 25.941 13.895 38.927.563 0 1.126.007 1.689-.005-1.07-3.243-2.25-6.453-3.397-9.67-3.188-8.974-6.408-17.936-9.607-26.907-.884-2.378-1.659-4.803-2.574-7.168zm-11.239 31.501c-.192.545-.373 1.094-.555 1.642 3.93.005 7.86.003 11.79-.002-.138-.562-.379-1.091-.556-1.64-3.56-.004-7.119 0-10.679 0z"/></svg>