<svg enable-background="new 0 0 79.087 68.461" viewBox="0 0 79.087 68.461" xmlns="http://www.w3.org/2000/svg"><g clip-rule="evenodd" fill-rule="evenodd"><path d="m37.042.198c-.044 2.751-.815 5.415-1.155 8.13-.339 2.721-.813 5.41-1.25 8.082-.874 5.346-1.829 10.587-3.079 15.586-9.57.242-18.759.73-27.758 1.54-1.257.112-2.544.313-3.8.192.274-.785.734-1.501 1.154-2.213 6.15-10.437 12.477-20.974 18.714-31.414 4.593-.195 9.529-.048 14.432-.048.923 0 1.88-.117 2.742.145z"/><path d="m40.842 31.803c-.816.137-2.159.229-3.078 0 .252-5.427.544-10.985.817-16.74.189-3.958.24-7.95.433-12.027.047-.977-.064-1.98.193-2.935.841-.457.721 1.057.721 1.732 0 5.201.323 10.897.337 16.115.007 2.501.289 4.752.289 7.023 0 2.401.384 4.707.288 6.832z"/><path d="m79.087 34.161c-5.226-.288-10.458-1.092-15.827-1.347-2.643-.126-5.291-.498-7.985-.626-2.721-.129-5.463-.219-8.227-.385-.463-1.182-.626-2.473-.914-3.752-.281-1.253-.538-2.59-.722-3.896-.362-2.577-.949-5.212-1.347-7.89-.675-4.545-1.489-9.287-2.117-14.096-.078-.602-.287-1.863-.048-2.02.035-.045.088-.072.145-.096 4.818.058 9.825.048 14.865.048.726 0 1.57-.117 2.068.048.505.168.924 1.282 1.299 1.925 5.78 9.928 12.03 20.084 17.703 29.922.346.716 1.03 1.339 1.107 2.165z"/><path d="m76.104 39.116c-.16.723-.638 1.302-1.011 1.924-3.992 6.672-7.976 13.448-11.882 20.253-1.062 1.85-2.141 3.679-3.271 5.532-.344.563-.568 1.262-1.154 1.636-.327-.557-.445-1.199-.722-1.78-1.856-3.897-3.411-8.156-4.955-12.459-.881-2.455-1.651-4.988-2.405-7.553-.748-2.546-1.32-5.183-2.31-7.648-2.066-.427-4.79-.684-7.071-.578-.361 1.039.018 2.381.048 3.416.068 2.29.077 4.561.241 6.831.477 6.617 1.206 13.261 1.827 19.579-2.681.159-6.026.161-8.707 0-.086-1.2.157-2.402.337-3.608.538-3.619.92-7.328 1.299-11.063.256-2.528.453-5.075.626-7.649.168-2.519.544-5.065.433-7.601-2.312-.224-4.865.136-7.12.288-.376.558-.489 1.252-.674 1.876-.192.656-.35 1.312-.528 1.973-.349 1.287-.861 2.562-1.154 3.849-.596 2.61-1.588 5.132-2.454 7.601-1.31 3.733-2.69 7.379-4.329 10.776-.544 1.127-.898 2.348-1.683 3.319-.447-.554-.703-1.221-1.059-1.828-3.894-6.639-7.63-13.46-11.546-20.157-1.417-2.423-2.907-4.82-4.137-7.359 1.232-.506 2.583-.61 3.897-.866 3.997-.779 8.177-1.159 12.459-1.684 2.849-.35 5.727-.597 8.659-.771 3.001-.177 6.035-.145 9.141-.288 3.345-.155 7.161.007 10.439.192 6.951.395 13.401 1.13 19.627 2.117 3.192.504 6.276.983 9.139 1.73z"/></g></svg>