<svg enable-background="new 0 0 79.049 70.595" viewBox="0 0 79.049 70.595" xmlns="http://www.w3.org/2000/svg"><path clip-rule="evenodd" d="m39.308 0c.453.175.992 1.436 1.398 2.12 2.979 5.032 5.795 10.346 8.718 15.366 2.551 4.38 5.032 8.729 7.516 13.15.425.758.713 1.565 1.155 2.312 2.124 3.585 4.149 7.338 6.215 10.983 1.666 2.941 3.301 5.885 4.961 8.815 2.9 5.118 5.812 10.249 8.671 15.415.408.738.912 1.473 1.108 2.312-26.335.164-53.031.191-79.05-.096.035-.575.396-1.064.675-1.541 3.088-5.28 5.985-10.857 9.056-16.186.841-1.458 1.621-2.933 2.457-4.432.258-.463.541-.97.963-1.3-.582 2.424-.824 4.835-.625 7.226.199 2.398.9 4.535 1.734 6.262 1.652 3.423 4.48 6.477 7.947 8.044 1.938.876 3.892 1.368 6.406 1.638 2.381.255 4.926-.323 6.841-1.06 1.927-.741 3.555-1.678 5.058-2.938 2.792-2.342 5.072-5.891 5.877-10.164.448-2.38.375-5.076-.097-7.226-.47-2.143-1.379-3.896-2.312-5.684-.901-1.726-1.893-3.413-2.843-5.154-1.82-3.339-3.899-6.622-5.828-10.164-1.573-2.888-3.386-5.938-5.058-8.959-.263-.475-.66-.968-.675-1.301-.028-.654.756-1.636 1.107-2.264 2.805-5.001 5.672-10.231 8.479-15.077.036-.046.089-.074.146-.097z" fill-rule="evenodd"/></svg>