<svg enable-background="new 0 0 76.713 22.149" viewBox="0 0 76.713 22.149" xmlns="http://www.w3.org/2000/svg"><g clip-rule="evenodd" fill-rule="evenodd"><path d="m76.545 5.213c-.444-.469-.608-1.076-.935-1.574-.64-.977-1.47-1.83-2.459-2.508-.478-.328-1.085-.494-1.475-.984.687-.053 2.568-.271 3.246-.049.806.264 1.174 1.25 1.672 1.672.119 1.006.116 2.359-.049 3.443z"/><path d="m57.069.196c.207 6.943.207 14.49.099 21.541-.347.238-1.468.223-1.819 0-.252-3.221-.147-7.008-.147-10.82 0-2.652-.05-5.293-.049-8.113 0-.705-.12-2.383.196-2.608.036-.045.09-.074.147-.098.514.045 1.216-.102 1.573.098z"/><path d="m47.775.245c.149 5.252.147 10.879.147 16.377 0 1.805.103 3.592-.099 5.264-.991.051-2.434.141-3.344-.051-.567-.691-.856-1.684-1.229-2.606-2.152-5.308-4.467-10.76-6.64-16.18-.361-.902-.935-1.758-1.032-2.754.451-.182 1.389-.108 1.918-.051.886 1.576 1.461 3.322 2.164 5.017 1.389 3.35 2.795 6.748 4.131 10.18.502 1.291.942 2.594 1.476 3.885.155.377.305.865.688 1.082.354-.721.159-1.56.147-2.361-.038-2.549-.049-5.16-.049-7.769.001-2.563-.147-5.094-.147-7.672 0-.807-.154-1.699.196-2.41.47-.063 1.278-.117 1.673.049z"/><path d="m51.906.245c.135 7.129.173 14.461.099 21.541-.359.223-1.362.223-1.722 0-.184-5.676-.06-12.616-.098-18.245-.003-.467-.074-1.082-.049-1.771.02-.529-.074-1.369.197-1.525.035-.045.089-.075.147-.098.467.041 1.112-.096 1.426.098z"/><path d="m30.612.344c-.076.953-.643 1.693-.935 2.557-.147.434-.184.912-.345 1.328-1.971 5.09-4.043 10.395-6.098 15.492-.291.719-.487 1.67-1.132 2.164-.846-1.691-1.561-3.484-2.262-5.264-1.774-4.496-3.486-8.979-5.312-13.523-.35-.871-.896-1.701-.983-2.656.368-.271 1.348-.137 1.868-.098 1.195 2.613 2.249 5.377 3.345 8.113.817 2.043 1.608 4.062 2.41 6.148.254.662.458 1.383.934 1.918.61-.441.727-1.262.984-1.918.791-2.021 1.637-4.111 2.459-6.197.547-1.389 1.037-2.805 1.573-4.18.533-1.369 1.03-2.764 1.771-3.984.486-.046 1.385-.156 1.723.1z"/><path d="m8.481.442c-.171.935-.611 1.789-.983 2.656-.372.865-.649 1.773-.983 2.656-1.31 3.455-2.749 6.905-4.082 10.426-.329.867-.674 1.75-1.033 2.606-.343.82-.587 1.73-1.18 2.41-.106-1.404-.337-2.891-.147-4.426.077-.633.464-1.418.737-2.115 1.858-4.744 3.743-9.6 5.754-14.213.439-.155 1.48-.164 1.917 0z"/><path d="m33.12.442c.041-.008.046.02.049.049.49.441.604 1.141.836 1.723 1.405 3.51 2.958 7.111 4.426 10.672.239.578.617 1.203.542 1.867-.598.24-1.296.08-1.968.1-2.579.07-5.343 0-7.967 0-.498 0-1.066.103-1.476-.148-.034-.639.304-1.246.541-1.818 1.438-3.465 2.583-7.104 4.082-10.672.246-.588.506-1.332.787-1.672.037-.048.09-.078.148-.101zm-.246 5.508c-.865 2.186-1.852 4.248-2.508 6.639.666.344 1.798.197 2.803.197 1.02 0 2.111.117 2.754-.246-.479-1.713-1.263-3.537-1.967-5.213-.186-.443-.525-1.514-.934-1.523-.072.026-.121.075-.148.146z"/><path d="m10.94.59c.394.018.737 1.127.935 1.623.709 1.787 1.45 3.617 2.114 5.36.945 2.482 2.136 4.768 2.804 7.18-.423.379-1.266.15-1.819.148-3.06-.006-6.494.109-9.591-.098-.021-.645.255-1.279.492-1.869 1.14-2.838 2.303-5.84 3.491-8.754.506-1.238.931-2.619 1.574-3.59zm-.147 5.606c-.483 1.031-.917 2.082-1.328 3.148-.412 1.068-.923 2.113-1.18 3.295.87.508 2.566.162 3.835.195.577.016 1.259.232 1.525-.246-.004-.557-.259-1.141-.492-1.721-.46-1.144-.854-2.139-1.328-3.344-.17-.434-.516-1.52-.934-1.475-.062.021-.1.064-.098.148z"/><path d="m59.48 14.704c-.263-.975-.146-2.102-.148-3.195 0-3.191-.098-6.756.099-9.592 1.515-.273 3.406-.17 5.016-.244 2.702-.129 5.322-.184 7.033.736 1.991 1.072 3.607 3.428 3.394 6.246-.199 2.617-1.803 4.603-3.886 5.508-1.593.691-4.104.455-6.442.541-1.609.06-3.383.232-5.066 0zm5.852-2.065c1.419 0 2.878.141 4.082-.1 2.019-.402 3.753-2.356 3.442-5.016-.271-2.326-2.242-4.103-5.262-3.738-.957.117-2.169.1-3.295.1-1.051 0-2.172-.137-3 .246-.222 1.266-.05 2.748-.05 4.18 0 1.473-.116 2.979.147 4.229 1.239.23 2.593.099 3.936.099z"/><path d="m61.446 19.032c-.384.631.09 2.121-.295 2.754-.38.152-1.36.182-1.672-.049-.105-1.447-.268-3.529 0-4.869 3.134-.371 6.335.039 9.442-.197 3.911-.295 6.141-2.658 7.476-5.557.027-.07.076-.119.147-.146.325.871.063 2.33.147 3.441-1.438 2.152-3.868 3.76-6.983 4.279-2.595.432-5.497-.063-8.262.344z"/><path d="m39.906 16.916c.529.641.796 1.531 1.132 2.361.335.826.757 1.662.885 2.508-.283.342-1.437.221-1.869.1-.772-.67-.737-2.148-1.524-2.805-3.429-.072-7.237-.109-10.475.049-.79.637-.784 2.068-1.426 2.854-.536.037-1.536.174-1.919-.098.196-.891.562-1.738.886-2.559.318-.805.527-1.691 1.082-2.31 4.125-.25 8.864-.148 13.228-.1z"/><path d="m19.646 21.934c-.411.275-1.451.135-2.017.098-.666-.777-.674-2.211-1.476-2.852-3.399-.055-7.062-.115-10.278.049-.813.629-.776 2.108-1.476 2.852-.53.043-1.539.172-1.918-.098.273-1.166.826-2.479 1.328-3.738.141-.352.318-.906.59-1.082.714-.461 3.767-.105 4.77-.098 2.737.022 4.305-.09 6.688 0 .724.027 1.521-.115 1.819.049.421.232.877 1.836 1.082 2.311.388.896.728 1.696.888 2.509z"/></g></svg>