<svg enable-background="new 0 0 55.162 83.705" viewBox="0 0 55.162 83.705" xmlns="http://www.w3.org/2000/svg"><path clip-rule="evenodd" d="m.243 83.572c-.354-.939-.203-2.093-.203-3.251 0-6.876 0-13.63 0-20.67 0-.921-.174-2.829.203-3.2.231-.228 1.048-.197 1.473-.254 3.395-.458 6.026-1.986 8.024-3.911 2.355-2.269 4.08-4.993 4.52-9.142.248-2.33.085-4.482.356-6.501.272-2.029.552-3.969 1.016-5.79.442-1.736 1.126-3.405 1.777-5.028.648-1.615 1.301-3.181 2.133-4.673 1.583-2.839 3.688-5.429 5.841-7.821 1.085-1.206 2.148-2.429 3.352-3.454 1.223-1.042 2.54-2.007 3.911-2.895 2.793-1.809 5.772-3.44 9.091-4.571 3.385-1.153 7.232-2.098 11.427-2.387.482-.033 1.455-.081 1.727.203.372.39.203 2.277.203 3.301 0 6.014.051 11.498.051 17.217 0 1.072-.109 2.168-.051 3.454.049 1.077.182 2.773-.152 3.2-.363.463-2.056.429-2.844.609-2.925.669-4.722 1.938-6.603 3.758-2.373 2.377-4.424 6.531-3.809 11.63.709 5.883 4.301 9.549 9.091 11.529.652.27 1.287.482 1.981.609.691.126 1.429.088 2.133.406.305.389.23 2.457.203 3.403-.206 7.08 0 13.664 0 20.823 0 .944.199 2.901-.254 3.251-.366.282-1.334.073-2.133.05-.897-.025-1.643-.048-2.184-.152-1.371-.262-2.66-.481-3.911-.762-5.211-1.168-9.222-3.117-13.104-5.637-1.326-.861-2.738-1.837-4.063-2.946-.419-.351-.953-.989-1.321-1.016-.432-.032-1.08.65-1.473.965-4.972 3.984-10.596 7.202-17.776 8.888-1.996.468-4.11.706-6.501.812-.673.034-1.433.2-2.131-.047z" fill-rule="evenodd"/></svg>