<svg enable-background="new 0 0 81.89 61.51" viewBox="0 0 81.89 61.51" xmlns="http://www.w3.org/2000/svg"><g clip-rule="evenodd" fill-rule="evenodd"><path d="m32.584.096c.884-.146 2.275-.008 3.427-.051 3.343-.125 7.052.051 10.182.051 2.579-.002 3.889.465 5.215 1.688 1.153 1.064 1.859 2.613 2.533 4.371.583 1.522 1.566 3.016 2.334 4.57 2.257 4.562 4.843 9.1 7.003 13.707 1.377 2.938 3.121 5.979 4.719 9.09 3.178 6.189 6.168 12.096 9.437 18.18 1.182 2.195 2.35 4.455 3.527 6.854.353.719 1.098 1.781.894 2.334-.275.746-1.933.496-3.029.496-3.426 0-7.103 0-10.133 0-1.243 0-2.236.092-3.427 0-1.033-.078-1.85-.533-2.483-.992-1.396-1.012-2.005-2.52-2.881-4.072-1.703-3.019-3.126-6.187-4.768-9.189-.421-.77-.837-1.512-1.241-2.285-.406-.775-.645-1.641-1.043-2.434-2.33-4.633-4.635-9.197-7.003-13.906-.775-1.543-1.678-3.037-2.384-4.619-.701-1.572-1.63-3.045-2.384-4.57-2.713-5.484-5.398-10.607-8.295-16.143-.307-.586-1.124-1.824-1.045-2.436.057-.435.392-.57.845-.644z"/><path d="m.001 60.789c-.035-1.043.688-1.877 1.143-2.73 1.366-2.564 2.773-5.168 4.073-7.799.877-1.774 1.632-3.578 2.682-5.266 1.522-2.443 2.786-5.109 4.123-7.748 1.328-2.621 2.551-5.293 3.974-7.896.907-1.66 1.74-3.559 2.781-5.115 1.132-1.693 2.556-2.883 5.066-3.031 1.251-.072 2.631.051 4.023.051 2.819 0 5.181.096 8.146 0 .917-.029 3.203-.285 3.477.397.23.572-.667 1.922-.993 2.533-5.452 10.215-10.653 20.436-16.094 30.694-1.497 2.822-2.565 5.977-6.358 6.408-1.579.178-3.569.088-5.513.049-2.601-.051-5.559-.049-8.245-.049-.807 0-1.822.211-2.285-.498z"/><path d="m59.852 60.84c-.643.906-2.301.648-3.725.596-2.814-.105-5.394-.051-8.344-.051-1.988 0-4.132.225-5.563-.348-2.343-.936-3.468-3.621-4.619-5.91-.661-1.314-1.435-2.611-2.136-3.873-.689-1.24-1.352-2.598-2.086-3.975-.33-.619-.679-1.279-1.043-1.986-.449-.869-1.65-2.438-.199-2.682 1.135-.191 2.587 0 3.924 0 2.558 0 5.311-.101 7.848 0 2.417.096 4.574-.219 6.159.744 1.861 1.131 2.852 3.371 3.725 5.414.437 1.024 1.022 2.033 1.54 3.029 1.026 1.978 2.035 3.959 3.08 5.961.521 1.001 1.178 1.954 1.439 3.081z"/></g></svg>