<svg enable-background="new 0 0 76.415 35.499" viewBox="0 0 76.415 35.499" xmlns="http://www.w3.org/2000/svg"><path clip-rule="evenodd" d="m53.045.053c.244 1.243.137 2.778.137 4.213 0 .715.004 1.435 0 2.107-.004.671-.061 1.349.184 1.877.754-.168 1.391-.638 2.105-.962 2.023-.914 4.559-1.55 7.648-1.328 3.584.258 6.361 1.951 8.473 3.618 2.037 1.866 3.73 4.293 4.486 7.601.789 3.452.148 7.558-1.465 9.892-2.246.036-4.865.173-7.098 0 .186-.607.646-.988.961-1.466.879-1.332 1.672-3.334 1.557-5.586-.145-2.82-1.5-4.761-3.389-6.183-.965-.727-1.945-1.278-3.297-1.511-4.434-.765-7.936 1.812-9.297 4.762-1.062 2.306-.732 5.168.275 7.053.955 1.785 2.697 3.402 4.672 3.984 2.365.697 5.469.366 8.289.366 2.959 0 5.91-.075 8.563.092.174 1.819.23 4.256 0 6.228-3.609.277-7.832-.02-11.494.092-1.99.061-3.865.092-5.541-.229-1.648-.315-3.039-.879-4.305-1.557-1.738-.857-2.986-2.203-4.352-3.434-.699.45-1.186 1.117-1.785 1.694-2.682 2.577-7.842 4.646-13.189 3.526-1.885-.394-3.447-1.238-4.99-1.924-.315.327-.051 1.232-.275 1.648-1.99.149-4.605.155-6.594 0-.168-2.931-.094-6.072-.092-9.204 0-3.016.369-6.387-.779-8.472-1.514-2.749-4.785-5.112-9.205-4.305-3.531.646-6.273 3.532-6.73 7.19-.354 2.816.74 5.228 2.289 6.777 1.6 1.6 3.881 2.678 6.686 2.565 2.334-.093 4.451-1.131 5.816-2.289.182-.154.355-.525.687-.366.15 2.2.113 4.831.045 7.098-2.287 1.395-5.225 2.067-8.334 1.832-2.961-.225-5.652-1.388-7.465-2.748-3.836-2.879-6.98-7.555-6.09-14.104.377-2.775 1.611-5.304 3.158-7.099 1.635-1.895 3.617-3.257 6-4.213 2.484-.997 5.726-1.423 8.793-.778 3.033.638 5.703 2.269 7.601 4.168.225.225.479.674.824.687.606.021 1.215-1.146 1.604-1.512 2.609-2.46 7.742-4.451 13.051-3.435 1.494.286 3 .652 4.121 1.512.047 2.169.166 4.912-.045 7.006-.691-.138-1.076-.718-1.604-1.053-1.533-.973-3.918-1.813-6.549-1.42-2.891.434-5.334 2.156-6.457 4.442-1.031 2.1-.967 5.023.045 7.189 1.578 3.373 6.408 6.206 11.266 3.984.971-.444 1.891-1.224 2.611-2.016.936-1.028 1.867-2.391 2.016-4.075.156-1.794-.068-3.626-.047-5.449.055-4.472 0-9.102 0-13.784 0-.749-.094-2.315.137-2.656.035-.043.084-.069.139-.092 2.061.031 4.242-.058 6.229.047z" fill-rule="evenodd"/></svg>