<svg enable-background="new 0 0 79.833 74.865" viewBox="0 0 79.833 74.865" xmlns="http://www.w3.org/2000/svg"><path clip-rule="evenodd" d="m39.87 57.642c-.44.437-.364 1.207-.522 1.827-.459 1.805-1 3.66-1.827 5.219-1.055 1.988-2.547 3.68-4.227 5.115-3.362 2.87-7.62 5.062-13.622 5.062-5.856.001-10.267-2.399-13.36-5.323-3.014-2.85-5.732-7.112-6.211-12.474-.275-3.093.024-6.09.783-8.403.762-2.319 1.974-4.275 3.079-6.263 2.267-4.077 4.715-7.916 6.785-11.899 2.112-4.064 4.523-7.957 6.837-11.847 2.334-3.924 4.313-8.055 7.098-11.586 3.442-3.803 7.825-6.585 14.509-7.046 1.652-.114 3.408.199 4.906.522 4.474.965 7.615 3.178 10.282 5.845 1.854 1.855 2.985 4.138 4.384 6.419 4.14 6.755 7.9 13.388 11.899 20.406 1.299 2.281 2.561 4.601 3.914 6.837 2.628 4.344 5.834 9.166 5.167 16.179-.609 6.396-3.513 10.809-7.463 14.039-2.022 1.653-4.339 2.901-7.098 3.653-3.063.836-6.641.95-9.655.313-5.81-1.228-9.787-4.649-12.63-8.872-1.059-1.572-1.942-3.556-2.453-5.637-.167-.673-.269-1.401-.575-2.086zm.417-7.724c.519-2.067 1.486-3.946 2.349-5.897 2.537-5.741 4.976-11.62 7.463-17.275.875-1.991 1.765-3.85 1.827-6.42.062-2.584-.621-4.736-1.723-6.524-1.581-2.565-3.829-4.38-6.993-5.376-3.457-1.088-7.39-.059-9.603 1.357-2.966 1.896-5.418 4.903-5.637 9.446-.121 2.529.578 4.295 1.357 6.21 2.076 5.104 4.579 10.696 6.733 15.866 1.187 2.849 2.502 5.566 3.236 8.663.143.604.128 1.442.522 1.723.34-.317.319-1.176.469-1.773zm17.589-22.077c-2.706 6.192-5.364 13.083-8.089 19.571-.9 2.143-2.044 4.475-2.036 7.203.01 3.556 1.402 6.021 3.079 8.037 1.53 1.791 3.469 3.071 6.002 3.705 2.845.712 6 .164 8.194-.835 2.127-.968 3.791-2.573 5.062-4.645 1.237-2.016 2.09-4.802 1.67-7.881-.373-2.738-1.786-4.729-2.871-6.837-1.113-2.166-2.281-4.112-3.549-6.211-1.169-1.936-2.303-4.084-3.497-6.21-.843-1.5-1.795-3.066-2.662-4.645-.323-.588-.616-1.461-1.096-1.409-.105.016-.101.142-.207.157zm-37.525 1.722c-1.966 3.864-4.314 7.606-6.315 11.221-1.203 2.174-2.423 4.172-3.601 6.42-1.182 2.255-2.453 4.318-2.453 7.567 0 3.202 1.109 5.524 2.558 7.463 1.478 1.98 3.394 3.358 5.898 4.123 6.232 1.904 11.408-1.374 13.725-5.167 1.399-2.289 2.406-5.792 1.514-9.186-.381-1.448-.955-2.706-1.565-4.123-.589-1.366-1.068-2.8-1.618-4.123-1.093-2.632-2.351-5.413-3.392-8.037-.799-2.014-1.575-4.055-2.505-6.054-.245-.526-.676-1.751-1.148-1.774-.433.341-.799 1.082-1.098 1.67z" fill-rule="evenodd"/></svg>