<svg enable-background="new 0 0 85.863 82.266" viewBox="0 0 85.863 82.266" xmlns="http://www.w3.org/2000/svg"><g clip-rule="evenodd" fill-rule="evenodd"><path d="m61.738 13.197c.683.492 1.5.85 1.918 1.607-.37 1.053-1.155 1.91-1.814 2.799-1.292 1.742-2.484 3.551-3.784 5.34-.645.887-1.173 1.865-1.814 2.746-1.904 2.619-3.896 5.205-5.806 7.879-.668.938-1.385 2.074-2.177 2.801-.802.734-1.745 1.256-2.747 1.969-.377.268-.842.615-1.348.984-.407.299-1.092.871-1.452.883-.405.012-1.101-.592-1.555-.934-1.396-1.051-2.992-1.949-4.199-3.109-.742-.715-1.345-1.889-2.021-2.801-3.867-5.207-7.713-10.596-11.56-15.861-.646-.885-1.375-1.768-1.763-2.799.313-.816 1.08-1.115 1.814-1.66.376-.277 1.527-1.299 2.126-1.295.427.002 1.133.572 1.555.881 1.374 1.004 2.738 2.303 4.303 2.955 1.142-.312 1.969-1.183 2.851-1.814.896-.641 1.924-1.186 2.54-2.125 0-1.975 0-4.072 0-6.168 0-.676-.092-1.439.104-1.918.295-.723 1.843-1.451 2.437-1.867.876-.613 1.568-1.395 2.592-1.555.551.35.363 1.172.363 1.814-.001 10.598-.058 21.004-.052 31.879-.278.582-.777.807-1.348 1.244-.347.268-1.296.764-1.296 1.244 0 .484.905.9 1.296 1.193.388.291 1.006.973 1.503.984.504.012 1.287-.699 1.606-.934.548-.402 1.043-.719 1.296-1.191-.314-.996-1.757-1.156-2.073-2.074-.239-.693-.001-2.195 0-3.109.016-8.51 0-18.158 0-27.682 0-.973-.131-2.902.207-3.42.484-.326 1.077.393 1.452.674.37.277.733.557 1.141.828.79.529 1.9 1.057 2.177 1.762.364.934.104 2.871.104 4.045 0 1.197-.198 2.922.104 3.99.226.797 1.972 1.768 2.592 2.23.509.377.885.66 1.399 1.035.37.269 1.039.865 1.504.883.429.014 1.158-.594 1.503-.83 1.078-.742 1.593-1.232 2.644-2.022.371-.279 1.072-.828 1.504-.83.971-.001 1.369.95 2.174 1.349zm-23.638-4.717c-.02 1.293.283 2.986-.104 3.992-.235.611-1.422 1.279-2.021 1.709-1.371.986-2.969 2.17-4.354 3.111-.418.283-1.767 1.457-2.333 1.398-.434-.043-.843-.732-1.14-1.139-.723-.99-1.227-1.686-1.918-2.645-.307-.424-.584-1.166-1.141-1.191-.496-.023-1.584.719-1.607 1.242-.017.375.437.92.778 1.4.933 1.314 1.992 2.652 2.799 3.785 3.06 4.299 6.162 8.453 9.175 12.75.421.602 1.407 2.305 2.073 2.334.694.029 2.285-1.381 2.437-1.918.264-.938.07-2.387.052-3.473-.118-7.072.053-14.744.052-22.395 0-1.086 0-1.355 0-2.592 0-.377.245-2.555-.569-2.178-.721.334-1.643 1.031-2.074 1.711-.202 1.304-.083 2.687-.105 4.099zm6.583-5.651c-.166.326-.104 1.189-.104 1.918 0 8.559-.051 16.318-.052 24.934 0 1.32-.203 3.006.104 3.836.183.492 1.773 1.812 2.385 1.762.603-.049 1.567-1.726 2.021-2.332 1.927-2.57 3.635-5.121 5.547-7.516.647-.812 1.255-1.641 1.866-2.488.597-.828 1.039-1.768 1.71-2.645.564-.736 1.163-1.621 1.814-2.539.356-.502 1.764-1.938 1.711-2.645-.029-.396-.461-.58-.726-.777-.256-.189-.62-.594-.985-.57-.475.031-1.088.959-1.399 1.4-.431.611-.81 1.117-1.141 1.658-.419.685-.846 1.771-1.555 1.814-.398.024-.878-.402-1.244-.674-1.204-.895-2.307-1.654-3.369-2.488-.717-.562-1.422-1.07-2.229-1.658-.718-.523-1.906-1.105-2.125-1.814-.314-1.021-.052-2.707-.052-4.043 0-1.449.257-3.006-.104-3.939-.253-.656-1.044-1.068-1.918-1.35-.073.029-.125.082-.155.156zm-17.053 11.405c.15.488.562.897.933 1.398.355.484.629 1.184 1.192 1.193.322.006.784-.338.777-.674-.008-.377-.757-.85-1.244-1.193-.648-.455-1.087-.826-1.658-.932.005.141-.087.104 0 .208zm29.91-.207c-.838.752-2.095 1.084-2.593 2.178.729 1.598 1.873-.344 2.281-.883 0-.486.707-.967.362-1.295-.016 0-.033 0-.05 0z"/><path d="m20.528 15.271c.044-.01.049.019.052.051.581.152.818.746 1.14 1.193.936 1.297 2.028 2.596 2.955 3.99 1.208 1.82 2.695 3.482 3.939 5.34 2.12 3.166 4.562 6.268 6.791 9.486.333.48.757.98.985 1.451.64 1.322 1.022 3.145 1.555 4.77.171.521.484 1.219.415 1.658-.072.453-.893.953-1.349 1.297-1.082.814-2.013 1.383-3.058 2.176-.513.391-1.047.918-1.607 1.141-1.944.773-4.112 1.264-6.116 1.971-4.035 1.422-8.093 2.428-12.285 3.836-.938.314-1.927.609-3.059.984-.803.266-2.4 1.016-3.059.83-.652-.185-.875-1.654-1.089-2.334-.283-.9-.819-1.994-.674-2.642.115-.51.816-.885 1.244-1.193.99-.713 1.837-1.268 2.852-2.021.416-.309 1.123-.715 1.191-1.191.08-.557-.314-1.133-.466-1.607-.362-1.135-.623-1.981-.985-3.059-.182-.543-.288-1.34-.726-1.711-.418-.354-1.193-.48-1.866-.725-1.343-.49-2.436-.904-3.836-1.348-.66-.209-1.482-.383-1.815-.727-.479-.496-.754-1.957-.984-2.645-.29-.861-.696-1.742-.674-2.85.726-.188 1.472.172 2.125.414 1.955.725 4.02 1.379 6.065 2.021 6.718 2.113 13.306 4.65 20.164 6.895.602.197 1.303.424 2.021.674.7.244 1.601.436 1.918.777.637.686.445 2.334 1.296 2.801.649-.125 1.162-.625 1.711-1.037.427-.322 1.311-.783 1.399-1.348.092-.592-.284-1.264-.467-1.867-.176-.584-.292-1.281-.777-1.504-.621.078-1.044.541-1.503.883-.433.32-.968.822-1.504.881-.538.059-1.472-.354-2.125-.57-7.431-2.461-14.584-5.035-22.082-7.518-1.844-.609-3.961-1.344-6.065-2.021-.545-.174-1.701-.496-1.763-.881-.073-.459.7-.883.985-1.088.399-.289.864-.586 1.192-.83.791-.584 1.713-1.517 2.488-1.607.701-.08 1.32.324 2.022.572 1.411.494 2.448.836 3.888 1.295.713.227 1.392.627 2.022.57.99-.088 2.053-1.447 2.8-1.971.443-.31.873-.617 1.399-.984.389-.271 1.162-.609 1.244-1.141.075-.49-.274-1.268-.415-1.711-.357-1.123-.633-2.061-1.037-3.213-.197-.565-.503-1.131-.414-1.607.124-.67 1.032-1.109 1.762-1.608.881-.597 1.445-1.144 2.18-1.398zm-13.477 15.498c6.01 2.035 12.072 4.17 18.143 6.273 1.685.584 3.747 1.105 5.495 1.814.591.238 1.426.608 1.97.518.433-.072.819-.518 1.244-.83.419-.309 1.017-.621 1.036-1.088.013-.297-.485-.986-.777-1.4-4.265-6.023-8.517-11.838-12.855-17.883-.253-.352-.71-.998-1.244-.984-.412.01-1.342.885-1.503 1.295.846 1.342 1.72 2.582 2.695 3.889.286.383.874.908.829 1.398-.032.356-.593.736-.933.986-1.959 1.439-3.777 2.635-5.702 3.99-.61.432-1.422 1.502-2.281 1.607-.59.074-1.391-.316-2.021-.518-1.375-.439-2.521-.793-3.888-1.244-.72-.238-1.441-.639-2.021-.57-.371.043-.722.353-1.037.57-.33.226-.728.387-.726.881 1.073.708 2.376.892 3.576 1.296zm12.337-6.582c.412-.037.637-.264.777-.57-.42-1.049-1.026-1.91-1.815-2.592-.034 0-.068 0-.103 0 .142 1.086.43 2.47 1.141 3.162zm11.766 19.023c-.275-.252-1.01-.516-1.658-.727-4.308-1.391-8.473-2.881-12.648-4.25-1.201-.393-2.374-.865-3.576-1.244-2.497-.785-4.753-1.527-7.206-2.436-1.239-.459-2.639-1.021-3.732-1.141-.091-.01-.18.047-.207.104-.269.596.286 1.58.519 2.178 1.7.891 3.926 1.508 5.909 2.125.552.172 1.538.471 1.866.828.44.482.69 1.816.933 2.541.304.904.641 1.803.882 2.592.574 1.879 1.213 3.471 1.555 5.391-.763.686-1.948.865-3.058 1.193-1.081.318-2.258.605-3.007 1.244.043.889.266 1.6.725 2.072 1.082-.062 2.092-.479 3.11-.777 2.96-.867 5.878-1.963 8.864-2.851 2.993-.889 6.035-1.779 8.916-2.799.931-.33 2.014-.469 2.747-1.191-.111-.91-.268-2.242-.934-2.852zm-19.905 4.199c-.616.371-1.505 1.021-1.866 1.555.207.254.733-.061 1.244-.207.88-.252 1.742-.416 1.141-1.297-.146-.041-.452-.092-.519-.051z"/><path d="m85.221 30.822c-.552.481-1.303.52-1.971.725-4.644 1.435-9.354 3.201-14.151 4.562-2.646.752-5.366 1.732-8.138 2.592-2.058.637-3.889 1.254-6.065 1.969-.66.219-1.528.611-2.073.572-.506-.037-1.078-.525-1.503-.83-.329-.236-.995-.91-1.451-.83-.503.088-1.307 2.68-1.192 3.266.127.658.886.961 1.399 1.348.545.412 1.175 1.115 1.711 1.037.412-.059.67-.973.829-1.451.218-.658.348-1.338.674-1.607.384-.316 1.302-.455 2.021-.674 4.642-1.406 9.544-3.24 14.203-4.561 2.841-.807 5.54-1.721 8.139-2.592 2.028-.682 4.015-1.338 6.064-1.971.657-.203 1.412-.527 2.126-.311.122 1.031-.323 1.816-.622 2.748-.245.76-.424 2.014-.985 2.59-.372.385-1.107.522-1.763.727-1.305.408-2.367.795-3.732 1.244-.616.203-1.382.32-1.762.674-.306.283-.535 1.146-.726 1.711-.427 1.262-.726 2.215-1.192 3.576-.175.51-.584 1.309-.519 1.867.058.488.771.83 1.192 1.141.99.728 1.638 1.338 2.644 2.021.465.314 1.021.574 1.141 1.139.15.713-.384 1.727-.622 2.438-.273.814-.476 1.67-.985 2.125-1.129-.004-2.145-.529-3.162-.881-1.02-.354-2.046-.695-3.058-1.037-4.088-1.381-8.181-2.604-12.338-4.043-.989-.344-2.044-.715-3.058-1.037-1.05-.334-2.138-.582-3.059-1.037-.612-.301-1.109-.697-1.659-1.088-.983-.697-1.993-1.438-3.11-2.281-.504-.381-1.241-.869-1.348-1.348-.174-.783.656-2.363.934-3.266.345-1.127.65-2.229 1.088-3.162.441-.939 1.242-1.889 1.918-2.799 1.357-1.828 2.632-3.465 3.992-5.34.651-.899 1.449-1.723 2.021-2.643.295-.477.49-.986.829-1.451 1.576-2.164 3.116-4.217 4.769-6.48.423-.578 1.538-2.461 2.333-2.541 1.372.893 2.822 1.705 3.784 3.008-.295 1.762-.885 3.123-1.399 4.82-.157.519-.441 1.219-.363 1.711.077.484.825.926 1.192 1.191 1.024.746 1.67 1.176 2.695 1.971.414.32.977.836 1.452.881.569.055 1.382-.301 2.022-.518 1.938-.66 3.889-1.285 5.806-1.814 1.043.363 1.826 1.195 2.695 1.814.41.291.92.564 1.348.881.394.29.929.681.985 1.244zm-3.836-1.608c-.356-.26-.747-.633-1.192-.674-.521-.049-1.393.291-2.021.52-1.362.49-2.477.816-3.836 1.242-.623.197-1.462.568-2.022.519-.402-.035-.981-.441-1.295-.674-2.013-1.488-3.597-2.67-5.65-4.199-.487-.363-2.065-1.205-2.073-1.918-.006-.451.561-.967.829-1.348.73-1.043 1.051-1.447 1.814-2.539.236-.34.811-1.029.777-1.4-.044-.477-1.387-1.475-1.866-1.191-.636.373-1.349 1.666-1.918 2.435-3.687 4.984-7.201 10.209-10.834 15.033-.615.816-1.417 1.604-1.711 2.643.178.551.647.789 1.141 1.141.418.297.935.834 1.451.881.5.047 1.242-.316 1.866-.518 4.288-1.383 8.724-2.781 12.855-4.146 4.274-1.414 8.701-2.721 12.855-4.096.58-.191 1.289-.234 1.711-.727-.09-.517-.538-.732-.881-.984zm-16.07-5.234c.045.293.408.543.674.518.531-.049.91-1.606 1.036-2.074.064-.238.238-.709-.052-.828-.421.194-1.736 1.878-1.658 2.384zm10.73 12.232c-6.029 1.92-12.101 3.836-18.091 5.754-.531.17-1.119.439-1.763.623-.701.197-1.436.336-1.762.621-.66.578-.8 2.119-1.089 2.902.217.549.849.525 1.296.674 3.449 1.149 6.92 2.328 10.367 3.475 2.98.99 6.012 1.889 8.968 2.902 1 .342 1.994.801 3.059.934.479-.281.685-.836.726-1.557-.591-.719-1.714-.932-2.799-1.295-.589-.197-2.676-.629-2.8-1.297-.128-.693.605-1.982.83-2.746.573-1.949 1.174-3.584 1.762-5.496.226-.73.484-2.182.934-2.695.343-.391 1.164-.537 1.763-.725 1.931-.609 4.061-1.24 5.649-1.971.199-.611 1.139-1.938.415-2.435-2.447.619-4.943 1.529-7.465 2.332zm-1.607 12.235c-.35.045-.465.398-.415.674.079.43.678.523 1.141.674.479.156.952.494 1.348.258-.319-.347-1.443-1.688-2.074-1.606z"/><path d="m47.275 15.788c.045-.01.05.022.053.053 1.903 1.082 3.499 2.504 5.339 3.836.514.371 1.524.824 1.555 1.451.02.383-.479.965-.777 1.348-1.836 2.348-3.511 4.76-5.287 7.152-.275.373-.509.965-1.089.986-.263-.418-.155-.984-.155-1.504 0-3.254 0-6.932 0-10.42 0-.949-.126-1.934.155-2.799.076-.025.13-.075.206-.103zm1.193 3.162c-.245.504-.133 1.176-.104 1.867.043 1.023-.209 2.289.259 2.799.778-.111 1.155-.596 1.763-1.037.414-.299 1.451-.805 1.452-1.348 0-.533-.951-.963-1.452-1.348-.606-.467-1.068-1.086-1.763-1.09-.074.03-.126.083-.155.157zm2.488 4.25c-.921.549-1.876 1.062-2.54 1.867-.032.463-.229 1.402.26 1.504.621-.305.936-1.01 1.348-1.557.407-.541.998-1.1 1.036-1.814-.035 0-.069 0-.104 0z"/><path d="m37.634 16.099h.104c.45.346.311 1.027.311 1.557v9.33c0 1.223.158 2.459-.207 3.473-.55-.082-.752-.666-1.037-1.037-1.438-1.869-2.832-3.902-4.251-5.857-.565-.779-1.312-1.5-1.555-2.488.219-.637.92-.998 1.451-1.398 1.548-1.168 3.351-2.488 4.977-3.525.067-.045.169.011.207-.055zm-3.058 3.939c-.553.385-1.227.685-1.399 1.244.32.625.957 1.004 1.503 1.4.536.391 1.129.949 1.918 1.037.341-.574.207-1.512.207-2.385 0-.879.023-1.791-.155-2.436-.825-.106-1.441.701-2.074 1.14zm.259 3.836c-.071-.002-.113.025-.155.053v.156c.616.801.938 1.896 1.918 2.332.591-1.429-.849-2.105-1.763-2.541z"/><path d="m30.999 36.265c-.613.316-1.303-.142-1.866-.312-3.642-1.088-7.308-2.508-11.041-3.68-.566-.178-1.255-.299-1.606-.83.28-.654 1.019-1.033 1.606-1.451.588-.416 1.223-.809 1.814-1.244 1.219-.899 2.325-1.899 3.576-2.539.689-.354 1.888 1.777 2.281 2.332 1.531 2.164 3.03 4.221 4.561 6.324.291.398.723.855.675 1.4zm-6.998-5.807c-.218-.658-.394-2.045-1.088-2.072-.658.358-1.119.68-1.918 1.242-.395.279-1.566.914-1.504 1.4.072.555 1.968.969 2.437 1.141.926.34 1.82.865 2.643.621.179-.662-.272-1.433-.57-2.332zm2.333 1.451c-.444-.578-.844-1.178-1.296-1.711-.142.006-.104-.086-.208 0-.04.012-.059.045-.052.104.421 1.568.514 3.738 2.592 3.475-.021-.756-.624-1.33-1.036-1.868z"/><path d="m54.637 36.316c-.159-.52.333-.85.57-1.191.493-.711.974-1.406 1.503-2.125.887-1.207 1.665-2.553 2.592-3.785.631-.838 1.363-2.15 2.021-2.539.588-.348 1.645.65 2.178 1.037 1.194.863 2.236 1.688 3.524 2.59.374.264 1.617 1.055 1.608 1.453-.011.422-1.046.668-1.556.828-3.026.951-5.925 1.928-8.863 2.852-1.155.362-2.321.983-3.577.88zm8.657-4.147c.511-.166 1.974-.4 2.021-.934.045-.5-.892-.902-1.348-1.244-.693-.516-1.174-1.201-1.867-.932-.465 1.021-1.006 2.24-1.036 3.523.647.269 1.44-.157 2.23-.413zm-2.645-1.918c-.438.303-.94 1-1.348 1.555-.381.517-.846 1.096-.933 1.66 1.319.289 1.814-.58 2.125-1.607.159-.527.478-1.209.207-1.557-.002-.031-.007-.061-.051-.051z"/><path d="m16.692 48.29c-.598-.363-.723-1.207-.934-1.867-.447-1.395-.883-2.797-1.244-4.354-.161-.697-.663-1.445-.311-2.125 1.222.109 2.436.729 3.681 1.141 2.675.885 5.624 1.873 8.449 2.852.307.105 1.457.342 1.451.777-.006.438-2.213 1.017-2.592 1.141-1.967.631-3.777 1.088-5.65 1.709-.901.301-1.795.793-2.85.726zm-.674-5.961c.037.824.283 1.297.518 2.072.154.512.37 1.635.882 1.711.514.078 1.322-.75 1.711-1.037.598-.439 1.178-.686 1.451-1.295-.404-.568-1.279-.652-2.021-.934-.732-.275-1.603-.666-2.333-.674-.106.017-.102.142-.208.157zm5.702 1.815c-.497.15-1.583 1.045-1.71 1.504.542.148 1.097-.199 1.606-.363.521-.17 1.249-.143 1.452-.674-.282-.428-.84-.621-1.348-.467z"/><path d="m71.432 40.618c-.08.885-.343 1.578-.57 2.281-.467 1.445-.844 2.684-1.399 4.25-.188.531-.401 1.752-.933 1.867-.365.078-1.055-.264-1.504-.416-2.958-.994-5.516-1.832-8.553-2.799-.462-.147-1.199-.293-1.244-.621-.071-.525 1.025-.766 1.399-.883 1.763-.543 3.548-1.148 5.184-1.658 2.631-.82 4.674-1.644 6.946-2.178.217-.05.533-.069.674.157zm-5.132 2.696c-.531.164-1.991.551-2.021.984-.029.422 1.235 1.186 1.606 1.451.436.312 1.405 1.246 1.919 1.09.473-.145.784-1.566.881-1.865.269-.836.497-1.359.467-2.23-.954-.165-1.745.23-2.852.57zm-2.281 1.97c-.689-.523-1.684-1.127-2.333-.156.271.479.96.5 1.503.674.549.176 1.144.51 1.711.414-.022-.355-.498-.641-.881-.932z"/><path d="m16.589 81.57c.124-.877.752-1.252 1.14-1.865 3.071-4.203 6.184-8.535 9.486-12.961 2.733-3.66 5.543-7.445 8.294-11.299.399-.56.813-1.35 1.296-1.504 1.044-.336 2.793.318 3.474-.311-.085-1.219-.455-2.582-1.141-3.369-1.182-.055-2.843-.15-3.939.051-.265 1.168.701 1.863.622 2.852-.047.576-.848 1.35-1.192 1.814-1.249 1.682-2.466 3.709-3.732 5.131-4.207 5.787-8.704 12.086-13.167 17.988-.231.307-.537.791-.933 1.295-.262.334-.779 1.107-1.089 1.09-.555-.033-1.103-2.342-1.244-2.904-.236-.938-.351-1.668-.57-2.539.792-1.912 2.023-3.271 3.267-4.926.379-.504.957-1.152 1.036-1.658.1-.635-.253-1.379-.415-1.865-.375-1.135-.61-2.242-1.036-3.473-.167-.482-.409-1.266-.777-1.453-.688-.346-2.163-.104-3.214-.104-1.034 0-2.418.215-3.11-.154-.514-.275-.704-1.467-.934-2.228-.254-.848-.691-1.615-.674-2.438.778-.721 1.899-.889 2.903-1.191 2.064-.625 4.061-1.467 6.116-2.074 4.161-1.229 8.319-2.605 12.493-3.887 1.088-.334 2.242-.84 3.317-.934 1.222-.107 2.419 0 3.681 0 1.082 0 2.76-.252 3.473.154.64.365.884 1.777 1.141 2.594.311.986.626 1.799.881 2.799.001 7.748 0 16.299 0 24.414 0 .953.208 2.852-.207 3.266-.404.404-1.713.207-2.437.207-.872.002-1.996.084-2.436-.207-.594-.393-.947-2.469-1.191-3.213-.375-1.141-.675-2.434-1.244-3.162-1.276-.096-2.683-.104-4.251-.104-.881 0-1.937-.158-2.592.051-.445.143-1.021 1.045-1.399 1.555-.932 1.256-1.547 2.111-2.437 3.371-.383.541-.917 1.348-1.399 1.502-.859.275-2.015.053-3.11.053-1.022-.001-2.156.208-2.75-.364zm.725-21.151c.608 1.84 1.093 3.412 1.71 5.34.218.678.841 2.031.778 2.748-.052.58-.718 1.248-1.089 1.762-.86 1.189-1.623 2.15-2.488 3.266-.414.535-1.058 1.383-1.089 1.814-.034.484.377 2.154.934 2.178.477.02 1.042-1.023 1.296-1.348.416-.535.748-1.031 1.141-1.555 3.84-5.096 7.931-10.881 11.922-16.277.928-1.256 1.954-2.709 2.955-4.096.353-.488.881-1 .933-1.451.071-.617-.197-1.065-.414-1.711-.246-.731-.38-1.156-.985-1.141-.809.021-2.148.633-3.007.881-1.079.314-2.007.609-2.954.934-3.989 1.369-7.839 2.426-11.715 3.732-1.467.494-2.911 1.022-4.354 1.451-.432.129-1.061.209-1.244.727-.071.693.274 1.418.674 1.814 2.297-.209 3.659-1.352 5.961-1.557.633.632.747 1.62 1.035 2.489zm20.164-5.183c-.561.145-.817.721-1.244 1.297-5.342 7.221-10.945 15.051-16.121 21.978-.305.547-.987.975-.933 1.711.62.234 1.72.422 2.488.156.451-.158 1.002-1.037 1.348-1.504.906-1.227 1.504-2.08 2.436-3.318.372-.494.898-1.344 1.4-1.502.729-.23 1.931-.053 2.695-.053h5.599c.881 0 1.809-.123 2.644.156.47 1.742-.189 4.613.362 6.271.521.207 1.937.381 2.333-.051.331-.363.178-2.119.207-2.904.042-1.127-.016-2.16-.052-3.059-.087-2.176.052-4.371.052-6.375 0-2.102 0-4.246 0-6.324 0-2.184.121-4.469-.155-6.324-.794-.21-2.082-.403-3.059-.155zm-21.823 5.132c.241-1.244-2.165-.176-2.384.104.377.5 2.275.459 2.384-.104zm20.787 17.055c.28-.4.271-1.416.052-1.867-1.291-.492-.61 1.648-.052 1.867z"/><path d="m50.23 50.468c-.809-.506-2.7-.201-3.836-.207-.811.695-1.071 2.205-1.296 3.316.681.736 2.466.051 3.577.414.412.137.863.842 1.244 1.348 1.075 1.435 2.219 3.043 3.214 4.406 1.479 2.031 2.856 3.996 4.146 6.014.868 1.357 1.866 2.73 2.851 4.043 2.442 3.258 4.968 6.52 7.258 9.953.445.668 1.136 1.271 1.192 2.125-.6.561-1.768.291-2.8.312-1.016.02-2.178.184-3.006-.053-.576-.164-1.074-1.02-1.452-1.555-1.198-1.703-2.465-3.73-3.783-5.08-2.248-.053-4.762-.109-6.998 0-.678.82-.938 2.131-1.296 3.316-.349 1.152-.696 2.373-1.348 3.215-1.462.02-3.376.227-4.562-.104-.354-.988-.207-2.113-.207-3.215-.001-6.775.001-13.652 0-20.424 0-1.156-.114-2.322.052-3.369.155-.975.667-2.006.985-3.059.36-1.195.614-3.062 1.866-3.213.753-.092 1.91 0 3.006 0 1.267 0 2.589-.082 3.474.104 1.021.215 2.112.689 3.214 1.037 1.044.328 2.103.719 3.11 1.088 2.012.74 4.303 1.383 6.323 2.074 3.003 1.025 6.193 2.107 9.435 3.162.841.273 2.663.76 2.903 1.295.299.668-.304 1.689-.519 2.385-.214.689-.383 1.834-.985 2.125-.71.344-2.266.104-3.059.104-1.106 0-2.112-.041-3.058.053-.733.789-1.123 2.127-1.504 3.42-.169.576-.366 1.23-.569 1.867-.192.596-.548 1.391-.519 1.918.036.664.695 1.207 1.036 1.658.427.564.742 1.062 1.089 1.607.367.533.719.973 1.141 1.555.327.451 1.062 1.16 1.088 1.762.021.477-.274 1.107-.414 1.504-.141.4-.293.875-.467 1.4-.217.654-.627 2.508-1.192 2.539-.528.029-1.445-1.6-1.711-1.969-2.539-3.539-5.218-7.012-7.671-10.576-.475-.688-.974-1.422-1.504-2.125-.51-.676-1.154-1.365-1.555-2.072-.175-.309-.274-.678-.363-.83-.506-.869-1.233-1.689-1.866-2.592-1.521-2.17-3.018-4.105-4.613-6.428-.309-.449-.754-.977-.777-1.4-.056-1.014.861-1.875.726-2.848zm25.556 7.826c-.19-.537-1.83-.908-2.695-1.191-5.912-1.932-11.878-4.096-17.677-5.91-.992-.311-1.967-.795-2.954-.984-.149-.029-.167.02-.26.053-.484.172-1.216 2.369-1.141 2.953.075.574.949 1.394 1.4 2.021 1.107 1.545 1.917 2.647 2.902 4.045.494.701 1.055 1.354 1.451 2.022.146.244.21.527.363.777.639 1.041 1.518 1.996 2.228 3.006 2.179 3.094 4.474 6.334 6.636 9.227.454.701.973 1.383 1.451 2.074.468.676.896 1.49 1.659 1.865.539-.59.923-1.686.829-2.385-.07-.521-.702-1.17-1.037-1.658-.797-1.16-1.456-2.004-2.229-3.162-.345-.518-.949-1.158-.985-1.709-.052-.801.565-1.994.829-2.801.622-1.896 1.197-3.699 1.763-5.494.284-.902.461-1.916 1.141-2.539 2.131.27 3.552 1.25 5.65 1.555.436-.38.899-1.134.676-1.765zm-10.989 20.424c-.364-.529-.776-1.037-1.141-1.555-1.513-2.148-2.931-4.23-4.51-6.271-.778-1.008-1.602-2.059-2.229-3.162-1.246-2.199-2.938-4.117-4.457-6.324-.702-1.02-1.534-2.061-2.281-3.111-.537-.754-1.561-2.668-2.437-2.955-.56-.182-2.015-.242-2.644-.104-.857.192-.622 1.705-.622 2.852v19.232c0 1.072-.112 2.23.155 3.109.395.324 1.578.289 1.918-.051.535-1.678-.136-4.561.415-6.221 2.449-.314 4.786-.104 7.361-.104.992 0 2.924-.223 3.783.051.501.16 1.025 1.014 1.4 1.504.983 1.287 1.543 2.244 2.436 3.473.353.486.92 1.402 1.399 1.555.364.117.775.018 1.192 0 .411-.017.922.102 1.141-.207.022-.668-.527-1.197-.879-1.711zm5.339-17.936c.045.523 1.636.508 2.021.156-.256-.452-2.092-.99-2.021-.156zm-21.72 14.827c-.296.346-.183 1.057-.155 1.658.022.508-.141 1.111.207 1.348.434-.807.994-1.994.882-3.006-.18-.153-.754-.153-.934 0z"/><path d="m30.637 53.423c.099.617-.436 1.158-.778 1.605-1.865 2.44-3.548 4.861-5.442 7.414-.316.424-.703.959-1.089 1.502-.305.43-.751 1.348-1.244 1.297-.546-.059-.752-1.482-.881-1.867-.505-1.502-.817-2.561-1.296-4.146-.179-.59-.686-1.48-.519-2.074.17-.601 1.642-.935 2.437-1.191 1.117-.359 1.975-.57 2.799-.83 2.069-.65 3.736-1.314 5.495-1.762.108-.028.397-.133.518.052zm-5.703 3.16c-.588.189-1.24.373-1.504.727.463.289 1.705.293 2.436.207.727-.086 1.135-.687 1.192-1.295-.615-.309-1.393.127-2.124.361zm-1.918 1.66c-.677.008-1.49-.219-1.763.311.059.76.283 1.238.519 1.971.154.482.332 1.652.829 1.709.298.035.716-.514.881-.725.276-.354.481-.729.674-.984.517-.688 1.155-1.195 1.192-2.021-.472-.436-1.476-.272-2.332-.261z"/><path d="m65.885 57.413c-.198 1.65-.709 2.779-1.191 4.303-.199.627-.391 1.271-.674 2.074-.106.299-.459 1.754-.882 1.814-.606.084-1.28-1.361-1.606-1.814-1.4-1.955-2.923-3.951-4.354-5.807-.528-1.269-1.494-2.346-2.281-3.473-.179-.258-.554-.699-.259-1.037.982.018 2.012.549 3.059.934 1.8.662 3.749 1.246 5.599 1.865.927.313 1.975.464 2.589 1.141zm-7.827-1.191c-.012.039-.001.102-.052.104.225.686.624 1.432 1.504 1.504.767.061 2.191.078 2.487-.312-.992-.509-2.748-1.288-3.939-1.296zm5.753 2.539c-.713-.32-2.148-.242-3.162-.156-.322.029-.662-.047-.829.209.222.789.792 1.4 1.244 2.021.438.602.843 1.361 1.555 1.711.691-.918 1.097-2.393 1.244-3.682-.04-.011-.059-.042-.052-.103z"/><path d="m47.12 58.554h.104c1.609 1.922 3.012 4.018 4.458 6.065.729 1.031 1.475 2.057 2.178 3.111.694 1.041 1.661 1.934 2.073 3.162-.621.277-1.412.154-2.177.154-.76 0-1.559 0-2.333 0-1.559 0-3.176.123-4.458-.154-.183-3.859-.188-8.225 0-12.234.038-.049.094-.079.155-.104zm2.073 7.619c.228-.648.608-1.268.519-1.865-.05-.336-.709-1.311-1.14-1.297-.075.029-.127.082-.156.156-.121.797-.153 1.951-.104 2.748.042.67-.182 1.49.207 1.918.347-.332.447-1.006.674-1.66zm.26 1.504c-.206.652-.55 1.391-.363 1.918 1.157.121 3.207.283 4.199-.104-.203-.732-.729-1.348-1.244-2.074-.375-.525-.974-1.77-1.711-1.865-.414.436-.622 1.307-.881 2.125z"/><path d="m37.738 59.281c.431.52.203 1.295.207 1.969.015 2.92.102 6.564-.104 9.59-1.156.363-2.791.207-4.303.207-.763 0-1.539.018-2.281 0-.695-.016-1.459.059-1.97-.258.047-.648.539-1.133.882-1.607 2.364-3.281 4.792-6.668 7.309-9.9.118.07.195-.135.208 0 .017-.001.035-.001.052-.001zm-1.192 6.841c.298-.613.135-1.869 0-2.541-1.236.125-.629 2.186 0 2.541zm-.674 1.192c-.152-.502-.388-1.787-.985-1.762-.426.018-1.273 1.393-1.659 1.918-.482.656-1.147 1.395-1.088 2.074.488.266 1.335.154 2.125.154.778 0 1.676.139 2.073-.26-.005-.726-.218-1.302-.466-2.124z"/></g></svg>