<svg enable-background="new 0 0 51.729 59.664" viewBox="0 0 51.729 59.664" xmlns="http://www.w3.org/2000/svg"><path d="m16.47 2.02c1.359-2.007 4.327-2.67 6.358-1.293 1.635 1.02 2.644 2.865 2.912 4.744.374-1.914 1.365-3.825 3.099-4.83 2.04-1.271 4.938-.572 6.264 1.406 1.952 2.712 1.108 6.806-1.512 8.778 2.939-1.342 6.684-.738 8.981 1.551 1.775 1.784 2.069 4.572 1.389 6.905-1.066 3.391-5.461 5.121-8.593 3.51-1.294-.655-2.272-1.817-2.89-3.113 1.246.626 2.822.993 4.094.234 2.142-1.227 2.227-4.568.302-6.039-1.923-1.643-5.403-.711-6.101 1.766-.658 2.411.308 4.886 1.325 7.051 3.351 7.196 6.463 14.501 9.898 21.659 1.344 2.822 2.602 5.686 3.929 8.516 1.111 2.073 3.829 1.686 5.805 1.778-.006 1.524-.004 3.048-.001 4.572-1.833-.064-3.705.2-5.507-.221-2.473-.643-4.244-2.767-5.166-5.061-.657 2.149-2.113 4.11-4.156 5.11-1.649.832-3.608.738-5.343.249-2.813-.759-4.598-3.87-4.076-6.683.342-1.374 1.7-2.429 3.128-2.335 1.573.035 2.948 1.438 2.955 3.013.076 1.641-1.326 3.133-2.955 3.221 1.378.528 3.113.544 4.275-.477 2.345-2.265 2.137-6.612-.423-8.653-2.424-1.977-5.696-2.48-8.737-2.478-2.922.021-6.071.446-8.419 2.335-2.505 1.967-2.902 6.054-.898 8.496 1.118 1.291 3.064 1.363 4.561.774-1.755-.056-3.172-1.797-2.884-3.525.176-1.463 1.494-2.703 2.981-2.709 1.49-.075 2.893 1.098 3.11 2.568.174 1.792-.439 3.69-1.7 4.991-1.762 1.724-4.514 2.179-6.845 1.58-2.512-.756-4.433-2.998-5.048-5.517-.979 2.593-3.14 4.964-6.018 5.284-1.516.112-3.039.024-4.558.047-.002-1.526-.01-3.053.005-4.579 1.496-.038 3.068.07 4.476-.521 1.526-.792 1.803-2.664 2.614-4.029 4.027-9.275 8.307-18.438 12.43-27.671.883-1.953 1.67-4.1 1.328-6.276-.3-2.245-2.879-3.612-4.961-2.935-1.328.403-2.375 1.591-2.596 2.963-.387 1.708.736 3.65 2.462 4.059 1.117.291 2.268-.069 3.27-.562-.578 1.234-1.466 2.353-2.67 3.023-3.045 1.719-7.416.159-8.629-3.128-.765-2.496-.522-5.587 1.518-7.426 2.285-2.121 5.86-2.615 8.68-1.32-2.626-1.993-3.435-6.088-1.463-8.802zm4.587 3.133c-1.82 1.352-1.853 4.288-.418 5.933 2.339 2.541 4.671 5.461 5.093 9.004.467-3.291 2.488-6.09 4.666-8.494 1.783-1.548 2.056-4.687.241-6.306-1.687-1.305-4.302-.274-4.884 1.718-.551-1.924-2.985-2.949-4.698-1.855zm2.103 25.867c-2.458.016-4.918-.006-7.376.014 1.759 1.666 3.537 3.314 5.285 4.99-.883 2.688-1.862 5.345-2.722 8.04 2.401-1.735 4.873-3.365 7.277-5.096 2.329 1.728 4.689 3.408 7.044 5.1-.823-2.561-1.589-5.141-2.394-7.708-.018-.113-.093-.26.028-.34 1.847-1.679 3.735-3.315 5.585-4.992-2.544-.007-5.088.004-7.633-.008-.839-2.56-1.563-5.157-2.417-7.712-.926 2.558-1.747 5.155-2.677 7.712z"/></svg>