<svg enable-background="new 0 0 72.057 75.848" viewBox="0 0 72.057 75.848" xmlns="http://www.w3.org/2000/svg"><g clip-rule="evenodd" fill-rule="evenodd"><path d="m35.073.032c4.549-.356 7.854 2.293 9.457 4.874 1.253 2.019 1.977 5.169 1.399 8.153-.51 2.636-2.031 4.593-3.908 6.128-1.775 1.452-4.543 2.649-7.72 2.122-2.793-.463-4.819-1.873-6.417-3.618-1.623-1.774-2.661-4.144-2.654-7.382.007-3.042 1.417-5.507 2.943-7.093 1.584-1.643 3.67-2.931 6.9-3.184z"/><path d="m33.482 75.493c-.212.393-.734.241-1.062.241-2.894 0-6.254.118-9.022-.097-3.18-.246-5.962-1.095-8.25-2.171-4.745-2.233-8.474-5.593-11.097-9.747-1.941-3.073-3.595-6.936-3.957-11.676-.66-8.653 2.254-14.879 6.272-19.492 3.246-3.686 7.376-6.518 12.786-8.058 1.858-.528 3.78-.762 6.079-.868 1.255-.059 2.712.082 4.439 0 .438-.021 1.205-.085 2.026-.049.606.027 1.623-.088 1.641.387.021.577-1.409.533-1.641.579-1.921.379-3.348.981-4.728 1.833-1.734 1.069-3.392 2.731-4.342 4.391-.705 1.23-1.24 2.664-1.351 4.198-.169 2.327 0 4.752 0 7.14v6.996c0 4.706-.216 9.493 0 13.992.191 3.977 1.766 6.35 3.86 8.443 1.849 1.849 3.898 3.266 7.141 3.667.386.049.862-.03 1.206.291z"/><path d="m71.838 75.638c-.586.227-1.264.181-1.881.193-1.965.039-4.053-.001-6.127 0-7.536.002-15.086-.049-22.677-.049-.591 0-1.297.148-1.833-.192.165-.364.658-.258.917-.29 2.292-.282 4.359-1.247 5.886-2.412 1.721-1.313 3.196-3.205 4.053-5.404.91-2.333.724-5.718.724-8.78 0-3.317.128-6.269 0-9.168-.264-5.996.9-13.281-1.206-17.658-1.057-2.197-2.495-3.789-4.294-5.212-1.348-1.064-2.871-1.819-4.921-2.171-.455-.078-1.6.067-1.399-.771 3.322-.082 7.401-.283 10.47.097 3.189.395 5.896 1.36 8.154 2.557 6.86 3.635 12.146 9.497 13.896 18.238.617 3.082.435 6.529.435 10.276 0 6.013-.049 12.526-.048 18.238-.004.819.112 1.701-.149 2.508z"/><path d="m26.534 32.069c1.873-3.053 4.446-5.556 8.926-5.886 2.646-.195 4.362.651 5.886 1.544 2.962 1.734 5.6 5.566 5.066 10.373-.474 4.265-3.263 7.414-6.851 8.732-4.481 1.647-9.061-.334-11.338-2.991-1.209-1.41-2.109-3.066-2.509-5.307-.384-2.146-.144-4.407.82-6.465z"/><path d="m28.415 69.703c-1.782-1.939-2.862-4.652-2.653-8.009.175-2.818 1.486-4.961 3.088-6.562 1.65-1.649 3.999-2.93 6.658-3.136 1.086-.084 2.203.015 3.04.241 2.508.68 4.586 2.154 6.031 4.102 1.424 1.918 2.589 4.617 2.075 7.864-.425 2.685-1.688 4.935-3.57 6.562-1.797 1.553-4.266 2.778-7.575 2.558-3.209-.216-5.367-1.727-7.094-3.62z"/></g></svg>