<svg enable-background="new 0 0 75.831 74.477" viewBox="0 0 75.831 74.477" xmlns="http://www.w3.org/2000/svg"><g clip-rule="evenodd" fill-rule="evenodd"><path d="m49.48.218c.169 25.054.193 48.527.046 74.097-.975.247-2.004.139-3.003.139-7.144.003-14.434-.003-21.758 0-7.24.003-14.379-.092-21.712-.092-.983 0-1.991.104-2.956-.139-.036-8.105-.092-16.191-.093-24.16-.001-7.937-.042-15.668.139-23.283 7.061-.167 14.638-.039 21.989 0 .332.002 1.034-.143.97.463.108.946-1.513.6-2.264.6-6.366 0-13.133-.199-19.587-.046-.299.838-.191 1.756-.184 2.633.007.944.046 1.904.046 2.864.001 12.751-.083 26.507.093 39.866.93.251 1.909.139 2.864.139 12.711 0 25.573.095 38.573.092 1.945 0 3.908.109 5.82-.138.173-2.952.093-5.943.093-8.963 0-21.053.06-42.469-.093-62.964-11.611-.131-24.123-.138-36.356-.138-3.528 0-7.028-.135-10.486-.046-.389.009-.912.153-1.201-.232-.052-.586.035-.749.416-.832.817-.176 2.039 0 3.096 0 6.948 0 14.341.092 21.389.093 8.333.001 16.664-.045 24.159.047z"/><path d="m64.956 52.325c.278.04.414.04.692 0 .383-.371.231-.973.231-1.432-.002-14.73-.047-29.936 0-44.579.005-1.57 0-3.077 0-4.804 0-.434-.158-1.032.23-1.386h.416c.598.155.369.94.369 1.34.001 3.895.04 8.033.047 11.686.008 4.303-.115 8.638-.047 12.889.136 8.315.048 16.577.047 24.854 0 .459-.161 1.062.23 1.432.212.019.455.096.647 0 .429-.285.277-.939.276-1.432 0-1.503.001-3.313 0-4.989-.001-8.555.194-17.817 0-26.516-.094-4.257-.046-8.475-.046-12.981 0-1.665.047-3.031.046-4.942 0-.961-.151-1.49.693-1.34.486.086.323 1.326.323 2.032v4.712c0 .783-.186 1.686.277 2.033.138.093.436.025.646.046.399-.479.231-1.353.231-2.171 0-1.539-.018-3.036.046-4.666.029-.742-.355-2.226.646-1.986.597.171.386 1.331.37 1.986-.036 1.498 0 3.172 0 4.804 0 .819-.147 1.867.369 2.033 1.104.355.785-1.055.785-2.125 0-1.565.047-3.068.047-4.666 0-.713-.235-2.14.462-2.032.897.147.554 1.214.554 1.848.001 18.073.048 36.318.047 54.28-.001 5.787.016 11.344-.047 17.276-.007.723.027.929-.601.878-.664-.135-.415-.991-.415-1.432-.002-14.129.002-28.437 0-42.223-.001-4.398.01-8.591-.047-12.611-.006-.465.229-1.1-.23-1.479-1.41-.498-.835 2.324-.878 3.233-.17 3.574.134 7.253 0 10.809-.172 4.58.001 9.493 0 14.413-.001 7.271.001 14.696 0 22.22v5.59c0 .627.168 1.702-.739 1.479-.406-.1-.323-.731-.323-1.524-.002-18.692-.045-36.366-.046-54.649 0-.499.159-1.163-.231-1.57-.348.021-.35-.099-.601 0-.524.205-.323 2.343-.323 3.372 0 17.182.048 33.671.046 51.046 0 .617.007 1.255 0 1.848-.004.475.148 1.106-.277 1.433-.138 0-.276 0-.415 0-.598-.171-.369-1.009-.37-1.524 0-3.049.001-6.194 0-9.285 0-1.245.11-2.473-.138-3.558-.196-.081-.521-.034-.786-.046-.39.414-.23 1.114-.23 1.663-.001 3.635 0 7.46 0 11.18 0 .534.165 1.229-.277 1.57-.973.245-.785-.626-.785-1.57-.001-3.6 0-7.33 0-11.134 0-.578.136-1.223-.185-1.663-.171-.074-.615-.074-.786 0-.327.96-.185 2.296-.185 3.558v7.391c0 .837.235 3.245-.277 3.419-1.076.363-.785-1.271-.785-2.079-.001-11.689.001-23.942 0-35.201-.001-9.573-.036-18.926 0-27.948.009-2.077-.104-4.61 0-6.976.03-.678-.238-1.99.37-2.032.074.013.079-.044.139-.047.599-.159.527.719.554 1.294.078 1.714-.046 3.377-.046 4.942 0 14.683.047 29.652.046 44.626.002.442-.139 1.033.234 1.383z"/><path d="m52.899.171c.13-.041.481-.101.6 0 .397.145.273.652.277.924.185 12.08-.001 24.429 0 36.587.001 7.805.046 15.861.047 23.375 0 3.108-.001 6.047 0 9.239 0 1.105.012 2.241-.047 3.419-.014.278.047.75-.462.692-.03 0-.062 0-.093 0-.75-.08-.488-1.24-.462-1.848.104-2.345-.046-4.653-.046-6.837.002-20.556-.002-42.192 0-63.334 0-.727-.108-1.508.139-2.218.016.001.031.001.047.001z"/><path d="m55.485.125c.59.263.37 1.262.37 2.032-.002 20.918.001 42.508 0 63.381-.001 2.551.082 5.312 0 8.084-.014.469-.072.746-.37.785-.739.097-.554-1.134-.554-1.848.001-11.849-.001-24.105 0-35.479.001-9.23-.164-18.664 0-27.578.036-1.999-.047-4.64 0-6.977.017-.825-.081-1.933.092-2.309.057-.127.284-.085.462-.091z"/><path d="m57.887.171c.342 1.267.139 2.852.139 4.389v2.264c0 .728-.098 1.503.23 2.079.166.096.5.023.739.046.373-.532.185-1.335.185-2.079-.001-1.535.046-3.116.046-4.665 0-.731-.172-1.578.232-2.079.17.029.46-.06.554.046.393.137.217.659.231.971.076 1.619.062 3.824 0 5.636-.026.752-.054 1.546.231 2.125 1.205.504.971-.983.971-1.987-.001-1.618 0-3.06 0-4.711 0-.754-.3-2.331.646-2.079.614.218.397 1.274.369 1.893-.103 2.263.044 4.765 0 6.976-.059 3.079.047 6.305.047 9.332-.002 18.006.001 35.815 0 54.002-.001 1.061.265 2.328-.693 2.033-.4-.124-.295-.308-.323-.832-.128-2.405-.046-5.29-.046-7.576-.001-8.659.001-16.293 0-25.037 0-.688.158-1.474-.231-2.033-.15-.054-.503-.087-.646 0-.476.352-.277 1.291-.277 2.033v6.79c0 8.547.001 17.006 0 25.731 0 .286.109.707-.185.924-1.066.509-.897-.911-.878-1.895.191-9.727.001-19.511 0-29.287 0-.744-.012-1.476-.046-2.218-.032-.69.172-1.47-.185-2.079-1.169-.423-.924.822-.924 1.986 0 10.94.116 21.696 0 32.614-.003.274.115.724-.23.878-.067.071-.236.041-.37.046-.793-.265-.44-1.298-.415-1.894.099-2.341-.003-4.664-.047-6.837-.06-3.029.136-6.133.047-9.147-.182-6.143-.046-12.48-.047-18.755-.001-11.786.002-23.672 0-35.34 0-.732-.111-1.508.139-2.217.148-.142.523-.099.737-.047zm.325 16.584c-.245.5-.14 1.109-.14 1.663.001 3.043 0 6.159 0 9.146 0 1.229-.111 2.453.14 3.558.221.122.655.122.877 0 .239-2.184.139-4.674.139-7.16 0-1.227.01-2.449-.046-3.649-.057-1.225.172-2.452-.093-3.558-.169-.137-.709-.137-.877 0zm2.216 0c-.245.502-.139 1.114-.139 1.663 0 4.209-.076 8.67.093 12.658.188.139.781.139.97 0 .154-4.559.153-9.762 0-14.321-.178-.138-.745-.138-.924 0z"/><path d="m74.98.171c.091-.088.459-.062.554 0 .406.479.231 1.377.231 2.171 0 17.987.048 36.37.046 54.096 0 5.219.066 10.562-.046 16.122-.014.645.317 1.697-.416 1.848-.03 0-.062 0-.092 0-.811 0-.509-1.196-.509-1.894-.001-11.934-.045-23.455-.046-35.062-.001-11.227.001-23.117 0-35.017 0-.785-.103-2.013.185-2.217.002-.046.057-.036.093-.047z"/><path d="m47.309 2.48c.141 22.502.166 46.823 0 69.663-14.608.176-29.948.146-44.948-.093-.133-14.731-.218-28.351-.047-43.053 6.579-.232 13.115-.001 19.726 0 .349 0 .827-.123 1.062.232v.6c-.534.401-1.452.231-2.309.231-5.748 0-11.48-.226-17.369 0-.247.804-.139 1.67-.139 2.495 0 4.139.045 8.42.046 12.703.001 8.131-.083 17.067.093 25.685.838.25 1.727.139 2.586.139 13.221 0 27.102.265 40.237 0 .169-7.901.092-16.361.092-24.345 0-2.037.035-4.105-.046-5.959-.026-.6.167-1.3-.186-1.849-.143-.073-.549-.073-.692 0-.429.423-.304 1.152-.277 1.71.082 1.739.047 3.832.047 5.82v21.666c0 .595.107 1.238-.139 1.802-13.31.118-27.235.193-40.468-.093-.172-8.122-.092-16.381-.092-24.438-.001-4.019.022-7.931 0-12.011-.005-.729-.133-1.474.092-2.171 5.394-.204 10.836-.001 16.399 0 .716 0 1.548-.175 2.125.23v.601c-.28.551-1.752-.089-2.032.462-.571 1.456 1.572.578 2.032 1.155v.601c-.31.521-1.738-.076-2.032.462-.533 1.399 1.479.642 2.032 1.108v.646c-.434.584-2.58-.303-2.032 1.109.348.638 2.277-.307 2.032.924-.04.524-.692.369-1.062.369-3.167 0-6.773-.094-9.747.046-.241.902-.145 1.879-.139 2.818.035 6.615-.01 13.545.139 20.372 4.769.255 9.534.139 14.413.139.621 0 1.307.131 1.848-.139.097-.18.023-.531.046-.785-.43-.393-1.134-.23-1.709-.23-4.363-.001-9.271.106-13.443-.14-.169-3.428-.092-7.022-.092-10.578 0-3.494-.085-7.072.092-10.348 2.804-.09 5.672 0 8.639 0 .355 0 .809-.111 1.017.23-.029.187.06.491-.046.601-.39.404-1.297.231-2.033.231-.744 0-1.529 0-2.264 0-1.544 0-3.092-.089-4.295.092-.201 6.066-.064 12.719 0 18.71.787.267 1.645.111 2.494.138 5.863.184 12.367.035 18.201-.046.208-7.324.092-15.005.092-22.729 0-7.128 0-14.34 0-21.526 0-.388.141-.921-.231-1.201-.187-.082-.497-.047-.692 0-.362.289-.231.815-.231 1.201-.001 10.627 0 21.515 0 32.198 0 3.705.129 7.363-.093 10.902-6.004.145-12.58.181-18.34-.047-.167-4.658-.139-9.755-.139-14.552 0-.673-.106-1.365.139-1.986 1.815-.117 3.765.032 5.774 0 .566-.009 1.222-.14 1.663.184.007.18.062.364 0 .555-.192.602-2.202.323-3.049.323-1.331 0-2.443-.035-3.28.047-.196.517-.184 1.143-.184 1.709-.009 3.864-.015 8.633.139 12.657 5.278.188 10.651.158 16.215.047.238-.782.139-1.636.139-2.449.001-12.65-.019-25.806-.139-38.526-10.205-.126-20.256-.184-30.628-.184-.613-.001-1.299.13-1.848-.186-.066-.136-.084-.56 0-.692.388-.329 1.33-.182 2.033-.186.737-.004 1.481.047 1.893-.185.076-.172.039-.454.047-.692-.705-.738-3.194.158-4.02-.509-.062-.255-.006-.365 0-.646.922-.495 2.93.097 3.928-.323.137-.169.137-.709 0-.878-.372-.539-3.69.368-3.928-.416-.051-.168.038-.358 0-.554.46-.342 1.291-.159 2.033-.186.73-.024 1.506.045 1.94-.185.075-.171.075-.614 0-.785-.165-.3-.602-.174-.923-.185-.322-.007-.652-.037-.971-.042-.713-.012-1.494.118-2.033-.139-.628-1.218 1.225-.924 2.217-.924 11.023-.002 21.896.09 33.076.092 1.677.001 3.33-.093 4.897.093.138 16.379.12 33.256.138 49.567.003 2.295.104 4.587-.138 6.837-1.53.042-3.312.084-4.897.093-.532.003-1.095-.104-1.524.139-.146.128-.115.638-.046.831.46.327 1.179.186 1.802.185 1.863 0 4.087.075 5.82-.092.237-1.127.139-2.325.139-3.511.001-6.023 0-12.364 0-18.34.001-12.279-.011-24.56-.139-36.864-.782-.186-1.648-.093-2.494-.093-12.22.001-24.475-.045-37.096-.046-.74 0-2.09.192-1.803-.739.08-.254-.036-.263.464-.324.555-.066 1.685-.033 2.032-.046 1.095-.039 1.716-.007 2.541 0 5.423.043 10.843.062 16.308.093 5.287.029 10.517.026 15.798 0 1.781-.01 3.643-.104 5.313.138.263.478-.104 1.583.231 1.987.146.128.627.127.831.046.346-.803.152-2.266.093-3.188-.855-.244-1.783-.139-2.68-.139-13.117 0-25.405-.045-38.48-.046-1.131 0-2.89.327-2.449-.878.24-.337.772-.222 1.109-.231 7.05-.191 14.167.298 21.158.138 6.548-.148 13.022-.046 19.724-.044.892 0 1.81-.106 2.68.139.299 1.168-.296 3.253.277 4.25.171.075.454.038.692.046.37-.243.232-.807.232-1.247 0-1.399.09-2.976-.093-4.204-.901-.252-1.853-.139-2.771-.139-12.588 0-24.706-.045-37.419-.046-1.85 0-3.727.097-5.543-.139-.087-.314-.11-.891.23-.924 11.922-.003 23.561.091 35.155.093 1.967 0 3.933-.107 5.867-.047 1.89.06 3.772-.123 5.59.138zm-22.59 7.623c-3.822.132-8.43-.092-12.565-.092-1.258 0-2.645-.293-2.125 1.017 1.298.291 2.691.083 4.065.138 1.774.071 3.614.047 5.267.047 3.1-.001 6.205.132 9.146-.093.132-.204.132-.72 0-.924-1.188-.253-2.457-.139-3.788-.093zm12.473-.046c-1.127 0-2.282-.07-3.049.185-.062.244-.083.647.046.832 1.092.418 3.054-.117 4.25.277.151 17.112.157 34.949 0 51.877-1.143.366-3.115-.098-4.25.277-.085.291-.055.458-.046.785.63.358 1.659.231 2.633.231.972 0 2.047.094 2.818-.139.256-2.152.016-4.346.092-6.56.075-2.165 0-4.356 0-6.56 0-13.63.077-27.649-.092-41.068-.677-.243-1.555-.137-2.402-.137zm-10.764 2.217c-4.354 0-9.198-.047-13.767-.047-1.25 0-3.206-.396-2.633.971.619.268 1.326.107 1.986.139 4.783.223 10.162-.023 14.783.046.567.009 1.264.14 1.755-.139.069-.195.069-.589 0-.785-.638-.317-1.415-.185-2.124-.185zm8.732 0c-.347.01-.933-.058-1.017.323-.101.119-.041.471 0 .601.361.455 1.577.055 2.125.323.173 6.632-.07 13.522.092 20.326.134 5.585-.155 11.215 0 16.815.073 2.604 0 5.24 0 7.853 0 .839.104 1.723-.139 2.541-.642.144-1.664-.094-2.078.277.012.266-.035.589.046.785.791.251 2.368.175 3.233.047.125-16.642.104-33.211-.046-49.753-.53-.193-1.478-.158-2.216-.138zm-8.777 2.217c-5.307 0-11.117-.042-16.215 0-.275.152-.242.623-.139.924.93.248 1.941.139 2.91.139 4.318.001 8.619.047 12.75.047.961 0 1.964.112 2.864-.139.068-.217.09-.677-.046-.832-.664-.249-1.415-.139-2.124-.139zm16.768 2.264c-.303.459-.185 1.074-.185 1.617 0 4.231-.076 8.748.093 12.75.186.132.676.12.924.046.248-1.096.138-2.312.138-3.511 0-3.614.076-7.444-.092-10.856-.175-.15-.635-.098-.878-.046zm2.172.047c-.228.15-.139 1.178-.139 1.709v5.451c0 2.574-.142 5.016.092 7.16.178.139.746.139.924 0 .257-3.517.093-7.433.093-10.856 0-1.188.125-2.374-.093-3.464-.153-.123-.732-.159-.877 0zm-31.876 15.428c-.771 0-1.576 0-2.402 0-1.773 0-4.066-.101-5.45.093-.169 5.626-.093 11.936-.093 17.692 0 .765-.109 1.592.186 2.264.207.07.623.07.831 0 .25-.715.139-1.503.138-2.264 0-4.68.001-9.412 0-14.274 0-.763-.107-1.585.14-2.31 2.516-.194 6.056.124 8.776-.139.141-.164.113-.649.047-.878-.63-.237-1.402-.184-2.173-.184zm-1.479 2.171c-1.298 0-2.6-.143-3.787 0-.657.08-.463 1.108-.463 1.986 0 2.281.04 4.622.047 6.606.012 3.288-.172 6.673.093 9.239.249.13.663.165.924.046.235-1.016.093-2.139.093-3.233-.001-3.603 0-7.294 0-10.948 0-.831-.107-1.672.138-2.448 2.078-.296 4.608.132 6.56-.139.156-.204.115-.757 0-.97-1.105-.129-2.353-.139-3.605-.139zm1.11 2.218c-.904.031-2.228-.195-2.864.046-.515.196-.277 2.577-.277 3.28 0 1.232.075 2.466.046 3.511-.184 6.59.029 14.259.094 20.881 5.207.225 10.882.184 16.307.185.808 0 1.69.159 2.171-.231.167-.17.076-.586 0-.785-.648-.252-1.391-.139-2.079-.139-5.19-.002-10.391.047-15.244-.185-.203-7.685-.092-15.003-.092-22.22 0-1.041-.209-2.094.092-3.095.61-.165 1.446-.093 2.217-.093.793 0 1.627.205 2.125-.139.172-.13.081-.579.047-.785-.687-.282-1.631-.262-2.543-.231zm30.073 2.31c-.317.468-.185 1.097-.185 1.617 0 9.023.076 18.367-.093 27.163-2.038.134-4.531.093-6.698.092-.74 0-1.643-.17-1.986.277-.084.133-.065.558 0 .693.659.325 1.529.185 2.357.185h5.081c.857 0 1.722.107 2.448-.139.062-9.874.14-19.978-.046-29.842-.204-.12-.616-.117-.878-.046zm-37.419 21.019c-.364.502-.177 1.334-.184 1.986-.027 2.236-.15 4.758.092 6.837 6.453.234 13.494.185 20.142.185.918 0 1.891.111 2.771-.139.113-.212.14-.673 0-.877-.832-.25-1.757-.139-2.633-.14-6.526-.001-13.078.021-19.125-.185-.255-2.386.058-5.288-.185-7.576-.188-.147-.591-.176-.878-.091zm2.264 0c-.38.316-.231.951-.231 1.478 0 1.695-.073 3.657.093 5.128 5.7.202 12.061.185 18.154.185.859.001 1.737.11 2.541-.138.113-.245.113-.633 0-.878-.651-.282-1.418-.162-2.171-.139-5.873.183-11.796-.126-17.37-.185-.268-1.58.082-3.777-.185-5.359-.194-.129-.552-.18-.831-.092z"/><path d="m31.787 17.956c.237 11.854-.019 24.474.139 36.495.01.716.073 1.487-.139 2.171-4.536.112-9.396.159-14.043 0-.146-1.76-.139-3.809-.139-5.913 0-2.073-.075-4.233.092-6.145.678-.161 1.672-.092 2.818-.092.96 0 2.873-.338 2.587.693-.161.581-1.376.339-2.032.369-.919.042-1.615-.15-2.264.093-.244 3.263-.141 6.673 0 9.886 1.828.244 3.896.139 5.959.138 2.029 0 4.107.077 5.959-.092.23-.688.163-1.462.139-2.171-.387-11.218.271-23.182-.139-34.37-4.916-.146-10.087-.139-15.152-.139-4.52 0-8.932-.092-13.396-.092-.566 0-1.197.156-1.709-.139-.467-1.254 1.084-.879 2.17-.922 1.921-.077 4.122.046 5.913.046 8.126-.001 15.734.042 23.237.184z"/><path d="m29.57 20.174c.198 2.769.093 5.596.138 8.453.134 8.274-.084 17.255-.092 25.732-.732.255-1.566.093-2.402.093-2.459 0-5.113.171-7.253-.093-.168-2.396-.162-5.17 0-7.576.396-.162 1.024-.092 1.617-.092.572 0 1.225-.111 1.524.185.479 1.318-1.375.682-2.079.97-.244.744-.139 1.751-.139 2.726 0 .963-.048 1.968.139 2.726 1.102.223 2.376.085 3.649.139 1.279.054 2.591-.093 3.835-.093.202-1.168.092-2.512.092-3.927 0-9.079.046-19.037-.046-28.133-.96-.329-2.158-.185-3.372-.185-3.499 0-7.109.119-10.625-.046-4.766-.226-9.559.274-14.09-.139-.522-1.27 1.004-.97 2.171-.971 4.069 0 8.404.03 12.519.093 5.033.075 9.914-.17 14.414.138z"/><path d="m27.352 22.345c.175 9.802.108 20.123.046 29.796-1.576.225-3.612.177-5.22.047-.186-.466-.097-1.085-.093-1.663.005-.556-.154-1.212.186-1.57.148-.067.387-.044.6-.047.494.354.062 1.633.37 2.171.808.182 2.119.095 3.003.047.284-.483.185-1.094.185-1.617 0-7.492 0-15.267 0-22.728 0-1.127.105-2.284-.139-3.372-1.002-.187-2.063-.093-3.142-.093-7.127.001-14.08-.093-21.25-.092-.471 0-1.032.133-1.432-.185-.065-.122-.086-.528 0-.646.226-.305 1.078-.184 1.479-.231.98-.118 2.109-.005 3.188.046 3.109.149 6.412-.09 9.516.046 4.335.188 8.631-.222 12.703.091z"/></g></svg>