<svg enable-background="new 0 0 71.193 71.566" viewBox="0 0 71.193 71.566" xmlns="http://www.w3.org/2000/svg"><path clip-rule="evenodd" d="m71.02.333c.309 1.454.073 2.952.144 4.42.069 1.465-.002 2.899-.048 4.374-.094 2.964.048 5.998.048 8.984 0 17.694-.009 35.743-.238 53.335-5.857.06-11.759.209-17.636.047-5.971-.164-11.938.197-17.921-.047-2.908-.119-5.875.047-8.842.047-8.598.001-17.647-.051-26.43-.285-.186-8.964-.048-17.725-.047-26.953 0-4.445.047-8.806.047-13.31 0-9.564.096-18.875.096-28.902 0-.663-.154-1.426.189-2.044 22.936.31 47.391.03 70.638.334zm-44.397 6.084c-5.762 0-11.358-.095-17.16-.095-.938 0-1.986-.22-2.805-.095-.651.099-.469.761-.477 1.283-.045 3.769.049 7.7-.094 11.076-.19 4.509 0 8.879 0 13.167 0 6.544-.048 12.758-.048 19.395 0 2.208-.087 4.543.095 6.417.346-.112.475-.524.618-.808.499-.993.899-2.002 1.378-2.995 1.281-2.65 2.332-5.36 3.613-7.986.641-1.315 1.361-2.653 1.853-3.993 1.101-3 2.553-5.908 3.898-8.842 1.344-2.93 2.664-5.875 3.993-8.794 2.325-5.11 4.58-10.305 6.987-15.307.348-.724.789-1.462.855-2.281-.872-.256-1.8-.142-2.706-.142zm14.878.095c-.067.585.27 1.15.476 1.664.67 1.673 1.57 3.146 2.234 4.753.898 2.173 1.966 4.274 2.947 6.417 1.702 3.716 3.509 7.521 5.182 11.171.26.568.38 1.178.617 1.758.436 1.06 1.039 2.088 1.521 3.138.492 1.07.997 2.122 1.474 3.185 2.641 5.892 5.494 11.75 8.081 17.54.211.471.295 1.16.855 1.379.136-12.699.142-25.667.143-38.409 0-3.216.113-6.438.048-9.507-.021-1.011.125-2.059-.142-3.042-7.231-.246-15.944-.189-23.436-.047zm-10.03 12.692c.373-.059.529-.588.285-.951-1.03-.586-1.229 1.102-.285.951zm8.176.048c.538-.102.579-1.177-.19-.999-.7.163-.425 1.115.19.999zm-9.84 1.188c-.374-.333-.757.068-.761.523.068.058.072.181.143.237.546.104.776-.312.618-.76zm11.171.38c.006.305.337.641.761.476.469-.741-.775-1.306-.761-.476zm-9.793 2.52c.981.244.963-1.482-.047-1.045-.428.184-.395.934.047 1.045zm8.272.095c.833.114.865-1.293-.047-1.046-.578.156-.484.973.047 1.046zm-10.601 1.759c.812.935 1.583-1.096.285-.808-.302.038-.419.487-.285.808zm12.217-.476c-.095.252.046.627.285.713 1.631.138.146-1.852-.285-.713zm-13.832 2.71c.805.058.882-1.394-.096-1.045-.551.195-.473 1.004.096 1.045zm4.753-.523c.018-.907-1.691-.594-.998.428.46.239.99-.007.998-.428zm7.035.095c.035 1.191 1.957.133.761-.57-.533-.042-.773.162-.761.57zm5.134-.047c.01-.436-.598-.605-.95-.38-.552.811.961 1.415.95.38zm-15.402 1.711c-.202.75.624 1.014.998.618.387-.838-.697-1.256-.998-.618zm12.265.333c.02.3.287.478.761.428 1.112-.711-.834-1.501-.761-.428zm-15.734.095c.066.012.054.104.095.143.274.037.425-.25.285-.476-.272-.034-.335.14-.38.333zm20.25.238c.091-.221-.008-.527-.285-.523-.143.199-.103.594.285.523zm-18.206 2.138c.714-.025.647-1.441-.285-1.045-.565.239-.258 1.065.285 1.045zm3.755 0c1.164.396.976-1.553-.095-.95-.228.243-.161.796.095.95zm8.556.095c.565-.057.596-1.349-.285-1.045-.626.215-.243 1.099.285 1.045zm4.136.048c.51-.113.49-.892 0-1.141-1.135-.153-.83 1.325 0 1.141zm-18.397 1.949c.699-.064.622-1.424-.332-1.093-.621.302-.229 1.144.332 1.093zm15.783-.903c-.379.851.676 1.24.998.618 0-.158 0-.317 0-.476-.096-.126-.206-.237-.333-.333-.314-.028-.504.067-.665.191zm-12.313.618c.158.143.308.295.666.237.737-.301.051-1.445-.618-.855-.068.153-.045.399-.048.618zm17.304-.285c-.021-.23-.316-.494-.618-.38-1.185.505.714 1.476.618.38zm-22.865 2.614c.597-.038.593-1.179-.095-1.093-.794.099-.513 1.132.095 1.093zm3.422-.523c.049.699 1.3.656 1.141-.19-.059-.319-.41-.496-.761-.38-.349.114-.393.369-.38.57zm4.279-.523c-.247.147-.242.698-.048.903 1.104.628 1.279-1.377.048-.903zm8.936.095c-1.293-.752-1.039 1.734.095.808.104-.256.046-.649-.095-.808zm3.138.19c-.061.458.076.715.332.856 1.121.223.918-1.454 0-1.141-.187.019-.219.193-.332.285zm4.563.809c.675.03.78-1.228-.096-.999-.582.153-.439.975.096.999zm-22.913 1.806c.199.226.754.25.999.047.763-1.098-1.491-1.391-.999-.047zm4.041-.618c-.291 1.326 1.695.789 1.046-.19-.305-.245-.929-.155-1.046.19zm12.74-.285c-.71.097-.511 1.436.428 1.046.419-.444.12-1.121-.428-1.046zm4.183 1.188c.359 0 .638-.273.57-.808-.699-1.228-1.793.809-.57.808zm-22.436 1.949c.414-.014.57-.484.428-.903-.811-.825-1.579.883-.428.903zm3.517-.19c.205.21.709.249.95.047.787-1.141-1.548-1.236-.95-.047zm4.04-.285c.054.83 1.269.592 1.141-.19-.047-.291-.265-.553-.761-.38-.279.097-.395.323-.38.57zm9.079-.476c-.463-.201-.974.054-.856.713.384.805 1.527-.085.856-.713zm8.176-.047c-.56-.18-.991.138-.902.761.382.856 1.608-.135.902-.761zm-4.99.761c.11.427.904.447 1.093 0 .125-1.125-1.314-.852-1.093 0zm-21.818 2.281c.314-.028.559-.363.522-.855-.743-1.307-1.796.971-.522.855zm3.944-.048c.872.028.649-1.528-.38-.998-.286.403-.061.984.38.998zm4.706-.617c-.083-.475-.903-.59-1.141-.095-.169 1.163 1.286.918 1.141.095zm12.265.047c-.101-1.024-1.877-.057-.809.618.527.045.849-.203.809-.618zm3.612.713c.383-.054.555-.555.333-.998-1.039-.715-1.375 1.146-.333.998zm3.851-1.093c-1.012.119-.013 1.71.57.903.198-.686-.181-.949-.57-.903zm-25.812 2.377c-.102-.821-1.635-.49-1.046.523.499.342 1.109-.008 1.046-.523zm3.042.618c.554.425 1.265-.221.903-.856-.513-.653-1.437.195-.903.856zm-7.368-1.046c-.5-.009-.66.322-.665.808.14.258.522.267.761.095.183-.274.154-.72-.096-.903zm12.454.76c.292-1.183-1.777-.735-.902.286.43.132.829.012.902-.286zm7.749.381c.513-.087.49-1.219-.238-.998-.614.185-.292 1.087.238.998zm4.468-.619c-.103-.973-1.736-.041-.761.618.483.045.799-.258.761-.618zm4.136.191c.095-.656-.942-.9-1.093-.143-.03.788 1.017.671 1.093.143zm3.945.095c.033-.303-.195-.434-.38-.618-1.502.147.256 1.766.38.618zm-31.564 2.091c.192.213.558.276.855.143.792-1.064-1.317-1.491-.855-.143zm4.516.286c.743.046.886-1.37-.095-1.141-.658.153-.482 1.105.095 1.141zm4.659-.523c.014-.411-.37-.675-.761-.523-1.046.452.6 1.653.761.523zm11.599.57c.611.073.867-.848.285-1.141-.962-.177-.857 1.073-.285 1.141zm3.755-.19c.14.239.714.258.903.048.584-1.102-1.321-1.248-.903-.048zm5.086-.333c0-.888-1.49-.592-.95.428.493.263.95-.005.95-.428zm-19.49 1.949c.016.523.707.767 1.094.333.355-1.107-1.118-1.195-1.094-.333zm-12.169.285c.201.303.933.232 1.046-.095.214-1.046-1.503-.942-1.046.095zm3.994-.285c-.018.571.778.645 1.046.285.39-.903-1.037-1.159-1.046-.285zm4.087.095c.088.569 1.031.629 1.093-.095-.043-.89-1.2-.599-1.093.095zm20.489.381c.274.158.826.124.998-.095.456-1.286-1.626-1.005-.998.095zm-7.701.095c.752.094.841-1.271-.048-.998-.555.17-.388.943.048.998zm4.658-.523c-.022-.299-.313-.573-.713-.428-1.133.628.804 1.602.713.428zm8.177.143c.134-.955-1.512-.687-.951.333.422.229.899.03.951-.333zm-35.748 1.948c.095.247.482.371.808.238.11-.16.175-.364.143-.666-.289-.435-1.061-.292-.951.428zm4.04-.095c.031.464.678.629 1.047.285.473-.964-1.103-1.154-1.047-.285zm4.088.048c.076.667 1.195.517 1.046-.238-.047-.24-.231-.473-.665-.333-.25.081-.416.257-.381.571zm5.182-.238c-.164-.958-1.803.072-.808.713.529.048.883-.277.808-.713zm16.353.143c-.069-.833-1.334-.495-1.141.285.062.251.241.374.761.333.189-.174.403-.333.38-.618zm-4.706.618c.806.045.763-1.337-.143-.999-.54.203-.386.969.143.999zm8.081.047c.849.143.851-1.356-.048-1.046-.459.159-.429.966.048 1.046zm4.658-.665c-.142-.794-1.634-.254-.95.57.517.3 1.029-.125.95-.57zm-35.698 2.092c.039.473.803.596 1.045.143.117-1.011-1.103-.816-1.045-.143zm9.22.237c.342-.951-1.065-1.047-1.093-.285-.003.074.14.53.333.571.528-.002.699-.112.76-.286zm3.043-.19c.039.33.396.539.855.38.832-.917-.982-1.439-.855-.38zm-8.223.143c.167.415.919.408 1.093 0 0-.143 0-.285 0-.428-.256-.497-1.269-.325-1.093.428zm16.399-.048c.032.314.411.54.856.38.753-.891-.96-1.379-.856-.38zm5.134.048c.073-.478-.274-.774-.713-.618-1.027.366.535 1.776.713.618zm3.043-.381c-.21 1.329 1.716.6.854-.238-.343-.138-.731.007-.854.238zm5.18.428c.204-1.134-1.82-.603-.903.333.434.143.85-.034.903-.333zm-37.363-.047c.054.01.074.053.096.095.865-.079-.114-1.07-.096-.095zm40.216.094c.046.2.292.381.618.238.331-.771-.785-.957-.618-.238zm-33.75 1.189c-1.212-.766-1.089 2.06.19.855.108-.383.018-.723-.19-.855zm-3.851.475c.002-.636-1.231-.808-1.046.238.282.46 1.044.262 1.046-.238zm7.511.666c.711.083.877-1.279 0-1.093-.597.126-.528 1.031 0 1.093zm4.136 0c.874.09.655-1.446-.19-1.046-.521.118-.388 1.1.19 1.046zm12.882-.57c-.021-.555-1.05-.711-1.141 0 .031.856 1.165.626 1.141 0zm3.232.57c.467.078.914-.082.808-.713-.429-.761-1.56.176-.808.713zm4.469.047c.518-.099.501-1.204-.238-.998-.655.183-.359 1.112.238.998zm4.373-.57c-.024-.289-.265-.555-.714-.38-1.058.411.812 1.57.714.38zm-39.17 2.472c.706-.047.717-1.296-.332-1.093-.528.369-.223 1.13.332 1.093zm12.359.047c.318-.078.472-.501.285-.903-.967-.991-1.528 1.208-.285.903zm-7.796-.475c.072-.727-1.277-.909-1.094.047.037.188.18.225.334.38.548.062.737-.192.76-.427zm3.614.57c.668-.061.576-1.179-.143-1.093-.885.105-.433 1.146.143 1.093zm8.603-.523c.089-.72-1.154-.826-1.046.143.237.478.991.308 1.046-.143zm7.13.048c.088.604 1.184.562 1.094-.19-.039-.33-.371-.52-.761-.381-.329.118-.367.336-.333.571zm8.225.143c.225.556 1.146.32.998-.428-.233-.513-1.206-.401-.998.428zm5.086-.096c.13-.895-1.344-.845-.998.238.339.372.938.171.998-.238zm-9.27 0c.111.905 1.718.283.95-.57-.589-.204-1.006.12-.95.57zm12.217.286c.873.891 1.496-1.17.237-.808-.309.031-.334.519-.237.808zm-42.116 2.044c.6-.016.641-1.219-.143-.999-.564.159-.375 1.012.143.999zm3.375-.761c-.311 1.239 1.613.868.998-.095-.158-.097-.465-.294-.713-.143-.175 0-.183.167-.285.238zm5.133.095c-.16-.846-1.664-.051-.808.618.573.096.882-.232.808-.618zm4.088-.142c-.433-.559-1.417.017-.999.713.217.178.56.231.857.095.162-.151.261-.524.142-.808zm3.47.951c.812.087.827-1.38-.095-1.094-.553.172-.448 1.035.095 1.094zm12.312.047c.831.088.79-1.434-.143-1.093-.523.19-.349 1.041.143 1.093zm3.565-.666c-.116.786 1.238 1.007 1.094-.095-.233-.523-1.017-.429-1.094.095zm5.229.096c-.052-.792-1.445-.546-1.045.428.433.426 1.078.058 1.045-.428zm2.948-.286c-.123.287-.072.666.142.855 1.262.407.772-1.718-.142-.855zm4.42.951c.768.087.782-1.334-.047-1.093-.502.145-.49 1.032.047 1.093zm-43.21 1.426c.137.54 1.188.467 1.141-.237-.021-.317-.274-.625-.808-.428-.256.095-.439.248-.333.665zm4.659.476c.587-.06.698-1.33-.19-1.141-.748.159-.394 1.2.19 1.141zm4.183-.048c.914-.147.125-1.722-.617-.856-.056.58.154.93.617.856zm4.515-.475c-.013-.462-.288-.662-.808-.618-.953.558.6 1.75.808.618zm3.091-.238c-.11.336.005.778.665.713.011-.037.04-.056.096-.048.677-.519-.517-1.413-.761-.665zm8.176.428c.165.71 1.31.152.95-.476-.418-.524-1.068-.03-.95.476zm9.175-.333c-.267-1.148-1.99.492-.523.713.37-.053.617-.3.523-.713zm7.035-.19c-.085.289-.085.52 0 .809 1.321.839 1.154-1.709 0-.809zm-11.456.903c.515-.216.324-1.367-.476-.998-.648.299-.107 1.242.476.998zm7.557 0c.397.15.8-.038.951-.285.168-1.387-1.77-.526-.951.285zm-29.709 1.521c.167-.77-1.299-1.118-1.142.143.283.582 1.054.256 1.142-.143zm-8.984.143c.85.708 1.197-1.06.19-.761-.32.041-.336.52-.19.761zm4.896-.238c.011-.294-.252-.664-.762-.523-1.105.474.72 1.593.762.523zm8.128-.048c-.029-.435-.759-.613-1.046-.19-.147 1.034 1.091.861 1.046.19zm15.83.714c.755-.02.645-1.416-.333-1.094-.4.393-.148 1.106.333 1.094zm3.708-.096c.232.113.469.091.713 0 .174-.153.258-.562.142-.855-.577-.635-1.48.289-.855.855zm4.658.096c.612-.222.343-1.299-.333-1.094-.632.122-.508 1.286.333 1.094zm-20.535-.096c.324-.062.516-.581.285-.903-.86-.556-1.189.919-.285.903zm24.385.096c.788-.105.385-1.543-.522-.999-.327.459.017 1.066.522.999zm3.422-.523c.003.27.155.583.761.523 1.13-.586-.771-1.714-.761-.523zm-46.632 1.616c-.104.551.696.922 1.046.38.177-.807-.94-.936-1.046-.38zm4.897.618c.312-.507-.17-1.112-.761-.856-.736.395.18 1.474.761.856zm3.042-.381c-.049.814 1.375.725 1.141-.19-.175-.485-1.154-.417-1.141.19zm5.276.048c0-.476-.712-.755-1.093-.38-.402 1.056 1.093 1.157 1.093.38zm3.66-.475c-.544-.102-.724.364-.57.808.635.587 1.309-.532.57-.808zm3.518.618c.108.525 1.048.43.951-.238-.042-.284-.333-.462-.666-.333-.302.118-.334.334-.285.571zm8.651.427c.539-.043.597-1.14-.143-.998-.715.138-.385 1.04.143.998zm4.421-.427c.042-1.093-1.494-.346-.808.38.382.149.762-.042.808-.38zm3.138-.048c.006.721 1.138.564.998-.143-.038-.194-.198-.375-.522-.333-.31.042-.479.179-.476.476zm4.421.618c.736.185 1.074-1.21.143-1.045-.555.097-.615.927-.143 1.045zm4.658-.666c-.106-.741-1.427-.376-.95.476.46.336 1.016-.011.95-.476zm3.565.666c1.002-.004.247-1.756-.476-.761-.051.49.139.762.476.761zm-51.1 1.236c.099.297.608.295.761.048.185-.853-.837-.698-.761-.048zm3.945.19c.177.167.692.216.856 0 .431-.974-1.398-.87-.856 0zm4.896-.238c-.004-.372-.383-.462-.617-.428-1.333.195.629 1.568.617.428zm3.043-.047c-.075.597 1.078.792.998-.095-.223-.404-.944-.343-.998.095zm4.088.237c.037.011.055.04.047.095.166.187.636.178.857.047.387-.781-1.041-.997-.904-.142zm4.135.096c.13.185.671.199.856.047.028-.113.068-.217.048-.38-.211-.339-1.028-.306-.904.333zm12.312-.048c.188.335.902.287.808-.285-.197-.341-.887-.28-.808.285zm4.041-.19c-.041.476.831.623.902 0-.127-.458-.868-.405-.902 0zm4.135.333c.517.483 1.275-.276.666-.665-.521-.092-.858.197-.666.665zm4.753-.238c-.024-.438-.931-.548-.856.143.22.408.879.265.856-.143zm7.321.19c.212.202.698.182.761-.143-.01-.496-.91-.513-.761.143zm-3.993 0c.256.405.987.036.618-.428-.318-.125-.735-.029-.618.428z" fill-rule="evenodd"/></svg>