<svg enable-background="new 0 0 68.967 71.061" viewBox="0 0 68.967 71.061" xmlns="http://www.w3.org/2000/svg"><g clip-rule="evenodd" fill-rule="evenodd"><path d="m68.852.138c.181 8.803.094 17.404.094 25.984.001 14.361.079 29.205-.094 43.822-.307.225-.542-.199-.706-.377-.564-.605-1.215-1.332-1.789-1.93-5.124-5.625-9.681-11.957-13.509-18.969-.543-.996-1.182-1.971-1.647-2.967-.491-1.051-.927-2.156-1.412-3.248-2.818-6.338-5.385-13.174-7.014-20.758-.263-1.225-.44-2.51-.894-3.719-4.814-.18-9.564-.021-14.498-.047-.279.221-.409 1.289-.565 1.977-.437 1.926-.851 3.897-1.318 5.695-.311 1.199-.744 2.383-1.082 3.578-1.029 3.627-2.313 6.973-3.766 10.262-.487 1.104-.86 2.234-1.365 3.295-1.992 4.184-4.313 8.152-6.684 12.004-.601.975-1.123 1.988-1.742 2.918-2.476 3.713-5.32 7.084-8.237 10.402-.325.469-.813.846-1.224 1.271-.379.393-.691 1.047-1.318 1.035-.132-12.009-.049-23.122-.048-35.112 0-5.945.058-11.879 0-17.793-.05-5.074 0-10.07 0-15.346 0-.662-.153-1.406.188-2.023 8.394.023 17.479-.178 25.936-.047 5.734.088 11.2 0 17.087 0 8.514.002 17.09-.024 25.607.093z"/><path d="m22.581 65.943c-2.249-2.162-3.8-5.049-4.66-8.566-.929-3.797-.408-8.068.894-11.25 1.259-3.074 3.184-5.482 5.79-7.391 2.621-1.918 5.705-3.195 9.791-3.389 3.496-.164 6.586.937 8.755 2.26 2.275 1.387 4.262 3.178 5.743 5.225.744 1.029 1.541 2.184 1.977 3.531.229.707.284 1.514.471 2.307.528 2.236.75 4.774.33 7.342-.25 1.531-.535 3.084-1.083 4.379-2.069 4.885-6.212 8.766-11.815 10.166-6.706 1.677-12.8-1.079-16.193-4.614z"/></g></svg>