<svg enable-background="new 0 0 37.511 27.473" viewBox="0 0 37.511 27.473" xmlns="http://www.w3.org/2000/svg"><path d="m4.148 27.441h11.232l-11.232-16.57z"/><path d="m26.007 0 10.344 15.26v-15.26z"/><path d="m0 0 18.551 27.441h9.951l-18.55-27.441z"/><path d="m37.12 21.141c-.273-.58-1.631-2.525-1.631-2.525l-12.415-18.51s-3.119-.131-4.185.264c-.016.004-.028.012-.042.018-1.41.486-2.433 1.822-2.425 3.397.008 1.139.584 2.014.584 2.014.249.404 14.624 21.676 14.624 21.676h1.436c2.454 0 4.443-1.99 4.443-4.443.002-.671-.106-1.288-.389-1.891"/></svg>