<svg enable-background="new 0 0 28.939 33.703" viewBox="0 0 28.939 33.703" xmlns="http://www.w3.org/2000/svg"><path d="m0 .101c6.455-.078 12.912-.04 19.367-.101.023 4.804.031 9.603.036 14.404 3.177.016 6.356-.05 9.531-.021.002 6.402.01 12.805.001 19.207-9.636.065-19.269.078-28.904.113-.023-11.203-.007-22.397-.031-33.602zm4.874 9.615c-.02 1.583-.002 3.166-.008 4.75 1.614-.013 3.23.024 4.841-.028.063-1.576.046-3.157-.01-4.73-1.608-.002-3.216.004-4.823.008zm0 9.59c-.019 3.193.003 6.385-.006 9.578 3.236-.001 6.47-.015 9.705-.054-.002-3.183-.008-6.365-.038-9.548-3.22.007-6.441.021-9.661.024z"/></svg>