<svg enable-background="new 0 0 78.797 73.018" viewBox="0 0 78.797 73.018" xmlns="http://www.w3.org/2000/svg"><g clip-rule="evenodd" fill-rule="evenodd"><path d="m24.204.265c.271 11.601-.138 23.343.099 35.354.484-.029.681-.57.893-.893 1.691-2.571 3.505-5.17 5.256-7.785 3.98-5.943 7.979-11.896 12-17.851 1-1.481 2.032-2.931 3.025-4.413.989-1.479 1.857-3.062 3.023-4.413 1.864-.042 4.172-.153 5.951.05-.269.897-.892 1.628-1.389 2.38-1.471 2.224-2.992 4.475-4.513 6.744-5.28 7.814-10.377 15.686-15.767 23.603-.362.532-.764 1.075-1.141 1.685-.327.531-1.016 1.308-1.041 1.736-.039.656.961 1.763 1.389 2.38 1.529 2.207 2.952 4.618 4.363 6.794 1.922 2.962 4.004 6.074 5.851 9.024 3.367 5.377 6.872 10.453 10.314 15.768.49.759 1.071 1.499 1.338 2.38-1.752.17-3.867.167-5.702.099-1.119-1.419-2.074-2.987-3.074-4.512s-1.949-3.079-2.925-4.611c-5.306-7.898-10.305-16.061-15.62-24-.748-1.117-1.347-2.381-2.28-3.372-.722.552-1.139 1.408-1.637 2.132-.51.74-.993 1.483-1.488 2.231-.983 1.491-2.087 2.943-3.023 4.463-.247.4-.392.848-.645 1.24-5.103 7.88-10.576 15.644-15.719 23.553-.24.369-.482.763-.744 1.141-.227.327-.449.819-.893.942-.095-8.836-.049-17.918-.048-27.074 0-3.016-.128-6.062 0-9.074.254-6.021-.178-12.109.049-18.148.195-5.203.078-10.679.05-15.817-.003-.648-.123-1.4.248-1.984 7.883-.056 16.09.027 23.8.248z"/><path d="m66.45.364c-.032.49-.388.863-.645 1.24-1.735 2.553-3.485 5.259-5.206 7.884-4.911 7.489-10.042 14.874-14.925 22.512-.437.681-.991 1.456-1.537 2.231-.397.562-1.378 1.772-1.389 2.331-.012.573.919 1.818 1.339 2.43 3.56 5.177 6.856 10.481 10.314 15.718.998 1.511 1.92 3.073 2.925 4.562 1.013 1.499 1.888 3.065 2.877 4.562 1.48 2.242 2.998 4.415 4.412 6.744.453.746 1.171 1.379 1.339 2.281-.798.17-1.873.099-2.975.1-.959 0-2.248.19-2.926-.1-.542-.231-1.153-1.51-1.537-2.231-.46-.865-.992-1.633-1.438-2.281-3.055-4.436-5.929-9.173-8.876-13.587-3.517-5.266-6.744-10.522-10.363-15.867-.417-.616-1.377-1.806-1.389-2.33-.011-.521.973-1.781 1.389-2.38 3.615-5.213 7.125-10.474 10.611-15.768 3.013-4.575 6.005-8.926 9.123-13.487.497-.727.889-1.618 1.389-2.38.52-.792 1.086-1.616 1.587-2.182.036-.046.09-.075.149-.099 1.887.062 4.031-.132 5.752.097z"/><path d="m78.797.414c-.19.848-.858 1.574-1.339 2.331-3.35 5.274-7.092 10.481-10.562 15.718-2.633 4.143-5.54 8.217-8.28 12.396-.252.384-.389.834-.645 1.239-.654 1.035-1.498 2.197-2.281 3.372-.712 1.068-.753 1.306 0 2.43.749 1.118 1.503 2.303 2.182 3.372.519.817.901 1.613 1.389 2.331.506.745.954 1.487 1.438 2.231 1.996 3.067 3.895 6.102 5.802 9.025 1.939 2.975 3.924 5.973 5.852 8.975 1.446 2.254 2.956 4.434 4.362 6.744.453.742 1.098 1.416 1.29 2.281-1.688.195-3.932.102-5.702.05-.482-.258-.711-.806-.992-1.24-4.028-6.221-8.288-12.48-12.297-18.792-.292-.461-.478-.956-.744-1.438-.69-1.251-1.617-2.451-2.43-3.67-1.648-2.472-3.034-4.86-4.76-7.438-.359-.537-.788-1.141-1.24-1.835-.352-.542-1.086-1.442-1.09-1.934-.005-.521.974-1.811 1.388-2.38 2.704-3.711 4.979-7.458 7.537-11.256.51-.756.935-1.576 1.438-2.33 3.512-5.265 6.972-10.432 10.561-15.719.467-.686.976-1.463 1.488-2.281.462-.735 1.143-1.815 1.587-2.182 1.786-.165 4.261-.165 6.048 0z"/><path d="m41.658 72.808c-10.665.384-21.838-.05-32.875-.05-.781 0-1.623.113-2.381-.148.147-.721.701-1.257 1.092-1.835 2.679-3.968 5.3-8.091 8.132-12 5.517-.045 11.339.032 16.908.099.567.407.922 1.07 1.289 1.636 1.856 2.865 3.737 5.806 5.652 8.727.757 1.153 1.633 2.28 2.183 3.571z"/></g></svg>