<svg enable-background="new 0 0 83.036 62.819" viewBox="0 0 83.036 62.819" xmlns="http://www.w3.org/2000/svg"><path clip-rule="evenodd" d="m.252 62.642c-.19-2.84-.103-6.151-.103-9.219-.002-1.015-.123-2.054.154-2.951 11.807-.319 24.682 0 36.873-.362-.184-.348-.658-.464-.984-.57-11.266-3.671-22.523-7.229-33.869-10.875-.727-.234-1.533-.432-2.174-.881-.051-3.893-.145-8.43 0-12.014.535-.466 1.414-.714 2.174-.984 8.461-3.007 17.223-5.723 25.686-8.7 1.549-.544 3.072-1.129 4.609-1.657 1.518-.521 3.098-.941 4.506-1.709-1.479-.279-3.031-.155-4.557-.155-10.652-.003-22.123.248-32.418 0-.145-4.027-.221-8.2-.053-12.17 3.508-.262 7.062-.155 10.617-.155 7.172 0 14.391-.102 21.646-.104 3.604-.001 7.256.165 10.822 0 3.512-.163 8.252-.232 11.652.104 7.002.69 12.209 3.381 16.52 6.681 2.205 1.687 3.908 3.802 5.594 6.007 1.672 2.188 3.098 4.637 4.143 7.458 1.545 4.168 2.439 9.652 1.658 15.121-.959 6.706-3.561 11.809-7.199 16.054-4.375 5.105-10.326 9.185-18.436 10.564-3.242.552-7.137.518-11.082.519-12.75.002-26.937.15-40.238.155-.945 0-1.891-.098-2.85-.053-.883.042-1.828.186-2.691-.104zm58.777-13.982c2.238-.94 4.199-2.232 5.799-3.833 3.219-3.218 5.623-7.225 5.854-13.36.105-2.828-.666-5.715-1.658-7.924-.992-2.213-2.379-4.019-4.039-5.593-3.162-3.002-7.785-5.578-13.982-5.386-.305.328-.266.878-.258 1.295.051 3.648-.066 7.265-.053 10.513.031 7.432.154 15.132.156 22.579 0 1.05-.111 2.116.207 3.106 3.06.259 5.736-.458 7.974-1.397zm-23.562-22.269c-3.734 1.183-7.482 2.372-11.135 3.522-1.506.474-3.053.781-4.453 1.45.568.553 1.4.67 2.123.932 2.285.828 4.59 1.574 6.887 2.331 3.072 1.01 6.086 2.266 9.269 3.055.334-1.79.104-3.92.104-5.955 0-2.064.125-4.189-.154-6.008-1.014.089-1.737.386-2.641.673z" fill-rule="evenodd"/></svg>