<svg enable-background="new 0 0 60.737 80.871" viewBox="0 0 60.737 80.871" xmlns="http://www.w3.org/2000/svg"><g clip-rule="evenodd" fill-rule="evenodd"><path d="m29.819 0c.432.079 1.137.966 1.61 1.459 7.28 7.588 14.686 15.262 21.799 22.906 2.165 2.42 4.469 4.824 6.695 7.249.284.309.789.61.755 1.108-5.047.246-10.625-.029-15.857.1-1.388-1.012-2.478-2.321-3.726-3.474-3.751-3.397-7.155-7.143-11.024-10.421-2.349 2.149-4.379 4.616-6.596 6.897-1.874 2.09-3.692 3.988-5.638 6.142-.286.316-.576.716-.856.806-.465.149-1.335.05-2.014.05-4.935 0-10.304.004-14.952-.1-.063-.489.502-.771.756-1.108.245-.409.614-.694.906-1.057 1.867-2.025 3.704-4.082 5.588-6.091 2.479-2.723 5.091-5.313 7.4-8.206 4.987-5.401 10.005-10.77 15.003-16.159.037-.047.092-.077.151-.101zm-.1 5.89c-5.253 5.606-10.536 11.178-15.607 16.966-1.258 1.46-2.61 2.827-3.877 4.279-.331.51-1.067.876-1.108 1.51 1.832.233 4.093.036 6.092.101 1.367-1.15 2.472-2.562 3.675-3.876 3.002-3.28 6.15-6.518 9.112-9.767.593-.65 1.114-1.424 1.913-1.863 5.612 5.01 10.77 10.475 16.361 15.506 1.716-.063 3.687.129 5.235-.101.08-.343-.249-.593-.453-.805-1.598-1.665-3.17-3.399-4.731-5.035-2.653-2.811-5.372-5.646-8.105-8.608-1.943-2.105-4.2-4.155-6.192-6.343-.517-.567-1.486-1.809-2.165-2.064-.06.024-.114.053-.15.1z"/><path d="m29.92 48.581c1.337-.957 2.325-2.275 3.474-3.423 3.402-3.402 6.704-7.015 10.32-10.27 5.667.058 11.655-.121 17.016.101.069.386-.341.61-.554.806-.742.681-1.474 1.423-2.215 2.164-1.946 1.946-3.701 3.952-5.689 5.94-.975.975-1.926 1.977-2.869 2.92-3.289 3.29-6.651 6.853-10.068 10.27-.475.475-1.219 1.034-1.359 1.51-.179.606-.051 1.935-.051 2.719 0 .997.01 2.014 0 2.768-.072 5.76.197 11.065-.05 16.664-4.853.124-10.614.196-15.606 0-.16-6.279-.151-12.552-.15-19.281 0-.927.157-1.979 0-2.719-.088-.409-.878-1.179-1.31-1.611-1.446-1.447-2.777-3.029-4.179-4.43-.993-.993-1.962-1.948-2.769-3.021-.816-1.085-1.929-1.948-2.819-2.92-3.459-3.779-6.895-7.449-10.521-11.076-.209-.209-.602-.418-.504-.805 4.178-.098 8.408-.088 12.888 0 1.123.023 2.23-.194 3.022 0 .585.144 1.401 1.15 1.862 1.611 2.931 2.93 5.809 5.708 8.659 8.659 1.13 1.173 2.14 2.465 3.472 3.424zm-20.691-9.817c-.147.269.499.888.855 1.258 1.88 1.957 3.534 3.783 5.285 5.689 3.143 3.418 6.433 6.742 9.616 10.17.4.43.907.858 1.007 1.208.176.621-.006 1.57 0 2.417.036 5.465-.009 11.731.151 17.268 1.139.267 2.516.151 3.876.151 1.347 0 2.752-.014 3.927-.151.237-6.497.029-13.376.101-19.835 1.249-1.536 2.685-2.887 4.078-4.279 4.191-4.192 8.227-8.493 12.435-12.636.221-.47.995-.645.906-1.258-1.818-.229-4.058-.038-6.041-.101-1.417 1.167-2.635 2.534-3.927 3.826-1.287 1.286-2.587 2.598-3.826 3.927-1.877 2.011-3.899 3.917-5.739 5.89-.625.67-1.19 1.451-2.014 1.913-4.591-4.33-9.112-9.163-13.644-13.693-.551-.552-1.393-1.729-2.063-1.863-1.545-.307-3.352.231-4.833 0-.059.023-.114.052-.15.099z"/></g></svg>