<svg enable-background="new 0 0 67.696 69.355" viewBox="0 0 67.696 69.355" xmlns="http://www.w3.org/2000/svg"><path clip-rule="evenodd" d="m67.644 32.491c.004 1.736.144 3.967-.05 5.713-1.795.846-3.679 1.431-5.563 2.055-.916.303-1.787.759-2.706 1.103-4.551 1.701-9.236 3.495-13.831 5.212-3.646 1.362-7.269 2.693-11.076 4.16-2.643 1.018-5.497 2.018-8.369 3.057-.823.298-2.238.663-2.656 1.103-.315.331-.479 1.2-.651 1.754-.551 1.776-1.363 3.369-2.355 4.711-2.691 3.639-6.128 6.24-11.426 7.517-1.848.445-4.299.589-6.565.401-.714-.06-1.446.095-2.105-.15-.273-1.446-.187-3.827-.05-5.412 1.478-.271 3.112-.15 4.61-.15 4.54 0 7.672-1.915 9.923-4.21.36-.464.964-.932 1.002-1.553-.698-.118-1.336.282-1.955.501-3.173 1.123-6.415 2.323-9.622 3.558-.639.246-1.317.456-1.955.702-.63.243-1.239.648-1.955.551-.262-.797-.15-1.858-.15-2.907 0-1.029-.08-2.115.1-2.957.573-.572 1.427-.71 2.155-1.002 2.206-.888 4.496-1.664 6.767-2.559 2.252-.888 4.574-1.546 6.866-2.456.705-.28 1.576-.41 2.054-1.053-.17-4.666-2.387-7.838-5.262-9.973-1.423-1.057-3.243-2.059-5.312-2.355-1.113-.159-2.392-.15-3.659-.15-1.177 0-2.434.2-3.608-.1-.233-.81-.188-1.898-.15-2.907.038-1.002-.103-2.026.15-2.806 2.226-.416 5.002.081 7.316-.25 1.982-.284 3.935-1.222 5.312-2.205 2.183-1.558 3.719-3.572 4.661-6.615.253-.816.78-2.34.501-3.157-.173-.505-1.431-.867-2.105-1.103-.858-.3-1.605-.624-2.255-.902-1.57-.672-3.155-1.151-4.561-1.804-.724-.336-1.49-.675-2.255-.952-1.535-.556-3.008-1.221-4.56-1.804-.753-.283-1.581-.446-2.155-1.002-.081-1.625-.164-3.827-.05-5.513.025-.36.009-.556.251-.752-.155-.24-.266-.502-.301-.852-.136-1.391.124-3.418.151-4.761.312-.198 1.023-.194 1.403-.201 3.087-.049 5.969-.027 8.319.652 7.023 2.03 11.579 6.94 13.481 14.232 1.728.991 3.67 1.516 5.512 2.255 5.505 2.21 11.113 4.254 16.588 6.566 3.654 1.542 7.337 3.05 11.075 4.41 2.799 1.018 5.522 2.135 8.419 3.157.905.319 1.897.567 2.657 1.203zm-52.721-22.151c-1.674-1.814-3.735-3.347-6.515-4.109-2.166-.594-4.726-.412-7.617-.501-.066.05-.186.047-.2.15 2.469 1.129 5.032 2.059 7.567 3.107 1.883.778 3.807 1.536 5.663 2.305.63.262 1.292.636 2.005.602-.017-.611-.518-1.137-.903-1.554zm41.545 23.955c-3.668-1.41-7.274-2.676-10.875-4.159-4.312-1.776-8.552-3.324-12.98-5.062-1.34-.525-2.778-1.232-4.259-1.754-1.497-.526-3.013-1.366-4.41-1.604-.086-.015-.176.05-.201.101-.24.123-.391 1.125-.501 1.604-.932 4.061-2.885 6.85-5.212 9.271-.414.328-.804.564-1.353 1.002-.288.229-1.217.82-1.203 1.203.014.379 1.178.966 1.453 1.203 2.868 2.472 5.296 5.852 6.264 9.973.157.669.146 1.468.602 2.105.794.072 1.502-.392 2.205-.651 6.588-2.434 13.188-4.68 19.644-7.167 2.916-1.122 5.768-2.134 8.669-3.257 1.095-.423 2.207-.786 3.258-1.203.3-.119.766-.238.902-.602-.567-.491-1.316-.739-2.003-1.003z" fill-rule="evenodd"/></svg>