<svg enable-background="new 0 0 19.879 13.121" viewBox="0 0 19.879 13.121" xmlns="http://www.w3.org/2000/svg"><path d="m9.993.006c.013-.002.038-.005.051-.006 2.092 2.784 4.194 5.562 6.284 8.349 1.183 1.57 2.361 3.143 3.55 4.708-.828.009-1.656.002-2.484.004-.627.027-1.253.008-1.88.014-1.822-2.397-3.633-4.804-5.444-7.21-.042-.049-.067-.118-.134-.135-.032.069-.073.132-.123.19-.983 1.293-1.96 2.592-2.945 3.884 1.853.005 3.707 0 5.56.003-.832 1.098-1.66 2.198-2.488 3.298-1.363.003-2.725 0-4.088.001-1.059-.01-2.117.019-3.176.013-.892 0-1.784.001-2.675-.001.037-.098.114-.17.172-.253 3.275-4.284 6.545-8.573 9.82-12.859z"/></svg>