<svg enable-background="new 0 0 271.364 268.53" viewBox="0 0 271.364 268.53" xmlns="http://www.w3.org/2000/svg"><g clip-rule="evenodd" fill-rule="evenodd"><path d="m161.398.266c-.215-.01-.018-.291.088-.264 21.095 3.188 38.088 11.792 52.715 21.877 9.807 6.76 18.369 14.746 25.832 23.81 1.889 2.295 3.779 4.535 5.359 7.117 1.532 2.504 3.43 4.817 5.008 7.38 6.302 10.237 11.739 21.225 15.463 34.177 3.602 12.527 6.137 27.68 5.359 44.018-.723 15.178-3.529 29.652-7.819 41.821-4.238 12.021-10.196 22.988-17.396 32.245-1.859 2.389-3.437 4.837-5.447 7.029-5.859 6.382-12.328 12.501-19.769 17.396-4.162 3.273-9.838 5.433-16.957 4.568-6.422-.779-10.891-4.164-14.233-7.819-2.669-2.928-4.858-6.3-5.975-10.631-1.115-4.327-1.566-9.428-1.933-14.585-.722-10.149-.263-21.569-.264-32.157 0-27.227.704-55.15.703-81.974 0-8.185.175-16.397.176-24.513.001-7.658.087-16.214.088-24.337.001-10.708-2.191-19.828-5.799-27.324-1.824-3.792-3.777-7.242-6.326-10.192-2.6-3.01-5.696-5.193-8.873-7.642z"/><path d="m0 107.454c.898-7.22 2.702-13.904 4.92-20.12 6.634-18.587 16.651-33.659 28.466-47.093 8.495-8.437 17.02-16.73 27.412-23.019 9.291-5.622 18.867-10.295 32.333-11.773 13.16-1.445 25.321 2.205 33.124 7.556 6.517 4.468 12.472 11.514 14.321 20.472 1.022 4.954 1.833 10.357 1.406 15.814-.845 10.802-4.126 19.037-10.719 24.074-3.244 2.478-7.444 3.831-12.389 5.008-9.347 2.224-20.229 3.16-31.454 3.339-34.386.547-64.856 4.429-82.764 21.613-1.265.91-2.338 2.155-3.427 3.338-.322.352-.658.997-1.229.791z"/><path d="m139.61 111.584c.647-.021.678-.138.703 1.406.066 4.143.088 9.37.088 13.97 0 8.272-.001 15.543 0 23.634 0 7.957-.167 15.541-.879 22.932-.941 9.77-3.164 18.441-6.853 25.304-3.701 6.885-9.038 12.344-15.024 17.045-2.936 2.306-6.256 4.415-9.752 6.326-6.938 3.791-14.29 7.084-23.195 8.962-8.328 1.756-19.537 3.334-28.906 1.757-4.473-.753-8.705-1.961-12.652-3.427-3.979-1.477-7.572-3.168-10.807-5.271-9.628-6.261-17.521-14.634-22.492-25.655-3.186-7.064-4.969-17.872-3.602-27.588 1.325-9.417 4.594-16.895 8.962-23.195 4.351-6.275 9.737-11.667 16.605-15.463 6.887-3.806 14.68-6.642 23.723-8.435 8.798-1.744 18.5-3.004 28.818-3.251 5.152-.123 10.421-.235 15.551-.527 5.088-.29 10.178-.442 14.672-1.318 6.685-1.302 12.836-3.063 18.978-5.096.91-.301 2.029-.574 3.076-.966.993-.375 2.11-1.116 2.986-1.144z"/><path d="m146.463 240.826h.175c4.062 4.197 8.018 8.499 12.388 12.388 3.861 3.336 8.358 5.967 13.091 8.522.639.345 1.439.548 1.933 1.142-2.668 1.07-5.628 1.508-8.61 2.196-8.694 2.007-18.439 3.138-28.818 3.427-6.706.187-13.603-.581-20.12-1.23-5.619-.559-11.017-1.428-15.991-2.899-.574-.17-1.383-.332-1.669-.966 5.269-.462 9.917-1.689 14.233-3.251 10.613-3.84 19.573-9.476 28.115-15.463 1.802-1.262 3.476-2.677 5.273-3.866z"/></g></svg>