<svg enable-background="new 0 0 161.709 108.323" viewBox="0 0 161.709 108.323" xmlns="http://www.w3.org/2000/svg"><path clip-rule="evenodd" d="m80.876 0c.411-.023 1.058 1.065 1.438 1.569 1.286 1.704 2.537 3.46 3.791 5.098.865 1.13 1.629 2.342 2.483 3.442 4.271 5.498 8.481 11.344 12.637 16.864 5.09 6.76 10.104 13.502 15.208 20.263 1.691 2.24 3.46 4.445 5.099 6.711.421.581.75 1.206 1.177 1.787 2.886 3.924 5.89 7.914 8.889 11.809 3.438 4.461 6.725 9.03 10.11 13.508 1.7 2.249 3.399 4.504 5.098 6.755 1.698 2.25 3.298 4.572 5.012 6.797 2.588 3.359 5.028 6.766 7.538 10.197.414.566.855 1.131 1.264 1.699.396.55.903 1.071 1.09 1.743-9.733.184-19.71-.001-29.283 0-1.473 0-3.078.035-4.444-.044-3.532-4.493-6.773-9.203-10.197-13.77-10.258-13.681-20.562-27.363-30.808-41.092-1.575-2.358-3.381-4.495-5.098-6.885-.221-.307-.597-.863-.828-.872-.376-.014-.733.696-1.002 1.046-2.036 2.643-4.128 5.432-6.145 8.061-4.694 6.142-9.292 12.38-13.988 18.521-1.754 2.298-3.498 4.578-5.229 6.928-.572.777-1.238 1.51-1.656 2.397.967.237 1.971.131 2.963.131 7.057 0 14.264.087 21.396.087 8.132 0 16.241-.004 24.141.219-.033.681-.648 1.15-1.003 1.655-2.912 3.902-5.796 7.822-8.759 11.679-2.958 3.852-5.777 7.801-8.715 11.678-25.949.089-52.048-.26-77.956-.261-1.704-.001-3.411.106-5.099-.131.203-.695.747-1.238 1.177-1.787 1.269-1.621 2.525-3.328 3.791-5.011 2.526-3.36 5.079-6.64 7.625-10.022.845-1.121 1.728-2.249 2.44-3.442.703-1.178 1.681-2.247 2.527-3.356 4.228-5.533 8.468-11.124 12.638-16.776 1.657-2.248 3.448-4.4 5.098-6.668 1.647-2.263 3.369-4.476 5.055-6.71 3.358-4.448 6.783-8.888 10.153-13.378.428-.57.753-1.216 1.177-1.786 6.258-8.416 12.544-16.685 18.955-25.143 2.892-3.814 5.91-7.834 8.846-11.722.469-.623.89-1.26 1.394-1.788z" fill-rule="evenodd"/></svg>