<svg enable-background="new 0 0 81.149 61.897" viewBox="0 0 81.149 61.897" xmlns="http://www.w3.org/2000/svg"><g clip-rule="evenodd" fill-rule="evenodd"><path d="m63.244 28.553c-.353-.519-.915-1.283-1.204-2.042-.354.816-.754 1.584-1.361 2.146-1.812.68-3.508-.403-3.717-1.99-.13-.978.414-1.746.89-2.513-1.098.056-2.388-.021-2.932-.681-.46-.551-.757-1.222-.681-2.094.077-.883.692-1.486.994-2.042-1.845.407-3.444-.405-3.664-1.937-.185-1.282.422-1.953.942-2.775-2.115.537-3.909-.89-3.665-2.879.101-.818.59-1.207.995-1.885-2.085.523-3.831-.799-3.718-2.67.055-.897.563-1.414 1.048-2.094-2.22.533-3.981-.836-3.718-2.879.249-1.925 2.79-2.816 4.293-1.414.428.48.673 1.142.891 1.832.281-.818.619-1.579 1.204-2.094 1.816-1.155 4.116.219 4.136 2.094.011 1.002-.711 1.543-1.1 2.304.799-.097 1.567-.137 2.356 0-.246-.633-1.137-1.3-1.151-2.251-.01-.652.486-1.158.733-1.727 1.072-1.136 2.822-1.111 3.77.052.296.365.663 1.112.68 1.623.032.977-.749 1.506-1.099 2.251.71-.05 1.561-.125 2.355.053-.324-.601-1.009-1.295-1.204-2.199.338-1.53 1.191-2.698 2.774-2.67 1.236.022 2.564 1.195 2.565 2.565.002.967-.709 1.45-1.047 2.199.655.035 1.529-.131 2.251.052-.248-.68-1.077-1.227-1.099-2.199-.029-1.297 1.17-2.5 2.303-2.618 1.424-.148 2.907 1.026 2.984 2.46.061 1.126-.748 1.727-1.309 2.461-.767.188-1.633.167-2.461.052.308.548.93 1.235 1.1 2.094.427-.743.803-1.536 1.361-2.147.838-.167 1.768-.294 2.617-.052-.283-.636-1.188-1.324-1.204-2.304-.013-.766.545-1.294.891-1.885.599-.435 1.253-.785 2.147-.681 1.31.154 1.99 1.305 2.303 2.408.564-1.396 1.477-2.825 3.352-2.408.946.211 1.907 1.149 1.937 2.408.043 1.83-1.604 3.104-3.77 2.461.372.627 1.093 1.293 1.1 2.355.006 1.012-.585 1.631-1.047 2.304 2.082-.386 3.73.511 3.717 2.46-.007.983-.68 2.117-1.676 2.461-.403.14-1.465.246-2.094-.053-.785-.373-1.062-1.337-1.466-2.199-.347.805-.729 1.575-1.309 2.146.772-.132 1.957-.286 2.617.052.562.288 1.252 1.454 1.257 2.304.006.994-.612 1.731-1.1 2.356 1.39-.506 2.929.17 3.455 1.047 1.205 2.004-.589 4.654-3.351 3.822.368.686.976 1.237.995 2.199.021 1.032-.596 1.716-1.1 2.355 1.125-.234 2.191-.154 2.88.367 1.846 1.398.711 4.555-1.676 4.555-.332 0-.665-.135-1.1-.104.438.668 1.147 1.431.995 2.67-.111.906-.729 1.484-1.257 1.989-.844.207-1.679.24-2.513 0-.734-.504-1.114-1.364-1.466-2.251-.321.9-.704 1.739-1.413 2.251-.866.199-1.912.389-2.618 0-.729-.4-1.018-1.426-1.309-2.199-.344.32-.353.824-.576 1.204-.226.384-.619.601-.785.995.816-.204 1.858-.2 2.617.053.668.501 1.068 1.27 1.361 2.146.504-.746.666-1.746 1.414-2.146.761-.408 1.99-.364 2.67 0 .751.402 1.037 1.454 1.361 2.199.318-.903.75-1.692 1.413-2.251.621-.087.858-.249 1.466-.209 3.059.197 3.164 5.113-.262 5.079-.397-.004-.661-.1-1.1-.157.444.746 1.142 1.44.995 2.722-.175 1.53-1.415 2.243-3.193 2.199.295.682.733 1.222.942 1.989.512-1.145.924-2.225 2.304-2.408 1.917-.255 3.096 1.272 2.932 2.827-.177 1.672-1.662 2.56-3.77 2.094-.682-.541-1.142-1.302-1.414-2.251-.557 1.306-1.046 2.592-3.036 2.408-3.084-.284-3.013-5.631.995-5.078-.173-.722-.916-1.26-.891-2.199.026-.964.721-1.661 1.257-2.251.715-.326 1.652-.256 2.565-.157-.362-.528-.987-1.247-1.152-2.146-.393.881-.767 1.781-1.518 2.303-.841.161-1.743.201-2.514-.052-.685-.484-1.05-1.289-1.413-2.094-.394.74-.729 1.539-1.309 2.094 2.11-.712 3.898.568 3.926 2.356.023 1.506-1.31 2.538-2.564 2.565-2.676.058-3.356-3.365-1.467-4.869-2.175.693-4.013-.755-3.821-2.722.084-.858.591-1.25.994-1.937-.58-.005-.96.161-1.466.104-1.756-.197-2.805-2.135-2.041-3.717.197-.409.629-.662.837-1.152-.517-.009-.766.156-1.204.157-2.681.006-3.342-3.536-1.361-4.869.714-.244 1.692-.24 2.519-.101zm11.046-23.663c.898-.134 1.738-.194 2.565.053-.452-.525-1.025-1.383-1.361-2.199-.237.878-.704 1.529-1.204 2.146zm-26.856.053c.759-.114 1.657-.152 2.408 0-.458-.66-.896-1.338-1.204-2.147-.244.874-.706 1.527-1.204 2.147zm24.186.156c.486.561.935 1.16 1.152 1.989.353-.272.357-.737.576-1.099.215-.357.582-.604.732-.995-.8.222-1.818.017-2.46.105zm-20.312 2.095c.315-.287.377-.749.575-1.1.212-.374.486-.644.681-.995-.812.134-1.584.093-2.355-.052.355.726.926 1.237 1.099 2.147zm10.732 0c.233-.866.741-1.458 1.151-2.147-.731.129-1.628.141-2.356 0 .48.637.877 1.358 1.205 2.147zm-5.235-.105c.252-.743.685-1.304 1.047-1.937-.718-.036-1.45.08-2.251-.053.473.591.837 1.292 1.204 1.99zm4.031 2.565c.795-.093 1.576-.145 2.356 0-.495-.621-.876-1.357-1.204-2.146-.209.891-.679 1.52-1.152 2.146zm-10.628 0c.583-.026 1.63-.114 2.304.053-.457-.66-.826-1.408-1.204-2.146-.212.852-.649 1.48-1.1 2.093zm16.02 0c.803-.13 1.664-.125 2.409.053-.379-.669-.929-1.167-1.1-2.042-.067-.003-.072-.067-.157-.053-.242.822-.701 1.429-1.152 2.042zm5.445 0c.734-.116 1.629-.152 2.355 0-.482-.616-.807-1.392-1.256-2.042-.199.849-.712 1.382-1.099 2.042zm-16.021.053c.692-.178 1.496-.108 2.146-.105-.353-.642-.697-1.292-1.047-1.937-.221.791-.864 1.435-1.099 2.042zm19.948 2.094c.211-.819.693-1.365 1.099-1.989-.869.075-1.555.112-2.355-.052.493.605.806 1.39 1.256 2.041zm-17.434-1.937c.454.611.844 1.285 1.151 2.042.281-.784.702-1.427 1.152-2.042-.764.09-1.695.014-2.303 0zm6.491 2.042c.398-.685.694-1.47 1.204-2.042-.808.061-1.557.061-2.304-.052.407.658.895 1.234 1.1 2.094zm5.393-.053c.442-.657.742-1.457 1.257-2.042-.782.114-1.577.127-2.356 0 .406.64.901 1.193 1.099 2.042zm-15.968.053c.25-.815.721-1.409 1.151-2.042-.787.095-1.526.135-2.303 0 .426.638.817 1.313 1.152 2.042zm9.267 2.617c.789-.285 1.826-.306 2.67-.053.738.484 1.002 1.441 1.466 2.199.185-.879.696-1.433 1.1-2.094-.75.162-1.713.123-2.408-.052-.75-.507-1.077-1.437-1.519-2.252-.224.998-.737 1.706-1.413 2.252-.669.169-1.642.225-2.356.052.285.572.851 1.312 1.152 2.042.313-.82.681-1.586 1.308-2.094zm5.497-.053c.806-.223 1.772-.267 2.565 0-.497-.654-.966-1.338-1.309-2.146-.274.86-.762 1.506-1.256 2.146zm-16.021 0c.825-.243 1.735-.049 2.514-.052-.661-.473-.888-1.381-1.361-2.042-.191.892-.695 1.471-1.153 2.094zm5.236 0c.801-.254 1.833-.083 2.565-.052-.638-.496-.933-1.336-1.361-2.042-.252.848-.74 1.46-1.204 2.094zm14.712 2.147c.438-.644.712-1.452 1.204-2.042-.799.185-1.729.011-2.408 0 .523.559.998 1.165 1.204 2.042zm-15.968 0c.216-.779.713-1.276.994-1.989-.758.111-1.472.09-2.198-.052.412.669.846 1.316 1.204 2.041zm14.815 2.565c.663-.327 1.685-.112 2.408-.157-.575-.506-.797-1.367-1.256-1.99-.135.93-.828 1.581-1.152 2.147zm-16.072 0c.695-.174 1.557-.198 2.304-.052-.371-.676-.771-1.323-1.1-2.042-.262.838-.721 1.478-1.204 2.094zm5.235 0c.751-.191 1.574-.24 2.356-.052-.387-.679-.812-1.317-1.152-2.042-.261.838-.74 1.459-1.204 2.094zm5.445-.052c.742-.16 1.654-.109 2.409 0-.538-.545-.808-1.357-1.257-1.989-.257.79-.698 1.395-1.152 1.989zm-2.67.157c.466.634.861 1.338 1.205 2.094.179-.384.293-.825.523-1.204.214-.353.673-.7.628-.942-.677.233-1.597.15-2.356.052zm5.34.053c.596.503.899 1.299 1.256 2.042.189-.388.284-.825.523-1.204.226-.356.682-.64.629-.942-.666.29-1.736.063-2.408.104zm6.702 2.041c.222-.895.726-1.507 1.204-2.146-.788.158-1.633.201-2.408 0 .438.678.866 1.367 1.204 2.146zm-16.335 0c.386-.295.4-.962.681-1.361.21-.209.447-.391.524-.733-.746.172-1.626.196-2.356 0 .449.633.959 1.204 1.151 2.094zm-1.047 2.513c.802-.117 1.558-.115 2.304.052-.493-.607-.859-1.339-1.257-2.042-.192.822-.648 1.377-1.047 1.99zm5.288.053c.749-.192 1.593-.164 2.408-.052-.486-.579-.848-1.281-1.204-1.99-.245.836-.723 1.441-1.204 2.042zm5.55-.053c.687-.131 1.512-.131 2.198 0-.408-.622-.798-1.262-1.151-1.937-.23.766-.705 1.285-1.047 1.937zm5.34 0c.707-.142 1.523-.104 2.303-.052-.457-.573-.779-1.28-1.204-1.885-.201.812-.716 1.309-1.099 1.937zm-13.456.21c.408.604.736 1.288 1.151 1.885.227-.803.738-1.322 1.152-1.937-.72.105-1.527.138-2.303.052zm5.393 0c.502.545.778 1.315 1.151 1.989.23-.782.677-1.348 1.047-1.989-.815.117-1.509.005-2.198 0zm6.544 1.989c.236-.811.707-1.387 1.1-2.042-.733.117-1.522.129-2.252 0 .4.665.839 1.291 1.152 2.042zm-6.597 2.46c.751-.163 1.584-.087 2.356 0-.486-.596-.856-1.307-1.205-2.042-.259.805-.734 1.396-1.151 2.042zm5.078.105c-.703.244-1.719.096-2.408.104.492.573.932 1.198 1.152 2.042.464-.775.766-1.712 1.518-2.199.805-.23 1.647-.205 2.514-.053-.568-.549-.882-1.352-1.31-2.042-.348.857-.742 1.668-1.466 2.148zm3.665.943c.227.37.288.847.628 1.152.171-.877.684-1.41 1.1-2.042-.885.101-1.7.135-2.461-.105.192.369.505.623.733.995zm-10.26 1.204c.266-.851.769-1.464 1.203-2.146-.724.286-1.849.078-2.513.052.601.534.983 1.286 1.31 2.094zm-1.205 2.46c.809-.185 1.646-.166 2.461 0-.56-.626-.951-1.421-1.309-2.251-.154.98-.69 1.579-1.152 2.251zm10.838 0c.709-.224 1.62-.152 2.408-.052-.515-.62-.901-1.367-1.257-2.146-.17.914-.836 1.605-1.151 2.198zm-4.346-1.989c-.131.298-.163.654-.314.942-.231.441-.773.725-.732 1.047.763-.184 1.586-.172 2.356 0 .675.564 1.253 1.226 1.466 2.251.389-.781.778-1.561 1.31-2.199-.755.194-1.763.206-2.514 0-.747-.492-1.054-1.425-1.518-2.199.001.073-.027.116-.054.158zm-3.142 2.984c.245.378.295.881.629 1.205.203-.897.732-1.467 1.204-2.094-.86.268-1.869.055-2.618 0 .28.269.56.54.785.889z"/><path d="m29.581 7.246c.316-.852.745-1.593 1.309-2.199-.826.126-1.783.296-2.513 0-.767-.311-1.506-1.689-1.414-2.565.233-2.235 3.216-3.06 4.555-1.466.271.323.678 1.036.681 1.675.005 1.053-.747 1.605-1.257 2.356.73-.221 1.627-.246 2.461-.104-.195-.66-1.061-1.211-1.1-2.147-.032-.777.53-1.385.891-1.989 1.656-1.517 4.353-.214 4.293 1.989-.047 1.722-1.494 2.749-3.665 2.304.214.551.918 1.061.995 1.989.074.9-.268 1.615-.733 2.199-.599.62-1.772.809-2.932.576.059.456.545.741.733 1.152.969 2.125-.948 4.34-3.403 3.612.413.858 1.013 1.477.942 2.513-.106 1.558-1.647 2.71-3.665 2.199.367.818 1.126 1.28.942 2.774-.197 1.607-1.746 2.408-3.665 1.99.3.597.924 1.154.995 2.042.07.881-.336 1.516-.785 2.094-.642.595-1.824.811-2.932.523.342.702.886 1.045.994 1.833.274 1.99-1.399 3.432-3.612 2.879.086.434.548.732.733 1.152.977 2.221-1.109 4.39-3.612 3.508-.449-.703-.999-1.305-1.204-2.251-.432.808-.777 1.701-1.466 2.251-.799.227-1.657.198-2.514.052-.696-.559-1.132-1.381-1.466-2.303-.284.901-.752 1.62-1.309 2.251.852-.26 1.8-.203 2.67 0 .512.663 1.308 1.348 1.309 2.356.002.963-.754 1.583-1.151 2.303.753-.178 1.663-.201 2.408 0-.293-.684-1.123-1.254-1.151-2.251-.021-.723.73-2.114 1.309-2.408.707-.36 1.59-.172 2.513-.052.65.697 1.31 1.53 1.204 2.67-.141 1.52-1.644 2.747-3.612 2.094.216.553.628.736.838 1.204 1.078 2.406-1.615 4.633-3.822 3.246-.555-.492-.934-1.161-1.151-1.989-.32.657-.597 1.358-.995 1.937.564.194 1.251.07 1.727.262 2.818 1.131 1.288 6.121-2.303 4.764.375.656 1.087 1.238 1.099 2.304.022 1.838-1.613 3.003-3.664 2.461.285.635.949 1.194.994 2.146.038.802-.296 1.438-.732 1.99-1.683 1.524-4.308.35-4.346-1.78-.03-1.715 1.664-3.133 3.77-2.461-.566-.767-1.515-1.934-.89-3.403.54-1.274 1.612-1.672 3.507-1.361-.348-.577-1.001-1.302-1.151-2.251.186-.81.562-1.428.942-2.042-.391-.286-.756-.114-1.1-.157-1.378-.169-2.27-1.572-2.094-2.932.082-.636.556-1.575 1.151-1.884.651-.338 1.828-.225 2.67-.052.654.533 1.068 1.305 1.361 2.199.328-.841.788-1.551 1.309-2.199-.795.221-1.666.224-2.513.052-.618-.607-1.408-1.381-1.413-2.408-.005-.974.778-1.579 1.151-2.304-.792.156-1.753.226-2.461-.052-1.577-.826-1.708-3.821-.052-4.764.768-.166 1.763-.23 2.513 0-.355-.57-1.014-1.29-1.204-2.199-.382.857-.739 1.739-1.466 2.251-1.912.503-3.435-.334-3.77-1.885-.185-2.351 1.52-3.404 3.717-2.879-.42-.692-1.194-1.414-1.047-2.67.098-.83.639-1.276.995-1.885-1.373.282-2.529-.028-3.142-.733-1.618-1.866.287-5.205 3.142-4.136-.386-.706-1.052-1.263-1.047-2.304.004-1.002.574-1.681 1.099-2.304-2.212.528-4.031-.69-3.769-2.827.198-1.618 1.584-2.412 3.664-2.094-.685-.876-1.311-2.2-.731-3.457.224-.487.667-.831.994-1.204.707-.15 1.664-.234 2.408-.052-.27-.604-.927-1.27-1.099-2.146.188-.835.398-1.577.994-2.095.994-.863 2.76-.721 3.612.262.374.431.475.996.733 1.623.458-1.321 1.156-2.511 2.723-2.513 1.545-.001 2.077 1.283 2.564 2.513.355-1.492 1.481-2.836 3.246-2.46 1.187.252 1.754 1.253 2.095 2.46-.155 1.032-.635 1.739-1.204 2.356.767-.1 1.587-.138 2.408-.052-.364-.766-1.098-1.241-1.1-2.251 0-.862.653-1.734 1.153-2.095 1.048-.756 2.877-.502 3.612.628.834 1.28.379 2.727-.628 3.717.708-.048 1.669-.163 2.461.052.753.487 1.129 1.349 1.466 2.252zm-19.894-2.303c.831-.078 1.597-.14 2.356.052-.524-.645-.956-1.382-1.256-2.251-.21.891-.665 1.535-1.1 2.199zm5.235 0c.84-.081 1.471-.11 2.304 0-.481-.636-.871-1.363-1.204-2.147-.174.908-.708 1.457-1.1 2.147zm-1.466 2.251c.343-.246.335-.709.523-1.047.192-.345.567-.582.628-.995-.846.096-1.618.12-2.356-.105.48.638.986 1.248 1.205 2.147zm-5.392 0c.417-.304.411-.9.681-1.309.198-.301.526-.446.628-.785-.82.177-1.696.186-2.513 0 .471.627 1.013 1.184 1.204 2.094zm10.732 0c.273-.843.748-1.485 1.257-2.094-.83.117-1.688.128-2.514 0 .512.605.914 1.32 1.257 2.094zm5.393.052c.264-.853.75-1.483 1.204-2.146-.832.233-1.688.044-2.461.053.546.569.937 1.295 1.257 2.093zm-1.1 2.461c.802-.106 1.44-.084 2.251 0-.482-.634-.864-1.37-1.204-2.146-.165.899-.697 1.43-1.047 2.146zm5.392 0c.754-.129 1.545-.117 2.304 0-.518-.616-.847-1.422-1.257-2.146-.145.918-.708 1.42-1.047 2.146zm-16.125 0c.762-.078 1.391-.12 2.199-.053-.289-.688-.803-1.152-.942-1.989-.067-.003-.073-.067-.157-.053-.176.889-.672 1.458-1.1 2.095zm-5.288 0c.807-.097 1.38-.062 2.199 0-.453-.612-.803-1.326-1.151-2.042-.264.765-.701 1.358-1.048 2.042zm10.628 0c.763-.105 1.441-.116 2.199 0-.47-.578-.729-1.365-1.152-1.99-.245.767-.713 1.312-1.047 1.99zm-6.858 2.251c.229-.836.718-1.412 1.152-2.042-.582.007-1.643.137-2.304-.053.325.55.838 1.36 1.152 2.095zm4.188-2.042c-.041.011-.061.043-.053.104.508.505.719 1.306 1.152 1.885.173-.857.707-1.353 1.1-1.989-.709.081-1.652.036-2.199 0zm11.78 2.042c.41-.724.761-1.508 1.309-2.094-.802.09-1.625.154-2.408 0 .401.662.916 1.213 1.099 2.094zm-21.36.104c.195-.903.719-1.479 1.151-2.146-.809.101-1.499.111-2.304 0 .416.684.875 1.324 1.153 2.146zm16.073-.052c.172-.892.693-1.436 1.1-2.094-.812.119-1.478.085-2.304 0 .481.617.827 1.371 1.204 2.094zm-16.649 1.571c-.225.367-.661.696-.629.942.808-.144 1.552-.174 2.356 0-.452-.682-.887-1.382-1.204-2.199-.172.414-.288.874-.523 1.257zm15.496.889c.843-.077 1.42-.086 2.252 0-.476-.642-.851-1.383-1.204-2.146-.16.905-.688 1.441-1.048 2.146zm5.341 0c.801-.116 1.556-.114 2.356 0-.446-.67-.921-1.313-1.204-2.146-.254.846-.716 1.483-1.152 2.146zm-16.073 0c.852-.098 1.619-.126 2.408.053-.401-.681-.978-1.187-1.151-2.094-.053 0-.104 0-.157 0-.221.827-.66 1.435-1.1 2.041zm5.235 0c.642-.128 1.685-.043 2.408-.052-.558-.524-.828-1.335-1.256-1.989-.233.832-.727 1.402-1.152 2.041zm-6.701 2.357c.2-.917.697-1.537 1.152-2.199-.803.16-1.609.182-2.408 0 .496.655.916 1.387 1.256 2.199zm5.393-.105c.197-.85.729-1.366 1.047-2.094-.706.125-1.547.138-2.251 0 .432.667.854 1.344 1.204 2.094zm4.084-1.937c.558.489.76 1.334 1.204 1.937.155-.891.68-1.414 1.099-2.042-.67.08-1.571.11-2.355-.052-.003.072.023.115.052.157zm5.391 0c.193.312.488.551.681.89.192.337.217.782.523 1.047.18-.851.693-1.366 1.048-2.042-.875.147-1.6-.014-2.356 0 .069.001.048.092.104.105zm-13.611 4.502c.66.509 1.072 1.267 1.361 2.147.405-.694.735-1.463 1.204-2.094-.828.199-1.731.156-2.514-.053-.62-.583-.989-1.418-1.413-2.199-.147.988-.751 1.518-1.204 2.199.77-.257 1.79-.245 2.566 0zm13.507-.052c.753-.233 1.784-.108 2.461-.053-.521-.597-.877-1.357-1.257-2.094-.219.899-.696 1.538-1.204 2.147zm-10.68 0c.722-.132 1.602-.243 2.356-.053-.345-.702-.791-1.303-1.099-2.042-.281.837-.752 1.483-1.257 2.095zm5.287 0c.766-.155 1.721-.236 2.461 0-.523-.595-.861-1.373-1.257-2.094-.262.836-.72 1.478-1.204 2.094zm2.723.105c.534.6.9 1.369 1.257 2.146.154-.247.244-.558.313-.89.171-.23.332-.471.472-.733.142-.132.57-.495.419-.576-.749.249-1.646.224-2.461.053zm-16.021.052c.472.646.972 1.263 1.152 2.199.371-.798.735-1.603 1.257-2.251-.721.237-1.766.112-2.409.052zm11.885 2.146c.226-.908.684-1.585 1.204-2.199-.757.126-1.656.14-2.408 0 .476.658.874 1.395 1.204 2.199zm-1.204 2.409c.779-.104 1.524-.122 2.304 0-.423-.642-.875-1.254-1.152-2.042-.254.811-.718 1.411-1.152 2.042zm-10.628 0c.821-.076 1.438-.106 2.251 0-.419-.628-.794-1.3-1.151-1.989-.222.807-.682 1.377-1.1 1.989zm5.288.052c.8-.147 1.561-.182 2.408-.053-.452-.612-.843-1.287-1.204-1.989-.206.877-.724 1.44-1.204 2.042zm10.732 0c.752-.174 1.479-.149 2.304-.053-.34-.638-.871-1.083-1.048-1.885-.052 0-.104 0-.156 0-.204.81-.717 1.309-1.1 1.938zm-12.146 2.251c.255-.862.686-1.548 1.204-2.146-.759.114-1.659.153-2.408 0 .479.637.894 1.339 1.204 2.146zm5.393-.105c.259-.753.686-1.338 1.047-1.989-.654.012-1.503.083-2.251-.052.471.61.868 1.295 1.204 2.041zm5.182.21c-.008.965-.757 1.613-1.204 2.304.768-.242 1.823-.104 2.514-.052-.58-.607-1.026-1.348-1.257-2.304.222-.913.728-1.542 1.204-2.199-.778.11-1.587.134-2.356 0 .342.749 1.107 1.301 1.099 2.251zm-9.266 2.356c.537.578 1.221 1.22 1.31 2.146.103 1.085-.721 1.806-1.204 2.513.718-.207 1.729-.189 2.513-.052-.428-.72-1.24-1.389-1.204-2.356.034-.919.807-1.472 1.151-2.199-.84.164-1.614.14-2.46 0-.663-.593-1.1-1.414-1.466-2.303-.162.904-.822 1.584-1.1 2.199.803-.2 1.71-.174 2.46.052zm3.979-2.042c-.18.397-.331.822-.523 1.205-.184.219-.598.483-.523.785.621-.224 1.555-.172 2.251-.052-.381-.702-.812-1.353-1.151-2.094-.005.066-.069.072-.054.156zm-7.958 4.293c.219-.88.674-1.525 1.152-2.147-.719.091-1.849.088-2.514-.053.65.539.991 1.385 1.362 2.2zm10.628-.052c.256-.861.716-1.518 1.204-2.147-.776.105-1.712.175-2.408-.052.323.603.933 1.369 1.204 2.199zm-1.152 2.408c.765-.17 1.529-.144 2.304 0-.457-.677-.871-1.397-1.204-2.199-.131.935-.847 1.559-1.1 2.199zm-8.01.209c.508.592.97 1.229 1.152 2.147.343-.844.891-1.762 1.36-2.304-.674.337-1.774.121-2.512.157zm6.597 2.042c.228-.82.748-1.346 1.047-2.094-.776.101-1.536.133-2.251-.052.441.675.931 1.301 1.204 2.146z"/><path d="m4.085 5.047c-2.102.593-4.155-.436-3.874-2.723.176-1.439 1.665-2.641 3.402-2.042.761.263 1.731 1.32 1.728 2.461-.003.924-.662 1.602-1.256 2.304z"/><path d="m47.59 28.763c.248.574.883 1.211 1.048 2.042.31-.179.329-.648.471-.995.331-.419.632-.869 1.047-1.204 2.21-.54 3.996.706 3.77 2.722-.134 1.19-.927 1.83-1.989 2.199-2.051.201-2.671-1.028-3.246-2.303-.277.56-.496 1.179-.89 1.623-1.589 1.492-4.208.357-4.45-1.675-.543 1.232-1.188 2.409-2.774 2.409-1.524 0-2.26-1.149-2.67-2.461-.461 1.417-1.289 2.656-3.142 2.408-1.299-.173-1.833-1.243-2.251-2.408-.459 1.161-.942 2.228-2.199 2.408-1.647.237-3.049-.885-3.036-2.565.013-1.847 1.812-2.924 3.821-2.251.684.539 1.126 1.318 1.361 2.304.302-.868.728-1.61 1.257-2.252-.795.123-1.679.142-2.408-.052-.691-.579-1.354-1.264-1.361-2.356-.012-1.842 1.711-2.947 3.769-2.355-.609-.723-1.183-1.542-1.048-2.723.183-1.595 1.833-2.625 3.665-2.094-.566-.757-1.358-1.968-.837-3.298.464-1.186 1.929-1.826 3.56-1.361-.39-.76-1.053-1.263-1.047-2.356.006-1.302.936-2.463 2.304-2.565 2.086-.156 3.462 2.019 2.46 3.874-.168.312-.534.496-.681.942.431.106.736-.106 1.152-.104 2.607.012 3.317 3.416 1.466 4.869 2.133-.607 3.831.615 3.821 2.513-.005 1.017-.547 1.494-.994 2.199.918-.05 1.85-.126 2.513.262 1.569.917 1.418 3.604-.052 4.502-.7.243-1.588.226-2.41.102zm-7.015-11.989c.215-.867.726-1.438 1.1-2.147-.803.131-1.649.05-2.356.052.605.513.922 1.312 1.256 2.095zm-1.309 2.461c.826-.179 1.655-.262 2.514-.053-.518-.634-.93-1.374-1.257-2.199-.195.975-.72 1.62-1.257 2.252zm-2.618.105c.557.63.948 1.425 1.257 2.304.161-1.025.725-1.649 1.204-2.357-.804.205-1.616.229-2.461.053zm5.445 0c.504.614.864 1.37 1.204 2.146.159-.41.294-.81.524-1.204.213-.365.624-.692.575-.995-.678.235-1.538.134-2.303.053zm-5.392 4.607c.812-.112 1.545-.109 2.355 0-.391-.534-1.01-1.294-1.204-2.199-.192.925-.661 1.572-1.151 2.199zm5.392 0c.713-.115 1.532-.134 2.304-.052-.507-.558-.78-1.348-1.204-1.99-.16.887-.689 1.405-1.1 2.042zm-6.91 2.355c.236-.898.713-1.556 1.204-2.199-.848.166-1.738.008-2.461 0 .603.549.976 1.328 1.257 2.199zm5.444-.052c.18-.903.68-1.485 1.1-2.146-.84.108-1.508.086-2.355 0 .554.579.881 1.386 1.255 2.146zm5.288-.105c.373-.691.745-1.383 1.151-2.042-.806.098-1.425.071-2.251 0 .421.627.929 1.166 1.1 2.042zm-11.989 2.513c.783-.278 1.695-.113 2.461-.105-.571-.562-.896-1.372-1.257-2.146-.179.973-.721 1.583-1.204 2.251zm5.445-.052c.792-.143 1.728-.135 2.46.052-.479-.689-.949-1.389-1.308-2.199-.195.906-.688 1.512-1.152 2.147zm5.34.052c.737-.278 1.697-.216 2.513-.052-.5-.634-.903-1.365-1.309-2.094-.191.926-.737 1.497-1.204 2.146zm-6.806 2.252c.24-.877.723-1.511 1.204-2.147-.852.098-1.738.157-2.514-.052.541.629 1.002 1.338 1.31 2.199zm5.445-.053c.198-.884.667-1.497 1.151-2.094-.818.084-1.551.137-2.355 0 .464.634.82 1.378 1.204 2.094z"/><path d="m61.726 54.678c-.3.921-.701 1.742-1.413 2.251-.715.169-1.592.204-2.356.052.347.718.834 1.295 1.1 2.094.376-.828.74-1.667 1.414-2.199.83-.235 1.787-.235 2.617 0 .547.658 1.303 1.285 1.309 2.356.007 1.244-1.121 2.41-2.251 2.565-1.628.224-2.684-.914-3.036-2.46-.465.922-.779 1.973-1.676 2.356-1.932.824-3.433-1.04-3.612-2.408-.393 1.269-1.014 2.475-2.461 2.565-1.656.103-2.538-1.076-2.932-2.513.199-1.058.696-1.817 1.361-2.408.726-.267 1.719-.237 2.513-.053-.301-.606-1.062-1.206-1.151-2.199-.42.819-.721 1.757-1.466 2.251-.822.187-1.604.24-2.461.052.353.758 1.145 1.279 1.152 2.251.005.686-.503 1.577-.995 1.99-1.713 1.435-4.057.201-4.346-1.885-.419 1.036-.81 1.966-1.779 2.356-1.894.76-3.251-.752-3.665-2.251-.433 1.323-1.167 2.416-2.723 2.408-1.572-.008-2.181-1.151-2.67-2.408-.44 1.351-1.271 2.5-2.879 2.408-1.513-.086-2.072-1.197-2.514-2.46-.479 1.408-1.261 2.669-3.089 2.46-1.378-.158-1.91-1.213-2.303-2.46.148-1.038.69-1.683 1.204-2.356-.853.13-1.577.178-2.408 0 .341.601 1.016 1.322 1.151 2.304-.271 1.418-1.285 2.719-3.036 2.513-.601-.07-.963-.367-1.414-.68-.413-.495-.702-1.113-.89-1.833.171-1.033.71-1.697 1.256-2.356-.756.177-1.593.179-2.408.052.236.707 1.085 1.299 1.1 2.251.016.993-.965 1.921-1.57 2.408-1.793.542-3.248-.497-3.455-1.938-.298-2.073 1.369-3.388 3.612-2.879-.29-.723-.83-1.069-.942-1.884-.284-2.059 1.441-3.415 3.559-2.827-.806-.825-1.558-2.532-.523-3.875.628-.815 1.755-1.137 3.142-.837-.2-.623-.832-1.034-.942-1.833-.309-2.236 1.822-3.508 3.926-2.722.569.566 1.031 1.238 1.257 2.146.43-.792.73-1.712 1.466-2.199.729-.294 1.737-.197 2.565-.053.682.558 1.117 1.361 1.414 2.304.303-.953.745-1.767 1.465-2.304 2.095-.687 3.848.604 3.875 2.356.014.923-.657 1.502-1.048 2.199.687.045 1.564-.143 2.252.105-.234-.698-1.075-1.292-1.1-2.251-.025-.98.724-1.671 1.257-2.303.761-.313 1.906-.32 2.722-.052.654.55 1.099 1.31 1.361 2.251.293-.928.746-1.697 1.361-2.304-.733.249-1.779.261-2.565.053-.711-.546-1.218-1.295-1.466-2.304-.313.942-.76 1.753-1.466 2.304-.915.134-1.811.3-2.513-.053-.696-.349-1.342-1.466-1.361-2.251-.04-1.551 1.444-2.778 2.932-2.618 1.366.147 1.992 1.22 2.355 2.565.454-1.26.973-2.392 2.408-2.565 1.766-.214 2.546 1.069 3.037 2.408.385-1.285 1.308-2.622 3.036-2.408.611.076.95.416 1.466.681 1.925 1.845-.103 5.442-3.089 4.188.401.559 1.064 1.309 1.257 2.251.459-1.583 1.542-2.968 3.874-2.304-.234-.696-1.087-1.275-1.1-2.251-.016-1.199 1.21-2.434 2.199-2.565 1.65-.218 2.923 1.017 3.141 2.618-.215.884-.691 1.507-1.151 2.146.618.012 1.665-.149 2.356.052-.266-.666-1.15-1.266-1.151-2.251-.002-1.492 1.948-3.238 3.665-2.408.652.316 1.266 1.243 1.36 1.937.157 1.14-.418 1.848-.941 2.67 1.827-.481 3.651.595 3.664 2.408.007.943-.439 1.559-.994 2.251 1.993-.384 3.685.606 3.717 2.408.02 1.096-.623 1.683-1.151 2.409.487-.055.764-.2 1.203-.209 2.682-.058 3.425 3.438 1.518 4.869-.77.285-1.744.289-2.617.105-.718-.54-1.149-1.365-1.52-2.25zm-20.051-11.884c.737-.187 1.716-.199 2.513-.052-.526-.608-.905-1.363-1.257-2.147-.222.93-.742 1.561-1.256 2.199zm9.318 2.617c-.108.917-.852 1.42-1.047 2.042.696-.204 1.48-.147 2.251-.052-.322-.729-1.006-1.251-1.047-2.146-.047-1.02.749-1.653 1.151-2.408-.738.22-1.649.159-2.408 0 .453.746 1.228 1.476 1.1 2.564zm5.445-.418c.362-.773.77-1.5 1.257-2.146-.834.139-1.587.18-2.408 0 .461.637.958 1.24 1.151 2.146zm-28.166 2.46c.837-.155 1.572-.155 2.409 0-.517-.653-.932-1.408-1.257-2.251-.149.986-.688 1.581-1.152 2.251zm16.229-.052c.634-.051 1.706-.204 2.408.052-.513-.656-.983-1.355-1.256-2.251-.189.928-.693 1.541-1.152 2.199zm-21.727.105c.817-.147 1.774-.224 2.565 0-.534-.652-.994-1.379-1.309-2.251-.173.995-.719 1.618-1.256 2.251zm16.387-.053c.715-.261 1.572-.025 2.304-.105-.54-.559-.932-1.268-1.204-2.094-.168.898-.829 1.578-1.1 2.199zm16.072 0c.754-.187 1.59-.168 2.408-.052-.469-.648-.841-1.393-1.204-2.146-.19.943-.678 1.589-1.204 2.198zm2.723.157c.297.776 1.082 1.317 1.047 2.251-.033.921-.843 1.524-1.047 2.251.713-.162 1.699-.136 2.356.052-.518-.688-1.083-1.326-1.257-2.356.232-.919.689-1.614 1.204-2.252-.606.078-1.648.105-2.303.054zm-37.799 0c.44.659.961 1.238 1.151 2.146.436-.75.751-1.622 1.361-2.199-.734.209-1.709.181-2.512.053zm6.544 2.304c-.011.964-.736 1.543-1.1 2.251.853-.155 1.55-.13 2.408 0-.373-.666-1.07-1.144-1.151-2.042-.098-1.091.685-1.855 1.204-2.565-.857.197-1.8.105-2.565.052.533.621 1.215 1.318 1.204 2.304zm5.497-.105c.224-.928.719-1.585 1.204-2.252-.806.199-1.636.147-2.461 0 .54.631.959 1.38 1.257 2.252zm5.393-.052c.246-.888.741-1.527 1.204-2.199-.742.182-1.671.204-2.408 0 .445.689.912 1.357 1.204 2.199zm4.24-2.147c-.002.072.025.115.053.157.559.471.709 1.35 1.151 1.937.191-.856.669-1.425 1.048-2.094-.787.154-1.6.026-2.252 0zm6.492 2.304c-.024.948-.816 1.496-1.047 2.199.768-.144 1.519-.091 2.304 0-.405-.726-1.168-1.283-1.152-2.251.017-.971.843-1.595 1.1-2.304-.783.181-1.509.148-2.304 0 .37.763 1.125 1.377 1.099 2.356zm4.346-2.304c.38.65.881 1.178 1.047 2.042.454-.68.745-1.523 1.309-2.094-.831.124-1.488.178-2.356.052zm-20.366 4.398c1.658.054 2.146 1.175 2.514 2.46.38-.772.756-1.547 1.256-2.199-.834.17-1.619.136-2.46 0-.711-.546-1.115-1.398-1.467-2.303-.166.899-.831 1.575-1.099 2.199.488-.047.812-.172 1.256-.157zm-9.58.21c-.586-.583-1.096-1.243-1.309-2.199-.367.803-.778 1.56-1.31 2.199.808-.238 1.948-.115 2.619 0zm19.004-.053c.796-.128 1.579-.21 2.408-.052-.485-.614-.85-1.35-1.204-2.094-.238.879-.715 1.518-1.204 2.146zm-5.393 0c.863-.12 1.61-.168 2.461 0-.507-.61-.908-1.326-1.257-2.094-.253.846-.728 1.469-1.204 2.094zm16.387-.052c.72-.154 1.519-.1 2.251 0-.503-.597-.876-1.323-1.256-2.042-.152.827-.791 1.44-.995 2.042zm-34.082 2.46c-.157.479-.221 1.009-.471 1.414-.245.396-.761.677-.733.995.718-.289 1.69-.3 2.461-.052-.358-.786-1.242-1.414-1.204-2.408.034-.904.789-1.461 1.151-2.199-.908.098-1.729.136-2.513-.104.54.68 1.109 1.333 1.309 2.354zm43.139-.157c.16-.415.261-.839.471-1.204.213-.369.604-.618.629-.995-.711.286-1.746.05-2.408.052.624.528.914 1.389 1.308 2.147zm-37.747.157c-.151 1-.662 1.642-1.151 2.303.854-.125 1.839-.157 2.564.105.645.543 1.032 1.342 1.361 2.199.251-.884.736-1.533 1.204-2.199-.78.213-1.781.18-2.513-.052-.715-.56-1.194-1.353-1.414-2.408.243-.892.701-1.569 1.205-2.199-.853.173-1.796.03-2.514 0 .591.58 1.057 1.283 1.258 2.251zm5.497-.052c.165-.969.71-1.56 1.152-2.251-.784.184-1.621.171-2.409 0 .508.661.918 1.422 1.257 2.251zm9.581-2.199c.409.673.957 1.207 1.099 2.146.374-.743.7-1.534 1.204-2.146-.794.122-1.668.073-2.303 0zm6.596 2.147c.178-.887.711-1.418 1.048-2.146-.85.065-1.476.104-2.252-.052.475.659.877 1.391 1.204 2.198zm5.445-.053c.146-.9.7-1.393 1.047-2.094-.621.052-1.57.064-2.304-.052.52.615.848 1.421 1.257 2.146zm4.189-2.041c.566.516.798 1.366 1.204 2.042.129-.902.821-1.515 1.047-2.146-.685.228-1.719-.049-2.251.104zm-27.067 4.502c.796-.221 1.745-.095 2.461-.052-.559-.592-.983-1.32-1.256-2.199-.24.913-.68 1.624-1.205 2.251zm16.229-.053c.787-.125 1.622-.125 2.408 0-.508-.626-.94-1.329-1.256-2.146-.264.834-.645 1.554-1.152 2.146zm10.732.105c.627-.261 1.605-.246 2.356-.105-.293-.6-.836-1.396-1.152-2.146-.123.992-.839 1.673-1.204 2.251zm-21.464-.105c.826-.161 1.666-.023 2.356 0-.562-.572-.894-1.375-1.309-2.094-.149.898-.65 1.445-1.047 2.094zm5.968-.837c-.203.331-.673.677-.628.89.767-.182 1.637-.183 2.408 0-.528-.607-.898-1.37-1.31-2.094-.129.408-.247.841-.47 1.204zm12.932.995c.406.728.922 1.347 1.151 2.251.226-.978.75-1.659 1.309-2.303-.805.184-1.632.247-2.46.052zm-20.418 2.146c.215-.867.685-1.48 1.151-2.094-.903.098-1.617.105-2.461-.052.554.598.895 1.409 1.31 2.146zm5.287.052c.393-.725.715-1.52 1.204-2.146-.796.102-1.634.153-2.356-.052.427.691.957 1.278 1.152 2.198zm5.497 0c.21-.924.706-1.562 1.204-2.199-.882.123-1.589.17-2.46 0 .522.63.913 1.391 1.256 2.199z"/><path d="m4.085 38.135c.525.608 1.283 1.265 1.308 2.303.038 1.569-1.419 3.002-3.299 2.513-2.094-.544-2.428-3.628-.575-4.712.674-.394 1.621-.358 2.566-.104z"/><path d="m29.214 37.977c.945-.098 1.948.372 2.408 1.1.541.854.578 1.851 0 2.774-.192.309-.555.803-.837.942-.656.326-1.878.329-2.565 0-.57-.273-1.394-1.398-1.414-2.251-.009-.388.266-1.033.419-1.309.338-.604 1.05-1.159 1.989-1.256z"/><path d="m23.56 38.03c1.975-.299 2.848.957 3.194 2.461-.239 1.018-.705 1.809-1.414 2.356-1.834.545-3.351-.176-3.717-1.571-.391-1.488.507-3.032 1.937-3.246z"/><path d="m5.184 49.862c-.254.889-.602 1.945-1.413 2.356-1.026.52-2.389.102-3.089-.523-1.901-1.985.514-5.47 3.089-4.084.784.421 1.103 1.259 1.413 2.251z"/><path d="m75.39 52.008c.585-.166 1.254.038 1.78.105.875.657 1.556 2.053 1.1 3.351-.336.955-1.201 1.66-2.513 1.57-1.561-.107-2.932-1.667-2.252-3.508.272-.737.91-1.5 1.885-1.518z"/><path d="m65.81 56.877c2.033-.684 4.065.473 3.874 2.67-.138 1.571-2.144 2.981-3.874 1.885-.583-.369-1.257-1.193-1.257-2.199 0-.988.677-1.592 1.257-2.356z"/><path d="m78.112 56.72c1.768-.215 3.055.905 3.036 2.513-.014 1.2-.944 2.395-2.303 2.513-1.776.154-3.339-1.502-2.618-3.508.124-.346.626-1.167 1.204-1.414.198-.084.367-.066.681-.104z"/></g></svg>