<svg enable-background="new 0 0 43.576 40.994" viewBox="0 0 43.576 40.994" xmlns="http://www.w3.org/2000/svg"><path d="m21.766.148c.009-.081.128-.222.192-.1 3.551 8.169 7.135 16.318 10.693 24.484 1.619 3.666 3.066 7.42 5.002 10.936 1.485 2.262 3.488 4.225 5.922 5.436-8.186.107-16.38.048-24.57.076l.05-.129c3.579-.585 5.954-4.71 4.941-8.132-.735-2.507-1.968-4.825-2.934-7.244-1.716-3.973-3.516-7.916-5.185-11.904 1.966-4.463 3.977-8.928 5.889-13.423z"/><path d="m0 40.979c3.553-1.601 6.013-4.879 7.56-8.355-.935 3.628 1.502 7.83 5.321 8.345-4.293.027-8.588.034-12.881.01z"/></svg>