<svg enable-background="new 0 0 79.064 79.588" viewBox="0 0 79.064 79.588" xmlns="http://www.w3.org/2000/svg"><g clip-rule="evenodd" fill-rule="evenodd"><path d="m11.328 11.875c5.887-5.736 12.973-10.214 23.136-11.568.725-.097 1.473-.203 2.235-.243 6.548-.343 12.332.722 17.158 2.624 4.259 1.68 7.715 3.873 10.888 6.465 3.223 2.632 5.953 5.647 8.215 9.138.563.871 1.011 1.888 1.506 2.868 1.432 2.825 2.742 5.95 3.549 9.43 1.139 4.912 1.377 10.616.583 15.7-.753 4.821-2.383 9.301-4.423 12.929-.541.961-1.021 1.889-1.604 2.771-3.944 5.967-9.434 10.918-16.38 13.95-4.163 1.817-8.396 3.126-13.804 3.548-2.871.224-5.624.057-8.215-.292-2.485-.334-4.854-.894-6.999-1.653-8.441-2.986-15.146-8.171-19.88-14.825-2.365-3.324-4.398-7.172-5.639-11.714-1.226-4.488-2.105-9.934-1.409-15.554 1.27-10.269 5.337-17.524 11.083-23.574zm19.685-2.382c-2.082.564-3.979 1.402-5.639 2.236-5.276 2.653-9.257 6.528-12.297 11.228-1.026 1.586-1.869 3.367-2.625 5.249-1.521 3.789-2.442 8.339-2.09 13.415.674 9.717 4.666 16.123 10.11 21.29 2.608 2.476 5.849 4.655 9.575 6.124 3.817 1.505 8.228 2.46 13.415 2.236 4.664-.202 8.845-1.623 12.346-3.354 3.543-1.752 6.409-4.169 8.943-6.756 2.594-2.647 4.599-5.865 6.076-9.624 1.492-3.796 2.415-8.267 2.139-13.464-.247-4.644-1.489-8.915-3.306-12.394-3.587-6.872-8.833-12.058-16.331-15.068-3.699-1.484-8.441-2.611-13.511-2.236-2.455.182-4.664.538-6.805 1.118z"/><path d="m45.011 53.141c-3.407.219-7.284.133-10.839 0 .029-1.708.297-3.425.535-5.104 1.646-11.598 3.073-23.436 4.715-35.142.041-.039.028-.133.097-.146h.098c1.819 11.649 3.099 23.558 4.812 35.337.242 1.673.544 3.362.582 5.055z"/><path d="m45.254 55.086c.297.857.404 1.815.535 2.771.26 1.898.494 3.893.777 5.833.142.969.34 1.936.243 2.868-4.538.163-9.752.161-14.29 0-.028-2.523.791-5.556.972-8.214.053-.773.047-2.726.438-3.208.036-.045.089-.074.146-.097 3.711.031 7.551-.066 11.179.047z"/></g></svg>