<svg enable-background="new 0 0 74.62 43.234" viewBox="0 0 74.62 43.234" xmlns="http://www.w3.org/2000/svg"><path clip-rule="evenodd" d="m74.485.093c.24 2.326.109 5.546 0 8.18-2.556.157-5.519-.095-8.002.134-.278.639-.178 1.369-.178 2.045 0 2.197.045 4.374.045 6.535-.001 8.798.049 17.293-.089 26.096-4.989.212-10.327.064-15.249.088-.767-1.273-1.134-2.73-1.645-4.134-1.263-3.475-2.739-6.848-4.09-10.313-.258-.662-.463-1.379-.889-1.956-4.611-.193-9.855-.073-14.403 0-.718 1.242-1.264 2.654-1.823 4.046-1.103 2.748-2.254 5.525-3.378 8.312-.551 1.367-1.058 2.778-1.778 4.045-4.71.057-9.925.127-14.67-.044-.241-5.565-.133-11.453-.133-17.293 0-2.897.001-5.827 0-8.713 0-2.898.079-5.775-.133-8.491-.574-.234-1.288-.134-1.958-.134-1.893.001-4.128-.017-6.001-.133-.14-2.597-.17-5.795.044-8.225 24.911-.145 49.526-.2 74.33-.045zm-49.39 8.314c-2.792.13-5.806-.171-8.447.089-.148 2.863-.148 6.34 0 9.202 2.369.224 5.344.166 7.78.045.506-.64.716-1.459 1.023-2.223.626-1.561 1.332-3.096 1.956-4.624.318-.779.713-1.561.8-2.4-.951-.238-2.054-.138-3.112-.089zm28.851-.044c-2.502 0-5.29-.003-7.379.044-.322.271-.007.641.089.889.366.953.701 1.834 1.067 2.757.478 1.204 1.092 2.435 1.467 3.646.225.726.301 1.527.889 2.045 1.716.092 3.943.044 5.824.044.651 0 1.325.1 1.867-.133.181-2.983.081-6.182-.045-9.158-1.14-.24-2.459-.134-3.779-.134zm-16.804.533c-.67 1.328-1.269 2.814-1.867 4.312-.591 1.479-1.32 2.939-1.733 4.445.843.216 1.847.16 2.8.133.963-.026 1.937-.049 2.845-.044.611.003 1.26.182 1.778-.089-.067-.806-.494-1.525-.8-2.268-.917-2.228-1.75-4.56-2.801-6.668-.029 0-.059 0-.089 0-.123.028-.11.135-.133.179zm18.627 17.826c-.676.032-1.437-.127-1.956.134.178.855.561 1.653.889 2.445.668 1.613 1.325 3.183 2 4.712.341.772.562 1.62 1.111 2.267.234-.682.133-1.487.133-2.267 0-2.396.073-5.001-.089-7.202-.596-.155-1.348-.123-2.088-.089zm-36.987.045c-.719-.023-1.585-.106-2.089 0-.296.631-.178 1.431-.178 2.223 0 2.376-.094 5.015.133 7.112.541-.587.807-1.403 1.112-2.134.324-.778.606-1.578.934-2.355.653-1.548 1.379-3.087 1.867-4.713-.458-.25-1.138-.113-1.779-.133z" fill-rule="evenodd"/></svg>