<svg enable-background="new 0 0 73.651 74.048" viewBox="0 0 73.651 74.048" xmlns="http://www.w3.org/2000/svg"><g clip-rule="evenodd" fill-rule="evenodd"><path d="m51.383.283c.091.808-.339 1.559-.627 2.268-1.457 3.584-2.95 7.311-4.487 10.953-1.824 4.324-3.505 8.745-5.355 13.123-.891 2.107-1.76 4.315-2.702 6.562-.224.533-.618 1.89-1.109 1.93-.627.051-.921-1.295-1.206-1.93-1.68-3.736-3.125-7.212-4.728-10.952-2.825-6.588-5.569-13.214-8.299-19.927-.271-.664-.862-1.496-.434-2.268 8.414-.099 16.981.004 25.572.048 1.132.006 2.305-.162 3.375.193zm-11.338 5.645c-1.779-.012-3.699-.048-5.742-.048-1.14 0-2.715-.133-3.329.193-.088.679.276 1.311.531 1.881 1.581 3.534 2.905 7.193 4.487 10.663.213.468.501 1.603.965 1.592.472-.011.707-1.093.916-1.544.289-.62.505-1.239.724-1.785 1.22-3.038 2.547-5.86 3.668-8.878.22-.593.646-1.193.53-1.882-.81-.347-1.79-.186-2.75-.192z"/><path d="m35.896 35.89c-.814.157-1.61-.332-2.316-.627-2.175-.911-4.433-1.775-6.658-2.702-2.896-1.207-5.782-2.511-8.732-3.715-2.863-1.168-5.959-2.408-8.878-3.619-1.402-.582-2.798-1.212-4.391-1.833-.689-.269-1.309-.649-2.171-.965-.667-.244-1.906-.603-1.979-1.11-.075-.527.517-.985.772-1.254.741-.781 1.221-1.317 1.978-2.075.27-.271.757-.829 1.158-.869.421-.041.977.312 1.399.483.914.369 1.704.644 2.653 1.061.466.205.902.486 1.399.435.779-.082 1.944-1.559 2.412-2.026 1.84-1.84 3.657-3.551 5.5-5.549.401-.434.855-.822.917-1.254.094-.653-.652-2.099-.917-2.702-.174-.398-.359-.812-.53-1.303-.161-.464-.48-.947-.435-1.399.073-.703 1.191-1.528 1.785-2.123.76-.759 1.321-1.365 2.026-1.882.778-.427.941.718 1.158 1.352.485 1.413 1.17 2.785 1.737 4.246.542 1.396 1.203 2.788 1.785 4.198 2.312 5.602 4.737 11.198 7.093 16.742.895 2.106 1.837 4.149 2.653 6.32.256.671.767 1.391.582 2.17zm-11.58-12.786c-.644-1.452-1.183-2.774-1.833-4.246-.309-.698-.553-2.341-1.255-1.882-.874.572-1.473 1.402-2.364 2.22-.359.33-.733.691-1.157 1.158-.287.316-1.009.922-.965 1.351.048.477 1.383.901 1.881 1.109 1.568.655 2.794 1.154 4.198 1.786.676.304 1.377.753 2.171.627.117-.743-.378-1.451-.676-2.123z"/><path d="m56.739 12.876c1.462 1.465 2.977 2.878 4.391 4.391.347.435.648.751 1.062 1.158.313.309.783.872 1.255.917.758.072 2.164-.794 2.847-1.061.427-.168.896-.32 1.399-.531.458-.192 1.032-.522 1.447-.483.663.063 1.678 1.389 2.123 1.834.709.709 1.461 1.165 1.785 2.123-.348.744-1.264.927-1.931 1.206-5.011 2.102-10.114 4.4-15.246 6.417-4.42 1.737-8.817 3.543-13.172 5.452-.704.309-1.509.549-2.22.868-.663.298-1.36 1.014-2.171.627-.258-.715.194-1.382.435-1.978.242-.603.521-1.229.771-1.833.511-1.233.972-2.493 1.447-3.764.42-1.121 1.056-2.209 1.496-3.378.866-2.295 1.852-4.583 2.847-6.899 2.186-5.086 4.1-10.28 6.368-15.439.263-.596.504-1.412.82-1.641.478-.313 1.025.446 1.351.772.668.668 1.279 1.365 2.026 2.026.359.318.822.759.868 1.109.056.417-.246 1.052-.434 1.496-.411.973-.727 1.69-1.11 2.75-.187.517-.521 1.012-.482 1.447.092 1.002 1.621 1.652 2.028 2.414zm-1.93 6.417c-.374-.374-.769-.769-1.206-1.206-.436-.436-1.047-1.247-1.593-.965-1.037 1.836-1.845 4.003-2.653 6.031-.268.674-.724 1.407-.579 2.171.764.132 1.482-.352 2.171-.627 1.439-.575 2.846-1.172 4.246-1.737.685-.276 1.448-.542 1.882-1.11-.408-.91-1.359-1.648-2.268-2.557z"/><path d="m.385 51.426c-.571-.9-.338-2.224-.338-3.377 0-7.46 0-14.618 0-22.049 0-1.196-.114-2.392.145-3.522.527-.26 1.722.407 2.509.724 2.172.873 4.485 1.729 6.561 2.654 2.854 1.271 5.858 2.333 8.733 3.57 2.835 1.22 5.742 2.443 8.637 3.667 2.072.876 4.255 1.779 6.513 2.702.535.218 1.881.645 1.882 1.158.001.536-1.429.935-1.93 1.158-2.16.962-4.376 1.858-6.514 2.702-2.926 1.155-5.844 2.448-8.636 3.666-2.154.94-4.368 1.832-6.562 2.702-2.841 1.127-5.859 2.359-8.733 3.57-.708.298-1.453.701-2.267.675zm7.526-9.167c1.82-.747 3.489-1.405 5.308-2.171 1.765-.744 3.466-1.544 5.259-2.22.404-.152 1.582-.514 1.593-.917.008-.314-.388-.393-.676-.531-3.672-1.764-7.615-3.163-11.29-4.68-.667-.275-1.467-.854-1.978-.579-.385.294-.241 2.025-.241 2.798v5.983c0 1.031-.147 2.059.193 2.847.664.09 1.273-.301 1.832-.53z"/><path d="m73.095 22.622c.722.207.482 1.093.482 1.833.001 7.867.048 17.076.049 25.572 0 .492.125 1.1-.193 1.544-1.648-.37-3.088-1.053-4.535-1.641-1.482-.602-2.93-1.189-4.391-1.785-5.615-2.291-11.689-4.939-17.37-7.237-2.086-.844-4.276-1.77-6.561-2.702-.496-.203-1.863-.652-1.882-1.158-.02-.546 1.448-.972 1.882-1.158 5.046-2.164 9.856-4.027 15.054-6.176 2.869-1.186 5.739-2.386 8.637-3.522 1.437-.563 2.915-1.134 4.342-1.737 1.42-.599 2.811-1.341 4.246-1.785.106-.033.085-.043.24-.048zm-6.176 8.781c-3.787 1.328-7.803 3.188-11.628 4.777-.384.159-1.468.489-1.447.917.019.388 1.171.674 1.592.868 1.979.913 4.27 1.673 5.887 2.605 1.574.599 3.12 1.206 4.583 1.833.491.211 1.015.585 1.593.483.422-.714.241-1.757.241-2.702 0-2.015 0-4.032 0-5.983 0-.982.133-1.99-.193-2.798-.17-.103-.52-.038-.628 0z"/><path d="m36.04 37.965c.163.834-.271 1.649-.579 2.364-2.159 5.029-4.268 10.242-6.368 15.391-2.073 5.082-4.269 10.153-6.418 15.343-.274.663-.655 1.835-1.157 1.93-.394.075-.874-.536-1.158-.82-.748-.748-1.321-1.322-2.026-2.026-.309-.309-.816-.747-.868-1.158-.059-.462.255-1.006.434-1.447.362-.896.706-1.622 1.062-2.605.175-.485.469-.938.435-1.399-.034-.45-.559-.897-.917-1.303-.749-.848-1.499-1.408-2.268-2.171-1.515-1.503-2.892-2.953-4.438-4.391-.41-.38-.806-.877-1.255-.917-.396-.035-.942.246-1.399.435-.943.39-1.619.651-2.653 1.013-.422.147-1.007.471-1.399.434-.4-.038-.928-.589-1.209-.87-.373-.373-.73-.779-1.013-1.061-.758-.757-1.456-1.039-1.882-2.22.42-.659 1.265-.879 1.93-1.158 5.729-2.402 11.633-4.629 17.369-7.141 3.454-1.512 7.207-3.059 10.808-4.487 1.456-.578 2.972-1.084 4.343-1.737.105-.049.407-.217.626.001zm-13.316 11.579c-1.388.557-2.461 1.074-3.956 1.641-.524.199-1.718.617-1.737 1.11-.016.395.747 1.037 1.013 1.303.458.458.878.71 1.207 1.158.341.435.701.75 1.157 1.206.276.277.878 1.087 1.303 1.062.556-.033.88-1.299 1.11-1.833.646-1.504 1.2-2.75 1.736-4.149.279-.728.731-1.424.676-2.171-.836-.203-1.702.35-2.509.673z"/><path d="m73.24 52.729c-.536 1.172-1.111 1.498-1.833 2.219-.427.427-1.408 1.823-2.123 1.93-.978.147-2.195-.7-2.896-.965-.468-.177-.944-.334-1.398-.531-.289-.125-.976-.508-1.399-.483-.47.028-.9.587-1.254.917-1.146 1.065-1.929 2.122-3.088 3.281-1.109 1.109-2.058 2.026-3.233 3.185-.397.392-.854.763-.917 1.206-.069.492.213.987.387 1.448.348.922.646 1.632 1.062 2.605.209.49.492.937.482 1.351-.021.897-1.317 1.788-1.834 2.316-.292.298-.606.655-1.013 1.062-.283.284-.709.922-1.206.869-.478-.051-.937-1.483-1.158-1.978-.981-2.191-1.854-4.518-2.75-6.659-1.288-3.073-2.438-5.658-3.715-8.781-.577-1.409-1.185-2.918-1.882-4.391-.675-1.423-1.153-3.029-1.786-4.438-1.061-2.364-2.249-5.002-3.28-7.671-.098-.252-.437-1.368.338-1.158 1.468.397 2.912 1.184 4.391 1.785 1.455.592 2.919 1.208 4.342 1.786 5.835 2.369 11.549 4.864 17.321 7.285 2.183.915 4.313 1.84 6.514 2.702.665.259 1.537.391 1.928 1.108zm-24.124-3.715c-.196.766.357 1.434.627 2.074.589 1.394 1.094 2.808 1.689 4.198.214.5.607 1.799 1.109 1.833.425.029 1.017-.748 1.303-1.013.904-.84 1.617-1.548 2.364-2.364.375-.41.845-.75 1.062-1.302-.368-.592-1.139-.805-1.785-1.062-2.002-.794-4.19-1.724-6.176-2.46-.071.025-.122.07-.193.096z"/><path d="m51.818 73.669c-.379.43-1.039.328-1.544.337-6.688.133-13.652-.096-20.506-.096-1.868 0-3.746 0-5.645 0-.521 0-1.122.081-1.496-.338.098-1.618 1.004-3 1.544-4.487.265-.729.634-1.436.917-2.171.833-2.167 1.717-4.335 2.653-6.514.92-2.136 1.765-4.243 2.653-6.513.547-1.396 1.276-2.775 1.834-4.294.8-2.18 1.768-4.149 2.702-6.465.254-.629.534-1.396.868-2.171.288-.667.66-1.749 1.014-2.075.713-.361 1.054 1.113 1.351 1.882.309.801.635 1.46.917 2.171.598 1.507 1.293 3 1.881 4.342 2.569 5.86 4.836 11.725 7.383 17.515.97 2.205 1.765 4.45 2.75 6.609.322.708.819 1.439.724 2.268zm-15.005-19.83c-1.195 2.211-1.893 4.685-2.943 6.996-.789 1.735-1.51 3.556-2.172 5.307-.222.589-.669 1.203-.53 1.882.914.238 1.966.193 2.991.193h6.128c.994 0 2.012.146 2.847-.193.058-.668-.31-1.253-.579-1.833-.27-.583-.48-1.231-.724-1.834-1.224-3.027-2.622-5.979-3.812-8.926-.228-.563-.415-1.257-.966-1.592-.002-.03-.007-.057-.048-.048-.065.014-.092.068-.192.048z"/></g></svg>