<svg enable-background="new 0 0 75.979 79.427" viewBox="0 0 75.979 79.427" xmlns="http://www.w3.org/2000/svg"><g clip-rule="evenodd" fill-rule="evenodd"><path d="m18.465 0h.099c3.961 7.971 7.733 16.102 11.572 24.276.378.807.783 1.619 1.182 2.413.411.818.656 1.686 1.034 2.511 1.12 2.445 2.312 4.852 3.447 7.288.373.799.857 1.575.985 2.462-4.601.213-9.134.049-13.886.049-7.421 0-15.16.071-22.897-.099.088-.899.641-1.68 1.034-2.462 1.188-2.364 2.29-4.808 3.447-7.239 1.518-3.188 3.051-6.421 4.579-9.7 2.593-5.564 5.505-11.222 8.076-16.939.394-.877.802-1.958 1.328-2.56z"/><path d="m75.979 40.624c-.146.896-.679 1.706-1.083 2.511-.407.81-.812 1.623-1.231 2.413-.861 1.624-1.566 3.301-2.413 4.924-1.68 3.22-3.214 6.496-4.924 9.701-3.193 5.986-6.051 12.152-9.257 18.17-.194.365-.288.904-.739 1.084-2.461-4.33-4.51-8.885-6.845-13.345-3.068-5.862-6.151-11.793-9.109-17.776-.724-1.463-1.415-2.99-2.364-4.333-.714.752-1.115 1.742-1.576 2.659-.932 1.853-1.857 3.689-2.807 5.564-1.573 3.105-3.051 6.479-4.727 9.553-3.137 5.75-5.89 11.84-9.061 17.579-.531-.412-.797-1.105-1.083-1.674-.902-1.794-1.828-3.657-2.757-5.515-3.622-7.237-7.54-14.518-11.178-21.813-1.219-2.46-2.474-4.822-3.693-7.288-.396-.803-.951-1.583-1.132-2.512 1.716-.268 3.545-.148 5.367-.148h21.913c5.41 0 10.827.099 16.25.099 10.891 0 21.81-.148 32.449.147z"/></g></svg>