<svg enable-background="new 0 0 12.784 9.578" viewBox="0 0 12.784 9.578" xmlns="http://www.w3.org/2000/svg"><path d="m1.317.078c.202-.071.419-.071.63-.068.601.008 1.189.338 1.503.851.353.663.574 1.383.848 2.079.502 1.33 1.006 2.658 1.505 3.989.093.221.268.419.504.488.184.039.386.002.532-.12.083-.103.169-.21.212-.337.198-.551.41-1.096.607-1.647.231.658.501 1.302.73 1.961.112.274.207.553.319.827-.166.277-.348.546-.57.782-.393.354-.891.594-1.415.67-.542.064-1.119.013-1.602-.26-.554-.303-.954-.838-1.171-1.423-.599-1.692-1.212-3.378-1.816-5.068-.09-.219-.136-.456-.247-.667.027.222.017.445.019.668v4.286c.002.108-.011.216-.013.324.27-.747.523-1.5.787-2.249.301.851.609 1.7.91 2.55.031.095.08.186.092.285-.109.47-.394.889-.773 1.185-.683.565-1.773.504-2.417-.092-.374-.353-.494-.886-.49-1.384-.003-1.794-.001-3.588.002-5.381.004-.358-.035-.729.103-1.068.19-.557.663-.986 1.211-1.181z"/><path d="m4.685.67c.53-.461 1.243-.715 1.947-.663.597.004 1.175.272 1.585.701.326.351.564.781.696 1.241.505 1.4 1.001 2.804 1.506 4.204.151.43.32.854.446 1.291.017-.131.011-.263.008-.394-.001-1.208 0-2.417 0-3.624.004-.413-.008-.827.012-1.24-.049.083-.078.175-.102.268-.196.58-.403 1.157-.603 1.736-.026.071-.038.149-.082.213-.338-.934-.669-1.869-1.002-2.803.157-.673.664-1.263 1.314-1.502.196-.075.408-.096.617-.089.519-.01 1.045.213 1.382.61.297.363.375.849.376 1.304 0 1.916-.002 3.832-.002 5.749.012.423-.139.842-.395 1.176-.28.326-.646.597-1.072.69-.618.115-1.31-.05-1.747-.519-.175-.154-.283-.364-.376-.575-.236-.463-.383-.962-.57-1.444-.124-.337-.263-.669-.379-1.008-.203-.575-.448-1.135-.631-1.716-.17-.441-.335-.883-.502-1.324-.075-.206-.141-.427-.291-.593-.144-.137-.345-.238-.548-.212-.211.027-.401.171-.476.37-.228.579-.43 1.168-.658 1.747-.357-.923-.695-1.854-1.061-2.773.172-.295.362-.583.608-.821z"/></svg>