<svg enable-background="new 0 0 79.203 78.749" viewBox="0 0 79.203 78.749" xmlns="http://www.w3.org/2000/svg"><g clip-rule="evenodd" fill-rule="evenodd"><path d="m62.698 36.947c-.014-.742.312-1.44.553-2.109.482-1.338.988-2.656 1.506-4.017.246-.646.563-1.339.552-2.059-.399-.516-1.141-.352-1.707-.352-20.248-.001-40.489-.102-60.107-.101-.565 0-1.25.143-1.707-.301.129-1.07.53-2.096.904-3.063 1.098-2.836 2.684-5.439 4.269-7.833 4.963-7.106 11.809-12.414 20.939-15.366 3.113-1.006 6.452-1.526 10.344-1.707 6.365-.296 12.187 1.154 16.621 2.963 4.576 1.867 8.711 4.59 11.951 7.532 3.345 3.038 6.104 6.769 8.336 11.148.519 1.019 1.101 2.112 1.557 3.314 1.128 2.978 1.955 6.017 2.36 9.842.086.816.28 1.959-.05 2.26-.245.223-1.328.15-1.958.15-4.227 0-8.558 0-12.554 0-.604 0-1.318.083-1.809-.301z"/><path d="m58.781 32.93c.056.754-.277 1.428-.552 2.209-.221.628-.564 1.774-1.105 1.958-1.104.376-3.169.1-4.771.101-10.26 0-20.749-.101-31.384-.101-.852 0-2.034-.091-2.46.201-.571.392-.997 2.284-1.255 3.063-.698 2.101-1.548 4.246-2.26 6.276-.371 1.059-.788 2.069-1.004 3.264.761.427 1.699.251 2.561.251 13.753 0 27.003.155 40.875 0 .656-.42.802-1.261 1.055-1.958.528-1.453 1.065-2.936 1.607-4.368.276-.73.394-1.518.853-2.109.059.008.089-.011.101-.05 5.129-.086 10.723-.079 15.918 0 .713.011 1.453-.123 2.109.151.2 1.57-.142 3.098-.401 4.519-1.807 9.895-6.767 17.104-13.006 22.647-4.153 3.564-8.948 6.426-14.763 8.185-2.001.606-4.09.923-6.377 1.256-4.791.697-9.889.196-13.91-.804-4.055-1.008-7.705-2.42-10.947-4.318-7.878-4.613-14.051-11.56-17.426-20.84-.673-1.852-1.229-4.051-1.606-6.026-.529-2.763-.815-7.038-.502-10.746.094-1.11.151-2.895 1.055-3.013 1.11-.145 2.404.079 3.616.05 7.964-.19 16.879-.05 25.157-.05 8.328 0 16.783.1 25.359.1 1.152.001 2.337-.122 3.463.152z"/><path d="m55.567 41.768c.08.756-.258 1.514-.502 2.159-.254.672-.433 1.399-.904 1.858-10.417.199-21.05-.05-31.736-.05-.643 0-1.346.113-1.958-.15.002-.713.306-1.479.552-2.159.247-.681.452-1.432.954-1.858 9.794-.124 19.752.049 29.526.05 1.353-.001 2.743-.123 4.068.15z"/></g></svg>