<svg enable-background="new 0 0 76.319 76.929" viewBox="0 0 76.319 76.929" xmlns="http://www.w3.org/2000/svg"><path clip-rule="evenodd" d="m76.153.143c.021.043.043.087.097.097.119 9.462.048 19.15.048 28.9.001 16.189.071 31.153-.048 47.621-.729.253-1.53.145-2.268.145-24.604 0-49.679.07-73.82-.097-.044-9.468-.272-19.708-.096-29.094.056-2.995.069-6.329 0-9.457-.068-3.07.075-6.291 0-9.409-.076-3.167 0-6.428 0-9.649 0-5.65 0-11.245 0-16.935 0-.535-.164-1.993.338-2.123 1.117-.289 3.548-.048 4.921-.048 23.634 0 47.376.111 70.828.049zm-5.355.964c-12.212-.031-25.407-.134-37.634.097.551.538 1.317.627 1.979.869 2.028.74 3.908 1.828 5.597 2.991 2.266 1.56 4.313 3.315 5.983 5.5 1.63 2.133 3.029 4.649 4.149 7.285.568 1.337 1.055 2.742 1.64 4.101.439 1.019.93 2.011 1.303 2.992.562 1.477 1.092 2.662 1.688 4.053.428.994.863 2.008 1.303 2.991 2.682 6.001 5.152 12.11 7.816 18.045 3.343 7.446 6.585 15.075 9.843 22.484.212.481.299 1.078.772 1.399.256-2.954.145-6.201.145-9.408 0-2.395 0-4.827 0-7.141 0-.761.112-1.56-.145-2.268-1.167.249-2.017.815-2.943 1.303-1.071.344-1.831 1-2.896 1.351-.643-.594-.862-1.53-1.206-2.316-.364-.834-.716-1.669-1.062-2.509-.688-1.674-1.507-3.316-2.171-4.97.256-.427.784-.588 1.206-.772 2.736-1.194 5.375-2.75 7.913-4.053.424-.218.985-.324 1.254-.772.094-6.83.049-13.709.049-20.65-.001-6.93.096-13.854-.097-20.505-1.467-.318-2.994-.093-4.486-.097zm-5.259 73.338c-.195-.475-.472-.933-.676-1.399-2.93-6.693-5.774-13.377-8.732-20.071-.632-1.429-1.363-2.845-1.93-4.198-.211-.503-.279-1.064-.482-1.592-.368-.956-.836-1.903-1.255-2.847-1.294-2.92-2.48-5.771-3.715-8.636-2.06-4.78-4.058-9.752-6.369-14.185-2.464-4.727-5.098-8.315-10.036-10.566-3.918-1.786-8.907-1.93-14.523-1.93-5.465-.001-11.013 0-16.501 0-.332.042-.338.597-.241.916.485.434 1.166.196 1.737.193 4.434-.021 9.459 0 14.04 0 2.803 0 5.453-.13 7.864.145 2.366.27 4.57.839 6.514 1.641 7.662 3.162 10.546 11.132 13.992 18.527 2.586 5.552 4.903 11.373 7.285 17.08.804 1.925 1.515 3.885 2.364 5.79.839 1.88 1.598 3.808 2.412 5.693.822 1.902 1.715 3.75 2.509 5.645.799 1.903 1.725 3.755 2.51 5.645.603 1.454 1.157 2.947 1.785 4.294.203.437.347.998.771 1.303.247.084.813.074 1.062 0 .075-.507-.203-1.003-.385-1.448zm-63.929-21.615c.368-1.17.758-2.108 1.254-3.088 1.944-3.839 4.993-6.705 8.781-8.733 2.536-1.357 5.337-2.438 8.154-3.474 2.874-1.056 5.637-2.078 8.057-3.619 2.298-1.463 4.352-3.779 4.053-7.479-.268-3.314-2.22-5.645-4.969-6.706-1.405-.542-3.021-.751-4.97-.772-6.833-.071-14.369-.029-20.843.097-.255 11.495-.139 22.968 0 34.739.351-.192.387-.662.483-.965zm36.765-14.765c-.287.577-.583 1.124-.868 1.592-.936 1.54-2.005 2.664-3.522 3.715-3.731 2.586-8.695 4.192-13.268 6.079-2.153.889-4.625 1.948-6.08 3.619-1.903 2.188-3.367 5.63-1.64 8.974.419.812 1.085 1.793 1.737 2.364 1.993 1.748 5.124 2.062 8.443 1.689 3.136-.352 5.649-1.376 8.106-2.316 4.436-1.697 8.406-3.682 12.593-5.646.468-.219 1.439-.846 1.833-.771.383.072.542.703.675 1.062.819 2.208 1.707 4.072 2.605 6.127.264.603 1.159 1.891.965 2.461-.101.298-.667.396-1.158.627-2.951 1.387-5.914 2.695-8.781 4.004-2.895 1.322-5.947 2.774-9.119 3.667-.456.128-1.004.091-1.351.482.93.253 1.936.145 2.895.145 6.521 0 12.517.049 19.01.048 1.102 0 2.254.147 3.281-.193-.551-1.638-1.166-3.262-1.833-4.873-.664-1.602-1.215-3.253-1.93-4.825-1.415-3.114-2.744-6.261-4.101-9.409-1.33-3.085-2.682-6.24-4.053-9.456-.989-2.32-2.032-4.686-3.04-7.093-.273-.651-.801-2.084-1.254-2.171-.057.026-.11.054-.145.098zm-37.296 25.428c-.017.896-.122 2.15-.097 3.232.07 2.908-.164 6.323.145 9.119 2.936.149 6.293.096 9.36.096.642 0 1.317.041 1.881-.193-.57-.459-1.261-.693-1.881-1.013-.64-.331-1.26-.687-1.833-1.11-3.402-2.506-5.975-5.803-7.382-10.277-.048 0-.097 0-.145 0-.002.063-.062.068-.048.146z" fill-rule="evenodd"/></svg>