<svg clip-rule="evenodd" fill-rule="evenodd" stroke-linejoin="round" stroke-miterlimit="2" viewBox="0 0 560 400" xmlns="http://www.w3.org/2000/svg"><g fill-rule="nonzero" transform="matrix(.438098 0 0 .438098 145 90.0154)"><path d="m71 502.1 141.8-268.1c15-28.3 23-60.3 23-92.3v-141.7h-62.8v141.7c0 21.9-5.4 43.6-15.7 63l-157.3 297.4z"/><path d="m242.2 0v141.7c0 33.1-8.2 66.1-23.7 95.3l-140.2 265.1h71l124.7-235.7c20.3-38.3 31-81.4 31-124.7v-141.7z"/><path d="m545.3 502.1-141.8-268c-15-28.3-23-60.3-23-92.3v-141.8h62.7v141.7c0 21.9 5.4 43.6 15.7 63l157.4 297.4z"/><path d="m374.1 0v141.7c0 33.1 8.2 66.1 23.7 95.3l140.2 265.1h-71l-124.7-235.6c-20.3-38.3-31-81.4-31-124.7v-141.8z"/></g></svg>