<svg enable-background="new 0 0 181.169 130.498" viewBox="0 0 181.169 130.498" xmlns="http://www.w3.org/2000/svg"><g clip-rule="evenodd" fill-rule="evenodd"><path d="m160.195 93.43c-21.632.162-43.767.13-65.762-.048-.307-6.972.077-15.355-.192-22.226-.043-.021-.086-.042-.097-.096-1.151-.041-2.799-.172-3.8.096-.285 7.214.124 15.061-.193 22.273-11.238.129-22.677.098-34.251.097-11.598-.001-23.374.001-34.685-.192.347-1.097 1.027-2.044 1.587-3.031 3.862-6.797 7.945-13.586 11.882-20.396 2.254-3.898 4.466-7.83 6.687-11.738 2.222-3.911 4.517-7.767 6.783-11.642 6.797-11.623 13.685-23.165 20.397-34.877 1.682-2.935 3.355-5.857 5.099-8.755.565-.938 1.026-1.973 1.78-2.79 11.52-.16 23.095-.115 34.733 0 .456.297.657.843.914 1.299 1.842 3.256 3.63 6.702 5.388 10.054.498.951 1.116 1.905 1.539 2.886 1.305 3.024 3.035 5.786 4.57 8.659 4.095 7.664 8.277 15.287 12.364 22.947 4.083 7.655 8.238 15.293 12.411 22.899 4.189 7.635 8.207 15.35 12.219 23.091.21.466.695.904.627 1.49zm-69.851-82.118c-.378 3.721.087 7.557-.097 11.401-.181 3.808 0 7.631 0 11.497 0 7.863-.08 15.83.097 23.669 1.156.159 2.823.252 3.848 0 .16-15.329.16-31.29 0-46.568-1.105-.194-2.682-.145-3.848.001z"/><path d="m49.742 96.894c.157 9.615.145 19.228.144 29.249 0 1.375.118 2.761-.144 4.089-4.879.193-10.538.181-15.442-.048-.301-1.559.138-3.857-.24-5.34-3.497-.191-7.536-.098-11.113-.048-.504.248-.689.847-.962 1.299-.812 1.342-1.551 2.922-2.549 4.137-3.134.072-6.433.048-9.718.048-3.288.001-6.625.111-9.717-.144.206-.792.684-1.511 1.106-2.214 2.896-4.812 5.62-9.651 8.515-14.624 2.801-4.811 5.652-9.643 8.515-14.624.389-.677.942-1.831 1.587-1.925 1.162-.167 2.563 0 3.849 0 8.788 0 17.362-.043 26.169.145zm-16.982 8.082c-1.601 3.236-3.709 7.081-5.003 10.054.79.339 1.991.193 3.079.193 1.131 0 2.304.076 3.224-.097.141-.614.145-1.279.144-1.972-.003-2.319-.038-5.019 0-7.168.014-.81.08-1.627-.192-2.309-.683-.202-.964.717-1.252 1.299z"/><path d="m181.169 130.184c-5.538.164-11.154.144-16.934.144-.867.001-1.83.038-2.55-.048-1.309-1.658-2.125-3.809-3.416-5.483-3.446.017-7.476-.099-11.016.096-.4 1.438.102 3.84-.289 5.34-4.972.16-10.615.16-15.586 0-.16-10.851-.16-22.39 0-33.29 2.308-.427 4.946.074 7.36-.144.073-.007.085-.047.144-.049 7.53-.139 15.315.031 22.755.097.647.493.954 1.304 1.347 1.972 4.447 7.584 8.96 15.332 13.47 22.947 1.231 2.08 2.424 4.172 3.656 6.302.393.677.95 1.316 1.059 2.116zm-29.056-18.04c-1.169-2.362-2.436-4.837-3.656-7.265-.247-.49-.628-1.523-1.251-1.106-.197.929-.094 2.044-.097 2.935-.008 2.809-.193 5.833.097 8.467.92.172 2.074.097 3.175.097 1.115 0 2.259.114 3.126-.145-.298-.969-.888-1.96-1.394-2.983z"/><path d="m90.633 130.376c-5.103.108-10.401.171-15.683 0-.174-1.425-.096-3.041-.096-4.667 0-1.576.114-3.219-.144-4.569-1.435-.161-3.521-.158-4.955 0-.257.663-.145 1.476-.145 2.261 0 2.241.105 4.87-.144 6.927-2.471.259-5.216.145-7.89.145-2.672 0-5.364.074-7.841-.096-.261-1.341-.145-2.737-.145-4.137.001-4.177 0-8.458 0-12.701.001-5.616-.093-11.259.097-16.548 4.267-.125 8.606-.098 13.037-.097 4.393.001 8.89.204 13.277 0 1.096-.051 2.379.055 3.56 0 1.115-.052 2.266-.127 3.175.097 2.195.538 3.675 2.126 3.945 4.377.145 1.21.112 2.575.048 3.993-.09 1.995.315 3.983-.289 5.628-.45 1.227-1.518 2.259-2.742 2.791-.599.26-1.762.306-1.828.866-.077.655.736.784 1.347 1.01 1.579.584 3.03 1.743 3.416 3.512.363 1.666.144 3.786.144 5.629v2.886c0 .921.112 1.854-.144 2.693zm-20.831-24.246c-.337.697-.192 1.798-.192 2.79 0 1.01-.197 2.085.096 2.839 1.477.122 3.655.219 5.003 0 .151-1.678.162-3.898.048-5.532-1.369-.289-3.429-.121-4.955-.097z"/><path d="m127.289 96.99c.151 2.81.175 6.198 0 8.899-5.597.358-11.756-.155-17.414.24-.279.671-.129 2.015-.096 2.839.664.255 1.398.144 2.117.144 5.016.001 10.423-.009 15.394.145.16 2.728.161 6.123 0 8.852-5.646.323-11.646-.1-17.414.192-.259.682-.177 2.128-.048 2.887 5.577.28 11.775-.012 17.462.24.161 2.745.16 6.155 0 8.899-1.328.261-2.72.145-4.089.145-4.19 0-8.36-.047-12.508-.048-5.499-.001-11.107.167-16.26-.097-.188-8.523-.096-17.028-.096-25.352 0-2.119.048-4.265 0-6.35-.014-.593-.184-1.239.192-1.732 10.679.007 22.187-.141 32.76.097z"/></g></svg>