<svg enable-background="new 0 0 75.587 75.144" viewBox="0 0 75.587 75.144" xmlns="http://www.w3.org/2000/svg"><path clip-rule="evenodd" d="m75.341.165c.145 15.589.188 31.206.188 47.049.001 9.086.128 18.473 0 27.56-.723.265-1.524.131-2.266.142-3.798.058-7.9.048-11.845.047-7.664-.001-15.6.098-23.501.095-12.661-.004-25.336.198-37.611 0-.178-6.241-.141-12.542-.141-18.829 0-16.994-.142-34.118-.14-51.345 0-1.528-.112-3.049.142-4.53 23.782-.147 48.931-.324 73.523-.33.544-.001 1.141-.109 1.651.141zm-26.71 6.559c-1.641 0-3.263 0-4.813 0-.491 0-1.037-.106-1.463.188.111.617.485 1.161.802 1.699 2.249 3.819 4.578 7.638 6.796 11.42 2.204 3.759 4.525 7.557 6.795 11.373.286.481.919 1.34.897 1.746-.023.425-.875 1.281-1.228 1.699-3.19 3.776-6.17 7.581-9.249 11.278-.493.623-1.15 1.084-1.416 1.935 3.708.299 7.662.095 11.515.095 2.936 0 5.881-.028 8.731-.047.938-.007 1.89.205 2.784-.095.158-12.575.001-25.984 0-38.744 0-.818.109-1.698-.142-2.501-6.618-.201-13.283-.046-20.009-.046zm-31.382.094c-1.751 0-3.503.048-5.238.048-1.748 0-3.5-.114-5.191.142-.224 4.918-.094 10.438-.094 15.667 0 1.826-.114 3.597.141 5.191 4.922.165 10.527-.022 15.432 0 1.566-2.511 3.045-5.159 4.483-7.739.5-.897.867-1.851 1.368-2.737 1.723-3.042 3.419-6.146 5.097-9.155.236-.424.668-.82.613-1.368-5.456-.148-11.03-.047-16.611-.049zm20.622 6.986c-2.304 4.011-4.609 8.117-6.843 12.128-.313.563-.811 1.104-.849 1.793 4.631.168 9.883.225 14.581.047.478-.018 1.188.111 1.558-.142-.475-1.255-1.3-2.35-1.982-3.539-1.702-2.971-3.312-5.867-5.097-8.824-.279-.464-.796-1.578-1.227-1.606-.067.027-.114.074-.141.143zm-4.955 20.669c-1.387 0-2.733-.114-3.917.142.193.616.694 1.052 1.086 1.51 2.399 2.81 4.738 5.7 7.078 8.542.278.337.915 1.351 1.321 1.321.356-.025.952-1.036 1.227-1.368 1.228-1.482 2.371-2.864 3.54-4.295 1.185-1.449 2.295-2.926 3.492-4.294.396-.454.929-.893 1.038-1.511-4.683-.211-9.89-.047-14.865-.047zm-14.535 34.072c.552-.021 1.165.059 1.558-.048.546-.147 1.222-1.221 1.652-1.746 3.576-4.355 7.208-8.911 10.665-13.119.262-.294.532-.598.896-1.038.219-.264.819-.802.803-1.18-.019-.431-.945-1.316-1.227-1.651-1.804-2.152-3.667-4.181-5.191-6.371-1.175-1.688-2.789-3.128-3.964-4.719-1.186-1.395-2.233-2.928-3.587-4.153-4.394.027-8.907-.066-13.119.142-.247 4.275.014 8.644-.047 12.693-.021 1.423.065 2.844 0 4.247-.131 2.819.106 5.678 0 8.494-.079 2.116 0 4.237 0 6.324 0 .691-.099 1.418.142 2.076 3.58.082 7.668.189 11.419.049zm41.812-13.827c-4.782.223-9.735-.211-14.252.142.219.756.824 1.251 1.274 1.793.467.562.928 1.107 1.368 1.699 2.396 2.878 4.96 5.854 7.362 8.824.343.424.757 1.061 1.18 1.18.741.208 2.072.038 2.879 0 2.999-.142 6.046.315 8.777-.094.279-4.107.117-9.14 0-13.45-2.756-.113-5.673-.23-8.588-.094zm-21.991 2.217c-2.781 3.252-5.459 6.651-8.164 9.91-.39.471-.929.881-1.085 1.51.895.229 1.861.1 2.831.095 5.185-.024 11.144.157 16.186-.142-.188-.608-.65-1.084-1.038-1.558-1.207-1.473-2.43-2.854-3.587-4.341-1.272-1.354-2.366-2.888-3.634-4.248-.444-.411-.731-1.458-1.509-1.226z" fill-rule="evenodd"/></svg>