<svg enable-background="new 0 0 36.019 31.366" viewBox="0 0 36.019 31.366" xmlns="http://www.w3.org/2000/svg"><path d="m17.55.031c2-.198 3.955.572 5.563 1.715 3.094 2.192 5.221 5.417 7.211 8.579 1.354 2.366 2.647 4.774 3.678 7.3 1.126 2.173 2.179 4.53 1.996 7.038-.131 3.748-3.701 7.112-7.501 6.662-2.433-.267-4.646-1.376-6.991-1.984-2.083-.454-4.254-.453-6.356-.132-2.537.502-4.877 1.747-7.466 2.047-2.709.389-5.482-1.16-6.781-3.532-1.413-2.496-1.024-5.617.177-8.117 2.473-5.436 5.228-10.867 9.27-15.324 1.923-2.038 4.31-3.969 7.2-4.252zm-.421 6.983c-2.046.198-3.949 1.196-5.42 2.609-3.639 3.386-3.544 9.781.119 13.122 3.358 3.434 9.466 3.299 12.721-.212 3.495-3.45 3.488-9.78-.19-13.087-1.907-1.809-4.613-2.758-7.23-2.432z"/></svg>