<svg enable-background="new 0 0 85.461 64.88" viewBox="0 0 85.461 64.88" xmlns="http://www.w3.org/2000/svg"><path clip-rule="evenodd" d="m63.613.136c.023.046.045.093.104.103.095 3.605.052 7.175.052 10.73 0 7.057.001 13.758 0 20.787 0 3.507-.147 6.991.104 10.316.819.284 1.715.146 2.592.155 6.084.064 12.824.018 18.973.104.134.396-.305.616-.519.83-.683.683-1.36 1.412-2.073 2.125-2.782 2.782-5.547 5.676-8.397 8.449-3.736 3.765-7.466 7.535-11.355 11.145-21.21-.041-41.96.046-62.93-.259-.189-13.074-.104-26.761-.103-40.174 0-.918-.138-1.904 0-2.644.083-.446.788-1.076 1.244-1.503 7.112-6.668 13.624-13.623 20.683-20.268 13.724-.047 28.112-.063 41.625.104zm-21.046 1.918c-6.392 0-13.343-.137-19.645 0-6.225 5.836-12.226 11.896-18.299 17.883-.416.306-.868.765-1.348 1.244-.422.421-1.083.904-1.192 1.4-.306 1.388-.052 3.462-.052 5.132 0 5.117-.001 10.06 0 15.084 0 5.069.051 10.064.052 14.929 0 1.659-.185 3.328.103 4.925 9.82.227 19.865.208 29.495.207 1.682 0 3.378.03 5.028 0 1.635-.03 3.253.217 4.82-.104.173-5.768.173-12.221 0-17.936-3.452-.405-7.121.01-10.678-.155-2.653-.124-5.332-.052-7.983-.052-.874 0-1.771.122-2.592-.156-.159-6.654-.102-13.66-.103-20.476 0-.944-.126-1.942.155-2.851 6.627-.235 13.849-.052 20.527-.052.915 0 1.852-.059 2.695.156.215 13.479-.11 26.635.208 39.758.575-.078.872-.64 1.244-.984.393-.365.769-.769 1.141-1.141 4.594-4.595 8.819-9.224 13.426-13.892.642-.651 1.969-1.572 2.177-2.385.154-.604 0-1.584 0-2.436.001-6.15 0-11.68 0-17.832 0-5.064 0-10.161 0-15.292 0-1.696.121-3.35-.104-4.873-6.112-.212-12.512-.101-19.075-.101zm-20.164 21.046c-.449.777-.219 1.747-.208 2.643.06 4.709-.039 10.051-.052 14.877-.002.65-.023 1.331.207 1.918 4.664.08 9.821.227 14.515.156 1.586-.024 3.191.138 4.665-.156.176-4.544.104-9.721.104-14.514-.001-1.626.124-3.262-.156-4.769-6.053-.309-12.945-.104-19.075-.155zm40.848 21.149c-5.765 5.64-11.287 11.522-16.899 17.313-.32.374-.971.684-.933 1.244 5.392.241 11.23.035 16.795.104 3.249-2.902 6.201-6.101 9.382-9.072 1.48-1.558 3.02-3.122 4.562-4.665 1.16-1.16 2.458-2.241 3.474-3.473.322-.391.843-.79.881-1.348-5.448-.176-11.657-.11-17.262-.103z" fill-rule="evenodd"/></svg>