<svg enable-background="new 0 0 48.37 78.822" viewBox="0 0 48.37 78.822" xmlns="http://www.w3.org/2000/svg"><g clip-rule="evenodd" fill-rule="evenodd"><path d="m37.434.006c.399.307-.304.705-.452.956-1.965 2.352-4.064 4.691-5.535 7.647-.724 1.455-1.405 3.119-1.609 4.982-.208 1.893.125 3.983.805 5.685 1.879 4.705 5.693 7.406 11.521 8.251 1.906.276 3.989.015 6.089.051.264 15.157.007 31.51-.051 46.641-2.423.919-5.982.875-8.554.202-2.536-.664-4.844-1.837-6.39-3.321-1.681-1.445-3.111-3.435-3.673-6.088-.296-1.399-.252-3.039-.252-4.629 0-1.552.165-3.131-.15-4.579-.794.082-1.308.804-1.912 1.258-.627.47-1.288.908-1.861 1.409-4.196 3.385-8.337 6.91-12.579 10.264-3.195 2.526-6.203 5.2-9.408 7.749-.799.635-1.566 1.253-2.415 1.861-.236.169-.472.582-.855.453-.267-16.155-.088-31.893-.151-48.302 1.337-1.487 3-2.64 4.528-3.925 1.524-1.282 3.091-2.542 4.629-3.824 6.15-5.125 12.352-10.03 18.667-15.145 2.286-1.852 4.714-3.75 7.044-5.635.852-.689 1.655-1.406 2.564-1.961z"/><path d="m40.604.006c.566-.115.351 1.524.352 1.912.033 6.41.05 12.746.05 19.169 0 1.405.119 2.858-.15 4.075-1.823-.038-3.509-.775-4.729-1.66-2.264-1.64-4.125-4.381-4.377-7.648-.311-4.013 1.439-6.776 3.018-9.207 1.658-2.553 3.624-4.699 5.686-6.49.027-.073.078-.123.15-.151z"/></g></svg>