<svg clip-rule="evenodd" fill-rule="evenodd" stroke-linejoin="round" stroke-miterlimit="2" viewBox="0 0 560 400" xmlns="http://www.w3.org/2000/svg"><g fill-rule="nonzero" transform="matrix(1.45476 0 0 1.45476 29.2726 163.267)"><path d="m68.8 15.8c-.6.4-.9.7-1.2 1.3-.2.6-.3 1.7-.3 2.6 0 1.7.5 2.4 1.3 2.4.6 0 1.3-1 1.3-2.5v-4.9c-.3.6-.7.8-1.1 1.1m4.2 7.5c-1.1 0-1.9-.2-2.3-.7-.3-.3-.5-.8-.5-1.5h-.1c-.4 1.6-1.9 2.2-3.7 2.2s-3.6-1.1-3.6-3.6c0-1 .3-1.6.8-2.1.8-.9 2.4-1.2 3.4-1.5 2.5-.7 3.1-1.7 3.1-2.8v-2.1c0-1.5-.3-1.8-1.5-1.8-.8 0-1.1.2-1.2.5s0 1.1 0 2c0 1.3-.6 1.9-1.8 1.9-1.1 0-1.8-.6-1.8-1.7 0-.5.2-1 .5-1.4.8-1 2.8-1.7 4.6-1.7 3.5 0 5.6 1.1 5.6 3.9v6.8c0 1.4.1 2 .3 2.3.2.2.4.3.8.3.3 0 .6-.1.9-.3v.2c-.5.5-1.8 1.1-3.5 1.1"/><path d="m88.4 9.8c-.3.2-.5.3-.7.7-.3.4-.6 1.1-1 2.4l-3.4 10.2h-2l-3.4-9.5c-.3-.9-.8-2.1-1-2.5-.2-.7-.6-1-1-1.3-.3-.2-.7-.3-.9-.3v-.1h8.5v.1c-.3 0-.8.1-1.1.2-.3.2-.4.6-.4 1.1 0 .6.1 1.1.4 2.1l1.8 5.8 1.9-5.7c.4-1.2.5-1.6.5-2.4 0-.5-.2-.7-.5-.9s-.7-.2-.9-.2v-.1h4v.1c-.2 0-.5.1-.8.3"/><path d="m96.5 10c-.3-.3-.7-.5-1.1-.5s-.8.1-1.2.5c-.6.7-.9 2.3-.9 5.2h3c.7 0 1-.3 1-1.2 0-1.9-.2-3.4-.8-4m-3.2 5.6c0 3.8.7 5.3 1.4 6.1.4.4 1.2.7 1.9.7 2.3 0 3.7-2.2 4.1-4l.3.1c-.5 2.6-2.4 4.7-5.7 4.7-1.5 0-3.1-.4-4.3-1.4-1.5-1.2-2.5-3-2.5-5.7 0-4.9 3.4-7.2 6.7-7.2 4.1 0 6 2.8 5.9 5.7v.8h-7.8z"/><path d="m110.9 23v-.1c.2 0 .5-.1.7-.2.5-.2.7-.6.8-1.3.1-.5.1-1.2.1-2v-6.8c0-1.1-.1-1.7-.4-2-.2-.3-.6-.4-1.2-.4-.7 0-2.2.9-2.4 3.5-.1.8-.1 1.6-.1 2.5v3.3c0 .7 0 1.5.1 2 .1.8.3 1.1.8 1.3.2.1.4.2.7.2h-7.8v-.1c.2 0 .5 0 .7-.1.4-.2.7-.4.9-1.2.1-.5.1-1.8.1-2.7v-5.8c0-.6 0-1.8-.1-2.3-.1-.6-.3-.8-.5-1.1-.3-.2-.7-.3-1-.3h5.8c.2 0 .2.1.2.2 0 .3-.1 2.4-.1 2.8h.1c.3-1.2.9-1.9 1.6-2.4.8-.6 2.1-.9 2.9-.9 1.4 0 2.5.3 3.1 1.2.5.7.8 1.8.8 3.3v5.3c0 .9 0 2.2.2 2.7.2.8.5 1 .9 1.2.3.1.5.1.7.1v.1z"/><path d="m129.2 23.2c-.1 0-.1-.1 0 0-.2-.2-.2-.4-.2-.5v-2.5h-.1c-.3 1.1-.7 1.7-1.3 2.3-.7.6-1.8.9-2.7.9-1.2 0-2.4-.2-3.2-1s-1.1-2-1.1-3.3v-5.7c0-.7 0-2-.1-2.4-.2-.7-.3-.9-.7-1.1-.3-.1-.7-.2-1-.2v-.3h6c.1 0 .2 0 .2.2v10.2c0 .9.1 1.6.4 2 .3.3.7.5 1.2.5.9 0 2-1.3 2.2-3.6.1-.8.1-1.3.1-2.2v-3.7c0-.6 0-1.3-.1-1.7-.1-.7-.2-1.1-.6-1.3-.3-.1-.8-.2-1.1-.2v-.2h5.9c.2 0 .2.1.2.2v9.8c0 .6 0 1.6.1 2.1.1.6.3.9.6 1.2.3.2.7.2 1.1.3v.2c-.1-.1-5.8 0-5.8 0"/><path d="m143.7 10c-.3-.3-.7-.5-1.1-.5s-.8.1-1.2.5c-.6.7-.9 2.3-.9 5.2h3c.7 0 1-.3 1-1.2 0-1.9-.3-3.4-.8-4m-3.2 5.6c0 3.8.7 5.3 1.4 6.1.4.4 1.2.7 1.9.7 2.3 0 3.6-2.2 4.1-4l.3.1c-.5 2.6-2.4 4.7-5.7 4.7-1.5 0-3.1-.4-4.3-1.4-1.5-1.2-2.5-3-2.5-5.7 0-4.9 3.4-7.2 6.7-7.2 4.1 0 6 2.8 5.9 5.7v.8h-7.8z"/><path d="m163.6 10c-.4-.5-.9-.6-1.4-.6s-1.1.2-1.4.6c-.7.8-1 2.9-1 6.2s.3 5.4 1 6.2c.4.5.9.6 1.4.6s1-.1 1.4-.6c.7-.8 1-2.9 1-6.2-.1-3.3-.3-5.3-1-6.2m-1.4 13.3c-3.5 0-7-2.6-7-7.1s3.5-7.1 7-7.1 7 2.6 7 7.1-3.5 7.1-7 7.1"/><path d="m180.5 6.1c-.9 0-1.4-.4-1.8-1.1-.2-.3-.3-.7-.4-1.1-.1-.5-.2-1.1-.3-1.4-.1-.4-.2-.6-.5-.6-.5 0-.8.2-1.1.8-.2.6-.3 1.5-.3 2.9v3.7h2.8v.7h-2.8v9c0 .9.1 2.2.2 2.7.2.8.5 1 .9 1.2.2.1.8.1 1 .2v-.1h-8.3v-.1c.2 0 .5-.1.7-.2.4-.2.7-.3.9-1.1.1-.5.1-1.8.1-2.7v-9h-1.6v-.5h1.7v-1.5c0-2.7 1.1-4.3 1.9-5s2-1.4 4-1.4c1.6 0 2.7.2 3.4.6 1.1.5 1.4 1.3 1.4 2.2 0 1-.7 1.8-1.9 1.8"/><path d="m194.9 21c-.4.9-1.8 2.3-3.8 2.3-1.4 0-2.5-.3-3.2-1-.8-.8-1.1-1.7-1.1-3 0-.6.1-7.9.1-9.4-.5-.1-1.3 0-1.8-.1v-.2c2.9-.6 4.8-2.5 5.7-5.7h.5v5.5h2.9v.6h-2.9l-.1 9.9c0 1.1.2 2.1 1.6 2.1.8 0 1.5-.4 1.9-1.1z"/><path d="m203.9 23v-.1c.3 0 .5-.1.7-.2.5-.2.7-.6.8-1.3.1-.5.1-1.2.1-2v-6.8c0-1.1-.1-1.7-.4-2s-.7-.5-1.2-.5c-1 0-2.3 1.2-2.5 3.6-.1.8-.1 1.5-.1 2.5v3.3c0 .7 0 1.5.1 2 .1.8.3 1.1.8 1.3.2.1.4.2.7.2h-7.8v-.1c.2 0 .5 0 .7-.1.3-.2.7-.4.9-1.2.1-.5.2-1.8.2-2.7v-13.6c0-.6 0-1.6-.1-2.1-.1-.6-.3-.8-.6-1.1-.3-.2-.8-.3-1.1-.3v-.1h6c.2 0 .2 0 .2.2 0 .3-.1 2-.1 3.6v6.9h.1c.3-1.2.9-1.9 1.6-2.4.8-.6 2-.9 2.9-.9 1.4 0 2.7.5 3.3 1.2.5.7.8 1.7.8 3.2v5.4c0 .9 0 2.2.2 2.7.2.8.5 1 .9 1.2.2.1.5.1.7.1v.1z"/><path d="m220.4 10c-.3-.3-.7-.5-1.1-.5-.5 0-.8.1-1.2.5-.6.7-.9 2.3-.9 5.2h3c.7 0 1-.3 1-1.2 0-1.9-.2-3.4-.8-4m-3.2 5.6c0 3.8.7 5.3 1.4 6.1.4.4 1.2.7 1.9.7 2.3 0 3.6-2.2 4.1-4l.3.1c-.5 2.6-2.4 4.7-5.7 4.7-1.5 0-3.1-.4-4.3-1.4-1.5-1.2-2.5-3-2.5-5.7 0-4.9 3.4-7.2 6.7-7.2 4.1 0 6 2.8 5.9 5.7v.8h-7.8z"/><path d="m237.9 15.8c-.6.4-.9.7-1.2 1.3-.2.6-.3 1.7-.3 2.6 0 1.7.5 2.4 1.3 2.4.6 0 1.3-1 1.3-2.5v-4.9c-.3.6-.7.8-1.1 1.1m4.1 7.5c-1.1 0-1.9-.2-2.3-.7-.3-.3-.5-.8-.5-1.5h-.1c-.4 1.6-1.9 2.2-3.7 2.2s-3.6-1.1-3.6-3.6c0-1 .3-1.6.8-2.1.8-.9 2.4-1.2 3.4-1.5 2.5-.7 3.1-1.7 3.1-2.8v-2.1c0-1.5-.3-1.8-1.5-1.8-.8 0-1.1.2-1.2.5s0 1.1 0 2c0 1.3-.6 1.9-1.8 1.9-1.1 0-1.8-.6-1.8-1.7 0-.5.2-1 .5-1.4.8-1 2.8-1.7 4.6-1.7 3.5 0 5.6 1.1 5.6 3.9v6.8c0 1.4.1 2 .3 2.3.2.2.4.3.8.3.3 0 .6-.1.9-.3v.2c-.4.5-1.7 1.1-3.5 1.1"/><path d="m263.1 23v-.1c.3 0 .5-.1.7-.2.5-.2.7-.6.8-1.3.1-.5.1-1.2.1-2v-6.8c0-1.1-.1-1.7-.4-2s-.7-.5-1.2-.5c-.9 0-2.2 1.1-2.5 3.6-.1.6-.1 1.2-.1 1.8v3.7c0 .7 0 1.7.1 2.2.1.7.3 1.1.8 1.3.2.1.4.2.7.2v.1h-7.6v-.1c.3 0 .5-.1.7-.2.5-.2.7-.6.8-1.3.1-.5.1-1.2.1-2v-6.8c0-1.1-.1-1.7-.4-2s-.7-.5-1.2-.5c-1 0-2.3 1.1-2.5 3.6-.1.8-.1 1.6-.1 2.5v3.3c0 .7 0 1.5.1 2 .1.8.3 1.1.8 1.3.2.1.4.2.7.2h-7.8v-.1c.2 0 .5 0 .7-.1.4-.2.7-.4.9-1.2.1-.5.2-1.8.2-2.7v-5.9c0-.6 0-1.7-.1-2.2-.1-.6-.2-.8-.6-1.1-.3-.2-.7-.3-1-.3h5.9c.1 0 .2.1.2.2 0 .3-.1 2.3-.1 2.8h.1c.3-1.2.8-1.9 1.5-2.4.8-.6 2.2-.9 3-.9 1.4 0 2.5.4 3.1 1 .5.5.8 1.3.9 2.3h.1c.3-1.2.9-1.9 1.5-2.4.7-.6 2-.9 2.8-.9 1.5 0 2.8.4 3.4 1.2.5.7.8 1.6.8 3.1v5.6c0 .9 0 2.2.2 2.7.2.8.5 1 .9 1.2.2.1.5.1.7.1z"/><path d="m279.6 10c-.3-.3-.7-.5-1.1-.5-.5 0-.8.1-1.2.5-.6.7-.9 2.3-.9 5.2h3c.7 0 1-.3 1-1.2 0-1.9-.2-3.4-.8-4m-3.2 5.6c0 3.8.7 5.3 1.4 6.1.4.4 1.2.7 1.9.7 2.3 0 3.6-2.2 4.1-4l.3.1c-.5 2.6-2.4 4.7-5.7 4.7-1.5 0-3.1-.4-4.3-1.4-1.5-1.2-2.5-3-2.5-5.7 0-4.9 3.4-7.2 6.7-7.2 4.1 0 6 2.8 5.9 5.7v.8h-7.8z"/><path d="m295.8 13.6c-1.1 0-1.6-.7-1.9-1.6-.2-.7-.3-1-.7-1-.5 0-1.4 1.4-1.6 3.8 0 .3-.1 1.2-.1 2v2.6c0 .7 0 1.5.1 2 .1.8.5 1.1 1 1.3.2.1.6.2.8.2v.1h-8.1v-.1c.2 0 .5 0 .7-.1.4-.2.7-.4.9-1.2.2-.5.2-1.8.2-2.7v-5.8c0-.6 0-1.8-.1-2.3-.1-.6-.2-.8-.5-1s-.7-.3-1-.3v-.1h5.9c.1 0 .2.1.2.2v3.3c.4-1.5 1.2-2.6 1.7-3s1.2-.8 2.1-.8c.6 0 1.4.2 1.8.6.3.4.6.9.6 1.8-.1 1.3-1 2.1-2 2.1"/><path d="m301.6 6.9c-1.2 0-2.3-1-2.3-2.2 0-1.3 1.1-2.3 2.3-2.3s2.3 1 2.3 2.3-1.1 2.2-2.3 2.2m-4 16.1v-.1c.2 0 .5 0 .7-.1.4-.2.7-.4.9-1.2.1-.4.1-1.6.1-2.4v-6.1c0-.6 0-1.8-.1-2.3-.1-.6-.3-.8-.6-1.1-.3-.2-.7-.3-1-.3h5.8c.1 0 .2.1.2.2v9.7c0 .8 0 1.9.2 2.4.2.8.5 1 .9 1.2.3.1.5.1.7.1z"/><path d="m313.3 23.3c-2.2 0-3.9-.7-5-1.8-1.3-1.3-2-3.2-2-5.4 0-4.5 3.5-7 7.1-7 1.9 0 3.4.6 4 1.3.6.6.8 1.1.8 1.8 0 1.2-.9 1.7-1.7 1.7-1.3 0-1.8-.9-2-2.2-.2-1.6-.4-2.2-1.2-2.2-.5 0-1.1.2-1.5.7-.7.9-1 3.1-1 5.5 0 2.8.4 4.6 1 5.8.4.8 1.1 1.1 1.8 1.1 2.6 0 3.7-2.2 4.3-4.1l.4.1c-.4 2.5-2 4.7-5 4.7"/><path d="m325.4 15.8c-.6.4-.9.7-1.2 1.3-.2.6-.3 1.7-.3 2.6 0 1.7.5 2.4 1.3 2.4.6 0 1.3-1 1.3-2.5v-4.9c-.3.6-.7.8-1.1 1.1m4.2 7.5c-1.1 0-1.9-.2-2.3-.7-.3-.3-.5-.8-.5-1.5h-.1c-.4 1.6-1.9 2.2-3.7 2.2s-3.6-1.1-3.6-3.6c0-1 .3-1.6.8-2.1.8-.9 2.4-1.2 3.4-1.5 2.5-.7 3.1-1.7 3.1-2.8v-2.1c0-1.5-.3-1.8-1.5-1.8-.8 0-1.1.2-1.2.5s0 1.1 0 2c0 1.3-.6 1.9-1.8 1.9-1.1 0-1.8-.6-1.8-1.7 0-.5.2-1 .5-1.4.8-1 2.8-1.7 4.6-1.7 3.5 0 5.6 1.1 5.6 3.9v6.8c0 1.4.1 2 .3 2.3.2.2.4.3.8.3.3 0 .6-.1.9-.3v.2c-.5.5-1.8 1.1-3.5 1.1"/><path d="m339 23.3c-1.2 0-2.9-.5-3.8-1.3h-.1l-1.2 1h-.1l-.2-5.1h.2c.5 2.7 2.9 5.1 5.1 5.1 1.5 0 1.9-.6 1.9-2.1 0-1.3-1.3-2-3.1-2.8-1.7-.7-4.1-1.9-4.1-4.8 0-2.5 2.1-4.3 5.1-4.3 1.1 0 2.7.5 3.3 1.2h.1l.8-.9h.2l.1 4.1h-.2c-.2-1.1-.8-2.1-1.6-2.9-.7-.7-1.7-1.1-2.6-1.1-1.1 0-1.9.5-1.9 1.8s1.2 2 3 2.7c2.3.9 4.3 2 4.3 4.7 0 2.9-2.4 4.7-5.2 4.7"/><path d="m109.6 34.8c-.8.5-1.2 1-1.6 1.8-.3.8-.5 2.2-.5 3.6 0 2.4.6 3.3 1.8 3.3.8 0 1.8-1.3 1.8-3.4v-6.6c-.4.6-.9.9-1.5 1.3m5.6 10.1c-1.5 0-2.5-.3-3.1-1-.4-.4-.7-1.1-.7-2h-.1c-.5 2.1-2.5 3-5 3-2.4 0-4.8-1.4-4.8-4.8 0-1.4.4-2.1 1.1-2.9 1.1-1.2 3.3-1.6 4.5-2 3.4-.9 4.1-2.2 4.1-3.7v-2.8c0-2-.5-2.4-2.1-2.4-1.1 0-1.5.3-1.6.7-.1.5 0 1.5 0 2.6 0 1.7-.8 2.5-2.5 2.5-1.5 0-2.5-.8-2.5-2.3 0-.7.3-1.3.7-1.9 1-1.4 3.7-2.3 6.2-2.3 4.7 0 7.6 1.5 7.6 5.3v9.2c0 1.9.1 2.7.5 3.1.2.3.5.5 1.1.5.4 0 .8-.1 1.2-.3v.2c-.5.6-2.3 1.3-4.6 1.3"/><path d="m127.9 44.9c-1.6 0-3.9-.7-5.1-1.7h-.2l-1.6 1.3h-.2l-.2-6.8h.3c.6 3.7 3.9 6.9 6.9 6.9 2 0 2.6-.8 2.6-2.8 0-1.7-1.8-2.7-4.2-3.7-2.3-.9-5.5-2.6-5.5-6.5 0-3.3 2.8-5.8 6.8-5.8 1.5 0 3.7.7 4.5 1.6h.1l1.1-1.2h.2l.1 5.5h-.3c-.3-1.5-1.1-2.9-2.1-3.9s-2.3-1.5-3.6-1.5c-1.5 0-2.5.7-2.5 2.4 0 1.8 1.7 2.7 4.1 3.7 3.1 1.2 5.8 2.6 5.8 6.3 0 3.8-3.3 6.2-7 6.2"/><path d="m143.9 44.9c-1.6 0-3.9-.7-5.1-1.7h-.2l-1.6 1.3h-.2l-.2-6.8h.3c.6 3.7 3.9 6.9 6.9 6.9 2 0 2.6-.8 2.6-2.8 0-1.7-1.8-2.7-4.2-3.7-2.3-.9-5.5-2.6-5.5-6.5 0-3.3 2.8-5.8 6.8-5.8 1.5 0 3.7.7 4.5 1.6h.1l1.1-1.2h.2l.1 5.5h-.3c-.3-1.5-1.1-2.9-2.1-3.9s-2.3-1.5-3.6-1.5c-1.5 0-2.5.7-2.5 2.4 0 1.8 1.7 2.7 4.1 3.7 3.1 1.2 5.8 2.6 5.8 6.3 0 3.8-3.2 6.2-7 6.2"/><path d="m163.9 27c-.5-.6-1.3-.8-1.9-.8-.7 0-1.4.2-1.9.8-1 1.1-1.3 3.9-1.3 8.4s.4 7.2 1.3 8.4c.5.7 1.3.8 1.9.8s1.3-.2 1.9-.8c.9-1.1 1.3-4 1.3-8.4 0-4.5-.3-7.3-1.3-8.4m-1.9 17.9c-4.7 0-9.5-3.5-9.5-9.6s4.7-9.6 9.5-9.6c4.7 0 9.5 3.5 9.5 9.6s-4.8 9.6-9.5 9.6"/><path d="m182.6 44.9c-3 0-5.3-1-6.7-2.4-1.7-1.8-2.6-4.3-2.6-7.3 0-6.1 4.7-9.4 9.6-9.4 2.6 0 4.6.8 5.4 1.7.8.8 1.1 1.5 1.1 2.5 0 1.6-1.2 2.3-2.3 2.3-1.8 0-2.4-1.2-2.6-3-.3-2.2-.6-3-1.6-3-.7 0-1.5.3-2 1-.9 1.2-1.3 4.2-1.3 7.5 0 3.7.5 6.2 1.4 7.8.6 1.1 1.5 1.4 2.4 1.4 3.4 0 5-3 5.8-5.5l.5.2c-.9 3.3-3 6.2-7.1 6.2"/><path d="m190.4 44.5v-.2c.3 0 .7 0 1-.2.6-.3 1-.5 1.3-1.6.2-.6.2-2.1.2-3.2v-8.2c0-.8 0-2.4-.1-3.1-.1-.8-.4-1.1-.8-1.4s-.9-.3-1.3-.3v-.3h7.9c.2 0 .3.1.3.3v13c0 1.1 0 2.6.2 3.2.3 1.1.7 1.3 1.2 1.6.3.1.7.1 1 .2v.2z"/><path d="m210.2 34.8c-.8.5-1.2 1-1.6 1.8-.3.8-.5 2.2-.5 3.6 0 2.4.6 3.3 1.8 3.3.8 0 1.8-1.3 1.8-3.4v-6.6c-.4.6-.9.9-1.5 1.3m5.6 10.1c-1.5 0-2.5-.3-3.1-1-.4-.4-.7-1.1-.7-2h-.1c-.5 2.1-2.5 3-5 3-2.4 0-4.8-1.4-4.8-4.8 0-1.4.4-2.1 1.1-2.9 1.1-1.2 3.3-1.6 4.5-2 3.4-.9 4.1-2.2 4.1-3.7v-2.8c0-2-.5-2.4-2.1-2.4-1.1 0-1.5.3-1.6.7-.1.5 0 1.5 0 2.6 0 1.7-.8 2.5-2.5 2.5-1.5 0-2.5-.8-2.5-2.3 0-.7.3-1.3.7-1.9 1.1-1.4 3.7-2.3 6.2-2.3 4.7 0 7.6 1.5 7.6 5.3v9.2c0 1.9.1 2.7.5 3.1.2.3.5.5 1.1.5.4 0 .8-.1 1.2-.3v.2c-.4.6-2.3 1.3-4.6 1.3"/><path d="m233.7 41.8c-.5 1.3-2.4 3.1-5.2 3.1-1.9 0-3.4-.5-4.3-1.3-1.1-1-1.5-2.4-1.5-4 0-.8.1-10.6.2-12.7-.7-.1-1.8 0-2.4-.1v-.4c3.9-.8 6.5-3.4 7.7-7.7h.7v7.4h3.9v.9h-3.8l-.2 13.3c0 1.5.3 2.9 2.2 2.9 1.1 0 2.1-.5 2.6-1.5z"/><path d="m234.2 44.5v-.2c.3 0 .7 0 1-.2.6-.3 1-.5 1.3-1.6.2-.6.2-2.1.2-3.2v-8.2c0-.8 0-2.4-.1-3.1-.1-.8-.4-1.1-.8-1.4s-.9-.3-1.3-.3v-.3h7.9c.2 0 .3.1.3.3v13c0 1.1 0 2.6.2 3.2.3 1.1.7 1.3 1.2 1.6.3.1.7.1 1 .2v.2z"/><path d="m257.3 27c-.5-.6-1.3-.8-1.9-.8-.7 0-1.4.2-1.9.8-1 1.1-1.3 3.9-1.3 8.4s.4 7.2 1.3 8.4c.5.7 1.3.8 1.9.8s1.3-.2 1.9-.8c.9-1.1 1.3-4 1.3-8.4 0-4.5-.3-7.3-1.3-8.4m-1.9 17.9c-4.8 0-9.5-3.5-9.5-9.6s4.7-9.6 9.5-9.6c4.7 0 9.5 3.5 9.5 9.6s-4.8 9.6-9.5 9.6"/><path d="m277.8 44.6v-.3c.3 0 .6-.1.9-.2.7-.3 1-.8 1.1-1.8.1-.7.1-1.6.1-2.7v-9.2c0-1.4-.1-2.2-.5-2.7-.3-.4-.8-.6-1.6-.6-1 0-2.9 1.3-3.2 4.7-.1 1.1-.1 2.1-.1 3.4v4.4c0 1 0 2 .1 2.7.2 1.1.5 1.5 1.1 1.8.3.1.6.2 1 .2v.2h-10.5v-.2c.3 0 .7 0 1-.2.6-.3 1-.5 1.3-1.6.2-.7.2-2.4.2-3.6v-7.8c0-.8 0-2.4-.1-3.1-.1-.8-.4-1.1-.7-1.4-.4-.3-1-.3-1.3-.3v-.3h7.9c.2 0 .3.1.3.3 0 .4-.1 3.2-.1 3.8h.1c.5-1.6 1.3-2.6 2.1-3.2 1-.8 2.8-1.3 4-1.3 1.9 0 3.3.4 4.2 1.7.7 1 1.1 2.4 1.1 4.4v7.3c0 1.2 0 2.9.3 3.6.2 1.1.6 1.3 1.2 1.6.3.1.7.1 1 .2v.2z"/><path d="m14 25.5-13.5 23.5h6.5l11.2-19.3 12.6-22-3.2-5.6z"/><path d="m22.1 33.8-8.7 15.2h7l6.2-10.7 11-19.1-3.5-6.1z"/><path d="m31 43.3-3.3 5.7h7.3l6.4-11 6.3 11h7.3l-13.6-23.6z"/></g></svg>