<svg enable-background="new 0 0 179.985 165.576" viewBox="0 0 179.985 165.576" xmlns="http://www.w3.org/2000/svg"><path clip-rule="evenodd" d="m169.888 158.804c-5.218 3.856-12.18 5.944-20.488 6.578-4.193.32-8.664.078-13.105.151-4.404.072-8.852.04-13.106 0-17.708-.166-36.274-.001-53.881 0-8.472.001-17.559-.001-26.363 0-4.546.001-9 .143-13.206-.201-4.094-.335-7.884-1.086-11.249-2.26-3.189-1.113-6.434-2.575-8.838-4.72-1.234-1.102-2.441-2.092-3.514-3.264-3.092-3.376-5.574-8.283-6.026-14.211-.694-9.105 1.982-16.049 4.971-21.994.739-1.47 1.589-2.927 2.461-4.318.883-1.408 1.595-2.909 2.411-4.318 6.702-11.58 13.151-22.671 19.833-34.247 6.624-11.476 13.077-22.829 19.734-34.347.834-1.442 1.53-2.97 2.36-4.418 2.42-4.222 5.027-8.492 7.432-12.805 3.203-5.744 6.764-11.129 11.399-15.667 4.459-4.367 10.517-8.363 18.479-8.739 5.152-.244 9.578 1.37 12.956 3.314 1.798 1.035 3.378 2.084 4.87 3.264 4.432 3.502 8.123 8.182 11.048 13.257 4.475 7.765 8.845 15.413 13.407 23.149.496.841 1.089 1.733 1.456 2.611.757 1.807 1.864 3.543 2.862 5.222 4.068 6.84 7.901 13.785 11.801 20.639 5.842 10.266 11.985 20.526 17.826 30.882 1.952 3.461 3.995 6.851 5.926 10.294.949 1.693 2.008 3.378 2.963 5.172.242.457.372.96.603 1.456.602 1.296 1.286 2.679 1.907 4.118.815 1.886 1.513 3.887 2.109 6.026 1.145 4.096 1.412 10.08.553 14.663-.406 2.167-1.184 4.173-2.109 5.976-1.83 3.567-4.208 6.484-7.482 8.737zm-106.155-54.885h.101c5.211-8.723 10.084-17.637 15.266-26.363 2.59-4.361 5.08-8.789 7.582-13.206 2.513-4.436 5.101-8.828 7.482-13.358 1.129-1.951 2.242-3.918 3.364-5.875 1.657-2.846 3.265-5.776 5.021-8.838 1.649-2.875 3.175-6.52 2.26-11.047-.75-3.71-2.716-6.528-5.122-8.738-2.637-2.42-7.497-4.288-12.554-3.264-4.433.898-7.624 3.449-9.741 6.779-2.396 3.767-4.563 7.906-6.93 11.9-2.35 3.966-4.599 7.977-6.88 11.951-4.022 7.011-8.054 14.034-12.052 20.94-.585 1.011-1.05 2.082-1.607 3.113-2.19 4.058-4.662 7.969-6.88 11.951-1.11 1.994-2.306 3.961-3.465 5.925-3.226 5.47-6.307 11.076-9.44 16.521-.275.479-.763.929-.703 1.557 2.697.2 5.958.101 8.737.05 3.394-5.459 6.516-11.213 9.792-16.722.828-1.391 1.746-2.802 2.461-4.168.268-.511.423-1.052.703-1.557 2.086-3.758 4.381-7.423 6.527-11.148 2.167-3.759 4.346-7.495 6.477-11.248 4.191-7.374 8.775-14.872 13.006-22.396 2.002-3.559 4.352-7.517 6.528-11.198 1.168-1.975 2.203-3.508 4.721-4.118 2.562-.62 5.049.15 6.578 1.908 1.403 1.519 2.254 3.456 1.958 5.725-.282 2.163-1.641 3.806-2.511 5.323-.928 1.619-2.09 3.227-2.812 4.971-.366.884-.928 1.67-1.406 2.511-11.373 19.967-22.914 39.654-34.294 59.508-.472.822-1.115 1.654-1.256 2.561 2.815.198 6.191.102 9.089.05zm51.269-58.199c-.728 1.311-1.396 2.381-2.209 3.716-.307.502-1.066 1.39-1.055 1.958.012.536.962 1.816 1.355 2.511 1.43 2.523 2.919 5.042 4.269 7.432 4.711 8.34 9.436 16.588 14.211 24.756.97 1.658 1.816 3.404 2.762 5.072 1.875 3.308 3.856 6.549 5.725 9.842 5.65 9.958 11.468 19.956 17.123 29.727.784 1.419 1.119 3.476.703 5.222-.727 3.058-3.293 5.576-7.08 5.373-1.865-.1-3.236-.875-4.419-1.858-2.088-2.855-3.73-6.011-5.474-9.089-.871-1.537-1.804-3.043-2.711-4.57-2.738-4.602-5.289-9.26-7.935-13.91-1.753-3.081-3.572-6.149-5.323-9.239-6.564-11.592-13.398-23.111-19.935-34.648-.426-.751-.727-1.669-1.456-2.209-1.313 1.446-2.605 3.869-3.666 5.775-.36.647-.924 1.459-1.055 2.109-.061.298.616 1.31.904 1.808.998 1.724 1.998 3.391 2.912 4.971 3.882 6.717 7.642 13.44 11.55 19.936 2.633 4.376 5.04 8.939 7.683 13.307 3.349 5.533 6.356 11.178 9.591 16.621.647 1.089 1.442 2.182 1.959 3.314 1.062 2.329 2.508 4.485 3.816 6.678.669 1.121 1.259 2.2 2.009 3.214 2.129 2.878 5.469 5.332 9.943 5.825 3.451.38 6.301-.398 8.686-1.606 2.339-1.185 4.279-2.863 5.624-4.871 1.355-2.024 2.536-4.68 2.662-7.833.134-3.383-.751-5.92-2.159-8.336-9.967-17.509-20.273-34.986-30.18-52.475-.483-.853-.856-1.771-1.356-2.611-4.934-8.294-9.429-16.792-14.362-25.057-.222-.43-.483-.938-.803-1.506-.235-.418-.679-1.314-1.055-1.356-.549.486-.832 1.247-1.254 2.007zm-26.111 45.445c-2.098 3.585-4.181 7.192-6.177 10.746-.345.613-.854 1.174-.954 1.908 1.252.229 2.633.217 4.018.15 3.512-.167 7.2 0 10.646 0 .666 0 1.398.121 2.009-.15-.413-1.081-.998-2.08-1.557-3.063-.559-.981-1.172-1.926-1.708-2.913-1.069-1.97-2.43-3.786-3.264-5.976-.261-.357-.494-.824-.804-1.356-.227-.389-.606-1.236-1.004-1.255-.532.498-.806 1.227-1.205 1.909zm22.044 33.996c-1.15-1.967-2.206-4.035-3.515-5.825-1.188-.086-2.451-.05-3.767-.05-3.716 0-7.415 0-10.997 0-15.256 0-31.858 0-47.805 0-5.512 0-11.361-.16-16.621.05-3.896.155-6.776 1.577-9.039 3.465-3.004 2.507-5.311 6.006-5.473 11.198-.172 5.483 2.316 8.931 5.071 11.6 2.479 2.128 5.603 3.767 9.993 3.866 4.314.098 9.196-.205 13.608 0 2.178.102 4.477-.05 6.779-.05 6.78 0 13.806.051 20.437.05 8.946 0 18.202-.05 27.418-.05 9.286 0 18.555.137 27.518-.1-.034-.784-.597-1.376-.954-2.009-.748-1.324-1.496-2.464-2.31-3.816-.366-.608-.701-1.626-1.306-1.808-.731-.22-2.069-.059-3.062-.101-1.052-.044-2.166.026-3.114 0-6.069-.169-12.786-.15-18.78-.151-20.589-.001-41.496-.05-62.92-.05-2.206 0-4.39.121-5.875-.503-2.81-1.18-4.946-4.442-4.017-8.285.791-3.27 3.437-5.272 7.481-5.272 27.749 0 54.439.09 82.202-.101-.05-.768-.58-1.423-.952-2.058z" fill-rule="evenodd"/></svg>