<svg enable-background="new 0 0 63.951 69.537" viewBox="0 0 63.951 69.537" xmlns="http://www.w3.org/2000/svg"><path clip-rule="evenodd" d="m63.697 67.642c-.538.682-1.592.809-2.573.989-2.905.535-6.822.73-9.351-.495-1.524-.738-3.028-1.846-3.761-3.365-.341-.705-.759-1.495-1.089-2.474-.251-.745-.318-2.405-.989-2.523-.669-.119-1.054.608-1.386.94-.455.455-.833.84-1.188 1.089-3.078 2.943-6.843 5.145-11.332 6.532-4.62 1.427-10.742 1.595-15.884.445-9.209-2.06-16.496-7.876-16.131-19.496.18-5.72 2.486-9.528 5.492-12.321 1.541-1.431 3.428-2.596 5.443-3.464 2.065-.89 4.404-1.437 6.779-2.128 1.162-.338 2.386-.536 3.612-.841 3.573-.888 7.386-1.378 11.233-2.128 1.172-.229 2.433-.522 3.711-.743 3.612-.623 7.766-1.767 8.857-4.799.712-1.978.633-4.56.197-6.729-1.24-6.182-7.897-7.521-15.24-7.521-4.947-.001-9.241.999-11.974 3.216-2.198 1.783-3.278 4.207-3.712 7.669-.124.992-.001 2.176-.644 3.118-.087.045-.152.111-.197.198-2.139.374-4.816.148-7.373.148-1.123 0-2.121.112-2.574-.445-.643-.795-.156-3.036 0-3.958 1.037-6.083 3.237-10.535 7.326-13.509 1.387-1.009 2.914-1.788 4.602-2.573 3.42-1.591 7.894-2.225 12.124-2.425 3.504-.165 6.749.113 9.895.445 4.824.51 8.81 1.514 11.777 3.86.972.769 1.994 1.538 2.771 2.424 1.678 1.915 2.803 4.216 3.315 7.076.552 3.075.396 6.339.644 9.698.123 1.679.04 3.397.099 5.097.059 1.699-.033 3.41 0 5.097.098 4.955.197 10.163.198 15.34 0 4.912-.323 10.036 4.107 10.49.722.074 2.461-.292 3.018.247.661.638.405 2.464.397 3.712-.011 1.332.182 3.165-.199 4.107z" fill-rule="evenodd"/></svg>