<svg enable-background="new 0 0 74.679 55.627" viewBox="0 0 74.679 55.627" xmlns="http://www.w3.org/2000/svg"><g clip-rule="evenodd" fill-rule="evenodd"><path d="m58.529 12.286c1.594.061 3.436-.125 4.869.099-.006.683-.656 1.418-.738 2.311-.078.863.168 1.583.688 2.065.281.18.588.331 1.084.295 2.391-.555 3.402-3.758 2.311-6.147-.688-1.506-2.309-2.732-3.984-3.197-3.125-.867-6.078.865-7.623 2.115-1.916 1.55-3.246 3.736-3.885 6.148-.799 3.009-.584 6.258.295 8.902 1.256 3.782 4.143 6.336 8.656 6.788 1.428.143 2.969-.11 4.426-.492 2.723-.712 4.787-1.933 6.689-3.541.818-.619 1.527-1.401 2.262-2.164.205-.212.432-.618.787-.541.285 2.248.146 5.304.1 7.574-.783 1.124-1.936 1.941-3 2.754-1.09.833-2.131 1.732-3.346 2.41-1.195.667-2.582 1.231-4.033 1.721-1.436.486-3.184.836-4.869.836-3.67 0-6.555-.873-9.049-2.459-4.797-3.05-7.416-9.215-7.23-16.968.072-3.027.533-5.861 1.377-8.214.293-.814.51-1.651.836-2.361 2.594-5.621 7.721-9.676 15.443-10.181 6.023-.394 10.252 2.234 12.297 6 1.141 2.099 1.812 4.841 1.525 7.476-.291 2.647-1.238 4.636-2.51 6.542-1.189 1.782-2.861 3.174-5.164 3.935-3.269 1.081-7.185.186-8.853-2.066-.725-.978-1.332-2.646-1.377-4.279-.068-2.414.725-4.105 2.016-5.361z"/><path d="m74.514 39.091c.229 1.003.146 2.28.146 3.639 0 .594.018 1.285 0 1.918-.016.622.078 1.277-.049 1.771-.164.632-1.244 1.585-1.77 2.066-.736.67-1.426 1.191-2.066 1.721-1.43 1.185-2.729 2.253-4.477 3.148-3.373 1.727-8.004 2.667-12.836 2.115-4.658-.532-7.945-2.092-10.82-4.426-2.479-2.013-4.445-4.402-6.1-7.23-.219-.374-.322-.88-.736-1.131-.57.574-.762 1.343-1.082 2.017-.959 2.011-2.377 3.741-3.984 5.213-.576.526-.99 1.086-1.574 1.525-2.701 2.032-6.371 3.886-11.115 3.885-1.894 0-3.781-.012-5.361-.443-3.053-.832-5.59-2.345-7.428-4.181-2.748-2.748-5.262-6.656-5.262-12.149 0-5.601 1.766-9.69 4.869-12.542 2.037-1.871 4.408-3.528 7.428-4.181 3.545-.767 7.311-.161 9.687 1.131 2.322 1.261 4.246 3.692 4.477 7.131.273 4.089-1.418 6.83-3.541 8.509-1.021.808-2.459 1.589-4.182 1.82-1.707.229-3.717.06-4.869-1.033-.002-1.763-.281-3.943.051-5.558.605-.132 1.162.054 1.721.049 1.769-.016 3.664-1.18 2.951-3.099-.328-.884-.998-1.295-1.723-1.476-2.492-.623-5.049.92-6.098 2.115-1.346 1.534-2.111 3.929-2.066 6.443.07 3.801 2.586 6.616 5.361 7.87 3.436 1.551 7.969.675 10.574-.984 2.033-1.295 3.58-3.053 4.723-5.213.199-.379.402-.708.541-1.131.127-.387.226-.795.392-1.229 1.219-3.184 1.756-7.339 1.082-11.46-.615-3.766-1.805-6.969-4.033-9.197-2.145-2.144-5.246-3.592-9.443-3.787-4.311-.201-7.656 1.239-10.475 2.754-2.58 1.386-4.594 3.043-6.346 5.263-.189.241-.387.742-.836.688-.094-3.063-.182-6.097 0-9.197.35-.678.998-1.215 1.574-1.721 1.713-1.504 3.658-2.837 5.851-3.935 3.035-1.519 6.15-2.857 10.231-3.05 4.539-.214 7.984.881 11.066 2.41 2.734 1.356 5.404 3.957 6.838 6.64 1.596 2.989 2.467 6.712 2.754 10.722.295 4.123.496 8.191 1.574 11.854.988 3.363 2.891 6.138 5.41 8.066 2.578 1.974 5.848 3.511 9.885 3.59 2.326.046 4.34-.026 6.197-.442 2.707-.607 5.074-1.638 7.182-2.951 1.307-.816 2.576-1.872 3.787-2.902.291-.248.635-.463.934-.738.275-.248.505-.732.986-.687z"/></g></svg>