<svg enable-background="new 0 0 76.883 77.31" viewBox="0 0 76.883 77.31" xmlns="http://www.w3.org/2000/svg"><g clip-rule="evenodd" fill-rule="evenodd"><path d="m43.208.207c-.6.473-1.519.469-2.319.67-3.158.793-5.431 3.068-5.977 6.596-.416 2.68-.068 6.082-.052 9.119.016 2.932.22 6.289-.309 8.863-.5 2.436-1.708 4.709-3.04 6.338-1.471 1.799-3.132 2.894-5.307 4.123-1.084.611-2.247.83-3.556 1.133-1.322.307-2.757.234-4.38.309-3.001.141-6.018-.197-9.069-.102-2.265.07-4.576.029-6.904-.053-.688-.023-1.43.141-2.113-.102-.297-1.445-.102-2.975-.102-4.484.001-9.904-.001-19.963 0-30.299 0-.772-.095-1.932.154-2.215.037-.048.093-.078.153-.103 14.28.037 28.641 0 42.821.207z"/><path d="m76.701.309c.273.699.154 1.475.154 2.217 0 5.348.001 10.9 0 16.334 0 5.459.001 10.809 0 16.283 0 .693.062 1.449-.206 2.113-5.9.383-11.494.1-17.158.258-2.913.08-5.553-.17-7.729-1.135-5.123-2.268-8.624-6.074-9.636-12.521-.202-1.285-.188-2.688-.258-4.174-.134-2.875-.155-5.582-.154-8.707 0-3.719-.053-7.307 1.854-9.172.78-.764 2.342-1.496 3.556-1.65 1.208-.152 2.542 0 3.813 0 8.847-.001 17.196.042 25.764.154zm-32.205 4.843c-.804 4.562 4.611 6.894 7.574 4.484.364-.297.9-1.016 1.134-1.494.344-.707.622-1.639.516-2.68-.298-2.914-3.146-4.998-6.493-3.814-1.345.811-2.435 1.825-2.731 3.504z"/><path d="m34.292 31.381c1.491-.269 2.678.479 3.195 1.443 1.355 2.527-1.74 5.406-4.174 3.863-.519-.328-1.017-.975-1.236-1.648-.589-1.805.75-3.297 2.112-3.658z"/><path d="m44.238 45.189c-.601.344-1.588.207-2.524.207-.922 0-1.926.107-2.577-.154-.216-.896-.194-2.316-.206-3.453-.021-2.182-.057-4.701.052-7.162.051-1.141-.38-3.107.516-3.297.371-.078.933 0 1.288.051 1.464.207 2.75.992 3.246 2.164.478 1.129.31 2.98.31 4.793-.002 2.547.119 4.773-.105 6.851z"/><path d="m37.385 38.234c.2.385.091.859.103 1.34.043 1.84.208 4.145-.154 5.719-1.771.416-3.645-.166-4.483-1.133-1.105-1.275-1.126-3.729.155-4.998.76-.756 2.954-1.418 4.379-.928z"/><path d="m.13 76.881c-.3-11.27.021-23.658-.052-34.938-.005-.676-.246-1.435.154-2.06 3.994-.123 9.008-.045 13.037.053 2.798.066 5.902-.252 8.45.154 5.94.945 10.148 4.74 12.058 9.789 1.606 4.248 1.106 10.322 1.288 16.129.085 2.689.119 5.863-.67 7.832-.615 1.535-2.116 2.955-4.019 3.246-1.158.178-2.474 0-3.762 0-7.735 0-15.121-.053-22.827-.051-1.223 0-2.471.123-3.657-.154zm26.434-9.842c-1.902.58-3.291 2.533-3.195 4.791.081 1.898 1.377 3.518 2.938 4.123 2.922 1.133 5.975-1.188 6.235-4.02.155-1.695-.705-3.096-1.443-3.812-.808-.787-2.169-1.342-3.762-1.186-.264.026-.429-.001-.773.104z"/><path d="m76.701 40.037c.277 1.473.155 3.02.154 4.535-.001 10.619-.021 21.973-.154 32.566-3.371.248-6.914.152-10.46.154-10.469.002-21.269-.135-31.793-.258.401-.406.982-.422 1.442-.566 3.479-1.107 5.825-3.209 6.133-7.627.174-2.518.089-5.092.051-7.627-.039-2.551-.238-5.152 0-7.574.511-5.184 3.38-8.961 7.06-11.232 1.303-.805 2.757-1.596 4.122-1.959 1.516-.4 3.152-.332 4.946-.412 3.489-.152 7.001-.07 10.563-.051 2.723.014 5.385-.269 7.936.051z"/></g></svg>