<svg enable-background="new 0 0 79.458 77.332" viewBox="0 0 79.458 77.332" xmlns="http://www.w3.org/2000/svg"><g clip-rule="evenodd" fill-rule="evenodd"><path d="m75.941 23.274c-3.872.23-8.172.034-12.234.1-1.014.911-1.748 2.032-2.626 3.22-.375.508-.744 1.062-1.238 1.684-.309.389-.93 1.521-1.387 1.536-.459.016-1.208-1.235-1.437-1.536-.958-1.259-1.596-2.066-2.526-3.368-.393-.551-.847-1.408-1.486-1.535-.915-.182-1.994-.05-3.021-.05-6.786-.001-14.453.001-21.052 0-2.293 0-3.853.092-5.251.842-1.267.68-2.332 1.643-3.021 3.071-.673 1.395-.694 3.328-.694 5.399 0 4.228.111 7.718-.049 11.987-.16 4.259 1.097 7.042 3.665 8.521 1.366.786 2.947.792 5.3.792 8.222.001 15.853.07 24.322.05 1.036-.877 1.681-2.002 2.576-3.17.357-.468.805-1.058 1.238-1.635.223-.297.902-1.519 1.338-1.536.419-.016 1.185 1.2 1.387 1.486 1.193 1.692 2.389 3.419 3.765 4.854 3.874.162 8.538-.102 12.483.148-.106.879-.592 1.658-.99 2.378-2.812 5.073-6.326 9.171-10.849 12.631-5.008 3.832-11.292 6.82-18.972 7.827-13.044 1.708-23.701-2.881-30.86-8.57-2.567-2.039-4.545-4.188-6.539-6.835-3.905-5.183-6.758-11.138-7.579-19.22-.873-8.587 1.164-16.213 4.409-21.993 1.61-2.868 3.469-5.576 5.598-7.827 4.275-4.521 9.744-8.231 16.395-10.402 1.694-.553 3.419-1.098 5.251-1.436 1.912-.354 4.044-.54 6.241-.644 5.024-.237 9.683.526 13.474 1.833 1.978.682 3.87 1.269 5.597 2.08 1.711.803 3.326 1.784 4.854 2.773 5.332 3.455 9.761 8.199 12.83 13.92.436.817.99 1.651 1.088 2.625z"/><path d="m76.09 23.819c.293-.041.709.982.892 1.436 1.486 3.704 2.477 8.51 2.477 13.424 0 5.042-.998 9.716-2.477 13.474-.2.508-.404 1.084-.793 1.437-.68-.385-1.023-1.158-1.486-1.783-2.767-3.74-5.516-7.397-8.371-11.244-.375-.505-1.324-1.399-1.337-1.932-.012-.463 1.018-1.568 1.287-1.933 1.39-1.87 2.784-3.652 4.211-5.398 1.85-2.509 3.706-5.012 5.597-7.481z"/><path d="m32.153 28.277c.379-.04 1.051.075 1.437.397.894.746.842 2.622.842 4.359 0 3.831-.049 6.548-.049 10.352 0 2.499.358 5.754-1.833 5.994-.891.097-1.641-.419-1.982-.991-.493-.83-.347-3.011-.347-4.606 0-4.087-.031-8.448.049-12.235.036-1.689.318-3.102 1.883-3.27z"/><path d="m44.437 48.686c.058-6.302.137-13.601-.049-19.714-.014-.081.047-.086.049-.149.058-.008.088.012.1.05.801.815 1.512 1.891 2.328 2.923 1.393 1.763 2.521 3.383 3.863 5.25.332.462 1.118 1.218 1.14 1.685.022.488-.549.976-.842 1.337-.359.444-.648.83-.941 1.239-.886 1.285-1.791 2.569-2.725 3.813-.461.614-.997 1.204-1.437 1.833-.429.614-.795 1.36-1.486 1.733z"/></g></svg>