<svg enable-background="new 0 0 70.764 75.317" viewBox="0 0 70.764 75.317" xmlns="http://www.w3.org/2000/svg"><g clip-rule="evenodd" fill-rule="evenodd"><path d="m46.179.135c-.112.761-.553 1.462-.94 2.128-.382.656-.733 1.338-1.088 2.028-.707 1.375-1.634 2.68-2.178 4.058-.916 2.32.587 4.186 1.484 5.79 1.371 2.447 2.988 5.067 4.354 7.522.946 1.699 1.972 3.336 2.92 4.997 2.861 5.017 5.922 10.058 8.758 15.043 1.921 3.376 3.7 6.797 5.69 10.144.939 1.579 1.954 3.311 2.97 4.998 1.065 1.771 2.02 3.202 2.424 5.493.887 5.021-1.447 8.851-4.453 10.985-1.165.827-2.61 1.515-4.206 1.781-.563.094-1.194.015-1.93.049-2.442.115-5.174.05-7.868.05-10.485-.002-20.835.049-31.569.049-5.156 0-11.283.512-14.548-1.287-1.675-.922-3.121-2.178-4.255-3.711-1.141-1.542-1.848-3.633-1.732-6.186.112-2.457 1.019-4.232 2.029-5.888 2.017-3.304 3.854-6.686 5.839-10.045 3.924-6.645 7.602-13.356 11.529-20.139.963-1.663 1.836-3.467 2.771-5.146 1.349-2.425 2.815-5.062 4.205-7.67.379-.71 1.045-2.375 1.584-2.375.492 0 .842.944 1.088 1.385.912 1.635 1.799 3.103 2.623 4.75 6.516 10.717 12.322 21.977 18.803 32.807 1.88 3.141 3.636 6.323 5.493 9.55.246.429.674.843.642 1.385-3.287.234-7.585.21-11.083.049-.59-.433-.842-1.143-1.188-1.732-3.93-6.691-7.736-13.324-11.678-20.188-.915-1.594-2.084-3.601-3.167-5.542-.272-.49-.863-1.579-1.286-1.583-.546-.006-1.03 1.215-1.286 1.633-1.101 1.792-2.188 3.795-3.167 5.592-.686 1.258-1.473 2.469-2.078 3.76-1.842 3.929-4.181 7.457-6.334 11.183-.972 1.681-2.056 3.715-3.167 5.592-.34.574-.923 1.378-.791 2.078.148.794 1.207.885 2.177.891 10.759.058 22.666-.159 33.252-.05 2.961.031 5.968-.049 9.055-.049 1.454 0 3.494.272 3.662-1.039.069-.542-.508-1.492-.891-2.128-4.168-6.927-8.107-13.984-12.222-20.881-1.427-2.391-3.017-5.249-4.355-7.67-1.422-2.573-2.969-5.086-4.403-7.669-1.415-2.55-3.023-4.997-4.453-7.571-1.329-2.391-3.113-5.18-2.326-9.303.497-2.602 1.726-4.183 2.82-6.235.312-.583.725-1.711 1.436-1.781.839-.082 1.807 0 2.721 0 2.719-.001 5.677-.082 8.313.098z"/><path d="m27.178 44.917c2.148-.184 4.01.366 5.344 1.089 2.493 1.35 4.626 4.056 4.701 7.966.061 3.169-1.351 5.724-3.117 7.274-1.919 1.683-4.919 2.754-7.918 2.177-2.667-.513-4.585-1.99-5.839-3.909-1.581-2.422-2.104-6.51-.544-9.6 1.275-2.522 3.775-4.689 7.373-4.997z"/></g></svg>