<svg enable-background="new 0 0 33.889 34.231" viewBox="0 0 33.889 34.231" xmlns="http://www.w3.org/2000/svg"><path d="m16.852.001c5.903-.057 11.803 3.214 14.639 8.43 2.844 4.509 3.107 10.405 1.067 15.281-1.044 2.193-2.287 4.373-4.17 5.956-2.884 2.719-6.758 4.354-10.716 4.534-4.626.284-9.271-1.561-12.568-4.792-3.147-3.002-4.982-7.313-5.084-11.654-.287-5.676 2.591-11.323 7.197-14.606 2.781-2.023 6.201-3.117 9.635-3.149zm-.842 1.261c-4.919.26-9.567 3.059-12.213 7.194-2.993 4.437-3.427 10.391-1.231 15.258 1.777 4.081 5.409 7.251 9.643 8.581 4.701 1.499 10.079.575 14.013-2.402 2.929-2.009 4.891-5.183 5.858-8.562 1.708-5.658-.264-12.163-4.646-16.08-3.081-2.772-7.283-4.262-11.424-3.989z"/><path d="m10.809 8.046c-.03-.58.435-1.161 1.035-1.162 2.27-.009 4.541-.013 6.812-.011 2.334.027 4.497 1.718 5.187 3.931.581 1.632.23 3.501-.713 4.927-.317-.199-.63-.407-.966-.573.729-1.204 1.085-2.723.563-4.076-.613-1.778-2.389-3.085-4.282-3.064-2.165.03-4.337-.048-6.498.055.002 2.302-.004 4.604-.008 6.906 2.474.006 4.948-.015 7.421-.006 2.356.044 4.602 1.596 5.468 3.789 1.121 2.614.101 5.916-2.289 7.451-.98.644-2.144 1.018-3.32 1.012-2.204.015-4.408-.006-6.611.024-.723.111-1.781-.07-1.82-.983-.069-2.671.048-5.345.007-8.018-.067-.624.492-1.171 1.107-1.149 1.97-.003 3.94-.011 5.91-.011 1.025.056 2.094-.105 2.967-.677-.698-.259-1.458-.304-2.194-.262-2.203.001-4.408.015-6.612.013-.592.014-1.19-.452-1.168-1.074-.01-2.347.009-4.695.004-7.042zm6.58 10.221c-1.817.008-3.635.001-5.452.011-.001 2.604-.006 5.208-.008 7.813 2.5-.015 5.001.008 7.501-.026 2.465-.082 4.603-2.272 4.692-4.721.12-1.69-.751-3.396-2.147-4.34-1.271 1.064-2.975 1.344-4.586 1.263z"/></svg>