<svg enable-background="new 0 0 79.126 81.966" viewBox="0 0 79.126 81.966" xmlns="http://www.w3.org/2000/svg"><path clip-rule="evenodd" d="m20.469.139c6.571-.312 13.516.001 20.192 0 6.744-.001 13.491-.135 20.142.051 1.465.04 2.93.383 4.24.808 6.248 2.022 10.665 6.39 12.872 12.367.472 1.277.744 2.631.96 4.089.217 1.464.079 2.987.151 4.694.142 3.374.05 6.744.05 10.046 0 6.715.05 13.102.05 19.839 0 3.356-.166 6.747-.101 9.994.017.851.093 1.576 0 2.322-.614 4.915-3.055 9.011-5.855 11.812-3.444 3.443-7.878 5.805-14.337 5.805-10.371 0-19.966-.05-30.237-.05-3.323 0-6.685.134-9.945-.051-6.216-.353-10.341-3.19-13.478-6.714-3.299-3.707-5.098-8.231-5.098-15.094 0-6.561-.17-13.781 0-19.889.094-3.371-.116-6.75-.051-10.046.067-3.386 0-6.788 0-9.994 0-3.513.41-6.225 1.515-8.582 2.064-4.403 5.65-8.015 10.197-9.995 1.219-.53 2.515-.911 3.887-1.161 1.516-.275 3.04-.165 4.846-.251zm23.019 40.131c3.626.087 7.371.001 10.954 0 4.965 0 9.662.071 12.822-1.816 4.893-2.365 8.534-6.185 10.398-11.51.485-1.386.839-2.898 1.01-4.442.573-5.201-1.18-9.78-3.23-12.974-2.754-4.289-7.194-7.471-13.478-8.43-1.572-.24-3.385-.202-5.148-.202-4.476 0-9.067.16-13.68.051-.891-.021-1.982-.215-2.726-.051-.708.156-.504 1.054-.504 2.221v27.209c0 3.3-.114 6.77.151 9.743 1.073.238 2.237.172 3.431.201zm0 40.788c3.64.102 7.361 0 10.954 0 2.499-.001 4.879.11 7.067-.102 2.144-.207 4.027-.798 5.755-1.564 4.989-2.212 8.398-6.298 10.398-11.459.644-1.661 1.149-4.057 1.161-6.158.026-4.581-1.336-8.45-3.18-11.409-1.83-2.935-4.498-5.384-7.623-6.966-1.611-.816-3.437-1.479-5.502-1.767-4.16-.578-9.765-.252-14.336-.253-2.674 0-5.706-.092-8.077.152-.266.72-.229 1.548-.202 2.321.084 2.452.076 4.893.05 7.37-.086 8.197.079 16.92 0 24.937-.016 1.592-.162 3.188.101 4.694 1.104.247 2.275.171 3.434.204z" fill-rule="evenodd"/></svg>