<svg enable-background="new 0 0 80.693 65.161" viewBox="0 0 80.693 65.161" xmlns="http://www.w3.org/2000/svg"><g clip-rule="evenodd" fill-rule="evenodd"><path d="m16.121 16.568c-.126.185-.134.643-.05.886.292.375.841.269 1.23.295 3.316.224 5.311 1.618 6.741 3.74 1.501 2.226 1.629 6.928.197 9.448-1.355 2.386-3.675 4.203-7.185 4.429-1.705.109-3.807-.013-5.609 0-1.872.013-3.793 0-5.708 0-1.913 0-3.841.118-5.659-.148-.156-10.462-.016-22.229 0-33.215.002-.643-.274-1.388.199-1.92 1.903-.068 4.404-.075 6.495-.049 2.014.026 4.099-.088 6.003 0 2.12.099 4.308-.053 5.954.345 3.207.774 5.328 3.2 6.101 6.446.905 3.795-1.124 7.275-3.592 8.612-1.07.58-2.252.881-3.74.984-.435.03-.926-.131-1.377.147z"/><path d="m61.146 30.74c-.305.366-.262 1.533-.049 1.969 2.361.299 4.531-.083 6.495.147 1.906.224 3.546.757 5.02 1.575 2.831 1.571 5.165 3.753 6.544 6.692 1.424 3.033 1.992 7.004 1.132 11.219-.734 3.605-2.484 6.461-4.772 8.464-2.209 2.137-5.022 3.92-9.005 4.232-4.115.322-8.74-.103-13.09.049-4.253.149-8.755-.099-13.139-.099-2.229 0-4.455 0-6.643 0-2.203 0-4.369.113-6.446-.147-.197-13.552-.05-27.331-.049-40.449 0-6.669-.001-13.036 0-20.175 0-1.215-.268-3.294.148-3.986.004-.007.042.006.049 0 .036-.046.09-.074.148-.098 8.306.086 16.869.002 25.145.098 2.182.025 4.326-.091 6.397 0 2.108.093 4.141-.079 6.101.049 3.875.254 6.77 1.565 9.153 3.592 2.228 1.894 4.187 4.531 4.97 7.824 1.361 5.72-.169 11.614-3.395 14.664-2.147 2.029-4.818 3.787-8.513 4.232-1.863.225-3.91-.007-6.201.148zm-2.313-15.304c-4.983 0-9.988-.062-15.058-.049-.058.024-.111.052-.147.099-.303.127-.197 1.253-.197 1.968 0 10.871-.099 21.349.099 31.837 3.107.217 6.491.148 9.939.148 2.581 0 5.214.049 7.775.049.835 0 1.683.113 2.46-.148.148-.333.186-1.263-.049-1.525-2.792-.177-5.68.034-7.923-.591-2.286-.637-4.09-1.608-5.609-2.903-3.002-2.559-5.069-6.38-5.068-11.957 0-5.626 2.062-9.38 5.118-11.958 2.275-1.971 5.355-3.154 9.496-3.297 1.334-.046 2.764.051 4.085-.197.144-.356.123-.967 0-1.329-1.578-.266-3.267-.147-4.921-.147z"/></g></svg>