<svg enable-background="new 0 0 33.467 38.897" viewBox="0 0 33.467 38.897" xmlns="http://www.w3.org/2000/svg"><path d="m11.8 1.997c2.137-1.238 4.582-2.009 7.066-1.993 4.432.007 8.864.005 13.296.008.489-.031 1.301-.054 1.305.631-.005 9.778-.005 19.556-.015 29.334.036.429.012 1.059-.533 1.134-1.123.04-2.25.009-3.374.012.019-8.899 0-17.799.008-26.696.055-.331-.229-.645-.561-.634-3.311-.006-6.623-.007-9.934-.01-.922.008-1.865-.051-2.762.203-1.409.417-2.636 1.286-3.725 2.248 3.676.019 7.352.003 11.028.019.332-.014.621.256.633.588.02 10.455.004 20.913 0 31.369.017.354-.258.709-.633.685-4.021.014-8.042-.015-12.063-.006-1.959.015-3.933-.28-5.77-.967-2.118-.836-3.984-2.411-4.982-4.477-.679-1.386-.898-2.965-.724-4.492.156-2.102 1.112-4.226 2.889-5.437 1.179-.889 2.571-1.437 3.977-1.85.001-.023.004-.067.005-.09-2.39-1.066-3.977-3.534-4.116-6.128-.153-2.17.207-4.476 1.49-6.283 2.044-2.805 4.576-5.276 7.495-7.168z"/></svg>