<?xml version="1.0" encoding="utf-8"?>
<svg width="130px" height="65px" viewBox="0 0 130 65" version="1.1" xmlns:xlink="http://www.w3.org/1999/xlink" xmlns="http://www.w3.org/2000/svg">
  <path d="M0.084259 0.389102C0.00796509 0.588799 -0.0221252 15.2081 0.0174255 32.8762L0.0889893 65L49.2407 65C96.1906 65 98.4986 64.9766 100.76 64.4808C114.153 61.5435 123.545 52.2506 126.562 38.9499C127.199 36.1389 127.199 29.0572 126.562 26.2461C123.982 14.8743 116.434 6.05875 106.014 2.24978C100.994 0.414134 99.9325 0.283415 88.8568 0.135173L78.7638 0L78.6923 17.4334L78.6204 34.8667L70.4155 17.601C65.903 8.10466 62.1436 0.336814 62.0611 0.338761C61.979 0.340708 58.4075 7.72502 54.1244 16.7483C49.8414 25.7717 46.2699 33.1454 46.1878 33.1346C46.1056 33.1234 45.4623 32.3282 44.7586 31.3676L43.4787 29.6204L44.124 28.3975C44.4787 27.7249 45.105 26.1733 45.5155 24.9495C46.1479 23.0638 46.2635 22.2369 46.2733 19.526C46.2811 17.2893 46.1354 15.7851 45.789 14.5244C44.3406 9.25695 40.5619 4.62472 35.8233 2.30763C31.4809 0.184676 31.9474 0.233909 15.1938 0.124325C3.06317 0.0447807 0.196503 0.094842 0.084259 0.389102L0.084259 0.389102ZM126.209 3.1003C125.374 3.45268 124.43 4.74181 124.43 5.53197C124.43 7.03804 125.753 8.40088 127.215 8.40088C128.691 8.40088 130 7.03693 130 5.4986C130 3.94053 127.687 2.47757 126.209 3.1003L126.209 3.1003ZM128.552 3.9586C129.854 5.17013 129.549 7.13232 127.972 7.68608C126.374 8.24762 124.692 6.83334 125.087 5.26024C125.338 4.2612 126.327 3.39456 127.215 3.39456C127.617 3.39456 128.218 3.64822 128.552 3.9586L128.552 3.9586ZM126.247 4.32852C125.644 4.76935 125.553 6.21172 126.089 6.85643C126.549 7.40962 127.878 7.41435 128.335 6.86449C128.811 6.29071 128.511 6.05792 127.836 6.47873C127.018 6.98881 126.38 6.61223 126.38 5.61958C126.38 4.62695 127.018 4.25035 127.836 4.76045C128.511 5.18126 128.811 4.94846 128.335 4.37469C127.898 3.8493 126.933 3.82788 126.247 4.32852L126.247 4.32852Z" id="bad" fill="#000000" fill-rule="evenodd" stroke="none" />
</svg>