<svg enable-background="new 0 0 60.796 78.355" viewBox="0 0 60.796 78.355" xmlns="http://www.w3.org/2000/svg"><g clip-rule="evenodd" fill-rule="evenodd"><path d="m30.55 27.267c-.299.906-.239 1.935-.195 2.927.299 6.798-.28 14.267.098 20.928.995.284 2.208.17 3.464.195 3.603.072 7.309 0 10.927 0 2.559 0 4.854.106 6.732.683 1.86.572 3.342 1.548 4.683 2.732 2.624 2.317 4.537 5.625 4.537 10.342 0 4.597-2.18 7.684-4.781 10.049-2.02 1.745-4.498 2.92-8 3.171-1.121.08-2.347.049-3.659.049-14.707-.003-29.653.063-44.198-.098-.158-6.04-.17-12.817 0-18.782 9.49-.281 19.063.048 28.636-.244.2-1.84.14-4.432 0-6.391-3.299-.213-6.772-.097-10.342-.098-3.524 0-7.013.207-9.708-.83-2.439-.938-4.583-2.56-6.049-4.585-1.463-2.022-2.672-4.577-2.683-7.952-.011-3.254 1.153-6.048 2.586-8.049 2.138-2.987 5.59-5.36 10.342-5.61 5.047-.265 10.808.281 15.806-.098.322-.828.174-1.942.195-3.024.022-1.081.006-2.244-.098-3.22-.971-.345-2.207-.195-3.463-.195-8.407-.001-16.822.134-25.221-.048-.15-6.17-.243-12.672-.05-18.927.908-.264 1.903-.146 2.878-.146h2.976c10.869-.001 21.376.001 32.392 0 4.489-.001 9.317-.289 12.733.586 3.396.87 5.968 3.125 7.61 5.708 1.814 2.852 2.609 7.008 1.659 10.781-.855 3.395-3.001 6.028-5.561 7.757-1.363.92-2.923 1.617-4.683 2-1.825.397-3.995.292-6.342.292-4.385 0-8.826-.082-13.221.097zm11.611-1.561c4.027 0 7.601.221 10.391-1.22 2.491-1.287 4.579-3.308 5.756-6.049 1.2-2.794 1.43-6.679 0-9.757-1.792-3.858-5.267-6.806-10.537-7.123-1.788-.107-3.721.019-5.854-.049-3.604-.113-7.432.001-11.318 0-5.51 0-10.745.001-16.147 0-2.93 0-5.831.001-8.683 0-1.407 0-2.845-.118-4.195.147-.178 3.815-.097 8.119-.098 12.05 0 1.35-.117 2.711.146 3.951 4.743.172 9.597.098 14.342.098 4.11 0 8.535-.19 12.635 0 .565.026 1.181-.13 1.707.146.203 2.431-.168 5.437.195 7.708 3.652.178 7.759.098 11.66.098zm-22.684 1.464c-1.984 0-3.959-.009-5.757 0-3.703.021-6.301 1.429-8.342 3.171-1.921 2.06-3.628 4.456-3.854 8.098-.209 3.362.878 5.939 2.244 7.854 1.368 1.917 3.296 3.424 5.805 4.293 2.619.907 5.88.799 9.22.683 3.3-.115 6.766.167 10.001-.098.28-4.034.098-8.151.098-12.147 0-3.99.138-7.924-.098-11.757-2.903-.214-6.038-.097-9.317-.097zm23.318 49.71c1.872 0 3.603.071 5.171 0 1.603-.073 3.016-.502 4.195-1.024 2.381-1.056 4.126-2.758 5.463-4.927 1.275-2.068 2.167-5.226 1.513-8.488-.55-2.742-2.055-4.944-3.805-6.586-1.223-1.023-2.591-1.971-4.391-2.537-1.798-.566-3.936-.631-6.293-.537-4.439.177-9.666-.274-14.05 0-.399.443-.244 1.205-.244 1.854 0 2.067.101 4.366-.097 6.098-8.437.081-16.851.097-25.124.098-1.181 0-2.4-.118-3.561.146-.041 5.249-.191 11.022.049 15.806 13.631.141 27.349.096 41.174.097z"/><path d="m46.259 5.9c2.239-.198 4.113.452 5.414 1.415 1.83 1.353 3.587 3.975 3.074 7.464-.409 2.773-2.107 4.78-4.146 5.805-2.309 1.16-5.422 1.14-7.806-.488-2.16-1.476-3.48-3.454-3.464-6.488.009-1.504.415-2.938 1.025-3.952.778-1.293 2.226-2.67 3.951-3.317.506-.189 1.154-.368 1.952-.439z"/><path d="m13.427 31.56c3.078-.068 5.383 1.586 6.586 3.366 1.334 1.976 1.834 5.202.585 7.806-1.371 2.857-4.629 4.96-8.489 4.195-3.473-.688-6.601-3.661-6.244-8.293.114-1.479.863-3.016 1.463-3.854 1.323-1.845 3.167-3.154 6.099-3.22z"/><path d="m46.6 57.123c1.993-.156 3.636.478 4.878 1.317 1.515 1.023 2.728 2.608 3.171 4.683 1.232 5.779-3.956 10.624-9.415 9.22-2.781-.715-5.139-2.816-5.757-5.902-.718-3.589.886-6.112 2.781-7.659 1.119-.913 2.441-1.51 4.342-1.659z"/></g></svg>