<svg enable-background="new 0 0 76.795 53.914" viewBox="0 0 76.795 53.914" xmlns="http://www.w3.org/2000/svg"><g clip-rule="evenodd" fill-rule="evenodd"><path d="m.231 53.726c-.228-2.845-.043-5.839-.101-8.731-.057-2.862-.112-5.753.101-8.378 4.817-.359 9.994.082 14.889-.152 1.652-.079 3.334.183 4.896-.151.167-5.782.168-12.284 0-18.118-1.534-.298-3.198-.139-4.845-.101-3.282.074-6.8-.05-10.195-.05-1.657 0-3.284.11-4.794-.102-.267-5.413-.2-12.041-.052-17.716 3.774-.21 7.743-.151 11.76-.151 3.92 0 7.946.182 11.86 0 3.331-.155 7.327.045 10.851 0 6.908-.088 14.007-.05 21.147-.051 3.771 0 7.202-.207 10.145.555 5.307 1.377 9.258 5.439 10.497 10.902 1.323 5.835-.763 10.943-3.785 14.031-.382.39-1.248.956-1.262 1.413-.026.834 1.368 1.104 1.615 1.817 2.141 2.47 3.603 5.352 3.785 9.488.188 4.271-1.438 7.551-3.28 9.943-1.941 2.518-4.517 4.398-7.924 5.35-1.733.484-4.058.303-6.309.303-10.918 0-21.74 0-32.906 0-4.386 0-8.837.197-13.172 0-4.4-.2-8.765.257-12.921-.101zm59.554-29.828c1.961-.03 3.742-.002 5.198-.555 2.744-1.041 4.621-3.131 5.35-6.106.426-1.739.361-3.397-.202-4.946-.993-2.733-2.948-4.767-5.804-5.653-1.492-.462-3.25-.454-5.299-.454-17.677 0-35.524-.008-53.144.151-.167 1.724-.168 4.131 0 5.855 1.498.199 3.153.101 4.794.101 4.948 0 10.056-.065 14.838.101.165 10.132.214 19.572.05 29.625-6.436.304-13.486-.015-19.936.252-.166 1.68-.166 4.023 0 5.703 16.697.224 34.083.053 50.571.05 1.928 0 3.874.114 5.753 0 3.369-.205 5.896-1.946 7.268-4.239.699-1.168 1.307-2.612 1.414-4.29.109-1.722-.368-3.396-1.06-4.693-1.252-2.347-3.575-4.353-6.914-4.593-3.359-.241-6.722.046-9.993 0-1.64-.023-3.31-.023-4.946 0-1.607.023-3.216.106-4.794-.151-.149-1.77-.102-4.192.05-6.107 5.283-.155 11.531.029 16.806-.051z"/><path d="m37.831 18.447c-.263.641-.151 1.365-.151 2.069 0 4.958-.083 10.434.1 15.292.982.248 2.064.185 3.129.151 4.834-.153 10.67.234 15.999 0 .945-.042 2.072.046 3.129 0 2.499-.11 4.275.348 4.845 2.221.521 1.714-.572 3.293-1.767 3.735-1.008.372-2.469.202-3.835.202-9.133 0-18.189.113-27.557-.101-.168-8.897-.151-17.249-.151-25.992 0-1.223-.122-2.452.151-3.634 9.451-.195 18.466-.152 28.112-.151 1.018 0 2.249-.085 3.079.151 1.404.399 2.586 2.082 1.867 3.835-.276.675-1.09 1.518-1.918 1.817-.84.304-1.966.204-2.978.252-7.133.342-15.124-.143-22.054.153z"/></g></svg>