<svg enable-background="new 0 0 72.449 71.683" viewBox="0 0 72.449 71.683" xmlns="http://www.w3.org/2000/svg"><path clip-rule="evenodd" d="m10.615 61.16c-1.896-2.011-3.834-4.055-5.29-6.535-.214-.364-.324-.763-.533-1.156-.394-.737-.852-1.411-1.2-2.178-1.034-2.276-2.041-4.727-2.668-7.469-.873-3.826-1.167-8.161-.711-12.181.452-3.983 1.574-7.41 3.023-10.491 1.42-3.019 3.162-5.801 5.246-8.269 1.017-1.204 2.239-2.24 3.379-3.378 1.12-1.12 2.443-2.166 3.734-3.023 2.085-1.387 4.184-2.498 6.579-3.557 2.296-1.015 4.877-1.872 7.779-2.356.959-.16 1.941-.371 2.935-.445 2.809-.209 6.028-.16 8.669.222 4.817.697 8.951 2.473 12.492 4.401 2.414 1.315 4.669 2.965 6.534 4.757.474.454.892.983 1.378 1.467 1.374 1.366 2.706 2.917 3.868 4.535 1.576 2.193 2.999 4.627 4.046 7.246 1.087 2.722 1.899 5.504 2.267 8.98.191 1.811.396 3.622.267 5.379-.391 5.283-1.643 9.465-3.468 13.381-4.671 10.025-12.976 17.341-24.761 20.272-2.965.738-6.814 1.087-10.27.845-3.417-.24-6.669-.909-9.38-1.867-5.621-1.986-10.01-4.744-13.915-8.58zm19.516 1.644c.692.18 1.429.248 2.135.355 3.077.47 6.239.325 9.023-.222 1.446-.284 2.803-.618 3.957-1.022 4.81-1.685 8.855-4.521 11.869-7.958 3.111-3.547 5.295-7.934 6.358-13.425.848-4.377.387-9.651-.889-13.159-.441-1.211-.874-2.433-1.378-3.601-.493-1.141-1.234-2.243-1.956-3.289-2.171-3.149-4.97-5.62-8.047-7.735-1.006-.692-2.238-1.311-3.423-1.823-3.68-1.59-7.932-2.762-13.336-2.445-1.718.101-3.542.473-4.935.845-.471.125-1.035.143-1.334.533 4.477.133 8.618.743 11.915 2.045 1.121.443 2.274.882 3.244 1.423 1.88 1.048 3.545 2.664 4.846 4.445 1.344 1.839 2.327 4.162 2.135 7.202-.125 1.962-.814 3.347-1.512 4.623-.23.42-.585.824-.623 1.333 2.255.496 4.624.856 6.669 1.69 1.444.588 2.88 1.22 4.179 2.089.358.24 1.045.667 1.023 1.067-.021.358-.612.646-.979.889-2.53 1.688-6.129 3.087-9.602 3.557-.426.057-1.061.005-1.29.267.109.68.616 1.204.934 1.823.323.628.555 1.357.756 2.089.974 3.543-.433 6.994-1.733 9.113-2.216 3.61-5.508 5.703-9.958 7.113-2.973.942-6.395 1.286-9.824 1.511.449.464 1.181.513 1.776.667zm-15.604-30.585c2.244.585 4.891.894 7.558.978 4.314.135 8.085-.456 10.892-2 2.254-1.241 4.006-3.403 4.223-6.491.267-3.789-1.613-6.072-3.512-7.824-.964-.889-2.189-1.588-3.601-2.089-1.796-.638-4.109-1.093-6.357-.8-3.087.402-5.324 1.49-7.29 3.067-2.224 1.784-3.953 3.911-5.202 6.624-1.771 3.849-3.422 8.905-2.8 14.67.576 5.35 2.302 9.416 4.756 12.981 2.441 3.545 5.999 6.007 11.292 6.446 3.684.306 6.831-1.073 8.891-2.756 1.021-.834 2.048-2.087 2.624-3.334 1.149-2.495 1.327-6.379-.268-8.757-2.159-3.221-6.396-4.532-11.158-4.801-4.639-.262-8.671.787-11.958 1.822-.493.155-.974.438-1.512.4-.492-.562-.55-1.612-.622-2.623-.072-1.007-.072-2.194-.045-3.201.033-1.233.112-2.542.711-3.201 1.115.181 2.206.583 3.378.889z" fill-rule="evenodd"/></svg>