<svg enable-background="new 0 0 47.907 72.275" viewBox="0 0 47.907 72.275" xmlns="http://www.w3.org/2000/svg"><g clip-rule="evenodd" fill-rule="evenodd"><path d="m33.94 2.425c-1.391-.079-2.863-.43-4.396-.43-4.725 0-8.135 1.869-10.752 3.966-2.576 2.293-4.641 5.074-5.496 9.223-.277 1.347-.513 2.904-.382 4.492.069.836.275 1.717.43 2.533.455 2.391 1.531 4.454 2.771 6.117 1.733 2.321 3.65 4.119 6.404 5.4 1.387.646 2.818 1.24 4.492 1.434 1.71.198 3.571.104 5.543.334 3.494.41 6.035 1.834 8.268 3.536 4.065 3.462 7.595 8.62 7.024 16.583-.314 4.387-2.058 7.564-4.157 10.274-2.968 3.388-6.626 5.981-12.568 6.355-1.883.119-3.819-.12-5.878-.191-2.913-.101-5.972-.539-8.793-.669-1.005-.046-1.894-.163-2.772-.382-3.371-.842-5.998-2.342-8.171-4.396-2.122-2.006-3.728-4.687-4.731-7.885-1.03-3.287-1.054-7.495.048-10.896 1.681-5.189 5.655-9.421 10.752-11.278.788-.287 1.636-.301 2.485-.621-.587-.405-1.312-.415-1.912-.574-1.815-.479-3.431-1.532-4.779-2.58-3.651-2.839-6.367-6.75-7.024-12.568-.321-2.838.207-5.932 1.194-8.41 1.853-4.655 5.12-7.884 9.701-9.892 1.18-.518 2.418-.989 3.728-1.195 2.762-.435 6.231-.348 9.318-.478 1.604-.067 3.321-.118 4.875-.191 1.714-.081 3.525-.06 4.778.43.213.418.231 1.545 0 1.959zm1.29 35.697c-1.763-.674-4.312-1.403-6.643-1.195-6.679.598-11.231 3.729-13.81 8.363-.863 1.55-1.649 3.333-2.007 5.4-.414 2.39-.238 4.54.239 6.594 1.382 5.95 5.106 9.953 10.179 12.043 1.849.762 3.831 1.298 6.165 1.243 7.045-.168 11.292-3.737 14.097-8.124 1.372-2.146 2.487-5.18 2.39-8.697-.168-6.042-2.625-9.541-5.83-12.711-1.443-1.076-2.944-2.213-4.78-2.916z"/><path d="m25.482 13.512c1.238-.869 3.099-1.671 5.4-1.243 1.717.32 3.4 1.695 4.205 3.106.882 1.545 1.204 3.994.287 6.021-.592 1.309-1.71 2.506-3.058 3.154-1.969.946-4.941.753-6.69-.669-.23-.187-.46-.554-.717-.86-.24-.287-.544-.577-.717-.86-1.141-1.877-1.275-4.807-.143-6.833.362-.65.937-1.125 1.433-1.816z"/><path d="m28.253 47.298c2.876-.332 5.007 1.113 6.117 2.676.413.581.754 1.222.956 1.959.897 3.278-.825 6.513-3.249 7.694-1.717.837-4.24.836-5.974-.143-1.414-.798-2.624-2.373-3.059-4.205-.214-.906-.273-1.685-.095-2.771.139-.854.579-1.704.813-2.103.842-1.44 2.262-2.85 4.491-3.107z"/></g></svg>