<svg enable-background="new 0 0 74.584 74.283" viewBox="0 0 74.584 74.283" xmlns="http://www.w3.org/2000/svg"><g clip-rule="evenodd" fill-rule="evenodd"><path d="m30.815.201c.183 3.293.101 6.621.1 9.953 0 9.674-.003 19.746-.149 29.658-3.957.146-7.695.162-11.153 0-3.557-.166-6.414-.969-8.953-2.352-4.872-2.654-8.38-6.805-9.952-12.703-1.85-6.936.729-13.644 3.95-17.605 2.91-3.578 7.232-6.264 12.904-6.951.838-.101 1.871-.201 2.8-.201 3.379 0 7.035.109 10.453.201zm-11.953 7.602c-3.813.277-6.217 2.18-8.203 4.4-1.448 1.777-2.542 3.852-2.75 6.703-.217 2.961.659 5.512 1.9 7.502 2.086 3.346 5.565 5.652 10.953 5.652.719 0 1.519.117 2.25-.15.252-7.728.205-16.256.051-24.008-1.296-.127-2.79-.203-4.201-.099z"/><path d="m74.428 31.16c-13.037.1-26.059.078-39.312-.201-.256-1.891-.112-3.852-.1-5.752.015-2.094-.091-4.15 0-6.102.352-7.545 4.206-12.609 9.103-15.754 2.57-1.65 5.77-2.978 9.453-3.15 4.243-.201 7.77.832 10.603 2.4 2.845 1.574 5.069 3.689 6.802 6.201 1.771 2.568 3.121 5.656 3.501 9.502.205 2.076.05 4.254.05 6.453 0 2.081.084 4.243-.1 6.403zm-11.653-20.056c-2.078-1.973-4.98-3.473-9.104-3.15-3.315.258-6.209 2.07-8.002 4.15-2.226 2.584-3.374 6.342-2.851 11.104 1.823.266 3.804.15 5.802.15 4.017 0 8.138-.029 12.153.049 2.022.041 4.018.197 5.901-.1.884-5.678-1.172-9.614-3.899-12.203z"/><path d="m43.769 74.072c-.288-9.688.182-20.107-.05-29.76-.058-2.359-.026-4.883 0-7.352.007-.672-.008-2.18.199-2.35.037-.047.092-.076.15-.102 4.529.115 8.623-.207 12.504.15 3.772.35 6.763 1.647 9.253 3.4 4.648 3.277 8.652 8.699 8.652 16.605-.001 7.75-4.104 13.234-8.903 16.355-2.574 1.674-5.597 2.93-9.452 3.201-1.95.137-4.062 0-6.202 0-2.03.004-4.116.113-6.151-.147zm10.003-7.552c2.468 0 4.461-.275 6.052-1.051 3.23-1.572 6.018-4.703 6.702-8.701.399-2.336.165-4.641-.601-6.703-1.123-3.023-3.461-5.35-6.252-6.652-1.915-.893-5.134-1.301-8.002-1.049-.276.9-.203 1.881-.2 2.85.021 6.812-.099 14.412.1 21.156.713.263 1.484.15 2.201.15z"/><path d="m39.518 43.412c.184 2.096.1 4.189.1 6.252 0 2.154.133 4.311-.05 6.303-.69 7.508-4.683 12.326-9.903 15.504-2.725 1.66-6.088 2.603-10.103 2.602-3.96-.002-7.186-1.273-9.853-2.852-2.676-1.582-4.877-3.73-6.451-6.252-1.64-2.625-2.887-5.67-3.151-9.553-.238-3.49 0-7.219 0-10.902 0-.418-.144-.994.2-1.35 9.538-.082 19.723.1 29.509.1 3.276 0 6.527-.121 9.702.148zm-31.56 7.604c-.239.711-.173 2.355-.15 3.301.081 3.396 1.326 5.842 2.751 7.553 2.055 2.291 4.931 4.51 9.202 4.5 4.299-.008 7.244-1.988 9.354-4.35 2.06-2.377 3.219-6.182 2.65-10.854-3.825-.217-7.812-.201-11.753-.201-3.97 0-7.94-.049-11.904-.049-.059.023-.112.053-.15.1z"/></g></svg>