<svg enable-background="new 0 0 86.432 70.398" viewBox="0 0 86.432 70.398" xmlns="http://www.w3.org/2000/svg"><g clip-rule="evenodd" fill-rule="evenodd"><path d="m64.578.175c-.105.689-.541 1.275-.881 1.864-.998 1.729-2.016 3.544-3.057 5.334-1.375 2.37-2.684 4.81-4.193 7.043-8.746.194-17.531-.112-26.049.207.08.822.637 1.523 1.035 2.227.4.708.762 1.452 1.244 2.072 14.215.131 28.518-.193 42.619.052-.211 1.264-.977 2.351-1.605 3.418-4.369 7.406-8.881 14.94-13.258 22.424-4.393 7.514-8.768 14.979-13.205 22.475-.617 1.043-1.149 2.185-1.967 3.107-.562-.398-.803-1.083-1.141-1.657-2.004-3.416-4.012-6.912-6.059-10.461-.303-.526-.928-1.321-.932-1.812-.004-.426.486-1.018.777-1.502 3.137-5.241 6.016-10.476 9.062-15.743.822-1.424 1.686-2.8 2.537-4.246.279-.474.658-.932.725-1.502-.652-.278-1.455-.155-2.227-.155-2.262 0-4.764-.11-6.785.155.08.669.459 1.214.83 1.812.275.445.963 1.208.982 1.761.02.493-.73 1.399-1.035 1.916-2.223 3.766-4.314 7.505-6.473 11.238-.348.6-.564 1.381-1.191 1.761-1.088-1.448-1.754-3.15-2.641-4.713-1.756-3.089-3.574-6.174-5.387-9.322-.887-1.542-1.713-3.148-2.797-4.557-4.848-.048-10.242.078-15.172-.052-1.537-2.244-2.891-4.666-4.299-7.043-1.053-1.775-2.09-3.528-3.16-5.334-.332-.571-.807-1.127-.875-1.813 3.77-.197 7.604-.104 11.443-.104 1.26 0 2.568.124 3.729-.156-.213-.916-.809-1.643-1.242-2.434-2.535-4.615-5.301-9.182-7.975-13.774-.449-.772-.986-1.536-1.191-2.434 14.131-.114 29.072-.158 43.5-.155 4.93.001 9.912.225 14.76 0 .458-.022 1.146-.166 1.554.103z"/><path d="m86.432.123c-.076.693-.531 1.281-.881 1.864-1.738 2.906-3.455 6.038-5.281 8.959-.725 1.154-1.303 2.428-2.229 3.418-4.039.106-8.336.104-12.635.103-1.006 0-2.047.122-3.004-.155.481-1.329 1.338-2.47 2.02-3.677.682-1.205 1.367-2.399 2.072-3.573 1.412-2.355 2.766-4.733 4.297-6.991 4.943-.051 10.723-.154 15.641.052z"/></g></svg>