<svg enable-background="new 0 0 14.953 14.954" viewBox="0 0 14.953 14.954" xmlns="http://www.w3.org/2000/svg"><path d="m0 0c4.984.002 9.969 0 14.953.001-.003 4.911-.003 9.823-.007 14.735 0 .071.004.143.006.215-4.983.004-9.968-.002-14.952.003 0-4.985.002-9.969 0-14.954zm2.146 2.139c.003 3.559.01 7.119-.003 10.678 2.136-.003 4.272-.004 6.408 0-.011-1.427.005-2.853-.008-4.28 1.426.008 2.853-.008 4.279.008-.007-1.358-.002-2.716-.003-4.073.007-.777-.014-1.555.013-2.332-3.561 0-7.123.005-10.686-.001z"/><path d="m4.268 6.42c.009-.713.002-1.428.002-2.142.716.004 1.433.008 2.149-.002-.002.714.005 1.43-.003 2.144-.081.027-.17.002-.253.005-.632-.006-1.264.003-1.895-.005z"/><path d="m8.542 4.278c.716.004 1.433.005 2.149 0 0 .584-.001 1.168 0 1.752-.001.137.009.274-.017.41-.711-.039-1.426-.005-2.138-.017.011-.715 0-1.43.006-2.145z"/><path d="m4.272 10.69c.002-.716-.004-1.432 0-2.148.715-.001 1.431.004 2.146-.003.001.717.001 1.434 0 2.152-.715 0-1.43.003-2.146-.001z"/></svg>