<svg enable-background="new 0 0 60.767 73.524" viewBox="0 0 60.767 73.524" xmlns="http://www.w3.org/2000/svg"><g clip-rule="evenodd" fill-rule="evenodd"><path d="m51.396 36.986c.205.686 1.359.848 1.828 1.434 2.484 1.622 4.361 3.979 5.688 6.873 1.314 2.872 2.033 6.612 1.482 10.68-.975 7.2-5.15 11.826-10.135 14.932-2.799 1.683-6.447 2.62-10.779 2.62-13.172 0-26.309-.218-39.357-.346-.178-1.223-.1-2.693-.098-4.104 0-1.416-.113-2.838.146-4.004 7.023-.101 14.408.099 21.855.099 3.568 0 7.371-.12 11.074.05 1.756.08 3.648-.036 5.439.049 5.436.258 9.164-1.876 11.471-5.093 1.549-2.16 2.555-5.311 2.027-8.801-.479-3.161-1.904-5.537-3.857-7.268-.988-.878-2.182-1.543-3.461-2.127-1.334-.608-2.848-.628-4.498-1.038-.262-1.166-.148-2.635-.148-4.055 0-1.396-.074-2.836.197-3.955.826-.327 1.664-.257 2.422-.396 2.348-.428 4.098-1.388 5.637-2.719 2.768-2.395 5.055-7.017 3.709-12.263-1.086-4.233-4.18-7.305-8.258-8.504-2.928-.861-6.883-.643-10.531-.643-10.978 0-22.361-.059-32.93-.345-.21-1.868-.097-3.902-.097-6.082 0-.662-.145-1.411.197-1.929 8.621-.14 17.551.05 26.75.05 4.346 0 8.965-.021 13.25.099 3.996.111 8.051 1.031 10.432 2.868 1.279.986 2.592 1.85 3.709 2.967 3.227 3.225 5.879 7.584 6.18 13.794.314 6.466-2.146 11.283-5.438 14.438-1.127 1.08-2.522 1.782-3.906 2.719z"/><path d="m15.993 16.368c.213 3.27.1 6.699.1 10.136 0 3.418-.049 6.854-.049 10.235-.002 6.875.115 13.806-.148 20.42-5.16.06-10.764.125-15.773-.148-.049-2.524-.147-5.52.049-7.96 2.314-.271 5.377.042 7.615-.149.268-1.144.148-2.416.148-3.658 0-6.904.16-13.652-.049-20.667-1.086-.273-2.455-.198-3.809-.198-1.322 0-2.705.079-3.855-.099-.172-1.161-.051-2.57-.051-4.005 0-1.379-.117-2.888.148-4.055 5.379-.051 10.68-.068 15.674.148z"/><path d="m40.271 16.516c.141 2.568.217 5.916-.049 8.405-2.439.271-5.076-.144-7.516.148-.266.926-.149 1.929-.149 2.867-.002 6.439-.146 13.636 0 20.568.502.256 1.156.157 1.779.149 1.82-.024 4.094.006 5.834.197.258 1.323.016 2.807.051 4.252.033 1.421.188 2.896-.1 4.153-4.522.195-9.717 0-14.438 0-.654 0-1.299.094-1.879-.099-.156-11.432 0-23.785 0-35.748 0-.748-.045-1.594 0-2.57.031-.685-.016-2.229.197-2.423.037-.046.09-.075.149-.1 4.004-.053 8.238.05 12.262.05 1.335.003 2.708-.107 3.859.151z"/></g></svg>