<svg enable-background="new 0 0 14.915 14.913" viewBox="0 0 14.915 14.913" xmlns="http://www.w3.org/2000/svg"><path d="m.002.001c4.395-.002 8.79-.001 13.185 0 .436 0 .883.149 1.193.464.362.331.554.83.532 1.317-.001 1.179 0 2.358-.001 3.538-.001.48-.215.956-.579 1.27-.329.271-.757.432-1.187.41-.496 0-.993.002-1.489 0 .003-.137 0-.273-.001-.41.402-.394.819-.772 1.205-1.181.082-.119.147-.268.11-.413-.047-.183-.201-.335-.382-.386-.178-.042-.354.052-.481.17-.156.154-.316.305-.454.476.008-.414.006-.829-.001-1.244.385-.38.763-.765 1.148-1.145.143-.128.21-.348.128-.527-.09-.288-.477-.402-.719-.231-.202.162-.366.366-.554.544.002-.401 0-.802.003-1.203-.006-.251-.237-.485-.491-.475-.263-.004-.501.249-.472.512.004.39-.01.78.01 1.17-.16-.173-.325-.341-.489-.51-.25-.248-.716-.07-.78.262-.043.174.033.361.163.478.38.365.733.755 1.099 1.134-.001.409-.012.818.005 1.226-.195-.174-.362-.377-.556-.552-.287-.235-.775.049-.748.411-.003.111.046.218.116.302.388.4.796.783 1.174 1.192.016.131.002.265.008.397-.922.006-1.845.004-2.767.001-.004-.147-.003-.296-.002-.443.35-.342.693-.692 1.046-1.032.154-.136.196-.374.101-.555-.057-.151-.213-.231-.36-.27-.123-.04-.245.031-.351.085-.154.133-.285.289-.436.425 0-.407-.001-.814 0-1.221.372-.364.738-.734 1.106-1.102.191-.194.148-.55-.081-.696-.165-.13-.405-.125-.57.002-.15.145-.305.284-.454.429-.006-.431.006-.863-.005-1.294-.06-.171-.206-.335-.394-.356-.218-.042-.458.093-.53.305-.054.105-.039.224-.04.338.001.337 0 .675 0 1.012-.116-.15-.255-.279-.391-.41-.187-.169-.496-.161-.672.02-.162.169-.177.458-.028.64.181.238.436.404.636.625.144.164.333.297.451.479.01.409.002.818.005 1.227-.124-.135-.264-.253-.39-.386-.126-.136-.34-.175-.508-.103-.288.114-.404.523-.186.756.359.362.719.723 1.083 1.081.001.148.001.297-.001.445-.917.002-1.833.003-2.75 0 .003-.141.002-.282 0-.422.323-.327.649-.651.975-.975.108-.102.195-.231.21-.382.018-.286-.244-.531-.526-.513-.299.035-.474.307-.67.502.033-.41 0-.823.016-1.233.347-.386.737-.735 1.095-1.113.13-.174.106-.448-.061-.59-.153-.181-.446-.21-.63-.06-.144.132-.272.278-.415.408.019-.35.003-.7.01-1.05.006-.184-.055-.383-.212-.491-.123-.071-.275-.131-.414-.064-.212.051-.354.262-.355.475-.002.373-.002.746.002 1.12-.134-.135-.273-.265-.409-.397-.229-.208-.65-.095-.745.198-.092.172-.024.392.114.517.318.314.631.632.948.947.035.04.092.077.087.138.008.4-.001.8.006 1.2-.154-.183-.317-.374-.532-.484-.314-.153-.694.164-.666.495.03.134.092.265.199.356.334.318.641.665.995.962 0 .152 0 .304.001.457-1.076.002-2.153 0-3.23 0 .002-2.333 0-4.666 0-6.999z"/><path d="m0 7.926c1.078-.001 2.157 0 3.235 0-.01 1.107.002 2.215-.006 3.322.327-.008.655 0 .983-.001-.006-1.107.005-2.215-.005-3.321h2.753c.001 1.107.001 2.214 0 3.321.323-.006.646.001.969 0 0-1.107-.003-2.213.001-3.32.923-.003 1.845-.003 2.768 0-.006 1.106-.002 2.213-.003 3.319.321-.003.641-.001.962.001-.004-1.107.003-2.214-.003-3.321.442-.002.884 0 1.325-.001.369.002.745.085 1.058.286.555.324.889.967.874 1.605 0 1.039-.001 2.078 0 3.117.036.635-.26 1.29-.792 1.648-.297.202-.653.323-1.014.328-4.368.004-8.736-.005-13.104.004 0-2.329.006-4.658-.001-6.987z"/></svg>