<svg enable-background="new 0 0 14.409 17.208" viewBox="0 0 14.409 17.208" xmlns="http://www.w3.org/2000/svg"><path d="m.009.002c3.184-.003 6.368 0 9.552-.002.992-.007 1.987.292 2.799.866 1.052.725 1.775 1.894 1.985 3.152.132.863.068 1.774-.289 2.579-.367.866-1.073 1.574-1.921 1.973.374.196.719.444 1.031.728.387.402.706.873.898 1.4.155.392.23.809.285 1.225.007.328.003.657.002.985-.097.938-.483 1.848-1.107 2.558-.183.255-.43.451-.669.65-.9.72-2.056 1.125-3.21 1.089-3.122 0-6.243 0-9.365 0 .01-.644.003-1.288.003-1.932 3.154.004 6.308.001 9.461.002.878.002 1.751-.417 2.284-1.114.469-.578.695-1.349.603-2.088-.075-.798-.512-1.552-1.163-2.018-.489-.367-1.11-.553-1.72-.531-.018-.649 0-1.298-.008-1.946.813.07 1.619-.279 2.191-.847.469-.515.796-1.187.796-1.893.056-1.025-.538-2.044-1.436-2.533-.352-.201-.751-.319-1.154-.353-3.283 0-6.566 0-9.848 0-.006-.65-.005-1.3 0-1.95z"/><path d="m.003 3.814c1.263-.014 2.527.009 3.79-.011.002 3.209 0 6.418.001 9.627-1.263-.025-2.528-.01-3.791-.008.004-.645.007-1.29-.003-1.935.613-.005 1.226.001 1.838-.002-.002-1.922.001-3.844-.001-5.766-.613-.001-1.225.007-1.837-.003.011-.634.006-1.268.003-1.902z"/><path d="m5.653 3.805c1.27.006 2.541.01 3.811-.001v1.921c-.617-.01-1.235-.008-1.852-.001-.011 1.92 0 3.841-.005 5.762.619.001 1.238-.001 1.857.001.001.648-.001 1.296.001 1.943-.766-.028-1.532-.004-2.298-.012-.504.004-1.009-.007-1.513.006-.005-3.206-.005-6.412-.001-9.619z"/></svg>