<svg enable-background="new 0 0 77.156 66.256" viewBox="0 0 77.156 66.256" xmlns="http://www.w3.org/2000/svg"><path clip-rule="evenodd" d="m62.657 33.076c.666.456 1.549.44 2.361.675 5.295 1.521 8.802 5.147 10.798 10.122.584 1.454.97 3.05 1.157 4.82.381 3.608.048 7.977.048 11.81v2.988c0 .943.179 1.895-.145 2.748-3.996-.037-8.593.109-12.581-.097-.446-5.303.295-11.622-.097-17.015-.12-1.654-.582-3.108-1.35-4.339-1.478-2.372-3.565-4.302-6.7-4.724-1.803-.243-3.734-.118-5.543-.097-1.785.021-3.583-.144-5.495 0-.039.009-.048.049-.097.049-.338 8.206-.009 17.626-.241 25.933-.042.021-.086.042-.096.096-7.316.171-14.979.001-22.8 0-3.856 0-7.784.196-10.749-.771-2.951-.962-5.055-2.708-6.989-4.628-1.681-2.025-3.258-4.629-3.856-7.76-.666-3.481-.103-7.223 1.156-9.882 2.485-5.244 6.776-8.883 13.304-9.93-1.09-.414-2.163-.461-3.133-.771-5.541-1.771-9.869-6.194-11.231-12.193-.245-1.082-.316-2.139-.337-3.423-.082-5.057 1.617-8.58 4.194-11.327 2.467-2.63 5.84-4.984 10.46-5.303 2.214-.152 4.558.049 6.845.049h6.845c6.823 0 13.294.097 20.245.097 4.409 0 9.39-.175 13.545.192 3.264.289 5.488 1.244 7.616 2.699 4.413 3.018 8.3 8.728 6.894 16.533-.691 3.831-2.574 6.573-4.869 8.869-2.32 2.321-5.223 3.859-9.159 4.58zm-35.189-26.27c-1.627 0-3.293-.072-4.82 0-2.804.133-4.865 1.151-6.41 2.41-1.807 1.967-3.609 4.112-3.326 8.05.164 2.284 1.104 4.106 2.314 5.592 1.144 1.403 2.774 2.667 4.725 3.181 1.774.468 3.975.241 6.121.241 1.032 0 2.086-.045 3.085 0 1.011.046 2.039.184 2.988-.097.137-3.106.097-6.271.097-9.496 0-3.219.103-6.558-.145-9.688-1.431-.281-3.033-.193-4.629-.193zm22.752 19.618c1.851.064 3.759.122 5.399-.048 3.145-.326 5.425-1.971 6.892-4.001 1.525-2.107 2.29-5.676 1.254-8.677-.931-2.696-2.737-4.592-5.061-5.832-3.401-1.509-8.761-.764-13.448-.965-.057.023-.109.052-.145.097-.239.254-.145 1.671-.145 2.362 0 5.694-.17 11.485.048 16.871 1.676.239 3.466.134 5.206.193zm-22.992 13.448c-1.652.04-3.346-.139-5.062-.048-2.539.135-4.572 1.254-6.025 2.603-1.539 1.431-2.673 3.253-3.036 5.447-.446 2.684.235 4.964 1.349 6.797 1.007 1.656 2.561 3.145 4.531 3.952 1.898.778 4.565.627 7.327.627 1.92 0 3.861.047 5.687-.049.26-1.203.145-2.463.145-3.711 0-3.144.03-6.526 0-9.496-.006-.641.154-1.236.145-1.831-.01-.635-.097-1.364-.096-2.073 0-.729.101-1.469-.146-2.072-1.577-.239-3.188-.184-4.819-.146z" fill-rule="evenodd"/></svg>