<svg enable-background="new 0 0 52.234 78.69" viewBox="0 0 52.234 78.69" xmlns="http://www.w3.org/2000/svg"><g clip-rule="evenodd" fill-rule="evenodd"><path d="m52.008.115c.245 2.329.151 5.167.151 7.773 0 .846.112 1.722-.151 2.457-8.531.213-17.263.201-25.878.201-8.609 0-17.335.083-25.928-.1-.158-3.376-.16-7.114.051-10.281 11.818-.085 24.107-.152 35.908-.15 5.116 0 10.545-.073 15.847.1z"/><path d="m11.837 13.004c2.369-.164 4.524.548 6.219 1.354 1.725.82 3.176 2.023 4.213 3.36 1.937 2.496 3.56 7.089 2.257 11.184-1.106 3.478-3.205 6.424-6.369 8.024-2.432 1.229-5.639 1.805-8.727 1.002-2.571-.668-4.872-2.216-6.419-4.012-2.489-2.888-4.079-8.188-2.156-13.04.43-1.085 1.201-2.218 1.805-3.059 1.43-1.995 3.472-3.382 6.169-4.263.907-.295 2.038-.483 3.008-.55z"/><path d="m48.147 34.92c-1.895 1.567-3.873 2.875-6.62 3.26-3.072.43-6.004-.301-8.074-1.555-3.977-2.407-7.146-7.119-6.118-13.24.31-1.844 1.172-3.713 2.107-5.066 1.86-2.694 5.327-5.06 9.679-5.266 3.598-.17 6.412 1.281 8.526 2.958 2.125 1.687 3.686 4.255 4.312 7.172 1.08 5.027-1.377 9.043-3.812 11.737z"/><path d="m11.537 40.537c3.059-.292 5.636.662 7.522 1.805 3.135 1.899 5.334 5.055 5.968 9.429.293 2.016-.045 3.742-.552 5.316-.947 2.946-2.874 5.409-5.266 6.871-2.712 1.658-5.652 2.494-9.73 1.605-2.971-.648-5.695-2.691-7.222-4.915-1.204-1.753-1.934-3.583-2.207-6.269-.239-2.366.385-5.217 1.305-6.971.873-1.667 2.183-3.362 3.911-4.564 1.677-1.164 3.752-2.067 6.271-2.307z"/><path d="m39.07 40.738c4.142-.223 7.712 1.765 9.679 4.012 1.843 2.106 3.878 6.205 3.059 10.332-1.046 5.276-4.476 9.203-9.68 10.331-2.693.584-5.42.175-7.772-.853-3.887-1.696-7.159-5.872-7.223-11.033-.058-4.778 2.187-8.047 4.765-10.231.601-.509 1.615-.978 2.458-1.404 1.293-.655 2.738-1.047 4.714-1.154z"/><path d="m52.059 68.221c.208 1.531.15 3.331.15 5.115 0 1.759.114 3.612-.15 5.166-8.593.171-17.234.149-26.129.15-6.671.001-13.373-.001-19.56 0-2.112 0-4.177.132-6.118-.1-.167-3.179-.166-7.051 0-10.231 8.204-.17 16.702-.151 25.226-.15 2.842 0 5.681.13 8.476 0 2.837-.132 6.219.09 9.228-.05 1.472-.068 2.956 0 4.413 0 1.497-.001 3.004-.083 4.464.1z"/></g></svg>