<svg clip-rule="evenodd" fill-rule="evenodd" stroke-linejoin="round" stroke-miterlimit="2" viewBox="0 0 560 400" xmlns="http://www.w3.org/2000/svg"><path d="m776 0v776h-776v-775.867m110.667 112v554.667h554.666v-554.8zm276 165.334 257.333 102.266v118.667l-256-101.333-256 102.666v-120m32 486.934h33.333l-41.333 44 38.667 40.666c8.533-.533 23.333 5.334 27.2-5.333 1.333-12 .4-36.8.4-36.8h23.733l.533 39.333c1.334 5.6 11.067 5.867 14.267.4v-39.6l24-.266.133 40c6.4 6.4 10.4 4.533 15.734 1.333.8-14 .266-41.333.266-41.333h24l.4 40.8c8 7.333 23.6 4 31.467 2.266 1.067-10.133-2.667-24.8 4-35.466 12-13.334 32-8.8 48-7.6 12.4 2.666 18.133 17.733 17.867 28-.4 11.066 1.733 24-4.667 32.8-18.667 14.666-42 11.333-59.467 3.066-14.666 8.534-35.2 8.8-49.6-.666-11.733 9.333-27.2 6.666-39.466 0-11.6 8.4-27.6 8-39.2 0-6.667 2.266-13.734 4.8-21.067 4.533l-109.333-2c-5.334 12.267-12.667 25.067-26.667 29.33-17.44 4.22-35.678 3.85-52.933-1.06-12.934-4.937-19.334-17.87-24.8-29.337v-64.533h24s-.934 35.6 1.333 53.333c13.333 27.2 53.867 12.534 54.667 0l.266-53.333h23.734l.266 42.667 55.067-.134-38.8-41.066 44-43.734m216 62.4v26.667h24v-26.667zm205.333-62.666 33.067-.267-42.667 44.933 40.267 40 31.467.134c.4-14.134-.267-28.267.133-42.667h25.333c-.266 20.933 6.267 55.333-17.733 66l-180 1.6c-12.667.133-21.333-8.4-25.333-18.667-2-12.266-1.334-37.333-1.334-37.333h24c1.334 8-1.6 26.933 3.067 30.4h103.733l-38.4-41.067zm110.667 0h23.733l1.6 81.066c6.4 7.734 21.334 6 28.934.934l.4-39.2h25.333v46.133c-8.667 30.667-77.6 24.533-80-.667zm-654.667 21.333h22.667v24h-22.667zm573.334 0h22.666v24h-22.666zm109.333 96h22.667v22.67h-22.667z" fill="#f05a23" fill-rule="nonzero" transform="matrix(.257555 0 0 .257555 180.137 70.3152)"/></svg>