<svg enable-background="new 0 0 182.407 181.368" viewBox="0 0 182.407 181.368" xmlns="http://www.w3.org/2000/svg"><path clip-rule="evenodd" d="m84.175.051c.363.176-.283.331-.461.409-6.086 2.69-10.686 7.295-12.19 14.598-.42 2.04-.564 4.118-.308 6.403.073.646.263 1.292.308 1.997.042.645-.162 1.298-.256 1.998-.557 4.158.272 8.341 1.69 11.319.204.43.711 1.102.717 1.485.005.351-.449.959-.666 1.435-1.486 3.259-2.358 7.787-1.485 12.344.787 4.105 2.514 7.105 4.917 9.731.29.316.916.945.922 1.127.014.36-1.283 1.589-1.536 1.896-2.5 3.023-4.504 7.014-4.61 12.344-.129 6.518 2.49 11.248 5.788 14.546 1.137 1.137 2.373 2.175 3.79 3.022 1.432.855 3.049 1.367 4.661 2.1-.392.438-1.016.559-1.536.769-1.592.642-3.121 1.438-4.456 2.356-4.539 3.579-8.696 9.003-8.093 17.414.182 2.53.843 4.79 1.741 6.762 1.688 3.701 4.553 6.878 8.144 8.912 3.66 2.072 8.623 3.339 14.086 2.253 2.325-.462 4.288-1.374 6.095-2.458 1.816-1.09 3.337-2.305 4.661-3.842 2.618-3.037 4.8-6.819 5.02-12.036.239-5.652-1.591-9.814-4.046-13.01-2.521-3.281-5.806-5.45-9.937-7.068.649-.586 1.506-.808 2.254-1.127 3.748-1.604 6.941-4.504 8.912-7.99 1.609-2.85 2.806-6.209 2.714-10.808-.111-5.632-2.527-10.095-5.429-13.163-.273-.289-.753-.631-.769-.871-.024-.38.583-.808.922-1.178 2.296-2.508 4.141-5.77 4.866-9.783.734-4.064.24-7.887-.922-10.91-.385-.999-.956-1.863-1.281-2.868.369-1.079.912-2.008 1.281-3.073.699-2.02 1.335-4.6 1.229-7.427-.024-.664-.072-1.33-.153-1.998-.073-.607-.283-1.232-.307-1.844-.027-.684.225-1.367.307-2.049 1.018-8.422-2.78-14.593-7.222-18.233-1.307-1.071-2.718-1.902-4.354-2.664-.479-.224-1.108-.367-1.434-.871 5.083.239 9.873 1.014 14.342 2.1 8.817 2.142 16.638 5.268 23.663 9.168 3.478 1.932 6.712 4.192 9.886 6.505 3.076 2.242 6.089 4.867 8.86 7.581 8.265 8.088 15.273 17.734 20.232 28.99 3.3 7.489 5.912 16.176 7.068 25.764 1.215 10.07.536 21.223-1.434 30.168-3.935 17.863-12.274 31.61-22.845 42.82-10.7 11.278-23.738 19.891-40.72 24.943-5.662 1.685-11.844 2.914-18.541 3.329.097-.334.511-.441.768-.562 4.678-2.216 8.498-5.563 10.603-10.449 1.157-2.686 1.884-6.147 1.588-9.578-.289-3.361-1.332-6.065-2.715-8.503-2.585-4.557-7.447-8.143-13.163-9.321-7.135-1.472-13.309 1.298-17.107 4.559-2.327 2.094-4.325 4.668-5.532 7.99-1.179 3.247-1.691 7.751-.665 11.678 1.6 6.123 5.382 10.441 10.551 13.061.715.362 1.53.606 2.203 1.127-3.4-.031-6.66-.545-9.783-1.075-9.237-1.568-17.344-4.59-24.637-8.195-4.766-2.355-9.4-5.162-13.573-8.297-8.375-6.293-15.596-13.57-21.461-22.332-.372-.555-.647-1.159-1.025-1.741-5.35-8.24-9.584-17.651-12.088-28.889-1.329-5.971-2.392-12.752-2.201-19.565.097-3.509.201-6.901.562-10.193 1.615-14.719 6.213-26.605 12.395-36.881.692-1.15 1.287-2.335 1.997-3.432 2.81-4.34 6.231-8.326 9.732-12.14 3.436-3.741 7.364-7.193 11.524-10.397 8.23-6.339 17.775-11.385 28.99-14.751 2.782-.835 5.729-1.552 8.81-2.151 3.236-.629 6.761-1.172 10.142-1.28z" fill-rule="evenodd"/></svg>