<svg enable-background="new 0 0 78.149 71.627" viewBox="0 0 78.149 71.627" xmlns="http://www.w3.org/2000/svg"><path clip-rule="evenodd" d="m34.395.181c.315 1.199.195 2.545.195 3.903 0 3.969-.089 8.337.098 12.05 6.995.303 14.381.146 21.465.146 3.575 0 7.252.05 10.928.049 3.661 0 7.352-.118 10.927.147.187 9.01.146 18.619.098 27.563-.05 9.307.183 18.507-.098 27.514-25.557.147-52.224.044-77.859-.049-.182-11.669-.147-23.588-.147-35.759 0-10.615.049-20.72.049-31.173 0-1.466-.139-2.942.098-4.391 2.344-.098 5.292-.105 7.659 0 .263 1.331.146 2.704.146 4.049v28.49c0 5.453-.056 10.801 0 16.147.042 3.983.11 8.002 0 11.952-.037 1.326-.086 2.685.147 4 1.231.262 2.501.146 3.756.146 3.845.001 7.798.094 11.708 0 2.554-.061 5.135-.108 7.708 0 2.604.11 5.217-.082 7.805 0 5.126.162 10.292.048 15.464.049 5.179.001 10.377.08 15.513-.098.261-.839.146-1.729.146-2.586 0-13.13.026-26.282-.098-39.222-.661-.263-1.395-.146-2.098-.146-10.961-.001-22.615-.054-33.271.049-.264 1.304-.146 2.725-.146 4.098 0 4.088-.05 8.323.049 12.488.043.022.087.043.098.099 3.527.334 7.343.029 10.977.194 3.734.17 7.452-.198 11.074.049.214 1.901.149 4.457 0 6.439-1.198.263-2.462.146-3.708.146-8.828.001-17.475.018-26.294-.195-.26-.791-.147-1.794-.147-2.78 0-13.974 0-28.189 0-42.394 0-.696-.071-1.031.537-1.122.483-.071 1.135-.014 1.708 0 1.702.046 3.863.002 5.513.148z" fill-rule="evenodd"/></svg>