<svg enable-background="new 0 0 78.012 57.958" viewBox="0 0 78.012 57.958" xmlns="http://www.w3.org/2000/svg"><g clip-rule="evenodd" fill-rule="evenodd"><path d="m73.469 31.493c1.651 1.71 2.589 3.43 3.396 5.659.809 2.235 1.155 5.083.688 7.922-.83 5.055-3.615 8.425-7.282 10.728-1.834 1.151-4.214 1.897-6.987 2.067-2.735.166-5.865.049-8.956.049-12.033 0-23.297-.05-35.528-.049-3.127 0-5.968-.014-8.267-.738-2.156-.681-4.129-1.916-5.61-3.396-1.518-1.518-2.748-3.087-3.69-5.363-.871-2.104-1.4-4.86-1.083-7.628.536-4.666 2.479-8.017 5.314-10.481.277-.24 1.1-.747 1.132-1.082.051-.54-1.098-1.226-1.525-1.624-2.649-2.471-4.544-6.195-5.019-10.727-.198-1.887.209-3.751.688-5.462 1.273-4.54 4.553-8.228 8.808-10.038 1.463-.622 3.263-1.179 5.167-1.279 2.098-.111 4.223-.001 6.299 0 2.045 0 4.062-.001 6.052 0 8.033.002 15.959.05 24.259.049 4.163 0 8.388-.188 12.45.05 3.992.233 6.64 1.566 8.906 3.641 2.27 2.079 4.004 4.248 4.871 7.628.907 3.534.389 7.947-.836 10.678-.911 2.029-2.302 3.961-3.937 5.462-.402.371-1.555 1.068-1.574 1.525-.023.54.785.948 1.132 1.23.499.405.743.7 1.132 1.179zm-7.381-2.854c2.174-.575 3.81-1.729 5.216-3.002 1.645-1.668 2.774-3.649 3.493-6.053.786-2.628.579-5.853-.245-8.267-1.445-4.229-5.134-7.853-10.776-8.415-2.944-.293-6.211-.099-9.497-.098-7.95 0-16.034-.001-23.866 0-1.946 0-4.421-.178-5.807.196.183.568.71.907 1.082 1.279 2.655 2.654 4.905 6.664 4.626 12.106-.143 2.794-1.031 5.494-2.165 7.381-.858 1.429-1.908 2.817-3.198 3.936-.407.353-1.156.859-1.132 1.279.021.376.814.855 1.181 1.182 1.323 1.175 2.286 2.517 3.149 3.985 1.148 1.951 2.116 4.365 2.067 7.382-.092 5.624-2.011 8.998-4.724 11.907-.341.366-.989.685-.984 1.329.302.356.764.147 1.132.147 10.542.004 21.352.1 31.591.099 3.683 0 7.726.339 10.482-.64 5.261-1.87 8.641-7.109 7.479-14.222-.502-3.072-1.971-5.476-3.839-7.282-1.643-1.589-3.818-2.783-6.348-3.347-.334-.073-.809-.019-1.082-.344.686-.362 1.464-.353 2.165-.538zm-54.03-25.244c-2.372.776-4.335 2.002-5.758 3.543-1.776 1.925-3.575 4.914-3.543 8.906.028 3.488 1.3 5.963 2.953 7.972 1.697 2.064 3.854 3.501 6.79 4.134 3.221.694 6.39.047 8.857-1.378 2.299-1.327 4.057-3.334 5.167-5.807 1.368-3.048 1.477-7.164.098-10.284-1.255-2.842-3.298-5.154-6.003-6.446-1.5-.716-3.819-1.178-5.806-1.082-.99.047-1.893.161-2.755.442zm.295 26.327c-2.548.604-4.548 1.934-6.003 3.444-1.922 1.995-3.607 5.098-3.641 8.956-.035 3.963 1.65 6.923 3.592 9.005 2.063 2.212 5.118 3.686 8.857 3.789 3.935.108 6.838-1.72 8.858-3.74 2.173-2.173 3.507-5.105 3.641-9.005.135-3.9-1.682-7.085-3.543-9.054-1.859-1.967-5.311-3.813-8.907-3.789-.974.007-1.96.182-2.854.394z"/><path d="m33.562 7.283c7.243.002 14.797-.002 22.192 0 2.454.001 4.923-.159 7.037.246 3.775.724 6.544 3.815 6.544 8.267 0 4.647-1.842 7.943-4.478 10.284-1.067.949-2.319 1.841-3.888 2.461-.444.175-1.354.274-1.377.688-.025.454 1.038.658 1.377.787 3.897 1.487 6.614 4.462 7.873 8.563.667 2.169.72 5.041-.098 7.037-1.102 2.685-3.555 4.947-7.086 5.216-3.679.279-8.458 0-12.154 0-4.702-.001-9.432.001-14.271 0-.605 0-1.288.11-1.87-.147.175-.739.728-1.194 1.083-1.771 1.018-1.659 1.771-4.063 1.771-6.742 0-5.847-3.729-10.417-8.021-12.104-1.019-.401-2.071-.45-3.051-.936.396-.37 1.093-.431 1.673-.59 2.994-.824 5.062-2.317 6.742-4.576 1.282-1.725 2.312-3.667 2.657-6.299.506-3.859-.855-7.106-2.362-9.251-.206-.293-.545-.63-.492-1.033.074-.027.125-.075.199-.1zm16.484 20.322c1.226-.647 2.432-1.283 3.346-2.411.837-1.031 1.819-2.343 2.46-3.838.667-1.557 1.203-3.577 1.033-5.314-.158-1.62-1.372-3.173-2.805-3.592-1.53-.448-4.582-.045-6.102-.05-.292.641-.068 1.387-.098 2.067-.128 2.911-.39 4.958-1.378 7.085-1.456 3.136-3.902 5.392-7.086 6.644-.444.175-1.09.162-1.329.738.423.465 1.131.551 1.722.787.617.246 1.161.596 1.723.837.792.618 1.6 1.221 2.362 1.87 2.305 2.451 4.396 6.137 3.789 11.317-.074.628-.324 1.267-.148 1.87.81.301 1.884.098 2.953.147 1.075.05 2.234.156 3.1.049 1.081-.134 2.029-1.032 2.46-1.722 2.256-3.605-.931-8.667-2.707-10.925-.963-.989-2.075-1.828-3.297-2.559-.927-.527-2.073-.916-3.247-1.181-.357-.08-.835-.086-1.083-.394 1.514-.288 2.998-.72 4.332-1.425z"/></g></svg>