<svg enable-background="new 0 0 82.626 36.101" viewBox="0 0 82.626 36.101" xmlns="http://www.w3.org/2000/svg"><g clip-rule="evenodd" fill-rule="evenodd"><path d="m42.553 14.011c-.685-.093-1.043-.805-1.359-1.309-1-1.6-1.863-3.391-2.818-5.085-.947-1.679-1.879-3.415-2.77-5.186-.289-.576-.729-1.189-.654-1.863.357-.674 1.83-.547 2.719-.554.754-.005 1.644-.079 2.266.151.654.241 1.22 1.213 1.61 1.812.505.773 1.148 1.768 1.259 2.719.159 1.371 0 3.135 0 4.783v2.417c-.001.734.18 1.559-.253 2.115z"/><path d="m23.926 13.81c.535 1.192 1.745 1.426 2.215 2.819.466 1.38.323 3.608.352 5.538.03 1.986-.379 4.031.353 5.438.602.214 1.542.184 2.417.151.811-.03 1.713.043 2.164-.353.574-.503.457-1.959.504-3.071.098-2.317.098-4.552.151-6.796.027-1.171-.033-2.359.351-3.172.574.008.805.632 1.058 1.057 1.276 2.146 2.423 4.317 3.675 6.646.58 1.078 1.334 2.033 1.46 3.222.039.362-.049.917-.05 1.309-.005 1.898.181 4.757.05 7.048-.045.792-.125 1.729-.554 2.014-.655.436-3.961.298-4.732.05-.614-.198-.905-.682-1.309-1.259-.378-.541-.879-.952-1.208-1.359-.82-1.014-1.442-1.953-2.216-2.87-.572-.552-.873-1.375-1.711-1.661-.686.416-.764 1.266-.957 1.863-.635 1.959-1.804 3.805-3.776 4.682-2.115.941-5.339.554-8.256.554-1.41 0-2.956-.041-4.38.05-1.498.095-3.269.169-4.329-.403-.581-.314-1.079-.971-1.561-1.51-.946-1.061-1.64-2.19-2.568-3.474-.393-.543-1.176-1.282-1.058-1.863.19-.927 1.857-.755 3.374-.755h8.055c1.29 0 2.717.111 4.078 0 2.189-.179 3.776-1.641 4.178-3.776.184-.972.144-2.402.151-3.826.012-1.998.19-3.72-.604-5.034-.143-.236-.357-.528-.604-.806-.229-.257-.542-.492-.554-.806-.014-.366.426-.693.654-.957 1.099-1.264 1.137-2.258 1.259-4.883.113-2.438.217-4.547-.654-6.192-.306-.576-.646-1.138.351-1.258 2.922-.352 5.195.822 6.193 2.618.519 1.055.503 2.742.503 4.531 0 1.551.012 3.232-.453 4.178-.542 1.108-1.563 1.328-2.012 2.316z"/><path d="m55.643 28.661c-.447.25-.435.946-.453 1.56-.017.601-.05 1.281-.05 1.913 0 1.072.147 2.937-.453 3.474-.604.539-2.498.302-3.726.302-1.406 0-2.938.236-3.877-.151-.722-.297-1.203-1.071-1.661-1.611-.534-.628-1.048-1.235-1.41-1.862-.928-1.237-2.03-2.3-2.668-3.827.534-.788 1.888-.604 3.121-.604.973 0 2.837.234 3.474-.251.528-.403.453-1.954.453-3.071 0-3.369.193-6.478.102-9.817-.099-3.559-.001-6.913 0-10.421 0-1.047-.098-2.26.553-2.92.819.15 1.265.875 1.763 1.41 1.04 1.115 1.864 2.065 2.97 3.272.513.56 1.118 1.226 1.31 1.812.396 1.212.215 3.521.151 5.034-.173 4.093-.05 8.423-.051 12.788 0 .744-.088 1.594.453 2.114.059-.008.09.011.101.05 1.459.114 3.521-.077 5.186-.05.61.01 1.181.172 1.611-.101.696-.441.503-2.325.503-3.323 0-1.352-.144-2.732.252-3.575.575-.451 1.406-.316 2.215-.352.825-.038 1.732 0 2.618 0 1.749 0 3.635.161 4.934-.302.811-.289 2.105-1.527 2.417-2.316.578-1.462.369-3.839.402-5.991.038-2.438.248-5.168.101-7.199-.046-.639-.237-1.358-.453-1.812-.37-.774-1.098-1.341-1.361-2.114.205-.36.714-.439 1.157-.453 1.414-.045 2.612.392 3.625.855 1.519.697 2.797 1.838 3.272 3.474.34 1.172.302 2.782.302 4.229 0 2.964.223 5.787 0 8.86-.11 1.517.01 2.973-.252 4.229-.77 3.692-3.037 6.005-7.4 6.142-.71.022-1.426-.023-2.266 0-.702.019-1.609-.011-1.963.251-.676.502-.366 2.502-.403 3.675-.046 1.479.01 2.763-.352 3.675-.896.559-2.396.402-3.827.402-1.323 0-3.008.172-4.027-.201-.894-.328-1.887-1.938-2.467-2.668-.806-1.014-1.58-1.934-2.215-2.87-.623-.498-.871-1.375-1.711-1.659z"/><path d="m7.161 9.682c-.196-.533-.151-1.276-.15-2.065 0-1.459-.143-2.369 1.107-2.618 1.217-.243 3.359-.076 3.725.705.229.489.151 1.615.151 2.366 0 .515-.119 1.217-.353 1.51-.715.901-3.711.939-4.48.102z"/><path d="m63.496 14.817c-.397-1.066-.251-2.757-.251-4.481-.001-.736 0-1.545 0-2.366-.001-1.312-.143-2.586.956-2.719 1.391-.167 3.467-.1 3.927.957.355.815.107 2.753.101 4.028-.01 1.864.322 4.21-.956 4.782-.571.256-1.386.173-2.014.151-.583-.02-1.243.024-1.763-.352z"/><path d="m11.541 21.462c-.798.658-3.504.972-4.38.151-.302-.867-.101-2.478-.101-3.574 0-1.392-.041-2.121 1.359-2.266 1.82-.188 3.409.065 3.574 1.662.148 1.414.071 3.129-.452 4.027z"/></g></svg>