<svg enable-background="new 0 0 57.993 69.539" viewBox="0 0 57.993 69.539" xmlns="http://www.w3.org/2000/svg"><g clip-rule="evenodd" fill-rule="evenodd"><path d="m57.759 41.539c-.148.591-2.332.5-3.578.554-1.453.065-2.705-.102-3.881-.05-2.451.108-5.219 0-7.762 0-3.809 0-7.697.05-11.643.05-1.213 0-3.213.172-3.629-.302-.477-.543-.215-2.342-.252-3.175-.049-1.091-.252-2.828.303-3.276.42-.34 1.967-.252 2.822-.252 5.186.001 9.834-.05 15.119-.05.93 0 2.037.014 3.025-.05 1.002-.065 2.221.284 2.672-.353.248-.353.1-1.43.1-2.218.002-2.269 0-5.055 0-7.107.002-3.157-.16-6.361-.906-8.619-.736-2.225-2.178-4.332-3.781-5.746-1.721-1.519-3.756-2.668-6.35-3.175-2.701-.527-5.846-.504-9.023-.504-6.172 0-12.887-.224-16.884 2.066-1.922 1.102-3.584 2.79-4.788 4.688-2.4 3.785-2.485 10.292-2.519 16.532-.017 2.981-.038 6.302.101 9.224.159 3.34.082 6.221.403 9.123.334 3.018.906 5.205 2.218 7.309 1.184 1.9 2.8 3.652 4.839 4.688 3.755 1.908 9.467 1.406 15.071 1.562.842.023 1.898-.034 2.217.353.361.438.252 2.107.252 3.226 0 1.046.195 2.723-.303 3.176-.51.463-2.877.302-3.779.302-4.041.001-8.067.108-11.442-.605-2.354-.498-4.26-1.146-5.947-2.167-4.897-2.964-8.604-7.845-9.727-14.617-.764-4.594-.657-10.11-.657-15.426 0-5.429-.199-10.993.201-15.826.637-7.683 3.437-12.561 8.165-16.179 1.537-1.176 3.243-2.274 5.142-2.974 1.992-.734 4.22-1.211 6.754-1.361 2.432-.143 5.055-.074 7.762-.302 1.295-.109 3.162-.038 4.535 0 1.451.04 2.877.044 4.285.101 2.854.114 5.463.609 7.66 1.31 3.168 1.01 5.9 3.257 7.963 5.494.723.782 1.236 1.764 1.816 2.671 1.152 1.803 2.16 3.945 2.721 6.3.588 2.468.707 5.169.705 8.266 0 5.12.201 10.338.203 15.322 0 .649.149 1.412-.203 2.017z"/><path d="m49.292 56.004c-1.258.542-3.992.329-5.695.403-5.938.261-11.775-.144-17.541.05-3.977.134-7.057-.625-9.273-2.47-2.276-1.894-2.836-4.78-3.074-8.72-.114-1.873-.152-3.787-.151-5.695.001-5.624-.408-11.993.252-17.338.456-3.694 1.698-6.064 4.586-7.258 2.894-1.195 6.956-.87 10.938-1.059 2.336-.11 4.977.068 7.258.303 2.434.25 4.014.812 5.342 2.167 1.852 1.888 2.471 4.814 2.471 8.82 0 1.11.197 2.855-.354 3.377-.467.443-2.045.252-3.074.252-1.027 0-2.674.178-3.125-.201-.568-.479-.373-2.256-.402-3.125-.068-1.876-.178-3.394-1.514-4.082-1.545-.799-4.418-.504-6.754-.504-1.105 0-2.445.05-3.527.101-2.289.107-4.105.253-4.789 1.915-.613 1.493-.503 4.019-.503 5.948 0 1.104-.051 2.146-.051 3.175-.001 2.985.15 6.046.151 9.375 0 2.82-.029 6.215 1.865 7.207 1.475.773 3.961.593 6.451.706 2.275.103 4.885.009 6.904.101 1.941.088 4.568-.117 6.957-.05 1.047.029 1.949 0 3.477 0 1.119 0 2.742-.193 3.176.353.414.519.215 2.196.252 3.074.052 1.271.179 2.306-.253 3.175z"/></g></svg>