<svg enable-background="new 0 0 66.53 81.357" viewBox="0 0 66.53 81.357" xmlns="http://www.w3.org/2000/svg"><path clip-rule="evenodd" d="m.171 81.128c-.336-5.389-.078-11.392-.05-16.911.474-.263 1.05-.151 1.564-.151 8.349 0 17.046.101 25.24.101 4.632 0 9.318.253 13.629-.051 2.036-.143 3.749-.733 5.099-1.716 1.271-.925 2.483-2.275 3.13-3.686.204-.445.288-1.028.454-1.564.496-1.601.211-3.558-.353-5.048-.432-1.139-1.425-2.234-2.373-3.029-1.021-.856-2.178-1.506-3.584-1.767-1.776-.328-3.321.015-4.695.505-.677.242-1.165.601-1.716.959-.526.343-.985.848-1.666 1.01-.786-1.032-1.335-2.313-2.019-3.534-1.633-2.913-3.169-5.948-4.897-8.985-.254-.446-.916-1.421-.858-1.868.088-.685 1.883-1.549 2.423-1.868.987-.582 1.688-1.133 2.373-1.868 1.154-1.499 2.015-3.037 2.12-5.351.208-4.599-2.547-7.804-6.007-8.935-1.836-.6-4.328-.455-6.159.505-1.78.934-2.902 2.136-3.786 3.685-.964 1.69-1.11 3.556-1.11 6.36 0 4.761.084 9.884-.101 14.791-5.394.214-11.296.141-16.658-.101-.186-5.75-.1-11.401-.101-16.709-.001-5.305 1.503-9.677 3.584-13.175 3.595-6.039 8.976-10.863 17.012-12.315 5.518-.997 11.873-.14 15.801 2.12 3.056 1.759 5.806 3.959 7.874 6.512 1.066 1.316 1.942 2.83 2.827 4.392.896 1.581 1.506 3.316 2.02 5.199.518 1.902.855 4.07.959 6.259.104 2.219-.336 4.392-.556 6.613.741.808 1.843 1.027 2.726 1.464 2.773 1.369 5.101 3.173 7.169 5.351 2.688 2.833 4.894 6.313 6.058 10.651.613 2.285 1.111 4.881.959 7.319-.486 7.759-3.304 13.349-7.471 17.517-4.198 4.198-9.117 7.521-17.567 7.521-13.791.001-27.772.136-41.294-.202z" fill-rule="evenodd"/></svg>