<svg enable-background="new 0 0 62.266 76.617" viewBox="0 0 62.266 76.617" xmlns="http://www.w3.org/2000/svg"><path clip-rule="evenodd" d="m.221 76.384c-.167-5.119-.168-10.958 0-16.129 12.334-.207 23.979-.151 36.592-.151 3.168 0 5.565-.56 7.157-2.218 1.516-1.578 2.714-3.861 2.469-6.804-.218-2.618-1.671-4.619-3.527-5.847-1.891-1.25-4.921-1.601-7.409-.403-.999.481-1.627 1.195-2.722 1.663-2.61-4.479-5.203-8.976-7.611-13.659.978-.925 2.237-1.431 3.276-2.218 1.985-1.502 3.509-4.169 3.176-7.711-.271-2.886-2.429-5.188-4.638-6.3-1.287-.648-2.865-.9-4.637-.655-1.462.202-2.665.969-3.679 1.814-.979.815-1.873 1.814-2.369 3.075-.515 1.308-.454 2.844-.454 4.587 0 5.137.093 10.249-.101 15.07-4.957.167-10.617.167-15.574 0-.359-5.291-.015-10.679-.151-15.575-.067-2.412.227-4.828.807-6.955 1.16-4.266 2.934-7.47 5.443-10.282.637-.713 1.215-1.41 1.915-2.016 3.369-2.911 8.323-5.367 14.214-5.645 4.307-.203 8.185.858 11.189 2.369 3.128 1.573 5.521 3.482 7.61 5.897 2.035 2.352 3.743 5.442 4.688 8.871.492 1.789.86 3.749.957 5.796.097 2.044-.275 4.085-.353 6.199.622.814 1.643 1.112 2.47 1.512 2.616 1.267 4.838 2.943 6.805 4.99 3.817 3.974 6.502 9.408 6.502 17.187-.001 2.439-.466 4.739-1.109 6.754-1.896 5.942-5.555 10.322-10.383 13.306-1.62 1.002-3.437 1.885-5.393 2.47-2.13.637-4.42.933-6.805 1.109-2.395.177-4.869-.051-7.409.051-2.532.101-5.138.05-7.762.05-6.422.001-12.89 0-19.455 0-1.252 0-2.532.15-3.729-.202z" fill-rule="evenodd"/></svg>