<svg enable-background="new 0 0 81.075 33.985" viewBox="0 0 81.075 33.985" xmlns="http://www.w3.org/2000/svg"><g clip-rule="evenodd" fill-rule="evenodd"><path d="m.242 0c3.215 1.715 8.743 1.368 13.648 1.369 3.013 0 6.107-.061 9.147 0 1.025.021 2.059-.035 2.936.098 2.083.316 3.992 2.766 2.738 5.136-.442.837-1.286 1.433-2.005 2.055-.728.629-1.357 1.271-1.908 2.103-.908 2.372 1.163 4.504 3.473 3.57 1.321-.533 2.073-2.3 2.837-3.619 1.061-1.831 2.155-3.621 3.229-5.479 1.134-1.962 2.452-3.969 5.234-4.109 1.854-.094 3.399.779 4.305 1.81.41.469.553 1.107 1.026 1.516 10.351.108 21.295.196 31.696.196 1.488 0 2.967-.119 4.402.147.091 9.337.128 19.221-.049 29.104-8.914.199-17.986 0-27.196 0-3.036 0-6.091.111-9.049-.146-.323-9.054.182-18.588-.196-27.539-.979-.075-1.653.288-2.249.685-1.544 1.029-2.277 3.062-2.251 5.625.026 2.422.779 4.543 1.126 6.701.863 5.381-.672 8.936-3.571 11.495-1.361 1.201-3.101 2.171-5.233 2.592-2.13.421-4.835.152-7.484.245-2.585.09-5.263 0-7.777-.05-2.5-.049-4.871.075-7.093-.146-.121-4.001-.132-8.317 0-12.375.339-.162.522.277.686.44 1.406 1.406 3.482 2.742 6.114 2.983 1.945.179 3.739-.246 5.087-.88 1.336-.628 2.505-1.604 3.18-2.788-.669-.406-1.649-.245-2.642-.245-2.765.001-5.772.066-8.511-.049-6.872-.289-11.103-4.436-12.671-10.222-.586-2.163-.9-4.559-1.125-7.436-.066-.854-.178-2.023 0-2.689.036-.046.089-.075.146-.098zm1.615 2.445c-.315.311-.044 1.908 0 2.396.665 7.363 3.574 12.69 10.321 13.794 1.551.254 3.301.125 5.185.195 2.648.1 5.392.049 8.022.049.851 0 1.748-.115 2.544.146.016.392-.253.791-.44 1.125-.438.782-.89 1.374-1.419 2.006-.273.328-.473.716-.733.979-1.486 1.5-3.671 2.553-6.212 2.886-2.247.294-4.259-.194-5.82-.831-.542-.222-1.043-.521-1.614-.587-.258.988-.146 2.26-.146 3.473 0 1.255-.072 2.511.098 3.57 1.184.263 2.441.147 3.668.147 5.029 0 10.369.05 15.359.049 1.242-.001 2.28-.276 3.229-.637 1.72-.653 3.216-1.962 4.255-3.473 1.032-1.499 1.813-3.541 1.614-5.968-.19-2.318-.747-4.231-1.174-6.554-.841-4.581.297-8.247 3.131-9.881.296-.171 1.132-.443 1.174-.782.048-.39-.671-.93-1.027-1.174-.458-.315-1.067-.536-1.614-.588-3.045-.283-3.657 2.089-4.794 3.865-1.158 1.811-2.23 3.699-3.277 5.526-.576 1.007-1.057 2.017-1.711 2.69-.953.98-2.892 1.8-4.55 1.223-2.242-.779-3.971-3.722-2.445-6.407.49-.862 1.04-1.234 1.858-2.103.634-.962 2.174-1.192 1.957-2.886-.221-1.693-2.141-1.71-4.113-1.71-3.193 0-6.252-.049-9.293-.049-4.365 0-8.731.162-11.887-.586-.057.023-.11.051-.146.097zm69.555 3.816c-2.665 0-5.386-.05-8.12-.05-4.122.001-8.118.078-12.13-.048-1.235-.039-2.974-.19-4.109 0-.613.103-.567.54-.587 1.272-.209 7.957.078 16.721.098 24.506 1.305.264 2.661.146 4.012.146 4.149 0 8.294.048 12.424.049 4.063.001 8.261.049 12.375.049 1.333 0 2.659.149 3.913-.098.141-8.392.209-17.8.049-25.68-2.58-.249-5.23-.146-7.925-.146z"/><path d="m39.618 3.521c1.608-.32 1.612 2.055.244 2.055-.646 0-1.121-.492-1.076-1.321.176-.347.378-.666.832-.734z"/><path d="m57.129 8.363c2.644 1.346 5.165 2.868 7.728 4.402.315.189.8.434 1.273.734.433.275 1.021.678 1.32.685.304.007.752-.327 1.125-.538 1.849-1.046 3.607-1.891 5.38-2.934.682-.401 1.379-.877 2.201-.979.181.465.1 1.364.049 1.907-.98.701-2.116 1.285-3.228 1.859-1.101.568-2.246 1.115-3.131 1.907.345.482.956.786 1.468 1.076.545.309 1.07.626 1.613.93 1.081.603 2.257 1.087 3.131 1.907-.323.532-.994.691-1.517.978-.525.289-1.035.639-1.564.929-1.071.588-2.241 1.029-3.131 1.81.26.616.992.79 1.517 1.076.541.296 1.084.624 1.614.929 1.087.626 2.21 1.235 3.179 1.957.14.516.161 1.495 0 2.005-.857-.164-1.536-.736-2.249-1.125-1.436-.78-2.826-1.579-4.305-2.397-.709-.392-1.358-.959-2.201-1.125-.952.267-1.745.887-2.593 1.369-2.08 1.186-4.276 2.339-6.407 3.522-.401.223-.829.54-1.321.538-.267-.724-.146-1.654-.146-2.593-.001-4.439.041-8.932.049-13.451.003-1.699-.143-3.718 0-5.233.027-.068.076-.117.146-.145zm1.859 3.474c-.171.67-.098 2.652-.098 3.521 0 1.319-.114 2.559.147 3.473 2.256-.972 4.368-2.088 6.261-3.424-.279-.514-.889-.749-1.369-1.027-1.57-.905-3.165-1.761-4.696-2.641-.032 0-.065 0-.098 0-.058.024-.111.052-.147.098zm10.859 6.017c-.771-.434-1.633-1.09-2.396-1.224-.062-.011-.144.026-.196.049-.694.302-1.36.78-2.103 1.175-.715.378-1.457.818-2.006 1.32.531.635 1.337 1.005 2.055 1.418.723.417 1.381.995 2.201 1.273 1.255-.52 2.46-1.182 3.57-1.81.362-.205.826-.392 1.027-.783-.522-.557-1.347-.967-2.152-1.418zm-10.907 1.809c-.051 2.137-.145 4.742.048 6.799 1.13-.274 2.149-.99 3.18-1.566.517-.288 1.043-.589 1.565-.88.505-.282 1.175-.427 1.468-.979-.82-.723-1.824-1.232-2.936-1.859-.423-.238-.954-.544-1.516-.88-.506-.303-1.271-.773-1.712-.782-.061.02-.1.063-.097.147z"/></g></svg>