<svg enable-background="new 0 0 69.852 79.113" viewBox="0 0 69.852 79.113" xmlns="http://www.w3.org/2000/svg"><g clip-rule="evenodd" fill-rule="evenodd"><path d="m69.731 78.892c-1.26.328-2.72.195-4.243.195-10.247-.002-20.595-.152-30.923-.097-2.766.015-5.621.136-8.486 0-2.917-.139-5.898.124-8.828 0-4.865-.206-10.304-.006-15.022-.098-.659-.013-1.373.204-1.999-.098-.349-.569-.195-1.447-.195-2.292.001-25.182-.084-51.156.096-76.38 6.102-.195 12.894-.098 19.461-.098 16.177.001 31.982.146 48.14.146.631 0 1.338-.116 1.951.146.257.749.146 1.561.146 2.341-.002 12.339.003 24.492 0 36.824-.003 13.155.086 26.459-.098 39.411zm-63.698-76.965c-1.445 0-2.888-.159-3.901.146-.153 5.89-.183 12.31.048 17.852.904.256 1.883.146 2.829.146 6.071 0 11.954.049 17.852.049.972 0 1.966.116 2.878-.146.207-1.336.097-2.804.098-4.293 0-3.782-.001-7.754 0-11.462 0-.725.109-1.48-.146-2.146-6.143-.215-13.168-.146-19.658-.146zm7.706 74.526c11.534-.002 22.983.098 34.532.097 4.116 0 8.068.185 10.779-.927 1.286-.527 2.535-1.402 3.561-2.293 3.123-2.714 5.242-6.566 5.852-11.754.414-3.518.132-7.363.146-11.316.021-5.836.501-11.838-1.024-16.242-1.547-4.465-4.149-7.58-7.901-9.706-1.184-.67-2.93-.941-4.683-1.17-1.751-.23-3.778-.098-5.804-.098-14.391.001-29.109-.146-43.652-.144-1.013 0-2.145-.168-2.976 0-.478.097-.55.221-.536 1.366.019 1.728 0 3.253 0 4.975 0 14.366-.001 29.334 0 43.798 0 1.127-.111 2.286.145 3.268 3.897.262 7.749.147 11.561.146z"/><path d="m48.758 40.263c.268 1.514.119 3.125.195 4.731.075 1.599-.049 3.224-.049 4.829 0 3.242.101 6.498-.098 9.511-.881.29-1.846.065-2.78.097-5.655.195-11.785.001-17.655 0-.938 0-1.898.113-2.78-.146-.185-5.499-.098-11.038-.098-16.778 0-.766-.113-1.578.146-2.292 6.581-.279 13.886-.097 20.826-.097.765-.001 1.567-.11 2.293.145z"/></g></svg>