<svg enable-background="new 0 0 78.953 49.134" viewBox="0 0 78.953 49.134" xmlns="http://www.w3.org/2000/svg"><g clip-rule="evenodd" fill-rule="evenodd"><path d="m8.735.115c.165 16.595.192 32.68 0 48.847-2.614.228-6.004.232-8.617 0-.184-14.896-.097-30.636-.098-46.041 0-.878-.059-2.55.196-2.807.036-.046.09-.075.148-.099 2.758.066 5.777-.129 8.371.1z"/><path d="m11.443 48.962c-.258-.696-.147-1.481-.147-2.216 0-2.205-.139-4.467-.05-6.697.123-3.044-.148-6.102 0-9.208.144-2.999.051-6.073 0-9.11-.025-1.555.05-3.123.05-4.678 0-1.515-.12-3.052.147-4.53 3.479-.165 7.259-.351 10.095.443 2.95.827 5.345 1.8 7.436 3.397 2.003 1.531 3.75 3.38 5.071 5.761 1.265 2.279 2.319 5.266 2.216 8.568-.213 6.773-3.225 11.333-7.287 14.379-2.046 1.533-4.51 2.728-7.387 3.447-2.888.722-6.484.622-10.144.444z"/><path d="m42.317 12.425c.577.621.79 1.471 1.133 2.216 1.009 2.192 2.075 4.498 3.103 6.795 3.719 8.324 7.608 16.728 11.325 25.113.328.74.829 1.471.886 2.314-.57.29-1.28.12-1.969.147-1.949.078-4.264.084-6.254 0-.605-.555-.861-1.399-1.182-2.117-4.377-9.798-8.783-19.823-13.246-29.644-.345-.758-.654-1.544-.985-2.314-.334-.778-.808-1.515-.935-2.364.267-.254.765-.131 1.132-.147 2.169-.1 4.814-.066 6.992.001z"/><path d="m78.953 12.474c-.065.852-.549 1.601-.886 2.364-.997 2.253-2.132 4.498-3.201 6.746-3.941 8.282-7.688 16.663-11.571 25.015-.334.717-.595 1.542-1.183 2.117-4.895-10.522-10.058-21.066-14.821-31.712-.508-1.136-1.051-2.252-1.576-3.398-.147-.323-.445-.79-.246-1.182 10.905-.045 22.516-.138 33.484.05z"/></g></svg>