<svg enable-background="new 0 0 76.179 57.996" viewBox="0 0 76.179 57.996" xmlns="http://www.w3.org/2000/svg"><path clip-rule="evenodd" d="m.049.547c-.088-.523.472-.467.779-.486 2.142-.137 4.341 0 6.518 0 14.986.004 30.714.09 46.066.049 3.601.766 6.355 2.324 8.562 4.621 2.047 2.129 3.781 5.566 3.453 9.631-.326 4.047-2.065 6.75-4.329 8.853-1.863 1.732-3.722 2.537-7.005 2.871-.428.043-1.007.105-1.508.145-.357.029-1.092-.076-1.021.584-.209.719.791.496 1.362.486 3.949-.062 7.625.383 10.118 1.898 2.784 1.691 4.945 4.336 5.789 8.025.841 3.676.15 9.238.486 13.281.291 3.492 2.33 6.041 5.595 6.518.739.107 1.249.076 1.265.438.023.561-1.642.432-1.995.438-12.241.244-24.12-.049-35.899-.047-11.102 0-22.556-.049-33.808-.049-.528-.002-1.533 0-2.433 0-.481-.002-2.018.186-2.044-.342-.026-.547 1.257-.377 1.752-.486 1.661-.367 3.087-1.74 3.746-3.307.684-1.629.438-4.172.438-6.568 0-9.506-.001-18.482 0-27.922 0-2.297.143-4.596.048-6.859-.099-2.336.148-4.696-.049-6.955-.222-2.547-2.194-4.385-4.961-4.428-.265-.004-.876.146-.925-.389zm37.311 56.623c1.663.029 3.392.119 5.01-.049 2.963-.309 5.484-1.395 7.346-2.725 1.979-1.414 3.092-3.623 3.892-6.227.837-2.727 1.036-6.201.34-8.853-.705-2.684-1.795-5.104-3.405-6.713-1.733-1.732-3.761-2.992-6.421-3.697-2.031-.537-4.271-.682-6.908-.68-.759 0-1.913.268-2.141-.391.027-.234-.037-.285 0-.438.133-.545 2.538-.256 3.211-.291 3.404-.182 6.142-1.227 7.929-2.676 1.378-1.018 2.412-2.312 3.211-3.844.797-1.527 1.404-3.367 1.557-5.496.247-3.439-.953-6.238-2.286-8.416-1.978-3.23-5.603-5.424-10.216-5.838-1.57-.141-3.293-.047-5.107-.049-2.563 0-5.228-.059-7.686.049-.898.039-1.794-.164-2.627-.049-.754.105-.583.734-.583 1.557v5.4c0 12.264-.049 23.799-.049 35.607 0 3.545.113 6.986.049 10.41-.021 1.113-.22 2.32.146 3.309 5.051.237 9.938.01 14.738.1z" fill-rule="evenodd"/></svg>