<svg enable-background="new 0 0 37.896 39.725" viewBox="0 0 37.896 39.725" xmlns="http://www.w3.org/2000/svg"><path d="m16.888 2.074c1.305-1.568 3.461-2.265 5.455-2.029 1.777.111 3.536.655 5.02 1.651 1.877 1.184 3.347 3.34 3.073 5.632.026 1.576-.976 3.002-2.278 3.815 3.222-.067 6.736 1.05 8.604 3.833 1.661 2.76 1.441 6.436-.287 9.11-1.624 2.494-4.764 3.714-7.668 3.245-.474.665-1.018 1.302-1.692 1.771 1.359-.244 2.785-.513 4.145-.115.882.279 1.684.977 1.856 1.917.331 1.038-.532 2.165-1.573 2.294-.778.026-1.686-.328-1.934-1.133-.389-.893.632-1.772 1.496-1.487.058.054.117.107.177.161 0 .076.001.154.004.231-.049.049-.097.098-.144.148-.447-.07-1.123.02-1.076.619.31 1.225 2.319 1.155 2.563-.09.2-1.361-1.213-2.352-2.456-2.287-2.095-.138-4.079.681-6.002 1.396 1.031.105 2.02.448 2.912.972 1.949.989 2.438 3.729 1.269 5.494-1.625 2.537-5.26 3.071-7.88 1.933-1.605-.686-2.196-2.791-1.344-4.275.966-1.72 3.214-2.738 5.115-2.113 1.269.424 1.282 2.402.055 2.884-.666-.262.117-.651.279-.989.319-.565-.067-1.292-.674-1.439-1.334-.337-2.778.192-3.736 1.145-1.082.95-1.24 2.824-.141 3.824 1.398 1.126 3.376 1.156 5.045.734 1.692-.404 3.279-1.861 3.348-3.668.188-1.305-.647-2.541-1.744-3.18-1.973-1.067-4.331-.961-6.417-.304-3.195 1.112-5.888 3.391-9.178 4.3-2.394.703-5.439.551-7.161-1.474-1.695-2.034-.813-5.316 1.441-6.533 1.454-.835 3.317-1.001 4.895-.422-.639-1.742.43-3.685 2.145-4.27.034-4.135.077-8.271.058-12.408-.01-1.426-.412-3.067-1.753-3.813-1.46-.725-3.316-.74-4.718.141-1.172.678-1.954 1.94-2.163 3.263-.29 1.538.602 3.293 2.124 3.793.931.162 1.939.221 2.825-.143 1.283-.624 1.726-2.32 1.058-3.545-.694-1.386-3.225-1.544-3.701.104-.192 1.08 1.239 1.49 1.99.96.102.126.167.275.177.439-.811.667-2.262.357-2.629-.654-.377-1.018.435-2.11 1.412-2.381 1.145-.275 2.525.074 3.161 1.128.771 1.193.556 2.889-.454 3.878-.717.63-1.673.902-2.612.916-3.497.013-6.89 3.097-6.616 6.713.132 1.431.948 2.829 2.26 3.474 2.175 1.196 5.228.266 6.343-1.958.7-1.21.46-2.977-.698-3.823-1.235-.837-3.107-.803-4.143.346-.656.614-.922 1.749-.313 2.484.538.642 1.605.607 2.139-.026.245-.061.39.146.408.367-1.104 1.389-3.627.444-3.46-1.344.161-2.852 4.237-3.959 6.073-1.929.901.913 1.132 2.356.75 3.556-.964 2.851-4.65 4.293-7.293 2.856-2.224-1.033-3.114-3.864-2.358-6.105.617-2.446 2.823-4.241 5.181-4.922-1.536-.73-2.508-2.544-2.17-4.234.266-1.704 1.404-3.303 3.007-3.989 1.344-.66 2.95-.544 4.323-.035-.279-.909-.214-2.046.642-2.628.991-.684 2.591-.576 3.256.511.598.853.14 2.247-.915 2.454-.543.084-1.507-.114-1.404-.825.599.016 1.269.61 1.788-.024.692-.848-.239-2.086-1.224-1.99-.868-.08-1.822.567-1.769 1.506.246 1.794 1.833 2.973 3.266 3.864 2.903 1.854 6.414 2.755 9.849 2.373-.146-.846-.746-1.54-1.417-2.041-2.605.805-5.78-.721-6.621-3.359-.512-1.433-.156-3.103.829-4.251zm-.512 2.348c-.367 2.984 2.785 5.374 5.592 4.885-.887-.611-2.058-.869-2.743-1.765-.81-1.106-.364-2.891.925-3.42 1.441-.615 3.329-.011 4.061 1.404.495.946.391 2.103-.099 3.027 1.282.36 2.68 1.014 3.177 2.348 2.436-.792 3.311-3.949 2.172-6.108-1.287-2.599-4.214-3.948-6.988-4.214-2.571-.383-5.66 1.072-6.097 3.843zm3.739.336c-.851.514-1.082 1.91-.229 2.529 1.079.728 2.432.844 3.681 1.093.368-.642.578-1.409.332-2.134-.362-1.586-2.442-2.278-3.784-1.488zm-4.221 6.113c.02 3.982-.023 7.963-.056 11.943 2.145.013 4.552.857 5.553 2.901 1.566-.019 3.111.312 4.623.691.482-.742.441-1.728.559-2.586-2.759.062-5.925-1.344-6.858-4.11-1.129.09-2.715-.313-2.854-1.65.001-1.531 1.699-2.24 2.997-2.346.651-1.408 1.861-2.487 3.194-3.244.006-.031.018-.093.024-.125-2.468.111-4.959-.408-7.182-1.474zm11.682.948c.258 1.66-.426 3.33-1.477 4.595-.102.136-.391.383-.086.468 2.082 1.022 3.909 2.927 4.142 5.322 1.391-.748 2.201-2.571 1.697-4.084-.368-1.086-1.562-1.304-2.543-1.321.025-.13.053-.258.084-.387 1.23-.418 2.703.451 3.001 1.711.482 1.835-.522 3.853-2.177 4.722-.099 1.36-.37 2.782-1.128 3.94 2.907.476 6.009-1.031 7.345-3.673 1.257-2.503 1.315-5.702-.269-8.079-1.635-2.18-4.379-3.15-7.013-3.336-.519.113-1.081-.107-1.576.122zm-7.016 3.66c-.005.04-.016.12-.022.16 1.069-.055 2.124.119 3.17.313.431-1.092.719-2.267.553-3.444-1.478.608-2.845 1.605-3.701 2.971zm-.489 3.576c1.221-.295 2.334-1.035 3.027-2.09-.839-.47-1.796-.634-2.737-.775-.565.79-.484 1.937-.29 2.865zm-2.522-1.541c-.495 1.157 1.051 1.783 1.954 1.58-.231-.944-.02-1.895.053-2.84-.787.153-1.648.485-2.007 1.26zm2.7 2.132c.988 2.424 3.83 3.777 6.347 3.562.002-1.917-.706-3.876-2.104-5.22-1.26.882-2.72 1.446-4.243 1.658zm-4.409 3.702c-.018 2.407-.007 4.814-.018 7.222 1.825.362 3.727.563 5.564.174 1.975-.443 3.797-1.851 4.471-3.792-1.408-.367-2.843-.686-4.303-.699.141.937-.057 1.989-.816 2.616-.824.644-2.147.782-2.927-.002-.592-.586-.529-1.622.066-2.182.734-.765 1.865-.815 2.846-.994-.968-1.683-3.06-2.276-4.883-2.343zm-5.101 2.333c-.404 1.368.378 2.91 1.637 3.525.023-1.736.019-3.474.009-5.21-.719.348-1.397.9-1.646 1.685zm7.179 2.291c.39 1.255 2.273 1.08 2.835.046.356-.516.335-1.182.217-1.77-1.142.083-2.998.221-3.052 1.724zm-11.202.083c-1.716.429-2.98 1.962-3.157 3.713-.061 1.485.808 2.988 2.204 3.561 2.404 1.129 5.193.443 7.474-.665 2.126-.941 4.026-2.348 6.22-3.137-.398.038-.795-.119-1.186-.025-2.098-.229-4.285-.541-6.095-1.712.41 2.155-1.647 3.952-3.695 3.888-1.078.073-2.299-.587-2.489-1.722-.175-1.601 2.503-2.548 3.116-1.051-.057.055-.113.112-.169.169-.726-.526-1.996-.537-2.329.478-.238 1.095 1.13 1.697 2.034 1.557 1.39-.036 2.856-1.026 2.998-2.485-.01-.887-.424-1.827-1.237-2.253-1.1-.67-2.477-.577-3.689-.316z"/></svg>