<svg enable-background="new 0 0 43.51 76.488" viewBox="0 0 43.51 76.488" xmlns="http://www.w3.org/2000/svg"><path clip-rule="evenodd" d="m18.828 75.958c-.39-.503-.244-1.202-.244-1.805 0-4.021 0-8.062 0-12.245 0-.714-.111-1.516.049-1.951.22-.6 1.883-1.289 2.439-1.61 2.178-1.256 4.091-2.412 6.342-3.658.458-.254 1.104-.5 1.122-.878.021-.433-.761-.78-1.073-.976-.492-.309-.956-.589-1.317-.732-1.276-.732-2.566-1.517-3.854-2.293-1.264-.762-2.738-1.29-3.659-2.438-.089-4.727-.049-9.393-.049-14.392 0-.71-.091-1.472.098-1.951.255-.649 1.716-1.258 2.39-1.658 2.225-1.324 4.027-2.319 6.342-3.659.434-.251 1.1-.525 1.122-.878.035-.546-.92-.884-1.512-1.22-3.403-1.933-6.907-3.839-10.245-5.903-.535-.331-1.17-.742-1.853-.731-.466.419-.293 1.136-.293 1.659 0 19.361.138 38.246-.098 57.516-.798.452-2.111.293-3.415.293-2.441-.001-4.799 0-7.269 0-.96 0-3.262.193-3.61-.244-.378-.476-.146-3.166-.146-4.244 0-18.792-.048-36.807-.049-55.37 0-1.37-.065-2.811 0-4.244.052-1.14-.189-3.486.098-4.146.203-.465 1.15-.84 1.659-1.122 3.567-1.981 6.934-4.106 10.537-6.098.534-.295 1.495-1.015 2.001-.976.571.044 1.344.586 1.951.927 4.337 2.433 8.301 4.839 12.684 7.269 4.076 2.26 8.442 4.953 12.684 7.317.625.349 1.57.798 1.708 1.269.292 1.007.049 2.744.049 4v10.099c0 .693.091 1.516-.049 1.951-.234.728-1.613 1.308-2.342 1.708-2.297 1.262-4.07 2.296-6.391 3.658-.411.241-1.057.6-1.073.927-.03.591 1.867 1.481 2.341 1.757 1.849 1.07 3.258 1.993 5.123 3.073.737.427 2.129 1.035 2.342 1.756.124.422.049 1.229.049 1.903v12.195c0 .691.109 1.55-.049 2-.15.429-.856.698-1.415 1.024-3.573 2.09-7.164 4.109-10.684 6.244-3.562 2.161-7.101 4.177-10.781 6.147-.516.274-1.042.66-1.66.73zm-7.367-72.298c-1.714.999-3.106 1.847-4.927 2.879-.432.244-2.315.998-2.292 1.609.019.52 1.549 1.152 2.146 1.464.852.444 1.762.964 2.342 1.317 1.598.975 3.204 1.783 4.683 2.634 4.759 2.734 9.229 5.349 13.903 7.952 1.562.87 3.21 1.72 4.586 2.732 1.403 1.032 3.073 1.789 4.585 2.732 1.135.707 2.353 1.362 3.464 2 .385.221.837.574 1.317.439.461-.677.244-1.676.244-2.635 0-2.01 0-3.924 0-5.952 0-.925.191-2.297-.049-2.975-.149-.423-.938-.783-1.512-1.122-2.89-1.704-5.704-3.349-8.439-4.976-3.407-2.026-6.962-3.905-10.245-5.806-1.605-.929-3.44-1.914-5.122-2.927-.628-.378-1.432-.904-2-.731-.958.341-1.878.897-2.684 1.366zm-9.366 8.196c0 19.565.001 38.909 0 58.393 0 1.141-.205 3.405.195 3.855.326.365 1.696.243 2.537.243 1.822.001 3.37 0 5.171 0 .887.001 2.052.069 2.341-.243.311-.336.24-2.452.244-3.415.064-17.097-.049-34.358-.049-51.467 0-1.173.177-2.905-.098-3.61-.25-.643-1.567-1.193-2.292-1.609-2.161-1.24-4.096-2.373-6.245-3.513-.543-.288-1.142-.817-1.61-.487-.29.182-.194 1.139-.194 1.853zm20.05 31.416c3.025-1.653 5.893-3.409 8.83-5.171 2.517-1.509 5.083-2.815 7.61-4.391.421-.262 2.341-1.118 2.293-1.707-.023-.28-.685-.645-1.073-.878-2.229-1.334-4.067-2.509-6.244-3.659-.346-.183-.845-.43-1.269-.683-.504-.301-.96-.82-1.561-.586-.89.349-1.754.984-2.585 1.464-1.751 1.011-3.354 1.93-5.171 2.927-.698.384-2.214 1.021-2.439 1.659-.216.612-.031 1.713-.049 2.536-.048 2.294 0 4.846 0 7.074 0 .621-.213 1.424.293 1.902.497.085.962-.266 1.365-.487zm3.61.195c-.746.424-1.551.927-2.439 1.415-.472.26-2.293 1.03-2.293 1.61 0 .379.64.669 1.073.926 2.646 1.574 4.956 2.934 7.562 4.44.423.244 1.021.599 1.415.585.407-.014.858-.414 1.268-.683.44-.289.926-.532 1.269-.732 1.85-1.077 3.162-1.852 5.024-2.927.414-.239 2.344-1.092 2.342-1.658-.002-.626-1.666-1.19-2.293-1.562-2.154-1.279-4.061-2.452-6.146-3.61-.608-.337-1.129-.86-1.854-.634-1.65.915-3.086 1.784-4.928 2.83zm14.928 5.66c-1.674.874-3.323 1.958-5.024 2.976-4.15 2.482-8.498 4.884-12.732 7.366-.74.434-2.098 1.017-2.342 1.708-.241.683-.098 1.895-.098 2.829v7.415c0 .366-.146.981.342 1.171.989-.163 1.83-.79 2.683-1.269 5.195-2.915 10.402-6.029 15.514-8.976.843-.486 1.833-.854 2.439-1.659.088-2.795.049-6.074.049-8.976 0-.941.225-2.075-.341-2.684-.251-.054-.403.054-.49.099z" fill-rule="evenodd"/></svg>