<svg enable-background="new 0 0 70.01 70.005" viewBox="0 0 70.01 70.005" xmlns="http://www.w3.org/2000/svg"><g clip-rule="evenodd" fill-rule="evenodd"><path d="m14.791 32.106c-3.642.071-7.4-.16-11.171-.049-1.178.035-2.372.173-3.464-.098-.21-5.058-.146-10.504-.146-15.903 0-4.065.124-8.095 0-12.05-.021-.663.076-1.334.049-2-.024-.609-.13-1.251.147-1.805 14.625-.55 30.888.233 45.857-.098 2.317-.051 4.65-.001 6.83 0 2.253 0 4.34.15 6.146.683 3.492 1.029 5.832 3.306 7.806 5.805 1.912 2.508 3.454 6.143 3.122 10.342-.33 4.178-1.923 7.287-3.952 9.659-2.128 2.325-4.769 4.266-8.488 5.122-3.805.876-8.668.134-13.171.44-.9.785-1.618 1.964-2.293 3.024-.286.449-.653.954-1.073 1.561-.367.53-.793 1.373-1.317 1.463-.702.122-1.6 0-2.488 0-5.837 0-12.261-.03-17.903-.097-.581-.28-.881-.907-1.22-1.415-.35-.524-.727-1.036-1.073-1.561-.692-1.041-1.363-2.132-2.198-3.023z"/><path d="m17.132 44.01c8.319-.061 17.008.132 24.88.048.623-.223.768-.923 1.22-1.317.728-1.098 1.435-2.171 2.244-3.366.257-.38.491-.89.83-1.024.515-.204 1.225-.032 1.854-.049 4.316-.11 9.311-.296 12.391 1.171 3.461 1.648 6.239 4.571 7.756 7.952.853 1.898 1.463 4.053 1.463 6.439 0 2.418-.481 4.587-1.317 6.537-1.495 3.484-4.314 6.441-7.61 8.098-1.772.891-3.976 1.424-6.439 1.463-7.438.119-16.038-.049-23.417-.049-9.261.001-18.369 0-27.075 0-1.237.001-2.522.115-3.756-.146-.162-10.223-.163-21.143 0-31.417 3.39-.193 6.905-.146 10.586-.146.594 0 1.562-.125 2.049.049.448.161.779.919 1.122 1.415.409.591.74 1.126 1.025 1.512.706.96 1.296 1.926 2.194 2.83z"/></g></svg>