<svg enable-background="new 0 0 81.321 65.972" viewBox="0 0 81.321 65.972" xmlns="http://www.w3.org/2000/svg"><path clip-rule="evenodd" d="m72.21 33.513c.491.732 1.305 1.199 1.969 1.817.635.592 1.285 1.234 1.817 1.918 1.083 1.394 2.22 2.905 2.726 4.795.563 2.104 1.111 3.934 1.11 6.411 0 2.44-.562 4.272-1.11 6.411-.449 1.751-1.58 3.421-2.726 4.795-2.286 2.743-5.314 4.788-9.237 5.805-2.026.525-4.41.505-6.967.505-19.632.001-40.085-.136-59.616-.202-.335-1.301-.085-2.667-.101-3.988-.111-9.301 0-19.053 0-28.622 0-11.062-.112-22.178.152-33.014 19.414-.329 39.923 0 59.616 0 3.264 0 6.142-.053 8.733.706 2.406.705 4.35 1.834 6.159 3.23 1.946 1.753 3.696 3.803 4.896 6.411 1.197 2.602 2.017 5.743 1.564 9.44-.391 3.199-1.564 6.035-3.129 8.178-1.249 1.71-2.532 3.008-4.291 4.19-.536.362-1.117.712-1.565 1.214zm-41.141-5.653c8.295 0 16.536.05 24.836.05 2.5 0 4.837.096 6.664-.455 3.378-1.018 6.21-4.071 6.108-8.329-.049-2.021-.795-3.904-2.02-5.199-1.089-1.152-2.552-2.338-4.543-2.675-1.957-.332-4.385-.202-7.017-.202-14.199 0-29.156-.113-42.958-.05-.435.742-.253 1.675-.253 2.524 0 13.978-.058 28.211.05 41.646 4.554.288 9.343.102 14.084.101 9.474-.001 18.843.101 28.218.101 2.555 0 5.051.158 6.915-.151 2.12-.352 3.369-1.35 4.594-2.575 1.272-1.272 2.053-2.826 2.221-4.897.353-4.366-2.335-7.555-5.502-8.733-1.707-.635-4.089-.606-6.563-.605-9.368 0-18.808-.043-28.167 0-.273.713-.185 2.232-.051 3.028 1.273.266 2.619.152 3.938.152 4.098 0 8.167.05 12.368.05 3.989 0 8.341.201 12.368.05 1.353-.051 2.723-.118 3.938.101 1.875.338 3.263 1.832 3.836 3.483.967 2.787-.574 5.39-2.524 6.36-1.325.66-3.378.404-5.351.404-7.87 0-15.822-.095-23.372 0-1.954.024-3.885-.139-5.805-.101-2.829.055-5.778.05-8.683.05-.935 0-1.928.12-2.827-.151-.083-11.082-.051-21.957-.051-32.963 0-1.53-.123-3.103.151-4.594 7.398-.292 14.852-.05 22.767-.05 5.576 0 11.761-.007 17.314.05 1.965.021 4.158-.286 5.704.152 2.026.574 3.591 2.557 3.534 4.998-.051 2.181-1.409 3.972-3.13 4.694-2.028.852-5.531.454-8.329.454-7.217 0-14.439-.05-21.605-.05-1.533 0-3.009-.104-4.241.101-.158.804-.168 2.227 0 3.029 1.101.276 2.268.202 3.384.202z" fill-rule="evenodd"/></svg>