<svg enable-background="new 0 0 77.018 77.188" viewBox="0 0 77.018 77.188" xmlns="http://www.w3.org/2000/svg"><path clip-rule="evenodd" d="m66.638 65.044c-4.969 5.278-10.886 8.993-19.043 11.121-4.767 1.243-10.924 1.348-16.337.345-6.45-1.195-12.065-4.026-16.534-7.578-4.409-3.504-8.214-8.253-10.727-13.335-1.305-2.64-2.507-5.657-3.149-8.907-.677-3.423-1.045-7.33-.738-11.121.583-7.212 2.922-13.07 6.151-17.911 1.609-2.412 3.311-4.677 5.413-6.643.542-.507.961-1.116 1.477-1.575 1.567-1.393 3.344-2.572 5.265-3.739 5.08-3.088 10.892-5.305 18.404-5.659 7.211-.342 13.142 1.498 17.959 3.738 8.26 3.843 14.197 10.009 18.207 17.912 3.069 6.05 5.14 15.171 3.396 24.21-1.547 8.009-5.041 14.195-9.744 19.142zm-5.708-50.536c-4.033-3.722-8.758-6.619-15.058-8.021-2.468-.549-5.274-1.018-8.07-.886-2.603.123-5.093.438-7.332.984-5.874 1.433-10.835 4.34-14.467 7.972-.311.311-.866.614-.836 1.132 11.563.132 23.489.149 35.183.148 3.863 0 7.687.032 11.416-.148-.089-.483-.489-.861-.836-1.181zm-53.391 13.581c-2.303 4.437-2.334 11.805-1.23 17.321 1.118 5.584 3.598 9.941 6.298 13.778.944 1.341 2.26 2.609 3.543 3.789 3.792 3.485 8.625 6.341 14.221 7.824 6.294 1.668 13.737 1 19.142-.788 1.858-.614 3.482-1.506 5.019-2.361 6.17-3.436 11.106-8.512 14.221-15.156 1.505-3.208 2.664-7.424 2.903-11.761.202-3.651-.318-7.087-.984-9.939-.218-.937-.415-1.949-1.033-2.657-7.196-.203-15.227-.102-22.094 0-.224.317-.423 1.071-.246 1.476 3.087.58 8.144-1.092 8.71 2.215-.213 3.055-.783 6.438-1.181 9.447-.156 1.181-.237 2.483-.689 3.248-.392.663-1.113.859-1.378 1.575.209.794.863.905.984 1.722.143.962-.149 2.166-.295 3.198-.286 2.016-.586 4.203-.738 6.25-.162 2.177-.432 3.934-1.969 4.625-.781.353-2.161.197-3.395.197-6.515.001-12.73-.001-19.24 0-.868 0-2.54.159-3.051-.197-.401-.279-.435-1.15-.542-1.968-.604-4.639-1.205-9.655-1.87-13.975-.628-4.079-1.133-8.032-1.673-11.909-.185-1.327-.436-2.662-.344-3.985.259-.393 1.4-.345 2.116-.345h4.625c.797 0 1.576.112 2.165-.148.043-.464-.093-1.101-.344-1.427-7-.158-14.877-.16-21.651-.049zm34.593 11.367c-2.749 0-5.636.001-8.365 0-.529 0-1.261-.109-1.673 0-.57.152-.451.851-.197 1.329.835.395 1.985.246 3.149.246 2.313-.001 4.381 0 6.692 0 1.574 0 4.185.446 3.494-1.329-.837-.426-1.97-.246-3.1-.246zm-.246 11.563c-2.393-.042-5.712-.072-8.02-.049-.224.002-.516.072-.591.295-.446 1.548 1.584 1.182 2.953 1.182 2.025-.001 3.829 0 5.757 0 1.055-.001 1.95-.108 1.624-1.182-.429-.39-1.113-.235-1.723-.246z" fill-rule="evenodd"/></svg>