<svg enable-background="new 0 0 72.888 71.322" viewBox="0 0 72.888 71.322" xmlns="http://www.w3.org/2000/svg"><g clip-rule="evenodd" fill-rule="evenodd"><path d="m41.161.188c-3.396.898-6.437 2.137-8.787 4.173-2.31 2.002-4.212 4.504-5.351 7.609-1.286 3.505-1.118 7.705-.099 11.095.974 3.234 2.848 5.78 5.105 7.806 2.361 2.118 5.178 3.466 8.738 4.222 3.606.765 8.054.117 12.175.246 2.355.073 4.247-.017 5.989.49 1.768.515 3.166.978 4.664 1.816 5.163 2.89 9.563 8.353 9.278 16.593-.065 1.877-.659 3.584-1.276 5.204-1.776 4.666-5.036 7.883-9.523 9.867-1.503.664-3.205 1.041-5.106 1.375-1.842.324-3.831.54-5.891.54-16.683-.001-34.397.25-50.811-.049-.184-10.25-.195-20.84-.195-31.321 0-12.841-.121-25.577-.049-38.93 0-.26-.121-.693.195-.883 6.597-.115 13.829.048 20.571.049 6.941 0 13.79-.128 20.373.098zm2.357 35.739c-1.141.031-2.246.293-3.339.49-1.063.192-2.143.468-2.994.835-5.338 2.301-9.183 6.394-10.555 12.47-1.069 4.733.178 9.321 2.11 12.42 1.972 3.161 4.813 5.682 8.297 7.069 2.781 1.108 6.104 1.933 9.671 1.325 1.072-.183 2.079-.495 2.994-.835 1.875-.695 3.639-1.493 5.057-2.602 1.41-1.101 2.624-2.522 3.683-4.025 2.064-2.935 3.693-7.239 2.945-12.126-.502-3.28-1.8-5.943-3.388-8.1-.547-.742-1.27-1.309-1.767-2.111-3.1-2.583-6.919-4.968-12.714-4.81z"/><path d="m42.634 5.687c2.865-3.065 6.637-4.866 11.88-5.499 2.417-.292 4.769.383 6.578.982 2.006.663 3.482 1.507 4.909 2.602 2.847 2.185 5.024 5.057 6.088 8.935 1.21 4.417.355 9.382-1.424 12.47-2.776 4.816-7.038 8.08-13.55 9.032-2.29.336-4.528.017-6.578-.54-3.713-1.007-6.919-3.295-8.983-6.038-2.147-2.854-3.834-6.621-3.485-11.487.331-4.635 1.996-7.669 4.565-10.457zm7.806 8.639c-1.066 1.669-1.044 4.444.146 6.137.801 1.137 2.192 2.188 3.682 2.454 1.712.306 3.282-.226 4.37-.933 1.503-.977 2.792-2.822 2.553-5.302-.266-2.743-2.742-5.307-5.989-5.008-2.351.218-3.967 1.407-4.762 2.652z"/><path d="m42.879 58.902c-2.771-.659-4.766-2.83-4.713-5.744.007-.377.044-.827.147-1.227.609-2.355 2.875-4.634 6.234-4.32.533.05 1.038.213 1.473.393 2.207.911 3.938 2.961 3.731 5.842-.233 3.271-2.925 5.356-6.872 5.056z"/></g></svg>