<svg enable-background="new 0 0 163.377 157.801" viewBox="0 0 163.377 157.801" xmlns="http://www.w3.org/2000/svg"><g clip-rule="evenodd" fill-rule="evenodd"><path d="m75.196.124c-.009.056.01.085.047.096.358 13.12-.156 26.655.097 39.496.064 3.27-.185 6.527-.048 9.754.134 3.176.017 6.363 0 9.514-.103 19.157-.002 39.064 0 59.004 0 9.915-.001 19.853 0 29.886 0 3.292.107 6.581-.145 9.85-6.049.14-12.143.05-18.21.048-15.054-.003-30.092.004-45.214 0-3.021 0-6.034.1-9.033-.144 11.462-1.367 19.533-6.125 25.802-12.684 2.17-2.518 4.342-5.291 5.958-8.505 1.604-3.188 3.044-6.722 3.7-10.715.706-4.299.914-8.94.288-13.31-.581-4.054-1.899-7.752-3.411-11.003-1.525-3.278-3.495-6.135-5.718-8.745-4.393-5.159-10.055-9.162-17.153-11.676-3.137-1.11-6.685-1.729-10.619-2.018-.511-.038-1.059.002-1.537-.24 9.058-.43 15.932-2.956 21.573-6.823 5.559-3.81 10.037-8.809 13.214-15.183 2.124-4.264 3.61-9.124 4.036-14.847.459-6.182-.725-11.851-2.451-16.385-1.759-4.62-4.138-8.582-7.062-11.868-4.534-5.095-9.893-8.905-16.913-11.484-2.315-.85-4.826-1.307-7.497-1.922 2.352-.259 4.743-.144 7.111-.144 14.382.001 28.603-.05 43.052-.048 6.849.001 13.408-.107 20.133.096z"/><path d="m163.269.412c.158 19.848.096 39.519.096 58.715-.002 32.319-.023 65.914-.145 98.595-.537-.027-.928-.673-1.297-1.057-1.939-2.013-3.879-4.15-5.814-6.247-2.289-2.481-4.715-4.883-7.062-7.398-1.543-1.655-3.229-3.185-4.758-4.854-4.609-5.034-9.375-9.915-14.125-14.847-4.703-4.882-9.449-9.812-14.079-14.847-3.082-3.354-6.365-6.516-9.417-9.851-5.36-5.855-10.947-11.518-16.433-17.297-.577-.607-1.166-1.201-1.778-1.826-.172-.175-.498-.415-.385-.721 12.107-.449 20.383-4.823 26.956-10.955.808-.754 1.6-1.596 2.306-2.451 4.945-5.981 8.826-13.439 9.562-23.544.672-9.24-2.139-16.923-5.574-22.63-1.193-1.983-2.455-3.957-3.892-5.574-2.993-3.367-6.4-6.26-10.427-8.505-3.852-2.148-7.99-3.671-13.117-4.661-.276-.053-.67.009-.865-.288 22.316-.145 45.57.098 68.277.096.653.003 1.346-.111 1.971.147z"/></g></svg>