<svg enable-background="new 0 0 78.015 64.646" viewBox="0 0 78.015 64.646" xmlns="http://www.w3.org/2000/svg"><g clip-rule="evenodd" fill-rule="evenodd"><path d="m17.19.178c.203 5.378.098 10.678.098 16.001 0 2.696-.093 5.41 0 8.098.183 5.277.049 10.512.049 15.806 0 7.948.067 16.094-.098 24.343-5.731.111-11.627.256-17.074 0-.201-2.582-.098-5.244-.098-7.903 0-17.976-.179-37.409.049-56.345 3.99-.144 8.159-.146 12.245-.146 1.642 0 3.29-.118 4.829.146z"/><path d="m17.97 32.082c-.186-4.029-.158-8.62 0-12.879 2.609-.208 5.089.292 6.244-1.415 1.264-1.866-.022-4.277-1.854-4.683-1.333-.295-3.051.198-4.391-.147-.25-.933-.132-1.996-.098-3.074.082-2.619 0-5.515 0-8.342 0-.49-.118-1.068.195-1.463 2.919-.2 6.19-.047 8.391.683 2.321.769 4.103 1.859 5.708 3.22.763.647 1.404 1.551 2.098 2.39.686.83 1.354 1.701 1.805 2.634 1.011 2.095 1.512 4.437 1.512 7.317 0 2.909-.594 5.183-1.659 7.269-1.978 3.876-5.309 6.643-9.854 8-1.739.519-3.785.634-6.049.634-.657.003-1.392.116-2.048-.144z"/><path d="m38.216 32.18c-.262-1.971-.146-4.258-.146-6.488 0-1.105 0-2.229 0-3.317 0-1.083-.117-2.166.146-3.122 1.465-.346 3.222.172 4.537-.195 1.2-.336 1.792-1.173 2.146-2.342.12-1.783-.654-2.954-1.902-3.415-1.327-.49-3.166.086-4.83-.341-.103-3.862-.197-7.62-.049-11.319.02-.502-.122-1.058.146-1.512 6.248-.573 11.07 1.157 14.147 3.903.544.486 1.083 1.154 1.609 1.756 1.545 1.766 2.814 3.951 3.415 6.635.879 3.931.311 7.952-1.317 11.122-2.956 5.76-8.669 9.554-17.902 8.635z"/><path d="m58.461 32.18c-.264-.978-.146-2.081-.146-3.171 0-3.166-.08-6.706.098-9.757 1.542-.32 3.392.209 4.732-.244.826-.279 1.515-.974 1.805-1.708.678-1.714-.323-3.669-2.098-4.098-1.4-.338-2.981.173-4.488-.244-.093-2.937-.049-6.431-.049-9.659 0-1.08-.117-2.165.146-3.122 2.633-.237 6.288-.029 8.391.634 2.215.698 4.219 1.846 5.707 3.171.781.695 1.395 1.574 2.098 2.39.695.806 1.262 1.699 1.756 2.683.976 1.945 1.659 4.671 1.561 7.317-.056 1.507-.198 2.842-.439 4.049-.679 3.399-2.842 6.196-5.171 8.147-3.21 2.692-7.849 4.269-13.903 3.612z"/><path d="m18.019 64.426c-.26-1.962-.146-4.181-.146-6.391 0-2.176-.08-4.399.098-6.391 1.663-.31 3.333.151 4.683-.293.849-.279 1.505-.905 1.805-1.561.728-1.595-.082-3.463-1.561-4.049-1.289-.511-3.494.098-4.927-.342-.094-3.493-.209-7.709-.098-11.268.015-.489-.122-1.04.146-1.464 2.895-.315 6.354-.017 8.585.732 2.34.785 4.005 1.841 5.61 3.22 3.179 2.728 5.464 6.712 5.464 12.245 0 5.274-2.578 9.472-5.708 12-3.254 2.631-7.722 4.219-13.951 3.562z"/><path d="m38.216 64.475c-.177-3.959-.154-8.704 0-12.83 1.507-.241 3.215.206 4.585-.195 1.712-.501 2.693-2.441 1.805-4.244-.373-.756-1.189-1.383-2.049-1.561-1.404-.291-2.973.204-4.391-.195-.073-3.409-.098-7.538-.098-11.317 0-.491-.118-1.066.195-1.464 2.724-.181 6.044.058 8.245.732 2.363.724 4.215 1.759 5.805 3.122 3.149 2.7 5.58 6.649 5.61 12.196.029 5.409-2.588 9.501-5.708 12.147-3.197 2.712-7.77 4.296-13.999 3.609z"/><path d="m58.461 64.475c-.259-.993-.146-2.102-.146-3.22 0-2.185.073-4.42 0-6.537-.037-1.066-.077-2.134.146-3.073 1.584-.216 3.614.22 4.83-.293 2.681-1.131 2.33-5.126-.585-5.708-1.359-.271-2.643.155-4.293-.195-.17-2.947-.098-6.385-.098-9.562 0-.843-.106-2.665.146-3.122.036-.045.089-.074.146-.098 7.676-.481 12.569 1.847 15.854 5.805 1.414 1.703 2.673 3.984 3.171 6.342.514 2.433.472 5.032.098 7.415-.313 1.997-1.382 4.013-2.439 5.513-3.198 4.538-8.745 7.686-16.83 6.733z"/></g></svg>