<svg enable-background="new 0 0 70.775 27.007" viewBox="0 0 70.775 27.007" xmlns="http://www.w3.org/2000/svg"><path clip-rule="evenodd" d="m7.26.151c.337 1.149-.089 3.063.262 4.199.808-.045 1.533-.346 2.318-.48 4.108-.701 7.756.88 9.973 2.755 1.696 1.436 2.79 3.457 3.717 5.511.238-.916.132-1.959.132-2.974 0-1.996.044-4.036.044-6.123 0-1.003-.102-2.002.087-2.888 2.161-.146 4.94-.159 7.042.044.336 1.18-.083 3.115.263 4.287.898-.068 1.775-.406 2.711-.525 3.075-.391 5.994.442 7.917 1.662 2.676 1.697 4.552 4.347 5.467 7.654.326-.214.345-.661.438-.963.777-2.525 2.073-4.233 3.936-5.772 2-1.653 4.937-2.76 8.572-2.45 3.219.275 5.724 1.774 7.479 3.631.875.926 1.678 2.062 2.23 3.323.558 1.273 1.103 2.786.874 4.506-1.089.183-2.359.078-3.63.087-1.213.009-2.478.064-3.586-.087-.361-2.366-1.885-4.624-4.942-4.243-1.349.168-2.203.795-3.019 1.575-1.238 1.571-.874 4.81-.874 7.785-.001 1.895.107 3.736-.088 5.335-.519.229-1.16.132-1.793.132-.616 0-1.256.022-1.881 0-1.267-.044-2.54.019-3.543-.175-.299-2.309.019-5.22-.262-7.436-.386.254-.466.828-.656 1.269-.591 1.363-1.417 2.628-2.405 3.586-1.917 1.89-4.637 3.593-8.354 3.631-3.768.038-6.507-1.624-8.528-3.455-1.46-1.675-2.666-3.604-3.324-6.08-.31.222-.352.648-.438.962-.663 2.438-2.08 4.392-3.893 5.774-2.089 1.663-4.593 2.854-8.397 2.625-4.218-.256-7.189-2.549-9.054-5.249-.974-1.41-1.703-3.221-1.924-5.248-.228-2.083-.088-4.489-.088-7.042 0-2.891.012-6.185.132-9.185 1.4-.172 3.044-.089 4.635-.089.85 0 1.716-.096 2.45.131zm4.548 10.804c-2.658.064-4.915 2.57-4.199 5.423.407 1.623 2.051 2.843 3.543 3.105 1.742.308 3.009-.403 4.111-1.312.442-.63.997-1.463 1.094-2.493.117-1.265-.373-2.269-.875-3.062-.938-.863-1.923-1.703-3.674-1.661zm19.857 2.23c-.22.365-.547 1.065-.612 1.925-.118 1.547.639 2.869 1.574 3.586 3.066 2.349 7.635.226 7.173-3.892-.242-2.164-2.267-3.902-4.811-3.63-1.647.175-2.767 1.085-3.324 2.011z" fill-rule="evenodd"/></svg>