<svg enable-background="new 0 0 77.688 80.026" viewBox="0 0 77.688 80.026" xmlns="http://www.w3.org/2000/svg"><g clip-rule="evenodd" fill-rule="evenodd"><path d="m40.993.306c.333 1.294.082 2.91 0 4.441-.198 3.723-.479 7.394-.656 11.408-.03.687-.06 1.823-.303 2.07-.308.312-2.372.358-2.726 0-.247-.251-.256-1.436-.303-2.12-.266-3.856-.383-7.421-.707-11.257-.126-1.492-.245-2.996-.151-4.393.584-.415 1.708-.433 2.676-.454.778-.015 1.628.06 2.17.305z"/><path d="m50.837 2.275c-.382 2.757-1.677 5.037-2.322 7.976-.518 2.354-1.301 4.633-2.019 6.966-.19.617-.347 1.644-.858 1.817-.356.122-.978-.08-1.413-.151-.468-.077-.958-.15-1.161-.454-.017-1.491.432-2.957.707-4.442.676-3.652 1.223-7.421 1.918-11.105.126-.669.152-1.436.605-1.969 1.293.029 3.669.587 4.543 1.362z"/><path d="m34.683 18.226c-.377.233-2.307.401-2.877.051-.396-.244-.592-1.166-.808-1.817-1.303-3.943-2.586-7.813-3.988-11.762-.217-.61-.645-1.606-.555-2.07.144-.741 3.385-1.57 4.24-1.615.169-.009.449-.038.555.102.56.472.519 1.301.656 1.969.871 4.216 1.694 8.712 2.524 13.024.136.699.451 1.405.253 2.118z"/><path d="m55.783 4.394c.69-.274 1.604.417 2.423.909.607.365 1.704.855 1.767 1.464.061.592-.795 1.548-1.111 2.069-2.4 3.967-4.768 7.631-7.319 11.661-.331.522-.935 1.721-1.363 1.767-.517.057-1.749-1.49-1.817-1.969-.062-.435.173-1.215.353-1.666.505-1.264 1.211-2.39 1.767-3.584 1.338-2.872 2.823-5.972 4.291-8.985.3-.616.664-1.433 1.009-1.666z"/><path d="m27.565 22.92c-.706-.396-1.04-1.173-1.464-1.817-2.105-3.197-4.44-6.269-6.512-9.692-.354-.585-.75-1.275-1.262-1.968-.353-.478-1.226-1.492-1.211-2.02.019-.682 1.231-1.168 1.767-1.515.89-.575 1.351-.853 2.07-1.211.743-.371 1.033.554 1.363 1.262 1.675 3.59 3.116 6.697 4.796 10.349.261.566.705 1.198.757 1.716.028.282-.075.545-.101.858-.11 1.314.227 3.159-.203 4.038z"/><path d="m57.752 17.468c2.193-2.35 4.113-4.973 6.309-7.319.855-.138 1.595.939 2.221 1.566.676.676 1.317 1.345 1.515 2.019-.33.863-1.136 1.391-1.767 1.969-.649.597-1.295 1.197-1.969 1.767-1.306 1.168-2.544 2.402-3.887 3.534-1.303 1.171-2.567 2.38-3.937 3.483-.939.885-1.867 1.722-2.928 2.675-.259.233-.725.804-1.11.707-.384-.097-.315-.844-.404-1.413-.089-.571-.34-.973-.252-1.515.106-.662 1.053-1.381 1.514-1.919 1.5-1.749 3.347-3.949 4.695-5.554z"/><path d="m27.615 29.937c-.687-.02-.871-.542-1.262-.858-2.654-2.259-5.29-4.536-7.925-6.814-2.543-2.192-5.286-4.514-7.875-6.865-.307-.278-.893-.831-.909-1.161-.031-.614.914-1.386 1.413-1.918.427-.455 1.393-1.743 1.918-1.666.69.103 1.432 1.346 1.969 1.918 3.149 3.359 6.013 6.984 9.137 10.299.583.617 1.191 1.268 1.868 2.019.559.622 1.598 1.55 1.767 2.12.259.871.015 2.299-.101 2.926z"/><path d="m51.19 33.521c-.178-.53.046-.892.202-1.362.13-.394.269-.885.505-1.212.399-.554 1.557-1.197 2.271-1.716 2.314-1.682 4.721-3.175 7.067-4.745 3.363-2.252 6.28-4.427 9.39-6.411.73-.467 1.48 1.303 1.817 1.867.229.384.367.725.606 1.161.193.354.525.869.454 1.263-.127.701-1.881 1.274-2.625 1.615-4.756 2.183-9.383 4.671-14.033 6.916-1.404.678-2.759 1.421-4.19 2.119-.453.221-.923.574-1.464.505z"/><path d="m6.768 18.579c5.044 3.311 10.516 6.957 15.851 10.349.837.531 1.68 1.155 2.625 1.766.725.47 2.244 1.15 2.474 1.868.163.511.126 1.513-.152 1.969-.566-.046-1.058-.415-1.566-.657-1.436-.684-2.951-1.41-4.442-2.12-3.775-1.797-7.781-3.893-11.762-5.805-.933-.448-1.953-.862-2.928-1.464-.303-.188-.857-.515-1.464-.758-.514-.205-1.241-.439-1.312-.857-.11-.647.743-1.705 1.06-2.272.422-.757.839-1.905 1.616-2.019z"/><path d="m76.733 31.956c-.472.393-1.138.419-1.717.556-1.775.417-3.685.759-5.552 1.16-6.06 1.305-12.235 2.733-18.375 3.988-.614.125-1.248.203-1.868.354-.575.139-1.22.426-1.817.202.025-.543.505-.708.808-1.01.297-.298.522-.713.858-.909.791-.463 2.268-.774 3.281-1.11 1.09-.36 2.18-.82 3.18-1.161 4.298-1.465 8.615-3.06 12.923-4.543 2.198-.757 4.317-1.613 6.462-2.221.986-.28 1.183 1.162 1.413 2.019.286 1.06.613 1.966.404 2.675z"/><path d="m27.565 37.912c-1.168.036-2.342-.229-3.483-.454-4.464-.884-8.896-1.792-13.377-2.574-2.251-.393-4.474-.866-6.714-1.262-1.064-.188-2.227-.262-3.08-.909-.095-.626.18-1.672.404-2.675.182-.812.468-2.382 1.111-2.373.958.013 2.28.616 3.281.959 3.209 1.1 6.126 2.188 9.44 3.23 3.235 1.018 6.245 2.068 9.49 3.181.946.324 2.772.721 3.029 1.161.21.36.191 1.336-.101 1.716z"/><path d="m77.489 37.307c.281.507.194 1.526.151 2.423-.039.834.156 2.019-.303 2.373-.523.403-2.633.037-3.685 0-1.351-.048-2.625-.15-3.786-.202-4.96-.22-10.26-.565-15.194-.757-2.393-.094-5.263-.246-7.522-.404-.662-.046-2.716.172-2.827-.555-.09-.594 1.005-.732 1.363-.758 2.276-.159 3.982-.218 5.957-.403 6.526-.615 13.138-.962 19.737-1.465 1.685-.128 3.158-.27 4.947-.353.341-.015.951-.15 1.162.101z"/><path d="m27.615 39.326c.212.368.249 1.234 0 1.514-.318.358-2.535.395-3.231.455-3.387.292-7.061.469-10.298.757-2.325.207-4.662.335-6.915.454-2.294.122-4.599.627-6.765.354-.417-.409-.415-2.035-.404-3.23.009-.938.033-1.878.858-1.969.589-.065 1.283.167 1.918.202 1.86.102 3.81.161 5.806.252 3.674.167 7.577.476 11.357.656 1.944.093 3.85.253 5.654.354.707.038 1.452-.103 2.02.201z"/><path d="m48.06 41.749c8.412 1.593 16.774 3.192 25.29 4.847.941.182 3.144.296 3.433.857.328.637-.305 2.095-.455 2.676-.223.862-.393 1.827-.959 2.321-1.115-.166-2.188-.596-3.281-.959-6.256-2.075-12.56-4.238-18.879-6.461-1.037-.365-2.204-.624-3.079-1.11-.38-.212-.728-.557-1.161-.959-.336-.313-.968-.67-1.06-1.061.028-.072.078-.122.151-.151z"/><path d="m27.565 42.406c.26.231.274 1.062.101 1.413-.28.532-.926.6-1.413.758-3.64 1.18-7.391 2.734-11.105 4.038-3.19 1.119-6.392 2.274-9.591 3.433-1.042.377-2.069 1.008-3.231.959-.642-.371-.771-1.315-.959-2.12-.193-.823-.426-1.775-.354-2.625.864-.671 2.043-.674 3.08-.908 7.387-1.674 15.394-3.308 22.766-4.947.154-.036.435-.107.706-.001z"/><path d="m4.092 57.953c.682-.87 1.803-1.18 2.726-1.717 2.746-1.598 5.73-3.007 8.683-4.492 3.935-1.979 7.794-3.997 11.661-5.957.871-.441.697 1.684.556 2.07-.185.502-1.774 1.401-2.524 1.918-5.301 3.654-10.48 7.29-15.749 10.903-.376.258-.797.569-1.312.909-.467.307-1.05.874-1.363.857-.634-.032-1.239-1.418-1.565-1.969-.409-.686-.985-1.639-1.113-2.522z"/><path d="m52.704 46.948c6.214 2.746 12.087 6.07 18.273 9.036.636.305 2.261.907 2.372 1.515.122.666-.697 1.848-.959 2.321-.325.586-.835 1.79-1.413 1.868-.621.084-1.784-1-2.423-1.413-3.928-2.543-7.415-5.088-11.308-7.724-.688-.466-1.46-.945-2.271-1.515-.686-.48-1.796-1.047-2.12-1.666-.176-.336-.632-1.97-.303-2.321.038-.047.093-.076.152-.101z"/><path d="m27.414 50.078c.491-.075.354.852.354 1.464 0 .744.062 1.277-.05 1.716-.193.749-1.115 1.512-1.718 2.222-.667.786-1.29 1.587-1.817 2.12-2.939 3.589-5.954 7.103-9.036 10.55-.253.376-.557.652-.909 1.061-.267.311-.56.875-1.009.908-.679.052-1.657-1.224-2.07-1.615-.342-.325-1.613-1.381-1.615-2.019-.002-.64 1.469-1.645 2.069-2.222 2.155-2.069 4.547-4.073 6.664-6.058 2.375-2.227 4.39-3.969 6.714-6.058.817-.733 1.599-1.465 2.423-2.069z"/><path d="m52.856 52.754c.703.101 1.61 1.063 2.07 1.515.655.642 1.278 1.141 1.817 1.665 2.442 2.236 4.947 4.409 7.421 6.613.666.485 1.173 1.069 1.868 1.665.485.417 1.681 1.053 1.716 1.768.039.78-.987 1.418-1.414 1.867-.371.391-1.139 1.509-1.767 1.515-.675.006-1.416-1.215-1.767-1.615-.572-.653-1.015-1.071-1.615-1.716-2.562-2.927-5.519-6.254-8.229-9.39-.348-.403-.967-1.016-1.009-1.464-.036-.379.208-.673.354-1.161.143-.479.149-.982.404-1.161.066-.018.078-.089.151-.101z"/><path d="m50.281 57.903c.787-.105 1.182 1.015 1.565 1.615 1.207 1.896 2.498 3.789 3.685 5.553 1.32 1.96 2.381 3.567 3.635 5.603.354.576 1.128 1.427 1.11 1.969-.023.725-1.4 1.38-1.969 1.716-.417.246-.809.492-1.161.707-.308.188-.931.556-1.312.505-.528-.07-.858-1.087-1.161-1.717-.894-1.857-1.979-3.879-2.827-5.805-.905-2.054-1.867-3.788-2.726-5.906-.25-.618-.787-1.546-.757-2.069.045-.778 1.398-1.706 1.918-2.171z"/><path d="m27.515 57.953h.101c.409 1.127-.052 2.715.202 3.887.076.349.339.618.354.909.022.437-.45 1.233-.706 1.767-1.607 3.327-3.247 6.561-4.897 9.843-.261.52-.38 1.177-.908 1.515-.719-.135-1.548-.552-2.322-1.009-.529-.313-1.736-.89-1.817-1.465-.085-.599.74-1.497 1.111-2.069 1.249-1.929 2.483-3.872 3.735-5.653 1.906-2.712 3.366-5.427 4.998-7.623.034-.048.089-.077.149-.102z"/><path d="m46.243 79.054c-.453-.48-.525-1.213-.656-1.868-.416-2.071-.661-4.331-1.06-6.461-.263-1.406-.519-2.84-.757-4.24-.243-1.427-.723-2.833-.555-4.241.265-.411 1.405-.633 2.019-.807.594-.169.877.485 1.01.807.466 1.129.939 2.556 1.262 3.685.473 1.658 1.05 3.345 1.464 5.148.371 1.612 1.033 3.123 1.565 4.796.176.553.536 1.33.354 1.768-.184.438-1.629.792-2.12.958-.848.287-1.574.406-2.526.455z"/><path d="m34.481 62.496c.178 1.43-.327 2.834-.606 4.24-.683 3.444-1.455 7.016-2.12 10.5-.123.645-.168 1.405-.656 1.867-.84.102-1.707-.287-2.524-.505-.8-.212-1.774-.267-2.171-.958.218-1.344.767-2.601 1.212-3.938 1.036-3.114 2.142-6.396 3.231-9.643.284-.845.387-1.555 1.211-1.716.859-.166 1.692-.067 2.423.153z"/><path d="m39.983 62.396c.567 1.082.443 2.648.505 4.19.117 2.928.365 5.654.606 8.783.047.619.088 1.393.151 2.171.047.583.262 1.723.05 2.069-.334.547-1.614.355-2.423.354-1.04-.002-2.231.287-2.877-.354.125-4.63.721-10.493 1.11-15.497.067-.863-.004-1.578.657-1.767.677-.193 1.632-.025 2.221.051z"/></g></svg>