<svg enable-background="new 0 0 77.509 67.821" viewBox="0 0 77.509 67.821" xmlns="http://www.w3.org/2000/svg"><path clip-rule="evenodd" d="m47.018 0h.098c1.397 1.253 2.679 2.622 3.951 4 1.259 1.364 2.664 2.611 3.951 3.951 2.582 2.688 5.196 5.338 7.852 7.95.177.46.897.626.781 1.219-2.733.268-6.348-.08-9.219.195-.265.957-.146 2.054-.146 3.121 0 3.176-.065 6.647.049 9.657 1.756.395 3.98.019 6.146.146 1.91.112 3.772.65 5.17 1.268 3.035 1.341 5.519 3.12 7.462 5.414 2.79 3.299 4.531 7.396 4.39 13.315-.061 2.548-.841 5.047-1.805 7.072-.938 1.971-2.288 3.839-3.658 5.17-2.966 2.88-7.013 5.065-12.388 5.316-5.893.275-9.829-1.905-13.169-4.536-.423-.65-1.061-1.085-1.561-1.658-.532-.541-.838-1.308-1.561-1.658-.64.327-.95 1.006-1.415 1.512-.459.501-.959.96-1.415 1.463-3.517 3.115-8.599 5.588-15.217 4.731-5.819-.754-9.841-3.962-12.632-7.658-1.639-2.156-2.93-4.888-3.414-8.194-.258-1.765-.097-3.742-.097-5.706 0-9.452.083-19.713-.098-28.825-2.868-.237-6.204-.007-9.073-.243.025-.502.505-.847.829-1.17 1.014-1.014 2.077-2.029 3.122-3.073 2.727-2.727 5.262-5.652 8.047-8.438.954-.953 1.991-2.04 3.073-3.122.314-.314.855-.914 1.122-.927.548-.025 1.323 1.08 1.805 1.561 3.896 3.896 7.788 7.803 11.608 11.706.157.388.596.542.976.927.335.339.576.86 1.024.878.519.021 1.749-1.407 2.097-1.756 4.383-4.384 8.85-9.292 13.169-13.51.035-.046.088-.074.146-.098zm-10.292 17.168c-4.521 0-9.228-.117-13.218.098-.178 2.08-.098 4.333-.098 6.536s-.171 4.376.098 6.292c4.17.183 8.327.147 12.34.146 1.407 0 2.832.118 4.145-.146.042-4.327.168-8.667-.048-12.778-1.004-.265-2.13-.148-3.219-.148zm-14.095 28.826c-.824 1.309-1.158 3.671-.292 5.511 1.094 2.327 3.899 3.926 6.877 3.219 1.247-.296 2.317-.996 3.073-1.902.958-1.149 1.931-3.435.927-5.95-.479-1.2-1.144-1.977-2.146-2.683-.912-.642-2.267-1.18-3.804-1.025-2.315.234-3.861 1.601-4.635 2.83zm31.752-.83c-.739.812-1.595 2.11-1.61 3.853-.008 1.027.32 2.092.683 2.731.851 1.497 2.339 2.729 4.097 3.024 5.2.87 8.967-4.276 6.292-8.73-.841-1.4-2.806-3.029-5.755-2.731-1.718.174-2.861.922-3.707 1.853z" fill-rule="evenodd"/></svg>