<svg enable-background="new 0 0 82.414 57.385" viewBox="0 0 82.414 57.385" xmlns="http://www.w3.org/2000/svg"><g clip-rule="evenodd" fill-rule="evenodd"><path d="m.186 57.09c-.176-2.324-.11-4.69-.147-7.086-.11-7.142.049-14.465.049-21.405 0-9.278 0-17.874 0-27.016 0-.498-.177-1.17.246-1.574 16.959-.053 34.352.15 51.718.148 3.458 0 6.616.158 9.447.984 5.326 1.555 9.581 4.441 12.99 7.873 2.79 3.05 5.088 6.472 6.545 10.875 1.423 4.3 1.899 10.235.69 15.205-.6 2.462-1.255 4.406-2.264 6.446-2.779 5.618-7.365 10.328-13.089 12.991-2.053.954-4.136 1.779-6.446 2.263-2.402.503-5.167.591-8.12.591-11.327.001-23.189-.101-34.543-.099-5.703.002-11.46.005-17.076-.196zm5.659-51.373c-.058.023-.112.053-.148.098-.27.363-.187 1.964-.196 2.805-.055 5.204 0 10.285 0 15.352 0 2.08-.152 4.174 0 6.151.296 3.843 2.409 6.76 4.429 8.709 1.779 1.51 3.837 2.815 6.544 3.347 3.16.621 6.042.232 8.415-.787 4.224-1.814 7.856-6.002 8.267-11.515.396-5.325-2.048-8.708-4.675-11.171-2.446-2.294-5.717-3.492-9.939-3.69-.257-1.354-.148-2.976-.148-4.576 0-1.603.163-3.244-.099-4.576-4.056-.215-8.321-.111-12.45-.147zm37.497.147c-3.179 0-6.598-.024-9.547 0-.379.31-.246.879-.246 1.279.001 5.709-.056 11.523 0 16.878.022 2.092-.213 4.174-.049 6.201.228 2.811 1.52 5.405 3.051 7.233 1.635 1.952 3.626 3.321 6.053 4.281 2.538 1.003 6.061 1.146 8.808.295 2.681-.831 4.694-2.137 6.397-3.937 1.555-1.81 2.786-4.112 3.297-6.987.566-3.194-.234-6.375-1.477-8.562-2.133-3.759-5.638-6.57-10.776-7.233-.747-.097-1.569.075-2.362-.246-.179-3.08.08-6.112-.148-9.055-.938-.262-1.988-.147-3.001-.147zm31.344 22.882c.064 1.562 2.811 1.628 2.756-.147-.024-.769-.735-1.308-1.476-1.23-.782.081-1.308.687-1.28 1.377z"/><path d="m19.082 27.122c2.013-.404 2.109 2.522.64 2.903-1.773.459-2.503-2.52-.64-2.903z"/><path d="m45.949 28.992c-.128-1.392.975-2.169 1.969-1.772 1.413.566 1.007 3.046-.64 2.952-.723-.04-1.04-.601-1.329-1.18z"/></g></svg>