<svg enable-background="new 0 0 54.656 73.389" viewBox="0 0 54.656 73.389" xmlns="http://www.w3.org/2000/svg"><g clip-rule="evenodd" fill-rule="evenodd"><path d="m27.304 0c.351.154.774 1.544 1.027 2.202.894 2.318 1.674 4.732 2.545 6.998 1.206 3.136 2.368 6.233 3.474 9.248 1.716 4.678 3.429 9.277 5.187 13.896.586 1.536 1.253 3.055 1.615 4.649-4.215.106-8.947.049-13.652.049-4.688 0-9.463.115-13.848-.147.574-2.298 1.463-4.699 2.349-6.948 3.853-9.773 7.354-19.945 11.206-29.8-.003-.084.035-.127.097-.147z"/><path d="m13.407 37.531c.461.154.696 1.515.93 2.251.715 2.258 1.773 4.501 2.593 6.655 3.149 8.271 6.225 16.282 9.493 24.466.287.718.411 1.543.93 2.153 1.396-2.841 2.373-5.892 3.523-8.857 1.146-2.957 2.281-5.915 3.474-8.857 2.397-5.912 4.454-11.965 6.948-17.762.39.157.466.649.588.979 3.704 9.992 7.41 20.229 11.353 30.143.585 1.471 1.25 2.994 1.418 4.6-7.721.165-15.979.049-24.074.049-1.076 0-2.197.027-3.23-.196-1.093.26-2.249.146-3.376.147-6.73 0-13.668-.049-20.649-.049-1.113 0-2.26.119-3.327-.146.378-1.555 1.062-3.01 1.614-4.502 3.81-10.28 7.812-20.584 11.646-30.925.026-.073.076-.121.146-.149z"/></g></svg>