<svg enable-background="new 0 0 72.868 68.677" viewBox="0 0 72.868 68.677" xmlns="http://www.w3.org/2000/svg"><path clip-rule="evenodd" d="m.3 68.133c-.298-2.732-.127-6.039-.243-8.875-.124-3.05.001-5.888-.048-8.971-.032-2.024.22-3.849 1.115-4.995 1.343-1.719 3.477-2.26 6.74-2.182.562-.359.777-1.892 1.164-2.521.287-.468 1.085-1.304 1.552-1.65.833-.616 2.231-.921 3.831-.921.379 0 1.096.107 1.455-.097.427-.243.447-1.433.679-2.085.232-.656.854-.972.872-1.552.012-.367-.263-.598-.436-.873-.166-.262-.265-.52-.389-.873-.174-.497-.264-1.638-.63-1.891-.619-.428-1.988-.06-2.91-.146-2.075-.193-3.621-1.602-4.315-3.297-.245-.599-.305-1.251-.631-1.892-.918-.321-1.948-.056-2.813-.146-1.887-.195-3.327-1.18-4.219-2.521-.803-1.208-.728-3.198-.728-5.335 0-4.744-.178-9.859-.048-14.693.023-.895-.236-1.901.339-2.57 2.158-.039 4.786-.047 6.985-.047 6.774 0 13.488.098 20.513.097 4.511-.001 9.279-.175 13.966 0 4.619.173 9.392-.269 13.384.436 1.021.18 1.923.408 2.812.679.874.266 1.597.671 2.425 1.067 1.492.714 3.142 1.577 4.316 2.667 1.212 1.127 2.375 2.236 3.395 3.589.991 1.316 1.97 2.729 2.57 4.364 1.146 3.127 2.352 7.643 1.212 11.832-.261.956-.376 1.913-.679 2.813-.283.839-.676 1.646-1.067 2.424-.542 1.079-1.208 2.154-1.987 3.25-.265.371-.627.78-.631 1.066-.008.54 1.103 1.792 1.406 2.183 1.565 2.012 2.416 4.725 3.152 7.468 1.113 4.148-.003 8.929-1.213 12.075-.607 1.577-1.686 2.996-2.667 4.413-.471.678-1.077 1.239-1.649 1.891-.544.622-1.199 1.316-1.795 1.746-2.833 2.045-5.803 3.552-9.795 4.364-2.038.415-4.494.195-6.789.194-7.136-.001-13.711-.049-20.804-.048-4.646 0-9.265.012-13.82-.146-3.374-.116-6.666-.097-10.232-.097-1.114 0-2.242.029-3.345-.194zm45.195-62.653c4.086 0 8.536-.323 11.735.824.25.09.499.266.776.388.589.26 1.067.485 1.552.776 3.148 1.892 5.824 4.714 6.982 8.486.771 2.514.916 5.589.388 8.292-.368 1.883-1.217 3.579-2.133 4.995-.237.366-.895 1.06-.873 1.503.027.578.713.927 1.309 1.067.518-.044.754-.583 1.019-.921.883-1.129 1.518-2.461 2.085-3.831.785-1.893 1.282-4.287 1.164-6.741-.169-3.521-1.359-6.683-2.812-8.971-.909-1.432-1.994-2.49-3.152-3.588-.485-.461-1.027-.837-1.552-1.212-2.455-1.759-5.341-3.038-9.456-3.152-4.76-.132-9.288 0-13.869 0-4.791 0-9.09-.049-13.626 0-5.658.06-11.709.037-17.264-.097-1.193-.029-2.47-.126-3.54 0-.906.106-.824.614-.824 1.794 0 3.835-.154 7.838 0 11.347.079 1.799-.4 4.58.921 4.995.756.543 2.813.404 3.782.146.38-1.197.194-2.562.194-3.928 0-2.796 0-5.533 0-8.292 0-1.378-.228-2.76.194-3.879 12.004-.107 24.835-.002 37-.001zm-27.01 5.479c6.867.001 14.064.174 20.318 0 2.983-.083 6.048.049 9.166.049 1.548 0 3.124-.163 4.606-.049 1.622.125 3.29.689 4.559 1.407.271.153.494.415.775.63.287.22.635.359.873.582.312.292.456.757.824 1.164.876.968 1.561 2.344 1.892 3.637.766 2.996.016 6.024-1.261 7.905-.305.449-1.424 1.282-1.31 1.939.069.401.839.759 1.454.679.433-.057.833-.644 1.116-1.018.914-1.209 1.729-2.7 2.085-4.316.606-2.762.157-5.405-.631-7.322-.814-1.985-2.114-3.414-3.686-4.85-1.336-1.221-3.966-2.268-6.158-2.424-3.366-.241-6.708-.001-10.086 0-10.253 0-21.511-.143-31.278-.049-.493.777-.291 1.941-.291 3.007 0 2.227.01 4.429-.049 6.546-.03 1.095-.119 2.221.242 3.104 1.065.362 3.338.372 4.462.049.345-.715.242-1.619.242-2.522 0-1.858-.063-3.735 0-5.431.034-.911-.167-1.798.097-2.57.651-.277 1.372-.147 2.039-.147zm12.559 16.246c6.261 0 12.705.048 18.768.048 1.33 0 2.538.067 3.539-.146 1.877-.397 3.372-1.562 4.22-2.91 1.364-2.17 1.097-5.266-.194-7.128-.442-.638-1.329-1.325-1.939-1.697-1.879-1.145-4.835-.922-7.904-.921-7.467.001-14.787-.001-21.968 0-2.108 0-4.458-.338-6.062.194-.297.957-.159 2.217-.146 3.443.013 1.235-.227 2.538.146 3.54.029.002.057.007.049.048 1.173.261 3.045.234 4.267 0 .538-1.252-.035-3.644.388-5.092 6.779-.1 15.165-.096 22.599-.097 2.376 0 5.373-.386 7.128.437 1.991.934 3.368 3.931 1.843 6.353-.534.848-1.71 1.664-2.764 1.891-1.688.364-4.231.097-6.353.097-5.541 0-10.56 0-16.052 0-.902 0-2.636-.168-3.007.243-.261.29-.252 1.045-.048 1.455 1.042.419 2.274.242 3.49.242zm-3.443-5.529c.262.253 1.214.194 1.94.194h19.834c1.324 0 3.362.464 3.733-.921.07-1.225-1.214-1.115-2.182-1.115-6.675 0-12.929-.048-19.495-.048-1.323 0-2.634-.131-3.831.194-.278.376-.299 1.404.001 1.696zm-15.421 3.492c-.014-.001-.034-.002-.048 0-1.349.208.007 1.681.582 1.892.891.327 2.286.002 3.249.048.39-.238.371-1.278.146-1.697-.819-.365-2.911-.151-3.929-.243zm7.323.291c-.229.314-.204 1.231 0 1.551 1.086.285 3.354.359 4.364-.048.207-.344.234-1.274-.049-1.552-1.217-.2-3.246-.328-4.315.049zm1.503 7.08c.646.093 2.311.168 2.716-.145.384-.299.346-1.422 0-1.698-.599-.476-3.188.024-3.782-.097-1.224.488.174 1.811 1.066 1.94zm32.733-1.891c-1.13-.087-2.337 0-3.54 0-7.133 0-15.266-.264-22.55 0-.406.319-.418 1.318-.097 1.746.865.244 1.788.186 2.716.193.94.008 1.929.003 2.909 0 4.765-.014 9.858 0 14.791 0 2.564 0 5.175.163 7.128-.339.581-.149 1.391-.262 1.6-.824-.777-.672-1.911-.696-2.957-.776zm7.323 2.715c-.421.036-1.458.761-1.455 1.066.004.438 1.168 1.027 1.601 1.019.71-.015 1.217-.597 1.406-1.067-.282-.407-.775-1.085-1.552-1.018zm-41.559 4.51c1.035.336 3.155.263 4.267.048.346-.384.307-1.445-.048-1.794-1.83-.352-4.636-.27-4.219 1.746zm11.057.339c5.234.009 11.018-.039 16.147-.049 2.835-.005 5.997.287 8.438-.193.422-.083 1.541-.208 1.552-.631.008-.354-.776-.557-1.164-.679-1.411-.444-3.294-.535-4.898-.582-2.439-.071-4.765 0-7.177 0-3.699 0-7.395-.167-10.862-.097-1.786.036-3.674-.145-5.092.243-.213.411-.226 1.395.049 1.746.941.267 1.996.24 3.007.242zm-23.083 26.963c3.785-.091 7.816.097 11.832.097 8.067 0 16.006.098 24.101.097 2.961 0 5.454-.104 8.05 0 6.392.254 10.694-2.599 13.675-5.868.529-.58 1.014-1.284 1.455-1.94.93-1.38 1.797-2.973 2.231-4.558 1.037-3.792.862-8.242-.631-11.542-.165-.367-.41-.784-.63-1.261-.424-.92-.878-1.594-1.504-2.376-.293-.367-.583-.888-1.066-.873-.418.013-1.014.616-1.066 1.115.267.877.823 1.266 1.212 1.94 1.354 2.346 2.299 5.045 2.183 8.438-.088 2.525-.764 4.667-1.601 6.401-.864 1.79-2.131 3.249-3.443 4.51-.434.417-1.007.746-1.503 1.164-.932.784-2.292 1.477-3.443 1.891-2.045.735-4.309.921-7.08.921-12.919.002-26.322-.29-39.376-.291-.82 0-1.715.148-2.474-.194-.29-1.312-.104-2.699-.146-4.073-.078-2.672-.048-5.248-.048-8.05 0-1.378.184-2.784-.194-3.977-.983-.215-2.294-.352-3.2-.048-1.839.615-1.552 2.847-1.552 5.431 0 2.986-.03 6.047.097 8.777.07 1.502-.167 2.929.291 4.073 1.25.222 2.553.226 3.83.196zm3.88-15.47c-.037 2.189.048 4.058.048 6.547 0 .941-.186 2.685.194 3.152.327.403 1.811.291 2.716.291 7.051-.001 14.33.259 21.045.048 4.14-.129 8.145.048 12.075.049 2.017 0 4.125.208 5.916 0 1.848-.215 3.271-.882 4.656-1.455 2.372-1.605 4.098-3.602 5.334-6.837 1.256-3.29.258-7.354-1.31-9.747-.22-.336-.553-.696-.873-1.116-.321-.42-.61-.84-1.212-.775-.394.042-1.077.383-1.116.775-.048.5.497.859.776 1.213.329.417.658.874.824 1.164.51.889 1.076 2.392 1.261 3.492.375 2.234-.268 4.388-1.018 5.916-.714 1.454-1.971 3-3.298 3.831-1.014.634-2.378 1.172-3.637 1.406-1.319.246-3.042.151-4.607.097-4.728-.163-9.699-.048-14.062-.049-4.78 0-9.45.151-14.16-.048-1.53-.065-3.098.124-4.608-.243-.128-2.15-.193-5.399-.145-8.05.012-.702.15-2.098-.194-2.473-.393-.427-1.408-.242-2.134-.242-.853 0-1.718-.093-2.23.145-.35.858-.225 1.883-.241 2.909zm.726-8.001c-.223.179-.613.783-.437 1.164.198.424 1.288.339 1.988.339.893 0 1.668.054 2.231-.145.315-.223.274-.987.193-1.455-.755-.602-3.318-.43-3.975.097zm11.445 12.705c1.345.007 2.715.021 4.073.048 6.649.131 13.975-.251 20.804.048 1.404.062 2.911.063 4.268-.048 2.118-.174 3.959-1.395 4.946-2.812 1.262-1.81 1.414-4.983.194-7.032-.835-1.4-2.418-2.729-4.51-3.104-1.297-.232-2.876-.081-4.364-.097-3.11-.033-6.133-.097-9.166-.097-3.001-.001-5.733.097-8.631.097-1.248 0-2.558-.15-3.638.194-.219.305-.219 1.247 0 1.552.989.262 2.074.146 3.152.146 1.067 0 2.169.027 3.249.048 4.305.085 8.788-.099 13.045 0 2.053.048 4.679-.223 6.353.291.8.246 1.769.838 2.327 1.504 1.002 1.19 1.237 3.457.437 4.995-.394.756-1.143 1.456-1.988 1.843-1.743.798-4.708.437-7.226.437-7.035 0-14.11-.048-20.948-.049-.588 0-1.235.108-1.795-.145-.386-1.424.102-3.724-.291-5.14-.469-.329-1.368-.243-2.182-.243-.822 0-1.725-.123-2.231.194-.281.97-.193 2.293-.193 3.588 0 1.275-.162 2.677.242 3.588 1.324.332 2.702.187 4.073.194zm-4.074-12.899c-.271.33-.324 1.133-.097 1.552 1.014.438 3.126.251 4.364.145.338-.316.338-1.381 0-1.697-1.298-.243-2.941-.15-4.267 0zm11.251 7.468c1.128-.053 2.296-.049 3.442-.049 6.017.001 10.939 0 16.924 0 1.159 0 2.406.165 2.328-1.066-.047-.737-.719-.921-1.697-.921-6.701 0-13.223-.097-19.979-.097-1.542 0-3.08-.171-4.267.243-.247.414-.242 1.286 0 1.697.975.293 2.127.246 3.249.193z" fill-rule="evenodd"/></svg>