<svg enable-background="new 0 0 27.079 27.079" viewBox="0 0 27.079 27.079" xmlns="http://www.w3.org/2000/svg"><g fill="#010101"><path d="m24.705 2.376c-3.177-1.498-7.022-2.376-11.166-2.376-4.145 0-7.989.878-11.165 2.376-1.496 3.176-2.374 7.02-2.374 11.164s.878 7.989 2.375 11.165c3.175 1.498 7.021 2.375 11.164 2.375s7.988-.877 11.164-2.375c1.497-3.176 2.376-7.02 2.376-11.165 0-4.144-.879-7.99-2.374-11.164zm-2.42 14.519c0 2.45-1.987 4.437-4.438 4.437h-11.943v-15.779h11.944c2.451 0 4.438 1.987 4.438 4.438 0 1.395-.644 2.637-1.651 3.451 1.006.814 1.65 2.057 1.65 3.453z"/><circle cx="17.426" cy="13.578" r="1.949"/><circle cx="9.653" cy="13.578" r="1.949"/><circle cx="13.54" cy="17.465" r="1.949"/><circle cx="13.54" cy="9.692" r="1.949"/></g></svg>