<svg enable-background="new 0 0 71.105 47.129" viewBox="0 0 71.105 47.129" xmlns="http://www.w3.org/2000/svg"><g clip-rule="evenodd" fill-rule="evenodd"><path d="m25.925.215c-.565 2.95-1.562 5.726-2.255 8.58-.343 1.41-.807 2.833-1.226 4.216-.422 1.392-.692 2.808-1.274 4.118-.334.064-1.015.117-1.275-.049.237-1.446.638-2.9 1.079-4.315.438-1.401.812-2.811 1.226-4.216.63-2.142 1.214-4.299 1.814-6.422.189-.671.245-1.432.686-2.01.418-.062.96-.167 1.225.098z"/><path d="m30.043.215c-.363 1.859-.81 3.635-1.471 5.197-.418.113-1.381.213-1.716-.049-.004-.91.347-1.821.588-2.696.244-.885.42-1.806.834-2.549.559-.02 1.419-.252 1.765.097z"/><path d="m38.231.165c.002.904-.354 1.813-.589 2.696-.236.889-.403 1.821-.833 2.55-.742.102-2.042.315-2.647-.049-.022-.919.36-1.807.588-2.696.228-.885.429-1.805.834-2.549.825-.009 1.99-.234 2.647.048z"/><path d="m42.398.215c-.158 1.511-.726 2.924-1.079 4.363-.707 2.88-1.63 5.649-2.402 8.432-.388 1.398-.63 2.831-1.274 4.118-.79.144-2.274.201-2.99-.049.122-1.471.696-2.852 1.078-4.265 1.129-4.174 2.315-8.459 3.53-12.649.867-.118 2.475-.239 3.137.05z"/><path d="m59.851 23.698c-.005.444.458.541.686.686 1.777 1.137 3.247 2.952 3.923 5.099.646 2.055.37 4.515-.196 6.667-1.017 3.858-3.106 7.264-6.128 9.168-1.488.937-3.727 1.731-5.933 1.765-7.105.108-15.288.005-22.551-.098.146-1.445.668-2.837 1.078-4.216.411-1.384.878-2.739 1.274-4.118.794-2.763 1.525-5.57 2.55-8.187 2.686-.162 5.542.059 8.235-.147.527-.955.768-2.072 1.079-3.138.319-1.093.601-2.196.932-3.284.653-2.16 1.419-4.298 1.813-6.472-.505-.314-1.191-.178-1.862-.196-.678-.018-1.428 0-2.157 0-1.432 0-2.942.116-4.118-.147.091-1.482.637-2.888 1.029-4.315.949-3.448 1.93-7.136 2.99-10.589.205-.666.314-1.405.687-2.01 4.069-.201 8.479-.071 12.501-.098 4.407-.03 8.677-.507 11.374 1.568 1.233.949 2.218 2.161 2.941 3.628.698 1.416 1.235 3.263 1.079 5.491-.137 1.952-.771 3.896-1.422 5.589-1.277 3.319-4.181 5.854-7.844 6.765-.618.154-1.35.183-1.96.589z"/><path d="m21.954.165c-.217 1.463-.662 2.896-1.079 4.314-1.234 4.206-2.319 8.534-3.677 12.648-.333.102-.759.131-1.029-.049.556-2.756 1.476-5.552 2.304-8.482.569-2.012 1.243-4.214 1.814-6.373.162-.61.403-1.773.687-2.059.036-.046.089-.074.146-.098.298.015.674-.051.834.099z"/><path d="m34.112.165c-.026.899-.392 1.793-.638 2.696-.239.882-.396 1.827-.833 2.55-.514.133-1.555.176-2.06 0-.045-.839.315-1.743.589-2.697.232-.807.437-2.032.833-2.549.036-.046.089-.074.147-.098.637.051 1.484-.11 1.962.098z"/><path d="m17.787.165c-.024.752-.225 1.532-.441 2.255-1.27 4.226-2.397 8.633-3.677 12.992-.088.3-.233.682-.344 1.029-.095.297-.114.824-.637.735-.41-.583.117-1.442.294-2.059 1.218-4.237 2.371-8.464 3.628-12.845.211-.737.355-1.598.686-2.059.067-.108.371-.143.491-.048z"/><path d="m13.57.264c.27.248.012.858-.098 1.225-1.331 4.457-2.439 9.059-3.824 13.58-.247.809-.506 1.625-.735 2.451-.224.806-.546 1.609-.735 2.402-.084.351-.068.717-.147 1.079-.24 1.108-.679 2.172-.981 3.285-1.956 7.192-4.167 14.192-6.274 21.277-.139.464-.175 1.075-.638 1.373-.28-.199-.056-.633 0-.833.54-1.935 1.276-4.011 1.863-5.981 1.86-6.253 3.753-12.746 5.638-19.071.165-.555.425-1.121.539-1.667.064-.307-.002-.622.049-.931.121-.725.476-1.495.686-2.255 1.444-5.232 3.018-10.584 4.511-15.786.052-.047.015-.182.146-.148z"/><path d="m3.863 47.034c-.206-.602.13-1.25.295-1.814.874-2.99 1.859-6.108 2.843-9.167.389-1.207.773-2.471 1.079-3.677.159-.629.096-1.391.539-1.912.994-.296.212 1.641.099 2.01-.67 2.159-1.143 4.569-1.815 6.569-.73 2.176-1.293 4.216-1.961 6.422-.169.561-.197 1.717-1.079 1.569z"/><path d="m13.277 30.512c-.152 1.395-.734 2.767-1.128 4.216-.759 2.8-1.61 5.388-2.5 8.285-.194.635-.433 1.262-.637 2.059-.253.984-.342 2.479-1.52 1.863-.032-.732.306-1.417.49-2.108.192-.717.318-1.411.54-2.108 1.289-4.053 2.345-8.273 3.774-12.256.27-.055.785-.113.981.049z"/><path d="m17.297 30.561c-.021.714-.343 1.388-.54 2.059-1.398 4.779-2.804 9.699-4.362 14.364-.313.129-1.019.162-1.324 0 .019-.732.284-1.463.49-2.157.603-2.028 1.277-4.111 1.912-6.177.638-2.077 1.184-4.159 1.863-6.226.217-.663.273-1.412.735-1.961.342-.051 1.027-.143 1.226.098z"/><path d="m33.72 30.512c-.11 1.452-.665 2.839-1.078 4.216-.419 1.395-.709 2.806-1.177 4.167-.934 2.712-1.567 5.524-2.599 8.138-.894.05-2.226.142-3.039-.049-.052-.733.296-1.429.49-2.108.986-3.452 2.04-6.915 3.088-10.394.412-1.364.75-2.765 1.373-4.019.866-.053 2.157-.137 2.942.049z"/><path d="m17.983 42.131c-.364 1.759-.855 3.393-1.471 4.903-.519.05-1.49.159-1.862-.098.13-.898.441-1.767.687-2.598.247-.841.466-1.691.932-2.354.512-.096 1.359-.176 1.714.147z"/><path d="m22.052 42.131c-.367 1.757-.811 3.437-1.471 4.903-.603.039-1.706.178-2.157-.098.312-1.603.868-3.379 1.471-4.854.564-.177 1.743-.337 2.157.049z"/><path d="m26.17 42.082c-.009.862-.401 1.711-.638 2.549-.237.845-.417 1.711-.833 2.402-.782.057-1.991.133-2.696-.049.097-.84.385-1.772.638-2.647.249-.866.481-1.788 1.029-2.354.782-.039 1.9-.247 2.5.099z"/></g></svg>