<svg enable-background="new 0 0 144.308 175.739" viewBox="0 0 144.308 175.739" xmlns="http://www.w3.org/2000/svg"><path clip-rule="evenodd" d="m127.364 120.096c-7.549 7.412-15.119 14.973-22.646 22.501-1.253 1.253-2.384 2.627-3.637 3.88-6.188 6.188-12.375 12.649-18.476 19.155-2.28 2.432-4.842 5.202-7.565 7.468-1.113.927-3.007 2.463-4.898 2.619-2.218.182-3.865-.823-5.237-2.279-6.747-6.637-13.519-13.25-20.028-20.125-3.286-3.386-6.489-6.876-9.844-10.232-3.338-3.339-6.839-6.553-10.038-10.039-4.8-5.23-9.995-10.058-14.79-15.323-2.401-2.638-4.982-5.006-7.274-7.808-.749-.916-1.58-1.858-2.085-2.91-1.021-2.125-.727-6.104-.727-9.311 0-13.238.039-26.645-.097-39.667-.017-1.598-.039-3.259 0-4.85.039-1.653.038-3.215.485-4.51.86-2.497 2.613-4.122 4.171-5.819 6.685-6.683 13.127-13.608 19.736-20.367 1.527-1.819 3.161-3.53 4.801-5.237 4.891-5.091 9.681-10.385 14.645-15.469.853-.901 1.88-1.521 3.443-1.601 4.837-.246 10.02-.049 14.936-.048 6.605 0 13.263-.033 19.785-.097 4.087-.04 8.279.083 12.463 0 1.035-.021 2.142-.048 3.152 0 1.069.051 2.034-.037 2.861.194 1.551.433 2.732 1.581 3.201 3.055.269.85.187 1.742.242 2.91.143 3.009.049 6.232.048 9.068 0 6.503.103 12.476.049 18.767-.009 1.003-.079 2.16 0 3.055.157 1.775 1.111 3.162 2.425 3.831.777.396 1.635.388 2.764.388h24.587c2.085 0 4.228-.162 6.208.049 1.785.19 3.031 1.181 3.733 2.57.71 1.405.533 3.519.533 5.723.001 12.523-.048 25.15-.048 37.291 0 4.398.048 8.309.048 12.511 0 1.675-.054 2.98-.728 3.977-1.01 1.497-2.269 2.802-3.637 4.17-4.17 4.168-8.19 8.189-12.561 12.51zm-61.004-96.793c-2.362 0-4.886.097-7.419.097-3.546 0-7.673.032-11.202.194-2.296.105-4.763.189-4.946 2.23-.136 1.514 1 2.31 1.746 3.152.587.663 1.276 1.328 1.891 1.891 1.286 1.177 2.92 2.447 3.394 4.122.536 1.893-1.08 3.535-1.94 4.51-.695.788-1.472 1.569-2.182 2.279-4.516 4.516-9.016 9.064-13.433 13.481-4.476 4.476-8.937 9.034-13.384 13.481-1.503 1.504-3.09 2.925-4.461 4.51-.741.857-1.398 1.547-1.794 2.667-.407 1.153-.311 2.566.146 3.734.845 2.161 2.395 3.51 3.928 5.043 1.474 1.474 3.105 2.863 4.607 4.364 4.52 4.52 8.914 9.06 13.384 13.53 5.956 5.955 11.901 12.143 17.797 18.039l8.971 8.971c1.643 1.643 2.93 3.108 4.995 3.977 2.772 1.167 4.861-.005 6.546-1.358 3.351-2.688 6.057-5.801 9.068-8.874 2.951-3.011 5.889-6.034 8.874-9.02 3.762-3.762 7.606-7.411 11.299-11.105.741-.74 1.409-1.57 2.182-2.328 1.412-1.381 2.819-3.501 4.752-4.219 1.377-.511 2.518.114 3.346.728 1.81 1.34 3.03 2.84 4.461 4.51.581.678 1.464 1.677 2.521 1.988 3.088.908 3.085-3.382 2.958-6.062-.08-1.692.002-3.347.048-4.849.209-6.645-.127-12.903.097-19.397.106-3.06.078-6.816-1.455-8.487-1.552-1.69-4.691-1.854-8.147-1.697-3.255.147-6.744.048-9.795.048-5.012 0-9.954-.099-14.936 0-2.814.056-6.607.43-5.334 3.54 1.258 3.074 5.676 4.603 6.741 7.856.56 1.709-.817 3.204-1.697 4.17-2.363 2.595-4.714 5.005-7.08 7.371-1.625 1.625-3.206 3.061-4.898 4.753-1.359 1.359-3.241 3.821-5.431 4.219-1.476.269-2.586-.567-3.395-1.309-.947-.87-1.61-1.706-2.376-2.473-1.705-1.705-3.38-3.359-4.898-4.753-2.646-2.429-4.662-4.856-7.128-7.322-1.064-1.064-2.634-2.732-2.085-4.801.56-2.112 2.914-3.642 4.365-5.092 2.504-2.505 4.695-4.695 7.08-7.08.802-.802 1.727-1.59 2.328-2.425.609-.846 1.41-1.623 2.279-2.425.848-.782 2.182-1.968 3.734-1.648 1.613.333 2.989 1.979 4.025 2.958 1.289 1.218 2.358 2.688 3.588 3.443.443.272 1.202.66 2.134.388 2.151-.627 2.085-5.448 2.085-8.486 0-3.477.049-6.596.048-9.699 0-3.144.214-6.232.097-9.602-.108-3.095.328-6.777-.485-9.165-.906-2.66-4.596-2.933-8.147-2.764-2.239.109-4.9.196-7.467.196z" fill-rule="evenodd"/></svg>