<svg enable-background="new 0 0 80.91 81.579" viewBox="0 0 80.91 81.579" xmlns="http://www.w3.org/2000/svg"><path clip-rule="evenodd" d="m38.996.037c6.404-.304 12.619 1.297 17.139 3.205 4.77 2.012 8.709 4.992 12.138 8.156 3.662 3.379 6.152 7.164 8.545 11.799 2.26 4.375 3.935 10.215 4.079 16.217.159 6.602-1.15 12.316-3.156 17.09-2.981 7.098-7.558 12.789-13.304 17.141-1.899 1.438-4.034 2.709-6.312 3.834-4.597 2.273-9.852 3.877-16.216 4.08-6.629.209-12.282-1.199-17.091-3.156-7.293-2.971-12.647-7.508-17.042-13.449-2.891-3.908-5.073-8.32-6.457-13.838-1.337-5.33-1.845-12.365-.631-18.256.284-1.379.617-2.779 1.02-4.078.404-1.305.782-2.629 1.263-3.787.973-2.348 2.195-4.637 3.544-6.604 1.355-1.977 2.817-3.996 4.467-5.682 3.282-3.352 7.029-6.488 11.653-8.643 4.487-2.09 9.823-4.025 16.265-4.029.03 0 .064.002.096 0zm29.471 39.862c-.691.168-1.364.85-2.039 1.311-1.465 1.002-2.558 1.627-4.03 2.672-.354.25-1.813 1.072-1.845 1.553-.029.439.735 1.365 1.068 1.846 2.47 3.568 4.847 6.926 7.234 10.535.354.535.876 1.494 1.311 1.652.508.184 1.459-.008 1.845 0 .989-1.176 1.51-2.635 2.137-4.031 1.949-4.342 3.059-9.379 3.059-15.537 0-3.793-.739-7.434-1.796-10.584-3.116-9.283-8.826-15.853-16.654-20.488-4.94-2.928-11.795-5.422-19.81-5.051-7.642.353-13.358 2.566-18.208 5.682-.295.189-.743.371-.825.775 4.136.283 8.706-.137 12.818.195-.076.777-.357 1.504-.582 2.184-.228.689-.407 1.404-.825 1.943-.706.152-1.795-.08-2.428.147-.763 1.455-1.212 3.148-1.748 4.807-.262.809-.585 1.607-.874 2.428-.283.801-.628 1.674-.583 2.523.76.125 1.399-.365 2.087-.582 2.129-.674 4.341-1.348 6.943-1.457 1.738-.074 3.358.324 4.661.922 1.121.516 2.585 1.449 3.01 2.623.583 1.607-.291 3.52-.68 4.758-.233.742-.573 1.49-.826 2.232-1.068 3.145-2.003 6.072-3.059 9.178-.52 1.529-1.006 3.086-1.796 4.32-1.699 2.658-4.96 3.725-8.691 3.156-2.565-.391-4.887-1.316-6.943-2.232-.684-.305-1.348-.748-2.185-.875-.608.51-.472 1.762-1.068 2.283-3.006.096-6.322.096-9.468.096-1.045 0-2.145-.115-3.108.147.233 1.996.906 3.734 1.602 5.584.316.838.654 1.603 1.117 2.523.369.734.812 1.982 1.408 2.234.766.324 2.36.049 3.496.049 8.443.002 17.21.068 25.248-.098.655-1.102.956-2.375 1.359-3.594.823-2.488 1.738-4.896 2.524-7.379.393-1.24.939-2.469 1.263-3.691.08-.301.069-.625.146-.922.351-1.361.916-2.691 1.359-4.029.912-2.756 1.77-5.463 2.719-8.158.479-1.357 1.071-2.697 1.311-4.127-.396-.379-1.67.117-1.991-.338.1-.75.417-1.551.68-2.332.261-.777.427-1.631.922-2.184 4.807-.09 10.02-.049 14.857-.049.674 0 1.376-.115 1.991.145-.171.795-.437 1.607-.68 2.379-.244.777-.446 1.603-.922 2.185-.667.125-1.616-.029-2.282.098-.611 1.191-.908 2.516-1.36 3.787-.904 2.547-1.8 5.121-2.573 7.719-.395 1.326-1.028 2.609-1.068 4.031 1.039-.311 1.943-1.012 2.864-1.604.907-.582 1.831-1.27 2.525-2.039.17-1.027-.103-2.498.146-3.447 1.79-.07 3.717-.234 5.584-.145 1.807.086 3.859-.207 5.535.193.131 1.105.218 2.955-.048 3.982-1.023.262-2.675-.184-3.834.096zm-54.233-25.198c-3.314 3.264-6.137 7.348-8.06 12.186-1.415 3.56-2.517 7.766-2.622 12.43-.035 1.545-.165 3.158.194 4.709.853.164 2.3.15 3.156 0 .937-2.365 1.754-4.793 2.524-7.234 1.549-4.904 3.351-9.713 4.904-14.613.779-2.457 1.739-4.861 2.282-7.381-.529-.274-1.697-.134-2.378-.097zm10.924 15.196c-2.244 1.557-2.696 3.535-3.69 6.459-.258.758-.435 1.305-.729 2.135-.243.689-.746 1.676-.68 2.234.034.289.442.797.68 1.068.968 1.102 3.028 2.004 4.758 1.506 1.795-.52 2.059-2.57 2.719-4.273.69-1.781 1.408-4.043 2.04-5.924.275-.818.933-2.301.68-3.205-.284-1.01-1.413-1.385-2.573-1.262-1.286.137-2.332.656-3.205 1.262zm27.384 22.043c-.321.332-.484 1.225-.68 1.797-.656 1.92-1.44 3.715-1.845 5.584.397.428 1.687-.037 2.136.34-.072.736-.39 1.516-.631 2.281-.238.758-.423 1.58-.874 2.137-12.25.012-24.209-.002-36.463 0-.744 0-1.528-.113-2.233.146.535 1.084 1.488 1.877 2.331 2.719 2.586 2.586 5.372 4.703 8.74 6.506 4.47 2.392 9.618 3.875 15.974 4.369 3.28.256 6.452-.145 9.273-.775 8.322-1.863 14.515-6.016 19.227-11.266.42-.471.989-.791 1.117-1.553-3.551-.293-7.965.1-11.362-.195-.163-.439-.137-1.203-.146-1.99-.008-.758-.13-1.707.049-2.186.149-.396.533-.27.631-.631-1.206-1.777-2.393-3.809-3.69-5.631-.37-.52-.947-1.576-1.408-1.748-.058.023-.111.051-.146.096z" fill-rule="evenodd"/></svg>