<svg enable-background="new 0 0 69.7 70.38" viewBox="0 0 69.7 70.38" xmlns="http://www.w3.org/2000/svg"><path clip-rule="evenodd" d="m9.302 60.422c.838.309 1.787.159 2.679.199 2.721.119 5.715.049 8.631.049 7.552.001 15.294-.001 23.018 0 3.917.001 6.893-.716 9.574-2.133 2.454-1.296 4.872-3.163 5.954-5.804 1.32-3.225.768-6.863-.893-9.277-1.56-2.266-3.962-4.098-7.491-4.266-3.543-.169-6.296 1.328-7.888 3.721.291.817 1.018 1.199 1.438 1.885.507.601 1.058 1.158 1.637 1.687.794 1.022 1.593 1.555 2.48 2.53.256.281.647.66.645.992-.004.575-1.025 1.247-1.438 1.637-.53.501-.958 1.057-1.488 1.588-.501.5-1.036.904-1.588 1.488-.425.45-1.032 1.483-1.587 1.488-.523.005-1.326-1.168-1.786-1.637-1.736-1.769-3.45-3.368-5.159-5.11-1.562-1.592-3.302-3.451-5.06-5.209-.423-.423-1.575-1.251-1.588-1.786-.009-.386.791-1.058 1.141-1.438.435-.473.908-.928 1.29-1.29 3.641-3.456 6.375-7.131 11.509-9.079 1.22-.463 2.647-.948 4.018-1.091 3.199-.335 6.418.002 9.029.843 4.932 1.589 8.73 5.058 11.062 9.475 1.151 2.18 2.084 4.894 2.233 8.037.154 3.264-.446 6.156-1.538 8.731-2.029 4.784-5.786 7.972-10.121 10.467-2.248 1.293-4.755 2.084-7.59 2.679-2.893.607-6.205.631-9.723.546-10.279-.248-20.205.001-30.41 0-2.551-.001-5.136 0-7.739 0-.795-.001-1.61.114-2.381-.149-.265-.878-.149-1.823-.149-2.728-.001-13.993.001-28.833 0-42.763 0-1.979.027-3.698.348-5.357.305-1.584.694-3.045 1.24-4.465.549-1.426 1.069-2.768 1.687-4.018.605-1.223 1.463-2.321 2.333-3.374 3.036-3.673 6.843-6.478 12.65-7.293 6.941-.974 12.48 1.804 15.974 5.01 3.146 2.888 5.641 6.81 6.3 12.055.746 5.936-1.078 10.8-3.671 14.287-1.882 2.532-4.465 4.676-6.747 7.044-.323.336-.699.699-1.141 1.141-.338.338-.878 1.023-1.24 1.041-.481.024-1.579-1.29-1.885-1.587-.633-.613-1.199-1.219-1.687-1.736-1.185-1.257-2.208-2.269-3.423-3.423-2.039-2.067-3.918-3.84-6.002-6.003-.283-.293-.73-.655-.744-.942-.031-.624 1.014-1.262 1.439-1.687 1.35-1.351 2.532-2.533 3.919-3.919.245-.245.543-.687.843-.694.529-.013 1.465 1.131 1.835 1.538 1.392 1.528 2.689 2.727 4.217 4.167.332.312.558.733.893.744.526.018 1.254-.897 1.637-1.339 1.362-1.574 2.291-3.826 2.183-6.697-.14-3.728-2.164-5.907-4.217-7.64-2.083-1.664-6.272-2.334-9.376-.992-2.751 1.189-4.621 3.417-5.953 5.854-1.1 1.868-1.888 4.146-2.183 6.747-.311 2.746-.18 5.635-.1 8.433.028.962-.09 1.908-.099 2.877-.009.942.099 1.908.099 2.828 0 3.874-.157 7.83-.049 11.708.108 3.862.025 7.741.199 11.41z" fill-rule="evenodd"/></svg>