<svg enable-background="new 0 0 71.298 74.078" viewBox="0 0 71.298 74.078" xmlns="http://www.w3.org/2000/svg"><g clip-rule="evenodd" fill-rule="evenodd"><path d="m57.371.939c-.291.248-.736.137-1.103.137-2.947 0-6.015-.184-9.002-.184-.47 0-.984.17-1.378-.139.396-.476 1.242-.502 1.884-.734 3.358.148 7.502-.488 9.599.92z"/><path d="m59.3 2.591c-1.188.268-2.489.137-3.812.139-3.247 0-6.725-.168-9.921-.185-.627-.002-1.308.111-1.883-.137.13-1.107 1.858-.723 3.031-.643 1.579.105 3.529-.01 5.419.045 1.876.055 3.76.156 5.236.092.897-.039 1.763-.295 1.93.689z"/><path d="m60.54 4.291c-.548.31-1.272.191-1.883.183-4.536-.057-9.695-.039-14.238-.228-.601-.025-1.411.127-1.929-.139-.092-.381.202-.67.551-.69 1.677-.092 4.085.182 5.971.186.987 0 2.176-.037 3.308-.047 2.144-.018 4.517.145 6.751.047.589-.027 1.493-.109 1.469.688z"/><path d="m41.755 5.853c-.265-1.051 1.178-.66 2.159-.598 4.087.258 9.251.139 13.182.139.816-.002 1.643.123 2.48.092.133-.006 1.738-.328 1.607.459-.07.42-1.198.32-1.745.32-5.207 0-10.199-.229-15.249-.229-.879.001-1.811.131-2.434-.183z"/><path d="m41.48 7.414c.002-.484.177-.537.367-.551.646-.047 1.38.055 2.159.047 3.412-.043 6.673.158 10.013.137 1.65-.01 3.757-.035 5.695.047.456.019 1.514-.018 1.607.275.168.525-.449.584-.827.596-1.865.066-4.596-.031-6.338-.092-3.65-.125-7.645-.127-11.345-.184-.444-.006-1.033.109-1.331-.275z"/><path d="m49.012 8.837c.068.174.068.518 0 .689-.856.262-1.924.094-2.985.047-1.052-.049-2.195-.061-3.169-.047-.466.006-.974.158-1.332-.137-.276-.928.361-.824 1.103-.781.733.041 1.742-.047 2.526-.047.713 0 1.444.139 2.112.139.643.001 1.282-.167 1.745.137z"/><path d="m61.275 8.929c.054.15.087.5 0 .645-.392.266-.888.111-1.377.09-1.454-.061-3.089.039-4.593.047-.518.004-1.078.01-1.516-.184-.089-.24-.103-.766.184-.781 1.162-.088 2.863.045 4.317.047 1.069-.001 2.131-.239 2.985.136z"/><path d="m49.058 11.042c-.178.357-.62.197-.964.184-1.563-.062-3.667-.035-5.42-.045-.457-.004-1.221.147-1.194-.506.016-.297.241-.295.459-.322.899-.107 2.464.039 3.858.047.611.004 1.347.045 1.929.045.605 0 1.441-.135 1.332.597z"/><path d="m61.322 10.996c-.193.469-.898.379-1.378.369-1.601-.033-3.532.012-5.099-.094-.383-.025-.877.133-1.102-.184-.156-.285.047-.576.321-.596 1.31-.094 3.956-.01 5.328 0 .657.005 2.062-.13 1.93.505z"/><path d="m48.966 12.236c.087.289.021.65-.138.828-1.05.053-2.312-.006-3.582-.047-1.262-.039-2.603.139-3.675-.137-.067-.254-.119-.801.138-.873.476-.078 1.367.002 1.929.045 1.777.141 3.815-.261 5.328.184z"/><path d="m48.92 13.982c.069.184.069.551 0 .734-1.087.184-2.444.062-3.766 0-1.31-.06-2.673.166-3.767-.137-.138-.307-.105-.752.229-.828 1.243.066 2.501-.002 3.721 0 .614.002 1.248.121 1.883.094.587-.027 1.222-.191 1.7.137z"/><path d="m26.231 15.267c.241.897.184 2.027.184 3.123-.001 4.744-.139 9.232-.139 14.238 0 .244-.159 1.463.322 1.471.419.006.367-.844.367-1.148 0-1.34-.043-3.258 0-4.408.158-4.215-.035-7.531.138-11.621.026-.615-.176-1.285.229-1.699.911-.133.689.916.689 1.469 0 3.029.152 6.854 0 9.922-.084 1.664-.026 3.654-.046 5.695-.006.576-.179 1.758.367 1.791.743.047.459-2.207.459-2.939.001-4.816.092-9.371.092-14.422 0-.482-.121-1.035.185-1.424h.459c.404.568.229 1.336.229 1.975-.001 12.404-.247 24.953-.367 37.387-2.126.219-4.866.035-7.257.092-.668.016-1.975-.252-2.067.322-.087.537.482.504 1.103.504.617 0 1.227.045 1.516.047 1.465.004 3.526.004 4.777 0 .568-.002 1.459-.178 1.883.092.067.172.067.516 0 .689-.643.33-1.497.144-2.297.137-1.581-.016-3.044 0-4.776 0-.541 0-2.162-.199-2.159.322.003.434 1.292.41 1.792.412 1.985.014 4.493-.062 6.613.047.295.016.712-.096.873.23.143 1.035-1.898.604-2.756.596-1.165-.01-2.356 0-3.767 0-.886 0-2.915-.27-2.802.506.112.764 2.675.049 3.17.506.452 1.193-1.166.74-2.113.734-.388-.002-1.337-.033-1.286.506.044.463 1.114.354 1.653.367.726.018 1.46-.119 1.792.184.048.246.062.494-.046.688-.909.314-2.747-.143-3.721.23-.419-.043-.896-.229-.965.184-.105.635 1.375.473 2.251.506 1.063.041 2.865-.365 2.48.734-.308.299-.889.184-1.378.184-.5 0-1.022.018-1.516 0-.934-.035-2.035-.254-2.251.598.562.367 1.815.229 2.894.229.935 0 2.495-.334 2.251.781-.479.283-1.141.139-1.792.139-.609 0-1.273.043-1.929.045-.891.002-1.82-.176-2.572-.045-.393.066-.634.467-1.011.459-.259-.502-.115-1.088-.138-1.654-.114-2.861.047-5.955.047-9.094-.001-2.438-.106-5.051.137-7.119-.04-.274-.171-.674-.046-.965 1.905-.133 4.091-.086 6.155-.045.377.008.815-.043 1.103.184.433.877-.86.689-1.562.689-1.808 0-3.968-.133-5.374 0-.084.352.393.52.597.734 1.414.145 3.035.024 4.593.092.667.029 1.382-.133 1.884.229.018.219-.015.385-.047.553-.271.326-.746.148-1.147.137-1.149-.029-2.688-.01-3.858.139.275.934 2.07.598 3.215.598 1.229-.002 2.641.26 3.583-.047.085-2.445.286-5.25.092-7.67-.564-.191-1.31-.18-1.975-.184-1.283-.008-2.642-.041-3.812.092-.396.014-.724-.223-.873.137.007.449.592.397.965.414 1.148.055 2.811-.057 3.811.184.137.168.137.705 0 .873-.971.213-2.318.057-3.352 0-.756-.041-1.709-.111-1.975.504.233.359.804.23 1.24.23 1.273 0 3.032-.039 4.134.23.056.203.107.689-.047.826-.499.203-1.13.092-1.745.092-1.809 0-3.889.021-5.558-.137-.165-5.479.093-10.758.093-16.26 0-.373-.118-.854.184-1.149.811.004.561.84.551 1.469-.011.668.052 1.422.046 2.297-.004.553-.197 1.98.459 1.975.584-.004.446-1.363.414-2.066-.04-.859-.11-1.721.138-2.297.663.096.688.963.688 2.021 0 .701-.229 2.301.368 2.297.704-.006.171-1.447.459-1.975.559.389.375 1.524.826 2.02 1.607.014 3.522.168 4.961.047.302-.601.227-1.445.229-2.205.018-5.285.018-11.174.23-16.58.113-.111.39-.125.552-.051zm-8.496 20.072c-.021-.43-.904-.541-.781.184.266.305.799.209.781-.184zm4.455.459c.816 0 1.667-.021 2.25 0 .306.012.853.137.919-.23.098-.539-.937-.504-1.516-.504-.645 0-1.532.022-2.021 0-.635-.029-1.696-.268-1.607.459.362.367 1.208.275 1.975.275zm-2.894-.414c.001-.27-.242-.406-.505-.275-.603.303.5 1.002.505.275zm8.681.139c.067.385.836.424.734-.231-.231-.41-.803-.166-.734.231zm-1.608.184c.407.232.663-.336.367-.551-.395-.094-.479.277-.367.551zm-9.461 1.562c.113.279.538.342.781.137.393-.785-.946-1.043-.781-.137zm7.119-.506c-.934-.014-2.396-.162-3.215-.047-.379.055-.675.074-.644.459.042.502 1.046.369 1.562.369.699 0 1.343-.037 1.929 0 .532.033 1.706.371 1.699-.369-.036-.588-.852-.406-1.331-.412zm-4.777.229c-.202-.844-1.238.428-.229.506.164-.116.286-.266.229-.506zm9.278.689c.249-.146.249-.77 0-.918-.893-.238-.701 1.246 0 .918zm-2.297-.412c.062.428.737.428.644-.23-.252-.446-.695-.127-.644.23zm-8.91 2.203c.308-.012.417-.273.368-.734-.682-.739-1.159.765-.368.734zm1.654-.045c.322-.045.377-.621.092-.826-.76-.078-.541.887-.092.826zm1.469-.826c-.237.082-.367.273-.321.643.514.449 1.549.275 2.48.275.948 0 1.998.105 2.664-.139.065-.152.065-.443 0-.596-1.294-.374-3.239-.099-4.823-.183zm7.625.871c.139.062.366.062.505 0 .167-.117.193-.568.046-.734-.496-.405-.95.379-.551.734zm-1.286-.687c-.619-.449-.777 1 0 .643.116-.165.116-.481 0-.643zm-9.784 2.066c.097.279.626.211.644-.092-.04-.355-.705-.371-.644.092zm1.654-.275c-.239.397.434.635.506.229.022-.274-.3-.321-.506-.229zm5.007 0c-1.089-.051-2.483-.057-3.445 0-.118.033-.159.147-.138.32.68.352 1.765.184 2.71.184.159 0 .336.045.506.047.716.008 1.646.195 1.929-.322-.338-.397-1.003-.204-1.562-.229zm4.317.367c.115.291.705.217.688-.139-.077-.283-.761-.258-.688.139zm-1.286-.276c-.978.082.4.784 0 0zm-9.646 2.159c1.128.307.162-1.225-.092-.184.001.092.126.059.092.184zm11.024-.368c-.317.139-.156 1.381-.184 1.975-.066 1.393-.092 2.748-.093 4.18 0 .656-.156 1.75.552 1.607.448-.09.321-1.16.321-1.838 0-1.51.002-2.732.046-4.133.021-.668.12-1.371-.184-1.838-.126-.048-.396-.089-.458.047zm-1.286 6.752c0-1.568.092-2.877.092-4.455 0-.721.22-2.795-.551-2.252-.226 1.74-.123 4.084-.138 5.879-.005.531-.311 1.791.367 1.793.331-.105.23-.601.23-.965zm-9.738-5.099c-.273.467.344.738.598.414.087-.473-.307-.57-.598-.414zm.552 5.742c.086-.492-.777-.637-.735.045.165.357.681.26.735-.045zm-.644 2.066c.546.346 1.003-.477.506-.781-.625-.158-.765.451-.506.781zm6.064-.734c-1.238-.088-2.835.063-4.042-.047-.403-.035-.49.514-.276.736.28.131.55-.035.735-.139.758.486 2.262.275 3.583.275.803 0 1.582.143 2.158-.137.01-.035.001-.092.046-.092.103-.92-1.227-.528-2.204-.596zm3.582.826c.153-.111.18-.475.092-.689-.479-.428-.811.824-.092.689zm1.24-.228c.195.467 1.054.158.734-.414-.268-.287-.869-.116-.734.414zm-10.334 1.927c.147-.197.147-.445 0-.643-.835-.403-.813 1.034 0 .643zm6.246-.689c-.641 0-1.422-.027-2.021 0-.618.029-1.449-.076-1.7.322.065.619 1.048.508 1.654.506.565-.002 1.249-.047 1.883-.047s1.391.156 1.653-.275c.034-.68-.856-.506-1.469-.506zm-5.144.506c.197.656 1.237-.146.598-.459-.582-.074-.675.201-.598.459zm7.579.047c.083.1.154.213.367.184.212-.041.223-.398.138-.598-.275-.184-.564.007-.505.414zm2.388-.276c-.035-.012-.053-.039-.046-.094-1.284-.458-.149 1.356.046.094zm-10.931 1.883c.052-.867-1.355-.242-.598.367.428.041.58-.082.598-.367zm.964-.275c-.254.906 1.094.756.735 0-.161-.223-.574-.223-.735 0zm-.964 1.883c-.034-.246-.292-.34-.552-.231-.806.344.668 1.08.552.231zm.964.228c.114.162.529.193.69.047.01-.035.001-.092.046-.092.125-.607-.92-.617-.736.045zm-1.791 1.699c.172.398.966.256.827-.32-.036-.01-.054-.039-.046-.092-.267-.275-.938-.148-.781.412zm1.745 0c.147.225.467.275.69.092.373-.701-.874-.92-.69-.092zm-1.011 1.379c-.361-.363-.997.088-.643.551.315.201.773.014.69-.459-.036-.01-.054-.039-.047-.092zm1.792.229c-.013-.32-.271-.395-.505-.32-.908.285.539 1.245.505.32zm-1.745 1.746c-.04-.232-.267-.352-.552-.23-.83.357.703 1.13.552.23zm-.827 2.021c.244.312.943.201.827-.367-.036-.012-.054-.039-.047-.092-.326-.338-.991-.023-.78.459z"/><path d="m31.467 15.361c.365.74.12 2.156.092 3.029-.047 1.451 0 2.982 0 4.502 0 9.9-.229 19.756-.229 29.9 0 .531.15 1.863-.321 1.975-.769.182-.689-.826-.689-1.424 0-.809-.021-1.635 0-2.066.193-4.041.093-8.33.093-12.217-.002-5.502.043-11.322.229-16.26.062-1.682-.001-3.603 0-5.603 0-.613-.075-1.6.138-1.791.085-.143.537-.114.687-.045z"/><path d="m33.259 15.406c.332.32.094 1.049.091 1.562-.011 2.676.001 5.369 0 8.082-.002 9.051-.33 19.053-.229 27.695.008.621.087 2.008-.413 2.068-.812.096-.514-1.83-.505-2.389.046-3.037.063-6.32 0-8.773-.027-1.051.092-2.107.092-3.168-.001-5.967.183-11.301.184-17.27 0-2.639-.002-5.299.184-7.764.129-.125.402-.094.596-.043z"/><path d="m35.188 15.451c.227 1.629.146 3.481.046 5.236-.048.838.142 1.791-.138 2.527-.154.064-.443.064-.598 0-.244-.68-.138-1.633-.138-2.572 0-1.463.073-2.566.046-3.951-.009-.451-.154-1.107.138-1.24.123-.178.494-.069.644 0z"/><path d="m36.933 15.451c.284 1.703.129 4.631.046 6.293-.027.555.191 1.795-.597 1.471-.318-.131-.184-1.668-.184-2.113 0-1.883-.056-4.041.091-5.603.123-.121.466-.121.644-.048z"/><path d="m38.403 15.406c.529.178.395.889.413 1.285.075 1.559-.046 3.344-.046 5.008.001 6.617-.165 13.211-.138 19.519.015 3.406-.092 6.762-.092 10.426 0 .5-.018 1.188-.046 1.791-.021.434.259 1.367-.505 1.332-.482-.103-.352-.777-.368-1.101-.06-1.283.05-2.672.093-3.996.088-2.746-.017-5.672 0-8.635.043-7.941.229-15.566.229-23.563 0-.764-.167-1.769.138-1.975.044-.093.176-.099.322-.091z"/><path d="m48.966 16.095c-.267.445-.789.248-1.24.229-1.998-.088-4.496.043-6.338-.137-.19-.256-.151-.705.184-.781 1.804.057 4.013.037 5.971.092.523.013 1.492-.125 1.423.597z"/><path d="m61.23 15.773c.064.154.064.443 0 .598-2.528.148-5.595 0-8.313 0-.884 0-1.8.143-2.526-.184-.031-.424.026-.627.322-.643.636-.037 1.438.078 2.25.092 2.309.035 5.035.131 7.165.045.394-.015.754-.168 1.102.092z"/><path d="m39.827 15.82c.658-.092.551.621.551 1.285 0 9.475-.184 19.295-.184 29.074 0 2.551-.187 4.818-.092 7.854.006.188.105.736-.275.781-.704.08-.459-1.547-.459-2.068-.001-2.369.046-5.025.046-7.348 0-3.18-.05-6.477.092-9.691.146-3.295.001-6.594.092-9.828.046-1.65.046-3.31.046-4.961 0-1.643-.038-3.436.046-4.961.024-.067.07-.112.137-.137z"/><path d="m48.92 17.289v.506c-.672.273-1.725.137-2.71.137-.467 0-.94.006-1.378 0-.417-.006-.927-.188-1.147.184.027.758 1.094.521 1.837.553.56.021 1.248.002 1.929 0 .618-.004 1.916-.096 1.516.734-.185.383-1.199.197-1.791.184-1.028-.023-1.98-.197-2.435.23-.276-.029-.293-.32-.688-.23-.776.545.39 1.463.643.414.251.146.318.477.644.551.604-.029 1.27.08 1.929.092.624.012 1.373-.256 1.699.229-.028.141.059.396-.046.459-.709.65-2.781-.188-3.444.414-.021 1.381 2.704.232 3.444.873.081.207.062.578-.046.734-.434.473-3.226-.459-3.353.414-.153 1.047 2.844.23 3.353.689.067.172.067.516 0 .687-.426.217-1.039.106-1.791.092-.51-.008-1.537-.162-1.562.369-.026.57 1.041.465 1.562.459.701-.01 1.336-.125 1.745.137.151.164.099.559 0 .734-.561.096-1.398.174-2.066.139-.51-.025-1.302-.289-1.332.367-.049 1.027 2.827.215 3.444.689.067.172.067.516 0 .69-.873.486-2.989-.42-3.536.459.227.547 1.173.383 1.929.412.636.025 1.293-.115 1.653.185.067.172.067.516 0 .688-1.139.389-3.269-.242-4.272.275-.308-.123-.782-.322-.918.092.213.57 1.241.399 1.929.414 2.189.053 4.765-.088 6.798.045.628.043 1.454.299 1.699-.367-.191-.492-.965-.275-.827-.963.142-.709 1.401-.07 1.745-.689-.043-.676-1.198-.24-1.653-.506-.128-.135-.115-.539-.046-.734.358-.338.898-.121 1.378-.092 1.574.098 3.537-.021 5.145.045.458.019.921-.108 1.286.139.139 6.74.065 14.014-.184 20.807-.259-.498-.323-1.133-.414-1.746-.087-.59-.225-1.211-.275-1.838-.13-1.602.046-3.404.046-5.143 0-.887-.026-1.77 0-2.619.025-.816.185-1.652-.092-2.389-.43-.031-.567.229-.781.414-.244 1.314 0 2.726-.045 3.996-.025.678-.284 1.375-.414 2.021-.138.69-.172 1.402-.505 1.928-.101-.887-.046-1.947-.046-2.984s.109-2.143-.138-2.986c-.979-.018-.689 1.334-.689 2.066 0 5.232.064 10.689-.046 16.215-.014.703.073 2.277-.321 2.387-.865.242-.632-1.451-.597-1.883.199-2.465.045-5.189.046-7.578 0-2.562.045-5.049.046-7.67 0-.807.196-1.75-.275-2.297-.772.049-.644.891-.644 1.562 0 5.119-.093 10.754-.092 16.074.001 2.092-.204 3.703-.735 5.281-.284-1.102-.092-2.393-.092-3.627.001-5.947.09-11.068.092-17.086.001-.676.109-1.703-.275-1.791-.613-.141-.505.81-.505 1.377 0 1.893.008 3.91 0 5.559-.008 1.498-.213 3.096-.138 4.684.202 4.269-.103 9.668-.092 13.918.001.441.244 2.041-.322 2.111-.633.078-.459-1.346-.459-1.744 0-5.92.029-12.014.046-17.408.006-1.9.092-4.217.092-6.43 0-.596.12-1.774-.275-1.883-1.007-.281-.598 2.123-.597 2.572.012 5.002-.139 10.486-.139 15.662.001 2.006 0 4.734 0 7.072 0 .645.238 2.314-.505 2.113-.54-.295-.321-1.068-.321-1.562 0-2.225.07-4.299.046-6.613-.024-2.332 0-4.412 0-6.752.001-3.078.02-6.557.046-9.553.002-.229-.058-.463-.046-.689.04-.748.501-1.322.413-2.113-.808-.299-1.833-.127-2.756-.184-1.221-.072-2.378-.363-3.169-.781.464-.351 1.106-.119 1.745-.09 1.429.063 3.26.023 4.502-.094.354.07 1.103.238 1.056-.367-.035-.453-1.024-.434-1.562-.459-.758-.035-1.438.049-1.975.047-1.807-.012-3.987-.217-5.558-.139-.294-.242-.749-.322-.827-.781.714-.193 1.58-.184 2.48-.137 1.642.084 3.422.092 5.282.092.69 0 2.163.289 2.158-.414-.003-.498-.619-.414-1.286-.412-.671 0-1.321-.09-1.608-.092-2.517-.033-5.37.039-7.853-.092-.233-.211-.506-.383-.506-.828.343-.297.903-.184 1.379-.184 2.45 0 4.906.086 7.44.139.612.012 2.611.295 2.434-.506-.109-.492-1.799-.322-2.618-.322-1.971 0-3.823.039-5.741-.045-.97-.043-1.995-.174-2.847-.047-.374.057-.587.387-.965.275-.221-1.934-.062-3.945 0-5.879.015-.467-.093-.922-.092-1.377.009-3.441.189-6.883.184-10.289.025-.064.071-.111.138-.137.318.049.457.277.735.367 1.301.041 2.759.049 4.087.137.938.065 1.936-.148 2.663.231zm-6.751 1.101c.178.434.928.162.643-.367-.259-.199-.746-.072-.643.367zm.551 2.068c.163-.162.257-.551.092-.781-.778-.545-.953 1.119-.092.781zm-.413 1.836c.177.01.338.002.459-.045.654-.951-1.24-.736-.459.045zm2.158 0c.144-.211.144-.479 0-.688-.888-.372-.712 1.14 0 .688zm-1.837 1.883c.392-.115.277-.922-.23-.734-.521.183-.215.867.23.734zm1.791 0c.118-.121.118-.465.046-.643-.751-.523-.966 1.038-.046.643zm-1.607 1.149c-.281-.273-.835-.094-.735.414.221.422 1 .15.735-.414zm.965.414c.209.5 1.033.076.642-.414-.335-.137-.713.002-.642.414zm-1.655 1.377c-.182.346-.02.789.46.736.01-.035.038-.055.092-.047.415-.394-.121-1.119-.552-.689zm2.205.736c.162-.115.25-.441.138-.689-.643-.649-1.151.896-.138.689zm-1.699 1.699c.327-.213.096-.836-.321-.643-.439.098-.21.831.321.643zm1.699 0c.092-.108.105-.293.092-.506-.63-.578-.977.813-.092.506zm12.493-.183c-.033-.615-1.238-.281-.688.32.393.143.705-.02.688-.32zm1.7-.047c-.037-.207-.155-.346-.459-.228-.835.318.615 1.12.459.228zm1.883.138c.041-.484-.994-.686-.872.137.245.289.84.236.872-.137zm-17.637 1.424c-.044-.357-.694-.393-.735.092.144.455.782.287.735-.092zm11.436.184c.13.223.269.435.688.367.657-.535-.54-1.105-.688-.367zm2.434-.367c-1.086-.205-.538 1.264.139.643.114-.241.022-.54-.139-.643zm1.792.687c.079-.104.11-.256.092-.459-.58-.703-1.063.803-.092.459zm1.056-.228c.06.5 1.147.434.873-.275-.328-.294-.921-.128-.873.275zm-17.407 1.744c.113.107.389.121.552.047.106-.111.121-.389.046-.551-.334-.277-.836.074-.598.504zm3.812.185c1.907.127 4.496.002 6.522.092.486.02 1.35.107 1.239-.461-.077-.404-1.382-.32-2.158-.32-2.525 0-5.389.002-7.44-.092-.289-.014-.514.334-.505.643.575.279 1.557.086 2.342.138zm8.451 0c.113.115.295.164.551.137.757-.646-.906-1.197-.551-.137zm2.48-.138c.066-.332-.104-.525-.505-.414-.916.255.353 1.183.505.414zm2.664 0c.047.353.611.416.873.139.228-.757-.951-.749-.873-.139zm-1.332.322c.062-.078.205-.072.276-.139.252-1.308-1.336-.058-.276.139zm-3.077 1.193c-.036-.453-.867-.541-.734.23.283.364.764.136.734-.23zm1.745-.045c-.045-.26-.304-.387-.597-.275-.977.365.792 1.385.597.275zm2.664.321c.18.193.617.246.827.047.482-.791-1.167-.93-.827-.047zm-1.102.091c.143-.223.099-.557-.092-.688-.861-.136-.531 1.112.092.688zm-1.607 1.7c.031-.184-.044-.262-.046-.412-1.046-.805-.887 1.388.046.412zm-2.068.23c.199-.022.344-.211.321-.551-.548-.826-1.131.639-.321.551zm3.629-.047c.091-.107.106-.291.092-.504-.665-.654-1.008.86-.092.504zm-3.95 1.838c.114.039.246.061.413.047.792-.916-1.029-1.092-.413-.047zm1.929.137c.313.004.467-.271.414-.734-.697-.715-1.196.728-.414.734z"/><path d="m50.619 17.105c2.908 0 5.758.092 8.681.092.686 0 1.419-.057 1.93.184.295.82-.605.744-1.24.734-3.075-.045-6.683.016-9.554-.229-.052-.166-.108-.592.046-.689.034-.043.084-.069.137-.092z"/><path d="m50.436 19.494c-.091-.215-.083-.684.138-.734 2.511.006 6.519.049 9.095.092.504.008 2.086-.152 1.606.688-.211.373-1.537.141-2.066.139-1.979-.004-4.513-.047-6.659-.045-.748-.002-1.49.104-2.114-.14z"/><path d="m61.275 20.871c.064.262.032.463-.045.689-.787.283-1.711.092-2.618.092-1.825 0-3.742.074-5.604 0-.907-.035-1.792.037-2.572-.184-.11-.274-.141-.75.138-.873 2.673.055 6.694.024 9.508.092.421.012.835-.143 1.193.184z"/><path d="m50.574 22.478c3.163-.01 6.551.107 9.37.139.458.004.921-.226 1.286.092.055.16.085.533 0 .689-.619.279-1.362.111-2.067.092-.729-.021-1.452.082-2.158.092-1.11.014-2.235-.082-3.354-.092-1.07-.01-2.153 0-3.169-.139-.162-.225-.184-.746.092-.873z"/><path d="m61.184 24.546c.079.252.116.502 0 .734-1.456.215-3.147.049-4.731.045-1.064-.002-2.154.176-3.031-.092-.08-.314-.094-.822.229-.871 1.367-.066 2.664.07 3.95.092 1.208.02 2.452-.222 3.583.092z"/><path d="m61.23 26.291c.067.174.067.517 0 .689-.421.289-1.014.191-1.562.184-1.163-.014-2.522-.047-3.95-.047-.782 0-1.614.102-2.297-.137-.119-.32-.121-.789.229-.873 1.546-.086 3.045.076 4.456.092 1.038.011 2.16-.225 3.124.092z"/><path d="m4.047 27.027c.369.344.229.916.229 1.33.001 7.943-.08 16.172 0 23.654.014 1.182-.139 2.428-.092 3.674.117 3.106.046 6.324.046 9.6 0 .488.237 1.318-.367 1.516-.665-.098-.413-1.131-.413-1.791.002-10.29.044-20.247.046-30.68 0-1.664 0-3.604 0-5.42 0-.6-.068-1.418.092-1.746.03-.17.258-.141.459-.137z"/><path d="m2.118 27.072c.852-.262.597 1.428.598 2.342.001 9.523-.225 18.473-.093 27.695.042 2.941.017 5.754 0 8.727-.002.311.128.848-.321.965-.848-.035-.575-1.346-.551-2.111.074-2.348.018-4.918 0-7.488-.072-9.437.139-19.16.138-28.339-.001-.559-.064-1.334.092-1.652.025-.067.071-.114.137-.139z"/><path d="m5.563 66.847c-.745-.115-.459-1.361-.459-2.113 0-5.863.012-11.734.046-17.545.034-5.906.022-11.777.138-17.637.016-.795-.121-1.629.138-2.389 1.009-.523.735 1.238.735 2.25-.002 11.77-.094 23.417-.092 35.413 0 .369-.021.832-.046 1.24-.022.332.066.85-.46.781z"/><path d="m7.814 27.117c.281.986.092 2.014.092 3.033.001 7.228-.104 14.647-.138 22-.021 4.342-.046 8.324-.046 12.859 0 .627.255 1.613-.414 1.838-.739-.145-.459-1.336-.459-2.113.001-9.4.093-18.25.092-27.879 0-2.361 0-4.883.046-7.303.013-.645.001-2.172.185-2.389.087-.152.485-.097.642-.046z"/><path d="m.832 27.164c.385.219.23.752.23 1.057-.001 9.455-.044 19.365-.046 29.027 0 2.531.046 5.139.046 7.486 0 .736.229 1.875-.459 2.066-.725-.018-.59-.912-.598-1.424-.009-.611.023-1.338.047-1.93.054-1.357-.038-2.732-.047-3.857-.004-.643.088-1.293.047-1.975-.113-1.824 0-3.934 0-6.018-.002-7.059.09-13.316.091-20.484.001-.588-.036-1.281 0-2.066.031-.654-.058-1.736.184-1.836.041-.115.412-.136.505-.046z"/><path d="m9.651 27.164c.196.6.134 1.318.138 2.066.005.92.038 1.945 0 2.894-.039.984.043 1.957-.184 2.801-.191.068-.375.125-.597.047-.253-.566-.126-1.268-.138-1.93-.033-1.828.012-3.988.138-5.832.122-.119.465-.119.643-.046z"/><path d="m11.442 27.164c.301.508.185 1.225.185 1.883 0 .662-.016 1.332-.047 1.975-.063 1.357.157 2.781-.138 3.904-.148.066-.385.045-.597.047-.372-.473-.23-1.219-.23-1.883 0-.654.062-1.34.092-1.977.065-1.381-.163-2.828.184-3.949.173-.038.389-.081.551 0z"/><path d="m12.82 27.21c.63-.119.552.6.552 1.238.001 8.92-.092 18.82-.092 28.201 0 1.572-.097 3.473-.046 5.283.035 1.283-.007 2.762-.046 4.088-.011.363.022.898-.506.826-.512-.037-.366-.643-.367-.92-.043-8.057.138-15.689.138-23.699 0-4.074.069-8.199.092-12.447.005-.805.021-2.004.138-2.434.025-.065.07-.11.137-.136z"/><path d="m14.566 27.486c.717-.111.551.934.551 1.791-.001 5.074-.092 10.504-.092 15.662 0 .244.076 1.684-.598 1.516-.398-.102-.237-1.781-.229-2.205.093-4.691.092-9.537.092-14.33 0-.736.02-1.891.138-2.342.033-.043.083-.071.138-.092z"/><path d="m63.021 28.265c.057 2.818.241 5.66.092 8.451-.426 7.986.088 15.672-.367 23.562-.336-.471-.402-1.264-.506-1.975-.103-.715-.298-1.496-.321-2.158-.015-.41.088-.818.092-1.24.056-5.236.093-10.758.092-16.26 0-2.658.092-5.213.092-7.945 0-.828-.144-1.709.184-2.48.228-.08.448-.027.642.045z"/><path d="m64.445 28.22c.447.1.307.639.321.965.126 2.74-.059 5.877-.092 8.68-.056 4.742-.093 9.779-.092 14.744.001 2.418-.159 4.963-.046 7.394.085 1.832-.025 3.858-.046 5.557-.005.443.268 1.307-.413 1.471-.793-.072-.41-1.189-.414-1.93-.049-9.08.138-17.643.139-27.006 0-2.287.138-4.75.137-7.35 0-.748-.085-2.16.139-2.434.074-.077.191-.112.367-.091z"/><path d="m35.05 31.251c.281 2.111.089 4.457.138 6.613.006.281-.034.549-.046.826-.072 1.727.081 3.465-.185 5.1-.334-1.178-.738-2.781-.872-4.363-.114-1.346.092-2.646.092-4.135 0-.596 0-1.32 0-2.111 0-.664-.101-1.818.184-1.977.165-.205.496.001.689.047z"/><path d="m36.703 31.205c.386.359.229 1.006.229 1.516 0 5.459-.092 10.525-.092 16.029 0 1.188.121 2.416-.184 3.537-.576-1.334-.804-2.943-.735-4.775.195-5.193-.046-11.16.276-16.26.084-.073.388-.161.506-.047z"/><path d="m65.731 32.537c.039-.008.043.02.046.047.967 3.049.551 7.443.551 11.252.001 6.539-.092 12.975-.092 19.705 0 .453.038 1.185 0 1.975-.014.289.034 1.512-.459 1.516-.7.006-.381-2.598-.367-3.307.058-3.219-.026-7.459.046-10.703.052-2.363-.066-4.998 0-7.395.128-4.633.029-8.471.184-12.951.038-.038.026-.126.091-.139z"/><path d="m41.204 36.396c.037.008.046.045.092.045.744 1.861.505 4.189.597 6.752.12 3.318-.048 6.68-.092 10.012-.005.389.111 1.57-.275 1.654-.782.172-.559-1.568-.551-1.791.13-3.752-.065-7.959.092-11.527.074-1.695-.094-3.473.046-5.008-.002-.078.034-.119.091-.137z"/><path d="m67.338 42.458c.037.008.046.045.092.045.859 2.705.573 6.285.597 9.922.025 3.797-.046 6.76-.046 10.609 0 .689.032 1.549 0 2.25-.033.727.212 1.984-.643 1.746-.436-.123-.2-1.084-.229-1.699-.23-4.881.041-9.328.092-14.33.028-2.85-.08-5.713.092-8.406-.005-.064-.008-.129.045-.137z"/><path d="m11.534 42.962c.094 2.344.106 5.436-.046 7.947-.163.119-.621.141-.78 0-.098-1.961-.046-4.361-.046-6.522 0-.535-.098-1.119.229-1.471.21-.059.485-.063.643.046z"/><path d="m9.605 43.009c.152 1.836.13 4.127.046 6.109-.028.67.156 1.377-.184 1.883-.855.268-.761-.623-.734-1.24.061-1.428-.016-3.734.046-5.189.027-.666-.144-1.207.138-1.609.227-.073.509-.053.688.046z"/><path d="m42.858 44.203c.037.01.046.047.092.047.893 2.254.5 5.723.598 8.818.021.701.048 1.652-.322 1.746-.851.211-.581-1.506-.551-2.16.082-1.773 0-3.691 0-5.465 0-.977.041-2.031.092-2.848.038-.037.026-.125.091-.138z"/><path d="m50.619 46.822c.039-.008.044.018.046.045.219 5.609.001 11.766 0 17.684 0 .639.141 2.258-.229 2.389-.631.223-.597-.512-.597-.965 0-4.584.061-10.027.046-14.422-.002-.514-.096-1.164-.046-1.654.1-.988.499-2.023.688-2.939.017-.062.082-.074.092-.138z"/><path d="m14.289 66.433c-.374-.361-.192-.941-.183-1.377.078-3.92.03-8.162.092-11.941.031-1.916-.207-4.061.092-5.834 1.095-.332.69 1.686.69 2.756-.001 4.197.001 8.322 0 12.631 0 .676.018 1.529 0 2.25-.016.613.096 1.537-.691 1.515z"/><path d="m59.162 50.771c.185.885.092 2.024.092 3.17 0 1.145-.001 2.303-.046 3.307-.016.351.104.838-.184 1.057-.138 0-.275 0-.413 0-.413-.27-.188-1.601-.138-2.342.059-.869 0-1.973 0-2.758.001-.934-.316-2.913.689-2.434z"/><path d="m61 50.818c.263 1.553.091 3.824.091 5.695 0 .768.199 2.02-.551 1.791-.548-.168-.229-2.129-.229-2.711 0-1.615-.137-3.561.092-4.775.127-.125.469-.125.597 0z"/><path d="m44.419 51.046c.389 1.068.774 2.377.827 3.629-.159.135-.668.135-.827 0-.133-1.058-.247-2.615 0-3.629z"/><path d="m69.129 53.986c.039-.008.044.017.046.047.959 3.037.55 7.316.551 11.299.001.58.264 1.635-.505 1.744-.515-.143-.321-.895-.321-1.377 0-.895.087-1.807.092-2.572.005-.723-.094-1.449-.092-2.205.006-2.217.124-4.539.184-6.797-.005-.067-.008-.131.045-.139z"/><path d="m48.828 55.226c.039-.008.044.018.046.047.039-.01.043.018.046.045-.092 3.203.157 6.393.046 9.922-.017.537.086 1.689-.367 1.744-.629.076-.459-1.086-.459-1.836 0-.975.092-1.566.092-2.205 0-1.59-.244-3.615-.092-5.098.084-.822.459-1.689.597-2.48.016-.061.081-.073.091-.139z"/><path d="m9.467 59.085c.237 2.449.139 5.225 0 7.67-.188.107-.552.131-.734 0-.243-.525-.139-1.225-.139-1.883.001-1.482.114-3.197.092-4.502-.008-.465-.247-1.025.093-1.285.107-.158.57-.111.688 0z"/><path d="m11.35 59.085c.239 2.084.053 4.539.046 6.613-.001.391.143.781-.092 1.102-.196.119-.538.119-.734 0-.253-1.451-.092-3.283-.092-4.961 0-.957-.211-1.998.092-2.754.199-.086.601-.162.78 0z"/><path d="m70.691 63.769c.054-.008.082.01.092.047.157.445.273 1.041.367 1.608.093.555.256 1.172.047 1.607-.054-.008-.082.01-.093.045-.809.035-.569-1.664-.505-2.525.018-.236.107-.457.092-.643 0-.047 0-.092 0-.139z"/><path d="m47.037 63.908c.054-.008.082.01.092.045.025.904.125 2.109-.138 2.939-.2.096-.476.027-.598-.092.026-.972.338-2.049.644-2.892z"/><path d="m16.081 66.021c3.691.027 7.762.09 11.666.09.482 0 1.072-.131 1.47.186.1.186.087.363.046.596-.313.266-.803.211-1.194.23-3.092.145-6.564-.129-9.646-.139-.849-.002-1.844.213-2.572-.137-.093-.293-.05-.764.23-.826z"/><path d="m29.217 68.224c.14.785-.588.59-1.103.598-2.889.049-6.567.078-9.875-.047-.884-.031-1.804.232-2.389-.184-.013-.154-.073-.264-.046-.459.628-.428 1.693-.154 2.526-.229.177-.018.468.027.735.045 1.639.111 3.447-.076 5.189 0 1.35.059 2.606-.064 3.95 0 .326.016.792-.038 1.013.276z"/><path d="m29.171 69.923v.414c-.277.334-.832.25-1.286.229-1.384-.062-3.012-.092-4.363-.09-2.07 0-4.377-.117-6.247-.047-.5.02-1.647.268-1.47-.506.11-.479.844-.285 1.378-.367.594-.09 1.599.041 2.251.047 2.491.021 5.608-.131 8.038 0 .597.031 1.258-.014 1.699.32z"/><path d="m29.171 71.623c.43 1.186-2.04.762-2.848.781-1.168.027-2.019-.078-3.031-.092-1.937-.025-3.791-.049-5.787.047-.903.043-1.959.105-1.654-.828.392-.189 1.167-.184 1.608-.184 2.739.004 6.14.178 8.956.047.501-.023 1.034-.018 1.516 0 .42.014.914-.039 1.24.229z"/><path d="m18.377 73.093c2.571-.025 5.815.033 8.727.045.878.006 2.414-.264 2.02.689-.162.395-1.57.211-2.02.184-1.839-.111-3.77-.033-6.017-.045-1.327-.008-2.989.057-4.455 0-.629-.025-.958-.24-.781-.645.188-.429 2.054-.224 2.526-.228z"/></g></svg>