<svg enable-background="new 0 0 66.647 76.877" viewBox="0 0 66.647 76.877" xmlns="http://www.w3.org/2000/svg"><g clip-rule="evenodd" fill-rule="evenodd"><path d="m13.894.165c.291 5.838-.097 12.356.194 18.192.601.292 1.301.177 1.951.195 4.837.142 10.159.049 15.12.049 4.242 0 8.799.182 13.169 0 1.398-.058 2.975-.159 4.243.049.668.109 1.429.643 2.147 1.073 4.167 2.497 7.839 6.149 10.437 10.047 2.376 3.565 4.106 7.528 4.975 12.633.569 3.345.717 7.298.195 10.778-.765 5.103-2.506 9.117-4.829 12.731-2.609 4.06-6.209 7.373-10.584 9.901-.675.39-1.34.854-1.951.976-1.019.2-2.437-.001-3.755 0-6.297.001-12.849.062-19.119 0-2.473-.025-4.972.062-7.463-.049-.936-.042-1.595-.638-2.487-1.122-.699-.379-1.261-.788-1.805-1.171-5.942-4.183-10.295-9.686-12.827-17.168-.521-1.538-.91-3.134-1.171-4.829-.267-1.739-.192-3.645-.244-5.657-.203-7.874.001-14.79 0-22.826-.001-6.93.001-13.886 0-21.021 0-.685-.122-2.58.195-2.829.036-.045.089-.073.147-.098 4.458.076 9.238-.167 13.462.146zm13.754 31.605c-1.887 0-3.868-.28-5.658-.049-.654.085-1.409.837-1.95 1.317-.609.539-1.182 1.099-1.562 1.512-2.818 3.07-5.28 7.502-5.121 13.218.186 6.626 3.042 11.381 6.779 14.583.608.521 1.174 1.178 1.757 1.316.846.203 2.017.05 2.975.049 7.123-.001 13.538.07 20.437 0 2.418-1.587 4.308-3.779 5.755-6.438 1.435-2.634 2.546-5.844 2.341-9.853-.284-5.565-2.638-9.767-5.462-12.827-.993-1.077-2.127-2.09-3.365-2.78-5.7-.088-11.365-.048-16.926-.048z"/><path d="m28.574 42.403c.161 3.043.162 6.761 0 9.804-.948.302-2.561.121-3.609.049-.244-1.073-.158-2.229-.146-3.366.023-2.141-.06-4.339.146-6.535 1.015-.175 2.651-.157 3.609.048z"/><path d="m42.084 42.403c.175 2.361.098 4.966.098 7.462 0 .811.114 1.664-.146 2.391-1.032.189-2.596.1-3.707.049-.33-1.519-.069-3.294-.098-4.927-.029-1.692-.18-3.441.098-5.023 1.131-.053 2.703-.141 3.755.048z"/></g></svg>