<svg enable-background="new 0 0 13.38 13.23" viewBox="0 0 13.38 13.23" xmlns="http://www.w3.org/2000/svg"><path d="m1.626.992c.644-.609 1.519-.951 2.4-.992.674-.01 1.352.143 1.951.456.592.315 1.093.798 1.418 1.385.417.74.574 1.619.459 2.459-.06.589-.305 1.152-.673 1.613-.311.382-.651.742-1.029 1.06-.266.255-.519.523-.801.76-.294-.293-.585-.588-.88-.88-.286-.252-.541-.536-.815-.801-.328-.282-.611-.613-.933-.902.422-.42.841-.843 1.265-1.261.144.188.325.343.489.513.264.28.576.512.819.813.292-.244.547-.551.659-.921.173-.514.097-1.108-.206-1.559-.463-.712-1.45-1.076-2.249-.741-.604.25-1.048.78-1.328 1.356-.207.443-.34.93-.327 1.422.002 2.219-.003 4.439.003 6.658 1.082-.011 2.164-.002 3.246-.005 1.25-.009 2.5.042 3.75.009.673-.06 1.347-.258 1.893-.666.29-.241.558-.526.69-.886.203-.528.155-1.154-.147-1.636-.457-.694-1.395-1.046-2.189-.782-.355.113-.659.343-.896.625.444.445.883.896 1.339 1.329-.303.271-.576.575-.874.852-.13.115-.258.234-.364.372-.412-.43-.859-.824-1.268-1.257-.477-.439-.923-.911-1.388-1.363.214-.188.387-.416.598-.606.306-.351.651-.665 1.003-.967.267-.216.548-.419.86-.565.502-.229 1.056-.336 1.607-.33.806-.005 1.623.243 2.26.745.776.591 1.28 1.512 1.39 2.479.045.457.028.925-.088 1.371-.199.777-.651 1.491-1.283 1.989-.82.715-1.918 1.039-2.99 1.09-2.987.003-5.973-.001-8.96.002.002-1.505 0-3.01.001-4.516-.045-.865-.034-1.733-.038-2.6.003-.668-.014-1.337.057-2.003.123-.937.501-1.839 1.073-2.591.155-.185.307-.376.496-.528z"/></svg>