<svg enable-background="new 0 0 75.533 75.236" viewBox="0 0 75.533 75.236" xmlns="http://www.w3.org/2000/svg"><path clip-rule="evenodd" d="m37.711.177c-.062.674-.446 1.281-.752 1.854-2.098 3.937-4.064 8.111-6.062 12.173-1.995 4.061-3.99 8.107-6.011 12.223-.274.556-.689 1.098-.701 1.753 1.428.273 2.99.15 4.508.15 4.578 0 9.3.036 13.776-.05.557-.391.718-1.088 1.002-1.653 3.193-6.352 6.449-12.984 9.668-19.387 1.189-2.362 2.017-4.899 3.457-7.113 4.706-.087 9.564-.1 14.276-.1 1.572 0 3.173-.121 4.659.15-.591 1.748-1.524 3.151-2.254 4.759-6.139 12.42-12.322 24.908-18.485 37.371-.372.752-.627 1.559-1.002 2.305-4.747 9.441-9.359 19.07-14.127 28.554-.356.71-.67 1.461-1.202 2.054-6.164-.057-12.681.127-18.785-.1.024-.713.496-1.297.802-1.904 4.018-7.993 7.943-16.183 11.973-24.195.627-1.248 1.258-2.503 1.753-3.807-.681-.269-1.465-.151-2.204-.15-5.373 0-11.068-.085-16.181.05-.87 1.111-1.374 2.455-2.004 3.707-.642 1.276-1.151 2.594-1.803 3.857-3.545 6.865-6.888 13.964-10.37 20.89-.273.544-.406 1.482-1.202 1.603-.456-.08-.298-.644-.301-.902-.027-2.668.086-5.523 0-8.266-.095-3.024.089-6.116 0-9.117-.131-4.443-.05-9.225-.05-13.977 0-1.571-.203-3.291 0-4.709.098-.686.774-1.612 1.152-2.404 2.651-5.566 5.529-11.287 8.216-16.633 3.221-6.405 6.043-13.05 9.368-19.036 3.125-.07 6.961-.111 10.319-.1 2.996.01 5.894-.035 8.567.15z" fill-rule="evenodd"/></svg>