<svg enable-background="new 0 0 78.607 69.544" viewBox="0 0 78.607 69.544" xmlns="http://www.w3.org/2000/svg"><path clip-rule="evenodd" d="m9.977 1.807c1.283.694 1.707 2.991 3.154 3.51 1.252.448 3.805-.004 5.544.051 1.996.062 3.96.032 5.595-.102.891-.073 1.818.08 2.747.051 1.85-.059 3.627-.172 5.494 0 .894.082 1.772.025 2.594.051 2.854.09 5.758.024 8.597-.102.902-.04 1.763.088 2.645.102 1.817.029 3.713.026 5.544-.051 1.838-.077 3.635-.226 5.442-.102 1.655.113 3.35.49 4.985.813 3.205.635 6.014 1.734 8.088 3.51 1.036.888 2.004 1.913 2.594 3.153 1.235 2.601 2.456 5.66 1.933 9.41-.449 3.226-2.015 5.419-4.12 7.427-.53.48-1.096.945-1.78 1.323-.612.337-1.516.558-1.729 1.322.255.968 1.403 1.04 2.086 1.373 2.309 1.127 4.306 2.369 6.002 4.222 2.109 2.305 3.659 5.9 3.103 10.377-.259 2.085-.803 3.83-1.424 5.442-.61 1.586-1.672 2.87-2.848 3.968-3.425 3.195-8.232 5.599-14.599 5.9-1.026.049-2.09.169-3.154.254-1.091.088-2.199.024-3.306.103-1.098.077-2.164.178-3.255.203-1.057.025-2.115-.061-3.205-.101-3.343-.125-6.667.106-10.071 0-1.09-.034-2.174-.2-3.255-.152-4.293.188-8.647-.062-13.174.254-.984.068-2.135.152-3.255.152-1.125 0-2.706-.187-3.459.102-.417.161-.667.358-.915.61-.885.9-1.274 2.085-2.085 2.95-.843.899-1.792 1.545-3.357 1.679-3.154.27-5.643-1.02-6.307-3.662-.728-2.894-.407-6.133-.407-9.359 0-3.016-.372-6.989.61-9.359 1.421-3.427 5.695-4.365 9.207-5.9 1.205-.526 2.414-1.013 3.561-1.475 1.249-.504 2.58-.788 3.815-1.221 1.258-.441 2.442-.923 3.611-1.425 1.205-.517 2.489-.832 3.713-1.322.565-.226 1.208-.465 1.831-.661.511-.161 1.368-.279 1.475-1.018-.027-.723-.852-.861-1.322-1.018-2.986-.991-5.699-1.839-8.8-2.746-1.219-.356-2.47-.482-3.612-.967-4.171-1.771-10.668-1.997-13.174-5.29-1.037-1.363-1.167-3.933-1.271-6.409-.111-2.632 0-5.215 0-7.478 0-2.394-.311-5.178.509-6.968.748-1.635 2.372-3.007 4.629-3.205 2.273-.2 3.588.775 4.776 1.781zm12.055 17.09c1.917.765 3.832 1.337 5.748 2.034 1.746.637 3.95 1.275 5.85 1.934.592.205 1.514.661 2.035.61 1.198-.116 1.164-1.784 1.119-2.899-.029-.735.017-1.381-.204-1.933-.396-.994-1.727-1.018-3.103-1.018-.761 0-1.626.051-2.493.051-1.502 0-3.161-.241-4.323-.102-1.519.182-3.313.152-4.934.152-.446 0-1.058-.164-1.374.255.342.575 1.106.688 1.679.916zm27.213-1.068c-.987.469-1.027 1.877-.864 3.307.204 1.791.203 3.303.203 5.29 0 .633-.066 2.081.305 2.441.233.226.757.199 1.17.204 1.392.014 3.253.042 4.171-.204 2.386-.639 4.194-2.845 4.476-5.595.399-3.895-2.264-5.767-5.85-5.596-1.037.051-2.883-.192-3.611.153zm1.882 21.517c-1.098.32-2.173.806-2.492 1.679-.284.774-.149 1.993-.204 3.459-.044 1.184.041 2.25.102 3.51.052 1.091-.243 2.419.102 3.204.556 1.268 3.314.86 4.832.764 1.493-.096 2.818.033 4.069-.356 1.753-.547 3.263-1.902 3.917-3.408.905-2.084.428-4.948-.56-6.511-1.01-1.601-3.243-3.295-6.206-3.052-1.309.106-2.335.353-3.56.711zm-30.621 12.666c2.051-.026 4.243-.167 6.562-.103 2.129.06 4.555.202 6.663.103.814-.039 1.731.132 2.289-.051 1.078-.354 1.13-2.106 1.068-3.714-.06-1.545.165-3.637-1.526-3.153-2.931.837-5.897 1.982-8.8 3.103-2.53.977-4.991 2.023-7.426 3.001-.296.119-.824.244-.865.661.637.3 1.352.161 2.035.153z" fill-rule="evenodd"/></svg>