<svg enable-background="new 0 0 47.04 78.329" viewBox="0 0 47.04 78.329" xmlns="http://www.w3.org/2000/svg"><g clip-rule="evenodd" fill-rule="evenodd"><path d="m30.81 71.662c.016.63-.548 1.112-.929 1.516-.411.435-.885.863-1.369 1.174-1.895 1.586-3.757 2.806-6.453 3.421-2.683.612-5.844.822-8.75.099-4.873-1.214-9.155-4.39-11.243-8.457-1.198-2.335-1.938-4.769-2.053-7.821-.122-3.251.54-5.864 1.613-8.213 2.05-4.487 5.143-8.097 7.919-11.78 2.774-3.68 5.696-7.36 8.897-10.804 1.575-1.694 2.981-3.573 4.595-5.279 1.592-1.684 3.11-3.454 4.692-5.133 3.123-3.312 6.298-6.769 9.581-10.118 2.363-2.409 4.76-5.067 7.139-7.627.875-.941 1.61-1.961 2.493-2.64h.098c-.579 1.735-1.437 3.391-2.347 4.986-.891 1.563-1.611 3.227-2.493 4.79-1.772 3.143-3.278 6.439-4.986 9.63-1.282 2.397-2.369 4.901-3.666 7.333-.427.8-.734 1.662-1.173 2.443-.888 1.581-1.634 3.25-2.444 4.889-2.429 4.913-4.943 9.456-7.43 14.47-1.631 3.288-3.521 6.382-4.692 9.923-.663 2.004-1.058 4.109-.636 6.306.682 3.553 3.441 6.781 7.186 7.431 1.11.192 2.345.139 3.47 0 1.024-.127 1.932-.493 2.981-.539z"/><path d="m23.087 68.534c-1.51-1.574-2.841-2.974-2.933-5.72-.101-2.997 1.494-5.54 3.617-6.941 1.302-.858 2.864-1.34 4.937-1.173 2.813.228 4.831 2.022 5.964 4.008 2.013 3.528.476 7.897-1.955 9.875-1.164.946-2.818 1.69-4.839 1.662-2.006-.028-3.419-.755-4.791-1.711z"/></g></svg>