<svg enable-background="new 0 0 79.645 79.918" viewBox="0 0 79.645 79.918" xmlns="http://www.w3.org/2000/svg"><g clip-rule="evenodd" fill-rule="evenodd"><path d="m39.514 79.461c.182-.855 1.17-.614 1.716-.656 1.983-.155 4.016-.748 5.603-1.464 2.151-.971 4.06-2.192 5.653-3.786 3.135-3.136 5.572-7.086 6.007-12.822.461-6.084-2.01-10.689-4.896-13.882-2.221-2.456-4.928-4.558-8.531-5.602-.591-.172-1.237-.342-1.868-.505-.509-.133-1.326-.094-1.615-.707.225-.726 1.132-.65 1.615-.758 4.576-1.01 7.862-3.059 10.5-6.107 2.938-3.396 5.229-7.659 4.947-13.882-.255-5.607-2.923-10.075-6.007-12.923-2.879-2.658-6.32-4.611-11.257-5.351-.58-.087-1.732.154-1.817-.404-.124-.811 1.969-.623 2.978-.505 2.258.265 4.515.575 6.411 1.061 8.002 2.047 14.179 5.9 19.132 10.853 3.265 3.266 6.121 7.316 8.077 11.913 2.025 4.761 3.483 10.05 3.483 16.507 0 6.367-1.596 11.718-3.735 16.255-4.298 9.113-11.133 15.468-20.243 19.737-3.852 1.806-8.604 3.215-14.084 3.433-.642.025-1.588.234-2.069-.405z"/><path d="m.14 34.484c-.374-1.27.092-2.521.354-3.635 1.347-5.737 3.686-10.332 6.713-14.538.606-.843 1.204-1.516 1.918-2.322.552-.623 1.344-1.851 2.17-2.069.804-.213 2.201-.005 3.281 0 1.153.005 2.359-.051 3.433-.051h19.435c2.151 0 3.993.092 5.653.656 1.61.548 2.928 1.246 4.039 2.272 2.207 1.896 3.988 4.648 3.988 8.633 0 3.995-1.912 6.655-4.038 8.581-1.183.966-2.419 1.742-4.089 2.221-1.726.495-3.742.404-5.906.404-6.363 0-12.016 0-18.526 0-5.209 0-10.195.05-15.497.051-.975-.001-2.009.15-2.928-.203z"/><path d="m.19 45.841c.246-.337.735-.191 1.06-.201 4.449-.14 9.069-.052 13.73-.051 7.403.002 14.909-.002 22.161 0 1.946 0 3.795-.016 5.351.454 2.803.847 5.114 2.654 6.562 5.048 1.396 2.307 2.187 6.015.909 9.39-1 2.64-3.068 4.809-5.553 6.058-1.315.661-2.866 1.054-4.694 1.11-1.768.055-3.725-.051-5.755-.051-5.682.001-11.366 0-17.315 0-.925 0-1.88.091-2.827.051-.944-.04-1.971.07-2.776-.102-.839-.178-1.577-1.272-2.171-1.969-3.839-4.495-6.685-9.624-8.329-16.305-.262-1.067-.708-2.237-.353-3.432z"/></g></svg>