<svg enable-background="new 0 0 80.13 70.293" viewBox="0 0 80.13 70.293" xmlns="http://www.w3.org/2000/svg"><g clip-rule="evenodd" fill-rule="evenodd"><path d="m43.693 5.947c-1.97.153-4.708.208-6.602-.05.76-2.197 1.948-3.966 3.074-5.796.038-.047.092-.077.152-.101.422.103.686.946.958 1.411.844 1.445 1.81 3.016 2.418 4.536z"/><path d="m36.386 7.106h.101c.144 7.825.086 16.258-.05 24.442-.894.288-1.839.274-2.722.403-4.511.66-8.531 1.864-11.792 3.78-1.302.765-2.349 1.786-3.578 2.519.561-1.411 1.378-2.706 2.117-4.032 2.144-3.845 4.477-7.683 6.753-11.541 2.637-4.471 5.239-8.988 7.912-13.456.415-.693.71-1.569 1.259-2.115z"/><path d="m61.483 37.293c-1.183-.736-2.3-1.551-3.578-2.218-2.501-1.305-5.414-2.232-8.719-2.772-1.623-.265-3.336-.336-5.04-.705-.083-8.064-.006-16.167.101-24.24-.002-.086.038-.13.101-.151h.101c5.017 8.735 10.084 17.393 15.018 26.256.701 1.259 1.565 2.444 2.016 3.83z"/><path d="m36.235 66.12c-4.171-.486-7.357-2.179-9.626-4.636-2.379-2.578-3.524-5.9-3.679-10.684-.308-9.506 4.876-14.286 12.952-15.673.385-.066.531-.124.605.555.101.925 0 2.31 0 3.023 0 4.002-.05 7.891-.05 11.642 0 4.126-.051 7.862-.051 11.944 0 1.308.12 2.666-.151 3.829z"/><path d="m44.298 35.177c4.25.419 7.741 2.073 9.877 4.636 2.194 2.633 3.562 6.62 3.376 11.037-.384 9.117-5.49 14.088-13.455 15.32-.231-1.213-.208-2.502-.151-3.779.167-3.786.08-7.671.101-11.642.024-4.452-.062-9.14 0-13.758.008-.581.016-1.332.101-1.663.028-.073.079-.123.151-.151z"/><path d="m28.827 69.95c-4.75.071-9.675.101-14.564.101-4.68 0-9.659-.014-14.262-.151-.006-.59.432-1.045.706-1.512 3.633-6.187 7.28-12.578 10.936-18.848.575-.985 1.153-2.02 1.764-2.873.028-.073.079-.123.151-.151.042-.009.047.02.05.05-1.085 6.12.133 12.493 2.973 15.925 1.394 1.899 3.209 3.376 5.292 4.586 1.544.903 3.334 1.561 5.241 2.167.574.183 1.244.301 1.713.706z"/><path d="m66.926 46.969h.151c1.247 1.832 2.23 3.835 3.376 5.745 2.84 4.733 5.518 9.664 8.265 14.514.541.956 1.215 1.904 1.411 3.024-9.666.079-19.748.052-29.734-.151.525-.446 1.259-.474 1.865-.655 4.451-1.331 8.343-3.377 11.037-6.501 3.088-3.33 4.631-9.355 3.629-15.825 0-.05 0-.1 0-.151z"/></g></svg>