<svg enable-background="new 0 0 79.874 70.503" viewBox="0 0 79.874 70.503" xmlns="http://www.w3.org/2000/svg"><g clip-rule="evenodd" fill-rule="evenodd"><path d="m10.942.163c.14 6.152.154 12.422.154 18.641 0 .828-.121 1.721.154 2.51.684-.084 1.231-.52 1.792-.871 1.59-.992 3.389-1.826 5.275-2.561 4.938-1.924 10.393-3.654 16.849-4.148 3.211-.244 6.525-.182 9.935.103 3.087.256 5.992 1.02 8.758 1.74 2.696.703 5.3 1.772 7.63 2.816 4.841 2.17 9 5.215 12.599 8.348 2.09 1.887 4.18 3.775 5.787 6.146-.355.83-1.047 1.459-1.639 2.1-1.742 1.883-3.516 3.854-5.633 5.428-3.876 3.389-8.495 6.184-13.827 8.348-5.244 2.131-11.259 3.738-18.437 3.74-14.394 0-24.762-5.039-32.878-11.473-2.006-1.678-3.885-3.459-5.685-5.377-.59-.631-1.285-1.213-1.69-1.998-.06-10.211-.053-20.975-.053-31.701 0-.611-.156-1.346.205-1.894 1.599-.17 3.68.088 5.531 0 1.778-.085 3.557-.057 5.173.103zm27.757 22.789c-10.365.482-17.343 3.334-23.814 7.785-.439.301-2.407 1.553-2.407 2.15 0 .293.707.885 1.075 1.229.471.44.94.733 1.332 1.025 1.902 1.414 3.747 2.471 5.838 3.533 3.133 1.59 6.574 2.869 10.447 3.635 2.609.518 5.451.969 8.45.922 5.781-.088 11.598-1.113 15.722-3.02 3.722-1.723 7.317-3.642 10.396-6.045.395-.307 1.136-.916 1.126-1.229-.012-.359-.841-.84-1.229-1.127-4.206-3.119-8.747-5.656-14.186-7.221-3.601-1.035-7.978-1.861-12.649-1.639-.033.004-.067 0-.101.002z"/><path d="m79.106 40.415c.041.01.051.053.102.053.25 9.559.171 20.084.103 29.754-3.319.268-7.511.203-10.908.051-.287-3.469.02-7.246-.256-10.754-.582-.078-1.092.281-1.587.512-3.408 1.584-7.193 2.842-11.216 3.943-4.465 1.223-9.813 1.945-15.415 1.945-9.81.002-18.338-2.156-25.35-5.07-1.034-.428-2.008-.957-3.073-1.229-.411.686-.256 1.67-.256 2.561 0 2.682.169 5.67-.051 8.195-2.552.186-5.556.102-8.348.102-.91 0-1.831.119-2.612-.154-.144-10.146-.226-19.67-.051-29.805.77.152 1.172 1.113 1.895 1.484 4.59 4.166 10.025 7.881 16.439 10.447 6.4 2.562 13.946 4.479 22.738 4.149 13.056-.49 22.254-4.557 30.318-10.037 1.992-1.354 3.839-2.855 5.634-4.455.626-.561 1.209-1.231 1.894-1.692z"/></g></svg>