<svg enable-background="new 0 0 63.98 76.919" viewBox="0 0 63.98 76.919" xmlns="http://www.w3.org/2000/svg"><g clip-rule="evenodd" fill-rule="evenodd"><path d="m10.476 20.21c.565.122.809-.487 1.219-.684 4.192-3.663 9.426-6.288 16.241-7.364 2.302-.363 4.7-.324 7.316-.049 8.975.945 16.021 5.309 20.681 10.73 3.691 4.295 6.302 9.297 7.56 15.997.419 2.23.488 4.661.487 7.365 0 8.748-.05 17.876-.048 26.776 0 1.235.117 2.525-.146 3.756-1.569.091-3.268.098-4.976.098-1.659 0-3.352.009-4.779-.146-.315-2.465.15-5.711-.244-8.097-.567.051-.964.514-1.365.83-5.771 4.543-13.912 8.806-24.875 7.12-9.755-1.5-16.794-6.599-21.509-13.314-2.394-3.409-4.297-7.445-5.268-12.194-1.001-4.896-.731-10.672-.732-16.485 0-10.717.083-21.87 0-32.678-.004-.58-.175-1.305.244-1.805 3.178-.056 6.817-.153 9.852.098.351.704.195 1.595.195 2.39v7.608c.001 3.438-.112 6.891.147 10.048zm1.853 14.778c-1.023 2.181-1.823 4.669-1.999 7.657-.096 1.632-.043 3.144.098 4.585.138 1.425.557 2.684.927 3.902 1.503 4.959 4.205 8.507 7.998 11.267 3.689 2.683 8.694 4.706 14.974 3.999 2.856-.321 5.267-1.055 7.463-2.195 6.113-3.173 10.761-8.903 12.047-16.826.469-2.891.146-5.994-.536-8.73-1.233-4.944-4.061-8.972-7.561-11.706-3.384-2.643-8.311-5.121-14.485-4.829-6.945.329-11.476 3.328-15.169 7.023-1.609 1.751-2.755 3.717-3.757 5.853z"/><path d="m46.812 57.912c-3.88 4.244-9.881 7.645-18.144 6.34-5.128-.81-9.104-3.533-11.95-6.926-2.695-3.213-4.941-8.439-4.633-14.241.095-1.787.478-3.64 1.072-5.22.579-1.535 1.179-3.063 1.951-4.34 1.466-2.422 3.717-4.76 6.243-6.341 2.628-1.645 5.86-2.944 9.608-3.122 7.315-.346 12.496 2.887 15.998 6.683.602.652 1.139 1.366 1.658 2.145 2.4 3.6 4.31 9.156 3.17 14.925-.828 4.2-2.502 7.43-4.973 10.097z"/></g></svg>