<svg enable-background="new 0 0 76.869 75.87" viewBox="0 0 76.869 75.87" xmlns="http://www.w3.org/2000/svg"><path clip-rule="evenodd" d="m26.54 38.306c.555.521 1.414.303 2.07.303 8.565.001 17.052.1 25.795.101 3.171.001 6.367-.226 9.44 0 3.079.227 5.382.891 7.319 2.171 1.856 1.228 3.327 2.972 4.392 5.048 1.094 2.134 1.262 4.88 1.262 8.178 0 3.096.072 6.248 0 9.137-.075 2.979-.9 5.341-2.271 7.219-1.972 2.698-4.751 4.863-8.885 5.301-1.407.148-2.93.101-4.594.101-12.553.001-25.239-.101-37.607-.101-3.132 0-6.229.115-9.238-.102-.167-3.813-.168-8.349 0-12.216.374-.332.939-.202 1.363-.202 16.021.001 32.39.226 48.309 0 .273-.892.151-1.919.151-2.928 0-2.939.083-6.266-.101-9.086-.92-.272-1.906-.151-2.877-.151-10.677-.001-21.909-.101-32.559-.101-3.869 0-6.941-.95-9.238-2.675-3.537-2.552-6.502-7.904-4.695-14.084 1.343-4.593 5.49-8.379 10.601-9.288 1.406-.251 2.959-.201 4.543-.151 4.823.151 10.056.051 14.841.05 3.31 0 6.631.001 9.844 0 3.31 0 6.529.174 9.541-.101.265-1.836.101-3.926.101-6.007 0-2.089.181-4.218-.101-6.007-4.157-.188-8.395-.186-12.67-.102-4.283.084-8.627-.05-12.923-.051-8.566-.002-17.032-.189-25.492 0-.022.045-.044.091-.101.102-.162 15.784-.151 32.14-.151 47.552 0 4.012-.098 8.109 0 11.762.034 1.261.17 2.517-.101 3.735-3.838.015-8.554.232-12.368-.051-.236-18.805-.101-37.873-.101-57.496 0-3.833-.019-7.689 1.111-10.449 1.625-3.97 5.008-7.058 9.944-7.572 2.454-.256 5.575.009 8.178-.101 2.255-.095 4.659-.001 6.966 0 2.933.001 6.019.051 9.036.051 6.203-.003 12.626-.115 18.525.048 3.071.086 6.261-.044 9.188 0 3.037.047 5.52.552 7.522 1.767 3.787 2.298 6.361 6.126 6.36 12.216v9.237c0 6.031-2.47 9.933-6.411 12.166-2.044 1.158-4.415 1.665-7.623 1.666-4.644.001-9.327-.057-13.781.05-3.034.073-5.885-.051-8.935-.05-4.177.001-8.542-.17-12.62-.051-.262.008-.762-.142-.909.252-.106.214-.024.616-.05.91z" fill-rule="evenodd"/></svg>