<svg enable-background="new 0 0 70.021 49.556" viewBox="0 0 70.021 49.556" xmlns="http://www.w3.org/2000/svg"><g clip-rule="evenodd" fill-rule="evenodd"><path d="m33.701.21c.138 6.871.146 13.568.146 20.617 0 .949.107 1.926-.146 2.826-7.001.248-15.065-.223-22.419.098-.25.268-.151 1.1-.098 1.512.864.293 1.803.123 2.729.098 6.594-.186 13.548.156 19.788.145.259 7.635.19 16.168.049 23.932-11.114.109-22.515.137-33.58 0-.236-3.979-.06-8.055-.098-12.137-.108-12.007-.097-24.793.049-37.091 4.433-.4 9.039.062 13.549-.144 3.14-.146 6.88 0 10.138 0 3.343-.001 6.66.019 9.893.144zm-13.305 6.093c-.917 0-1.908 0-2.875 0-2.206 0-4.697-.109-6.287.145-.277 1.492-.07 3.232-.098 4.924-.034 2.076-.141 4.182.098 6.043 3.843.129 8.014.111 11.843-.049.258-.789.146-1.717.146-2.631 0-.928 0-1.885 0-2.828 0-1.887.115-3.828-.146-5.459-.804-.256-1.731-.145-2.681-.145zm.049 24.954c-.944 0-1.93 0-2.924 0-2.001 0-4.107-.211-5.849 0-.072.008-.172.031-.244.049-.521.125-.292 2.105-.292 2.777 0 3.018-.078 6.572.098 9.115.821.277 1.779.096 2.778.098 2.021 0 4.154-.002 6.141 0 1.038 0 2.078.115 2.973-.146.163-3.689.162-8.057 0-11.746-.804-.233-1.743-.147-2.681-.147z"/><path d="m69.864.21c.179 3.775.098 7.768.098 11.746 0 3.973.095 7.945-.098 11.648-7.342.291-15.132-.09-22.419.195-.246.268-.178 1.168-.049 1.512 7.675.34 15.054-.1 22.468.242.211 7.834.188 15.926.049 23.883-5.293.166-11.054.098-16.766.098-5.712-.002-11.445.094-16.814-.098-.332-3.955.006-7.984-.146-12.039-.077-2.045 0-4.111 0-6.19 0-9.367 0-18.521 0-28.023 0-.998-.116-2.006.146-2.975 11.163-.167 22.344-.163 33.531.001zm-22.37 6.191c-.343.744-.195 1.725-.195 2.631 0 2.793-.079 5.826.098 8.383 2.811.145 5.976.146 8.919.146 1.013 0 2.025.104 2.924-.146.258-1.637.146-3.566.146-5.459 0-1.887.116-3.828-.146-5.459-3.618-.297-7.968-.121-11.746-.096zm.146 24.904c-.058.023-.11.051-.146.098-.244.434-.195 1.922-.195 2.777v6.141c0 1.037-.108 2.055.147 2.926 3.706.16 8.089.162 11.794 0 .262-.873.146-1.877.146-2.877 0-2.016 0-4.076 0-6.043 0-1.018.112-2.037-.146-2.924-3.673-.227-7.765-.033-11.6-.098z"/></g></svg>