<svg enable-background="new 0 0 77.65 58.574" viewBox="0 0 77.65 58.574" xmlns="http://www.w3.org/2000/svg"><path clip-rule="evenodd" d="m75.785 19.825c-3.265.167-7.211.162-10.477 0-.751-.727-1.207-1.625-1.828-2.421-1.774-2.272-4.284-4.242-7.166-5.485-2.892-1.248-6.691-2.088-10.773-1.384-1.15.198-2.386.458-3.36.84-3.88 1.52-6.975 4.088-9.29 7.561-1.095 1.642-1.906 3.635-2.521 5.931-.587 2.192-.8 5.092-.296 7.61.958 4.785 2.895 8.144 5.881 11.02 2.794 2.692 6.637 4.89 11.663 5.189 5.442.324 9.676-1.548 12.849-3.904 1.601-1.189 2.942-2.74 4.052-4.398.552-.824 1.093-1.713 1.532-2.668s.906-1.984.989-3.113c-.641-.232-1.385-.19-2.076-.198-4.802-.05-10.302.125-15.418-.099-.349-1.422-.062-3.119-.099-4.744-.036-1.6-.195-3.286.099-4.694 6.831-.2 13.798-.05 20.855-.05 2.318 0 4.621-.101 6.82.149.82 4.491.389 8.848-.593 12.552-.974 3.674-2.694 6.786-4.546 9.439-3.77 5.399-9.493 9.438-16.802 11.218-1.937.472-4.281.395-6.622.395-2.389 0-4.772-.049-6.968-.049-4.787 0-9.43.097-13.887-.099-4.679-.206-9.333.177-13.936.049-4.579-.127-9.185.146-13.689-.099-.265-.696-.148-1.54-.148-2.323 0-2.289-.047-4.813.099-7.067 1.187-.266 2.468-.148 3.706-.148h11.218c2.429 0 4.132-.87 5.436-2.174 1.228-1.228 2.232-3.043 2.274-5.337.04-2.239-1.018-4.268-2.224-5.436-1.358-1.315-3.112-2.059-5.485-2.125-4.734-.134-9.944.157-14.831-.101-.263-.636-.148-1.422-.148-2.174 0-2.204-.08-4.782.099-6.87 4.951-.231 10.174-.099 14.924-.099 2.458 0 4.102-.882 5.436-2.174 1.291-1.25 2.188-2.991 2.224-5.337.036-2.363-.964-4.152-2.224-5.387-1.327-1.3-3.015-2.086-5.386-2.174-3.589-.134-7.542 0-11.317 0-1.212 0-2.445.119-3.608-.148-.159-2.923-.151-6.234 0-9.142 15.696-.353 32.819.001 48.875 0 3.698-.001 6.809.882 9.686 1.927 4.201 1.525 7.658 4.034 10.477 6.968 1.468 1.528 2.672 3.035 3.756 4.942.692 1.217 1.461 2.347 2.076 3.756.284.65.678 1.332.692 2.075z" fill-rule="evenodd"/></svg>