<svg enable-background="new 0 0 66.693 71.861" viewBox="0 0 66.693 71.861" xmlns="http://www.w3.org/2000/svg"><g clip-rule="evenodd" fill-rule="evenodd"><path d="m66.563.166c.204 8.446.126 16.947.05 25.288-3.992.197-8.225.101-12.32.1-1.395 0-2.907-.145-3.99.199-.798.255-1.531 1.347-2.245 1.995-1.56 1.417-2.725 2.695-4.189 4.189-.692.707-1.527 1.778-2.494 2.045-.56.155-1.217.055-1.945.051-3.292-.018-6.719.06-9.875-.051-1.509-.052-3.455-.189-4.439.2-.872.345-1.593 1.317-2.244 1.945-1.456 1.401-2.661 2.76-4.14 4.239-.788.788-1.579 1.783-2.693 1.995-1.152.22-2.615.05-3.99.05-3.842 0-8.31.081-11.871-.1-.245-3.666-.177-7.775 0-11.621 3.524-.18 8.071-.101 12.07-.1 1.387 0 3.061.143 4.04-.15.808-.242 1.577-1.103 2.245-1.796 1.287-1.335 2.608-2.708 3.99-4.09.753-.752 1.505-1.623 2.344-1.896 1.129-.365 2.718-.149 4.04-.149 2.823-.001 5.372.024 8.08.149 1.119.053 2.948.229 4.04-.1.847-.253 1.595-1.271 2.344-1.945 1.679-1.508 2.662-2.562 4.29-4.19.683-.683 1.555-1.685 2.294-1.945 1.396-.492 4.333.348 5.287-.448.458-.383.626-1.872.25-2.494-.319-.526-1.276-.632-2.344-.599-.979.031-2.055-.008-2.694.199-.871.282-1.603 1.255-2.294 1.945-.743.743-1.474 1.399-2.145 2.045-.694.669-1.373 1.393-2.145 2.095-.652.594-1.476 1.608-2.395 1.946-.958.351-2.754.099-3.99.099-3.981 0-8.031-.112-11.97 0-2.018.959-3.068 2.885-4.739 4.19-.709.779-1.43 1.43-2.194 2.194-.66.66-1.592 1.763-2.594 1.995-1.085.252-2.688.051-3.99.05-3.903 0-8.311.069-11.871-.1-.148-3.6-.121-7.419.05-11.223 3.689-.177 7.683-.101 11.671-.1 1.274 0 2.894.244 3.99-.05.933-.25 1.673-1.323 2.295-1.945 1.492-1.492 2.747-2.747 4.239-4.239.623-.623 1.516-1.733 2.295-1.945 1.111-.304 2.789-.05 4.19-.05 2.944-.001 5.496.05 8.279.05 1.42-.001 3.435.235 4.439-.149.883-.339 1.628-1.231 2.294-1.896.717-.717 1.339-1.403 2.145-2.045.713-.684 1.369-1.425 2.145-2.045.695-.672 1.348-1.748 2.544-1.895 1.205-.149 2.63 0 3.99 0 3.842.003 8.245-.078 11.87.103z"/><path d="m66.563 29.294c.178 8.153.159 17.475 0 25.936-3.81.244-8.004.018-12.17.101-1.255.024-2.906-.155-3.94.149-.845.248-1.722 1.272-2.394 1.945-1.567 1.567-2.724 2.798-4.339 4.289-.685.633-1.529 1.625-2.394 1.896-.976.305-2.786.105-3.94.1-2.717-.014-5.171-.05-7.981-.05-1.458 0-3.08-.289-4.14.1-.809.297-1.514 1.214-2.195 1.896-1.379 1.38-2.712 2.668-4.14 4.04-.752.723-1.428 1.806-2.594 2.045-1.162.238-2.693.05-4.04.05-4.015 0-8.296.082-12.17-.1-.181-1.701-.1-3.646-.1-5.536 0-1.906-.118-3.837.15-5.486 3.752-.055 8.118-.222 11.97-.101 1.315.042 3.105.108 4.04-.249.955-.365 1.655-1.207 2.344-1.895 1.417-1.417 2.714-2.749 4.14-4.239.665-.694 1.412-1.641 2.245-1.945 1.557-.571 4.126-.101 6.135-.1 2.977 0 5.371.1 8.08.1.72 0 1.479.047 1.945-.1.923-.29 1.654-1.355 2.294-1.995.767-.768 1.437-1.363 2.145-2.145.842-.849 1.491-1.391 2.195-2.094.658-.658 1.534-1.704 2.494-1.945.644-.163 1.713-.05 2.643-.05 1.035-.001 2.195.133 2.644-.25.516-.439.501-2.364-.05-2.793-.498-.388-1.545-.25-2.394-.249-.92 0-2.036-.127-2.693.049-.842.227-1.689 1.347-2.295 1.996-.738.791-1.512 1.358-2.095 2.145-.75.657-1.458 1.343-2.195 2.095-.689.703-1.438 1.685-2.394 1.995-.992.322-2.699.143-3.94.1-2.635-.091-5.173.088-7.88-.149-1.305-.114-3.35-.29-4.339.1-.732.288-1.55 1.226-2.195 1.896-1.358 1.41-2.654 2.754-4.04 4.14-.809.809-1.514 1.668-2.543 2.095-1.048.435-2.426.35-3.841.35-4.328 0-8.219.083-12.47-.1-.165-3.561-.166-7.812 0-11.372 3.813-.212 8.003-.178 11.821-.15 1.075.008 2.851.216 3.94-.05.843-.205 1.721-1.267 2.344-1.945 1.41-1.533 2.754-2.804 4.24-4.289.612-.612 1.487-1.727 2.394-1.945 1.165-.281 2.552-.149 3.941-.149 2.645 0 5.317-.037 8.08.05 1.442.045 2.931.16 4.14-.1 1.665-1.062 2.82-2.489 4.439-4.14.639-.652 1.347-1.347 2.145-2.146.686-.686 1.59-1.816 2.543-1.945 1.308-.176 2.763 0 4.14 0 4.103-.004 8.265-.056 12.27.144z"/></g></svg>