<svg enable-background="new 0 0 63.185 71.145" viewBox="0 0 63.185 71.145" xmlns="http://www.w3.org/2000/svg"><g clip-rule="evenodd" fill-rule="evenodd"><path d="m18.83 33.501c.283-.568 1.254-.346 1.902-.342 2.175.014 4.486-.093 6.684 0 5.974.252 11.937.097 17.952.098 2.258 0 4.513.032 6.83-.049.647-.022 1.418.086 1.952-.342.205-1.896-1.304-3.12-2.83-3.609-3.663.024-7.104.041-10.976 0-2.361-.025-4.775.037-7.22 0-3.505-.054-7.225-.049-10.928-.049-.356 0-1.057 0-1.854 0-.394 0-1.517.112-1.561-.293-.065-.598 1.729-.39 2.195-.391 2.701 0 5.202.128 7.659.098 4.918-.06 9.737.19 14.83.049 1.668-.046 3.364-.039 5.025-.049 2.536-.014 5.11.001 7.659 0 .755 0 1.621.104 2.244-.292.006-.636-.578-1.005-.976-1.366-1.119-1.017-2.827-2.097-4.732-2.293-1.344-.139-2.86-.063-4.293 0-1.444.064-2.943 0-4.39 0-7.263.001-14.117-.129-21.367-.098-.688.003-1.366.017-2.049.049-.576.027-1.373.168-1.805-.342.105-.536.69-.293 1.024-.293 6.438.023 13.351.099 20.001.098 6.155 0 12.253-.145 18.636-.049.749.012 1.663.271 2.244-.292-.123-.708-.858-1.113-1.415-1.513-1.633-1.17-3.908-2.037-6.634-2.146-1.804-.071-3.72.02-5.659 0-5.629-.055-11.187-.048-17.123-.048-3.414-.001-6.715-.128-10.147 0-.327.012-.892.187-.976-.342.458-.569 1.524-.342 2.439-.342 9.872 0 19.485.147 29.758.147h8.244c.83 0 1.761.099 2.488-.293-.066-.761-.959-1.121-1.561-1.463-1.822-1.035-4.314-2.104-6.928-2.293-2.829-.206-5.818-.102-8.732 0-2.826.098-5.688.099-8.537 0-2.858-.1-5.793.049-8.684.049-2.17-.001-4.309-.049-6.537-.049-.608 0-1.426.225-1.902-.293.126-.447.706-.391 1.024-.391 3.096.001 6.389.097 9.415.098 7.163.001 14.325-.001 21.855 0 3.117.001 6.218-.135 9.367-.146.358-.002.813.163 1.073-.196-.06-.747-.94-1.043-1.512-1.365-1.848-1.042-4.125-1.886-6.732-2.195-1.751-.209-3.698-.131-5.659-.098-1.917.032-3.871-.004-5.756.049-5.742.159-11.69-.147-17.318-.147-1.33 0-2.757 0-4.44 0-.452 0-1.166.062-1.22-.244-.105-.598 1.807-.39 2.293-.39 4.589-.001 8.734.096 13.171.098 6.916.001 14.019-.051 21.075-.049 1.325 0 2.661-.049 3.952-.049.366 0 .835.108 1.122-.195.033-.735-.796-1.148-1.317-1.513-1.645-1.151-3.86-2.007-6.488-2.195-1.381-.099-2.867.026-4.342.049-4.091.063-8.565-.114-12.781 0-4.928.134-9.878-.099-14.879-.098-.604 0-1.378.189-1.902-.243.234-.554 1.159-.342 1.853-.342 8.399 0 16.979.096 25.563.098 2.875 0 6.084-.099 9.171-.098.955 0 2.063.237 2.731-.342-.292-1.024-1.269-1.365-1.951-2-1.477-.95-3.366-1.561-5.805-1.561-7.276.002-14.191-.001-21.66 0-8.258.002-17.02-.001-25.514 0-1.268 0-2.892.225-3.122-.536-.067-.222-.077-.492.048-.732.325-.617 3.342-.377 4.196-.39 7.847-.123 16.424.134 24.733 0 6.143-.099 12.509.332 18.636.049.944-.044 2.054.039 3.122.049 1.039.01 2.244-.197 3.024 0 .537.136 1.396.847 1.952 1.317 1.777 1.505 3.151 3.343 4.391 5.269 1.691 2.628 2.769 6.129 2.878 10.049.194 6.962-3.045 12.316-6.878 15.709-.552.488-1.288 1.168-1.902 1.316-.623.151-1.455 0-2.244 0-5.209.002-10.619.264-15.708.049-3.077-.129-6.061.126-8.927 0-2.546-.111-4.916-.068-7.659-.097-.249-.002-.736.135-.879-.244z"/><path d="m7.317 4.719c1.351 1.209 2.713 2.632 5.074 2.878 1.172.122 2.462.049 3.902.049 6.886 0 12.749.05 19.806.049 1.123 0 3.204-.242 3.317.585.177 1.291-2.145.927-3.171.927-4.253 0-8.031.147-12.294 0-3.949-.136-7.964.07-12.098.049-1.313-.007-2.742-.307-3.804.243.082.659.697 1.093 1.17 1.415.487.332 1.122.642 1.707.878 1.348.543 2.942.39 4.635.39 7.217.001 13.724.098 20.928.098 1.152 0 3.029-.317 2.927.83-.159 1.075-1.726.731-2.634.731-8.68.001-17.843-.134-26.587 0-.717.011-1.608-.221-2.195.293.059.671.747 1.045 1.219 1.366.508.344 1.085.657 1.659.878 1.755.673 4.537.438 7.025.438 6.411 0 12.122.1 18.684.098.603 0 1.187-.041 1.903 0 .811.046 1.03.367.976.879-.1.938-2.325.634-3.463.634-8.711.001-17.536-.186-26.197 0-.568.012-1.32-.196-1.708.292.001.578.553.966.976 1.269 1.266.907 2.996 1.529 5.122 1.513 5.564-.044 11.612-.299 17.318-.049 2.009.089 4.396-.053 6.634 0 .853.021 1.483.242 1.22 1.024-.215.639-.601.491-1.561.537-1.842.086-4.161-.049-6.001-.049-2.776 0-5.486-.049-8-.049-4.19 0-7.989-.093-12.098 0-.628.014-1.316-.027-1.952 0-.604.025-1.319-.084-1.707.341-.1.596.532.923.927 1.22 1.267.953 2.888 1.562 5.074 1.562 2.79 0 5.953.021 8.781-.098 2.73-.115 5.979.177 8.732.049 1.371-.065 2.741-.001 4.342 0 1.441 0 3.958-.388 3.561 1.073-.138.51-.669.536-1.512.536-6.133.001-12.062-.166-18.05 0-3.401.095-6.511 0-10 0-.61 0-1.327-.146-1.756.244.072.903 1.182 1.356 1.854 1.854 1.448 1.013 3.873.992 6.391.878 1.128-.051 2.255.061 3.366.05 5.619-.061 11.407-.001 17.221 0 .952 0 2.733-.23 2.488 1.023-.157.805-2.405.575-3.463.586-2.998.03-5.235-.083-7.952 0-1.319.04-2.638-.142-3.902-.098-4.52.156-9.459.049-14.245.049-.604 0-1.306-.1-1.756.293-.075.572.487.945.878 1.22 1.301.911 3.009 1.463 5.122 1.463 7.745.002 16.097.047 23.855.049.901 0 1.5-.018 1.512.732.018 1.123-2.22.779-3.366.78-1.469 0-2.837-.001-4.098 0-5.541.001-10.833-.324-16.294 0-1.925.113-3.933-.062-5.903 0-.572.018-1.295-.097-1.707.341-.093.617.595.866.927 1.22.389.343.951.513 1.366.83 1.846.846 4.555.585 7.123.585 6.564-.001 12.353.099 18.879.098 1.178 0 3.012-.275 3.122.585.163 1.274-2.053.852-3.171.83-1.542-.03-2.906.025-4.195 0-2.739-.055-5.692-.05-8.098-.05-4.235.001-7.999.205-12.245.05-.592-.021-1.19-.02-2 0-.716.017-1.613-.011-1.756.292-.182.386.41.884.634 1.073.992.836 2.262 1.214 3.659 1.61 4.368.106 9.363-.141 14.098.049 4.026.16 7.902-.025 12.05.098.456.013 1.069.017 1.073.683-.176 1.126-2.216.766-3.415.731-6.758-.188-13.314 0-20.294 0-2.03 0-4.066 0-6.098 0-.566 0-1.288-.141-1.708.342.069.818 1.003 1.288 1.756 1.708.841.468 1.8.924 2.781 1.024 1.092.112 2.319-.048 3.513-.049 3.535 0 7.059-.06 10.391.099 1.213.057 2.434.053 3.561 0 1.104-.053 2.198.077 3.414.049 1.465-.035 3.379-.136 5.123 0 .716.055.951.395.878.878-.13.862-2.557.512-3.61.536-4.001.095-8.116-.049-12.05-.049-4.798 0-9.093.05-14.001.049-.591 0-1.361-.183-1.756.293.099.893 1.158 1.322 1.952 1.756.836.457 1.84.837 2.878.927 2.164.188 4.558.001 6.927 0 5.722-.001 11.148.196 17.221.195.959 0 2.746-.222 2.488.976-.166.767-2.534.499-3.464.488-6.814-.08-13.401-.096-20.148-.098-2.03-.001-4.047-.095-6.049 0-.592.028-1.274-.068-1.756.292-.06.595.546.934.927 1.22 1.315.989 2.866 1.465 5.025 1.513 2.658.06 5.745 0 8.537 0 5.021.001 10.096.048 15.22.049.613 0 1.417-.167 1.708.488v.39c-.287 1.113-2.256.725-3.366.683-1.364-.051-2.849-.012-4.049-.049-2.71-.085-5.602-.147-8.245-.098-4.517.084-9.414-.176-14.148.048-.55.026-1.309-.244-1.707.293-.015.556.539.925.927 1.22 1.261.958 2.939 1.585 5.024 1.513 2.747-.096 6.005-.05 8.83-.049 2.776.001 5.872-.02 8.781.098 2.186.088 4.376-.035 6.439.049.521.021 1.39-.211 1.561.536.132.868-.629.843-1.22.829-2.01-.045-4.175-.041-6.244 0-5.452.108-10.849-.049-16.635-.048-2.133 0-4.186.025-6.245.097-.652.024-1.378.095-2-.146-.259-.547-.147-1.188-.147-1.758 0-14.079-.048-28.478-.048-42.686 0-4.141-.049-8.322-.049-12.781 0-.645.007-1.473.146-1.756.036-.046.089-.074.146-.098z"/><path d="m58.54 64.722c.085-.711-.626-1.025-1.024-1.414-1.415-1.142-3.029-2.165-5.317-2.244-2.142-.074-4.411.05-6.683.049-4.438-.001-8.733.111-13.074.049-1.092-.016-2.188-.135-3.269-.098-1.112.038-2.206.108-3.268.049-1.613-.09-3.515-.157-5.415-.098-.495.016-1.194.204-1.463-.292.151-.466.767-.293 1.073-.293 10.094-.001 19.815.145 30.392.146 2.618.001 5.271 0 8 0 .784 0 1.704.158 2.342-.341-.064-.69-.757-1.128-1.268-1.513-1.471-1.104-3.828-1.974-6.196-2.146-2.806-.205-5.821.05-8.781.049-2.933 0-5.862.08-8.683-.049-2.942-.134-5.51.143-8.733 0-2.194-.097-4.027-.104-6.391-.049-.327.008-1.848.168-1.854-.341-.006-.551 1.936-.342 2.439-.342 9.785-.002 19.764.195 29.855.195 2.705 0 5.379.074 8.098-.049.812-.037 1.739.125 2.439-.293.08-.469-.435-.726-.731-.927-2.303-1.563-5.657-2.829-9.464-2.829-4.368-.001-9.145.03-13.513.049-5.578.022-11.421.038-17.074-.049-.454-.008-2.039.186-2.098-.244-.077-.566 1.919-.433 2.342-.439 2.684-.041 5.377.146 8.049.146 7.436 0 14.384.258 21.855 0 2.749-.095 5.515.154 8.147-.049.818-.063 1.697.146 2.439-.195-.066-.747-.933-1.08-1.512-1.414-1.815-1.047-4.223-1.96-6.781-2.244-1.743-.194-3.699-.088-5.659-.049-3.912.077-7.84.091-11.854.049-5.269-.056-10.299-.099-15.855-.098-.503 0-1.126.012-1.171-.293-.091-.627 1.485-.39 2.098-.39 6.139-.001 11.71.145 17.757.146 6.974.002 13.651-.05 20.099-.098.632-.004 1.644.254 1.902-.243-.05-.69-.785-1.096-1.317-1.464-1.612-1.114-3.766-1.997-6.342-2.195-1.421-.109-2.892.049-4.342.049-4.144 0-8.441.048-12.83.049-4.888.001-10.087-.1-15.221-.098-.37 0-1.805.122-1.854-.293-.08-.667 1.664-.409 2.098-.39 1.096.048 1.968-.001 2.585 0 1.893 0 3.352.053 4.927.049 8.253-.019 16.843.13 25.075 0 .804-.013 1.667-.001 2.488 0 .773 0 1.639.162 2.293-.244-.067-.713-.764-1.117-1.269-1.513-1.552-1.217-3.562-2.042-6.195-2.146-1.699-.067-3.551.049-5.415.049-8.656.001-16.999-.051-25.465-.049-.331.001-.886.145-1.074-.293.16-.482 1.205-.384 1.708-.39 4.3-.055 8.844.146 13.123.146 4.563 0 8.833.021 13.074.049 2.064.014 4.305-.146 6.537-.146.739 0 1.578-.02 2.049.146.562.198 1.287.994 1.756 1.463 1.63 1.631 3.014 3.397 4 5.513 1.371 2.942 2.403 6.439 1.951 10.537-.426 3.87-1.371 6.686-3.22 9.514-.793 1.213-1.778 2.337-2.927 3.414-1.061.995-2.433 2.213-3.708 2.781-12.872.114-26.745-.025-39.954.049-3.208.018-6.548-.001-10 0-1.112 0-2.865.194-3.074-.391-.412-1.151 1.239-1.163 2.293-1.171 5.729-.042 11.72-.05 17.513-.049 9.401.002 18.275.096 27.953.098 1.167 0 2.265-.003 3.415-.049.988-.039 2.881.196 3.171-.342.271-.502-.279-1.629-.634-2.098-.601-.792-1.401-1.394-2.488-1.512-1.333-.145-2.788-.048-4.147 0-5.178.18-10.886-.09-16.391 0-1.312.021-2.636-.116-4.049-.049-2.139.102-3.946-.05-6.098-.049-.474 0-1.734.25-1.756-.244-.023-.508 1.911-.341 2.342-.341 4.75 0 8.951.096 13.659.097 1.838.001 3.667.087 5.318.098 5.368.035 10.634-.232 16.245-.146.733.013 1.549.237 2.002-.243z"/></g></svg>