<svg enable-background="new 0 0 52.995 78.649" viewBox="0 0 52.995 78.649" xmlns="http://www.w3.org/2000/svg"><path clip-rule="evenodd" d="m36.457 39.594c.477.864 1.25 1.543 1.952 2.195.716.665 1.359 1.405 2.098 2.049 3.689 3.495 7.163 7.139 11.025 10.684.37.34 1.433 1.116 1.463 1.61.031.486-.792 1.134-1.22 1.561-2.382 2.383-4.557 4.606-6.927 6.977-3.231 3.23-6.385 6.433-9.66 9.707-.461.461-.82 1.022-1.268 1.512-.401.438-.969.877-1.414 1.366-.448.492-.997 1.291-1.513 1.366-.581.084-1.255-.046-1.902-.049-9.421-.041-19.622.184-28.929-.048-.096-9.649-.246-19.499-.098-29.222.098-6.418-.048-12.811-.049-19.514 0-10.002-.072-20.001.098-29.66 8.553-.18 17.201-.098 25.709-.098.715 0 1.497.017 2.244 0 .783-.018 1.684-.08 2.292.049.493.104 1.138.943 1.513 1.317 3.348 3.348 6.394 6.572 9.805 9.854 1.631 1.902 3.73 3.504 5.659 5.561 1.289 1.375 2.755 2.789 4.244 4.195.292.277 1.25 1.161 1.268 1.513.021.417-.583.928-.878 1.22-1.09 1.074-2.107 2.107-3.122 3.171-3.149 3.121-6.214 6.312-9.366 9.464-1.033 1.034-2.204 1.983-3.024 3.22zm-8.342 33.954c1.218-.788 2.157-1.925 3.22-2.927 2.149-2.026 4.017-4.257 6.098-6.293.518-.507 1-1.049 1.513-1.561.512-.513 1.155-.975 1.463-1.659.089-2.277.049-4.779.049-7.122 0-.757.137-1.758-.049-2.391-.14-.476-.951-1.131-1.366-1.561-.556-.576-1.094-1.025-1.512-1.464-1.012-1.063-2.044-1.976-2.976-2.976-1.315-1.645-2.979-2.94-4.391-4.488-.191-.453-1.412-.878-1.366-1.61.024-.383 1.021-1.187 1.366-1.561 1.447-1.567 3.125-2.984 4.391-4.537.902-1.108 2-2.013 2.927-3.025.97-1.059 2.163-1.884 2.927-3.024.026-3.023 0-6.057 0-9.171-1.733-2.488-4.453-4.066-6.245-6.488-.867-1.173-2.092-2.196-3.171-3.22-1.104-1.047-2.045-2.264-3.268-3.122-1.97.12-4.287-.162-6.098 0-2.723.244-5.608-.305-8.098.147.424.99 1.338 1.491 2 2.244 3.543 3.564 7.077 7.135 10.732 10.586.612.801 1.391 1.439 2.098 2.146.707.706 1.529 1.36 2 2.293-1.209 1.571-2.692 2.884-4.049 4.292-1.354 1.405-2.779 2.731-4.195 4.147-2.425 2.424-4.833 4.888-7.22 7.366-.344.357-.934.789-.927 1.171.01.481 1.243 1.519 1.659 1.951.647.674 1.338 1.241 1.854 1.756 3.672 3.672 7.329 7.253 11.025 10.732.286.706 1.956 1.32 1.951 2.195-.002.424-.588.857-.878 1.171-.388.42-.71.716-1.024 1.073-4.196 4.179-8.356 8.394-12.538 12.586-.277.386-.675.711-1.024 1.073-.324.337-.829.666-.829 1.171 4.455.229 9.332.035 13.951.1zm-22.635-67.566c-.089 1.324-.049 2.833-.049 4.293 0 4.339-.048 8.513-.049 12.635-.001 16.753-.014 33.698.146 50.54.418.043.673-.353.927-.586 1.897-1.744 3.717-3.519 5.464-5.366 1.593-1.49 2.991-3.074 4.634-4.635.487-.461 1.346-1.076 1.464-1.658.143-.708.06-1.689.048-2.342-.027-1.566-.048-3.101-.048-4.634 0-.78.152-1.69 0-2.391-.095-.437-.976-1.158-1.415-1.561-3.221-2.956-5.986-5.87-9.123-8.878-.426-.409-1.424-1.125-1.415-1.61.01-.521.923-1.119 1.415-1.61 2.609-2.609 5.084-5.133 7.61-7.659 1.006-1.006 2.082-1.984 2.927-3.171 0-3.041 0-6.082 0-9.123-1.849-2.282-4.121-4.14-6.245-6.147-1.294-1.683-2.981-3.177-4.537-4.732-.461-.462-1.175-1.354-1.657-1.511-.061.02-.1.063-.097.146z" fill-rule="evenodd"/></svg>