<svg enable-background="new 0 0 34.285 34.226" viewBox="0 0 34.285 34.226" xmlns="http://www.w3.org/2000/svg"><path d="m16.413.023c4.611-.243 9.316 1.45 12.63 4.681 3.311 3.281 5.314 7.893 5.24 12.572-.024 6.021-3.422 11.978-8.732 14.874-2.934 1.46-6.227 2.284-9.517 2.031-2.879-.223-5.728-1.141-8.182-2.66-3.669-2.357-6.388-6.167-7.377-10.419-1.012-4.068-.385-8.502 1.655-12.159 2.793-5.189 8.409-8.649 14.283-8.92zm-6.934 8.25c-1.984 1.682-3.102 4.554-2.272 7.091.855 3.008 4.559 4.935 7.447 3.573 1.581-.749 2.624-2.49 2.547-4.237-.119-1.737-1.659-3.272-3.415-3.296-1.682-.122-3.296 1.551-2.98 3.242.224 1.03 1.196 1.853 2.249 1.909.719-.004 1.244-.655 1.36-1.319-.996.717-2.479-.403-1.905-1.537.667-1.286 2.585-.635 2.987.545.535 1.582-.804 3.364-2.417 3.538-2.547.305-4.939-2.17-4.504-4.71.307-2.902 3.095-5.015 5.909-5.11 2.132-.082 4.269-.03 6.403-.053 1.611-.006 3.115 1.201 3.448 2.777.332 1.416-.326 3.1-1.669 3.747-1.265.767-2.797.432-4.198.505.007.534-.117 1.056-.235 1.573 1.261.068 2.573-.17 3.792.274 2.109.719 3.624 2.985 3.285 5.221-.212 2.316-2.312 4.265-4.63 4.337-1.986.012-3.97.073-5.956.02-.035-2.014.036-4.032-.039-6.044-.51.155-1.028.288-1.561.333-.011 1.91.006 3.819-.001 5.729-.987.02-1.974.011-2.962.017-.065.534-.085 1.077-.001 1.611 3.519-.056 7.04-.042 10.56-.062 3.036-.103 5.777-2.559 6.169-5.579.406-2.545-.926-5.238-3.144-6.53-.241-.105.107-.262.202-.345 1.575-1.075 2.362-3.084 2-4.949-.375-2.351-2.612-4.225-4.987-4.201-2.016.001-4.033.001-6.049.009-1.957-.006-3.927.668-5.433 1.921z"/></svg>