<svg enable-background="new 0 0 54.174 79.71" viewBox="0 0 54.174 79.71" xmlns="http://www.w3.org/2000/svg"><g clip-rule="evenodd" fill-rule="evenodd"><path d="m18.85.131c.176 10.145.098 20.812.098 30.922 0 1.433-.109 2.89.146 4.293 6.557.343 13.236-.399 18.631 1.17 4.999 1.454 8.95 4.382 11.852 7.999 1.438 1.792 2.628 4.001 3.463 6.487.827 2.464 1.378 5.743 1.024 8.828-.664 5.789-2.929 10.001-6.39 13.461-3.304 3.304-7.724 5.889-13.559 6.341-6.515.505-11.688-1.509-15.461-4.194-3.81-2.712-6.894-6.555-8.438-11.462-1.618-5.143-.946-11.85-1.268-18.583-.538-.293-1.304-.195-2.048-.195-2.172 0-4.758.079-6.78-.098-.162-2.963-.161-6.596 0-9.56 2.687-.288 6.044.094 8.731-.194.263-.679.146-1.437.146-2.146 0-10.784.049-20.492.049-31.068 0-.678-.154-1.429.195-2.049 3.086-.128 6.55-.104 9.609.048zm.293 57.211c.02 3.738 1.501 6.672 3.463 8.633 1.991 1.991 4.536 3.661 8.096 3.951 3.766.307 6.829-.914 9.121-2.878 2.296-1.968 3.831-4.536 4.195-7.853.417-3.795-.89-6.96-2.731-9.169-1.786-2.143-4.187-3.926-7.511-4.536-1.735-.319-3.727-.146-5.804-.146-2.005 0-4.105-.062-5.999-.049-.795.006-2.012-.017-2.731.195-.168 4.202-.119 8.1-.099 11.852z"/><path d="m31.239 48.563c2.464-.12 4.665.991 5.951 2 1.682 1.32 3.512 3.881 3.512 7.17 0 4.629-3.873 8.856-8.975 8.877-.633.002-1.654-.085-2.39-.293-2.459-.695-4.634-2.453-5.804-4.682-1.327-2.526-1.394-6.275.195-8.828 1.033-1.66 3.106-3.556 5.755-4.098.507-.103 1.13-.115 1.756-.146z"/></g></svg>