<svg enable-background="new 0 0 71.998 72.273" viewBox="0 0 71.998 72.273" xmlns="http://www.w3.org/2000/svg"><path clip-rule="evenodd" d="m61.684 36.44c.176.474.728.595 1.083.788 1.194.648 2.295 1.325 3.346 2.214 1.274 1.079 2.307 2.652 3.199 4.232 1.759 3.114 3.12 7.22 2.559 12.006-.496 4.23-1.88 7.903-4.33 10.53-2.31 2.476-5.274 4.893-9.153 5.708-2.1.441-4.518.344-6.987.344-16.857-.001-34.424-.078-51.226-.295-.32-2.894-.098-5.904-.098-8.956 0-5.807-.172-11.843 0-18.01.124-4.468 0-8.882 0-13.385 0-9.752-.054-19.512 0-29.524.003-.674-.037-1.412.196-2.065 9.658-.097 19.95.099 29.673.099 4.777 0 9.884-.101 14.663.049 4.894.153 10.235-.387 14.222.59 3.573.876 6.789 3.473 8.857 5.954 2.362 2.834 3.889 6.169 4.231 10.58.376 4.827-.812 8.903-2.51 12.105-.804 1.516-2.104 2.898-3.346 4.035-.643.588-1.307 1.206-2.066 1.624-.765.42-1.694.647-2.313 1.377zm-42.712-5.708c2.766 0 5.548.23 7.479-.688 1.156-.55 2.219-1.6 3.149-2.608.96-1.041 1.697-2.397 2.116-3.69 1.109-3.429.177-7.11-1.329-9.3-1.531-2.227-3.782-3.957-7.479-4.084-3.737-.129-8.061-.021-11.761 0-.262.757-.147 1.589-.147 2.41v2.559c0 5.058-.214 10.41.099 15.254 2.574.142 5.236.147 7.873.147zm28.491.099c3.008 0 5.849-.005 7.972-1.033 1.456-.705 2.849-1.975 3.838-3.199.999-1.234 1.986-3.069 2.165-4.921.408-4.218-.723-6.432-2.706-8.415-1.278-1.278-3.022-2.201-5.02-2.559-2.181-.391-4.68-.246-7.331-.246-2.428 0-4.968-.179-7.332-.049-.854.047.059.765.245.984 1.997 2.345 3.544 4.968 3.544 9.103 0 3.656-1.062 6.271-2.56 8.218-.503.656-1.166 1.188-1.574 1.969 2.851.15 5.8.148 8.759.148zm-32.624 30.853c1.309 0 2.615-.054 3.887 0 2.556.108 5.126.153 7.136-.492 3.823-1.228 6.026-4.618 6.348-9.251.327-4.733-2.642-8.249-6.004-9.497-1.859-.69-4.675-.521-7.184-.59-2.44-.068-5.489-.13-7.874.049-.27.737-.148 1.565-.148 2.362 0 4.204-.049 8.24-.049 12.449 0 1.654-.073 3.288.147 4.823 1.195.266 2.487.147 3.741.147zm31.591.098c2.694 0 5.332.188 7.577-.295 2.11-.453 3.718-1.549 4.971-2.953 2.115-2.37 2.813-6.533 1.378-9.94-1.584-3.758-5.134-6.292-10.039-6.643-3.779-.271-7.697.135-11.268.049-.041.43.4.65.64.886 1.857 1.831 3.14 4.816 3.346 8.218.266 4.381-1.621 7.46-3.592 9.596-.274.295-.643.54-.787.935 2.569.267 5.213.148 7.774.147z" fill-rule="evenodd"/></svg>