<svg enable-background="new 0 0 80.776 80.838" viewBox="0 0 80.776 80.838" xmlns="http://www.w3.org/2000/svg"><g clip-rule="evenodd" fill-rule="evenodd"><path d="m24.39.191c.168 26.564.168 53.848 0 80.465-.608.169-1.864.161-2.474 0-.196-27.147-.107-54.216 0-80.465.761-.129 1.839-.243 2.474 0z"/><path d="m32.467.141c.184 3.366.101 6.755.101 10.146v20.393c0 8.173-.05 16.714-.05 25.139 0 6.604.05 13.065.05 19.889 0 1.642.124 3.312-.151 4.947-.645.165-1.93.165-2.574 0-.234-16.893-.051-34.07-.05-50.833.001-9.239-.051-17.813-.051-27.41 0-.771-.13-1.596.202-2.322.723-.052 1.881-.143 2.523.051z"/><path d="m40.291.141c.184 25.859.102 52.315.101 78.192 0 .793.119 1.608-.151 2.373-.906.059-2.254.138-3.08-.051-.043-5.873-.29-11.806-.101-17.819.222-7.084 0-15.251 0-22.767 0-12.94-.001-24.898 0-37.708 0-.784-.179-1.735.252-2.272.875-.053 2.187-.14 2.979.052z"/><path d="m48.519.191c.252 26.373.081 53.528.051 80.414-.045.022-.09.045-.101.101-.649.072-1.428.125-2.17.101-.744-.023-1.563.029-2.171-.202-.156-22.7-.051-46.556-.05-70.62 0-2.768 0-5.857 0-8.885 0-.847-.053-.962.454-1.061.622-.121 1.385.077 2.07.051.684-.026 1.329-.08 1.917.101z"/><path d="m.513 80.707c-.754-.13-.455-1.39-.455-2.12 0-25.305 0-49.686 0-75.922 0-.859-.072-2.016.101-2.474.926-.729.707 1.316.707 1.969v76.376c0 .386.006.868 0 1.262-.004.302.127.869-.353.909z"/><path d="m7.934 80.756c-.747-.127-.454-1.353-.454-2.12-.002-26.364-.106-51.78.1-78.445.893-.725.656 1.538.656 2.12 0 23.428.15 45.378.151 68.603.001 2.823.105 6.044 0 9.035-.011.332.077.847-.453.807z"/><path d="m15.051.09c.278.025.661-.056.858.051.273.762.151 1.601.152 2.423.001 22.781-.001 45.795 0 68.45v7.622c0 1.234.291 2.409-.858 2.171-.638-.133-.454-1.306-.454-2.12-.001-16.335.05-32.599.05-48.713 0-5.199-.096-10.001 0-14.942.075-3.869-.05-8.098-.05-12.417 0-.901-.084-2.155.151-2.424.037-.047.092-.076.151-.101z"/><path d="m56.545.191c.175 27.181.151 53.89 0 80.516-1.419.166-3.528.169-4.947 0-.059.008-.09-.012-.101-.051-.234-20.212-.053-41.135-.051-60.979 0-3.258-.001-6.544-.05-9.793-.038-2.515.079-4.984.05-7.521-.008-.73-.195-1.555.202-2.221 1.506-.055 3.476-.147 4.897.049z"/><path d="m64.37.544c.185 6.029.101 12.347.101 18.627 0 7.058.029 14.266-.05 20.697-.218.337-.886.225-1.212.454.177.429 1.042.169 1.212.605.164 4.909-.137 9.69 0 14.79.21 7.852.009 16.259-.051 24.584-1.443.529-3.838.632-5.704.404-.272-1.065-.151-2.203-.151-3.281-.001-16.879-.064-34.167 0-50.984.03-7.822.042-15.687.05-23.171.001-1.046-.226-2.129.151-3.129 1.885-.063 4.194-.123 5.654.404z"/><path d="m66.137.949c1.103.164 2.686.835 3.584 1.312 1.101.585 2.139 1.147 2.877 1.918.109 11.128.141 21.29 0 32.105-.763.88-1.861 1.429-2.928 1.969-1.067.541-2.244 1.104-3.584 1.312-.213-.718-.214-1.516-.202-2.271.164-10.304.05-20.716.05-31.348 0-1.631-.041-3.463.051-4.846.029-.073.079-.123.152-.151z"/><path d="m73.709 5.038c.043-.01.048.019.051.051 3.833 3.314 7.017 8.171 7.017 15.244-.001 6.119-2.643 10.707-5.705 13.933-.432.455-.85 1.099-1.514 1.161-.084-9.962-.084-20.275 0-30.237.027-.074.078-.124.151-.152z"/><path d="m66.137 41.231c1.149.222 2.536.785 3.584 1.312 1.087.547 2.159 1.14 2.877 1.918.118 10.618.017 21.454.05 32.156-.781.843-1.872 1.491-2.978 2.018-1.114.532-2.308 1.144-3.635 1.263-.103-10.857-.219-22.454-.101-33.67.018-1.648-.055-3.361.051-4.847.029-.071.079-.122.152-.15z"/><path d="m73.658 45.32c2.02 1.333 3.829 3.974 4.997 6.26 1.299 2.539 2.07 5.693 2.07 9.086-.001 6.128-2.557 10.669-5.654 13.933-.426.449-.85 1.119-1.514 1.161-.143-10.165-.04-19.967-.05-30.288.028-.073.078-.124.151-.152z"/></g></svg>