<svg enable-background="new 0 0 52.78 76.66" viewBox="0 0 52.78 76.66" xmlns="http://www.w3.org/2000/svg"><path clip-rule="evenodd" d="m18.652.148c.137 6.679.146 13.545.146 20.388 0 2.234-.118 4.477-.049 6.682.284 9.047-.21 18.06.146 27.265.802.26 1.693.146 2.536.146 5.854.001 12.277.036 18.241 0 .239-.836.236-2.577 0-3.414-5.475-.286-11.462-.038-17.168-.195-.238-.847-.178-1.777-.146-2.683.212-6.129-.199-13.156.098-19.119 2.018-.24 3.998-.146 5.852-.146 2 0 3.826.092 5.561.487 6.543 1.497 11.112 4.983 14.535 9.707 1.714 2.365 3.008 5.189 3.755 8.34 1.788 7.533-.546 14.781-3.755 19.217-3.318 4.586-8.08 8.271-14.729 9.462-7.97 1.429-14.496-1.434-18.778-4.779-4.443-3.47-7.835-8.492-8.877-15.364-.545-3.594-.293-7.563-.293-11.56 0-7.892 0-15.938 0-23.801 0-3.96.072-7.823 0-11.608-.07-3.702-2.561-5.255-5.609-6.097-.16-.375-.098-1.03-.098-1.61 0-.557-.125-1.207.244-1.415 5.808.053 12.408-.202 18.388.097z" fill-rule="evenodd"/></svg>