<svg enable-background="new 0 0 76.285 71.951" viewBox="0 0 76.285 71.951" xmlns="http://www.w3.org/2000/svg"><g clip-rule="evenodd" fill-rule="evenodd"><path d="m40.953.196c.258 12.068.147 24.982.098 37.361-1.171.452-2.26.688-3.317 1.219-2.795 1.405-5.413 4.007-5.413 8.194 0 4.219 2.57 6.678 5.413 8.194 1.01.539 2.129.799 3.269 1.219.253 3.632.146 7.656.146 11.608 0 .671.025 1.338 0 2-.021.579.03 1.222-.194 1.756-4.392.21-9.071.049-13.851.049-2.39 0-4.798.09-7.122 0-2.285-.088-4.551.147-6.731-.098-1.665-.187-2.815-1.371-3.219-2.731-.352-1.186-.244-2.881-.244-4.536 0-17.577-.245-33.927-.243-51.408 0-3.453-.541-5.466-2.293-7.218-1.189-1.187-2.79-2.062-4.977-2.195-.675-.041-1.427.103-2.146-.195-.118-.902-.257-2.616.097-3.365 10.074-.136 20.659.049 30.874.049 3.348 0 6.658-.105 9.853.097z"/><path d="m45.147 71.747c-.308-1.162-.098-2.426-.098-3.707 0-3.721-.175-7.862.049-11.56 1.219-.401 2.352-.698 3.414-1.219 2.899-1.423 5.609-3.96 5.609-8.243-.001-4.2-2.733-6.869-5.609-8.291-1.047-.518-2.165-.802-3.414-1.171-.178-4.102-.099-8.748-.098-13.12 0-.579-.088-1.62.146-1.805.035-.045.089-.074.146-.098 4.704-.002 9.197-.019 13.656.049 2.264.035 4.553-.091 6.828 0 2.176.087 4.423-.199 6.585.049 1.892.217 3.369 1.6 3.706 3.414.335 1.797.099 4.074.099 6.243v12.389c0 6.017.001 12.468.049 18.534.015 2.03.248 4.596-.244 6.097-.379 1.154-1.542 2.268-2.878 2.536-1.021.205-2.321.049-3.512.049-8.28 0-16.593.026-24.434-.146z"/></g></svg>