<svg enable-background="new 0 0 76.492 74.991" viewBox="0 0 76.492 74.991" xmlns="http://www.w3.org/2000/svg"><path clip-rule="evenodd" d="m76.304.212c.022.045.044.09.101.101.161 9.05.05 18.271.05 27.866.001 14.629-.1 29.518-.101 44.525 0 .71.12 1.484-.152 2.171-6.243.229-12.577.051-18.931.05-6.392 0-12.843.153-19.233-.101-4.829-.192-9.762.113-14.135 0-7.553-.196-15.824.143-23.726-.202-.269-.703-.152-1.478-.152-2.221 0-20.688.101-42.285.101-63.153 0-2.347.05-4.654.051-7.067 0-.7-.164-1.512.202-2.171 24.827-.059 51.003.176 75.925.202zm-70.725 1.009c-1.279 0-2.616 0-3.837 0-.06.025-.115.054-.152.101-.31.119-.201 1.336-.201 2.121 0 22.105-.151 43.627-.152 65.525 0 1.487-.124 2.99.152 4.441 10.033.158 20.388.203 30.744.202 10.488 0 20.672.185 30.945.051-.004-.631-.598-1.026-.959-1.464-.388-.471-.802-.905-1.11-1.413-1.8-1.938-3.622-3.908-5.402-6.008-.334-.394-1.346-1.887-1.918-1.918-.421-.023-1.391.644-1.969.908-4.705 2.161-10.809 3.24-17.315 2.221-6.263-.979-10.909-3.838-14.791-7.117-.234-.198-.454-.626-.858-.505-.296 2.497.11 5.696-.252 8.127-2.615.102-6.348.117-9.188-.05-.147-13.49 0-27.427 0-40.739 0-8.355.082-16.451-.051-24.332-1.078-.272-2.394-.151-3.686-.151zm13.428.101c-.453.99-.196 2.202-.202 3.383-.017 3.658-.175 7.697.05 11.207.443.014.728-.414 1.01-.657 4.785-4.12 10.937-7.269 19.738-7.268 4.703 0 8.402 1.201 11.762 2.625 3.326 1.41 6.245 3.469 8.581 5.805 2.399 2.398 4.433 5.021 6.008 8.381 1.551 3.309 2.769 7.085 2.827 11.56.063 4.814-.866 8.723-2.221 12.065-1.147 2.829-2.811 5.672-4.795 7.774-.282.298-.756.748-.757 1.061-.002.358.464.795.757 1.11 2.159 2.324 4.099 4.694 6.108 6.966 1.786 1.95 3.537 3.935 5.251 5.957.353.27.56.685.909.959.27.307.488.92 1.009.809.142-23.292.247-47.412.101-71.533-18.555-.205-37.587-.249-56.136-.204zm35.791 48.867c.232-.011.679-.597.909-.909 1.823-2.485 3.277-5.592 3.786-9.137.686-4.772-.526-9.178-2.12-12.217-1.64-3.128-3.98-5.744-7.067-7.674-2.833-1.771-6.902-3.449-11.611-3.231-6.845.317-11.757 3.164-15.144 7.421-3.118 3.917-5.708 10.333-3.988 17.467 1.401 5.812 5.112 10.253 9.743 12.822 2.329 1.293 5.316 2.368 8.632 2.676 2.837.263 5.406-.298 7.471-.909.686-.203 1.496-.275 1.969-.858-1.104-1.723-2.596-3.058-3.836-4.644-1.431-1.396-2.573-3.082-3.938-4.544-1.273-1.554-2.638-3.016-3.938-4.543-.688-.699-1.309-1.499-1.969-2.273-.65-.762-1.556-1.371-1.868-2.321 3.52-.204 7.602-.099 11.207-.051 2.1 2.006 3.841 4.371 5.856 6.462 1.399 1.68 2.839 3.319 4.341 4.896.416.267.955 1.593 1.565 1.567z" fill-rule="evenodd"/></svg>