<svg enable-background="new 0 0 80.954 68.683" viewBox="0 0 80.954 68.683" xmlns="http://www.w3.org/2000/svg"><g clip-rule="evenodd" fill-rule="evenodd"><path d="m19.845.102c.272 1.179.151 2.569.151 3.975-.001 8.993.05 17.484.05 26.264 0 .601-.116 1.289.151 1.862.762-.59.913-1.719 1.358-2.566 1.33-2.531 3.089-4.673 5.786-5.937 4.139-1.941 9.118-.547 12.125 1.509 3.088 2.111 5.396 4.854 7.245 8.402 1.796 3.447 2.878 7.875 2.516 12.931-.169 2.36-.683 4.533-1.308 6.541-.617 1.981-1.453 3.772-2.516 5.283-2.193 3.116-4.798 5.697-8.201 7.446-1.738.894-3.82 1.575-6.088 1.761-2.476.203-4.717-.333-6.591-1.107-1.804-.745-3.45-1.712-4.78-3.069-.588-.601-1.076-1.336-1.711-2.214-.419-.579-1.197-2.008-1.912-1.962-.442.028-.568.542-.805 1.006-1.232 2.414-2.639 4.598-3.522 7.295-.131.401-.173.937-.603 1.157-.289-.013-.642.038-.856-.05-.264-.56-.201-1.199-.201-1.812.002-19.551-.051-37.736-.05-57.509 0-1.954.374-4.164-.956-4.78-1.06-.49-2.888-.25-4.426-.25-1.695 0-3.345.079-4.528-.101-.242-.416-.201-1.525-.05-2.013 3.023-.513 6.226-.729 9.409-1.107 3.21-.381 6.445-.576 9.509-1.006.181-.025.548-.125.804.051zm7.245 25.207c-.638.417-1.338 1.059-1.912 1.61-4.358 4.187-4.83 11.12-4.83 19.824 0 4.044.327 9.127 1.409 12.729.537 1.787 1.375 3.267 2.616 4.428 1.217 1.138 2.813 2.078 4.88 2.214 2.187.144 3.762-.697 5.082-1.861 2.577-2.273 3.635-5.828 4.125-10.013.252-2.151.206-4.394.403-6.692.183-2.139-.018-4.452-.151-6.692-.276-4.667-.605-8.591-2.214-11.924-.645-1.334-2.034-3.172-3.22-3.874-.931-.551-2.49-.725-3.622-.604-1.069.114-1.977.471-2.566.855z"/><path d="m49.581.454c3.191-.294 5.475 2.342 5.686 5.182.238 3.211-2.125 6.01-5.535 5.887-2.351-.084-3.896-1.701-4.579-3.321-1.181-2.797.217-5.973 2.415-7.195.54-.299 1.224-.48 2.013-.553z"/><path d="m68.399 4.077c.294 6.258-.095 13.424.201 19.824.899.267 1.935.151 2.918.151 3.02 0 6.061-.141 8.905.05.16.712.168 2.057 0 2.767-3.606.385-8.042-.059-11.724.252-.27.675-.15 1.441-.15 2.163 0 8.299.051 16.597.051 24.956 0 3.019-.418 6.389.704 8.302 1.164 1.986 3.852 3.188 6.39 1.761 2.723-1.531 3.529-4.43 3.724-8.503.136-2.86-.062-6.038.05-9.006.036-.952-.171-1.933.101-2.817.24-.166.894-.118 1.208-.05.216 1.014.192 2.124.15 3.17-.123 3.084.091 6.702 0 9.962-.121 4.376-1.751 7.277-4.729 8.856-3.014 1.597-8.137 1.636-11.32.352-2.815-1.135-5.542-3.984-6.138-7.396-.21-1.201-.151-2.548-.151-3.875 0-9.282.059-18.22-.151-27.22-2.425-.418-5.499.124-7.95-.251-.16-.364-.16-1.296 0-1.66 2.327-.191 3.834-.447 5.384-1.258.465-.243.841-.582 1.308-.905 1.711-1.188 3.153-2.34 4.479-4.327 1.068-1.602 2.218-3.896 2.817-5.988.667-2.33 1.343-4.811 1.509-7.295.068-1.009-.282-2.042.504-2.163.498-.081 1.401.079 1.91.148z"/></g></svg>