<svg enable-background="new 0 0 25.516 33.216" viewBox="0 0 25.516 33.216" xmlns="http://www.w3.org/2000/svg"><path d="m1.482.582c1.764-.961 3.861-.407 5.776-.555.932-.114 1.185 1.402.3 1.625-1.02.091-2.053.012-3.078.044-.723-.004-1.575-.048-2.132.498 1.697.039 3.397-.024 5.092.026.868.095.913 1.5.038 1.624-1.883.043-3.771.002-5.655.03-.181.178-.043.501-.073.739 1.896-.003 3.796-.027 5.691.007.841.097.897 1.467.062 1.62-1.917.05-3.838.008-5.756.033-.006.244-.005.487-.002.731 1.9.022 3.801-.023 5.699.017.833.075.927 1.459.057 1.559-1.916.057-3.84.01-5.758.035-.005.243-.006.487-.003.732 1.9.02 3.802-.024 5.702.014.865.104.88 1.538-.001 1.623-1.895.066-3.799-.019-5.692.051-.035.239-.01.482.013.721 1.913.006 3.83-.036 5.741.016.862.166.759 1.597-.125 1.626-1.879.025-3.76-.006-5.64.022-.004.244 0 .487.009.731 1.915.016 3.831-.027 5.745.015.869.149.789 1.614-.11 1.626-1.88.04-3.763-.006-5.644.032.004.285.006.57.015.855 1.912.023 3.827-.025 5.739.017.867.146.788 1.609-.111 1.619-1.877.063-3.76-.002-5.639.042-.001.284-.002.567.005.851 1.91.019 3.822-.022 5.732.014.858.115.831 1.552-.038 1.613-1.895.072-3.797.009-5.695.045-.004.287-.007.574-.004.861 1.9-.005 3.801-.018 5.702.002.875.081.872 1.542-.001 1.619-1.897.073-3.801.004-5.7.044-.001.286-.002.57.001.856 1.938.011 3.876-.025 5.813.012.758.12.72 1.403-.026 1.535-1.912.097-3.833.022-5.748.067-.11.247-.018.572-.038.849 1.911.02 3.825-.026 5.735.018.82.115.838 1.491.005 1.602-1.911.02-3.814.028-5.726.048.014.281-.095.619.06.862 1.891.02 3.784-.022 5.676.012.804.123.819 1.43.034 1.595-1.779.054-3.57-.025-5.345.06.39.48 1.04.573 1.62.615 1.236.019 2.476-.026 3.71.021.876.152.783 1.64-.131 1.633-1.595-.037-3.209.131-4.791-.103-1.515-.23-2.59-1.676-2.574-3.174-.028-8.737-.016-17.475-.01-26.214-.038-1.184.386-2.506 1.474-3.118z"/><path d="m10.241.043c2.325.009 4.662-.098 6.983.049 2.297.301 4.46 1.644 5.681 3.623 2.17 3.371 1.214 8.305-2.131 10.546-.255.214-1.052.487-.588.869 1.715.85 3.137 2.213 4.076 3.879 1.756 2.92 1.659 6.835-.238 9.667-1.597 2.636-4.572 4.347-7.641 4.484-2.019-.002-4.032.04-6.047.022-.871-.049-.915-1.481-.06-1.603 2.035-.054 4.073-.001 6.109-.037 1.993-.145 3.936-1.023 5.311-2.483 2.133-2.157 2.738-5.599 1.583-8.389-1.151-2.895-4.163-4.889-7.267-4.911-1.909-.001-3.819.012-5.727.001-.834-.088-.863-1.446-.044-1.587 2.128-.056 4.26.038 6.387-.074 3.307-.178 6.138-3.314 5.848-6.636-.152-2.99-2.754-5.563-5.722-5.79-2.173-.088-4.355.006-6.53-.042-.769-.18-.772-1.436.017-1.588z"/></svg>