<svg enable-background="new 0 0 36.918 38.823" viewBox="0 0 36.918 38.823" xmlns="http://www.w3.org/2000/svg"><path d="m19.803.001c4.607-.002 9.204.093 13.814.076.204-.007.552-.021.481.284-.064 5.583-.088 11.169-.142 16.756-2.142-.012-4.282-.038-6.422-.081 2.163-2.608 1.438-7.192-1.655-8.746-1.921-1.09-4.2-.96-6.332-.977.009-2.185-.005-4.371.032-6.554.112-.251-.215-.779.224-.758z"/><path d="m.095 4.074c5.6.027 11.206-.014 16.804.088 0 1.048-.002 2.095-.006 3.143-1.066-.008-2.13-.019-3.195-.002.005 1.237-.031 2.473-.017 3.71.572.065 1.23-.122 1.748.11-.044 3.063-.049 6.136-.063 9.207-5.123.019-10.244-.042-15.366-.079-.004-5.394.052-10.785.095-16.177z"/><path d="m19.537 11.163c1.478.031 3.258-.398 4.473.684.845 1.037.845 2.789-.08 3.78-1.219 1.07-2.936.519-4.391.658-.018-1.706.024-3.414-.002-5.122z"/><path d="m27.935 19.613c2.995-.022 5.99.009 8.983.065-.007 5.497-.119 10.992-.092 16.492-5.81.01-11.616-.073-17.425-.097.031-1.77-.056-3.544.057-5.31 2.337-.011 4.874.129 6.933-1.177 2.079-1.094 2.863-3.621 2.877-5.831.093-1.495-.411-2.973-1.333-4.142z"/><path d="m19.48 20.528c-.024-.236.012-.604.345-.507 1.521.06 3.357-.239 4.532.963 1.431 1.81 1.042 5.398-1.559 5.896-1.099.203-2.22.078-3.329.106-.016-2.152.029-4.305.011-6.458z"/><path d="m2.179 23.929c4.369.03 8.751-.015 13.111.085.082.992-.028 1.999.007 2.998-.57-.017-1.14-.006-1.708-.014-.014 1.228-.082 2.473-.002 3.704.945.051 1.889.034 2.836.06-.001 2.679-.038 5.359-.01 8.038-3.914.03-7.863.043-11.78-.04-.837.056-1.688-.009-2.531-.013.006-4.939-.029-9.883.077-14.818z"/></svg>