<svg enable-background="new 0 0 26.442 30.762" viewBox="0 0 26.442 30.762" xmlns="http://www.w3.org/2000/svg"><path d="m19.846.069c2.102.011 4.203-.057 6.304-.069.028.025.085.074.112.098-.003 2.607.015 5.214.016 7.821.076.87-.013 1.74.03 2.609.024.744.02 1.49.017 2.234.013.194-.161.313-.339.242-8.615.071-17.239.169-25.855.264-.159-.118-.065-.35-.093-.52.016-4.16-.073-8.327-.022-12.483 2.092.058 4.226-.138 6.29.004.031 3.56.119 7.116.051 10.678-.331-.009-.662-.001-.993-.001 0-1.222-.06-2.442-.045-3.663-.029-1.998-.025-3.998-.02-5.997-.237.06-.48.058-.721.027-1.175.041-2.354.033-3.529.026-.013 3.603.073 7.199.058 10.804 8.042-.093 16.088-.142 24.128-.269-.037-3.594-.01-7.193-.085-10.786-1.394.081-2.804.06-4.205.055.056 3.222.048 6.446.053 9.669-.363-.02-.727.02-1.087-.029.004-3.572-.071-7.142-.065-10.714z"/><path d="m4.236 17.758c7.366-.079 14.732-.161 22.098-.236.092 4.328.042 8.66.107 12.989-2.133-.064-4.275.094-6.402.002.001-.67.017-1.342-.02-2.011-.004-2.89-.071-5.784-.034-8.677.363-.001.728-.089 1.086.018.029 3.215.042 6.432.064 9.648 1.397.002 2.793-.052 4.19-.059-.015-3.601.015-7.203-.072-10.802-1.538-.038-3.073.07-4.608.034-6.487.068-12.978.14-19.464.2-.052 3.609.044 7.22.064 10.829 1.394-.043 2.791.014 4.184-.066.024-3.213.042-6.457-.071-9.672.363.023.726-.015 1.089.01.006 3.581.071 7.155.074 10.738-2.08-.024-4.159.083-6.239.055-.158-.029-.109-.243-.126-.361.003-4.195-.051-8.382-.075-12.576 1.385-.039 2.772-.043 4.155-.063z"/></svg>