<svg enable-background="new 0 0 78.561 79.087" viewBox="0 0 78.561 79.087" xmlns="http://www.w3.org/2000/svg"><g clip-rule="evenodd" fill-rule="evenodd"><path d="m78.347.301c.26 3.25.146 6.545.146 9.852-.002 14.738.002 29.958 0 44.92-.001 6.593.01 12.942 0 19.266-.003 1.567.208 3.147-.098 4.683-19.279.171-39.341-.051-58.821-.049-6.578.001-13.012.065-19.363-.146-.281-3.142-.108-6.367-.146-9.608-.039-3.261.06-6.562 0-9.852-.187-9.948.096-20.126 0-29.898-.091-9.191 0-17.953 0-27.118 0-.762-.118-1.594.146-2.342 4.744-.019 9.921 0 14.876 0 7.779.001 16.312.048 24.241.049 13.136.001 26.15.039 39.019.243zm-61.407 6.585c-.943 0-1.916-.047-2.877 0-.989.047-1.984-.162-2.829-.049-.68.091-.585.779-.586 1.463 0 11.745.001 22.807 0 34.19 0 2.547-.022 4.82.391 6.877.834 4.168 2.337 7.158 4.341 10.193 2.85 4.315 6.855 7.719 11.706 9.999 4.888 2.298 11.793 3.45 18.339 2.146 3.948-.786 7.256-2.311 10.291-4.243 2.88-1.833 5.417-4.239 7.414-7.071 2.934-4.163 5.344-9.629 5.413-16.291.075-7.141-2.14-12.472-5.023-16.778-1.898-2.834-4.169-5.444-7.121-7.364-3.033-1.973-6.28-3.547-10.047-4.487-3.863-.965-8.954-1.079-13.023-.195-3.495.759-6.495 1.999-9.121 3.561-.37.22-.76.579-1.269.585-.29-3.903.096-8.484-.194-12.389-1.79-.264-3.794-.147-5.805-.147z"/><path d="m51.814 54.733c-2.779 2.911-6.205 4.966-11.316 5.365-2.596.202-5.173-.399-7.169-1.171-2.01-.776-3.719-1.942-5.122-3.17-2.867-2.509-5.089-6.536-5.413-11.219-.394-5.667 1.754-9.253 4.341-12.29 2.815-2.755 6.237-5.037 11.364-5.365 3.913-.251 7.356.958 9.9 2.585 2.591 1.656 4.645 3.895 5.951 6.535 1.443 2.92 2.183 6.499 1.561 10.341-.561 3.459-2.187 6.155-4.097 8.389z"/></g></svg>