<svg enable-background="new 0 0 74.387 77.26" viewBox="0 0 74.387 77.26" xmlns="http://www.w3.org/2000/svg"><g clip-rule="evenodd" fill-rule="evenodd"><path d="m.231 77.008c-.021-.044-.043-.088-.099-.098-.091-15.962-.046-32.298-.048-48.519 0-.766.126-1.588.098-2.362-.189-5.368-.191-10.906-.098-16.73.034-2.144-.204-5.704 0-8.415.058-.764.177-.78.59-.836.951-.131 2.134.049 3.198.049 14.954.001 29.717.097 44.927.099 1.108 0 2.41-.185 3.248.049.54.151 1.117 1.247 1.525 1.771 3.393 4.361 6.379 8.959 9.645 13.286 2.433 3.222 4.554 6.236 6.938 9.497.454.621.807 1.329 1.279 1.969.428.579.949 1.185 1.428 1.87.336.483 1.238 1.587 1.229 2.116-.009.553-.932 1.621-1.229 2.066-.482.719-.924 1.229-1.379 1.87-.431.607-.728 1.354-1.229 2.066-.237.338-1.276 1.433-1.279 1.969-.004.58.903 1.476 1.328 2.066.515.715.862 1.448 1.329 2.067.493.655.9 1.234 1.427 1.968.354.493 1.319 1.466 1.329 2.066.008.557-.886 1.458-1.28 2.018-1.341 1.904-2.673 3.948-3.937 5.807-4.866 7.157-10.113 13.671-15.058 20.716-.439.627-.829 1.322-1.476 1.771-15.275.146-30.62-.048-46.01-.049-2.124.001-4.285.119-6.396-.147zm18.798-8.759c9.718-.001 19.989.22 29.081 0 1.379-1.584 2.572-3.413 3.838-5.216 1.221-1.739 2.496-3.528 3.789-5.314 2.142-2.958 4.372-6.287 6.594-9.251.303-.403.886-1.053.886-1.427 0-.288-.364-.748-.59-1.083-1.206-1.785-2.38-3.349-3.543-4.97-.464-.646-1.045-1.267-1.28-2.116.201-.822.827-1.421 1.28-2.067.938-1.336 1.831-2.638 2.756-3.937.469-.659 1.068-1.285 1.278-2.116-.365-1.075-1.169-1.936-1.82-2.805-2.002-2.669-3.838-5.382-5.855-8.02-2.218-3.156-4.528-6.34-6.791-9.399-.32-.434-.587-1.019-1.132-1.23-12.72-.073-25.355-.122-37.89-.148-.058.025-.112.053-.148.099-.329.326-.197 2.593-.197 3.592-.001 17.295.002 34.522 0 51.668 0 1.201-.121 2.425.099 3.592 3.12.254 6.36.148 9.645.148z"/><path d="m11.106 66.133c-.181-4.629-.099-9.321-.099-13.975 0-4.646-.126-9.267 0-13.778.188-6.769 0-13.921 0-20.618 0-1.766 0-3.516 0-5.314 0-.491-.138-1.095.196-1.525 11.003-.246 21.872.089 33.265 0 .682-.005 1.542-.099 2.067.049.627.177 1.572 1.769 1.968 2.313 3.604 4.955 7.171 9.821 10.825 14.86.252.346.579.79.887 1.231.321.46.812 1.034.787 1.476-.038.637-.996 1.481-1.378 2.018-1.208 1.698-2.202 3.157-3.444 4.92-.693.983-.691 1.205 0 2.166.703.977 1.474 1.982 2.115 2.903.949 1.361 2.036 2.707 2.657 4.035-.013.555-.438.983-.737 1.378-2.061 2.708-4.019 5.709-6.053 8.513-1.168 1.61-2.342 3.199-3.494 4.823-1.138 1.603-2.24 3.279-3.592 4.724-.04.009-.049.05-.099.049-3.024 0-6.079 0-9.104 0-7.402 0-15.071-.1-22.39-.099-1.468-.001-2.948.118-4.377-.149zm11.908-9.054c6.553 0 13.184.131 19.535 0 .788-.609 1.299-1.578 1.919-2.46.903-1.286 1.773-2.589 2.657-3.887.292-.429.682-.794.984-1.23.381-.55 1.678-2.064 1.624-2.707-.054-.64-.875-1.458-1.279-2.018-.973-1.344-1.761-2.456-2.756-3.838-.373-.519-1.249-1.417-1.23-2.066.018-.606.974-1.567 1.329-2.067 1.026-1.442 1.822-2.614 2.805-4.035.308-.445 1.297-1.559 1.279-2.165-.013-.432-.555-.99-.837-1.377-1.923-2.641-3.751-4.98-5.658-7.628-.275-.382-.742-1.124-1.033-1.23-.597-.216-1.896-.049-2.657-.049-6.562 0-12.719-.061-19.093-.049-.059.024-.111.052-.148.098-.365.129-.246 1.339-.246 2.116v29.967c0 1.506-.12 3.043.147 4.478.843.265 1.765.147 2.658.147z"/><path d="m22.276 55.111c-.281-.619-.136-1.311-.147-1.968-.036-2.033.056-4.065 0-6.102-.152-5.524-.049-11.085-.05-16.78 0-2.115.001-4.281 0-6.397 0-.629-.14-1.372.296-1.87 5.347-.27 11.185.214 16.632.049.693-.021 1.732-.174 2.215 0 .418.15.898.998 1.279 1.525 1.228 1.696 2.252 3.12 3.444 4.822.441.789 1.218 1.243 1.427 2.264-.152.855-.787 1.455-1.23 2.116-.885 1.322-1.816 2.611-2.755 3.937-.45.635-1.046 1.223-1.279 2.018.224.854.803 1.488 1.279 2.116.97 1.278 1.86 2.504 2.854 3.937.335.483 1.264 1.474 1.279 2.067.018.676-1.039 1.599-1.427 2.165-.468.684-1.041 1.483-1.477 2.116-1.027 1.494-1.889 2.919-3.051 4.133-6.36-.029-13.079.086-19.289-.148zm9.842-18.65c1.032-1.397 1.959-2.694 3.001-4.134.35-.481 1.085-1.331 1.083-1.82-.002-.609-.754-1.267-1.083-1.723-.448-.623-.72-1.147-1.181-1.624-.801-1.085-1.432-2.34-2.51-3.149-.062.02-.101.064-.099.148-.049 4.2-.146 8.873.05 12.991.387.009.55-.434.739-.689zm.59 15.55c.913-1.206 1.827-2.478 2.756-3.74.294-.399.784-.955.787-1.427.004-.525-.718-1.333-1.033-1.772-1.246-1.736-2.379-3.389-3.642-4.921-.032 0-.065 0-.098 0-.071.027-.12.077-.149.147-.049 4.266-.146 9.004.05 13.188.626-.117.944-.953 1.329-1.475z"/></g></svg>