<svg viewBox="0 0 90 48" fill="none" xmlns="http://www.w3.org/2000/svg">
<path d="M86.2975 20.1442C86.2435 17.8913 85.1221 15.7363 83.2022 14.7274C83.9613 13.5667 84.6862 12.4108 85.3719 11.2893C86.0967 12.7537 87.1693 14.3356 87.1693 16.4171C87.1693 17.7394 86.8608 19.0373 86.2975 20.1442ZM84.4413 22.3922C83.6283 22.9848 82.6635 23.3326 81.5811 23.3326C80.1363 23.3326 78.907 22.74 78.1429 21.7164C79.5926 19.9532 81.0277 17.9746 82.3794 15.9665C83.9564 16.853 84.598 18.9002 84.598 20.7515C84.598 21.3246 84.549 21.8731 84.4413 22.3922ZM77.4377 20.1687C77.3591 19.8211 77.32 19.4488 77.32 19.0618C77.32 17.0979 78.7158 15.5159 80.5622 15.5159C80.6848 15.5159 80.8071 15.52 80.9198 15.5301C79.7443 17.1953 78.5689 18.7772 77.4375 20.1681M55.9026 29.0476C55.2707 29.0476 54.9818 28.5334 54.9818 27.593C54.9818 24.5516 57.6853 18.1748 62.0246 14.4281C62.5046 15.2216 62.7201 16.2305 62.725 17.2835C62.7428 22.3085 58.1408 29.0476 55.9026 29.0476ZM38.6971 32.7796C38.0849 32.7796 37.7764 32.2507 37.7764 31.3495C37.7764 27.4216 44.4469 14.5751 47.8018 14.5751C48.4336 14.5751 48.7226 15.104 48.7226 16.0247C48.7226 19.9919 42.0912 32.7796 38.6971 32.7796ZM28.9704 19.36C28.1525 18.4736 27.2611 17.7536 26.3403 17.1953C28.6227 12.5033 31.1548 8.07098 34.3235 4.69159C35.401 5.80335 35.9838 7.32163 35.9838 9.13864C35.9838 13.6543 33.006 17.6165 28.9704 19.36ZM16.3443 41.1742C15.4627 41.1742 14.6595 41.0565 13.9395 40.8461C17.8919 36.3991 20.8354 29.2779 24.0532 22.1273C25.4049 22.1714 26.7028 22.005 27.8537 21.7993C28.4953 23.1559 28.892 24.8163 28.892 26.79C28.892 33.25 24.1413 41.1742 16.3443 41.1742ZM11.0793 39.2545C9.8108 38.0644 9.18387 36.5265 9.19858 35.2482C9.20946 34.6115 9.37983 34.0238 9.6541 33.5145C10.0606 34.4058 11.0499 35.0817 12.2498 35.0817C12.7151 35.0817 13.1559 34.984 13.5624 34.8173C12.7494 36.4776 11.9315 37.9762 11.0793 39.2545ZM19.5963 18.0184C19.5963 17.1515 20.6444 16.9997 21.7611 17.1319C21.3595 17.8812 20.9677 18.6355 20.5905 19.3946C19.9587 19.0028 19.5963 18.518 19.5963 18.0184ZM25.5665 18.8216C25.9975 19.1791 26.404 19.5905 26.7763 20.0558C26.1591 20.1881 25.5274 20.2662 24.8858 20.2907C25.1111 19.801 25.3364 19.3064 25.5665 18.8216ZM86.1652 10.1134C86.9194 9.25145 87.3895 8.17398 87.3895 7.38052C87.3895 6.84181 87.0761 6.49898 86.5716 6.49898C85.7341 6.49898 84.7253 7.53234 84.7253 9.08981C84.7253 9.31016 84.7537 9.52574 84.7938 9.74122C83.8339 11.2448 82.8347 12.7679 81.8209 14.2372C81.4734 14.1687 81.1108 14.1296 80.7287 14.1296C78.2946 14.1296 75.787 15.9565 75.787 19.2575C75.787 20.1538 75.9438 20.9423 76.2131 21.6231C74.1267 23.9984 72.295 25.5363 71.0559 25.5363C70.5661 25.5363 70.2723 25.2718 70.2723 24.7184C70.2723 24.1257 70.5612 23.1854 71.1343 21.8777L78.2897 6.02406L86.0182 5.11307L86.8949 3.28137L79.4162 3.52624L80.714 0.6562L77.8147 1.01865L76.4972 3.61929L66.0358 3.95727L64.1551 7.68933L75.0965 6.40125L72.8974 10.765C71.7709 10.2606 70.4094 9.97164 68.8225 9.97164C66.4276 9.97164 64.2041 10.5642 62.201 11.5683C61.2949 11.1275 60.2713 10.9119 59.2281 10.9119C56.7009 10.9119 53.8407 12.1266 51.5143 14.257C51.0441 12.8074 50.0597 11.9356 48.6002 11.9356C46.9007 11.9356 45.0935 12.8269 43.3646 14.2718C42.3312 13.4245 40.8325 13.1796 39.2604 13.7771C40.1077 12.1952 40.573 10.5103 40.573 8.83534C40.573 5.91143 39.2016 3.76136 36.6989 2.46353C37.556 1.76804 38.4571 1.14606 39.4122 0.612217C39.0596 0.332866 38.8392 0.161629 38.5453 0C37.3013 0.504454 36.1259 1.10199 35.0141 1.77785C33.4371 1.2734 31.5564 1.01872 29.4063 1.01872C19.42 1.01872 9.97241 6.78323 9.97241 13.9044C9.97241 17.0487 11.7503 18.1703 13.5085 18.1703C15.1492 18.1703 16.7557 17.2495 17.265 16.1328C15.8349 15.8389 14.9876 14.5999 14.9876 13.0277C14.9876 7.48359 21.7072 2.63005 28.6031 2.63005C30.1458 2.63005 31.4829 2.919 32.58 3.44795C28.3925 6.6706 25.1796 11.0589 22.5251 15.7508C22.1382 15.6922 21.7611 15.6627 21.4084 15.6627C19.4249 15.6627 17.9948 16.5149 17.9948 18.1605C17.9948 19.2771 18.7245 20.2371 19.8363 20.9325C18.2005 24.3462 16.7606 27.7648 15.3843 30.8748C14.9044 29.9295 13.8171 29.3124 12.5535 29.3124C9.51697 29.3124 7.23464 31.9865 7.23464 35.2924C7.23464 37.4523 8.11133 39.5142 9.61979 41.1647C8.1946 42.7564 6.63712 43.7017 4.8152 43.7458C4.21769 43.76 3.63977 43.6185 3.12551 43.3197C4.55073 43.1629 5.72126 42.1051 5.68698 40.7288C5.65146 39.3526 4.50666 38.378 2.9345 38.4122C1.00973 38.4563 -0.0334739 40.0677 0.000819379 41.4781C0.0595986 44.0935 2.27821 45.4648 5.17273 45.3963C7.67544 45.3376 9.82549 44.4461 11.7405 42.9425C13.5575 44.1082 15.83 44.8183 18.3719 44.8183C26.0514 44.8183 32.5702 38.2751 32.5702 29.4936C32.5702 26.0016 31.669 23.2393 30.3271 21.1235C32.8199 20.2468 35.0092 18.8461 36.7136 17.1564C39.1036 14.786 40.8815 15.0064 41.8904 15.648C37.9282 19.762 34.7105 26.3983 34.7105 30.8601C34.7105 33.6224 35.8124 35.4198 37.938 35.4198C44.3147 35.4198 51.9257 23.1267 51.8326 16.3728C53.8799 14.1052 56.6176 12.7534 58.8412 12.7534C59.2624 12.7534 59.6444 12.8024 59.9921 12.8956C55.0112 16.417 51.9061 22.4411 51.9061 27.0743C51.9061 29.5329 53.1109 31.394 55.4618 31.394C59.8501 31.394 65.5656 24.5618 65.5656 17.7442C65.5656 15.653 64.973 14.0759 64.0278 12.9691C65.5607 12.0581 67.2455 11.5047 69.0528 11.5047C70.1008 11.5047 71.1979 11.7495 72.1823 12.1805L67.7892 20.8934C66.7656 23.0191 66.3688 24.596 66.3688 25.7372C66.3688 27.5004 67.3974 28.4016 69.0381 28.4016C71.4183 28.4016 74.2296 26.1878 77.031 23.0239C78.2408 24.5226 80.1264 25.1936 81.6887 25.1936C82.1834 25.1936 82.6927 25.1446 83.207 25.0514C82.0266 26.5403 80.0627 27.6618 77.1828 28.3818L39.0449 37.9175C33.251 39.3623 29.7099 42.2226 31.4192 47.6981C32.7416 46.6109 35.1219 45.5481 41.2733 43.6723L75.8948 33.1178C80.9589 31.5702 84.1718 27.941 85.5431 24.2776C87.9038 23.1365 90 20.9472 90 17.9058C90 14.5509 87.1888 12.5476 86.1652 10.1134Z" fill="black"/>
</svg>
