<svg height="69" viewBox="0 0 130 69" width="130" xmlns="http://www.w3.org/2000/svg"><path d="m124.652 29.1406c-.078-3.2591-1.698-6.3764-4.471-7.836 1.096-1.6791 2.143-3.3511 3.134-4.9735 1.047 2.1183 2.596 4.4068 2.596 7.4179 0 1.9128-.445 3.7904-1.259 5.3916zm-2.681 3.2519c-1.175.8573-2.568 1.3603-4.132 1.3603-2.087 0-3.862-.8572-4.966-2.3379 2.094-2.5506 4.167-5.4129 6.119-8.3178 2.278 1.2824 3.205 4.2439 3.205 6.922 0 .829-.071 1.6225-.226 2.3734zm-10.117-3.2165c-.113-.5028-.17-1.0415-.17-1.6013 0-2.841 2.017-5.1294 4.684-5.1294.177 0 .353.0059.516.0204-1.698 2.409-3.396 4.6974-5.03 6.7095m-31.1059 12.845c-.9126 0-1.3299-.7439-1.3299-2.1043 0-4.3996 3.905-13.6243 10.1729-19.0442.6933 1.1478 1.0046 2.6072 1.0117 4.1305.0257 7.2691-6.6217 17.018-9.8547 17.018zm-24.8523 5.3987c-.8843 0-1.33-.7652-1.33-2.0688 0-5.6821 9.6353-24.2658 14.4813-24.2658.9126 0 1.33.7651 1.33 2.097 0 5.7389-9.5787 24.2376-14.4813 24.2376zm-14.0497-19.4127c-1.1813-1.2824-2.4689-2.3239-3.799-3.1316 3.2968-6.7874 6.9542-13.1991 11.5313-18.08773 1.5564 1.60824 2.3982 3.80463 2.3982 6.43313 0 6.5323-4.3012 12.2639-10.1305 14.7862zm-18.2377 31.5562c-1.2734 0-2.4336-.1702-3.4736-.4744 5.7091-6.4332 9.9608-16.7347 14.6087-27.0787 1.9525.0638 3.8272-.1769 5.4897-.4744.9267 1.9624 1.4998 4.3642 1.4998 7.2195 0 9.345-6.8622 20.808-18.1246 20.808zm-7.6049-2.7769c-1.8323-1.7217-2.7379-3.9464-2.7167-5.7955.0158-.921.2618-1.7712.658-2.508.5871 1.2894 2.0162 2.2671 3.7494 2.2671.672 0 1.3087-.1413 1.8959-.3824-1.1743 2.4017-2.3557 4.5696-3.5866 6.4188zm12.3023-30.7201c0-1.2541 1.5139-1.4737 3.1269-1.2824-.5801 1.0839-1.1461 2.175-1.6908 3.2732-.9126-.5668-1.4361-1.2681-1.4361-1.9908zm8.6236 1.1618c.6226.5173 1.2097 1.1124 1.7474 1.7855-.8914.1913-1.804.3043-2.7307.3398.3255-.7085.6509-1.4238.9833-2.1253zm87.5316-12.5971c1.089-1.247 1.768-2.8056 1.768-3.9535 0-.77926-.452-1.27517-1.181-1.27517-1.21 0-2.667 1.49477-2.667 3.74787 0 .3187.041.6306.099.9424-1.387 2.175-2.83 4.3784-4.294 6.5039-.502-.0992-1.026-.1557-1.578-.1557-3.516 0-7.138 2.6427-7.138 7.4179 0 1.2966.227 2.4372.616 3.422-3.014 3.4363-5.66 5.6609-7.45 5.6609-.707 0-1.132-.3825-1.132-1.1832 0-.8573.418-2.2176 1.246-4.1092l10.335-22.93391 11.163-1.31784 1.267-2.64972-10.803.35421 1.875-4.151791-4.188.524321-1.903 3.76209-15.1109.48892-2.7166 5.39882 15.8045-1.86336-3.177 6.31266c-1.627-.7298-3.594-1.1477-5.8857-1.1477-3.4593 0-6.6711.8571-9.5645 2.3096-1.3088-.6376-2.7873-.9494-4.2941-.9494-3.6504 0-7.7819 1.757-11.1422 4.839-.6791-2.0971-2.1011-3.3582-4.2092-3.3582-2.4548 0-5.0653 1.2894-7.5626 3.3794-1.4926-1.2256-3.6574-1.5798-5.9283-.7155 1.2239-2.2885 1.896-4.7257 1.896-7.1487 0-4.22975-1.9809-7.34001-5.5959-9.21748 1.238-1.00607 2.5397-1.90582 3.9192-2.6781-.5093-.404083-.8277-.651794-1.2521-.88562-1.7969.729736-3.4948 1.59415-5.1007 2.57184-2.2779-.72974-4.9945-1.09818-8.1002-1.09818-14.4246 0-28.0711 8.33893-28.0711 18.64044 0 4.5485 2.568 6.1709 5.1077 6.1709 2.3699 0 4.6903-1.3319 5.426-2.9473-2.0657-.4252-3.2895-2.2175-3.2895-4.4918 0-8.0202 9.7061-15.04127 19.6668-15.04127 2.2284 0 4.1597.418 5.7444 1.18316-6.0486 4.66187-10.6894 11.00991-14.5237 17.79731-.5589-.0848-1.1037-.1276-1.613-.1276-2.8651 0-4.9308 1.2329-4.9308 3.6134 0 1.6153 1.054 3.004 2.6599 4.0101-2.3628 4.9381-4.4427 9.8835-6.4306 14.3824-.6933-1.3673-2.2638-2.2602-4.089-2.2602-4.3861 0-7.6828 3.8684-7.6828 8.6508 0 3.1244 1.2664 6.1072 3.4452 8.4948-2.0586 2.3025-4.30825 3.67-6.93991 3.7337-.86307.0207-1.69784-.1841-2.44067-.6163 2.05865-.2268 3.74943-1.7571 3.6999-3.748-.05129-1.9909-1.70491-3.4008-3.9758-3.3512-2.78023.0638-4.2870713 2.3948-4.23753744 4.4352.08490374 3.7833 3.28956744 5.7671 7.47054744 5.668 3.61497-.0849 6.72067-1.3745 9.48677-3.5497 2.6246 1.6864 5.9071 2.7136 9.5787 2.7136 11.0926 0 20.5086-9.4655 20.5086-22.1688 0-5.0515-1.3017-9.0473-3.2401-12.1081 3.6009-1.2682 6.7632-3.2945 9.225-5.7387 3.4523-3.4292 6.0203-3.1104 7.4777-2.1822-5.7232 5.9513-10.3711 15.5514-10.3711 22.0059 0 3.9958 1.5917 6.596 4.662 6.596 9.2109 0 20.2045-17.7832 20.07-27.5532 2.9572-3.2805 6.9117-5.2359 10.1235-5.2359.6084 0 1.1602.0709 1.6625.2057-7.1947 5.094-11.6799 13.8085-11.6799 20.5108 0 3.5567 1.7403 6.2489 5.1361 6.2489 6.3386 0 14.5943-9.8835 14.5943-19.7457 0-3.0253-.8559-5.3066-2.2212-6.9078 2.2142-1.3178 4.6478-2.1183 7.2583-2.1183 1.5141 0 3.0981.3542 4.5201.9776l-6.3453 12.6041c-1.4786 3.075-2.0516 5.3562-2.0516 7.007 0 2.5505 1.4856 3.8543 3.8556 3.8543 3.4383 0 7.4993-3.2025 11.5453-7.7793 1.747 2.1679 4.471 3.1385 6.728 3.1385.714 0 1.45-.0709 2.193-.2056-1.705 2.1538-4.542 3.7763-8.702 4.8178l-55.0878 13.7943c-8.369 2.0901-13.4838 6.2277-11.0149 14.1486 1.9101-1.5728 5.3483-3.1103 14.2336-5.8238l50.0091-15.2681c7.315-2.2387 11.955-7.4887 13.936-12.7882 3.41-1.6508 6.438-4.8178 6.438-9.2174 0-4.8533-4.061-7.7512-5.539-11.2724z" fill-rule="evenodd"/></svg>