<svg enable-background="new 0 0 73.678 57.877" viewBox="0 0 73.678 57.877" xmlns="http://www.w3.org/2000/svg"><g clip-rule="evenodd" fill-rule="evenodd"><path d="m21.367 12.152c4.212-3.439 8.996-6.963 13.416-10.537.687-.556 1.341-1.386 2.049-1.61 6.205.063 12.728-.001 19.075 0 3.288.001 6.274-.12 8.684.781 2.344.876 4.076 2.215 5.61 3.951 2.323 2.537 4.313 7.197 3.123 12.245-.93 3.941-3.508 7.276-6.83 9.123-1.761.979-3.679 1.707-6.293 1.707-6.428 0-13.093 0-19.709 0-1.27 0-2.883.199-3.854-.098-.401-.123-.757-.476-1.122-.829-.949-.919-2.29-1.811-3.269-2.585-1.501-1.188-2.966-2.39-4.293-3.464-2.366-1.791-5.115-3.993-7.708-5.903-.226-.166-.968-.66-.976-.927-.01-.349.795-.88.976-1.024.428-.343.775-.515 1.121-.83z"/><path d="m17.367 15.421c1.662.979 3.389 2.492 4.878 3.61 1.648 1.237 3.159 2.426 4.781 3.659 2.304 1.751 4.642 3.741 7.074 5.61.347.267.783.594 1.171.927.393.339.801.824 1.17.927.826.231 2.087.048 3.171.049 5.391.001 10.198-.001 15.708 0 2.108 0 4.264-.103 6.196.146 5.169.667 9.116 3.967 10.878 8.245.629 1.527 1.122 3.18 1.122 5.22 0 4.064-1.24 7.088-3.317 9.416-1.943 2.177-4.773 4.077-8.244 4.488-1.833.217-4.133.14-6.293.097-5.172-.102-10.298 0-15.757 0-1.027 0-2.297.17-3.122-.049-.371-.098-.774-.491-1.171-.878-1.017-.992-2.389-1.861-3.464-2.683-1.596-1.22-3.103-2.467-4.537-3.61-3.073-2.449-6.221-4.645-9.22-7.074-2.982-2.415-6.116-4.736-9.269-7.074-2.611-1.937-5.321-4.18-8.049-6.244-.447-.34-1.061-.64-1.073-.928-.012-.291.652-.713.976-.976 5.065-4.103 9.937-8.061 15.172-12.001.44-.331.863-.77 1.219-.877z"/></g></svg>