<svg enable-background="new 0 0 61.145 77.158" viewBox="0 0 61.145 77.158" xmlns="http://www.w3.org/2000/svg"><path clip-rule="evenodd" d="m27.18 7.894c-.511.348-.286 1.277-.151 1.918.142.672.465 1.41.707 1.817 1.351 2.269 4.358 3.727 7.017 4.846 2.75 1.159 5.446 2.61 7.37 4.493 1.084 1.061 1.913 1.987 2.423 3.533 1.087 3.294-.303 7.12-2.12 8.885-.503.488-1.075.902-1.666 1.312-.544.378-1.256.616-1.716 1.211.531.285 1.12-.08 1.564-.252 1.384-.534 2.701-1.552 3.686-2.524 1.448-1.431 2.463-3.156 2.675-5.653.217-2.545-.521-4.919-1.564-6.663-1.086-1.814-2.498-3.189-3.181-5.099-1.269-3.55.562-6.958 3.079-8.178 2.066-1 5.223-.45 6.411 1.212 1.22 1.382 1.859 3.903.909 5.905-.314.662-.783 1.117-1.111 1.667-.848.663-1.918 1.419-3.331 1.514-1.502.101-2.717-.583-3.887-.959-.139.536.401.884.706 1.161.986.896 2.287 1.514 3.433 2.322 1.439 1.015 2.903 2.376 3.433 4.24.402 1.414.551 3.609.102 5.249-.64 2.333-2.863 4.338-4.896 5.352-.257.128-.726.214-.758.605 1.154.116 2.185-.396 3.079-.857 2.511-1.297 4.73-3.919 4.745-7.623.006-1.4-.34-2.672-.808-3.837-.729-1.815-1.515-3.923-.555-5.855 1.907-3.84 8.977-2.284 8.329 2.827-.248 1.955-2.098 3.513-4.442 3.483-.495-.006-1.067-.259-1.615 0-.027.58.443.987.707 1.413.793 1.286 1.736 2.726 2.119 4.442.094.418.151 1.062.102 1.716-.234 3.086-2.842 5.103-5.956 5.503-1.682.216-3.651.131-5.554.05-1.899-.08-3.761.125-5.451.051-3.593-.158-7.667 0-11.358 0-1.787 0-3.728 0-5.704 0-1.722 0-4.209-.237-5.553.151-1.144.331-1.737 1.611-.505 2.271 1.428.402 3.326.253 5.099.253 8.747-.002 17.225-.172 26.199-.051 3.744.051 6.531.434 8.026 2.676 1.815 2.723.189 6.842-1.111 8.783-.255.381-.506.774-.757 1.161-.229.352-.577.754-.556 1.211.201.397.67.108 1.01.051 1.264-.214 2.543.119 3.181.707 1.1.751 1.96 1.689 2.018 3.281.083 2.233-1.639 3.838-3.433 4.24-2.326.521-4.807-1.037-5.199-3.13-.267-1.424.152-2.914.556-4.089.41-1.195.829-2.387 1.06-3.685.562-3.161-.62-5.386-2.019-7.168-.583-.743-1.918-1.462-2.929-1.969-1.031-.519-2.306-1.048-3.584-.909.053.496.642.553.96.706 2.316 1.122 4.763 3.055 5.653 5.654.295.86.233 2.606.151 3.584-.182 2.188-1.639 4.113-2.877 5.351-1.01 1.01-2.266 1.864-3.483 2.676-.39.26-.954.463-1.01 1.01.72.017 1.356-.323 2.069-.403 2.29-.262 4.441.934 5.25 2.372 1.003 1.782.919 4.284 0 5.906-.95 1.678-2.96 2.716-5.3 2.523-1.419-.116-2.268-.8-3.281-1.564-.883-1.009-1.56-2.132-1.767-3.635-.223-1.613.215-3.151.808-4.442 1.106-2.41 2.963-4.502 3.836-6.916 1.109-3.065.912-6.184-.808-8.43-.757-.989-1.756-1.816-2.826-2.574-1.041-.736-2.27-1.53-3.686-1.565.115.452.623.64.959.858 2.458 1.599 5.108 3.921 5.099 8.026-.006 2.741-1.3 4.783-2.776 6.26-1.526 1.526-3.485 2.635-5.452 3.584-3.034 1.464-6.68 2.376-8.581 4.997-.6.828-1.243 1.86-1.11 3.181.44-.082.553-.582.706-.858 1.036-1.86 2.776-3.202 5.149-3.786 2.224-.547 4.327.368 5.805 1.363 1.438 1.319 2.225 2.698 2.373 4.997.158 2.45-.602 4.176-1.868 5.401-1.765 1.71-4.953 2.606-7.724 1.464-2.35-.969-4.25-2.713-5.25-5.048-.187-.436-.364-1.311-.454-1.969-.532-3.921 1.435-6.58 3.434-8.329 1.987-1.741 4.599-3.606 6.36-5.502 1.913-2.06 3.468-5.157 2.826-8.632-.446-2.419-1.833-4.092-3.584-5.301-.561-.387-1.218-.884-2.019-.808-.118.491.408.771.655 1.01 1.922 1.85 3.595 5.203 2.272 8.885-.604 1.678-1.639 2.928-2.979 3.987-1.4 1.108-2.934 1.666-5.301 1.666-8.092-.001-15.782-.05-24.129-.051-1.019 0-2.822.125-3.23-.201-.53-.424-.253-3.156-.253-4.291 0-9.95 0-19.291 0-29.278 0-.678-.122-1.411.202-2.02.997-.271 2.079-.151 3.13-.151 3.162.001 6.391.051 9.641.051 4.351 0 8.755.221 13.024.05 2.319-.092 4.128.029 5.653.809 2.601 1.327 5.174 3.985 4.796 8.127-.176 1.934-.947 3.293-1.867 4.644-.407.604-1.215.805-1.414 1.615.883.193 1.555-.447 2.12-.857.616-.447 1.175-.929 1.615-1.515.824-1.094 1.683-2.745 1.817-4.493.21-2.725-.71-4.87-1.918-6.461-1.25-1.646-2.514-2.851-4.189-4.139-1.488-1.144-3.357-2.233-4.645-3.736-1.282-1.496-2.387-3.378-2.221-6.107.164-2.724 1.271-4.452 2.574-5.755 1.312-1.312 3.202-2.657 5.653-2.827 3.071-.212 5.522 1.415 6.613 3.23 1.122 1.867 1.326 4.996.354 7.067-1.101 2.344-4.183 3.874-6.916 3.686-2.797-.193-5.098-1.959-6.158-4.291-.268-.591-.18-1.207-.756-1.816zm-2.423 19.989c-5.669.092-11.38-.034-16.961.051-.556.567-.354 1.499-.354 2.322-.001 5.486.001 10.908 0 16.355 0 .769-.124 2.177.202 2.524.332.354 1.721.252 2.625.252 4.963 0 9.519.166 14.285.051 1.754-.043 4.231.36 4.493-1.312-.472-1.666-2.909-1.162-4.745-1.161-1.982 0-4.045.084-5.906 0-4.726-.214-7.807-3.014-8.43-7.269-.309-2.104.249-4.288.908-5.503.971-1.788 2.987-3.311 5.149-3.786 1.971-.433 4.758-.252 7.017-.252h3.634c1.057 0 2.266.044 2.474-1.161-.488-1.557-2.844-1.136-4.391-1.111z" fill-rule="evenodd"/></svg>