<svg enable-background="new 0 0 35.018 29.44" viewBox="0 0 35.018 29.44" xmlns="http://www.w3.org/2000/svg"><path d="m12.253.042c2.227-.034 4.455-.023 6.682-.033 2.581-.135 5.161 1.273 6.505 3.47.957 1.5 1.326 3.338 1.11 5.096 2.8-.424 5.72.955 7.239 3.331 1.84 2.654 1.567 6.498-.497 8.956-2.729 2.901-5.511 5.761-8.373 8.53-2.526.088-5.056.023-7.583.037 2.355-2.336 4.673-4.714 7.006-7.076.794-.814 1.653-1.601 2.189-2.62 1.343-2.397 1.28-5.589-.306-7.855-1.539-2.34-4.451-3.629-7.218-3.241.289-2.504-.616-5.153-2.558-6.798-1.177-1.01-2.667-1.602-4.196-1.797z"/><path d="m8.759 4.051c2.089-1.874 5.889-1.082 6.885 1.601-1.311 1.368-2.674 2.684-3.975 4.062.678.727 1.395 1.415 2.103 2.113-.753.651-1.419 1.392-2.127 2.091-2.135-2.102-4.279-4.194-6.373-6.339 1.156-1.183 2.334-2.343 3.487-3.528z"/><path d="m0 12.86c1.065-1.041 2.104-2.108 3.168-3.151 1.028 1.089 2.13 2.102 3.194 3.153-2.121.012-4.242.017-6.362-.002z"/><path d="m17.12 12.601c2.074-1.872 5.904-1.181 6.963 1.493-1.33 1.349-2.661 2.699-3.967 4.074.668.725 1.373 1.421 2.058 2.132-.716.703-1.389 1.447-2.105 2.151-2.118-2.12-4.201-4.275-6.319-6.394 1.099-1.175 2.253-2.297 3.37-3.456z"/></svg>