<svg enable-background="new 0 0 78.499 78.637" viewBox="0 0 78.499 78.637" xmlns="http://www.w3.org/2000/svg"><g clip-rule="evenodd" fill-rule="evenodd"><path d="m72.654 42.289c3.301 3.77 6.177 9.277 5.287 16.777-.742 6.266-4.008 11.139-7.829 14.438-1.93 1.668-4.456 2.998-7.219 3.916-2.835.941-6.472 1.23-9.863.66-5.553-.934-9.358-3.504-12.507-6.965-.336-.369-1-1.363-1.373-1.373-.364-.01-1.196 1.062-1.524 1.424-3.26 3.588-7.226 6.225-13.117 7.219-3.539.598-7.255.072-10.117-.914-5.785-1.995-9.642-5.839-12.254-11.034-1.309-2.604-2.192-5.805-2.136-9.508.057-3.656 1.05-6.695 2.339-9.303 1.289-2.605 2.854-4.717 4.932-6.66.364-.641 1.456-.773 1.475-1.525.009-.381-.585-.689-1.067-1.119-4.144-3.689-7.178-8.523-7.524-15.963-.124-2.668.415-5.215 1.169-7.373 1.424-4.072 3.87-7.441 7.015-10.065 3.073-2.564 7.389-4.59 12.404-4.881 4.825-.281 8.416.934 11.338 2.49 2.228 1.188 4.07 2.654 5.847 4.525.412.434 1.227 1.664 1.729 1.678.729.019.956-1.106 1.525-1.475 3.976-3.848 8.651-7.016 16.015-7.016 3.829 0 6.661.981 9.304 2.236 2.586 1.23 4.712 3.037 6.508 4.982 3.41 3.695 6.39 9.883 5.236 17.285-.895 5.738-3.488 9.885-7.067 13.066-.332.297-1.4 1.074-1.423 1.424-.04.604 1.095 1.176 1.474 1.525.581.538.959 1.021 1.423 1.529zm-53.026-8.694c3.479.572 6.576-.236 8.795-1.728 2.913-1.959 5.291-4.951 5.593-9.152.305-4.236-1.332-7.115-3.355-9.303-.969-1.139-2.231-1.945-3.762-2.594-1.437-.607-3.28-1.195-5.288-1.068-1.354.086-2.511.348-3.609.764-3.111 1.178-5.329 3-6.762 5.896-.996 2.014-1.322 4.299-1.322 7.119 0 5.561-.2 10.875-.152 16.471.024 2.826 0 5.656 0 8.439 0 5.629-.742 11.42 1.83 14.947 1.602 2.68 4.349 4.729 8.084 5.391 4.331.766 7.778-1.109 10.016-3.203 2.327-2.152 4.165-5.168 3.864-9.66-.273-4.074-2.531-7.26-5.44-9.049-2.226-1.371-5.325-2.328-8.694-1.627-.963.199-1.828.711-2.847.711-.507-.863-.207-2.012-.203-3.102.01-2.293.051-4.545.051-6.762 0-1.193-.176-2.498.356-3.203.979.073 1.86.551 2.845.713zm40.214-.203c.67-.182 1.267-.361 1.881-.611 1.197-.488 2.101-1.174 3.051-1.982 1.8-1.533 3.196-3.535 3.863-6.203 1.356-5.416-1.32-10.021-4.423-12.303-.507-.373-.984-.807-1.475-1.068-1.492-.797-3.507-1.432-5.847-1.373-4.327.111-7.521 2.271-9.507 5.033-2.094 2.914-3.127 6.719-1.627 11.186.574 1.711 1.521 3.234 2.39 4.779 2.151 3.83 4.291 7.523 6.559 11.389.34.578 1.271 1.984 1.067 2.439-.118.268-.807.344-1.271.457-1.422.352-2.719.926-3.712 1.525-3.96 2.398-7.463 7.994-5.186 14.287 1.188 3.281 3.604 5.691 6.914 7.016 3.694 1.479 8.83.557 11.032-1.525 3.256-2.363 5.515-6.293 4.83-11.49-.321-2.439-1.322-4.082-2.39-5.998-.75-1.348-1.498-2.74-2.236-4.018-.275-.475-.418-.988-.661-1.473-.782-1.561-1.761-3.074-2.644-4.576-.441-.752-.896-1.52-1.322-2.289-.438-.789-.98-1.602-1.118-2.541.523-.51 1.256-.507 1.832-.661zm-21.759 2.694c-.716.789-1.431 1.512-2.186 2.186-.382.34-.873.631-1.068 1.119 1.157 1.229 2.191 2.133 3.305 3.406.288.33.845 1.076 1.22 1.068.396-.01.907-.76 1.17-1.068.873-1.027 1.297-1.465 2.287-2.287.255-.211 1.082-.783 1.068-1.221-.013-.391-.769-.805-1.119-1.119-.874-.783-1.44-1.412-2.186-2.287-.326-.383-.784-1.057-1.271-1.018-.415.312-.835.795-1.22 1.221z"/><path d="m21.61 16.156c2.96-.234 5.221 1.779 5.847 4.221.177.688.23 1.797 0 2.744-.831 3.43-4.869 5.439-8.083 3.713-1.185-.637-2.421-1.867-2.848-3.611-.366-1.496.029-3.371.712-4.473.671-1.082 2.242-2.424 4.372-2.594z"/><path d="m56.69 16.257c2.69-.246 4.846 1.517 5.644 3.406 1.554 3.68-1.259 7.103-4.067 7.678-3.253.666-6.525-1.641-6.812-4.932-.089-1.018.242-2.437.661-3.203.802-1.466 2.433-2.751 4.574-2.949z"/><path d="m56.385 51.236c3.403-.287 5.955 2.142 6.05 5.338.134 4.539-5.12 7.559-8.795 4.932-1.886-1.348-3.23-4.69-1.678-7.422.545-.961 1.619-2.002 2.593-2.441.508-.229 1.183-.352 1.83-.407z"/><path d="m20.95 51.439c1.632-.195 3.041.209 4.016.916 1.205.873 2.195 2.41 2.288 4.32.171 3.535-2.713 6.064-5.898 5.949-1.998-.072-3.603-1.246-4.475-2.695-.894-1.488-.914-4.07-.101-5.592.712-1.332 2.26-2.667 4.17-2.898z"/></g></svg>