<svg enable-background="new 0 0 73.464 77.802" viewBox="0 0 73.464 77.802" xmlns="http://www.w3.org/2000/svg"><path clip-rule="evenodd" d="m64.674 38.583c.263.455.826.511 1.23.689 3.008 1.323 5.14 3.75 6.348 6.988 1.39 3.724 1.034 9.053 1.034 14.073 0 5.402-.381 9.414-2.657 12.548-2.145 2.953-5.191 4.921-10.285 4.921-20.091-.001-40.278-.039-60.181-.148-.022-.044-.043-.088-.099-.098-.106-24.734-.048-49.83-.048-75.239 0-.733-.07-1.511.197-2.214 9.787.048 20.764-.254 30.361 0 2.416.064 4.876.043 7.332-.049 2.487-.093 5.037.049 7.529.049 4.97.001 9.912.049 14.713.049 5.119 0 8.225 1.839 10.481 4.675 1.138 1.43 2.014 3.112 2.411 5.167.411 2.122.394 4.448.394 7.184 0 4.974.323 10.302-1.132 13.926-.363.904-.793 1.703-1.329 2.46-1.081 1.53-2.191 2.772-3.887 3.69-.389.21-.817.441-1.23.64-.395.189-.947.216-1.182.689zm-29.377-37.545c-5.129 6.61-10.44 13.266-15.501 19.88-.321.419-.806.849-.836 1.427 1.175.177 2.577.098 3.937.098 1.391 0 2.797-.116 3.936.148.272 16.377-.089 32.678.197 49.256 5.597.166 11.644.151 17.223.049.318-1.396.082-2.896.148-4.379.064-1.461.062-2.949.049-4.379-.058-6.693 0-13.555 0-20.372 0-6.856-.176-13.682.099-20.175 2.419-.299 5.346.111 7.676-.197.033-.6-.621-.913-.836-1.427-1.111-1.283-2.076-2.713-3.199-3.986-1.667-2.411-3.852-4.657-5.511-7.037-1.7-2.439-3.598-4.747-5.511-7.086-.468-.572-1.181-1.753-1.722-1.919-.059.025-.112.053-.149.099z" fill-rule="evenodd"/></svg>