<svg enable-background="new 0 0 28.154 33.299" viewBox="0 0 28.154 33.299" xmlns="http://www.w3.org/2000/svg"><path d="m24.478.691c-1.258-.583-2.827-.808-4.37-.632v-.001c-.002.001-.005.001-.008.002-.939.107-1.87.365-2.715.783-.408.209-.829.396-1.35.532-.016.005-.032.009-.048.013-.034.008-.068.016-.102.023-.037.01-.075.018-.112.025-.028.006-.057.012-.086.018-.031.007-.061.013-.092.019-.434.08-.937.126-1.546.127-1.15.002-1.923-.159-2.565-.399-.364-.184-.802-.372-1.117-.501-.08-.035-.16-.066-.241-.098-.11-.044-.178-.07-.178-.07-.002 0-.003.001-.005.001-2.091-.757-4.527-.647-6.327.194-2.025.948-3.616.758-3.616.758l.001.577c1.014-.002 1.678-.161 1.678-.161l.002 1.573c.524-.001 2.323-.755 2.969-.985.646-.228 3.616-.74 5.277.148 1.662.889 2.902 1.009 2.902 1.009l-.002-1.538c.346.076.642.098.857.101.225.011.439.009.635-.001.217.003.553-.015.954-.103l.003 1.538s1.24-.125 2.899-1.02c1.658-.894 4.629-.392 5.276-.166.473.165 1.559.608 2.316.834.117.021.078-.04.041-.093-1.483-1.877-3.27-2.411-3.694-2.549s.624-.261 2.462.663c.658.33 1.296.52 1.845.627v-.018s.664.141 1.677.139v-.554s-1.59.125-3.62-.815"/><path d="m28.153 5.797s-1.677.003-3.706-.936c-2.027-.941-4.867-.907-7.102.198-.821.422-1.645.819-3.288.822-1.221.002-2.017-.18-2.683-.446-.202-.098-.419-.195-.622-.282-.011-.006-.022-.012-.034-.018-2.239-1.097-5.07-1.073-7.094-.127-2.025.947-3.617.757-3.617.757l.002.577c1.014-.002 1.678-.16 1.678-.16l.002 1.572c.524 0 2.323-.755 2.969-.982.646-.23 3.616-.74 5.277.148 1.662.888 2.902 1.008 2.902 1.008l-.002-1.523c1.248.251 2.489-.015 2.489-.015l.196.069.002 1.311s1.072-.078 2.73-.973c1.658-.894 4.324-.461 4.971-.234.646.226 3.556 1.261 4.08 1.261-.002-1.162-.051-1.434-.076-1.495.047.022.232.06.928.058z"/><path d="m24.494 9.183c-2.019-.961-4.859-.953-7.094.151-.82.422-1.694.755-3.336.758-1.227.002-2.025-.183-2.693-.449-.194-.094-.402-.188-.596-.273-.017-.008-.033-.016-.05-.023-2.238-1.098-5.069-1.075-7.094-.128s-3.616.758-3.616.758l.001.577c1.014-.002 1.678-.16 1.678-.16l.002 1.572c.524-.001 2.323-.755 2.969-.984.646-.228 3.616-.74 5.277.148 1.662.889 2.902 1.009 2.902 1.009l-.002-1.524c1.248.251 2.489-.014 2.489-.014l.127.046c.011 1.456.011 1.457.011 1.457s.918-.121 2.593-.984c2.346-1.208 4.796-.294 5.443-.067.647.226 1.757.782 2.28.781.677-.915.795-1.327.795-1.327s.678.176 1.533.065l-.002-.644s-1.188.411-3.617-.745"/><path d="m24.501 13.307c-2.029-.941-4.859-.953-7.094.151-.82.421-1.694.754-3.336.757-1.291.002-2.106-.201-2.796-.49-.129-.062-.262-.122-.392-.18-.05-.024-.101-.05-.151-.075-2.238-1.097-5.069-1.074-7.094-.128-2.025.948-3.616.759-3.616.759l.001.576c1.014-.002 1.678-.159 1.678-.159l.002 1.571c.524-.001 2.323-.755 2.969-.983s3.616-.74 5.277.147c1.662.89 2.902 1.009 2.902 1.009l-.002-1.517c1.248.251 2.489-.014 2.489-.014l.111.039c-.07 1.387-.065 1.451-.065 1.451s.652-.275 2.42-.926c1.316-.483 1.797-.562 2.445-.682.674-.124 1.543-.082 2.25-.31.268-.095 1.266-.68 1.266-.68.167-.177 2.026 1.451 4.355 1.003l-.001-.577c0 .002-1.589.197-3.618-.742"/><path d="m15.33 20.484h-.002z"/><path d="m24.509 17.675c-2.029-.94-4.859-.953-7.094.151-.82.421-1.694.754-3.336.757-1.214.003-2.008-.178-2.672-.44-.212-.104-.44-.206-.652-.297-.005-.002-.01-.005-.015-.007-2.238-1.098-5.069-1.075-7.094-.128s-3.616.758-3.616.758l.001.577c1.014-.003 1.678-.161 1.678-.161l.002 1.572c.524-.001 2.323-.755 2.969-.983.646-.229 3.616-.74 5.277.147 1.662.89 2.902 1.01 2.902 1.01l-.002-1.526c1.248.251 2.489-.014 2.489-.014l.018.006c.001 1.25-.026 1.376-.033 1.387.02-.006.953-.282 2.667-1.013 3.682-1.568 6.239.296 7.793.704-1.488-2.11-3.545-2.471-3.021-2.472.083-.106.9.254 1.73.616 1.505.656 1.951.626 1.951.626s.664.052 1.676.051v-.576s-1.59.194-3.618-.745"/><path d="m28.135 23.154v-.576s-1.591.194-3.619-.745c-2.028-.94-4.859-.952-7.093.152-.821.42-1.694.754-3.336.757-1.245.003-2.049-.188-2.723-.462-.175-.084-.359-.167-.535-.242-.027-.015-.054-.027-.081-.041-2.239-1.097-5.07-1.074-7.095-.127-2.026.946-3.616.757-3.616.757l.001.577c1.013-.003 1.677-.16 1.677-.16l.003 1.571c.524 0 2.323-.755 2.969-.982.646-.229 3.615-.74 5.277.148 1.662.889 2.902 1.009 2.902 1.009l-.002-1.521c1.116.224 2.224.036 2.446-.006l.003 1.522s1.328-.283 2.986-1.178c1.659-.894 4.542-.233 5.189-.007.646.226 3.259 1.004 3.783 1.003-.012-1.326-.062-1.414-.062-1.414s-.087-.033.926-.035"/><path d="m24.406 26.238c-1.206-.647-2.711-.917-4.208-.776 0-.005 0-.009 0-.013-.063.01-.124.021-.184.031-.89.103-1.773.35-2.584.751-.821.421-1.694.754-3.337.757-1.035.002-1.765-.129-2.369-.331-.055-.021-.106-.043-.149-.064-.65-.328-1.538-.669-1.538-.669-.011.001-.022.002-.033.003-2.095-.763-4.539-.655-6.344.188-2.025.947-3.615.758-3.615.758l.001.576c1.013-.002 1.677-.16 1.677-.16l.003 1.573c.524-.001 2.322-.756 2.969-.983.646-.228 3.615-.74 5.277.148 1.661.888 2.902 1.008 2.902 1.008l-.003-1.537c.33.072.614.096.826.101.903.051 1.648-.1 1.701-.11.002 1.389-.078 1.469-.078 1.469s1.123-.182 2.781-1.075c1.658-.895 4.748-.262 5.395-.035.647.226 1.844.926 2.369.926.637-.906.627-1.239.627-1.239.834.196.525.108 1.562.105l-.002-.64c0-.002-1.572.354-3.646-.762"/><path d="m24.394 30.375c-2.029-.94-4.623-1.113-6.858-.009-.82.422-1.792.883-3.435.886-1.035.002-1.765-.129-2.369-.33-.055-.023-.106-.043-.149-.066-.65-.327-1.538-.669-1.538-.669-.011.001-.022.003-.033.004-2.095-.763-4.539-.656-6.344.188-2.025.946-3.615.758-3.615.758l.001.577c1.013-.002 1.677-.161 1.677-.161l.003 1.573c.524-.001 2.322-.756 2.968-.984.647-.228 3.616-.74 5.278.148 1.661.888 2.902 1.009 2.902 1.009l-.003-1.538c.33.072.614.095.826.1.29.017.565.014.806-.002.146-.004.327-.017.532-.049.123-.016.219-.032.282-.043-.054 1.385-.063 1.424-.063 1.424s.874-.054 2.533-.946c1.658-.896 3.831-.352 4.96-.805.825-.312 1.355-.574 1.355-.574s2.262 1.088 4.041.799l-.001-.576c-.001-.001-1.728.226-3.756-.714"/></svg>