<svg enable-background="new 0 0 83.225 75.459" viewBox="0 0 83.225 75.459" xmlns="http://www.w3.org/2000/svg"><g clip-rule="evenodd" fill-rule="evenodd"><path d="m15.138.162c.331 19.754-.146 39.876.205 59.336.994.23 2.073.154 3.104.154 16.378 0 32.925.178 49.312.05.37-1.773.029-3.617.103-5.445.073-1.85.051-3.711.051-5.598-.001-11.168.084-23.05-.102-34.248-.707-.271-1.501-.153-2.239-.153-11.544-.001-23.389-.081-34.962-.203-.182-4.213-.16-9.426 0-13.841 4.37-.166 8.734-.104 13.079-.102 4.322 0 8.653-.101 13.027.051 8.793.305 17.636-.163 26.311.203.353 4.521-.014 9.182.152 13.74.056 1.528.069 3.107 0 4.631-.139 3.047.056 6.093-.051 9.16-.108 3.114-.001 6.275 0 9.415.002 12.627.083 25.358-.102 37.963-1.601.218-3.232.159-4.886.103-1.624-.057-3.318.032-4.987.051-10.226.108-20.887-.101-31.398-.102-13.994-.003-27.9-.095-41.577-.255-.268-1.475-.153-3.019-.153-4.529 0-22.302.048-45.104.051-68.242 0-.801-.09-1.846.204-2.188.038-.048.092-.077.153-.102h7.481c2.499-.002 5.012-.067 7.224.151z"/><path d="m30.762 29.576c5.469.018 10.914-.003 16.488 0 1.812 0 3.626-.122 5.343.152.228 4.689.211 9.809 0 14.504-3.498.347-7.224.023-10.94.152-1.849.063-3.724-.051-5.599-.051-1.854 0-3.742.124-5.496-.152-.131-3.967-.105-8.527-.051-12.723.009-.637-.08-1.458.102-1.781.037-.046.093-.076.153-.101z"/></g></svg>