<svg enable-background="new 0 0 160.367 212.766" viewBox="0 0 160.367 212.766" xmlns="http://www.w3.org/2000/svg"><path clip-rule="evenodd" d="m160.31.371c.121 36.654.023 71.414-.058 107.759-.852.237-1.775.115-2.643.115-28.874-.003-57.804-.08-86.437.058.447.577 1.366.764 2.068 1.034 11.071 4.258 19.606 11.374 25.805 20.632 3.248 4.851 5.773 10.699 7.357 17.413 1.562 6.625 1.87 15.095.401 22.414-1.323 6.6-3.811 12.688-7.069 17.701-8.105 12.479-19.707 21.496-37.298 24.655-1.781.32-3.746.432-5.689.518-1.962.087-3.949.164-5.919 0-15.347-1.277-26.033-6.723-34.425-15.115-8.211-8.211-14.657-18.585-16.149-33.391-.815-8.082.426-15.661 2.471-21.839 2.077-6.271 5.11-11.53 8.678-16.092 1.804-2.306 3.795-4.546 5.977-6.437 1.123-.974 2.254-1.893 3.333-2.874 1.093-.994 2.356-1.699 3.621-2.528 4.403-2.888 9.327-5.042 14.942-6.782.768-.238 1.625-.259 2.356-.689-.699-.506-1.583-.584-2.356-.805-5.674-1.619-10.581-4.022-15.058-6.896-2.534-1.627-4.71-3.638-6.954-5.632-2.204-1.959-4.166-4.24-5.976-6.553-3.619-4.621-6.485-10.133-8.621-16.493-2.133-6.354-3.146-14.14-2.298-22.185.769-7.302 2.957-13.774 5.804-19.311 2.738-5.322 6.571-10.465 10.805-14.31 2.197-1.995 4.42-3.982 6.954-5.633 6.813-4.436 15.081-8.175 25.575-8.907 5.222-.365 11.113-.116 16.724-.115 30.021.004 60.363.108 90.862.115 1.063.001 2.173-.13 3.217.173zm-109.252 2.183c-11.63.62-20.799 4.877-27.874 10.115-2.407 1.782-4.532 3.847-6.609 6.035-6.044 6.365-10.674 14.552-12.931 24.828-.772 3.513-1.267 7.578-1.092 11.552.687 15.628 6.786 27.19 15 35.402 4.202 4.2 8.947 7.856 14.77 10.402 5.042 2.204 10.766 4.127 17.414 4.655.913.072 1.929.211 2.874-.058.163-12.991.172-26.014.172-38.448 0-6.453 0-12.819 0-18.966 0-15.185.095-30.442-.115-45.402-.442-.184-1.135-.139-1.609-.115zm7.126 102.99c2.952-.181 5.717-.66 8.219-1.322 3.35-.887 6.553-2.005 9.367-3.333 11.458-5.408 19.889-14.027 25.172-25.633 2.619-5.751 4.584-12.866 4.426-20.861-.084-4.241-.42-7.977-1.207-11.495-.77-3.437-1.84-6.598-3.16-9.539-3.917-8.725-9.656-15.753-17.069-21.035-7.387-5.263-16.389-9.326-28.334-9.772-.068.028-.13.062-.172.115-.281.297-.172 2.093-.172 3.103 0 16.469-.058 32.709-.058 48.276v39.138c0 4.295-.174 8.371.115 12.299.944.264 1.942.115 2.873.059zm56.839-102.874c-14.515.002-28.671-.25-43.563-.058-.576.401.62.599.862.689 1.546.586 3.039 1.221 4.368 1.84 13.018 6.066 22.46 16.53 27.758 30.172 1.504 3.871 2.671 8.515 3.104 13.391.455 5.123.266 10.492-.632 15.345-1.722 9.307-5.457 16.702-10.115 22.988-6.206 7.986-14.45 14.21-24.712 18.047-.285.107-.749.131-.862.518 3.554.309 7.161.172 10.747.172 25.289.002 50.75.216 75.92-.058.309-1.003.172-2.092.172-3.104 0-31.943.059-62.677.058-93.391-.001-2.131.14-4.3-.173-6.436-14.253-.31-28.52-.116-42.932-.115zm-64.311 105.575c-3.986.323-7.49.835-10.747 1.724-6.388 1.743-12.19 4.725-16.897 8.161-2.351 1.717-4.425 3.85-6.551 5.977-2.001 2.001-3.932 4.417-5.575 6.954-3.313 5.115-5.871 10.735-7.356 17.701-.757 3.549-1.131 7.358-1.035 11.38.098 4.086.613 7.686 1.437 11.092 2.391 9.88 7.454 17.914 13.563 24.022 4.201 4.2 8.898 7.752 14.655 10.402 2.831 1.303 5.991 2.339 9.368 3.161 3.337.811 7.03 1.51 10.977 1.321.062-8.526.385-16.943.115-25.287-.134-4.124.246-8.259.057-12.413-.19-4.19.042-8.445-.057-12.701-.098-4.204.057-8.495.057-12.759.001-12.83.095-25.762-.115-38.62-.439-.323-1.372-.158-1.896-.115zm15.632 100.632c6.777-1.689 12.449-4.463 17.357-7.931 2.483-1.756 4.791-3.694 6.838-5.805 6.176-6.377 11.195-14.176 13.506-24.368 1.183-5.214 1.791-11.399.978-17.241-.396-2.836-.881-5.43-1.552-7.931-.662-2.468-1.557-4.76-2.529-6.955-3.795-8.563-9.628-15.606-17.011-20.861-3.587-2.554-7.708-4.887-12.472-6.494-2.242-.758-4.602-1.603-7.355-2.127-2.277-.433-6.415-1.091-8.736-.861-.306.424-.172.969-.172 1.435 0 1.637.064 3.232 0 4.828-.257 6.438.171 12.678 0 18.908-.115 4.195.143 8.415-.058 12.643-.2 4.235 0 8.565 0 12.873 0 17.078-.083 34.147.115 51.149 3.99.164 7.725-.423 11.091-1.262z" fill-rule="evenodd"/></svg>