<svg enable-background="new 0 0 79.382 44.533" viewBox="0 0 79.382 44.533" xmlns="http://www.w3.org/2000/svg"><path clip-rule="evenodd" d="m.183 44.252c-.333-3.616-.045-7.331-.147-11.022-.104-3.707.049-7.413.049-11.071 0-7.397-.158-14.757.099-22.045 20.999-.221 42.216-.05 63.183-.049 2.086 0 4.229-.212 6.003.146 3.293.667 5.676 2.503 7.43 4.823 1.74 2.302 3.068 5.49 2.411 9.546-.42 2.593-1.423 4.728-2.854 6.348-.298.338-1.459 1.3-1.378 1.771.061.354.387.652.689.984 1.84 2.023 3.175 4.588 3.346 8.267.195 4.198-1.816 7.321-3.888 9.35-1.141 1.117-2.562 1.96-4.133 2.51-.847.297-1.71.6-2.706.64-4.849.194-10.586-.01-15.943 0-17.134.03-34.448-.037-52.161-.198zm6.938-24.85c9.021-.001 18.473.113 27.261 0 1.453-.019 2.783.152 3.986-.099 2.5-.521 4.501-3.037 4.921-5.412.792-4.488-2.302-8.079-6.299-8.366-2.545-.183-5.205.001-7.873 0-5.229 0-10.653.001-15.796 0-1.884 0-3.779-.107-5.659-.049-.952.03-2.064-.134-2.559.296-.133.556.312.972.542 1.427 1.203 2.37 1.439 5.824.689 8.759-.286 1.119-.906 2.04-1.033 3.15.486.469 1.225.294 1.82.294zm42.713.05c.972-.001 1.965 0 2.953 0 3.969-.001 7.788-.126 11.564.049 2 .093 4.33.167 5.659-.442 1.329-.61 2.274-1.677 2.952-2.854 1.376-2.391 1.049-5.591-.295-7.578-.863-1.276-2.218-2.364-3.789-2.805-1.376-.386-3.303-.246-5.118-.246-4.558 0-8.881 0-13.434 0-.896 0-2.027-.179-2.707 0-.794.209-.235 1.037 0 1.525.731 1.521 1.132 3.244 1.132 5.265 0 2.246-.523 3.847-1.132 5.266-.24.56-.512.81-.492 1.574.818.431 1.814.246 2.707.246zm-42.713 19.584c8.442.001 16.622 0 24.949 0 2.867.001 6.037.389 7.873-.886 1.263-.877 2.18-2.187 2.707-3.739 1.299-3.836-1.148-7.326-3.642-8.562-1.526-.757-3.528-.585-5.708-.688-4.229-.202-8.653 0-12.942 0-4.348-.001-8.663-.063-12.793-.05-.546.002-2.035-.088-2.264.345-.198.374.176.991.394 1.477.24.533.449 1.072.59 1.525.914 2.92.419 6.61-.59 8.808-.192.418-.562.825-.541 1.476.532.47 1.315.294 1.967.294zm42.369.05c.916-.026 1.861.049 2.805.049 3.774-.001 7.573-.066 11.072-.049 1.908.009 3.988.283 5.56-.05 1.467-.311 2.771-1.469 3.544-2.559.86-1.213 1.533-2.921 1.329-5.02-.239-2.442-1.883-4.576-3.74-5.559-1.727-.915-4.709-.641-7.43-.641-3.338.001-6.847-.154-10.087 0-1.761.084-3.449-.245-5.068-.049-.282.034-.559.039-.64.345-.128.556.333.963.541 1.427.654 1.457 1.083 3.103 1.083 5.117 0 2.094-.45 3.778-1.033 5.167-.21.501-.545 1.015-.443 1.575.726.431 1.664.27 2.507.247z" fill-rule="evenodd"/></svg>