<svg enable-background="new 0 0 33.913 34.31" viewBox="0 0 33.913 34.31" xmlns="http://www.w3.org/2000/svg"><path d="m16.106.025c5.982-.341 12.08 2.772 15.138 7.954 3.505 5.316 3.553 12.65.178 18.035-2.899 5.289-9.01 8.482-14.981 8.288-3.958-.066-7.801-1.698-10.777-4.264-3.493-3.167-5.659-7.803-5.657-12.536-.13-4.712 1.84-9.416 5.218-12.693 2.891-2.838 6.831-4.582 10.881-4.784zm-9.681 12.881c-1.39 3.369-1.049 7.426.98 10.47.099.177.328.383.17.594-.824 1.428-1.679 2.838-2.477 4.28 1.822-.493 3.625-1.055 5.44-1.575 3.294 2.31 7.846 2.642 11.42.779 4.15-2.007 6.729-6.715 6.293-11.289-.322-5.655-5.498-10.498-11.166-10.443-4.616-.136-8.975 2.929-10.66 7.184z"/><path d="m11.068 10.565c1.789-.07 3.581-.038 5.373-.045 2.007.018 4.356-.147 5.938 1.326 1.44 1.516.736 4.071-.942 5.106 2.703.787 2.896 4.863.743 6.359-1.2.832-2.701.99-4.121 1.04-2.326.004-4.652.027-6.977.001-.038-4.596.014-9.191-.014-13.787zm4.563 3.176c-.059.75-.072 1.502-.05 2.255.893-.059 1.837.155 2.692-.172.822-.276.946-1.708.058-1.969-.881-.218-1.801-.075-2.7-.114zm-.044 4.845c-.024.828-.022 1.656-.011 2.485 1.009-.055 2.046.116 3.036-.132.89-.194 1.082-1.542.385-2.054-1.05-.528-2.282-.231-3.41-.299z"/></svg>