<svg enable-background="new 0 0 51.466 77.269" viewBox="0 0 51.466 77.269" xmlns="http://www.w3.org/2000/svg"><path clip-rule="evenodd" d="m.12 77.141c-.185-12.998-.101-26.201-.101-39.172 0-3.3-.066-6.559.05-9.793.114-3.147-.124-6.296-.05-9.389.075-3.117.036-6.253.05-9.389.011-2.411.074-4.851 0-7.219-.021-.688-.174-1.485.202-2.12 7.74-.088 16.471-.051 24.23-.051 4.135.001 8.344-.099 11.358.808 6.158 1.853 10.643 5.488 13.326 10.954 1.37 2.792 2.342 5.936 2.171 9.995-.151 3.583-1.28 6.965-2.625 9.541-1.001 1.918-2.325 3.637-3.887 5.199-.486.486-1.244 1.146-1.262 1.767-.021.696.783 1.389 1.262 1.868 1.497 1.497 2.934 3.405 3.938 5.301 1.406 2.654 2.561 5.706 2.675 9.692.115 3.978-.876 7.257-2.17 10.096-1.302 2.856-3.05 5.026-5.351 6.966-3.416 2.708-7.512 4.861-13.478 5.048-1.888.06-3.897 0-6.058 0-7.768 0-16.536.085-24.28-.102zm25.643-68.046c-3.3 1.418-5.817 3.866-7.219 6.916-1.059 2.304-1.291 5.448-.656 8.077.58 2.398 1.957 4.503 3.433 6.007 2.64 2.689 7.258 4.749 11.863 3.584 4.136-1.046 7.075-3.691 8.784-7.37.894-1.924 1.274-4.413.959-6.916-.263-2.083-1.264-4.355-2.322-5.754-2.188-2.894-5.725-5.654-10.853-5.351-1.392.081-2.825.307-3.989.807zm-4.593 38.011c-1.9 2.075-3.868 5.126-3.584 9.238.268 3.888 1.907 6.55 4.089 8.733 2.068 2.068 5.19 3.784 9.188 3.635 3.732-.14 6.601-1.858 8.682-4.089 2.003-2.147 3.667-5.261 3.483-9.238-.189-4.093-1.825-6.671-3.988-8.834-1.953-1.953-5.246-3.926-9.188-3.634-3.764.278-6.789 2.12-8.682 4.189z" fill-rule="evenodd"/></svg>