<svg enable-background="new 0 0 77.034 69.709" viewBox="0 0 77.034 69.709" xmlns="http://www.w3.org/2000/svg"><g clip-rule="evenodd" fill-rule="evenodd"><path d="m11.009.109c.022.045.045.09.102.101.172 19.316-.1 39.361.15 58.034 1.078.274 2.224.151 3.325.151 17.176.002 33.853.115 50.932-.05.338-.567.201-1.29.201-1.915 0-10.171.076-21.382-.101-30.981-.702-.268-1.481-.151-2.217-.151-11.173.003-22.536.113-33.904-.05-.263-.77-.15-1.685-.15-2.569 0-2.563-.082-5.514.101-7.96 15.422-.132 31.751-.188 47.404 0 .407 9.283-.131 18.403.151 27.405.069 2.212 0 4.478 0 6.75v17.381c0 1.101.121 2.239-.151 3.325-9.693.191-19.339.099-28.967.1-15.73.003-31.729.108-47.707-.1-.274-1.381-.15-2.817-.15-4.232 0-21.074 0-41.982 0-63.173 0-.742-.097-1.886.15-2.065.037-.048.092-.077.152-.102 3.61.051 7.335-.102 10.679.101z"/><path d="m25.317 14.769c.333 9.684-.08 19.505.252 28.916.981.275 2.027.151 3.072.151 7.355.001 15.172.069 22.418-.101.262-.423.151-1.163.151-1.814 0-.682.062-1.377-.101-1.863-3.486-.263-7.173-.119-10.831-.101-3.676.019-7.338.017-10.831-.151-.178-3.343-.147-7.236 0-10.479 10.678-.195 21.78-.113 32.19-.051.27.982.151 2.046.151 3.073.001 7.354.085 14.837-.101 22.015-3.705.312-7.528.103-11.386.101-11.539-.003-23.614.203-35.062-.101-.27-.711-.128-1.508-.151-2.267-.182-5.727 0-11.618 0-17.481 0-5.7 0-11.627 0-17.531 0-.802-.097-2.122.151-2.367.036-.047.091-.076.15-.101 3.274.089 6.904-.183 9.928.152z"/></g></svg>