<svg enable-background="new 0 0 77.016 77.977" viewBox="0 0 77.016 77.977" xmlns="http://www.w3.org/2000/svg"><path clip-rule="evenodd" d="m65.354 10.689c5.705 5.738 9.956 12.87 11.316 22.633.738 5.296.24 10.635-.963 15.218-3.185 12.136-10.793 20.49-20.996 25.62-.941.473-1.961.787-2.986 1.253-1.955.887-4.295 1.504-6.597 1.878-1.225.199-2.438.407-3.709.53-6.87.662-13.112-.856-18.059-2.841-1.913-.769-3.835-1.777-5.586-2.89-8.6-5.462-14.571-13.692-17.047-25.332-.979-4.6-.975-10.405.048-15.362 1.488-7.209 4.303-12.61 8.091-17.337 3.034-3.787 6.988-7.244 11.606-9.583 2.768-1.402 5.903-2.655 9.246-3.467 4.819-1.171 11.42-1.395 16.566-.289 1.379.296 2.659.599 3.9.963 1.23.361 2.321.875 3.468 1.349 4.573 1.89 8.438 4.523 11.702 7.657zm-12.281-3.949c-.598-.275-1.154-.632-1.781-.867-3.817-1.426-8.195-2.509-13.388-2.408-1.281.025-2.61.193-3.805.337-1.149.139-2.218.396-3.323.626-6.456 1.346-11.561 4.334-15.747 8.09-.675.605-1.34 1.267-1.926 2.023-.568.732-1.269 1.385-1.83 2.119-2.345 3.064-4.238 6.305-5.683 10.209-.554 1.495-.894 3.031-1.253 4.671-.106.486-.391 1.07-.144 1.589.438-.335.594-.899.818-1.349.789-1.574 1.662-2.866 2.841-4.045 2.634-2.634 7.04-5.091 12.425-4.382 2.259.297 4.146 1.171 5.778 2.119 2.934 1.703 4.917 4.347 6.31 7.512.177.403.247.961.674 1.204.186-7.683.145-15.653.145-23.597 0-1.102-.117-2.223.145-3.274.718-.21 1.488-.108 2.264-.144.809-.038 1.673-.023 2.504 0 5.595.156 11.64-.311 16.614.53-.289-.638-1.065-.7-1.638-.963zm-9.824 29.905c3.166 0 6.778.388 8.958-.723 3.002-1.53 4.804-3.708 6.02-6.935 1.276-3.387 1.269-7.574.048-10.932-1.086-2.986-3.322-5.581-6.067-6.886-1.65-.784-3.934-.771-6.357-.674-2.054.082-3.97-.214-5.586.145-.133 6.194-.194 12.671-.241 18.877-.009 1.19.145 2.374.097 3.564-.046 1.141-.069 2.283.097 3.371.957.328 2.013.193 3.031.193zm22.875 23.694c4.054-5.212 6.99-12.09 7.319-20.9.202-5.382-1.029-10.172-2.648-14.207-1.652-4.116-3.875-7.659-6.598-10.402-.031 0-.063 0-.096 0-.011-.058-.054-.029-.097 0v.097c.164.535.427 1.009.626 1.493.616 1.498 1.16 3.101 1.301 5.057.166 2.325-.168 4.464-.77 6.309-1.595 4.879-4.919 8.212-9.487 9.968-.385.148-.939.149-1.204.578.467.324 1.033.422 1.541.578 3.809 1.169 6.566 3.38 8.524 6.404 2.215 3.421 3.188 8.878 1.541 13.821-.234.703-.692 1.219-.867 2.071.444-.086.665-.546.915-.867zm-23.26 5.73h5.683c.996 0 2.012.12 2.841 0 .583-.084 1.514-.528 2.119-.818 1.884-.904 3.356-2.558 4.382-4.142 1.548-2.39 2.538-5.419 2.312-9.054-.093-1.498-.45-3.191-.963-4.527-1.268-3.301-3.925-6.364-7.416-7.224-1.384-.34-3.603-.192-5.49-.192-.943 0-1.904 0-2.841 0-.894 0-2.301-.152-2.985.048-.598.174-.386 1.984-.386 2.938 0 6.566-.049 13.068-.048 19.648 0 1.083-.11 2.287.145 3.178.81.259 1.73.145 2.647.145zm-9.824-23.26c-.048 0-.058-.039-.097-.048-.069.026-.117.075-.145.144-1.081 3.092-2.779 5.567-5.056 7.464-2.95 2.727-9.296 4.556-14.447 2.601-2.173-.824-4.101-2.174-5.635-3.708-.76-.76-1.493-1.688-2.07-2.601-.617-.975-.955-2.117-1.638-3.082.103 3.332.985 6.398 2.07 9.102 1.061 2.642 2.452 5.136 3.998 7.271 1.571 2.173 3.262 4.296 5.297 5.972 6.057 4.986 14.206 9.051 25.379 8.331 3.497-.225 6.508-.985 9.294-1.974 2.059-.731 4.078-1.682 5.73-2.745.565-.363 1.277-.609 1.638-1.204-.845.026-1.588.493-2.456.674-2.694.562-6.032.241-9.198.241-3.175 0-6.449-.048-9.486-.048-1.043 0-2.081.115-3.034-.145-.205-8.112.131-17.654-.144-26.245z" fill-rule="evenodd"/></svg>