<svg enable-background="new 0 0 26.394 30.493" viewBox="0 0 26.394 30.493" xmlns="http://www.w3.org/2000/svg"><path d="m.066.133c4.251.022 8.501-.024 12.751-.093 3.061-.132 6.316-.013 9.019 1.603 2.081 1.287 3.424 3.779 3.146 6.238-.289 3.326-3.18 6.034-6.419 6.514 2.239.313 4.533 1.151 6.087 2.858 1.422 1.527 1.906 3.725 1.698 5.758-.146 2.142-1.469 4.052-3.13 5.335-3.493 2.523-8.038 2.12-12.109 2.128-3.7-.041-7.406-.037-11.108-.033-.003-.407 0-.815.006-1.221 1.223.061 2.58-.144 3.485-1.043.884-.917 1.111-2.241 1.236-3.46.157-2.619-.427-5.229-.194-7.847.065-1.303 1.387-1.997 2.56-2.019-.001-.242-.002-.484-.001-.725-.701-.078-1.47-.165-2.02-.653-.759-.716-.647-1.859-.581-2.805.044-2.407.561-4.875-.07-7.242-.603-1.738-2.761-2.075-4.364-2.032.003-.42-.01-.841.008-1.261zm10.553 1.255c.022 4.14-.03 8.282-.005 12.418 1.663-.03 3.393.192 4.98-.43 1.725-.567 2.723-2.31 2.93-4.035.261-2.26.173-4.77-1.156-6.707-1.735-1.818-4.495-1.343-6.749-1.246zm-.022 13.671c-.037 4.708-.011 9.417-.028 14.126 1.584.073 3.185.105 4.769.001 1.946-.202 3.317-1.897 3.837-3.673.585-2.106.551-4.368.013-6.48-.311-1.261-1.011-2.474-2.116-3.194-1.953-1.181-4.315-.682-6.475-.78z"/></svg>