<svg enable-background="new 0 0 51.28 79.328" viewBox="0 0 51.28 79.328" xmlns="http://www.w3.org/2000/svg"><g clip-rule="evenodd" fill-rule="evenodd"><path d="m7.5.121c.185 6.467.101 13.006.101 19.536v53.458c0 1.583.123 3.187-.151 4.745-1.103.182-2.42.101-3.735.101-1.266 0-2.604.117-3.635-.151-.146-24.4-.046-49.671-.05-75.417 0-.764-.122-1.583.151-2.322 2.308-.053 5.095-.151 7.319.05z"/><path d="m30.216 37.374c3.02-.128 6.341.781 8.632 1.817 2.579 1.167 4.471 2.537 6.209 4.24 3.465 3.396 5.949 8.181 6.209 14.69.131 3.258-.69 6.338-1.767 8.683-1.138 2.476-2.502 4.47-4.24 6.209-3.479 3.48-8.256 6.178-14.589 6.31-6.561.137-11.698-2.612-14.992-5.906-1.781-1.781-3.237-3.729-4.342-6.108-.272-.587-.463-1.269-.706-1.918-1.131-3.014-1.41-7.807-.556-11.509.157-.683.401-1.351.606-2.019.208-.679.366-1.357.605-1.969 1.008-2.577 2.426-4.496 4.189-6.259 2.59-2.589 5.764-4.662 10.046-5.654 1.459-.338 3.108-.54 4.696-.607zm-.757 1.313c-.327.38-.202.994-.202 1.565 0 1.735-.107 3.78.151 5.199.397.163 1.265.146 1.666 0 .265-1.929.223-4.776 0-6.713-.4-.145-1.148-.132-1.615-.051zm-7.269 4.341c-.451-.682-.691-1.44-1.262-1.615-1.304.198-.093 1.681.354 2.373.453.704.822 1.342 1.312 1.615 1.3-.377.052-1.685-.404-2.373zm17.113.758c.31-.517 1.083-1.211 1.009-1.868-.024-.223-.299-.59-.656-.556-.514.05-.979 1.285-1.262 1.716-.405.619-.839 1.135-1.01 1.716.6 1.496 1.638-.542 1.919-1.008zm-25.543 4.997c.019.565.919.979 1.464 1.312.323.198 2.474 1.674 2.322.303-.046-.411-1.103-.874-1.565-1.161-.632-.393-1.346-1.125-1.868-.959-.117.037-.364.186-.353.505zm30.692.505c-.373.229-1.424.732-1.413 1.212.018.86 1.022.331 1.413.101.64-.377 2.431-1.184 2.372-1.918-.029-.376-.336-.456-.655-.404-.55.089-1.13.647-1.717 1.009zm-20.798 2.423c-1.421 1.421-2.635 3.211-2.826 5.704-.216 2.803.743 5.1 1.969 6.714 1.221 1.61 2.954 3.112 5.098 3.634 2.5.609 5.271.117 7.219-1.01 1.803-1.042 3.33-2.618 4.14-4.593 1.193-2.913.808-6.34-.656-8.683-1.648-2.637-4.768-4.945-9.137-4.543-2.463.227-4.517 1.487-5.807 2.777zm-8.076 5.754c-1.397.066-2.875-.024-4.089.152-.248.375-.21 1.39.05 1.716 1.958.167 4.604.167 6.562 0 .24-.313.199-1.28.051-1.666-.708-.264-1.673-.244-2.574-.202zm26.905.152c-.155.359-.169 1.309 0 1.666 1.972.168 4.641.167 6.613 0 .238-.322.221-1.34 0-1.666-1.96-.278-4.623-.171-6.613 0zm-27.361 9.087c-.24.168-1.451.817-1.464 1.211-.007.23.293.584.606.606.338.023.636-.295.959-.505.341-.221.624-.353.908-.555.354-.251 1.565-.918 1.565-1.363-.001-.448-.504-.579-.858-.505-.585.121-1.225.767-1.716 1.111zm27.765-.556c.021.263.478.521.757.707.628.419 1.164.756 1.767 1.161.294.198.648.547 1.06.455.223-.05.487-.424.455-.656-.043-.304-1.191-.949-1.564-1.212-.651-.456-1.365-1.19-2.02-1.009-.161.043-.482.222-.455.554zm-3.483 6.512c-.279-.573-.646-1.561-1.212-1.564-1.271-.01.136 2.061.303 2.372.37.689.485 1.378 1.212 1.565 1.133-.382.123-1.495-.303-2.373zm-17.163-1.515c-.841.943-1.39 2.178-1.918 3.433.745 1.233 1.487-.355 1.867-1.111.368-.732.66-1.354.808-1.918-.141-.246-.318-.456-.757-.404zm7.168.556c-.209.646-.151 2.452-.151 3.332 0 1.239-.116 2.443.202 3.231.428.068 1.264.125 1.615-.051.28-1.64.04-3.636.101-5.452.014-.411.137-.863-.151-1.161-.392-.113-.989-.02-1.464-.05-.074.028-.124.078-.152.151z"/></g></svg>