<svg enable-background="new 0 0 66.922 75.972" viewBox="0 0 66.922 75.972" xmlns="http://www.w3.org/2000/svg"><path clip-rule="evenodd" d="m66.801 62.956c-.603.354-1.309.523-1.988.709-4.18 1.15-8.444 2.162-12.685 3.408-.648.191-1.581.59-2.083.568-.583-.025-1.334-.857-1.846-1.23-1.262-.918-2.292-1.715-3.503-2.604-.6-.441-1.104-.945-1.657-1.373-2.373-1.838-4.697-3.445-7.005-5.207-.691-.461-1.186-1.117-2.083-1.371-.254.58-.142 1.258-.142 1.893 0 4.609.073 9.523-.095 13.963-1.33.473-2.745.791-4.165 1.137-3.522.857-7.035 1.773-10.603 2.65-.729.18-1.492.43-2.177.473-.523.033-1.704-1.127-2.225-1.514-2.854-2.119-5.559-4.146-8.378-6.201-.357-.26-.753-.484-1.088-.758-.963-.779-1.984-1.643-3.029-2.414-.691-.508-1.47-.947-1.988-1.656.03-16.727-.185-33.496.047-50.6 1.259-.574 2.687-.787 4.071-1.182 3.357-.961 6.848-1.803 10.271-2.746.652-.18 1.699-.539 2.177-.473.641.088 1.536 1.022 2.13 1.467 4.105 3.078 8.148 6.07 12.259 9.135.658.49 1.272 1.135 2.083 1.373.255-.582.142-1.256.142-1.892 0-4.606-.04-9.576.047-14.154.57-.354 1.245-.49 1.894-.662 3.979-1.053 8.123-2.154 12.212-3.123.709-.168 1.504-.498 2.177-.568.413-.043.837.434 1.231.711 5.074 3.563 9.966 7.467 15.004 11.264.413.312.896.574.994.851.24.684.048 2.139.048 3.125 0 15.698.068 32.022-.047 47.001zm-2.082-51.119c-4.341-3.328-8.673-6.611-13.111-9.892-.575-.426-1.464-1.373-2.178-1.373-.483 0-1.312.314-1.94.473-3.833.965-7.613 2.002-11.312 2.982-.603.16-1.323.156-1.799.615.492.672 1.246 1.08 1.894 1.562.661.492 1.282 1.018 1.94 1.514 3.314 2.498 6.547 4.961 9.893 7.478.54.406 1.485 1.375 2.083 1.42.483.039 1.291-.314 1.94-.473 4.009-.977 7.847-1.889 11.691-2.887.612-.16 1.354-.174 1.846-.615-.164-.425-.624-.556-.947-.804zm-30.909-6.438c-.11 5.096-.016 10.396-.047 15.572 1.159 1.172 2.569 2.033 3.881 3.029 1.311.994 2.603 2.049 3.929 3.029 1.982 1.467 3.867 3.105 5.822 4.543.667.49 1.345 1.059 2.13 1.373.253-.873.142-1.846.142-2.793 0-4.375-.035-8.59-.047-13.016-.491-.654-1.238-1.033-1.893-1.516-1.331-.979-2.612-2.012-3.929-2.981-.65-.481-1.244-1.061-1.894-1.562-1.88-1.455-3.941-2.941-5.916-4.402-.635-.469-1.505-1.258-2.083-1.42-.059.021-.097.062-.095.144zm-3.076 14.057c-3.915-3.004-8.355-6.076-12.354-9.182-.501-.389-1.257-1.217-1.846-1.279-.77-.078-1.44.336-2.177.521-3.224.812-6.352 1.633-9.467 2.461-1.245.332-2.514.615-3.692 1.09.114.408.549.623.852.852 2.312 1.744 4.498 3.588 6.863 5.254 2.284 1.691 4.609 3.467 6.958 5.16.348.25.754.627 1.089.662.496.049 1.369-.269 1.988-.426 4.627-1.178 9.227-2.236 13.632-3.455-.346-.822-1.25-1.086-1.846-1.658zm34.837-6.106c-2.456.785-5.101 1.256-7.668 1.893-2.588.645-5.169 1.262-7.621 1.988-.294 5.435.049 11.209-.189 16.662-2.68.863-5.53 1.449-8.331 2.178-2.108.547-4.213 1.074-6.295 1.609-.669.172-1.373.484-2.083.377-.261-1.242-.116-2.57-.095-3.928.053-3.289-.047-6.988-.047-10.414 0-.664.107-1.371-.142-1.986-1.382.096-2.733.523-4.071.852-2.747.674-5.437 1.365-8.094 2.035-1.343.338-2.732.52-3.976 1.088-.135 6.197 0 12.381 0 18.555-.001 6.293 0 12.322 0 18.602v9.373c0 1.016-.107 2.045.142 3.029 1.401-.045 2.726-.525 4.07-.852 1.343-.328 2.692-.645 4.024-.994 2.671-.701 5.378-1.303 7.999-2.084.188-2.523.094-5.307.094-8.094 0-2.789-.039-5.625.047-8.283 1.267-.617 2.701-.84 4.071-1.23 3.471-.992 7.031-1.94 10.46-2.84.702-.184 1.427-.484 2.178-.426.255 1.293.142 2.697.142 4.07v8.236c0 1.397-.116 2.813.142 4.117.692.09 1.351-.242 1.988-.426 3.368-.969 6.675-1.797 10.035-2.697 1.325-.355 2.687-.645 3.929-1.184.145-15.92.047-31.746.047-47.9 0-.447.127-.988-.189-1.373-.204-.021-.464.014-.567.047zm-64.989.522c-.14 1.834-.016 3.98-.047 6.012-.214 14 .129 29.455.047 43.309 1.114 1.195 2.605 1.957 3.834 3.029 1.241 1.082 2.566 2.039 3.881 3.029 2.291 1.725 4.682 3.447 6.958 5.111.316.232.639.633 1.089.568.255-.951.142-1.953.142-2.936.001-15.387-.064-31.309-.094-46.48-1.135-1.141-2.52-2.021-3.834-2.98-2.672-1.953-5.2-3.787-7.857-5.871-1.109-.869-2.717-2.316-3.976-2.934-.068.028-.116.075-.143.143zm33.228 8.33c-.086 1.172-.047 2.531-.047 3.834v7.668c0 1.277-.115 2.568.142 3.738 1.277-.137 2.52-.523 3.787-.852 3.19-.826 6.389-1.67 9.514-2.414.599-.143 1.296-.225 1.799-.615-.462-.637-1.181-1.049-1.799-1.514-1.916-1.441-3.664-2.92-5.585-4.355-1.809-1.35-3.788-2.838-5.68-4.26-.588-.441-1.472-1.324-2.035-1.373-.06.02-.098.061-.096.143zm13.49 29.346c-3.673 1.02-7.501 2.041-11.123 3.029-.569.156-1.257.236-1.704.664.462.643 1.189 1.008 1.799 1.467 1.906 1.434 3.785 2.838 5.68 4.26 1.253.939 2.435 1.971 3.692 2.936.942.721 1.957 1.391 2.887 2.082.312.23.589.633 1.042.615.165-2.381.142-5.012.142-7.668 0-2.66.011-5.392-.142-7.81-.784-.019-1.49.208-2.273.425z" fill-rule="evenodd"/></svg>