<svg enable-background="new 0 0 76.881 78.903" viewBox="0 0 76.881 78.903" xmlns="http://www.w3.org/2000/svg"><g clip-rule="evenodd" fill-rule="evenodd"><path d="m76.703.373c.272.757.151 1.583.151 2.369-.001 15.598-.203 31.863-.202 47.07.001 9.541.029 19.856-.202 28.978-6.378.223-12.777.05-19.201.05-17.609 0-34.851-.202-52.614-.202-1.53 0-3.058.08-4.536-.151-.02-.045-.042-.09-.099-.101.007-22.924.2-45.532.202-68.892 0-2.471.028-5.037.101-7.207.025-.745-.179-1.576.201-2.267 9.047-.065 19.33.05 29.028.05 15.453 0 31.418.305 47.171.303zm-10.231 9.172c-4.242 0-8.554-.051-12.75-.051-4.847 0-9.718-.178-14.564-.151-9.499.053-19.07-.193-28.424-.101-.486.005-1.351-.005-1.764.202-.131 19.798-.279 40.286-.201 60.072-.001.051.04.06.05.101 18.268.351 37.192.023 55.537.302 1.182.018 2.412.105 3.578-.151.295-10.032.148-20.167.202-30.187.039-7.403.1-14.884.101-22.527 0-2.486.111-4.937-.101-7.357-.517-.266-1.121-.152-1.664-.152z"/><path d="m17.084 16.6c.849.083 1.581.551 2.419.806.796.244 1.649.481 2.519.655 5.725 1.149 12.226.041 16.228-2.116.772.037 1.744.552 2.47.856 2.231.937 4.821 1.719 7.862 1.915 3.248.21 6.17-.391 8.668-1.159.653-.201 1.9-.924 2.419-.806.358.081.691 1.021.857 1.461 1.445 3.833 2.553 8.467 2.318 13.809-.272 6.198-1.767 10.532-3.83 14.665-2.98 5.973-7.826 10.661-13.708 14.061-.943.545-2.052 1.03-3.175 1.461-1.133.436-2.311.927-3.427 1.159-.031.006-.069 0-.1 0-1.083.027-2.519-.709-3.578-1.108-3.315-1.25-6.314-3.14-8.819-5.191-3.503-2.868-6.105-6.146-8.315-10.331-2.079-3.937-3.728-8.884-3.981-14.666-.203-4.622.607-8.787 1.713-12.296.354-1.126.756-2.267 1.46-3.175zm11.087 32.757c2.201 0 4.459.218 6.199-.05 1.055-.162 2.168-.824 2.873-1.411.798-.665 1.618-1.706 2.016-2.721.965-2.464.411-4.992-.604-6.703-.179-.301-.504-.692-.504-.958 0-.346.394-.748.604-1.109 1.109-1.893 1.334-5.041.202-7.106-.95-1.731-2.949-3.436-5.443-3.628-1.67-.128-3.519-.05-5.442-.05-1.978 0-4.409-.076-6.098.101.135 1.208 1.783 1.543 2.117 2.721.163.574 0 1.41 0 2.167 0 5.372-.002 11.103-.05 16.127-.556.966-1.617 1.453-2.016 2.519 2.009.185 4.099.101 6.146.101zm26.105-10.079c2.141-1.063 4.032-3.408 4.032-6.4 0-3.259-2.024-5.76-4.636-6.753-.449-.17-1.177-.318-1.713-.353-1.642-.108-3.407-.05-5.141-.05-1.715 0-3.459-.077-5.14-.051-.276.004-.848.009-1.059.202.338 1.029 1.942 1.515 2.167 2.671.132.679 0 1.542 0 2.318 0 2.219-.05 4.564-.05 6.854 0 3.234.028 6.374-.05 9.172-.25.455-.632.834-1.008 1.209-.354.354-.885.674-.907 1.209 1.953.255 4.523.151 6.652.151.726 0 1.472.179 2.066-.101-.248-1.131-1.83-1.403-2.066-2.671-.194-1.037 0-2.292 0-3.427 0-1.138-.121-2.322.151-3.326 2.668-.207 4.897.244 6.702-.654z"/><path d="m28.927 35.045c-.165-.687-.11-1.645-.101-2.52.009-.861-.09-1.825.302-2.318 1.034.014 3.623-.203 4.536.202.586.259 1.185.963 1.361 1.461.621 1.768-.759 3.284-2.469 3.326-1.11.028-2.513.073-3.629-.151z"/><path d="m47.523 35.096c-.252-.491-.151-1.413-.151-2.369 0-.794-.118-2.023.201-2.318.037-.047.092-.077.151-.101 1.572.057 3.43-.17 4.636.252 1.79.865 1.67 3.709-.05 4.485-1.226.554-3.202.083-4.787.051z"/><path d="m28.927 44.721c-.168-1.353-.165-3.384 0-4.737.792-.14 2.324-.172 3.478-.151 1.293.024 2.298.704 2.621 1.663.514 1.532-.5 3.148-1.965 3.326-1.178.142-2.83-.025-4.134-.101z"/></g></svg>