<svg clip-rule="evenodd" fill-rule="evenodd" stroke-linejoin="round" stroke-miterlimit="2" viewBox="0 0 560 400" xmlns="http://www.w3.org/2000/svg"><g fill-rule="nonzero" transform="matrix(.297947 0 0 .297947 30.0596 161.407)"><path d="m428 61.948v39.422h-115.5l-112.6 56.32h228.1v39.42h-228.1l149.2 61.95h-101.4l-132.4-61.95h-115.5v-39.42h115.5l112.6-56.32h-228.1v-39.42l228.1-.001-149.2-61.95h101.4l132.4 61.95z" fill="#ef3c24"/><path d="m515.7 27.58h70.88c20.82 0 35.85 2.987 45.08 8.962 12.13 7.787 18.2 20.46 18.2 38.02 0 17.2-6.79 28.79-20.37 34.76 17.92 6.157 26.89 20.19 26.89 42.1 0 17.56-5.886 31.06-17.65 40.47-6.34 5.07-13.58 8.33-21.73 9.777-5.071.908-13.22 1.357-24.44 1.357h-76.86zm35.85 29.06v41.28h33.68c19.19 0 28.79-6.879 28.79-20.64 0-10.32-4.528-16.74-13.58-19.28-3.259-.904-8.512-1.358-15.75-1.358h-33.13zm0 69.52v46.71h37.21c10.86 0 18.88-1.854 24.04-5.566 5.16-3.709 7.74-9.549 7.74-17.52 0-8.508-3.353-14.94-10.05-19.28-4.528-2.895-12.49-4.346-23.9-4.346h-35.03z"/><path d="m677.1 67.23h33.13v16.84c4.163-7.062 8.869-11.9 14.12-14.53 5.249-2.623 12.67-3.938 22.27-3.938 2.533 0 5.338.093 8.419.271v32.05h-6.79c-11.95 0-20.64 2.173-26.07 6.518-4.71 3.802-7.697 8.419-8.962 13.85-1.269 5.432-1.901 13.49-1.901 24.17v60.56h-34.22v-135.8z"/><path d="m768.6 24.32h34.22v31.5h-34.22zm0 42.91h34.22v135.8h-34.22z"/><path d="m833.8 25.68h33.95v41.55h29.06v27.16h-29.06v67.35c0 6.158.951 10.01 2.852 11.54 1.901 1.54 9.82 2.309 23.76 2.309h2.173v28.78l-9.777.271c-6.518.183-10.5.275-11.95.275-4.889 0-8.873-.093-11.95-.271-11.04-.729-18.92-4.082-23.63-10.07-2.173-2.903-3.624-6.535-4.346-10.89-.726-4.354-1.086-14.7-1.086-31.04v-58.26h-19.28v-27.16h19.28v-41.55z"/><path d="m912.5 24.32h34.22v31.5h-34.22zm0 42.91h34.22v135.8h-34.22z"/><path d="m1050 108.5c-1.63-12.13-10.32-18.2-26.07-18.2-15.39 0-23.08 4.799-23.08 14.39 0 3.624 1.36 6.247 4.07 7.876 3.44 1.995 13.62 3.713 30.55 5.16 16.93 1.451 29.56 5.614 37.89 12.49 8.33 6.884 12.49 16.93 12.49 30.15 0 14.3-5.29 25.49-15.89 33.54-10.59 8.059-25.3 12.08-44.13 12.08-25.71 0-43.906-7.422-54.586-22.27-4.167-5.61-7.154-14.39-8.962-26.34h35.31c1.447 13.94 11.218 20.91 29.328 20.91 16.3 0 24.44-5.159 24.44-15.48 0-3.077-.64-5.339-1.9-6.79-.18-.543-.63-1.086-1.36-1.629-2.35-1.809-5.29-2.941-8.82-3.395-3.53-.45-10.64-1.312-21.32-2.58-20.642-2.533-34.402-7.15-41.282-13.85-6.883-6.696-10.32-15.48-10.32-26.34 0-13.58 5.249-24.44 15.75-32.59 10.5-8.147 24.532-12.22 42.102-12.22 26.07 0 43.9 8.241 53.5 24.71 2.89 5.071 4.7 11.86 5.43 20.37h-33.14z"/><path d="m1103 24.05h34.22v54.32c9.41-9.412 21.36-14.12 35.85-14.12 14.84 0 26.7 4.528 35.58 13.58 4.71 4.889 7.97 10.41 9.78 16.57 1.81 6.158 2.71 16.39 2.71 30.69v77.94h-33.95l-.27-80.12c-.36-8.691-.72-13.76-1.08-15.21-.37-2.716-1.36-5.249-2.99-7.604-3.62-5.25-9.42-7.876-17.38-7.876-5.61 0-10.82 1.629-15.62 4.888s-8.2 7.426-10.18 12.49c-1.63 4.167-2.44 12.04-2.44 23.63v69.8h-34.22v-179z"/><path d="m1296 27.58h65.72c16.11 0 27.74.951 34.9 2.852 7.15 1.901 13.44 5.661 18.88 11.27 8.69 8.873 13.04 21 13.04 36.39 0 18.29-8.15 30.96-24.44 38.02 3.62 1.451 6.56 3.216 8.83 5.296 2.26 2.083 3.84 4.031 4.75 5.839 3.08 6.34 5.07 20.73 5.97 43.18.18 5.975.55 11.54 1.09 16.7s2.72 10.46 6.52 15.89h-39.92c-.54-2.352-.91-4.252-1.09-5.703-.72-4.523-1.27-13.4-1.63-26.62-.54-14.84-1.54-24.26-2.98-28.24-.55-2.351-1.82-4.388-3.81-6.11-1.99-1.719-4.03-2.758-6.11-3.123-2.08-.361-6.74-.543-13.99-.543h-30.15v70.34h-35.58v-175.4zm35.58 29.33v45.9h29.88c10.32 0 17.83-1.536 22.54-4.617 5.98-3.802 8.96-9.777 8.96-17.92s-2.89-14.48-8.69-19.01c-4.16-2.895-11.86-4.346-23.08-4.346h-29.6z"/><path d="m1446 111.5c.36-6.878 1.27-12.58 2.72-17.11 3.07-9.955 10-17.65 20.78-23.08 10.77-5.432 24.31-8.147 40.6-8.147 29.33 0 46.35 9.145 51.06 27.43 1.44 5.614 2.17 15.93 2.17 30.96v45.35c0 10.5.45 18.38 1.36 23.63.54 3.623 2.08 7.786 4.61 12.49h-36.39l-.54-11.68c-10.5 9.777-23.63 14.66-39.38 14.66-16.12 0-28.88-3.892-38.29-11.68-9.42-7.781-14.12-18.37-14.12-31.77 0-15.21 5.61-26.07 16.84-32.59 7.6-4.523 20.64-8.236 39.11-11.13l16.84-2.716 13.58-2.716c2.71-.543 4.07-1.808 4.07-3.802 0-13.04-7.51-19.55-22.54-19.55-10.68 0-18.83 2.716-24.44 8.147-2.53 2.355-4.16 6.79-4.89 13.31h-33.13zm84.46 28.24c-.36 0-.73.094-1.09.271-1.99.365-6.7 1.27-14.12 2.717l-17.65 3.258c-7.6 1.451-12.95 3.354-16.02 5.703-3.08 2.355-4.61 5.797-4.61 10.32 0 11.59 7.42 17.38 22.27 17.38 5.79 0 11.5-1.536 17.11-4.616 6.33-3.26 10.5-7.334 12.49-12.22 1.26-2.894 1.9-7.511 1.9-13.85v-5.432c0-1.446-.1-2.622-.27-3.53z"/><path d="m1586 24.32h34.22v31.5h-34.22zm0 42.91h34.22v135.8h-34.22z"/><path d="m1644 24.05h33.95v179h-33.95z"/></g></svg>