<svg enable-background="new 0 0 74.88 66.037" viewBox="0 0 74.88 66.037" xmlns="http://www.w3.org/2000/svg"><g clip-rule="evenodd" fill-rule="evenodd"><path d="m4.943.17c.144 7.506.051 15.025.051 22.942-.002 5.542 0 11.47 0 17.156 0 1.817.361 3.464.791 5.043 1.619 5.979 5.572 10.055 10.531 12.855 2.568 1.451 5.717 2.275 9.395 2.275 7.395 0 12.207-3.492 15.871-7.516 1.838-2.018 3.229-4.764 4.004-7.663.834-3.112.984-7.174.197-10.433-.713-2.961-2.17-5.775-3.758-7.911-1.637-2.206-3.824-3.984-6.279-5.439-2.486-1.476-5.531-2.518-8.949-2.719-5.83-.345-10.201 1.657-13.398 4.104-.858.656-1.654 1.209-2.422 1.978-.197.198-.459.595-.842.495-.149-8.12-.203-17.197.051-25.167.682-.167 1.592-.111 2.422-.099.844.013 1.709-.025 2.324.197.164 4.479.098 9.096.098 13.598.002.573-.1 1.241.348 1.631 1.437-.146 2.676-.899 4.103-1.235 1.424-.336 2.998-.564 4.646-.644 9.666-.459 16.02 3.759 20.568 8.554.408.431.736 1.074 1.385 1.236.508-.597.297-1.718.297-2.72 0-5.816.049-11.637.049-17.602 0-.95-.105-1.889.1-2.769 1.373-.165 3.422-.163 4.797 0 .291 12.231.098 26.334.098 38.813 0 2.574.314 5.002.99 6.971 1.363 3.978 3.475 7.017 6.279 9.592 1.869 1.599 4.037 3.079 6.674 3.956 2.662.885 5.775 1.183 9.246 1.335.164 1.407.164 3.487 0 4.895-3.281.448-6.357-.144-8.998-.791-2.654-.65-4.996-1.723-7.07-3.016-.932-.58-1.863-1.447-2.818-2.226-.914-.744-1.83-1.637-2.572-2.472-1.115-1.259-2.229-2.723-3.213-4.351-.283-.467-.678-1.379-1.088-1.384-.549-.007-1.41 1.932-1.682 2.373-1.469 2.4-3.635 4.651-5.785 6.279-3.012 2.279-6.721 4.124-11.123 4.944-4.926.917-10.117.075-13.894-1.384-.984-.382-1.877-.838-2.77-1.286-.887-.445-1.603-1.027-2.422-1.582-1.629-1.105-3.062-2.275-4.303-3.708-2.527-2.922-4.742-6.047-5.883-10.186-.587-2.123-.989-4.398-.989-7.068 0-12.801.025-26.536.148-39.801 1.258-.364 3.391-.2 4.795-.05z"/><path d="m61.309.417c.197 3.356.051 6.602.051 10.186 0 1.126-.117 2.266.148 3.312 4.195.33 9.156-.047 13.201.297.164 1.383.16 3.411 0 4.796-5.771.101-12.352.112-18.246-.049-.232-1.443-.168-2.994-.098-4.549.068-1.507 0-3.086 0-4.599 0-2.42 0-4.822 0-7.269 0-.74-.119-1.53.148-2.225 1.321-.076 3.475-.151 4.796.1z"/><path d="m15.08 51.492c-2.607-2.467-4.832-5.932-5.242-10.68-.443-5.15 1.629-9.004 3.957-11.817 2.639-2.934 5.752-4.794 10.68-5.39 3.264-.394 6.166.729 8.207 1.731 2.283 1.12 4.039 2.616 5.488 4.449 1.385 1.752 2.555 4.255 3.064 6.873.568 2.906.084 6.161-.84 8.702-1.695 4.66-5.453 8.171-10.283 9.592-2.582.759-5.813.864-8.654.099-2.592-.698-4.545-1.911-6.377-3.559zm5.934-21.656c-.996.5-1.928.974-2.621 1.632-.461.437-.828 1.02-1.236 1.532-1.203 1.509-2.176 3.709-2.274 6.181-.07 1.755.344 3.443.988 4.846 1.236 2.695 2.965 4.492 5.736 5.686 4.215 1.816 9.08.198 11.52-2.323 1.625-1.682 3.006-3.869 3.213-6.774.184-2.556-.414-4.602-1.385-6.279-.959-1.657-2.273-3.045-3.707-3.955-1.652-1.048-3.98-1.706-6.824-1.483-1.27.097-2.483.47-3.41.937z"/><path d="m74.758 24.496c.162 1.412.164 3.483 0 4.895-4.205.215-9.002-.093-13.35.1-.252 1.014-.146 2.137-.197 3.263-.053 1.132 0 2.31 0 3.461 0 2.289-.062 4.611.443 6.428 1.086 3.895 4.041 6.979 8.209 7.812.725.145 1.471.353 2.273.396.791.042 1.654-.148 2.521.148.088 1.357.121 3.47-.049 4.895-6.346.529-10.725-1.678-13.844-4.796-1.707-1.706-2.676-3.456-3.512-5.982-.27-.82-.561-1.618-.691-2.473-.281-1.854-.197-3.788-.197-6.032 0-2.951-.049-6.072-.051-9.295 0-1.006-.115-2.054.148-3.016 5.062-.056 10.98.048 16.168.049.721-.001 1.469-.11 2.129.147z"/></g></svg>