<svg enable-background="new 0 0 13.357 9.168" viewBox="0 0 13.357 9.168" xmlns="http://www.w3.org/2000/svg"><path d="m0 0h9.708c.457.001.913-.003 1.37.002.667.042 1.314.367 1.737.886.275.325.45.73.518 1.15.038.186.021.378.021.567-.037.363-.149.721-.342 1.033-.21.339-.503.626-.848.828-.07.04-.138.083-.216.106-.001.007-.003.02-.004.027.407.188.757.49 1.013.857.196.296.329.635.378.987.034.166.017.338.02.506-.045.601-.325 1.186-.775 1.589-.297.272-.661.468-1.05.567-.162.045-.328.069-.496.064-3.678 0-7.355.001-11.033 0 0-3.058.002-6.113-.001-9.169zm.452.453c-.001 1.299.001 2.599-.001 3.898 2.565.002 5.13 0 7.695.001.984-.002 1.968.003 2.953-.003.531-.05 1.041-.319 1.375-.736.23-.282.374-.631.42-.992.056-.441-.064-.897-.303-1.269-.366-.573-1.047-.931-1.727-.899-3.472 0-6.942-.001-10.412 0zm-.002 4.387c.005 1.297.001 2.595.002 3.893h10.412c.605.015 1.216-.255 1.597-.728.199-.238.334-.525.404-.826.041-.174.025-.355.028-.532.003-.133-.022-.265-.061-.392-.105-.376-.328-.718-.63-.965-.364-.308-.841-.475-1.316-.468-3.452 0-6.904 0-10.356 0-.029.002-.055.008-.08.018z"/><path d="m.864 1.085c.002-.075-.011-.155.02-.226 3.319.006 6.638.001 9.958.002.111-.009.22.019.331.021.336.051.655.212.892.457.21.217.356.496.411.794.013.172.011.346.002.518-.06.354-.251.684-.527.912-.24.2-.54.329-.851.356-1.07.007-2.14.001-3.21.003-2.033 0-4.065 0-6.098 0-.311 0-.62.005-.929-.001.002-.945 0-1.891.001-2.836zm.471.227c-.014.051-.008.105-.009.158.001.668 0 1.336 0 2.005 3.207.001 6.415 0 9.622.001.575.023 1.121-.504 1.084-1.085.02-.292-.126-.575-.334-.772-.192-.191-.46-.291-.727-.307-3.212 0-6.424-.002-9.636 0z"/><path d="m1.762 1.721c3.034-.002 6.068 0 9.101-.001.137.015.281.026.4.102.192.103.315.311.334.525.006.183-.065.369-.199.496-.11.121-.271.177-.428.197-3.07 0-6.139.001-9.209-.001-.001-.44-.001-.879.001-1.318zm.465.465v.406c2.9.002 5.8 0 8.7.001.137.002.248-.154.197-.282-.034-.065-.096-.128-.175-.123-2.906-.003-5.814 0-8.722-.002z"/><path d="m.864 5.342c0-.034.006-.068.016-.101 3.335.006 6.67.001 10.005.003.457-.012.923.174 1.224.522.193.206.313.471.368.746.012.179.013.359-.001.537-.052.251-.159.494-.326.689-.264.33-.673.533-1.092.567-3.392 0-6.785-.002-10.178.001-.022-.073-.014-.15-.015-.226-.001-.912-.001-1.825-.001-2.738zm.448.449c.001.628 0 1.256 0 1.884.001.062-.008.127.021.185.973-.006 1.946-.001 2.919-.003h6.762c.488-.022.922-.415 1.013-.892.007-.12.007-.24.001-.36-.076-.481-.509-.874-.993-.91-3.235-.002-6.47.003-9.704-.003-.012.032-.022.065-.019.099z"/><path d="m1.775 6.119c2.801-.001 5.602 0 8.403 0 .292.002.584-.005.876.004.206.038.395.178.481.37.053.125.085.266.047.399-.045.239-.241.432-.472.498-.08.024-.165.015-.247.016-3.029 0-6.058 0-9.087 0-.002-.428 0-.857-.001-1.287zm.45.452c.003.129.003.259 0 .389 2.894.004 5.788 0 8.682.002.08.008.163-.031.205-.101.034-.046.022-.108.017-.161-.036-.088-.126-.15-.223-.145-2.868 0-5.736 0-8.604 0-.025.001-.052.007-.077.016z"/></svg>