<svg enable-background="new 0 0 75.4 73.704" viewBox="0 0 75.4 73.704" xmlns="http://www.w3.org/2000/svg"><path clip-rule="evenodd" d="m54.488 20.333c1.062.278 2.188.155 3.257.155h3.412c2.232 0 4.521-.18 6.771 0 4.045.322 6.042 3 6.928 6.307.979 3.654-.364 6.896-2.068 8.893-.22.258-.718.738-.724.93-.009.319.399.463.673.724.634.606 1.393 1.636 1.757 2.378 1.066 2.173 1.174 5.335.414 7.496-1.149 3.271-3.497 5.656-7.444 5.997-2.622.227-5.761.128-8.53.052-1.417-.039-2.877-.061-4.187.155-.17 2.863-.155 5.954-.155 8.788 0 1.679.129 3.189-.104 4.497-.337 1.896-1.483 3.626-2.74 4.757-1.781 1.603-5.03 2.753-8.581 2.016-1.739-.361-3.013-1.061-4.188-2.067-.283-.243-.819-.965-1.086-.982-.406-.028-1.107.818-1.447 1.086-1.357 1.065-3.202 1.868-5.479 1.964-4.862.204-8.308-1.888-9.409-5.583-.377-1.266-.31-2.915-.31-4.653 0-3.27.086-6.634-.104-9.873-.761-.28-1.631-.155-2.43-.155-2.503 0-5.212.05-7.755 0-1.727-.034-3.369.074-4.704-.362-3.753-1.227-6.309-4.094-6.255-9.201.033-3.127 1.061-4.813 2.688-6.359.219-.207.559-.517.568-.672.026-.403-.887-1.096-1.138-1.396-1.135-1.355-1.857-3.233-2.016-5.531-.219-3.158 1.062-5.777 2.792-7.289 1.999-1.749 4.255-2.017 8.063-2.017 3.306 0 6.684.061 9.926-.052.277-.764.155-1.608.155-2.378 0-2.436 0-4.941 0-7.444 0-1.708-.1-3.314.259-4.652.651-2.432 2.621-4.258 4.859-5.118 2.354-.904 6.437-.636 8.478.362.441.215 1.03.601 1.499.982.311.252 1.06 1.063 1.397 1.085.384.025 1.1-.887 1.344-1.085 1.352-1.099 3.085-1.96 5.377-2.068 4.418-.208 7.336 1.604 8.892 4.291 2.198 3.791.796 10.184 1.345 16.022zm-20.264-9.771c-.033-.381-.137-.829-.259-1.137-1.039-2.634-6.022-2.459-6.358.62.034 3.274-.068 6.685.052 9.874.878.271 2.061.154 3.205.155 1.16 0 2.361.107 3.257-.155.009-2.666.336-6.709.103-9.357zm13.44 21.971c0-6.354.051-12.877.052-19.489.001-1.366.062-2.693-.361-3.618-.531-1.163-1.745-1.991-3.516-1.81-1.046.107-2.078.815-2.481 1.706-.462 1.02-.318 2.809-.259 4.238.169 3.998-.051 7.685-.052 11.115 0 .732.116 1.53-.154 2.171-8.623.144-18.649.001-27.141 0-1.365 0-2.648-.122-3.722.104-2.477.521-3.114 3.988-1.241 5.583 1.072.913 3.153.673 5.118.673 4.029 0 7.7.053 11.528.052.741-.001 1.498-.122 2.171.154.137 8.221.082 17.986.052 26.882-.004 1.209-.131 2.635.207 3.671.268.819.797 1.371 1.499 1.705 1.641.781 3.812.379 4.704-1.396.546-1.086.362-2.85.362-4.497-.001-3.055 0-5.994 0-8.943 0-1.528-.122-3.024.154-4.343 9.187-.074 17.661.004 27.141 0 1.282-.001 2.739.133 3.774-.207.911-.299 1.665-1.03 1.965-1.654.838-1.741-.157-3.666-1.602-4.29-1.16-.502-2.822-.259-4.498-.259-4.562 0-9.486.039-13.544-.155-.222-2.274-.155-4.802-.156-7.393zm9.616.724c2.056-.001 4.985.149 7.03 0 .453-.033 1.03-.133 1.344-.259 2.59-1.04 2.593-5.274-.361-5.997-1.305-.318-3.276-.16-5.015-.155-1.811.005-3.599.006-4.756 0-.269-.001-.581.051-.775.207-.17 1.804-.172 4.297 0 6.101.754.302 1.711.103 2.533.103zm-39.289 6.668c-1.255.06-3.011.052-4.602.052-1.474 0-3.19-.171-4.186.311-1.834.885-1.876 4.032-.621 5.324 1.121 1.152 3.527.839 5.79.879 2.164.039 4.39.072 6.462-.104.283-1.761.193-4.41.052-6.255-.848-.28-1.831-.256-2.895-.207zm23.418 13.648c-.223.318-.198.614-.207.982-.031 1.39.052 3.163.052 5.066 0 1.641-.151 3.705.362 4.756 1.104 2.26 4.846 2.293 5.996 0 .259-.515.37-1.255.414-1.913.186-2.778-.058-6.239-.104-8.892-1.934-.17-4.578-.17-6.513.001z" fill-rule="evenodd"/></svg>