<svg enable-background="new 0 0 44.532 31.002" viewBox="0 0 44.532 31.002" xmlns="http://www.w3.org/2000/svg"><path d="m7.046 2.408c.235-.819.546-1.619.871-2.408 3.834.017 7.664.075 11.499.082-.216.809-.653 1.558-.764 2.391 3.798.006 7.596.009 11.394.039-.44 1.606-1.23 3.099-1.676 4.702 3.557.039 7.119-.03 10.673.072 3.238.127 5.824 3.31 5.453 6.495-.158 2.681-2.365 4.954-4.973 5.419 1.819 1.847 2.231 4.951.857 7.167-1.761 2.87-5.098 4.503-8.412 4.613-4.122.074-8.236-.071-12.359-.044.517-1.593 1.188-3.139 1.672-4.739-3.826-.004-7.649-.036-11.474-.085.647-1.524 1.16-3.1 1.74-4.651-3.848-.031-7.697-.069-11.547-.09.317-.8.584-1.618.912-2.413 3.847.026 7.69.053 11.537.091-.234.797-.594 1.551-.816 2.352 3.812.08 7.629.043 11.442.064.568-1.557 1.195-3.1 1.665-4.688-3.795-.123-7.603-.032-11.402-.083.627-1.549 1.123-3.144 1.659-4.727-3.82-.149-7.655-.05-11.481-.097.228-.821.578-1.601.861-2.403 3.844.018 7.691-.032 11.532.08-.222.797-.657 1.528-.812 2.345 3.816-.011 7.629.068 11.445.076.585-1.573 1.222-3.131 1.728-4.732-3.828-.027-7.657 0-11.483-.077.497-1.586 1.225-3.087 1.738-4.667-3.827-.006-7.651-.087-11.479-.084zm19.527 9.575c-.568 1.579-1.159 3.15-1.732 4.727 3.69-.012 7.376.08 11.066.072 1.607-.085 3.099-1.399 3.325-3.004.116-.872-.593-1.719-1.479-1.725-3.73-.014-7.453-.042-11.18-.07zm-5.2 14.143c3.55.128 7.12.042 10.678.084 1.656.122 3.372-1.044 3.668-2.72.235-.869-.428-1.865-1.35-1.888-3.757-.117-7.519-.034-11.279-.088-.6 1.527-1.093 3.095-1.717 4.612z"/></svg>