<svg enable-background="new 0 0 58.095 83.535" viewBox="0 0 58.095 83.535" xmlns="http://www.w3.org/2000/svg"><path clip-rule="evenodd" d="m57.882.181c.293 8.577.111 17.698.104 26.619-1.963.811-4.25 1.405-6.369 2.071-.678.213-1.451.353-1.967.829.512.525 1.326.55 2.019.776 2.029.663 4.322 1.298 6.266 2.072.271 2.234-.043 4.533.051 6.888.092 2.302.164 4.708.053 7.043-.223 4.688.293 9.483-.156 13.982-13.758.402-28.549-.067-42.568.259-.17 2.249-.173 5.209 0 7.458.826.284 1.744.15 2.59.155 13.248.072 26.418-.088 39.978.104.207 4.64.227 10.128 0 14.966-18.986.135-38.764.253-57.742-.104-.199-20.41-.103-41.462-.103-62.506.001-6.126 0-12.22 0-18.384 0-.777-.165-1.653.208-2.382 4.618-.035 9.984.052 14.759.052 9.932 0 19.387.048 28.742-.052 3.627-.039 7.248 0 10.668 0 1.157-.001 2.346-.12 3.467.154zm-42.412 14.966c-.416.384-.26 1.1-.26 1.709 0 1.935-.082 4.167.104 5.852 1.111.278 2.309.155 3.471.155h18.279c2.451 0 4.881.123 7.199-.155.185-1.114.103-2.475.103-3.78 0-1.327.117-2.663-.156-3.729-9.379-.204-19.285-.018-28.74-.052zm-.156 22.89c-.174.339-.104 1.175-.104 1.864 0 1.904-.12 4.18.156 5.645 9.422.172 19.527.172 28.896 0 .25-1.047.152-2.37.103-3.677-.051-1.333.16-2.763-.156-3.884-9.83-.278-19.277.053-28.74-.104-.073.03-.126.082-.155.156z" fill-rule="evenodd"/></svg>