<svg enable-background="new 0 0 33.641 33.618" viewBox="0 0 33.641 33.618" xmlns="http://www.w3.org/2000/svg"><path d="m16.917 0c4.105 4.169 8.353 8.196 12.409 12.413 1.394 1.484 2.937 2.823 4.314 4.324-2.58 2.665-5.146 5.348-7.753 7.988 1.837-3.185 1.333-7.542-1.326-10.118-1.083-1.029-2.452-1.771-3.896-2.154 1.711-1.01 2.52-3.291 1.725-5.131-.584-1.444-2.037-2.482-3.594-2.564-2.198-.061-4.395.054-6.593.018 1.592-1.574 3.122-3.206 4.714-4.776z"/><path d="m0 16.874c3.762-3.767 7.558-7.505 11.331-11.266 1.641.074 3.065 1.512 3.055 3.166.107 1.77-1.447 3.393-3.223 3.361-.049.291-.037.588-.038.883 3.152.001 6.248 2.016 7.189 5.084.856 2.455.332 5.343-1.36 7.322-1.348 1.625-3.407 2.64-5.521 2.697-3.847-3.711-7.659-7.465-11.433-11.247z"/><path d="m17.23 28.927c1.942.098 3.947-.16 5.644-1.17-1.947 1.964-3.946 3.871-5.869 5.861-1.577-1.556-3.121-3.146-4.726-4.671 1.651-.015 3.301-.01 4.951-.02z"/></svg>