<svg enable-background="new 0 0 78.249 78.542" viewBox="0 0 78.249 78.542" xmlns="http://www.w3.org/2000/svg"><g clip-rule="evenodd" fill-rule="evenodd"><path d="m78.036.102c.336 6.543-.103 13.057.101 19.546.203 6.477-.147 12.943.051 19.345.099 3.2.064 6.461 0 9.723-.192 9.713.186 19.645-.051 29.571-.072.028-.123.079-.15.151-25.699.098-51.847.175-77.632 0-.081.014-.087-.048-.151-.051-.12-19.055-.102-38.633-.101-58.79.001-1.617.025-3.213-.05-4.836-.073-1.576.107-3.168.05-4.836-.073-2.121-.16-4.709-.05-7.204.045-1.034-.181-2.125.252-2.67 26.039.001 51.328-.144 77.731.051zm-8.362 34.709c.469-.469 1.26-1.112 1.36-1.612.132-.659 0-1.59 0-2.418-.001-5.1-.025-9.365-.051-14.105-.005-.833.144-1.793 0-2.468-.118-.556-1.17-1.372-1.662-1.864-1.276-1.276-2.29-2.378-3.526-3.526-.633-.588-1.131-1.355-1.915-1.663-13.55.087-27.524-.198-41.157-.05-5.101.054-10.666-.113-15.417.15-.182 21.584-.094 42.214.051 63.929 1.088.282 2.26.151 3.375.151 18.499.002 35.583.1 53.903-.05 1.167-.822 2.135-1.983 3.274-3.123.486-.485 1.018-1.017 1.612-1.612.511-.51 1.398-1.113 1.512-1.713.125-.66 0-1.578 0-2.418-.001-4.169 0-8.026 0-12.141-.001-1.42.252-3.636-.051-4.836-.178-.706-1.007-1.021-1.309-1.612-.793-.684-1.479-1.478-2.217-2.216-.742-.743-1.599-1.404-2.166-2.317 1.202-1.506 2.915-3.017 4.384-4.486z"/><path d="m23.276 31.789c-.268-1.2-.151-2.674-.151-4.131 0-1.423-.08-2.898.101-4.131 8.876-.184 18.951-.101 27.909-.101.597 0 1.314-.1 1.813 0 .518.103.779.59 1.159 1.007.323.355.848.583 1.007 1.108.321 1.057-.134 2.606.051 3.879-.662.95-1.469 1.755-2.418 2.418-9.81-.05-19.714.123-29.471-.049z"/><path d="m23.276 55.567c-.193-2.596-.156-5.753-.051-8.262 10.008-.242 19.452-.123 29.774-.101.928.5 1.505 1.35 2.166 2.116v3.98c-.667.878-1.432 1.658-2.317 2.317-10.364-.046-19.745.146-29.572-.05z"/></g></svg>