<svg enable-background="new 0 0 72.224 73.796" viewBox="0 0 72.224 73.796" xmlns="http://www.w3.org/2000/svg"><path clip-rule="evenodd" d="m60.618 1.425c.416-.102.103-.933.451-1.102 3.584-.054 7.372-.171 10.966-.05.271 1.301.15 2.655.15 4.006-.001 5.432.058 11.091 0 16.524-.034 3.103-1.107 5.843-2.304 7.961-.26.461-.413.962-.651 1.402-.366.676-.991 1.337-1.502 1.953-1.052 1.268-2.257 2.329-3.605 3.305-.657.476-1.453.763-2.003 1.402.395.765 1.241 1.124 1.903 1.552.684.442 1.341.921 1.952 1.452 1.152 1.001 2.377 2.268 3.205 3.656.326.546.582 1.203.901 1.802.319.6.604 1.21.852 1.853.486 1.262 1.048 2.712 1.201 4.156.2 1.878 0 3.861 0 5.758 0 3.857.098 7.562 0 11.166-.049 1.815.235 3.656-.1 5.408-3.378.245-7.347.164-10.866.1-.405-.263-.182-1.154-.551-1.452-1.214.144-2.335.682-3.605.901-7.363 1.269-13.167-1.599-16.874-5.058-1.19-1.11-2.054-2.414-2.954-3.806-.283-.437-.527-.97-1.002-1.252-.487.273-.72.822-1.002 1.252-1.992 3.039-4.611 5.814-8.212 7.361-3.074 1.321-7.052 2.251-11.366 1.402-.462-.091-1.09-.245-1.753-.451-.427-.132-1.344-.562-1.652-.451-.441.16-.195.737-.601 1.002-3.696-.029-7.721.103-11.367-.05-.264-.776-.149-1.627-.149-2.451-.001-2.485 0-5.086 0-7.661-.001-3.451-.21-6.955.05-10.215.506-6.347 3.252-10.566 6.91-13.62.518-.443 1.039-.908 1.652-1.302.574-.369 1.365-.559 1.702-1.202-.419-.578-1.125-.84-1.702-1.252-.569-.406-1.131-.808-1.652-1.252-1.75-1.546-3.436-3.296-4.606-5.608-1.14-2.25-2.17-4.805-2.204-8.012-.068-6.637-.031-13.634.1-20.33 3.524-.198 7.609-.102 11.217-.05.438.096.115.953.551 1.052.608.085 1.168-.26 1.752-.401 1.727-.416 3.9-.789 5.909-.701 2.511.109 5.328.831 7.16 1.752 2.883 1.449 5.423 3.579 7.311 6.059.65.853 1.073 1.855 1.803 2.654.738-.393 1.013-1.276 1.452-1.953.442-.68.962-1.294 1.502-1.853 3.065-3.48 7.382-6.393 13.62-6.76 3.158-.184 5.378.825 8.011 1.404zm-46.267 11.917c-1.101.832-2.032 1.997-2.554 3.455-1.333 3.729.608 7.102 2.704 8.712 2.655 2.041 6.929 2.157 9.664-.15 1.293-1.091 2.472-2.916 2.654-5.007.178-2.046-.458-4.02-1.303-5.258-1.207-1.771-3.501-3.37-6.359-3.355-2.083.012-3.697.765-4.806 1.603zm38.206-1.602c-1.923.181-3.522 1.069-4.606 2.153-1.181 1.18-2.121 2.831-2.254 4.857-.268 4.084 2.395 6.916 5.107 7.912 3.076 1.128 6.453-.087 8.212-1.903 1.187-1.226 2.271-3.313 2.054-5.809-.264-3.014-1.957-5.003-4.257-6.409-1.205-.537-2.443-.971-4.256-.801zm-16.524 16.724c-.332.202-.563.824-.852 1.251-1.372 2.039-3.016 4.008-4.906 5.358-.773.551-1.693.905-2.404 1.703.226.563.82.863 1.302 1.152 1.566.937 2.821 2.135 4.057 3.355.429.712 1.023 1.305 1.502 2.002.469.684.812 1.51 1.502 2.003.717-.779 1.152-1.683 1.753-2.503 1.488-2.035 3.38-3.757 5.558-5.107.362-.225 1.249-.533 1.252-.901.003-.327-.863-.776-1.151-.951-2.744-1.666-4.701-3.719-6.41-6.309-.25-.379-.569-1.083-1.051-1.151-.062.022-.115.051-.152.098zm-12.268 31.797c1.402-1.048 2.479-2.726 2.854-4.356 1.21-5.268-2.83-9.254-6.86-9.564-.422-.032-1.015-.038-1.402 0-2.711.264-5.085 2.069-6.108 4.106-1.808 3.595-.272 8.125 2.554 9.964 2.396 2.046 6.728 1.518 8.962-.15zm23.334-10.666c-.426.588-1.144 1.982-1.352 3.355-.959 6.342 5.619 10.885 11.267 8.112 2.186-1.073 3.884-3.376 4.057-6.31.156-2.677-1.035-4.644-2.103-5.808-1.295-1.411-3.137-2.682-5.759-2.504-2.93.199-4.843 1.407-6.11 3.155z" fill-rule="evenodd"/></svg>