<svg enable-background="new 0 0 74.505 73.713" viewBox="0 0 74.505 73.713" xmlns="http://www.w3.org/2000/svg"><g clip-rule="evenodd" fill-rule="evenodd"><path d="m30.372 17.822c.741.4 1.646.265 2.452.25 11.826-.214 24.678-.001 37.127 0 .84 0 1.701-.113 2.502.15.328.486.2 1.344.2 2.151 0 .781.085 1.624-.15 2.152-.792.417-1.772.25-2.701.25-5.697 0-11.465 0-17.314 0-.901 0-1.885-.152-2.702.2.301 1.404 1.759 1.201 3.703 1.201 4.638.001 9.199.169 13.811 0 .614-.022 1.629.045 2.602 0 .634-.029 2.262-.051 2.552.2.39.337.212 1.498.2 2.102-.015.779.111 1.676-.15 2.202-1.164.395-2.627.15-4.103.2-3.369.114-7.029 0-10.608 0-.628 0-1.35-.129-1.801.3-.035.487.406.807.7 1.101 4.423 4.422 8.978 8.915 13.26 13.56.77.815 1.673 1.497 2.353 2.402.764.82 1.769 1.4 2.201 2.552-.12.718-.672 1.121-1.201 1.651-.384.384-1.015 1.227-1.602 1.251-.72.03-1.725-1.342-2.251-1.851-3.448-3.335-6.45-6.83-10.058-10.208-.994-.931-1.941-1.931-3.052-3.052-.349-.352-.772-.921-1.151-.851-.393.073-.46.855-.351 1.351.199.897 1.038 1.428 1.752 2.202.645.699 1.389 1.352 1.951 1.952 1.778 1.848 3.736 3.634 5.805 5.904.867.952 1.833 1.965 2.902 2.952.462.426.849 1.028 1.4 1.551.492.467 1.295 1.038 1.301 1.651.006.579-.755 1.239-1.15 1.601-.536.491-.911.964-1.602 1.151-1.173-.45-1.899-1.554-2.752-2.402-2.541-2.528-5.087-5.096-7.655-7.655-.598-.161-.902-1.427-1.651-1.251-.542.127-.351 2.469-.351 3.202.002 7.178-.051 14.257-.05 21.066 0 .978.2 3-.25 3.352-.355.278-1.428.15-2.202.15-.82 0-1.73.165-2.051-.251-.354-.457-.15-1.808-.15-2.952-.001-5.001.054-9.816 0-14.961-.011-.987-.074-2.013-.05-3.002.021-.887.224-1.95-.351-2.602-.562.005-.697.437-1.001.7-.142 6.577-.131 14.615-.149 21.066-.002.626.198 1.403-.2 1.851-.528.251-1.413.15-2.252.15-.607 0-1.812.155-2.202-.15-.396-.309-.261-1.225-.25-1.951.059-3.841 0-7.476 0-11.208 0-1.493.031-3.096-.149-4.253-.669-.075-.935.66-1.451.9-4.496 4.486-8.922 8.971-13.51 13.56-.678.678-1.42 1.371-2.252 2.251-.314.333-.708.692-1.151 1.101-.397.367-.872.951-1.301.951-.567 0-1.133-.751-1.551-1.201-.383-.412-1.136-1.004-1.151-1.551-.017-.644 1.064-1.514 1.552-2.002.286-.286.602-.574.9-.901.289-.315.485-.731.75-1.001 3.535-3.586 7.385-7.077 10.658-10.658.419-.25.673-.57 1.051-1.001.238-.271.92-.707.801-1.201-.129-.537-1.101-.348-1.551-.15-.542.238-.758.654-1.151.901-.693.69-1.333 1.434-2.052 2.101-2.665 2.838-5.632 5.376-8.206 8.306-1.038.975-2.045 1.964-3.102 3.102-.329.354-.716.84-1.201.851-.71.016-1.315-.864-1.651-1.201-.371-.371-1.183-1.064-1.201-1.651-.018-.576.847-1.356 1.201-1.751 1.376-1.533 3.153-2.891 4.453-4.403 1.458-1.453 2.763-2.994 4.354-4.503.345-.327 1.409-1.176 1.251-1.601-.184-.495-2.158-.3-3.103-.3-6.74 0-13.064 0-19.914 0-1.121 0-2.266.11-3.203-.15-.353-.468-.29-1.345-.25-2.202.028-.593-.193-1.905.25-2.302.37-.331 1.947-.2 2.752-.2h17.313c.962 0 1.951.147 2.702-.2-.066-.667-.588-.88-.951-1.251-6.257.029-12.714 0-19.314 0-.894 0-2.215.169-2.552-.15-.407-.386-.2-1.521-.2-2.301 0-.843-.172-1.841.2-2.202.47-.455 3.254-.2 4.153-.2 3.641 0 7.166.073 10.708-.05.698-.024 1.43.154 1.951-.201-.339-1.191-1.491-1.676-2.102-2.652-.858-.709-1.605-1.531-2.352-2.352-3.886-4.018-8.382-8.231-12.51-12.359-.384-.382-1.543-1.331-1.55-1.949-.006-.605.768-1.168 1.151-1.551.485-.485.766-1.073 1.5-1.201 1.14.212 1.477 1.226 2.252 1.801 2.062 1.94 4.026 3.979 6.055 5.954 1.759 1.598 3.31 3.371 5.054 5.004.689.645 1.285 1.325 2.002 2.001.326.31.606.85 1.15.851.833-1.709-.735-2.737-1.651-3.653-3.825-3.824-7.6-7.599-11.508-11.508-.538-.538-1.688-1.435-1.701-2.102-.015-.65.813-1.265 1.2-1.651.52-.521.873-1.032 1.602-1.201.753.114 1.172.823 1.651 1.301 2.39 2.39 4.822 4.937 7.356 7.255 1.008.923 1.794 2.15 3.052 2.802.44-.34.265-.976.25-1.451-.119-3.829.05-7.722.051-11.759 0-3.383-.139-7.06 0-10.507.044-1.099-.202-2.961.3-3.403.558-.169 1.287-.1 2.151-.1.734 0 1.723-.111 2.002.2.255.284.177 1.682.149 2.402-.101 2.693.067 5.162 0 7.556-.096 3.434.001 6.838 0 10.207 0 7.003.01 13.977 0 20.765 1.044 1.673 2.36 2.761 3.753 4.153.595.594 1.252 1.303 1.952 2.002.593.593 1.325 1.645 2.101 1.851.684.182 1.665 0 2.552 0h5.005c.919 0 1.933.113 2.602-.05.807-.198 1.725-1.375 2.201-1.852 1.461-1.46 2.512-2.512 4.003-4.003.588-.587 1.562-1.28 1.802-2.202.185-.711.05-1.771.05-2.602 0-1.734 0-3.353 0-5.254 0-.939.08-2.082-.1-2.652-.257-.81-1.178-1.514-1.852-2.151-.759-.716-1.333-1.383-1.951-2.001-.727-.726-1.278-1.228-2.002-2.002-.539-.577-1.426-1.603-2.151-1.801-.723-.197-1.793-.05-2.702-.05-1.778 0-3.441.045-5.204.05-.908.003-1.808-.126-2.502.1-.515.168-1.109.759-1.501 1.151-.888.887-1.699 1.699-2.652 2.652-.337.337-1.002 1.218-1.5 1.001-.576-.251-.268-2.146-.301-3.153-.212-6.746 0-13.948 0-21.015 0-1.136-.224-2.392.25-3.152.71-.233 1.547-.218 2.652-.2.527.008 1.269.08 1.501.35.311.362.2 1.424.2 2.051 0 2.193-.029 4.686 0 6.606.05 3.382-.122 6.29.098 8.807z"/><path d="m41.53 47.344c-3.095.119-5.968.034-9.106.05-1.317-.9-2.341-2.141-3.452-3.252-1.101-1.101-2.322-2.143-3.152-3.502-.105-3.233-.131-6.76 0-9.857.762-1.423 2.059-2.31 3.152-3.402 1.182-1.003 1.995-2.374 3.402-3.152 2.274-.068 4.573-.051 7.005-.05.712 0 1.501-.103 2.052.05.686.191 1.269 1.105 1.852 1.651 1.223 1.148 2.205 2.205 3.452 3.452.604.604 1.373 1.132 1.602 1.852.331 1.043.1 3.438.1 4.653 0 1.289.27 3.425-.1 4.653-.213.706-.945 1.296-1.552 1.901-.623.623-1.237 1.237-1.701 1.702-1.169 1.167-2.182 2.34-3.554 3.251zm-5.504-18.413c-.67.03-1.344-.102-1.901.05-.748.204-1.514 1.212-2.102 1.752-.334.307-.73.718-.95.951-.709.746-.856 1.264-.851 2.552.002.519.034 1.007.05 1.451.039 1.081-.245 2.153.05 3.052.139.421.535.735.901 1.101.361.362.638.769.95 1.101.521.553 1.487 1.651 2.251 1.851.67.176 1.72.05 2.553.05.674 0 1.858.146 2.552-.05.765-.217 1.753-1.321 2.302-1.901.687-.728 1.661-1.412 1.951-2.302.307-.942.118-2.904.1-4.003-.005-.359.057-.849-.05-1.251-.117-.441-.671-1.001-.9-1.251-.317-.346-.725-.724-1.1-1.101-.688-.687-1.484-1.792-2.353-2.051-.354-.106-1.302-.053-1.5-.05-.654.009-1.306.019-1.953.049z"/></g></svg>