<svg enable-background="new 0 0 39.947 69.079" viewBox="0 0 39.947 69.079" xmlns="http://www.w3.org/2000/svg"><path clip-rule="evenodd" d="m34.888 19.599c.449.597 1.031 1.045 1.538 1.587 1.412 1.511 2.668 3.736 2.877 6.449.199 2.577-.626 4.667-1.538 6.251-1.202 2.091-3.332 3.841-5.754 4.663-2.727.925-6.257.562-8.483-.893-.563-.368-.942-.843-1.687-1.24-.268.744-.149 1.638-.148 2.481 0 1.73-.03 3.48.049 5.208.039.86-.112 1.738.05 2.432.171.732 1.155 1.477 1.686 2.083 1.761 2.01 3.613 3.942 5.259 5.904 1.773 1.943 3.636 3.828 5.357 5.854.561.658 1.088 1.432 1.885 1.835.332-.539.219-1.264.199-1.885-.057-1.785.064-3.872 0-5.854-.086-2.65-.403-5.318-.348-7.789.536-.247 1.305-.133 2.034-.148.729-.016 1.54-.034 2.083.198-.291 5.797-.231 12.446-.248 18.454-.002.993.183 2.034-.099 2.977-.8.309-2.139.077-3.175.149-1.144-.74-1.855-1.917-2.778-2.878-2.744-2.857-5.343-5.955-8.036-8.93-.637-.62-1.19-1.325-1.836-1.935-.612-.579-1.073-1.571-1.885-1.786-.229.504-.222 1.144-.198 1.688.169 4.126.062 8.609.297 12.402.041.654.329 1.427 0 2.033-1.147.145-2.964.296-4.067 0-.074-1.658.086-3.444.099-5.259.026-3.578.365-7.363 0-10.864-.539-.127-.664.549-1.042.744-.26.369-.561.696-.893.993-3.497 3.821-7.094 8.22-10.666 12.303-.421.481-1.191 1.483-1.637 1.637-.444.152-1.131.05-1.687.05-.581 0-1.162.076-1.538-.148-.308-6.688-.025-13.557-.446-19.994-.031-.481-.236-1.054 0-1.538 1.14-.162 2.928-.162 4.067 0 .113 3.603-.338 7.864-.198 11.857.022.624-.016 1.226 0 1.835.015.593-.051 1.269.248 1.786.91-.33 1.215-1.266 1.885-1.836 2.105-2.253 3.96-4.755 6.003-7.044 2.049-2.296 4.186-4.494 6.053-6.945-.043-1.61-.1-3.333-.1-5.061 0-1.712.115-3.482-.149-5.01-.718.231-.835.743-1.29 1.091-1.435 1.099-3.393 1.679-5.457 1.736-2.125.06-4.06-.598-5.605-1.537-2.882-1.751-5.157-5.065-5.11-9.227.024-2.112.656-3.756 1.438-5.109.802-1.386 1.948-2.354 2.978-3.522-.341-.524-.863-.827-1.29-1.24-1.263-1.223-2.205-2.682-2.778-4.663-1.496-5.168.905-9.722 4.167-11.907 1.497-1.002 3.073-1.694 5.259-1.835 3.926-.253 6.655 1.679 8.532 3.819.336.382.581.85.894.843.394-.008 1.119-1.197 1.488-1.587 1.488-1.575 4.058-3.204 7.044-3.274 3.865-.09 7.053 1.72 8.88 4.167.804 1.077 1.729 2.72 2.034 4.316.698 3.665-.578 7.091-2.282 9.128-.582.695-1.362 1.196-1.935 1.985zm-10.467-14.287c-1.323 1.032-2.337 2.723-2.63 5.06-.183 1.456-.328 3.756-.248 5.507.019.398-.015 1.486.198 1.736.361.423 2.089.258 2.58.248 1.002-.02 1.924-.085 2.679-.148 1.837-.155 3.524-.236 4.812-.844 2.503-1.181 4.724-4.657 3.473-8.285-.957-2.775-3.613-4.9-7.044-4.662-1.563.107-2.871.647-3.82 1.388zm-6.599 9.426c-.297-3.22-.118-5.983-1.637-8.037-1.345-1.817-4.418-3.347-7.441-2.431-2.829.857-5.024 3.602-4.812 7.044.144 2.317 1.351 4.142 2.878 5.16 2.578 1.719 6.707 1.441 10.913 1.289.252-.961.192-2.018.099-3.025zm3.771 8.928c.064 2.279.027 5.564.545 7.045.696 1.991 2.633 3.837 5.011 4.365 1.841.409 3.446.066 4.812-.645 1.975-1.028 3.954-3.355 3.621-6.797-.226-2.334-1.965-4.419-3.671-5.259-1.752-.86-4.745-.941-7.54-.942-.723 0-1.777-.066-2.233.05-.745.191-.57 1.301-.545 2.183zm-11.906-1.735c-2.788.567-4.969 2.73-5.457 5.457-.752 4.201 2.268 7.339 5.507 7.986 1.095.219 2.304.082 3.323-.248 1.517-.491 2.949-1.608 3.771-2.977.816-1.357 1.042-3.58 1.042-5.805 0-1.596.182-3.242-.1-4.662-2.612-.235-5.785-.22-8.086.249z" fill-rule="evenodd"/></svg>