<svg fill="none" viewBox="0 0 130 98" xmlns="http://www.w3.org/2000/svg"><path clip-rule="evenodd" d="m38.2425.238447c-1.5731.307133-3.9816 1.571323-5.3246 2.794823-3.0121 2.7445-4.4657 6.60028-3.9308 10.42783.1198.8573.2759 1.7094.3466 1.8931.1112.2886-.3597.3496-3.4539.4478-5.0617.1606-6.9945.8567-9.7996 3.5296-2.4702 2.3538-3.5976 5.001-3.5937 8.4379.0016 1.2171.138 2.5272.3266 3.1358l.3242 1.0454-5.18899 5.2609c-2.8539 2.8935-5.42782 5.5732-5.7199 5.9549-.81336 1.0628-1.731109 3.1864-1.997907 4.6224-.765892 4.1246.382399 7.7942 3.361797 10.7439 1.43904 1.4245 1.89286 1.7069 5.73286 3.5675 2.29354 1.1112 4.20084 2.051 4.23844 2.0886.0378.0377-.1929.844-.5127 1.7921-1.3582 4.0268-.4347 8.543 2.4185 11.8285.8774 1.0102 3.2585 2.65 4.6299 3.1882.4835.1898 2.6225 1.1861 4.7533 2.214l3.8746 1.869.1595 1.6956c.5136 5.4558 4.0345 9.5894 9.2907 10.9076 1.1208.2811 2.4447.3321 7.1425.275 5.3623-.065 5.8651-.1053 7.1703-.5725 2.366-.8473 3.6901-1.8855 8.651-6.7839l4.7804-4.7198 5.1091 5.0316c7.2291 7.1192 7.1594 7.0896 16.6613 7.0855 6.61-.0029 7.3284-.0994 9.8155-1.318 1.6375-.8024 3.6965-2.6297 4.6775-4.1514.384-.5965.953-1.7997 1.263-2.6736.749-2.1068.794-5.2611.106-7.348-.371-1.1242-.396-1.3606-.133-1.26 1.034.3951 3.325.5657 4.817.3592 2.916-.4038 5.008-1.4348 7.065-3.4822 2.226-2.2155 3.43-5.0919 3.446-8.2335.019-3.8037-.998-5.9943-4.424-9.534-1.36-1.4046-2.472-2.5905-2.472-2.6351.001-.0446 1.806-.1116 4.011-.1488 4.432-.075 5.88-.329 7.87-1.3812 2.609-1.3799 4.707-3.8529 5.729-6.7545.716-2.0318.716-5.6273-.001-7.6564-.818-2.3184-1.65-3.3853-6.26-8.0308l-4.387-4.4214-.042-1.7037c-.114-4.57-2.672-8.6111-6.67-10.5355-2.672-1.2863-5.143-1.5901-8.093-.9951l-.7.1411.346-1.0636c.532-1.638.484-4.8723-.102-6.7604-1.24-4.0006-4.8896-7.30643-9.0191-8.169419-.6909-.1443786-3.6-.24347619-7.1512-.24347619-9.2595 0-9.1679-.03959701-16.3473 7.06579519l-5.1036 5.0511-5.0057-4.91656c-7.2033-7.074986-7.5196-7.2145575-16.2455-7.1762753-3.0044.0131253-5.902.1095983-6.4391.2143823zm5.3643 1.409443c2.5269.65517 3.191 1.18368 10.3368 8.22695 4.3916 4.32876 7.0275 6.76876 7.4171 6.86606.3325.0829.8762.0838 1.2087.0022.3928-.0965 2.9904-2.5061 7.4172-6.88007 5.5078-5.4422 7.05-6.8453 8.0503-7.3259 4.4732-2.147961 9.2444-1.4171 12.5925 1.92942 3.6132 3.61143 4.1484 9.40645 1.249 13.52825-.3587.5102-7.2675 7.5049-15.3528 15.5439l-14.7007 14.6163-14.5922-14.69c-8.0257-8.0798-14.8275-15.0349-15.1147-15.4557-2.6386-3.8652-2.5006-8.86861.347-12.59051 2.5211-3.29489 7.0567-4.830117 11.1418-3.7709zm-4.12 4.04938c-1.854.45764-3.3965 1.66691-4.2884 3.36139-.796 1.51274-.845 4.10954-.1052 5.59794.349.7024 4.1268 4.6024 13.1904 13.6175l12.7013 12.6331h1.0931 1.0932l12.6966-12.7396c11.4572-11.496 12.7391-12.853 13.1325-13.8993 1.5865-4.2211-1.4147-8.62638-5.8949-8.65241-2.6761-.01575-2.7044.00613-12.1364 9.37761-6.2764 6.2363-8.5995 8.4133-8.9778 8.4133-.3777 0-2.7031-2.1727-8.9548-8.3674-6.3806-6.322-8.6985-8.48461-9.4828-8.84687-1.2397-.5727-2.9232-.77767-4.0668-.49526zm3.5303 1.64176c.5516.22882 3.6038 3.10637 9.3973 8.85957l8.58 8.5208h.9705.9707l8.4703-8.3987c5.6874-5.6395 8.7885-8.5575 9.4392-8.8817.7932-.39551 1.2516-.46857 2.5274-.40273 1.3225.06825 1.7131.18682 2.5803.78336 1.9669 1.35279 2.6976 3.99207 1.7113 6.18067-.5808 1.289-24.8942 25.5944-25.6025 25.5944-.564 0-25.1716-24.2573-25.6986-25.3327-.4962-1.0131-.6433-2.6091-.3424-3.7195.2954-1.09008 1.501-2.51418 2.633-3.10985.9866-.5191 3.2218-.56723 4.3635-.09362zm-2.8352 4.17717c-.2666.3196.8417 1.4838 9.9838 10.4871 7.1302 7.0216 10.5056 10.2001 11.0071 10.3648 1.4918.4903 1.6993.3192 12.5705-10.3567 6.4997-6.3826 10.1953-10.1651 10.152-10.3909-.2213-1.1572-.9197-.5629-10.9688 9.3345-5.485 5.402-10.1876 9.9348-10.4507 10.0733-.2646.1393-.6725.1789-.914.0885-.2398-.0896-4.9415-4.6174-10.4482-10.0616-5.5069-5.4442-10.1517-9.8987-10.3223-9.8987-.1703 0-.4446.1619-.6094.3597zm-12.769 6.1301c.7589.189 1.9456.7141 2.6373 1.1667.7639.5 6.9928 6.5431 15.8718 15.3986 8.038 8.0165 14.641 14.6529 14.6731 14.7474.032.0947-6.6458 6.7696-14.8399 14.8333-13.7592 13.5405-15.0183 14.7212-16.4698 15.4439-3.0843 1.5359-6.4122 1.5941-9.4204.1652-1.6318-.7753-3.5172-2.4177-4.4525-3.8788-2.0922-3.2688-2.1399-8.0248-.1132-11.2805.3125-.5018 3.5165-3.8656 7.1203-7.4751s6.655-6.8333 6.7805-7.1642c.5002-1.3174.265-1.6217-6.5141-8.4278-3.5623-3.5762-6.8504-7.0656-7.3075-7.7538-1.2031-1.8119-1.6268-3.5845-1.4971-6.2643.0936-1.9324.1949-2.3645.9043-3.8511 1.5518-3.2529 4.8083-5.6332 8.209-6.0003 1.7498-.1888 2.5337-.1284 4.4182.3408zm76.9651.7456c3.891 2.0644 6.185 6.5978 5.526 10.9213-.485 3.186-1.053 3.9733-7.661 10.6285-8.0489 8.1055-7.7523 7.7658-7.7523 8.8731 0 .9103.051.9684 6.7773 7.716 6.073 6.0925 6.858 6.9621 7.56 8.3695 2.162 4.3417 1.313 9.2914-2.147 12.5133-1.198 1.115-3.374 2.4321-4.019 2.4321-.114 0-.488-.369-.831-.8203-.343-.4511-1.061-1.2881-1.595-1.8595-.9548-1.0222-.9611-1.039-.3935-1.039.8635 0 2.6565-.7414 3.6085-1.4917 1.91-1.5059 2.738-4.5545 1.918-7.0652-.358-1.097-.97-1.7636-8.9276-9.7153-6.5948-6.5903-8.5437-8.6603-8.5437-9.0747 0-.4145 1.9012-2.433 8.3391-8.8534 9.3232-9.2982 9.4562-9.4682 9.4592-12.1447.005-3.0407-1.915-5.429-4.997-6.2155l-.9334-.2384.9084-.984c.5-.5414 1.155-1.3532 1.457-1.8045.302-.4511.646-.8203.764-.8203s.786.3027 1.483.6727zm-82.081 3.4195c-.7525.2553-1.492.762-2.3467 1.6072-1.483 1.4668-2.0718 3.0171-1.8733 4.9321.2499 2.4098.449 2.6546 9.5054 11.6907 4.6474 4.6372 8.4485 8.5256 8.4468 8.6408-.0066.4056-.4521.874-8.6101 9.0506-5.9241 5.9379-8.3674 8.5328-8.7232 9.2643-1.5441 3.1748-.2486 6.9264 2.9297 8.484 1.2812.6276 1.5726.6867 3.0224.6108 1.0699-.0558 1.9344-.2448 2.5937-.5668.7101-.3468 4.5424-4.0214 13.5942-13.0352l12.6053-12.5527.1175-1.0382.1176-1.0382-12.7228-12.655c-10.4445-10.3887-12.9171-12.7401-13.8082-13.1303-1.4468-.6342-3.4387-.7425-4.8483-.2641zm3.7105 1.1938c.7776.2187 2.6878 2.0235 13.603 12.8519 8.0521 7.9878 12.6758 12.7289 12.6367 12.9573-.0341.1979-5.6169 5.9335-12.4066 12.7455-9.185 9.2151-12.5883 12.4956-13.296 12.8152-3.4119 1.5411-7.0873-.8396-7.089-4.5921-.0007-.949.1321-1.6766.3986-2.1876.2198-.4211 4.1873-4.5556 8.8167-9.1877 8.8639-8.8692 8.983-9.0156 8.4562-10.4075-.1351-.3577-3.9534-4.3522-8.6615-9.0618-9.2878-9.2903-9.3337-9.3491-9.0636-11.6178.3839-3.2271 3.4215-5.2117 6.6055-4.3154zm75.2485.0846c1.08.4485 2.203 1.5326 2.707 2.614.501 1.0745.536 2.9007.078 3.9992-.229.5491-3.113 3.5861-8.8729 9.3448-5.6281 5.6268-8.5664 8.7176-8.6301 9.0784-.2299 1.3003.1497 1.7518 8.6446 10.2793 5.6204 5.6426 8.5194 8.7093 8.7874 9.2971.443.9704.522 2.4382.194 3.6116-.664 2.3755-4.012 4.1349-6.2532 3.2866-.3103-.1175-6.3247-5.9269-13.3652-12.91l-12.8008-12.6964 13.2555-13.1218 13.2555-13.122h1.0914c.6002 0 1.4588.1526 1.9088.3392zm-77.3714 4.0652c-.2084.1161-.3789.3152-.3789.4425 0 .1271 4.5244 4.8074 10.0544 10.4005 8.2507 8.3451 10.0671 10.289 10.1256 10.8358.0659.6169-.6822 1.4174-10.0799 10.7862-5.5832 5.566-10.1091 10.2456-10.0577 10.3992.0516.1538.2655.3848.4756.5139.3918.2404 2.0049-1.3259 16.7979-16.3093 4.2464-4.3012 4.5108-4.7013 4.1222-6.242-.0997-.3962-2.7952-3.2562-7.7938-8.2698-4.2029-4.2154-8.6705-8.7303-9.9287-10.033-2.5497-2.6408-2.7946-2.8259-3.3367-2.524zm73.5693 1.5492c-.9584.9966-5.5162 5.6093-10.1285 10.25-6.4044 6.4441-8.4224 8.6021-8.5395 9.133-.3562 1.6145-.3762 1.5904 9.63 11.633 11.3112 11.3525 11.0207 11.0813 11.4695 10.7105.1856-.1536.3096-.4017.2736-.5513-.035-.1494-4.5145-4.7675-9.9537-10.2624-5.4393-5.495-9.9788-10.1805-10.088-10.4126-.1181-.2511-.1181-.5924 0-.8424.1092-.2312 4.6922-4.9649 10.1849-10.5189 8.3654-8.4592 9.9488-10.1576 9.7558-10.4626-.4405-.6967-.8719-.4775-2.6041 1.3237zm-83.3967 5.2055c.1301.2422.6872.991 1.2377 1.6639l1.0013 1.2235-4.9362 4.9534c-5.64892 5.6693-5.7999 5.9086-5.60717 8.8964.22153 3.4377 2.83589 5.7955 6.41897 5.7898 2.3838-.0037 3.1253-.513 8.5336-5.8603l4.8015-4.7472 1.307 1.3454c.7188.74 1.3069 1.4779 1.3069 1.6396 0 .1616-2.25 2.5211-4.9997 5.2433-5.5386 5.4831-6.3445 6.0436-9.4531 6.574-7.35872 1.2561-13.905601-5.8464-12.02241-13.043.69557-2.6577 1.41772-3.6196 6.78379-9.0329 2.77282-2.7974 5.12012-5.086 5.21622-5.086.0962 0 .2813.1982.4116.4401zm104.6658 3.2472c1.398 1.4344 2.335 2.6159 2.798 3.5292 2.84 5.5992.641 11.9604-5.053 14.617-1.465.6836-1.901.7805-3.911.8722l-2.263.103-3.506-3.4655c-3.855-3.8096-4.023-4.112-2.894-5.1891l.613-.5843 1.86 1.8725c2.431 2.4483 3.518 3.0217 5.705 3.0092 1.998-.0113 2.946-.3878 4.411-1.7526 1.812-1.6871 2.432-4.3126 1.595-6.7576-.281-.8195-.861-1.5799-2.447-3.2072l-2.08-2.1331 1.403-1.5179c.772-.8348 1.463-1.5254 1.535-1.5348.073-.0094 1.078.9531 2.234 2.139zm-99.7544 2.1871 1.4948 1.4994-4.6417 4.5612c-3.4323 3.373-4.625 4.6775-4.5775 5.0065.165 1.1414.8621.6361 5.5386-4.0151l4.6428-4.6177 1.5307 1.5353 1.5304 1.5352-4.721 4.7063c-2.8649 2.8558-5.0725 4.8763-5.6147 5.1388-1.7196.8323-4.17753.4252-5.6258-.9322-1.41442-1.3254-1.92231-3.7628-1.16433-5.5878.21823-.5257 2.02429-2.4958 5.10763-5.5713 2.6236-2.6168 4.823-4.7579 4.8876-4.7579.0649 0 .7903.6746 1.6125 1.4993zm97.6434 4.1347c1.438 2.9132-.265 6.3409-3.508 7.0634-.996.2218-1.371.2056-2.448-.1061-1.098-.3176-1.548-.6355-3.28-2.3138l-2.007-1.9456 1.561-1.5612 1.561-1.5613 1.838 1.7529c1.505 1.4348 1.909 1.7148 2.23 1.544.216-.1151.392-.331.392-.48s-.791-1.0537-1.758-2.0106l-1.758-1.7397 1.588-1.5915 1.588-1.5914 1.717 1.6958c1.017 1.0043 1.948 2.1641 2.284 2.8451zm-24.3479 37.1173c.3861.634.912 2.0064 1.1746 3.0654.4308 1.7374.4512 2.0852.2174 3.6996-1.1406 7.8713-9.9542 11.8782-16.527 7.5141-.5439-.3612-3.9747-3.6088-7.624-7.2168l-6.6348-6.56-1.0215.1146c-1.0026.1127-1.1465.2385-7.8696 6.8897-6.0639 5.9989-7.0122 6.8512-8.2769 7.4394-2.512 1.1682-4.9453 1.4373-7.353.8129-6.6551-1.7255-9.9683-8.7799-7.0284-14.9644.8575-1.804.7801-1.7231 21.0783-22.0564l9.4483-9.4645 14.859 14.7892c9.632 9.5872 15.1046 15.193 15.5576 15.9372zm-30.8484-23.4711c-.4655.1249-4.4178 3.9245-13.445 12.9254-12.7501 12.7132-12.7865 12.7521-13.1579 14.0454-.8903 3.0986.4382 6.2428 3.2554 7.705.4116.2135 1.4307.4117 2.4183.4699 3.0181.1782 2.6634.4412 12.3699-9.1736 6.553-6.4911 8.7083-8.5014 9.1142-8.5014s2.5581 2.0088 9.1087 8.5023c9.7096 9.625 9.3375 9.3496 12.3901 9.1737 1.3614-.0785 1.9467-.2248 2.7324-.6831 2.806-1.6367 3.9314-4.8404 2.7783-7.9082-.42-1.1174-1.4481-2.2064-13.0213-13.793-8.8483-8.8587-12.7602-12.6329-13.2245-12.7596-.3626-.0986-.956-.0999-1.3186-.0028zm13.4526 13.5878c9.4404 9.404 12.4569 12.537 12.7958 13.2893.8419 1.868.4358 4.1273-.9986 5.5549-1.4663 1.4595-4.053 1.8916-5.8641.9794-.5857-.2951-3.9675-3.4798-9.2169-8.68-4.5606-4.5175-8.4175-8.293-8.5709-8.3902-.1536-.0969-.6707-.1778-1.1492-.1798-.8525-.0033-1.0382.1639-9.3401 8.4068-9.1679 9.1026-9.4146 9.2995-11.6569 9.2995-3.6616 0-6.0896-3.6884-4.6013-6.9906.6494-1.4409 24.9014-25.5943 25.699-25.5943.4351 0 3.1477 2.587 12.9032 12.305zm-13.9719-4.9684c-.4376.1892-4.8723 4.416-10.8691 10.3602-8.885 8.8067-10.094 10.0838-9.8377 10.3911.1606.1925.409.3503.5518.3503.1429 0 4.7927-4.4543 10.3333-9.8987 5.5404-5.4444 10.2647-9.972 10.4983-10.0617.235-.0901.6387-.0496.9028.0906.2631.1396 4.9705 4.6674 10.4612 10.0617 5.4905 5.3945 10.1019 9.8081 10.2471 9.8081.1455 0 .4-.1626.5655-.3612.2683-.3218-.8136-1.4584-9.9175-10.4193-5.7772-5.6866-10.5262-10.1885-10.926-10.3579-.8711-.3692-1.079-.3653-2.0097.0368z" fill="#000" fill-rule="evenodd"/></svg>