<svg enable-background="new 0 0 50.248 78.044" viewBox="0 0 50.248 78.044" xmlns="http://www.w3.org/2000/svg"><g clip-rule="evenodd" fill-rule="evenodd"><path d="m50.037.166c.137 12.253.192 24.369.048 36.207-1.813.255-3.704.145-5.607.145-5.468 0-11.22.157-16.773-.048-.259-.905-.145-2.085-.145-3.239 0-1.123-.077-2.3.097-3.239 3.456-.176 7.397-.096 11.215-.097 2.173 0 4.305.208 4.883-1.354.184-.499.102-1.264.097-2.03-.012-1.496-.001-2.784 0-4.302 0-1.432.122-2.706-.87-3.142-.712-.313-2.235.164-2.466-.725-.363-1.15 1.648-.637 2.32-.967 1.372-.673 1.015-2.681 1.016-5.076 0-2.58.231-4.818-1.644-5.462-1.092-.375-2.864-.145-4.399-.145-10.084-.002-21.097-.055-30.941.144-.259 1.837-.144 3.762-.144 5.704 0 5.779-.047 11.724.144 17.306 2.402.177 5.03.097 7.639.097 2.584 0 5.18-.107 7.492.097.126 1.959.225 4.44.049 6.38-.844.261-1.768.145-2.659.146-6.293.001-12.864.173-19.239-.049-.128-11.893-.237-24.491-.05-36.255 11-.192 22.714-.193 34.178-.194 1.906 0 3.831.001 5.752 0 2.794 0 5.304-.048 8.024-.048.697.001 1.423-.101 1.983.146z"/><path d="m38.193 11.187c.16 1.52.16 3.7 0 5.221-8.562.135-17.268.236-25.911.048-.223-1.394-.246-3.765 0-5.269 7.104-.145 14.382-.146 21.705-.145 1.413 0 2.841-.119 4.206.145z"/><path d="m38.241 20.275c.053 1.674.21 3.511 0 5.172-8.476.133-17.304.246-25.959.048-.158-1.505-.161-3.667 0-5.172 5.108-.211 10.616-.165 16.001-.193 3.324-.018 6.781-.097 9.958.145z"/><path d="m50.085 41.545c.127 10.488.147 21.38.146 31.905 0 1.472.091 2.924-.146 4.302-4.08.209-8.252.192-12.423.193-4.149.001-8.308-.001-12.473 0-4.218.001-8.479-.151-12.665.048-2.048.098-4.144.037-6.187-.048-2.109-.088-4.203.189-6.139-.097-.145-11.346-.146-22.705-.145-34.08 0-.697-.112-1.453.145-2.127 5.312-.365 11.081.153 16.58-.097 1.791-.082 3.586-.136 5.27.097.157 1.894.162 4.439 0 6.333-4.573.293-10.242-.135-14.889.242-.261 1.068-.145 2.256-.145 3.432 0 3.428-.079 7.224.097 10.538 1.208.229 2.508.159 3.771.145 8.764-.095 18.615-.141 27.457 0 .16 1.25.161 3.15 0 4.399-8.88.105-18.337.146-27.36.145-1.273 0-2.546-.112-3.77.145-.341 1.051-.255 3.173-.048 4.303 1.426.205 2.902.096 4.399.097 10.567.001 21.528.025 31.953-.146.259-1.027.146-2.178.145-3.335 0-3.361.074-7.146-.096-10.249-1.169-.262-2.493-.145-3.867-.145-9.176 0-18.585.073-27.312-.048-.16-1.249-.16-3.15 0-4.399 10.102-.385 21.183.058 31.131-.29.275-1.283.173-3.333 0-4.641-1.24-.262-2.575-.145-3.915-.145-3.829 0-8.059.085-11.941-.097-.174-1.011-.085-2.135-.097-3.19-.012-1.048-.1-2.198.145-3.142 7.364-.148 14.962-.2 22.379-.048z"/></g></svg>