<svg enable-background="new 0 0 79.674 66.925" viewBox="0 0 79.674 66.925" xmlns="http://www.w3.org/2000/svg"><g clip-rule="evenodd" fill-rule="evenodd"><path d="m4.434.089c2.401-.167 5.252-.048 7.816-.048 3.988 0 7.393.048 11.483.048 1.303 0 2.665-.118 3.812.048 2.085.302 3.563 1.745 3.956 3.764.345 1.77.094 3.945.146 6.079.057 2.368-.048 3.982-.049 5.935-.001 14.135.002 28.403 0 42.7 0 2.208.109 4.277-.578 5.597-.694 1.329-1.917 2.337-3.667 2.509-1.938.19-3.957 0-6.176 0-3.763 0-8.005-.048-12.352-.048-2.295 0-4.306.201-5.79-.386-1.422-.563-2.503-1.706-2.847-3.33-.224-1.055-.09-2.264-.144-3.57-.155-3.684.158-7.636.048-11.291-.22-7.296.068-14.553-.048-21.857-.04-2.468.048-4.952.048-7.382 0-2.517-.165-5.072-.048-7.527.115-2.418-.186-4.843.097-7.14.304-2.489 2.151-3.953 4.293-4.101z"/><path d="m38.497.186c1.434-.127 3.3-.049 4.825-.049 9.354.001 18.214.098 28.129.097 1.628 0 3.349-.16 4.583.145 1.616.399 3.046 1.766 3.426 3.521.374 1.727.145 4.074.146 6.176 0 5.101.015 10.374 0 15.584-.003 1.032.05 2.154-.097 3.04-.308 1.858-1.532 3.207-3.137 3.715-1.471.467-3.692.242-5.597.241-9.419 0-19.133-.048-28.9-.048-2.2 0-3.89.111-5.211-.579-1.226-.64-2.218-1.714-2.509-3.281-.203-1.09-.097-2.473-.097-3.763 0-1.302-.062-2.619.145-3.666.399-2.027 1.962-3.488 3.908-3.764 1.02-.145 2.23-.048 3.426-.048 5.847-.001 11.824.048 17.659.048.975 0 2.225-.005 3.377.048 1.108.051 2.235 0 2.268-1.158.034-1.206-.961-1.191-2.461-1.254-5.909-.249-11.481-.097-17.369-.096-2.191 0-4.554.232-6.852-.048-2.031-.248-3.661-1.801-4.004-3.811-.194-1.139-.097-2.489-.097-3.764 0-1.262-.099-2.5.193-3.667.482-1.925 1.816-3.405 4.246-3.619z"/><path d="m46.314 34.345c6.695-.014 14.726.096 21.953.096 2.446 0 5.021-.217 7.237.048 2.007.241 3.521 1.69 3.956 3.57.388 1.673.038 4.138.097 6.224.117 4.176-.001 8.076 0 12.641.001 2.16.268 4.476-.097 6.176-.334 1.562-1.459 3.033-3.088 3.522-1.609.483-4.082.241-6.32.241-9.473.001-19.316-.097-29.142-.096-1.157 0-2.289.103-3.185-.097-1.76-.393-3.268-1.904-3.57-3.667-.186-1.076-.097-2.501-.097-3.86 0-1.388-.112-2.683.145-3.763.554-2.322 2.49-3.75 5.452-3.619 2.766.122 5.798.048 8.733.048h8.685c.954 0 2.924-.064 4.535 0 1.451.058 3.433.276 3.232-1.254-.122-.933-.826-1.11-2.412-1.11-5.83.001-11.621-.049-17.466-.048-2.123 0-5.061.199-6.948-.096-2.001-.313-3.5-1.932-3.859-3.957-.276-1.556-.035-3.943-.048-5.645-.004-.492-.072-1.043.096-1.737.5-2.06 2.083-3.426 4.053-3.619 1.295-.126 2.663 0 4.005 0 1.316.002 2.667.005 4.053.002z"/></g></svg>