<svg enable-background="new 0 0 78.614 78.569" viewBox="0 0 78.614 78.569" xmlns="http://www.w3.org/2000/svg"><g clip-rule="evenodd" fill-rule="evenodd"><path d="m27.482 19.391c.117.682 1.174.364 1.821.394 4.652.216 7.682 2.543 9.005 6.199.86 2.38.655 5.304-.345 7.283-.995 1.972-2.45 3.347-4.379 4.33-1.005.512-2.13.894-3.396.984-1.284.092-2.679 0-4.232 0-8.421.001-17.427-.021-25.784-.197-.258-3.059-.148-6.23-.148-9.448 0-8.788-.001-17.727 0-26.571 0-.757-.115-1.547.148-2.264 8.444-.204 16.996-.038 25.489-.049 2.909-.004 5.61.154 7.431 1.082 3.367 1.716 6.22 6.321 4.478 11.466-1.193 3.523-4.053 6.107-8.464 6.397-.564.038-1.495-.179-1.624.394z"/><path d="m39.883 38.484c-.285-1.508-.105-3.063-.148-4.625-.133-4.792-.089-9.732 0-14.615.088-4.793 0-9.621 0-14.517 0-.787.031-1.579 0-2.361-.029-.735-.131-1.548.197-2.214 8.359.163 17.043-.24 25.489.098 1.445.059 2.826-.094 4.084.049 3.539.402 6.133 2.528 7.431 5.314.891 1.912 1.187 4.766.394 7.086-1.007 2.948-3.233 5.299-6.594 6.102-.591.142-.932.261-1.82.296-.672.026-1.704-.12-1.723.394-.025.681 2.116.423 2.805.492 3.284.331 5.536 1.891 6.987 4.133 1.059 1.635 1.814 3.654 1.575 6.201-.21 2.232-1.184 4.061-2.461 5.412-1.263 1.336-2.956 2.422-5.067 2.805-2.335.424-5.107.148-7.727.148-2.727-.001-5.433-.014-7.824-.05-5.232-.079-10.488.174-15.598-.148zm32.427-21.946c1.643-.889 2.841-2.279 3.543-4.134 1.77-4.67-1.233-8.663-4.33-10.038-1.831-.813-4.429-.64-7.036-.64-7.81 0-15.189-.087-22.931-.05-.059.024-.112.053-.147.099-.24.219-.148 1.389-.148 2.116v2.214c0 9.019-.144 17.655 0 26.622.023 1.422-.136 2.863.148 4.231 7.615.414 15.584-.076 23.472.197 2.441.084 5.46.207 7.282-.542 3.375-1.386 6.285-5.512 4.38-10.235-1.038-2.572-3.598-4.761-6.938-4.92-1.167-.057-2.454.162-3.838-.147-.077-1.093-.148-2.552 0-3.642 2.784-.016 4.822-.199 6.543-1.131z"/><path d="m27.482 59.201c.146.684 1.175.442 1.772.442 2.127 0 3.917.513 5.117 1.378 2.651 1.681 4.636 4.327 4.478 8.562-.146 3.936-2.555 6.388-5.216 7.825-1.953 1.181-4.826 1.04-7.627.983-8.482-.17-17.586.124-25.834-.196-.182-6.436-.098-12.919-.099-19.388-.001-5.403-.059-10.895 0-16.583.008-.736-.124-1.55.147-2.264 8.358-.13 17.038.049 25.293.049 1.549 0 2.929-.042 4.183.049 3.512.256 6.193 2.564 7.48 5.266.938 1.969 1.288 4.6.443 7.037-1.194 3.444-4.071 6.224-8.415 6.446-.573.03-1.583-.263-1.722.394zm7.185-4.626c1.126-1.313 1.92-2.903 1.919-5.167 0-4.058-2.905-7.156-6.495-7.726-1.053-.167-2.219-.104-3.396-.148-1.159-.043-2.374 0-3.543 0-7.098.001-14.562-.111-21.355-.049-.412.553-.246 1.308-.246 1.968-.001 10.35 0 20.831 0 31.1 0 .693-.113 1.453.147 2.116 7.589.29 15.831-.015 23.423.196 2.678.075 5.462.178 7.332-.59 1.79-.736 3.24-2.068 4.084-3.789.929-1.896 1.066-4.279.197-6.446-1.135-2.826-3.446-4.624-6.988-4.872-1.119-.078-2.354.082-3.69-.196-.133-.994-.22-2.729.05-3.642 4.119.241 6.804-.705 8.561-2.755z"/><path d="m39.883 78.343c-.489-6.117.152-12.687-.148-19.142-.147-3.19 0-6.51 0-9.743.001-2.448.097-4.889.05-7.283-.014-.699-.252-1.507.196-2.116 8.428.146 16.91-.187 25.391.099 1.374.046 2.858-.082 4.085.05 3.532.379 6.16 2.531 7.479 5.265.942 1.952 1.173 4.692.443 7.037-.595 1.908-2.07 3.72-3.642 4.822-1.142.8-2.687 1.438-4.773 1.574-.527.035-1.689-.075-1.723.395-.048.696 2.178.39 2.854.442 2.446.188 4.303 1.387 5.659 2.657 1.431 1.341 2.417 3.133 2.755 5.511.738 5.192-2.597 8.919-6.249 10.137-2.109.704-5.007.493-7.824.492-2.924 0-5.902.061-8.217-.049-5.585-.266-10.866.259-16.336-.148z"/></g></svg>