<svg enable-background="new 0 0 26.626 76.514" viewBox="0 0 26.626 76.514" xmlns="http://www.w3.org/2000/svg"><g clip-rule="evenodd" fill-rule="evenodd"><path d="m17.594 15.786c.646.811 1.399 1.148 1.55 2.481.182 1.621-.001 3.537 0 5.32 0 2.266.441 5.209-.414 6.662-1.509 2.566-6.772.979-10.434 1.652.483.422 1.304.311 2.015.311h2.272c2.103 0 4.431.152 5.683-.516.811-.676 1.429-1.723 1.549-3.152.066-.785-.165-1.807.155-2.531 1.854-.182 4.353-.254 6.25-.051.331.996.252 2.182.207 3.203-.045 1.002-.262 2.039-.568 2.789-1.196 2.918-4.098 5.826-7.852 6.146-1.457.123-3.125.051-4.7.051-1.646.002-3.327.109-4.856 0-2.206-.156-3.849-1.152-5.217-2.064-1.624-1.594-3.101-3.647-3.203-6.922-.031-1.025-.096-2.152.156-3.152 2.062-.332 4.945.158 6.922-.258.275-.988.155-2.049.155-3.098-.002-7.367-.163-15.152.051-22.47 1.022-.127 2.383-.156 3.409-.154 3.411.006 7.734-.559 8.109 2.789.221 1.965 0 3.783 0 5.992v2.996c.001 2.025.088 3.299-1.239 3.976zm-4.752-9.814c-.197 1.647-.052 3.68-.052 5.477 0 .416-.162 1.033.258 1.238.421-.297.259-1.002.259-1.549-.001-1.221 0-2.453 0-3.615 0-.596.129-1.262-.207-1.654-.128-.006-.214.027-.258.103zm.052 12.603c.002.072-.024.113-.052.156-.097 1.432-.069 3.617 0 5.268.024.553-.181 1.154.206 1.551.488-.254.311-.998.311-1.602-.001-1.273 0-2.609 0-3.822 0-.59.14-1.312-.362-1.551-.035 0-.069 0-.103 0z"/><path d="m26.478 50.601c-1.974.471-4.858.033-7.076.258-.276.785-.155 1.662-.154 2.48.001 7.674.12 15.637-.052 22.984-2.589.025-5.999.338-8.523.104-1.274-.119-2.467-.939-2.841-1.91-.26-.678-.155-1.926-.155-2.996.001-2.145 0-4.082 0-6.303.001-1.066-.128-2.281.104-3.047.205-.678.692-.893 1.033-1.395-.302-.543-.968-.824-1.239-1.445-.173-.398-.238-.973-.259-1.5-.114-2.963.096-7.246 0-10.33.33-1.205.917-2.07 2.118-2.428 1.171-.348 2.765-.08 4.339-.154 1.537-.072 3.075.062 4.287-.207-.511-.406-1.286-.258-1.963-.258-.733 0-1.473 0-2.221 0-1.524 0-3.073-.189-4.442 0-2.647.363-2.841 3.258-2.944 6.197-.876.336-1.996.084-3.048.104-1.056.021-2.127.174-3.047-.051-.325-.512-.207-1.188-.207-1.756 0-1.506-.008-2.941.361-4.082.35-1.078 1.313-2.547 2.015-3.357.941-1.088 2.574-2.105 4.184-2.633 1.983-.65 4.67-.303 7.129-.414 1.227-.057 2.474-.133 3.719-.051 2.381.156 4.829 1.234 6.198 2.736 1.982 2.178 3.286 5.151 2.684 9.454zm-13.119.515c-.062.025-.117.057-.155.104-.268.818-.141 2.379-.155 3.719-.006.586-.016 1.201 0 1.758.015.51-.058 1.217.465 1.342.248-1.469.103-3.059.103-4.699 0-.774.115-1.582-.155-2.223-.035-.001-.069-.001-.103-.001zm.052 12.76c-.061.023-.117.055-.155.104-.239.189-.155 1.086-.155 1.703 0 1.383-.017 2.389 0 3.514.009.562-.201 1.342.361 1.498.351-.35.207-1.004.207-1.551 0-1.211 0-2.455 0-3.615 0-.568.152-1.242-.207-1.601-.003-.032-.007-.062-.051-.052z"/></g></svg>