<svg enable-background="new 0 0 66.675 67.228" viewBox="0 0 66.675 67.228" xmlns="http://www.w3.org/2000/svg"><path clip-rule="evenodd" d="m66.518.211c.109 20.242.13 42.024.133 62.771 0 1.363.109 2.748-.133 4.09-22.053.129-44.329.227-66.372.089-.178-2.717-.089-5.466-.089-8.224-.003-19.542-.152-39.206.044-58.681 8.199-.169 16.507-.134 25.028-.134 2.808.001 5.654.13 8.447 0 5.295-.246 11.213-.043 16.626-.044 4.164-.001 8.207 0 12.358 0 1.326 0 2.659-.105 3.958.133zm-29.031 4.223c-.246.002-.685.032-.934.133.339.515.949.801 1.468 1.111 1.624.972 3.29 1.923 4.89 2.89 4.881 2.895 9.831 5.765 14.715 8.625 1.244.728 2.422 1.505 3.646 2.223.401.235.812.58 1.289.578.188-1.185.089-2.466.089-3.779 0-2.57 0-5.201 0-7.824 0-1.331.106-2.647-.134-3.868-8.335-.071-16.941-.168-25.029-.089zm-28.94.089c-1.296-.031-2.622-.134-3.778-.044-.05.004-.102.028-.178.044-.483.105-.312 1.594-.312 2.4.001 6.057-.037 13.203.045 18.893 1.129.908 2.495 1.52 3.778 2.268.628.365 1.279.748 1.912 1.111.644.37 1.293.861 2.045.934.295-.592.195-1.318.178-1.956-.059-2.083.052-4.257.044-6.402-.008-2.367-.136-4.76-.044-7.068.135-3.381.128-6.778 0-10.091-1.137-.22-2.419-.058-3.69-.089zm5.112.089c-.046.273.291.391.445.489 1.531.98 3.129 1.796 4.668 2.711 2.632 1.566 5.237 3.19 7.913 4.668 2.242 1.239 4.479 2.567 6.668 3.823.438.252.923.607 1.467.578.293-.601.171-1.372.178-2.089.02-1.806.001-3.731 0-5.645 0-1.632.147-3.305-.089-4.579-6.93-.146-14.649-.166-21.25.044zm25.563 6.758c-.212.737-.089 1.814-.089 2.8v13.648c0 .737-.185 1.621.267 2.001.734-.152 1.378-.634 2-1.023 1.301-.81 2.666-1.477 3.957-2.267 2.59-1.585 5.261-3.188 7.869-4.667.646-.368 1.462-.703 1.822-1.334-.531-.528-1.233-.868-1.867-1.245-3.915-2.326-7.772-4.604-11.736-6.935-.62-.365-1.546-.994-2.09-1.067-.052.021-.101.047-.133.089zm-22.762.177c-.151.384-.089 1.477-.089 2.223.001 4.482-.018 9.054-.044 13.248-.007 1.05-.235 2.215.178 3.112.781-.162 1.432-.681 2.09-1.067 3.995-2.343 8-4.815 12.003-7.069.652-.368 1.408-.707 1.866-1.333-.463-.592-1.186-.905-1.822-1.289-3.337-2.019-6.525-3.804-9.914-5.779-.588-.343-1.283-.688-2-1.111-.639-.377-1.576-1.028-2.134-1.067-.064.024-.109.068-.134.132zm45.968 9.603c-.888.249-1.978 1.094-3.023 1.689-1.015.578-2.001 1.21-2.89 1.734-5.331 3.139-10.573 6.339-16.004 9.425-.478.271-1.253.6-1.378.933-.084.222.003.56 0 .934-.015 1.771-.045 3.472-.045 5.157 0 .688-.127 1.427.178 1.956 1.165-.293 2.056-1.068 3.023-1.6.997-.549 1.96-1.09 2.934-1.689 2.219-1.241 4.452-2.543 6.535-3.868.725-.46 1.508-.798 2.223-1.245 2.869-1.791 5.873-3.331 8.625-5.246.081-2.286.044-4.973.044-7.291 0-.28.125-.714-.178-.889-.015 0-.03 0-.044 0zm-31.875 14.048c1.018-.565 1.964-1.207 3.023-1.823.634-.369 1.262-.585 1.422-1.022.179-.485.013-1.436.045-2.134.078-1.691-.032-2.503.044-4.134.043-.899.102-2.051-.622-1.69-1.338.669-2.608 1.562-3.956 2.356-3.686 2.17-7.424 4.297-10.98 6.491-.303.186-.81.269-.89.711.551.524 1.255.884 1.911 1.245 2.08 1.141 4.033 2.322 6.046 3.467 2.344 1.334 4.74 2.781 7.113 4.001.333.171.743.443 1.156.356.354-1.002.128-2.484.178-3.734.025-.636.232-1.469-.178-1.867-.751-.031-1.347.969-2.09.978-.285.003-.653-.306-.977-.489-.726-.409-1.286-.646-1.912-1.022-.298-.179-.719-.354-.756-.711.43-.521 1.017-.754 1.423-.979zm-26.185-4.313c-.029.097-.083.238-.089.312-.078 1.013 0 2.139 0 3.334.001.975-.101 1.974.134 2.667 1.111-.317 1.796-.952 2.801-1.512.426-.237.918-.531 1.378-.8.328-.192 1.248-.514 1.245-.934-.003-.326-.891-.779-1.156-.934-1.417-.825-2.734-1.597-4.179-2.223-.053.023-.101.049-.134.09zm58.281 24.495c0-3.036.045-7.042.045-10.625 0-2.806-.005-5.842-.045-8.713-.008-.586.217-1.984-.444-1.689-.901.402-1.727 1.036-2.578 1.556-2.617 1.599-5.208 3.111-7.869 4.623-1.767 1.004-3.459 2.133-5.201 3.112-1.339.752-2.653 1.543-3.956 2.267-.422.234-.943.449-1.156.934.708.715 1.654 1.132 2.534 1.6.892.475 1.785.978 2.667 1.467 1.764.979 3.537 1.965 5.246 3.023 1.726 1.068 3.555 1.942 5.334 2.934.875.488 1.732 1.045 2.623 1.512.9.472 1.681 1.209 2.712 1.423.277-.816.088-2.389.088-3.424zm-46.233-17.693c-.27.377-.15.9-.134 1.333.089 2.282-.044 4.697-.044 7.202 0 3.089.068 6.008.089 8.713.003.485-.165 1.039.178 1.467.795-.181 1.461-.671 2.134-1.067 2.056-1.207 4.074-2.3 6.046-3.557 2.02-1.155 4.071-2.414 6.046-3.556.667-.386 1.46-.679 1.912-1.333-1.069-1.036-2.61-1.599-3.912-2.401-4.05-2.293-7.903-4.782-12.137-6.891-.066.024-.112.067-.178.09zm-6.535 1.156c-1.842 1.096-3.921 2.225-5.557 3.379-.068 3.528-.045 7.04-.045 10.58.001 3.539-.013 7.075.134 10.492 1.656.181 3.934.089 5.823.089.656 0 1.327.099 1.867-.133.337-.906.129-2.205.134-3.245.027-6.757 0-13.752 0-20.139 0-.778.161-1.65-.267-2.089-.625.115-1.421.668-2.089 1.066zm29.296 11.825c-.144.289-.089.988-.089 1.556 0 2.882.074 5.444.045 7.913-.013 1.06-.187 2.116.089 3.112 7.248.135 14.788.08 22.228-.044-.002-.287-.349-.413-.533-.534-.664-.435-1.319-.857-2.001-1.245-5.576-3.173-11.058-6.309-16.67-9.424-.803-.445-2.076-1.258-2.935-1.467-.065.024-.109.069-.134.133zm-4.134 1.556c-.032-.814.225-1.807-.534-1.467-.52.233-.897.509-1.378.8-3.919 2.377-7.959 4.64-11.825 6.979-2.189 1.325-4.394 2.658-6.579 3.868-.425.235-.995.388-1.2.889 1.857.134 3.809.098 5.734.089 3.976-.018 8.179.121 11.825-.044 1.312-.06 2.624.161 3.868-.133.177-3.67.23-7.461.089-10.981z" fill-rule="evenodd"/></svg>