<svg enable-background="new 0 0 66.137 66.759" viewBox="0 0 66.137 66.759" xmlns="http://www.w3.org/2000/svg"><path clip-rule="evenodd" d="m57.436 27.828c-1.332.135-2.997-.063-4.268.133-.771.606-1.125 1.546-1.689 2.311-3.906 5.305-7.938 10.655-11.825 16.048-.059 6.712.118 13.683-.089 20.316-1.936.121-4.376.198-6.224 0-.161-4.94-.09-10.258-.089-15.515 0-.761.108-1.844-.134-2.089-.209-.212-1.314-.133-2-.133-3.708.001-6.987.089-10.447 0-6.058-.157-12.794-.041-18.805-.133-.643-.01-1.31.13-1.866-.134-.022-.591.504-.988.8-1.422 1.513-2.222 3.244-4.349 4.801-6.58 3.081-4.415 6.681-8.554 9.602-13.159.025-1.923-.064-4.071.089-5.735 1.146-.232 2.782.026 4.001-.133.552-.187.748-.794 1.066-1.2.975-1.239 1.963-2.546 2.891-3.868 2.88-3.854 5.714-7.773 8.535-11.736.927-1.302 1.858-2.605 2.934-3.778 2.267.018 5.113-.173 7.425.044-.012.56-.494.94-.801 1.334-.948 1.217-1.831 2.546-2.756 3.823-3.07 4.238-6.168 8.472-9.336 12.67-.622.824-1.335 1.645-1.733 2.623 1.072.37 2.217.09 3.379.133.528.02 1.127.031 1.777 0 .604-.028 1.301.127 1.823 0 .468-.114.909-1.019 1.244-1.467 1.154-1.541 2.348-3.13 3.423-4.624 2.301-3.192 4.482-6.167 6.847-9.291.773-1.022 1.514-2.091 2.4-2.979 1.832-1.832 4.145-3.088 7.513-3.245.634-.03 1.704-.081 2.445 0 3.176.346 6.306 2.487 7.335 5.157 1.101 2.852-.091 5.41-1.467 7.335-2.163 3.028-4.675 6.335-6.668 9.291-.063 1.983.143 4.233-.133 6.003zm-11.158-6.224c.845-.004 2.708.297 3.557 0 .306-.107.877-.944 1.2-1.378.427-.574.783-1.07 1.067-1.556.669-1.144 1.509-2.192 2.178-3.067.806-1.052 1.564-2.072 2.223-2.978.752-1.033 1.562-1.982 2.179-3.067.215-.378.492-.92.489-1.422-.01-1.49-1.611-2.2-3.112-2.045-2.52.26-3.641 2.232-4.891 3.779-.423.524-.796 1.106-1.199 1.645-2.037 2.716-4.12 5.529-6.091 8.225-.418.571-.924 1.101-1.111 1.778 1.07.282 2.234.092 3.511.086zm-6.401 6.313c-.053.021-.101.047-.134.089-.222.192-.133 1.212-.133 1.734v3.734c0 .631-.106 1.258.133 1.734.649-.323.953-1.06 1.379-1.645.881-1.212 1.755-2.401 2.622-3.601.436-.601 1.015-1.165 1.2-1.912-1.433-.301-3.415-.051-5.067-.133zm-11.737.045c-1.74 0-3.994-.035-5.513.044-1.635 2.134-3.275 4.288-4.846 6.446-.68.934-1.492 1.744-1.956 2.801-.679.803-1.242 1.722-1.866 2.579-.373.387-.633.854-.934 1.289-.299.43-.773.812-.846 1.423 2.137.161 4.662.169 6.891.088 1.125-1 1.903-2.324 2.801-3.512 1.832-2.423 3.56-4.862 5.335-7.291.886-1.213 1.913-2.387 2.579-3.734-.474-.234-1.075-.133-1.645-.133zm4.712 7.246c-1.024 1.104-1.928 2.435-2.845 3.69-.444.607-.948 1.182-1.378 1.778-.439.607-.946 1.203-1.156 1.911 1.515.17 3.868.133 5.513 0 .236-.704.133-1.559.133-2.4 0-1.449-.037-2.876-.044-4.179-.002-.268.112-.675-.178-.8-.015 0-.029 0-.045 0z" fill-rule="evenodd"/></svg>