<svg enable-background="new 0 0 66.601 65.434" viewBox="0 0 66.601 65.434" xmlns="http://www.w3.org/2000/svg"><g clip-rule="evenodd" fill-rule="evenodd"><path d="m66.466.222c.022 7.913.262 16.018.045 24.139-.036 1.337.037 2.702 0 4.045-.038 1.355-.054 2.76 0 4.09.107 2.696.01 5.42.044 8.135.104 8.295-.053 16.526-.089 24.673-.036.009-.044.045-.089.045-19.349.159-38.67.044-58.191.044-1.38 0-2.762-.044-4.135-.044-1.326 0-2.662.048-3.957-.134-.143-15.87-.045-32.791-.044-48.9 0-4.274-.069-9.588-.045-14.27.004-.645-.002-1.8.179-1.956.031-.042.08-.068.133-.089 19.286.21 38.725.089 58.058.089 1.355 0 2.7.046 4.046 0 1.348-.047 2.724-.07 4.045.133zm-16.76.845c-14.456-.001-29.536-.09-44.055-.09-1.346.001-2.713-.14-4-.044-.452.034-.565.032-.623.711-.17 2 0 5.011 0 6.935.002 18.817-.088 37.542.089 55.792 1.282.227 2.6.133 3.913.133 1.342 0 2.702.094 4.045.044 2.675-.099 5.358.145 8.047.045 5.318-.199 10.745-.001 16.137 0 5.418 0 10.843.035 16.227 0 5.378-.036 10.72.036 16.004-.134.034-.01.052-.037.044-.089.24-.572.134-1.233.134-1.822.001-19.174-.002-38.37 0-57.525 0-1.277.107-2.6-.134-3.868-5.237-.251-10.527-.088-15.828-.088z"/><path d="m59.443 2.445c.023.728-.276 1.434-.533 2.045-.258.609-.596 1.225-1.023 1.645-5.799.098-11.073.089-17.115.089-.929 0-2.465-.172-2.533.4-.095.785 1.379.578 1.911.578 4.904 0 9.892-.016 14.804-.133.764-.019 1.585-.13 2.223.178-.107 1.019-.864 1.388-1.334 2.045-.518.608-.976 1.276-1.733 1.645-3.952.017-8.335.258-12.314.134-.919-.029-3.601-.34-3.601.489 0 .758 2.586.517 3.379.489 2.779-.097 6.148.011 9.113-.089.609-.02 1.248-.093 1.777.134-.099.627-.935.923-1.467 1.245-2.486 1.505-5.153 2.571-9.424 2.4-.84-.033-2.849-.268-3.245.178-.417.469-.128 2.225-.134 3.023-.008 1.146-.039 2.314 0 3.246.091 2.161-.174 4.384-.934 5.69-1.494 2.569-4.341 3.846-8.313 3.957-.629.018-1.295.174-1.911-.089-.233-.526-.122-1.126-.134-1.689-.08-4.066-.054-8.263-.045-12.537.006-2.376-.053-4.993.045-7.157.112-2.473.572-4.027 1.867-5.423.956-1.03 2.284-1.936 3.868-2.312 1.691-.401 3.973-.155 5.912-.222 3.929-.136 7.933-.089 12.092-.089 1.007 0 2.044-.044 3.067-.044 1.605 0 2.971-.044 4.535-.044.456-.004.962-.077 1.2.218z"/><path d="m25.657 16.493c.296 1.355.133 2.854.133 4.313 0 2.606.066 5.124.045 7.735-.01 1.101.134 2.232-.178 3.246-.52.283-1.12.178-1.646.178-1.917 0-3.294-.162-4.712-.756-2.308-.966-4.053-2.826-4.623-5.424-.76-3.456 1.042-6.318 2.934-7.69 1.611-1.169 3.402-1.599 6.312-1.734.524-.026 1.322-.168 1.735.132z"/><path d="m25.744 46.945c-2.604.248-5.526.089-8.357.089-.922 0-1.876.108-2.711-.133-.205-1.471-.09-3.236-.09-4.979 0-2.205-.309-4.84.268-6.313.287-.732 1.065-1.705 1.644-2.178.964-.788 2.424-1.425 4.223-1.289 2.418.184 4.559 1.859 5.068 3.912.401 1.613.05 3.817.089 5.512.022.95-.033 1.892 0 2.801.033.887.059 1.781-.134 2.578z"/><path d="m38.015 46.945c-3.514.153-7.461.147-11.024 0-.318-1.81-.09-3.573-.09-5.557 0-1.734-.26-4.265.223-5.602.774-2.143 3.406-4.116 6.358-3.6 2.035.355 4.089 1.755 4.578 3.823.185.782.089 1.786.089 2.756v5.512c-.001.915.105 1.831-.134 2.668z"/><path d="m13.565 32.941c.206 1.923.088 4.091.089 6.268 0 2.158-.019 4.35-.045 6.357-.007.469.141.934-.089 1.334-.819.274-1.746.094-2.667.089-1.853-.01-3.79-.044-5.646-.044-.937 0-1.882.099-2.712-.133-.277-1.083-.088-2.285-.088-3.512 0-2.928.072-6.044.044-8.98-.005-.486-.102-1.108.267-1.467 1.61-.079 3.763-.044 5.69-.044 1.819-.001 3.62.004 5.157.132z"/><path d="m38.059 62.727c-.831.236-1.78.133-2.712.133-2.706 0-5.755.073-8.356-.089-.128-1.576-.111-3.569-.135-5.557-.022-1.957-.108-3.964.135-5.423.215-1.295 1.314-2.142 2.089-2.934.941-.539 1.876-1.039 3.2-1.111 2.536-.14 4.782 1.431 5.513 3.112.705 1.621.34 5.254.356 7.646.009 1.309.098 2.849-.09 4.223z"/><path d="m25.701 48.501c.229 3.398.079 7.024.089 10.491.004 1.23.211 2.661-.133 3.778-.806.239-1.701.102-2.623.134-1.86.064-3.771-.044-5.646-.044-.91 0-1.852.104-2.666-.133-.17-2.162-.09-4.702-.09-7.202 0-1.837 0-3.698 0-5.557 0-.539-.15-1.197.267-1.556 2.735-.147 6.422.058 9.024 0 .627-.014 1.198-.136 1.778.089z"/></g></svg>