<svg enable-background="new 0 0 63.313 72.719" viewBox="0 0 63.313 72.719" xmlns="http://www.w3.org/2000/svg"><path clip-rule="evenodd" d="m49.358 36.469c.329.379.861.475 1.299.625 1.42.488 2.716.981 3.992 1.684 1.569.863 3.033 2.032 4.234 3.319 2.371 2.542 4.334 6.137 4.425 10.728.14 6.951-3.03 11.785-7.071 14.72-2.098 1.524-4.626 2.687-7.36 3.512-2.78.838-5.936 1.481-9.332 1.347-.259-1.028-.145-2.372-.145-3.656 0-1.286-.111-2.624.145-3.656 2.413-.477 4.723-.673 6.782-1.347 3.901-1.277 7.163-3.871 8.082-8.178.465-2.177.14-4.886-.722-6.927-1.531-3.631-5.067-5.831-9.092-7.168-2.968-.986-6.92-1.299-10.776-1.443-6.477-.243-13.094.139-17.703 2.309-3.705 1.745-6.564 4.126-7.359 8.9-.448 2.684.21 5.047 1.154 6.783 2.86 5.259 9.441 6.914 17.318 6.976.429-.68.32-1.582.336-2.405.084-4.279-.047-9.157-.048-13.807 0-1.855-.104-3.693.145-5.34 1.068-.333 2.509-.201 3.849-.144 1.342.056 2.762-.057 3.897.192.36 1.115.149 2.342.097 3.512-.058 1.246.055 2.5.048 3.752-.026 4.826-.102 9.66 0 14.528.025 1.236.059 2.469 0 3.704-.057 1.187.06 2.401-.192 3.56-.839.26-1.708.144-2.55.144-2.663 0-5.342-.059-7.89-.192-3.319-.174-6.482-.776-9.284-1.491-5.658-1.443-10.189-4.272-13.037-8.467-2.136-3.146-3.187-8.121-2.261-13.133.267-1.452.841-2.747 1.443-3.896 1.251-2.391 2.868-4.324 4.954-5.821 1.619-1.162 3.243-1.974 5.389-2.694.607-.204 1.33-.324 1.828-.818-.735-.526-1.634-.667-2.405-1.01-2.354-1.045-4.465-2.155-6.206-3.896-2.135-2.135-3.905-5.363-4.474-9.044-.687-4.442.402-8.442 1.972-11.257 1.635-2.937 3.92-5.104 6.734-6.737 1.837-1.113 3.99-2.006 6.35-2.645 2.341-.634 4.946-1.204 7.697-1.107.336.961.24 2.312.24 3.608 0 1.295.108 2.66-.144 3.704-.833.434-1.768.34-2.598.481-2.452.416-4.878 1.196-6.735 2.357-2.461 1.539-4.476 3.707-5.003 7.12-.917 5.931 2.468 9.651 6.061 11.834 1.317.8 2.689 1.449 4.186 1.876 6.002 1.715 15.473 1.819 21.984.433 3.321-.707 6.228-1.882 8.418-3.704 2.123-1.767 4.008-4.367 4.09-8.034.106-4.804-2.563-8.126-5.726-9.814-2.328-1.243-5.48-2.134-9.187-2.502-.508-.05-1.168-.092-1.78-.144-.55-.047-1.456-.145-1.731.096-.37.324-.174 1.78-.145 2.454.121 2.762-.17 5.676 0 8.13.06.868-.082 1.771-.097 2.694-.041 2.63.145 5.761-.145 8.082-1.11.229-2.508.176-3.848.144-1.316-.032-2.711.059-3.753-.241-.101-4.623-.181-9.873-.145-14.672.027-3.501-.021-6.681 0-10.68.006-.916-.19-3.033.193-3.416.363-.364 3.714-.268 4.232-.288.774-.031 1.603.116 2.405.144 2.436.084 4.872.177 7.072.433 6.061.706 10.843 2.542 14.624 5.484 3.547 2.759 6.615 7.384 6.495 13.518-.065 3.3-.737 5.869-1.925 8.13-2.072 3.948-5.15 6.382-9.573 7.986-.552.203-1.241.313-1.728.771z" fill-rule="evenodd"/></svg>