<svg enable-background="new 0 0 84.061 41.228" viewBox="0 0 84.061 41.228" xmlns="http://www.w3.org/2000/svg"><g clip-rule="evenodd" fill-rule="evenodd"><path d="m1.641.054c.922-.138 1.65.348 1.934.94.754 1.574-.707 3.058-2.299 2.56-.598-.187-1.087-.933-1.15-1.463-.138-1.152.528-1.89 1.515-2.037z"/><path d="m8.433 1.412c.209 1.792-1.316 2.671-2.613 2.09-1.645-.737-1.115-3.44.732-3.501 1.027-.033 1.567.615 1.881 1.411z"/><path d="m10.993.106c2.882-.473 2.599 4.368-.313 3.5-1.164-.347-1.48-2.039-.836-2.873.262-.341.64-.544 1.149-.627z"/><path d="m15.8.158c2.173-.22 2.575 3.445.313 3.605-2.25.16-2.658-3.368-.313-3.605z"/><path d="m32.414 1.047c.566-.412 1.023-.814 1.881-.836 3.602-.093 3.553 5.359.105 5.381-2.304.015-3.468-2.691-1.986-4.545z"/><path d="m38.527.942c1.062-1.272 3.459-.586 4.127.47 1.455 2.298-1.053 5.045-3.447 3.919-1.428-.671-2.063-2.967-.68-4.389z"/><path d="m45.998.262c1.18-.132 2.266.589 2.664 1.307 1.006 1.809-.34 3.88-2.037 4.023-1.851.155-3.433-1.543-2.82-3.553.255-.845 1.066-1.649 2.193-1.777z"/><path d="m51.85.315c2.66-.569 4.232 2.789 2.299 4.598-1.647 1.54-4.463.356-4.492-1.933-.014-.958.367-1.39.836-2.038.411-.249.753-.57 1.357-.627z"/><path d="m62.926.315c2.457-.318 4.35 1.42 4.338 3.762-.014 2.388-2.191 4.329-4.703 3.762-1.969-.444-3.262-2.397-2.82-4.65.316-1.62 1.454-2.65 3.185-2.874z"/><path d="m72.486 7.891c-1.977.137-3.252-.631-3.918-1.724-1.551-2.544.27-5.734 2.979-5.904 2.799-.175 4.928 2.416 3.867 5.225-.463 1.223-1.492 1.975-2.928 2.403z"/><path d="m79.644.367c2.881-.366 5.262 2.252 4.129 5.172-1.289 3.321-6.566 3.09-7.315-.627-.281-1.391.328-2.857 1.045-3.553.434-.421 1.132-.864 2.141-.992z"/><path d="m18.621 2.248c.443-.479.838-.838 1.567-.837 2.644.009 2.103 4.602-.679 3.553-.855-.322-1.433-1.548-.888-2.716z"/><path d="m1.432 4.808c1.867-.533 2.975 1.781 1.777 3.03-1.051 1.096-3.018.467-3.135-1.097-.079-1.037.534-1.671 1.358-1.933z"/><path d="m23.637 8.57c-.774.077-1.203-.19-1.619-.47-1.372-1.384.084-3.827 1.984-3.082 1.51.59 1.385 3.27-.365 3.552z"/><path d="m33.93 6.323c1.252-.197 2.283.547 2.664 1.149 1.604 2.532-1.443 5.196-3.709 3.762-2.119-1.341-1.207-4.557 1.045-4.911z"/><path d="m62.822 8.622c1.709-.337 3.211.759 3.762 1.567 1.891 2.773-.523 6.319-3.553 6.008-1.369-.14-2.752-1.077-3.188-2.508-.193-.638-.314-1.679-.053-2.612.311-1.102 1.431-2.231 3.032-2.455z"/><path d="m1.588 9.458c2.35-.552 2.738 3.181.785 3.553-2.662.598-3.004-3.395-.785-3.553z"/><path d="m23.95 9.458c2.378-.602 2.853 2.991.993 3.5-1.593.26-2.527-.566-2.404-2.194.279-.626.615-1.197 1.411-1.306z"/><path d="m33.982 12.227c1.752-.244 3.094 1.001 3.029 2.717-.059 1.571-1.357 2.563-2.559 2.612-2.008.082-3.328-1.986-2.561-3.814.261-.621 1.025-1.367 2.091-1.515z"/><path d="m23.062 13.795c1.396-.168 2.498 1.149 1.881 2.56-.23.528-.926 1.034-1.62 1.045-2.079.032-2.714-3.309-.261-3.605z"/><path d="m1.641 14.16c-.002.001.021-.048.053-.052 2.549-.322 2.512 3.603.262 3.657-2.317.056-2.461-3.318-.315-3.605z"/><path d="m19.875 16.668c1.109-.161 2.041.431 2.09 1.672.105 2.635-4.078 2.348-3.606-.313.116-.641.623-1.229 1.516-1.359z"/><path d="m62.978 16.982c1.646-.189 3.021.706 3.605 1.567 1.365 2.016.246 4.73-1.463 5.59-2.892 1.457-6.351-1.203-5.225-4.859.361-1.169 1.455-2.111 3.083-2.298z"/><path d="m71.756 16.982c2.125-.052 3.82 1.473 3.867 3.657.076 3.735-4.549 5.023-6.688 2.664-1.199-1.321-1.137-3.898.051-5.172.694-.743 1.461-1.118 2.77-1.149z"/><path d="m79.75 17.034c2.557-.307 4.305 1.591 4.233 3.814-.051 1.519-.934 2.62-1.881 3.187-2.18 1.304-5.66.016-5.748-3.187-.061-2.207 1.462-3.582 3.396-3.814z"/><path d="m34.086 18.183c2.016-.201 3.83 1.986 2.508 4.075-.803 1.267-2.723 1.57-3.918.679-1.95-1.451-.873-4.527 1.41-4.754z"/><path d="m40.146 18.183c1.131-.082 2.168.625 2.508 1.202 1.248 2.119-.584 4.01-2.193 4.075-1.385.056-2.592-.959-2.769-2.247-.247-1.786.96-2.921 2.454-3.03z"/><path d="m46.103 18.183c2.143-.122 4.064 2.683 2.037 4.598-1.135 1.071-3.693.935-4.389-1.045-.661-1.885.735-3.46 2.352-3.553z"/><path d="m51.955 18.236c2.094-.268 3.791 1.839 2.664 3.918-.486.898-1.734 1.618-3.135 1.254-2.268-.589-2.328-3.923-.523-4.911.289-.157.553-.205.994-.261z"/><path d="m1.798 18.758c2.73-.166 2.288 4.396-.575 3.5-1.365-.427-1.477-2.605-.312-3.292.251-.147.542-.187.887-.208z"/><path d="m6.447 18.81c2.32-.38 2.72 2.793 1.045 3.448-2.433.954-3.592-3.03-1.045-3.448z"/><path d="m11.045 18.862c.732-.208 1.34.158 1.725.47 1.033 1.291.129 3.177-1.463 3.083-.838-.05-1.25-.58-1.619-1.202-.239-1.279.309-2.187 1.357-2.351z"/><path d="m15.748 18.915c2.404-.416 2.594 3.26.627 3.553-1.661.248-2.661-1.823-1.725-2.978.212-.262.629-.494 1.098-.575z"/><path d="m19.77 21.266c2.47-.529 2.745 2.926.993 3.448-1.742.519-3.283-1.549-1.934-3.03.298-.156.499-.408.941-.418z"/><path d="m.596 23.878c.965-.879 2.602-.348 2.978.627.613 1.588-.826 2.872-2.246 2.456-1.256-.368-1.732-2.016-.732-3.083z"/><path d="m34.033 24.139c2.062-.25 3.738 1.972 2.613 3.971-1.051 1.868-4.014 1.606-4.807-.261-.551-1.297.168-2.864 1.098-3.396.33-.19.434-.233 1.096-.314z"/><path d="m23.637 28.267c-.261 0-.521 0-.783 0-2.016-.46-1.774-3.562.313-3.657 2.112-.096 2.561 3.194.47 3.657z"/><path d="m62.769 25.184c1.387-.246 2.615.332 3.24.94 1.436 1.401 1.596 4.284-.105 5.695-1.293 1.072-3.355 1.179-4.701.261-.398-.271-1.102-.947-1.307-1.567-.336-1.01-.252-2.255 0-3.082.348-1.145 1.594-2.109 2.873-2.247z"/><path d="m1.746 28.11c1.29-.103 2.307 1.106 1.828 2.455-.719 2.03-4.283 1.043-3.448-1.306.184-.521.705-1.076 1.62-1.149z"/><path d="m24.055 29.155c1.299-.171 2.426.871 1.986 2.351-.449 1.506-3.262 1.704-3.553-.261-.15-1.004.485-1.947 1.567-2.09z"/><path d="m33.824 30.095c3.525-.71 4.242 4.637.941 5.225-3.225.571-4.022-3.804-1.828-4.963.325-.058.512-.255.887-.262z"/><path d="m1.537 32.812c2.76-.569 2.828 4.279-.314 3.5-1.584-.399-1.555-3.429.314-3.5z"/><path d="m22.592 36.992c-.506-.333-.856-.518-1.045-.993-.683-1.721 1.051-3.101 2.508-2.403 1.695.812 1.043 4.01-1.463 3.396z"/><path d="m62.822 33.491c1.984-.279 3.604.944 4.127 2.299 1.111 2.872-1.367 5.422-3.865 5.276-1.199-.07-2.691-.885-3.135-2.142-.976-2.757.453-5.092 2.873-5.433z"/><path d="m34.242 35.947c1.418-.056 2.604 1.016 2.717 2.403.316 3.806-5.588 3.852-5.328.052.095-1.419 1.191-2.399 2.611-2.455z"/><path d="m19.719 36.365c2.393-.569 2.8 2.79 1.148 3.448-2.635 1.051-3.555-3.155-1.148-3.448z"/><path d="m3.627 39.552c-.277.818-.94 1.43-1.986 1.358-2.629-.181-1.703-4.71.993-3.501.676.305 1.063.984.993 2.143z"/><path d="m6.395 37.358c1.164-.196 2.007.5 2.142 1.463.251 1.782-1.51 2.605-2.769 1.881-1.531-.882-.889-3.089.627-3.344z"/><path d="m12.613 40.545c-.623.6-1.894.486-2.456 0-1.237-1.071-.421-3.16 1.097-3.239 1.726-.09 2.53 1.97 1.359 3.239z"/><path d="m16.478 37.462c1.924.452 1.5 4.245-1.044 3.501-1.845-.53-1.42-4.166 1.044-3.501z"/></g></svg>