<svg enable-background="new 0 0 150.694 154.341" viewBox="0 0 150.694 154.341" xmlns="http://www.w3.org/2000/svg"><g clip-rule="evenodd" fill-rule="evenodd"><path d="m80.47 70.121c-.177-11.828-.1-23.72-.097-35.563.002-11.578-.149-23.221.097-34.393 3.951-.178 7.972-.098 12.002-.097s8.075.184 12.049 0c1.769-.083 4.118-.049 6.049-.049 1.921 0 3.854-.043 5.659 0 11.161.268 18.826 5.034 24.49 10.684 5.783 6.127 9.95 13.629 9.951 25.221.001 5.529-1.476 10.256-3.366 14.245-.945 1.995-2.026 3.826-3.269 5.513-6.077 8.253-15.275 14.338-29.27 14.586-5.591.1-11.34 0-17.27 0-5.668 0-11.391.085-17.025-.147z"/><path d="m66.616.165c.263.669.146 1.418.146 2.098.002 22.046.171 45.095-.049 67.858-1.341.267-2.738.146-4.098.146-4.116 0-8.277 0-12.439 0-4.167 0-8.316 0-12.439 0-12.067.001-25.165.183-37.563-.049-.022-.043-.043-.087-.098-.098-.046-22.677-.151-46.871.048-69.857 22.205-.172 44.923-.21 66.492-.098z"/><path d="m80.519 154.176c-.263-1.441-.146-2.932-.145-4.391.002-10.125-.076-20.845 0-31.075.065-8.732-.103-17.445.049-26.099.05-2.862-.188-5.691.097-8.488 11.435-.33 23.482.115 34.49-.147 3.752-.089 7.299.53 10.343 1.415 6.177 1.796 10.853 4.819 14.879 8.684 5.01 5.358 9.179 11.585 10.195 20.782.145 1.303.182 2.659.244 4.146.24 5.661-1.33 10.393-3.073 14.488-1.761 4.14-4.36 7.58-7.22 10.44-2.898 2.898-6.328 5.414-10.44 7.269-3.943 1.779-8.974 3.073-14.586 3.073-2.915 0-5.883 0-8.83 0-8.531.001-17.402.088-26.003-.097z"/><path d="m66.665 84.123c.208 1.312.145 2.699.145 4.098.002 19.093-.001 38.204 0 57.272 0 2.911.11 5.823-.145 8.684-16.606.179-33.235.145-49.857.146-5.576.001-11.136.081-16.684-.098-.175-21.798-.102-43.731-.098-65.857 0-1.422-.118-2.852.146-4.244 7.853-.089 15.716-.051 23.659-.049 2.629 0 5.296.121 7.903 0 2.809-.131 5.927-.05 8.83-.05 8.869.001 17.739-.036 26.101.098z"/></g></svg>