<svg enable-background="new 0 0 72.77 72.689" viewBox="0 0 72.77 72.689" xmlns="http://www.w3.org/2000/svg"><path clip-rule="evenodd" d="m19.221 16.083c-.249.905-.143 1.876-.143 2.81v20.287c0 2.085-.058 4.034.143 5.762.202 1.742.629 3.205 1.143 4.714.953 2.798 2.582 5.103 4.81 6.905 2.24 1.812 4.723 3.129 8.048 3.714 4.877.858 11.437.17 17.143.429 1.926.087 3.828-.113 5.715-.048 2.848.099 5.638-.034 8.571.048.923.026 1.871-.136 2.762.143.088 3.508.235 7.957-.047 11.62-5.351.192-10.941.142-16.524.143-5.626.001-11.282.179-16.667 0-10.772-.359-18.084-4.39-23.763-9.715-2.175-2.417-4.347-4.949-5.905-8.048-1.545-3.073-3.011-6.392-3.667-10.286-.675-4.013-1.132-8.678-.619-12.858 1.012-8.238 4.158-14.349 8.524-19.334.543-.62 1.036-1.355 1.619-1.905 4.123-3.887 9.171-7.149 15.477-8.905 1.852-.516 3.774-.85 5.809-1.143 2.067-.297 4.217-.271 6.572-.381 2.062-.096 4.884.012 6.857.238 6.371.732 11.2 2.731 15.524 5.333 2.789 1.678 5.138 4.158 7 6.905 1.926 2.838 3.371 5.971 4.334 9.572 1.048 3.921 1.066 8.64.285 12.524-.766 3.813-2.275 7.156-4.047 9.857-1.786 2.724-4.11 5.236-6.81 7.096-2.773 1.91-5.778 3.557-9.429 4.476-4.005 1.009-8.611 1.082-12.619.381-7.981-1.395-12.714-5.655-14.762-13.048-1.094-3.949-.823-8.715.524-12.048 1.358-3.361 3.188-5.842 6.524-7.429 1.661-.791 3.501-1.218 5.857-1.095 4.118.216 6.963 2.272 9 4.905 1.088 1.406 1.823 2.845 2.048 4.905.119 1.089.373 2.127.286 3.191-.264 3.214-1.12 5.515-3 7.429-2.46 2.625-6.355 5.006-11.524 3.714-3.278-.819-5.43-2.283-7.238-4.714-.242-.326-.512-.74-.81-1.19-.221-.334-.604-.903-1.142-.81-.721.125-.612 1.183-.333 1.953.733 2.027 2.043 3.476 3.333 4.81 1.806 1.867 4.294 3.165 7.19 3.714 7.059 1.339 12.778-1.276 16.048-4.953 2.322-2.384 4.066-5.587 4.857-9.667.836-4.31.095-9.213-1.714-12.096-1.278-2.335-3.07-4.215-5.238-5.666-2.228-1.492-4.816-2.334-8.524-2.334-7.017 0-14.618-.065-21.381.048-.04.008-.049.047-.097.047z" fill-rule="evenodd"/></svg>