<svg enable-background="new 0 0 76.998 75.522" viewBox="0 0 76.998 75.522" xmlns="http://www.w3.org/2000/svg"><path clip-rule="evenodd" d="m.224 0c1.743.836 4.199 2.321 5.913 3.308 5.791 3.332 11.689 6.727 17.34 10.073 1.93 1.143 3.882 2.226 5.814 3.357 1.908 1.119 3.755 2.355 5.662 3.458 1.946 1.125 3.911 2.218 5.864 3.308 1.955 1.091 3.816 2.341 5.863 3.257.262-.49.15-1.072.15-1.604.001-7.892-.085-16.761.149-25.007.671.092 1.367.54 2.006.902 4.342 2.46 8.722 5.151 13.079 7.717 2.5 1.473 5.075 2.84 7.567 4.31 1.25.737 2.449 1.541 3.708 2.255 1.242.704 2.554 1.335 3.658 2.255-.277.51-.89.68-1.353.952-3.243 1.904-6.635 3.931-9.973 5.864-2.891 1.673-5.788 3.304-8.67 4.961-.941.542-1.983.97-2.756 1.754.791.789 1.871 1.194 2.806 1.754 2.812 1.682 5.701 3.354 8.57 5.062 2.857 1.7 5.746 3.338 8.619 5.011.934.544 1.971.982 2.756 1.754-.816.783-1.882 1.208-2.856 1.754-.961.538-1.946 1.132-2.856 1.754-1.854 1.269-3.871 2.29-5.812 3.408-11.636 6.698-23.338 13.513-35.131 20.096-.998.776-2.144 1.384-3.257 2.004-1.124.627-2.222 1.342-3.458 1.804-.271-1.046-.15-2.156-.15-3.257.001-7.651.089-15.713-.101-23.253-.598-.068-1.081.384-1.554.651-6.21 3.52-12.504 7.126-18.691 10.776-.932.55-1.852 1.201-2.906 1.504-.325-.53-.2-1.187-.2-1.754-.001-12.169.001-24.533 0-36.934-.001-6.511 0-12.877 0-19.394 0-1.225-.023-2.602.1-3.708-.003-.087.036-.131.1-.152zm18.892 16.187c-3.349-2.026-6.729-3.949-10.123-5.813-1.373-.754-2.646-1.709-4.109-2.305-.127.006-.194.073-.2.2-.07 4.258-.049 8.576-.05 12.93-.001 1.961-.121 3.887.15 5.613.8-.134 1.443-.639 2.104-1.052.67-.418 1.387-.757 2.055-1.153 3.346-1.982 6.818-3.933 10.123-5.813.663-.377 1.44-.666 1.904-1.303-.525-.537-1.22-.92-1.854-1.304zm46.858.201c-2.058-1.205-4.064-2.338-6.064-3.558-2.67-1.63-5.412-3.16-8.119-4.711-.128.006-.258.01-.251.15-.071 5.973-.184 12.586.051 18.593.775-.085 1.45-.576 2.104-.953.676-.389 1.344-.81 2.005-1.203 4.027-2.396 8.305-4.436 12.127-7.016-.428-.653-1.214-.928-1.853-1.302zm-37.786 5.462c-.118 1.351-.104 2.979-.101 4.51.006 3.023 0 6.223 0 9.421 0 1.565-.11 3.158.15 4.661 1.08-.253 1.877-1.039 2.807-1.554 3.954-2.192 7.896-4.499 11.727-6.715.531-.308 1.212-.547 1.554-1.103-.514-.571-1.247-.87-1.904-1.253-3.399-1.979-6.639-3.817-10.023-5.813-1.137-.67-2.855-1.877-4.109-2.305-.064.021-.104.066-.101.151zm-7.117 1.203c-3.892 2.25-7.993 4.423-11.728 6.715-.634.39-1.435.601-1.853 1.253.526.526 1.213.888 1.853 1.253.668.38 1.339.756 2.005 1.152 3.272 1.946 6.678 3.783 9.923 5.713.646.384 1.285.904 2.055 1.002.27-1.407.15-2.928.15-4.46-.001-3.835.001-7.826 0-11.576 0-.739.115-1.524-.15-2.205-.033 0-.067 0-.101 0-.682.131-1.478.762-2.154 1.153zm-3.558 19.344c-3.529-2.037-7.062-4.166-10.624-6.164-.708-.296-1.292-.978-2.104-1.002-.27 2.916-.15 6.16-.15 9.371-.001 2.765-.028 5.634 0 8.319.003.33-.107.769.2 1.002.759-.174 1.4-.663 2.055-1.053 4.368-2.599 8.918-5.062 13.23-7.617.305-.181.757-.349.852-.751-1.037-.87-2.281-1.425-3.459-2.105zm46.306-.1c-3.626-2.284-7.507-4.463-11.175-6.565-.31-.177-.711-.476-1.104-.351-.182 5.241-.101 11.098-.1 16.437 0 .768-.116 1.55.15 2.255 1.442-.606 2.816-1.411 4.159-2.205 3.359-1.987 6.863-3.936 10.174-5.863.66-.385 1.435-.666 1.903-1.303-1.164-1.037-2.682-1.571-4.007-2.405zm-19.445-5.663c-3.904 2.273-7.895 4.5-11.727 6.715-.638.369-1.406.642-1.855 1.253 1.12 1.007 2.535 1.629 3.859 2.405 1.315.771 2.628 1.58 3.959 2.306 1.979 1.213 4.007 2.309 5.963 3.458.666.391 1.319.883 2.105 1.052.271-1.747.15-3.621.15-5.513-.001-3.762-.158-7.495-.05-10.875.021-.687.267-1.639-.251-1.955-.711.284-1.446.742-2.153 1.154zm-16.186 12.278c-.129 1.233-.043 2.762-.051 4.16-.019 3.575-.05 7.341-.05 10.925 0 1.2-.122 2.431.15 3.558.781-.149 1.456-.628 2.104-1.052.651-.425 1.332-.772 2.005-1.153 3.39-1.917 6.752-3.83 10.073-5.763.647-.377 1.367-.762 1.855-1.353-.494-.596-1.243-.873-1.905-1.253-3.391-1.949-6.622-3.87-10.022-5.863-1.184-.695-2.805-1.889-4.059-2.355-.063.019-.103.063-.1.149z" fill-rule="evenodd"/></svg>