<svg enable-background="new 0 0 60.242 79.716" viewBox="0 0 60.242 79.716" xmlns="http://www.w3.org/2000/svg"><g clip-rule="evenodd" fill-rule="evenodd"><path d="m6.617.16c.199 8.406.052 16.489.098 24.777.007 1.219.187 2.624-.049 3.561-.109.434-.55.858-.878 1.268-1.894 2.375-3.614 5.004-4.877 7.999-.182.431-.408 1.017-.78 1.317-.189-11.988-.099-24.519-.098-36.728 0-.759-.15-1.586.195-2.293 1.784.048 4.519-.222 6.389.099z"/><path d="m22.761.16c.203 2.875.098 6.013.098 9.218 0 3.172.04 6.41-.049 9.462-1.627.71-3.413 1.057-5.072 1.805-.518.233-1.002.68-1.609.585-.179-5.948-.099-12.401-.099-18.583 0-.828-.115-1.706.146-2.488 1.972-.161 4.614-.161 6.585.001z"/><path d="m25.639 71.516c.732.112 1.359.463 2.048.683 1.946.619 4.512 1.041 7.121.731 3.087-.366 5.852-1.481 7.95-2.829 1.626-1.044 3.034-2.351 4.39-3.707.453-.453.757-.985 1.171-1.512 1.612-2.053 2.93-4.4 3.756-7.023.887-2.819 1.394-6.233.976-9.511-.404-3.16-1.232-5.924-2.488-8.292-.626-1.181-1.411-2.204-2.146-3.268-.393-.569-.714-1.046-1.171-1.512-.435-.444-.899-.851-1.366-1.317-1.846-1.846-3.875-3.348-6.292-4.487-2.581-1.217-5.461-1.857-8.828-1.951-3.455-.096-6.414.511-9.072 1.609-4.97 2.054-8.903 5.764-11.462 10.096-1.399 2.369-2.233 5.048-2.634 8.145-.408 3.153-.127 6.885-.146 10.535-.009 1.699-.049 3.438-.049 5.17 0 1.729-.068 3.472 0 5.17.068 1.705.125 3.498.049 5.17-.077 1.716.136 3.394-.146 5.025-.999.148-2.21.114-3.366.146-1.145.032-2.368.089-3.316-.146-.04-8.945-.301-18.232-.098-26.63.044-1.835-.12-3.642 0-5.365.22-3.173 1.288-5.937 2.438-8.438 2.292-4.98 5.569-9.077 9.706-12.144 3.12-2.313 6.853-4.169 11.267-5.121 1.503-.324 3.236-.552 4.975-.634 7.749-.366 13.693 2.276 18.339 5.414.755.51 1.467 1.203 2.195 1.805 3.553 2.937 6.393 6.94 8.34 11.511 1.629 3.821 2.626 8 2.439 13.413-.164 4.751-1.577 9.044-3.414 12.486-1.87 3.506-4.211 6.346-7.072 8.779-1.357 1.154-2.906 2.354-4.682 3.268-3.416 1.757-7.651 3.24-12.828 2.878-1.215-.085-2.416-.178-3.56-.391-1.059-.196-2.108-.458-3.024-.927-.163-2.054-.161-4.777 0-6.829z"/><path d="m25.59 55.957c.729.135 1.197.735 1.902 1.024.77.315 1.774.541 2.877.537 2.046-.006 3.469-.885 4.633-1.951 1.339-1.226 2.426-2.916 2.244-5.462-.248-3.458-2.973-6.013-6.292-6.341-1.959-.193-3.479.461-4.731 1.463-1.125.9-2.129 2.159-2.536 3.756-.527 2.068-.244 4.787-.244 7.218.001 7.473.044 15.038-.048 22.241-2.008.24-4.799.203-6.877.049-.178-4.444-.098-9.002-.097-13.51 0-4.649-.15-9.292 0-13.608.151-4.379 1.39-7.596 3.658-9.95 2.398-2.489 4.706-3.976 9.023-4.585 2.531-.356 5.052.361 6.779 1.17 1.793.841 3.38 1.865 4.585 3.268 1.906 2.1 3.319 4.613 3.609 8.194.288 3.553-.787 6.851-2.438 9.121-1.611 2.215-3.872 4.12-6.682 5.121-2.85 1.016-7.358.881-9.364-1.122-.083-2.098-.081-4.534-.001-6.633z"/></g></svg>