<svg fill="none" viewBox="0 0 130 170" xmlns="http://www.w3.org/2000/svg"><path clip-rule="evenodd" d="m59.5959.0716791c-16.6453 2.0253409-28.2237 7.0379809-37.4611 16.2175209-5.0022 4.9713-8.3063 9.6564-12.0302 17.0594-6.39694 12.7171-9.567202 28.9601-10.0522571 51.5018-.5546539 25.7746 3.3080371 45.7926 11.1456571 57.7596 8.0108 12.232 19.7459 20.663 34.69 24.925 6.4726 1.845 11.1271 2.442 19.2118 2.464 7.805.021 9.8851-.209 16.3037-1.8 25.9495-6.432 43.6915-30.144 43.5905-58.259-.037-10.5065-2.447-18.4517-7.917-26.1007-12.978-18.1496-42.3432-22.1911-61.6495-8.4844-6.2102 4.4087-10.8292 10.1143-13.6377 16.8452-1.393 3.3382-2.8624 8.7969-2.4728 9.1849.1715.171 1.224-.156 2.3919-.743 7.9903-4.0134 16.6236-2.4691 21.118 3.778 2.1153 2.94 2.9515 6.06 2.9462 10.998-.0046 4.647-.5948 7.292-2.4416 10.941-2.2538 4.455-6.0327 8.186-10.1272 10-4.4174 1.956-10.2561 2.738-15.3823 2.059-11.7769-1.56-19.6724-9.393-22.294-22.116-.5558-2.699-.5757-9.852-.0359-13.103 1.8987-11.4424 8.4618-22.0508 17.6264-28.4915 10.1301-7.119 26.0609-10.8735 50.6237-11.9305 10.9467-.4711 16.3058-1.4666 22.7258-4.2221 10.086-4.3288 17.744-12.997 20.952-23.7174 1.646-5.5011 2.157-9.1139 2.372-16.7897l.208-7.4299-5.286-.62837c-6.6-.7842-11.712-1.77231-23.217-4.48748-18.7072-4.41433-24.0943-5.286176-33.734-5.4582823-3.8083-.0678529-7.4835-.0554912-8.1671.0279114zm6.3199 82.3406209c2.2627 1.4737 2.8351 4.9593 1.163 7.0814-1.0958 1.3903-2.072 1.866-3.8609 1.8808-1.9488.0159-3.3571-.7145-4.2977-2.2296-2.7385-4.4094 2.6301-9.5761 6.9956-6.7326z" fill="#000" fill-rule="evenodd"/></svg>