<svg enable-background="new 0 0 70.467 69.595" viewBox="0 0 70.467 69.595" xmlns="http://www.w3.org/2000/svg"><path clip-rule="evenodd" d="m33.982.039c8.763-.417 15.181 2.54 20.434 5.852 1.785 1.125 3.431 2.512 4.861 3.869 3.076 2.919 5.497 6.057 7.489 10.019 1.922 3.823 3.45 8.584 3.67 13.787.369 8.765-2.578 15.209-5.853 20.434-1.103 1.761-2.536 3.231-3.918 4.811-1.329 1.52-3.054 2.791-4.762 4.018-5.012 3.602-11.249 6.384-19.441 6.745-2.831.125-5.523-.309-8.085-.694-2.476-.372-4.764-1.138-6.745-1.983-6.317-2.7-11.053-6.273-14.829-11.457-4.235-5.816-7.439-13.34-6.695-23.61.478-6.609 3.002-11.775 5.802-16.069.531-.815 1.148-1.694 1.835-2.529.66-.802 1.283-1.68 1.984-2.381 1.451-1.45 2.971-2.843 4.712-4.067 1.692-1.189 3.439-2.392 5.455-3.272 3.923-1.715 8.481-3.476 13.986-3.472.034-.001.067 0 .1-.001zm-1.785 15.127v25.69c0 4.63-.099 9.001-.099 13.837 0 .933-.106 2.162.198 2.679.48.816 2.042.898 3.422.843 2.558-.103 2.604-1.053 2.579-3.62-.027-2.726 0-5.465 0-8.283 0-1.95.138-3.905.05-5.803-.09-1.922-.141-3.881-.05-5.803.183-3.842.05-7.312.05-11.258 0-2.886-.053-5.886 0-8.58.02-1.009.12-2.094-.199-2.629-.6-1.009-3.143-.832-4.513-.744-1.658.213-1.438 1.73-1.438 3.671zm-8.63-2.728c-4.433 1.171-7.751 3.108-10.564 5.704-2.013 1.856-3.372 3.648-4.711 6.149-.614 1.147-1.175 2.446-1.538 3.868-.361 1.418-.809 2.965-.942 4.514-.345 4.004.377 7.812 1.538 10.713 1.176 2.94 2.914 5.55 4.86 7.539 3.056 3.122 6.944 5.536 12.101 6.497 1.964.365 5.671 1.132 6.348-.596.394-1.005.269-3.32-.149-3.968-.441-.685-1.312-.752-2.331-.794-2.164-.086-3.951-.602-5.505-1.189-.982-.371-2.089-.886-2.976-1.488-2.673-1.816-4.908-3.951-6.348-7.042-.957-2.054-1.786-4.28-1.786-7.192 0-5.921 2.551-9.796 5.356-12.548 2.688-2.635 6.158-4.427 10.763-4.859.649-.062 1.483.019 2.083-.199.968-.352 1.227-1.483 1.19-2.827-.058-2.164-.434-3.091-2.579-2.976-1.601.086-3.31.298-4.81.694zm40.371 28.121c.628-2.657.789-5.184.545-7.886-.227-2.522-.918-4.843-1.835-6.894-1.708-3.823-4.386-7.04-7.886-9.572-2.438-1.764-5.603-3.268-9.126-3.968-1.862-.37-4.192-.78-5.456.05-.643.801-.781 3.79-.149 4.712.537.781 1.565.71 2.629.793 4.729.37 7.907 2.392 10.564 4.86 2.874 2.671 5.356 6.839 5.356 12.3-.001 5.916-2.512 9.545-5.356 12.3-2.435 2.357-6.138 4.555-10.564 4.86-1.506.105-2.528.077-2.976 1.19-.283.703-.35 2.747-.049 3.571.457 1.254 2.108 1.16 3.769.992 6.107-.619 10.837-3.274 14.036-6.349 2.839-2.953 5.42-6.399 6.498-10.959z" fill-rule="evenodd"/></svg>