<svg enable-background="new 0 0 85.097 68.768" viewBox="0 0 85.097 68.768" xmlns="http://www.w3.org/2000/svg"><g clip-rule="evenodd" fill-rule="evenodd"><path d="m53.458.183c.201.656.104 1.455.104 2.234 0 2.206-.081 4.859.104 7.117 1.1.407 3.077-.064 4.26.26.315.862-.135 2.49.26 3.273 1.624-.224 3.39-.597 5.351-.676 5.749-.229 10.556 2.083 13.663 4.624 4.297 3.514 7.855 8.827 7.896 16.521.04 7.58-3.592 13.089-7.896 16.52-2.235 1.782-4.857 3.209-8.156 4.052-3.3.844-7.265.767-10.858-.104-.52.986.04 3.054-.312 4.208-1.239.323-2.971-.166-4.208.156-.356.679-.208 1.599-.208 2.442 0 2.53.084 5.46-.104 7.844-6.512.211-13.287.09-19.689-.052-.341-3.357.044-6.997-.208-10.234-1.109-.416-3.119.071-4.312-.26-.3-1.38.092-3.451-.208-4.832-.869.05-1.663.397-2.494.624-2.474.676-5.704.953-8.728.519-3.63-.52-6.723-2.097-9.092-3.792-2.37-1.696-4.483-4.223-5.974-6.91-1.56-2.811-2.649-6.196-2.649-10.234 0-6.127 2.367-10.532 5.299-14.027 3.687-4.394 9.839-8.026 18.443-7.013 1.824.215 3.463.855 5.195 1.247.452-1.094-.093-2.865.312-4 1.195-.26 2.931.021 4.208-.156.367-1.308.208-3.097.208-4.78 0-.829 0-1.688 0-2.494 0-.798-.176-1.679.26-2.234 6.236-.059 13.09-.023 19.533.157zm-9.611 2.805c-2.234 0-5.193-.146-7.065.052-.251.673-.179 1.454-.208 2.182-.224 5.606.255 11.525-.104 16.884-.234.169-.884.123-1.195.052-.302-1.45-.104-3.104-.104-4.728 0-1.618.067-3.25-.156-4.727-.8-.144-2.081-.243-2.805 0-.25.786-.104 1.869-.104 2.961 0 1.052.157 2.225-.208 2.961-1.45-.628-2.72-1.462-4.208-2.078-1.491-.617-3.184-1.055-5.091-1.247-4.022-.403-7.645.665-10.338 2.183-2.659 1.497-4.749 3.452-6.442 6.182-1.646 2.655-2.875 5.794-2.909 9.714-.033 3.815 1.16 7.229 2.805 9.819 1.692 2.665 3.76 4.768 6.39 6.234 2.689 1.499 6.364 2.595 10.338 2.182 2.954-.307 5.238-1.089 7.325-2.182.688-.36 1.3-.921 2.13-1.039.337 2-.163 4.838.26 6.753.738.242 2.05.197 2.805 0 .284-3.103-.061-6.631.26-9.611.321-.081.944-.101 1.195.052.21 4.842.052 10.072.052 15.014 0 1.705-.125 3.393.156 4.987 2.14.365 4.492.084 6.753.156 2.302.073 4.732.14 7.014-.052.224-5.619.156-11.834.156-17.715 0-.805-.094-1.656.207-2.39.348-.019.857-.072 1.143.104.12 1.422.052 3.105.052 4.779 0 1.667-.124 3.382.156 4.78.722.169 2.083.169 2.805 0 .296-.826.095-1.823.104-2.805.009-.932-.044-1.985.208-2.702 2.978 1.198 5.724 2.212 9.715 2.026 3.476-.162 6.568-1.443 8.883-2.909 4.632-2.933 8.313-8.055 8.312-15.273 0-7.303-3.813-12.394-8.26-15.274-2.306-1.493-5.356-2.803-8.832-2.961-2-.091-3.742.132-5.351.519-1.542.372-2.897 1.096-4.468 1.455-.301-1.374.102-3.378-.26-4.572-.723-.17-2.082-.166-2.805 0-.293.64-.111 1.397-.104 2.13.012 1.212-.051 2.481-.052 3.74-.001 1.256.188 2.52-.104 3.584-.346.127-.976.169-1.247-.052-.221-6.249.159-12.896-.104-19.014-2.026-.271-4.341-.154-6.7-.154z"/><path d="m48.315 6.157c.262.579.204 1.941.052 2.598-1.346.412-3.474-.155-4.935.208-.233.798-.197 1.677-.208 2.546-.075 5.927-.029 12.864.104 18.858 1.322.444 3.664-.132 4.987.311.061.756.143 1.977-.052 2.649-1.377.237-3.494-.148-4.936.156-.268.586-.106 1.285-.104 1.922.024 8.44-.045 18.227-.156 26.651-.887.244-2.213.186-3.169 0-.244-1.015-.186-2.189-.155-3.325.218-8.173.052-16.696.052-24.573 0-6.701.052-14.19.052-21.352 0-1.548.052-3.414.052-5.299 0-.311-.128-1.426.312-1.455 2.312-.149 5.872.033 8.104.105z"/><path d="m31.067 37.38c.674.15.949.298 1.559.571.365.164 1.222.47 1.299.832.115.539-.641 1.575-.883 1.974-1.128 1.862-2.374 3.146-4.104 4.364-2.181 1.535-5.125 2.758-8.728 2.545-3.387-.2-6.1-1.432-8.208-3.117-1.861-1.487-3.908-3.919-4.572-6.702-.696-2.92-.751-5.957-.052-8.832.631-2.598 2.458-4.886 4.519-6.598 2.101-1.743 4.727-3.06 8.053-3.273 3.421-.219 6.09.731 8.208 1.974 1.473.865 2.876 2.173 4 3.637.262.341 1.034 1.109.987 1.559-.046.444-.91.746-1.247.935-.402.226-.986.764-1.403.727-.357-.031-.568-.549-.728-.779-.939-1.358-2.375-2.62-3.844-3.376-1.243-.64-2.652-1.225-4.416-1.299-3.525-.149-6.432 1.309-8.312 3.169-1.668 1.651-3.135 4.3-3.169 7.533-.045 4.317 2.285 7.65 4.987 9.352 1.317.829 3.002 1.505 4.883 1.662 3.902.327 6.938-1.399 8.832-3.377.937-.977 1.554-2.15 2.339-3.481z"/><path d="m76.265 26.522c-.307.395-.768.535-1.299.832-.368.205-.962.785-1.403.727-.347-.045-.772-.894-1.091-1.299-2.22-2.819-6.627-5.261-11.689-3.636-2.346.753-4.177 2.036-5.507 3.844-1.344 1.828-2.342 4.063-2.13 7.221.189 2.83 1.243 4.868 2.805 6.65 1.675 1.91 4.494 3.523 8.104 3.532 4.379.011 7.358-2.505 9.247-5.299.274-.557.468-1.194.883-1.61 1.029.391 2.072.767 2.857 1.402-1.058 2.737-2.584 4.632-4.728 6.183-2.104 1.522-4.816 2.649-8.209 2.649-6.524 0-11.163-3.818-13.195-8.52-2.058-4.76-1.021-10.148 1.247-13.611 2.182-3.332 5.981-6.016 11.014-6.338 3.313-.212 6.154.751 8.156 2.026 2.12 1.349 3.827 3.005 4.938 5.247z"/></g></svg>