<svg enable-background="new 0 0 76.501 67.649" viewBox="0 0 76.501 67.649" xmlns="http://www.w3.org/2000/svg"><path clip-rule="evenodd" d="m63.213 33.602c.211.345.663.308.973.389 5.087 1.338 8.896 4.919 10.848 9.486 1.066 2.493 1.858 6.003 1.265 9.194-.548 2.951-1.584 5.749-3.161 7.686-3.085 4.143-7.795 6.789-14.448 7.248-1.708.118-3.443-.024-5.205-.145-3.271-.226-6.596-.869-10.021-.632-.833.057-1.63.156-2.432.291-.74.126-1.444.409-2.189.389-.052-.551.263-1.038.486-1.508.22-.462.431-.925.584-1.459.31-1.081.398-2.298.535-3.551.399-3.667.583-7.713.583-11.626 0-1.296.159-2.568.097-3.892-.126-2.709.175-5.472-.097-8.075-.564-.258-1.271-.146-1.946-.146-1.967 0-4.208-.04-6.129.048-.254.495-.146 1.151-.146 1.751 0 1.75-.138 3.993 0 5.691.089 1.103.639 1.851.827 2.578-.608.146-1.259-.149-1.995-.195-1.458-.089-3.173-.091-4.621.049-.716.069-1.399.304-1.995.146-.096-.52.353-.833.487-1.313.443-1.586.243-4.277.243-6.518 0-.696.084-1.859-.146-2.092-.211-.213-1.137-.146-1.654-.146-1.752 0-3.737-.04-5.351.048-.478.744-.673 1.63-1.07 2.432-.388.784-.784 1.557-1.313 2.189-1.465 2.095-3.291 3.597-5.789 4.67-1.874.805-4.214 1.274-6.664.973-.739-.091-1.473-.296-2.286-.194-.484.061-.758.36-1.265.292-.321-1.069-.153-2.432-.146-3.746.007-1.316-.12-2.664.097-3.746.591.054.931.515 1.411.73.896.401 2.057.646 3.6.486 1.546-.16 3.222-1.084 4.086-1.995 1.015-1.069 1.606-2.507 1.946-4.086 1.15-5.343-1.39-9.982-6.957-9.827-.854.024-1.581.157-2.237.389-.623.221-1.146.599-1.849.73-.253-.49-.146-1.13-.146-1.751 0-1.215 0-2.529 0-3.795 0-.621-.107-1.261.146-1.751 2.133.353 4.899-.003 6.908.341 5.372.919 8.371 3.792 10.556 7.929.428.812.595 1.728 1.167 2.53 2.248.08 4.565.089 6.762 0 .319-.577.195-1.324.195-2.043 0-2.119.086-4.608-.243-6.372-.111-.597-.591-1.032-.438-1.557.597-.321 1.342-.079 2.043-.049 2.112.089 4.449-.326 6.275-.243.035.873-.538 1.642-.632 2.724-.102 1.171 0 2.502 0 3.794 0 1.274-.105 2.564.146 3.648 1.182.254 2.652.146 4.086.146 1.418.001 2.873.111 4.038-.146.103-7.802.449-16.388-.535-23.981-.242-1.866-.575-3.822-1.362-4.962-.173-.25-.535-.487-.438-.876 1.266-.117 2.517.249 3.843.341 4.13.286 8.45-.303 12.404-.486 2.611-.122 5.851.043 7.977.632 2.352.651 4.296 1.455 5.935 2.529 3.362 2.205 5.997 5.686 7.054 9.924 1.322 5.304-.375 10.324-2.627 13.572-2.058 2.968-4.771 5.103-8.562 6.324-.474.154-1.083.189-1.508.585zm-10.654-3.454c1.115 0 2.216.032 3.259-.048 6.072-.468 10.737-3.989 11.918-9.291.615-2.766.024-5.594-.925-7.492-.926-1.851-2.522-3.38-4.232-4.524-1.798-1.202-4.007-2.034-6.907-1.848-1.718.11-3.742.794-5.059 1.556-.401.233-1.116.719-1.216.973-.208.526-.048 1.696-.048 2.529 0 6.119-.08 12.219.097 17.998 1.016.261 2.113.147 3.113.147zm-3.113 27.193c.726.724 1.607 1.238 2.481 1.654.964.459 1.901.79 3.162.973 2.569.374 4.894-.204 6.81-1.167 3.545-1.782 6.383-5.339 6.421-10.118.019-2.222-.706-4.203-1.557-5.789-.85-1.585-2.196-2.88-3.502-3.843-1.374-1.012-3.194-1.793-5.497-1.849-2.594-.062-5.962-.062-8.27.146-.201 6.413-.092 13.426-.048 19.993z" fill-rule="evenodd"/></svg>