<svg enable-background="new 0 0 77.402 83.818" viewBox="0 0 77.402 83.818" xmlns="http://www.w3.org/2000/svg"><path clip-rule="evenodd" d="m77.184.203c.066 13.666.103 27.761.104 41.838.001 8.822.051 17.557.052 26.246 0 5.249.171 10.314-.052 15.279-6.24.391-12.56-.018-19.074.156-6.246.167-12.731.002-19.074 0-12.946-.003-26.248.217-38.823 0-.023-.046-.045-.093-.104-.104-.236-26.978.004-54.57-.208-81.077-.006-.786-.033-1.585.155-2.338 4.297-.12 8.64-.103 13.098-.103 4.497-.001 9.089.21 13.617 0 3.857-.181 8.587.041 12.733-.053 4.149-.094 8.342-.02 12.37 0 7.249.039 14.478.001 22.14 0 1.014 0 2.069-.126 3.066.156zm-35.601.311c-2.628.123-5.019.171-7.276.624-10.877 2.181-18.82 7.652-24.687 14.865-1.16 1.425-2.163 3.077-3.17 4.729-3.024 4.961-5.14 10.836-5.717 18.034-.384 4.803.161 9.915 1.352 14.188 2.279 8.18 6.541 14.658 12.005 19.697 6.492 5.609 14.683 10.22 26.298 10.654 1.748.065 3.5.187 5.093-.104.187-8.622.051-18.036.052-27.233 0-.542.146-1.192-.208-1.663-1.1.061-2.11.327-3.17.363-3.585.123-6.309-1.272-8.264-2.807-2.666-2.091-4.869-5.453-4.834-9.927.035-4.48 2.116-7.76 4.781-9.927 1.912-1.554 4.873-2.855 8.316-2.754 1.058.03 2.096.339 3.222.363.193-7.034.104-14.686.104-21.828 0-2.452.113-4.915-.156-7.172-1.172-.271-2.562-.156-3.741-.102zm26.454 47.868c3.726-3.436 6.668-7.947 8.107-13.721.773-3.102 1.082-6.536.624-9.771-1.334-9.431-6.042-15.908-12.681-20.113-4.493-2.846-10.151-4.674-17.567-4.314-.062.025-.118.056-.156.104-.346.282-.234 2.31-.26 3.171-.038 1.309.052 2.352.052 3.43-.001 16.272-.012 32.641.208 48.335 9.78.823 16.73-2.688 21.673-7.121z" fill-rule="evenodd"/></svg>