<svg enable-background="new 0 0 85.932 33.179" viewBox="0 0 85.932 33.179" xmlns="http://www.w3.org/2000/svg"><path clip-rule="evenodd" d="m85.932.242c-.405 1.328-1.239 2.456-1.815 3.729-.566 1.248-1.24 2.519-1.914 3.729-2.347 4.215-4.532 8.617-6.771 12.953-.329.636-.523 1.31-.834 1.963-.599 1.255-1.338 2.445-1.963 3.68-.616 1.217-1.304 2.386-2.208 3.386-1.57 1.462-3.417 2.987-6.035 3.385-1.428.217-3.074.049-4.661.049-20.225.004-40.243.051-59.713-.196-.099-.473.244-.886.441-1.276 2.943-5.811 6.204-11.537 9.176-17.418 1.558-3.084 3.135-6.459 5.005-9.224 1.437-2.125 3.479-3.696 6.133-4.514.906-.279 2.127-.387 3.287-.441 2.441-.116 4.978.017 7.507.049 7.675.097 15.723-.169 23.404 0 10.317.226 20.786-.177 30.961.146zm-38.272 5.84c1.589-.247 2.581-2.298 1.57-3.827-.532-.564-1.292-1.162-2.453-.933-2.959.476-2.467 5.134.883 4.76zm-18.596.932c-1.998.022-4.247-.085-6.084 0-2.661.124-4.518 1.156-6.035 2.502-1.571 1.393-2.609 3.202-2.993 5.544-.877 5.356 2.508 9.276 6.231 10.599 3.466 1.23 8.619.321 13.15.54.81-.877 1.234-2.075 1.718-3.238.284-.685.706-1.342 1.03-2.012.325-.673.614-1.42 1.178-1.865 1.154-.033 2.445-.049 3.729-.049 1.264 0 2.622-.14 3.631.196.187 1.069.085 2.326.099 3.533.013 1.196-.125 2.437.196 3.385 1.304.162 3.259.162 4.562 0 .429-2.008-.134-5.008.295-7.016 3.659-.224 8.314-.049 11.972-.049 1.93 0 4.673-.512 4.661 1.325v.098c-.208 1.444-2.349.994-3.876 1.031-2.184.052-4.756-.049-7.017-.049-1.247 0-2.447-.142-3.435.196-.236 1.161-.244 3.257 0 4.416 1.052.251 2.22.145 3.386.196 1.179.052 2.372 0 3.582 0 2.441 0 4.98.212 7.065 0 .089-.009.207-.031.294-.049 1.876-.383 3.401-1.829 4.171-3.336.425-.833.769-1.99.687-3.091-.08-1.076-.505-1.993-.785-2.993.033-.598.387-.98.54-1.472.229-.735.396-1.71.294-2.699-.36-3.486-3.23-5.469-6.87-5.594-2.879-.099-6.392 0-9.371 0-1.015 0-2.045-.115-2.993.147-.134 1.275-.221 3.318.049 4.514 1.809.26 4.228.147 6.771.147h3.483c1.77 0 4.34-.411 3.975 1.619-.427 1.182-2.32.834-3.631.834-3.122 0-5.951.021-8.881-.049-1.476-.035-2.928.228-4.122-.148-.337-2.248.212-4.952-.245-6.967-1.301-.164-3.261-.16-4.562 0-.261.994-.147 2.283-.147 3.533 0 1.249.115 2.542-.147 3.533-.664.171-1.575.098-2.453.098-.861 0-1.85.15-2.404-.196.039-.644.453-1.154.736-1.717.588-1.17 1.13-2.332 1.717-3.435.293-.549.723-1.114.736-1.766-1.4-.293-3.496-.126-5.054-.098-.604.755-1.044 1.664-1.521 2.551-.479.893-.974 1.834-1.324 2.797-.704 1.928-1.983 3.636-2.748 5.495-.733 1.099-1.071 2.592-2.012 3.484-3.087-.145-7.026.633-9.274-.638-1.908-1.08-3.143-4.171-1.717-6.722.672-1.203 2.055-2.197 3.68-2.306 2.883-.193 6.774.292 9.911-.049.582-.581.879-1.415 1.275-2.159.389-.729.982-1.468.933-2.404-2.009-.227-4.014-.17-6.036-.147z" fill-rule="evenodd"/></svg>