<svg enable-background="new 0 0 58.362 74.199" viewBox="0 0 58.362 74.199" xmlns="http://www.w3.org/2000/svg"><g clip-rule="evenodd" fill-rule="evenodd"><path d="m34.207 18.511c1.853.334 3.874.149 5.953.149h15.279c.956 0 2.014-.192 2.828.248.545 1.452-1.481 1.106-2.729 1.24-2.965.319-5.486 1.178-7.64 2.183-3.122 1.457-5.678 3.221-7.689 5.408-1.576 1.681-2.818 3.72-4.018 5.853-1.78 3.165-3.174 6.695-3.225 11.509-.017 1.575-.165 3.164.05 4.663.379 2.654 1.223 5.44 2.183 7.64 1.064 2.438 2.052 4.499 3.473 6.35 1.391 1.812 3.153 3.352 5.06 4.762 1.935 1.431 4.132 2.331 6.648 3.175 1.864.626 3.738 1.16 6.002 1.389.575.058 1.621-.296 1.885.545.005.759-.894.546-1.339.546-18.608 0-36.438-.148-55.164-.148-.483 0-1.189.192-1.587-.248.198-.473.845-.396 1.24-.447 1.449-.185 2.988-.239 4.316-.595.893-.239 1.737-.438 2.53-.744.779-.3 1.475-.745 2.232-1.042 3.161-1.237 5.522-3.178 7.541-5.606 3.106-3.525 5.649-7.445 6.995-12.7.354-1.382.34-2.922.497-4.465.491-4.854-.544-8.93-1.885-12.551-1.777-4.796-4.808-8.296-8.632-11.062-1.799-1.302-4.203-2.38-6.697-3.175-1.827-.582-3.598-1.069-6.151-1.24-1.128-.076-2.482-.037-1.935-1.24.262-.432.867-.298 1.29-.298 7.471 0 15.606.027 22.969-.099-.109-.378-.52-.575-.794-.793-.827-.663-1.631-1.426-2.232-2.381-1.637-1.981-2.207-5.223-1.538-8.136.453-1.972 1.736-3.767 3.225-4.961 1.625-1.304 3.78-2.121 6.102-2.232 1.602-.077 3.143.518 4.366 1.141 1.276.65 2.181 1.405 2.977 2.48 1.449 1.959 2.893 5.146 2.183 8.334-.292 1.311-1.132 2.734-1.835 3.721-.377.529-.883.982-1.339 1.439-.458.451-1.101.755-1.395 1.388z"/><path d="m58.217 21.537c.273 2.45.071 5.026.099 7.59.027 2.537.119 5.125-.099 7.59-1.143.461-2.29.662-3.324 1.141-1.042.482-1.909.946-2.729 1.736-1.76 1.698-3.17 4.214-2.927 7.838.354 5.286 3.946 8.234 8.93 9.029.168 2.409.244 4.993.149 7.54-.094 2.516.185 5.184-.149 7.64-1.783.049-3.577-.235-5.159-.695-1.593-.462-3.132-.937-4.465-1.587-2.708-1.327-5.332-2.737-7.292-4.812-2.722-3.251-4.959-7.272-6.102-12.055-1.229-5.144-.752-11.165.942-15.676.802-2.136 1.975-4.037 3.274-5.804 1.265-1.72 2.817-3.21 4.515-4.515 3.387-2.603 7.972-4.601 13.047-5.06.389-.034.963-.169 1.29.1z"/><path d="m.175 72.584c-.268-1.201-.149-2.638-.149-4.068 0-2.72.051-5.523.099-8.285.024-1.363-.232-2.721.099-3.968 1.607-.453 3.05-.734 4.267-1.488 1.131-.702 2.202-1.675 2.927-2.778 1.711-2.606 2.315-6.597.843-9.525-.694-1.382-1.507-2.476-2.58-3.473-1.055-.98-2.493-1.571-4.018-2.034-.471-.143-.966-.147-1.439-.397-.185-3.372-.099-7.376-.099-11.212 0-.926-.164-3.158.248-3.572.037-.046.09-.075.149-.099 3.877-.034 7.129 1.157 9.922 2.481 4.1 1.943 7.573 4.85 9.921 8.681.791 1.29 1.628 2.609 2.083 4.118.94 3.113 1.908 6.603 1.885 10.467-.018 3.032-.679 5.77-1.538 8.136-.858 2.361-2.044 4.453-3.324 6.3-2.673 3.855-6.212 6.646-10.368 8.88-2.619.936-5.547 1.826-8.928 1.836z"/></g></svg>