<svg enable-background="new 0 0 33.564 38.8" viewBox="0 0 33.564 38.8" xmlns="http://www.w3.org/2000/svg"><path d="m13.97 1.895c6.32-3.61 14.907-1.868 19.595 3.581-.166.284-.625.987-.942.479-4.016-4.269-10.627-6.214-16.167-3.975 2.633-.01 5.29.395 7.698 1.505 2.89.362 5.677 1.571 7.96 3.38-.016.342-.478.508-.689.762-1.159-.739-2.288-1.629-3.631-1.997 1.04.808 1.991 1.729 2.828 2.747-.224.273-.611 1.06-.955.531-1.389-1.679-3.142-3.028-5.074-4.025-.554-.345-1.214-.449-1.857-.413-2.782-.133-5.63.535-8.008 1.999 1.686-.106 3.387-.072 5.047.281 3.363-.305 6.799.849 9.37 3.022.003.069.006.137.011.207-.191.184-.379.37-.56.564-.047.005-.14.016-.188.022-1.36-1.15-2.976-1.96-4.686-2.436 1.418.956 2.871 1.952 4.03 3.248-.252.258-.516.504-.792.737-1.936-2.111-4.515-3.71-7.344-4.251-5.132.467-9.56 4.861-10.178 9.957-.306 2.6.193 5.33 1.596 7.557 1.794 3.055 5.089 5.18 8.616 5.506 2.79-.49 5.353-2.011 7.277-4.072l.148.008c.169.255.651.422.551.774-1.124 1.268-2.542 2.222-3.991 3.074 1.795-.365 3.457-1.269 4.852-2.442.255.236.496.489.737.741-2.562 2.299-6.133 3.379-9.54 3.05-1.625.297-3.284.377-4.928.229 2.496 1.622 5.592 2.254 8.544 2.067.461-.016.909-.164 1.313-.383 2.019-1.068 3.876-2.49 5.303-4.282.242.242.484.484.728.725-.709 1.112-1.826 1.86-2.735 2.79 1.289-.41 2.415-1.227 3.529-1.98.255.182.474.41.714.612-2.132 2.076-5.176 3.11-8.09 3.569-2.344 1.07-4.953 1.474-7.51 1.365 5.444 2.386 12.19.423 16.118-3.922.33-.436.612.256.894.427-.023.097-.02.21-.089.292-3.108 3.363-7.656 5.435-12.261 5.264-2.955-.046-5.891-.979-8.353-2.611-5.065-1.441-9.584-5.166-11.511-10.125-3.076-7.051-.74-16.04 5.516-20.571 1.722-1.258 3.643-2.265 5.707-2.827.513-.155.912-.539 1.397-.76zm.33 1.456c-.533.076-1.105.173-1.524.539-1.734 1.286-3.335 2.826-4.429 4.701 1.171-.618 2.371-1.171 3.63-1.581 2.372-1.85 5.196-3.219 8.217-3.519.025-.03.074-.09.099-.12-1.973-.381-4.015-.345-5.993-.02zm-12.742 11.998c-.916 3.49-.514 7.238.816 10.569 1.507 3.323 4.144 6.274 7.47 7.807-1.554-1.589-2.763-3.463-3.818-5.405-2.236-2.127-3.814-5.05-3.962-8.167-.336-3.653 1.334-7.274 3.971-9.753 1.005-2.019 2.298-3.893 3.877-5.509-4.155 1.992-7.338 5.965-8.354 10.458zm10.959-7.324c-1.75 1.428-3.112 3.331-4.021 5.396-2.637 5.831-.937 13.27 4.048 17.301 1.249.357 2.55.493 3.845.541-2.302-1.041-4.481-2.565-5.871-4.725-1.92-2.704-2.594-6.19-2.037-9.436.727-4.271 3.862-7.938 7.838-9.582-1.275-.004-2.585.115-3.802.505zm-5.537 3.002c-2.416 5.176-2.424 11.415-.03 16.603.808.886 1.885 1.519 2.956 2.048-1.001-1.358-1.948-2.778-2.552-4.363-2.276-5.35-1.144-11.831 2.581-16.255-1.105.427-2.074 1.189-2.955 1.967zm-2.148 14.165c-.959-3.82-.951-7.846-.004-11.66-2.333 3.421-2.293 8.231.004 11.66zm3.49 4.919c1.281 1.976 2.952 3.731 4.922 5.022 2.302.579 4.812.796 7.122.18-2.6-.283-5.097-1.292-7.245-2.768-1.357-1.241-3.254-1.498-4.799-2.434z"/></svg>