<svg enable-background="new 0 0 27.166 32.026" viewBox="0 0 27.166 32.026" xmlns="http://www.w3.org/2000/svg"><path d="m12.322.05c2.312-.024 4.625.007 6.937-.002 1.224.007 2.363.581 3.313 1.315 2.777 2.415 4.073 6.114 4.585 9.655-2.993-.035-5.993.043-8.981-.061-.76-4.079-2.288-8.454-5.854-10.907z"/><path d="m5.365 1.274c1.354-1.14 3.306-1.634 4.988-.985 1.035.403 1.944 1.085 2.686 1.905.216.213-.132.429-.222.621-2.294 3.338-3.27 7.422-3.495 11.416-.306 5.373.556 11.091 3.74 15.566-1.072 1.016-2.33 2.006-3.853 2.158-1.81.268-3.533-.718-4.788-1.94-2.076-2.285-3.218-5.255-3.862-8.235-.811-4.183-.772-8.557.328-12.683.783-2.912 2.088-5.875 4.478-7.823z"/><path d="m18.119 21.18c3.015-.009 6.032-.013 9.047.019-.588 3.098-1.559 6.279-3.718 8.664-1.111 1.128-2.54 2.089-4.17 2.163-2.37 0-4.739-.011-7.109-.013 3.612-2.388 5.211-6.745 5.95-10.833z"/></svg>