<svg enable-background="new 0 0 40.847 81.721" viewBox="0 0 40.847 81.721" xmlns="http://www.w3.org/2000/svg"><path clip-rule="evenodd" d="m40.717 42.135c-6.199.184-13.258.102-19.857.102-2.209 0-4.394-.105-6.399.152-.269.659-.153 1.407-.153 2.133.001 5.039-.083 10.602.102 15.542.981.27 2.057.191 3.098.152 3.28-.123 6.675 0 10.056 0 4.488 0 8.995-.068 13.104.05.28.775.168 1.629.102 2.387-.474 5.414-2.376 9.575-5.333 12.596-3.315 3.386-7.916 6.171-14.067 6.45-6.445.293-11.504-2.328-14.882-5.638-3.414-3.347-6.121-7.762-6.398-14.068-.074-1.677.026-3.368-.051-5.079-.076-1.676-.02-3.407.051-5.079.143-3.389-.127-6.821-.051-10.208.149-6.694 0-13.42 0-19.959-.004-6.53 2.046-11.359 5.431-15.085 3.171-3.491 8.162-6.235 14.119-6.552 5.329-.284 9.322 1.423 12.393 3.504 3.13 2.122 5.575 5.043 7.212 8.634.406.892.684 1.92.965 2.997.827 3.159.66 7.116.66 11.224 0 5.249.084 10.693-.102 15.745zm-2.539-29.61c-1.046-2.272-2.365-4.092-4.013-5.739-3.151-3.151-7.61-5.831-13.713-5.739-6.145.093-10.48 2.608-13.662 5.79-1.646 1.646-2.922 3.497-3.961 5.739-1.023 2.212-1.791 4.866-1.625 7.923.69.266 1.647.152 2.59.152.92 0 1.906.077 2.641-.102.275-2.116.626-3.961 1.372-5.586.718-1.565 1.646-2.964 2.844-4.114 2.326-2.235 5.488-4.001 9.854-4.063 4.333-.062 7.594 1.804 9.853 4.063 1.753 1.754 3.102 3.893 3.759 6.653.223.938.195 1.96.507 2.997 1.464.169 3.614.166 5.079 0 .349-3.121-.513-5.775-1.525-7.974zm-7.567.152c-1.538-1.993-3.876-3.624-6.399-4.368-6.137-1.808-11.603 1.355-14.17 4.825-1.4 1.894-2.401 4.47-2.337 7.364 1.497.278 3.907.189 5.435.05.452-3.422 1.976-5.675 4.673-6.754 4.223-1.69 8.172.827 9.446 4.012.327.817.391 1.857.66 2.742 1.725.074 3.814.232 5.384-.05.158-3.187-1.139-5.806-2.692-7.821zm-10.056 1.676c-1.574-.011-3.223.615-4.267 1.625-1.097 1.062-2.026 2.681-1.879 4.521.909.272 1.953.152 2.996.152 2.109 0 4.267-.051 6.247-.051 1.056 0 2.079.135 2.996-.102-.044-3.588-2.546-6.12-6.093-6.145zm-19.3 7.466c-.27.861-.152 1.854-.152 2.844v3.047c0 2.037-.119 4.122.152 5.891.555-.585.81-1.346 1.168-2.031 1.109-2.127 2.59-3.849 4.113-5.536-.062-1.375.131-3.008-.102-4.215-1.505-.153-3.713-.3-5.179 0zm28.594-.101c-.625.029-1.364-.181-1.777.203.815.578 1.756.962 2.641 1.473.439.254.9.481 1.32.762.396.265.752.733 1.27.711.276-.731.18-2.233.051-3.047-1.019-.237-2.368-.155-3.505-.102zm4.926 0c-.455.403-.305 1.257-.305 2.031 0 .808.016 1.66.051 2.336 1.553 1.625 2.991 3.379 4.063 5.434.354.68.621 1.45 1.168 2.032.255-3.672.129-8.017 0-11.783-1.444-.2-3.448-.102-4.977-.05zm-27.019.05c-.246.723-.249 2.482 0 3.149.909-.418 1.689-1.035 2.59-1.524.45-.244.897-.488 1.371-.711.434-.203 1.019-.35 1.27-.812-1.439-.308-3.626-.128-5.231-.102zm6.602 1.118c-.091.857-.051 1.861-.051 2.844 0 .977-.115 1.991.153 2.743.923-.141 1.788-.628 2.793-.864 2.027-.475 4.624-.471 6.603 0 .996.237 1.841.735 2.742.813.268-.753.152-1.784.152-2.793 0-.983.072-2.038-.102-2.844-3.153-1.474-9.4-1.434-12.29.101zm13.409 3.25c-.001 1.047-.008 2.093.051 2.997 1.546 1.297 3.22 2.468 4.266 4.266.541.424.551 1.379 1.27 1.625.197-2.529.106-5.616.051-8.228-1.403-1.576-3.227-2.733-5.435-3.504-.347.736-.203 1.842-.203 2.844zm-15.136-2.743c-1.845.799-3.778 1.981-4.977 3.352-.054 2.644-.149 5.769.05 8.33.57-.416.852-1.075 1.22-1.625.766-1.144 1.66-2.156 2.691-2.997.523-.426 1.17-.739 1.574-1.32.1-1.083.107-2.303.101-3.504-.003-.74.017-1.636-.203-2.286-.208-.013-.356.008-.456.05zm-6.349 4.673c-.059.025-.115.055-.152.102-2.794 3.056-5.077 7.24-4.875 12.9.727.152 1.666.153 2.59.152.917 0 1.894.115 2.59-.152.186-3.582.102-7.821.102-11.529 0-.49.154-1.098-.203-1.473-.017 0-.034 0-.052 0zm28.543 0c-.033 0-.067 0-.102 0-.059.025-.115.055-.152.102-.144 1.922-.101 4.262-.102 6.501 0 2.25.014 4.48.152 6.399 1.489.14 3.774.228 5.181-.051.17-5.753-2.198-9.913-4.977-12.951zm-8.126 1.93c-2.693-2.315-9.614-2.22-12.342 0-.052 2.205-.148 4.888.052 7.009.561-.034.83-.792 1.269-1.117 1.09-.868 2.568-1.713 4.469-1.828 2.06-.125 3.742.697 4.977 1.574.538.427.799 1.131 1.523 1.371.202-2.121.105-4.804.052-7.009zm-13.763.812c-1.449.935-2.854 2.508-3.758 4.165-.918 1.681-1.639 3.79-1.422 6.094 1.497.252 3.811.211 5.383.051.296-1.992.12-4.387.152-6.602.009-.593-.051-1.273-.051-1.93 0-.604.194-1.417-.254-1.778-.016 0-.033 0-.05 0zm14.882.153c-.089.735-.051 1.666-.051 2.59-.001 1.768 0 3.564 0 5.231 0 .838-.096 1.688.202 2.336.494.226 1.105.051 1.728.051 1.242 0 2.69.25 3.656-.152.136-2.368-.608-4.405-1.574-6.145-.793-1.429-2.297-3.392-3.81-4.063-.072.028-.124.079-.151.152zm-7.924 4.164c-1.181.104-2.457.682-3.301 1.372-1.255 1.026-2.245 2.689-2.133 4.622 2.852.184 6.247.102 9.243.102 1.017 0 2.098.154 2.945-.203-.203-3.437-2.741-6.245-6.754-5.893zm-18.537 7.162c-.395.558-.254 1.335-.254 2.031 0 5.189-.061 10.819.152 15.745 1.404.277 3.693.192 5.18.05.311-1.369.102-2.858.102-4.317.001-4.538.167-9.098-.102-13.408-1.247-.312-3.785-.121-5.078-.101zm6.45 0c-.349.586-.203 1.346-.203 2.031 0 5.228-.084 10.767.101 15.745.733.267 1.783.152 2.743.152.997 0 2.002.189 2.742-.102.021-4.302.259-8.942.101-13.458-.051-1.479.108-2.928-.152-4.266-1.585-.261-3.494-.141-5.332-.102zm15.135 18.995c-.857 0-1.875-.064-2.591 0-1.961.177-4.078-.257-5.891.152-.164 2.692 1.568 4.746 3.605 5.637 1.088.477 2.67.661 4.013.305 1.238-.329 2.456-1.144 3.25-2.083.795-.939 1.48-2.359 1.27-3.911-1.117-.277-2.392-.1-3.656-.1zm11.68.101c-.236 1.206-.334 2.342-.609 3.403-.83 3.195-2.563 5.598-4.773 7.415-2.812 2.311-7.895 3.922-12.748 2.488-2.953-.872-5.191-2.601-6.907-4.774-1.285-1.627-2.31-3.59-2.743-5.993-.144-.808-.15-1.667-.406-2.539-1.497-.17-3.682-.167-5.18 0-.219 3.03.639 5.625 1.625 7.821 1.012 2.254 2.323 4.101 3.961 5.739 3.189 3.188 7.573 5.689 13.714 5.688 6.103-.001 10.525-2.552 13.661-5.688 1.608-1.607 2.975-3.525 3.962-5.739.992-2.223 1.799-4.852 1.625-7.872-1.494-.148-3.768-.216-5.182.051zm-26.815 0c-.322.621-.099 1.322 0 1.93.311 1.932.98 3.543 1.828 4.875 2.209 3.469 6.24 6.374 11.834 5.942 4.96-.383 8.347-3.085 10.31-6.551.945-1.669 1.675-3.803 1.523-6.196-1.565-.17-3.817-.166-5.384 0-.217.421-.154.917-.254 1.371-.766 3.494-4.048 6.334-8.177 5.79-2.873-.378-5.085-2.446-5.891-4.978-.214-.669-.154-1.42-.458-2.184-1.547-.166-3.783-.168-5.331.001z" fill-rule="evenodd"/></svg>