<svg enable-background="new 0 0 73.848 71.328" viewBox="0 0 73.848 71.328" xmlns="http://www.w3.org/2000/svg"><path clip-rule="evenodd" d="m73.667 56.384c-1.248.094-2.678.051-4.137.052-1.373 0-3.548-.288-4.395.103-.458.211-.654 1.051-.931 1.5-.915 1.483-2.199 2.671-3.672 3.62-1.942 1.251-4.875 2.031-7.859 1.344-2.563-.59-4.489-1.905-5.998-3.723-1.449-1.747-2.562-4.072-2.482-7.188.077-2.971 1.312-5.226 2.792-6.929 1.495-1.72 3.645-2.967 6.257-3.413 4.81-.821 8.137 1.516 10.188 4.084.71.89 1.095 1.962 1.964 2.844 2.061.015 4.451.227 6.412 0 .023-.046.046-.092.104-.104-.626-2.912-1.95-5.499-3.723-7.446-1.804-1.981-3.887-3.517-6.516-4.602-1.325-.547-2.601-1.042-4.344-1.241-5.3-.605-9.856.996-12.875 3.413-3.074 2.469-5.376 5.73-6.412 10.342-.566 2.519-.434 5.131-.982 7.395-.533 2.2-1.378 4.021-2.482 5.843-1.967 3.245-5.213 6.117-8.997 7.705-1.939.813-4.479 1.344-7.032 1.344-2.573 0-4.854-.502-6.929-1.396-4.037-1.74-7.039-4.274-9.102-7.653-1.069-1.753-1.934-3.673-2.378-5.999-.229-1.193-.104-2.616-.104-4.085 0-12.256-.088-24.983.104-37.333 1.17-.279 2.629-.155 4.033-.155 1.4 0 2.816.041 4.085-.052.509-.339.679-.974.982-1.448.914-1.43 2.01-2.762 3.517-3.671 1.754-1.19 4.156-1.99 6.618-1.707 4.708.543 8.054 3.415 9.359 7.395.709 2.161.658 4.814-.259 7.084-1.471 3.641-4.761 6.945-9.721 7.084-3.937.11-6.678-1.907-8.532-4.033-.656-.752-1.086-1.639-1.81-2.378-1.869-.152-4.394-.185-6.257 0-.109.612.142 1.277.361 1.81 1.605 3.878 4.161 6.772 7.705 8.739 1.906 1.058 4.489 1.969 7.291 2.12 2.955.16 5.664-.338 7.911-1.396 3.595-1.899 6.332-4.106 8.118-7.55.918-1.768 1.633-3.761 1.913-5.946.283-2.197.457-4.481 1.034-6.774.951-3.775 3.424-7.37 6.103-9.566 2.89-2.369 6.345-4.169 11.221-4.396 3.081-.143 6.179.442 8.324 1.397 4.511 2.005 7.729 4.934 9.929 9.307 1.06 2.107 1.894 4.795 1.758 7.809-.14 3.074 0 6.286 0 9.514v26.113c.001.743.12 1.523-.154 2.223z" fill-rule="evenodd"/></svg>