<svg enable-background="new 0 0 64.383 78.835" viewBox="0 0 64.383 78.835" xmlns="http://www.w3.org/2000/svg"><g clip-rule="evenodd" fill-rule="evenodd"><path d="m11.267 44.707c1.171.442 2.543.258 3.823.258 6.591-.001 12.996-.11 19.886.104 1.021.032 2.28 0 3.874 0 1.388 0 3.322-.215 3.822.465.562.764.258 3.708.258 5.062 0 1.425.283 4.56-.465 5.165-.563.457-2.291.258-3.254.258-3.477 0-6.97-.052-10.485-.051-4.723.001-8.893-.269-13.688-.103-2.451.084-4.83.121-6.664-.258-1.893-.392-3.378-1.276-4.648-2.376-1.216-1.054-2.327-2.349-2.997-4.031-.684-1.718-.723-3.728-.723-6.25 0-9.316.052-18.287.052-27.273 0-2.282-.205-4.823.155-6.663.385-1.972 1.326-3.327 2.376-4.649 2.182-2.746 4.889-4.007 9.711-4.287 2.371-.138 5.338-.051 7.8-.052 6.371 0 12.682.154 19.163.155 1.407.001 3.16-.223 3.719.568.307.435.207 1.513.207 2.376v5.166c0 1.126.091 2.084-.413 2.531-.6.53-2.31.351-3.616.31-4.005-.126-8.02-.051-12.086-.052-3.908 0-8.143-.021-12.035 0-1.53.008-3.367-.207-3.977.413-.545.554-.414 2.339-.414 3.719v25.31c-.001 1.68-.279 3.683.619 4.185z"/><path d="m22.475 22.702c.61-.134 1.878-.052 2.841-.052 8.264-.001 16.459.104 24.845.104 1.954 0 3.721-.086 5.32.206 4.343.792 7.586 3.814 8.626 8.058.375 1.527.258 3.331.258 5.32v10.899c0 5.425-.052 10.713-.052 16.219 0 1.849.14 3.774 0 5.527-.147 1.843-1.1 3.519-1.963 4.7-1.843 2.523-4.336 4.529-8.316 4.907-1.952.186-4.12.044-6.456.155-4.831.229-8.761-.053-13.172-.052-3.193.001-6.383-.052-9.866-.052-1.402.001-2.571.156-3.099-.568-.317-.435-.258-1.628-.258-2.48 0-1.789-.025-3.287.052-5.114.042-.999-.073-2.008.258-2.427.44-.558 2.284-.526 3.461-.517 7.943.061 15.871.103 23.76.103 1.861 0 4.383.4 4.907-.826.35-.819.104-2.874.104-4.081 0-7.086.105-13.333 0-20.248-.018-1.17-.042-2.693 0-4.184.047-1.7.349-3.925-.723-4.494-.725-.385-2.544-.155-3.667-.155-8.562.001-16.716-.103-25.413-.104-.771 0-1.663.038-2.066-.362-.724-.716-.413-3.181-.413-4.804 0-.925 0-1.745 0-2.634-.001-1.422-.128-2.788 1.032-3.044z"/></g></svg>