<svg enable-background="new 0 0 81.053 61.835" viewBox="0 0 81.053 61.835" xmlns="http://www.w3.org/2000/svg"><g clip-rule="evenodd" fill-rule="evenodd"><path d="m23.982.161c.002.413-.458.617-.726.822-3.724 2.862-6.765 6.077-7.495 12.042-.3 2.443-.193 5.176-.193 8.076-.001 5.324 0 10.966 0 16.201-.001 5.599-.42 11.37 1.111 15.427 1.138 3.013 3.032 5.17 5.32 7.061.38.314.793.611 1.16.919.343.287.843.491.968.967-2.116.159-4.041.019-5.948.048-1.84.028-4.084.131-5.948-.193-3.645-.635-5.923-2.277-7.932-4.546-1.99-2.249-3.349-4.834-3.917-8.56-.534-3.505-.289-7.929-.29-12.186-.001-3.876-.048-7.952-.049-12.187 0-4.136-.258-8.337.484-11.896.728-3.496 2.367-5.906 4.449-8.03 1.12-1.142 2.128-2 3.579-2.66 1.391-.632 3.159-1.249 5.029-1.402 1.774-.145 3.589 0 5.32 0 1.741 0 3.42-.051 5.078.097z"/><path d="m41.101.258c-.24.537-.8.771-1.209 1.112-1.256 1.047-2.404 2.131-3.529 3.385-1.41 1.571-2.455 3.667-3.047 6.142-.625 2.612-.484 5.581-.484 8.705.001 3.038 0 6.023 0 8.995.002 5.977-.217 12.336.049 18.183.104 2.274.384 4.142 1.016 5.9.205.569.351 1.177.58 1.693.964 2.162 2.613 3.574 4.11 5.078.479.338.894.733 1.354 1.112.424.349 1.031.602 1.258 1.161-2.135.217-4.264.048-6.094.048-2.163 0-4.093.117-5.948-.242-3.513-.68-5.904-2.369-7.786-4.643-1.848-2.231-3.421-4.901-3.869-8.56-.228-1.865-.146-3.956-.145-6.093.001-8.134-.002-16.061 0-24.47 0-2.053-.068-3.963.338-5.658.827-3.444 2.39-5.784 4.449-7.979 2.028-2.162 4.782-3.599 8.464-3.965 1.588-.159 3.714-.048 5.464-.048 1.747-.001 3.462-.07 5.029.144z"/><path d="m58.318.209c-.193.597-.822.876-1.258 1.209-3.161 2.419-6.009 5.523-6.867 10.397-.514 2.922-.241 6.262-.241 9.624-.001 6.651.001 13.008 0 19.489-.001 4.894-.189 9.622 1.499 13.057 1.577 3.209 3.755 4.997 6.384 7.157.183.151.561.257.532.581-3.348.218-6.304.048-9.189.048-5.919 0-9.523-2.698-12.041-6.529-1.864-2.835-2.922-6.194-2.709-11.268.321-7.621-.018-15.378.098-22.971.047-3.159-.236-6.48.29-9.092.663-3.293 2.503-5.839 4.497-7.834 2.091-2.09 4.653-3.467 8.415-3.917.074-.009.085-.044.145-.048 3.546-.276 7.056.181 10.445.097z"/><path d="m67.023.548c2.78-.078 5.379.684 7.108 1.741 2.871 1.755 5.01 4.543 6.045 7.786 1.149 3.599 1.205 8.451-.048 11.896-.609 1.675-1.369 3.21-2.418 4.498-1.024 1.256-2.324 2.224-3.724 3.143-2.856 1.876-7.574 2.074-11.316.822-2.497-.835-4.734-2.254-6.384-3.966-1.61-1.672-2.917-4.066-3.627-6.722-.482-1.798-.6-4.136-.29-6.19.623-4.134 2.363-6.885 4.739-9.043 2.29-2.079 5.357-3.838 9.915-3.965z"/></g></svg>