<svg enable-background="new 0 0 179.487 135.417" viewBox="0 0 179.487 135.417" xmlns="http://www.w3.org/2000/svg"><path clip-rule="evenodd" d="m137.5 24.982c-.39.642-.964 1.183-1.498 1.692-3.76 3.583-7.393 7.471-11.117 11.166-.995 1.132-2.116 2.137-3.142 3.238-.309.385-.843.543-.919 1.16 8.549.217 17.632.064 26.198.048 1.851-.003 4.165.048 6.38.048.835 0 2.036-.167 2.514.145.497.325 1.015.988 1.499 1.499 3.33 3.51 7.146 6.795 10.295 10.392 3.421 3.523 6.848 6.799 10.393 10.344.413.413 1.354 1.242 1.354 1.788 0 7.38.039 15.223 0 22.767-.03 5.67-.001 11.066 0 16.869 0 1.998.095 4.047-.049 5.896-.895 1.021-1.891 1.968-2.851 2.948-2.844 2.901-5.785 5.765-8.652 8.749-2.773 2.886-5.711 5.807-8.652 8.749-.449.449-.938.972-1.45 1.45-.528.493-1.207 1.337-1.788 1.401-1.746.193-3.669-.037-5.559 0-5.551.107-11.358 0-16.917 0-3.729 0-7.46.059-11.118 0-3.718-.06-7.386-.053-11.02.048-3.667.103-7.337-.048-10.973-.048-9.273 0-18.934.001-28.132 0-1.835 0-3.688.143-5.462.048-.801-.042-1.375-.746-1.933-1.305-6.695-6.694-13.769-13.662-20.205-20.445-.842-.739-1.504-1.408-2.368-2.272-.214-.214-.673-.627-.677-.87-.009-.497 1.177-1.344 1.498-1.644 1.618-1.508 3.239-3.189 4.641-4.785 2.068-2.354 4.37-4.221 6.283-6.283.98-1.07 2.12-2.061 3.143-3.142.316-.336.746-.693.821-1.16-11.275-.251-22.743-.022-34.174-.097-3.156-2.837-5.989-5.998-8.99-8.99-1.5-1.497-3.045-2.949-4.543-4.447-1.499-1.499-2.924-3.07-4.398-4.592-1.347-1.491-2.988-2.944-4.496-4.495-.408-.421-1.25-1.128-1.353-1.643-.148-.749-.048-1.828-.048-2.804-.001-6.479 0-13.419.097-19.721.029-1.867-.097-3.726-.097-5.558 0-3.782.034-7.509 0-11.214-.018-1.955-.032-3.973.048-5.752 1.908-2.104 3.988-4.036 5.994-6.042 1.998-1.998 3.947-4.044 5.945-6.042 2.006-2.006 4.036-3.988 6.042-5.994 1.998-1.998 3.979-4.014 6.042-5.946 29.783-.166 58.444-.157 88.405-.094.508.13 1.391 1.123 1.788 1.546 3.482 3.712 7.381 7.284 10.924 10.827 1.042 1.042 2.028 2.14 3.045 3.19 3.019 3.117 6.322 6.123 9.232 9.377zm-17.11-6.042c-1.585-1.584-3.127-3.162-4.689-4.737-2.145-2.045-4.139-4.24-6.381-6.187-10.635-.07-20.796-.096-31.418.048.003.41.387.656.628.919 1.789 1.946 3.659 3.62 5.511 5.51.985 1.007 2.101 1.907 3.142 3.142.473.562.919 1.064 1.498 1.643.46.46 1.158 1.3 1.692 1.45.993.28 2.627.049 3.915.048 6.688-.001 13.271.001 19.817 0 2.63 0 5.246.069 7.734-.193-.283-.696-.944-1.137-1.449-1.643zm-90.92-10.875c-.316.842-.193 1.786-.193 2.659 0 9.459-.045 17.862.146 26.971.47.014.744-.454 1.015-.725 2.171-2.171 4.412-4.248 6.477-6.477 1.177-1.27 2.541-2.393 3.723-3.673 1.199-1.3 2.433-2.53 3.673-3.77 4.617-4.617 9.247-9.343 13.824-13.921.278-.278.757-.592.726-1.064-9.724-.082-19.798-.079-29.391 0zm38.717 2.369c-5.741 5.636-11.455 11.359-17.11 17.014-.811.81-1.702 1.594-2.466 2.417-5.474 5.899-11.317 11.558-16.966 17.207-.805.806-1.583 1.701-2.561 2.32-1.812.088-3.941.048-5.801.048-.635 0-1.309.109-1.836-.145-.236-5.465-.146-11.228-.146-17.111.001-5.885.04-11.846-.048-17.643-.435-.106-.719.348-.967.58-2 1.875-3.875 3.913-5.801 5.8-1.575 1.573-3.316 3.267-4.979 4.93-.459.459-1.431 1.215-1.595 1.74-.171.549-.048 1.665-.048 2.513 0 12.288.012 24.265.049 35.963 4.735 4.932 9.601 9.794 14.404 14.598 1.61 1.611 3.18 3.266 4.93 4.737 12.254.012 24.503-.051 36.445-.049.819.001 1.691.143 2.417.049.645-.083 1.428-1.187 1.934-1.691 2.915-2.916 5.718-5.586 8.458-8.508.829-.883 1.76-1.664 2.562-2.514.251-.266.653-.584.628-1.015-2.904-.184-5.931-.097-8.942-.097-8.012.001-16.503-.001-24.796 0-.716 0-1.49.112-2.175-.145-.186-1.976-.135-4.017-.049-5.897.691-.953 1.535-1.776 2.369-2.61.838-.838 1.579-1.725 2.417-2.562 8.353-8.354 16.609-16.562 24.989-24.941 2.913-2.913 5.887-5.771 8.748-8.749.356-.37 1.121-1.092 1.112-1.402-.016-.518-1.265-1.379-1.788-1.933-3.728-3.943-7.458-7.458-11.214-11.214-.549-.549-1.5-1.599-2.03-1.789-.057.025-.109.053-.144.099zm46.885 18.27c-6.886-.037-14.237 0-21.219 0-.661 0-1.369-.127-1.934-.048-.851.119-1.464.883-2.079 1.498-.617.618-1.183 1.183-1.691 1.692-.608.608-1.062 1.26-1.595 1.789-2.588 2.56-5.1 5.147-7.589 7.637-.266.266-.712.511-.726.967 1.713.314 3.624.097 5.511.097 6.955-.001 14.927.001 22.187 0 1.097 0 2.333.211 3.093 0 .625-.174 1.173-1.027 1.74-1.595 1.771-1.771 3.351-3.325 5.027-5.076 2.033-1.854 3.906-4.06 5.896-5.897.265-.244.662-.562.629-.966-2.297-.209-4.744-.084-7.25-.098zm1.499 92.128c2.938-2.938 5.862-5.92 8.797-8.797.535-.576 1.112-1.111 1.644-1.691.398-.768 1.306-1.011 1.498-1.885.305-1.382-.023-3.287 0-4.834.07-4.732.077-9.727.097-14.501.027-6.611-.13-13.142-.097-19.383-2.883-3.521-6.222-6.608-9.426-9.812-3.214-3.214-6.398-6.458-9.715-9.57-12.828-.082-26.361-.08-39.346 0-1.208.952-2.239 2.094-3.335 3.19-2.989 2.989-6.041 6.041-8.99 8.991-.237.237-.652.517-.629.918 10.11.271 20.399.012 30.839.097 1.482 1.333 2.878 2.781 4.253 4.156.468.469.975.96 1.305 1.547-1.603 1.797-3.326 3.473-5.026 5.172-.854.854-1.629 1.789-2.465 2.659-.835.868-1.71 1.71-2.562 2.562-9.386 9.384-18.784 18.882-28.131 28.228-.851.85-1.852 1.576-2.514 2.609 2.488 2.684 5.1 5.245 7.686 7.831 2.252 2.252 4.554 4.554 6.767 6.767.328.327.603.765 1.063.918 3.567-3.2 6.749-6.785 10.199-10.102 8.858-8.938 17.773-17.92 26.633-26.778 1.266-1.266 2.481-2.641 3.964-3.674 1.951.063 4.154-.126 5.945.097.249 1.406.145 2.874.145 4.351-.001 10.423-.04 21.405.049 31.95.632-.002.975-.639 1.352-1.016zm47.852-58.582c-4.016-4.015-7.959-8.075-12.084-11.939-10.44-.095-20.994-.05-31.079 0-.364.385.266.697.435.87.266.272.533.582.773.821 3.761 3.76 7.432 7.791 11.311 11.311 5.067.112 10.084 0 15.032 0 5.317-.001 10.936.122 16.289-.145.001-.434-.416-.659-.677-.918zm-9.232 9.135c-5.121-.001-10.626 0-15.612 0-.984 0-2-.054-2.949.145-.187 5.577-.096 11.481-.097 17.354 0 5.859-.08 11.755.097 17.449 11.163.07 23.168.131 34.705-.049.26-1.432.145-2.906.145-4.35 0-1.488.019-2.97.048-4.447.114-5.729-.167-11.43-.048-17.256.059-2.896-.028-5.822-.145-8.701-5.306-.279-10.546-.144-16.144-.145zm-48.287 27.358c-.058.023-.11.052-.146.097-5.934 5.822-11.884 11.788-17.739 17.643-1.185 1.184-2.296 2.44-3.48 3.625-2.061 2.061-4.231 4.149-6.187 6.235-.262.279-.676.572-.677 1.015 6.923.177 14.328.098 21.364.097 2.371 0 4.742.116 7.009-.145.145-2.273.146-4.656.145-7.058-.001-6.751-.048-13.108-.048-19.865 0-.531.158-1.187-.193-1.644-.016 0-.032 0-.048 0zm43.309 15.564c-3.899 0-7.963.156-11.794.049-1.257-.035-2.816-.263-3.916-.049-.612.119-1.324 1.084-1.836 1.596-2.207 2.207-4.299 4.312-6.332 6.428-1.065 1.109-2.086 2.184-3.142 3.239-.535.534-1.216 1.005-1.499 1.74 4.867.282 10.012-.01 15.564.145 4.42.123 8.986-.142 13.727-.048.708.014 1.466.146 1.934 0 .55-.172 1.212-1.015 1.692-1.499 1.708-1.721 3.152-3.2 4.736-4.93 1.686-1.549 3.249-3.249 4.834-4.834.528-.528 1.241-.986 1.498-1.74-5.076-.175-10.383-.096-15.466-.097z" fill-rule="evenodd"/></svg>