<svg enable-background="new 0 0 14.92 14.891" viewBox="0 0 14.92 14.891" xmlns="http://www.w3.org/2000/svg"><path d="m1.905.409c.607-.198 1.237-.316 1.87-.381.56-.035 1.122-.018 1.682-.022 1.713.003 3.424-.007 5.136-.006.532.045 1.064.147 1.557.361.147.063.29.136.431.211.078.046.155.094.233.14.598.383 1.106.906 1.465 1.519.381.637.579 1.372.627 2.109.012.59.002 1.181.006 1.771.003.63-.087 1.262-.317 1.851-.065.154-.128.31-.209.457-.08.163-.177.317-.28.467-.075.112-.158.219-.239.327-.065.149-.087.327.009.469.152.212.307.422.438.649.075.141.148.284.211.431.054.121.1.245.141.371.042.105.072.214.091.326.226.826.125 1.693.16 2.54-.013.204.044.43-.069.616-.086.15-.247.273-.427.267-.607.003-1.214.001-1.822.008-.093.008-.182-.019-.266-.055-.13-.097-.26-.222-.267-.394-.014-.27-.001-.54-.006-.81-.019-.618.122-1.276-.174-1.851-.147-.266-.358-.498-.613-.662-.275-.166-.595-.266-.918-.255-1.945.005-3.89-.006-5.836-.005-.201.018-.357-.129-.456-.286-.02-.1-.057-.199-.053-.302.001-.545.001-1.09 0-1.635-.005-.108.026-.209.052-.311.079-.155.229-.304.414-.298.888-.014 1.777.019 2.664-.02 1.073.001 2.146 0 3.219.001.458.008.921-.178 1.236-.512.313-.309.481-.756.468-1.194-.001-.607 0-1.215-.001-1.822-.004-.558-.325-1.089-.791-1.387-.08-.041-.159-.082-.241-.119-.198-.083-.413-.139-.629-.126-1.555.002-3.109 0-4.663.001-.607-.016-1.215-.029-1.82.032-1.099.129-2.153.595-2.998 1.308-.113.099-.258.176-.413.162-.265-.012-.502-.253-.5-.519-.004-.703.009-1.405-.007-2.107.02-.107.062-.207.098-.308.111-.214.305-.373.523-.47.05-.023.1-.048.151-.07.043-.023.086-.047.129-.071.329-.144.66-.29 1.004-.396z"/><path d="m3.825 4.061c.139-.028.281-.03.421-.049 2.053.002 4.106.002 6.159.001.272-.019.518.241.501.51 0 .619.004 1.239-.002 1.858 0 .278-.272.499-.541.488-1.995.005-3.989-.017-5.982-.006-.184.029-.366.081-.54.15-.023.012-.07.035-.093.047-.247.136-.463.325-.614.565-.065.107-.121.22-.165.338-.115.285-.1.6-.102.902.007.544-.015 1.088.012 1.631.03.821.782 1.512 1.595 1.524 1.589.001 3.177 0 4.766.001.432.037.867.004 1.299.024.238.065.386.319.38.558-.002.576-.001 1.152-.001 1.728-.002.203-.106.414-.298.5-.025.014-.077.041-.102.055-2.061.009-4.122 0-6.183-.004-1.379-.042-2.705-.792-3.486-1.924-.03-.048-.061-.095-.093-.141-.039-.066-.081-.131-.119-.197-.085-.151-.164-.306-.233-.465-.054-.12-.098-.245-.139-.37-.121-.355-.181-.726-.221-1.096-.015-.812-.006-1.623-.007-2.435.037-.359.087-.719.198-1.064.263-.848.781-1.614 1.47-2.174.608-.494 1.344-.833 2.12-.955z"/></svg>