<svg viewBox="0 0 90 34" fill="none" xmlns="http://www.w3.org/2000/svg">
<path fill-rule="evenodd" clip-rule="evenodd" d="M52.2778 6.81279C51.8352 6.70597 51.3705 6.73597 50.9453 6.89883C50.52 7.06169 50.1542 7.34974 49.8962 7.72492C49.6381 8.10009 49.5 8.54474 49.5 9.0001V24.7502C49.5 25.9321 49.2672 27.1025 48.8149 28.1944C48.3626 29.2863 47.6997 30.2785 46.864 31.1142C46.0282 31.9499 45.0361 32.6129 43.9442 33.0652C42.8522 33.5175 41.6819 33.7502 40.5 33.7502H9C6.61305 33.7502 4.32387 32.802 2.63604 31.1142C0.948212 29.4264 0 27.1372 0 24.7502V9.00024C0 6.6133 0.948212 4.32411 2.63604 2.63628C4.32387 0.948456 6.61305 0.000244918 9 0.000244918H36V6.75025H9C8.40326 6.75025 7.83097 6.9873 7.40901 7.40925C6.98705 7.83121 6.75 8.40351 6.75 9.00024V24.7502C6.75 25.347 6.98705 25.9193 7.40901 26.3412C7.83097 26.7632 8.40326 27.0002 9 27.0002H40.5C40.7955 27.0002 41.0881 26.942 41.361 26.829C41.634 26.7159 41.8821 26.5502 42.091 26.3412C42.2999 26.1323 42.4657 25.8843 42.5787 25.6113C42.6918 25.3383 42.75 25.0457 42.75 24.7502V9.00039C42.75 9.00034 42.75 9.00044 42.75 9.00039C42.75 7.17901 43.3025 5.40034 44.3347 3.89966C45.3669 2.39895 46.8302 1.24674 48.5311 0.595305C50.2321 -0.0561311 52.0907 -0.176138 53.8613 0.251143C55.6319 0.678424 57.2312 1.63288 58.4478 2.98839L58.448 2.98862L79.3255 26.2534C79.3256 26.2535 79.3257 26.2535 79.3258 26.2536C79.6299 26.5924 80.0296 26.8309 80.4722 26.9377C80.9148 27.0445 81.3795 27.0145 81.8047 26.8517C82.23 26.6888 82.5958 26.4008 82.8538 26.0256C83.1119 25.6504 83.25 25.2058 83.25 24.7504V0.000244918H90V24.7501C90 24.7501 90 24.7501 90 24.7501C90 26.5715 89.4475 28.3502 88.4153 29.8508C87.3831 31.3515 85.9198 32.5037 84.2189 33.1552C82.5179 33.8066 80.6593 33.9266 78.8887 33.4993C77.1181 33.0721 75.5188 32.1176 74.3022 30.7621L74.302 30.7619L53.4244 7.4971C53.4244 7.49702 53.4243 7.49695 53.4242 7.49687C53.1201 7.15812 52.7204 6.91958 52.2778 6.81279Z" fill="black"/>
</svg>
