<svg enable-background="new 0 0 80.607 49.292" viewBox="0 0 80.607 49.292" xmlns="http://www.w3.org/2000/svg"><path clip-rule="evenodd" d="m80.511 49.014c-10.5.242-21.164.229-31.736.051-.276-1.261-.152-2.649-.152-4.012 0-3.94-.082-8.294.102-12.288 3.596-.092 7.475-.052 11.223-.051 1.21 0 2.442.113 3.554-.152.194-1.193.103-2.566.102-3.91 0-3.961.083-8.317-.102-12.136-14.363-.224-29.077-.054-43.771-.051-.93 0-1.896-.122-2.793.152-.173 5.288-.186 10.722 0 15.944.01.041.051.051.051.102 4.237.093 8.808.05 13.202.051.579 0 1.21-.114 1.727.152.195 5.457.145 10.912.051 16.198-2.573.269-5.254.152-7.921.152-7.77-.001-16.035.223-23.866-.102-.211-16.09-.224-32.807-.101-48.95 6.869-.424 14.247.229 21.324-.1 2.21-.104 5.164-.051 7.566-.051 16.981-.001 34.162-.021 51.388.102.279.422.152.972.152 1.422 0 15.986.216 31.707 0 47.477z" fill-rule="evenodd"/></svg>