<svg enable-background="new 0 0 73.838 73.913" viewBox="0 0 73.838 73.913" xmlns="http://www.w3.org/2000/svg"><path clip-rule="evenodd" d="m41.258 73.792c-.303-.718-.18-1.582-.203-2.454-.068-2.478-.027-5.491.101-8.025.684-.708 1.75-.911 2.658-1.38 2.637-1.361 4.508-3.409 5.879-6.134.924-1.837 1.527-4.208 1.432-6.595-.096-2.355-.854-4.415-1.842-6.134-1.902-3.314-5.094-6.017-9.303-6.748-5.025-.873-9.441.76-12.064 3.425-3.156 2.707-5.406 8.583-3.525 14.262.781 2.364 2.17 4.231 3.832 5.776.437.405.779.869 1.228 1.176.914.627 2.049 1.184 3.168 1.636.527.213 1.166.277 1.637.716.127 2.371.101 5.336.101 8.025 0 .903.147 1.831-.203 2.556-1.32.103-2.605-.236-3.836-.46-1.238-.225-2.441-.559-3.578-.92-4.594-1.461-8.535-3.342-11.91-6.083-1.656-1.345-3.326-2.671-4.703-4.243-1.41-1.609-2.772-3.267-3.936-5.061-3.531-5.437-6.009-11.839-6.185-20.702-.113-5.742 1.439-10.627 3.221-14.773.902-2.1 2.025-3.926 3.271-5.726 2.479-3.58 5.447-6.498 8.895-9.048 1.732-1.28 3.619-2.263 5.674-3.272 4.109-2.017 8.842-3.308 14.568-3.579 2.834-.133 5.723.215 8.332.716 2.6.499 4.955 1.112 7.004 2.045 8.385 3.817 14.672 9.447 18.812 17.38.266.51.545.996.766 1.534.221.532.338 1.122.562 1.687 1.295 3.238 2.096 6.794 2.557 10.99.627 5.71-.57 11.283-2.149 15.642-1.656 4.58-3.783 8.085-6.594 11.501-1.348 1.64-3.018 2.993-4.65 4.396-1.639 1.407-3.506 2.564-5.42 3.629-2.932 1.633-6.09 2.818-9.814 3.732-.604.148-1.236.215-1.891.357-.59.131-1.275.276-1.892.156zm20.959-29.648c.133-.53.299-1.055.41-1.584.68-3.28.814-7.254.051-10.684-1.918-8.609-6.832-14.301-13.547-18.044-1.621-.904-3.574-1.61-5.725-2.147-4.389-1.096-10.06-1.042-14.058.205-1.94.605-3.699 1.488-5.367 2.454-6.57 3.804-11.414 9.48-12.83 18.402-.557 3.507-.162 7.667.562 10.633.242.995.416 2.101 1.277 2.658 1.287-6.175 3.869-11.058 7.873-14.518 3.928-3.337 8.824-6.249 16.102-6.288 7.211-.039 12.49 2.636 16.357 6.083 3.668 3.278 6.598 7.573 7.873 13.137.076.336-.035.854.408 1.022.44-.26.5-.878.614-1.329z" fill-rule="evenodd"/></svg>