<svg enable-background="new 0 0 80.49 44.221" viewBox="0 0 80.49 44.221" xmlns="http://www.w3.org/2000/svg"><g clip-rule="evenodd" fill-rule="evenodd"><path d="m52.502.151c.004.573-.438 1.017-.699 1.497-.761 1.401-1.543 2.964-2.495 4.242-2.657.078-6.042.154-8.685-.1.423-1.442 1.555-2.716 2.196-4.143.252-.561.322-1.182.848-1.548 2.74-.161 5.972-.113 8.835.052z"/><path d="m47.81 8.385c-1.391 3.317-3.507 5.909-4.891 9.233-1.354 2.107-2.418 4.502-3.893 6.488-2.661.058-6.148.143-8.884-.05.113-.791.669-1.428 1.048-2.097 2.205-3.892 4.407-7.936 6.837-11.878.402-.652.727-1.81 1.448-1.896 1.263-.152 2.772.027 4.242.05 1.419.022 2.862-.136 4.093.15z"/><path d="m29.593 16.271c-.154.772-.676 1.4-1.048 2.047-.383.665-.767 1.305-1.148 1.946-.765 1.285-1.402 2.646-2.346 3.793-3.702-.03-7.66.207-11.529.1-1.363-.038-2.924-.222-3.893.25-.883.429-2.687 2.181-1.547 3.344.441.45 2.285.299 3.543.299 7.311 0 14.241-.052 21.511-.05 1.174 0 2.385-.12 3.444.15-.061.729-.658 1.325-1.048 1.996-.786 1.35-1.418 2.539-2.246 3.992-.281.493-.724 1.648-1.248 1.847-.718.271-2.691.051-3.893.05-4.135 0-7.548.05-11.728.05-2.562.001-5.294.126-7.736 0-3.798-.194-6.379-1.394-7.736-3.992-.425-.814-.807-1.759-.898-2.695-.311-3.181.96-5.503 2.146-7.685 2.342-3.138 5.801-5.262 10.83-5.54 1.754-.098 3.671 0 5.59 0 2.872 0 5.737-.051 8.484-.05.861-.002 1.74-.118 2.496.148z"/><path d="m50.805 35.885c.107-.738.621-1.372.998-1.996 1.143-1.888 2.186-4.002 3.494-5.79 3.284-.09 7.505-.05 11.18-.05 1.342 0 2.931.155 3.843-.1 1.021-.285 2.67-1.55 2.196-3.045-.263-.827-1.278-.698-2.595-.698-5.542 0-11.574-.041-16.819.05-.64.7-1.077 1.577-1.547 2.396-2.357 4.107-4.732 8.36-7.137 12.527-.957 1.658-1.67 3.47-2.845 4.991-2.983.087-6.289.068-9.183-.1.01-.695.522-1.254.849-1.797 1.019-1.695 2.007-3.479 2.995-5.241 1.938-3.454 4.088-6.905 6.089-10.381.631-1.097 1.199-2.365 1.896-3.594.956-1.682 1.93-3.442 2.994-5.24.289-.486.688-1.441 1.098-1.597.7-.265 2.309-.05 3.444-.05h3.494c5.607.001 10.155.096 15.322 0 5.553-.104 9.382 1.986 9.882 7.137.249 2.565-.723 4.789-1.897 6.538-2.138 3.504-5.674 5.735-11.03 6.089-2.654.176-5.526.05-8.385.05-2.8.002-5.65.069-8.336-.099z"/></g></svg>