<svg enable-background="new 0 0 185.387 185.997" viewBox="0 0 185.387 185.997" xmlns="http://www.w3.org/2000/svg"><g clip-rule="evenodd" fill-rule="evenodd"><path d="m114.085 9.73c-14.118.086-28.287-.005-42.257-.149-.061-.533.477-.822.79-1.135.331-.331.601-.765.938-1.086 2.03-1.934 4.717-3.517 7.602-4.838 2.94-1.347 6.538-2.236 10.169-2.468 4.717-.302 8.805.702 12.243 2.024 3.44 1.323 6.404 3.275 8.787 5.43.61.674 1.588 1.241 1.728 2.222z"/><path d="m61.955 11.655c.234 6.21.024 12.826 0 19.105-6.692.149-13.478.099-20.438.099-1.135 0-2.281-.002-3.406-.049-1.119-.047-2.243.157-3.308-.148.296-1.448 1.024-2.726 1.678-3.949 1.944-3.637 4.565-6.665 7.75-9.133 4.228-3.275 9.593-5.653 16.488-5.973.367-.018.874-.147 1.236.048z"/><path d="m119.959 31.056c-15.506.115-31.606-.1-47.441-.099-1.139 0-2.277-.018-3.406-.049-1.09-.03-2.197.139-3.258-.148.266-1.395.952-2.749 1.629-3.949.68-1.205 1.371-2.392 2.172-3.455 4.044-5.373 9.453-9.449 17.228-11.058 1.624-.336 3.353-.555 5.184-.642 4.825-.228 9.203 1.019 12.736 2.518 1.735.736 3.318 1.711 4.838 2.764 3.211 2.227 5.623 5.064 7.701 8.393.537.86 1.077 1.762 1.53 2.715.447.935 1.002 1.91 1.087 3.01z"/><path d="m151.011 31.056c-2.17.202-4.458.099-6.763.099-6.635 0-13.919.053-20.339-.099-.255-5.113-.099-11.098-.099-16.834 0-.701-.096-2.067.148-2.32.036-.046.09-.075.148-.099 7.417.13 12.917 2.582 17.278 5.875 3.756 2.835 6.884 6.677 8.935 11.305.294.662.634 1.348.692 2.073z"/><path d="m61.955 32.981c.04 6.275.118 12.917-.099 19.104-5.858.593-8.968 3.934-9.676 9.676-5.417.226-11.202.049-16.784.049-.768 0-1.56.11-2.271-.148-.275-4.458.795-8.404 2.271-11.65 1.474-3.243 3.38-5.997 5.727-8.343 4.676-4.676 10.772-8.244 19.351-8.787.422-.026 1.122-.181 1.481.099z"/><path d="m121.638 62.008c-5.973.13-12.862.143-19.006-.099-.631-5.559-3.871-9.346-9.774-9.626-2.968-.141-5.322 1.323-6.862 2.863-.835.834-1.462 1.762-1.975 2.863-.524 1.127-.724 2.41-.987 3.85-6.267.201-12.857.108-19.006-.049-.173-4.487.873-8.462 2.419-11.749 1.546-3.288 3.435-6.051 5.874-8.442.626-.613 1.185-1.243 1.827-1.777 3.217-2.677 7.017-4.869 11.848-6.023 1.952-.466 3.939-.728 6.319-.839 4.624-.215 9.053 1.075 12.243 2.469 3.515 1.536 6.256 3.646 8.688 5.924 2.338 2.493 4.389 5.338 5.924 8.689 1.516 3.309 2.699 7.229 2.468 11.946z"/><path d="m152.689 62.057c-6.135.181-12.795.08-19.154-.049-.29-.645-.204-1.432-.346-2.073-.706-3.198-3.033-5.787-5.924-6.862-1.064-.396-2.193-.577-3.456-.79-.206-5.363-.049-11.234-.049-16.883 0-.769-.115-1.56.148-2.271 9.229.075 15.768 3.92 20.438 8.59 2.406 2.405 4.419 5.173 5.924 8.54 1.485 3.323 2.673 7.265 2.419 11.798z"/><path d="m31.002 61.712c-6.044.038-12.979.067-19.203-.099-.127-3.652.557-6.95 1.58-9.774 2.059-5.689 5.419-9.735 9.873-13.181 1.453-1.124 3.387-2.309 5.381-3.258.559-.267 1.807-.954 2.222-.889.182.028.238-.082.296.592.06.688 0 2.154 0 2.616 0 1.378.041 2.41 0 3.505-.168 4.489-.049 8.939-.049 13.576-.001 2.254.08 4.773-.1 6.912z"/><path d="m155.009 35.054c5.507 1.907 10.043 5.676 13.23 9.824 1.638 2.132 3.087 4.659 4.048 7.454.986 2.87 1.789 6.112 1.58 9.725-5.972.212-12.745.24-19.006 0-.246-7.501-.05-15.588-.049-23.498 0-1.162-.04-2.324.049-3.357.028-.07.077-.12.148-.148z"/><path d="m61.806 83.087c-2.7.18-4.85 1.161-6.516 2.715-1.544 1.44-2.863 3.56-3.061 6.122-.283 3.669 1.215 6.09 3.011 7.948 1.19 1.105 2.673 1.989 4.542 2.419.637.146 1.287.129 1.975.346.18 4.583.099 9.615.099 14.415 0 1.595.116 3.201-.148 4.689-4.571.177-8.428-.97-11.7-2.468-3.287-1.505-6.22-3.388-8.541-5.825-3.163-3.076-5.717-6.941-7.256-11.65-.228-.697-.288-1.412-.445-2.222-.608-3.163-.997-6.537-.642-9.823.086-.791.197-1.598.346-2.37.15-.776.211-1.559.395-2.271.732-2.822 1.816-5.236 3.258-7.504 4.777-7.513 12.896-13.511 24.535-13.773.371.159.285.688.296.987.046 1.226-.002 2.413-.05 3.604-.186 4.676.236 9.886-.098 14.661z"/><path d="m121.49 92.023c-6.173.182-12.68.08-18.957-.049-.389-.932-.485-1.927-.839-2.814-.815-2.046-2.438-3.605-4.344-4.641-1.88-1.021-4.82-1.635-7.405-.79-2.153.704-3.896 1.97-5.134 3.851-1.169 1.775-2.161 4.18-1.58 7.108.491 2.474 1.634 4.239 3.308 5.677 1.564 1.344 3.79 2.437 6.615 2.271 4.09-.24 6.743-2.339 8.244-5.233.517-.997.727-2.114 1.135-3.357 6.062-.094 12.889-.083 19.006.099-.134 6.842-2.457 11.8-5.43 15.994-3.033 4.278-6.997 7.431-11.946 9.577-5.07 2.198-12.347 2.96-18.414 1.432-2.877-.725-5.309-1.834-7.602-3.159-2.277-1.316-4.164-2.93-5.973-4.739-3.569-3.569-6.285-8.161-7.603-13.921-.717-3.134-.955-6.569-.543-9.923.753-6.131 3.249-11.12 6.516-14.958 1.646-1.933 3.491-3.8 5.529-5.233 3.702-2.602 8.147-4.527 13.724-5.085 5.441-.544 10.588.473 14.563 2.271 3.323 1.503 6.245 3.382 8.59 5.727 2.318 2.318 4.399 5.274 5.874 8.441 1.506 3.233 2.831 7.002 2.666 11.454z"/><path d="m152.59 92.072c-6.191.188-12.776.027-19.203 0-.399-1.242-.618-2.425-1.136-3.456-1.504-2.992-4.331-4.873-8.491-5.282-.146-5.467-.085-11.326-.049-16.784.004-.687-.104-2.123.148-2.37.036-.046.09-.075.148-.099 4.504.045 8.344 1.059 11.601 2.567 6.574 3.045 11.024 7.618 14.316 14.02 1.627 3.163 2.586 7.03 2.666 11.404z"/><path d="m30.805 65.513c.443.341.316 1.014.296 1.481-.166 3.768-.049 7.923-.049 11.947 0 12.81-.049 24.851-.049 37.716 0 1.112.117 2.229-.148 3.308-1.475-.397-2.859-1.023-4.098-1.728-3.645-2.074-6.822-4.755-9.281-8.096-2.554-3.238-4.419-7.204-5.381-11.996-1.022-5.094-.332-10.892 1.234-15.155 2.641-7.187 7.612-12.723 14.316-16.093 1.058-.533 2.052-1.085 3.16-1.384z"/><path d="m154.911 66.007c2.704.866 5.341 2.472 7.355 3.999 4.342 3.29 7.648 7.294 9.725 12.786 1.039 2.747 1.839 5.877 1.728 9.33-5.896.137-13.073.206-18.956-.049-.093-8.141-.097-17.673.049-25.917-.002-.085.037-.129.099-.149z"/><path d="m9.528 71.487c.358.773.197 1.692.197 2.518 0 13.03-.008 26.509-.148 39.888-.48.026-.803-.445-1.086-.74-.923-.963-1.861-1.97-2.715-3.061-1.118-1.427-2.022-3.115-2.863-4.789-1.741-3.464-2.913-7.564-2.913-12.392 0-8.377 3.259-14.897 7.405-19.45.666-.732 1.385-1.472 2.073-1.975.017.001.033.001.05.001z"/><path d="m176.138 72.079c1.222.856 2.659 2.548 3.604 3.801 2.132 2.829 3.814 6.013 4.838 9.873.517 1.95.868 4.116.79 6.368-3.053.163-6.302.207-9.379 0-.246-4.742-.049-10.097-.049-15.007 0-1.708-.053-3.463.049-4.986.004-.039.162-.149.147-.049z"/><path d="m152.541 94.195c.227 2.188-.319 4.262-.79 6.171-.465 1.886-1.09 3.645-1.876 5.233-3.141 6.352-7.897 11.128-14.514 14.02-3.308 1.446-7.153 2.53-11.65 2.37-.164-6.117-.164-12.937 0-19.105 1.006-.239 2.001-.315 2.863-.592 2.786-.895 4.81-2.751 5.924-5.331.372-.861.543-1.811.889-2.813 6.152-.18 13.457-.157 19.154.047z"/><path d="m173.769 94.244c-.042 6.2-2.223 10.952-4.739 14.909-2.531 3.98-6.127 7.129-10.317 9.429-1.256.62-2.387 1.365-3.949 1.678-.18-6.342-.1-13.222-.099-19.796 0-1.087.092-2.192.05-3.258-.042-1.039-.22-2.11.148-3.061 5.953.019 12.908-.098 18.906.099z"/><path d="m185.369 94.244c.111 2.3-.3 4.473-.839 6.418-1.325 4.782-3.624 8.789-6.615 11.996-.588.63-1.199 1.348-1.975 1.728-.233-2.712-.049-6.079-.049-9.528 0-2.698-.038-5.701-.049-8.54-.002-.55-.086-2.045.296-2.123 1.357-.274 3.257.05 4.837 0 1.493-.047 2.983-.141 4.394.049z"/><path d="m30.854 123.814c.261 4.13.099 8.761.099 13.428 0 4.685.077 9.421-.148 13.822-.76-.057-1.456-.423-2.123-.74-4.598-2.189-8.37-5.223-11.354-9.182-2.825-3.748-5.087-8.767-5.628-14.909-.053-.603-.323-2.459.198-2.518 1.357-.151 3.322-.049 4.986-.049 4.665 0 9.609-.073 13.97.148z"/><path d="m33.174 123.765c6.415.062 12.662-.044 18.809.099.306.698.243 1.427.395 2.073.438 1.867 1.417 3.491 2.616 4.69 1.624 1.624 3.772 2.773 6.763 3.011.101 4.637.049 9.697.049 14.564 0 .824.038 1.668 0 2.468-.036.763.05 1.521-.148 2.221-4.553.084-8.499-1.003-11.848-2.518-3.315-1.5-6.149-3.532-8.541-5.924-2.297-2.298-4.445-5.148-5.875-8.59-.333-.803-.824-1.639-1.037-2.616-.52-2.392-1.181-4.699-1.382-7.652-.044-.635-.13-1.412.049-1.678.03-.071.079-.12.15-.148z"/><path d="m64.077 123.864c6.334-.001 12.501.003 18.809.099.237.664.254 1.343.395 1.974.418 1.883 1.25 3.415 2.37 4.641 1.606 1.524 3.437 2.871 6.269 3.061 4.717.316 8.118-2.403 9.577-5.578.553-1.203.819-2.5 1.037-3.999 5.86-.089 12.945-.103 19.006.099.183 4.625-.99 8.551-2.468 11.848-.737 1.644-1.62 3.199-2.616 4.64-.502.727-.915 1.536-1.481 2.172-2.748 3.087-6.078 5.94-10.367 7.751-3.443 1.453-7.378 2.558-11.946 2.518-7.004-.061-12.305-2.319-16.538-5.233-.712-.49-1.332-1.105-1.975-1.679-5.072-4.526-8.978-10.091-10.12-18.857-.122-.937-.332-2.714-.099-3.357.064-.019.077-.089.147-.1z"/><path d="m152.59 124.209c.208 4.561-1.008 8.48-2.518 11.848-1.503 3.353-3.529 6.242-5.924 8.589-2.405 2.357-5.216 4.449-8.59 5.924-3.351 1.465-7.251 2.678-11.897 2.518-.189-4.535-.099-9.639-.099-14.514 0-1.616-.118-3.238.148-4.739.535-.23 1.059-.158 1.58-.247 4.247-.729 7.332-3.987 7.899-8.393.045-.354.062-.864.246-1.037.037-.046.09-.075.148-.099 6.523.046 13.004-.1 19.007.15z"/><path d="m173.769 124.259c.095 3.616-.574 6.931-1.629 9.774-2.838 7.647-8.166 13.194-15.353 16.538-.647.301-1.277.72-2.024.741-.28-.45-.156-1.021-.148-1.53.089-6.072-.122-12.782 0-19.055.028-1.464.067-3.273.049-4.986-.006-.574-.118-1.344.148-1.53.036-.046.09-.075.148-.099 4.644.05 9.394.049 14.217.049 1.571-.001 3.123-.133 4.592.098z"/><path d="m34.902 154.816c8.867.132 18.25-.061 26.756.148.238 2.931.099 6.168.099 9.479 0 3.266.082 6.622-.099 9.725-3.697.222-6.963-.594-9.824-1.629-7.654-2.77-13.292-8.176-16.538-15.451-.294-.659-.698-1.4-.592-2.172.073-.027.125-.074.198-.1z"/><path d="m119.712 155.211c-.072.765-.395 1.512-.691 2.172-.883 1.967-2.136 3.72-3.159 5.579-4.188 5.335-9.942 9.523-18.118 11.008-6.899 1.254-13.59-.364-18.265-2.715-1.611-.81-3.149-1.753-4.344-2.913-3.853-2.868-7.46-7.3-9.379-12.49-.193-.522-.295-.883.296-.987.977-.173 2.189.049 3.357.049 7.774 0 16.001.098 23.399.099 9.25.001 18.215-.076 26.904.198z"/><path d="m150.764 155.26c-.335 1.487-1.047 2.83-1.728 4.097-3.329 6.203-8.603 10.817-15.6 13.428-2.843 1.061-6.154 1.75-9.824 1.58-.137-6.106-.222-13.075.05-19.154 4.406-.211 9.544-.099 14.514-.099 3.268 0 6.503-.062 9.626 0 .995.02 2.018-.121 2.962.148z"/><path d="m113.888 176.488c-.231.77-.969 1.247-1.531 1.777-4.003 3.785-9.258 6.626-16.192 7.504-4.345.55-8.591.07-12.045-1.037-3.436-1.101-6.473-2.622-8.836-4.69-1.13-.96-2.603-1.953-3.554-3.209-.081-.106-.443-.385-.099-.543 13.967.048 28.536-.109 42.257.198z"/></g></svg>