<svg enable-background="new 0 0 75.654 77.75" viewBox="0 0 75.654 77.75" xmlns="http://www.w3.org/2000/svg"><path clip-rule="evenodd" d="m70.325 36.812c.652.07 1.014-.571 1.272-1.028.286-.506.569-1.162.637-1.763.168-1.505-.236-3.001-.783-4.015-1.113-2.062-2.993-3.495-5.582-3.966-3.143-.573-5.512.908-7.198 2.204-1.855 1.425-3.138 3.297-3.819 5.729-.812 2.897-.062 5.823 1.028 7.884 1.115 2.106 2.655 3.754 4.603 4.945 1.935 1.184 4.925 2.055 7.737 1.763 2.24-.233 3.893-.822 5.631-1.567.521-.224 1.058-.601 1.664-.49.295.435.045.993-.049 1.42-1.509 6.868-5.052 12.532-9.01 17.04-3.868 4.393-8.532 7.588-14.248 10.087-.671.293-1.42.582-2.204.833-2.172.694-4.778 1.401-7.442 1.665-3.595.355-7.594.244-11.262-.392-8.333-1.443-14.899-5.35-19.979-10.43-2.043-2.043-3.834-4.279-5.337-6.806-2.218-3.727-4.208-8.1-5.239-13.024-1.525-7.286-.562-15.38 1.567-21.153 3.259-8.839 8.684-15.466 16.305-20.124 3.899-2.383 7.998-3.973 13.172-5.043 1.726-.357 3.522-.445 5.533-.539 7.054-.328 12.448 1.473 17.235 3.672 4.659 2.261 8.565 5.276 11.898 8.863 3.393 3.648 5.993 7.852 7.346 13.465 1.131 4.696-.023 9.868-2.596 12.192-.877.792-1.936 1.651-3.28 1.91-1.873.36-3.624-.526-4.407-1.567-.821-1.091-1.252-3.081-.392-4.554.835-1.429 2.588-2.503 4.603-1.811.944.325 2.045 1.232 2.351 2.35.171.624.081 1.521.245 2.25z" fill-rule="evenodd"/></svg>