<svg enable-background="new 0 0 77.889 76.994" viewBox="0 0 77.889 76.994" xmlns="http://www.w3.org/2000/svg"><g clip-rule="evenodd" fill-rule="evenodd"><path d="m75.946 25.266c-.571.311-1.287.195-1.942.195-4.791 0-9.188-.051-14.226 0 .009-.041-.019-.047-.048-.049-.977-.707-1.524-1.842-2.379-2.67-3.236-3.357-7.126-5.92-12.235-7.283-5.737-1.533-12.092-.519-16.411 1.504-4.281 2.008-7.99 4.99-10.488 9.031-2.51 4.061-4.279 9.16-3.496 15.586.329 2.701 1.165 5.371 2.282 7.477 3.317 6.254 8.717 11.047 16.314 12.916 2.795.688 5.866.896 8.885.582 2.857-.297 5.512-1.117 7.623-2.137 3.757-1.812 6.847-4.555 9.273-7.768.281-.373.739-1.236 1.068-1.359.438-.164 1.283-.049 1.991-.049h10.196c1.352 0 2.676-.08 3.836.145-.056.885-.477 1.711-.826 2.477-2.454 5.4-5.819 10.076-10.147 13.645-5.485 4.609-11.688 8.092-20.586 9.176-5.538.676-11.39.213-16.071-1.068-6.108-1.67-11.228-4.42-15.585-8.205-4.31-3.744-7.561-8.367-9.905-13.887-.614-1.445-1.11-2.881-1.602-4.369-1.478-4.467-1.816-10.252-1.117-15.828.42-3.356 1.454-6.49 2.622-9.273 3.554-8.475 9.106-14.512 16.751-18.936 4.382-2.539 9.557-4.357 15.827-4.955 8.539-.812 16.479 1.502 21.946 4.418 5.203 2.777 9.387 6.309 12.818 10.682 1.124 1.473 2.232 3.004 3.156 4.662.928 1.666 1.839 3.404 2.476 5.34z"/><path d="m36.861 51.242c-.395 1.596.072 4.053-.243 5.728-3.667.189-8.112.105-11.701.049-.286-1.396-.146-2.895-.146-4.369 0-10.6-.103-21.486.049-31.851 3.542-.252 7.807-.145 11.798-.145 3.481 0 7.015-.211 9.759.533 5.181 1.404 9.232 5.15 10.877 10.1.998 3.008 1.021 6.34.194 9.08-.816 2.703-2.268 4.695-4.03 6.457-1.751 1.752-3.92 3.1-6.652 3.836-1.448.389-2.929.533-4.71.533-1.641.001-3.398-.04-5.195.049zm6.312-11.167c2.162-.486 3.634-3.567 2.476-5.922-.258-.525-.974-1.438-1.408-1.748-1.378-.984-4.868-.67-7.088-.633-.262 1.186-.146 2.686-.146 4.127 0 1.459-.115 2.976.146 4.176 2.012.001 4.352.376 6.02 0z"/><path d="m69.635 28.325c.041-.008.046.019.048.049.73.854 1.278 1.896 1.845 2.914.561 1.008 1.12 2.064 1.894 2.865 1.354.197 3.27-.164 4.467.193.019.602-.41 1.115-.68 1.65-.538 1.07-.945 2.062-1.554 3.205-.229.428-.727 1.207-.729 1.65-.002.604.709 1.312 1.02 1.797.403.627.772 1.08.971 1.797-1.842.385-4.461-.145-6.36.242-.278 1.178.085 2.998-.194 4.176-.219.162-.941.141-1.165 0-.16-1.361.075-3.033-.194-4.176-1.801-.373-4.431.184-6.263-.242.061-.662.56-1.154.922-1.748.304-.498.941-1.203.971-1.748.03-.527-.526-1.221-.777-1.699-.846-1.617-1.671-3.379-2.331-5.002.628-.26 1.534-.145 2.379-.145.871 0 1.728.029 2.428-.098.742-.729 1.086-1.807 1.603-2.768.248-.461.534-.936.777-1.408.25-.486.463-1.051.776-1.408.035-.044.088-.071.146-.096z"/></g></svg>