<svg enable-background="new 0 0 75.674 58.887" viewBox="0 0 75.674 58.887" xmlns="http://www.w3.org/2000/svg"><path clip-rule="evenodd" d="m75.666 25.834c-2.75.186-5.85.107-8.503-.048-.301-5.629-2.444-9.375-5.477-12.347-2.358-2.311-5.579-4.221-9.801-4.66-2.627-.274-5.22.117-7.447.865-4.123 1.384-7.284 4.239-9.32 7.734-2.007 3.448-3.06 9.174-1.345 13.98 1.097 3.072 2.879 5.747 5.188 7.639.768.629 1.674 1.09 2.402 1.826-1.098 2.228-2.338 4.276-3.651 6.486-.198.333-.417.782-.625.816-.392.065-1.79-1.005-2.065-1.201-1.946-1.381-3.472-3.091-5.141-4.66.697 1.718 1.609 3.16 2.547 4.805.639 1.121 1.284 2.336 1.969 3.555.23.411.614.879.625 1.201.018.542-.689 1.354-.961 1.826-.357.622-.713 1.265-1.009 1.778-.728 1.261-1.265 2.455-2.113 3.459-.534-.404-.791-1.076-1.105-1.634-2.242-3.976-4.444-8.086-6.774-12.058-2.669-4.553-5.086-9.275-7.686-13.884-2.592-4.596-5.226-9.181-7.782-13.788-2.231-4.02-4.503-8.007-6.774-12.059-.313-.557-.781-1.102-.818-1.778 2.351-.104 5.376-.063 7.879 0 .438.261.626.789.864 1.201 1.73 2.987 3.523 6.097 5.237 9.176 1.968 3.535 4.098 7.014 5.812 10.666.402.856.966 1.7 1.441 2.546.941 1.674 1.901 3.35 2.883 5.044.474.818.824 1.749 1.537 2.402-.512-2.091-1.105-4.053-1.297-6.294-.637-7.446 1.621-13.453 4.708-17.679 4.241-5.804 10.74-10.237 19.699-10.713 4.493-.239 8.055.749 11.193 2.066 3.087 1.295 5.731 3.128 7.928 5.285 2.297 2.076 4.033 4.745 5.477 7.735 1.431 2.965 2.414 6.54 2.305 10.712z" fill-rule="evenodd"/></svg>