<svg enable-background="new 0 0 83.652 39.777" viewBox="0 0 83.652 39.777" xmlns="http://www.w3.org/2000/svg"><path clip-rule="evenodd" d="m36.286 7.458c-6.363.191-12.872.099-19.655.099-3.726 0-7.071-.36-8.417 1.98-1.408 2.45-.151 5.652 2.277 6.238.933.225 2.122.099 3.317.099 7.676 0 16.418.081 23.765-.099.3-1.221.104-2.511.148-3.812.131-3.778-.272-7.828.049-11.734 2.529-.171 5.745-.19 8.367-.049.355 4.892-.043 10.54.248 15.496.493.268 1.088.138 1.634.149 7.093.143 14.882.049 22.378.049 1.336 0 2.779.108 3.664-.347.784-.403 1.346-1.132 1.683-1.782 1.072-2.062-.125-4.509-1.683-5.496-1.455-.921-3.598-.743-6.09-.743-6.457 0-14.046.165-20.2-.049-.127-.427.31-.703.495-.99.618-.959 1.28-1.86 1.981-2.772.92-1.198 1.667-2.57 2.822-3.515 4.905-.19 10.422-.049 15.645-.099 1.764-.017 3.631-.202 5.248.049 2.304.358 4.391 1.681 5.842 3.021 1.595 1.472 2.814 3.239 3.416 5.446.708 2.597.507 5.405-.347 7.624-1.198 3.116-3.628 5.369-6.733 6.585-1.128.442-2.263.58-3.763.644-2.767.116-5.66.066-8.713.049-2.869-.016-5.835 0-8.764 0-2.858 0-5.722-.087-8.466.099-.308 5.141.102 10.826-.198 16.041-2.796.187-5.688.164-8.367.05-.277-5.222-.002-10.83-.198-16.041-1.11-.298-2.271-.114-3.367-.149-5.437-.174-11.277 0-17.13 0-2.307 0-4.671.175-6.98 0-2.959-.224-5.313-2.045-6.932-3.664-2.69-2.69-4.154-7.258-2.672-11.882.426-1.329 1.125-2.452 1.881-3.416 1.528-1.946 3.631-3.517 6.337-4.208 1.274-.326 2.848-.198 4.456-.198h9.209c2.293 0 4.31-.049 6.535-.049.529 0 1.263-.098 1.683.049.514.181 1.138 1.328 1.485 1.782.979 1.282 1.915 2.427 2.872 3.664.455.588 1.084 1.111 1.238 1.881z" fill-rule="evenodd"/></svg>