<svg enable-background="new 0 0 72.887 67.466" viewBox="0 0 72.887 67.466" xmlns="http://www.w3.org/2000/svg"><g clip-rule="evenodd" fill-rule="evenodd"><path d="m72.612.002c.041-.009.046.019.048.048.262.25.145.675.145.967.003 22.105.21 44.908-.049 66.398-.6-.07-.952-.62-1.354-.967-1.193-1.033-2.542-1.988-3.771-3.046-2.465-2.121-4.966-4.16-7.447-6.287-2.42-2.074-4.949-4.129-7.399-6.238-4.902-4.222-9.857-8.39-14.798-12.574-1.263-1.004-2.518-1.996-3.773-3.047-.39-.326-.888-.695-1.063-1.209.117-.656.802-.745 1.112-1.209.422-.335.842-.673 1.209-1.064.879-.653 1.646-1.417 2.515-2.08 3.015-2.319 5.69-5.033 8.656-7.399 2.953-2.357 5.777-4.903 8.656-7.351 5.76-4.897 11.3-10.064 17.168-14.847.035-.044.088-.072.145-.095z"/><path d="m.217 67.222c-.255-.624-.145-1.329-.145-1.983.001-3.47 0-7.095 0-10.639.001-16.815-.05-34.922-.049-52.567 0-.638-.109-1.328.144-1.935 18.066-.054 36.57.048 54.89.048.57 0 1.24-.026 1.838 0 .401.018 1.188-.153 1.354.436v.097c.021.938-1.011.711-1.499.725-2.008.06-3.967.477-5.755.822-7.296 1.408-13.466 4.016-18.28 8.028-3.216 2.68-5.973 5.635-8.027 9.527-1.02 1.929-2.016 3.944-2.419 6.335-.203 1.205-.553 2.388-.725 3.675-.333 2.494-.355 5.733-.049 8.221.479 3.876 1.519 7.112 3.192 9.962 2.204 3.754 4.783 6.918 8.027 9.527 4.863 3.913 11.141 6.438 18.426 7.883 1.787.354 3.725.584 5.803.773.47.043 1.501-.158 1.354.822-.107.705-1.012.435-1.451.435-19.046.002-37.682-.008-56.629-.192z"/></g></svg>