<svg width="130" height="49" viewBox="0 0 130 49" fill="none" xmlns="http://www.w3.org/2000/svg">
<path fill-rule="evenodd" clip-rule="evenodd" d="M75.5124 9.89101C74.873 9.73593 74.2019 9.77949 73.5876 10.0159C72.9734 10.2524 72.445 10.6706 72.0723 11.2153C71.6995 11.76 71.5 12.4055 71.5 13.0666V35.9332C71.5 37.6491 71.1637 39.3482 70.5104 40.9335C69.8571 42.5188 68.8996 43.9592 67.6924 45.1726C66.4852 46.3859 65.0521 47.3484 63.4749 48.005C61.8977 48.6617 60.2072 48.9996 58.5 48.9996H13C9.55219 48.9996 6.24558 47.623 3.80761 45.1726C1.36964 42.7221 0 39.3986 0 35.9332V13.0668C0 9.60139 1.36964 6.27788 3.80761 3.82744C6.24558 1.377 9.55219 0.000355579 13 0.000355579H52V9.80021H13C12.138 9.80021 11.3114 10.1444 10.7019 10.757C10.0924 11.3696 9.75 12.2005 9.75 13.0668V35.9332C9.75 36.7995 10.0924 37.6304 10.7019 38.243C11.3114 38.8556 12.138 39.1998 13 39.1998H58.5C58.9268 39.1998 59.3494 39.1153 59.7437 38.9511C60.138 38.787 60.4963 38.5464 60.7981 38.243C61.0999 37.9397 61.3393 37.5796 61.5026 37.1832C61.6659 36.7869 61.75 36.3621 61.75 35.9332V13.067C61.75 13.067 61.75 13.0671 61.75 13.067C61.7499 10.4227 62.5481 7.84037 64.039 5.66165C65.53 3.48286 67.6436 1.81006 70.1005 0.864283C72.5575 -0.0814928 75.2421 -0.255723 77.7996 0.364617C80.3571 0.984957 82.6672 2.37067 84.4246 4.33864L84.4249 4.33896L114.581 38.1155C114.581 38.1156 114.582 38.1157 114.582 38.1158C115.021 38.6076 115.598 38.9539 116.238 39.109C116.877 39.2641 117.548 39.2205 118.162 38.9841C118.777 38.7476 119.305 38.3294 119.678 37.7847C120.05 37.24 120.25 36.5945 120.25 35.9334V0.000355579H130V35.933C130 35.933 130 35.9329 130 35.933C130 38.5773 129.202 41.1596 127.711 43.3384C126.22 45.5171 124.106 47.1899 121.649 48.1357C119.193 49.0815 116.508 49.2557 113.95 48.6354C111.393 48.015 109.083 46.6293 107.325 44.6614L107.325 44.661L77.1686 10.8845C77.1685 10.8844 77.1685 10.8843 77.1684 10.8842C76.7291 10.3924 76.1516 10.0461 75.5124 9.89101Z" fill="black"/>
</svg>
