<svg enable-background="new 0 0 19.387 19.194" viewBox="0 0 19.387 19.194" xmlns="http://www.w3.org/2000/svg"><path d="m8.48.088c.389-.065.786-.045 1.177-.088.535.037 1.074.042 1.603.138 1.416.23 2.785.769 3.963 1.589.434.287.821.635 1.213.975.994.975 1.803 2.151 2.306 3.454.49 1.241.696 2.583.634 3.913-.088 2.196-.983 4.356-2.478 5.968-.24.327-.569.569-.862.845-1.563 1.338-3.56 2.169-5.615 2.308.007-.946 0-1.892.003-2.838.889-.199 1.678-.759 2.186-1.511.302-.471.503-1.01.559-1.568.004-.25.006-.5-.001-.75-.084-.64-.321-1.268-.733-1.769-.78-1.02-2.155-1.551-3.417-1.316-.667.111-1.291.424-1.797.87-.624.572-1.046 1.37-1.141 2.215.003.402-.042.812.077 1.203.268 1.155 1.168 2.129 2.286 2.512.13.044.266.074.39.134-.018.725-.003 1.451-.008 2.176-.005.215.017.432-.019.646-.563-.084-1.129-.155-1.678-.312-1.456-.393-2.82-1.125-3.941-2.133-.36-.369-.752-.711-1.068-1.121-1.254-1.534-2.012-3.469-2.119-5.448.006-.652-.03-1.308.086-1.953.262-1.812 1.068-3.539 2.276-4.912.281-.289.568-.572.853-.855 1.461-1.297 3.323-2.142 5.265-2.372zm-3.159 4.265c-1.339 1.071-2.239 2.677-2.461 4.379-.143 1.142-.008 2.323.426 3.394.024-.068.046-.137.063-.206.166-1.114.662-2.173 1.387-3.032.171-.152.275-.365.462-.501.114-.08.212-.179.312-.275 1.025-.86 2.327-1.392 3.665-1.474.299-.044.603-.042.904 0 1.45.089 2.866.701 3.916 1.706.208.13.316.357.498.516.839.984 1.379 2.236 1.462 3.529.095-.106.13-.245.179-.374.22-.591.378-1.21.41-1.841.046-.335.057-.678.013-1.014-.104-1.644-.838-3.249-2.036-4.381-1.024-1.039-2.41-1.702-3.851-1.907-.495-.091-1-.044-1.499-.053-1.399.105-2.767.639-3.85 1.534z"/></svg>