<svg enable-background="new 0 0 29.68 30.084" viewBox="0 0 29.68 30.084" xmlns="http://www.w3.org/2000/svg"><path d="m1.006 9.608c2.256-6.127 8.912-10.288 15.415-9.516 5.819.45 11.018 4.703 12.855 10.204.263.85.79 1.973-.06 2.67-1.335.943-3.104.993-4.678.909-.319-2.257-1.367-4.426-3.083-5.948-2.921-2.654-7.536-3.287-11.006-1.348-2.719 1.318-4.585 4.147-4.986 7.113-.565 3.771 1.295 7.873 4.721 9.659 2.955 1.791 6.895 1.683 9.8-.163 2.481-1.351 4.073-3.988 4.523-6.735 1.412.001 2.888.05 4.185.669.613.294 1.058.997.855 1.684-1.618 6.437-7.875 11.353-14.542 11.275-5.851.119-11.489-3.639-13.773-9.003-1.541-3.602-1.659-7.816-.226-11.47z"/><path d="m14.446 7.411c3.854-.317 7.576 2.707 8.06 6.543-2.37-.156-4.899.025-7.081-1.047-1.57-.473-3.123 1.208-2.646 2.744.293 1.075 1.499 1.838 2.597 1.558 2.198-1.02 4.711-.82 7.078-.894-.541 4.107-4.939 7.116-8.971 6.248-3.622-.644-6.434-4.263-6.106-7.936.103-3.718 3.346-7.049 7.069-7.216z"/></svg>