<svg enable-background="new 0 0 68.127 81.747" viewBox="0 0 68.127 81.747" xmlns="http://www.w3.org/2000/svg"><path clip-rule="evenodd" d="m67.914 28.217c-2.234.358-4.601.055-6.958.102-6.82.135-14.367.107-20.976-.102-.348-.525-.184-1.215-.254-1.828-.205-1.801-.739-3.438-1.473-4.725-.765-1.336-1.57-2.393-2.793-3.402-.373-.307-.822-.748-1.27-.762-.653-.021-1.634.937-2.184 1.523-1.771 1.889-3.197 4.342-3.352 7.619-.115 2.43-.041 4.801 0 7.109.081 4.617 0 9.5 0 14.373 0 2.426-.124 4.834.152 7.162.377 3.176 1.569 5.631 3.454 7.516.545.545 1.426 1.56 2.083 1.574.717.018 1.945-1.369 2.336-1.828 1.622-1.899 2.813-4.01 3.098-7.211.052-.586-.051-1.256.203-1.828 1.036-.27 2.163-.102 3.301-.102h21.382c1.144 0 2.311-.16 3.352.203.22 5.043-.909 9.303-2.641 12.748-1.739 3.459-4.089 6.422-6.805 8.734-2.807 2.391-6.111 4.326-10.107 5.484-3.42.992-8.002 1.367-12.189.713-.625-.098-1.335-.389-2.082-.305-.638.07-1.271.273-1.879.355-1.847.246-4.147.518-6.349.355-2.685-.199-5.158-.639-7.517-1.424-1.047-.348-2.091-.9-3.098-1.371-4.333-2.021-8.155-5.492-10.666-9.395-.297-.463-.463-.965-.762-1.473-1.102-1.879-1.974-3.94-2.691-6.248-1.406-4.518-1.118-10.672-1.118-16.709 0-6.242-.214-11.959-.051-17.826.083-2.981.511-5.469 1.219-7.721 2.069-6.57 6.2-11.853 11.53-15.232 3.708-2.352 8.277-4.006 13.763-4.266 1.467-.07 2.907-.014 4.216.152 1.227.156 2.512.641 3.758.559 1.137-.074 2.232-.43 3.352-.559 3.798-.436 7.467.057 10.513 1.016 4.05 1.273 7.27 3.072 10.158 5.484 4.75 4.223 8.38 9.894 9.396 17.98.142 1.126.301 2.4-.051 3.556zm-42.002-26.156c-5.352.369-9.796 2.291-13.204 4.824-3.455 2.57-6.065 5.805-8.076 9.803-.497.988-.806 2.084-1.168 3.25-1.094 3.529-1.168 7.562-1.168 12.24 0 6.104.102 11.822.102 17.775 0 2.982.028 5.863.457 8.432.405 2.428 1.09 5.004 2.032 6.906 1.95 3.943 4.769 7.277 8.177 9.701 3.517 2.502 7.844 4.336 13.205 4.621 5.86.312 10.391-1.09 14.322-3.453 2.322-1.352 4.361-2.986 5.942-5.078 2.946-3.262 5.279-7.756 6.095-13.104.119-.779.244-1.684 0-2.488-.686-.342-1.598-.203-2.489-.203-1.755 0-3.426 0-5.282 0-.807 0-2.126-.137-2.54.152-.515.359-.647 2.309-.864 2.996-.942 2.994-2.742 5.273-4.774 6.957-2.922 2.834-8.794 3.945-13.611 2.389-4.443-1.438-7.333-4.344-8.939-8.584-1.064-2.811-.864-6.787-.863-10.869 0-6.859 0-13.594 0-19.908 0-.998-.069-2.014 0-2.945.536-7.256 3.599-12.266 7.11-16.303 2.055-2.469 4.776-4.412 7.618-5.994.369-.205 1.004-.365 1.066-.914-.87-.299-2.031-.279-3.148-.203zm34.486 24.531h2.793c.759 0 2.297.125 2.59-.203.392-.441.033-2.014-.102-2.742-.529-2.873-1.293-5.084-2.285-7.213-1.406-3.019-3.237-5.267-5.333-7.365-1.951-1.951-4.711-3.809-7.669-5.027-3.015-1.242-6.696-2.238-10.716-1.98-8.216.525-13.762 3.965-17.928 8.787-3.038 3.598-5.552 7.836-6.146 13.764-.158 1.582-.084 3.234-.102 4.875-.05 4.775-.115 9.617 0 14.424.078 3.217 0 6.68 0 9.854 0 3.381.949 5.73 2.286 7.668 1.262 1.828 3.321 3.506 5.587 4.367 1.468.559 4.417.928 6.5.561.574-.102 1.679-.197 1.829-.713.139-.476-.936-1.217-1.32-1.625-1.55-1.639-2.711-3.611-3.352-5.941-.875-3.178-.508-8.092-.508-11.834-.001-5.902-.204-12.641 0-18.537.2-5.787 2.832-9.58 6.551-11.986 2.454-1.588 6.082-2.674 9.955-2.031 3.474.576 6.073 2.203 8.025 4.316 1.49 1.615 2.692 3.605 3.301 5.992.199.783.233 1.641.66 2.439 1.608.269 3.449.15 5.384.15zm-9.447-5.639c-.887-1.398-2.201-2.777-3.555-3.656-1.972-1.281-4.406-2.221-7.669-1.98-.834.061-3.022.443-3.098 1.016-.051.391.461.715.712.965 1.772 1.771 3.225 3.973 3.961 6.754.208.787.251 1.635.661 2.389 2.491.203 5.389.152 8.126.152.906 0 1.906.174 2.59-.254-.024-2.063-.777-3.886-1.728-5.386zm9.853 34.334c-.823 0-1.677 0-2.539 0-.824 0-1.789-.141-2.54 0-.922.172-.776 1.998-.914 2.996-.146 1.055-.421 2.182-.66 3.047-1.653 6.002-4.592 10.127-8.38 13.713-1.338 1.199-2.945 2.326-4.52 3.25-.529.311-1.364.494-1.473 1.066.353.303.89.266 1.321.254 1.597-.037 3.031-.154 4.368-.406 5.356-1.002 9.341-3.496 12.544-6.5 2.139-2.006 3.966-4.447 5.384-7.314 1.023-2.068 1.907-4.666 2.285-7.211.128-.865.349-1.846.051-2.742-1.531-.276-3.225-.153-4.927-.153z" fill-rule="evenodd"/></svg>