<svg enable-background="new 0 0 81.141 81.783" viewBox="0 0 81.141 81.783" xmlns="http://www.w3.org/2000/svg"><path clip-rule="evenodd" d="m42.083 41.793c-.168 2.629-.17 5.955 0 8.582.741.271 1.58.152 2.336.152 12.112 0 24.339-.189 36.72.051.029 1.008-.371 1.963-.66 2.895-1.682 5.43-4.519 10.203-7.923 14.02-.59.66-1.074 1.377-1.676 1.98-4.903 4.904-10.909 8.627-18.436 10.817-3.975 1.158-8.464 1.6-13.053 1.473-4.338-.119-8.699-1.16-12.239-2.387-7.078-2.449-12.93-6.814-17.319-11.936-4.534-5.289-7.891-11.66-9.294-19.959-1.558-9.211.453-18.258 3.605-24.531 3.154-6.274 7.806-11.623 13.611-15.643 5.867-4.061 12.707-6.834 21.941-7.262 8.871-.412 16.22 2.031 21.738 5.129 5.876 3.301 10.409 7.465 13.966 12.799 1.886 2.828 3.385 5.619 3.505 9.904.172 6.156-3.165 10.541-6.958 13.104-2.532 1.709-6.459 2.98-10.717 2.285-.984-.162-1.889-.314-2.742-.609-.806-.279-1.662-.965-2.641-1.016-2.213-.115-4.577 0-6.958 0-2.283 0-4.612-.098-6.806.152zm10.259-27.73c-2.608-.799-6.053-1.58-9.497-1.32-.221.016-.585.037-.762.203-.168 2.543-.17 5.785 0 8.328 1.046.213 2.343.102 3.656.102 1.3 0 2.637.039 3.81-.051.612-.828 1.111-1.723 1.727-2.539.618-.82 1.273-1.604 2.082-2.234.387-.578 1.191-.738 1.473-1.422-.669-.487-1.585-.792-2.489-1.067zm-12.088-1.066c-5.524.418-9.906 2.717-13.407 5.281-.623.41-1.207.859-1.728 1.371-.547.502-1.242.857-1.523 1.625 1.806.33 3.673.094 5.536.102 2.885.012 5.581.051 8.38.051 1.183 0 2.431.125 3.555-.152.17-2.508.169-5.719 0-8.227-.218-.21-.581-.069-.813-.051zm-2.539 9.191c-4.864.156-10.211-.108-15.084.051-1.892 1.658-3.257 3.986-4.419 6.299-.393.781-.952 1.594-.965 2.539 3.923.279 7.979 0 11.986.051 3.971.051 8.007.096 11.833-.101.177-2.787.252-5.93 0-8.686-1.063-.245-2.215-.188-3.351-.153zm4.419.102c-.268.598-.152 1.352-.152 2.082v2.287c0 1.523-.122 3.115.152 4.367 1.833.141 4.498.226 6.195-.051-.086-1.514-.218-3.076-.051-4.621.163-1.504.665-2.846.814-4.065-2.089-.169-4.868-.163-6.958.001zm-17.827 9.65c-.061 0-.075.043-.152.051-2.407.217-5.066-.289-7.364.152-.549 1.125-.857 2.566-1.117 4.012-.265 1.473-.46 3.076-.305 4.623 2.012.293 4.13.094 6.247.152 2.135.059 4.286-.051 6.45-.051 4.361-.002 8.758.084 12.95-.102.209-.625.211-1.373.204-2.082-.021-2.135.052-4.482-.153-6.604-5.441-.231-11.173-.153-16.76-.151zm17.827.152c-.274 1.234-.152 2.81-.152 4.316 0 1.523-.122 3.119.152 4.369 3.807.113 8.369.109 12.239-.051-.085-.473-.561-.646-.863-.914-.985-.877-1.798-1.799-2.539-2.896-.989-1.465-1.699-3.066-2.388-4.875-1.97-.193-4.521-.132-6.449.051zm-6.044 9.549c-1.729-.049-3.482 0-5.231 0-3.47 0-6.947-.055-10.31 0-.062 0-.075.043-.152.051-1.626.145-3.458-.232-4.978.152-.196 1.566.124 3.162.406 4.621.28 1.451.618 2.891 1.219 4.012 7.658.135 16.412.117 24.022-.051.275-1.256.153-2.828.153-4.316 0-1.504.022-3.027-.153-4.316-1.611-.192-3.288-.106-4.976-.153zm31.793 9.649c-.779 0-1.715-.025-2.285 0-6.686.311-14.073-.256-20.671.051-.964.045-1.936-.154-2.844.152-.184 1.295-.102 2.832-.102 4.318 0 1.52-.119 3.057.152 4.316 6.178.25 13.155.037 19.451.051.937.002 1.989.156 2.692-.051.609-.18 1.288-1.203 1.777-1.828.61-.783 1.132-1.504 1.523-2.082.995-1.473 1.85-3.053 2.336-4.775-.578-.268-1.323-.152-2.029-.152zm-43.322.101c-1.863.037-3.757-.252-5.435-.051-.452.055-1.233-.039-1.625.203.463 1.844 1.485 3.363 2.438 4.775.968 1.434 1.933 2.91 3.301 3.961 5.288-.002 10.637 0 15.744 0 .71 0 1.469.107 2.134-.152.184-1.311.102-2.867.102-4.367 0-1.521.118-3.057-.153-4.318-5.279-.16-11.142-.156-16.506-.051zm30.423 9.651c-2.08 0-4.144-.111-6.196-.051-.681.019-1.413-.074-2.032 0-1.511.182-3.245-.152-4.672.203-.198 2.451-.13 5.428.051 7.721.965.285 2.006.162 2.945.102 7.036-.453 12.156-2.789 16.252-6.045.619-.6 1.497-.941 1.829-1.828-2.566-.202-5.363-.102-8.177-.102zm-30.677.152c.139.623.75 1.039 1.219 1.422 2.766 2.262 5.954 4.166 9.853 5.232 1.763.481 3.643 1.115 5.688 1.016.269-1.094.153-2.502.153-3.861s.113-2.764-.153-3.859c-5.283-.145-11.417-.204-16.76.05z" fill-rule="evenodd"/></svg>