<svg enable-background="new 0 0 173.727 174.615" viewBox="0 0 173.727 174.615" xmlns="http://www.w3.org/2000/svg"><g clip-rule="evenodd" fill-rule="evenodd"><path d="m87.286.018c3.241-.105 7.03.26 10.293.631 3.222.367 6.352.927 9.226 1.651 5.942 1.497 11.344 3.183 16.217 5.535 9.963 4.808 18.332 10.71 25.587 17.964 8.183 8.181 14.676 17.93 19.373 29.666.524 1.312.867 2.726 1.311 4.127 2.582 8.161 4.635 17.297 4.419 28.209-.139 7.021-.93 13.453-2.282 19.421-.67 2.954-1.681 5.707-2.379 8.497-.342 1.366-.935 2.676-1.457 3.981-2.584 6.46-5.827 12.274-9.564 17.673-1.467 2.118-3.067 4.191-4.759 6.118-1.709 1.946-3.36 3.918-5.195 5.681-3.684 3.539-7.605 6.86-11.895 9.905-4.227 3-8.816 5.75-13.837 7.914-5.04 2.171-10.388 4.254-16.314 5.486-5.995 1.247-12.429 2.136-19.518 2.136-12.266.001-22.987-2.631-31.899-6.215-16.671-6.703-29.663-17.735-39.28-31.511-4.482-6.422-8.004-13.701-10.827-21.849-.934-2.695-1.78-5.595-2.379-8.497-.934-4.523-1.688-9.159-1.991-14.323-.194-3.324-.174-7.137.049-10.584.755-11.68 3.615-21.972 7.571-30.489 1.186-2.552 2.311-5.013 3.643-7.283 1.352-2.307 2.805-4.465 4.271-6.604 2.895-4.216 6.415-8.025 9.954-11.798 1.688-1.801 3.718-3.565 5.729-5.195 4.037-3.27 8.191-6.186 12.867-8.885 4.586-2.646 9.538-5.133 14.954-6.846 2.751-.87 5.563-1.632 8.546-2.331 3.017-.707 6.045-1.144 9.273-1.603 3.218-.456 6.601-.462 10.293-.582zm73.801 110.653c.585-1.856 1.04-3.781 1.554-5.778 2.015-7.838 2.47-17.751 1.505-26.656-.236-2.188-.484-4.33-.923-6.36-1.291-5.984-3.03-11.7-5.34-16.605-1.574-3.342-3.154-6.559-5.05-9.565-1.867-2.96-3.931-5.84-6.167-8.448-6.649-7.758-14.724-14.691-24.324-19.518-10.448-5.253-23.174-9.079-38.939-8.448-5.874.234-11.015 1.108-15.829 2.379-1.933.51-3.853 1.029-5.681 1.651-7.286 2.481-13.558 5.908-19.372 9.856-5.751 3.904-10.761 8.688-15.246 13.983-4.472 5.28-8.341 11.213-11.312 17.916-2.184 4.924-4.146 10.501-5.341 16.556-.404 2.05-.928 4.197-1.02 6.312-.201 4.658-.6 9.269-.291 13.935.297 4.517.765 8.857 1.699 12.915 2.709 11.769 7.709 21.66 13.982 29.86 2.115 2.764 4.362 5.384 6.847 7.769 6.339 6.404 13.993 11.941 22.868 16.071 8.891 4.137 19.326 6.943 32.045 6.943 15.9 0 28.229-4.418 38.503-10.196 2.085-1.172 3.951-2.561 5.875-3.884 3.894-2.677 7.476-5.637 10.633-8.885 8.486-8.519 15.284-18.978 19.324-31.803z"/><path d="m93.356 43.765c.762-1.49 2.009-2.537 3.933-2.768 1.607-.193 3.017.568 3.836 1.359.861.832 1.57 2.154 1.456 3.739-.059.826-.404 1.805-.68 2.67-1.865 5.853-3.715 12.004-5.486 17.868-2.05 6.786-4.235 13.702-6.264 20.392-.532 1.756-.913 3.536-1.456 5.244-2.696 8.477-5.157 16.942-7.817 25.539-.769 2.486-1.599 5.106-2.379 7.623-.274.885-.428 1.783-.776 2.525-.85 1.805-3.017 3.259-5.584 2.622-1.998-.496-3.793-2.227-3.691-4.807.018-.42.201-.856.34-1.359 1.29-4.666 2.892-9.614 4.273-14.129 5.219-17.051 10.503-34.047 15.683-51.126.27-.891.356-1.821.631-2.719 1.283-4.194 2.634-8.449 3.981-12.673z"/><path d="m29.848 59.981c3.636-2.86 8.208-5.19 14.469-5.486 4.281-.202 8.154.942 11.021 2.331 4.604 2.229 8.011 5.154 10.779 9.225.914 1.345 1.973 2.683 2.428 4.224.605 2.054-.358 3.847-1.554 4.807-1.096.88-3.445 1.577-5.195.68-1.281-.657-2.02-2.32-2.768-3.496-1.658-2.607-3.607-4.66-6.36-6.312-1.809-1.085-3.782-1.939-6.312-2.136-2.621-.204-5.169.4-7.089 1.262-3.754 1.685-6.669 4.597-8.643 8.254-2.095 3.88-3.254 7.995-3.253 13.595.001 5.252 1.638 9.877 3.69 13.207 2.134 3.46 5.122 6.37 9.08 7.817 2.151.787 4.79 1.14 7.331.728 4.654-.753 7.965-3.547 10.342-6.555.612-.774 1.181-1.625 1.699-2.524.456-.792.876-1.911 1.554-2.622 1.385-1.453 3.98-1.744 5.73-.68 1.486.903 2.79 2.82 2.185 5.244-.258 1.031-.929 2.031-1.456 2.913-3.753 6.274-9.282 11.086-17.189 13.061-5.192 1.297-10.811.31-14.711-1.359-4.154-1.779-7.24-4.229-9.954-7.332-4.166-4.764-7.365-11.64-7.914-20.247-.033-.521-.118-.987-.048-1.553.015-.122.138-.25.146-.389.019-.31-.129-.657-.146-.971-.052-.946.033-2.068.146-3.059 1.174-10.34 5.519-17.388 11.992-22.627z"/><path d="m109.233 54.932c2.463-.201 4.592 1.456 5.146 3.496.34 1.25.194 2.748.194 4.127-.001 9.824-.049 19.618-.049 29.714 0 3.066.205 5.42 1.068 7.525 1.585 3.869 4.793 6.91 9.079 8.109 5.28 1.477 10.133-.52 13.013-3.156 1.585-1.452 2.688-3.216 3.447-5.146.218-.555.475-1.029.582-1.603.335-1.777.438-3.622.438-5.972-.001-9.899.05-18.963.049-29.083-.001-1.44-.118-2.908.146-4.127.379-1.755 1.475-2.872 2.621-3.447 1.472-.738 3.534-.532 4.855.243 1.286.754 2.133 1.996 2.331 3.739.206 1.819 0 3.867 0 5.923-.002 7.842.001 16.222 0 24.131-.001 4.082.005 7.954-.825 11.119-.833 3.176-2.222 5.737-3.982 8.108-3.42 4.605-8.217 7.988-15.003 9.225-7.809 1.422-14.441-1.42-18.693-4.758-4.566-3.585-7.826-8.493-8.837-15.391-.522-3.572-.242-7.533-.242-11.507 0-8.023.112-15.837 0-23.742-.031-2.161.009-3.931.825-5.244.747-1.201 1.896-2.124 3.837-2.283z"/></g></svg>