<svg enable-background="new 0 0 74.498 75" viewBox="0 0 74.498 75" xmlns="http://www.w3.org/2000/svg"><path clip-rule="evenodd" d="m74.498 37.06c-3.424.209-7.149.141-10.883.141-3.728 0-7.497.078-11.023-.094-.469-5.869-3.059-9.676-6.802-12.384-1.846-1.336-4.161-2.331-6.989-2.627-2.86-.3-5.873.304-8.068 1.407-4.24 2.132-7.415 5.644-8.537 10.648-1.303 5.813.961 11.19 4.081 14.213 1.834 1.933 4.35 3.361 7.365 4.175 3.22.87 7.134.319 9.804-.844 4.363-1.901 7.8-6.028 8.818-11.305.155-.799.1-1.637.376-2.486 5.342-.235 11.076-.152 16.559-.141 1.79.004 3.563-.097 5.254.141.152 4.365-.736 8.368-1.923 11.868-2.349 6.922-6.378 12.226-11.351 16.512-2.496 2.15-5.361 3.943-8.538 5.395-3.137 1.433-6.816 2.651-10.836 3.096-4.327.479-8.834.17-12.806-.656-7.535-1.567-13.383-5.394-18.013-9.851-2.433-2.276-4.298-4.968-6.004-7.927-1.699-2.948-3.101-6.236-3.987-9.944-.94-3.933-1.191-8.478-.845-12.712.342-4.181 1.456-7.869 2.861-11.07 1.432-3.261 3.123-6.196 5.16-8.772 5.024-6.359 12.236-11.236 21.67-13.184 1.008-.208 1.991-.315 3.049-.422 3.919-.398 8.328-.337 12.008.516 7.741 1.795 13.625 5.235 18.388 9.898 6.309 6.174 10.891 14.437 11.212 26.409z" fill-rule="evenodd"/></svg>