<svg enable-background="new 0 0 178.392 178.991" viewBox="0 0 178.392 178.991" xmlns="http://www.w3.org/2000/svg"><path clip-rule="evenodd" d="m178.1 75.06c-.227.157-.514.096-.806.101-12.546.191-25.264-.174-38.05-.101-.036-.047-.091-.077-.15-.101-.262-11.69.148-23.375-.051-34.975-1.057-.345-2.207-.202-3.326-.202-8.323 0-17.144-.106-25.35 0-.001.049-.062.039-.101.05-.234 2.389-.151 4.826-.151 7.257.003 17.038-.101 34.594-.252 51.757-.364.044-.542-.444-.655-.655-1.144-2.138-2.211-4.349-3.376-6.502-1.318-2.434-2.58-4.945-3.881-7.408-2.59-4.906-5.244-9.847-7.761-14.816-5.049-9.967-10.088-19.997-15.421-29.683-1.276-.232-3.661-.173-5.241-.202-1.63-.03-3.256.068-4.688 0-3.359-.16-6.689-.051-9.827-.051-6.744 0-13.322-.116-19.704.051-.269.986-.152 2.025-.152 3.024.002 31.745-.363 64.609-.251 96.609 1.083.341 2.272.205 3.427.151 1.169-.054 2.377 0 3.578 0 7.113.001 14.863.123 21.67.051.079-.073.176-.128.202-.253.269-20.096.008-40.182.352-60.122.286-.162.43.276.504.403.903 1.543 1.707 3.316 2.57 4.939 4.948 9.3 9.738 18.879 14.716 28.222 1.001 1.879 2.015 3.738 2.974 5.645.958 1.906 2.026 3.777 2.771 5.795 2.014 3.672 3.896 7.531 5.896 11.289.656 1.235 1.223 2.593 1.965 3.73.084.128.149.289.352.353 12.47.178 26.043.151 38.704.05.041-.01.051-.051.102-.05.357-11.867-.045-24.823.302-36.235.045-.022.09-.044.101-.101 12.644-.142 26.089-.101 38.805.101.059-.008.09.011.101.051.202 12.32.004 23.923 0 36.185-.001 2.484.057 4.846-.151 7.055-.415 4.403-1.465 8.147-3.023 11.591-.398.882-.71 1.719-1.159 2.52-3.061 5.46-7.213 9.797-12.498 13.153-3.052 1.938-6.521 3.371-10.382 4.284-1.967.465-4.112.907-6.4.907-2.276 0-4.689.052-7.257-.05-4.844-.193-9.677.28-14.615.05-2.371-.11-4.811 0-7.257 0-22.164-.002-42.647-.101-64.558-.101-4.767.001-9.638.043-14.313-.05-1.271-.025-2.446.088-3.578 0-7.737-.599-13.698-3.333-18.596-7.005-2.839-2.128-5.218-4.616-7.257-7.408-4.195-5.745-6.954-12.633-6.954-22.327 0-33.983.307-67.038.303-101.246 0-4.746.093-9.629 1.008-13.506.884-3.746 2.459-7.234 4.334-10.331 1.867-3.084 4.04-5.796 6.602-8.013 5.367-4.644 11.604-7.798 20.461-8.819 2.063-.238 4.771-.051 7.105-.051 34.361 0 68.507.352 102.355.353 2.433 0 4.558.017 6.602.353 5.746.943 10.705 3.216 14.716 6.098 3.436 2.469 6.223 5.323 8.617 8.769.25.359.487.69.706 1.058 2.734 4.617 5.053 10.202 5.493 17.034.14 2.174.099 4.508 0 6.854-.095 2.24 0 4.548 0 6.904.001 9.147.001 18.706-.202 27.567z" fill-rule="evenodd"/></svg>