<svg enable-background="new 0 0 68.034 79.479" viewBox="0 0 68.034 79.479" xmlns="http://www.w3.org/2000/svg"><g clip-rule="evenodd" fill-rule="evenodd"><path d="m32.589.05c.165 3.481.149 7.357 0 10.806-.424.239-1.004.154-1.487.248-3.508.684-6.634 3.814-6.345 8.228.166 2.529 1.423 4.523 3.023 5.75 1.249.957 2.886 1.431 4.759 1.735.188 3.379.131 7.574 0 10.806-2.926.242-5.433-.58-7.534-1.537-2.126-.968-3.949-2.164-5.502-3.718-3-2.998-5.595-7.181-5.75-12.738-.166-5.953 1.998-10.347 4.957-13.531 3.211-3.456 7.488-6.023 13.879-6.049z"/><path d="m36.158 0c5.772.361 10.055 2.438 13.086 5.701 2.992 3.22 5.403 7.316 5.403 13.333 0 5.894-2.563 10.147-5.602 13.185-1.568 1.568-3.352 2.887-5.501 3.866-2.12.967-4.674 1.761-7.633 1.537-.201-3.446-.106-7.408 0-10.756 1.098-.286 2.149-.457 3.123-.893 2.49-1.114 4.803-3.783 4.61-7.386-.172-3.223-1.962-5.245-4.114-6.642-.533-.214-1.073-.459-1.685-.644-.599-.182-1.277-.212-1.884-.446-.193-2.397-.049-5.258-.049-8.029 0-.837-.075-2.144.099-2.677.026-.071.076-.121.147-.149z"/><path d="m67.93 39.158c.181 3.66.099 7.368-.049 11.004-19.696.273-39.52-.103-59.331-.1-2.812.001-5.603.111-8.377-.148-.185-2.669-.092-5.713-.099-8.427-.002-.895-.015-1.833.198-2.626 10.837-.075 22.736.049 34.052.049 5.687 0 11.346.241 16.902.05 2.858-.099 5.701.205 8.525.099 1.353-.05 2.716-.049 4.064-.049 1.375 0 2.774-.121 4.115.148z"/><path d="m67.881 53.433c.18 2.617.099 5.674.099 8.525 0 .93.113 1.866-.149 2.677-20.892.268-42.158-.099-63.594-.1-1.373 0-2.763.118-4.114-.148-.147-2.632-.049-5.567-.049-8.525 0-.923-.157-1.919.198-2.677 22.35-.033 45.677.123 67.609.248z"/><path d="m67.881 68.402c.084 2.761.144 5.585.049 8.278-.032.91.144 1.871-.148 2.726-22.008.229-43.749-.152-65.726-.148-.658 0-1.357.112-1.983-.148-.09-2.651-.05-5.578-.05-8.377 0-.9-.111-1.828.149-2.627 16.809-.136 34.478.179 51.203.099 4.207-.02 8.481.187 12.392.05 1.379-.049 2.775-.076 4.114.147z"/></g></svg>