<svg enable-background="new 0 0 81.681 60.947" viewBox="0 0 81.681 60.947" xmlns="http://www.w3.org/2000/svg"><g clip-rule="evenodd" fill-rule="evenodd"><path d="m81.488 18.97c-.506.255-1.115.145-1.645.145-13.387 0-26.761.145-39.896.097-3.392-.012-6.68 0-10.301 0-1.114 0-2.252.119-3.337-.145.003-.761.429-1.444.726-2.08.896-1.92 2.165-3.636 3.385-5.271 5.151-6.436 12.148-11.189 23.019-11.703 1.58-.075 3.251.183 4.788.387 1.522.202 2.937.559 4.207.967 7.786 2.503 13.548 7.319 17.265 13.638.659 1.228 1.657 2.371 1.789 3.965z"/><path d="m45.992 20.421c.048 6.598.127 13.735 0 20.263-.686.257-1.468.145-2.176.145-11.325 0-23.049.011-33.997-.048-1.027-.634-1.649-1.672-2.563-2.418-1.981-2.001-4.266-4.459-6.432-6.625-.239-.239-.806-.776-.822-1.016-.029-.446.793-1.092 1.064-1.402.444-.508.833-.821 1.161-1.306.825-.804 1.513-1.744 2.321-2.563 1.062-.97 2.291-2.668 3.434-3.917.377-.412.942-1.168 1.403-1.257 1.298-.252 3.302.095 4.642.048 4.371-.151 9.25 0 13.686 0 4.504 0 9.065-.048 13.783-.048 1.511-.001 3.045-.118 4.496.144z"/><path d="m81.681 41.99c-.306 1.5-1.11 2.779-1.838 4.014-2.194 3.727-4.878 6.624-8.317 9.188-2.174 1.621-4.736 3.007-7.641 4.014-2.911 1.008-6.245 1.745-9.914 1.741-7.448-.008-13.111-2.554-17.603-5.755-4.017-2.862-7.035-6.433-9.382-11.026-.327-.638-.817-1.327-.677-2.128 1.073-.299 2.189-.099 3.288-.145 3.313-.14 6.722-.049 10.107-.048 8.708 0 17.703.048 26.936.048 4.506 0 9.039.092 13.541-.048.431-.013 1.117-.118 1.5.145z"/></g></svg>