<svg enable-background="new 0 0 14.958 17.41" viewBox="0 0 14.958 17.41" xmlns="http://www.w3.org/2000/svg"><path d="m8.594.007c2.07-.008 4.141.004 6.211-.007-.639.603-1.244 1.241-1.871 1.855-.235.25-.498.47-.735.718-.505.51-1.018 1.011-1.518 1.524-2.061-.011-4.122 0-6.182-.005.356-.325.686-.678 1.03-1.014 1.019-1.025 2.048-2.042 3.065-3.071z"/><path d="m4.48 4.313c1.998-.002 3.996.008 5.993-.005-.654.628-1.285 1.28-1.93 1.918-.783.783-1.566 1.565-2.349 2.348-.071-.009-.142-.014-.212-.013-1.992.003-3.984-.002-5.975.003.638-.639 1.276-1.278 1.916-1.915.268-.289.573-.542.847-.825.483-.486.97-.968 1.452-1.455.061-.083.171-.048.258-.056z"/><path d="m6.43 8.694c1.415-1.425 2.841-2.838 4.259-4.259 1.427 1.416 2.84 2.846 4.269 4.26-.219.187-.405.406-.616.601-.172.195-.382.351-.557.544-1.029 1.031-2.063 2.059-3.095 3.087-1.17-1.17-2.344-2.336-3.512-3.509-.246-.244-.491-.49-.748-.724z"/><path d="m0 8.846c2.037.007 4.074 0 6.112.003.064-.009.112.033.153.075.69.689 1.379 1.379 2.067 2.07.542.499 1.045 1.039 1.573 1.552.181.188.375.364.549.559-1.007-.02-2.015-.003-3.022-.009-1.057.004-2.113-.006-3.17.006-1.422-1.417-2.839-2.84-4.262-4.256z"/><path d="m4.483 13.318c2.062-.002 4.125-.004 6.186.001.325.29.62.615.933.919 1.062 1.055 2.111 2.124 3.182 3.172-2.04-.008-4.08 0-6.119-.003-.018-.004-.054-.01-.072-.014-.379-.374-.754-.751-1.129-1.129-.91-.849-1.756-1.768-2.664-2.619-.105-.109-.215-.215-.317-.327z"/></svg>