<svg clip-rule="evenodd" fill-rule="evenodd" stroke-linejoin="round" stroke-miterlimit="2" viewBox="0 0 560 400" xmlns="http://www.w3.org/2000/svg"><path d="m436.4 583.4h-413c-12.9 0-23.4-10.5-23.4-23.4v-358.5c0-12.9 10.5-23.4 23.4-23.4h216c4.6 0 8.3-3.7 8.3-8.3v-162c0-3.3 2-6.2 5.1-7.3 3.1-1.2 6.5-.3 8.6 2.1l50.8 57.4c2 2.3 4.8 3.6 7.8 3.6h67.5c3 0 5.8-1.3 7.7-3.6l50.9-57.5c2.2-2.5 5.6-3.3 8.7-2.1s5 4 5 7.3v159.1c0 12.9-10.5 23.4-23.4 23.4h-172.2c-4.6 0-8.3 3.7-8.3 8.3v372.6h180.5c6.2 0 11.2-5 11.2-11.2v-234c0-3.4 2.7-6.1 6.1-6.1s6.1 2.7 6.1 6.1v234.1c0 12.9-10.5 23.4-23.4 23.4zm-413-393.1c-6.2 0-11.2 5-11.2 11.2v358.5c0 6.2 5 11.2 11.2 11.2h220.3v-372.6c0-3.4.8-6.6 2.3-9.4-2 .7-4.2 1.1-6.5 1.1zm236.6-170.9v150.4c0 3.4-.8 6.6-2.3 9.4 2-.7 4.2-1.1 6.5-1.1h172.2c6.2 0 11.2-5 11.2-11.2v-147.5l-43.1 48.8c-4.2 4.9-10.4 7.8-16.9 7.8h-67.6c-6.6 0-12.8-2.9-17-7.8z" fill-rule="nonzero" transform="matrix(.434972 0 0 .434972 180 73.151)"/></svg>