<svg enable-background="new 0 0 73.362 73.348" viewBox="0 0 73.362 73.348" xmlns="http://www.w3.org/2000/svg"><path clip-rule="evenodd" d="m61.372 9.471c3.201 3.033 5.742 6.059 7.852 9.948 1.467 2.705 2.823 6.012 3.608 9.753.284 1.35.772 3.13.39 4.34-.296.94-1.18 1.674-2.341 1.853-1.115.173-2.292.009-3.462.049-3.418.118-6.719-.074-10.338.097-2.087.099-4.624-.043-6.925.049-2.393.096-4.237-.178-4.779-2.097-.36-1.272-.188-3.269-.146-4.73.095-3.314-.106-6.221-.098-9.607.004-1.484.267-3.279-.146-4.584-.243-.768-1.045-1.642-1.658-1.805-1.198-.318-2.304.589-3.073 1.122-.719.498-1.398.979-1.999 1.512-6.974 4.963-14.234 10.319-21.409 15.459-1.11.795-2.342 1.726-3.512 2.633-1.1.854-3.094 1.755-2.926 3.658.15 1.698 2.527 2.594 3.462 3.56 4.873 3.458 9.457 6.655 14.24 10.192 3.43 2.537 7.046 5.044 10.631 7.657 1.097.799 2.436 2.081 3.804 2.292 1.15.177 2.063-.62 2.439-1.609.482-1.272.244-3.104.244-4.73 0-3.292 0-6.642 0-10.046 0-3.195-.382-5.913 2.194-6.535.85-.205 1.917-.086 2.975-.146 2.978-.17 5.846-.048 9.022-.048 3.095 0 5.99-.048 9.217-.049 1.082 0 2.167-.091 2.926.146.87.272 1.46.908 1.707 1.854.224.859-.015 2.005-.195 3.023-.863 4.89-2.385 8.729-4.487 12.338-.846 1.453-1.708 2.859-2.682 4.047-3.992 4.868-9.121 9.001-15.411 11.509-3.289 1.312-6.809 2.232-10.875 2.633-4.261.42-8.45-.174-12.143-1.024-3.504-.807-6.675-2.157-9.656-3.804-2.869-1.585-5.638-3.7-7.608-5.852-2.147-2.345-4.255-4.898-5.754-7.754-.77-1.466-1.389-3.083-2-4.73-.613-1.654-1.135-3.327-1.561-5.169-.831-3.606-1.151-7.996-.682-12.289.444-4.056 1.567-7.443 2.877-10.583.675-1.617 1.339-3.131 2.244-4.536 2.596-4.031 5.878-7.689 9.753-10.436 5.32-3.77 11.285-6.403 19.946-6.974 2.841-.187 5.88.086 8.437.585 7.463 1.459 13.174 4.687 17.898 8.828z" fill-rule="evenodd"/></svg>