<svg enable-background="new 0 0 58.22 80.279" viewBox="0 0 58.22 80.279" xmlns="http://www.w3.org/2000/svg"><g clip-rule="evenodd" fill-rule="evenodd"><path d="m28.966 13.341c.901.393 2.182.153 3.371.201 1.169.047 2.348-.059 3.271.151.161.393.161 1.367 0 1.761-2.014.391-4.703-.075-6.993.151-.458 1.135-.539 2.394-.755 3.623-1.488 8.45-3.154 17.016-4.73 25.66-1.543 8.467-3.069 17.088-4.68 25.71-.275 1.476-1.196 4.366.503 4.579 1.049-.08 1.637-.982 2.113-1.711 1.029-1.572 1.568-3.455 2.265-5.384.346-.956.573-1.945 1.107-2.717.376-.067.883.15 1.106.402-.303 1.399-.815 2.737-1.258 4.076-.436 1.315-.897 2.581-1.561 3.723-1.256 2.165-3.126 4.169-5.333 5.283-2.288 1.156-6.057 1.861-8.905 1.006-2.67-.801-4.668-2.477-6.037-4.528-1.257-1.738-2.13-3.888-2.365-6.491-.245-2.715.064-5.445.554-8 .948-4.954 1.867-10.151 2.666-14.994 1.666-10.088 3.706-20.042 5.233-30.088-.975-.34-2.304-.201-3.572-.201-1.292 0-2.596.077-3.674-.101-.234-.365-.234-1.497 0-1.861 2.193-.231 5.17.099 7.598-.151.595-1.217.485-3.137 1.007-4.427 2.823-.124 5.267-.609 7.597-1.309 3.38-1.015 6.267-2.657 8.806-4.478.562-.404 1.237-.945 1.811-1.509.562-.552 1.069-1.35 1.711-1.66.348-.133 1.063-.043 1.258.302.18.317-.008 1.158-.101 1.661-.658 3.555-1.608 8.07-2.013 11.321z"/><path d="m57.192 75.479c.294.108.359.446.554.654-.14.524-.748.791-1.158 1.057-3.027 1.966-6.968 3.432-12.074 3.019-5.349-.433-8.932-2.842-11.875-5.635-2.196-2.085-4.029-4.657-5.081-8.05-.351-1.135-.754-2.285-.855-3.522-.464-5.654.822-10.515 3.421-13.887 2.842-3.815 6.962-6.8 12.378-8.05 2.103-.485 4.87-.336 7.145 0 3.746.555 6.103 1.752 7.698 4.629 1.169 2.109 1.184 4.989-.051 7.044-.861 1.434-2.533 2.907-4.327 3.472-2.206.694-4.851.183-6.44-1.006-1.497-1.126-2.761-2.877-3.019-5.333-.267-2.534.744-4.605 2.113-6.038.196-.521 1.14-.647 1.006-1.358-.117-.629-1.606-.525-2.264-.402-1.234.231-2.301 1.208-2.717 2.164-.391.897-.302 2.399-.302 3.874 0 8.431.049 16.229.05 24.603 0 1.426-.145 3.229.252 4.176 1.282 3.067 6.565 2.458 9.66 1.509 1.855-.569 3.065-1.288 4.478-2.214.419-.277.854-.706 1.408-.706z"/></g></svg>