<svg enable-background="new 0 0 69.582 67.625" viewBox="0 0 69.582 67.625" xmlns="http://www.w3.org/2000/svg"><g clip-rule="evenodd" fill-rule="evenodd"><path d="m69.306.026c.16 9.924.145 19.334.146 29.275 0 .606.107 1.265-.146 1.836-4.637.122-9.895.145-14.782.145-.735 0-1.481-.077-2.029.097-.743.235-1.5.889-1.546 1.933-.05 1.145.761 2.095 1.739 2.318 1.203.275 2.759.049 4.251.049 4.042-.002 8.807-.147 12.416.048.342 7.629.023 16.006.145 23.961.02 1.312 0 2.613.048 3.913.049 1.308.08 2.651-.145 3.913-2.706.204-5.199-.237-7.488-.725-2.299-.489-4.301-1.283-6.231-2.125-3.841-1.676-7.279-3.947-10.048-6.715-5.608-5.607-9.693-12.776-10.242-23.237-.414-7.897 2.371-14.742 5.556-19.517 3.348-5.017 7.815-8.94 13.382-11.739 4.112-2.068 9.044-3.629 14.974-3.43z"/><path d="m33.992.172c.177 8.945.002 18.399.097 27.439.013 1.227.163 2.457-.097 3.622-3.877.086-8.596.193-12.802.146-1.315-.015-3.091-.291-4.155.049-1.826.582-1.812 3.739.193 4.251.582.147 1.365.015 2.126.048 3.456.152 7.191-.047 10.628 0 1.433.02 2.8-.131 4.058.146.148 10.458.196 21.195.049 31.738-5.418.163-9.97-1.056-13.769-2.802-7.552-3.473-13.32-9.069-16.955-16.522-1.853-3.799-3.106-8.389-3.333-13.382-.244-5.348.948-10.232 2.608-14.154 3.302-7.801 8.851-13.535 16.231-17.246 3.649-1.835 8.371-3.239 13.431-3.478.548-.026 1.293-.087 1.69.145z"/></g></svg>