<svg enable-background="new 0 0 186.602 188.4" viewBox="0 0 186.602 188.4" xmlns="http://www.w3.org/2000/svg"><path clip-rule="evenodd" d="m185.778.031c.177-.022.288.02.411.052.047.091.124.15.154.257.02 26.974.105 55.033.104 82.025-.002 30.757.153 62.13.154 92.935 0 4.166.002 8.303 0 12.453-.1.072-.099.244-.258.258-30.597.043-62.309.256-93.191.258-30.936.002-61.882.295-92.627 0-.501-.295-.309-1.994-.309-3.191.002-10.883-.052-21.67-.051-32.059 0-3.918.143-7.852 0-11.682-.289-7.732.215-15.543-.053-23.26-.135-3.928 0-7.865 0-11.783 0-19.364-.051-39.185-.051-58.406 0-15.758-.17-31.924.051-47.548.042-.027.084-.054.155-.052 25.337.101 50.679-.052 76.313-.051 24.756.001 50.374-.156 75.594-.154 5.418 0 10.935-.052 16.157-.052 5.986.001 11.576-.07 17.447 0zm-20.584 8.593c-12.008 0-23.512.053-35.095.052-40.544-.007-81.198.188-121.237.206-.14-.038-.103.102-.206.103-.271 56.421.1 112.993.102 169.866 0 .352-.003.477.104.721.017.121.159.115.206.205 28.099.078 56.076.1 84.341-.051 28.206-.148 56.482-.016 84.599-.359.052 0 .061-.043.103-.053.116-26.459.07-54.078-.103-80.789-.114-.158-.105-.168-.258-.207-.617-.162-1.721 0-2.624 0-20.675.004-40.368.156-60.618.154-7.07 0-14.12.115-20.996-.051-.204-2.506-.104-5.591-.051-8.182.013-.073.084-.087.103-.154 27.404-.021 54.789-.307 81.871-.309.852 0 1.751.12 2.573-.154.072-11.849.143-24.134-.102-35.507-1.125-.184-2.722-.102-4.169-.103-6.309 0-12.696.052-19.143.052-2.562 0-5.094.136-7.513.051-5.085-.177-10.156.174-15.181 0-5.12-.177-10.216.192-15.283.052-7.712-.214-15.493.051-23.002.051-13.008.001-25.612-.045-38.131.154-.004.066-.066.071-.052.154-.197 6.529-.103 13.258-.104 19.966-.002 20.214.088 40.554.155 60.464.073.029.125.08.153.154 28.501.15 58.211-.215 86.246-.051.247 2.449.218 5.711.052 8.232-.012.059-.058.08-.104.104-1.945.182-4.319.104-6.483.104-1.982 0-3.99-.039-5.97 0-7.851.156-15.486-.035-23.414.051-19.749.217-39.106.01-58.611.154-.52-.484-.309-2.146-.309-3.396-.001-30.756-.105-60.633-.104-91.494 0-.977-.127-1.98.154-2.933 32.163-.154 65.876-.311 98.03-.309 11.088.001 21.857.052 32.728-.206.003-.031.008-.061.052-.051.154-12.244.218-24.405-.052-36.639-4.249-.199-8.283-.052-12.657-.052z" fill-rule="evenodd"/></svg>