<svg enable-background="new 0 0 164.861 164.437" viewBox="0 0 164.861 164.437" xmlns="http://www.w3.org/2000/svg"><path clip-rule="evenodd" d="m164.696 79.584c-.959.256-1.974.141-2.954.142-13.973 0-27.991.094-42.452.094-1.112 0-2.431.072-3.236-.094-.225-2.479-.095-5.017-.095-7.6.001-5.049-.046-10.195-.046-15.34-.001-2.572.119-5.121-.095-7.598-.625-.225-1.311-.16-1.97-.188-1.929-.082-4.096.047-6.192.045-19.589 0-39.599-.049-58.588.096-.285.625-.092 1.301-.094 1.969-.009 3.445 0 6.727 0 10.32 0 6.879.001 13.895 0 21.109-.001 11.031-.008 21.742.141 33.305.013.096.175.043.188.141 22.691-.031 44.302.059 66.469-.141.349-.551.183-1.26.188-1.877.078-10.074-.059-20.357.047-30.912-.013-.076.045-.082.048-.141 1.93-.23 3.946-.141 5.957-.141 14.216 0 28.389-.174 42.686-.047.251.557.142 1.205.142 1.781 0 4.307-.568 8.422-1.22 12.244-.745 4.365-1.779 8.465-3.143 12.242-1.379 3.818-2.817 7.428-4.598 10.789-5.322 10.051-12.07 18.551-20.593 25.564-5.617 4.625-11.872 8.848-18.856 11.869-7.08 3.061-15.01 5.615-24.111 6.66-9.489 1.09-19.638.564-28.145-1.408-4.226-.979-8.042-2.219-11.773-3.611-3.669-1.367-7.085-3.127-10.461-4.926-3.224-1.717-6.389-3.84-9.335-6.051-8.062-6.051-14.84-13.352-20.265-22-.494-.789-.879-1.66-1.359-2.486-3.778-6.488-6.791-13.781-8.771-22-1.994-8.27-2.836-18.631-1.69-28.145.278-2.307.609-4.516 1.032-6.66 1.674-8.504 4.546-15.939 8.067-22.656.887-1.691 1.753-3.4 2.721-4.973 1.939-3.15 4.154-6.174 6.474-8.912 7.095-8.377 15.357-15.338 25.472-20.641 3.398-1.781 6.955-3.469 10.648-4.738 6.71-2.301 13.965-3.928 22.419-4.498 7.663-.518 15.787.183 22.329 1.64 5.664 1.264 10.717 3.014 15.433 4.973 9.726 4.041 17.413 9.898 24.485 16.371 1.744 1.596 3.381 3.418 4.973 5.254 7.917 9.139 14.09 19.928 17.638 33.445.71 2.707 1.303 5.553 1.735 8.49.436 2.963.825 6.045.75 9.241z" fill-rule="evenodd"/></svg>