<svg enable-background="new 0 0 12.363 21.58" viewBox="0 0 12.363 21.58" xmlns="http://www.w3.org/2000/svg"><path d="m.021.014c.506-.004 1.012.011 1.516-.013 2.431-.001 4.862.001 7.293-.001 1.177.028 2.354.008 3.531.014.01 3.01-.022 6.019-.014 9.029.006 1.291-.014 2.582.014 3.872-.004 2.887.008 5.774-.012 8.661-2.65-.026-5.301-.013-7.952-.016-1.464.013-2.929.025-4.394.016-.001-1.373.001-2.746-.001-4.119.039-1.401.011-2.804.019-4.206 0-1.31.002-2.621-.001-3.931-.027-.334-.016-.669-.017-1.003 0-1.813 0-3.626 0-5.439-.014-.955.029-1.909.018-2.864zm2.365 2.347c-.027.615-.005 1.232-.012 1.847.955.01 1.911-.011 2.866.013 1.573.001 3.146-.004 4.718.002.025-.073.042-.149.036-.227-.002-.468-.003-.937.001-1.406.003-.076-.009-.151-.03-.224-1.295.009-2.591 0-3.886-.002-.505-.005-1.01-.005-1.514 0-.727-.007-1.453 0-2.179-.003zm-.006 2.509c-.015.613-.002 1.226-.006 1.839 2.539-.031 5.081.005 7.62-.019 0-.6-.006-1.2.003-1.8-.072-.012-.145-.02-.218-.022-2.466 0-4.932.001-7.399.002zm-.003 2.492v1.851c2.534.002 5.068 0 7.602-.011-.001-.61-.002-1.219.001-1.828-2.535-.027-5.069-.005-7.603-.012zm0 2.515c.001.619-.001 1.239.001 1.859 1.103-.007 2.208.021 3.31-.021 1.43.001 2.86.001 4.29-.001.001-.616.001-1.233.001-1.85-2.535.004-5.068.007-7.602.013zm0 2.477c.006 2.286-.019 4.572.006 6.858 2.537.002 5.074-.025 7.612-.015-.005-.577-.002-1.153-.001-1.729.006-.08-.081-.139-.155-.121-.86.012-1.721-.025-2.579.026-.864-.004-1.728.004-2.592-.005.009-.221-.029-.447.029-.664.759.014 1.518.002 2.277.006.984-.01 1.969.043 2.953.013.094-.028.059-.146.069-.217-.01-.549.01-1.097-.011-1.645-1.772-.002-3.545.007-5.318-.005-.001-.213-.002-.425.002-.638 1.77-.004 3.539-.001 5.309-.002.002-.617.002-1.233 0-1.85-2.534-.001-5.067-.007-7.601-.012z"/></svg>