<svg enable-background="new 0 0 82.346 40.75" viewBox="0 0 82.346 40.75" xmlns="http://www.w3.org/2000/svg"><g clip-rule="evenodd" fill-rule="evenodd"><path d="m58.174.173c.253.807.15 1.918.15 2.97 0 1.058.12 2.141-.101 2.92-1.309.179-2.816.058-4.43.05-1.286-.006-2.687.263-3.776 0-.715-.173-1.594-.961-2.215-1.41-.765-.552-1.477-1.042-2.114-1.51-.734-.461-1.485-.927-2.216-1.41-.716-.474-1.509-.922-2.014-1.611 3.77-.321 7.93.081 11.831-.101 1.651-.076 3.358-.147 4.885.102z"/><path d="m82.339 6.063c-4.771.215-9.543-.064-14.146.151-.231 10.522-.052 21.747-.051 32.522 0 .668.118 1.383-.15 2.014-.835-.242-1.504-.832-2.165-1.359-1.305-1.04-2.809-1.881-4.229-2.819-.693-.458-1.471-.864-2.014-1.51-.103-11.63-.261-23.429-.101-34.888 4.633-.205 9.582-.103 14.349-.05 2.685 1.56 5.093 3.398 7.652 5.084.268.272.941.393.855.855z"/><path d="m40.452 6.063c-10.33.327-21.071-.056-31.465.151-.271 1.096-.151 2.286-.151 3.423 0 7.087.051 13.901.051 20.943 0 1.122.181 2.256-.101 3.323-2.637.123-5.749.208-8.509 0-.265-.629-.15-1.359-.15-2.014 0-1.985-.051-4.159-.051-6.343.002-7.578-.051-15.665-.05-23.41 0-.655-.119-1.348.15-1.963 10.271-.17 21.779-.165 31.818 0 2.633 1.499 5.024 3.391 7.552 5.034.339.22.845.368.906.856z"/><path d="m40.15 40.599c-10.326.278-20.82.014-31.465.101-2.543-1.518-4.927-3.309-7.451-4.883-.334-.208-.81-.42-.906-.856 9.845-.237 21.145-.067 31.616-.05 2.452 1.589 4.937 3.155 7.35 4.833.308.213.772.435.856.855z"/></g></svg>