<svg enable-background="new 0 0 179.282 76.867" viewBox="0 0 179.282 76.867" xmlns="http://www.w3.org/2000/svg"><g clip-rule="evenodd" fill-rule="evenodd"><path d="m96.304 35.956c-.939.27-1.954.149-2.924.149-14.693 0-30.1-.183-44.96-.099-.34.345-.208 1.435-.099 1.933 3.965.262 8.042.149 12.095.149 4.062 0 8.124.176 12.145.049 6.042-.19 12.076.192 17.943.05.988-.024 1.988 0 2.975 0 .961 0 1.948-.113 2.875.148.134 10.643-1.753 19.695-6.841 25.28-6.714 7.859-18.331 11.313-31.525 12.739-14.058 1.521-28.804-.44-38.813-4.511-5.296-2.153-9.562-5.146-12.889-9.27-3.309-4.102-5.057-9.541-5.849-16.258-.398-3.369-.507-7.025-.396-10.558.332-10.58 2.727-19.425 8.773-24.388 2.171-1.901 4.498-3.551 7.138-4.957 2.661-1.418 5.573-2.373 8.725-3.321 3.098-.932 6.422-1.617 9.913-2.131 3.53-.519 7.252-.711 11.153-.892 6.917-.322 14.32.553 20.027 1.684 6.152 1.22 11.432 2.957 16.061 5.552 1.659.931 3.316 2.098 4.758 3.371.482.426 1.026.78 1.487 1.19 5.665 5.042 7.922 13.802 8.228 24.091z"/><path d="m98.386 35.956c-.229-10.463-.001-21.029 0-31.873 0-.578.014-1.855.198-1.983.036-.047.09-.076.148-.1 18.315 0 36.177.051 54.526.05 4.739-.001 9.723-.392 13.334.545 3.414.885 6.524 2.927 8.526 5.304 2.043 2.426 3.854 5.384 4.064 9.815.22 4.626-.56 8.241-2.727 11.004-2.886 4.092-7.128 7.485-14.077 7.485-14.005 0-28.527-.049-42.778-.049-6.249 0-12.63-.05-18.688-.05-.829 0-1.72.121-2.526-.148z"/><path d="m98.436 74.223c-.131-11.101-.147-22.716-.149-34.004 0-.436-.182-1.857.347-1.983.718-.171 2.207-.07 3.272-.049 6.745.133 14.351.049 21.464.049 12.42.001 24.268.05 36.879.05 2.175 0 4.079.011 5.8.446 4.805 1.215 8.372 4.134 10.707 7.981 1.596 2.63 2.527 5.807 2.527 9.913.001 3.923-1.073 7.21-2.677 9.815-2.342 3.806-5.884 6.745-10.954 7.733-1.78.347-3.691.297-5.85.297-16.146 0-32.451-.049-49.222-.05-3.081 0-6.125-.049-9.221-.049-.977-.001-1.975.119-2.923-.149z"/></g></svg>