<svg enable-background="new 0 0 80.001 46.764" viewBox="0 0 80.001 46.764" xmlns="http://www.w3.org/2000/svg"><g clip-rule="evenodd" fill-rule="evenodd"><path d="m79.014 1.86c2.151 2.773.481 6.132-2.079 7.06-1.352.49-3.447.29-5.271.29-12.807.002-24.857-.097-37.625-.096-3.848.001-7.566-.159-10.978 0-3.452.161-6.115 1.152-8.317 2.757-3.04 2.214-5.56 5.937-5.658 10.93-.106 5.402 2.31 8.895 5.271 11.316 2.05 1.676 4.55 2.857 7.786 3.289 3.167.422 7.243.241 10.784.241 13.299.001 25.436.097 38.64.097.888 0 1.854-.028 2.756 0 .937.03 1.879-.023 2.612.146 1.857.428 3.175 2.107 3.046 4.497-.114 2.132-1.646 3.62-3.385 4.159-1.239.385-3.156.146-4.787.146-13.59 0-26.323-.095-40.043-.097-3.434-.001-6.887.084-9.962-.097-2.946-.173-5.757-.966-8.028-1.983-4.546-2.035-8.133-5.29-10.639-9.479-2.407-4.024-3.973-10.232-2.66-16.346 1.244-5.79 3.864-9.637 7.253-12.816 3.084-2.891 6.972-4.768 12.042-5.562 2.767-.433 6.52-.29 9.672-.29 2.434 0 4.868.049 7.303.049 12.333-.001 24.116.096 36.608.097 2.33 0 4.534.075 5.659 1.692z"/><path d="m23.399 12.548c3.958-.188 8.676 0 13.154 0 12.077 0 24.565.147 36.512.146 1.427 0 2.842-.11 3.917.241 1.713.56 2.913 1.999 2.902 4.159-.012 2.04-1.27 3.64-2.95 4.11-.877.246-2.066.146-3.337.146-15.65-.003-30.765-.144-46.378-.146-2.571 0-5.969-.456-5.996 1.983-.031 2.716 4.81 2.031 7.544 2.031 6.762-.001 13.948.048 20.602.048 6.892 0 13.736.048 20.698.048 1.127 0 2.276-.022 3.385 0 1.117.022 2.296-.042 3.289.146 1.82.344 3.143 1.911 3.239 3.82.113 2.213-1.322 3.561-2.756 4.256-1.659.804-3.612.773-6.238.773-13.593.001-27.999-.145-41.832-.145-2.287 0-4.652.087-6.722-.193-4.067-.552-6.595-2.739-8.463-5.561-.913-1.378-1.541-3.481-1.402-5.562.294-4.422 2.266-7.003 5.271-8.753 1.445-.841 3.2-1.435 5.561-1.547z"/></g></svg>