<svg enable-background="new 0 0 77.482 44.849" viewBox="0 0 77.482 44.849" xmlns="http://www.w3.org/2000/svg"><g clip-rule="evenodd" fill-rule="evenodd"><path d="m44.355.018c.433-.156.353.712.353 1.208 0 7.34.142 15.746 0 22.504.223 1.455.011 3.345.201 4.833 1.478.351 3.341.201 5.085.202h5.286c.561.411.983 1.091 1.46 1.762.398.56 1.1 1.284 1.258 1.913.432 1.711-.245 3.645.151 5.387.719.316 1.59.221 2.416.252 2.481.093 5.258-.157 7.803.101-.044.51-.418.69-.755.906-3.32.176-7.259.161-10.522-.05-.487-1.732.175-3.866-.252-5.538-.164-.645-.826-1.351-1.208-1.914-.439-.646-.792-1.336-1.359-1.711-1.654-.091-3.455-.05-5.236-.05-1.771 0-3.591.12-5.135-.151-.416-1.246.129-3.719-.353-4.732.116-.539.709-.6.856-1.108-.12-.45-.531-.61-.654-1.057-.072-7.262-.048-14.619-.05-21.95.138-.35.382-.593.655-.807z"/><path d="m68.067.573h.101c.018.586-.383 1.091-.655 1.561-1.628 2.817-3.242 5.728-4.934 8.659-.199.346-.695 1.304-.957 1.309-.774.015-.139-1.101-.05-1.259 1.671-2.976 3.393-6.092 5.084-9.011.504-.388.831-.95 1.411-1.259z"/><path d="m43.147 25.342c.061 1.651-.126 3.549.101 5.035 1.583.308 3.438.103 5.185.151 1.731.048 3.433-.067 4.984.101.62.371.901 1.128 1.359 1.812.376.562 1.077 1.236 1.258 1.863.466 1.61-.363 3.966.202 5.538.737.32 1.602.083 2.467.101 2.446.047 5.338-.013 7.753.151.006.476-.352.588-.554.856-2.518.126-5.489.176-8.156.05-.869-.041-1.767.181-2.518-.101-.474-1.724.104-3.6-.201-5.387-.121-.706-.797-1.378-1.208-1.963-.403-.575-.811-1.568-1.359-1.812-.509-.227-1.818-.093-2.517-.101-.852-.009-1.74 0-2.568 0-1.851.001-3.638.119-5.185-.151-.32-1.274.151-3.339-.252-4.531-.901.118-.654 1.429-.654 2.417 0 1.036-.101 2.216.151 2.87 1.734.268 3.761.104 6.142.151.652.013 1.324.033 2.014 0 .717-.034 1.529-.075 1.963.101.583.237 1 1.24 1.41 1.863.424.645 1.058 1.208 1.258 1.964.36 1.351-.167 3.806.151 5.387.71.334 1.619.21 2.467.201 2.412-.025 5.288-.075 7.753.101-.028.508-.38.694-.755.856-3.127.083-7.021.078-10.371 0-.693-1.624.11-3.9-.302-5.588-.166-.679-.754-1.356-1.158-1.963-.378-.568-.851-1.491-1.359-1.712-.558-.242-1.795-.101-2.567-.1-2.623 0-5.349.021-7.754-.151-.416-1.162.117-3.271-.302-4.43-.879.125-.604 1.442-.604 2.366 0 1.038-.074 2.163.101 2.87 2.591.119 5.413.229 8.055.201.645-.007 1.539-.141 2.114.051.533.177 1.109 1.361 1.41 1.812.483.724.884 1.275 1.259 1.963.063 1.783-.129 3.821.101 5.437 1.087.313 2.338.107 3.574.101 2.269-.012 4.624-.078 6.696.151-.19 1.106-1.285.911-2.567.906-.938-.004-1.802-.048-2.668-.05-2.167-.006-4.304.341-6.092-.101-.379-1.644.17-3.779-.202-5.387-.18-.782-.764-1.304-1.208-1.964-.379-.564-.835-1.617-1.359-1.812-.571-.213-1.853-.05-2.567-.05-2.488 0-5.213-.009-7.602-.151-.411-1.313.102-3.345-.352-4.531-.84.187-.604 1.396-.604 2.366 0 1.01-.074 2.162.101 2.87.744.262 1.631.151 2.467.151 2.58 0 5.236.035 7.703.05.704.563 1.444 1.804 2.064 2.769.209.325.566.724.554 1.007-.016.368-.443.655-.805.805-1.117-.947-1.516-2.612-2.719-3.474-2.456-.118-5.219-.101-7.854-.101-.86 0-1.718.113-2.467-.151-.353-1.266.062-3.246-.252-4.431-.893.137-.654 1.407-.654 2.367 0 1.049-.074 2.199.101 2.92 3.367.28 6.81.026 10.321.201.915 1.133 1.687 2.408 2.467 3.675-.158.386-.424.925-.856.906-.435-.019-1.031-1.221-1.359-1.711-.371-.554-.799-1.576-1.309-1.762-.634-.232-1.792-.05-2.618-.05-2.577.001-5.192-.056-7.652-.101-.533-1.095.101-3.356-.353-4.531-.858.201-.654 1.362-.654 2.315 0 1 .031 2.09.101 2.87.699.322 1.505.155 2.316.151 2.114-.009 4.212.042 6.343 0 .533-.011 1.235-.025 1.611.101.571.191 1.054 1.304 1.359 1.762.468.702.895 1.2 1.208 1.913-.125.429-.418.689-.806.855-.613-.385-.929-1.06-1.359-1.711-.288-.436-.804-1.53-1.309-1.712-.668-.241-1.902.034-2.668 0-2.511-.11-5.351.121-7.753-.151-.316-1.278.147-3.336-.251-4.531-.886.113-.554 1.186-.554 2.014 0 .987-.272 2.375.05 3.272 2.411.183 5.257.101 7.904.101.857 0 1.729-.113 2.467.151.042.5-.575.764-.956 1.007-2.662.018-5.227-.05-8.005-.05-.854 0-1.744.118-2.517-.151-.144-.697-.165-1.486-.151-2.266.013-.749.149-1.59-.151-2.215-.738.029-.592.927-.604 1.662-.02 1.188-.135 2.525.05 3.574.708.344 1.648.201 2.517.201 2.553 0 5.494-.082 7.904.101-.067.57-.513.763-.906 1.007-3.45-.186-7.331.121-10.522-.101-.426-1.218.125-3.415-.302-4.632-.846.373-1.464 1.048-2.215 1.561-2.546 1.736-6.176 3.146-10.724 2.87-5.178-.313-9.333-2.919-11.931-6.041-1.126-1.353-1.697-2.578-2.417-4.279-.787-1.861-1.411-4.194-1.46-6.847-.049-2.64.756-4.946 1.56-6.847 1.065-2.516 2.706-4.667 4.631-6.444 4.303-3.971 8.179-8.351 12.436-12.385.012-.055.1-.034.101-.1.059-.008.089.011.101.05-1.92 3.176-3.462 6.676-3.122 11.428.299 4.178 2.184 7.715 4.431 10.169 2.362 2.581 5.617 4.448 9.464 5.186 4.562.875 9.045-.432 11.982-2.114.533-.311.854-.69 1.558-.91zm-27.488-19.231c-1.096 1.994-1.863 4.618-1.863 7.451 0 5.535 2.636 9.51 5.387 12.284 3.031 2.647 7.245 4.902 13.19 4.531 2.303-.143 4.264-.828 5.89-1.762-2.797.891-5.963 1.381-8.86.906-2.835-.464-5.376-1.526-7.3-2.819-3.821-2.569-7.072-6.959-7.451-12.737-.212-3.234.426-5.5 1.158-7.955-.011-.039-.042-.059-.101-.05.003.069-.023.11-.05.151zm-1.964 2.164c-1.329 2.424-1.905 5.624-1.561 8.81.57 5.273 3.115 9.111 6.444 11.579 1.484 1.101 3.105 1.923 4.934 2.568 4.107 1.449 10.116 1.298 13.392-1.057-3.191 1.189-7.259 1.656-10.724.805-6.571-1.615-11.031-5.841-12.787-12.082-.95-3.375-.639-7.732.453-10.723-.003-.031-.008-.06-.051-.05-.011.071-.081.084-.1.15zm-2.718 3.776c-1.065 3.207-1.026 7.084-.05 10.22.97 3.119 2.888 5.873 5.437 7.904 3.465 2.761 8.173 4.679 14.046 3.574 1.318-.248 2.663-.529 3.624-1.259-5.06 1.643-10.53.74-14.146-1.258-3.67-2.029-6.578-5.177-7.954-9.213-.474-1.389-.856-3.07-.957-4.581-.216-3.226.561-5.482 1.208-7.753-.003-.031-.007-.06-.05-.05-.462.718-.872 1.554-1.158 2.416zm-.755-.453c-1.368 2.416-2.119 5.843-1.762 9.011.367 3.259 1.506 5.899 2.97 8.005 1.388 1.997 3.451 4.038 5.74 5.236 2.345 1.228 5.548 2.309 8.961 2.064 1.785-.128 3.712-.47 5.034-1.007.442-.179.981-.338 1.209-.705-3.11 1.062-7.424 1.239-10.623.302-3.205-.939-5.839-2.487-7.753-4.531-1.879-1.981-3.614-4.607-4.38-7.854-.831-3.524-.37-7.613.755-10.623-.011-.04-.042-.059-.101-.05.002.07-.023.112-.05.152zm-2.014 2.215c-.311.458-.6 1.213-.806 1.812-.224.652-.427 1.372-.554 2.014-.989 5.002.489 9.607 2.416 12.485 2.585 3.86 7.06 7.323 12.989 7.652 3.361.187 6.173-.455 8.256-1.51.292-.148.735-.284.654-.503-1.413.456-2.649.907-4.128 1.108-7.37.999-12.369-2.109-15.758-6.041-1.776-2.061-2.972-4.391-3.625-7.401-.713-3.291-.238-7.121.705-9.716-.003-.03-.007-.06-.05-.05-.01.071-.081.084-.099.15zm-1.913 1.913c-.334.421-.534 1.198-.755 1.812-.244.676-.434 1.353-.554 2.014-.897 4.941.41 9.287 2.316 12.284 3.068 4.825 9.323 9.141 17.621 7.552 1.445-.277 2.856-.75 3.927-1.51-2.438.627-4.77 1.275-7.501 1.057-6.081-.485-10.512-3.603-13.14-7.753-1.488-2.35-2.801-5.314-2.819-8.66-.015-2.759.494-4.775 1.057-6.897-.003-.031-.007-.06-.05-.05-.014.072-.084.085-.102.151zm-2.668 3.575c-1.862 5.363-.476 10.747 1.862 14.499 2.392 3.835 6.205 6.406 10.673 7.4 3.364.75 7.637.219 9.968-1.007.126-.066.445-.064.403-.302-.858.159-1.487.453-2.266.604-7.208 1.397-13.146-1.435-16.513-5.437-1.73-2.057-3.122-4.417-3.826-7.501-.716-3.139-.472-6.733.554-9.918.028 0 .057-.041 0-.05-.31.531-.664 1.161-.855 1.712zm10.27 22.705c-6.504-2.018-11.483-7.463-12.032-15.305-.113-1.616.175-3.21.352-4.682.056-.462.002-.855.101-1.259.202-.83.759-1.565.956-2.517-.506.434-1.021 1.294-1.007 2.417-1.442 2.74-1.513 7.257-.554 10.421.319 1.054.53 2.103.957 2.971.85 1.728 2.011 3.219 3.323 4.531 3.449 3.449 9.118 5.927 15.607 4.43 1.133-.261 2.951-.76 3.574-1.46-.007.008-.041-.006-.05 0-3.451 1.199-7.839 1.504-11.227.453z"/><path d="m42.694 1.831c.479-.096.302 1.712.302 2.265 0 5.595.277 11.781 0 17.671-.436.082-.653-.44-.906-.705-.026-5.318-.151-10.381-.151-15.858 0-1.339-.242-2.778.604-3.222.028-.072.078-.123.151-.151z"/><path d="m40.932 3.593h.101c.266.553.151 1.21.151 1.813 0 3.016.101 6.391.101 9.465 0 1.761-.041 3.423-.151 5.034-.446.071-.75-.42-.957-.755-.198-3.185.116-7.366-.05-11.025-.079-1.719-.45-4.024.805-4.532z"/><path d="m64.493 4.046c.045.022.09.044.101.101-.83 1.734-1.845 3.375-2.819 5.035-.3.511-.503 1.209-1.107 1.46-.665-.889.676-1.941.956-2.668.756-1.51 1.553-2.978 2.869-3.928z"/><path d="m36.552 16.834c-.289-.732-.189-1.594-.202-2.416-.022-1.467-.05-2.801-.05-4.38 0-.604.095-1.355-.05-1.812-.133-.42-.993-1.023-1.46-1.259-1.692-.855-4.615-.998-6.041.151.608.129 1.115-.127 1.712-.151 2.128-.085 4.085.841 5.034 2.064-.001 1.961.051 4.245.051 6.444 0 .673.144 1.438-.202 1.963-.178.074-.373.131-.654.101-.356-1.015-.202-2.442-.202-3.725 0-1.316-.059-2.647-.101-3.826-.832-1.198-2.741-2.02-4.732-1.964-.883.025-1.573.387-2.366.403.181-.454.514-1 .855-1.41 1.916-2.295 7.461-2.492 9.213.252-.011 3.015.015 6.26 0 9.112-.193.225-.369.47-.805.453z"/><path d="m39.019 5.557h.1c.266.955.151 2.056.151 3.122 0 2.079.05 4.21.05 6.394 0 1.048.121 2.102-.101 3.021-1.165-.143-.893-1.218-.957-2.718-.101-2.394-.063-5.22-.05-7.602.007-1.172-.02-1.859.807-2.217z"/><path d="m60.818 7.822c-.035.523-.42 1.121-.805 1.46-.213-.005-.271-.165-.353-.302.187-.584.629-.914 1.158-1.158z"/><path d="m33.38 17.74c-.151 0-.302 0-.453 0-.391-.248-.332-.831-.353-1.259-.065-1.376.292-3.322-.05-4.531-.134-.473-.864-1-1.36-1.259-.827-.432-2.183-.812-3.423-.755-.392.018-.758.206-1.107-.05-.021-.853.956-.99 1.611-1.058 2.26-.233 4.414.785 5.387 1.963.004 1.58.042 3.586.05 5.236.003.603.154 1.326-.302 1.713z"/><path d="m31.618 17.438c-.247.126-.517-.108-.705-.202-.422-1.237.138-2.613-.252-3.625-.261-.677-1.364-1.243-1.913-1.46-.563-.223-1.99-.215-2.215-.654-.16-.312-.021-.72.302-.806 2.33-.032 3.856.742 4.934 1.963.087.705.05 1.619.05 2.467 0 .84.153 1.78-.201 2.317z"/><path d="m29.806 16.582c-.558.092-.802-.531-.856-1.107-.602-.93-2.173-1.145-2.064-2.618 1.194-.093 2.317.73 3.021 1.46.022.65.196 1.778-.101 2.265z"/><path d="m61.724 34.353c.693.317 1.563.202 2.417.202 2.452 0 5.292-.082 7.602.101-.05 1.013-1.264.856-2.165.856-2.713 0-6.129.182-8.811-.05-.611-1.766.18-4.165-.302-5.689-.223-.706-.817-1.307-1.258-2.014-.852-1.366-1.704-2.494-2.618-3.876-.714-1.079-1.609-1.808-1.259-3.625-.002-.086.038-.13.101-.151.578.314 1.221 1.598 1.611 2.165 1.508 2.188 3.106 4.416 4.48 6.595.025 1.871.015 3.777.202 5.486z"/><path d="m66.909 20.257c.016.004.035-.005.05 0 .349.116.224 2.119.251 2.718.098 2.076-.107 3.761.151 5.689.632.264 1.427.151 2.165.151 2.161 0 4.728 0 6.797.05.433.01.821-.127 1.158.101-.031.557-.467.708-.806.956-3.594-.08-6.968.121-10.371-.101-.146-1.148-.149-2.631-.101-4.179.048-1.537-.328-3.127-.05-4.229.113-.441.515-.857.756-1.156z"/><path d="m65.097 23.227h.101c.294 2.24-.007 5.075.252 7.35.74.266 1.616.151 2.467.151 2.479 0 5.339-.082 7.703.101-.003.551-.457.65-.755.906-3.498-.079-6.956.218-10.371-.05-.273-.896-.145-2.065-.151-3.272-.011-1.999-.404-4.152.604-5.085.036-.047.09-.076.15-.101z"/><path d="m59.962 36.065c.686.329 1.559.201 2.416.201 2.485 0 5.36-.082 7.703.101-.075 1.254-1.477.962-2.769.957-1.248-.005-2.757.05-4.229.05-1.535 0-3.078.152-4.179-.201-.424-1.732.131-3.663-.151-5.387-.073-.443-.477-1-.806-1.46-.919-1.288-1.917-2.671-2.668-3.978.031-.573-.064-1.272.05-1.762-.002-.086.038-.13.101-.151.949.813 1.526 1.998 2.266 3.021.756.989 1.429 2.061 2.114 3.121.171 1.71-.101 3.862.152 5.488z"/><path d="m63.184 26.298h.101c.343 1.808.065 4.1.252 6.142.735.322 1.639.202 2.517.202 2.357 0 5.074-.179 7.652.05.112.488-.471.698-.755.957-2.638.075-5.596.05-8.408.05-.68 0-1.41.117-2.014-.151-.128-1.077-.148-2.448-.151-3.726-.004-1.502-.102-2.888.806-3.524z"/></g></svg>