<svg enable-background="new 0 0 76.642 77.78" viewBox="0 0 76.642 77.78" xmlns="http://www.w3.org/2000/svg"><g clip-rule="evenodd" fill-rule="evenodd"><path d="m54.365 5.486c.778-.666-.223-3.295.452-4.069.253-.291 1.74-.22 2.461-.251 2.66-.117 5.639 0 7.988 0h8.089c.856 0 2.223-.105 2.512.15.423.374.201 3.017.201 3.969 0 8.406-.001 16.305 0 24.818 0 1.048.279 3.391-.151 3.969-.281.378-1.494.301-2.411.301-5.365 0-10.106.05-15.625.05-.966 0-2.094.086-2.462-.201-.292-.227-.395-.933-.503-1.457-.122-.592-.274-1.145-.402-1.558-.301-.972-.609-2.17-1.004-2.864-.804-1.408-2.146-2.977-3.567-4.17-2.549-2.139-6.986-4.095-12.007-2.964-7.908 1.781-12.483 8.759-12.007 18.991.222 4.774 1.355 8.902 3.617 11.907 2.112 2.806 5.322 5.245 9.847 5.627 5.27.445 8.901-1.494 11.405-3.919.927-.898 1.821-2.12 2.512-3.315.249-.431.333-.875.502-1.407.436-1.376.945-2.722 1.256-4.572.082-.485.193-1.257.452-1.457.373-.287 1.721-.15 2.562-.151 5.296 0 10.759.055 15.825 0 .83-.009 1.667-.206 2.462.101.43 1 .26 2.184.101 3.165-.496 3.054-1.116 5.932-2.16 8.49-1.391 3.408-2.976 6.414-5.074 9.093-3.571 4.562-8.106 8.505-13.866 10.952-.809.344-1.634.785-2.461 1.055-3.652 1.191-7.663 2.009-12.208 2.009-4.564 0-8.82-.394-12.711-1.456-7.314-1.999-13.032-5.769-17.634-10.701-3.434-3.681-6.115-8-7.988-13.313-.619-1.755-1.243-3.576-1.607-5.476-.821-4.276-.984-8.695-.452-12.912.755-5.988 2.892-11.474 5.576-15.725 1.813-2.872 4.012-5.369 6.431-7.737 1.191-1.166 2.38-2.284 3.818-3.266 4.249-2.901 8.934-5.283 14.821-6.431 1.966-.383 4.207-.699 6.531-.753 3.842-.089 7.047.445 9.696 1.507 1.988.799 3.818 1.78 5.475 2.916.542.371 1.023.904 1.708 1.055z"/><path d="m53.712 42.462c.649.523.5 1.567.402 2.411-.288 2.491-1.026 3.982-2.964 5.024-1.382.743-3.416.851-5.074.201-.58-.227-1.463-.895-1.959-1.407-.267-.276-.776-1.33-1.206-1.356-.562-.035-1.228 1.166-1.507 1.457-.886.922-1.904 1.492-3.517 1.607-3.689.265-6.701-1.734-7.787-4.32-1.194-2.844.026-6.043 1.809-7.234 2.32-1.552 7.026-.968 9.646-2.312.88-.451 1.463-1.005 1.457-2.06-.01-1.608-2.062-2.673-3.768-1.658-.365.217-.613.565-.804.955-.203.414-.312.897-.653 1.105-.586.357-2.214.201-3.366.201-1.303 0-2.435.164-3.064-.452-.306-1.22.297-2.354.854-3.215.542-.838 1.251-1.62 2.11-2.11 3.77-2.151 10.5-2.077 13.614.653 1.138 1.219 2.269 2.715 2.512 5.124.265 2.63.014 5.327.151 8.189.045.957.065 1.989.753 2.009 1.508.046.069-3.662 2.361-2.812zm-15.725-.703c-.574 1.327.32 2.641 1.407 2.813 2.197.349 4.057-2.167 3.115-4.471-1.789-.125-3.699.483-4.522 1.658z"/></g></svg>