<svg enable-background="new 0 0 73.602 74.716" viewBox="0 0 73.602 74.716" xmlns="http://www.w3.org/2000/svg"><g clip-rule="evenodd" fill-rule="evenodd"><path d="m48.155.079c.267.871.15 1.814.15 2.744 0 6.561.082 13.638-.1 20.101-7.221.244-15.223.183-22.695.05-.125-3.774-.16-7.721-.1-11.521.06-3.777-.137-7.771.15-11.322 7.474-.179 15.273-.152 22.595-.052z"/><path d="m22.568.329c.372.317.186.897.2 1.296.098 3.051.05 6.728.049 9.976 0 3.889-.027 7.811-.1 11.322-1.71.313-3.584.1-5.486.1-5.572 0-11.439.027-16.858-.149-.058-.432.409-.659.648-.898 2.954-2.954 5.982-5.981 8.978-8.978 1.491-1.491 2.975-2.884 4.39-4.439 2.549-2.799 5.437-5.493 8.13-8.229.016-.001.032-.001.049-.001z"/><path d="m51.348.329c.402.1 1.069.871 1.546 1.347 1.397 1.398 2.741 2.94 4.089 4.289 3.807 3.806 7.406 7.505 11.174 11.272 1.408 1.408 2.783 2.813 4.239 4.19.444.419 1.004.881 1.197 1.496-7.159.143-14.97.176-22.296 0-.271-1.774-.149-3.67-.149-5.537 0-5.506.062-11.361.1-16.908-.002-.085.037-.129.1-.149z"/><path d="m27.656 28.709c2.132-2.14 4.806-3.802 8.778-3.99 3.459-.163 6.412 1.196 8.33 2.744 2.078 1.676 3.625 3.83 4.339 6.684 1.729 6.91-2.196 12.472-6.634 14.614-2.471 1.193-6.111 1.698-9.277.698-2.727-.861-4.996-2.458-6.484-4.539-1.554-2.174-2.627-5.068-2.394-8.529.228-3.374 1.511-5.618 3.342-7.682z"/><path d="m22.669 26.015c.153 7.436.232 14.9.049 22.744-7.398.194-15.146.104-22.594-.1-.186-7.062-.102-14.512-.1-21.547 0-.406-.126-.923.199-1.247 7.252-.052 15.113-.009 22.446.15z"/><path d="m22.717 51.852c.166 7.228.166 15.165 0 22.445-.631-.126-.982-.733-1.396-1.147-1.294-1.295-2.662-2.612-3.99-3.94-1.762-1.763-3.424-3.624-5.187-5.387-3.529-3.529-6.973-7.164-10.524-10.624-.327-.539-1.154-.838-1.197-1.497 7.113-.074 15.05-.042 22.294.15z"/><path d="m48.206 51.802c.117 3.708.262 7.621.1 11.472-.162 3.862.268 7.711-.1 11.322-3.639.182-7.518.1-11.373.1-3.84 0-7.725.086-11.271-.1-.098-3.669-.241-7.553-.1-11.322.143-3.843-.197-7.793.1-11.422 7.64-.174 15.337-.164 22.644-.05z"/><path d="m73.593 51.802c.071.392-.335.584-.55.798-3.449 3.451-6.982 7.101-10.523 10.524-2.74 2.854-5.577 5.679-8.329 8.579-.679.714-1.382 1.382-2.095 2.095-.203.202-.443.564-.799.499-.166-6.431-.1-13.245-.1-19.801 0-.904-.119-1.839.15-2.694 7.063-.166 15.217-.165 22.246 0z"/></g></svg>