<svg enable-background="new 0 0 72.549 72.949" viewBox="0 0 72.549 72.949" xmlns="http://www.w3.org/2000/svg"><path clip-rule="evenodd" d="m72.277.082c.022.045.044.09.101.101.107 12.161.101 24.151.101 36.222.001 5.978-.206 11.97 0 17.934.211 6.086-.124 12.193-.05 18.388-.049.001-.039.062-.051.101-6.059.184-12.115.104-18.136.101-18.131-.005-35.739.08-54.004-.05-.023-.045-.044-.09-.101-.101-.168-24.651-.178-48.963-.05-72.646 6.149-.218 13.363-.1 19.648-.1 17.147-.003 35.098-.035 52.542.05zm-68.361 3.627c-.059.024-.114.053-.151.101-.248.149-.148 1.288-.152 1.964-.011 2.071-.014 4.03 0 5.895.099 13.365.001 27.623 0 41.058 0 5.532-.105 11.006.101 16.322 1.26.283 2.578.151 3.879.15 20.864-.004 40.711.145 61.209-.101.079-4.986.236-10.35.101-15.566-.1-3.824.068-7.704-.051-11.486-.042-1.361.155-2.689-.151-3.828-8.558-.191-17.941-.102-26.75-.101-1.247 0-2.527-.12-3.728.15-.25 1.261-.151 2.646-.151 4.03 0 3.696.051 6.918.051 10.429 0 .66.13 1.391-.202 1.965-.999.054-2.458.145-3.375-.051-.233-1.429-.068-2.89-.101-4.383-.219-10.164-.023-21.707.05-32.04.946-.143 2.66-.219 3.526.051.114 3.846.051 8.019.051 12.091 0 1.362-.115 2.723.151 3.979 8.807.291 18.35-.056 26.75.05 1.265.016 2.549.217 3.778-.101.141-10.12.219-20.668 0-30.477-21.64-.232-43.057-.03-64.835-.101z" fill-rule="evenodd"/></svg>