<svg enable-background="new 0 0 77.857 81.828" viewBox="0 0 77.857 81.828" xmlns="http://www.w3.org/2000/svg"><path clip-rule="evenodd" d="m77.73.326c.143 26.15.102 52.238.102 79.025 0 .797.115 1.623-.152 2.387-25.449.189-51.802.035-77.502-.051-.268-.781-.152-1.621-.152-2.438 0-26.254-.089-53.141.102-79.025 3.982-.261 7.978.016 11.984-.152 4.086-.174 8.195.193 12.341 0 1.964-.092 4.651-.1 6.755 0 2.257.104 4.552-.035 6.704.049 4.494.18 9.076.053 13.408.051 4.472 0 8.903-.17 13.255-.051 4.397.123 8.73-.1 13.002.154.083-.016.088.047.153.051zm-10.564 29.762c-1.657-4.734-4.129-8.6-7.313-11.783-2.088-2.09-4.315-3.996-7.212-5.537-2.588-1.377-6.081-2.996-9.548-3.352-.465.75-.324 1.934-.305 2.895.13 6.559 0 13.236 0 19.707 0 1.051-.034 2.152.204 3.148 2.066.291 4.196.137 6.348.152 5.149.037 11.071.021 16.049.051 1.058.006 2.173.127 2.996-.254-.062-1.795-.666-3.451-1.219-5.027zm-35.398 38.242c0-3.748 0-7.685 0-11.631 0-14.893-.051-30.656-.051-45.557 0-.656.175-1.682-.66-1.523-1.688.32-3.659 1.059-5.231 1.777-4.648 2.129-8.535 5.435-11.326 9.193-1.992 2.682-3.399 5.566-4.622 9.041-1.181 3.356-1.996 7.381-1.93 11.731.131 8.57 2.881 15.441 6.907 20.418 3.6 4.449 8.027 7.84 14.018 9.852.851.287 1.777.686 2.742.51.275-1.165.153-2.522.153-3.811zm33.672-21.584c-5.965-.002-11.937.002-17.877 0-1.728-.002-3.301-.16-4.622.152-.295 7.018-.101 14.998-.101 22.397 0 1.039-.156 2.146.204 3.1.896.172 1.782-.154 2.59-.357 2.556-.635 4.794-1.68 6.856-2.742 1.977-1.158 3.871-2.482 5.536-4.062 2.532-2.404 4.77-4.717 6.551-7.82 1.166-2.033 2.311-4.18 2.997-6.604.347-1.225.79-2.543.711-3.91-.906-.277-1.88-.154-2.845-.154z" fill-rule="evenodd"/></svg>