<svg enable-background="new 0 0 79.031 68.928" viewBox="0 0 79.031 68.928" xmlns="http://www.w3.org/2000/svg"><path clip-rule="evenodd" d="m39.594 0h.1c6.761 11.34 13.098 22.908 19.818 34.27 3.353 5.672 6.517 11.451 9.884 17.137.428.721.729 1.512 1.143 2.234 2.43 4.242 4.881 8.609 7.351 12.914.417.727.983 1.393 1.143 2.234-7.431.209-15.435.16-23.046 0-1.333-1.898-2.363-3.996-3.527-6.01-3.475-6.012-6.958-12.123-10.43-18.178 0-1.916 0-3.977 0-5.961 0-.621-.112-1.311.148-1.838 1.58-.238 3.688.072 5.364-.149.271-1.393.188-3.644.05-5.115-1.502-.402-3.881.072-5.464-.25-.314-1.373.146-3.521-.248-4.816-1.316-.166-3.302-.162-4.619 0-.482 1.234.158 3.473-.298 4.816-1.581.258-3.702-.025-5.364.15-.305 1.355-.121 3.516-.1 5.066 1.423.531 4.012-.104 5.514.348.09 1.07.099 2.371.099 3.725.001 1.281.194 2.736-.049 3.873-.095.443-.491 1.057-.795 1.59-1.982 3.484-4.219 7.051-6.159 10.48-.565 1-1.057 2.09-1.639 3.129-1.427 2.543-2.881 4.896-4.371 7.549-.278.496-.62 1.297-.894 1.441-.539.285-1.926.049-2.881.049-6.754.002-13.77 0-20.314-.148-.065-.43.252-.799.447-1.143 6.29-11.057 12.798-22.022 19.171-33.127 2.794-4.869 5.879-9.906 8.741-14.9.412-.717.879-1.428 1.192-2.135.658-1.488 1.545-2.912 2.384-4.371 2.018-3.508 4.282-6.971 6.259-10.629.398-.738.795-1.549 1.241-2.137.036-.047.09-.074.149-.098z" fill-rule="evenodd"/></svg>