<svg enable-background="new 0 0 81.213 82.647" viewBox="0 0 81.213 82.647" xmlns="http://www.w3.org/2000/svg"><g clip-rule="evenodd" fill-rule="evenodd"><path d="m81.213 33.349c-.696.269-1.532.153-2.336.153-2.394 0-5.07.041-7.415-.051-.425-.889-.639-1.813-.965-2.691-3.63-9.795-10.436-16.167-20.671-19.554-3.776-1.249-8.133-1.72-12.9-1.117-4.174.528-7.783 1.916-10.97 3.657-6.372 3.481-10.967 8.395-13.916 15.338-1.462 3.442-2.452 7.525-2.489 12.138-.038 4.63 1.027 8.731 2.438 12.189 1.429 3.503 3.395 6.4 5.688 8.938 4.59 5.081 10.771 9.083 19.097 10.158 2.433.314 4.715.379 6.907.204 6.463-.516 11.869-3.008 15.896-6.044 4.232-3.19 7.405-7.138 9.853-12.088.405-.817.804-1.655 1.118-2.539.312-.877.438-1.846.965-2.692 3.062-.016 6.544-.266 9.701.051-.178 2.066-.85 4.005-1.524 5.84-1.991 5.428-4.797 9.991-8.329 13.916-4.646 5.164-10.772 9.382-18.08 11.631-3.837 1.181-8.256 2.042-12.951 1.828-4.548-.207-8.866-.933-12.646-2.184-3.621-1.199-6.972-3.001-9.904-4.978-2.955-1.993-5.575-4.437-7.77-7.06-2.343-2.602-4.219-5.708-5.892-8.989-1.678-3.293-2.841-7.135-3.555-11.275-.765-4.438-.733-9.533 0-13.763.732-4.225 2.042-7.868 3.606-11.224 3.078-6.606 7.92-11.916 13.712-15.998 2.976-2.097 6.251-3.753 9.853-4.977 1.868-.635 3.82-1.161 5.892-1.524 2.127-.372 4.333-.494 6.805-.609 5.995-.279 11.474 1.282 15.694 2.946 4.561 1.798 8.218 4.191 11.529 7.009 3.306 2.814 6.298 6.234 8.533 10.005 2.294 3.876 4.237 8.267 5.026 13.356z"/><path d="m69.43 33.349c-3.441.247-7.003.154-10.614.102-.837-1.329-1.54-2.721-2.489-3.961-2.674-3.495-6.655-6.443-11.884-7.364-8.363-1.473-14.572 2.274-18.334 6.602-2.999 3.635-5.645 9.592-4.165 16.405 1.229 5.658 4.389 9.914 8.685 12.646 2.184 1.389 4.799 2.366 7.923 2.793 3.133.429 6.605.071 9.294-.965 2.516-.969 4.594-2.53 6.45-4.216.95-.862 1.807-1.754 2.54-2.793.739-1.048 1.254-2.241 2.032-3.301 3.388-.051 7.26-.151 10.563.051-.126 1.43-.747 2.716-1.27 3.911-3.661 8.377-10.516 14.319-19.909 17.014-6.015 1.726-13.169.689-18.08-1.27-5.013-1.999-9.021-5.033-12.19-8.888-1.546-1.881-2.978-4.069-4.063-6.501-1.081-2.424-2.034-5.209-2.387-8.177-.801-6.739.472-12.884 2.945-17.623 4.173-7.996 11.041-13.841 21.179-15.745.748-.14 1.499-.267 2.286-.356 4.855-.547 9.703.407 13.408 1.778 7.65 2.831 13.156 8.113 16.506 15.236.667 1.419 1.341 2.961 1.574 4.622z"/><path d="m56.581 33.4c-5.133.366-10.693-.147-15.643.051-2.472.099-4.259.907-5.638 2.286-1.308 1.308-2.308 3.212-2.285 5.638.023 2.542 1.048 4.197 2.387 5.536 1.315 1.315 3.188 2.283 5.587 2.336 3.67.082 7.854 0 11.783 0 1.29 0 2.588-.119 3.809.152-.444 1.554-1.448 2.547-2.336 3.657-.915 1.009-1.821 1.931-2.895 2.692-3.055 2.165-7.748 4.09-13.154 3.098-5.861-1.076-10.353-4.44-12.951-9.345-1.35-2.548-2.137-5.833-1.981-9.193.15-3.233 1.264-6.191 2.692-8.481 2.658-4.264 7.548-8.016 14.17-8.329 4.492-.212 7.689 1.138 10.361 2.895 2.014 1.325 3.625 2.883 5.028 4.876.437.619.986 1.311 1.066 2.131z"/></g></svg>