<svg enable-background="new 0 0 84.679 81.059" viewBox="0 0 84.679 81.059" xmlns="http://www.w3.org/2000/svg"><g clip-rule="evenodd" fill-rule="evenodd"><path d="m84.201 9.763c-1.314.183-2.654-.177-3.993-.35-7.756-1.001-16.475-1.795-25.503-1.248-1.409.085-3.109.014-3.843.649-.384.332-.456 1.297-.898 1.547-.631.357-2.602.1-3.594.1-3.629 0-7.586.08-10.88-.1-.554-.328-.602-1.161-1.048-1.597-1.108-1.482-4.363-1.014-6.838-.898-7.416.345-14.08 1.373-20.312 2.895-1.249.305-2.488.636-3.693.948-1.207.313-2.35.993-3.594.849-.059-.832.469-1.544.749-2.296.276-.744.547-1.514.848-2.246.598-1.46 1.133-2.978 1.946-4.242 2.006-.427 5.181-.658 7.436-.898 6.859-.73 14.057-.83 21.36-1.298.683-.043 1.423-.013 1.847-.199.468-.205.482-1.06.898-1.248.577-.261 2.496-.05 3.244-.05h7.736c.614 0 1.415.027 2.195 0 .618-.021 1.642-.169 2.047.05.485.263.361 1.043.848 1.297.416.217 1.356.165 2.146.25 4.934.528 10.374.987 14.973 1.547 3.972.484 8.297 1.198 12.428 1.746 1.121.149 3.451.246 3.843.849.242.373.073 1.434.05 2.046-.026.75-.008 1.386-.398 1.897z"/><path d="m49.864 12.009c.264.796.149 1.738.149 2.645 0 .88.02 1.772 0 2.645-.041 1.839.151 3.753-.149 5.39-.88.254-2.059.15-3.194.15-1.12 0-2.286.114-3.145-.15-.327-.565-.199-1.605-.199-2.396 0-.517.169-1.992-.599-1.947-.759.045-.478 2.392-.449 3.145.035.965 0 2.191 0 3.444 0 .941-.265 3.01.499 3.044 1.187.053.092-2.997.748-3.643.874-.262 2.061-.15 3.194-.15 1.121 0 2.286-.116 3.145.15.261.679.149 1.503.149 2.296 0 2.275.081 4.929-.1 7.087-1.06.352-2.31.2-3.544.2-2.387 0-4.848 0-7.387 0-1.221 0-2.439.121-3.543-.15-.268-.835-.15-1.754-.15-2.645 0-5.385 0-11.007 0-16.47 0-.869-.113-1.776.15-2.595.224-.17.678-.185.948-.2 2.168-.115 4.547 0 6.888 0 1.161 0 2.325-.053 3.443 0 1.09.051 2.168-.133 3.146.15z"/><path d="m49.864 35.615c.261.776.149 1.691.149 2.596v5.49c0 .905.11 1.819-.149 2.595-.879.255-2.062.15-3.194.149-1.134 0-2.296.109-3.145-.1-.344-.534-.173-1.538-.199-2.496-.013-.444.1-1.976-.649-1.896-.517.055-.467 1.456-.449 2.196.027 1.114-.016 2.485.051 3.943.053 1.184-.353 3.553.549 3.544.644-.007.499-1.146.499-1.647 0-.808-.09-1.465.149-1.997.875-.254 2.088-.249 3.244-.2 1.102.047 2.379-.198 3.194.25.181 1.423.1 3.058.1 4.691 0 1.583.119 3.244-.149 4.591-1.09.296-2.347.25-3.594.2-2.41-.096-4.861 0-7.336 0-1.215 0-2.479.15-3.544-.2-.175-6.185-.101-12.792-.101-19.365 0-1.061-.219-2.331.5-2.495.916-.209 2.602 0 3.594 0h7.086c1.15.002 2.312-.117 3.394.151z"/><path d="m49.813 59.173c.342.696.2 1.654.2 2.595v5.49c0 .778.136 2.242-.2 2.545-.438.396-2.424.15-3.193.15-1.195 0-2.332.114-3.145-.15-.26-.623-.149-1.666-.149-2.445 0-.505.122-1.979-.649-1.896-.588.062-.449 1.443-.449 2.246 0 1.888.02 3.503.051 5.34.01.63-.183 2.033.449 2.096 1.173.117.227-3.03.748-3.643.871-.265 2.059-.15 3.194-.15 1.132 0 2.327-.118 3.194.15.263.672.149 1.491.149 2.295 0 2.282.118 5.005-.149 7.087-1.095.266-2.296.152-3.494.149-2.364-.004-4.848 0-7.387 0-1.219 0-2.436.12-3.543-.149-.262-.771-.15-1.632-.15-2.446 0-5.809.051-12.202.051-17.717 0-.497-.184-1.117.1-1.547.938-.254 2.598-.15 3.992-.15h7.037c1.144 0 2.31-.118 3.343.15z"/></g></svg>