<svg enable-background="new 0 0 164.429 161.462" viewBox="0 0 164.429 161.462" xmlns="http://www.w3.org/2000/svg"><g clip-rule="evenodd" fill-rule="evenodd"><path d="m120.007 75.054c-.656-.561-.995-1.47-1.454-2.251-3.153-5.371-6.282-10.939-9.381-16.418-3.545-6.264-7.168-12.495-10.789-18.716-1.801-3.094-3.558-6.248-5.395-9.382-1.813-3.092-3.657-6.214-5.395-9.334-3.503-6.293-6.543-12.99-11.54-17.919-.301-.25-.867-.472-.891-.844 13.519-.123 27.469-.142 40.998-.141 3.199 0 6.381-.206 9.053.234 2.667.44 4.911 1.294 6.896 2.392 3.981 2.203 7.167 5.26 9.476 9.1 2.298 3.823 4.215 8.519 3.94 14.588-.266 5.847-2.657 9.695-5.02 13.556-3.62 5.918-6.752 11.668-10.226 17.591-1.718 2.929-3.427 5.806-5.16 8.771-1.709 2.927-3.181 5.981-5.112 8.773z"/><path d="m99.743 50.709c-21.772.185-44.692.189-66.75.188-7.107 0-14.954-.442-20.406 1.783.127-.724.58-1.349.939-1.97 2.524-4.378 5.053-8.814 7.646-13.228 4.427-7.54 8.736-15.108 13.134-22.704 1.48-2.557 2.879-5.183 4.785-7.13 3.005-3.07 6.745-5.263 11.492-6.427 1.636-.4 3.419-.657 5.394-.751 3.808-.18 7.24.633 10.085 1.689 2.979 1.105 5.271 2.551 7.412 4.362 2.152 1.822 3.636 4.142 5.112 6.661 2.21 3.768 4.263 7.462 6.427 11.211.366.634.627 1.323.985 1.97 4.138 7.476 8.556 14.969 12.852 22.422.344.594.818 1.207.893 1.924z"/><path d="m68.033 56.619c-.213.882-.74 1.665-1.173 2.439-3.054 5.47-6.199 11.014-9.241 16.559-3.04 5.54-6.146 11.036-9.287 16.558-.449.791-.769 1.652-1.22 2.439-5.416 9.439-10.656 18.785-15.902 28.334-1.758 3.197-3.459 6.602-3.986 10.74-.5-.215-.731-.789-.986-1.219-1.951-3.285-3.956-6.619-5.957-9.945-3.412-5.67-6.76-11.359-10.179-17.074-.57-.953-1.062-1.945-1.642-2.908-1.687-2.805-3.356-5.654-5.066-8.537-1.156-1.949-2.143-3.976-2.721-6.332-1.297-5.295-.635-11.309 1.267-15.48.947-2.078 1.944-4.088 3.284-5.817.98-1.267 1.987-2.517 3.189-3.612 3.412-3.108 8.049-5.872 14.26-6.145 2.921-.128 5.904-.046 8.959-.047h4.551c10.411-.001 21.136-.112 31.85.047z"/><path d="m58.229 86.312c.04-.008.044.02.047.047.613.65.975 1.482 1.407 2.252 4.751 8.447 9.825 16.912 14.635 25.377 3.506 6.17 7.133 12.234 10.602 18.482.431.775.961 1.496 1.36 2.299.211.424.33.852.562 1.266 1.073 1.908 2.143 3.887 3.284 5.77 3.669 6.055 6.612 12.586 11.352 17.732.305.318.596.639.938.938.321.281.831.432.985.891-14.117.127-28.355.094-42.357.094-3.751 0-7.268.055-10.039-.703-2.739-.748-5.131-2.023-7.177-3.518-4.081-2.98-7.387-6.803-9.334-12.102-1.02-2.773-1.736-5.539-1.736-9.008 0-3.373.596-6.426 1.736-9.006.523-1.186 1.265-2.312 1.923-3.471 3.556-6.26 7.181-12.453 10.836-18.623.339-.572.565-1.197.892-1.783.632-1.135 1.351-2.221 2.017-3.33 2.694-4.488 5.188-9.096 7.928-13.51.033-.044.084-.071.139-.094z"/><path d="m164.429 110.845c-.163.738-.592 1.371-.938 2.018-1.02 1.904-2.031 3.783-3.096 5.676-5.454 9.055-10.557 18.654-15.996 27.863-1.792 3.033-3.371 6.25-6.051 8.537-1.972 1.992-4.401 3.396-7.177 4.551-2.764 1.146-6.015 1.939-9.758 1.922-7.398-.033-12.99-2.729-16.981-6.379-2.004-1.834-3.566-4.178-4.973-6.754-4.075-7.473-8.718-14.906-12.712-22.328-1.997-3.818-4.167-7.502-6.285-11.26-.349-.617-.673-1.262-1.032-1.875-.348-.596-.867-1.15-.938-1.877 3.515-.205 7.071-.094 10.648-.094 7.18.002 14.456-.047 21.625-.047 3.668 0 7.375.168 10.976 0 3.431-.158 7.318.004 10.695-.047 10.665-.162 21.49.043 31.993.094z"/></g></svg>