<svg enable-background="new 0 0 58.156 77.453" viewBox="0 0 58.156 77.453" xmlns="http://www.w3.org/2000/svg"><path clip-rule="evenodd" d="m57.985 29.546c-9.973.294-20.5-.088-30.43.146-.285 1.035-.237 2.954-.097 4.291 1.227.266 2.526.146 3.804.146 8.985 0 17.716-.068 26.674.146.277.675.118 1.49.146 2.292.076 2.21.122 4.847-.049 7.022-9.868.301-20.611-.109-30.527.195-.188 1.181-.1 2.884-.048 4.145.557.259 1.222.146 1.804.146 9.56 0 19.583.022 28.723.147.261.905.146 1.879.146 2.828 0 6.666.065 13.384-.049 19.944-.362.584-1.042.856-1.609 1.171-2.908 1.614-5.943 3.268-9.753 4.145-1.484.342-3.041.676-4.633.878-7.065.897-13.974-.617-18.921-2.682-3.859-1.611-7.372-3.768-10.289-6.388-.941-.846-1.803-1.856-2.682-2.828-3.563-3.939-6.371-8.637-8.144-13.995-1.897-5.737-2.691-12.974-1.462-19.457 1.773-9.346 5.952-16.167 11.606-21.7.955-.935 1.852-1.854 2.926-2.633 5.156-3.741 11.902-7.061 20.384-7.461 7.371-.348 13.09 1.423 17.945 3.706.813.383 1.612.807 2.39 1.219.764.405 1.515.902 2.146 1.463.17 5.609.097 11.615.098 17.506-.002 1.928.149 3.855-.099 5.608zm-2.195-11.605c-.598-.552-1.209-1.102-1.854-1.61-3.728-2.936-8.753-5.496-14.873-5.754-7.722-.325-13.612 2.252-18.043 5.657-1.019.784-1.865 1.622-2.73 2.487-.286.286-.722.568-.731 1.024.759.229 1.6.181 2.39.147.809-.036 1.631 0 2.438 0 11.811 0 23.435.047 34.964-.098-.242-.786-.964-1.302-1.561-1.853zm-41.499 5.9c-.536.896-1.188 1.861-1.561 2.829-.164.427-.215.914-.39 1.365-1.148 2.96-2.033 6.379-2.097 10.289-.064 3.923.718 7.798 1.853 10.631.188.47.276.923.438 1.365.645 1.752 1.771 3.51 2.78 4.876.346.468.622 1.132 1.219 1.268.151-11.013-.001-22.667 0-33.745 0-.385.146-1.787-.292-1.609-.738.733-1.324 1.685-1.95 2.731zm3.512 34.135c.01.428.379.734.634 1.024.261.298.588.568.877.829 4.197 3.782 9.329 6.522 16.531 7.168 4.393.394 8.39-.543 11.558-1.853 1.627-.672 3.143-1.335 4.486-2.292 1.344-.958 2.682-1.863 3.804-2.975.604-.598 1.383-1.022 1.706-1.901-12.882-.143-26.598-.229-39.596 0z" fill-rule="evenodd"/></svg>