<svg enable-background="new 0 0 81.277 81.966" viewBox="0 0 81.277 81.966" xmlns="http://www.w3.org/2000/svg"><path clip-rule="evenodd" d="m39.638.062c3.126-.231 6.743.22 9.405.813 5.501 1.225 10.4 3.386 14.337 6.101 2.921 2.014 5.557 4.747 7.931 7.372 2.38 2.63 4.432 5.673 6.051 9.202 2.165 4.719 3.915 9.95 3.915 16.472-.001 13.245-4.838 22.227-11.338 29.386-.787.867-1.736 1.661-2.644 2.491-.878.802-1.801 1.654-2.746 2.339-1.953 1.415-4.103 2.647-6.405 3.762-4.515 2.186-10.271 3.965-16.422 3.965-3.446 0-6.502-.222-9.405-.813-5.578-1.135-10.289-3.429-14.287-6.152-5.944-4.048-10.887-9.537-14.134-16.421-2.224-4.714-3.586-9.936-3.864-16.523-.275-6.543 1.243-12.288 3.254-17.083 2.077-4.951 4.754-8.639 8.186-12.202 1.701-1.766 3.431-3.399 5.39-4.83 3.87-2.828 8.264-5.18 13.727-6.66 2.76-.748 5.881-.985 9.049-1.219zm11.641 7.524c-1.181-.367-2.454-.672-3.762-.966-6.102-1.368-13.281-.47-18.15 1.22-.917.318-1.896.563-2.542 1.169.215.569.886.699 1.373.915 2.726 1.208 5.233 2.46 8.084 3.61.756.305 2.851.845 3.151 1.525.33.745.103 2.523.103 3.61v9.253c0 .549.148 1.218-.204 1.678-.929-.079-1.812-.606-2.694-.966-.886-.361-1.893-.647-2.491-1.322-.151-2.526.05-5.404-.102-7.931-.328-.402-.91-.815-1.576-.711-.267.516-.152 1.158-.152 1.729-.001 4.483-.127 9.033.051 13.371.299.48.818.741 1.525.814.618-1.015-.271-3.602.508-4.423.924.224 1.786.692 2.645 1.067.854.373 1.845.576 2.439 1.271.149 1.444-.047 3.233.103 4.677.337.59 1.74.603 2.084 0 .199-4.345.134-9.288.152-13.981.006-1.523-.051-2.55-.051-4.524 0-1.087-.226-3.034.153-3.61.201-.308 1.027-.54 1.524-.763 1.655-.738 3.344-1.51 4.881-2.135 1.709-.695 3.197-1.524 4.779-2.237.5-.225 1.158-.37 1.424-.915-.916-.632-2.068-1.056-3.255-1.425zm-25.012 3.203c0-.433.09-1.402-.356-1.474-.332-.054-1.89.885-2.287 1.169-1.981 1.414-3.903 2.636-5.694 4.067-2.395 1.914-4.36 4.388-6.101 6.863-1.767 2.514-3.224 5.349-4.322 8.643-1.046 3.14-1.879 7.207-1.729 11.236.311 8.292 2.671 14.491 6.254 19.675 2.645 3.827 5.908 7.144 9.863 9.609 1.327.827 2.653 1.909 4.271 2.237.269-1.113.152-2.285.152-3.457.001-8.546-.057-16.92.051-25.115 1.408-.949 3.269-1.634 4.881-2.339.53-.232 1.186-.447 1.474-.966-1.381-.997-3.278-1.6-4.88-2.288-.541-.232-1.185-.436-1.525-.915-.028-9.073-.052-17.642-.052-26.945zm28.826-1.322c-.268 2.545.031 5.657-.152 8.287-.658.686-1.686.97-2.593 1.373-.44.195-.916.414-1.373.61-.479.205-.979.536-1.524.407-.244-.434.01-1.367-.306-1.729-.643-.044-1.305.046-1.576.559-.232.439-.102 1.362-.102 2.136 0 .805-.115 1.699.203 2.084 2.674-.647 4.562-2.081 7.118-2.847.351.723.203 1.863.203 2.999 0 .828.223 2.575-.102 3.152-.212.376-1.235.676-1.779.914-1.417.622-2.284 1.062-3.763 1.678-.589.247-1.575.552-1.779.966-.248.505-.102 1.394-.102 2.186 0 .752-.115 1.547.203 2.085.619-.05 1.318-.145 1.576-.712.293-.644-.055-1.588.152-2.44.776-.51 1.693-.928 2.594-1.322.907-.397 1.862-.897 2.796-1.017.348.563.203 1.351.203 2.084 0 2.286.041 4.735-.051 6.864-.824.73-1.985.983-3.152 1.525-.417.194-1.1.542-1.576.763-.376.174-1.461.466-1.475.864-.014.445 1.062.701 1.475.864 1.135.45 2.15 1.037 3.203 1.475.552.229 1.211.283 1.525.813.092 2.109.051 4.553.051 6.71 0 .737.123 1.517-.152 2.136-.509.084-1.012-.203-1.475-.407-.455-.201-.934-.414-1.372-.61-.919-.41-1.952-.723-2.594-1.423-.247-.731.127-1.598-.152-2.237-.228-.521-.983-.694-1.576-.711-.236.532-.175 1.289-.203 2.034-.028.746-.127 1.684.102 2.186.204.447 1.214.715 1.779.966 1.355.601 2.517 1.173 3.813 1.678.663.258 1.399.471 1.779.966.122 5.129.051 10.037.051 15.151 0 .718.163 1.519-.203 2.135-2.219-.825-4.384-1.829-6.508-2.847-2.144-1.028-4.477-1.628-6.406-2.949-.162-6.071.042-13.602-.051-19.675-.013-.853.11-2.136-.203-2.542-.439-.569-1.553-.213-1.982.203-.275 7.295.039 15.236-.153 22.472-.681.584-1.622.933-2.491 1.322-.878.393-1.763.878-2.693 1.017-.345-.721-.204-1.654-.204-2.542 0-1.876 0-3.78 0-5.593 0-.921.118-1.855-.152-2.644-.479.021-1.271.215-1.475.61-.301.582-.102 1.833-.102 2.746 0 2.891.013 5.804 0 8.236-1.03.872-2.612 1.347-3.966 1.983-.388.183-1.243.403-1.22.813.022.383 1.381.762 1.83.915 2.032.694 4.514 1.335 6.609 1.678 3.147.516 7.466.338 10.32-.102 6.501-1 11.332-3.434 15.558-6.507 3.073-2.236 5.82-5.309 7.983-8.542 3.57-5.341 6.547-12.701 5.998-21.505-.495-7.957-3.074-13.988-6.711-18.811-1.215-1.611-2.596-3.065-3.863-4.677-2.021-1.942-4.492-3.476-6.965-5.084-.635-.413-1.97-1.224-2.746-1.322-.063.02-.103.065-.101.152zm-22.675 38.842c.006 1.257-.289 3.23.204 4.168.577.079 1.093-.279 1.423-.61.005-1.279.257-3.237-.152-4.271-.672.058-1.154.306-1.475.713zm15.252 10.473c-.302.642-.231 2.901-.102 3.763.408.354.858.667 1.576.711.409-.887.155-2.68.152-3.813-.336-.371-.998-.914-1.626-.661z" fill-rule="evenodd"/></svg>