<svg enable-background="new 0 0 72.952 73.699" viewBox="0 0 72.952 73.699" xmlns="http://www.w3.org/2000/svg"><g clip-rule="evenodd" fill-rule="evenodd"><path d="m72.685.103c.228.636.188 1.358.195 2.048.053 5.04.004 10.501-.098 15.36-8.548.201-16.805.146-25.893.146-7.688 0-15.108-.138-22.773-.049-1.047.012-2.151-.066-3.072.098-1.056.189-1.881.959-2.194 1.804-.361.977-.195 2.842-.195 4.243 0 9.096.049 17.453.049 26.381 0 1.504-.139 3.033.098 4.291.236 1.26 1.168 2.176 2.487 2.292 2.109.186 4.351 0 6.534 0 14.952 0 30.253-.053 44.96.049.258.634.146 1.365.146 2.048 0 4.888.038 10.048 0 14.629-1.432.373-2.924.13-4.389.147-22.408.245-45.709.007-68.27-.049-.256-1.485-.146-3.022-.146-4.535 0-19.865-.049-39.373-.049-59.931 0-1.558.023-3.113-.049-4.633-.069-1.452.007-2.915.146-4.29 7.643-.145 15.404-.121 23.065-.147 4.062-.013 8.203.131 12.337.049 6.189-.122 12.291 0 18.579 0 6.341 0 12.532-.053 18.532.049z"/><path d="m72.782 22.291c.124 1.009.098 2.224.098 3.414 0 1.171.164 2.357-.098 3.268-7.022.201-13.998.146-21.309.146-5.425 0-10.805-.049-16.19-.049-1.743 0-3.476.194-5.169-.097-.135-2.202-.236-4.655 0-6.632 6.435-.28 13.091-.097 19.798-.097 5.038 0 10.077-.049 15.166-.049 1.737 0 3.561.025 5.12-.049.874-.043 1.847-.054 2.584.145z"/><path d="m72.782 34.141c.162 1.95.192 4.549.049 6.485-7.104.239-14.144.146-21.31.146-7.283 0-14.392.06-21.358-.098-.259-1.87-.189-4.5-.049-6.534 10.957-.206 22.875-.098 33.891-.098 2.267 0 4.486-.105 6.729-.049.68.018 1.402-.088 2.048.148z"/><path d="m72.733 45.795c.296.898.206 2.065.195 3.17-.012 1.1.078 2.227-.098 3.169-4.688.314-9.409.147-14.19.147-9.416 0-19.104.114-28.43-.049-.298-.918-.158-2.037-.146-3.121.012-1.088-.171-2.237.049-3.268 13.826-.188 28.83-.113 42.62-.048z"/></g></svg>