<svg enable-background="new 0 0 79.338 57.196" viewBox="0 0 79.338 57.196" xmlns="http://www.w3.org/2000/svg"><path clip-rule="evenodd" d="m73.834 30.623c.604.025.968-.602 1.358-.957.975-.769 1.866-1.717 2.819-2.567.29-.259.605-.676 1.057-.604.466.502.198 1.261.151 1.812-.367 4.375-1.913 8.093-3.625 11.176-1.457 2.625-3.529 4.995-5.839 6.896-3.831 3.154-8.711 5.469-15.454 5.739-4.525.181-9.926-.051-14.599-.051-.598 0-1.351-.171-1.862.252.035.526.586.861.956 1.208.387.363.824.69 1.158 1.058.424.304.843.636 1.208 1.006.352.357.883.647 1.007 1.208-.511.309-1.188.305-1.763.302-4.475-.023-9.53.391-13.541-.353-4.55-.843-8.248-2.476-11.326-4.883-4.483-3.506-8.168-8.086-9.615-14.749-.488-2.251-.828-4.801-.654-7.45.059-.889.432-1.914.15-2.718-.735.069-.857.752-1.409 1.007-.566.589-1.183 1.188-1.812 1.762-.611.559-1.2 1.254-1.963 1.51-.374-.424-.205-1.263-.15-1.913.373-4.482 1.731-8.314 3.574-11.376 2.119-3.523 4.975-6.455 8.406-8.659 3.487-2.239 7.726-3.697 13.038-4.027 2.597-.161 5.485.05 8.406.051 2.122 0 4.239-.068 6.394 0 .622.019 1.304.198 1.862-.151-.023-.63-.602-.928-.956-1.309-.367-.393-.741-.766-1.107-1.158-.723-.77-1.672-1.375-2.114-2.416.538-.366 1.671-.241 2.668-.252 1.98-.02 4.346-.038 6.242.051 1.45.067 2.836-.078 4.178.05 6.302.6 10.917 3.077 14.649 6.293 1.494 1.288 2.72 2.831 3.927 4.48 2.35 3.212 4.111 7.184 4.681 12.082.225 1.923.253 3.931 0 5.89-.072.555-.287 1.168-.1 1.76zm-21.446-4.53c-.485 0-1.089.095-1.511 0-.458-.104-.525-.513-.805-.856-.791-.967-2.271-.855-4.078-.855-5.609 0-10.896-.064-15.957 0-2.095.026-4.302-.111-6.041.353-1.671.444-3.002 1.497-3.826 2.718-.967 1.433-1.144 3.238-.956 5.437.329 3.84 2.478 6.445 4.883 8.256 1.299.978 2.628 1.712 4.53 2.014 1.784.282 4.077.318 6.192.252 2.08-.065 4.309.062 6.494.05 2.214-.012 4.412-.146 6.443-.05 4.316.204 8.949.087 11.931-1.107 3.183-1.275 5.482-3.135 7.45-5.688 1.124-1.532 2.017-3.267 2.668-5.185.677-1.996 1.059-4.34.806-6.997-.416-4.355-2.043-8.702-4.179-11.578-2.275-3.064-5.038-5.345-8.659-7.098-2.7-1.308-5.805-2.055-9.715-2.114-1.266-.02-2.59-.161-3.876-.101-.608.029-1.519-.053-1.763.453.008.343-.025.728.052 1.003.419.523 1.155.352 1.712.352 1.919 0 4.105-.159 6.04.05 7.413.799 12.24 4.44 15.505 9.363 2.161 3.259 3.683 7.994 3.071 13.29-.572 4.954-2.906 8.093-6.041 10.571-1.565 1.172-3.369 2.026-5.639 2.618-2.293.598-4.897.554-7.752.554-5.465 0-10.854.124-16.059 0-1.517-.036-2.806.043-3.977-.151-1.148-.191-2.08-.575-3.02-1.108-1.738-.985-3.231-2.212-4.279-4.027-.905-1.57-1.88-4.414-1.157-6.746.307-.989.949-1.78 1.711-2.416.716-.598 1.646-1.326 2.92-1.158.326.681.07 1.944.151 2.87-.508.779-1.323.824-1.51 1.862-.14.768.044 1.829.251 2.517.451 1.5 1.592 2.863 2.819 3.675 2.746 1.816 8.36 1.023 12.636 1.107 1.391.028 2.944-.118 4.479-.05 3.136.138 6.298.081 9.112-.05 5.819-.271 9.375-3.315 11.225-7.299 1.044-2.247 1.223-5.434.604-7.954-1.232-5.029-3.49-8.539-7.399-11.125-1.857-1.217-4.002-2.132-6.645-2.567-2.662-.438-5.734-.302-8.86-.302-3.037 0-6.112 0-9.162 0-3.029 0-6.061-.208-8.961 0-5.518.396-9.773 2.618-13.088 5.437-1.614 1.373-3.13 3.119-4.278 4.983-.588.954-1.008 2.05-1.511 3.121-.487 1.038-1.136 2.193-1.007 3.423 1.683.808 1.844-1.033 2.165-1.812 1.298-3.156 2.974-5.806 5.336-7.954 3.038-2.763 6.878-4.999 12.182-5.487 2.667-.246 5.735-.051 8.659-.051 2.982 0 5.934-.177 8.809-.05 2.855.125 5.873-.133 8.558.101 2.666.231 4.702 1.161 6.544 2.315 1.808 1.133 3.316 2.515 4.53 4.279 1.198 1.74 2.19 3.859 2.618 6.242 1.089 6.075-1.854 9.831-5.487 11.83-2.096 1.153-4.374 1.208-7.501 1.208-4.348 0-8.657 0-12.987 0-1.405 0-2.88.066-4.329 0-1.464-.066-2.887.047-4.027-.302-1.933-.592-3.231-2.031-3.322-4.229.285-.287.75-.201 1.157-.201.458 0 1.009-.086 1.41 0 .397.085.561.452.805.705 1.122 1.159 3.822.701 6.041.806 3.782.179 6.842-.05 10.32-.051 1.796 0 3.587-.12 5.336-.05 1.836.073 3.449.037 4.782-.454 2.469-.907 4.407-3.139 4.581-6.191.129-2.267-.733-4.877-1.661-6.393-1.648-2.691-4.249-4.938-7.753-5.688-1.44-.309-3.076-.292-4.983-.302-3.414-.019-6.991 0-10.571 0-3.503 0-7.105-.251-10.672 0-6.42.453-10.825 3.811-13.491 8.004-1.413 2.221-2.463 4.867-2.668 8.054-.223 3.448.443 6.553 1.46 9.212 1.912 5.005 5.459 8.985 9.967 11.528 3.508 1.979 7.83 2.761 13.29 2.869 1.509.03 4.131.762 3.926-1.259-.283-.509-.852-.448-1.308-.453-1.892-.02-3.56.173-5.236 0-2.235-.229-4.3-.422-6.141-1.057-3.631-1.251-6.397-3.047-8.809-5.588-2.216-2.334-4.108-5.695-4.984-9.414-.486-2.069-.66-4.358-.453-6.544.398-4.202 2.553-7.183 4.883-9.514 2.461-2.461 5.678-3.964 10.169-4.228 2.204-.13 4.589 0 6.997 0 4.644 0 9.46-.051 14.146-.051 2.555 0 4.559.148 6.242.957 1.54.739 2.972 1.883 3.978 3.272 1.365 1.889 2.748 5.588 1.61 8.508-.885 1.565-2.225 2.942-4.479 2.97-.319-.722-.075-2.006-.151-2.97.588-.776 1.392-.99 1.611-2.064.248-1.219-.295-2.649-.806-3.474-1.186-1.914-2.843-3.508-5.588-3.675-1.306-.079-2.777-.008-4.279 0-2.995.016-5.859.05-8.558.05-2.97 0-5.59.212-8.558.101-2.858-.107-5.582.334-7.35 1.359-1.446.838-2.84 2.004-3.826 3.222-1.07 1.322-1.82 2.897-2.265 4.782-.951 4.032.441 8.54 2.113 11.377 2.601 4.408 6.621 7.644 12.838 8.306 1.995.212 4.567.201 6.896.201 4.531 0 9.295.05 13.943.05 2.41 0 4.671.045 6.746-.302 6.066-1.013 10.371-3.63 13.592-7.601 1.846-2.276 3.338-4.879 4.379-7.954.137-.402.464-.948.051-1.359-1.652-.496-1.695 1.191-2.014 2.014-1.2 3.104-2.906 5.618-5.034 7.803-1.388 1.425-3.023 2.538-4.983 3.524-1.914.962-4.069 1.809-6.494 2.063-2.632.276-5.503.151-8.356.151-2.855 0-5.713-.101-8.457-.101-2.765 0-5.646.193-8.356-.051-2.924-.263-4.939-.618-6.897-1.661-3.678-1.959-6.491-4.995-7.803-9.262-.7-2.282-1.103-5.011-.402-7.4 1.2-4.099 4.621-7.104 9.614-7.451 2.585-.179 5.423.02 8.307-.05 4.176-.101 8.526-.15 12.685-.05 1.438.035 2.832-.115 3.876.302 1.703.68 3.202 2.349 3.172 4.581-.288.326-.793.255-1.259.255z" fill-rule="evenodd"/></svg>