<svg enable-background="new 0 0 83.88 84.398" viewBox="0 0 83.88 84.398" xmlns="http://www.w3.org/2000/svg"><g clip-rule="evenodd" fill-rule="evenodd"><path d="m83.732 41.865c-.704.263-1.766.156-2.861.156-.817 0-2.408.199-2.862-.156-.498-.39-.356-2.395-.468-3.33-.136-1.141-.396-2.335-.625-3.174-.54-1.987-.993-4.149-1.664-5.879-1.358-3.5-3.419-6.895-5.516-9.573-4.351-5.556-10.325-9.762-17.951-12.228-1.93-.624-4.141-1.093-6.295-1.301-7.125-.687-13.917.824-18.835 3.278-6.8 3.393-11.836 8.27-15.505 14.672-1.889 3.295-3.235 6.779-4.11 11.03-.914 4.436-.788 9.299 0 13.736.728 4.105 2.253 7.789 4.11 10.978 1.84 3.16 4.074 6.105 6.607 8.481 5.138 4.818 11.753 8.399 20.656 9.522 8.543 1.077 16.263-1.484 21.488-4.526.378-.22.765-.482 1.144-.729.356-.23.801-.597 1.301-.468.334.376.209.992.209 1.561 0 .518.006 1.092 0 1.613-.014 1.025.304 2.511-.053 3.33-.33.758-2.047 1.249-2.861 1.665-3.081 1.575-6.46 2.609-10.354 3.226-2.704.428-5.566.741-8.325.624-2.808-.119-5.512-.502-7.96-1.04-9.871-2.17-17.005-7.265-22.529-13.58-5.682-6.496-9.747-14.534-10.406-25.755-.344-5.868.669-11.233 2.237-15.713 1.577-4.502 3.637-8.278 6.348-11.707 3.502-4.478 7.642-8.437 12.799-11.291 5.241-2.9 11.351-4.894 18.991-5.255 3.401-.161 6.783.302 9.833.885 2.939.562 5.827 1.38 8.117 2.549 2.468 1.26 4.756 2.364 6.816 3.85 6.171 4.453 11.328 10.05 14.725 17.326 1.1 2.357 2.13 5.048 2.757 7.909.314 1.432.699 2.968.833 4.527.134 1.544.589 3.156.209 4.787z"/><path d="m62.347 62.364c.395.982.176 2.428.209 3.747.028 1.188.032 2.519-.053 3.694-.384.923-2.102 1.827-2.966 2.342-5.142 3.068-12.26 5.426-20.604 4.579-9.318-.947-15.633-4.777-21.02-9.73-1.73-1.591-3.195-3.625-4.579-5.671-1.407-2.081-2.651-4.354-3.538-6.66-1.97-5.124-2.868-11.562-1.925-17.742.888-5.816 3.002-10.672 5.775-14.673 4.18-6.029 10.124-10.478 17.744-13.008 1.296-.431 2.643-.774 4.058-1.041 5.297-.999 11.911-.529 16.494.937 5.489 1.756 10.052 4.782 13.84 8.272 2.842 2.829 5.383 6.155 7.336 10.355 1.338 2.876 2.475 6.329 3.07 10.198.147.958.622 3.289.104 3.85-.392.425-2.39.245-2.966.26-1.053.028-2.165-.028-2.913-.156-.462-.553-.417-1.299-.469-1.925-.179-2.184-.68-3.944-1.249-5.828-1.787-5.92-5.179-10.55-9.573-14.048-4.265-3.395-9.886-6.088-17.482-6.088-6.052 0-10.585 1.894-14.621 4.267-3.771 2.46-6.925 5.629-9.262 9.625-.76 1.301-1.61 2.719-2.081 4.163-.135.415-.15.867-.26 1.301-.648 2.565-1.584 5.705-1.457 9.105.071 1.9.286 3.711.625 5.463.974 5.045 3.021 9.11 5.775 12.383 1.892 2.249 4.05 4.006 6.452 5.671 4.687 3.25 11.754 5.437 19.303 4.318 3.56-.527 6.558-1.525 9.21-2.913 1.984-1.039 3.607-2.371 5.255-3.798.517-.448 1-1.136 1.768-1.249z"/><path d="m68.695 41.865c-.72.321-1.77.164-2.81.156-.851-.007-2.481.219-2.966-.156-.523-.405-.465-2.368-.624-3.174-.205-1.038-.54-2.154-.832-2.914-.673-1.751-1.632-3.66-2.549-4.995-.558-.811-.967-1.581-1.561-2.237-3.743-4.138-10.693-8.275-19.043-6.66-4.179.809-7.46 2.487-10.094 4.943-2.26 1.99-3.916 4.362-5.203 7.336-1.278 2.953-2.091 6.448-1.613 10.614.805 7.015 4.802 12.077 9.781 15.297 2.595 1.678 5.751 2.761 9.521 3.018 5.853.399 10.801-1.658 14.256-4.371 3.193-2.507 5.498-5.923 6.869-10.302.098-.315.097-.809.52-.937.372.268.256.851.261 1.249.026 2.261 0 5.167 0 7.701 0 1.024.104 2.293-.105 3.122-.225.893-1.327 1.69-1.977 2.29-.794.733-1.63 1.362-2.29 1.977-1.492 1.392-3.362 2.384-5.307 3.226-3.801 1.646-9.156 2.738-14.517 1.977-4.721-.67-8.862-2.482-12.123-4.891-6.349-4.689-11.452-11.798-11.186-22.893.249-10.424 5.699-17.401 12.331-21.697 2.596-1.681 5.57-3.019 9.157-3.642 3.082-.535 7.058-.705 10.354-.052 5.754 1.141 10.031 3.683 13.476 7.128 2.29 2.289 4.315 4.829 5.775 7.961.722 1.548 1.275 3.232 1.821 5.047.263.874.501 1.832.624 2.81.124.973.332 2.044.054 3.069z"/></g></svg>