<svg enable-background="new 0 0 72.48 72.281" viewBox="0 0 72.48 72.281" xmlns="http://www.w3.org/2000/svg"><g clip-rule="evenodd" fill-rule="evenodd"><path d="m33.278.259c.261 4.853.032 9.797.104 14.418.023 1.561.108 3.165-.154 4.669-2.69.452-6.346-.056-9.133.103-1.553.088-2.577.814-3.438 1.539-1.726 1.488-1.308 5.235-1.283 8.517.031 4.248-.052 8.383-.052 12.879 0 2.399-.379 5.578.359 7.286.895 2.067 2.723 3.027 5.388 3.027 2.53 0 5.427-.043 8.107.103.142 6.142.229 13.179-.052 19.292-6.244.192-11.704.051-17.907.052-1.972 0-4.003.151-5.9-.103-1.643-.22-2.984-1.101-4.156-1.898-2.367-1.612-4.083-3.95-4.874-7.132-.427-1.715-.232-3.597-.257-5.644-.091-7.463.051-15.834.052-23.603 0-5.591.051-11.914.051-17.855 0-2.037-.159-4.076.052-5.952.276-2.463 1.962-5.175 3.438-6.619 1.62-1.585 4.292-3.079 6.927-3.284 1.885-.147 3.796.051 5.695.051 5.725.001 11.36-.032 17.033.154z"/><path d="m39.437 72.041c-.195-4.539-.103-9.679-.104-14.572 0-1.61-.119-3.228.154-4.72 3.159-.402 6.499.366 9.543-.206 1.75-.328 3.237-1.725 3.746-3.386.333-1.086.191-2.378.205-3.797.045-4.084.051-8.824.052-12.879 0-2.892.223-6.033 0-8.517-.231-2.573-1.937-4.092-4.156-4.413-3.113-.451-6.093.212-9.338-.205-.19-5.34-.121-11.612-.052-16.932.01-.769-.129-1.561.153-2.257 5.76-.001 11.814 0 17.856 0 1.897 0 4.091-.242 5.746.103 3.7.769 6.423 3.412 7.953 6.465.919 1.832 1.283 3.45 1.283 5.952 0 6.97-.052 13.848-.052 21.139 0 7.53-.052 13.988-.051 21.345 0 2.402.273 5.018-.103 7.081-.692 3.787-3.036 6.768-6.004 8.363-1.62.871-3.506 1.545-5.593 1.642-2.188.102-4.604-.052-7.029-.052-3.67 0-7.127 0-10.774 0-1.127 0-2.3.122-3.435-.154z"/><path d="m31.175 25.144c3.192-.089 6.889 0 10.365 0 1.267 0 2.431-.059 3.283.257 2.331.862 2.387 2.701 2.31 6.003-.074 3.155.15 5.97 0 9.133-.074 1.562.134 3.294-.308 4.361-.368.888-1.368 1.72-2.155 1.95-1.155.337-2.769.123-4.105.103-2.953-.045-5.331 0-8.517 0-1.24 0-3.161.2-4.208-.103-.989-.286-1.941-1.242-2.258-2.155-.34-.981-.205-2.394-.205-3.899 0-2.892.001-5.413 0-8.159 0-1.579-.326-3.983.205-5.336.761-1.935 2.729-2.155 5.49-2.155.035 0 .069.001.103 0z"/></g></svg>