<svg enable-background="new 0 0 33.561 31.596" viewBox="0 0 33.561 31.596" xmlns="http://www.w3.org/2000/svg"><path d="m33.473 16.275c-.004 0-.007.001-.012.002l-4.992-2.535c-.04-.021-.08-.042-.122-.062l-.079-.04-.001.003c-.227-.096-.477-.148-.738-.148-1.06 0-1.921.86-1.921 1.92 0 .043.006.085.009.128-.24-.755-.831-1.284-1.702-1.284h-9.712c-1.163 0-2.104.941-2.104 2.104 0 1.162.941 2.104 2.104 2.104h9.712c.871 0 1.462-.53 1.702-1.285-.003.043-.009.085-.009.128 0 1.06.86 1.92 1.921 1.92.274 0 .533-.058.769-.161l.001.005 5.162-2.626c.005.001.008.003.013.003.049 0 .088-.04.088-.088-.001-.049-.041-.088-.089-.088m-5.015.711c-.344 0-.622-.279-.622-.623 0-.345.278-.624.622-.624.345 0 .623.279.623.624 0 .344-.278.623-.623.623"/><path d="m25.913 19.014c-1.222 0-2.299.608-2.951 1.537l-.006-.003c-1.539 2.315-4.17 3.841-7.158 3.841-4.745 0-8.592-3.846-8.592-8.591s3.847-8.592 8.592-8.592c2.952 0 5.555 1.489 7.101 3.757l.001-.001c.643.989 1.757 1.643 3.022 1.643 1.99 0 3.603-1.612 3.603-3.602 0-.731-.219-1.413-.594-1.98l.002-.002c-2.833-4.234-7.659-7.021-13.135-7.021-8.725 0-15.798 7.073-15.798 15.798 0 8.726 7.073 15.798 15.798 15.798 5.39 0 10.147-2.699 12.999-6.82.451-.601.718-1.35.718-2.159 0-1.99-1.613-3.603-3.602-3.603"/></svg>