<svg enable-background="new 0 0 77.719 38.974" viewBox="0 0 77.719 38.974" xmlns="http://www.w3.org/2000/svg"><g clip-rule="evenodd" fill-rule="evenodd"><path d="m38.367 13.376c-.437-.73-.63-1.582-1.052-2.344-.391-.703-.863-1.342-1.435-1.914-1.067-1.066-2.58-2.131-4.449-2.295-2.272-.201-4.739-.002-7.223 0-4.765 0-9.743-.002-14.542 0-4.236 0-6.629 1.586-8.18 4.305-.312.545-.575 1.186-.766 1.816-.198.656-.231 1.381-.574 2.01-.065-2.943-.385-5.836.191-8.227.517-2.14 1.929-4.007 3.493-5.165 1.06-.785 2.419-1.311 4.114-1.436 1.687-.123 3.561-.014 5.453 0 2.059.016 4.198-.049 6.314-.049 3.344 0 6.265-.047 9.375-.047 1.006 0 2.125-.094 2.918.047 2.242.398 4.242 2.039 5.357 3.684.409.604.887 1.395 1.052 2.01.273 1.018.096 2.465.096 3.826.001 1.354.088 2.564-.142 3.779z"/><path d="m77.542 14.859c-.272-.387-.214-.856-.287-1.244-.517-2.742-2.34-4.943-4.64-6.027-2.077-.977-4.69-.717-7.701-.717-8.421 0-17.627.113-25.543-.143-.148-1.404-.135-3.344-.096-4.975.013-.527-.097-1.377.143-1.58.035-.043.087-.072.144-.096 8.597.153 17.678-.082 26.309.049 2.413.037 4.53-.178 6.17.43 1.618.6 2.807 1.543 3.875 2.822 1.016 1.219 1.722 2.734 1.722 4.975 0 2.008.081 4.23-.096 6.506z"/><path d="m68.741 8.353c.16 2 .157 4.65 0 6.65-.956.252-2.021.143-3.061.143-5.195 0-10.492 0-15.833 0-2.192 0-4.078.014-5.596.717-1.226.57-2.141 1.529-2.918 2.488-.812 1.002-1.371 2.207-1.866 3.539-.316-1.045-.175-2.125-.191-3.109-.018-1.104-.071-2.182 0-3.156.152-2.09 1.491-3.867 2.679-5.07 1.18-1.195 2.909-2.215 5.118-2.344 1.822-.107 3.685.09 5.549.047 3.527-.078 7.183.012 10.81-.047.911-.016 1.821.086 2.727.047.857-.036 1.762-.186 2.582.095z"/><path d="m8.949 30.644c-.245-.99-.156-2.229-.144-3.396.012-1.137-.024-2.293.144-3.252 4.104-.176 8.832-.145 13.394-.145h6.888c5.035 0 7.804-2.734 8.993-6.744.027-.068.075-.117.144-.143.038.008.048.047.096.047-.036 2.764.366 5.721-.335 7.75-.675 1.953-1.907 3.504-3.587 4.592-.912.59-2.248 1.217-3.54 1.34-1.732.162-3.598-.072-5.501 0-5.359.199-11.426.054-16.552-.049z"/><path d="m.195 24.138c.041-.008.045.02.048.049.039.01.047.047.095.047.152 2.236 1.129 4.191 2.44 5.502 1.231 1.23 2.722 2.252 4.975 2.391 1.317.082 2.798 0 4.401 0 7.523 0 14.434-.049 22.003-.047 1.46 0 2.928-.108 4.257.142.181 1.951.225 4.473.048 6.555-.636.279-1.377.127-2.057.096-2.18-.103-4.317.047-6.505.047-2.846 0-5.839 0-8.897 0-2.792 0-5.888.115-8.802 0-1.646-.064-3.039.078-4.352 0-3.361-.197-5.286-2.133-6.793-4.305-1.411-2.295-1.009-6.838-.909-10.332-.013-.079.045-.082.048-.145z"/><path d="m77.494 24.378c.041-.01.045.018.048.047.246 3.605.431 7.445-.861 9.854-.612 1.143-1.438 2.109-2.535 2.967-1.006.785-2.369 1.535-3.779 1.674-1.113.109-2.313 0-3.492 0-5.748.002-11.588.047-17.316.049-2.254 0-4.47.133-6.075-.861-.846-.592-1.621-1.268-2.344-2.106-.749-.865-1.729-1.996-1.866-3.396-.203-2.068.077-4.807.096-6.983.405.488.562 1.111.813 1.674.252.564.526 1.035.909 1.531 1.063 1.377 2.311 2.586 4.257 3.107 1.679.451 4.219.191 6.41.191 4.348 0 8.428.002 13.107 0 2.194 0 4.644.217 6.362-.287 3.436-1.004 5.502-3.76 6.218-7.318.026-.037.051-.076.048-.143z"/></g></svg>