<svg enable-background="new 0 0 45.31 71.535" viewBox="0 0 45.31 71.535" xmlns="http://www.w3.org/2000/svg"><g clip-rule="evenodd" fill-rule="evenodd"><path d="m45.18 1.386c.16 2.033.16 4.721 0 6.755-.887-.04-1.694-.414-2.557-.627-2.548-.632-5.454-1.013-8.83-.82-3.671.21-7.646 1.337-10.374 2.654-5.814 2.806-10.359 7.203-13.365 12.641-1.516 2.744-2.721 6.109-3.232 9.794-.542 3.907-.2 8.137.773 11.676 1.851 6.735 5.641 11.825 10.421 15.584 4.726 3.445 11.414 6.574 20.023 5.838 1.314-.112 2.567-.332 3.764-.579 1.184-.244 2.253-.722 3.329-.868.273.976.118 2.17.145 3.281.028 1.154-.014 2.312-.097 3.329-.525.406-2.142.655-2.942.82-2.958.612-6.586.881-9.746.482-2.177-.274-4.201-.592-6.08-1.061-1.875-.469-3.572-1.178-5.211-1.882-6.521-2.801-11.805-7.586-15.391-13.124-1.865-2.88-3.343-6.157-4.439-9.842-1.088-3.657-1.679-8.292-1.206-12.834.894-8.597 4.086-14.724 8.492-20.023 5.868-6.562 13.915-11.99 25.668-12.545 2.017-.095 4.047.002 5.838.29 1.781.287 3.532.425 5.017 1.061z"/><path d="m45.228 15.137c.049 2.351.143 5.159-.049 7.43-.609-.179-1.075-.575-1.592-.869-1.508-.856-3.317-1.649-5.452-1.93-3.061-.403-6.209.1-8.443 1.062-4.378 1.884-8.033 5.403-9.409 10.18-.808 2.805-.952 6.024-.241 8.733 1.338 5.097 4.54 8.542 8.926 10.663 2.232 1.08 4.927 1.761 8.202 1.496 2.386-.193 4.489-1.081 6.176-2.026.554-.311 1.078-.784 1.737-.869.347.438.192 1.171.192 1.785 0 1.824.069 3.998-.097 5.693-2.135 1.05-4.658 1.794-7.478 2.075-2.949.293-5.902-.064-8.443-.82-4.825-1.436-8.524-4.269-11.29-7.768-2.762-3.494-5.018-7.979-5.018-14.04 0-6.152 2.066-10.51 4.873-14.185 3.617-4.512 8.986-8.234 16.645-8.733 4.058-.264 7.965.646 10.761 2.123z"/><path d="m45.18 26.186c.16 6.106.161 12.901 0 19.058-1.896.051-3.88.302-5.597.145-.359-.033-.675-.239-1.013-.241-.622-.004-1.327.377-2.026.434-2.967.241-5.571-.964-7.237-2.46-1.709-1.536-3.024-3.557-3.232-6.417-.278-3.818 1.217-6.543 3.329-8.395 1.806-1.584 4.867-2.725 8.25-2.074.3.058.676.198.917.192.351-.007.701-.297 1.062-.337.881-.099 1.821.03 2.798 0 .901-.029 1.835-.061 2.749.095zm-12.352 10.711c.611 1.556 2.743 2.517 4.294 1.544.475-.298 1.167-1.143 1.351-1.688.744-2.215-1.104-4.196-3.329-3.86-1.735.261-3.014 2.226-2.316 4.004z"/></g></svg>