<svg enable-background="new 0 0 78.797 61.061" viewBox="0 0 78.797 61.061" xmlns="http://www.w3.org/2000/svg"><g clip-rule="evenodd" fill-rule="evenodd"><path d="m78.797 52.346c-.66.919-1.551 1.644-2.4 2.307-4.313 3.36-9.97 5.864-17.182 6.354-2.812.191-5.747-.143-8.378-.8-4.82-1.204-9.156-3.17-12.662-6.12-1.574-1.324-3.384-3.074-4.613-4.801-1.328-1.867-2.667-3.748-3.577-5.789-1.973-4.423-3.274-9.751-2.777-15.722.686-8.236 4.435-14.649 8.991-19.205 1.547-1.547 3.391-2.762 5.319-4.048 5.097-3.398 13.408-5.625 21.559-3.954 5.938 1.218 10.349 3.712 14.357 6.967.363.295.927.655.941.988.022.528-1.458 1.741-1.789 2.071-1.73 1.731-3.062 3.063-4.801 4.801-.298.297-.682.84-1.036.847-.44.009-1.031-.707-1.364-.988-1.305-1.102-2.74-1.918-4.331-2.636-2.065-.931-4.828-1.547-7.72-1.6-1.787-.033-3.777.351-5.272.8-4.611 1.385-8.097 3.999-10.544 7.578-1.638 2.396-2.825 5.267-3.295 8.802-.488 3.675.234 7.428 1.506 10.262 1.2 2.674 3.082 5.078 5.272 6.825 2.304 1.838 4.752 3.292 7.908 4.143 3.368.907 7.607.709 10.543-.33 1.442-.511 2.968-1.027 4.237-1.788.514-.31 1.182-.773 1.788-1.224.329-.245 1.175-1.297 1.694-1.318.591-.024 1.671 1.435 2.024 1.788 1.334 1.334 2.523 2.523 3.812 3.813.615.615 1.422 1.098 1.79 1.977z"/><path d="m21.182.991c.032.629-.507 1.039-.848 1.459-1.024 1.267-1.962 2.749-2.871 4.189-3.603 5.714-6.166 12.796-6.684 21.606-.363 6.183.726 11.691 2.259 16.428 1.53 4.723 3.991 8.785 6.402 12.427.293.539.761.902 1.036 1.459.312.458.981.805.988 1.412-4.001.188-8.535.095-12.615.047-.981-.613-1.367-1.83-1.977-2.824-1.795-2.925-3.098-6.49-4.284-10.073-1.579-4.774-2.588-10.332-2.588-16.522 0-9.448 2.057-16.971 5.084-23.63.699-1.539 1.463-3.276 2.447-4.754.318-.477.73-1.201 1.036-1.318.696-.267 2.66-.047 3.53-.047 2.92 0 5.039-.117 7.814 0 .427.018.915-.121 1.271.141z"/><path d="m43.682.991c-.512.643-1.388.676-2.024 1.036-7.101 4.011-12.568 9.531-15.534 17.84-.516 1.444-.998 3.101-1.271 4.801-.282 1.758-.565 3.626-.565 5.507 0 7.832 2.44 13.768 5.743 18.546 1.682 2.433 3.562 4.545 5.743 6.402 1.642 1.398 3.384 2.716 5.413 3.719.629.311 1.405.525 1.883 1.129-2.887.266-5.971.114-8.944.142-3.009.027-6.05-.096-8.99-.047-3.636-3.372-6.416-8.071-8.473-13.18-1.035-2.57-1.907-5.294-2.495-8.332-.592-3.06-.753-6.432-.706-9.932.039-2.858.627-5.792 1.224-8.379.59-2.556 1.434-4.93 2.448-7.107 1.017-2.186 1.975-4.383 3.295-6.308.643-.938 1.319-1.874 2.024-2.777.686-.878 1.403-1.857 2.165-2.589.28-.269.642-.558.989-.612 1.333-.209 3.133 0 4.565 0h11.392c.698 0 1.451-.109 2.118.141z"/><path d="m67.077 19.161c2.399 2.113 3.898 4.788 4.66 8.332.839 3.907-.129 7.883-1.836 10.497-1.685 2.58-3.861 4.787-6.92 6.072-3.114 1.308-7.632 1.262-10.826-.047-2.957-1.212-5.277-3.408-7.107-5.884-1.879-2.541-2.756-6.307-2.26-10.45.217-1.807.875-3.477 1.601-4.896.712-1.391 1.698-2.587 2.824-3.671 2.168-2.088 5.129-3.816 9.085-4.048 2.473-.145 4.577.427 6.307 1.13 1.751.71 3.252 1.769 4.472 2.965z"/></g></svg>