<svg enable-background="new 0 0 76.706 49.484" viewBox="0 0 76.706 49.484" xmlns="http://www.w3.org/2000/svg"><g clip-rule="evenodd" fill-rule="evenodd"><path d="m37.004 49.343c-.269-.968-.15-2.002-.15-2.999-.001-15.267-.26-30.527-.05-46.087 1.286-.341 3.121-.035 4.499-.2 1.273-.153 2.59.05 3.849.05h3.898c2.595 0 5.354-.197 7.548.25 4.245.864 7.829 2.722 10.547 5.048 2.753 2.356 5.221 5.019 6.948 8.647 1.665 3.497 3.021 7.897 2.5 12.847-.762 7.206-3.599 11.895-7.549 15.845-1.277 1.277-2.812 2.246-4.448 3.349-2.989 2.016-7.4 3.349-12.247 3.349-4.921.001-10.134.003-15.345-.099z"/><path d="m33.355.257c.229 16.075.263 32.714.2 49.036-1.001.274-2.054.16-3.049.149-3.239-.034-6.68.227-9.548-.25-3.729-.619-6.817-1.968-9.547-3.648-5.186-3.192-9.338-8.661-10.847-15.546-1.78-8.119.89-15.934 4.648-20.644 3.018-3.781 6.59-6.495 11.646-8.148 1.66-.542 3.588-.948 5.648-1.1 1.812-.133 3.678-.019 5.498 0 1.8.02 3.6.007 5.351.151z"/></g></svg>