<svg enable-background="new 0 0 75.073 77.555" viewBox="0 0 75.073 77.555" xmlns="http://www.w3.org/2000/svg"><g clip-rule="evenodd" fill-rule="evenodd"><path d="m53.517.24c-.598.411-1.31.571-1.951.9-2.955 1.518-5.199 4.55-4.901 9.002.245 3.664 2.827 6.453 5.652 7.602.379.154.893.196 1.149.6-5.563.178-12.008-.066-17.905.05-3.126.062-6.21.09-9.052 0-4.028-.127-6.652-2.499-7.953-5.501-.463-1.07-.758-2.288-.75-3.701.016-2.828 1.128-4.651 2.451-6.452 1.622-1.484 3.549-2.514 6.451-2.651 4.311-.204 8.939 0 13.504 0 4.543.002 9.075.001 13.305.151z"/><path d="m.15 37.801c1.791-.86 3.578-1.724 4.701-3.251 1.152-1.394 2.128-3.436 2.051-5.902-.077-2.469-1.068-4.341-2.15-5.752-.949-1.005-2.013-1.945-3.401-2.551-.429-.187-.979-.241-1.3-.65 7.454-.08 15.603-.122 23.557-.05 1.984.018 4.154-.033 5.651.4 1.925.556 3.357 1.712 4.501 3.101 1.176 1.426 1.947 3.301 2.001 5.552.107 4.466-2.596 7.637-6.302 8.853-1.954.641-4.483.524-7.102.4-2.342-.111-4.962 0-7.352 0-5.247 0-9.748.06-14.855-.15z"/><path d="m39.362 37.902c.446-.479 1.01-.45 1.55-.7 3.086-1.431 5.565-4.724 5.252-9.102-.166-2.318-1.174-3.856-2.351-5.352-.981-1.219-2.437-1.976-4.102-2.651-.108-.044-.589-.12-.399-.35 7.298-.118 15.353-.001 22.706 0 1.989 0 3.834-.121 5.402.15 1.562.27 2.812.938 3.9 1.751 2.096 1.565 3.793 3.978 3.751 7.502-.042 3.584-1.845 5.819-4.001 7.302-1.176.808-2.482 1.368-4.101 1.55-1.596.18-3.481.05-5.452.05-7.538-.001-14.841.013-22.155-.15z"/><path d="m.15 57.607c.81-.536 1.697-.767 2.451-1.25 2.161-1.388 3.925-3.562 4.301-6.802.513-4.415-2.237-7.935-5.352-9.353-.516-.235-1.16-.251-1.55-.7 3.955-.202 8.577-.05 12.754-.05 3.737 0 7.561-.111 11.004.05 1.95.091 3.722-.122 5.251.3 1.411.388 2.592 1.053 3.601 1.9 1.903 1.599 3.498 4.321 3.15 7.802-.33 3.304-1.979 5.425-4.201 6.852-1.192.766-2.522 1.257-4.151 1.4-1.611.141-3.425.03-5.401 0-7.285-.109-14.751.153-21.857-.149z"/><path d="m37.211 41.753c.043-.009.048.019.051.05.04.01.05.051.1.05.891 2.938 2.845 5.122 5.752 6.202 3.278 1.217 7.048.377 9.053-1.55.658-.615 1.333-1.262 1.851-2.1.499-.811.742-1.889 1.25-2.601.24 7.696.15 15.312.15 23.157 0 2.813.117 5.218-.7 7.102-1.496 3.443-5.123 6.153-9.953 5.352-2.199-.365-3.804-1.333-5.102-2.701-1.192-1.257-2.297-3.031-2.501-5.251-.1-1.09-.067-2.309-.05-3.451.103-6.414 0-13.754 0-20.656 0-1.175-.041-2.409.05-3.451-.015-.083.047-.088.049-.152z"/></g></svg>