<svg enable-background="new 0 0 61.5 68.079" viewBox="0 0 61.5 68.079" xmlns="http://www.w3.org/2000/svg"><g clip-rule="evenodd" fill-rule="evenodd"><path d="m27.864 68.018c-.176-2.558-.121-5.567-.048-8.098 1.406-.384 2.799-.319 4.097-.571 3.816-.742 6.962-2.228 9.812-4.049 3.698-2.364 6.718-5.774 8.621-9.86 1.944-4.172 3.272-9.747 2.334-15.527-.728-4.484-2.604-8.258-4.905-11.289-.324-.426-.583-1.019-1.144-1.144-.286.788-.107 1.593-.143 2.334-.254 5.327-2.41 9.257-5.096 12.241-2.274 2.527-5.36 4.562-9.24 5.621-1.312.357-2.747.584-4.239.524-.317-1.161-.191-2.656-.191-4.096-.001-1.458-.075-2.939.095-4.191 2.082-.426 4.106-.911 5.573-1.953 2.115-1.497 3.736-3.811 4.382-6.906.72-3.451-.56-6.53-2.096-8.669-.74-.859-1.608-1.619-2.62-2.239-.973-.596-2.082-1.181-3.334-1.477-.58-.137-1.336-.033-1.905-.333-.171-1.738-.095-4.098-.095-6.24 0-.584-.096-1.783.143-2 .034-.045.086-.073.142-.096 10.733.398 18.017 4.593 23.721 10.145.692.674 1.305 1.514 1.953 2.286 3.191 3.805 5.681 8.398 6.954 14.194.517 2.352.929 4.984.858 7.573-.299 10.763-4.313 18.315-9.907 23.911-2.832 2.833-6.2 5.051-10.051 6.858-3.838 1.804-8.367 3.168-13.671 3.051z"/><path d="m18.719 29.96c.256 1.167.108 2.618.144 4.049.034 1.437.05 2.93-.096 4.239-.568.223-1.137.18-1.667.286-2.603.516-4.624 1.823-6.097 3.62-1.418 1.729-2.696 4.27-2.62 7.097.077 2.867 1.191 5.295 2.715 7.002 1.496 1.675 3.613 2.969 6.24 3.43.491.085 1.051.006 1.429.286.172 1.262.096 2.767.096 4.191 0 1.413.163 2.829-.144 3.906-2.196.099-4.151-.333-5.858-1-.582-.228-1.209-.376-1.715-.619-2.104-1.01-3.873-2.342-5.478-3.858-3.101-2.934-5.667-7.477-5.668-13.053-.001-6.071 2.177-10.312 5.191-13.527 2.672-2.848 5.973-4.973 10.526-5.859.897-.174 2.05-.341 3.002-.19z"/></g></svg>