<svg enable-background="new 0 0 77.35 63.593" viewBox="0 0 77.35 63.593" xmlns="http://www.w3.org/2000/svg"><path clip-rule="evenodd" d="m42.314 0c.73-.022 1.19 1.354 1.521 1.963.211.387.445.732.638 1.08.215.389.309.79.491 1.178.354.753.89 1.399 1.275 2.11.202.373.397.719.638 1.08.216.323.514.757.393 1.178-.148.524-1.174.161-1.668.343-.637.234-.853 1.878-1.08 2.601-.9 2.863-1.581 5.798-2.404 8.587-.953 3.23-1.84 6.569-2.895 9.961-.146.469-.402 1.218-.295 1.423.248.472 1.883.276 2.65.246 2.829-.113 6.414-.224 8.439.491 2.629.927 4.938 3.509 4.661 7.213-.225 3.021-1.665 4.726-3.68 5.888-1.096.632-2.188.94-3.681 1.128-.735.093-1.512.076-2.306.098-.674.019-1.436-.058-2.11.246.028.463.452.818.785 1.128.958.893 2.169 1.689 3.681 2.012 2.107.451 4.578.273 6.378-.638.807-.408 1.328-1.052 2.013-1.472 1.823-1.901 2.921-4.321 2.748-8.096-.075-1.623-.326-3.295-.59-4.907-.269-1.647-.473-3.465-.245-5.103.36-2.587 1.759-4.325 3.582-5.496 1.926-1.236 4.522-1.287 7.508-1.521.473-.465-.113-1.686.294-2.208.472-.092.791.321 1.129.539 1.667 1.078 3.569 1.901 5.299 2.993.646.408 1.474.712 1.865 1.423-.229.821-1.12 1.214-1.815 1.668-1.382.903-2.564 1.904-4.023 2.944-.283.201-.647.436-1.031.736-.264.207-.731.71-1.079.638-.65-.133-.22-1.424-.491-1.864-.913-.457-2.205-.03-2.846.344-.374.218-.904.679-1.178 1.079-.752 1.103-.716 3.102-.442 4.809.253 1.567.472 3.339.54 5.054.295 7.351-3.062 11.784-7.949 14.426-2.643 1.429-5.65 2.016-9.274 1.815-1.423-.079-2.831-.489-4.122-.834-3.851-1.031-6.569-3.395-8.587-6.281-.304-.435-.267-.809-.834-1.227-.476.266-.596.918-.785 1.423-.196.522-.318 1.127-.491 1.668-.353 1.103-.799 2.231-.883 3.337.506.524 2.23-.169 2.601.491.074.531-.437.829-.736 1.128-.945.946-1.863 1.974-2.797 2.993-.608.665-1.34 1.25-1.963 1.914-.618.66-1.119 1.485-1.963 1.865-.667-.2-.704-1.029-1.128-1.472-.651-1.204-1.441-2.446-2.159-3.631-.259-.427-.365-.867-.589-1.325-.284-.581-.944-1.1-.834-1.816.314-.45 1.579.017 2.159-.196.6-.221.898-1.886 1.178-2.748.952-2.945 1.958-6.024 2.846-8.931.907-2.971 1.848-5.925 2.748-9.028.13-.449.226-1.042.393-1.57.172-.546.421-1.193.392-1.57-.029-.397-.5-.987-.784-1.521-.793-1.488-1.847-2.874-2.65-4.269-.567-.984-1.092-2.009-1.668-2.944-.58-.941-1.103-1.946-1.914-2.65-.541.564-.7 1.348-.981 2.012-.809 1.914-1.343 3.725-2.502 5.349-.664.93-1.522 1.763-2.404 2.404-1.829 1.33-4.136 2.444-6.968 2.65-.385.028-.879.032-1.325 0-4.813-.345-8.148-3.161-9.814-6.674-.917-1.934-1.497-4.438-1.03-6.918.432-2.292 1.3-4.054 2.797-5.447 1.316-1.29 3.009-2.658 5.152-3.091.756-.153 1.564-.07 2.404-.344.463-.55-.007-2.034.441-2.601.908.157 1.442.888 2.06 1.374 1.222.959 2.562 1.955 3.828 2.993.43.353 1.75 1.054 1.767 1.619.018.653-1.243 1.236-1.718 1.57-1.622 1.143-3.027 2.447-4.563 3.68-.281.226-.569.663-1.03.491-.508-.311-.057-1.58-.441-2.012-3.039-.36-4.255 3.047-3.092 5.594.736 1.613 2.919 2.671 5.25 2.061 3.439-.9 4.452-4.168 5.741-7.311.591-1.438 1.264-2.999 1.864-4.662.276-.763.567-1.359.933-2.306.256-.664.605-1.97 1.03-2.208.933-.521 2.766.197 3.729 0 .979.787 1.484 2.021 2.11 3.091.625 1.07 1.375 2.07 2.012 3.141.642 1.079 1.309 2.171 1.963 3.238.649 1.059 1.154 2.245 2.109 3.042.41-.302.501-.869.638-1.325.456-1.516.872-3.018 1.325-4.514.602-1.988 1.333-3.96 1.815-5.986-.297-.668-1.823-.107-2.257-.638.102-.884.872-1.465 1.374-2.11.53-.683 1.071-1.335 1.569-2.012 1.165-1.308 2.043-2.897 3.338-4.073zm-3.385 40.874c.792.003 1.613.001 2.453 0 1.8 0 3.704.187 5.104 0 .815-.109 1.725-.848 1.668-1.717-.073-1.138-1.331-1.03-2.698-1.03-2.7 0-6.1-.106-8.097.147-.455.611-.746 1.637-.834 2.454.675.263 1.532.143 2.404.146z" fill-rule="evenodd"/></svg>