<svg enable-background="new 0 0 156.209 190.676" viewBox="0 0 156.209 190.676" xmlns="http://www.w3.org/2000/svg"><g clip-rule="evenodd" fill-rule="evenodd"><path d="m103.918 7.683c5.607 4.698 10.508 10.101 15.66 15.253 5.144 5.143 10.133 10.443 15.355 15.508 3.727 3.994 7.731 7.709 11.529 11.631.662.548 1.304 1.247 1.939 1.939.836.911 1.707 1.769 1.581 3.622-.666 2.002-2.261 3.41-3.622 4.897-1.35 1.475-2.882 2.831-4.285 4.234-5.657 5.657-10.897 11.615-16.887 17.141-1.399 1.291-2.765 2.918-4.183 4.336-1.121 1.122-2.866 3.395-4.591 3.877-2.558.715-3.975-1.768-5.254-2.755-3.967-4.23-8.104-8.289-12.244-12.346-4.131-4.048-8.026-8.333-12.346-12.192-1.66-1.407-3.539-3.537-6.274-2.755-1.056.302-1.989 1.072-2.806 1.786-.846.74-1.609 1.57-2.296 2.295-1.478 1.562-2.995 3.151-4.489 4.745-1.502 1.601-3.18 3.037-4.592 4.591-2.91 3.205-6.18 6.109-9.182 9.233-.755.786-1.432 1.635-2.193 2.398-2.264 2.263-4.699 4.504-6.836 6.938-1.02 1.274-2.143 2.166-2.143 4.03-.002 1.691 1.035 3.014 1.988 4.133 1.858 2.182 4.133 4.284 6.071 6.224 2.037 2.037 4.181 4.028 6.224 6.07 2.065 2.064 4.031 4.201 6.121 6.121 2.59 2.514 5.134 5.082 7.704 7.652.858.859 1.603 1.807 2.448 2.653.762.761 1.632 1.767 2.602 2.551.955.771 2.051 1.523 3.521 1.581 2.899.115 4.675-2.452 6.173-4.03 3.297-3.472 6.565-6.719 10.152-10.305 2.491-2.492 4.888-5.21 7.6-7.703.771-.708 2.062-2.052 3.367-1.53 1.756.7 1.48 3.665 1.48 6.224-.001 7.215.051 14.771.051 22.242v26.936c0 3.125.213 6.385-.256 8.825-.465 2.426-2.025 4.22-3.418 5.612-2.976 2.977-6.304 5.815-10.355 7.805-4.137 2.031-8.606 3.52-14.59 3.521-1.562 0-3.016.026-4.387-.052-4.088-.233-7.703-1.27-10.969-2.602-4.194-1.708-7.719-4.157-11.02-7.091-2.967-2.474-5.594-5.289-8.314-8.009-1.361-1.36-2.736-2.707-4.03-4.133-1.298-1.429-2.743-2.691-4.132-4.03-2.766-2.664-5.432-5.432-8.163-8.162-2.704-2.704-5.497-5.345-8.214-8.061-2.728-2.729-5.543-5.387-8.111-8.213-2.599-2.862-5.647-5.232-8.315-7.958-2.58-2.637-5.377-5.744-6.377-9.948-.508-2.134-.461-4.822-.561-7.499-.102-2.701-.039-5.286.051-7.855.046-1.337-.051-2.702-.051-4.03 0-9.084 0-18.771 0-27.752 0-3.064-.001-5.405.714-7.448 1.352-3.87 4.671-6.248 7.243-9.081 1.262-1.389 2.768-2.607 4.082-4.03 2.605-2.824 5.441-5.413 8.061-8.264 1.293-1.408 2.737-2.687 4.08-4.081 6.635-6.887 13.374-13.635 20.15-20.559 4.809-4.858 9.426-9.899 14.693-14.284 3.959-3.295 8.961-5.635 14.845-6.887 2.034-.433 4.165-.498 6.632-.612 4.91-.228 9.754.86 13.417 2.143 3.93 1.375 7.241 3.194 9.952 5.51z"/><path d="m153.605 63.339c2.772-.276 2.602 3.143 2.602 6.019.001 10.684-.064 21.473-.102 31.884-.008 1.933.102 4.137.102 6.326v16.834c0 5.736-2.736 8.604-5.611 11.479-7.068 7.07-13.986 14.344-21.12 21.477-2.017 2.017-4.219 4.324-6.479 6.325-.887.786-1.852 1.779-3.01 1.531-.885-.191-1.411-1.015-1.581-1.99-.388-2.223-.103-4.876-.103-7.346.002-17.027-.002-34.631 0-51.627.002-4.758 1.997-7.659 4.592-10.254 7.511-7.509 14.523-14.863 21.885-22.497 2.064-2.032 4.139-4.23 6.275-6.428.662-.68 1.606-1.548 2.55-1.733z"/></g></svg>