<svg enable-background="new 0 0 18.765 12.363" viewBox="0 0 18.765 12.363" xmlns="http://www.w3.org/2000/svg"><path d="m3.207.753c.908-.491 1.939-.757 2.972-.753-.001 3.388.006 6.776-.008 10.164.012.731.009 1.462.007 2.194-.825-.052-1.657-.188-2.42-.52-1.314-.549-2.419-1.576-3.071-2.842-.889-1.682-.914-3.786-.08-5.495.552-1.156 1.471-2.138 2.6-2.748z"/><path d="m8.786 1.25c1.049-.771 2.349-1.196 3.65-1.198.019 1.004.003 2.01.008 3.014.009 2.162.005 4.324.021 6.485.018.934.014 1.869.023 2.803-.447.03-.894-.03-1.331-.122-1.321-.265-2.534-.998-3.412-2.016-.916-1.066-1.453-2.456-1.478-3.863-.032-1.35.4-2.707 1.207-3.789.367-.501.816-.942 1.312-1.314zm-.103 3.011c-.192-.113-.371-.254-.58-.336.198.786.388 1.574.581 2.362-.118-.1-.188-.241-.277-.365-.188-.289-.39-.569-.562-.867-.086.139-.182.271-.274.407-.263-.045-.523-.115-.789-.13.107.275.213.551.318.827-.135.076-.268.156-.405.23.411.333.83.655 1.243.986-.056.162-.106.327-.18.483.529-.075 1.048-.205 1.574-.292.005.469 0 .939-.001 1.409.1-.018.202-.018.304-.008-.022-.468-.02-.937-.034-1.405.533.107 1.067.21 1.6.318-.05-.18-.128-.351-.182-.53.414-.336.845-.651 1.262-.983-.166-.091-.338-.171-.493-.281.107-.235.201-.475.294-.716-.231.038-.459.095-.687.151-.093-.144-.184-.289-.274-.434-.295.396-.593.791-.872 1.198.006-.131.056-.253.083-.379.17-.692.355-1.381.502-2.078-.215.125-.419.265-.632.391-.254-.247-.472-.528-.729-.771-.267.268-.512.556-.79.813z"/><path d="m15.145 1.214c1.026-.744 2.29-1.137 3.554-1.157-.003 2.347.009 4.694.012 7.041-.002 1.139.042 2.278.039 3.417.009.613-.01 1.226.014 1.839-.604.032-1.203-.083-1.784-.24-.78-.238-1.521-.616-2.152-1.135-1.058-.859-1.825-2.08-2.112-3.414-.156-.636-.173-1.297-.121-1.947.175-1.739 1.114-3.398 2.55-4.404z"/></svg>