<svg enable-background="new 0 0 50.128 66.198" viewBox="0 0 50.128 66.198" xmlns="http://www.w3.org/2000/svg"><path clip-rule="evenodd" d="m16.485 56.429c.727-.301 1.504-.127 2.251-.188 5.277-.428 9.305-2.402 12.524-4.973.861-.824 1.738-1.598 2.58-2.44.832-.832 1.466-1.851 2.158-2.814.688-.959 1.292-2.039 1.829-3.189.524-1.121 1.162-2.359 1.126-3.752-.372-.324-.955-.193-1.501-.188-1.639.016-3.674-.053-5.254.047-.57.355-.829 1.019-1.172 1.547-2.473 3.803-5.924 6.75-11.165 7.881-3.294.711-6.845.215-9.428-.797-2.655-1.041-4.748-2.508-6.379-4.457-2.661-3.246-4.951-8.043-3.706-13.744.527-2.412 1.511-4.441 2.814-6.238 1.291-1.779 2.8-3.426 4.597-4.457 2.001-1.146 4.069-1.971 7.083-1.969 5.743 0 10.155 2.109 12.994 5.111 1.005 1.064 2.079 2.443 2.814 3.988.228.477.516 1.248.844 1.406.436.211 1.303.074 1.923.047 1.331-.059 2.463.02 3.752 0 .58-.008 1.259.158 1.689-.234.114-.693-.089-1.435-.281-2.064-1.342-4.369-3.947-7.84-7.083-10.459-2.721-2.242-6.045-3.949-10.46-4.598-.747-.109-1.514-.127-2.298-.188-.754-.057-1.537.053-2.298-.188-.251-1.369-.141-3.086-.141-4.738-.001-.811 0-1.645 0-2.439-.001-.766-.114-1.576.234-2.158 1.608-.252 3.418-.141 5.253-.141 8.569 0 16.599.002 25.424 0 .666 0 2.329-.182 2.674.189.334.357.193 2.889.188 3.893-.051 9.482.001 19.627 0 29.129 0 9.957.047 20.059.047 30.773 0 .723.065 1.689-.141 1.922-.203.229-1.277.188-1.97.188-3.442.002-7.095 0-10.601 0-5.931.002-12.72.092-18.951.047-.658-.004-1.676-.029-1.877-.234-.329-.334-.153-1.562-.188-2.299-.041-.867-.047-1.723-.047-2.438.002-1.794-.113-3.208.143-4.784z" fill-rule="evenodd"/></svg>