<svg enable-background="new 0 0 66.471 73.417" viewBox="0 0 66.471 73.417" xmlns="http://www.w3.org/2000/svg"><path clip-rule="evenodd" d="m39.245.059c.269.918.149 1.91.149 2.884 0 6.907-.083 14.323.1 21.132.599.265 1.229.124 1.84.199 4.168.515 7.868 1.29 11.088 2.835 3.518 1.688 6.718 3.962 9 6.912 1.729 2.234 3.228 4.842 4.127 7.856.297.994.377 2.176.597 3.381.828 4.549.007 9.701-1.69 13.524-1.638 3.688-3.843 6.766-6.961 9-3.108 2.227-6.52 3.94-11.039 4.873-4.518.933-9.849 1.019-14.52.199-4.507-.791-8.404-2.188-11.884-4.027-6.946-3.673-12.091-9.03-15.961-15.912-.902-1.604-1.659-3.615-2.288-5.668-.633-2.068-1.264-4.201-1.541-6.415-.595-4.747-.155-9.964 1.094-14.221 2.391-8.148 6.927-14.271 12.977-18.894 3.072-2.348 6.474-4.24 10.343-5.569 2.01-.69 4.073-1.257 6.315-1.641 2.447-.419 5.5-.614 8.254-.448zm-8.204 25.707c-2.912.922-5.238 2.281-7.409 3.978-1.073.839-2.066 1.777-2.934 2.785-2.535 2.946-4.814 6.819-5.52 11.585-.247 1.674-.464 3.516-.348 5.37.19 3.064.892 5.731 1.84 8.056 1.584 3.886 3.978 6.962 6.861 9.398 1.971 1.664 4.137 3.125 6.713 4.127 2.586 1.006 5.579 1.766 9.05 1.641.08-5.056.204-10.769 0-15.713-4.984-.26-8.82-1.56-11.437-4.176-3.008-3.008-5.317-6.835-5.42-12.381-.071-3.855 1.45-6.968 3.232-9.448 2.205-3.069 5.677-4.846 9.795-6.017.048-.013.822-.087.397-.298-1.757.244-3.324.619-4.82 1.093zm21.431 24.614c1.405-1.93 2.57-4.536 2.734-7.508.321-5.804-1.39-9.838-4.127-12.829-2.623-2.866-6.686-5.23-12.132-4.972-4.375.207-7.125 2.296-8.802 5.32-1.949 4.074.24 8.315 3.083 10.144.934.6 2.258 1.037 3.58 1.193.781.093 1.622.062 2.437.299.335 4.662-.015 10.122.198 14.867 6.227-.247 10.258-2.71 13.029-6.514z" fill-rule="evenodd"/></svg>