<svg enable-background="new 0 0 73.125 67.682" viewBox="0 0 73.125 67.682" xmlns="http://www.w3.org/2000/svg"><path clip-rule="evenodd" d="m40.961 4.599c.03.25-.424.428-.724.619-2.171 1.394-3.701 3.19-5.062 5.477-1.498 2.517-3.025 5.113-4.907 7.18-1.513 1.152-2.698 2.822-5.217 2.84-2.603.019-4.228-2.139-3.978-4.906.166-1.826 1.213-3.623 2.583-5.113 1.468-1.6 3.395-3.17 5.785-2.428 2.079.645 2.902 3.606 1.808 6.146.423-.019.593-.557.774-.93.908-1.867 1.423-4.85.207-6.767-.668-1.055-1.919-1.945-3.358-2.064-3.258-.272-5.521 1.93-7.438 3.357-2.555 2.623-5.221 5.732-6.146 10.02-1.154 5.334 1.625 9.109 6.921 8.73 1.847-.133 3.473-1.094 4.855-2.066 2.775-1.955 4.548-4.586 6.611-7.232.488-.625 1.094-1.197 1.653-1.807.542-.594 1.263-1.154 1.652-1.758.236-.365.373-.818.568-1.188 2.897-5.471 7.494-9.695 14.152-11.517 4.066-1.113 8.488-.258 11.312 1.395 2.719 1.59 5.61 4.172 10.072 2.685.159.143-.254.301-.413.412-1.395.976-2.755 1.924-3.822 3.359-2.298 3.088-3.857 6.973-6.663 9.658-1.21 1.156-3.501 3.301-5.992 2.531-1.081-.334-2.032-1.258-2.428-2.117-1.084-2.361.079-5.139 1.395-6.82 1.432-1.826 2.637-3.598 5.475-3.562 3.033.035 3.867 3.428 2.789 6.301.384-.014.561-.498.724-.826.954-1.918 1.507-4.857.206-6.869-.371-.574-1.064-1.223-1.652-1.551-2.003-1.119-4.843-.115-6.194.723-1.383.855-2.689 2.043-3.874 3.254-1.121 1.144-2.148 2.562-3.048 4.08-1.621 2.736-3.358 7.695-1.188 10.951.959 1.44 2.586 2.658 5.113 2.686 2.17.021 3.617-.889 5.01-1.756 1.436-.896 2.505-1.84 3.668-3.1 1.655-1.719 2.921-3.793 4.545-5.578.522-.574 1.056-1.215 1.757-1.602-1.014 1.65-2.089 3.277-3.048 5.01-.954 1.725-1.859 3.475-2.893 5.166-2.033 3.326-4.579 6.256-8.161 7.902-.962.442-1.883.809-3.047.98-3.919.58-7.553-.33-9.97-1.756-3.694-2.178-6.312-6.338-5.889-12.654.112-1.666.54-3.055.827-4.648-.418-.022-.59.459-.775.723-3.197 4.561-5.223 10.6-9.452 14.152-.739.654-1.547 1.236-2.428 1.756-.892.527-1.872.873-2.738 1.447 6.124-.965 11.058.787 13.896 4.08 1.34 1.557 2.425 3.85 2.789 6.457.381 2.723-.015 5.685-.672 8.264.421-.107.707-.557.93-.877 1.773-2.551 3.268-5.617 4.855-8.367 1.835-3.18 4.267-5.82 7.542-7.594 1.745-.945 3.503-1.601 5.991-1.601 2.416 0 4.533.436 6.353 1.188 3.369 1.395 6.003 4.43 6.922 8.213 1.291 5.326-.457 10.379-2.479 13.74-2.162 3.592-5.082 6.449-8.678 8.367-3.562 1.9-9.034 3.232-13.843 1.447-1.907-.709-3.662-1.998-5.527-2.996-.992-.531-1.987-.977-3.203-1.084-1.188-.105-2.312.164-3.667.465-.132-.197.276-.293.465-.414 1.455-.936 2.793-1.945 3.874-3.358 2.415-3.154 3.886-6.99 6.818-9.814 1.245-1.199 3.191-2.953 5.682-2.479 1.8.344 3.052 1.775 3.203 3.77.153 2.031-.739 3.881-1.859 5.269-1.161 1.438-2.306 2.67-3.926 3.203-4.011 1.314-5.76-2.418-4.442-6.045-.612.326-.891 1.242-1.188 2.066-.586 1.623-.77 3.436-.052 5.062.516 1.166 1.653 2.117 2.944 2.479 1.403.393 3.209-.057 4.442-.67 2.409-1.199 4.257-3.035 5.889-4.908 1.462-1.875 2.892-4.414 3.667-7.127.449-1.576.52-3.285.155-4.752-.344-1.385-1.254-2.397-2.066-3.307-1.623-1.303-4.636-1.381-6.767-.619-1.982.709-3.634 2.248-4.959 3.461-1.458 1.357-2.608 2.99-3.873 4.545-1.256 1.541-2.6 2.973-3.978 4.391-1.861 4.018-4.531 7.273-8.109 9.711-1.629 1.107-3.729 2.226-6.096 2.789-2.393.568-5.249.893-7.954.207-2.385-.605-4.371-1.959-6.405-3.203-1.97-1.204-4.473-2.117-7.592-1.083.658-.648 1.479-.99 2.169-1.551 3.336-2.709 4.906-7.352 7.8-10.691 1.13-1.305 2.429-2.672 4.029-3.358 2.423-1.037 4.749.225 5.526 2.066 1.275 3.014-.862 5.949-2.271 7.592-1.272 1.381-3.892 3.508-6.251 2.066-.87-.531-1.526-1.447-1.653-2.582-.135-1.211.294-2.201.414-3.307-.635.35-.925 1.271-1.189 2.066-.285.861-.567 1.826-.567 2.738 0 2.648 1.766 4.742 4.234 4.959 1.885.162 3.443-.623 4.752-1.447 3.677-2.314 6.606-5.898 8.162-10.33.564-1.611.91-3.506.568-5.32-.603-3.195-3.416-5.334-7.387-4.752-1.657.242-3.066.926-4.339 1.807-.435.301-.823.775-1.239 1.137-1.234 1.068-2.415 2.359-3.461 3.615-1.4 1.682-2.557 3.572-4.442 4.959.609-1.271 1.505-2.393 2.222-3.615.719-1.228 1.386-2.469 2.065-3.719 1.362-2.506 2.928-4.822 4.7-6.922 1.688-1.637 3.809-2.838 5.992-3.977-2.437.186-4.621.287-6.611-.207-6.204-1.538-10.411-6.155-9.917-14.307.48-7.941 5.457-12.752 10.279-16.426 2.774-1.496 5.976-2.842 9.917-2.893 3.716-.047 6.351 1.238 8.729 2.789 1.08.705 2.374 1.488 3.822 1.912 1.477.434 3.24.44 4.908-.103z" fill-rule="evenodd"/></svg>