<svg enable-background="new 0 0 14.869 10.503" viewBox="0 0 14.869 10.503" xmlns="http://www.w3.org/2000/svg"><path d="m2.492.806c.782-.488 1.693-.764 2.613-.803 1.082-.003 2.164.003 3.246-.003.636.626 1.271 1.254 1.902 1.887-1.667-.002-3.335 0-5.002-.001-.937.004-1.856.43-2.483 1.122-.453.51-.762 1.154-.845 1.833-.146 1.08.298 2.212 1.117 2.925.565.51 1.309.801 2.065.854 2.456 0 4.912-.001 7.368.001-.008.627 0 1.254-.004 1.881-2.382 0-4.765 0-7.147 0-1.207.016-2.409-.414-3.349-1.168-.241-.197-.481-.398-.673-.645-.87-.973-1.344-2.289-1.297-3.593.01-.637.163-1.266.401-1.854.423-1.002 1.162-1.867 2.088-2.436z"/><path d="m9.831.001c.879.003 1.758.001 2.637.001.116.125.24.243.364.36.233.23.455.471.702.686.446.441.892.881 1.335 1.324-.364.355-.723.715-1.083 1.074-.256.229-.493.479-.737.72-.201.18-.388.375-.572.572-.883.003-1.766-.003-2.648.003.785-.808 1.609-1.576 2.405-2.373-.802-.788-1.615-1.565-2.403-2.367z"/><path d="m3.986 3.259c.366-.238.795-.372 1.229-.403 1.679-.006 3.359.006 5.037-.006-.493.498-.987.995-1.49 1.482-.142.132-.264.287-.421.402-.935.01-1.871.002-2.806.004-.14.005-.289-.023-.419.043-.179.069-.286.248-.327.426-.035.301.221.609.53.606 2.384.002 4.769-.003 7.154.003-.004.625-.006 1.25.001 1.876-2.396.003-4.793 0-7.189.001-.991-.012-1.939-.682-2.262-1.622-.198-.574-.175-1.222.074-1.777.193-.418.498-.787.889-1.035z"/></svg>