<svg enable-background="new 0 0 75.115 75.189" viewBox="0 0 75.115 75.189" xmlns="http://www.w3.org/2000/svg"><path clip-rule="evenodd" d="m40.71.072c1.84-.068 5.222-.221 6.835.336 1.057.363 1.872 1.164 2.103 2.293.304 1.486.096 3.287.096 4.924 0 3.172.114 6.82.048 9.894-.034 1.57.146 3.344-.144 4.781-.234 1.16-.837 1.844-1.721 2.342-.988.555-2.094.559-3.441.572-2.48.025-5.573-.142-7.839.049-4.565.385-7.98 2.875-9.847 6.262-1.514 2.748-1.999 6.537-.86 9.846.957 2.781 2.997 5.125 5.497 6.598 1.704 1.002 3.647 1.734 6.31 1.721 2.749-.016 4.638-.812 6.262-1.816 3.33-2.062 5.494-5.289 5.832-10.324.159-2.371-.03-5.018 0-7.84.026-2.547.981-4.289 3.489-4.59 2.359-.281 5.343-.047 7.982-.047 2.403 0 5.095-.047 7.839-.049 1.238 0 2.762-.072 3.728.287 1.055.395 1.906 1.318 2.104 2.629.204 1.354.096 2.969.096 4.59 0 3.035-.001 6.334 0 9.561 0 1.689.108 3.32-.048 4.779-.227 2.119-1.688 3.086-4.016 3.154-3.887.115-8.723-.406-11.95.479-1.61.439-3.017 1.227-4.158 2.104-2.419 1.857-4.112 4.184-4.685 7.838-.278 1.775-.238 3.928-.287 5.975-.049 2.059.399 5.051-.383 6.644-.55 1.121-1.649 1.844-3.25 2.008-1.57.162-3.301.139-5.067.049-3.484-.178-6.794-.252-9.703-.766-5.82-1.027-10.689-3.287-14.914-6.023-4.043-2.617-7.792-6.348-10.468-10.467-1.687-2.598-3.29-5.5-4.35-8.748-.213-.654-.278-1.371-.478-2.104-.364-1.334-.754-2.824-.956-4.254-.945-6.672.023-13.271 1.864-18.307 1.844-5.045 4.804-9.354 8.125-12.811 3.46-3.598 7.645-6.39 12.478-8.462 2.477-1.062 5.122-1.902 8.03-2.438 2.99-.55 6.348-.538 9.847-.669z" fill-rule="evenodd"/></svg>