<svg enable-background="new 0 0 78.155 71.485" viewBox="0 0 78.155 71.485" xmlns="http://www.w3.org/2000/svg"><path clip-rule="evenodd" d="m3.496.098c3.923-.187 7.997-.048 11.759-.048 13.575-.002 26.829.144 40.379.145 2.02.001 3.496.326 4.665 1.166 2.15 1.545 3.935 3.837 5.879 5.783 3.198 3.198 6.77 6.971 10.01 10.398 1.013 1.072 2.271 2.385 1.555 4.373-.278.771-.911 1.434-1.458 1.992-3.064 3.13-5.41 5.749-8.503 8.844-.931.931-2.159 2.21-1.361 3.887.524 1.101 1.903 2.383 2.916 3.499.952 1.048 2.065 2.197 3.11 3.256 1.03 1.043 1.931 2.174 3.062 3.304 1.203 1.203 3.409 3.015 2.381 5.394-.467 1.08-1.964 2.529-2.818 3.401-3.069 3.137-6.143 6.434-9.184 9.476-.999.999-2.031 2.037-3.061 3.158-1.024 1.115-2.086 2.215-3.401 2.818-1.396.641-3.471.535-5.685.534-16.016-.001-32.697-.045-49.031-.048-2.227-.001-3.958-.029-4.519-1.652-.316-.915-.146-2.693-.146-4.13 0-20.026.048-39.286.048-59.476 0-2.443-.267-4.867 1.264-5.783.516-.308 1.469-.259 2.139-.291zm35.18 4.616c-.772-.894-1.511-1.909-2.381-2.527-.89-.632-2.326-1.15-3.547-.583-1.557.723-2.9 2.512-4.082 3.693-1.408 1.408-2.631 2.713-3.838 3.984-5.076 5.347-10.488 10.707-15.355 15.939-1.221 1.312-2.579 2.614-3.839 3.984-1.265 1.376-2.758 2.633-3.742 4.081-.156.23-.249.501-.34.729-.837 2.086.696 3.694 1.798 4.908 3.172 3.493 6.502 6.903 9.524 10.204 4.217 4.606 8.44 8.969 12.731 13.557 1.521 1.604 2.692 3.082 4.179 4.568 1.268 1.268 2.953 3.748 5.539 2.672 1.587-.66 2.827-2.632 3.984-3.79 2.272-2.272 4.188-4.431 6.414-6.657 2.53-2.529 5.183-5.228 7.678-7.92.803-.866 1.871-2.059 1.798-3.45-.065-1.244-1.068-2.125-1.798-2.916-.798-.865-1.573-1.66-2.186-2.332-1.522-1.209-2.757-3.566-4.713-4.374-2.019-.833-3.173.769-4.276 1.896-1.666 1.702-3.126 3.296-4.713 5.005-.725.78-1.657 1.921-2.721 2.138-2.038.416-3.034-1.413-4.179-2.478-2.14-2.31-4.304-4.571-6.462-6.949-.677-.745-1.644-1.635-1.652-2.867-.012-1.889 1.767-3.083 2.77-4.179 1.683-1.837 3.613-3.806 5.491-5.685.844-.843 1.993-2.337 3.256-2.381 1.357-.046 2.411 1.272 3.207 2.138.776.844 1.473 1.759 2.284 2.624.802.855 1.604 1.63 2.381 2.478.812.886 1.605 1.84 2.575 2.333 1.834.932 3.255-.475 4.228-1.555 1.468-1.632 3.079-3.37 4.519-4.811.742-.742 1.705-1.655 1.846-2.818.187-1.533-1.106-2.793-1.943-3.645-2.548-2.589-4.763-4.888-7.24-7.483-2.204-2.439-4.958-4.942-7.195-7.531z" fill-rule="evenodd"/></svg>