<svg enable-background="new 0 0 349.254 349.285" viewBox="0 0 349.254 349.285" xmlns="http://www.w3.org/2000/svg"><path d="m157.43 1.367c16.36-2.63 33.33-1.46 49.17 3.47 22.27 6.89 42.17 21.18 55.73 40.15 7.17 9.73 11.88 20.92 17.42 31.59 19.32 38.98 38.85 77.85 58.28 116.78 17.29 33.88 14.38 76.87-7.18 108.19-19.23 28.95-53.19 47.47-87.97 47.7-44.7.05-89.39 0-134.09.03-16.51.21-33.01-3.64-47.85-10.85-21.48-10.34-39.27-28.05-49.83-49.41-14.37-28.82-14.9-64.15-1.01-93.26 22.8-45.87 45.54-91.78 68.36-137.65 15.46-29.94 45.65-51.66 78.97-56.74zm15.81 30.48c-2.01.58-2.77 2.75-3.69 4.4-6.18 13.1-12.79 25.99-19 39.07-1.68 3.02.78 7.24 4.33 6.89 13.3.07 26.6.05 39.9.02 3.64.46 6.21-3.93 4.44-7.01-6.69-13.62-13.26-27.31-20.02-40.91-.95-2.27-3.7-3.28-5.96-2.46zm-87.91 61.74c.82 1.88 1.79 3.72 3.12 5.31 8.88 11.14 17.58 22.43 26.43 33.61 1.9 2.8 6.85 2.5 8.13-.75 5.84-11.89 11.64-23.82 17.44-35.74 2.11-3.1-1.06-7.64-4.68-7-15.24.04-30.47-.06-45.7.05-2.63-.13-3.76 2.56-4.74 4.52zm126.95-4.45c-3.36.61-4.2 4.89-2.65 7.54 5.74 11.62 11.34 23.31 17.09 34.92 1.33 3.64 6.75 3.66 8.6.45 9.22-11.8 18.54-23.54 27.68-35.41 2.9-3-.29-8.32-4.24-7.61-15.49.07-31-.17-46.48.11zm-55.45 53.33c-6.62 13.49-13.25 26.98-19.78 40.51-1.94 2.83.49 7.2 3.86 7.14 13.29.12 26.58 0 39.88.05 3.68.56 6.9-3.97 4.77-7.16-6.59-13.52-13.18-27.04-19.78-40.54-.83-2.09-3.03-2.76-4.96-3.44-1.5.91-3.28 1.7-3.99 3.44zm-96.57 5.46c-3.05 1.18-4.08 5.41-1.71 7.77 8.48 10.88 17.05 21.69 25.52 32.59 1.23 1.55 2.43 3.19 4 4.44 2.47 1.1 5.5.1 6.48-2.51 5.93-11.77 11.58-23.69 17.41-35.51 1.78-2.98-.57-7.36-4.16-7.04-15.84.05-31.72-.23-47.54.26zm180.02.01c-2.41.88-3.92 3.99-2.59 6.33 5.46 11.29 10.94 22.57 16.45 33.84 1.08 1.97 2.12 4.8 4.74 4.98 2.12.46 3.82-.92 5.01-2.5 9.24-11.77 18.53-23.51 27.68-35.35 2.55-2.84.04-7.89-3.77-7.52-15.83.17-31.73-.49-47.52.22zm-208.97 58.87c-2.33 1.27-3.6 4.69-1.69 6.85 8.6 11.39 17.65 22.43 26.32 33.77 1.4 1.69 2.74 3.73 4.96 4.39 2.5.37 4.73-1.46 5.59-3.7 5.75-11.66 11.37-23.38 17.06-35.07 1.92-3.09-1.26-7.2-4.67-6.84-14.38-.04-28.76.03-43.13-.03-1.47.14-3.17-.3-4.44.63zm236.99.01c-2.95 1.42-3.09 5.2-1.4 7.66 5.58 11.42 11.14 22.86 16.74 34.27.98 2.44 4.34 4.08 6.67 2.43 2.3-1.77 3.85-4.28 5.66-6.51 7.6-9.72 15.22-19.43 22.86-29.11.95-1.26 1.97-2.54 2.41-4.08.09-2.82-2.54-5.41-5.36-5.27-14.38-.05-28.76.04-43.14-.04-1.48.1-3.14-.23-4.44.65zm-128.99 16.18c-2.61 1.15-3.83 4.57-2.15 7 6.53 13.51 13.15 26.99 19.77 40.45 1.49 3.8 7.32 3.71 8.8-.04 6.59-13.47 13.2-26.93 19.75-40.43 2.04-2.8-.29-7.31-3.72-7.22-12.67-.11-25.35.02-38.02-.06-1.48.03-2.99-.1-4.43.3zm-63.07 45.11c-2.65.4-4.89 3.56-3.65 6.17 6.51 13.85 13.46 27.51 20.09 41.31.9 2.2 3.55 3.9 5.9 2.97 1.79-.55 2.8-2.25 3.6-3.82 6.37-13.26 12.94-26.44 19.37-39.68 2.03-3.17-1.16-7.64-4.79-7.03-13.51.05-27.02-.12-40.52.08zm152.31 6.74c6.61 13.65 13.34 27.27 19.96 40.92.97 2.17 3.74 3.81 6.05 2.68 2.45-.91 3.22-3.69 4.37-5.77 6.32-13.46 13.44-26.55 19.34-40.2-.97-1.93-2.16-4.41-4.68-4.41-13.56-.1-27.12-.03-40.68-.03-3.43-.26-5.95 3.78-4.36 6.81z" fill="#231f20"/></svg>