<svg enable-background="new 0 0 80.217 80.551" viewBox="0 0 80.217 80.551" xmlns="http://www.w3.org/2000/svg"><g clip-rule="evenodd" fill-rule="evenodd"><path d="m76.222 57.674c-.56-.421-.894-1.085-1.255-1.657-5.562-8.81-11.315-17.611-16.873-26.514-2.957-4.735-5.944-9.479-8.988-14.16-2.292-3.526-4.386-7.163-6.628-10.747-.369-.588-.784-1.161-1.155-1.757-.356-.573-.622-1.259-1.205-1.657-.555.422-.895 1.09-1.255 1.657-1.856 2.924-3.705 5.933-5.523 8.938-.72 1.19-1.543 2.323-2.26 3.515-2.874 4.776-6.084 9.371-9.038 14.11-4.432 7.108-8.891 14.188-13.459 21.242-1.143 1.766-2.207 3.551-3.314 5.373-.353.582-.678 1.213-1.205 1.657-.533-.569-.812-1.34-1.105-2.059-.886-2.179-1.615-4.563-2.159-7.181-.729-3.506-.949-7.42-.703-11.449.227-3.719 1.118-7.298 2.209-10.294.553-1.518 1.191-2.974 1.908-4.319.727-1.366 1.554-2.652 2.209-4.017.621-1.292 1.705-2.445 2.662-3.616 2.766-3.387 6.26-6.396 9.942-8.737 5.218-3.318 11.426-5.428 19.032-5.925 8.231-.538 15.597 1.794 21.141 4.871 5.563 3.088 10.23 7.284 13.708 12.253 3.439 4.913 6.438 11.122 7.13 18.83.561 6.237-.242 12.31-1.858 17.124-.536 1.601-1.083 3.166-1.958 4.519z"/><path d="m40.118 17.653h.101c2.432 3.925 5.4 8.049 7.683 12.353.8 1.507 1.846 3.037 2.812 4.569 5.75 9.12 11.365 17.969 17.123 27.166.432.69.934 1.408 1.456 2.26.32.521 1.323 1.854 1.306 2.36-.017.483-.944 1.296-1.306 1.657-1.072 1.072-1.857 1.869-3.063 2.862-.411.338-1.283 1.285-1.707 1.255-.362-.025-.615-.721-.853-1.104-1.753-2.812-3.645-5.525-5.323-8.336-3.055-4.713-6.083-9.501-9.139-14.261-.775-1.208-1.399-2.497-2.159-3.716-1.468-2.355-3.023-4.708-4.569-7.08-.763-1.17-1.404-2.438-2.36-3.465-.737.599-1.143 1.488-1.657 2.26-1.55 2.325-3.041 4.741-4.569 7.13-5.062 7.917-10.083 15.921-15.165 23.902-1.003 1.576-1.927 3.222-3.113 4.67-.652-.224-1.222-.735-1.757-1.205-1.052-.922-1.927-1.757-2.963-2.862-.428-.456-1.277-1.116-1.306-1.607-.019-.323.569-1.19.854-1.657 4.62-7.581 9.585-15.299 14.261-22.797 5.137-8.239 10.206-16.391 15.265-24.254.034-.047.089-.076.148-.1z"/><path d="m40.068 50.443c.043-.009.047.02.05.05.896.935 1.461 2.139 2.159 3.214 1.408 2.167 2.765 4.343 4.168 6.578.688 1.094 1.261 2.278 1.958 3.364 2.445 3.807 4.818 7.657 7.231 11.549.342.552.788 1.067.954 1.707-2.098 1.215-4.711 1.988-7.482 2.661-8.462 2.057-19.359.743-25.56-2.611.163-.666.555-1.266.904-1.808 1.021-1.59 2.062-3.221 3.113-4.871 4.111-6.584 8.131-13.261 12.353-19.734.038-.045.093-.074.152-.099z"/></g></svg>