<svg enable-background="new 0 0 167.949 119.661" viewBox="0 0 167.949 119.661" xmlns="http://www.w3.org/2000/svg"><path clip-rule="evenodd" d="m167.782.144c.246 2.614.141 5.532.141 8.478.001 2.898.113 5.878-.141 8.525-15.604.297-31.657-.152-47.148.141-.256 1.332-.142 2.714-.142 4.098.001 9.65-.078 19.787.094 29.344 3.819.368 7.75-.037 11.681.141 3.935.179 7.948 0 11.917 0h20.819c.941 0 1.913-.109 2.826.142.144 5.458.161 11.324 0 17.051-15.604.284-31.934-.09-47.149.141-.322.977-.188 2.04-.188 3.062.001 3.171 0 6.455 0 9.703.001 12.92.131 25.829-.047 38.529-.937.263-1.936.138-2.92.094-2.921-.128-6.059.047-9.138.048-4.084 0-8.192-.043-12.152-.095-.021-.042-.041-.084-.094-.094-.136-17.283.038-34.13-.142-51.152-.041-.021-.084-.042-.094-.095-5.159-.133-11.117-.141-16.108 0-.456.52-.406 1.23-.565 1.837-2.407 9.191-7.529 16.337-14.036 21.573-6.845 5.291-16.441 9.707-29.109 8.431-5.485-.553-10.506-2.327-14.554-4.475-4.167-2.21-7.745-5.104-10.739-8.242-5.633-6.218-9.843-13.936-10.693-24.964-.281-3.651.046-7.443.707-10.881 1.839-9.575 6.987-17.014 13.094-22.562 4.144-3.764 9.365-6.515 15.496-8.289 3.118-.903 6.665-1.414 10.457-1.414 7.646 0 13.905 1.812 19.17 4.569 3.836 2.008 7.29 4.652 10.127 7.677 2.829 3.017 5.317 6.605 7.253 10.551 1.318 2.686 2.214 5.618 3.156 8.714 5.337.159 11.077.146 16.344 0 .256-1.012.142-2.064.142-3.109-.001-11.702.214-23.588-.047-35.278-.068-3.034.047-5.982.047-9.232 0-1.019-.115-2.064.141-3.061 23.806-.032 47.299-.132 71.594.094z" fill-rule="evenodd"/></svg>