<svg enable-background="new 0 0 90.748 96.31" viewBox="0 0 90.748 96.31" xmlns="http://www.w3.org/2000/svg"><g clip-rule="evenodd" fill-rule="evenodd"><path d="m47.711.14c.381 3.486-.187 7.942-.239 12.228-.049 3.927.587 7.928-.24 11.029-.989-4.097-1.382-8.332-1.798-12.587-.338-3.457-1.351-6.611-1.559-10.549 1.498.111 2.73-.534 3.836-.121z"/><path d="m55.983.62c-1.192 6.436-2.525 13.407-3.717 19.9-.16.871.07 2.152-.719 2.518-.49-5.64.2-11.946 0-17.382-.03-.808.234-1.323.119-2.398-.104-.978.351-2.296.12-3.236 1.049.268 3.236.087 4.197.598z"/><path d="m39.68.859c1.351 7.554 2.533 14.906 3.477 22.897-2.57-5.049-3.594-10.976-5.755-16.543-.702-1.808-1.575-3.493-1.678-5.514 1.39-.361 2.683-.636 3.956-.84z"/><path d="m59.819 1.339c1.656.061 2.684.753 4.075 1.079.092 2.277-1.871 3.969-2.157 6.473-2.157 4.756-3.483 10.343-5.754 14.985-.49-1.516.378-3.451.719-5.274 1.018-5.446 1.884-11.674 3.117-16.304.119-.469-.265-.696 0-.959z"/><path d="m31.528 3.257c2.505 7.166 5.269 14.711 7.312 21.938-.57-.15-.911-.528-.84-1.319-3.793-5.997-6.949-12.631-10.31-19.061.984-.816 2.373-1.226 3.838-1.558z"/><path d="m71.567 5.535c-3.669 6.88-7.691 13.407-11.748 19.9 1.977-7.495 5.668-14.311 8.271-21.578 1.391.327 2.512.925 3.477 1.678z"/><path d="m34.645 27.352c-4.947-5.842-9.556-12.022-14.266-18.101.908-1.09 2.23-1.767 3.597-2.398 3.347 6.962 7.715 13.542 10.669 20.499z"/><path d="m74.924 7.333c1.221.697 2.476 1.359 3.236 2.518-4.815 5.974-9.46 12.118-14.625 17.742.248-1.33 1.233-2.952 2.038-4.316.812-1.377 2.034-2.61 2.518-4.315.177-.063.302-.177.479-.24 1.891-4.024 4.273-7.556 6.354-11.389z"/><path d="m31.288 29.63c-1.755-.762-2.901-2.134-4.076-3.477-4.717-3.555-8.702-7.841-13.186-11.628.535-1.423 2.083-1.833 2.877-2.997 4.907 5.923 9.67 11.988 14.385 18.102z"/><path d="m84.154 15.125c-1.274 1.163-2.494 2.381-3.956 3.356-2.491 2.088-4.708 4.833-7.553 6.713-2.284 1.511-3.798 4.434-5.874 4.915 4.49-6.18 9.707-11.632 14.266-17.742 1.437.523 2.236 1.681 3.117 2.758z"/><path d="m28.411 32.867c-2.126-.573-3.608-2.253-5.394-3.356-4.758-2.937-9.602-5.643-14.146-8.871.508-1.33 1.574-2.102 2.277-3.237h.24c5.674 5.156 11.679 9.978 17.023 15.464z"/><path d="m26.373 36.463c-3.493-.596-6.417-2.88-9.71-4.196-3.201-1.278-6.468-2.461-9.471-4.076-.866-.212-1.84-.318-2.277-.959.377-1.341 1.163-2.273 1.798-3.356 6.792 3.957 13.333 8.165 19.66 12.587z"/><path d="m24.335 40.659c-7.934-1.993-15.087-3.313-22.537-5.754.641-1.078.6-2.837 1.439-3.716 4.283 2.216 9.899 4.123 14.625 6.114.429.18.778.661 1.199.839 1.809.768 4.033 1.035 5.274 2.517z"/><path d="m80.798 32.867c1.862 1.455 4.274 2.715 5.994 4.556 3.085 3.303 4.574 8.602 3.716 14.865-.438 3.188-3.902 7.432-6.233 9.23-1.965 1.516-4.977 2.806-7.912 3.237-6.606.97-10.747-2.088-14.745-4.915-.705-1.431-2.024-2.601-2.877-4.315-2.062-4.143-1.645-10.277 0-14.266 3.519-7.041 12.208-11.606 22.057-8.392z"/><path d="m23.376 44.495c-2.163.587-5.228.212-8.392 0-5.035-.338-10.756-.793-14.745-1.199-.029-1.353.468-2.676.72-3.956 7.348 1.545 15.051 3.481 22.417 5.155z"/><path d="m22.897 48.451c-6.679 1.35-15.717 1.653-22.657 2.158-.509-1.33-.013-2.099-.24-3.357 7.342.198 15.798.63 22.897 1.199z"/><path d="m23.496 52.646c-5.068 2.077-10.277 2.377-15.225 4.316-2.241.356-5.05 1.098-7.073 1.678-.334-1.264-.735-2.461-.839-3.956 7.851-1.279 14.959-1.189 22.777-2.397.173.067.293.187.36.359z"/><path d="m24.575 56.483c-1.637 1.404-4.217 1.941-6.354 2.877-4.892 2.141-9.643 4.751-14.865 6.473-.564-.993-.785-2.331-1.198-3.476 7.262-2.089 14.985-4.356 22.417-5.874z"/><path d="m26.732 59.959c-.194.722-1.462 1.598-2.157 2.038-5.632 3.561-11.997 7.45-17.742 11.149-.01-.534-1.889-2.42-1.679-3.357.132-.582 1.373-.733 2.038-1.079 5.523-2.869 13.472-5.971 19.54-8.751z"/><path d="m28.411 64.035c-1.594 2.082-3.614 3.738-5.754 5.275-3.295 3.698-7.431 6.556-10.789 10.19-1.308-.571-1.823-1.934-2.638-2.997 5.998-4.432 12.592-8.267 18.701-12.587.251-.052.318.082.48.119z"/><path d="m83.914 81.657c-.777 1.14-2.048 1.788-2.877 2.877-4.806-6.063-9.97-11.767-14.625-17.981 2.629.849 4.157 3.833 6.714 5.154 3.313 3.6 7.438 6.388 10.788 9.95z"/><path d="m31.528 66.792c-1.162 2.544-3.351 4.342-5.035 6.593-1.128 1.507-2.279 3.037-3.476 4.555-1.21 1.534-2.159 3.328-3.717 4.675-.291 1.107-1.247 1.55-1.678 2.518-1.392-.567-2.235-1.681-3.236-2.638 5.263-5.565 11.336-10.321 16.782-15.704.12.001.24.001.36.001z"/><path d="m62.816 68.83h.239c5.326 5.543 9.719 12.019 14.625 17.982-.762 1.116-2.106 1.649-3.236 2.397-4.036-6.633-7.729-13.608-11.628-20.379z"/><path d="m34.645 69.549c.193-.034.206.113.359.12-3.424 6.965-7.008 13.771-10.908 20.259-1.13-.708-2.421-1.255-3.357-2.158 4.671-6.037 9.345-12.072 13.906-18.221z"/><path d="m59.22 71.348c.193-.034.206.113.359.12 3.534 6.775 7.955 12.664 11.029 19.899-1.001.758-2.46 1.057-3.597 1.678-2.278-6.865-5.604-14.025-7.791-21.697z"/><path d="m39.08 71.587c-2.185 7.525-4.792 14.628-7.312 21.818-1.376-.303-2.453-.903-3.597-1.438 3.122-6.579 7.091-13.46 10.55-20.379.12-.001.239-.001.359-.001z"/><path d="m55.503 72.546c.194-.034.207.113.36.12 2.561 7.068 4.771 14.488 7.312 21.578-1.156.403-2.302.816-3.717.959-1.117-6.587-2.609-13.116-3.356-19.06-.147-1.178-1.051-2.648-.599-3.597z"/><path d="m43.036 73.026c-.838 7.273-2.406 15.354-3.716 22.537-1.496-.185-2.485-.537-3.597-.719.501-3.09 1.972-6.268 2.997-9.23.315-.912.228-2.168.6-2.997 1.143-2.549 2.117-6.447 3.356-9.59.12-.001.24-.001.36-.001z"/><path d="m46.752 73.386c.194-.034.207.113.36.12.286 7.247.022 14.981.119 22.657-1.155.198-3.082.234-4.075-.12 1.378-7.505 2.422-15.121 3.596-22.657z"/><path d="m50.948 73.386h.359c1.445 7.321 2.778 15.602 3.836 22.537-.915.523-2.564.312-3.956.359.184-7.94-.108-14.645-.239-22.896z"/></g></svg>