<svg enable-background="new 0 0 68.311 68.135" viewBox="0 0 68.311 68.135" xmlns="http://www.w3.org/2000/svg"><path clip-rule="evenodd" d="m56.127 51.146c-4.795.088-9.912.049-14.858.049-.655 0-1.349.109-1.948-.146-.288-4.461.097-9.341-.195-13.834-.491.38-.62 1.055-.828 1.607-1.078 2.859-2.281 5.905-3.361 8.817-.441 1.188-.806 2.392-1.413 3.458-5.09.078-10.962.054-16.222-.097-.292-1.309-.097-2.672-.097-4.043 0-9.659-.077-19.96.097-29.374 1.76-.263 3.802-.146 5.7-.146 1.912 0 3.818.02 5.553.195.317 4.566-.105 9.691.195 14.517.511-.33.583-1.053.779-1.607.848-2.396 1.714-4.929 2.533-7.405.631-1.906.908-3.94 1.851-5.553 5.283.044 11.561-.116 17.147.098.262 1.061.146 2.25.146 3.41 0 3.473-.115 7.125.098 10.327.458-.355.535-1.064.73-1.656.945-2.856 1.962-5.822 2.923-8.768.386-1.184.973-2.402 1.072-3.605.172-2.096-1.024-3.458-2.338-4.238-1.473-.874-4.035-.683-6.527-.682-9.606 0-18.464-.1-28.351-.099-1.728 0-3.383-.056-4.336.439-1.096.569-2.002 1.682-2.387 3.068-.373 1.348-.233 3.208-.243 5.066-.02 3.668 0 7.354 0 10.814v18.657c0 1.244-.096 2.492.292 3.361.479 1.072 1.56 2.117 2.923 2.338 1.452.236 3.229.049 5.066.049 7.031 0 13.773.146 20.751.146 3.488 0 7.033-.096 10.23.098.095 2.685.097 5.785.097 8.768 0 .97.11 1.956-.146 2.825-11.08.303-22.818 0-33.807 0-1.538 0-2.8-.003-3.995-.292-5.469-1.32-9.59-4.813-11.74-9.646-.891-2.003-1.51-4.231-1.51-7.015 0-8.502.049-16.908.049-25.525 0-2.837-.132-5.699 0-8.525.256-5.517 2.048-9.107 5.115-11.983 3.122-2.927 6.296-4.648 12.129-4.92 4.597-.214 9.785.001 14.468 0 4.728 0 9.514.001 14.078.048 2.257.023 4.714-.099 7.063 0 2.386.101 4.623.027 6.528.536 1.868.5 3.33 1.327 4.627 2.533 2.409 2.238 4.364 5.571 4.238 10.083-.031 1.123-.055 2.187-.292 3.215-.211.911-.528 1.821-.828 2.728-2.381 7.195-4.806 14.246-7.307 21.336-.939 2.664-1.87 5.342-2.776 7.989-.294.865-.454 1.806-.973 2.584z" fill-rule="evenodd"/></svg>