<svg enable-background="new 0 0 75.966 76.468" viewBox="0 0 75.966 76.468" xmlns="http://www.w3.org/2000/svg"><path clip-rule="evenodd" d="m75.789 31.188c-.578-.498-.914-1.178-1.345-1.744-1.304-1.713-2.945-3.108-5.03-4.133-2.727-1.342-6.709-1.896-10.209-.896-3.065.875-5.566 2.531-7.371 4.83-1.778 2.266-3.087 5.23-3.237 8.965-.149 3.719 1.413 6.891 3.187 9.064 1.908 2.336 4.218 3.971 7.321 4.881 5.582 1.635 10.906-.631 13.845-3.387.791-.742 1.496-1.51 2.142-2.441.188-.27.278-.725.697-.797.19 6.109.1 11.814.1 17.582-.001 5.881-2.339 9.523-6.175 11.652-3.937 2.185-10.066 1.644-15.937 1.644-11.859 0-23.444-.098-35.31-.1-2.982-.002-6.14.217-8.516-.299-2.427-.527-4.361-1.438-5.976-2.939-3.191-2.963-4.198-7.713-3.935-13.695.19-4.33.05-8.746.05-13.248 0-.736 0-1.504 0-2.24 0-.682-.113-1.402.149-2.041 1.19.381 2.252 1.09 3.337 1.691 7.456 4.139 15.257 7.916 22.859 12.004 2.17 1.166 4.422 2.27 6.673 3.336 2.228 1.057 4.396 2.275 6.624 3.338 3.35 1.596 6.636 3.275 10.11 4.83 1.154.518 2.303 1.1 3.536 1.443.164-.613-.589-1.068-.946-1.494-2.765-3.281-5.287-6.861-7.52-10.756-2.556-4.459-4.844-9.207-5.528-15.391-.74-6.686 1.351-12.338 3.636-16.883 2.387-4.748 5.013-8.92 8.217-12.699.642-1.201 1.843-1.842 2.341-3.187-.664-.064-1.279.35-1.843.598-3.941 1.742-7.928 3.76-11.853 5.629-4.519 2.15-8.951 4.424-13.397 6.623-6.685 3.305-13.149 6.866-19.722 10.309-1.622.85-3.26 1.705-4.83 2.69-.513.322-1.051.746-1.693.797-.272-.967-.149-2.004-.149-2.988 0-4.855.1-9.822 0-14.891-.04-2.035-.04-3.949.349-5.777 1.14-5.357 3.617-8.742 8.516-10.26 3.132-.967 7.148-.797 11.455-.795 13.271.002 27.21.148 40.239.148 2.004 0 3.799-.035 5.428.299 4.618.947 8.263 3.58 9.363 8.068.799 3.26.448 7.174.448 11.154 0 3.883.084 7.575-.1 11.506z" fill-rule="evenodd"/></svg>