<svg enable-background="new 0 0 80.981 36.687" viewBox="0 0 80.981 36.687" xmlns="http://www.w3.org/2000/svg"><g clip-rule="evenodd" fill-rule="evenodd"><path d="m29.656 11.293c-1.845 2.692-4.83 5.066-7.121 7.579-1.623 1.601-3.151 3.253-4.781 4.883-.514.514-1.259.973-1.424 1.78-.007.884.713 1.466 1.221 1.984 1.572 1.603 3.206 3.174 4.73 4.883.604.799 1.755 1.184 1.882 2.339.215 1.965-1.993 1.679-3.815 1.679-2.387 0-4.478 0-6.918 0-1.094 0-2.773.119-3.459-.102-.939-.302-1.886-1.55-2.696-2.441-2.185-2.405-3.975-4.242-6.257-6.561-.483-.491-1.047-.957-1.017-1.73.012-1.047.982-1.604 1.628-2.238 1.928-1.892 3.792-3.923 5.697-5.9 1.885-1.957 3.758-3.86 5.748-5.85.641-.641 1.413-1.526 2.136-1.78.799-.281 2.205-.102 3.306-.102 2.139.001 4.346.051 6.663.051 1.071 0 2.49-.188 3.306.051.62.181.781.767 1.17 1.271.086-1.268.704-1.743 1.526-2.543 2.501-2.435 4.892-4.892 7.426-7.427.463-.462.921-1.098 1.577-1.119 1.91-.061 1.424 3.004 1.424 4.985 0 1.692-.337 4.221.56 4.781.747.467 2.587.187 4.222.203.67.007 1.509.051 2.136.051 1.526 0 3.011-.088 2.95 1.526-.044 1.16-1.695 2.306-2.391 3.001-.444.444-.832.948-1.271 1.424-.437.474-.973.865-1.374 1.323-.775.887-1.684 1.786-2.645 2.747-.627.627-3.207 2.479-1.882 3.866.655.686 2.681.458 4.171.458.726 0 1.569.051 2.289.051 1.861 0 2.889.012 3.255 1.424-.355 1.273-1.513 2.05-2.34 2.95-1.684 1.835-3.434 3.591-5.29 5.29-.903.827-1.592 2.007-2.849 2.391-.821.084-1.304-.591-1.78-1.068-2.821-2.822-5.545-5.581-8.342-8.596-.428-.461-1.085-1.09-1.221-1.577-.254-.915-.081-2.478-.102-3.51-.067-3.546.297-7.129-.048-10.427z"/><path d="m68.161 25.841c.193 1.158 1.138 1.8 1.831 2.493.72.72 1.407 1.477 2.086 2.238.87.747 1.41 1.331 2.187 2.137.609.632 1.83 1.405 1.729 2.594-.095 1.124-1.128 1.358-2.594 1.374-3.168.033-6.222-.016-9.461-.051-.55-.006-1.171.114-1.78-.051-.512-.139-1.024-.719-1.475-1.17-1.393-1.393-2.549-2.572-3.917-4.019-1.217-1.287-2.68-2.523-3.968-3.967-.418-.469-1.051-1.001-1.068-1.526-.027-.811 1.091-1.65 1.679-2.238 3.924-3.924 7.612-7.765 11.546-11.699.625-.625 1.344-1.582 2.085-1.78 1.738-.464 4.077.067 5.952-.102.979-.088 2.397-.051 3.814-.051 1.909 0 4.103-.27 4.171 1.475.034.867-.795 1.538-1.322 2.085-3.366 3.494-6.856 6.758-10.123 10.275-.518.558-1.265 1.117-1.372 1.983z"/></g></svg>