<svg enable-background="new 0 0 68.929 69.57" viewBox="0 0 68.929 69.57" xmlns="http://www.w3.org/2000/svg"><g clip-rule="evenodd" fill-rule="evenodd"><path d="m67.677 40.549c-.688-.205-1.076-.876-1.543-1.344-.472-.472-.951-.941-1.443-1.394-.985-.904-2.002-1.837-2.787-2.936.754-1.264 1.318-3.14.647-4.878-.902-2.337-3.532-3.759-6.122-2.936-.554.177-.994.526-1.643.697-1.007-.485-1.651-1.425-2.389-2.191-.75-.777-1.552-1.501-2.29-2.289-4.106-3.996-7.97-7.811-12.045-11.945-1.158-1.176-2.73-2.361-5.176-1.692-2.43.663-4.188 3.572-3.185 6.371.705 1.968 3.457 4.128 6.421 2.936.639-.258.958-.7 1.593-.847.773.288 1.123 1.001 1.692 1.493 1.22 1.227 2.339 2.24 3.633 3.534.302.302 1.056.892 1.045 1.294-.01.377-.768.926-1.045 1.145-1.235.977-2.625 1.817-4.181 2.34-2.284.768-5.192.941-7.566.348-4.497-1.125-7.796-3.976-9.656-7.714-1.019-2.048-1.547-4.622-1.394-7.218.161-2.719.968-4.715 2.09-6.569 2.067-3.416 5.852-6.376 10.851-6.72 3.225-.222 5.837.654 7.864 1.842 2.08 1.218 3.699 2.853 5.276 4.43 3.284 3.284 6.408 6.523 9.656 9.706 1.579 1.575 3.229 3.178 4.877 4.827 3.873 3.873 8.87 7.644 7.964 16.027-.149 1.378-.442 2.771-1.144 3.683z"/><path d="m.384 1.677c.471.073 1.168.915 1.543 1.294.516.522.977.98 1.394 1.393 1.832 1.773 3.631 3.581 5.425 5.376 1.798 1.799 3.663 3.569 5.375 5.425.871.944 1.861 1.744 2.737 2.688 2.564 2.761 5.507 5.206 8.162 7.964 3.453 3.586 6.977 7.382 10.751 10.851.467.429.837.968 1.294 1.443 1.292 1.342 2.681 2.682 4.032 4.031 1.744 1.744 3.818 3.623 5.127 5.625 1.446 2.212 2.476 5.206 2.19 8.511-.263 3.023-1.303 5.731-2.937 7.864-1.459 1.904-3.584 3.699-6.172 4.629-2.68.963-6.019 1.126-9.158.1-2.517-.822-4.795-2.444-6.371-4.43-1.6-2.016-2.874-4.387-3.186-7.565-.615-6.281 2.261-10.144 5.475-13.19.306-.29 1.033-1.189 1.493-1.194.551-.006 1.301 1.048 1.692 1.443.577.583 1.069 1.089 1.543 1.543 1.128 1.084 2.219 1.932 3.036 3.186-1.034 1.706-3.004 2.73-3.832 4.629-1.73 3.964 2.2 8.337 6.271 6.67 1.934-.792 3.605-3.247 2.837-6.023-.337-1.22-1.069-1.932-1.941-2.837-.494-.514-.922-1.121-1.394-1.593-4.024-4.023-7.977-7.878-11.995-11.896-1.983-1.983-3.917-3.932-6.023-5.923-1.053-.995-2.465-1.74-4.38-1.543-2.896.299-5.354 3.785-3.683 7.018.64 1.24 1.899 2.257 3.334 2.538 1.839.361 3.009-.297 4.579-1.095.733.29 1.174.925 1.692 1.443 1.037 1.036 2.004 1.954 3.136 3.086.39.39 1.442 1.106 1.443 1.642 0 .577-1.42 1.442-1.991 1.792-2.238 1.365-5.147 2.69-8.711 2.389-4.743-.4-7.525-2.412-9.905-5.027-2.237-2.682-3.906-6.868-3.036-11.547.73-3.928 2.938-7.333 5.873-9.059.676-.397 1.33-.453 1.892-.996-.395-.886-1.176-1.524-1.842-2.19-1.353-1.352-2.543-2.502-3.932-4.032-.563-.62-1.799-1.358-1.991-2.14-.205-.838-.05-2.045-.05-3.086 0-2.002 0-3.985 0-6.072 0-1.049.002-2.193.05-2.986.032-.071.082-.122.154-.149z"/><path d="m36.32 33.432c1.405-1.666 3.077-3.287 4.729-4.878 1.709-1.647 3.828-2.981 6.769-3.036 2.006-.037 3.836.759 5.226 1.643.411.262 1.109.671 1.145 1.095.056.665-.667 1.145-.896 1.792-1.371 3.896 2.467 7.765 6.421 6.222.358-.14 1.147-.792 1.593-.796.777-.008.97.933 1.643 1.344 1.298 1.197 2.136 2.086 3.384 3.335.285.285.95.724.996 1.194.066.687-.779 1.567-1.145 2.041-.947 1.224-1.954 2.032-3.086 3.235-.371.394-1.188 1.478-1.643 1.492-.515.018-1.334-1.085-1.792-1.542-3.402-3.402-6.647-6.5-10.054-9.905-.407-.406-1.271-1.487-1.791-1.493-.617-.008-1.276 1.033-1.692 1.443-1.407 1.385-2.459 2.572-3.932 3.932-.271.25-.606.679-.846.697-.545.042-1.32-.998-1.742-1.394-1.143-1.072-2.1-1.9-3.086-3.185-.41-.535-1.416-1.16-1.443-1.692-.041-.734 1.027-1.03 1.242-1.544z"/></g></svg>