<svg enable-background="new 0 0 73.491 77.525" viewBox="0 0 73.491 77.525" xmlns="http://www.w3.org/2000/svg"><path clip-rule="evenodd" d="m57.25 38.887c.513.834 1.299 1.442 1.976 2.12 4.052 4.053 8.199 8.198 12.289 12.289.678.678 1.465 1.282 1.977 2.121-1.361 3.092-3.076 5.699-5.061 8.096-.962 1.163-2.037 2.381-3.181 3.422-1.139 1.038-2.309 2.106-3.566 2.988-5.122 3.59-11.039 6.728-18.892 7.422-8.768.774-16.047-1.031-21.832-4-4.302-2.208-7.976-5.139-11.036-8.675-4.971-5.745-9.156-12.974-9.831-23.036-.565-8.431 1.505-15.592 4.675-21.302 4.703-8.472 11.602-14.725 21.301-18.169 1.684-.598 3.339-1.017 5.156-1.397 1.866-.391 3.87-.621 6.024-.723 9.753-.461 16.837 2.828 22.699 6.554 2.88 1.831 5.508 4.272 7.759 6.844 1.937 2.214 3.718 4.717 5.205 7.614.225.438.58.937.578 1.205-.003.396-.567.801-.916 1.156-2.379 2.432-4.844 4.845-7.181 7.182-2.809 2.81-5.471 5.41-8.143 8.289zm-33.639-2.313c-.607.871-1.607 1.348-2.072 2.361 5.212 5.502 11.074 11.17 16.53 16.627.327.326.844 1.025 1.205 1.012.377-.015.907-.763 1.157-1.012 1.206-1.206 2.156-2.208 3.325-3.325 2.251-2.167 4.442-4.394 6.651-6.603 1.661-1.661 3.239-3.433 4.867-5.061.548-.549 1.208-1.028 1.59-1.735-2.834-2.941-5.675-5.964-8.674-8.964-1.412-1.412-2.913-2.863-4.434-4.385-.666-.667-1.36-1.471-2.169-2.217-.598-.553-1.683-1.799-2.409-2.073-5.319 4.996-10.349 10.279-15.567 15.375z" fill-rule="evenodd"/></svg>