<svg enable-background="new 0 0 74.342 80.232" viewBox="0 0 74.342 80.232" xmlns="http://www.w3.org/2000/svg"><g clip-rule="evenodd" fill-rule="evenodd"><path d="m74.146 80.132c-24.629.21-49.28.039-73.902-.05-.27-1.165-.151-2.386-.151-3.567 0-16.963 0-34.248 0-51.395 0-1.126-.239-2.823.05-3.718.111-.345.54-.497 1.055-.804.426-.253.743-.58 1.055-.753 8.621-4.807 17.072-9.641 25.572-14.469 3.14-1.785 6.232-3.66 9.395-5.376.725.117 1.785.858 2.461 1.256.833.489 1.603.861 2.261 1.357 10.621 6.36 21.633 12.328 32.254 18.689v.101c-.09 18.237.269 37.076.101 55.313-.011 1.15.125 2.304-.151 3.416zm-6.833-30.847c-.001-7.917.083-16.142-.101-23.864-1.083-.912-2.376-1.542-3.617-2.261-6.273-3.632-12.474-7.048-18.79-10.751-1.792-1.051-3.635-2.287-5.526-3.366-.686-.392-1.675-1.066-2.21-.904-7.478 4.415-15.31 8.363-22.658 12.861-1.227.751-2.503 1.466-3.768 2.16-1.258.69-2.595 1.294-3.718 2.211-.027 16.215-.1 31.496.101 47.677.011.039.042.059.1.05 9.823.17 19.821.101 29.943.101 8.767 0 17.917.141 26.476.05 1.212-.013 2.476.124 3.668-.151.187-7.79.101-15.851.1-23.813z"/><path d="m62.038 41.849c-4.564.277-9.666.063-14.72.05-.474-.406-.647-1.014-.904-1.507-.805-1.542-1.882-2.745-3.316-3.768-1.862-1.329-4.336-2.248-7.486-1.708-2.569.441-4.605 1.706-6.079 3.416-1.46 1.694-2.631 3.848-2.663 6.833-.031 2.846 1.121 5.289 2.562 6.933 1.501 1.712 3.493 2.986 6.079 3.417 4.766.794 8.036-1.374 9.998-3.969.687-.909 1.157-1.919 1.758-2.964 4.802-.055 9.841-.168 14.62.051.061 1.331-.382 2.567-.753 3.717-2.562 7.923-7.988 13.38-15.725 16.127-4.667 1.657-10.521 1.741-15.625.251-2.208-.644-4.346-1.686-6.18-2.914-5.392-3.611-9.488-8.73-11.002-16.277-1.092-5.447-.092-11.225 1.859-15.323 3.341-7.019 9.354-12.155 17.885-13.967 1.274-.27 2.746-.433 4.22-.502 3.927-.185 7.326.733 10.098 1.859 2.835 1.151 5.163 2.814 7.285 4.622 4.06 3.811 7.376 8.633 8.089 15.623z"/></g></svg>