<svg enable-background="new 0 0 14.914 14.74" viewBox="0 0 14.914 14.74" xmlns="http://www.w3.org/2000/svg"><path d="m6.883.025c1.922-.16 3.903.463 5.377 1.712.268.207.491.465.734.7.738.81 1.296 1.786 1.609 2.836.233.768.327 1.573.309 2.374-.033.435-.072.871-.171 1.298-.278 1.273-.903 2.471-1.798 3.419-.107.136-.225.267-.367.368-.742.704-1.638 1.243-2.601 1.587-.774.267-1.591.431-2.412.419-1.76.052-3.526-.576-4.879-1.699-.274-.213-.505-.474-.753-.716-1.177-1.273-1.877-2.981-1.92-4.715-.035-.282.016-.564.019-.846.125-1.501.726-2.958 1.7-4.105 1.269-1.523 3.175-2.497 5.153-2.632zm-1.905 2.402c.282.181.528.411.76.651.206.188.381.406.549.628.643.884 1.06 1.944 1.141 3.036.046-.241.066-.488.124-.728.248-1.161.843-2.251 1.711-3.064.189-.199.406-.37.634-.523-1.64 0-3.28 0-4.919 0zm-2.55.02c.024.311.004.624.01.935v8.452c-.001.162.009.326-.014.488.686-.518 1.247-1.192 1.66-1.945.478-.904.742-1.928.725-2.952.028-1.191-.304-2.39-.943-3.396-.38-.609-.874-1.141-1.438-1.582zm9.256.755c-1.193 1.287-1.741 3.114-1.549 4.848.111 1.24.619 2.439 1.425 3.388.073.075.151.146.21.233.123.171.308.28.452.43.082.082.184.14.267.223-.002-3.29-.001-6.581-.001-9.871-.28.235-.576.459-.804.749zm-4.707 6.612c-.235.571-.578 1.091-.966 1.568-.32.332-.639.668-1.013.939.353-.017.707-.004 1.06-.009h3.38c.151 0 .302-.006.452.014-.354-.25-.658-.558-.957-.87-.848-.958-1.378-2.192-1.493-3.466-.067.626-.215 1.245-.463 1.824z"/></svg>