<svg enable-background="new 0 0 70.693 76.283" viewBox="0 0 70.693 76.283" xmlns="http://www.w3.org/2000/svg"><g clip-rule="evenodd" fill-rule="evenodd"><path d="m70.556.294c.118 2.714.237 6.141 0 8.726-8.701.108-17.428.098-26.373.098-14.627 0-29.343.049-43.972-.294-.199-1.948-.097-4.315-.097-6.569-.001-.569-.1-1.932.147-2.157.036-.046.088-.075.147-.098 17.791.23 35.066.146 52.648.147 5.819 0 11.678-.112 17.5.147z"/><path d="m70.606 10.931c.088 1.119.049 2.385.049 3.628 0 1.219.116 2.483-.146 3.48-11.521.092-23.429.049-35.247.049-11.846 0-23.644.099-35.099-.245-.14-1.46-.144-3.573-.099-5.441.014-.523-.008-1.501.197-1.667.035-.046.088-.074.146-.098 17.619.212 34.814.098 52.845.098 4.312 0 8.47.049 13.039.049 1.424 0 2.9-.117 4.315.147z"/><path d="m70.556 19.902c.16 1.384.164 3.42 0 4.804-.663.238-1.431.179-2.107.147-2.143-.1-4.399-.099-6.617-.049-8.571.192-17.444 0-26.226 0-8.8 0-17.727-.049-26.668-.049-2.926 0-5.877.015-8.774-.196-.164-.496-.1-1.455-.1-2.598 0-.869-.212-2.258.392-2.353 1.154-.181 3.137 0 4.559 0 10.006 0 20.529.098 30.442.098h30.884c.73 0 1.478-.034 2.205 0 .671.032 1.372-.034 2.01.196z"/><path d="m70.556 26.765c.18 1.079.146 2.748-.048 3.774-23.332.002-47.15.271-70.346-.196-.13-1.037-.222-2.819.049-3.774.036-.046.089-.075.147-.099 20.536.183 41.114.099 61.718.099 2.856 0 5.706-.065 8.48.196z"/><path d="m70.556 32.697c.146.9.195 2.457-.048 3.285-22.638.1-46.98.286-70.346-.147-.108-.896-.272-2.644.099-3.382 8.826-.027 17.964.098 26.471.098 8.848 0 17.815-.049 26.569-.049 4.383 0 8.713.004 13.04.049 1.397.013 2.834-.118 4.215.146z"/><path d="m70.508 38.138c.158.488.158 1.572 0 2.059-11.564.091-23.424.049-35.197.049-11.801 0-23.62.121-35.148-.245-.094-.51-.321-1.895.196-2.108 23.693.334 47.122-.061 70.149.245z"/><path d="m.31 41.913c22.027.208 43.695.097 66.031.098.729 0 1.484-.034 2.205 0 .675.032 1.373-.039 2.01.196.067.401.12 1.193-.048 1.52-23.056.118-47.052.262-70.346-.147-.147-.333-.167-1.24 0-1.569.037-.046.09-.075.148-.098z"/><path d="m70.556 45.785c.078.289.078.838 0 1.127-.659.235-1.382.098-2.059.098-10.982 0-22.172 0-33.138 0-11.841 0-23.694.096-35.246-.245-.06-.389-.185-1.216.245-1.274 17.982.172 35.254.098 53.04.098 4.944 0 9.854.049 15.099.049.684 0 1.409-.112 2.059.147z"/><path d="m.31 49.217c22.224.164 43.971.098 66.325.098.701 0 1.482.015 2.206.049.55.026 1.53-.315 1.765.441-.25.76-1.183.417-1.765.393-5.132-.216-10.479 0-15.638 0-11.971 0-23.493 0-35.688 0-4.363 0-8.696-.098-13.333-.098-.877 0-2.199-.014-3.334-.049-.763-.023-.941-.151-.686-.736.037-.046.09-.075.148-.098z"/><path d="m.261 70.982c11.348.047 23.78.098 35.49.098h30.835c1.082 0 2.103-.01 3.284.049.221.011.736-.097.686.393.017.791-1.149.497-1.813.49-8.153-.085-16.352-.001-24.412 0-11.996 0-23.504-.098-35.589-.099-2.184 0-4.262-.049-6.717-.049-1.064 0-2.566.123-1.764-.882z"/><path d="m70.459 74.168c.237.418.196 1.521.05 2.01-23.628.129-47.003.197-70.346-.147-.139-.639-.377-1.981.245-2.157.455-.128 1.457.049 2.206.049 10.991.001 21.861.098 32.647.098h17.697c5.924 0 11.813-.113 17.501.147z"/></g></svg>