<svg enable-background="new 0 0 76.388 69.38" viewBox="0 0 76.388 69.38" xmlns="http://www.w3.org/2000/svg"><path clip-rule="evenodd" d="m76.309.183c.236 4.238-.515 7.961-1.362 11.356-.831 3.326-2.135 6.476-3.634 9.287-.725 1.357-1.523 2.736-2.423 4.037-2.217 3.207-4.605 5.934-7.57 8.58-.467.417-1.679 1.065-1.666 1.565.011.403 1.279 1.247 1.666 1.565 4.012 3.298 7.354 7.663 9.942 12.314 2.653 4.767 4.568 10.437 5.047 17.261.067.954.176 1.98-.101 2.978-.775.265-1.619.151-2.423.151-12.616 0-25.3.101-37.852.101-1.833 0-3.508.019-5.098-.05-1.539-.068-2.984-.397-4.391-.707-8.299-1.828-14.479-5.916-19.027-11.659-4.848-6.284-8.417-15-7.166-26.345.263-2.392.922-4.764 1.615-6.915 2.049-6.36 5.734-11.55 10.195-15.343 1.589-1.351 3.144-2.601 4.895-3.634 3.529-2.082 7.757-3.706 12.668-4.391 2.483-.346 5.335-.151 8.378-.151 9.741 0 19.775-.101 29.525-.101 1.439 0 3.049-.015 4.391-.051 1.261-.033 3.133-.093 4.391.152zm-42.495 17.614c-1.734 0-3.126.084-4.492.454-2.559.693-4.618 1.973-6.359 3.483-1.737 1.505-3.238 3.295-4.29 5.552-1.035 2.22-2.012 4.628-1.968 7.873.109 8.103 4.775 13.538 10.598 15.999 1.638.693 3.481 1.01 5.603 1.009 5.515 0 11.068-.05 16.503-.05 1.058 0 2.143.117 3.18-.151-.17-.819-.953-1.295-1.514-1.817-3.392-3.151-8.169-5.607-13.829-6.359-.979-.13-2.018-.017-3.028-.354-.112-5.601-.293-11.276 0-16.807 7.949-.506 13.611-3.568 17.816-7.773.258-.257.688-.581.605-1.009-6.281-.224-12.658-.05-18.825-.05z" fill-rule="evenodd"/></svg>