<svg enable-background="new 0 0 89.933 37.665" viewBox="0 0 89.933 37.665" xmlns="http://www.w3.org/2000/svg"><g clip-rule="evenodd" fill-rule="evenodd"><path d="m22.342.655c.171 2.377.171 5.462 0 7.838-.735-.027-1.361-.434-2.114-.619-3.754-.92-7.57.87-9.54 2.63-2.372 2.12-3.876 6.09-3.3 9.849.685 4.464 3.369 7.82 7.374 9.179 1.163.395 2.589.562 3.919.516 1.302-.045 2.49-.453 3.661-.722.267 1.082.154 2.373.154 3.764 0 1.045.286 3.106-.154 3.764-.366.546-2.251.711-3.249.773-6.124.381-10.428-2.189-13.459-5.156-2.939-2.878-5.411-7.397-5.62-12.995-.22-5.887 2.175-10.678 5.002-13.613 2.665-2.767 5.906-5.037 10.571-5.672 2.154-.294 4.924-.325 6.755.464z"/><path d="m24.043 1.325c3.244.708 5.692 3.034 7.529 5.105 1 1.128 1.847 2.39 2.526 3.765.706 1.428 1.062 3.018 1.753 4.538 3.044.12 6.58.191 9.85.103 1.037-.028 2.083-.119 2.99.104.156 2.497.247 5.306.052 7.838-4.029.302-8.758-.095-12.788.206-.589.969-.785 2.137-1.237 3.249-1.029 2.53-2.664 4.786-4.59 6.549-1.058.969-2.125 1.842-3.506 2.579-.827.44-1.677.969-2.63 1.185-.268-.403-.155-.968-.155-1.495 0-1.551.018-3.357 0-4.847-.007-.56-.143-1.167 0-1.65.109-.368.77-.869 1.135-1.186 1.223-1.062 2.307-2.338 2.991-3.919 1.602-3.705.809-8.413-1.186-11.19-.821-1.143-1.868-1.811-2.94-2.888-.064-2.501-.135-5.688.052-7.941.037-.05.094-.08.154-.105z"/><path d="m75.403 14.99c.271.793.155 1.727.155 2.63 0 2.653.042 5.595-.052 8.199-1.189.512-2.563.84-3.403 1.702-.822 1.118-1.529 2.364-1.65 4.229-.114 1.761.085 3.745-.154 5.517-1.192.115-2.534.051-3.867.051-1.322 0-2.732.122-3.868-.154-.25-4.251.018-9.463-.154-14.078-.509-.332-1.229-.169-1.856-.155-3.186.077-6.979-.06-10.21-.154-.184-1.611-.103-3.907-.104-5.93 0-.598-.101-1.701.155-1.908.038-.048.094-.078.154-.104 8.416.037 16.705-.092 24.854.155z"/><path d="m89.79 15.042c.235 7.345.125 15.087.051 22.225-2.395.173-5.493.169-7.89 0-.523-2.275.085-4.964-.412-6.91-.438-1.711-1.589-3.157-3.042-3.816-.485-.22-1.076-.199-1.547-.516-.113-2.718-.052-5.656-.052-8.457 0-.899-.138-1.81.154-2.579 3.981-.191 8.777-.08 12.738.053z"/></g></svg>