<svg enable-background="new 0 0 82.337 81.979" viewBox="0 0 82.337 81.979" xmlns="http://www.w3.org/2000/svg"><g clip-rule="evenodd" fill-rule="evenodd"><path d="m41.875.216c.053 1.694.149 3.865-.052 5.475-6.641.069-12.038 1.634-16.63 3.991-4.547 2.333-8.299 5.409-11.411 9.159-3.062 3.689-5.495 8.196-6.908 13.714-1.033 4.034-1.449 9.346-.613 13.918.132.728.26 1.445.408 2.149.142.667.505 1.349.308 2.047.643.881.819 1.963 1.177 2.917 1.083 2.894 2.678 5.506 4.4 7.88 2.259 3.113 5.015 5.946 8.239 8.137 3.255 2.211 6.809 4.15 11.052 5.321 2.156.595 4.479.968 6.96 1.228 2.479.261 5.05.023 7.676-.255 4.689-.498 8.808-2.089 12.281-4.094 7.009-4.047 12.063-9.609 15.248-17.449 1.205-2.966 2.053-6.003 2.457-9.825.125-1.19.063-2.456.307-3.735 1.526-.06 3.92-.146 5.526.052.236 4.938-.704 9.355-1.996 13.201-1.923 5.729-4.797 10.633-8.545 14.584-1.256 1.324-2.472 2.717-3.838 3.838-2.869 2.353-5.758 4.26-9.416 5.936-6.875 3.151-17.433 4.72-26.199 2.61-8.042-1.937-14.84-5.785-19.905-10.849-5.197-5.194-9.169-11.511-11.258-19.547-.539-2.078-.842-4.411-1.023-6.704-.591-7.473 1.064-14.064 3.377-19.239 4.66-10.429 12.856-18.091 23.896-22.26 2.788-1.053 5.934-1.75 9.364-2.149 1.176-.137 2.356-.146 3.633-.204.441-.021 1.153-.198 1.485.153z"/><path d="m41.005 13.571c5.104-.056 9.173 1.125 12.69 2.865 6.795 3.36 11.936 8.987 14.328 16.784 1.201 3.918 1.288 9.427.562 13.97-.266 1.666-.938 3.371-1.638 4.861-2.107 4.494-4.87 8.048-8.597 10.899-4.682 3.583-11.724 6.384-20.11 5.271-7.657-1.017-12.836-4.422-17.09-8.903-2.065-2.174-3.868-4.847-5.117-7.881-1.257-3.05-2.257-6.662-2.047-10.746.74-.311 1.751-.102 2.712-.102.987-.001 2-.082 2.813.102.145 2.631.584 4.908 1.28 7.011 1.98 5.985 6.226 10.698 11.718 13.151 3.82 1.706 9.246 2.604 14.072 1.483 4.362-1.014 7.796-3.192 10.592-5.987 2.791-2.791 4.933-6.252 5.885-10.694 1.044-4.872.064-10.131-1.74-13.918-1.732-3.638-4.442-6.624-7.726-8.853-3.338-2.267-7.528-3.602-12.793-3.736-.17-.747-.113-1.719-.102-2.815.008-.827-.088-2.244.153-2.66.039-.047.095-.076.155-.102z"/></g></svg>