<svg enable-background="new 0 0 84.744 71.733" viewBox="0 0 84.744 71.733" xmlns="http://www.w3.org/2000/svg"><g clip-rule="evenodd" fill-rule="evenodd"><path d="m84.744.144c.02.698-.374 1.312-.628 1.935-1.26 3.076-2.613 6.289-3.869 9.382-.506 1.245-.852 2.565-1.596 3.675-12.846.096-25.596.049-38.204.049-3.276 0-6.677-.138-9.286.339-2.587.473-4.881 1.611-6.77 2.852-5.496 3.612-10.043 9.753-9.672 19.055.111 2.774 1.007 5.478 1.983 7.641 1.919 4.252 5.569 7.609 9.575 9.624 2.256 1.134 4.771 1.758 7.641 1.982 4.37.342 9.336.236 13.879.241 4.556.006 9.578-.084 14.169.097-.12.676-.581 1.272-.967 1.838-.392.572-.857 1.12-1.306 1.597-.84 1.078-1.796 2.041-2.806 2.949-5.826 4.75-13.23 8.905-23.986 8.27-3.306-.195-6.317-.856-8.995-1.789-5.208-1.813-9.561-4.676-13.251-8.366-3.667-3.668-6.57-8.041-8.463-13.105-.983-2.632-1.707-5.595-2.031-8.802-.335-3.307-.132-6.732.435-9.962 1.047-5.96 3.561-11.034 6.577-15.04 3.123-4.148 6.848-7.606 11.511-10.109 2.349-1.261 4.852-2.383 7.641-3.143 2.841-.774 5.95-1.09 9.527-1.258 3.919-.183 8.408-.046 12.477-.048 12.016-.006 24.107-.074 36.415.096z"/><path d="m73.234 28.29c-.053.704-.355 1.384-.628 2.031-.78 1.847-1.583 3.822-2.37 5.755-1.053 2.586-2.036 5.193-3.24 7.641-8.946.113-17.468.049-26.694.049-3.082 0-5.865.024-7.931-1.016-2.906-1.463-5.527-5.642-3.627-9.769.816-1.773 2.478-3.515 4.497-4.256.923-.339 2.149-.474 3.385-.532 3.061-.145 6.191.001 9.285 0 9.232-.002 18.432-.057 27.323.097z"/></g></svg>