<svg enable-background="new 0 0 14.767 14.354" viewBox="0 0 14.767 14.354" xmlns="http://www.w3.org/2000/svg"><path d="m.017.017c2.636-.009 5.271-.01 7.907-.017 1.662.03 3.302.695 4.517 1.828 1.05.966 1.799 2.254 2.132 3.641.371 1.599.215 3.329-.501 4.811-.643 1.369-1.725 2.537-3.069 3.24-.737.378-1.534.652-2.359.75-.439.055-.882.073-1.323.062-2.021.024-4.043.01-6.064.022-.396-.008-.796.018-1.191-.017-.005-3.336-.024-6.669-.037-10.003-.001-1.393-.028-2.787-.029-4.18.001-.046.007-.092.017-.137zm4.107.439c.048.277.136.544.202.816.399 1.6.834 3.19 1.233 4.79.427 1.681.864 3.358 1.297 5.037.014.04.032.079.055.116.02-1.235-.005-2.472-.002-3.708-.021-2.353-.017-4.707-.045-7.06-.913.001-1.827.008-2.74.009zm3.208-.009c.008.454-.015.911.022 1.365.314-.009.627.033.938.07.785.096 1.539.386 2.215.791.962.569 1.724 1.444 2.216 2.442.563 1.196.746 2.579.455 3.872-.196.991-.679 1.914-1.332 2.681-.811.903-1.907 1.553-3.094 1.813-.627.131-1.275.164-1.914.122-.282-.002-.57-.024-.838-.12-.296-.116-.564-.289-.838-.447-1.155-.686-2.329-1.337-3.49-2.012-.391-.221-.771-.461-1.168-.67-.014.296.002.592-.004.888.008.877-.007 1.755.012 2.633.167.024.336.011.504.013 1.938.002 3.876-.008 5.814-.016.54-.014 1.082.023 1.619-.039 1.47-.157 2.874-.837 3.921-1.878.952-.972 1.612-2.232 1.852-3.573.174-.915.143-1.867-.068-2.773-.325-1.378-1.082-2.656-2.153-3.583-1.058-.904-2.406-1.465-3.794-1.57-.291-.009-.584-.055-.875-.009zm-6.616.029c.042.152.135.282.197.426.427.823.839 1.653 1.257 2.48.897 1.781 1.812 3.553 2.694 5.342.398.806.821 1.6 1.222 2.405.092.196.188.389.287.582.107.214.315.374.553.409.835.134 1.732-.062 2.408-.578.88-.676 1.336-1.859 1.125-2.951-.142-.826-.649-1.575-1.346-2.034-.519-.324-1.133-.489-1.743-.492-.014.226-.001.453-.002.679.013.32-.012.639.01.959.37.043.751.091 1.084.27.457.221.816.627.984 1.105.227.576.162 1.241-.124 1.785-.125.205-.269.403-.457.556-.485.426-1.176.58-1.803.452-.19-.032-.352-.163-.434-.335-.118-.269-.183-.558-.266-.84-.655-2.469-1.31-4.938-1.967-7.406-.248-.945-.493-1.892-.767-2.83-.97.004-1.942-.006-2.912.016zm-.262.631c.003 1.491.022 2.982.027 4.473-.005.067.048.117.085.167 1.179 1.443 2.374 2.875 3.553 4.319.267.307.495.648.775.943.213.308.475.577.7.876.181.219.353.45.576.629.133.108.306.142.47.173.425.073.859.054 1.288.03 1.07-.085 2.069-.642 2.782-1.433.481-.587.828-1.29.957-2.041.214-1.117-.057-2.311-.71-3.239-.391-.581-.942-1.047-1.561-1.371-.63-.314-1.34-.455-2.039-.462-.001.417.003.834.002 1.251 0 .059.011.117.023.174.859.018 1.75.273 2.387.873.839.746 1.278 1.918 1.117 3.032-.065.562-.292 1.093-.606 1.559-.454.603-1.089 1.085-1.823 1.283-.444.133-.914.138-1.374.117-.224-.022-.463-.038-.657-.163-.144-.08-.238-.222-.328-.355-.164-.286-.318-.579-.468-.873l-.016-.007c-.106-.271-.259-.519-.383-.782-.414-.794-.819-1.594-1.22-2.396-.419-.81-.847-1.616-1.262-2.428-.374-.735-.771-1.458-1.143-2.193-.319-.64-.663-1.267-.988-1.903-.047-.089-.084-.187-.164-.253zm6.898 1.213c-.01.458-.003.919.007 1.377.294 0 .587.037.878.08.849.129 1.642.531 2.291 1.087 1.058.932 1.657 2.359 1.579 3.767-.031.712-.234 1.414-.58 2.037-.476.898-1.278 1.608-2.208 2.012-.793.354-1.685.429-2.542.343-.19-.023-.382-.051-.563-.113-.276-.115-.49-.336-.677-.563-.337-.389-.665-.784-.997-1.175-.368-.436-.716-.889-1.097-1.313-.441-.522-.883-1.044-1.318-1.571-.549-.631-1.066-1.293-1.625-1.916-.007 1.114.003 2.229-.002 3.343-.018.117.121.151.196.204 1.628 1.016 3.28 1.99 4.918 2.99.198.119.397.247.625.301.341.08.694.09 1.043.082.455.002.911-.033 1.357-.127.777-.163 1.511-.514 2.143-.992 1.135-.856 1.891-2.184 2.078-3.591.123-.877.038-1.783-.258-2.618-.394-1.15-1.184-2.163-2.211-2.813-.906-.553-1.968-.885-3.037-.831z"/></svg>