<svg enable-background="new 0 0 77.64 48.088" viewBox="0 0 77.64 48.088" xmlns="http://www.w3.org/2000/svg"><path clip-rule="evenodd" d="m75.136.398c.161 2.518.162 5.703 0 8.221-12.762.195-26.242-.096-39.062-.098-3.235 0-6.696.129-9.875 0-3.483-.139-6.2.193-8.561 1.217-2.282.988-4.058 2.455-5.643 4.233-1.542 1.726-2.706 4.008-3.211 6.615-1.247 6.445 1.316 11.537 4.524 14.545 1.725 1.617 3.632 2.863 6.275 3.6 2.514.701 5.788.682 9.144.682 9.455 0 19.733.168 29.382.098 1.383-.012 3.023.047 4.767.047 2.897 0 6.049.582 6.179-2.139.043-.906-.373-1.873-1.168-2.238-.846-.389-2.722-.244-4.135-.244-12.727 0-25.982-.195-38.965-.193-3.052 0-5.056-.574-6.907-1.85-3.194-2.197-5.933-6.508-4.378-12.209.584-2.143 1.988-3.902 3.551-5.205 1.621-1.352 3.759-2.268 6.373-2.383 2.73-.121 5.711.047 8.707.047 13.083 0 25.771.193 38.818.195 1.423 0 2.835-.111 4.184.146.074 2.467.128 5.73-.049 8.27-15.048.172-30.417-.096-45.726-.098-1.021 0-2.195.039-3.309 0-1.023-.035-2.261-.178-3.065.098-1.807.617-1.815 3.799-.049 4.377.773.254 2.265.096 3.405.146 1.233.057 2.508.006 3.552 0 11.555-.062 23.489.147 34.878.147 2.534 0 4.415.152 6.178.875 1.591.652 2.989 1.635 4.135 2.92 2.292 2.566 3.293 7.09 1.946 10.846-1.162 3.242-4.096 5.883-7.442 6.666-1.935.451-4.236.293-6.616.34-2.384.047-4.734-.01-6.811-.049-9.462-.178-18.769-.096-27.971-.098-2.406 0-4.699.066-6.762-.193-6.259-.789-10.679-3.322-14.35-6.859-2.389-2.301-4.292-5.178-5.546-8.562-1.29-3.491-1.937-8.073-1.262-12.211.659-4.041 2.143-7.252 4.086-10.021 1.915-2.728 4.357-5.057 7.346-6.762 1.509-.861 3.102-1.682 4.864-2.187 1.852-.535 3.921-.965 6.178-1.07 4.277-.203 8.638.199 13.037.049 4.338-.15 8.75.047 13.135.047 6.616.002 13.281.098 19.749.098 2.173-.002 4.335-.121 6.47.144z" fill-rule="evenodd"/></svg>