<svg enable-background="new 0 0 11.813 7.228" viewBox="0 0 11.813 7.228" xmlns="http://www.w3.org/2000/svg"><path d="m.598 1.622c.643-.99 1.802-1.625 2.985-1.621 2.394-.001 4.788 0 7.182 0 .226.003.451-.007.677.005-.002.424-.004.849.001 1.273-2.652.001-5.305 0-7.957.001-.486.03-.965.209-1.341.521-.385.311-.671.746-.793 1.227-.154.581-.07 1.222.232 1.742.376.672 1.104 1.129 1.872 1.175 2.26.001 4.52.001 6.78 0 .24-.024.381-.327.251-.53-.069-.117-.21-.181-.343-.17-2.176.002-4.352 0-6.527 0-.494.001-.99-.23-1.289-.626-.468-.577-.456-1.485.033-2.046.287-.355.734-.576 1.19-.587 2.631-.001 5.263.002 7.894-.001-.008.426-.003.853-.003 1.279-2.61.001-5.22 0-7.831 0-.274-.017-.47.357-.273.562.085.135.254.152.4.142 2.021-.002 4.042 0 6.063-.001.269.003.543-.019.805.055.412.106.773.385.986.752.251.423.289.96.11 1.417-.113.277-.291.538-.54.71-.287.227-.656.335-1.02.326-2.197.001-4.394 0-6.591 0-1.061-.007-2.103-.522-2.759-1.355-.429-.53-.701-1.186-.77-1.864-.092-.83.109-1.692.576-2.386z"/></svg>