<?xml version="1.0" encoding="utf-8"?>
<svg width="130px" height="110.00001px" viewBox="0 0 130 110.00001" version="1.1" xmlns:xlink="http://www.w3.org/1999/xlink" xmlns="http://www.w3.org/2000/svg">
  <path d="M12.1566 4.5676C15.4097 2.4006 19.1286 0.927345 23.0341 0.25811C24.1044 0.0746765 32.7845 0.0227814 64.8387 0.00818634C67.3152 0.00704956 69.6447 0.00576782 71.8366 0.00457001C103.794 -0.0129776 106.493 -0.0144577 109.001 0.677498C109.405 0.788857 109.803 0.918167 110.318 1.06826C112.373 1.66722 115.467 3.01957 115.322 3.25489C115.269 3.33978 115.334 3.36788 115.465 3.3176C115.772 3.19976 119.155 5.4174 120.558 6.65694C122.141 8.0547 122.449 8.42211 122.336 8.77619C122.26 9.01225 122.278 9.0299 122.408 8.84791C122.764 8.34985 125.713 12.3263 127.098 15.1718C128.79 18.6497 129.595 21.7942 129.911 26.1627L129.986 27.1987L128.753 27.1987L128.753 25.9689C128.753 24.2717 128.162 21.1585 127.425 18.9755C124.796 11.1816 118.606 4.997 110.859 2.42313C110.231 2.21461 109.797 2.04079 109.354 1.89566C107.124 1.16527 104.655 1.16215 76.0211 1.12602C73.0317 1.12225 69.7572 1.11812 66.168 1.11276C38.1663 1.07114 25.4905 1.11205 24.3042 1.24809C19.0478 1.8503 14.1222 4.06541 9.95576 7.70116C8.37163 9.0835 8.6465 8.98649 7.73657 9.95789C6.45156 11.3297 4.84975 13.7216 3.86064 15.746C2.33033 18.8776 1.59174 21.4814 1.25423 24.9326C0.991821 27.6182 0.989845 82.1664 1.25225 85.0406C1.56797 88.4995 2.37355 91.315 3.95933 94.5008C6.56394 99.7334 10.8849 103.946 16.262 106.492C18.3899 107.5 19.2149 107.791 21.7734 108.433L23.6644 108.908L63.8267 108.966C90.9277 109.005 104.523 108.963 105.631 108.836C111.539 108.16 116.724 105.596 121.106 101.188C122.298 99.9875 123.672 98.3975 124.158 97.6542C126.943 93.3948 128.439 89.16 128.693 84.8154L128.807 82.8783L130 82.8783L129.91 84.0046C129.531 88.7679 128.743 91.6087 126.71 95.545C125.295 98.2837 123.692 100.403 121.189 102.841C120.084 103.917 117.722 105.604 117.46 105.503C117.321 105.45 117.255 105.484 117.314 105.578C117.556 105.971 113.969 107.804 111.193 108.707C110.539 108.92 110.08 109.098 109.611 109.247C107.222 110.006 104.591 110.005 74.5965 109.999L74.5951 109.999C71.6149 109.998 68.3644 109.998 64.8173 109.998L23.4843 109.998L21.8227 109.592C19.0901 108.926 16.94 108.141 14.7495 107.006C12.4882 105.836 10.169 104.233 10.3387 103.959C10.3976 103.863 10.3286 103.829 10.1854 103.885C9.59449 104.112 4.44164 98.34 4.766 97.8147C4.84723 97.6835 4.82345 97.6455 4.70585 97.7183C4.32746 97.9522 2.28837 94.0766 1.44874 91.5275C1.23658 90.8834 0.842705 89.4644 0.573456 88.3742L0.0841217 86.3921L0.0230637 56.3899C-0.0392456 25.8105 -0.0172729 24.5638 0.636307 21.5227C1.35977 18.1563 3.12385 14.1584 5.06119 11.4953C6.33179 9.74851 8.57206 7.19733 8.83536 7.19733C8.8563 7.19733 8.9047 7.26363 8.95335 7.33027C9.03036 7.43577 9.108 7.54212 9.07832 7.38763C8.99313 6.94543 10.0763 5.95329 12.1566 4.5676L12.1566 4.5676ZM26.9062 82.6081L26.8607 54.9935L26.8151 27.3789L28.0852 27.3789L28.036 40.8934L27.9868 54.4078L102.999 54.4078L102.999 68.3728C102.999 76.0536 103.019 82.3984 103.044 82.4729C103.068 82.5473 102.825 82.6335 102.503 82.6645L101.918 82.721L101.918 55.6692L28.1635 55.6692C28.1122 55.6692 28.0513 61.7305 28.0284 69.1386L27.9868 82.6081L26.9062 82.6081L26.9062 82.6081Z" id="chambers-hotel" fill="#000000" fill-rule="evenodd" stroke="none" />
</svg>