<svg enable-background="new 0 0 84.066 74.554" viewBox="0 0 84.066 74.554" xmlns="http://www.w3.org/2000/svg"><g clip-rule="evenodd" fill-rule="evenodd"><path d="m83.946.471c.271 9.791 0 19.645 0 29.639-.001 9.94.101 20.049-.157 29.795-3.183.204-6.727.053-10.245.053-1.14 0-2.308.116-3.346-.157-.228-15.238.156-30.961-.052-45.843-.773-.305-1.636-.209-2.457-.209-13.018.002-25.973-.292-38.891-.053-.228 14.398-.211 28.519-.209 43.177 0 .907.121 1.878-.157 2.771-4.289.096-9.054.09-13.382-.105-.249-18.43.053-37.023.053-55.826 0-.56.021-1.141.052-1.83.032-.674-.121-1.603.157-1.777.038-.05.095-.081.157-.106 17.004.005 34.247.262 51.331.262 5.735 0 11.469-.056 17.146.209z"/><path d="m13.796 14.846c.276 15.252-.204 30.494.105 45.896 13.402.312 27.115.307 41.19.261.023-.046.046-.094.104-.104.213-7.619.156-15.395.156-23.104.001-6.733.053-13.192.053-20.072 0-.894-.042-1.845.209-2.718 2.156-.148 4.457-.001 6.743 0 2.245 0 4.599-.093 6.586.104.289 1.131.086 2.321.105 3.502.133 8.408-.052 17.445-.053 26.189-.001 10.068.01 20.173-.209 29.69-19.928.228-40.11-.206-60.375-.209-2.125 0-4.229-.052-6.377-.053-.649 0-1.361.118-1.986-.156-.037-19.017-.124-38.626.106-57.658.007-.557-.14-1.197.209-1.673 4.575-.03 9.05-.189 13.434.105z"/></g></svg>