<svg viewBox="0 0 90 77" fill="none" xmlns="http://www.w3.org/2000/svg">
<path fill-rule="evenodd" clip-rule="evenodd" d="M15.9467 0.1786C13.2429 0.641679 10.6683 1.6611 8.4161 3.16056C6.97587 4.11938 6.22601 4.8059 6.28499 5.11187C6.31852 5.2863 6.15424 4.98021 6.11679 4.98021C5.9345 4.98021 4.38355 6.74549 3.5039 7.95418C2.16267 9.7969 0.941379 12.5633 0.440521 14.8926C-0.0119599 16.9969 -0.0271713 17.8596 0.0159696 39.0191L0.0582382 59.7791L0.397006 61.1506C0.583409 61.905 0.856095 62.8869 1.00297 63.3326C1.58425 65.0964 2.99593 67.7781 3.2579 67.6163C3.33932 67.5659 3.35577 67.5922 3.29954 67.683C3.07498 68.0464 6.64234 72.0402 7.05143 71.8832C7.15055 71.8452 7.1983 71.868 7.15753 71.934C7.04008 72.1241 8.64564 73.2332 10.2112 74.0433C11.7277 74.8279 13.2162 75.3718 15.108 75.8326L16.2584 76.1128H44.8735C76.8903 76.1128 73.9873 76.1935 76.9798 75.2201C78.9019 74.5949 81.3848 73.3262 81.2172 73.055C81.1768 72.9897 81.2223 72.9664 81.3183 73.0032C81.4995 73.0727 83.1352 71.9054 83.8998 71.1609C85.6329 69.4735 86.7429 68.0075 87.7223 66.1125C89.1298 63.3887 89.6752 61.4231 89.9379 58.127L90 57.3478H89.5869H89.174L89.0954 58.6881C88.9195 61.6944 87.8839 64.6246 85.9556 67.5719C85.6191 68.0862 84.6681 69.1864 83.8424 70.017C80.8091 73.0677 77.2196 74.841 73.1291 75.3095C72.3621 75.3972 62.9499 75.4264 44.1878 75.3992L16.3831 75.359L15.0739 75.0304C13.3026 74.5858 12.7314 74.3847 11.2583 73.6873C7.5357 71.9249 4.54427 69.0106 2.74108 65.3899C1.64323 63.1855 1.08552 61.2373 0.866944 58.844C0.685278 56.8551 0.686648 19.1105 0.868314 17.2522C1.10197 14.8641 1.6133 13.0624 2.67275 10.8955C3.35752 9.49466 4.46646 7.8396 5.35609 6.89038C5.98604 6.21821 5.79575 6.28535 6.89245 5.32882C9.77691 2.81306 13.1869 1.28031 16.826 0.863618C17.6473 0.769481 26.4228 0.741178 45.8087 0.76998C76.8241 0.816238 73.8984 0.730455 76.7484 1.67669C82.112 3.45768 86.3975 7.73711 88.2176 13.1301C88.7275 14.6406 89.1366 16.7948 89.1366 17.9692V18.8202H89.5634H89.9902L89.9383 18.1033C89.7193 15.0805 89.1621 12.9047 87.9906 10.4981C87.032 8.52923 84.9906 5.77769 84.7439 6.12232C84.6538 6.24825 84.6416 6.23603 84.6939 6.07269C84.7727 5.82769 84.5593 5.57346 83.4634 4.60628C82.4916 3.74857 80.1499 2.21408 79.9375 2.29562C79.8466 2.33041 79.8019 2.31096 79.8382 2.25223C79.9389 2.08939 77.7967 1.15363 76.3743 0.739183C73.6514 -0.0543103 75.6234 -0.0084268 44.8884 0.00566257C22.697 0.015762 16.6877 0.0516713 15.9467 0.1786ZM73.1431 0.566868C73.1017 0.608263 72.9941 0.612752 72.9042 0.576718C72.8047 0.536944 72.8343 0.507394 72.9796 0.501409C73.111 0.496048 73.1845 0.525473 73.1431 0.566868ZM15.5388 0.816237C15.4974 0.857633 15.3898 0.862122 15.2999 0.826088C15.2004 0.786313 15.23 0.756764 15.3752 0.750779C15.5067 0.745417 15.5802 0.774842 15.5388 0.816237ZM14.9154 0.940922C14.874 0.982317 14.7664 0.986806 14.6765 0.950772C14.577 0.910998 14.6066 0.881448 14.7518 0.875463C14.8832 0.870102 14.9568 0.899527 14.9154 0.940922ZM81.3309 3.2138C81.3662 3.27103 81.316 3.31779 81.2191 3.31779C81.1222 3.31779 81.072 3.27103 81.1072 3.2138C81.1425 3.15669 81.1929 3.10994 81.2191 3.10994C81.2453 3.10994 81.2956 3.15669 81.3309 3.2138ZM81.8416 3.6073C81.8853 3.67787 81.8353 3.69882 81.7243 3.65631C81.5084 3.57339 81.4688 3.48399 81.6481 3.48399C81.7127 3.48399 81.7997 3.53947 81.8416 3.6073ZM85.5367 7.06867C85.6916 7.26642 85.6873 7.27079 85.4895 7.11581C85.3696 7.02167 85.2713 6.92342 85.2713 6.89761C85.2713 6.79499 85.3737 6.86095 85.5367 7.06867ZM87.0169 9.01725C87.0169 9.04306 86.9187 9.14131 86.7987 9.23544C86.601 9.39043 86.5966 9.38606 86.7516 9.18831C86.9146 8.98059 87.0169 8.91463 87.0169 9.01725ZM86.9929 9.78381C86.9545 9.82221 86.8848 9.75301 86.8379 9.63007C86.7703 9.45239 86.7845 9.43806 86.9077 9.56025C86.993 9.64491 87.0313 9.74553 86.9929 9.78381ZM87.4386 9.78705C87.4811 9.89802 87.4602 9.94802 87.3896 9.90438C87.3218 9.86248 87.2663 9.77545 87.2663 9.71087C87.2663 9.53157 87.3557 9.5711 87.4386 9.78705ZM88.6138 12.5269C88.5754 12.5653 88.5057 12.4961 88.4588 12.3731C88.3912 12.1955 88.4054 12.1811 88.5286 12.3033C88.6139 12.388 88.6522 12.4886 88.6138 12.5269ZM18.5959 38.0528L18.6274 57.1607H19.0015H19.3755L19.4043 47.8406C19.4201 42.7145 19.4623 38.5204 19.4978 38.5204C19.5335 38.5204 31.0366 38.5204 45.0605 38.5204H70.5585V47.8796V57.2389L70.9638 57.1998C71.1867 57.1783 71.355 57.1187 71.3378 57.0672C71.3206 57.0157 71.3067 52.6253 71.3067 47.3106V37.6476H45.3411H19.3755L19.4095 28.2962L19.4436 18.9449H19.0039H18.5643L18.5959 38.0528ZM71.1482 38.7204C71.1068 38.7618 70.9992 38.7663 70.9093 38.7302C70.8098 38.6904 70.8393 38.6609 70.9846 38.6549C71.116 38.6495 71.1896 38.679 71.1482 38.7204Z" fill="black"/>
</svg>
