<svg enable-background="new 0 0 71.886 83.064" viewBox="0 0 71.886 83.064" xmlns="http://www.w3.org/2000/svg"><path clip-rule="evenodd" d="m39.963.045c7.406-.352 13.62 1.394 18.803 3.751 4.331 1.969 8.508 4.771 11.708 8.059.446.457 1.216.997 1.318 1.47.211.97 0 2.36 0 3.599 0 7.95.188 17.179-.051 24.783-.07 2.232.013 4.543.051 6.893.093 5.726-.051 11.499-.051 17.588 0 1.21.189 2.576 0 3.548-.11.567-1.04 1.33-1.521 1.773-4.002 3.692-8.371 6.641-13.887 8.819-3.137 1.238-6.606 2.153-10.491 2.533-1.986.195-4.079.203-6.184.203-1.984 0-3.973-.375-5.777-.71-7.161-1.328-13-4.187-17.993-8.008-1.232-.942-2.377-1.984-3.446-3.092-5.315-5.5-9.671-12.037-11.556-20.932-.766-3.615-1.086-7.885-.76-12.012.626-7.923 3.312-14.286 6.589-19.41 4.92-7.691 12.433-13.684 22.098-16.928 3.308-1.111 6.865-1.723 11.15-1.927z" fill-rule="evenodd"/></svg>