<svg clip-rule="evenodd" fill-rule="evenodd" stroke-linejoin="round" stroke-miterlimit="2" viewBox="0 0 560 400" xmlns="http://www.w3.org/2000/svg"><path d="m256.024 1266.31h111.94v111.94h-111.94zm367.401 111.94h279.711v-111.94h-279.711zm-623.425-455.376h551.524v-111.94h-551.524zm439.866 455.376h111.94v-383.474h-111.94zm-72.182-864.223v-177.921l-325.953 402.926h144.086l181.867-225.008zm272.375-514.027-16.629 20.586v177.92l103.767-128.294-87.138-70.209zm167.208 810.932v111.94h191.733v-111.94zm-71.902-636.675-111.94 138.159v881.984h111.94zm-295.499 564.773h111.94v-629.904l-111.94 138.16v491.746z" fill="#192d48" fill-rule="nonzero" transform="matrix(.2002 0 0 .2002 180 62.0371)"/></svg>