<svg enable-background="new 0 0 172.218 127.676" viewBox="0 0 172.218 127.676" xmlns="http://www.w3.org/2000/svg"><g clip-rule="evenodd" fill-rule="evenodd"><path d="m63.695 0c12.665.022 25.284.096 38.044.096 6.397 0 12.439.047 19.094.048 1.193 0 2.771-.202 3.733.048.44.114 1.113.875 1.578 1.34 5.347 5.346 10.679 10.678 15.984 15.983 1.945 1.946 3.778 3.97 5.694 5.886 7.729 7.729 15.407 15.58 23.161 23.257.151.29.455.503.719.766.221.221.64.494.479.814-20.496.057-41.738-.027-62.402-.096-.687-.291-1.043-.943-1.484-1.483-1.281-1.569-2.951-2.947-4.354-4.451-3.773-4.044-7.758-7.92-11.581-11.963-1.91-2.021-3.777-4.065-5.742-6.03-4.825-4.825-9.571-10.002-14.5-14.931-1.989-1.989-3.646-4.028-5.695-6.078-.452-.452-.967-.967-1.483-1.483-.495-.495-1.109-1.163-1.388-1.579.026-.069.074-.117.143-.144z"/><path d="m54.124.718c.406-.022.812.567 1.196.957 4.512 4.573 8.761 9.144 13.351 13.734.311.311.57.714.957 1.148.316.354.904.896.909 1.148.007.291-.548.78-.861 1.148-.372.438-.581.824-.862 1.149-1.861 2.154-3.745 4.42-5.503 6.508-4.943 5.869-9.919 11.271-14.835 17.132-2.467 2.94-4.947 5.827-7.37 8.614-3.196 3.903-6.618 7.579-9.762 11.533.59 1.18 1.586 1.955 2.345 2.967 5.721 6.642 11.484 13.241 17.227 19.86 4.872 5.727 9.862 11.33 14.787 17.036 1.63 1.889 3.363 3.721 4.786 5.79-1.062 1.718-2.664 2.997-4.02 4.451-1.354 1.452-2.712 2.903-4.116 4.307-2.807 2.808-5.489 5.741-8.375 8.47-.729-.494-1.211-1.25-1.771-1.914-1.635-1.941-3.421-3.847-5.072-5.838-2.233-2.632-4.521-5.209-6.747-7.848-6.669-7.689-13.322-15.679-20.147-23.64-5.81-6.779-11.946-13.534-17.752-20.529-.375-.453-.803-.884-1.292-1.436-.358-.404-1.188-1.211-1.197-1.531-.009-.335.513-.812.766-1.1.85-.972 1.756-1.984 2.536-2.919 7.865-9.204 15.681-18.455 23.64-27.564 8.958-10.648 18.005-21.206 27.182-31.633z"/><path d="m172.182 79.726c.074.387-.318.652-.527.861-7.578 7.579-14.97 15.544-22.587 23.162-.989.99-1.882 2.073-2.872 3.063-.98.981-1.938 1.986-2.918 2.967-1.971 1.971-3.82 4.06-5.791 6.03-3.943 3.944-7.684 8.051-11.725 11.868-20.299-.069-41.721-.025-62.258-.191-.129-.37.28-.659.478-.861 1.683-1.72 3.499-3.46 5.264-5.168.514-.497.927-1.07 1.436-1.58 5.412-5.413 10.867-10.963 16.318-16.414 7.959-7.959 16.045-15.832 23.879-23.832 20.439-.106 41.03-.018 61.303.095z"/></g></svg>