<svg enable-background="new 0 0 77.552 78.215" viewBox="0 0 77.552 78.215" xmlns="http://www.w3.org/2000/svg"><g clip-rule="evenodd" fill-rule="evenodd"><path d="m38.134 24.449c-.331.965-2.167.957-3.142 1.256-2.376.729-4.478 2.093-5.993 3.818-1.956 2.228-3.77 5.075-3.77 9.327.001 4.049 1.601 7.115 3.722 9.376 1.602 1.708 3.486 3.053 5.944 3.867.79.261 1.672.338 2.513.725.773.239.58 1.744.58 3.142.001 6.253.048 12.538.049 18.8 0 1.291.225 2.878-.532 3.335-.423.255-1.35.033-2.126 0-2.229-.094-4.198-.653-6.041-1.063-2.618-.583-4.911-1.559-6.96-2.513-4.421-2.06-7.92-4.715-11.067-7.926-1.561-1.593-3.078-3.265-4.35-5.171-1.251-1.877-2.348-3.926-3.335-6.138-1.92-4.306-3.561-9.417-3.624-15.32-.064-6.098 1.169-11.395 3.045-15.949 2.803-6.806 7.027-11.914 12.372-16.095 1.758-1.375 3.68-2.569 5.8-3.673 4.159-2.167 8.788-3.771 14.74-4.205.654-.047 1.571-.15 1.982.338.375.447.29 1.774.29 2.803-.001 7.041.119 14.909-.097 21.266z"/><path d="m53.455.284c.67-.136 2.031-.048 2.996-.048 5.141 0 9.771.048 15.079.048.884 0 1.883-.087 2.996-.048 1.141.039 2.196-.067 2.658.58.376.526.193 2.344.193 3.431 0 8.009.047 16.709.048 24.793.001 4.645.284 9.481 0 14.112-.272 4.461-1.261 8.223-2.755 11.55-.732 1.632-1.614 3.295-2.368 4.833-.76 1.551-1.935 2.923-2.948 4.204-2.095 2.654-4.349 5.11-7.152 7.152-2.731 1.991-5.739 3.638-9.279 5.026-2.498.98-5.329 1.657-8.65 2.078-1.249.159-2.992.447-3.528-.193-.367-.439-.241-1.92-.241-2.948-.001-6.377-.051-12.049-.049-18.655.001-1.356-.205-2.969.532-3.528.406-.309 1.108-.309 1.595-.435 1.608-.417 2.801-1.014 4.107-1.885 1.508-1.005 2.724-2.591 3.722-4.252 1.106-1.842 1.795-3.56 2.03-5.993.233-2.42.097-5.121.096-7.878 0-9.159-.06-18.436-.048-27.499.001-1.192-.223-2.985.048-3.721.106-.289.365-.612.918-.724z"/></g></svg>