<svg enable-background="new 0 0 79.084 80.441" viewBox="0 0 79.084 80.441" xmlns="http://www.w3.org/2000/svg"><g clip-rule="evenodd" fill-rule="evenodd"><path d="m79.052 38.763c-1.388.262-3.031.099-4.677.099-1.628 0-3.316.079-4.775-.099-.453-.974-.47-2.064-.64-3.101-.174-1.058-.39-2.13-.591-3.15-.399-2.031-1.073-3.851-1.871-5.563-1.604-3.443-3.595-6.316-6.301-8.614-5.11-4.699-11.439-8.769-21.119-8.615-4.745.076-8.575 1.407-12.061 2.855-3.513 1.46-6.221 3.932-8.663 6.252-2.162 2.634-4.511 5.424-6.005 8.91-1.483 3.458-2.609 7.475-2.609 12.307 0 9.672 3.808 16.175 8.319 21.462 1.864 1.874 4.025 3.384 6.301 4.874 2.286 1.497 4.899 2.518 7.827 3.348 3.098.877 6.579 1.08 9.993.788 3.372-.288 6.379-1.097 9.008-2.166 2.508-1.02 4.868-2.668 6.892-4.283 2.087-1.665 3.825-3.66 5.415-5.76 1.623-2.144 2.975-4.515 3.939-7.236.749-2.117 1.345-4.112 1.673-6.744.094-.753.06-1.6.394-2.363 1.504-.171 3.216-.206 4.873-.148 1.633.057 3.28-.061 4.677.197.134 2.31-.173 4.545-.64 6.597-1.38 6.059-3.691 11.093-6.744 15.408-2.094 2.959-4.354 5.511-7.138 7.679-1.419 1.105-2.817 2.106-4.332 3.052s-3.176 1.647-4.923 2.461c-6.424 2.993-16.714 4.395-25.056 2.067-3.953-1.103-7.369-2.409-10.535-4.233-3.141-1.811-5.78-4.008-8.27-6.498-1.259-1.259-2.476-2.509-3.495-3.938-1.008-1.413-1.912-2.953-2.855-4.529-1.846-3.084-3.125-6.809-4.086-10.682-1.028-4.141-1.196-9.16-.738-13.685.441-4.342 1.681-8.482 3.103-11.668 1.482-3.323 3.376-6.443 5.612-9.206 2.175-2.688 4.668-5.264 7.433-7.335 2.828-2.117 6.091-3.731 9.649-5.12 3.457-1.35 7.851-2.148 12.405-2.363 1.643-.077 3.258.073 4.824.148 4.671.224 8.495 1.515 11.962 2.954 2.325.964 4.423 2.178 6.399 3.544 1.97 1.361 3.843 2.873 5.464 4.479.836.829 1.703 1.62 2.462 2.511 2.228 2.62 4.399 5.633 5.907 9.009 1.034 2.313 1.795 4.735 2.51 7.433.697 2.627 1.198 5.545 1.083 8.665z"/><path d="m66.155 39.058c-1.027.345-2.139.197-3.2.197-15.957-.001-32.741-.04-49.029-.197-.115-.442.388-.684.64-.935.785-.785 1.625-1.686 2.461-2.461 5.388-5.589 11.071-10.884 16.589-16.343 1.452-1.333 3.429-3.281 5.021-4.874.603-.603 1.055-1.286 1.674-1.624.739-.404 1.345 1.058 1.92 1.428 3.938 3.643 7.374 7.788 11.273 11.47 3.694 3.87 7.552 7.584 11.224 11.519.262.281.479.584.738.886.238.277.686.499.689.934z"/><path d="m38.982 41.519c.241 1.44.148 3.014.148 4.578v4.775c0 3.195.117 6.467-.148 9.402-4.406.226-9.066-.028-13.39.049-1.476.026-2.983.097-4.381-.148-.306-1.6-.064-3.555-.098-5.267-.075-3.797.132-7.649 0-11.863-.025-.807-.184-1.587.542-1.723.632-.119 1.455 0 2.215 0 5.011.001 10.315-.06 15.112.197z"/><path d="m58.771 41.569c.281.668.127 1.43.148 2.166.104 3.687 0 7.969 0 11.913 0 1.587.117 3.174-.148 4.628-5.455.237-11.672.215-16.934 0-.318-1.435-.073-2.977-.098-4.529-.063-3.859 0-7.857 0-12.011 0-.738-.153-1.567.197-2.215 4.1-.119 8.656-.099 12.75-.098 1.383-.002 2.773-.122 4.085.146z"/></g></svg>