<svg enable-background="new 0 0 86.702 30.894" viewBox="0 0 86.702 30.894" xmlns="http://www.w3.org/2000/svg"><path clip-rule="evenodd" d="m27.147.201c.166 2.287.163 5.254 0 7.543-5.106.123-10.685.152-16.129 0-.761-.022-1.667-.055-2.233.148-1.594.572-1.136 3.094.05 3.523.672.244 1.762.1 2.729.1 6.587.002 13.077.24 19.504 0 .297-3.541-.116-7.791.248-11.266 2.272-.164 5.222-.164 7.493 0 .211 3.6-.015 7.344.149 11.217.838.398 1.841.105 2.828.148 1.85.082 3.844.049 5.906.049.965 0 1.961.191 2.828-.1.294-3.543-.109-7.785.249-11.266 8.282-.195 17.394.051 25.955.051 4.096 0 7.042 1.869 8.586 4.566.746 1.305 1.419 3.152 1.39 5.16-.029 1.959-.615 3.637-1.489 5.062-1.07 1.691-2.369 2.881-4.219 3.672-2.741 1.172-7.149.715-10.918.695-3.673-.02-7.893-.031-11.514.049-.265.807-.166 1.762-.148 2.68.053 2.707-.062 5.859-.149 8.537-2.285.164-5.257.164-7.543 0-.18-1.748-.1-3.701-.1-5.658 0-1.906.12-3.887-.148-5.559-3.554-.238-7.871-.172-11.415-.1-.272.84-.138 1.818-.148 2.779-.028 2.689-.039 5.854-.1 8.438-1.159.252-2.525.162-3.771.148-1.226-.014-2.566-.008-3.771-.148-.293-3.596.088-7.637-.198-11.166-1.816-.295-3.699-.113-5.559-.149-3.553-.07-7.254-.1-11.066-.1-1.89 0-3.803.113-5.658 0-4.214-.256-7.028-2.984-8.189-6.254-.642-1.801-.829-4.19-.249-6.2.529-1.832 1.552-3.25 2.78-4.416 1.721-1.588 4.101-2.373 7.245-2.383 5.457-.017 11.423.116 16.774.2zm31.365 7.939c-.165.922-.163 2.502 0 3.424.709.219 1.523.188 2.282.199 4.84.072 9.923.051 14.789.049 1.897 0 3.008.033 3.325-1.389.657-2.947-3.021-2.383-5.559-2.383-4.942.002-9.99-.09-14.689-.049-.07.028-.12.079-.148.149z" fill-rule="evenodd"/></svg>