<svg fill="none" viewBox="0 0 130 158" xmlns="http://www.w3.org/2000/svg"><path clip-rule="evenodd" d="m12.8392.561981c-3.19427 1.449799-5.00222 4.196709-4.98018 7.566619.03118 4.7739 3.46848 8.1511 8.28678 8.142 3.2941-.006 5.7379-1.505 7.3266-4.4943.9662-1.81694.9735-5.47092.0148-7.25339-.9507-1.7671-2.8506-3.4947-4.468-4.062517-1.8556-.651533-4.6209-.606068-6.18.101588zm58.1679 33.010919c.1001 31.4711.126 30.9111-1.6751 36.4197-2.7278 8.3432-8.7125 17.0424-19.4094 28.2137-8.1328 8.4927-11.979 13.6667-15.7463 21.1787l-2.098 4.183.7728.592c1.1589.888 7.9057 5.056 7.9945 4.939.0425-.056.8783-1.774 1.8574-3.818.9791-2.045 2.3015-4.584 2.9385-5.644 2.1755-3.618 6.3551-8.82 10.9942-13.684 12.935-13.5634 19.4416-22.9865 22.6916-32.8646 2.0419-6.2064 2.1666-7.4938 2.1455-22.1618-.0104-7.2427-.1332-18.7753-.273-25.628l-.2542-12.4594-4.6885-4.00137c-2.5785-2.20073-4.8356-4.05029-5.0151-4.11049-.2248-.07462-.2982 8.94056-.2349 28.84556zm-52.9475-27.34967c.6283.62551.9205 1.23064.9205 1.90537 0 1.34697-1.4795 2.8218-2.8308 2.8218-1.3674 0-2.1868-.5054-2.6686-1.64571-1.2462-2.95134 2.3074-5.34301 4.5789-3.08146zm-15.22891 1.97624-2.135154 1.26889 2.548014 1.52474c1.4014.8387 2.6066 1.525 2.6784 1.525.07212 0-.02016-.3881-.20439-.8622-.18454-.4741-.42923-1.73135-.54354-2.79393l-.20785-1.9314zm26.87681 2.30823c-1.9052 4.2886-7.0712 10.159-11.6904 13.285l-2.0649 1.3974-.3758 2.3647c-.2979 1.8753-.8965 3.4242-2.8912 7.4829-2.4948 5.0765-2.5071 5.1135-1.4956 4.5093.5609-.3348 2.9329-1.7113 5.2711-3.0585 5.8119-3.3486 7.2319-4.266 10.792-6.9722 3.3102-2.5158 6.3444-5.5854 8.2635-8.3599l1.1986-1.7326-.581-1.3363c-.9331-2.1465-2.8072-5.2699-4.3428-7.2383l-1.424-1.82576zm57.437 28.9045c.0164 22.1807-.0828 24.3394-1.4196 30.9005-1.5069 7.3954-5.0917 15.5192-10.159 23.0225-3.4207 5.0649-6.3866 8.7428-11.8086 14.6428-15.6071 16.984-19.5244 26.257-19.5745 46.338l-.0091 3.684h5.1962 5.1962v-5.001c0-15.667 3.4694-23.745 16.0335-37.327 15.0869-16.309 22.5549-29.2274 25.6083-44.2989.6069-2.994.6573-4.5473.7807-23.9192l.1317-20.7177-4.5075-3.87c-2.4793-2.1286-4.7272-4.0544-4.9959-4.2792-.4399-.3684-.4862 1.6802-.4724 20.8252zm-49.3744-13.8258c-.8437 1.6242-3.5661 4.6463-5.7923 6.4301-3.0009 2.4045-5.9183 4.3027-13.1552 8.5577-6.5188 3.833-10.72298 6.6658-12.17948 8.2069-.98161 1.0387-2.34585 4.3349-3.88045 9.3757-.97153 3.1909-2.362843 9.1814-2.362843 10.1731 0 .2057.665113-.5221 1.477913-1.6169.81281-1.0949 3.39894-3.9036 5.74729-6.2413 5.08537-5.0631 8.69717-7.5695 17.18107-11.9236 8.3193-4.2691 12.9889-7.3368 15.8553-10.4151.8415-.9036.9013-.3233-.7958-7.7432-1.3378-5.849-1.4357-6.0738-2.0955-4.8034zm65.2019 28.2194c-.126 20.5779-.173 22.0835-.785 25.1107-.882 4.3654-1.711 6.7223-3.8124 10.8443-3.1933 6.2636-8.5863 13.8382-17.7795 24.9712-2.7769 3.362-5.5715 6.749-6.2102 7.525-2.1115 2.565-5.3174 7.506-6.8744 10.595-3.1422 6.235-4.8715 13.128-5.3272 21.229l-.2201 3.919h5.091 5.0907l.206-2.743c.8965-11.943 4.0057-19.374 12.3001-29.395 1.7125-2.069 4.5131-5.455 6.2231-7.525 10.6899-12.935 17.3039-23.4194 20.0459-31.7736 2.133-6.4972 2.41-10.7544 2.069-31.8054l-.238-14.667-4.294-3.675c-2.362-2.021-4.532-3.8605-4.823-4.0876-.493-.3853-.537 1.041-.662 21.4774zm-62.9099-9.1199c-2.7036 2.7325-5.7709 5.006-11.3006 8.3765-12.7709 7.7836-14.9414 9.3585-20.34696 14.7627-3.54442 3.5436-7.12034 7.9058-8.257515 10.0733-.632674 1.2059.762102 9.6407 2.120985 12.8263l.53316 1.2497 1.50406-2.2935c4.92063-7.5048 12.13477-15.5321 17.75767-19.7586 1.4411-1.0832 5.6925-3.9452 9.4476-6.3598 3.7548-2.4145 7.9209-5.1872 9.258-6.1613l2.4306-1.7715-.1638-2.5083c-.2591-3.9713-.7958-10.3289-.8786-10.4114-.0412-.0414-.9885.8478-2.1046 1.9759zm79.6929 16.0698c0 8.0946-.149 16.1783-.331 17.9642-1.106 10.8704-4.83 20.0502-12.156 29.9631-.918 1.243-4.179 5.264-7.245 8.936-3.0668 3.671-6.1023 7.313-6.7457 8.091-2.0511 2.481-5.9085 8.372-7.3376 11.206-3.3905 6.723-4.7418 11.337-5.6935 19.438l-.1933 1.646h5.1335 5.1332l.6852-3.527c.885-4.557 1.9519-7.723 4.0408-11.993 2.5417-5.196 5.9104-10.053 13.8054-19.91 8.318-10.385 11.705-15.257 14.695-21.143 3.68-7.2449 5.643-14.4516 6.283-23.0658.39-5.2433.056-23.3432-.442-23.9565-.188-.232-2.433-2.2092-4.987-4.3939l-4.645-3.9723zm-78.2376 1.9038c-2.8513 3.4697-6.3214 6.5207-13.5709 11.9314-7.1295 5.3211-10.8024 8.5603-13.6741 12.0597-2.3298 2.8387-4.94994 6.8589-6.57084 10.0824l-1.27637 2.5381.64212 1.0509c.72432 1.186 3.80389 5.178 5.38169 6.977l1.0433 1.19 1.3579-3.071c4.7046-10.6396 7.6003-14.1058 19.543-23.3928 3.3678-2.6186 7.5808-6.0048 9.3629-7.5246l3.2399-2.7629-1.0493-2.0969c-1.0584-2.1139-1.8927-4.8774-2.3285-7.7115l-.2365-1.5385zm6.1204 15.7522c-1.299 1.2203-4.9127 4.4886-8.0304 7.2631-7.9952 7.1148-8.1385 7.2509-11.0881 10.534-3.2502 3.6176-5.7872 7.4032-8.4386 12.5932l-2.0161 3.947 1.3236 1.268c1.5813 1.515 6.4943 5.425 6.7866 5.401.1133-.01 1.2905-2.232 2.616-4.938 3.9485-8.063 6.3308-11.087 14.5162-18.4283 2.6416-2.3694 6.8936-6.2121 9.4486-8.5389l4.6451-4.2309-3.5964-3.5577c-1.9784-1.9568-3.6437-3.5518-3.7007-3.5443-.0573.0073-1.1667 1.0115-2.4658 2.2318z" fill="#000" fill-rule="evenodd"/></svg>