<svg enable-background="new 0 0 78.094 78.24" viewBox="0 0 78.094 78.24" xmlns="http://www.w3.org/2000/svg"><path clip-rule="evenodd" d="m36.941.057c6.334-.339 12.182.861 16.77 2.77 4.674 1.945 8.598 4.489 11.908 7.631 6.647 6.309 11.569 14.578 12.395 26.685.442 6.483-.993 11.961-2.819 16.624-1.82 4.65-4.3 8.87-7.484 12.054-1.688 1.687-3.319 3.233-5.152 4.618-5.504 4.155-12.388 7.146-21.533 7.728-9.371.598-17.162-2.57-22.941-6.173-3.985-2.484-7.377-5.725-10.159-9.381-1.388-1.824-2.629-3.812-3.742-6.027-2.155-4.284-3.859-9.535-4.132-15.408-.453-9.781 2.283-17.305 6.076-23.137 3.881-5.968 8.768-10.543 15.407-13.901 4.34-2.197 9.27-3.754 15.406-4.083zm28.726 28.581c-1.874-4.731-4.721-8.487-8.36-11.471-4.641-3.805-11.043-7.122-19.782-6.659-5.453.289-10.108 2.045-13.659 4.423-7.106 4.759-12.581 11.646-13.268 22.504-.358 5.639 1.186 10.61 3.208 14.631 3.91 7.779 11.188 13.503 20.608 15.213 5.603 1.017 11.197-.033 15.408-1.701 4.31-1.708 7.587-4.182 10.499-7.437 2.439-2.642 4.412-5.876 5.735-9.575.45-1.261.894-2.62.973-4.083-1.56-.287-3.351-.112-5.056-.146-1.66-.033-3.396-.151-4.957.049-.508 1.001-.84 1.993-1.312 2.916-1.506 2.934-3.369 5.003-5.931 6.902-3.194 2.369-7.88 4.079-13.463 3.256-4.726-.696-8.484-3.188-11.034-6.076-2.634-2.983-4.764-6.963-4.764-12.346.001-5.377 2.003-9.456 4.715-12.395 1.323-1.433 2.861-2.811 4.715-3.84 1.828-1.014 3.987-1.911 6.368-2.187 5.695-.66 10.091.902 13.463 3.256 2.964 2.069 5.232 4.845 6.61 8.36.188.476.229 1.079.681 1.458 3.136.139 6.814.248 9.965.048-.138-1.843-.746-3.546-1.362-5.1zm-27.024 18.422c2.543.13 4.685-.878 6.172-2.382 1.19-1.202 2.144-2.964 2.285-4.909.327-4.498-2.66-7.871-6.465-8.652-.62-.127-1.28-.18-2.041-.146-3.415.151-5.605 2.207-6.757 4.715-.364.794-.66 1.673-.729 2.576-.217 2.849.803 4.239 1.798 6.027 1.54 1.547 3.276 2.645 5.737 2.771z" fill-rule="evenodd"/></svg>