<svg enable-background="new 0 0 75.907 75.264" viewBox="0 0 75.907 75.264" xmlns="http://www.w3.org/2000/svg"><g clip-rule="evenodd" fill-rule="evenodd"><path d="m37.401.098c.164 24.696.158 50.148 0 75.026-.691.245-1.459.104-2.133.049-5.048-.413-9.183-1.623-12.94-3.344-8.466-3.878-14.882-10.044-18.806-18.467-.999-2.144-1.886-4.381-2.472-6.833-.607-2.54-.876-5.229-1.018-8.288-.269-5.777 1.135-11.309 3.053-15.51 3.958-8.667 9.869-14.795 18.272-18.95 4.422-2.187 9.81-3.785 16.044-3.683z"/><path d="m38.806 0c11.787.435 19.88 5.007 26.172 11.051.759.729 1.387 1.657 2.133 2.521 2.11 2.442 4.027 5.4 5.428 8.53 1.918 4.284 3.492 9.303 3.345 15.073-5.995.233-12.36.049-18.562.049-6.282 0-12.597.049-18.66-.098-.262-1.382-.146-2.958-.146-4.556-.001-9.979.001-20.073 0-30.244 0-.79-.016-1.817.146-2.228.034-.046.087-.074.144-.098z"/><path d="m75.884 38.435c.132 2.912-.305 5.667-.921 8.191-1.777 7.278-5.562 13.316-10.081 17.836-4.573 4.574-10.64 7.988-18.078 9.839-2.522.627-5.3.966-8.191.872-.178-11.143-.096-23.223-.097-34.751 0-.712-.142-1.485.194-2.133 11.981-.095 25.302-.1 37.174.146z"/></g></svg>