<svg enable-background="new 0 0 79.438 44.882" viewBox="0 0 79.438 44.882" xmlns="http://www.w3.org/2000/svg"><g clip-rule="evenodd" fill-rule="evenodd"><path d="m37.355 5.663c.651.405 1.335 1.751 2.338 1.728.572-.015 1.251-.788 1.777-1.271 3.18-2.912 7.038-5.079 12.396-5.792.914-.121 1.938-.238 2.896-.305 1.981-.137 4.066.345 5.995.812 1.816.441 3.541 1.176 4.877 1.931 5.72 3.23 9.938 8.09 11.432 15.749 1.655 8.494-2.509 15.964-6.707 19.864-2.365 2.198-5.173 3.982-8.484 5.081-3.358 1.114-8.046 1.437-11.837.508-1.837-.45-3.316-1.202-4.115-2.692-.841-1.569-.864-3.583.152-5.182.891-1.4 2.352-2.385 4.369-2.438 1.036-.028 1.962.224 2.997.406 3.072.539 6.118-.606 8.027-1.88 2.505-1.67 4.835-4.426 5.284-8.281.768-6.602-3.039-10.898-7.418-12.752-.798-.338-1.754-.617-2.692-.711-3.398-.34-6.149.585-8.18 1.829-1.307.801-2.579 1.899-3.505 3.302-.928 1.404-1.744 3.074-1.931 4.826-.409 3.849-.152 8.864-.152 13.312 0 1.162-.051 2.299-.051 3.353 0 1.177.082 2.332-.051 3.251-.283 1.958-1.451 3.308-2.744 4.014-1.812.99-4.023.528-5.283-.355-1.34-.938-2.229-2.458-2.337-4.42-.112-2.035.146-4.33.102-6.554-.046-2.324-.141-4.508-.051-6.401.106-2.241.103-4.551-.203-6.351-.319-1.879-1.09-3.354-2.032-4.725-1.836-2.671-4.539-4.588-8.434-5.08-2.101-.266-4.186.202-5.842.812-1.652.608-2.977 1.605-4.065 2.692-2.09 2.09-4.028 5.767-3.303 9.907.686 3.91 2.477 6.47 5.182 8.332 1.896 1.305 4.717 2.303 7.977 1.931.873-.101 1.874-.399 2.895-.457 2.449-.14 4.516 1.598 5.132 3.403.852 2.497-.337 4.63-1.728 5.741-1.508 1.205-3.893 1.525-6.249 1.676-5.427.349-9.651-1.226-12.752-3.048-2.455-1.443-4.524-3.356-6.351-5.589-2.852-3.488-5.103-8.483-4.623-14.986.35-4.733 1.997-8.562 4.318-11.584 3.502-4.557 8.058-7.808 14.987-8.891 2.325-.363 4.757-.221 7.215.203 4.488.776 7.745 2.656 10.772 5.082z"/><path d="m29.226 29.337c-1.664 1.626-4.161 2.918-7.417 2.744-2.806-.15-4.861-1.585-6.351-2.997-2.228-2.129-3.698-6.588-2.031-10.518 1.264-2.98 4.345-5.729 8.179-5.994 4.802-.333 8.142 2.374 9.703 5.537 1.917 3.881.639 9.16-2.083 11.228zm-3.099 1.321c2.845-1.283 5.326-4.215 5.487-7.824.131-2.955-.917-5.121-2.489-6.808-1.49-1.597-4.304-3.196-7.367-2.845-4.94.566-8.577 4.185-8.434 9.398.08 2.893 1.382 4.526 2.846 6.3 2.168 2.159 6.371 3.398 9.957 1.779z"/><path d="m63.774 15.366c2.113 2.143 3.661 5.393 2.845 9.144-.632 2.903-2.851 5.677-5.538 6.858-3.122 1.374-7.377.766-9.855-1.066-1.778-1.314-3.274-3.335-3.811-5.944-.741-3.609.673-6.677 2.439-8.535 1.388-1.517 3.521-2.957 6.3-3.149 3.501-.242 5.832 1.063 7.62 2.692zm-7.774-2.083c-4.235.625-7.263 3.416-8.027 7.468-.149.794-.172 1.672-.102 2.541.232 2.849 2.109 5.527 4.369 6.858 2.321 1.366 6.13 1.913 8.992.406 1.118-.589 1.815-1.43 2.896-2.388 1.644-1.853 2.603-5.705 1.524-8.789-.376-1.077-1.038-1.927-1.524-2.743-1.858-1.84-4.242-3.926-8.128-3.353z"/><path d="m21.657 15.366c3.273-.36 5.597 1.49 6.604 2.998 1.519 2.269 1.411 5.791-.051 7.874-1.37 1.952-4.221 3.522-7.315 2.743-3.116-.784-6.196-4.183-5.183-8.332.437-1.785 1.407-3.1 2.643-4.013.792-.586 1.856-1.11 3.302-1.27z"/><path d="m56.559 15.417c3.297-.322 5.384 1.55 6.554 3.658 1.246 2.245 1.055 5.241-.355 7.265-.758 1.087-2.101 2.215-3.556 2.642-4.943 1.448-10.099-2.687-8.993-8.077.349-1.7 1.183-2.918 2.337-3.912.918-.793 2.42-1.42 4.013-1.576z"/></g></svg>