<svg enable-background="new 0 0 46.367 72.018" viewBox="0 0 46.367 72.018" xmlns="http://www.w3.org/2000/svg"><path clip-rule="evenodd" d="m46.245 34.098c-4.14.161-8.728.089-13.07.088-.588 0-1.2.1-1.734-.133-.236-3.454.029-7.408-.133-10.936-.515-.618-1.289-.961-1.956-1.378-.688-.429-1.368-.858-2.045-1.289-1.357-.863-2.673-1.77-4.045-2.579-1.433.765-2.816 1.638-4.179 2.49-1.373.858-2.774 1.65-4.045 2.623-.077 8.601-.077 17.291 0 25.962 1.205 1.003 2.582 1.703 4.045 2.579.974.583 1.979 1.267 3.067 1.912.335.199.806.566 1.067.578.645.03 1.524-.873 2.089-1.2 1.4-.811 2.732-1.643 4.09-2.489.669-.417 1.445-.718 1.956-1.334.073-3.879-.09-7.483.089-11.069 4.708-.147 10.049-.147 14.804 0 .137 6.358.167 13.019.044 19.338-.327.457-.881.725-1.333 1.022-7.062 4.645-14.502 9.079-21.606 13.737-2.082-1.032-3.933-2.448-5.913-3.646-1.963-1.188-3.897-2.445-5.824-3.69-2.902-1.876-5.849-3.665-8.758-5.557-.945-.617-2.04-1.083-2.799-1.957-.064-14.267-.085-28.414 0-42.233.327-.47.871-.764 1.334-1.067 3.304-2.166 6.709-4.211 10.047-6.446 2.812-1.883 5.733-3.623 8.669-5.513.438-.282.915-.626 1.422-.934.441-.265 1.252-.967 1.645-.977.417-.011 1.032.572 1.512.889 6.192 4.089 12.61 8.097 18.804 12.136.959.625 2.017 1.135 2.801 1.956.081 4.669.044 9.718.044 14.537 0 1.589.091 3.145-.089 4.58z" fill-rule="evenodd"/></svg>