<svg enable-background="new 0 0 52.948 75.017" viewBox="0 0 52.948 75.017" xmlns="http://www.w3.org/2000/svg"><path clip-rule="evenodd" d="m51.727 33.451c-.535-.077-.696-.656-.902-1.002-1.159-1.948-2.488-3.725-4.109-5.413-.549-.571-1.752-1.271-1.905-2.004-.296-1.426-.437-2.702-.802-3.909-1.815-6.01-5.638-9.824-11.375-12.127-2.257-.906-5.067-1.458-8.169-1.103-4.968.57-9.435 3.141-12.178 6.615-2.284 2.892-4.414 6.762-4.209 12.227.022.591-.007 1.352.501 1.804.837-.101 1.343-.773 1.904-1.203 1.735-1.328 3.697-2.36 5.914-3.308 2.887-1.234 6.347-1.955 10.373-1.955 3.874 0 7.22 1.02 10.073 2.255 2.842 1.23 5.435 2.923 7.467 4.811 4.361 4.052 7.357 9.105 8.419 16.237.548 3.677-.006 7.819-.902 10.925-2.271 7.871-7.581 13.043-14.333 16.438-3.975 1.998-10.179 2.858-15.736 1.854-3.402-.615-6.38-1.886-8.871-3.408-5.141-3.141-8.877-7.496-11.124-13.478-1.134-3.017-2.002-6.358-1.704-10.524.205-2.862.661-5.293 1.503-7.718.23-.662.802-1.604.802-2.255 0-.947-.801-2.119-1.053-3.007-.898-3.175-1.553-6.64-1.102-10.725.513-4.649 2.039-8.639 4.26-11.877 4.199-6.122 10.941-11.103 20.948-11.576 4.948-.233 9.346 1.206 12.629 2.856 3.495 1.757 6.309 3.971 8.67 6.816 2.282 2.75 4.16 6.15 5.212 10.274.935 3.665 1.172 8.166.301 12.078-.104.465-.124 1.055-.502 1.402zm-43.599 15.085c0 7.086 3.337 11.634 7.216 14.734 2.253 1.8 5.292 3.297 8.921 3.608 4.114.353 7.7-.356 10.474-1.804 5.468-2.854 9.255-7.8 10.023-15.034.419-3.947-.603-7.46-2.055-10.173-1.471-2.749-3.551-4.832-6.014-6.566-2.751-1.877-6.327-3.42-10.975-3.307-2.853.069-5.723 1.04-8.068 2.355-1.025.575-1.96 1.304-3.007 2.105-.612.468-2.373 1.799-2.356 2.756.009.525.608 1.078.952 1.453.404.441.838.8 1.253 1.203 3.183 2.706 6.698 4.56 12.428 4.56 4.821 0 8.239-1.784 10.925-3.959.377-.306.923-.9 1.303-.852.397.051.909 1.161 1.102 1.503.717 1.269 1.065 2.338 1.403 3.809.157.682.449 1.624.301 2.305-.109.5-.878.976-1.453 1.353-3.901 2.554-9.351 4.476-15.736 3.959-6.381-.517-10.539-2.718-14.333-5.562-.522-.392-1.022-1.036-1.804-1.053-.656.649-.5 1.737-.5 2.607z" fill-rule="evenodd"/></svg>