<svg enable-background="new 0 0 30.013 30.278" viewBox="0 0 30.013 30.278" xmlns="http://www.w3.org/2000/svg"><path d="m4.281 4.54c3.929-4.137 10.317-5.645 15.682-3.696-4.643-.133-9.132 2.111-11.907 5.813-2.466 3.013-3.274 7.107-2.897 10.917.555 6.579 6.554 12.2 13.171 12.279-7.517 1.961-15.872-3.088-17.762-10.589-1.468-5.114-.043-10.936 3.713-14.724z"/><path d="m16.48 3.946c.796-1.42 2.357-2.452 4.023-2.307 1.873-.054 3.549 2.007 2.777 3.808-.603 1.39-1.092 3.214.051 4.469 1.541 1.416 4.499 1.191 5.445-.832 2.58 5.826 1.055 13.31-3.939 17.364-2.792 2.009-6.905.601-8.409-2.345-2.264-4.207-1.988-9.226-1.677-13.845.211-2.174.65-4.387 1.729-6.312z"/></svg>