<svg clip-rule="evenodd" fill-rule="evenodd" stroke-linejoin="round" stroke-miterlimit="2" viewBox="0 0 560 400" xmlns="http://www.w3.org/2000/svg"><path d="m563.8 387.1 65.4-65.4-59.3-59.3v-58.2h-12.2v58.2l-51.8 51.8-58.3-58.3 29.6-29.6-35-35v-63.3h-12.2v63.3l-35 35 29.6 29.6-42.7 42.7-49.6-49.6 48.6-48.6-60.2-60.2 35.1-35.1-35.2-35.2v-69.9h-12.2v70.4l-34.7 34.7 34.7 34.7v.8l-59.8 59.8 48.6 48.6-49.8 49.8-42.9-42.9 29.6-29.6-35-35v-63.3h-12.1v63.3l-35 35 29.6 29.6-58.3 58.3-51.8-51.8v-58.2h-12.2v58.2l-59.3 59.3 65.4 65.4 57.9-57.9 44.3 44.3-66.2 66.2 91.7 91.7v97.9h242.9v-97.9l91.7-91.7-66.2-66.2 44.3-44.3zm-184.4 17.5-31.9-31.9 31.2-31.2 31.9 31.9zm-129.3.3-31.4-31.4 32.2-32.2 31.4 31.4zm5.1 64.4 54.7 54.7h-109.5zm64.6 54.7 54.5-54.5 54.5 54.5z" fill-rule="nonzero" transform="matrix(.429116 0 0 .429116 145 64.9785)"/></svg>