<svg enable-background="new 0 0 82.348 82.259" viewBox="0 0 82.348 82.259" xmlns="http://www.w3.org/2000/svg"><path clip-rule="evenodd" d="m70.504 69.841c-4.324 4.519-9.249 7.772-15.608 10.117-6.131 2.261-15.056 3.086-22.471 1.424-6.72-1.507-12.447-4.506-17.235-8.491-4.704-3.914-8.555-8.807-11.236-14.438-1.369-2.877-2.559-6.126-3.151-9.71-.633-3.823-1.111-7.941-.559-11.897 1.053-7.552 3.293-13.647 6.863-18.811 3.524-5.097 7.931-9.213 13.32-12.405 4.12-2.44 8.529-4.279 14.134-5.135 4.037-.616 9.08-.7 13.219 0 8.795 1.488 15.409 5.179 20.844 10.016 4.037 3.593 7.445 8.088 9.863 13.27 2.394 5.128 4.185 11.605 3.813 19.37-.11 2.314-.499 4.584-.966 6.711-1.839 8.367-5.749 14.787-10.83 19.979zm-38.69-28.979c-1.273.047-2.723.239-4.118.305-2.854.134-4.883-.465-5.948-2.237-1.672-2.781-1.601-10.23-.458-13.524.385-1.109 1.061-2.029 2.085-2.44 1.206-.484 3.054-.27 4.474-.152 3.158.261 5.679.873 8.236 1.525 1.285.328 2.471.85 3.863 1.017.805-.348 1.278-1.027 1.272-2.186-.763-1.236-2.444-1.413-3.864-1.831-4.303-1.266-9.608-2.34-15.1-2.084-5.448.253-10.039 1.057-13.269 3.559-2.967 2.298-6.163 6.386-4.423 11.54.688 2.041 1.934 3.564 3.508 4.932 3.844 3.339 9.064 4.968 15.964 5.135 4.313.104 8.946.024 13.117-.356.968-.088 1.953-.04 2.848-.356.244-.789.249-2.516 0-3.305-2.751-.122-5.393.354-8.187.458zm12.761 2.592c3.975-.243 8.012-.356 12.201-.356 1.625 0 3.433-.24 4.729.305 2.195.923 2.295 5.667 1.982 8.643-.128 1.225-.366 2.614-.609 3.61-.459 1.875-1.151 4.039-2.797 4.627-1.406.503-3.86.129-5.236-.102-4.431-.744-7.644-1.742-11.083-3.406-.626-.303-1.402-.875-2.085-.813-.704.063-1.746 1.235-1.626 2.135.111.846 1.534 1.331 2.389 1.729 2.983 1.388 5.98 2.442 9.304 3.203 4.438 1.015 10.832 1.252 14.896-.051 4.23-1.356 7.158-3.593 9.405-7.271 1.519-2.484 2.723-5.829 2.898-9.608.057-1.233.053-2.794-.458-3.712-.604-1.086-1.788-1.244-3.355-1.474-5.553-.818-11.97-1.614-18.251-1.322-2.477.115-5.041.102-7.475.102-1.226 0-2.419.091-3.609.152-1.167.06-2.374.022-3.457.356-.249.757-.244 2.445 0 3.203.767.282 1.537.093 2.237.05z" fill-rule="evenodd"/></svg>