<svg enable-background="new 0 0 70.144 43.973" viewBox="0 0 70.144 43.973" xmlns="http://www.w3.org/2000/svg"><path clip-rule="evenodd" d="m31.674 2.515c.091 3.137.05 6.431.05 9.692 0 3.253-.134 6.49.099 9.493.532-.043.783-.572 1.094-.894 4.732-4.926 9.965-9.57 14.613-14.663 1.374-1.287 2.53-2.481 3.926-3.877.474-.474.85-1.048 1.392-1.193 1.134-.302 2.989-.05 4.324-.05 4.306.001 8.867-.082 12.973.1-.235.578-.763.977-1.194 1.392-1.29 1.243-2.616 2.517-3.926 3.827-4.686 4.685-9.523 9.311-14.315 14.116-.327.328-1.138 1.174-1.143 1.441-.008.428.9 1.16 1.193 1.441 1.399 1.347 2.585 2.552 3.877 3.877 4.828 4.683 9.615 9.405 14.414 14.116.294.507 1.11.737 1.093 1.392-4.991.224-10.069-.12-14.911.1-.717.032-1.598.092-2.137-.05-.385-.102-1.024-.775-1.441-1.193-2.223-2.224-4.349-4.268-6.461-6.511-.839-.891-1.766-1.724-2.635-2.535-2.725-2.542-5.336-4.988-7.952-7.604-.856-.856-1.661-1.83-2.734-2.435-.292.652-.204 1.459-.199 2.187.033 4.463.05 9.389.05 14.364 0 .766.166 1.897-.05 2.386-.142.32-1.054.613-1.59.845-1.761.76-3.695 1.228-5.716 1.491-6.692.872-11.584-1.178-15.259-3.728-1.936-1.343-3.421-2.96-4.821-4.821-2.762-3.669-4.664-8.5-4.225-14.861.301-4.366 1.675-7.972 3.678-10.785.67-.942 1.308-1.952 2.038-2.784.786-.896 1.879-1.703 2.933-2.485 3.122-2.318 6.954-3.977 12.028-4.274 2.259-.133 4.292.189 6.113.596 1.79.399 3.54.916 4.821 1.887zm-17.595 14.265c-.692.983-1.419 2.451-1.591 4.076-.67 6.34 4.17 11.021 9.891 10.637 1.499-.101 3.137-.719 4.225-1.342 2.402-1.377 4.573-4.06 4.573-8.052 0-4.711-2.88-7.726-6.461-8.897-.899-.294-2.268-.493-3.23-.447-3.582.17-6.01 2.041-7.407 4.025z" fill-rule="evenodd"/></svg>