<svg enable-background="new 0 0 78.652 77.761" viewBox="0 0 78.652 77.761" xmlns="http://www.w3.org/2000/svg"><g clip-rule="evenodd" fill-rule="evenodd"><path d="m3.906.113c.337 1.473.164 3.049.097 4.586-.209 4.75.001 9.709-.048 14.48-.172 16.428.03 31.789-.145 48.465-.034 3.213.038 6.434-.145 9.608-.992.158-2.628.158-3.62 0-.155-22.648.144-45.289.144-67.92 0-2.416.016-4.887.049-7.047.011-.738-.159-1.537.193-2.221 1.043-.054 2.509-.132 3.475.049z"/><path d="m34.607.307c.245.926.202 2.381.048 3.426-10.02.087-20.23.031-30.025-.145-.294-.924-.184-2.402-.048-3.426 2.298-.199 5.528-.098 8.206-.098 2.449 0 4.932.049 7.337.049 5 0 9.9-.017 14.482.194z"/><path d="m39.048.354c.22 3.598.145 7.502.096 11.393-.048 3.838.029 7.764-.193 11.393-1.04.162-2.725.156-3.765 0-.153-6.387-.048-13.106-.048-20.227 0-.937-.258-2.613.482-2.703 1.042-.126 2.582.005 3.428.144z"/><path d="m43.441.354c.323.85.211 1.785.193 2.705-.127 6.463.013 13.602-.241 20.129-.981.164-2.588.152-3.572 0-.197-6.699-.048-13.293-.048-20.082 0-.914-.11-1.869.145-2.752.961-.161 2.559-.157 3.523 0z"/><path d="m74.19.451c.144.969.267 2.5 0 3.428-5.036.211-10.223.051-15.157.096-4.998.047-9.958-.006-14.916-.193-.159-.98-.157-2.545.096-3.428.036-.045.088-.072.145-.096 9.909.129 20.015-.039 29.832.193z"/><path d="m78.631.5c.101 24.84-.191 49.613-.193 74.869 0 .754.109 1.541-.145 2.268-1.041.144-2.798.201-3.765-.047-.078-15.883.097-31.914.097-48.32 0-9.051.096-17.613.097-26.742 0-.709-.105-1.473.193-2.125 1.169-.085 2.632-.063 3.716.097z"/><path d="m38.855 54.516c.138 3.727.069 7.625.048 11.488-.021 3.867.097 7.738-.145 11.441-1.062.158-2.751.158-3.813 0-.235-.85-.106-1.771-.096-2.705.064-6.182.145-12.826.145-19.066 0-.426-.119-.914.193-1.254 1.109-.043 2.707-.172 3.668.096z"/><path d="m43.296 54.565c.179 5.531 0 11.475 0 17.328 0 1.895.165 3.801-.096 5.6-1.049.188-2.609.117-3.621-.047-.195-6.746 0-13.605 0-20.371 0-.725-.116-2.355.193-2.559.036-.045.088-.074.145-.096 1.093.08 2.521-.172 3.379.145z"/><path d="m34.317 73.969c.226.996.306 2.6 0 3.477-4.771.141-10.045-.002-15.06 0-3.777 0-7.494-.049-11.344-.049-1.211 0-2.457.104-3.62-.144-.157-.451-.097-1.18-.097-1.834 0-.631-.138-1.359.241-1.643 9.98-.008 20.222.015 29.88.193z"/><path d="m73.9 74.162c.226.906.217 2.518 0 3.428-9.759.158-20.223.123-30.025-.098-.036-.473-.403-3.357.193-3.524.395-.109 1.346 0 2.027 0 9.136.001 18.742.069 27.805.194z"/></g></svg>