<svg enable-background="new 0 0 35.019 20.066" viewBox="0 0 35.019 20.066" xmlns="http://www.w3.org/2000/svg"><g fill="#010101"><path d="m28.437 6.902h-5.751c-.176 0-.32-.143-.32-.32 0-.176.143-.32.32-.32h9.646l.712-1.661h-10.358c-1.092 0-1.981.889-1.981 1.981s.889 1.981 1.981 1.981h5.751c2.713 0 4.921 2.207 4.921 4.921s-2.207 4.921-4.921 4.921h-12.182l-.712 1.661h12.894c3.629 0 6.582-2.953 6.582-6.582s-2.953-6.582-6.582-6.582z"/><path d="m28.437 15.464c1.092 0 1.981-.889 1.981-1.981s-.889-1.981-1.981-1.981h-5.751c-2.713 0-4.921-2.207-4.921-4.921s2.207-4.921 4.921-4.921h11.618l.711-1.66h-12.33c-3.629 0-6.582 2.953-6.582 6.582s2.953 6.582 6.582 6.582h5.751c.176 0 .32.143.32.32s-.143.32-.32.32h-10.21l-.712 1.661h10.923z"/><path d="m28.437 17.765c2.361 0 4.281-1.921 4.281-4.281s-1.921-4.281-4.281-4.281h-5.751c-1.445 0-2.62-1.175-2.62-2.62s1.175-2.62 2.62-2.62h10.632l.712-1.661h-11.344c-2.361 0-4.281 1.921-4.281 4.281s1.921 4.281 4.281 4.281h5.751c1.445 0 2.62 1.175 2.62 2.62s-1.175 2.62-2.62 2.62h-11.196l-.712 1.661z"/><path d="m10.033 6.262h5.223c.116-2.716 1.686-5.059 3.958-6.262h-9.181c-5.532 0-10.033 4.501-10.033 10.033s4.501 10.033 10.033 10.033h4.57l.616-1.436.986-2.301 1.083-2.526h-7.254c-2.079 0-3.77-1.691-3.77-3.77s1.69-3.771 3.769-3.771zm2.69-3.692.461-1.419.461 1.419h1.492l-1.207.876.461 1.419-1.207-.877-1.207.877.461-1.419-1.206-.876zm-11.512 6.795h1.492l.461-1.419.461 1.419h1.492l-1.207.877.461 1.419-1.207-.877-1.207.877.461-1.419zm11.512 6.791.461-1.419.461 1.419h1.492l-1.207.877.461 1.419-1.207-.877-1.207.877.461-1.419-1.207-.877zm-4.649 0 .461-1.419.461 1.419h1.492l-1.208.877.461 1.419-1.207-.877-1.207.877.461-1.419-1.207-.877zm-1.484-2.487-1.207.877.461 1.419-1.207-.877-1.207.877.461-1.419-1.207-.877h1.492l.461-1.419.461 1.419zm-1.207-7.823.461 1.419-1.207-.877-1.206.877.461-1.419-1.207-.876h1.492l.461-1.419.46 1.419h1.492zm1.199-3.276h1.492l.461-1.419.46 1.419h1.492l-1.207.876.461 1.419-1.206-.877-1.207.877.461-1.419z"/></g></svg>