<svg enable-background="new 0 0 89.731 55.95" viewBox="0 0 89.731 55.95" xmlns="http://www.w3.org/2000/svg"><path clip-rule="evenodd" d="m29.07.047c.402 1.147-.068 3.171.252 4.401.617-.055 1.152-.469 1.67-.759 3.734-2.101 8.141-3.642 14.014-3.642 5.682 0 10.301 1.552 13.963 3.693.52.304 1.006.745 1.619.859.367-1.201.006-3.132.305-4.401 1.059-.262 2.143-.083 3.186 0 3.232.258 6.16 1.047 8.602 2.125 3.344 1.477 6.174 3.342 8.549 5.717 4.717 4.714 8.359 11.004 8.5 20.033.068 4.453-1.121 8.313-2.58 11.586-1.494 3.35-3.6 6.027-5.92 8.347-1.188 1.188-2.404 2.328-3.844 3.289-4.176 2.783-9.572 4.915-16.645 4.553-.287-1.248.084-3.153-.203-4.4-.635.025-1.139.508-1.67.809-3.59 2.04-8.373 3.744-14.014 3.693-4.838-.044-8.883-1.237-12.293-2.884-1.144-.553-2.131-1.34-3.287-1.771-.387 1.183.055 3.192-.305 4.401-1.07.285-2.168.069-3.188 0-3.16-.216-6.002-1.025-8.449-2.024-6.49-2.649-11.281-7.316-14.367-13.457-1.555-3.093-2.742-6.73-2.934-10.978-.408-9.012 3.248-15.775 7.487-20.337 2.289-2.462 4.82-4.294 7.943-5.97 3.566-1.912 8.275-3.196 13.609-2.883zm-13.103 17.2c-2.34 2.891-4.391 6.585-3.996 11.939.351 4.77 2.773 8.116 5.312 10.624 2.104 1.764 4.807 3.351 8.094 3.896 1.102.183 2.359.423 3.592.101.268-1.685.152-3.668.152-5.616 0-1.943-.121-3.938.152-5.615.639 1.078.996 2.229 1.568 3.237.572 1.014 1.27 1.934 2.021 2.783 2.707 3.052 7.135 5.704 12.801 5.413 6.609-.34 10.887-3.915 13.457-8.297.541-.924.83-1.997 1.467-2.935.328 3.499-.158 7.82.254 11.181 2.611.333 5.029-.214 6.981-1.012 3.965-1.621 6.766-4.24 8.551-8.044.893-1.907 1.617-4.275 1.568-6.779-.106-5.271-2.26-8.887-5.01-11.636-2.779-2.778-6.668-4.706-11.99-4.451-.279.839-.133 1.82-.15 2.781-.02.935-.051 1.922-.051 2.885 0 1.96.117 3.988-.152 5.716-.562-.977-.863-2.033-1.365-2.984-2.406-4.547-6.943-8.085-13.406-8.499-5.912-.379-10.205 2.242-12.953 5.362-1.168 1.215-2.129 2.816-2.832 4.452-.246.573-.42 1.264-.809 1.518-.094-2.712-.102-5.64-.102-8.55 0-.965.135-1.964-.101-2.833-6.098-.363-10.114 2.231-13.053 5.363z" fill-rule="evenodd"/></svg>