<svg enable-background="new 0 0 16.174 10.434" viewBox="0 0 16.174 10.434" xmlns="http://www.w3.org/2000/svg"><path d="m0 .002c5.389-.004 10.778.001 16.167-.002-.003 1.177-.014 2.355.006 3.532-.069-.063-.067-.164-.105-.244-.139-.351-.34-.675-.568-.974-.399-.55-.922-1.007-1.497-1.366-.601-.375-1.29-.597-1.995-.664-1.188-.139-2.426.163-3.407.852-.703.505-1.298 1.173-1.679 1.954-.391.871-.548 1.849-.427 2.796.147 1.183.756 2.297 1.657 3.074.482.43 1.057.747 1.662.969.883.307 1.852.356 2.764.15 1.45-.347 2.728-1.362 3.377-2.706.08-.165.129-.342.206-.509.031.105-.003.214.002.32.005 1.081-.007 2.162.006 3.243-5.013-.005-10.026-.001-15.04-.002-.377.004-.753-.009-1.129.009.005-3.477.005-6.955 0-10.432z"/></svg>