<svg enable-background="new 0 0 75.463 74.566" viewBox="0 0 75.463 74.566" xmlns="http://www.w3.org/2000/svg"><path clip-rule="evenodd" d="m75.463 35.535c-.753.254-1.589.141-2.393.141-5.905 0-11.666.095-17.356-.047-.344-.903-.386-1.813-.61-2.674-.66-2.543-1.746-4.793-3.236-6.614-1.979-2.417-4.393-4.411-6.145-6.942-.905-1.308-1.768-2.598-2.58-3.987-.799-1.367-1.557-2.793-2.298-4.269-.745-1.481-1.24-3.127-1.783-4.785-.269-.821-.544-1.679-.75-2.533-.202-.84-.268-1.737-.704-2.533-.366.427-.339 1.009-.469 1.501-.402 1.53-.806 3.069-1.266 4.55-.603 1.939-1.471 3.656-2.346 5.395-1.72 3.422-3.826 6.427-6.286 9.194-2.365 2.661-4.979 5.427-6.379 9.1-.746 1.957-1.279 4.141-1.172 6.567.21 4.801 1.883 8.383 4.315 11.164 1.217 1.392 2.58 2.571 4.222 3.518 3.129 1.807 7.58 3.382 12.571 2.533 4.251-.724 7.551-2.859 10.038-5.441 1.917-1.99 3.378-4.344 4.269-7.365.292-.991.27-2.1.657-3.19 6.312-.156 13.293-.156 19.655 0 .172 2.178-.274 4.222-.657 6.146-.377 1.892-.929 3.715-1.595 5.347-1.363 3.339-2.898 6.393-4.925 9.006-5.639 7.161-12.903 12.731-23.643 14.683-5.719 1.039-12.118.577-17.121-.798-5.022-1.38-9.261-3.574-12.853-6.286-3.094-2.335-5.944-5.298-8.256-8.537-.343-.481-.503-1.045-.797-1.595-2.231-4.168-4.517-8.438-5.066-14.073-.066-.676-.261-1.365-.329-2.064-.846-8.705 1.489-16.026 4.55-21.484.586-1.046 1.05-2.09 1.735-3.049.666-.932 1.329-1.842 2.111-2.674 1.665-1.885 3.347-3.664 5.254-5.207 3.842-3.108 8.478-5.438 13.885-6.989 2.113-.606 4.203-.931 6.708-1.125 3.538-.275 7.608-.075 10.929.61 2.574.53 5 1.282 7.13 2.158 4.521 1.856 8.065 4.371 11.258 7.317 6.546 6.041 11.094 13.977 11.728 25.331z" fill-rule="evenodd"/></svg>