<svg enable-background="new 0 0 55.634 81.28" viewBox="0 0 55.634 81.28" xmlns="http://www.w3.org/2000/svg"><g clip-rule="evenodd" fill-rule="evenodd"><path d="m34.921 2.944c-2.535.14-5.163.051-7.835.051-7.923 0-16.271-.171-23.908.051-.27.726-.152 1.515-.152 2.274v16.479c0 3.114-.144 6.244-.05 9.351.186 6.203 0 12.331 0 18.601-.001 9.315-.072 18.772.101 28.256.539.335 1.212.202 1.82.202 10.036.001 19.872.037 29.468.151-.059.615-.631 1.035-1.111 1.517-.406.405-.94 1.118-1.467 1.264-1.016.281-2.681.051-3.993.051-9.241-.003-18.87-.007-27.648-.253-.182-13.532-.101-27.259-.101-40.69 0-5.105-.098-10.299 0-15.265.156-7.937.005-15.807.049-23.961.002-.32-.126-.804.253-1.011 10.631-.055 21.322.096 31.945.051.557.332 1.008.882 1.466 1.364.438.461 1.042.9 1.163 1.517z"/><path d="m40.027 8.302c-9.88.242-21.25-.157-31.491.101-.29.562-.137 1.214-.151 1.82-.106 4.418-.051 9.241-.051 13.9 0 16.067-.083 32.581.101 48.626 1.226.273 2.507.15 3.792.151 8.991.002 18.476.037 27.295.151.043.736-.828.989-1.112 1.567-.62.36-.804 1.081-1.517 1.264-.463.118-1.219 0-1.92 0-9.498.001-20.145.033-29.419-.152-.022-.044-.044-.09-.101-.101-.143-22.515.001-45.861 0-68.188 0-.656-.12-1.386.151-2.022 10.523-.097 21.185.023 31.845.051.547.321 1.005.853 1.466 1.314.431.433 1.003.922 1.112 1.518z"/><path d="m45.283 13.811c-10.625.159-20.869-.092-31.439.101-.252 1.008-.151 2.094-.151 3.134.001 16.69-.09 34.072.101 50.244 1.226.29 2.511.132 3.791.151 8.877.137 18.423-.055 27.244.202-.126.614-.724 1.055-1.162 1.517-.448.472-.894 1.021-1.466 1.313-10.324-.089-20.956.064-31.187-.202-.268-1.123-.142-2.306-.101-3.487.042-1.221 0-2.486 0-3.74-.001-15.676 0-32.231 0-48.424 0-1.083-.108-3.179.151-3.64.037-.047.092-.077.151-.101 8.847-.003 18.686.101 27.498.101 1.254 0 2.839-.182 3.892.051.833.184 1.652 1.377 2.224 1.972.202.209.581.46.454.808z"/><path d="m50.641 19.422c-10.163.164-20.803-.205-31.288.102-.272.806-.152 1.679-.152 2.526-.001 13.252-.056 26.848.051 39.73 1.227.274 2.506.151 3.791.151 8.912-.001 18.351.008 27.094.151.145.366-.245.639-.455.859-.474.499-1.403 1.771-2.123 1.972-.938.262-2.693.051-3.893.051-3.862 0-7.904-.052-11.726-.051-5.486.001-10.747.109-15.568-.151-.199-7.72-.102-15.891-.102-24.061.001-7.042 0-14.102 0-21.28 0-.959-.121-1.954.152-2.881 2.181-.21 5.755.002 8.138-.051 7.562-.168 15.676.067 23.504.051.576.298.952.9 1.415 1.364.441.444 1.088.869 1.162 1.518z"/><path d="m55.594 24.831c-10.108.213-20.985-.235-30.884.102-.316.541-.202 1.229-.202 1.819 0 9.776-.084 20.115.102 29.772 1.225.27 2.508.151 3.791.151 3.577 0 7.542-.012 11.373.051 5.213.085 10.417-.131 15.366.151-.162.614-.593 1.048-1.062 1.517-.36.36-.856 1.068-1.314 1.213-.794.251-2.888.099-3.893.051-3.713-.177-8.11-.139-11.727-.102-5.185.054-10.602.046-15.467-.101-.192-6.276-.051-12.504-.051-18.753 0-3.146.081-6.335-.051-9.452-.099-2.345.051-4.735.051-7.077 0-.737-.121-1.511.101-2.224 2.318-.179 4.746-.088 7.077-.151 4.039-.11 8.101.253 12.182.101 4.049-.15 8.149.095 12.232.051.819.476 1.297 1.384 1.921 2.123.188.221.629.389.455.758z"/></g></svg>