<svg enable-background="new 0 0 17.963 17.76" viewBox="0 0 17.963 17.76" xmlns="http://www.w3.org/2000/svg"><path d="m0 .002c5.987.002 11.974.005 17.962-.002.001 2.793.001 5.586 0 8.378-1.312-.011-2.625-.005-3.937-.003-.023-.004-.069-.012-.092-.016-.059-.078-.062-.179-.073-.272-.241-1.55-1.291-2.937-2.705-3.609-1.377-.683-3.075-.661-4.441.045-.846.436-1.57 1.113-2.035 1.947-.446.743-.634 1.615-.655 2.474.051.646.155 1.297.434 1.889.64 1.459 2.032 2.553 3.599 2.834 1.453.279 3.026-.125 4.145-1.097.299-.308.636-.588.866-.955.431-.623.718-1.35.81-2.103-.774-.012-1.548-.003-2.322-.005-.252 1.141-1.368 1.984-2.525 1.996-.653.008-1.305-.224-1.801-.651-.517-.438-.849-1.092-.898-1.769-.067-.77.223-1.575.8-2.096.527-.546 1.316-.804 2.066-.741.623.038 1.213.322 1.667.744.363.385.635.858.74 1.38.738 0 1.475.001 2.213-.002.019.007.058.023.077.031.008.019.024.058.032.077.001.337-.002.674-.008 1.011 1.347-.024 2.697.006 4.044-.016-.001 2.763 0 5.526-.001 8.288-5.986-.006-11.972-.003-17.957-.002.008-4.305.001-8.611.003-12.916-.005-1.612.012-3.226-.008-4.839z"/></svg>