<svg enable-background="new 0 0 77.953 66.936" viewBox="0 0 77.953 66.936" xmlns="http://www.w3.org/2000/svg"><path clip-rule="evenodd" d="m58.125.323c.257.719.145 1.545.145 2.334v4.963c0 .438-.113 1.994.194 2.285.296.281 1.503.195 2.287.195 4.992 0 9.6.049 14.787.049.814 0 1.981-.094 2.238.193.271.307.146 1.434.146 2.238 0 2.512.001 4.678 0 7.104 0 1.617-.103 3.203-.049 4.766.055 1.568.17 3.148-.146 4.525-.699.258-1.493.144-2.237.144-5.349 0-11.219-.049-16.394.049-.401.232-.292 1.383-.292 2.287 0 4.848-.048 9.217-.049 14.154 0 .82-.091 1.914.146 2.189.254.297 1.432.244 2.189.244 4.899 0 9.22.049 14.399.049.781 0 1.939-.082 2.188.193.261.289.146 1.449.146 2.238-.001 4.756 0 9.412 0 14.205-.001.725.106 1.51-.244 2.092-4.479.176-9.381.098-14.155.096-.72 0-1.571.037-2.384 0-.784-.035-1.658.066-2.237-.096-.748-.211-1.321-1.189-1.945-1.801-1.952-1.91-3.741-3.635-5.692-5.496-.131-.307-.233-.643-.389-.924-1.203-.404-1.826-1.293-2.725-2.189-1.083-1.084-2.158-2.086-3.308-3.211-.526-.516-1.315-1.184-1.557-1.703-.213-.461-.117-1.088-.486-1.361-.312-.232-.77-.121-1.167-.244-.677-.209-.873-1.068-1.605-1.119-.414.565-.243 1.387-.243 2.092-.001 4.494 0 9.201 0 13.768 0 .678.069 1.443-.292 1.994-5.146.219-11.035-.002-16.248 0-2.027 0-3.382-.086-4.426-1.07-.272-.256-.42-.781-.731-1.021-.28-.217-.886-.266-1.216-.486-.541-.361-1.054-.992-1.605-1.508-2.706-2.525-5.124-5.082-7.929-7.637-.485-.443-1.038-.941-1.605-1.508-.522-.525-1.308-1.055-1.554-1.558-.176-.359-.109-.9-.341-1.215-.307-.26-1.066-.197-1.459-.438-.576-.354-.949-1.209-1.313-1.945-.351-.711-.703-1.533-.827-2.385-.284-1.959-.048-4.281-.049-6.324 0-4.398-.501-9.279 1.266-11.576.238-.377.787-.445 1.069-.779.289-1.137 1.002-1.711 1.849-2.578 1.538-1.574 3.156-3.01 4.719-4.572 1.501-1.502 3.024-3.102 4.67-4.621.561-.518 1.04-1.213 1.557-1.508.341-.195.814-.199 1.07-.391.362-.27.351-.854.584-1.166.419-.564 1.164-.955 1.8-1.363.692-.441 1.435-.733 2.237-.924 1.72-.41 4.037-.147 6.178-.147 2.014 0 4.113.049 6.178.049 2.074 0 4.133.178 5.934-.096.383-.609.244-1.467.244-2.287 0-.822 0-1.693 0-2.529 0-1.717-.127-3.449.194-4.816 1.434-.367 3.117-.008 4.67-.146 2.086-.186 4.737.01 7.005.049 1.184.022 2.341 0 3.502 0 1.109-.001 2.25-.042 3.308.194zm-14.156 1.41c-.244 1.189 1.952 1.457 1.703.049-.082-.461-.586-.721-1.07-.633-.484.09-.594.393-.633.584zm-1.945 1.07c1.033-.029.988-1.732-.146-1.606-1.17.132-.744 1.632.146 1.606zm4.67-.777c-.017 1.189 1.998 1.049 1.751-.195-.071-.357-.477-.713-1.07-.584-.369.133-.676.392-.681.779zm9.242.826c.996-.064 1.001-1.889-.292-1.605-1.048.246-.589 1.662.292 1.605zm-5.497-.486c.531-.436-.47-.967-.486-.244.11.135.184.302.486.244zm-.438 2.189c-.021.166.02.272.049.389.23.109.537.025.535-.242-.027-.256-.412-.311-.584-.147zm-3.258 2.772c-.075 1.022 1.701 1.119 1.653.049.015-.973-1.624-1.014-1.653-.049zm3.55.39c.188-.023.295-.127.292-.342-.22-.568-.901.217-.292.342zm-9 2.188c-.065.781.291 1.137 1.07 1.07 1.423-.574-.444-2.439-1.07-1.07zm5.497.535c.157.865 1.825.785 1.557-.486-.386-.922-1.726-.448-1.557.486zm6.86-.777c-.935-.83-1.894 1.029-.778 1.361 1.051.166 1.301-.896.778-1.361zm1.313.486c-.146 1.066 1.65 1.268 1.557.098-.036-.449-.487-.795-1.07-.633-.333.121-.452.281-.487.535zm-4.962.242c.049.217.383.246.535.098.021-.166-.02-.271-.049-.389-.233-.111-.534-.023-.486.291zm-30.987 3.018c.995.359 1.392-1.213.682-1.801-.498-.154-.998.016-1.119.389-.036.717.005 1.254.437 1.412zm3.358-1.557c-.116.379-.186 1.018 0 1.312.598.955 1.903-.475 1.118-1.41-.326-.251-.88-.207-1.118.098zm4.668-.195c-.963-.572-1.461.981-.875 1.606 1.022.818 1.625-1.159.875-1.606zm3.114 1.752c1.106.113 1.098-2.127-.194-1.752-.63.324-.477 1.682.194 1.752zm3.503-.049c1.303.508 1.299-2.209 0-1.703-.69.121-.613 1.557 0 1.703zm3.842-.049c.34-.291.383-1.18.098-1.557-1.5-.995-1.667 2.325-.098 1.557zm23.253-.146c1.048 0 .975-1.775-.244-1.508-1.097.242-.458 1.508.244 1.508zm10.07-.924c-.132 1.088 1.779 1.207 1.557-.049-.065-.367-.517-.672-1.021-.535-.352.152-.501.285-.536.584zm-5.401.098c-.047 1.156 1.706 1.055 1.654.047-.025-.484-.402-.842-1.07-.68-.4.097-.573.373-.584.633zm2.774.046c-.008 1.166 2.069 1.008 1.41-.484-.525-.473-1.405-.197-1.41.484zm6.129.829c1.012-.021 1.101-1.803-.243-1.508-.938.261-.549 1.525.243 1.508zm-20.382-.389c-.043-.766-1.229-.961-1.557-.244-.195 1.425 1.613 1.259 1.557.244zm-3.843.193c.186.023.31-.014.389-.096 0-.082 0-.164 0-.244-.241-.291-.684.086-.389.34zm23.495 2.043c.025 1.113 1.713.932 1.605-.096-.041-.383-.437-.789-1.07-.633-.339.137-.544.342-.535.729zm-32.301.244c-.134 1.092 1.669 1.215 1.605.098-.028-.512-.5-.799-1.021-.682-.428.096-.559.395-.584.584zm8.806.242c.124.129.333.197.486.049.021-.166-.02-.272-.049-.389-.243-.12-.494.018-.437.34zm-7.978 3.504c.976-.027 1.034-1.764-.194-1.508-.947.196-.643 1.532.194 1.508zm11.87-.828c-.058-.859-1.47-.957-1.605 0 .067 1.157 1.668.967 1.605 0zm-3.892.098c1.152.184-.199-1.164 0 0zm10.313 1.994c-.015.375.599.375.584 0-.007-.31-.582-.332-.584 0zm2.821.195c.134.338.744.297.632-.244-.197-.252-.667-.142-.632.244zm5.545-.048c.061.293.445.354.633.146.247-.502-.618-.672-.633-.146zm2.627.146c.116.105.369.127.535.049.055-.187.115-.225.049-.439-.283-.247-.806-.016-.584.39zm-5.4.098c.117.029.222.068.39.047.589-.538-.732-.862-.39-.047zm8.611-.293c-.021-.338-.69-.395-.584.195.277.227.599.057.584-.195zm-33.323.486c-.039 1.014 1.635 1.051 1.605.049-.015-.516-.515-.789-1.021-.682-.467.102-.575.424-.584.633zm35.268-.291c.089.23.443.234.584.049 0-.113 0-.227 0-.342-.19-.199-.693-.105-.584.293zm-29.722.242c-.115.998 1.537 1.137 1.557.146.007-.355-.269-.543-.535-.73-.714-.064-.976.192-1.022.584zm3.26.293c.137.059.3.059.438 0 .011-.039.001-.096.049-.098.079-.58-.778-.4-.487.098zm9.875 1.75c-.131 1.082 1.582 1.164 1.604.195.013-.535-.488-.807-.875-.779-.548.039-.702.352-.729.584zm-9.778.926c.287.043.413-.074.438-.293-.127-.531-.892-.027-.438.293zm10.847 2.625c.891-.242.556-1.914-.535-1.508-.882.205-.593 1.801.535 1.508zm9.827-.826c-.02 1.209 1.665 1.051 1.605.049-.025-.436-.472-.857-1.07-.682-.298.092-.483.297-.535.633zm3.454.924c1.248.102 1.045-1.98-.194-1.557-.811.154-.613 1.559.194 1.557zm-47.429.779c.723-.051.792-1.197.438-1.801-1.316-.978-1.794 1.897-.438 1.801zm2.968-.244c1.319 1.117 1.775-2.135.291-1.701-.641.093-.547 1.248-.291 1.701zm4.086.195c1.125.113 1.083-2.152-.146-1.85-.726.264-.557 1.78.146 1.85zm3.502-.049c.922.352 1.245-.975.778-1.654-1.145-.842-1.668 1.314-.778 1.654zm-21.112.147c.763-.041.816-1.305.34-1.801-1.383-.625-1.534 1.863-.34 1.801zm4.281-.389c.447-1.107-.688-1.994-1.313-1.168-.074.377-.091 1 .049 1.312.284.397 1.1.256 1.264-.144zm2.286-1.07c-.002.625.004 1.113.341 1.312.96.568 1.504-.971.827-1.654-.433-.231-1.064-.055-1.168.342zm-17.658 1.554c.855-.029 1.012-2.229-.244-1.896-.834.221-.662 1.93.244 1.896zm3.794-.046c.884-.15.849-2.266-.438-1.85-.807.371-.524 2.012.438 1.85zm2.918-1.655c-.397.85.163 2.066 1.07 1.459.703-.771-.175-2.304-1.07-1.459zm40.473.633c.064.941 1.629.977 1.606-.049-.011-.465-.374-.846-.974-.73-.409.08-.663.318-.632.779zm2.628-.049c.008 1.076 1.802 1.01 1.605-.098-.054-.303-.287-.392-.583-.633-.133.031-.387-.061-.439.049-.357.116-.586.301-.583.682zm-4.622.242c.131-.065.285-.104.243-.34-.242-.548-.87.278-.243.34zm5.546 3.309c.89-.041 1.004-1.725-.194-1.508-.996.18-.648 1.545.194 1.508zm-5.838-1.07c-.156.541.637.57.584.098-.059-.266-.43-.301-.584-.098zm-15.371.146c-4.02 0-8.349.068-12.308-.098-.829-.035-1.815-.143-2.481 0-.727.154-.583 1.166-.583 2.092-.001 4.269-.049 8.148-.049 11.967 0 1.627-.144 3.471.194 4.719.751.254 1.58.141 2.384.145 4.159.023 8.574.098 12.696.098 1.674 0 3.35.145 4.864-.146.263-1.463.146-3.058.146-4.621-.001-3.99.048-7.738.049-11.723 0-.766.138-1.574-.195-2.238-1.498-.294-3.095-.197-4.717-.195zm-18.632 1.313c.466.512 1.82.197 1.898-.34.112-.783-.755-.924-1.508-.779-.657.066-.663.818-.39 1.119zm-14.496-.34c-.107.912 1.431.877 1.898.486.665-1.193-1.812-1.566-1.898-.486zm39.645 1.848c.006 1.088 1.853.971 1.605-.195-.061-.285-.389-.565-.826-.533-.479.032-.781.269-.779.728zm2.823 0c.013.904 1.593 1.035 1.653.098.037-.568-.384-.967-1.021-.826-.383.083-.639.312-.632.728zm3.648.779c1.062-.018.941-1.795-.292-1.412-.909.304-.434 1.424.292 1.412zm2.335-.682c.158.164.425.164.583 0 .027-.193.027-.147 0-.34-.23-.197-.7-.099-.583.34zm-34.052 1.362c-.126 1.072 2.071 1.062 2.043.098-.019-.656-.745-.779-1.411-.633-.485.107-.602.288-.632.535zm-14.35.146c-.164 1.012 1.366 1.041 1.897.584.65-1.301-1.748-1.504-1.897-.584zm39.645 1.217c.429 1.051 2.181.23 1.46-.73-.145-.191-.502-.355-.876-.242-.413.105-.645.39-.584.972zm11.189-.098c.052.857 1.492 1.014 1.605.098.06-.48-.304-1.012-1.021-.877-.362.133-.609.363-.584.779zm2.675.147c.137.81 1.554.725 1.605-.098.034-.549-.47-.836-.925-.779-.57.072-.757.422-.68.877zm-5.01-.293c.023.33.396.404.584.195.131-.463-.503-.49-.584-.195zm-34.1 2.529c.034 1.016 2.098.904 2.043-.049-.034-.594-.891-.801-1.557-.582-.434.141-.493.445-.486.631zm25.295.098c-.082 1.084 1.801 1.283 1.654-.146-.278-.761-1.591-.677-1.654.146zm-39.645 0c-.107 1.371 2.837.809 1.8-.389-.491-.305-1.776-.344-1.8.389zm49.034.195c.021-.168-.02-.273-.049-.391-.802-.318-.496.953.049.391zm-9.438 2.627c.006.941 1.538 1.086 1.654.145.06-.492-.321-1.031-1.07-.875-.363.13-.586.328-.584.73zm9.487.098c.098-.52-.731-.506-.584.047.141.187.482.169.584-.047zm-32.69.388c-.165-.799-2.552-.822-1.897.535.512.412 2.093.416 1.897-.535zm-16.345.242c-.006 1.09 2.023.938 1.994.049-.019-.582-.775-.732-1.459-.584-.307.049-.486.229-.535.535zm39.597 2.043c.087.773 1.354.887 1.654.146.171-1.407-1.775-1.235-1.654-.146zm13.864-.242c-.206 1.061 1.536 1.184 1.605.193.038-.555-.47-.834-.925-.777-.527.067-.635.35-.68.584zm-5.01.049c-.035.314.279.414.535.291.011-.037.001-.096.049-.098.047-.427-.443-.455-.584-.193zm-34.101 1.459c-.083.951 1.631.959 1.946.486.242-.363-.009-.766-.243-.973-.794-.242-1.641-.214-1.703.487zm-14.35.291c.058.783 2.137.916 2.043-.096-.054-.582-.86-.668-1.557-.535-.394.07-.503.389-.486.631zm39.597.877c-.122 1.367 1.856 1.109 1.654-.049-.07-.404-.397-.717-1.021-.584-.427.09-.609.358-.633.633zm9.486.144c-.004-.24-.372-.383-.584-.145-.077.618.589.505.584.145zm-34.733 2.336c.017.75 1.408 1.031 1.898.486.684-.764-.418-1.297-1.265-1.119-.421.09-.641.249-.633.633zm-12.258 0c-.108-.5-.898-.561-1.557-.438-1.966 1.001 1.925 2.138 1.557.438zm46.504.633c.138.059.301.059.438 0 .011-.039.001-.098.049-.098.083-.538-.782-.355-.487.098zm-27.727 3.114c.439-.262.464-1.32 0-1.654-1.659-.733-1.395 2.484 0 1.654zm2.578-1.364c-.349.984.439 1.844 1.217 1.266.769-.891-.503-2.287-1.217-1.266zm4.281 1.412c.742.023.858-1.094.438-1.606-1.198-.739-1.472 1.573-.438 1.606zm3.016-1.461c-.128.422-.097.967.098 1.315 1.711 1.121 1.469-2.711-.098-1.315zm3.794-.193c-.639.68-.019 2.275 1.021 1.557.479-.711.017-2.084-1.021-1.557zm7.831.973c-.036 1.102 1.6.98 1.605.049.004-.51-.316-.858-1.021-.682-.403.101-.573.332-.584.633zm4.427.193c.143-.92-1.393-1.248-1.557-.193-.028 1.017 1.439.961 1.557.193zm5.595-.291c-.117-.66-1.292-.811-1.557-.098-.19 1.362 1.753 1.207 1.557.098zm1.07.147c.005.892 1.736 1.101 1.605-.098-.044-.4-.469-.756-1.022-.584-.388.119-.585.361-.583.682zm10.166.144c-.014-.553-.477-.916-1.021-.777-1.653.531.641 2.5 1.021.777zm2.092.731c.969-.082.896-1.76-.291-1.508-1.017.215-.666 1.59.291 1.508zm2.579.048c1.124.008.928-1.945-.292-1.508-.717.139-.537 1.649.292 1.508zm2.626-.048c1.043.014 1.207-1.719-.194-1.459-.938.236-.566 1.449.194 1.459zm3.649-.731c-.025-.871-1.581-1.078-1.653 0 .046 1.156 1.678.869 1.653 0zm-60.028.682c.351.369 1.373.289 1.751 0 .789-1.428-2.546-1.453-1.751 0zm45.288 2.675c1.101.148 1.205-1.77-.146-1.41-.997.264-.33 1.346.146 1.41zm-43.391.536c.126-1.326-2.763-.898-1.799.389.605.296 1.731.327 1.799-.389zm34.344 1.312c0 .826 1.27 1.145 1.605.293.187-1.375-1.605-1.266-1.605-.293zm23.787.195c-.061-.506-.484-.91-1.069-.729-1.658.772.902 2.491 1.069.729zm-60.077 1.946c0 .771 1.269.793 1.849.391.425-.822-.589-1.199-1.362-.975-.357.043-.487.301-.487.584zm53.802.926c.189-.002.284-.113.34-.342-.344-.821-1.058.342-.34.342zm5.156-.196c.157.154.377.154.534 0 0-.098.001-.195 0-.291-.185-.209-.627-.162-.534.291zm-22.133-.097c0 .346.608.461.584-.098-.18-.334-.584-.18-.584.098zm13.961 0c.028.289.571.342.584 0-.013-.403-.544-.321-.584 0zm5.399.146c.183.238.627.143.633-.195-.057-.008-.053-.076-.049-.145-.211-.213-.724-.101-.584.34zm-16.198.193c.043-.102.147-.143.146-.291-.237-.716-1.053.381-.146.291zm2.431-.144c.179.234.638.152.535-.293-.18-.199-.649-.1-.535.293zm5.595-.098c.064.373.705.285.584-.195-.164-.191-.62-.108-.584.195zm-2.676.049c.069.092.15.174.243.242.169-.041.332-.09.341-.291-.007-.345-.624-.31-.584.049zm-5.448 3.26c1.019-.088.811-1.701-.292-1.51-1.111.195-.599 1.584.292 1.51zm1.995-.731c.047.932 1.807 1 1.604-.195-.066-.395-.546-.709-1.119-.535-.369.146-.502.4-.485.73zm14.739.827c.992-.043.951-1.818-.39-1.459-.968.316-.366 1.492.39 1.459zm-54.677-.487c.137-.895-1.358-1.01-1.896-.438-.1.221-.043.555.049.73.535.306 1.75.351 1.847-.292zm19.41 1.85c-.753-1.145-1.934.6-1.07 1.361.871.424 1.346-.486 1.07-1.361zm20.528.388c0 1.025 1.658 1.074 1.653.049-.002-.48-.399-.871-.973-.779-.422.068-.68.322-.68.73zm5.691-.048c-.155 1.168 1.756 1.223 1.703.098-.024-.527-.505-.83-1.021-.73-.481.093-.649.388-.682.632zm-38.429-.147c-.33 1.119.726 1.701 1.314 1.021.516-1.202-.844-2.054-1.314-1.021zm4.427-.486c-.877-.166-.981 1.254-.487 1.703 1.097.588 1.314-1.545.487-1.703zm4.086.293c-.929-.992-1.891.592-1.07 1.361.838.522 1.479-.492 1.07-1.361zm27.094.34c-.139 1.016 1.472 1.293 1.605.293.086-.639-.422-1.033-1.07-.877-.345.142-.497.304-.535.584zm11.87.972c.99-.049 1.032-1.664-.098-1.557-1.154.11-.817 1.604.098 1.557zm1.751-.777c.02.934 1.552 1.055 1.654.146.071-.645-.462-.955-.876-.926-.581.044-.785.421-.778.78zm-51.709.875c.313-.391.248-1.363-.146-1.606-1.774-.644-1.214 2.715.146 1.606z" fill-rule="evenodd"/></svg>