<svg enable-background="new 0 0 101.727 102.297" viewBox="0 0 101.727 102.297" xmlns="http://www.w3.org/2000/svg"><g clip-rule="evenodd" fill-rule="evenodd"><path d="m99.408 66.544c-9.556.208-18.241.223-28.033 0-.255-12.3-.091-24.298-.12-35.58-12.82-.564-26.966-.078-40.492-.24-.202-8.65-.188-18.107 0-26.236 5.053-2.423 11.097-4.107 17.97-4.433 9.726-.46 18.382 2.022 25.038 5.511 13.023 6.826 22.858 18.087 26.715 34.263 1.953 8.19 1.605 18.433-1.078 26.715z"/><path d="m50.05 35.756c6.475-.412 11.529 3.428 13.896 7.308 2.45 4.014 2.968 10.255.839 14.855-3.433 7.414-14.479 11.986-23.002 5.87-4.341-3.115-7.67-10.116-5.63-17.131 1.09-3.75 2.755-5.403 5.032-7.308 2.268-1.899 4.737-3.332 8.865-3.594z"/><path d="m30.523 35.875c.268 11.692.003 24.113.12 35.82 13.759.37 27.211-.15 40.612.24.128 8.615.048 15.702 0 26.116-6.529 2.893-13.898 4.57-22.283 4.193-21.582-.971-35.958-12.778-43.727-28.512-4.842-9.807-7.498-25.494-2.755-37.857 9.388.07 19.58-.148 28.033 0z"/></g></svg>