<svg enable-background="new 0 0 56.677 77.052" viewBox="0 0 56.677 77.052" xmlns="http://www.w3.org/2000/svg"><path clip-rule="evenodd" d="m56.677 24.446c-.501.215-1.134.193-1.737.198-1.665.015-3.723-.048-5.508-.099-.58-.655-.828-1.49-1.291-2.184-1.303-1.957-3.298-3.79-5.806-4.566-3.991-1.235-8.18-.085-10.67 2.035-2.505 2.133-4.359 5.696-3.722 9.776.434 2.781 1.982 4.985 3.821 6.551.594.506 1.252 1.135 1.936 1.489 2.777 1.439 6.888 1.514 9.876.149 1.34-.612 2.525-1.564 3.474-2.581.994-1.066 1.586-2.404 2.332-3.672 1.179-.135 2.444-.011 3.672 0 1.217.011 2.515-.231 3.573.099.112 1.168-.207 2.319-.496 3.374-.857 3.133-2.156 5.898-3.772 8.338-2.156 3.255-4.459 6.378-6.65 9.479-4.461 6.313-8.904 12.482-13.25 19.007-.799 1.315-1.869 2.609-2.878 4.02-.301.42-.645 1.162-1.092 1.191-.741.048-1.868-2.071-2.233-2.581-2.06-2.87-3.995-5.707-5.906-8.536-5.291-7.833-10.393-14.928-15.683-22.828-1.269-1.894-2.329-4.049-3.176-6.452-.837-2.375-1.458-5.289-1.489-8.139-.096-9.007 3.524-15.315 7.94-19.95 2.196-2.305 5.038-4.257 8.188-5.757 3.153-1.501 7.017-2.577 11.315-2.779 2.179-.103 4.354.067 6.204.546 1.88.486 3.622.843 5.211 1.489 3.218 1.309 6.018 2.967 8.437 5.012 4.676 4.208 8.402 9.63 9.38 17.371zm-21.092-15.782c-2.257-.801-5.05-1.434-8.089-1.29-5.662.268-10.924 2.85-14.193 6.253-3.33 3.466-5.906 8.352-5.906 14.392 0 3.097.758 5.8 1.737 7.99 1.004 2.246 2.316 4.063 3.921 5.807 3.028 3.168 7.3 5.918 12.853 6.65 4.022.529 7.961-.238 10.769-1.39.363-.149.944-.288 1.042-.744-.539-.392-1.208-.294-1.787-.397-1.905-.34-3.54-.955-5.062-1.637-1.98-.889-3.687-2.248-5.161-3.722-2.843-2.843-5.36-6.877-5.36-12.407 0-5.595 2.18-9.736 5.062-12.705 2.574-2.65 5.913-4.509 10.223-5.31.617-.114 1.281-.033 1.886-.347-.363-.659-1.232-.893-1.935-1.143zm-2.879 47.047c-1.885.237-4.073.317-6.154.199-1.447-.083-2.862-.465-3.97-.447-.268.482.226.87.447 1.191 1.263 1.837 2.532 3.59 3.771 5.41.265.389 1.157 2.03 1.688 2.035.447.003.937-.92 1.191-1.29.407-.592.723-.996 1.042-1.439.694-.963 1.552-1.958 2.084-2.878.302-.522.521-.953.844-1.39.314-.426.706-.837.844-1.439-.535-.299-1.189-.027-1.787.048z" fill-rule="evenodd"/></svg>