<svg enable-background="new 0 0 84.336 77.633" viewBox="0 0 84.336 77.633" xmlns="http://www.w3.org/2000/svg"><g clip-rule="evenodd" fill-rule="evenodd"><path d="m41.941.81c-.533.536-.673 1.466-.949 2.25-.829 2.35-1.514 4.819-2.349 7.247-2.177 6.327-4.244 12.745-6.498 19.093-1.124 3.166-2.078 6.391-3.199 9.547-2.248 6.331-4.442 12.682-6.548 19.044-1.849 5.587-3.73 11.114-5.698 16.693-.263.747-.383 1.603-.899 2.25-.967-.365-1.648-1.146-2.349-1.8-.713-.665-1.349-1.42-2-2.149-5.047-5.427-8.523-12.111-10.447-20.543-1.025-4.488-1.25-9.443-.75-14.045.996-9.173 4.357-16.227 8.847-22.092 2.207-2.883 4.845-5.562 7.797-7.698 6.132-4.437 13.165-8.051 22.592-8.546 5.704-.301 10.77.532 15.144 1.949 11.629 3.765 20.155 11.506 25.243 21.792.242.488.49.956.7 1.449.213.501.286 1.053.5 1.6 1.624 4.141 2.922 8.506 3.199 13.895.351 6.845-.883 13.394-2.799 18.493-.394 1.051-.699 2.134-1.15 3.1-1.786 3.828-4.108 7.275-6.797 10.296-.999 1.122-1.991 2.252-3.149 3.249-.356.307-.707.726-1.2.8-.47-.137-.47-.699-.6-1.05-.993-2.674-1.956-5.562-2.949-8.297-3.421-9.424-6.715-19.034-10.097-28.59-1.68-4.747-3.441-9.51-5.048-14.295-2.39-7.118-5.16-14.228-7.547-21.443-.126-.38-.309-.77-.45-1.149-.13-.352-.159-.852-.55-1.05z"/><path d="m54.087 46.894c2.592 2.602 4.669 5.708 5.298 10.047.723 4.986-.432 9.141-2.349 12.396-1.75 2.972-4.77 5.761-8.247 7.098-1.975.759-3.955 1.2-6.448 1.199-2.458 0-4.441-.473-6.348-1.299-3.46-1.5-6.347-3.922-8.247-7.098-1.909-3.192-3.214-7.529-2.399-12.396.731-4.37 2.617-7.467 5.248-10.097 2.629-2.63 6.108-4.135 10.796-4.698 1.337-.161 2.887.04 4.098.3 3.586.767 6.448 2.481 8.598 4.548z"/></g></svg>