<svg enable-background="new 0 0 18.654 30.367" viewBox="0 0 18.654 30.367" xmlns="http://www.w3.org/2000/svg"><path d="m0 4.91c5.371-1.607 10.713-3.313 16.085-4.91.628 2.04 1.267 4.078 1.866 6.126-5.353 1.616-10.677 3.326-16.042 4.902-.645-2.037-1.276-4.078-1.909-6.118z"/><path d="m1.895 13.312c5.572-.011 11.142.041 16.714.061-.005 1.955-.014 3.909-.02 5.864-2.768.032-5.542-.033-8.312-.008-.002 1.464-.012 2.927-.014 4.391 2.796.038 5.591.044 8.388.053.017 2.232-.061 4.462-.054 6.693-5.594-.012-11.185-.056-16.78-.06.006-5.665.076-11.328.078-16.994z"/></svg>