<svg enable-background="new 0 0 81.31 78.963" viewBox="0 0 81.31 78.963" xmlns="http://www.w3.org/2000/svg"><path clip-rule="evenodd" d="m62.801.042c4.11 2.83 7.499 6.496 10.4 10.602 2.894 4.096 5.217 8.871 6.614 14.339.705 2.76 1.355 5.886 1.464 9.037.356 10.28-2.415 18.605-6.412 24.891-5.378 8.458-13.162 14.966-23.679 18.227-5.23 1.621-12.265 2.382-18.681 1.363-5.977-.948-10.864-3.044-15.197-5.756-2.044-1.279-4.157-2.844-5.907-4.595-1.75-1.749-3.554-3.481-4.898-5.554-.337-.52-.609-1.114-.959-1.666-2.285-3.593-4.302-8.162-5.099-13.228-1.037-6.581-.2-13.299 1.767-18.176.998-2.476 2.238-4.78 3.635-6.867.713-1.063 1.396-2.084 2.222-3.028 4.026-4.603 9.185-8.222 16.005-10.148 4.115-1.163 9.172-1.76 13.985-.858 4.467.836 7.939 2.332 11.259 4.443 4.227 2.688 7.837 6.209 10.148 10.805.586 1.167 1.202 2.355 1.616 3.636.415 1.284.656 2.636 1.211 3.988.392-4.887.252-10.149.252-15.551 0-4.532 0-9.269 0-13.935 0-.693-.077-1.558.101-1.919.007-.04.168-.153.153-.05zm-19.236 34.13c-.505-2.146-2.027-4.097-3.736-5.301-1.859-1.311-4.058-2.191-6.866-2.172-4.504.032-7.763 2.068-10.098 4.544-2.03 2.208-3.581 4.924-4.039 8.583-.504 4.023.438 7.635 1.969 10.401 2.772 5.009 8.362 9.128 15.298 9.996 4.059.509 7.812-.123 10.956-1.262 1.47-.532 2.833-1.391 4.14-2.171 1.342-.802 2.627-1.757 3.635-2.727 2.083-2.001 4.08-4.472 5.301-7.321 1.252-2.919 2.385-6.269 2.222-10.249-1.431-.291-2.954-.101-4.494-.101-4.519-.001-9.367-.013-13.935-.151-.257-.658-.2-1.417-.353-2.069z" fill-rule="evenodd"/></svg>