<svg enable-background="new 0 0 78.001 77.358" viewBox="0 0 78.001 77.358" xmlns="http://www.w3.org/2000/svg"><path clip-rule="evenodd" d="m50.565 43.392c-.099.535.473.84.762 1.168 2.118 2.412 4.563 4.717 6.856 7.01 1.314 1.314 2.661 2.609 4.012 3.91 1.342 1.293 2.586 2.688 3.911 4.012 2.601 2.602 5.445 5.191 8.075 7.822 1.255 1.254 2.934 2.559 3.251 4.672.362 2.42-1.119 4.18-2.895 4.928-1.665.699-5.15.354-7.618.354-7.819.002-15.666.162-23.515.053-2.658-.039-5.207.002-7.618-.152-2.485-.16-4.737-.555-6.856-1.068-7.238-1.752-13.17-5.502-17.725-10.055-.662-.662-1.189-1.396-1.829-2.133-4.948-5.695-8.441-12.684-9.243-22.5-.196-2.395-.198-4.9.152-7.363.325-2.289.63-4.623 1.27-6.654 1.84-5.846 5.035-10.938 8.787-15.033 3.735-4.078 8.573-7.408 14.17-9.6 2.941-1.15 5.904-1.928 9.446-2.438 5.437-.781 11.648-.064 16.202 1.27.855.252 1.691.647 2.539.965 9.048 3.4 16.208 9.617 20.569 17.625 2.374 4.355 4.421 9.648 4.724 16.15.208 4.482-2.685 6.779-6.907 6.957-6.752.283-14.047-.275-20.52.1zm17.37-12.342c-1.624-6.266-5.209-11.078-9.447-14.678-4.905-3.891-11.212-7.687-20.366-7.262-10.862.506-18.084 5.295-23.363 11.885-1.91 2.383-3.556 5.408-4.571 8.633-.361 1.149-.524 2.352-.762 3.658-.463 2.545-.625 5.254-.406 8.074.204 2.625.832 5.057 1.372 7.467 1.002 2.043 1.887 4.025 3.047 5.84 1.146 1.791 2.51 3.445 3.962 4.926 4.293 4.379 10.373 7.766 18.08 8.635 2.708.305 5.647.152 8.786.152 5.866 0 12.011.152 17.623-.102.096-.445-.356-.764-.609-1.016-2.071-2.07-4.2-3.996-6.247-6.045-2.312-2.311-4.632-4.684-7.009-7.059-2.263-2.262-4.624-4.623-7.009-7.008-1.11-1.111-2.345-2.244-3.504-3.506-1.447-1.574-3.327-3.805-2.082-6.449.946-2.012 2.989-3.1 5.942-3.098 7.365.002 15.358.236 22.601-.051 1.487-.061 2.949.209 4.317-.152.149-.971-.128-1.965-.355-2.844z" fill-rule="evenodd"/></svg>