<svg enable-background="new 0 0 35.074 35.397" viewBox="0 0 35.074 35.397" xmlns="http://www.w3.org/2000/svg"><path d="m16.322.043c4.614-.331 9.351 1.26 12.779 4.375-.284.505-.808.983-1.269 1.339-4.266-3.767-10.669-4.987-15.957-2.803-2.536.915-4.716 2.632-6.447 4.674-4.928 5.726-4.777 15.091.402 20.617.48-.477 1.112-.94 1.403-1.525-3.804-4.224-4.403-10.93-1.563-15.833 1.455-2.72 3.972-4.768 6.795-5.946 4.594-1.93 10.186-.935 13.928 2.329-1.245 1.195-2.449 2.44-3.659 3.673-.152.178-.376.498-.606.225-3.006-2.255-7.687-1.965-10.223.872-3.166 2.934-3.126 8.517.077 11.409 2.626 2.86 7.413 3.027 10.383.603.417.456.961.852 1.285 1.361-2.699 2.17-6.621 2.768-9.832 1.428-3.573-1.305-6.026-4.991-6.103-8.762-.175-3.394 1.554-6.841 4.433-8.668 2.859-2.035 6.872-2.118 9.935-.478.494-.457.921-.986 1.451-1.403-3.46-2.14-8.126-2.289-11.652-.222-2.597 1.221-4.461 3.677-5.449 6.326-1.644 4.519-.325 10.08 3.469 13.12-1.351 1.38-2.693 2.767-4.039 4.151-3.715-3.258-5.923-8.174-5.86-13.122-.094-4.633 1.785-9.241 5.052-12.518 2.954-3.031 7.035-4.961 11.267-5.222z"/><path d="m26.426 9.903c1.349-1.374 2.71-2.741 4.101-4.067 5.141 5.476 6.017 14.37 2.141 20.786-2 3.385-5.105 6.144-8.79 7.557-5.386 2.188-11.835 1.386-16.526-2.044 1.328-1.435 2.701-2.833 4.089-4.209.328-.001.627.298.936.427 4.035 2.086 9.221 1.358 12.663-1.557.537.207.907.85 1.375 1.232-3.845 3.503-9.836 4.418-14.533 2.156-.551.494-1.081 1.012-1.584 1.557 3.307 1.788 7.288 2.246 10.931 1.339 6.319-1.518 11.391-7.292 11.913-13.794.423-3.753-.616-7.616-2.771-10.708-.49.479-1.196.993-1.419 1.587 3.237 4.943 2.896 12.053-1.127 16.442-1.432-1.232-2.697-2.648-4.054-3.961 2.252-2.834 2.249-7.155-.062-9.955.443-.426.827-.981 1.344-1.289 2.529 2.968 2.967 7.446 1.16 10.888.255.604.948 1.012 1.383 1.533 2.651-4.256 2.129-10.157-1.17-13.92z"/><path d="m13.448 13.069c2.024-1.881 5.379-2.051 7.578-.378-.435.449-.887.883-1.319 1.336-1.679-1.037-4.051-.755-5.348.761-1.721 1.777-1.398 4.98.646 6.376 1.171.861 2.795 1.051 4.125.462.778-.591 1.327.635 1.823 1.081-2.145 1.637-5.433 1.467-7.434-.351-2.708-2.314-2.737-6.933-.071-9.287z"/></svg>