<svg enable-background="new 0 0 74.514 75.188" viewBox="0 0 74.514 75.188" xmlns="http://www.w3.org/2000/svg"><path clip-rule="evenodd" d="m74.467 34.453c-8.066.16-16.495.036-25.143 0-.385-.176-.409-.63-.516-.938-.832-2.388-2.313-4.311-4.269-5.723-2.236-1.614-5.014-2.834-8.866-2.393-3.259.374-5.651 1.986-7.505 3.94-1.81 1.906-3.237 4.655-3.237 8.209 0 3.482 1.391 6.339 3.143 8.303 1.859 2.083 4.27 3.411 7.459 3.987 3.64.658 6.839-.702 8.959-2.204 2.29-1.624 3.67-3.877 4.691-6.708.055.007.083-.011.094-.047 8.404-.055 17.158-.141 25.236.094-.573 8.374-3.605 14.776-7.646 19.936-4 5.107-9.395 9.227-15.855 11.774-3.37 1.328-7.173 2.19-11.398 2.439-8.906.526-16.308-2.189-21.859-5.582-5.565-3.4-10.22-8.315-13.368-14.259-1.654-3.122-2.926-6.343-3.659-10.179-.778-4.072-.954-8.484-.422-12.759.497-3.996 1.776-7.514 3.19-10.601 2.865-6.254 7.161-11.1 12.571-15.058 3.987-2.917 8.911-5.044 14.635-6.098 1.985-.365 4.045-.468 6.333-.562 5.729-.236 11.049 1.354 15.058 3.049 4.336 1.833 7.865 4.235 10.882 7.083 4.411 4.455 8.365 9.712 10.32 16.699.331 1.181.494 2.472.751 3.753.244 1.221.533 2.517.421 3.845z" fill-rule="evenodd"/></svg>