<svg enable-background="new 0 0 11.259 15.925" viewBox="0 0 11.259 15.925" xmlns="http://www.w3.org/2000/svg"><path d="m2.518.947c1.167-.787 2.638-1.092 4.025-.883 1.148.162 2.24.691 3.078 1.492.762.71 1.312 1.641 1.579 2.648-.632-.004-1.265 0-1.897-.003-.3-.698-.78-1.332-1.423-1.747-.739-.504-1.653-.75-2.545-.66-1.408.114-2.714 1.065-3.244 2.377-.261.595-.329 1.26-.257 1.902.113.848.522 1.661 1.15 2.245.342.349.77.605 1.214.801.176.08.368.121.546.195.111-.775.357-1.54.796-2.193.68-1.055 1.741-1.862 2.947-2.215.517-.157 1.058-.232 1.598-.226.391 0 .783.004 1.174-.003-.013.606-.006 1.211-.004 1.817-.516.006-1.032-.011-1.548.01-.73.073-1.431.387-1.982.869-.57.501-.965 1.194-1.112 1.938.561-.16 1.099-.415 1.552-.785.506-.412.906-.959 1.141-1.569.634-.001 1.269.004 1.903-.003-.253.951-.741 1.849-1.449 2.538-.821.854-1.928 1.413-3.092 1.618.011 1.603-.01 3.208.011 4.811-.669 0-1.338-.004-2.007.003 0-1.611.002-3.221-.001-4.832-.824-.134-1.621-.46-2.297-.951-1.06-.733-1.852-1.854-2.184-3.101-.275-1.015-.25-2.107.063-3.111.377-1.218 1.204-2.282 2.265-2.982z"/><path d="m5.073 3.33c.101-.516.397-.976.774-1.335.418.375.713.89.801 1.447.092.523-.011 1.074-.267 1.537-.121.262-.331.462-.528.666-.462-.402-.774-.981-.818-1.596-.047-.239.005-.481.038-.719z"/><path d="m3.367 3.808c.331.069.66.178.938.374.464.32.822.797.963 1.346.114.421.104.874-.022 1.292-.475-.093-.938-.312-1.277-.663-.627-.582-.857-1.537-.602-2.349z"/><path d="m2.366 6.043c.564-.03 1.151.105 1.61.443.597.432.988 1.162.948 1.905-.459.032-.927-.047-1.339-.258-.429-.239-.797-.597-1.01-1.043-.147-.327-.243-.686-.209-1.047z"/></svg>