<svg enable-background="new 0 0 77.319 46.815" viewBox="0 0 77.319 46.815" xmlns="http://www.w3.org/2000/svg"><g clip-rule="evenodd" fill-rule="evenodd"><path d="m22.802 46.636c-.262-1.731-.097-3.664-.097-5.586 0-5.718.001-11.689 0-17.626 0-5.859.05-11.772.049-17.818 0-1.683 0-2.642 0-4.382 0-.932.002-1.058.529-1.156.819-.153 1.957-.013 2.938.097 6.348.705 10.714 3.265 14.303 6.597 2.082 1.935 3.581 4.369 4.864 7.128 1.354 2.91 2.051 6 1.975 9.872-.152 7.683-3.166 12.718-7.272 16.662-1.983 1.907-4.614 3.453-7.367 4.575-1.416.577-3.028.896-4.672 1.301-1.63.4-3.433.734-5.25.336zm19.648-19.215c.833-3.619.467-7.799-.819-11.076-1.124-2.866-3.14-5.442-5.441-7.416-2.375-2.037-5.729-3.716-8.909-4.189-.372.613-.263 1.418-.24 2.118.071 2.286 0 4.74 0 7.128-.001 8.232-.05 15.356-.049 23.404 0 1.547-.111 3.092.144 4.574 2.473-.103 4.541-1.105 6.309-2.118 1.804-1.034 3.396-2.36 4.672-3.901 2.18-2.225 3.525-5.017 4.333-8.524z"/><path d="m21.308.501c.14 1.1.287 2.844 0 3.9-1.806.578-3.623.826-5.2 1.589-4.522 2.191-8.108 5.398-10.161 10.066-1.381 3.139-1.976 7.737-1.012 11.51.916 3.587 2.606 6.442 4.767 8.716 2.134 2.335 4.875 4.102 8.234 5.249 1.1.377 2.278.58 3.371 1.108.129 1.094.213 2.885-.048 3.9-1.204.232-2.38-.211-3.467-.481-3.196-.794-6.117-2.198-8.38-3.997-3.087-2.454-5.743-5.423-7.416-9.102-1.676-3.685-2.613-8.867-1.541-14.014.252-1.211.505-2.236.866-3.275 1.04-2.987 2.673-5.584 4.624-7.753 2.593-2.878 6.002-5.045 10.112-6.405 1.583-.523 3.326-1.003 5.251-1.011z"/><path d="m53.863 23.375c.055.426.5.529.674.964.198.491.183 1.221.241 1.878.058.655.229 1.318.145 1.878-.828.483-1.932.218-2.264-.289-.457-.695.215-3.838-1.3-3.419-1.153.318.231 3.043-.578 3.708-.402.33-1.395.097-1.83-.097-.188-1.965-.097-4.24-.097-6.404 0-1.159-.102-2.317.144-3.322.808-.244 2.989-.25 4.191-.146.576.051 1.36.631 1.541 1.06.264.633.325 2.531 0 3.227-.196.418-.613.519-.867.962zm-2.793-3.514c-.113.67-.184 1.8 0 2.456 1.353.919 1.852-1.155 1.349-2.312-.22-.344-1.047-.573-1.349-.144z"/><path d="m69.803 21.642c-.362.327-1.467.41-1.974.145-.489-.681.066-2.099-.819-2.215-.914-.12-.912 1.227-.866 2.359.029.741.096 1.903.096 2.842 0 .984-.059 2.162.723 2.167 1.025.006.5-1.52.915-2.216.38-.225 1.383-.194 1.83-.048.389.852.331 2.058-.049 2.745-.724 1.31-4.248 1.403-5.152.289-.787-.971-.569-4.469-.578-6.164-.007-1.392.105-2.77 1.06-3.228.359-.171 1.049-.158 1.541-.192 1.233-.083 2.588-.016 3.082.771.428.685.306 1.644.191 2.745z"/><path d="m62.242 18.512c.245.621.145 1.411.145 2.167 0 .743.045 1.521.049 2.264.005 1.03.116 2.635 0 3.756-.103.983-.754 1.685-1.782 1.83-1.728.243-3.592.018-4.045-1.155-.365-.945-.193-3.161-.193-4.479.001-1.717-.117-3.284.193-4.383.417-.204 1.516-.237 1.926 0 .315.563.192 1.409.192 2.215.001 1.497.03 2.867.049 4.575.008.828.037 1.642.674 1.686 1.228.085.77-2.664.77-3.853 0-1.625-.139-3.169.097-4.526.359-.371 1.458-.375 1.925-.097z"/><path d="m77.267 18.415c.231.929-.374 1.606-.723 2.312-.25.507-.957 1.593-.963 2.264-.006.564.524 1.328.818 1.926.499 1.017 1.089 1.792.818 3.227-.37.149-1.021.036-1.492 0-.959-.663-.981-2.263-1.927-2.938-.5.574.107 2.258-.385 2.841-.391.229-1.485.216-1.878 0-.323-.422-.168-.972-.144-1.493.074-1.691-.035-3.696 0-5.441.018-.915-.172-1.961.24-2.648.398-.15 1.287-.15 1.686 0 .499.673.066 2.277.434 3.082.553-.175.616-.915.915-1.493.561-1.085.776-2.174 2.601-1.639z"/><path d="m8.306 18.56c.228 1.368.048 2.853.048 4.286 0 1.817.207 3.688-.097 5.346-.433.249-1.531.192-1.926-.048-.19-2.12-.096-4.349-.096-6.55 0-1.088-.142-2.201.192-3.13.528-.149 1.451-.141 1.879.096z"/><path d="m18.034 21.449c.507-.183.64-.862.915-1.444.484-1.026 1.016-2.031 2.504-1.396-.03 1.102-.646 2.018-1.107 2.985-.218.458-.386 1.004-.626 1.493-.245.497-.528.944-.626 1.444-.221 1.126.273 2.707-.24 3.708-.415.193-1.164.138-1.638 0-.565-1.028-.011-2.688-.289-3.852-.174-.726-.734-1.494-1.108-2.167-.394-.71-.759-1.489-1.349-1.878-.371.03-.882-.079-1.107.096-.26.939-.145 2.036-.145 3.131 0 1.597.075 3.22-.145 4.623-.498.221-1.45.173-1.927 0-.233-1.434-.145-3.938-.145-5.972 0-.582.13-1.591-.192-1.83-.411-.305-.971.099-1.349-.24-.223-.348-.259-1.468.097-1.686 2.105-.081 4.54-.079 6.645 0 .889.718.953 2.259 1.832 2.985z"/></g></svg>