<svg enable-background="new 0 0 79.817 66.011" viewBox="0 0 79.817 66.011" xmlns="http://www.w3.org/2000/svg"><g clip-rule="evenodd" fill-rule="evenodd"><path d="m25.248 19.703c-2.856.122-5.91.242-9.04.156-.963-.027-1.932.122-2.805-.156-.232-3.17-.002-6.682-.104-9.923-.035-1.111.189-2.597-.727-2.649-1.194-.069-.832 2.142-.832 2.805v3.637c0 6.67-.052 14.445-.052 21.3 0 7.53.07 14.682 0 21.404-.013 1.177-.017 2.383 0 3.533.018 1.221-.066 2.588.104 3.688.119.772.595 1.559.519 2.182-.642.348-1.526.208-2.442.208-.818 0-1.726 0-2.649 0-1.748-.001-3.865.282-5.091-.156-.908-.324-1.74-1.265-1.974-2.026-.273-.886-.104-2.442-.104-3.792 0-16.7 0-33.312 0-50.289 0-1.144-.006-2.582.052-3.792.068-1.431-.086-2.648.26-3.585.521-1.412 1.714-2.04 3.429-2.13 4.373-.228 9.588-.052 14.183-.052 1.919 0 4.269-.244 5.507.415 1.881 1.002 1.922 3.043 1.922 5.975v8.936c0 .743-.086 1.506-.052 2.234.033.695.195 1.421-.104 2.077z"/><path d="m26.495.065c2.228.02 4.504-.05 6.753.052 2.24.102 4.54-.2 6.598.156.066.876-.428 1.394-.52 2.182-.142 1.219-.041 2.482-.104 3.792-.173 3.637-.052 7.566-.052 11.429 0 12.466.067 25.981 0 38.444-.007 1.28-.048 2.62 0 3.896.048 1.287-.065 2.594.052 3.792.07.724.466 1.227.416 1.974-3.243.242-6.814.052-10.027.052-1.11 0-2.228.126-3.221-.156-.14-.828.468-1.463.571-2.338.139-1.176 0-2.526 0-3.792 0-6.265 0-12.646 0-18.858 0-11.346-.12-22.463 0-33.924.02-1.893.155-3.817-.311-5.247-.134-.411-.412-.827-.364-1.351.078-.025.132-.076.209-.103z"/><path d="m79.589 19.859c-1.738.204-3.786.104-5.818.104-2.025 0-4.066.084-5.871-.104-.276-3.188.075-6.508-.052-9.923-.035-.925.188-2.626-.728-2.649-1.075-.027-.779 2.079-.779 2.805v10.494c0 4.855-.085 9.755 0 14.079.146 7.362 0 14.231 0 21.3 0 2.374-.208 4.806 0 7.117.082.9.708 1.982.676 2.753-.979.219-2.095.104-3.221.104-2.225 0-4.57 0-6.857 0-1.143 0-2.282.126-3.273-.156-.068-.773.39-1.303.519-1.974.203-1.053.153-2.358.104-3.585-.134-3.331 0-6.998 0-10.598 0-13.032 0-26.52 0-39.639 0-.965.37-2.584-.935-2.702-.976.226-.675 1.699-.675 2.649 0 3.211.084 6.915-.104 9.871-3.434.261-7.799.122-11.585 0-.141-3.804-.171-8.817-.104-13.195.022-1.409-.132-3.029.208-4.156.351-1.164 1.428-2.132 2.701-2.286 1.312-.158 2.859.001 4.364 0 7.017 0 14.393-.052 21.196.052 1.886.029 4.255-.04 6.234 0 .714.014 1.463-.062 2.026.104.877.259 1.794 1.22 2.026 2.026.342 1.191.084 2.946.052 4.312-.108 4.466.216 8.74-.104 13.197z"/><path d="m15.949 51.237c.932-.094 2.301-.052 3.533-.052 1.186 0 2.56-.176 3.429.052 1.394.366 2.133 1.706 2.234 3.481.064 1.129-.092 2.717-.052 4.416.047 1.963.21 3.783-.364 4.883-.816 1.745-2.713 1.871-5.299 1.871-2.858-.001-4.708-.071-5.559-2.182-.26-.645-.185-1.867-.208-2.702-.047-1.749-.037-3.727 0-5.507.047-2.25.268-3.868 2.286-4.26z"/><path d="m43.535 51.289c.966-.108 2.282-.103 3.377-.052.966.045 2.334-.087 3.117.156.811.251 1.707 1.104 2.026 1.818.565 1.265.416 3.601.416 5.351 0 1.823.188 4.146-.364 5.403-.304.693-1.153 1.494-1.818 1.766-.94.385-2.405.236-3.585.208-1.297-.031-2.563.131-3.637-.26-.835-.304-1.723-1.187-2.026-2.182-.439-1.441-.156-3.447-.156-5.247 0-2.013-.278-3.902.156-5.091.326-.891 1.218-1.726 2.494-1.87z"/><path d="m71.069 51.341c.854-.12 2.195-.052 3.273-.052 1.119 0 2.264-.137 3.065.104.974.293 1.815 1.217 2.078 1.87.491 1.223.208 3.786.208 5.351 0 1.571.236 4.16-.208 5.351-.294.791-.924 1.493-1.766 1.818-.979.378-2.705.159-3.74.208-.622.029-1.228-.017-1.975-.052-.648-.031-1.339.075-1.87-.104-1.598-.537-2.078-2.083-2.078-4.364 0-1.03 0-1.874 0-2.858 0-2.415-.251-4.089.312-5.351.414-.928 1.3-1.724 2.701-1.921z"/></g></svg>