<svg enable-background="new 0 0 73.254 56.896" viewBox="0 0 73.254 56.896" xmlns="http://www.w3.org/2000/svg"><g clip-rule="evenodd" fill-rule="evenodd"><path d="m22.517 12.179c-.453.267-1.015.11-1.538.1-1.611-.034-3.375.168-5.009-.05-1.049-1.646-1.503-3.886-3.125-4.959-2.89-1.611-5.955-.123-6.645 2.38-.456 1.652-.171 3.825.298 5.456.455 1.581 1.274 2.969 1.984 4.066 1.517 2.346 3.943 4.358 7.439 4.612 1.684.123 3.003-.379 3.323-1.587.406-1.533-.621-2.551-.645-3.77.787-.263 1.868-.149 2.877-.149 1.022 0 2.038-.04 2.877.099.95 1.928 1.543 4.619.446 6.696-1.686 3.193-7.219 4.092-11.854 2.777-4.525-1.284-7.599-3.511-9.969-7.093-2.105-3.183-3.789-8.968-2.232-13.639.606-1.813 1.417-3.625 2.728-4.858.407-.381 1.009-.73 1.587-1.09.561-.35 1.073-.731 1.786-.893.771-.177 1.654-.187 2.479-.249 1.753-.129 3.597.2 4.86.694 2.123.831 4.243 2.718 5.406 4.563.957 1.518 1.524 3.406 2.331 5.108.265.559.638 1.138.596 1.786z"/><path d="m29.461.624c.051 2.59-.073 5.152.149 7.538.331 3.564 1.287 6.721 2.38 9.522 1.106 2.836 2.564 5.43 4.266 7.639.351.394.797.742 1.091 1.189.294.449.645.868.843 1.39-.86.155-1.888.104-2.976.148-.947.038-2.312.216-3.075-.05-.496-.172-1.234-1.357-1.736-1.934-1.215-1.395-1.926-2.867-2.926-4.414-.497-.77-.971-1.606-1.289-2.381-.15-.367-.226-.857-.347-1.141-.821-1.929-1.576-3.897-2.083-6.051-.524-2.225-.893-4.64-.893-7.241 0-1.434.048-3.069.446-4.216.135.036.1-.099.198-.1 1.953.067 4.163-.127 5.952.102z"/><path d="m49.894.722c-.063 1.937-.104 4.151-.248 6.002-.846.261-2.083.148-3.323.148-.618 0-2.814-.274-3.174.248-.198.288-.083 1.452 0 2.083.101.764.292 1.314.397 1.885.529 2.897 1.257 5.122 2.232 7.489 1.194 2.9 2.982 5.61 4.91 7.886.387.456.919.87 1.042 1.488-.804.228-1.83.148-2.827.148-.899 0-2.134.206-2.876-.05-.555-.191-1.381-1.403-1.835-1.983-.611-.781-1.085-1.526-1.538-2.232-.519-.809-.838-1.695-1.289-2.479-1.351-2.348-2.543-5.106-3.273-8.035-.502-2.013-.909-4.218-1.24-6.299-1.754-.433-4.686.192-6.348-.347-.3-.756-.099-1.951-.099-3.224 0-.914-.13-2.82.744-2.927 1.017-.123 2.215 0 3.422 0 4.234 0 8.613.049 12.746.05.875.001 1.775-.111 2.577.149z"/><path d="m56.639.624c.457.841.597 1.796.942 2.678.658 1.681 1.432 3.298 2.331 4.812.43.723.809 1.579 1.538 2.033.396-.217.403-.767.496-1.141.741-2.979 1.457-6.113 2.976-8.332 1.795-.079 4.536-.258 6.397.049-.192.843-.806 1.496-1.19 2.282-.742 1.516-1.402 3.152-1.984 4.86-.544 1.597-1.197 3.047-1.538 4.96-.25 1.401-.456 2.798-.049 4.116.678 2.199 1.92 4.014 2.976 5.901.763 1.365 1.841 2.584 2.827 3.819.318.398.85.721.893 1.29-1.799.316-4.162.07-6.2.148-2.359-2.172-3.999-4.751-5.555-7.688-.506-.955-.848-2.014-1.389-2.976-.362-.644-.914-1.293-1.438-1.885-1.517-1.713-3.024-3.699-4.315-5.654-1.552-2.351-2.669-5.032-3.57-8.034-.102-.338-.375-.903 0-1.24 1.838-.08 4.014-.08 5.852.002z"/><path d="m24.352 38.714c-1.746.193-4.045.121-5.753-.05-.016-1.217.877-2.034.695-3.472-.389-3.055-5.576-1.954-7.34-.793-.78.513-1.735 1.219-2.331 1.835-1.016 1.049-1.845 2.739-2.579 4.265-.806 1.676-1.186 3.745-1.042 5.754.106 1.482.806 2.927 1.885 3.57 1.532.914 3.757.646 4.959-.148 1.56-1.031 2.021-3.263 3.125-4.86 2.031.016 4.37-.217 6.497.1-.025.906-.566 1.68-.942 2.479-.382.813-.667 1.683-1.042 2.479-1.446 3.077-3.81 5.676-7.439 6.646-1.73.463-4.587.524-6.448.05-1.042-.266-2.364-1.118-3.125-1.785-.588-.517-1.573-1.664-1.935-2.48-.198-.447-.265-.989-.446-1.487-.486-1.338-1.087-3.004-1.091-4.714-.003-2.004.448-4.2 1.092-5.803.233-.581.325-1.191.546-1.735.477-1.182 1.426-2.553 2.281-3.67 1.786-2.335 3.924-3.866 6.844-5.01 1.438-.564 3.128-1.189 4.86-1.239 3.354-.099 6.248.359 8.084 1.884 1.384 1.149 2.027 3.5 1.438 6.001-.179.765-.434 1.525-.793 2.183z"/><path d="m38.14 29.191c-.588 1.55-2.068 2.546-2.976 3.968-2.3 3.603-4.231 7.904-5.158 12.994-.31 1.705-.635 3.552-.645 5.356-.009 1.547.186 3.375 0 4.86-1.714.26-4.042.07-6.051.05-.569-.882-.46-2.041-.496-3.075-.123-3.548.432-6.758 1.19-9.522.511-1.863 1.323-3.504 1.935-5.207.315-.88.62-1.704 1.091-2.48.865-1.425 1.57-2.837 2.529-4.166.69-.956 1.729-1.932 2.529-2.827 2.024-.072 4.092-.203 6.052.049z"/><path d="m51.729 29.291c-.345.855-1.056 1.45-1.587 2.132-.539.693-1.056 1.381-1.538 2.133-2.147 3.308-4.019 7.138-4.959 11.705-.308 1.494-.793 3.078-.546 4.762.807.436 2.024.296 3.174.347 1.169.052 2.382-.186 3.323.148.088 1.766.22 4.257.198 5.952-6.107.148-12.912.087-19.144-.05-.433-1.22-.436-3.406-.397-4.91.01-.372.063-.916.248-1.091.402-.381 1.774-.224 2.48-.199 1.463.052 2.35-.002 3.67-.049.519-.605.417-1.867.545-2.827.158-1.175.575-2.626.893-3.819.63-2.367 1.604-4.687 2.678-6.744.273-.524.585-1.023.843-1.538.757-1.507 1.373-2.515 2.43-3.868.595-.762 1.319-1.917 2.034-2.233.919.001 1.953 0 2.926 0 .976 0 1.962-.115 2.729.149z"/><path d="m73.254 29.241c-.022.608-.607.91-.942 1.339-1.594 2.042-3.231 4.212-4.464 6.695-.242.487-.392 1.06-.645 1.587-.546 1.139-1.049 2.307-.893 4.216.104 1.271.486 2.573.843 3.769.342 1.148.798 2.307 1.19 3.372.828 2.255 1.933 4.301 2.926 6.2-.826.343-2.007.198-3.125.198-1.119 0-2.295.04-3.273-.05-.578-.517-.855-1.335-1.141-2.083-.289-.757-.577-1.53-.843-2.331-.538-1.622-.772-3.399-1.389-4.96-.465.048-.707.51-.942.844-1.195 1.695-2.247 3.778-3.075 5.853-.344.86-.477 1.813-.942 2.628-.926.088-2.062.05-3.125.05-1.085 0-2.163.148-2.926-.148.037-.884.409-1.716.694-2.529.833-2.38 1.79-4.696 3.174-6.646 1.296-1.826 2.746-3.832 4.266-5.555.52-.59 1.195-1.247 1.538-1.885.52-.968.817-2.05 1.339-3.024 1.262-2.359 2.697-4.415 4.414-6.498.508-.615.668-1.024 1.439-1.091 1.758-.154 4.304-.065 5.902.049z"/></g></svg>