<svg enable-background="new 0 0 26.901 30.003" viewBox="0 0 26.901 30.003" xmlns="http://www.w3.org/2000/svg"><path d="m14.25.016c4.694-.233 9.325 2.037 12.217 5.701.235.277.486.604.426.992-.059.967-1.467 1.179-1.882.335-2.308-3.015-5.974-5-9.794-5.07-4.001-.176-8.002 1.729-10.484 4.852-1.279 1.58-2.133 3.478-2.577 5.456-.753 3.885.196 8.152 2.825 11.16 1.088 1.386 2.556 2.433 4.111 3.238 3.634 1.867 8.168 1.806 11.755-.147 1.114-.605 2.145-1.367 3.05-2.254.42-.38.369-1.128-.088-1.457-.388-.312-.998-.24-1.32.134-2.766 2.875-7.217 3.874-10.987 2.644-3.046-.924-5.596-3.293-6.814-6.225-1.186-2.843-1.223-6.222.115-9.019.996-2.265 2.809-4.174 5.027-5.272 4.216-2.238 9.894-1.266 13.016 2.374 1.144 1.416.524 3.753-1.15 4.446-1.013.379-2.27.247-3.064-.532-.496-.507-1.069-.945-1.724-1.227-1.972-.908-4.474-.394-5.926 1.221-2.07 2.061-1.813 5.858.445 7.681 2.026 1.846 5.55 1.628 7.273-.517.48-.832-.627-1.813-1.388-1.216-.925.975-2.431 1.385-3.692.864-1.267-.481-2.143-1.786-2.147-3.136-.041-1.072.477-2.149 1.341-2.786 1.301-.967 3.312-.816 4.41.395.405.448.272 1.251-.283 1.513-.366.193-.845.111-1.127-.19-.511-.528-1.437-.558-1.968-.043-.607.544-.584 1.584.009 2.129.542.535 1.503.502 2.008-.068 1.055-1.082 2.98-1.076 4.016.029 1.04.987 1.117 2.759.219 3.862-1.866 2.204-5.159 2.957-7.832 1.911-2.25-.856-4.004-2.906-4.472-5.272-.318-1.613-.184-3.366.609-4.829 1.189-2.39 3.786-4.024 6.47-3.949 1.884-.006 3.742.812 5.042 2.17.342.345.947.348 1.295.01.365-.315.419-.917.112-1.289-1.973-2.142-5.041-3.176-7.911-2.713-2.794.422-5.311 2.254-6.626 4.749-1.098 1.951-1.303 4.313-.809 6.475.628 2.745 2.62 5.128 5.193 6.263 3.128 1.435 7.058.836 9.602-1.486.411-.377.8-.808 1.328-1.023 1.257-.572 2.87-.059 3.586 1.117.769 1.152.556 2.855-.525 3.74-3.102 3.054-7.573 4.662-11.91 4.153-3.349-.344-6.542-1.906-8.904-4.296-2.738-2.698-4.3-6.52-4.338-10.356-.154-4.377 1.797-8.779 5.135-11.612 2.491-2.214 5.777-3.512 9.107-3.63z"/></svg>