<svg enable-background="new 0 0 74.637 74.81" viewBox="0 0 74.637 74.81" xmlns="http://www.w3.org/2000/svg"><g clip-rule="evenodd" fill-rule="evenodd"><path d="m72.337 24.896c-1.062.209-2.184.088-3.284.094-17.427.092-34.916-.035-52.396.141-.256.961-.141 1.984-.141 3.002 0 7.062-.078 14.609.094 21.578 1.115.256 2.299.141 3.424.141 17.285-.002 34.856-.135 52.303.047-.32 1.66-1.119 3.141-1.876 4.551-.765 1.422-1.461 2.873-2.392 4.127-1.782 2.564-3.755 4.939-6.145 6.896-2.004 1.885-4.199 3.416-6.661 4.736-4.796 2.576-10.796 4.709-18.2 4.598-10.942-.164-18.521-4.051-24.721-9.475-1.012-.887-1.921-1.859-2.814-2.908-4.353-5.11-7.887-11.224-9.148-19.327-.524-3.367-.473-7.199-.047-10.695.81-6.65 3.297-11.914 6.426-16.371 1.582-2.254 3.229-4.418 5.207-6.191 5.393-4.84 12.434-8.756 21.719-9.664 8.377-.82 15.857 1.35 21.203 4.269 4.993 2.727 8.972 6.227 12.243 10.553 1.641 2.125 3.045 4.557 4.222 7.178.39.87.853 1.741.984 2.72z"/><path d="m74.307 33.527c.3 1.107.315 2.555.328 3.941.013 1.393-.038 2.832-.328 3.939-16.333.158-33.028.158-49.301 0-.156-2.397-.155-5.438 0-7.834 8.151-.25 17.356-.094 26.034-.094 8.051.001 15.918-.087 23.267.048z"/></g></svg>