<svg enable-background="new 0 0 73.808 74.958" viewBox="0 0 73.808 74.958" xmlns="http://www.w3.org/2000/svg"><g clip-rule="evenodd" fill-rule="evenodd"><path d="m40.151.159c.3 1.144.172 2.371.189 3.597.051 3.645.009 7.593-.047 11.312-.058 3.764 0 7.568 0 11.407 0 1.232.116 2.495-.142 3.691-.042.021-.084.042-.095.095-3.094.084-6.035.063-9.041.048-3.089-.017-6.166-.218-9.04.189-5.328.753-8.997 3.3-11.88 6.579-2.832 3.223-4.952 7.896-4.686 13.774.251 5.541 2.567 9.74 5.585 12.874 1.531 1.59 3.397 2.898 5.396 3.881 2.083 1.024 4.608 1.641 7.383 1.846 5.715.424 10.522-1.917 13.679-4.685 3.068-2.691 5.729-6.96 6.342-12.117.335-2.814.189-5.865.189-8.945 0-2.282 0-4.624 0-6.958 0-.704-.108-1.451.142-2.13 1.144-.256 2.359-.143 3.55-.142 7.268.003 14.762-.003 22.103 0 1.173 0 2.375-.116 3.503.142.257 1.127.142 2.276.142 3.36 0 8.041-2.25 14.149-5.301 19.17-2.656 4.372-5.972 8.015-10.034 10.934-2.705 1.943-5.581 3.607-9.135 4.827-4.953 1.701-12.017 2.744-18.412 1.515-7.76-1.49-13.917-4.812-18.554-9.371-4.891-4.476-8.644-10.069-10.601-17.372-1.02-3.809-1.58-8.23-1.325-12.543.502-8.493 3.632-15.256 7.526-20.447 1.014-1.351 2.143-2.522 3.266-3.739 4.355-4.72 10.319-8.476 17.797-10.13.985-.218 1.963-.401 2.982-.521 2.703-.315 5.825-.414 8.519-.141z"/><path d="m58.279.064c4.663-.25 8.572 1.853 10.934 4.165 1.332 1.304 2.306 2.71 3.124 4.449.822 1.749 1.419 3.642 1.467 6.059.098 4.947-1.557 8.465-4.024 11.075-2.48 2.625-5.877 4.482-10.223 4.828-4.69.373-8.536-1.861-10.839-4.165-2.541-2.542-4.5-5.775-4.638-10.461-.14-4.713 1.619-8.533 3.928-11.075 2.315-2.547 5.556-4.623 10.271-4.875z"/></g></svg>