<svg enable-background="new 0 0 89.559 56.006" viewBox="0 0 89.559 56.006" xmlns="http://www.w3.org/2000/svg"><g clip-rule="evenodd" fill-rule="evenodd"><path d="m48.583.17c.279 3.128-.091 6.904.188 10.032.709-.144 1.184-.74 1.688-1.172 1.495-1.281 3.102-2.502 4.594-3.844 1.517-1.283 2.967-2.475 4.594-3.845.518-.437 1.046-1.071 1.594-1.219.914-.246 2.351-.047 3.563-.047 8.097.001 17.078.01 24.753.141.036.447-.552.663-.797.984-4.89 4.283-9.608 8.738-14.487 13.033-13.047 11.443-25.814 23.161-38.723 34.741-1.943 1.729-3.902 3.442-5.813 5.204-.291.29-.654.55-.984.844-.302.269-.586.725-1.031.703-.19-4.569-.094-9.187-.094-13.83 0-14.078-.153-27.772.047-41.771 6.679-.177 14.273-.145 20.908.046zm-5.814 1.594c-4.308 0-9.125-.017-13.221 0-.415.286-.281.864-.281 1.266 0 7.839.047 15.234.047 23.441 0 8.499-.078 17.117.094 25.362.415.072.721-.334.984-.562.89-.77 1.76-1.565 2.579-2.344 3.117-2.657 6.097-5.494 9.142-8.157 1.038-.909 1.973-1.902 3-2.813 4.088-3.623 8.185-7.218 12.189-10.923 4.658-4.141 9.298-8.299 13.924-12.471 2.362-2.045 4.71-4.103 7.032-6.188 1.753-1.545 3.495-3.1 5.157-4.735.306-.203.556-.527.844-.797.274-.255.762-.456.704-.891-7.493-.287-15.178-.065-23.113-.141-2.547 1.923-4.892 4.047-7.313 6.095-1.866 1.489-3.669 3.068-5.485 4.547-.617.503-1.198 1.113-1.969 1.407-.296-3.752.133-8.228-.235-11.908-1.269-.25-2.656-.188-4.079-.188z"/><path d="m26.173.123c.15 6.357.158 14.397 0 21.05-.462.254-.928.108-1.406.141-4.106.279-7.247 2.674-7.267 6.845-.023 4.796 3.877 6.316 8.72 6.47.071 6.664.096 14.682 0 21.284-3.148.341-6.207-.306-8.861-1.031-3.955-1.082-7.338-2.853-10.22-5.063-2.291-1.758-4.323-4.095-6.048-6.61-.362-.527-.827-1.123-.938-1.594-.222-.938.003-2.269.047-3.095.516.379.701 1.039.984 1.547 1.444 2.594 3.298 5.092 5.438 7.08 2.515 2.336 5.762 4.352 9.47 5.579 2.474.818 5.245 1.595 8.345 1.453.249-.63.148-1.374.141-2.063-.053-4.944.081-10.516-.047-15.705-.639-.365-1.37-.272-2.016-.422-4.276-.997-7.798-4.407-6.423-10.079.601-2.478 2.416-4.342 4.595-5.345 1.131-.521 2.424-.698 3.797-1.078.198-6.002.066-11.726 0-17.534-1.141-.277-2.3-.024-3.375.141-7.596 1.156-13.108 4.427-17.064 9.186-1.096 1.375-2.145 2.838-3 4.501-.273.53-.485 1.137-.938 1.547-.208-.901-.039-2.18-.094-3.234 4.184-6.909 10.476-11.981 19.925-13.596 1.933-.331 4.172-.565 6.235-.375z"/></g></svg>