<svg enable-background="new 0 0 16.915 12.472" viewBox="0 0 16.915 12.472" xmlns="http://www.w3.org/2000/svg"><path d="m6.109.735c.878-.613 2-.853 3.054-.68.843.131 1.633.538 2.248 1.126.811.81 1.289 1.957 1.228 3.109 1.427-.068 2.867.668 3.633 1.875.836 1.265.856 3.004.061 4.293-.704 1.215-2.072 2.002-3.475 2.014-2.887 0-5.774.002-8.661-.001-.924.019-1.855-.282-2.585-.851-1.029-.778-1.658-2.068-1.61-3.36.032-1.471.932-2.893 2.264-3.527 1.377-.718 3.158-.562 4.385.392.416.326.791.715 1.059 1.173.385.626.575 1.362.582 2.096.136.003.273.004.409-.001-.023-.648-.143-1.299-.426-1.886-.186-.424-.464-.799-.761-1.151-.818-.879-1.982-1.422-3.182-1.48.069-1.244.742-2.445 1.777-3.141z"/></svg>