<svg enable-background="new 0 0 68.832 74.129" viewBox="0 0 68.832 74.129" xmlns="http://www.w3.org/2000/svg"><g clip-rule="evenodd" fill-rule="evenodd"><path d="m22.472 73.816c-.246-4.164-.203-9.139-.049-13.375 4.625-.48 9.312.279 13.426-.492 3.898-.73 7.142-2.25 9.934-4.18 2.7-1.867 4.82-4.549 6.541-7.574 1.727-3.035 2.732-6.977 2.606-11.359-.129-4.521-1.283-8.016-3.049-11.066-1.732-2.99-4.045-5.42-6.639-7.426-2.565-1.984-6.101-3.588-9.885-4.228-1.013-.172-2.077-.34-3.148-.395-2.232-.113-4.62-.098-6.934-.098-1.074 0-2.16.166-3.197-.098-.156-4.289-.164-9.219-.049-13.328 8.064-.574 16.241.09 22.082 2.262 2.451.912 4.682 2.103 6.787 3.395 2.134 1.309 4.088 2.693 5.852 4.326 3.492 3.234 6.383 7.063 8.606 11.754 2.188 4.617 3.723 10.277 3.443 16.918-.262 6.227-1.999 11.553-4.426 15.982-2.423 4.424-5.588 8.1-9.344 11.016-3.818 2.967-8.161 5.402-13.573 6.787-2.649.678-5.688 1.23-8.951 1.23-3.244-.001-6.637.091-10.033-.051z"/><path d="m22.374 53.112c-.17-3.619-.139-8.105-.049-11.508 1.293-.297 2.684-.109 4.033-.148 1.404-.037 2.792-.006 4.131-.049 2.676-.082 4.47-1.102 5.066-3.246.601-2.162-.793-4.199-2.41-4.967-1.136-.539-2.567-.541-4.18-.541-4.403 0-9.396.045-13.77.197-.325 13.674.161 27.768-.098 41.113-2.402.186-4.959.098-7.475.1-2.505 0-5.032.199-7.328-.1-.244-8.765-.198-17.774-.198-26.653.001-8.893-.216-17.566 0-26.213 6.441-.102 12.815-.148 18.983-.146 2.186 0 4.54.047 6.59-.051 3.419-.16 6.934-.125 9.492.541 5.23 1.365 8.912 4.373 11.114 8.951 1.122 2.332 1.807 5.115 1.476 8.262-.603 5.717-3.587 9.803-7.819 12.246-2.033 1.174-4.694 2.172-7.721 2.311-2.389.111-5.043.049-7.475.051-.76-.001-1.597.118-2.362-.15z"/></g></svg>