<svg enable-background="new 0 0 184.619 149.585" viewBox="0 0 184.619 149.585" xmlns="http://www.w3.org/2000/svg"><g clip-rule="evenodd" fill-rule="evenodd"><path d="m.591 149.086c-.606-.078-.455-.224-.503-.552-.199-1.39 0-3.15 0-4.773.002-17.509-.001-34.122 0-51.093.002-17.857.195-37.015.101-55.615-.052-10.306-.05-20.829-.05-31.902 0-.748-.036-1.589 0-2.361.038-.815-.092-1.73.05-2.31.138-.561.607-.398 1.056-.452.589-.072 1.27.021 1.909.05 1.913.09 3.94 0 5.878 0 23.386-.002 47.954.252 71.741.25 5.308 0 10.672-.119 16.077.051 8.125.254 16.234-.271 23.462.804 2.398.357 4.728.684 6.832 1.256 4.312 1.171 8.446 2.278 12.158 4.069 1.869.902 3.763 1.644 5.526 2.612 8.765 4.809 16.158 10.609 22.407 18.137 4.845 5.835 9.135 12.452 12.208 20.246.38.965.643 2.025 1.005 3.064 2.386 6.862 4.169 15.104 4.17 24.216 0 9.699-1.461 17.29-3.869 24.567-.329.995-.735 1.959-1.055 2.964-1.252 3.943-3.215 7.607-5.225 11.002-6.043 10.205-14.108 18.17-24.015 24.668-3.235 2.123-6.874 3.941-10.65 5.576-7.58 3.283-16.09 5.561-26.477 5.979-2.566.103-5.258-.001-7.938 0-8.111.002-16.023-.101-24.216-.101-26.745-.001-53.763-.266-80.582-.352zm32.254-28.234c2.494.118 5.13.022 7.736.051 15.412.163 31.416.203 47.074.2 1.759 0 3.528.098 5.275.051 6.984-.187 14.003.459 20.548-.402 3.103-.407 5.984-1.069 8.592-2.01 5.214-1.879 9.821-4.313 13.715-7.485 1.964-1.6 3.707-3.382 5.426-5.225 3.405-3.651 6.22-7.883 8.29-12.911 2.077-5.048 3.565-10.748 3.566-17.685.001-6.908-1.336-12.686-3.466-17.734-4.224-10.008-10.814-17.531-19.694-22.709-4.541-2.648-9.678-4.373-15.725-5.525-3.043-.58-6.471-.604-9.897-.604-24.779.002-48.901-.233-73.551-.251-.06.024-.113.054-.15.101-.269.388-.151.897-.151 1.306.001 3.376-.123 6.523 0 9.797.143 3.804-.05 7.66-.05 11.505-.001 22.749-.036 46.498.05 69.431.782.251 1.604.061 2.412.099z"/><path d="m32.342 74.883c.567-.527 1.322-.817 2.01-1.155 4.929-2.421 10.101-4.559 15.021-7.033 5.564-2.799 11.237-5.469 16.981-8.189 5.667-2.685 11.272-5.406 17.081-8.139 5.75-2.705 11.127-6.067 18.89-6.482 4.721-.251 8.891.629 12.41 1.959 7.011 2.653 12.078 6.898 15.825 12.861 1.824 2.906 3.343 6.455 4.069 10.25.842 4.397.76 8.994-.15 13.012-1.326 5.843-3.939 10.362-7.336 14.167-3.277 3.671-7.781 6.765-13.012 8.44-3.887 1.245-8.062 1.836-12.66 1.507-2.137-.152-4.146-.616-6.029-1.155-1.853-.529-3.634-1.185-5.174-1.959-3.217-1.617-6.522-3.052-9.747-4.622-3.24-1.578-6.495-3.099-9.696-4.622-3.227-1.536-6.412-3.202-9.645-4.723-1.62-.762-3.237-1.53-4.823-2.361-1.58-.828-3.245-1.501-4.822-2.311-4.774-2.452-9.686-4.594-14.47-7.034-.788-.401-1.606-.778-2.411-1.155-.781-.366-1.649-.665-2.312-1.256z"/></g></svg>