<svg enable-background="new 0 0 84.259 81.146" viewBox="0 0 84.259 81.146" xmlns="http://www.w3.org/2000/svg"><g clip-rule="evenodd" fill-rule="evenodd"><path d="m84.076.295c.135 1.143-.842 1.968-1.444 2.738-8.104 10.364-16.322 20.829-24.346 31.317-1.231 1.609-2.451 3.242-3.833 4.729-.702-.623-1.183-1.475-1.693-2.24-5.648-8.469-11.636-16.895-17.326-25.392-1.551-2.315-3.183-4.555-4.78-6.871-.52-.753-.942-1.621-1.643-2.24-.773.586-1.211 1.504-1.743 2.29-4.269 6.313-8.604 12.71-12.895 19.119-.537.803-.979 1.648-1.494 2.489-.987 1.612-2.11 3.205-3.186 4.779-1.86 2.721-3.823 5.417-5.676 8.315-.266.416-.737.983-.747 1.245-.014.4.464.87.747 1.294.792 1.188 1.664 2.514 2.34 3.635 3.847 5.511 7.39 11.26 11.152 16.878.937 1.399 1.879 2.805 2.788 4.231 2.253 3.538 4.61 7.012 6.97 10.506.458.679.885 1.437 1.543 1.941.728-.583 1.184-1.427 1.693-2.19 3.603-5.404 7.34-10.711 11.004-16.181 3.865-5.771 7.907-11.438 11.899-17.227.303-.44.623-1.071.847-1.096.299-.033.793.719 1.095 1.096 8.567 10.692 17.067 21.463 25.641 32.162.605.756 1.241 1.609 1.892 2.39.633.761 1.681 1.553 1.294 2.889-.82.268-1.709.148-2.54.149-13.212.003-26.556-.003-39.631 0-13.837.003-27.802.241-41.772-.05-.252-9.966-.149-20.549-.149-30.819-.001-16.146-.05-31.034-.05-47.796 0-.504-.194-2.12.349-2.24 1.335-.296 3.841-.05 5.427-.05 24.996-.003 50.518.003 75.877 0 .787.001 1.652-.159 2.39.2z"/><path d="m83.926 6.866h.1c.235 7.702.149 15.655.149 23.849 0 1.352.01 2.709-.05 4.033-.059 1.297.259 2.59-.1 3.833-8.047.148-16.21.195-24.048.05.236-.797.824-1.443 1.295-2.091 1.425-1.959 3.059-3.868 4.531-5.875 4.85-6.613 9.993-13.064 14.936-19.766 1.03-1.394 2.112-2.831 3.187-4.033z"/><path d="m30.504 70.944c-.17-19.982-.122-40.555-.05-60.343-.002-.085.037-.129.1-.149h.1c5.205 7.346 10.245 14.98 15.484 22.454 1.255 1.791 2.537 3.729 3.883 5.626.31.436 1.188 1.576 1.195 1.942.01.475-.879 1.463-1.245 1.991-4.813 6.952-9.52 13.989-14.19 21.06-1.485 2.248-2.962 4.438-4.481 6.721-.168.255-.401.705-.796.698z"/><path d="m27.019 10.501h.099c.242 9.728.149 19.953.149 30.072 0 10.158.043 20.375-.05 30.37-.403.067-.555-.46-.747-.747-.21-.314-.487-.62-.598-.945-6.196-9.419-12.312-18.921-18.32-28.528.579-1.396 1.528-2.583 2.34-3.834 2.403-3.701 4.727-7.613 7.219-11.302 2.783-4.289 5.629-8.769 8.514-13.094.47-.705.842-1.45 1.394-1.992z"/><path d="m84.026 42.216c.268.975.149 2.017.149 3.037 0 9.324.083 19.577-.05 28.678-.4-.052-.657-.496-.896-.797-.738-.925-1.487-2.042-2.241-2.987-6.549-8.636-13.158-17.211-19.666-25.89-.469-.627-1.193-1.261-1.345-2.041 7.751-.148 16.203-.175 24.049 0z"/></g></svg>