<svg enable-background="new 0 0 61.242 74.19" viewBox="0 0 61.242 74.19" xmlns="http://www.w3.org/2000/svg"><g clip-rule="evenodd" fill-rule="evenodd"><path d="m28.587 9.339c3.77-5.236 8.854-8.922 17.387-9.318 3.403-.158 6.354.606 8.79 1.537 1.853.708 3.34 1.596 4.947 2.689.481.328 1.239.7 1.393 1.153.16.472.044 1.319.048 2.018.01 1.876-.06 4.134 0 6.052.204 6.517 0 12.896 0 20.077 0 1.325.223 3.069-.048 4.035-.139.495-.859.923-1.297 1.249-3.294 2.447-7.566 4.309-13.112 4.419-4.883.097-8.673-1.253-11.815-3.122-1.033-.614-1.872-1.434-2.786-2.209-3.484-2.958-6.308-7.331-7.204-12.824-1.069-6.541.929-11.885 3.697-15.756z"/><path d="m.057 68.321c-.074-9.279 0-18.069 0-27.666 0-.648.03-1.343 0-2.017-.029-.651-.111-1.397 0-1.921.095-.446.821-.862 1.249-1.201 3.129-2.474 7.292-4.412 12.536-4.659 7.235-.341 11.952 2.38 15.802 5.668 1.273 1.087 2.466 2.378 3.314 3.842.312.539.511 1.132.816 1.681 1.979 3.554 3.418 8.736 2.402 14.361-.386 2.135-.953 3.956-1.825 5.667-.273.537-.667 1.015-.913 1.585-.955 2.211-2.681 3.971-4.467 5.476-1.764 1.486-3.937 2.677-6.388 3.602-2.419.913-5.349 1.539-8.502 1.441-3.119-.097-5.744-.87-8.069-1.873-2.261-.976-4.322-2.232-5.955-3.986z"/></g></svg>