<svg clip-rule="evenodd" fill-rule="evenodd" stroke-linejoin="round" stroke-miterlimit="2" viewBox="0 0 560 400" xmlns="http://www.w3.org/2000/svg"><path d="m220.4 310.4h-184.8l-35.6 56.8 95.8 162.9h64.4l95.8-162.9zm373.4 0h-184.7l-35.6 56.8 95.8 162.9h64.3l95.8-162.9zm-464.4-30.7h93.4l36-56.7-114-196.5h339.8l-114 196.4 36 56.7h186.8l36-56.7-129.4-222.9h-370.6l-129.4 222.9 36 56.7h93.4zm473-57.3-21.8 34.4h-161.2l-21.8-34.4 102.4-176.4zm-473-176.4 102.4 176.4-21.8 34.4h-161.2l-21.8-34.4zm193 333.6v95.3c11.9 3.7 20.5 14.8 20.5 28 0 16.2-13.1 29.3-29.3 29.3s-29.3-13.1-29.3-29.3c0-13.1 8.6-24.2 20.5-28v-95.3h-23.4l-95.8 162.9 35.6 56.8h184.8l35.6-56.8-95.8-162.9z" fill-rule="nonzero" transform="matrix(.42898 0 0 .42898 145 71.4561)"/></svg>