<svg enable-background="new 0 0 30.507 40.432" viewBox="0 0 30.507 40.432" xmlns="http://www.w3.org/2000/svg"><path d="m10.36 2.249c3.312-1.851 7.251-2.673 11.01-2.034 2.127.357 4.15 1.314 5.766 2.743 1.522 1.376 2.625 3.201 3.129 5.19.487 1.716.242 3.65-.767 5.134-.729 1.104-1.75 2.032-2.936 2.62.045-1.649-.228-3.519-1.524-4.675-.847-.721-2.105-.91-3.146-.551-1.106.442-1.912 1.479-2.182 2.625-.21 1.006-.063 2.069.338 3.01.559 1.357 1.789 2.345 3.15 2.828 2.172.817 4.522.531 6.784.465.003 3.108-.065 6.22-.076 9.33-.067 2.721-.572 5.564-2.2 7.812-1.391 1.889-3.561 3.173-5.882 3.51-3.531.485-7.215-.032-10.431-1.59-2.705-1.346-5.215-3.182-7.072-5.586-4.639-5.876-5.622-14.359-2.565-21.175.592-1.358 1.312-2.665 2.186-3.862 1.611-2.429 3.896-4.36 6.418-5.794zm8.162 1.13c-3.245-.003-6.486 1.187-8.941 3.312-2.269 1.936-3.946 4.51-4.988 7.293-.283.721-.427 1.484-.608 2.234-.645 2.731-.563 5.599.041 8.329.338 1.787.967 3.526 1.91 5.084 2.34 4.075 6.645 6.823 11.237 7.623 1.36.182 2.748.307 4.113.092.729-.073 1.475-.27 2.076-.704-3.54.122-7.162-.769-10.101-2.784-1.642-1.095-3.093-2.487-4.2-4.123-1.435-2.078-2.24-4.544-2.542-7.04-.844-5.244 1.73-10.775 6.09-13.737 2.852-1.938 6.423-3.106 9.875-2.423 2.377.432 4.669 1.982 5.497 4.322-.008-2.477-1.381-4.921-3.538-6.158-1.771-1.063-3.889-1.347-5.921-1.32zm-2.184 7.41c-.775.653-1.25 1.576-1.608 2.506-.887 2.696-.628 5.757.703 8.264.796 1.478 1.907 2.831 3.371 3.687 1.713 1.003 3.702 1.495 5.679 1.547.668-.029 1.381-.06 1.968-.418.203-.099.176-.352.226-.538.124-.838.231-1.72.041-2.549-2.349-.071-4.761-.559-6.753-1.86-2.756-1.714-4.315-5.208-3.632-8.399.208-1.028.571-2.089 1.354-2.825-.505.012-.969.27-1.349.585zm-6.662 8.586c-.238 3.213.743 6.502 2.721 9.049.942 1.171 2.042 2.231 3.3 3.061 1.918 1.264 4.214 1.93 6.508 1.933 1.218.008 2.468-.133 3.589-.64.226-.126.533-.24.582-.528.264-.906.357-1.855.341-2.797-3.118.483-6.444.071-9.196-1.534-1.759-1.027-3.368-2.395-4.408-4.167-1.779-2.926-2.118-6.527-1.485-9.844-1.259 1.529-1.791 3.527-1.952 5.467z"/></svg>