<svg enable-background="new 0 0 84.498 46.995" viewBox="0 0 84.498 46.995" xmlns="http://www.w3.org/2000/svg"><g clip-rule="evenodd" fill-rule="evenodd"><path d="m42.381 37.618c-.836.456-1.3 1.294-1.881 1.934-1.79 1.967-3.895 3.56-6.479 4.859-3.346 1.682-7.392 2.909-12.382 2.507-6.544-.527-11.714-3.693-15.257-7.471-3.443-3.671-6.555-9.28-6.374-16.197.122-4.673 1.289-8.554 3.239-11.86 1.806-3.062 4.25-5.775 7.367-7.733 3.17-1.99 6.73-3.383 11.495-3.605 7.394-.344 12.304 2.405 16.458 5.59.964.83 1.766 1.733 2.718 2.77.255.279.578.846.939.836.307-.008.9-.798 1.202-1.149 2.493-2.905 5.772-5.27 9.718-6.688 2.378-.855 4.904-1.411 7.993-1.411 3.047 0 5.539.576 7.941 1.411 4.449 1.546 8.135 4.504 10.711 8.045 2.763 3.798 4.55 7.754 4.702 14.055.139 5.736-2.142 10.554-4.65 14.002-2.634 3.619-6.379 6.397-10.712 8.046-4.721 1.796-11.299 1.783-15.936 0-3.4-1.308-6.216-3.185-8.568-5.539-.755-.756-1.385-1.676-2.244-2.402zm3.761-7.262c.629 1.424 1.405 2.699 2.403 3.762 3.153 3.65 8.274 6.876 15.256 5.695 5.764-.975 9.983-4.478 12.278-9.249 1.235-2.565 1.874-5.747 1.515-8.934-.36-3.204-1.449-5.63-2.977-7.785-1.364-1.925-3.525-3.873-5.747-5.016-2.279-1.171-5.313-2.192-8.83-1.933-4.565.335-7.78 2.223-10.449 4.702-1.874 1.742-3.514 4.235-4.284 6.949-.274.964-.332 2-.784 2.979-4.633.087-9.631.087-14.263 0-.626-.908-1.002-1.886-1.673-2.665-.639-.742-1.521-1.442-2.508-1.828-4.443-1.74-8.374.944-9.509 4.075-.93 2.565-.062 5.255 1.201 6.792 1.444 1.757 3.532 2.804 6.166 2.612 2.35-.171 4.345-1.535 5.381-3.135.344-.53.433-1.221.993-1.672 4.537-.147 9.861-.226 14.315.052.404 1.655.888 3.179 1.516 4.599zm-12.225.731c-1.097.936-1.974 2.018-3.135 2.874-1.168.86-2.465 1.533-4.076 1.933-3.801.944-7.242.183-9.822-1.306-.552-.319-1.085-.826-1.673-1.306-1.652-1.352-3.041-3.221-3.813-5.277-.552-1.468-.997-3.242-.888-5.121.183-3.155 1.356-5.729 2.873-7.627 2.413-3.122 7.806-5.804 13.219-4.232 2.444.709 4.532 2.064 6.062 3.553.543.459 1 1.718 1.776 1.934.494.137 1.254.052 1.881.052.639 0 1.386.154 1.724-.261.002-.793-.569-1.391-.992-1.985-1.326-1.863-2.707-3.339-4.65-4.598-2.374-1.537-6.034-2.841-9.823-2.665-3.141.146-5.42.902-7.523 2.142-3.998 2.358-7.019 6.09-7.994 11.39-.506 2.752-.123 5.769.784 8.412 1.126 3.279 3.6 6.346 6.374 8.151 1.004.652 2.041 1.363 3.083 1.776 2.331.925 5.382 1.321 8.412.94 2.872-.361 5.003-1.368 7.001-2.717 1.572-1.137 3.1-2.538 4.18-4.128.364-.537.84-1.088.888-1.776-1.003-.341-2.614-.071-3.868-.158z"/><path d="m51.576 15.047c2.113-2.178 4.65-4.088 8.517-4.389 3.658-.284 6.532 1.002 8.568 2.56 2.183 1.67 3.649 3.768 4.545 6.583 2.19 6.882-1.787 12.57-6.111 14.943-2.427 1.331-5.843 1.89-9.144 1.045-2.75-.705-5.141-2.39-6.688-4.389-1.608-2.079-2.853-4.874-2.769-8.36.081-3.421 1.331-5.801 3.082-7.993zm6.113 2.456c-2.568 1.465-4.212 5.495-2.718 8.778.786 1.726 2.569 3.283 4.599 3.814 2.985.783 5.533-.745 6.845-2.299.884-1.048 1.53-2.646 1.515-4.389-.022-2.299-1.153-3.863-2.299-4.964-1.196-1.148-3.155-1.862-5.381-1.671-1.035.088-1.918.364-2.561.731z"/></g></svg>