<svg enable-background="new 0 0 176.553 114.062" viewBox="0 0 176.553 114.062" xmlns="http://www.w3.org/2000/svg"><g clip-rule="evenodd" fill-rule="evenodd"><path d="m103.857.248c-.008.058.012.088.05.099.183 38.479.172 74.863.1 113.266.014.08-.047.085-.05.148-5.56.221-11.2.05-16.854.05-5.688-.001-11.368-.049-17.002-.05-5.982-.001-11.622.168-16.854-.148-10.519-.637-18.807-3.879-25.974-8.179-3.585-2.151-6.858-4.579-9.666-7.387-.697-.696-1.415-1.464-2.132-2.181-.716-.716-1.49-1.421-2.032-2.23-1.124-1.679-2.465-3.201-3.618-4.907-4.525-6.692-8.154-14.783-9.37-24.785-.64-5.268-.634-10.92.198-15.961 1.579-9.562 5.149-17.717 9.914-24.239 2.424-3.317 4.941-6.458 7.981-9.121 8.255-7.23 18.444-12.999 32.567-14.326 1.334-.125 2.819-.182 4.214-.248 3.998-.189 8.059.233 12.095.049 1.982-.09 3.996.001 5.997 0 10.178 0 20.387-.013 30.436.15zm-34.599 9.022c-.637.812-.351 2.387.693 2.825 2.856 1.198 3.446-3.686.645-3.469-.591.045-1.039.263-1.338.644zm20.868 3.123c1.634-.803 1.019-3.702-1.09-3.42-2.715.362-1.358 4.624 1.09 3.42zm-38.267.644c2.535.258 2.631-3.745.1-3.618-1.492.074-2.229 1.935-1.189 3.123.428.246.622.448 1.089.495zm-19.084 3.668c-.011.905.638 1.6 1.289 1.784 2.703.765 3.084-3.683.396-3.47-1.022.082-1.673.697-1.685 1.686zm-14.227 11.6c-.623 1.344.503 2.582 1.537 2.627 2.238.099 2.351-2.858.892-3.47-.211-.088-.712-.112-.892-.099-.919.067-1.373.588-1.537.942zm-5.304 18.539c.812-.123 1.655-1.2 1.289-2.429-.149-.501-.985-1.411-1.884-1.09-2.186.212-1.837 3.888.595 3.519zm-3.171 16.307c-.772 1.943 1.738 3.413 3.023 1.983.972-1.203.128-3.44-1.735-2.975-.658.134-1.092.498-1.288.992zm9.17 20.869c1.634-.707 1.104-3.741-1.041-3.47-.032.004-.051.05-.05.049-2.582.381-1.413 4.504 1.091 3.421zm9.864 10.806c.118 2.115 3.591 2.172 3.619-.099.014-1.166-.905-1.924-2.033-1.785-.985.122-1.647.807-1.586 1.884zm17.993 9.616c.893 0 1.872-.686 1.835-1.883-.035-1.092-.946-1.886-2.28-1.636-2.002.439-1.608 3.519.445 3.519zm36.83-1.239c-.833 3 4.004 3.286 3.519.248-.167-1.7-3.095-1.79-3.519-.248zm-19.431.992c0 1.784 2.142 2.38 3.173 1.19 1.09-1.26-.032-3.384-1.735-2.925-.943.289-1.438.804-1.438 1.735z"/><path d="m109.012 54.477c-.261-4.472-.098-8.967-.099-13.483-.001-2.203.098-4.474 0-6.691-.1-2.251-.196-4.577 0-6.791.091-1.029-.05-2.121-.05-3.222 0-7.935-.082-16.131.099-23.992 10.891-.238 21.984-.051 33.113-.049 3.842 0 7.293-.243 10.656.198 3.401.446 6.006 1.236 8.675 2.528 6.074 2.941 10.91 8.109 13.433 14.672.263.685.56 1.365.743 2.082.189.741.229 1.54.396 2.379.635 3.157.664 6.651.1 10.211-1.04 6.549-3.893 10.882-7.732 14.722-3.559 3.559-8.838 6.576-15.119 7.336-3.48.421-7.17.297-10.855.298-10.951.003-22.252-.057-33.36-.198zm39.557-45.256c-1.257 1.628.877 4.022 2.677 2.528 1.128-1.136.31-3.617-1.636-3.122-.48.081-.859.356-1.041.594zm-12.641 3.073c1.855-.58 1.237-4.022-.941-3.47-2.279.389-1.46 4.221.941 3.47zm-15.267-2.776c-1.463.063-2.239 1.842-1.339 2.974.552.694 1.826.902 2.677.198 1.059-1.17.386-3.247-1.338-3.172zm42.283 6.543c2.835.52 2.688-4.104.049-3.519-1.996.07-1.816 3.339-.049 3.519zm2.775 11.995c.21.397.655.727.991.843 2.802.969 3.336-3.955.298-3.519-1.135.162-1.951 1.427-1.289 2.676zm-3.222 13.334c1.98-.355 1.62-4.142-.843-3.519-2.156.25-1.7 4.046.843 3.519zm-11.648 6.891c2.396-.03 2.2-3.942-.298-3.569-2.189.326-1.896 3.595.298 3.569zm-31.675-2.181c-.782 1.409.444 2.782 1.586 2.776 2.347-.012 2.256-3.774-.099-3.619-1.032.068-1.308.522-1.487.843zm15.813 2.776c1.969-.276 1.857-3.737-.298-3.619-.032.002-.054.05-.049.049-2.396.192-1.929 3.889.347 3.57z"/><path d="m109.012 113.861c-.168-15.542-.097-31.521-.099-47.685-.001-1.754-.185-3.936 0-5.998.051-.573.039-.562.446-.645.459-.094 1.161 0 1.784 0 11.598-.001 23.456.099 35.193.1 2.399 0 4.715-.072 6.891.247 4.275.629 7.896 2.074 10.855 4.016 4.468 2.929 8.005 6.884 10.311 12.045.771 1.728 1.272 3.695 1.686 5.75.903 4.499.428 9.419-.694 13.235-.303 1.029-.52 1.952-.892 2.825-1.102 2.588-2.546 4.75-4.264 6.891-2.856 3.202-6.155 5.695-10.459 7.435-2.141.865-4.556 1.555-7.138 1.785-2.699.24-5.536.197-8.625.198-5.906 0-11.823-.051-17.696-.05-5.894.001-11.664.024-17.299-.149zm26.223-44.96c2.614.256 2.434-4.135-.149-3.568-1.92.335-1.672 3.39.149 3.568zm13.432-1.09c.378 2.01 3.927 2.043 3.569-.793-.207-.62-.584-1.068-1.14-1.339-.283-.032-.774-.116-1.042 0-.965.169-1.564 1.183-1.387 2.132zm-29.691.149c-.087 1.418 1.325 2.361 2.577 1.834 1.757-.74 1.088-3.798-1.041-3.47-.872.134-1.476.663-1.536 1.636zm45.405 7.93c2.191-.165 2.132-4.041-.496-3.618-2.226.378-1.68 3.784.496 3.618zm4.511 10.411c-.952.561-1.188 2.288-.148 3.023 1.441 1.021 3.493-.423 2.775-2.23-.256-.646-1.048-1.102-1.884-.991-.302.039-.527.07-.743.198zm-6.246 16.902c.839.329 1.996.026 2.38-.941.618-1.561-.733-2.655-1.884-2.528-1.842.202-2.126 2.831-.496 3.469zm-15.168 3.52c.53 1.412 2.679 1.523 3.321.148.641-1.371-.436-2.893-1.934-2.577-1.195.197-1.768 1.415-1.387 2.429zm-13.136 1.585c1.532-.301 1.648-3.196.05-3.519-.161-.072-.635-.09-.793 0-2.084.222-1.797 4.031.743 3.519zm-15.466.2c1.061.495 2.281-.09 2.578-1.239.115-1.504-.711-2.329-2.132-2.132-1.697.199-1.925 2.679-.446 3.371z"/></g></svg>