<svg clip-rule="evenodd" fill-rule="evenodd" stroke-linejoin="round" stroke-miterlimit="2" viewBox="0 0 560 400" xmlns="http://www.w3.org/2000/svg"><path d="m321 250.38c29.34 0 54.056 19.645 61.696 46.545h143.102l116.202 116.202v228.873h-138.03v-309.765h-121.274c-7.64 26.9-32.357 46.545-61.696 46.545-35.438 0-64.2-28.762-64.2-64.2s28.762-64.2 64.2-64.2zm39.468 247.17-144.444 144.45h-216.027v-144.45zm117.822-81.502v225.952h-225.952zm-478.29-163.71 219.532 219.533h-219.532zm642-95.048v219.532l-219.53-219.532zm-503.97-157.289v354.05l-138.03-138.03v-216.02zm238.792-.001-213.112 213.111v-213.111zm265.177 0v131.61h-360.47l131.61-131.61z" fill-rule="nonzero" transform="matrix(.420561 0 0 .420561 145.001 65)"/></svg>