<svg enable-background="new 0 0 84.839 58.672" viewBox="0 0 84.839 58.672" xmlns="http://www.w3.org/2000/svg"><g clip-rule="evenodd" fill-rule="evenodd"><path d="m30.031.115c-.205.627-.768 1.08-1.195 1.543-.433.469-.897.908-1.345 1.346-6.314 6.181-12.465 12.71-18.875 18.875-2.081 2.045-4.214 4.065-6.375 6.225-.269.27-.781.738-.797.996-.037.592 1.211 1.5 1.693 1.943.733.67 1.192 1.277 1.793 1.842.628.59 1.253 1.197 1.843 1.793 2.92 2.953 6.091 6.295 8.964 9.064 2.397 2.434 4.73 4.932 7.221 7.271 1.944 2.203 4.271 4.166 6.275 6.375.262.287.656.615.647 1.045-1.187.268-1.803-.603-2.391-1.244-1.749-1.91-3.637-3.787-5.478-5.629-6.767-6.766-13.428-13.627-20.27-20.469-.462-.462-1.728-1.468-1.741-1.941-.015-.527 1.271-1.519 1.693-1.943 9.006-9.004 18.234-18.062 27.143-27.142.322-.056.949-.122 1.195.05z"/><path d="m32.77.164c-.385.787-1.118 1.322-1.693 1.943-1.695 1.824-3.584 3.584-5.379 5.379-2.367 2.367-4.707 4.805-7.122 7.221-4.174 4.174-8.32 8.342-12.65 12.5-.489.471-1.686 1.346-1.693 1.893-.006.481.946 1.244 1.444 1.744 7.885 7.883 15.839 15.976 23.706 23.855.92.85 1.754 1.838 2.639 2.789.261.277.799.523.697.994-1.168.315-1.774-.627-2.391-1.244-1.849-1.85-3.665-3.764-5.528-5.627-2.438-2.439-4.863-5.035-7.42-7.422-1.253-1.168-2.485-2.479-3.686-3.785-1.167-1.27-2.457-2.48-3.686-3.734-1.798-1.834-3.649-3.65-5.578-5.578-.45-.449-1.73-1.477-1.743-1.941-.011-.394.53-.793.797-1.047.359-.34.582-.631.897-.896 7.753-7.43 16.043-15.994 23.905-23.855.5-.498 1.104-1.059 1.693-1.693.469-.504 1.535-1.58 1.992-1.643.321-.045.573.002.799.147z"/><path d="m35.559.164c-.375.81-1.096 1.346-1.693 1.943-.598.598-1.159 1.23-1.793 1.793-7.175 7.199-14.327 14.426-21.564 21.564-.839.752-1.762 1.74-2.739 2.639-.339.312-.784.635-.797.996-.02.559 1.221 1.461 1.693 1.943 4.752 4.848 9.654 9.801 14.393 14.592 3.574 3.611 7.232 7.281 10.857 10.906.293.293.575.592.896.896.271.256.676.613.647 1.045-1.19.303-1.778-.631-2.391-1.244-6.823-6.824-13.431-13.682-20.319-20.568-1.768-1.768-3.666-3.666-5.578-5.578-.451-.451-1.723-1.482-1.743-1.941-.026-.596 1.171-1.422 1.693-1.943 4.175-4.174 8.574-8.396 12.7-12.6 4.84-4.822 9.549-9.773 14.542-14.443.037-.045.091-.074.149-.1.357.027.839-.074 1.047.1z"/><path d="m38.398.164c-.336.82-1.098 1.348-1.693 1.943-1.765 1.766-3.525 3.633-5.428 5.328-5.951 6.053-11.911 12.094-17.979 18.029-.835.744-1.719 1.797-2.689 2.69-.335.309-.786.645-.797.996-.016.566 1.213 1.461 1.693 1.941 6.641 6.643 13.204 13.404 19.822 20.021 2.103 2.102 4.171 4.227 6.275 6.375.263.268.704.557.697.994-1.191.42-1.8-.531-2.391-1.145-1.816-1.885-3.737-3.736-5.528-5.678-.59-.639-1.289-1.188-1.892-1.842-1.74-1.895-3.703-3.822-5.578-5.629-4.353-4.193-8.562-8.807-12.998-13.146-.492-.482-1.732-1.395-1.743-1.943-.016-.787 1.403-1.361 1.693-1.941 9.156-8.939 18.09-18.1 27.242-27.043.348-.054 1.022-.124 1.294.05z"/><path d="m40.838.164c-.104.418-.47.744-.747 1.047-1.965 2.147-4.087 4.279-6.226 6.324-5.37 5.365-10.752 10.701-16.135 16.086-.897.898-1.763 1.822-2.689 2.689-.91.854-1.835 1.734-2.59 2.74.291.775 1.042 1.24 1.594 1.793 1.666 1.666 3.322 3.437 5.03 5.129 2.498 2.539 5.106 5.039 7.62 7.619 3.283 3.373 6.724 6.752 10.06 10.16.828.846 1.762 1.678 2.49 2.541.302.355.522.801.847 1.145.299.316.807.541.797 1.045-1.56.463-1.799-1.209-2.739-1.693-3.299-3.422-6.825-6.924-10.259-10.358-1.146-1.146-2.194-2.394-3.387-3.486-2.319-2.123-4.533-4.533-6.873-6.873-1.664-1.664-3.304-3.422-5.13-5.18-.451-.434-1.581-1.324-1.594-1.793-.021-.76 1.421-1.373 1.693-1.941 9.056-8.988 18.044-18.047 27.142-26.994.204-.18.879-.121 1.096 0z"/><path d="m43.676.164c.096.469-.516.642-.697.996-2.288 2.344-4.557 4.707-6.873 7.023-4.615 4.615-9.375 9.133-13.894 13.895-.562.592-1.194 1.131-1.794 1.693-.598.56-1.144 1.189-1.743 1.742-1.194 1.104-2.394 2.234-3.387 3.537.253.695.837 1.186 1.345 1.693 3.467 3.467 7.051 7 10.558 10.508 2.999 2.998 5.843 6.189 8.964 9.113 1.027.963 2.083 1.973 2.988 2.988.403.453.705.904 1.146 1.346.801.801 1.564 1.662 2.391 2.49.383.383.908.725 1.045 1.293-1.259.486-2.027-.73-2.789-1.492-.641-.643-1.165-1.209-1.644-1.793-1.072-1.309-2.313-2.414-3.387-3.486-6.85-6.851-13.789-13.935-20.568-20.668-.235-.674-1.672-1.107-1.693-1.943-.012-.467 1.304-1.684 1.644-1.992 1.909-1.732 3.717-3.566 5.478-5.328 2.414-2.414 4.808-4.809 7.221-7.223 3.702-3.701 7.139-7.088 10.857-10.807.562-.56 1.101-1.25 1.743-1.893.548-.547 1.515-1.689 2.042-1.793.317-.059.779-.016 1.047.101z"/><path d="m46.466.164c-.015.42-.393.672-.647.947-1.712 1.842-3.66 3.66-5.478 5.478-.523.523-.972 1.119-1.494 1.643-5.705 5.707-11.547 11.475-17.332 17.182-1.209 1.182-2.525 2.256-3.536 3.637.379.785 1.096 1.344 1.693 1.941 1.792 1.793 3.652 3.603 5.478 5.428 2.419 2.42 4.75 4.967 7.222 7.322 1.191 1.135 2.454 2.389 3.635 3.635 1.188 1.254 2.561 2.391 3.586 3.686 1.569 1.984 3.577 3.727 5.378 5.529.289.287.545.643.847.945.275.275.737.535.697.996-1.227.314-1.721-.477-2.44-1.195-2.33-2.33-4.414-4.664-6.723-6.973-4.543-4.541-9.127-9.213-13.646-13.795-1.259-1.182-2.431-2.449-3.685-3.635-1.168-1.273-2.561-2.32-3.586-3.736.365-.805 1.122-1.328 1.743-1.941.603-.596 1.188-1.238 1.792-1.844 2.411-2.41 4.862-4.762 7.321-7.221 3.625-3.625 7.176-7.176 10.907-10.906 1.763-1.764 3.514-3.648 5.379-5.529.76-.766 1.632-2.012 2.889-1.594z"/><path d="m54.783.214c-.352.797-1.123 1.289-1.693 1.893-4.042 4.275-8.275 8.375-12.5 12.6-1.174 1.174-2.326 2.426-3.536 3.635-2.438 2.44-4.72 4.621-7.221 7.123-.539.539-1.166 1.133-1.793 1.793-.425.447-1.643 1.336-1.643 1.893 0 .494 1.231 1.471 1.693 1.941 3.635 3.709 7.12 7.27 10.807 10.957.613.613 1.131 1.287 1.743 1.842 1.256 1.143 2.371 2.471 3.586 3.686 3.301 3.301 6.585 6.635 9.911 9.961.268.268.757.516.697.996-.254.094-.665.033-.996.049-3.837-3.475-7.273-7.344-11.056-10.906-.937-.881-1.731-1.895-2.689-2.789-.324-.301-.552-.615-.847-.945-1.141-1.275-2.441-2.443-3.636-3.685-2.378-2.475-4.836-4.899-7.221-7.42-1.176-1.244-2.564-2.289-3.586-3.685.396-.883 1.131-1.426 1.793-2.043 2.759-2.684 5.541-5.551 8.367-8.316 1.113-1.09 2.263-2.164 3.387-3.287 1.142-1.143 2.058-2.357 3.287-3.486 3.562-3.281 6.761-6.851 10.307-10.312.795-.778 1.594-2.036 2.839-1.495z"/><path d="m83.768.263c-.138.545-.658.883-1.046 1.246-2.788 2.615-5.536 5.535-8.466 8.068-2.349 2.381-4.911 4.551-7.271 6.922-.807.754-1.698 1.424-2.291 2.391.749.262 1.596.15 2.391.149 5.807 0 11.958-.012 17.63.15.162 6.555.173 13.691 0 20.17-6.678.344-13.33-.197-19.672.199.083.574.642.891.996 1.244 2.58 2.58 5.332 5.129 8.019 7.67 3.074 2.906 6.135 5.814 9.164 8.766.321.475.9.693 1.045 1.344-6.694.102-13.458.051-20.568.051-1.089 0-2.318.043-3.486 0-1.169-.043-2.446.143-3.437-.051-.59-.113-1.478-1.178-1.992-1.693-4.299-4.297-8.562-8.559-12.8-12.799-1.188-1.188-2.339-2.488-3.585-3.734-2.461-2.461-4.713-4.812-7.271-7.371-.604-.604-1.132-1.199-1.793-1.893-.476-.5-1.726-1.309-1.743-1.893-.017-.572 1.197-1.445 1.693-1.941 3.058-3.059 6.087-6.037 9.114-9.064 1.242-1.242 2.357-2.533 3.585-3.686 3.83-3.59 7.146-7.147 10.907-10.906.545-.545 1.184-1.135 1.842-1.793.601-.6 1.338-1.646 2.142-1.744 1.043-.125 2.237-.002 3.387.051 3.309.15 6.852-.002 10.209 0 4.656-.001 9.074-.062 13.297.147z"/><path d="m49.205.214c-.029.402-.396.674-.647.945-2.707 2.934-5.837 5.676-8.616 8.617-.514.543-.967 1.115-1.494 1.643-2.576 2.576-5.251 5.197-7.869 7.818-2.09 2.094-4.151 4.217-6.325 6.226-.896.848-1.726 1.725-2.689 2.69-.28.279-.789.646-.797.996-.014.568 1.372 1.529 1.743 1.893 1.799 1.76 3.782 3.758 5.379 5.476 6.368 6.301 12.479 12.83 18.825 19.176.448.447.816.959 1.295 1.395.454.412 1.104.777 1.245 1.443-1.169.402-1.778-.619-2.391-1.145-.679-.584-1.312-1.248-1.893-1.844-7.279-7.645-14.749-15.1-22.112-22.66-.798-.725-1.919-1.77-2.838-2.738-.315-.332-.791-.713-.797-1.047-.014-.785 1.418-1.344 1.693-1.941 4.512-4.387 8.982-8.885 13.546-13.447 1.108-1.107 2.333-2.164 3.437-3.336 1.085-1.152 2.155-2.305 3.287-3.438 1.618-1.617 3.296-3.406 5.08-5.08.61-.572 1.165-1.326 1.743-1.643.037-.047.09-.076.149-.1.345.039.855-.09 1.046.101z"/><path d="m52.093.214c-.378.834-1.172 1.252-1.693 1.941-3.233 3.342-6.574 6.574-9.861 9.861-.826.826-1.536 1.742-2.391 2.539-2.52 2.352-4.936 4.918-7.371 7.422-2.127 1.969-4.236 4.037-6.375 6.176-.288.287-.795.688-.797.996-.003.535 1.424 1.572 1.743 1.893 1.813 1.812 3.618 3.684 5.379 5.476 1.747 1.873 3.569 3.67 5.378 5.479 1.81 1.81 3.52 3.719 5.329 5.529 3.155 3.154 6.285 6.334 9.462 9.512.433.434 1.016.867 1.195 1.494-1.165.324-1.682-.34-2.49-1.195-2.751-2.91-5.543-5.582-8.367-8.416-.469-.471-1.023-.869-1.444-1.346-.378-.426-.656-.853-1.046-1.244-5.275-5.277-10.396-10.572-15.738-15.986-.393-.4-1.039-.854-1.045-1.195-.009-.469 1.376-1.627 1.693-1.943.662-.662 1.282-1.287 1.843-1.742 8.492-8.357 16.746-16.955 25.3-25.25.037-.047.09-.076.149-.1.386.031.914-.082 1.147.099z"/></g></svg>