<svg enable-background="new 0 0 18.386 13.255" viewBox="0 0 18.386 13.255" xmlns="http://www.w3.org/2000/svg"><path d="m6.243.407c.152-.135.272-.339.471-.402 3.89-.007 7.781.002 11.672-.005-.676.686-1.366 1.359-2.041 2.045-.117.127-.264.219-.384.342-1.408 1.419-2.835 2.82-4.241 4.241 1.253 1.269 2.527 2.517 3.783 3.782.101.11.232.186.333.297.843.854 1.705 1.691 2.547 2.547-3.902 0-7.805.002-11.708 0-.293-.326-.647-.586-.942-.909-1.914-1.904-3.815-3.819-5.733-5.718 2.09-2.064 4.157-4.152 6.243-6.22zm-3.1 3.127c1.039 1.027 2.075 2.057 3.102 3.095-1.019 1.04-2.069 2.049-3.085 3.092 1.806.002 3.612.001 5.417 0 1.029-1.033 2.058-2.067 3.1-3.088-1.032-1.033-2.073-2.058-3.098-3.098-1.813-.003-3.624-.001-5.436-.001z"/></svg>