<svg enable-background="new 0 0 13.761 10.366" viewBox="0 0 13.761 10.366" xmlns="http://www.w3.org/2000/svg"><path d="m7.235 0c.439.01.878-.006 1.316.008.276.26.525.551.82.792 1.463 1.463 2.926 2.926 4.389 4.389-.418.417-.835.835-1.253 1.252-.137.136-.268.28-.423.396-1.17 1.176-2.349 2.345-3.517 3.523-.445.006-.89-.006-1.336.006.008-.523-.001-1.047.005-1.57-.457.004-.915 0-1.373.002-.516-.005-1.043.03-1.55-.103-.658-.164-1.271-.512-1.735-1.007-.631-.642-.995-1.538-1.001-2.437-.027-.898.306-1.8.906-2.467.108-.113.22-.222.332-.331.495-.429 1.108-.722 1.755-.829.187-.036.378-.038.567-.058.7-.002 1.4-.002 2.1 0-.004-.522.001-1.044-.002-1.566zm1.321 1.883c.01.34-.001.681.005 1.021-1.109-.004-2.218 0-3.327-.002-.281-.004-.563.039-.828.136-.678.24-1.223.822-1.413 1.517-.213.719-.039 1.54.451 2.108.096.094.187.193.286.284.352.29.794.477 1.25.513 1.193 0 2.387.001 3.581 0-.005.342.004.684-.005 1.026.521-.543 1.063-1.065 1.591-1.601.075-.084.171-.143.25-.223.491-.491.982-.983 1.474-1.474-1.11-1.098-2.204-2.21-3.315-3.305z"/><path d="m3.076.447c.685-.31 1.44-.454 2.189-.444.578-.001 1.156.002 1.734-.002-.002.446.001.893-.001 1.34-.588.003-1.176 0-1.764.001-.995-.042-1.985.367-2.704 1.048-.657.624-1.089 1.485-1.175 2.388-.008.158-.04.316-.03.475.025.271.039.542.105.807.232 1.002.88 1.903 1.766 2.427.518.321 1.118.497 1.722.548.694.003 1.388.001 2.082.001-.002.443 0 .886 0 1.329-.715-.009-1.431 0-2.146-.004-1.055-.065-2.087-.461-2.91-1.125-.135-.094-.238-.226-.372-.321-.564-.564-1.02-1.245-1.279-2.003-.32-.913-.38-1.915-.168-2.86.213-.99.74-1.901 1.46-2.608.442-.405.937-.761 1.491-.997z"/><path d="m4.837 3.188c.474-.073.975.002 1.387.254.65.376 1.048 1.141.985 1.887-.034.503-.264.986-.627 1.335-.289.261-.646.451-1.032.516-.704.133-1.472-.14-1.923-.698-.318-.375-.474-.87-.47-1.358.026-.383.132-.77.358-1.085.3-.448.792-.758 1.322-.851z"/></svg>