<svg clip-rule="evenodd" fill-rule="evenodd" stroke-linejoin="round" stroke-miterlimit="2" viewBox="0 0 560 400" xmlns="http://www.w3.org/2000/svg"><path d="m364.7 328.8 85.2 85.1-35.9 35.9-85.2-85.2v120.4h-50.8v-120.3l-85.2 85.2-35.8-36 85.1-85.1h-120.4v-50.8h120.4l-85.1-85.1 35.9-35.9 85.2 85.2v-120.5h50.8v120.4l85.2-85.2 35.9 35.9-85.3 85.2h241.1c-12.9-155.7-143.4-278-302.4-278-167.6 0-303.4 135.9-303.4 303.4 0 167.6 135.8 303.4 303.4 303.4 159 0 289.5-122.3 302.3-278z" fill-rule="nonzero" transform="matrix(.494397 0 0 .494397 130.247 50)"/></svg>