<svg enable-background="new 0 0 72.282 72.435" viewBox="0 0 72.282 72.435" xmlns="http://www.w3.org/2000/svg"><path clip-rule="evenodd" d="m49.253 48.138c.725.438 1.791.234 2.857.251 2.775.042 6.1-.137 8.876.25 3.301.461 6.248 2.153 7.872 4.413.413.574.776 1.292 1.104 1.905.962 1.805 1.651 4.501 1.153 7.421-.521 3.054-2.213 5.914-4.313 7.521-1.716 1.313-3.677 2.248-6.418 2.507-.874.083-1.78-.05-2.809-.05-3.801 0-7.395-.051-11.483-.05-3.851 0-7.757.049-11.583-.101-1.956-.076-3.97.064-5.717-.1-3.414-.322-5.884-2.2-7.572-4.313-.871-1.091-1.414-2.38-2.156-3.761-4.119-7.666-8.485-15.214-12.586-22.966-1.329-2.514-2.81-5.024-4.212-7.672-1.331-2.513-2.395-5.868-2.256-9.477.27-7.005 3.495-12.189 8.325-15.392 2.326-1.542 4.964-2.78 7.622-4.262 1.791-.998 3.786-2.075 5.717-3.159.526-.295 1.545-1.111 2.106-1.103.715.01 1.035 1.212 1.354 1.805 1.093 2.033 2.46 4 3.309 6.118.569 1.422 1.441 2.709 2.206 4.062 3.078 5.441 5.856 10.74 8.925 16.146.342.601.752 1.254 1.154 2.006.329.617.724 1.835 1.253 1.855.631.023 1.399-1.843 1.756-2.407 1.566-2.482 3.17-5.381 4.663-7.822 3.298-5.392 6.249-10.07 9.476-15.495 1.042-1.75 2.03-3.653 3.561-4.764 1.666-1.208 4.383-1.669 6.568-.853 1.702.636 3.351 2.516 3.962 4.363.848 2.561-.187 4.955-1.153 6.569-1.076 1.797-2.04 3.55-3.059 5.265-4.277 7.202-8.194 13.717-12.486 20.81-1.569 2.594-3.098 5.189-4.663 7.822-.493.831-1.188 1.643-1.353 2.658zm-19.958 4.914c-2.483-.16-4.51-1.16-6.066-2.356-1.626-1.25-2.679-2.81-3.661-4.764-.931-1.851-1.938-3.735-2.858-5.566-.814-1.619-1.865-3.656-2.908-5.516-.453-.809-1.078-1.841-1.203-3.009-.468-4.371 2.732-5.75 5.365-7.271 1.214-.701 2.797-1.462 4.111-2.207.363-.205.995-.701 1.454-.652.492.053 1.05 1.238 1.354 1.805.418.777.746 1.471 1.102 2.106.797 1.417 1.677 2.723 2.257 4.112.629 1.506 1.476 2.824 2.206 4.162 2.238 4.097 4.558 8.18 6.72 12.385 1.033 2.01 2.317 4.046 3.409 6.168.292.566.904 1.866 1.354 1.855.311-.007.729-.794 1.003-1.253.936-1.573 1.717-2.787 2.558-4.362 1.099-2.062 2.371-3.926 3.459-5.767 4.625-7.818 9.303-15.355 13.84-23.016 1.649-2.784 3.489-5.718 5.215-8.625.926-1.558 2.112-3.369 1.404-5.516-.499-1.514-2.312-2.841-4.263-2.708-2.328.159-3.119 1.762-4.111 3.309-2.872 4.48-5.437 9.13-8.123 13.539-3.217 5.278-6.305 10.544-9.427 15.845-.432.732-.835 1.565-1.505 2.107-.592-.498-.869-1.254-1.253-1.906-1.198-2.033-2.23-4.088-3.36-6.117-2.252-4.046-4.545-8.132-6.769-12.185-.734-1.337-1.569-2.702-2.156-4.162-.562-1.398-1.418-2.678-2.207-4.111-.329-.6-.714-1.339-1.102-2.056-.327-.602-.795-1.8-1.304-1.856-.464-.049-1.232.536-1.605.754-.585.343-1.143.549-1.604.802-3.127 1.716-6.327 3.469-9.176 5.115-4.034 2.331-6.929 5.991-7.873 11.232-1.136 6.309 1.772 10.697 3.911 14.592 3.517 6.403 6.615 12.294 10.079 18.553 1.155 2.087 2.171 4.294 3.46 6.067 2.064 2.837 4.931 4.643 9.478 4.814 1.484.056 3.09-.104 4.764.05 1.481.137 3.067.103 4.613.05 4.521-.152 9.324.149 13.89.15 3.316.001 6.622.431 8.774-.652 2.001-1.005 3.712-2.698 4.162-5.416.405-2.442-.568-4.184-1.555-5.616-.766-1.015-1.823-1.817-3.158-2.307-1.39-.509-2.98-.411-5.015-.451-2.46-.048-5.339.077-8.023-.05-.831-.039-2.057-.21-2.657 0-.69.242-1.118 1.583-1.454 2.157-.475.808-1.18 1.514-1.153 2.356.544.346 1.248.251 1.855.25 3.324 0 6.991.151 10.279.151 1.363 0 2.915-.14 4.062.15 1.133.286 2.099 1.425 1.855 2.758-.424 2.321-3.015 2.177-5.767 2.056-3.78-.166-7.753-.201-11.282-.2-5.118 0-10.288-.034-15.144-.251-4.672-.208-7.389-2.771-9.276-6.118-3.76-6.667-7.179-13.126-10.932-19.907-.874-1.579-1.89-3.277-2.507-5.165-.637-1.949-.647-4.653-.101-6.819.979-3.883 3.618-6.685 6.87-8.524 2.726-1.542 5.95-3.125 8.825-4.664.381-.204.916-.691 1.354-.602.383.078.971 1.376 1.254 1.905 2.633 4.921 5.015 9.689 7.772 14.391 1.583 2.699 2.905 5.369 4.462 8.174 1.041 1.874 2.292 4.079 3.36 6.117.271.516.807 1.907 1.304 1.906.325 0 .612-.635.853-1.003 1.832-2.81 3.238-5.655 4.914-8.424 1.964-3.246 4.016-6.585 5.767-9.477 3.428-5.665 6.523-11.116 9.979-16.698.471-.762 1.019-1.856 2.006-1.805.737.038 1.271.774 1.304 1.353.025.471-.279 1.047-.552 1.504-1.83 3.072-3.803 6.156-5.516 9.076-4.061 6.922-8.43 13.941-12.486 20.81-1.504 2.546-3.013 5.263-4.613 7.873-.336.548-1.193 2.476-1.704 2.457-.436-.016-.934-1.329-1.254-1.905-2.689-4.83-5.248-9.768-7.873-14.441-1.573-2.802-3.198-5.331-4.463-8.274-.582-1.355-1.485-2.672-2.256-4.112-.35-.653-.69-1.302-1.104-2.106-.314-.613-.841-1.796-1.354-1.855-.59-.068-1.374.585-1.855.853-1.794.998-3.691 1.988-5.315 2.908-2.494 1.413-4.781 2.513-6.067 4.864-.684 1.249-1.137 2.681-1.153 4.312-.018 1.65.453 3.122 1.103 4.363 1.283 2.448 2.773 4.995 3.861 7.07 1.196 2.282 2.497 4.667 3.911 7.02 1.382 2.301 2.402 4.908 4.161 6.77 1.754 1.854 4.334 3.204 7.572 3.359 2.855.137 5.356.064 7.872.15.906.031 1.925.16 2.507-.25.137-.784-.538-1.461-1.002-2.307-.389-.708-.787-2.045-1.555-2.207-2.963-.222-5.537.081-8.324-.098zm-4.863-25.022c-.295-.513-.646-1.225-1.203-1.003-1.05.417-2.138 1.149-3.31 1.755-1.984 1.025-4.357 1.865-4.062 5.064.745 1.895 1.772 3.798 2.809 5.667 1.025 1.847 1.901 3.757 3.31 5.165 1.356 1.356 3.092 2.589 5.315 3.159 1.593.409 3.892.321 5.866.351.614.009 1.391.262 1.806-.251.049-.519-.32-.936-.552-1.354-1.72-3.099-3.385-6.162-5.015-9.276-1.539-2.934-3.256-6.304-4.964-9.277z" fill-rule="evenodd"/></svg>