<svg enable-background="new 0 0 16.044 16.221" viewBox="0 0 16.044 16.221" xmlns="http://www.w3.org/2000/svg"><path d="m4.607.781c1.994-1.02 4.464-1.042 6.475-.056 1.186.562 2.216 1.449 2.95 2.536-.3.541-.583 1.091-.877 1.635-.545-1.072-1.426-1.972-2.491-2.533-.856-.472-1.84-.702-2.814-.7 1.724 3.047 3.438 6.101 5.157 9.15 1.012 1.802 2.035 3.598 3.038 5.404-.61.003-1.22.002-1.829 0-.501-.884-1.031-1.752-1.533-2.636-.604.488-1.263.917-1.988 1.203-1.563.643-3.35.717-4.964.217-.938-.29-1.815-.775-2.565-1.408-.477.88-.97 1.751-1.455 2.627-.57-.004-1.14 0-1.711-.001.672-1.271 1.352-2.538 2.024-3.809-.614-.802-1.078-1.72-1.338-2.697-.344-1.277-.362-2.642-.044-3.926.513-2.138 1.995-4.026 3.965-5.006zm1.373 1.212c-.721.258-1.388.659-1.965 1.162-.144.138-.282.284-.425.422-1 1.066-1.578 2.509-1.613 3.968-.018 1.146.294 2.298.895 3.274 1.628-3.049 3.258-6.098 4.877-9.154-.602.023-1.198.138-1.769.328zm1.808 3.256c-.012.028-.036.082-.048.109-1.261 2.262-2.505 4.532-3.774 6.79.08.062.16.124.237.191 1.081.884 2.484 1.37 3.88 1.324 1.378-.042 2.735-.589 3.755-1.516-1.32-2.26-2.649-4.515-3.963-6.779-.025-.043-.055-.082-.087-.119z"/></svg>