<svg enable-background="new 0 0 75.27 76.664" viewBox="0 0 75.27 76.664" xmlns="http://www.w3.org/2000/svg"><g clip-rule="evenodd" fill-rule="evenodd"><path d="m39.106.044c2.217-.106 4.845-.057 6.384.58 1.564.648 2.787 1.847 3.53 3.385.708 1.468.646 4.174.58 6.287-.072 2.294.209 4.609-.146 6.674-.327 1.913-1.486 3.231-2.804 4.159-2.637 1.856-7.734 1.711-11.075 2.805-3.394 1.111-5.911 3.428-6.481 7.399-.271 1.893-.096 4.342-.096 6.722 0 2.466-.102 4.756.193 6.771.556 3.792 2.915 6.579 6.287 7.593 1.738.523 3.731.776 5.755 1.161 2.058.39 3.937.63 5.368 1.596 1.328.895 2.461 2.228 2.853 4.062.357 1.669.242 3.603.242 5.513 0 2.015.205 3.802 0 5.609-.362 3.195-2.547 5.42-5.368 6.045-1.608.357-3.612.242-5.513.242-1.89 0-3.837-.048-5.562-.146-7.149-.403-12.407-2.862-17.022-5.852-1.127-.729-2.219-1.591-3.24-2.466-2.035-1.745-3.833-3.867-5.368-6.094-2.319-3.363-4.212-7.14-5.561-11.558-.9-2.949-1.656-6.142-1.934-9.527-.337-4.106.022-7.192.725-10.494 1.306-6.136 3.766-11.648 6.867-16.007.793-1.114 1.709-2.13 2.611-3.144.46-.517.835-1.076 1.306-1.548 4.172-4.173 9.965-7.342 16.83-8.899 3.168-.718 6.694-.867 10.542-.87.033.002.065.003.097.002z"/><path d="m58.643.14c1.466-.102 3.606-.048 5.465-.049 3.819 0 6.93-.186 8.995 1.741.921.859 1.77 2.049 1.983 3.386.347 2.174.096 4.528.097 6.818 0 18.197-.001 36.301 0 54.889 0 2.53.098 4.451-.822 6.045-.842 1.459-2.072 2.58-3.724 3.144-1.659.566-4.358.478-6.287.387-2.346-.11-4.606.221-6.723-.048-1.99-.253-3.338-1.238-4.352-2.515-1.041-1.312-1.511-3.004-1.597-5.271-.079-2.119.049-4.145.049-6.722 0-2.395-.328-4.199-1.209-5.707-.869-1.485-1.864-2.651-3.385-3.481-1.534-.839-3.5-1.052-5.465-1.403-1.882-.336-3.918-.554-5.707-1.16-1.693-.574-2.948-1.639-3.772-3.095-1.603-2.835-1.064-8.191-1.064-12.671 0-2.297.126-4.165 1.209-5.658 1.065-1.468 2.272-2.273 4.062-2.805 3.325-.989 8.341-1.041 11.074-2.66.71-.421 1.375-.916 1.935-1.499.577-.601 1.004-1.417 1.354-2.079 1.651-3.119 1.053-7.995 1.16-12.476.053-2.2.735-3.749 1.886-4.982 1.101-1.178 2.547-1.969 4.838-2.129z"/></g></svg>