<svg enable-background="new 0 0 83.479 44.883" viewBox="0 0 83.479 44.883" xmlns="http://www.w3.org/2000/svg"><g clip-rule="evenodd" fill-rule="evenodd"><path d="m30.5 1.642c.075 2.956.056 5.95 0 8.935-.019.939.197 1.907-.105 2.769-.895-.141-1.473-.771-2.142-1.149-2.06-1.162-4.65-1.932-7.837-1.463-3.345.494-6.141 2.611-7.786 5.173-1.672 2.606-2.612 6.574-1.305 10.345 1.075 3.105 3.205 5.52 6.061 6.898 1.638.79 3.32 1.198 5.381 1.149 5.947-.143 9.417-3.847 10.867-8.569.522-1.701.641-3.777.575-5.851-.198-6.325.144-13.184.156-19.28 1.675-.282 3.646-.156 5.486-.156 1.87-.001 3.735-.059 5.486.052.575.491.903 1.24 1.254 1.881.371.679.669 1.399.993 2.09.643 1.373 1.469 2.685 2.193 4.023 1.453 2.684 2.836 5.434 4.232 8.15 2.806 5.457 5.804 10.811 8.517 16.301 1.361 2.782 2.86 5.372 4.284 8.099.47.899 1.018 1.808 1.306 2.821-3.596.34-7.843.067-11.389.104-.809-.618-1.104-1.645-1.568-2.508-2.316-4.31-4.849-8.77-7.106-13.218-.686-1.354-1.39-2.687-2.09-4.024-.216-.412-.441-.884-.836-1.15-.347.42-.238 1.186-.313 1.777-.551 4.338-1.96 7.535-4.024 10.449-4.302 6.079-12.197 11.257-22.988 9.092-4.431-.89-7.987-3.216-10.71-5.8-3.759-3.676-6.61-8.227-7.054-14.996-.226-3.44.56-6.942 1.62-9.613 1.075-2.709 2.533-5.019 4.336-6.896 3.713-3.864 8.695-6.745 15.36-7.054 3.268-.152 6.875.466 9.146 1.619zm-.941 5.173c0-1.566.034-3.084-.156-4.389-.514-.429-1.25-.469-1.934-.628-1.986-.459-4.675-.811-7.21-.574-4.752.442-8.479 2.289-11.494 4.754-3.073 2.513-5.344 5.776-6.583 9.666-1.426 4.475-1.396 9.671.157 13.898 1.436 3.91 3.731 7.106 6.792 9.509 4.548 3.57 11.386 6.081 18.81 4.127 2.101-.552 3.957-1.477 5.642-2.508 4.979-3.041 8.655-7.817 9.928-14.472.343-1.791.313-3.88.313-5.8 0-.591-.111-1.252.209-1.828.672.87 1.202 1.911 1.724 2.926.525 1.02 1.031 2.053 1.568 3.082 2.912 5.582 5.985 11.13 8.882 16.773.274.533.573 1.302.889 1.462.411.212 1.552.179 2.246.157 1.752-.055 3.167-.053 4.808-.053.781 0 1.587.166 2.142-.209-.238-.947-.754-1.815-1.202-2.664-1.364-2.583-2.656-5.155-4.023-7.733-4.953-9.34-9.834-18.859-14.837-28.266-.396-.741-.994-2.163-1.516-2.403-.484-.223-1.52-.104-2.299-.105-1.793 0-3.271.019-4.755 0-.778-.009-1.593-.131-2.246.209-.191 4.143-.104 8.751-.104 13.219-.001 4.451.194 8.794-.993 12.278-1.544 4.531-5.949 8.099-11.965 8.098-2.057 0-3.756-.52-5.381-1.306-2.906-1.406-5.176-3.825-6.428-6.896-1.446-3.552-.918-7.986.68-10.92 1.455-2.671 4.219-5.143 7.263-6.112 2.793-.891 6.229-.638 8.568.312.756.308 1.437.81 2.299.94.355-1.306.206-2.984.206-4.544z"/><path d="m60.803.389c.466.688.913 1.384 1.254 2.142 1.592 3.53 3.599 6.896 5.329 10.397.855 1.73 1.74 3.478 2.665 5.173 2.779 5.087 5.331 10.297 8.099 15.412 1.603 2.964 3.188 5.956 4.755 8.987.225.434.504.874.574 1.357-.772.334-1.775.158-2.717.157-2.843 0-5.972.082-8.62 0-.735-.519-.979-1.434-1.359-2.194-2.665-5.325-6.066-10.57-8.516-16.145-.466-1.058-1.104-2.098-1.673-3.135-2.81-5.138-5.381-10.505-8.255-15.622-.573-1.021-1.146-2.089-1.673-3.135-.537-1.069-1.244-2.072-1.515-3.24 2.528-.469 5.572.088 8.309-.155.952-.085 2.319-.043 3.343.001zm19.646 39.76c-1.404-2.566-2.765-5.08-4.127-7.628-4.573-8.543-8.984-17.267-13.481-25.759-.907-1.715-1.476-3.634-2.769-5.12-2.694-.222-6.084-.026-8.882-.053-.427.458.131 1.059.313 1.411.247.477.5.976.731 1.411 3.187 6.016 6.459 12.216 9.666 18.182.269.502.393 1.04.627 1.568.351.789.85 1.563 1.254 2.351.408.793.844 1.568 1.254 2.352 2.056 3.927 4.163 7.938 6.27 11.756.426.769.739 1.61 1.358 2.246 1.421.173 2.899-.013 4.44.052 1.483.064 3.137.19 4.494-.104-.078-.993-.695-1.838-1.148-2.665z"/><path d="m21.67 14.182c3.823-.441 6.844 2.07 8.099 4.492 1.189 2.296 1.088 5.417 0 7.576-1.458 2.89-4.409 4.77-8.204 4.494-.554-.041-1.174-.145-1.775-.366-3.134-1.15-6.2-4.663-5.435-9.353.505-3.089 2.854-5.693 5.539-6.531.436-.136 1.096-.234 1.776-.312zm-2.038 1.671c-1.691.748-3.42 2.518-4.023 4.337-.694 2.092-.099 4.694.68 5.956 1.217 1.976 3.669 3.815 6.896 3.501 2.576-.252 4.809-2.125 5.747-4.181.79-1.726.803-4.121-.104-6.008-.532-1.104-1.419-2.117-2.403-2.821-1.017-.727-2.665-1.392-4.546-1.254-1.055.078-1.564.169-2.247.47z"/></g></svg>