<svg enable-background="new 0 0 64.979 71.958" viewBox="0 0 64.979 71.958" xmlns="http://www.w3.org/2000/svg"><path clip-rule="evenodd" d="m53.572.033c2.788-.219 5.186.668 6.766 1.836 1.657 1.227 2.976 2.67 3.866 4.736.839 1.947.773 4.977.773 7.83.001 14.092-.171 28.816-.097 42.578.015 2.748.161 5.812-.628 7.779-.803 2-2.04 3.568-3.674 4.93-1.569 1.309-3.514 2.168-6.379 2.225-2.645.051-5.578-.098-8.409-.098-5.534 0-11.183-.049-16.964-.049-2.794.002-5.607.043-8.409 0-2.818-.041-5.668.08-8.458-.096-5.189-.328-8.641-3.129-10.535-6.67-1.002-1.871-1.647-4.512-1.354-7.152.289-2.59 1.119-4.43 2.368-6.234 3.498-5.053 7.165-10.037 10.729-15.078.596-.844 1.138-1.719 1.739-2.562 1.779-2.492 3.454-5.041 5.365-7.49 1.225-1.572 2.715-3.031 4.784-3.818 5.195-1.975 9.759.504 11.985 3.77 1.264 1.853 1.999 4.002 1.74 6.766-.237 2.529-1.271 4.299-2.514 6.09-2.018 2.91-4.084 5.865-6.089 8.941-.267.408-.64.938-.58 1.547.198 2.023 4.381 1.4 6.621 1.4 1.85 0 3.655.291 5.316 0 1.211-.213 2.356-1.416 2.609-2.658.205-1.004.049-2.277.049-3.527-.002-7.246.097-14.104.096-21.459 0-3.518.001-7.217 0-10.777 0-2.465.095-4.588.87-6.428.722-1.711 1.816-3.047 3.191-4.156 1.363-1.099 2.949-1.998 5.223-2.176z" fill-rule="evenodd"/></svg>