<svg clip-rule="evenodd" fill-rule="evenodd" stroke-linejoin="round" stroke-miterlimit="2" viewBox="0 0 560 400" xmlns="http://www.w3.org/2000/svg" xmlns:xlink="http://www.w3.org/1999/xlink"><clipPath id="a"><path clip-rule="evenodd" d="m6.339 7.139c18.199-2.009 36.554-2.133 54.773-.371-.001 9.345-.003 18.689-.004 28.034.001.053-1.051 20.886-27.386 31.709.002.012-24.061-7.891-27.383-31.508z"/></clipPath><clipPath id="b"><path clip-rule="evenodd" d="m6.339 7.139c18.199-2.009 36.554-2.133 54.773-.371-.001 9.345-.003 18.689-.004 28.034.001.053-1.051 20.886-27.386 31.709.002.012-24.061-7.891-27.383-31.508z"/></clipPath><clipPath id="c"><path clip-rule="evenodd" d="m35.363 65.963c3.819-5.773 7.64-11.543 11.46-17.242 1.712 1.853 3.425 3.704 5.137 5.551 1.224-1.167 5.574-7.981 5.574-7.967-3.8-4.133-7.602-8.297-11.406-12.447-4.137 5.586-8.273 11.27-12.407 16.974 0 4.199 0 8.399.001 12.598-.001.998-.001 1.996-.001 2.995.001.001 1.183.231 1.642-.462z"/></clipPath><clipPath id="d"><path clip-rule="evenodd" d="m35.363 65.963c3.819-5.773 7.64-11.543 11.46-17.242 1.712 1.853 3.425 3.704 5.137 5.551 1.224-1.167 5.574-7.981 5.574-7.967-3.8-4.133-7.602-8.297-11.406-12.447-4.137 5.586-8.273 11.27-12.407 16.974 0 4.199 0 8.399.001 12.598-.001.998-.001 1.996-.001 2.995.001.001 1.183.231 1.642-.462z"/></clipPath><clipPath id="e"><path clip-rule="evenodd" d="m35.363 65.963c3.819-5.773 7.64-11.543 11.46-17.242 1.712 1.853 3.425 3.704 5.137 5.551 1.224-1.167 5.574-7.981 5.574-7.967-3.8-4.133-7.602-8.297-11.406-12.447-4.137 5.586-8.273 11.27-12.407 16.974 0 4.199 0 8.399.001 12.598-.001.998-.001 1.996-.001 2.995.001.001 1.183.231 1.642-.462z"/></clipPath><clipPath id="f"><path clip-rule="evenodd" d="m6.339 7.139c18.199-2.009 36.554-2.133 54.773-.371-.001 9.345-.003 18.689-.004 28.034.001.053-1.051 20.886-27.386 31.709.002.012-24.061-7.891-27.383-31.508z"/></clipPath><clipPath id="g"><path clip-rule="evenodd" d="m6.339 7.139c18.199-2.009 36.554-2.133 54.773-.371-.001 9.345-.003 18.689-.004 28.034.001.053-1.051 20.886-27.386 31.709.002.012-24.061-7.891-27.383-31.508z"/></clipPath><clipPath id="h"><path clip-rule="evenodd" d="m6.339 7.139c18.199-2.009 36.554-2.133 54.773-.371-.001 9.345-.003 18.689-.004 28.034.001.053-1.051 20.886-27.386 31.709.002.012-24.061-7.891-27.383-31.508z"/></clipPath><clipPath id="i"><path clip-rule="evenodd" d="m6.339 7.139c18.199-2.009 36.554-2.133 54.773-.371-.001 9.345-.003 18.689-.004 28.034.001.053-1.051 20.886-27.386 31.709.002.012-24.061-7.891-27.383-31.508z"/></clipPath><clipPath id="j"><path clip-rule="evenodd" d="m6.339 7.139c18.199-2.009 36.554-2.133 54.773-.371-.001 9.345-.003 18.689-.004 28.034.001.053-1.051 20.886-27.386 31.709.002.012-24.061-7.891-27.383-31.508z"/></clipPath><clipPath id="k"><path clip-rule="evenodd" d="m6.339 7.139c18.199-2.009 36.554-2.133 54.773-.371-.001 9.345-.003 18.689-.004 28.034.001.053-1.051 20.886-27.386 31.709.002.012-24.061-7.891-27.383-31.508z"/></clipPath><clipPath id="l"><path clip-rule="evenodd" d="m6.339 7.139c18.199-2.009 36.554-2.133 54.773-.371-.001 9.345-.003 18.689-.004 28.034.001.053-1.051 20.886-27.386 31.709.002.012-24.061-7.891-27.383-31.508z"/></clipPath><clipPath id="m"><path clip-rule="evenodd" d="m6.339 7.139c18.199-2.009 36.554-2.133 54.773-.371-.001 9.345-.003 18.689-.004 28.034.001.053-1.051 20.886-27.386 31.709.002.012-24.061-7.891-27.383-31.508z"/></clipPath><clipPath id="n"><path clip-rule="evenodd" d="m6.339 7.139c18.199-2.009 36.554-2.133 54.773-.371-.001 9.345-.003 18.689-.004 28.034.001.053-1.051 20.886-27.386 31.709.002.012-24.061-7.891-27.383-31.508z"/></clipPath><clipPath id="o"><path clip-rule="evenodd" d="m6.339 7.139c18.199-2.009 36.554-2.133 54.773-.371-.001 9.345-.003 18.689-.004 28.034.001.053-1.051 20.886-27.386 31.709.002.012-24.061-7.891-27.383-31.508z"/></clipPath><clipPath id="p"><path clip-rule="evenodd" d="m6.339 7.139c18.199-2.009 36.554-2.133 54.773-.371-.001 9.345-.003 18.689-.004 28.034.001.053-1.051 20.886-27.386 31.709.002.012-24.061-7.891-27.383-31.508z"/></clipPath><clipPath id="q"><path clip-rule="evenodd" d="m6.339 7.139c18.199-2.009 36.554-2.133 54.773-.371-.001 9.345-.003 18.689-.004 28.034.001.053-1.051 20.886-27.386 31.709.002.012-24.061-7.891-27.383-31.508z"/></clipPath><clipPath id="r"><path clip-rule="evenodd" d="m6.339 7.139c18.199-2.009 36.554-2.133 54.773-.371-.001 9.345-.003 18.689-.004 28.034.001.053-1.051 20.886-27.386 31.709.002.012-24.061-7.891-27.383-31.508z"/></clipPath><clipPath id="s"><path clip-rule="evenodd" d="m6.339 7.139c18.199-2.009 36.554-2.133 54.773-.371-.001 9.345-.003 18.689-.004 28.034.001.053-1.051 20.886-27.386 31.709.002.012-24.061-7.891-27.383-31.508z"/></clipPath><clipPath id="t"><path clip-rule="evenodd" d="m6.339 7.139c18.199-2.009 36.554-2.133 54.773-.371-.001 9.345-.003 18.689-.004 28.034.001.053-1.051 20.886-27.386 31.709.002.012-24.061-7.891-27.383-31.508z"/></clipPath><clipPath id="u"><path clip-rule="evenodd" d="m6.339 7.139c18.199-2.009 36.554-2.133 54.773-.371-.001 9.345-.003 18.689-.004 28.034.001.053-1.051 20.886-27.386 31.709.002.012-24.061-7.891-27.383-31.508z"/></clipPath><clipPath id="v"><path clip-rule="evenodd" d="m6.339 7.139c18.199-2.009 36.554-2.133 54.773-.371-.001 9.345-.003 18.689-.004 28.034.001.053-1.051 20.886-27.386 31.709.002.012-24.061-7.891-27.383-31.508z"/></clipPath><clipPath id="w"><path clip-rule="evenodd" d="m6.339 7.139c18.199-2.009 36.554-2.133 54.773-.371-.001 9.345-.003 18.689-.004 28.034.001.053-1.051 20.886-27.386 31.709.002.012-24.061-7.891-27.383-31.508z"/></clipPath><clipPath id="x"><path clip-rule="evenodd" d="m6.339 7.139c18.199-2.009 36.554-2.133 54.773-.371-.001 9.345-.003 18.689-.004 28.034.001.053-1.051 20.886-27.386 31.709.002.012-24.061-7.891-27.383-31.508z"/></clipPath><clipPath id="y"><path clip-rule="evenodd" d="m6.339 7.139c18.199-2.009 36.554-2.133 54.773-.371-.001 9.345-.003 18.689-.004 28.034.001.053-1.051 20.886-27.386 31.709.002.012-24.061-7.891-27.383-31.508z"/></clipPath><clipPath id="z"><path clip-rule="evenodd" d="m6.339 7.139c18.199-2.009 36.554-2.133 54.773-.371-.001 9.345-.003 18.689-.004 28.034.001.053-1.051 20.886-27.386 31.709.002.012-24.061-7.891-27.383-31.508z"/></clipPath><clipPath id="A"><path clip-rule="evenodd" d="m6.339 7.139c18.199-2.009 36.554-2.133 54.773-.371-.001 9.345-.003 18.689-.004 28.034.001.053-1.051 20.886-27.386 31.709.002.012-24.061-7.891-27.383-31.508z"/></clipPath><clipPath id="B"><path clip-rule="evenodd" d="m62.605 8.644c2.01 18.198 2.135 36.553.374 54.772-9.345-.001-18.689-.002-28.034-.003-.053.001-20.886-1.05-31.711-27.384-.012.002 7.89-24.061 31.507-27.384 9.287-.001 18.576-.001 27.864-.001z"/></clipPath><clipPath id="C"><path clip-rule="evenodd" d="m60.088 6.126c2.01 18.199 2.135 36.554.374 54.773-9.345-.001-18.689-.002-28.034-.002-.053.001-20.886-1.05-31.711-27.385-.012.002 7.89-24.061 31.507-27.384 9.287-.001 18.576-.001 27.864-.002z"/></clipPath><clipPath id="D"><path clip-rule="evenodd" d="m6.339 7.139c18.199-2.009 36.554-2.133 54.773-.371-.001 9.345-.003 18.689-.004 28.034.001.053-1.051 20.886-27.386 31.709.002.012-24.061-7.891-27.383-31.508z"/></clipPath><clipPath id="E"><path clip-rule="evenodd" d="m6.339 7.139c18.199-2.009 36.554-2.133 54.773-.371-.001 9.345-.003 18.689-.004 28.034.001.053-1.051 20.886-27.386 31.709.002.012-24.061-7.891-27.383-31.508z"/></clipPath><clipPath id="F"><path clip-rule="evenodd" d="m6.339 7.139c18.199-2.009 36.554-2.133 54.773-.371-.001 9.345-.003 18.689-.004 28.034.001.053-1.051 20.886-27.386 31.709.002.012-24.061-7.891-27.383-31.508z"/></clipPath><clipPath id="G"><path clip-rule="evenodd" d="m6.339 7.139c18.199-2.009 36.554-2.133 54.773-.371-.001 9.345-.003 18.689-.004 28.034.001.053-1.051 20.886-27.386 31.709.002.012-24.061-7.891-27.383-31.508z"/></clipPath><clipPath id="H"><path clip-rule="evenodd" d="m6.339 7.139c18.199-2.009 36.554-2.133 54.773-.371-.001 9.345-.003 18.689-.004 28.034.001.053-1.051 20.886-27.386 31.709.002.012-24.061-7.891-27.383-31.508z"/></clipPath><clipPath id="I"><path clip-rule="evenodd" d="m6.339 7.139c18.199-2.009 36.554-2.133 54.773-.371-.001 9.345-.003 18.689-.004 28.034.001.053-1.051 20.886-27.386 31.709.002.012-24.061-7.891-27.383-31.508z"/></clipPath><clipPath id="J"><path clip-rule="evenodd" d="m6.339 7.139c18.199-2.009 36.554-2.133 54.773-.371-.001 9.345-.003 18.689-.004 28.034.001.053-1.051 20.886-27.386 31.709.002.012-24.061-7.891-27.383-31.508z"/></clipPath><clipPath id="K"><path clip-rule="evenodd" d="m6.339 7.139c18.199-2.009 36.554-2.133 54.773-.371-.001 9.345-.003 18.689-.004 28.034.001.053-1.051 20.886-27.386 31.709.002.012-24.061-7.891-27.383-31.508z"/></clipPath><clipPath id="L"><path clip-rule="evenodd" d="m6.339 7.139c18.199-2.009 36.554-2.133 54.773-.371-.001 9.345-.003 18.689-.004 28.034.001.053-1.051 20.886-27.386 31.709.002.012-24.061-7.891-27.383-31.508z"/></clipPath><clipPath id="M"><path clip-rule="evenodd" d="m6.339 7.139c18.199-2.009 36.554-2.133 54.773-.371-.001 9.345-.003 18.689-.004 28.034.001.053-1.051 20.886-27.386 31.709.002.012-24.061-7.891-27.383-31.508z"/></clipPath><clipPath id="N"><path clip-rule="evenodd" d="m6.339 7.139c18.199-2.009 36.554-2.133 54.773-.371-.001 9.345-.003 18.689-.004 28.034.001.053-1.051 20.886-27.386 31.709.002.012-24.061-7.891-27.383-31.508z"/></clipPath><clipPath id="O"><path clip-rule="evenodd" d="m6.339 7.139c18.199-2.009 36.554-2.133 54.773-.371-.001 9.345-.003 18.689-.004 28.034.001.053-1.051 20.886-27.386 31.709.002.012-24.061-7.891-27.383-31.508z"/></clipPath><clipPath id="P"><path clip-rule="evenodd" d="m6.339 7.139c18.199-2.009 36.554-2.133 54.773-.371-.001 9.345-.003 18.689-.004 28.034.001.053-1.051 20.886-27.386 31.709.002.012-24.061-7.891-27.383-31.508z"/></clipPath><clipPath id="Q"><path clip-rule="evenodd" d="m6.339 7.139c18.199-2.009 36.554-2.133 54.773-.371-.001 9.345-.003 18.689-.004 28.034.001.053-1.051 20.886-27.386 31.709.002.012-24.061-7.891-27.383-31.508z"/></clipPath><clipPath id="R"><path clip-rule="evenodd" d="m6.339 7.139c18.199-2.009 36.554-2.133 54.773-.371-.001 9.345-.003 18.689-.004 28.034.001.053-1.051 20.886-27.386 31.709.002.012-24.061-7.891-27.383-31.508z"/></clipPath><clipPath id="S"><path clip-rule="evenodd" d="m6.339 7.139c18.199-2.009 36.554-2.133 54.773-.371-.001 9.345-.003 18.689-.004 28.034.001.053-1.051 20.886-27.386 31.709.002.012-24.061-7.891-27.383-31.508z"/></clipPath><clipPath id="T"><path clip-rule="evenodd" d="m6.339 7.139c18.199-2.009 36.554-2.133 54.773-.371-.001 9.345-.003 18.689-.004 28.034.001.053-1.051 20.886-27.386 31.709.002.012-24.061-7.891-27.383-31.508z"/></clipPath><clipPath id="U"><path clip-rule="evenodd" d="m6.339 7.139c18.199-2.009 36.554-2.133 54.773-.371-.001 9.345-.003 18.689-.004 28.034.001.053-1.051 20.886-27.386 31.709.002.012-24.061-7.891-27.383-31.508z"/></clipPath><clipPath id="V"><path clip-rule="evenodd" d="m6.339 7.139c18.199-2.009 36.554-2.133 54.773-.371-.001 9.345-.003 18.689-.004 28.034.001.053-1.051 20.886-27.386 31.709.002.012-24.061-7.891-27.383-31.508z"/></clipPath><clipPath id="W"><path clip-rule="evenodd" d="m6.339 7.139c18.199-2.009 36.554-2.133 54.773-.371-.001 9.345-.003 18.689-.004 28.034.001.053-1.051 20.886-27.386 31.709.002.012-24.061-7.891-27.383-31.508z"/></clipPath><clipPath id="X"><path clip-rule="evenodd" d="m6.339 7.139c18.199-2.009 36.554-2.133 54.773-.371-.001 9.345-.003 18.689-.004 28.034.001.053-1.051 20.886-27.386 31.709.002.012-24.061-7.891-27.383-31.508z"/></clipPath><clipPath id="Y"><path clip-rule="evenodd" d="m6.339 7.139c18.199-2.009 36.554-2.133 54.773-.371-.001 9.345-.003 18.689-.004 28.034.001.053-1.051 20.886-27.386 31.709.002.012-24.061-7.891-27.383-31.508z"/></clipPath><clipPath id="Z"><path clip-rule="evenodd" d="m6.339 7.139c18.199-2.009 36.554-2.133 54.773-.371-.001 9.345-.003 18.689-.004 28.034.001.053-1.051 20.886-27.386 31.709.002.012-24.061-7.891-27.383-31.508z"/></clipPath><g transform="matrix(1.94194 0 0 1.94194 91.0465 129.927)"><g fill="#1d1d4c" fill-rule="nonzero"><path d="m74.551 29.409c-.249.445-.556.818-.922 1.121-.366.302-.779.527-1.241.676-.461.148-.956.222-1.486.222-.625 0-1.19-.105-1.693-.318-.504-.212-.957-.519-1.36-.922-.286-.287-.506-.591-.66-.914-.154-.324-.262-.671-.325-1.042-.064-.371-.101-.768-.112-1.192-.01-.424-.016-.88-.016-1.368 0-.487.006-.943.016-1.367.011-.424.048-.822.112-1.193.063-.371.172-.717.325-1.041.154-.323.374-.628.66-.914.403-.403.856-.71 1.36-.922.503-.212 1.068-.318 1.693-.318.53 0 1.025.074 1.486.223.462.148.875.373 1.241.675s.673.676.922 1.121c.249.446.421.965.517 1.559h-2.242c-.117-.456-.324-.838-.62-1.145-.297-.308-.726-.461-1.289-.461-.307 0-.579.053-.818.159s-.438.249-.597.429c-.106.117-.196.247-.27.39s-.133.331-.175.564-.072.53-.088.891c-.015.36-.023.811-.023 1.351 0 .541.008.992.023 1.352.016.36.046.657.088.89.042.234.101.422.175.565.075.143.164.273.27.389.159.181.358.324.597.43s.511.159.818.159c.562 0 .992-.154 1.289-.461s.503-.689.62-1.145h2.242c-.096.592-.268 1.112-.517 1.557z"/><path d="m84.163 25.672c0 .488-.006.944-.016 1.368-.011.423-.051.821-.119 1.192-.07.371-.18.718-.335 1.042-.153.323-.373.628-.66.914-.402.403-.85.71-1.343.922-.493.213-1.063.318-1.71.318s-1.218-.105-1.717-.318c-.498-.212-.949-.519-1.351-.922-.286-.287-.507-.591-.66-.914-.154-.324-.263-.671-.326-1.042-.064-.371-.101-.768-.111-1.192-.011-.424-.016-.88-.016-1.368 0-.487.005-.943.016-1.367.01-.424.047-.822.111-1.193.063-.371.172-.717.326-1.041.153-.323.373-.628.66-.914.402-.403.853-.71 1.351-.922.499-.212 1.071-.318 1.717-.318.647 0 1.217.106 1.71.318s.941.519 1.343.922c.286.286.507.591.66.914.155.324.265.671.335 1.041.069.371.108.769.119 1.193.01.424.016.879.016 1.367zm-2.211 0c0-.54-.008-.988-.024-1.343s-.045-.65-.087-.883c-.043-.233-.101-.421-.175-.564-.074-.144-.165-.273-.271-.39-.159-.18-.358-.325-.596-.437-.239-.112-.512-.167-.819-.167s-.583.055-.827.167c-.244.111-.445.257-.604.437-.106.117-.194.246-.262.39-.07.143-.125.331-.167.564-.043.233-.072.528-.088.883-.015.355-.024.803-.024 1.343 0 .541.009.989.024 1.344.016.355.045.649.088.882.042.233.097.422.167.565.069.143.156.273.262.389.159.181.36.326.604.438.243.111.519.167.827.167.307 0 .58-.055.819-.167.238-.112.437-.257.596-.438.106-.116.197-.246.271-.389.073-.143.132-.332.175-.565.042-.233.071-.527.087-.882.017-.356.024-.804.024-1.344z"/><path d="m85.625 31.333v-11.322h2.211v9.35h5.135v1.972z"/><path d="m102.019 31.333v-6.599l-2.163 4.293h-1.495l-2.178-4.293v6.599h-2.21v-11.322h2.177l2.958 6.122 2.942-6.122h2.178v11.321z"/><path d="m106.072 31.333v-11.322h7.457v1.972h-5.247v2.655h4.468v1.972h-4.468v2.751h5.247v1.972z"/><path d="m120.907 31.333-2.211-4.516h-1.589v4.516h-2.211v-11.322h4.437c.572 0 1.086.094 1.542.279.455.186.842.434 1.16.747.319.313.559.679.724 1.097.164.419.246.867.246 1.343 0 .393-.055.751-.167 1.074-.111.323-.262.609-.452.859-.19.249-.411.461-.661.635-.249.175-.512.31-.786.406l2.527 4.881zm-.111-7.863c0-.443-.146-.802-.438-1.076-.291-.274-.681-.411-1.168-.411h-2.083v2.973h2.083c.488 0 .877-.136 1.168-.411.292-.274.438-.632.438-1.075z"/><path d="m131.814 27.993c0 .552-.109 1.04-.325 1.463-.218.424-.514.782-.891 1.074s-.819.514-1.328.668c-.509.153-1.06.23-1.653.23-.859 0-1.622-.108-2.291-.325-.667-.217-1.282-.607-1.843-1.169l1.43-1.431c.361.36.774.61 1.241.747.467.138.964.207 1.495.207.657 0 1.155-.119 1.495-.358.339-.238.509-.585.509-1.041 0-.413-.117-.732-.35-.954-.117-.106-.245-.188-.389-.247-.142-.058-.347-.108-.613-.151l-1.367-.191c-.964-.137-1.695-.45-2.194-.937-.54-.541-.81-1.283-.81-2.226 0-.509.09-.973.27-1.392.179-.419.439-.779.779-1.081s.753-.538 1.24-.707c.488-.17 1.039-.255 1.654-.255.785 0 1.468.101 2.051.302.583.202 1.118.541 1.605 1.018l-1.399 1.383c-.36-.339-.744-.554-1.152-.644-.409-.089-.798-.135-1.168-.135-.595 0-1.034.141-1.32.422s-.43.617-.43 1.009c0 .149.027.292.079.429.053.138.138.265.255.382.116.106.262.199.437.278.175.08.379.136.612.168l1.336.19c.519.074.948.183 1.287.326.34.143.632.326.875.548.307.287.53.631.668 1.034.136.402.205.858.205 1.366z"/><path d="m143.31 27.993c0 .552-.109 1.04-.326 1.463-.217.424-.514.782-.89 1.074-.377.292-.819.514-1.328.668-.51.153-1.06.23-1.653.23-.859 0-1.622-.108-2.291-.325-.667-.217-1.282-.607-1.843-1.169l1.43-1.431c.361.36.774.61 1.241.747.466.138.964.207 1.495.207.657 0 1.155-.119 1.494-.358.34-.238.51-.585.51-1.041 0-.413-.117-.732-.35-.954-.117-.106-.246-.188-.389-.247-.143-.058-.347-.108-.613-.151l-1.367-.191c-.965-.137-1.695-.45-2.194-.937-.54-.541-.81-1.283-.81-2.226 0-.509.09-.973.27-1.392.179-.419.439-.779.779-1.081s.752-.538 1.24-.707c.488-.17 1.039-.255 1.654-.255.785 0 1.468.101 2.051.302.583.202 1.118.541 1.605 1.018l-1.399 1.383c-.36-.339-.744-.554-1.152-.644-.409-.089-.799-.135-1.169-.135-.594 0-1.034.141-1.32.422-.285.281-.429.617-.429 1.009 0 .149.027.292.079.429.052.138.138.265.255.382.116.106.262.199.437.278.174.08.379.136.612.168l1.335.19c.519.074.949.183 1.288.326s.631.326.875.548c.307.287.53.631.668 1.034.136.402.205.858.205 1.366z"/><path d="m152.031 29.409c-.249.445-.556.818-.922 1.121-.367.302-.779.527-1.241.676-.461.148-.956.222-1.486.222-.625 0-1.19-.105-1.693-.318-.504-.212-.957-.519-1.36-.922-.286-.287-.506-.591-.66-.914-.154-.324-.262-.671-.325-1.042-.064-.371-.101-.768-.112-1.192-.01-.424-.016-.88-.016-1.368 0-.487.006-.943.016-1.367.011-.424.048-.822.112-1.193.063-.371.172-.717.325-1.041.154-.323.374-.628.66-.914.403-.403.856-.71 1.36-.922.503-.212 1.068-.318 1.693-.318.53 0 1.025.074 1.486.223.462.148.874.373 1.241.675.366.302.673.676.922 1.121.249.446.421.965.516 1.559h-2.242c-.116-.456-.323-.838-.619-1.145-.296-.308-.726-.461-1.289-.461-.307 0-.579.053-.819.159-.238.106-.437.249-.596.429-.106.117-.196.247-.27.39s-.133.331-.176.564c-.042.233-.071.53-.088.891-.015.36-.023.811-.023 1.351 0 .541.008.992.023 1.352.017.36.046.657.088.89.043.234.101.422.176.565.074.143.164.273.27.389.158.181.358.324.596.43.24.106.512.159.819.159.562 0 .992-.154 1.289-.461s.503-.689.619-1.145h2.242c-.095.592-.267 1.112-.516 1.557z"/><path d="m159.703 31.333v-4.738h-3.831v4.738h-2.211v-11.322h2.211v4.627h3.831v-4.627h2.21v11.321z"/><path d="m171.739 25.672c0 .488-.006.944-.015 1.368-.011.423-.051.821-.119 1.192-.069.371-.18.718-.334 1.042-.154.323-.374.628-.661.914-.402.403-.849.71-1.343.922-.493.213-1.062.318-1.71.318-.647 0-1.219-.105-1.717-.318-.498-.212-.949-.519-1.352-.922-.286-.287-.507-.591-.66-.914-.154-.324-.262-.671-.325-1.042-.064-.371-.101-.768-.112-1.192s-.016-.88-.016-1.368c0-.487.006-.943.016-1.367.011-.424.048-.822.112-1.193.063-.371.172-.717.325-1.041.153-.323.373-.628.66-.914.403-.403.853-.71 1.352-.922.498-.212 1.071-.318 1.717-.318.647 0 1.217.106 1.71.318s.941.519 1.343.922c.286.286.507.591.661.914.154.324.265.671.334 1.041.069.371.109.769.119 1.193.009.424.015.879.015 1.367zm-2.21 0c0-.54-.008-.988-.024-1.343s-.045-.65-.087-.883c-.043-.233-.101-.421-.176-.564-.073-.144-.165-.273-.27-.39-.159-.18-.358-.325-.597-.437-.238-.112-.511-.167-.819-.167-.307 0-.583.055-.826.167-.245.111-.446.257-.605.437-.106.117-.194.246-.262.39-.069.143-.125.331-.167.564s-.071.528-.088.883c-.015.355-.023.803-.023 1.343 0 .541.008.989.023 1.344.017.355.046.649.088.882s.098.422.167.565.157.273.262.389c.159.181.36.326.605.438.242.111.518.167.826.167s.581-.055.819-.167c.239-.112.437-.257.597-.438.105-.116.197-.246.27-.389.074-.143.133-.332.176-.565.042-.233.071-.527.087-.882.016-.356.024-.804.024-1.344z"/><path d="m181.183 25.672c0 .488-.006.944-.016 1.368-.01.423-.051.821-.119 1.192-.069.371-.179.718-.334 1.042-.153.323-.373.628-.66.914-.402.403-.85.71-1.343.922-.493.213-1.063.318-1.71.318s-1.219-.105-1.717-.318c-.497-.212-.949-.519-1.352-.922-.286-.287-.506-.591-.66-.914-.154-.324-.262-.671-.325-1.042-.064-.371-.101-.768-.112-1.192-.01-.424-.016-.88-.016-1.368 0-.487.006-.943.016-1.367.011-.424.048-.822.112-1.193.063-.371.172-.717.325-1.041.154-.323.373-.628.66-.914.403-.403.854-.71 1.352-.922s1.071-.318 1.717-.318 1.217.106 1.71.318.941.519 1.343.922c.286.286.507.591.66.914.155.324.265.671.334 1.041.069.371.109.769.119 1.193.011.424.016.879.016 1.367zm-2.21 0c0-.54-.008-.988-.024-1.343-.015-.355-.045-.65-.087-.883-.043-.233-.101-.421-.175-.564-.074-.144-.165-.273-.27-.39-.159-.18-.358-.325-.597-.437s-.512-.167-.819-.167-.583.055-.827.167c-.244.111-.446.257-.604.437-.106.117-.194.246-.262.39-.07.143-.125.331-.167.564-.043.233-.072.528-.088.883-.015.355-.024.803-.024 1.343 0 .541.009.989.024 1.344.016.355.045.649.088.882.042.233.097.422.167.565.069.143.157.273.262.389.158.181.36.326.604.438.243.111.519.167.827.167s.58-.055.819-.167.437-.257.597-.438c.105-.116.196-.246.27-.389s.132-.332.175-.565c.042-.233.072-.527.087-.882.016-.356.024-.804.024-1.344z"/><path d="m182.646 31.333v-11.322h2.211v9.35h5.136v1.972z"/><path d="m72.34 43.257-.727-.886c-.083.076-.193.169-.329.279s-.303.214-.499.312c-.198.098-.425.184-.682.256-.258.072-.549.107-.874.107-.394 0-.748-.056-1.062-.17-.314-.113-.581-.272-.801-.477-.22-.203-.39-.452-.512-.744-.12-.291-.181-.611-.181-.959 0-.303.05-.571.148-.807.098-.234.229-.446.391-.635.163-.19.35-.364.563-.523.212-.159.428-.311.647-.455-.099-.12-.199-.245-.301-.374-.103-.129-.197-.264-.284-.409-.087-.144-.157-.297-.21-.46s-.079-.336-.079-.517c0-.242.043-.466.131-.67.087-.204.21-.382.37-.534.159-.152.349-.271.569-.357.221-.087.46-.131.718-.131.251 0 .485.043.702.131.216.087.404.206.563.357s.283.331.37.54c.087.208.132.433.132.675 0 .325-.086.604-.256.835-.171.231-.385.433-.641.607-.076.046-.152.095-.227.148-.061.045-.126.091-.194.136-.068.046-.129.087-.181.125l2.055 2.487c.084-.128.154-.254.21-.375.057-.12.103-.253.137-.397s.06-.303.079-.477c.019-.175.029-.375.029-.602h.818c-.008.515-.069.977-.182 1.385-.114.41-.303.773-.568 1.091l1.238 1.488zm-3.441-4.156c-.175.121-.345.242-.512.363-.166.121-.314.254-.443.398s-.232.304-.312.483c-.079.178-.119.38-.119.608 0 .241.042.461.125.658.083.198.2.367.352.512.152.144.331.253.539.329.208.075.437.114.687.114.304 0 .61-.053.92-.159s.64-.314.988-.625zm1.385-2.306c0-.273-.091-.501-.272-.687-.182-.186-.409-.278-.682-.278-.28 0-.505.089-.676.266-.17.179-.256.404-.256.676 0 .189.055.377.165.562s.298.441.562.766c.038-.023.081-.049.131-.08.05-.03.096-.064.142-.101.053-.038.106-.076.159-.114.189-.129.357-.271.505-.426.148-.154.222-.349.222-.584z"/><path d="m82.834 41.031c0 .356-.067.676-.199.96-.133.284-.322.524-.568.722-.246.196-.539.347-.881.453-.34.106-.722.159-1.146.159-.606 0-1.124-.083-1.556-.25-.432-.166-.837-.438-1.216-.818l.591-.59c.333.333.671.564 1.011.692.341.129.738.193 1.192.193.591 0 1.057-.13 1.397-.391.341-.262.512-.63.512-1.108 0-.212-.032-.404-.097-.578-.064-.174-.16-.319-.289-.431-.129-.114-.263-.195-.404-.244-.139-.05-.357-.097-.652-.143l-.943-.147c-.644-.105-1.14-.31-1.488-.613-.409-.364-.614-.867-.614-1.511 0-.341.061-.653.182-.937s.294-.524.517-.721.493-.351.812-.46c.318-.11.677-.165 1.078-.165.515 0 .958.071 1.329.21.371.14.731.366 1.08.676l-.557.555c-.249-.227-.518-.399-.806-.516s-.647-.176-1.079-.176c-.545 0-.965.136-1.261.409-.295.272-.443.636-.443 1.09 0 .409.121.72.364.932.129.105.289.196.482.272.194.076.396.133.608.171l.886.136c.379.052.678.123.897.21.22.087.412.206.579.357.455.387.682.921.682 1.602z"/><path d="m84.526 35.171h.863v8.086h-.863z"/><path d="m91.534 43.257-1.965-3.396-1.977 3.396h-.976l2.476-4.145-2.317-3.94h.999l1.794 3.191 1.794-3.191h1l-2.329 3.94 2.499 4.145z"/><path d="m96.133 35.943v7.314h-.864v-7.314h-2.339v-.772h5.543v.772z"/><path d="m104.571 43.257v-3.691h-3.839v3.691h-.863v-8.086h.863v3.623h3.839v-3.623h.864v8.086z"/><path d="m111.237 35.943v2.976h3.544v.772h-3.544v3.566h-.862v-8.086h5.02v.772z"/><path d="m122.198 39.214c0 .431-.004.808-.011 1.13-.009.322-.036.609-.086.863-.049.254-.124.483-.227.687-.102.204-.247.401-.437.59-.272.273-.582.482-.932.625-.347.144-.726.216-1.136.216-.817 0-1.506-.28-2.066-.84-.189-.189-.335-.387-.437-.591s-.178-.433-.227-.687c-.049-.253-.077-.541-.085-.862-.008-.323-.011-.7-.011-1.131s.004-.808.011-1.13c.008-.321.036-.609.085-.863.05-.253.125-.482.227-.687.102-.204.248-.401.437-.59.56-.56 1.249-.841 2.066-.841.819 0 1.508.281 2.067.841.19.189.335.386.437.59.103.205.179.434.227.687.049.254.078.542.086.863.008.322.012.699.012 1.13zm-.864 0c0-.424-.006-.782-.017-1.074-.01-.291-.035-.539-.073-.744-.038-.204-.095-.38-.171-.528-.076-.147-.178-.285-.306-.414-.175-.182-.385-.324-.63-.426-.247-.102-.502-.154-.767-.154-.264 0-.52.052-.766.154s-.455.244-.63.426c-.129.129-.231.267-.306.414-.076.148-.133.324-.171.528-.037.204-.062.453-.074.744-.011.292-.016.65-.016 1.074s.005.782.016 1.073c.011.292.036.539.074.744s.094.381.171.528c.075.148.178.286.306.415.175.182.384.324.63.426s.502.154.766.154c.265 0 .52-.052.767-.154.245-.102.455-.244.63-.426.128-.128.23-.266.306-.415.076-.147.133-.323.171-.528.037-.204.062-.452.073-.744s.017-.649.017-1.073z"/><path d="m128.762 43.257-1.84-3.588h-1.942v3.588h-.863v-8.086h3.1c.356 0 .68.051.972.153.291.102.543.25.755.443s.376.43.493.71.177.594.177.943c0 .59-.163 1.073-.488 1.448-.326.375-.75.615-1.273.721l1.92 3.668zm-.012-5.827c0-.5-.15-.872-.449-1.118-.3-.246-.687-.369-1.164-.369h-2.158v2.964h2.158c.476 0 .865-.121 1.164-.364.299-.241.449-.612.449-1.113z"/><path d="m137.518 43.257v-6.144l-2.215 4.872h-.738l-2.249-4.872v6.144h-.863v-8.086h.863l2.635 5.735 2.567-5.735h.863v8.086z"/><path d="m148.301 41.934c-.163.3-.367.552-.613.755-.246.205-.524.362-.835.472-.31.11-.647.164-1.011.164-.401 0-.778-.072-1.129-.216-.353-.143-.665-.351-.937-.624-.19-.189-.336-.387-.438-.59-.102-.205-.178-.434-.227-.688-.049-.253-.077-.541-.084-.863-.009-.322-.011-.699-.011-1.13s.003-.808.011-1.13c.007-.322.035-.609.084-.863.05-.253.125-.482.227-.687.102-.204.248-.401.438-.59.272-.273.584-.481.937-.625.351-.143.728-.216 1.129-.216.364 0 .701.055 1.011.165.311.109.589.267.835.471.245.205.45.457.613.756.162.299.279.638.347 1.017h-.886c-.106-.5-.326-.898-.659-1.193s-.753-.443-1.261-.443c-.265 0-.52.049-.766.147-.246.099-.456.239-.63.421-.129.129-.231.267-.306.414-.076.148-.134.326-.172.534-.037.209-.061.458-.073.75-.011.291-.017.649-.017 1.073 0 .425.006.782.017 1.074.011.291.036.54.073.749.038.208.095.386.172.534.075.148.178.286.306.415.174.181.384.322.63.42s.501.148.766.148c.508 0 .932-.148 1.272-.443.341-.295.564-.694.67-1.193h.863c-.067.378-.184.716-.346 1.015z"/><path d="m155.792 39.214c0 .431-.005.808-.012 1.13-.008.322-.035.609-.085.863-.049.254-.125.483-.227.687s-.247.401-.437.59c-.272.273-.583.482-.932.625-.347.144-.726.216-1.136.216-.817 0-1.506-.28-2.066-.84-.189-.189-.335-.387-.437-.591s-.178-.433-.227-.687c-.049-.253-.078-.541-.085-.862-.008-.323-.011-.7-.011-1.131s.003-.808.011-1.13c.007-.321.036-.609.085-.863.049-.253.125-.482.227-.687.102-.204.248-.401.437-.59.56-.56 1.249-.841 2.066-.841.818 0 1.507.281 2.067.841.19.189.335.386.437.59.102.205.179.434.227.687.049.254.077.542.085.863.008.322.013.699.013 1.13zm-.864 0c0-.424-.006-.782-.017-1.074-.011-.291-.036-.539-.073-.744-.038-.204-.095-.38-.172-.528-.075-.147-.178-.285-.305-.414-.175-.182-.385-.324-.63-.426-.247-.102-.502-.154-.767-.154-.264 0-.521.052-.766.154-.246.102-.456.244-.63.426-.129.129-.231.267-.307.414-.075.148-.133.324-.17.528-.038.204-.063.453-.074.744-.01.292-.016.65-.016 1.074s.006.782.016 1.073c.011.292.036.539.074.744.037.205.094.381.17.528.076.148.179.286.307.415.174.182.384.324.63.426.245.102.502.154.766.154.265 0 .52-.052.767-.154.245-.102.455-.244.63-.426.128-.128.23-.266.305-.415.076-.147.134-.323.172-.528.037-.204.062-.452.073-.744s.017-.649.017-1.073z"/><path d="m157.711 43.257v-8.086h.863v7.314h4.134v.772z"/><path d="m164.105 43.257v-8.086h.863v7.314h4.135v.772z"/><path d="m170.499 43.257v-8.086h5.021v.772h-4.158v2.852h3.543v.771h-3.543v2.92h4.158v.771z"/><path d="m182.412 41.502c-.105.329-.283.627-.533.891-.288.311-.617.544-.983.7-.367.155-.759.232-1.175.232-.402 0-.778-.072-1.13-.216-.353-.143-.665-.352-.937-.625-.19-.189-.335-.386-.437-.59s-.179-.433-.227-.687c-.05-.254-.077-.541-.085-.863-.009-.322-.011-.699-.011-1.13s.003-.808.011-1.131c.008-.321.035-.608.085-.862.049-.254.125-.483.227-.687.102-.205.247-.401.437-.591.56-.56 1.249-.84 2.067-.84.386 0 .74.059 1.061.176.322.117.603.284.846.5.242.215.441.471.597.766s.263.621.325.976h-.864c-.114-.514-.343-.918-.687-1.209-.345-.292-.77-.438-1.277-.438-.265 0-.521.052-.767.154-.245.102-.455.244-.63.426-.129.129-.231.267-.306.414-.076.148-.133.324-.171.528-.037.205-.062.452-.073.745-.011.291-.017.649-.017 1.072 0 .425.006.783.017 1.074s.036.541.073.749c.038.209.095.387.171.535.075.147.178.285.306.414.175.182.385.322.63.42.246.098.502.148.767.148.295 0 .576-.058.846-.177.269-.116.498-.289.687-.516.167-.196.284-.41.352-.641s.102-.506.102-.824v-.613h-1.987v-.761h2.85v1.283c-.001.47-.054.87-.16 1.198z"/><path d="m184.468 43.257v-8.086h5.02v.772h-4.157v2.852h3.543v.771h-3.543v2.92h4.157v.771z"/></g><g><path d="m33.759 68.386c-.243 0-25.615-8.262-29.139-33.312-.006-.037-.009-.076-.009-.113v-28.806c0-.416.313-.765.727-.81 9.401-1.037 18.963-1.563 28.421-1.563s19.021.526 28.422 1.563c.413.045.726.394.726.81v28.806c.005.196-1.269 22.036-28.837 33.363-.098.042-.204.062-.311.062zm-27.516-33.483c3.205 22.533 24.89 30.88 27.487 31.798 26.1-10.864 27.517-31.253 27.547-31.762v-28.053c-9.108-.978-18.361-1.473-27.517-1.473-9.155 0-18.409.495-27.517 1.473z" fill="#fff" fill-rule="nonzero"/><path d="m6.339 7.139c18.199-2.009 36.565-2.009 54.764 0v27.864c.001.059-1.045 20.714-27.383 31.544.004.025-24.06-7.918-27.381-31.544 0-9.287 0-18.576 0-27.864z" fill="#1d1d4c" fill-rule="nonzero"/><g clip-path="url(#a)"><path d="m33.72 33.597c.001 10.972.001 21.943.002 32.914-.002.008 24.671-8.595 27.386-32.237-9.117-.485-18.253-.71-27.388-.677z" fill="#be1e2d" fill-rule="nonzero"/></g><g clip-path="url(#b)"><path d="m35.363 65.913c3.819-5.772 7.64-11.542 11.46-17.241 1.712 1.853 3.426 3.705 5.137 5.551 3.092-2.884 5.574-7.97 5.574-7.967-3.8-4.133-7.602-8.298-11.406-12.449-4.137 5.587-8.273 11.271-12.407 16.974 0 4.2 0 8.4.001 12.6-.001.997-.001 1.996-.001 2.994.001.001 1.183.232 1.642-.462z" fill="#fff" fill-rule="nonzero"/></g><g clip-path="url(#c)"><path d="m52.372 46.767c-.134 0-.27-.002-.409-.005-2.816-.062-4.353-.823-5.587-1.435-.998-.495-1.721-.853-3.385-.877-1.66-.018-2.324.306-3.353.795-1.238.589-2.779 1.321-5.611 1.321h-.067c-2.779 0-4.306-.718-5.535-1.295-1.028-.482-1.699-.802-3.362-.778l-.076-5.256c2.875-.045 4.425.689 5.674 1.276.982.462 1.695.796 3.306.796h.049c1.657 0 2.374-.341 3.367-.811 1.249-.594 2.809-1.331 5.672-1.304 2.867.041 4.415.808 5.656 1.423.999.495 1.721.853 3.376.889 1.652.044 2.369-.273 3.358-.709 1.253-.554 2.815-1.239 5.683-1.131l-.203 5.253c-1.659-.064-2.332.235-3.356.687-1.179.52-2.632 1.161-5.197 1.161z" fill="#1d1d4c" fill-rule="nonzero"/></g><g clip-path="url(#d)"><path d="m55.955 56.457c-.097 0-.196-.001-.296-.003-2.827-.045-4.367-.801-5.603-1.407-.999-.491-1.72-.845-3.381-.865-1.665-.021-2.327.305-3.356.791-1.232.583-2.766 1.307-5.569 1.307h-.049c-2.832-.001-4.374-.738-5.614-1.33-1.016-.485-1.69-.807-3.297-.807h-.068l-.028-5.257c2.871-.009 4.412.724 5.657 1.32.994.474 1.711.816 3.359.817h.035c1.628 0 2.342-.337 3.327-.802 1.248-.59 2.807-1.324 5.662-1.296 2.854.036 4.397.794 5.637 1.402.998.491 1.72.844 3.377.871 1.662.028 2.373-.291 3.364-.735 1.249-.56 2.801-1.254 5.664-1.176l-.149 5.256c-1.666-.048-2.337.256-3.365.718-1.193.534-2.67 1.195-5.307 1.196z" fill="#1d1d4c" fill-rule="nonzero"/></g><g clip-path="url(#e)"><path d="m53.64 67.887h-.046c-2.845-.007-4.39-.749-5.632-1.346-.995-.477-1.713-.823-3.368-.828h-.029c-1.629 0-2.344.342-3.331.813-1.241.594-2.785 1.333-5.626 1.333-.003 0-.005 0-.009 0-2.84 0-4.384-.739-5.625-1.333-.987-.472-1.702-.814-3.334-.814h-.028l-.012-5.258c2.854.012 4.4.734 5.643 1.33.992.474 1.71.818 3.358.818h.006c1.649 0 2.365-.343 3.358-.817 1.244-.596 2.794-1.334 5.643-1.33 2.846.009 4.39.751 5.63 1.347.995.477 1.714.822 3.369.827h.034c1.632 0 2.348-.335 3.337-.796 1.244-.581 2.796-1.309 5.642-1.282l-.042 5.257c-1.64-.01-2.38.323-3.375.787-1.231.577-2.762 1.292-5.563 1.292z" fill="#1d1d4c" fill-rule="nonzero"/></g><g clip-path="url(#f)"><path d="m33.934 50.838-.426-.309c3.918-5.405 8.133-11.201 12.408-16.974l.19-.256.215.233c1.38 1.5 2.761 3 4.142 4.501 2.525 2.747 5.05 5.493 7.575 8.223l-.387.357c-2.524-2.731-5.05-5.477-7.576-8.224-1.308-1.423-2.616-2.845-3.925-4.267-4.209 5.687-8.357 11.392-12.216 16.716z" fill="#1d1d4c" fill-rule="nonzero"/></g><g clip-path="url(#g)"><path d="m35.583 65.959-.438-.29c3.867-5.846 7.654-11.564 11.46-17.242l.186-.277.226.245c1.712 1.853 3.424 3.705 5.136 5.551l-.386.358c-1.636-1.766-3.274-3.536-4.911-5.308-3.743 5.586-7.468 11.213-11.273 16.963z" fill="#1d1d4c" fill-rule="nonzero"/></g><g clip-path="url(#h)"><path d="m33.72 33.597c-9.135.035-18.268.328-27.381.881v-27.339c9.1-1.004 18.238-1.538 27.38-1.6 0 9.353.001 18.706.001 28.058z" fill="#be1e2d" fill-rule="nonzero"/></g><g clip-path="url(#i)"><path d="m28.673 8.237c-2.895 1.165-5.789 2.37-8.68 3.609v-.022c-2.893-.933-5.783-1.815-8.67-2.636-.657.668-1.312 1.337-1.968 2.006 0 5.571.001 11.142.002 16.712 2.735.924 5.471 1.891 8.209 2.892.591-1.895 2.431-1.634 2.431-1.632v.023c.001-.001 1.841-.401 2.433 1.461 2.739-1.2 5.479-2.381 8.219-3.537 0-5.684-.001-11.368-.001-17.053-.658-.611-1.317-1.218-1.975-1.823z" fill="#fff" fill-rule="nonzero"/></g><g clip-path="url(#j)"><path d="m61.108 34.274c-9.117-.485-18.253-.71-27.388-.677 0-9.352-.001-18.705-.001-28.058 9.141-.062 18.284.348 27.393 1.228-.001 9.169-.003 18.338-.004 27.507z" fill="#fff450" fill-rule="nonzero"/></g><g clip-path="url(#k)"><path d="m50.387 22.477c-1.855-.077-3.71-.138-5.567-.186.001-1.899.001-3.797.001-5.696 1.856.054 3.712.124 5.568.209 0 1.891-.001 3.782-.002 5.673z" fill="#1d1d4c" fill-rule="nonzero"/></g><g clip-path="url(#l)"><path d="m44.819 27.987c-1.855-.041-3.711-.071-5.567-.087 0-1.903 0-3.806 0-5.709 1.857.019 3.713.053 5.568.1 0 1.899 0 3.798-.001 5.696z" fill="#1d1d4c" fill-rule="nonzero"/></g><g clip-path="url(#m)"><path d="m55.949 28.388c-1.853-.092-3.708-.171-5.563-.238 0-1.891 0-3.782.001-5.673 1.856.076 3.71.166 5.564.271-.001 1.88-.001 3.759-.002 5.64z" fill="#1d1d4c" fill-rule="nonzero"/></g><g clip-path="url(#n)"><path d="m44.822 16.595c-1.856-.054-3.713-.091-5.569-.113v-5.709c1.857.024 3.713.066 5.569.126z" fill="#1d1d4c" fill-rule="nonzero"/></g><g clip-path="url(#o)"><path d="m39.29 10.774c-1.857-.024-3.714-.031-5.571-.019 0-1.739 0-3.477 0-5.216 1.857-.012 3.715-.006 5.571.021z" fill="#1d1d4c" fill-rule="nonzero"/></g><g clip-path="url(#p)"><path d="m61.112 11.881c-1.719-.152-3.438-.289-5.158-.41 0-1.717.001-3.434.001-5.151 1.72.133 3.439.282 5.157.448z" fill="#1d1d4c" fill-rule="nonzero"/></g><g clip-path="url(#q)"><path d="m39.288 33.608c-1.856-.015-3.712-.019-5.568-.012v-5.709c1.856-.008 3.712-.004 5.568.013z" fill="#1d1d4c" fill-rule="nonzero"/></g><g clip-path="url(#r)"><path d="m61.108 34.273c-1.719-.092-3.44-.174-5.16-.247 0-1.879.001-3.759.001-5.638 1.721.085 3.44.18 5.16.287 0 1.866 0 3.732-.001 5.598z" fill="#1d1d4c" fill-rule="nonzero"/></g><g clip-path="url(#s)"><path d="m55.953 17.109c-1.854-.117-3.709-.219-5.564-.305.001-1.891.001-3.782.002-5.673 1.855.095 3.709.209 5.563.34-.001 1.879-.001 3.759-.001 5.638z" fill="#1d1d4c" fill-rule="nonzero"/></g><g clip-path="url(#t)"><path d="m33.721 60.8v5.013c-.083.204-.166.409-.249.612 0 .006-2.861-.665-9.741-5.068 3.33-.191 6.66-.377 9.99-.557z" fill="#1d1d4c" fill-rule="nonzero"/></g><g clip-path="url(#u)"><path d="m13.74 52.25c-.001-.006 3.393 4.225 5.486 5.695 4.831.046 9.662.115 14.495.203-.001-2.143-.001-4.287-.001-6.43-6.661.113-13.323.292-19.98.532z" fill="#1d1d4c" fill-rule="nonzero"/></g><g clip-path="url(#v)"><path d="m11.232 48.673c7.492-.216 14.99-.332 22.489-.348 0-4.909 0-9.819-.001-14.728-9.135.035-18.268.328-27.381.881v.526c.001.015.502 6.104 4.893 13.669z" fill="#1d1d4c" fill-rule="nonzero"/></g><g clip-path="url(#w)"><path d="m15.465 34.012c0 3.417.002 6.834.003 10.25 0 0 .558 2.844 3.45 2.885 1.03-.022 2.06-.042 3.091-.059 0-.001 2.495-.779 2.66-3.065-.001-3.436-.002-6.872-.003-10.308-3.068.07-6.136.168-9.201.297z" fill="#fff450" fill-rule="nonzero"/></g><g clip-path="url(#x)"><path d="m18.439 57.252c5.093-.057 10.188-.089 15.282-.095v4.318c-3.269.002-6.539.01-9.808.025-1.825-1.425-3.649-2.842-5.474-4.248z" fill="#fff450" fill-rule="nonzero"/></g><g clip-path="url(#y)"><path d="m10.755 47.873c7.649-.235 15.308-.36 22.966-.377v4.716c-6.661.012-13.324.087-19.981.224-.996-1.529-1.991-3.05-2.985-4.563z" fill="#fff450" fill-rule="nonzero"/></g><g clip-path="url(#z)"><path d="m6.367 35.192c2.455 2.478 4.912 5.009 7.371 7.582-1.781.059-3.561.126-5.34.201-.001-.006-2.005-4.799-2.031-7.783z" fill="#fff450" fill-rule="nonzero"/></g><g clip-path="url(#A)"><path d="m33.5 34.333c-2.46 2.703-4.921 5.422-7.38 8.143 2.533-.037 5.067-.058 7.601-.065 0-.001-.248-5.005-.221-8.078z" fill="#fff450" fill-rule="nonzero"/></g><g clip-path="url(#B)" transform="matrix(-.00004832 -1 1 -.00004832 -2.3119 69.7392)"><path d="m3.234 35.763h60.972v.526h-60.972z" fill="#1d1d4c"/></g><g clip-path="url(#C)" transform="matrix(-.00004832 -1 1 -.00004832 .205139 67.2221)"><path d="m3.234 33.246h60.972v.526h-60.972z" fill="#1d1d4c"/></g><g clip-path="url(#D)"><path d="m6.355 34.741-.032-.525c18.175-1.101 36.612-1.171 54.799-.205l-.029.525c-18.167-.966-36.584-.897-54.738.205z" fill="#1d1d4c" fill-rule="nonzero"/></g><g clip-path="url(#E)"><path d="m17.735 31.152-.259-.094c-2.803-1.026-5.564-1.999-8.203-2.891l-.179-.06-.002-17.009 2.153-2.195.15.043c2.813.8 5.733 1.688 8.678 2.639l.183.059.004 18.894-.446-1.11h-.048c-.558 0-1.553.189-1.949 1.461zm-8.114-3.423c2.51.85 5.128 1.773 7.787 2.744.559-1.384 1.775-1.564 2.326-1.57l-.004-16.876c-2.826-.909-5.626-1.761-8.329-2.532l-1.783 1.819z" fill-rule="nonzero"/></g><g clip-path="url(#F)"><path d="m9.548 28.099-.381-.362 1.962-2.061-.003-16.483h.525l.004 16.694z" fill-rule="nonzero"/></g><g clip-path="url(#G)"><path d="m19.632 29.313c-2.852-1.164-5.655-2.27-8.334-3.286l.187-.492c2.682 1.018 5.49 2.125 8.346 3.292z" fill-rule="nonzero"/></g><g clip-path="url(#H)"><path d="m22.269 31.019-.089-.277c-.346-1.087-1.151-1.315-1.766-1.315-.098 0-.181.006-.242.012l-.437.879-.005-18.635.159-.068c2.968-1.272 5.891-2.487 8.686-3.61l.154-.062.122.112c.659.605 1.317 1.213 1.976 1.823l.084.078.002 17.343-.161.068c-2.637 1.113-5.325 2.27-8.216 3.536zm-1.855-2.118c.488 0 1.627.144 2.166 1.409 2.738-1.198 5.296-2.299 7.807-3.36l-.002-16.764c-.589-.546-1.178-1.09-1.768-1.632-2.695 1.085-5.506 2.254-8.361 3.476l.004 16.874c.046-.002.098-.003.154-.003z" fill-rule="nonzero"/></g><g clip-path="url(#I)"><path d="m30.465 27.311c-.68-.673-1.36-1.344-2.039-2.012l-.079-.077-.003-16.972h.526l.003 16.751c.654.644 1.308 1.289 1.962 1.937z" fill-rule="nonzero"/></g><g clip-path="url(#J)"><path d="m20.307 29.344-.229-.474c2.992-1.442 5.747-2.75 8.422-3.997l.221.477c-2.672 1.246-5.424 2.552-8.414 3.994z" fill-rule="nonzero"/></g><g clip-path="url(#K)"><path d="m18.132 13.72c-1.828-.634-3.66-1.249-5.446-1.826l.162-.501c1.789.579 3.625 1.195 5.457 1.83z" fill-rule="nonzero"/></g><g clip-path="url(#L)"><path d="m18.132 15.926c-1.835-.641-3.667-1.261-5.446-1.842l.163-.5c1.782.582 3.619 1.203 5.457 1.846z" fill-rule="nonzero"/></g><g clip-path="url(#M)"><path d="m18.132 18.131c-1.838-.647-3.671-1.271-5.446-1.856l.164-.499c1.779.586 3.615 1.211 5.457 1.858z" fill-rule="nonzero"/></g><g clip-path="url(#N)"><path d="m18.133 20.003c-1.833-.648-3.665-1.277-5.447-1.869l.165-.499c1.785.593 3.621 1.224 5.457 1.873z" fill-rule="nonzero"/></g><g clip-path="url(#O)"><path d="m18.133 22.187c-1.84-.655-3.673-1.289-5.447-1.883l.166-.498c1.778.595 3.615 1.229 5.457 1.885z" fill-rule="nonzero"/></g><g clip-path="url(#P)"><path d="m17.934 23.945c-1.848-.66-3.681-1.297-5.446-1.891l.168-.498c1.769.595 3.604 1.233 5.456 1.894z" fill-rule="nonzero"/></g><g clip-path="url(#Q)"><path d="m17.935 26.149c-1.842-.662-3.675-1.303-5.448-1.906l.17-.497c1.775.603 3.611 1.246 5.456 1.909z" fill-rule="nonzero"/></g><g clip-path="url(#R)"><path d="m21.579 13.542-.216-.48c1.851-.836 3.688-1.653 5.461-2.427l.211.483c-1.771.772-3.606 1.588-5.456 2.424z" fill-rule="nonzero"/></g><g clip-path="url(#S)"><path d="m21.58 15.755-.216-.48c1.839-.828 3.677-1.642 5.461-2.419l.21.482c-1.782.777-3.618 1.59-5.455 2.417z" fill-rule="nonzero"/></g><g clip-path="url(#T)"><path d="m21.58 17.967-.215-.48c1.884-.844 3.722-1.655 5.461-2.409l.209.482c-1.737.754-3.572 1.563-5.455 2.407z" fill-rule="nonzero"/></g><g clip-path="url(#U)"><path d="m21.58 19.846-.214-.48c1.861-.832 3.699-1.641 5.461-2.404l.208.482c-1.76.763-3.595 1.571-5.455 2.402z" fill-rule="nonzero"/></g><g clip-path="url(#V)"><path d="m21.58 22.036-.213-.48c1.85-.823 3.687-1.629 5.46-2.395l.209.482c-1.772.766-3.607 1.571-5.456 2.393z" fill-rule="nonzero"/></g><g clip-path="url(#W)"><path d="m21.779 23.784-.213-.481c1.846-.818 3.683-1.62 5.461-2.385l.208.482c-1.775.765-3.611 1.566-5.456 2.384z" fill-rule="nonzero"/></g><g clip-path="url(#X)"><path d="m21.779 25.996-.212-.481c1.871-.825 3.707-1.625 5.46-2.377l.208.482c-1.752.753-3.587 1.552-5.456 2.376z" fill-rule="nonzero"/></g><g clip-path="url(#Y)"><path d="m22.004 30.737c0 .796-.897 1.468-2.006 1.505-1.108.038-2.006-.571-2.006-1.364s.897-1.474 2.005-1.515c1.109-.041 2.007.577 2.007 1.374z" fill="#be1e2d" fill-rule="nonzero"/></g><g clip-path="url(#Z)"><path d="m18.158 33.907c.001 2.911.002 5.822.003 8.733 1.357-.037 2.715-.069 4.073-.097-.001-2.922-.002-5.844-.002-8.767-1.359.038-2.716.082-4.074.131z" fill="#1f2654" fill-rule="nonzero"/></g><path d="m33.721 67.336c-.236 0-24.756-7.992-28.162-32.223-.006-.036-.009-.073-.009-.109v-27.865c0-.402.303-.739.703-.784 9.085-1.003 18.327-1.511 27.468-1.511s18.383.509 27.468 1.511c.4.044.702.382.702.784v27.864c.004.19-1.227 21.318-27.87 32.274-.095.04-.198.059-.3.059zm-26.593-32.388c3.097 21.797 24.054 29.87 26.564 30.758 25.224-10.508 26.595-30.232 26.623-30.724v-27.135c-8.802-.946-17.745-1.426-26.594-1.426-8.848 0-17.791.48-26.593 1.426z" fill="#1d1d4c" fill-rule="nonzero"/></g></g></svg>