<svg enable-background="new 0 0 77.072 77.552" viewBox="0 0 77.072 77.552" xmlns="http://www.w3.org/2000/svg"><path clip-rule="evenodd" d="m77.024 36.329c-11.538.147-23.836.2-35.352-.048-.24-1.14-.139-2.346-.145-3.53-.039-7.353 0-14.878 0-22.391 0-1.378.175-3.001-.29-3.917-1.083-2.13-4.13-2.07-5.126.097-.363.79-.199 2.79-.242 4.159-.126 4.03 0 8.348 0 12.283 0 8.029.048 15.89.048 24.035 0 .636-.046 1.231 0 1.886.046.657 0 1.353 0 2.031v16.249c0 2.8-.088 4.734 1.886 5.416 1.688.583 3.347-.453 3.675-1.935.227-1.023.048-2.405.048-3.675 0-8.403-.043-17.491.097-25.534 10.415-.174 20.752-.098 31.144-.097 1.442 0 2.902-.117 4.304.145-.481 8.764-3.603 15.326-7.689 20.747-4.13 5.479-9.478 9.632-16.104 12.429-3.333 1.407-7.158 2.427-11.51 2.756-4.459.338-8.957-.061-12.961-1.112-5.423-1.423-10.329-3.966-14.266-7.109-4.655-3.715-8.339-8.378-11.026-13.928-.397-.82-.61-1.718-.967-2.611-1.941-4.852-3.115-11.936-2.273-18.522.28-2.194.659-4.07 1.209-5.948 1.086-3.707 2.319-6.96 4.255-10.011 3.705-5.832 8.539-10.563 14.8-13.734 3.205-1.624 6.515-2.902 10.542-3.675 1.013-.195 2.016-.329 3.095-.484 7.024-1.009 14.402.672 19.344 2.805 4.522 1.952 8.244 4.455 11.461 7.496 4.894 4.625 8.684 10.22 10.785 17.7.689 2.452 1.366 5.145 1.258 8.027z" fill-rule="evenodd"/></svg>