<svg enable-background="new 0 0 80.859 45.664" viewBox="0 0 80.859 45.664" xmlns="http://www.w3.org/2000/svg"><path clip-rule="evenodd" d="m80.678.25c.022.045.044.091.101.102.124 14.434.115 30.344-.101 45.221-19.983.252-40.375-.1-60.211-.101-6.747-.001-13.57.125-20.289-.151-.274-1.848-.151-3.759-.151-5.653 0-9.352.05-18.716.05-28.465 0-2.776.051-5.435.051-8.378 0-.892-.121-1.85.151-2.725 9.982-.188 20.521-.05 30.484-.051 15.992-.001 33.185.118 49.915.201zm-8.983 7.924c-10.43 0-20.555-.102-30.736-.101-10.976 0-21.981-.084-32.957-.051-.06.026-.115.055-.152.102-.227.175-.201 1.049-.201 1.716 0 9.479-.108 18.992.05 27.354 1.304.31 2.65.105 3.987.151 1.372.047 2.758.051 4.138.051 18.63 0 37.398.104 55.769.101.643 0 1.354.118 1.969-.151.05-3.418.184-6.767-.051-9.993-1.342-.228-2.761-.101-4.138-.101-4.319-.001-8.484-.051-12.769-.051-5.055 0-10.209.128-15.04-.101-.694-.033-1.421.143-2.069-.151-.097-2.645-.167-5.808.101-8.479 9.708-.155 19.995-.001 29.828 0 1.486.001 2.93.13 4.139-.201.167-3.082.168-6.862 0-9.943-.583-.263-1.249-.152-1.868-.152z" fill-rule="evenodd"/></svg>