<svg enable-background="new 0 0 37.514 78.045" viewBox="0 0 37.514 78.045" xmlns="http://www.w3.org/2000/svg"><g clip-rule="evenodd" fill-rule="evenodd"><path d="m18.727 0c.379.021.929.699 1.323 1.129 1.127 1.225 2.373 2.469 3.483 3.58 1.625 1.626 3.139 3.256 4.611 4.808 2.703 2.848 5.387 5.586 8.093 8.438.378.396.87.766 1.031 1.323-11.983.072-25.118.032-36.888-.195.082-.563.62-.914.981-1.276 1.134-1.134 2.267-2.364 3.434-3.531 1.554-1.554 2.951-3.261 4.513-4.808 3.126-3.096 6.149-6.314 9.27-9.369.037-.046.091-.075.149-.099z"/><path d="m37.514 21.241c-.254 8.262-4.462 13.57-10.154 16.63-2.742 1.474-7.03 2.397-11.282 1.864-3.752-.472-6.993-2.103-9.321-4.121-.464-.403-.903-.905-1.373-1.374-2.639-2.637-4.602-6.258-5.249-10.988-.1-.73-.268-1.609.05-2.354 10.68-.092 22.204.147 32.817.147.782 0 1.586-.024 2.355 0 .724.022 1.472-.036 2.157.196zm-25.459 1.276c-1.859.108-3.104 2.069-2.354 3.875.934 2.249 4.372 2.136 5.199-.049.355-.938.106-2.179-.539-2.943-.652-.472-1.213-.948-2.306-.883zm10.252 2.697c-.072 2.188 2.303 3.595 4.219 2.551 1.465-.797 1.733-3.06.687-4.268-.544-.626-1.428-1.018-2.502-.883-1.4.178-2.355 1.146-2.404 2.6zm.638 6.525c-3.562.162-7.461-.223-10.988 0-.459.323-.166.953-.099 1.324.586 3.201 3.219 5.7 6.869 5.691 1.946-.007 3.626-.852 4.708-1.864 1.248-1.167 2.165-2.827 2.109-5.004-.786-.357-1.715-.187-2.599-.147z"/><path d="m36.583 42.04c.306 1.421.085 2.89.147 4.366.063 1.493-.049 3.04-.048 4.562 0 9.112.027 18.532-.197 27.029-8.933.117-18.16-.005-26.931-.098-2.992-.032-6.02.106-8.879-.147-.182-8.602.001-17.989 0-27.029 0-2.114-.018-4.504 0-6.77.004-.573.007-1.995.196-2.108.036-.047.089-.075.148-.099 11.896.126 23.638-.038 35.564.294zm-19.279 3.973c-1.274.104-2.663.382-3.777.785-2.904 1.053-5.954 3.521-7.211 6.132-.218.452-.372.976-.589 1.473-.632 1.444-1.069 3.329-1.08 5.199-.029 5.66 2.644 9.654 6.182 11.97 1.958 1.282 4.396 2.352 7.456 2.158.258-1.096.148-2.248.148-3.384.001-5.903.098-11.696.098-17.416 0-2.299.051-4.569-.098-6.818-.281-.247-.799-.126-1.129-.099zm4.513.049c.125.589.694.883 1.079 1.275 2.368 2.42 4.79 4.922 7.064 7.358.372.4.83.866 1.373 1.03.252-2.196.148-4.822.148-7.26 0-.804.116-1.657-.148-2.355-2.933-.223-6.194-.117-9.32-.147-.073.027-.124.074-.196.099zm6.868 20.505c-2.003 2.002-4.065 3.857-5.936 5.838-.38.401-.834.802-1.03 1.324 3.025.133 6.414.316 9.517.099.301-1.171.109-2.559.146-3.826.057-1.904.145-3.908-.049-5.789-.033 0-.065 0-.098 0-.845.449-1.741 1.546-2.55 2.354z"/></g></svg>