<svg enable-background="new 0 0 162.058 157.438" viewBox="0 0 162.058 157.438" xmlns="http://www.w3.org/2000/svg"><g clip-rule="evenodd" fill-rule="evenodd"><path d="m112.774 6.521c-.238.527-.797.789-1.221 1.133-6.319 5.129-11.376 12.398-13.028 22.224-2.072 12.316 2.752 22 8.191 28.411 5.625 5.882 12.862 10.815 23.574 11.679 5.817.468 11.049-.417 15.427-1.918 4.396-1.507 8.097-3.71 11.242-6.361.436-.348.841-.729 1.264-1.09.431-.286.708-.94 1.264-.958 2.575 8.145 3.159 19.402 2.005 29.326-1.051 9.025-3.753 16.672-6.973 23.53-.205.437-.379.933-.697 1.308-.545-.679-.78-1.591-1.177-2.44-2.647-5.672-6.577-10.215-11.329-13.857-3.986-3.125-8.957-5.491-14.859-6.754-3.092-.661-6.543-.971-9.892-.74-6.695.46-11.916 2.318-16.516 5.055-2.224 1.322-4.374 2.937-6.101 4.662-3.619 3.619-6.883 7.692-8.541 13.029.539.372 1.354.381 2.136.522 5.122.926 10.413 1.91 15.687 2.745.364-.164.868-1.062 1.176-1.481 2.521-3.423 5.984-5.774 10.807-6.885 6.248-1.437 12.093.843 15.645 3.617 1.898 1.483 3.454 3.226 4.706 5.403 1.233 2.146 2.17 4.802 2.266 7.844.107 3.417-.625 6.044-1.786 8.322-1.127 2.211-2.519 4.083-4.445 5.621-3.254 2.878-9.238 5.266-15.644 3.792-5.445-1.254-9.394-4.253-11.983-8.236-.689-1.139-1.479-2.54-1.961-4.096-.169-.546-.265-1.375-.697-1.569-4.401-.505-8.929-1.021-13.421-1.481-1.475-.15-2.948-.433-4.401-.392-.104 1.761.283 3.438.61 5.011.973 4.691 2.923 8.739 5.229 12.157 2.906 4.307 6.612 7.902 11.112 10.633.263.159.671.33.74.697-7.233 1.954-16.976 2.987-26.232 2.179-1.48-.129-2.942-.304-4.357-.48-1.415-.175-2.824-.265-4.096-.697.173-.94.604-1.816.915-2.745.911-2.714 1.579-5.867 1.743-9.368.221-4.738-.687-9.101-2.005-12.768-2.58-7.183-7.234-12.71-12.898-16.777-2.752-1.977-6.187-3.752-9.892-4.968-3.487-1.144-8.241-2.07-12.941-1.786-9.403.568-16.027 3.548-21.701 7.975-.051.007-.077-.01-.087-.044-.573-.628-.928-1.454-1.308-2.223-2.659-5.378-4.989-11.307-6.492-17.996-1.675-7.45-2.41-16.755-1.308-25.579 1.537-12.308 5.491-22.456 10.851-31.2 1.495-2.439 3.09-5.02 4.924-7.32.275-.346.666-.848.871-.872.538-.062 1.54.865 2.005 1.133 4.474 2.583 10.168 4.608 16.82 4.925 4.135.197 7.937-.323 11.155-1.264 9.568-2.8 16.729-8.162 21.569-15.732 2.366-3.699 4.419-8.153 5.229-13.421.274-1.784.344-3.65.566-5.621 7.996-.856 16.819.04 23.574 1.525 5.454 1.197 10.487 2.623 14.686 4.661zm-19.522 49.109c-2.075-3.912-5.04-6.951-8.149-9.804-.623-.572-1.292-1.186-1.961-1.656-6.126-4.301-14.312-7.612-25.012-6.929-3.054.195-5.699.86-8.236 1.699-3.262 1.079-6.236 2.435-8.977 4.271-5.217 3.493-9.585 8.184-12.375 14.118-1.421 3.021-2.536 6.315-3.095 10.153-.568 3.91-.364 8.237.436 12.114.729 3.532 2.085 6.722 3.704 9.543 1.596 2.779 3.541 5.459 5.665 7.582 3.344 3.344 7.36 5.862 11.983 7.888 4.432 1.94 10.779 3.238 16.951 2.745 10.018-.8 17.543-4.731 22.964-10.153 3.234-3.234 6.231-7.228 7.975-11.895.595-1.593 1.134-3.258 1.568-5.056.429-1.77.819-3.691.697-5.752-1.496-.056-2.995.235-4.488.393-4.6.482-9.165.84-13.508 1.525-1.245 4.29-3.326 7.438-6.362 9.892-2.937 2.373-7.165 4.11-12.288 3.878-7.616-.346-12.29-4.082-15.295-9.063-1.005-1.666-1.806-3.778-2.179-5.97-.917-5.39.816-9.84 2.963-12.854 2.345-3.295 5.118-5.568 9.325-6.929 2.103-.681 4.597-1.045 7.19-.828 2.537.212 4.658.793 6.492 1.655 3.15 1.481 5.809 3.79 7.669 6.58.256.384.581 1.07.915 1.133.514.096 1.571-.221 2.223-.348 4.458-.87 8.873-1.632 13.247-2.397.711-.124 1.465-.169 2.092-.522-.447-1.824-1.311-3.462-2.134-5.013z"/><path d="m55.908 3.82h.087c.26.647-.083 1.359-.262 1.96-1.145 3.851-3.156 6.594-5.926 8.89-.444.368-.865.815-1.308 1.133-1.231.886-2.867 1.624-4.531 2.179-4.113 1.371-9.966 1.317-13.378-.697.251-.532.815-.84 1.264-1.176 3.168-2.379 6.676-4.574 10.327-6.537 3.096-1.663 6.532-3.159 10.022-4.487 1.223-.468 2.493-.865 3.705-1.265z"/><path d="m151.469 40.204c-1.817 5.191-5.466 9.005-10.501 11.025-2.614 1.048-6.059 1.611-9.238 1.264-4.741-.519-8.217-2.554-10.893-5.229-.901-.9-1.598-1.908-2.31-3.051-1.388-2.226-2.443-4.982-2.571-8.191-.142-3.555.628-6.393 1.83-8.847 1.172-2.392 2.686-4.442 4.707-6.013 1.078-.895 2.324-1.774 3.703-2.44 1.357-.655 2.975-1.367 4.575-1.525.592-.059 1.247.599 1.831 1.046 5.577 4.27 10.511 9.645 14.641 15.252 1.102 1.495 2.222 3.117 3.269 4.88.371.627.917 1.317.957 1.829z"/><path d="m19.871 130.101c.543-.847 1.424-1.455 2.266-2.048 2.463-1.735 5.857-3.126 9.805-3.312 3.541-.167 6.575.618 9.063 1.786 2.479 1.164 4.691 2.787 6.145 4.663.252.325.428.737.697 1.089 1.7 2.226 3.124 5.337 3.355 9.064.206 3.333-.548 6.397-1.7 8.628-.122.237-.411.783-.609.827-.515.116-1.673-.657-2.223-.915-7.81-3.66-14.671-8.117-20.654-13.508-2.164-1.947-4.279-3.972-6.145-6.274z"/></g></svg>