<svg enable-background="new 0 0 66.025 82.039" viewBox="0 0 66.025 82.039" xmlns="http://www.w3.org/2000/svg"><path clip-rule="evenodd" d="m40.997.205c.312 2.623.098 5.516.101 8.129.003 2.736.192 5.543-.101 8.128-7.809.269-12.828 3.328-16.964 7.27-4.145 4.462-7.818 11.086-6.816 20.146.288 2.602 1.047 5.064 1.969 7.068 1.829 3.974 4.778 7.407 8.229 9.946 3.513 2.583 7.944 4.462 13.582 4.443.274-1.146.151-2.425.151-3.686 0-3.713.083-7.815-.101-11.41-.546-.007-.887.527-1.211.858-2.438 2.487-5.173 4.938-7.523 7.573-.47.489-.934.984-1.414 1.464-.455.456-.897 1.041-1.565 1.263-1.24-.426-2.057-1.275-3.029-1.969-3.254-2.849-6.088-6.468-7.623-11.107-1.653-4.996-1.377-11.436.404-16.005 2.529-6.49 7.374-11.486 14.187-13.884 1.14-.402 2.216-.778 3.635-1.061 1.291-.257 2.66-.536 4.089-.353.282 2.281.162 4.809.101 7.27-.061 2.454.067 4.985.151 7.321.393.144.691-.287.909-.505.731-.731 1.529-1.521 2.272-2.272 2.603-2.624 5.191-5.285 7.876-8.027.354-.361.748-.987 1.211-1.01.629-.031 1.913.975 2.524 1.414 2.209 1.583 4.171 3.774 5.706 6.009 2.17 3.161 3.617 6.937 4.14 11.511.556 4.862-.649 9.598-2.323 12.925-1.761 3.502-4.241 6.351-7.018 8.634-3.933 3.018-8.604 5.296-15.248 5.604-.25.58-.202 1.276-.202 1.919 0 4.639.216 9.513-.101 14.187-3.232.208-6.224-.39-8.987-1.01-2.707-.607-5.323-1.558-7.623-2.575-9.357-4.136-16.297-10.91-20.65-20.095-2.182-4.608-3.735-10.232-3.735-16.611 0-6.586 1.426-12.054 3.483-16.914 2.008-4.743 4.9-8.787 8.23-12.117.857-.857 1.728-1.664 2.676-2.423.945-.758 1.815-1.586 2.777-2.323 1.916-1.466 4.095-2.705 6.412-3.786 4.637-2.164 9.881-3.793 16.257-4.09.355-.017.924-.177 1.162.151zm7.876 40.845c.028-1.915-.694-3.687-1.616-4.897-1.194-1.568-3.66-3.276-6.513-3.08-2.899.2-5.617 2.278-6.513 4.443-.639 1.544-.941 3.613-.505 5.402.135.556.275 1.217.455 1.666.615 1.535 2.206 2.887 3.685 3.585 3.527 1.664 7.371.328 9.34-2.322.955-1.362 1.638-2.847 1.667-4.797z" fill-rule="evenodd"/></svg>