<svg enable-background="new 0 0 15.263 8.007" viewBox="0 0 15.263 8.007" xmlns="http://www.w3.org/2000/svg"><path d="m.002.002c2.4-.003 4.8.001 7.2-.002.001.781 0 1.562 0 2.344-1.391 0-2.782 0-4.174 0 .01 1.116.009 2.232.002 3.348 1.39-.005 2.782.008 4.172-.007.001.773 0 1.546 0 2.319-2.4-.009-4.801-.004-7.202-.002.007-2.667.003-5.333.002-8z"/><path d="m8.058 0c2.401.001 4.801.001 7.202 0-.001.781-.006 1.563.003 2.345-1.397-.003-2.794-.001-4.191-.001.002.285 0 .57 0 .855 1.397-.002 2.793.002 4.19-.002-.007.553-.002 1.107-.004 1.66-1.395-.008-2.79-.001-4.185-.004.001.279-.002.557.001.836 1.396.002 2.792.004 4.188-.001-.005.771-.006 1.542 0 2.314-2.203-.006-4.406 0-6.608-.002-.199.002-.398-.006-.596.007.002-1.053-.001-2.106.001-3.159-1.439.017-2.879-.005-4.318.012.001-.554-.002-1.109.001-1.663 1.439.005 2.878.002 4.317.002-.001-1.067 0-2.133-.001-3.199z"/></svg>