<svg enable-background="new 0 0 83.793 85.754" viewBox="0 0 83.793 85.754" xmlns="http://www.w3.org/2000/svg"><g clip-rule="evenodd" fill-rule="evenodd"><path d="m83.775 39.091c-.396.125-.997.269-1.422.102-.48-.192-.49-1.664-.609-2.539-.846-6.199-3.199-11.494-5.892-15.795-3.127-4.994-7.452-9.317-12.342-12.444-.635-.406-1.199-.889-1.828-1.269-4.37-2.652-10.143-4.533-16.607-5.078-3.964-.336-7.927.037-11.377.812-3.468.779-6.44 1.727-9.243 3.148-10.85 5.502-18.84 14.68-21.686 27.934-.762 3.545-1.151 7.443-.863 11.326.853 11.502 5.333 19.368 11.222 25.952 4.723 5.105 10.742 9.125 18.538 11.225 3.988 1.074 8.747 1.656 13.357 1.219 4.521-.428 8.439-1.436 11.986-2.895 3.448-1.418 6.565-3.318 9.345-5.535 5.52-4.404 9.847-9.969 12.799-16.965.359-.852.667-1.803.965-2.742.592-1.871 1.065-3.771 1.473-5.941.19-1.014.168-2.104.609-3.098.437-.049 1.291-.164 1.574.102-.252 4.711-1.604 8.746-3.047 12.441-1.45 3.715-3.368 6.949-5.638 9.955-4.473 5.926-10.31 10.643-17.471 13.713-5.414 2.322-12.604 3.531-20.062 2.844-4.473-.412-8.808-1.754-12.342-3.25-3.519-1.49-6.761-3.689-9.549-6.043-6.914-5.843-12.375-13.812-14.676-24.278-.988-4.502-1.258-9.479-.711-14.17 1.092-9.348 4.397-16.209 9.092-22.094 2.285-2.863 5.013-5.49 8.024-7.566 4.674-3.223 9.629-6.035 16.201-7.213 1.102-.195 2.184-.41 3.353-.559 1.165-.147 2.468-.297 3.707-.356 3.431-.16 6.609.26 9.497.812 2.873.551 5.471 1.459 7.873 2.439 4.905 2 8.876 4.961 12.392 8.176 5.336 4.879 9.53 11.205 11.885 19.045.396 1.322.691 2.734.965 4.166.272 1.421.607 2.894.508 4.419z"/><path d="m79.56 46.507c.092 2.104-.426 4.092-.914 5.941-1.466 5.549-3.859 10.18-6.907 14.221-4.033 5.344-9.397 9.6-15.847 12.291-6.451 2.691-16.292 3.686-24.022 1.32-3.616-1.107-6.839-2.473-9.802-4.266-.721-.438-1.334-1.018-2.031-1.523-2.004-1.457-3.929-3.123-5.537-4.979-2.192-2.531-4.223-5.238-5.84-8.277-3.111-5.848-5.356-14.277-4.317-23.109.491-4.178 1.538-7.922 2.946-11.123 2.851-6.48 7.105-11.555 12.596-15.592 5.517-4.057 12.096-6.746 20.975-7.16 6.108-.285 11.487 1.096 15.693 2.844 4.453 1.85 7.92 4.404 11.072 7.312 4.808 4.438 8.484 9.945 10.614 17.016.358 1.187.668 2.42.915 3.707.239 1.252.6 2.566.456 3.91-.221.303-1.117.24-1.473.102-.408-.504-.364-1.209-.457-1.777-1.549-9.492-5.695-16.436-11.528-21.789-3.044-2.793-6.571-5.35-10.818-6.957-2.185-.828-4.438-1.467-6.907-1.98-2.519-.525-5.175-.6-8.177-.508-5.438.165-10.113 1.792-14.12 3.655-1.957.91-3.891 2.041-5.535 3.352-1.678 1.338-3.352 2.67-4.724 4.166-5.503 5.994-10.006 14.086-10.005 25.494 0 5.58 1.188 10.654 3.047 14.729 1.795 3.938 4.186 7.828 7.008 10.768 2.959 3.08 6.16 5.799 10.108 7.67 2.047.969 4.131 1.752 6.45 2.438 4.392 1.297 10.767 1.656 15.947.711 7.441-1.357 13.141-4.807 17.675-8.99 3.101-2.861 5.623-6.262 7.669-10.105 1.528-2.873 2.828-6.082 3.555-9.752.238-1.199.304-2.467.712-3.707.332-.188 1.109-.109 1.523-.053z"/><path d="m75.649 39.091c-.397.162-1.381.162-1.777 0-1.162-8.516-4.761-14.816-9.7-19.756-.835-.836-1.631-1.689-2.489-2.439-.877-.764-1.874-1.391-2.895-1.981-4.144-2.391-8.878-4.394-14.982-4.672-9.591-.436-16.901 2.941-22.143 7.211-1.779 1.449-3.299 3.223-4.774 5.029-3.001 3.674-5.058 8.223-6.196 13.408-1.266 5.758-.71 12.309.914 17.217 1.634 4.937 4.079 8.971 7.263 12.342 3.663 4.096 8.547 7.18 14.576 8.99 6.48 1.945 14.874.992 20.265-1.117 5.442-2.131 9.943-5.955 13.307-10.26 2.532-3.244 4.697-7.295 5.892-11.783.408-1.535.52-3.17 1.066-4.773.428-.148 1.316-.176 1.676.051-1.115 10.992-6.82 18.504-13.561 24.275-2.187 1.873-5.176 3.404-8.126 4.521-3.103 1.174-6.518 1.943-10.462 2.184-3.892.236-7.904-.324-11.225-1.32-6.462-1.941-11.483-5.48-15.338-9.955-3.838-4.471-7.027-10.051-8.331-16.963-1.488-7.881.108-15.959 2.742-21.434 1.352-2.809 2.918-5.422 4.927-7.719 1.959-2.24 4.071-4.357 6.602-6.045 5.163-3.441 11.291-5.709 19.401-5.891 4.959-.111 9.784 1.336 13.356 2.844 3.846 1.623 6.894 3.902 9.548 6.502 4.041 3.953 7.374 8.769 9.193 14.881.61 2.048 1.194 4.274 1.271 6.653z"/><path d="m71.585 39.091c-.382.162-1.344.162-1.727 0-1.112-6.08-3.224-10.613-6.399-14.576-1.337-1.67-2.667-3.098-4.469-4.52-3.317-2.619-7.551-4.559-12.545-5.385-7.717-1.275-14.642 1.025-19.3 3.963-5.053 3.186-8.52 7.412-10.92 13.002-1.242 2.893-2.009 6.006-2.285 9.699-.275 3.691.373 7.41 1.422 10.463 3.035 8.82 8.818 15.115 17.726 18.182 3.032 1.045 6.585 1.678 10.412 1.473 7.445-.396 12.514-3.457 16.912-7.008 3.38-3.369 6.334-7.387 8.024-12.494.285-.861.556-1.738.762-2.641.205-.896.269-1.844.66-2.742.421-.168 1.369-.164 1.727.051-.175 3.223-1.177 6.1-2.336 8.684-1.148 2.561-2.524 4.846-4.164 6.908-1.62 2.035-3.395 4.066-5.536 5.586-4.255 3.02-9.451 5.529-16.404 5.789-3.478.131-6.895-.354-9.803-1.27-5.621-1.768-10.122-4.762-13.458-8.734-3.601-3.938-6.074-8.703-7.314-14.881-1.359-6.779.009-13.885 2.285-18.894 2.228-4.9 5.706-9.076 10.057-12.137 2.198-1.549 4.64-2.816 7.364-3.709 2.854-.934 6.087-1.664 9.599-1.676 4.414-.014 8.437.969 11.834 2.387 3.258 1.359 6.442 3.219 8.532 5.639 1.103 1.275 2.315 2.406 3.353 3.758 2.532 3.301 4.504 7.312 5.637 12.139.216.923.456 1.932.354 2.944z"/><path d="m60.108 23.753c2.038 2.166 3.797 4.85 5.231 7.822 1.419 2.939 2.387 6.537 2.387 10.664 0 4.303-.732 7.854-2.082 10.971-1.319 3.045-3.038 5.717-5.079 7.975-4.005 4.268-9.126 7.252-16.557 7.973-2.476.24-4.928.045-7.365-.457-8.36-1.723-14.729-7.297-18.079-14.576-1.734-3.768-2.861-9.047-2.338-13.713.424-3.768 1.285-6.748 2.692-9.547 2.198-4.371 5.573-8.184 9.7-10.666 3.534-2.127 7.549-3.566 12.697-3.811 4.184-.197 8.112.832 10.971 2.135 3.044 1.385 5.576 3.123 7.822 5.23zm5.434 23.973c1.198-5.469.013-11.385-1.879-15.439-.968-2.074-2.016-4.115-3.403-5.689-1.379-1.562-2.957-2.896-4.876-4.215-3.467-2.381-8.176-4.443-14.068-4.164-1.231.057-2.464.213-3.555.406-7.362 1.305-12.402 5.465-15.947 10.613-1.019 1.48-1.76 3.285-2.438 5.131-.719 1.949-1.113 4.09-1.372 6.246-.565 4.705.726 9.168 2.286 12.697.206.469.303.959.508 1.371.205.416.458.775.711 1.168 2.549 3.969 5.629 6.814 9.954 8.99 1.783.896 3.642 1.648 5.587 2.031 4.613.908 9.604.393 13.256-1.016 3.705-1.43 6.578-3.314 9.142-6.043 2.922-3.107 5.024-7.206 6.094-12.087z"/><path d="m61.631 32.591c.494.908.759 2.016 1.066 3.098.871 3.059 1.548 7.045.812 10.971-.203 1.088-.545 2.213-.863 3.301-.325 1.113-.527 2.178-1.016 3.098-.98 1.85-2.147 3.475-3.402 4.875-3.433 3.828-8.125 6.648-14.932 7.213-3.578.295-6.915-.379-9.498-1.473-2.627-1.111-4.885-2.594-6.704-4.318-2.825-2.746-5.157-5.998-6.297-10.309-.297-1.119-.393-2.377-.559-3.607-.178-1.313-.237-2.596-.153-3.859.166-2.471.581-4.85 1.372-6.906 1.494-3.885 3.889-6.928 7.059-9.498 3.034-2.461 7.39-4.449 12.037-4.723 5.536-.326 9.837 1.26 13.205 3.402 3.444 2.188 6.022 5.071 7.873 8.735zm-20.925-10.158c-5.481.26-9.418 2.73-12.443 5.484-3.146 2.867-5.294 6.535-6.144 11.58-.953 5.649.602 10.629 2.844 14.271 2.253 3.66 5.567 6.44 9.649 8.076 2.288.916 4.56 1.422 7.416 1.422 2.791 0 5.166-.607 7.415-1.473 4.073-1.57 7.485-4.73 9.649-8.076 2.252-3.482 3.785-8.893 2.793-14.424-.879-4.902-3.177-8.555-6.247-11.529-3.62-3.192-7.881-5.665-14.932-5.331z"/><path d="m55.079 55.445c-1.965 2.033-4.068 3.475-6.806 4.572-2.746 1.1-6.413 1.531-9.853.812-5.779-1.211-10.165-4.992-12.697-10.006-1.326-2.627-2.035-6.244-1.727-9.549.608-6.524 4.129-11.328 8.634-14.119 1.206-.746 2.509-1.299 3.911-1.777 1.47-.502 3.103-.828 4.926-.914 4.376-.207 7.988 1.322 10.565 3.098 2.815 1.941 4.767 4.348 6.247 7.365 1.465 2.986 2.355 7.506 1.473 11.58-.787 3.629-2.504 6.637-4.673 8.938zm-18.232 2.843c2.685.869 6.002.992 8.837.355 5.057-1.133 9.021-4.734 11.021-9.242 1.101-2.484 1.631-5.387 1.269-8.635-.62-5.578-4.053-9.809-8.075-12.139-2.08-1.203-4.954-2.232-8.177-2.082-7.453.348-12.065 4.379-14.475 9.803-1.281 2.885-1.778 6.52-.914 10.209.77 3.281 2.262 5.793 4.317 7.82 1.792 1.73 3.678 3.097 6.197 3.911z"/><path d="m41.265 28.73c4.514-.266 7.988 1.539 10.26 3.811 2.352 2.352 4.084 5.236 4.418 9.648.337 4.445-1.637 7.961-3.707 10.26-2.309 2.562-5.336 4.109-9.497 4.519-4.288.424-8.117-1.648-10.26-3.707-2.467-2.371-4.074-5.227-4.419-9.65-.333-4.289 1.59-8.123 3.657-10.309 1.101-1.164 2.371-2.18 3.962-3.049 1.528-.832 3.51-1.4 5.586-1.523zm-7.72 5.435c-.989.99-1.779 2.014-2.387 3.25-.568 1.156-1.157 2.807-1.27 4.418-.233 3.32.703 5.709 1.93 7.619 1.24 1.932 3.077 3.617 5.079 4.52 3.648 1.646 8.115 1.184 11.122-.559 2.861-1.656 5.09-4.508 5.79-8.023.904-4.539-.867-8.404-2.743-10.564-1.986-2.291-5.302-4.521-9.648-4.166-3.677.302-5.946 1.578-7.873 3.505z"/><path d="m41.214 32.845c3.874-.332 6.953 1.512 8.635 3.707 1.661 2.17 2.835 5.922 1.574 9.65-1.125 3.326-3.932 5.809-7.72 6.602-1.477.309-2.996.195-4.368-.203-4.856-1.41-9.322-7.137-6.501-13.662 1.357-3.137 4.086-5.727 8.38-6.094zm-6.144 5.941c-.624 1.053-1.333 2.598-1.169 4.723.159 2.059 1.064 3.601 2.083 4.775 1.09 1.254 2.677 2.16 4.367 2.539 4.246.949 7.792-1.82 9.092-4.824.738-1.709.887-4.309.051-6.299-.305-.725-.863-1.43-1.271-1.93-1.41-1.736-3.45-3.252-6.704-2.996-3.326.26-5.189 1.882-6.449 4.012z"/><path d="m41.57 36.857c2.684-.246 4.649 1.383 5.587 2.945 1.023 1.703.949 4.344 0 5.992-1.19 2.07-3.36 3.234-5.587 3.1-3.006-.184-6.091-3.021-5.485-6.908.123-.787.325-1.324.61-1.879.734-1.428 2.531-3.035 4.875-3.25zm-1.575 2.539c-.994.598-1.967 1.713-2.031 3.25-.07 1.65.938 2.975 1.93 3.607 3.106 1.982 7.539-1.518 5.638-5.232-.52-1.016-1.958-2.303-3.81-2.133-.674.063-1.283.242-1.727.508z"/></g></svg>