<svg enable-background="new 0 0 90.638 180.156" viewBox="0 0 90.638 180.156" xmlns="http://www.w3.org/2000/svg"><g clip-rule="evenodd" fill-rule="evenodd"><path d="m89.902.028c.241 3.734.142 8.361.097 12.248.013.076-.046.082-.048.142-9.357.377-17.632 1.711-24.832 4.322-4.737 1.719-9.29 3.625-13.353 6.102-12.104 7.377-21.918 16.81-29.059 29.201-3.545 6.152-6.298 13.01-8.214 20.895-1.278 5.264-2.018 11.117-2.017 17.387.001 12.547 2.849 23.033 6.916 31.939 4.076 8.928 9.521 16.438 15.946 22.863 3.206 3.207 6.79 6.197 10.663 8.789 3.891 2.605 7.941 5.051 12.392 7.014 8.975 3.955 19.422 6.695 31.988 6.82.078-.014.083.045.145.047.061 3.822.218 8.367 0 12.297-.039.008-.048.049-.097.047-7.294.139-13.993-.711-20.124-2.064-9.187-2.027-17.004-5.344-24.208-9.365-2.396-1.338-4.741-2.742-6.916-4.275-8.844-6.234-16.468-13.295-22.671-22.094-.741-1.053-1.485-2.209-2.257-3.363-1.533-2.287-2.756-4.594-4.083-7.107-5.147-9.746-8.873-21.084-9.942-34.822-.693-8.906.267-18.17 1.825-25.648 1.298-6.223 3.194-11.809 5.477-16.909 2.332-5.211 4.861-10.072 7.877-14.506 6.067-8.924 13.339-16.399 21.998-22.768 8.555-6.292 18.486-11.362 30.355-14.407 2.984-.766 6.084-1.418 9.317-1.873 1.657-.232 3.323-.391 5.044-.576 2.495-.27 5.074-.432 7.781-.336z"/><path d="m89.999 30.381c-14.487.547-25.218 4.734-34.054 10.904-2.945 2.057-5.459 4.432-8.069 6.867-2.498 2.332-4.794 5.311-6.772 8.215-5.948 8.733-10.759 19.631-10.76 34.102-.001 9.674 2.241 17.754 5.331 24.639 3.111 6.932 7.463 12.602 12.392 17.531 2.516 2.516 5.153 4.867 8.118 6.869 8.885 5.998 19.6 10.344 34.245 10.615.132 3.848.245 8.291.049 12.248-5.893.219-11.314-.531-16.283-1.635-4.91-1.09-9.446-2.68-13.593-4.467-2.104-.906-4.132-1.885-6.052-2.977-1.908-1.086-3.686-2.322-5.475-3.555-10.712-7.375-18.993-16.928-24.832-29.348-3.739-7.951-6.531-18.035-6.532-29.586-.002-11.789 2.58-21.49 6.34-29.828 2.831-6.277 6.216-11.803 10.375-16.713 4.082-4.822 8.734-9.355 14.072-13.017 1.799-1.233 3.531-2.51 5.428-3.602 5.67-3.27 12.013-6.074 19.309-7.781 2.425-.568 4.919-1.16 7.541-1.488 2.846-.357 6.015-.59 9.029-.576.44.254.288.893.288 1.344v8.166c0 1.083.18 2.151-.095 3.073z"/><path d="m90.094 48.01c-1.68.232-3.292.252-4.851.432-4.691.541-8.704 1.857-12.345 3.506-4.834 2.191-8.982 5.045-12.535 8.598-3.407 3.406-6.551 7.568-8.694 12.439-.271.617-.359 1.344-.624 2.018-1.699 4.334-2.976 9.438-2.979 15.467 0 6.855 1.672 12.4 3.699 17.436 1.461 3.629 3.749 6.93 6.148 9.701 5.677 6.561 13.038 11.59 23.102 13.832 1.467.328 2.946.561 4.516.77 1.569.209 3.164.193 4.851.385.159 3.893.145 8.467.048 12.295-8.838.23-16.327-1.816-22.526-4.611-6.273-2.828-11.774-6.428-16.234-11.047-3.369-3.416-6.418-7.225-8.934-11.574-2.489-4.307-4.642-9.135-5.859-14.602-.624-2.803-1.167-5.875-1.345-8.887-.603-10.195 1.522-18.92 4.61-25.889 2.631-5.938 6.095-11.023 10.231-15.418.831-.883 1.614-1.777 2.497-2.592 5.279-4.873 11.601-8.844 19.116-11.576 4.999-1.818 10.886-3.061 17.339-3.123.139 0 .239-.074.48 0 .555.174.324 2.029.336 2.834.049 3.126.027 7.083-.047 9.606z"/><path d="m90.046 53.725c.021.043.042.086.096.096.028 3.992.229 8.32 0 12.248-1.884.244-3.675.357-5.331.77-4.76 1.182-8.761 3.404-11.72 6.482-3.861 4.02-7.109 9.439-7.108 17.148.001 7.568 3.277 13.219 7.156 17.098 4.09 4.09 9.479 6.736 17.147 7.109.262 3.734.182 8.387.048 12.248-5.869.213-10.872-1.24-15.13-3.074-4.186-1.803-7.936-4.414-10.902-7.445-2.985-3.049-5.631-6.551-7.589-10.807-1.938-4.209-3.266-9.225-3.267-15.082-.001-5.934 1.353-10.826 3.267-15.129 1.895-4.26 4.479-7.844 7.492-10.855 6.051-6.047 14.182-10.518 25.841-10.807z"/></g></svg>