<svg clip-rule="evenodd" fill-rule="evenodd" stroke-linejoin="round" stroke-miterlimit="2" viewBox="0 0 560 400" xmlns="http://www.w3.org/2000/svg"><path d="m632.884 454.343-1.67 11.492-18.36-11.042c-50.72 110.487-162.299 187.207-291.854 187.207-177.256 0-321-143.744-321-321s143.744-321 321-321c134.756 0 250.123 83.075 297.695 200.753l-23.882 9.63c-43.849-108.177-150.1-184.703-273.813-184.703-162.811 0-295.32 132.509-295.32 295.32s132.509 295.32 295.32 295.32c119.926 0 223.48-71.968 269.64-174.88l-12.519-7.512c-43.528 98.804-142.396 167.947-257.121 167.947-154.85 0-280.875-126.025-280.875-280.875s126.025-280.875 280.875-280.875c117.679 0 218.665 72.739 260.395 175.651l-23.818 9.63c-37.878-93.475-129.62-159.601-236.577-159.601-140.726 0-255.195 114.469-255.195 255.195s114.469 255.195 255.195 255.195c105.416 0 196.131-64.2 234.908-155.62l-12.52-7.512c-36.143 87.183-122.235 148.687-222.388 148.687-132.766 0-240.75-107.984-240.75-240.75s107.984-240.75 240.75-240.75c100.858 0 187.464 62.338 223.223 150.549l-23.818 9.63c-31.971-78.773-109.332-134.499-199.405-134.499-118.577 0-215.07 96.493-215.07 215.07s96.493 215.07 215.07 215.07c89.43 0 166.342-54.891 198.699-132.83l-14.124-3.53c-30.688 71.645-101.885 121.914-184.575 121.914-110.617 0-200.625-90.008-200.625-200.625s90.008-200.624 200.625-200.624c84.038 0 156.199 52.002 186.052 125.447l-23.819 9.63c-26-64.072-88.917-109.397-162.233-109.397-96.493 0-174.945 78.452-174.945 174.945s78.452 174.945 174.945 174.945c70.684 0 131.674-42.051 159.216-102.527l-14.252-3.596c-25.809 54.185-81.02 91.678-144.964 91.678-88.532 0-160.5-71.968-160.5-160.5s71.968-160.5 160.5-160.5c67.282 0 124.997 41.602 148.751 100.409l-23.818 9.63c-19.902-49.434-68.437-84.359-124.933-84.359-74.344 0-134.82 60.476-134.82 134.82s60.476 134.82 134.82 134.82c51.81 0 96.878-29.404 119.412-72.353l-21.956-5.457 5.65-6.741c1.476-1.734 3.723-2.89 6.162-2.89h19.389c4.43-8.217 11.106-12.968 15.921-11.042 3.339 1.348 5.008 5.586 4.944 11.043h20.993c3.98-6.613 9.694-10.337 14.381-8.796 3.274 1.027 5.393 4.366 6.227 8.796h16.5c.128-1.028.32-2.055.578-3.146 3.017-14.317 12.07-24.46 20.223-22.727s12.262 14.702 9.244 29.018c-.577 2.633-1.284 5.072-2.247 7.383l13.482 11.3c3.788-4.687 8.41-7.127 12.327-5.843 5.778 1.862 8.089 10.914 5.585 20.801l17.527 14.766c3.081-2.504 6.356-3.53 9.052-2.44 3.916 1.541 5.585 7.127 4.75 13.996l7.191 6.035c4.944 4.045 7.447 10.4 6.549 16.82" fill-rule="nonzero" transform="matrix(.420561 0 0 .420561 146.879 65)"/></svg>