<svg enable-background="new 0 0 84.189 47.81" viewBox="0 0 84.189 47.81" xmlns="http://www.w3.org/2000/svg"><path clip-rule="evenodd" d="m72.381 21.505c.2 1.153.9 2.227 1.532 3.112 1.42.139 2.822.007 4.199.148.826.639 1.129 1.802 1.63 2.767 1.175 2.063 2.245 4.169 3.409 6.423.303.585 1.017 1.598 1.037 2.224.028.825-1.081 2.357-1.433 3.014-1.062 1.989-2.047 3.863-3.062 5.83-.495.958-.94 1.959-1.631 2.767-1.348-.085-3.044.179-4.149-.148.135-.826.672-1.476 1.037-2.174.724-1.383 1.431-2.731 2.174-4.149.358-.685.802-1.378.988-2.175-.906-.319-1.904-.197-2.865-.197-11.338-.001-22.034.051-33.251.049-3.964 0-8.2.289-10.425-1.778-1.106-1.032-1.849-2.382-2.619-3.755-.765-1.363-1.399-2.841-2.371-4.002-5.49-.061-11.243-.12-16.649-.099-.7.523-.932 1.428-1.334 2.173-.798 1.473-1.645 2.942-2.471 4.446-.403.734-.677 1.59-1.285 2.174-.754.09-1.645.05-2.52.05-.831 0-1.71.172-2.322-.099.206-.819.68-1.55 1.087-2.272 2.78-4.929 5.386-10.127 8.103-15.168 1.494-2.771 3.139-5.93 4.744-8.548.896-1.462 1.913-2.503 3.655-3.014 1.642-.481 3.638-.543 5.979-.543 16.606-.002 32.766-.048 49.506-.05 1 0 2.096.115 3.014-.197-.161-.786-.609-1.482-.988-2.174-.92-1.675-1.84-3.32-2.767-5.04-.144-.267-.556-.711-.197-1.037 1.353-.062 2.961-.122 4.15.05.674.713 1.064 1.685 1.531 2.568.474.895 1.014 1.76 1.433 2.668.722 1.274 1.396 2.615 2.174 4.002.202.36.637 1.03.643 1.384.006.312-.377 1.014-.593 1.433-1.162 2.26-2.344 4.425-3.508 6.62-.479.902-.797 1.881-1.482 2.521-1.235.198-3.029-.163-4.103.196zm-.099-8.448c-11.62-.002-22.913.05-34.387.049-4.158 0-8.323.001-12.451 0-1.766 0-4.578-.296-6.077.198-1.57.518-2.18 2.03-2.914 3.408-1.18 2.211-2.262 4.338-3.41 6.473-.211.395-.611.802-.543 1.334.864.261 1.861.149 2.866.149 2.409 0 5.099.099 7.312.099.425 0 .99.107 1.285-.247-.183-.756-.624-1.439-.988-2.124-.753-1.415-1.562-2.81-2.322-4.2-.383-.7-.851-1.389-.988-2.174 1.421-.194 3.39-.101 4.892-.05.671.518.895 1.398 1.284 2.125.399.746.827 1.481 1.235 2.223.829 1.508 1.477 3.113 2.52 4.397 11.968-.005 25.2.079 37.055-.049.794-.009 1.691.217 2.224-.198-.125-.781-.604-1.445-.938-2.124-.713-1.441-1.491-2.782-2.224-4.2-.364-.705-.833-1.409-.988-2.223 1.324-.244 3.007-.118 4.397-.099.604.762 1.017 1.717 1.433 2.668.609.773.776 1.99 1.581 2.569.508-.498.834-1.185 1.137-1.828.641-1.364 1.361-2.612 2.025-3.903.34-.661.736-1.365.89-2.125-1.259-.268-2.595-.148-3.906-.148zm2.52 14.92c-.65.951-1.152 2.107-1.729 3.163-.284.519-.564 1.055-.84 1.58-.277.529-.703 1.044-.742 1.681.952.266 2.244.147 3.459.147 1.23 0 2.472.112 3.409-.099.078-.628-.411-1.121-.692-1.68-.582-1.157-1.062-2.163-1.68-3.359-.239-.465-.592-1.514-1.037-1.532-.058.025-.112.053-.148.099zm-9.091 1.384c-3.118-.001-6.307-.063-9.535.05-4.18.145-8.848-.188-12.896 0-2.74.127-5.738-.001-8.448 0-.901 0-1.803-.068-2.618.149-.095.466.257.972.494 1.432.654 1.274 1.399 2.889 2.667 3.41.841.345 2.234.296 3.558.296 7.832 0 15.179-.05 23.32-.05 1.191.001 3.218.229 3.903-.099.295-.141.576-.741.79-1.136.516-.951.897-1.65 1.334-2.52.229-.456.524-.93.494-1.384-.989-.263-2.033-.148-3.063-.148z" fill-rule="evenodd"/></svg>