<svg enable-background="new 0 0 14.186 14.015" viewBox="0 0 14.186 14.015" xmlns="http://www.w3.org/2000/svg"><path d="m4.297 0c3.294 0 6.588-.002 9.882.001-.002 2.396 0 4.793-.001 7.19.004.874-.01 1.749.008 2.622-.513-.52-1.039-1.026-1.552-1.546-.586-.531-1.121-1.117-1.694-1.661-.597.595-1.191 1.192-1.787 1.787-.392.406-.933.652-1.489.717-.273.002-.551.026-.819-.039-.463-.091-.887-.328-1.235-.644-.374-.379-.648-.869-.725-1.4-.122-.681.078-1.405.504-1.947.251-.306.553-.563.823-.852.396-.383.776-.783 1.174-1.164-.4-.365-.758-.772-1.162-1.133-.641-.645-1.289-1.283-1.927-1.931z"/><path d="m.369 4.348c.581-1.741 1.843-3.223 3.412-4.161.878.872 1.75 1.749 2.626 2.622.089.088.175.18.275.258-.327.284-.618.608-.934.905-.369.338-.753.675-1.008 1.112-.289.486-.447 1.053-.429 1.619.01.651.263 1.283.655 1.797.45.559 1.098.961 1.803 1.102.733.149 1.518.018 2.159-.369.268-.158.512-.356.727-.581.299-.301.601-.598.9-.898.133-.118.262-.24.379-.375.275.261.538.534.807.801.516.464.979.983 1.488 1.454.227.225.453.45.677.677-.665 1.117-1.615 2.062-2.745 2.706-1.52.888-3.365 1.197-5.094.872-.805-.154-1.595-.42-2.302-.838-1.273-.711-2.32-1.809-2.98-3.109-.876-1.709-1.025-3.772-.416-5.594z"/></svg>