<svg enable-background="new 0 0 79.218 50.952" viewBox="0 0 79.218 50.952" xmlns="http://www.w3.org/2000/svg"><g clip-rule="evenodd" fill-rule="evenodd"><path d="m79.218 19.793c-.708.246-1.489.141-2.251.141-5.408.002-11.289.076-16.605-.094-.609-.875-.85-2.121-1.407-3.049-2.008-3.797-5.127-6.291-9.569-7.693-2.147-.676-4.629-1.254-7.271-1.359-11.524-.463-19.216 3.691-22.142 12.288-.757 2.225-1.129 4.861-.892 7.506.456 5.06 2.468 9.193 5.582 11.68 3.209 2.562 7.495 4.008 12.806 4.41 5.637.426 11.11-.166 14.917-2.064 1.909-.951 3.666-2.156 4.926-3.705 1.278-1.572 2.059-3.492 3.049-5.535 5.747-.057 11.914-.209 17.731-.047.334.008.746-.102 1.032.141-.009.766-.444 1.457-.75 2.111-.916 1.953-2.007 3.842-3.377 5.393-2.599 2.957-6.122 4.811-10.038 6.475-1.293.549-2.711 1-4.081 1.406-2.835.844-5.688 1.646-8.772 2.252-4.615.906-10.009.994-15.386.844-1.725-.047-3.438-.217-5.019-.469-6.284-.996-11.986-2.58-17.027-4.926-3.285-1.527-6.075-3.061-8.49-5.252-.474-.432-.822-1.006-1.267-1.502-2.605-2.902-4.572-6.377-4.878-11.586-.311-5.287 1.375-9.512 3.518-12.807.72-1.107 1.479-2.213 2.393-3.096 3.799-3.666 8.369-6.115 14.119-7.881 2.791-.858 5.635-1.779 8.678-2.299 3.121-.531 6.424-.768 10.039-.938.076-.004.08-.039.141-.047 2.352-.285 4.902.17 7.224.328 2.326.16 4.52.625 6.521.986 4.372.787 8.059 1.996 11.633 3.377 4.573 1.764 8.183 4.287 10.976 7.787.558.697 1.18 1.365 1.642 2.109.952 1.547 1.949 3.193 2.295 5.115z"/><path d="m40.097 13.274c.848-.051 2.054.049 2.861.234 3.197.738 5.923 2.555 7.599 4.785 1.567 2.084 3.049 5.75 2.439 9.615-.532 3.371-2.233 5.857-4.597 7.74-2.281 1.816-5.511 3.143-9.382 2.768-3.625-.352-6.268-1.998-8.256-4.129-1.971-2.111-3.456-4.982-3.33-8.912.119-3.713 1.854-6.531 3.893-8.443 1.022-.957 2.196-1.811 3.705-2.486 1.42-.635 3.184-1.061 5.068-1.172z"/></g></svg>