<svg enable-background="new 0 0 81.149 81.128" viewBox="0 0 81.149 81.128" xmlns="http://www.w3.org/2000/svg"><path clip-rule="evenodd" d="m62.317 19.606c1.62 1.727 3.069 3.547 4.368 5.79.336.582 1.136 1.578 1.066 2.286-.058.586-1.475 1.413-2.184 1.32-.56-.073-.996-1.14-1.321-1.727-2.434-4.39-6.431-8.193-10.767-10.513-2.449-1.311-5.632-2.565-9.091-3.047-3.67-.511-7.792-.129-10.97.762-6.301 1.767-10.997 5.016-14.576 9.751-3.293 4.356-6.305 10.389-5.587 18.588.631 7.202 3.558 12.751 7.567 16.76 4.008 4.007 9.143 7.194 16.15 8.126 8.043 1.07 14.478-1.274 19.147-4.52 4.17-2.899 7.531-6.581 9.548-11.732.238-.606.909-1.452.254-2.133-.959-.431-1.388.35-1.676.965-.904 1.936-1.807 3.969-2.997 5.536-3.13 4.055-7.064 7.178-12.291 9.04-2.69.959-5.993 1.56-9.244 1.321-3.278-.241-6.161-.805-8.786-1.879-5.039-2.062-8.765-5.295-11.732-9.599-2.877-4.174-4.777-10.079-4.013-16.862.708-6.277 3.356-10.844 6.755-14.576 1.64-1.8 3.755-3.43 5.993-4.672 2.32-1.288 4.93-2.336 7.77-2.895 6.67-1.312 13.182.449 17.471 2.946 3.844 2.238 6.961 5.31 9.345 9.294.316.529.851 1.317.762 1.879-.122.77-1.523 1.071-2.286 1.27-.915-.756-1.368-1.913-2.082-2.895-2.058-2.828-4.511-5.273-7.771-7.009-2.048-1.091-4.532-2.141-7.313-2.539-2.799-.401-6.173-.251-8.939.508-5.015 1.375-9.021 4.104-11.935 7.821-2.766 3.528-5.145 8.62-4.774 14.932.349 5.934 2.779 10.515 5.892 13.865 3.218 3.464 7.237 5.979 12.748 6.958 6.297 1.118 11.995-.626 15.897-3.149 3.472-2.245 6.197-5.29 8.075-9.193.263-.546.652-1.182.406-1.828-.252-.223-.347-.266-.711-.305-.92-.099-1.271 1.024-1.625 1.676-1.177 2.171-2.62 4.33-4.368 5.841-2.415 2.086-5.342 4.077-8.736 4.875-8.706 2.049-15.96-1.413-20.112-5.84-3.397-3.755-6.453-9.381-5.384-16.862.922-6.457 4.292-10.872 8.634-14.018 2.058-1.49 4.858-2.803 7.974-3.352 3.196-.562 6.976-.294 9.954.66 4.712 1.51 8.635 4.799 11.072 8.787.299.49.938 1.383.864 1.93-.091.668-1.521 1.303-2.133 1.168-.636-.14-1.182-1.459-1.574-2.032-.459-.669-1.073-1.397-1.575-1.98-1.182-1.374-2.69-2.398-3.911-3.25-2.706-1.89-6.929-2.922-11.529-2.336-4.006.51-7.203 2.416-9.599 4.723-2.494 2.402-4.272 5.248-5.028 9.244-.859 4.543.102 8.848 1.879 11.833 1.807 3.038 4.266 5.451 7.313 6.958 3.243 1.604 7.521 2.573 11.885 1.574 3.834-.877 6.609-2.699 8.989-5.282.926-.977 1.718-2.005 2.438-3.301.206-.37.571-.971.508-1.371-.146-.917-1.999-.451-2.133-1.32-.091-.587.455-1.018.965-1.219.607-.239 1.35-.072 1.981-.203.757-.158 1.158-1.032 1.93-1.066.53-.024.727.295 1.066.609s.691.525 1.371.508c1.337-.034 1.344-1.18 2.539-1.422 1.328.125 1.043 1.641 2.54 1.372.879-.158.826-1.2 1.219-2.083.513-1.154 2.07-2.352 2.946-.711.799 1.497-.401 3.921 1.32 4.368.601.156 1.152-.526 1.829-.305.886.29.736 1.453 1.117 2.336.207.479 1.106 1.305 1.676 1.473.476.141 1.097-.144 1.676 0 .592.339.698 1.165.914 1.879.813.809 2.491 2.139 1.422 3.708-.937.288-1.16-.566-1.981-.457-.613.081-1.016 1.387-1.371 2.133-.416.874-.737 1.689-1.118 2.387-2.426 4.456-5.683 8.537-9.396 11.63-5.091 4.243-11.252 7.579-18.995 8.99-8.669 1.579-17.62.01-23.87-2.844-6.464-2.952-11.697-6.911-15.795-12.189-1.907-2.811-3.706-5.601-5.13-8.888-1.4-3.235-2.571-6.927-2.946-11.072-.832-9.216.967-16.943 4.216-23.261 3.105-6.039 7.472-11.032 13.052-14.982 5.496-3.89 12.662-6.77 20.976-7.212 4.959-.265 9.766.482 13.616 1.775 3.974 1.334 7.429 2.878 10.513 4.875 5.457 3.534 9.646 8.252 13.002 13.916.483.816 1.05 1.627 1.218 2.59-.11.573-.449.762-.914 1.016-.388.212-.955.548-1.372.457-.653-.143-1.322-1.86-1.676-2.488-3.413-6.052-8.491-10.967-14.576-14.271-3.474-1.886-7.615-3.57-12.291-4.215-4.995-.69-10.615-.347-14.932.863-4.407 1.235-8.025 2.885-11.376 5.129-4.117 2.757-7.479 6.204-10.31 10.361-1.658 2.434-2.973 5.166-4.063 8.278-1.448 4.134-2.341 8.804-2.082 14.221.248 5.199 1.338 9.512 3.149 13.357.445.945.99 1.827 1.422 2.743.452.958.847 1.845 1.422 2.692 3.312 4.878 7.574 8.802 12.951 11.783 3.557 1.972 7.628 3.607 12.189 4.317 4.802.748 10.66.772 14.982-.406 2.178-.594 4.277-1.222 6.196-2.082 8.476-3.799 14.949-9.719 18.893-18.183.379-.813 1.23-2.283 1.066-3.047-.07-.328-.488-.782-1.066-.762-.896.031-1.479 2.354-1.828 3.098-1.55 3.305-3.688 6.29-5.993 8.735-1.604 1.701-3.246 3.283-5.181 4.622-3.875 2.683-8.138 4.815-13.662 5.942-2.774.565-5.888.914-9.041.66-6.058-.488-10.961-1.94-15.287-4.317-6.293-3.458-11.21-8.378-14.627-14.83-.573-1.081-.933-2.279-1.422-3.504-1.357-3.397-2.337-7.791-2.336-12.341 0-4.652.912-8.955 2.234-12.494.456-1.218.826-2.401 1.372-3.504 1.08-2.184 2.307-4.188 3.809-5.993 3.396-4.33 7.652-7.974 13.053-10.514 5.092-2.394 12.228-4.167 19.858-3.047 6.604.97 12.115 3.611 16.506 7.009 3.84 2.971 7.036 6.494 9.548 11.072.317.578.984 1.456.914 1.98-.077.583-1.656 1.337-2.184 1.219-.577-.129-1.066-1.375-1.422-1.981-2.852-4.857-6.832-9.108-11.732-11.884-2.661-1.507-5.955-3.077-9.65-3.86-3.656-.775-8.194-1.072-12.24-.254-7.419 1.499-13.389 4.52-17.725 9.294-1.098 1.209-2.222 2.312-3.149 3.606-2.777 3.875-4.976 8.474-5.891 14.322-1.375 8.783 1.086 16.418 4.52 21.788 3.504 5.48 8.345 9.864 14.525 12.443 3.175 1.325 6.692 2.372 10.818 2.692 8.598.666 15.95-2.093 21.077-5.638 2.633-1.82 4.807-4.019 6.907-6.552 1.521-2.077 2.923-4.248 4.063-6.755.366-.805.83-1.708.762-2.691-.2-.384-.587-.785-1.066-.762-.749.036-1.002 1.278-1.27 1.93-2.089 5.087-5.58 9.48-9.701 12.494-4.864 3.558-10.612 6.227-19.249 6.095-3.916-.06-7.477-.969-10.513-2.184-3.06-1.225-5.737-2.767-8.024-4.673-4.679-3.899-8.193-8.719-10.056-15.287-2.107-7.429-.884-15.633 1.93-21.229 2.894-5.756 6.87-10.116 12.138-13.205 5.113-2.998 12.493-5.191 20.62-3.707 7.047 1.286 12.247 4.584 16.51 8.837z" fill-rule="evenodd"/></svg>