<svg enable-background="new 0 0 73.225 68.843" viewBox="0 0 73.225 68.843" xmlns="http://www.w3.org/2000/svg"><path clip-rule="evenodd" d="m73.225.123c-.107 1.402-.628 2.734-.985 4.08-1.793 6.75-3.751 13.467-5.535 20.266-.709 2.701-1.495 5.369-2.298 8.019-10.236.178-21.352-.014-31.288.096-.696.977-.953 2.393-1.313 3.705.587.246 1.258.141 1.876.141 4.389 0 9.244.047 13.744.047 5.322 0 10.701-.086 15.808.094.02.883-.379 1.686-.61 2.486-.73 2.535-1.398 4.777-2.486 6.942-2.125 4.229-4.682 7.871-7.881 11.07-5.204 5.205-11.399 9.65-20.358 11.164-1.854.314-3.771.611-5.723.611-1.982 0-3.893-.242-5.676-.611-3.53-.729-6.385-1.906-8.913-3.705-2.337-1.662-4.58-3.928-6.286-6.285-3.623-5.01-5.645-11.652-5.253-19.889.181-3.811 1.063-7.312 2.158-10.461 1.065-3.062 2.54-5.971 4.128-8.443 3.305-5.148 7.294-9.6 12.337-12.9 4.525-2.963 9.117-5.412 15.808-6.238 3.582-.443 8.036-.281 12.102-.281 9.033-.004 17.737-.025 26.644.092z" fill-rule="evenodd"/></svg>