<svg enable-background="new 0 0 85.284 51.363" viewBox="0 0 85.284 51.363" xmlns="http://www.w3.org/2000/svg"><g clip-rule="evenodd" fill-rule="evenodd"><path d="m42.116 51.325c-.289-8.229.096-17.148-.193-25.428-.925-.295-1.994-.193-3.045-.193-6.829.001-13.672.048-20.69.049-.406 0-1.265.112-1.305-.29-.054-.538.973-.387 1.208-.387 7.9-.001 16.024.016 23.784-.097.254-.841.145-2.002.145-3.046 0-6.692 0-13.837 0-20.593 0-.771-.125-1.199.483-1.306.578-.101 1.375.049 2.127.049 4.773 0 9.465.796 13.294 1.74 4.822 1.189 8.764 2.461 12.617 4.544 3.644 1.97 7.122 4.261 9.813 7.396 2.65 3.087 4.93 6.8 4.931 12.23.001 5.271-2.541 9.15-5.172 12.037-2.777 3.045-6.129 5.477-9.91 7.251-3.876 1.819-7.977 3.486-12.665 4.496-4.647 1.001-9.737 1.771-15.422 1.548zm4.592-.726c3.906-.123 7.637-.774 10.973-1.547 4.552-1.055 8.562-2.629 12.327-4.399 3.645-1.713 6.945-4.158 9.62-7.058 2.638-2.859 4.858-6.632 5.027-11.698.084-2.488-.639-4.88-1.547-6.768-2.747-5.708-7.613-9.239-12.907-12.182-3.608-2.006-7.775-3.388-12.23-4.447-4.522-1.076-9.506-1.741-14.986-1.74-.057.023-.109.052-.145.097-.202.379-.208 2.091-.193 2.9.125 6.852-.074 14.508.145 21.173 1.813.141 3.733.171 5.704.097 1.918-.071 3.937.049 5.946.049h6.091c1.488 0 3.032-.107 4.496-.049.379.016 1.012-.094 1.209.339-.125.488-.738.377-1.112.387-7.429.177-15.048-.2-22.285.097-.259.941-.145 1.953-.145 2.948 0 7.234-.08 14.739.097 21.754 1.31.287 2.633.087 3.915.047z"/><path d="m5.377 14.344c-2.613 3.075-5.29 7.329-4.592 13.342.196 1.692.735 3.28 1.353 4.641 2.476 5.447 7.257 9.025 12.133 11.939 6.825 3.519 14.235 5.588 23.88 6.285.497.035 1.58-.053 1.595.387.017.526-1.142.317-1.644.289-4.404-.244-8.658-.861-12.327-1.885-4.283-1.194-8.304-2.527-11.747-4.447-1.711-.954-3.314-2.059-4.882-3.239-1.519-1.142-2.936-2.416-4.206-3.867-2.418-2.764-4.766-6.493-4.931-11.263-.184-5.332 1.839-8.888 4.302-11.892 2.374-2.895 5.423-5.479 8.798-7.396 6.777-3.851 15.165-6.526 25.331-7.058.46-.024 1.269-.231 1.305.242.045.586-2.136.449-2.562.482-6.334.491-12.41 1.908-17.306 3.819-5.866 2.292-10.745 5.435-14.5 9.621z"/></g></svg>