<svg enable-background="new 0 0 21.163 30.485" viewBox="0 0 21.163 30.485" xmlns="http://www.w3.org/2000/svg"><path d="m5.6 3.545c4.245-3.541 10.428-4.57 15.553-2.447.018 2.968.003 5.935.007 8.903-2.264-1.512-5.275-1.854-7.815-.853-2.413.849-4.307 3.201-4.399 5.795-.225 3.215 2.347 6.026 5.365 6.757.046 1.897-1.54 3.518-3.296 4.037.854.034 1.708-.095 2.542-.274 2.023-.267 3.818-1.742 4.473-3.678 1.126-.242 2.198-.72 3.128-1.399.008 2.988 0 5.978.003 8.966-5.674 2.389-12.658.9-16.891-3.56-3.101-3.052-4.609-7.58-4.206-11.891.347-4.011 2.419-7.819 5.536-10.356z"/></svg>