<svg enable-background="new 0 0 86.459 44.256" viewBox="0 0 86.459 44.256" xmlns="http://www.w3.org/2000/svg"><g clip-rule="evenodd" fill-rule="evenodd"><path d="m86.304.178c.224 1.66.16 3.803.053 5.405-13.114.477-26.905-.269-39.934.21-.279.617-.158 1.358-.158 1.994.001 10.115-.133 20.191.053 30.646.766.284 1.608.158 2.414.158 9.257 0 18.727.104 27.864.105 3.31.001 6.588-.15 9.761.105.055 1.649.152 3.789-.053 5.353-28.221.252-57.691-.02-86.112-.158-.276-1.424-.178-3.797 0-5.405 13.42-.264 27.015.118 40.196-.105.286-1.294.157-2.645.157-3.988.001-9.437.089-19.104-.105-28.704-1.607-.276-3.288-.158-4.933-.158-5.021.001-10.092-.052-15.165-.052-6.784 0-13.613.124-20.151-.158-.187-.759-.104-1.776-.104-2.729 0-.973-.12-1.971.157-2.676 28.434-.067 57.268.041 86.06.157z"/><path d="m37.344 8.049c.204 1.538.16 3.761 0 5.405-2.444.15-5.002.22-7.608.158-6.642-.161-13.315-.053-19.889-.053-1.126 0-3.245-.314-3.777.157-.564.499-.263 3.006-.263 4.093v8.501c0 1.119-.275 3.552.21 4.093.435.484 2.647.262 3.778.262 9.408.001 18.284-.049 27.549.157.151 1.646.217 3.928 0 5.457-10.733.199-20.077.053-30.96.053-1.383 0-3.204.207-4.355-.106-.778-.21-1.609-.969-1.837-1.731-.229-.764-.105-1.917-.105-3.043 0-5.147-.001-10.299 0-15.585 0-1.921-.298-4.888.21-6.192.339-.872 1.17-1.665 2.204-1.784 1.383-.159 2.975 0 4.46 0 4.066-.001 8.709-.143 13.014.052 1.406.064 2.812-.068 4.251 0 4.353.207 8.76-.24 13.118.106z"/><path d="m86.304 8.154c.207 1.65.208 3.803 0 5.405-8.754.285-18.431.054-27.393.053-1.088 0-3.301-.249-3.83.157-.556.426-.315 3.093-.315 4.04.001 3.112 0 5.545 0 8.606.001 1.434-.154 2.938.21 4.093 1.143.416 2.444.263 3.726.263 9.192 0 18.608.014 27.655.157.087 1.681.087 3.724 0 5.405-1.407.262-2.867.157-4.303.157-8.806 0-17.649.13-26.763-.105-1.39-.036-3.423.254-4.514-.105-.589-.194-1.388-.876-1.626-1.574-.534-1.561-.062-4.35-.106-6.245-.09-4.001-.054-7.981-.053-12.594.001-1.99-.266-4.877.263-6.14.346-.826 1.161-1.655 2.204-1.784 1.34-.165 2.965-.068 4.408 0 4.209.2 8.802.007 13.066.053 5.891.064 11.664-.024 17.371.158z"/></g></svg>