<svg enable-background="new 0 0 81.395 48.095" viewBox="0 0 81.395 48.095" xmlns="http://www.w3.org/2000/svg"><path clip-rule="evenodd" d="m0 47.716c-.014-.846.576-1.52.988-2.322.359-.699.689-1.75 1.385-2.027.738-.295 2.477-.148 3.409-.148 2.394.002 4.584.051 7.018.051 1.161 0 2.54.17 3.409-.1 1.254-.387 2.176-2.533 2.916-3.854.835-1.488 1.688-2.94 2.472-4.25.856-1.434 1.497-3.023 2.372-4.4.411-.647.762-1.445 1.186-2.174.43-.738.947-1.445 1.137-2.223.455-1.863-.76-3.498-2.471-3.807-1.094-.197-2.404-.09-3.509-.098-1.215-.01-2.356.037-3.36-.148-1.428-.266-2.428-1-3.064-2.125-1.17-2.068.143-4.166.939-5.584 1.9-3.385 3.748-6.742 5.832-10.182.801-1.322 1.654-2.769 2.865-3.508 2.047-1.248 7.072-.6 10.131-.742 1.789-.082 3.689 0 5.387 0 5.51.002 10.838-.049 16.26-.049 3.568 0 7.18.174 10.92 0 .639-.029 2.094-.08 2.818.148 1.074.338 1.834 1.145 2.322 1.977.459.783.789 2.305.346 3.559-.283.797-.9 1.578-1.434 2.52-.963 1.699-1.877 3.213-2.816 4.992-.463.875-1.064 1.875-1.088 2.816-.037 1.531.949 2.51 2.027 2.867 1.144.377 2.918.197 4.447.197 1.541 0 3.207-.139 4.596 0 1.469.145 2.44.965 3.113 1.828.684.875 1.117 2.326.643 3.855-.346 1.109-1.092 2.193-1.68 3.211-3.064 5.295-5.746 10.096-8.994 15.469-1.193 1.961-2.688 3.908-5.387 4.398-1.42.258-3.064.148-4.744.148-7.264-.002-14.543.047-21.893.049-.709 0-1.555.191-2.076-.346.033-.967.598-1.5 1.037-2.273.373-.656.814-1.775 1.533-1.977.76-.213 1.916-.018 3.014 0 2.057.031 4.047-.049 6.178-.049 1.178 0 2.43.1 3.162-.248.654-.309 1.131-1.065 1.582-1.828 2.545-4.312 4.855-8.551 7.412-12.85.443-.742.953-1.514 1.088-2.273.285-1.602-.619-3.068-2.025-3.359-1.102-.229-2.846-.045-3.955-.049-1.191-.008-2.805.145-3.902-.148-1.949-.523-3.693-2.764-2.967-5.486.252-.938.871-1.791 1.385-2.719 1-1.801 1.881-3.301 2.916-5.188.479-.875 1.15-1.883 1.186-2.867.047-1.338-.976-2.373-1.976-2.668-.848-.252-2.231-.1-3.361-.1-2.346 0-4.623-.051-6.77.049-1.154.055-2.516-.129-3.262.051-1.07.256-1.703 1.719-2.273 2.717-1.254 2.201-2.338 4.082-3.608 6.277-.546.945-1.488 2.186-1.434 3.508.057 1.381 1.258 2.539 2.373 2.867 1.389.408 3.545.148 5.387.148 1.871-.002 3.648-.158 4.793.691 1.176.619 1.851 1.51 2.125 2.719.305 1.348-.168 2.707-.791 3.805-1.791 3.154-3.451 6.121-5.336 9.143-.611.977-1.16 2.025-1.779 3.014-.604.961-1.215 2.002-1.779 3.016-1.646 2.951-3.57 6.424-8.006 6.424-6.275 0-12.726-.1-19.125-.1-2.418.002-4.807.051-7.166.051-.683.001-1.519.192-2.078-.296z" fill-rule="evenodd"/></svg>