<svg enable-background="new 0 0 85.181 59.901" viewBox="0 0 85.181 59.901" xmlns="http://www.w3.org/2000/svg"><g clip-rule="evenodd" fill-rule="evenodd"><path d="m58.917 24.916c-6.044.334-12.821.111-19.008.051-.514-.262-.729-.834-1.033-1.24-2.052-2.73-6.136-5.336-11.312-3.977-2.251.592-4.072 1.988-5.423 3.668-1.381 1.717-2.325 3.9-2.325 6.715 0 2.734 1.024 5.135 2.376 6.715 1.42 1.658 3.201 2.932 5.527 3.512 5.014 1.25 9.1-1.102 11.209-3.977.305-.416.485-.965.981-1.24 3.216-.115 6.479 0 9.71 0 3.164 0 6.352-.113 9.349.104-.868 6.035-3.565 10.691-6.818 14.514-3.096 3.359-6.368 6.154-10.899 7.904-4.531 1.748-9.994 2.811-16.116 1.91-7.7-1.133-13.811-5.055-18.079-10.072-2.309-2.715-3.837-5.438-5.165-8.885-1.243-3.227-2.071-7.607-1.859-11.982.141-2.926.623-5.606 1.394-8.006.746-2.32 1.743-4.504 2.944-6.406 3.67-5.812 8.729-9.998 15.65-12.5 1.183-.426 2.377-.775 3.667-1.031 1.3-.26 2.762-.512 4.235-.621 4.657-.342 8.757.617 12.139 1.859 1.691.621 3.386 1.312 4.752 2.273 1.396.982 2.784 1.885 4.029 2.943 4.407 3.748 7.793 8.477 9.556 14.928.251.907.601 1.854.519 2.841z"/><path d="m84.898 1.929c.169 13.709.206 27.859.206 42.148.001 4.189.052 8.287.052 12.449 0 .516.114 1.111-.155 1.602-6.4.17-13.536.172-19.99 0-.265-4.711-.155-9.441-.155-14.154 0-14.137-.28-27.855 0-42.045 3.488-.193 7.748-.244 11.519-.104 2.963.112 5.867-.255 8.523.104z"/></g></svg>