<svg enable-background="new 0 0 14.188 20.527" viewBox="0 0 14.188 20.527" xmlns="http://www.w3.org/2000/svg"><path d="m3.682 0c.394.014.789.01 1.182.004-.007.78-.011 1.562.002 2.343-.395.002-.79-.009-1.184.006.009-.784.009-1.569 0-2.353z"/><path d="m5.532.003c.396.01.791.008 1.187.001-.007.781-.007 1.563 0 2.345-.395-.007-.79 0-1.185-.003.004-.781.009-1.563-.002-2.343z"/><path d="m7.39.003c.392.008.785.011 1.176-.002-.003.783-.006 1.565.002 2.347-.394-.004-.788-.002-1.183-.003.02-.781.011-1.562.005-2.342z"/><path d="m9.263.006c.386.001.773.006 1.159-.003-.01.784-.007 1.568-.002 2.352-.388-.021-.776-.004-1.164-.009.017-.78.004-1.56.007-2.34z"/><path d="m3.679 3.017c.395.014.791.011 1.186.003-.018.786.007 1.574-.012 2.36-.39.009-.78-.012-1.169.011.003-.792.011-1.583-.005-2.374z"/><path d="m1.822 3.026c.398-.005.797.005 1.196-.005-.013.787-.011 1.574-.002 2.361-.397-.001-.795-.005-1.193.004.006-.787.008-1.574-.001-2.36z"/><path d="m5.527 3.026c.397-.008.795.011 1.193-.011-.012.789.001 1.577-.007 2.365-.394-.004-.788.008-1.182-.002.007-.784.017-1.569-.004-2.352z"/><path d="m7.384 3.021c.395.007.79.009 1.184-.002-.008.787-.005 1.575-.002 2.363-.39-.002-.78-.006-1.17.004-.01-.789.015-1.578-.012-2.365z"/><path d="m9.257 3.023c.388 0 .777.01 1.166-.005-.012.79-.01 1.58-.001 2.369-.385-.013-.771-.01-1.156.003-.009-.789.009-1.578-.009-2.367z"/><path d="m11.143 3.023c.4.004.799.002 1.199.001-.021.785-.009 1.572-.006 2.357-.395-.003-.79-.005-1.185.003-.001-.786.015-1.574-.008-2.361z"/><path d="m12.988 6.048c.399-.004.798 0 1.197-.004-.011.793-.01 1.586 0 2.379-.398-.005-.795-.005-1.193 0 .004-.792.012-1.584-.004-2.375z"/><path d="m.002 6.042c.394.005.788.01 1.181-.002.003.793-.015 1.587.009 2.38-.397-.001-.793.002-1.19-.004.001-.791.004-1.582 0-2.374z"/><path d="m1.826 6.041c.395.008.791.009 1.187 0-.003.792-.002 1.583-.002 2.375-.396.01-.793-.001-1.189.006.01-.793.004-1.587.004-2.381z"/><path d="m3.68 6.039c.391.01.783.018 1.174-.004.013.794-.002 1.589.007 2.384-.393.004-.786 0-1.179.002.007-.794.011-1.589-.002-2.382z"/><path d="m9.262 6.042c.387.005.774.01 1.161-.002-.012.794-.01 1.587-.001 2.381-.385-.003-.771 0-1.156 0-.006-.793.001-1.586-.004-2.379z"/><path d="m11.15 6.044c.395.004.79.003 1.185.002-.007.792-.005 1.583-.001 2.374-.394.001-.788-.001-1.182.002 0-.793.005-1.586-.002-2.378z"/><path d="m.003 9.071c.395.005.79.004 1.186.002-.014.784-.008 1.569-.003 2.353-.394-.007-.788-.007-1.182.002-.001-.786.001-1.571-.001-2.357z"/><path d="m1.823 9.072c.396.005.792.003 1.188 0 .001.784-.004 1.568.002 2.353-.396-.002-.793-.01-1.188.004.001-.786.007-1.572-.002-2.357z"/><path d="m3.685 9.069c.393.007.787.009 1.181 0-.015.786-.001 1.572-.007 2.358-.392-.008-.785-.009-1.178 0 .014-.786.005-1.572.004-2.358z"/><path d="m.004 12.1c.394.012.788 0 1.183.007-.011.785-.003 1.57-.005 2.356-.394-.012-.789-.019-1.182.005.008-.789.001-1.579.004-2.368z"/><path d="m1.827 12.098c.395.012.79.009 1.185.003-.003.787-.006 1.574.002 2.361-.395-.008-.79-.016-1.184.005-.007-.79-.001-1.58-.003-2.369z"/><path d="m3.683 12.098c.392.014.786.007 1.178.004-.003.788-.004 1.576 0 2.364-.391-.016-.785-.024-1.176.004.001-.791.007-1.582-.002-2.372z"/><path d="m9.262 12.101c.385.005.771.008 1.157-.003-.009.791.004 1.583-.006 2.374-.382-.033-.767-.018-1.15-.007.001-.787.002-1.576-.001-2.364z"/><path d="m11.153 12.099c.392.009.785.011 1.178-.001-.003.79.006 1.58-.004 2.37-.389-.022-.781-.02-1.171-.001-.008-.789 0-1.579-.003-2.368z"/><path d="m12.992 12.106c.399-.004.797.007 1.195-.004-.026.791.009 1.583-.017 2.374-.381-.043-.766-.015-1.149-.014-.007-.01-.02-.03-.028-.04.003-.773.007-1.544-.001-2.316z"/><path d="m1.818 15.144c.4 0 .8 0 1.2-.002-.012.779-.012 1.559 0 2.338-.398.005-.795-.004-1.193.004-.001-.78.012-1.561-.007-2.34z"/><path d="m3.676 15.142c.395.002.791.006 1.186-.002-.005.78-.006 1.56.001 2.34-.393.005-.787-.006-1.18.007.002-.781.016-1.564-.007-2.345z"/><path d="m5.534 15.139c.397.008.794.006 1.19.002-.017.78-.011 1.56-.003 2.34-.396.002-.792-.001-1.187.001.005-.781.006-1.562 0-2.343z"/><path d="m7.386 15.143c.395.004.791 0 1.186.001-.018.778-.006 1.558-.006 2.336-.392.003-.784-.002-1.176.004.007-.78.015-1.561-.004-2.341z"/><path d="m9.257 15.143c.39.002.78-.001 1.171 0-.023.779-.014 1.561-.005 2.341-.389-.009-.779.002-1.168-.003.016-.779.012-1.559.002-2.338z"/><path d="m11.133 15.142c.404.003.808.003 1.213 0-.033.779-.009 1.562-.012 2.342-.395-.005-.79-.006-1.185.001.009-.717-.001-1.435.005-2.152.003-.065-.009-.128-.021-.191z"/><path d="m3.685 18.161c.392.009.786.001 1.178.004-.012.787.001 1.574-.006 2.36-.391-.012-.783-.01-1.174-.002.008-.787.003-1.575.002-2.362z"/><path d="m5.535 18.166c.393-.003.787-.002 1.181-.002-.005.785.005 1.571-.006 2.356-.391-.009-.782.001-1.173-.004-.002-.783.004-1.566-.002-2.35z"/><path d="m7.391 18.164c.391-.002.782.003 1.173-.002.003.786-.005 1.572.003 2.358-.389-.004-.779-.008-1.169.003-.009-.786.004-1.572-.007-2.359z"/><path d="m9.258 18.16c.387.008.773.005 1.16.001-.002.788-.006 1.578.001 2.366-.384-.016-.77-.015-1.153 0-.008-.789.005-1.578-.008-2.367z"/></svg>