<svg enable-background="new 0 0 77.534 78.542" viewBox="0 0 77.534 78.542" xmlns="http://www.w3.org/2000/svg"><path clip-rule="evenodd" d="m46.602 32.509c-.261-6.165.039-12.335-.241-18.41-.436-.089-.683.394-.915.626-3.994 3.994-8.225 7.952-12.289 11.952-2.178 2.143-4.475 4.179-6.651 6.313s-4.434 4.192-6.506 6.41c.357.7 1.024 1.173 1.591 1.687 1.667 1.514 3.22 3.262 4.915 4.819 2.252 2.067 4.34 4.306 6.603 6.361.569.517 1.015 1.155 1.591 1.687 3.326 3.07 6.607 6.391 9.927 9.542.543.515 1.079 1.133 1.784 1.446.288-6.292-.087-12.666.24-18.795 9.462-.185 19.345-.048 29.06-.048.595 0 1.229-.112 1.783.145-.008 1.294-.39 2.418-.675 3.519-.723 2.789-1.776 5.343-3.036 7.71-.261.492-.389 1.002-.626 1.494-.327.678-.848 1.368-1.302 2.024-3.13 4.527-6.871 8.434-11.566 11.374-5.383 3.37-12.021 6.01-20.048 6.168-8.31.164-15.252-2.129-20.771-5.397-8.249-4.885-14.358-12.013-17.59-21.783-1.1-3.32-1.88-7.094-1.88-11.229 0-8.836 2.119-15.11 5.397-20.819 4.751-8.275 12.045-14.256 21.831-17.494 1.724-.57 3.445-.974 5.302-1.253.933-.141 1.851-.364 2.844-.434 3.145-.222 6.638-.157 9.638.289 5.779.858 10.562 2.978 14.651 5.445 5.626 3.395 9.9 7.97 13.253 13.542 1.754 3.426 3.4 7.017 4.337 11.325.123.566.379 1.175.241 1.783-.545.268-1.192.167-1.783.145-1.949-.075-3.924.048-5.928.048-2.61 0-5.275.065-7.855 0-5.267-.132-10.499.039-15.326-.192z" fill-rule="evenodd"/></svg>