<svg enable-background="new 0 0 81.959 81.416" viewBox="0 0 81.959 81.416" xmlns="http://www.w3.org/2000/svg"><g clip-rule="evenodd" fill-rule="evenodd"><path d="m81.121 30.515c-5.104.203-10.788.102-15.979.051-.451-.269-.553-.818-.768-1.228-1.522-2.904-3.72-5.481-6.146-7.58-2.802-2.424-6.178-4.315-10.345-5.377-4.409-1.125-9.784-1.025-13.879.205-5.953 1.787-10.455 5.424-13.674 9.936-3.078 4.312-5.637 10.943-4.559 18.59.945 6.697 4.142 11.721 7.99 15.568.653.654 1.37 1.275 2.1 1.844.722.562 1.59.947 2.253 1.639.148 2.764.113 5.637.052 8.398-.064 2.846.216 5.635-.103 8.297-2.441-.559-4.478-1.771-6.452-2.867-5.978-3.318-10.792-7.766-14.596-13.367-4.698-6.918-8.492-17.701-6.452-29.754.877-5.184 2.541-9.828 4.813-13.828 2.244-3.951 4.952-7.453 8.245-10.346 3.305-2.902 7.064-5.518 11.267-7.373 1.058-.469 2.266-.818 3.432-1.23 2.297-.811 4.86-1.357 7.579-1.74 6.898-.971 14.66.18 19.819 2.15 4.429 1.691 8.102 3.815 11.318 6.504 3.238 2.709 6.288 5.684 8.604 9.27 1.756 2.719 3.231 5.594 4.507 8.859.413 1.051.902 2.172.974 3.379z"/><path d="m81.787 33.28c.182 1.535.153 3.361.153 5.172 0 1.816.083 3.684-.103 5.326-6.088.231-12.322.154-18.539.154-6.319 0-12.635-.043-18.999.102-.309.77-.248 1.75-.205 2.664.118 2.549-.07 5.625.153 8.295 1.187.309 2.439.104 3.688.104 8.891.002 18.324-.086 27.092.102.243 3.154.208 7.207 0 10.498-4.974.43-10.289-.043-15.518.154-5.181.195-10.351-.242-15.262.154-.305 4.85.101 10.41-.204 15.262-2.089.186-4.435.102-6.709.102-2.273 0-4.565.158-6.556-.102-.102-15.875-.156-31.861 0-47.936 5.173-.322 10.542-.018 16.029-.102 4.072-.064 8.222-.051 12.394-.053 7.452.001 15.196-.177 22.586.104z"/></g></svg>