<svg enable-background="new 0 0 75.208 77.654" viewBox="0 0 75.208 77.654" xmlns="http://www.w3.org/2000/svg"><path clip-rule="evenodd" d="m64.547 67.716c-4.279 3.888-9.14 6.744-15.353 8.53-6.199 1.781-14.801 1.969-20.988 0-6.116-1.947-11.075-4.639-15.354-8.53-4.159-3.783-7.601-8.508-9.874-13.958-2.254-5.4-3.72-12.92-2.585-20.472 1.013-6.734 3.573-12.334 6.824-17.008 3.281-4.719 7.477-8.512 12.562-11.321 2.669-1.475 5.363-2.512 8.427-3.516 1.523-.499 3.15-.885 4.859-1.085 4.04-.474 8.919-.559 12.82.259 2.158.451 4.187 1.077 5.997 1.758 4.679 1.757 8.614 4.311 12.2 7.185.715.572 1.302 1.25 1.965 1.912 1.239 1.239 2.467 2.632 3.618 4.136.549.718.969 1.553 1.499 2.378 1.02 1.59 1.895 3.111 2.74 5.015.358.808 1.078 2.147 1.034 2.843-.035.54-.962 1.273-1.396 1.706-1.583 1.583-3.062 3.051-4.601 4.653-1.432 1.49-3.015 3.064-4.601 4.652-.41.41-1.383 1.249-1.396 1.654-.016.471 1.018 1.225 1.447 1.654 3.189 3.188 6.103 6.102 9.306 9.305.432.432 1.429 1.113 1.499 1.603.104.723-.542 1.878-.827 2.585-.977 2.429-2.249 4.691-3.566 6.669-.485.727-.843 1.42-1.345 2.068-1.482 1.917-3.038 3.692-4.911 5.325zm-2.843-35.36c.859-.828 1.714-1.662 2.533-2.532 1.397-1.193 2.479-2.495 3.773-3.826.408-.42 1.111-.825 1.138-1.396.024-.55-.66-1.57-.982-2.171-2.604-4.851-6.424-8.769-10.701-11.735-3.833-2.657-8.273-4.528-13.803-5.376-9.655-1.482-17.972 1.363-23.677 5.221-4.745 3.209-8.302 7.131-10.959 12.148-2.586 4.882-4.594 11.29-3.93 18.869.615 7.016 2.95 12.34 6.204 16.956 4.607 6.536 11.788 11.651 21.092 13.597 3.288.687 7.105.719 10.701.258 6.636-.851 11.829-3.486 16.284-6.823 3.672-2.751 6.906-6.678 9.201-11.063.271-.518.882-1.537.827-2.067-.047-.454-.777-1.054-1.137-1.396-1.435-1.366-2.466-2.477-3.826-3.825-1.158-1.058-2.546-2.56-3.825-3.773-.375-.355-.984-1.14-1.447-1.138-.486.002-1.07.824-1.396 1.138-.501.482-.845.852-1.24 1.292-5.4 5.622-11.252 11.023-16.542 16.801-.346.377-.943.999-1.293.983-.36-.017-1.059-.903-1.447-1.292-2.873-2.874-5.59-5.539-8.375-8.323-.476-.476-.839-1.037-1.292-1.499-3.746-3.806-7.479-7.354-11.167-11.062-.146-.51-1.368-.91-1.344-1.654.014-.403.981-1.188 1.344-1.551 3.411-3.411 7.061-7.055 10.236-10.34 1.823-1.87 3.702-3.857 5.79-5.945 1.41-1.41 2.979-2.927 4.445-4.394.363-.363 1.027-1.394 1.551-1.396.441-.002 1.122.832 1.396 1.085.469.435.853.866 1.292 1.241.805.884 1.664 1.713 2.585 2.481 2.491 2.545 5.048 5.01 7.496 7.599 1.823 1.929 3.937 3.679 5.79 5.532.641.642 1.232 1.384 2.067 1.757 1.056-.601 1.793-1.566 2.638-2.381zm-21.97-9.564c-.376-.375-1.006-1.133-1.448-.775-5.347 5.064-10.176 10.33-15.404 15.561-.346.346-.933.77-.931 1.138.001.356.578.785.931 1.137 5.011 5.012 9.572 9.798 14.63 14.682.269.261.903.889 1.24.879.434-.013.822-.615 1.138-.931 1.119-1.12 2.11-2.155 3.153-3.153 3.356-3.622 6.978-6.979 10.339-10.598.327-.28.614-.578 1.034-1.034.244-.266.933-.769.93-1.189-.002-.443-1.059-1.392-1.395-1.706-3.764-3.512-7.465-7.589-11.114-10.857-.826-.836-2.117-2.167-3.103-3.154z" fill-rule="evenodd"/></svg>