<svg enable-background="new 0 0 41.623 80.352" viewBox="0 0 41.623 80.352" xmlns="http://www.w3.org/2000/svg"><g clip-rule="evenodd" fill-rule="evenodd"><path d="m41.608 19.735c-6.788.266-14.14-.033-21.011.15-.254.315-.15 1.18-.1 1.643.801.262 1.69.149 2.54.149h13.393c1.77 0 3.528-.112 5.178.149.043 2.675-.544 4.876-1.294 7.12-1.109 3.314-3.632 6.298-6.125 8.315-2.746 2.221-6.02 3.758-9.957 4.481-4.461.818-9.142-.233-12.248-1.792-3.186-1.6-5.965-3.818-7.916-6.523-2.058-2.854-3.607-6.247-3.983-10.456-.402-4.51.66-8.804 2.439-11.899 2.668-4.642 6.304-8.021 11.75-9.908 1.836-.636 3.858-1.033 6.224-1.144 3.321-.158 6.258.677 8.613 1.643 2.44 1 4.448 2.462 6.174 4.083 1.771 1.569 3.232 3.59 4.382 5.875.568 1.131.958 2.437 1.344 3.784.381 1.326.682 2.827.597 4.33z"/><path d="m19.901 43.185c.194 2.961.099 6.038.1 9.161 0 8.51-.001 17.17 0 25.74 0 .717.114 1.465-.149 2.141-5.829.163-12.415.188-18.223-.049-.188-11.97-.157-24.673 0-36.943 2.827-.234 6.325-.099 9.659-.1 2.898 0 5.836-.041 8.613.05z"/><path d="m40.264 43.235c.166 12.061.166 24.83 0 36.943-4.594.146-9.524.153-13.841.099-1.512-.019-3.027.189-4.431-.099-.169-12.172-.156-24.91.05-36.943 5.97-.153 12.438-.191 18.222 0z"/></g></svg>