<svg enable-background="new 0 0 70.389 69.974" viewBox="0 0 70.389 69.974" xmlns="http://www.w3.org/2000/svg"><g clip-rule="evenodd" fill-rule="evenodd"><path d="m34.184 34.137c-11.101.068-22.905.153-33.937 0-.279-5.317 1.111-9.966 2.889-13.863 1.756-3.852 4.139-7.22 6.979-9.916 2.877-2.73 6.028-5.106 10.012-6.932 1.956-.896 3.961-1.609 6.258-2.215 2.283-.602 4.804-1.294 7.365-1.203.258.01.429-.104.481.674.163 2.407-.063 5.27.048 7.605.07 1.481.013 2.885-.048 4.188-.065 1.374 0 2.749 0 4.235.001 5.784.178 11.642-.047 17.427z"/><path d="m70.382 34.088c-.563.29-1.249.169-1.877.144-2.02-.075-4.309 0-6.547 0-2.92 0-5.926 0-8.809 0-5.906 0-11.36.173-16.944-.096-.162-10.153-.096-21.555-.096-32.011 0-.65-.039-1.353.192-1.974 1.172-.002 2.683.327 3.996.481 3.746.439 7.18 1.408 10.012 2.695 3.928 1.785 7.396 4.171 10.109 6.884 2.837 2.838 5.224 6.152 6.932 10.06 1.718 3.933 3.149 8.507 3.032 13.817z"/><path d="m70.142 69.854c-8.398.072-16.971.097-25.32.097-2.829 0-5.673.11-8.424-.145-.144-5.294 1.03-10.021 2.792-13.815 3.539-7.615 9.128-13.422 16.751-16.848 3.051-1.371 5.86-2.346 9.676-2.889 1.23-.175 2.498-.18 3.851-.337.416-.048.616-.188.722.53.142.964.017 2.338.048 3.129.176 4.395.001 8.877 0 13.141 0 2.975.001 5.905 0 8.761 0 2.965.113 5.816-.096 8.376z"/><path d="m34.184 36.254c.142 11.392.189 22.695.048 33.552-2.696.265-5.267-.236-7.605-.771-4.604-1.052-8.49-2.804-11.89-5.15-6.696-4.622-11.543-11.032-13.911-20.169-.306-1.18-.526-2.373-.626-3.658-.095-1.216-.337-2.477-.096-3.755.769-.259 1.601-.145 2.407-.145.804 0 1.635-.049 2.455-.048 3.32.001 6.637-.001 9.916 0 5.296.001 10.478-.002 15.885 0 1.145.001 2.317-.111 3.417.144z"/></g></svg>