<svg enable-background="new 0 0 53.879 71.622" viewBox="0 0 53.879 71.622" xmlns="http://www.w3.org/2000/svg"><path clip-rule="evenodd" d="m53.615.105c.281 1.204.049 2.582.09 3.939.043 1.33.166 2.714-.09 3.892-6.672.304-13.383-.112-19.602.184-3.06.146-5.658.912-8.15 1.786-2.418.848-4.619 2.09-6.457 3.434-4.764 3.484-8.449 8.073-10.304 14.563-.719 2.515-1.054 5.599-.962 8.93.042 1.51.172 3.057.641 4.305.62-2.396 1.045-4.641 1.924-6.687.863-2.01 1.875-3.811 3.068-5.495 2.317-3.27 5.426-6.092 9.158-7.968 3.846-1.933 8.119-3.114 14.014-3.114 5.582.001 11.142-.101 16.715.046.166 1.899.092 4.22.092 6.319 0 .679.105 1.394-.137 1.97-4.928.177-10.094.062-15.021.137-2.549.039-5.137-.109-7.234.413-2.01.499-3.652 1.302-5.312 2.289-3.168 1.884-5.648 4.536-7.281 7.968-1.365 2.866-2.262 7.087-1.467 11.266.088.456.201 1.014.551 1.328.346-.204.328-.649.412-.962 1.396-5.226 4.775-8.892 9.066-11.311 2.391-1.348 5.379-2.152 8.748-2.152 5.123-.001 8.857 2.061 11.676 4.625 2.723 2.476 5.223 5.928 5.863 10.441.473 3.338.064 7.042.229 10.67.078 1.739 0 3.519 0 5.267 0 1.767-.004 3.524-.139 5.266-2.445.151-5.521.153-7.967 0-.176-4.301-.139-9.244-.137-14.105 0-2.591.154-4.945-.459-6.869-.6-1.883-1.676-3.131-2.885-4.396-1.293-1.188-2.945-1.98-4.992-2.335-2.178-.377-4.363.124-5.998 1.008-2.949 1.593-5.518 4.81-5.359 9.25.072 2.025.807 3.86 1.695 5.129.939 1.339 2.101 2.382 3.617 3.159 3.043 1.562 7.891.746 12.457 1.008.25 1.2.129 2.633.137 3.984.008 1.405.068 2.832-.092 4.121-.74.25-1.568.134-2.336.138-2.322.013-4.988.135-7.373.046-3.117-.117-6-.728-8.471-1.42-5.104-1.43-9.337-4.021-12.822-6.915-4.02-3.404-7.256-7.62-9.525-12.73-.756-1.7-1.323-3.494-1.924-5.449-1.205-3.927-1.51-8.898-1.099-13.28.408-4.348 1.665-8.333 3.251-11.541 3.311-6.694 8.05-11.64 14.242-15.387 4.559-2.757 10.281-4.66 17.311-4.809 6.34-.135 12.466-.008 18.638.044z" fill-rule="evenodd"/></svg>