<svg enable-background="new 0 0 67.315 66.953" viewBox="0 0 67.315 66.953" xmlns="http://www.w3.org/2000/svg"><g clip-rule="evenodd" fill-rule="evenodd"><path d="m35.52 1.986c4.045 4.049 8.421 8.298 12.525 12.623.259.272 1.681 1.369 1.706 1.852.033.617-1.06 1.31-1.511 1.706-.456.4-1.169 1.527-1.706 1.511-.297-.009-.497-.494-.828-.829-.812-.821-1.734-1.637-2.485-2.388-2.686-2.686-5.301-5.349-8.091-8.139-.391-.391-1.256-1.456-1.755-1.462-.439-.005-.986.743-1.364 1.121-6.2 6.202-12.414 12.457-18.618 18.667-1.721 1.833-3.938 3.814-5.8 5.8-.255.272-.726.652-.73.925-.005.364.517.641.779.926.832.901 1.675 1.695 2.486 2.534 4.653 4.547 9.249 9.103 13.841 13.744.436.44.907.767 1.268 1.218 1.463 1.835 3.414 3.271 5.02 4.971 1.066 1.159 2.071 2.38 3.412 3.266 1.028-.564 1.643-1.541 2.485-2.291 4.663-4.637 9.457-9.896 14.28-14.719.315-.315.671-.613 1.072-1.024.302-.308.719-.966 1.072-.975.545-.013 1.386 1.19 1.705 1.511.42.42 1.494 1.11 1.512 1.706.015.505-.849 1.238-1.219 1.608-1.416 1.415-2.847 2.841-4.191 4.191-3.691 3.765-7.303 7.611-10.966 11.405-1.175 1.28-2.777 2.776-4.192 4.191-.39.39-1.028 1.3-1.462 1.316-.415.016-.753-.518-1.023-.78-.358-.345-.589-.588-.878-.877-.6-.586-1.205-1.167-1.803-1.755-7.227-7.2-14.404-14.451-21.64-21.688-.512-.512-1.026-1.021-1.56-1.511-.536-.493-.909-1.137-1.56-1.511-.301.397-.232.997-.244 1.462-.187 7.952.327 17.247-.047 25.297-1.456.025-3.478.198-4.776-.097-.177-5.117-.098-10.629-.097-16.132 0-3.867-.049-7.935-.049-11.94 0-1.302-.228-3.022.049-3.997.2-.707 1.462-1.609 1.997-2.144 2.123-2.122 3.983-4.208 6.19-6.238 8.228-8.343 16.559-16.583 24.759-24.954.626-.341.947.424 1.413.877.419.405.909.674 1.024 1.023z"/><path d="m67.151 33.178c.174 2.482.146 5.09.146 7.749-.001 8.006.081 16.544-.098 24.418-1.404.219-3.423.172-4.923 0-.327-8.581.143-18.308-.243-27.196-.994-.244-2.087-.098-3.168-.097-6.742.001-14.017-.16-20.665 0-1.081.026-2.158.145-3.168-.098-.206-.686-.053-1.551-.049-2.388.005-.817-.174-1.674.098-2.291 2.93-.471 6.226.127 9.261-.146.074-.007.086-.047.146-.049 3.684-.097 7.5 0 11.308 0 3.837.001 7.689-.051 11.355.098z"/></g></svg>