<svg enable-background="new 0 0 67.097 75.739" viewBox="0 0 67.097 75.739" xmlns="http://www.w3.org/2000/svg"><g clip-rule="evenodd" fill-rule="evenodd"><path d="m36.975.053c3.409-.354 6.022 1.102 7.695 2.775 1.623 1.623 3.292 4.647 2.88 8.115-.552 4.64-3.862 8.163-8.429 8.743-2.898.368-5.789-.639-7.644-2.304-1.764-1.582-3.162-3.822-3.403-6.754-.15-1.826.419-3.854 1.047-5.13 1.055-2.143 3.106-4.144 5.707-5.026.623-.211 1.394-.34 2.147-.419z"/><path d="m17.133 8.064c1.926-.151 3.843.191 5.13.785 1.368.631 2.759 1.739 3.665 2.984 1.075 1.478 2.031 3.795 1.885 6.544-.279 5.223-4.466 9.307-9.79 9.319-4.058.009-6.966-2.476-8.534-5.288-1.034-1.855-1.571-5.276-.681-7.905.84-2.479 2.839-4.606 5.341-5.654.912-.383 1.876-.699 2.984-.785z"/><path d="m56.555 8.43c1.549-.157 3.222.168 4.345.628 1.786.732 3.297 2.092 4.398 3.612 1.12 1.547 1.936 3.576 1.779 6.23-.191 3.253-1.938 5.844-4.188 7.434-2.731 1.931-6.878 2.332-10.262.628-1.959-.986-4.073-3.663-4.712-6.021-1.244-4.592.824-8.214 3.351-10.366 1.298-1.103 2.938-1.907 5.289-2.145z"/><path d="m8.913 27.853c4.197-.411 6.926 1.687 8.69 4.031.988 1.313 1.87 3.507 1.885 5.654.021 3.125-1.3 5.332-2.932 6.963-1.779 1.779-4.158 2.869-7.016 2.879-3.86.014-6.878-2.371-8.324-5.13-.8-1.526-1.426-3.407-1.151-5.969.251-2.351 1.675-4.469 3.141-5.811 1.291-1.181 3.371-2.388 5.707-2.617z"/><path d="m31.478 30.314c1.517-1.308 3.369-2.176 5.968-2.303 2.404-.119 4.177.827 5.55 1.728 2.916 1.913 5.507 6.38 4.031 11.046-.89 2.81-3.17 5.23-5.864 6.334-2.201.903-5.306.782-7.538-.209-1.891-.839-3.72-2.562-4.712-4.503-1.013-1.979-1.471-4.767-.733-7.329.589-2.047 1.647-3.355 3.298-4.764z"/><path d="m10.012 51.307c1.74-1.887 3.713-3.558 7.016-3.769 3.554-.228 5.825 1.151 7.487 2.722 1.606 1.519 3.017 4.029 3.036 7.12.021 3.476-1.646 6.258-4.084 8.01-2.339 1.681-6.188 2.552-9.476 1.204-1.955-.801-3.651-2.366-4.712-4.188-.76-1.304-1.337-3.002-1.257-5.183.096-2.611.75-4.334 1.99-5.916z"/><path d="m56.817 47.957c2.748-.215 5.483 1.308 6.857 2.513 2.222 1.948 4.09 5.774 3.037 9.895-.715 2.795-2.716 5.188-5.078 6.335-2.839 1.379-6.742 1.334-9.633-.471-2.896-1.808-5.442-6.048-4.346-10.68.331-1.398 1.01-2.689 1.675-3.612.718-.994 1.697-1.959 2.671-2.565 1.3-.811 2.69-1.249 4.817-1.415z"/><path d="m36.608 56.124c2.787-.218 4.741.594 6.335 1.728 1.723 1.225 2.794 2.449 3.612 4.397.481 1.146.645 1.928.681 3.403.092 3.702-1.529 6.41-3.77 8.115-2.945 2.241-7.553 2.689-10.941.732-2.634-1.52-5.204-4.618-5.026-9.214.087-2.23 1.068-4.292 2.146-5.549 1.661-1.937 3.712-3.358 6.963-3.612z"/></g></svg>