<svg enable-background="new 0 0 18.369 12.14" viewBox="0 0 18.369 12.14" xmlns="http://www.w3.org/2000/svg"><path d="m4.476.247c.532-.145 1.084-.226 1.636-.218-.012 4.033-.004 8.066-.004 12.099-.861-.011-1.725-.177-2.511-.538-1.681-.739-2.996-2.283-3.423-4.074-.276-1.118-.223-2.316.155-3.405.631-1.866 2.24-3.367 4.147-3.864z"/><path d="m12.3 0c.716 1.493 1.48 2.964 2.212 4.448 1.296 2.558 2.563 5.131 3.856 7.691-2.481-.012-4.961-.002-7.442-.005-1.572.003-3.143-.007-4.715.005.414-.824.825-1.649 1.234-2.476.455-.873.886-1.757 1.325-2.638 1.183-2.338 2.338-4.691 3.53-7.025z"/></svg>