<svg enable-background="new 0 0 74.985 52.6" viewBox="0 0 74.985 52.6" xmlns="http://www.w3.org/2000/svg"><g clip-rule="evenodd" fill-rule="evenodd"><path d="m55.629 19.834c.953-.918 1.944-1.479 3.326-1.915 1.174-.371 3.401-.674 4.637-.102 1.718.796 1.569 3.333-.05 4.033-1.22.526-2.653.114-3.831.605-1.412.587-2.113 1.813-2.974 3.326-1.267 2.226-2.538 4.332-3.83 6.552-1.921 3.3-3.519 6.777-5.746 9.778-2.953 3.978-6.887 6.894-11.896 8.82-2.46.946-5.316 1.597-8.669 1.663-6.663.133-11.776-2.194-15.726-4.989-1.948-1.38-3.735-3.205-5.241-5.142-2.976-3.827-5.222-8.811-5.595-15.12-.184-3.108.368-6.403 1.209-9.123.805-2.599 2.08-4.909 3.428-6.955 1.316-1.998 3.126-3.661 4.99-5.343 4.866-4.391 13.648-7.373 22.63-5.191 1.072.261 2.086.561 3.176.958 1.38.502 3.069 1.023 3.125 2.722.038 1.175-.903 2.069-1.865 2.167-1.301.133-2.771-.829-3.78-1.159-3.748-1.226-8.884-1.356-12.902-.202-3.75 1.076-6.936 3.004-9.375 5.444-.774.774-1.463 1.749-2.168 2.722-2.705 3.729-4.775 9.165-3.931 15.523.556 4.186 2.127 7.771 4.284 10.534.723.926 1.392 1.919 2.218 2.671 3.438 3.131 7.697 5.537 13.76 5.998 6.303.48 11.477-1.943 14.919-4.687 1.881-1.499 3.435-3.153 4.737-5.141 1.281-1.953 2.418-4.092 3.68-6.2.617-1.03 1.163-2.126 1.764-3.175.608-1.062 1.162-2.133 1.765-3.176 1.191-2.061 2.137-4.341 3.931-5.896z"/><path d="m33.905 21.649c2.95-5.007 5.955-10.098 8.921-15.222 1.785-3.083 3.653-5.939 8.115-6.3 1.615-.131 4.125-.037 5.745 0 1.791.04 3.696-.001 5.746 0 2.652 0 5.725.124 8.468 0 2.223-.102 4.153.206 4.082 2.318-.096 2.863-4.662 2.116-7.56 2.116-4.226.001-8.086-.051-12.651-.05-2.345.001-4.324-.149-5.695.807-.396.275-.646.53-.907.856-.797.994-1.454 2.279-2.117 3.478-3.381 6.108-6.683 11.517-10.181 17.691-1.993 3.518-3.895 7.482-8.922 7.812-1.686.11-3.462-.227-4.688-.856-3.37-1.733-6.278-6.181-4.385-11.24.567-1.515 1.502-2.67 2.218-3.326.804-.737 2.074-1.55 3.579-2.017 2.157-.669 6.565-.807 5.947 2.521-.182.979-.845 1.498-1.613 1.713-.852.24-2.013-.063-2.923.152-1.788.424-3.482 2.204-3.226 4.687.301 2.917 4.251 5.151 7.107 2.822 1.197-.976 1.793-2.563 2.57-3.881.827-1.397 1.481-2.415 2.37-4.081z"/><path d="m25.135 8.645c1.583-.109 3.812.081 5.545.504 1.476.36 3.289.973 3.478 2.521.169 1.391-.645 2.277-1.765 2.47-.635.109-1.176-.112-1.713-.303-1.376-.486-3.417-.867-5.494-.756-2.526.136-4.571 1.023-6.25 2.116-1.782 1.163-2.956 2.384-4.082 4.285-.956 1.611-1.849 3.859-1.865 6.451-.033 5.091 2.31 8.845 5.645 11.088 1.647 1.107 3.613 2.043 6.049 2.318 2.508.285 4.963-.113 7.006-1.108 1.752-.854 3.344-1.982 4.737-3.629.63-.743 1.095-1.673 1.613-2.57 2.458-4.258 5.293-8.833 7.661-13.205.914-1.688 2.058-3.56 3.074-5.293 1.582-2.697 3.668-4.686 7.712-4.838 1.357-.051 2.728.068 4.133.05 1.272-.016 2.369-.045 3.881 0 2.615.079 5.055-.361 5.443 2.017.175 1.068-.655 1.979-1.36 2.267-.746.305-2.019.154-3.075.202-1.108.05-2.272-.016-3.275 0-2.899.044-6.061-.433-7.813.504-1.435.767-2.692 3.022-3.377 4.637-.37.873-.931 1.705-1.411 2.57-2.354 4.233-4.946 8.437-7.309 12.601-2.055 3.623-4.062 6.306-7.711 8.216-1.618.847-3.598 1.688-5.948 2.017-2.309.322-4.948.129-7.157-.505-4.048-1.16-7.208-3.448-9.476-6.501-2.269-3.058-3.622-7.394-3.175-12.45.105-1.195.347-2.294.655-3.326.305-1.021.606-2.01 1.059-2.924.886-1.791 2.085-3.194 3.427-4.536 2.574-2.576 6.241-4.552 11.138-4.89z"/></g></svg>