<svg enable-background="new 0 0 70.973 67.591" viewBox="0 0 70.973 67.591" xmlns="http://www.w3.org/2000/svg"><g clip-rule="evenodd" fill-rule="evenodd"><path d="m46.207 35.818c-.001-.047-.059-.037-.096-.048-.847-.449-.502-1.535-.771-2.313-.607-1.759-2.635-2.663-4.24-3.517-1.723-.916-3.344-1.91-4.529-3.18-1.316-1.411-2.097-2.943-2.65-5.108-.553-2.164-.307-4.764.145-6.89.885-4.171 2.819-7.446 5.493-9.973 2.036-1.925 4.376-3.292 7.372-4.192 5.443-1.635 11.65.348 15.129 2.746 3.034 2.092 5.098 4.815 6.697 8.383 1.588 3.543 2.612 7.952 2.072 12.624-.535 4.632-1.769 8.09-3.373 11.708-1.567 3.535-3.282 6.83-5.011 10.07-1.73 3.244-3.749 6.25-5.686 9.396-1.862 3.025-3.984 6.045-6.408 8.672-1.686 1.827-4.319 3.608-7.805 3.373-1.116-.075-1.923-.509-2.795-.964-3.324-1.734-4.929-5.228-5.203-9.877-.145-2.443.108-4.708.578-6.793.957-4.25 3.167-6.737 6.119-8.962 1.45-1.093 3.204-1.734 4.963-2.554 3.568-1.663 6.775-3.073 9.154-5.878 2.3-2.711 3.955-6.164 4.336-10.744.103-1.236.271-2.395.193-3.518-.379-5.438-2.592-10.346-7.324-11.515-2.208-.545-4.606-.049-6.264.867-1.577.872-2.735 2.181-3.566 3.951-.754 1.608-1.566 4.305-.578 6.312.513 1.043 1.282 1.641 2.168 2.12.996.539 2.038.676 3.324.916 2.322.433 3.995 1.583 4.481 3.999.535 2.662-.451 5.324-1.349 6.986-.499.923-1.117 1.695-1.831 2.409-.694.696-1.39 1.421-2.745 1.494z"/><path d="m24.477 3.489c.199 10.169.193 20.74.193 31.318 0 10.609.094 21.234-.096 31.463-6.077.2-12.09.095-18.357.096-2.041.001-4.083.106-6.022-.096-.14-7.918-.145-15.983-.144-23.657 0-2.565.166-5.251.048-7.854-.224-4.923.105-10.459-.048-15.948-.125-4.402.036-8.989-.051-13.732-.004-.245.024-.715.048-.964.09-.946.208-.681.723-.723 2.042-.166 4.065 0 6.023 0 5.801 0 11.657-.068 17.683.097z"/><path d="m31.8 27.82c2.959-.272 5.128 1.307 6.311 3.036.497.726 1.063 2.024 1.156 3.083.288 3.27-1.5 5.764-3.517 6.89-1.651.921-3.803 1.176-5.733.482-2.387-.859-4.835-3.317-4.625-6.89.158-2.684 1.548-4.597 3.325-5.685.792-.486 1.806-.798 3.083-.916z"/></g></svg>