<svg enable-background="new 0 0 76.02 76.241" viewBox="0 0 76.02 76.241" xmlns="http://www.w3.org/2000/svg"><path clip-rule="evenodd" d="m24.035 38.785c-.278.779-.046 1.623.094 2.353.964 5.008 4.279 8.668 8.519 10.355 2.723 1.082 6.265 1.312 9.132.377 2.736-.895 4.932-2.291 6.543-4.236.485-.555.903-1.154 1.318-1.789.404-.619.702-1.312 1.177-1.883 6.829-.027 14.23-.002 21.511 0 .985 0 2.034-.178 2.871.234.139.979-.227 1.934-.47 2.824-.747 2.727-1.579 5.281-2.777 7.578-.806 1.545-1.536 3.074-2.495 4.426-4.672 6.582-10.923 12.221-19.394 15.062-1.768.594-3.514 1.076-5.413 1.506-1.897.43-4.016.51-6.167.611-3.231.154-6.513-.195-9.32-.846-2.762-.641-5.209-1.592-7.673-2.684-4.716-2.09-8.669-5.246-11.909-8.756-2.282-2.473-3.859-5.367-5.46-8.379-1.229-2.309-2.166-4.762-2.824-7.531-.214-.9-.374-1.851-.612-2.824-.966-3.955-.802-8.537-.186-12.566.912-5.959 3.081-10.707 5.79-14.92.243-.379.376-.769.612-1.131 2.423-3.705 5.67-7.006 9.367-9.555 5.518-3.805 12.044-6.424 20.617-6.967 2.184-.139 5.084.064 7.061.377 3.402.539 6.671 1.57 9.461 2.682 2.207.881 4.336 2.234 6.26 3.484 1.989 1.291 3.746 2.898 5.272 4.424 2.474 2.475 4.504 5.152 6.26 8.332 2.562 4.635 4.463 9.98 4.802 17.088.035.734.053 1.84-.283 2.117-.444.367-2.116.188-3.106.189-15.284.006-30.322-.096-45.471-.096-1.039.001-2.094-.108-3.107.144zm43.824-.801c1.782 0 3.198.033 4.942 0 .719-.014 2.037.133 2.354-.189.546-.553.036-3.645-.047-4.283-1.274-9.771-5.534-16.855-10.874-22.217-4.809-4.623-10.669-8.168-18.546-9.791-2.655-.547-5.857-.93-8.802-.754-7.269.437-13.15 2.43-18.076 5.461-2.394 1.475-4.667 3.162-6.637 5.131-1.98 1.979-3.851 4.137-5.319 6.496-.369.592-.631 1.246-1.035 1.883-1.133 1.783-2.046 3.984-2.777 6.072-1.043 2.978-1.83 6.08-2.071 9.744-.243 3.68.01 7.529.706 10.873.348 1.67.776 3.178 1.224 4.66.438 1.449 1.145 2.805 1.789 4.143.636 1.32 1.367 2.568 2.071 3.812.684 1.209 1.626 2.316 2.495 3.389 5.196 6.418 12.978 11.078 22.641 12.709 2.67.451 5.436.619 8.285.424.883-.06 1.729-.275 2.589-.377 3.423-.404 6.537-1.447 9.273-2.541 5.634-2.254 9.87-5.691 13.698-9.885 3.601-3.969 6.591-9.186 8.237-15.346.172-.644.809-2.172.424-2.684-.315-.416-1.626-.258-2.166-.234-2.502.105-5.189-.252-7.437.047-.047 0-.056.037-.094.047-.348.459-.358 1.045-.518 1.553-1.173 3.732-3.016 6.703-5.178 9.414-3.038 3.811-7.178 6.914-12.191 8.662-1.051.365-2.124.771-3.201.988-2.432.488-4.997.689-7.531.611-2.542-.078-4.925-.633-7.014-1.318-6.239-2.045-10.806-5.881-14.215-10.826-2.273-3.295-3.9-7.578-4.331-12.379-.497-5.545.566-10.252 2.307-14.074 1.758-3.861 4.152-6.959 7.013-9.697 3.545-3.055 7.842-5.539 13.415-6.59 2.964-.559 6.306-.688 9.226-.141 8.331 1.559 14.102 5.971 18.217 11.814 2.808 3.988 4.493 9.037 4.801 15.252.676.252 1.526.141 2.353.141zm-20.382-10.026c-.699-.641-1.503-1.164-2.212-1.789-2.201-1.205-4.726-2.182-8.049-2.025-4.224.199-7.782 2.373-9.885 4.803-.311.359-.788.738-.706 1.27 6.822.242 13.948.142 20.806.142.598 0 1.239.109 1.789-.142-.373-.923-1.063-1.636-1.743-2.259z" fill-rule="evenodd"/></svg>