<svg clip-rule="evenodd" fill-rule="evenodd" stroke-linejoin="round" stroke-miterlimit="2" viewBox="0 0 560 400" xmlns="http://www.w3.org/2000/svg"><path d="m206.3 350.7c0-57 46.2-103.1 103.1-103.1 57 0 103.1 46.2 103.1 103.1v185.7h-41.3v-206.3h-123.7v206.3h-41.3v-185.7zm31.2-243.6c29.8 7.8 55.3 26.4 71.9 51.4 16.6-25 42.1-43.6 71.9-51.4-3.2-36.9-34.2-65.9-71.9-65.9-37.7.1-68.7 29-71.9 65.9zm-196.2 470.5h-41.3v-464.1c0-62.7 50.8-113.5 113.5-113.5 41.8 0 78.3 22.6 98 56.2 19.6-33.6 56.1-56.2 97.9-56.2s78.3 22.6 98 56.2c19.7-33.6 56.2-56.2 98-56.2 62.6 0 113.4 50.8 113.4 113.5v464.1h-41.3v-464.1c0-39.9-32.3-72.2-72.2-72.2-37 0-67.5 27.8-71.7 63.7 58.3 10 102.6 60.8 102.6 122v350.7h-41.3v-350.8c0-45.6-36.9-82.5-82.5-82.5-39.1 0-71.8 27.2-80.4 63.7 68.9 10.9 121.6 70.6 121.6 142.6v226.9h-123.5v-206.3h-41.3v206.3h-123.8v-226.9c0-72 52.7-131.7 121.6-142.6-8.5-36.5-41.3-63.7-80.4-63.7-45.6 0-82.5 36.9-82.5 82.5v350.7h-41.2v-350.7c0-61.2 44.4-111.9 102.6-122-4.2-35.9-34.7-63.7-71.7-63.7-39.9 0-72.2 32.3-72.2 72.2v464.2z" transform="matrix(.3462 0 0 .3462 172.886 100)"/></svg>