<svg enable-background="new 0 0 84.109 59.455" viewBox="0 0 84.109 59.455" xmlns="http://www.w3.org/2000/svg"><g clip-rule="evenodd" fill-rule="evenodd"><path d="m75.018.05c3.304-.324 5.212.967 6.717 2.571 1.497 1.598 2.777 3.879 2.255 7.189-.616 3.921-4.074 7.234-8.291 7.189-3.838-.041-6.699-2.724-7.766-5.667-1.845-5.089 1.354-9.524 5.143-10.863.556-.196 1.116-.338 1.942-.419z"/><path d="m23.696 20.778c.191 1.836.105 3.915.105 5.93.001 1.998.118 3.985-.105 5.667-2.767.162-5.241-.067-7.084.787-1.793.832-3.087 2.158-3.831 4.093-1.844 4.798 1.368 8.774 5.09 9.708 2.47.62 5.229.095 6.718-.787 1.649-.977 2.93-2.592 3.411-4.513.309-1.239.218-2.484.314-3.673.298-3.673 1.067-6.7 2.676-9.183 1.945-3.003 4.95-5.908 8.658-7.189 2.096-.724 4.371-1.087 6.928-.892 4.869.371 8.071 2.404 10.757 5.09 2.626 2.627 4.61 6.052 5.038 10.81.115 1.286.015 2.599.052 3.936.046 1.646-.142 3.623.473 4.88.624 1.276 1.954 2.236 3.516 2.046 1.429-.174 2.56-1.23 2.938-2.571.439-1.554.21-3.672.211-5.562 0-5.582-.09-11.798.104-17.002 3.784-.162 8.006-.242 11.701-.052.155 5.823.156 11.429.158 17.212 0 1.949.084 3.898 0 5.825-.115 2.621-1.082 4.766-2.047 6.717-.308.623-.768 1.151-1.207 1.679-1.834 2.205-4.1 3.767-6.821 4.828-2.99 1.165-6.992 1.147-9.971.21-5.826-1.833-9.678-6-11.02-12.279-.339-1.585-.372-3.404-.42-5.405-.044-1.826.151-3.954-.367-5.458-.647-1.876-2.863-3.527-5.457-2.886-1.217.301-2.249 1.194-2.887 2.309-.877 1.535-.821 4.511-.997 6.77-.176 2.247-.867 4.455-1.627 6.087-1.611 3.465-3.997 6.298-7.188 8.291-3.323 2.075-7.367 3.017-12.646 2.833-4.892-.169-8.569-1.668-11.492-3.935-2.829-2.194-5.101-5.354-6.35-9.131-.674-2.035-1.155-4.315-.997-6.664.156-2.331.616-4.384 1.364-6.35 1.496-3.931 3.793-6.458 6.769-8.711 2.191-1.658 4.917-2.925 8.187-3.411 2.295-.343 4.906-.169 7.346-.054z"/></g></svg>