<svg enable-background="new 0 0 81.396 81.814" viewBox="0 0 81.396 81.814" xmlns="http://www.w3.org/2000/svg"><g clip-rule="evenodd" fill-rule="evenodd"><path d="m81.236.128c.198 27.174.209 54.48.051 81.463-3.336.219-6.73.229-10.106.152-9.875-.219-20.213.049-30.422.051-13.573.002-27.232.086-40.58-.102-.272-1.65-.152-3.354-.152-5.027 0-24.414-.085-51.307.101-76.437 5.283-.348 10.652.086 16.049-.1 5.322-.184 10.709-.051 16.1-.051 8.113 0 16.278-.051 24.48-.053 5.588 0 10.85.002 16.455 0 2.744 0 5.456-.099 8.024.104zm-26.917 1.523c-16.542.002-32.377.051-48.961.051-1.209-.002-2.462-.125-3.656.153-.159 24.961-.103 49.234-.101 73.439 0 1.602-.121 3.238.152 4.824 1.515.229 3.076.152 4.622.152 4.967 0 9.807-.051 14.728-.051 19.404-.002 39.354-.047 58.508-.152.269-.729.152-1.539.152-2.285-.002-23.736.002-47.77 0-71.256 0-1.684.123-3.305-.152-4.773-8.281-.262-16.828-.104-25.292-.102z"/><path d="m46.243 52.591c1.195.275 2.461.152 3.708.152 8.805 0 17.939-.109 26.562.102-.018.879-.445 1.717-.763 2.488-3.488 8.473-9.389 15.273-17.318 19.352-2.948 1.516-6.12 2.604-9.803 3.504-7.854 1.918-16.571.383-22.702-2.133-1.514-.621-3-1.445-4.418-2.285-4.181-2.477-7.787-5.588-10.615-9.346-3.901-5.182-6.777-10.926-7.821-18.842-1.129-8.566.983-16.504 3.962-22.094 4.566-8.572 11.529-15.143 21.433-18.588 3.382-1.176 6.975-1.832 11.274-2.031 5.262-.246 10.212.885 13.968 2.234 5.957 2.141 10.701 5.416 14.575 9.498.647.682 1.3 1.363 1.88 2.133.555.736 1.049 1.566 1.625 2.387 1.884 2.68 3.539 5.721 4.724 9.344.178.547.493 1.209.456 1.525-.057.494-1.253 1.199-1.777 1.574-9.133 6.518-18.06 13.014-27.121 19.553-.617.446-1.395.781-1.829 1.473zm-15.795-17.115c-.936 1.785-1.545 4.307-1.269 6.652.268 2.281 1.104 4.262 2.234 5.791 1.395 1.885 3.729 3.512 6.196 4.164 2.962.785 6.107.359 8.583-1.016 4.033-2.238 7.649-7.465 5.435-14.018-.842-2.49-2.046-3.953-4.012-5.434-1.812-1.363-4.146-2.336-7.161-2.285-4.949.081-8.382 3.048-10.006 6.146z"/></g></svg>