<svg fill="none" viewBox="0 0 130 59" xmlns="http://www.w3.org/2000/svg"><path clip-rule="evenodd" d="m57.6057.149433c-12.6335 1.552757-21.651 7.040177-25.9761 15.807467-.9254 1.8761-2.0209 5.1896-2.2255 6.7305-.0794.5995-.2122 1.0899-.2952 1.0899-.0828 0-.2686-.4038-.4128-.8972-.3665-1.253-1.7399-3.7615-2.8477-5.2007-4.3844-5.6966-11.2116-8.34092-19.70888-7.6334-3.88063.323-4.77963.5379-5.416412 1.2946-.966356 1.1481-.964034 3.4832.006334 6.5598 1.232168 3.9062 2.660698 6.2002 5.762668 9.2543l2.25131 2.2164-2.18628 2.0988c-2.40882 2.3127-3.89245 4.3773-4.92574 6.8551-1.491019 3.5754-1.984647 6.5078-1.367294 8.1237.196565.5148.579769 1.0818.851494 1.2597.92202.6039 3.25948.8716 7.61283.8716 3.68617 0 4.46397-.0608 6.12287-.4779 3.9769-.9999 8.3087-3.7054 10.6447-6.648 1.1581-1.4588 2.848-4.5094 3.2711-5.9047l.2732-.9011.1581.8443c.9379 5.0074 2.8902 9.3106 5.7452 12.6629 5.0355 5.9132 13.2779 9.6442 23.585 10.676 3.327.3328 12.3399.1448 15.3344-.3203 15.3082-2.377 24.164-9.536 26.779-21.6476l.387-1.7932.275.8444c1.157 3.5441 4.126 7.3291 7.491 9.5466 3.383 2.2291 6.634 3.198 11.306 3.3696 3.658.1342 7.793-.3185 8.653-.9472 1.358-.994 1.582-2.7728.757-6.0223-1.154-4.5493-3.291-7.8913-7.357-11.5068l-1.008-.8964.692-.5698c3.992-3.29 6.487-7.1218 7.669-11.7818.812-3.1984.63-4.9551-.613-5.9328-1.044-.8207-6.936-1.34274-10.587-.9381-4.954.549-8.586 2.1529-11.957 5.2812-2.377 2.2057-4.203 4.9274-5.042 7.5151l-.272.8378-.476-2.1043c-2.7222-12.05075-11.4614-18.95626-27.0137-21.346188-2.5047-.3848117-13.4916-.570989-15.9406-.269979zm12.2981 12.070767c.0534.1453.0059 3.06-.1058 6.4773-.1879 5.7506-.1763 6.2329.1569 6.4763.1978.1448.4814.2166.6296.1596.2441-.0935 2.6301-2.692 9.3129-10.1423 1.4163-1.5792 2.4681-2.5776 2.7276-2.5894.5561-.0256 6.6813 6.2064 6.5181 6.6315-.0627.1636-3.0019 2.3589-6.5314 4.8788-3.5295 2.5198-6.4731 4.7577-6.5415 4.9731-.2392.7531.1298 1.1407 2.3826 2.5024 8.0165 4.8455 11.3579 6.957 11.4092 7.2093.0321.1583-.4904.9078-1.1612 1.6658-.6708.7578-1.8343 2.1107-2.5858 3.0061-.7512.8957-1.5199 1.6284-1.7082 1.6284-.1884 0-3.3427-2.7952-7.0099-6.2117-5.2236-4.8666-6.7592-6.1878-7.0917-6.1008-.2335.0612-.4656.2203-.5156.3542-.0503.1336.0224 3.1876.1611 6.7866.1389 3.5991.2107 6.6626.1596 6.8076-.1129.3206-9.8698.3871-10.0668.0686-.0663-.1074-.008-3.2077.1296-6.8895.2388-6.3894.2327-6.7066-.1338-6.9747-.2114-.1545-.511-.2098-.666-.1233-.1547.0868-3.1876 2.8621-6.7393 6.1676-3.5517 3.3054-6.6275 6.0383-6.8348 6.0731-.4679.0788-5.5587-5.7574-5.4616-6.2612.0688-.3574.933-.914 8.4772-5.4589 2.655-1.5995 4.9623-3.1102 5.1274-3.3572.235-.3516.2478-.5577.0595-.9499-.1326-.2763-3.0403-2.4946-6.4856-4.9479-3.4347-2.4458-6.3456-4.6065-6.4685-4.8013-.1868-.2962.2956-.8748 2.9417-3.5275 2.196-2.2014 3.2893-3.1553 3.5703-3.1146.2225.0325 2.935 2.8611 6.0272 6.286 4.2373 4.6931 5.7563 6.2429 6.1662 6.2912.3325.0393.5903-.0574.664-.2493.0661-.1727.0247-3.038-.0923-6.3674-.117-3.3295-.1619-6.1857-.1001-6.3472.1567-.408 9.5287-.4365 9.6792-.0294z" fill="#000" fill-rule="evenodd"/></svg>