<svg enable-background="new 0 0 77.906 66.547" viewBox="0 0 77.906 66.547" xmlns="http://www.w3.org/2000/svg"><path clip-rule="evenodd" d="m54.154 29.209c.434-.298.672-1.052 1-1.6.345-.576.628-1.212 1.049-1.649 2.155-2.802 5.266-5.055 10.247-4.898 1.494.047 2.807.446 4.049.95 4.313 1.748 7.916 6.211 7.347 12.646-.273 3.095-1.42 5.151-3.049 6.998-1.585 1.797-3.711 3.119-6.348 3.699-4.69 1.031-8.801-.898-11.146-3.349-.79-.826-1.559-1.819-2.149-2.849-.348-.606-.412-1.351-.95-1.849-.27 1.705-.15 3.504-.15 5.298 0 5.079.054 10.432-.05 15.895v.1c-.71.954-1.725 1.685-2.699 2.299-2.996 1.889-6.325 3.612-10.296 4.598-2.749.683-5.828 1.224-8.847 1-3.064-.227-5.785-.684-8.497-1.399-4.829-1.275-9.201-3.973-12.746-7.098-3.614-3.187-6.498-7.187-8.297-11.546-1.832-4.439-3.237-10.724-2.35-16.994.823-5.814 2.63-10.553 5.348-14.495 4.03-5.845 9.385-10.452 16.695-13.098 2.414-.873 5.35-1.626 8.297-1.799 9.33-.549 15.709 2.241 21.193 5.748.64.409 1.951 1.135 2.149 1.699.228.652.05 1.836.05 2.749 0 6.625-.08 12.795.15 18.944zm-1.649-3.799c-.403-1.169-.959-2.215-1.55-3.199-2.37-3.95-5.776-6.822-10.347-8.647-2.134-.852-5.362-1.484-8.247-1.35-4.478.208-7.731 1.403-10.596 3.349-2.792 1.895-5.173 4.32-6.747 7.197-1.652 3.021-2.952 6.831-2.749 11.096.211 4.428 1.37 7.69 3.249 10.696 1.751 2.801 4.13 5.162 7.097 6.848 2.975 1.69 6.914 2.945 11.146 2.799 6.447-.223 11.104-3.081 14.395-6.548 2.548-2.684 4.525-5.842 5.248-10.246-.366-.042-.438.623-.65.899-.53 1.136-1.146 2.186-1.999 2.999-1.888 2.157-4.195 3.633-7.548 4.099-3.591.499-6.728-.747-8.897-2.499-2.135-1.726-3.829-4.139-4.498-7.148-1.312-5.889 1.96-10.689 5.498-12.895 1.574-.981 3.133-1.688 5.348-1.899 4.577-.437 7.734 1.697 10.196 4.048.657.985 1.413 1.936 1.899 3.049.152.348.278.834.65 1.049.153-1.369-.506-2.556-.898-3.697zm-15.994 5.298c-.195.424-.434 1.089-.5 1.7-.208 1.929.606 3.877 1.5 4.948.913 1.094 2.843 1.875 4.499 1.75 2.887-.219 5.464-2.505 5.498-5.748.013-1.234-.224-2.339-.95-3.449-.913-1.397-2.783-2.667-5.198-2.499-2.607.181-4.008 1.469-4.849 3.298zm24.391-.399c-2.368 4.025.64 8.565 4.498 8.897 2.156.185 3.753-.802 4.698-1.799 1.002-1.056 1.708-2.893 1.5-4.849-.293-2.749-2.896-5.26-5.998-5.048-2.304.157-3.983 1.584-4.698 2.799z" fill-rule="evenodd"/></svg>