<svg enable-background="new 0 0 18.392 18.392" viewBox="0 0 18.392 18.392" xmlns="http://www.w3.org/2000/svg"><path d="m8.005.075c1.709-.218 3.483.039 5.047.771 1.03.473 1.961 1.15 2.755 1.956.972 1.026 1.729 2.267 2.147 3.622.22.711.367 1.449.4 2.193.064.611.024 1.227.035 1.841 0 2.643.001 5.287 0 7.93-2.708.002-5.416 0-8.123.001-1.019.012-2.048.002-3.046-.224-2.098-.451-4.024-1.671-5.321-3.379-1.148-1.48-1.821-3.324-1.888-5.196-.112-2.221.629-4.472 2.04-6.193.106-.163.263-.283.379-.439.216-.28.502-.492.757-.733 1.349-1.167 3.046-1.929 4.818-2.15zm-2.311 4.659c-.275.234-.57.455-.782.752-.476.524-.818 1.159-1.065 1.819-.196.581-.327 1.192-.313 1.807-.038 1.245.383 2.492 1.134 3.483.745 1 1.835 1.729 3.036 2.059-.023-.805-.003-1.611-.01-2.417.005-2.84-.01-5.68.008-8.52-.724.213-1.415.548-2.008 1.017zm4.995-1.013c.02.819.003 1.639.009 2.459-.004 2.823.009 5.647-.007 8.47.904-.259 1.754-.728 2.424-1.391 1.002-.95 1.629-2.286 1.72-3.663-.015-.417.036-.84-.049-1.252-.126-.85-.451-1.671-.943-2.376-.744-1.091-1.888-1.886-3.154-2.247z"/></svg>