<svg enable-background="new 0 0 81.471 79.211" viewBox="0 0 81.471 79.211" xmlns="http://www.w3.org/2000/svg"><g clip-rule="evenodd" fill-rule="evenodd"><path d="m70.466 63.984c5.006-5.85 8.663-13.102 9.815-22.936.06-.51-.041-1.367.65-1.502.791.127.487.954.451 1.352-.747 8.321-3.847 14.857-7.462 20.332-1.473 2.23-3.203 4.252-5.107 6.06-.633.6-1.318 1.133-1.953 1.753-2.526 2.466-5.696 4.367-8.864 5.959-6.246 3.14-15.59 5.327-24.889 3.605-2.123-.393-4.096-.835-5.959-1.452-5.433-1.798-10.075-4.764-13.922-8.313-5.131-4.736-9.268-10.548-11.516-18.179-.581-1.972-1.071-3.94-1.352-6.109-.578-4.464-.461-9.548.4-13.621 2.134-10.092 7.351-17.283 14.222-22.886 2.767-2.256 6.008-3.934 9.465-5.358 1.822-.751 3.648-1.301 5.658-1.753 3.388-.762 7.765-1.163 11.818-.802 4.701.419 8.754 1.761 12.37 3.455 7.2 3.375 12.324 8.678 16.125 15.524 1.244 2.241 2.436 4.801 3.154 7.411 1.495 5.431 1.955 12.747.451 18.729-1.38 5.488-3.819 10.267-6.961 14.172-.828 1.028-1.532 2.033-2.404 2.905-2.613 2.613-5.709 4.723-9.264 6.51-4.649 2.337-10.526 4.094-17.277 3.606-6.598-.477-11.471-2.292-15.975-5.108-4.357-2.724-7.854-6.272-10.517-10.616-2.634-4.297-4.702-9.427-5.008-16.075-.315-6.898 1.27-12.461 3.808-17.126 2.491-4.58 5.701-8.185 9.966-11.117 4.154-2.857 8.815-5.082 15.474-5.659 6.988-.606 12.915 1.203 17.178 3.706 5.512 3.237 9.741 7.674 12.669 13.721.282.583.595 1.203.802 1.853.851 2.679 1.543 5.376 1.803 8.713.077.994.209 2.082-.351 2.153-.73.093-.614-.63-.651-1.402-.099-2.069-.375-3.629-.65-5.508-.163-1.107-.603-2.247-.952-3.155-1.88-4.892-4.753-8.751-8.413-12.019-2.805-2.504-6.449-4.593-10.517-5.859-4.16-1.294-9.558-1.419-14.522-.601-4.32.712-8.275 2.815-11.367 5.008-3.244 2.3-5.959 4.913-8.163 8.213-3.209 4.807-5.493 11.077-5.107 19.33.114 2.463.628 4.762 1.252 6.911 2.442 8.415 7.228 14.548 14.021 18.729 3.372 2.075 7.403 3.688 11.919 4.456 3.689.628 7.764.465 11.217-.15 1.134-.202 2.207-.497 3.255-.802 8.472-2.461 14.53-7.225 18.83-13.921 2.023-3.151 4.062-7.076 4.958-11.418.936-4.538 1.228-9.899.25-14.773-.446-2.223-1.139-4.321-1.903-6.309-.742-1.93-1.649-3.851-2.704-5.458-1.09-1.663-2.124-3.381-3.405-4.808-1.281-1.426-2.538-2.88-4.056-4.106-3.092-2.497-6.415-4.421-10.417-5.959-3.865-1.486-8.677-2.392-14.071-2.153-5.034.222-9.492 1.341-13.271 3.104-3.759 1.754-7.166 3.754-9.965 6.41-5.608 5.317-10.067 11.832-11.923 20.782-1.039 5.015-.761 10.379.05 15.023.789 4.512 2.501 8.675 4.407 11.969 1.919 3.314 4.381 6.715 7.212 9.164 2.941 2.545 6.047 4.886 9.715 6.61 1.864.877 3.789 1.724 5.909 2.304 2.204.603 4.419 1.031 6.811 1.352 5.024.674 10.437.042 14.772-1.152 5.279-1.454 9.826-3.872 13.672-6.81 2.378-1.818 4.283-3.501 6.309-5.909z"/><path d="m64.807 14.607c2.61 3.279 4.598 6.82 6.109 11.118 1.48 4.206 2.246 9.462 1.604 15.073-.563 4.911-2.144 9.236-4.257 12.92-1.056 1.839-2.192 3.562-3.506 5.108-3.894 4.584-9.03 8.144-15.624 10.116-4.469 1.336-10.117 1.679-15.273.701-4.74-.898-8.611-2.821-12.019-5.158-3.34-2.29-6.11-5.458-8.312-8.864-2.231-3.448-3.889-7.868-4.507-12.669-.697-5.414.039-11.007 1.702-14.974 3.272-7.799 9.169-14.092 17.177-17.176 4.131-1.591 9.839-2.494 14.923-1.653 4.78.79 8.841 2.711 12.069 5.108 4.851 3.602 8.548 8.637 10.466 15.324.485 1.692.78 3.508.901 5.559.029.491.338 1.342-.3 1.703-.814-.007-.671-.909-.701-1.353-.648-9.408-4.895-15.613-10.616-20.081-4.322-3.374-10.873-6.173-18.83-5.409-7.369.707-12.422 3.664-16.877 7.662-2.938 2.636-5.292 5.936-6.86 9.515-1.67 3.808-2.64 8.26-2.254 13.921.341 5 1.731 9.018 3.706 12.62 1.84 3.354 4.479 6.492 7.512 8.864 4.626 3.618 10.176 6.308 17.928 6.661 2.47.112 5.062-.268 7.411-.751 4.353-.897 8.355-2.631 11.468-4.858 6.365-4.553 11.141-10.908 13.07-19.681 1-4.543.971-10.141-.05-14.723-.701-3.15-1.978-6.236-3.455-8.814-.491-.857-.888-1.789-1.452-2.604-3.248-4.686-7.765-8.783-13.271-11.317-3.589-1.653-8.201-3.155-13.221-3.156-2.698 0-5.079.148-7.562.601-4.541.829-8.344 2.503-11.719 4.607-6.545 4.08-11.877 10.11-14.823 17.928-1.505 3.995-2.338 8.775-2.152 14.123.173 5 1.443 9.383 3.105 13.221 3.339 7.71 8.598 13.034 15.524 17.227.815.493 1.777.913 2.754 1.352.952.427 1.843.926 2.855 1.252 3.954 1.272 8.828 2.516 14.071 2.153 7.534-.522 13.623-2.806 18.629-5.909 6.665-4.131 11.761-10.135 14.974-17.728 1.426-3.371 2.522-7.016 2.904-11.418.04-.458-.046-1.256.802-1.202.679.144.438.931.4 1.302-.767 7.698-3.599 14.223-7.161 19.23-2.002 2.813-4.14 5.318-6.661 7.462-2.538 2.159-5.377 3.982-8.513 5.559-6.02 3.027-14.834 4.879-23.637 3.255-7.559-1.394-13.906-4.771-18.829-9.314-4.806-4.435-8.701-10.31-10.767-17.427-1.094-3.77-1.668-8.158-1.503-12.569.167-4.443 1.232-8.16 2.504-11.568 1.228-3.291 3.053-6.306 5.108-9.014 4.019-5.296 9.457-9.451 16.125-12.018 1.756-.677 3.552-1.15 5.509-1.553 1.958-.403 4.208-.616 6.51-.701 6.402-.235 11.759 1.586 15.976 3.706 4.416 2.218 8.018 5.123 10.916 8.711z"/><path d="m76.475 39.546c.691.209.383 1.357.301 2.003-.64 5.07-2.275 9.56-4.256 13.221-2.354 4.348-5.29 8.141-8.764 11.168-2.497 1.927-5.188 3.659-8.113 5.158-3.815 1.776-8.115 3.008-13.221 3.405-5.397.419-10.362-.479-14.473-1.953-7.849-2.818-14.337-8.263-18.277-14.924-1.985-3.358-3.831-7.473-4.606-12.018-.849-4.972-.793-10.476.4-15.024 1.164-4.438 2.861-8.156 5.157-11.468 2.262-3.262 5.094-5.994 8.264-8.313 5.243-3.859 11.627-6.221 20.382-6.36 2.823-.045 5.491.569 7.861 1.252 6.984 2.011 12.508 5.959 16.376 10.917 1.897 2.247 3.212 4.657 4.407 7.562.379.921.785 1.848 1.102 2.854 1.278 4.063 1.886 8.968 1.252 14.072-.403 3.242-1.449 6.574-2.755 9.214-.446.904-.818 1.856-1.302 2.654-2.013 3.327-4.564 6.292-7.411 8.513-2.947 2.299-6.41 4.282-10.517 5.408-4.178 1.147-9.46 1.539-14.222.601-4.346-.856-7.969-2.6-11.067-4.857-3.098-2.256-5.617-4.958-7.662-8.263-2.007-3.242-3.669-7.182-4.206-11.719-1.254-10.569 2.626-18.355 7.861-23.486 4.042-3.96 8.987-7.011 15.976-7.912 7.822-1.009 14.245 1.515 18.679 4.807 4.476 3.324 8.058 8.018 9.665 14.222.264 1.018.501 2.074.651 3.355.11.946.52 3.237-.301 3.255-.576.013-.566-.806-.602-1.352-.272-4.285-1.302-7.521-2.904-10.416-1.777-3.21-4.249-6.079-7.11-8.163-4.159-3.029-10.307-5.615-17.878-4.607-6.675.889-11.454 3.59-15.374 7.512-2.638 2.638-4.692 5.512-6.109 9.114-1.474 3.747-2.171 8.273-1.603 13.17.512 4.417 1.976 8.13 3.906 11.317 3.815 6.3 9.788 10.997 17.627 12.87 4.366 1.043 9.561.767 13.571-.3 8.135-2.165 13.607-6.692 17.678-12.82 1.026-1.545 1.766-3.247 2.503-5.108.728-1.833 1.275-3.8 1.703-5.909.89-4.385.476-9.679-.65-13.621-1.159-4.057-2.595-7.357-4.908-10.316-4.588-5.867-10.25-10.169-18.479-12.019-6.646-1.494-14.555-.417-19.53 1.953-1.766.841-3.359 1.702-4.908 2.705-6.009 3.894-10.947 9.709-13.421 17.077-1.297 3.865-2.03 8.407-1.652 13.321.711 9.236 4.428 15.989 9.164 21.333 3.494 3.943 8.403 7.007 13.872 9.014 1.861.683 3.91 1.143 6.109 1.502 4.404.719 9.56.367 13.771-.651 6.17-1.493 10.928-4.321 15.073-7.812 1.388-1.169 2.544-2.445 3.756-3.856 4.269-4.972 7.659-11.737 8.563-20.031.048-.428-.091-1.253.651-1.251z"/></g></svg>