<svg enable-background="new 0 0 16.217 12.69" viewBox="0 0 16.217 12.69" xmlns="http://www.w3.org/2000/svg"><path d="m.058.004c1.24-.014 2.479.016 3.718.013.674 1.189 1.365 2.368 2.043 3.554.054.103.115.203.175.303.053.106.117.205.175.307.049.092.107.181.156.273.057.103.125.2.175.307.048.085.103.167.152.252.027.055.055.11.085.163.019-.117.015-.236.014-.355-.002-1.602 0-3.204.003-4.807.481-.007.963.012 1.444-.014 1.608 0 3.217-.001 4.825 0 .089-.013.119.09.16.148.048.108.114.206.174.307.89 1.548 1.784 3.096 2.676 4.644.021.052.058.101.053.161.001 1.49 0 2.98 0 4.47-.517.001-1.034-.001-1.551.001.03.085.074.165.116.245.051.084.104.167.151.253.049.092.109.179.156.273.057.102.124.2.175.307.049.085.103.167.151.252.31.542.626 1.081.932 1.625-1.27.01-2.541-.006-3.812-.01-.08.009-.12-.062-.144-.125-.06-.102-.124-.201-.175-.307-.06-.101-.123-.201-.176-.306-.111-.185-.215-.375-.326-.559-.053-.106-.118-.204-.175-.307-.05-.092-.108-.18-.157-.273-.048-.086-.101-.169-.15-.253-.05-.107-.117-.204-.175-.306-.047-.095-.109-.18-.157-.274-.474-.816-.95-1.631-1.409-2.455-.023 1.089-.003 2.18-.009 3.27-.029.629-.009 1.26-.015 1.89-2.109.026-4.22.016-6.331.018-.201-.353-.411-.701-.607-1.058-.06-.102-.124-.2-.175-.307-.051-.084-.103-.167-.153-.252-.052-.106-.115-.206-.175-.307-.053-.105-.116-.205-.175-.307-.054-.105-.118-.204-.175-.307-.049-.093-.107-.181-.156-.273-.053-.103-.118-.202-.173-.306-.049-.085-.101-.168-.15-.253-.052-.091-.109-.179-.156-.272-.114-.184-.213-.377-.327-.561-.05-.092-.106-.181-.155-.274-.059-.101-.121-.201-.175-.305-.078-.15-.202-.287-.238-.454-.003-1.768-.001-3.537-.001-5.305-.022-.697-.012-1.394-.01-2.09.014-.014.041-.041.054-.054zm4.329 5.215c-.006.743-.002 1.487-.002 2.23-.004.065.071.104.129.091.742-.01 1.487.017 2.228-.014.02-.769.003-1.54.008-2.309-.787.001-1.575-.004-2.363.002zm4.964.001c.001.754 0 1.508 0 2.262.794.002 1.588 0 2.382.001.005-.754 0-1.509.002-2.263-.794-.001-1.589-.001-2.384 0z"/></svg>