<svg enable-background="new 0 0 22.775 9.814" viewBox="0 0 22.775 9.814" xmlns="http://www.w3.org/2000/svg"><path d="m8.521.002c1.855-.003 3.711-.002 5.566-.001 2.902 1.629 5.788 3.286 8.688 4.92-1.375.76-2.732 1.549-4.102 2.317-.96.555-1.931 1.088-2.889 1.645-.567.295-1.103.659-1.681.928-1.851.003-3.703-.002-5.555.002-.116.011-.209-.074-.308-.12-2.749-1.546-5.489-3.11-8.24-4.652 1.551-.934 3.119-1.842 4.672-2.774 1.286-.749 2.558-1.525 3.849-2.265zm4.274.851c-2.31 1.367-4.619 2.733-6.932 4.094 1.593.919 3.18 1.848 4.769 2.773.39.204.751.459 1.142.662.774.452 1.547.908 2.326 1.352.009-.983.002-1.965.004-2.948-.008-.058.021-.145-.048-.175-.931-.564-1.849-1.147-2.784-1.704.948-.554 1.886-1.127 2.832-1.685 0-1.045 0-2.09 0-3.135-.447.237-.867.52-1.309.766z"/></svg>