<svg enable-background="new 0 0 64.052 64.14" viewBox="0 0 64.052 64.14" xmlns="http://www.w3.org/2000/svg"><g clip-rule="evenodd" fill-rule="evenodd"><path d="m31.42.069c.322.369.199.959.199 1.441 0 2.622.05 5.273.05 8.151 0 .891.236 2.669-.149 3.032-.273.257-1.342.192-2.038.298-7.249 1.104-11.896 4.977-14.861 10.389-.539.983-.96 2.09-1.342 3.231-.379 1.134-.435 2.38-.944 3.628-3.003.133-6.283.016-9.345 0-1.018-.005-2.063.123-2.981-.149-.079-2.267.422-4.478.944-6.511.5-1.946 1.27-3.851 2.088-5.517 1.656-3.37 3.857-6.504 6.412-8.848 2.694-2.473 5.39-4.681 9.045-6.213 1.823-.765 3.644-1.468 5.666-1.988 2.077-.533 4.216-.716 6.66-.944.135-.013.371-.077.596 0z"/><path d="m63.828.169c.185 2.94.148 6.255.148 9.443 0 1.039.119 2.099-.148 3.032-1.356.28-2.703.297-3.977.597-1.22.287-2.373.682-3.43 1.143-5.204 2.271-8.812 6.497-10.735 12.128-.196.574-.374 1.174-.498 1.789-.117.588-.048 1.283-.446 1.839-3.005.149-6.15.099-9.395.1-1.023 0-2.097.116-3.032-.149-.126-2.285.458-4.377.944-6.361 1.455-5.935 4.619-10.433 8.201-14.314 1.132-1.226 2.608-2.375 4.076-3.43 4.292-3.083 9.876-5.455 16.601-5.915.487-.035 1.261-.184 1.691.098z"/><path d="m63.876 16.024c.226 3.275.149 7.026.149 10.587 0 1.163.12 2.336-.149 3.379-.767.232-1.641.149-2.485.149-3.57 0-7.128.049-10.586.05-.851 0-1.735.115-2.485-.149.205-3.146 1.611-5.878 3.23-7.952.262-.335.599-.68.895-.994.314-.334.557-.705.845-.994 2.256-2.256 5.715-3.868 9.594-4.175.307-.025.723-.132.992.099z"/><path d="m44.84 33.917c.27 1.198.149 2.441.149 3.679 0 7.467.1 14.986.099 22.664 0 1.227.116 2.492-.148 3.679-1.493.268-3.037.149-4.572.148-4.674-.001-9.478.254-13.569-.348-5.269-.774-9.746-2.987-13.32-5.518-.867-.613-1.72-1.389-2.585-2.137-.826-.715-1.672-1.541-2.386-2.336-3.04-3.388-5.222-7.119-6.958-11.879-.86-2.356-1.423-5.009-1.491-7.804.926-.267 1.98-.149 3.031-.149 3.043 0 6.495-.109 9.345.149.487 1.193.615 2.429.994 3.579 1.108 3.362 2.97 6.126 5.318 8.3 2.703 2.477 6.021 4.588 10.785 5.169.524.064 1.663.259 2.038 0 .484-.333.248-3.372.248-4.175 0-4.367-.16-8.83.05-12.973 1.181-.267 2.517-.148 3.828-.148 1.308 0 2.637.06 3.926 0 1.786-.083 3.633-.16 5.218.1z"/></g></svg>