<svg enable-background="new 0 0 82.334 75.725" viewBox="0 0 82.334 75.725" xmlns="http://www.w3.org/2000/svg"><g clip-rule="evenodd" fill-rule="evenodd"><path d="m67.525 32.391c4.903.208 10.207-.164 14.799.145.093 4.092-.493 7.854-1.451 11.219-2.815 9.892-8.351 17.451-15.523 23.068-4.688 3.671-10.697 6.589-17.651 8.076-7.638 1.633-16.204.725-22.246-1.692-2.897-1.159-5.83-2.655-8.367-4.498-.605-.44-1.173-.963-1.789-1.451-6.519-5.152-11.685-12.202-13.976-21.375-.867-3.468-1.534-7.565-1.257-11.51.827-11.802 5.807-19.982 12.718-25.824 2.536-2.337 5.593-4.195 9.043-5.658 3.486-1.478 7.451-2.639 11.994-2.853 8.173-.386 14.54 2.225 19.392 5.417 1.668 1.097 3.067 2.39 4.449 3.772 2.808 2.807 5.217 5.867 6.867 9.672 1.633 3.764 2.914 8.082 2.998 13.492zm-20.214-12.622c-3.095-2.827-7.135-5.071-13.347-4.643-.06.004-.071.04-.145.048-7.145.823-11.837 4.19-15.185 8.946-1.566 2.225-2.816 5.295-3.289 8.753-.375 2.743-.066 5.981.435 8.318.182.85.308 1.728.532 2.515.412 1.446 1.146 2.834 1.837 4.159 2.031 3.891 5.193 6.995 8.802 9.188 2.534 1.54 5.316 2.565 8.801 3.192 3.351.603 7.489.381 10.833-.58 6.125-1.761 10.884-5.064 14.46-9.527 1.785-2.229 3.302-4.746 4.4-7.593 1.11-2.878 1.933-6.176 1.935-10.01-3.579-.095-7.327-.048-11.075-.048-1.24 0-2.485.116-3.627-.146-.118-5.86-2.308-9.651-5.367-12.572z"/><path d="m39.525 21.849c2.673-.158 5.076.846 6.771 1.934 1.863 1.196 3.193 2.728 4.111 4.546.864 1.711 1.381 3.487 1.306 5.658-.183 5.287-3.22 8.856-7.012 10.542-2.17.965-4.82 1.293-7.399.677-4.261-1.019-7.642-4.395-8.753-8.753-.633-2.483-.408-5.098.581-7.399 1.185-2.758 3.569-5.305 6.674-6.481 1.049-.398 2.275-.639 3.721-.724z"/></g></svg>