<svg enable-background="new 0 0 77.291 63.051" viewBox="0 0 77.291 63.051" xmlns="http://www.w3.org/2000/svg"><g clip-rule="evenodd" fill-rule="evenodd"><path d="m.124 62.878c-.166-2.802-.165-6.295 0-9.098 14.271-.578 30.361 1.136 41.61-2.585 7.213-2.386 11.743-8.087 15.411-14.218 1.847-3.088 3.529-6.365 5.22-9.595 2.464-4.705 5.185-9.65 7.656-14.567.787-1.565 2.06-3.376 2.088-5.319.029-1.984-1.133-3.386-2.336-4.076-2.166-1.243-5.336-1.605-8.75-1.89-6.826-.567-13.631.023-19.836.945-3.073.456-6.235.908-9.048 1.591-2.89.7-5.735 1.28-8.352 2.286-2.57.988-5.069 1.984-7.407 3.231-2.24 1.195-4.553 2.471-6.313 4.325-.809.852-1.635 1.983-1.939 3.381-.301 1.384-.146 3.101.646 4.325 1.599 2.472 5.564 3.23 9.694 3.23 4.28 0 8.458-.039 12.577.1.17.346-.29.525-.447.647-1.192.922-2.331 1.769-3.629 2.734-.46.342-1.022.923-1.491 1.044-.423.109-1.022.033-1.591.05-3.935.116-7.695-.02-11.334 0-2.438.013-4.364-.133-6.016-.795-.773-.31-1.468-.776-2.188-1.193-2.044-1.188-3.863-3.346-3.629-6.562.156-2.139.992-3.475 1.989-4.772.973-1.269 2.106-2.501 3.331-3.431 3.753-2.849 8.444-5.226 13.472-6.86 8.447-2.745 18.041-4.648 28.437-5.469 3-.236 6.082-.176 9.146-.298 5.789-.23 11.709.522 15.561 2.287 2.334 1.069 4.441 2.513 4.623 5.617.095 1.606-.396 2.968-.795 4.325-1.898 6.451-3.812 13.011-5.916 19.587-1.664 5.204-3.471 10.157-6.016 14.417-.661 1.107-1.262 2.163-2.038 3.083-2.329 2.757-5.02 5.072-8.302 7.009-4.309 2.543-9.34 4.348-15.014 5.419-5.795 1.094-12.278 1.379-18.941 1.193-6.597-.182-13.481.324-20.133-.098z"/><path d="m.124 48.661c-.165-2.042-.165-4.769 0-6.81 2.914-.308 5.942-.1 8.949-.1 1.511 0 3.017-.05 4.524-.05 4.388.001 8.987.154 13.025-.397 2.568-.352 4.911-1.08 7.059-2.038 4.156-1.855 7.149-5.068 10.042-8.253.723-.795 1.484-1.576 2.188-2.386.358-.413.591-.939.945-1.343 1.728-1.971 3.666-3.954 5.468-5.916 1.855-2.204 3.878-4.243 5.718-6.463.969-1.068 1.959-2.117 2.883-3.231.787-1.102 2.707-2.158 2.237-4.176-.355-1.526-2.151-2.428-3.978-2.883-3.782-.945-8.46-.731-12.826-.398-6.496.496-12.07 1.256-17.25 3.331-1.721.69-3.129 1.397-4.624 2.237-1.491.838-3.047 1.801-3.828 2.982-.702 1.062-.821 2.562-.199 3.53 1.36 2.113 4.673 2.428 8.004 2.635 3.553.221 7.172-.004 10.439.198.029.436-.49.615-.795.846-.859.648-2.003 1.755-2.983 2.188-.577.254-2.125.1-3.132.1-3.033 0-6.137 0-9.098 0-4.02 0-7.522-.704-8.998-3.182-1.064-1.787-.606-4.153.348-5.519.969-1.389 2.523-2.416 3.878-3.231 1.5-.903 3.071-1.729 4.723-2.437 1.689-.724 3.489-1.253 5.27-1.839 3.684-1.213 7.769-1.811 11.832-2.437 3.115-.478 6.248-.833 9.594-1.093 3.98-.31 8.824-.227 12.578.298 2.719.381 5.902 1.383 6.662 3.579.111.324.172.915.099 1.392-.249 1.643-1.46 3.209-2.386 4.523-.979 1.388-1.955 2.772-2.785 4.076-1.79 2.817-3.809 5.592-5.518 8.253-1.77 2.754-3.715 5.49-5.518 8.252-1.809 2.769-4.033 5.171-6.065 7.656-4.344 5.311-11.384 7.11-19.637 7.854-4.274.386-8.767.348-13.323.349-4.535.002-9.101.07-13.522-.097z"/><path d="m.124 38.022c-.163-1.598-.166-3.871 0-5.469.98-.262 2.018-.149 3.033-.149 6.244-.001 11.886 0 18.444 0 1.042-.001 2.248.171 3.132 0 .393-.077.991-.619 1.441-.995 5.83-4.855 11.803-9.292 17.748-13.92.902-.703 1.812-1.411 2.535-2.287 1.725-1.496 3.684-2.648 5.518-4.225.538-.463 1.312-1.096 1.292-1.939-.038-1.717-2.667-1.891-4.722-1.988-2.225-.105-4.406.031-6.313.249-3.931.447-7.774 1.397-10.042 3.281-.501.416-1.24 1.131-1.243 1.939-.003.816.627 1.48 1.342 1.839 1.411.708 3.757.547 5.816.547 2.162 0 4.337-.04 6.264.05-.074.552-.719.812-1.143 1.144-.452.354-.889.771-1.393.994-2.491-.051-5.336.067-8.153 0-2.672-.063-5.434.124-7.208-.845-.649-.356-1.37-1-1.64-1.69-.533-1.36.149-2.65.944-3.579 1.355-1.153 3.015-1.973 4.772-2.636 2.667-1.005 5.545-1.719 8.75-2.336 1.085-.209 2.193-.223 3.33-.348 1.129-.125 2.221-.271 3.381-.299 1.187-.028 2.56-.138 3.728-.149 1.197-.012 2.51.154 3.729.249 1.178.092 2.437.248 3.381.547.977.309 2.168 1.064 2.336 2.088.274 1.67-1.301 2.643-2.137 3.479-2.796 2.797-5.823 5.475-8.551 8.203-3.786 3.786-7.366 7.462-11.286 11.086-1.908 1.76-3.694 3.711-6.165 5.022-2.395 1.27-5.434 2.108-8.899 2.286-1.741.09-3.598 0-5.418 0-5.502 0-11.186.07-16.603-.149z"/></g></svg>