<svg enable-background="new 0 0 74.309 75.722" viewBox="0 0 74.309 75.722" xmlns="http://www.w3.org/2000/svg"><g clip-rule="evenodd" fill-rule="evenodd"><path d="m64.241 63.937c-3.848 4.188-8.302 7.248-14.03 9.418-5.473 2.075-13.459 3.21-20.309 1.619-6.435-1.495-11.418-3.981-15.844-7.604-4.273-3.497-7.868-7.905-10.351-13.049-2.602-5.394-4.07-12.116-3.629-19.622.204-3.468 1.028-6.738 2.06-9.663 1.027-2.915 2.311-5.527 3.826-7.849 4.585-7.032 11.107-12.482 19.817-15.356 2.277-.75 4.53-1.203 7.211-1.568 5.309-.724 10.966.135 15.208 1.472 7.044 2.219 12.628 6.153 16.973 11.135.55.631.958 1.356 1.472 2.061 3.402 4.655 6.326 10.17 7.261 17.316.544 4.16.623 8.873-.295 12.95-.884 3.93-2.034 7.298-3.63 10.448-1.565 3.09-3.611 5.723-5.74 8.292zm-27.226.048c2.561 0 4.935-.433 7.064-1.029 8.056-2.259 13.987-7.904 16.923-15.354 1.544-3.914 2.306-9.391 1.423-14.029-1.717-9.029-6.406-15.133-13.392-18.887-3.549-1.907-7.698-3.252-13.196-2.991-8.111.383-13.255 4.117-17.512 8.486-3.892 4.522-7.074 10.621-6.623 19.082.424 7.944 3.959 13.572 8.192 17.659 4.176 3.808 9.34 7.064 17.121 7.063z"/><path d="m42.215 19.738c.021-.508-.614-.742-1.03-.982-1.196-.689-3.251-1.351-5.004-.884-.129 5.507-.216 11.345-.049 16.729 2.041.394 4.005-.201 5.347-1.03 1.349-.833 2.495-2.053 3.189-3.434.239-.478.19-1.237.932-1.373.104 1.024-.554 1.956-1.079 2.746-1.53 2.302-4.236 4.062-8.144 3.827-2.528-.154-3.971-1.354-5.445-2.65-1.781-1.929-2.858-4.274-2.649-7.406.11-1.657.854-3.365 1.816-4.562.889-1.108 2.268-2.309 3.482-2.895 2.029-.977 5.233-.83 7.31.099 1.784.799 3.66 2.233 4.218 4.316.115.425.105.98.099 1.472-.22 2.399-4.031 3.054-5.347 1.178-1.247-1.619-.474-4.007 1.128-4.759.419-.196.812-.119 1.226-.392z"/><path d="m31.227 37.594c-.081-.527-.665-.727-1.079-.981-1.173-.72-2.935-1.326-4.808-1.029-.265 1.296-.146 2.719-.146 4.12-.001 4.159-.075 8.665.049 12.656 1.149.331 2.353.136 3.336-.147 2.393-.688 4.249-2.396 5.198-4.513.159-.353.155-1.06.736-1.079.399.468-.265 1.257-.392 1.668-.92 1.705-1.814 2.812-3.287 3.678-2.424 1.426-6.077 1.559-8.486.246-2.135-1.162-4.067-3.403-4.71-5.838-.9-3.411.323-6.486 2.109-8.436 1.535-1.677 3.62-3.219 6.818-3.042 1.869.103 3.389.752 4.759 1.717 1.836 1.292 3.98 3.892 2.109 6.476-1.687 1.598-4.638.689-5.15-1.423-.28-1.156.165-2.611 1.03-3.287.514-.401 1.254-.451 1.914-.786z"/><path d="m53.056 37.693c.015-.472-.564-.785-.981-1.03-.428-.253-.983-.486-1.472-.639-1.048-.326-2.463-.661-3.58-.245-.148 5.353-.249 11.206-.05 16.728 1.368.305 2.732.078 3.777-.295 2.444-.874 4.014-2.51 5.004-4.856.094-.223.227-.733.638-.638.306.434-.087.958-.245 1.324-1.224 2.824-3.863 4.968-7.604 5.2-3.666.228-6.337-1.887-7.897-4.071-.854-1.194-1.406-2.629-1.521-4.317-.203-2.984.788-5.156 2.354-6.867.584-.638 1.356-1.335 2.109-1.815 2.42-1.545 6.471-1.434 9.075.098 1.484.873 2.877 2.395 3.287 3.925.795 2.972-2.49 4.911-4.758 3.14-.691-.539-1.31-1.774-1.08-2.992.283-1.502 1.531-2.306 2.944-2.65z"/></g></svg>