<svg enable-background="new 0 0 79.258 59.048" viewBox="0 0 79.258 59.048" xmlns="http://www.w3.org/2000/svg"><g clip-rule="evenodd" fill-rule="evenodd"><path d="m32.208 1.839c2.841-1.731 7.78-2.083 11.861-1.142 3.183.734 5.694 2.421 7.394 4.764.254.351.573.885.794.893.43.017 1.261-1.435 1.687-1.886 2.791-2.951 7.483-4.526 13.35-4.069 2.248.175 4.056.604 5.657 1.39 3.071 1.507 5.394 4.27 6.005 8.139.344 2.177.054 4.511.148 6.898.046 1.143.02 2.267.05 3.375.03 1.092.086 2.207-.148 3.275-.699.186-1.874.078-2.581-.05-.137-2.92-.099-5.935-.099-8.883-.001-1.565.109-3.125-.149-4.417-.649-3.246-2.724-5.567-5.707-6.551-4.049-1.335-9.936-.72-12.804 1.241-1.465 1.002-2.935 2.529-3.474 4.218-.455 1.423-.349 3.448-.348 5.41.002 9.575.099 18.165.099 28.089.001 2.023-.005 3.908.05 5.658.058 1.84.785 3.086 1.588 4.119 1.665 2.14 4.134 3.618 7.296 4.169 4.15.724 8.836-.58 11.067-2.829.469-.472.76-1.094 1.142-1.737.751-1.263 1.232-2.688 1.34-4.367.213-3.308-.238-7.178.1-11.117.66-.162 1.92-.159 2.58 0 .182 2.112.1 4.321.1 6.452 0 2.208.189 4.333-.148 6.154-.468 2.513-1.754 4.879-3.325 6.452-.529.529-1.109 1.174-1.688 1.538-2.766 1.742-6.678 2.251-10.918 1.936-3.878-.288-6.887-1.973-8.933-4.069-.67-.489-.936-1.381-1.638-1.836-.752.666-1.234 1.487-1.886 2.184-1.937 2.068-4.815 3.24-8.486 3.623-5.263.55-9.99-.469-12.755-3.077-.846-.693-1.365-1.711-2.184-2.432-.658.303-1.016.947-1.488 1.44-1.351 1.405-3.128 2.702-5.262 3.374-2.883.909-7.125 1.041-10.421.496-3.304-.545-5.718-2.041-7.494-4.02-1.912-2.131-2.431-5.068-2.432-9.082-.001-10.868-.147-22.753-.148-34.046-.001-3.667 1.49-6.239 3.474-8.04 1.244-1.022 2.486-1.946 4.069-2.53 2.644-.975 7.036-1.207 10.422-.645 3.506.582 6.101 2.04 7.94 4.367.282.357.822 1.274 1.142 1.29.33.018.895-.822 1.19-1.141 1.141-1.227 2.442-2.223 3.971-2.978zm10.968 15.285c0-1.956.238-4.502-.397-6.055-.648-1.585-2.846-2.328-4.714-1.737-2.311.731-1.837 3.595-1.837 6.551 0 1.808-.154 3.838.298 5.062.233.63.686 1.279 1.042 1.886 1.888 3.215 3.758 6.085 5.658 9.181.752 1.226 1.656 2.442 2.183 3.772.629 1.587.348 4.399.349 6.451 0 1.197-.001 2.343 0 3.424 0 1.156.128 2.209-.05 3.375-.356 2.323-2.302 3.615-4.814 3.92-2.708.329-5.477-.489-6.451-2.183-1.079-1.874-.844-4.908-.844-7.792 0-1.563.073-3.042 0-4.367-.074-1.33-.461-2.383-1.042-3.375-1.561-2.663-3.245-5.601-4.864-8.238-.561-.914-1.185-1.822-1.538-2.878-.397-1.188-.348-2.587-.348-4.069 0-1.48 0-3.044 0-4.467 0-1.449.063-2.916-.049-4.268-.11-1.324-.475-2.421-.993-3.474-1.954-3.97-6.559-5.447-12.606-5.161-4.049.191-6.888 2.13-8.436 4.913-.859 1.543-1.039 3.319-.992 5.707.212 10.81.147 22.465.148 32.953 0 2.346.223 4.022 1.142 5.558.825 1.38 2.015 2.498 3.474 3.226 2.877 1.436 7.692 1.742 11.415.695 1.758-.495 2.957-1.293 4.268-2.432 1.21-1.051 2.258-2.386 2.531-4.169.316-2.062.05-4.223.05-6.452-.001-2.118-.084-4.309.099-6.601.67-.157 1.961-.165 2.631 0 .248 2.663.013 5.112.099 7.544.092 2.61-.138 5.102.646 7.097.732 1.865 1.946 3.087 3.622 4.119.844.519 1.672.945 2.681 1.191 3.116.76 7.592.724 10.024-.546 2.638-1.377 4.578-3.194 5.311-6.303.243-1.033.198-2.219.198-3.673-.002-9.493-.063-20.437-.1-30.52-.005-1.341.012-2.618-.148-3.722-.16-1.108-.541-2.088-.943-2.978-1.617-3.575-5.032-5.461-9.925-5.558-2.46-.049-4.506.409-6.402 1.339-1.565.769-3.31 2.19-4.119 3.672-.974 1.783-.782 4.489-.794 7.097-.009 1.986 0 4.1 0 5.906 0 2.075.513 3.288 1.34 4.666.802 1.334 1.499 2.625 2.233 3.821.74 1.206 1.606 2.545 2.184 3.821.67 1.479 1.487 2.589 1.737 4.317.399 2.765.015 6.008.149 8.883.048 1.028-.055 2.067.198 2.829.741 2.229 5.824 2.189 6.452-.049.218-.777.099-1.796.1-2.779 0-.962-.05-1.954-.05-2.829 0-2.34.32-5.267-.348-6.849-.394-.931-1.023-1.885-1.588-2.829-.552-.921-1.161-1.835-1.737-2.73-.578-.898-1.041-1.889-1.638-2.779-.609-.909-1.186-1.814-1.737-2.73-1.046-1.737-2.545-3.686-2.53-6.253.007-1.389-.051-2.779-.05-4.367 0-1.322-.248-2.996.05-4.317.258-1.148 1.04-1.785 1.687-2.63 1.416-1.166 3.479-1.582 5.757-1.29 2.027.26 3.537 1.301 4.367 2.928.861 1.688.596 4.27.596 6.65 0 2.492.041 4.96-.049 7.246-.683.191-1.833.256-2.531 0-.102-2.07-.055-4.203-.055-6.351z"/><path d="m20.495 23.526c-.042-.009-.046.019-.049.05-.749.047-1.983.168-2.581-.099-.177-2.48-.1-6.12-.099-9.032 0-2.422-.032-4.493-1.688-5.211-1.816-.788-4.213-.201-4.913 1.191-.479.951-.298 3.032-.298 4.516-.001 8.09.049 16.167.049 24.268 0 1.471-.012 3.164.05 4.814.061 1.583-.183 3.53.199 4.665.797 2.368 5.646 2.411 6.551-.149.276-.782.148-1.9.148-2.978.001-3.142-.061-6.269.05-9.131.649-.147 1.955-.197 2.531.049.182 3.095.099 6.232.099 9.479.001 1.986.054 3.553-.744 4.714-1.275 1.858-4.018 2.42-6.451 2.184-2.443-.237-4.43-1.584-5.013-3.672-.336-1.21-.247-2.891-.247-4.615-.002-9.465.042-19.494-.1-28.734-.038-2.488-.308-5.245.695-6.849 1.069-1.711 2.829-2.469 5.211-2.581 3.003-.142 5.09.999 6.005 2.878.848 1.741.644 4.377.644 6.898.002 2.527.052 5.088-.049 7.345z"/><path d="m71.066 23.477c-.675.222-1.817.161-2.531 0-.184-3.097-.149-6.247-.149-9.43 0-1.075.145-2.227-.149-3.077-.728-2.108-5.332-2.315-6.352-.248-.499 1.011-.298 2.975-.298 4.516 0 8.152.051 16.042.05 24.218 0 1.485.001 3.18.05 4.814.044 1.458-.202 3.507.198 4.565.276.729.92 1.288 1.588 1.539 1.984.745 4.373-.011 4.914-1.836.232-.782.145-1.93.099-2.928-.137-3.026.023-6.374.1-9.181.763-.113 1.908-.113 2.68.049.101 2.316.099 4.244.1 6.253 0 1.981.308 4.431-.199 6.452-1.271 5.069-10.598 5.058-11.86.298-.332-1.252-.149-3.051-.149-4.765.003-9.602-.1-19.335-.099-29.032 0-1.591-.161-3.212-.05-4.715.133-1.796 1.463-3.181 2.829-3.772.706-.305 1.78-.48 2.68-.546 2.884-.212 5.184.859 6.055 2.63.835 1.699.546 4.447.546 6.898-.003 2.52.048 5.06-.053 7.298z"/></g></svg>