<svg enable-background="new 0 0 71.661 71.001" viewBox="0 0 71.661 71.001" xmlns="http://www.w3.org/2000/svg"><g clip-rule="evenodd" fill-rule="evenodd"><path d="m60.456 9.868c-.453.735-1.124 1.323-1.743 1.942-3.616 3.616-7.099 7.298-10.808 11.006-.454.454-1.365 1.724-1.893 1.743-.378.014-.941-.602-1.345-.896-2.751-2.012-7.278-3.682-12.151-2.54-4.645 1.089-7.931 3.862-10.011 7.62-1.097 1.982-1.838 4.317-1.742 7.072.231 6.722 3.925 11.01 8.715 13.297.983.469 2.094.717 3.188 1.195.155 5.937.05 12.047.05 18.128 0 .812.12 1.676-.149 2.44-7.693-.58-13.862-3.39-18.726-7.271-.623-.498-1.237-.964-1.842-1.444-.621-.493-1.037-1.034-1.594-1.643-1.031-1.129-2.185-2.173-3.088-3.436-3.633-5.088-6.577-10.896-7.223-18.875-.319-3.948.205-8.103 1.097-11.654 1.719-6.856 5.295-12.209 9.561-16.485 5.917-5.495 13.761-9.761 24.901-10.06 2.644-.071 5.471.367 7.818.847 6.98 1.427 12.841 4.862 16.985 9.014z"/><path d="m63.095 12.807c.566.174 1.384 1.466 1.892 2.142.615.817 1.098 1.652 1.544 2.391 2.953 4.879 5.107 11.062 5.13 18.626.008 2.757-.434 5.414-.996 7.769-1.538 6.437-4.505 11.48-8.367 15.638-.336.362-.837.691-.896 1.245.133.606.677 1.058 1.095 1.444 2.575 2.377 4.984 5.044 7.57 7.47.386.361.996.736 1.046 1.345-11.411.164-23.579.167-34.911 0-.184-11.177-.157-23.051 0-34.663.641.118 1.008.684 1.394 1.096 1.191 1.271 2.44 2.391 3.734 3.685 1.179 1.178 2.44 2.441 3.735 3.735.359.359.922 1.052 1.395 1.046.71-.009 1.349-1.27 1.743-1.843 1.97-2.865 3.438-7.633 2.092-12.301-.44-1.527-1.133-2.772-1.743-3.934.419-.766 1.079-1.378 1.693-1.992 4.206-4.206 8.399-8.608 12.699-12.799.038-.047.092-.076.151-.1z"/></g></svg>