<svg enable-background="new 0 0 29.248 29.105" viewBox="0 0 29.248 29.105" xmlns="http://www.w3.org/2000/svg"><path d="m13.645.057c5.44-.505 11.045 2.387 13.663 7.207 3.361 5.558 2.245 13.322-2.481 17.754-2.718 2.677-6.552 4.158-10.357 4.085-3.732-.034-7.404-1.586-10.077-4.181-3.785-3.496-5.268-9.185-3.879-14.122 1.577-5.851 7.085-10.351 13.131-10.743zm.241 1.448c-4.614.288-8.954 3.163-11.011 7.303-2.157 4.058-1.774 9.28.828 13.049 2.899 4.328 8.524 6.612 13.621 5.518 3.481-.732 6.771-2.837 8.549-5.967 2.57-4.157 2.596-9.778-.099-13.883-2.4-4.046-7.235-6.372-11.888-6.02z"/><path d="m12.798 5.798c1.439-.193 2.897.206 4.171.852 2.218-.213 4.574.537 6.097 2.196.9.958.625 2.612-.424 3.346-1.054.762-2.701.4-3.351-.724-.645-1.27-1.41-2.565-2.656-3.323-2.848.475-4.998 3.188-5.115 6.03-.245 3.061 1.915 6.28 4.995 6.865 1.209-.711 1.989-1.95 2.616-3.173.553-1.164 2.136-1.669 3.257-1.028 1.498.767 1.493 3.036.166 3.972-1.386 1.158-3.191 1.82-5.003 1.75-.337.017-.709-.116-1.007.099-2.091 1.093-4.75.975-6.716-.338-4.285-2.63-5.244-9.017-2.445-13.054 1.219-1.832 3.2-3.221 5.415-3.47zm-3.658 3.471c-2.859 3.158-2.549 8.728.805 11.426 1.236 1.097 2.986 1.53 4.602 1.225-2.629-1.407-4.508-4.28-4.407-7.321-.105-3.073 1.797-6.029 4.565-7.321-2.063-.519-4.207.439-5.565 1.991zm9.61-1.176c.678.781 1.233 1.66 1.692 2.584.307.658 1.374.716 1.692.039.317-.567-.129-1.197-.641-1.45-.813-.585-1.744-1.03-2.743-1.173zm1.645 10.376c-.501.924-1.017 1.851-1.732 2.63 1.212-.182 2.358-.756 3.244-1.602.351-.339.362-.943.016-1.289-.427-.454-1.26-.285-1.528.261z"/><path d="m24.601 26.549c.418-.001.837 0 1.256-.003.008.095.019.19.031.285-.166.003-.333.008-.499.012-.01.507-.003 1.016-.015 1.524-.097-.007-.193-.014-.29-.022.008-.502.008-1.004.007-1.507-.161-.001-.323-.005-.484-.006.001-.094-.001-.189-.006-.283z"/><path d="m26.152 28.363c.011-.608-.014-1.215.015-1.822.092.006.185.01.278.012.176.439.374.869.563 1.303.282-.396.411-.881.639-1.309.682.112.15 1.264.284 1.814-.1.001-.2.004-.298.008-.008-.362.013-.724-.013-1.085-.173.354-.331.716-.495 1.074-.065.001-.128.004-.192.005-.18-.346-.293-.722-.484-1.063-.042.352-.022.707-.034 1.062-.088 0-.176-.001-.263.001z"/></svg>