<svg enable-background="new 0 0 45.869 77.575" viewBox="0 0 45.869 77.575" xmlns="http://www.w3.org/2000/svg"><path clip-rule="evenodd" d="m20.755.084c1.99-.129 4.505-.095 6.577 0 2.078.094 4.158.229 6.094.483 4.04.528 7.181 1.527 9.188 3.917 2.063 2.455 2.768 5.842 3.047 10.107.405 6.179.248 13.324-2.515 16.878-1.94 2.494-4.659 3.885-8.802 4.352-3.789.429-8.435.344-12.574.145-4.228-.202-7.627-1.048-8.85-4.305-.581-1.546-.512-3.608-1.112-5.416-.172-.519-.557-1.11-.967-1.45-1.208-1.003-3.262-.451-3.869 1.112-.596 1.534-.383 4.024-.484 6.142-.204 4.289-.158 8.742 0 12.961.082 2.187-.052 4.377.387 6.238.386 1.636 2.046 2.593 3.579 1.789 2.126-1.116 1.69-5.09 2.563-7.351 1.369-3.548 5.103-3.879 9.865-4.208 2.224-.153 4.726-.239 6.867-.048 2.404.214 4.58.144 6.529.532 6.071 1.209 8.725 4.842 9.333 11.751.392 4.455.378 9.112-.338 13.154-.698 3.932-2.383 6.887-5.513 8.56-1.555.831-3.274 1.385-5.368 1.692-4.029.593-8.875.435-13.444.436-4.441 0-9.276-.256-12.429-1.645-1.604-.706-2.918-1.719-4.062-2.95-2.302-2.478-3.352-5.583-3.772-10.3-.378-4.242-.462-8.856-.532-13.444-.035-2.302-.146-4.622-.146-6.916 0-6.872-.068-13.614.194-20.602.17-4.556.225-9.017 1.451-12.622 1.172-3.445 3.594-5.866 6.819-7.251 3.295-1.415 7.635-1.442 12.284-1.741z" fill-rule="evenodd"/></svg>