<svg enable-background="new 0 0 183.505 118.782" viewBox="0 0 183.505 118.782" xmlns="http://www.w3.org/2000/svg"><g clip-rule="evenodd" fill-rule="evenodd"><path d="m86.076.297c.187 6.83.101 13.959.102 21.035.001 7.045.102 14.096-.102 20.678.008.059-.012.091-.052.102-12.41.125-24.804 0-37.332 0-2.199 0-4.109-.094-5.45.866-1.148.822-2.21 2.089-2.139 4.125.065 1.886 1.1 3.236 2.292 4.023 1.365.902 3.282.793 5.398.815 1.995.021 4.154 0 6.315 0 9.335 0 18.641.102 28.012.102.987 0 2.012-.117 2.955.152.212 13.127.233 26.931.051 40.694-.797.273-1.676.153-2.496.153-2.479 0-5.109-.051-7.741-.051-10.282.001-20.878.052-30.915-.102-13.658-.208-22.755-5.26-29.948-11.816-3.012-2.849-5.623-5.958-7.843-9.575-4.259-6.938-7.652-16.158-7.131-27.656.235-5.182 1.317-10.222 2.954-14.414 3.237-8.288 8.285-14.838 14.772-20.015 1.653-1.319 3.299-2.506 5.143-3.565 4.555-2.614 9.884-4.601 16.247-5.45 1.323-.177 2.832-.24 4.228-.306 3.552-.168 7.206-.071 10.797 0 10.385.207 21.346-.154 31.883.205z"/><path d="m137.517 93.246c-.278.996-.153 2.061-.153 3.107 0 7.322.06 14.854-.102 22.308-10.167.238-20.726.051-31.017.051-3.432 0-6.854.116-10.187-.153-.256-21.866-.152-43.599-.103-66.262.046-.022.091-.044.103-.102 12.325-.113 25.263 0 37.943 0 2.36 0 4.245.132 5.704-.764 1.286-.789 2.281-2.045 2.343-4.074.061-1.997-.993-3.375-2.189-4.177-1.397-.936-3.372-.815-5.603-.815-8.354.001-17.034-.102-25.567-.101-4.259 0-8.593.12-12.682-.153-.187-12.666-.103-26.197-.103-39.268 0-.807-.099-2.228.153-2.496.037-.048.093-.077.152-.102 14.099-.024 28.37.103 42.171.102 4.491 0 8.73.642 12.428 1.731 10.803 3.184 18.7 9.674 24.498 17.979 3.851 5.518 6.78 12.279 7.792 20.525.54 4.398.573 8.994-.102 13.242-.663 4.17-1.662 7.791-3.005 11.154-3.92 9.818-10.988 17.63-19.863 22.613-6.073 3.414-13.278 5.716-22.611 5.655z"/></g></svg>