<svg enable-background="new 0 0 82.673 82.81" viewBox="0 0 82.673 82.81" xmlns="http://www.w3.org/2000/svg"><g clip-rule="evenodd" fill-rule="evenodd"><path d="m62.897 0c.688.087 1.455.663 2.184 1.066.518.287 1.74.773 1.93 1.27.215.559.051 1.898.051 2.641v5.384c0 .882.121 1.779-.152 2.54-.566.007-1.062-.351-1.524-.609-4.174-2.344-8.463-4.771-12.697-7.11-1.852-1.023-3.66-2.166-5.536-3.25-.451-.261-.96-.5-1.422-.762-.426-.241-1.037-.437-1.219-.965 5.443.21 9.835 1.696 13.967 3.454 1.36.579 2.54 1.479 3.961 1.879.342-.258.185-.785.203-1.219.049-1.168.03-3.026.102-4.165.028-.075.079-.126.152-.154z"/><path d="m70.262 18.893c.426-.383.254-1.076.254-1.625 0-3.025 0-6.255 0-9.345 0-1.244-.122-2.464.152-3.555.429-.109.738.265 1.066.457.326.19.705.355 1.066.559.488.274 1.711.816 1.93 1.32.208.479.102 1.615.102 2.387v14.78c0 .766.122 1.59-.152 2.286-.57.065-1.023-.353-1.473-.61-7.22-4.114-14.682-8.212-21.89-12.341-5.854-3.355-11.869-6.675-17.775-10.006-.444-.25-.91-.506-1.371-.762-.422-.234-.998-.421-1.219-.914.519-.522 1.494-.608 2.336-.762 1.149-.208 2.207-.583 3.352-.457.684.076 1.562.701 2.235 1.066 4.739 2.578 10.052 5.765 14.475 8.33 4.311 2.201 8.303 4.769 12.595 7.008 1.417.74 2.746 1.69 4.317 2.184z"/><path d="m77.93 31.946c.358-.831.204-1.814.204-2.743 0-6.687-.084-13.904.101-20.468.853.005 1.543.636 2.235 1.016.731.401 1.569.642 2.082 1.27.185 4.317.102 9.717.102 14.17 0 4.858.084 9.561-.102 14.018-.506.097-.966-.245-1.371-.457-6.215-3.253-12.312-6.97-18.538-10.361-3.401-1.853-6.516-3.606-9.903-5.536-3.222-1.836-7.126-3.389-12.189-3.2-4.701.175-8.511 1.749-11.58 3.859-5.831 4.009-10.447 11.013-9.091 21.179.59 4.43 2.484 7.815 4.825 10.564 2.736 3.304 6.524 5.888 11.326 7.161 5.547 1.471 11.441.222 15.389-1.777 1.84-.932 3.902-2.467 5.282-3.961 2.955-3.202 5.383-6.87 6.196-12.291.209-1.396.257-2.903.153-4.368-.097-1.346-.406-2.657-.457-4.012.452-.058.881.249 1.27.457 1.09.583 2.376 1.244 3.301 2.083.691 6.408-1.037 11.639-3.403 15.744-2.414 4.188-5.794 7.337-9.853 9.701-4.13 2.405-9.878 3.824-16.1 3.047-5.661-.706-9.878-3.14-13.408-6.145-3.441-2.93-6.393-6.929-7.821-11.732-.785-2.636-1.302-5.495-1.168-8.533.13-2.951.625-5.707 1.575-8.177 2.69-6.997 7.496-12.099 14.372-14.982 1.137-.477 2.358-.97 3.606-1.27 1.293-.31 2.656-.383 4.013-.864-.329-.673-1.248-.944-1.981-1.371-.708-.413-1.538-1.09-2.285-1.168-.573-.059-1.516.223-2.235.457-4.679 1.524-8.466 3.954-11.63 6.958-3.585 3.402-6.448 7.957-7.974 13.255-.844 2.931-1.065 6.382-.914 9.548.47 9.857 5.258 16.259 10.716 21.128 2.928 2.318 6.303 4.29 10.462 5.485 4.067 1.169 9.514 1.621 14.221.609 8.639-1.855 14.633-6.886 18.843-13.052 2.147-3.854 4.337-8.176 4.57-14.018.032-.799-.06-1.64.204-2.438.789-.006 1.434.604 2.082.965.662.368 1.448.662 1.879 1.27-.07 3.104-.597 6.03-1.524 8.583-.922 2.54-1.892 4.879-3.149 7.009-2.498 4.23-5.865 7.746-9.853 10.462-4.035 2.748-8.65 4.933-14.576 5.739-6.231.848-12.71-.34-17.471-2.336-6.968-2.921-12.489-7.923-16.202-14.271-1.281-2.19-2.175-4.604-2.945-7.212-.783-2.652-1.422-5.586-1.422-8.735 0-3.15.273-6.255.965-9.091 1.317-5.396 3.758-9.816 6.857-13.458 3.131-3.616 6.85-6.69 11.529-8.787.634-.284 1.351-.508 1.879-1.016-.047-.633-1.024-.768-1.473-1.168-.727-.228-1.087-.919-1.93-.914-.516.003-1.326.568-1.879.863-4.084 2.179-7.823 5.2-10.615 8.533-.85 1.015-1.707 1.977-2.438 3.047-.373.545-.604 1.204-.965 1.777-3.07 4.868-5.462 11.37-5.435 19.096.025 7.034 1.796 12.768 4.266 17.573 1.257 2.445 2.728 4.749 4.317 6.603 6.81 7.944 16.33 13.545 30.473 13.205 6.606-.159 12.505-2.436 16.861-5.028 4.652-2.768 8.183-6.206 11.377-10.462 2.916-4.24 5.511-9.176 6.45-15.44.125-.839.177-1.744.559-2.54.74.006 1.395.528 2.032.864.628.332 1.344.647 1.727 1.219-.978 7.025-3.506 12.77-6.806 17.624-4.877 7.169-11.875 12.765-20.825 15.845-4.4 1.514-9.909 2.65-15.998 2.133-5.764-.489-10.333-1.729-14.627-3.657-4.696-2.108-9.218-5.232-12.545-8.837-1.424-1.543-2.846-3.368-4.063-5.13-2.474-3.583-4.481-7.731-5.892-12.392-1.911-6.317-2.178-14.733-.406-21.483 1.69-6.437 4.629-11.666 8.279-16.151 1.948-2.589 4.402-4.812 7.11-6.856 1.87-1.411 4.087-2.876 6.45-4.012 1.022-.492 1.795-1 2.997-1.117 6.486 3.601 12.922 7.249 19.452 10.869 4.311 2.39 8.5 4.906 12.9 7.314 5.416 2.963 10.712 6.111 16.202 9.04 1.1.586 2.142 1.332 3.351 1.675z"/></g></svg>