<svg enable-background="new 0 0 75.629 46.096" viewBox="0 0 75.629 46.096" xmlns="http://www.w3.org/2000/svg"><path clip-rule="evenodd" d="m38.335.19c.125 3.214.197 7.324 0 10.678-2.143.252-4.373.151-6.629.151-5.326 0-10.959.001-16.902 0-1.188 0-2.656-.132-2.682.759-.025.911 1.144.86 2.125.86 3.055 0 5.99.051 8.603.051 11.818.003 23.727-.102 35.525-.101 2.111 0 4.105-.106 5.92-.051 1.965.059 3.455.402 4.857 1.113 2.461 1.246 4.51 3.456 5.668 6.275.609 1.482.938 3.143.76 5.11-.326 3.615-1.74 6.078-3.947 7.995-1.074.934-2.238 1.753-3.746 2.177-1.334.375-3.633.202-5.363.202-4.65 0-9.436-.104-13.865.151-.273.795-.152 1.739-.152 2.632 0 .898-.059 1.802-.051 2.683.017 1.747.15 3.553-.102 5.061-3.121.188-6.631.236-9.715 0-.162-6.798-.236-13.994-.051-20.9 7.684-.182 15.623-.151 23.684-.151 1.254 0 2.539.006 2.58-.81.055-1.11-2.123-.911-3.188-.911-14.975-.001-29.531.101-44.684.102-2.751 0-5.462.133-7.743-.354-2.277-.487-3.983-1.579-5.363-2.834-1.902-1.868-3.448-4.004-3.796-7.136-.573-5.166 2.102-9.382 5.415-11.386 1.369-.828 2.898-1.433 4.707-1.519 2.279-.107 4.656.052 7.033.051 6.971 0 14.227-.084 21.102.102z" fill-rule="evenodd"/></svg>