<svg enable-background="new 0 0 153.106 166.674" viewBox="0 0 153.106 166.674" xmlns="http://www.w3.org/2000/svg"><g clip-rule="evenodd" fill-rule="evenodd"><path d="m137.955 47.485c-1.049-1.253-1.912-2.638-2.861-3.94-2.823-3.875-6.237-7.399-9.897-10.507-4.897-4.159-10.381-7.774-16.746-10.46-6.165-2.602-13.724-4.764-22.047-5.16-8.735-.418-16.907.843-23.783 3.095-8.545 2.797-15.774 6.793-21.953 12.055-3.645 3.103-7.074 6.554-9.991 10.414-7.706 10.195-13.649 23.235-13.65 40.716-.001 8.735 1.73 16.356 4.269 22.938 2.558 6.63 5.931 12.322 9.851 17.356 2.973 3.817 6.383 7.167 10.085 10.32 6.088 5.184 13.492 9.184 22.047 11.914 6.854 2.188 15.448 3.475 24.11 2.814 8.315-.634 15.456-2.755 21.719-5.488 6.332-2.763 11.714-6.421 16.559-10.648 4.834-4.217 8.948-9.127 12.524-14.635.582.035 1.398.741 2.018 1.125 3.125 1.943 6.192 3.829 9.287 5.723 1.237.757 2.47 1.493 3.612 2.345-1.2 2.188-2.666 4.229-4.175 6.192-7.417 9.652-16.635 17.972-28.004 23.688-1.143.574-2.229 1.243-3.378 1.783-3.51 1.648-7.262 2.926-11.305 4.175-10.05 3.104-24.528 4.506-36.87 2.298-11.717-2.096-21.681-5.946-29.974-11.352-8.371-5.232-15.841-11.746-21.813-19.561-3.018-3.948-5.686-8.066-8.115-12.572-1.216-2.256-2.193-4.629-3.283-7.036-1.089-2.402-1.847-5.029-2.627-7.693-1.535-5.234-2.742-11.095-3.284-17.401-.559-6.502-.259-13.434.703-19.373 1.917-11.834 5.652-22.014 10.93-30.396 6.098-10.039 13.884-18.297 23.267-25.002 6.633-4.74 14.306-8.723 22.984-11.399 6.217-1.916 12.805-3.105 20.452-3.659 5.304-.384 11.3-.015 16.183.704 9.954 1.466 18.191 4.287 25.706 8.209 7.417 3.871 14.014 8.385 19.748 14.12 1.129 1.129 2.305 2.212 3.424 3.377 2.23 2.32 4.09 4.685 6.145 7.412.455.603.91 1.244 1.408 1.97.356.52 1.345 1.653 1.312 2.064-.028.374-1.411 1.114-1.734 1.313-4.384 2.698-8.313 5.609-12.853 8.162z"/><path d="m131.528 51.566c-.403.612-1.121.889-1.688 1.266-3.495 2.331-7.267 4.426-10.742 6.989-.211.156-.559.356-.891.563-.309.193-.756.532-.938.516-.301-.027-.665-.789-.938-1.172-4.374-6.162-10.195-10.974-17.497-14.12-3.99-1.719-8.314-2.817-13.697-3.19-5.514-.382-10.497.439-14.729 1.923-2.167.76-4.153 1.474-6.004 2.439-9.077 4.738-15.951 12.145-19.748 22.375-.741 1.998-1.426 4.176-1.877 6.567-.221 1.172-.288 2.521-.375 3.847-.218 3.319-.197 6.706.234 9.804.091.646.091 1.31.188 1.923.367 2.307 1.098 4.58 1.877 6.567 3.107 7.921 8.145 14.295 14.776 18.904 6.547 4.551 14.917 8.024 26.174 7.364 5.229-.307 9.605-1.649 13.51-3.33 5.946-2.562 10.585-6.163 14.541-10.742.99-1.146 1.835-2.229 2.767-3.565.195-.279.729-1.096.938-1.125.329-.046 1.621.83 1.923 1.032.689.457 1.222.851 1.736 1.172 3.314 2.069 6.438 3.979 9.897 6.099.238.146.763.42.797.656.051.343-.636 1.18-.891 1.548-2.294 3.314-4.931 6.478-7.646 9.194-3.277 3.277-6.83 5.992-10.836 8.443-3.984 2.439-8.407 4.459-13.369 5.91-4.981 1.457-10.483 2.379-16.887 2.346-6.262-.033-11.746-1.118-16.699-2.58-4.903-1.447-9.279-3.638-13.229-6.051-8.04-4.914-14.296-11.606-19.139-19.373-4.263-6.838-7.458-15.057-8.442-25.331-.144-1.492-.283-3.116-.188-4.597.099-1.544.026-3.071.094-4.55.198-4.372 1.092-8.617 2.158-12.29 2.129-7.335 5.508-13.712 9.663-19.232 4.057-5.389 9.13-10.253 14.916-13.932 3.891-2.474 8.289-4.576 13.088-6.192 4.863-1.638 10.262-2.626 16.324-2.908 6.117-.285 12.583.621 17.402 2.017 15.099 4.374 25.977 13.05 33.447 24.816z"/><path d="m110.794 64.981c-.402.653-1.176.921-1.782 1.313-1.833 1.186-3.637 2.429-5.535 3.659-1.873 1.213-3.72 2.315-5.676 3.565-.243.155-1.542 1.158-1.923 1.126-.244-.021-.543-.565-.751-.844-2.412-3.235-5.938-5.72-11.07-6.192-6.028-.554-10.396 2.213-13.181 5.488-1.886 2.217-3.395 5.155-3.472 9.053-.08 4.089 1.05 7.18 2.908 9.663 2.595 3.466 6.702 6.239 12.571 6.239 3.811 0 7.04-1.536 9.288-3.284 1.173-.912 2.021-2.068 3.143-3.096 2.665 1.523 5.24 3.206 7.834 4.831 2.595 1.627 5.281 3.089 7.787 4.832-.601 1.239-1.434 2.298-2.252 3.284-4.106 4.948-9.636 8.946-16.699 10.977-2.928.842-6.12 1.22-9.851 1.22-3.504 0-6.642-.644-9.476-1.595-2.797-.94-5.314-2.071-7.552-3.519-4.386-2.836-8.321-6.651-10.931-11.164-2.773-4.799-4.69-10.357-4.69-17.45 0-7.08 2.049-12.559 4.879-17.215 2.819-4.641 6.464-8.271 11.023-11.117 3.969-2.478 8.6-4.406 14.494-4.878.843-.067 1.84-.179 2.721-.188 6.946-.068 12.571 2.008 17.122 4.597 4.663 2.653 8.284 6.286 11.071 10.695z"/></g></svg>