<svg enable-background="new 0 0 179.072 141.921" viewBox="0 0 179.072 141.921" xmlns="http://www.w3.org/2000/svg"><g clip-rule="evenodd" fill-rule="evenodd"><path d="m149.031 28.986c-39.909.184-79.393-.268-119.04-.101-.185 3.534-.101 7.084-.101 10.579 0 10.636-.001 20.08 0 30.831 0 14.048-.059 28.095-.101 42.416-.465.023-.772-.425-1.058-.705-2.083-2.042-4.354-4.152-6.498-6.196-5.58-5.428-11.121-10.464-16.675-16.02-1.329-1.329-2.698-2.633-4.181-3.979-.466-.423-1.211-.957-1.31-1.411-.153-.703 0-1.766 0-2.72.001-13.41.051-26.432.051-39.243 0-14.373-.122-28.274.101-42.266 6.139-.407 12.866.195 19.244-.1 3.962-.184 8.745.051 12.846.05 16.962-.002 33.507.201 50.477.201 10.796.001 21.016.049 31.536.051 1.005 0 2.065-.048 3.073 0 1.002.048 2.093-.118 2.922.05.596.121 1.449 1.197 2.015 1.763 8.666 8.667 17.448 17.197 26.095 25.843.224.225.722.535.604.957z"/><path d="m149.586 29.339c.143-.041.13.071.252.05 4.933 4.656 9.689 9.488 14.559 14.206 4.303 4.131 8.583 7.979 12.897 12.292.486.487 1.59 1.29 1.713 1.864.148.703 0 1.737 0 2.67 0 2.494.05 5.324.05 7.858.001 24.173-.036 49.991-.1 73.448-.041.011-.051.052-.102.051-36.817.227-74.728.044-112.238.051-2.524 0-5.128.206-7.557 0-.742-.062-1.35-.947-1.964-1.562-3.638-3.638-7.553-7.352-11.083-10.882-4.229-4.229-8.38-8.288-12.443-12.645-.524-.668-1.266-1.118-1.763-1.813-.32-.237-.654-.553-.957-.856-.269-.269-.718-.576-.655-1.007 39.008-.051 79.876.265 118.989 0 .041-.01.05-.051.101-.051.28-27.53.044-55.208.201-83.524-.003-.085.036-.13.1-.15z"/><path d="m66.464 61.933c-1.483.183-3.211.1-4.887.101-1.689 0-3.407.121-4.836-.151-.183-3.089-.101-6.598-.101-10.025 0-1.192.114-2.309-.253-3.123-.884-1.971-5.107-2.118-5.995.101-.504 1.26-.201 3.724-.201 5.491v33.45c0 1.901-.256 4.21.251 5.39.886 2.06 5.062 1.968 5.944 0 .368-.819.253-1.929.253-3.123 0-3.316-.09-6.652.101-9.772 3.005-.181 6.662-.15 9.672 0 .292 1.288.101 2.585.101 3.879v4.029c0 2.766.199 5.399-.352 7.607-1.069 4.28-4.213 6.693-8.564 7.606-7.644 1.604-14.921-.831-16.977-6.397-.744-2.015-.705-4.435-.705-7.354 0-10.549 0-21.597 0-31.939 0-2.823-.074-5.346.05-7.959.071-1.491-.014-2.65.252-3.778.973-4.133 4.536-6.468 8.866-7.254 1.173-.213 2.547-.311 3.879-.353 6.139-.195 10.861 1.917 12.695 5.995 1.012 2.251.997 5.213.907 8.463-.081 2.948.144 6.215-.1 9.116z"/><path d="m100.771 62.033c-2.993.169-6.678.165-9.672 0-.183-3.048-.101-6.488-.101-9.874 0-1.133.152-2.331-.151-3.174-.776-2.159-5.218-2.286-6.096-.05-.48 1.222-.202 3.595-.202 5.39.001 11.074 0 22.159 0 33.299 0 1.955-.265 4.059.151 5.39.729 2.336 5.401 2.241 6.146 0 .285-.857.151-2.029.151-3.123 0-3.259-.11-6.321.101-9.521 2.991-.167 6.682-.167 9.672 0 .186 2.72.101 5.283.101 7.909 0 2.763.194 5.376-.353 7.607-1.061 4.33-4.162 6.466-8.463 7.506-4.826 1.168-10.04.245-13.199-1.763-1.627-1.035-2.828-2.445-3.627-4.383-.815-1.975-.755-4.322-.755-7.104 0-13.007-.001-26.359 0-39.646 0-2.932.184-4.904 1.209-6.75 1-1.801 2.291-2.993 4.131-3.829 1.816-.825 4.255-1.345 6.7-1.461 6.472-.306 11.335 1.64 13.4 5.692 1.132 2.222.957 5.161.958 8.463 0 3.162.082 6.444-.101 9.422z"/><path d="m130.342 39.212c.6 2.621.972 5.288 1.411 7.959 1.312 7.99 2.7 16.072 3.929 24.13.409 2.685.836 5.38 1.31 8.061 1.177 6.666 2.233 13.33 3.325 20.05.214 1.313.53 2.636.554 3.979-3.292.2-7.152.102-10.528.051-.465-1.482-.555-3.1-.806-4.685-.743-4.675-1.239-9.731-2.166-14.307-2.943-.199-6.445-.103-9.471-.051-.45 1.472-.596 3.089-.807 4.686-.524 3.986-1.091 8.025-1.612 12.09-.098.765-.113 1.577-.453 2.268-2.582.097-5.464.043-8.01.051-.867.002-1.723.061-2.469-.151.279-2.698.738-5.366 1.159-8.061 2.083-13.342 4.191-26.773 6.348-40.201.646-4.02 1.295-8.03 1.914-12.04.201-1.302.321-2.63.756-3.879 5.112-.107 10.709-.054 15.616.05zm-4.837 28.917c-.851-6.546-1.788-13.128-2.72-19.596-.05 0-.06-.041-.101-.05-.073.028-.123.079-.151.151-.377 2.133-.615 4.346-.907 6.549-.578 4.36-1.195 8.701-1.763 13.047-.284 2.173-.687 4.335-.806 6.499 2.154.166 5 .168 7.154 0-.104-2.211-.42-4.403-.706-6.6z"/></g></svg>