<svg enable-background="new 0 0 78.245 79.427" viewBox="0 0 78.245 79.427" xmlns="http://www.w3.org/2000/svg"><path clip-rule="evenodd" d="m76.629.273c.265 5.751.191 12.33.052 17.982-.046.023-.093.045-.104.104-9.012-.061-17.53.305-26.61.052-2.981-.083-5.949.126-8.939 0-3.192-.135-5.843.048-8.264.676-2.353.609-4.293 1.64-6.081 2.962-3.449 2.552-6.152 5.966-7.692 10.395-.812 2.337-1.373 5.023-1.195 7.796.177 2.761.606 5.341 1.559 7.484 1.881 4.23 4.512 7.648 8.212 9.875 1.935 1.165 3.734 2.15 6.34 2.703 2.326.494 5.689.364 8.576.364h13.461c1.262 0 3.784.232 3.794-.728.01-.961-2.578-.767-3.638-.728-4.297.158-8.304 0-12.629 0-2.947.001-6.06.126-8.419-.26-2.339-.382-4.441-1.39-6.237-2.443-5.242-3.074-9.131-8.541-9.511-16.579-.125-2.646.516-5.176 1.351-7.328 1.647-4.24 4.277-7.492 7.692-9.719 1.783-1.163 3.721-2.03 6.132-2.546 2.32-.497 5.345-.453 8.16-.416 10.912.142 22.68-.047 33.99.208.27 5.506.104 10.763.104 16.267 0 .743.123 1.541-.156 2.235-11.451.197-23.41.052-34.717.052-1.493 0-3.688-.389-4.158.831.316 1.236 2.084.884 3.43.884 4.038 0 8.478.052 12.682.052 2.959 0 5.908-.262 8.523.104 2.376.333 4.505 1.169 6.393 2.234 3.434 1.939 6.391 5.207 8.004 9.251.806 2.021 1.448 4.49 1.507 7.12.057 2.52-.335 5.162-1.195 7.432-1.53 4.038-4.228 7.389-7.64 9.615-1.771 1.155-3.656 2.089-5.977 2.65-2.339.566-4.958.572-8.056.572-5.912 0-11.488-.052-17.203-.052-5.736-.001-10.021-1.218-14.344-2.911-8.068-3.16-14.109-9.081-18.346-16.163-2.076-3.469-3.921-7.761-4.781-12.473-.897-4.911-.963-10.437 0-15.696 1.753-9.58 6.421-16.596 12.421-22.088 3.072-2.811 6.556-5.07 10.447-6.808 3.096-1.383 6.148-2.295 10.083-2.858 4.123-.59 9.27-.311 14.033-.312 8.397-.001 16.25-.083 24.323 0 1.549.016 3.121-.038 4.623.208z" fill-rule="evenodd"/></svg>