<svg enable-background="new 0 0 76.701 78.846" viewBox="0 0 76.701 78.846" xmlns="http://www.w3.org/2000/svg"><path clip-rule="evenodd" d="m76.537.116c.438 5.826-.205 11.887.097 18.28.043.906.096 1.993.049 2.998-.047 1.002.013 2.181-.097 2.902-.735.773-1.721 1.222-2.611 1.789-2.625 1.669-5.266 3.461-8.028 5.03-6.296.142-14.122.2-20.408-.048-.263-1.964-.012-4.033-.097-6.142-.078-1.949-.06-4.02.097-5.9 2.374-.308 5.323-.097 7.932-.097.872 0 1.8.159 2.466-.242-.17-.642-.882-.888-1.354-1.257-.489-.382-1.067-.717-1.596-1.016-1.113-.629-2.211-1.281-3.435-1.741-2.513-.944-5.18-1.638-8.414-1.935-6.523-.599-12.289 1.547-16.394 4.11-4.144 2.587-7.655 6.071-9.962 10.736-1.067 2.158-2.168 4.791-2.66 7.689-.259 1.527-.29 3.187-.29 4.884 0 1.619.014 3.26.338 4.836 1.135 5.522 3.682 10.21 7.109 13.638 3.513 3.513 7.667 6.179 13.154 7.544 2.97.739 6.22.987 9.285.677 6.163-.624 10.815-3.037 14.557-6.142 1.885-1.564 3.597-3.318 5.029-5.319 1.06-1.608 2.262-3.33 2.998-5.271.246-.647.411-1.348.919-1.838.938.213 1.858.635 2.757 1.016 1.776.754 3.65 1.458 5.465 2.273.882.397 1.815.681 2.564 1.257-3.04 7.548-7.563 13.378-13.59 17.99-5.751 4.401-13.444 8.026-23.503 8.028-5.167.001-9.598-.932-13.444-2.37-3.808-1.424-7.159-3.266-10.155-5.61-5.971-4.667-10.388-10.663-13.204-18.327-1.474-4.01-2.284-8.613-2.08-13.734.188-4.681 1.245-9.31 2.757-13.009 3.02-7.39 7.794-13.415 13.831-17.7 2.976-2.113 6.605-4.006 10.542-5.271 4.038-1.298 8.663-2.105 13.879-1.886 9.467.397 16.03 3.632 21.812 7.786.365.263.681.736 1.209.725.416-.562.242-1.44.241-2.225 0-1.967.049-4.058.049-6.142 0-.332-.116-.788.193-1.016 3.87-.047 8.204-.144 11.993.05z" fill-rule="evenodd"/></svg>