<svg enable-background="new 0 0 77.371 76.264" viewBox="0 0 77.371 76.264" xmlns="http://www.w3.org/2000/svg"><g clip-rule="evenodd" fill-rule="evenodd"><path d="m77.203.146c.217 8.022.099 16.529.097 25.147 0 4.029.069 8.378 0 12.573-.05 3.055.085 6.131 0 9.188-.03 1.1.174 2.261 0 3.191-.092.491-.9 1.143-1.306 1.548-3.331 3.332-6.748 6.438-9.962 9.865-.221.291-.546.546-.822.822-.24.241-.473.712-.919.58-.088-1.927-.048-3.996-.048-6.045-.001-2.041.115-4.125-.145-5.948-12.738-.35-25.556-.02-38.108-.29-.258-.975-.145-2.016-.145-3.047.001-7.199-.081-14.898.097-22.003 7.214-.175 14.787-.098 22.294-.098 1.013 0 2.056-.092 2.998.193.267 3.861-.079 8.333.194 12.187 3.95.242 8.697.199 12.719.048.161-8.056.16-16.799 0-24.905-1.006-.258-2.073-.144-3.096-.144-16.074-.002-32.162-.034-47.828-.194-.036-.435.423-.633.677-.87 1.905-1.777 3.758-3.709 5.658-5.609 1.551-1.551 3.233-3.186 4.885-4.837.526-.525 1.248-1.193 1.741-1.498 16.772-.001 34.367-.009 51.019.146z"/><path d="m12.739 13.203c.326.389.193.953.193 1.403.002 16.011-.043 32.831.049 48.505.043.021.086.042.096.097 2.044.238 4.14.038 6.239.097 6.157.172 12.631.098 19.054.097 8.567-.001 17.084.044 25.438.145.076.408-.348.686-.58.919-3.427 3.426-6.943 6.798-10.446 10.3-.418.418-1.243 1.352-1.741 1.451-.651.131-1.902-.048-2.708-.048-13.687-.002-27.764.057-41.009-.193-.252-1.765.026-4.057-.146-5.9-.951-.326-2.245-.193-3.482-.193-1.255 0-2.53.078-3.578-.097-.094-13.245-.048-27.403-.049-41.204 0-.946-.154-2.025 0-2.757.111-.521 1.062-1.207 1.5-1.644 3.671-3.67 7.264-7.278 10.977-10.881.032-.065.104-.091.193-.097z"/></g></svg>