<svg enable-background="new 0 0 28.435 30.248" viewBox="0 0 28.435 30.248" xmlns="http://www.w3.org/2000/svg"><path d="m10.657.633c6.867-2.185 14.836 1.481 17.776 8.025-1.977 2.002-3.944 4.013-5.936 5.998-.244.284-.704.327-.97.051-2.215-2.191-4.359-4.459-6.607-6.615-2.48 2.199-4.653 4.722-7.03 7.03 2.387 2.319 4.636 4.777 6.996 7.127 2.255-2.185 4.455-4.432 6.664-6.665.275-.309.746-.21.987.086 1.962 2.018 3.953 4.006 5.897 6.043-2.437 5.091-7.905 8.605-13.575 8.533-3.966-.026-7.927-1.664-10.657-4.56-3.974-4.025-5.173-10.355-3.41-15.666 1.561-4.453 5.314-8.083 9.865-9.387z"/></svg>