<svg enable-background="new 0 0 74.17 75.622" viewBox="0 0 74.17 75.622" xmlns="http://www.w3.org/2000/svg"><g clip-rule="evenodd" fill-rule="evenodd"><path d="m33.943.125c.24 3.06.145 6.209.146 9.382.001 8.03-.002 16.033 0 23.697 0 .756-.097 1.522-.049 2.273.05.77.031 1.513 0 2.273-.121 3.047.157 6.143.049 9.285-.318 9.249.326 19.093-.097 28.388-.043.021-.087.043-.097.097-5.284-.135-10.934.259-15.959-.145-4.883-.393-8.516-2.476-11.268-4.885-3.061-2.869-5.676-6.624-6.384-11.848-.241-1.782-.194-3.719-.193-5.851.001-7.895-.05-16.082-.049-23.89.001-4.22-.178-8.069.193-11.751.363-3.6 1.614-6.398 3.337-8.753 2.589-3.538 5.943-6.241 10.591-7.593 3.538-1.029 8.038-.774 12.574-.773 2.428-.003 4.846-.083 7.206.094z"/><path d="m73.985 36.25c-5.984.116-12.3.312-18.183.048-5.779-.258-9.759-2.739-12.864-5.562-3.036-2.99-5.39-6.861-5.899-12.525-.264-2.921-.049-6.074-.049-9.14 0-3.043-.015-6.069.146-8.947 5.726-.139 12.004-.162 17.748-.048 5.156.101 8.852 1.834 11.8 4.207 1.461 1.176 2.644 2.621 3.772 4.207 2.309 3.246 3.628 6.947 3.627 12.38-.001 3.823.049 7.689.048 11.558-.001 1.266.116 2.551-.146 3.822z"/><path d="m73.985 39.104c.115 3.096.257 6.121.146 9.14-.109 2.98.126 5.966-.048 8.85-.36 5.963-2.819 9.325-5.756 12.815-1.34 1.594-3.397 2.865-5.513 3.772-2.308.99-4.693 1.546-7.544 1.741-5.615.383-11.963.107-18.135.048-.179-4.486-.097-9.337-.097-13.783-.001-2.467-.035-4.652.29-6.674.911-5.672 4.259-9.894 8.222-12.67 2.82-1.976 6.15-3.13 10.59-3.337 2.706-.126 6.151-.037 9.092 0 2.961.038 5.885-.108 8.753.098z"/></g></svg>