<svg enable-background="new 0 0 85.627 83.829" viewBox="0 0 85.627 83.829" xmlns="http://www.w3.org/2000/svg"><g clip-rule="evenodd" fill-rule="evenodd"><path d="m41.289 59.363c-1.32 1.129-1.774 2.991-2.085 4.963-.787 5.003-1.061 10.544-1.24 16.277-.034 1.097.038 2.207-.248 3.226-2.55-.147-4.897-.777-7.097-1.488-5.965-1.929-10.968-4.769-15.285-8.536-.377-.329-.943-.823-.992-1.142-.09-.58.38-1.541.596-2.184 1.622-4.834 3.572-9.217 6.401-12.754 1.56-1.866 3.725-3.687 6.551-4.417 1.622-.419 3.359-.451 4.813-.049 1.404.388 2.455 1.244 3.523 1.935-1.347-2.523-4.032-4.157-7.593-4.416-3.656-.267-6.918 1.364-9.28 2.729-3.771 2.18-6.609 5.432-8.783 9.23-.734 1.282-1.201 2.683-1.985 3.97-.498-.114-.807-.62-1.092-.992-.877-1.146-1.661-2.498-2.382-3.821-2.844-5.221-5.133-11.582-5.111-19.552 1.738-.698 3.78-.939 5.855-1.291 2.106-.355 4.315-.443 6.551-.545 6.886-.313 12.937 1.484 17.121 4.168 3.95 2.533 6.722 6.299 8.486 11.116.129.354.315.896.893.844.34-.453-.022-1.029-.148-1.439-1.009-3.29-2.685-6.156-4.615-8.585-2.25-2.83-4.904-5.147-8.139-6.947-3.158-1.758-7.101-2.884-11.514-3.573-4.308-.674-9.541-.363-14.044 0-.253-1.051.063-2.132.248-3.127 1.316-7.046 4.442-12.697 8.188-17.369.297-.371.622-.66.992-1.092.263-.306.657-.974 1.092-.992.279-.013 1.077.526 1.539.794 3.432 1.986 6.438 4.499 9.181 7.047 3.273 3.041 6.071 6.359 8.585 9.926.642.91 1.148 1.938 1.737 2.928 2.876 4.835 5.237 10.088 6.947 16.178.503 1.79.927 3.649 1.39 5.559.12.493.094 1.394.943 1.34.383-.472.081-1.137 0-1.638-1.592-9.749-4.514-18.529-8.486-25.955-1.397-2.609-2.835-5.255-4.467-7.692-.529-.79-1.165-1.561-1.736-2.332-1.697-2.285-3.729-4.382-5.707-6.401-1.286-1.274-2.29-2.123-3.722-3.226-.256-.197-1.176-.792-1.191-1.092-.027-.523 1.72-1.493 2.084-1.737 5.306-3.553 11.59-6.299 19.354-7.195.695-.081.684.298.894 1.29.809 3.845 1.337 7.973 1.836 12.108.581 4.824 1.068 9.676 1.39 14.541.578 8.785.922 17.438 1.29 26.649.02.479.021 1.249.05 1.936.031.756.171 1.542.05 1.836-.231.556-1.31.508-1.638.989z"/><path d="m68.683 8.596c-.191.57-.753.769-1.142 1.142-.354.39-.765.724-1.191 1.042-5.62 5.473-10.393 12.16-13.846 19.949-2.575 5.813-4.634 12.172-5.955 19.355-.325 1.771-.616 3.54-.894 5.459-.075.527-.366 1.182 0 1.688.806-.006.794-.889.894-1.39.877-4.369 1.895-8.633 3.275-12.456 3.984-11.025 10.146-19.719 18.511-26.55 1.158-.946 2.521-1.877 3.871-2.879.396-.294 1.154-.803 1.439-.794.434.014.846.66 1.141.993.988 1.114 2.09 2.244 2.879 3.424 3.131 4.191 5.592 9.115 6.947 15.136.186.825.454 1.733.298 2.631-1.67.066-3.362-.131-5.062-.199-5.428-.217-10.464.651-14.541 1.985-5.561 1.818-9.794 5.176-12.902 9.28-1.575 2.069-2.907 4.497-3.871 7.245-.306.871-.785 1.819-.646 2.829 1.03-.07 1.055-1.442 1.34-2.184.971-2.518 2.268-4.614 3.921-6.551 2.163-2.533 4.957-4.267 8.337-5.657 3.227-1.328 7.424-2.135 11.861-2.134 3.249 0 6.596.43 9.528.942.957.167 1.938.306 2.729.744.298 9.226-2.412 16.394-5.905 22.232-.24.403-.563.809-.844 1.191-.276.378-.507.869-.992.992-.471-.592-.675-1.325-.992-1.984-.938-1.949-2.098-3.732-3.474-5.359-.47-.555-.938-1.079-1.34-1.638-1.159-1.608-2.984-2.914-4.814-3.971-2.356-1.36-5.615-2.803-9.181-2.53-3.455.263-6.023 1.713-7.443 4.317 1.084-.593 2.007-1.501 3.473-1.886 4.935-1.297 9.152 1.76 11.266 4.416 2.438 3.062 4.327 6.361 5.807 10.521.317.894.717 1.898.992 3.076.101.429.272.857.248 1.092-.078.745-1.484 1.705-2.084 2.233-4.575 4.035-10.144 6.98-17.071 8.635-1.146.273-2.32.691-3.573.596-.327-.988-.169-2.063-.248-3.126-.225-3.001-.275-6.162-.596-9.28-.2-1.943-.471-3.927-.794-5.905-.396-2.422-.801-4.846-2.383-6.055-.323-.248-1.267-.417-1.488-.794-.352-.6-.1-2.657-.1-3.771.001-8.671.117-17.92.299-26.353.104-4.896.386-9.85.793-14.59.308-3.579.594-7.091.993-10.521.125-1.072.136-2.231.645-3.176 4.421.251 8.849 1.665 12.308 3.026 1.794.706 3.641 1.455 5.161 2.432 1.555 1.003 3.169 1.881 4.416 3.13z"/></g></svg>