<svg enable-background="new 0 0 73.06 68.284" viewBox="0 0 73.06 68.284" xmlns="http://www.w3.org/2000/svg"><path clip-rule="evenodd" d="m53.271.073c.963 1.152 1.674 2.457 2.449 3.697 1.959 3.135 3.841 6.266 5.812 9.559.287.481 1.153 1.447 1.105 1.922-.037.359-.946.754-1.393 1.008-3.544 2.023-8.19 3.172-13.592 3.17-2.767 0-5.928-.25-9.03-.432-3.027-.178-6.208-.475-8.646.336-2.375.791-4.283 1.881-6.004 3.603-2.314 2.315-4.167 5.539-4.371 9.99-.213 4.654 1.657 8.008 3.794 10.518 1.513 1.777 3.465 2.869 5.764 3.844 2.155.912 5.367 1.32 8.357.816 1.169-.197 2.366-.754 3.506-1.297 3.075-1.465 5.652-4.248 6.917-7.398.988-2.461 1.863-4.557 2.882-6.723 1.048-2.229 1.834-4.426 3.074-6.484 2.088-3.471 4.546-6.426 7.877-8.887.348-.256 1.151-.891 1.489-.863.287.023.662.691.769.863 2.9 4.66 5.654 9.23 8.501 13.93.19.314.533.762.528 1.057-.008.537-.841 1.646-1.153 2.209-2.778 5.006-5.685 10.182-8.405 15.033-.835 1.488-1.552 2.976-2.402 4.324-.861 1.365-1.86 2.57-2.881 3.793-4.021 4.818-9.444 8.4-16.811 9.943-3.753.785-8.215.924-12.248.24-7.501-1.274-13.291-4.555-18.012-8.742-4.772-4.23-8.132-9.914-10.039-16.715-.495-1.766-.755-3.791-.96-5.764-.449-4.312.174-8.635 1.057-12.103.909-3.572 2.469-6.504 4.035-9.365.772-1.412 1.768-2.699 2.786-3.891 2.112-2.475 4.384-4.623 7.061-6.293 4.194-2.613 8.932-4.465 15.274-4.803 7.508-.398 15.337.057 22.91-.095z" fill-rule="evenodd"/></svg>