<svg enable-background="new 0 0 65.121 77.717" viewBox="0 0 65.121 77.717" xmlns="http://www.w3.org/2000/svg"><g clip-rule="evenodd" fill-rule="evenodd"><path d="m.678 48.797c.556.287.592.963.817 1.441.693 1.477 1.679 2.824 2.593 4.178 1.189 1.762 2.641 3.33 4.275 4.707 3.3 2.781 7.022 4.943 12.056 5.957 11.785 2.371 20.552-2.967 25.792-9.031 2.373-2.709 4.082-5.836 5.332-9.701 1.211-3.746 1.584-8.838.624-13.209-.459-2.09-.972-3.941-1.825-5.666-2.484-5.025-6.06-8.861-10.807-11.672-3.27-1.938-6.589-3.312-11.335-3.65-2.399-.172-4.746-.064-6.964.336-2.063.371-3.953 1.07-5.716 1.777-5.262 2.111-9.256 5.803-12.2 10.277-.767 1.166-1.394 2.275-1.969 3.65-.164.391-.223.967-.721 1.154-.257-.756-.144-1.607-.144-2.402 0-5.605-.097-11.527-.048-17.387 1.442-1.476 3.16-2.643 4.899-3.746.869-.553 1.819-1.068 2.786-1.537.958-.465 1.936-.984 2.93-1.393 2.101-.867 4.319-1.439 6.676-1.971 1.19-.267 2.401-.537 3.65-.672 9.193-.99 17.436 1.209 23.247 4.562 1.308.756 2.612 1.418 3.794 2.209 3.525 2.359 6.605 5.34 9.126 8.742 2.617 3.316 4.548 7.316 5.956 11.959 1.357 4.478 2.192 10.35 1.153 15.803-.26 1.363-.37 2.642-.672 3.842-2.063 8.193-6.129 14.725-11.527 19.742-1.394 1.524-3.143 2.793-4.995 3.986-1.787 1.15-3.603 2.445-5.668 3.266-2.153.855-4.234 1.801-6.628 2.353-4.663 1.074-11.06 1.389-16.186.481-6.354-1.127-11.379-3.402-15.85-6.484-.874-.604-1.823-1.182-2.45-2.018-.094-4.865-.096-10.131-.096-15.178-.001-1.623-.161-3.222.095-4.705z"/><path d="m37.902 16.377c.167 4.111-.086 8.162.048 12.439.043 1.371.161 2.729-.096 4.035-.473-.588-.771-1.234-1.153-1.826-1.167-1.805-2.673-3.123-4.755-4.082-1.283-.59-2.855-1.219-4.563-1.346-1.721-.127-3.66.045-5.283.578-2.908.951-5.228 2.502-6.916 4.85-1.646 2.291-2.845 5.238-2.594 9.078.198 3.023 1.873 5.895 3.458 7.637 1.855 2.037 4.135 3.281 7.157 3.939 3.432.748 6.749.037 9.174-1.25 1.797-.953 3.265-2.332 4.371-3.986.35-.523.619-1.164 1.153-1.584.257 1.283.144 2.676.144 4.082 0 4.105.024 8.449 0 12.344-1.691 1.262-3.793 1.98-6.1 2.545-2.321.57-5.047.912-7.829.625-4.979-.512-9.447-2.158-12.824-4.418-3.356-2.248-6.251-5.316-8.261-9.031-2.086-3.855-3.307-8.334-2.978-14.264.198-3.566 1.419-6.647 2.738-9.27 1.346-2.68 3.061-4.953 5.091-6.869 3.944-3.678 9.554-6.926 16.763-7.35 4.063-.238 7.795.523 10.615 1.682.961.398 1.951.753 2.64 1.442z"/><path d="m22.916 50.19c-.046-2.799-.131-6.178 0-8.693.704.109.901.559 1.441.77 3.406 1.33 6.674-2.367 4.803-5.572-.823-1.408-2.914-2.285-4.899-1.297-.472.234-.82.666-1.345.77-.142-2.959-.219-6.102-.048-9.031 4.397-1.23 9.22.399 11.624 2.93 1.744 1.838 3.417 4.365 3.65 7.399.17 2.213-.198 4.189-.961 5.859-.744 1.627-1.508 3.006-2.594 4.227-1.305 1.469-3.883 2.73-6.484 3.121-1.925.287-3.834.472-5.187-.483z"/></g></svg>