<svg enable-background="new 0 0 47.47 69.162" viewBox="0 0 47.47 69.162" xmlns="http://www.w3.org/2000/svg"><path clip-rule="evenodd" d="m47.312 66.262c-2.082 1.178-4.536 1.747-7.181 2.361-2.628.61-5.756.647-8.868.385-5.691-.479-10.573-2.311-14.361-4.723-3.865-2.46-7.372-5.323-10.024-9.06-2.668-3.76-4.844-7.85-5.928-13.108-.582-2.827-1.089-5.41-.915-8.53.499-8.955 3.493-15.556 7.759-20.819 2.857-3.526 6.275-6.61 10.314-8.771 3.119-1.669 6.625-2.991 10.699-3.614 3.764-.576 8.793-.517 12.338.289 1.715.39 3.318.949 4.867 1.494.486.171 1.07.252 1.397.674.17 21.166-.064 42.151-.097 63.422zm-31.181-50.941c-4.773 2.4-8.196 6.029-10.313 10.989-1.025 2.403-1.879 5.687-1.639 8.964.258 3.512 1.039 6.015 2.072 8.578.997 2.473 2.643 4.331 4.482 6.169 3.48 3.479 8.462 6.157 15.229 6.12 4.995-.026 9.057-1.801 12-3.951 1.028-.751 1.899-1.658 2.795-2.555 1.772-1.773 3.105-4.004 4.193-6.458 1.129-2.546 1.644-5.549 1.59-9.012-.026-1.684-.271-3.211-.626-4.675-.346-1.424-.941-2.66-1.446-3.903-.473-1.162-1.273-2.451-1.928-3.374-1.061-1.494-2.42-3.107-3.807-4.192-3.366-2.633-7.965-5.056-13.928-4.772-3.399.162-6.267.862-8.674 2.072z" fill-rule="evenodd"/></svg>