<svg enable-background="new 0 0 81.65 82.73" viewBox="0 0 81.65 82.73" xmlns="http://www.w3.org/2000/svg"><g clip-rule="evenodd" fill-rule="evenodd"><path d="m75.373 76.443c-3.227 3.143-7.547 5.773-13.557 6.223-6.438.48-11.289-1.773-14.926-4.654-1.613-1.569-3.164-3.263-4.502-5.363-.293-.461-.85-1.907-1.365-1.922-.49-.014-1.076 1.39-1.418 1.922-2.943 4.593-7.695 8.083-13.76 9.41-8.609 1.884-15.549-1.79-19.629-5.97-3.987-4.357-7.563-11.14-5.716-19.782 1.131-5.29 4-9.283 7.588-12.293.496-.417 1.201-.977 1.924-1.417.547-.334 1.912-.894 1.922-1.365.006-.385-.914-.843-1.266-1.062-1.445-.903-2.916-1.914-3.945-3.036-3.879-3.814-6.746-9.014-6.627-16.442.057-3.61 1.117-6.576 2.478-9.106 1.368-2.543 3.04-4.802 5.059-6.476 3.344-2.94 7.569-4.78 13.457-5.06.08-.003.09-.05.153-.05 5.23-.019 9.25 1.67 12.394 3.794 2.738 1.85 5.088 4.339 6.779 7.387.242.435.521 1.15.859 1.163.508.019 1.164-1.655 1.367-1.973 2.907-4.572 7.45-8.187 13.558-9.511 3.941-.854 8.455-.335 11.535.86 6.238 2.42 10.668 6.961 12.85 13.559 1.098 3.312 1.455 7.673.557 11.534-1.223 5.263-3.981 9.179-7.639 12.143-.539.436-1.186.929-1.922 1.365-.521.309-1.908.836-1.924 1.366-.014.528 1.34 1.112 1.873 1.467 4.543 3.025 8.086 7.436 9.41 13.609 1.82 8.494-1.27 15.471-5.567 19.68zm-31.466-61.316c-.678-.357-1.869-1.343-2.682-1.317-.336.012-.955.382-1.365.608-2.248 1.236-4.156 2.386-6.324 3.592-.695.387-1.879 1.456-2.682 1.315-.391-.068-.67-.733-.859-1.214-.656-1.666-1.453-2.696-2.682-3.693-1.637-1.217-3.443-2.255-6.424-2.023-2.463.191-4.316 1.382-5.818 2.884-1.406 1.405-2.551 3.507-2.58 5.97-.049 3.891 1.99 6.701 4.754 8.499.588.307 1.404.385 1.67 1.012-1.592 3.167-3.297 5.964-5.109 9.005-.268.448-.621.961-.607 1.417.027.84.947 1.967 1.367 2.681 1.121 1.912 1.856 3.341 2.934 5.262.32.572 1.506 2.007 1.314 2.682-.109.391-1.482.892-1.922 1.163-1.91 1.183-3.402 2.772-4.047 5.211-1.027 3.883.225 7.25 2.277 9.259 2 1.957 5.418 3.5 9.156 2.276 2.199-.721 3.91-2.151 5.109-4.149.295-.49.711-1.808 1.266-1.872.342-.04 1.072.409 1.416.607 2.723 1.571 4.981 2.942 7.69 4.451.396.221 1.01.66 1.365.658.342-.002.937-.38 1.367-.607 2.234-1.181 4.193-2.341 6.273-3.592.49-.295 1.998-1.361 2.631-1.214.424.099.637.794.859 1.265.723 1.526 1.729 2.691 2.883 3.541 1.586 1.167 3.822 2.021 6.881 1.619 2.418-.318 4.09-1.752 5.363-3.238 1.322-1.542 2.289-3.732 2.074-6.525-.137-1.763-.684-3.167-1.518-4.401-.744-1.1-2.129-2.458-3.187-3.087-.424-.251-1.715-.536-1.822-1.112-.078-.427.33-1.023.557-1.417 1.244-2.157 2.422-4.241 3.543-6.323.445-.832 1.07-1.634 1.314-2.682-.584-1.82-1.848-3.325-2.732-5.16-.406-.845-.791-1.724-1.314-2.631-.291-.503-1.42-2.045-1.266-2.631.168-.629 1.342-.715 1.973-1.062.637-.35 1.189-.936 1.721-1.467 1.613-1.613 2.951-3.712 2.934-6.729-.017-3.635-1.742-5.854-3.793-7.487-.326-.26-.576-.589-.861-.759-1.141-.683-2.672-1.04-4.197-1.062-4.172-.064-6.705 2.356-8.146 5.009-.291.537-.453 1.252-1.062 1.618-2.827-1.219-5.005-2.743-7.692-4.15z"/><path d="m55.34 25.346c3.572 3.28 6.602 7.926 7.133 14.317.596 7.161-2.1 12.381-5.262 16.087-3.551 3.749-7.729 6.601-14.316 7.134-8.473.685-14.74-3.39-18.566-8.044-.398-.483-.656-1.09-1.012-1.67-1.684-2.744-2.986-5.972-3.441-9.966-.387-3.419.207-6.766 1.215-9.309 1.035-2.608 2.244-4.867 3.896-6.83 3.998-4.407 10.481-8.422 19.527-6.981 4.469.712 8.15 2.889 10.826 5.262zm-19.275 8.246c-2.275 1.522-4.16 4.276-4.148 7.942.006 1.435.33 2.666.859 3.795 1.354 2.875 4.406 5.375 8.299 5.362 2.459-.008 4.633-.948 6.223-2.479 1.434-1.382 2.744-3.232 2.984-5.717.229-2.364-.363-4.079-1.113-5.515-1.443-2.764-4.428-5.188-8.65-4.856-1.954.153-3.317.708-4.454 1.468z"/></g></svg>