<svg enable-background="new 0 0 76.689 58.407" viewBox="0 0 76.689 58.407" xmlns="http://www.w3.org/2000/svg"><path clip-rule="evenodd" d="m68.837 26.076c.284-1.325-.088-3.308.195-4.633.502-.005.741.53 1.024.829 2.132 2.254 4.611 4.451 6.632 6.876-.469.8-1.216 1.362-1.853 1.999-.642.643-1.202 1.366-1.902 1.951-.614.67-1.317 1.252-1.902 1.95-.356.257-.646.646-.976.976-.294.294-.605.768-1.073.731-.138-1.515-.019-2.998-.146-4.535-.712-.228-1.499-.195-2.243-.195-5.586 0-11.375 0-16.922 0-3.553 0-5.871.288-7.998 1.707-1.931 1.288-3.381 3.024-4.145 5.56-.866 2.873-.266 6.136.829 7.998 1.208 2.054 2.884 3.56 5.169 4.535 1.303.557 2.514.83 4.096.78 2.929-.092 5.078-1.413 6.73-2.975.29-.273.777-.834 1.122-1.317.243-.34.625-1.346.976-1.414.329-.064 1.039.444 1.268.586.801.494 1.388.836 2.341 1.365.344.19.967.473 1.024.78.068.372-.423 1.058-.683 1.463-1.948 3.045-4.724 5.237-8.388 6.535-4.749 1.681-10.403.466-13.411-2-3.172-2.193-6.117-5.502-6.877-10.192-.431-2.661-.371-5.269.293-7.559.325-1.121.706-2.113 1.17-3.072.458-.946 1.15-1.704 1.512-2.634-.645-.321-1.448-.228-2.146-.195-2.233.104-4.571.001-6.925 0-3.159 0-6.316.056-9.168 0-3.113-.061-5.332.795-7.12 2.243-1.695 1.374-3.03 3.282-3.56 5.755-.648 3.023.204 5.774 1.366 7.607 1.245 1.964 3.035 3.352 5.218 4.146 4.199 1.528 8.233-.138 10.485-2.39.771-.771 1.293-1.739 2.048-2.584.915.251 1.656.87 2.439 1.316.794.453 1.706.758 2.292 1.463-.872 2.104-2.457 3.878-4.243 5.267-1.8 1.401-3.889 2.492-6.437 3.023-6.088 1.27-11.082-1.224-14.143-4.096-.827-1.253-1.92-2.35-2.683-3.756-1.381-2.546-2.648-6.499-1.902-10.484.691-3.691 2.264-6.115 4.291-8.534.96-1.144 2.246-2.092 3.56-2.829 2.049-1.149 4.53-1.87 7.608-1.999.967-.041 1.981.139 3.023-.146-.075-.681-.598-1.2-.927-1.756-.958-1.618-1.782-3.79-1.999-6.193-.632-7.019 2.429-12.119 6.586-15.069 1.144-.811 2.24-1.353 3.56-1.901 1.345-.559 2.923-.906 4.633-1.025 3.766-.26 6.983.987 9.314 2.487 1.204.774 2.314 1.627 3.219 2.683.898 1.048 1.872 2.147 2.194 3.608-.409.73-1.221 1.071-2.048 1.512-.329.175-.729.365-1.171.634-.298.182-.861.629-1.17.585-.394-.055-1.006-1.423-1.219-1.706-1.992-2.649-6.137-4.948-10.68-3.707-3.714 1.016-6.634 3.612-7.559 7.511-1.173 4.941 1.21 8.76 3.998 10.68 1.638 1.128 3.117 1.75 5.852 1.805 9.913.197 20.597-.132 30.089.098 2.477.059 5 .07 7.463-.148z" fill-rule="evenodd"/></svg>