<svg enable-background="new 0 0 77.993 43.845" viewBox="0 0 77.993 43.845" xmlns="http://www.w3.org/2000/svg"><path clip-rule="evenodd" d="m56.057.009c4.003-.132 7.91 1.19 10.58 2.721 2.881 1.651 5.208 3.671 7.103 6.196 1.784 2.377 3.43 5.643 3.98 9.32.596 3.989.22 8.191-1.159 11.537-2.521 6.119-7.503 10.576-13.804 12.796-3.256 1.147-7.874 1.329-11.738.555-3.651-.731-6.414-2.355-8.968-4.282-1.174-1.362-2.671-2.4-3.829-3.778-.972-.869-1.875-1.805-2.922-2.771-.335-.309-.66-.796-1.058-.806-.62-.016-1.371.976-1.764 1.36-.604.592-1.034 1.053-1.612 1.512-2.054 2.11-4.115 4.214-6.197 6.297-.596.606-.939 1.039-1.511 1.612-.476.476-1.001 1.277-1.663 1.461-.964.268-2.365-.031-3.477-.201-3.321-.507-5.844-1.782-8.111-3.174-3.196-1.963-5.494-4.591-7.356-7.658-1.987-3.273-2.73-7.643-2.519-12.443.195-4.442 1.944-8.286 3.93-11.084 1.917-2.7 4.986-5.382 8.212-6.851 2.561-1.167 5.539-2.068 9.068-2.217 1.106-.047 2.229.148 3.426.303 6.595.848 10.459 4.461 14.358 8.161.569.541 1.282 1.168 1.914 1.864.474.522 1.202 1.792 1.914 1.814.491.015 1.312-.992 1.763-1.41 2.82-2.621 5.242-5.143 8.01-7.809.471-.453 1.059-.985 1.612-1.562.576-.597 1.087-1.348 1.818-1.463zm-24.485 19.446c-.917-.883-1.817-1.764-2.72-2.721-1.861-1.969-4.62-4.222-8.565-3.576-2.647.433-4.768 1.982-5.996 3.678-1.593 2.199-2.125 5.961-.907 8.766.941 2.166 3.043 4.308 5.642 4.987 1.04.272 2.247.151 3.476.151 3.842 0 7.311-.015 11.084 0 1.71-1.352 3.151-2.857 4.686-4.534 1.045-1.141 2.411-2.211 3.426-3.526.284-.368.768-1.149 1.159-1.159.456-.011 1.448 1.232 1.813 1.612.665.692 1.111 1.251 1.663 1.764 2.343 2.177 4.325 5.01 7.96 5.743 4.346.877 7.811-1.547 9.371-4.081.888-1.441 1.556-3.378 1.31-5.441-.234-1.964-1.069-3.7-2.015-4.836-.959-1.15-2.416-2.382-3.98-2.922-1.115-.385-2.771-.303-4.282-.303-2.549.001-4.779 0-7.355 0-1.203.001-2.673-.196-3.678.051-.935.23-1.678 1.439-2.317 2.166-.742.845-1.597 1.579-2.268 2.268-.777.799-1.484 1.585-2.216 2.317-.738.738-1.403 1.603-2.418 2.116-1.152-.612-1.964-1.644-2.873-2.52z" fill-rule="evenodd"/></svg>