<svg enable-background="new 0 0 72.972 74.102" viewBox="0 0 72.972 74.102" xmlns="http://www.w3.org/2000/svg"><path clip-rule="evenodd" d="m72.849.194c.179 9.743.098 20.093.097 30.177 0 .615.107 1.264-.146 1.837-5.771.205-11.875.048-17.699 0-.555-1.34-.989-2.688-1.644-3.917-2.463-4.617-6.521-8.539-12.332-9.816-1.541-.339-3.17-.591-4.933-.581-6.918.039-11.483 3.296-14.701 7.399-1.682 2.143-2.912 4.716-3.482 7.592-1.401 7.066 1.208 13.148 4.595 16.733 2.035 2.308 4.604 4.264 7.882 5.416 3.369 1.185 7.779 1.355 11.462.242 4.898-1.482 8.839-4.626 11.123-8.802.4-.731.81-1.432 1.112-2.225.296-.779.475-1.609.919-2.369 5.634-.188 12.048-.036 17.699 0 .259.602.146 1.296.146 1.934-.001 3.996 0 8.155 0 12.235 0 .653-.115 1.303-.097 1.935.113 3.98.097 8.041.097 12.139 0 1.324.116 2.646-.146 3.917-24.036.13-48.633.055-72.686-.193-.175-23.646-.099-47.884-.097-71.767 0-.679-.087-1.432.194-2.079 23.954-.008 48.377.056 72.637.193zm-63.11 9.333c-.427.521-.242 1.32-.242 1.983.001 5.22-.178 10.73.049 15.766.515-.289.594-.941.773-1.402.2-.51.439-1.024.677-1.499 3.141-6.246 7.886-11.123 14.363-13.928.474-.205 1.11-.284 1.451-.774-5.376-.259-11.596-.213-17.071-.146zm45.362.097c-2.781.001-6.196-.118-8.898 0-.136.32.335.378.483.436 4.037 1.578 7.425 3.979 10.107 6.867 2.58 2.777 4.702 5.842 6.189 9.623.197.502.362 1.095.774 1.5.193-4.115.144-8.475.145-12.961.001-1.852.117-3.685-.145-5.319-2.689-.255-5.657-.146-8.655-.146zm-29.983 53.583c-7.363-3.439-12.393-9.107-15.379-16.878-.049.001-.058-.039-.097-.048-.003-.029-.007-.058-.048-.048-.012.068-.08.081-.098.144-.048 5.739-.144 11.944.049 17.604 1.303.257 2.732.145 4.159.145h4.352c2.914 0 5.826.095 8.367-.097-.302-.456-.861-.614-1.305-.822zm38.736-4.111c-.045-4.359.133-8.671-.097-12.815-.032 0-.064 0-.097 0-.061.02-.1.062-.098.145-2.982 7.715-7.973 13.687-15.378 16.878-.468.201-1.103.258-1.402.773 5.697.211 11.499.252 16.975.098.218-1.633.115-3.348.097-5.079z" fill-rule="evenodd"/></svg>