<svg enable-background="new 0 0 77.752 69.659" viewBox="0 0 77.752 69.659" xmlns="http://www.w3.org/2000/svg"><g clip-rule="evenodd" fill-rule="evenodd"><path d="m77.111 28.568c-1.853.212-3.73.099-5.578.099-5.651-.001-11.143-.049-16.981-.05-6.667 0-13.131-.031-19.696-.099-.876-.009-2.126.167-2.813-.049-.501-.158-.829-1.112-1.185-1.728-3.2-5.537-6.362-10.747-9.577-16.34-.71-1.235-1.631-2.452-1.925-3.85-.725-3.446 2.167-6.256 5.035-6.467 2.647-.194 5.379-.003 8.046.049 5.38.106 10.669.1 16.093.099 2.692 0 5.439-.201 8.046 0 3.394.262 5.64 2.749 7.208 5.035 1.719 2.507 3.017 5.252 4.542 7.701 1.583 2.543 3.071 5.119 4.591 7.651 1.145 1.908 2.213 3.871 3.307 5.874.347.642.897 1.292.887 2.075z"/><path d="m16.64 4.726c.042-.009.047.019.049.05.312.404.229 1.06.296 1.629.191 1.598.826 2.902 1.58 4.097 1.001 1.588 1.924 3.145 2.814 4.788 1.757 3.245 3.74 6.358 5.627 9.577 3.27 5.577 6.511 11.18 9.873 16.734.484.8 1.056 1.612 1.234 2.567.036.617-.416 1.058-.691 1.53-3.472 5.964-7.084 11.774-10.712 17.771-.55.91-1.027 1.964-1.678 2.666-1.159 1.249-3.175 2.281-5.43 1.728-1.958-.48-3.08-1.842-4.048-3.406-2.006-3.24-3.716-6.256-5.578-9.33-2.791-4.606-5.489-9.355-8.293-14.069-.907-1.524-1.612-3.614-1.679-5.726-.054-1.713.447-3.51 1.086-4.789.674-1.348 1.433-2.572 2.123-3.752 2.932-5.013 5.747-9.744 8.787-14.71 1.057-1.727 2.136-3.645 3.258-5.529.372-.624.746-1.347 1.234-1.728.036-.046.09-.075.148-.098z"/><path d="m77.752 39.972c-.015.656-.413 1.243-.74 1.777-2.277 3.71-4.504 7.591-6.812 11.354-.643 1.048-1.382 2.088-2.024 3.208-.622 1.086-1.229 2.234-1.925 3.258-1.409 2.075-2.521 4.455-4.097 6.269-1.633 1.88-3.574 3.475-6.713 3.703-3.135.228-6.762.069-10.268 0-6.877-.135-13.917.085-20.536-.198-.005-.376.486-.531.79-.74.327-.226.598-.487.888-.692 1.724-2.072 2.997-4.544 4.393-6.96.676-1.169 1.441-2.324 2.172-3.504 2.17-3.506 4.17-6.911 6.368-10.564.343-.57.676-1.197 1.037-1.827.336-.585.781-1.114 1.086-1.728.277-.557.543-1.219.938-1.876.396-.66.866-1.518 1.382-1.728 10.617-.052 21.508.049 32.136.05.627 0 1.35-.132 1.925.198z"/></g></svg>