<svg clip-rule="evenodd" fill-rule="evenodd" stroke-linejoin="round" stroke-miterlimit="2" viewBox="0 0 560 400" xmlns="http://www.w3.org/2000/svg"><path d="m418.32 0c-26.09 0-47.27 21.18-47.27 47.26 0 26.09 21.18 47.27 47.27 47.27s47.26-21.18 47.26-47.27c.01-26.08-21.17-47.26-47.26-47.26zm-236.64 0c26.09 0 47.27 21.18 47.27 47.26 0 26.09-21.18 47.27-47.27 47.27s-47.26-21.18-47.26-47.27c-.01-26.08 21.17-47.26 47.26-47.26zm118.32 116.09c25.45 0 46.12 20.67 46.12 46.12s-20.67 46.12-46.12 46.12-46.12-20.67-46.12-46.12 20.67-46.12 46.12-46.12zm0-38.93-84.73 84.74 84.73 83.21 84.73-83.21zm-32.14 390.61v-188.99l-52.91-52.08v241.07h-64.27v-304.27h-.18l.12-.12-150.62-148.27h65.79l117.61 115.5 116.6-116.61 116.6 116.6 117.61-115.5h65.79l-150.63 148.28.12.12h-.18v304.27h-64.27v-241.07l-52.91 52.08v188.99z" transform="matrix(.427561 0 0 .427561 151.732 100)"/></svg>