<svg enable-background="new 0 0 76.459 82.075" viewBox="0 0 76.459 82.075" xmlns="http://www.w3.org/2000/svg"><path clip-rule="evenodd" d="m76.221 26.974c-1.214.1-1.275-1.293-1.576-1.982-1.088-2.484-2.552-4.777-4.017-6.914-3.947-5.756-9.394-9.943-16.269-12.914-3.441-1.486-7.502-2.379-12.101-2.389-.007.688.467 1.226.763 1.779.898 1.678 1.746 3.465 2.644 5.185 1.801 3.451 3.546 6.842 5.389 10.32.606 1.145 1.345 2.289 1.78 3.457.903 2.428 2.32 4.678 3.508 6.967s2.454 4.562 3.609 6.863c2.332 4.639 4.721 9.236 7.118 13.828 1.193 2.285 2.341 4.58 3.609 6.812 1.558.188 3.287-.105 4.779.152-.077.875-.589 1.639-.967 2.389-2.637 5.246-6.403 9.662-10.879 13.168-2.539 1.988-5.44 3.662-8.644 5.084-3.197 1.42-6.793 2.525-10.727 3-13.47 1.623-23.977-3.721-30.861-9.863-1.223-1.09-2.228-2.295-3.305-3.559-5.23-6.143-9.132-13.969-9.964-24.402-.351-4.389.151-8.74 1.067-12.457 1.343-5.443 3.795-10.033 6.559-14.031 4.634-6.703 10.993-11.898 19.218-15.1 1.692-.66 3.464-1.127 5.338-1.525 1.947-.414 4.015-.709 6.254-.814 2.244-.105 4.515.101 6.66.254 6.241.449 11.586 2.289 16.015 4.627 2.913 1.539 5.679 3.49 8.134 5.645 1.752 1.535 3.535 3.256 4.983 5.338.495.713 1.229 1.533 1.372 2.236.265 1.305.267 2.934.406 4.475.104 1.129.227 2.213.306 3.355.023.315.137.817-.201 1.016zm-65.839 30.963c.698-1.074 1.148-2.303 1.729-3.457 1.75-3.483 3.501-6.869 5.236-10.32 5.763-11.463 11.713-22.895 17.438-34.471.927-1.873 2.202-4.129 3.051-6.051.157-.355.374-.764-.152-.762-1.563.008-3.477.502-5.033.916-9.097 2.407-15.511 7.418-20.387 13.879-.832 1.101-1.464 2.305-2.188 3.559-2.719 4.711-4.887 10.449-5.338 17.539-.237 3.734.073 7.248.712 10.525.614 3.146 1.439 6.09 2.796 8.643.59.123 1.559.172 2.136 0zm27.047-49.519c-.619.848-1.1 2.004-1.627 3.051-3.104 6.174-6.305 12.291-9.456 18.303-.548 1.045-1.16 2.072-1.424 3.152 7.974.207 16.367.092 24.251.051.507-.002 1.066.113 1.525-.152-.334-1.125-.98-2.129-1.525-3.152-2.721-5.115-5.486-10.18-8.186-15.252-1.086-2.043-2.071-4.133-3.355-6.051-.002-.031-.007-.059-.051-.051-.06.024-.114.054-.152.101zm-13.218 25.828c-1.2 1.766-2.028 3.902-3.101 5.795-2.218 4.512-4.619 8.885-6.812 13.32-.736 1.488-1.645 2.922-2.187 4.525.774.379 2.352-.047 3.152.305.168.242.149.934-.051 1.119-1.935.184-4.352-.115-6.202.152.117.857.654 1.574 1.066 2.287.414.715.771 1.508 1.17 2.186.725 1.232 1.714 2.436 2.644 3.508.948 1.096 1.889 2.275 3.102 3.051.887.088 2.111.08 3 0 .941-1.383 1.648-2.924 2.389-4.422 2.257-4.564 4.587-9.045 6.864-13.574 2.656-5.285 5.342-10.611 7.982-15.863.372-.74.883-1.484.966-2.338-4.442-.204-9.457-.102-13.982-.051zm17.336 0c-.153.521.24 1.064.458 1.475.26.488.527.955.763 1.422 3.128 6.223 6.567 12.41 9.659 18.557.258.516.379 1.041.61 1.576.485 1.125 1.166 2.193 1.729 3.305 1.146 2.262 2.349 4.457 3.457 6.66.562 1.119 1.027 2.295 1.83 3.254.993.006 1.96.049 2.949.051.781.002 2.051.15 2.694-.051.384-.119.827-.725 1.221-1.117 2.036-2.037 3.731-4.238 5.236-6.609.636-1.002 1.204-2.084 1.576-3.203-.811-.271-1.776-.152-2.695-.152-2.754-.002-5.773-.021-8.389-.152-.139-.289-.139-.832 0-1.119.28-.211 1.016.033 1.17-.305-.01-.562-.368-1.041-.61-1.525-1.757-3.516-3.709-6.855-5.49-10.32-1.014-1.971-2.063-3.955-3.152-5.898-.54-.963-1.103-1.975-1.525-3-.422-1.02-.858-2.074-1.627-2.896-3.272.029-6.678-.073-9.864.047zm-3.66 3.609c-1.985 3.914-4.069 7.748-5.948 11.642-.633 1.311-1.514 2.533-1.933 3.965.645.268 1.384.152 2.085.152h10.574c1.307 0 2.627.088 3.813-.203-.114-.721-.518-1.389-.864-2.033-2.12-3.943-4.334-7.773-6.355-11.795-.275-.549-.724-1.822-1.22-1.881-.073.028-.124.079-.152.153zm-8.643 17.031c-2.1 3.771-4.071 7.705-6 11.541-.656 1.305-1.429 2.559-1.881 3.965.485.363 1.724-.027 2.288.254.136.301.164.935-.051 1.17-1.48.182-3.434-.111-4.83.152.097.455.573.746.915 1.018.359.283.757.557 1.119.812 5.098 3.623 11.978 6.559 20.488 6.559 5.008 0 9.159-1.086 12.964-2.49 3.182-1.176 6.218-2.986 8.644-4.881.334-.262.843-.547.915-1.018-2.503-.184-5.514-.102-8.135-.102-.911 0-1.847.115-2.643-.152-.165-.229-.139-.883 0-1.119.648-.199 1.871.178 2.288-.254.046-.512-.339-.9-.56-1.32-.481-.916-.923-1.844-1.373-2.695-.248-.471-.388-.926-.61-1.424-.378-.852-.918-1.646-1.372-2.492-.46-.854-.868-1.744-1.321-2.592-.911-1.701-1.781-3.41-2.797-4.982-5.792-.04-12.192-.143-18.048.05z" fill-rule="evenodd"/></svg>