<svg enable-background="new 0 0 15.476 15.262" viewBox="0 0 15.476 15.262" xmlns="http://www.w3.org/2000/svg"><path d="m.001.002c5.146-.004 10.292-.002 15.439-.001.009.01.026.031.034.041 0 5.072-.002 10.144.001 15.215-3.026.009-6.053.001-9.079.004-2.132 0-4.264.003-6.396-.001.001-5.086 0-10.172.001-15.258zm7.6.84c-.218.034-.441-.001-.657.052-.154.004-.303.047-.455.067-1.304.254-2.542.883-3.489 1.818-1.073 1.016-1.784 2.4-2.002 3.86-.009.182-.064.36-.056.544-.005.335-.004.67.002 1.005.051.443.118.887.248 1.316.355 1.227 1.07 2.346 2.028 3.188.788.701 1.74 1.214 2.758 1.488.401.108.81.19 1.225.214.266.049.538.02.806.028.241.01.478-.045.718-.057.707-.1 1.401-.302 2.047-.607.775-.37 1.481-.883 2.069-1.51.945-.999 1.572-2.294 1.767-3.655.004-.072.005-.143.005-.215-.71-.002-1.42.004-2.13-.003-.028.06-.049.123-.055.19-.202 1.02-.772 1.958-1.568 2.624-.683.579-1.537.948-2.423 1.068-.126-.003-.246.042-.372.037-.242-.001-.488.02-.727-.021-.893-.077-1.762-.424-2.467-.978-.251-.187-.462-.42-.677-.645-.597-.697-.986-1.575-1.089-2.488.004-.165-.045-.325-.036-.49-.013-.184.039-.363.034-.546.12-1.154.701-2.252 1.583-3.005.686-.601 1.552-.991 2.454-1.111.305-.055.616-.039.923-.039 1.392.064 2.74.786 3.559 1.915.303.402.521.86.689 1.332.73-.001 1.459-.003 2.189.001.006-.085-.002-.169-.032-.249-.434-1.725-1.585-3.25-3.115-4.154-1.124-.675-2.445-1.019-3.754-.974zm-.689 2.873c-.607.133-1.182.408-1.665.798-.838.657-1.386 1.668-1.487 2.727-.005.267-.007.535.001.802.031.197.056.395.113.587.308 1.203 1.22 2.227 2.371 2.687.545.232 1.144.325 1.734.305.834-.042 1.658-.338 2.316-.856.788-.603 1.331-1.512 1.496-2.489.011-.164.059-.324.056-.489-.004-.207.013-.416-.028-.62-.028-.114-.016-.234-.057-.345-1.544-.001-3.087-.003-4.631.001.001.545.001 1.09 0 1.635.853.008 1.706.003 2.56.003-.004.034-.006.068-.007.103-.005-.005-.015-.014-.02-.018-.367.754-1.229 1.222-2.061 1.132-.617-.05-1.206-.392-1.549-.908-.195-.297-.331-.642-.339-.999-.051-.147.011-.296.01-.445.109-.869.844-1.608 1.708-1.738.641-.124 1.331.091 1.805.537.047.036.086.1.152.092.731-.002 1.462.003 2.194-.003-.201-.534-.521-1.02-.926-1.421-.634-.63-1.481-1.043-2.37-1.144-.282-.047-.572-.022-.857-.02-.173.029-.348.044-.519.086z"/></svg>