<svg enable-background="new 0 0 85.621 59.075" viewBox="0 0 85.621 59.075" xmlns="http://www.w3.org/2000/svg"><g clip-rule="evenodd" fill-rule="evenodd"><path d="m41.757 12.198c-3.197-2.122-6.437-3.686-10.941-4.109-4.711-.443-9.088.89-12.173 2.671-3.055 1.763-5.733 4.193-7.653 7.397-1.938 3.235-3.384 6.922-3.235 11.66.16 5.106 1.453 8.346 3.492 11.557 1.783 2.808 4.761 5.64 7.756 7.243 3.297 1.764 7.401 3.022 12.328 2.62 4.101-.335 7.018-1.67 9.759-3.39.397-.25.86-.679 1.182-.668.427.015 1.14.847 1.489 1.233.935 1.03 1.591 1.757 2.619 2.722.236.222 1.236.984 1.233 1.438-.003.38-.809.808-1.182 1.079-4.642 3.363-10.719 5.733-18.799 5.393-2.733-.115-5.236-.806-7.346-1.49-4.335-1.404-7.928-3.797-11.043-6.626-3.143-2.854-5.52-6.466-7.14-10.529-1.644-4.125-2.64-9.533-1.798-15.153.782-5.218 2.515-9.107 4.982-12.687 4.667-6.769 11.912-12.028 22.806-12.534 3.956-.184 8.028.69 11.043 1.849 1.557.599 2.965 1.156 4.366 2.055.599.384 1.305.821 1.9 1.284.387.3 1.627 1.088 1.644 1.541.017.47-.941 1.197-1.233 1.489-.886.886-1.763 1.865-2.619 2.723-.414.414-.752.972-1.437 1.232z"/><path d="m76.787 12.301c.627-.6 1.5-1.61 2.26-2.312.249-.23.608-.608.873-.616.538-.016 1.192.935 1.49 1.233.986.986 1.775 1.775 2.722 2.722.356.356 1.225 1.057 1.232 1.438.01.456-1.392 1.735-1.694 2.055-.67.708-1.309 1.258-1.85 1.849-.568.62-1.21 1.278-1.797 1.9-.638.675-1.207 1.363-1.798 1.9-1.963 1.783-3.659 3.556-5.6 5.496-.25.251-.614.595-.924.925-.261.278-.765.827-.771 1.079-.014.51 1.285 1.542 1.746 2.003 4.102 4.101 8.111 7.743 12.122 11.968.33.348.812.734.821 1.027.016.469-.897 1.162-1.232 1.489-1 .98-1.779 1.779-2.723 2.723-.411.412-.759.963-1.438 1.233-2.686-2.279-4.965-4.966-7.448-7.448-1.139-1.133-2.382-2.331-3.749-3.698-.864-.864-1.77-1.835-2.723-2.825-.294-.306-.702-.805-1.027-.822-.799-.041-1.435 1.458-2.055 1.695-3.736 3.751-7.453 7.557-11.3 11.403-.432.431-1.173 1.528-1.695 1.541-.493.012-1.176-.893-1.489-1.233-.932-1.009-1.65-1.682-2.723-2.671-.349-.322-1.219-1.021-1.232-1.438-.021-.615 1.268-1.524 1.746-2.003 3.708-3.708 7.356-7.431 11.043-11.197.607-.62 1.365-1.148 1.747-1.952-.962-1.542-2.44-2.645-3.698-3.904-2.504-2.503-5.021-5.021-7.551-7.551-1.256-1.256-2.518-2.522-3.646-3.903.559-.989 1.566-1.772 2.465-2.671.848-.847 1.646-1.898 2.62-2.517.489-.311 1.689 1.203 2.209 1.695 3.909 3.711 7.456 7.642 11.402 11.403.525.5 1.391 1.738 2.003 1.746.525.007 1.077-.82 1.438-1.181.481-.481.964-.81 1.335-1.233.366-.417.647-.862 1.027-1.284 2.463-2.72 5.275-5.388 7.862-8.064z"/><path d="m28.145 15.845c5.18-.359 8.786 1.944 11.146 4.674.8.925 1.57 1.985 2.157 3.082 1.315 2.458 1.758 5.774 1.182 8.834-1.056 5.609-4.927 9.512-10.274 10.787-2.895.691-6.301.311-8.834-.976-4.248-2.158-8.159-6.313-8.064-12.944.058-4.018 1.924-6.947 3.852-9.194.978-1.14 2.163-2.066 3.698-2.825 1.447-.715 3.151-1.3 5.137-1.438zm-1.593 8.218c-1.932.99-3.551 3.024-3.544 5.702.004 1.533.59 2.947 1.387 3.903 1.054 1.265 2.754 2.409 4.931 2.363 2.997-.063 6.062-2.353 6.062-6.163 0-1.057-.216-2.07-.72-3.031-.889-1.696-3.107-3.517-5.906-3.287-.909.074-1.666.234-2.21.513z"/></g></svg>