<svg enable-background="new 0 0 75.423 63.26" viewBox="0 0 75.423 63.26" xmlns="http://www.w3.org/2000/svg"><g clip-rule="evenodd" fill-rule="evenodd"><path d="m32.811.213c.08.893-.164 1.875-.642 2.373-3.961.246-7.565-.106-10.977.198-3.377.302-6.111 1.384-8.553 2.817-2.371 1.394-4.33 3.203-5.983 5.39-1.633 2.158-2.965 4.767-3.609 7.713-.768 3.496-.59 7.054.197 10.087 1.539 5.936 5.334 9.938 10.037 12.707 1.178.693 2.506 1.359 3.906 1.78 1.451.436 3.014.566 4.646.988.072.867-.203 1.803-.592 2.373-3.467-.135-6.274-1.294-8.752-2.62-2.338-1.251-4.783-3.035-6.476-4.994-3.496-4.041-6.336-9.561-5.984-16.909.164-3.391 1.086-6.521 2.375-9.048 3.184-6.248 8.5-10.769 16.068-12.51 3.449-.792 8.051-.43 12.262-.494.708-.01 1.463-.209 2.077.149z"/><path d="m43.145 46.887c-.035-.865.195-1.878.594-2.472 4.291-.317 9.162.373 12.855-.544 3.654-.907 6.594-2.466 8.998-4.45 3.434-3.123 6.486-7.132 7.17-13.003.775-6.665-1.445-11.723-4.352-15.525-1.441-1.885-3.172-3.437-5.291-4.796-3.197-2.05-6.834-3.141-11.816-3.312-.791-.027-1.598.061-2.422 0-.811-.06-1.66-.087-2.473-.05-3.232.146-6.574-.168-9.84.05-.404.317-.437.878-.543 1.335-1.715 7.367-3.639 14.926-5.44 22.348-1.685 6.946-3.5 13.865-5.143 20.815-.223.947-.346 1.98-.889 2.818-.475-.113-.719-.471-1.039-.84-.268-.309-.699-.677-.742-1.088-.068-.687.516-2.304.693-3.065 1.613-6.951 3.594-14.065 5.191-20.964.695-3.004 1.441-6.031 2.225-9.049 1.039-3.997 1.857-8.031 2.918-12.015.254-.958.43-1.952.889-2.818 1.766-.383 4.377-.148 6.428-.147 1.785 0 3.588.05 5.439.049 3.734-.001 7.518-.145 10.531.692 2.898.805 5.707 1.733 7.861 3.362 2.197 1.661 4.143 3.28 5.736 5.488 3.059 4.239 5.533 9.844 4.498 17.453-.879 6.461-4.049 10.703-8.059 14.388-2.705 2.061-5.953 4.117-10.037 4.944-3.149.639-6.762.544-10.482.544-1.165.001-2.376.231-3.458-.148z"/><path d="m31.774 4.218c.152.724-.168 1.713-.545 2.225-3.232.255-6.223-.123-9.098.099-2.92.227-5.152 1.012-7.219 2.226-3.951 2.32-6.865 5.832-8.059 10.828-1.439 6.023.812 11.259 3.461 14.536 1.381 1.71 3.188 3.216 5.191 4.252 1.617.836 3.187 1.438 5.34 1.78.619.098 1.309.103 1.928.396.072.776-.119 1.683-.543 2.126-2.889.018-5.348-.893-7.416-1.978-5.927-3.108-10.779-8.876-10.779-17.702 0-2.926.807-5.544 1.779-7.713.99-2.207 2.467-3.999 3.957-5.538 2.328-2.404 5.357-4.23 9.047-5.191 1.311-.341 2.637-.419 4.252-.494 1.91-.089 4.609-.078 6.676 0 .694.026 1.414-.127 2.028.148z"/><path d="m44.133 42.833c-.076-.842.182-1.76.594-2.274 2.809-.096 5.504.076 7.961-.05 2.479-.126 4.709-.69 6.625-1.632 3.658-1.795 6.656-4.574 8.258-8.306.838-1.954 1.6-4.33 1.482-6.823-.359-7.656-4.27-12.443-9.543-15.278-2.324-1.35-5.635-1.796-9.246-1.78-3.565.017-7.355-.102-10.68.05-.561.819-.645 1.833-.889 2.769-1.748 6.707-3.379 13.68-5.043 20.519-1.426 5.854-2.914 11.659-4.351 17.552-.469 1.92-.867 3.881-1.533 5.735-.465.097-.701-.446-.988-.692-1.305-.736-.402-2.548-.049-4.054.707-3.02 1.432-6.037 2.125-8.949.955-4.006 1.881-8.08 2.918-11.867 1.088-3.979 1.856-8.008 2.867-11.915.252-.977.521-1.98.742-2.967.437-1.97.969-3.9 1.434-5.934.215-.94.348-1.954.889-2.769 3.672-.025 8.262-.029 12.361.099 2.191.069 4.156.043 5.885.395 1.629.333 3.174 1.03 4.549 1.682 2.719 1.289 5.094 3.288 6.871 5.637 1.822 2.407 3.264 5.281 3.809 8.702 1.299 8.163-2.607 14.376-6.773 17.849-2.191 1.826-5.131 3.368-8.455 4.054-2.641.545-5.76.429-8.852.396-.991-.011-2.009.126-2.968-.149z"/><path d="m30.883 8.075c.068.801-.16 1.713-.543 2.225-4.479.061-8.615-.247-11.768 1.038-3.02 1.231-5.412 3.327-6.824 6.131-1.449 2.881-1.844 6.627-.691 10.235.92 2.88 3.184 5.336 5.488 6.873 1.291.86 3.297 1.641 5.191 1.829.656.065 1.385-.057 2.027.297.148.705-.17 1.721-.594 2.175-2.439.075-4.615-.574-6.379-1.434-1.715-.836-3.348-2.09-4.549-3.411-2.498-2.751-4.557-6.638-4.252-11.669.266-4.374 2.295-7.893 4.846-10.136 1.395-1.227 2.768-2.276 4.449-3.017 1.818-.799 3.764-1.213 6.33-1.334 1.227-.059 2.529.003 3.758.049 1.236.046 2.456-.232 3.511.149z"/><path d="m45.024 39.026c-.045-.842.287-1.72.643-2.323 2.83-.129 5.406.105 7.812-.148 2.422-.256 4.209-1.028 5.883-2.126 2.856-1.872 5.707-5.65 5.785-10.235.096-5.627-2.754-9.517-6.428-11.669-1.975-1.156-4.168-1.932-7.119-1.977-2.793-.042-5.855.023-8.949 0-.727.684-.764 1.767-.988 2.671-2.635 10.592-5.225 21.294-7.812 31.989-.469 1.936-.988 3.849-1.434 5.785-.441 1.913-.883 3.852-1.533 5.685-.561-.017-.732-.422-.988-.741-1.365-.738-.426-2.462-.1-4.005.635-3.013 1.508-5.976 2.127-8.851.832-3.865 1.934-7.943 2.867-11.817 1.387-5.757 3.029-11.702 4.301-17.75.281-1.331.727-2.822 1.139-4.351.227-.848.219-1.152.94-1.187 1.668-.08 3.359.049 4.992.049 3.244.001 6.664-.174 9.395.544 3.822 1.006 6.894 3.217 8.949 6.082 1.377 1.917 2.52 4.245 2.867 7.169.391 3.269-.266 6.143-1.383 8.455-1.086 2.241-2.654 4.227-4.451 5.587-1.844 1.396-4.244 2.585-6.971 3.065-2.201.388-4.713.296-7.268.297-.743 0-1.564.134-2.276-.198z"/><path d="m29.943 11.931c.041.741-.176 1.633-.543 2.126-2.559.26-5.297-.091-7.715.247-2.379.333-3.971 1.593-5.289 2.917-.969 1.604-2.045 3.028-2.225 5.241-.238 2.914.891 5.522 2.273 7.219 1.184 1.454 3.76 2.872 6.279 3.065.656.051 1.33-.139 1.979.198-.027.731-.061 1.783-.545 2.126-.469.333-1.533.121-2.225 0-2.113-.372-3.99-1.106-5.34-2.126-1.32-.998-2.666-2.535-3.51-4.203-.861-1.698-1.481-3.912-1.287-6.427.113-1.448.613-2.84 1.139-3.956 1.217-2.59 3.514-4.841 6.279-5.884 1.715-.647 3.687-.674 6.228-.791.596-.027 1.555.011 2.373.049.737.036 1.54-.166 2.129.199z"/><path d="m46.012 35.219c-.129-.65.17-1.613.445-2.176 1.502-.313 3.182-.073 4.797-.148 1.688-.078 3.129-.228 4.4-.741 2.904-1.174 5.676-4.291 5.686-8.257.01-4.104-2.26-7.062-5.291-8.653-2.486-1.306-6.592-.846-10.432-.84-.539.694-.65 1.737-.891 2.719-.229.943-.477 1.918-.691 2.868-.863 3.81-1.904 7.578-2.818 11.471-.451 1.92-.908 3.841-1.385 5.735-1.445 5.732-2.744 11.491-4.252 17.206-.494 1.87-.832 3.796-1.533 5.587-.5-.043-.719-.372-.988-.643-.268-.267-.68-.604-.742-.989-.1-.612.385-2.121.643-3.016.818-2.827 1.447-5.967 2.127-8.702 1.9-7.66 3.732-15.375 5.637-23.238.674-2.789 1.443-5.744 2.174-8.652.238-.941.397-2.704 1.039-2.868.762-.192 2.42 0 3.264 0 3.195 0 6.656-.142 8.9.841 3.123 1.369 5.49 3.392 6.674 6.279.852 2.076 1.322 5.189.594 7.664-.652 2.214-1.877 4.023-3.312 5.488-1.5 1.284-3.346 2.503-5.834 2.966-1.26.235-2.674.259-4.103.297-1.384.037-2.829.11-4.108-.198z"/><path d="m29.004 15.689c.088.803-.266 1.574-.545 2.175-2.914.223-5.76-.361-7.811.841-1.66.974-2.951 2.754-2.769 5.142.199 2.613 2.211 4.58 4.697 5.043.93.173 1.998-.06 3.016.247.18.69-.123 1.666-.494 2.126-2.232.288-4.045-.188-5.488-.988-2.541-1.409-4.627-4.564-3.758-8.653.609-2.862 2.67-5.009 5.391-5.784 1.103-.314 2.471-.341 3.955-.395 1.212-.046 2.654-.002 3.806.246z"/><path d="m46.951 31.363c.014-.754-.004-1.927.594-2.274.475-.276 1.684-.082 2.424-.05 2.934.13 5.053-.443 6.229-1.929.553-.98 1.166-1.888 1.188-3.263.033-2.343-1.299-4.244-2.867-5.043-.877-.494-2.328-.654-3.809-.643-.783.006-1.576-.078-2.174.099-.57.786-.625 1.797-.842 2.719-.639 2.729-1.437 5.573-2.125 8.405-.918 3.775-1.74 7.597-2.721 11.372-1.463 5.634-2.74 11.286-4.104 17.009-.223.937-.443 1.884-.691 2.818-.238.892-.424 1.843-.842 2.67-.43.069-.746-.401-1.037-.692-.32-.32-.664-.606-.742-1.038-.121-.67.375-1.975.594-2.918.654-2.832 1.529-5.757 2.176-8.553.449-1.944.91-3.888 1.383-5.785 1.432-5.728 2.828-11.439 4.254-17.157.48-1.932.885-3.896 1.383-5.784.504-1.9.709-3.86 1.582-5.538 1.297-.152 3.656-.151 5.143-.049 1.725.118 2.916.441 3.955 1.038 3.15 1.806 5.24 7.01 2.721 11.075-.619.998-1.973 2.327-3.115 2.867-1.715.81-4.047.835-6.479.791-.699-.012-1.427.057-2.078-.147z"/></g></svg>