<svg viewBox="0 0 90 42" fill="none" xmlns="http://www.w3.org/2000/svg">
<path fill-rule="evenodd" clip-rule="evenodd" d="M87.0656 3.22821L87.8931 4.62241H88.4952L87.5917 3.22821C88.1186 3.15491 88.4193 2.935 88.4193 2.34786C88.4193 1.68741 88.0435 1.3942 87.2159 1.3942H85.9366V4.62241H86.4635V3.22821H87.0656ZM86.5387 2.78767V1.83401H87.2159C87.5166 1.83401 87.9683 1.90731 87.9683 2.27455C87.9683 2.71437 87.5917 2.78767 87.2159 2.78767H86.5387ZM90 2.935C90 1.17356 88.6455 0 87.0656 0C85.4856 0 84.1304 1.17356 84.1304 2.935C84.1304 4.62241 85.3346 5.87001 87.0656 5.87001C88.6455 5.87001 90 4.69571 90 2.935ZM89.3979 2.935C89.3979 4.3292 88.4193 5.35616 87.1408 5.35616C85.7111 5.35616 84.8084 4.2559 84.8084 2.935C84.8084 1.5408 85.7863 0.513113 87.1408 0.513113C88.3441 0.513113 89.3979 1.5408 89.3979 2.935Z" fill="black"/>
<path fill-rule="evenodd" clip-rule="evenodd" d="M82.0253 6.02748C76.6202 0.599732 67.922 0.599732 62.5169 6.02748L56.3658 12.2044C55.7446 9.95822 54.5641 7.77441 52.8245 6.02748C47.4194 0.599732 38.7218 0.599732 33.3161 6.02748L18.6542 20.7514C16.0445 23.3715 11.5709 23.4338 8.89974 20.7514C6.22853 18.0684 6.22853 13.639 8.89974 10.956C11.3848 8.46059 15.2991 8.27362 17.9709 10.3322C19.3376 11.3929 21.7605 11.0807 22.8168 9.70831C23.9967 8.2113 23.7484 6.02748 22.1956 4.84209C16.7899 0.662055 8.9618 1.03662 4.05383 6.02748C-1.35128 11.4552 -1.35128 20.2522 4.05383 25.6176C9.45893 31.0454 18.1571 31.0454 23.5622 25.6176L38.2247 10.8937C40.8959 8.2113 45.3068 8.2113 47.9786 10.8937C50.6504 13.5767 50.6504 18.0061 47.9786 20.6891C45.3068 23.3715 40.8959 23.3715 38.2247 20.6891L35.8638 18.3183L35.8011 18.256L35.6149 18.0684L35.3667 17.8191C35.3667 17.8191 35.3046 17.8191 35.3046 17.7568C35.2426 17.6944 35.1805 17.6944 35.0557 17.6321C35.0557 17.6321 34.9937 17.6321 34.9937 17.5698C34.9316 17.5068 34.8075 17.5068 34.7454 17.4445H34.6834C34.6213 17.3822 34.4965 17.3822 34.4345 17.3822H34.3724C34.3104 17.3822 34.1862 17.3199 34.1242 17.3199H34.0621C33.938 17.3199 33.8753 17.2575 33.7512 17.2575H33.0678C32.9437 17.2575 32.881 17.2576 32.7569 17.3199H32.6948C32.5707 17.3199 32.5087 17.3822 32.3845 17.3822C32.2598 17.3822 32.1977 17.4445 32.0736 17.5068C30.8311 18.0061 29.8995 19.2538 29.8995 20.6891V37.4092C29.8995 39.3431 31.4523 40.9031 33.3782 40.9031C35.3046 40.9031 36.8574 39.3431 36.8574 37.4092V28.1137C42.0143 30.7338 48.5378 29.86 52.8245 25.5553L67.487 10.8314C70.1588 8.14897 74.5696 8.14897 77.2415 10.8314C79.9127 13.5144 79.9127 17.9437 77.2415 20.6268C74.5696 23.3092 70.1588 23.3092 67.487 20.6268L65.2508 18.3806C64.691 17.7568 63.8836 17.3199 63.0141 17.2575H62.3307C62.2687 17.2575 62.1439 17.2576 62.0819 17.3199H61.9577C61.8957 17.3199 61.8336 17.3822 61.7095 17.3822C61.6474 17.3822 61.6474 17.3822 61.5847 17.4445C61.5227 17.4445 61.4606 17.5068 61.3985 17.5068C61.3365 17.5068 61.2744 17.5698 61.2744 17.5698C61.2124 17.5698 61.1503 17.6321 61.1503 17.6321C61.0876 17.6321 61.0256 17.6944 60.9635 17.6944C60.9014 17.6944 60.9014 17.7568 60.8394 17.7568C60.7773 17.8191 60.7152 17.8191 60.7152 17.8814C60.6525 17.9437 60.5905 17.9437 60.5905 18.0061C60.5284 18.0061 60.5284 18.0684 60.4664 18.1307C60.4043 18.1936 60.3422 18.256 60.2802 18.256L60.156 18.3806L59.9692 18.5676L59.9072 18.6299C59.8451 18.6922 59.783 18.7546 59.721 18.8798C59.721 18.8798 59.721 18.9422 59.6589 18.9422C59.5968 19.0045 59.5348 19.1291 59.5348 19.1914V19.2538C59.4727 19.3161 59.4727 19.4407 59.4107 19.566C59.2239 19.9406 59.1618 20.3768 59.1618 20.8761V37.5962C59.1618 39.5301 60.7152 41.09 62.6411 41.09C64.5669 41.09 66.1203 39.5301 66.1203 37.5962V28.3006C71.2772 30.9207 77.8007 30.0476 82.0874 25.7423C87.4304 20.1899 87.4304 11.4552 82.0253 6.02748Z" fill="black"/>
</svg>
