<svg height="59.352295" viewBox="0 0 130 59.352295" width="130" xmlns="http://www.w3.org/2000/svg"><path d="m125.761 0c2.283 0 4.239 1.69513 4.239 4.23944 0 2.54327-1.956 4.23947-4.239 4.23947-2.5 0-4.239-1.80209-4.239-4.23947 0-2.54431 1.957-4.23944 4.239-4.23944zm.109 7.73669c1.847 0 3.26-1.48339 3.26-3.49725 0-2.01385-1.522-3.49829-3.26-3.49829-1.956 0-3.369 1.48444-3.369 3.49829 0 1.90796 1.304 3.49725 3.369 3.49725zm1.087-1.05987-1.196-2.01386h-.869v2.01386h-.761v-4.66297h1.848c1.195 0 1.738.42353 1.738 1.37751 0 .84808-.435 1.16574-1.196 1.2716l1.305 2.01386zm-1.957-4.02768v1.3775h.979c.542 0 1.086-.10589 1.086-.74118 0-.53046-.652-.63632-1.086-.63632zm-34.6978 6.05722c7.8074-7.840088 20.3718-7.840088 28.1788 0 7.807 7.84004 7.807 20.45674.09 28.47694-6.192 6.2187-15.615 7.48-23.0638 3.6954v13.4269c0 2.7934-2.2439 5.0467-5.0257 5.0467-2.7817 0-5.0256-2.2533-5.0256-5.0467v-24.1513c0-.7211.0897-1.3512.3595-1.8923.0896-.1809.0896-.361.1793-.451v-.09c0-.09.0896-.2701.1793-.3601.0896 0 .0896-.09.0896-.09.0897-.181.1793-.271.269-.361l.0896-.09.2699-.2701.1793-.1801c.0896 0 .1792-.09.2689-.1809.0896-.09.0896-.1801.1793-.1801 0-.09.0896-.09.1802-.18 0-.09.0896-.09.1793-.18.0896 0 .0896-.0901.1793-.0901.0896 0 .1793-.09.2698-.09 0 0 .0897-.09.1793-.09 0 0 .0896-.0909.1793-.0909.0896 0 .1793-.0901.2689-.0901.0906-.09.0906-.09.1802-.09.1793 0 .269-.09.3586-.09h.1793c.0897-.09.2699-.09.3595-.09h.987c1.256.09 2.4223.7211 3.2309 1.6222l3.23 3.2444c3.8588 3.8746 10.2308 3.8746 14.0898 0 3.858-3.8755 3.858-10.2734 0-14.1489-3.859-3.8746-10.231-3.8746-14.0898 0l-21.1792 21.2679c-6.1919 6.2179-15.6147 7.48-23.0635 3.6954v13.4269c0 2.7934-2.2429 5.0467-5.0256 5.0467-2.7817 0-5.0247-2.2533-5.0247-5.0467v-24.1513c0-2.0732 1.3456-3.8755 3.1403-4.5965.1793-.0901.269-.1801.4492-.1801.1792 0 .2689-.09.4482-.09h.0896c.1793-.09.2699-.09.4492-.09h.987c.1793 0 .2698.09.4491.09h.0897c.0896 0 .2689.09.3586.09h.0896c.0896 0 .2698 0 .3595.09h.0896c.0897.0901.269.0901.3586.181 0 .09.0897.09.0897.09.1802.09.2698.09.3595.1801 0 .09.0896.09.0896.09l.3586.3601.2689.2709.0906.0901 3.4102 3.4244c3.8584 3.8746 10.2296 3.8746 14.0889 0 3.8593-3.8755 3.8593-10.2734 0-14.1489-3.8593-3.8745-10.2305-3.8745-14.0889 0l-21.1792 21.2679c-7.8074 7.8401-20.3714 7.8401-28.17877 0-7.80737-7.75-7.80737-20.4568 0-28.29684 7.08927-7.20902 18.39647-7.750061 26.20477-1.71225 2.243 1.71225 2.6015 4.86669.8974 7.02899-1.5258 1.9823-5.0257 2.4333-6.9997.9011-3.8593-2.9734-9.5134-2.7033-13.1028.9012-3.85843 3.8754-3.85843 10.2734 0 14.1488 3.8584 3.8746 10.3202 3.7846 14.0898 0l21.1783-21.26784c7.8082-7.840088 20.3714-7.840088 28.1787 0 2.5129 2.52334 4.2179 5.67774 5.1153 8.92214z" fill-rule="evenodd"/></svg>