<svg enable-background="new 0 0 85.26 37.192" viewBox="0 0 85.26 37.192" xmlns="http://www.w3.org/2000/svg"><g clip-rule="evenodd" fill-rule="evenodd"><path d="m85.093 10.163c-4.472.259-9.012.149-13.543.149-13.478.001-27.074.188-40.526 0-.267-1.496-.149-3.316-.149-5.078 0-.864 0-1.743 0-2.589 0-.852-.111-1.713.149-2.44 4.379-.248 9.354-.012 13.841-.1 2.419-.048 4.583-.023 6.473.548 1.627.491 2.914 1.401 4.182 2.141.347-.633.012-1.947.299-2.639 6.08-.203 12.582-.15 18.969-.149 3.314 0 6.941.156 9.958 0 .678-.035.447 1.58.447 2.29.001 1.83.051 3.6.051 5.327-.002.915.092 1.936-.151 2.54z"/><path d="m29.031.206c.253 1.519.149 3.313.149 5.078.001 1.76.15 3.543-.1 5.028-4.329.248-8.992.148-13.592.149-4.425.001-9.088.198-13.442-.1.192-1.067.933-1.87 1.494-2.637 2.793-3.822 7.261-7.096 13.442-7.518 3.535-.241 8.269-.014 12.049 0z"/><path d="m75.633 12.305c.167.293.15 1.146 0 1.443-1.546.253-3.321.149-5.078.149-1.75 0-3.553.041-5.228-.05-.215-.299-.233-1.249 0-1.543 3.245-.13 7.117-.293 10.306.001z"/><path d="m59.85 12.305c.183.358.129 1.184-.05 1.493-1.239.282-2.617.116-3.983.149-1.37.032-2.784 0-4.183 0-2.839 0-5.684.095-8.215-.1-.147-.342-.181-1.222.05-1.493 5.379-.129 11.051-.227 16.381-.049z"/><path d="m41.329 12.354c.23.295.188 1.127.05 1.493-1.549.267-3.374.149-5.178.149-1.772 0-3.595.081-5.178-.1-.157-.317-.157-1.176 0-1.493 3.241-.165 7.27-.151 10.306-.049z"/><path d="m12.95 12.454c-.246.699-.803 1.089-1.245 1.593-2.428.138-5.092.007-7.567 0-1.195-.004-2.45.124-3.485-.1-.039-.605.121-1.512.797-1.593 1.088-.132 2.464.05 3.883.05 2.567-.001 5.21-.114 7.617.05z"/><path d="m75.633 15.839c.152.337.162 1.208 0 1.544-3.356.014-7.038.229-10.306 0-.22-.4-.197-1.066 0-1.494 3.224-.182 7.197-.228 10.306-.05z"/><path d="m59.352 15.938c-.032.665-.229 1.166-.598 1.494-4.99.039-10.351.235-15.285 0-.15-.312-.167-1.187 0-1.494 3.355-.189 7.015-.09 10.405-.1 1.844-.004 3.783-.22 5.478.1z"/><path d="m41.379 15.988c.172.343.122 1.091 0 1.444-3.354.237-7.146.174-10.355.05-.141-.335-.169-1.165 0-1.494 1.758-.247 3.998-.1 6.073-.1 1.537.001 3.019-.194 4.282.1z"/><path d="m10.66 16.038c.102.532-.084 1.168-.299 1.544-3.287.05-7.053.148-10.257-.05-.203-.389-.086-1.222.149-1.494 3.315-.11 6.984-.068 10.407 0z"/><path d="m75.633 19.424c.151.353.223 1.064.05 1.443-.748.289-1.619.091-2.489.101-2.482.025-5.418.165-7.866-.05-.157-.304-.157-1.141 0-1.444 3.14-.248 7.091-.205 10.305-.05z"/><path d="m57.559 19.474c-.072.644-.701 1.155-1.194 1.544-4.202.016-8.787.172-12.896-.05-.139-.321-.168-1.129 0-1.444 4.49-.177 9.478-.24 14.09-.05z"/><path d="m41.379 19.523c.153.322.152 1.121 0 1.444-.713.162-1.568.148-2.39.149-2.598.007-5.525.037-7.916-.099-.228-.262-.198-1.114-.05-1.444 3.262-.141 7.141-.191 10.356-.05z"/><path d="m10.361 19.623c.234.341.389.99.349 1.444-1.54.261-3.378.149-5.178.148-1.798 0-3.605-.058-5.278-.1-.208-.296-.329-1.076-.149-1.443 3.254-.222 6.864-.094 10.256-.049z"/><path d="m75.633 23.009c.23.272.197 1.151.05 1.493-1.599.182-3.421.1-5.228.1-1.789 0-3.61.131-5.128-.1-.131-.347-.19-1.171.05-1.443 3.188-.184 7.022-.244 10.256-.05z"/><path d="m41.428 23.158c.051.477.171 1.099-.05 1.443-3.243.18-6.998.162-10.306 0-.15-.297-.167-1.15 0-1.443 2.69-.279 6.024.029 8.813-.1.544-.025 1.078-.146 1.543.1z"/><path d="m53.477 23.059c-.229.553-1.035.803-1.693 1.045-.628.232-1.433.479-2.141.548-1.511.146-3.2-.064-4.73 0-.491.02-.942.123-1.395-.05-.188-.433-.374-1.512.299-1.593 1.318-.16 3.152 0 4.879 0 1.734 0 3.432-.039 4.781.05z"/><path d="m.901 23.158h10.804c.477.453 1.022.837 1.245 1.543-3.791.207-8.035.081-11.8.05-.255-.318-.62-1.026-.398-1.493.037-.047.091-.076.149-.1z"/><path d="m75.633 26.643c.261.742.149 1.622.149 2.49-.001 2.519.094 5.455-.1 7.717-1.605.181-3.45.1-5.228.1-1.796 0-3.6.164-5.128-.1-.134-3.096-.17-6.837 0-10.157 3.138-.251 7.097-.204 10.307-.05z"/><path d="m29.131 26.742c.297 2.459-.018 5.222.1 7.817.038.844.171 1.692-.1 2.439-2.254.175-4.599.085-6.92.149-2.309.063-4.751.107-6.821-.249-3.949-.681-7.126-2.473-9.41-4.681-.858-.7-1.617-1.502-2.24-2.439-.636-.857-1.434-1.818-1.692-2.887.743-.374 1.736-.191 2.688-.15 2.867.127 5.693-.05 8.563-.05 5.318.002 10.756-.081 15.832.051z"/><path d="m41.379 26.742c.168 1.635.118 3.397.1 5.129-.018 1.69.235 3.519-.1 5.078-2.021.1-4.248.195-6.323.149-1.385-.031-2.788.047-3.983-.149-.064-2.881-.267-5.975-.149-8.912.018-.456-.055-1.001.248-1.345 3.388-.025 6.807-.152 10.207.05z"/></g></svg>