<svg enable-background="new 0 0 73.168 73.286" viewBox="0 0 73.168 73.286" xmlns="http://www.w3.org/2000/svg"><g clip-rule="evenodd" fill-rule="evenodd"><path d="m36.392.097c.28 2.497.093 5.29.145 8.038.049 2.583.102 5.314-.097 7.702-.772.283-1.577.174-2.311.288-2.271.355-4.226.896-6.064 1.686-2.363 1.013-4.246 2.608-5.97 4.332-3.399 3.402-5.967 8.012-6.113 14.537-.07 3.146.852 6.069 1.877 8.472 1.551 3.63 3.959 6.389 7.028 8.424.527.35.995.762 1.541 1.06 2.181 1.189 4.754 2.143 7.798 2.503.733.087 1.511.003 2.262.289.13 3.847.145 7.876.145 11.89 0 1.293.138 2.637-.192 3.803-1.416.355-2.824.057-4.14-.097-4.021-.468-7.504-1.544-10.59-2.936-4.142-1.868-7.645-4.349-10.734-7.27-3.052-2.885-5.565-6.376-7.51-10.541-1.889-4.047-3.467-9.136-3.467-14.538.001-5.925 1.032-10.837 2.84-15.212 1.739-4.207 4.21-7.965 7.125-10.879 4.689-4.688 9.684-8.101 16.703-10.301 2.731-.856 6.214-1.388 9.724-1.25z"/><path d="m38.75 73.071c-.23-.693-.085-1.453-.096-2.167-.171-11.169-.051-22.883-.049-34.272.002-11.472-.002-22.728 0-34.321 0-.737-.093-2.041.145-2.214.035-.046.088-.073.145-.097 10.927.845 18.416 5.201 24.308 11.216 1.443 1.473 2.672 3.209 3.9 5.006 3.526 5.166 6.064 12.054 6.065 20.506 0 8.506-2.738 15.149-6.258 20.362-1.84 2.725-3.768 5.061-6.161 7.172-3.063 2.702-6.915 4.965-11.072 6.643-1.079.437-2.175.716-3.369 1.06-2.291.658-4.822 1.181-7.558 1.106z"/></g></svg>