<svg enable-background="new 0 0 38.046 38.393" viewBox="0 0 38.046 38.393" xmlns="http://www.w3.org/2000/svg"><path d="m20.128.027c2.722-.153 5.427.378 8.055 1.056 2.356.704 4.741 1.44 7.214 1.524.515 2.704 2.675 4.923 2.458 7.795-.064 1.969-1.103 4.279-3.069 4.958-.008-.146-.068-.334.122-.382 1.858-1.136 2.406-3.691 1.612-5.639-1.127-3.029-3.943-5.029-6.789-6.304-6.88-3.024-15.768-2.008-21.144 3.492-2.881 2.807-4.854 6.591-5.262 10.61-.535 5.192 1.246 10.705 5.106 14.298 2.859 3.054 6.902 4.856 11.021 5.345 5.613.784 11.622-1.225 15.397-5.506 1.353-1.482 2.399-3.267 2.899-5.217.097.028.197.058.298.091-.006.263-.006.526-.01.791-.279.265-.326.662-.46 1.005-1.331 3.417-4.018 6.183-7.188 7.965-5.559 3.236-12.613 3.133-18.454.721-4.475-1.803-8.367-5.274-10.272-9.747-3.434-7.244-1.402-16.58 4.79-21.695 3.791-3.222 8.749-4.893 13.676-5.161z"/><path d="m7.809 15.721c1.505-6.122 7.51-10.654 13.782-10.633 1.957-.15 3.836.504 5.686 1.044 1.063.468 2.259.647 3.41.472.519 1.823 1.844 3.482 1.546 5.47-.278 2.173-2.135 3.615-3.818 4.773-.434.351-1.129.499-1.27 1.112 1.234.628 2.558 1.377 3.102 2.743.604 1.653-.019 3.546-1.13 4.84-3.328 4.279-11.264 3.578-13.458-1.5-.527-1.463-.515-3.227.395-4.54 1.09-1.637 2.944-2.482 4.631-3.358-.891-.24-1.776-.651-2.385-1.365-1.061-1.376-.791-3.517.552-4.614 1.098-.824 2.538-1.214 3.9-1.005 1.083.108 2.064.656 3.154.739.228 1.397.733 3.031-.413 4.199-1.738 1.693-4.255 2.292-6.043 3.932-1.178 1.158-1.937 2.8-1.756 4.474.176 3.114 3.384 5.369 6.378 4.953 1.719-.004 3.498-.85 4.288-2.435.852-1.79.614-4.517-1.388-5.425-1.661-.808-4.103.326-4.021 2.312-.145 1.31 1.325 2.321 2.514 1.853-.393.701-1.499.676-2.179.393-1.561-.681-1.799-2.925-.736-4.141 1.603-1.972 4.268-2.586 6.196-4.177 1.374-.888 2.332-2.497 2.073-4.158-.249-1.775-1.625-3.13-3.114-3.991-3.327-2.012-7.693-1.79-10.985.188-3.051 1.716-5.234 4.839-5.971 8.242-1.484 6.09 2.155 13.086 8.191 15.018 3.591 1.285 7.846.827 10.91-1.511 1.041-.843 1.977-1.827 2.749-2.922.044 0 .132-.001.176-.001.053.065.108.132.163.202-1.071 1.761-2.531 3.323-4.328 4.355-5.861 3.742-14.252 1.579-18.342-3.824-2.532-3.261-3.507-7.712-2.459-11.714zm14.738-5.839c-1.924-.267-3.304 1.787-2.623 3.522.774 2.498 4.804 1.975 5.501-.331.451-1.7-1.326-3.086-2.878-3.191z"/></svg>