<svg enable-background="new 0 0 87.104 79.958" viewBox="0 0 87.104 79.958" xmlns="http://www.w3.org/2000/svg"><g clip-rule="evenodd" fill-rule="evenodd"><path d="m78.065 21.875c-.235-3.139-.049-6.7-.206-9.917-.395-.277-.987-.26-1.498-.258-1.509.004-3.179.075-4.804.051-1.125.839-1.836 2.031-2.841 3.203-.161.186-.755.971-1.033.981-.356.014-.861-.76-1.085-1.033-.951-1.16-1.912-2.347-2.944-3.357.327-.645.91-1.126 1.395-1.653 1.42-1.545 2.838-3.04 4.39-4.597 2.288-2.294 3.822-4.961 8.058-5.269 3.113-.227 5.858 1.048 7.283 2.737.291.345.577.85.878 1.292.795 1.168 1.457 2.984 1.446 4.907-.013 2.294-.951 4.17-1.963 5.63-.478.689-1.202 1.231-1.756 1.859-1.127 1.278-2.293 2.475-3.46 3.719-.579.617-1.105 1.342-1.86 1.705z"/><path d="m20.679 7.154c-.33.454-.889.511-1.343.723-1.722.805-3.091 2.013-4.235 3.409-.867 1.477-1.662 2.899-1.808 4.907-.201 2.753.925 5.233 2.273 6.921.358.449.797.686.93 1.24-1.148-.081-2.338-.396-3.564-.671-3.47-.78-7.474-1.055-9.866-3.047-1.952-1.627-3.616-4.913-2.893-8.678.551-2.87 2.004-4.977 4.545-6.25 1.891-.948 4.411-1.105 6.973-.568 2.954.618 6.142 1.304 8.988 2.014z"/><path d="m32.197 9.582c2.397.379 5.327 1.071 7.799 1.601 1.829.392 3.106.797 4.391 1.756 2.004 1.496 3.605 4.029 3.616 7.231.008 2.388-.894 4.388-2.17 5.889-1.62 1.905-3.752 3.261-7.283 3.047-.923-.056-1.863-.332-2.789-.517-.912-.181-1.812-.418-2.686-.62-1.813-.419-3.616-.657-5.32-1.24.447-.517 1.214-.619 1.808-.93.602-.315 1.103-.723 1.653-1.033 1.66-1.438 3.195-3.003 3.616-5.682-.921-.353-2.144-.156-3.409-.207-1.108-.044-2.628-.29-3.409-.052-.552.168-1.08 1.199-1.653 1.55-.662.406-2.005.756-3.151.465-2.732-.696-3.972-4.557-1.859-6.767.667-.698 1.961-1.336 3.409-1.188 1.541.158 2.344 1.229 3.254 2.118 1.121-.027 2.345.015 3.512.052 1.17.037 2.431.12 3.357-.207-.332-2.302-1.631-3.637-2.789-5.114 0-.035 0-.069 0-.103.042-.008.051-.05.103-.049z"/><path d="m57.3 18.311h.104c.151 2.395.103 5.044.103 7.593 0 .83-.108 1.694.155 2.428 1.832.168 4.366.173 6.198 0 .306-2.329-.099-5.368.207-7.696.465.074.756.504 1.033.826.82.958 1.682 1.997 2.686 2.841.79-.399 1.183-1.252 1.704-1.911.264-.333.571-.652.827-.982s.458-.792.93-.878c.444 2.093-.3 5.254.155 7.387.084.392.235.488.414.774-1.972 2.298-4.109 4.431-6.147 6.663-2.031 2.205-3.962 4.701-7.799 4.959-2.769.186-4.91-.769-6.405-2.015-1.758-1.465-3.051-3.57-3.254-6.353-.272-3.746 1.707-5.899 3.461-7.8 1.392-1.509 2.624-2.882 4.08-4.339.518-.518.993-1.314 1.548-1.497z"/><path d="m50.121 49.664c-.742-.349-1.229-.986-1.911-1.446-1.925-1.3-4.375-2.368-7.696-2.015-2.994.319-5.131 1.479-6.767 3.203-.532.56-.959 1.222-1.601 1.705-.669-1.342-.997-2.864-1.446-4.391-.636-2.158-1.674-4.081-1.136-6.973.701-3.768 4.048-6.756 8.161-7.077 2.961-.23 5.126.912 6.611 2.221 1.965 1.732 2.547 3.967 3.461 6.818.849 2.654 1.743 5.392 2.324 7.955z"/><path d="m51.671 54.571c.886 2.328 1.584 4.796 2.376 7.283.385 1.211.729 2.478 1.136 3.719.396 1.211.857 2.446 1.136 3.667.705 3.08-.391 5.712-1.808 7.438-1.527 1.86-4.135 3.505-7.645 3.254-3.567-.255-6.307-2.515-7.542-5.372-.628-1.453-.959-3.066-1.446-4.597-.479-1.506-1.055-3.009-1.292-4.597 1.602.466 3.113 1.042 4.907 1.085 4.295.102 7.798-2.14 9.504-4.752.59-.902 1.062-1.933 1.24-3.15-.919-.378-2.207-.258-3.357-.258-1.192 0-2.359-.024-3.46-.052-.923.62-1.239 1.523-2.221 1.911-1.982.784-4.066-.304-4.907-1.808-1.512-2.704.411-5.907 3.151-6.095 2.155-.147 2.831 1.161 3.926 2.17 2.04.111 4.276.027 6.302.154z"/></g></svg>