<svg enable-background="new 0 0 80.291 80.972" viewBox="0 0 80.291 80.972" xmlns="http://www.w3.org/2000/svg"><g clip-rule="evenodd" fill-rule="evenodd"><path d="m80.163.123c.183 4.372.102 9.194.101 13.806 0 1.521.122 3.036-.151 4.433-5.655.121-9.945-2.337-12.898-5.29-1.502-1.503-2.756-3.363-3.728-5.492-.968-2.12-1.725-4.631-1.512-7.457 3.285-.182 6.836-.101 10.48-.101 2.654 0 5.278-.093 7.708.101z"/><path d="m59.405.174c.18 3.273.151 6.911.151 10.429 0 2.64.116 5.259-.151 7.76-4.308.183-9.074.101-13.604.101-1.494 0-3.002.122-4.383-.151-.133-2.726.503-5.173 1.36-7.205.863-2.045 2.121-3.784 3.477-5.239 2.788-2.882 6.504-5.346 11.689-5.744.444-.036 1.026-.155 1.461.049z"/><path d="m38.646 21.032c.235.632.184 1.363.202 2.065.132 5.202-.017 11.042-.101 16.123-5.65.175-12.287.163-18.138 0-.199-2.724.456-5.233 1.411-7.355 2.681-5.963 8.046-10.315 15.972-10.833.143-.009.406-.086.654 0z"/><path d="m59.455 21.133c.158 5.896.169 12.452 0 18.088-2.858.203-5.418-.517-7.507-1.511-4.188-1.994-7.085-5.037-9.069-9.321-.72-1.555-1.234-3.327-1.461-5.441-.064-.592-.278-1.38.151-1.915 5.311-.146 11.359.02 16.123 0 .591-.003 1.173-.162 1.763.1z"/><path d="m80.163 21.083c.062 5.767-2.294 9.902-5.291 12.898-2.967 2.967-7.199 5.381-12.848 5.239-.242-1.245-.189-3.065-.151-4.484.102-3.79 0-7.587 0-11.639 0-.89-.221-1.972.504-2.116 1.268-.251 3.167.051 4.484.051 4.339 0 8.997-.187 13.302.051z"/><path d="m18.09 41.992c.04 4.467.05 9.051.05 13.755 0 1.496.107 2.99-.151 4.384-5.817.158-12.324.196-17.987-.051-.074-5.363 2.117-9.553 4.887-12.495 2.781-2.954 6.782-5.325 11.84-5.693.395-.03 1.032-.18 1.361.1z"/><path d="m38.747 41.992c.142 5.883.192 12.184-.05 18.139-5.738.188-9.795-2.396-12.898-5.341-2.635-2.502-4.667-6.195-5.189-10.934-.069-.627-.311-1.369.101-1.965 5.041-.146 10.913-.001 16.022 0 .669 0 1.385-.17 2.014.101z"/><path d="m59.253 41.992c.205 4.125-1.317 7.619-3.074 10.228-.268.398-.453.839-.705 1.209-.652.958-1.679 1.857-2.62 2.671-.967.836-2.107 1.481-3.225 2.065-2.329 1.217-5.211 2.177-8.363 1.966-.149-5.988-.222-12.351 0-18.139 2.276-.289 5.214-.127 7.86-.101 2.32.022 4.658-.043 6.902-.051 1.093-.003 2.178-.015 3.225.152z"/><path d="m17.989 62.801c.244 1.436.087 2.96.101 4.484.04 4.369.098 9.107-.101 13.603-2.794.23-5.333-.549-7.406-1.512-4.088-1.899-7.18-5.028-9.069-9.17-.953-2.09-1.651-4.602-1.461-7.406.471-.127 1.018-.147 1.512-.151 5.119-.037 11.137.049 16.424.152z"/><path d="m38.697 62.851c.218 2.84-.596 5.326-1.512 7.456-.901 2.1-2.324 3.937-3.779 5.392-1.488 1.488-3.324 2.757-5.441 3.728-2.093.961-4.606 1.717-7.407 1.512-.245-1.875-.081-3.799-.101-5.743-.042-4.028-.094-8.226.101-12.344 5.749-.265 12.309-.191 18.139-.001z"/></g></svg>