<svg enable-background="new 0 0 77.778 77.046" viewBox="0 0 77.778 77.046" xmlns="http://www.w3.org/2000/svg"><path clip-rule="evenodd" d="m14.837 8.601c5.591-4.438 11.91-7.612 20.974-8.458 5.032-.47 10.161.27 14.08 1.516 3.071.976 5.725 2 8.164 3.422 4.948 2.885 9.178 6.637 12.32 10.902 3.3 4.481 5.731 9.837 6.845 16.378.829 4.873.489 11.075.489 16.866v2.885c0 .951.111 1.989-.049 2.836-.255 1.348-1.4 2.443-2.64 2.737-1.689.401-4.387.146-6.503.146-.876 0-1.86-.093-2.298.44-.526.642-.231 2.788-.244 3.813-.019 1.506-.049 2.788-.049 4.106 0 2.85-.557 4.963-1.663 6.648-1.047 1.598-2.626 3.029-4.595 3.716-2.041.712-5.002.439-7.822.44-8.146.001-16.51-.051-24.787-.049-2.729 0-5.507.125-8.262 0-1.499-.068-1.593-1.013-2.2-2.249-1.026-2.089-2.478-3.896-4.009-5.427-2.17-2.17-4.152-4.348-5.769-6.845-3.454-5.331-5.823-11.114-6.599-18.574-.867-8.328.934-15.433 3.618-21.071 2.75-5.779 6.241-10.314 10.999-14.178zm51.627 23.026c-1.376-3.821-4.157-6.952-8.8-7.48-2.976-.338-5.422.681-7.138 2.054-1.806 1.445-3.12 3.171-3.764 5.573-1.562 5.823 1.766 10.627 5.329 12.467 2.069 1.068 5.078 1.682 7.676.831 2.333-.764 4.097-1.992 5.573-3.765 1.472-1.766 2.475-4.254 2.444-6.845-.015-1.346-.287-2.778-.489-4.155-.198-1.352-.469-2.644-.831-3.813-2.281-7.373-5.985-12.485-11.146-16.769-3.377-2.803-7.559-4.785-12.516-6.062-2.501-.644-5.416-1.07-8.409-.929-7.162.338-12.726 2.594-17.307 5.818-4.453 3.134-8.296 7.294-10.658 12.271-2.433 5.125-4.326 11.429-3.373 19.164.824 6.688 3.124 12.128 6.454 16.524 3.22 4.255 7.657 7.744 12.857 10.072 5.056 2.262 12.524 3.722 19.507 2.053 1.595-.381 3.126-.685 4.498-1.222 4.155-1.629 7.524-3.869 10.609-6.601 2.01-1.779 3.806-3.845 5.378-6.111 1.545-2.229 2.863-4.891 3.618-7.871-.326-.069-.396.328-.489.489-.949 1.637-1.871 3.204-3.08 4.596-1.324 1.524-2.976 2.846-4.791 3.96-3.606 2.213-8.263 3.773-14.08 3.178-5.163-.529-8.799-2.891-11.929-5.622-3.153-2.751-5.37-6.447-6.502-11.049-1.311-5.325-.584-10.73 1.222-14.862 1.795-4.107 4.688-7.223 8.066-9.484.444-.298.849-.604 1.271-.881.461-.301.938-.484 1.467-.733 2.926-1.377 6.874-2.253 11.196-1.712 5.15.646 8.933 2.648 12.076 5.476 1.788 1.554 3.125 3.558 4.4 5.622.795 1.63 1.64 3.438 2.151 5.378.168.638.479 1.389.196 2.054-.529-.398-.502-1.104-.686-1.614z" fill-rule="evenodd"/></svg>