<svg enable-background="new 0 0 74.679 75.012" viewBox="0 0 74.679 75.012" xmlns="http://www.w3.org/2000/svg"><g clip-rule="evenodd" fill-rule="evenodd"><path d="m74.641 35.821c-5.237.198-10.979.089-16.464.047-.318-.707-.29-1.47-.422-2.158-.927-4.802-3.294-8.564-6.332-11.398-3.265-3.045-8.459-5.678-14.776-5.441-6.253.235-10.807 2.798-14.072 6.239-3.26 3.435-5.816 7.995-5.816 14.495 0 4.882 1.662 8.604 3.659 11.586 1.981 2.958 4.773 5.423 8.209 7.036 2.329 1.093 5.043 1.873 8.162 1.97 6.508.204 11.42-2.303 14.776-5.535 3.492-3.364 5.881-7.58 6.567-13.697 2.636-.23 5.361-.109 8.115-.094 2.745.015 5.616-.096 8.396.094.155 2.155-.188 4.239-.609 6.145-1.255 5.673-3.334 10.428-6.333 14.401-3.982 5.275-8.996 9.584-15.292 12.337-3.218 1.406-6.77 2.481-10.883 2.955-4.262.491-8.649.091-12.524-.844-7.292-1.761-13.183-5.255-17.778-9.851-4.602-4.602-8.344-10.205-10.085-17.59-.918-3.891-1.402-8.171-.985-12.477.396-4.091 1.407-7.851 2.768-11.023 2.758-6.442 6.854-11.469 12.146-15.53 5.347-4.103 11.64-6.786 20.217-7.412 4.644-.339 9.229.494 12.712 1.501 3.709 1.072 6.887 2.654 9.663 4.457 5.852 3.8 10.114 8.749 13.275 14.917 1.039 2.049 1.899 4.343 2.58 6.802.68 2.456 1.199 5.172 1.126 8.068z"/><path d="m41.008 18.136c3.236-.137 5.856 1.152 7.505 2.674 1.686 1.556 3.113 3.8 3.424 6.755.346 3.291-.672 5.912-2.158 7.833-1.48 1.914-3.576 3.261-6.286 3.847-3.186.688-6.098-.4-8.068-1.736-2.066-1.401-3.599-3.484-4.222-5.957-.774-3.075-.105-6.223 1.125-8.303 1.098-1.856 3.083-3.732 5.535-4.597.916-.322 1.778-.457 3.145-.516z"/></g></svg>