<svg enable-background="new 0 0 76.34 80.256" viewBox="0 0 76.34 80.256" xmlns="http://www.w3.org/2000/svg"><g clip-rule="evenodd" fill-rule="evenodd"><path d="m59.442 39.027c.212-.666.634-.967.901-1.502 1.669-3.318.53-8.053-.701-10.971-1.379-3.269-3.331-5.789-5.31-8.016-3.104-3.566-7.552-5.734-11.822-8.164-1.423-.811-2.894-1.52-4.158-2.506.391-.506 1.012-.779 1.553-1.102 1.614-.961 3.283-1.953 4.959-2.906 2.26-1.283 4.454-2.69 6.663-3.807.536-.271 1.606.539 2.305.951 1.915 1.135 4.006 2.395 5.861 3.457 1.395.799 2.749 1.463 3.957 2.254 3.664 2.402 6.584 5.908 8.666 10.02 1.701 3.357 3.63 9.332 1.453 13.225-.682 1.221-1.812 1.981-3.106 2.756-1.244.746-2.522 1.49-3.707 2.154-2.654 1.487-4.818 2.923-7.514 4.157z"/><path d="m42.41 15.133c3.712 1.361 6.453 3.797 9.167 6.262 1.373 1.248 2.427 2.633 3.356 4.309 1.322 2.381 2.776 6.676.651 9.268-.811.988-2.483 1.453-4.308 1.002-1.72-.426-3.165-1.49-4.659-2.355-.746-.43-1.473-.869-2.204-1.301-.718-.426-1.542-.736-2.105-1.354-.146-4.941-.128-10.396-.05-15.68.03-.073.08-.124.152-.151z"/><path d="m37.1 28.459c-.498.633-1.289 1.014-2.004 1.402-2.89 1.568-5.795 3.262-8.617 4.959-4.974 2.994-8.501 7.047-11.12 12.574-1.319 2.783-2.493 7.588-.852 11.07.259.549.595.834.801 1.504-3.319-1.699-6.48-3.646-9.668-5.512-1.064-.623-2.193-1.186-3.206-1.854-2.963-1.949-2.882-7.375-1.553-11.221 1.255-3.633 3.209-6.508 5.36-9.018 4.476-5.221 11.346-8.127 17.132-11.672.599-.15 1.308.475 2.004.852 1.734.941 3.422 1.998 5.06 2.906 1.781.986 3.353 1.967 5.06 2.955.558.326 1.187.559 1.603 1.055z"/><path d="m42.511 35.572c.042-.01.047.02.05.049 3.105 1.49 5.614 3.662 9.418 4.559 1.243.295 2.585.365 4.008.652.286.871.137 2.426.1 3.457-3.263 2.121-6.697 3.984-10.119 5.961-1.121.646-2.224 1.393-3.456 1.854-.271-1.281-.15-2.654-.15-4.059-.001-3.471-.101-6.758-.101-10.369 0-.684-.072-1.656.101-2.004.034-.047.089-.076.149-.1z"/><path d="m23.825 41.834c2.184.959 4.465 2.576 6.462 3.707 2.225 1.258 4.35 2.447 6.312 3.807-.226.514-.936.809-1.453 1.102-1.579.898-3.133 1.832-4.759 2.807-2.172 1.299-4.23 2.754-6.562 3.506-1.645.529-3.749.297-4.559-.902-2.531-3.57.35-9.168 2.404-11.772.667-.845 1.381-1.767 2.155-2.255z"/><path d="m46.368 54.607c.361-.535 1.015-.781 1.553-1.102 2.723-1.619 5.633-3.219 8.466-4.809 1.142-.641 2.245-1.549 3.406-1.955.103-.035.101-.043.251-.049 2.079 1.252 4.788 2.576 6.912 4.008 1.394.938 2.762 1.809 3.457 3.455.768 1.818-.31 3.502-1.252 4.51-1.127.705-2.258 1.371-3.657 1.703-.911.215-1.954.182-2.956.25-5.573.377-8.896-1.574-12.272-3.557-1.374-.805-2.78-1.503-3.908-2.454z"/><path d="m76.174 57.965c.183 3.272.1 6.986.101 10.318 0 1.846.223 3.498-.15 4.959-.751 2.945-3.232 4.514-5.961 5.662-1.54.646-3.199 1.121-5.16 1.252-2.528.17-4.908-.15-7.063-.451-5.561-.777-9.044-3.396-13.125-5.66-.814-.453-1.627-.941-2.505-1.252-1.185.479-2.263 1.154-3.406 1.803-2.691 1.525-5.455 3.115-8.266 4.76-.414.242-1.25.904-1.653.9-.275-.002-.709-.375-1.001-.551-.961-.576-2.057-1.074-2.806-1.803.007-5.006-.266-10.609.05-15.279 1.416.471 2.411 1.363 3.657 2.004 2.267-1.18 4.41-2.494 6.612-3.758 2.228-1.279 4.39-2.734 6.663-3.957 1.081.279 2.758 1.396 3.707 1.953 3.599 2.111 6.914 4.203 11.822 5.01 3.37.555 7.125.756 10.27.051 3-.672 5.426-2.059 7.062-4.158.466-.518.6-1.372 1.152-1.803z"/></g></svg>