<svg enable-background="new 0 0 18.946 13.169" viewBox="0 0 18.946 13.169" xmlns="http://www.w3.org/2000/svg"><path d="m14.656.13c.06-.052.109-.139.201-.124.468-.002.937-.006 1.406.004-.188.216-.416.392-.604.608-.142.173-.339.284-.486.451-.534.534-1.072 1.063-1.603 1.599.326.337.662.664.994.996.297.263.556.566.86.821.247.248.498.491.745.74-.679.654-1.326 1.341-2.016 1.984-.179.179-.347.37-.543.53-.488.468-.956.956-1.442 1.425-.497.03-1 0-1.499.016.247-.277.538-.509.787-.784.882-.818 1.71-1.692 2.575-2.528.206-.222.451-.404.652-.631-.442-.449-.891-.893-1.337-1.339-.242-.227-.455-.484-.719-.686-.183-.183-.366-.365-.55-.546.866-.839 1.732-1.677 2.579-2.536z"/><path d="m17.48.004c.488-.004.977.004 1.466-.004-.881.911-1.804 1.779-2.706 2.669.35.343.688.7 1.06 1.019.513.515 1.032 1.026 1.543 1.543-.666.652-1.329 1.306-1.987 1.967-.25.234-.479.491-.739.714-.415.432-.872.821-1.277 1.263-.501.003-1.001.002-1.502.001.998-.909 1.91-1.91 2.899-2.828.391-.367.762-.755 1.149-1.127-.121-.123-.265-.221-.382-.348-.264-.282-.56-.532-.827-.811-.474-.467-.934-.949-1.419-1.404.938-.85 1.79-1.795 2.722-2.654z"/><path d="m4.045 5.225c.493-.001.988.017 1.481-.009-.274.26-.526.542-.81.791-.689.669-1.355 1.361-2.05 2.023-.39.392-.8.762-1.184 1.16.101.124.227.222.348.325.734.732 1.465 1.468 2.206 2.194.165.196.384.333.555.523.305.317.636.608.928.937-.492-.019-.985-.014-1.477-.004-.661-.637-1.299-1.299-1.958-1.938-.146-.15-.294-.3-.456-.432-.543-.539-1.094-1.07-1.628-1.619.528-.475 1.021-.988 1.528-1.487.824-.836 1.687-1.632 2.517-2.464z"/><path d="m6.666 5.222c.49.002.983.027 1.472-.013-.477.51-1.001.971-1.486 1.473-.836.845-1.699 1.66-2.546 2.495.112.133.24.248.369.362.602.6 1.202 1.202 1.805 1.801.294.25.536.554.837.796.337.349.696.676 1.024 1.032-.492-.016-.984-.013-1.476-.003-.685-.66-1.349-1.343-2.03-2.008-.685-.645-1.354-1.311-2.015-1.983.323-.258.599-.568.897-.853.653-.655 1.306-1.311 1.978-1.948.4-.373.778-.771 1.171-1.151z"/><path d="m9.428 5.224c.489-.004.981.028 1.467-.017-.629.606-1.223 1.249-1.871 1.834-.718.707-1.437 1.413-2.144 2.132-.5.011-1.001 0-1.502.007.303-.33.644-.621.955-.943.747-.688 1.443-1.43 2.171-2.138.325-.275.59-.611.924-.875z"/><path d="m10.991 6.292c.382-.34.729-.718 1.103-1.067.488.004.976.007 1.465-.003-.25.294-.559.525-.822.806-.621.611-1.222 1.243-1.861 1.837-.165.161-.319.335-.498.482-.285.265-.547.553-.83.82-.496.028-1.004-.003-1.503.014 1.006-.936 1.956-1.934 2.946-2.889z"/></svg>