<svg enable-background="new 0 0 14.334 14.162" viewBox="0 0 14.334 14.162" xmlns="http://www.w3.org/2000/svg"><path d="m2.341 1.85c1.202-1.093 2.791-1.756 4.413-1.831.002 1.165.004 2.33-.001 3.495-.504.074-1.003.215-1.441.48-.889.52-1.543 1.438-1.708 2.458-.172.985.107 2.035.748 2.803.67.826 1.732 1.328 2.798 1.308.002-3.521-.002-7.042.001-10.563.361.021.724.014 1.081.081 1.365.195 2.665.803 3.698 1.714.131.158.32.256.436.428 1.097 1.122 1.786 2.633 1.929 4.194.02.342.065.685.02 1.028-.057 1.242-.459 2.466-1.147 3.502-.642.965-1.516 1.779-2.537 2.331-1.895 1.053-4.27 1.169-6.264.323-.655-.271-1.265-.647-1.811-1.097-.16-.113-.274-.278-.437-.388-.071-.047-.117-.119-.167-.185-.814-.833-1.398-1.884-1.706-3.006-.287-1.061-.326-2.19-.098-3.265.214-1.062.688-2.069 1.358-2.92.26-.312.516-.634.835-.89z"/></svg>