<svg enable-background="new 0 0 79.14 78.574" viewBox="0 0 79.14 78.574" xmlns="http://www.w3.org/2000/svg"><path clip-rule="evenodd" d="m27.609 27.718c-2.386 2.336-5.234 5.255-7.889 7.743-1.223 1.147-3.262 2.785-2.275 5.228.483 1.195 1.462 2.008 2.372 2.855.9.839 1.692 1.792 2.613 2.566 4.743 4.25 8.963 9.104 13.745 13.502 1.022.94 2.138 2.385 4.21 1.791 1.557-.445 2.846-2.116 3.968-3.194 3.654-3.511 7.234-7.29 10.938-10.502 1.939-1.635 3.379-3.702 5.469-5.275.756-.569 1.523-.854 2.662-.871 3.468-.054 7.054.001 10.744 0 1.178 0 2.378-.134 3.243.193.944.357 1.477 1.082 1.645 2.13.341 2.12-.563 4.25-1.113 6.05-.584 1.912-1.168 3.647-1.888 5.372-.741 1.774-1.678 3.215-2.565 4.694-.9 1.499-1.935 2.901-3.049 4.211-5.6 6.576-12.733 11.511-22.746 13.502-2.068.411-4.136.722-6.437.823-4.625.204-9.012-.408-12.874-1.501-5.51-1.558-10.285-4.224-14.374-7.404-4.108-3.198-7.16-7.176-9.678-12.052-1.659-3.211-3.024-6.763-3.727-10.744-.745-4.218-.808-8.948-.145-13.31.322-2.118.835-4.006 1.404-5.856.289-.944.532-1.847.919-2.71.367-.82.731-1.647 1.113-2.469 3.093-6.651 7.654-11.543 13.455-15.535 1.45-.998 2.969-1.951 4.598-2.662 1.674-.731 3.32-1.57 5.13-2.129 2.861-.885 5.47-1.607 8.905-1.985 4.014-.44 8.835-.036 12.148.823 2.576.668 4.928 1.378 7.163 2.274 4.575 1.836 8.453 4.27 11.615 7.308 5.493 5.278 10.087 12.034 11.857 21.295.449 2.353.918 4.936-1.307 5.614-.935.286-2.186.146-3.436.146-2.318-.001-4.676.049-7.017.048-1.12 0-2.296.131-3.581 0-1.941-.196-3.154-1.604-4.356-2.807-1.189-1.188-2.445-2.525-3.582-3.533-2.504-2.221-4.833-4.687-7.211-7.065-1.21-1.211-2.219-2.413-3.485-3.679-1.075-1.075-2.369-2.734-3.775-3.339-.834-.359-2.105-.238-2.855.193-.992.57-1.857 1.64-2.759 2.468-2.703 2.486-5.202 5.304-7.792 7.793z" fill-rule="evenodd"/></svg>