<svg enable-background="new 0 0 65.861 66.601" viewBox="0 0 65.861 66.601" xmlns="http://www.w3.org/2000/svg"><path clip-rule="evenodd" d="m50.974 1.325c.164 3.629.167 7.967 0 11.646-5.138-.272-10.387-.88-15.678-1.045-5.211-.162-11.585-.533-15.38 1.194-3.717 1.691-6.536 4.826-7.766 9.059-1.256 4.327-.064 8.812 1.941 11.646.287.406.595 1.045 1.096.996.729-.07.94-2.029 1.194-2.688 2.454-6.382 6.891-11.156 12.692-14.185 3.369-1.76 7.669-2.921 12.592-2.688 4.622.219 8.557 1.592 11.747 3.584 3.926 2.451 7.227 5.501 9.457 9.755.434.828.711 1.798 1.095 2.737.751 1.843 1.369 3.89 1.642 6.023.309 2.419.249 4.958.249 7.467-.001 2.49-.094 4.959-.199 7.366-.215 4.892-.529 9.562-1.195 14.135-.801.262-1.737.114-2.688.1-1.877-.028-3.921.051-5.923.05-.96 0-1.945.116-2.787-.149.521-7.441 1.736-15.545 1.344-23.791-.079-1.662-.015-3.162-.349-4.629-.644-2.833-1.771-4.821-3.534-6.62-1.681-1.714-3.743-3.112-6.37-3.832-2.782-.763-6.117-.559-8.761.397-2.334.846-4.357 2.433-5.873 4.281-1.536 1.873-2.852 4.199-2.936 7.117.311.907 1.568.777 2.539.796 7.347.146 14.928-.745 21.551-1.294.269.875.149 1.889.149 2.888 0 2.919.048 6.225-.05 8.958-6.225.814-13.204 1.244-20.556 1.245-1.377 0-3.249-.397-3.733.548-.367.717-.01 2.654.05 3.533.174 2.554.287 4.731.498 7.167.103 1.184.328 2.311.249 3.385-3.65.19-7.637.124-11.299.05-.505-2.496-.589-5.323-.796-8.311-.147-2.122-.323-4.185-.398-6.421-.025-.795.022-1.695-.198-2.191-.26-.587-.916-.905-1.643-1.294-1.968-1.051-3.449-2.271-4.978-3.732-3.407-3.315-6.104-7.56-7.366-12.941-1.466-6.254-.059-12.495 2.041-16.973 2.086-4.448 5.6-8.151 9.656-10.651 3.175-1.957 6.78-3.355 11.447-3.782 5.25-.481 11.269-.095 16.425.149 3.76.176 7.427.336 10.802.945z" fill-rule="evenodd"/></svg>