<svg enable-background="new 0 0 18.024 18.251" viewBox="0 0 18.024 18.251" xmlns="http://www.w3.org/2000/svg"><path d="m8.163.043c.485-.072.977-.029 1.465-.041 2.583.122 5.089 1.412 6.683 3.448.799.992 1.365 2.16 1.698 3.387-1.522-.006-3.044-.001-4.565-.002-.208-.352-.442-.69-.71-.999-.552-.583-1.237-1.045-1.998-1.305-1.389-.495-3-.302-4.235.504-.839.549-1.522 1.35-1.888 2.286-.426 1.054-.464 2.259-.095 3.334.334 1.014 1.018 1.907 1.908 2.497.615.413 1.325.684 2.059.78 1.322.193 2.712-.215 3.742-1.061.178-.173.396-.307.536-.518.286-.308.514-.663.719-1.028 1.514-.001 3.027-.001 4.541 0-.359 1.406-1.043 2.734-2.013 3.816-.216.255-.437.512-.705.717-1.818 1.689-4.359 2.558-6.829 2.366-1.572-.106-3.114-.634-4.423-1.511-1.025-.68-1.904-1.573-2.581-2.599-.865-1.317-1.376-2.864-1.472-4.437 0-.352.002-.704 0-1.056.094-1.832.76-3.634 1.891-5.081.322-.436.717-.808 1.1-1.189 1.422-1.289 3.26-2.119 5.172-2.308z"/><path d="m6.878 6.882c1.558-.001 3.116.001 4.674-.001.003 1.465.001 2.932.001 4.397-1.56 0-3.119 0-4.679 0 .005-1.466-.001-2.931.004-4.396z"/></svg>