<svg enable-background="new 0 0 57.929 75.56" viewBox="0 0 57.929 75.56" xmlns="http://www.w3.org/2000/svg"><path clip-rule="evenodd" d="m57.762 26.839c-.091.158-.296-.208-.378-.33-1.293-1.934-2.642-3.747-4.389-5.333-3.052-2.772-7.221-4.608-12.505-5.191-4.584-.506-8.553.546-11.798 2.076-3.212 1.515-5.891 3.556-7.928 6.229-2.006 2.631-3.853 5.755-4.437 9.721-.323 2.199-.369 4.484-.142 6.654.649 6.185 3.656 10.531 7.409 13.827 1.865 1.638 4.062 3.008 6.654 3.964.843.311 1.738.686 2.689.708.206-.606.191-1.294.188-1.935-.049-9.956-.101-20.528.095-31.004.639.355.934 1.087 1.321 1.652 2.785 4.056 5.699 8.214 8.447 12.364 3.104 4.312 6.076 8.78 9.107 13.213.184.268.399.648.756.708.302-8.676-.082-17.773.235-26.899 1.329-.26 3.495.066 4.672-.189.238 1.749.142 3.569.142 5.379-.002 12.886-.008 25.483-.142 38.367-.326.05-.506-.433-.708-.661-1.408-1.942-2.623-4.078-4.059-5.993-4.097-5.94-8.331-11.846-12.411-17.838-.564-.83-1.058-1.79-1.888-2.407-.27 2.386-.114 4.859-.142 7.361-.079 7.552.001 15.438 0 22.699 0 .489.182 1.145-.094 1.557-6.136.202-11.292-1.2-15.668-3.115-4.393-1.922-8.154-4.498-11.373-7.598-3.188-3.07-5.83-6.722-7.881-11.09-2.034-4.34-3.533-9.527-3.534-15.428-.001-6.135 1.259-11.32 3.304-15.668 2.077-4.418 4.543-8.035 7.739-11.231 4.824-4.824 10.54-8.434 18.168-10.288 2.583-.627 5.267-.939 8.4-1.085 6.195-.288 11.902 1.25 16.186 3.162.731.326 1.422.738 2.123 1.085.689.34 1.447.657 1.936 1.227.111 3.587.034 7.186 0 10.76-.034 3.506.238 7.156-.094 10.57z" fill-rule="evenodd"/></svg>