<svg enable-background="new 0 0 79.818 70.772" viewBox="0 0 79.818 70.772" xmlns="http://www.w3.org/2000/svg"><g clip-rule="evenodd" fill-rule="evenodd"><path d="m39.452 0c.488.105.491.697.771 1.011 2.477 4.301 5.011 8.531 7.466 12.91.813 1.449 1.542 2.973 2.409 4.384 1.73 2.817 3.35 5.726 4.961 8.622 4.821 8.662 10.059 17.143 14.933 25.819 2.842 5.06 5.837 10.013 8.719 15.078.409.718.872 1.461 1.108 2.264-2.5.258-5.099.144-7.707.144-7.782-.002-15.774.06-23.315-.048-.014-.644.755-.912 1.108-1.35 2.955-2.607 5.758-6.51 5.347-12.38-.194-2.773-.905-5.432-1.831-7.659-.252-.607-.546-1.715-1.301-1.733-.403.478.117 1.054.289 1.444 1.458 3.315 2.586 7.681 1.686 12.38-.441 2.303-1.531 4.049-2.842 5.636-1.286 1.556-2.878 2.886-4.769 3.662-5.036 2.066-9.113-1.792-11.561-4.239-2.877-2.878-4.898-6.261-7.033-9.875-2.045-3.463-4.094-7.386-5.251-11.706-.598-2.23-1.119-5.067-.675-7.418.455-2.4 1.887-3.54 3.998-4.432 4.765-2.012 9.709.796 12.814 2.697 3.069 1.881 5.761 4.146 8.092 6.744.301.335.526.949 1.108.963.481-.394-.009-.929-.192-1.252-2.389-4.209-4.687-8.278-7.178-12.524-.402-.685-.876-1.421-1.349-2.264-.29-.519-.941-2.127-1.59-1.976-.5.118-.139 1.198-.192 1.782-.227 2.467-2.822 3.507-5.347 3.902-1.215.19-2.454.208-3.613.434-1.117.218-2.156.55-3.083.963-4.054 1.807-6.221 4.656-8.526 7.563 3.534-6.736 7.36-13.28 11.079-19.847 3.727-6.579 7.516-13.091 11.32-19.605.037-.043.09-.071.147-.094z"/><path d="m15.848 41.426c.041-.008.045.02.048.049-.778 1.788-1.398 3.673-1.975 5.732-1.77 6.316.08 14.066 2.938 18.111.954 1.35 2.002 2.441 3.131 3.613.353.367.851.679 1.011 1.204-5.943.185-12.184.098-18.497.097-.829 0-1.719.114-2.504-.144 1.407-2.762 2.947-5.548 4.576-8.286 1.196-2.011 2.298-4.128 3.468-6.214.379-.676.839-1.345 1.156-2.022 1.418-3.034 3.282-6.192 4.962-9.249.564-1.027 1.07-2.095 1.686-2.891z"/></g></svg>