<svg enable-background="new 0 0 69.901 69.925" viewBox="0 0 69.901 69.925" xmlns="http://www.w3.org/2000/svg"><g clip-rule="evenodd" fill-rule="evenodd"><path d="m41.188 0c.545.089 1.187.867 1.787 1.465.279.28.465.512.777.825.25.25.717.592.732.824.039.601-.912.841-1.145 1.374-1.314 1.173-2.463 2.514-3.756 3.709-5.434 5.446-10.93 10.843-16.393 16.303-.359.36-.65.778-1.006 1.144-2.863 2.948-5.887 5.75-8.793 8.655-2.168 2.169-4.41 4.276-6.549 6.503-.707.736-1.492 1.424-2.06 2.29 0 7.462-.184 14.927.045 21.981 6.25.168 12.783.091 19.371.091.908 0 1.992.151 2.703-.045.428-.119.883-.746 1.328-1.191 9.502-9.505 19.053-19.007 28.529-28.484 3.299-3.3 6.447-6.735 9.938-9.892.719.35 1.088 1.05 1.693 1.511.5.554 1.131.976 1.512 1.649-.535.928-1.412 1.597-2.152 2.336-3.703 3.704-7.389 7.572-11.127 11.311-7.443 7.444-15.059 14.864-22.486 22.393-.797.913-1.709 1.71-2.564 2.564-.851.853-1.621 1.804-2.609 2.519-9.377.08-19.236.169-28.851-.046-.172-4.592-.09-9.479-.092-14.334 0-4.835-.033-9.718.047-14.425 1.56-1.859 3.4-3.438 5.084-5.175 5.08-5.162 10.277-10.208 15.387-15.341 6.781-6.865 13.639-13.655 20.516-20.424.03-.041.079-.068.134-.09z"/><path d="m45.217 4.579c.039-.008.045.018.047.046.975.707 1.726 1.636 2.564 2.473 3.711 3.711 7.564 7.518 11.357 11.311.422.422.742.901 1.145 1.374 1.078 1.268 2.504 2.459 3.801 3.755.316.317 1.174 1.044 1.189 1.328.02.32-.592.839-.822 1.053-.697.642-1.232 1.141-1.924 1.832-.271.27-.691.853-.963.87-.342.022-1.082-.816-1.373-1.191-1.094-1.407-2.523-2.661-3.709-3.847-1.736-1.736-3.455-3.408-5.084-5.037-3.43-3.43-6.76-6.712-10.029-10.166.457-.767 1.174-1.309 1.787-1.923.609-.61 1.191-1.251 1.832-1.832.096.02.122-.031.182-.046z"/><path d="m45.951 15.799c.83.33 1.244 1.074 1.83 1.648.586.544 1.197 1.063 1.648 1.74-.98 1.57-2.725 2.65-2.473 5.358.121 1.279.9 2.27 1.649 3.068 2.172 2.315 5.062 4.947 6.961 7.098-.443.741-1.061 1.244-1.693 1.878-.209.209-.523.569-.871.916-.209.209-.686.77-.961.779-.447.014-1.656-1.427-1.924-1.694-1.797-1.796-3.617-3.664-5.357-5.404-2.508-2.507-4.91-4.88-7.145-7.235.455-.719 1.105-1.288 1.695-1.877.586-.587 1.156-1.199 1.832-1.695.752.316 1.021 1.115 1.785 1.42.188-.385.062-.991.092-1.374.16-2.107 1.727-3.302 2.793-4.534.034-.043.085-.07.139-.092z"/><path d="m39.723 28.622c-.123.801-.451 1.532-.733 2.244-.281.706-.434 1.497-.916 2.061-1.26-.552-3.047-.503-4.213.091-2.412 1.231-3.281 4.39-1.879 7.098.9 1.738 3.065 3.81 5.588 4.03.338.03.709.036 1.053 0 2.211-.226 4.334-2.365 4.121-5.174-.07-.937-.436-1.54-.549-2.427.193-.334.658-.346 1.008-.458.992-.318 2.209-.774 3.297-.916.531.557.668 1.485.824 2.335.805 4.362-1.396 7.523-3.756 9.388-1.943 1.536-4.838 2.693-8.014 2.015-2.647-.566-4.848-2.079-6.457-3.938-1.649-1.906-3.016-4.353-2.84-7.556.131-2.33 1.131-4.276 2.336-5.77 1.514-1.875 3.603-3.719 6.777-3.938 1.759-.123 3.212.308 4.353.915z"/><path d="m14.948 53.488c1.629-.17 2.867.988 2.84 2.61-.059 3.371-5.33 3.218-5.176-.229.064-1.43 1.002-2.242 2.336-2.381z"/></g></svg>