<svg enable-background="new 0 0 80.795 67.596" viewBox="0 0 80.795 67.596" xmlns="http://www.w3.org/2000/svg"><g clip-rule="evenodd" fill-rule="evenodd"><path d="m80.575.386c.28.553.135 1.759.099 2.468-.806.683-1.831 1.091-2.764 1.53-5.769 2.713-11.464 5.601-17.327 8.392-.455.217-.959.454-1.432.691-.557.28-1.149.682-1.728.74-1.263.127-2.617 0-3.9 0-6.31 0-13.062.049-19.301-.099-2.415-.057-4.538.45-6.516 1.136-3.74 1.296-6.652 3.693-8.885 6.664-2.25 2.994-3.873 6.565-3.9 11.601-.026 4.846 1.673 8.834 3.851 11.699 2.227 2.93 5.198 5.239 8.886 6.615 1.785.666 4.07 1.086 6.664 1.086 5.02 0 10.035.148 15.253.148 1.226 0 2.483.009 3.751.049 1.229.04 2.908.17 4.048-.049.968-.186 1.985-.923 2.962-1.382 4.888-2.295 9.593-4.759 14.365-7.158.954-.479 1.888-.977 2.863-1.431.962-.449 1.879-1.08 2.962-1.333.207.723.306 2.089.049 2.814-.804.736-1.852 1.096-2.813 1.58-2.902 1.46-5.902 2.771-8.787 4.295-2.879 1.521-5.814 2.91-8.787 4.344-.951.459-1.95.911-2.764 1.58-.057.773-.236 1.906.148 2.468 1.072-.203 1.966-.867 2.913-1.332 2.818-1.385 5.734-2.735 8.589-4.147 3.318-1.641 6.643-3.256 10.021-4.838.448-.21.889-.593 1.432-.543.255.749.205 1.857.099 2.715-1.299.949-2.834 1.529-4.294 2.221-4.33 2.052-8.739 4.333-13.131 6.418-1.259.555-2.938 1.406-4.443 2.073-.464.205-1.159.485-1.333.839-.286.581-.065 1.764.049 2.518.6.173 1.057-.317 1.53-.543 1.435-.683 2.879-1.361 4.295-2.073 3.765-1.893 7.551-3.725 11.403-5.578.949-.456 1.934-.888 2.863-1.382.943-.502 1.873-1.047 2.913-1.333.176.665.402 1.852.148 2.518-.233.612-1.868 1.203-2.616 1.58-4.732 2.379-9.396 4.437-14.118 6.862-1.268.65-2.89 1.368-4.294 2.024-.583.272-.968.624-1.58.691-1.115.123-2.305-.057-3.504 0-3.542.167-7.175 0-10.762 0-14.099 0-29.539-.117-43.539-.197-.456-9.212.282-18.863-.148-28.336-.108-2.371 0-4.768 0-7.158 0-7.045-.14-14.196 0-21.128.969-.66 2.12-.917 3.208-1.382 6.304-2.694 12.962-5.266 19.497-7.95 1.095-.45 2.311-1.241 3.406-1.333 1.074-.09 2.233 0 3.357 0 7.793.001 15.908.148 23.942.148 4.548 0 9.08-.04 13.575.049 4.544.091 9.062-.147 13.525.149z"/><path d="m80.624 8.679c-.809.73-1.87 1.047-2.813 1.53-5.7 2.918-11.646 5.473-17.377 8.54-.753.403-2.071 1.193-2.912 1.382-.792.178-2.127.049-3.16.049-4.94 0-10.366-.049-15.451-.049-2.067 0-4.226-.252-6.171 0-3.729.483-6.289 1.985-8.392 4.245-2.043 2.196-3.457 4.984-3.554 9.034-.096 3.993 1.521 6.925 3.456 9.182 1.992 2.324 4.874 3.866 8.194 4.393 1.783.283 4.012.067 6.17.148 5.257.197 10.213.099 15.648.099 1.037 0 2.191.14 3.061-.049.939-.205 1.976-.92 2.962-1.382 2.918-1.368 5.778-3.048 8.639-4.393 1.973-.927 3.904-1.914 5.775-2.912.955-.51 1.935-.94 2.913-1.432.95-.478 1.909-1.026 2.962-1.333.031.781.447 1.988.049 2.814-.233.484-2.254 1.249-2.813 1.53-5.835 2.934-11.502 5.857-17.426 8.639-1.079.506-2.091 1.136-3.06 1.481-7.02-.028-13.803.091-20.93-.05-1.219-.024-2.41.026-3.505-.049-1.024-.07-2.001-.344-2.913-.592-3.591-.977-6.363-3.004-8.491-5.628-2.097-2.585-3.609-6.125-3.554-10.515.055-4.386 1.638-7.784 3.752-10.366 2.092-2.556 4.999-4.653 8.589-5.529 2.013-.491 4.192-.395 6.566-.395 4.659 0 9.305.025 13.871.049 1.124.006 2.298-.049 3.456-.049 1.122 0 2.447.225 3.505 0 .885-.188 1.942-.862 2.863-1.333 5.539-2.831 11.095-5.535 16.784-8.244.957-.456 1.945-1.098 2.813-1.332.047-.013.084-.086.148-.099.754-.15.421 2.014.346 2.616z"/><path d="m80.378 11.641h.099c.454.612.324 2.152.148 2.962-1.814 1.139-3.818 1.905-5.726 2.913-3.797 2.005-7.563 3.795-11.502 5.775-.916.461-1.921.959-2.912 1.432-1.03.49-1.949 1.144-2.962 1.432-6.358.137-12.779 0-19.055 0-1.754 0-3.349-.084-4.788-.049-1.333.032-2.649.54-3.604 1.185-1.842 1.245-3.275 3.189-3.258 6.319.017 3.075 1.549 5.005 3.406 6.22.988.646 2.254 1.129 3.653 1.185 6.294.252 12.328.099 18.808.099 1.595 0 3.321.2 4.739-.049.891-.156 2.047-.955 3.011-1.431 5.775-2.856 11.483-5.798 17.228-8.639.479-.237.948-.513 1.432-.74.466-.218.94-.552 1.481-.543.174.693.261 1.905.099 2.616-.281.496-.87.66-1.332.889-7.237 3.579-14.645 7.302-21.918 10.909-7.578-.177-14.533.215-21.721-.049-1.863-.068-3.409-.178-4.837-.691-2.596-.931-4.574-2.833-5.776-5.282-.6-1.222-1.086-2.603-1.086-4.394 0-3.687 1.318-5.898 3.258-7.8 1.923-1.885 4.544-2.922 7.997-2.813 3.488.11 7.212.049 10.959.049 2.72 0 5.35.027 7.997 0 .913-.009 1.882.124 2.715 0 .909-.134 2.026-.941 2.962-1.382 1.033-.487 2.051-1.025 2.913-1.431 2.034-.959 4.011-2.089 5.775-2.913 2.912-1.359 5.83-2.833 8.738-4.295 1.036-.525 2.06-.996 3.059-1.484z"/><path d="m80.378 17.663h.099c.284.253.225.871.247 1.333.027.562.042 1.139-.099 1.481-.253.618-2.11 1.25-2.764 1.58-4.905 2.466-9.643 4.684-14.562 7.158-.887.446-1.938 1.044-2.863 1.481-1.049.495-2.12 1.253-3.011 1.432-.812.162-1.907.049-2.962.049-6.204 0-11.678.125-17.919-.049-1.837-.051-3.427-.25-3.653 1.431.077 1.715 1.867 1.437 3.751 1.481 6.884.164 14.234-.016 20.832.049 3.889-1.856 7.716-3.798 11.551-5.726 3.33-1.674 6.662-3.342 10.07-5.035.47-.233.929-.584 1.481-.542.009.735.399 1.89.049 2.715-.196.463-2.248 1.326-2.764 1.58-2.916 1.433-5.926 2.884-8.738 4.245-4.024 1.948-7.721 4.071-11.65 5.677-5.433.15-12.233 0-18.117 0-2.749 0-5.854.232-7.355-.79-.97-.661-1.727-1.575-1.925-2.863-.38-2.469.955-4.357 2.913-4.986 1.501-.482 4.063-.296 5.874-.247 3.949.108 7.849.099 11.946.099 2.153 0 4.662.238 6.417-.197 1.001-.248 2.021-.805 3.011-1.284 4.869-2.353 9.573-4.672 14.315-7.158.942-.494 1.922-.931 2.863-1.432.991-.527 1.972-1.024 2.963-1.482z"/></g></svg>