<svg enable-background="new 0 0 79.276 36.995" viewBox="0 0 79.276 36.995" xmlns="http://www.w3.org/2000/svg"><g clip-rule="evenodd" fill-rule="evenodd"><path d="m79.127.091c.075.527-.577.744-.746 1.192-2.221 2.468-4.332 5.045-6.511 7.555-2.271 2.48-4.206 4.99-6.511 7.556-.306.341-.674.886-.994.993-.844.286-2.344.05-3.479.05-8.284.004-16.151.148-24.056-.05.099-4.304 1.599-7.306 3.479-9.891 2.659-3.654 7.103-6.69 12.824-7.307 2.037-.219 4.263-.099 6.61-.099 2.136-.001 4.401-.05 6.66-.05 4.462.002 8.448-.119 12.724.051z"/><path d="m42.297.19c-.218.893-1.167 1.483-1.69 2.237-.607.735-1.225 1.459-1.838 2.187-3.235 3.878-6.493 7.38-9.792 11.332-.382.458-.986 1.396-1.441 1.541-.81.259-2.33.05-3.43.05-5.695 0-11.577.1-17.297.1-2.32 0-4.601.117-6.809-.149.095-3.949 1.426-6.84 3.082-9.244 2.397-3.482 6.24-6.541 11.034-7.606 1.8-.399 3.562-.376 5.716-.397 1.944-.019 4.026-.05 6.164-.05 5.537 0 11.159-.188 16.301-.001z"/><path d="m79.276 36.673c-4.77.144-9.863.15-14.861.149-4.983-.002-10.187.477-14.265-.647-3.71-1.021-6.86-3.379-9.096-5.915-2.286-2.592-4.042-6.074-4.225-10.636.938-.27 2.072-.149 3.231-.149 5.423 0 10.928-.05 16.303-.05 2.667 0 5.47-.016 8.003 0 3.895 4.157 7.514 8.59 11.332 12.823.604.738 1.272 1.412 1.839 2.188.607.719 1.372 1.279 1.739 2.237z"/><path d="m42.446 36.772c-5.092.192-10.935.206-16.501.199-5.617-.008-11.124.362-15.061-1.541-3.161-1.529-5.456-3.404-7.405-6.015-.966-1.233-1.742-2.702-2.386-4.324-.623-1.568-1.179-3.416-1.044-5.417 8.846-.201 17.435-.092 25.945-.199.389-.005 1.118-.098 1.54.05.403.14 1.113 1.109 1.491 1.541 3.31 3.774 6.601 7.621 9.841 11.332.947 1.023 1.897 2.139 2.833 3.23.295.342.697.684.747 1.144z"/></g></svg>