<svg enable-background="new 0 0 78.058 49.6" viewBox="0 0 78.058 49.6" xmlns="http://www.w3.org/2000/svg"><path clip-rule="evenodd" d="m27.456 37.412c.497-2.346.241-5.296-.049-7.541 1.299-.175 2.823-.097 4.303-.097 1.496 0 3.004.113 4.254-.146.258-9.181-.033-19.173.144-28.328 2.444-.138 5.422-.245 7.88-.048.23.623-.042 1.75.193 2.369.379.02.543-.367.725-.58 1.301-1.52 3.37-2.627 6.14-2.756 3.058-.143 5.842.88 7.444 2.707.546.622.729 1.275 1.402 1.837.607-.375.842-1.124 1.353-1.595 1.438-1.626 3.211-2.699 5.704-3.095 4.418-.698 7.455 1.292 9.329 3.868.936 1.285 1.596 2.946 1.692 4.978.048 1.015.048 2.157.048 3.287 0 1.064.096 2.201-.048 3.19-.065.438-.164.405-.339.773.605.697.387 2.475.387 3.916.001 3.017.078 6.492-.096 9.33-2.194.219-5.257.211-7.639.048-.311-4.453.082-9.645-.097-14.405-.062-1.656.182-3.414-.097-4.834-.363-1.858-2.007-3.371-4.108-3.384-1.973-.012-3.935 1.384-4.496 3.142-.418 1.309-.241 2.928-.241 4.689-.001 4.869.078 10.299-.097 14.84-2.271.389-5.386-.067-7.734.242-.286 2.293.092 5.249-.194 7.541-1.381.176-2.959.097-4.544.097-1.534.001-3.139-.115-4.446.146-.223 3.494.111 7.063-.194 10.538-2.426.124-5.367.234-7.782.048-.288-3.352.109-7.432-.242-10.586-.438-.23-.952-.085-1.45-.097-2.201-.054-4.724.029-7.058 0-.345 2.663-.786 4.898-2.03 6.671-1.188 1.693-2.713 3.058-4.592 4.061-3.863 2.061-10.512 1.694-14.019-.532-3.266-2.071-6.166-5.806-6.718-10.632-.642-5.607.915-10.447 3.625-13.486 1.758-1.96 4.015-3.76 7.203-4.352 3.357-.622 7.332-.252 9.861 1.112 1.573.848 3.097 2.293 4.157 3.723 1.136 1.529 2.001 3.433 2.127 5.607-2.29.08-4.913.08-7.203 0-.708-1.438-1.235-2.518-2.32-3.336-1.364-1.029-3.474-1.287-5.221-.677-3.228 1.128-4.398 4.169-4.398 8.604 0 2.059.212 4.076.918 5.463 1.303 2.554 4.906 4.67 8.363 2.9.883-.452 1.554-1.094 2.03-1.934.495-.872.652-1.871.87-3.094 2.21-.224 4.833-.034 7.203-.097.083.02.091-.036.097-.095zm25.765-22.961c.001-1.782.103-3.463-.387-4.689-.604-1.516-2.093-2.766-4.205-2.61-3.78.278-4.417 3.031-4.496 7.01-.097 4.89-.034 11.198.098 15.42.623.255 1.396.146 2.126.146 2.267-.001 4.761.079 6.816-.097.226-4.566.048-10.416.048-15.18z" fill-rule="evenodd"/></svg>