<svg enable-background="new 0 0 63.303 74.273" viewBox="0 0 63.303 74.273" xmlns="http://www.w3.org/2000/svg"><path clip-rule="evenodd" d="m63.303 31.157c-.442-.301-.44-.896-.588-1.321-1.159-3.352-2.964-6.194-5.185-8.61-2.488-2.706-5.783-4.998-9.638-6.164-4.279-1.295-9.737-1.078-13.697.245-3.927 1.311-7.012 3.591-9.441 6.311-3.055 3.553-5.921 8.512-5.92 15.164.002 6.669 2.413 11.797 5.626 15.41 2.409 2.77 5.514 5.014 9.393 6.408 3.878 1.393 9.168 1.731 13.6.489 3.974-1.114 7.266-3.331 9.784-6.017 2.266-2.417 3.964-5.122 5.234-8.561.167-.452.199-1.007.587-1.37.28.386.123.917.049 1.321-1.163 6.327-4.008 11.818-7.338 16.094-3.616 4.644-8.388 8.523-14.089 10.86-5.64 2.312-13.805 3.768-21.427 2.202-6.851-1.408-12.142-4.59-16.535-8.415-.8-.815-1.697-1.494-2.544-2.446-.238-.269-.69-.671-.636-1.027.058-.367 1.984-1.188 2.349-1.37 5.556-2.768 9.736-7.763 11.888-13.845.659-1.863 1.092-3.811 1.369-6.017.911-7.235-1.762-12.977-4.353-17.415-.612-1.048-1.519-2.024-2.397-2.935-2.192-2.275-4.52-4.216-7.681-5.528-.575-.236-1.217-.488-1.713-.927.013-.64.587-1.1.978-1.517 2.827-3.013 6.203-5.754 9.931-7.876 3.79-2.156 8.215-3.639 13.648-4.158 6.337-.606 12.276.811 16.731 2.593 4.052 1.621 7.365 3.989 10.321 6.506.725.617 1.366 1.449 2.055 2.201 3.4 3.714 6.044 7.812 8.023 13.013.765 2.009 1.401 4.327 1.616 6.702z" fill-rule="evenodd"/></svg>