<svg enable-background="new 0 0 77.615 77.048" viewBox="0 0 77.615 77.048" xmlns="http://www.w3.org/2000/svg"><path clip-rule="evenodd" d="m61.904 25.194c-1.348.143-3.477.223-4.744-.05-.207-1.932-.101-3.691-.101-5.4.001-3.769-.771-6.643-2.372-8.933-2.329-3.332-6.348-4.925-11.607-5.35-3.426-.277-7.168-.113-10.548.454-3.101.52-5.97 1.594-8.479 2.826-2.574 1.265-4.771 2.76-6.812 4.491-2.054 1.742-3.968 3.685-5.501 5.805-1.598 2.208-2.884 4.644-4.038 7.268-2.283 5.191-3.025 13.185-1.514 19.43 1.453 6.006 4.318 10.811 7.771 14.838 1.756 2.048 3.875 3.662 6.057 5.249 3.318 2.413 7.119 4.093 11.86 5.097 3.076.652 6.525.908 10.396.909 2.258 0 4.389-.552 4.29-2.826-.051-1.183-1.099-2.184-2.221-2.321-1.066-.132-2.24.008-3.28.05-3.405.137-6.417-.054-9.286-.808-3.619-.95-6.799-2.288-9.488-4.239-2.594-1.881-4.766-4.312-6.764-6.965-1.943-2.582-3.475-5.737-4.34-9.337-.471-1.959-.8-3.926-.857-6.006-.182-6.53 1.767-11.954 4.44-15.998 2.834-4.285 6.134-7.449 10.7-9.892 4.36-2.333 10.229-3.729 17.059-3.28 1.844.121 4.117.59 5.551 1.312 1.57.79 2.705 1.909 3.28 3.584.673 1.956.519 4.049 0 5.854-.505 1.763-1.742 3.014-3.078 3.785-1.53.884-3.484 1.06-5.804 1.061-2.158 0-4.549-.027-6.461.353-3.691.736-6.324 2.997-8.024 5.704-.885 1.407-1.496 2.99-1.816 5.046-.306 1.954-.076 4.257.555 5.955 1.178 3.175 3.31 5.607 6.51 7.218 2.072 1.042 5.391 1.454 8.934 1.362 2.152-.056 4.334-.383 4.34-2.775.024-1.027-1.014-2.139-2.17-2.372-.881-.178-1.828-.017-2.676 0-.965.019-1.9 0-2.725 0-1.895 0-2.992-.382-4.239-1.212-2.099-1.395-3.786-3.644-3.483-7.419.23-2.854 2.433-5.284 4.744-6.207 1.39-.555 2.991-.516 4.845-.505 8.857.054 17.873-.098 26.799-.101 1.934-.001 3.585.001 4.946.505 3.524 1.305 6.53 5.768 4.29 10.548-.955 2.037-3.137 4.108-5.904 4.34-3.411.287-7.421-.854-8.429 1.666-.343.855-.157 2.292-.202 3.432-.048 1.202.029 2.296 0 3.381-.092 3.413-.08 7.039.051 10.397.043 1.139-.131 2.247-.051 3.331.084 1.15 0 2.332 0 3.483 0 1.099.213 2.223-.151 3.23-1.429.139-3.649.226-4.997-.051-.136-7.599.001-15.727 0-23.316 0-2.213-.096-4.172.455-5.552.556-1.392 1.443-2.484 2.523-3.432 1.027-.901 2.311-1.536 4.289-1.666 1.771-.115 3.682.196 5.754-.101 1.531-.22 2.863-2.168 1.716-3.886-.993-1.487-3.359-1.179-5.702-1.161-8.052.059-16.623-.04-24.529 0-1.422.007-2.967-.011-3.784.353-2.146.956-1.79 4.113.353 4.744 1.068.314 2.418.101 3.635.101 1.232 0 2.48-.104 3.684.102 2.025.344 3.592 1.568 4.643 2.978 1.131 1.514 1.85 3.597 1.414 5.904-.391 2.063-1.426 3.539-2.928 4.644-1.559 1.146-3.401 1.627-5.854 1.766-2.272.13-4.897.041-7.117-.354-4.345-.771-7.44-2.747-9.941-5.248-2.609-2.609-4.496-5.972-4.997-10.194-.582-4.919.976-9.296 2.877-12.113 1.988-2.943 4.818-5.455 8.327-6.863 2.781-1.116 6.132-1.507 9.942-1.262 2.311.148 4.763.077 4.542-2.624-.086-1.055-.771-1.722-1.665-2.069-1.109-.432-2.819-.535-4.139-.505-10.575.243-17.099 4.336-21.298 10.901-2.49 3.895-4.002 8.743-3.482 14.838.221 2.587 1.102 5.053 2.07 7.166.469 1.024 1.096 1.977 1.715 2.877.638.927 1.047 2.008 1.918 2.675 4.326 4.731 10.391 8.116 19.986 7.672 1.512-.07 2.894-.091 4.188.201 1.243.281 2.214.852 3.129 1.464 1.59 1.383 3.014 3.477 2.927 6.309-.083 2.743-1.617 4.694-3.33 5.854-1.027.815-2.309 1.281-3.734 1.463-4.584.587-10.108.187-14.182-.757-5.721-1.323-10.415-3.52-14.334-6.409-2.018-1.488-3.809-3.102-5.551-4.845-3.418-3.418-6.048-7.704-8.076-12.617-1.024-2.482-1.803-5.316-2.22-8.126-.955-6.424-.046-13.157 1.816-18.223 1.927-5.241 4.385-9.518 7.671-13.021 3.438-3.664 7.35-6.525 11.86-8.882 1.201-.628 2.414-1.04 3.684-1.515 2.568-.958 5.208-1.526 8.327-2.019 3.964-.625 8.636-.37 12.567.202 3.585.521 6.488 1.718 8.832 3.532.789.612 1.64 1.123 2.27 1.817 1.298 1.429 2.565 3.135 3.28 4.946.185.47.205 1.053.404 1.614.842 2.381.959 5.687.959 8.983 0 .662.03 1.361 0 2.019-.025.586.047 1.179-.15 1.718z" fill-rule="evenodd"/></svg>