<svg enable-background="new 0 0 81.607 25.927" viewBox="0 0 81.607 25.927" xmlns="http://www.w3.org/2000/svg"><g clip-rule="evenodd" fill-rule="evenodd"><path d="m12.57.003c4.436-.088 7.957 1.816 10.144 4.333 1.849 2.129 3.463 5.451 3.151 9.799-.194 2.713-1.35 5.026-2.757 6.795-1.507 1.893-3.328 3.192-5.466 4.087-2.557 1.071-5.45 1.168-8.125.443-4.632-1.255-8.257-4.8-9.257-9.798-.529-2.642-.251-5.514.837-7.977.89-2.015 2.226-3.772 4.284-5.269 1.849-1.345 4.075-2.351 7.189-2.413z"/><path d="m51.766 1.037c.251 5.617.158 12.585.099 18.663-.018 1.764.216 3.53-.099 5.17-5.474.249-11.67.098-17.776.098-1.006 0-2.021-.01-3.004-.049-.975-.039-1.946.141-2.856-.147-.26-1.714-.147-3.93-.147-5.958 0-5.371-.008-11.204.049-16.692.006-.588-.15-1.16.443-1.28.392-.079.909.044 1.428.049 7.201.074 14.661-.047 21.863.146z"/><path d="m81.607 1.086c-.044.61-.444 1.127-.739 1.625-.883 1.49-1.752 3.041-2.659 4.58-1.205 2.044-2.275 4.186-3.447 6.253-1.167 2.062-2.353 4.127-3.545 6.155-1.198 2.037-2.324 4.093-3.594 6.057-.555-.284-.761-.931-1.034-1.428-3.129-5.686-6.655-11.387-9.898-17.086-.892-1.568-1.746-3.138-2.659-4.727-.27-.47-.782-.962-.64-1.575 7.933-.116 15.435 0 23.34 0 1.646-.001 3.29-.087 4.875.146z"/></g></svg>