<svg enable-background="new 0 0 72.533 72.199" viewBox="0 0 72.533 72.199" xmlns="http://www.w3.org/2000/svg"><path clip-rule="evenodd" d="m60.121.266c.106.342-.417.696-.688.981-.426.448-.913.941-.932 1.814-.021.947.651 2.039 1.619 2.355.794.259 1.767-.05 2.452-.294.667-.237 1.388-.794 2.061-.245-.009.058.012.087.049.099.082 1.039-.774 1.258-1.717 1.127-.726.485-1.692.728-2.159 1.473 1.062 1.557 3.156.588 4.514-.246.879-.539 1.659-1.271 1.962-2.011.569-1.392-.215-3.154-1.569-3.385-1.24-.212-2.166.326-3.091.638-.392.133-.992.345-1.373-.099-.133-.806.775-1.023 1.618-.883.657-.268 1.359-1.261 2.306-1.373 1.034-.123 2.4-.001 3.68 0 1.282 0 2.546-.068 3.531.147.179 2.019.147 4.169.147 6.328.002 6.422 0 13.375-.196 19.572-2.068.226-4.237.146-6.426.146-8.65 0-17.657-.146-26.343-.146-2.159 0-3.794.476-5.347 1.325-2.694 1.472-4.874 4.232-4.954 8.339-.084 4.268 2.166 6.854 4.856 8.486 1.441.874 3.185 1.35 5.249 1.324 2.056-.026 4.304.099 6.573.099 4.333 0 8.775.059 13.195.146 4.441.089 8.921-.184 13.146.147.064 8.604.108 17.606-.147 25.949-11.073.266-22.613-.001-33.356 0-2.954.001-5.594-.08-8.046-.44-2.411-.355-4.614-.974-6.721-1.717-4.059-1.434-7.676-3.636-10.742-6.182-3.017-2.504-5.59-5.486-7.898-9.025-2.225-3.411-3.998-7.691-4.759-12.166-.431-2.532-.71-5.285-.588-7.898.366-7.9 2.88-14.055 6.327-18.983 3.756-5.72 9.056-9.697 15.502-12.706 2.577-1.202 5.483-2.012 8.781-2.501 1.628-.241 3.308-.305 5.198-.393 3.902-.182 8.302.05 12.265.05 4.062 0 8.079.051 12.021.148zm-1.227 6.867c-.841-1.405-1.743-3.393-3.827-3.237-1.51.113-2.333 1.174-2.893 2.356-.363.035-.431-.225-.784-.197-.406.156-.64.423-1.08.688-.319.191-.985.373-1.03.784-.045.432.696 1.252.981 1.717 1.046 1.709 2.084 3.729 3.189 5.004.532-.092.802-.407 1.275-.686.361-.213 1.072-.411 1.128-.834.062-.462-.392-.834-.588-1.178-.25-.434-.493-.885-.638-1.128-.49-.824-1.251-1.599-1.178-2.403.046-.497.674-1.044 1.325-.933.805.138 1.278 1.409 1.716 2.109.14.224.447.716.736 1.178.197.315.511 1.047.884 1.079.375.032.952-.498 1.275-.688.491-.288.853-.371 1.127-.833-.305-.886-1.024-1.805-1.618-2.798zm-14.422-.834c-.261.16-.988.408-1.03.785-.039.346.38.751.49.933.145.236.315.75.686.785.339.031.926-.436 1.275-.639.401-.232 1.041-.552 1.079-.883.032-.272-.317-.654-.49-.932-.264-.423-.336-.798-.785-.736-.385.053-.769.408-1.225.687zm4.317 3.631c-.284-.463-.739-1.456-1.227-1.521-.295-.039-.941.508-1.324.735-.351.21-.987.393-1.03.786-.046.418.714 1.322.981 1.766.811 1.348 1.297 2.053 2.109 3.385.269.443.712 1.532 1.177 1.569.362.03.987-.51 1.275-.686.427-.261.886-.39 1.079-.883-.865-1.516-2.034-3.507-3.04-5.151zm-2.6 4.709c-.612-.934-1.197-2.014-1.914-2.6-1.576-1.29-3.84-.11-4.513 1.324-.181.385-.112.832-.441 1.129-1.987-.779-3.668.523-4.219 1.962-.296.018-.364-.192-.687-.147-.742.484-1.677.775-2.159 1.521 1.104 1.837 1.933 3.277 3.042 5.053.261.418.8 1.508 1.178 1.569.428.07 1.046-.462 1.324-.638.338-.214 1.026-.514 1.079-.883.047-.326-.354-.802-.589-1.178-.551-.884-.87-1.428-1.324-2.256-.167-.303-.571-.737-.49-1.325.068-.5.534-.876 1.079-.833.78.062 1.304 1.283 1.816 2.108.255.413.412.707.735 1.227.22.355.554 1.052.883 1.079.386.033.974-.547 1.275-.735.489-.304.899-.363 1.128-.882-.406-.788-.845-1.458-1.324-2.258-.309-.515-1.245-1.612-1.129-2.452.067-.473.576-.862 1.129-.785.779.107 1.376 1.459 1.766 2.109.203.337.439.751.736 1.226.22.352.567 1.037.883 1.079.419.056.997-.52 1.275-.688.516-.308.996-.446 1.129-.883-.434-.83-1.022-1.856-1.668-2.843zm-12.607 7.848c-.82-1.341-1.544-2.804-3.091-3.287-2.379-.122-3.281 1.232-3.826 2.944-1.407-.476-2.953-.091-3.63.931-.243.368-.186.794-.54 1.08-.737-.357-1.254.152-1.814.49-.408.246-.879.503-.981.834.788 1.745 2.181 3.352 3.041 5.151.219.457.554 1.488 1.03 1.569.404.069 1.005-.447 1.324-.638.369-.22 1.036-.534 1.08-.883.04-.321-.372-.819-.589-1.178-.264-.433-.52-.839-.687-1.128-.443-.77-1.251-1.61-1.129-2.502.074-.541.604-.896 1.129-.834.807.097 1.347 1.487 1.766 2.158.269.43 1.134 2.261 1.619 2.306.378.035.878-.399 1.275-.637.356-.214 1.036-.593 1.08-.884.073-.503-.944-1.797-1.276-2.354-.472-.793-1.292-1.653-1.128-2.552.076-.418.535-.771 1.03-.735.433.031.809.503 1.079.884.599.842.921 1.506 1.521 2.452.249.394.426 1.084.883 1.129.372.035 1.006-.486 1.324-.688.472-.297.776-.425 1.079-.932-.438-.898-1.012-1.784-1.569-2.696zm-12.068 11.333c.28-.172.949-.498.98-.834.033-.348-.718-1.334-.98-1.767-.678-1.114-1.381-2.354-2.06-3.434-.216-.343-.801-1.453-1.227-1.521-.261-.041-2.321 1.243-2.354 1.521-.032.275.414.891.589 1.178.263.428.493.804.687 1.128.455.759 1.239 1.649 1.178 2.452-.043.572-.639 1.023-1.178.981-.808-.062-1.415-1.374-1.864-2.108-.263-.433-1.104-2.347-1.618-2.404-.365-.041-1.019.492-1.324.687-.472.3-.882.49-1.08.933.391.915 1.141 1.921 1.815 2.992.843 1.336 1.542 3.095 3.482 3.041 1.624-.044 2.424-1.261 3.14-2.354.264.015.359.196.687.147.417-.235.778-.426 1.127-.638zm-13.49-2.307c.472-.289 1.471-.667 1.521-1.078.048-.392-.462-.869-.735-1.324-.312-.519-.595-1.426-1.178-1.03-2.695 1.701-6.032 2.917-5.936 7.112.041 1.759.972 3.268 1.963 4.219 1.048 1.007 2.666 1.769 4.61 1.619 1.55-.12 2.587-.779 3.777-1.521.334-.207 2.118-1.109 2.159-1.569.029-.343-.495-1.021-.688-1.325-.299-.471-.491-.88-.932-1.078-1.5.442-2.866 2.48-4.955 2.012-.61-.138-1.049-.553-1.57-.884-.791-.819-.894-2.791-.097-3.679.59-.562 1.135-.905 2.061-1.474z" fill-rule="evenodd"/></svg>