<svg enable-background="new 0 0 75.651 65.806" viewBox="0 0 75.651 65.806" xmlns="http://www.w3.org/2000/svg"><path clip-rule="evenodd" d="m60.949 51.733c.453.287 1.09.252 1.648.235 1.741-.053 3.516 0 5.416 0 2.135 0 5.542-.43 6.83.565.876.676.801 1.777.801 3.532v5.652c0 1.804.156 3.441-1.131 3.909-.922.336-3.466.094-4.662.094-18.816 0-37.791-.098-56.664-.094-1.66 0-3.266.134-4.568-.141-2.416-.511-4.521-2.025-5.935-3.533-1.491-1.587-2.684-3.564-2.684-6.781 0-13.885.045-27.995.047-41.826 0-1.549-.068-3.08.235-4.475.57-2.608 1.784-4.4 3.486-5.981 1.684-1.565 3.956-2.643 6.83-2.826 3.404-.218 7.459.208 11.068.094 1.598-.05 3.637 0 5.512 0 2.054 0 5.367-.435 6.028.848.305.591.188 1.91.188 2.967v6.312c0 1.574.188 2.986-.706 3.58-.55.364-1.504.281-2.402.282-.881.002-1.767.047-2.638.047-2.037 0-3.84-.147-5.464-.047-1.553.096-3.083 1.35-3.392 3.062-.162.902-.074 2.119-.094 3.108-.025 1.269-.082 3.002.424 3.815.531.856 1.289 1.317 2.166 1.648.994.375 2.135.272 3.439.33 1.061.047 2.295.047 3.532.047 2.101 0 4.398-.318 5.039 1.177.284.66.189 1.795.189 2.779 0 1.898-.034 3.882-.048 5.887-.012 1.833.116 3.222-1.271 3.769-1.336.526-3.665.235-5.369.235-1.877 0-3.865-.262-5.37.141-1.136.304-2.478 1.381-2.685 2.685-.145.907-.047 2.074-.047 3.297 0 1.218-.129 2.583.141 3.392.337 1.004 1.269 1.739 2.167 2.119.968.411 2.548.33 3.909.33 5.532-.001 11.343.001 16.957 0 1.56 0 2.976.125 4.098-.142 1.053-.25 1.953-1 2.496-1.743.576-.788.848-1.928.848-3.438 0-8.46 0-16.952 0-25.34 0-1.683.268-3.983-.329-5.134-.446-.859-1.315-1.626-2.214-1.884-.687-.197-1.578-.094-2.449-.094-1.732 0-3.328.035-5.04-.047-1.59-.076-2.963.218-3.485-.942-.314-.695-.189-2.028-.189-3.108 0-2.252.079-4.008 0-6.265-.054-1.55-.079-3.092.989-3.533.636-.262 1.815-.141 2.731-.141h14.366c1.87 0 3.904-.099 5.559.141 1.542.225 3.017.809 4.191 1.554 1.094.695 2.334 1.669 3.015 2.685.747 1.116 1.48 2.446 1.837 3.909.371 1.524.282 3.387.282 5.417.001 3.881.163 7.723 0 11.445-.163 3.718.119 7.448 0 11.257-.064 2.055.165 3.874-.047 5.605-.533 4.361-3.457 7.277-6.782 8.949-.263.136-.751.183-.799.615z" fill-rule="evenodd"/></svg>