<svg enable-background="new 0 0 167.844 112.504" viewBox="0 0 167.844 112.504" xmlns="http://www.w3.org/2000/svg"><g clip-rule="evenodd" fill-rule="evenodd"><path d="m86.572.215c.138 4.539.252 9.263.094 13.942-.158 4.726.158 9.485-.047 14.177-.841.255-1.722.142-2.591.142-6.305 0-12.446-.048-18.558-.047-3.592 0-7.276-.195-10.645-.047-3.295.145-6.385.774-8.949 1.837-5.128 2.126-9.042 5.185-12.247 9.373-1.521 1.989-2.891 4.364-3.768 7.018-.224.676-.36 1.422-.565 2.167-1.161 4.215-1.263 9.973-.095 14.319.185.687.455 1.375.613 2.072.63 2.782 2.177 5.208 3.58 7.206 2.891 4.119 7.129 7.463 12.152 9.42 2.618 1.02 5.451 1.877 8.808 2.025 3.329.146 6.998.094 10.692.094 7.156 0 14.42-.02 21.432.141.202 2.23.094 4.59.094 6.971 0 7.002.09 14.454-.141 21.243-5.334.173-10.581.094-15.732.094-5.221 0-10.363.03-15.449-.047-7.555-.115-14.208-1.693-19.877-3.862-3.795-1.452-7.082-3.457-10.221-5.558-10.959-7.337-19.182-17.591-23.221-32.028-1.184-4.236-1.931-8.863-1.931-13.895 0-5.009.502-9.792 1.554-14.225 2.52-10.614 7.657-18.78 13.895-25.576 2.531-2.757 5.455-5.077 8.573-7.253 6.976-4.87 15.246-8.328 25.905-9.608 3.64-.438 8.01-.283 12.105-.283 8.156 0 16.378.074 24.54.188z"/><path d="m152.562 56.219c.277.519.868.715 1.319.989 3.258 1.977 5.952 4.69 8.243 7.725 2.594 3.437 4.553 7.719 5.37 12.906.906 5.754-.032 11.432-1.79 15.732-1.791 4.384-4.382 7.837-7.489 10.786-3.204 3.041-6.801 5.203-11.54 6.735-2.259.731-4.85 1.265-7.771 1.366-2.976.103-6.045 0-9.138 0-12.118.001-24.396.071-36.315-.142-.009-.038-.047-.047-.047-.094-.179-9.137-.074-18.871.047-28.12.042-.021.084-.041.094-.094 10.509-.018 20.057.046 30.569.047 3.674 0 7.126.295 9.373-1.083 2.236-1.373 3.78-3.84 3.203-7.065-.506-2.829-2.364-4.733-4.993-5.464-1.357-.378-3.198-.188-5.04-.188-5.396 0-10.328 0-15.355 0-6.892 0-13.87.091-20.866-.047-6.92-.137-13.883.09-20.819-.047-3.302-.065-6.958-.094-10.362-.094-1.883 0-3.602.089-5.134-.094-4.39-.524-7.657-2.937-9.75-5.935-1.076-1.541-1.85-3.416-2.214-5.605-.679-4.076.574-7.786 2.355-10.315 2.108-2.995 5.338-5.314 9.938-5.747 1.557-.146 3.265-.094 5.134-.094 17.177-.001 34.885.19 51.811.189 4.872-.001 10.036 0 15.402 0 1.751 0 3.559.066 4.946-.283 2.752-.693 4.513-2.576 5.04-5.417.852-4.596-2.539-8.17-7.16-8.195-4.97-.027-10.751 0-15.496 0-7.101 0-13.675.048-20.584-.189-.19-6.782-.094-13.565-.094-20.913 0-1.122-.008-2.343.047-3.533.059-1.273-.208-2.763.142-3.674.035-.044.085-.071.141-.094 15.07.009 30.036.095 45.076.094 2.942 0 5.512.552 7.725 1.319 4.624 1.602 8.237 3.685 11.493 6.641 3.168 2.877 5.481 6.46 7.348 10.786 1.825 4.228 2.638 9.931 1.837 15.638-.733 5.222-2.821 9.289-5.275 12.859-1.827 2.657-4.131 4.979-6.736 6.876-.866.631-1.86 1.098-2.685 1.838z"/></g></svg>