<svg clip-rule="evenodd" fill-rule="evenodd" stroke-linejoin="round" stroke-miterlimit="2" viewBox="0 0 560 400" xmlns="http://www.w3.org/2000/svg"><path d="m327.6 239.6h68.8v-68.5h-183.1v194h68.5v-74c37.6 24.9 61.5 67.4 61.5 114.7 0 75.8-61.6 137.4-137.4 137.4s-137.4-61.6-137.4-137.4c0-46.2 23.1-88.2 59.5-113.3v72.6h68.5v-194h-183.1v68.5h70.9c-51.8 37.9-84.3 99.1-84.3 166.2 0 113.5 92.4 205.9 205.9 205.9s205.9-92.4 205.9-205.9c0-67.4-32.5-128.3-84.2-166.2zm-123.7-78.9c44.4 0 80.4-36 80.4-80.4s-36-80.4-80.4-80.4-80.4 36-80.4 80.4c0 44.5 36 80.4 80.4 80.4z" fill-rule="nonzero" transform="matrix(.485673 0 0 .485673 180 51.4813)"/></svg>