<svg enable-background="new 0 0 73.542 74.792" viewBox="0 0 73.542 74.792" xmlns="http://www.w3.org/2000/svg"><g clip-rule="evenodd" fill-rule="evenodd"><path d="m47.485 18.574c-1.14.247-2.367.186-3.556.152-3.476-.097-7.489-.285-10.919.051-4.393.431-7.469 2.187-10.005 4.724-2.551 2.551-4.23 5.711-4.622 10.106-.304 3.416-.102 7.315-.102 10.971 0 1.18.124 2.379-.152 3.504-4.985.364-8.947-1.036-11.833-3.352-2.768-2.221-5.039-5.525-5.79-9.599-.807-4.374-.406-9.903-.406-14.779 0-2.63-.028-5.049.457-7.212.479-2.135 1.128-3.955 2.184-5.485 2.609-4.148 6.555-7.259 13.103-7.568 4.16-.196 8.36 0 12.595 0 2.204 0 4.183.016 5.993.305 1.736.277 3.287.949 4.622 1.676 2.759 1.502 4.749 3.648 6.349 6.247 1.604 2.606 2.495 6.075 2.082 10.259z"/><path d="m50.735 1.713c-.009-.043.02-.048.051-.051h.101c4.825 4.661 9.471 9.725 14.272 14.525 4.742 4.742 8.843 10.753 8.279 20.214-.526-.003-.845-.642-1.219-.965-4.96-4.868-9.671-9.823-14.678-14.83-.431-.431-1.833-1.554-2.031-2.184-.239-.758-.028-1.813-.051-2.641-.114-4.075-1.188-7.797-2.692-10.614-.6-1.124-1.26-2.269-2.032-3.454z"/><path d="m55.611 31.068c.673.335 1.64 1.538 2.336 2.234 3.772 3.771 7.281 7.484 11.122 11.326.69.69 1.475 1.407 2.235 2.235.615.67 1.931 1.635 2.133 2.336.257.89-.035 2.578-.102 3.555-.234 3.431-1.274 6.286-2.489 8.685-1.701 3.358-3.919 6.137-6.603 8.278-2.81 2.244-6.053 3.975-10.31 4.622-4.295.653-9.478.407-14.475.406-5.13 0-9.966-.103-13.458-1.473-3.705-1.453-6.335-3.338-8.939-5.942-4.335-4.335-8.569-8.812-12.849-13.256-.591-.613-1.347-1.16-1.727-1.98 3.319 1.887 6.648 3.571 11.529 3.86 4.726.279 10.154-.148 15.135.051 3.349.133 6.717-.094 9.345-.864 3.836-1.123 7.012-3.279 9.65-5.739.88-.821 1.826-1.677 2.488-2.59 2.527-3.483 4.289-7.599 4.724-13.154.062-.799.016-1.625.102-2.488.016-.046.138-.223.153-.102z"/></g></svg>