<svg enable-background="new 0 0 12.697 13.476" viewBox="0 0 12.697 13.476" xmlns="http://www.w3.org/2000/svg"><path d="m6.908 0c.654.018 1.303.139 1.926.342.038.011.075.024.112.038.101.036.201.075.301.115.103.044.208.084.309.134.02.009.059.029.078.039.183.09.358.195.532.302.078.048.151.103.227.153.548.395 1.026.892 1.373 1.474.433.7.661 1.503.803 2.307.024.234.072.465.085.701.049.219.012.443.036.664.011.109.009.219-.003.327-.02.193.014.39-.029.58-.047.519-.146 1.035-.307 1.531-.011.039-.024.077-.037.115-.013.036-.026.073-.04.109-.02.053-.04.106-.059.16-.027.062-.051.125-.076.189-.105.233-.213.463-.341.684-.037.064-.076.126-.113.19-.055.086-.109.173-.168.257-.492.716-1.129 1.331-1.852 1.813-.048.031-.097.061-.144.094-.078.045-.155.094-.234.136-.161.083-.325.162-.487.244-.078.033-.156.064-.234.096-.063.027-.127.05-.191.076-.048.019-.096.036-.144.055-.115.038-.23.076-.344.116-.018.004-.055.012-.073.016-.781.247-1.599.339-2.41.408-.416.005-.832-.012-1.248.012-1.386.001-2.772 0-4.157 0 .162-.319.323-.638.49-.954.314-.617.626-1.234.948-1.846.025-.051.051-.101.075-.152.044-.086.086-.173.13-.258.124-.243.247-.485.379-.723.06-.127.125-.251.19-.375.011-.022.03-.059.039-.078.02-.041.04-.081.059-.121.045-.085.088-.17.132-.256.019-.04.039-.08.058-.119.166-.317.321-.639.492-.953.025-.05.051-.101.076-.152.052-.1.103-.2.152-.301.172-.344.357-.681.53-1.024.01-.019.029-.056.038-.075.038-.076.076-.152.113-.228.046-.085.088-.171.132-.257.173-.329.336-.665.512-.994.079-.163.164-.323.245-.484.01-.019.028-.057.037-.076.044-.09.092-.178.136-.268.062-.133.147-.256.194-.396-.51-.011-1.019.01-1.529-.014-.635 0-1.27 0-1.906-.001-.328.649-.66 1.295-.983 1.945-.248.477-.487.958-.729 1.437-.009-1.855-.003-3.711-.002-5.567.004-.391-.01-.783.007-1.174 1.135.007 2.27-.018 3.405-.01-.08.19-.179.371-.27.556-.274.523-.531 1.055-.803 1.579-.026.05-.051.101-.075.152-.018.035-.036.07-.055.105-.019.04-.039.081-.058.122-.048.09-.094.183-.141.275.738-.002 1.477 0 2.216-.001.41-.025.821-.005 1.232-.013.026-.029.049-.061.069-.095.016-.037.032-.073.05-.11.245-.465.48-.935.721-1.402.019-.04.039-.08.058-.12.026-.05.052-.1.076-.151.018-.035.037-.071.056-.105.009-.019.028-.057.037-.076.01-.02.028-.057.038-.076.113-.214.219-.432.338-.643z"/></svg>