<svg enable-background="new 0 0 70.142 76.454" viewBox="0 0 70.142 76.454" xmlns="http://www.w3.org/2000/svg"><path clip-rule="evenodd" d="m0 76.263c.353-1.29 1.15-2.387 1.714-3.57 1.128-2.369 2.232-4.771 3.475-7.093.331-.618.508-1.191.762-1.856.226-.593.635-1.143.904-1.714 2.24-4.747 4.631-9.417 6.998-14.091 2.37-4.678 4.675-9.357 7.046-14.044 1.769-3.497 3.508-7.036 5.284-10.568.59-1.172 1.21-2.362 1.619-3.618-1.442-.271-2.985-.095-4.523-.095-4.571 0-9.362-.128-13.853.048-.9.986-1.311 2.332-1.952 3.522-.64 1.19-1.344 2.375-1.856 3.618-.206.5-.332 1-.571 1.476-1.317 2.618-2.736 5.34-4.047 8.045-.201.414-.352.971-.81 1.19-.151-12.363-.182-25.296.048-37.275 2.957-.188 6.131-.048 9.283-.048 3.157 0 6.322-.117 9.235.095-.018.739-.498 1.333-.809 1.952-1.885 3.749-3.828 7.613-5.713 11.425-.302.611-.7 1.247-.761 1.952.708.254 1.491.142 2.237.142h13.758c.698 0 1.75.149 2.285-.047.472-.173.824-1.271 1.143-1.904 1.992-3.962 4.089-7.788 6.046-11.949.404-.858.617-1.865 1.665-1.856 3.555.031 6.645.814 9.474 1.714 8.314 2.645 14.301 8.344 18.09 15.424 3.765 7.036 5.116 18.897 2.904 28.42-1.414 6.087-3.684 11.147-6.903 15.424-.811 1.077-1.621 2.098-2.475 3.094-4.165 4.858-10.303 8.733-17.042 10.854-1.409.443-2.984.761-4.618 1-1.633.238-3.309.535-4.999.476-3.519-.122-7.245.048-11.092.048-6.343-.001-12.791-.047-19.328-.048-.868 0-1.769.117-2.618-.143z" fill-rule="evenodd"/></svg>