<svg enable-background="new 0 0 79.368 79.655" viewBox="0 0 79.368 79.655" xmlns="http://www.w3.org/2000/svg"><g clip-rule="evenodd" fill-rule="evenodd"><path d="m38.185.037c6.428-.305 12.199 1.299 16.728 3.168 4.726 1.951 8.747 4.645 12 7.897 6.642 6.642 11.817 14.726 12.417 27.379.153 3.232-.164 6.295-.779 9.092-.612 2.781-1.278 5.354-2.234 7.689-1.929 4.711-4.763 8.686-7.845 12.051-.772.846-1.704 1.609-2.598 2.391-2.652 2.32-5.513 4.359-8.883 6.025-4.543 2.248-9.797 3.615-15.949 3.896-3.036.139-6.1-.234-8.936-.727-2.835-.492-5.397-1.297-7.741-2.182-1.146-.434-2.213-1.068-3.325-1.662-1.108-.594-2.218-1.131-3.169-1.818-1.952-1.414-3.869-2.779-5.506-4.416-.413-.414-.726-.928-1.143-1.352-4.513-4.576-7.92-10.211-9.923-17.455-1.437-5.197-1.785-12.096-.52-17.715.319-1.416.581-2.746.987-4 .399-1.236.888-2.396 1.299-3.637.8-2.42 2.092-4.769 3.273-6.703 1.233-2.018 2.7-3.998 4.312-5.609.848-.848 1.522-1.805 2.441-2.547 2.64-2.133 5.641-4.436 8.988-5.922 4.458-1.98 9.684-3.846 16-3.844.036.001.071.003.106.001zm39.015 46.547c.823-4.232.826-8.928.052-13.143-.73-3.979-1.918-7.801-3.584-10.807-1.699-3.064-3.526-5.979-5.871-8.467-1.125-1.195-2.392-2.352-3.74-3.43-1.317-1.053-2.657-2.223-4.104-3.117-1.42-.877-2.997-1.744-4.624-2.545-1.604-.789-3.314-1.547-5.143-2.027-4.321-1.135-10.466-2.111-15.689-1.246-9.551 1.582-16.512 5.24-22.079 10.807-1.977 1.975-3.713 4.311-5.299 6.701-1.568 2.363-2.89 5.101-3.845 8.103-.973 3.061-1.746 6.414-1.974 9.975-.38 5.923.628 11.204 2.233 15.483 2.651 7.07 7.144 12.943 12.624 17.299 3.405 2.707 7.354 4.609 11.792 6.131 1.509.518 3.103.848 4.78 1.246 3.417.814 7.677.723 11.169.365 3.621-.373 6.932-1.191 9.663-2.338 5.717-2.402 10.226-5.477 14.131-9.82 4.758-4.881 7.946-11.137 9.508-19.17z"/><path d="m44.003 9.076c-.124 1.551-.649 2.99-.987 4.467-.168.736-.39 1.465-.624 2.184-1.145 3.523-1.956 7.193-2.909 10.908.48.584 1.309.517 1.922.625 2.168.377 3.912.988 5.455 2.129 2.497 1.846 4.458 4.369 5.248 8 .188.869.087 1.838.467 2.701 1.91.443 3.602.643 5.091 1.352 4.498 2.143 7.971 6.883 7.741 13.404-.039 1.098-.452 2.275-.831 3.221-1.122 2.793-3.183 5.086-5.663 6.441-1.834 1.004-3.635 1.641-6.442 1.611-1.667-.02-3.604-.482-4.987-1.092-.403-.178-1.092-.584-1.455-.52-.728.129-1.051 2.119-1.299 2.857-.36 1.072-.607 2.256-1.091 3.064-2.865.107-6.255.168-9.195-.051.651-2.588 1.471-5.078 2.286-7.637.778-2.441 1.561-4.953 2.286-7.586 1.031-3.746 2.241-7.588 3.376-11.48.379-1.301.97-2.812.936-4-.05-1.713-1.391-3.166-2.753-3.586-1.734-.531-3.222.377-4.156 1.455-1.542 3.014-2.204 6.906-3.221 10.443-2.88.17-6.472.174-9.351 0 .071-1.498.632-2.869.987-4.262.358-1.404.753-2.797.987-4.311-.511-.564-1.449-.422-2.182-.572-3.222-.664-5.588-2.395-7.378-4.676-1.753-2.234-3.102-5.586-2.701-9.143.412-3.656 1.743-6.037 3.948-8.105 2.017-1.891 4.763-3.41 8.52-3.48 2.776-.051 4.653 1.117 6.806 1.818.485-.289.529-.924.675-1.455.426-1.537.902-3.367 1.506-4.779 1.125-.181 3.237-.101 4.676-.101 1.551 0 3.081-.123 4.312.156zm-21.56 15.846c-1.014 2.682 1.383 5.172 3.792 4.986 1.666-.129 3.755-1.65 3.585-4-.147-2.021-2.057-3.777-4.364-3.428-1.436.216-2.584 1.309-3.013 2.442zm26.651 27.742v1.299c.548 1.906 2.289 3.611 4.571 3.064 1.658-.398 3.025-2.025 2.857-4.312-.476-1.637-1.592-2.633-3.169-3.168-2.535-.078-3.645 1.272-4.259 3.117z"/></g></svg>