<svg enable-background="new 0 0 81.525 67.769" viewBox="0 0 81.525 67.769" xmlns="http://www.w3.org/2000/svg"><g clip-rule="evenodd" fill-rule="evenodd"><path d="m45.814.17c.26 19.393-.021 39.042.248 58.095 1.309.313 2.744.113 4.164.099 4.175-.039 8.769.203 12.789-.05.273-.99.16-2.073.149-3.123-.08-7.646.148-15.399-.1-23-.61-.26-1.366-.148-2.082-.149-2.139 0-4.551.041-6.643-.05-.345-1.416-.07-3.088-.099-4.659-.029-1.549-.19-3.142.05-4.56 6.115-.162 12.436-.214 18.638-.05.375 11.56-.058 23.718.248 35.492 1.198.267 2.706.149 4.164.148 1.45 0 2.91-.096 4.114.149.105 2.607.079 5.761 0 8.476-14.902.206-30.583.238-45.257.099-.233-1.006-.065-2.413-.198-3.52-.509-.055-.913.365-1.289.595-2.811 1.724-5.92 3.168-10.211 3.52-5.232.429-9.357-.791-12.74-2.677-5.025-2.802-8.726-6.989-10.706-12.888-.344-1.025-.557-2.06-.744-3.172-1.059-6.289.737-11.85 3.222-15.812 2.019-3.22 4.849-5.869 8.08-7.634 3.407-1.861 7.771-3.122 12.838-2.677 3.528.309 6.502 1.35 9.021 2.726.83.453 1.515 1.133 2.429 1.388.268-2.723.148-5.765.149-8.724 0-2.977-.006-5.946-.149-8.625-1.247-.267-2.764-.149-4.263-.149-1.483 0-3.017.081-4.312-.099-.197-2.827-.1-6.211-.05-9.121 1.207-.269 2.516-.148 3.817-.149 1.303 0 2.596.001 3.916 0 3.753.001 7.407-.115 10.807.101zm-29.84 32.468c-1.646.828-2.914 1.901-3.965 3.123-2.098 2.437-3.922 5.819-3.57 10.459.26 3.425 1.36 5.712 2.875 7.684 2.412 3.139 6.658 5.925 12.095 5.502 4.296-.334 7.199-2.115 9.518-4.61 2.138-2.302 4.003-5.797 3.668-10.36-.317-4.312-2.165-7.362-4.511-9.617-2.247-2.159-6.077-3.95-10.459-3.668-2.066.133-4.085.699-5.651 1.487z"/><path d="m72.582 12.265c-.86.578-1.274.941-2.082 1.239-2.24.826-4.717.269-6.146-.645-2.989-1.909-4.272-6.363-2.132-9.716 1.026-1.607 2.934-2.934 5.354-3.123 2.489-.194 4.535.951 5.701 2.28 1.103 1.258 1.904 3.239 1.685 5.304-.22 2.066-1.121 3.42-2.38 4.661z"/></g></svg>