<svg enable-background="new 0 0 74.684 74.841" viewBox="0 0 74.684 74.841" xmlns="http://www.w3.org/2000/svg"><path clip-rule="evenodd" d="m8.071 20.684c4.885-5.309 11.005-9.443 19.773-10.717.627-.091 1.26-.194 1.912-.252.688-.06 1.61.064 2.264-.101.915-.23 1.923-1.62 2.667-2.314 1.742-1.624 3.306-3.17 5.031-4.931.378-.386.801-.762 1.258-1.258.544-.589.975-1.071 1.861-1.106 1.114-.045 2.334.198 3.473.352 7.875 1.064 13.631 4.291 18.213 8.504 2.678 2.461 4.644 5.28 6.491 8.754 1.761 3.312 3.124 7.312 3.521 11.724.789 8.757-1.675 15.78-5.081 21.132-.504.791-.941 1.638-1.459 2.314-2.163 2.825-4.938 5.288-7.548 7.698-2.693 2.485-5.129 5.251-7.899 7.346-2.901 2.193-6.219 4.105-9.962 5.333-4.035 1.323-8.384 2.025-13.333 1.51-8.873-.926-15.365-4.912-20.376-10.114-1.215-1.261-2.378-2.715-3.371-4.276-1.984-3.121-3.663-6.399-4.68-10.566-1.571-6.441-.79-14.402 1.409-19.622 1.524-3.618 3.277-6.629 5.836-9.41zm30.894-15.497c-.68.643-1.382 1.286-2.014 1.912-1.35 1.338-2.766 2.574-3.874 4.025-.041 19.068-.149 38.336-.15 57.408 0 1.229-.14 2.454.1 3.623.491.021.848-.443 1.157-.755 1.053-1.061 1.981-2.037 3.069-3.069.628-.596 1.265-1.378 2.012-2.062.516-.472 1.787-1.45 1.963-2.113.244-.922.05-2.542.051-3.824 0-9.298.1-18.064.1-26.516.001-9.827.102-19.374.102-28.98 0-.25.158-1.813-.353-1.66-.765.54-1.436 1.324-2.163 2.011zm5.282 60.025c-.605.045-1.35-.046-1.861.101-.347.099-.629.565-.956.905-1.962 2.041-3.79 3.79-5.686 5.686-.287.288-.802.547-.755 1.057.521.294 1.169.132 1.711.051 4.007-.604 7.687-1.859 10.566-3.522 1.684-.974 3.369-1.952 4.83-3.17 1.115-.93 2.18-1.878 3.17-2.868.275-.275.832-.605.704-1.106-.033 0-.067 0-.101 0-3.598 1.551-7.001 2.525-11.622 2.866z" fill-rule="evenodd"/></svg>