<svg fill="none" viewBox="0 0 130 246" xmlns="http://www.w3.org/2000/svg"><path clip-rule="evenodd" d="m63.5121 5.87494v5.87496l2.6337.3224c9.2033 1.1255 17.5221 8.0058 16.802 13.8965-.8937 7.31-10.1845 8.4327-22.7838 2.7524-3.6047-1.625-8.46-4.8387-21.8268-14.4472-9.757-7.01426-17.4418-12.21771-17.7709-12.03345-.3188.17809-5.0423 3.61587-10.4957 7.63966l-9.915599 7.31529v7.2996 7.2997l10.285999-7.5865c5.6573-4.1729 10.4127-7.5869 10.5683-7.5869.1555 0 3.5238 2.3915 7.4849 5.3141l7.2026 5.3145v6.1034 6.1033l-3.7345-2.723c-2.0542-1.4978-5.3575-3.935-7.3412-5.4162l-3.6072-2.6927-10.3004 7.5851-10.30095 7.585-.257549 7.3096c-.1416521 4.02-.1416521 7.3049 0 7.2992.141652-.0053 4.882619-3.4112 10.534799-7.5684 10.1109-7.436 10.2963-7.5461 11.4378-6.7583.6382.4402 3.9415 2.8309 7.3417 5.3122l6.1811 4.5115.0232 6.0549c.0129 3.33-.0834 6.055-.2143 6.055-.1303 0-3.4063-2.3593-7.2793-5.2424-3.8736-2.8836-7.1862-5.1807-7.3623-5.1052-.1757.0756-4.8852 3.5034-10.4653 7.6174l-10.145886 7.4801-.154539 7.1638c-.0849913 3.9402-.0633517 7.2474.0473945 7.349.1112615.1016 1.5020305-.8339 3.0905905-2.0796 6.33159-4.9631 17.58754-12.9813 18.01304-12.8312.2482.0879 6.9641 4.9679 14.9239 10.8447l14.4727 10.6852-5.9035 5.4661-5.9041 5.4665 5.5322 5.1 5.5316 5.1h-24.8504-24.850399l-.000519 7.717-.000518 7.717 11.332636-.136c6.2333-.075 11.3157.032 11.2951.238-.0206.205-5.1216 4.173-11.3357 8.818l-11.298214 8.445.13239 33.099.132374 33.099 11.96475 9.004c6.5803 4.951 11.8544 9.104 11.7205 9.228-.1339.123-5.5759.178-12.093.121l-11.849799-.103v7.864 7.864l64.416199-.121 64.4158-.12-.001-7.599-.001-7.598h-12.133c-6.673 0-12.075-.149-12.004-.332.071-.182 5.461-4.365 11.977-9.294l11.847-8.963.132-33.061.133-33.06-11.297-8.459c-6.213-4.652-11.314-8.627-11.336-8.832-.021-.206 5.061-.313 11.294-.238l11.333.136-.001-7.717v-7.717h-11.147-11.145l-5.423-4.987c-2.9822-2.743-5.3171-5.083-5.1888-5.202.1282-.118 7.5258-7.0908 16.4398-15.4955l16.206-15.2802.258-15.6745c.187-11.3851.095-15.8871-.335-16.4527-.619-.8145-8.404-7.8577-11.513-10.4159-1.378-1.1341-1.641-1.5819-1.116-1.8996.377-.2284 3.689-1.0315 7.36-1.7847l6.674-1.3696-.149-3.2582-.149-3.2583-4.121-1.5211c-3.504-1.2936-4.12-1.6873-4.12-2.6309 0-.8999.778-1.495 4.12-3.1519l4.121-2.043.149-4.3002.147-4.2997h-33.2424-33.2435zm41.4579 7.02706c3.29 2.3854 3.374 6.2211.191 8.6901-3.691 2.8632-9.7128.2232-9.7128-4.2584 0-4.3424 5.8748-7.0769 9.5218-4.4317zm-20.8539 81.0187c0 .2013-2.0867 2.2809-4.637 4.6212l-4.6374 4.2551 5.5301 5.114 5.5296 5.114h-7.4823-7.4823l-5.5379-5.074-5.5378-5.075 4.5298-4.2273c2.4915-2.325 4.9933-4.4089 5.56-4.6307 1.2923-.5057 14.1652-.5945 14.1652-.0973zm-37.5945 52.1283 9.7791 7.379v25.336 25.337l-5.5373 4.222c-3.0457 2.322-7.4488 5.676-9.7853 7.453-2.337 1.777-4.4628 3.16-4.725 3.072-.2617-.087-4.7657-3.364-10.0084-7.282l-9.5324-7.123-.0371-25.501-.037-25.5 9.6581-7.359c5.3122-4.048 9.8353-7.372 10.0521-7.387.2163-.014 4.7945 3.294 10.1732 7.353zm56.3534.127 9.58 7.269-.133 25.48-.133 25.48-9.272 7.051c-5.0993 3.878-9.5508 7.164-9.8918 7.303-.3415.139-5.0351-3.09-10.4307-7.175l-9.8106-7.428v-25.364-25.364l9.6581-7.352c5.3122-4.043 9.927-7.31 10.2556-7.26.3281.05 4.9084 3.362 10.1774 7.36z" fill="#000" fill-rule="evenodd"/></svg>