<svg enable-background="new 0 0 76.688 70.579" viewBox="0 0 76.688 70.579" xmlns="http://www.w3.org/2000/svg"><g clip-rule="evenodd" fill-rule="evenodd"><path d="m33.53 70.408c-.417-7.107.129-14.398-.19-21.279-.166-3.567-.619-6.607-1.523-9.426-.868-2.705-2.11-5.15-3.523-7.379-2.838-4.475-6.562-8-11.139-10.711-3.845-2.277-8.818-4.187-14.615-4.475-.787-.039-1.61.146-2.428-.096-.108-5.347-.205-11.704.047-16.947 5.128-.172 10.476-.049 15.948-.047 3.942 0 7.977-.049 12.044-.048 4.714 0 9.145-.001 13.996 0 3.183 0 6.239.451 8.712 1.189 5.188 1.549 9.397 3.853 12.949 6.808 5.246 4.508 9.569 10.349 11.663 18.042 1.085 3.987 1.519 8.874.999 13.377-.496 4.302-1.796 8.136-3.38 11.426-1.568 3.259-3.618 6.192-6.046 8.807-2.341 2.521-5.187 4.86-8.236 6.569-3.093 1.734-6.747 3.369-10.901 3.951-4.309.604-9.288.316-14.377.239z"/><path d="m31.721 70.408c-5.191.272-10.582.114-15.9.143-5.254.028-10.515.076-15.614-.095-.109-15.64-.267-31.68-.143-47.558.007-.938-.009-1.992-.047-3.047-.027-.744-.027-1.197.571-1.285.698-.101 1.608.067 2.476.143.839.073 1.628.166 2.332.286 1.61.274 3.016.438 4.332.904 2.682.949 5.062 2.041 7.141 3.285 4.441 2.656 7.704 6.274 10.378 10.473 1.286 2.021 2.365 4.537 3.189 7.236.83 2.716 1.438 5.761 1.333 9.092-.21 6.688.249 13.725-.048 20.423z"/></g></svg>