<svg enable-background="new 0 0 35.335 28.614" viewBox="0 0 35.335 28.614" xmlns="http://www.w3.org/2000/svg"><path d="m13.439.005c4.122-.1 8.223 1.449 11.384 4.071.241-.138.417-.36.621-.545 1.326-1.261 3.004-2.141 4.789-2.533 1.131-.27 2.338-.149 3.425.247.842.313 1.661 1.024 1.679 1.985-.049.645-.382 1.329-1.005 1.593-.423.24-.936.193-1.387.069-.865-.354-1.419-1.167-2.259-1.566-1.357-.753-3.051-.597-4.411.06-.428.254-.885.537-1.177.94 2.028 2.039 3.773 4.483 4.503 7.302.954 3.213.242 6.845-1.786 9.502-1.022 1.308-2.314 2.437-3.822 3.152-.13.069-.192.21-.27.327-1.451 2.106-3.876 3.389-6.366 3.778-2.874.377-5.825-.11-8.474-1.25-1.416.794-2.985 1.548-4.66 1.472-1.308-.007-2.729-.606-3.293-1.855-.591-1.165-.287-2.675.69-3.534.368-.405.883-.605 1.357-.85-1.015-1.502-1.941-3.098-2.411-4.862-1.288-4.164-.336-8.918 2.386-12.31.765-.869 1.545-1.743 2.475-2.438.942-.755 2.052-1.254 3.143-1.744 1.557-.588 3.209-.918 4.869-1.011zm-2.078 2.205c-2.502 1.313-4.651 3.38-5.846 5.964-.375.745-.737 1.507-.928 2.321-1.322 3.817-.859 8.155 1.068 11.686 2.325.21 4.573.921 6.884 1.239.141.023.214-.111.293-.2 1.844-2.11 3.327-4.503 4.66-6.96.808-1.338 1.452-2.76 2.186-4.139.214-.435.522-.843.637-1.314-1.176-.657-2.532-.977-3.877-.925-1.884.088-3.81.967-4.875 2.567-.8 1.24-1.127 2.793-.78 4.237.117.499.314.995.33 1.507.086.718-.215 1.532-.863 1.901-.707.42-1.691.341-2.294-.231-.727-.701-.848-1.77-.831-2.727.189-2.816 2.084-5.417 4.643-6.573 2.694-1.262 5.974-1.282 8.64.076.297-.282.421-.71.638-1.057 1.042-1.76 2.046-3.57 3.436-5.086.122-.094.005-.222-.071-.3-1.182-1.149-2.587-2.097-4.151-2.637-2.889-1.011-6.193-.768-8.899.651zm10.565 6.192c-.436.778-.946 1.526-1.279 2.354 1.109.613 2.102 1.438 2.86 2.457 1.161 1.413 1.701 3.241 1.828 5.038.19-.213.297-.486.461-.719 1.268-2.265 1.981-4.931 1.48-7.518-.357-1.97-1.128-3.95-2.532-5.416-1.183 1.067-1.98 2.469-2.818 3.804zm-1.423 2.562c-.304.488-.528 1.021-.823 1.515-1.237 2.47-2.556 4.901-4.019 7.245-.846 1.283-1.768 2.514-2.75 3.696.147.063.31.056.462.102 2.161.145 4.378-.04 6.407-.845 1.924-.657 3.589-1.926 4.907-3.456.142-.251.47-.431.428-.754.055-2.985-1.654-5.895-4.235-7.374-.114-.065-.242-.158-.377-.129zm-14.702 11.453c.783 1.501 2.025 2.715 3.368 3.725.137.102.307.297.49.175.712-.555 1.375-1.173 2.004-1.819.096-.18.347-.262.349-.491-2.04-.623-4.053-1.504-6.211-1.59zm-4.2 1.081c-1.101 1.074-1.056 3.108.164 4.075.656.616 1.584.828 2.458.888 1.551.009 3.063-.558 4.353-1.393.004-.034.009-.068.013-.1-2.123-1.002-3.956-2.54-5.415-4.37-.623.066-1.163.446-1.573.9zm8.268 2.895c-.122.07-.063.205.044.252 1.793 1.052 3.856 1.647 5.939 1.658 1.473.027 2.957-.277 4.278-.933 1.319-.62 2.556-1.547 3.348-2.79-.56.138-1.085.4-1.66.496-3.192.703-6.476-.021-9.541-.957-.777.781-1.548 1.577-2.408 2.274z"/></svg>