<svg enable-background="new 0 0 76.884 77.302" viewBox="0 0 76.884 77.302" xmlns="http://www.w3.org/2000/svg"><g clip-rule="evenodd" fill-rule="evenodd"><path d="m37.523.036c6.204-.296 11.876 1.287 16.182 3.131 3.324 1.423 6.239 3.407 8.908 5.538.904.721 1.791 1.501 2.553 2.263 3.25 3.25 5.997 6.818 7.994 11.27 1.981 4.413 3.537 9.43 3.708 15.555.262 9.373-2.679 16.897-6.453 22.441-3.841 5.641-9.004 10.258-15.507 13.387-2.183 1.051-4.544 1.906-7.079 2.553-2.627.67-5.502 1.006-8.427 1.107-6.184.215-11.68-1.184-16.133-3.082-2.233-.951-4.275-2.16-6.164-3.468-5.663-3.92-10.303-8.924-13.388-15.506-2.052-4.379-3.589-9.545-3.708-15.555-.127-6.393 1.107-11.815 3.034-16.229 2.934-6.723 7.128-11.997 12.857-16.036 1.926-1.357 3.789-2.675 5.972-3.66 2.246-1.013 4.488-1.942 7.031-2.6 2.622-.68 5.408-.956 8.62-1.109zm-8.572 4.238c-4.79 1.38-8.493 3.236-11.847 5.923-1.675 1.342-3.323 2.652-4.72 4.19-2.877 3.168-5.131 6.509-6.887 10.883-1.697 4.233-2.855 9.306-2.503 15.17.657 10.928 5.231 18.47 11.317 24.223 1.525 1.442 3.113 2.807 4.912 3.949 5.357 3.402 12.115 6.01 20.996 5.634 10.861-.459 18.506-5.293 24.223-11.316 2.852-3.005 5.279-6.601 6.935-10.835 1.665-4.26 2.771-9.298 2.505-15.17-.245-5.399-1.702-10.072-3.709-14.061-2.033-4.046-4.404-7.277-7.561-10.21-3.015-2.801-6.485-5.295-10.738-7.03-4.076-1.663-9.517-3.021-15.218-2.601-2.726.2-5.313.562-7.705 1.251z"/><path d="m21.439 9.668c8.602-.002 17.261.096 25.764.097 2.84 0 5.688-.111 8.475.144.084 3.464.105 7.273-.048 10.402-2.739.142-5.92.048-9.005.048-1.018.001-2.036-.113-2.938.144-.162 1.485-.155 3.618 0 5.104 1.168.331 2.393.193 3.612.193 1.264 0 2.325.074 3.323.434 1.815.652 3.201 1.819 4.093 3.467.915 1.689.866 4.011.867 6.693.001 7.215-.049 14.936-.049 22.201.001 2.723-.378 4.375-1.637 5.923-1.074 1.321-2.81 2.468-4.864 2.649-1.782.156-3.673-.182-5.297.096-.386.802-.017 2.359-.289 3.274-3.311.086-6.92.071-10.113 0-.313-.752.024-2.34-.24-3.274-.922-.268-1.955-.134-2.937-.145-2.795-.029-5.851.051-8.765-.145-.194-7.68-.073-15.31-.049-22.729.021-5.993-.102-12.331.097-18.444 3.698-.307 8.007.11 11.654-.144.32-.646.192-1.643.192-2.601 0-.944.1-1.957-.145-2.649-4.012-.328-7.936.076-11.895-.241-.145-2.224-.048-4.941-.049-7.753 0-.817-.072-2.132.097-2.648.036-.045.089-.073.146-.096zm4.238.337c-1.167 0-2.657-.195-3.66 0-.739.144-.53 1.367-.53 2.264 0 2.697-.053 5.149.097 7.513.893.217 1.887.186 2.89.192 1.988.011 4.061-.001 6.115 0 1.013 0 2.071-.115 2.986.145.135 1.56-.199 3.818.145 5.489 1.327.176 2.968.146 4.623.145 1.644 0 3.372.047 4.815-.048.362-1.751.025-3.872.241-5.586 2.701-.142 6.026-.049 9.005-.048 1.007 0 2.042.113 2.937-.146.174-1.507.097-3.262.097-4.96 0-1.707.161-3.429-.145-4.768-9.737-.149-20.011-.192-29.616-.192zm3.467 23.164c-.057.022-.109.051-.145.096-.223.399-.152 2.29-.192 3.13-.059 1.226 0 2.318 0 3.323 0 6.689-.087 13.57.097 19.745 1.073.288 3.104.289 4.237.048.164-8.654.165-17.713 0-26.198-1.06-.321-2.701-.06-3.997-.144zm9.535 0c-1.633 0-3.539-.038-4.863.048-.35.515-.171 1.168-.193 1.733-.07 1.749-.048 3.724-.048 5.635 0 7.623-.18 15.188-.048 22.489.04 2.264-.031 4.788.144 7.079 2.079.16 4.788.145 7.128.145.81 0 1.662.109 2.359-.145.122-10.443.204-21.564.145-32.361-.008-1.498.121-3.021-.145-4.479-1.335-.259-2.889-.144-4.479-.144zm9.487 24.511c.435-1.193.24-3.817.24-5.538.001-4.877.077-9.415 0-14.255-.015-.954.039-1.94-.192-2.601-.546-1.557-2.144-2.268-4.286-2.07-.057.023-.109.052-.145.096-.195.133-.177.971-.192 1.541-.175 6.283-.049 12.305-.048 18.107 0 2.237-.115 4.48.144 6.598 2.173.584 3.95-.425 4.479-1.878z"/></g></svg>