<svg enable-background="new 0 0 77.874 58.318" viewBox="0 0 77.874 58.318" xmlns="http://www.w3.org/2000/svg"><path clip-rule="evenodd" d="m43.076.116c.255 1.221.146 2.559.146 3.897v8.088c0 1.324-.114 2.643.146 3.848 3.058.272 6.225.098 9.401.098h9.694c1.695 0 3.288-.09 4.676 0 1.43.092 2.621.555 3.703 1.121 2.081 1.086 3.761 2.537 5.065 4.578 1.33 2.08 1.948 4.529 1.948 7.744.001 9.381.077 19.361-.097 28.644-1.376.162-2.888.105-4.336.146-1.458.041-2.966.027-4.287-.146-.127-8.476-.146-17.463-.146-26.158 0-1.527.113-3.129-.146-4.238-.296-1.266-1.255-2.334-2.436-2.68-1.507-.441-3.847-.146-5.602-.146-4.92 0-9.439.049-14.322.049-.904 0-1.828-.109-2.679.147-.16 4.064-.16 8.033-.098 12.129.084 5.508.049 11.117.049 16.807 0 1.377.118 2.766-.146 4.092-4.907.146-9.938.098-14.956.098-5.052 0-10.087.225-14.905-.049-4.967-.283-8.174-1.961-10.571-4.58-1.194-1.305-2.151-2.975-2.63-4.92-.496-2.012-.44-4.334-.44-7.111 0-2.553.001-5.182-.048-7.453-.056-2.582-.157-5.01.146-7.307.552-4.186 2.959-7.287 6.041-9.061 1.686-.971 3.572-1.641 5.895-1.705 7.118-.197 15.385.332 22.407-.049.042.008.046-.019.049-.049.178-4.432.098-9.406.098-14.078 0-.604-.151-1.303.195-1.803 2.602-.051 5.666-.146 8.186.047zm-27.571 24.844c-.922 0-1.873-.111-2.777-.049-1.633.113-2.949 1.137-3.41 2.338-.467 1.219-.244 3.215-.243 4.92 0 2.689-.136 4.895-.049 7.26.03.82.048 1.613.049 2.484 0 1.689-.173 3.645.243 4.822.391 1.102 1.576 2.088 2.826 2.338 1.778.355 3.758.147 5.504.147 4.687 0 9.422.047 14.078.049.872 0 1.813.119 2.68-.146.18-8.117.12-16.342-.049-24.016-6.595-.157-12.483-.147-18.852-.147z" fill-rule="evenodd"/></svg>