<svg enable-background="new 0 0 69.227 41.965" viewBox="0 0 69.227 41.965" xmlns="http://www.w3.org/2000/svg"><g clip-rule="evenodd" fill-rule="evenodd"><path d="m64.912 3.885c-.932-.4-2.207-.231-3.459-.23-7.314.001-14.334.09-21.496.092-1.176 0-2.371.111-3.506-.139-.371-.667-.328-2.494-.045-3.228.525-.322 1.186-.158 1.752-.185 4.291-.202 8.986-.094 13.377-.092 2.51 0 5.043-.047 7.565-.047 2.557.001 5.131.118 7.658 0 .307-.014 1.713-.197 2.076.185.25.267.203 1.485.23 2.168.145 3.879-.01 8.028 0 11.624 0 .607.045 1.433.045 2.307 0 .816.08 1.9-.184 2.168-.289.293-3.074.455-3.553.092-.451-.343-.297-2.738-.275-3.506.066-2.492-.047-4.794-.047-7.519.001-1.232.108-2.527-.138-3.69z"/><path d="m33.269 3.608c-.512.289-1.127.185-1.707.185-4.111.001-8.588-.073-12.869.046-3.543.098-7.135.093-10.933.092-.973-.001-3.051-.239-3.551.139-.535.403-.236 2.394-.23 3.505.014 2.7 0 4.959 0 7.75 0 .987.289 3.066-.186 3.505-.295.275-1.053.185-1.705.185-.668.001-1.375.073-1.754-.138-.342-.612-.277-1.41-.277-2.122.002-4.463.027-9.355-.045-14.068-.012-.722-.067-1.84.23-2.123.305-.292 1.631-.185 2.445-.185 2.734-.001 5.244-.046 7.84-.046 3.686-.001 7.01.114 10.473-.047 2.822-.13 6.225-.047 9.316-.046.793.001 2.531-.193 2.906.139.275.244.186 1.051.186 1.614 0 .652.078 1.158-.139 1.615z"/><path d="m58.039 9.097c.104 1.084 1.695.819 2.721.83.938.01 2.685-.307 3.184.277.428.502.398 2.705 0 3.09-.457.441-2.311.23-3.229.231-1.035 0-2.666-.284-2.723.691-.064 1.124 1.764.861 2.631.83 1.234-.044 2.233-.193 3.229-.185.467.312.295 1.166.322 1.892.025.678.145 1.395-.139 1.799-.91.356-1.924.144-2.906.185-2.025.085-3.885.046-6.135.046-.623 0-2.473.223-2.951-.139-.41-.308-.369-1.796-.369-2.444 0-2.873-.039-5.756-.047-8.349-.002-.841-.084-2.706.461-3.045.383-.237 1.484-.139 2.215-.138 2.363 0 5.096.053 7.195-.047.65-.03 1.967-.186 2.4.231.393.38.404 3.371 0 3.689-.354.277-1.148.04-1.662 0-.688-.053-1.627-.021-2.398-.046-.772-.022-1.719-.128-1.799.602z"/><path d="m33.269 4.946c.32.977.184 2.175.184 3.367 0 2.37.047 4.512.047 6.965 0 .757.232 2.897-.139 3.367-.279.355-1.75.272-2.584.277-.871.005-2.207.155-2.537-.277-.478-.628.113-2.029-.322-2.583-.254-.322-1.656-.418-2.121-.138-.688.412-.373 2.502-1.246 2.905-.709.328-2.518.093-3.414.093-.631 0-1.189-.006-1.752 0-.43.005-.984.178-1.43-.185-.043-.6.496-.874.783-1.292 1.428-2.065 2.613-4.867 2.906-7.979.143-1.5-.271-2.999-.139-4.428.738-.526 2.064-.16 3.045-.323.582-.098 1.467.031 2.215.046.754.015 1.514 0 2.26 0 1.481 0 2.987-.221 4.244.185zm-6.689 5.765c.162.315.414.54.969.462.699-.223.525-1.506.369-2.215-.957-.836-1.41.698-1.338 1.753z"/><path d="m45.769 9.881c.451-.22.262-.866.231-1.338-.033-.502-.01-1.08-.047-1.614-.033-.496-.48-1.564-.23-1.983.279-.469 1.547-.277 2.262-.276.926 0 1.799-.065 2.443.092.699.869.379 2.505.369 3.875-.016 2.568.092 5.233.092 7.979 0 .769.059 1.712-.23 1.983-.369.35-1.957.229-2.49.23-.85.005-1.967.168-2.629-.046-.687-.221-1.477-1.599-1.891-2.168-.23-.316-.523-.691-.877-1.153-.297-.386-.58-1.115-.969-1.015-.561.147-.262 2.388-.186 2.952.051.371.273.919.139 1.199-.553.377-1.66.231-2.674.23-.793 0-2.068.313-2.584-.185-.482-.465-.23-2.42-.23-3.413 0-2.489-.047-4.67-.047-7.149 0-1.224-.219-2.523.369-3.275 1.416-.175 3.062-.118 4.521-.046 1.021.595 1.609 1.651 2.352 2.537.375.445.701.918 1.061 1.384.335.436.673 1.002 1.245 1.2z"/><path d="m8.545 4.761c2.111-.101 4.832-.059 6.965-.046 2.063.012 3.519.688 4.291 1.983 1.486 2.5.455 6.55-.877 8.856-.537.929-1.154 1.575-1.984 2.168-.811.58-1.809 1.121-2.906 1.245-1.371.156-3.029.038-4.566.046-.777.005-1.373 0-2.26 0-.605.001-1.787.125-2.121-.231-.303-.319-.154-1.461-.185-2.307-.111-3.009-.111-5.861 0-8.948.035-.972-.203-2.166.277-2.583.465-.403 2.809-.157 3.366-.183zm2.906 8.257c.017.468-.057.948.092 1.199.389.659 1.984.223 2.352-.139.978-.954.959-3.889.232-4.981-.473-.432-2.008-.648-2.584-.139-.194 1.125-.143 2.781-.092 4.06z"/><path d="m64.959 37.373c.32-1.001.184-2.415.184-3.783 0-3.201-.047-6.048-.045-9.502 0-.587-.043-1.484.184-1.753.277-.329 1.004-.211 1.43-.23.752-.035 1.629-.171 2.215.185.311.7.184 1.534.184 2.307 0 4.516.092 9.71.092 14.483 0 .772.127 1.574-.184 2.261-1.17.409-2.561.216-3.92.23-7.926.086-16.43.093-24.633.092-.574 0-1.346.029-1.982 0-.789-.035-1.598.089-1.893-.184-.357-.332-.447-3.179-.047-3.598.428-.445 2.58-.25 3.414-.276 1.221-.039 2.441.046 3.553.046 6.09-.001 11.914-.092 18.082-.092 1.157-.001 2.342.1 3.366-.186z"/><path d="m63.99 22.289c.275.388.23 1.169.23 1.891 0 .697.123 1.488-.277 1.8-1.369.084-3.023-.087-4.705-.046-.953.023-1.879.143-2.26.784-.652 1.097-.412 4.468.139 5.442.291.333 1.543.614 1.982.184.744-.725-.42-3.985.461-4.751.447-.388 1.562-.23 2.262-.23.746 0 1.73-.201 2.168.185.377.332.252 1.386.23 2.029-.027.809.127 1.455.092 2.214-.031.677-.047 1.47-.047 2.307 0 .704.113 1.838-.139 2.168-.41.54-3.496.304-4.197.323-3.971.109-7.713.309-8.717-2.583-.354-1.018-.246-2.566-.277-4.152-.045-2.294-.203-4.416.508-5.766.473-.896 1.713-1.923 3.045-1.983 2.168-.099 4.836-.001 7.24 0 .752 0 1.573-.127 2.262.184z"/><path d="m44.801 22.197c.791-.004 1.976-.17 2.629.047.951.316 1.443 1.14 1.754 1.892.404.982.367 2.369.369 4.243 0 2.386.17 4.626-.555 6.043-.414.809-1.234 1.61-1.938 1.891-1.123.448-2.719.323-4.381.323-1.604 0-3.238.083-4.336-.415-1.5-.68-2.176-1.978-2.076-4.336.037-.88-.031-1.794 0-2.583.062-1.57-.168-4.013.139-5.074.248-.86.951-1.702 1.66-1.938.832-.276 2.266-.093 3.32-.093 1.204.001 2.235.006 3.415 0zm-3.045 4.013c-.348.778-.238 2.968-.23 4.013.012 1.378.385 3.229 1.938 2.445.887-.448.646-2.19.646-3.645 0-1.76.281-3.877-1.707-3.367-.393.16-.528.288-.647.554z"/><path d="m32.023 29.762c.42.732 1.369 1.056 1.521 2.214.086.647 0 1.51 0 2.307.002.76.096 1.536-.137 2.122-.561.293-1.521.185-2.445.185-.771-.001-1.894.224-2.398-.139-.418-.301-.299-1.327-.369-2.076-.135-1.415-.504-2.774-2.26-2.306-.832.887.072 3.137-.508 4.336-.715.246-1.738.23-2.676.23-.85 0-1.709-.012-2.352-.139-.506-.844-.332-2.256-.324-3.367.017-2.537.047-5.315.047-8.118 0-.873-.15-1.798.23-2.537 1.641-.452 3.957-.022 5.766-.184.691-.062 1.846 0 2.859-.046.963-.044 2.092-.128 2.768.046.748.192 1.469.919 1.662 1.476.268.778.158 2.39.137 3.459-.027 1.407-.851 1.773-1.521 2.537zm-3.828-3.367c-.281-.682-1.271-.941-1.891-.876-1.074.111-.896 1.586-.646 2.536 1.313.854 3.15-.169 2.537-1.66z"/><path d="m18.324 35.851c-1.455 1.371-4.639.889-7.52.969-1.941.054-3.908.071-5.488-.093-.539-.842-.324-2.188-.324-3.413 0-3.004-.023-5.978-.045-9.087-.004-.608-.111-1.345.139-1.614.418-.454 2.127-.231 2.951-.231 2.932.002 4.844.037 7.703 0 .504-.006 1.008-.114 1.43 0 1.824.495 2.613 3.658 1.477 5.582-.225.379-.977.718-.969 1.152.008.431.848.735 1.154 1.154 1.117 1.526.734 4.368-.508 5.581zm-4.797-9.779c-.279-.788-2.168-1.093-2.723-.276-.096.548-.082 1.328.186 1.66 1.184.493 3.033.025 2.537-1.384zm-.047 5.074c-.547-.252-1.969-.756-2.49-.092-.393.499-.234 1.714.184 2.121 1.535.539 3.47-.559 2.306-2.029z"/><path d="m.656 22.474c.44-.114 2.709-.207 3.092.093.488.382.272 2.774.275 3.552.02 2.647.047 5.175.047 7.703 0 1.061-.227 3.337.186 3.782.436.471 2.537.188 3.504.185 6.105-.023 12.305-.094 18.406-.093 1.303 0 2.404.059 3.643 0 1-.047 3.176-.173 3.553.185.309.293.231 1.258.231 1.845 0 .633.064 1.586-.231 1.846-.273.241-1.402.176-1.937.185-2.121.032-4.383 0-6.226 0-5.865-.001-10.742.094-16.744.092-1.268 0-2.752.072-4.152.046-.969-.018-3.426.266-3.92-.184-.307-.279-.24-1.501-.23-2.215.064-4.99-.047-9.305-.047-14.668-.003-.711-.245-2.147.55-2.354z"/></g></svg>