<svg enable-background="new 0 0 52.771 76.811" viewBox="0 0 52.771 76.811" xmlns="http://www.w3.org/2000/svg"><g clip-rule="evenodd" fill-rule="evenodd"><path d="m52.582.161c.396 7.859-.051 16.385.145 24.551.1 4.15 0 8.365 0 12.518v12.564c0 4.219-.551 7.674-1.885 10.731-1.267 2.902-2.776 5.603-4.784 7.781-1.995 2.162-4.348 3.996-7.008 5.557-1.293.758-2.791 1.443-4.35 1.934-1.591.5-3.361.9-5.22.967-.192-18.762-.098-38.328-.097-57.561 0-5.645 0-11.24 0-16.914 0-.727-.113-1.514.144-2.225 7.432-.077 15.742-.124 23.055.097z"/><path d="m23.633 23.552c.345 1.012.193 2.119.193 3.189.001 15.545-.002 31.309 0 46.928 0 1.051.117 2.139-.193 3.143-3.723-.291-6.861-1.434-9.569-2.852-5.384-2.822-9.366-7.229-11.889-13.049-1.27-2.928-2.176-6.449-2.175-10.295 0-7.857 2.884-13.83 6.766-18.221 1.937-2.189 4.071-4.144 6.814-5.654 2.816-1.549 6.091-2.84 10.053-3.189z"/></g></svg>