<svg enable-background="new 0 0 30.437 31.682" viewBox="0 0 30.437 31.682" xmlns="http://www.w3.org/2000/svg"><path d="m.1.002c.679-.004 1.357-.001 2.036.002-.031 10.519-.086 21.04-.093 31.559-.681.018-1.362.008-2.043.005.042-10.522.047-21.044.1-31.566z"/><path d="m28.372.104c.689.001 1.377.003 2.065.006-.053 10.524-.079 21.048-.122 31.572-.692-.001-1.383-.006-2.074-.007.039-10.523.046-21.048.131-31.571z"/><path d="m4.093 12.737c7.395.007 14.788.053 22.182.078-.002.678 0 1.356-.011 2.034-7.392-.025-14.785-.054-22.177-.087.01-.675.007-1.35.006-2.025z"/><path d="m4.049 31.591c0-4.987.014-9.974.05-14.96 7.389.026 14.777.063 22.166.084-.013 4.984-.05 9.966-.055 14.95-.684.007-1.369.002-2.053-.004.013-4.288.01-8.577.043-12.865-6.017-.069-12.038-.054-18.056-.091-.048 4.29-.031 8.584-.045 12.875-.683.036-1.367.005-2.05.011z"/></svg>