<svg enable-background="new 0 0 57.535 66.792" viewBox="0 0 57.535 66.792" xmlns="http://www.w3.org/2000/svg"><path clip-rule="evenodd" d="m29.076 21.028c.634-.471.811-1.297 1.139-1.946 1.034-2.041 2.205-3.89 3.56-5.648 2.676-3.473 5.836-6.409 9.731-8.687 2.536-1.483 5.494-2.705 8.734-3.512 1.586-.396 3.265-.913 5.079-.854.319.599.19 1.313.19 1.946 0 13.051-.094 26.208-.095 39.351 0 7.733-.048 15.417-.047 23.211 0 .633.135 1.316-.19 1.898-3.698-.119-6.862-1.301-9.73-2.42-2.914-1.137-5.416-2.79-7.737-4.509-3.408-2.674-6.188-6.083-8.449-9.921-.378-.643-.694-1.326-1.044-1.994-.331-.631-.498-1.441-1.139-1.898-.367.129-.521.582-.665.902-.461 1.028-1.036 2.111-1.566 3.133-.88 1.192-1.565 2.58-2.563 3.655-1.838 2.308-3.824 4.467-6.266 6.171-3.437 2.643-7.623 4.921-12.626 6.076-.821.189-1.695.437-2.563.569-.854.131-1.765.384-2.658.143-.258-1.352-.143-2.739-.143-4.129 0-4.177.047-8.462.047-12.674 0-16.28.076-31.441.095-47.847.001-.56.023-1.827.189-1.946.034-.047.085-.075.141-.098 3.784.165 7.042 1.255 9.921 2.516 5.816 2.546 10.307 6.094 14.002 10.775.472.597.925 1.178 1.329 1.804.788 1.219 1.549 2.625 2.184 3.987.312.67.519 1.453 1.14 1.946zm-8.592-5.506c-3.301-4.193-7.573-7.054-12.958-9.209-.939-.376-2.01-.954-2.801-.712-.24.328-.143 1.778-.143 2.468 0 1.799.001 3.301 0 5.032 0 .871-.112 1.739.143 2.468 1.232-.104 2.422-.601 3.75-.807 3.751-.583 7.9-.015 10.633 1.186.614.27 1.188.703 1.851.664.066-.406-.249-.803-.475-1.09zm31.898-9.636c-1.642.354-3.202 1.058-4.699 1.756-3.728 1.737-6.762 4.101-9.304 6.93-.521.581-1.188 1.124-1.376 1.899 1.165-.117 2.241-.811 3.465-1.187 2.176-.668 4.735-1.132 7.737-.901 1.674.128 3.196.745 4.794.854.326-.761.19-1.719.19-2.658 0-.932-.047-1.888-.047-2.801 0-1.392.219-2.803-.142-3.892-.247-.099-.483-.029-.618 0zm-27.816 20.316c-1.052-1.591-2.012-2.7-3.512-3.797-1.718-1.256-3.325-2.264-5.792-2.801-2.733-.595-5.255-.4-7.737.285-.945.261-2.58.663-2.895 1.377-.137.309-.085.841-.095 1.329-.162 7.992.09 15.606 0 23.212.721.701 1.729 1.074 2.706 1.424 5.479 1.962 11.29.079 14.525-2.896 1.194-1.098 2.004-2.201 2.895-3.56 1.073-1.636 1.983-3.771 1.756-6.123-.729 3.377-2.948 5.795-6.17 6.598-1.727.431-3.943.164-5.412-.522-2.248-1.05-4.31-3.465-4.509-6.503-.149-2.27.722-4.32 1.804-5.553.92-1.049 2.524-2.128 4.177-2.564 1.859-.489 4.159-.112 5.506.523 2.404 1.13 3.829 3.467 4.651 6.265.054-2.755-.789-5.019-1.898-6.694zm28.576-1.709c0-.995.229-2.63-.095-3.323-.281-.599-1.751-1.049-2.611-1.282-1.083-.293-2.363-.521-3.37-.569-2.85-.137-4.741.307-6.788 1.139-1.334.543-2.662 1.281-3.607 2.088-.268.229-.466.567-.759.854-2.435 2.384-4.635 5.586-4.367 10.206.374-.507.237-1.014.38-1.566.615-2.387 2.503-4.669 4.889-5.506 1.452-.509 3.08-.726 4.747-.285 3.532.937 6.68 4.497 5.886 9.161-.11.649-.389 1.377-.712 1.994-1.496 2.854-5.999 5.281-9.92 3.655-.559-.232-1.24-.641-1.756-1.044-1.309-1.022-2.465-2.38-2.99-4.13-.172-.572-.142-1.236-.475-1.851-.238.867-.009 1.79.142 2.61.149.81.378 1.656.665 2.374.982 2.458 2.73 4.801 4.794 6.361 2.157 1.63 4.97 2.715 8.164 2.99 1.493.128 3.025-.17 4.32-.475 1.28-.301 2.579-.661 3.37-1.424.036-7.227.093-15.165.093-21.977zm-34.746 27.009c-1.765.607-3.736.986-5.839 1.14-2.242.163-4.402-.262-6.123-.76-.573-.165-1.19-.47-1.804-.332-.255.696-.143 1.534-.143 2.373v5.032c0 .825-.145 1.717.19 2.373 1.633-.075 3.05-.749 4.415-1.282 4.134-1.614 7.316-4.383 10.158-7.262.375-.671 1.267-1.074 1.282-1.946-.793.099-1.397.409-2.136.664zm18.797-.427c.203.598.897 1.422 1.376 1.946 1.601 1.748 3.383 3.305 5.317 4.509 1.882 1.379 4.071 2.551 6.455 3.37.805.276 1.646.672 2.563.617.252-.677.143-1.497.143-2.278 0-1.557 0-3.14 0-4.747 0-.81.11-1.626-.143-2.326-2.49.367-4.894.994-7.689.807-1.442-.097-2.922-.413-4.177-.76-1.176-.324-2.706-.992-3.75-1.281-.06.02-.098.062-.095.143z" fill-rule="evenodd"/></svg>