<svg enable-background="new 0 0 91.008 66.409" viewBox="0 0 91.008 66.409" xmlns="http://www.w3.org/2000/svg"><g clip-rule="evenodd" fill-rule="evenodd"><path d="m44.252 0h.105c.353.281.21.791.21 1.155 0 6.507.056 12.952.105 19.835 1.025.429 2.968.151 4.146.053.304-8.522 3.905-14.288 8.973-18.104 1.597-1.202 3.362-2.438 5.457-2.939.239.766.123 1.591.158 2.414.103 2.451 0 5.199 0 7.924 0 3.568-.043 7.221.052 10.652 1.014.318 2.802.132 3.988.105.274-.652.213-1.351.263-1.994.361-4.643 2.043-8.461 4.198-11.439 1.215-1.679 2.697-3.253 4.407-4.513 1.703-1.254 3.596-2.523 5.878-3.043.156 5.1.157 10.473.157 15.638 0 1.726-.12 3.434.104 5.037 2.573.422 5.858-.111 8.554.263.027 4.045-2.251 6.583-5.09 7.977-1.027.504-2.191.648-3.464.892-.191 4.085-.104 8.461-.104 12.594 0 2.21.096 4.242-.263 6.087-1.349 6.939-4.97 12.082-10.128 15.27-1.276.789-2.632 1.658-4.197 1.994-.218-1.34-.158-2.77-.158-4.198.001-1.496.053-3.019.053-4.565 0-9.124.003-17.812-.104-26.867-1.027-.289-2.944-.207-3.988 0-.28.944-.157 1.989-.157 2.991v9.445c0 2.207.182 4.324-.105 6.192-.265 1.726-.797 3.434-1.417 4.88-1.895 4.426-4.666 7.901-8.554 10.338-1.283.804-2.642 1.689-4.25 2.046-.277-.676-.157-1.437-.157-2.151.001-10.989.049-22.664-.053-33.689-.571-.277-1.328-.232-2.046-.209-.673.021-1.481-.081-2.151.052-.597.119-1.447 1.185-1.942 1.679-3.94 3.941-7.759 7.811-11.702 11.754-.262.262-.514.772-.997.683-.148-6.762-.105-14.241-.105-21.515 0-2.452-.008-4.703.525-6.822 1.445-5.75 4.553-10.252 8.868-13.276 1.462-1.028 3.105-1.96 4.931-2.626z"/><path d="m28.3 21.095c.282 1.354.158 2.835.158 4.303 0 4.333.086 9.067-.105 13.276-.523-.024-.788-.526-1.102-.84-.934-.934-1.953-1.881-2.886-2.886-2.587-2.555-5.219-5.066-7.661-7.766-1.187-1.367-2.67-2.438-3.726-3.936.579-.572 1.445-.792 2.257-1.05 1.576-.499 3.399-.97 5.457-1.102 2.473-.158 5.073-.15 7.608.001z"/><path d="m22.895 35.894c-6.926.166-14.352.095-21.515-.053.178-1.335.908-2.554 1.574-3.673 1.912-3.213 4.644-6.38 8.029-8.029.633-.309 1.305.728 1.837 1.259 1.051 1.051 1.976 1.924 2.991 2.938.503.503.893 1.076 1.364 1.574 1.726 1.826 3.465 3.354 5.195 5.143.199.206.597.464.525.841z"/><path d="m44.357 32.43c.416.112.259.668.262.944.027 2.598 0 5.455 0 8.134 0 3.151.213 6.308-.787 8.501-5.292.127-11.44.247-16.844-.052.104-.549.647-.852.997-1.207 4.584-4.671 9.318-9.372 14.011-14.063.768-.768 1.495-1.612 2.309-2.256.017-.001.035-.001.052-.001z"/><path d="m17.28 37.415c.051.505-.472.768-.735 1.103-.814 1.037-1.891 1.933-2.833 2.938-2.526 2.695-4.979 4.978-7.662 7.661-.941.941-1.801 1.885-2.886 2.886-.247.228-.797.874-1.049.839-.36-.05-.727-1.325-.892-1.836-1.197-3.702-1.822-9.458-.42-13.539 5.478-.19 11.031-.161 16.477-.052z"/><path d="m14.446 42.925c.368.277.21.831.21 1.207v18c0 .875.12 1.763-.157 2.571-2.804-.818-4.85-2.393-6.822-4.041-1.437-1.242-2.617-2.687-3.831-4.355-.25-.344-.962-1.284-.944-1.732.02-.493.965-1.228 1.312-1.574 1.462-1.462 2.908-2.817 4.251-4.303 1.997-1.816 3.761-3.865 5.772-5.667.039-.049.096-.08.158-.105.016-.001.034-.001.051-.001z"/><path d="m31.711 64.178c-.526.59-1.424.756-2.256 1.049-2.894 1.019-7.555 1.587-11.125.84-.735-.154-1.479-.328-2.046-.682-.196-5.498-.097-10.983 0-16.478-.002-.09.039-.136.105-.157h.105c5.081 5.133 10.317 10.112 15.217 15.428z"/><path d="m43.255 51.584c-.153 1.354-.986 2.559-1.627 3.726-1.547 2.821-3.708 5.238-6.454 7.084-.418.281-1.271.999-1.679.997-.739-.003-1.072-1.159-1.627-1.364-1.483-1.49-2.943-3.004-4.46-4.46-1.639-1.739-3.478-3.497-5.195-5.248-.174-.178-.661-.498-.42-.84 5.985-.095 12.785-.053 18.943-.052.863-.001 1.734-.127 2.519.157z"/></g></svg>