<svg enable-background="new 0 0 60.239 72.977" viewBox="0 0 60.239 72.977" xmlns="http://www.w3.org/2000/svg"><path clip-rule="evenodd" d="m57.436 40.752c1.76 1.445 2.805 3.893 2.725 7.217-.075 3.129.041 6.696.051 9.741.011 3.4-.927 5.728-2.726 7.268-1.369 1.172-3.198 1.993-4.845 2.978-1.639.98-3.381 1.835-4.997 2.776-1.713.998-3.276 2.04-5.602 2.22-2.42.189-4.116-.689-5.854-1.817-2.337-1.515-4.882-2.917-7.318-4.391-2.436-1.473-4.884-2.9-5.4-6.258-.256-1.662-.101-3.826-.101-5.753 0-.576.117-1.211-.151-1.767-.917.095-1.595.658-2.321 1.06-1.777.984-3.649 2.035-5.552 3.129-.398.229-.793.552-1.161.555-.491.005-1.356-.657-1.868-.959-3.687-2.174-7.034-3.989-10.7-6.258-.438-.271-1.588-.902-1.615-1.211-.038-.435.742-.695 1.211-.959 1.367-.768 2.856-1.686 4.088-2.372 4.685-2.608 9.022-5.2 13.727-7.823.898-.501 1.84-.999 2.574-1.716-.682-.805-1.685-1.234-2.574-1.767-5.803-3.473-11.682-7.12-17.614-10.599-.406-.238-1.209-.656-1.211-.958-.002-.378 1.183-.951 1.616-1.212 1.864-1.122 3.677-2.022 5.451-3.028 1.234-.7 2.402-1.392 3.583-2.069 1.187-.682 2.353-1.442 3.684-1.968.857.208 1.551.768 2.271 1.211 1.413.87 2.845 1.719 4.29 2.574.706.417 1.383.969 2.221 1.11.355-.66.202-1.465.202-2.17 0-2.289-.156-4.711.504-6.46.825-2.185 2.45-3.525 4.593-4.694 1.92-1.047 3.854-2.265 5.905-3.381 2.334-1.271 4.391-3.234 7.975-2.978 2.216.159 3.848 1.573 5.451 2.473 1.778.999 3.24 1.939 4.946 2.927 3.25 1.881 7.171 3.652 7.268 8.529.05 2.503 0 5.126 0 7.924 0 2.43.308 5.658-.303 7.57-.941 2.949-3.596 4.229-6.157 5.703-.555.32-2.379 1.129-2.372 1.565.006.411 1.125.818 1.514 1.06 1.591.989 3.117 1.959 4.592 2.978zm-1.161-23.721c-.038-1.02.076-2.061 0-2.927-.268-3.046-3.567-3.994-5.652-5.35-.55-.358-1.089-.691-1.615-1.009-2.298-1.391-4.418-2.752-6.713-3.735-1.839-.117-3.123.585-3.785 1.867-.402.778-.716 2.305-.252 3.281.272.573 1.445 1.043 2.12 1.463 2.383 1.486 4.303 2.579 6.712 4.038 2.639 1.597 5.221 3.216 7.823 4.744.363.213.766.585 1.211.505.237-.823.189-1.856.151-2.877zm-22.408-9.135c-.867.371-1.763 1.022-2.776 1.615-1.562.914-3.154 1.552-3.583 3.381.033 3.147-.066 6.426.05 9.489 1.536 1.089 3.198 1.99 4.795 2.927.532.313 1.042.8 1.716.858.267-.67.151-1.447.151-2.17 0-4.769 0-9.393 0-14.031 0-.766.206-1.733-.303-2.069-.017 0-.034 0-.05 0zm4.39 6.41c-.312.612-.101 2.049-.101 3.028 0 3.148-.22 6.629.101 9.388 1.048-.225 1.881-.924 2.776-1.414 1.835-1.002 3.58-2.003 5.35-3.028.87-.504 1.861-.943 2.523-1.716-.723-.703-1.664-1.157-2.523-1.665-2.645-1.565-5.216-3.202-7.874-4.694-.034 0-.067 0-.101 0-.059.024-.114.054-.151.101zm17.917 36.186c0-1.716.271-3.95-.202-5.148-.665-1.687-3.164-2.832-4.794-3.835-3.648-2.246-6.852-4.224-10.498-6.359-1.826-1.069-3.663-2.128-5.249-3.23-3.378-2.345-7.019-4.23-10.497-6.359-2.561-1.568-5.179-3.235-7.874-4.795-.752-.436-2.229-1.74-2.927-1.464-.993.394-2.099 1.166-3.23 1.817-.446.256-.985.623-1.564.958-.43.25-1.483.623-1.464 1.06.011.244.731.657 1.161.908 3.181 1.866 6.326 3.766 9.236 5.552 3.541 2.173 7.086 4.33 10.548 6.359 3.626 2.126 7.053 4.305 10.447 6.46 3.485 2.212 7.146 4.123 10.599 6.308 1.502.923 3.072 1.81 4.542 2.726.471.294 1.004.755 1.615.707.267-.416.151-1.057.151-1.665zm-14.232-21.297c-.412.231-1.413.627-1.413 1.009 0 .335.496.475.706.605 1.561.97 2.629 1.629 4.088 2.473.473.273 1.25.922 1.767.908.624-.017 1.572-.864 2.17-1.211.751-.436 1.46-.814 2.17-1.212 1.237-.693 3.352-1.502 4.189-2.574.755-.967 1.018-2.542.454-3.735-.266-.564-.787-1.086-1.262-1.464-.59-.469-1.464-1.111-2.271-.959-3.515 1.994-7.027 4.151-10.598 6.16zm-14.384 11.002c-.087.7-.05 1.631-.05 2.574 0 5.238-.116 10.471.05 15.292.034.967-.074 1.863.151 2.473.46 1.246 2.11 2.315 3.886 2.07.894-.124 1.638-.677 2.322-1.211.012-5.629.053-11.552-.05-17.564-.801-.771-1.827-1.36-2.927-2.019-.866-.518-2.284-1.437-3.23-1.767-.073.029-.124.079-.152.152zm-6.561 1.11c-3.809 2.204-7.627 4.361-11.356 6.51-.62.357-1.341.662-1.767 1.262.857.847 1.997 1.362 3.129 2.069.466.292.955.68 1.564 1.009.484.262 1.252.857 1.767.858.681.001 1.697-.864 2.321-1.211.804-.446 1.616-.911 2.271-1.312 1.568-.959 3.16-1.583 4.441-2.675.103-1.859.042-4.115.051-5.956.003-.572.259-1.387-.252-1.716-.034 0-.067 0-.101 0-.706.308-1.371.759-2.068 1.162zm17.159 5.451c-.09.893-.05 1.994-.05 3.079v6.157c0 1.041-.152 2.13.202 2.877.493-.024.9-.386 1.312-.606 2.243-1.193 4.454-2.425 6.561-3.684.853-.51 1.833-.916 2.473-1.666-.705-.668-1.581-1.17-2.423-1.716-1.726-1.12-3.353-1.982-5.198-3.079-.708-.42-1.949-1.304-2.726-1.514-.072.029-.123.079-.151.152zm14.586 8.782c-3.014 1.454-5.784 3.329-8.731 4.996-2.479 1.402-5.211 2.843-7.722 4.29-.34.196-.965.543-.959.808.007.302.752.745 1.009.908.537.342.864.504 1.211.706 1.472.857 2.877 2.244 5.148 1.565 1.115-.333 2.206-1.203 3.23-1.767 1.901-1.046 4.533-2.567 6.41-3.583 1.102-.596 2.411-1.169 3.079-1.968 1.084-1.297.803-3.625-.202-4.693-.404-.43-1.638-1.346-2.322-1.262-.039.004-.116-.017-.151 0z" fill-rule="evenodd"/></svg>