<svg enable-background="new 0 0 79.54 71.573" viewBox="0 0 79.54 71.573" xmlns="http://www.w3.org/2000/svg"><g clip-rule="evenodd" fill-rule="evenodd"><path d="m38.205 0c2.629.329 5.984.011 8.299.354 2.193.325 3.918 1.023 5.617 2.024 3.166 1.865 6.172 3.798 9.312 6.023 1.572.949 3.121 1.952 4.654 2.985.469.315 1.162.559 1.367 1.164-.85.093-1.668-.327-2.633-.405-2.695-.218-5.859.044-8.449-.051-1.203-.044-1.959-.651-2.936-1.265-1.904-1.196-3.933-2.803-5.719-3.998-2.014-1.349-3.834-2.627-5.82-3.896-1.045-.669-1.975-1.162-2.984-1.923-.344-.258-.816-.52-.861-.86.03-.073.081-.123.153-.152z"/><path d="m27.274 1.974c1.574.754 3.049 1.607 4.201 2.784.064 4.254.051 8.68.051 13.156 0 4.354-.152 8.791.051 13.158.096 2.054.053 4.282-.051 6.477-.051 1.054.064 2.11.051 3.188-.059 4.221 0 8.734 0 13.259 0 1.103-.189 2.462.051 3.289.164.566.93.999 1.518 1.366 3.016 1.881 5.721 3.783 8.553 5.719 1.111.76 2.406 1.354 3.238 2.429.055.54.174 1.549-.152 1.872-.844-.126-1.664-.739-2.379-1.265-2.08-1.532-4.367-3.056-6.629-4.453-2.258-1.396-4.42-2.977-6.578-4.555-.701-.513-1.531-.933-2.023-1.67-.178-17.551-.121-36.688-.051-54.603.026-.072.077-.122.149-.151z"/><path d="m35.473 2.277c1.541.838 2.922 1.826 4.301 2.834 1.346.982 2.797 1.847 4.25 2.834 1.863 1.265 4.195 2.94 6.275 4.403.621.436 1.74 1.029 1.924 1.619.25.803.051 2.272.051 3.39v10.223c0 11.992.049 24.273.051 36.941 0 1.092.125 2.195-.152 3.238-.883-.174-1.52-.856-2.227-1.315-4.568-2.967-8.984-5.929-13.664-9.058-.439-.296-.85-.435-.961-.76-.25-.732-.051-2.274-.051-3.391 0-16.256-.051-30.859-.051-47.518 0-.962-.074-2.716.102-3.34.037-.045.092-.075.152-.1z"/><path d="m55.916 47.721c-.264-5.221-.152-10.947-.15-16.599 0-4.897-.002-9.797 0-14.726 0-.601-.152-1.329.201-1.872 1.451-.335 3.705-.052 5.516-.051 1.713 0 3.447-.014 4.859.253 2.879.545 5.176 1.995 6.932 3.289 3.381 3.103 6.676 7.357 6.225 14.22-.379 5.783-3.254 10.035-7.084 12.601-1.945 1.304-4.324 2.437-7.035 2.834-2.197.323-4.781.203-7.186.202-.733 0-1.545.119-2.278-.151z"/><path d="m23.428 22.317c.199 9.552.152 18.865.152 29.047 0 1.382.123 2.767-.152 4.099-1.334.288-2.691.135-3.947.152-4.135.059-7.771-.479-10.576-2.024-1.735-.956-3.381-2.259-4.705-3.695-.647-.7-1.172-1.612-1.721-2.479-.552-.87-1.127-1.793-1.468-2.683-1.003-2.613-1.232-5.734-.81-8.45.424-2.729 1.451-5.013 2.732-6.933 1.248-1.873 2.859-3.584 4.858-4.808 2.021-1.237 4.543-2.24 7.49-2.379 1.365-.065 2.744.047 4.099 0 1.37-.046 2.741-.065 4.048.153z"/><path d="m43.368 71.454c-.699.264-1.348.007-2.076 0-2.348-.021-5.311.179-7.438-.202-4.574-.819-7.193-3.385-10.729-5.617-1.092-.689-2.246-1.357-3.34-2.125-1.051-.737-2.084-1.56-3.188-2.277-1.035-.674-2.116-1.44-3.239-2.227-1.011-.71-2.631-1.444-3.289-2.176 0-.034 0-.068 0-.102.041-.01.051-.052.102-.051 2.406.709 5.498 1.31 8.805 1.215.745-.022 1.573-.021 2.379.051.85.074 1.721-.063 2.43.101.826.19 1.77 1.117 2.529 1.62 2.471 1.631 5.033 3.388 7.389 4.959 2.502 1.669 4.91 3.308 7.389 5.01.4.275.848.533 1.264.81.361.239.976.451 1.012 1.011z"/></g></svg>