<svg enable-background="new 0 0 73.236 74.131" viewBox="0 0 73.236 74.131" xmlns="http://www.w3.org/2000/svg"><path clip-rule="evenodd" d="m36.529 31.847c.786-.509 1.415-1.223 2.066-1.874 4.5-4.498 8.956-9.211 13.5-13.74 4.48-4.522 8.856-9.193 13.451-13.788.655-.654 1.339-1.459 2.066-1.825 2.373-1.196 4.647.341 5.236 2.162.865 2.673-1.364 4.247-2.546 5.429-2.695 2.694-5.586 5.559-8.167 8.311-1.33 1.417-2.79 2.711-4.132 4.132-1.346 1.423-2.613 2.901-3.987 4.275-2.063 2.062-4.07 4.166-6.149 6.245-.675.674-1.484 1.279-1.922 2.162 1.944.258 3.99.145 6.053.145 5.021-.002 10.093.047 15.326.048 1.04 0 2.104-.101 2.979.096 1.717.386 2.981 1.7 2.931 3.747-.047 1.83-1.34 3.307-3.123 3.508-1.905.214-4.048-.001-6.101 0-5.944 0-12.252-.153-18.016.048-.015.525.532.82.865 1.153.349.349.69.721 1.009 1.057 5.23 5.073 10.062 10.542 15.276 15.758 1.251 1.25 2.638 2.522 3.892 3.892 1.248 1.362 2.632 2.599 3.796 3.938.503.579 1.394 1.298 1.777 2.114 1.496 3.181-1.937 6.645-5.236 4.756-.688-.394-1.362-1.218-2.017-1.873-4.527-4.526-8.922-9.235-13.357-13.788-4.46-4.569-8.914-9.155-13.451-13.692-.636-.635-1.168-1.411-1.97-1.873-.797.516-1.393 1.2-2.019 1.825-4.441 4.441-8.881 8.978-13.355 13.452-1.221 1.22-2.603 2.519-3.795 3.892-1.228 1.414-2.545 2.688-3.748 3.891-1.189 1.19-2.47 2.586-3.843 3.844-1.35 1.235-2.416 2.835-3.796 3.843-2.399 1.757-5.531.05-5.908-2.449-.225-1.488-.049-3.248-.049-4.853.001-3.341.049-6.165.049-9.561-.001-15.719.048-32.428.048-48.668 0-1.643-.18-3.409.096-4.757.417-2.039 3.027-3.623 5.333-2.402.729.386 1.418 1.177 2.065 1.874 1.857 1.998 3.884 4.028 5.765 5.909 2.724 2.723 5.064 5.414 7.64 7.927 3.849 3.943 7.665 7.905 11.578 11.818 1.297 1.298 2.473 2.715 3.89 3.892zm-28.921-18.544c-.199.505-.043 1.27-.048 1.873-.12 14.797-.104 31.216.048 45.544.677-.188 1.081-.841 1.537-1.297 2.458-2.458 4.868-4.964 7.303-7.398.991-.991 1.899-2.044 2.882-3.026 3.427-3.428 6.808-6.925 10.281-10.329.387-.379 1.403-1.161 1.394-1.586-.009-.391-1.018-1.162-1.394-1.537-.551-.551-1.011-1.031-1.441-1.489-2.019-2.154-3.926-3.845-5.86-5.957-.966-1.055-2.017-1.98-2.931-2.978-1.905-2.081-3.761-4.056-5.669-6.102-.896-.961-1.99-1.842-2.979-2.931-.768-.846-2.128-2.347-3.027-2.931-.059.019-.098.061-.096.144z" fill-rule="evenodd"/></svg>