<svg enable-background="new 0 0 81.427 56.02" viewBox="0 0 81.427 56.02" xmlns="http://www.w3.org/2000/svg"><path clip-rule="evenodd" d="m76.157.281c.616-.322 1.59-.198 2.525-.198.906 0 1.878-.104 2.525.148.296.989.147 2.036.148 3.07.001 11.936-.001 23.552 0 35.845 0 3.085.05 6.347.049 9.604 0 1.09.092 2.262-.099 3.169-.321 1.533-1.71 2.821-3.169 3.515-1.599.761-3.901.575-5.297-.347-1.761-1.161-2.86-3.587-4.061-5.545-3.667-5.983-7.003-12.102-10.545-18.22-2.354-4.064-4.594-8.079-7.08-12.13-.604-.984-1.097-2.086-1.684-3.119-1.451-2.554-2.828-4.865-4.406-7.575-.473-.812-1.473-2.028-1.584-.297-.182 2.796 0 6.282 0 8.813-.001 6.878 0 13.61 0 20.101 0 1.625-.143 3.26-.05 4.852.096 1.655.05 3.302.05 5 0 1.847.087 3.521-.248 4.852-.318 1.264-1.085 2.312-2.029 3.07-.998.801-2.102 1.166-3.912 1.089-1.561-.065-3.358 0-5.05 0-6.913 0-13.314-.049-20.002-.049-3.083 0-7.096.484-9.308-.792-1.898-1.096-3.782-3.949-2.525-6.932.447-1.06 1.252-2.071 2.179-2.921.896-.822 1.744-1.759 2.574-2.525 1.71-1.577 3.591-3.474 5.149-5 1.742-1.708 3.417-3.473 5.148-5.05 1.755-1.598 3.31-3.387 5.1-5.05 2.557-2.375 5.08-5.024 7.773-7.526.378-.351.818-.769 1.287-1.237.426-.426.979-1.151 1.387-1.139.36.01.849.651 1.089.891.709.708 1.088 1.285 1.832 2.03.263.263.827.761.842 1.089.018.395-.506.729-.792.99-1.003.914-1.538 1.764-2.575 2.674-7.783 7.349-15.292 14.972-23.069 22.329-.502.654-1.403.908-1.535 1.931.671.791 2.105.544 3.367.544 7.702.001 15.687-.002 23.22.05 1.212.008 3.323.188 3.862-.396.434-.473.347-1.942.346-3.169 0-8.191.002-16.355 0-24.359 0-4.516-.115-9.082-.049-13.615.035-2.4.044-4.339.99-5.892.892-1.463 2.35-2.626 4.356-2.822 2.962-.29 4.669 1.374 5.843 3.119 1.24 1.844 2.184 3.889 3.218 5.693 1.074 1.875 2.188 3.803 3.268 5.644 1.127 1.921 2.164 3.921 3.219 5.693 4.483 7.541 8.784 14.985 13.119 22.527.866 1.545 1.774 3.2 2.773 4.852.3.495.651 1.384 1.238 1.287.605-.1.495-1.95.495-2.673.001-13.469-.048-26.099-.05-39.855 0-2.107-.065-4.198.148-6.038z" fill-rule="evenodd"/></svg>