<svg enable-background="new 0 0 78.889 52.249" viewBox="0 0 78.889 52.249" xmlns="http://www.w3.org/2000/svg"><g clip-rule="evenodd" fill-rule="evenodd"><path d="m44.628.12c.249 5.691.099 11.648.099 17.732 0 .808.105 1.637-.099 2.371-10.287.17-21.161-.002-31.611-.099-.193-2.963-.128-6.513.049-9.434 6.802-.248 14.232-.008 21.041-.099.343-.724.157-1.569.148-2.42-.024-2.532-.01-5.471.149-8.051 3.207-.191 7.006-.125 10.224 0z"/><path d="m10.597 10.74c.165 2.9.163 6.483 0 9.384-1.283.292-2.784.104-4.297.099-2.087-.007-4.193.171-6.174-.099-.193-2.691-.049-5.471-.049-8.396 0-.367-.12-.832.197-1.087 2.546-.097 5.165.015 7.853 0 .848-.005 1.712-.191 2.47.099z"/><path d="m78.759 10.887c.165 2.9.164 6.484 0 9.384-1.243.269-2.561.099-3.853.099-9.352 0-18.523-.029-27.759-.099-.217-1.425-.174-3.069-.099-4.692.075-1.605-.177-3.346.148-4.791 7.688-.208 16.033-.049 23.856-.049 2.614.001 5.199-.117 7.707.148z"/><path d="m10.597 21.013c.138.925.211 2.56-.049 3.408-3.264.198-7.092.113-10.373 0-.198-.378-.137-1.096-.148-1.828-.01-.662-.165-1.65.494-1.729.665-.08 1.58.045 2.371.05 2.591.014 5.712-.179 7.705.099z"/><path d="m23.439 20.964c.137.94.214 2.596-.049 3.457-3.408.079-7.117.099-10.323 0-.229-.286-.148-1.08-.148-1.828 0-.766-.208-1.645.494-1.729 1.367-.164 3.28 0 5.087 0 1.804.001 3.574-.077 4.939.1z"/><path d="m44.678 21.062c.053 1.012.142 2.477-.05 3.408-3.309.17-7.007.167-10.323 0-.116-.941-.266-2.722.099-3.507 3.515-.03 6.832-.116 10.274.099z"/><path d="m57.619 21.062c.165.92.16 2.487 0 3.408-2.088.107-4.356.217-6.52.148-1.375-.044-2.741.1-4.001-.148-.024-.713-.266-2.957.099-3.408.036-.046.089-.075.148-.099 3.393.066 7.045-.13 10.274.099z"/><path d="m78.759 21.161c.14.934.207 2.551-.049 3.408-3.308.126-7.306.099-10.668-.049-.236-.399-.148-1.148-.148-1.828 0-.64-.132-1.399.247-1.679 3.327-.039 7.24-.159 10.618.148z"/><path d="m10.548 27.533c.163 1.032.163 2.723 0 3.754-3.246.165-7.175.163-10.422 0-.161-.51-.099-1.26-.099-1.976 0-.695-.135-1.477.198-1.877 1.489-.021 3.634-.071 5.334-.049 1.75.023 3.494-.134 4.989.148z"/><path d="m23.39 27.483c.131 1.075.218 2.801 0 3.754-3.158.226-7.06.206-10.372.049-.169-.504-.099-1.261-.099-1.976 0-.69-.141-1.488.197-1.877 3.294-.048 7.062-.147 10.274.05z"/><path d="m44.628 27.582c.098 1.085.168 2.626 0 3.753-3.213.164-7.11.164-10.323 0-.163-1.047-.163-2.755 0-3.803 3.047-.078 7.072-.128 10.323.05z"/><path d="m57.569 27.582c.259 1.031.159 2.639.049 3.753-.998.219-2.136.146-3.26.148-1.967.003-4.032-.113-5.877-.049-.472.016-.96.148-1.383-.099-.099-.529-.099-1.257-.099-1.976 0-.674-.134-1.466.247-1.828 3.311-.048 7.094-.145 10.323.051z"/><path d="m78.709 27.632c.163 1.048.163 2.755 0 3.803-3.329.131-7.337.095-10.718-.049-.132-1.023-.224-2.813.05-3.754.036-.046.089-.075.148-.099 3.496.043 7.179-.1 10.52.099z"/><path d="m44.579 32.225c.26.653.148 1.456.148 2.223 0 2.234.08 4.847-.099 6.965-10.37.231-21.523-.033-31.611-.05-.179-2.168-.099-4.678-.099-7.211 0-.901-.247-2.007.543-2.124.567-.085 1.268.029 1.926 0 4.476-.197 9.349-.055 13.682.049 5.258.125 10.481-.094 15.51.148z"/><path d="m10.548 32.176c.141 1.449.148 3.067.148 4.643 0 1.569.091 3.167-.148 4.544-3.247.164-7.175.164-10.422 0-.268-2.023-.003-4.605-.049-6.964-.013-.67-.195-1.913.099-2.223.036-.046.09-.075.148-.099 3.375.065 7.012-.131 10.224.099z"/><path d="m78.709 32.324c.237 2.875.242 6.66 0 9.533-6.79.165-14.131-.092-20.893.099-.267.766-.148 1.663-.148 2.519 0 2.455.047 5.143-.099 7.606-2.421.266-5.118.09-7.656.099-.924.004-1.968.207-2.816-.099-.088-5.476-.161-11.739-.099-17.683.008-.766-.107-1.562.198-2.223 7.757-.247 16 .196 23.807-.049 2.614-.082 5.199.045 7.706.198z"/></g></svg>