<svg enable-background="new 0 0 39.122 18.715" viewBox="0 0 39.122 18.715" xmlns="http://www.w3.org/2000/svg"><path d="m12.442 14.011c2.069 1.774 4.551 2.64 7.554 2.64 4.379 0 7.809-3.242 7.809-7.381 0-4.04-3.194-7.204-7.274-7.204h-4.113v9.769c.361.184.753.34 1.18.459v-9.05h2.933c3.418 0 6.097 2.647 6.097 6.025 0 3.477-2.912 6.201-6.631 6.201-3.851 0-6.117-1.592-7.546-3.074-1.212 1.25-3.295 2.735-6.355 2.735-2.859 0-4.932-1.688-6.094-2.968v1.65c1.387 1.245 3.44 2.497 6.094 2.497 2.835.002 4.929-1.12 6.346-2.299"/><path d="m6.095 14.289c3.394 0 5.471-2.049 6.349-3.163 1.522 1.821 3.67 3.502 7.553 3.502 3.245 0 5.786-2.354 5.786-5.358 0-2.905-2.307-5.183-5.253-5.183h-2.09v8.421h1.189v-7.232h.901c2.278 0 4.063 1.754 4.063 3.993 0 2.609-2.336 4.17-4.597 4.17-3.8 0-5.663-1.762-7.11-3.666l-.542-.713-.447.776c-.017.033-1.92 3.264-5.802 3.264-3.348 0-5.618-3.271-6.092-4.307l-.003.014v2.035c.795 1.076 2.91 3.447 6.095 3.447"/><path d="m33.027 14.324c3.185 0 5.299-2.371 6.095-3.445v-2.036l-.003-.015c-.475 1.037-2.744 4.308-6.092 4.308-1.482 0-2.676-.472-3.586-1.056.279-.885.429-1.828.429-2.811 0-5.197-4.102-9.269-9.34-9.269h-6.177v10.232h.013c.362.391.742.745 1.159 1.051l.008-10.103h4.997c4.576 0 8.16 3.553 8.16 8.089 0 4.635-3.819 8.266-8.693 8.266-2.965 0-5.447-.785-7.565-2.396-1.852 1.349-4.028 2.058-6.337 2.058-2.154 0-4.244-.77-6.09-2.226v1.463c1.872 1.274 3.949 1.94 6.09 1.94 2.259 0 4.427-.619 6.319-1.801 2.172 1.438 4.661 2.141 7.583 2.141 2.531 0 4.81-.869 6.54-2.317 1.693 1.208 4.236 2.015 6.49 2.015 2.141 0 4.218-.668 6.09-1.942v-1.463c-1.846 1.456-3.936 2.225-6.09 2.225-2.061 0-3.932-.573-5.626-1.653.188-.203.37-.414.54-.633 1.31.791 2.994 1.401 5.086 1.401 2.654 0 4.707-1.252 6.094-2.497v-1.65c-1.162 1.28-3.234 2.969-6.094 2.969-1.811 0-3.277-.522-4.426-1.205.144-.242.274-.492.396-.75 1.041.626 2.379 1.11 4.03 1.11"/></svg>