<svg enable-background="new 0 0 13.444 14.893" viewBox="0 0 13.444 14.893" xmlns="http://www.w3.org/2000/svg"><path d="m4.716.045c.267-.023.534-.028.802-.045 1.059-.009 2.119.196 3.099.599 1.106.47 2.114 1.181 2.897 2.095 1.196 1.363 1.893 3.152 1.926 4.965.022.577-.045 1.154-.186 1.714-.317 1.401-1.077 2.698-2.145 3.658-1.21 1.105-2.813 1.767-4.449 1.852-.575.036-1.153-.022-1.714-.149-.199-.073-.406-.115-.611-.166-1.066-.358-2.038-.995-2.781-1.84-.377-.448-.725-.93-.951-1.473-.299-.601-.448-1.263-.566-1.92-.134-1.154.1-2.35.674-3.362.556-1.001 1.435-1.818 2.471-2.303 1.014-.48 2.178-.651 3.283-.446 1.006.193 1.948.719 2.625 1.49.427.463.743 1.025.942 1.622.243.679.297 1.42.197 2.132-.126.578-.346 1.144-.7 1.621-.367.537-.884.964-1.463 1.254-.469.206-.967.364-1.481.397-.324.005-.652.012-.967-.071-.3-.068-.58-.195-.861-.313.005-1.635-.027-3.271-.016-4.906.025-.048.088-.047.133-.066.283-.065.576-.115.868-.085.202.036.403.092.582.194.004 1.231-.007 2.462.023 3.692.455-.02.909-.15 1.287-.409.183-.118.333-.279.484-.434.336-.397.53-.907.569-1.424.045-1.057-.504-2.118-1.4-2.683-.486-.301-1.044-.512-1.621-.526-.331.008-.663.015-.987.091-1.115.254-2.122 1-2.638 2.028-.301.558-.449 1.192-.453 1.825.035.449.082.899.217 1.331.233.745.641 1.442 1.209 1.982.762.741 1.778 1.216 2.837 1.318 1.245.119 2.528-.22 3.56-.925 1.142-.757 1.968-1.968 2.275-3.302.142-.637.188-1.296.11-1.944-.11-.859-.373-1.705-.814-2.454-.171-.277-.332-.563-.553-.803-.185-.185-.331-.406-.54-.568-.581-.537-1.252-.988-1.996-1.265-.65-.26-1.344-.4-2.041-.444-.379.002-.762-.019-1.135.056.021-.39-.008-.779.005-1.169.005-.141-.003-.281-.006-.421z"/></svg>