<svg enable-background="new 0 0 68.687 78.275" viewBox="0 0 68.687 78.275" xmlns="http://www.w3.org/2000/svg"><path clip-rule="evenodd" d="m.126 78.103c-.221-5.19-.105-10.619 0-15.864 10.695-.217 22.081-.098 33.061-.099 2.879 0 5.645.18 8.401.049 1.389-.065 2.766-.151 3.756-.494 2.877-.998 5.115-3.628 5.979-6.671.597-2.101.543-4.748.543-7.858 0-5.748 0-11.391 0-16.901 0-2.961-.356-5.305-1.087-7.364-.693-1.95-2.132-3.469-3.756-4.645-1.75-1.268-3.76-1.921-6.375-2.076-2.497-.148-5.4-.099-8.303-.099-5.587.001-11.261-.207-16.555.099-.19 1.951-.148 4.168-.148 6.424 0 2.221-.081 4.525.099 6.573 7.15.296 14.99-.098 22.14.198.18 2.476.099 5.176.099 7.857 0 2.655.098 5.317-.099 7.709-7.267.191-14.835-.115-22.09.148-.266 1.106-.148 2.324-.148 3.558 0 3.545.088 7.451-.148 10.724-4.8.084-10.357.082-15.32 0-.022-.044-.043-.088-.099-.099-.066-19.96-.126-39.811.099-59.102 6.739-.283 14.308-.075 21.25-.148 6.478-.069 13.337.048 19.965.049 8.776 0 14.739 3.324 19.174 7.758 4.491 4.491 7.681 10.316 8.055 18.829.095 2.164-.049 4.354-.049 6.573 0 2.144.049 4.345.049 6.573 0 4.58.204 8.978-.099 13.294-.587 8.387-3.813 14.026-8.451 18.482-2.325 2.233-5.042 3.9-8.253 5.189-1.667.669-3.435 1.145-5.436 1.334-2.03.191-4.217.148-6.573.148-12.301.001-24.07-.001-36.471 0-1.063 0-2.166.113-3.21-.148z" fill-rule="evenodd"/></svg>