<svg enable-background="new 0 0 75.714 52.092" viewBox="0 0 75.714 52.092" xmlns="http://www.w3.org/2000/svg"><g clip-rule="evenodd" fill-rule="evenodd"><path d="m.153 51.93c-.326-2.043-.016-4.128-.096-6.236-.078-2.115-.074-4.282 0-6.427.074-2.11-.058-4.28 0-6.427.031-1.102 0-2.229 0-3.332 0-9.5-.082-19.562.096-29.325 5.311-.362 10.848.155 16.234-.095 3.572-.166 8.023-.048 11.566-.048 3.861.001 7.738 0 11.521 0 4.113.001 7.777.033 11.045.666 6.61 1.283 11.694 3.694 16.091 7.333 2.117 1.753 4.07 3.868 5.521 6.188 1.508 2.411 2.793 5.077 3.332 8.378.559 3.411.152 7.184-.904 10.33-.986 2.941-2.496 5.379-4.236 7.474-3.455 4.163-8.295 7.42-13.996 9.426-2.969 1.045-6.217 1.71-9.664 2.047-3.738.365-7.676.143-11.568.143-11.68.001-23.399.088-34.942-.095zm31.467-49.795c-7.148.337-12.502 3.983-16.186 7.807-3.551 4.187-6.666 9.701-6.187 17.519.447 7.339 3.668 12.413 7.615 16.186 4.164 3.62 9.604 6.713 17.471 6.236 7.33-.444 12.414-3.724 16.139-7.712 3.748-4.095 6.605-9.628 6.236-17.471-.348-7.375-3.711-12.426-7.617-16.186-4.13-3.696-9.542-6.753-17.471-6.379z"/><path d="m32.381 7.467c.383-.049 1.188-.043 1.715.143 2.848 1.008 4.252 4.258 5.188 7.045.475 1.413.947 3.12 1.238 4.903.887 5.43.519 11.775-.809 16.567-.939 3.391-2.477 6.958-5.189 8.235-1.662.783-3.549.048-4.666-1.047-2.17-2.128-3.318-5.218-4.094-8.664-1.115-4.965-1.07-12.713.096-17.519.402-1.656.963-3.324 1.619-4.761.654-1.435 1.529-2.93 2.57-3.808.514-.433 1.371-.971 2.332-1.094z"/></g></svg>