<svg enable-background="new 0 0 76.867 77.277" viewBox="0 0 76.867 77.277" xmlns="http://www.w3.org/2000/svg"><path clip-rule="evenodd" d="m66.209 65.546c-4.091 4.104-8.717 7.377-14.64 9.487-5.794 2.064-13.967 3.052-20.996 1.445-6.396-1.463-11.663-4.24-16.229-7.85-2.233-1.766-4.303-3.786-6.02-6.02-5.074-6.606-9.133-15.563-8.186-27.546.572-7.233 3.05-12.982 6.213-17.866 1.532-2.369 3.39-4.62 5.489-6.55 2.115-1.943 4.345-3.825 6.79-5.249 4.495-2.617 9.552-4.556 15.893-5.201 8.106-.824 15.502 1.043 20.804 3.708 4.688 2.356 9.024 5.51 12.279 9.391.536.638 1.017 1.384 1.541 2.071 1.541 2.015 2.914 4.403 4.046 6.79 1.51 3.185 2.807 6.942 3.322 11.124.534 4.328.515 9.102-.433 13.244-1.804 7.884-5.217 13.972-9.873 19.022zm-2.696-55.573c-1.301-1.128-2.659-2.174-4.094-3.13-5.632-3.755-13.048-6.757-22.537-6.309-10.266.485-17.568 4.398-23.404 9.294-.288.394-.947.647-.915 1.204 1.121.098 2.371.096 3.66.096 1.154 0 2.868-.23 3.852.048.486.138.893.792 1.203 1.156.372.436.719.885 1.108 1.3.699.906 1.502 1.708 2.215 2.601 3.783 4.494 7.654 9.173 11.51 13.628.279.324 1.316 1.847 1.781 1.83.334-.012.855-.854 1.156-1.204 2.625-3.063 5.155-6.015 7.657-9.005 2.193-2.574 4.403-5.131 6.597-7.705.388-.392.658-.857 1.06-1.3.295-.324.826-1.063 1.253-1.156.838-.182 2.009-.023 2.985 0 2.026.049 4.087.084 6.02-.096-.154-.552-.686-.888-1.107-1.252zm3.082 54.417c.381-.403.766-.844 1.059-1.3.608-.946 1.346-1.815 2.023-2.745 1.32-1.812 2.404-3.956 3.371-6.116 1.925-4.301 3.417-9.487 3.371-15.603-.046-5.979-1.376-11.073-3.323-15.507-1.121-2.553-2.73-5.256-4.382-7.368-.334-.427-.588-.94-.964-1.396-.293-.357-.633-.838-1.06-1.3-.435-.472-1.04-1.298-1.492-.963-3.146 3.661-6.276 7.336-9.343 11.076-2.388 2.717-4.694 5.515-7.031 8.283-.415.435-.813.89-1.203 1.348-.374.439-.861.904-1.012 1.541 4.462.246 9.434.103 13.966.193 1.518.03 3.028-.103 4.431.145.288 1.292-.019 2.717 0 4.045.018 1.312.302 2.783-.049 3.997-5.703.125-11.361.001-17.048 0-.309 0-.745-.117-1.011.145.127.583.598 1.026.963 1.493 1.126 1.44 2.385 2.811 3.516 4.19 3.505 4.235 6.899 8.586 10.402 12.762 1.177 1.403 2.285 2.883 3.563 4.189.506-.218.876-.71 1.253-1.109zm-55.67-52.01c-2.92 2.967-5.308 6.5-7.175 10.595-1.886 4.134-2.976 8.888-3.226 14.591-.252 5.738 1.013 10.706 2.696 14.977 1.699 4.312 4.002 8.075 6.694 11.124.445.325.575.966 1.252 1.06.247-16.492.142-33.882.145-50.95 0-.54.15-1.223-.192-1.493-.09.006-.162.032-.194.096zm8.861 12.088c-.037 9.656-.176 18.886.048 28.22.712-.344 1.172-1.038 1.686-1.589.536-.575.991-1.223 1.541-1.782 1.049-1.167 2.086-2.344 3.082-3.563 1.112-1.104 2.042-2.389 3.034-3.612 1.012-1.204 2.183-2.248 3.034-3.612-1.879-2.406-3.952-4.733-6.021-7.176-1.467-1.733-3.03-3.558-4.574-5.345-.438-.506-1.26-1.522-1.686-1.686-.068.028-.117.075-.144.145zm17.53 20.611c-.392.295-.727.844-1.108 1.3-2.532 3.027-5.165 6.113-7.561 9.102-.704.879-1.316 1.824-2.023 2.697-.711.881-1.468 1.724-2.167 2.601-1.06 1.329-2.149 2.657-3.227 3.9-.365.422-.688.936-1.204 1.204-2.491.181-5.214-.127-7.561.145.127.497.589.827.964 1.156 2.67 2.344 5.708 4.376 9.102 5.971 3.896 1.832 8.419 3.344 13.628 3.564 11.428.481 19.678-3.293 26.053-8.235.447-.324.849-.693 1.253-1.06.359-.411.958-.582 1.059-1.252-2.703-.234-5.875 0-8.668-.145-3.242-3.323-6.042-7.089-9.149-10.546-2.564-3.031-5.271-6.212-7.946-9.246-.385-.437-.889-1.178-1.301-1.252-.057.023-.109.051-.144.096z" fill-rule="evenodd"/></svg>