<svg enable-background="new 0 0 74.028 71.202" viewBox="0 0 74.028 71.202" xmlns="http://www.w3.org/2000/svg"><g clip-rule="evenodd" fill-rule="evenodd"><path d="m37.147 71.039c-.166-17.626-.145-35.295-.146-53.16 0-2.983 0-5.965 0-8.94 0-2.942-.111-5.891.146-8.795 3.997-.2 8.332-.148 12.44-.098 1.153 1.038 2.146 2.272 3.158 3.45 1.014 1.181 2.012 2.358 3.013 3.547 2.317 2.617 4.583 5.268 6.948 7.872.773.853 1.587 1.733 2.284 2.624.371.476.673.96 1.068 1.409 1.127 1.277 2.316 2.604 3.45 3.936 1.505 1.768 3.096 3.465 4.471 5.346.02 5.273-.002 9.871.048 15.112-.849 1.305-1.967 2.407-3.012 3.547-3.111 3.391-6.175 6.932-9.281 10.398-2.016 2.358-4.187 4.56-6.171 6.948-2.16 2.214-3.992 4.755-6.269 6.852-3.911-.082-8.272.174-12.147-.048zm13.412-46.552c-.122.583 0 1.267 0 1.896 0 6.658-.144 13.631.097 20.36.635-.112.975-.78 1.36-1.216 2.528-2.843 5.012-5.678 7.532-8.503.329-.369 1.134-1.16 1.117-1.555-.015-.36-.857-1.11-1.166-1.458-2.11-2.381-4.122-4.609-6.171-6.948-.669-.765-1.788-2.222-2.624-2.722-.07.028-.118.077-.145.146z"/><path d="m24.562.144c-.125.598-.642 1.036-1.021 1.457-2.673 2.972-5.296 6.139-8.018 9.136-3.108 3.424-6.051 6.996-9.184 10.398-.942 1.244-2.024 2.349-3.061 3.499-.723.908-1.508 1.729-2.283 2.624-.242.278-.443.704-.875.728-.164-6.731-.098-13.812-.098-20.894 0-2.339-.108-4.658.147-6.9 7.94-.142 16.508-.192 24.393-.048z"/><path d="m23.93 22.301c.32.428.194 1.016.194 1.507 0 3.82.001 7.859 0 11.759 0 4.516.156 9.053-.097 13.266-.653-.19-1.031-.972-1.507-1.506-1.419-1.597-2.942-3.286-4.324-4.957-1.471-1.601-2.861-3.21-4.373-4.956-.375-.433-1.342-1.149-1.36-1.7-.018-.513.918-1.351 1.311-1.798 3.307-3.761 6.678-7.909 9.961-11.517.036-.046.089-.074.146-.098z"/><path d="m.217 42.807c.541.206 1.198 1.194 1.652 1.701.581.647 1.074 1.219 1.555 1.749 5.022 5.991 10.233 11.795 15.355 17.687 1.768 2.032 3.601 4.098 5.393 6.171.223.257.684.526.583.972-7.924.119-16.496.185-24.587 0-.182-8.179-.095-16.377-.096-24.587 0-1.207-.04-2.459.049-3.548-.002-.083.036-.125.096-.145z"/></g></svg>