<svg enable-background="new 0 0 37.43 37.7" viewBox="0 0 37.43 37.7" xmlns="http://www.w3.org/2000/svg"><path d="m.102.37c-.001-.124.007-.247.021-.37 1.137.01 2.274.025 3.412.022 0 .119-.003.237-.004.356-1.143.003-2.286.002-3.429-.008z"/><path d="m4.709.021c.115.003.23.004.345.006-.004 1.159 0 2.318-.019 3.476-.115-.001-.229-.001-.343-.002-.002-1.16-.024-2.322.017-3.48z"/><path d="m6.227 3.507c.013-1.16-.019-2.322.024-3.481.106.001.213.001.32.003-.001 1.159-.007 2.318 0 3.477-.115.002-.229.002-.344.001z"/><path d="m7.745.034c.112.007.245-.031.344.018.012 1.152.002 2.306 0 3.459-.117-.001-.234-.001-.351 0 0-1.159 0-2.318.007-3.477z"/><path d="m9.267.166c-.024-.207.245-.117.37-.113-.003 1.158-.013 2.316-.022 3.474-.11-.001-.219-.002-.329-.001-.025 1.129-.018 2.261-.024 3.392-.241-.001-.482 0-.723-.002-.001-1.16.032-2.32.025-3.48.233-.001.466.001.699-.001.003-1.09.004-2.18.004-3.269z"/><path d="m12.331.165c-.019-.198.248-.08.368-.11-.007 1.129-.021 2.256-.02 3.385.124.016.248.024.373.024.001 1.128-.013 2.256-.005 3.384.181.002.363.003.545.002-.004 1.15-.008 2.3-.006 3.45-.361.004-.721.003-1.082.001-.032-1.118.026-2.238.004-3.357-.061-.003-.122-.007-.183-.009.027-2.259-.007-4.511.006-6.77z"/><path d="m13.85.058c.123 0 .246 0 .369.002.002 1.135-.016 2.272-.004 3.404.242-.006.485-.003.728 0-.004 1.129-.03 2.257-.02 3.387.318.002.635.005.953.003.015 1.153-.012 2.31-.006 3.465-.266.001-.532 0-.798-.001-.021 1.131-.019 2.261-.023 3.392-.461-.005-.922-.001-1.382-.004-.003-.338.033-.676-.001-1.013-1.129.008-2.26-.015-3.387-.002 0 .33.001.66-.007.99-1.233-.003-2.466-.007-3.698-.009-.003-.116-.002-.232 0-.348-1.031-.008-2.062-.03-3.093-.024 0-.161-.003-.321-.003-.481-1.132-.003-2.264-.021-3.395-.028-.025-.122-.012-.247-.013-.37 1.135.015 2.269.019 3.404.02.008.042.021.083.037.123 2.234.001 4.468.01 6.701.013.002-.403.001-.805.001-1.207-3.381-.016-6.761-.038-10.142-.04 0-.125.001-.249.002-.373 1.137-.001 2.273.009 3.41.007.001-.121.002-.242 0-.362 1.03-.017 2.063.015 3.094.006.002-.116.003-.231.002-.346 1.21-.006 2.42.006 3.63.003.004-.38.001-.759-.002-1.138-1.181-.009-2.363-.008-3.543-.027-.007.086-.017.173-.027.26-1.042.008-2.087-.021-3.131-.006-.004.113-.011.227-.02.341-1.132.005-2.265-.008-3.397-.006-.012-.125-.02-.249-.019-.375 1.137.002 2.275.01 3.412.007.003-.235.006-.47.005-.705 1.029-.021 2.063.013 3.094.002.006-.201.003-.403.004-.604 1.208 0 2.417.002 3.625.006.009-.39 0-.78.008-1.17.072-.009.145-.019.218-.027-.004-1.128.008-2.255.019-3.382.11 0 .22 0 .331.001.011-1.13.02-2.26.021-3.39.118 0 .236.001.355.001-.009 2.265.004 4.529-.008 6.794h.163c-.007 1.15-.004 2.3-.01 3.45-.336.003-.671 0-1.006-.001-.027.282-.028.567-.001.848 1.128.003 2.256.007 3.385.006.002-.309.001-.619.002-.928.359-.035.72.021 1.08.003.033-1.092.014-2.187.024-3.28-.191-.005-.383-.003-.574-.003-.001-1.135.01-2.271.003-3.406-.125 0-.25.001-.374-.001-.007-1.159.002-2.318.004-3.477z"/><path d="m15.374 3.541c.002-1.159.014-2.32.017-3.479.118.001.236.001.355.003.001 1.159-.002 2.319-.006 3.478-.122-.002-.244-.002-.366-.002z"/><path d="m16.918.082c.121-.002.242-.002.363.001-.037 1.157-.007 2.316-.022 3.474-.117 0-.234 0-.35 0 .004-1.159-.001-2.317.009-3.475z"/><path d="m18.434.085c.122-.002.244-.002.367.001-.028 1.149-.017 2.299-.025 3.449-.024.019-.049.039-.072.059-.007 1.119-.027 2.238-.024 3.358-.171.001-.341 0-.511 0-.043 1.123-.01 2.25-.023 3.374-.187-.001-.374-.002-.561.002-.018 1.129-.003 2.26-.014 3.389-.46-.002-.92.003-1.38-.004.02-1.159.02-2.321.023-3.481.284-.003.569.003.854-.001.003-1.118.007-2.237.006-3.355.302-.034.606-.008.909-.017.01-1.129-.008-2.258.02-3.386.141.001.282-.001.423-.001.008-1.13.001-2.258.008-3.387z"/><path d="m20.078.145c.134 0 .269.009.402.031-.126 1.124-.221 2.253-.323 3.38.218.014.434.044.649.078-.141 1.123-.325 2.241-.462 3.364.122.012.242.034.362.055-.173 1.11-.404 2.213-.555 3.326.089.013.178.029.266.047-.242 1.137-.471 2.277-.71 3.415-.141-.026-.282-.049-.423-.071-.211 1.675-.379 3.355-.542 5.035.733-1.506 1.455-3.021 2.192-4.525-.132-.072-.271-.129-.409-.188.372-1.068.83-2.11 1.206-3.176-.216-.084-.437-.149-.652-.234.331-1.11.666-2.218.992-3.329.284.088.566.184.843.294.416-1.012.799-2.037 1.186-3.06-.091-.037-.182-.073-.273-.11.383-1.091.771-2.18 1.167-3.266.123.039.244.085.364.134-.378 1.065-.816 2.108-1.195 3.173.237.1.473.202.711.3-.449 1.06-.936 2.102-1.407 3.152-.078-.029-.156-.059-.234-.088-.421 1.011-.849 2.02-1.254 3.037.3.131.586.291.879.434.553-.939 1.065-1.904 1.609-2.849-.028-.027-.057-.054-.085-.081.541-1.009 1.13-1.99 1.671-2.999.095.053.19.106.287.156.543-.986 1.105-1.962 1.669-2.936.111.069.224.137.334.208-.574.967-1.162 1.925-1.737 2.892.038.036.075.072.113.109-.544.97-1.204 1.867-1.748 2.837.208.134.412.273.612.42-.659.948-1.331 1.886-2 2.827-.109-.074-.222-.142-.331-.216-.582.939-1.202 1.857-1.776 2.799.213.182.45.338.659.527 1.522-1.67 3.013-3.366 4.52-5.049.128.123.255.249.384.371.779-.809 1.584-1.592 2.375-2.388.055.045.109.09.164.136.809-.785 1.64-1.545 2.451-2.328.091.094.182.186.271.282-.815.78-1.681 1.503-2.49 2.291.056.067.113.133.171.199-.818.762-1.662 1.495-2.489 2.247.004.044.008.087.013.132-.806.733-1.608 1.472-2.412 2.207.061.25.385.427.443.687-.884.681-1.804 1.311-2.702 1.972.033.055.066.109.1.164-1.369.963-2.752 1.906-4.116 2.875 1.628-.399 3.242-.861 4.87-1.261.054.26.106.52.141.784 1.087-.091 2.173-.198 3.257-.319-.02-.181-.05-.36-.074-.539 1.138-.198 2.281-.371 3.421-.556.052.269.08.541.113.812 1.131-.073 2.259-.198 3.388-.295.015.21.043.42.044.631 1.144-.05 2.288-.112 3.432-.155.002.129.006.259.011.389-1.156.042-2.313.066-3.469.108-.052-.03-.043-.098-.058-.147-1.131.033-2.261.092-3.392.125-.003-.056-.007-.112-.009-.167-1.095.037-2.188.107-3.282.17.007.335.008.67.003 1.005 1.096.06 2.19.145 3.286.2.002-.057.005-.114.008-.171 1.125.042 2.25.092 3.373.16.022-.041.044-.082.066-.122 1.161.061 2.323.085 3.483.152-.007.129-.012.258-.014.386-1.139-.059-2.277-.13-3.415-.196-.027.194-.028.391-.06.585-1.126-.086-2.249-.218-3.374-.326-.049.274-.067.552-.128.824-1.141-.192-2.282-.381-3.42-.585.034-.182.06-.365.072-.549-1.084-.122-2.169-.24-3.255-.335-.021.265-.079.526-.139.785-1.628-.426-3.246-.901-4.881-1.296 1.376.973 2.764 1.929 4.139 2.904-.035.052-.07.105-.104.158.884.695 1.809 1.331 2.698 2.018-.157.222-.344.422-.504.641.785.77 1.627 1.487 2.415 2.255.006.054-.018.122.03.162.801.757 1.63 1.483 2.431 2.24-.064.068-.128.136-.191.205.812.786 1.649 1.544 2.472 2.317-.085.097-.175.19-.269.279-.819-.774-1.633-1.553-2.425-2.355-.046.047-.095.09-.149.129-.804-.788-1.581-1.604-2.367-2.411-.128.117-.254.238-.374.364-1.523-1.663-2.949-3.408-4.487-5.057-.223.166-.424.367-.683.479.582.946 1.177 1.884 1.77 2.823.109-.071.222-.136.329-.211.658.952 1.325 1.898 1.984 2.85-.204.14-.405.285-.619.41.549.975 1.177 1.904 1.747 2.867-.045.031-.09.063-.134.095.543.988 1.133 1.949 1.7 2.922-.113.067-.228.131-.343.192-.562-.97-1.09-1.958-1.639-2.935-.092.041-.182.087-.273.13-.542-1.008-1.11-2.003-1.65-3.013.028-.027.056-.052.084-.077-.514-.962-1.056-1.909-1.582-2.865-.292.156-.595.291-.896.431.414 1.017.834 2.032 1.249 3.049.077-.029.154-.058.231-.088.463 1.052.936 2.1 1.387 3.158-.241.112-.489.21-.735.309.358 1.071.785 2.118 1.164 3.183-.121.053-.244.1-.37.138-.38-1.095-.769-2.187-1.133-3.287.103-.037.206-.076.308-.116-.391-1.02-.768-2.045-1.164-3.063-.28.105-.564.202-.853.281-.32-1.116-.652-2.228-.977-3.342.22-.08.446-.143.662-.232-.381-1.064-.814-2.108-1.199-3.171.148-.059.292-.126.433-.201-.729-1.496-1.431-3.006-2.165-4.5.148 1.671.327 3.341.505 5.009.138-.019.277-.041.414-.069.226 1.139.474 2.273.681 3.415-.091.021-.183.041-.274.063.189 1.115.377 2.23.558 3.346-.123.022-.246.04-.369.064.134 1.113.318 2.222.428 3.338-.226.024-.452.049-.677.08.094 1.126.198 2.25.294 3.376-.129.005-.257.018-.384.036-.09-1.157-.179-2.315-.233-3.473.069-.008.137-.015.206-.025-.092-1.088-.162-2.18-.282-3.265-.08.003-.16.006-.239.009-.093-1.128-.138-2.259-.218-3.387-.168.003-.335.016-.503.021-.013-1.157.017-2.315-.02-3.471-.33.003-.659-.003-.989-.002-.004-.356.003-.711.002-1.066-1.306-.004-2.613-.009-3.919-.011-.006.266-.008.532-.008.798-1.185.004-2.37-.002-3.556-.007-.006-.313.006-.625-.002-.937-1.179.002-2.363-.009-3.546-.01-.003.106-.004.213-.005.32-1.058.004-2.115-.006-3.173-.007.003-.251-.011-.503.019-.752 1.027-.011 2.056.029 3.082.003.025-.222.01-.446.018-.668 1.234.018 2.469-.015 3.702.026-.002.17-.002.34-.003.51 1.129.005 2.258.009 3.387.007.005-.424.003-.849.003-1.273-1.15.007-2.299-.015-3.448-.022-.003-.141-.001-.281 0-.422-1.178.008-2.356-.03-3.533-.016-.092.185-.016.438-.044.65-1.053.008-2.105-.021-3.158-.023 0-.201.001-.402-.001-.602-1.136-.011-2.273.014-3.408-.029.001-.118.001-.236.001-.354 1.136-.002 2.272.009 3.408.005.008.075.017.15.026.226 1.023.031 2.047.015 3.07.021.006-.335.005-.67.005-1.005 2.368.004 4.735.037 7.103.026-.011-.396.018-.794-.023-1.189-2.362-.02-4.725.002-7.086-.035-.003-.33.002-.66-.006-.989-1.006.005-2.011-.034-3.016-.021-.108.007-.057.15-.073.223-1.136.012-2.275-.009-3.412-.01-.001-.124-.002-.248-.001-.371 1.123-.013 2.246.037 3.368.013.09-.174.011-.413.039-.612 1.054.008 2.108.025 3.161.024 0 .217-.002.434.004.651 1.19.015 2.381.005 3.572.015 0-.147-.002-.294-.001-.441 1.15-.002 2.3.007 3.449.02 0-.429-.003-.857-.004-1.286-1.127-.004-2.254-.003-3.382-.009-.007.172-.008.343-.006.515-1.162.003-2.323-.007-3.484-.006-.399.07-.169-.459-.23-.69-1.026 0-2.053-.006-3.079-.009-.001-.241-.001-.482.003-.722 1.019.003 2.037.004 3.056.009.173-.005.081.228.103.337 1.19.004 2.38.01 3.569.006.005-.316.004-.631.006-.947 1.18.001 2.36.003 3.541.008 0 .278-.004.557-.002.835 1.308.008 2.616.009 3.924.012.002-.359.005-.718.002-1.077.335-.009.671.002 1.007-.001-.002-1.158.027-2.314.032-3.471.167-.001.335.001.501.025.091-1.117.157-2.236.232-3.354.087.002.174.004.261.007.113-1.092.198-2.187.3-3.281-.063-.012-.125-.025-.187-.038.088-1.155.172-2.306.256-3.456zm-6.33 16.653c0 .349.001.698.005 1.047 1.313.005 2.626.014 3.939.008-.021-.349-.017-.699-.021-1.049-1.307.001-2.617-.012-3.923-.006zm.029 3.099c-.013.348-.03.696-.023 1.045 1.312.01 2.625.011 3.938.01.005-.348.008-.696.007-1.044-1.308-.006-2.615-.01-3.922-.011z"/><path d="m21.193 3.777c.157-1.15.377-2.292.557-3.439.128.026.257.047.385.072-.202 1.14-.427 2.276-.625 3.417-.107-.013-.212-.033-.317-.05z"/><path d="m23.388.702c.129.027.256.064.38.108-.647 2.188-1.159 4.41-1.841 6.589-.2-.056-.401-.108-.602-.16.28-1.118.519-2.246.791-3.366.144.039.289.074.435.106.261-1.097.559-2.184.837-3.277z"/><path d="m.104 1.568c1.14-.015 2.282.012 3.422.003.006.119.007.239-.003.359-1.138.035-2.278-.016-3.418-.007 0-.119-.001-.237-.001-.355z"/><path d="m26.534 1.855c.116.058.232.115.349.172-.498 1.044-.986 2.095-1.512 3.125-.096-.048-.192-.095-.286-.144.49-1.048.974-2.098 1.449-3.153z"/><path d="m.101 3.121c1.138-.007 2.276.008 3.415.006.001.124 0 .248-.001.373-1.138-.008-2.276.009-3.414-.023 0-.119 0-.237 0-.356z"/><path d="m6.603 3.432c.262-.002.523 0 .785.001.002 1.16-.023 2.32-.022 3.48-.234.001-.468-.003-.703 0 .001.158 0 .317-.017.475-1.04-.005-2.081.002-3.121-.013-.096-.214-.004-.481-.019-.715 1.031.002 2.062.009 3.093.006.002-.403 0-.806.003-1.208-1.031-.04-2.063-.016-3.095-.028-.001-.126 0-.252-.001-.377-1.136-.002-2.272-.007-3.408-.009-.001-.124-.002-.247 0-.371 2.168.003 4.335.032 6.503.027.007-.422.008-.845.002-1.268z"/><path d="m16.116 3.468c.236-.001.472.001.708.002-.007 1.16-.001 2.321-.013 3.481-.239-.004-.478.002-.717-.005.003-1.16.03-2.318.022-3.478z"/><path d="m29.435 3.575c.113.07.223.145.326.23-.675.941-1.397 1.848-2.073 2.789-.092-.057-.183-.117-.268-.184.651-.959 1.352-1.884 2.015-2.835z"/><path d="m30.782 4.623c.104.08.203.167.3.256-.767.86-1.53 1.726-2.32 2.564-.094-.066-.186-.137-.265-.22.808-.825 1.512-1.743 2.285-2.6z"/><path d="m.095 6.23c1.138.006 2.277.023 3.415.016.001.12 0 .24-.001.359-1.137.012-2.278-.006-3.417-.006 0-.124 0-.247.003-.369z"/><path d="m25.76 9.353c.669-.927 1.332-1.86 2.043-2.755.219.144.408.326.622.477-.726.887-1.463 1.767-2.179 2.662-.165-.125-.318-.264-.486-.384z"/><path d="m30.445 9.209c.912-.715 1.795-1.468 2.708-2.182.085.1.165.204.242.311-.891.692-1.776 1.392-2.671 2.078-.134.105-.201-.131-.279-.207z"/><path d="m.082 7.763c1.138-.001 2.275.009 3.413.008-.008.118.048.266-.028.364-1.126.018-2.253-.005-3.38-.014-.01-.119-.015-.239-.005-.358z"/><path d="m31.274 10.326c.969-.64 1.926-1.299 2.895-1.939.077.109.146.224.212.34-.977.622-1.944 1.261-2.927 1.873-.061-.09-.122-.181-.18-.274z"/><path d="m28.054 11.692c.925-.706 1.858-1.401 2.785-2.103.171.212.326.435.478.661-.923.642-1.878 1.25-2.787 1.905.135.304.364.575.518.877.994-.533 1.969-1.101 2.958-1.643.026.026.053.052.08.08.983-.543 1.971-1.075 2.949-1.627.07.116.135.234.198.354-.996.521-1.987 1.051-2.988 1.562.049.117.091.237.147.352-1.043.512-2.078 1.038-3.13 1.53-.077-.163-.161-.322-.253-.477-.991.517-1.956 1.079-2.929 1.629-.155-.263-.309-.527-.476-.782.87-.619 1.731-1.25 2.604-1.863.211-.127-.093-.314-.154-.455z"/><path d="m32.625 12.758c1.06-.464 2.114-.939 3.179-1.391.059.121.11.245.161.37-1.08.43-2.143.904-3.226 1.325-.043-.1-.081-.201-.114-.304z"/><path d="m33.191 14.028c1.079-.359 2.157-.721 3.242-1.059.046.124.086.25.122.377-1.116.336-2.229.679-3.339 1.029-.03-.08-.059-.16-.088-.24-1.059.301-2.086.712-3.148.998.048.145.091.292.127.441-1.073.313-2.15.608-3.221.929.004.044.008.089.013.135-1.092.315-2.19.613-3.288.909-.101-.336-.223-.666-.378-.981 1.019-.515 2.021-1.066 3.063-1.53.116.182.194.385.274.585 1.035-.431 2.089-.813 3.127-1.238.02.054.039.109.059.164 1.067-.395 2.12-.826 3.187-1.218.083.232.163.466.248.699z"/><path d="m.063 13.988c1.139.003 2.278.008 3.417.01 0 .123-.001.245-.002.368-1.139.005-2.277-.005-3.416-.018.002-.12.002-.24.001-.36z"/><path d="m30.174 16.144c2.224-.536 4.454-1.049 6.69-1.527.105.064.079.257.12.373-1.118.194-2.23.431-3.337.681.021.16.058.317.087.476-1.141.203-2.279.424-3.423.611-.044-.205-.09-.409-.137-.614z"/><path d="m.061 15.508c1.138.015 2.278-.01 3.415.024-.003.119-.004.237-.004.356-1.138.012-2.276-.003-3.415-.008-.002-.124 0-.248.004-.372z"/><path d="m33.748 16.72c1.158-.16 2.318-.317 3.476-.482.021.133.041.267.051.402-1.156.138-2.314.266-3.468.42-.027-.112-.046-.226-.059-.34z"/><path d="m3.477 18.639c.001-.063.003-.124.004-.186 1.053-.014 2.107.021 3.159.003.004.252.003.503.005.755-1.053-.003-2.106-.004-3.16-.009-.003-.062-.005-.123-.008-.185-1.136-.003-2.271-.008-3.406-.025-.001-.12 0-.24.001-.361 1.135 0 2.27.011 3.405.008z"/><path d="m23.619 20.268c1.098.3 2.19.616 3.286.921-.004.047-.008.094-.012.142 1.072.339 2.156.638 3.229.972-.052.144-.1.289-.145.435 1.035.372 2.096.66 3.131 1.034.025-.071.05-.143.076-.213 1.108.357 2.215.719 3.326 1.066-.044.124-.083.248-.121.374-1.085-.341-2.152-.735-3.231-1.093-.084.22-.159.443-.247.661-1.056-.404-2.101-.837-3.158-1.24-.027.052-.054.105-.081.158-1.039-.398-2.065-.832-3.09-1.265-.085.204-.184.401-.275.602-1.026-.51-2.037-1.052-3.057-1.574.139-.321.283-.641.369-.98z"/><path d="m33.797 20.881c1.159.149 2.318.298 3.477.452-.008.13-.021.259-.045.387-1.16-.161-2.321-.326-3.477-.52.018-.106.034-.212.045-.319z"/><path d="m30.197 21.73c.031-.212.075-.423.137-.629 1.138.228 2.284.418 3.419.658-.045.167-.082.337-.108.508 1.105.25 2.212.494 3.318.741-.023.12-.059.237-.091.355-2.251-.444-4.435-1.137-6.675-1.633z"/><path d="m.067 21.746c1.138-.017 2.275.026 3.413.016 0 .12 0 .241.001.361-1.139.003-2.278-.004-3.416-.009-.002-.123-.002-.246.002-.368z"/><path d="m26.072 23.079c.992.496 1.92 1.113 2.908 1.62.09-.157.174-.318.265-.474 1.037.521 2.076 1.037 3.111 1.56-.057.12-.112.241-.175.358.994.533 1.987 1.068 2.975 1.61-.061.115-.124.229-.186.343-.933-.53-1.874-1.044-2.802-1.582-.084-.065-.195-.016-.284-.061-.963-.529-1.905-1.097-2.875-1.613-.169.296-.355.581-.547.863.918.627 1.826 1.269 2.747 1.892.051-.101.112-.197.177-.289.989.611 1.949 1.268 2.922 1.904-.071.112-.145.222-.221.332-.94-.641-1.871-1.294-2.814-1.931-.139.242-.318.458-.483.683-.932-.697-1.85-1.413-2.771-2.124.083-.129.174-.253.264-.377-.899-.657-1.804-1.306-2.694-1.975.171-.239.302-.506.483-.739z"/><path d="m.04 23.28c1.138-.004 2.276.005 3.414.005v.374c-1.138.006-2.276-.007-3.414-.021 0-.12 0-.239 0-.358z"/><path d="m6.548 24.014c1.233.011 2.467-.009 3.7.024.002.31-.006.619-.006.929 1.128.039 2.259.013 3.389.022-.009-.318.032-.635.017-.953.465-.002.931.002 1.396.003-.01 1.131-.002 2.261-.024 3.392.272-.004.543.024.815.017.002 1.159-.004 2.319-.003 3.478-.318.004-.636-.001-.954.001-.035 1.119-.009 2.24-.022 3.36-.255-.001-.51.01-.764-.01-.002 1.137.009 2.276-.018 3.412-.118-.001-.236-.001-.354-.001-.005-1.159.003-2.319.003-3.478.138-.023.279-.016.416.018.011-1.131.018-2.263.018-3.395.192.003.385.001.578-.001-.004-1.103.009-2.205-.002-3.308-.368-.005-.735-.002-1.103-.005-.003-.329 0-.657.001-.986-1.127-.018-2.256-.019-3.384-.02-.005.303-.009.605-.004.909.338.003.676.003 1.014.005.004 1.16-.006 2.32-.002 3.48-.052 0-.105-.001-.157.001.026 2.259-.099 4.504-.066 6.763-.122-.001-.245-.001-.367-.002-.015-1.129.02-2.258.011-3.386-.102-.002-.204-.003-.306-.003 0-1.125.005-2.25.003-3.374-.067-.002-.133-.002-.2-.003-.002-.401.001-.802-.004-1.203-1.21-.001-2.42-.028-3.63-.023 0-.203.008-.406-.017-.607-1.027-.002-2.054-.005-3.08-.009-.015-.237.029-.489-.019-.717-1.129-.025-2.261-.026-3.391-.03 0-.119 0-.238-.001-.357 1.138.001 2.276.006 3.414.011.002.113.002.227.003.341 1.018.002 2.036.006 3.055.007.155-.02.091.179.106.271 1.19.007 2.379.007 3.569.007-.002-.377.002-.754-.002-1.131-1.212-.02-2.424.014-3.635-.03-.022-.104.064-.312-.072-.336-1.007-.014-2.017-.016-3.026-.016-.001-.125-.001-.251-.001-.376-1.135-.012-2.271-.009-3.406-.014-.002-.123-.002-.246-.001-.369 3.382.003 6.761.04 10.143.034.004-.404.003-.809.002-1.213-2.241-.036-4.487-.021-6.728-.03-.001.026-.003.077-.004.103-1.138-.009-2.278.014-3.415-.027.002-.118.002-.235.004-.352 1.135-.007 2.272.021 3.407.003 0-.16.002-.32.007-.479 1.032-.003 2.064.005 3.096.006-.001-.12 0-.237.001-.353z"/><path d="m16.183 24.04c.456.005.911.001 1.367.005-.004 1.135-.008 2.27-.007 3.405.188.002.376.002.565.003.003 1.129-.009 2.259-.003 3.388.172 0 .343.003.515.002-.015 2.285.036 4.569.051 6.856-.124-.001-.247-.003-.371-.003-.009-1.129.003-2.258-.001-3.386-.128-.002-.256-.003-.385-.003-.003-1.123.005-2.248.001-3.371-.301-.004-.602-.002-.904-.007-.016-1.121.03-2.242.009-3.363-.254-.092-.568-.015-.845-.04-.009-1.161.008-2.324.008-3.486z"/><path d="m32.693 24.856c1.074.447 2.136.92 3.214 1.357-.048.123-.1.244-.152.365-1.069-.455-2.124-.943-3.183-1.42.039-.101.081-.202.121-.302z"/><path d="m12.457 27.427c.359-.003.717.003 1.076 0 .008 1.159-.006 2.319.003 3.479-.183.011-.366.021-.549.02-.01 1.12-.018 2.237-.022 3.358-.129-.001-.258-.001-.387-.002 0 1.13-.031 2.26-.021 3.39-.119-.001-.238-.001-.356-.001-.046-2.285.104-4.55.066-6.834.063-.01.125-.021.188-.03-.007-1.127.003-2.253.002-3.38z"/><path d="m26.19 28.105c.728.894 1.44 1.801 2.177 2.688-.207.168-.411.34-.628.495-.691-.922-1.36-1.861-2.029-2.799.163-.125.325-.25.48-.384z"/><path d="m30.584 28.421c.885.692 1.762 1.394 2.642 2.092.162.12-.09.267-.155.378-.899-.734-1.798-1.471-2.69-2.214.067-.086.135-.171.203-.256z"/><path d="m.026 29.867c-.002-.121-.002-.242.001-.362 1.133.002 2.265.013 3.398.009.013.124.019.249.014.375-1.138-.007-2.276.003-3.413-.022z"/><path d="m3.439 30.275c1.05.002 2.099.024 3.148.026.024.164.005.332.013.499.236.003.473.004.71.003-.001 1.151-.002 2.303-.006 3.454-.263.001-.525 0-.788-.002 0-.422.008-.845-.001-1.267-2.164-.004-4.326-.021-6.49-.034-.021-.124-.016-.249 0-.373 1.131.011 2.261.027 3.392.021.003-.125.003-.249.004-.374 1.032-.003 2.064.006 3.096.004 0-.4.015-.801.002-1.201-1.026.002-2.053-.007-3.079-.008-.035-.248.001-.498-.001-.748z"/><path d="m21.263 30.562c.204-.048.405-.107.61-.15.304 1.098.635 2.189.922 3.292-.017.026-.033.052-.05.079.299 1.08.595 2.16.879 3.244-.122.038-.245.071-.367.105-.3-1.093-.534-2.204-.843-3.294-.129.033-.258.064-.387.096-.247-1.126-.507-2.249-.764-3.372z"/><path d="m28.421 30.638c.082-.068.163-.137.243-.207.782.852 1.548 1.717 2.317 2.58-.095.096-.198.183-.306.265-.747-.883-1.496-1.764-2.254-2.638z"/><path d="m8.472 34.258c.01-1.15-.014-2.302.022-3.452.236.002.472.001.708.002.003 1.124-.006 2.248-.003 3.373.105.001.21.001.315.002-.002 1.16-.017 2.32-.007 3.479-.123.001-.245.001-.368-.002-.006-1.129.006-2.257.002-3.385-.223-.004-.447.008-.669-.017z"/><path d="m16.047 30.838c.235-.003.47.003.704-.001.003 1.151-.007 2.303-.003 3.454-.24.022-.483.02-.722-.004.007-1.15.001-2.3.021-3.449z"/><path d="m.028 31.06c1.139-.002 2.277.016 3.414.022-.003.109-.007.218-.016.327-1.134.002-2.267-.006-3.401-.009-.001-.113 0-.227.003-.34z"/><path d="m27.335 31.459c.083-.064.166-.127.25-.189.698.93 1.376 1.877 2.066 2.813-.107.08-.219.155-.331.228-.662-.951-1.336-1.893-1.985-2.852z"/><path d="m24.985 32.837c.095-.049.191-.095.288-.14.501 1.043 1.018 2.08 1.48 3.14-.111.056-.223.109-.336.163-.481-1.053-.961-2.106-1.432-3.163z"/><path d="m21.067 34.03c.105-.02.211-.037.319-.046.201 1.14.402 2.28.614 3.419-.128.023-.257.046-.384.072-.204-1.145-.379-2.295-.549-3.445z"/><path d="m.006 34.15c1.138.002 2.276.008 3.414.011 0 .122-.001.244-.002.366-1.138.011-2.275-.019-3.413-.022.001-.118.001-.236.001-.355z"/><path d="m4.561 37.639c-.009-1.161.017-2.32.021-3.48.116.001.232 0 .349.001-.002 1.159-.006 2.319-.007 3.478-.122.002-.243.002-.363.001z"/><path d="m6.111 34.296c-.031-.204.217-.118.342-.133.001 1.166-.003 2.332-.004 3.498-.115-.002-.23-.008-.344-.02.001-1.115-.001-2.23.006-3.345z"/><path d="m7.617 34.181c.118-.001.236-.001.354 0 0 1.16-.007 2.32-.006 3.48-.116-.001-.232-.002-.348-.002-.015-1.16-.002-2.319 0-3.478z"/><path d="m15.258 34.211c.119 0 .239.001.358.002 0 1.159-.008 2.318-.006 3.477-.117 0-.234.001-.351.003-.048-1.16.014-2.321-.001-3.482z"/><path d="m16.787 34.214c.124 0 .247.002.371.003-.046 1.158-.01 2.319-.026 3.478-.117.001-.233 0-.35-.002-.002-1.159.004-2.319.005-3.479z"/><path d="m.001 35.702c1.138.002 2.275.008 3.413.01.001.123.002.246.002.369-1.137.004-2.275-.007-3.412-.006-.004-.124-.005-.249-.003-.373z"/><path d="m.001 37.254c1.138-.006 2.275.018 3.412.02 0 .12.002.24.002.36-1.138 0-2.276-.003-3.414-.01 0-.123-.001-.247 0-.37z"/></svg>