<svg enable-background="new 0 0 42.844 22.682" viewBox="0 0 42.844 22.682" xmlns="http://www.w3.org/2000/svg"><g fill="#010101"><path d="m16.789 22.648 6.913-18.923h7.757c4.215 0 7.645 3.416 7.645 7.616 0 4.199-3.429 7.615-7.645 7.615h-6.97l2.122-5.807h3.799l-2.339 2.33 2.333 2.324 6.486-6.461-6.486-6.463-2.333 2.325 2.228 2.22h-6.307l-4.844 13.258h12.31c6.277 0 11.384-5.087 11.384-11.341.002-6.254-5.106-11.341-11.383-11.341h-10.375l-8.276 22.648z"/><path d="m10.359 22.665 8.275-22.65h-3.979l-8.276 22.65z"/><path d="m12.254.015h-3.979l-8.275 22.65h3.98z"/></g></svg>