<svg enable-background="new 0 0 174.625 176.431" viewBox="0 0 174.625 176.431" xmlns="http://www.w3.org/2000/svg"><path clip-rule="evenodd" d="m102.744 0c.697.43 1.777 1.586 2.389 2.198 2.271 2.271 4.516 4.644 6.69 6.881 4.986 4.811 9.629 9.964 14.527 14.862 4.897 4.896 9.775 9.82 14.623 14.766 9.697 9.895 19.49 19.696 29.103 29.677 1.135 1.076 2.154 2.249 3.345 3.441.401.4.944.765 1.052 1.29.237 1.167.048 2.757.048 4.157-.001 4.127.042 8.461 0 12.473-.172 16.284.251 32.877.048 49.174-4.52 4.726-9.454 9.27-13.954 14.145-.741.803-1.608 1.514-2.39 2.294-.784.784-1.52 1.567-2.294 2.342-1.539 1.538-3.176 3.05-4.683 4.683-1.49 1.615-3.178 3.049-4.731 4.636-2.644 2.7-5.436 5.389-8.219 8.172-.341.34-.981 1.041-1.242 1.051-.499.02-1.376-1.192-1.674-1.481-.567-.55-1.106-1.085-1.576-1.529-1.845-1.809-3.663-3.614-5.495-5.447-1.816-1.816-3.768-3.484-5.448-5.496-.802-.96-1.848-1.799-2.772-2.724-2.266-2.266-4.469-4.495-6.833-6.833-.386-.381-1.051-1.289-1.434-1.29-.366-.002-1.258 1.066-1.673 1.48-6.87 6.868-13.537 13.582-20.404 20.453-.457.457-1.08 1.02-1.625 1.529-.41.382-1.193 1.477-1.625 1.481-.426.004-1.412-1.201-1.673-1.481-1.517-1.633-3.079-3.261-4.636-4.73-3.23-3.025-6.234-6.292-9.461-9.319-3.223-3.02-6.189-6.301-9.463-9.27-.703.301-1.154.964-1.672 1.481-3.615 3.613-7.34 7.292-10.991 10.943-4.173 4.174-8.272 8.421-12.616 12.425-.923-.547-1.604-1.398-2.341-2.15-5.108-5.212-10.515-10.276-15.722-15.483-2.886-2.886-5.805-5.756-8.936-8.888-.711-.712-1.565-1.422-2.246-2.246-1.659-2.011-3.628-3.658-5.543-5.592-.437-.441-.951-.881-1.051-1.338-.258-1.176-.048-2.771-.048-4.253.001-15.75-.048-31.031-.048-46.928 0-4.257-.047-8.474-.047-12.759 0-1.479-.013-3.025.095-4.349 6.935-7.148 13.946-14.334 21.073-21.46.386-.386 1.336-1.092 1.338-1.481.001-.34-.876-1.066-1.243-1.433-4.839-4.839-9.727-9.728-14.575-14.575-.453-.454-.797-.979-1.242-1.434-1.271-1.299-2.702-2.554-3.871-4.015.05-9.375-.162-18.892.047-27.859.486.074.787.499 1.099.812.928.929 1.841 1.93 2.772 2.915 8.576 9.041 17.421 17.814 26.14 26.714 4.913 5.169 10.064 10.101 14.862 15.388 4.632 4.711 9.295 9.532 14.049 14.288.301.301.718.859 1.004.859.376 0 1.182-.99 1.577-1.385 2.484-2.483 4.884-4.806 7.264-7.312.95-1.001 2.003-1.879 2.819-3.011-1.603-1.913-3.469-3.612-5.256-5.4-4.859-4.858-9.65-9.698-14.623-14.671-.423-.422-1.151-.963-1.243-1.386-.204-.941 0-2.527 0-3.584.001-1.259-.009-2.509-.048-3.536-.088-2.363.152-4.775.048-7.072-.196-4.325.087-9.192.048-13.619.459.036.77.483 1.051.764 4.674 4.675 9.293 9.578 14.002 14.289 5.033 5.034 9.924 10.21 14.958 15.244 1.251 1.252 2.354 2.672 3.632 3.918 2.527 2.469 5.121 4.936 7.551 7.551 2.42 2.606 4.963 5.06 7.502 7.598 2.521 2.521 4.958 5.054 7.502 7.599 1.258 1.257 2.41 2.647 3.824 3.728.6-.336 1.057-.866 1.529-1.338 2.374-2.374 4.702-4.702 7.168-7.168.43-.432.908-.905 1.385-1.481.359-.434 1.338-1.097 1.339-1.529.001-.36-.771-.888-1.099-1.242-.455-.491-.689-.907-1.052-1.291-.792-.837-1.679-1.63-2.342-2.294-4.649-4.647-9.235-9.362-13.858-13.953-.864-.888-1.844-1.661-2.58-2.677-.078-9.283-.099-18.644 0-27.764-.003-.083.034-.125.095-.145zm48.552 79.613c-3.776-3.776-7.49-7.85-11.183-11.755-.387-.409-1.438-1.744-2.007-1.864-.236-.05-.909.718-1.195 1.003-.997.998-1.98 2.029-2.867 2.916-1.275 1.275-2.679 2.613-3.87 3.87-2.563 2.704-5.191 5.119-7.646 7.789-.089 12.784.145 25.102.144 37.8-.001 3.077.048 6.349.048 9.51 0 1.051-.165 2.326.048 3.154.157.613 1.218 1.505 1.769 2.055 2.575 2.576 4.896 5.089 7.406 7.599 1.595 1.594 3.079 3.126 4.684 4.73.293.294.76.88 1.052.86.284-.019.704-.636 1.003-.908.4-.364.738-.689 1.004-.955 4.001-4.001 7.774-7.532 11.659-11.564.55-.57 1.67-1.296 1.816-2.055.173-.891 0-2.069 0-3.154 0-15.949-.026-31.621-.048-47.023-.449-.797-1.179-1.369-1.817-2.008zm-114.356-13.427c-3.93 3.91-7.718 7.709-11.612 11.659-.65.66-1.292 1.196-1.959 1.912-.487.522-1.697 1.482-1.816 2.103-.158.832 0 1.978 0 3.059 0 3.175-.163 6.226-.048 9.318.145 3.873.048 8.402.048 12.521 0 8.577 0 17.188.048 25.423 4.566 4.797 9.305 9.688 14.002 14.384.299.299.789.86 1.051.86.44 0 1.094-.903 1.529-1.338 3.42-3.42 6.859-6.693 10.083-10.131.654-.551 1.275-1.18 1.959-1.864.46-.46 1.635-1.438 1.768-2.103.168-.837.048-1.981.048-3.011 0-2.974-.11-6.161-.048-9.318.25-12.6-.161-25.799-.047-37.895-1.08-1.425-2.44-2.607-3.68-3.919-1.841-1.946-3.63-4.003-5.448-5.973-1.26-1.364-2.396-2.559-3.728-3.919-.546-.558-1.463-1.662-2.007-1.863-.056.021-.108.05-.143.095zm48.982 1.911c-.645.708-1.413 1.29-1.959 1.911-.313.357-.533.725-.859 1.052-2.88 2.879-5.744 5.792-8.65 8.697-.525.525-1.729 1.377-1.863 2.007-.084.396-.048 1.018-.048 1.529 0 1.469.048 3.1.048 4.588-.001 14.909.002 29.521.048 44.155.479.767 1.167 1.354 1.768 2.007 1.824 1.985 3.668 3.813 5.591 5.735 1.204 1.203 2.509 2.418 3.774 3.774.561.602 1.08 1.319 1.769 2.008.325.324 1.502 1.828 2.007 1.815.244-.006.718-.533 1.052-.86 4.347-4.263 8.331-8.379 12.567-12.615.581-.581 1.684-1.368 1.864-2.056.215-.818.048-2.203.048-3.201 0-3.259 0-6.393 0-9.414 0-6.271.101-12.296-.048-18.494-.126-5.293 0-10.646 0-16.009 0-1.142.155-2.427-.048-3.154-.169-.604-1.201-1.44-1.768-2.007-3.85-3.849-7.467-7.767-11.23-11.612-.54-.552-1.533-1.676-2.007-1.863-.728.496-1.398 1.284-2.056 2.007z" fill-rule="evenodd"/></svg>