<svg enable-background="new 0 0 79.855 68.258" viewBox="0 0 79.855 68.258" xmlns="http://www.w3.org/2000/svg"><path clip-rule="evenodd" d="m36.157.18c.276 7.911-.019 16.451.103 24.432.88.357 2.164.207 3.357.207 1.217 0 2.466.078 3.461-.104.187-1.897.155-3.941.155-5.992 0-5.191.051-10.378.052-15.599 0-.996-.124-2.011.155-2.944 1.12-.17 2.5-.099 3.874-.052 1.352.047 2.791-.157 3.926.155.272 8.304-.103 16.191.103 24.432 1.032.28 2.255.155 3.513.155 8.23.001 16.466.002 25 .155.01.616-.702.949-.981 1.446-.413.414-.754.899-1.188 1.292-2.205 2.789-4.577 5.409-6.818 8.161-6.924 8.055-13.707 16.215-20.713 24.225-.582.665-1.165 1.354-1.704 2.066-1.334 1.762-2.789 3.412-4.235 5.114-.267.313-.474.84-.981.878-.145-3.03-.103-6.04-.103-9.039 0-8.852.159-17.415-.052-26.602-.935-.276-2.191-.155-3.357-.155-1.197 0-2.39-.12-3.358.052-.281 1.451-.155 2.949-.155 4.442 0 10.422-.001 20.793-.155 31.353-.556-.05-.841-.809-1.24-1.188-1.096-1.384-2.226-2.733-3.357-4.08-9.866-11.728-19.752-23.433-29.393-35.383-.647-.939-1.764-1.677-2.066-2.789 9.01-.199 18.777.128 27.841-.104.342-.903.191-1.917.155-2.893-.111-3.002.052-6.226.052-9.401 0-3.11.052-6.225.052-9.401 0-1.008-.159-2.045.206-2.944 2.479-.031 5.538-.202 7.851.105zm-19.886 32.283c.195.747.823 1.241 1.292 1.808 2.807 3.392 5.566 6.911 8.368 10.227.46.545.958 1.266 1.601 1.55.273-3.236.155-6.97.155-10.227 0-1.141.124-2.322-.155-3.357-3.479-.24-7.403-.036-11.054-.104-.078.026-.131.076-.207.103zm35.692 0c-.061.025-.117.055-.155.103-.302.413-.24 1.989-.207 2.79.153 3.625-.191 7.791.104 11.311.799-.286 1.07-1.099 1.653-1.601 2.957-3.647 6.233-7.216 9.143-10.847.404-.504 1.035-.951 1.136-1.653-3.686-.24-7.817-.035-11.674-.103z" fill-rule="evenodd"/></svg>