<svg enable-background="new 0 0 75.924 57.938" viewBox="0 0 75.924 57.938" xmlns="http://www.w3.org/2000/svg"><path clip-rule="evenodd" d="m36.564.121c.295 6.411-.116 13.528.246 19.872.588.152 1.837.188 2.354-.049.186-3.242.05-6.641.049-10.009 0-1.669.128-3.364.05-5.005-.078-1.63-.146-3.269.098-4.808 3.461-.174 7.783-.149 11.089 0 .268 6.468-.057 13.806.196 19.872 5.347.505 10.427-.271 15.407.245 2.145.223 3.966 1.341 5.445 2.453 2.907 2.186 5.127 6.047 4.22 11.138-.37 2.081-1.403 3.979-2.649 5.25-3.288 3.355-6.363 6.729-9.616 10.157-.646.679-1.194 1.438-1.865 2.109-2.662 2.663-4.75 5.715-9.371 6.428-4.831.746-8.845-1.605-10.893-4.514-1.122-1.594-1.931-3.396-2.012-5.888-.159-4.915.21-10.363-.148-15.455-.494-.281-1.656-.134-2.306-.098-.267 1.158-.147 2.463-.147 3.827 0 3.927.095 7.895.049 11.53-.033 2.657-.733 4.413-1.913 6.035-2.056 2.826-5.987 5.414-10.893 4.563-4.403-.763-6.752-3.811-9.273-6.525-1.281-1.378-2.698-2.597-3.877-4.023-2.554-2.676-5.28-5.212-7.752-8.096-1.201-1.401-2.214-3.057-2.748-5.201-.532-2.143-.364-4.783.491-6.82 1.576-3.752 4.612-5.98 8.979-6.869 1.185-.241 2.486-.147 3.828-.147 3.854 0 7.944.081 11.727-.098.277-.742.098-1.55.098-2.355 0-4.947 0-10.176 0-15.21 0-.799-.118-1.619.147-2.355 3.533-.052 7.538-.15 10.99.046zm-14.376 31.598c-3.364 0-7.016-.034-10.205.049-.156.425.307.749.539.981 2.02 2.02 4.037 4.174 5.986 6.183 1.177 1.144 2.224 2.42 3.386 3.581.582.583 1.056 1.261 1.619 1.865.545.585 1.102 1.275 1.864 1.619.188-4.461.151-9.574 0-14.131-.984-.256-2.077-.147-3.189-.147zm28.654.098c-.423.567-.245 1.405-.245 2.11 0 2.403-.006 4.666 0 6.869.004 1.703.002 3.495.147 5.054.77-.309 1.218-1.059 1.766-1.619 1.688-1.725 3.315-3.462 5.005-5.152 1.938-2.016 3.843-4.155 5.741-6.133.273-.285.64-.605.687-1.03-4.024-.171-9.043-.162-13.101-.099z" fill-rule="evenodd"/></svg>