<svg enable-background="new 0 0 55.203 65.283" viewBox="0 0 55.203 65.283" xmlns="http://www.w3.org/2000/svg"><path clip-rule="evenodd" d="m55.203 23.557c-4.015.201-8.908.104-13.146.048-.312-.249-.244-.714-.29-1.015-.852-5.537-4.203-8.693-9.279-10.149-2.812-.807-6.505-.435-9.956-.435-3.496 0-6.992-.04-10.294.048-.28.752-.158 1.566-.145 2.368.09 5.891 0 12.04 0 18.075 0 6.957-.017 13.975.145 20.733.78.26 1.648.145 2.465.145 4.273 0 8.59-.049 12.71-.048 1.703 0 3.333-.026 4.833-.338 2.592-.541 4.893-2.208 6.428-3.915.792-.879 1.559-1.935 2.078-3.093.549-1.221.697-2.605 1.064-4.108 4.216-.16 9.121-.161 13.388 0-.087 1.373-.497 2.71-.87 3.963-1.874 6.286-5.02 11.29-9.859 14.692-3.755 2.64-8.616 4.736-14.885 4.736-9.505.001-19.929.08-29.336-.097-.249-2.663-.027-5.367-.097-8.071-.069-2.661-.048-5.334-.048-8.023 0-15.717-.148-31.337-.097-47.169.002-.616-.015-1.259.193-1.836 6.511-.052 13.024-.048 19.669-.048 3.385 0 6.627-.085 9.763.097 3.018.175 5.755.887 8.119 1.692 7.248 2.468 12.599 7.21 15.369 14.112.924 2.303 1.819 4.802 2.078 7.636z" fill-rule="evenodd"/></svg>