<svg enable-background="new 0 0 5.94 6.017" viewBox="0 0 5.94 6.017" xmlns="http://www.w3.org/2000/svg"><path d="m1.635.031c.106-.02.213-.015.319-.028 1.328 0 2.656-.005 3.983-.002.005.428-.003.855-.002 1.283.003.03-.005.059-.007.088-.003.215 0 .429-.003.644-.022.004-.045.012-.068.011-.849.001-1.698 0-2.546-.001-.03-.003-.059-.009-.088-.008-.433 0-.866-.003-1.298-.003.002.675.003 1.351.003 2.026.01.022.028.01.046.006-.005-.077.011-.153.01-.23.025-.177.054-.356.125-.521.118-.318.328-.6.592-.812.21-.17.459-.288.719-.358.089-.016.176-.039.267-.045.065-.014.132-.004.197-.016.058-.003.116.011.174.007.173.017.347.046.512.106.099.037.2.073.29.127.108.055.213.121.306.199.084.066.166.134.233.218.11.11.195.241.274.374.045.094.098.185.128.287.032.086.058.173.077.263.015.095.025.19.037.285.003.084-.003.168.009.252.001.601.003 1.201.003 1.801-.021.008-.042.015-.064.02-.141.006-.284-.004-.426.011-.103-.002-.206.008-.309-.004-.12.01-.243.004-.364.006-.044.002-.087-.011-.131-.008-.222 0-.444-.003-.666-.003-.007-.015-.011-.032-.011-.049 0-.25 0-.5-.001-.751 0-.026-.007-.051-.008-.076 0-.362 0-.725-.001-1.087-.012 0-.035 0-.046 0 .004.077-.011.152-.012.229-.004.054-.02.107-.023.162-.022.143-.072.281-.123.416-.065.141-.137.28-.232.403-.154.204-.346.381-.568.508-.096.049-.19.103-.293.136-.138.053-.283.086-.43.098-.04-.001-.079.014-.12.012-.088-.003-.178.007-.266-.011-.07.002-.138-.018-.207-.026-.339-.071-.66-.233-.917-.465-.278-.247-.486-.57-.596-.925-.035-.139-.07-.28-.081-.423.002-.044-.011-.086-.01-.13 0-.062 0-.125-.003-.187-.01-.05-.005-.102-.006-.153-.001-.353-.002-.706-.003-1.059.001-.033-.01-.065-.008-.098.001-.21-.003-.419-.001-.629.006-.044.011-.087.01-.132.017-.162.057-.32.109-.475.026-.077.064-.148.095-.223.186-.371.492-.683.866-.867.087-.039.172-.083.264-.108.096-.023.191-.056.29-.065z"/></svg>