<svg enable-background="new 0 0 76.413 76.699" viewBox="0 0 76.413 76.699" xmlns="http://www.w3.org/2000/svg"><path clip-rule="evenodd" d="m62.618.209c.262 12.678-.053 25.612.048 38.172 4.349.307 9.455-.144 13.729.239.143 3.452-.588 6.595-1.483 9.423-2.617 8.274-7.865 14.405-14.781 18.369-4.573 2.621-11.342 4.345-18.129 3.109-5.509-1.004-9.644-3.186-13.298-6.075-.498-.395-.944-.935-1.579-1.148-.255.505-.143 1.105-.143 1.674 0 4.104.066 8.63-.144 12.581-4.168.195-8.635.195-13.154 0-.218-3.046-.096-6.165-.096-9.328.001-9.552.098-19.146 0-28.7-1.045-.256-2.212-.144-3.348-.143-3.452 0-6.977.034-10.236-.144-.062-3.429.609-6.569 1.483-9.423.85-2.778 2.167-5.269 3.539-7.51 2.816-4.602 6.46-8.433 11.193-10.955 4.6-2.45 11.114-4.363 18.177-3.109 5.574.99 9.686 3.156 13.25 6.17.466.394.893.938 1.53 1.101.251-.944.144-2.369.144-3.636 0-2.351.048-4.76.048-7.318 0-.797-.255-3.285.287-3.444.762-.223 2.409-.048 3.444-.048 3.156-.001 6.529-.105 9.519.143zm-14.732 31.236c-.278-.662-.525-1.349-.813-1.961-.593-1.259-1.619-2.454-2.583-3.492-1.007-1.085-2.144-1.947-3.348-2.727-2.778-1.796-6.994-3.229-11.528-2.727-4.54.502-8.104 2.507-10.667 5.07-2.909 2.909-5.31 7.002-5.214 12.676 4.243.205 8.94-.043 13.154.191.279 1.391.239 2.701.526 3.922.845 3.59 2.55 6.424 4.783 8.658 2.896 2.897 6.871 5.358 12.533 5.358 5.718 0 9.631-2.312 12.676-5.214 1.507-1.435 2.722-3.298 3.636-5.31.935-2.058 1.632-4.497 1.53-7.319-3.143-.168-6.73-.096-9.997-.095-1.155 0-2.313.115-3.253-.144-.197-2.68-.619-4.943-1.435-6.886z" fill-rule="evenodd"/></svg>