<svg enable-background="new 0 0 75.995 41.901" viewBox="0 0 75.995 41.901" xmlns="http://www.w3.org/2000/svg"><path clip-rule="evenodd" d="m36.15 24.141c.802-.299 1.681-.136 2.545-.102 2.354.091 5.158-.052 7.888-.051 3.599 0 7.281.148 10.687-.051.265-.708.153-1.726.153-2.697s.111-1.99-.153-2.697c-.855-.27-1.796-.154-2.697-.154-6.257 0-13.278-.168-19.389.052-.358 1.924-.063 3.938-.102 5.903-.112 5.782.176 11.663-.152 17.404-6.789.226-14.708.05-21.934.051-1.524 0-2.985.086-4.275-.153-2.473-.458-4.179-1.747-5.648-3.206-1.208-1.281-2.12-2.777-2.646-4.784-.531-2.022-.408-4.505-.408-6.971 0-2.564-.149-5.108.408-6.973 1.092-3.657 3.728-6.323 7.378-7.378 1.924-.557 4.187-.46 6.667-.407 4.504.096 9.55-.002 14.249-.103.323-3.504-.117-7.998.254-11.704 4.067-.186 8.569-.103 12.977-.103 6.997 0 14.2.051 21.475.051 1.867-.001 3.441.055 4.937.509 1.384.418 2.616.934 3.512 1.933 1.701 1.408 2.985 3.067 3.664 5.446.662 2.321.408 5.509.407 8.498 0 2.966.001 5.885 0 8.804 0 3.001.258 6.297-.407 8.65-.681 2.408-1.85 4.026-3.613 5.496-1.672 1.394-3.709 2.528-6.564 2.494-5.489-.065-11.809-.065-17.965-.102-1.131-.79-2.007-1.869-2.951-2.85-.94-.976-1.858-1.973-2.799-2.951-1.885-1.962-3.918-3.788-5.598-5.955.063-1.933-.133-4.131.1-5.899zm10.229 7.785c.875.821 1.707 1.684 2.544 2.545.521.419.689 1.001 1.374 1.17.566.139 1.325.088 1.984.102 2.175.042 4.307 0 6.412 0 2.575 0 6.052.429 8.092-.306 1.465-.527 2.714-1.922 2.9-3.664.193-1.803.051-3.697.051-5.497 0-3.606 0-7.396 0-10.941 0-1.94.162-3.888-.051-5.547 0-.003-.036-.146-.051-.204-.419-1.597-2.07-3.004-3.817-3.257-1.164-.168-2.507-.051-3.766-.051-8.971 0-17.701-.087-26.666-.051-.06.024-.115.054-.152.101-.308.436-.23 1.873-.203 2.748.033 1.05-.074 2.049.102 2.748 1.788.273 3.746.153 5.699.153 4.89 0 9.975-.018 14.453.051.992.015 1.998-.102 2.951 0 2.762.295 4.985 2.479 5.496 4.987.206 1.013.051 2.413.051 3.613v6.514c0 1.082.123 2.192-.152 3.207-6.035.165-12.424-.209-18.32.102.086.764.795.902 1.069 1.477zm-22.188-13.638c-3.172 0-6.228-.05-9.312-.051-1.59 0-3.248-.166-4.784 0-2.247.244-3.676 2.324-3.817 4.581-.089 1.428 0 3.162 0 4.936 0 1.666-.092 3.502.255 4.681.281.96 1.012 1.932 1.78 2.494.402.294 1.401.766 1.884.815 1.445.143 3.017.05 4.58.051 4.76.001 9.631.097 13.994-.102.169-5.544.169-11.761 0-17.252-1.494-.274-3.042-.152-4.58-.153z" fill-rule="evenodd"/></svg>