<svg enable-background="new 0 0 90.164 56.655" viewBox="0 0 90.164 56.655" xmlns="http://www.w3.org/2000/svg"><g clip-rule="evenodd" fill-rule="evenodd"><path d="m67.399.285c.365 6.836-.216 14.322.206 21.059 3.937.176 7.722-.055 10.838 1.027 2.873.998 5.252 2.731 7.088 4.828 1.855 2.119 3.358 4.547 4.161 7.756.813 3.26.554 7.193-.617 10.273-2.127 5.596-6.68 9.721-12.789 11.043-3.619.783-7.591.162-10.273-1.027-2.772-1.23-4.839-3.096-6.729-5.188-.52-.527-.85-1.141-1.335-1.85-.272-.396-.85-1.775-1.336-1.797-.529-.025-1.326 1.697-1.695 2.26-.549.836-1.208 1.559-1.746 2.156-1.228 1.363-2.802 2.664-4.366 3.494-3.603 1.908-7.624 2.465-13.252 2.311-5.193-.143-10.394.141-15.563-.104-1.385-.065-2.677.039-3.904-.051-1.148-.084-2.299-.346-3.287-.617-1.885-.515-3.709-1.458-5.24-2.568-4.398-3.186-8.085-8.191-7.499-15.871.35-4.578 2.384-8.084 4.982-10.684 2.582-2.582 5.815-4.775 10.427-5.238 2.27-.229 4.698-.037 7.499-.205.3-3.656-.107-8.018.257-11.609 1.57-.293 3.38-.102 5.239-.102.855 0 1.85.039 2.773 0 .804-.035 2.003.135 2.62-.053.498-.15 1.06-1.301 1.335-1.695.438-.625.759-1.213 1.284-1.693.966-1.037 1.913-2.094 3.133-2.877 2.209-1.582 5.303-3.041 8.989-3.236 1.541-.082 3.151.051 4.776.051 4.754.001 9.672-.09 14.024.207zm-4.211 2.207c-2.062-.086-4.114.002-6.164 0-2.775 0-5.593-.188-8.167-.051-3.392.18-6.217 1.424-8.475 3.236-2.225 1.783-3.971 3.834-4.932 6.625-1.073 3.121-1.18 6.645-.257 9.914.39 1.379 1.109 2.783 1.85 3.904.767 1.162 1.813 2.059 2.773 3.029 1.695 1.58 4.004 2.285 5.701 3.904 1.587 1.514 2.961 3.67 2.568 6.934-.312 2.596-1.894 4.578-3.853 5.754-1.001.6-2.181 1.068-3.698 1.129-4.423.176-7.31-2.768-8.167-6.266-.614-2.508-.205-6.152-.205-9.348-.001-6.369.086-13.06-.103-19.16-.98-.186-2.215-.102-3.391-.102-1.192 0-2.411-.123-3.339.154-.187 2.682-.103 5.877-.103 8.68.001.973.121 1.971-.153 2.824-3.286.186-6.407-.072-9.246.207-2.838.277-5.107 1.285-6.985 2.67-1.842 1.357-3.392 2.898-4.623 5.033-1.175 2.039-2.038 4.73-1.9 7.756.265 5.824 3.198 10.059 6.935 12.379 1.993 1.238 4.312 2.285 7.19 2.467 2.918.184 6.099.104 9.605.102 3.236 0 6.467.053 9.604.053 3.36-.002 6.262-.094 8.835-.822 4.829-1.367 8.34-4.858 10.016-9.348.931-2.494 1.147-5.756.565-8.373-1.2-5.399-4.374-8.395-8.526-10.787-2.18-1.256-3.822-2.775-4.469-5.238-1.212-4.621 1.487-8.051 4.469-9.4 4.22-1.908 8.226.832 9.862 3.391 1.382 2.162 1.438 4.623 1.438 8.219.001 3.137-.051 6.213-.051 9.297 0 3.223-.178 6.451 0 9.656.153 2.77 1.427 5.215 2.723 6.934 2.685 3.562 6.807 6.645 12.943 6.318 3.056-.162 5.305-.939 7.396-2.262 3.803-2.4 6.896-6.5 7.037-12.326.152-6.369-2.815-10.295-6.369-12.943-1.874-1.399-4.086-2.494-6.935-2.723-2.262-.182-4.865-.051-7.191-.051-.736 0-1.552.035-2.26-.207-.204-6.926.149-14.137-.103-20.955-.568-.239-1.216-.18-1.845-.207zm-7.55 24.193c0-1.016 0-2.037 0-3.082 0-2.09.156-4.236 0-6.01-.135-1.525-1.088-2.812-2.004-3.697-.928-.898-2.143-1.588-3.544-1.695-3.198-.248-5.43 2.033-5.907 4.365-.277 1.359.092 2.977.72 4.006.878 1.441 2.627 2.293 4.109 3.185 1.607.967 2.982 2.049 4.058 3.287.391.434.803.818 1.182 1.285.348.426.611 1.07 1.232 1.232.267-.882.154-1.876.154-2.876zm-21.008.873c-.09 1.309-.052 2.799-.052 4.211 0 2.721-.32 6.037.205 8.322.604 2.619 2.916 4.896 6.473 4.211 2.357-.453 4.542-2.645 4.417-5.648-.08-1.926-1.082-3.07-2.106-4.162-2.436-1.531-4.886-2.924-6.831-5.033-.571-.619-1.336-1.775-1.952-2.055-.074.029-.126.08-.154.154z"/><path d="m16.755 31.05c1.709-.172 3.234.238 4.263.771 2.004 1.039 3.423 2.701 4.212 5.033.373 1.102.384 3.057.052 4.264-.309 1.123-.889 2.303-1.695 3.184-1.497 1.637-3.833 2.963-6.985 2.518-2.967-.42-5.382-2.396-6.472-4.982-.395-.938-.688-2.385-.565-3.699.088-.934.576-2.25.873-2.824.576-1.111 1.816-2.461 2.877-3.133.911-.581 1.985-.983 3.44-1.132zm-3.133 3.955c-1.399 1.385-2.356 4.258-1.079 6.627.833 1.545 2.577 2.84 4.623 3.029 2.679.25 4.423-1.129 5.341-2.773.845-1.51.947-3.686.104-5.342-1.044-2.047-2.88-3.475-5.701-3.133-1.413.247-2.551.862-3.288 1.592z"/><path d="m71.663 31.05c3.675-.402 6.768 1.656 7.961 4.008.67 1.318.999 2.447 1.027 3.801.043 2.035-.638 3.602-1.489 4.775-.923 1.275-2.453 2.434-4.058 2.93-1.912.588-4.723.395-6.318-.668-2.689-1.793-5.396-5.877-3.44-10.273.897-2.02 3.25-4.235 6.317-4.573zm-2.105 3.186c-1.251.859-2.354 2.729-2.363 4.674-.011 2.395 1.402 4.227 3.03 5.086 4.276 2.252 9.632-2.002 7.859-6.936-.767-2.131-2.854-3.865-5.702-3.697-1.125.066-2.041.334-2.824.873z"/></g></svg>