<svg enable-background="new 0 0 68.478 33.028" viewBox="0 0 68.478 33.028" xmlns="http://www.w3.org/2000/svg"><path clip-rule="evenodd" d="m26.756 32.763c-.34-1.24-.176-2.598-.176-3.912 0-3.966.21-8.354.044-12.311-.112-2.662-.814-4.629-2.154-6.199-1.306-1.529-2.815-2.737-4.968-3.386-2.263-.681-5.29-.424-7.123.439-1.927.909-3.436 2.341-4.44 3.913-1.094 1.715-1.569 3.85-1.451 6.815.084 2.103 0 4.003 0 6.286 0 .655-.036 1.528.264 1.803.389.357 1.783.22 2.638.22h5.539c.944 0 1.909.122 2.594-.22.336-1.236.176-3.017.176-4.968 0-.834 0-1.684 0-2.594 0-1.497.29-3.152-1.231-3.078-1.458.228-1.099 2.241-1.099 3.825v2.462c0 .839.112 1.683-.22 2.242-.888.233-2.067.132-3.209.132-1.105.001-2.279.104-3.078-.22-.197-.877-.088-1.821-.088-2.77 0-2.745-.28-5.749.704-7.87 1.151-2.482 3.465-4.602 7.078-4.616 2.292-.009 3.979.86 5.276 1.978 1.216 1.049 2.342 2.828 2.55 4.704.154 1.392 0 2.922 0 4.397v8.705c0 1.404.115 2.833-.176 4.177-.911.304-1.936.177-2.946.177-.996 0-2.024-.001-3.034.043-2.003.089-3.992-.121-5.891 0-2.677.171-6.006.045-9.101.044-.9 0-2.716.16-3.034-.22-.354-.422-.132-1.967-.132-2.682 0-3.024 0-5.813 0-8.705 0-1.879-.02-3.811.088-5.627.111-1.887.36-3.472.879-4.881 1.012-2.743 2.615-5.018 4.748-6.814 2.074-1.746 4.727-3.221 7.87-3.693 7.568-1.138 13.368 2.238 16.311 6.419 1.644 2.336 2.832 4.893 3.166 8.397.175 1.837.021 3.662.044 5.584.021 1.704-.184 3.509.176 5.319.506.336 2.254.249 3.209.264 3.44.053 6.799.044 10.244.045 2.522 0 4.577.056 6.595-.177 2.03-.232 3.495-1.122 4.748-2.065 2.669-2.013 4.276-5.63 3.517-9.673-.513-2.732-2.187-4.821-4.133-6.155-.663-.454-1.458-.685-2.066-1.319-1.028.02-1.899-.396-3.033-.439-2.311-.086-4.605.048-6.903-.044-1.052-.042-2.889-.207-3.341.176-.413.351-.264 1.7-.264 2.506 0 2.046.012 3.597.044 5.584.012.737-.212 2.149.132 2.594.312.404 1.564.308 2.462.308h5.276c1.497 0 3.127.183 3.166-1.143.047-1.626-2.49-1.033-3.869-1.1-1.604-.076-3.424.146-4.792-.132-.332-.895-.079-2.088-.132-3.209-.052-1.106-.157-2.257.132-3.122.508-.227 1.086-.132 1.627-.132 1.632 0 3.374-.044 5.056-.044 2.442 0 4.066.381 5.496 1.451 2.435 1.822 4.303 6.048 2.242 9.848-.81 1.496-2.066 2.597-3.605 3.342-1.543.747-3.819.747-6.155.747-3.355.001-6.509 0-10.244 0-.798.001-2.781.257-3.166-.176-.31-.349-.132-2.104-.132-2.901 0-6.017.044-12.004.044-18.07 0-.979-.104-1.956.132-2.857 3.095-.158 6.49-.071 9.584-.132 3.997-.078 8.551-.205 11.519.747 5.989 1.923 10.479 6.287 11.519 13.102.267 1.747.332 3.846-.044 5.672-1.014 4.927-3.881 8.556-7.65 10.859-1.315.805-2.657 1.454-4.265 1.891-1.645.447-3.485.572-5.583.572-7.091 0-14.111-.094-21.147.043-.93.018-1.904.026-2.814-.176z" fill-rule="evenodd"/></svg>