<svg enable-background="new 0 0 80.337 53.831" viewBox="0 0 80.337 53.831" xmlns="http://www.w3.org/2000/svg"><path clip-rule="evenodd" d="m21.605 0c7.311 3.052 12.99 8.047 16.116 15.289.518 1.199 1.066 2.451 1.446 3.77.382 1.326.604 2.734 1.084 4.132.575-.84.562-1.971.878-3.047.891-3.023 1.991-5.669 3.512-8.109 1.995-3.199 4.331-6.032 7.438-8.11 1.477-1.059 3.019-2.131 4.804-2.944.571-.26 1.18-.65 1.859-.62.188 3.867.103 8.292.103 12.397 0 1.32-.152 2.644.104 3.822.521.337 1.402.084 1.963.051 4.908-.284 8.485 1.363 11.415 3.358 3.134 2.134 5.139 4.601 6.56 8.212.675 1.715 1.418 3.791 1.446 5.94.097 7.293-2.627 12.138-6.715 15.444-2.927 2.368-6.07 3.831-10.589 4.184-4.772.374-8.688-1.019-11.673-2.996-2.984-1.977-4.953-4.798-6.922-7.852-1.427-2.212-2.61-4.873-3.357-7.696-.251-.948-.28-1.983-.775-2.893-.391.252-.334.769-.413 1.137-.954 4.462-2.876 8.344-5.269 11.519-.869 1.152-1.714 2.387-2.738 3.357-2.014 1.91-4.6 3.544-7.696 4.545-3.05.986-7.242 1.165-10.64.207-4.578-1.291-8.117-4.18-10.434-7.903-1.575-2.53-3.004-5.113-3.099-9.091-.044-1.863-.013-3.915.569-5.524.926-2.557 2.3-4.814 3.822-6.87 1.725-2.328 4.256-4.239 7.128-5.527 2.576-1.155 5.702-1.818 9.453-1.446.415-1.1.258-2.595.258-4.081 0-3.562.052-7.078.052-10.537 0-.675-.097-1.78.155-2.015.038-.048.094-.078.155-.103z" fill-rule="evenodd"/></svg>