<svg enable-background="new 0 0 75.752 76.2" viewBox="0 0 75.752 76.2" xmlns="http://www.w3.org/2000/svg"><path clip-rule="evenodd" d="m.311.007c18.837-.031 37.738.048 56.697.047h14.043c1.524 0 3.067-.116 4.57.143.227 12.767.046 25.68.047 38.37 0 6.275.148 12.416.048 18.661-.1 6.2.06 12.521-.143 18.804-1.537.255-3.126.143-4.665.143-11.058.001-21.937-.048-33.085-.047-12.658.001-25.279-.001-37.703-.143-.194-.724-.095-1.485-.095-2.237.001-24.149-.11-49.863.143-73.645.035-.045.087-.073.143-.096zm43.415 1.333c-4.145-.767-8.924-.524-13.853-.524-7.349 0-14.327 0-21.279 0-2.265 0-5.578-.075-7.522.095-.275.695-.118 1.474-.142 2.19-.181 5.223-.048 10.57-.048 15.995.001 18.325-.035 37.186.048 55.936.053.01.074.053.095.095 5.541.254 11.153.143 16.757.143 5.716 0 11.477-.001 17.09 0 2.974 0 5.618-.032 8.093-.381 7.417-1.046 13.159-4.052 17.9-7.902 3.883-3.154 7.173-7.055 9.664-11.806 1.449-2.764 2.785-6.12 3.427-9.473.954-4.977.938-10.809-.095-15.567-.499-2.299-1.236-4.477-2.094-6.474-.864-2.011-1.765-3.974-3.047-5.57-.868.556-1.562 1.337-2.285 2.047-2.209 2.165-4.428 4.274-6.569 6.474-2.949 2.843-5.874 5.71-8.759 8.617-3.075 2.717-5.747 5.837-8.759 8.616-2.625 2.422-5.072 5.142-7.664 7.522-.372.341-.727.798-1.238.952-.663-.892-1.286-1.823-1.809-2.856.451-.774 1.189-1.333 1.809-1.952 3.182-3.182 6.362-6.314 9.521-9.474.629-.629 1.247-1.291 1.904-1.904.665-.62 1.224-1.319 1.856-1.952 5.062-5.062 10.2-10.048 15.281-15.091.929-.957 2.142-2.25 3.237-3.285.326-.308 1.014-.778.999-1.19-.014-.4-.733-.989-.999-1.285-.416-.463-.676-.864-1.191-1.095-3.007 2.689-5.787 5.606-8.664 8.426-2.874 2.816-5.682 5.721-8.616 8.474-.367.344-.67.71-1 1.095-.327.382-.739.691-1.095 1.047-2.15 2.149-4.338 4.243-6.474 6.379-2.488 2.488-5.072 4.977-7.522 7.426-.348.348-.701.793-1.19.952-.353-.358-.587-.798-.952-1.38-.21-.334-.874-1.081-.858-1.523.011-.279.658-.848.952-1.143 5.199-5.199 10.707-10.622 15.757-15.662 4.723-5.044 9.86-9.774 14.615-14.71.684-.71 1.563-1.315 2-2.238-.321-.458-.773-.703-1.285-1.095-.375-.286-1.013-.976-1.476-.952-.368.019-.843.652-1.095.904-.394.394-.641.747-1.047 1-5.18 4.959-10.158 10.123-15.281 15.138-4.804 4.702-9.756 9.376-14.472 14.091-.315.315-.568.768-1.047.857-.411-.36-.612-.836-.952-1.38-.252-.402-.883-1.057-.857-1.523.017-.3.595-.785.857-1.047 1.002-1.002 2.069-2.013 2.952-2.904 3.906-3.901 7.84-7.773 11.758-11.663 4.871-4.857 9.789-9.789 14.615-14.615.312-.312.735-.633.857-1.095-3.086-1.795-6.666-2.994-10.808-3.76z" fill-rule="evenodd"/></svg>