<svg enable-background="new 0 0 18.813 11.957" viewBox="0 0 18.813 11.957" xmlns="http://www.w3.org/2000/svg"><path d="m.001 0c1.639.022 3.278.004 4.917.01h7.678c.764-.012 1.54.081 2.256.36 1.197.416 2.234 1.246 2.942 2.292.591.848.925 1.866 1.003 2.894.086 1.125-.169 2.267-.697 3.262-.277.486-.612.938-.995 1.346-1.112 1.125-2.678 1.799-4.263 1.793-4.28-.002-8.561 0-12.842-.001.816-.804 1.628-1.611 2.436-2.424.531-.512 1.052-1.033 1.568-1.56.671-.649 1.329-1.313 1.993-1.97-.942-.95-1.9-1.884-2.835-2.842-.623-.6-1.226-1.221-1.839-1.831-.434-.45-.894-.874-1.322-1.329zm10.849 1.197c-.578.57-1.141 1.157-1.723 1.724-.44.391-.834.829-1.251 1.243-.624.606-1.246 1.212-1.853 1.836.497.52 1.014 1.02 1.527 1.524.612.61 1.212 1.234 1.843 1.825.477.491.971.967 1.45 1.455.79-.777 1.563-1.571 2.359-2.341.541-.551 1.093-1.091 1.65-1.625.274-.284.552-.565.84-.835-.329-.296-.636-.615-.949-.927-1.306-1.285-2.595-2.587-3.893-3.879z"/></svg>