<svg enable-background="new 0 0 72.824 63.961" viewBox="0 0 72.824 63.961" xmlns="http://www.w3.org/2000/svg"><g clip-rule="evenodd" fill-rule="evenodd"><path d="m.397 63.919c-.021-.043-.042-.086-.096-.096-.143-6.773-.144-14.363-.144-21.662 0-1.061-.178-2.287 0-3.123.078-.369.855-1 1.248-1.393 1.322-1.322 2.676-2.627 3.938-3.891 1.843-1.842 3.409-3.695 5.091-5.379 3.546-3.547 6.953-7.182 10.423-10.52 3.404-3.564 6.955-7.051 10.422-10.518 2.69-2.689 5.3-5.078 9.318-6.389 1.356-.441 2.835-.789 4.515-.912 3.224-.236 6.304.674 8.646 1.633 2.557 1.047 4.556 2.398 6.436 3.842 3.857 2.965 7.09 6.738 9.27 11.24 2.164 4.471 3.767 10.42 3.266 17.193-.451 6.098-2.708 11.076-5.331 15.178-1.306 2.043-2.964 3.83-4.707 5.572-3.351 3.352-7.908 6.098-12.92 7.637-2.623.807-5.41 1.23-8.838 1.393-3.325.158-6.728.078-10.134.145-10.2.202-20.223.001-30.403.05z"/><path d="m28.495.325c.067.478-.451.74-.72 1.01-.865.863-1.81 1.758-2.642 2.689-6.259 6.154-12.463 12.436-18.636 18.733-1.031 1.051-2.082 2.08-3.122 3.121-.776.775-1.539 1.533-2.306 2.353-.211.227-.501.568-.864.576-.218-8.492-.123-17.834-.144-26.271-.001-.664-.187-1.527.096-2.113 9.16-.118 18.978-.122 28.338-.098z"/></g></svg>