<svg enable-background="new 0 0 83.902 36.181" viewBox="0 0 83.902 36.181" xmlns="http://www.w3.org/2000/svg"><g clip-rule="evenodd" fill-rule="evenodd"><path d="m20.691 0c.461.177 1.045 1.515 1.43 2.168 3.051 5.168 6.062 10.532 9.064 15.667 1.762 3.013 3.375 6.08 5.076 9.065 1.287 2.262 2.549 4.493 3.891 6.75.445.748.975 1.461 1.184 2.315-11.82.177-24.252-.048-36.311-.049-1.691 0-3.385.12-5.025-.147.098-.608.492-1.119.787-1.626 3.756-6.449 7.6-13.009 11.332-19.559.564-.989 1.096-2.021 1.822-2.907 2.057-.178 4.58.112 6.553-.147-.357-1.152-.916-1.95-1.527-3.006-.234-.407-.523-.886-.836-1.428-.223-.382-.736-1.101-.74-1.478-.002-.376.523-1.066.74-1.429.814-1.37 1.603-2.742 2.414-4.04.027-.072.076-.121.146-.149zm-1.476 14.238c-2.469 4.592-5.168 9.042-7.736 13.401-.447.759-.939 1.514-1.182 2.365.828.295 1.734.114 2.611.099 5.41-.096 11.012.099 16.504.099.562 0 1.23.143 1.725-.197-.158-.859-.774-1.524-1.182-2.266-2.111-3.835-4.373-7.571-6.504-11.332-.863-1.524-1.674-3.063-2.66-4.483-.033 0-.066 0-.1 0-.482.634-1.037 1.494-1.476 2.314z"/><path d="m63.308.148c.594.35 1.256 1.899 1.625 2.562 2.457 4.404 5.035 8.713 7.539 13.056.754 1.309 1.486 2.612 2.266 3.941.262.447.406.902.641 1.379.623 1.269 1.451 2.486 2.168 3.744 1.773 3.112 3.588 6.24 5.42 9.361.35.597.844 1.158.936 1.872-1.957.195-4.465.1-6.504.049-.51-.347-.717-.987-1.033-1.527-.303-.513-.658-1.035-.937-1.577-.449-.875-.732-1.884-1.477-2.513-.455.305-.721.858-.986 1.33-.801 1.431-1.607 3.039-2.611 4.336-9.006-.088-18.613-.018-27.787-.197.182-.794.697-1.564 1.133-2.315 2.982-5.142 6.094-10.345 9.066-15.569 3.401-5.978 6.895-11.91 10.393-17.785.029-.07.078-.12.148-.147zm-.294 11.972c-3.275 5.531-6.436 11.234-9.707 16.702-.205.344-.553.733-.492 1.182 5.947.181 12.332.198 18.377.197.844 0 1.725.116 2.512-.148-.631-1.62-1.691-3.054-2.561-4.582-2.369-4.162-4.781-8.25-7.145-12.464-.24-.429-.426-1.091-.838-1.035-.07.027-.119.077-.146.148z"/></g></svg>