<svg enable-background="new 0 0 82.235 62.373" viewBox="0 0 82.235 62.373" xmlns="http://www.w3.org/2000/svg"><path clip-rule="evenodd" d="m82.077 51.066c-5.165.162-10.772.096-16.239.095-.737 0-1.507-.114-2.191.143-.148 1.116.482 2.089 1.048 2.857.556.754 1.336 1.502 2.143 1.905 2.511 1.253 5.682.432 7.143-1.428.285-.363.408-.771.762-.857.464-.112 1.138.058 1.714.095.578.038 1.168.09 1.667.143 1.187.125 2.326.012 3.238.333-.397 1.607-1.171 2.94-2.143 3.952-1.903 1.981-4.445 3.767-8.096 4-1.821.117-3.839.047-5.905.048-7.925.001-16.042-.095-24.001-.095-8.217 0-15.418-.047-23.763-.048-2.175 0-4.126.001-6.047 0-1.977 0-3.387-.498-4.762-1.286-2.378-1.363-4.579-3.819-5.62-6.477-1.164-2.974-1.423-7.114-.333-10.238.534-1.531 1.263-2.783 2.095-3.953.831-1.167 1.892-2.13 2.714-3.334 1.638-2.398 3.612-4.507 5.381-6.714 1.814-2.264 3.743-4.381 5.476-6.619 3.59-4.635 7.201-8.57 11.001-13.191 1.781-2.166 3.641-4.445 5.572-6.524 2.04-2.196 4.385-3.666 8.429-3.857 7.782-.368 10.284 5.272 13.572 9.477 3.412 4.363 6.722 8.7 10.048 12.953 3.386 4.33 6.785 8.618 10.048 12.953.797 1.059 1.66 2.154 2.477 3.286 2.021 2.801 3.917 5.582 4.524 9.857.112.787.374 1.671.048 2.524zm-43.478-25.619c-2.251 2.746-4.712 5.557-6.714 8.143-2.232 2.688-4.475 5.381-6.714 8.143-.536.661-2 2.004-1.905 3 .171 1.789 2.84 1.334 4.953 1.334 8.839-.001 17.356.143 26.144.095 1.229-.007 2.944.258 3.429-.905.042-1.2-.754-2.083-1.333-2.905-4.122-5.849-8.346-11.465-12.477-17.287-.792-.827-1.2-2.292-2.81-2.143-.955.19-1.942 1.756-2.573 2.525zm34.24 17.191c-.816-.781-1.9-1.366-3.286-1.477-2.672-.212-4.865 1.608-5.572 3.572-.137.38-.249.706-.143 1.095.769.257 1.693.143 2.571.143 1.856 0 3.684-.02 5.381 0 .899.01 1.805.029 2.572-.19.005-1.326-.731-2.386-1.523-3.143z" fill-rule="evenodd"/></svg>