<svg enable-background="new 0 0 173.594 171.561" viewBox="0 0 173.594 171.561" xmlns="http://www.w3.org/2000/svg"><path clip-rule="evenodd" d="m.166 171.141c-.022-.045-.044-.09-.1-.101-.09-13.887-.051-27.955-.05-42 0-8.421-.058-16.701.15-24.768.498.513.678 1.24.955 1.858 2.013 4.485 4.521 8.429 7.536 12.007 3.394 4.03 7.207 7.648 11.856 10.45 4.582 2.762 9.908 5.004 15.976 6.381 6.248 1.417 13.671 1.388 20.146.15 12.114-2.316 21.446-8.677 28.234-16.429 3.437-3.925 6.305-8.529 8.441-13.865.271-.678.405-1.426.653-2.161 1.586-4.716 2.814-10.361 2.813-16.68 0-3.614-.318-7.02-1.004-10.198-.667-3.091-1.425-6.023-2.462-8.691-4.149-10.665-11.338-18.527-20.447-24.215-4.625-2.888-9.889-4.978-15.977-6.33-6.386-1.419-14.074-1.339-20.247-.101-9.189 1.844-16.512 5.961-22.457 11.002-1.997 1.694-3.8 3.632-5.525 5.627-2.983 3.448-5.589 7.509-7.536 12.007-.261.601-.444 1.321-.955 1.809-.238-21.617-.149-43.861-.15-66.015 0-.65.061-.784.602-.854.605-.078 1.335.05 2.01.05 4.683.001 9.489.05 13.967.05 10.989 0 21.329-.053 32.103.05 10.628.104 21.061.151 32.002.152 5.523.001 10.797.059 15.725.452 2.438.195 4.844.565 7.135 1.005 5.79 1.112 10.888 2.585 15.875 4.471.947.358 1.83.867 2.764 1.256 3.789 1.579 7.316 3.52 10.7 5.577 3.352 2.037 6.424 4.469 9.395 6.883 6.018 4.89 11.267 10.383 15.725 16.83 6.553 9.477 12.043 20.579 14.318 34.514 1.141 6.985 1.62 14.96.954 22.709-.84 9.78-3.301 18.468-6.581 25.974-2.458 5.625-5.38 10.889-8.792 15.624-4.477 6.214-9.686 12.01-15.725 16.831-12.203 9.741-26.375 16.771-46.271 18.789-5.11.519-10.473.251-15.926.251-15.879.001-32.184-.15-48.13-.15-10.739 0-20.724-.04-31.7-.201z" fill-rule="evenodd"/></svg>