<svg enable-background="new 0 0 76.924 77.44" viewBox="0 0 76.924 77.44" xmlns="http://www.w3.org/2000/svg"><g clip-rule="evenodd" fill-rule="evenodd"><path d="m76.145 24.941c-.269.508-.892.664-1.353.902-3.416 1.764-6.917 3.479-10.37 5.31-1.9 1.008-3.928 2.058-5.961 3.005-.852.397-1.869 1.032-2.905 1.553-.431.217-.952.468-1.503.751-.498.256-1.104.703-1.503.702-.458-.001-2.002-.855-2.505-1.102-11.997-5.896-24.301-11.834-36.219-17.784-3.177-1.562-6.369-3.295-9.617-4.809-1.067-.497-2.174-.944-3.107-1.653.783-.768 1.879-1.092 2.855-1.553 2.905-1.371 5.78-2.897 8.817-4.358 1.957-.942 3.904-1.972 5.86-2.956 1.964-.987 3.909-2.06 5.861-2.905.461-.2 1.378.331 1.954.601 1.584.744 3.325 1.665 4.758 2.404 7.578 3.514 15.046 7.277 22.593 10.821 3.779 1.774 7.423 3.789 11.222 5.51 3.312 1.501 6.549 3.227 9.818 4.809.445.215.976.346 1.305.752z"/><path d="m.301 15.423c5.856 2.5 11.66 5.326 17.232 8.065.938.461 1.898.959 2.855 1.353.953.392 1.936.77 2.756 1.402.103 15.975-.174 31.984-.051 48.141.008 1.021.022 2.075-.2 3.056-1.044-.282-2.024-.789-3.005-1.252-2.826-1.333-5.658-2.845-8.517-4.208-2.882-1.374-5.755-2.723-8.616-4.108-.928-.449-1.962-.751-2.755-1.453.023-16.632.011-34.279.15-50.846.029-.071.078-.122.151-.15z"/><path d="m76.596 28.698h.1c.34.334.2.894.2 1.303.001 7.148.065 14.795-.1 21.841-2.053 1.126-4.165 2.185-6.262 3.206-6.3 3.067-12.534 6.325-18.836 9.418-7.357 3.611-14.669 7.325-22.042 10.971-1.066.527-2.108 1.117-3.256 1.453-.298-.881-.122-1.844-.1-2.755.158-6.635-.184-13.177.049-19.988.699-.876 1.949-1.23 3.007-1.753 3.121-1.544 6.23-3.21 9.417-4.709 4.216-1.983 8.432-4.118 12.574-6.312 4.107-2.175 8.371-4.185 12.523-6.362 2.059-1.079 4.172-2.122 6.262-3.156 2.168-1.072 4.324-2.111 6.464-3.157z"/></g></svg>