<svg enable-background="new 0 0 75.246 66.19" viewBox="0 0 75.246 66.19" xmlns="http://www.w3.org/2000/svg"><g clip-rule="evenodd" fill-rule="evenodd"><path d="m37.855 0h.092c1.719 2.646 3.125 5.482 4.727 8.201s3.174 5.453 4.725 8.201c3.889 6.889 7.719 13.819 11.678 20.665.791 1.369 1.52 2.765 2.316 4.124 1.59 2.711 3.201 5.445 4.727 8.201.772 1.396 1.463 2.832 2.27 4.216 1.963 3.373 3.791 6.93 5.838 10.333.391.647.924 1.298 1.019 2.084-.732.252-1.514.139-2.269.139-8.729.001-17.568-.092-26.318-.092-14.369 0-28.049-.044-42.072-.047-.789 0-1.584-.017-2.361-.045-.745-.028-1.512.133-2.227-.139.049-.822.646-1.451 1.02-2.131 2.633-4.814 5.504-9.63 8.246-14.411 2.369-4.114 4.676-8.249 7.043-12.371 3.531-6.145 7.219-12.191 10.703-18.441.576-1.032 1.248-2.008 1.809-3.058.283-.532.476-1.098.787-1.622 2.674-4.529 5.291-9.231 8.109-13.715.033-.043.084-.069.138-.092zm35.352 63.247c-1.846-3.198-3.652-6.441-5.467-9.592-.373-.646-.605-1.38-.973-2.038-.357-.642-.744-1.271-1.111-1.9-4.467-7.613-8.662-15.46-13.113-23.074-3.027-5.176-5.701-10.145-8.711-15.429-1.043-1.829-2.256-3.793-3.336-5.699-.355-.627-.85-2.087-1.437-1.714-.242.145-.369.546-.602.927-2.869 4.698-5.693 9.604-8.34 14.271-.73 1.287-1.395 2.611-2.131 3.892-.732 1.273-1.514 2.523-2.225 3.799-4.305 7.734-8.93 15.256-13.205 22.936-2.504 4.497-5.178 8.949-7.646 13.437-.361.66-.853 1.283-1.02 2.039.664.25 1.395.139 2.086.139 5.242 0 10.414.045 15.568.046 16.934.002 33.551.14 50.504.139.691 0 1.451.112 2.131-.139-.111-.766-.603-1.401-.972-2.04z"/><path d="m43.693 16.588c-.182.613-.861.799-1.344 1.066-3.041 1.676-6.113 3.5-9.174 5.282-.473.275-1.068.488-1.391.973.498.42 1.314.59 2.039.788 1.424.388 2.854.758 4.355 1.205.623.186 1.615.565 2.27.51.547-.046 1.26-.577 1.807-.88 1.211-.672 2.176-1.249 3.336-1.946.496-.298 1.129-.875 1.762-.602-.15.602-.834.834-1.297 1.112-1.484.889-3.111 1.664-4.635 2.595-1.508.922-3.07 1.693-4.586 2.641-.48.3-1.07.531-1.391 1.02.18.405.686.323 1.02.416 1.754.494 3.582.988 5.467 1.529.668.191 1.547.593 2.271.51.545-.063 1.168-.564 1.713-.88 1.172-.677 2.152-1.226 3.291-1.9.51-.302 1.045-.811 1.668-.695.1.614-.779.914-1.205 1.159-1.502.864-3.072 1.723-4.588 2.641-1.521.923-3.076 1.743-4.586 2.641-.476.283-1.152.455-1.391 1.019.66.45 1.508.592 2.271.788 4.729 1.213 9.598 2.683 14.316 3.938.76.202 1.617.259 2.27.741-.008.835-.307 1.617-.51 2.41-.596 2.328-1.324 4.702-1.854 7.181.557.669 1.57.674 2.41.927 1.684.509 3.455 1.006 5.236 1.437.859.208 1.803.292 2.502.788-.373.547-1.018.836-1.576 1.159-3.367 1.945-6.787 4.017-10.24 5.931-.557.309-1.074.832-1.76.834.043-.884.287-1.749.51-2.595.436-1.659.934-3.307 1.391-5.004.223-.832.49-1.707.51-2.595-.602-.542-1.523-.609-2.318-.834-1.602-.453-3.266-.952-4.957-1.343-.801-.185-1.664-.349-2.316-.788.01-1.165.445-2.335.787-3.475.16-.534.316-1.147.465-1.714.127-.495.021-1.36.693-1.483.195 1.055-.346 1.965-.602 3.012-.115.476-.221.932-.371 1.529-.111.446-.438 1.154-.324 1.575.115.434 1.588.695 2.086.833 1.748.491 2.885.765 4.633 1.206.605.152 1.818.662 2.316.509.523-.16.674-1.489.834-2.039.57-1.958 1.041-3.636 1.529-5.652.088-.366.285-.895.232-1.159-.102-.49-1.627-.793-2.272-.973-5.148-1.437-10.078-2.75-15.197-4.124-.809-.217-1.701-.309-2.408-.788.205-.542.826-.718 1.297-.973.934-.508 1.891-1.094 2.871-1.668.457-.266 1.037-.487 1.299-.973-.213-.335-.666-.357-1.02-.463-1.842-.554-3.883-1.039-5.838-1.575-.756-.207-1.562-.372-2.178-.788.273-.472.799-.689 1.25-.973.93-.586 1.779-1.007 2.826-1.622.33-.193 1.305-.596 1.299-.926-.01-.425-1.676-.7-2.18-.835-1.607-.429-3.121-.888-4.725-1.297-.766-.195-1.635-.301-2.131-.834.371-.5 1.004-.75 1.529-1.065 1.592-.958 3.303-1.805 4.957-2.78 2.215-1.306 4.42-2.649 6.533-3.753.137-.074.399-.203.514.089zm16.217 37.391c-1.309-.346-3.236-1.137-4.494-1.019-.275.307-.584 1.45-.742 2.039-.527 1.973-1.02 3.683-1.482 5.468-.084.319-.277.81 0 1.112.535-.005.951-.397 1.391-.649 2.772-1.596 5.578-3.204 8.293-4.772.42-.243 1.006-.468 1.205-.973-1.13-.604-2.63-.798-4.171-1.206z"/></g></svg>