<svg enable-background="new 0 0 44.774 48.199" viewBox="0 0 44.774 48.199" xmlns="http://www.w3.org/2000/svg"><path d="m12.122.08c5.915-.011 11.835-.104 17.755-.064.423-.096.907.238.888.687.03 4.376.037 8.76.038 13.135-.98.035-1.956.014-2.937.012-.055-3.384-.003-6.772-.05-10.157.036-.336-.25-.63-.554-.719-3.065-.033-6.132-.01-9.196.041-.306.056-.563.329-.585.641.001.843.014 1.686-.005 2.529-.969.007-1.938.004-2.907 0-.009-.806.008-1.612-.011-2.418.005-.353-.269-.725-.639-.736-.573-.004-1.147.01-1.72-.001-.378-.015-.715-.34-.728-.721-.011-.486-.003-.972-.007-1.458-.008-.369.262-.766.658-.771z"/><path d="m5.924 7.526c6.902.032 13.795-.104 20.696-.064.037.988.021 1.979.018 2.967-5.022-.02-10.04.105-15.06.081-.391-.065-.774.263-.786.657-.01.929.015 1.858-.007 2.787-.98-.001-1.96.015-2.94.001-.011-.93.002-1.86-.01-2.79-.031-.286-.243-.572-.531-.638-.518-.029-1.037.003-1.555-.018-.348-.014-.662-.296-.704-.641.001-.574-.008-1.149-.003-1.723.072-.409.479-.66.882-.619z"/><path d="m32.002 7.481c1.758.001 3.517-.031 5.276-.027.452.047.705.527.639.949.01 7.402.052 14.803.055 22.205-.966.024-1.934.009-2.901.015-.053-6.471-.048-12.943-.065-19.417.023-.354-.231-.754-.607-.771-.76-.009-1.52.003-2.28-.001-.161.016-.121-.173-.127-.274.013-.893-.024-1.787.01-2.679z"/><path d="m14.592 11.705c.967-.001 1.934-.006 2.902 0 .052 6.236.019 12.475.068 18.711.001.094.02.269-.128.24-.93-.014-1.86.007-2.79-.011-.031-6.312-.045-12.628-.052-18.94z"/><path d="m39.424 15.074c1.515-.01 3.028-.017 4.543-.033.378-.03.765.297.758.685.006.549.005 1.099.002 1.648-.038.38-.432.639-.795.623-1.504-.017-3.006.043-4.509.013 0-.977-.03-1.96.001-2.936z"/><path d="m18.72 15.145c5.027-.116 10.057-.013 15.083-.052.021.98.02 1.961.009 2.941-5.027.082-10.057-.05-15.083.052-.021-.981-.004-1.961-.009-2.941z"/><path d="m.763 15.189c4.206.003 8.412-.028 12.618-.027.001.982.039 1.964.004 2.944-3.232.025-6.466.033-9.701.031-.369-.017-.721.32-.706.693.013 4.182.001 8.366.045 12.547.078.356.455.574.803.557.871-.007 1.742-.001 2.614-.004.053.946.013 1.899.026 2.848-1.862.05-3.73.013-5.594.034-.38.027-.805-.247-.81-.655-.023-6.067-.03-12.136-.062-18.203-.037-.414.352-.797.763-.765z"/><path d="m27.876 19.274c.981-.021 1.965-.015 2.947-.008.017 1.64.005 3.28.019 4.919.995.02 1.99-.007 2.985.003.022.98.038 1.962.011 2.942-.992.026-1.985-.001-2.976.029-.01 3.533.019 7.067.007 10.6-.98.006-1.959.001-2.939.003-.034-6.162-.053-12.325-.054-18.488z"/><path d="m7.871 19.35c.975-.028 1.952-.01 2.928-.016.048 6.342.03 12.688.074 19.03.034.343.361.594.69.622.628.041 1.264-.033 1.889.037.01.969.008 1.939.003 2.908-2.533.019-5.068.026-7.602.011-.548-.007-.808-.58-.721-1.061.1-.602-.257-1.476.427-1.823.576-.079 1.171-.006 1.752-.072.326-.077.633-.364.606-.721-.028-6.304-.044-12.614-.046-18.915z"/><path d="m39.45 24.181c1.49-.048 2.988-.007 4.481-.031.376-.02.81.253.811.659.034 3.064.018 6.131.033 9.197.001.426-.444.721-.845.666-3.952.042-7.906.009-11.858.052-.015-.953-.009-1.908-.006-2.862 2.996-.026 5.991-.039 8.988-.039.398.023.796-.326.767-.735-.007-1.096-.005-2.193-.009-3.289-.003-.38-.359-.665-.722-.68-.548-.021-1.097 0-1.646-.007-.014-.976-.034-1.961.006-2.931z"/><path d="m17.73 31.903c2.987-.026 5.975-.087 8.961-.034.047.872.003 1.748.025 2.621.002.095.022.26-.126.235-4.842-.06-9.683.093-14.526.051-.007-.952-.034-1.903.001-2.852 1.891.043 3.776-.16 5.665-.021z"/><path d="m35.077 35.923c.965-.02 1.931-.04 2.896-.014.057 1.717.013 3.438.034 5.157.04.402-.337.771-.728.783-6.129.078-12.257-.03-18.386.061-.069.009-.11-.03-.1-.098-.006-.938-.004-1.876.001-2.814 5.023-.154 10.055.002 15.082-.078.459.057 1.081-.051 1.19-.587.047-.801-.013-1.608.011-2.41z"/><path d="m14.662 35.946c.966-.016 1.937-.027 2.903.01.007 2.85.04 5.7.03 8.551-.032.394.329.789.734.738 2.978-.037 5.955-.06 8.933-.039.332.036.598-.252.676-.551-.016-.431.01-.863.006-1.296.977.009 1.954-.04 2.931-.009.053 1.343.008 2.69.03 4.035.043.38-.294.795-.692.757-1.557-.01-3.115.027-4.672-.021-4.373-.015-8.745.096-13.118.065-.417.087-.81-.279-.825-.689-.01-.487-.013-.974-.007-1.461.008-.395.326-.75.727-.767.558-.007 1.118.001 1.677-.009.37-.001.697-.348.684-.716-.016-2.865-.042-5.732-.017-8.598z"/></svg>