<svg enable-background="new 0 0 78.416 70.7" viewBox="0 0 78.416 70.7" xmlns="http://www.w3.org/2000/svg"><g clip-rule="evenodd" fill-rule="evenodd"><path d="m21.534.145c.022.044.043.089.1.1.159 8.348.138 16.188-.05 24.645-.045.022-.089.044-.1.1-2.793-.1-5.272.015-7.518.498-4.456.958-7.787 3.083-10.256 6.123-1.267 1.56-2.191 3.331-2.688 5.477-1.197 5.166.929 9.699 3.386 12.297 2.595 2.746 6.324 5.028 11.8 4.282 4.675-.637 8.125-3.009 9.958-6.422 1.937-3.609 1.493-8.993 1.494-14.687 0-9.521.05-18.853.05-28.429 0-1.326-.121-2.649.149-3.933 1.004-.27 2.054-.149 3.086-.149 15.151 0 29.287.101 44.262.1.999 0 2.053-.118 3.037.149.242 1.342.164 2.739.149 4.132-.209 20.048-.099 41.095-.1 61.886 0 1.403.064 2.824-.149 4.182-.784.265-1.641.149-2.489.149-4.271-.001-8.769.154-13.044-.05-1.716-.082-3.44.283-5.028-.1-.27-1.302-.149-2.729-.149-4.132 0-4.234-.078-8.581.1-12.646.045-.022.089-.043.1-.099 1.202-.323 2.406-.1 3.535-.1 3.823 0 6.546-1.001 8.961-2.539 3.115-1.983 5.517-4.81 6.921-8.364 1.689-4.275.71-8.951-1.394-11.999-1.967-2.849-5.143-5.352-9.46-5.825-2.614-.287-4.706.156-6.572.896-3.623 1.435-6.38 3.909-7.418 7.916-.532 2.053-.548 4.366-.548 7.07 0 10.075.042 20.179-.149 29.823-1.003.288-2.056.147-3.087.1-3.232-.15-6.502 0-9.758 0-6.542 0-13.11.066-19.517 0-5.35-.056-10.455-.05-15.982-.05-1.009 0-2.035.079-2.987-.199-.268-1.42-.149-2.896-.149-4.331-.005-20.275.094-41.346.096-61.888 0-.711.014-1.441 0-2.141-.013-.653-.096-1.364.249-1.942 7.291-.04 14.02-.112 21.159.1zm17.775 29.624c1.181.003 2.337-.005 3.485.05 7.492.356 12.462-2.657 14.588-7.717.771-1.834 1.233-4.124.896-6.323-.31-2.023-1.169-3.857-2.241-5.228-1.028-1.315-2.284-2.611-3.933-3.485-1.58-.838-3.598-1.653-5.925-1.543-3.177.15-5.689 1.205-7.916 2.639-2.064 1.329-3.875 3.283-5.079 5.327-2.552 4.334-4.059 10.281-3.186 16.978.767 5.879 3.251 10.573 6.423 14.339 2.746 3.259 6.328 5.898 10.555 7.617.612.249 1.296.618 1.992.548.336-.656.199-1.646.199-2.589 0-.941.04-1.937-.05-2.738-.614-.781-1.589-1.049-2.39-1.493-2.471-1.37-4.576-3.278-6.323-5.377-1.721-2.068-3.245-4.632-4.082-7.567-.288-1.01-.601-2.145-.448-3.286 1.126-.242 2.317-.156 3.435-.152z"/><path d="m35.674 24.54c-.185-1.663.38-3.309.896-4.779.503-1.433 1.018-2.839 1.842-4.033 1.517-2.197 3.949-4.546 7.12-4.78 2.038-.15 3.691.705 4.779 1.643 1.922 1.656 3.156 4.582 1.992 7.468-.926 2.296-3.299 4.423-6.473 4.68-2.418.196-5.219 0-7.767 0-.808.001-1.669.148-2.389-.199z"/><path d="m57.531 47.692c-.02-2.091-.143-4.305-.05-6.423.114-2.592-.319-5.117.448-6.871.868-1.982 2.947-3.781 5.626-4.033 2.907-.273 4.733.858 6.124 2.141 1.373 1.267 2.447 3.301 2.44 5.775-.008 2.618-1.142 4.635-2.44 6.224-1.322 1.619-3.069 2.917-5.078 3.535-1.954.602-5.285.82-7.07-.348z"/><path d="m21.634 30.864c.132 3.748.157 7.126.149 10.406-.007 3.29-1.668 5.237-4.132 6.173-2.136.812-4.73.756-6.722-.149-1.168-.531-2.673-1.847-3.286-2.987-.271-.506-.66-1.558-.847-2.34-.359-1.503-.098-3.656.349-4.929.162-.461.271-.952.448-1.294.732-1.418 2.598-2.789 4.083-3.535 1.771-.891 3.859-1.423 6.174-1.594 1.267-.093 2.709.02 3.784.249z"/></g></svg>