<svg enable-background="new 0 0 75.54 58.863" viewBox="0 0 75.54 58.863" xmlns="http://www.w3.org/2000/svg"><path clip-rule="evenodd" d="m20.308 27c-1.247-.262-2.455-.145-3.625-.145-1.28 0-2.513.026-3.673-.048-2.26-.146-4.125-.71-5.848-1.595-3.191-1.638-5.559-4.502-6.621-8.264-1.283-4.541.21-9.01 2.271-11.744 2.098-2.783 5.284-4.953 9.908-5.172 1.881-.089 3.807.048 5.703.048 6.065 0 11.825.001 17.833 0 3.865 0 7.88-.182 11.792 0 3.832.178 6.939 1.073 9.762 2.32 5.588 2.468 9.98 6.187 13.049 11.116 2.888 4.637 5.393 11.468 4.495 19.38-.827 7.288-3.73 12.267-7.491 16.674-3.566 4.178-8.958 7.483-15.465 8.699-1.738.325-3.6.668-5.461.58-5.69-.269-9.194-2.85-11.502-6.621-.662-1.081-1.328-2.6-1.643-4.398-.307-1.748-.142-3.626-.773-5.268-.754-1.959-2.3-3.742-4.495-4.591-.367-.142-1.882-.751-2.464-.338-.395.279-.242 1.861-.242 2.707 0 2.968.145 6.187-.435 8.409-.819 3.142-2.373 5.38-4.64 7.153-2.283 1.786-5.397 3.063-9.038 2.658-3.351-.373-6.043-1.827-7.926-3.866-1.944-2.106-3.404-4.649-3.721-8.071-.335-3.614.825-6.899 2.513-9.183 2.108-2.851 5.089-4.867 9.424-5.316.875-.091 1.834.021 2.755 0 1.264-.029 2.695.03 4.205 0 .454-.009 1.093.01 1.305-.145.392-.288.229-1.784.242-2.417.02-1.023.003-1.77-.194-2.562zm9.134 5.655c1.047.3 2.052.767 2.9 1.305 3.345 2.121 5.988 5.548 6.331 10.584.179 2.629.598 4.842 2.175 6.283 1.131 1.281 2.578 2.289 4.495 2.562 2.136.304 4.488.041 6.379-.387 3.848-.871 7.049-2.523 9.569-4.543 2.503-2.005 4.781-4.624 6.38-7.732 1.629-3.168 2.735-6.991 2.706-11.406-.027-4.284-1.199-7.871-2.706-10.922-1.501-3.04-3.728-5.62-6.09-7.588-3.783-3.152-8.41-5.246-15.126-5.316-4.003-.042-7.851.048-12.083.048-5.389 0-10.896 0-16.19 0-1.913 0-3.742-.069-5.365 0-1.628.069-2.984.564-4.059 1.353-2.017 1.479-3.76 3.775-3.432 7.394.282 3.111 2.369 5.317 4.688 6.379 2.557 1.171 6.568.575 10.294.58.253-.963.157-2.059.145-3.141-.024-2.261 0-4.548 0-6.766 0-1.159-.116-2.315.145-3.238.719-.166 1.671-.097 2.561-.097.912 0 1.843-.108 2.513.146.176 3.087.097 6.658.097 9.859 0 1.094-.111 2.199.145 3.19 3.475.249 7.62.097 11.357.097.523 0 1.12.107 1.595-.145.037-.625-.673-.899-.967-1.353-.389-.433-.779-.864-1.16-1.305-.453-.343-.741-.741-1.208-1.208-.331-.331-1.124-.808-1.111-1.353.013-.593 1.242-1.56 1.546-1.885.604-.645 1.108-1.289 1.836-1.643 1.096.82 1.966 1.879 2.9 2.852 2.347 2.443 4.685 4.923 7.056 7.346.378.386 1.324 1.115 1.305 1.595-.016.4-.938 1.276-1.256 1.595-1.478 1.479-2.838 2.867-4.253 4.302-1.456 1.476-2.838 2.892-4.204 4.35-.454.483-.886 1.045-1.499 1.353-.711-.417-1.132-1.028-1.788-1.643-.337-.316-1.608-1.317-1.595-1.885.007-.317.504-.758.773-1.015.998-.955 1.811-1.88 2.658-2.803.313-.492.919-.692.967-1.45-.415-.206-.979-.183-1.498-.193-2.772-.053-5.276.048-8.168.048-.871 0-2.858-.243-3.238.193-.399.458-.145 1.747-.145 2.417 0 .934-.098 1.873.145 2.465 1.246.346 2.412.414 3.48.721zm-10.922 4.881c-2.004-.063-3.971-.137-5.848-.048-2.92.138-5.009 1.844-6.089 3.48-1.299 1.967-1.76 5.11-.628 7.636.928 2.069 2.898 3.919 5.123 4.494 2.194.567 4.302-.082 5.703-.918 2.26-1.349 3.686-3.632 3.721-7.056.013-1.194 0-2.462 0-3.769 0-1.204.108-2.452-.145-3.673-.571-.262-1.231-.127-1.837-.146z" fill-rule="evenodd"/></svg>