<svg enable-background="new 0 0 76.16 77.074" viewBox="0 0 76.16 77.074" xmlns="http://www.w3.org/2000/svg"><path clip-rule="evenodd" d="m.122 76.866c-.176-1.518-.116-3.075-.095-4.618.064-4.734 0-9.409 0-14.186 0-12.829 0-25.972 0-38.893 0-6.466-.104-12.898.143-19.089 11.852-.181 23.704 0 35.704 0 2.422-.001 4.723-.076 6.808.143 2.043.214 3.921.708 5.712 1.19 7.182 1.931 12.723 5.687 17.185 10.521 4.534 4.913 7.869 10.282 9.711 17.995.889 3.721 1.1 8.305.619 12.853-.839 7.942-4.117 14.658-8.045 19.661-4.07 5.184-9.325 9.311-15.757 11.949-3.417 1.401-6.936 2.279-11.282 2.57-4.082.274-8.975-.04-13.425-.047-8.856-.017-18.32.193-27.278-.049zm9.949-67.503c-.435.378-.286 1.018-.286 1.523v27.42 27.468c0 .551-.109 1.186.143 1.714 6.488.174 13.485.095 20.042.095 3.453 0 6.8.16 9.854.047 3.157-.116 5.9-.673 8.474-1.666 4.828-1.862 8.573-4.831 11.711-8.521 3.117-3.667 5.473-8.112 6.379-13.853 1.011-6.401-.249-12.561-2.333-17.138-2.124-4.666-5.236-8.422-8.95-11.283-3.735-2.877-8.516-5.266-14.567-5.665-3.249-.214-6.59-.026-9.95-.143-2.496-.086-5.084-.047-7.426-.048-.814 0-1.646-.108-2.428.143-.179 7.672-.095 15.606-.095 23.517v20.661c0 .95-.117 1.932.143 2.856 3.77.124 7.78.143 11.664.143 4.079 0 7.871.249 10.997-.762 3.02-.976 5.23-2.546 7.188-4.618 1.974-2.088 3.455-4.396 4.379-7.474.994-3.309.956-7.228 0-10.283-.924-2.955-2.546-5.558-4.427-7.426-1.96-1.947-4.224-3.706-7.141-4.713-2.854-.985-6.614-1.407-10.616-1.047-.249.508-.142 1.164-.142 1.809v1.952c0 1.347-.086 2.722.095 3.761 1.092.25 2.22.19 3.285.19 1.185 0 2.309-.06 3.38.143 1.85.35 3.537 1.187 4.761 2.285 2.416 2.167 4.48 5.366 3.713 9.95-.609 3.641-3.369 6.462-6.379 7.664-3.314 1.324-8.54.833-13.044.714-.174-10.004-.095-20.608-.095-30.705 0-.632-.113-1.342.143-1.952 2.389-.005 4.932-.162 7.379-.047 2.533.118 4.884.085 6.997.571 4.003.92 7.315 2.801 9.902 5.189 2.496 2.304 4.757 5.38 6.094 8.997 1.34 3.629 1.652 8.863.476 13.186-1.066 3.918-2.926 7.071-5.379 9.712-3.56 3.831-8.368 7.046-15.567 7.045-6.764-.001-13.885-.047-20.47-.047-.578 0-1.21.11-1.761-.143-.178-17.254.117-34.359-.145-51.174-1.755-.153-3.989-.116-5.998-.047z" fill-rule="evenodd"/></svg>