<svg enable-background="new 0 0 85.204 31.017" viewBox="0 0 85.204 31.017" xmlns="http://www.w3.org/2000/svg"><g clip-rule="evenodd" fill-rule="evenodd"><path d="m9.228.125c.181 10.329.156 20.461.05 30.669-2.843.148-6.322.179-9.111.05-.221-9.927-.206-20.225-.05-30.619.345-.26.904-.129 1.344-.149 2.445-.114 5.422-.101 7.767.049z"/><path d="m11.369 30.794c-.266-1.213-.149-2.498-.149-3.783 0-8.244.001-16.688 0-25.043 0-.67-.088-1.662.149-1.843.037-.046.091-.075.149-.1 2.238-.017 4.448.575 6.274 1.395 3.234 1.451 5.278 3.565 6.97 6.473.719 1.233 1.303 2.643 1.643 4.132.775 3.39.267 7.038-.946 9.858-1.104 2.564-2.921 4.81-5.227 6.373-2.299 1.555-5.267 2.803-8.863 2.538z"/><path d="m57.821.175c.24.479.1 1.051.1 1.594 0 2.809.186 6.136-.05 8.862-1.316.394-3.484-.065-4.879.248-.267 1.513-.101 3.201-.101 4.88.001 5.109.043 10.083-.099 15.085-2.823.166-6.338.167-9.161 0-.225-5.069-.1-10.299-.1-15.483 0-5.137-.184-10.307.1-15.136 4.509-.137 9.571-.229 14.19-.05z"/><path d="m68.923.175c.262 9.812.151 20.36.1 30.619-2.171.266-4.647.15-7.069.15-1.216-.001-2.463.037-3.635 0-1.163-.038-2.306.144-3.336-.15.13-1.151.64-2.196.995-3.285 2.128-6.511 4.273-13.116 6.473-19.666.362-1.08.83-2.164 1.096-3.236.386-1.559.664-3.182 1.493-4.481 1.172-.054 2.794-.144 3.883.049z"/><path d="m71.213.075c1.281.031 2.685-.062 3.884.05.634 1.181.944 2.514 1.344 3.784 1.195 3.798 2.543 7.654 3.834 11.501 1.285 3.827 2.557 7.651 3.784 11.551.401 1.275.981 2.498 1.145 3.833-4.64.143-9.573.24-14.14 0-.13-2.543-.149-5.125-.149-7.767 0-6.485-.033-12.632.05-19.168.014-1.038-.205-3.025.1-3.684.035-.046.09-.076.148-.1z"/><path d="m41.49.224c.183 7.479.1 15.492.101 23.201 0 2.522.1 5.032-.101 7.418-2.637.222-6.013.223-8.712.05-.271-1.565-.149-3.252-.149-4.929 0-4.909.081-10.194-.1-14.985-.731-.374-1.744-.141-2.689-.15-.904-.009-1.843.015-2.639-.149-.185-.68-.049-1.775.051-2.49-.154-1.878-.156-4.04-.1-6.073.018-.669-.127-1.383.149-1.942 4.598-.05 9.674-.149 14.189.049z"/></g></svg>