<svg enable-background="new 0 0 15.719 15.554" viewBox="0 0 15.719 15.554" xmlns="http://www.w3.org/2000/svg"><path d="m.001 0c4.375.011 8.75.001 13.125.005.864-.003 1.729.005 2.593-.004-.019 1.701-.002 3.403-.009 5.104-1.722-.01-3.443-.003-5.165-.004-.008-1.688.001-3.376-.004-5.063-.726.716-1.447 1.437-2.168 2.156-.07.067-.153.118-.222.185-1.203 1.196-2.403 2.395-3.603 3.594-.32.305-.609.645-.959.916-.291.29-.58.583-.873.871.502.519 1.025 1.017 1.532 1.53.256.25.497.517.778.739 1.274 1.261 2.535 2.535 3.809 3.795.222.216.427.453.675.642.333.315.645.653.98.967 0 .027-.001.081-.002.108-2.837-.006-5.673-.001-8.51-.003-.66.011-1.32-.017-1.978.016.002-5.185 0-10.369.001-15.554z"/><path d="m10.543 10.44c1.724.005 3.449.005 5.173 0-.012 1.704-.003 3.408-.004 5.111-.828-.024-1.657-.003-2.485-.011-.87.003-1.74-.006-2.61.005-.102-.029-.077-.148-.078-.227.009-1.626 0-3.252.004-4.878z"/></svg>