<svg enable-background="new 0 0 17.316 10.541" viewBox="0 0 17.316 10.541" xmlns="http://www.w3.org/2000/svg"><path d="m0 .005c1.028-.013 2.05.304 2.907.867.424.255.777.605 1.113.964.866.978 1.344 2.297 1.276 3.604-.056 1.229-.526 2.451-1.376 3.35-1 1.083-2.463 1.663-3.919 1.747-.001-3.51.002-7.021-.001-10.532z"/><path d="m7.602 1.478c.99-.925 2.327-1.489 3.689-1.476-.007 3.511-.001 7.023-.003 10.534-1.28-.07-2.553-.525-3.531-1.365-.162-.157-.319-.321-.48-.48-1.174-1.326-1.599-3.277-1.07-4.969.258-.853.759-1.624 1.395-2.244z"/><path d="m12.003 0c1.738-.006 3.448.904 4.412 2.349.593.856.887 1.9.9 2.937-.042.653-.149 1.307-.397 1.916-.389 1.007-1.122 1.872-2.036 2.442-.746.463-1.597.753-2.469.852-.137.022-.276.02-.412.045.003-3.514 0-7.027.002-10.541z"/></svg>