<svg enable-background="new 0 0 71.885 34.624" viewBox="0 0 71.885 34.624" xmlns="http://www.w3.org/2000/svg"><path clip-rule="evenodd" d="m71.812.302c.098 2.194.111 4.94-.045 7.098-2.198.241-4.226-.038-6.091.138-1.883.177-3.308.752-4.626 1.648-2.461 1.673-4.35 4.239-4.396 8.197-.045 3.912 1.966 6.556 4.396 8.197 1.368.923 2.77 1.452 4.717 1.603 1.827.142 3.869-.083 5.954.137.02.041.04.082.091.092.047 2.23.136 4.898-.045 7.052-.737.265-1.524.128-2.29.091-2.419-.114-4.897.014-7.373-.045-3.216-.077-6.488 0-9.708 0-6.538 0-13.081.108-19.417-.138-.231-2.328-.165-5.045 0-7.327 2.123-.178 4.189.043 5.816-.458 4.23-1.302 7.762-5.863 6.274-11.77-.766-3.041-3.067-5.536-5.862-6.64-1.578-.623-3.262-.641-5.587-.641-2.038-.001-4.122-.081-5.999.045-.281.446-.147 1.02-.137 1.511.032 1.634-.046 3.333-.046 5.038 0 6.322.07 13.376-.092 20.149-1.076.241-2.226.149-3.343.137-7.665-.08-16.018.143-23.859-.092-.279-2.286-.072-4.618-.046-7.143 2.211-.234 4.288-.009 6.183-.092 1.868-.082 3.509-.68 4.808-1.557 2.502-1.689 4.396-4.34 4.396-8.335 0-3.693-2.142-6.764-4.488-8.243-1.28-.807-2.854-1.55-4.763-1.603-1.88-.049-3.985.021-6.044-.088-.246-1.016-.137-2.317-.137-3.572 0-1.252-.077-2.541.137-3.572 13.957-.267 27.878 0 41.719 0 9.943 0 19.923-.046 29.903.183z" fill-rule="evenodd"/></svg>