<svg enable-background="new 0 0 72.579 74.687" viewBox="0 0 72.579 74.687" xmlns="http://www.w3.org/2000/svg"><path clip-rule="evenodd" d="m11.611.138c.292 10.317-.016 20.953.095 31.514.106 10.098-.182 20.678.047 30.848 1.347.223 2.725.164 4.094.143 6.373-.097 14.075.048 20.994.048 1.475 0 2.805.03 4.046-.238 8.939-1.929 15.289-7.803 18.328-15.948.4-1.073.798-2.124 1-3.285.432-2.486.786-5.187.523-7.807-.509-5.086-2.067-9.241-4.522-12.615-3.621-4.977-8.459-8.609-15.662-10.044-3.559-.709-7.953-.371-12.33-.524-.509-.018-1.194 0-2.047 0-.651 0-1.691-.156-1.952.095-.235.227-.143 1.488-.143 2.238 0 11.609-.148 23.626.048 35.275.647.324 1.424.19 2.142.19 2.251 0 4.583-.016 6.855.048 3.161.088 5.899.14 8.093-.905 2.112-1.006 3.674-2.417 4.998-4.237 1.232-1.694 2.285-4.061 2.285-6.902 0-5.945-2.865-9.517-6.76-11.663-2.085-1.148-4.724-1.38-7.855-1.38-2.958 0-6.119.016-8.95-.143-.208-.872-.142-1.864-.142-2.856 0-2.931-.035-6.059.142-8.855 5.34-.066 11.258-.345 15.805.523 4.585.876 8.124 2.882 11.092 5.427 2.867 2.458 5.229 5.772 6.712 9.806 1.466 3.99 2.126 9.344.904 14.234-1.125 4.505-3.001 7.837-5.617 10.902-2.543 2.978-5.823 5.292-9.807 6.712-2.14.762-4.369 1.237-7.045 1.237-7.933 0-16.627-.129-24.374-.143-.021-.042-.042-.085-.095-.095-.021-19.792-.048-41.543.095-61.601 6.592-.07 12.869-.272 19.328 0 2.148.09 4.316-.095 6.474 0 3.882.17 7.444 1.204 10.568 2.428 3.089 1.21 5.962 2.914 8.283 4.665 4.842 3.655 8.99 8.302 11.758 14.234 2.711 5.81 4.432 13.572 3.094 21.898-1.182 7.363-4.152 13.148-8.045 17.947-3.898 4.805-8.784 8.605-14.9 11.044-3.194 1.274-6.368 2.333-10.664 2.333-12.701 0-25.89-.123-38.322-.143-.251-1.468-.143-3.013-.143-4.522 0-1.498.071-2.982 0-4.475-.148-3.113.148-6.244.048-9.378-.197-6.148 0-12.433 0-18.661 0-6.041 0-12.331 0-18.756 0-5.283-.103-11.089.047-16.328.025-.736-.11-2.101.146-2.285.035-.045.086-.072.143-.095 3.698.062 7.648-.126 11.188.095z" fill-rule="evenodd"/></svg>