<svg enable-background="new 0 0 75.786 76.039" viewBox="0 0 75.786 76.039" xmlns="http://www.w3.org/2000/svg"><path clip-rule="evenodd" d="m75.58.115c.256 1.553.143 3.147.143 4.713.002 4.818-.002 9.605 0 14.328.004 18.147.102 37.402.047 56.507-.043.021-.086.042-.096.096-12.416.126-25.072.19-37.703.19-12.676 0-25.232.201-37.701 0-.258-3.115-.145-6.274-.145-9.426 0-9.545-.047-19.05-.047-28.562-.002-9.523-.047-19.118-.047-28.373 0-1.601-.07-3.226 0-4.808.066-1.519-.146-3.03.143-4.523 15.391-.179 30.719-.192 45.748-.19 3.791 0 7.674-.048 11.426-.048 5.988.002 12.203-.084 18.232.096zm-19.709 5.189c.242.555.881.765 1.332 1.048 2.48 1.553 4.613 3.342 6.57 5.379.795.826 1.658 1.599 2.285 2.522 1.094 1.614 2.287 3.188 3.285 4.857.334.558.518 1.226 1.047 1.666.254-1.044.143-2.181.143-3.332 0-3.428-.063-7.133-.047-10.379.002-.57.189-1.269-.096-1.761-4.736-.16-9.872-.167-14.519 0zm-24.279.333c-8.309.108-17.695-.031-26.23.191-.258 1.294-.143 2.64-.143 3.95 0 9.604.047 18.983.049 28.42 0 10.812-.061 21.637.143 32.134.49.313 1.115.19 1.666.19 9.225-.001 18.225-.04 27.23-.238.174-10.777.045-21.696.047-32.514.002-11.073.033-21.222-.143-31.991-.822-.24-1.734-.154-2.619-.142zm11.426 64.172c3.156-.628 6.195-1.611 8.617-2.952 8.27-4.577 14.395-11.389 16.756-21.803.479-2.111.738-4.353.811-6.903.133-4.823-1.082-9.243-2.572-12.852-.393-.952-.734-1.832-1.189-2.666-1.385-2.54-2.982-4.704-4.856-6.712-3.605-3.867-8.395-7.156-14.234-8.902-1.729-.518-4.748-1.241-6.711-1.095-.256.595-.143 1.292-.144 1.904 0 4.774.002 9.383 0 14.139 0 8.165.002 16.555 0 24.183 0 2.611-.07 5.235.049 7.76.225 4.777-.17 9.685.047 14.281.031.646-.135 1.335.143 1.952 1.111.088 2.245-.128 3.283-.334zm27.562-2.905c0-3.912.078-8.114-.094-11.806-.049 0-.057-.039-.096-.048-.068.026-.115.074-.143.143-1.816 3.135-3.654 6.247-6.141 8.712-2.104 2.216-4.565 4.2-7.141 5.855-.35.224-.861.404-1 .857 4.074.161 8.553.035 12.566.048.662.002 1.334.103 1.953-.096.28-1.126.098-2.391.096-3.665z" fill-rule="evenodd"/></svg>