<svg enable-background="new 0 0 37.56 37.839" viewBox="0 0 37.56 37.839" xmlns="http://www.w3.org/2000/svg"><path d="m17.375.048c5.328-.392 10.802 1.636 14.544 5.468 3.706 3.652 5.829 8.9 5.628 14.105-.099 7.607-5.417 14.786-12.627 17.186-3.243 1.139-6.8 1.34-10.148.58-6.29-1.299-11.713-6.131-13.754-12.214-1.35-4.022-1.369-8.475.015-12.491 2.264-6.965 9.012-12.229 16.342-12.634zm.848 1.334c-6.553.155-12.792 4.378-15.365 10.409-3.047 6.481-1.448 14.739 3.751 19.659 4.813 4.852 12.602 6.391 18.875 3.663 3.409-1.434 6.33-3.997 8.229-7.167 2.46-4.062 3.114-9.158 1.769-13.71-.98-3.478-3.042-6.66-5.865-8.925-3.177-2.601-7.297-3.997-11.394-3.929z"/><path d="m10.579 9.962c3.155-.01 6.31-.001 9.464.014 3.479.031 6.874 2.129 8.367 5.295 1.432 2.956 1.101 6.731-.931 9.336-1.774 2.389-4.774 3.748-7.733 3.649-3.058-.048-6.125.066-9.178-.07.007-6.074.006-12.148.011-18.224zm1.488 1.408c-.159 4.703-.026 9.429-.074 14.142 4.353-4.028 8.421-8.387 12.679-12.524-1.902-1.56-4.431-1.711-6.782-1.606-1.941-.006-3.882-.001-5.823-.012zm8.405 7.841c.101-.023.202-.048.305-.072 2.349.122 4.713.018 7.067.063.048-1.946-.764-3.863-2.069-5.292-1.825 1.698-3.613 3.464-5.303 5.301zm-1.366 1.386c-2.118 1.936-4.089 4.055-6.181 6.029-.001.074-.002.149-.001.225 2.414-.021 4.828.004 7.242.002 3.534.009 6.941-2.674 7.542-6.198-2.853-.116-5.761-.048-8.602-.058z"/></svg>