<svg enable-background="new 0 0 77.977 39.822" viewBox="0 0 77.977 39.822" xmlns="http://www.w3.org/2000/svg"><path clip-rule="evenodd" d="m0 39.501c.048-.447.51-.742.809-1 5-4.332 9.91-9.067 14.947-13.424 1.07-1.171 2.566-2.447 3.904-3.666.248-.226 1.178-.957 1.189-1.286.016-.422-.945-1.056-1.236-1.333-.507-.48-.894-.829-1.334-1.238-.904-.809-1.688-1.74-2.57-2.57-4.658-4.483-10.179-9.178-14.947-13.948-.233-.232-1.237-.888-.238-1 .922-.103 2.02.048 3.047.048 7.141-.001 14.191.143 21.279.143 3.992 0 8.055-.079 12.043 0 4.062.081 8.09-.12 11.902 0 4.058.128 8.363-.324 11.996.143 7.059.908 11.668 4.843 14.662 9.949 1.549 2.64 2.523 5.722 2.523 9.759 0 3.989-1.002 7.12-2.57 9.759-2.994 5.032-7.744 8.896-14.853 9.759-3.672.446-7.699-.048-12.043.143-4.049.178-8.137-.191-12.236 0-4.004.186-8.088 0-12.091 0-8.126 0-16.183-.087-24.183-.238zm42.939-29.373c-1.459.56-2.709 1.513-3.713 2.619-.967 1.063-1.693 2.389-2.191 4.142-1.059 3.733.295 7.481 2.381 9.568 2.357 2.357 5.773 3.631 9.33 2.904 3.277-.67 5.871-2.905 7.047-5.665.576-1.356.949-3.203.809-5.141-.178-2.437-1.17-4.308-2.332-5.665-1.69-1.97-4.338-3.532-7.856-3.428-1.393.041-2.586.326-3.475.666z" fill-rule="evenodd"/></svg>