<svg enable-background="new 0 0 76.882 78.356" viewBox="0 0 76.882 78.356" xmlns="http://www.w3.org/2000/svg"><g clip-rule="evenodd" fill-rule="evenodd"><path d="m34.757.239c.252 1.343.144 2.81.144 4.253 0 4.225-.175 8.881 0 13.19 1.126.283 2.498.106 3.775.143.591.018 1.216.048 1.816.048.634 0 1.294.108 1.816-.143.19-1.338.096-2.805.096-4.253 0-4.183.087-8.751.191-13.047.646-.253 1.367-.143 2.055-.143 10.698 0 21.656.068 32.116.287.085 5.753.186 11.768.047 17.492-.103 4.279-.095 8.595-.095 13.143 0 1.448.113 2.894-.144 4.301-4.328.075-8.984.063-13.19-.144-.209-4.65-.048-10.102-.048-15.149 0-.641.135-1.766-.048-2.007-.198-.261-1.182-.191-1.672-.191-1.806 0-3.908-.077-5.496.096-.235 4.145-.191 8.584-.191 13.047 0 1.453.103 2.916-.143 4.206-8.72.199-17.47-.096-25.999-.095-2.867 0-5.743.016-8.555-.192-.324-5.299.141-11.663-.143-17.205-1.009-.254-2.267-.143-3.489-.143-1.229 0-2.476-.038-3.585.048-.242.631-.191 1.36-.191 2.055 0 2.194.003 4.399-.048 6.548-.071 2.946.16 5.956-.144 8.746-4.358.082-9.045.066-13.332-.099-.222-2.78-.096-5.695-.096-8.65 0-7.304.143-14.418.143-22.032 0-.672.033-1.378 0-2.15-.03-.718-.078-1.964.191-2.103.036-.045.087-.073.144-.096 11.67.034 23.058-.022 34.075.239z"/><path d="m13.633 43.347c.199 5.729-.141 11.617.096 17.157 1.017.25 2.32.143 3.585.143 1.264 0 2.568.107 3.584-.143.305-5.51-.063-11.693.287-17.157 2.787-.236 5.698-.048 8.602-.048 2.898 0 5.802.095 8.698.096 5.852 0 11.713.004 17.301.191.012 4.295.167 8.808 0 12.999-.057 1.427-.073 2.867.143 4.206 2.213.163 4.887.146 7.073.047.259-1.343.144-2.789.144-4.253 0-4.2-.016-8.853.191-12.952 4.347-.205 9.037-.048 13.191.096.181 2.813.096 5.778.096 8.698 0 8.191-.096 15.684-.096 23.944 0 .664.056 1.345-.143 1.959-8.573.091-17.331-.096-25.712-.096-2.17 0-4.292 0-6.452 0-.653 0-1.376.109-2.007-.144-.178-5.309.045-11.496-.048-17.014-.445-.335-1.104-.239-1.721-.239-1.78 0-4.011-.168-5.735.048-.323 5.673.001 11.53-.287 17.157-11.268.043-23.05.056-34.315-.142-.244-8.551 0-17.504 0-26.333 0-2.517-.03-5.067.048-7.599.024-.775.066-.748.526-.812.487-.069 1.043.02 1.577 0 1.531-.057 3.262.048 4.923.048 2.202 0 4.39-.114 6.451.143z"/></g></svg>