<svg enable-background="new 0 0 71.604 72.207" viewBox="0 0 71.604 72.207" xmlns="http://www.w3.org/2000/svg"><g clip-rule="evenodd" fill-rule="evenodd"><path d="m71.485.343c.269 18.188 0 35.739 0 53.684 0 6.025.049 12.065-.15 17.995-1.331.182-2.81.114-4.349.149-4.395.102-8.838-.05-13.296-.05-16.753-.002-32.374-.15-49.236-.149-1.466 0-2.955.121-4.398-.15-.149-20.403.05-42.03.05-62.981 0-2.067 0-4.406 0-6.799 0-1.099-.166-1.885.5-1.999.621-.107 1.462.023 2.199 0 1.832-.058 4.284.05 6.498.05 20.68.003 42.036.122 62.182.25zm-67.881.5c-.75 0-1.596-.117-2.199 0-.465.09-.477.188-.5.85-.097 2.782 0 4.923 0 7.548 0 11.697-.1 24.075-.1 35.54 0 8.608-.149 17.31.05 26.242 1.408.272 2.876.15 4.298.149 7.464 0 14.658.05 21.994.051 8.729 0 16.931.099 25.592.1 5.85.001 11.731.13 17.745 0 .01-.056.055-.077.1-.1.14-11.792.149-23.645.15-35.39.001-9.811.289-20.613.05-30.492-.034-1.41.229-2.833-.1-4.198-22.029-.15-44.689-.297-67.08-.3z"/><path d="m63.487 1.942c.045 3.889.213 8.028-.05 11.797-.939.211-1.987.128-3.049.149-3.092.061-6.681-.068-9.747-.149-.153-3.825-.167-8.063.05-11.847 4.194-.184 8.779-.207 12.796.05z"/><path d="m36.095 17.838c.409-.661-.049-1.974.3-2.749 3.958-.197 8.528-.08 12.596.05.286 1.329.15 2.8.15 4.249 0 7.49-.01 14.696-.05 22.043-.016 2.941.091 5.884-.15 8.698-3.023.213-6.359.05-9.547.05-1.047-.001-2.136.108-3.099-.15-.341-.492.027-1.692-.25-2.249-.681.059-1.203.5-1.75.8-1.61.882-3.583 1.652-5.899 1.899-3.275.35-6.502.008-9.047-1.05-4.68-1.944-8.468-5.739-10.247-10.597-1.026-2.802-1.328-6.148-.8-9.147.517-2.934 1.629-5.332 3.049-7.348 2.767-3.931 7.398-7.055 13.546-7.448 3.665-.234 6.398.701 8.847 1.8.889.278 1.443.89 2.351 1.149zm-8.598 6.847c-3.781.451-6.295 3.174-6.798 6.748-.366 2.598.655 5.106 2.199 6.599 1.55 1.496 3.818 2.559 6.648 2.299 1.879-.172 3.683-1.259 4.799-2.499 1.167-1.297 2.125-2.993 2.149-5.148.029-2.594-.978-4.426-2.549-5.898-1.423-1.39-3.646-2.434-6.448-2.101z"/><path d="m63.437 15.188c.21 5.675.1 11.589.1 17.545 0 5.835.029 11.772-.2 17.445-4.049.163-8.712.082-12.796-.05-.113-8.62-.082-17.806 0-26.593.013-1.392-.047-2.775 0-4.148.049-1.439-.161-2.9.15-4.299 4.25-.072 8.709-.123 12.746.1z"/><path d="m18.949 51.578c.224.458.128.868.25 1.35.94 3.725 5.389 5.957 9.697 5.648 2.221-.159 4.356-1.164 5.599-2.549 1.03-1.148 1.524-2.559 1.799-4.399 4.068-.16 8.709-.099 12.696.101.132 2.873-1.051 5.272-2.149 7.247-2.108 3.358-4.89 6.286-8.547 8.198-3.597 1.879-8.462 3.055-13.846 1.899-6.587-1.414-11.393-5.581-14.096-11.047-.929-1.878-1.713-4.035-1.799-6.448 3.197-.309 7.123-.108 10.396 0z"/></g></svg>