<svg enable-background="new 0 0 76.324 75.981" viewBox="0 0 76.324 75.981" xmlns="http://www.w3.org/2000/svg"><path clip-rule="evenodd" d="m57.645 18.705c2.099.443 4.051.652 5.832 1.338 5.042 1.939 8.982 5.445 11.185 10.275 1.486 3.26 2.199 8.057 1.195 12.189-.917 3.775-2.832 6.812-5.162 9.129-2.392 2.377-5.298 4.223-9.13 5.211-1.25.322-2.583.492-4.015.717-.304 1.435-.42 2.756-.765 4.016-1.013 3.701-2.928 6.514-5.353 8.938-1.554 1.553-3.416 2.807-5.689 3.824-2.164.969-5.017 1.756-7.887 1.625-6.009-.271-10.207-2.463-13.384-5.641-2.396-2.396-4.266-5.256-5.257-9.033-.325-1.238-.45-2.568-.765-3.967-2.847-.338-5.307-1-7.457-2.057-2.129-1.045-3.949-2.291-5.544-3.92-3.126-3.187-5.449-7.409-5.449-13.524 0-1.522.114-2.936.478-4.303.343-1.287.604-2.547 1.099-3.633.974-2.135 2.388-4.139 3.92-5.545 3.339-3.064 7.348-5.301 13.097-5.83.322-.629.279-1.322.382-1.961.74-4.557 2.809-8.162 5.497-10.85 2.384-2.383 5.224-4.1 8.986-5.066 1.293-.332 2.698-.551 4.206-.621 2.96-.141 5.817.668 8.078 1.625 6.743 2.851 10.942 8.482 11.902 17.064zm-7.026-5.498c-.716-1.488-1.772-2.973-2.963-4.014-2.373-2.076-5.742-4.01-10.133-3.777-3.859.205-7.021 1.912-9.177 4.111-2.189 2.232-3.896 5.113-4.063 8.938 3.615.373 7.648-.045 10.994.287.254 3.375-.109 7.205.143 10.803 1.197.233 2.74.096 4.062.096.482 0 .95.16 1.339-.096.174-2.574.143-5.305.143-8.078 0-.924-.113-1.891.144-2.725 2.579-.072 5.409.002 8.221 0 .94 0 1.889.113 2.725-.143.047-2.062-.688-3.849-1.435-5.402zm-26.433 10.852c-.19 1.699-.119 3.643-.048 5.4.753.248 1.782.143 2.772.143.994.002 2.035.16 2.772-.094.235-.967.096-2.129.096-3.203 0-.785.159-1.578-.096-2.199-1.501-.188-3.95-.233-5.496-.047zm-6.214 0c-3.905.553-6.748 2.053-8.938 4.443-2.041 2.228-3.918 5.574-3.728 9.656.187 4.004 1.78 7.133 4.015 9.369 2.25 2.248 5.038 3.961 9.129 4.205.282-.656.096-1.445.096-2.15 0-2.139.076-4.383.048-6.596-.009-.713-.014-1.482.191-2.15 2.628-.088 5.603-.049 8.27-.049.904 0 1.827.197 2.629-.096.13-1.592.215-3.934-.048-5.449-1.636-.316-3.546-.133-5.401-.191-1.909-.059-3.864.164-5.544-.191-.119-2.725 0-5.476 0-8.125 0-.91.147-1.898-.191-2.676-.204-.082-.4-.02-.528 0zm28.679.096c-.328.67-.191 1.715-.191 2.676 0 .996-.074 2.031.095 2.82 1.636.121 3.914.295 5.497 0 .239-1.582.148-3.709.048-5.354-1.475-.285-3.88-.14-5.449-.142zm11.328.093c-.085-.006-.166.043-.191.096-.308.408-.191 1.869-.191 2.678 0 2.016-.047 3.789-.047 5.592 0 .934.139 1.832-.144 2.582-3.332.158-7.364-.059-10.851.096-.249.748-.143 1.736-.143 2.725 0 .979-.076 2.017.096 2.82 1.634.258 3.564.143 5.449.143 1.907 0 3.828-.092 5.497.143.146 2.52.048 5.494.048 8.174 0 .922-.11 1.863.143 2.678 2.966-.027 5.391-1.24 7.361-2.629 1.986-1.4 3.543-3.268 4.588-5.498 1.08-2.301 1.653-5.6.956-8.555-.633-2.684-1.818-5.041-3.537-6.598-2.025-2.167-5.263-4.14-9.034-4.447zm-22.56 10.948c-.242.752-.143 1.777-.143 2.771 0 1.008-.103 2.057.143 2.82 1.589.139 3.771.172 5.354 0 .163-1.621.151-3.873 0-5.496-1.559-.261-3.9-.16-5.354-.095zm-11.233 11.087c-.417.647-.232 1.688-.191 2.629.043.994-.072 2.041.048 2.916.752.305 1.721.092 2.629.096 1.003.006 2.036.174 2.916-.047.239-.328.113-.766.096-1.195-.057-1.408.16-3.127-.096-4.254-1.64-.287-3.668-.166-5.402-.145zm11.185.096c-.235.812-.166 1.75-.144 2.678.043 1.805 0 3.682 0 5.545 0 .912.11 1.859-.143 2.676-2.591.186-5.514.004-8.222.049-.932.014-1.878-.168-2.725.096-.034 1.984.602 3.715 1.291 5.162 1.768 3.711 4.996 6.387 9.273 7.504 2.901.758 6.103.354 8.652-.67 2.34-.939 4.338-2.432 5.784-4.396 1.442-1.963 2.652-4.387 2.772-7.361-.795-.299-1.752-.191-2.677-.191-1.94 0-3.861.051-5.64 0-.925-.025-1.864.031-2.677-.191-.285-3.363.094-7.391-.191-10.754-1.359-.379-3.889-.153-5.353-.147zm11.28.049c-.057.023-.108.051-.143.096-.245.416-.144 1.877-.144 2.725 0 1.078-.073 2.027.096 2.725.731.248 1.746.143 2.725.143.992 0 2.025.1 2.772-.143.156-1.553.241-3.787 0-5.402-1.502-.314-3.57-.064-5.306-.144z" fill-rule="evenodd"/></svg>