<svg enable-background="new 0 0 53.421 76.063" viewBox="0 0 53.421 76.063" xmlns="http://www.w3.org/2000/svg"><g clip-rule="evenodd" fill-rule="evenodd"><path d="m27.939.047c2.229-.257 3.481.582 4.579 1.591.538.494.954.856 1.398 1.687 2.171 4.062-.874 8.873-5.35 8.677-2.463-.108-4.481-1.985-5.302-3.808-.598-1.326-.647-3.293.048-4.773.662-1.408 2.289-3.105 4.627-3.374z"/><path d="m30.735 14.459c.564.312.337 1.306.337 2.073 0 10.195-.097 20.646-.096 31.043 0 1.6-.244 3.403.048 4.724.154.697.84 1.521 1.253 2.217 2.567 4.316 5.25 8.431 7.857 12.678.411.67.699 1.583 1.494 1.928.758-.128 1.021-.876 1.302-1.446 1.508-3.067 3.072-5.965 4.627-9.11.576-1.164 1.446-2.607 1.446-4 0-1.086-.483-1.803-.964-2.507-.366-.565-1.208-.656-1.494-1.302 1.034-.153 2.288-.1 3.47-.048.857.037 3.128-.282 3.374.289.169.394-.418 1.298-.627 1.686-.56 1.046-1.155 2.062-1.687 3.134-.261.527-.627.991-.868 1.494-2.589 5.422-5.245 10.293-8.098 15.763-.31.595-.483.977-.819 1.59-.196.359-.577 1.373-.964 1.398-.469.031-1.081-1.381-1.398-1.88-1.28-2.013-2.467-4.125-3.663-6.074-1.725-2.809-3.463-5.337-4.772-8.194-.191-.416-.859-1.737-1.253-1.735-.415.004-.937 1.618-1.109 1.929-1.063 1.915-2.603 3.507-4.338 4.676-2.337 1.574-5.166 2.859-9.014 2.988-3.891.131-7.007-1.075-9.303-2.748-2.328-1.695-4.052-4.042-4.917-7.085-2.141-7.535 2.213-13.604 6.989-16.004 2.713-1.363 6.175-2.246 9.978-1.687 2.729.401 4.582 1.301 6.556 2.458.615.36 1.104.893 1.783 1.205.399-.292.127-1.255.337-1.735-.173-8.5-.114-17.014 0-25.451.509-.611 1.354-.818 2.121-1.156.805-.357 1.539-.848 2.412-1.111zm-20.631 28.344c-2.406 1.164-4.355 3.643-5.254 6.025-.718 1.9-1.051 4.452-.723 6.507.358 2.246 1.175 3.791 2.217 5.303 2.022 2.932 5.492 5.419 9.688 5.303 2.288-.064 4.094-.83 5.447-2.073 2.433-2.235 4.51-5.872 4.049-10.653-.194-2.015-.971-3.931-1.88-5.446-.935-1.559-2.31-3.045-4.049-4.098-1.649-.997-3.967-1.921-6.507-1.687-1.131.103-2.126.402-2.988.819z"/></g></svg>