<svg enable-background="new 0 0 77.426 79.241" viewBox="0 0 77.426 79.241" xmlns="http://www.w3.org/2000/svg"><g clip-rule="evenodd" fill-rule="evenodd"><path d="m7.801 38.471c-.202-1.213-.105-2.993-.052-4.291 1.823-.292 3.778-.104 5.74-.104 4.794.001 9.785.051 14.736.052 1.009 0 2.067.098 2.845-.104.937-.243 1.696-1.225 1.913-2.017.229-.837.102-2.04.102-3.206.001-6.616.106-12.479.053-19.235-.009-1.073.132-2.18-.155-3-.326-.93-1.087-1.675-2.224-1.861-1.03-.168-2.197-.009-3.31-.052-3.009-.113-6.277-.051-9.566-.052-4.536 0-8.933-.107-13.289 0-.022.046-.044.093-.103.104-.235 11.464-.207 23.074-.207 34.903 0 5.878.141 11.787-.103 17.582-.061 1.424.083 2.854.051 4.291-.059 2.725-.052 5.593-.051 8.636 0 1.42-.137 2.847.103 4.24 6.408.153 13.058.205 19.546.206 2.138.001 4.511.237 6.567-.051 1.219-.171 2.032-.884 2.379-1.914.272-.81.167-1.897.207-3.051.106-3.103-.079-6.346.052-9.515.123-2.992 0-6.507 0-9.928 0-1.132.1-2.341-.155-3.154-.271-.867-1.079-1.706-2.068-1.913-1.696-.354-3.911.033-5.844-.052-5.683-.249-11.871.164-17.219-.207-.147-1.196-.224-3.177.052-4.291 6.621-.174 12.836 0 19.649 0 2.187-.001 4.593-.267 6.309.361 1.602.586 2.766 1.738 3.361 3.361.59 1.608.362 3.878.361 6.205 0 6.841-.052 12.988-.052 19.805 0 2.416.067 4.498-.724 5.946-.756 1.384-2.144 2.524-3.826 2.844-1.861.354-4.349.116-6.516.052-8.479-.251-17.759.24-26.269-.207-.043-9.702-.192-19.828 0-29.474.197-9.844.053-19.843.053-29.888 0-4.85.009-9.869.103-14.686.013-.616.044-1.484 0-2.431-.036-.801-.133-2.046.156-2.272.038-.048.094-.078.156-.103 10.116.058 19.669.102 29.577.103 1.085 0 2.156-.051 3.052.155 1.67.384 3.01 1.471 3.775 2.895.77 1.435.672 3.66.672 5.998.001 6.515-.104 13.079-.104 19.649 0 2.331.208 4.738-.413 6.257-.677 1.65-1.734 2.649-3.361 3.258-1.575.59-4.242.455-6.205.361-6.592-.311-13.327.206-19.754-.205zm23.527-.931c2.399-.057 4.039-1.103 4.758-2.895.338-.846.354-2.116.361-3.414.042-7.888.052-15.16.052-22.906 0-1.323.11-2.646-.155-3.672-.356-1.379-1.427-2.427-2.533-2.947-1.522-.715-5.163-.432-7.395-.465-2.643-.04-5.364 0-7.911 0-5.522 0-11.721-.192-17.013.052-.279 3.137-.155 6.317-.155 9.514.001 22.551-.311 44.191-.102 66.911 1.982.28 4.023.156 6.05.155 6.056-.001 12.528.104 18.356.104 2.164 0 4.229.12 6.205 0 1.886-.114 3.067-1.053 3.826-2.43.782-1.42.62-3.42.621-5.637 0-6.273.051-12.355.051-18.563 0-2.153.232-4.364-.104-6.05-.342-1.72-1.38-2.835-2.896-3.361-1.573-.546-3.892-.311-5.894-.311-5.368 0-10.379-.051-15.564-.051-.988 0-2.01-.114-2.947.103-.173.46-.162 1.555 0 2.017 6.66.218 14.032.121 20.787.155 2.261.012 3.768 1.021 4.292 2.741.31 1.019.154 2.288.154 3.567.001 5.574-.051 10.881-.051 15.979 0 2.209.266 4.517-.103 6.411-.222 1.134-.931 2.018-1.759 2.534-.977.61-2.175.62-3.671.62-8.611.002-16.938-.003-25.44-.206-.208-22.934.103-44.809.102-67.532 0-1.481-.124-2.986.155-4.447 6.805-.145 13.751.001 20.58 0 2.135 0 4.862-.253 6.878.052 1.676.255 2.993 1.409 3.361 3.051.2.895.103 1.998.103 3.102 0 5.2-.05 10.691-.103 15.927-.022 2.076.22 4.189 0 6.153-.027.239-.152.612-.207.776-.584 1.744-1.958 2.688-4.292 2.688-6.792.001-14.28-.101-20.735 0-.237.41-.252 1.66 0 2.068 7.614.031 14.809.386 22.338.207z"/><path d="m77.246.31c.332.735.101 1.561.104 2.327.019 5.314-.052 11.217-.052 17.116 0 19.926-.038 39.567-.259 59.361-2.979.198-6.137.104-9.256.104-6.348-.002-12.142.047-18.356-.052-1.665-.026-3.445.108-4.706-.052-2.574-.325-4.374-2.084-4.86-4.602-.245-1.269-.155-2.877-.155-4.551.001-8.019.104-15.483.104-23.269 0-4.023 2.39-6.155 6.516-6.154 7.516.003 15.539.008 23.269.155.173 1.201.169 3.091 0 4.292-5.565.236-11.548.052-17.012.052-1.899 0-3.85-.149-5.688 0-1.065.087-2.09.91-2.43 1.759-.292.726-.207 1.989-.207 3.153 0 6.578-.104 13.428-.104 19.443 0 1.065-.099 2.259.104 3.102.245 1.025 1.223 1.898 2.481 2.068 2.094.284 4.362.052 6.516.052 6.222.002 13.067.188 19.598-.052.279-1.404.155-2.874.155-4.291.001-21.626.275-43.553.104-65.36-1.039-.277-2.17-.155-3.258-.155-1.136 0-2.261 0-3.413 0-5.634-.001-10.983-.052-16.702-.052-1.172 0-2.431-.148-3.309.103-1.936.556-2.068 2.148-2.068 4.758-.001 6.674-.053 12.808-.052 19.545 0 1.156-.103 2.315.155 3.104.277.852 1.073 1.709 2.171 1.913.879.163 1.889.008 2.896.052 4.717.206 9.831.053 14.531.052.972-.001 1.942.096 2.895.052.903-.043 1.832-.192 2.688.103.167 1.322.148 3.006 0 4.292-7.209.225-14.372.052-21.304.052-1.489 0-2.98.104-4.137-.207-2.237-.602-3.797-2.188-4.24-4.446-.276-1.408-.104-3.195-.104-4.913 0-6.695.052-13.069.052-19.7 0-1.681-.157-3.415.155-4.81.618-2.759 2.666-4.141 5.636-4.498 1.231-.148 2.621-.01 3.931.052 3.902.182 7.996 0 11.944 0 5.33-.001 10.607-.075 15.667.102zm-4.499 1.085c-3.764 0-7.255-.032-10.91-.052-4.729-.024-10.176-.215-14.789 0-1.638.077-2.797.021-3.826.673-.832.526-1.628 1.372-1.965 2.533-.526 1.814-.207 4.756-.207 7.085 0 4.96-.052 9.735-.052 14.53 0 2.428-.222 4.876 0 7.238.211 2.252 1.994 4.012 4.396 4.189 2.484.184 5.247 0 7.859 0 3.799 0 7.634.052 11.428.052 1.237 0 2.537.126 3.774-.155.21-.463.213-1.443.052-1.965-1.762-.274-3.63-.155-5.532-.155-3.858.001-7.511 0-11.428 0-1.706.001-4.098.202-5.533-.206-1.228-.35-2.542-1.546-2.792-3.102-.149-.926-.003-1.987-.052-3.051-.049-1.045.032-2.129.052-3.102.105-5.312-.138-10.826 0-15.927.029-1.087-.051-2.217.104-3.154.457-2.794 2.762-3.417 6.204-3.258 2.742.128 5.738.053 8.429.052 4.241-.001 8.527.03 12.462 0 1.319-.01 2.63-.074 3.879.155.06 22.748-.156 45.787-.155 67.636 0 1.448.109 2.918-.155 4.343-8.202.152-16.811-.001-25.079 0-1.525.001-2.733.06-3.723-.465-.887-.472-1.649-1.276-1.965-2.275-.255-.807-.155-1.997-.155-3.154-.001-5.859.052-10.862.052-16.495 0-1.975-.302-4.874.155-6.516.323-1.162 1.109-2.176 2.326-2.637 1.436-.543 3.59-.259 5.481-.259h5.843c4.111 0 8.003.113 11.531-.104.16-.469.167-1.497 0-1.965-2.122-.269-4.529-.155-6.98-.155-4.868 0-9.669-.049-14.427-.052-1.251 0-2.311-.012-3.258.362-.884.35-1.519.878-2.017 1.654-1.07 1.2-.826 3.525-.879 5.74-.188 7.822-.052 15.188-.052 22.752 0 1.52.127 2.759.775 3.774.575.9 1.526 1.642 2.689 1.913 1.132.265 2.52.155 3.878.155 4.028 0 7.723.054 11.686.052 4.732-.002 9.486.002 14.116 0 .613 0 1.322.12 1.913-.155.294-24.864.292-51.507.259-76.374-1.104-.313-2.287-.155-3.412-.155z"/></g></svg>