<svg clip-rule="evenodd" fill-rule="evenodd" stroke-linejoin="round" stroke-miterlimit="2" viewBox="0 0 560 400" xmlns="http://www.w3.org/2000/svg"><path d="m277 499.8c8.6.8 17.4 1.3 26.2 1.3 101.8-.1 190.4-56.7 236.1-140.1-13.1 2.6-26.6 4-40.4 4-84.7 0-157.3-52-187.6-125.8-35.5 42.8-56.8 97.7-56.8 157.6 0 36.7 8 71.6 22.5 103zm-241.8-244c26.9 43.6 75.1 72.7 130 72.7 29.6 0 57.2-8.4 80.6-23-9.9 28-15.3 58.1-15.3 89.4 0 35.7 7 69.8 19.6 100.9-115.5-23.1-204.4-120.4-214.9-240zm293.1-35.1c24.3 70.9 91.5 121.9 170.6 121.9 18.4 0 36.2-2.8 53-7.9 13.1-31.7 20.3-66.4 20.3-102.7 0-22.5.3-51.1 0-72v.1c-22.4-6.7-46.2-10.3-70.8-10.3-67.4-.1-128.5 27-173.1 70.9zm-324.3-220.7h225.6c37 1.4 66.6 31.9 66.6 69.2v106.3c0 72.3-58.7 131-131 131s-131-58.7-131-131v-133.4c-.1-17.6-13.4-32.1-30.5-33.9-2.1-.2-3.7-2-3.7-4.1v-.1c0-1 .4-2.1 1.2-2.8.7-.8 1.7-1.2 2.8-1.2zm451.6 188.1c-26 0-47 21.1-47 47 0 26 21.1 47 47 47 26 0 47-21.1 47-47s-21-47-47-47zm0 22.3c13.7 0 24.8 11.1 24.8 24.8s-11.1 24.8-24.8 24.8-24.8-11.1-24.8-24.8c.1-13.7 11.1-24.8 24.8-24.8zm-70.7-210.4c-37 1.4-66.6 31.8-66.6 69.2v126.9l66.6-51.4zm187.3 135.8-19.6-4.7c-17.2-3.5-34.9-5.3-53.1-5.3-20.4 0-40.3 2.3-59.4 6.6l132.1-102zm-441.7-99.3c-26 0-47 21.1-47 47 0 26 21.1 47 47 47 26 0 47-21.1 47-47 .1-25.9-21-47-47-47zm344.7 38.5v-75h-67.6v125.8h1.7zm-344.7-16.2c13.7 0 24.8 11.1 24.8 24.8s-11.1 24.8-24.8 24.8-24.8-11.1-24.8-24.8c.1-13.8 11.2-24.8 24.8-24.8zm441.8-58.8-74.6 57.6v-57.6z" transform="matrix(.471753 0 0 .471753 145 81.8023)"/></svg>