<svg enable-background="new 0 0 72.349 64.899" viewBox="0 0 72.349 64.899" xmlns="http://www.w3.org/2000/svg"><g clip-rule="evenodd" fill-rule="evenodd"><path d="m44.007 17.526c.25.783 2.373 1.042 3.117.307.68-.673.888-3.18 1.124-4.293.646-3.04 1.112-5.62 1.941-8.89.363-1.431.567-3.613 1.432-4.139.692-.422 2.806-.153 3.934-.153 2.607 0 5.083.051 7.971.051 1.142 0 3.376-.229 3.781.408.344.541-.159 2.064-.307 2.861-.192 1.043-.482 1.831-.664 2.811-.901 4.854-2.033 9.389-2.913 14.461-.179 1.036-.559 2.013-.408 2.963.134.839.743 1.79 1.124 2.657 2.283 5.197 4.7 10.127 7.153 15.227.37.768 1.244 2.143 1.021 2.759-.285.792-2.781.511-3.832.511-3.684.001-7.172-.051-10.781-.051-.753 0-1.713.042-2.196-.153-1-.404-1.63-2.354-2.147-3.525-.589-1.337-1.326-2.552-1.891-3.731-.92-1.922-1.728-3.733-2.708-5.723-.346-.701-.676-1.416-1.175-1.635-.808-.354-2.894-.197-3.321.102-.814.57-.503 3.344-.562 4.753-.202 4.804.103 9.784-.052 14.255-.056 1.614.075 3.188.052 4.752-.05 3.292.021 6.084-1.533 7.971-.672.816-1.545 1.711-2.657 2.146-1.602.627-3.773.612-5.773.613-.918 0-2.186.085-3.168.051-.906-.031-2.462.091-2.913-.46-.416-.509-.147-3.334-.152-4.241-.024-4.339.042-8.838-.103-12.723-.165-4.42-.001-8.05 0-12.773 0-1.814.332-4.146-.716-4.649-1.716-.18-4.178-.154-6.335-.154-.836 0-1.818-.025-2.197.307-.683.846-.72 2.216-.767 3.476-.101 2.679-.465 4.913-.767 7.664-.128 1.168-.103 2.936-.868 3.321-.739.371-2.914.102-3.935.102-2.885 0-4.895-.051-8.022-.051-1.287 0-3.253.199-3.679-.511-.276-.462.015-1.909.102-2.76.688-6.628 1.231-12.683 2.095-19.16.84-6.29 1.489-12.478 2.352-18.908.191-1.428.081-3.067 1.379-3.27 1.413-.221 3.197-.025 4.804.051 1.588.075 3.258 0 4.803 0 7.79.001 15.278.103 23.555.103 1.501 0 4.059-.245 4.548.613.412.723.2 2.897.153 4.139-.16 4.231-.047 8.635.101 12.518zm22.533 21.46c-.986-2.121-1.874-4.186-2.912-6.285-1.011-2.044-2.011-4.185-3.015-6.183-.347-.689-.812-1.509-.92-2.146-.146-.859.202-1.942.409-2.811.203-.854.358-1.746.511-2.555.838-4.446 1.697-8.272 2.605-12.672.161-.777.584-2.004.307-2.555-.303-.602-1.191-.493-2.095-.511-1.975-.039-3.294.006-5.059-.051-.931-.03-1.87-.02-2.35.307-.47.318-.693 1.297-.869 2.095-.896 4.073-1.646 7.57-2.401 11.547-.239 1.261-.402 3.808-1.328 4.292-.49.257-1.309.106-2.096.102-.745-.004-1.483 0-2.196 0-1.444 0-3.474.168-4.037-.357-.481-.449-.307-1.349-.307-2.452 0-3.147.078-6.12.103-8.891.006-.701-.103-1.428-.103-2.147 0-1.415.252-3.637-.255-4.292-.484-.625-2.394-.46-3.68-.46-7.253-.001-13.017.1-20.233.102-1.3 0-2.642.051-4.189.051-1.059 0-3.184-.283-3.986.153-.768.421-.727 1.573-.868 2.66-.104.807-.216 1.678-.306 2.35-.642 4.83-1.088 9.37-1.839 14.103-.503 3.166-.842 6.269-1.125 9.504-.19 2.182-.528 4.822-.766 7.204-.081.81-.273 2.015 0 2.402.487.69 3.362.408 4.649.408.839 0 1.587.03 2.452 0 .842-.029 1.728.042 2.146-.204.848-.499.756-2.276.869-3.475.253-2.699.577-5.11.868-7.817.12-1.114.168-3.057.767-3.577.619-.539 2.851-.307 4.087-.307 2.819.001 4.758.051 7.511.052 1.156 0 3.014-.118 3.476.408.47.538.286 2.536.255 3.526-.112 3.585.068 7.002 0 10.474-.102 5.259.053 11.148 0 16.862-.015 1.618-.283 3.474.664 3.934 3.602.326 7.546.522 8.84-2.044.607-1.205.589-2.823.562-4.599-.085-5.654.051-11.121.052-16.452 0-2.833.119-5.545 0-8.175-.063-1.385-.265-2.97.562-3.628 1.909-.203 4.196-.099 6.183-.052.681.017 1.542-.039 1.993.153.443.19.872.989 1.175 1.636 1.553 3.306 2.983 6.351 4.548 9.605.562 1.172 1.127 3.102 2.196 3.475.663.23 1.699.103 2.606.103 1.814-.001 3.37 0 5.212 0 .787-.001 1.767.139 2.095-.613.064-.81-.443-1.501-.768-2.197z"/><path d="m28.116 9.043c1.104.986 1.96 1.768 2.351 3.373.338 1.387.204 2.67.205 4.547 0 1.378.311 3.703-.358 4.241-.522.42-2.501.308-3.628.255-2.628-.122-4.802-.051-7.613-.051-1.107 0-2.861.17-3.219-.613-.237-.521.145-2.306.256-3.219.295-2.448.524-3.967.817-6.54.115-1.018.161-2.474.868-2.811.537-.255 1.592-.069 2.3-.102 2.761-.128 6.222-.207 8.021.92zm-5.058 8.891c1.42-.024 2.785.098 3.781-.102.682-.226.671-1.56.665-2.3-.009-.906-.062-1.684-.307-2.248-.68-1.561-2.65-2.131-4.65-1.891-.465.057-1.233-.061-1.737.103-1.011.328-1.003 1.861-1.124 3.168-.088.947-.254 1.858-.204 2.605.402.93 2.228.689 3.576.665z"/></g></svg>