<svg enable-background="new 0 0 72.452 74.837" viewBox="0 0 72.452 74.837" xmlns="http://www.w3.org/2000/svg"><g clip-rule="evenodd" fill-rule="evenodd"><path d="m27.416 74.639c-.279-2.911-.121-6.021-.142-9.045-.012-1.466-.049-2.982-.049-4.475 0-1.507-.205-3.01.096-4.428.748-.061 1.385.366 2.047.572 2.027.628 4.498 1.006 7.141.809 6.545-.487 10.859-3.331 14.281-7.141 1.688-1.877 3.121-4.319 3.951-6.76.965-2.834 1.342-6.186.953-9.378-.387-3.177-1.432-5.751-2.762-7.95-2.66-4.396-6.654-7.85-11.996-9.426-3.025-.893-6.6-1.023-9.568-.429-2.936.588-5.438 1.793-7.521 3.189-2.096 1.402-3.955 3.298-5.381 5.332-1.488 2.125-2.483 4.604-3.189 7.521-.725 2.996-.475 6.711-.475 10.235 0 8.52.047 17.506.047 26.373 0 .881.031 1.747.049 2.618.016.802.041 1.655-.144 2.428-4.744.131-9.727.238-14.471.047-.256-.721-.143-1.498-.143-2.236-.003-8.695-.05-17.195-.05-25.705 0-15.408-.203-30.664 0-46.558 4.844-.128 9.594-.142 14.33-.142 3.557 0 7.076-.048 10.758-.048h8.855c1.73 0 3.418-.095 4.998 0 3.125.188 5.894.938 8.426 1.81 4.986 1.716 9.295 4.309 12.854 7.616 5.23 4.862 9.199 11.274 11.234 19.471 1.391 5.595 1.105 12.733-.334 18.232-.705 2.7-1.641 5.255-2.809 7.427-2.467 4.59-5.369 8.274-9.043 11.425-3.623 3.106-7.98 5.755-13.234 7.235-2.555.72-5.553 1.5-8.713 1.429-3.185-.072-6.56.212-9.996-.048z"/><path d="m34.557 21.274c2.496-.253 4.484 1.015 5.475 2.38.195.27.56.893.809 1.618 1.537 4.507-2.104 8.351-6.141 8.046-2.061-.156-3.854-1.524-4.762-3.095-.869-1.506-.945-4.16-.143-5.713.741-1.425 2.34-2.991 4.762-3.236z"/><path d="m44.887 31.413c2.816-.323 5.066 1.325 6.045 3.048.594 1.043.816 2.143.715 3.475-.211 2.77-2.279 4.764-4.475 5.332-3.699.956-6.889-1.869-7.428-4.618-.279-1.432.008-2.971.619-4.094.68-1.248 2.305-2.887 4.524-3.143z"/><path d="m24.75 31.557c2.826-.093 5.006 1.699 5.76 3.855 1.799 5.146-3.418 9.745-8.045 7.569-1.746-.82-3.352-2.687-3.524-5.094-.109-1.525.566-3.041 1.238-3.903.984-1.264 2.316-2.353 4.571-2.427z"/><path d="m35.032 36.174c.709-.038 1.238.529 1.238 1.191 0 1.54-2.375 1.527-2.428.048-.023-.697.52-1.202 1.19-1.239z"/><path d="m34.461 41.411c3.035-.324 5.539 1.603 6.332 3.761 1.56 4.252-1.695 8.235-5.379 8.331-2.406.061-4.342-1.315-5.332-2.857-.713-1.107-1.197-2.917-.811-4.665.221-.987.705-1.724 1.143-2.285.846-1.084 2.239-2.092 4.047-2.285z"/></g></svg>