<svg enable-background="new 0 0 74.974 63.767" viewBox="0 0 74.974 63.767" xmlns="http://www.w3.org/2000/svg"><g clip-rule="evenodd" fill-rule="evenodd"><path d="m44.754.117c.211 10.397.15 21.157.151 31.889 0 10.848.104 21.227-.051 31.536-.838.323-1.776.202-2.67.202-13.925-.001-28.445.107-42.064-.151-.082-14.562-.223-29.601 0-44.332 1.203-.285 2.5-.043 3.778-.101 3.687-.167 7.859-.001 11.938 0 5.352.001 10.809.081 15.97-.102.268-.688.151-1.5.151-2.267 0-4.732 0-9.479 0-14.407 0-.667-.101-2.05.151-2.268.036-.047.092-.076.151-.101 4.132.068 8.531-.132 12.495.102zm-32.141 31.94c-.316.661-.24 1.472-.252 2.216-.035 2.338.051 4.828.051 7.305v4.888c0 1.71-.122 3.4.15 4.886 1.384.229 2.917.109 4.484.102 3.24-.019 6.65.05 9.924.05 1.716 0 3.369.121 4.836-.151.185-3.106.101-6.447.101-9.723.001-3.299.04-6.559-.15-9.522-6.158-.196-12.944-.098-19.144-.051z"/><path d="m63.545 30.949c3.948-.167 6.752 1.583 8.614 3.627 1.73 1.899 3.395 5.332 2.619 9.169-.656 3.251-2.446 5.7-4.987 7.254-2.589 1.584-6.421 2.2-9.823.856-1.969-.777-3.519-2.131-4.686-3.728-1.209-1.656-2.092-3.658-2.115-6.298-.023-2.518.866-4.865 2.015-6.397 1.211-1.615 2.786-2.924 4.686-3.728.975-.414 2.31-.698 3.677-.755z"/></g></svg>