<svg enable-background="new 0 0 80.38 79.274" viewBox="0 0 80.38 79.274" xmlns="http://www.w3.org/2000/svg"><g clip-rule="evenodd" fill-rule="evenodd"><path d="m58.312 7.525c1.098-.034 1.647-1.263 2.816-1.263.844.001 2.18 1.215 2.767 1.651 1.754 1.303 3.175 2.496 4.758 4.078.613.613 1.808 1.543 1.942 2.428.157 1.034-.891 1.786-.874 2.719.233 1.02 1.001 1.665 1.505 2.427 1.035 1.567 1.923 3.125 2.816 5.001.354.744.687 2.154 1.263 2.622.741.601 2.296.26 3.059.874.51.41.709 1.568.922 2.428.243.976.494 1.911.631 2.719.17 1 .198 2.036.291 3.059.092 1.007.357 2.109-.048 3.01-.553.968-2.181.862-2.573 1.991-.304 2.837-.452 5.634-1.214 8.254-.238.818-.688 1.829-.631 2.524.089 1.097 1.623 1.854 1.748 2.816.128.994-.724 2.209-1.117 2.961-.516.988-.914 1.74-1.408 2.622-.437.779-1.044 1.49-1.651 2.428-.405.627-1.043 1.994-1.894 2.136-1.015.17-1.805-.557-2.816-.34-1.046.225-1.252 1.279-2.185 1.796-1.307 1.347-2.739 2.569-4.321 3.642-.552.704-1.889.871-2.185 1.796-.282.881.291 1.663.048 2.573-.178.672-1.584 1.373-2.379 1.748-2.48 1.17-4.781 1.944-7.574 2.767-.561.165-1.379.36-1.845.243-1.151-.29-1.209-1.836-2.282-2.233-1.91-.191-3.95.435-5.923.243-1.342-.131-3.005-.146-4.418-.34-.521-.071-.956-.229-1.311-.146-1.145.267-1.101 2.066-2.282 2.379-3.09-.531-6.213-1.592-8.885-2.913-.745-.369-2.004-.845-2.282-1.603-.286-.778.052-1.869-.146-2.719-.546-.859-1.577-1.165-2.379-1.748-.807-.586-1.589-1.172-2.282-1.845-1.169-.945-2.121-1.821-3.204-3.01-.312-.343-.812-.808-1.165-.874-.936-.173-1.749.621-2.768.437-.796-.144-1.639-1.804-2.039-2.379-1.605-2.309-2.696-4.347-3.933-7.137-.231-.523-.57-1.105-.485-1.699.137-.961 1.649-1.615 1.796-2.622.097-.657-.345-1.554-.534-2.427-.383-1.767-.503-3.174-.777-5.098-.126-.894-.041-2.134-.291-2.768-.436-1.102-2.141-1.013-2.525-2.088.005-.066.009-.135-.048-.143.076-3.167.412-6.6 1.262-9.371.244-.794.581-2.075 1.117-2.428.71-.467 2.187-.19 2.816-.679.617-.48.96-1.478 1.359-2.379.409-.924.852-1.676 1.311-2.379.491-.753.86-1.458 1.457-2.282.458-.633 1.416-1.61 1.457-2.233.061-.939-1.052-1.698-.971-2.768.055-.727 1.475-1.892 1.942-2.33.789-.739 1.531-1.443 2.234-2.039 1.597-1.354 3.193-2.656 5.049-3.447 1.28.08 1.693 1.026 2.865 1.214.981-.161 1.83-.674 2.719-1.068 1.705-.755 3.468-1.409 5.487-1.991.942-.271 2.007-.351 2.719-1.02.489-.875.16-2.005.825-2.573.484-.413 3.206-.639 4.079-.68 2.216-.104 4.902-.052 6.992.292.933.153 1.858.069 2.331.631.634.754.284 2.234 1.117 2.816.599.419 1.926.546 2.719.777 1.741.508 3.437 1.214 5 1.942.787.366 1.574.771 2.426 1.018zm-9.371 2.476c-3.044-.789-6.611-1.496-10.536-1.311-9.835.465-16.53 4.909-21.558 10.148-3.844 4.03-6.75 9.161-7.962 15.683-.654 3.517-.644 7.485-.049 10.876.581 3.307 1.776 6.192 3.01 8.836 1.786 3.827 4.761 7.228 7.866 9.856 1.049.889 2.154 1.865 3.399 2.524 5.069 2.689 10.964 5.377 18.644 4.904 7.366-.453 12.666-2.894 17.382-6.264 3.353-2.396 6.298-5.762 8.351-9.371 2.154-3.787 3.762-8.125 4.175-13.546.274-3.584-.207-7.378-1.068-10.584-1.65-6.149-5.069-10.79-9.031-14.663-3.389-2.894-7.583-5.781-12.623-7.088z"/><path d="m44.183 11.749c.174 1.025.097 2.29.097 3.496 0 1.213.109 2.429-.146 3.399-2.369.055-5.402.164-7.671-.097-.277-1.433.002-3.742 0-5.341-.001-.492-.27-1.272.048-1.505.036-.045.088-.074.146-.097 2.497.06 5.255-.14 7.526.145z"/><path d="m44.135 22.431c.289 5.005.007 10.003.146 14.955 1.138.345 2.488.194 3.787.194 2.592-.001 5.271 0 7.914 0 1.312-.001 2.61-.11 3.787.145.182 4.24.097 8.98.097 13.546 0 1.507.117 3.025-.146 4.418-2.398.162-5.467.161-7.866 0-.263-1.429-.146-3.129-.146-4.807 0-1.665.078-3.373-.097-4.855-1.042-.273-2.322-.116-3.544-.146-1.258-.03-2.552-.057-3.69.097-.261.702-.146 1.549-.146 2.379v5.001c0 .812.111 1.641-.146 2.331-2.302.114-5.31.101-7.671-.048-.349-3.3.08-6.614-.243-9.808-2.23-.168-5.062-.241-7.332-.049-.258.714-.146 1.558-.146 2.379 0 2.373.079 5.119-.097 7.38-2.509.15-5.789.178-8.157 0-.145-5.934-.195-12.228.049-18.013 4.879-.31 10.689.127 15.683-.146.265-1.199.146-2.504.146-3.787 0-3.366 0-6.179 0-9.468 0-.607-.104-1.239.146-1.797 2.447-.048 5.37-.158 7.672.099z"/></g></svg>