<svg enable-background="new 0 0 15.384 10.782" viewBox="0 0 15.384 10.782" xmlns="http://www.w3.org/2000/svg"><path d="m.058.004c1.29.003 2.58.001 3.869.001 1.184-.016 2.37.371 3.32 1.079.155.113.307.232.438.373.951-.885 2.231-1.407 3.528-1.451 1.371-.006 2.743.007 4.114-.006-.001.084-.001.167 0 .25-1.384-.001-2.769 0-4.153 0-1.208.068-2.403.542-3.289 1.371.297.327.585.666.808 1.049.586-.544 1.331-.924 2.126-1.035.157-.038.32-.021.48-.043 1.342-.011 2.685.009 4.027-.01-.001.084 0 .168.001.253-1.36.001-2.719.001-4.079 0-.899.054-1.809.412-2.42 1.089.277.496.455 1.046.545 1.607.292-.685.955-1.188 1.69-1.297.137-.009.274-.038.412-.039 1.284.001 2.568.001 3.852 0-.001.088-.001.176 0 .264-1.359-.002-2.719-.002-4.078 0-.488.044-.961.27-1.292.633-.329.345-.505.817-.519 1.291.013.394.135.785.367 1.106.336.478.901.777 1.48.819 1.347.002 2.695 0 4.042.001-.001.084-.002.168-.001.253-1.107-.017-2.214-.003-3.321-.007-.375-.009-.756.032-1.124-.06-.33-.083-.648-.233-.905-.458-.149-.153-.321-.291-.43-.478-.067-.102-.115-.213-.173-.318-.08.567-.273 1.12-.539 1.627.697.703 1.694 1.085 2.681 1.061 1.271-.001 2.542.001 3.812-.001-.001.078-.001.155 0 .234-1.41-.003-2.819 0-4.229-.002-.66-.044-1.301-.276-1.856-.635-.193-.126-.364-.281-.543-.425-.222.39-.506.741-.819 1.06.737.699 1.701 1.144 2.7 1.312.271.049.546.053.82.079 1.309.002 2.618.002 3.927 0-.001.077-.001.154 0 .231-1.385-.002-2.769-.001-4.153-.001-1.28-.054-2.534-.574-3.479-1.439-.944.859-2.188 1.38-3.464 1.44-1.392-.003-2.783.001-4.175-.003.003-.074.003-.149-.001-.223 1.127-.008 2.255-.002 3.382-.004.57.007 1.146-.017 1.703-.147.742-.169 1.445-.502 2.047-.968.12-.076.205-.195.33-.264-.335-.323-.61-.705-.855-1.1-.676.685-1.624 1.082-2.582 1.123-1.359-.002-2.718.001-4.077-.002 0-.085 0-.169-.002-.253.969.021 1.939.003 2.908.009.479-.007.959.019 1.437-.023.825-.098 1.618-.483 2.194-1.083-.211-.393-.361-.816-.466-1.249-.03-.105-.027-.218-.073-.319-.309.732-1.057 1.24-1.845 1.298-1.367 0-2.734.002-4.1-.002.003-.075.002-.15-.002-.225 1.305-.008 2.609 0 3.914-.004.34-.018.681-.092.979-.263.465-.263.823-.72.942-1.244.061-.209.038-.43.039-.644-.066-.532-.359-1.039-.803-1.344-.335-.242-.748-.368-1.16-.371-1.303 0-2.605 0-3.907 0 .001-.082 0-.163-.004-.245 1.316-.002 2.633 0 3.95-.002.84.002 1.662.527 1.994 1.303.115-.543.26-1.09.542-1.573-.631-.628-1.488-1.042-2.384-1.088-1.385 0-2.77.001-4.154 0 0-.087.001-.175 0-.263 1.347.003 2.694 0 4.04.001.358.03.717.072 1.06.186.583.184 1.123.507 1.559.936.231-.408.517-.786.857-1.109-.918-.828-2.126-1.33-3.363-1.373-1.367 0-2.733 0-4.1 0 .004-.082.004-.164.003-.246zm6.781 2.911c.369.436.678.943.805 1.506.04-.069.061-.145.084-.22.159-.498.447-.943.778-1.343-.221-.393-.504-.746-.817-1.066-.328.338-.614.715-.85 1.123zm.976 2.884c.073.69.381 1.346.831 1.871.734-1.402.732-3.169-.01-4.568-.624.736-.959 1.735-.821 2.697zm-1.113-2.647c-.226.52-.416 1.062-.473 1.628-.133.978.058 1.988.49 2.873.297-.374.542-.796.674-1.258.334-1.106.07-2.372-.691-3.243zm.944 3.271c-.15.541-.433 1.041-.8 1.464.236.402.517.777.847 1.106.321-.32.598-.685.826-1.078-.377-.443-.705-.952-.833-1.527-.01.009-.03.027-.04.035z"/><path d="m1.495 3.859c.48-.035.965.164 1.292.516.241.292.411.662.389 1.048.026.615-.4 1.187-.954 1.423-.591.257-1.337.118-1.778-.356-.506-.487-.591-1.336-.195-1.916.269-.418.749-.694 1.246-.715z"/><path d="m13.685 3.858c.425-.027.862.115 1.179.402.288.259.485.623.512 1.012.053.47-.142.945-.476 1.272-.194.158-.408.302-.653.366-.448.13-.953.059-1.343-.2-.447-.279-.708-.805-.711-1.327.02-.273.092-.545.24-.778.269-.427.743-.724 1.252-.747z"/></svg>