<svg enable-background="new 0 0 71.824 74.32" viewBox="0 0 71.824 74.32" xmlns="http://www.w3.org/2000/svg"><path clip-rule="evenodd" d="m0 74.227c.041-.812.404-1.6.666-2.381.263-.784.434-1.603.714-2.38.564-1.562 1.002-3.147 1.62-4.618 5.586-.151 11.317-.142 17.09-.143 7.171 0 14.336.001 21.375 0 1.485 0 2.921.015 4.285-.047 2.632-.119 5.017-.772 7.093-1.619 2.065-.842 4.039-1.729 5.569-3.142 1.119-1.033 2.126-2.181 2.904-3.618.238-.44.567-.954.524-1.523-.513-.195-.941.305-1.285.523-2.843 1.803-6.026 3.008-9.95 3.903-2.179.498-4.602.666-7.236.667-12.393.004-26.162.015-38.512-.048.061-.868.441-1.693.714-2.522.269-.815.587-1.62.857-2.428.554-1.654.999-3.336 1.714-4.856 4.644-.135 9.432-.142 14.187-.143 7.267-.001 13.936.001 21.041 0 2.411 0 4.891.116 7.045-.143 2.005-.241 4.022-.68 5.903-1.286.88-.282 1.721-.537 2.57-1.047.61-.366 1.926-1.015 2-1.571.082-.617-.534-1.393-.952-1.903-.415-.509-.926-1.265-1.523-1.333-.651-.075-1.756.47-2.523.714-2.331.742-5.25 1.573-7.902 1.809-3.902.347-8.724.143-12.806.144-8.668 0-17.048.099-25.326-.048.019-.838.455-1.633.762-2.476.599-1.643 1.08-3.158 1.666-4.903.26-.773.511-1.975 1.143-2.285 11.695-.173 23.216-.094 35.18-.095.833-.001 1.741-.084 1.809-.524.075-.479-.853-.931-1.38-1.142-1.785-.716-4.015-1.254-5.951-1.618-5.726-1.077-11.753-1.57-18.614-1.571-2.388 0-4.972-.06-7.521.048-.68.028-1.66.265-1.857-.523.163-1.068 1.306-.762 2.047-.762 2.611 0 5.659-.047 8.236-.048 8.834-.001 17.478.865 24.183 3.237.625.221 1.313.488 1.952.81.619.312 1.35.953 1.999 1 1.01.071 2.56-.787 3.332-1.143 2.582-1.189 4.307-2.866 6.188-4.903.334-.363.812-.948.81-1.381-.004-.632-1.015-1.471-1.523-1.999-1.689-1.759-4.005-3.142-6.188-4.237-3.233-1.621-6.72-2.646-10.473-3.428-6.523-1.359-14.247-1.896-22.47-1.809-.589.006-2.778.261-2.856-.429-.096-.847 1.907-.686 2.618-.666 1.055.028 2.288 0 3.142 0 15.128-.001 27.814 2.345 36.704 8.616.819.237 1.149 1.36 2.095 1.333.9-.026 1.438-1.716 1.666-2.571 1.057-3.969-.763-7.656-2.285-9.901-2.237-3.299-5.958-5.525-9.711-7.141-1.931-.831-4.028-1.631-6.284-2.143-2.289-.52-4.782-.818-7.378-1.047-2.576-.228-5.296-.256-7.998-.429-2.012-.129-3.98-.147-6.093-.048-.536.025-1.305.138-1.714-.381.192-.858 1.917-.599 3.047-.571 2.258.055 4.523-.011 6.76.048 6.111.16 11.855.711 16.566 2.333 2.382.819 4.653 1.624 6.76 2.665 4.185 2.069 7.704 5.021 10.092 8.808 1.803 2.858 2.901 7.107 2.047 11.567-.12.623-.211 1.305-.381 2-.133.543-.482 1.294-.476 1.857.004.395.301.908.476 1.285 1.287 2.766 2.196 6.225 1.714 10.235-.127 1.06-.411 1.901-.761 2.761-.725 1.779-1.334 3.116-2.428 4.617-.447.614-1.307 1.279-1.476 2.048-.2.912-.009 1.927-.048 2.761-.043.931-.056 1.767-.238 2.618-.326 1.525-.936 2.929-1.571 4.142-2.599 4.965-6.598 8.593-11.759 11.188-2.544 1.278-5.31 2.339-8.474 2.951-3.42.663-7.431.261-11.139.238-11.124-.067-22.571.274-33.803.047zm67.98-39.18c.017-.579.034-2.194-.619-1.713-.831 1.13-1.541 2.692-2.809 4.094-.481.531-1.057 1.145-1.714 1.714-.478.414-1.739 1.104-1.761 1.666-.019.477.648 1.091.952 1.475.403.51.626 1.032 1.285 1.143.85-.229 1.158-1 1.809-1.428 1.409-1.394 2.773-4.108 2.857-6.951z" fill-rule="evenodd"/></svg>