<svg enable-background="new 0 0 169.185 119.786" viewBox="0 0 169.185 119.786" xmlns="http://www.w3.org/2000/svg"><g clip-rule="evenodd" fill-rule="evenodd"><path d="m54.593 0c9.625.014 18.878.046 28.173.142.076-.014.081.044.142.047.277 6.133.094 12.47.094 18.782v25.011c0 1.021-.104 2.062-.047 3.068.057 1.015.065 2.035.047 3.02-.155 8.275-.046 17.188-.047 25.341 0 8.438-1.677 15.136-4.578 20.906-2.822 5.614-6.678 10.2-11.326 14.157-1.114.948-2.421 1.812-3.729 2.643-3.865 2.457-8.361 4.461-13.543 5.568-3.642.779-7.641.85-11.798.85-12.582-.001-25.035-.133-37.8-.142-.021-.042-.042-.084-.094-.094-.164-10.73-.047-22.355-.047-33.505 0-5.835-.273-11.609.614-16.517 1.311-7.253 4.005-13.042 7.55-18.121.597-.855 1.235-1.613 1.888-2.407 3.127-3.803 7.029-7.314 11.561-9.769 3.608-1.954 7.794-3.663 12.553-4.53 4.814-.877 10.615-.65 16.186-.52.173 1.159.142 2.363.142 3.587 0 3.703.103 7.531-.047 11.278-.193 4.83.184 9.994-.047 14.913.013.076-.045.081-.047.142-.884.29-1.843.104-2.784.094-.947-.01-1.913.032-2.832.047-2.024.033-3.886-.107-5.663.236-4.608.889-8.114 3.886-9.58 8.117-.527 1.522-.707 3.095-.707 5.191 0 3.691.049 7.582.094 11.609.009.039.047.047.047.095 1.141.257 2.337.142 3.492.142h3.634c2.463 0 4.833.184 7.032-.095 4.084-.518 6.996-2.696 8.919-5.568.99-1.478 1.69-3.125 2.029-5.238.331-2.063.142-4.456.142-7.079 0-9.967.047-18.659.047-28.55.001-13.163.047-25.816.047-39.263 0-1.112-.092-3.059.142-3.492.034-.046.085-.074.141-.096z"/><path d="m114.95.33c.143 9.497.047 19.1.047 28.645 0 4.727.139 9.454-.047 14.11-.094 2.347.094 4.698.047 7.031-.141 7.043-.048 14.019-.047 21.283 0 2.58-.169 5.029.142 7.126.322 2.176.997 3.787 1.982 5.285 1.884 2.865 4.787 5.167 8.872 5.663 4.348.528 9.362-.061 14.299.142.021-.042.041-.085.094-.095.081-3.955.221-7.939.094-11.609-.071-2.065-.189-3.693-.708-5.238-1.353-4.029-4.982-7.453-9.486-8.258-2.538-.454-5.736-.102-8.683-.236-.923-.042-1.878.048-2.737-.189-.145-9.806-.065-20.05.047-29.824.653-.251 1.373-.142 2.029-.142 4.998 0 10.004-.086 14.158.708 4.816.92 8.857 2.552 12.505 4.577 7.173 3.982 12.829 10.142 16.706 17.461 2.022 3.819 3.328 8.009 4.247 12.883.914 4.842.643 10.636.614 16.187-.052 9.747-.001 19.972 0 29.73 0 1.371.111 2.764-.142 4.105-12.662.218-25.281.046-37.989.047-4.222.001-8.209-.157-11.798-.896-6.862-1.414-12.36-4.449-17.083-8.353-4.703-3.887-8.501-8.493-11.279-14.11-2.826-5.714-4.624-12.369-4.624-20.811 0-20.283.095-41.988.095-63 0-3.176.047-5.994.047-9.297 0-.869-.097-2.776.142-3.067.035-.044.086-.071.142-.094 8.372-.026 16.608.094 24.916.094 1.126 0 2.299-.113 3.398.142z"/></g></svg>