<svg enable-background="new 0 0 77.978 78.378" viewBox="0 0 77.978 78.378" xmlns="http://www.w3.org/2000/svg"><path clip-rule="evenodd" d="m11.045 11.746c3.309-3.428 7.011-6.106 11.406-8.125 3.413-1.568 7.05-2.647 11.406-3.281 6.733-.979 14.218.278 19.229 2.221 2.017.782 3.902 1.821 5.704 2.877 1.808 1.06 3.576 2.215 5.047 3.482 6.168 5.315 10.96 11.988 13.122 21.096 1.134 4.779 1.352 10.472.505 15.495-.793 4.693-2.351 9.193-4.392 12.718-4.178 7.217-10.084 12.845-17.664 16.503-4.016 1.938-8.234 3.13-13.577 3.533-5.544.418-10.593-.362-14.989-1.817-8.476-2.805-14.917-8.041-19.633-14.585-4.702-6.525-8.068-15.6-7.015-26.799.961-10.232 5.411-17.236 10.851-23.318zm50.267 8.53c-2.183-2.662-4.76-4.91-7.772-6.712-4.007-2.398-8.927-4.17-15.191-4.139-2.216.011-4.388.276-6.258.706-8.064 1.858-14.123 6.449-18.118 12.365-.451.667-.768 1.421-1.211 2.17-1.694 2.859-2.85 6.326-3.432 10.144-.997 6.537.462 12.674 2.574 17.109.743 1.56 1.517 3.092 2.423 4.391 3.247 4.658 7.735 8.184 13.273 10.447.815.333 1.678.745 2.625.706.179-3.735.208-7.547.101-11.406-.107-3.843.061-7.765 0-11.709-.12-7.801-.069-15.761.05-23.519 5.629-.04 11.852-.288 17.614-.151 4.402.105 8.505.398 11.961 1.363 1.155.322 2.16.948 3.28 1.11-.406-1.097-1.197-1.995-1.919-2.875zm-22.206 9.993c-.175.423-.101 1.575-.101 2.372.001 12.144-.09 24.492.151 36.086 3.7.083 7.056-.717 9.993-1.868 1.494-.585 2.87-1.118 4.189-1.816 1.276-.676 2.466-1.563 3.634-2.423 4.568-3.365 8.406-7.991 10.195-13.98.959-3.213 1.359-7.369.303-10.447-.96-2.795-2.955-5.054-5.653-6.41-5.446-2.738-14.581-1.217-22.56-1.615-.059.025-.115.054-.151.101z" fill-rule="evenodd"/></svg>