<svg enable-background="new 0 0 74.196 68.751" viewBox="0 0 74.196 68.751" xmlns="http://www.w3.org/2000/svg"><path clip-rule="evenodd" d="m42.272.17c.265 1.178.146 2.551.146 3.946.002 9.441-.027 18.828-.195 28.059-.011.613.098 1.25.098 1.9v1.997c0 1.31-.115 2.646.146 3.848.624.03 1.003-.576 1.412-.925.44-.375.91-.709 1.315-1.072 5.029-4.568 10.13-9.062 15.053-13.737.467-.311.803-.684 1.267-1.121.325-.306.89-.98 1.315-1.071.814-.174 1.921 0 2.874 0 2.733 0 5.892-.04 8.476.048.107.382-.322.664-.536.877-.722.722-1.514 1.492-2.289 2.192-.926 1.071-2.092 1.903-3.069 2.923-3.207 2.776-6.225 5.624-9.304 8.67-1.435 1.419-3.207 2.845-4.726 4.238-1.123 1.031-2.218 2.114-3.507 3.215-.392.334-1.063.822-1.072 1.169-.009.359.853 1.135 1.218 1.51 1.317 1.354 2.863 2.619 4.141 3.897 2.705 2.705 5.457 5.298 7.989 8.135 2.5 2.802 5.448 5.259 8.086 7.989.305.167.506.437.731.682.152.26.626.436.487.828-2.622.176-5.654.097-8.525.097-.904 0-2.044.116-2.776-.097-.55-.16-1.305-1.257-1.803-1.754-4.094-4.094-8.35-8.407-12.471-12.324-.82-.759-1.695-1.452-2.484-2.241-.779-.78-1.418-1.756-2.436-2.29-.603.283-.57 1.006-.73 1.51-1.192 3.763-2.734 7.501-5.115 10.278-2.694 3.144-6.088 5.567-10.862 6.723-5.438 1.316-10.82-.278-14.371-2.29-3.833-2.171-6.429-5.391-8.427-9.158-1.545-2.911-2.536-6.425-2.29-10.766.072-1.271.381-2.43.732-3.653 1.241-4.338 3.929-7.959 7.063-10.522 3.31-2.707 7.481-4.396 13.25-4.335 4.27.044 7.422 1.455 9.985 3.215.855.587 1.506 1.458 2.533 1.851.346-.554.195-1.282.195-1.9 0-9.888.019-20.657.194-30.494 1.209-.303 2.932-.195 4.628-.195 1.279.002 2.615-.11 3.654.148zm-25.234 35.269c-2.514.739-4.464 2.062-6.138 3.799-1.915 1.989-3.849 5.12-3.849 9.353 0 2.069.58 3.764 1.267 5.31 1.301 2.929 3.663 5.328 6.674 6.576 1.535.636 3.487 1.197 5.456 1.169 3.767-.054 7.072-1.883 9.158-4.043 2.135-2.21 3.785-5.334 3.702-9.499-.078-3.916-1.757-7.359-3.8-9.402-1.087-1.087-2.433-1.89-4.043-2.582-1.403-.603-3.623-1.256-5.505-1.121-1.177.086-2.045.182-2.922.44z" fill-rule="evenodd"/></svg>