<svg enable-background="new 0 0 77.851 79.159" viewBox="0 0 77.851 79.159" xmlns="http://www.w3.org/2000/svg"><path clip-rule="evenodd" d="m22.596 13.376c.257-.973.148-2.061.148-3.143 0-3.193-.071-6.704.099-9.775.811-.28 1.685-.099 2.555-.099 5.409.001 10.789-.074 16.357.049.869.02 1.827-.108 2.554.05.565.121 1.336 1.152 1.77 1.62 1.15 1.248 2.139 2.14 3.389 3.39.407.408 1.222 1.604 1.72 1.621.445.017 1.209-.949 1.571-1.277 1.476-1.333 3.169-2.512 5.011-3.389 1.797-.855 3.934-1.622 6.484-1.965.768-.104 1.855-.299 2.652-.148.471.089 1.048.899 1.475 1.326 2.786 2.786 5.398 5.633 8.104 8.449.404.421 1.161 1.152 1.277 1.571.155.56.068 1.361.049 2.162-.11 4.608-.049 10.081-.049 14.491v8.547c0 2.9-.129 5.777 0 8.548.263 5.654-.206 11.375-.049 16.996.039 1.402-.001 2.805 0 4.225 0 2.798-.001 5.608 0 8.449 0 1.36.104 2.745-.147 4.077-4.237.109-7.677-1.055-10.513-2.604-2.904-1.587-5.044-3.87-7.221-6.092-1.055-1.152-2.153-2.236-3.242-3.389-.346-.366-.723-.817-1.227-.982-.274.447-.128 1.014-.149 1.522-.143 3.585.086 7.885-.146 11.445-7.131.271-14.381-.097-21.81 0 .009-.041-.02-.046-.05-.049-.717-.387-1.211-1.063-1.769-1.621-1.108-1.109-2.255-2.206-3.389-3.34-.55-.55-1.066-1.186-1.769-1.572-1.017.734-2.024 1.575-3.144 2.407-1.039.771-2.204 1.425-3.439 2.062-2.448 1.266-5.598 2.307-8.989 1.966-.504-.051-1.075-.986-1.474-1.425-1.334-1.47-2.754-2.778-3.979-4.274-1.785-1.897-3.609-3.757-5.256-5.794.024-11.427 0-22.49 0-33.846-.001-10.618.049-20.72.049-31.537 0-.645-.112-1.346.147-1.965 1.883-.264 4.466.356 5.994.787 5.209 1.471 8.669 4.904 11.838 8.204 1.141 1.08 2.214 2.213 3.341 3.34.359.359.689.85 1.227.982zm-3.684-.245c-.987-2.299-2.396-4.292-3.931-5.944-3.145-3.392-7.601-5.735-13.361-6.386-.147 0-.295 0-.441 0-.059.023-.113.052-.148.098-.274.266-.115 1.774-.147 2.456-.117 2.456-.05 5.073-.05 7.467.001 3.553-.08 7.005.099 10.218.726.263 1.527.148 2.309.148 5.69.001 11.788.22 17.291 0 .09-3.059-.631-5.751-1.621-8.057zm4.961-11.986c-.058.023-.111.053-.148.098-.243.254-.147 1.713-.147 2.407 0 5.925-.147 12.209.049 17.537.745.257 1.562.147 2.358.147 5.012 0 10.07.049 15.081.049.807 0 1.652.118 2.406-.148.18-6.375.226-13.128.05-19.894-6.535-.31-13.25-.094-19.649-.196zm41.165.048c-3.392.318-6.16 1.41-8.548 2.85-1.941 1.17-3.486 2.591-4.912 4.175-2.938 3.265-4.949 7.645-5.06 13.066.741.258 1.578.149 2.358.149 5.013-.001 9.997.099 14.933.098.793 0 1.621.109 2.358-.147.204-4.387.081-9.129.098-13.705.009-2.173.208-4.398-.098-6.436-.343-.202-.797-.081-1.129-.05zm-64.007 22.793c-.336.403-.197 1.026-.197 1.523.001 6.188-.169 12.159.05 18.322 6.578.161 13.135.274 19.698.099.231-6.241.199-13.272.049-19.797-6.278-.239-13.306-.248-19.6-.147zm37.726.099c-5.007-.236-10.093.194-14.884-.05-.058.024-.111.053-.148.099-.311.198-.196 1.67-.196 2.407 0 4.416.04 8.539 0 12.674-.017 1.666-.191 3.282.098 4.765 6.635.145 13.371.214 19.797.049.247-6.197.201-13.391.049-19.747-1.501-.302-3.114-.122-4.716-.197zm17.832.148c-3.269-.001-6.602-.102-9.874-.05-.058.024-.111.053-.148.099-.243.254-.146 1.677-.146 2.357 0 5.736-.184 11.971.049 17.39.733.266 1.568.147 2.357.147 4.237 0 8.516.06 12.625.099 1.627.016 3.212.059 4.667-.148.263-3.234.129-6.762.196-10.07.032-1.615.023-3.269 0-4.863-.025-1.647.107-3.281-.148-4.813-3.057-.231-6.29-.148-9.578-.148zm-45.635 22.203c-3.213-.063-6.973-.01-9.923 0-.346.703-.197 1.556-.197 2.357.001 5.941-.087 12.126.099 17.734 2.349.072 4.58-.474 6.533-1.229 3.906-1.511 6.753-3.792 9.137-6.828 1.168-1.486 2.291-3.3 2.85-5.158.616-2.048 1.241-4.242 1.08-6.681-3.04-.254-6.294-.131-9.579-.195zm36.056.196c-.1.001-.262.033-.344.05-.37.075-.229.996-.147 1.719.882 7.803 5.317 13.089 10.905 16.112 2.349 1.271 5.256 2.515 8.646 2.309.209-5.518.147-11.668.147-17.536 0-.828.111-1.683-.147-2.456-6.268-.114-13.072-.216-19.06-.198zm-8.351.246c-4.938 0-9.749-.07-14.835-.049-.059.023-.111.052-.147.098-.254.271-.144 1.604-.147 2.309-.026 5.537-.163 12.063.049 17.439 1.582.235 3.244.147 4.912.147 5.113 0 10.146.103 14.885-.049.257-.745.147-1.554.147-2.357 0-5.913.117-12.031-.099-17.39-1.553-.274-3.16-.148-4.765-.148z" fill-rule="evenodd"/></svg>