<svg enable-background="new 0 0 153.844 186.864" viewBox="0 0 153.844 186.864" xmlns="http://www.w3.org/2000/svg"><g clip-rule="evenodd" fill-rule="evenodd"><path d="m82.057 56.369c-.327-.383-.21-.934-.25-1.351-.674-7.052-3.296-12.584-6.759-16.922-2.799-3.507-6.173-6.433-10.263-8.661-.682-.371-1.356-.731-2.053-1.102-.677-.36-1.49-.513-2.103-1.051-.091-8.001 0-15.659 0-24.031 0-.773-.187-3.032.351-3.154.806-.183 2.414-.05 3.604-.05 3.432 0 7.028.042 9.712.601 3.911.813 7.122 2.096 9.863 3.855 5.677 3.645 9.915 8.472 12.316 15.119 1.256 3.478 1.944 7.694 1.702 11.815-.608 10.357-5.519 17.643-11.865 22.429-.654.493-1.344.961-2.052 1.401-.679.422-1.399.902-2.203 1.102z"/><path d="m41.655 87.609c-.098-18.425.051-37.153.05-56.222 0-.5-.038-1.078 0-1.903.018-.387-.091-1.837.601-1.502 2.567-.145 5.876 0 8.511 0 2.678 0 5.166.566 7.26 1.152 4.452 1.243 7.893 3.588 10.864 5.957 4.414 3.883 7.917 8.973 9.562 15.67.874 3.559 1.059 7.657.551 11.465-.467 3.505-1.704 6.832-3.103 9.462-2.891 5.436-7.09 9.668-12.616 12.616-2.796 1.492-5.838 2.583-9.562 3.055-3.668.463-7.738.44-12.118.25z"/><path d="m100.781 31.587c1.024.298 2.515 1.395 3.354 2.003 3.047 2.205 5.726 5.046 7.71 8.161 2.78 4.366 4.756 9.639 4.756 16.37 0 6.724-2.112 12.05-4.906 16.221-2.143 3.2-4.64 5.875-7.81 8.061-1.037.716-2.057 1.559-3.304 1.953-.313-.771-.194-1.589-.251-2.354-.621-8.494-4.694-14.691-9.412-19.225-.882-.847-1.862-1.64-2.854-2.352-1.006-.725-2.105-1.286-3.104-2.053.408-.513 1.035-.77 1.552-1.102 5.836-3.748 10.372-9.032 12.716-16.321.652-2.029 1.05-4.18 1.252-6.708.064-.8.086-1.67.15-2.504.029-.071.079-.122.151-.15z"/><path d="m82.057 59.423c2.948 1.395 5.907 3.68 7.86 5.958 2.198 2.564 4.036 4.983 5.507 8.21 1.44 3.159 2.37 7.022 2.504 11.265.133 4.223-.582 8.305-1.953 11.665-2.64 6.474-6.935 11.235-12.666 14.819-2.839 1.775-6.158 3.123-9.962 3.755-3.892.646-8.221.555-13.067.351-.193-4.307-.1-8.93-.1-13.567 0-4.589.068-9.243.1-13.718.049-.001.039-.062.05-.101 11.396-5.291 20.044-13.332 21.578-28.486.027-.073.077-.123.149-.151z"/><path d="m3.857 127.26c.207 14.741-.05 29.44-.05 44.156 0 4.926.116 9.852-.15 14.719-.986.12-2.615.225-3.605-.05-.141-14.59.05-29.737.05-44.508 0-3.719-.007-7.417 0-11.063.001-.578-.026-1.184 0-1.752.024-.524-.068-1.141.25-1.603 1.099-.088 2.497-.066 3.505.101z"/><path d="m6.961 186.135c-.152-18.582.1-36.554.1-55.27 0-1.061-.108-3.131.15-3.604.037-.047.091-.076.15-.101 4.418.117 8.366-.225 12.016.351 6.949 1.095 12.645 4.435 16.721 8.511 2.083 2.083 3.834 4.54 5.307 7.31 1.451 2.727 2.568 5.99 3.004 9.662.451 3.806.225 7.809-.701 11.314-1.748 6.62-5.36 11.564-9.862 15.37-2.987 2.535-6.693 4.406-11.165 5.657-4.299 1.202-10.305 1.091-15.72.8z"/><path d="m52.118 127.36c5.584.083 11.419-.128 16.722.1.234 14.396-.001 29.368 0 44.308 0 3.71-.05 7.383-.05 11.114 0 1.19.121 2.396-.15 3.555-5.187.071-11.537.163-16.872-.101-.306-1.152-.1-2.355-.1-3.555 0-17.443.148-34.161.15-51.717 0-1.081-.104-3.071.15-3.604.037-.047.091-.075.15-.1z"/><path d="m115.049 127.711c.096.42-.304.708-.501 1.001-3.902 5.829-7.893 11.791-11.815 17.673-.827 1.239-1.575 2.551-2.403 3.805-1.642 2.487-3.462 4.873-4.956 7.46 3.22 4.874 6.51 9.678 9.762 14.519 2.923 4.158 5.734 8.405 8.661 12.616.391.562 1.008 1.103 1.052 1.853-12.459.064-24.57.034-36.848-.2-.19-2.192-.1-4.829-.1-7.31 0-16.573.15-33.438.15-50.215 0-.835-.135-1.435.651-1.502 1.455-.123 3.09.051 4.605.05 4.587-.001 9.184.051 13.768.051 6.045-.002 12.068-.015 17.974.199z"/><path d="m147.491 127.861c.185 9.578 0 19.505 0 29.388.001 9.886.036 19.843-.2 29.487-5.412.208-10.618.186-14.819-.801-4.225-.992-7.793-2.792-10.764-5.007-5.807-4.328-10.453-10.98-11.665-19.875-1.397-10.249 2.778-18.484 7.459-23.631 2.518-2.768 5.628-5.057 9.011-6.758 2.637-1.327 5.664-2.3 9.162-2.704 2.438-.281 5.031-.25 7.86-.25 1.382.001 2.743-.119 3.956.151z"/><path d="m153.749 127.861c.178 7.397.051 14.857.05 22.278 0 2.425.083 4.872 0 7.26-.337 9.716.205 19.73-.25 29.337-.979.142-2.706.217-3.604-.05-.071-19.587-.04-39.361.2-58.825 1.003-.224 2.533-.145 3.604 0z"/></g></svg>