<svg enable-background="new 0 0 75.663 74.536" viewBox="0 0 75.663 74.536" xmlns="http://www.w3.org/2000/svg"><path clip-rule="evenodd" d="m.237 74.413c-.277-13.398-.102-26.953-.237-40.464 1.069-1.411 2.431-2.558 3.665-3.809 3.672-3.721 7.506-7.364 11.235-11.092 4.959-4.958 9.865-9.97 14.9-14.852.768-.645 1.369-1.456 2.094-2.143.982-.496 1.268-1.843 2.475-1.999.939-.122 2.018-.001 3.049 0 2.893 0 6.199-.122 8.949.047 3.715.228 6.979 1.196 9.568 2.428 11.033 5.251 17.58 14.414 19.375 28.706.953 7.596-.119 15.298-2.094 21.185-1.537 4.573-3.621 8.358-6.523 11.521-4.605 5.02-11.031 9.427-19.707 10.33-3.719.387-7.641.237-11.617.237-11.771.001-23.267.043-35.132-.095zm22.28-15.52c1.216.022 2.44.001 3.665 0 4.844-.001 10.131.313 14.234-.333 2.059-.324 3.881-.993 5.475-1.856 3.033-1.643 5.512-4.289 7.236-7.427 1.689-3.075 2.795-7.349 2.855-11.806.063-4.586-.998-8.69-2.617-11.901-1.604-3.178-4.275-5.808-7.141-7.521-1.492-.892-3.357-1.657-5.381-1.951-2.139-.312-4.467-.238-7.092-.238-4.798-.001-9.813-.022-14.568.048-.318.26-.195.703-.189 1.047.056 3.161 0 6.264 0 9.474 0 3.594.047 7.236.047 10.806 0 7.302-.028 14.524.142 21.47 1.056.314 2.213.169 3.334.188z" fill-rule="evenodd"/></svg>