<svg clip-rule="evenodd" fill-rule="evenodd" stroke-linejoin="round" stroke-miterlimit="2" viewBox="0 0 560 400" xmlns="http://www.w3.org/2000/svg"><path d="m71.9 343.2-71.7-130.1-.2-114.8 206.4-98.3 129.5 49.5 108.9 204.9.1 93.8-69.6 126.8-293.6 141.1-80.4-137.8-.2-101.7zm15.4-106.8c19.9-9.7 58-28.2 58-28.2l5.7-2.8s-.1-55.8-.1-80.9c26.8-13 80.9-39.3 80.9-39.3l79.5 146.6v4.9l.4 84.1v5.6l-73.5 36v5.9s.1 28.5.1 42.7v26.9c2-.8 3-1.1 4-1.6 38.7-19.1 119.9-59.4 119.9-59.4l62.4-116.2 2.9-5.9-103-192.5-1-.4-117.1-45.9-186.9 90.4s45.1 86.5 67.8 130zm75.9 145.6c18.4-9.1 54.3-26.7 54.3-26.7l6.4-3.1s-37.8-70.2-54.9-102.3c-5-9.3-10-18.7-15.2-28.5-19.9 9.8-39.5 19.3-59.2 29 23.1 44.3 45.7 87.7 68.6 131.6zm-83.6-25c-19.2 9.1-37.9 18-57.2 27.1 22.8 42.5 45.4 84.6 68.2 127.2 19.7-9.7 38.8-19.2 58.3-28.8-23.3-42.2-46.2-83.6-69.3-125.5zm157.2-101.9c18.8-9.2 36.7-17.9 54.9-26.8-22.4-41.3-44.3-81.7-66.4-122.5-18.3 8.9-35.9 17.4-54 26.2 22 41.4 43.6 81.9 65.5 123.1z" fill-rule="nonzero" transform="matrix(.449539 0 0 .449539 180 61.5194)"/></svg>