<svg enable-background="new 0 0 68.805 80.5" viewBox="0 0 68.805 80.5" xmlns="http://www.w3.org/2000/svg"><g clip-rule="evenodd" fill-rule="evenodd"><path d="m46.826 4.28c-.294.646-1.234.792-1.965 1.159-.448.226-1.555 1.001-2.166 1.007-.558.006-1.394-.62-1.763-.806-.595-.299-1.216-.551-1.763-.806-.482-.225-.958-.554-1.713-.856-.509-.204-1.662-.577-1.864-.051-.197.515.968.901 1.411 1.108 1.786.832 3.387 1.954 5.642 2.115 2.583.186 5.366-.086 7.809-.05 2.634.039 4.253.672 6.297 1.662 1.853.898 3.455 1.764 5.29 2.67 1.728.854 3.834 1.776 4.533 3.376.742 1.697-.483 3.122-1.662 3.929-1.687.638-3.314 1.65-5.793 1.461-2.303-.175-4.413-1.188-6.298-2.065-1.29-.601-2.738-1.402-4.231-2.065-.5-.222-1.225-.452-1.26-.806-.039-.41.699-.709.957-.856.877-.5 1.463-.818 2.318-1.309.348-.201.857-.544 1.209-.555.638-.02 1.553.631 2.166.957 1.461.779 2.629 1.288 4.131 2.016.629.305 1.625.864 2.166 0-.168-.672-.963-.835-1.512-1.159-.536-.317-1.127-.617-1.713-.906-1.141-.564-2.38-1.308-3.627-1.612-1.175-.287-2.996-.093-4.533 0-1.918.116-4.236.456-6.398.051-3.506-.658-6.654-2.402-9.621-3.98-1.303-.692-3.176-1.55-3.779-3.023-.232-.569-.236-1.447-.05-1.964.946-2.626 5.597-3.428 9.018-2.62 1.649.39 3.088 1.198 4.534 1.864 1.457.669 2.941 1.238 4.23 2.114z"/><path d="m34.636 17.73c.157.347.55.444.856.605 5.024 2.64 10.678 4.994 15.617 7.758.053.557-.51.498-.605.906 1.515-.788 4.233-1.396 5.189.303.713 1.269.559 3.543.554 5.44-.02 7.857.101 16.475.101 24.986 0 1.989.148 4.3 0 6.196-.293 3.758-1.85 6.459-4.332 8.263-1.502 1.091-4.9 2.266-5.995.05-.476-.964-.403-3.003-.403-4.534 0-3.423.036-6.403 0-9.773-.049-4.687-.05-9.559-.05-14.458 0-3.263-.235-6.513 0-9.572.124-1.617.732-2.894 1.461-3.929.759-1.078 1.794-1.776 2.72-2.62-.981.133-1.495 1.107-2.418 1.159-.549.03-1.333-.536-1.914-.807-1.834-.853-3.888-1.861-5.541-2.619-6.356-3.167-12.895-6.128-19.244-9.319-2.055-1.034-4.047-2.044-6.096-3.073-1.119-.562-2.381-.9-3.324-1.764.299-.543.971-.689 1.512-.956 1.08-.534 2.095-1.025 3.273-1.562.529-.24 1.227-.685 1.713-.705.566-.024 1.396.485 2.066.756 1.979.799 4.153 1.547 6.046 2.267 2.892 1.101 5.439 2.124 8.16 2.922-2.018-1.32-4.477-2.334-6.852-3.476-1.76-.848-3.521-1.682-5.289-2.52-.56-.266-1.218-.448-1.611-.957.318-.59 1.189-.813 1.914-1.158.718-.342 1.461-.778 2.115-.957.779-.214 2.369.911 3.225 1.31 4.961 2.308 9.734 4.94 14.659 7.254.985.463 1.907 1.026 2.872 1.512.995.5 2.032.886 3.021 1.36.867.415 1.689 1.007 2.62 1.461 2.181 1.062 4.461 2.291 6.7 3.375.422.203 1.183.488 1.209.806.049.59-1.959 1.466-2.367 1.713-.422.256-.835.476-1.311.756-.395.233-.901.688-1.309.705-.465.02-1.895-.645-2.419-.856-5.358-2.165-11.004-4.309-16.523-6.248zm17.178 45.742c0-8.614-.05-16.987-.051-25.541 0-1.443.062-2.86 0-4.182-.025-.543-.062-1.302-.453-1.259-.973.037-.856 1.419-.856 2.771-.001 9.919.102 19.15.1 29.067 0 .927-.202 1.957.303 2.469 1.277-.3.957-2.1.957-3.325z"/><path d="m15.594 14.054c-.379.746-1.561.689-1.965 1.41.404.654 1.275.862 1.965 1.209.728.366 1.494.625 2.065 1.108.699.254 1.333.675 2.115 1.058.599.293 1.524.912 2.217.907 1.013-.007 1.761-1.19 2.62-1.209.38-.009.97.358 1.359.554.918.461 1.536.773 2.569 1.26.358.169 1.138.41 1.159.756.045.759-1.512.639-1.612 1.41.593.738 1.585.999 2.418 1.41 2.106 1.042 4.163 2.05 6.448 3.124.434.204 1.019.506 1.36.504.865-.006 1.53-1.08 2.418-1.108.749-.023 2.181.979 2.771 1.259 1.002.478 1.849.684 2.569 1.411-.376.66-1.251.971-1.915 1.36-1.385.812-2.621 1.55-4.13 2.418-.558.319-1.458 1.136-2.065 1.158s-1.783-.77-2.418-1.058c-2.305-1.047-4.697-2.412-6.902-3.476-3.258-1.572-6.372-3.053-9.319-4.484-5.228-2.755-10.724-5.446-16.12-8.059-.742-.359-1.596-.635-2.166-1.26.48-.627 1.328-.91 2.064-1.259.734-.348 1.513-.662 2.267-1.008 1.537-.704 3.006-1.622 4.483-2.116.487-.162 1.189.28 1.713.555.462.241.934.487 1.36.705.996.507 2.017.818 2.672 1.461z"/><path d="m.33 16.623c3.088 1.361 6.46 3.076 9.47 4.533 2.36 1.143 4.682 2.232 7.053 3.426.775.391 1.503.853 2.267 1.209 5.531 2.581 10.84 5.437 16.373 8.01.768.357 1.604.661 2.217 1.26.087.847.05 1.847.051 2.821 0 .963.121 1.985-.152 2.72-.965-.041-1.84-.682-2.67-1.108-5.887-3.023-11.961-5.895-18.034-8.815 3.142 2.359 6.876 4.221 10.428 6.297 2.651 1.551 5.296 3.101 7.96 4.686.859.511 1.818.941 2.469 1.713.089.661.049 1.516.049 2.316.001.803.137 1.652-.201 2.167-1.869-.43-3.587-1.226-5.34-1.914-1.729-.68-3.496-1.354-5.238-1.966-3.524-1.236-6.932-2.692-10.529-3.879 3.289 2.034 7.018 3.521 10.629 5.239 2.71 1.29 5.43 2.494 8.162 3.778.865.407 1.861.686 2.517 1.411.118.841.057 1.785.051 2.72-.004.85.276 1.92-.201 2.519-1.688-.487-3.211-1.384-4.785-2.116-7.806-3.632-15.447-7.44-23.378-11.134-2.313-1.078-4.598-2.208-7.053-3.325-.641-.291-2.009-.822-2.217-1.209-.404-.751-.148-2.865-.15-3.829-.002-.747.051-1.532.05-2.267-.001-.793-.216-1.586.1-2.216 1.348.19 2.575.768 3.828 1.209 1.273.449 2.548.892 3.829 1.31 2.538.829 4.999 1.901 7.657 2.569-.061-.372-.494-.546-.756-.705-2.217-1.346-4.592-2.679-6.901-4.03-1.309-.766-2.577-1.62-3.879-2.367-1.323-.761-2.707-1.388-3.879-2.317-.05-2.738-.151-5.96.05-8.614.038-.048.092-.078.153-.102z"/><path d="m68.74 58.989c-.477.746-1.338 1.224-2.065 1.763-.718.533-1.472 1.183-2.317 1.411-.506-.495-.416-1.481-.504-2.367-.416-4.242-.937-8.576-1.359-12.847-.168-1.704-.262-3.407-.655-4.987-.45 7.331.16 14.66-.101 21.964-.446.764-1.275 1.216-1.965 1.713-.686.494-1.315 1.199-2.217 1.411-.271-.844-.15-1.742-.15-2.62.001-13.444-.195-27.167-.102-40.754 1.039-.914 2.344-1.608 3.627-2.317.393-.218.809-.619 1.31-.555.43.511.383 1.265.453 1.914.365 3.399.857 6.899 1.31 10.378.176 1.358.25 2.739.654 3.979.365-2.733.102-5.676.101-8.866 0-2.323-.05-4.367-.05-6.801 0-.808-.113-1.657.1-2.166.225-.534 1.073-.756 1.613-1.058.631-.354 1.14-.636 1.713-.957.797-.447.553 1.453.553 2.216.002 10.023.051 19.117.051 29.017 0 3.601.147 7.275 0 10.529z"/><path d="m44.057 31.484h.1c.512.563.303 1.647.303 2.619 0 13.951.144 28.14.051 42.467-.615.93-1.668 1.423-2.569 2.065-.387.361-.857.679-1.31 1.008-.414.302-.855.765-1.411.756-.345-.325-.201-.87-.201-1.26.001-14.733-.243-29.689-.101-44.432.6-.741 1.572-1.15 2.418-1.663.899-.544 1.819-1.069 2.72-1.56z"/><path d="m.48 39.392c3.086 1.3 6.514 2.964 9.471 4.383 3.047 1.462 6.242 2.962 9.32 4.483 4.5 2.225 9.332 4.406 14.004 6.7.684.335 1.522.743 2.317 1.108.761.35 1.985.726 2.216 1.209.346.723.102 2.358.102 3.376 0 1.294.114 2.42-.15 3.273-.838-.062-1.666-.546-2.469-.906-.786-.353-1.541-.796-2.318-1.159-6.213-2.898-12.414-6.037-18.739-8.916-.765-.349-1.597-.718-2.368-1.108-3.032-1.538-6.076-2.973-9.319-4.483-.707-.33-1.99-.739-2.216-1.209-.329-.682-.102-2.154-.102-3.375 0-.505.026-1.117 0-1.713-.023-.552-.172-1.354.102-1.562.035-.047.09-.076.149-.101z"/><path d="m37.808 80.5c-1.674-.503-3.178-1.447-4.734-2.217-4.602-2.273-9.224-4.515-13.904-6.801-4.746-2.318-8.969-4.621-13.854-6.901-.702-.328-1.483-.766-2.317-1.158-.714-.338-1.978-.738-2.216-1.21-.375-.74-.073-2.561-.102-3.375-.039-1.145-.142-2.37-.05-3.375.229-2.527 2.129-4.583 4.382-4.836.398-.045 1.106-.013 1.512.051 1.922.297 3.702 1.461 5.441 2.267 5.305 2.458 10.433 5.023 15.616 7.455 3.622 1.699 7.29 3.095 9.269 6.096.513.778.892 1.756 1.058 2.821.171 1.101.051 2.411.051 3.778 0 1.867.05 3.764.051 5.692.001.579.139 1.238-.203 1.713zm-7.203-11.889c-3.55-1.682-6.9-3.309-10.479-4.987-1.127-.529-2.206-1.201-3.375-1.764-2.921-1.405-5.76-2.743-8.715-4.131-.782-.366-1.994-1.308-2.317-.251.059.733.866.91 1.36 1.158 4.037 2.028 8.031 4.008 11.99 5.994 3.978 1.998 8.078 3.986 12.039 5.944.568.282 1.138.713 1.813.655.221-1.624-1.255-2.116-2.316-2.618z"/></g></svg>