<svg enable-background="new 0 0 73.712 73.34" viewBox="0 0 73.712 73.34" xmlns="http://www.w3.org/2000/svg"><path clip-rule="evenodd" d="m73.514.226c.258 1.484.143 2.992.143 4.492.001 22.456.15 45.349-.048 68.527-24.339.206-49.549.014-73.354 0-.274-9.342-.191-18.96-.191-28.481 0-9.534-.064-19.032 0-28.291 1.86-1.335 4.168-2.072 6.594-2.819 2.441-.75 4.91-1.254 8.028-1.386 5.878-.247 11.391 1.377 14.767 3.967.914.701 1.749 1.39 2.581 2.15.781.715 1.454 1.675 2.102 2.581 1.308 1.824 2.308 4.062 2.771 6.642.494 2.745.335 6.013-.43 8.411-.759 2.383-1.984 4.254-3.536 5.83-2.832 3.001-7.09 5.919-13.333 5.399-3.41-.283-6.125-1.439-7.885-3.393-1.117-1.233-2.322-2.867-2.676-4.874-.413-2.344.188-4.761 1.051-6.261 1.009-1.753 2.724-3.017 4.779-3.728 2.256-.779 5.067-.658 6.977.479 1.745 1.038 3.116 2.805 3.68 4.826.544 1.949.127 3.983-.478 5.4-.207.483-.53.905-.669 1.434.487.082.851-.312 1.194-.525 2.349-1.468 4.78-4.209 4.636-8.076-.167-4.449-2.346-7.421-5.305-9.176-2.886-1.711-7.177-2.92-11.899-2.007-3.868.748-6.768 2.853-9.08 5.4-2.372 2.612-3.464 6.595-3.441 10.99.012 2.148.656 4.179 1.434 5.83 1.996 4.239 4.866 6.881 9.414 8.698.877.35 1.763.772 2.628.955 8.837 1.862 17.719-1.104 22.651-5.209 2.488-2.071 4.816-5.025 6.308-8.172 1.208-2.55 1.978-5.172 2.293-8.601.312-3.388-.049-7.024-.908-9.748-1.196-3.794-2.691-6.72-5.017-9.462-1.116-1.315-2.239-2.575-3.584-3.632-.628-.493-1.398-.998-2.15-1.481-3.641-2.338-7.895-4.229-13.094-5.017-1.049-.159-2.102-.368-3.202-.431-3.306-.188-7.102-.335-10.561-.096-2.204.155-4.373.53-6.544.48-.234-.365-.192-1.346 0-1.721 15.403-.26 30.741-.05 46.211-.047 9.058.002 18.109-.115 27.143.143z" fill-rule="evenodd"/></svg>