<svg fill="none" viewBox="0 0 130 130" xmlns="http://www.w3.org/2000/svg"><path clip-rule="evenodd" d="m59.0048.161158c-8.2748.859102-15.2663 2.840902-22.4926 6.375362-13.2068 6.45978-23.5281 16.75548-29.97898 29.90508-4.60404 9.3845-6.53512705 17.816-6.53321859 28.5229.00163583 8.2471 1.16061859 15.047 3.78475859 22.2058 2.26589 6.1809 6.80344 14.1907 10.01424 17.6757l1.4952 1.623 7.2808-12.1803 7.2808-12.1802-.9851-2.4586c-7.6292-19.0452.683-40.6816 19.0784-49.6596 2.9826-1.4558 5.793-2.4178 9.3474-3.1993 3.8393-.8444 11.5765-.8436 15.4196.0014 6.8999 1.5172 12.4102 4.2361 17.7839 8.7754 1.2026 1.0159 2.7274 2.4874 3.3883 3.2703l1.2018 1.4236-14.7028-.1863-14.7028-.1862-6.816 11.0897c-6.1322 9.977-11.9669 19.4389-19.5391 31.6851-6.8457 11.0717-14.7724 23.907-20.2638 32.812-3.3249 5.392-6.6791 10.813-7.454 12.046-.7748 1.234-1.4089 2.311-1.4089 2.394s13.7714.109 30.6036.058c33.4575-.1 32.036-.037 39.328-1.75 6.3044-1.481 14.1897-4.777 19.4936-8.147 5.3241-3.384 11.1121-8.426 15.2231-13.262 4.522-5.32 9.413-13.8668 11.638-20.3388 2.543-7.3954 3.511-13.3264 3.511-21.5117 0-10.791-1.895-19.0689-6.529-28.5229-6.442-13.1415-16.762-23.4377-29.9775-29.90672-6.1921-3.03124-12.2264-4.90549-19.221-5.969908-3.3918-.5162813-11.993-.743644-15.2677-.403814zm38.5507 43.413842c2.6135 3.9271 4.5435 8.5903 5.6685 13.6926.844 3.8313.844 11.5624 0 15.3937-3.4604 15.6948-14.8621 27.0791-30.5148 30.4677-2.1614.468-3.9167.601-9.3261.707l-6.6635.131.4198-.645c.231-.354 2.788-4.4426 5.6824-9.0853 5.2152-8.3656 9.2366-14.8098 24.9458-39.9736 4.4688-7.1588 8.2162-12.9179 8.3272-12.7981.1112.1198.7685 1.0693 1.4607 2.11z" fill="#000" fill-rule="evenodd"/></svg>