<svg enable-background="new 0 0 86.881 66.521" viewBox="0 0 86.881 66.521" xmlns="http://www.w3.org/2000/svg"><g clip-rule="evenodd" fill-rule="evenodd"><path d="m70.775.074c-.044.54-.437.986-.727 1.403-4.46 6.414-9.208 12.815-13.773 19.23-1.23 1.729-2.364 3.513-3.586 5.249-6.083 8.641-12.068 17.044-18.346 25.674-2.451 3.369-4.649 7.327-7.848 9.772-3.29 2.514-7.572 4.506-12.889 4.728-2.881.122-5.385-.476-7.64-1.194-2.212-.707-4.213-1.516-5.873-2.911-.091-11.224-.051-23.29-.052-35.081 0-.791-.121-1.812.052-2.287.244-.671 2.075-1.511 2.754-1.871 3.008-1.595 6.866-2.532 11.278-2.338 4.952.217 8.73 1.962 11.954 4.157.421.287 1.161.708 1.195 1.091.045.506-.952 1.602-1.299 2.079-2.403 3.304-4.672 6.582-7.017 9.875-.939 1.32-1.843 2.647-2.91 3.846-1.222-.662-1.908-2.216-4.106-1.767-1.955.399-3.719 2.658-2.599 5.197.487 1.104 1.875 2.561 3.794 2.131 1.152-.258 2.183-1.253 2.911-2.287 4.959-7.046 10.156-14.022 15.124-20.944 4.45-6.201 8.667-11.856 13.045-17.931 1.437-1.994 2.891-4.097 4.417-5.873 7.211.032 14.801-.098 22.141.052z"/><path d="m71.712 2.153c.356.502.207 1.201.207 1.767 0 9.839.056 19.215 0 28.741-2.439 4.099-5.852 8.012-8.368 12.369-.279.483-1.116 1.706-.156 2.027.793.029 1.163-.732 1.559-1.247 1.184-1.54 2.294-3.241 3.43-4.886 1.522-2.202 2.922-4.522 4.625-6.497 4.419-.052 9.337-.154 13.669.053.113 3.726.211 7.213.156 10.862-.018 1.19.143 2.507-.052 3.638-.074.427-.578.974-.936 1.455-.992 1.335-2.109 2.803-3.066 4.055-1.393 1.82-2.69 3.709-4.054 5.456-1.371 1.756-3.344 3.127-5.353 4.158-2.15 1.103-4.462 1.992-7.172 2.286-6.301.686-10.976-1.419-14.604-4.157-1.774-1.339-3.237-3.104-4.47-5.041-1.225-1.927-2.261-4.262-2.702-6.757-1.086-6.138.592-11.58 3.17-15.124 1.349-1.854 2.645-3.712 4.002-5.509 1.375-1.821 2.594-3.72 3.897-5.562 3.918-5.535 7.93-10.94 12.006-16.475.651-.886 1.292-1.848 1.975-2.755.747-.989 1.422-2.043 2.237-2.857z"/></g></svg>