<svg enable-background="new 0 0 66.318 55.467" viewBox="0 0 66.318 55.467" xmlns="http://www.w3.org/2000/svg"><g clip-rule="evenodd" fill-rule="evenodd"><path d="m42.275 14.344c-.256.082-.602-.759-.842-1.039-.229-.446-.527-.824-.74-1.286-1.686-2.195-3.375-4.261-5.736-5.834-.719-.478-1.355-1.108-2.076-1.533-.473-.278-1.027-.521-1.533-.791-3.322-1.775-7.475-3.399-12.459-3.461-5.336-.067-11.473.167-16.91.099-.645-.007-1.329.029-1.928-.197.191-.369 1.164-.292 1.582-.297 1.973-.025 4.184.047 6.131.099 4.193.112 8.324-.224 12.016 0 2.355.143 4.752.437 6.773 1.187 1.459.542 2.824 1.156 4.152 1.829 1.068.541 1.82 1.033 2.818 1.681.502.327 1.084.673 1.482 1.038 1.428 1.306 2.885 2.263 4.105 3.807.436.554.953 1.077 1.285 1.582.174.267.268.586.443.841.477.68 1.111 1.391 1.437 2.275z"/><path d="m64.326 51.278c-.393-.717-.195-1.604-.197-2.374-.006-2.726.033-5.253 0-7.911-.023-1.797.105-3.609 0-5.439-.102-1.764-.147-3.617-.049-5.34.018-.342.139-.694.149-1.038.01-.393-.123-.794-.149-1.187-.17-2.469.049-5.073.049-7.664 0-1.9-.045-3.791 0-5.686.014-.567-.104-1.131-.1-1.681.018-1.968.129-4.246.051-6.378-.07-1.873.012-3.707.049-5.488-.014-.08.047-.085.049-.148h.148c.178 9.214.037 18.843 0 28.035-.002.365.076.718.1 1.088.127 2.016-.092 4.044-.1 6.032-.002.49.115.949.1 1.434-.139 4.413.16 9.09-.1 13.745z"/><path d="m50.531.994h.148c.053 6.989.137 14.232-.098 20.815-.309-.582-.049-1.333-.051-1.978-.02-5.963-.078-12.624-.049-18.689.027-.04.052-.08.05-.148z"/><path d="m62.25.994c.041-.009.047.019.049.049.041.009.051.05.1.049.068 3.807.059 7.846.1 11.52.006.712-.162 1.426-.148 2.126.016.949.074 1.873.049 2.818-.1 3.55-.016 7.158 0 10.729.014 3.506.199 7-.049 10.482-.143 1.978.18 4.009.148 5.982-.025 1.489-.16 3.329-.148 4.944.002.288.144.56.148.841.002.34-.096.706-.1 1.038-.014.988.189 1.983-.049 2.967-.315-.275-.215-.778-.199-1.137.055-1.126.106-2.437.1-3.609-.033-7.132-.092-14.526 0-21.804.014-1.11-.119-2.212-.1-3.313.024-1.229-.002-2.442 0-3.659.02-6.144-.006-13.389 0-19.876.017-.064.087-.077.099-.147z"/><path d="m58.295 1.043c.08-.014.084.047.148.049.305 7.955-.201 15.78.098 23.238.08 1.965.014 4.002 0 5.983-.012 1.994-.021 3.979-.049 5.933-.008.587.024 1.177 0 1.83-.031.907.133 1.849.1 2.818-.012.292-.146.549-.148.841-.008.749.135 1.495.098 2.274-.172 3.61.238 7.201-.098 10.531-.273-.506-.148-1.146-.148-1.681 0-6.57-.016-12.888-.051-19.283-.008-1.643.103-3.273.1-4.895-.004-1.374-.078-2.78-.049-4.203.147-7.123-.199-15.426-.051-23.288-.014-.078.046-.084.05-.147z"/><path d="m60.223 1.043c.08-.014.086.047.148.049.043 5.819.293 12.309.1 18.541-.055 1.717-.002 3.32 0 5.192 0 .51.146 1.139-.199 1.582-.104-8.292-.168-16.644-.049-25.364z"/><path d="m54.438 1.093c.043-.009.047.019.049.05.256 8.453.139 16.88 0 25.364-.297-2.83-.02-5.947-.098-8.801-.01-.334-.105-.66-.1-.989.01-.443.145-.897.148-1.335.008-.666-.127-1.315-.148-1.978-.029-.889.109-1.809.1-2.719-.035-3.16-.074-6.211 0-9.444-.014-.079.047-.085.049-.148z"/><path d="m66.008 1.093c.057-.008.088.011.098.05.248 4.645.078 9.348.1 14.041.014 2.848-.049 5.931-.049 8.95 0 .766.076 1.558.049 2.323-.039 1.124-.064 2.16 0 3.214.051.835-.105 1.68-.1 2.522.008.719.154 1.447.148 2.175-.014 2.668-.141 5.373-.098 8.06.033 2.062-.057 4.173.098 6.18.123 1.569-.09 3.162 0 4.647.027.424.191 1.013-.148 1.384-.391-.347-.168-.909-.148-1.334.07-1.5-.144-3.077-.049-4.599.125-1.962.041-3.937.049-5.883.018-3.858.092-7.682-.049-11.422-.039-1.057.139-2.085.1-3.115-.031-.804-.162-1.578-.148-2.373.131-8.103-.219-16.47.148-24.672-.001-.049-.001-.099-.001-.148z"/><path d="m56.416 1.291c.307 1.128.129 2.636.098 4.054-.018.833.1 1.7.1 2.571 0 2.419-.043 5.089-.1 7.466-.012.56.102 1.132.1 1.681-.006 2.106-.121 4.505-.1 6.774.008.833.18 1.674-.049 2.422.236 8.574-.021 17.61.148 26.7.01.503.084 1.148-.246 1.582-.293-8.798.141-17.472-.1-26.205-.02-.675.104-1.352.1-2.027-.004-.465-.115-.922-.1-1.384.274-7.893-.243-15.708.149-23.634z"/><path d="m52.559 1.735c.152.174.143.764 0 .94-.213-.17-.067-.732 0-.94z"/><path d="m48.604 1.785c.111.053.02.31.049.445-.163-.085-.067-.278-.049-.445z"/><path d="m40.594 15.283c-.598-.447-.84-1.174-1.236-1.78-1.125-1.715-2.662-3.381-4.252-4.746-1.029-.884-2.223-1.76-3.51-2.473-1.279-.707-2.508-1.597-3.857-2.125-.403-.159-.899-.24-1.335-.396-1.955-.697-4.504-1.374-7.17-1.384-5.435-.022-11.933.022-17.701.049-.478.002-1.076.055-1.482-.247.33-.362.912-.126 1.385-.148 2.986-.141 5.824-.011 8.701 0 2.895.012 5.982-.188 8.652-.099.928.031 1.92.209 2.867.296.971.089 2.057.229 2.869.445.369.099.676.32 1.037.445.459.158.91.22 1.336.396 2.783 1.152 5.283 2.512 7.564 4.302 2.552 2 4.692 4.5 6.132 7.465z"/><path d="m46.676 2.082c.098.316.15.877.049 1.236-.213-.329-.129-.832-.049-1.236z"/><path d="m48.604 2.972c.049.002.039.061.049.099.078 6.616.158 13.526 0 20.371-.26-2.175-.176-4.443-.098-6.675.154-4.503-.145-9.135 0-13.646-.014-.081.047-.086.049-.149z"/><path d="m52.51 3.417c.057-.008.088.011.1.049.117 3.697.17 8.127 0 11.718-.326-.468-.129-1.05-.148-1.582-.07-1.723.074-3.614 0-5.488-.061-1.464-.1-3.175 0-4.549-.015-.08.044-.085.048-.148z"/><path d="m40.397 19.683c-.715-1.374-1.283-2.728-2.078-3.955-.781-1.211-1.516-2.446-2.471-3.51-1.156-1.288-2.711-2.537-4.154-3.56-3.029-2.15-6.658-3.647-11.272-4.153-2.434-.267-5.582-.045-8.357-.198-3.237.229-6.928-.028-10.532.098-.436.016-1.246.2-1.531-.247-.01-.124.074-.155.146-.198 5.184.127 10.483-.21 15.626-.049 3.203.1 6.197.071 8.752.841 1.176.354 2.352.894 3.461 1.384 2.203.973 4.16 2.289 5.883 3.758 1.707 1.454 3.176 3.216 4.449 5.241.898 1.425 1.607 2.76 2.078 4.548z"/><path d="m46.676 5.048c.154 1.145.244 2.834.049 4.005-.35-.991-.094-2.893-.049-4.005z"/><path d="m.002 49.25c.445-.425 1.16-.198 1.68-.198 4.469 0 8.93.049 13.25.049 2.609 0 5.16.046 7.318-.396 6.299-1.289 10.791-4.687 13.943-9.196 2.082-2.977 3.537-6.947 3.51-11.817-.027-5.01-1.527-8.736-3.559-11.866-1.516-2.333-3.527-4.179-5.785-5.785-3.75-2.668-9.002-4.068-15.525-3.758-2.41.115-4.967.128-7.467.05-1.822-.057-3.59 0-5.586 0-.58 0-1.234.121-1.779-.148.361-.57 1.148-.241 1.728-.247 5.778-.057 11.04-.108 16.713-.049 5.822.061 10.25 2.201 13.398 4.895 3.764 2.796 6.008 6.659 7.516 11.718.631 2.113.764 4.922.445 7.367-.213 1.63-.408 3.223-.891 4.598-1.893 5.405-5.018 9.537-9.789 12.114-2.404 1.298-5.023 2.394-8.158 2.818-1.672.227-3.355.125-5.143.148-1.711.022-3.477-.077-5.24-.049-1.842.028-3.688 0-5.488 0-1.35 0-2.66.05-4.006 0-.331-.013-.831.067-1.085-.248z"/><path d="m36.49 20.079c-1.045-1.792-1.947-3.505-3.215-5.093-.816-1.026-2.014-1.881-3.115-2.769-2.775-2.243-6.34-3.799-10.975-4.055-1.09-.06-2.045-.003-3.164 0-3.186.011-6.383-.039-9.494-.049-1.595-.004-3.337.05-5.043.05-.465 0-1.074.124-1.434-.247.275-.353.775-.145 1.186-.148 4.133-.035 8.019-.009 12.113 0 .678.002 1.301-.029 1.93-.049 2.537-.082 5.391-.016 7.664.544 2.859.704 5.217 2.017 7.268 3.659.852.683 1.74 1.328 2.473 2.077.312.321.645.757.988 1.137.795.878 1.34 1.894 1.928 3.016.32.608.722 1.195.89 1.927z"/><path d="m35.6 23.639c-.588-1.514-.971-2.996-1.682-4.351-.629-1.202-1.664-2.41-2.619-3.511-.705-.811-1.541-1.457-2.424-2.175-.783-.639-1.566-1.115-2.619-1.631-.615-.302-1.236-.707-1.83-.94-3.316-1.299-8.01-1.027-12.607-1.038-3.287-.008-6.699.129-9.691.149-.672.004-1.479.045-2.076-.247.02-.338.661-.295.888-.298 5.035-.08 10.482.143 15.328.049 3.043-.059 6.086.26 8.406 1.137.326.124.646.391.988.544 2.33 1.042 4.338 2.66 5.982 4.4.969 1.024 1.635 2.288 2.373 3.56.733 1.261 1.319 2.728 1.583 4.352z"/><path d="m46.676 9.844c.152.073.104.401.049.544-.182-.043-.086-.419-.049-.544z"/><path d="m46.676 11.228c.24 1.892.08 4.53.049 6.774-.274-2.191-.125-4.657-.049-6.774z"/><path d="m31.842 19.387c-.135.141-.449-.366-.543-.594-.928-1.289-1.85-2.343-3.115-3.412-.892-.753-1.752-1.238-2.867-1.829-1.055-.558-2.025-.927-3.461-1.236-.711-.153-1.502-.37-2.226-.395-4.641-.166-9.66-.049-14.783-.049-1.266 0-2.506-.02-3.807 0-.311.005-.732.133-.988-.148.176-.346.672-.198.94-.198 5.412.001 10.711.042 16.068.05 1.373.002 2.641-.054 3.955.148 1.355.208 2.566.713 3.709 1.088 2.903 1.659 5.581 3.547 7.118 6.575z"/><path d="m29.865 19.783c-.203.117-.434-.283-.594-.495-1.223-1.622-2.807-2.96-4.697-4.054-2.17-1.256-5.18-1.539-8.455-1.434-3.572.114-7.607 0-11.273-.049-.879-.012-1.902.007-2.867.049-.652.029-1.416.131-1.977-.198.283-.419.939-.266 1.383-.247 1.5.063 3.477.02 4.945-.05 1.264-.06 2.514.097 3.758.099 2.254.005 4.475-.007 6.625 0 1.369.004 2.568-.033 3.758.148 3.102.473 5.242 1.851 7.119 3.56.863.786 1.711 1.644 2.275 2.671z"/><path d="m.199 15.135c4.625-.089 9.25.22 13.992 0 3.764-.175 7.275.119 9.691 1.385.801.419 1.637 1.145 2.373 1.78.728.63 1.391 1.422 1.928 2.175 1.129 1.583 2.066 3.828 2.225 6.032.238 3.329-.666 5.997-1.977 8.059-1.318 2.073-3.16 3.684-5.488 4.647-2.553 1.057-5.646.94-9 .94-4.055 0-7.85-.17-11.865 0-.682.028-1.529.079-2.076-.248.309-.361 1.033-.188 1.631-.198 3.611-.055 7.639.002 11.371-.049 1.596-.022 3.137.164 4.549.148 2.41-.027 4.65-.553 6.477-1.532.824-.441 1.629-1.182 2.324-1.879.736-.737 1.396-1.399 1.93-2.274 1.068-1.758 1.891-3.957 1.976-6.378.027-.752-.174-1.651-.297-2.422-.361-2.275-1.545-4.066-2.67-5.488-1.512-1.913-3.947-3.502-6.773-4.055-1.527-.298-3.387-.198-5.143-.198-3.551 0-6.967.099-10.531 0-1.262-.035-2.408 0-3.855 0-.272 0-.932.189-.988-.346.071-.026.122-.073.196-.099z"/><path d="m52.51 15.579c.057-.008.088.011.1.05.135 4.495.023 9.367-.051 14.141-.176-4.753-.159-9.662-.049-14.191z"/><path d="m40.84 15.926c.518.539.771 1.338.99 2.176-.342-.713-.773-1.337-.99-2.176z"/><path d="m43.363 16.667c.494.989.955 2.011 1.186 3.263-.496-.987-.779-2.185-1.186-3.263z"/><path d="m.199 17.014c5.992.097 12.926-.083 18.59.049 2.395.056 4.164 1.138 5.785 2.077 1.549 1.557 3.064 3.353 3.709 5.785.65 2.457.203 4.926-.496 6.872-.703 1.964-2.203 3.296-3.361 4.549-.836.469-1.73 1.096-2.769 1.434-2.918.949-6.828.495-10.629.495-3.283 0-6.518 0-9.889 0-.332 0-.914.164-1.137-.248.277-.381.832-.201 1.186-.198 3.373.035 6.894.073 10.137.099 1.248.01 2.572-.121 3.758-.099 2.045.038 3.84.213 5.488-.198 2.662-.664 4.517-2.138 5.932-4.153 1.006-1.433 1.936-3.682 1.93-6.131-.002-.707-.246-1.603-.445-2.373-.68-2.624-2.521-5.019-4.6-6.181-1.127-.63-2.779-1.197-4.252-1.335-1.605-.151-3.346 0-4.994 0-4.324 0-8.291-.048-13.053-.049-.672 0-1 .108-1.037-.247.026-.071.075-.121.147-.148z"/><path d="m.248 18.942c3.574-.046 7.293.099 11.076.099 2.66 0 5.326-.24 7.713-.05 1.75.14 3.334.949 4.498 1.879 1.039.829 1.801 1.871 2.375 3.264.346.839.701 1.684.592 2.818-.381-1.655-.826-3.104-1.631-4.351-.588-.911-2.168-2.086-3.215-2.522-2.393-.997-5.832-.797-9.047-.742-3.459.06-7.305.05-10.976.05-.275 0-.611-.016-.939-.05-.166-.017-.685.123-.643-.296.072-.026.125-.073.197-.099z"/><path d="m42.176 18.942c.369.474.645 1.404.84 2.324.361 1.693.93 3.517.693 5.587-.23-1.389-.416-2.705-.594-4.054-.181-1.397-.732-2.531-.939-3.857z"/><path d="m32.09 19.931c.289.271.502.619.594 1.088-.307-.255-.41-.712-.594-1.088z"/><path d="m46.676 20.128c.104.417.18 1.285-.051 1.632.027-.534-.057-1.177.051-1.632z"/><path d="m30.014 20.178c.041-.009.047.019.049.049 1.598 2.25 2.525 5.589 2.125 9.592-.068.691-.334 1.471-.543 2.176-.932 3.13-2.578 5.29-4.894 7.07-.742.569-1.566 1.176-2.275 1.533-2.334 1.177-5.295 1.52-8.504 1.483-4.477-.051-9.482-.099-14.189-.099-.613 0-1.428.17-1.779-.247.168-.417.711-.209 1.037-.198 1.186.041 2.637.004 3.906 0 4.047-.013 8.584.049 12.658.049 1.137 0 2.129-.078 3.064-.198.895-.115 1.666-.452 2.473-.742 1.609-.579 2.885-1.508 4.103-2.373 2.266-2.208 4.486-5.197 4.797-9.444.265-3.665-.747-6.298-2.028-8.651z"/><path d="m.248 20.722c5.352-.062 11.113.085 16.365.099 1.244.003 2.377-.102 3.512.248 1.328.409 2.336 1.201 3.262 2.076.611.972 1.316 1.85 1.385 3.362-.326-.296-.266-.733-.395-1.088-.736-2.011-2.658-3.8-5.094-4.153-1.625-.236-3.557-.043-5.34-.049-4.174-.013-8.705-.074-12.559-.148-.41-.008-1.074.27-1.334-.198.1-.016.097-.135.198-.149z"/><path d="m44.746 20.771c.26.235.318.672.297 1.187-.236-.257-.299-.689-.297-1.187z"/><path d="m36.885 21.216c.744 1.68 1.174 3.673 1.139 6.131-.283-1.283-.344-2.788-.594-4.104-.186-.67-.432-1.282-.545-2.027z"/><path d="m40.891 21.513c.785 1.876 1.027 4.748.84 7.219-.145 1.922-.123 3.971-.891 5.34.135-1.685.727-3.38.793-5.191.088-2.459-.277-4.938-.793-7.169-.006-.09.062-.106.051-.199z"/><path d="m32.981 21.809c.383.425.524 1.09.643 1.78-.214-.594-.575-1.041-.643-1.78z"/><path d="m50.531 22.057c.059.392.307 1.081 0 1.384-.009-.449-.115-.962 0-1.384z"/><path d="m46.625 22.156c.312.301.221 1.204 0 1.533.008-.57-.088-1.003 0-1.533z"/><path d="m.199 22.551c3.51.041 7.779.089 11.471.099 2.303.006 4.967-.191 6.971 0 1.139.108 2.125.766 2.918 1.285.424.613.916 1.16 1.137 1.978-.234-.31-.447-.642-.643-.989-.873-.849-1.76-1.738-3.264-1.879-1.611-.151-3.731-.007-5.488 0-2.787.01-5.961-.056-8.9-.05-.76.002-1.514-.11-2.225-.099-.693.012-1.584.302-2.174-.148-.01-.042.018-.046.049-.049.027-.071.076-.12.148-.148z"/><path d="m45.143 22.65c.473.621.352 1.863.445 2.966.035.418.254.916-.051 1.187.004-1.519-.32-2.711-.394-4.153z"/><path d="m48.604 23.639c.111.052.02.31.049.445-.157-.009-.114-.365-.049-.445z"/><path d="m50.531 23.837c.271.65.141 1.917.1 2.719-.287-.703-.184-1.917-.1-2.719z"/><path d="m.002 30.462c.338-.352.922-.198 1.334-.198 5.316 0 10.891.16 16.168.148.594-.001 1.297-.079 1.779-.247 1.115-.389 2.125-1.915 1.582-3.461-.264-.752-1.268-1.657-2.225-1.78-1.248-.161-2.777-.054-4.301-.05-1.385.003-2.848-.072-4.252-.049-3.023.049-6.025.094-8.455.099-.348 0-.734-.076-1.039-.099-.193-.015-.642.254-.542-.346 5.008-.071 11.516.055 16.662.099 1.012.009 2.043-.117 2.818.248.902.424 1.814 1.626 1.682 3.066-.16 1.717-1.33 2.86-3.215 2.917-1.453.044-3.09-.144-4.697-.148-3.914-.009-7.824 0-11.767 0-.495-.001-1.114.139-1.532-.199z"/><path d="m48.604 24.677c.117.098.117.344.049.495-.147-.069-.104-.358-.049-.495z"/><path d="m35.799 24.826c.16.2.244.577.146.89-.183-.221-.185-.565-.146-.89z"/><path d="m46.625 25.023c.059-.008.088.011.1.049.158 9.219.057 18.291-.049 27.392-.396-.473-.1-1.233-.1-1.829 0-8.181-.136-17.375.049-25.612z"/><path d="m48.604 25.716c.113.084.018.377.049.543-.124-.101-.118-.386-.049-.543z"/><path d="m35.945 26.259c.211.153.049.677.1.989-.176-.187-.07-.654-.1-.989z"/><path d="m18.69 26.556c.342.22.535.586.645 1.039-.199 1.486-1.438 1.245-3.115 1.186-4.674-.162-9.42-.05-14.289-.05-.658 0-1.371.116-1.928-.198.363-.423 1.043-.264 1.531-.247 1.572.054 3.387 0 5.191 0 2.635 0 5.379.109 7.764.049.754-.019 1.768.116 2.619.099.777-.016 1.768.043 1.879-.791-.014-.868-1.025-.837-1.73-.84-5.361-.029-10.742-.049-16.266-.05-.266 0-.891.182-.94-.297.08.014.084-.046.149-.049 6.171.054 12.466-.055 18.49.149z"/><path d="m48.555 26.507c.217.26.041.914.098 1.335-.307-.198-.096-.97-.098-1.335z"/><path d="m60.272 26.852c.059-.008.088.011.1.05.098 2.018.109 4.117.148 6.18.02 1.038-.033 2.051-.049 3.065-.012.674.109 1.344.098 2.027-.008.496-.147.985-.148 1.483-.01 2.994-.006 5.879.1 8.9.053 1.505 0 3.021 0 4.598 0 .474.172 1.03-.1 1.483-.494-.269-.162-1.157-.148-1.631.047-1.565-.094-3.161-.049-4.747.137-4.871-.053-9.63 0-14.438.025-2.267-.066-4.554.049-6.823-.001-.047-.001-.097-.001-.147z"/><path d="m22.943 27.051c.154.093.121.58.049.742-.142-.129-.119-.549-.049-.742z"/><path d="m54.438 27.298c.043-.009.047.019.049.049.238 4.715.035 9.953.1 14.685.027 2.055 0 4.379 0 6.773 0 1.932.135 3.858-.049 5.785-.346-.217-.19-.705-.197-.989-.031-.982.049-2.166.049-3.312 0-3.349-.269-6.822-.049-10.284.168-2.644-.051-5.334-.051-7.911 0-1.045.174-2.073.148-3.065-.014-.563-.2-1.134 0-1.731z"/><path d="m26.453 27.347c.057-.008.088.011.1.05.246 1.136-.215 2.299-.496 3.164-.246.762-.432 1.257-.84 1.879-.252.385-.433.792-.642 1.088-.512.726-1.479 1.446-2.324 1.879-.606.31-1.473.622-2.274.791-1.814.381-4.139.148-6.478.148-4.043 0-7.582-.236-11.668-.049-.615.028-1.314.277-1.779-.198.248-.443.994-.183 1.533-.198 2.983-.083 6.432.039 9.838.049 1.649.005 3.297-.048 4.846 0 2.891.09 5.02-.268 6.725-1.582.641-.494 1.369-.951 1.779-1.582.314-.482.525-1.141.84-1.731.562-1.049.732-1.998.842-3.56-.002-.049-.002-.098-.002-.148z"/><path d="m45.588 27.397c.184.051.088.46.049.593-.129-.106-.119-.429-.049-.593z"/><path d="m34.067 27.644c.185.045.064.397.1.593-.253-.076-.083-.356-.1-.593z"/><path d="m50.531 27.693c.043-.009.047.02.051.049.262 1.355.055 2.928.049 4.401-.004.646.221 1.433-.1 1.978-.107-1.976-.201-4.469 0-6.428z"/><path d="m43.66 27.792c.258.173.135.775.049 1.038-.205-.209-.172-.771-.049-1.038z"/><path d="m35.996 28.039c.041-.009.047.019.049.049-.01.042.019.047.049.049-.168 6.794-3.285 11.057-7.316 14.141-.67.513-1.375.973-2.176 1.384-1.791.919-3.902 1.86-6.476 2.077-1.666.14-3.342.081-5.094 0-.826-.038-1.668.109-2.522.099-3.791-.046-7.643.036-11.668-.099-.244-.008-.672.091-.791-.247.426-.341 1.18-.137 1.828-.148 4.652-.086 9.43.049 14.24.049 1.494 0 2.844-.034 4.152-.149 2.477-.216 4.551-1.076 6.43-2.077 4.26-2.27 7.6-6.158 8.799-11.57.234-1.055.432-2.051.445-3.411.028-.038.053-.079.051-.147z"/><path d="m22.893 28.138c.176.119-.012 1.031-.148 1.384-.326.852-1.176 1.909-1.68 2.274-1.953 1.415-6.328.761-9.346.742-3.596-.023-7.1.069-10.828.049-.27-.001-.766.141-.889-.247.203-.376.723-.213 1.037-.198 2.918.144 6.125.067 9.098.099 1.594.017 3.389.05 5.143.049 1.793 0 3.494.105 4.795-.396 1.49-.571 2.533-2.001 2.818-3.756z"/><path d="m37.924 28.386c.182.18.129.897 0 1.088-.225-.249-.01-.763 0-1.088z"/><path d="m48.604 28.534c.223.221.023.792 0 1.088-.104-.27-.051-.809 0-1.088z"/><path d="m45.588 28.682c.137 2.34-.412 4.964-1.039 7.169-.371 1.308-1.078 2.812-1.68 3.955.172-.684.486-1.448.791-2.225.295-.756.559-1.456.791-2.274.443-1.574.873-3.339.988-5.191.034-.534-.05-1.013.149-1.434z"/><path d="m34.067 28.979c.135.059 0 .258 0 .346-.133-.059 0-.258 0-.346z"/><path d="m43.609 29.078c.059-.008.088.011.1.049-.17 5.226-1.939 9.477-4.154 12.955-1.06 1.666-2.447 3.279-3.955 4.647-3.078 2.797-6.646 4.625-11.174 5.983-2.293.688-4.908.791-7.812.791-4.166 0-8.479-.083-12.607 0-.686.014-1.389-.022-2.076-.05-.639-.025-1.359.177-1.928-.198.275-.474.936-.259 1.383-.247 3.164.087 6.004-.098 9.098.049 1.385.066 2.879.062 4.252 0 2.859-.13 5.617.029 8.158-.445 1.025-.191 2.057-.546 3.066-.841.982-.287 1.916-.708 2.768-1.137 1.807-.909 3.461-1.729 4.945-2.868 2.977-2.283 5.352-5.006 7.168-8.405.826-2.077 1.824-4.021 2.275-6.625.09-.523.148-1.114.248-1.681.107-.628.029-1.318.246-1.83-.001-.048-.001-.098-.001-.147z"/><path d="m24.525 29.474c.057-.008.088.011.098.049-.531 1.812-1.682 3.419-3.262 4.252-2.725 1.434-7.574.583-11.324.742-2.266.096-4.635 0-6.822 0-.578 0-1.164 0-1.73 0-.465 0-1.139.186-1.482-.248.34-.434 1.225-.247 1.928-.247 2.062 0 4.123.006 6.279 0 3.568-.011 7.262.308 10.383.099 3.059-.205 4.959-2.072 5.883-4.5.026-.039.051-.08.049-.147z"/><path d="m33.969 29.721c.008 2.219-.889 4.453-1.83 6.032-1.455 2.444-3.041 4.21-5.437 5.686-.412.253-.834.482-1.287.692-.445.207-.822.509-1.236.692-3.51 1.555-9.246 1.15-14.287 1.038-2.471-.055-4.908.05-7.566.049-.775 0-1.637.17-2.322-.247.172-.379.678-.205.988-.198 5.053.121 10.033-.05 15.08.049.984.019 1.99.046 2.916 0 3.693-.184 6.465-1.501 8.9-3.312 3.214-2.391 5.011-5.578 6.081-10.481z"/><path d="m37.775 30.067c.217.335-.102.94 0 1.483-.812 3.757-2.355 6.807-4.5 9.246-3.111 3.54-7.561 6.4-13.646 6.922-2.065.177-4.338 0-6.723 0-3.793 0-7.686-.049-11.471-.049-.449 0-1.074.165-1.434-.247.119-.43.814-.198 1.334-.198 6.15.001 12.902.231 18.738-.049 2.285-.109 4.297-.813 6.082-1.582 2.594-1.117 4.81-2.842 6.676-4.796 2.508-2.63 4.127-6.124 4.943-10.581.001-.051.001-.1.001-.149z"/><path d="m52.51 30.165c.041-.009.047.019.049.049.244 6.648.008 14.44 0 21.31 0 .318.135.666.148.989.027.648-.109 1.37-.148 1.978-.283-.243-.135-.64-.148-.939-.115-2.727-.049-5.712-.049-8.554 0-3.729.201-7.577 0-11.323-.029-.545.096-1.049.1-1.582.004-.603-.25-1.223.049-1.78-.001-.048-.001-.098-.001-.148z"/><path d="m48.555 31.056c.193.266.096 1.036.049 1.384-.18-.293-.102-1.012-.049-1.384z"/><path d="m48.604 32.835c.053.012.033.098.1.099.012.399-.037.86.049 1.187-.027.576 0 1.33 0 2.077 0 .736.123 1.517-.197 1.978-.103-1.571-.007-3.617.048-5.341z"/><path d="m40.742 34.418c.057-.008.088.011.098.049-.381 1.923-1.215 3.643-2.125 5.192-2.713 4.614-6.48 8.021-11.768 10.136-1.752.702-3.703 1.264-5.785 1.533-2.166.279-4.467.197-6.971.198-4.09.001-8.355-.049-12.658-.049-.481 0-1.147.183-1.531-.247.164-.423.908-.248 1.434-.248 3.695 0 7.35.019 10.926.099 2.129.048 4.301.063 6.328 0 1.982-.062 4.016-.3 5.688-.84 6.668-2.156 11.441-5.863 14.586-11.57.318-.58.654-1.249.939-1.929.283-.676.441-1.466.74-2.175.017-.066.088-.079.099-.149z"/><path d="m50.531 34.418c.059-.008.088.011.1.049.039 1.79.154 3.865-.049 5.538-.359-.695-.047-1.521-.051-2.274-.004-.996-.089-2.17 0-3.313z"/><path d="m48.604 38.571c.199.222.076.829.049 1.137-.311-.212-.057-.792-.049-1.137z"/><path d="m48.604 40.103c.25 2.729.105 5.618.1 8.405-.002.396.074.793.049 1.187-.102 1.583-.09 3.315-.1 4.796-.408-.365-.113-1.154-.098-1.632.029-1.033-.053-2.168-.1-3.313-.098-2.417.004-5.049.049-7.318.016-.721-.09-1.543.1-2.125z"/><path d="m.002 55.085c.441-.351 1.074-.248 1.582-.247 4.088 0 8.393.049 12.41.049 2.481 0 4.752.124 6.922-.049 2.064-.166 4.059-.674 5.883-1.286 5.43-1.819 9.516-4.854 12.756-8.801.822-1 1.492-2.028 2.176-3.213.223-.384.406-.833.693-1.137.018-.065.086-.078.098-.148.059-.008.088.011.1.049-1.41 3.149-3.432 5.637-5.785 7.862-.766.724-1.697 1.293-2.57 1.978-1.646 1.289-3.641 2.491-5.834 3.263-2.232.786-4.648 1.586-7.219 1.879-3.375.384-7.019.05-10.631.049-2.676 0-5.334 0-8.109 0-.812-.001-1.745.173-2.472-.248z"/><path d="m50.531 40.301c.043-.009.047.02.051.05.287 4.502.055 9.747.049 14.19-.428-.387-.219-1.018-.197-1.533.113-2.838 0-5.937 0-8.9 0-1.256-.039-2.647.049-3.659-.014-.079.046-.084.048-.148z"/><path d="m64.229 51.772c.133.258.236.719.246 1.138.014.599-.018 1.312-.148 1.681-.27-.249-.174-.871-.197-1.385-.024-.508.04-1.044.099-1.434z"/><path d="m46.625 52.712c.033.542.135 1.217 0 1.681-.34-.379.039-1.132 0-1.681z"/><path d="m42.572 15.135c.187.011.367.455.443.742-.24-.156-.281-.509-.443-.742z"/></g></svg>