<svg enable-background="new 0 0 13.062 13.396" viewBox="0 0 13.062 13.396" xmlns="http://www.w3.org/2000/svg"><path d="m.522.012c.093-.019.188-.009.282-.011 1.47.001 2.941 0 4.411 0 .557.031 1.017.621.87 1.168-.084.205-.174.41-.299.593-.203.312-.453.605-.554.97-.067.312-.002.655.204.903.111.117.218.244.366.315.428.221.973.185 1.372-.083.388-.239.591-.689.658-1.126.063-.51-.097-1.031-.387-1.452-.205-.247-.454-.49-.785-.544-.001-.014-.003-.041-.004-.055.224-.119.472-.185.722-.221.398-.067.806-.088 1.206-.028.526.103 1.011.345 1.47.614.261.173.525.347.75.566.175.132.335.286.468.461.411.443.736.961.997 1.506.479.994.806 2.085.789 3.195.054 1.604-.502 3.219-1.518 4.461-.203.207-.368.452-.607.623-1.008.931-2.359 1.462-3.724 1.529-2.164-.003-4.328 0-6.492-.001-.192-.012-.393-.087-.515-.242-.176-.248-.209-.561-.201-.857.001-3.802 0-7.605.001-11.408.026-.253.034-.547.24-.729.072-.082.178-.117.28-.147zm7.93.849c-.206.071-.332.314-.253.521.061.198.287.304.484.272.163-.054.315-.201.311-.382.035-.278-.282-.513-.542-.411z"/></svg>