<svg enable-background="new 0 0 10.574 10.573" viewBox="0 0 10.574 10.573" xmlns="http://www.w3.org/2000/svg"><path d="m.001 0c1.746.002 3.492.002 5.238.002.439-.005.881.036 1.305.152.043.007.089.005.126.03.075.018.15.036.222.064.033.006.066.017.096.032.033.009.064.02.095.032.045.016.09.033.135.049.052.026.105.045.159.064.159.081.323.151.477.241.07.032.131.079.2.114.04.027.081.053.122.08 1.277.828 2.174 2.236 2.34 3.752.037.108.02.223.03.334.039.217.039.442.001.66-.008.37-.084.735-.174 1.094-.06.17-.102.346-.177.511-.029.077-.055.155-.096.226-.059.147-.139.283-.21.425-.179.315-.389.613-.626.887-.288.301-.58.603-.928.836-.062.045-.125.089-.19.13-.033.021-.066.042-.099.063-.075.043-.147.092-.225.129-.133.076-.276.135-.41.208-.054.02-.109.038-.16.064-.054.022-.11.041-.164.064-.065.019-.129.039-.191.065-.034.005-.067.016-.097.032-.066.016-.131.033-.197.049-.393.111-.8.142-1.203.182-.782.009-1.564-.008-2.346-.005-1.017 0-2.034 0-3.05 0-.005-1.237-.001-2.474-.003-3.712.354-.356.71-.71 1.065-1.065.16-.165.333-.319.476-.5 0-.009 0-.028 0-.038-.51-.514-1.016-1.031-1.532-1.539-.001-.819 0-1.639 0-2.458-.017-.418-.006-.836-.009-1.254zm3.149 3.147v.562c-.525.522-1.047 1.049-1.573 1.57.504.499.996 1.01 1.502 1.509.031.034.084.065.071.121-.01.168-.008.336-.007.504.774.001 1.549.002 2.323 0 .75-.017 1.441-.517 1.748-1.192.288-.613.276-1.36-.037-1.962-.208-.405-.549-.742-.959-.941-.053-.02-.106-.039-.157-.064-.141-.046-.286-.088-.433-.104-.826-.007-1.652-.003-2.478-.003z"/></svg>