<svg enable-background="new 0 0 35.263 35.202" viewBox="0 0 35.263 35.202" xmlns="http://www.w3.org/2000/svg"><path d="m12.98.044c2.988-.032 5.977-.056 8.966-.039.148-.018.183.147.225.252 4.319 11.64 8.696 23.257 13.092 34.869-2.872-.011-5.753.05-8.619.003-.844-2.367-1.699-4.732-2.535-7.102-1.525-.012-3.049-.008-4.574-.003-.01-2.376-.003-4.752-.007-7.129.69-.032 1.38-.001 2.071-.022-1.423-3.998-2.748-8.063-4.284-12.002-1.407 4.006-2.871 7.995-4.172 12.036.666.036 1.333-.004 2 .024-.014 2.363-.007 4.727-.006 7.09-1.504.015-3.008.011-4.512.012-.86 2.379-1.669 4.777-2.516 7.161-2.703.001-5.406.014-8.109.004 4.224-11.756 8.732-23.407 12.98-35.154z"/></svg>