<svg enable-background="new 0 0 9.26 13.816" viewBox="0 0 9.26 13.816" xmlns="http://www.w3.org/2000/svg"><path d="m.008.323c.788-.26 1.624-.338 2.449-.321 1.145.015 2.283.329 3.288.876.797.441 1.493 1.053 2.06 1.763.811 1.042 1.317 2.322 1.424 3.638.089.898-.017 1.812-.274 2.676-.361 1.174-1.039 2.252-1.957 3.071-.907.831-2.051 1.389-3.253 1.637-.434.093-.877.126-1.319.152-.734-.003-1.476-.055-2.186-.259-.076-.025-.16-.035-.226-.082-.024-.049-.009-.106-.012-.157.006-1.97-.006-3.94.006-5.91.103.016.105.133.14.209.255.705.901 1.24 1.635 1.382.221.052.452.032.678.028.496-.063.976-.29 1.321-.654.331-.331.543-.777.605-1.24.119-.86-.345-1.766-1.112-2.172-.485-.27-1.071-.36-1.609-.212-.611.159-1.154.579-1.43 1.151-.084.135-.093.304-.196.427-.02-.035-.033-.073-.038-.113.001-1.832 0-3.665.001-5.497-.001-.131-.004-.262.005-.393z"/><path d="m2.039 6.595c.142-.053.339-.014.398.141.09.175-.06.401-.25.41-.138.005-.283-.09-.304-.233-.031-.127.045-.257.156-.318z"/></svg>