<svg enable-background="new 0 0 85.044 53.821" viewBox="0 0 85.044 53.821" xmlns="http://www.w3.org/2000/svg"><g clip-rule="evenodd" fill-rule="evenodd"><path d="m83.305 0c.484.176-.073.571-.349.598-3.914 1.86-7.959 3.651-11.899 5.526-.519.247-1.173.4-1.543.896 1.182.269 2.492.149 3.784.149 3.797 0 7.969-.081 11.65.1.239 14.555-.051 29.585-.05 44.062 0 .677.138 1.318-.101 1.942-5.774.169-11.464.148-16.977-.05-.212-1.823-.1-3.708-.1-5.576.001-13.215-.002-26.989.198-40.378.414-.595 1.173-.763 1.793-1.045 3.188-1.454 6.302-3 9.559-4.431 1.365-.599 2.68-1.279 4.035-1.793z"/><path d="m10.616 53.821c-.226-13.764.001-28.014 0-41.872 0-.871.121-1.793-.149-2.639-1.23.237-2.078 1.054-2.888 1.743-.824.701-1.617 1.435-2.439 2.141-1.249 1.068-2.509 2.059-3.784 3.137-.4.338-.745.879-1.345.946-.092-.453.447-.729.697-.946 2.088-1.811 4.284-3.621 6.423-5.476 2.49-2.161 5.709-3.689 9.857-3.934 5.688-.334 9.613 1.834 12.497 4.432 2.994 2.697 5.256 6.295 5.775 11.103.605 5.604-1.237 9.938-3.734 12.995-1.291 1.581-2.828 2.803-4.281 4.182-1.447 1.374-3.003 2.598-4.481 3.933-2.001 1.749-4.086 3.416-6.024 5.228-1.051.823-2.017 1.733-3.036 2.588-.479.468-1.049.844-1.494 1.344-.568.298-.937 1.053-1.594 1.095z"/><path d="m66.079 6.92c.04.01.05.05.1.05.191 3.678.049 7.497.05 11.351.002 5.87-.05 11.7-.05 17.675.001 5.346-.155 10.658-.1 16.032.004.391.233.889-.149 1.195-.426-.228-.249-.826-.249-1.195.001-5.178-.145-10.645.05-15.833.072-1.928.062-3.841-.149-5.626-.732.25-1.249.831-1.792 1.294-.554.473-1.043 1.017-1.643 1.444-7.007 6.015-14.444 12.527-21.658 18.72-.479.411-1.171 1.086-1.593 1.195-.811.208-2.049.05-3.137.05-7.358 0-15.059.111-22.105-.149.326-.648.96-1.134 1.493-1.593 1.63-1.403 3.294-2.868 4.929-4.332 6.576-5.722 13.095-11.501 19.616-17.276 8.771-7.625 17.475-15.318 26.238-22.952.08.014.085-.047.149-.05z"/></g></svg>