<svg enable-background="new 0 0 60.188 76.767" viewBox="0 0 60.188 76.767" xmlns="http://www.w3.org/2000/svg"><g clip-rule="evenodd" fill-rule="evenodd"><path d="m34.699 23.449c-1.014.24-2.948.234-3.963 0-.374-.797-.142-1.713-.145-2.609-.019-5.086 0-11.262 0-16.865 0-.951-.102-2.064.145-2.658.254-.613 1.028-1.236 1.74-1.307 1.072-.103 1.985.66 2.271 1.307.285.641.143 1.709.145 2.609.009 4.846 0 10.019 0 15.416.001 1.423.15 2.841-.193 4.107z"/><path d="m39.58 32.148c-.457-1.145-.193-2.48-.193-3.77 0-3.939.08-8.076 0-11.84-.055-2.594.11-5.234.048-7.83-.062-2.578-.141-5.166.241-7.588.645-1.375 3.081-1.291 3.722.34.321.816.145 2.367.145 3.721.001 6.533-.001 13.129 0 19.381 0 1.186.063 2.523 0 3.963-.045 1.021.127 3.23-.29 3.623-.553.526-3.129.215-3.673 0z"/><path d="m52.097 23.498c-.483.242-1.296.145-2.029.145-.749 0-1.537.107-1.982-.193-.257-.85-.145-1.781-.145-2.705 0-5.322.05-10.988.049-16.48 0-.951-.131-2.016.097-2.707.318-.965 1.474-1.869 2.899-1.354.457.166 1.079.795 1.257 1.305.239.689.066 1.809.048 2.707-.094 4.541 0 9.115 0 13.822v2.852c0 .899.14 1.826-.194 2.608z"/><path d="m8.649 63.515c2.662 3.525 6.183 6.178 10.73 7.588 2.397.742 5.258 1.246 7.974 1.014 2.686-.229 5.204-.734 7.395-1.74 4.576-2.098 7.404-4.781 9.762-8.553 1.692-2.705 3.084-6.158 3.19-10.537.013-.516.074-1.354.097-2.174.024-.926-.123-1.609.241-1.934.334-.297 1.322-.193 2.03-.193.601 0 1.711-.094 2.029.193.38.342.252 1.34.193 2.127-.067.918-.023 1.705-.048 2.416-.165 4.775-1.695 8.355-3.335 11.6-1.166 1.893-2.313 3.51-3.673 5.025-1.376 1.535-3.063 2.672-4.688 4.012-1.425 1.174-3.763 2.312-5.751 2.947-2.246.719-4.669 1.225-7.298 1.402-5.559.375-10.398-1.096-14.112-3.189-3.659-2.062-6.782-4.918-9.086-8.266-1.147-1.666-2.196-3.672-2.899-5.799-.353-1.066-.564-2.32-.822-3.527-.262-1.23-.458-2.527-.532-3.818-.313-5.504.971-10.42 3.045-14.258 2.97-5.494 7.712-9.787 14.064-12.033 2.114-.748 4.646-1.377 7.298-1.547 3.358-.215 6.956 0 10.584 0 .967 0 2.777-.195 3.189.242.34.359.193 1.383.193 2.127 0 .736.142 1.838-.242 2.174-.302.266-1.361.193-2.126.193-3.818 0-7.491-.049-11.212-.049-1.522 0-2.921.188-4.06.484-7.136 1.863-12.113 6.478-14.789 12.711-.925 2.157-1.601 4.61-1.69 7.442-.185 5.883 1.658 10.053 4.349 13.92z"/><path d="m59.492 28.234c-.495.318-.96.705-1.643.773-1.999.201-4.37-.1-6.718 0-1.091.045-2.187 0-3.238 0-1.121 0-2.234.113-3.19-.145-.345-.336-.242-1.439-.242-2.416 0-1.145-.107-1.977.725-2.127.899-.162 2.269 0 3.48 0 2.085 0 4.736.029 6.814.049 1.343.012 2.728-.178 3.576.338 1.054.639 1.507 2.44.436 3.528z"/><path d="m30.543 29.925c.874-.473 3.207-.408 4.156-.049.368.631.242 1.67.242 2.658v5.801c0 .871.11 2.211-.29 2.561-.342.301-1.418.219-2.03.193-.607-.025-1.709.15-2.078-.242-.336-.355-.211-1.932-.193-2.609.073-2.877-.207-5.816.193-8.313z"/><path d="m52.291 30.119c.235 2.4.111 5.531.097 8.217-.004.836.122 2.189-.241 2.561-.334.342-1.403.242-2.127.242-.683 0-1.683.131-2.029-.291-.348-.422-.104-1.711-.146-2.609-.121-2.682-.051-5.561.097-8.168.167-.09.236-.279.435-.338 1.215.026 3.272-.376 3.914.386z"/><path d="m43.35 38.625c.259.961.145 2.01.145 2.996 0 5.031.352 10.723-1.015 14.5-.406 1.121-.935 2.164-1.498 3.141-.198.344-.292.744-.483 1.062-.686 1.146-1.7 2.088-2.658 2.998-2.726 2.588-7.121 4.787-12.324 4.59-3.567-.133-6.312-1.152-8.699-2.609-2.302-1.402-4.215-3.305-5.606-5.654-1.486-2.51-2.562-5.266-2.562-8.748 0-7.137 3.273-11.834 7.685-14.885 2.766-1.912 6.093-3.039 10.777-2.947.727.014 1.792-.096 2.127.24.252.254.296 1.418.29 2.078-.006.596-.08 1.809-.338 2.031-.367.316-1.359.193-2.03.193-.736 0-1.553-.078-2.175-.049-1.384.064-2.703.424-3.625.773-3.968 1.502-7.151 4.785-8.168 9.424-.54 2.463-.22 5.254.725 7.49 1.642 3.887 4.809 7.211 9.666 7.975 5.831.918 9.883-1.379 12.614-4.494 1.705-2.164 2.948-4.549 2.948-8.797 0-2.824 0-5.705 0-8.699 0-.871-.122-2.359.242-2.658.361-.295 1.491-.121 1.981-.145.724-.033 1.512-.037 1.981.194z"/><path d="m35.666 33.55c.422-.734 2.026-.482 3.383-.482 1.784 0 3.424.047 5.171.047.81 0 2.11-.129 2.562.146.459.277.338 1.389.338 2.174 0 .723.18 1.799-.338 2.127-.51.322-3.204.094-4.108.096-.949.004-2.204 0-3.528 0-1.061 0-2.917.195-3.335-.289-.683-.791-.026-2.676-.145-3.819z"/><path d="m53.79 33.164c2.516-.025 6.074-.551 6.379 1.836.136 1.066-.436 2.248-1.547 2.562-1.42.4-3.476.016-5.122 0-.077-.117-.173-.213-.29-.291-.185-1.031-.101-2.562-.049-3.672.169-.185.297-.412.629-.435z"/><path d="m34.603 47.082c.443.842.219 1.832.193 2.658-.09 2.879-.824 4.967-2.223 6.525-1.263 1.406-3.387 2.727-5.751 2.9-2.596.189-4.928-.811-6.428-2.176-1.898-1.727-3.258-3.85-2.997-7.441.171-2.354 1.313-4.135 2.803-5.463 1.594-1.418 3.369-2.24 6.042-2.367 2.967-.141 6.165.049 9.134.049.969 0 1.985-.166 2.803.24.356.441.193 1.172.193 2.031 0 .723.099 1.713-.242 2.029-.478.443-2.532.193-3.334.193-1.331 0-2.402 0-3.48 0-2.157 0-5.45-.324-6.959.338-1.276.561-2.083 1.578-2.417 2.754-.858 3.035 1.981 5.938 5.171 5.123 1.471-.375 2.81-1.67 3.093-3.285.139-.797-.227-3.642.338-4.109.33-.271 1.374-.145 2.03-.145.78.001 1.507-.091 2.031.146z"/><path d="m60.121 44.521c-.257.666-.679 1.338-1.306 1.596-.849.348-2.328.191-3.527.193-2.465 0-4.74-.002-7.347 0-.802 0-3.026.186-3.431-.242-.329-.348-.193-1.467-.193-2.078 0-.764-.115-1.641.242-1.982.442-.424 3.667-.266 4.398-.289 1.474-.047 3.319-.037 5.268.049 2.826.122 6.249-.507 5.896 2.753z"/></g></svg>