<svg enable-background="new 0 0 24.48 36.478" viewBox="0 0 24.48 36.478" xmlns="http://www.w3.org/2000/svg"><path d="m19.93.008c.858-.011 1.718-.006 2.576-.008.008 5.311.074 10.619.067 15.931-.088 3.49-.77 7.282-3.348 9.842-2.491 2.471-6.216 2.989-9.57 2.803-.029-.013-.086-.038-.115-.051l.012.055c-2.383-.204-4.784-.901-6.71-2.363-1.672-1.225-2.903-3.192-2.84-5.313-.01-2.368 1.619-4.421 3.556-5.621 5.042-2.854 11.632-2.313 16.419.809-.002-5.361.013-10.723-.047-16.084zm-10.066 15.972c-2.31.19-4.74.918-6.354 2.666-1.079 1.106-1.324 2.912-.395 4.19 2.858-1.972 6.484-2.494 9.878-2.117 1.926.195 3.837.802 5.408 1.956.658-1.056 1.026-2.268 1.251-3.483-2.559-2.494-6.296-3.422-9.788-3.212zm-4.728 8.663c1.759.991 3.806 1.414 5.815 1.358 1.952-.01 4.008-.292 5.656-1.416-1.279-.864-2.83-1.202-4.348-1.324-2.429-.206-5.002.111-7.123 1.382z"/><path d="m23.082 19.387c2.627 4.173 1.418 10.244-2.52 13.176-3.672 2.856-8.649 3.845-13.171 2.878-2.059-.455-4.045-1.4-5.542-2.906-1.936-1.809-2.412-4.954-1.026-7.229.561.703 1.198 1.345 1.93 1.872-.902 2.494 1.544 4.632 3.703 5.313 2.672.928 5.615.935 8.325.156 1.782-.382 3.415-1.333 4.752-2.557-.119-.979-.431-1.921-.754-2.848.677-.534 1.257-1.176 1.788-1.855.332.729.545 1.502.745 2.276.675-1.362.824-2.944.586-4.432.536-1.229.972-2.513 1.184-3.844z"/><path d="m20.313 33.881c.653-.701 1.446-1.258 2.097-1.963.036 1.168.141 2.342.001 3.507-.151.777-1.083 1.328-1.804.909-.886-.47-.929-1.755-.294-2.453z"/></svg>