<svg enable-background="new 0 0 61.692 76.844" viewBox="0 0 61.692 76.844" xmlns="http://www.w3.org/2000/svg"><g clip-rule="evenodd" fill-rule="evenodd"><path d="m44.665 14.958c5.395.339 11.5-.033 16.912.289.258 10.233.002 20.646 0 31.039 0 3.454.098 6.875-.145 10.186-4.945.155-10.764 0-16.047 0-.723 0-1.496.111-2.162-.145-.287-7.683.094-16.051-.193-23.784-.746-.207-1.691-.191-2.594-.191-11.176.001-23.965-.01-35.268-.049-.867-.003-1.746-.086-2.596-.048-.822.037-1.666.113-2.449-.096-.127-5.623-.197-11.51.047-17.106 5.113-.242 10.832-.007 15.953-.097.072-4.504 1.512-7.9 3.844-10.426 2.357-2.555 5.445-4.307 9.898-4.517 4.25-.201 7.729 1.552 10.09 3.699 2.792 2.542 4.668 6.105 4.71 11.246zm-28.35.193c.07 2.534 1.018 5.018 2.115 6.679 2.158 3.271 5.494 5.875 10.137 6.535 4.478.636 8.615-1.194 11.1-3.412 1.277-1.139 2.459-2.538 3.268-4.083.842-1.61 1.535-3.556 1.537-5.767-9.041-.097-18.631-.068-28.012-.096-.069.026-.118.075-.145.144z"/><path d="m18.43 37.445c.252.728.143 1.524.143 2.306 0 5.61.045 11.269-.143 16.577-5.824.114-12.379.101-18.307-.048-.176-5.332-.096-11.159-.096-16.721-.002-.732-.107-1.521.143-2.211 6.086-.056 12.303-.127 18.26.097z"/><path d="m61.432 60.942c.121 4.948.217 10.757-.047 15.855-20.293.119-40.918-.005-61.262-.192-.197-3.581-.096-7.914-.096-11.964-.002-.685 0-1.357 0-2.018-.002-.633-.119-1.306.143-1.874 19.991-.109 41.36-.057 61.262.193z"/></g></svg>