<svg enable-background="new 0 0 79.981 63.164" viewBox="0 0 79.981 63.164" xmlns="http://www.w3.org/2000/svg"><path clip-rule="evenodd" d="m9.894 32.862c-.233 2.852-.145 6.189-.145 9.507 0 5.025-.001 9.602 0 14.525 0 1.701.005 3.222-.579 4.296-.583 1.071-1.668 1.703-2.992 1.882-3.207.433-5.725-.638-6.081-3.523-.185-1.495-.048-3.113-.048-4.825 0-9.884.048-19.445.048-29.004 0-1.78-.023-3.168.482-4.296.929-2.067 3.398-3.673 6.37-2.991 1.199.274 2.279.961 3.138 1.689 1.728 1.466 3.233 3.267 4.922 4.826.848.782 1.572 1.68 2.413 2.461.835.777 1.633 1.633 2.413 2.413 3.121 3.122 6.493 6.348 9.797 9.652s6.343 6.744 10.037 9.41c3.737 2.696 8.504 5.176 14.961 4.344 2.519-.324 4.967-1.511 6.901-2.848 1.983-1.371 3.504-2.957 4.777-4.922 2.485-3.838 4.369-9.131 3.668-15.492-.654-5.938-2.666-10.05-6.032-13.416-3.302-3.301-7.989-5.211-13.079-6.369-5.271-1.201-11.973-1.064-18.387-1.062-6.443.001-12.695.127-19.11-.048-3.142-.087-6.549.227-9.652 0-2.678-.199-4.105-2.723-3.426-5.986.234-1.13.81-1.88 1.544-2.364 1.486-.982 4.612-.676 7.143-.676 8.297-.001 17.127-.052 25.771.048 4.773.055 9.823-.028 14.14.531 8.721 1.13 16.172 3.618 21.379 8.349 2.512 2.281 4.626 5.429 6.178 8.687 1.603 3.366 2.92 7.063 3.378 11.485.468 4.512-.121 9.167-1.352 13.079-2.298 7.305-6.896 12.953-13.029 16.697-3.114 1.9-6.861 3.403-11.148 3.716-4.942.361-8.971-.658-12.643-2.123-7.001-2.793-11.739-7.975-16.746-12.981-4.374-4.373-8.611-8.657-12.982-13.03-.294-.295-.644-.57-.965-.869-.305-.281-.593-.733-1.064-.772z" fill-rule="evenodd"/></svg>