<svg enable-background="new 0 0 47.335 47.335" viewBox="0 0 47.335 47.335" xmlns="http://www.w3.org/2000/svg"><path d="m23.668 0c-13.052 0-23.668 10.616-23.668 23.668s10.616 23.667 23.668 23.667 23.667-10.616 23.667-23.667-10.617-23.668-23.667-23.668zm0 43.535c-10.956 0-19.867-8.909-19.867-19.867s8.912-19.867 19.867-19.867 19.867 8.912 19.867 19.867-8.908 19.867-19.867 19.867z"/><path d="m34.845 12.658c-4.725-4.721-12.361-4.775-17.024-.114l-10.803 10.804 17.138 17.133 10.78-10.776c2.261-2.261 3.51-5.342 3.462-8.54-.016-3.193-1.293-6.251-3.553-8.507zm-22.452 10.69 5.178-5.179 2.661 9.002 9.156 2.707-5.233 5.233zm20.042 3.467-9.144-2.706-2.654-8.995c3.191-3.059 8.323-2.972 11.525.231 1.554 1.553 2.431 3.657 2.44 5.854.032 2.08-.741 4.092-2.158 5.616z"/></svg>