<svg enable-background="new 0 0 75.004 38.655" viewBox="0 0 75.004 38.655" xmlns="http://www.w3.org/2000/svg"><g clip-rule="evenodd" fill-rule="evenodd"><path d="m21.478 0h.099c2.772 4.644 5.233 9.62 7.879 14.428.433.786.906 1.576 1.33 2.363.427.795.704 1.691 1.378 2.314.264-.773.147-1.695.147-2.56.001-5.428-.014-10.648.149-16.151.721.549.998 1.462 1.428 2.216 2.622 4.602 5.218 9.359 7.73 14.083.406.762.766 1.596 1.379 2.216.464-.17.575-.704.788-1.083 3.027-5.398 5.976-11.096 8.962-16.594.201-.371.309-.886.738-1.084.269.921.147 1.899.148 2.856.002 12.132.102 23.398-.099 35.503-.452-.109-.651-.638-.838-.984-2.72-5.059-5.573-10.249-8.321-15.363-.411-.766-.691-1.644-1.329-2.265-.688.568-1.006 1.466-1.429 2.216-2.17 3.847-4.269 7.892-6.4 11.818-.428.786-.882 1.556-1.281 2.363-.38.77-.746 1.648-1.428 2.216-.262-.706-.147-1.517-.147-2.265.001-5.507 0-11.201-.147-16.496-.656.557-.996 1.467-1.428 2.265-2.787 5.139-5.572 10.314-8.372 15.56-.184.345-.472 1.068-.738 1.083-.279.016-.652-.706-.837-1.034-1.161-2.067-2.094-3.963-3.25-6.008-2.217-3.92-4.349-8.039-6.697-11.768-.729.568-1.007 1.479-1.428 2.265-2.73 5.1-5.64 10.209-8.47 15.314-.191.345-.299.92-.788 1.034-.324-3.037-.052-6.179-.147-9.356-.092-3.085-.061-6.25 0-9.307.128-6.398-.177-12.79.099-19.106.731.56.982 1.502 1.429 2.266 2.223 3.805 4.397 7.835 6.547 11.768.855 1.566 1.659 3.165 2.708 4.58.473-.45.81-1.058 1.133-1.625 1.965-3.447 3.882-7.085 5.761-10.686.32-.612.545-1.236.838-1.871.353-.769.971-1.586 1.428-2.462.209-.401.426-.847.64-1.28.221-.446.474-.962.689-1.281.035-.046.089-.074.147-.098zm-2.905 17.678c-.197.347-.647 1.516-.542 2.462.096.861.682 1.94 1.231 2.364 2.301 1.772 6.895.019 5.959-3.841-.071-.293-.353-.907-.641-1.28-.469-.608-1.883-1.581-3.595-1.33-1.169.172-1.996.89-2.412 1.625z"/><path d="m64.22.147h.099c2.777 4.56 5.39 9.498 8.075 14.378.568 1.033 1.328 2.369 2.019 3.595.221.392.579.947.591 1.231.028.636-.945 2.027-1.23 2.511-1.412 2.398-2.702 4.913-3.989 7.239-1.472 2.661-3.201 5.506-4.727 8.371-.171.321-.521 1.034-.788 1.034-.296 0-.552-.703-.738-1.034-.623-1.102-1.267-2.349-1.822-3.398-.843-1.593-1.836-3.01-2.512-4.481-.209-.456-.319-.937-.541-1.378-1.247-2.477-2.628-4.846-4.038-7.387-.233-.42-.633-.92-.641-1.23-.013-.583 1.045-1.977 1.33-2.512 1.193-2.235 2.151-4.135 3.299-6.303.229-.43.342-.87.542-1.329.35-.803.855-1.534 1.231-2.315.377-.784.831-1.523 1.23-2.265.856-1.591 1.606-3.234 2.462-4.628.036-.046.089-.075.148-.099zm-1.921 16.3c-.667.434-1.365 1.247-1.576 2.363-.692 3.687 3.777 5.339 6.058 3.299 1.034-.926 1.58-2.705.837-4.235-.602-1.239-1.859-2.172-3.841-1.92-.607.077-1.123.261-1.478.493z"/></g></svg>