<svg enable-background="new 0 0 52.226 78.473" viewBox="0 0 52.226 78.473" xmlns="http://www.w3.org/2000/svg"><g clip-rule="evenodd" fill-rule="evenodd"><path d="m52.099.289c.17 7.51.168 15.451 0 23.014-1.495.3-3.084.098-4.681.098-4.781.001-9.839-.018-14.481.147-.258.963-.146 2.053-.146 3.12 0 3.133.08 6.637-.097 9.654-5.37.265-10.799-.001-16.237 0-5.483.001-10.934.137-16.285-.098-.239-2.863-.098-5.835-.098-8.825 0-9.032-.155-18.313.098-27.207 2.025-.286 4.859-.035 7.216-.146 2.14-.101 4.34 0 6.437 0 8.45.001 16.996.1 25.549.098 4.298-.003 8.552-.089 12.725.145z"/><path d="m52.051 42.416c.264 1.858.146 3.825.146 5.803 0 5.672.085 11.839-.146 17.163-4.739.229-9.923.008-14.627.146-1.566.047-3.104-.205-4.535.098-.258.964-.146 2.053-.146 3.121 0 3.115.08 6.603-.098 9.605-2.518.196-5.234.097-8.045.098-8.119 0-16.452-.019-24.476-.146-.18-11.083-.098-22.659-.098-34.131 0-.568-.163-1.825.341-1.951.743-.185 2.248-.053 3.364 0 1.079.052 2.226-.001 3.218-.048 2.209-.104 4.456-.001 6.485 0 4.272 0 8.688.099 12.872.097 8.75-.004 17.328-.031 25.745.145z"/></g></svg>