<svg enable-background="new 0 0 63.496 77.566" viewBox="0 0 63.496 77.566" xmlns="http://www.w3.org/2000/svg"><g clip-rule="evenodd" fill-rule="evenodd"><path d="m52.651.024c2.642.002 5.445 0 8.167 0 .88.002 1.785-.115 2.562.146.089 10.064.049 20.6.049 30.93 0 5.258.153 10.576 0 15.465-.152 4.854-1.198 9.07-2.803 12.662-3.05 6.828-8.706 12.326-15.562 15.418-3.658 1.65-7.661 2.666-12.565 2.9-2.48.117-4.885-.289-7.008-.725-2.137-.441-3.962-1.15-5.8-1.934-7.114-3.031-12.514-8.225-16.093-14.887-1.775-3.299-3.083-7.289-3.481-11.982-.413-4.883.299-9.535 1.692-13.484 2.632-7.467 7.569-13.146 14.015-16.963 4.602-2.727 11.153-4.875 18.704-4.109 2.292.232 4.547.406 6.428 1.307.207 3.98.059 8.166 0 11.936-.753-.033-1.382-.457-2.03-.725-4.849-1.994-12.198-1.41-16.335.871-4.8 2.645-8.641 6.711-10.391 12.275-.994 3.158-1.141 6.725-.483 10.004.628 3.135 1.892 5.752 3.431 7.877 3.206 4.426 7.477 7.754 13.871 8.797 3.721.605 7.125-.117 9.907-1.065 2.807-.955 5.085-2.639 6.911-4.396 2.824-2.721 5.129-6.375 6.041-10.971.618-3.117.532-7.023.531-10.537-.002-11.525-.049-23.488-.048-36.006 0-.902-.089-2.354.145-2.705.035-.046.087-.075.145-.099z"/><path d="m31.386 36.079c3.319-.164 5.734 1.471 7.298 3.287.89 1.031 1.765 2.525 2.126 4.348.368 1.855.025 3.883-.677 5.365-.9 1.902-2.773 3.811-4.784 4.736-2.288 1.055-5.343 1.065-7.732-.242-1.304-.711-2.617-1.975-3.528-3.334-.915-1.367-1.658-2.818-1.644-5.172.011-1.721.738-3.602 1.498-4.736.657-.98 1.784-2.074 2.948-2.852 1.167-.777 2.702-1.312 4.495-1.4z"/></g></svg>