<svg enable-background="new 0 0 68.234 77.971" viewBox="0 0 68.234 77.971" xmlns="http://www.w3.org/2000/svg"><g clip-rule="evenodd" fill-rule="evenodd"><path d="m68.065.113c.209 7.243.106 14.663.145 21.809.014 2.435.048 4.902 0 7.318-.19 9.682.149 19.8-.145 29.371-10.564.183-21.744.164-32.522 0-.18-17.903-.098-36.573-.097-54.961 0-1.024-.104-3.085.146-3.538.035-.045.088-.073.145-.098 10.711.066 21.702-.126 32.328.099z"/><path d="m32.586 9.177c.253 3.979.146 8.392.146 12.746 0 2.18.073 4.368 0 6.495-.072 2.098.127 4.164-.146 6.106.125 1.323.21 2.72.146 4.071-.189 3.983 0 8.108 0 12.214v8.579c0 2.833.112 5.677-.146 8.433-10.85.155-21.651.135-32.473-.048-.173-17.764-.096-36.839-.096-55.253 0-.611-.012-1.234 0-1.842.01-.509-.112-1.101.194-1.551 10.722-.108 22.088-.018 32.375.05z"/><path d="m53.622 77.902c-5.775.061-12.186.138-18.079-.048-.193-5.801-.097-12.148-.048-18.03-.002-.083.036-.125.097-.146.655.409 1.827 1.585 2.423 2.182 4.573 4.572 9.062 9.061 13.62 13.619.565.565 1.112 1.096 1.647 1.744.152.185.459.395.34.679z"/></g></svg>