<svg enable-background="new 0 0 77.486 64.349" viewBox="0 0 77.486 64.349" xmlns="http://www.w3.org/2000/svg"><path clip-rule="evenodd" d="m73.024.08c.276 1.232.142 2.69.098 4.092-.045 1.404.213 2.857-.049 4.141-1.916.262-3.962.146-5.992.146-5.159 0-10.005.049-15.199.049-.921-.002-2.001-.223-2.679.34.014.078-.046.084-.049.146-.265 1.244.907 1.822 1.608 2.387 2.267 1.824 4.646 3.561 6.966 5.311 3.085 2.324 6.204 4.711 9.255 7.062 3.044 2.346 5.868 4.902 7.794 8.574 1.36 2.59 2.491 5.639 2.68 9.596.06 1.258.041 2.594-.195 3.85-1.688 8.961-6.908 15.053-15.15 17.535-2.218.668-4.517 1.029-7.161.926-2.579-.1-4.768-.682-6.673-1.461-3.129-1.281-6.243-3.377-8.379-5.943-.327-.393-.729-.918-1.072-.926-.453-.01-1.148.986-1.51 1.414-1.323 1.561-3.066 2.871-4.725 3.945-2.296 1.486-5.263 2.531-8.623 2.922-3.717.434-7.347-.014-10.083-1.119-1.406-.568-2.763-1.105-3.897-1.9-3.321-2.326-6.189-5.373-8.038-9.305-1.242-2.639-2.004-5.945-1.949-9.596.054-3.553 1.073-6.705 2.387-9.158 1.361-2.543 2.989-4.576 5.115-6.43 1.751-1.525 3.713-2.877 6.138-3.801.769-.293 1.602-.484 2.29-.975-.019-.576-.603-.861-.974-1.168-1.878-1.553-4.019-2.982-5.797-4.725-2.029-1.988-4.83-3.898-4.579-8.039.152-2.504 1.259-4.248 2.777-5.65 1.244-1.139 2.841-1.889 4.871-2.142 2.125-.268 4.662-.098 6.917-.098 11.474 0 23.228-.051 34.83-.049 6.587 0 12.917-.096 19.047.049zm-46.716 8.428c-2.897 0-5.652-.002-8.476 0-1.143 0-2.861-.217-3.167 1.07.283 1.272 1.581 1.846 2.484 2.533 2.892 2.197 5.697 4.385 8.574 6.527 3.863 2.881 7.742 5.715 11.301 8.867.618.68 1 1.598 1.9 1.996 1.052-.555 1.561-1.654 2.435-2.387 1.921-1.707 4.066-3.178 6.722-4.238.455-.182 2.389-.684 2.436-1.217.043-.492-.866-.98-1.267-1.365-1.402-1.344-2.91-2.422-4.335-3.555-1.801-1.434-4.227-3.19-5.261-5.262-.492-.984-.448-1.883-.877-2.875-3.97-.27-8.305-.096-12.469-.094zm-9.353 21.968c-3.158 1.143-5.765 3.459-7.161 6.041-1.68 3.105-1.963 7.795-.633 11.252.2.52.28 1.078.487 1.51.442.924 1.207 1.84 1.899 2.582 2.109 2.26 5.386 4.145 9.304 4.238 2.801.066 5.161-.666 7.161-1.852 3.57-2.113 6.625-5.922 6.625-11.398 0-2.865-.782-4.998-2.046-6.967-2.114-3.291-6.261-6.498-11.886-6.137-1.298.085-2.605.317-3.75.731zm32.979.78c-1.806.979-3.506 2.713-4.579 4.287-.981 1.438-2.142 3.938-2.192 6.723-.06 3.281.829 5.697 2.143 7.648 1.301 1.928 3.29 3.645 5.261 4.578 2.431 1.152 5.439 1.621 8.184.975 5.062-1.193 8.761-4.648 9.986-9.645.653-2.666.422-5.756-.731-8.33-.987-2.207-2.454-3.807-4.481-5.359-1.822-1.395-4.44-2.379-7.502-2.338-2.618.033-4.486.593-6.089 1.461z" fill-rule="evenodd"/></svg>