<svg enable-background="new 0 0 80.671 77.488" viewBox="0 0 80.671 77.488" xmlns="http://www.w3.org/2000/svg"><g clip-rule="evenodd" fill-rule="evenodd"><path d="m80.666 77.357c-2.236.209-4.897.083-7.117.051-.529-.126-.771-.689-1.061-1.06-.902-1.155-1.921-2.32-2.776-3.585-1.247-1.58-2.536-3.117-3.635-4.846-6.531-8.31-12.967-16.669-19.436-25.089-.454-.592-.896-1.228-1.363-1.817-.461-.583-1.089-1.105-1.262-1.868 2.342-.179 4.7-.052 7.169 0 .659.322.987 1.011 1.413 1.565 2.917 3.796 6.046 7.668 8.936 11.56 1.241 1.367 2.167 3.049 3.533 4.291.661-.568 1.205-1.393 1.565-2.221 1.119-2.577 2.278-5.193 2.979-8.228.952-4.129 1.036-9.066.252-13.529-.352-2.007-.979-3.947-1.716-5.805-.711-1.793-1.479-3.526-2.424-5.048-3.858-6.225-9.254-10.741-16.508-13.428-3.715-1.379-7.81-1.971-12.973-1.971-9.396-.001-19.858-.082-29.733.101-.266 1.305-.151 2.687-.151 4.039.001 8.23.004 16.478.05 24.888.008 1.295-.04 2.603.202 3.837-.269 1.281-.151 2.608-.151 3.937 0 9.404-.029 18.236.151 27.866 1.864.256 3.886.151 5.907.151 6.049 0 12.451.041 18.425-.051.112-.462-.328-.812-.555-1.11-2.232-2.945-4.588-6.009-6.866-8.986-5.307-6.935-10.758-13.884-16.104-20.849-.221-.288-.626-.58-.605-1.01 1.698-.093 3.657-.067 5.452-.05.604.006 1.229-.148 1.767 0 .56.154 1.297 1.356 1.768 1.969 2.757 3.588 5.358 6.986 8.077 10.5 1.095 1.416 2.104 2.86 3.18 4.24 4.44 5.701 8.724 11.271 12.974 16.709.903 1.182 1.829 2.384 2.777 3.584.296.376.766.737.757 1.262-7.293.215-14.61.102-21.809.101-6.964 0-14.392.097-21.404-.101-.249-1.488-.151-3.043-.151-4.594 0-11.263.04-22.891-.051-34.126-.09-10.94-.102-22.537-.102-33.923 0-.79-.011-1.593 0-2.373.011-.744-.164-1.513.101-2.221 11.901-.183 24.949-.101 36.6-.101 6.184 0 11.126.901 15.549 2.726 4.451 1.837 8.135 4.067 11.358 6.917 3.244 2.868 5.85 6.207 8.128 10.146 2.25 3.893 3.99 8.583 4.645 13.63 1.472 11.37-1.896 20.516-6.411 27.159-.256.375-.854 1.039-.859 1.413-.013.895 1.135 1.129 1.363 2.019 2.538 3.083 4.914 6.327 7.371 9.491.728.917 1.476 1.862 2.221 2.827.222.291.608.592.553 1.011z"/><path d="m25.49 39.092c2.295.01 4.645-.034 6.865.05 1.395 1.432 2.538 3.116 3.786 4.695 1.247 1.581 2.494 3.161 3.686 4.796 6.833 8.715 13.628 17.47 20.394 26.25.57.827 1.384 1.41 1.716 2.474-2.189.234-4.811.035-7.168.101-1.474-1.354-2.501-3.153-3.837-4.645-8.086-10.441-16.161-20.917-24.281-31.399-.521-.672-1.268-1.306-1.363-2.221.074-.027.127-.075.202-.101z"/></g></svg>