<svg enable-background="new 0 0 84.543 81.501" viewBox="0 0 84.543 81.501" xmlns="http://www.w3.org/2000/svg"><g clip-rule="evenodd" fill-rule="evenodd"><path d="m84.227.028c.022.044.044.089.1.1.173 26.83.3 54.488.149 81.154-28.209.234-56.075.243-84.142.198-.022-.044-.043-.089-.099-.1-.166-10.06-.095-20.382-.149-30.47-.089-16.627-.138-33.966 0-50.733 5.835-.198 11.823-.099 17.873-.1 4.489-.001 9.044-.05 13.493-.05 17.317.001 35.141-.062 52.775.001zm-42.269 12.994c-.294.383-.532 1.026-.797 1.594-.742 1.589-1.59 3.291-2.29 4.829-2.734 6.004-5.722 11.835-8.464 17.675-.246.524-.381 1.288-.897 1.395-.053-6.115-.1-12.269-.1-18.372 0-2.057.121-4.116-.149-6.074-3.5-.122-7.4-.049-10.903-.05-1.216 0-2.468-.121-3.584.149-.179 18.056-.052 35.154.099 53.272 3.446.182 7.39.101 10.954.101 1.227-.001 2.468.113 3.584-.15.269-1.681.1-3.544.1-5.427 0-3.833.001-7.754 0-11.649 0-1.923-.144-3.833.1-5.577.769.758 1.141 1.8 1.643 2.738.5.937 1.074 1.856 1.593 2.788 2.617 4.699 5.185 9.52 7.767 14.189.512.928.963 1.948 1.692 2.739.742-.771 1.137-1.808 1.643-2.739 3.353-6.168 6.676-12.438 10.057-18.52.243-.436.428-.989.896-1.245.351 7.3-.053 15.354.298 22.653 1.147.271 2.413.149 3.635.149 1.191 0 2.378.003 3.535-.05 2.421-.11 4.955.216 7.219-.1.209-4.245.1-8.663.1-13.094 0-11.124-.099-22.742-.1-33.606 0-2.224.121-4.446-.149-6.622-4.809-.2-9.906-.115-14.488.05-.323 8.078.128 16.558-.149 24.395-.766-.9-1.141-2.072-1.643-3.136-.506-1.073-1.029-2.155-1.543-3.236-2.804-5.891-5.653-11.84-8.563-17.725-.243-.491-.607-1.454-.946-1.494-.072.029-.122.079-.15.15z"/><path d="m42.107 23.578c.342.048.75 1.061.946 1.493.721 1.584 1.569 3.281 2.141 4.88-.795.266-1.925.148-2.987.148-.529 0-1.079 0-1.593 0-.496 0-1.03.106-1.394-.148.87-2.217 1.819-4.355 2.887-6.373z"/><path d="m54.853 39.509c.156 1.276.161 3.161.05 4.381-1.507.165-3.607-.052-5.228.051-.778.99-1.282 2.165-1.892 3.285-1.804 3.312-3.503 6.851-5.427 10.107-.532-.348-.803-1.001-1.095-1.543-1.491-2.774-3.08-5.629-4.531-8.515-.572-1.137-1.158-2.306-1.942-3.285-1.644-.188-3.726.109-5.228-.101-.162-1.243-.166-3.138 0-4.381 1.583-.109 3.366-.02 4.929-.15.622-.595.915-1.524 1.295-2.34.384-.825.714-1.685 1.245-2.34 3.333-.07 6.899-.171 10.256-.05.633.582.959 1.515 1.344 2.34.396.851.689 1.762 1.294 2.39 1.606.172 3.493-.089 4.93.151z"/></g></svg>