<svg enable-background="new 0 0 84.069 63.375" viewBox="0 0 84.069 63.375" xmlns="http://www.w3.org/2000/svg"><path clip-rule="evenodd" d="m82.638 59.652c.271-1.183.149-2.407.149-3.623 0-16.304-.15-31.914-.149-48.139 0-2.438-.177-4.88.1-7.295.251-.11.691-.134.992-.05.334.558.198 1.238.198 1.836.004 20.041.231 41.354.1 60.993-.705-.282-1.038-.997-1.489-1.539-4.039-4.854-8.308-9.712-12.307-14.689-2.652-3.3-5.412-6.526-8.14-9.827-7.226-8.743-14.6-17.384-21.736-26.203-1.586-1.838-3.087-3.762-4.665-5.608-.587-.555-.917-1.366-1.688-1.737-.27.539-.149 1.184-.149 1.787 0 4.28-.053 8.963.1 13.151.95.301 1.897.367 2.779.596 4.326 1.122 7.263 3.948 8.982 7.792.699 1.563 1.253 3.438.992 5.509-8.331.298-17.045-.096-25.31.198-.24 3.053 1.176 5.308 2.432 7.196 2.31 2.611 5.308 4.936 9.976 4.665 4.003-.232 6.7-1.889 8.685-4.218.294-.346.65-.843.992-.844.368-.001.598.314.844.546-.401.907-1.151 1.584-1.836 2.233-1.39 1.319-3.079 2.318-5.161 2.978-1.034.328-2.117.454-3.275.744-.092 4.583-.05 9.881-.05 14.789 0 .642.149 1.354-.198 1.886-.315-.016-.704.042-.943-.049-.269-1.217-.148-2.66-.148-4.119-.001-4.118.058-8.576-.1-12.457-.913-.338-1.83-.374-2.68-.596-4.036-1.055-7.253-3.948-8.834-7.543-.677-1.538-.979-3.256-1.29-5.211-2.041-.162-4.759-.167-6.8 0-.271 1.203-.148 2.474-.148 3.722 0 7.347.1 15.07.1 22.531 0 1.225.119 2.487-.149 3.673-.261.088-.727.061-.992 0-.356-.994-.1-2.294-.148-3.623-.322-8.6.197-17.738-.199-26.253-.812-.332-1.785-.149-2.729-.149-1.957 0-3.944 0-5.855 0-.979 0-1.976.117-2.829-.149-.077-.25-.077-.742 0-.992.847-.269 1.832-.149 2.779-.149 2.857 0 5.896.071 8.585-.099.268-1.135.149-2.372.149-3.623 0-3.031-.05-6.226-.05-9.38 0-.593-.112-1.216.149-1.737.336-.075.76-.065 1.042.049.284 4.671-.03 9.87.248 14.641.971.261 2.204.149 3.424.149 1.185 0 2.423.077 3.425-.099.304-.865.425-1.725.645-2.531 1.105-4.06 3.669-6.816 7.047-8.685 1.406-.778 3.114-.951 4.963-1.34.213-5.13.05-10.691.05-16.278 0-.834-.036-1.673.05-2.333.043-.04.029-.136.1-.149.494.219 1.165 1.206 1.687 1.836 5.713 6.891 11.339 13.753 17.072 20.595 1.041 1.242 2.019 2.554 3.077 3.772 3.178 3.658 6.249 7.427 9.429 11.166 2.106 2.477 4.042 5.11 6.154 7.543 2.127 2.451 4.135 5.006 6.253 7.444 1.856 2.137 3.626 4.351 5.459 6.551.214.263.404.737.839.745zm-39.504-34.391c-2.144-2.965-5.643-5.473-10.918-5.062-3.222.25-5.642 1.665-7.395 3.474-1.808 1.868-3.292 4.484-3.424 7.593.917.27 1.906.149 2.878.149h18.164c.981 0 2 .118 2.928-.149-.068-2.379-1.056-4.38-2.233-6.005z" fill-rule="evenodd"/></svg>