<svg enable-background="new 0 0 80.431 53.927" viewBox="0 0 80.431 53.927" xmlns="http://www.w3.org/2000/svg"><g clip-rule="evenodd" fill-rule="evenodd"><path d="m39.073.116c.177 6.213.098 12.889.098 19.336-.001 2.152.092 4.272-.098 6.284-3.884.192-8.313.097-12.278.048-.351-1.664.084-3.54-.434-4.834-.76-1.895-2.696-2.424-5.414-2.465-3.654-.056-5.945 1.302-6.913 4.061-1.203 3.429-.661 8.619 1.112 10.877.877 1.106 2.316 2.006 4.254 2.32 2.975.483 6.111.118 7.009-2.224.521-1.36.102-3.573.387-5.366 3.754-.209 8.3-.219 12.231-.048.125 3.161.146 6.722.146 10.151 0 .928.203 2.748-.194 3.19-.414.462-2.993.47-3.722.532-3.981.338-7.933.532-12.134.532-2.696 0-5.375-.268-7.928-.532-7.795-.804-12.952-3.536-14.65-10.731-.551-2.337-.693-5.093-.387-7.686.286-2.417.77-4.841 1.934-6.526.98-1.42 2.559-2.608 4.206-3.432 4.138-2.068 10.685-2.38 16.677-2.127 1.173.049 2.368.299 3.529 0 .257-.878.146-1.888.146-2.852 0-2.471-.011-4.811.048-7.251.011-.432-.144-.975.193-1.305 3.933-.05 8.33-.145 12.182.048z"/><path d="m53.623 53.774c-1.917.229-4.138.146-6.236.097-2.131-.051-4.239.188-6.091-.097-.178-8.707-.245-17.331 0-25.669 4.015-.155 8.274-.213 12.327 0 .256 1.896-.156 3.837.532 5.076.402.725.99 1.246 1.739 1.547 2.49 1.002 7.494.651 9.137-1.208 2.325-2.632 2.509-9.538.387-12.81-.203-.314-.382-.7-.58-.918-1.977-2.177-9.182-3.029-10.731.193-.694 1.442-.243 3.83-.532 5.752-3.027.156-6.081.096-9.281.097-1.013 0-2.072.113-2.997-.145-.16-4.208-.16-9.086 0-13.294.929-.462 2.03-.361 3.094-.483 2.158-.248 4.439-.259 6.72-.435 1.202-.092 2.509-.092 3.625-.145 4.377-.207 8.705.095 12.424.773 3.81.696 6.884 1.842 9.233 3.964 2.214 2 3.488 5.392 3.915 9.282.429 3.893-.268 8.499-1.885 11.215-.441.741-1.201 1.382-1.886 1.982-2.086 1.83-4.816 2.827-8.218 3.384-3.779.619-8.503.519-12.81.338-.462-.019-1.405-.09-1.643.145-.333.329-.146 2.053-.146 2.755 0 2.846.078 5.971-.097 8.604z"/></g></svg>