<svg enable-background="new 0 0 50.57 80.594" viewBox="0 0 50.57 80.594" xmlns="http://www.w3.org/2000/svg"><path clip-rule="evenodd" d="m37.356.016c1.51.059 3.261-.123 4.612.096.216 6.478.048 13.266.048 19.793 0 .991-.147 2.089.048 2.835.172.655 1.181 1.246 1.634 1.825 1.494 1.909 3.082 3.824 4.228 6.102 1.153 2.293 2.058 4.85 2.498 7.879.147 1.01.134 2.017.145 3.171.082 8.899-3.453 14.659-8.119 19.313-4.549 4.18-11.629 7.518-20.658 6.196-5.93-.868-10.358-3.426-13.934-6.726-.894-.824-1.727-1.725-2.498-2.69-.208-.26-.407-.757-.864-.721-.358 1.85-.01 3.936-.144 5.909-.259 3.801.141 7.573 0 11.626-.035 1.013-.048 2.017-.048 3.027 0 .958.117 1.958-.145 2.883-1.26.073-2.901.115-4.035-.097-.177-3.167-.097-6.371-.097-9.608 0-6.407.049-12.872.049-19.265-.001-4.72-.328-10.017.384-14.124.462-2.661 1.319-5.152 2.498-7.207 1.186-2.065 2.329-3.971 3.939-5.717.76-.823 1.712-1.584 2.547-2.258 1.819-1.47 3.927-2.616 6.149-3.507 2.976-1.323 6.708-2.039 10.953-1.922 3.013.083 5.669.805 8.023 1.633.801.282 1.52.7 2.306.817.299-.692.192-1.487.192-2.259.001-4.808-.001-9.732 0-14.604 0-.815-.085-1.828.145-2.306.036-.044.088-.072.144-.094zm-.336 24.933c-.717-.737-1.751-1.093-2.69-1.586-2.752-1.442-6.6-2.42-10.954-2.018-4.325.399-8.147 2.106-11.05 4.372-4.403 3.438-7.382 8.183-7.83 15.277-.149 2.35.194 4.895.816 6.918 1.223 3.981 3.223 6.924 5.861 9.561 2.81 2.469 6.007 4.282 10.281 5.141 2.334.469 4.815.605 7.062.24 6.57-1.069 10.97-4.272 14.173-8.984.516-.758.865-1.631 1.297-2.546 1.226-2.599 2.154-5.874 2.162-9.416.007-3.228-.821-5.887-1.826-8.168-.453-1.028-.948-2.114-1.489-2.978-.18-.286-.338-.75-.721-.816-.245 4.101-.004 8.017-.096 11.866-.093 3.891-1.1 6.782-2.738 9.272-1.562 2.374-3.553 4.307-6.246 5.765-2.578 1.396-6.114 2.29-9.944 1.682-6.698-1.063-11.037-5.146-13.26-10.713-1.192-2.986-1.378-6.976-.528-10.33.798-3.147 2.571-5.474 4.564-7.446 2.811-2.46 6.332-4.486 11.434-4.565 4.47-.068 7.907 1.68 10.425 3.604.351.268.689.738 1.201.721.176-1.493.138-3.421.096-4.853zm-17.679 6.821c-1.433.84-2.741 1.942-3.651 3.171-1.702 2.302-2.908 6.644-1.825 10.521.615 2.205 2.143 4.088 3.555 5.429 1.544 1.466 3.701 2.504 6.102 2.931 5.349.949 9.895-1.942 12.059-5.621 1.031-1.753 1.758-3.807 1.777-6.293.02-2.458-.743-4.559-1.874-6.246-1.968-2.938-5.724-5.804-10.809-5.429-2.269.167-3.845.665-5.334 1.537z" fill-rule="evenodd"/></svg>