<svg enable-background="new 0 0 177.037 174.295" viewBox="0 0 177.037 174.295" xmlns="http://www.w3.org/2000/svg"><g clip-rule="evenodd" fill-rule="evenodd"><path d="m84.999.496c.152 29.153-.046 57.65-.05 86.895-.003 21.551-.051 43.443-.05 65.282.001 7.23.034 14.4-.148 21.414.016.131-.104.128-.198.148-3.558.112-7.099 0-10.657 0-3.471 0-6.989.09-10.459-.049-7.004-.281-14.053.041-21.117-.1-13.701-.272-28.286.056-42.133-.298-.028-.071-.078-.12-.149-.148-.085-10.943.001-21.689 0-32.616 0-14.839.05-28.341.05-43.423 0-3.635-.122-7.309.05-10.905.169-3.551-.131-7.18 0-10.806.126-3.495.061-7.016.05-10.509-.07-20.81.05-41.336.049-62.705 0-.853-.121-1.746.149-2.578.035-.045.089-.074.148-.098 17.226.007 34.968.196 52.593.198 9.59.001 19.237.098 28.898.1 1.111 0 2.38-.136 2.974.198zm-43.174 3.767c-6.17.011-11.18 1.623-15.516 3.619-4.412 2.031-8.039 4.767-11.202 7.931-1.614 1.615-2.884 3.491-4.164 5.403-2.521 3.765-4.585 8.23-5.7 13.434-.577 2.685-.793 5.6-.793 8.723 0 6.003 1.645 11.14 3.618 15.515 2.002 4.438 4.646 8.087 7.882 11.253 3.271 3.201 6.867 5.617 11.45 7.683 4.312 1.944 9.889 3.427 15.912 3.173 3.015-.127 5.894-.416 8.525-1.041 2.501-.594 4.887-1.49 7.039-2.528 4.291-2.07 8.053-4.675 11.153-7.98 5.97-6.366 11.054-15.063 10.757-27.461-.217-8.999-3.249-16.112-7.089-21.612-3.922-5.617-9.205-9.847-15.813-12.888-4.076-1.877-10.047-3.503-15.961-3.223-.032.001-.065-.001-.098-.001z"/><path d="m88.618.347c10.838-.061 20.278 1.634 28.553 4.412 8.226 2.763 15.482 6.435 21.958 10.955 12.912 9.014 23.188 20.908 30.089 35.739 1.712 3.679 3.196 7.727 4.461 12.045.622 2.122 1.082 4.399 1.537 6.692 1.317 6.638 2.167 14.847 1.686 22.801-.386 6.361-1.378 12.401-2.825 17.746-.3 1.104-.516 2.214-.844 3.271-4.506 14.54-12.382 26.181-21.958 35.641-3.699 3.652-7.747 6.859-12.096 9.864-4.345 3.003-9.136 5.459-14.226 7.732-10.129 4.525-22.226 7.23-36.632 7.039-.022-.044-.044-.089-.1-.099-.229-14.248-.05-28.621-.049-43.126.001-43.33.147-84.023.148-127.69 0-1.06-.107-2.231.148-2.925.037-.045.091-.073.15-.097z"/></g></svg>