<svg enable-background="new 0 0 74.269 75.84" viewBox="0 0 74.269 75.84" xmlns="http://www.w3.org/2000/svg"><path clip-rule="evenodd" d="m.28.094c-.01-.041.019-.045.048-.048 12.506.26 24.727-.29 37.068.098 9.095.285 15.756 3.103 21.07 7.169 2.618 2.004 5.11 4.186 7.218 6.877 4.657 5.946 8.583 13.894 8.584 24.289.001 6.082-1.294 11.32-3.317 15.51-4.068 8.428-10.217 14.944-18.875 18.729-4.443 1.942-9.458 3.122-15.656 3.122-5.999 0-10.938-1.657-15.266-3.561-2.143-.942-4.108-2.2-5.902-3.512-3.568-2.61-6.752-5.876-9.169-9.608-.606-.935-1.153-1.989-1.707-3.024-1.617-3.021-2.942-6.511-3.706-10.389-.524-2.657-.634-5.435-.634-8.73 0-12.044-.106-24.03.049-36.678-.014-.111.011-.183.097-.195.001-.047.059-.038.098-.049zm23.313 14.047c-3.35 0-6.876.016-10.193.146-.217 8.223-.098 16.745-.098 24.972 0 5.013 1.577 8.671 3.561 11.852 2.516 4.035 6.347 7.468 11.071 9.462 2.402 1.013 5.394 1.668 8.536 1.755 3.238.09 6.283-.349 8.828-1.365 4.873-1.946 8.643-4.983 11.413-9.121 2.651-3.958 4.704-9.59 3.853-16.339-.757-6.005-3.223-10.447-6.536-13.998-1.648-1.767-3.627-3.279-5.804-4.487-2.172-1.206-4.602-2.453-7.608-2.585-.293 4.307-.13 9.428-.098 13.754 1.091.681 2.204 1.217 3.073 2.097 1.687 1.708 3.178 3.845 3.609 6.73.216 1.447.017 3.188-.439 4.634-.77 2.438-2.236 4.561-4.487 5.853-2.017 1.158-5.371 1.952-8.438.878-2.701-.946-4.393-2.54-5.707-4.634-.653-1.042-1.167-2.371-1.366-3.804-.204-1.473-.049-3.332-.049-5.121 0-6.654.08-13.761-.098-20.534-.942-.256-2.001-.145-3.023-.145z" fill-rule="evenodd"/></svg>