<svg enable-background="new 0 0 179.607 112.62" viewBox="0 0 179.607 112.62" xmlns="http://www.w3.org/2000/svg"><g clip-rule="evenodd" fill-rule="evenodd"><path d="m.17 26.16c-.261-1.015-.144-2.111-.144-3.175 0-6.488 0-13.208 0-19.771 0-1.046-.117-2.127.144-3.127 5.18-.109 12.088-.419 15.683 1.539 3.806 2.073 5.628 5.778 5.628 11.594 0 5.597-2.027 9.518-5.772 11.45-3.695 1.903-9.688 1.736-15.539 1.49zm9.189-2.502c5.154-.346 7.788-3.097 8.418-8.034.658-5.149-.595-9.895-4.33-11.882-2.162-1.151-5.467-1.321-8.995-1.155-.315.016-.901.002-1.155.193-.09 5.204-.048 10.608-.048 15.683 0 1.749-.111 3.489.144 5.147 2.078.135 4.189.167 5.966.048z"/><path d="m55.108.182c.642 1.809 1.007 3.735 1.491 5.628.958 3.751 1.864 7.568 2.838 11.401.24.946.537 1.886.721 2.838.183.942.349 1.907.818 2.742.44-.282.44-.854.577-1.299 1.569-5.08 3.159-10.497 4.811-15.683.603-1.893 1.044-3.844 1.828-5.628 1.116-.187 2.75-.099 3.944-.048.787 1.79 1.288 3.716 1.876 5.629 1.441 4.685 3.002 9.513 4.522 14.239.297.925.452 1.935 1.01 2.742.621-.691.52-1.81.722-2.838.182-.929.502-1.861.721-2.79 1.326-5.61 2.705-11.417 4.233-16.934.875-.169 2.236-.079 3.127.048-.082 1.12-.475 2.195-.77 3.271-.881 3.219-1.726 6.527-2.598 9.814-.578 2.18-1.181 4.355-1.732 6.542-.547 2.172-1.038 4.382-1.828 6.446-1.223.079-2.771.081-3.993 0-.74-1.794-1.282-3.701-1.876-5.58-1.474-4.66-2.846-9.439-4.426-14.144-.306-.912-.495-1.882-1.01-2.694-.375.316-.443.862-.577 1.299-1.559 5.085-3.097 10.454-4.714 15.586-.59 1.872-1.109 3.753-1.828 5.532-1.417.085-2.928.063-4.282 0-.793-2.07-1.233-4.283-1.828-6.446-1.482-5.39-2.941-10.912-4.378-16.308-.285-1.071-.647-2.154-.721-3.272.142-.204.507-.178.77-.192.818-.041 1.892-.03 2.552.099z"/><path d="m91.139 26.256c-.125-7.322-.096-15.365-.096-23.188 0-.424-.21-2.923.385-2.935 5.58-.108 12.148-.406 15.779 1.636 3.733 2.099 5.651 6.11 5.436 11.69-.218 5.647-1.947 9.43-5.869 11.401-3.727 1.875-9.824 1.581-15.635 1.396zm17.223-7.745c.885-2.481 1.026-5.85.481-8.515-.521-2.547-1.815-4.741-3.656-5.917-2.28-1.456-5.887-1.576-9.717-1.395-.253.012-.7.033-.962.145-.12 6.852-.165 14.076.048 20.83 7.013.62 12.083-.32 13.806-5.148z"/><path d="m179.607.182c-.085 1.139-.48 2.21-.77 3.319-1.403 5.382-2.847 10.929-4.329 16.356-.591 2.162-1.058 4.371-1.828 6.446-1.376.04-2.947.17-4.138 0-.541-.813-.733-1.816-1.01-2.742-1.393-4.67-2.99-9.341-4.426-14.095-.566-1.875-1.187-3.735-1.876-5.532-.456.23-.5.843-.626 1.251-.567 1.841-1.201 3.662-1.636 5.725-.284 1.354-.826 2.848-1.25 4.233-.577 1.886-1.179 3.767-1.732 5.628-.562 1.889-1.076 3.779-1.828 5.532-1.211.188-2.942.099-4.233.048-.845-2.073-1.201-4.311-1.828-6.494-1.229-4.285-2.344-8.688-3.512-13.085-.579-2.179-1.269-4.333-1.636-6.542.909-.189 2.331-.098 3.319-.048.432.85.603 1.817.818 2.742.648 2.796 1.397 5.688 2.117 8.563.954 3.812 1.834 7.649 2.934 11.305.452-.229.497-.85.626-1.25 2.253-7.006 4.241-14.43 6.59-21.359 1.183-.053 2.793-.135 3.897.048.706 1.826 1.274 3.719 1.876 5.628 1.462 4.641 2.985 9.52 4.474 14.24.29.921.514 1.872 1.011 2.694.503-.814.651-1.814.865-2.742 1.412-6.117 3.094-12.476 4.618-18.617.109-.441.111-.974.481-1.299.896-.051 2.219-.14 3.032.047z"/><path d="m.122 54.735c-.176-7.439-.096-15.375-.096-23.043 0-1.043-.115-2.125.144-3.127 2.524-.192 6.213-.076 8.9-.048 8.544.089 13.712 4.575 13.47 13.277-.159 5.707-2.149 9.737-6.205 11.642-4.004 1.88-10.233 1.426-16.213 1.299zm15.491-5.58c1.772-1.92 2.395-5.13 2.261-8.467-.126-3.159-1.341-5.971-3.367-7.409-2.1-1.491-5.472-1.564-8.804-1.539-.345.002-.963.015-1.251.192-.177 5.641-.096 11.606-.096 17.222 0 .801-.113 1.612.144 2.357 4.767.328 8.822.126 11.113-2.356z"/><path d="m43.081 28.517c1.385.09 2.961-.011 4.33.096 1.042 3.508 1.819 7.21 2.742 10.872.458 1.82.898 3.664 1.299 5.484.401 1.823.794 3.646 1.443 5.34.415-.243.464-.802.577-1.203.887-3.152 1.824-6.363 2.79-9.573 1.098-3.647 2.047-7.375 3.271-10.872 1.5-.158 3.676-.147 5.292-.048.656 1.739 1.171 3.559 1.684 5.388 1.012 3.612 2.162 7.263 3.175 10.92.501 1.812.947 3.644 1.683 5.34.392-.286.382-.834.481-1.25 1.166-4.892 2.431-9.964 3.656-14.961.446-1.819.782-3.662 1.395-5.388 1.145-.188 2.817-.099 4.041-.048.008 1.333-.632 2.521-.866 3.8-.182.995-.363 1.954-.625 2.935-1.476 5.52-2.964 11.29-4.522 16.837-.254.904-.427 1.857-.866 2.694-1.622.048-3.702.143-5.244-.048-.48-.782-.699-1.716-.962-2.598-1.854-6.207-3.724-12.775-5.725-18.906-.486.2-.463.811-.578 1.203-.383 1.309-.815 2.674-1.251 4.041-.573 1.798-1.015 3.673-1.588 5.484-.862 2.727-1.599 5.479-2.405 8.227-.257.875-.472 1.801-.914 2.598-1.656.046-3.765.145-5.34-.048-.385-.416-.433-1.021-.577-1.539-2.12-7.623-4.118-15.24-6.254-23.043-.144-.526-.499-1.397-.289-1.636.038-.047.09-.075.147-.098z"/><path d="m91.139 54.831c-.196-8.217-.048-16.319-.048-24.727 0-.5-.106-1.034.145-1.491 5.752-.119 12.635-.42 16.452 1.539 3.993 2.05 6.014 5.832 6.014 11.786 0 5.674-2.261 9.829-6.254 11.594-4.03 1.781-10.305 1.485-16.309 1.299zm16.405-6.591c1.934-2.99 2.113-9.26.24-12.556-.537-.945-1.28-1.626-2.117-2.357-2.25-1.518-6.476-1.693-10.006-1.347-.164 6.428-.193 13.322 0 19.58 5.311.466 9.756-.03 11.883-3.32z"/><path d="m138.621 28.661c1.095 3.51 1.743 7.26 2.694 10.92.708 2.724 1.262 5.436 1.973 8.226.22.864.393 1.769.818 2.55.4-.28.402-.837.529-1.251 2.029-6.644 3.953-13.832 6.11-20.445 1.759-.037 3.73-.167 5.291 0 .682 1.71 1.108 3.527 1.685 5.34.577 1.816.92 3.73 1.442 5.581.774 2.741 1.56 5.417 2.357 8.178.248.859.485 1.769.914 2.55.395-.284.38-.84.481-1.25 1.445-5.823 2.96-11.903 4.329-17.848.202-.878.372-1.795.77-2.598 1.266-.022 3.078-.197 4.186.096-.466 2.24-1.094 4.438-1.684 6.639-1.745 6.517-3.474 13.089-5.34 19.531-1.584.199-3.77.078-5.292.048-.347-.432-.459-1.042-.625-1.587-.265-.874-.412-1.532-.626-2.55-.305-1.453-.857-2.958-1.298-4.426-.881-2.932-1.735-5.844-2.646-8.755-.45-1.439-.799-2.918-1.395-4.282-.439.227-.456.799-.578 1.203-1.472 4.894-2.932 10.082-4.425 15.009-.552 1.819-.976 3.665-1.684 5.388-1.677.054-3.79.136-5.388-.048-.812-2.088-1.271-4.314-1.876-6.495-1.512-5.447-2.983-10.881-4.474-16.404-.289-1.07-.675-2.154-.77-3.271 1.308-.171 3.278-.128 4.522-.049z"/><path d="m.122 83.743c-.176-7.472-.096-15.437-.096-23.139 0-1.042-.117-2.127.144-3.127 5.905-.106 12.902-.424 17.03 1.443 4.283 1.938 6.398 5.771 6.398 11.882 0 6.064-2.297 9.907-6.639 11.69-4.251 1.746-10.685 1.391-16.837 1.251zm8.323-3.945c2.951 0 5.34-.724 6.879-2.02 3.216-2.757 3.203-10.877.433-13.903-1.844-2.014-5.925-2.723-9.958-2.357-.381.548-.219 1.296-.24 1.972-.123 3.91 0 7.738 0 11.642 0 1.579-.113 3.133.144 4.57.836.209 1.811.096 2.742.096z"/><path d="m44.476 78.403c.346-.268.423-.771.529-1.154 1.572-5.665 3.101-11.521 4.618-17.222.228-.857.381-1.742.818-2.502 2.087-.049 4.631-.143 6.639.048.545.708.596 1.646.818 2.501.443 1.709.936 3.446 1.395 5.244.68 2.668 1.39 5.272 2.068 7.89.454 1.749.824 3.521 1.492 5.147.372-.248.386-.775.481-1.155 1.171-4.69 2.286-9.722 3.367-14.48.402-1.767.652-3.562 1.299-5.195 1.652-.03 3.842-.188 5.34.096-.456 2.26-1.066 4.479-1.684 6.687-1.514 5.413-2.921 10.935-4.474 16.356-.305 1.065-.465 2.179-.962 3.175-2 .157-4.639.161-6.639 0-.457-.752-.633-1.653-.866-2.501-1.421-5.183-2.816-10.656-4.281-15.923-.237-.852-.364-1.766-.866-2.501-.441.777-.631 1.687-.866 2.55-1.182 4.344-2.453 8.86-3.656 13.229-.486 1.763-.817 3.561-1.54 5.196-2.156.117-4.5.011-6.639-.048-.487-.684-.519-1.596-.673-2.454-.178-.987-.581-1.992-.866-2.982-1.692-5.876-3.292-11.962-4.955-17.848-.278-.983-.588-2.006-.674-3.03.115-.029.22-.069.385-.048 1.654-.033 3.839-.184 5.34.096.468.765.512 1.69.722 2.55.217.889.322 1.795.529 2.694 1.004 4.361 2.046 8.735 3.079 13.085.203.848.276 1.744.722 2.499z"/><path d="m91.188 83.791c-.213-2.117-.178-4.308-.144-6.494.08-5.236-.184-11.152.048-16.645.044-1.055-.311-2.186.192-3.127 5.9-.074 13.002-.468 17.078 1.443 4.244 1.99 6.544 5.767 6.398 11.882-.146 6.073-2.151 9.898-6.687 11.69-4.231 1.671-10.734 1.453-16.885 1.251zm9.092-3.993c3.55-.214 6.064-1.085 7.456-3.512 1.664-2.899 1.678-8.337.048-11.257-1.465-2.625-4.459-3.373-8.467-3.512-.671-.023-1.492-.12-2.068 0-.681.142-.481 1.132-.481 2.068 0 5.636-.094 10.88.096 16.116 1.178.269 2.367.161 3.416.097z"/><path d="m130.491 57.573c.528 1.664.957 3.4 1.347 5.147.779 3.497 1.594 7.052 2.454 10.535.43 1.745.729 3.508 1.347 5.147.44-.201.424-.777.529-1.154 1.782-6.435 3.488-13.241 5.388-19.628 2.026-.28 4.86-.064 6.783-.048.652 1.659.964 3.445 1.443 5.195.939 3.433 1.831 6.957 2.79 10.439.478 1.736.767 3.516 1.442 5.147.381-.175.401-.677.482-1.01 1.022-4.24 2.002-8.663 2.982-12.989.354-1.557.869-3.123 1.106-4.667.109-.708.025-1.517.434-2.117 1.69-.045 3.811-.252 5.388.048-.046.958-.417 1.879-.674 2.791-1.562 5.553-2.935 11.238-4.521 16.837-.262.923-.593 1.833-.77 2.742-.263 1.342-.417 2.668-1.011 3.848-2.134.067-4.592.201-6.686 0-.696-1.641-1.041-3.438-1.54-5.196-1.345-4.741-2.661-9.734-3.945-14.528-.103-.382-.111-.899-.481-1.155-.428.501-.499 1.206-.673 1.828-.527 1.87-1.079 3.857-1.636 5.821-.739 2.606-1.319 5.261-2.213 7.697-.376 1.981-.904 3.81-1.539 5.532-2.009.138-4.754.208-6.687-.048-.503-.995-.697-2.105-1.01-3.175-1.571-5.372-3.044-10.902-4.57-16.357-.615-2.199-1.26-4.395-1.732-6.639 1.678-.23 4.025-.182 5.773-.043z"/><path d="m.122 112.415c-.154-8.531-.17-17.79 0-26.122 4.242-.034 9.348-.452 13.47.096 5.169.688 8.522 3.169 10.054 7.505.772 2.187.964 5.052.673 7.793-.562 5.305-3.36 8.406-7.697 9.862-4.342 1.458-10.589.907-16.5.866zm15.731-6.832c2.387-3.263 1.99-10.517-.577-13.085-1.7-1.7-4.88-2.18-8.371-1.876-.417.533-.24 1.331-.24 2.02 0 3.857-.03 7.577 0 11.017.013 1.499-.126 2.999.144 4.378 4.002.268 7.242.011 9.044-2.454z"/><path d="m25.955 86.197c2.149.031 4.425-.063 6.495.048.463.712.463 1.587.625 2.405.467 2.362 1.127 4.827 1.684 7.264.557 2.441 1.038 4.881 1.636 7.36.188.78.249 1.621.673 2.309.464-.67.571-1.515.77-2.309.598-2.394 1.219-4.858 1.876-7.312.44-1.642.732-3.326 1.155-4.955.211-.812.458-1.605.673-2.406.209-.775.32-1.611.722-2.309 2.336-.119 5.31-.054 7.793 0 .438.699.526 1.569.721 2.357 1.195 4.812 2.527 9.82 3.801 14.624.207.782.249 1.636.721 2.309.445-.676.497-1.528.674-2.309 1.264-5.598 2.292-11.504 3.752-16.934 1.915-.154 4.397-.169 6.206 0-.049 1.128-.468 2.192-.77 3.271-2.108 7.551-3.737 15.433-6.013 22.898-2.351.14-5.255.042-7.842 0-.626-1.567-.967-3.265-1.395-4.955-1.041-4.114-2.115-8.411-3.223-12.556-.212-.793-.279-1.678-.77-2.357-.482.702-.565 1.595-.77 2.406-.622 2.469-1.373 4.983-2.021 7.504-.861 3.357-1.732 6.71-2.742 9.91-2.46.153-5.301.154-7.793 0-.779-2.079-1.192-4.287-1.78-6.495-1.564-5.877-3.104-11.894-4.714-17.944-.152-.571-.407-1.374-.289-1.684.028-.066.076-.113.145-.14z"/><path d="m91.139 112.463c-.243-7.398-.006-15.609-.096-23.091-.013-1.067-.136-2.152.192-3.127 5.983-.055 13.352-.505 17.655 1.299 4.432 1.859 6.735 5.842 6.735 12.027-.001 6.195-2.609 9.908-7.071 11.738-4.378 1.795-11.175 1.219-17.415 1.154zm9.911-4.33c3.041-.017 5.219-1.107 6.35-3.079 1.663-2.897 1.678-8.711-.144-11.545-1.56-2.427-5.342-3.354-9.333-2.79-.183 4.182-.096 8.698-.096 13.037 0 1.452-.117 2.926.145 4.282 1.048.279 2.117.101 3.078.095z"/><path d="m141.267 86.293c.598 1.529.897 3.189 1.347 4.811 1.111 4.005 2.068 8.145 3.127 12.219.199.765.294 1.615.77 2.261.401-.694.502-1.519.673-2.309.881-4.056 1.7-8.161 2.598-12.219.356-1.61.627-3.25 1.155-4.763 2.064-.033 4.348-.184 6.157.048-.093 1.122-.407 2.228-.722 3.319-.922 3.208-1.704 6.545-2.598 9.814-.895 3.28-1.596 6.589-2.501 9.91-.292 1.073-.5 2.17-.962 3.175-2.517.076-5.392.102-7.841-.048-1.706-5.665-2.933-11.679-4.57-17.511-.221-.786-.318-1.659-.77-2.357-.501.688-.613 1.586-.818 2.406-1.035 4.144-2.295 8.399-3.368 12.604-.214.838-.454 1.676-.673 2.501-.218.821-.28 1.705-.77 2.406-2.474.019-5.352.029-7.889-.048-1.262-4.234-2.321-8.607-3.464-12.989-.284-1.09-.593-2.174-.866-3.271-.277-1.117-.443-2.255-.722-3.368-.548-2.19-1.244-4.332-1.587-6.542 1.975-.191 4.488-.097 6.542-.048.363.728.496 1.55.673 2.357.881 4.007 1.774 8.137 2.694 12.219.364 1.615.628 3.255 1.203 4.763.373-.229.387-.743.482-1.107 1.346-5.183 2.793-10.638 4.185-15.875.21-.787.29-1.652.722-2.357 2.644-.058 5.317-.137 7.793-.001z"/></g></svg>