<svg enable-background="new 0 0 72.677 69.397" viewBox="0 0 72.677 69.397" xmlns="http://www.w3.org/2000/svg"><path clip-rule="evenodd" d="m71.184 24.796c-4.557.201-9.682.102-14.32.05-.627-.578-.953-1.358-1.418-2.023-1.359-1.95-3-3.741-5.061-5.111-2.701-1.797-5.867-3.4-9.918-3.694-2.229-.162-4.582-.034-6.832 0-6.676.102-13.281-.119-19.787.152-.273 1.051-.15 2.245-.15 3.39 0 3.426-.049 6.996.051 10.324 1.098.352 2.287.202 3.441.202 18.135 0 36.646-.226 54.805 0 1.066 4.232.738 9.04 0 12.955-.775 4.102-2.227 7.493-3.848 10.525-3.283 6.144-8.162 11.075-14.523 14.169-3.242 1.578-6.811 2.868-10.98 3.391-2.176.273-4.549.152-6.934.152-7.09-.001-14.309.052-21.506.05-4.738 0-9.492.212-14.018-.101-.168-7.839-.168-16.398 0-24.29 4.262-.176 9.269-.141 13.461-.051.311 3.197-.1 7.067.252 10.374 1.117.275 2.283.151 3.441.151h3.594c4.709.002 9.297.092 14.068 0 2.324-.044 4.723.111 6.881-.202 4.018-.584 7.217-2.378 9.818-4.555 2.586-2.162 4.644-4.927 5.869-8.451-1.055-.355-2.211-.157-3.34-.151-16.941.088-33.893.103-50.705.102-1.217-.001-2.398.076-3.391-.152-.184-6.935-.1-14.102-.1-21.154 0-7.029-.123-13.982.102-20.546 11.57-.24 23.361-.151 34.967-.151 2.844 0 6-.34 8.603 0 4.953.645 9.191 2.524 12.752 4.655 2.592 1.55 5.07 3.683 7.137 5.921 1.432 1.553 2.516 3.215 3.643 5.06 1.078 1.764 2.172 3.653 2.986 5.718.401 1.024.851 2.099.96 3.291z" fill-rule="evenodd"/></svg>