<svg enable-background="new 0 0 75.848 73.15" viewBox="0 0 75.848 73.15" xmlns="http://www.w3.org/2000/svg"><g clip-rule="evenodd" fill-rule="evenodd"><path d="m.173 73.007c-.021-.042-.042-.085-.095-.095-.049-2.24-.141-4.932.048-7.093 9.797-.12 20.167-.142 29.991-.142 5.163 0 10.216.353 14.663-.381 4.175-.689 7.681-2.485 10.711-4.522 5.724-3.849 10.656-10.254 12.139-18.376 1.798-9.844-1.64-18.231-5.998-23.517-4.17-5.127-9.626-8.509-17.328-10.092-2.542-.523-5.574-.428-8.712-.429-6.034 0-12.145-.232-18.042-.047-2.93.091-5.84-.099-8.713-.049-1.449.026-2.887.048-4.332.048s-2.913.054-4.332-.143c-.207-2.543-.137-5.414 0-8.045 4.294-.107 8.711-.095 13.139-.095 4.447 0 8.931.159 13.329 0 2.395-.086 5.151.047 7.76.047 2.583.001 5.231-.03 7.569.095 4.763.255 8.833 1.571 12.377 3.142 7.087 3.142 12.75 8.307 16.424 14.662 1.899 3.286 3.372 6.916 4.332 11.235.927 4.17 1.005 9.508.143 14.139-1.601 8.594-5.707 14.935-11.044 19.994-6.258 5.838-14.927 10.322-27.325 9.759-2.986-.136-6.076-.047-9.188-.047-9.247-.001-18.674.061-27.516-.048z"/><path d="m.078 63.2c-.085-.912-.047-1.967-.047-2.999 0-1.024-.113-2.095.143-2.904 6.668-.11 13.422-.096 20.185-.095 5.058.001 10.045-.103 15.186 0 1.676.033 3.35.08 4.999.048 6.449-.127 10.763-2.813 14.139-6.189 3.355-3.355 5.903-7.938 5.903-14.424 0-6.376-2.668-11.166-5.903-14.472-3.338-3.411-7.967-5.848-14.187-6.141-3.329-.157-6.748-.047-10.14-.047-9.318-.001-18.487 0-27.849 0-.778-.001-1.619.109-2.38-.143-.143-.76-.073-1.699-.095-2.618-.022-.906-.057-1.865.19-2.571 11.414-.14 23.262.001 34.751 0 2.007 0 3.911-.009 5.712.048 1.799.057 3.448.384 4.998.761 5.998 1.461 10.73 4.681 14.186 8.902 3.488 4.259 5.903 9.834 5.903 17.138 0 3.6-.766 6.907-1.952 9.616-2.385 5.447-5.816 9.373-10.616 12.425-2.376 1.511-5.175 2.663-8.236 3.285-3.292.669-7.206.731-10.997.571-3.779-.159-7.633-.048-11.377-.047-7.094 0-14.392-.001-21.231 0-.412-.001-.901.099-1.285-.144z"/><path d="m.126 54.775c-.158-1.214-.158-3.071 0-4.285 10.799-.266 22.319-.096 33.228-.095 2.941 0 5.646.185 7.998-.143 4.664-.65 8.114-3.316 9.997-6.855.975-1.832 1.666-3.984 1.666-6.76 0-2.725-.74-4.87-1.761-6.665-1.944-3.416-5.372-6.182-10.044-6.808-1.243-.167-2.618-.156-3.999-.143-6.708.065-13.642-.048-20.613-.048-4.802 0-9.781 0-14.519 0-.655 0-1.336.113-1.952-.143-.141-1.347-.134-2.98 0-4.38.042-.021.085-.041.095-.095 11.239-.003 22.591-.25 34.323 0 2.946.063 6.084-.187 8.759.286 2.421.428 4.742 1.444 6.57 2.619 1.893 1.215 3.396 2.653 4.712 4.427 2.488 3.351 4.491 8.365 3.38 14.282-.948 5.05-3.498 8.592-6.998 11.33-1.69 1.322-3.818 2.483-6.141 3.046-2.426.588-5.256.679-8.378.571-5.988-.206-12.102-.001-18.232 0-4.55.001-9.108-.001-13.663 0-1.466.002-2.973.117-4.428-.141z"/><path d="m.126 47.967c-.151-.751-.16-2.106 0-2.856 2.162-.203 4.406-.096 6.665-.095 9.035.002 18.071-.144 27.277-.047 2.243.023 4.693.253 6.475-.286 3.181-.962 5.788-3.817 5.76-7.902-.027-3.971-2.716-6.891-5.903-7.807-1.766-.508-4.264-.381-6.474-.381-11.15 0-22.887.052-33.752-.095-.237-.756-.225-2.384 0-3.142 7.652-.127 16.004-.096 23.802-.095 4.98 0 10.54.044 15.377.095 5.727.06 9.647 3.764 10.948 8.425.295 1.056.388 2.108.381 3.475-.013 2.454-.875 4.317-1.904 5.855-1.03 1.541-2.298 2.833-4.046 3.713-1.777.894-3.901 1.285-6.474 1.285-12.345.002-25.383-.026-38.132-.142z"/><path d="m.126 42.54c-.154-.631-.154-1.844 0-2.476 5.846-.161 12.324-.095 18.946-.095h14.139c1.796 0 3.844.291 4.903-.476 1.653-1.198 1.501-4.419-.286-5.332-1.031-.527-2.873-.333-4.522-.333-10.852-.001-22.35-.033-33.133-.143-.239-.622-.189-1.973-.047-2.666 10.919-.22 21.088-.097 32.038-.095 1.264 0 2.593-.047 3.856 0 1.295.048 2.604-.028 3.666.238 2.981.748 5.55 4.498 3.713 8.236-.753 1.531-2.188 2.86-4.142 3.237-1.465.283-3.205.048-4.855.048-4.793 0-10.016-.047-14.805-.048-6.462-.001-13.101.135-19.471-.095z"/><path d="m.126 37.494c-.124-.292-.157-.952 0-1.238.862-.289 1.805-.121 2.713-.095 4.396.125 9.507-.047 14.234-.047 3.378 0 6.511.071 9.473-.048 2.363-.095 5.018.034 7.569.048 1.022.005 3.017-.179 3.046.762.037 1.198-2.813.768-3.951.762-7.67-.042-15.89-.048-23.708-.048-3.208-.001-6.432.184-9.376-.096z"/></g></svg>