<svg enable-background="new 0 0 79.289 64.077" viewBox="0 0 79.289 64.077" xmlns="http://www.w3.org/2000/svg"><g clip-rule="evenodd" fill-rule="evenodd"><path d="m67.666.153c.168 3.331.097 6.99.097 10.536s.301 6.952-.58 9.714c-1.238 3.888-3.817 6.796-7.346 8.554-1.19.593-2.61.993-4.06 1.208-1.646.244-3.46.096-5.22.096-10.398 0-20.756 0-31.124 0-1.772 0-3.649-.217-5.171.097-1.107.229-1.925.953-2.368 1.788-.53.998-.387 2.846-.387 4.543-.001 3.565-.171 5.797 0 9.57.071 1.562-.045 3.436.434 4.446.518 1.087 1.449 1.789 2.9 2.03 1.337.222 3.041.193 4.688.193h9.763c13.253 0 25.547-.1 38.325.193.19 1.721.077 3.631.097 5.51.019 1.848.203 3.772-.097 5.413-14.047.073-27.888 0-42.53 0-3.841 0-7.281.061-10.632-.097-6.635-.313-10.774-3.888-13.049-8.603-1.202-2.491-1.353-5.551-1.353-9.424 0-3.394-.074-7.066-.049-10.487.014-1.849-.051-3.548.29-5.026.33-1.428.896-2.68 1.595-3.818 2.777-4.524 6.939-7.298 14.354-7.298 10.583 0 20.981.048 32.042.048 1.873 0 3.838.146 5.268-.145 1.392-.283 2.442-1.269 2.804-2.562.311-1.116.144-2.698.144-4.059 0-3.591.001-6.756 0-10.488 0-.63-.098-1.81.146-1.981.035-.045.088-.073.145-.097 3.729.051 7.588-.118 10.874.146z"/><path d="m79.169 36.013c.148 3.609.171 7.51 0 11.067-18.559.185-37.686.154-56.594-.048-.176-3.042-.097-6.626-.097-9.908 0-.402-.111-.905.193-1.208 18.654.004 37.575-.144 56.498.097z"/></g></svg>