<svg enable-background="new 0 0 74.596 75.379" viewBox="0 0 74.596 75.379" xmlns="http://www.w3.org/2000/svg"><g clip-rule="evenodd" fill-rule="evenodd"><path d="m.191 35.903c-.247-1.383-.143-2.869-.143-4.333.001-10.508-.136-20.773.048-31.324 1.226-.239 2.492-.144 3.761-.144 7.899.001 15.976-.051 23.945-.047 5.507.002 11.228-.334 16.138.618 1.664.323 3.444.703 5.142 1.286.672.23 1.493.576 2.285.904.691.285 1.905.54 2.095 1.095.18.527-.293 1.496-.523 2.095-.526 1.368-1.018 2.545-1.619 3.761-.307.619-.481 1.227-.762 1.904-.505 1.217-1.252 2.37-1.904 3.475-3.339 5.661-7.549 10.448-12.806 14.044-4.245 2.903-8.902 5.389-15.186 6.331-1.556.233-3.244.485-4.903.477-5.097-.028-10.512.036-15.568-.142z"/><path d="m64.029 10.624c.962.821 1.792 1.856 2.666 2.951.285.357.705.7.714 1.143.018.801-1.166 1.804-1.714 2.428-1.958 2.232-3.965 4.25-6.284 6.093-3.1 2.465-6.623 4.546-10.283 6.189-1.897.852-3.777 1.693-5.808 2.428-2.025.731-4.135 1.341-6.332 1.904-3.783.97-7.805 1.817-11.997 2.428-.554.08-1.216.29-1.761 0 .295-.528.996-.5 1.476-.619 3.769-.931 7.459-2.073 10.902-3.428 4.884-1.921 9.396-4.262 13.424-7.093.799-.562 1.502-1.21 2.285-1.81 4.337-3.319 7.463-7.289 10.235-12.281.254-.458.519-1.059.81-1.285.807-.303 1.103.698 1.667.952z"/><path d="m28.183 36.759c.32-.429.946-.376 1.38-.429 1.607-.194 3.153-.287 4.713-.571 2.044-.372 4.092-.618 6.093-.999 3.953-.754 7.785-1.608 11.473-2.714 6.515-1.955 12.369-4.051 17.947-6.855.822-.413 1.598-1.007 2.475-1.285.013-.004.034.001.048 0 .86-.029 1.222 2.065 1.476 2.856.171.534.309 1.083.476 1.714.14.527.447 1.314.285 1.761-.171.474-1.542.886-2.285 1.096-6.106 1.72-12.502 3.259-19.185 4.284-3.828.588-7.923 1.05-12.187 1.237-3.118.138-6.45.173-9.759.191-.52.002-1.056.013-1.571 0-.45-.013-1.041.092-1.379-.286z"/><path d="m72.503 51.135c-.915-.121-1.68-.691-2.476-1.095-8.582-4.348-18.804-7.387-29.753-9.425-3.51-.654-7.187-1.052-10.901-1.571-.421-.059-1.065.029-1.333-.429.6-.354 1.503-.255 2.38-.285 4.729-.164 9.511.149 14.233.38 3.597.176 7.237.679 10.759 1.19 1.708.248 3.469.49 5.189.81 3.366.625 6.489 1.392 9.616 2.285.724.206 1.491.373 2.333.666.654.228 1.791.545 1.952 1 .169.478-.15 1.252-.286 1.762-.174.654-.288 1.23-.428 1.713-.332 1.141-.539 2.33-1.285 2.999z"/><path d="m23.565 39.187c12.178 1.333 22.617 4.649 31.229 9.616 4.218 2.434 7.999 5.651 11.092 9.282.617.726 1.406 1.414 1.667 2.381-.075.692-.58 1.141-.952 1.571-.766.885-1.433 1.782-2.38 2.666-.332.31-.977 1.071-1.476.999-.329-.047-.682-.772-.905-1.189-1.636-3.066-3.887-5.907-6.141-8.236-5.915-6.355-13.836-10.849-23.136-13.948-.757-.252-1.521-.513-2.333-.762-1.969-.604-4.012-1.08-6.046-1.666-.276-.079-.849-.172-.809-.619.07-.025.119-.071.19-.095z"/><path d="m.286 75.272c-.182-10.885-.19-22.247-.19-33.705 0-.246-.013-.896 0-1.142.043-.813.158-.715.571-.763.75-.087 1.605-.007 2.428 0 2.333.02 5.099-.001 7.712 0 3.62.002 7.347-.048 10.283.429 5.977.971 11.137 3.372 15.233 6.188 4.148 2.852 7.659 6.537 10.664 10.759 1.409 1.979 2.864 4.157 3.999 6.713.283.638.479 1.313.761 1.951.557 1.26 1.135 2.278 1.714 3.618.249.574.688 1.6.619 2.047-.098.639-1.521 1.09-2.285 1.381-4.439 1.689-9.482 2.701-15.567 2.523-2.397-.071-4.815.047-7.093.047-9.724.004-19.312.161-28.849-.046z"/></g></svg>