<svg enable-background="new 0 0 75.459 65.129" viewBox="0 0 75.459 65.129" xmlns="http://www.w3.org/2000/svg"><path clip-rule="evenodd" d="m1.62 64.846c-.286-1.917-.102-3.896-.102-5.847 0-13.805.042-27.945.202-41.783 11.946-.201 24.913.05 37.196.051 1.776 0 3.587-.089 5.293.05 6.126.501 10.326 4.497 12.449 8.922 1.178 2.455 1.716 5.886 1.108 9.072-.569 2.985-1.829 5.271-3.428 7.258-2.787 2.814-5.704 4.936-10.785 5.292-1.619.114-3.349.056-5.242.102-3.305.079-6.897.05-10.434.05-1.578 0-3.568.043-5.342 0-4.615-.11-8.119-3.732-7.006-8.619.591-2.597 2.791-4.672 5.544-5.141 1.491-.254 3.285-.179 4.989-.151 3.448.056 6.805-.05 10.434-.05 1.765-.001 3.547.075 5.191-.051.655-.05 1.161-.276 1.612-.655.723-.752.341-2.008-.504-2.42-.726-.353-2.312-.234-3.376-.201-1.196.037-2.524.035-3.629 0-2.365-.074-4.685.086-7.007.051-4.987-.077-9.737-.096-14.012.101-.27.784-.15 1.652-.15 2.47-.001 5.902-.118 11.755.05 17.792.642.263 1.397.222 2.117.201 4.972-.142 10.64-.073 15.726-.101 2.849-.015 6.101-.05 8.972 0 6.185.108 10.409-1.983 13.608-4.889 1.651-1.5 2.966-3.077 4.082-5.191 1.093-2.069 1.837-4.503 2.117-7.157.315-2.982-.234-5.626-1.108-8.014-1.583-4.321-4.805-7.855-8.771-9.778-2.072-1.005-4.36-1.953-7.207-2.066-2.868-.114-5.619.075-8.972-.051-2.965-.11-6.006.135-9.072 0-2.999-.131-6.042-.1-9.123-.101-2.964-.001-6.289-.204-9.072-.101-2.986.111-5.16-.948-6.553-2.671-1.913-1.974-1.747-5.941-.353-8.015 1.07-1.587 2.675-2.665 4.892-3.025.756-.122 1.822.008 2.721-.101 1.998-.24 4.29.151 6.452.051.999-.047 2.012-.041 3.024 0 1.072.043 2.14-.1 3.176-.051 6.287.3 12.781-.206 19.203.051 2.146.086 4.198-.089 6.149.201 3.857.574 7.212 1.503 10.029 2.873 8.483 4.179 15.045 10.986 17.641 21.169.687 2.692 1.108 5.476 1.109 8.619 0 2.902-.479 5.931-1.26 8.417-1.561 4.969-3.767 9.163-6.855 12.499-4.512 5.203-10.578 8.793-18.548 10.585-2.676.602-5.697.698-9.072.604-12.599-.348-25.919.156-38.103-.251z" fill-rule="evenodd"/></svg>