<svg enable-background="new 0 0 56.247 73.35" viewBox="0 0 56.247 73.35" xmlns="http://www.w3.org/2000/svg"><g clip-rule="evenodd" fill-rule="evenodd"><path d="m.218 73.234c-.154-.432-.16-1.391.048-1.762 5.063-.103 10.445-.142 15.662-.143 2.72-.001 5.365.131 7.759-.19 2.37-.318 4.533-.65 6.522-1.428 3.96-1.549 7.252-3.166 10.235-5.665 2.868-2.403 5.288-5.182 7.284-8.617 3.136-5.225 5.462-13.14 4.094-21.66-1.196-7.446-4.761-13.061-8.902-17.565-2.089-2.274-4.67-4.093-7.521-5.761-2.841-1.661-6.046-2.953-9.616-3.618-5.7-1.061-12.746-.523-19.232-.523-1.111 0-2.226 0-3.332 0-1.031 0-2.114.139-3.094-.19-.151-1.782-.187-4.326.045-5.904 4.116-.149 8.545-.144 12.853-.144 2.903 0 5.962-.174 8.474.048 2.77.244 5.125.549 7.379 1.143 2.202.58 4.289 1.36 6.189 2.285 7.716 3.753 13.453 9.439 17.185 16.851 2.794 5.551 4.822 12.779 3.666 21.231-1.671 12.22-7.991 20.456-16.376 26.088-2.171 1.465-4.756 2.736-7.569 3.761-2.757 1.005-5.938 1.856-9.473 1.856-7.289.001-15.027.049-22.184 0-.022-.04-.043-.083-.096-.093z"/><path d="m.266 69.283c-.225-.412-.194-1.474-.048-1.952 5.937-.141 11.998-.189 17.851-.19 1.546 0 3.069.088 4.475-.048 2.714-.261 5.147-.832 7.331-1.713 1.031-.416 1.991-1.036 2.952-1.571 3.914-2.182 6.918-5.158 9.235-8.902 2.276-3.677 3.999-8.306 3.999-14.091 0-5.744-1.78-10.353-4.142-13.996-1.792-2.764-4.02-5.039-6.569-6.998-2.514-1.931-5.598-3.605-9.092-4.522-2.432-.638-5.087-.856-8.188-.856-5.714-.001-11.85.076-17.9-.098-.236-.795-.143-1.954-.143-3.046 0-1.059-.084-2.186.143-3 5.849-.082 11.919-.201 17.709-.143 3.072.031 5.837.185 8.426.81 3.808.92 6.856 2.309 9.759 4.189 5.534 3.583 9.87 8.765 12.377 15.518.864 2.328 1.324 4.872 1.619 7.665.293 2.771.042 5.63-.476 8.426-.958 5.17-3.117 9.298-5.76 12.854-3.926 5.28-9.639 9.191-16.995 10.949-1.276.305-2.597.548-3.999.666-1.373.116-2.821.047-4.332.095-5.847.189-12.074-.005-18.232-.046z"/><path d="m.266 65.189c-.161-.467-.144-1.483 0-1.952 4.84-.176 10.107-.08 14.805-.143 2.675-.036 5.175.155 7.427-.143 2.233-.297 4.038-.883 5.903-1.667 1.662-.697 3.135-1.937 4.475-3.094 1.413-1.221 2.624-2.46 3.618-3.951 1.959-2.938 3.643-6.883 3.428-11.616-.322-7.091-3.135-12.001-7.379-15.328-1.437-1.127-2.893-2.212-4.57-2.999-1.803-.848-3.762-1.338-5.951-1.619-2.219-.285-4.608-.19-7.189-.19-4.941-.001-10.003.123-14.71-.095-.133-1.765-.209-4.263.048-5.951 4.701-.128 9.655-.143 14.233-.143 2.581 0 5.36-.163 7.76.143 5.83.745 10.254 3.087 13.663 6.142 4.107 3.935 7.408 8.534 8.141 15.661.795 7.732-1.85 13.833-5.332 18.138-3.531 4.364-8.351 7.593-15.091 8.712-1.819.302-3.839.143-5.808.143-5.741-.001-11.631.177-17.471-.048z"/><path d="m.218 61.046c-.158-.463-.147-1.485 0-1.951 5.647-.141 11.398-.144 16.947-.143 3.021 0 5.496-.16 7.617-.952 1.992-.744 3.751-1.861 5.142-3.38.309-.337.512-.76.809-1.143 1.889-2.436 3.472-5.86 2.999-10.33-.356-3.372-1.968-5.808-3.618-7.998-1.58-2.098-4.375-3.603-7.331-4.284-2.087-.482-4.677-.333-7.379-.333-4.954 0-10.205.185-15.234-.047-.151-1.814-.18-4.062 0-5.808 5.719-.152 12.178-.143 17.994-.144 2.29 0 4.34.032 6.142.571 5.056 1.514 8.934 4.579 11.282 8.902 1.561 2.875 2.616 6.682 2.142 10.997-.412 3.752-2.005 7.193-3.999 9.473-1.052 1.203-2.309 2.157-3.475 3.237-1.144 1.061-2.839 1.767-4.379 2.333-3.433 1.263-7.766 1.048-12.377 1.047-4.408 0-8.91.18-13.282-.047z"/><path d="m.218 56.953c-.258-3.883-.143-8.097-.143-12.234 0-4.148-.088-8.287.096-12.139 4.969-.169 10.029-.143 15.566-.144 2.154 0 4.321-.167 6.046.144 5.023.903 8.308 4.203 9.664 8.807 1.098 3.726.147 7.409-1.381 9.997-1.111 1.881-2.758 3.311-4.618 4.284-2.041 1.068-4.415 1.332-7.569 1.333-5.745 0-11.697.149-17.661-.048z"/></g></svg>