<svg enable-background="new 0 0 37.669 38.018" viewBox="0 0 37.669 38.018" xmlns="http://www.w3.org/2000/svg"><path d="m13.374.814c6.204-1.925 13.468-.401 18.131 4.199 3.588 3.235 5.738 7.924 6.111 12.717.455 5.824-2.013 11.761-6.416 15.596-4.188 3.848-10.298 5.478-15.851 4.332 5.01-4.932 10.215-9.693 15.14-14.696-1.614.735-3.515.833-5.18.206-1.997-.733-3.231-2.893-3.128-4.974-.052-2.309.034-4.624-.066-6.923-1.028.897-1.872 1.99-2.833 2.955 1.413 2.621.791 6.305-1.756 8.007-2.677 1.809-6.057 1.01-9.08 1.159-.125-.92-.044-1.859-.058-2.786.031-2.942-.052-5.885.023-8.825-.03-.17-.05-.342-.07-.513-2.795 2.615-5.497 5.34-8.336 7.908-.216-8.142 5.511-16.092 13.369-18.362zm10.295 19.467c1.036 2.512 4.599 3.123 6.671 1.561 1.045-.867 1.601-2.203 1.617-3.545.009-2.342-.005-4.686.004-7.028-2.687 3.069-5.541 5.995-8.292 9.012zm-14.228-7.531c-.059 3.284-.032 6.568-.049 9.854 1.621-.057 3.258.125 4.869-.103 2.195-.3 4.291-2.043 4.541-4.313.577-2.586-1.217-5.256-3.703-5.991-1.711-.486-3.517-.214-5.272-.303-.513-.097-.407.536-.386.856z"/></svg>