<svg enable-background="new 0 0 81.556 53.306" viewBox="0 0 81.556 53.306" xmlns="http://www.w3.org/2000/svg"><g clip-rule="evenodd" fill-rule="evenodd"><path d="m81.436 20.112c-1.343.174-2.923.096-4.448.096-1.542 0-3.104.113-4.401-.144-.216-.529-.141-1.262-.239-1.818-.521-2.95-2.018-5.343-4.114-6.888-2.047-1.509-5.132-2.757-8.514-2.152-2.983.533-5.257 2.078-6.84 4.114-1.602 2.06-2.537 4.92-2.105 8.658 9.97.303 20.717-.138 30.662.239.159 2.729.159 6.121 0 8.85-9.976.286-20.636-.095-30.662.191-.29 6.394.012 13.624-.239 19.899-1.274.209-2.824.095-4.353.095-1.544 0-3.102.078-4.449-.095-.259-.943-.143-2.055-.143-3.205 0-3.272-.108-6.681 0-10.045.067-2.084-.059-4.218 0-6.314.116-4.139-.199-8.798.048-13.011.116-1.972.609-3.814 1.196-5.453 1.167-3.256 2.986-5.784 5.405-7.94 3.183-2.876 6.904-4.9 12.628-5.166 6.47-.301 11.499 2.602 14.685 5.788 1.76 1.76 3.159 3.679 4.209 5.979 1.054 2.305 1.905 5.231 1.674 8.322z"/><path d="m39.821 2.03c.259 1.129.144 2.401.144 3.731v26.835c0 7.365-3.029 12.395-7.127 15.88-2.772 2.358-6.184 4.108-10.667 4.688-2.483.321-4.8.063-6.984-.479-4.026-.999-7.165-3.081-9.614-5.692-2.442-2.604-4.455-5.972-5.214-10.141-.41-2.252-.375-4.715-.334-7.223.039-2.468-.109-5.02.096-7.558 8.719-.124 17.979-.048 26.978-.048 1.245 0 2.491.107 3.683-.144.264-1.508.098-3.127.144-4.783.126-4.571-.025-9.293 0-14.063.002-.335-.103-.822.239-1.053 2.814-.101 5.828.007 8.656.05zm-28.749 29.036c-.537 0-1.311.024-1.865.143-.367 2.991.157 5.207 1.196 7.127 1.323 2.447 3.385 4.461 6.123 5.31 4.37 1.354 8.802-.231 11.289-2.87 1.284-1.361 2.192-2.979 2.727-5.118.336-1.349.468-2.976.191-4.449-6.191-.127-13.371-.146-19.661-.143z"/></g></svg>