<svg fill="none" viewBox="0 0 130 159" xmlns="http://www.w3.org/2000/svg"><path clip-rule="evenodd" d="m65.0288.139332c-5.5946.832763-10.265 5.032118-11.4916 10.333168-.1609.694-.2952 5.1135-.2998 9.8578-.0055 5.3927-.1278 9.0271-.328 9.7458-.6051 2.1715-3.2986 4.15-5.6571 4.1557-1.0148.0026-2.599-.7516-4.8888-2.3277-9.5094-6.5457-19.6889-6.5855-29.7013-.1161-9.21969 5.9569-13.93958 17.3771-12.362255 29.9107.643361 5.1112 2.702345 11.5741 5.177385 16.2513 3.55546 6.7192 4.30758 8.2244 4.30758 8.6209 0 .2431-.69687 2.015-1.54855 3.9373-7.730399 17.4488-6.53719 33.1758 3.53184 46.5488 6.4587 8.579 15.7296 14.903 27.365 18.666 7.6916 2.489 13.9238 3.277 25.8956 3.277 13.3002 0 20.5766-1.106 29.3482-4.462 16.039-6.136 27.622-18.237 31.325-32.728 2.401-9.394.92-21.126-3.987-31.5881-1.742-3.7132-1.758-3.4827.568-7.8613 5.57-10.4839 7.319-15.9669 7.68-24.0661.502-11.2527-4.153-21.0699-12.568-26.5065-7.066-4.566-13.943-5.8677-21.1247-3.9995-2.3617.6146-6.0875 2.4022-8.5763 4.1156-2.2898 1.5761-3.874 2.3303-4.8888 2.3277-2.4377-.0057-5.0684-1.9917-5.691-4.2956-.2092-.774-.3058-2.5964-.2451-4.6234.0854-2.8506.185-3.4391.6727-3.9757.8393-.924 1.5301-1.2192 3.3048-1.4124l1.5897-.1732-.0633-1.294c-.1024-2.0952-1.6869-7.8532-2.7789-10.0969-2.8154-5.78576-8.6816-9.096743-14.5653-8.221268zm4.2857 8.408748c.4578.43716.9883 1.34933 1.1788 2.02702.3044 1.0833.2756 1.3917-.2377 2.5479-.8047 1.8126-2.0262 2.5435-4.0063 2.3979-3.0047-.2213-4.6425-3.1031-3.3296-5.85942.7288-1.53022 1.9143-2.14109 3.9076-2.01353 1.3322.08514 1.8171.26058 2.4872.90013zm-28.3344 64.68542c3.0436 1.1389 5.1438 3.6065 6.0869 7.1532 1.0278 3.8636.3686 12.9842-1.3365 18.491-1.7612 5.6883-4.6148 9.0033-7.766 9.0223-2.2409.014-9.3498-2.921-13.5054-5.575-5.4873-3.5049-10.4331-8.6936-12.9073-13.5419-.9569-1.8751-.8197-2.6763.789-4.6021 4.8658-5.8254 12.8241-10.4286 19.8869-11.5036 2.877-.4378 6.7545-.1915 8.7524.5561zm58.8589-.1439c2.671.6324 6.696 2.2813 9.288 3.8046 4.421 2.5989 9.995 8.0714 9.995 9.8137 0 1.0025-.755 2.5803-2.37 4.9542-3.754 5.5191-9.313 10.1489-15.972 13.3009-3.3752 1.597-7.3614 2.945-8.6869 2.937-3.1512-.019-6.0049-3.334-7.7661-9.0223-1.7051-5.5068-2.3643-14.6274-1.3365-18.491 1.129-4.2447 3.8282-6.8536 8.0115-7.7443 1.6314-.3474 6.528-.0995 8.837.4472zm-32.4549 11.5919c.4868.5985.5219 1.5096.5219 13.4933 0 9.9712-.0805 12.9012-.3596 13.0742-.5432.337-4.2676.392-4.8684.071-.498-.265-.5265-.969-.5265-13.0457 0-8.4842.1027-12.9567.3064-13.336.4376-.8147 1.3523-1.122 2.984-1.0027 1.0425.0762 1.5595.2746 1.9422.7459zm-44.162 31.5265c2.4966 1.517 2.3925 5.699-.1746 7.021-1.1823.609-3.151.562-4.1586-.1-2.5147-1.652-2.536-5.276-.0405-6.913 1.1336-.743 3.1575-.747 4.3737-.008z" fill="#000" fill-rule="evenodd"/></svg>