<svg enable-background="new 0 0 79.668 73.389" viewBox="0 0 79.668 73.389" xmlns="http://www.w3.org/2000/svg"><path clip-rule="evenodd" d="m37.511.163c.299 2.223.099 4.553.099 6.968v17.989c0 1.107-.192 2.659.049 3.558.19.708 1.528 1.555 2.076 2.026.775.668 1.457 1.362 2.322 1.73.427-.889.723-1.786 1.087-2.619 1.128-2.581 2.643-4.571 4.547-6.474 1.205-1.205 2.634-2.211 4.398-2.965 1.718-.735 3.541-1.478 5.634-1.68 2.417-.234 4.681-.396 6.82.049 5.975 1.245 10.402 4.38 12.898 9.143.881 1.681 1.543 3.325 1.927 5.437 1.299 7.128-1.853 12.824-5.288 16.259-2.395 2.395-5.635 4.384-9.587 5.139-2.201.42-4.484.595-6.77.297-2.098-.274-3.846-.982-5.732-1.582-.347.703-.198 1.578-.198 2.372 0 5.837.012 11.774-.149 17.494-1.524.16-3.301.049-5.041.049-1.738 0-3.502.118-4.991-.148-.206-8.878.046-18.366-.049-27.576-.784-1.111-2.341-2.135-3.361-3.064-.355-.324-.625-.828-1.137-.84-.335.42-.316 1.044-.494 1.532-1.276 3.496-3.428 6.065-6.177 8.154-2.743 2.084-6.088 3.701-10.378 3.904-2.458.116-4.502-.165-6.424-.643-1.867-.464-3.357-1.273-4.893-2.224-2.984-1.848-5.12-4.414-6.771-7.512-1.752-3.29-2.471-7.992-1.482-12.059.885-3.64 2.944-6.848 5.288-8.994 2.415-2.211 5.722-4.046 9.439-4.843 2.24-.48 4.398-.387 6.523-.049 2.025.321 3.615 1.004 5.486 1.631.285-.75.197-1.601.197-2.422 0-5.133 0-10.504 0-15.715 0-.826-.122-1.683.198-2.421 3.213-.064 6.861-.139 9.934.099zm17.89 29.849c-1.861 1.304-3.406 3.359-3.607 5.979-.285 3.695 1.41 6.296 3.558 7.758 2.221 1.512 5.645 2.009 8.302.989 2.435-.935 4.318-2.754 5.238-5.14 1.146-2.969.27-6.146-1.186-8.006-1.478-1.89-3.784-3.512-7.166-3.262-2.141.16-3.743.703-5.139 1.682zm-44.872 10.23c1.115 2.935 4.478 5.208 7.907 5.337 4.434.168 8.137-3.027 8.896-6.819.819-4.094-1.255-7.066-3.558-8.599-1.394-.928-3.051-1.717-5.732-1.532-2.823.194-4.652 1.56-6.177 3.163-1.751 1.881-2.422 5.593-1.336 8.45z" fill-rule="evenodd"/></svg>