<svg enable-background="new 0 0 174.775 92.198" viewBox="0 0 174.775 92.198" xmlns="http://www.w3.org/2000/svg"><path clip-rule="evenodd" d="m163.265 45.81c.649.604 1.56.874 2.342 1.317.786.444 1.511.941 2.146 1.512 1.345 1.096 2.564 2.316 3.513 3.806 2.534 4.22 3.768 10.195 3.464 17.123-.091 2.07-.542 3.994-1.073 5.756-2.058 6.832-6.579 11.769-12.781 14.587-1.598.726-3.324 1.335-5.22 1.658-1.992.341-4.054.44-6.391.439-49.474-.017-99.45.4-148.986.049-.342-.938-.195-2.265-.195-3.464.001-1.224 0-2.473 0-3.61-.008-.171.014-.312.098-.39-.008-.058.012-.087.049-.098 10.174-.088 20.557.003 30.93 0 5.146-.002 10.305-.05 15.465-.049 25.749.003 51.321.018 77.225-.146.021-.044.042-.087.097-.098.172-2.925.101-5.993 0-8.879-.043-.021-.087-.043-.097-.097-30.539-.092-61.498.049-92.934.049-5.17-.001-10.31.077-15.416 0-5.141-.078-10.256.11-15.32-.195-.176-1.682-.098-3.812-.098-5.707.001-.607-.107-1.26.146-1.756 20.297.083 40.466-.049 61.663-.049 20.768-.001 41.646.081 61.956-.146.217-.649.202-1.437.194-2.195-.021-1.97.009-4.57-.146-6.684-1.216-.254-2.467-.146-3.708-.146-9.12 0-18.054.045-27.173.049-23.361.01-46.899.1-69.955.098-7.491 0-15.258.004-22.881-.244-.211-2.337-.193-4.957-.049-7.366 1.252-.266 2.538-.146 3.807-.146 19.311-.001 38.939.052 58.149.049 15.373-.002 30.78-.048 46.393-.049 3.869 0 7.719-.049 11.659-.049 1.249 0 2.526.121 3.757-.146.161-2.717.161-6.111 0-8.829-1.145-.265-2.453-.147-3.806-.147-18.866.003-39.402.049-58.199.049-20.34 0-41.364.234-61.712-.146-.26-1.06-.146-2.38-.146-3.659 0-1.285-.04-2.594.048-3.756.07-.027.119-.076.146-.146 20.152.181 40.965-.006 61.761 0 20.7.007 41.71.104 61.858-.146.021-.043.042-.087.097-.098.025-2.823.199-6.215-.097-8.879-40.525-.268-82.316.22-123.521-.146-.477-.218-.293-1.324-.293-2.195 0-1.699-.077-3.863.097-5.366 10.237-.078 20.631-.001 30.978 0 30.638.001 61.795-.042 92.69-.195.26-.629.194-1.394.194-2.146.001-2.238.041-4.73-.097-6.781-.044-.022-.088-.043-.098-.098-41.356-.223-82.686.217-123.614-.151-.022-.043-.042-.087-.098-.097-.049-2.327-.145-5.121.049-7.367-.008-.056.011-.087.049-.097 12.436-.042 24.996.002 37.613 0 24.863-.003 50.426-.094 75.37-.049 10.992.021 22.311-.096 33.076-.098 1.613 0 3.397-.029 4.878-.048 5.515-.071 10.055 1.484 13.61 3.902 3.517 2.391 6.243 5.679 7.903 9.708 1.728 4.194 2.199 9.984 1.609 15.513-.559 5.252-2.306 9.471-5.024 12.587-.804.862-1.732 1.608-2.78 2.244-1.038.629-2.187 1.143-3.171 1.854zm-18.586-6c1.215-.049 2.368.049 3.464 0 2.006-.092 3.762-.905 5.073-1.903 2.568-1.954 4.323-5.344 4.635-9.317.363-4.637-1.122-8.138-3.22-10.586-1.078-1.258-2.386-2.263-4.098-2.878-2.338-.841-6.195-.428-9.123-.342-.241 1.928-.059 3.942-.146 6-.086 2.031.049 4.146.049 6.244.001 4.238-.081 8.581.098 12.684 1.098.275 2.232.139 3.268.098zm.682 37.709c1.364-.006 2.669.043 3.855-.098 2.181-.257 4.151-1.263 5.561-2.585 2.801-2.628 4.574-7.117 3.951-11.757-.602-4.474-2.815-7.843-6.293-9.708-2.691-1.443-7.197-.893-11.025-.83-.175 6.991-.099 14.609-.098 21.807 0 1.021-.112 2.06.146 3.024 1.338.263 2.655.153 3.903.147z" fill-rule="evenodd"/></svg>