<svg enable-background="new 0 0 57.488 77.584" viewBox="0 0 57.488 77.584" xmlns="http://www.w3.org/2000/svg"><g clip-rule="evenodd" fill-rule="evenodd"><path d="m57.258.134c.217 2.703.199 6.332.048 9.508-6.017.305-12.826.008-19.205.191-.371 2.799.023 6.465-.193 9.314-.583.002-.833-.74-1.303-1.014-2.946-2.973-5.823-6.016-8.783-8.976-2.217-2.217-4.474-4.377-6.708-6.609-.723-.725-1.426-1.535-2.316-2.076-.395 2.686.075 6.309-.241 9.121-5.872.194-12.458.227-18.434.049-.16-2.947-.161-6.56 0-9.508 19.011-.289 38.938-.025 57.135 0z"/><path d="m37.763 19.775h.097c.252 2.885-.043 6.316.193 9.217.724.262 1.544.145 2.316.145 5.54.002 11.37-.074 16.938.098.048 4.807.316 9.912.097 14.525-.077 1.602.249 3.182-.097 4.68-4.611.176-9.697.098-14.525.098-1.577 0-3.17-.102-4.632.145-.286 2.883.092 6.43-.193 9.312-.57-.125-.883-.682-1.254-1.061-.767-.783-1.565-1.564-2.365-2.365-1.922-1.922-3.872-4.018-5.839-5.984-2.761-2.76-5.567-5.469-8.349-8.252-.384-.383-.732-.912-1.303-1.061-.383 2.738.066 6.307-.241 9.121-5.844.217-12.473.213-18.434.047-.185-1.512-.097-3.144-.097-4.777 0-3.115-.048-6.328-.048-9.65 0-1.627-.117-3.25.145-4.777 2.322-.16 4.724-.137 7.094-.144 3.694-.014 7.504-.059 11.292.096.259 1.344.145 2.947.145 4.537 0 1.574-.074 3.188.097 4.584.52-.018.943-.605 1.303-.965 5.775-5.775 11.649-11.725 17.517-17.469.033-.049.086-.077.143-.1z"/><path d="m37.859 58.525c.039.01.048.049.096.049.286 2.883-.093 6.43.193 9.312 6.134.418 12.952-.145 19.158.193.259 1.373.145 3.014.145 4.633 0 1.605.079 3.26-.096 4.682-1.574.26-3.22.145-4.826.145-4.951 0-9.771-.068-14.333 0-4.726.068-9.718-.049-14.622-.049-1.567 0-3.141.098-4.632-.096-1.462.219-3.016.145-4.584.145-4.68 0-9.454.129-14.139-.049-.239-1.396-.076-3.045-.145-4.682-.034-.817 0-1.643 0-2.461 0-.797-.104-1.592.145-2.268 5.813-.076 12.731-.242 18.386 0 .253 2.852-.012 6.221.241 9.072.558-.072.882-.641 1.255-1.014 1.14-1.141 2.391-2.332 3.571-3.475 4.663-4.697 9.399-9.322 14.042-14.043.036-.041.088-.071.145-.094z"/></g></svg>