<svg enable-background="new 0 0 81.702 54.271" viewBox="0 0 81.702 54.271" xmlns="http://www.w3.org/2000/svg"><g clip-rule="evenodd" fill-rule="evenodd"><path d="m13.027 6.127c-.342 1.336-.205 2.877-.205 4.455v9.321c0 1.45-.311 3.234.563 4.097.68.261 2.679.154 4.046.154h8.194c1.317 0 3.113-.19 3.943.153.422.175.833.665.973.922.629 1.16.522 4.268-.768 4.763-2.884.278-5.421.154-8.246.154-1.717 0-4.131.031-6.043.051-1.176.013-2.158-.176-2.56.768-.324.759-.154 3.139-.154 4.148 0 2.919.015 5.609 0 8.501-.008 1.699-.306 4.027.768 4.609.787.427 2.556.154 3.841.154h8.143c2.127 0 4.27-.261 5.019.921.728 1.15.568 4.179-.717 4.661-.76.285-2.112.071-3.073.051-5.247-.109-11 0-16.183 0-2.052 0-4.242.244-6.35 0-1.976-.229-3.765-2.704-4.097-4.609-.239-1.371-.051-2.992-.051-4.66 0-3.103 0-6.111 0-9.321 0-2.084-.208-4.51.563-5.736.537-.853 1.303-1.462 2.1-1.895 1.067-.581 3.095-.93 3.636-2.151.505-1.141.205-3.762.205-5.48 0-3.743-.04-7.792 0-11.574.01-.904.097-1.909.051-2.868-.129-2.743.528-4.669 2.407-5.48.444-.192 1.387-.144 1.895-.205.759-.092 1.585.038 2.407.051 4.028.061 8.023-.051 12.188-.051.776 0 1.66-.032 2.458 0 .699.028 1.822.003 2.253.307.586.414.583 1.254.563 2.048-.032 1.311.124 2.499-.819 2.971-.847.423-2.644.204-4.046.204-2.835 0-5.476 0-8.399 0-1.559.002-3.935-.281-4.505.566z"/><path d="m81.345 53.498c-.571 1.069-3.125.717-5.019.717-2.944.001-5.641-.051-8.655-.051-1.426 0-3.297.228-4.405-.102-1.837-.549-1.389-3.528-1.331-5.941.09-3.775 0-7.464 0-11.113 0-1.851-.188-3.724.256-5.326.751-1.291 3.27-.147 4.046-1.639.539-1.038.185-4.507.205-5.787.079-5.184 0-9.848 0-15.108 0-1.305.161-2.594-.41-3.124-.436-.404-1.446-.32-2.048-.307-1.57.031-3.237 0-4.763 0-1.007 0-1.823-.165-2.305.358-.668.726-.358 4.427-.358 5.787v30.42c0 1.916.025 4.125 0 6.146-.022 1.715.306 4.971-.871 5.582-.748.389-4.156.196-4.558-.102-.948-.704-.717-3.504-.717-5.48 0-8.211.051-15.745.051-24.274 0-5.049-.051-9.813-.051-15.159 0-1.42.134-2.613-.564-3.073-.688-.454-2.263-.256-3.534-.256-1.673 0-3.709-.324-4.302.563-.325.486-.301 1.816-.308 2.714-.046 6.7 0 14.072 0 20.895v20.587c0 1.652.161 2.988-.819 3.534-.755.42-3.703.244-4.353-.051-1.577-.716-1.29-4.114-1.229-6.863.146-6.597.051-12.502.051-19.307 0-6.529 0-12.944 0-19.563 0-3.885-.331-7.607 3.277-8.04 1.255-.151 2.677-.02 3.995 0 7.843.12 15.634.102 23.763.102 2.699 0 4.629-.111 5.429 1.741.71 1.646.44 4.522.358 6.708-.23 6.141 0 11.556 0 17.822 0 1.752-.32 3.633.922 4.148 2.325.964 7.762-1.098 8.501 1.587.192.7.051 1.774.051 2.714-.001 5.591 0 10.7 0 16.132.002.798.173 1.709-.305 2.409z"/></g></svg>