<svg enable-background="new 0 0 27.893 27.326" viewBox="0 0 27.893 27.326" xmlns="http://www.w3.org/2000/svg"><path d="m.342 0c9.108.011 18.215.048 27.321.117-.016 1.899-.006 3.798-.021 5.697-9.113-.029-18.226-.068-27.337-.122.007-1.899.039-3.793.037-5.692z"/><path d="m0 13.431c8.953-1.729 17.905-3.455 26.871-5.104.397 1.837.661 3.699 1.021 5.542-8.944 1.757-17.901 3.452-26.853 5.177-.353-1.871-.694-3.743-1.039-5.615z"/><path d="m.239 21.569c9.118.006 18.236.068 27.354.116-.002 1.881-.071 3.76-.051 5.641-9.111-.019-18.221-.058-27.332-.116-.038-1.88.05-3.76.029-5.641z"/></svg>