<svg enable-background="new 0 0 70.487 72.316" viewBox="0 0 70.487 72.316" xmlns="http://www.w3.org/2000/svg"><path clip-rule="evenodd" d="m70.28 40.072c-.043.021-.086.042-.096.095-4.864.271-9.824-.004-14.833.095-12.403.245-25.253-.083-37.77.047-1.248.013-2.506-.047-3.744-.047-1.207 0-2.436-.126-3.602.19-.009.039-.047.047-.047.095-.116.76.094 1.561.285 2.274 1.318 4.944 3.792 9.096 7.061 12.132 1.876 2.198 4.399 3.752 7.25 5.118 2.676 1.282 6.208 2.301 9.999 2.37 5.144.094 9.474-1.767 12.843-3.602 4.219-2.298 7.829-6.145 10.046-10.52.436-.861.729-1.886 1.517-2.559 2.335-.086 5.032-.047 7.535-.047.803 0 1.686-.166 2.274.237.047.882-.295 1.724-.568 2.512-.267.768-.627 1.523-.948 2.227-3.299 7.235-8.201 12.958-14.928 16.824-1.367.786-2.714 1.558-4.217 2.133-4.269 1.63-10.284 3.26-16.161 2.464-1.888-.255-3.641-.516-5.355-.995-1.697-.475-3.309-.901-4.787-1.517-5.922-2.467-10.596-6.404-14.359-10.994-.984-1.2-1.863-2.401-2.654-3.697-.408-.666-.671-1.392-1.043-2.132-1.753-3.486-3.136-7.483-3.696-12.132-.485-4.02-.352-8.145.426-11.706.374-1.709.971-3.26 1.517-4.833.53-1.527 1.318-2.905 1.895-4.407.512-1.331 1.49-2.731 2.37-3.981.89-1.264 1.942-2.416 2.938-3.412 2.137-2.137 4.369-4.129 6.824-5.829 2.572-1.78 5.3-3.198 8.341-4.36 1.533-.585 3.125-1.229 4.833-1.516 1.773-.298 3.613-.47 5.734-.569 6.107-.284 11.336 1.681 15.402 3.649 3.23 1.564 5.925 3.461 8.34 5.876.797.795 1.699 1.483 2.418 2.275 4.532 4.991 7.791 11.112 8.909 19.524.278 2.098.271 4.478.237 6.682-.009.702.124 1.417-.186 2.036zm-43.079-27.96c-3.974 1.35-7.565 3.721-10.331 6.635-2.063 2.173-3.839 4.707-5.071 7.63-.42.997-.966 2.036-.995 3.175.487.445 1.224.284 1.848.284 4.862 0 10.224.127 14.88-.047.54-.02 1.346.137 1.706-.189-.088-.525-.583-.613-.9-.9-2.417-2.186-4.264-5.342-3.791-10.189.016-.159.06-.318.095-.474.387-1.728 1.232-3.297 2.132-4.597.336-.421.876-.64.996-1.279-.196-.15-.431-.096-.569-.049zm15.118.142c-.092.358.221.458.475.806 1.338 1.837 2.416 3.848 2.605 6.682.131 1.941-.334 3.515-.9 4.833-.623 1.454-1.672 2.974-2.701 3.934-.357.334-.92.468-1.09 1.137.603.326 1.358.19 2.038.19 1.982 0 4.249.048 6.444.048 2.197 0 4.598-.048 6.92-.048 1.143 0 2.34.224 3.223-.237.023-1.206-.518-2.265-.9-3.27-1.18-3.093-3.092-5.559-5.071-7.819-2.876-2.874-6.284-5.215-10.9-6.351-.057.023-.108.051-.143.095z" fill-rule="evenodd"/></svg>