<svg enable-background="new 0 0 48.625 77.223" viewBox="0 0 48.625 77.223" xmlns="http://www.w3.org/2000/svg"><g clip-rule="evenodd" fill-rule="evenodd"><path d="m20.327.114c.261.748.146 1.564.146 2.342.001 18.229-.001 36.924 0 55.348 0 4.863-.049 9.764-.049 14.482 0 1.598.119 3.207-.146 4.779-6.675.051-13.774.158-20.188-.098-.155-22.539-.049-44.66-.049-67.539 0-2.389 0-4.734 0-7.217 0-.707-.189-1.563.244-2.195 6.492.027 13.561-.101 20.042.098z"/><path d="m36.566.114c3.121-.217 5.998 1.164 7.753 2.537 1.939 1.516 3.306 3.443 3.998 6.289.778 3.195-.018 6.24-1.268 8.34-1.283 2.156-3.142 3.875-5.462 4.826-3.554 1.459-7.485.922-10.338-.682-2.708-1.521-4.684-3.971-5.461-7.266-.968-4.105.366-7.488 2.194-9.801.968-1.227 1.996-2.111 3.511-2.879 1.402-.708 3.066-1.224 5.073-1.364z"/><path d="m36.37 27.178c2.634-.156 5.107.625 6.778 1.658 3.079 1.902 5.562 5.17 5.461 10.24-.032 1.617-.397 3.045-.975 4.242-2.011 4.168-7.019 8.139-13.751 6.291-2.665-.731-4.735-2.195-6.242-4.242-1.474-2.002-2.489-4.789-2.146-8.096.325-3.125 1.727-5.354 3.462-6.973 1.284-1.197 2.945-2.178 5.072-2.779.757-.212 1.6-.296 2.341-.341z"/><path d="m35.931 54.292c4.108-.354 7.176 1.314 9.217 3.219 1.989 1.854 3.669 4.896 3.413 9.021-.307 4.951-3.364 8.186-7.071 9.752-2.066.875-4.749 1.252-7.217.635-4.155-1.041-7.438-4.021-8.534-8.291-.585-2.281-.446-4.994.439-7.168 1.069-2.625 3.338-5.217 6.291-6.34 1.022-.389 2.122-.713 3.462-.828z"/></g></svg>