<svg enable-background="new 0 0 74.407 74.919" viewBox="0 0 74.407 74.919" xmlns="http://www.w3.org/2000/svg"><path clip-rule="evenodd" d="m35.82.064c2.917-.24 6.151.232 8.577.758 2.633.57 4.997 1.311 7.156 2.18 3.299 1.33 6.217 3.064 8.814 5.166 4.284 3.465 7.926 7.709 10.331 12.984 1.986 4.357 3.556 9.08 3.696 14.928.221 9.232-2.538 16.291-6.161 21.848-3.652 5.602-8.541 9.963-14.833 13.127-4.176 2.1-9.26 3.631-14.786 3.838-6.078.229-11.451-1.061-15.828-2.844-2.19-.891-4.217-1.957-6.113-3.223-5.585-3.725-10.23-8.514-13.175-14.785-.504-1.072-.79-2.258-1.232-3.459-1.239-3.373-2.022-7.18-2.228-11.705-.239-5.262.616-10.258 2.085-14.17.224-.598.35-1.217.568-1.754 3.571-8.764 9.98-14.926 18.15-19.145 4.146-2.142 9.019-3.344 14.88-3.744.035-.002.067.002.099 0zm-.048 1.659c-11.061.513-18.577 5.023-24.406 10.851-3.59 3.59-6.658 8.299-8.293 13.744-1.017 3.385-1.611 7.297-1.611 11.609 0 2.752.385 5.402.948 7.867.286 1.252.445 2.434.853 3.555 1.177 3.236 2.633 6.254 4.455 8.768 1.248 1.723 2.536 3.293 4.028 4.787 2.833 2.832 6.521 5.521 10.426 7.203 3.007 1.293 6.562 2.473 10.331 2.891 1.37.152 2.778.348 4.028.094.252-1.139.143-2.393.143-3.648 0-2.559 0-5.168 0-7.678 0-1.275.111-2.543-.143-3.697-.76-.25-1.54-.174-2.274-.283-5.116-.77-9.134-3.164-11.942-6.209-2.779-3.012-5.163-7.217-5.497-12.605-.047-.748-.135-1.582.047-2.369 11.368-.258 23.237-.045 35.116-.047 1.68 0 3.352.115 4.976-.143.112-2.941-.775-5.545-1.896-7.725-1.15-2.236-2.434-4.15-4.123-5.734-2.894-2.715-6.741-4.922-11.658-5.545-.71-.09-1.484.006-2.228-.236-.116-3.648-.047-7.855-.047-11.658 0-1.299.103-2.566-.142-3.744-.306-.187-.793-.062-1.091-.048z" fill-rule="evenodd"/></svg>