<svg enable-background="new 0 0 80.822 40.926" viewBox="0 0 80.822 40.926" xmlns="http://www.w3.org/2000/svg"><path clip-rule="evenodd" d="m40.494 16.805c.456-.48.452-1.176.615-1.754 1.184-4.17 3.426-7.547 6.351-10.047 2.466-2.123 5.62-3.809 9.525-4.549 4.173-.791 8.758-.189 11.942 1.375 3.233 1.586 5.793 3.398 7.914 6.16 1.023 1.332 1.859 2.787 2.559 4.455.684 1.629 1.364 3.449 1.422 5.496-1.332.156-3.312.158-4.644 0-.343-.467-.392-1.064-.521-1.564-.948-3.656-3.177-6.658-5.972-8.623-3.188-2.244-8.133-3.688-13.127-2.275-3.034.857-5.348 2.455-7.25 4.502-1.877 2.019-3.268 4.617-3.791 7.914.511.311 1.2.213 1.801.189 4.404-.164 9.402.135 13.695-.143.055-.43-.366-.726-.615-.994-1.871-2.014-3.881-4.123-5.734-6.209-.367-.381-.666-.723-1.091-1.184-.247-.269-1.054-.855-.995-1.281.055-.391 1.426-.894 1.754-1.09.671-.394 1.178-.711 1.848-.947.771.332 1.283 1.047 1.849 1.611 1.133 1.133 2.381 2.223 3.412 3.508 1.525 1.9 3.268 3.408 5.071 5.213.748.75 1.691 1.691 2.559 2.605.269.283.751.705.758.947.014.477-1.303 1.565-1.611 1.897-3.709 3.992-7.15 7.898-10.899 11.895-.294.314-.62.773-.9.807-.482.055-1.498-.607-1.896-.807-.67-.336-1.346-.52-1.801-.9.133-.568.662-.945 1.043-1.326 2.322-2.322 4.605-4.893 6.871-7.346.351-.381.894-.75.947-1.328-2.601-.213-5.371-.094-8.056-.094-2.699 0-5.36-.143-7.962.094.125 2.027.918 3.775 1.754 5.262.85 1.512 1.957 2.826 3.223 3.885 2.919 2.709 8.019 4.789 13.506 3.508 4.709-1.1 8.129-3.904 10.142-7.582.983-1.371 1.345-3.363 1.942-5.119 1.366-.135 3.535-.205 4.691.047-.539 5.59-3.172 9.406-6.445 12.559-3.15 3.035-7.883 5.311-13.742 5.355-5.928.047-10.553-2.547-13.695-5.402-1.634-1.482-3.133-3.338-4.171-5.355-1.085-2.109-1.837-4.477-2.369-7.156-5.742-.131-11.714-.141-17.63-.141-5.95-.002-11.888-.188-17.581.047-.102.969.256 1.914.568 2.748.924 2.469 2.386 4.6 4.171 6.209 2.309 2.068 5.478 3.93 9.715 4.123 4.368.197 7.869-1.355 10.426-3.318 1.845-1.592 3.424-3.475 4.502-5.875.359-.801.486-1.701.947-2.512 1.473-.049 3.393-.141 4.787.047-.62 4.041-2.529 7.201-4.787 9.762-2.115 2.395-4.391 4.082-7.535 5.309-3.074 1.199-6.921 1.898-11.041 1.184-6.574-1.139-11.977-5.406-14.738-10.899-1.508-2.998-2.356-6.596-2.18-10.475.172-3.807 1.405-7.08 3.08-9.715 3.27-5.143 8.557-9.021 16.302-9.477 3.084-.182 5.809.506 8.104 1.373 6.844 2.588 11.145 7.86 12.983 15.401zm-6.161-3.08c-1.759-3.662-4.819-6.42-8.672-7.867-1.866-.701-4.212-1.121-6.587-.947-5.297.384-9.277 3.241-11.564 6.728-1.135 1.731-2.115 3.82-2.37 6.209 1.115.273 2.347.094 3.555.094 3.811 0 7.728.049 11.562.049 3.853 0 7.69.094 11.517.094 1.259 0 2.53.115 3.743-.143-.036-1.544-.59-2.981-1.184-4.217z" fill-rule="evenodd"/></svg>