<svg enable-background="new 0 0 80.547 45.263" viewBox="0 0 80.547 45.263" xmlns="http://www.w3.org/2000/svg"><path clip-rule="evenodd" d="m80.376 45.143c-2.51.16-5.686.161-8.195 0-.281-1.276.09-3.206-.192-4.483-.556.013-.962.489-1.397.771-1.327.859-2.833 1.637-4.483 2.217-2.244.709-4.723 1.397-7.567 1.35-6.316-.105-11.176-2.498-14.654-5.495-.768-.712-1.724-1.582-2.554-2.506-.234-.26-.536-.772-.868-.772-.488 0-1.25 1.225-1.687 1.688-.585.618-1.228 1.201-1.736 1.639-.582.502-1.184 1.081-1.831 1.543-.65.463-1.399.874-2.073 1.253-2.854 1.605-6.272 2.699-10.749 2.699-8.652 0-13.946-4.08-17.932-8.917-2.902-3.858-5.182-9.644-4.241-16.582.809-5.989 3.739-10.572 7.421-13.835 3.664-3.248 8.886-5.909 15.714-5.543 6.594.353 11.043 3.067 14.558 6.7.862.616 1.339 1.618 2.218 2.218.689-.416 1.116-1.092 1.639-1.639 3.182-3.329 6.985-6.093 12.58-7.086.965-.171 2.023-.287 3.086-.337 5.62-.266 9.912 1.633 13.255 3.856 1.576 1.047 3.364 2.476 4.531 4 .603.788 1.159 1.706 1.735 2.555 1.675 2.468 3.015 5.776 3.374 9.448.254 2.592.097 5.447.097 8.435-.001 4.172.096 8.42.097 12.726-.001 1.366.116 2.774-.146 4.097zm-8.821-27.09c-.659-1.874-1.641-3.487-2.796-4.82-2.376-2.742-7.043-5.384-12.243-4.627-3.532.514-6.178 2.087-8.194 4.145-1.932 1.971-3.593 4.888-3.856 8.435-.037.502.041 1.076-.192 1.591-11.218.156-22.192.048-33.646.048-.714 0-1.485-.112-2.17.144-.24 2.078.413 3.902 1.061 5.447.655 1.563 1.59 2.891 2.7 4 2.226 2.226 5.097 4.013 9.158 4.291 4.258.29 7.723-1.262 10.074-3.278 1.802-1.545 3.294-3.563 4.097-5.978.284-.852.214-1.812.675-2.699 5.866-.019 11.919-.048 17.98-.048 6.03 0 12.063.163 17.883-.048.557-2.34.11-4.78-.531-6.603zm-39.382-5.303c-3.064-3.065-8.701-5.162-14.22-3.422-2.797.881-5.034 2.658-6.651 4.724-.32.409-.83.879-.724 1.495 5.344.234 10.931.061 16.244.096 2.064.014 4.256 0 6.267 0 .329 0 .779.121 1.012-.193-.253-1.066-1.136-1.908-1.928-2.7zm35.767 18.559c-4.728 0-9.312-.048-13.882-.048-2.007 0-4.011-.101-5.785-.048-.196.006-.3.058-.434.145-.059.491.412.846.723 1.156 2.229 2.23 5.519 4.005 9.785 4.049 4.34.045 7.683-1.752 9.882-3.953.313-.313.849-.632.771-1.157-.293-.25-.715-.144-1.06-.144z" fill-rule="evenodd"/></svg>