<svg enable-background="new 0 0 19.372 19.539" viewBox="0 0 19.372 19.539" xmlns="http://www.w3.org/2000/svg"><path d="m5.736.732c.767-.348 1.578-.582 2.405-.732.329 1.164.667 2.325.988 3.491.1.278.15.573.27.844-.17.069-.358.051-.533.102-.846.151-1.659.485-2.35 1-.7.506-1.253 1.196-1.648 1.961-.325.676-.52 1.409-.586 2.154-1.02-.321-2.051-.608-3.079-.902-.399-.128-.8-.251-1.203-.367.093-.844.364-1.659.694-2.438.646.17 1.274.401 1.915.587.118-.144.186-.318.277-.478.137-.248.3-.48.445-.723-.482-.491-.949-.998-1.453-1.467.531-.655 1.112-1.273 1.775-1.797.358.381.736.743 1.105 1.114.122.119.233.253.381.343.359-.259.743-.48 1.131-.694-.147-.673-.409-1.32-.534-1.998z"/><path d="m11.33.04c.824.105 1.612.394 2.378.707-.004.089 0 .18-.029.265-.172.575-.379 1.142-.52 1.726.383.22.758.454 1.133.688.155-.104.276-.248.408-.378.347-.344.689-.693 1.038-1.035.124.074.244.156.344.263.183.191.408.337.585.534.28.31.562.618.814.952-.451.51-.96.966-1.415 1.473.266.384.472.804.715 1.202.642-.188 1.279-.392 1.923-.575.32.752.54 1.546.669 2.353-.573.185-1.15.36-1.726.533-.853.223-1.684.521-2.536.747-.127-1.218-.571-2.436-1.418-3.34-.93-1.039-2.274-1.687-3.665-1.78.268-.883.523-1.77.792-2.653.154-.565.324-1.127.51-1.682z"/><path d="m9.58 7.641c1.064-.076 2.102.77 2.247 1.83.105.565-.061 1.162-.393 1.625-.335.445-.836.767-1.388.862-1.088.22-2.251-.589-2.45-1.676-.135-.522-.021-1.091.242-1.557.275-.467.727-.829 1.247-.989.159-.057.331-.053.495-.095z"/><path d="m1.292 10.996c1.003-.279 2-.58 2.997-.879.113 1.36.705 2.694 1.704 3.633.759.731 1.744 1.202 2.772 1.411.204.049.415.054.624.06-.426 1.441-.867 2.877-1.29 4.319-.828-.141-1.639-.378-2.408-.717.203-.648.373-1.306.583-1.952-.358-.205-.714-.412-1.054-.644-.113-.078-.198.064-.276.125-.408.409-.825.808-1.215 1.233-.047.068-.112-.009-.155-.038-.625-.491-1.169-1.079-1.669-1.695.271-.238.528-.49.772-.756.238-.227.468-.461.681-.71-.275-.374-.498-.781-.721-1.186-.39.084-.766.227-1.151.332-.265.068-.518.188-.791.219-.34-.748-.579-1.545-.692-2.359.433-.128.862-.258 1.289-.396z"/><path d="m15.111 10.14c1.404.428 2.814.84 4.228 1.232.009.169-.04.332-.069.498-.144.664-.347 1.319-.636 1.935-.656-.149-1.286-.403-1.941-.553-.217.396-.443.787-.707 1.154.482.472.954.954 1.434 1.428-.163.248-.358.474-.567.684-.351.399-.747.764-1.178 1.074-.486-.471-.951-.963-1.44-1.429-.401.279-.841.493-1.249.761.122.512.292 1.012.421 1.523.058.137.118.276.091.429-.753.294-1.527.535-2.327.665-.395-1.434-.845-2.851-1.233-4.288.592-.081 1.19-.183 1.747-.411.914-.36 1.707-.995 2.312-1.764.655-.841 1.001-1.888 1.114-2.938z"/></svg>