<svg enable-background="new 0 0 75.917 26.42" viewBox="0 0 75.917 26.42" xmlns="http://www.w3.org/2000/svg"><g clip-rule="evenodd" fill-rule="evenodd"><path d="m32.448.115c.208 1.291.26 3.688 0 5.152-8.858.307-18.05-.035-27.135.245-.188 1.384-.126 3.449-.049 4.906.619.256 1.296.147 1.963.147 10.106.001 20.844.048 30.766-.098.382-.91-.055-2.64.246-3.632.724.275 1.177.948 1.668 1.473.506.54 1.092 1.002 1.57 1.57.478.558.932 1.03 1.521 1.619.39.391 1.407 1.117 1.423 1.718.016.604-.967 1.392-1.374 1.816-1.116 1.161-2.036 2.085-3.141 3.189-.54.539-.961 1.283-1.668 1.472-.276-1.174.107-2.707-.196-3.827-10.55-.107-22.417-.095-32.68.049-.256.635-.147 1.525-.147 2.404 0 .859-.077 1.774.098 2.453 1.011.32 2.15.147 3.239.147 7.824.001 16.409-.046 23.897.05.194 1.517.23 3.682.049 5.25-8.294.214-15.889.148-24.632.146-1.142 0-2.52.151-3.533-.049-2.075-.409-4.023-2.302-4.269-4.612-.141-1.32 0-2.896 0-4.416 0-2.728 0-5.47 0-8.439 0-2.107-.27-4.269.441-5.741.762-1.577 2.605-3.08 4.858-3.092 9.409-.044 17.932.011 27.085.1z"/><path d="m38.238 26.219c-.162-1.497-.162-3.655 0-5.152 10.458-.261 21.504.032 32.091-.147.418-1.133.087-2.447.147-3.729.172-3.691-.047-7.95-.098-11.678-10.45-.333-21.845.136-32.14-.246-.172-.731-.098-1.75-.098-2.699 0-.925-.176-1.955.245-2.503 9.472-.051 19.351-.001 29.294 0 1.473.001 2.974-.118 4.122.147 2.142.497 3.732 2.38 3.975 4.563.287 2.586.049 5.668.049 8.489v4.268c0 1.44.133 2.924-.049 4.22-.332 2.361-1.938 3.87-4.122 4.416-1.177.295-2.614.197-4.073.196-4.039 0-8.454.001-12.61 0-5.692.002-11.37.097-16.733-.145z"/></g></svg>