<svg enable-background="new 0 0 70.803 81.321" viewBox="0 0 70.803 81.321" xmlns="http://www.w3.org/2000/svg"><path d="m35.401 8.699 19.58 11.305-27.116 15.655 7.535 4.351 34.65-20.005-34.649-20.005-34.649 20.004 7.534 4.35z"/><path d="m34.649 10.871-25.611 14.786v29.572l7.531-4.351v-20.87l18.08-10.438z"/><path d="m36.154 10.871v8.699l8.288 4.785 7.533-4.349z"/><path d="m7.534 25.657-7.534-4.349v40.009l34.649 20.004v-8.699l-27.115-15.654z"/><path d="m36.154 81.321 34.649-20.004v-8.699l-34.649 20.004z"/><path d="m62.516 46.965-27.116 15.654-18.078-10.437-7.535 4.35 25.614 14.787 34.649-20.005z"/><path d="m34.649 41.312-7.536-4.351v8.699l7.536 4.351z"/><path d="m36.154 50.011 34.649-20.005v-8.699l-34.649 20.005z"/></svg>