<svg enable-background="new 0 0 69.977 54.02" viewBox="0 0 69.977 54.02" xmlns="http://www.w3.org/2000/svg"><g clip-rule="evenodd" fill-rule="evenodd"><path d="m69.802.297c.268 1.501.148 3.068.148 4.648 0 12.393-.199 25.239-.197 37.627 0 1.668.162 3.338-.197 4.598-.703 2.46-2.381 4.052-4.549 4.993-2.672 1.16-5.6.419-7.467-.89-1.861-1.305-3.16-3.314-3.115-6.328.438-.328 1.609-.146 2.225-.05.209.805.262 1.584.594 2.225.537 1.033 1.438 2.012 2.721 2.621 1.192.566 3.002.739 4.4.049 1.295-.639 2.443-1.961 2.916-3.461.49-1.552.248-3.895.248-6.131-.002-4.174.039-8.665.098-12.608.066-4.314-.137-8.543.051-12.657.188-4.125.049-8.712-.051-12.459-1.174-.283-2.438-.15-3.707-.1-1.25.05-2.553-.099-3.807-.099-2.57 0-5.131-.09-7.615 0-.178.367.271.522.445.692 1.635 1.596 3.09 3.874 3.609 6.576.363 1.888.201 4.037.098 6.279-.098 2.166.025 4.313-.049 6.427-.072 2.084.062 4.322-.149 6.28-.842 7.813-4.17 13.592-8.601 17.65-4.557 4.172-10.311 7.433-18.443 7.812-4.232.197-8.119-.657-11.223-1.879-1.539-.605-3.008-1.36-4.402-2.176-4.031-2.36-7.424-5.722-9.838-9.839-2.398-4.089-4.238-9.172-3.906-15.674.307-5.986 2.545-10.715 5.488-14.19 3.82-4.51 9.49-8.432 17.207-9.048 8.701-.694 14.502 2.737 18.787 7.12 2.064 2.214 3.332 4.556 4.352 7.614.955 2.866 1.574 7.051.791 10.531-1.4 6.217-5.375 10.928-10.531 13.3-2.756 1.269-6.139 1.979-9.988 1.632-3.475-.312-6.283-1.607-7.713-4.202-2.697-4.893.861-10.128 5.637-10.482 1.896-.141 3.701.302 5.488-.247.902-.277 1.945-1.126 2.324-2.027 1.113-2.651-.424-5.416-1.781-6.774-1.518-1.519-3.869-2.455-6.971-1.879-4.211.783-7.369 3.82-8.158 8.01-.113.605-.066 1.266-.394 1.879-.473.154-1.473.17-1.879-.05-.279-3.301 1.059-5.864 2.57-7.812 1.525-1.966 3.797-3.396 6.428-4.103 6.639-1.788 11.721 2.16 12.658 7.515.764 4.368-1.906 7.122-5.342 7.664-.762.12-1.582.099-2.52.099-1.84 0-3.34.104-4.451.791-1.051.651-1.951 1.739-2.176 3.115-.25 1.545.309 3.094 1.137 4.005 1.457 1.602 4.879 2.637 8.06 2.373 6.477-.536 10.496-3.577 13.299-7.763.689-1.027 1.168-2.31 1.633-3.658 1.422-4.131.844-9.454-.791-13.202-2.051-4.698-6.053-8.191-11.026-10.036-2.686-.997-5.631-1.527-9-1.335-1.555.088-3.074.452-4.449.84-6.709 1.894-11.605 6.092-14.388 11.966-1.201 2.535-1.865 5.215-2.125 8.405-.26 3.172.381 6.44 1.236 9.196 1.609 5.191 4.623 9.346 8.603 12.46 3.967 3.104 8.971 5.382 15.375 5.686 6.803.323 12.277-2.126 16.168-4.895 4.242-3.019 7.133-6.851 9.148-11.916.975-2.453 1.521-5.447 1.68-8.851.156-3.328.166-6.958.1-10.333-.037-1.898.24-3.537.049-5.142-.447-3.77-2.617-6.239-5.488-7.663-.551-.274-1.254-.321-1.828-.791-.008-.747-.327-2.035.394-2.175.729-.143 1.916.07 2.818.049 6.116-.146 13.305.067 19.332.198z"/><path d="m57.789 13.3c-.102-.722.91-.469 1.482-.495.785-.036 2.717-.219 2.77.347.043.473-.541.356-.891.346-.408-.012-1.119 0-1.779 0-.625 0-1.338.132-1.582-.198z"/><path d="m60.508 15.278c-.035.466-.775.346-1.334.346-.537 0-1.254.106-1.385-.247-.068-.54.48-.422.988-.395.656.032 1.682-.151 1.731.296z"/><path d="m60.459 17.453c-.502.442-2.059.268-2.67.05-.391-.918 2.057-.591 2.619-.444.031.117.072.224.051.394z"/><path d="m60.459 19.629c-.223.369-.854.222-1.385.198-.492-.022-1.02.108-1.285-.148-.108-.686.611-.482 1.185-.495.68-.014 1.567-.202 1.485.445z"/><path d="m60.408 21.705c-.102.266-.463.174-.791.198-.689.051-1.693.223-1.877-.297.053-.49.967-.357 1.729-.346.513.008 1.056.012.939.445z"/><path d="m58.232 23.288c.676-.142 1.678-.074 2.324-.05.406.016 1.34-.008 1.385.347.053.4-.611.443-1.088.444-.361.001-1.076-.05-1.68-.049-.613 0-1.428.112-1.434-.347-.005-.367.2-.284.493-.345z"/><path d="m60.31 25.611c-.01.064.012.135 0 .198-.094.483-2.356.29-2.521.049.056-.758 2.078-.517 2.521-.247z"/><path d="m60.31 27.688c-.008.058.01.088.049.099-.016.248-.225.402-.543.445-.662.088-1.896-.003-2.127-.347.192-.657 2.196-.548 2.621-.197z"/><path d="m57.937 29.666c.68.122 2.518-.342 2.373.445-.109.589-3.41.463-2.373-.445z"/><path d="m60.31 31.891c.174.762-2.443.501-2.621.197-.059-.623.631-.426 1.285-.396.541.025 1.227-.112 1.336.199z"/><path d="m58.086 33.819c.393-.11 1.965.017 2.719.05.648.027 1.119-.06 1.088.346-.045.552-1.92.235-2.719.247-.494.007-1.457.213-1.484-.297-.016-.309.154-.28.396-.346z"/></g></svg>