<svg enable-background="new 0 0 79.249 63.603" viewBox="0 0 79.249 63.603" xmlns="http://www.w3.org/2000/svg"><g clip-rule="evenodd" fill-rule="evenodd"><path d="m55.135.179c.25 4.859.152 10.409 0 15.462-5.141.153-10.502.051-15.812.05-4.007-.001-7.949-.116-11.572 0-1.283.041-2.604.09-3.84-.149-.331-3.786.094-7.886-.05-11.721-.048-1.267-.133-2.53.1-3.691 10.138-.19 20.845-.17 31.174.049z"/><path d="m.318.029c5.038.066 10.341-.133 15.213.1.178 19.779.099 39.527.1 59.504 0 1.283.122 2.581-.15 3.84-4.883.144-10.558.218-15.362-.05-.182-20.062-.102-40.995-.1-61.449 0-.676-.074-1.606.15-1.846.036-.045.091-.074.149-.099z"/><path d="m79.175.179c.062 20.738.152 42.77-.05 63.345-5.055.083-10.457.083-15.512 0-.272-1.252-.15-2.566-.15-3.84.002-17.196 0-34.436 0-51.773.001-2.608-.12-5.219.15-7.781 3.899-.051 7.799-.1 11.621-.1 1.365-.001 2.712-.114 3.941.149z"/><path d="m55.135 24.021c.164 4.916.166 10.544 0 15.512-4.857.273-10.148.05-15.463.05-5.303 0-10.672.083-15.761-.1-.181-3.694-.1-7.918-.1-11.92 0-.849-.249-3.559.349-3.641 1.123-.155 2.77-.05 4.19-.05 8.726-.001 18.343-.087 26.785.149z"/><path d="m55.135 47.962c.19 5.075.156 10.3 0 15.562-7.399.17-15.684 0-23.543 0-2.639 0-5.222.15-7.681-.1-.166-4.939-.166-10.572 0-15.512 10.148-.196 20.695-.182 31.224.05z"/></g></svg>