<svg enable-background="new 0 0 77.615 78.208" viewBox="0 0 77.615 78.208" xmlns="http://www.w3.org/2000/svg"><path clip-rule="evenodd" d="m75.564 26.561c-19.935.375-39.898-.067-60.127.244-.247 1.334-.191 3.419-.048 4.827 1.153.212 2.45.195 3.754.195 8.778.001 18.072 0 26.869 0 10.333 0 20.851-.179 31.014.049.351 1.327.725 3.139.536 4.681-2.526.161-5.079.098-7.656.098-2.584 0-5.205.13-7.802.049-5.159-.162-10.323.113-15.459-.049-5.213-.164-10.49.001-15.702 0-5.201 0-10.363-.071-15.458.098-.257.623-.146 1.559-.146 2.438 0 .867-.104 1.773.146 2.39 5.105.216 10.255.125 15.458.146 13.723.055 28.838-.048 42.913-.048 1.247 0 2.536-.101 3.755.195.031 1.577-.219 3.291-.585 4.632-.057-.008-.087.011-.098.049-20.582.279-40.673-.08-61.443.195-.254.63-.146 1.516-.146 2.39 0 .847-.071 1.76.097 2.438.546.269 1.187.132 1.756.146 4.248.102 8.859.05 13.264.049 14.684-.002 30.07-.062 45.058.049-.029.917-.461 1.727-.78 2.536-.317.804-.709 1.587-1.073 2.341-3.15 5.842-6.951 10.563-12.191 14.19-5.175 3.583-11.213 6.472-19.164 7.169-8.684.76-15.882-1.418-21.651-4.438-5.732-3.001-10.342-7.322-13.946-12.386-2.86-4.019-4.671-8.318-5.998-13.8-.219-.905-.268-1.916-.39-2.926-.468-3.868-.441-8.42.195-12.191.166-.983.229-1.936.439-2.829 1.646-7.008 5.097-12.479 9.314-17.067 4.158-4.524 9.488-8.218 15.946-10.387 1.657-.557 3.354-1.066 5.169-1.414 5.327-1.021 12.043-.745 17.019.585 9.595 2.565 16.547 7.791 21.7 14.727 1.982 2.668 3.82 5.659 5.072 9.119.167.463.474.977.389 1.51z" fill-rule="evenodd"/></svg>