<svg enable-background="new 0 0 81.166 22.422" viewBox="0 0 81.166 22.422" xmlns="http://www.w3.org/2000/svg"><g clip-rule="evenodd" fill-rule="evenodd"><path d="m31.52.216c.158 1.382.17 3.426 0 4.807-4.083.297-8.558-.107-12.619.201.234.896.842 1.623 1.302 2.403.452.765.899 1.544 1.353 2.303.922 1.541 1.899 3.081 2.703 4.657.441.864.723 1.809 1.503 2.454.639-.549.967-1.357 1.402-2.053 2.592-4.145 5.18-8.562 7.711-12.818.417-.702.723-1.507 1.352-2.053.978-.091 2.109-.05 3.205-.05 1.065 0 2.122-.112 2.904.1-.329 1.057-1.002 1.965-1.552 2.904-2.684 4.575-5.475 9.202-8.263 13.77-1.107 1.813-2.094 3.725-3.405 5.408-2.187.056-4.441.03-6.609-.05-.66-.505-.981-1.334-1.402-2.053-.423-.723-.926-1.417-1.302-2.153-2.675-4.219-5.11-8.677-7.861-12.819-3.689-.257-7.914.078-11.817-.2-.161-1.38-.169-3.428 0-4.807 1.729-.358 4.18-.013 6.359-.1 1.832-.073 3.696-.045 5.508-.05 4.923-.014 9.925.05 14.722.05 1.628-.001 3.249-.123 4.806.149z"/><path d="m50.397.166c-.313 1.055-.98 1.99-1.553 2.904-2.827 4.523-5.566 9.184-8.361 13.77-1.11 1.822-2.212 3.668-3.455 5.408-1.906.051-4.286.149-6.109-.05.299-1.073.992-1.964 1.553-2.904 1.617-2.718 3.269-5.539 4.957-8.262 2.264-3.651 4.353-7.38 6.76-10.915 1.939-.051 4.352-.15 6.208.049z"/><path d="m81.042 17.491c.166 1.376.166 3.432 0 4.807-10.279.178-21.307.166-31.445-.05-.255-1.306-.202-3.425-.05-4.807 3.047-.182 6.547-.101 9.813-.101 1.084 0 2.188.122 3.155-.15-.408-1.111-1.095-2.083-1.653-3.105-1.088-1.993-2.4-3.876-3.504-5.909-.543-.998-1.036-2.059-1.804-2.904-.656.511-1.038 1.309-1.451 2.003-2.542 4.261-5.164 8.66-7.712 12.919-.42.701-.709 1.513-1.352 2.053-1.929.024-4.445.206-6.209-.1.336-1.05 1.042-1.928 1.602-2.854 1.648-2.726 3.281-5.449 5.008-8.212 1.924-3.078 3.867-6.38 5.858-9.564.308-.491.563-1.146.901-1.352.037-.047.091-.076.15-.1 2.171.032 4.471-.065 6.56.05 1.313 1.573 2.236 3.539 3.354 5.308 1.121 1.75 2.143 3.599 3.255 5.357.533 1.326 1.319 2.506 2.053 3.706.586.958 1.108 1.983 1.853 2.804 2.795.091 5.869.05 8.813.05.964.001 1.949-.117 2.805.151z"/></g></svg>