<svg enable-background="new 0 0 72.437 78.854" viewBox="0 0 72.437 78.854" xmlns="http://www.w3.org/2000/svg"><g clip-rule="evenodd" fill-rule="evenodd"><path d="m71.927.177c.068.439-.377.69-.634.926-1.939 1.782-3.679 4.048-5.705 5.803-2.64 2.852-5.481 5.509-8.095 8.387-2.604 2.867-5.532 5.431-7.998 8.436-.883.753-1.604 1.653-2.438 2.487-.261.26-.69.481-.683.926.421.336 1.03.195 1.512.195 7.079 0 14.387-.049 21.261-.049 1.059 0 2.147-.152 3.121.195.155 1.502.207 3.417 0 4.877-.937.299-1.931.195-2.877.195-7.089 0-13.908.049-20.969.049-2.163 0-4.093-.077-5.852.244-3.483.636-6.236 1.744-8.582 3.608-1.126.895-2.256 1.794-3.121 2.926-1.738 2.274-3.287 4.956-3.998 8.192-.755 3.438-.427 7.485.683 10.582 1.065 2.974 2.722 5.355 4.779 7.412 2.031 2.031 3.969 4.165 6.047 6.096 1.98 2.025 4.113 4.007 6.095 6.095.244.257.683.54.634.976-1.961.194-4.279.088-6.291.097-1.801-1.449-3.269-3.232-4.925-4.828-4.924-4.743-9.809-9.619-14.629-14.532-4.98-4.74-9.689-9.751-14.58-14.58-1.044-1.167-2.451-2.382-3.658-3.658-.275-.289-1.021-.953-1.024-1.364-.001-.272.439-.747.78-1.073.949-.904 1.872-1.939 2.731-2.78 1.223-1.198 2.52-2.471 3.705-3.657 1.24-1.24 2.299-2.641 3.511-3.853 6.085-6.085 12.27-12.58 18.189-18.53 1.516-1.752 3.248-3.287 4.828-4.974 1.145-1.151 2.356-2.424 3.657-3.657.424-.402.784-1.029 1.268-1.17.878-.257 2.112-.049 3.17-.049 1.103 0 2.167-.077 3.121.097-.02.586-.585.912-.927 1.268-4.047 4.212-8.212 8.514-12.337 12.728-3 3.064-5.921 6.166-8.973 9.216-1.507 1.507-3.057 3.001-4.535 4.535-2.246 2.332-4.381 4.672-6.778 6.876-.79.727-1.381 1.624-2.194 2.341-.384.367-.726.814-1.17 1.268-.372.381-1.052.791-1.073 1.316-.032.833 1.299 1.439 1.609 2.048.594.625 1.206 1.231 1.755 1.901 3.122 3.264 6.474 6.308 9.655 9.558.44.45.902 1.016 1.561 1.17.217-.383.06-.888.049-1.366-.023-.961-.053-2.085 0-3.121.026-.52.177-.994.097-1.366-.168-.79-1.436-1.711-2.048-2.292-.779-.74-1.521-1.473-2.194-2.146-.741-.741-1.415-1.536-2.146-2.194-.759-.684-1.601-1.347-1.999-2.292.146-.585.669-.97 1.073-1.366 5.292-5.186 10.566-10.549 15.751-15.946.788-.821 1.555-1.729 2.389-2.487.83-.753 1.568-1.666 2.39-2.487 4.884-4.883 9.521-9.814 14.483-14.775.698-.699 1.663-2.274 2.486-2.438.89-.178 2.113-.059 3.219-.098 1.169-.041 2.338-.078 3.17.146.013.527-.461.783-.78 1.073-.909.826-1.791 1.821-2.683 2.73-1.198 1.225-2.348 2.495-3.56 3.706-1.211 1.211-2.324 2.52-3.511 3.755-5.879 6.119-11.91 12.249-17.848 18.384-1.534 1.685-3.1 3.337-4.779 4.876-.743.678-1.45 1.518-2.389 2.438-.362.355-.821.706-1.268 1.171-.37.385-1.005.945-1.024 1.365-.036.799.893.983 1.17 1.609.457.454.845.976 1.512 1.219.421-.173.557-.661.731-1.024 1.268-2.646 2.981-5.097 5.071-6.973 1.906-1.585 3.618-3.279 5.949-4.389.743-.353 1.617-.625 2.341-1.073.595-.368 1.195-1.195 1.804-1.805 1.768-1.768 3.592-3.689 5.315-5.413 2.43-2.429 4.672-5.015 6.974-7.363 4.791-4.888 9.354-9.865 14.239-14.434 1.24-.067 2.417-.01 3.706-.049.93-.022 1.864-.088 2.684.153z"/><path d="m72.269 37.384c.133 1.334.301 3.344 0 4.632-.881.264-1.818.146-2.731.146-2.741 0-5.459.048-8.24.048-4.688 0-9.28.049-13.898.049-.971 0-1.898-.071-2.731 0-3.133.27-5.536 2.203-6.974 4.34-.728 1.083-1.388 2.564-1.511 4.145-.341 4.371 1.754 6.728 3.852 8.826 4.297 4.296 8.315 8.462 12.581 12.728 1.594 1.593 3.132 3.18 4.73 4.779.242.242.515.533.78.78.238.222.701.434.585.878-1.856.147-4.209.069-6.437.097-1.019-.767-1.952-1.698-2.78-2.682-.827-.983-1.78-1.83-2.682-2.73-3.651-3.652-7.313-7.015-10.875-10.874-1.77-1.919-3.351-3.98-4.145-6.681-2.005-6.819 1.227-12.619 5.023-15.556 2.011-1.556 4.612-2.822 7.851-3.023 1.766-.11 3.602 0 5.413 0 6.936 0 13.018-.049 20.188-.049.65 0 1.371-.109 2.001.147z"/><path d="m72.269 47.039c.242.602.146 1.494.146 2.34 0 .85.104 1.741-.146 2.341-6.257.209-12.898.195-19.408.195-1.102 0-2.19.016-3.268 0-1.016-.016-2.062-.16-3.023.146.211.779.929 1.31 1.463 1.853 1.594 1.62 3.188 3.335 4.828 4.974 3.28 3.28 6.554 6.553 9.851 9.85 2.699 2.7 5.509 5.363 8.241 8.095.531.531 1.211 1.052 1.463 1.804-.896.261-2.056.146-3.17.146-1.108 0-2.233.04-3.219-.048-.657-.309-1.152-.908-1.658-1.414-1.506-1.506-3.029-3.03-4.583-4.584-4.03-4.03-8.194-8.079-12.191-12.24-.968-1.007-2-2.049-3.024-3.072-.989-.989-2.229-2.046-2.926-3.17-.728-1.174-.869-3.105-.292-4.34.572-1.226 1.788-2.407 3.267-2.829 1.158-.33 2.968-.146 4.535-.146 4.525 0 9.765.197 13.995 0 1.427-.066 3.266-.048 4.682 0 1.466.051 2.948-.249 4.437.099z"/></g></svg>