<svg enable-background="new 0 0 88.061 51.695" viewBox="0 0 88.061 51.695" xmlns="http://www.w3.org/2000/svg"><g clip-rule="evenodd" fill-rule="evenodd"><path d="m58.828.159c.278 1.721.156 3.814.156 5.818v2.961c0 .965.111 1.932-.104 2.754-2.396.305-5.5-.098-7.896.207.036.518.497.918.831 1.299.343.391.745.748 1.039 1.143 2.063 2.303 4.228 4.5 6.183 6.91-.057 2.551.052 5.396.052 8.053 0 .885.148 1.873-.052 2.598-.211.764-1.723 1.879-2.39 2.545-2.529 2.529-4.982 4.93-7.429 7.377-.802.803-1.533 1.697-2.39 2.545-2.047 2.029-4.077 3.99-6.182 6.131-.348.354-1.044 1.127-1.299 1.143-.383.025-1.017-.738-1.298-1.039-2.317-2.477-4.57-4.57-7.014-7.014-.298-.297-1.03-.916-1.039-1.246-.011-.392.745-1.019 1.091-1.402 2.387-2.643 4.769-5.064 7.169-7.637.361-.387.912-.717 1.039-1.299-2.577-.357-5.845.045-8.572-.26-.181-3.637-.207-7.711 0-11.326 1.45-.188 3.113-.103 4.78-.103 1.617 0 3.302.123 4.676-.156-.227-.6-.769-1.027-1.195-1.455-2.574-2.574-5.192-5.191-7.844-7.844-.338-.338-1.194-1.045-1.195-1.402-.001-.354.788-.926 1.091-1.246 2.632-2.785 5.423-5.529 8.156-8.158 6.391-.085 13.241-.089 19.636.103z"/><path d="m28.904 9.405c-.666 1.055-1.628 1.889-2.494 2.754-1.736 1.736-3.433 3.537-5.195 5.299-.866.865-1.823 1.709-2.494 2.754 1.415.281 3.13.156 4.78.156 1.645 0 3.295-.152 4.728.051.227 3.52.186 7.68.052 11.326-.617.258-1.356.156-2.078.156-2.135-.002-4.352.045-6.494.104.02.551.615 1.002.987 1.402 2.321 2.498 4.844 4.869 7.221 7.533.351.393 1.079.996 1.091 1.35.014.436-.709.969-1.039 1.299-2.415 2.414-4.523 4.576-6.961 7.014-.304.305-.844 1.068-1.195 1.092-.445.029-1.062-.803-1.351-1.092-.468-.469-.774-.889-1.247-1.193-3.432-3.525-7.229-7.023-10.806-10.6-.702-.701-1.315-1.529-2.026-2.232-.633-.627-1.441-1.295-2.182-2.078-.6-.635-1.83-1.537-2.026-2.234-.204-.725-.052-1.965-.052-2.961 0-2.232-.052-3.473-.052-5.871 0-.859-.19-2.254.052-2.91.13-.351.865-.832 1.247-1.246 2.74-2.969 5.72-5.928 8.52-8.726 3.352-3.354 6.585-6.553 9.871-9.82.452-.346 1.056.506 1.455.883 1.144 1.085 2.266 2.265 3.324 3.323 1.633 1.633 3.133 3.02 4.364 4.467z"/><path d="m87.297.938c.162 2.684.127 5.678.156 8.467.009.916.108 1.963-.104 2.754-.199.738-1.061 1.301-1.559 1.818-.576.6-1.037 1.195-1.662 1.715-1.024 1.209-2.366 2.102-3.221 3.48 1.61.85 4.018.9 5.767 1.609.373 2.635.743 5.348 1.091 8.106.097.767.401 2.064.26 2.805-.117.615-1.642 1.826-2.078 2.287-2.135 2.248-4.396 4.453-6.494 6.598-3.002 3.066-5.755 6.053-8.676 8.727-.791-.646-1.438-1.494-2.078-2.285-1.91-2.365-3.861-4.787-5.715-7.273.423-.789 1.129-1.377 1.715-2.025 1.426-1.582 3.03-3.135 4.571-4.676.288-.289.699-.598.779-1.039-1.188-.279-2.652-.156-4.104-.156-1.434 0-2.919.086-4.156-.104-.217-2.443-.156-5.221-.156-7.949 0-.855-.141-1.92.052-2.649.22-.834 1.302-1.607 1.922-2.338 1.706-2.016 3.223-3.766 4.883-5.767.303-.363.774-.635.831-1.143-.503-.279-1.191-.156-1.818-.156-1.831 0-4.059.084-5.767-.103-.273-.787-.156-1.74-.156-2.648 0-.91 0-1.852 0-2.754 0-1.861-.1-3.723.156-5.299 8.179-.131 17.289-.187 25.561-.002z"/></g></svg>