<svg enable-background="new 0 0 80.879 55.476" viewBox="0 0 80.879 55.476" xmlns="http://www.w3.org/2000/svg"><path clip-rule="evenodd" d="m39.294.126c-.096.493-.531.853-.847 1.195-.998 1.082-2.141 2.13-3.188 3.237-1.38 1.461-2.848 2.875-4.283 4.283-2.886 2.832-5.571 5.889-8.466 8.665-1.421 1.428-2.742 2.941-4.184 4.383-.467.467-1.055.892-1.295 1.543.465.27 1.046.149 1.544.149h8.367c1.094 0 2.386.185 3.287-.05.533-.139 1.058-.88 1.544-1.394 3.315-3.507 6.761-6.885 10.06-10.31 3.965-4.116 7.508-8.101 11.455-11.803.777.345 1.248 1.092 1.843 1.644 1.759 1.634 3.349 3.551 5.129 5.229 2.37 2.234 4.572 4.622 6.873 6.923 4.606 4.606 9.233 9.193 13.745 13.894-.29.741-.997 1.168-1.544 1.693-1.619 1.556-3.209 3.258-4.831 4.88-6.438 6.439-12.89 12.962-19.324 19.473-.279.272-.499.58-.847.896-.255.233-.646.697-.996.697-.431 0-1.111-.934-1.544-1.345-.555-.527-1.009-1.018-1.444-1.444-2.106-2.064-3.619-3.868-5.627-5.877-3.786-3.786-7.49-7.639-11.405-11.554-.415-.415-.913-.948-1.444-1.444-.455-.425-1.107-1.222-1.494-1.345-.871-.276-2.295-.05-3.387-.05-3.422 0-6.77-.021-10.01.149.178.682.837 1.086 1.295 1.544 3.252 3.251 6.57 6.619 9.861 9.911 3.527 3.527 7.009 7.109 10.558 10.657.219.22.613.418.598.797-3.786.198-8.134.1-12.002.049-.728-.372-1.279-1.03-1.842-1.593-3.945-3.945-7.849-7.935-11.903-11.903-1.675-1.641-3.419-3.419-5.129-5.13-1.165-1.165-2.1-2.349-3.287-3.536-1.129-1.129-2.187-2.157-3.436-3.337-.413-.39-1.663-1.218-1.693-1.693-.028-.437 1.078-1.347 1.444-1.743 1.078-1.167 2.085-2.027 3.187-3.138.532-.535 1.158-1.018 1.594-1.544.196-.236.299-.57.498-.796.395-.451.916-.843 1.345-1.295 4.592-4.844 9.389-9.738 14.144-14.493 1.747-1.746 3.367-3.619 5.229-5.18 4.024.07 8.021-.147 11.852.106zm25.4 23.805c-3.097-3.096-6.257-6.306-9.363-9.412-.48-.48-1.645-2.041-2.191-1.693-.483.307-.914.913-1.395 1.394-.474.474-.978.928-1.395 1.345-1.388 1.388-2.698 2.882-3.984 4.283-1.33 1.448-2.74 2.879-4.084 4.233-.618.61-1.206 1.251-1.843 1.842-.242.594-1.707 1.205-1.693 1.992.007.381.5.662.847.996 3.56 3.429 6.578 6.876 10.01 10.309.841.841 1.908 1.798 2.789 2.739.26.277.715.833 1.096.796.233-.022.695-.562.996-.846.375-.353.689-.69.946-.946 2.566-2.565 4.993-4.993 7.421-7.52 1.245-1.296 2.546-2.447 3.785-3.686.615-.615 1.288-1.228 1.743-1.992-1.107-1.381-2.413-2.561-3.685-3.834z" fill-rule="evenodd"/></svg>