<svg enable-background="new 0 0 78.736 73.388" viewBox="0 0 78.736 73.388" xmlns="http://www.w3.org/2000/svg"><g clip-rule="evenodd" fill-rule="evenodd"><path d="m15.943 20.368c.334-.235 1.296-.197 1.702-.05.492 1.311.542 3.064 1.202 4.205 1.233 2.053 3.301 3.122 5.908 3.655 3.034.621 5.529.173 7.61-1.201 1.885-1.245 3.214-3.195 3.855-5.708.614-2.408.389-5.759-.451-8.261-1.522-4.535-5.023-7.875-9.463-9.613-2.381-.933-5.211-1.372-8.211-1.202-2.777.158-5.273 1.006-7.31 2.203-3.952 2.324-7.033 5.898-8.161 10.915-1.325 5.902.706 11.439 3.506 14.671 2.795 3.225 7.096 6.008 13.068 6.008 5.88 0 12.267-.126 18.675.15.313.339.279 1.593.05 2.003-.558.265-1.205.15-1.802.149-5.697-.001-11.421-.266-17.073 0-1.254.06-2.437-.066-3.555.15-6.099 1.186-10.439 5.097-12.417 10.565-.72 1.99-1.123 4.189-.951 6.709.223 3.269 1.499 6.297 3.154 8.361 3.73 4.649 10.453 8.323 19.176 7.009 4.451-.67 8.122-2.103 10.814-4.505 2.441-2.179 3.932-4.889 4.606-8.812.083-.48.038-1.064.4-1.502.463-.12 1.35-.221 1.652.051.391.349.07 1.916-.05 2.503-.815 3.984-2.663 7.202-5.207 9.412-1.973 1.715-4.695 3.273-7.61 4.056-1.575.423-3.15.68-4.956.901-5.711.699-11.002-.513-14.57-2.653-3.648-2.189-6.7-5.243-8.311-9.213-1.094-2.695-1.565-6.661-.951-10.214.56-3.24 1.98-5.771 3.605-8.061 1.499-1.823 3.21-3.439 5.357-4.656.647-.367 1.603-.605 1.852-1.452-.017-.595-.605-.881-1.001-1.102-3.058-1.701-5.647-3.892-7.41-7.01-1.972-3.486-3.32-8.251-2.253-13.567.891-4.439 3.23-7.837 6.058-10.465 2.104-1.955 4.912-3.448 8.111-4.255 1.148-.29 2.486-.438 3.805-.501 7.015-.331 11.927 2.214 15.371 5.657 2.08 2.08 3.867 4.933 4.556 8.612.143.763.118 1.536.201 2.403.15 1.573.171 3.315-.15 4.906-.561 2.767-2.042 5.034-3.905 6.608-1.975 1.668-4.607 2.55-8.061 2.353-5.483-.311-9.524-2.87-10.414-7.961-.116-.659-.334-1.475-.051-2.251z"/><path d="m42.529 38.092c-.269 1.123-.15 2.371-.15 3.605 0 3.6.082 7.582-.1 11.064-.294.315-1.28.245-1.652.05-.256-.669-.15-1.395-.15-2.103 0-7.743 0-16.116 0-24.282 0-2.969-.18-5.949.05-8.762.447-5.47 2.633-9.192 5.658-12.217 2.881-2.882 7.383-5.098 12.667-5.407 7.909-.464 13.065 3.041 16.372 7.31 1.701 2.195 2.914 4.99 3.354 8.461.437 3.442-.044 7.123-1.252 10.064-2.265 5.517-6.455 9.432-12.316 11.365-3.167 1.045-6.999.751-11.065.751-3.958.002-7.499-.022-11.416.101zm5.107-2.002c1.738 0 3.47.023 5.157-.051 3.606-.158 6.956.113 10.014-.45 5.546-1.022 9.645-4.694 11.916-8.962 1.204-2.265 2.169-5.194 2.053-8.361-.121-3.286-.872-6.013-2.303-8.161-1.403-2.106-2.951-3.891-5.157-5.308-2.121-1.361-4.739-2.447-7.81-2.653-2.992-.201-5.627.386-7.711 1.102-4.741 1.629-7.807 4.814-9.813 9.263-1.379 3.059-1.552 6.832-1.552 11.165-.001 4.229-.085 8.256.15 12.267 1.649.271 3.368.149 5.056.149z"/></g></svg>