<svg enable-background="new 0 0 56.675 35.84" viewBox="0 0 56.675 35.84" xmlns="http://www.w3.org/2000/svg"><path d="m55.904.374c.127-.145.247-.303.434-.374.014 2.684.054 5.367.072 8.051.041.395.018.795.017 1.193.021 1.64 0 3.281.045 4.919.02 1.275.01 2.549.024 3.824-.036.351.048.703 0 1.051.038.125.033.255.028.384.005.128.004.255-.001.384.011 1.497.014 2.995.045 4.491.02 1.635.015 3.277.022 4.907.073 1.149.016 2.307.048 3.459-.011.282-.009.564.002.847-.016.662.042 1.322.035 1.985-1.59.088-3.188.021-4.781.053-.094-1.71-.012-3.43-.081-5.141-.029-1.149.022-2.303-.042-3.449-.005-1.819.015-3.656-.065-5.474-3.366.033-6.738.049-10.099.083-3.087 3.079-6.162 6.172-9.214 9.285-4.595 4.043-11.074 5.742-17.077 4.681-5.543-.789-10.54-4.41-13.17-9.333-1.983-3.676-2.658-8.068-1.746-12.153.933-4.545 3.716-8.666 7.532-11.292 2.832-1.922 6.328-2.843 9.741-2.641 4.16.277 8.12 2.354 10.818 5.518 2.249 2.61 3.801 5.958 3.754 9.447.316 4.151-1.853 8.26-5.184 10.675-4.039 2.916-9.767 3.431-14.185 1.081-2.288-1.275-4.062-3.443-4.85-5.938-.673-2.125-.928-4.466-.221-6.615 1.043-3.695 4.578-6.511 8.41-6.739 2.991-.249 6.172 1.169 7.68 3.832.784 1.393 1.176 3.056.867 4.643-.71 2.939-3.74 5.385-6.82 4.85-1.811-.283-3.315-2.179-2.845-4.018.204-1.147 1.548-1.938 2.63-1.46.402.209.433.86.947.891.817-.035 1.568-.814 1.447-1.65-.071-1.165-1.077-2.014-2.164-2.24-2.674-.871-5.709 1.469-5.861 4.21-.21 1.867.597 3.738 1.896 5.061 1.311 1.241 3.11 1.992 4.923 1.941 3.504.054 7.101-2.149 8.236-5.54.861-3.112.062-6.636-1.924-9.166-1.71-2.115-4.252-3.525-6.942-3.894-3.342-.582-6.771.757-9.309 2.906-2.286 1.952-3.795 4.792-4.111 7.784-.448 3.51.443 7.22 2.628 10.032 3.18 4.295 9.008 6.234 14.177 5.156 2.697-.48 5.267-1.673 7.366-3.435 1.299-1.215 2.547-2.49 3.773-3.777 7.693-7.775 15.419-15.511 23.095-23.295zm-9.596 16.44c1.792.007 3.58-.049 5.371-.048.064-.469-.049-.941-.01-1.412-.009-1.162-.007-2.325-.021-3.487.006-.133.009-.265.002-.397-1.846 1.713-3.552 3.572-5.342 5.344z"/></svg>