<svg enable-background="new 0 0 37.668 73.39" viewBox="0 0 37.668 73.39" xmlns="http://www.w3.org/2000/svg"><path clip-rule="evenodd" d="m37.534.161c.163 1.133.16 2.927 0 4.06-9.6.226-19.619.049-29.098.048-1.35 0-2.709-.119-4.01.146-.197 3.927-.227 8.413-.049 12.471 1.263.278 2.685.132 4.157.146 8.157.087 16.898.241 24.94.05 1.377-.033 2.776-.086 4.108.146.025 1.27.189 2.932-.049 4.01-10.943.288-22.524-.075-33.06.146-.264.968-.195 2.165-.195 3.424 0 2.425.049 4.666.049 6.993 0 1.145-.182 2.321.098 3.374 8.258.25 16.796.146 25.088.146 2.742.001 5.449-.063 8.069.147.156 6.164.048 12.555.049 18.926.001 6.373.082 12.761-.098 18.877-1.13.193-2.8.099-4.011.049-.292-10.95.098-22.597-.195-33.597-3.871-.256-8.035-.075-12.128-.05-.341 1.305-.195 2.711-.195 4.108-.001 9.814.079 19.713-.099 29.489-1.131.191-2.798.101-4.01.049-.258-.628-.147-1.359-.147-2.005-.001-10.16.133-20.824 0-31.543-.865-.341-1.948-.196-2.983-.196-3.053 0-6.573-.055-9.292.049-.262.63-.146 1.347-.146 2.006.003 10.321-.021 21.31-.145 31.594-1.14.151-2.991.194-4.059-.049-.178-23.418-.101-47.37-.098-71.008 0-.683-.113-1.437.147-2.103 2.718-.104 6.57-.049 9.537-.049 9.328-.001 18.871 0 27.825.146z" fill-rule="evenodd"/></svg>