<svg enable-background="new 0 0 153.024 172.286" viewBox="0 0 153.024 172.286" xmlns="http://www.w3.org/2000/svg"><path clip-rule="evenodd" d="m152.587 103.226c-8.948.152-18.577.193-27.892.193-14.225-.002-28.114.145-42.369.145-.787 0-1.579.027-2.365 0-.837-.029-2.099.223-2.75-.098-.304-.149-.725-.824-1.062-1.254-2.298-2.928-4.702-6.072-6.948-8.977-1.975-2.551-3.964-5.16-5.935-7.768-.648-.857-1.266-1.758-2.027-2.51-9.785-.008-20.054-.053-29.822.145-.071 1.117.263 2.197.53 3.232 2.382 9.184 7.251 16.654 13.464 22.102 1.41 1.236 2.763 2.518 4.295 3.572 1.583 1.086 3.184 2.098 4.922 2.99 1.717.881 3.517 1.66 5.356 2.51 4.622 6.107 9.355 12.103 13.995 18.193 1.629 1.941 3.012 4.131 4.777 5.936h.241c9.523-.443 16.797-3.543 22.922-7.432 5.368-3.408 9.805-7.969 13.271-13.318.489-.756.929-1.547 1.544-2.221 10.331-.125 22.233-.166 32.862-.047-.102 1.029-.521 1.996-.868 2.943-1.03 2.805-2.1 5.66-3.426 8.252-2.648 5.172-5.66 9.805-9.169 14.139-1.158 1.43-2.357 2.861-3.619 4.15-2.594 2.646-5.203 5.277-8.011 7.527-5.683 4.557-12.237 8.604-19.688 11.389-7.52 2.811-15.912 5.055-25.817 5.26-.213.02-.373-.014-.482-.096-5.552-6.959-10.826-14.109-16.359-21.186-.564-.721-.827-1.463-1.785-1.736-1.157-.332-2.323-.5-3.427-.82-1.112-.326-2.199-.572-3.281-.918-2.124-.68-4.186-1.385-6.225-2.219-1.97-.807-3.896-1.736-5.791-2.654-5.669-2.75-10.585-6.264-15.249-10.086-6.054-4.963-11.292-11.354-15.587-18.193-2.174-3.461-3.897-7.312-5.502-11.389-3.22-8.172-5.31-17.297-5.31-28.469.001-11.002 2.33-20.223 5.55-28.23.419-1.043.753-2.074 1.206-3.039 3.136-6.678 6.834-12.732 11.485-18.049 5.196-5.939 11.222-11.213 18.289-15.49 3.428-2.074 7.116-4.08 11.147-5.742 2.908-1.199 6.23-2.207 9.555-3.137 1.132-.316 2.499-.67 3.57-.82.505-.072.857.646 1.207 1.109 2.225 2.951 4.582 5.992 6.756 8.879 2.721 3.615 5.226 6.912 7.817 10.037.068-.004.137-.008.145.049 13.141-.094 23.479 3.226 32.67 7.336 4.446 1.986 8.691 4.662 12.499 7.478 1.902 1.408 3.679 2.988 5.452 4.537 1.787 1.559 3.528 3.227 5.067 4.922 6.261 6.895 11.656 14.857 15.394 24.563 3.148 8.174 5.602 18.029 5.163 29.727-.056 1.514.024 3.1-.385 4.583zm-37.495-31.319c-1.72-2.74-3.829-5.277-6.032-7.48-5.169-5.168-11.097-9.383-18.965-11.822-3.942-1.223-8.331-2.145-13.271-2.172-.733-.676-1.329-1.518-1.931-2.316-3.062-4.07-6.153-8.135-9.216-12.16-1.23-1.615-2.293-3.367-3.717-4.826-6.092 1.918-11.089 4.932-15.394 8.639-3.688 3.225-6.87 7.076-9.506 11.291-.37.592-.812 1.26-.917 1.979 8.286.211 16.703-.041 25.237.049 1.163 1.096 2.011 2.473 2.992 3.717 3.003 3.805 5.793 7.726 8.783 11.484 1.309 1.697 2.49 3.525 3.957 5.067 6.385.105 12.909.002 19.399 0 6.494-.002 12.932.035 19.109-.193.017-.464-.296-.887-.528-1.257z" fill-rule="evenodd"/></svg>