<svg clip-rule="evenodd" fill-rule="evenodd" stroke-linejoin="round" stroke-miterlimit="2" viewBox="0 0 560 400" xmlns="http://www.w3.org/2000/svg"><path d="m0 43.3c0 23.8 19.5 43.3 43.3 43.3h256.9v-86.6h-256.9c-23.8 0-43.3 19.5-43.3 43.3zm0 106.9c0 23.8 19.5 43.3 43.3 43.3h256.9v-86.7h-256.9c-23.8.1-43.3 19.6-43.3 43.4zm0 106.9c0 23.8 19.5 43.3 43.3 43.3h256.9v-86.7h-256.9c-23.8.1-43.3 19.6-43.3 43.4zm577.9-257c-23.8 0-43.3 19.5-43.3 43.3v256.9h86.7v-256.9c-.1-23.8-19.6-43.3-43.4-43.3zm-106.9 0c-23.8 0-43.3 19.5-43.3 43.3v256.9h86.7v-256.9c-.1-23.8-19.6-43.3-43.4-43.3zm-106.9 0c-23.8 0-43.3 19.5-43.3 43.3v256.9h86.7v-256.9c-.1-23.8-19.6-43.3-43.4-43.3z" fill-rule="nonzero" transform="matrix(.57943 0 0 .57943 100 112.97)"/></svg>