<svg enable-background="new 0 0 77.58 61.488" viewBox="0 0 77.58 61.488" xmlns="http://www.w3.org/2000/svg"><path clip-rule="evenodd" d="m.335 0c3.137.929 5.927 2.418 8.485 3.993 2.586 1.592 5.097 3.171 7.037 5.44 2.911 3.277 5.392 7.092 6.738 11.978.447 1.622.661 3.347 1.098 5.141.816.191 2.148.104 3.044.05.271-1.039.15-2.162.15-3.244-.001-7.654.01-15.816.149-23.308.842-.044 1.6.393 2.346.699.742.304 1.534.559 2.246.898 1.416.674 2.671 1.55 3.943 2.346 2.63 1.644 5.063 3.329 7.187 5.39 1.046 1.016 1.938 2.22 2.795 3.494 1.698 2.522 3.148 5.17 4.043 8.534.436 1.641.689 3.375 1.048 5.191.903.15 2.515.201 3.344-.05.041-6.602.271-13.43.149-20.013-.039-2.154-.193-4.333.1-6.438 1.094-.109 2.18.241 3.195.499 3.072.781 5.778 1.91 8.334 3.194 1.785.898 3.347 1.751 4.842 2.895 4.101 3.138 7.859 8.498 6.787 15.821-.472 3.222-2.195 5.636-4.192 7.387-.668.586-1.403 1.121-2.097 1.746.454.753 1.234 1.19 1.848 1.797 1.719 1.701 3.223 4.283 3.742 7.187.815 4.552-.624 9-2.545 11.729-3.972 5.643-11.178 8.574-19.914 9.133-.24-.895-.188-1.986-.149-3.094.243-7.046-.1-14.978-.101-22.21-.739-.255-2.279-.199-3.095-.05-.359 1.769-.581 3.47-.998 5.141-.807 3.237-2.295 5.898-3.942 8.335-.438.646-.749 1.298-1.247 1.847-3.336 3.672-7.537 6.759-12.827 8.634-1.516.537-3.127 1.156-4.841 1.198-.297-8.449.035-16.73-.2-25.104-.683-.375-2.089-.169-2.944-.1-.233.901-.273 1.784-.449 2.646-1.9 9.245-6.857 15.51-14.324 19.265-1.343.675-2.768 1.273-4.242 1.896-1.456.615-3.059 1.117-4.742 1.247-.228-1.145-.1-2.359-.1-3.593.001-18.555-.001-36.842 0-55.648 0-.684-.088-1.61.149-1.797.037-.049.091-.078.15-.102zm61.638 10.281c-.238.254-.135 1.234-.149 1.847-.095 3.902 0 7.99 0 12.028 0 .89-.138 1.831.2 2.595 2.189-.144 3.955-.855 5.289-1.946 1.123-.917 2.148-2.59 2.297-4.292.467-5.327-3.702-8.748-7.387-10.331-.033 0-.066 0-.1 0-.06.024-.113.052-.15.099zm-54.501 2.845c-.089 1.245-.05 3.043-.05 4.542 0 9.271.001 18.427 0 27.499 0 1.493-.122 2.991.15 4.442 1.079-.224 1.964-.988 2.745-1.697 2.381-2.163 3.864-5.164 4.891-8.584 1.418-4.722 1.205-11.247-.1-15.921-.939-3.361-2.626-6.319-4.841-8.534-.573-.573-1.872-1.687-2.645-1.896-.072.027-.122.077-.15.149zm27.201.05c-.089 1.273-.05 3.047-.05 4.592v29.795c0 .72-.116 1.506.149 2.196.88-.172 1.46-.812 2.046-1.298.622-.515 1.182-1.076 1.747-1.647 3.567-3.955 5.657-10.902 4.642-18.466-.473-3.526-1.25-6.359-2.745-9.083-.671-1.222-1.444-2.315-2.396-3.493-.721-.892-2.228-2.314-3.244-2.745-.072.027-.121.077-.149.149zm31.342 36.883c1.098-.946 2.158-2.108 2.695-3.543 2.104-5.62-1.832-10.321-6.738-10.581-.279 1.278-.132 2.655-.149 3.993-.042 3.26 0 6.972 0 10.431 0 .656-.13 1.379.2 1.946 1.578-.365 2.842-1.255 3.992-2.246z" fill-rule="evenodd"/></svg>