<svg enable-background="new 0 0 76.909 75.202" viewBox="0 0 76.909 75.202" xmlns="http://www.w3.org/2000/svg"><path clip-rule="evenodd" d="m62.655.12c.193 3.21.171 6.634 0 9.814-17.205.313-35.228.033-52.353.202-.274 1.158-.152 2.534-.152 3.896 0 3.296-.068 6.399 0 9.965.01.486-.062 1.501.152 1.72.293.298 2.348.186 3.186.202 1.241.024 2.423 0 3.339 0 11.056.001 21.555.093 32.828-.051 4.308-.055 8.991-.032 13.051.102.096 1.607.231 3.354.152 5.058-.076 1.639.153 3.329-.152 4.805-16.948.281-35.343.06-52.354.203-.269.569-.152 1.24-.152 1.871 0 4.579-.059 9.582.152 14.012.773.275 2.135.221 3.085.152.274-.964.152-2.062.152-3.137-.001-3.177-.042-6.635.05-9.763 4.323-.208 8.782-.102 13.254-.102 13.186.001 26.819.047 39.708-.202.235-2.442.101-5.183.101-7.891.001-2.713.083-5.436-.101-7.941-1.004-.196-2.103-.196-3.137-.152-7.691.326-15.839-.012-23.318.102-6.646.101-13.284 0-20.133 0-2.163 0-4.345.101-6.374-.152-.2-3.036-.102-6.642-.05-9.762.579-.269 1.269-.152 1.872-.152 9.877 0 20.108.001 29.742 0 9.363 0 18.21-.05 27.619-.051 1.283 0 2.586-.118 3.845.152.157 10.438.152 21.101.101 31.463-.025 5.206.288 10.463.051 15.579-.119 2.564.12 5.116.051 7.639-.068 2.464.083 4.903-.152 7.284-5.122.15-10.354.101-15.63.101-15.723-.003-31.533.294-47.347-.051-.301-3.999.099-8.698-.202-12.696-.956-.348-2.122-.202-3.237-.202-3.272-.001-6.938.082-10.066-.102-.21-9.983-.153-20.415-.153-31.008 0-2.575-.14-5.197-.05-7.79.223-6.446 0-12.923 0-19.525 0-.643 0-1.325 0-1.973 0-.557-.168-1.257.253-1.72 7.713-.064 15.706.05 23.774.05 12.728.001 25.817-.113 38.595.051zm-1.112 48.915c-12.445-.002-25.324-.033-37.837.151-.254.652-.228 2.176 0 2.833 1.508.254 3.079.12 4.653.151 1.65.032 3.331 0 5.009 0 8.102 0 16.439-.1 24.533-.101 1.724-.001 3.4-.123 4.906.151.092 1.607.051 3.334.051 5.008 0 1.688.205 3.36-.102 4.806-12.891.307-26.109.014-39.051.304-.202.752-.18 1.911 0 2.681 12.241.274 25.274.053 37.686.051 1.786-.001 3.57.123 5.311-.152.088-4.962.126-10.747-.051-15.782-1.647-.328-3.383-.101-5.108-.101z" fill-rule="evenodd"/></svg>