<svg enable-background="new 0 0 81.553 68.418" viewBox="0 0 81.553 68.418" xmlns="http://www.w3.org/2000/svg"><path clip-rule="evenodd" d="m81.262.201c.427.597.314 2.386.102 3.135-1.177.361-2.469.202-3.69.202-14.408-.002-28.184-.05-42.258-.051-2.633 0-5.1-.012-7.329.455-2.202.461-4.133 1.105-5.965 1.819-5.403 2.533-9.704 5.744-12.939 10.413-3.118 4.498-5.713 10.318-5.713 17.642 0 1.99.095 3.787.405 5.459.899 4.85 2.585 8.92 5.105 12.384 1.671 2.298 3.397 4.378 5.561 6.116 2.174 1.747 4.428 3.351 7.177 4.499 2.625 1.096 5.778 2.188 9.2 2.477 3.65.309 7.381.154 10.615-.758 6.129-1.73 11.022-4.536 14.81-8.543.956-1.011 1.957-1.991 2.679-3.185.369-.609.688-1.258 1.062-1.87 1.09-1.788 1.996-3.765 2.831-5.914.558-1.436.875-2.931 1.213-4.6 1.121-5.545.657-13.018.657-19.814 0-.789.164-2.356-.152-2.729-.438-.518-2.401-.142-3.033-.051-.275 1.14-.151 2.339-.151 3.488 0 3.56-.156 7.143-.051 10.514.143 4.544-.269 8.834-1.668 12.384-.705 1.788-1.342 3.362-2.274 4.903-3.453 5.706-9.02 10.51-16.58 12.182-1.992.44-4.047.858-6.318.859-6.729.002-12.482-2.053-16.377-5.156-1.325-1.056-2.527-2.201-3.791-3.386-2.455-2.304-4.344-5.456-5.661-8.694-1.46-3.588-2.285-7.628-1.921-12.283.516-6.601 2.852-11.374 6.065-15.467 1.059-1.349 2.284-2.617 3.589-3.59 1.389-1.034 2.645-2.041 4.246-2.931 3.002-1.67 6.57-3.13 11.07-3.286 2.233-.077 4.612-.101 7.076-.102 13.134 0 25.508.054 38.921.051 1.078 0 3.012-.135 3.589.202.229.81.254 2.481 0 3.286-1.319.296-2.711.202-4.095.202-9.835.002-19.556-.05-29.822-.051-2.934 0-5.844.017-8.694-.051-2.885-.067-5.812-.035-8.441.304-5.063.652-8.74 2.964-11.878 5.61-.982.982-1.945 1.958-2.831 3.033-.88 1.068-1.598 2.266-2.325 3.487-.712 1.197-1.334 2.589-1.769 4.044-.441 1.478-.872 3.104-.859 4.853.682.411 1.544.253 2.325.253 12.483.001 25.402.17 37.809-.051.22-.366.439-2.548 0-2.932-.28-.245-1.434-.152-2.224-.151-8.511.001-16.749-.049-24.919-.051-2.26-.001-4.536-.051-6.824-.051-.731 0-1.511.137-2.123-.202-.174-1.449.679-2.611 1.264-3.689.605-1.117 1.214-2.239 1.87-3.286 2.733-3.31 6.142-5.85 10.817-7.178 4.676-1.328 11.136-.808 17.186-.809 10.527-.001 20.674.048 31.137.051 1.452 0 2.929-.123 4.347.151.34.818.243 2.339.051 3.286-.045.022-.091.044-.102.101-3.847.396-8.427-.119-12.384.253-.491.229-.304 1.799-.303 2.78 0 3.024-.008 6.106-.051 8.846-.031 1.967.149 4.084 0 5.914-.758 9.267-3.706 16.313-8.441 21.634-.496.557-.855 1.164-1.365 1.668-2.456 2.427-5.325 4.649-8.694 6.318-3.917 1.939-8.574 3.617-14.204 3.842-5.809.23-11.024-.976-15.164-2.78-4.043-1.763-7.817-4.33-10.766-7.279-4.117-4.116-6.916-9.179-8.745-15.316-1.921-6.446-1.272-15.092.809-20.825 2.152-5.928 5.501-10.439 9.857-14.203 4.985-4.03 10.917-7.485 19.562-7.886 4.01-.186 8.63-.051 12.789-.051 4.243.001 8.554-.138 12.586.051 4.108.191 8.156-.242 12.182-.051 4.116.197 8.245-.128 12.33.152zm-26.537 17.035c-.425.524-.252 1.291-.252 1.92 0 5.049.197 10.386 0 15.316-.223 5.562-1.924 9.897-4.65 12.839-2.206 2.534-4.944 4.785-8.542 6.015-3.784 1.293-8.313 1.683-12.535.556-3.731-.994-6.74-2.948-9.2-5.408-1.208-1.207-2.174-2.656-3.083-4.195-.452-.767-.825-1.606-1.163-2.477-.337-.868-.899-1.797-.809-2.78.502-.447 1.231-.288 1.87-.304 2.248-.05 4.646.052 6.925.051 7.884-.001 15.086.052 22.847.051 1.507 0 3.045.123 4.499-.151.354-.645.558-1.907.354-2.78-1.509-.323-3.147-.202-4.802-.202-11.104-.001-22.22-.051-33.209-.051-.784 0-1.636-.155-2.325.253-.311.998.018 2.011.202 2.932.58 2.887 1.684 5.305 2.932 7.431 1.682 2.865 3.921 5.432 6.571 7.228 1.98 1.42 4.169 2.737 6.824 3.488 2.689.76 5.945 1.265 9.351.809 7.642-1.022 12.821-4.529 16.529-9.351 2.224-2.893 3.936-6.588 4.549-10.969.636-4.548.404-10.051.404-15.114 0-1.707.121-3.413-.151-5.055-.747-.263-2.313-.2-3.136-.052zm-33.108 7.885c9.417.098 17.717.051 27.042.051.805 0 1.933.07 2.174-.202.412-.468.151-3.034.151-3.69 0-.891.267-3.238-.151-3.74-.425-.509-2.907-.253-4.044-.253-4.328.001-8.781-.047-12.788-.05-2.439-.003-4.458.515-6.318 1.315-2.786 1.196-5.251 2.81-6.824 5.054-.238.339-.664.729-.506 1.214.3.387.849.297 1.264.301zm24.717 17.591c-.687-.033-1.339 0-2.022 0-6.38 0-13.29-.153-19.713-.102-1.309.011-2.638.008-3.892.051-.381.013-.711-.073-.859.253.059.566.449 1.026.758 1.466.906 1.284 2.053 2.369 3.336 3.336 2.433 1.833 5.792 3.314 9.857 3.336 5.571.03 9.344-2.214 12.485-5.105.319-.492.809-.917 1.163-1.415.345-.486.783-1.029.809-1.668-.602-.292-1.295-.123-1.922-.152z" fill-rule="evenodd"/></svg>