<svg enable-background="new 0 0 74.974 65.996" viewBox="0 0 74.974 65.996" xmlns="http://www.w3.org/2000/svg"><g clip-rule="evenodd" fill-rule="evenodd"><path d="m14.085 40.018c-.265.833-.148 1.81-.148 2.777v2.876c0 1.938-.118 3.931.148 5.604.842.27 1.787.148 2.679.148 6.368.001 13.118-.007 18.946.099.261 1.082.148 2.283.148 3.472 0 3.499.081 7.379-.1 10.762-11.911.2-23.588.088-35.511-.05-.229-10.282-.147-21.034-.147-32.036 0-9.191-.051-18.77-.05-28.121 0-1.312-.182-2.904.148-3.869.715-2.086 3.581-1.637 6.398-1.637 7.689-.001 15.61.05 23.409.049 1.35 0 2.894-.168 3.868.198.765.288 1.632 1.364 1.836 2.381.256 1.282.099 3.033.099 4.464 0 9.719.049 18.813.05 28.667 0 .751.05 1.571-.1 2.132-.225.85-1.142 1.644-2.083 1.885-1.456.373-3.325.099-5.009.099-3.526 0-6.489.041-9.771-.049-1.601-.044-3.233-.065-4.81.149zm.348-22.566c-.022 1.085.058 2.224 0 3.174-.066 1.079-.436 3.502.148 4.066.429.414 2.266.199 3.175.199.73 0 2.846.229 3.273-.149.425-.375.198-2.663.198-3.67 0-1.329-.004-2.675 0-3.769.002-.68.302-2.172-.149-2.629-.404-.41-2.525-.286-3.322-.248-.91.043-2.076-.008-2.977.149-.455.647-.325 1.808-.346 2.877z"/><path d="m74.692.291c.238 15.74.2 31.567.198 47.662-.001 3.729.049 7.982.049 12.002 0 1.534.208 3.369-.396 4.364-.436.719-1.315 1.42-2.43 1.538-2.631.278-5.545.05-8.382.05-8.169-.001-17.163.002-24.699-.149-.248-4.318-.139-9.629 0-14.234 5.359-.15 10.882-.1 16.218-.099 1.801 0 3.615.151 5.307-.099.167-3.524.164-7.734 0-11.258-4.73-.244-9.327-.149-14.233-.149-1.596 0-3.236.149-4.812 0-1.297-.122-2.35-1.19-2.578-2.38-.253-1.311-.02-2.791-.05-4.266-.17-8.466-.05-17.461-.05-26.286 0-1.467-.181-3.134.1-4.265.375-1.518 1.685-2.6 3.422-2.678 2.689-.122 5.438.049 8.134.049 6.831 0 13.498.001 20.334 0 .681 0 1.358-.031 2.034 0 .598.028 1.256-.034 1.834.198zm-16.961 14.185c-1.14-.05-2.414-.103-3.273 0-1.305.157-.792 1.439-.794 2.727-.001.864-.05 1.718-.05 2.529 0 1.728-.201 3.549.149 5.009.771.286 1.881.25 2.876.248 1.258-.003 2.604.061 3.621-.198.422-.624.209-1.511.248-2.331.118-2.499.083-5.361.049-7.588-.543-.533-1.731-.347-2.826-.396z"/></g></svg>