<svg enable-background="new 0 0 76.615 69.916" viewBox="0 0 76.615 69.916" xmlns="http://www.w3.org/2000/svg"><path clip-rule="evenodd" d="m35.154.153c.265 1.808.043 3.793.1 5.817.167 6.021-.104 12.746.148 18.696.833.258 1.922.163 2.934.149 1.046-.015 2.149.087 3.084-.1.262-.951.148-1.984.148-2.983-.001-6.111.001-12.457 0-18.646 0-.979-.116-2.001.149-2.934 1.517-.182 3.259-.1 4.923-.1 1.678 0 3.433-.119 4.922.149.285 7.985-.074 16.593.199 24.464.881.303 1.886.199 2.885.199 5.247 0 10.386.049 15.762.05 2.097 0 4.209-.101 6.166.099.05 3.377.124 6.78-.249 9.895-.376 3.144-.997 6.013-1.79 8.652-.219.729-.31 1.429-.547 2.088-1.135 3.153-2.812 5.798-4.624 8.403-.729 1.05-1.433 2.073-2.237 2.983-1.589 1.797-3.358 3.533-5.371 5.072-5.786 4.426-13.453 7.808-23.519 7.807-5.132-.001-9.392-1.03-13.127-2.536-2.418-.975-4.908-2.069-7.012-3.431-1.045-.677-1.961-1.485-2.983-2.238-1.026-.755-1.963-1.501-2.884-2.336-.907-.824-1.764-1.778-2.536-2.686-1.611-1.894-2.796-4.069-4.177-6.266-2.725-4.33-4.228-9.589-4.923-15.958-.334-3.064-.8-6.33-.497-9.597.968-.233 2.008-.192 3.033-.149 2.976.125 6.233.05 9.398.05 4.263 0 8.543.046 12.581-.05.344-.903.198-1.995.198-3.033 0-3.189.001-6.209 0-9.249 0-3.082.001-6.108 0-9.398 0-.863-.158-2.617.199-2.934.036-.047.091-.075.149-.1 3.18.037 6.525-.092 9.498.151zm-25.061 33.266c-.203.757-.017 1.543.05 2.287.069.783.266 1.539.397 2.287.259 1.47.621 2.912 1.144 4.177 1.053 2.55 2.253 4.976 3.729 6.961.419.564.983 1.115 1.491 1.691.503.569.98 1.13 1.542 1.641 1.118 1.019 2.13 2.199 3.381 2.983 2.644 1.656 5.419 3.164 8.652 4.127 3.478 1.036 7.35 1.492 11.237.994 2.695-.345 5.383-1.054 7.607-1.939.781-.311 1.591-.596 2.287-.945 1.014-.508 2.047-1.255 3.034-1.939.989-.686 1.968-1.364 2.834-2.138 2.295-2.05 4.09-4.23 5.668-6.812.32-.523.602-1.031.896-1.591 1.126-2.15 2.201-4.625 2.734-7.26.272-1.344.695-2.798.397-4.326-1.159-.237-2.412-.148-3.68-.148-3.815 0-7.931-.135-11.685.05-.357 6.749.097 14.168-.249 20.784-2.113.269-4.862.099-7.408.1-.531 0-2.16.129-2.437-.149-.271-.274-.149-1.696-.149-2.437.001-5.427 0-10.553 0-15.812 0-.88.115-1.747-.148-2.485-1.764-.167-4.204-.164-5.968 0-.267 1.615-.149 3.337-.148 5.071 0 5.248.081 10.701-.1 15.713-.03.003-.059.008-.05.05-1.427.159-3.13.05-4.823.05-1.7 0-3.453.113-4.923-.149-.29-1.642-.1-3.398-.1-5.122.001-4.551 0-8.744 0-13.127 0-.84.109-1.734-.149-2.535-4.893-.18-10.238-.255-15.063-.052z" fill-rule="evenodd"/></svg>