<svg enable-background="new 0 0 75.11 75.326" viewBox="0 0 75.11 75.326" xmlns="http://www.w3.org/2000/svg"><path clip-rule="evenodd" d="m44.251.716c.212 8.954.049 18.404.048 26.824-.001 10.316.001 20.86 0 31.206 0 .734-.143 1.53.192 2.215.691.107 1.335-.253 1.927-.481 4.089-1.58 7.4-4.176 10.017-7.32 3.002-3.607 5.173-8.32 5.489-14.351.326-6.202-1.986-11.558-4.574-15.169-2.329-3.25-5.586-6.015-9.487-7.898-.48-.233-1.433-.538-1.589-.867-.329-.692-.097-2.411-.097-3.419 0-2.509.036-4.539.049-6.838.006-1.164-.117-2.333.145-3.323 1.11-.26 2.308-.145 3.467-.145 7.048 0 14.362.096 21.526.097 1.131 0 2.303-.111 3.371.192.356 3.286-.083 6.68.048 10.258.042 1.129.183 2.271-.097 3.323-.916.251-2.151.144-3.322.144-1.168 0-2.372-.136-3.227.193.213.867.863 1.501 1.301 2.215 1.305 2.132 2.393 4.587 3.37 7.079 1.304 3.322 2.052 7.254 2.264 11.702.319 6.709-1.394 12.624-3.563 17.288-.748 1.607-1.542 3.209-2.408 4.575-3.517 5.548-8.571 10.086-14.832 13.099-2.956 1.422-6.45 2.732-10.498 3.467-1.906.346-3.877.611-6.453.53-1.586-.05-3.143-.098-4.816-.337-.487-.07-1.208-.111-1.396-.337-.389-.466-.144-2.657-.144-3.708.004-18.781.047-36.04.049-54.754 0-.557.132-1.19-.192-1.686-1.08.078-2.113.499-3.034.915-4.602 2.075-8.201 5.165-10.787 9.342-1.021 1.648-2.134 3.441-2.505 5.538.464.384 1.147.241 1.734.241 3.646 0 7.636.048 11.558.048.578 0 1.237-.121 1.733.192.256 1.046.145 2.222.145 3.371v6.935c0 1.123.152 2.247-.145 3.227-1.108.293-2.378.199-3.66.145-2.441-.104-5.098.125-7.801 0-.641-.03-1.292-.003-1.927 0-.608.003-1.276-.135-1.781.192.062 1.047.489 2.054.914 2.938 2.091 4.345 5.004 8.034 9.006 10.498.816.503 1.633.958 2.504 1.396.834.419 1.737.79 2.505 1.396.144 3.695.137 7.965.096 11.895-.005.488.06 1.055-.241 1.445-1.219-.068-2.375-.5-3.467-.867-3.281-1.102-6.19-2.706-8.909-4.382-3.623-2.233-6.589-5.261-9.149-8.524-3.694-5.028-6.694-11.009-7.417-19.119-.237-2.671-.292-5.446.097-8.235.19-1.362.353-2.62.578-3.853.219-1.2.604-2.345.963-3.467 2.12-6.613 5.915-11.783 10.45-16.036 4.65-4.066 10.298-7.535 17.577-8.957 1.238-.242 2.52-.467 3.853-.578 2.473-.206 5.128-.269 7.705-.048 1.061.092 2.145.096 2.837.578z" fill-rule="evenodd"/></svg>