<svg enable-background="new 0 0 80.755 58.89" viewBox="0 0 80.755 58.89" xmlns="http://www.w3.org/2000/svg"><path clip-rule="evenodd" d="m48.443 27.422c-.343.598-.211 1.553-.145 2.354.187 2.232.646 4.519 1.201 6.534.735 2.663 1.725 5.236 2.883 7.447 1.803 3.439 3.524 6.768 5.765 9.752.743.99 1.554 1.906 2.162 2.979-.676.761-1.465 1.197-2.354 1.874-.28.213-.577.522-.865.529-.568.012-1.1-1.013-1.489-1.538-2.178-2.934-4.074-5.704-5.861-9.128-.302-.58-.649-1.217-1.057-1.97-.281-.518-.787-1.732-1.201-1.777-.449-.05-1.174.746-1.634 1.105-3.585 2.8-7.813 4.93-12.154 6.918-4.878 2.234-11.054 3.666-18.4 3.17-3.407-.23-6.251-.927-8.6-2.306-2.269-1.333-4.154-3.095-5.429-5.429-1.323-2.424-1.684-6.123-.721-9.032.897-2.708 2.62-4.539 4.517-6.341 1.148-.906 2.378-1.729 3.699-2.498 1.345-.783 2.915-1.105 4.372-1.826-.13-.376-.535-.571-.817-.769-2.055-1.438-4.101-3.221-4.66-6.246-.72-3.893 1.26-6.665 3.651-8.407 2.369-1.726 5.938-2.938 9.705-2.786 2.789.112 5.621.665 7.975 1.393.772.239 1.63.311 2.21.865-.38 1.253-.836 2.431-1.489 3.411-1.526-.465-3.251-1.196-5.284-1.538-1.97-.33-4.336-.482-6.391-.048-3.736.79-7.045 2.891-6.053 7.206.269 1.17 1.418 2.151 2.45 2.835 1.963 1.301 4.388 2.051 7.158 2.45.679.098 1.367.217 2.065.336.693.118 1.427.058 2.114.289-.156 1.351-.628 2.797-1.153 3.939-1.226.334-2.519.205-3.747.288-6.309.425-11.139 2.044-14.221 5.813-1.213 1.483-2.174 3.312-1.97 6.005.32 4.215 3.95 6.689 7.687 7.639 2.105.534 4.595.487 7.015.432 2.384-.053 4.728-.472 6.726-.913 4.061-.896 7.671-2.518 11.002-4.324 2.456-1.332 4.654-2.842 6.87-4.612.588-.47 1.737-1.283 1.825-1.97.058-.452-.238-1.113-.384-1.633-1.004-3.569-1.692-7.789-1.489-12.395-.473-.684-1.331-.973-2.066-1.441-1.815-1.156-3.485-2.231-5.189-3.603-.29-.233-.84-.622-.864-.865-.043-.415.83-1.298 1.057-1.586.215-.271.799-1.358 1.249-1.393.438-.034 1.132.771 1.489 1.057 1.015.813 1.908 1.45 2.979 2.114.505.312.967.784 1.634.913.499-.523.498-1.299.673-1.921.541-1.937 1.173-3.989 2.066-5.717 1.162-2.251 2.657-4.347 4.275-6.101 2.886-3.128 6.505-5.695 11.482-6.678 3.128-.617 7.23-.159 9.704.913 2.022.875 3.696 2.114 4.997 3.507 2.023 2.169 3.573 4.99 3.314 9.464-.175 3.018-1.16 5.382-2.594 7.351-1.604 2.202-3.698 3.871-6.198 5.237-1.298.709-2.591 1.326-3.987 1.729-3.835 1.107-8.532 1.343-12.731.625-1.539-.264-3.126-.643-4.611-1.105-.71-.221-1.382-.636-2.163-.577zm2.354-3.603c2.428.724 4.941 1.477 7.879 1.633 4.685.25 8.502-.667 11.289-2.354 2.781-1.683 5.314-3.884 6.197-7.495.646-2.635.091-5.426-1.297-7.254-1.903-2.509-5.289-4.18-9.849-3.843-5.091.375-8.463 3.19-11.049 6.293-2.026 2.431-3.434 5.183-4.517 8.455-.361 1.091-.721 2.295-.769 3.507.519.59 1.37.835 2.116 1.058z" fill-rule="evenodd"/></svg>