<svg enable-background="new 0 0 12.762 13.027" viewBox="0 0 12.762 13.027" xmlns="http://www.w3.org/2000/svg"><path d="m.034.915c.106-.53.63-.955 1.175-.912 3.851.001 7.702-.001 11.553.001-.009.396.002.792-.006 1.187-3.862-.011-7.724-.003-11.585-.004.008 1.189-.002 2.378.005 3.566-.386-.386-.758-.787-1.141-1.175-.049-.041-.03-.111-.034-.165.002-.669 0-1.337 0-2.006.001-.165-.013-.333.033-.492z"/><path d="m2.322 2.364c3.479 0 6.959.002 10.438-.001-.007.398.002.796-.004 1.194-2.593-.008-5.187-.001-7.78-.003-.492.004-.985-.01-1.476.006-.412.375-.796.787-1.176 1.196-.002-.798.001-1.595-.002-2.392z"/><path d="m3.95 4.739c.541-.022 1.085-.002 1.627-.009 2.008 0 4.015-.002 6.023 0-.001.399.002.798-.001 1.197-2.369-.008-4.736-.001-7.104-.003-.569.003-1.139-.007-1.708.006.367-.416.773-.797 1.163-1.191z"/><path d="m2.792 7.096c2.935.002 5.871-.001 8.806.002.004.399-.001.798.002 1.197-2.55-.006-5.1-.003-7.65-.001-.385-.4-.768-.801-1.158-1.198z"/><path d="m1.112 8.242c.029.043.076.082.063.139-.006 1.151.002 2.303-.004 3.454 3.863-.012 7.726.005 11.589-.009-.004.399-.002.799-.001 1.198-3.757-.001-7.513 0-11.27 0-.222-.001-.45.017-.664-.053-.485-.149-.834-.639-.824-1.145.003-.787-.005-1.574.004-2.361.359-.389.738-.761 1.113-1.135-.001-.029-.003-.058-.006-.088z"/><path d="m2.32 8.275c.391.386.777.78 1.148 1.185 3.098.007 6.195 0 9.294.004-.008.399 0 .798-.005 1.197-2.326-.007-4.653-.001-6.979-.003-1.151.003-2.302-.006-3.453.004-.005-.796.004-1.592-.005-2.387z"/></svg>