<svg enable-background="new 0 0 165.601 152.388" viewBox="0 0 165.601 152.388" xmlns="http://www.w3.org/2000/svg"><g clip-rule="evenodd" fill-rule="evenodd"><path d="m108.087.083c.289 1.105.185 2.263.185 3.413 0 3.623.046 7.234.046 10.84.005 33.367.353 67.943.277 101.526-.9.251-1.875.138-2.814.138-6.58.001-13.516.165-20.111.139-.246-.55-.138-1.171-.138-1.753 0-4.126-.046-8.597-.046-12.869-.001-33.174-.422-67.113-.277-101.157.688-.267 1.446-.111 2.168-.138 2.195-.083 4.46-.139 6.734-.139 4.686.001 9.44-.187 13.976 0z"/><path d="m165.192 36.847c.232 6.484.186 12.953.184 19.465-.002 16.222.186 33.106.186 49.817 0 3.277.135 6.589-.092 9.641-7.355.151-15.348.206-22.742.093-.188-6.492-.184-13.077-.184-19.65 0-18.116-.186-36.426-.184-54.614 0-.799.02-1.604 0-2.399-.02-.752-.092-1.541.139-2.26 7.486-.168 15.494-.232 22.693-.093z"/><path d="m136.731 36.984c.225 4.641.139 9.366.139 14.115.002 14.425.184 28.959.186 43.267 0 16.88.184 33.729.184 50.832 0 1.782.047 3.496.047 5.397 0 .545.102 1.146-.139 1.66-7.365.145-15.07.204-22.74 0-.246-1.167-.139-2.362-.139-3.552-.001-13.29-.139-26.292-.139-39.623 0-7.296-.092-14.468-.092-21.818-.002-14.108-.139-28.804-.139-43.312 0-1.795 0-3.598 0-5.397 0-.527-.139-1.138.185-1.614 7.372.051 15.339-.106 22.647.045z"/><path d="m79.626 37.215c.184.747.121 1.544.139 2.307.137 5.705-.139 11.56.047 17.482.209 6.667.092 13.401.092 19.927.002 13.318.224 26.149.047 39.208-.884.249-1.832.139-2.768.138-5.765 0-11.504.048-17.298.047-.905 0-1.857.111-2.721-.139-.242-26.041-.342-52.328-.277-78.877 1.146-.242 2.365-.139 3.552-.139h7.38c3.988.001 7.848-.138 11.807.046z"/><path d="m51.212 37.308c.221 16.756.259 34.088.185 50.416-7.186.262-15.255.129-22.741.093-.249-1.02-.138-2.09-.138-3.137 0-2.968-.063-6.133-.046-9.271.034-6.333-.045-12.596-.046-19.051 0-6.328-.175-12.786.046-19.004 7.387-.129 15.284-.18 22.74-.046z"/><path d="m23.167 93.399c9.116.288 19.117-.095 28.23.138.021.041.041.083.092.093-.004 7.376.224 15.119 0 22.556.007.054-.01.082-.046.092-14.692.234-30.04.151-44.927.231-2.098.011-4.212.195-6.228-.093-.203-26.259-.384-52.089-.23-78.923 1.808-.239 3.661-.139 5.489-.139 1.855 0 3.704-.036 5.535 0 3.694.073 7.358-.252 11.117-.092.779.033.646.558.646 1.568 0 8.889.045 17.719.092 26.477.049 9.207.037 18.832.185 27.999.008.037.045.046.045.093z"/></g></svg>