<svg enable-background="new 0 0 68.81 83.514" viewBox="0 0 68.81 83.514" xmlns="http://www.w3.org/2000/svg"><g clip-rule="evenodd" fill-rule="evenodd"><path d="m61.445.241c.195 5.775.174 11.871 0 17.814-6.704.281-14.094-.098-21.232.208-.278 1.023-.156 2.175-.156 3.314 0 3.343-.084 7.084.104 10.306.79.253 1.69.207 2.537.207 6.277 0 12.663-.15 18.747.104.146 5.732.244 12.029 0 17.815-6.854.31-14.431-.103-21.284.207-.322 1.195-.143 2.454-.156 3.728-.088 8.709.253 18.597-.052 27.861-1.539.332-3.164.065-4.764.103-4.863.117-10.004-.052-15.07-.052-6.722 0-13.448.099-19.989-.104-.172-5.657-.172-12.052 0-17.763 1.749-.213 3.602-.233 5.438-.155 5.295.223 11.045-.062 16.468-.104.345-.989.225-2.167.207-3.314-.049-3.239.111-6.959-.103-10.254-.828-.281-1.768-.155-2.641-.155-6.386 0-13.047.091-19.368-.104-.172-5.656-.172-12.052 0-17.763.834-.278 1.751-.155 2.641-.155 6.399 0 13.107.039 19.316-.104.279-1.038.155-2.21.155-3.366 0-3.345.084-7.082-.103-10.306-.837-.281-1.744-.155-2.641-.155-6.312 0-13.027.085-19.368-.104-.172-5.674-.172-12.086 0-17.814 12.743-.276 25.092-.052 37.804-.052 7.83.002 15.703-.072 23.51.157z"/><path d="m57.25 61.35c5.367-.159 9.207 2.976 10.771 6.888.628 1.571.929 3.247.725 5.489-.259 2.858-1.767 5.289-3.521 6.836-1.871 1.649-4.261 2.946-7.354 2.952-4.841.008-8.476-2.785-10.15-6.318-.602-1.27-1.045-2.626-1.087-4.402-.085-3.537 1.309-6.232 2.952-8.027.828-.904 1.893-1.708 3.159-2.331 1.184-.582 2.875-1.04 4.505-1.087z"/></g></svg>