<svg enable-background="new 0 0 36.263 75.83" viewBox="0 0 36.263 75.83" xmlns="http://www.w3.org/2000/svg"><path clip-rule="evenodd" d="m36.091.173c.05 2.793.098 5.562.098 8.285 0 .916.113 1.848-.146 2.68-2.003.09-4.073.049-6.141.049-2.007 0-4.099-.117-5.946.146-.259.76-.146 1.65-.146 2.535 0 2.545-.042 5.359.097 7.699.909.266 1.954.146 2.973.146 2.985 0 6.342-.08 9.211.098.162 3.463.163 7.602 0 11.065-3.624.154-8.237-.037-12.087.193-.239 1.197-.239 3.338 0 4.533 2.918.143 6.205.143 9.163.098 1.01-.016 2.021-.193 2.924.098.101 3.418.303 7.566 0 11.014-3.656.211-8.118-.055-12.087.195-.268 1.188-.182 3.219-.049 4.484.908.264 1.952.146 2.973.146 2.968 0 6.31-.08 9.163.098.258.807.146 1.746.146 2.68v5.654c0 .932.115 1.877-.146 2.68-3.64.279-8.292-.086-12.087.195-.248 1.588-.146 3.434-.146 5.312 0 1.852.08 3.773-.098 5.459-1.707.174-3.625.047-5.507.049-1.874 0-3.787.199-5.458-.098-.288-3.336.093-7.34-.195-10.674-1.915-.275-4.078-.105-6.19-.195-2.135-.09-4.268.148-6.238-.098-.262-1.676-.146-3.67-.146-5.603 0-.955.049-1.916.049-2.828 0-.926-.122-1.818.098-2.582 3.95-.324 8.428.178 12.379-.146.161-1.275.162-3.209 0-4.484-.947-.262-2.023-.146-3.07-.146-1.024 0-2.054-.047-3.071-.049-2.104 0-4.334.119-6.287-.145-.162-3.432-.162-7.537 0-10.967 3.065-.225 6.392-.049 9.405-.049 1.034 0 2.081.111 3.022-.146.191-1.256.1-3.049.049-4.387-.883-.344-1.961-.193-3.022-.195-2.048 0-4.235-.047-6.385-.047-1.06-.002-2.13.115-3.07-.146-.161-3.447-.163-7.568 0-11.016 3.804-.34 8.447.17 12.379-.146.262-.656.147-1.393.147-2.096 0-5.129.035-10.438 0-15.205-.011-1.418-.144-2.814.097-4.143 6.071-.396 12.7.189 18.91-.098 1.444-.066 3.084-.166 4.435.098z" fill-rule="evenodd"/></svg>