<svg enable-background="new 0 0 82.862 50.838" viewBox="0 0 82.862 50.838" xmlns="http://www.w3.org/2000/svg"><g clip-rule="evenodd" fill-rule="evenodd"><path d="m67.315.079c.826 1.715 1.36 3.592 2.013 5.434 1.923 5.437 3.686 10.95 5.786 16.403 1.361 3.533 2.486 7.23 3.874 10.968 1.138 3.064 2.292 6.277 3.421 9.56.175.505.472 1.09.453 1.358-.042.602-1.113 1.315-1.61 1.812-1.757 1.757-3.367 3.37-5.182 5.031-2.308-.062-4.637.136-6.642-.05-.447-.438-.625-1.084-.855-1.66-.685-1.711-1.369-3.542-2.062-5.333-.927-2.394-1.833-4.788-2.919-6.994-3.187-.084-6.724-.083-9.912 0-.268.584-.151 1.272-.151 1.912 0 1.328-.041 2.529 0 3.824.019.601.071 1.383-.05 1.862-.149.59-1.076 1.356-1.509 1.761-.583.544-1.161.988-1.61 1.61-.534.509-1.065 1.015-1.66 1.61-.464.464-1.107 1.34-1.711 1.509-.935.263-2.221.05-3.32.05-1.137 0-2.264.081-3.271-.101.031-.939.391-1.823.654-2.717 3.622-12.289 7.446-24.716 11.12-37.182.267-.904.448-1.846.805-2.616.339-.732 1.144-1.436 1.761-2.113.628-.69 1.341-1.361 1.912-1.962 1.316-1.387 2.347-2.927 3.773-3.975 2.315-.049 4.777-.152 6.892-.001z"/><path d="m40.044.18c.151 1.76.149 3.778.151 5.686 0 .645.082 1.341-.051 1.861-.151.596-1.085 1.319-1.56 1.812-1.177 1.222-2.033 2.134-3.32 3.421-.527.526-1.194 1.402-1.761 1.56-.832.231-2.149.05-3.27.05-7.569 0-15.476-.081-22.792.101-.223.929-.224 2.581-.051 3.572 10.628.301 21.973-.1 32.654.201.212 1.063.151 2.305.151 3.573 0 1.262.204 2.684 0 3.723-.12.611-1.208 1.459-1.56 1.812-1.162 1.162-2.073 2.073-3.321 3.32-.498.499-1.12 1.382-1.761 1.56-.797.221-2.136.072-3.271.05-7.239-.141-15.713.023-22.842.101-.163.938-.168 2.534 0 3.472 10.644.301 22.008-.1 32.704.201.138 1.898.151 3.843.151 5.786 0 .643.099 1.37-.05 1.912-.172.625-1.132 1.283-1.61 1.761-.59.59-1.074 1.172-1.66 1.711-.511.496-1.095 1.044-1.71 1.66-.512.512-1.095 1.422-1.761 1.61-1.032.291-2.872.05-4.176.05-9.484 0-19.844.085-29.082-.101-.151-13.441-.202-26.75-.201-40.1 0-.951-.128-1.954.05-2.667.192-.767 1.228-1.48 1.811-2.063 1.98-1.981 3.632-3.913 5.786-5.686 10.61.038 21.787-.156 32.352.051z"/></g></svg>