<svg enable-background="new 0 0 15.17 8.35" viewBox="0 0 15.17 8.35" xmlns="http://www.w3.org/2000/svg"><path d="m.157.57c.203-.341.582-.564.98-.569 4.257 0 8.515.001 12.772 0 .294-.013.602.059.833.248.18.123.284.322.375.513.074.203.042.421.048.632.003 2.318-.005 4.636.004 6.954-4.614 0-9.227-.001-13.84 0-.345.012-.718-.069-.967-.325-.22-.195-.343-.484-.362-.774.002-2.066-.001-4.133.001-6.2.022-.121.039-.248.099-.358.019-.04.038-.08.057-.121zm.393.556c.002 2.042-.001 4.084.002 6.125.007.244.201.435.415.525.07.011.14.023.211.023 2.74.001 5.48-.001 8.22.001-.001-1.74-.005-3.481.002-5.221.178.018.358.013.536.003-.002 1.74.002 3.48-.002 5.22.688-.004 1.376-.007 2.063.002-.001-1.74 0-3.481 0-5.22.18.013.361.006.542.005v5.214c.696-.005 1.393-.007 2.089 0 .005-2.226 0-4.451.003-6.678.004-.263-.198-.48-.436-.565-1.197-.017-2.395-.002-3.592-.007-3.167 0-6.335 0-9.501 0-.293.009-.556.278-.552.573z"/><path d="m2.639 2.586c1.35.008 2.699.002 4.048.004.204-.002.409.006.612-.007.001 1.06.001 2.119 0 3.179-1.553 0-3.106-.002-4.659.001.002-.185.001-.37-.004-.555 1.376.003 2.751-.005 4.127.004-.001-.696 0-1.393 0-2.089-1.375.011-2.751 0-4.126.006.006-.18.005-.361.002-.543z"/></svg>