<svg enable-background="new 0 0 162.827 180.867" viewBox="0 0 162.827 180.867" xmlns="http://www.w3.org/2000/svg"><g clip-rule="evenodd" fill-rule="evenodd"><path d="m95.395 0h.096c.239 1.298.146 2.66.146 4.005v24.9c0 1.413.219 2.971-.049 4.15-.104.458-.923 1.25-1.447 1.786-2.555 2.606-4.964 5.27-7.383 7.914-4.849 5.296-9.974 10.468-14.863 15.683-8.123 8.664-16.012 16.716-23.839 25.093-.772-.399-1.322-1.081-1.931-1.688-4.139-4.14-8.632-8.105-12.836-12.258-.632-.654-1.579-1.251-1.931-2.026.508-.847 1.26-1.523 1.931-2.22 1.986-2.063 4.026-4.165 5.984-6.322 9.489-9.668 18.409-19.906 27.988-29.485 3.587-3.587 7.078-7.291 10.52-11.051 1.128-1.232 2.292-2.485 3.475-3.667 4.786-4.786 9.143-9.998 13.994-14.718.036-.045.088-.073.145-.096z"/><path d="m128.885 31.897c.339.181.192.655.192.917.001 5.332 0 10.428 0 15.78.001 4.26.048 8.037.049 12.354 0 1.451.241 3.097-.049 4.247-.152.606-.967 1.149-1.399 1.689-1.339 1.671-3.007 3.336-4.392 4.777-2.037 2.121-3.938 4.15-5.983 6.225-2.852 3.177-5.93 6.24-8.928 9.411-5.935 6.276-11.953 12.324-17.903 18.771-1.438 1.559-2.874 3.16-4.391 4.777-1.036 1.105-2.195 2.291-3.378 3.475-.342.342-.901 1.09-1.158 1.109-.44.035-.84-.615-1.158-.916-1.051-.992-2.21-2.014-3.137-2.943-3.514-3.236-7.219-7.07-10.906-10.473-.362-.334-1.48-1.123-1.496-1.543-.011-.312.694-.927.917-1.159 1.039-1.079 2.015-2.129 3.04-3.137 6.184-6.621 12.58-13.075 18.772-19.737.622-.669 1.141-1.43 1.785-2.075 3.163-3.163 6.198-6.585 9.41-9.796 2.554-2.554 4.929-5.311 7.48-7.914 6.321-6.45 12.418-13.19 18.724-19.737 1.317-1.367 2.487-2.878 3.909-4.102z"/><path d="m162.664 63.988c.039.009.048.049.097.048.137 11.199.011 21.939.048 33.248-3.149 3.617-6.682 6.912-9.941 10.472-4.854 5.303-9.909 10.477-14.96 15.635-5.007 5.115-9.766 10.586-14.863 15.684-1.69 1.689-3.324 3.469-4.97 5.26-1.618 1.762-3.362 3.441-4.971 5.211-3.215 3.541-6.532 7.039-9.893 10.473-1.689 1.725-3.315 3.473-5.019 5.211-1.645 1.678-3.189 3.527-4.923 5.26-2.483 2.484-4.839 5.275-7.431 7.867-.374.373-.768.814-1.255 1.303-.386.387-1.035 1.189-1.303 1.207-.478.029-1.098-.858-1.399-1.158-.49-.49-.926-.789-1.304-1.256-2.681-2.434-5.302-4.928-7.865-7.48-3.496-3.307-6.903-6.705-10.375-10.037-3.285-3.043-6.532-6.227-9.796-9.361-2.198-2.111-4.198-4.231-6.419-6.369-3.208-3.09-6.597-6.211-9.747-9.361-2.131-2.133-4.432-4.094-6.564-6.227-6.35-6.35-13.084-12.414-19.496-18.772-2.858-3.135-5.916-5.838-9.023-8.879-.389-.381-1.045-.91-1.158-1.352-.275-1.07-.048-2.676-.048-4.005-.001-9.343-.066-19.032.097-27.844.562.042 1.004.667 1.399 1.062 2.901 2.902 5.987 5.794 8.927 8.734 1.678 1.677 3.336 3.375 5.067 5.018 1.722 1.635 3.372 3.362 5.115 4.971 3.482 3.214 6.954 6.52 10.327 9.893 3.369 3.371 6.999 6.48 10.278 9.892 1.639 1.707 3.468 3.275 5.163 4.971.842.842 1.788 1.59 2.558 2.51.742.887 1.718 1.686 2.558 2.461 3.499 3.228 6.86 6.6 10.279 9.893 3.428 3.301 6.875 6.562 10.278 9.893 2.551 2.496 5.23 4.844 7.77 7.383.838.84 1.626 1.748 2.605 2.414 1.008-.705 1.748-1.701 2.606-2.559.853-.852 1.612-1.797 2.509-2.605 4.743-5.486 10.012-10.449 14.911-15.779 20.06-20.91 39.88-42.062 59.983-62.927.086.007.129-.085.148-.003z"/></g></svg>