<svg enable-background="new 0 0 68.29 82.518" viewBox="0 0 68.29 82.518" xmlns="http://www.w3.org/2000/svg"><path clip-rule="evenodd" d="m28.873.154c.161 4.693.149 9.806 0 14.484-4.382.292-9.289-.09-13.509.154-.272 1.619-.154 3.556-.154 5.444 0 1.872-.119 3.791.154 5.393 4.17.35 9.291-.17 13.509.257.187 3.275.103 7.01.103 10.529 0 1.156.123 2.312-.154 3.339-4.165.207-9.212-.133-13.457.154-.221 8.695-.098 17.834-.052 27.018.046.022.092.045.102.103 3.513.229 7.402.184 10.94.051.269-.495.154-1.11.154-1.644 0-3.888-.02-8.163.104-12.019 2.278-.246 4.862-.103 7.447-.103 2.565 0 5.189-.062 7.551.051.239.993.154 2.146.154 3.288-.001 3.403-.104 7.247.103 10.375 3.51.157 7.611.261 11.146.051.259-8.58.129-17.866 0-27.069-1.028-.277-2.193-.154-3.338-.154-3.352 0-7.096.084-10.324-.103-.171-4.361-.171-9.454 0-13.868 4.309-.291 9.044.038 13.611-.154.339-1.653.097-3.589.103-5.444.006-1.852.227-3.788-.103-5.445-4.527-.285-9.371.053-13.611-.206-.171-4.59-.171-9.894 0-14.484 9.355-.275 19.401-.021 28.866.051.189 6.973-.053 13.983-.052 20.905.002 5.171.032 10.236.052 15.204.057 14.46.005 30.547-.103 46.022-1.358.275-2.771.154-4.161.154-4.126 0-8.485-.051-12.789-.051-16.924.003-34.058-.049-51.005-.203-.191-13.641-.104-27.415-.102-41.451.001-6.621-.053-13.249-.052-20.34.001-5.821.051-11.855.052-17.978 0-.871-.204-2.107.154-2.362.037-.048.094-.078.154-.103 9.541.033 19.003-.057 28.507.154zm-26.71 1.644c-.06.025-.116.055-.154.102-.332.19-.205 2.15-.205 3.031v45.098c0 1.018-.118 2.091.154 3.082 1.793.295 3.781.121 5.701.103 1.918-.018 3.925.233 5.701-.103.187-3.571.103-7.658.103-11.351 0-1.267-.125-2.548.153-3.698 4.2-.22 9.189.141 13.458-.154.148-3.182.223-7.171-.052-10.273-3.072-.15-6.795-.103-10.118-.103-1.151 0-2.317.123-3.339-.154-.067-3.49-.265-7.458-.103-10.89.058-1.226-.168-2.438.153-3.544 4.351-.187 9.193.119 13.458-.154.181-3.579.118-7.328 0-10.838-8.156-.213-16.586-.126-24.91-.154zm39.14.102c-.438.664-.256 1.667-.257 2.568 0 2.719-.099 5.609.104 8.321 1.025.275 2.184.154 3.338.154h6.986c1.173 0 2.346-.118 3.39.154.061 4.498.151 10.011-.052 14.433-3.062.116-6.823.052-10.272.051-1.166 0-2.346-.124-3.39.154-.188 2.356-.103 5.228-.104 7.705 0 .85-.117 1.733.154 2.465 3.251.171 6.923.154 10.324.154 1.151 0 2.309-.125 3.339.154.298 4.853-.108 10.063.205 14.999 1.709.272 3.682.154 5.65.154 1.962 0 3.985.084 5.753-.103.204-17.147.079-34.795 0-51.21-8.063-.261-17.063-.158-25.168-.153zm-33.387 53.111c-1.945 0-4.197-.041-5.804.051-.385.293-.307.845-.309 1.284-.002.492-.006 1.042 0 1.541.08 6.311-.205 13.328.052 19.415.044 1.054-.2 2.104.103 3.082 1.298.277 2.649.154 3.955.154 17.756-.001 34.839.105 52.494.103 2.695 0 5.39.188 8.065-.103.17-8.319.174-17.09 0-25.22-.827-.274-1.803-.154-2.774-.154-.957 0-1.958 0-2.929 0-2.006 0-4.022-.106-5.701.103-.187 3.246-.103 7.01-.103 10.376 0 1.144.115 2.301-.154 3.338-4.891.092-10.086.077-14.792-.102-.116-3.191-.053-6.953-.052-10.324 0-1.144.115-2.308-.154-3.338-1.789-.187-3.814-.103-5.805-.103-1.974 0-3.956-.178-5.598.103-.188 3.249-.103 7.007-.104 10.375 0 1.145.121 2.308-.153 3.339-4.722.023-10.066.215-14.588-.102-.312-4.51.118-9.299-.206-13.663-1.642-.275-3.524-.155-5.443-.155z" fill-rule="evenodd"/></svg>