<svg enable-background="new 0 0 69.243 76.382" viewBox="0 0 69.243 76.382" xmlns="http://www.w3.org/2000/svg"><g clip-rule="evenodd" fill-rule="evenodd"><path d="m44.789 10.844c-3.053 2.667-5.464 5.907-7.521 9.559-1.519 2.698-2.828 5.748-3.639 9.17-.272 1.15-.292 2.363-.728 3.542-3.72.178-7.581.097-11.354.097-3.748 0-7.486.188-11.062-.097.026-1.758.627-3.35 1.213-4.803 1.759-4.36 4.302-7.902 7.52-10.82 3.9-3.087 8.475-5.926 14.799-6.599.87-.093 1.804-.086 2.717-.34.176-1.414.097-3.061.097-4.658 0-1.617.111-3.238-.146-4.61-5.262-.101-9.923 1.281-13.925 2.96-3.852 1.616-7.595 4.004-10.334 6.744-4.241 4.241-7.901 9.241-9.947 15.672-.51 1.604-.918 3.292-1.31 5.095-.1.458.044 1.34-.679 1.455-.717-.167-.437-1.144-.437-1.698 0-10.31-.081-21.174.097-31.296 4.874-.178 9.798-.097 14.75-.097 12.3.001 24.528-.048 36.973-.047 2.499.001 5.182.062 7.521-.048 1.624-.077 3.161.134 4.949.048.697-.033 1.463-.048 2.522-.048.766 0 2.043-.15 2.232.291.477 1.112-.914.904-1.844.97-10.037.719-17.034 4.621-22.464 9.558z"/><path d="m69.098 10.844c.094 7.415.187 14.838 0 22.174-4.45.172-8.879.146-13.392.146-2.142 0-4.334.146-6.501.048-1.113-.05-2.228-.096-3.348-.048-1.056.044-2.168.181-3.202-.097.128-1.6.629-3.132 1.165-4.561 1.449-3.863 3.705-6.847 6.259-9.655 3.994-4.392 10.282-7.694 18.146-8.103.233-.012.609-.118.873.096z"/><path d="m59.393 43.547c.23 3.281.021 6.907.098 10.432.054 2.524.02 5.148 0 7.569-.008.785.141 1.611-.098 2.329-4.543-1.536-8.053-4.379-10.82-7.763-2.067-2.528-3.826-5.395-5.046-8.879-.396-1.132-.878-2.351-.874-3.639 5.173-.255 11.412-.192 16.74-.049z"/><path d="m.539 43.498c.699.098.596.983.679 1.456.727 4.137 2.184 7.848 3.833 11.062.742 1.396 1.567 2.668 2.475 3.93.889 1.235 1.952 2.32 2.814 3.542.401.569.993 1.105 1.552 1.65 1.566 1.523 3.479 3.062 5.337 4.221 5.162 3.218 11.388 5.805 19.554 5.822.302-1.389.083-3.016.146-4.561.064-1.604.008-3.216-.097-4.706-.917-.236-1.836-.261-2.717-.34-2.749-.246-5.085-.902-7.278-1.844-2.886-1.24-5.396-2.683-7.569-4.609-3.191-2.83-5.817-6.342-7.52-10.771-.563-1.465-1.271-3.012-1.261-4.707.863-.262 1.798-.146 2.717-.146 6.452.001 13.278-.04 19.699.049.361 1.19.49 2.393.776 3.542.827 3.317 2.122 6.411 3.639 9.17 2.02 3.676 4.534 6.988 7.569 9.559 3.092 2.619 6.393 5.046 10.48 6.647 1.034.405 2.067.819 3.154 1.164 1.105.352 2.23.561 3.444.825 1.706.372 3.601.575 5.678.728.499.037 1.431-.204 1.601.534v.097c-.203.714-1.115.482-1.649.485-10.417.064-21.446.05-32.654.049-11.788-.001-23.322.129-34.691-.097-.181-10.072-.149-20.462-.148-30.859 0-.589-.148-1.308.194-1.843.138.04.126-.069.243-.049z"/></g></svg>