<svg enable-background="new 0 0 77.919 73.905" viewBox="0 0 77.919 73.905" xmlns="http://www.w3.org/2000/svg"><g clip-rule="evenodd" fill-rule="evenodd"><path d="m51.71.158c.131 2.656.122 5.714-.049 8.337-5.176.302-11.085-.13-16.188.244-.256.614-.146 1.371-.146 2.097 0 2.091-.08 4.557.098 6.534 1.245.298 2.597.111 3.949.098 1.34-.014 2.704 0 4.096 0 2.795 0 5.651-.107 8.191.146.243 1.198.09 2.623.098 3.998.007 1.388.173 2.809-.049 4.096-2.531.191-5.375.097-8.143.097-2.746 0-5.52-.007-8.094.146-.262 1.21-.146 2.686-.146 4.145 0 1.429.078 2.898-.098 4.145-2.766.163-6.205.161-8.972 0-.209-2.684-.147-5.509-.147-8.387.002-8.601-.061-17.387.147-25.695 6.705-.167 13.805-.146 20.771-.146 1.608-.001 3.184-.074 4.682.145z"/><path d="m77.796 17.565c.161 2.506.162 5.686 0 8.192-5.09.343-10.957.041-16.042.243-.26.631-.146 1.409-.146 2.146 0 2.158-.124 4.566.049 6.583.594.22 1.287.184 1.95.195 3.089.047 6.857 0 10.288 0 1.368 0 2.704-.148 3.901.098.156 2.512.172 5.824 0 8.191-5.107.305-10.796.027-16.042.194-.262.646-.146 1.387-.146 2.097 0 2.168-.049 4.42-.049 6.631.001 2.972.142 5.908-.097 8.386-2.915.134-6.066.244-8.972.049-.313-.832-.089-1.722-.098-2.584-.112-10.992-.048-23.623-.049-35.009 0-1.82-.117-3.635.146-5.413 6.768-.22 13.55-.097 20.625-.097 1.574 0 3.165-.173 4.682.098z"/><path d="m25.429 17.76c.161 2.476.163 5.619 0 8.094-2.564.24-5.354.098-8.094.098-2.728 0-5.433-.006-7.996.147-.256.614-.147 1.373-.147 2.097 0 2.124-.079 4.621.098 6.631.586.26 1.255.146 1.901.146 4.61 0 9.723-.081 14.237.098.162 2.506.162 5.684 0 8.191-1.171.247-2.539.146-3.9.146-3.97 0-8.357-.08-12.189.098-.264.997-.147 2.128-.147 3.218 0 2.213-.038 4.307 0 6.436.019 1.063.078 2.139-.146 3.121-2.75.163-6.172.161-8.923 0-.159-12.607-.169-25.842 0-38.471 2.156-.3 4.532-.098 6.973-.098 1.168 0 2.372-.049 3.559-.049 4.122 0 8.094-.021 12.141 0 .894.004 1.796-.212 2.633.097z"/><path d="m51.71 35.021c.162 2.506.162 5.685 0 8.191-5.084.295-11.069-.105-16.236.244-.214 1.247-.096 2.741-.146 4.242-.053 1.51-.04 3.094.098 4.486.616.257 1.34.146 1.999.146 4.858 0 9.747-.15 14.237.098.258 2.41.191 5.657.049 8.143-1.264.298-2.642.098-3.998.098-4.104 0-8.334-.036-12.238.146-.265 1.006-.146 2.115-.146 3.218 0 3.185.038 6.551-.098 9.752-2.766.163-6.205.161-8.972 0-.273-4.858-.098-9.734-.098-14.627 0-1.595.074-3.208 0-4.779-.15-3.182.149-6.483 0-9.752-.11-2.447-.049-4.895-.049-7.412 0-.734-.149-1.559.195-2.243.062-.067.212-.048.341-.049 6.235-.05 12.631-.049 18.919-.049 2.064 0 4.129-.118 6.143.147z"/></g></svg>