<svg enable-background="new 0 0 74.915 43.591" viewBox="0 0 74.915 43.591" xmlns="http://www.w3.org/2000/svg"><g clip-rule="evenodd" fill-rule="evenodd"><path d="m44.466.169c.28 3.455-.092 7.561.188 11.017 1.169.279 2.402.099 3.61.14 3.67.127 7.535-.205 11.298-.046 5.011.211 10.123-.102 15.191.094.246.901.141 1.935.141 2.954 0 2.991.062 6.358-.094 9.001-1.484.277-3.076.094-4.642.094-4.431 0-9.313-.038-13.877.094-.155 1.565-.141 3.215-.141 4.876 0 4.843.131 10.101-.094 15.049-9.37.195-18.654.094-27.988.094-9.19 0-18.581.176-27.942-.094-.161-10.432-.146-21.934 0-32.02 9.969-.282 20.538.108 30.005-.234.229-.794.141-1.72.141-2.625 0-2.705-.075-5.801.094-8.392 2.864-.072 5.846-.234 8.814-.141 1.785.054 3.587-.157 5.296.139zm-6.798 2.484c-1.576 0-3.368-.036-4.547.047-.383.335-.235.94-.235 1.407 0 1.698-.03 3.33-.047 4.875-.008.792-.077 1.601.141 2.25 2.654.14 6.039.121 8.815-.046.25-.61.141-1.358.141-2.063-.001-2.052.09-4.255-.094-6.329-1.178-.251-2.671-.141-4.174-.141zm1.688 11.299c-2.135 0-4.398-.085-6.376.094-.286 4.284-.073 8.996-.141 13.408-.066 4.381-.104 8.897.047 13.315.656.283 1.416.114 2.157.093 2.152-.06 4.578.188 6.751-.093.253-1.041.141-2.149.141-3.235-.002-7.799.08-15.734-.094-23.44-.735-.304-1.628-.142-2.485-.142zm5.344.094c-.253 1.035-.141 2.155-.141 3.235-.001 7.837-.079 15.998.094 23.488.653.253 1.39.127 2.109.093 2.359-.111 4.514.206 6.658-.093.186-3.086.158-6.601.14-9.94-.009-1.683.006-3.361 0-5.016-.005-1.673-.176-3.341.095-4.922 5.855-.307 12.496.109 18.424-.188.253-.993.153-2.185.141-3.282-.013-1.135.16-2.355-.141-3.375-9.385-.144-18.33-.209-27.379 0zm-34.505-.094c-2.418 0-5.382-.104-7.454.141-.156 8.718-.156 18.053 0 26.723 1.993.228 4.216.094 6.517.094 6.89 0 14.332.105 20.769-.141.21-.961.141-2.181.141-3.376 0-1.215.075-2.456-.094-3.516-.62-.295-1.337-.171-2.016-.141-5.241.23-10.869-.097-15.893-.094-.183-.593-.253-1.907 0-2.485 4.308-.171 9.085-.094 13.502-.094 1.5 0 3.005.107 4.407-.141.187-4.776.14-9.767.141-14.815 0-.682.105-1.421-.141-2.062-6.345-.17-13.338-.093-19.879-.093z"/><path d="m21.025 20.891c.181.626.097 1.734.048 2.438-1.654.298-3.6.102-5.438.094-1.062-.005-2.424.066-3.47-.047-.287-.626-.095-1.816-.047-2.438.106-.081.262-.113.469-.094 2.67.014 5.858-.118 8.438.047z"/></g></svg>