<svg enable-background="new 0 0 69.597 79.982" viewBox="0 0 69.597 79.982" xmlns="http://www.w3.org/2000/svg"><g clip-rule="evenodd" fill-rule="evenodd"><path d="m34.714.008c.618-.104 1.726.809 2.353 1.151.799.437 1.504.846 2.153 1.252 1.477.924 2.968 1.711 4.307 2.554 2.884 1.818 5.881 3.305 8.664 5.008 2.793 1.709 5.464 3.224 8.663 5.058 2.305 1.321 5.161 2.911 7.612 4.357.322.19.956.45.951.751-.005.33-.914.705-1.352.951-1.153.647-1.855 1.032-2.955 1.653-.451.254-1.043.736-1.502.751-.555.018-1.481-.693-2.103-1.052-7.195-4.153-14.685-8.406-21.784-12.569-2.622-1.538-5.354-2.998-7.912-4.557-.229-.14-.523-.515-.801-.701-.264-.177-.677-.339-1.002-.551-.275-.179-.805-.453-.801-.701.004-.288.899-.75 1.252-.952 1.009-.578 1.823-1.117 2.754-1.652.445-.256 1.027-.671 1.503-.751z"/><path d="m57.699 26.749c-.684.8-1.807 1.19-2.754 1.753-.936.557-1.847 1.191-2.904 1.552-.83-.234-1.564-.702-2.304-1.102-2.164-1.171-4.293-2.501-6.41-3.806-2.771-1.708-5.7-3.259-8.664-4.958-2.784-1.596-5.557-3.462-8.513-5.108-1.991-1.108-4.293-2.459-6.46-3.756-.454-.271-2.016-1-2.053-1.352-.04-.37.822-.791 1.202-1.002.568-.315 1.014-.528 1.402-.751 1.101-.634 1.889-1.194 2.804-1.552.615-.241 1.822.711 2.504 1.102 1.508.864 2.852 1.671 4.307 2.504.729.418 1.391.873 2.103 1.302 2.894 1.742 5.832 3.425 8.613 5.008 1.457.829 2.858 1.735 4.307 2.554 1.458.824 2.942 1.612 4.357 2.454 2.146 1.276 4.212 2.581 6.41 3.806.703.392 1.521.704 2.053 1.352z"/><path d="m11.478 13.279c.674-.12 1.696.702 2.404 1.102 5.138 2.898 10.093 5.76 15.124 8.713 1.36.799 2.795 1.774 4.256 2.604 2.096 1.19 4.163 2.452 6.46 3.756 1.818 1.031 3.456 2.096 5.309 3.205.32.191.957.441.951.752-.005.282-.828.712-1.252.951-1.117.63-1.707.868-2.804 1.553-.39.243-1.038.7-1.452.701-.528.001-1.647-.803-2.254-1.151-5.206-2.988-9.801-5.717-15.023-8.814-4.876-2.892-9.963-5.818-15.074-8.764-.477-.275-1.997-.987-2.003-1.402-.006-.386.826-.67 1.252-.901.522-.282.975-.53 1.352-.751.979-.574 1.818-1.276 2.654-1.552.029-.012.069.003.1-.002z"/><path d="m.26 20.039c1.17.504 2.865 1.496 4.207 2.304.441.266 1.109.593 1.252.901.212.46.1 1.568.1 2.454v27.493c0 1.705.01 3.374-.05 4.958-.06 1.586.219 3.103-.1 4.507-.562.009-1.031-.385-1.502-.651-.466-.263-.944-.537-1.402-.801-.939-.541-1.971-1.007-2.704-1.753-.077-10.987-.083-23.684 0-34.454.012-1.572-.151-3.55.05-4.808.027-.072.077-.122.149-.15z"/><path d="m11.928 26.9c.847.234 1.984.975 2.804 1.452.389.226.834.521 1.302.801.44.263 1.117.515 1.252.852.189.473.05 1.593.05 2.454 0 8.843.048 18.215 0 27.142-.017 3.23.125 6.58-.15 9.615-.542.039-1.007-.343-1.452-.601-.9-.521-1.705-1.039-2.705-1.603-.432-.244-1.106-.484-1.252-.851-.179-.454-.05-1.524-.05-2.404 0-11.466 0-22.811 0-34.353 0-.796-.067-1.942.1-2.354-.001-.086.038-.13.101-.15z"/><path d="m69.518 33.86c-.558.602-1.332.93-2.053 1.302-5.048 2.607-9.939 5.735-14.973 8.414-4.306 2.291-8.472 4.898-12.72 7.311-.715.407-1.44.79-2.153 1.202-.678.391-1.354.914-2.153 1.051-.369-.322-.25-.953-.25-1.452 0-1.554-.046-3.425.1-4.908.507-.643 1.302-.986 2.004-1.352 2.149-1.121 4.201-2.369 6.309-3.605 5.535-3.246 11.413-6.302 16.977-9.565 1.388-.814 2.789-1.616 4.207-2.404 1.402-.779 2.763-1.688 4.207-2.404.614-.304.575.7.551 1.402-.054 1.48.049 3.937-.053 5.008z"/><path d="m23.496 33.61c1.945.993 3.819 2.057 5.559 3.255.143 3.119.101 6.333.101 9.615 0 9.078-.05 18.24-.05 27.393 0 .767.12 1.576-.15 2.304-1.021-.31-1.924-.929-2.955-1.553-.405-.245-.908-.556-1.402-.852-.458-.273-1.152-.505-1.302-.901-.181-.478-.05-1.552-.05-2.454 0-11.434 0-22.682 0-34.303 0-.777-.073-2.011.1-2.404.036-.047.09-.075.149-.1z"/><path d="m69.318 40.671c.386.311.263.971.251 1.503-.036 1.501.105 3.484-.1 5.008-.5.683-1.345.923-2.053 1.302-2.109 1.129-4.21 2.507-6.36 3.706-4.306 2.4-8.472 4.912-12.77 7.361-3.552 2.023-7.07 4.063-10.667 6.109-.688.391-1.446.856-2.254.952-.266-.909-.15-2.075-.15-3.205 0-1.137-.039-2.294.05-3.305 1.293-.982 2.787-1.664 4.207-2.454 7.065-3.933 13.835-8.274 21.133-12.168 2.051-1.095 4.277-2.435 6.36-3.656.775-.456 1.667-.961 2.353-1.153z"/><path d="m69.217 54.042h.1c.388.332.251.961.251 1.502 0 1.583-.054 3.555-.1 5.158-1.334.954-2.84 1.654-4.257 2.454-2.835 1.599-5.695 3.174-8.563 4.808-5.619 3.201-11.316 6.517-16.977 9.765-.698.4-1.389.874-2.103 1.252-.709.375-1.398.859-2.203 1.001-.307-1.804-.123-4.411-.1-6.41.436-.707 1.266-1.035 1.953-1.402 4.976-2.659 9.757-5.82 14.823-8.463 2.854-1.489 5.638-3.23 8.513-4.807 1.408-.773 2.846-1.587 4.257-2.404 1.461-.846 2.926-1.721 4.406-2.454z"/></g></svg>