<svg enable-background="new 0 0 72.966 74.313" viewBox="0 0 72.966 74.313" xmlns="http://www.w3.org/2000/svg"><g clip-rule="evenodd" fill-rule="evenodd"><path d="m72.727.089c.231.68.176 1.439.196 2.153.059 2.118.056 4.521 0 6.849-.182 7.628-.049 15.188-.049 22.943v2.299c0 .697.113 1.476-.147 2.152-1.523.161-3.711.164-5.234 0-.021-.043-.043-.087-.098-.098-.071-10.111.137-20.723-.098-30.771-5.151-.303-10.333-.098-15.507-.097-15.753.001-30.673-.225-46.278.049-.3 1.262-.098 2.563-.147 3.865-.188 5.01.15 10.396-.049 15.703-.136 3.62 0 7.739 0 11.692-.001 10.605-.081 21.277.098 31.749 1.189.331 2.448.127 3.669.146 8.726.139 18.124.001 27.101 0 10.362-.001 20.813.144 31.015 0 .256-.905.196-1.901.196-2.886 0-7.111-.047-14.102.049-21.623.043-.021.087-.043.098-.098.808-.086 1.76-.049 2.69-.049.908 0 1.85-.11 2.544.147.164 9.714.16 20.301 0 29.939-2.8.243-5.704.098-8.659.098-9.125-.001-18.412.14-27.542 0-12.279-.188-24.603.17-36.495-.147-.148-9.125-.048-18.204-.048-27.542-.001-14.801-.003-30.72 0-46.278.085-.062.061-.232.196-.244 24.114-.074 48.663-.038 72.499.049z"/><path d="m66.221 31.202c.162 1.541.161 3.742 0 5.283-5.617.102-11.56.149-17.562 0-.163-1.54-.161-3.743 0-5.283 5.755-.127 11.959-.229 17.562 0z"/><path d="m72.776 37.757c.162 1.506.162 3.68 0 5.185-3.868.304-7.979.098-12.083.098-4.071 0-8.188.176-12.034-.098-.157-.762-.147-1.734-.146-2.69 0-.92-.065-1.901.195-2.593 5.877.07 12.317-.283 18.247 0 1.977.095 3.954-.289 5.821.098z"/></g></svg>