<svg enable-background="new 0 0 15.251 15.038" viewBox="0 0 15.251 15.038" xmlns="http://www.w3.org/2000/svg"><path d="m0 0c1.171.016 2.342.002 3.513.007 3.912.001 7.824-.002 11.737.002-.001 5.01-.003 10.019.001 15.029-5.083 0-10.167-.001-15.251 0 .001-5.013.001-10.026 0-15.038zm6.495 1.83c-.994.191-1.936.643-2.704 1.302-.163.163-.362.29-.495.482-.643.681-1.106 1.528-1.351 2.432-.25.939-.254 1.941-.016 2.883.224.88.666 1.701 1.261 2.384.184.187.369.373.558.555.644.55 1.401.971 2.215 1.207 1.146.335 2.393.311 3.525-.065 1.077-.356 2.046-1.031 2.749-1.92.111-.156.261-.297.314-.485-.428-.145-.858-.284-1.289-.417-.096.103-.182.214-.27.322-.474.513-1.066.921-1.718 1.172-1.081.421-2.322.406-3.396-.033-1.006-.414-1.857-1.201-2.335-2.18 1.108-.337 2.259-.533 3.414-.582.599-.065 1.203-.019 1.802.016 1.443.106 2.876.421 4.22.963.326-.718.513-1.509.493-2.298.048-1.408-.508-2.806-1.434-3.857-.185-.187-.37-.372-.558-.556-.456-.377-.953-.714-1.502-.942-1.086-.479-2.319-.605-3.483-.383z"/><path d="m7.067 3.078c.179-.007.356-.039.534-.045.727.024 1.461.17 2.107.516 1.395.702 2.381 2.181 2.431 3.75-.012.288.033.582-.048.862-2.905-.841-6.045-.82-8.943.041-.211-1.276.183-2.635 1.042-3.603.154-.158.308-.316.469-.466.676-.578 1.525-.951 2.408-1.055z"/></svg>