<svg enable-background="new 0 0 81.715 17.044" viewBox="0 0 81.715 17.044" xmlns="http://www.w3.org/2000/svg"><path clip-rule="evenodd" d="m33.183 5.388c.055 1.463 1.873 1.283 3.252 1.283 3.078-.001 5.977.082 8.746-.046 1.77-.082 3.451-.142 4.625.32 1.793.706 3.439 2.69 3.252 5.267-.088 1.206-.557 2.265-1.236 3.022-.588.654-1.568 1.405-2.611 1.603-.785.149-1.762.046-2.701.046-11.883.003-23.451.006-35.445.137-1.76.02-3.748.104-5.221-.229-1.783-.402-3.455-1.829-4.35-3.159-.941-1.4-1.744-3.564-1.42-5.954.52-3.831 3.41-7.161 7.51-7.464.954-.071 1.925.066 2.884.046 2.81-.059 5.988-.144 8.84-.092 1.123.021 2.367.088 3.481.412 1.957.57 3.564 2.375 3.662 4.533.113 2.447-.955 4.406-2.977 5.175-1.963.748-5.164.504-7.83.504-1.365 0-2.787 0-4.213 0-1.355 0-3.256.129-4.305-.366-.459-.217-.951-.586-1.283-1.236-.186-.365-.535-1.596-.137-2.107.434-.557 3.225-.234 4.121-.229 3.146.018 5.611-.046 8.656-.046 1.455.001 3.076.118 3.113-1.282 0-.092 0-.183 0-.274-.324-1.006-1.555-.87-2.656-.87-2.33 0-4.6.045-7.006.046-1.197 0-2.424-.134-3.436.046-1.98.352-3.453 1.778-3.617 3.983-.168 2.254 1.115 3.918 2.977 4.534 1.303.431 3.162.32 5.037.32 10.453.002 20.963-.037 31.369-.092 1.512-.008 3.979.354 4.121-1.191.084-1.618-1.83-1.281-3.572-1.282-3.193-.001-6.234.034-9.432 0-1.443-.015-2.971-.128-4.076-.596-1.385-.584-2.697-2.062-3.024-3.479-.443-1.93.293-3.618 1.375-4.809 1.6-2.036 4.99-1.695 7.967-1.694 7.867.001 15.949-.091 24.088-.092 3.234 0 5.994-.136 9.205-.046 1.273.035 2.627-.095 3.939.046 1.58.17 2.972 1.028 4.031 1.924 1.959 1.658 3.518 5.126 2.518 8.7-.996 3.562-4.156 6.137-8.701 6.137-2.887 0-5.666 0-8.883 0-1.848 0-4.164.233-5.68-.229-1.836-.561-3.391-2.698-3.205-5.221.152-2.046 1.555-4.132 3.709-4.671.998-.25 2.502-.138 3.756-.138h7.693c1.227 0 2.824-.144 3.848.138.533.147 1.18.64 1.557 1.281.314.539.619 1.709.182 2.29-.469.627-3.047.295-4.121.32-2.84.069-5.551.046-8.471.046-1.316 0-3.516-.256-3.344 1.237.125 1.076 1.275 1.055 2.885 1.007 1.242-.037 2.701-.011 3.709-.046 1.244-.043 2.555-.052 3.711 0 1.23.057 2.553.134 3.525-.138 1.764-.491 2.832-1.829 3.113-3.571.332-2.044-.859-4.197-2.701-4.763-.611-.188-1.535-.119-2.428-.138-2.484-.05-5.592-.012-7.785 0-9.777.052-18.858.139-28.805.138-1.039.002-1.729.154-1.785 1.009z" fill-rule="evenodd"/></svg>