<svg enable-background="new 0 0 78.766 80.587" viewBox="0 0 78.766 80.587" xmlns="http://www.w3.org/2000/svg"><path clip-rule="evenodd" d="m77.484 30.707c-.891.266-1.906.15-2.951.15-2.074 0-3.953.001-6.201 0-.877 0-2.395.224-3-.05-.398-.18-.809-1.636-1.049-2.15-2.373-5.084-5.775-9.079-10.352-11.952-2.43-1.524-5.531-3.014-9.053-3.7-3.547-.692-7.977-.857-11.602.05-7.008 1.754-11.748 4.913-15.652 9.852-3.684 4.659-6.451 10.825-5.902 19.353.492 7.615 3.92 13.339 7.953 17.553 2.047 2.139 4.557 3.86 7.4 5.35 2.832 1.484 6.164 2.557 9.902 2.851 8.312.653 14.742-2.256 19.402-5.901 4.111-3.216 7.254-7.644 9.051-13.252.248-.771.682-1.589.5-2.45-.801-.258-1.729-.158-2.65-.2-2.805-.127-5.859-.015-8.6 0-.67.677-.924 1.592-1.352 2.351-1.303 2.313-3.1 4.221-5.35 5.701-2.932 1.928-7.211 3.108-11.902 2.25-3.896-.712-7.051-2.893-9.201-5.551-2.197-2.715-4.002-6.058-4.002-10.752 0-4.64 1.676-8.148 3.951-10.802 2.121-2.473 5.297-4.837 9.252-5.5 8.477-1.422 14.201 2.866 17.252 7.951.453.753.77 1.576 1.301 2.35 7.477.361 15.762.039 23.553.3.492 1.008.426 2.194.502 3.3.25 3.665-.105 7.272-.701 10.502-.781 4.236-2.373 7.925-4 11.152-.441.875-.803 1.712-1.301 2.5-3.34 5.29-7.973 9.961-13.451 13.102-6.211 3.56-14.863 6.526-24.555 5.201-8.883-1.215-15.508-4.637-21.004-9.352-5.465-4.65-9.572-10.68-11.902-18.453-1.467-4.899-2.209-11.107-1.5-17.003 1.471-12.23 6.941-20.9 14.652-27.054 1.361-1.086 2.965-2.035 4.602-3.001 4.621-2.726 10.479-5.025 17.352-5.351 11.951-.565 20.455 3.551 26.955 8.751 3.34 2.673 6.111 5.767 8.502 9.352 1.182 1.771 2.139 3.79 3.051 5.851.447 1.014.904 2.103 1.25 3.201.352 1.121.809 2.277.85 3.5z" fill-rule="evenodd"/></svg>