<svg enable-background="new 0 0 81.495 81.933" viewBox="0 0 81.495 81.933" xmlns="http://www.w3.org/2000/svg"><g clip-rule="evenodd" fill-rule="evenodd"><path d="m39.481.039c6.493-.309 12.555 1.236 17.234 3.203 2.396 1.006 4.622 2.233 6.61 3.609 2.007 1.39 3.933 2.967 5.592 4.627 3.502 3.501 6.404 7.156 8.592 11.846 2.174 4.659 3.764 10.022 3.966 16.472.209 6.658-1.219 12.3-3.203 17.133-1.964 4.783-4.833 9.003-8.134 12.303-3.456 3.455-7.153 6.539-11.745 8.694-4.635 2.176-9.804 3.665-16.421 3.965-6.619.3-12.44-1.107-17.184-3.152-4.791-2.064-8.77-4.992-12.202-8.236-6.856-6.481-12.101-15.591-12.557-28.215-.361-9.988 2.709-17.918 6.711-23.844 1.361-2.016 2.857-3.925 4.576-5.643 1.716-1.716 3.426-3.446 5.389-4.83 3.906-2.753 8.271-5.265 13.777-6.66 2.788-.707 5.814-1.12 8.999-1.272zm36.656 48.452c.852-3.986.957-8.311.458-12.405-.481-3.941-1.715-7.457-3.102-10.524-1.354-2.992-3.206-5.821-5.339-8.236-2.161-2.448-4.364-4.613-7.168-6.457-2.725-1.792-5.618-3.358-9.1-4.474-3.391-1.088-7.499-1.985-11.846-1.78-1.852.087-3.646.28-5.288.559-4.033.686-7.569 1.944-10.574 3.559-5.501 2.955-10.057 6.949-13.473 12.049-3.084 4.604-5.269 10.016-5.999 16.675-.798 7.276.919 13.819 3.304 19.066 2.197 4.834 5.842 9.328 9.965 12.659 4.264 3.444 9.351 6.197 15.253 7.423 3.343.695 7 .864 10.422.61 3.396-.252 6.567-1.062 9.304-2.034 5.595-1.986 9.962-4.975 13.728-8.948 4.373-4.594 7.887-10.402 9.455-17.742z"/><path d="m56.869 18.494c.11 5.151.294 10.979 0 16.065-8.162.273-17.411-.065-25.318.204-.194.693-.107 1.919-.051 2.694.966.302 2.023.204 3.05.204 7.195 0 15.151-.19 22.319.051.356 1.771-.064 4.126.254 5.999 2.725.275 6.066-.067 8.745.254.032.649-.468 1.138-.712 1.678-.521 1.151-1.079 2.384-1.729 3.609-.206.388-.602.862-.61 1.169-.015.505.701 1.498.966 1.983.35.643.786 1.268 1.067 1.881.206.447.293.919.509 1.321.206.383.614.731.509 1.221-2.54.237-5.962-.148-8.694.152-.273.889-.152 2.056-.152 3.203 0 1.115.077 2.273-.102 3.203-1.279.275-2.635.153-3.966.153-9.478 0-19.182.111-28.369-.102-.168-5.079-.169-10.883 0-16.015.986-.27 2.058-.152 3.102-.152 7.298-.001 15.309.079 22.218-.102.239-.615.204-1.906.05-2.593-.919-.265-1.948-.203-2.948-.203-7.326-.001-15.156.173-22.421-.051-.297-1.771.094-4.229-.203-6-.619-.27-1.398-.152-2.135-.152-2.17 0-4.667.068-6.66-.152.081-.671.443-1.196.712-1.729.526-1.048 1.056-2.042 1.677-3.203.252-.469.804-1.158.813-1.627.01-.422-.518-1.236-.762-1.678-.315-.567-.63-1.087-.864-1.525-.598-1.115-1.287-2.013-1.576-3.101.549-.384 1.32-.179 2.033-.152 2.134.08 4.634-.004 6.66-.102.277-.865.182-1.959.203-3.05.021-1.101-.098-2.264.102-3.254 1.281-.277 2.622-.152 3.966-.152h8.236c6.668 0 13.617-.124 20.081.051zm-9.711 6.508c-5.068 0-10.48-.09-15.607.102-.208.657-.213 1.93 0 2.694 6.047.169 12.766.169 18.76 0 .166-.666.166-1.978 0-2.643-.992-.275-2.073-.153-3.153-.153zm-1.932 28.928c-4.641.034-9.578-.003-14.083.153-.136.692-.22 2.084.051 2.694 6.05.199 12.856.123 18.71 0 .268-.606.185-1.956.05-2.644-1.463-.206-3.147-.214-4.728-.203z"/></g></svg>