<svg enable-background="new 0 0 84.772 40.796" viewBox="0 0 84.772 40.796" xmlns="http://www.w3.org/2000/svg"><g clip-rule="evenodd" fill-rule="evenodd"><path d="m40.252.206c.156 3.461.166 7.092 0 10.55-.948.277-1.949.154-2.919.154-5.919 0-11.601 0-17.873 0-.999 0-2.225.188-2.971-.051-.393-.125-.528-.523-.768-.819-.985-1.217-3.097-2.133-5.121-1.23-1.92.856-3.296 3.431-2.202 5.838.956 2.103 3.928 3.414 6.299 1.844.27-.179.65-.516.921-.819.229-.257.556-.772.871-.871.729-.227 1.962-.051 2.971-.051 7.016 0 13.988-.145 20.741.154.202 3.558.199 7.458 0 11.062-7.919.222-15.66-.006-23.763.102-.87-.845-1.233-1.519-2.202-1.997-1.225-.604-3.006-.407-3.892.051-1.326.686-2.33 2.02-2.355 3.79-.044 3.124 3.272 5.576 6.504 3.841.337-.181.732-.552 1.024-.87.204-.223.56-.879.921-.973.791-.206 2.001 0 2.971 0h17.924c.958 0 1.966-.125 2.868.153.186 1.61.103 3.47.103 5.275 0 1.821.122 3.667-.153 5.224-12.644.091-26.728.13-40.048-.051-.19-13.182-.08-27.02.051-40.305 9.531-.221 19.139-.173 28.781-.205 3.749-.013 7.583.05 11.317.204z"/><path d="m84.654.36c.208 13.24.111 27.076-.051 40.304-3.261.151-7.318.219-10.498-.051-.278-7.77.033-15.839-.051-23.763.68-.684 1.512-1.219 1.997-2.1 1.782-3.967-2.356-7.891-6.043-5.838-2.028 1.129-3.051 4.057-1.434 6.401.439.636 1.051.917 1.587 1.536.03 6.566 0 13.903 0 20.946 0 .963.119 1.956-.153 2.868-2.653.093-5.593.051-8.399.051-.913 0-1.859.116-2.663-.154-.243-8.06.047-15.384-.051-23.712.662-.731 1.319-1.042 1.793-1.792.749-1.187.774-3.13.103-4.405-.97-1.84-3.709-3.07-6.044-1.69-1.82 1.077-2.815 4.048-1.434 6.197.184.287.532.62.819.871.243.212.752.48.871.819.228.654.051 2.045.051 2.971 0 6.819-.014 14.251-.154 20.792-1.611.186-3.47.103-5.275.103-1.822 0-3.665.121-5.224-.154-.188-5.424-.103-11.091-.103-16.695 0-.381.022-.756.051-1.127.027-.342.141-.686.154-1.024.014-.364-.115-.75-.102-1.178.036-1.216-.054-2.558-.103-3.943-.127-3.652.051-7.031.051-10.96 0-.834 0-1.741 0-2.766 0-.833-.101-2.246.154-2.612.037-.048.093-.078.154-.103 13.271.072 26.586-.078 39.997.208z"/></g></svg>