<svg enable-background="new 0 0 15.887 12.394" viewBox="0 0 15.887 12.394" xmlns="http://www.w3.org/2000/svg"><path d="m3.534 0c2.936.001 5.871 0 8.807 0-.014 1.186-.002 2.373-.007 3.559 1.182-.013 2.365-.009 3.547-.002.002.589.002 1.178 0 1.768-1.181.005-2.363.008-3.545-.001-.002.58.003 1.161-.002 1.741h3.553c-.009.604.002 1.208-.006 1.812-1.182.005-2.363.006-3.545-.001-.001 1.172 0 2.343 0 3.515-2.934.003-5.867 0-8.801.002.005-1.776-.002-3.552.004-5.328-1.181.004-2.36-.006-3.539.006.003-.588.002-1.177 0-1.765 1.18.011 2.359-.007 3.538.009-.006-1.772.001-3.544-.004-5.315zm1.777 1.772c-.001 2.948 0 5.896-.001 8.845 1.749.002 3.499 0 5.248 0-.001-.58 0-1.161 0-1.742-1.184.013-2.369.002-3.553.006 0-.606 0-1.211 0-1.816h3.551c0-.58-.001-1.161 0-1.741-1.183.011-2.367.002-3.551.005 0-.592 0-1.184 0-1.776 1.185.005 2.369-.009 3.553.008 0-.597-.001-1.194 0-1.79-.323.012-.646.004-.969.006-1.426-.003-2.853.005-4.278-.005z"/></svg>