<svg enable-background="new 0 0 77.787 78.8" viewBox="0 0 77.787 78.8" xmlns="http://www.w3.org/2000/svg"><path clip-rule="evenodd" d="m38.851 33.941c.377-.541.377-1.209.488-1.805.812-4.346 2.375-8.207 4.242-11.654 2.12-3.914 4.799-7.344 7.997-10.144 3.189-2.791 6.723-5.277 11.021-7.119 4.242-1.816 9.249-3.039 15.067-2.877.16.764.16 2.162 0 2.926-11.27.416-19.208 4.578-25.112 10.484-2.885 2.885-5.513 6.363-7.363 10.435-1.851 4.072-3.316 8.834-3.219 14.385.645.309 1.4.201 2.097.195 5.047-.043 10.668.051 15.8.049 5.353 0 10.484.049 15.8.049.666 0 1.424-.121 2.048.195.08.33.078.852-.049 1.121-11.765.207-23.868-.145-35.646.049-.291 1.305-.051 2.756.146 4.049 1.002 6.557 3.125 11.643 6.339 16.043 1.275 1.744 2.578 3.426 4.048 4.875 5.588 5.516 12.736 9.711 23.163 10.436.622.045 1.325-.049 1.95.244.221.816.046 2.01 0 2.877-2.908.188-5.655-.223-8.143-.779-7.411-1.656-13.162-5.016-17.897-9.363-5.404-5.078-9.894-11.445-11.85-19.992-.272-1.193-.47-2.432-.878-3.658-.436 1.232-.602 2.488-.877 3.707-1.903 8.391-6.444 14.904-11.851 19.894-3.049 2.816-6.821 5.281-11.069 7.07-2.118.895-4.441 1.646-6.925 2.146-2.508.504-5.23.959-8.095.684-.084-.955-.091-1.939 0-2.879 1.436-.228 2.82-.189 4.146-.34 8.969-1.02 15.917-5.092 20.969-10.145 5.846-5.846 10.399-13.633 10.68-24.82-1.448-.266-2.954-.146-4.438-.146-9.806 0-19.37-.098-29.307-.098-.684 0-1.403.066-2.049-.193-.073-.352-.071-.828.049-1.123 11.563-.283 23.862.236 35.745-.098.161-2.805-.403-5.402-.976-7.801-1.698-7.125-5.252-12.762-9.655-17.166-2.937-2.936-6.464-5.471-10.533-7.363-3.091-1.438-6.558-2.434-10.534-2.926-1.301-.16-2.664-.074-4.048-.391-.099-.771-.301-2.429.146-2.974 5.695.098 11.083 1.248 15.117 3.121 12.341 5.732 20.704 15.69 23.456 30.82z" fill-rule="evenodd"/></svg>