<svg enable-background="new 0 0 74.312 74.304" viewBox="0 0 74.312 74.304" xmlns="http://www.w3.org/2000/svg"><path clip-rule="evenodd" d="m74.145 37.554c-.615.252-1.32.143-1.952.143-18.658.002-37.098-.139-55.716-.143-2.094 0-4.19.047-6.238.047-.635 0-1.302-.111-1.905.144-.2 1.064-.058 2.186.095 3.189 1.082 7.092 4.115 12.307 8.238 16.43 4.508 4.508 10.959 8.234 19.572 8.619 9.044.404 15.973-3.225 20.62-7.525 4.207-3.891 7.511-9.115 8.714-15.951.169-.957.081-2.018.572-2.953 1.81-.172 4.104-.096 6.143-.096.665 0 1.364-.129 1.857.191.14 1.02-.107 2.029-.238 3-.931 6.914-3.557 12.397-6.953 16.857-3.495 4.604-7.629 8.158-13 10.857-4.987 2.508-11.919 4.568-19.763 3.762-7.013-.721-12.77-3.037-17.62-6.238-4.779-3.154-8.661-7.336-11.619-12.191-3.084-5.06-4.952-11.093-4.952-18.903 0-7.619 2.155-13.879 5.048-18.762 2.836-4.789 6.814-9.111 11.667-12.145 4.944-3.09 10.575-5.305 18-5.809 6.495-.443 12.203 1.074 16.572 2.855 4.635 1.891 8.451 4.498 11.62 7.668 4.924 4.926 8.5 10.566 10.477 18.477.321 1.285.563 2.658.714 4.096.147 1.407.373 2.932.047 4.381zm-8.286-2.619c-.16-1.801-.42-3.258-.81-4.715-1.566-5.863-4.432-10.4-8.143-14-2.56-2.297-5.403-4.365-8.905-5.811-3.451-1.422-7.609-2.514-12.476-2.285-4.124.195-8.073 1.291-11.191 2.857-4.623 2.324-8.456 5.514-11.191 9.619-2.336 3.508-3.975 7.586-4.714 12.668-.145.994-.356 2.094-.047 3.143 1.136.258 2.309.143 3.476.143 3.708 0 7.132.033 10.667.047 13.241.058 26.478.047 39.763.049 1.18 0 2.373.115 3.524-.143.238-.496.093-1.058.047-1.572z" fill-rule="evenodd"/></svg>