<svg enable-background="new 0 0 18.8 18.61" viewBox="0 0 18.8 18.61" xmlns="http://www.w3.org/2000/svg"><path d="m8.012.089c.632-.115 1.276-.085 1.916-.088 2.134.113 4.231.973 5.804 2.425.236.192.456.408.646.647 1.429 1.546 2.292 3.608 2.395 5.71.075.632-.021 1.266-.078 1.894-2.631-.004-5.262.003-7.894-.003-.002 1.412-.003 2.824 0 4.235-.932.007-1.865.009-2.797-.002.002-3.737.003-7.475-.001-11.212.933-.002 1.865-.003 2.798 0-.005 1.411.001 2.823-.003 4.234 1.662.003 3.324.001 4.987.001-.262-1.269-.945-2.44-1.882-3.329-1.11-1.051-2.601-1.702-4.131-1.772-1.785-.114-3.615.546-4.895 1.799-.945.875-1.591 2.052-1.874 3.304 1.343-.004 2.687.008 4.03-.006-.001.919.004 1.837-.003 2.755-1.342-.012-2.684.001-4.025-.006.304 1.37 1.062 2.635 2.133 3.541.979.829 2.201 1.372 3.477 1.52.979.108 1.987.018 2.922-.31 1.699-.578 3.137-1.882 3.851-3.532.041-.102.087-.201.131-.302.997.012 1.995.005 2.993.003-.402 1.501-1.156 2.915-2.234 4.038-.175.256-.447.413-.654.639-1.278 1.126-2.87 1.895-4.549 2.188-1.394.251-2.842.182-4.209-.192-1.439-.396-2.774-1.147-3.874-2.154-.866-.806-1.587-1.775-2.094-2.847-.642-1.331-.928-2.82-.897-4.293.049-.725.138-1.451.34-2.151.429-1.563 1.29-3.001 2.441-4.14 1.413-1.384 3.269-2.315 5.23-2.594z"/></svg>