<svg enable-background="new 0 0 14.584 12.498" viewBox="0 0 14.584 12.498" xmlns="http://www.w3.org/2000/svg"><path d="m5.703 0c1.634 2.769 3.289 5.525 4.924 8.293.376-.006.752.002 1.128-.005-1.633-2.761-3.282-5.514-4.916-8.276.646-.008 1.291.001 1.936-.005.732 1.272 1.488 2.531 2.227 3.799 1.194 2.031 2.393 4.058 3.582 6.092-3.182-.006-6.365-.001-9.547-.002-.168.331-.378.639-.552.967 3.181.007 6.362 0 9.542.003-.283.504-.572 1.003-.857 1.506-.028.04-.041.096-.088.119-3.669 0-7.339 0-11.008 0-.154 0-.309-.003-.463.007 1.462-2.543 2.928-5.085 4.391-7.628.097-.167.19-.337.294-.499-.2-.31-.39-.628-.588-.941-.809 1.37-1.589 2.756-2.387 4.132-.621 1.082-1.242 2.164-1.866 3.245-.134.248-.291.483-.411.739-.351-.566-.692-1.136-1.044-1.701.006-.03.017-.057.033-.084 1.889-3.253 3.784-6.505 5.67-9.761zm1.61 6.007c-.437.766-.889 1.523-1.329 2.286.914-.006 1.828-.003 2.743-.002-.467-.764-.951-1.518-1.414-2.284z"/></svg>