<svg enable-background="new 0 0 16.776 10.938" viewBox="0 0 16.776 10.938" xmlns="http://www.w3.org/2000/svg"><path d="m.002.004c2.394.007 4.788.001 7.183.003 1.276-.005 2.552.009 3.828-.007-.001 1.055 0 2.11 0 3.165 1.921-.013 3.843.002 5.764-.008-.002.515.001 1.03-.002 1.545-1.921.003-3.842 0-5.762.002v1.523c1.919-.024 3.84.003 5.76-.013.007.517.002 1.034.003 1.551-1.921-.009-3.842.007-5.763-.008.002 1.061-.002 2.121.002 3.181-3.67-.003-7.341-.002-11.011-.001-.007-3.644-.003-7.288-.002-10.933zm1.632 1.622c.004 2.558.003 5.116 0 7.674 2.581-.006 5.163-.006 7.745 0-.003-.514 0-1.028-.002-1.541-1.92.012-3.842-.004-5.763.008.004-.518-.004-1.036.005-1.553 1.92.01 3.839.001 5.759.005.002-.505.001-1.009-.001-1.514-1.92-.004-3.841 0-5.761-.003-.003-.515.001-1.03-.002-1.544 1.922.006 3.843 0 5.764.003.001-.508 0-1.017 0-1.525-2.495.006-4.99 0-7.486.003-.086 0-.172-.003-.258-.013z"/></svg>