<svg enable-background="new 0 0 75.769 76.267" viewBox="0 0 75.769 76.267" xmlns="http://www.w3.org/2000/svg"><g clip-rule="evenodd" fill-rule="evenodd"><path d="m36.343.138c.09.703-.5 1.14-.744 1.786-.725 1.918-.876 4.27-1.438 6.397-2.229.522-4.233.82-6.051 1.587-1.768.745-3.291 1.734-4.811 2.777-1.457 1.001-2.735 2.263-3.818 3.769-1.084 1.509-2.153 3.02-2.776 4.811-1.008 2.892-.842 7.13-.1 9.869.549 2.027 1.758 3.894 2.926 5.505.382.525 1.053 1.258 1.041 1.735-.007.345-.345.725-.645 1.091-1.382 1.693-2.169 3.176-3.124 5.306-.373.831-.679 1.716-.744 2.628-.313 4.383.311 8.439 2.083 11.208 1.873 2.924 4.08 4.784 7.19 6.348.73.367 1.443.756 2.331 1.042 1.769.569 3.181 1.051 5.307 1.438.664.121 2.413.212 2.777.595.291.307.39 1.408.496 2.034.272 1.604.386 2.68.743 4.314.13.591.428 1.54.942 1.537.851-.004.918-2.977 1.042-3.769.082-.527.182-1.347.297-2.132.079-.537.143-1.715.396-1.984.293-.309 1.954-.424 2.48-.496 2.538-.344 4.827-1.072 6.844-1.934.742-.317 1.457-.553 2.082-.893 1.223-.663 2.315-1.489 3.621-2.231.665-.379 1.3-.604 1.686-1.24.262-.43.749-1.891 0-2.132-.49-.158-1.309.57-1.835.992-2.262 1.811-4.835 2.894-7.587 4.116-1.353.6-3.091.805-4.762 1.091-.776.133-1.622.593-2.38.149-.33-.819-.089-1.713-.05-2.579.081-1.792.184-3.602.248-5.405.125-3.499.189-6.956.297-10.812.021-.753 0-2.266.248-2.529.234-.248 1.253-.217 1.786-.298 1.845-.279 3.348-.805 4.959-1.289 1.741-.523 4.518-1.492 5.059-3.224.229-.737.004-1.41-.348-1.934-1.794-2.676-6.03-3.469-9.62-4.315-.515-.121-1.109-.083-1.488-.496-.134-6.494.101-12.806.1-19.341-.001-.851-.104-1.772.248-2.529.799-.061 1.61.13 2.38.248.78.12 1.529.271 2.231.545 2.781 1.085 5.278 2.006 7.538 3.571.531.368 1.084.793 1.587 1.19.519.41.945 1.017 1.637 1.141.481-.267.487-1.352.348-1.835-.149-.509-.92-1.087-1.438-1.439-.599-.405-1.161-.849-1.687-1.19-1.275-.828-2.442-1.399-3.769-1.984-.687-.302-1.286-.655-1.984-.893-2.095-.712-4.592-1.26-6.794-1.835-.412-2.018-.566-4.293-1.091-6.199-.192-.681-.809-1.201-.791-1.932 2.877-.045 5.728.331 8.183 1.041 4.908 1.421 9.006 3.442 12.646 6.1 1.81 1.321 3.396 2.751 5.009 4.364 3.121 3.121 5.507 6.887 7.438 11.356 1.931 4.466 3.073 9.622 3.075 15.671.002 7.384-2.266 13.557-5.009 18.498-.558 1.005-1.07 2.094-1.687 2.976-1.271 1.823-2.75 3.494-4.315 5.059-4.582 4.583-10.497 8.332-18.051 10.117-3.853.91-8.505 1.252-12.695.793-9.644-1.056-16.742-5.222-22.317-10.514-3.159-3-5.885-6.659-7.885-10.91-2.013-4.28-3.505-9.188-3.769-14.976-.288-6.306.927-11.546 2.728-16.068 1.808-4.54 4.366-8.202 7.29-11.456 2.91-3.239 6.442-6.047 10.662-8.133 4.091-2.023 9.027-3.837 14.778-3.967.269-.007.577-.132.844.098z"/><path d="m39.17 7.875c-.688.36-2.328.452-3.075.05.021-1.277 1.007-3.375 2.281-2.43.577.427.72 1.52.794 2.38z"/><path d="m39.17 10.503c.171 1.608-.717 3.936-2.381 2.777-.453-.527-.683-1.735-.446-2.628.684-.256 2.002-.36 2.827-.149z"/><path d="m33.864 10.702c.55.016.636.249.645 1.141.035 3.282-.001 6.718 0 9.819.001 3.275-.002 5.406.05 8.381.013.747.022 2.329-.198 2.628-.224.304-1.043.359-1.538.447-2.76.485-5.055 1.248-7.339 2.331-.352.167-.829.427-1.289.645-.486.23-.866.576-1.39.546-.558-.033-1.065-.767-1.388-1.141-.855-.994-1.399-1.865-1.983-3.075-.278-.576-.589-1.192-.744-1.735-.31-1.082-.402-2.278-.496-3.373-.323-3.765.839-6.423 2.578-8.827.415-.573.909-1.049 1.39-1.587.46-.516.836-1.103 1.388-1.587.608-.534 1.387-1.052 2.133-1.587.715-.513 1.568-.96 2.38-1.339 1.749-.816 3.493-1.455 5.703-1.686.03-.005.065-.002.098-.001z"/><path d="m34.558 34.902c.416.9.248 2.289.248 3.57 0 1.286.114 2.629-.148 3.62-1.22.156-2.254-.393-3.224-.645-.524-.136-1.089-.156-1.587-.297-.89-.253-1.677-.833-2.479-1.19-.658-.292-2.501-.771-2.479-1.686.015-.652 1.687-1.372 2.232-1.587 1.935-.763 4.315-1.488 6.894-1.785.104-.012.381-.084.543 0z"/><path d="m40.806 41.845c-.261-.932-.148-2.222-.148-3.422 0-1.197-.144-2.455.198-3.323 1.628-.213 3.21.282 4.711.744.927.285 1.867.428 2.529.694.812.326 2.124 1.231 2.033 2.232-.069.781-1.055 1.133-1.735 1.438-.823.369-1.599.561-2.331.793-1.617.513-3.428.941-5.257.844z"/><path d="m34.856 44.077c.245.546.118 1.305.148 1.934.228 4.768.353 9.787.545 14.58.035.86.05 1.722.05 2.579 0 .782.173 1.62-.099 2.38-1.882.117-3.756-.546-5.555-1.042-1.696-.467-3.445-1.168-4.761-1.983-.453-.281-.901-.704-1.389-1.042-1.394-.966-2.543-2.218-3.471-3.67-1.758-2.748-2.822-6.838-1.836-10.811.271-1.092.424-2.017.893-2.975.155-.318.438-.665.645-1.041.559-1.013 1.328-2.127 2.331-2.728.578-.325 1.751.497 2.48.892 1.614.876 3.029 1.207 4.909 1.934.944.366 2.052.591 2.876.694.829.105 1.368-.083 2.234.299z"/></g></svg>