<svg enable-background="new 0 0 74.392 75.101" viewBox="0 0 74.392 75.101" xmlns="http://www.w3.org/2000/svg"><path clip-rule="evenodd" d="m74.372 37.334c-12.294.149-25.086-.049-37.614-.05-4.171 0-8.325.029-12.387-.2.202-.531.963-.703 1.504-1.003 2.711-1.505 5.511-2.994 8.275-4.564 1.083-.615 2.12-1.312 3.21-1.906 4.428-2.412 8.87-4.831 13.089-7.422-.093-.535-.618-.805-1.003-1.104-2.665-2.065-6.233-3.72-10.582-4.112-5.442-.492-9.861 1.328-13.14 3.561-3.133 2.134-5.972 5.406-7.473 9.329-.805 2.103-1.378 4.442-1.404 6.971-.083 8.003 3.494 13.445 8.125 17.052 3.02 2.352 7.171 4.369 12.538 4.263 7.739-.153 13.1-4.004 16.4-8.776.587-.85 1.08-1.715 1.554-2.658.455-.905.812-1.887 1.354-2.808 5.58-.081 11.547-.113 17.001.1-.084 1.931-.739 3.703-1.254 5.416-1.507 5.019-4.212 9.353-7.272 12.889-4.183 4.834-9.582 8.495-16.099 10.833-3.403 1.221-7.416 1.913-11.535 1.956-4.121.044-8.182-.673-11.635-1.806-6.67-2.188-12.074-5.925-16.35-10.582-4.298-4.683-7.504-10.563-8.977-17.954-.799-4.01-.909-8.396-.351-12.438.534-3.864 1.629-7.353 3.009-10.432 4.028-8.984 11.303-15.957 20.865-19.561 1.666-.627 3.373-1.076 5.216-1.504 1.844-.428 3.975-.735 6.118-.802 12.472-.393 21.216 4.559 27.584 10.532 3.272 3.069 5.92 6.875 7.874 11.234 1.96 4.373 3.578 9.477 3.36 15.546z" fill-rule="evenodd"/></svg>