<svg enable-background="new 0 0 78.053 78.533" viewBox="0 0 78.053 78.533" xmlns="http://www.w3.org/2000/svg"><path clip-rule="evenodd" d="m39.074.002c.041-.01.045.018.048.047 1.621 1.428 3.121 2.978 4.645 4.502 1.523 1.523 3.143 2.957 4.502 4.644-.782 1.076-1.769 1.973-2.683 2.921-.916.952-1.84 1.894-2.729 2.873-4.105 4.268-8.214 8.521-12.307 12.833-.67.706-1.444 1.337-2.059 2.107-.312.391-.604.796-.957 1.149-.341.341-.782.649-.91 1.149.932.258 1.951.144 2.921.144 6.897.002 14.173.14 21.262 0 .014-.655-.744-.946-1.054-1.437-1.202-1.353-2.55-2.559-3.735-3.927-1.248-1.277-2.54-2.462-3.831-3.879-.266-.292-1.146-1.04-1.149-1.389-.003-.354.816-1.001 1.149-1.341 2.803-2.857 5.774-5.964 8.667-8.571.714.42 1.251 1.059 1.819 1.628.566.566 1.081 1.187 1.725 1.676 6.759 6.937 13.498 13.893 20.352 20.734.712.69 1.67 1.718 2.537 2.586.275.275.756.614.767.91.013.334-.477.761-.718 1.006-.33.334-.646.52-.91.814-1.697 1.719-3.385 3.447-5.076 5.172-5.675 5.917-11.903 12.046-17.863 18.007-.369.369-.794.777-1.293 1.245-.35.328-1.045 1.188-1.341 1.196-.355.012-1.081-.889-1.34-1.148-.47-.469-.882-.916-1.245-1.197-1.883-2.035-4.29-4.338-6.417-6.465-.235-.235-.808-.708-.814-1.006-.014-.632.988-.964 1.197-1.389.348-.498.818-.874 1.245-1.292 2.1-2.308 4.409-4.533 6.561-6.848.275-.297.755-.542.767-1.006-.95-.258-1.977-.144-2.97-.144-7.129-.001-14.361-.074-21.213.048.173.688.849 1.04 1.293 1.532.44.487.828 1.02 1.293 1.484 5.525 5.527 11.094 11.045 16.712 16.664.422.422.863.853 1.389 1.389.369.378 1.278 1.111 1.293 1.484.015.388-.782 1.021-1.102 1.341-2.809 2.81-5.602 5.619-8.476 8.284-.555-.231-.933-.74-1.341-1.149-9.339-9.341-18.609-18.895-28.013-28.3-2.764-2.765-5.642-5.738-8.523-8.619-.35-.35-1.141-1.028-1.149-1.292-.01-.304.833-.977 1.149-1.293 12.572-12.571 25.156-25.35 37.781-37.83.078.014.083-.045.144-.047z" fill-rule="evenodd"/></svg>