<svg enable-background="new 0 0 79.607 80.317" viewBox="0 0 79.607 80.317" xmlns="http://www.w3.org/2000/svg"><g clip-rule="evenodd" fill-rule="evenodd"><path d="m79.444.194c.266 13.298.096 26.394.098 39.738 0 3.277.049 6.615.049 9.995-.002 8.489 0 16.854 0 25.375-.002.859.039 1.732 0 2.572-.037.764.119 1.548-.146 2.281-8.949.333-18.662.049-27.898.048-.547 0-1.176.112-1.699-.146-.07-5.686-.16-11.665.049-17.273 4.027-.988 8.014-2.013 11.354-3.688 5.395-2.812 9.609-6.601 12.227-12.227 1.301-2.796 2.357-5.731 2.719-9.51.344-3.6-.059-7.622-1.117-10.771-2.025-6.028-5.383-10.836-10.334-14.12-4.91-3.255-10.727-5.515-18.051-6.356-3.926-.451-7.805-.533-11.547-.291-3.713.24-7.226.95-10.383 1.844-6.404 1.812-11.555 4.83-15.283 9.121-3.713 4.273-6.504 10.139-6.502 17.904 0 3.945.895 7.217 2.086 10.141 1.168 2.869 2.65 5.371 4.658 7.52 3.416 4.089 8.084 6.924 13.828 8.734 1.889.595 3.877.986 5.92 1.552.16 5.56.16 11.809 0 17.419-10.101.192-19.34.072-29.307 0-.022-.044-.043-.087-.098-.097-.088-25.501-.055-51.666-.049-77.484 0-.779-.094-2.135.145-2.378.035-.045.088-.073.144-.097 26.467.053 53.272.034 79.137.194z"/><path d="m29.711 18.681c.42.189.242.783.242 1.164v4.076c0 1.85.186 3.731-.098 5.288-1.746.175-3.986.098-5.967.097-.643 0-1.328.128-1.795-.194.07-1.216.58-2.33 1.066-3.299.5-.995 1.061-1.938 1.748-2.717 1.297-1.758 2.906-3.207 4.754-4.415z"/><path d="m49.555 18.826c2.48 1.377 4.555 3.833 6.018 6.211 1.57 2.553 2.703 5.931 2.619 9.558-.15 6.505-3.055 11.445-6.842 14.508-.541.438-1.119.969-1.844 1.067-.275-.611-.098-1.201-.096-1.795.025-7.935-.049-17.21-.049-25.715 0-1.307-.035-2.656.049-3.688.028-.07.075-.119.145-.146z"/><path d="m29.905 39.447c.064 2.722.18 5.711.049 8.588-.035.768.141 1.545-.147 2.231-1.238-.361-1.955-1.247-2.812-1.989-2.092-1.875-3.897-4.588-4.9-7.667-.123-.372-.459-.952-.049-1.31 1.074-.006 2.65 0 4.074 0 1.345.001 2.711-.112 3.785.147z"/></g></svg>