<svg enable-background="new 0 0 77.846 77.016" viewBox="0 0 77.846 77.016" xmlns="http://www.w3.org/2000/svg"><path clip-rule="evenodd" d="m37.41.024c8.024-.26 14.463 1.647 19.777 4.453 1.059.559 2.011 1.192 3.017 1.819 1.969 1.228 3.915 2.574 5.507 4.166 3.268 3.269 6.029 6.696 8.236 11.157 1.04 2.104 2.021 4.465 2.682 6.991.997 3.816 1.448 8.496 1.102 13.169-.215 2.881-.84 5.604-1.629 8.044-1.974 6.107-5.148 10.873-9.098 15.084-.807.86-1.562 1.678-2.395 2.442-2.441 2.241-5.507 4.287-8.715 5.794-3.303 1.551-6.909 2.823-11.062 3.448-4.227.636-9.198.557-13.359-.239-2.684-.515-5.163-1.445-7.374-2.299-2.26-.872-4.378-2.12-6.273-3.4-.986-.666-1.936-1.267-2.825-2.011-.885-.741-1.776-1.451-2.634-2.203-1.763-1.546-3.137-3.343-4.597-5.123-1.463-1.784-2.548-3.851-3.687-5.986-2.281-4.278-3.676-9.424-4.022-15.323-.364-6.216.985-11.752 2.921-16.281.728-1.7 1.512-3.319 2.442-4.836.316-.516.536-1.081.862-1.532 2.656-3.671 5.747-7.132 9.577-9.769 1.909-1.315 3.78-2.676 5.985-3.688 2.149-.985 4.47-1.988 7.039-2.634 2.594-.651 5.442-1.145 8.523-1.243zm6.034 73.504c1.295-.193 2.539-.433 3.734-.671 2.399-.479 4.568-1.425 6.608-2.203 1.981-.756 3.874-2.029 5.602-3.208 1.796-1.225 3.407-2.592 4.837-4.023 2.808-2.809 5.491-6.341 7.278-10.343 1.817-4.069 3.209-8.86 3.208-14.462-.001-8.704-2.82-14.841-6.32-20.111-2.374-3.575-5.252-6.509-8.812-8.858-1.754-1.158-3.583-2.334-5.65-3.209-3.465-1.467-7.388-3.027-12.21-3.208-.784-.029-1.658-.164-2.203-.048-.748.159-.55.907-.527 1.819.049 1.904-.171 5.049.192 6.369.93.307 1.879.213 2.777.287 6.625.55 11.1 3.454 15.035 6.608 3.299 2.642 6.101 6.51 7.662 10.869.544 1.52 1.211 3.124 1.197 4.885-.869.382-2.034.239-3.16.239-6.699 0-13.377 0-20.208 0-.701 0-2.752-.143-3.16.191-.315.258-.265 1.204-.239 1.82.08 2.018-.067 4.244.191 6.033.983.333 2.065.178 3.112.191 2.245.029 4.48-.048 6.752-.048 5.106.001 10.072-.001 15.18 0 .48 0 1.103-.151 1.484.239.168.861-.123 1.756-.335 2.538-1.529 5.64-4.545 10.071-8.332 13.36-2.185 1.898-4.72 3.587-7.662 4.74-2.208.865-4.733 1.627-7.374 1.915-.904.1-1.852.018-2.777.336-.226.605-.17 1.317-.144 2.011.055 1.461.078 2.765.048 4.022-.017.681-.1 1.429.191 2.011 1.383.2 2.765.095 4.025-.091zm17.526-45.061c-2.438-5.281-6.801-9.371-12.067-11.732-1.419-.637-3.044-1.157-4.836-1.581-2.693-.636-6.142-.58-8.858-.191-1.715.245-3.312.785-4.789 1.293-.747.257-1.562.501-2.25.815-.317.144-.607.424-.958.622-4.531 2.566-7.96 6.142-10.199 10.918-.351.746-.804 1.531-.767 2.395.8.368 1.704.163 2.538.144 2.768-.066 5.497.048 8.236.048 11.009-.001 22.122-.128 32.753-.048.646.005 1.583.231 2.012-.191.008-.914-.462-1.726-.815-2.492zm-1.82 17.143c-2.822 0-5.506.079-8.236-.048-1.771-.082-3.562.05-5.363 0-1.854-.051-3.768-.045-5.603 0-1.884.046-3.946.069-5.938.097-4.763.063-9.801-.001-14.797 0-.939 0-1.955-.151-2.873.19.108 1.089.57 2.151 1.054 3.113 1.414 2.811 3.382 5.383 5.603 7.326 3.09 2.703 6.902 4.681 11.636 5.555 2.591.479 5.479.564 7.949.144 7.472-1.273 12.558-4.676 16.138-9.673 1.044-1.376 1.97-3.036 2.682-4.692.24-.561.567-1.22.431-1.868-.871-.26-1.809-.144-2.683-.144z" fill-rule="evenodd"/></svg>