<svg enable-background="new 0 0 70.899 38.852" viewBox="0 0 70.899 38.852" xmlns="http://www.w3.org/2000/svg"><path clip-rule="evenodd" d="m70.895 19.084c-.892.321-1.895.2-2.851.233-2.888.1-5.93.107-8.927.234-3.978.168-7.977.154-11.637.467.443.521 1.199.812 1.87 1.121 1.332.615 2.735 1.268 4.112 1.87.673.294 1.449.507 1.916 1.075-2.258.029-4.555-.071-6.87-.233-2.284-.16-4.61-.25-6.916-.374-2.316-.125-4.646-.303-6.964-.327-2.285-.023-4.57-.451-6.822-.233.154 2.096 1.04 3.804 1.916 5.328.895 1.557 2.078 2.833 3.318 4.019 1.883 1.493 4.137 2.641 6.916 3.318 2.836.691 6.389.371 8.879-.607 4.879-1.917 8.166-5.608 9.954-10.468 1.852-.231 3.917-.142 5.936-.234 2.022-.092 4.093-.097 5.936-.046-.007 1.156-.672 2.142-1.169 3.038-1.473 2.658-3.986 4.668-6.496 6.309-1.772 1.159-3.57 2.133-5.654 2.897-1.066.391-2.14.665-3.271.981-3.294.921-7.293 1.402-11.402 1.402-6.848 0-12.778-1.507-17.386-3.973-1.982-1.061-3.437-2.187-5-3.645-1.876-1.75-3.115-4.131-3.832-7.15-.133-.562-.231-1.499-.468-1.682-.243-.189-1.055-.155-1.495-.187-1.481-.107-3.189-.365-4.58-.187.186.696.733 1.174 1.122 1.683.409.535.785 1.071 1.215 1.589.412.505.801 1.048 1.215 1.589.394.514.953.991 1.075 1.636-2.557-1.032-4.938-2.438-7.384-3.645-1.852-.914-3.645-1.888-5.468-2.804-.574-.292-1.325-.431-1.683-1.032 2.367-1.377 4.889-2.46 7.337-3.692 1.222-.614 2.407-1.261 3.646-1.869 1.224-.602 2.476-1.223 3.785-1.683-.691 1.171-1.691 2.149-2.57 3.178-.447.524-.852 1.075-1.309 1.589-.43.485-.995.938-1.168 1.589.921.212 2.039.046 3.084.047 1.054 0 2.125.016 2.991-.187.31-1.83.436-3.496.935-5.047.937-2.917 2.632-5.352 4.674-7.29 1.055-1.002 2.027-1.95 3.224-2.71 3.622-2.3 8.205-3.936 13.366-4.58 1.763-.22 3.584-.282 5.562-.374 2.058-.096 5.204.242 7.15.654 3.25.688 6.17 1.466 8.738 2.757.815.41 1.572.965 2.384 1.449 3.267 1.946 5.868 4.388 7.524 7.991.832 1.81 1.617 3.924 1.542 6.216zm-13.46-7.525c-1.732-3.225-4.122-5.648-7.571-7.197-2.041-.916-4.427-1.671-7.15-1.542-4.401.208-7.831 2.046-10.374 4.393-1.477 1.362-2.808 3.235-3.645 5.234-.891 2.125-1.526 4.679-1.356 7.384.906.218 1.899.081 2.898.047 2.918-.101 6.095-.115 8.927-.421-.504-.612-1.343-.842-2.057-1.169-1.487-.678-2.956-1.351-4.393-2.056-.705-.346-1.556-.548-2.057-1.168 4.667.12 9.424.268 14.16.468 4.741.2 9.479.521 14.113.467-.106-1.686-.821-3.166-1.495-4.44z" fill-rule="evenodd"/></svg>