<svg enable-background="new 0 0 67.622 72.859" viewBox="0 0 67.622 72.859" xmlns="http://www.w3.org/2000/svg"><g clip-rule="evenodd" fill-rule="evenodd"><path d="m67.481.303c.223 3.648.148 7.522 0 11.29-4.559.227-9.148.05-13.76.051-9.262.001-18.692-.103-28.175-.101-4.668.001-9.382-.195-13.911.05-.171.951-.137 1.957-.151 2.924-.11 7.273-.051 14.418-.05 21.572 0 8.35-.086 16.725.05 24.898 1.08.339 2.261.201 3.377.201 3.521.001 7.002.051 10.484.051 13.959.002 28.017.048 41.935.252.022.045.043.09.1.101.178 3.56.098 7.637-.051 11.089-1.352.274-2.762.15-4.133.151-20.484.004-42.52-.199-63.154-.403-.119-20.879.051-42.198.051-63.558 0-1.517.009-3.039.051-4.536.04-1.461-.214-2.933.15-4.335 21.465.081 45.228.066 67.187.303z"/><path d="m67.431 21.019c.264 1.228.15 2.507.15 3.779 0 6.415-.049 12.532-.049 19.153 0 2.551.078 5.106-.152 7.51-11.158.247-22.592-.047-33.568 0-3.717.017-7.429.001-11.087-.201-.169-3.111-.167-6.918 0-10.03 1.305-.236 2.662-.101 4.032-.101 9.67.002 19.627.073 28.981.051.289-.651.17-1.455.201-2.269.098-2.417.008-5.265-.102-7.561-5.344-.44-10.801.022-16.379-.201-5.518-.222-11.252.181-16.684-.202-.183-2.34-.101-5.176-.101-7.762 0-.837-.149-1.749.202-2.419 14.229.015 30.233-.009 44.556.253z"/></g></svg>