<svg enable-background="new 0 0 13.014 12.866" viewBox="0 0 13.014 12.866" xmlns="http://www.w3.org/2000/svg"><path d="m4.052 1.301c.955-.816 2.2-1.297 3.457-1.299 1.33-.035 2.663.455 3.661 1.333.118.131.277.221.378.369 1.081 1.119 1.616 2.737 1.431 4.28-.126 1.146-.639 2.247-1.434 3.082-.764.806-1.78 1.381-2.874 1.585-.015.737-.002 1.476-.006 2.213-.714-.001-1.428-.004-2.142.002-.001-.737.002-1.474-.001-2.21-1.007-.198-1.956-.689-2.692-1.403-.791-.743-1.33-1.739-1.554-2.799-.757.004-1.515.005-2.273 0-.005-.713 0-1.425-.003-2.138h2.273c.202-.959.659-1.865 1.331-2.58.12-.173.304-.283.448-.435zm1.369 1.712c-.137.089-.221.231-.333.345-.237.284-.414.613-.545.958 1.379 0 2.759.002 4.139-.001-.004.713-.004 1.427 0 2.141-1.379-.003-2.758.008-4.136-.005.11.275.24.544.417.783.521.741 1.372 1.239 2.273 1.331.727.089 1.482-.094 2.099-.486.529-.337.955-.832 1.209-1.406.369-.814.366-1.786-.004-2.599-.439-.99-1.407-1.72-2.482-1.866-.939-.145-1.938.158-2.637.805z"/></svg>