<svg enable-background="new 0 0 83.09 73.486" viewBox="0 0 83.09 73.486" xmlns="http://www.w3.org/2000/svg"><path clip-rule="evenodd" d="m41.048.129c.279 4.457.154 9.248.154 13.931 0 4.671-.127 9.371.105 13.723 3.525.247 7.328.122 10.822.155 3.484.034 7.297-.042 10.928-.155.352-8.693-.061-18.572.258-27.654 6.295-.179 13.352-.18 19.627.052.189 9.089.105 18.347.103 27.602 0 3.013.127 6.03-.051 8.959-.09 1.458.053 2.982.051 4.505 0 10.689.09 21.525-.103 32.056-3.197.417-6.557-.051-9.891.104-3.154.146-6.559.07-9.736-.052-.311-8.858 0-18.232-.207-27.395-.811-.325-1.752-.207-2.641-.207-6.445.001-13.119.006-19.109.103-.279 1.079-.156 2.232-.156 3.366v20.87c0 1.122.123 2.248-.154 3.314-6.402.058-13.133.155-19.627-.052-.307-5.027.099-10.767-.207-15.795-.771-.289-1.644-.207-2.486-.207-6.082 0-12.605-.04-18.592-.207-.262-2.048-.004-4.227-.104-6.37-.098-2.119.046-4.305.156-6.266 6.877-.319 14.17.144 20.973-.052.277-1.151.156-2.422.156-3.677 0-3.741-.025-7.665-.104-11.341-.742-.313-1.61-.188-2.434-.207-6.149-.147-12.891.069-18.592-.156-.297-1.922-.104-4.12-.103-6.266 0-2.156-.17-4.342.051-6.318 1.643-.282 3.375-.147 5.127-.155 5.17-.024 10.67.196 15.848.052.252-.575.207-1.28.207-1.916 0-3.354 0-6.958 0-10.409 0-1.383-.123-2.748.154-3.987 6.476-.093 13.56-.043 19.577.052z" fill-rule="evenodd"/></svg>