<svg enable-background="new 0 0 160.882 82.593" viewBox="0 0 160.882 82.593" xmlns="http://www.w3.org/2000/svg"><g clip-rule="evenodd" fill-rule="evenodd"><path d="m83.474.036c3.34 2.468 6.35 5.265 9.621 7.801 8.331 6.865 16.666 13.73 25.049 20.585 5.568 4.554 11.123 9.131 16.771 13.651 2.809 2.248 5.486 4.67 8.277 6.934 4.896 3.972 9.732 8.015 14.691 11.961.686.546 1.284 1.237 2.123 1.561.257-.532.174-1.157.174-1.733 0-16.74-.088-33.71-.087-50.531 0-1.684 0-3.592 0-5.59 0-.405-.14-1.515.304-1.56.619-.063.387 1.637.39 2.123.14 25.802.081 51.465.087 77.356-.553.001-.922-.51-1.301-.823-.402-.334-.801-.664-1.213-.953-2.37-1.993-4.803-3.923-7.193-5.894-8.002-6.503-15.896-13.148-23.879-19.676-7.989-6.532-16.013-13.014-23.922-19.631-5.947-4.945-11.975-9.81-17.941-14.735-.416-.251-.74-.817-1.258-.823-.23.572-.129 1.229-.129 1.82v20.976c0 11.374.043 22.51.043 34.236 0 .935.07 1.834 0 2.773-.015.189.053.587-.348.52-.518-.039-.346-.688-.346-.953-.002-26.49-.228-52.79-.087-79.307.036.008.04-.017.043-.043.006-.036.145-.133.131-.045z"/><path d="m14.396 3.72c-.019.039-.038.078-.087.087-.165 11.699-.105 23.826 0 35.363.039.019.078.038.087.086 10.115.086 20.9.13 31.592.13 9.189.001 18.828-.035 27.736 0 .916.004 1.756-.016 2.773.044.205.012.697-.111.693.303-.148.72-1.095.434-1.604.434-10.095.001-19.655-.001-29.426 0-10.698.001-21.251-.209-31.766.044-.233.767-.13 1.583-.13 2.383 0 10.613.043 21.453.043 32.156 0 1.59-.089 3.202.13 4.724 20.311.157 40.694.127 61.235.131.551 0 1.507-.224 1.604.39-.001.518-.554.352-.822.347-6.047-.122-12.287-.001-18.246 0-6.498 0-13.077.042-19.415.043-3.236 0-6.518.046-9.751-.043-8.188-.228-16.069.042-24.182.043-.802 0-1.627 0-2.427 0-.77 0-1.556.105-2.296-.13-.096-10.985-.129-22.55-.129-33.675 0-14.229-.035-29.093.043-43.51.039-.019.078-.038.087-.087 22.417-.158 45.68-.004 68.168 0 2.164 0 4.509.043 6.891.043.373 0 1.955-.201 1.994.347.039.563-1.08.39-1.604.39-20.367.001-40.9-.165-61.191-.043z"/></g></svg>