<svg enable-background="new 0 0 77.03 78.128" viewBox="0 0 77.03 78.128" xmlns="http://www.w3.org/2000/svg"><path clip-rule="evenodd" d="m76.981 36.271c-2.033.168-4.098.12-6.193.146-6.302.08-12.796-.048-19.164-.049-7.205 0-14.816.159-22.236-.097-.993-.035-2.012.225-2.975-.098-.133-3.286-.151-6.82-.146-9.997.002-1.082-.025-2.148.195-3.121 7.823-.226 16.234-.049 24.04-.049 2.612 0 5.144.038 7.559-.146-.046-.799-.691-.999-1.023-1.511-3.154-3.416-7.329-5.82-12.532-7.168-5.539-1.436-12.182-.459-16.58 1.609-4.42 2.078-7.86 5.064-10.484 9.167-2.573 4.024-4.484 9.069-4.145 15.41.306 5.724 2.622 10.857 5.363 14.288.748.936 1.437 1.875 2.243 2.682.825.825 1.719 1.566 2.634 2.292 1.797 1.424 4.058 2.393 6.388 3.414 4.583 2.006 12.045 2.019 16.824.292 2.447-.884 4.56-1.995 6.534-3.316 1.453-.974 2.675-2.191 3.901-3.462.396-.411.938-.806 1.024-1.414-.561-.311-1.244-.195-1.853-.195-9.661.001-20.156.112-29.844-.098-.339-.934-.195-2.078-.195-3.169 0-3.217-.079-6.819.098-9.899 2.046-.377 4.139-.019 6.242-.098 6.252-.234 12.685 0 19.066 0 7.457 0 14.924.048 22.187.049 1.014 0 2.045-.11 3.024.146.246 1.055-.032 2.12-.195 3.121-1.161 7.135-3.729 12.875-7.363 17.604-5.196 6.764-11.988 11.956-21.358 14.385-1.903.493-3.888.74-6.145.976-4.386.458-9.07-.087-12.874-1.122-7.494-2.039-13.256-5.857-17.944-10.631-4.692-4.92-8.242-10.87-10.046-18.53-.961-4.082-1.226-8.669-.829-12.874.404-4.285 1.536-7.957 2.927-11.362 1.326-3.251 3.277-6.214 5.412-8.875 2.124-2.647 4.525-5.056 7.266-7.022 5.714-4.1 12.475-7.095 21.262-7.51 6.271-.296 11.614 1.137 16.189 2.926 4.609 1.802 8.363 4.449 11.606 7.461 4.991 4.637 8.621 10.332 10.875 17.799.74 2.459 1.367 5.165 1.265 8.046z" fill-rule="evenodd"/></svg>