<svg enable-background="new 0 0 79.28 60.526" viewBox="0 0 79.28 60.526" xmlns="http://www.w3.org/2000/svg"><g clip-rule="evenodd" fill-rule="evenodd"><path d="m46.209.373c-.11 1.135-1.208 1.57-1.863 2.265-.708.751-1.24 1.627-1.963 2.366-2.096 2.142-4.391 4.203-6.393 6.494.792.288 1.72.185 2.668.201 1.902.033 3.962 0 5.94 0 .977 0 1.976-.118 2.819.151.168 1.152.164 2.975 0 4.128-.841.267-1.82.15-2.769.15-2.796 0-5.98-.082-8.659.101-.059.402.367.653.604.855 1.371 1.175 2.644 2.542 3.977 3.826.986.949 1.773 1.99 2.869 2.92.957.811 1.85 1.648 2.769 2.567.426.426 1.084.881 1.057 1.611-.499.494-1.306.302-1.963.302-4.164 0-8.749 0-13.29 0-.779 0-1.606.101-2.165-.05-.638-.173-1.219-.855-1.762-1.359-.539-.502-1.043-1.062-1.561-1.511-1.124-.975-2.285-1.92-3.222-2.97-.552-.619-1.013-1.243-1.611-1.812-.574-.547-1.132-1.139-1.661-1.762-.627-.484-1.139-1.101-1.762-1.661-.986-.886-2.222-2-1.661-4.228.163-.648.927-1.236 1.41-1.762 1.428-1.555 3.419-3.397 4.682-4.832 1.465-1.569 3.134-3.129 4.682-4.833.501-.552 1.042-1.24 1.711-1.46 4.801-.091 10.34-.05 15.303-.05.627 0 1.372-.147 1.814.353z"/><path d="m78.678 10.038c.043-.009.048.019.051.05.781.319.503 1.277.503 1.863 0 3.838-.071 7.699-.05 11.578.01 1.813.313 4.031-.252 5.286-.276.612-.858 1.1-1.46 1.762-1.54 1.697-3.074 3.326-4.682 4.934-1.018 1.018-2.09 2.104-3.121 3.272-.929 1.052-2.073 2.82-3.271 3.272-.733.276-2.096.308-2.819.05-.637-.226-1.24-1.039-1.762-1.561-1.684-1.685-3.41-3.226-4.833-5.084-1.724-1.427-3.366-3.115-5.084-4.832-.593-.592-1.343-1.218-1.56-1.862-.38-1.125-.157-3.071-.202-4.48-.12-3.842-.05-7.373-.05-11.326 0-.646-.205-1.5.353-1.963.859.066 1.339.87 1.812 1.409.488.557 1.064 1.088 1.561 1.611 1.472 1.551 3.166 3.135 4.732 4.783 1.041 1.094 2.114 1.963 3.171 3.171.874.998 2.071 2.108 3.877 1.41 1.254-.486 2.243-2.244 3.271-3.272 2.303-2.302 4.222-4.281 6.394-6.695.471-.523 1.023-1.106 1.611-1.661.623-.594 1.1-1.436 1.81-1.715z"/><path d="m12.38 17.79c.45-.131 1.86-.073 2.366.151.946.42 1.699 1.582 2.466 2.366.814.832 1.495 1.727 2.316 2.517 1.829 1.762 3.436 3.235 4.883 4.732.526.409.963 1.021 1.56 1.662.512.548 1.266.965 1.46 1.711.147.568.017 1.38.05 2.165.19 4.522 0 8.634 0 13.441 0 .871.029 1.722-.403 1.862-.538.175-1.061-.713-1.359-1.007-2.721-3-5.642-5.801-8.558-8.608-.867-1.259-2.077-3.055-4.329-2.316-.931.306-1.772 1.571-2.467 2.316-2.271 2.435-4.748 5.043-6.745 7.45-.461.566-.917 1.128-1.46 1.712-.372.4-1.022 1.532-1.661 1.359-.55-.149-.466-1.161-.454-1.963.061-3.746.051-7.636.051-11.629 0-1.494-.25-3.428.05-4.682.296-1.237 1.448-2.029 2.265-2.919.453-.494.861-1.047 1.309-1.561.45-.517.965-.949 1.409-1.46.878-1.01 1.88-1.906 2.819-2.97.445-.505.951-.959 1.409-1.46.893-.972 1.767-2.548 3.023-2.869z"/><path d="m31.006 60.025c.224-.823 1.064-1.175 1.611-1.711.475-.466.917-1.017 1.409-1.51.473-.473 1.024-.924 1.46-1.409.537-.598.97-1.272 1.51-1.863.529-.578 1.091-1.172 1.661-1.711 1.145-1.083 2.398-2.087 3.222-3.474-.855-.267-1.858-.151-2.819-.151-1.948 0-3.957-.035-5.89-.05-.976-.008-1.929.222-2.769-.101-.17-1.138-.162-2.938 0-4.078.863-.264 1.867-.151 2.869-.151h3.021c2.028 0 4.089.091 5.789-.101-.113-.504-.608-.802-.957-1.107-1.748-1.53-3.363-3.35-5.084-4.983-.698-.663-1.25-1.415-1.913-2.114-.571-.603-1.296-1.092-1.913-1.662-.296-.273-.556-.631-.856-.906-.302-.276-.791-.497-.755-1.007-.028-.28.175-.328.302-.453 4.737-.091 10.212-.05 15.203-.05.748 0 1.542-.103 2.063.05.703.207 1.278 1.111 1.762 1.561.627.583 1.181 1.051 1.711 1.561 2.195 2.168 4.488 4.237 6.443 6.645.831 1.143 2.563 1.968 3.172 3.373.318.735.343 2.06-.051 2.869-.288.591-.884 1.171-1.41 1.762-.503.566-1.089 1.104-1.56 1.611-1.494 1.607-2.965 3.26-4.581 4.883-1.064 1.068-1.956 2.006-3.121 3.171-.571.571-1.148 1.317-1.661 1.46-1.083.301-3.306.05-4.581.05-3.924 0-7.675.074-11.427 0-.623-.013-1.443.128-1.86-.404z"/></g></svg>