<svg enable-background="new 0 0 61.769 78.673" viewBox="0 0 61.769 78.673" xmlns="http://www.w3.org/2000/svg"><g clip-rule="evenodd" fill-rule="evenodd"><path d="m36.066.015c.424-.158.29 1.023.29 1.303 0 3.199-.028 5.889 0 8.977.004.5.101 1 0 1.398-.13.516-.921 1.066-1.351 1.496-1.409 1.41-2.897 3.043-4.198 4.344-1.426 1.426-2.642 2.914-4.198 4.344-.444.406-1.108.994-1.255 1.543-.111.412-.017.992-.048 1.496-.139 2.242-1.209 3.855-2.461 5.019-1.315 1.221-3.192 2.102-5.549 1.93-2.077-.15-3.766-1.211-4.922-2.557-1.122-1.309-2.042-3.166-1.786-5.598.235-2.234 1.583-3.82 2.75-4.826 1.015-.875 2.197-1.537 3.909-1.738.527-.061 1.213.068 1.785-.144.806-.299 1.625-1.379 2.22-2.027 1.979-2.154 4.301-4.397 6.274-6.369 2.471-2.471 4.824-4.92 7.335-7.432.404-.406.836-.833 1.205-1.159zm-18.337 26.203c.8.1 1.73-.434 1.93-1.303.286-1.242-.724-2.258-1.978-2.025-1.843.337-1.825 3.097.048 3.328z"/><path d="m48.275 12.175c.039.01.048.049.097.049.186 3.936.128 7.867.096 11.871-.801 1.082-1.766 1.959-2.702 2.897-.894.893-1.678 1.918-2.654 2.894-1.31 1.311-2.755 2.799-4.15 4.246-.512.531-1.129 1.023-1.303 1.594-.216.709-.089 1.387-.145 1.93-.401 3.9-3.758 6.852-7.962 6.562-2.469-.17-4.21-1.418-5.356-3.088-1.205-1.756-1.784-4.234-.965-6.66.859-2.545 2.833-4.482 5.743-5.018.578-.107 1.234-.006 2.075-.193.859-.193 1.664-1.279 2.316-1.979 2.058-2.207 4.298-4.299 6.37-6.369 1.415-1.416 2.902-2.805 4.198-4.297 1.327-1.525 2.694-3.1 4.198-4.342.035-.045.087-.074.144-.097zm-18.386 26.349c1.206.277 2.205-.801 2.123-1.883-.066-.871-1.006-1.627-1.882-1.496-1.865.282-2.005 2.971-.241 3.379z"/><path d="m61.497 24.915c.039.01.048.049.097.049.208 2.375.128 5.104.096 7.77-.01.85.183 1.779 0 2.461-.166.619-1.23 1.527-1.785 2.123-.683.732-1.325 1.373-1.93 1.978-3.914 3.914-7.635 7.973-11.485 11.822-1.307 1.309-2.462 2.703-3.764 4.006-3.21 3.211-6.285 6.525-9.603 9.844-.504.504-1.494 1.846-2.027 1.834-.255-.006-.764-.545-1.11-.867-2.367-2.215-4.479-4.598-6.804-6.709-1.341-1.217-2.57-2.619-3.86-3.908-3.847-3.848-7.808-7.723-11.726-11.486-1.314-1.262-2.477-2.668-3.764-3.957-1.287-1.285-2.664-2.482-3.812-3.908.059-3.408-.102-7.098.048-10.277.48-.023.816.43 1.11.723 2.178 2.178 4.499 4.453 6.66 6.709 5.151 5.047 10.23 10.166 15.393 15.199 2.196 2.197 4.468 4.373 6.756 6.66.26.26.795.805 1.062.82.608.035 1.683-1.48 2.027-1.834 1.871-1.922 3.894-3.809 5.694-5.742.983-.91 1.888-1.916 2.847-2.896.939-.957 2.006-1.867 2.847-2.894 1.706-2.086 3.703-3.887 5.55-5.887 1.772-1.92 3.768-3.758 5.646-5.791.86-.932 1.845-1.895 2.847-2.896.972-.975 1.986-2.221 2.99-2.946z"/><path d="m61.401 36.835c.427-.086.337.479.337 1.062v9.361c-1.095 1.463-2.499 2.666-3.764 4.006-3.744 3.959-7.507 7.893-11.437 11.822-1.28 1.279-2.443 2.709-3.764 4.004-1.287 1.264-2.61 2.527-3.86 3.861-1.854 1.979-3.732 3.877-5.743 5.887-.472.473-1.477 1.822-2.027 1.834-.31.008-.853-.564-1.11-.82-2.282-2.281-4.47-4.447-6.804-6.707-7.772-7.652-15.606-15.246-23.162-23.115-.053-3.449-.126-7.111.048-10.424.484.021.77.48 1.061.774.931.93 1.932 1.883 2.896 2.846.627.629 1.204 1.336 1.834 1.979 3.103 3.166 6.464 6.223 9.651 9.41 2.492 2.492 5.131 5.084 7.673 7.625 1.205 1.205 2.538 2.441 3.861 3.764.573.574 1.166 1.275 1.882 1.932.503.459 1.539 1.723 2.075 1.736.529.014 1.682-1.441 2.027-1.785 3.25-3.25 6.27-6.305 9.41-9.652.612-.652 1.306-1.246 1.882-1.93 2.849-3.377 6.327-6.385 9.362-9.652 2.443-2.629 5.049-5.07 7.528-7.672.026-.072.074-.119.144-.146z"/></g></svg>