<svg enable-background="new 0 0 80.043 55.688" viewBox="0 0 80.043 55.688" xmlns="http://www.w3.org/2000/svg"><g clip-rule="evenodd" fill-rule="evenodd"><path d="m.29 0c6.457 1.116 13.166 2.033 19.496 3.282 3.276.646 6.581.967 9.796 1.544 2.432.436 4.774.872 7.287 1.255.754.115 1.574.158 2.268.531.088 4.218.048 8.759.048 13.126 0 .589.11 1.209-.145 1.737-5.81-.705-11.55-1.939-17.372-2.799-1.925-.284-3.801-.77-5.743-.868-.306.167-.225 1.046-.096 1.351.876.427 1.894.417 2.847.58 6.647 1.131 13.845 2.205 20.413 3.474.158 5.079.167 10.636 0 15.635-.973.106-1.94-.157-2.896-.338-2.859-.54-5.772-.984-8.686-1.496-3.864-.679-7.757-1.337-11.582-1.882-.266.253-.203.967-.145 1.399.364.33.904.311 1.351.386 6.226 1.054 12.783 2.208 19.11 3.233.951.154 1.956.208 2.847.579.16 4.74.161 10.169 0 14.959-1.656-.089-3.296-.396-4.922-.724-4.815-.969-9.747-1.651-14.622-2.509-6.498-1.145-13.021-2.183-19.399-3.475-.145-1.994-.145-4.026-.145-6.08 0-12.029.048-24.1.048-36.771 0-.923-.018-1.813 0-2.944.014-.929-.081-2.473.096-3.088.036-.045.088-.074.146-.097z"/><path d="m79.768.048c.408.296.241.912.241 1.303 0 15.725.041 31.906-.048 47.581-.716.405-1.581.399-2.365.531-10.552 1.785-21.181 3.791-31.801 5.501-1.626.262-3.23.674-4.874.724-.231-2.33-.145-4.971-.145-7.576 0-2.591-.083-5.165.145-7.432 6.639-1.284 13.646-2.226 20.364-3.522.945-.183 1.935-.143 2.799-.579.143-.332.175-1.184-.048-1.448-1.955.159-3.898.532-5.839.869-3.819.662-7.671 1.376-11.533 2.027-.967.163-1.934.301-2.896.482-.928.175-1.886.432-2.847.338-.247-5.098-.16-10.325 0-15.539.355-.354.898-.31 1.352-.386 3.312-.557 6.79-1.135 10.182-1.689 3.902-.637 7.799-1.292 11.582-1.979.217-.298.225-1.21-.048-1.447-1.959.091-3.869.569-5.791.868-3.836.597-7.644 1.34-11.533 1.93-1.9.288-3.801.766-5.743.869-.286-4.487-.146-10.063 0-14.863.693-.416 1.543-.41 2.317-.531 8.7-1.365 17.642-3.069 26.396-4.44 3.23-.505 6.461-.959 9.651-1.544.102-.018.268-.077.482-.048z"/></g></svg>