<svg enable-background="new 0 0 71.819 78.493" viewBox="0 0 71.819 78.493" xmlns="http://www.w3.org/2000/svg"><g clip-rule="evenodd" fill-rule="evenodd"><path d="m51.018 18.308c-.64-.3-.699-1.022-1.083-1.547-.623-.851-2.037-1.762-3.404-1.856-.857-.059-1.987.056-2.372.722-.225 2.309.502 4.867.103 7.013-1.126.473-2.548.397-3.971.464-2.758.13-5.773.183-8.508-.051-1.346-.115-2.709-.102-3.713-.67-.145-2.607.15-5.264.206-8.096.024-1.19.075-2.666.154-4.074.08-1.415.151-2.612.722-3.506 1.196-1.874 3.564-2.397 5.982-3.197 2.508-.83 5.405-1.547 7.941-2.475 1.249-.457 2.857-.99 4.177-1.031 1.852-.059 3.578 1.152 3.919 2.785.179.858.115 1.95.103 2.939-.041 3.313.131 7.375 0 10.88-.019.556.074 1.223-.256 1.7z"/><path d="m.226 15.369c.425.09 1.277.66 1.908.98 4.317 2.187 9.01 4.148 14.129 5.569 5.818 1.615 12.602 2.786 19.75 2.785 12.798-.002 23.224-3.179 32.022-7.425.63-.304 1.225-.684 1.856-.98.614-.288 1.198-.743 1.908-.774.108 1.292-.266 2.795-.464 4.125-.064.43-.113 1.005-.258 1.289-.343.672-1.927 1.202-2.733 1.599-2.873 1.413-6.234 2.515-9.385 3.558-3.72 1.231-7.915 2.1-12.376 2.733-.69.098-1.536.172-1.702.413-.14.202-.235 1.448.103 1.753.457.413 2.707-.11 3.558-.258 4.896-.849 8.993-1.932 13.201-3.3 2.527-.822 5.01-1.817 7.271-3.042.421-.228.974-.523 1.495-.361.185.768-.065 1.543-.206 2.423-.118.732-.096 1.801-.413 2.372-.314.566-1.859 1.003-2.63 1.341-2.709 1.188-5.858 2.038-8.921 2.888-1.036.287-2.059.595-3.094.876-3.126.849-6.704 1.086-10.056 1.702-.283.475-.386 2.016.052 2.32.495.343 2.526-.059 3.352-.206 6.432-1.144 12.516-2.521 17.945-4.641.883-.345 1.733-.908 2.681-.928.178.661.002 1.648-.155 2.578-.066.39-.154.847-.206 1.29-.065.55-.187 1.05-.361 1.289-.393.538-1.83.838-2.578 1.083-5.479 1.787-11.368 3.271-17.688 4.073-1.055.134-2.188.049-2.991.619.217 9.879.919 20.51 1.392 30.682.032.688.007 1.405.051 2.269.046.892.253 1.721-.155 2.114-.583.562-3.83.206-4.898.206-3.564 0-6.961.081-10.21 0-1.524-.037-3.417.223-4.796-.257-.487-1.248-.203-2.727-.155-4.126.308-8.903.509-17.831.722-26.711.016-.668.052-1.393.052-2.269 0-.817.146-1.717-.103-2.062-.299-.414-2.079-.479-3.094-.619-5.609-.771-10.241-1.741-15.109-3.352-1.274-.422-2.821-.807-4.177-1.392-.472-.204-1.068-.37-1.237-.567-.409-.476-.391-1.553-.516-2.32-.133-.817-.45-1.566-.207-2.372.961.237 1.845.679 2.785 1.031 2.734 1.027 5.737 1.826 8.766 2.682 1.998.564 4.154.981 6.291 1.34 2.14.36 4.339.848 6.601.774.312-.503.239-1.643.206-2.32-.34-.576-1.067-.409-1.599-.464-6.521-.681-12.657-2.487-18.151-4.332-2.016-.677-3.985-1.401-5.724-2.424-.266-1.478-.769-3.241-.67-4.744.558-.099 1.047.295 1.496.516 3.248 1.599 6.952 2.777 10.674 3.919 3.207.984 6.605 1.742 10.261 2.269 1.199.172 2.403.577 3.661.412.406-.221.479-1.275.206-1.701-1.153-.438-2.48-.464-3.765-.671-6.237-1.004-11.923-2.491-17.171-4.744-.958-.411-2.036-.841-3.094-1.289-.809-.342-2.493-.993-2.785-1.598-.181-.375-.09-.901-.154-1.444-.052-.437-.124-.958-.207-1.393-.155-.81-.606-2.016-.361-2.681.043-.051.099-.08.16-.105z"/></g></svg>