<svg enable-background="new 0 0 76.706 79.528" viewBox="0 0 76.706 79.528" xmlns="http://www.w3.org/2000/svg"><g clip-rule="evenodd" fill-rule="evenodd"><path d="m61.457 0c.556.141 1.456 1.045 2.026 1.545 1.864 1.633 3.863 3.199 5.694 4.729 1.924 1.605 3.724 3.225 5.646 4.826.627.523 1.388.955 1.786 1.689-2.406 2.242-4.98 4.316-7.528 6.418-2.136 1.904-4.354 3.719-6.563 5.598-.313.266-.617.629-1.062.676-.289-1.754.116-4.203-.242-5.889-6.259-.145-12.094-.096-18.048-.096-.833 0-1.704.111-2.509-.144-.308-1.027-.099-2.164-.097-3.281.005-2.123-.048-4.363-.048-6.709 0-1.119-.113-2.262.145-3.281 6.708-.176 13.881.113 20.509-.144.362-1.598-.01-4.037.193-5.791 0-.083.037-.126.098-.146z"/><path d="m36.46 6.08c.176 2.234.097 4.582.097 6.853 0 2.211.128 4.385-.097 6.418-6.868.328-14.376-.035-21.233.24-.261.945-.144 2.117-.144 3.281 0 3.332-.073 6.892.048 10.086.806.262 1.697.145 2.557.145 6.136 0 12.677-.17 18.772.049.259 1 .145 2.131.145 3.232 0 3.258.068 6.797-.048 9.895-.795.225-1.702.229-2.558.191-5.788-.244-12.808.137-18.772.146-.245 1.066-.167 2.238-.144 3.377.064 3.271-.137 6.752.144 10.037 7.148.318 14.24-.168 21.281.145.244.961.145 2.06.145 3.185 0 3.24.079 6.926-.097 10.037-2.882.25-5.916.144-8.976.144-9.054.002-18.446.18-27.313 0-.261-16.779-.192-33.246-.192-50.521 0-4.221-.048-8.443-.048-12.74 0-1.363-.118-2.76.144-4.102 3.8-.113 7.668-.166 11.533-.144 8.221.042 16.545-.177 24.756.046z"/><path d="m61.505 27.072c.597.244 1.518 1.07 2.027 1.496.688.576 1.285 1.117 1.834 1.641 1.316 1 2.531 2.102 3.812 3.137 2.464 2.152 5.11 4.123 7.48 6.369-.399.775-1.199 1.15-1.786 1.738-4.18 3.412-8.296 7.02-12.45 10.52-.242.205-.559.521-.917.482-.264-1.764.007-4.061-.241-5.838-.7-.262-1.475-.145-2.22-.146-5.045 0-10.31.049-15.635.049-.921 0-1.885.078-2.751-.193-.161-4.15-.161-8.975 0-13.125 6.636-.291 13.996.098 20.557-.193.428-1.594-.095-3.986.193-5.742.002-.016-.002-.033 0-.049-.002-.083.036-.126.097-.146z"/><path d="m61.553 54.096c.575.176 1.424 1.039 2.027 1.545 3.83 3.209 7.557 6.332 11.34 9.555.622.529 1.372.971 1.786 1.689-3.651 3.33-7.561 6.4-11.34 9.602-.876.82-1.842 1.615-2.799 2.414-.3.25-.588.641-1.014.627-.307-1.736.144-4.23-.241-5.887-6.606-.289-13.9.094-20.557-.193-.256-1.004-.145-2.123-.145-3.234 0-3.244-.079-6.857.097-9.988 6.624-.291 14.027.111 20.557-.193.359-1.635-.008-3.996.193-5.791-.002-.084.036-.127.096-.146z"/></g></svg>