<svg enable-background="new 0 0 76.806 77.408" viewBox="0 0 76.806 77.408" xmlns="http://www.w3.org/2000/svg"><path clip-rule="evenodd" d="m29.791 33.854c-.25.822-.203 2.454 0 3.286 9.524.206 18.519.132 27.905.048.147-1.557-.278-3.007-.571-4.381-.579-2.715-1.653-5.235-2.857-7.429-.609-1.109-1.277-2.131-1.905-3.191-1.223-2.064-2.987-3.856-4.81-5.476-1.852-1.646-3.959-3.028-6.095-4.143-4.52-2.36-10.119-3.928-16.858-3.477-6.314.423-10.982 2.687-15.048 5.429-.573.238-.94.93-1.619.905.12-.719.663-1.192 1.047-1.667.409-.504.821-.983 1.238-1.476 4.435-5.009 10.176-8.802 17.62-10.905 2.534-.715 5.39-1.194 8.334-1.334 5.307-.25 9.94.623 13.858 1.857 6.412 2.02 11.975 5.77 16.048 10.048 4.51 4.746 7.9 10.283 9.715 17.763 1.18 4.864 1.382 11.299.333 16.524-1.484 7.398-4.82 13.701-9.191 18.239-2.993 3.107-6.213 5.935-10.191 8.095-3.943 2.142-8.42 3.999-13.714 4.572-2.927.316-5.749.375-8.524.047-8.244-.974-14.216-3.814-19.572-7.857-1.646-1.242-3.215-2.843-4.715-4.429-4.44-4.697-7.732-10.675-9.381-18.048-.584-2.611-.942-5.414-.809-8.238.127-2.701.664-5.423 1.476-7.667 1.582-4.372 4.109-8.251 7.19-11.096 3.108-2.869 7.04-5.287 11.81-6.476 5.049-1.259 11.301-.839 15.858.809 6.567 2.377 11.509 6.826 14.81 12.62.292.513.542.983.762 1.524.648 1.598 1.306 3.382 1.571 5.19-.315.39-.906.238-1.333.238-5.337 0-11.146 0-16.572 0-1.999.001-3.977-.147-5.81.096z" fill-rule="evenodd"/></svg>