<svg enable-background="new 0 0 57.583 80.68" viewBox="0 0 57.583 80.68" xmlns="http://www.w3.org/2000/svg"><path clip-rule="evenodd" d="m42.128.163c.271 2.455.151 5.179.151 7.891 0 2.679-.083 5.404.102 7.891 1.135.391 2.396.105 3.642.152 3.521.132 7.633-.176 11.382.101.272 1.312.152 2.658.151 3.996-.002 9.584-.052 18.873-.05 27.973.001 10.95.09 21.886-.152 32.374-13.675.169-27.618.204-41.731 0-.357-4.979.089-10.732-.202-15.934-.552-.268-1.221-.152-1.821-.152-4.466 0-9.205.067-13.506-.101-.174-14.928-.053-30.083-.052-45.273 0-.946-.119-1.919.152-2.833 5.019-.316 10.199.07 15.226-.203.274-1.221.151-2.571.151-3.945 0-3.356 0-6.836 0-10.269 0-.597-.166-1.327.253-1.771 8.76.013 17.682-.198 26.304.103zm-15.984 10.572c-.183 1.503-.28 3.707 0 5.261 1.572.269 3.81.174 5.412 0 .168-1.543.168-3.768 0-5.311-1.599-.169-3.782-.084-5.412.05zm4.198 15.883c-1.292.316-3.037-.133-4.249.253-.334 8.299.079 17.042-.101 25.14-.014.611-.169 1.295.101 1.821 1.576.166 3.837.169 5.412 0 .197-9.375.214-17.864.051-26.961-.289-.2-.796-.182-1.214-.253zm-19.171.101c-.424.051-.431.105-.506.607-.113.752-.066 1.761-.051 2.529.066 3.33-.131 7.397-.051 10.319.126 4.581-.156 9.354.152 13.557 1.255.252 3.324.208 4.653.051.274-1.036.151-2.144.151-3.238.001-7.926.116-16.156-.101-23.724-1.078-.066-3.032-.247-4.247-.101zm31.361.051c-.556.47-.303 1.315-.303 1.973 0 5.553.082 10.974 0 16.439-.085 5.603-.001 11.425 0 16.946 0 .729.075 1.526-.203 2.226-3.869.126-8.026.101-11.988.101-1.364 0-2.732-.122-3.996.152-.167 1.577-.167 3.836 0 5.413 1.664.275 3.436.152 5.16.151 5.159 0 10.386.039 15.529-.101.273-1.734.151-3.525.151-5.311-.001-5.525.001-11 0-16.49-.001-7.281.174-14.529-.101-21.448-1.209-.205-2.953-.096-4.249-.051z" fill-rule="evenodd"/></svg>