<svg enable-background="new 0 0 14.229 14.375" viewBox="0 0 14.229 14.375" xmlns="http://www.w3.org/2000/svg"><path d="m2.007.038c.128-.017.257-.03.386-.034h9.206c.704-.041 1.441.2 1.925.725.441.412.672 1.01.705 1.605-.002 3.242-.001 6.485-.001 9.727-.034.576-.25 1.155-.666 1.564-.391.427-.948.696-1.523.748-3.283 0-6.566.002-9.849-.001-.465-.035-.911-.228-1.279-.51-.14-.127-.273-.261-.401-.399-.299-.39-.485-.868-.508-1.36 0-3.216 0-6.432 0-9.648-.023-.689.284-1.377.797-1.832.34-.3.76-.511 1.208-.585zm-.721.677c-.188.112-.325.285-.478.437-.304.376-.448.864-.446 1.343v4.506c2.191-.002 4.383-.001 6.574 0-.002-.691 0-1.383 0-2.074-1.581.002-3.162 0-4.743.001 0-.12.002-.24.002-.36 1.58.002 3.16 0 4.741.001 0-.658-.001-1.316 0-1.973-1.58.003-3.16-.001-4.741.002-.001-.128-.001-.254-.002-.381 1.581.001 3.162-.001 4.743.001-.001-.618-.001-1.236 0-1.854-1.487.002-2.975 0-4.462.001-.419.001-.84.112-1.188.35zm6.009-.357c.001 2.216 0 4.431 0 6.646.651-.008 1.302-.003 1.953-.003.001-1.595.001-3.19 0-4.784h.381c-.01 1.594.002 3.188-.006 4.783.68.002 1.361.001 2.041 0-.013-1.594.004-3.188-.008-4.782h.383c-.002 1.596-.002 3.192 0 4.787.605-.007 1.209-.006 1.813-.001-.004-1.462-.001-2.925-.002-4.387.004-.271-.001-.547-.086-.807-.234-.757-.936-1.343-1.725-1.426-.491-.038-.983-.01-1.475-.019-1.09-.005-2.18.008-3.269-.007zm-6.934 7.02c.002 1.522.001 3.043.001 4.565.009.538.204 1.092.606 1.463.318.345.77.534 1.226.611.002-1.545-.002-3.089.002-4.634.12.007.24.007.361.002-.004 1.543 0 3.086-.002 4.628.677 0 1.354-.002 2.031.001.002-1.542.001-3.084.001-4.626.129 0 .257 0 .386-.002-.019 1.543.001 3.086-.01 4.629.658-.004 1.316-.001 1.974-.002-.001-2.212-.001-4.425 0-6.637-2.193.004-4.385.003-6.576.002zm6.934-.005c.001 2.214 0 4.429 0 6.643 1.528-.003 3.056-.002 4.584-.001.988-.01 1.893-.848 1.959-1.839-1.53.007-3.061.001-4.592.003.001-.122.001-.243 0-.365 1.534.011 3.07-.003 4.604.007-.004-.691-.003-1.381 0-2.072-1.535.003-3.07-.012-4.604.007.001-.122.001-.245 0-.367 1.535.003 3.07-.004 4.605.003-.004-.672-.004-1.344 0-2.016-2.185-.001-4.371.01-6.556-.003z"/></svg>