<svg enable-background="new 0 0 75.45 40.313" viewBox="0 0 75.45 40.313" xmlns="http://www.w3.org/2000/svg"><path clip-rule="evenodd" d="m75.327.098c.162 13.175.166 26.845 0 40.062-10.949.141-21.982.146-32.995.146-7.738 0-15.473 0-23.346 0-6.307 0-12.612.061-18.813-.195-.178-1.653-.097-3.321-.097-5.02-.001-1.63.172-3.344.049-4.971-.251-3.309-.049-6.762-.049-10.137 0-5.921-.049-12.042-.048-17.643 0-.755-.135-1.602.243-2.291 24.971.198 49.925-.231 75.056.049zm-17.643 3.265c-.207 2.004-.088 4.096-.146 6.189-.058 2.067.246 4.235-.098 6.19-.859.053-2.143.137-2.924-.049-.387-3.789.066-8.417-.244-12.282-1.105-.262-2.334-.146-3.558-.146-3.685 0-7.561-.077-10.966.146-.173 10.877-.155 22.616 0 33.58 4.84.198 9.86.087 14.523-.049.422-3.944-.121-8.48.244-12.331.886-.049 2.176-.128 2.924 0 .273.875.098 1.864.098 2.875 0 3.078.018 6.504.146 9.455 4.692.155 10.118.173 14.621 0 .265-1.327.146-2.71.146-4.094-.001-8.443 0-17.077 0-25.441 0-1.362.104-2.743-.146-4.045-4.774-.206-9.771-.172-14.62.002zm-54.341-.097c-.059.024-.112.052-.147.097-.231.184-.146 1.321-.146 1.999 0 10.502-.081 21.422.098 31.533 1.35.265 2.76.146 4.142.146 4.046 0 8.322.097 12.574.097 4.261 0 8.635-.142 12.525-.048 1.387.033 2.766.101 4.094-.146.229-3.114.168-6.332 0-9.455-5.946-.289-12.4.199-18.081-.195-.14-.688-.221-2.083.097-2.632 5.886-.19 12.483.146 17.936-.195.325-.567.114-1.297.146-1.998.096-2.114.023-4.57-.098-6.531-1.398-.191-2.916-.098-4.435-.098-4.636 0-9.22.123-13.646-.097-.144-.673-.193-1.983.048-2.583 4.633-.061 9.878-.098 14.671-.098 1.148 0 2.289.111 3.362-.146.176-1.454.098-3.138.098-4.776 0-1.668.115-3.358-.146-4.776-10.635-.117-22.067.008-33.092-.098z" fill-rule="evenodd"/></svg>