<svg enable-background="new 0 0 19.327 14.313" viewBox="0 0 19.327 14.313" xmlns="http://www.w3.org/2000/svg"><path d="m8.598 0c.793.788 1.584 1.577 2.371 2.372 2.786.001 5.571.002 8.357 0 .003 3.564.001 7.129.001 10.693-1.12-1.117-2.238-2.237-3.357-3.356-.105-.106-.207-.214-.322-.309-1.635 1.642-3.277 3.277-4.917 4.914-.773-.796-1.566-1.574-2.351-2.359-2.792.022-5.585.002-8.377.01 0-3.578.002-7.155-.003-10.732 1.233 1.217 2.452 2.448 3.679 3.672.94-.956 1.895-1.896 2.839-2.847.383-.366.732-.768 1.143-1.102.309-.321.642-.621.937-.956zm-4.921 7.287c-.463-.467-.93-.929-1.393-1.396-.175-.177-.364-.342-.515-.541.02.396.005.792.01 1.188-.002 1.219.004 2.438-.003 3.657 1.606-.009 3.213-.009 4.819 0-.59-.572-1.165-1.16-1.747-1.739 1.624-1.648 3.276-3.268 4.904-4.912-.38-.397-.78-.773-1.159-1.172-1.642 1.635-3.281 3.273-4.916 4.915zm9.045-3.177c.581.596 1.175 1.179 1.763 1.767-1.629 1.635-3.263 3.267-4.897 4.898.388.39.787.77 1.16 1.174 1.635-1.63 3.269-3.261 4.896-4.898.657.624 1.278 1.285 1.933 1.911-.015-1.618-.006-3.237-.005-4.855-1.617 0-3.233-.005-4.85.003zm-1.753.597c-.988 1.001-1.987 1.992-2.982 2.986-.282.223-.521.494-.779.743.393.386.777.781 1.171 1.165 1.247-1.247 2.491-2.497 3.743-3.74-.388-.38-.774-.764-1.153-1.154z"/></svg>