<svg enable-background="new 0 0 69.693 70.182" viewBox="0 0 69.693 70.182" xmlns="http://www.w3.org/2000/svg"><path clip-rule="evenodd" d="m69.537.252c.18 5.813.1 11.702.101 17.582.002 17.287.125 34.425 0 52.191-.045.022-.09.044-.101.101-22.996.115-46.061.052-69.269-.151-.36-.606-.201-1.37-.202-2.015-.001-10.968.002-22.071 0-33.148-.001-10.69-.051-21.408-.05-32.645 0-.756-.09-1.814.151-2.065.038-.048.092-.077.151-.102h17.633c11.494-.001 22.739.101 34.256.101 5.742 0 11.544-.114 17.33.151zm-58.79 6.045c-1.105-.05-2.75-.179-3.778 0-.673.117-.554.753-.554 1.511-.001 11.704-.06 23.241.05 34.357.058 5.895.001 12.095 0 18.186 0 1.262-.117 2.504.151 3.526 4.674.246 10.203.209 15.062.05.329-1.121.1-2.284.101-3.425.013-16.861.001-33.308 0-50.528 0-1.182.114-2.377-.151-3.526-3.795-.275-7.282.012-10.881-.151zm37.884.051c-6.84-.082-13.743.059-20.353.151-.269 1.098-.151 2.314-.151 3.526v7.355c0 1.239-.12 2.467.151 3.577 11.466.198 23.621.167 34.911.101.206-2.151.101-4.667.101-7.154 0-1.234 0-2.501 0-3.728 0-1.245.122-2.507-.15-3.627-4.648-.247-9.545-.142-14.509-.201zm-10.882 21.561c-3.174-.009-6.676-.125-9.471.101-.192 2.17-.101 4.666-.101 7.154-.001 2.493-.104 5.012.101 7.204 1.391.269 2.854.151 4.282.151 8.763-.001 17.58.05 26.347.05 1.46 0 2.922.123 4.332-.151.249-3.438.036-7.446.051-10.932.005-1.192.16-2.372-.101-3.426-8.405-.256-17.203-.127-25.44-.151zm-9.32 21.511c-.408.396-.252 1.064-.252 1.612-.001 3.148 0 6.137 0 9.27-.001 1.261-.118 2.504.15 3.627 1.376.271 2.826.151 4.232.151 10.136.001 20.549.072 30.679-.05.185-3.437.102-7.376.102-10.932 0-1.226.122-2.468-.151-3.577-11.225-.21-23.317-.183-34.76-.101z" fill-rule="evenodd"/></svg>