<svg enable-background="new 0 0 32.678 80.942" viewBox="0 0 32.678 80.942" xmlns="http://www.w3.org/2000/svg"><g clip-rule="evenodd" fill-rule="evenodd"><path d="m32.218.154c.105.404-.321.654-.537.879-1.675 1.738-3.461 3.492-5.169 5.266-.967 1.004-2.033 1.955-2.975 2.975-.962 1.041-1.878 2.105-3.024 2.926-6.818-.13-13.788.068-20.333-.147-.163-3.74-.162-8.158 0-11.898.606-.123 1.488-.143 2.097-.147 9.875-.049 20.003.148 29.941.146z"/><path d="m32.364 2.641c.417.277.244.926.244 1.367 0 3.566.04 7.559-.049 11.068-.312.551-.829.975-1.268 1.414-2.834 2.834-5.704 5.865-8.68 8.631-.218.203-.437.537-.78.537-.177-2.842-.097-6.062-.097-9.168 0-.922-.17-2.244.048-3.024.138-.49.796-.99 1.219-1.414 3.062-3.061 6.113-6.34 9.168-9.266.027-.068.076-.117.146-.147.017.002.033.002.049.002z"/><path d="m20.368 13.76c.262 2.031.005 4.178.049 6.193.044 2.014.114 4.09-.098 5.998-6.478.139-13.632.09-20.139-.049-.187-2.908-.098-6.092-.098-9.266 0-1.023-.119-2.059.146-2.975 6.603-.038 13.833-.175 20.14.099z"/><path d="m32.218 27.658c.156.44-.394.574-.537.877-3.285 3.264-6.297 6.443-9.655 9.803-.426.426-.925 1.166-1.414 1.316-.644.197-1.662.047-2.584.049-5.738 0-12.239-.021-17.848-.146-.225-3.531-.098-6.906-.098-10.68 0-.434-.146-1.039.244-1.316 10.569-.112 21.831-.012 31.892.097z"/><path d="m32.364 30.096h.098c.261.934.146 1.984.146 3.024v6.34c0 .91.187 2.375-.049 3.121-.122.383-.882 1.057-1.268 1.414-2.827 2.609-5.401 5.303-8.095 7.996-.417.418-.785 1.014-1.415 1.121-.038-4.055-.193-8.199 0-12.092.207-.688.857-.932 1.219-1.463 1.307-1.344 2.648-2.652 3.901-4.049 1.841-1.701 3.464-3.623 5.315-5.314.037-.046.09-.075.148-.098z"/><path d="m20.319 41.264c.163 3.82.163 8.32 0 12.141-4.94.143-10.165.051-15.263.049-1.694 0-3.38.074-4.925-.146-.075-2.801-.098-6.172-.098-9.312 0-.512-.022-1.061 0-1.561.019-.416-.072-1.002.292-1.268 6.545-.056 13.749-.157 19.994.097z"/><path d="m32.218 55.111c.078.383-.317.658-.537.879-1.68 1.68-3.4 3.498-5.12 5.217-.986.986-1.961 2.025-2.975 2.975-1.02.957-1.877 2.078-3.023 2.877-4.959.043-10.404 0-15.507 0-1.683 0-3.362.055-4.925-.146-.122-2.937-.098-5.978-.098-8.973 0-.984-.152-2.07.195-2.926 10.868-.096 21.232.015 31.99.097z"/><path d="m32.364 57.551c.317.338.229.91.244 1.365.115 3.66-.082 7.518-.049 10.971-.247.598-.782 1.025-1.219 1.463-2.638 2.637-5.421 5.324-8.095 7.998-.426.426-.808 1.035-1.463 1.17-.116-2.941-.097-5.74-.097-8.973 0-.984-.188-2.275.049-3.121.145-.52.759-1.002 1.219-1.463 1.376-1.375 2.63-2.602 3.95-3.998 1.773-1.754 3.475-3.58 5.267-5.314.036-.047.089-.074.146-.098z"/><path d="m20.319 68.717c.194 2.973.098 6.107.098 9.168 0 1.006.115 2.049-.146 2.975-6.602.146-13.41.088-20.14-.098-.16-3-.098-6.055-.098-9.217 0-1.017-.116-2.045.147-2.975 5.667-.141 12.063 0 17.799 0 .789 0 1.605-.113 2.34.147z"/></g></svg>