<svg enable-background="new 0 0 67.018 66.749" viewBox="0 0 67.018 66.749" xmlns="http://www.w3.org/2000/svg"><path clip-rule="evenodd" d="m40.511 40.397c7.21-.205 15.217.21 22.743 0 .604-.668.687-1.673.824-2.618.439-2.994.374-6.518-.097-9.505-.621-3.942-2.12-7.188-3.54-10.184-.338-.713-.936-1.535-1.454-2.279-3.56-5.098-8.675-8.902-14.791-11.299-3.566-1.396-8.166-1.99-12.947-1.261-2.994.457-5.95 1.569-8.244 2.958-.357.216-.764.462-1.115.727-.335.253-.815.547-.776 1.067.625.274 1.292-.107 1.843-.292 1.738-.583 3.459-1.209 5.528-1.6 2.626-.495 5.886-.8 8.777-.34 2.807.447 5.243 1.09 7.517 2.037 1.065.443 2.128 1.066 3.104 1.648 4.85 2.9 8.793 7.136 11.299 12.512 1.692 3.631 2.586 8.825 2.182 14.159-.052.69.027 1.443-.29 2.086-6.423.015-14.343.149-21.047-.098-.515-.019-1.021.103-1.309 0-.304-.106-.583-.605-.825-.921-.273-.357-.584-.693-.63-1.067 6.812-.307 14.246.177 21.288-.048.435-1.188.415-2.509.34-3.734-.546-8.891-4.728-14.747-9.989-18.863-2.839-2.221-7.003-4.396-11.784-4.704-3.888-.251-7.615.619-10.28 1.988-.854.438-1.927.906-2.23 1.891.871.269 1.885-.227 2.764-.484 2.613-.767 6.015-1.132 9.31-.775 2.038.219 3.878.8 5.528 1.503 4.819 2.054 8.656 5.341 11.057 9.941 1.588 3.044 3.038 6.661 2.667 11.104-3.235.18-6.731.101-10.184.049-3.445-.052-6.884-.061-10.184-.098-.568-.563-1.281-1.238-1.455-2.036 5.425-.224 11.283.018 16.827.049.762.004 1.562.109 2.279-.146.073-.821-.164-1.648-.339-2.424-.515-2.268-1.444-4.392-2.57-6.159-1.502-2.356-3.445-4.466-5.723-5.916-2.282-1.453-5.2-2.813-8.825-2.813-2.73 0-5.105.716-6.936 1.794-.57.337-1.373.658-1.503 1.406.534.425 1.21.012 1.746-.146 1.812-.529 3.944-.683 6.11-.533 2.71.187 5.042 1.087 6.934 2.183 2.762 1.598 5.112 4.132 6.595 7.08.515 1.023.979 2.182.97 3.442-1.354.166-2.806.138-4.268.097-4.168-.115-8.778.023-13.044-.097-.354-.245-.582-.632-.825-.97-.232-.325-.605-.63-.63-1.115 4.73-.266 10.235.043 14.888-.146-.002-.757-.443-1.422-.825-1.988-1.109-1.65-2.794-3.077-4.654-4.024-2.506-1.276-5.954-2.203-9.554-1.31-5.872 1.458-10.352 5.525-10.862 12.269-.136 1.78.105 3.228.388 4.655.421 2.133 1.628 3.915 2.861 5.334 2.396 2.759 6.467 4.93 11.686 4.511 1.766-.143 3.444-.587 4.85-1.262.343-.164 1.056-.663 1.406-.63.393.037.701.622.921.921.31.421.545.655.631 1.164-.84.832-2.104 1.301-3.395 1.746-2.439.842-6.017 1.29-9.02.582-.701-.166-1.369-.342-2.037-.534-.627-.18-1.363-.518-1.988-.242.009.824.877 1.198 1.455 1.552 1.938 1.187 4.184 1.948 7.129 2.134 2.905.183 5.451-.682 7.564-1.648.273-.126.693-.282 1.066-.485.364-.197.758-.506 1.019-.484.445.035.593.588.824.921.284.406.644.7.68 1.067-.508.677-1.409.92-2.183 1.309-3.676 1.848-9.237 3.06-14.548 1.939-.979-.206-1.906-.412-2.812-.679-.876-.257-1.713-.822-2.619-.63-.125.552.438.909.776 1.163 2.541 1.906 6.433 3.269 10.813 3.201 3.712-.058 6.947-1.095 9.65-2.376.369-.176.857-.363 1.357-.631.412-.22 1.019-.696 1.31-.679.662.039 1.208 1.618 1.552 1.988-.669.824-1.748 1.264-2.764 1.746-2.962 1.404-6.488 2.504-10.523 2.86-5.136.454-9.703-.472-13.384-1.988-.521-.215-1.113-.596-1.697-.339-.04.653.63 1.051 1.066 1.357 1.414.991 3.32 1.812 5.092 2.376 2.552.812 5.338 1.377 8.632 1.358 3.097-.018 6.071-.711 8.39-1.601 1.749-.671 3.587-1.358 5.237-2.279.492-.275 1.309-.852 1.648-.824.35.027.623.522.873.873.167.233.647.846.631 1.067-.026.361-.963.85-1.406 1.115-3.609 2.166-8.012 3.731-12.899 4.413-3.029.423-6.532.437-9.359-.097-.749-.142-1.432-.154-2.134-.34-1.965-.518-3.935-1.034-5.674-1.745-9.257-3.79-15.861-10.974-19.203-20.465-.867-2.464-1.39-5.341-1.648-8.292-.578-6.574 1.064-12.045 3.249-16.391 1.126-2.24 2.301-4.318 3.782-6.11 3.035-3.673 6.425-6.679 10.814-9.019 3.331-1.777 6.945-3.007 11.25-3.637.709-.104 1.421-.253 2.183-.291 10.819-.538 18.364 3.256 24.151 8.15 1.294 1.095 2.607 2.392 3.733 3.734 1.058 1.261 2.011 2.749 2.91 4.219 2.866 4.688 5.112 10.656 4.801 18.476-.058 1.443-.19 2.895-.389 4.267-.184 1.28-.352 2.647-1.115 3.54-7.771.228-15.702.01-23.567-.049-.383-.17-.576-.587-.824-.921-.23-.308-.684-.612-.583-1.067zm-28.465-28.61c-.669.109-1.397 1.214-1.939 1.843-2.7 3.136-4.955 7.043-6.207 11.347-.537 1.847-.914 3.729-1.067 5.965-.613 8.956 2.599 16.414 6.594 21.336.686.512 1.084 1.563 2.037 1.649.272-.432-.108-.868-.291-1.213-1.421-2.666-2.71-5.187-3.686-8.341-1.082-3.496-1.866-7.484-1.844-11.929.022-4.273 1.108-8.082 2.377-11.348.657-1.694 1.288-3.297 2.085-4.801.397-.749.836-1.465 1.261-2.183.414-.699 1.061-1.398 1.066-2.279-.146-.067-.267-.066-.386-.046zm2.861 36.176c-.312-.607-.55-1.266-.824-1.892-1.649-3.755-2.773-8.062-2.716-13.578.054-5.137 1.611-9.354 3.346-12.947.321-.664 1.117-1.916 1.455-2.619.202-.418.3-1.093-.291-.824-1.044.476-2.127 2.081-2.909 3.152-2.499 3.42-4.517 8.125-4.51 13.626.004 3.679.756 7.219 1.988 10.087.872 2.031 2.023 4.12 3.346 5.674.444.521.983 1.273 1.746 1.213.2-.722-.342-1.328-.631-1.892zm5.237-28.175c-4.225 3.309-7.027 10.296-5.528 17.894.557 2.822 2.067 5.475 3.589 7.42.545.697 1.086 1.597 1.988 1.697.22-1.188-.469-1.935-.824-2.764-1.403-3.272-2.483-7.186-2.232-11.881.134-2.487.661-4.769 1.358-6.741.542-1.53 1.248-2.866 1.843-4.219.189-.433.526-1.005.242-1.503-.175.002-.382-.027-.436.097z" fill-rule="evenodd"/></svg>