<svg enable-background="new 0 0 183.754 183.958" viewBox="0 0 183.754 183.958" xmlns="http://www.w3.org/2000/svg"><g clip-rule="evenodd" fill-rule="evenodd"><path d="m82.541 0c17.384 3.444 30.275 11.758 40.149 23.008 2.438 2.776 4.601 5.861 6.682 9.08.693 1.072 1.433 2.178 1.99 3.265.307.598.48 1.286.766 1.888.277.591.608 1.15.918 1.734.615 1.163 1.062 2.438 1.581 3.673 1.04 2.482 2.009 4.986 2.806 7.703 1.6 5.452 2.352 11.645 2.602 18.314.258 6.863-.74 13.172-2.092 18.824-1.25 5.231-3.285 9.94-5.407 14.335-.106.221-.123.659-.459.715.319-2.606.971-5.171 1.326-7.856.358-2.708.648-5.479.766-8.417.229-5.729-.423-11.67-1.429-16.784-.514-2.615-1.012-5.061-1.785-7.398-2.266-6.845-5.2-13.141-8.877-18.62-4.803-7.423-10.91-13.543-17.906-18.773-3.547-2.577-7.447-4.733-11.529-6.784-3.092-1.555-6.332-2.812-9.846-3.929-1.127-.358-2.32-.58-3.418-1.122.512-3.105 1.402-6.397 2.194-9.539.265-1.05.438-2.36.815-3.163.029-.075.08-.126.153-.154z"/><path d="m70.502 13.672c8.919 1.184 16.751 3.951 23.313 7.398 6.849 3.595 12.623 7.931 17.65 12.957 5.068 5.067 9.441 11.01 12.855 17.804 2.541 5.055 4.669 10.688 5.969 16.988.438 2.115 1.107 4.287.971 6.581-.693-1.902-1.146-3.832-1.735-5.663-1.187-3.69-2.536-7.256-4.233-10.509-3.34-6.396-7.307-12.408-12.193-17.294-.605-.605-1.145-1.296-1.785-1.888-.629-.58-1.275-1.173-1.888-1.785-1.22-1.219-2.613-2.271-4.03-3.367-1.379-1.066-2.778-2.137-4.234-3.111-2.967-1.987-6.111-3.751-9.387-5.357-1.66-.814-3.29-1.665-5.05-2.346-4.398-1.701-9.124-3.045-14.386-4.03-.998-.187-2.037-.29-3.01-.663.219-1.991.502-3.92 1.02-5.611.037-.049.092-.08.153-.104z"/><path d="m112.844 128.148c-.175-.264.256-.458.408-.561 1.534-1.035 3.446-2.021 4.897-3.163 3.41-2.544 6.638-4.955 9.488-7.806 1.462-1.461 2.809-2.958 4.184-4.488 1.338-1.489 2.473-3.229 3.725-4.897 1.232-1.646 2.422-3.34 3.52-5.153 1.074-1.774 1.943-3.74 2.959-5.662 1.91-3.616 3.607-8.177 4.592-12.651.51-2.322 1.115-4.663 1.529-7.143 1.211-7.251 1.376-16.42.051-23.926-1.268-7.182-3.429-13.82-6.223-19.69-.655-1.376-1.434-2.793-2.245-4.234-.255-.454-.707-1.209-.663-1.48.053-.326.808-.711 1.225-.969 2.77-1.717 5.254-3.332 8.009-5.102.437-.28 1.155-.906 1.53-.918.52-.017.881.858 1.275 1.429 2.514 3.626 4.659 8.027 6.377 12.243 1.041 2.556 1.922 5.193 2.652 8.009 1.418 5.469 2.61 11.985 2.398 18.773-.107 3.399-.465 6.72-.715 9.948-.496 6.401-2.525 12.051-4.336 16.937-.472 1.272-1.146 2.403-1.734 3.622-.58 1.202-1.136 2.411-1.734 3.571-1.205 2.334-2.742 4.444-4.133 6.529-1.418 2.129-3.045 4.084-4.693 5.969-3.342 3.822-6.994 7.058-11.121 10.152-4.125 3.093-8.428 5.577-13.467 7.805-2.409 1.063-4.887 2.115-7.755 2.856z"/><path d="m131.72 21.069c.586.109 1.182 1.315 1.683 2.091 1.441 2.228 3.023 4.448 4.286 6.734 3.484 6.307 6.413 13.241 7.805 21.579 1.383 8.288 1.676 18.751 0 26.986-.83 4.075-1.878 8.002-3.214 11.479-1.358 3.533-2.792 7.005-4.694 9.998-1.441 2.271-2.767 4.529-4.336 6.684-.251.345-.592.654-.815 1.02-.226.368-.37.878-.868.97.565-1.588 1.559-2.986 2.348-4.489 2.358-4.498 4.331-9.339 5.917-14.794 2.083-7.163 2.929-15.74 2.347-24.895-.267-4.208-1.033-8.228-1.887-11.938-.867-3.762-2.012-7.208-3.367-10.457-1.371-3.286-2.973-6.263-4.592-9.234-.822-1.511-1.657-2.949-2.602-4.336s-1.896-2.74-2.703-4.183c1.399-1.236 3.159-2.111 4.692-3.215z"/><path d="m127.383 70.858c-.445-.316-.733-.82-1.021-1.275-2.046-3.244-4.227-6.492-6.734-9.335-3.736-4.384-7.783-8.176-12.549-11.529-1.562-1.1-3.135-2.24-4.795-3.214-6.648-3.897-14.176-7.221-23.109-8.978-4.438-.873-9.249-1.633-14.438-1.633-10.557.001-19.051 2.159-26.986 5.051-3.217 1.172-6.472 2.933-9.488 4.54-.469.25-1.154.642-1.378.612-.388-.051-.683-.831-.97-1.275-1.814-2.817-3.361-5.457-5.254-8.213-.262-.381-.827-1.134-.816-1.429.019-.502 1.24-1.081 1.785-1.429 4.588-2.921 9.537-5.423 15.101-7.397 6.512-2.312 13.533-3.438 21.886-3.826 4.783-.222 9.865.304 13.875 1.02 6.513 1.164 11.841 2.74 16.938 5.204 14.913 7.21 26.445 17.729 33.771 32.547.809 1.637 1.641 3.314 2.346 5.05.718 1.765 1.434 3.582 1.836 5.509z"/><path d="m107.845 52.442c-1.538-.656-2.937-1.59-4.438-2.397-1.486-.799-3.105-1.448-4.693-2.143-3.174-1.387-6.513-2.578-10.101-3.521-1.8-.472-3.586-.995-5.51-1.326-5.715-.983-12.193-1.429-19.08-1.02-8.229.487-15.675 2.648-22.037 5.203-6.515 2.615-12.154 6.229-17.295 9.947-.799-.637-1.344-1.562-1.938-2.397-.599-.841-1.205-1.72-1.684-2.652 1.247-1.105 2.621-2.095 4.029-3.01 8.392-5.457 18.344-9.778 30.762-11.274 1.057-.127 2.127-.236 3.215-.306 11.023-.712 21.332 1.031 29.384 4.081 1.802.683 3.544 1.536 5.306 2.295 3.582 1.544 6.807 3.251 9.896 5.255 1.138.737 2.257 1.497 3.316 2.347.315.252.7.539.868.918z"/><path d="m101.366 51.83c-2.545-.46-5.107-.943-7.806-1.326-8.08-1.145-17.836-.545-25.15.97-9.999 2.069-18.356 6.2-25.507 10.968-3.562 2.375-6.83 5.319-9.947 8.315-3.127 3.004-5.951 6.297-8.469 9.744-1.307 1.787-2.562 3.539-3.674 5.458-2.209 3.816-4.128 7.968-5.764 12.499-.401 1.11-.801 2.229-1.174 3.366-.369 1.129-.516 2.353-1.123 3.418-2.131-.229-4.252-.992-6.427-1.429-2.186-.438-4.381-.875-6.326-1.632.026-1.114.364-2.192.612-3.265.24-1.036.57-2.053.867-3.061.593-2.013 1.165-4.005 1.99-5.866.817-1.844 1.649-3.667 2.449-5.458 4.05-9.077 9.669-16.466 16.733-22.6 5.718-4.966 11.901-9.067 19.386-12.142 6.596-2.71 13.545-4.674 22.089-5.459 11.524-1.059 21.936 1.339 30.2 4.285 1.867.666 3.662 1.438 5.459 2.245.549.248 1.227.437 1.582.97z"/><path d="m73.103 53.156c-1.77.766-3.641 1.228-5.407 1.837-3.594 1.24-6.85 2.759-9.999 4.489-1.572.864-3.202 1.638-4.642 2.601-2.896 1.94-5.615 4.075-8.265 6.224-2.663 2.161-5.076 4.601-7.296 7.193-6.808 7.622-12.24 16.765-15.661 27.803-.571 1.845-1.052 3.795-1.48 5.765-.426 1.958-.457 4.044-1.173 6.02-.909.048-1.897-.206-2.856-.357-.943-.149-1.958-.207-2.653-.663.644-6.555 2.5-12.414 4.693-17.651 3.66-8.74 8.511-16.348 14.692-22.65 3.678-3.678 7.773-7.192 12.346-10.1 1.5-.955 3.016-1.991 4.591-2.857 3.213-1.766 6.69-3.165 10.356-4.591 3.652-1.421 7.706-2.445 11.886-3.062.18-.026.558-.125.868-.001z"/><path d="m63.563 64.942c6.67-6.636 14.951-11.188 27.6-11.785 5.367-.253 10.73 1.091 14.641 2.552 8.301 3.101 14.408 8.55 18.824 15.457 2.264 3.54 3.942 7.494 5.102 12.039.605 2.37.968 4.913 1.021 7.55.027 1.366-.123 2.714-.103 4.082.021 1.305-.188 2.666-.357 3.928-.624 4.687-2.433 9.236-4.438 12.702-2.057 3.555-4.685 6.786-7.652 9.489-5.943 5.415-13.496 9.649-23.824 10.509-5.513.459-10.715-.47-15.049-1.888-8.467-2.771-15.125-7.95-19.844-14.438-4.721-6.486-8.041-15.79-6.888-26.884 1.061-10.201 5.475-17.371 10.967-23.313zm61.218 26.169c-.797-9.39-4.145-16.406-9.081-21.63-2.732-2.893-6.267-5.711-10.202-7.346-4.081-1.695-8.739-3.283-14.54-3.01-1.937.091-3.83.212-5.509.561-4.894 1.017-8.983 2.592-12.55 5.101-6.936 4.881-12.025 11.572-14.08 21.222-.71 3.338-.875 6.991-.408 10.765.861 6.938 3.514 12.048 7.092 16.477 3.469 4.294 8 7.822 13.519 9.998 5.593 2.206 13.307 3.219 20.202 1.429 6.143-1.595 11.051-4.613 15.15-8.366 3.035-2.777 5.545-6.349 7.346-10.305.608-1.336 1.281-2.741 1.531-4.285-.608-.221-1.498-.146-2.296-.153-.788-.007-1.934-.149-2.398.102-.398.214-.72 1.393-.969 1.939-2.173 4.742-5.156 8.572-9.081 11.427-2.15 1.563-4.646 3.143-7.55 4.132-2.875.979-6.309 1.764-10.051 1.479-3.631-.274-6.883-.902-9.743-1.939-2.815-1.019-5.187-2.479-7.448-4.285-4.182-3.338-7.867-8.121-9.387-14.028-.838-3.257-1.346-7.031-.969-10.51.934-8.646 4.881-14.807 10.1-19.181 3.253-2.726 6.958-4.598 11.734-5.816 3.219-.82 6.904-1.042 10.611-.51 6.667.957 11.618 3.921 15.66 7.755 2.33 2.104 4.064 4.827 5.561 7.805.744 1.477 1.457 3.018 1.889 4.795.426 1.757.943 3.68.765 5.765-15.276.283-31.625.407-46.984.408-1.009 0-2.073-.12-3.061.153-.142 1.273-.222 3.298.051 4.489 18.296.271 36.733-.138 54.993-.307.251-1.384.215-2.817.103-4.131z"/><path d="m69.839 56.983c-7.554 4.716-13.998 10.235-19.283 17.142-.666.869-1.267 1.762-1.888 2.703-.591.896-1.298 1.746-1.888 2.653-1.202 1.846-2.32 3.737-3.367 5.714-2.099 3.962-3.999 8.209-5.407 12.753-1.417 4.57-2.636 9.576-3.062 15.151-.43 5.638-.435 11.725.408 17.039.412 2.592.893 5.182 1.531 7.601.642 2.431 1.42 4.689 2.193 6.888 1.354 3.845 3.169 7.318 5.152 10.764.283.492.738 1.267.715 1.53-.037.406-.848.827-1.225 1.071-2.373 1.534-4.646 2.774-7.041 4.234-.387.236-.837.549-1.377.867-.369.218-1.158.798-1.479.766-.311-.032-.941-1.014-1.225-1.429-1.098-1.604-2.07-3.281-2.959-4.948-1.196-2.241-2.426-4.611-3.418-7.091-3.014-7.533-4.997-16.181-5.152-26.375-.051-3.289.299-6.56.714-9.692 1.625-12.266 6.206-21.975 11.784-30.303 2.76-4.119 6.09-7.723 9.693-11.325 1.738-1.738 3.799-3.15 5.662-4.847.903-.822 1.988-1.511 3.01-2.244 3.11-2.232 6.205-4.004 9.947-5.815 1.682-.813 3.651-1.618 5.612-2.296.685-.236 1.349-.58 1.938-.663.146-.021.734-.157.412.152z"/><path d="m164.675 69.839c1.945.248 3.921.466 5.561 1.02-.194 2.207-.655 4.356-1.123 6.428-.476 2.108-.883 4.196-1.48 6.173-2.352 7.793-6.048 14.255-10.253 20.304-1.004 1.444-2.209 2.924-3.418 4.234-1.242 1.345-2.412 2.757-3.674 3.929-2.688 2.496-5.362 4.849-8.314 6.988-1.489 1.078-2.998 2.1-4.592 3.061-1.559.941-3.16 1.834-4.795 2.807-1.613.959-3.447 1.65-5.255 2.397-3.615 1.493-7.494 2.794-11.632 3.673-2.104.447-4.277.968-6.529.97 1.826-.813 3.8-1.092 5.611-1.734 5.388-1.913 10.441-4.183 15.049-6.938 3.026-1.81 5.814-3.948 8.571-6.07 2.732-2.104 5.287-4.58 7.55-7.092 2.279-2.529 4.59-5.214 6.529-8.111 1.941-2.897 3.865-5.962 5.408-9.233.761-1.613 1.557-3.352 2.193-5.152 1.734-4.898 3.385-10.073 4.133-16.019.07-.563.047-1.308.306-1.53.038-.051.093-.081.154-.105z"/><path d="m50.198 78.664c.043-.009.048.02.051.051-1.143 2.939-3.021 6.125-4.081 9.132-1.103 3.128-2.308 6.575-3.163 9.998-1.727 6.917-2.491 15.336-1.734 23.978.683 7.788 2.689 15.115 5.357 20.967.673 1.477 1.301 3.009 2.091 4.489.763 1.429 1.44 2.927 2.245 4.336 1.146 2.012 2.527 3.983 3.928 5.969.4.568 1.346 1.564 1.326 1.938-.02.362-.609.644-.969.918-.748.572-1.342 1.08-2.143 1.633-.29.2-.871.688-1.174.663-.475-.038-1.216-1.425-1.582-1.938-.595-.836-.949-1.52-1.377-2.143-2.854-4.151-5.344-8.797-7.295-13.672-2.707-6.763-4.27-14.358-4.693-23.262-.214-4.494.243-9.007.867-13.111 1.259-8.274 3.766-14.562 6.939-21.018 1.085-2.207 2.403-4.559 3.825-6.684.535-.798.889-1.638 1.48-2.142.012-.055.102-.034.102-.102z"/><path d="m171.204 79.889c3.076.546 6.536 1.318 9.591 1.989 1.023.225 2.087.378 2.959.867-.131 1.448-.665 2.818-1.021 4.184-.36 1.382-.801 2.706-1.225 4.03-1.74 5.433-3.48 10.42-6.274 14.845-1.393 2.205-2.651 4.427-4.132 6.428-3.006 4.064-6.426 7.677-10.152 10.968-3.774 3.333-7.848 6.144-12.346 8.774-4.322 2.528-9.41 4.522-14.895 6.224-7.987 2.478-18.607 3.376-28.466 2.194-3.131-.376-6.066-1.02-8.928-1.633-2.811-.602-5.394-1.645-7.908-2.653-1.894-.759-3.719-1.545-5.509-2.397-.565-.269-1.286-.395-1.632-.969 1.986.134 3.848.804 5.814 1.122 5.711.924 12.758 1.538 19.232.918 8.236-.787 15.658-2.924 21.988-5.561 6.475-2.697 12.206-6.204 17.395-10.202 5.22-4.022 9.696-8.758 13.569-13.979 5.158-7.102 9.277-15.244 11.785-24.997.031-.073.081-.124.155-.152z"/><path d="m104.528 171.204c.001 1.112-.348 2.205-.611 3.265-.524 2.096-.996 4.202-1.531 6.326-.264 1.047-.385 2.129-.816 3.111-.059-.008-.09.012-.102.052-3.044-.417-5.882-1.055-8.57-1.888-2.637-.817-5.05-1.931-7.448-2.959-2.474-1.061-4.856-2.074-7.04-3.418-6.441-3.965-12.244-8.382-17.242-14.029-4.177-4.718-7.641-9.739-10.611-15.457-.596-1.146-1.033-2.401-1.582-3.622-2.149-4.788-3.748-10.214-4.744-16.12-.504-2.991-.705-6.131-.867-9.54-.504-10.535 1.674-19.097 4.436-26.732.919-2.537 1.69-5.104 3.113-7.295.005-.041.168-.155.152-.052.043-.009.049.021.051.052-.768 3.807-1.496 7.59-1.836 11.835-.337 4.2-.145 9.021.051 13.314.125 2.757.771 5.429 1.275 7.806 2.125 10.012 6.068 18.375 10.917 25.507 4.874 7.17 10.971 13.379 18.11 18.314 2.703 1.869 5.43 3.676 8.469 5.203 2.959 1.488 6.088 3.054 9.438 4.234 2.258.797 4.665 1.195 6.988 2.093z"/><path d="m52.341 111.364c.043-.01.049.02.051.051.041.01.051.052.102.051 1.627 5.558 3.609 10.697 6.174 15.406.845 1.553 1.685 3.141 2.601 4.592.918 1.455 2.022 2.795 3.01 4.184 2.985 4.195 6.34 7.998 10.355 11.223 3.834 3.346 7.979 6.309 12.652 8.928 1.531.858 3.059 1.82 4.643 2.551 6.588 3.041 14.003 5.05 22.496 6.274.01.041.052.051.052.103-.154 1.769-.479 3.805-.97 5.407-4.544-.314-8.65-1.277-12.498-2.398-2.971-.864-5.633-1.842-8.213-3.061-7.538-3.557-14.317-8.137-20.049-13.62-5.089-4.819-9.352-10.521-13.01-16.988-2.644-4.677-4.787-10.159-6.274-16.223-.504-2.057-1.125-4.243-1.173-6.325.027-.042.053-.084.051-.155z"/><path d="m55.963 114.221c-.009-.059.011-.091.051-.102.042.01.052.051.103.051 4.706 7.501 10.17 14.034 17.039 19.386 5.086 3.962 10.743 7.384 17.191 10.101 6.279 2.646 13.486 4.837 21.936 5.356 2.864.176 5.881.446 8.826.307 2.873-.137 5.703-.334 8.417-.664 4.917-.597 10.167-2.158 14.539-3.673 3.853-1.334 7.405-3.145 10.917-4.999.506-.268 1.284-.743 1.531-.715.293.034.73.75 1.02 1.174 1.826 2.671 3.42 5.334 5.051 8.111.225.383.816 1.008.766 1.479-.041.379-.973.834-1.48 1.173-7.939 5.3-17.092 9.041-28.721 10.662-6.364.888-13.578.886-19.845.153-6.169-.721-11.978-2.302-16.784-4.234-9.961-4.005-18.017-10.062-24.996-17.039-1.715-1.714-3.325-3.675-4.847-5.662-4.575-5.978-8.335-12.613-10.713-20.814-.001-.017-.001-.034-.001-.051z"/><path d="m76.624 133.097c1.564.609 2.932 1.55 4.437 2.295 2.949 1.459 6.092 2.872 9.438 3.98 1.668.552 3.356 1.206 5.102 1.582 7.3 1.569 15.557 2.547 24.487 1.887 8.457-.625 15.368-2.45 21.783-5.05 5.638-2.285 10.509-4.959 15.101-8.366.594-.441 1.428-1.205 1.938-1.378s.777.31 1.123.816c.518.76.949 1.377 1.478 2.143.22.316.672.853.664 1.122-.014.495-1.401 1.273-1.939 1.684-2.015 1.542-4.343 2.926-6.479 4.234-1.49.912-3.118 1.677-4.744 2.397-8.211 3.641-17.337 6.579-29.18 6.581-7.097.001-13.539-.788-19.182-2.296-1.934-.517-3.812-.953-5.561-1.581-3.486-1.254-6.861-2.718-9.896-4.438-2.294-1.3-4.524-2.562-6.633-4.081-.65-.471-1.492-.809-1.937-1.531z"/></g></svg>