<svg enable-background="new 0 0 70.657 68.195" viewBox="0 0 70.657 68.195" xmlns="http://www.w3.org/2000/svg"><path clip-rule="evenodd" d="m70.464.327c.064.648-.309 1.246-.53 1.831-1.539 4.077-2.556 8.873-3.277 13.828-.833 5.729-1.108 11.927-1.108 18.117 0 6.312.585 12.44 1.301 18.213.175 1.414.525 2.806.723 4.192.398 2.783 1.146 5.358 1.879 7.854.184.625.36 1.276.578 1.879.217.6.626 1.135.626 1.783-.671.26-1.428.145-2.12.145-16.92.005-34.145-.099-51.074-.097-4.454 0-8.848-.137-13.299-.048-1.385.027-2.787.158-4.144-.097-.116-.668.279-1.271.482-1.879 1.376-4.128 2.635-8.787 3.18-13.828.155-1.436.42-2.864.53-4.337.33-4.433.627-9.034.627-13.829 0-3.182-.141-6.347-.193-9.443-.024-1.452-.14-2.99-.337-4.433-.203-1.485-.255-2.981-.482-4.385-.463-2.856-.782-5.674-1.494-8.239-.533-1.927-1.078-3.741-1.732-5.54-.21-.576-.552-1.151-.531-1.782 1.495-.259 3.04-.145 4.577-.146 1.568 0 3.153.001 4.722 0 3.132 0 6.282.146 9.396 0 4.176-.194 8.759.001 12.961 0 4.298 0 8.62.096 12.816.097 8.751.002 17.397-.107 25.923.144zm-26.645 1.109c-.047.279.365.396.578.481.865.348 1.761.664 2.409 1.156 2.377 1.565 3.599 5.714 2.458 9.396-.445 1.436-1.315 2.891-2.072 4.048-.582.89-1.402 1.806-2.216 2.554-.835.767-1.691 1.52-2.602 2.217-1.803 1.38-3.99 2.485-6.167 3.421-4.006 1.72-8.664 2.658-13.636 3.18-.525.056-1.543-.146-1.735.675.142.591.841.35 1.205.337 1.693-.059 3.234-.074 4.77-.289 2.027-.283 4.123-.354 5.975-.723.944-.188 1.895-.345 2.794-.53 2.732-.56 5.332-1.413 7.661-2.457 4.365-1.956 9.04-4.632 11.227-8.865.774-1.499 1.494-3.157 1.494-5.252 0-2.619-1.266-4.239-2.409-5.83-2.312-2.076-5.36-3.669-9.734-3.519zm-2.264 9.058c.059 2.774-1.026 4.924-2.409 6.697-2.81 3.603-6.247 5.753-11.034 7.275-1.711.544-3.595.994-5.493 1.35-.516.096-1.698.11-1.542.771.104.438 1.146.197 1.734.145.745-.067 1.626-.193 1.976-.241 6.58-.892 12.034-2.729 16.382-5.686 1.758-1.195 3.255-2.624 4.577-4.24 1.575-2.179 3.52-5.248 2.843-8.769-.853-4.433-6.263-6.608-11.612-5.156-1.329.361-2.457.861-3.469 1.494-.481.301-1.088.604-1.301 1.204.688.007 1.265-.345 1.831-.434 2.641-.413 4.719.827 6.071 1.976.74 1.043 1.413 2.058 1.446 3.614zm13.828-4.818c.742 1.573 1.493 2.924 1.542 5.011.047 1.994-.628 3.993-1.445 5.541-.806 1.526-1.855 3.002-2.987 4.047-2.427 2.24-5.424 4.239-8.48 5.59-4.794 2.117-10.771 3.3-17.153 3.902-.925.088-2.147.247-3.228.289-.628.024-2.967-.141-2.891.627.055.56 1.195.349 1.783.337.877-.018 1.563.089 2.12.097 1.616.022 3.279-.155 4.915-.289 1.617-.132 3.247-.277 4.818-.434 3.119-.312 6.14-.915 8.817-1.639 1.42-.384 2.822-.64 4.144-1.06 4.016-1.277 7.64-2.851 10.311-5.445 2.459-2.021 4.025-6.16 2.794-10.215-.404-1.33-1.198-2.616-2.023-3.661-.862-1.091-1.821-2.172-2.939-2.795-.011-.037-.041-.057-.096-.048-.009.057-.088.109-.002.145zm-24.718 4.096c1.909-.135 3.356.783 3.951 1.927 1.833 3.526-1.998 7.126-4.047 8.625-2.095 1.532-4.705 2.823-7.757 3.421-.632.124-1.67.131-1.445.723.116.305.466.259 1.06.193 1.307-.147 2.645-.448 3.517-.676 3.107-.808 5.497-1.836 7.806-3.275 2.721-1.697 5.331-4.24 6.457-7.565.18-.529.299-1.141.337-1.638.143-1.851-.397-3.016-1.205-3.854-1.079-1.121-2.899-1.868-5.348-1.639-.509.048-1.022.259-1.494.434-.992.367-1.781.741-2.554 1.301-1.216.882-2.469 2.104-3.083 3.276 1.114-.411 2.315-1.149 3.805-1.253zm-3.806 11.467c1.477-.66 2.976-1.572 4.096-2.505.965-.805 2.097-2.117 2.602-3.276 1.089-2.502-.572-4.85-3.277-4.385-3.154.542-4.897 2.891-6.408 5.203-.645.782-.943 1.837-1.301 2.892-.352 1.036-.787 2.184-.771 3.372 1.754.199 3.497-.602 5.059-1.301zm-4.819 11.804c6.291.3 12.683-.005 18.647-.481 2.151-.172 4.27-.516 6.264-.819 2.037-.31 4.049-.666 5.975-1.108 1.857-.426 3.606-1.156 5.3-1.782 3.339-1.235 6.357-3.55 6.601-7.564.132-2.18-.563-3.642-1.205-5.107-.514-1.174-1.102-2.277-1.831-3.228-.048 0-.096 0-.145 0v.144c.829 4.384-.859 7.514-2.987 9.685-2.193 2.237-4.991 3.866-8.046 5.06-6.161 2.404-13.899 3.668-21.972 4.191-2.048.133-4.158.266-6.215.241-.552-.007-1.497-.259-1.783.434.261.537.949.314 1.397.334zm40.908 20.816c.721-1.354 1.484-2.898 1.831-4.529.59-2.772-.073-5.121-1.301-6.697-1.659-1.882-4.08-3.179-6.746-4.144-3.586-1.298-7.588-2.019-11.853-2.603-5.866-.802-11.8-1.299-17.731-1.445-1.35-.033-3.013.008-4.433 0-.893-.005-1.851-.294-2.072.386.681.559 1.677.333 2.506.386.903.057 1.822.136 2.698.192 5.511.355 10.58.997 15.322 2.072 6.35 1.439 12.303 3.083 16.526 6.697 2.019 1.656 3.949 4.005 4.336 7.275.132 1.11.103 2.266 0 3.518.498-.052.687-.678.917-1.108zm-5.011 6.745c1.514-1.596 2.808-3.476 3.18-6.119.63-4.481-1.936-7.847-4.529-9.829-2.797-2.138-6.217-3.538-9.926-4.529-1.851-.494-3.8-1.092-5.734-1.493-4.939-1.026-10.093-2.07-15.997-2.072-1.218 0-2.436-.149-3.566-.097-.355.017-.677.144-.675.434.003.308.638.44 1.205.482 1.517.111 3.438.253 4.674.434 3.956.578 8.156 1.009 11.516 2.12 5.264 1.741 9.688 3.681 13.539 6.938 1.242 1.05 2.257 2.213 3.228 3.565.942 1.311 1.804 3.031 2.169 4.674.567 2.56-.064 4.945-.771 6.794.736-.152 1.215-.804 1.687-1.302zm-5.686 3.903c2.001-1.406 3.69-3.519 3.951-6.36.162-1.762-.341-3.104-.723-4.481-2.6-5.524-7.646-8.775-13.491-11.131-4.51-1.816-9.506-2.723-15.033-3.469-1.888-.255-4.036-.462-5.878-.434-.112.032-.129.16-.241.192-.025.567.575.566.916.627 4.935.862 9.769 1.689 13.829 3.372 1.45.602 2.814 1.364 4.143 2.12 3.834 2.182 7.341 5.307 9.251 9.54.705 1.562 1.162 3.191 1.012 5.252-.203 2.786-1.734 4.834-3.614 5.975-.635.386-1.381.539-1.976 1.061 3.059.23 5.805-.823 7.854-2.264zm-17.972-.386c1.889 1.062 4.54 2.23 7.42 2.024 3.725-.268 6.465-2.415 7.083-5.782.784-4.273-1.642-7.476-3.614-9.685-3.538-3.965-8.497-6.595-14.262-8.191-2.729-.756-6.47-1.583-9.637-1.734-.564.484.209.716.675.818 2.995.663 5.407 1.21 7.902 2.217 2.472.997 5.458 2.686 7.179 4.385.492.484.946 1.116 1.446 1.687 1.425 1.626 2.875 3.744 3.276 6.167.183 1.105.222 2.113-.048 3.036-.695 2.371-3.448 4.267-6.408 4.191-.969-.024-1.599-.403-2.65-.529.295.624 1.01 1.043 1.638 1.396zm-5.686-5.299c1.443 1.414 3.417 2.95 5.878 3.18 2.586.241 4.727-.861 5.686-2.457 1.176-1.957.296-4.739-.675-6.505-1.458-2.65-3.166-4.125-5.589-5.782-2.323-1.588-4.519-2.646-7.613-3.469-1.382-.367-3.496-1.004-4.867-.867-.087.761.99.79 1.494.915 3.393.843 6.158 2.332 8.48 4.24.935.769 1.886 1.707 2.505 2.603.504.727 1.076 1.781 1.253 2.698.312 1.625-.399 3.187-1.253 3.95-1.144 1.024-3.608.982-5.204.338-.528-.243-.93-.612-1.59-.724.227.792.924 1.32 1.495 1.88zm-6.649-12.577c1.346 4.673 3.536 9.886 8.625 10.648 2.343.352 4.058-1.442 3.373-3.758-.505-1.706-1.917-3.001-3.18-4.096-.72-.624-1.574-1.255-2.457-1.783-1.639-.98-4.228-2.218-6.409-2.312-.396.375-.067.899.048 1.301z" fill-rule="evenodd"/></svg>