<svg enable-background="new 0 0 75.899 78.096" viewBox="0 0 75.899 78.096" xmlns="http://www.w3.org/2000/svg"><g clip-rule="evenodd" fill-rule="evenodd"><path d="m75.894 37.232c-6.336.176-13.001.248-19.311.049-.28-1.525.082-3.691-.195-5.218-2.276-.184-4.609-.162-6.924-.098-2.343.064-4.706 0-7.071 0-13.368.001-26.843-.049-40.718-.049-.531 0-1.114.109-1.609-.146-.216-.962.136-2.162.537-2.828 4.661-.09 9.316-.048 13.995-.049 4.641 0 9.332-.194 13.947 0 2.316.098 4.7.064 7.022 0 6.864-.191 13.879.229 20.773-.098.201-4.439.151-9.536 0-14.142-3.824-.106-7.809-.098-11.85-.098-8.144 0-16.367 0-24.479 0-3.055 0-5.992 0-9.119 0-.969 0-1.985.112-2.926-.146.111-.799.759-1.062 1.073-1.658 6.508-7.141 15.078-12.12 27.893-12.726 2.987-.142 6.022.338 8.631.926 7.825 1.762 13.901 5.27 18.628 9.997 3.988 3.987 7.315 8.528 9.412 14.483.41 1.164.851 2.375 1.17 3.608.652 2.521 1.18 5.29 1.121 8.193z"/><path d="m75.894 41.913c-.474 9.165-3.831 15.87-8.095 21.407-2.257 3.177-5.37 5.729-8.582 8.095-1.063.783-2.269 1.448-3.462 2.048-2.449 1.231-4.969 2.438-7.851 3.218-2.893.784-6.053 1.414-9.655 1.414-10.756-.001-18.642-3.662-24.724-8.534-1.54-1.235-3.011-2.518-4.34-3.999-.42-.469-.928-.989-1.122-1.609 15.863-.373 32.212.08 48.325-.195.197-4.519.164-9.497 0-14.19-9.369-.324-18.77.087-28.137-.097-8.089-.16-16.16 0-24.479 0-1.11 0-2.245.103-3.316-.195-.245-.831-.521-1.88-.44-2.877 1.111-.228 2.284-.098 3.414-.098 18.085 0 34.569.028 52.909-.098.39-1.122-.066-3.089.244-4.291 2.064-.253 4.296-.064 6.583-.098 2.313-.033 4.842-.015 7.071-.098.959-.035 1.961.083 2.926.049.941-.031 1.885-.095 2.731.148z"/></g></svg>