<svg enable-background="new 0 0 77.013 45.227" viewBox="0 0 77.013 45.227" xmlns="http://www.w3.org/2000/svg"><g clip-rule="evenodd" fill-rule="evenodd"><path d="m34.154.207c.259 4.589.205 9.759.05 14.346-.557.272-1.266.105-1.899.101-4.288-.038-8.594 0-13.046 0-.56-.001-1.217-.119-1.749.149-.107.312-.107.688 0 1 .547.261 1.261.199 1.898.199 1.95.004 4.168 0 6.349 0 2.911.001 5.864-.114 8.447.15.167 4.067.167 8.829 0 12.896-3.983.182-8.434.101-12.645.1-1.392 0-2.778-.213-4.049.101-.093.24-.034.632-.051.949.54.402 1.308.25 2 .25 2.143.001 4.416 0 6.498 0 2.817.001 5.61-.034 8.247.15.183 2.288.101 4.819.101 7.298s.118 4.974-.15 7.197c-5.362.008-11.226.273-16.995 0-1.944-.092-3.718-.003-5.448-.35-3.136-.627-5.495-2.245-7.447-4.199-1.998-1.997-3.36-4.415-3.949-7.647-.63-3.456-.09-7.537-.25-11.196-.077-1.755 0-3.629 0-5.498 0-5.793 1.949-9.531 4.998-12.447 1.857-1.776 4.786-3.47 7.898-3.699 1.741-.128 3.572 0 5.398 0 5.123.001 10.614.002 15.794.15z"/><path d="m54.698.207c.267.881.15 1.832.15 2.749 0 6.559.025 13.56.05 19.845.024 6.249-.051 12.793-.05 19.645 0 .891.112 1.825-.15 2.699-5.774.045-12.668.159-18.744 0-.186-12.704-.098-26.396-.101-39.639 0-1.463.001-2.537 0-4.249 0-.937-.028-1.062.5-1.149.671-.111 1.568.05 2.35.05 5.146-.001 10.688-.168 15.995.049z"/><path d="m56.498 29.549c-.274-.541-.136-1.167-.149-1.75-.201-8.449-.002-17.003 0-25.893 0-.555-.114-1.179.149-1.699 3.091-.023 7.196-.29 9.897.4 1.38.352 2.57.881 3.599 1.499 1.078.649 1.876 1.477 2.749 2.35 3.175 3.174 5.61 9.15 3.449 15.346-.48 1.378-1.324 2.788-2.199 3.948-2.137 2.835-4.821 4.967-9.147 5.699-2.531.428-5.334.195-8.348.1z"/></g></svg>