<svg enable-background="new 0 0 71.657 73.889" viewBox="0 0 71.657 73.889" xmlns="http://www.w3.org/2000/svg"><path clip-rule="evenodd" d="m71.383.174c.209 5.524.176 11.518.099 17.329-.815.821-2.332.941-3.142 1.768.859.285 2.414-.124 3.142.295.342 2.539.049 5.572.049 8.688 0 2.082.049 4.361.049 6.628 0 .689.096 1.777-.098 2.11-.132.227-.493.329-.884.491-.935.388-1.944.74-2.65 1.375.887.422 2.766-.147 3.583.344.255 2.728.049 5.669.049 8.64 0 3.008.103 6.049-.049 8.935-1.433.898-3.036 1.481-4.565 2.16-1.54.684-3.034 1.418-4.565 2.111-9.16 4.146-18.238 8.497-27.394 12.665-10.188.061-20.72.034-30.535.147-1.428.017-2.847.105-4.222-.147-.18-5.546-.186-11.36-.098-17.182.976-.824 2.515-1.085 3.437-1.964-.826-.402-2.559.104-3.388-.295-.264-5.725-.135-11.538-.099-17.722.797-.807 2.333-.874 3.093-1.718-.688-.425-2.218-.008-3.043-.295-.229-5.876-.156-11.957-.05-17.428.629-.574 1.504-.812 2.259-1.129 2.302-.97 4.549-2.12 6.873-3.142 3.057-1.345 6.171-2.693 9.229-4.173 5.182-2.508 10.68-4.913 15.955-7.462.828-.4 1.671-.806 2.405-1.08 3.903.042 7.834-.049 11.782-.05 3.971 0 7.985.185 11.929 0 1.603-.074 3.725-.049 5.548-.049 1.817.002 3.61-.116 5.301.15zm-51.105 32.499c2.336-1.025 4.482-2.043 6.774-3.044 8.3-3.623 16.43-7.594 24.645-11.242.597-.265 1.956-.764 2.16-1.129.177-.317.098-1.259.098-2.013.001-4.602-.049-8.235-.049-12.764 0-.719.142-1.751-.344-1.817-.229-.031-.936.37-1.325.541-1.142.498-2.318 1.066-3.289 1.57-1.474.765-3.027 1.462-4.418 2.111-8.25 3.849-16.443 7.506-24.497 11.34-.731.348-1.575.54-2.16 1.129-.089 4.591-.05 9.693-.049 14.335 0 .653-.09 1.406.245 1.816.835.071 1.503-.524 2.209-.833zm.099 19.93c.752-.353 1.508-.693 2.258-1.03 4.531-2.037 8.852-4.369 13.354-6.383 3.018-1.35 6.015-2.768 9.032-4.123 2.277-1.023 4.592-1.981 6.824-3.044.715-.341 1.522-.608 2.11-1.178.061-4.274-.001-9.963 0-14.727.001-.473.191-1.848-.441-1.768-.581.073-1.617.687-2.356 1.031-2.264 1.055-4.464 2.109-6.627 3.092-6.136 2.789-11.629 5.35-17.87 8.052-2.324 1.006-4.277 2.075-6.627 3.093-.601.26-1.943.734-2.111 1.129-.179.421-.062 1.394-.049 2.013.071 3.467 0 7.073 0 10.605 0 1.449-.145 2.894.196 4.123.845-.04 1.578-.544 2.307-.885zm28.62-10.652c-3.017 1.437-6.014 2.661-8.983 4.074-4.446 2.116-8.815 4.362-13.304 6.284-2.253.964-4.407 2.189-6.628 3.142-.721.31-1.572.556-2.111 1.179-.09 3.971-.048 8.298-.049 12.321 0 1.406-.1 2.797.197 3.928.829-.042 1.524-.54 2.258-.884 1.528-.718 3.021-1.381 4.467-2.062 3.723-1.754 7.445-3.299 11.242-5.106 5.075-2.415 10.512-4.796 15.71-7.167.65-.297 1.95-.729 2.159-1.129.206-.393.046-1.316.05-1.964.02-4.181 0-8.618 0-12.812 0-.614.199-1.425-.295-1.866-1.595.543-3.142 1.314-4.713 2.062z" fill-rule="evenodd"/></svg>