<svg enable-background="new 0 0 71.195 77.57" viewBox="0 0 71.195 77.57" xmlns="http://www.w3.org/2000/svg"><path clip-rule="evenodd" d="m71.098 18.461c-.456.34-1.081.195-1.609.195-4.022 0-8.297 0-12.386 0-4.182 0-7.979 0-12.045 0-.507 0-1.114-.143-1.559.195-.012.458.491.671.78.878 4.325 3.1 7.977 7.286 10.045 12.727.159.419.275.871.439 1.317.138.376.437.828.243 1.268-.4.342-.981.195-1.463.195-3.678-.001-7.608 0-11.362 0-10.604-.002-20.795-.048-31.696-.049-.979 0-2.102-.021-3.219-.049-.881-.021-2.498-.136-2.975.146-.623.37-.547 2.499-.536 3.511.016 1.435.11 2.583.438 3.609 1.015.257 2.074.146 3.121.146 7.408 0 14.942.049 22.285.049 4.318 0 8.618-.11 12.874.049 2.098.079 4.208-.14 6.291-.049 1.062.047 2.119.049 3.169.049 1.024 0 2.072-.12 3.072.146-.162 1.371-.724 2.635-1.268 3.804-1.611 3.458-3.697 6.507-6.438 8.924-.818.884-1.783 1.6-2.779 2.34-.302.225-.783.391-.877.829 1.082.265 2.231.146 3.364.146 7.458 0 15.189.047 22.626.048.505 0 1.084-.109 1.561.146-.08.794-.714 1.4-1.121 2-1.269 1.866-2.807 3.578-4.438 5.12-2.19 2.07-4.475 3.986-7.12 5.657-5.251 3.315-11.627 5.592-19.749 5.754-4.099.082-7.988-.568-11.167-1.609-3.261-1.067-6.127-2.321-8.826-3.901-2.663-1.56-4.887-3.536-7.168-5.608-1.085-.985-2.139-2.177-3.072-3.316-2.909-3.547-5.103-7.525-6.729-12.386-1.07-3.197-1.804-6.923-1.804-10.922 0-4.179.44-7.91 1.316-11.362.845-3.322 2.248-6.153 3.755-8.973 1.436-2.685 3.357-5.106 5.413-7.363 4.035-4.43 9.29-7.779 15.458-10.045 2.335-.857 5.011-1.471 7.754-1.804 8.604-1.044 16.524 1.058 22.139 3.901.701.356 1.368.821 2.048 1.219 4.82 2.826 8.998 6.436 12.094 11.021.422.624 1.002 1.256 1.121 2.047zm-8.436-4.828c-.396-.363-.773-.789-1.171-1.171-.767-.737-1.723-1.387-2.584-2.048-4.384-3.363-9.861-5.516-16.727-6.437-1.448-.194-3.059-.41-4.437-.244-1.505.181-3.155.116-4.535.39-1.354.268-2.633.537-3.901.878-7.528 2.02-13.135 6.039-17.458 11.167-.756 1.064-1.775 1.866-2.194 3.267.479.073.787-.352 1.121-.585 2.527-1.765 5.665-3.035 9.363-3.56 4.31-.612 9.316-.292 14.385-.292 8.983 0 18.406.05 27.455.049.541 0 1.157.081 1.657-.195-.058-.56-.598-.874-.974-1.219zm-13.848 16.239c-2.044-3.214-4.57-5.646-7.754-7.656-.921-.582-1.812-1.153-2.828-1.561-3.075-1.232-7.055-1.937-11.362-1.853-2.207.043-4.458-.017-6.291.244-5.605.798-9.073 3.31-12.19 6.827-.9 1.172-1.909 2.399-2.536 3.804-.215.482-.546.985-.487 1.561.82.345 1.772.195 2.633.195 10.437-.002 20.137.05 30.332.049h8.387c.896 0 1.847.114 2.732-.147.049-.559-.361-1.029-.636-1.463zm-1.562 16.092c-11.923 0-24.084-.048-35.987-.049-1.952 0-4.286-.122-5.9.098-.128.786.366 1.507.683 2.146.666 1.347 1.527 2.531 2.439 3.609.465.55.898 1.094 1.414 1.609.987.987 2.196 1.77 3.462 2.584 2.574 1.655 5.29 2.829 9.315 2.829 3.901 0 8.246.242 11.557-.439 2.405-.495 4.663-1.303 6.389-2.39.562-.354 1.176-.669 1.706-1.024 2.696-1.805 4.933-4.318 6.632-7.022.349-.555.795-1.128.829-1.804-.804-.313-1.699-.147-2.539-.147zm-37.353 12.484c.278.836 1.132 1.777 1.804 2.584 1.414 1.698 2.799 2.974 4.291 4.437.756.741 1.622 1.385 2.438 1.951 3.492 2.417 7.584 4.368 12.094 5.413 4.911 1.138 10.873 1.284 15.653.098 4.691-1.165 8.773-2.899 12.143-5.364 1.422-1.081 2.883-2.123 4.096-3.414.396-.388 1.105-.712 1.073-1.365-1.125-.253-2.301-.098-3.463-.098-3.554 0-7.162-.048-10.825-.049-7.276-.001-14.405.041-21.651 0-2.478-.014-4.887.157-7.023-.195-2.16-.356-4.006-.844-5.754-1.56-1.671-.685-3.263-1.792-4.778-2.584-.061.019-.099.062-.098.146z" fill-rule="evenodd"/></svg>