<svg enable-background="new 0 0 99.236 58.804" viewBox="0 0 99.236 58.804" xmlns="http://www.w3.org/2000/svg"><g clip-rule="evenodd" fill-rule="evenodd"><path d="m48.819 7.327c-4.7 4.018-7.75 10.584-9.12 16.679-1.527-2.561-3.948-4.565-6.599-5.64-7.533-1.882-13.061 2.203-14.759 8.279-2.684 10.519 10.106 17.675 17.519 11.76 2.4-1.204 3.172-3.4 4.56-5.88-.122-1.205.496-1.445.24-2.52 3.062-.553 6.185.196 9.12-.36 3.174.603 6.145-.38 9.239.48-.456 6.98-2.752 11.788-5.4 16.319-3.683 3.957-7.355 7.923-13.079 9.839-.163.037-.1.301-.12.48-1.494.145-3.849 1.08-5.76 1.56-1.017-.131-3.398.031-4.2.48-2.217-.506-4.568-.241-6.959-.721-4.833-.967-8.328-3.188-11.999-5.279-1.375-1.744-3.515-2.725-4.559-4.8-.16 0-.32 0-.48 0-3.636-4.793-7.107-12.482-6.359-18.838-.315-8.459 3.711-16.66 9.479-21.238.157-.125.1-.344.24-.48 2.207-2.131 5.091-3.519 8.159-4.92 2.734-1.248 6.858-2.231 10.559-2.28.489-.006 1.044-.299 1.56-.24 7.169.82 13.892 2.386 18.718 7.32z"/><path d="m50.978 51.364c4.379-4.695 7.781-9.992 8.999-17.279 2.059 4.253 6.707 7.317 11.999 6.12 2.983-.073 6.336-2.194 7.68-5.28.299.019.372-.188.601-.24 3.182-6.709-.506-15.227-7.56-16.559-.413-.053-.673.047-.96.12-.104-.097-.071-.329-.24-.36-6.962-.297-11.905 4.221-12.359 10.439-5.982.332-11.476.044-18.359.12.176-8.723 4.964-18.636 13.199-23.159.249-.031.033-.527.24-.6.692-.348 1.753-.327 1.92-1.2.995-.365 2.275-.445 2.76-1.32 6.371-2.099 12.57-2.58 18.838-1.32.396.523 1.179.662 2.04.72 10.082 3.864 17.255 11.606 19.439 23.76.055 3.771.07 7.664-.84 11.159-1.733 6.657-5.521 11.796-10.079 16.079-.439-.078-.46.26-.84.24-.163.037-.1.301-.12.48-2.638 1.36-5.719 3.428-8.52 3.839-.222.018-.073.406-.24.48-3.737.927-9.917 1.221-13.799.6-5.075-1.376-9.998-3.072-13.799-6.839z"/><path d="m47.139 10.807c-.051-.051.079.079 0 0z"/></g></svg>