<svg enable-background="new 0 0 78.695 35.863" viewBox="0 0 78.695 35.863" xmlns="http://www.w3.org/2000/svg"><path clip-rule="evenodd" d="m74.774 5.141c2.525 3.1 1.952 9.221 2.035 14.641.04 2.668.149 5.514.148 8.09 0 2.016.277 3.848.993 5.26.226.447.679.768.745 1.291-2.925.199-6.381.15-9.38 0-.458-.484-.543-1.342-.794-2.035-.535.055-.861.535-1.241.844-1.054.858-2.547 1.795-4.119 2.135-2.488.535-4.998.275-7.146-.348-2.144-.623-3.872-1.744-5.162-2.928-.843.447-1.535 1.02-2.332 1.488-2.381 1.396-5.281 2.242-9.181 2.283-3.75.039-6.63-1.014-8.982-2.482-.32-.199-.7-.461-1.092-.793-.336-.285-.754-.844-1.042-.844-.262 0-.801.621-1.042.844-2.242 2.057-5.56 3.231-9.876 3.275-4.882.051-8.631-1.33-11.364-3.672-1.421-1.219-2.43-2.596-3.375-4.17-.497-.828-.962-1.568-1.241-2.531-.262-.906-.589-1.828-.844-2.877-1.092-4.516-.145-9.229 1.043-12.953.338-1.065 1.105-2.278 1.835-3.227 2.139-2.783 5.355-5.006 9.281-5.856 4.587-.992 9.262.006 12.456 1.736 1.081.586 1.797 1.533 2.779 2.232.786-.492 1.315-1.213 1.985-1.736 1.371-1.068 3.161-1.783 5.161-2.283 1.488-.371 3.279-.613 5.211-.496 2.247.137 4.26.746 5.955 1.391 1.251.475 2.479 1.102 3.474 2.033.271.254.71.832.943.844.291.018.842-.576 1.191-.892 2.654-2.41 6.157-3.275 11.315-3.275 5.09-.001 9.217 1.775 11.663 5.011zm-28.933 5.51c-.398-1.322-1.104-2.414-2.134-3.078-2.447-1.573-7.312-1.201-9.032.695-.879.838-1.608 2.758-.744 4.07 1.066 1.619 4.652 1.484 7.295 1.785 2.746.314 5.696.715 7.494 1.639.907.467 1.353 1.053 2.184 1.539 2.274-2.645 7.187-2.971 11.563-3.574 2.36-.324 4.604-.49 5.36-2.283.562-1.33-.306-2.838-1.141-3.473-1.458-1.111-3.635-1.406-5.757-1.242-2.738.215-4.936 1.758-5.509 4.17-.151.637.034 1.096-.298 1.787-2.98.115-5.867.098-8.784 0-.308-.684-.304-1.397-.497-2.035zm-33.349 3.027h9.131c.548 0 1.201.152 1.638-.199.057-.85-.183-1.717-.496-2.48-1-2.439-3.564-4.307-6.75-4.219-3.889.105-6.284 3.055-6.849 6.699.964.326 2.142.199 3.326.199zm55.334 5.559c-1.735.859-4.171 1.021-6.402 1.439-2.524.471-5.599.561-6.352 2.629-.548 1.504.297 3.105.992 3.771 1.583 1.516 5.166 1.906 7.841.994 2.239-.766 3.624-2.356 4.169-4.666.155-.658.15-1.117.198-2.184.035-.766.248-2.078-.248-2.084-.046-.002-.088.049-.099.049-.063.007-.064.034-.099.052zm-26.452 9.627c2.018-.156 3.935-1.295 4.814-2.879.636-1.143.64-2.547-.248-3.572-1.338-1.547-5.129-1.865-7.792-1.984-3.31-.152-6.679-.051-9.727-.051-6.479 0-13.505-.014-19.503 0-.41.287-.21.822-.149 1.191.23 1.396.568 2.559 1.092 3.572 1.179 2.283 3.544 4.08 6.948 3.822 3.116-.236 5.3-1.92 6.204-4.516.187-.539.186-1.131.496-1.688 2.939-.189 6.49-.141 9.38.049.361 4.532 3.389 6.448 8.485 6.056z" fill-rule="evenodd"/></svg>