<svg enable-background="new 0 0 86.174 55.205" viewBox="0 0 86.174 55.205" xmlns="http://www.w3.org/2000/svg"><g clip-rule="evenodd" fill-rule="evenodd"><path d="m59.006 47.796c-.587.453-.955 1.079-1.344 1.603-1.965 2.649-5.144 4.927-9.251 5.479-1.687.227-3.646.155-5.686.155-3.799 0-7.792-.052-11.732-.052-3.968 0-7.892.115-11.475-.052-2.22-.104-4.009.083-5.685-.104-1.706-.189-3.18-.702-4.549-1.344-2.558-1.199-4.784-2.973-6.356-5.375-1.534-2.342-2.822-5.103-2.843-8.942-.021-3.848-.052-7.421-.052-11.577 0-4.133-.105-7.811.052-11.526.161-3.837 1.14-6.602 2.739-8.993 2.326-3.48 5.942-6.048 10.905-6.771 1.662-.242 3.453-.259 5.582-.259 7.605 0 15.565.103 23.206.103 2.114 0 4.084-.133 5.841.052 4.089.431 7.298 2.635 9.354 5.324.287.376.917 1.585 1.292 1.602.356.016.872-.888 1.138-1.24 2.289-3.041 5.509-5.474 10.492-5.841 3.137-.23 6.068.582 8.166 1.758.688.385 1.202.922 1.86 1.447 2.498 1.991 4.169 4.66 5.066 8.114.474 1.828.413 3.958.413 6.202 0 4.225.073 8.401 0 12.921-.034 2.163.08 4.32 0 6.46-.091 2.412.018 4.503-.311 6.306-.652 3.576-2.397 6.395-4.806 8.424-2.216 1.867-5.497 3.738-9.666 3.515-4.874-.261-8.631-2.609-10.905-5.582-.457-.599-.826-1.294-1.445-1.807zm-2.532-37.575c-.694-1.62-1.72-2.955-2.946-3.98-1.796-1.728-4.438-2.584-7.804-2.584-6.878 0-13.923-.052-20.829-.052-3.49 0-7.024-.299-10.389-.052-2.356.173-4.314 1.15-5.841 2.274-1.589 1.172-2.825 2.395-3.772 4.136-1.918 3.526-1.602 8.607-1.602 14.11-.001 2.693 0 5.127 0 7.805-.001 2.623-.154 5.296.052 7.856.378 4.688 2.765 7.961 5.841 9.975 1.533 1.004 3.624 1.757 6.15 1.757 7.775 0 16.015.052 23.258.052 5.781 0 10.389.398 13.748-1.964 2.283-1.606 4.161-3.907 4.703-7.185.194-1.173.096-2.388.361-3.618.788.038 2.693-.469 3.257.052.454.418.166 2.17.207 2.739.186 2.597 1.356 4.744 2.636 6.202 1.73 1.974 4.381 3.701 7.959 3.824 1.784.062 3.571-.36 4.91-.982 2.679-1.244 4.537-3.536 5.53-6.254.505-1.381.694-3.104.724-5.065.121-8.036.001-15.137 0-23.051 0-2.079-.138-3.679-.672-5.22-.565-1.633-1.304-2.51-2.119-3.773-1.341-2.077-4.796-3.719-8.114-3.67-3.725.055-6.457 1.706-8.166 3.722-1.369 1.614-2.38 3.518-2.636 6.254-.043.455.076 2.358-.311 2.688-.274.234-1.048.161-1.654.155-.623-.007-1.2.035-1.551-.259-.034-2.193-.224-4.246-.93-5.892z"/><path d="m39.832 9.395c.689-.299 1.077-.969 1.706-1.396 1.427-.969 3.198-1.628 5.271-1.551 2.021.076 3.561.917 4.807 2.016 1.246.972 2.12 2.376 2.584 4.238.459 1.842.094 4.241.362 6.409 1.24.312 2.936.128 4.496.103.613-.01 1.37.052 2.274.052.667 0 1.893.141 2.223-.104.396-.294.169-2.141.206-2.946.048-1.027-.013-2.147.104-2.946.504-3.459 2.786-5.793 5.996-6.615 1.725-.442 3.817-.177 5.323.517 2.905 1.337 4.652 3.769 4.651 7.96 0 7.896.001 17.207 0 24.964 0 4.151-1.805 6.491-4.703 7.856-3.565 1.679-7.219.251-9.2-1.861-1.011-1.078-1.822-2.513-2.067-4.238-.259-1.821.197-3.791-.207-5.944-1.338-.322-2.972-.165-4.496-.155-1.564.01-3.186-.1-4.651.104-.281 1.201-.155 2.503-.155 3.67 0 3.868-1.321 6.075-3.617 7.701-1.539 1.089-3.691 1.716-5.944 1.292-2.068-.389-3.462-1.572-4.858-2.688-.702.211-.938.888-1.602 1.137-.69.442-1.096.944-1.809 1.188-2.017.691-5.479.658-8.062.569-4.607-.159-8.535.237-12.974 0-3.81-.204-6.501-2.372-7.959-5.065-1.035-1.911-1.285-4.34-1.24-7.494.084-5.89 0-10.768 0-16.849-.001-2.84.094-5.575 1.033-7.546 1.084-2.274 3.145-4.072 5.737-4.91 1.021-.33 1.987-.371 3.204-.517.652-.079 1.437.088 2.274.051 2.164-.095 4.333-.051 6.563-.051 3.131 0 6.279-.127 8.941.051 2.685.18 4.329 1.625 5.789 2.998zm-20.571 10.181c.377-.414 2.656-.207 3.617-.207 2.75 0 4.896-.052 7.547 0 1.248.025 2.617.12 3.773 0 2.11-.217 3.3-1.554 3.773-3.411.465-1.823-.197-3.467-.982-4.548-1.147-1.562-3.463-1.579-6.202-1.551-3.394.036-6.919 0-10.078 0-1.66 0-3.452-.127-5.014 0-1.846.151-3.219.876-4.29 2.016-1.236 1.315-1.653 3.269-1.653 5.789-.001 5.837-.208 12.55 0 18.193.045 1.249-.115 2.496 0 3.67.142 1.46.899 2.701 1.498 3.514.542.488 1.226 1.188 1.965 1.551 1.197.589 3.033.655 4.961.62 3.287-.06 7.527-.093 10.854 0 1.938.054 3.902.227 5.583-.104 2.542-.499 4.365-3.443 3.308-6.305-.233-.63-.622-1.355-.982-1.757-1.279-1.431-3.434-1.292-6.099-1.292-2.515 0-5.132-.144-7.701-.051-1.344.048-2.65.191-3.824-.104-.236-.778-.258-2.431 0-3.205 1.143-.294 2.461-.207 3.824-.207h7.856c1.412 0 2.804.093 3.876-.207 2.188-.612 3.9-3.106 3.205-5.737-.208-.786-.706-1.778-1.292-2.326-1.691-1.578-5.305-1.188-8.632-1.188-1.63 0-3.202.021-4.651-.052-1.536-.077-2.999.259-4.238-.155.002-.522-.492-2.408-.002-2.946zm30.701-8.063c-.767-.909-2.147-1.79-3.929-1.654-2.616.2-4.203 2.152-4.393 4.807-.156 2.17 0 4.446 0 6.771-.001 5.516.027 11.686.051 16.901.005 1.116-.114 2.231.052 3.153.763 4.229 6.271 4.791 8.425 1.654.351-.51.695-1.338.775-2.119.159-1.555-.038-2.992-.104-4.393-.034-.734 0-1.441 0-2.223 0-.638-.117-1.36.155-2.119 1.17-.351 2.535-.207 3.876-.207h8.271c1.355 0 2.732-.121 3.928.207.269 1.732-.008 3.325.052 4.91.058 1.546-.209 3.139.206 4.652.518 1.885 2.271 3.272 4.29 3.359 2.263.098 3.887-1.154 4.601-3.049.629-1.672.36-4.876.258-7.029-.117-2.475.039-4.964.052-7.339.021-3.723.052-7.287.052-10.905 0-1.277.115-2.623-.155-3.566-.523-1.825-2.299-3.339-4.342-3.411-2.513-.088-4.374 1.485-4.807 3.67-.135.683-.066 1.497-.103 2.274-.078 1.631 0 3.19 0 4.755 0 .706.111 1.525-.311 2.119-3.678-.001-7.918-.134-11.784 0-1.341.046-2.704.088-3.928-.155-.611-3.896.879-8.612-1.188-11.063z"/><path d="m16.315 16.423c-.425 1.308-.177 2.993-.206 4.497-.03 1.528-.162 3.1.103 4.497 1.407.198 2.944.157 4.497.104 2.963-.103 6.141.052 9.354.052 1.562 0 3.138-.161 4.445.31 1.258.616 1.046 2.614 0 3.205-.916.517-2.808.37-4.393.362-4.409-.024-9.727-.144-13.852.052-.277 1.316-.154 3.007-.154 4.6-.001 1.63-.086 3.232.154 4.497 1.524.288 3.082.139 4.601.155 3.144.034 6.009.007 9.354 0 1.82-.004 4.426-.486 4.962 1.034.305.865-.11 1.991-.982 2.326-.92.353-3.239.104-4.703.104-4.071 0-8.16-.131-11.991.051-2.349.112-3.824-.373-4.496-2.016-.526-1.286-.297-4.376-.311-6.15-.03-4.219-.052-8.376-.052-12.456.001-3.789-.471-7.258 1.81-8.425 1.122-.574 3.083-.387 4.755-.361.729.011 1.483-.029 2.171 0 2.694.114 5.746-.062 8.838 0 1.132.022 3.226-.221 4.135.258 1.257.663.926 2.634-.155 3.101-1.012.438-3.139.155-4.496.155-4.63-.003-9.02-.211-13.388.048z"/><path d="m48.153 25.468c.85.243 1.778.195 2.688.155 5.986-.263 12.884.266 19.227-.104.125-2.554.155-5.931.155-8.941 0-1.815-.198-3.556 1.499-3.67 2.106-.142 1.86 2.318 1.86 4.496.002 6.899-.09 14.08-.052 21.036.007 1.166.073 2.467-.31 3.049-.628.953-2.187.971-2.791-.104-.383-.68-.311-1.818-.311-2.843.001-3.101.088-6.193-.104-8.941-3.356-.268-7.159-.155-10.905-.155-3.727 0-7.514-.085-11.009.103-.224.795-.173 1.847-.155 2.946.031 1.921.07 4.185.104 6.203.029 1.724.011 3.355-1.653 3.463-2.059-.048-1.758-2.115-1.758-4.445.002-6.97-.052-13.822-.052-20.829.001-1.988-.126-3.895 1.551-4.031 2.784-.227 1.912 4.163 1.912 6.667 0 2.25-.079 4.34.104 5.945z"/></g></svg>