<svg enable-background="new 0 0 78.238 59.396" viewBox="0 0 78.238 59.396" xmlns="http://www.w3.org/2000/svg"><g clip-rule="evenodd" fill-rule="evenodd"><path d="m77.584 35.236c-7.73.104-15.624.045-23.524.047-5.896.002-11.635-.047-17.667-.047-1.932 0-3.865-.141-5.762.096-.021.865.488 1.602.809 2.332.962 2.189 2.209 4.18 3.857 5.715 1.705 1.586 3.453 2.934 5.667 3.906 2.225.977 4.887 1.742 7.857 1.713 4.437-.043 8.209-1.541 10.905-3.477.383-.273.951-.592 1.381-1 .397-.375.911-.971 1.381-1.094.813-.215 2.03-.049 3.048-.049h6.19c1.01 0 2.025-.115 2.905.143-.091.73-.566 1.375-.953 1.953-1.17 1.746-2.532 3.422-3.953 4.953-3.441 3.394-7.659 6.244-13 7.809-2.733.801-5.988 1.354-9.096 1.096-3.164-.264-6.024-.771-8.619-1.762-5.019-1.914-9.116-4.723-12.334-8.477-1.586-1.852-3.094-3.912-4.19-6.191-1.131-2.35-1.922-4.887-2.762-7.619-4.572-.344-9.89-.023-14.857-.143-1.631-.039-3.255.113-4.762-.143-.156-3.643-.137-7.242.048-10.762 6.309-.254 13.186.031 19.62-.145.434-.799.476-1.693.714-2.523 1.662-5.791 4.67-10.072 8.572-13.762 2.152-2.035 4.747-3.721 7.714-5.096 2.97-1.375 6.504-2.465 10.286-2.666 8.358-.445 14.594 2.512 19.239 5.904 4.67 3.41 8.6 8.389 10.524 14.619 1.274 4.127 2.033 9.775.762 14.67zm-11.477-13.953c-1.306-2.713-3.064-4.844-5.143-6.715-3.171-2.385-7.541-4.398-13.048-4.143-5.002.232-8.554 2.148-11.429 4.428-1.328 1.164-2.49 2.498-3.524 3.953s-1.856 3.201-2.333 5.191c.672.26 1.432.189 2.143.189 2.242 0 4.512.018 6.81 0 6.164-.045 12.445.033 18.429.096 1.486.016 2.979 0 4.476 0 1.605 0 3.172.115 4.572-.143.003-1.069-.54-1.999-.953-2.856z"/><path d="m48.202 11.425c2.634-.303 4.642 1.383 5.429 2.572.596.898 1.113 2.463.905 4-.358 2.648-2.609 4.893-5.19 5.143-3.299.32-6.263-2.438-6.286-5.857-.017-2.596 1.57-4.723 3.524-5.523.416-.173.942-.256 1.618-.335z"/></g></svg>