<svg enable-background="new 0 0 74.722 75.299" viewBox="0 0 74.722 75.299" xmlns="http://www.w3.org/2000/svg"><g clip-rule="evenodd" fill-rule="evenodd"><path d="m62.771 10.482c-.998.299-2.066.099-3.095.145-3.033.138-6.326 0-9.575 0-10.644.002-21.363-.099-32.111-.097-2.059.001-4.121.097-6.045-.193.197-.767.97-1.188 1.548-1.644 2.757-2.177 5.572-4.201 9.14-5.707 3.633-1.533 8.276-2.693 13.106-2.95 2.925-.155 5.615.217 8.174.629 7.445 1.198 13.175 4.692 17.796 8.56.33.442.944.601 1.062 1.257z"/><path d="m10.3 11.739c.419.19.242.923.242 1.451-.001 16.837.121 33.161-.097 50.246-.588.029-.909-.595-1.209-.968-2.301-2.859-4.566-6.003-6.142-9.672-1.809-4.211-3.094-9.181-3.094-14.942 0-11.739 4.445-19.842 10.107-26.019.032-.064.103-.089.193-.096z"/><path d="m20.746 14.738c1.904-.133 4.373-.081 6.528 0 2.161.08 4.368 0 6.529 0 8.945 0 16.852.096 25.631.097 1.962 0 4.545-.217 6.093.241 1.708.505 2.854 1.616 3.627 2.853 2.176 3.484-.135 7.387-2.708 8.608-1.491.708-3.982.543-5.996.531-8.589-.047-16.965-.096-25.825-.097-.962 0-2.106.001-3.191.049-1.465.064-3.086-.387-3.675.531-.499.776-.193 3.757-.193 4.934-.001 3.559 0 6.554 0 10.155-.001 1.375-.303 4.101.193 4.885.468.74 1.329.628 2.756.628 11.049.002 21.7.098 32.644.098 1.73-.001 2.927.214 4.014 1.016 1.971 1.453 3.452 4.118 2.515 7.061-.751 2.357-2.83 4.185-5.803 4.304-3.397.136-6.783-.153-10.107-.049-6.429.204-13.586-.226-19.876 0-3.067.11-6.524-.049-9.866-.048-1.881 0-3.541.059-4.739-.339-2.391-.794-4.008-2.854-4.207-5.948-.096-1.492 0-3.196 0-5.029 0-7.931 0-16.458 0-24.857 0-1.749-.099-3.475.193-4.884.532-2.584 2.584-4.541 5.463-4.74z"/><path d="m36.947 31.374c2.485-.205 5.455 0 8.124 0 6.699 0 13.458.047 20.166.048 1.332.001 2.687-.107 3.966.049 1.528.186 2.887 1.114 3.724 1.982.98 1.018 1.715 2.201 1.789 3.917.078 1.803-.587 3.181-1.45 4.256-.79.983-1.954 1.921-3.482 2.177-1.306.219-2.847.048-4.353.048-4.256.001-8.91.086-12.815-.048-4.226-.146-8.336.074-12.767-.049-1.461-.041-2.846.156-4.111-.145-2.549-.608-4.69-3.191-4.594-6.143.103-3.142 2.482-5.82 5.803-6.092z"/><path d="m12.09 64.888c16.543.145 33.928-.087 50.585.241-.012.559-.602.895-.968 1.209-2.735 2.345-5.962 4.525-9.575 6.046-4.158 1.749-9.221 3.068-14.894 2.901-2.861-.085-5.574-.287-8.028-.822-6.026-1.315-10.919-3.927-15.088-7.254-.37-.296-.765-.608-1.209-1.016-.357-.327-1.103-.937-.968-1.209.034-.046.087-.073.145-.096z"/></g></svg>