<svg enable-background="new 0 0 80.01 60.647" viewBox="0 0 80.01 60.647" xmlns="http://www.w3.org/2000/svg"><g clip-rule="evenodd" fill-rule="evenodd"><path d="m70.431 23.587c.849-.057 1.443-.377 2.048-.666 1.159-.557 2.336-1.139 3.619-1.715.617-.277 1.354-.633 2.095-.572.909.076 1.92.965 1.81 2.191-.135 1.517-2.067 2.088-3.381 2.666-4.312 1.897-8.642 3.873-13.143 5.762-.814.342-1.6.902-2.286 1-1.474.213-3.249 0-4.905 0-3.159 0-6.464.002-9.762 0-1.577 0-3.664.189-4.667-.189-1.683-.639-1.639-2.822-.047-3.476.943-.389 2.537-.191 3.953-.191h2.095c.663 0 1.369.125 1.81-.236.108-.871-.364-1.656-.714-2.334-1.047-2.027-2.82-3.537-5-4.43-3.238-1.324-7.654-.857-9.857 1.096-.823.588-1.482 1.299-2.095 2.096-.608.791-1.013 1.717-1.667 2.476-2.837.094-5.741.047-8.762.047-1.029 0-2.26-.133-3.143.049-.344.068-.752.307-1.143.475-1.82.785-3.771 1.6-5.619 2.381-.774.328-1.52.801-2.333.764-.367-1.15-.119-2.367 0-3.477.368-3.43 1.211-6.465 2.381-9.145.8-1.83 1.573-3.475 2.667-5 4.795-6.682 11.58-11.498 21.667-12.904 5.201-.727 11.407.178 15.238 1.857 1.646.721 3.176 1.377 4.619 2.143 1.442.766 2.72 1.803 3.953 2.809 4.33 3.535 7.686 8.18 9.572 14.145.245.78.218 1.818.997 2.378z"/><path d="m30.477 32.491c-.081 1.215.525 2.162 1.048 2.953 1.57 2.379 4.135 4.287 7.667 4.619 4.124.387 6.821-1.395 8.667-3.523.659-.76 1.327-1.74 2.333-1.906.673-.109 1.539.426 2.286.715 3.643 1.41 7 2.797 10.62 4.191 1.764.68 4.059 1.082 4.666 2.762.088 1.137-.395 1.963-.904 2.809-1.183 1.967-2.5 3.812-4 5.334-1.642 1.902-3.649 3.617-5.857 5.049-4.341 2.811-9.866 4.922-16.667 5.143-3.433.111-6.766-.631-9.477-1.381-2.728-.756-5.26-1.971-7.524-3.381-4.438-2.768-8.124-6.551-10.62-11.191-.326-.607-.487-1.297-.762-1.953-.532-1.268-1.089-2.482-1.524-3.904-.188-.613-.173-1.471-.857-1.857-.833-.133-1.427.326-2.048.572-1.228.486-2.453 1.088-3.714 1.619-.643.27-1.332.59-2.095.475-.91-.137-1.705-.891-1.715-1.857-.009-.867.758-1.6 1.238-1.906.562-.357 1.399-.625 2.19-.951 3.604-1.49 7.311-3.107 10.953-4.668 1.507-.645 2.979-1.522 4.429-1.809.666-.133 1.686.041 2.619 0 4.021-.178 8.217.115 12.477 0 2.236-.06 5.179-.439 5.572 1.523.216 1.082-.403 1.867-1.238 2.143-1.071.353-2.557.064-4 .096-.657.014-1.344.047-1.953.047-.662-.001-1.362-.14-1.81.237z"/></g></svg>