<svg enable-background="new 0 0 74.235 74.781" viewBox="0 0 74.235 74.781" xmlns="http://www.w3.org/2000/svg"><path clip-rule="evenodd" d="m36.058.035c2.86-.136 6.004.134 8.63.707 2.557.558 5.072 1.247 7.116 2.22 6.402 3.048 11.634 7.037 15.444 12.517 1.255 1.806 2.468 3.623 3.482 5.804 1.95 4.192 3.266 9.35 3.482 15.141.166 4.442-.664 8.634-1.716 12.163-1.736 5.825-4.924 10.663-8.631 14.636-1.503 1.611-3.155 3.129-4.946 4.391-2.626 1.851-5.735 3.706-9.084 4.896-3.172 1.127-7.542 2.271-11.659 2.271-3.147 0-5.99-.146-8.63-.706-7.538-1.601-13.642-5.062-18.27-9.691-1.525-1.525-2.913-3.281-4.24-5.097-3.859-5.287-6.691-12.195-7.013-20.895-.213-5.743 1.105-11.253 2.927-15.495 1.979-4.607 4.069-8.035 7.268-11.355.4-.416.696-.879 1.11-1.262 2.797-2.581 5.872-4.834 9.64-6.611 4.13-1.948 9.1-3.633 14.99-3.634.033 0 .067.002.1 0zm-2.978 42.395c.789.572 1.627.908 2.625 1.161 2.123.537 4.458.078 6.359-.656 1.833-.707 3.199-1.804 4.391-3.129 1.228-1.365 2.164-2.956 3.583-3.987.585-.425 1.305-.902 2.271-1.009 1.561-.173 2.889.343 4.239.707 3.428.923 6.067 1.943 9.084 3.28.576.255 1.411.711 1.867.556.757-.259.717-2.059.656-3.432-.061-1.37-.243-2.736-.403-3.685-1.576-9.337-6.354-15.829-12.517-20.289-4.66-3.372-10.784-6.232-18.927-5.855-5.293.246-9.543 1.352-13.273 3.28-3.706 1.917-6.889 4.362-9.336 7.268-1.292 1.533-2.478 3.016-3.432 4.845-.923 1.768-1.788 3.611-2.523 5.754-1.007 2.932-1.934 6.55-1.614 10.698.105 1.367-.126 3.155.808 3.382.567.137 1.428-.471 2.019-.808.703-.401 1.322-.765 1.867-1.06 1.29-.698 2.898-1.192 4.138-1.716 2.064-.871 4.168-1.655 6.46-2.322.793-.23 1.749-.426 2.17-.807.636-.576.732-1.958 1.01-2.726 1.373-3.796 4.223-6.972 8.075-8.328 1.56-.549 3.518-1.051 5.703-.808 3.474.388 6.292 2.326 8.075 5.047.869 1.327 1.655 2.937 1.615 4.946-.039 1.966-.678 3.283-1.867 4.744-.791.718-1.712 1.188-2.927 1.464-1.272.289-2.642.182-4.139.252-1.36.064-2.807.101-4.139.252-1.304.148-2.835-.069-3.533.858.221 1.172.92 1.618 1.615 2.123zm-.403-11.861c-.455.362-1.577 1.39-1.464 2.069.147.886 2.683.414 3.886.353 1.492-.075 2.984-.218 4.34-.202.891.011 2.118.214 2.221-.757.055-.518-.464-1.221-.858-1.615-.997-.997-2.504-1.614-4.391-1.413-1.516.162-2.776.802-3.734 1.565zm19.279 12.062c-1.108 1.807-2.843 3.19-4.492 4.29-2.372 1.582-4.943 2.843-8.63 3.079-4.068.26-6.939-.733-9.236-2.372-1.56-1.113-3.11-2.843-4.088-4.694-.322-.609-.643-1.408-1.363-1.564-.635-.138-1.618.198-2.372.404-.765.209-1.55.543-2.17.757-3.441 1.185-7.06 2.845-9.892 4.644-.524.332-1.355.905-1.413 1.513-.058.607.511 1.685.808 2.321.36.774.769 1.443 1.06 2.069.679 1.464 1.624 2.619 2.422 3.835.829 1.263 1.948 2.189 3.028 3.23 3.275 3.155 7.04 5.341 11.81 6.965 3.207 1.092 6.875 1.651 11.003 1.463 7.923-.36 13.334-3.055 18.169-6.915 3.963-3.163 7.23-7.401 9.286-12.617.293-.741.835-1.751.707-2.372-.184-.896-1.666-1.444-2.675-1.868-2.284-.958-4.137-1.844-6.511-2.574-1.17-.359-2.663-1.056-3.735-.908-.704.098-1.432.85-1.716 1.314z" fill-rule="evenodd"/></svg>