<svg enable-background="new 0 0 67.73 75.696" viewBox="0 0 67.73 75.696" xmlns="http://www.w3.org/2000/svg"><path clip-rule="evenodd" d="m54.443 22.276c.805.221 1.862.193 2.847.193 2.905 0 6.276-.422 7.962 1.062 1.415 1.27 2.639 2.682 2.461 5.164-.151 2.109-1.628 3.533-2.799 4.775-2.452 2.604-5.037 5.277-7.432 7.771-.54.475-1.07.953-1.592 1.447-.504.475-1.141.936-1.399 1.641 2.725.391 5.471-.072 7.914.145 2.244.197 3.854 1.732 4.681 3.426 1.104 2.26.33 4.537-.869 6.129-1.17 1.555-2.595 2.896-3.86 4.246-5.218 5.565-10.86 10.986-15.925 16.553-.337.293-.63.877-1.11.867 1.15-2.521.465-6.32-1.496-7.432-1.186-1.326-3.417-1.158-5.646-1.158-6.748.002-13.424.096-20.123.098-3.07 0-6.812-.049-10.038-.049-1.143 0-2.23.094-3.233-.049-1.778-.248-3.328-1.326-4.102-2.701-.851-1.512-.866-3.709.048-5.357.792-1.428 2.088-2.422 4.15-2.652 1.952-.221 4.346-.098 6.66-.098 4.457.002 9.1-.049 13.415-.049 4.14.002 9.135-.158 13.367 0 2.293.086 4.148-.201 5.501-1.254 1.297-1.008 2.176-2.457 2.171-4.584-.004-1.746-1.028-3.285-2.075-4.199-1.241-1.082-2.823-1.449-4.874-1.398-10.185.247-20.835.018-31.027.047-1.958.006-3.865-.037-5.308-.867-1.298-1.074-2.363-2.098-2.654-4.006-.286-1.873.54-3.512 1.496-4.488 1.076-1.098 2.506-1.602 4.392-1.69 3.881-.18 7.952-.047 11.823-.047 6.149 0 11.753-.047 17.903-.049 2.038 0 4.164.199 6.081 0 1.888-.195 3.591-1.943 4.102-3.764.732-2.613-.361-5.07-1.833-6.274-1.254-1.023-2.975-1.303-5.067-1.303-10.351.002-20.809.045-31.512.047-2.122.002-4.197-.102-6.128.146-.199-.227.318-.543.434-.773 3.622-3.492 6.743-7.273 10.373-10.902 2.934-2.935 6.149-6.289 9.12-9.508.374-.404 1.003-1.135 1.399-1.254.848-.256 2.215-.049 3.282-.049h3.281 20.509c2.213 0 4.472-.057 6.853 0 2.295.055 4.722-.281 6.659.145 1.44.316 2.438 1.219 3.233 2.221.817 1.029 1.324 2.447 1.11 4.197-.259 2.119-1.604 3.012-2.751 4.488-3.061 3.193-6.162 6.437-9.168 9.748-.403.443-1.07.748-1.206 1.398z" fill-rule="evenodd"/></svg>