<svg enable-background="new 0 0 78.072 46.164" viewBox="0 0 78.072 46.164" xmlns="http://www.w3.org/2000/svg"><path clip-rule="evenodd" d="m77.969 42.538c.016 1.085.252 2.513-.048 3.454-3.561.233-7.159.098-10.896.098-3.79 0-7.511.237-10.702-.535-4.52-1.094-7.744-3.554-10.069-6.859-.404-.575-.718-1.153-1.021-1.8-.283-.602-.457-1.3-.925-1.848-.437.5-.558 1.222-.827 1.848-.773 1.804-2.063 3.169-3.502 4.427-1.765 1.543-4.362 2.872-6.956 3.6-2.754.772-5.961 1.116-9.34 1.216-3.203.095-6.636-.066-9.681-.583-5.849-.997-10.809-3.546-12.746-8.369-1.035-2.579-1.396-6.209-.34-8.853 1.017-2.547 2.562-4.321 4.816-5.741.623-.392 1.282-.636 1.849-1.167-.212-.401-.664-.6-1.022-.827-1.802-1.144-3.454-2.523-4.67-4.378-1.272-1.94-2.497-5.32-1.557-8.464.959-3.205 3.417-5.152 6.323-6.275 1.532-.592 3.256-1.005 5.06-1.216 1.883-.221 3.859-.142 6.032-.243 1.915-.089 4.186.107 6.178.194 2.088.092 4.18.21 5.935.487 3.797.598 6.843 1.846 9.632 3.259 2.792 1.414 5.272 3.455 7.15 5.74 1.907 2.319 3.112 5.425 4.378 8.464.614 1.473 1.429 2.901 2.092 4.378.67 1.491 1.284 2.999 1.946 4.475 1.339 2.988 2.522 6.079 4.037 8.854 1.46 2.673 3.74 4.992 6.908 5.983 2.562.802 5.808.535 8.999.535.992 0 2.005-.093 2.967.146zm-51.904-40.472c.298.71.737 1.212.974 1.898 1.136 3.288-.982 6.202-3.356 7.004-1.749.591-3.525.112-4.719-.729-1.758-1.239-2.819-3.755-2.043-6.227.153-.489.613-.891.584-1.557-1.279.276-2.319.87-3.113 1.703-1.16 1.217-1.851 3.061-1.46 5.4.347 2.066 1.637 3.867 3.064 5.107 1.435 1.246 3.125 2.402 5.254 2.919 4.389 1.064 9.737 1.629 14.788 1.362.405.395.705 1.135.682 1.8-4.04.158-7.731.198-11.092 1.07-1.103.286-2.251.505-3.21.875-1.546.597-3.134 1.797-4.135 3.113-1.079 1.418-1.765 3.381-1.752 5.545.021 3.331 1.564 6.117 3.454 7.783 2.031 1.792 4.692 3.035 7.881 3.356 3.612.364 6.8-.841 8.999-2.14 1.088-.643 2.218-1.493 3.016-2.578.767-1.042 1.552-2.559 1.509-4.135-.043-1.53-.949-2.718-1.898-3.405-.564-.409-1.33-.84-2.189-.778.275 2.84-.688 4.999-2.432 6.032-3.346 1.982-7.33-.398-7.881-3.454-.206-1.141-.08-2.43.243-3.211 1.06-2.557 4.393-4.089 8.026-3.454 1.716.299 3.57 1.263 4.815 2.091.466.31.876.759 1.411.827-.194-1.266-.833-2.436-1.313-3.648-.96-2.423-2.107-4.733-3.065-7.102-.242-.6-.425-1.241-.681-1.849-.684-1.62-1.215-3.332-1.897-4.913-1.753-4.061-3.6-7.926-8.318-8.853-.07.029-.119.077-.146.148z" fill-rule="evenodd"/></svg>