<svg enable-background="new 0 0 72.974 60.205" viewBox="0 0 72.974 60.205" xmlns="http://www.w3.org/2000/svg"><path clip-rule="evenodd" d="m22.56 19.493c.909.397 1.965.256 2.963.256 5.337 0 10.313.051 15.942.051 1.714 0 5.333-.249 5.978.665.281.397.131 1.155.153 1.941.096 3.244-.052 7.156-.051 10.576 0 1.573.205 3.644-.613 4.139-.619.375-1.799.153-2.912.153-5.104 0-10.349-.1-15.431-.103-.945 0-1.988-.045-3.066 0-1.379.059-2.764-.31-3.321.46-.526.728-.254 2.34.512 2.709.672.323 2.162.186 3.219.152 1.214-.037 2.439-.005 3.423 0 3.94.022 9.27.073 13.285.052 1.701-.01 4.742.381 6.54-.103.982-.264 1.801-1.12 2.146-2.095.41-1.16.231-2.836.306-4.445.22-4.691.009-9.847.154-14.204.099-2.954 0-5.891 0-9.607-.001-1.938.016-4.964.051-7.256.018-1.151-.098-1.951.307-2.299.678-.583 4.031-.232 5.007-.204 4.59.132 8.43.052 13.183.051.942 0 2.061.011 2.351.307.513.522.185 2.786.204 3.934.161 9.024-.152 19.413-.153 28.767 0 2.799-.023 5.587-.051 8.227-.088 8.378-3.583 12.824-8.993 16.146-1.712 1.052-3.689 1.875-6.131 2.248-2.382.365-5.179.103-8.073.103-11.108.001-21.553-.152-33.059-.153-3.845-.001-8.107-.102-12.365-.103-1.209 0-3.386.159-3.832-.357-.34-.393-.204-2.226-.204-3.525-.001-8.703.204-17.156.204-25.804 0-4.796.047-9.851.204-14.868.117-3.732.102-7.312.102-11.189 0-1.869-.463-3.939 1.073-4.088.874-.085 1.856.065 2.811.051 10.517-.159 20.954.102 31.932.101 2.887 0 5.732.055 8.686.102 1.016.017 2.129-.132 2.504.307.513.601.204 2.835.204 3.935 0 2.839-.102 5.346-.101 8.328 0 1.343.164 3.401-.46 3.935-.479.409-1.772.218-2.861.256-1.207.042-2.253-.008-3.22-.052-2.286-.103-4.163 0-6.284 0-2.146 0-4.251-.051-6.541-.051-.981 0-2.037.056-3.219 0-1.087-.051-2.306-.074-2.708.46-.365.486-.427 1.587.205 2.094zm2.605-6.284c5.229 0 10.274.051 15.635.051 1.045 0 2.388.089 2.811-.357.368-.39.275-1.242.307-2.095.064-1.69-.065-3.042 0-4.804.028-.769.137-1.708-.255-2.095-.593-.582-3.222-.307-4.599-.307-5.011-.001-9.687.046-14.614-.051-4.865-.096-9.724.1-14.511-.103-1.571-.064-3.462-.275-4.905-.05-1.249.196-.971 1.916-.971 3.526.001 8.005-.364 15.052-.153 22.636.121 4.331-.102 8.733-.103 13.028 0 3.118.052 6.682.052 9.812 0 .916-.115 2.733.153 3.116.493.705 2.118.511 3.475.511 1.394 0 2.716-.034 3.729 0 7.241.25 15.004.156 22.124.153 4.919-.002 9.229.103 14.46.103 2.552 0 5.034-.055 7.256.051 2.413.114 4.295-.668 5.927-1.532 3.187-1.689 5.668-4.351 6.898-7.972.599-1.761 1.152-3.96 1.073-6.336-.078-2.346.037-4.85.051-7.306.046-8.585.206-17.074.204-25.701 0-1.169.187-2.947-.204-3.424-.406-.496-2.224-.409-3.321-.408-1.459 0-2.331.029-3.423.051-1.305.025-2.273-.144-3.476-.103-1.094.038-2.674-.175-3.167.307-.4.391-.307 1.527-.307 2.606-.001 2.901-.052 5.444-.052 8.226 0 3.536-.102 7.088-.102 10.576 0 3.319-.188 7.054 0 10.985.088 1.846.002 3.464-.613 4.803-.54 1.175-1.547 2.332-2.759 2.76-1.879.663-5.558.501-8.227.408-2.769-.096-5.715-.074-8.328-.102-4.091-.043-8.552-.052-12.825-.052-1.409 0-3.412.228-3.985-.357-.513-.523-.323-1.629-.307-2.452.044-2.272.084-3.228.101-5.161.008-.854-.106-1.919.256-2.351.429-.511 1.874-.463 3.168-.408 1.367.058 2.423.051 3.116.051 4.46-.001 8.3.052 12.518.051.971 0 1.959.001 3.168 0 1.158 0 2.396.241 2.913-.153.494-.376.322-1.432.357-2.35.034-.92 0-1.653 0-2.401 0-1.459.146-4.07-.357-4.65-.523-.6-2.192-.408-3.475-.408-5.477 0-10.402-.051-15.84-.052-1.647 0-5.098.332-5.62-.767-.206-.431-.082-1.444-.052-2.146.036-.817 0-1.525 0-2.299 0-1.964-.335-4.422.817-4.957 1.887-.293 3.939-.101 5.982-.101z" fill-rule="evenodd"/></svg>