<svg enable-background="new 0 0 79.738 44.329" viewBox="0 0 79.738 44.329" xmlns="http://www.w3.org/2000/svg"><g clip-rule="evenodd" fill-rule="evenodd"><path d="m35.323.289c.233 2.623.217 6.018.05 8.708-2.803.154-5.688.05-8.607.05-8.834 0-17.973.026-26.624-.2-.164-1.992-.123-4.631-.1-6.806.009-.886-.237-1.87.55-2.002.616-.103 1.425.028 2.202.05 10.619.295 21.881-.235 32.529.2z"/><path d="m79.612.489c.166 2.656.167 6.003 0 8.658-11.288.169-23.672.057-35.231-.15-.179-1.313-.1-2.874-.1-4.404 0-1.51-.144-3.095.2-4.304 8.893-.096 17.727-.017 26.523.05 2.877.022 5.768-.134 8.608.15z"/><path d="m35.323 17.855c.172 2.703.247 6.017.05 8.758-1.389.237-2.863.1-4.304.1-10.204.002-20.985.031-30.928-.2.01-.042-.02-.047-.05-.05-.106-1.801-.051-4.309-.05-6.606 0-.586-.104-1.892.149-2.102.037-.047.091-.076.15-.1 11.875.105 23.639-.033 34.983.2z"/><path d="m79.612 18.055c.177 1.326.1 2.892.1 4.404.001 1.529.119 3.082-.149 4.354-11.213.169-23.604.053-35.182-.15-.164-2.028-.1-4.392-.1-6.706 0-.725-.142-1.532.2-2.102 10.167-.089 20.671.048 30.927.05 1.394 0 2.837-.115 4.204.15z"/><path d="m35.323 35.52c.266 1.317.15 2.922.149 4.454 0 1.504.098 3.04-.149 4.304-11.385.066-23.685.111-35.182-.15-.221-1.737-.046-4.567-.1-6.856-.013-.538-.19-1.84.3-1.952 1.07-.242 3.265 0 4.504 0 10.068.001 20.865-.048 30.478.2z"/></g></svg>