<svg enable-background="new 0 0 70.733 75.088" viewBox="0 0 70.733 75.088" xmlns="http://www.w3.org/2000/svg"><g clip-rule="evenodd" fill-rule="evenodd"><path d="m43.917 25.379c.144-.53.759-.703 1.081-1.179.397-.588.717-1.407.54-2.407-.448-2.544-3.061-4.386-4.716-6.042-1.922-1.922-3.895-3.472-5.6-5.158-3.188-3.07-6.542-5.97-9.727-9.087-.436-.427-1.074-.749-1.277-1.375 6.612-.214 12.886-.114 19.552-.049 3.222 3.008 6.232 6.38 9.677 9.824.805.805 1.612 1.64 2.407 2.505 1.541 1.679 3.056 3.306 4.715 5.01.782.803 1.656 1.876 2.064 2.8 1.295 2.939-1.314 5.118-3.881 5.305-3.027.221-6.866 0-10.267 0-1.65 0-3.202.019-4.568-.147z"/><path d="m.247 5.239h.099c3.458 3.467 6.888 6.964 10.216 10.561-.065 14.066.134 28.14-.098 42-.355.092-.553-.307-.737-.491-1.483-1.484-2.993-3.141-4.52-4.667-1.195-1.195-2.596-2.597-3.93-3.93-.381-.381-1.058-1.028-1.179-1.425-.19-.622-.049-1.716-.049-2.604.003-13.075-.032-26.492.05-39.297.028-.071.077-.12.148-.147z"/><path d="m26.921 13.295c.009-.001.054-.049.099-.049 4.056.002 7.347 1.046 10.119 2.407 1.275.626 2.625 1.394 3.881 2.358 1.113.856 2.425 2.037 2.8 3.439.416 1.557-.479 2.729-1.523 3.242-1.529.751-4.095.766-6.337.688-2.326-.081-4.44-.54-6.042-1.031-1.749-.538-3.51-1.231-5.01-2.063-1.468-.813-3.017-2.008-3.684-3.389-.216-.447-.487-1.462-.344-2.211.475-2.49 3.433-3.199 6.041-3.391z"/><path d="m11.791 17.175h.148c1.816 1.753 3.564 3.575 5.256 5.453 1.672 1.898 3.611 3.528 5.207 5.501-.09 5.099.225 10.359-.098 15.13-.441-.341-.582-.929-.786-1.425-1.026-2.49-2.099-5.118-3.145-7.663-.419-1.021-.89-2.052-1.228-3.095-1.104-3.402-2.627-6.87-4.028-10.267-.479-1.163-1.037-2.437-1.326-3.488 0-.048 0-.096 0-.146z"/><path d="m51.679 30.438c.071.502-.554.72-.442 1.425.129 1.64 1.31 2.228 1.965 3.34 1.117 1.284 2.211 2.626 3.292 3.979.536.671.971 1.451 1.522 2.112s1.12 1.278 1.621 1.965c2.026 2.774 4.441 5.295 6.435 8.056 1.998 2.768 4.147 5.442 4.569 9.923.426 4.534-.603 8.754-3.292 10.954-3.159 3.72-11.456 2.82-18.077 2.751-.088-.323.458-.876.442-1.326-.031-.862-1.184-2.094-1.769-2.849-4.674-6.036-9.383-12.04-14.098-18.077-2.647-3.39-5.865-6.324-6.288-12.084-.215-2.922.556-5.397 1.916-7.172 1.212-1.581 3.441-3.032 6.189-3.193 1.254-.074 2.6-.001 3.93.049 3.995.15 8.223-.227 12.085.147z"/><path d="m70.492 30.488c.21 6.872.179 14.095 0 20.975-.559-.217-.84-.802-1.179-1.228-1.024-1.29-2.176-2.551-3.242-3.88-1.407-1.755-2.797-3.56-4.225-5.305-.711-.87-1.425-1.748-2.112-2.653-.689-.909-1.504-1.699-2.161-2.604-1.01-1.391-2.016-2.677-3.095-4.028-.298-.375-.909-.78-.786-1.375 5.557-.069 11.3-.108 16.8.098z"/><path d="m17.342 34.565h.099c.262.404.146.937.146 1.375.001 5.566.068 11.442-.049 17.242-.573-.291-.596-.969-.786-1.523-.662-1.933-1.742-4.088-2.652-6.189-.642-1.482-1.226-3.02-1.965-4.667-.223-.496-.688-1.167-.639-1.572.052-.432.939-.99 1.326-1.277 1.508-1.12 2.997-2.126 4.372-3.292.036-.045.089-.073.148-.097z"/><path d="m47.209 74.895c-1.512.261-3.128.147-4.766.147-1.615 0-3.26-.049-4.912-.049-3.325.001-6.723.116-9.824-.147-.208-6.139-.16-12.411-.099-18.372.021-2.083-.057-4.362.05-6.288-.003-.084.036-.127.098-.147h.099c4.919 6.133 9.843 12.262 14.639 18.52.857.993 1.59 2.11 2.406 3.144.383.536.828 1.011 1.229 1.523.391.501.859 1.013 1.08 1.669z"/><path d="m22.156 53.526h.098c.295.478.182 1.122.197 1.67.05 1.807-.05 3.76-.05 5.748 0 3.141.196 6.321-.098 9.235-.638-.198-1.005-.818-1.425-1.277-1.234-1.348-2.797-2.595-3.979-4.028-1.203-1.458-2.533-2.779-3.881-4.127-.441-.442-.965-.865-1.179-1.474 1.549-1.104 3.433-1.874 5.06-2.898 1.725-.977 3.426-1.978 5.257-2.849z"/></g></svg>