<svg enable-background="new 0 0 65.604 72.619" viewBox="0 0 65.604 72.619" xmlns="http://www.w3.org/2000/svg"><path clip-rule="evenodd" d="m31.439 0h.098c4.294 2.378 8.423 5.121 12.72 7.506 1.44.799 2.912 1.551 4.338 2.388 4.963 2.915 9.991 5.682 14.963 8.627.686.406 1.491.704 2.047 1.316-.449.52-1.121.803-1.706 1.121-1.776.963-3.58 2.022-5.41 3.021-4.791 2.617-9.505 5.434-14.329 8.139-1.713.96-3.515 2.042-5.361 3.07-.431.24-1.669.741-1.706 1.072-.045.412 1.343.992 1.657 1.17 4.171 2.366 8.333 4.773 12.477 7.164 4.829 2.788 9.598 5.352 14.231 8.188-.501.683-1.357.957-2.047 1.365-.712.421-1.438.805-2.144 1.218-1.42.83-2.796 1.762-4.24 2.535-2.902 1.553-5.797 3.181-8.626 4.874-4.958 2.966-9.906 5.797-14.865 8.773-.684.411-1.392.92-2.193 1.072-.153-9.322-.098-18.805-.098-28.414 0-1.474.118-2.959-.146-4.387-.589.063-1.071.45-1.56.732-6.108 3.521-12.291 7.18-18.569 10.624-.47.258-.941.556-1.414.829-.456.264-1 .478-1.316.926.46.516 1.121.812 1.706 1.169 2.909 1.775 6.119 3.358 9.114 5.118 1.191.7 2.432 1.316 3.509 2.145-.06 1.435.123 3.112-.098 4.386-.562.019-.998-.42-1.462-.683-5.151-2.914-10.234-5.82-15.499-8.772-1.364-.765-2.748-1.53-4.191-2.437-.421-.264-1.276-.562-1.316-.877-.081-.64 1.238-.968 1.56-1.268 4.486-2.575 9.048-5.107 13.598-7.603 2.284-1.253 4.49-2.622 6.774-3.85 1.69-.909 3.351-1.926 5.02-2.924.529-.317 1.172-.561 1.56-1.072-.394-.574-1.077-.84-1.657-1.169-2.912-1.654-5.925-3.393-8.871-5.118-1.176-.688-2.362-1.394-3.558-2.047-3.627-1.981-7.067-4.021-10.771-6.044-.554-.303-1.067-.684-1.755-1.072-.484-.274-1.637-.739-1.657-1.121-.02-.378.816-.682 1.267-.926 3.302-1.791 6.496-3.696 9.699-5.507 1.888-1.068 3.797-1.995 5.605-3.071 1.378-.82 2.78-1.51 4.24-2.29.438-.233.866-.65 1.413-.633.219 1.34.039 3.08.098 4.581-1.017.837-2.233 1.409-3.412 2.047-2.337 1.266-4.451 2.532-6.921 3.899-.473.262-.967.538-1.754.975-.42.233-1.592.716-1.608 1.072-.016.354.836.682 1.267.926 4.176 2.359 8.339 4.776 12.525 7.165 1.857 1.06 3.685 2.122 5.556 3.217.906.529 1.798 1.174 2.827 1.511.348-.75.195-1.646.195-2.437 0-9.152 0-18.16 0-27.098 0-1.036-.04-2.059.049-2.973.028-.072.077-.121.147-.148zm3.704 7.067c-.087.933-.049 2.105-.049 3.217v19.056c0 1.033-.119 2.109.146 3.119.53-.053.969-.415 1.413-.682 1.407-.847 2.865-1.549 4.24-2.388 1.85-1.129 3.805-2.046 5.653-3.168 3.239-1.965 6.667-3.691 9.894-5.556.44-.255 1.128-.314 1.365-.878-1.667-1.332-3.618-2.267-5.507-3.314-4.72-2.616-9.271-5.367-14.085-7.993-.757-.413-2.158-1.316-2.924-1.56-.07.028-.118.077-.146.147zm0 33.19c-.086.907-.049 2.138-.049 3.265v21.006c0 .466-.152 1.062.195 1.462.536-.041.978-.425 1.413-.683 1.426-.843 2.849-1.62 4.289-2.437 1.877-1.065 3.752-2.196 5.702-3.217 1.864-.976 3.706-2.316 5.654-3.265.919-.448 1.809-1.015 2.875-1.608.405-.226.868-.469 1.462-.78.404-.211 1.301-.641 1.267-.975-.021-.207-1.013-.763-1.267-.926-1.379-.886-2.969-1.684-4.289-2.388-3.888-2.074-7.581-4.246-11.355-6.384-.875-.496-1.793-1.096-2.778-1.657-.785-.448-2.198-1.26-2.973-1.56-.07.028-.118.077-.146.147z" fill-rule="evenodd"/></svg>