<svg enable-background="new 0 0 80.728 65.928" viewBox="0 0 80.728 65.928" xmlns="http://www.w3.org/2000/svg"><g clip-rule="evenodd" fill-rule="evenodd"><path d="m64.859 15.798c-15.922.253-32.305-.028-48.466.147-.376.965-.099 2.022-.147 3.023-.151 3.193-.012 6.291-.049 9.411-.05 4.188-.145 8.45 0 12.58.145 4.151-.198 8.327-.049 12.482.112 3.101 0 6.122 0 9.459 0 .988.189 2.019-.146 2.974-2.469.125-5.225 0-7.948 0-2.7 0-5.477.117-7.948-.146-.207-21.508-.047-42.439-.047-63.875 0-.6-.146-1.297.195-1.853 20.775.179 43.445-.021 64.557.195.312.536.195 1.229.195 1.852v9.996c0 1.321.086 2.617-.147 3.755z"/><path d="m80.56 17.992c.31 1.316.098 2.685.098 4.047 0 9.679.119 19.108-.098 28.573-2.537.262-5.119.146-7.704.146-18.14-.001-36.73.083-54.658-.098-.264-1.149-.146-2.426-.146-3.706 0-2.502 0-5.102 0-7.655 0-1.262-.118-2.523.146-3.657 14.872-.253 30.865.075 46.272-.195.231-.335.198-1.351.049-1.755-.913-.254-1.887-.156-2.828-.146-2.628.028-5.76-.131-8.728 0-3.857.169-7.749-.134-11.605.048-1.93.091-3.898 0-5.851 0-4.993 0-9.71-.049-14.579-.048-.935 0-1.887.117-2.779-.146-.156-4.769-.18-10.51.049-15.408 9.785-.173 19.895-.098 29.987-.098 10.832.002 21.687-.093 32.375.098z"/></g></svg>