<svg enable-background="new 0 0 84.101 65.968" viewBox="0 0 84.101 65.968" xmlns="http://www.w3.org/2000/svg"><g clip-rule="evenodd" fill-rule="evenodd"><path d="m.33.017c3.451.066 7.167-.133 10.449.101.18 18.62.101 38.415.101 57.698 0 2.711.102 5.422-.151 8.026-3.4.051-7.284.149-10.601-.051-.185-5.487-.101-10.998-.101-16.557 0-15.603-.087-31.121.05-47.199.006-.73-.134-1.54.101-1.918.038-.046.093-.075.152-.1z"/><path d="m83.975.169c.168 21.633.168 43.989 0 65.674-15.731.178-32.185.169-47.905-.051 2.005-.531 3.877-.861 5.603-1.564 4.822-1.967 8.823-5.802 10.146-11.308.486-2.021.83-4.01.707-6.361-.052-1.003-.249-2.106-.504-3.079-.255-.974-.467-1.937-.808-2.726-1.05-2.434-2.596-4.492-4.543-6.209-.425-.375-1.867-1.275-1.868-1.666-.001-.379 1.588-1.419 1.868-1.666 1.904-1.679 3.315-3.694 4.392-6.158 1.37-3.133 1.735-8.257.656-12.115-.273-.977-.477-1.858-.858-2.675-2.138-4.581-6.251-8.11-11.661-9.49-.907-.231-1.851-.36-2.827-.656 3.846-.18 8.599-.102 12.721-.101 5.963.001 11.945.05 17.517.051 5.833 0 11.695-.123 17.364.1z"/><path d="m29.609 7.034c4.796-.41 8.144 2.064 9.995 4.695 1.374 1.952 2.416 5.184 1.868 8.582-.44 2.726-2.014 5.222-3.988 6.764-2.039 1.592-4.797 2.757-8.178 2.474-3.134-.263-5.495-1.747-7.169-3.584-1.739-1.91-2.997-4.277-2.978-7.774.018-3.256 1.528-5.878 3.129-7.623 1.609-1.751 4.009-3.251 7.321-3.534z"/><path d="m30.568 36.918c3.76-.013 6.867 2.102 8.531 4.392.783 1.078 1.622 2.653 2.019 4.493.4 1.854.197 4.148-.303 5.704-1.029 3.201-3.208 5.558-6.108 6.865-3.387 1.527-7.447 1.111-10.399-.707-2.577-1.586-4.732-4.218-5.25-7.723-.601-4.075 1.003-7.375 2.776-9.339 1.893-2.095 4.632-3.671 8.734-3.685z"/></g></svg>