<svg enable-background="new 0 0 77.198 63.429" viewBox="0 0 77.198 63.429" xmlns="http://www.w3.org/2000/svg"><path clip-rule="evenodd" d="m46.259.102c-.349.862-1.153 1.407-1.782 2.035-1.866 1.866-3.634 3.938-5.547 5.852-1.253 1.254-2.526 2.495-3.766 3.817-1.214 1.294-2.536 2.525-3.714 3.867-2.306 2.625-4.896 5.164-7.38 7.837-2.106 2.266-4.381 4.38-6.514 6.769-.312.35-.809.846-.814 1.068-.009.36.659.967.916 1.272.983 1.166 2.075 2.468 3.003 3.511 1.603 2.009 3.301 3.926 5.037 5.802 1.733 1.873 3.268 3.907 4.936 5.852.725.719 1.242 1.642 2.138 2.188.317-.504.204-1.171.204-1.73.001-9.3-.086-19.164.102-28.345 6.699-.177 14.282-.05 21.322-.051 3.698-.001 7.4-.245 10.433.355 2.974.591 5.149 2.016 7.073 3.665 3.53 2.949 6.587 9.075 4.732 15.826-.767 2.794-2.113 5.065-3.918 6.87-1.326 1.326-2.825 2.65-4.631 3.461-.577.258-1.313.309-1.781.865.374.975 1.175 1.688 1.832 2.441 1.95 2.235 3.751 4.672 5.802 6.87.451.47.866 1.018 1.323 1.527.417.465 1.106.877 1.119 1.577-5.413.205-11.09.104-16.59.051-.685-.346-1.126-1.033-1.629-1.577-3.035-3.289-6.034-6.681-9.109-10.127-.453-.508-1.271-1.207-1.424-1.73-.215-.735-.052-2.034-.052-2.9 0-1 0-2.014 0-2.951 0-2.012-.121-3.982.153-5.7 3.172-.104 7.611-.086 10.89 0 1.31.034 2.886.149 3.766-.152 1.436-.492 2.464-2.845.968-4.173-.967-.782-2.389-.65-3.868-.713-1.434-.06-3.021-.05-4.479-.051-3.023-.001-6.095-.188-8.752.102-.307 1.178-.115 2.437-.153 3.664-.264 8.382.281 17.715-.102 26.157-5.734.376-12.244.011-18.32.102-1.287-1.195-2.415-2.585-3.562-3.918-3.426-3.981-6.866-8.048-10.381-12.01-4.192-5.065-8.674-9.901-12.977-15.063-.282-.337-.756-.801-.763-1.068-.012-.441 1.405-1.755 1.73-2.087 9.381-9.583 18.351-19.511 27.735-29.058.037-.047.092-.077.152-.101 5.553.078 11.176-.094 16.642.102z" fill-rule="evenodd"/></svg>