<svg enable-background="new 0 0 81.348 44.871" viewBox="0 0 81.348 44.871" xmlns="http://www.w3.org/2000/svg"><g clip-rule="evenodd" fill-rule="evenodd"><path d="m81.324 2.894c-1.025 1.01-2.32 1.698-3.526 2.519-2.936 1.997-6.005 4.008-9.067 6.045-.57.379-1.342.974-1.914 1.108-.887.208-2.135.098-3.275.05-3.076-.129-6.678-.05-9.772-.05-13.226 0-26.456.035-39.093-.252-.268-.654-.152-1.876-.05-2.62.888-1.094 2.364-1.599 3.425-2.518 2.359-1.622 5.412-3.639 8.061-5.34.885-.568 1.928-1.438 2.771-1.712.748-.244 2.367-.051 3.476-.051 16.362 0 32.749.003 48.765.252.426.495.094 1.75.199 2.569z"/><path d="m39.008 19.569c-.823.188-2.168.109-3.072.05-.297-.572-.332-1.083-.705-1.562-1.143-1.461-4.777-1.444-4.938.806.215 1.617 2.604 1.627 4.08 1.965 2.115.483 4.002 1.181 4.786 3.124.353.873.435 2.579 0 3.627-1.952 4.715-13.22 4.557-12.544-2.468.897-.137 2.23-.274 3.123 0 .154.796.154 1.326.555 1.864 1.25 1.68 5.552 1.068 5.643-.856.049-1.053-.87-1.537-1.461-1.763-2.08-.797-5.262-.648-6.65-2.217-1.568-1.772-1.19-4.578.051-6.045 1.097-1.297 3.234-2.137 5.643-1.965 3.034.216 5.771 2.15 5.489 5.44z"/><path d="m25.103 14.632c.145.728.212 2.171-.049 2.821-2.104.327-4.79-.135-6.851.151-.365.585-.182 1.956-.152 2.77.867.429 2.222.252 3.477.252 1.262 0 2.557-.111 3.527.151.285.677.123 1.976 0 2.72-.945.207-2.198.101-3.426.101-1.227 0-2.459-.078-3.476.101-.298.801-.131 2.312-.102 3.274.895.392 2.227.252 3.477.252 1.266 0 2.549-.112 3.527.151.167.679.158 1.989 0 2.67-1.643.176-3.488.11-5.291.101-1.764-.01-3.59.022-5.138-.202-.247-4.077-.017-9.267-.101-13.602-.014-.68-.073-1.558.201-1.814.037-.047.092-.076.15-.101 1.774-.005 3.508-.015 5.24.05 1.618.064 3.454-.167 4.987.154z"/><path d="m48.478 14.632c.615 1.198.945 2.514 1.411 3.778.937 2.538 1.71 5.158 2.619 7.758.448 1.283 1.026 2.556 1.26 3.929-.827.293-2.337.133-3.325.101-.732-.516-.471-2.273-1.26-2.821-.503-.351-1.715-.151-2.518-.151-.947 0-1.85-.04-2.621.051-.836.607-.728 2.159-1.41 2.922-.933-.039-2.49.15-3.324-.151.605-2.588 1.652-4.988 2.619-7.909.621-1.876 1.311-3.897 2.016-5.894.283-.803.328-1.67 1.108-1.763 1.087-.132 2.39.192 3.425.15zm-1.057 6.75c-.258-.866-.442-1.785-.806-2.569-.125-.008-.209.026-.252.101-.258.847-.49 1.677-.756 2.519-.264.833-.593 1.691-.604 2.569.839.175 2.265.289 3.073-.05-.037-.867-.398-1.709-.655-2.57z"/><path d="m54.977 30.097c-.216-4.373-.051-9.11-.05-13.652 0-.594-.117-1.265.15-1.813 1.072-.236 2.972-.04 4.533-.05 1.508-.01 3.027-.226 4.232.05 2.146.491 3.523 2.874 2.619 5.44-.123.375-.379.625-.705.957-.206.211-.758.585-.756.857.003.341.995.875 1.311 1.26.595.727 1.032 1.808.906 3.173-.162 1.763-1.545 3.496-3.375 3.879-.771.161-1.608.052-2.418.05-1.068-.003-2.223-.026-3.324 0-1.075.026-2.157.154-3.123-.151zm6.751-9.37c1.623-.162 2.233-2.378.705-3.022-1.074-.452-2.58.112-3.778-.05-.524.453-.308 2.118-.202 2.872.889.263 2.256.302 3.275.2zm1.914 4.282c-.449-1.644-2.749-1.314-4.887-1.31-.818.482-.344 2.436-.303 3.425 2.208.537 5.892.455 5.19-2.115z"/><path d="m66.664 32.414c.043.693.297 1.837.051 2.62-.145.463-1.18 1.039-1.662 1.36-.697.465-1.24.853-1.764 1.209-1.256.855-2.494 1.546-3.627 2.368-1.719 1.248-3.453 2.416-5.34 3.627-.598.384-1.242 1.012-1.813 1.159-.868.224-2.165.05-3.325.05-3.235 0-6.35-.05-9.672-.05-8.979 0-17.572.096-26.447-.151-4.482-.125-8.844.058-12.947-.202-.195-.748-.098-1.989-.05-2.821 1.027-.987 2.298-1.666 3.476-2.468 3.475-2.369 7.133-4.69 10.73-7.003 16.324.021 32.615.152 49.267.151 1.025.001 2.107-.124 3.123.151z"/></g></svg>