<svg enable-background="new 0 0 31.5 57.18" viewBox="0 0 31.5 57.18" xmlns="http://www.w3.org/2000/svg"><path d="m22.79 15.81h8.71v8.85h-8.71zm0 17.44h8.71v8.79h-8.71z"/><path d="m7.61 28.48c3.56-1.4 5.846-4.897 5.7-8.72v-7.48c0-5.21 3.7-5.76 5.56-5.83 3.67-.14 12.63.12 12.63.12v-6.29s-12.29-.28-13.53-.28c-3.91 0-12.14 1.17-12.14 11.6v5.9c0 7-5.83 7.27-5.83 7.27v7.69s5.83.27 5.83 7.27v5.86c0 10.43 8.23 11.59 12.14 11.59 1.24 0 13.53-.27 13.53-.27v-6.25s-9 .25-12.63.12c-1.86-.07-5.56-.62-5.56-5.84v-7.48c.16-3.824-2.131-7.326-5.7-8.71z"/></svg>