<svg enable-background="new 0 0 53.131 74.968" viewBox="0 0 53.131 74.968" xmlns="http://www.w3.org/2000/svg"><path clip-rule="evenodd" d="m21.458 32.216c-.139-2.491-.161-5.384-.1-7.931.021-.861-.162-1.778.199-2.494 1.621-.204 3.382-.1 5.138-.1 3.473 0 6.997.05 10.574.05 1.764 0 3.501.117 5.138-.149.408-1.506.114-3.305.149-5.038.036-1.753.193-3.644-.1-5.287-1.164-.309-2.458-.242-3.691-.2-9.048.311-18.613-.324-27.882.05-.254 1.023-.15 2.085-.2 3.142-.153 3.285 0 6.65 0 10.025 0 13.224-.083 26.865.1 39.952 1.259.27 2.577.149 3.891.149 7.912 0 15.892.1 23.891.1 1.294 0 2.599.119 3.841-.149.264-.722.149-1.618.149-2.494 0-1.757 0-3.278 0-5.187 0-.499.155-2.151-.1-2.494-.241-.324-1.694-.199-2.494-.199-4.619 0-8.944.114-13.317-.05-1.804-.067-3.653.171-5.187-.149-.237-1.568-.1-3.39-.1-5.187 0-1.788-.099-3.596.1-5.188 5.938-.177 12.294-.05 18.554-.05.912 0 1.887-.123 2.594.05.522.127 1.021.744 1.446 1.197 2.17 2.314 4.396 4.27 6.484 6.534.826.895 1.824 1.624 2.494 2.693-.039 3.688.102 7.026-.05 10.524-.375.884-1.218 1.426-1.845 2.095-1.879 2.003-3.924 3.947-5.886 5.936-.975.771-1.606 1.885-2.693 2.544-10.743.141-21.32-.021-32.021-.05-1.971-1.503-3.458-3.491-5.337-5.087-1.143-1.341-2.545-2.595-3.891-3.94-.455-.455-1.023-.946-1.197-1.496-.092-16.135-.05-33.381-.05-50.027 0-1.142-.166-2.431.05-3.292.119-.475.706-1.012 1.197-1.496 2.702-2.666 5.201-5.314 7.781-8.08.398-.427.986-1.238 1.546-1.347 1.093-.213 2.847-.001 4.04 0 9.415 0 18.384.132 27.482.1.668.165 1.112.725 1.546 1.197.432.47.897.897 1.347 1.347.906.906 1.795 1.83 2.744 2.694 1.232 1.43 2.686 2.599 4.04 4.09.397.438 1.068.979 1.197 1.496.19.766.05 1.785.05 2.693 0 1.813-.05 3.438-.05 5.337 0 .902.127 1.893-.05 2.644-.117.494-.735 1.047-1.147 1.497-1.23 1.344-2.703 2.752-3.891 3.94-.869.869-1.679 1.829-2.543 2.693-.907.907-1.748 1.856-2.694 2.544-5.266.06-10.435.001-15.96 0-1.797-.003-3.595.112-5.286-.152z" fill-rule="evenodd"/></svg>