<svg enable-background="new 0 0 66.461 78.102" viewBox="0 0 66.461 78.102" xmlns="http://www.w3.org/2000/svg"><g clip-rule="evenodd" fill-rule="evenodd"><path d="m66.461.127c-.207.625-.865 1.17-1.365 1.707-.512.549-1.092 1.061-1.561 1.609-3.094 3.211-6.212 6.402-9.314 9.605-3.571 3.84-7.232 7.375-10.923 11.217-.467.486-1.054 1.354-1.609 1.512-.631.18-1.658.049-2.584.049-12.491-.002-25.968-.018-38.719-.146.256-.729.944-1.188 1.463-1.707 3.665-3.664 7.14-7.481 10.874-11.215 3.546-3.547 7.174-7.564 10.875-11.266.551-.551 1.238-1.385 1.901-1.463.766-.088 1.643.049 2.487.049 12.76-.002 25.845-.033 38.475.049z"/><path d="m21.647 27.192c.037.338-.292.613-.488.828-1.478 1.629-3.195 3.184-4.73 4.828-3.498 3.75-7.288 7.269-10.777 11.07-1.517 1.652-3.123 3.221-4.73 4.826-.212.213-.405.598-.78.586-.162-7.115-.163-14.924 0-22.09 6.864-.255 14.67-.154 21.505-.048z"/><path d="m65.388 27.192c-.125.658-.798 1.152-1.267 1.658-.488.525-1.017 1.035-1.512 1.512-2.958 3.088-5.878 6.215-8.924 9.217-3.445 3.625-6.912 7.059-10.436 10.727-.437.455-1.022 1.314-1.561 1.463-.64.178-1.675.049-2.584.049-12.708-.002-26.437-.029-38.719-.098-.057-.381.315-.688.537-.926.705-.756 1.481-1.529 2.243-2.291 2.999-3.002 5.901-6.098 8.972-9.168 3.393-3.393 6.888-7.231 10.435-10.777.551-.551 1.13-1.373 1.805-1.463 1.633-.217 3.403.119 5.169.049 4.787-.191 10.119 0 15.263 0 6.961-.001 13.703-.04 20.579.048z"/><path d="m21.696 53.377c-.203.666-.811 1.055-1.268 1.512-1.346 1.348-2.588 2.894-4.047 4.193-1.663 1.994-3.64 3.676-5.364 5.609-1.886 1.771-3.664 3.65-5.413 5.559-.947.889-1.813 1.861-2.731 2.779-.386.486-.926.891-1.365 1.365-.422.457-.782 1.117-1.414 1.219-.102-6.336-.049-13.018-.049-19.748 0-.965-.262-2.576.488-2.586 6.607-.074 14.31-.023 21.163.098z"/><path d="m65.388 53.377c.104.385-.312.703-.536.928-.734.732-1.486 1.547-2.243 2.291-2.939 3.123-5.892 6.234-8.973 9.217-2 2.047-3.925 4.17-5.949 6.193s-3.917 4.178-6.047 6.096c-13.681-.064-27.866-.016-41.254-.146.096-.537.581-.904.927-1.268 5.478-5.771 11.211-11.564 16.775-17.312 1.301-1.287 2.918-3.113 4.438-4.633.455-.455 1.231-1.377 1.804-1.463.774-.113 1.737 0 2.633 0 12.69.001 26.18.078 38.425.097z"/></g></svg>