<svg enable-background="new 0 0 71.47 71.994" viewBox="0 0 71.47 71.994" xmlns="http://www.w3.org/2000/svg"><path clip-rule="evenodd" d="m71.299.173c.271 6.281-.059 13.08.048 19.764.053 3.307.125 6.676.047 9.998-.078 3.326.154 6.643-.143 9.811-20.275.27-41.187-.166-61.512.189-.106 1.682.524 3.162.995 4.549 1.412 4.156 3.809 7.418 6.587 10.236 2.871 2.691 6.416 4.803 10.758 6.113 3.286.992 7.258 1.457 11.231.854 8.371-1.271 14.221-5.488 18.198-11.279.558-.812 1.13-1.744 1.562-2.654.443-.928.789-1.92 1.375-2.795 3.477-.049 7.408-.143 10.805.047.259 2.008.073 4.15.143 6.35.209 6.666-.08 13.926-.095 20.473-8.929.027-17.88.291-26.917.096-5.855-.127-11.612.002-17.63 0-8.861-.006-17.786.125-26.632-.145-.044-5.672-.167-11.877-.047-17.914.088-4.469-.047-8.908-.047-13.363.001-12.731-.001-25.221 0-38.48 0-.494-.168-1.873.379-1.943 1.193-.15 3.199 0 4.644 0 7.398 0 14.957.16 22.415 0 8.28-.178 16.864 0 25.923 0 5.965-.001 11.99-.079 17.913.093zm-11.374 24.928c-1.746-4.166-4.256-7.504-7.439-10.188-2.119-1.609-4.358-3.318-7.251-4.455-2.679-1.055-6.345-1.973-10.047-1.801-3.793.176-6.878.791-9.62 1.941-2.71 1.139-4.96 2.662-7.156 4.455-3.142 2.566-5.629 6.049-7.298 10.047-.575 1.379-1.176 2.869-1.279 4.455 15.993.205 32.8.092 48.337.096 1.03 0 2.081.168 3.081-.142-.159-1.614-.761-3.057-1.328-4.408z" fill-rule="evenodd"/></svg>