<svg enable-background="new 0 0 37.198 37.32" viewBox="0 0 37.198 37.32" xmlns="http://www.w3.org/2000/svg"><path d="m14.294.554c4.949-1.259 10.419-.354 14.649 2.525 3.095 2.094 5.594 5.111 6.917 8.617 1.437 3.432 1.672 7.312.918 10.938-8.748-.007-17.497-.043-26.245-.067-.245-.505-.428-1.037-.579-1.577 8.501.001 17.001.049 25.502.06.387-3.088.07-6.298-1.192-9.162-2.39-5.752-8.162-9.956-14.406-10.292-5.513-.408-11.08 2.128-14.5 6.449-4.058 4.839-4.929 12.061-2.204 17.745 2.117 4.555 6.309 8.101 11.183 9.354 4.417 1.217 9.321.49 13.199-1.948 3.354-2.009 5.875-5.295 7.155-8.972.55-.035 1.1-.004 1.65-.002-1.108 3.479-3.195 6.671-6.06 8.953-2.794 2.256-6.237 3.714-9.82 4.046-7.96.87-16.105-4.065-19.068-11.492-2.18-5.166-1.765-11.307.988-16.179 2.565-4.411 6.91-7.847 11.913-8.996z"/><path d="m15.849 3.473c3.86-.779 8.012.051 11.27 2.265 4.516 2.928 7.23 8.37 6.847 13.738-8.094-.045-16.191-.023-24.286-.078-.035-.523-.031-1.047.008-1.569 7.575-.006 15.15.055 22.725.052-.173-4.123-2.324-8.105-5.689-10.498-3.062-2.269-7.11-3.108-10.829-2.301-3.738.815-7.136 3.206-9.06 6.527-2.731 4.374-2.637 10.329.302 14.579 1.795 2.859 4.718 4.96 7.964 5.853 3.646 1.024 7.71.41 10.894-1.639 2.315-1.493 4.195-3.671 5.285-6.203.557-.004 1.114-.003 1.672.003-1.301 3.509-3.968 6.482-7.279 8.222-3.339 1.696-7.321 2.15-10.937 1.13-4.171-1.036-7.738-4.009-9.733-7.786-3.022-5.477-2.078-12.786 2.201-17.336 2.209-2.571 5.33-4.303 8.645-4.959z"/><path d="m11.26 8.992c1.932-1.469 4.284-2.406 6.714-2.55 3.528-.264 7.11 1.191 9.52 3.766 1.586 1.687 2.691 3.829 3.1 6.111-6.867-.009-13.734-.027-20.601-.055.139-.543.323-1.084.597-1.574 5.972-.007 11.945.026 17.917.04-1.071-2.775-3.344-5.12-6.18-6.085-3.339-1.255-7.287-.611-10.085 1.589-1.216.948-2.233 2.157-2.945 3.526-1.643 3.11-1.601 7.053.156 10.107 1.14 1.999 2.942 3.62 5.051 4.545 2.583 1.18 5.657 1.176 8.263.067 2.055-.853 3.772-2.413 4.945-4.29.591.001 1.182-.002 1.773.006-2.07 4.177-6.663 6.993-11.353 6.684-4.847-.203-9.419-3.571-10.932-8.2-1.755-4.8-.044-10.633 4.06-13.687z"/></svg>