<svg enable-background="new 0 0 72.512 72.763" viewBox="0 0 72.512 72.763" xmlns="http://www.w3.org/2000/svg"><path clip-rule="evenodd" d="m72.323 28.628c-.566.261-1.221.129-1.849.142-3.026.06-6.353.048-9.667.047-1.267 0-2.539-.135-3.697.142.141 1.057.553 2.108.758 3.317.4 2.348.512 5.172.048 7.63-.226 1.195-.746 2.266-.663 3.317 3.824.157 7.564.218 11.516.095.657-.021 1.342.077 1.99.047.609-.028 1.242-.19 1.754.142-.146 1.61-.68 3.119-1.186 4.549-1.521 4.298-3.7 7.937-6.303 11.184-3.406 4.25-7.986 7.77-13.174 10.094-2.645 1.185-5.543 2.267-8.815 2.843-3.329.586-7.125.767-10.9.379-3.395-.349-6.495-1.257-9.288-2.369-2.796-1.114-5.381-2.408-7.583-4.028-1.508-1.045-2.879-2.135-4.17-3.317-1.312-1.202-2.345-2.626-3.459-4.028-3.322-4.18-5.64-9.264-6.966-15.497-1.383-6.5-.494-14.091 1.517-19.383 1.355-3.566 3.212-6.768 5.402-9.573.574-.735 1.018-1.473 1.611-2.132 4.068-4.521 9.23-8.254 15.828-10.329 2.884-.907 5.831-1.527 9.431-1.801 6.353-.484 12.05.865 16.539 2.796 1.889.812 3.652 1.604 5.213 2.654 1.58 1.064 3.068 2.136 4.502 3.365 4.205 3.603 7.621 8.17 9.904 13.696.381.919.764 1.9 1.043 2.891.283 1.005.591 2.037.664 3.127zm-53.599.237c6.062 0 11.804-.001 17.676 0 5.846 0 12.045-.001 17.961 0 .883 0 1.811.174 2.369-.237.117-.574-.256-1.088-.475-1.564-.672-1.465-1.535-2.834-2.463-3.981-3.225-3.979-7.51-6.774-13.412-8.009-2.448-.512-5.55-.411-7.914.047-1.141.221-2.233.546-3.27.948-5.054 1.959-9.12 5.046-11.611 9.573-.49.891-1.298 1.831-1.184 2.986.691.401 1.558.237 2.323.237zm36.442 14.596c-11.652-.001-22.63 0-34.025 0-.887 0-1.785 0-2.654 0-.835 0-1.714-.144-2.464.189-.088.588.247 1.162.474 1.659 1.646 3.61 4.149 6.316 7.156 8.53 3.208 2.362 8.213 4.421 13.696 4.17 5.279-.242 9.254-2.11 12.511-4.502 1.629-1.197 2.994-2.687 4.217-4.312.918-1.219 1.753-2.524 2.37-4.028.198-.483.597-.988.474-1.564-.547-.244-1.177-.142-1.755-.142z" fill-rule="evenodd"/></svg>