<svg enable-background="new 0 0 41.181 72.903" viewBox="0 0 41.181 72.903" xmlns="http://www.w3.org/2000/svg"><g clip-rule="evenodd" fill-rule="evenodd"><path d="m9.078.001c1.98-.026 3.636.739 4.925 1.658 1.421 1.014 2.456 2.058 3.121 3.414.869 1.77 1.142 4.284.634 6.242-1.101 4.238-6.263 8.442-11.996 6.144-2.217-.888-3.994-2.548-4.974-4.681-1.092-2.379-1.056-5.44.146-7.802 1.309-2.573 4.112-4.923 8.144-4.975z"/><path d="m35.362 5.609c.295.148.231.602.244.878.112 2.374-.092 5.056-.049 7.412-.338.511-.954.75-1.463 1.024-5.813 3.126-11.436 6.561-17.214 9.802-1.56.875-3.145 1.714-4.682 2.682-.468.295-1.091.532-1.365 1.073.415.212.96.193 1.414.195 7.436.038 15.878-.151 23.261.098.261 1.123.146 2.567.146 3.95 0 1.369.114 2.791-.146 3.901-7.656.094-15.079.048-22.919.048-1.061 0-2.148-.115-3.17.146-.146 1.312-.136 2.79-.098 4.34.032 1.319-.225 3.326.244 4.291.564 1.161 2.278 2.169 3.511 2.877 6.758 3.878 13.46 7.858 20.091 11.752 2.705 1.588 5.463 3.124 7.948 4.779.061 2.592.129 5.663-.048 8.046-.919-.22-1.689-.829-2.487-1.268-3.915-2.155-7.889-4.458-11.654-6.876-1.514-.972-3.184-1.724-4.779-2.633-3.088-1.76-6.248-3.531-9.411-5.413-2.215-1.318-4.598-2.795-6.925-4.194-1.512-.908-2.952-1.593-3.657-3.267-.492-1.167-.575-2.701-.536-4.34.113-4.809 0-9.291 0-14.336 0-3.814.246-5.686 2.584-7.168 1.954-1.239 4.118-2.377 6.145-3.608 2.018-1.226 4.034-2.448 6.145-3.608 4.177-2.298 8.336-4.635 12.483-7.022 1.02-.588 2.015-1.242 3.072-1.804 1.111-.593 2.179-1.214 3.315-1.757z"/></g></svg>