<svg enable-background="new 0 0 77.354 44.079" viewBox="0 0 77.354 44.079" xmlns="http://www.w3.org/2000/svg"><path clip-rule="evenodd" d="m25.517.148c.291 4.057.099 8.557.099 13.088 0 4.486.167 9.084-.049 13.387-1.203.203-2.55.143-3.952.149-1.38.004-2.837-.002-4.297 0-2.946 0-5.952-.107-8.545.146-.141 2.633-.191 5.859-.049 8.447 1.006.268 2.106.146 3.161.149 7.404 0 15.113-.024 22.474-.051.295-11.486-.098-23.68.197-35.217 12.324-.223 25.011-.047 37.489-.049 1.741 0 3.489-.121 5.186.148.164 14.287.164 29.275 0 43.613-8.255.184-17.607.137-25.635 0-.197-8.42-.099-17.432-.049-25.98.044-.021.088-.043.099-.1 4.167-.217 8.475-.049 12.793-.049 1.427 0 2.869.119 4.198-.149.164-2.703.164-6.086 0-8.791-8.297-.207-17.241-.168-25.585-.1-.022.045-.044.088-.099.1-.267 1.418-.148 2.883-.148 4.346 0 1.395-.064 2.801 0 4.199.066 1.436 0 2.914 0 4.395v4.447c0 5.934.132 12.002-.099 17.633-1.714.244-3.478.098-5.236.098-12.327 0-24.775-.025-37.34-.148-.181-13.463-.1-27.59-.1-41.391 0-.699-.193-2.295.396-2.369 1.73-.223 4.474 0 6.421 0 6.258-.002 12.491-.176 18.67.049zm-16.843 8.988c-.265 1.242-.148 2.754-.148 4.248 0 1.477-.079 3.008.099 4.297 2.622.164 5.924.166 8.545 0 .179-1.305.099-2.836.099-4.346 0-1.502.109-3.016-.099-4.248-2.622-.162-5.942-.183-8.496.049zm51.516 17.684c-.179 1.318-.099 2.871-.099 4.396 0 1.492-.18 3.057.148 4.246 2.588.164 5.858.164 8.446 0 .265-1.238.148-2.795.148-4.297 0-.74 0-1.498 0-2.223 0-.748.11-1.508-.148-2.123-2.683-.156-5.907-.179-8.495.001z" fill-rule="evenodd"/></svg>