<svg enable-background="new 0 0 76.426 58.735" viewBox="0 0 76.426 58.735" xmlns="http://www.w3.org/2000/svg"><g clip-rule="evenodd" fill-rule="evenodd"><path d="m32.745 5.836c.05 6.149.127 12.086.098 18.58-.733.782-1.656 1.423-2.549 2.059-2.649 1.886-5.163 3.948-7.894 5.883-2.618 1.855-5.326 3.787-7.941 5.883-.352.282-.847.647-1.324.98-.48.335-1.051.682-1.177 1.079-.245.773-.037 2.12.147 2.745.579.075.969-.442 1.373-.735 2.513-1.822 5.008-3.779 7.549-5.638.411-.3.781-.754 1.324-.833.268 1.15.146 2.336.147 3.53 0 2.331.049 4.697.049 7.207 0 1.084.232 2.687-.049 3.579-.141.444-.716.747-1.324 1.176-2.521 1.784-4.601 3.476-7.108 5.295-.399.29-.901.67-1.422 1.079-.418.328-1.073.962-1.471.98-.352.017-1.035-.426-1.471-.637-2.808-1.368-5.467-2.96-8.285-4.314-.443-.213-.915-.46-1.225-.833-.133-12.115-.3-24.594-.098-36.868.255-.521.83-.757 1.275-1.078 3.108-2.24 6.224-4.627 9.363-6.962 1.729-1.285 3.618-2.562 5.393-3.971.832-.66 1.752-1.36 2.647-2.01.978-.709 1.951-1.435 2.893-2.01 1.756.7 4.022 1.899 5.688 2.794.93.5 1.823 1 2.696 1.52.897.535 1.928.824 2.696 1.52zm-3.04 19.462c.529-.396 1.748-1.083 1.912-1.568.146-.43-.018-1.319 0-2.059.088-3.694 0-6.988 0-10.736 0-1.042.253-3.483-.098-4.266-.222-.494-1.449-.977-2.06-1.323-1.582-.898-2.957-1.502-4.461-2.304-.688-.367-1.388-.969-2.304-1.128-.106-.018-.208.112-.246.098-.26 5.608.104 11.351-.098 17.012-.815.881-1.896 1.477-2.844 2.206-2.399 1.846-4.894 3.664-7.305 5.393-.478.342-.953.818-1.568.882-.213-1.839-.042-4.032-.099-6.128 1.594-1.511 3.633-2.577 5.295-4.02 1.38-.924 2.715-1.984 4.021-2.941.442-.325 1.022-.57 1.226-1.127.003-2.633.162-5.737.049-8.433-.037-.888.163-1.81-.245-2.5-.538-.045-.897.46-1.274.735-1.269.926-2.446 1.826-3.727 2.696-1.667 1.133-3.254 2.476-4.902 3.677-2.827 2.06-5.761 4.219-8.579 6.422-.441.345-.991.684-1.128 1.03-.214.542-.098 1.687-.098 2.598.001 10.042.098 19.339.098 29.415 0 .953-.153 2.475.099 3.04.231.519 1.512 1.004 2.107 1.324 1.671.895 3.059 1.552 4.608 2.353.739.382 1.488.952 2.402.981.29-.581.147-1.261.147-1.912 0-4.356-.05-8.596-.049-12.894 0-.77-.112-1.632.049-2.108.126-.373.729-.795 1.177-1.127 1.435-1.066 2.615-1.913 3.971-2.941 4.563-3.419 9.246-6.843 13.924-10.347zm-13.481-6.667c-1.486 1.085-3.051 2.052-4.314 3.333.107.906-.229 2.255.196 2.844.914-.19 1.557-.95 2.305-1.471.765-.534 1.526-1.068 2.254-1.618.921-.747 2.29-1.654 3.384-2.451.342-.25.921-.64 1.029-.931.139-.375.049-.997.049-1.569 0-.535.119-1.202-.245-1.422-.033 0-.065 0-.098 0-1.585.974-3.052 2.184-4.56 3.285zm4.51 19.954c-1.502.908-2.904 2.209-4.412 3.285-.756.539-1.521 1.083-2.255 1.618-.742.54-1.594 1.039-2.059 1.814-.146 1.431.003 2.908 0 4.363-.006 2.225-.163 4.453.146 6.471.918-.2 1.605-.944 2.354-1.471.781-.55 1.49-1.185 2.255-1.716.743-.602 1.529-1.088 2.305-1.667.429-.32 1.978-1.323 2.157-1.814.224-.616.049-1.896.048-2.746 0-2.517-.049-4.605-.048-6.961 0-.376.166-.953-.246-1.176-.003-.03-.007-.058-.049-.049-.038.061-.13.008-.196.049z"/><path d="m76.426 50.939c-.572.832-1.526 1.31-2.354 1.912-1.225.892-2.305 1.922-3.578 2.843-.869.628-1.488 1.194-2.354 1.863-.354.274-.92.811-1.274.833-.476.029-1.006-.526-1.422-.833-1.296-.958-2.681-1.875-3.922-2.746-1.389-.973-2.469-1.769-3.873-2.794-.406-.297-1.038-.817-1.372-.833-.48-.022-.981.497-1.423.833-2.631 2.01-5.061 3.817-7.696 5.834-.376.288-1.021.854-1.373.882-.418.033-1.143-.423-1.568-.637-2.855-1.435-5.586-2.902-8.53-4.461-.51-.27-1.145-.538-1.274-.882-.199-.525-.05-1.52-.05-2.304.001-5.412-.098-10.76 0-16.129.21-.553.789-.811 1.226-1.128 3.08-2.234 6.161-4.561 9.266-6.912 2.994-2.266 6.145-4.56 9.267-6.913.483-.365 1.091-.656 1.226-1.079.223-.701.044-2.067-.099-2.696-.595.006-.992.488-1.422.784-2.085 1.44-4.159 3.057-6.226 4.608-.811.608-1.586 1.371-2.599 1.716-.266-1.061-.147-2.248-.147-3.383.001-3.707-.013-7.274.05-10.981.254-.496.782-.857 1.226-1.177 1.363-.984 2.797-1.941 4.167-3.04.861-.69 1.849-1.341 2.745-2.059.809-.646 1.786-1.564 2.745-2.01.049-.022.138-.06.196-.049.928.18 2.101.92 2.941 1.373.944.507 1.867 1.051 2.795 1.52 1.994 1.008 3.906 1.899 5.589 2.991.213 11.921.019 25.517.294 38.435.574.703 1.393 1.211 2.107 1.765.74.572 1.534 1.052 2.305 1.568.769.515 1.48 1.124 2.256 1.618.765.489 1.55 1.001 2.155 1.668zm-14.903-46.574c-1.098-.582-2.188-1.259-3.334-1.813-.522-.253-1.037-.685-1.422-.441-.329 5.546.063 11.26-.098 16.815-.661.848-1.712 1.325-2.599 2.01-2.603 2.014-5.274 3.963-7.893 5.932-2.99 2.248-6.201 4.625-9.266 6.864-.473.345-1.068.715-1.226 1.079-.215.496-.113 1.239-.099 2.01.088 4.571.002 8.338 0 13.041 0 .705-.106 1.767.099 2.157.251.481 1.623.962 2.206 1.275 2.015 1.078 3.79 1.963 5.736 2.941.371.187.758.559 1.225.441.322-.597.196-1.323.196-1.961.001-3.494.088-7.062-.049-10.687-.04-1.059-.294-3.333 0-4.266.138-.436.864-.872 1.323-1.226 3.012-2.314 5.791-4.447 8.727-6.618.479-.353.957-.835 1.569-.931.2.894.131 1.962.146 2.99.017 1.05 0 2.112-.049 3.138-1.651 1.467-3.503 2.736-5.294 4.069-.887.66-1.778 1.316-2.648 2.01-.856.684-1.914 1.23-2.549 2.157-.042 3.261-.062 6.567-.049 9.511.002.559-.043 1.297.245 1.618.487-.045.899-.42 1.274-.687 1.234-.876 2.298-1.969 3.579-2.746 1.129-.955 2.354-1.797 3.578-2.745.371-.287.911-.796 1.324-.784.316.009.971.542 1.373.833 2.67 1.932 5.162 3.733 7.844 5.687.399.292.974.85 1.422.833.341-.013.665-.363 1.029-.637 1.677-1.262 3.116-2.476 4.706-3.628.623-.452 1.347-.855 1.765-1.569-.507-.671-1.278-1.066-1.96-1.569-.67-.493-1.37-.994-2.06-1.471-.613-.424-1.181-.951-2.01-1.52-.613-.42-1.777-1.003-1.961-1.618-.163-.546.022-1.369 0-2.157-.098-3.386-.147-6.696-.147-10.099-.002-8.264-.112-17.591-.196-25.836-1.103-.965-2.779-1.512-4.457-2.402zm-6.227.539c.017-.719.269-2.804-.489-2.402-.759.401-1.545 1.023-2.256 1.569-1.456 1.119-2.846 2.154-4.363 3.285-.458.342-1.945 1.252-2.107 1.716-.248.706.001 2.031 0 2.696-.005 1.99.039 4.326 0 6.324-.016.75-.156 1.612.244 2.01.861-.324 1.629-.939 2.354-1.52.732-.587 1.502-1.148 2.255-1.716 1.511-1.137 3.148-2.158 4.462-3.48.051-2.559-.162-5.709-.1-8.482zm-1.471 32.896c.466-.359 1.446-.907 1.618-1.372.166-.449.06-1.049.049-1.52-.018-.807.021-1.624-.588-1.226-1.443.942-3.006 2.225-4.412 3.285-.807.44-1.439 1.109-2.157 1.667-.715.556-1.579 1.006-2.108 1.765-.033.804-.188 2.148.098 2.795 1.057-.268 1.575-1.073 2.402-1.569 1.484-1.185 3.534-2.618 5.098-3.825z"/></g></svg>