<svg enable-background="new 0 0 77.329 77.724" viewBox="0 0 77.329 77.724" xmlns="http://www.w3.org/2000/svg"><g clip-rule="evenodd" fill-rule="evenodd"><path d="m65.722 11.015c-5.875.199-11.526.146-17.506.146-3.229 0-6.322-.158-8.973.049-5.364.418-8.853 3.192-11.508 6.534-1.316 1.656-2.509 3.643-3.316 5.705-1.709 4.371-2.278 9.528-2.341 15.556-.062 6.037.369 11.629 1.804 16.141 1.407 4.423 4.067 8 7.754 10.24 1.942 1.18 4.352 1.833 6.876 2.146 2.663.331 5.513.244 8.68.244 5.957.001 12.059-.041 17.945.049.087.408-.398.609-.634.78-4.268 3.091-9.193 5.652-14.726 7.509-2.959.993-6.589 1.609-10.24 1.609-3.728-.001-7.336-.472-10.582-1.268-5.997-1.471-11.44-4.587-15.556-8.144-4.258-3.679-7.69-8.482-9.997-13.703-1.216-2.752-2.256-5.786-2.828-9.07-.61-3.5-.722-7.365-.39-11.069.313-3.493 1.202-6.672 2.341-9.509 1.131-2.818 2.523-5.438 4.096-7.753.8-1.178 1.561-2.404 2.487-3.462.469-.536.989-.987 1.414-1.561.42-.566.898-1.032 1.415-1.512 4.075-3.786 8.87-6.857 14.873-8.826 3.03-.994 6.344-1.632 10.045-1.804 6.644-.309 12.447 1.098 16.97 3.072 3.555 1.552 6.484 3.393 9.363 5.559.463.348.906.763 1.365 1.121.42.33 1.081.609 1.169 1.221z"/><path d="m33.099 43.93c6.31-.351 14.257.061 21.261-.098 1.032-.023 2.398-.049 3.608-.049 1.091 0 2.779.221 3.56-.049.818-.282.837-1.714 1.463-2.292.537-1.321 1.238-2.504 1.854-3.754.61-1.242 1.288-2.475 1.755-3.853-.58-.313-1.318-.223-1.95-.195-7.284.32-15.43-.073-22.968.098-1.387.031-2.78-.048-4.145-.049-1.369 0-2.74.119-4.047-.146-.14-.714.138-1.427.293-2.097 1.088-4.723 3.09-9.104 8.095-9.948 1.565-.264 3.288-.147 5.023-.147h5.169c6.895.001 14.108-.139 20.871.049.513.477.701 1.22.975 1.853.834 1.925 1.645 3.917 2.194 6.193.717 2.961 1.239 6.318 1.22 9.997-.019 3.467-.639 6.662-1.463 9.753-.558 2.092-1.27 4.208-2.194 6.193-.266.57-.626 1.616-.976 1.804-.528.284-2.244.094-3.267.098-7.288.027-15.608.047-23.164.049-2.363 0-4.658.198-6.339-.39-3.245-1.135-4.675-4.152-5.803-7.559-.543-1.636-1.231-3.488-1.025-5.461z"/></g></svg>