<svg enable-background="new 0 0 70.586 73.004" viewBox="0 0 70.586 73.004" xmlns="http://www.w3.org/2000/svg"><g clip-rule="evenodd" fill-rule="evenodd"><path d="m.185 35.735c-.275-.537-.169-1.299-.142-1.941.194-4.603 1.332-8.777 2.843-12.18 1.746-3.934 4.061-7.408 6.824-10.33 5.527-5.846 12.807-10.617 23.316-11.233 2.854-.168 5.491.094 7.867.521 6.98 1.256 12.631 4.199 16.965 8.199 2.746 2.533 5.327 5.867 6.729 10.045.724 2.158 1.179 4.869.758 7.346-.757 4.463-3.661 7.76-7.725 9.053-2.131.678-4.705.662-7.535.662-16.529.003-33.303-.019-49.9-.142z"/><path d="m70.512 37.395c.275 3.043-.261 5.799-.853 8.293-1.745 7.352-5.475 13.275-10.284 17.676-1.641 1.502-3.255 2.934-5.166 4.17-5.458 3.535-12.914 6.262-22.178 5.262-5.358-.58-9.973-2.346-14.028-4.645-3.967-2.248-7.22-5.404-9.62-9.004-1.219-1.828-2.183-4.082-2.796-6.539-.664-2.664-.527-5.559.332-8.01 1.177-3.363 3.819-5.652 7.203-6.777 1.233-.408 2.604-.645 4.17-.664 4.46-.055 9.011 0 13.506 0 13.241.004 26.167.074 39.714.238z"/></g></svg>