<svg enable-background="new 0 0 76.657 76.889" viewBox="0 0 76.657 76.889" xmlns="http://www.w3.org/2000/svg"><path clip-rule="evenodd" d="m76.451.125c.18 10.557.144 21.978.052 32.37-1.927.272-4.369.155-6.67.155-2.341 0-4.714.042-6.877-.052-.323-.703-.086-1.517-.104-2.275-.136-5.722.072-12.124-.155-17.736-1.348-.368-2.931-.207-4.447-.207-4.592 0-8.959.011-13.496.052-.253.946-.168 2.044-.207 3.154-.188 5.455.083 11.143 0 16.547-.033 2.205.052 4.378.052 6.515.001 8.735-.082 17.12.052 25.699 1.349.44 2.891.099 4.396.155 4.34.163 9.226-.022 13.6-.104.279-.762.155-1.621.155-2.43 0-2.564-.001-4.986 0-7.498 0-3.404-.124-6.915.155-10.135 4.339-.144 9.18-.245 13.495-.052.21 5.276.155 10.766.155 16.237 0 2.767.114 5.556 0 8.273-.112 2.673.155 5.312-.104 7.912-12.39.27-25.247.152-38.058.155-12.836.003-25.726.122-38.265-.155-.234-1.251-.154-2.63-.154-3.982 0-4.143.051-8.372.051-12.41 0-5.245-.204-10.799.104-15.978 4.103-.206 8.79-.104 12.979-.052.237 1.492.155 3.168.155 4.913 0 4.876-.089 10.261.104 15.202.673.273 1.434.155 2.172.155 5.164 0 10.863.085 15.926-.104.28-1.022.155-2.097.155-3.154-.001-11.845.001-23.955 0-35.886 0-4.343.117-8.655-.155-12.875-1.352-.251-2.878-.155-4.395-.155-4.403 0-9.152.04-13.65.104-.28.78-.155 1.665-.155 2.482v12.617c0 1.682.123 3.411-.155 5.016-3.977.147-9.157.223-13.03-.052-.17-10.328-.175-21.849 0-32.37 15.826-.342 32.275.164 48.551-.154 4.666-.091 9.279.171 13.858.052 4.626-.121 9.259-.086 13.91.051z" fill-rule="evenodd"/></svg>