<svg enable-background="new 0 0 85.948 81.677" viewBox="0 0 85.948 81.677" xmlns="http://www.w3.org/2000/svg"><g clip-rule="evenodd" fill-rule="evenodd"><path d="m85.803.155c.181 27.731.187 54.513.052 81.271-.831.279-1.736.155-2.59.155-5.977.002-12.525-.001-18.854 0-3.605.002-7.199-.071-10.774.052-1.712.06-3.52.06-5.231 0-5.256-.181-10.507 0-16.058 0-10.611.001-21.467-.008-32.218-.259-.199-3.37-.113-6.768-.053-10.152.123-6.719-.05-13.407-.05-20.253-.001-15.765 0-32.254 0-48.586 0-.796-.121-1.622.154-2.383 28.483.121 57.372-.097 85.622.155zm-43.044 11.137c-.259.867-.155 2.414-.155 3.626-.001 18.745-.097 37.8.155 55.579.479.186 1.245.187 1.709 0 .201-14.524.104-29.686.104-44.649 0-4.969.072-9.861-.156-14.556-.28-.271-.992-.112-1.502-.155-.074.029-.126.081-.155.155zm-8.028 21.6c-.026-2.931.05-5.849-.519-8.442-.573-2.623-1.551-4.358-3.211-5.957-1.541-1.484-3.758-2.575-6.734-2.435-2.917.138-5.173 1.239-6.889 2.849-1.783 1.673-2.727 3.553-3.107 6.475-.534 4.096-.622 9.064-.621 13.675 0 1.587-.158 3.178-.104 4.714.201 5.816.063 12.435 2.849 16.265 1.337 1.836 3.156 3.315 5.698 3.885 2.677.6 5.606.15 7.821-1.244 2.016-1.269 3.737-3.499 4.351-6.163.647-2.812.547-6.337.363-9.738-2.32-.171-5.347-.173-7.666 0-.349 1.342-.065 3.075-.155 4.714-.04.714-.185 1.467-.26 2.176-.203 1.927-.556 3.237-2.383 3.366-.732.005-1.384-.546-1.709-1.088-.974-1.62-.703-4.184-.829-6.837-.088-1.867-.103-3.656-.102-5.543 0-.618-.114-1.258.154-1.761 4.18-.188 8.856.12 12.95-.155.295-2.829.128-5.864.103-8.756zm35.895-11.396c-1.571-3.011-4.674-5.282-9.116-5.18-4.166.097-6.588 2.254-8.028 4.559-1.519 2.429-2.252 6-1.969 10.204.438 6.496 5.009 9.683 8.754 12.949 1.026.895 1.651 1.699 2.486 2.745.519.65 1.032 1.315 1.295 2.072.568 1.635.588 5.919-.208 7.356-.488.883-1.929 1.455-2.952.776-2.228-1.478-.897-6.519-1.45-9.635-1.091-.275-2.458-.155-3.781-.155-1.32.001-2.667-.007-3.729.155-.182 3.495-.34 6.953.415 9.583.768 2.676 2.262 4.624 4.454 5.854 2.345 1.314 5.631 1.637 8.443.828 2.63-.756 4.513-2.472 5.749-4.558 1.317-2.189 1.494-5.756 1.347-8.857-.081-1.713-.235-3.097-.776-4.352-2.13-4.935-6.655-7.19-9.79-10.877-.835-.982-1.702-1.927-2.072-3.108-.522-1.666-.533-5.454.208-6.889.339-.658 1.169-1.377 2.123-1.295 2.457.211 2.331 4.596 2.331 7.2 0 1.062-.124 2.171.155 3.056 1.131.185 2.51.103 3.833.103 1.347 0 2.694.115 3.781-.155.5-4.605.111-9.285-1.503-12.379z"/><path d="m26.494 34.705c-1.39.08-3.271.127-4.61 0-.259-.683-.154-1.601-.154-2.538 0-3.632-.557-8.658 2.537-9.117.92-.136 1.811.707 2.125 1.503.471 1.198.258 3.19.258 5.024 0 1.905.119 3.818-.156 5.128z"/></g></svg>