<svg enable-background="new 0 0 186.592 163.16" viewBox="0 0 186.592 163.16" xmlns="http://www.w3.org/2000/svg"><path clip-rule="evenodd" d="m158.605 2.704c2.364 4.184 4.02 9.021 6.108 13.518.695 1.496 1.401 2.995 2.003 4.505.626 1.573.702 3.657.65 5.808-.105 4.428-.315 8.317-.501 12.516-.085 1.943-.03 4.307-.55 5.958-.247.784-.976 1.439-1.852 1.602-1.516.282-3.451.05-5.207.05-19.011.001-38.298.199-57.223.2-4.111 0-8.836 0-12.767 0-.919 0-1.776-.045-2.453.15-1.311.379-2.183 1.493-2.053 3.154.112 1.42 1.073 2.53 2.604 2.653 1.578.127 3.441 0 5.256 0 17.835 0 34.691-.101 52.268-.1 3.259 0 6.887.167 10.413 0 1.672-.079 3.473-.132 5.207-.05 1.686.08 3.492-.168 4.957.05.731.109 1.412.513 1.652 1.201.556 1.596.677 3.62.951 5.507.787 5.409 1.936 11.095 3.004 16.221.38 1.822.643 3.631 1.001 5.407.355 1.761.793 3.495 1.102 5.307.455 2.666 1.007 5.318 1.502 8.11.275 1.55.669 3.399-.951 3.555-1.552.149-3.232.05-4.856.05-11.417.001-22.505.05-34.094.05-9.922.001-19.252.05-29.137.05-1.502 0-3.141.125-4.706.05-1.467-.069-3.42-.24-4.656.1-1.312.362-2.668 1.865-2.052 3.805.398 1.254 1.699 2.113 3.504 2.052 4.996-.167 11.51-.05 16.371-.05 20.657.001 39.755-.099 60.077-.1.855 0 1.805.068 2.704.05 1.303-.025 3.136-.281 3.454.801.304 1.033-.297 2.747-.501 3.955-.653 3.887-1.225 7.927-2.002 11.565-.982 4.594-2.555 10.416-1.202 15.72.58 2.272 1.638 4.402 2.504 6.559.877 2.185 1.681 4.401 2.503 6.559 1.256 3.294 2.487 6.484 3.905 9.712.448 1.022 1.084 2.113 1.051 3.354-.053.924-3.14.614-4.455.601-4.403-.045-9.021.031-13.367.05-30.085.133-59.359.199-89.415.2-6.154 0-11.955-.042-17.222-.801-5.216-.752-9.712-2.412-13.718-4.306-4.933-2.718-9.049-5.946-12.065-10.513-.592-.897-1.214-1.837-1.752-2.753-1.125-1.916-1.962-4.06-2.854-6.158-1.791-4.215-3.383-8.656-4.756-13.317-1.372-4.657-2.578-9.435-3.755-14.269-.607-2.492-1.018-5.006-1.602-7.46-.578-2.427-1.192-4.819-1.803-7.209-.626-2.45-1.076-4.931-1.652-7.359-.569-2.396-1.192-4.76-1.902-7.109-1.408-4.652-3.536-8.499-6.008-12.016-1.785-2.54-4.628-4.419-7.459-6.058-1.022-.592-2.755-1.047-2.804-1.953-.026-.492.399-1.01.651-1.351 2.02-2.739 2.863-6.146 5.507-8.211 2.217-1.731 5.031-3.048 9.062-2.653 1.18.116 2.323.471 3.454.351 3.111-.331 1.688-4.477 1.252-6.909-.848-4.725-1.907-9.474-2.804-14.169-1.176-6.155-2.216-14.363.651-19.475 1.394-2.485 3.198-4.507 5.356-6.008 2.24-1.557 5.03-2.374 8.461-2.853 6.624-.926 14.831-.069 22.129-.401 1.834-.083 3.706.071 5.607 0 1.845-.069 3.811-.064 5.657 0 3.711.128 7.482 0 11.214 0 11.25 0 22.473-.1 33.743-.1 9.404 0 18.785-.05 28.236-.05 3.536 0 6.594-.041 10.063-.05 4.312-.009 8.682.076 10.362 2.705z" fill-rule="evenodd"/></svg>