<svg enable-background="new 0 0 71.849 71.627" viewBox="0 0 71.849 71.627" xmlns="http://www.w3.org/2000/svg"><path clip-rule="evenodd" d="m21.178 34.911c-.21-5.174-.127-11.441 0-16.683 8.289-.179 17.29-.101 26.008-.101.428 0 1.182.168 1.26-.453.105-.789-.729-.656-1.21-.655-9.047 0-18.694.002-27.167.101-.274.698-.15 1.476-.15 2.218-.001 11.133-.088 23.64.101 34.879 4.529.375 9.527.033 14.415.1 4.052.057 8.469.096 12.752.05.457-.005 1.275.146 1.26-.554-.047-.671-.87-.454-1.31-.454-7.674 0-15.024 0-22.631 0-1.113 0-2.272.122-3.326-.151-.168-5.578-.178-11.573 0-17.086 9.492-.177 19.459-.101 29.385-.101 3.331 0 6.41.003 9.173.756 5.073 1.384 8.564 4.808 10.584 9.325 1.062 2.374 1.636 5.373 1.513 8.467-.125 3.126-.907 5.557-2.066 7.863-2.222 4.418-5.89 7.266-11.29 8.619-2.636.66-5.935.555-9.325.555-16.257 0-33.487.111-49.091-.151-.049-23.597-.132-47.237.047-71.221.781-.273 1.655-.151 2.47-.151 4.194.001 8.554-.001 12.852 0 7.488.001 14.638-.051 22.076-.051 5.483.001 11.087-.1 16.481.051 7.95.222 12.986 4.445 15.574 10.131.915 2.01 1.424 4.174 1.613 6.955.356 5.229-1.873 9.938-4.486 12.55-2.843 2.843-6.569 5.122-11.794 5.343-2.762.116-5.619 0-8.468 0-5.691 0-11.409 0-16.935 0-1.432 0-2.866.062-4.284 0-1.346-.059-2.718.154-4.031-.151z" fill-rule="evenodd"/></svg>