<svg enable-background="new 0 0 75.408 39.667" viewBox="0 0 75.408 39.667" xmlns="http://www.w3.org/2000/svg"><path clip-rule="evenodd" d="m51.391.347c.143 6.645 0 14.052 0 21.061 0 .959-.115 1.955.148 2.868 1.289.184 2.826.148 4.301.148s2.963.167 4.203-.099c.344-7.712-.074-16.116.297-23.979 4.853-.024 10.291-.205 14.982.098.205 13.205-.019 25.773-.051 39.11-12.383.252-25.068-.003-37.725 0-12.609.003-25.199-.204-37.428-.297-.275-6.582.029-13.461-.1-19.629-.068-3.253.146-6.561.049-9.839-.071-2.456.053-4.923.053-7.415 0-.777-.12-1.616.148-2.373 14.963-.013 29.789.147 44.893.148 2.082 0 4.177-.073 6.23.198zm-31.545 2.571c-5.4-.13-11.428-.007-16.662-.05-.365.554-.168 1.27-.197 1.879-.034.701-.049 1.376-.049 2.077 0 9.791-.178 19.729.049 29.468 1.311.271 2.699.145 4.055.148 1.328.005 2.656.05 4.004.05 5.611-.001 11.268-.116 16.613.099 2.809.113 5.576-.023 8.307-.049.26-.654.148-1.458.148-2.226 0-2.335.08-4.903-.1-7.021-7.824-.341-16.307.013-24.029-.347-.17-.737-.086-1.925.051-2.67 7.551-.153 15.869.051 23.584.05 1.105 0 2.246-.121 3.312.148.262 3.934-.141 7.952.148 12.015 1.336.263 2.756.155 4.152.147 8.096-.043 17.258.088 25.316.1 1.316.002 2.602.156 3.807-.1.188-10.871.238-22.636.098-33.324-.703-.263-1.541-.148-2.322-.148-1.707 0-3.293-.064-4.748 0-.775.034-1.56-.122-2.225.148-.162 6.801-.148 14.08-.148 21.014 0 .976.119 1.99-.148 2.917-3.447.237-7.264 0-10.777 0-1.195 0-2.418.115-3.512-.148-.217-8.203.191-16.04-.098-23.931-2.135-.339-4.938-.067-7.17-.099-.771-.011-1.527-.153-2.127.148-.18 2.799-.098 6.111-.098 9.048 0 1.004.107 2.015-.197 2.868-8.885.056-18.145.064-26.848-.198-.149-.696-.203-2.098.049-2.719 7.813-.215 16.287.206 23.98-.05.201-1.417.182-2.981.148-4.45-.037-1.518.068-3.045-.1-4.549-5.237-.322-10.723-.111-16.266-.245z" fill-rule="evenodd"/></svg>