<svg enable-background="new 0 0 66.384 67.418" viewBox="0 0 66.384 67.418" xmlns="http://www.w3.org/2000/svg"><g clip-rule="evenodd" fill-rule="evenodd"><path d="m65.729.213c.277.994.155 2.124.155 3.254v6.818c0 1.111.12 2.224-.155 3.202-1.023.366-2.142.207-3.202.207-3.312 0-6.767.103-10.021.103-4.185-.001-7.842 1.237-10.589 2.892-.583.352-1.238.926-1.859 1.395-3.01 2.272-5.205 5.522-6.508 9.556-.557 1.722-.85 3.477-.93 5.475-.167 4.186-.965 7.392-2.686 10.176-1.154 1.867-2.698 3.646-4.545 5.062-.53.406-1.581 1.151-2.118 1.084-.616-.076-.925-1.182-1.24-1.808-.722-1.437-1.188-2.696-1.705-4.339-.17-.541-.445-1.956-.775-2.221-.343-.276-1.589-.127-2.324-.104-4.103.129-7.938-.052-12.242-.051-.835 0-1.657 0-2.479 0-.783 0-1.605.123-2.324-.155-.262-.502-.155-1.119-.155-1.705 0-2.822 0-5.863 0-8.832 0-1.197-.122-2.387.155-3.46.044.009.049-.021.052-.052 6.148-.309 13.015.102 19.163-.207.422-.821.612-1.755.878-2.634.672-2.222 1.516-4.18 2.531-6.199.186-.371.511-.927.465-1.24-.079-.527-1.385-.965-2.066-1.188-2.431-.795-5.169-1.274-8.316-1.292-2.121-.012-4.234 0-6.353 0-2.105 0-4.338.152-6.198-.207-.359-.948-.206-2.118-.206-3.254 0-2.223 0-4.544 0-6.818 0-1.11-.126-2.258.206-3.202.763-.231 1.594-.189 2.323-.204 3.326-.067 6.853.052 10.589.052 7.09-.001 12.41 1.5 17.097 4.081.797.438 2.035 1.494 2.738 1.497.555.003 1.677-.901 2.273-1.24 2.157-1.225 4.696-2.473 7.232-3.151 1.831-.489 3.675-.861 5.733-1.188 2.081-.33 4.58-.282 6.818-.31 2.423-.031 5.23.051 8.006.051.863.002 1.784-.115 2.582.156z"/><path d="m47.031 26.556c6.254.289 12.766-.105 19.112.207.367 1.02.207 2.267.207 3.46v7.232c0 1.176.156 2.401-.207 3.409-6.096.309-12.913-.103-19.008.207-.695 1.69-.962 3.477-1.705 5.269-.437 1.054-1.012 2.414-1.653 3.564-.213.382-.588.775-.517 1.188.089.516 1.352.895 2.014 1.137 2.32.846 5.083 1.261 8.316 1.136 2.889-.111 6.084 0 9.246 0 1.024 0 2.044-.118 2.944.155.172 4.323.172 9.365 0 13.688-.699.223-1.487.198-2.221.206-2.223.024-4.578-.052-6.922-.051-3.118 0-6.301.019-9.194-.414-2.628-.392-5.186-1.277-7.438-2.169-1.58-.625-3.276-1.44-4.804-2.376-.49-.3-1.127-.819-1.549-.826-.421-.007-1.124.48-1.653.826-3.344 2.192-7.669 3.951-12.345 4.701-2.982.478-6.271.258-9.504.258-2.439 0-4.861 0-7.334 0-.751 0-1.558.119-2.273-.155-.289-1.032-.227-2.212-.207-3.358.038-2.16 0-4.399 0-6.714 0-1.101-.057-2.23.207-3.203 1.356-.275 2.777-.155 4.184-.155 1.408 0 2.838-.052 4.235-.051 2.869 0 5.61.131 8.11-.259 4.858-.756 8.44-2.809 11.415-5.785 2.863-2.864 5.006-6.732 5.475-11.726.137-1.459.044-2.854.207-4.132.479-3.751 1.749-6.66 3.616-9.246 1.03-1.378 2.353-2.442 3.719-3.667.394-.354 1.15-1.036 1.653-1.033.787.005 1.118 1.155 1.395 1.756.938 2.038 1.881 4.937 2.479 6.921z"/></g></svg>