<svg enable-background="new 0 0 74.629 74.709" viewBox="0 0 74.629 74.709" xmlns="http://www.w3.org/2000/svg"><g clip-rule="evenodd" fill-rule="evenodd"><path d="m74.469.115c.137 21.576.149 43.725.146 65.309-.001 3.057.083 6.1-.146 9.064-11.334.158-23.557.164-35.189 0-.264-.877-.146-1.818-.146-2.729-.001-6.559.001-13.246 0-19.789-.001-7.584-.119-15.061.098-22.223 6.471-.234 13.28 0 19.689-.195.265-1.107.146-2.336.146-3.559 0-3.635.091-7.475-.098-10.82-.938-.258-2.688-.188-3.703-.049-.202 1.482-.098 3.34-.098 5.166 0 1.842.02 3.703-.146 5.315-4.995.219-10.733.215-15.791.047-.146-4.037-.146-8.391-.147-12.721 0-4.297-.094-8.629.147-12.767 11.393-.197 23.587-.221 35.238-.049zm-19.106 44.741c-.345 1.029-.194 2.27-.194 3.461 0 3.623-.08 7.482.098 10.869 1.122.156 2.595.238 3.703 0 .241-.762.096-1.582.098-2.389.013-3.9.093-8.047-.098-11.844-.934-.273-2.52-.137-3.607-.097z"/><path d="m35.333.164c.241 10.961.144 22.447.146 33.773.001 3.744.125 7.461-.098 11.016-6.329.285-13.341-.088-19.544.195-.273 1.066-.138 2.25-.194 3.459-.11 2.373.049 4.916.049 7.408 0 1.211-.104 2.436.098 3.51 1.003.189 2.523.102 3.606.049.336-.719.195-1.658.195-2.533-.001-2.568-.08-5.516.097-7.945 1.206-.264 2.534-.147 3.851-.147 3.862 0 8.096-.08 11.843.098.225 8.244.139 16.836.049 25.441-2.849.391-5.789-.021-8.773.098-5.838.232-11.939.049-17.887.049-1.475 0-2.939.053-4.387 0-1.431-.053-2.862.254-4.239-.098-.172-18.465-.099-37.332-.098-56.098 0-6.199-.154-12.295.098-18.18 11.445-.204 23.958-.259 35.188-.095zm-19.544 15.205c-.256.494-.146 1.115-.146 1.658 0 4.246-.08 8.756.098 12.768 1.024.16 2.68.16 3.704 0 .178-3.422.097-7.332.098-10.867 0-1.199.109-2.416-.146-3.51-1.003-.191-2.528-.098-3.608-.049z"/></g></svg>