<svg enable-background="new 0 0 62.578 76.004" viewBox="0 0 62.578 76.004" xmlns="http://www.w3.org/2000/svg"><path clip-rule="evenodd" d="m59.441 15.635c-2.541 2.605-5.14 5.154-7.673 7.77-.583.445-.873 1.185-1.641 1.447-.327-1.756-.001-3.867-.193-5.742-1.215-.354-2.494-.105-3.764-.145-3.844-.121-7.53.111-11.581 0-2.607-.072-5.285-.049-7.914-.049s-5.23.109-7.721-.096c-.38-1.6.061-4.018-.241-5.695-.374-.066-.684.318-.917.531-.777.711-1.496 1.568-2.268 2.365-2.519 2.594-5.091 5.09-7.721 7.721-.36.359-1.445 1.156-1.448 1.592-.003.375 1.199 1.393 1.448 1.641 3.059 3.061 6.199 6.104 9.265 9.17.496.496.967 1.092 1.641 1.399.255-.377.145-.904.145-1.399 0-1.439-.091-3.137.097-4.392 8.921-.195 17.944-.096 27.265-.096 1.249 0 2.519.141 3.715-.098.31-1.871-.08-4.148.193-6.031.675.146 1.084.973 1.641 1.399 3.076 3.137 6.266 6.268 9.458 9.459.311.312 1.244 1.072 1.254 1.447.012.416-.913 1.137-1.254 1.496-3.075 3.238-6.39 6.445-9.458 9.652-.521.445-.954 1.23-1.592 1.398-.281-1.809.088-4.269-.193-6.08-1.227-.258-2.533-.145-3.812-.145-6.496 0-12.989 0-19.592 0-2.585 0-5.156.137-7.576-.096-.387-1.607.067-4.057-.241-5.744-.717.219-1.141.9-1.641 1.4-3.55 3.551-7.269 7.193-10.713 10.906.852 1.19 1.974 2.154 2.992 3.184 2.79 2.824 5.765 5.545 8.541 8.445.233.244.466.637.868.627.452-1.662-.204-4.133.242-5.789 9.965-.344 20.44.062 30.884-.146.506-1.631-.116-4.014.242-5.887.636.211 1.148.875 1.641 1.4 1.465 1.562 3.118 3.127 4.681 4.633 1.461 1.604 3.008 3.055 4.633 4.68.346.346 1.43 1.197 1.448 1.641.018.459-1.051 1.293-1.448 1.69-3.169 3.168-6.104 6.297-9.265 9.459-.516.516-.941 1.215-1.641 1.447-.31-1.717.147-4.201-.241-5.84-16.627-.336-33.496.061-49.752-.145-.216-21.501-.319-42.337-.148-63.939 15.271-.297 31.078-.193 46.809-.193.978 0 1.992.176 2.944-.096.252-1.68-.026-3.887.144-5.646.027-.071.075-.118.145-.145 2.165 1.879 4.095 4.119 6.273 6.129 1.531 1.412 3.01 3.106 4.585 4.68.321.322 1.444 1.176 1.448 1.594.004.387-1.224 1.465-1.448 1.688-.574.573-1.027 1.026-1.545 1.544z" fill-rule="evenodd"/></svg>