<svg enable-background="new 0 0 76.275 58.461" viewBox="0 0 76.275 58.461" xmlns="http://www.w3.org/2000/svg"><path clip-rule="evenodd" d="m76.121.145c.168 1.255.162 2.631.145 4.005-.05 4.027.03 8.629-.145 12.788-11.973.289-24.673-.078-36.626.145-.187.878-.1 2.276-.048 3.233.707.255 1.476.145 2.22.145 11.465-.002 23.285-.088 34.455.145.203 1.274.097 2.652.097 4.054 0 4.153.078 8.423-.048 12.257-.043.021-.086.042-.097.096-12.164.175-24.551-.105-36.578.145-.258.776-.182 2.331-.048 3.185.687.26 1.448.145 2.171.145 11.282 0 23.205.019 34.455.145.256.663.145 1.4.145 2.124 0 5.06.08 10.622-.097 15.586-16.207.137-33.71.1-50.09.097-1.534 0-3.005.091-4.15-.097-3.349-.548-5.413-3.17-6.756-5.887-.914-1.849-1.658-4.022-2.268-6.225-.613-2.212-1.313-4.437-1.882-6.563-.305-1.139-.504-2.297-.82-3.426-.9-3.212-1.988-6.501-2.848-9.796-1.145-4.392-2.353-8.747-3.619-13.271-.592-2.117-1.121-4.357-1.834-6.611-.477-1.508-.954-3.17-1.496-4.874-.156-.49-.556-1.444-.241-1.592.035-.046.087-.075.145-.098 25.438.141 50.221-.118 75.858.145zm-12.594 4.439c-10.436 0-20.402 0-30.402 0-9.375 0-18.752-.08-27.94.096.197.808.894 1.37 1.399 1.979 1.067 1.287 2.109 2.556 3.137 3.813.531.649.947 1.354 1.496 1.978 2.175 2.477 4.305 5.03 6.418 7.528 3.745 4.392 7.221 9.054 11.002 13.319.542.612 1.266 1.188 1.496 2.027-1.259.717-2.546 1.265-3.764 1.979-1.198.703-2.303 1.507-3.33 2.461-.962.894-1.766 2.001-2.558 3.233-.74 1.151-1.402 2.774-1.544 4.247-.29 2.989 1.269 5.035 3.185 5.936 1.439.677 3.88.387 5.984.386 12.736-.002 25.369.048 37.833.048 2.155 0 4.315.114 6.273-.145.161-2.592.161-5.853 0-8.445-.683-.253-1.462-.145-2.171-.145-2.376 0-4.639.048-6.949.048-7.744.001-15.371-.049-23.115-.048-1.593 0-3.153.116-4.536-.145-.195-3.165-.048-7.176-.048-10.568 0-.493-.104-1.021.145-1.448 12.483-.167 24.672.156 36.675-.145.229-1.008.097-2.343.097-3.667 0-1.336.078-2.712-.097-3.861-1.447-.31-2.952-.096-4.439-.096-10.782-.001-21.635.027-32.284-.145-.264-.856-.136-1.868-.097-2.847.125-3.133-.167-6.493.048-9.266.048 0 .058-.039.097-.048 10.762-.337 21.502.15 32.332-.048 1.452-.026 2.929.123 4.343-.144.247-2.195.201-5.419 0-7.769-2.856-.199-5.76-.098-8.686-.098zm-54.771 13.03c.35 1.19.72 2.361 1.061 3.378.369 1.101.564 2.303.917 3.475 1.059 3.52 2.097 6.548 3.185 10.086.511 1.661.957 3.446 1.496 5.163.089.284.357 1.506.724 1.496.398-.011.44-.716.676-1.013.251-.312.408-.718.579-1.11 1.195-1.714 2.675-3.287 4.488-4.44.414-.263 1.117-.501 1.158-.869.032-.284-.416-.789-.676-1.158-.823-1.172-1.614-2.199-2.413-3.185-2.332-2.877-4.287-5.627-6.515-8.445-.554-.7-1.178-1.339-1.689-2.027-1.214-1.634-2.279-3.6-3.764-4.874-.002-.029-.007-.057-.048-.048-.057.023-.109.051-.145.096.125.988.637 2.356.966 3.475z" fill-rule="evenodd"/></svg>