<svg enable-background="new 0 0 80.399 82.286" viewBox="0 0 80.399 82.286" xmlns="http://www.w3.org/2000/svg"><g clip-rule="evenodd" fill-rule="evenodd"><path d="m12.283 71.163c-2.311-2.656-4.892-5.344-6.598-8.647-1.72-3.331-3.341-6.84-4.348-10.896-1.041-4.193-1.618-9.112-1.2-13.845.497-5.621 2.22-10.592 4.248-14.794.419-.868.783-1.76 1.199-2.599.811-1.634 1.985-3.166 3.049-4.548 2.217-2.881 4.728-5.444 7.597-7.647 4.312-3.313 9.514-5.896 15.645-7.198 1.057-.224 2.135-.375 3.249-.55 1.161-.182 2.386-.343 3.599-.399 4.267-.202 8.07.427 11.446 1.25 3.333.812 6.384 2.125 9.097 3.599 5.447 2.958 9.911 7.206 13.395 11.996 3.588 4.932 6.154 10.894 7.298 18.094 1.258 7.926-.357 15.986-2.699 21.792-2.308 5.72-6.014 10.92-10.446 14.945-4.298 3.9-9.844 7.384-16.294 9.094-3.273.868-7.358 1.63-11.246 1.45-12.153-.566-20.345-4.903-26.991-11.097zm66.277-22.242c.871-4.312 1.019-9.118.499-13.646-.483-4.21-1.887-8.161-3.449-11.396-.831-1.723-1.661-3.279-2.599-4.798-2.83-4.586-6.528-8.166-10.996-11.246-2.87-1.978-6.192-3.763-9.997-4.848-3.845-1.097-8.418-2.062-13.195-1.749-7.702.503-13.605 2.575-18.893 5.797-5.006 3.052-9.428 7.47-12.446 12.296-3.101 4.959-5.628 11.181-6.298 18.394-.751 8.098 1.098 15.383 3.599 20.843 2.468 5.389 6.1 10.425 10.696 13.995 4.701 3.652 10.292 6.57 16.944 7.797 3.669.677 7.667.847 11.346.5 3.607-.34 7.053-1.234 9.997-2.349 5.981-2.265 10.506-5.826 14.745-9.996 4.617-5.304 8.393-11.41 10.047-19.594z"/><path d="m39.823 3.537c.454.852.299 2.145.3 3.249.001 1.033.219 2.855-.25 3.398-.47.545-2.356.417-3.299.55-9.916 1.403-16.331 6.53-21.143 13.145-2.128 2.925-3.689 6.515-4.648 10.546-.72 3.025-1.006 6.87-.549 10.396.149 1.155.218 2.321.45 3.349 1.37 6.097 4.221 11.143 7.997 14.795 2.554 2.47 5.546 4.826 8.947 6.298 3.056 1.323 6.524 2.318 10.696 2.599.642.043 1.38-.004 1.649.25.486.455.25 2.424.25 3.399 0 .909.262 2.893-.25 3.349-.336.299-1.378.201-2.099.15-10.964-.78-18.333-5.138-24.142-10.946-2.983-2.983-5.625-7.024-7.497-11.196-.493-1.099-.761-2.313-1.149-3.549-1.089-3.462-1.9-7.551-1.9-12.096 0-4.625.905-8.492 2-12.096.189-.624.271-1.27.5-1.849 1.481-3.758 3.665-7.297 5.998-10.347 3.317-4.335 7.797-7.724 13.096-10.246 3.579-1.704 7.96-3.129 12.995-3.399.662-.035 1.426-.106 2.048.251z"/><path d="m38.624 12.883c.562-.027 1.05-.073 1.3.25.398.515.2 2.404.2 3.399 0 .985.256 2.864-.15 3.449-.257.37-1.514.427-2.149.499-5.228.6-9.173 3.076-12.145 6.048-1.689 1.689-3.141 3.793-4.249 6.147-1.159 2.465-1.845 4.958-1.899 8.497-.104 6.823 2.673 11.346 5.948 14.895 1.844 1.998 3.877 3.254 6.148 4.249 1.783.78 3.761 1.398 6.098 1.699.614.08 1.912.019 2.249.35.488.479.25 2.467.25 3.449 0 1.113.25 2.93-.2 3.449-.458.528-2.19.26-3.049.15-5.221-.671-9.129-2.347-12.545-4.798-4.042-2.9-7.206-6.499-9.497-11.246-1.517-3.142-2.481-7.014-2.599-11.246-.129-4.631.918-8.303 2.199-11.696 1.253-3.32 3.165-6.112 5.348-8.497 4.147-4.532 10.491-8.654 18.742-9.047z"/><path d="m39.923 38.024c.407.789.25 2.061.25 3.249 0 1.175.14 2.465-.2 3.299-.584.459-1.497.281-2.399.25-1.856-.064-3.495.093-5.448.05-.797-.017-2.001-.126-2.199.45-.164.476.341 1.213.55 1.6 1.502 2.779 4.116 4.791 7.748 5.498.703.137 1.479.128 1.749.45.479.572.245 2.464.25 3.449.005.99.302 3.03-.3 3.499-.536.417-2.182.038-2.999-.1-2.891-.486-5.256-1.679-7.198-2.999-2.798-1.902-4.867-4.346-6.198-7.348-1.435-3.238-2.273-7.246-1.549-11.446.658-3.814 2.342-6.567 4.449-9.097 2.851-3.261 6.29-5.451 11.796-6.248.535-.078 1.477-.129 1.749.25.391.544.192 2.684.2 3.399.01.998.209 2.933-.25 3.449-.232.261-1 .343-1.549.45-3.4.656-5.901 2.411-7.598 5.098-.285.451-1.081 1.412-.9 2.099.156.593 1.441.468 2.2.5 1.945.082 3.621-.033 5.298 0 .808.015 1.841-.14 2.548.199z"/></g></svg>