<svg enable-background="new 0 0 83.345 49.133" viewBox="0 0 83.345 49.133" xmlns="http://www.w3.org/2000/svg"><path clip-rule="evenodd" d="m25.069 19.411c-.345.625-.215 2.143-.097 2.918 1.179.264 2.392.146 3.6.146 18.496 0 36.683.032 54.579.146.266 1.234.146 2.537.146 3.794 0 3.846.133 7.913-.048 11.723-.232 4.909-2.641 7.844-6.032 9.681-1.754.95-3.894 1.313-6.567 1.313-17.991-.003-35.77-.148-53.996-.146-2.85 0-5.531.191-7.637-.243-2.119-.437-3.787-1.466-5.156-2.676-2.681-2.366-4.399-6.306-3.648-11.723 1.983-.27 4.063-.155 6.129-.097 4.233.118 8.255-.049 12.404-.049 1.036 0 2.079.048 3.114.049.994 0 2.024-.118 2.967.146.166.637-.03 1.654.049 2.384.103.942.752 1.746 1.557 2.043.815.301 2.507.146 3.843.146 4.095 0 7.665.049 11.772.049 4.078-.001 7.745-.049 11.626-.049 2.463 0 4.731.366 5.351-1.605.471-1.5.022-4.482.049-6.081-1.178-.262-2.394-.146-3.6-.146-13.622.001-27.012-.051-40.57-.048-4.916.001-9.841.105-14.69-.146-.221-3.479-.075-6.927-.049-10.264.027-3.468-.343-6.931-.049-10.459.251-3.027 1.765-5.513 3.55-7.151 1.896-1.74 4.304-2.859 7.637-3.016 3.821-.18 7.645.192 11.481.049 3.721-.139 7.489 0 11.237 0 7.606 0 15.202-.009 22.766.048 3.688.028 7.613.054 11.236 0 1.982-.029 3.925-.086 5.546.147 4.781.685 7.948 3.764 9.243 8.026.894 2.944.396 7.297.389 10.896-.473.347-1.122.195-1.654.195-18.32.002-37.791-.086-56.478 0zm33.857-8.902c-.666-1.664-2.564-1.508-4.961-1.508-7.229 0-15.493 0-22.961 0-1.325 0-2.695-.144-3.892 0-.956.115-1.606.625-1.945 1.314-.651 1.323-.197 3.86-.194 5.545 1.297.255 2.699.146 4.086.146 4.416 0 8.672.049 12.842.049 4.318-.001 8.751-.209 13.037-.049 1.381.052 2.767.159 4.086-.097-.008-1.464.419-4.109-.098-5.4z" fill-rule="evenodd"/></svg>