<svg enable-background="new 0 0 173.599 166.153" viewBox="0 0 173.599 166.153" xmlns="http://www.w3.org/2000/svg"><g clip-rule="evenodd" fill-rule="evenodd"><path d="m172.997.177c.159.772.188 2.207-.05 2.908-3.218.184-6.426.101-9.628.101-6.245 0-12.318.05-18.704.05-15.729 0-32.272.031-48.038.15-.04.009-.05.05-.101.05-.158.821-.202 2.031 0 2.808 1.514.315 3.068.083 4.613.15 1.591.07 3.213-.05 4.814-.05 22.688 0 44.666-.196 67.092-.05.144.568.206 1.815-.05 2.307-12.501.506-25.281-.16-38.109.25-6.393.205-12.846 0-19.255 0-6.389 0-12.758-.07-19.055.151-.244.643-.244 2.215 0 2.858 24.971.212 51.41-.139 76.42 0 .23.494.251 1.866 0 2.357-25.208.422-51.427.02-76.42.401-.265.756-.149 1.965-.05 2.758 1.456.271 3.088.151 4.764.151 8.151 0 15.624-.05 23.818-.051 15.728 0 32.673-.174 47.937-.05.257.492.193 1.738.05 2.307-3.175.272-6.381.15-9.577.15-22.506-.001-44.643.196-66.892.25-.244.659-.244 2.25 0 2.909 24.562.206 51.314-.128 76.419-.05.022.044.044.09.101.1.053.664.144 1.775-.051 2.357-6.282.084-12.75.217-19.154.15-3.169-.033-6.371.062-9.527 0-6.284-.124-12.577.05-19.155.05-6.348 0-12.693.05-19.255.05-3.169 0-6.377-.112-9.427.151-.184.789-.122 2.056.05 2.808 24.952.21 51.105-.114 76.419-.05.308.55.247 1.87 0 2.457-19.245.191-38.398.251-57.415.25-6.379 0-12.848-.115-19.055.15-.161.74-.161 2.068 0 2.809 6.237.321 13.205-.11 19.757.2-.3.466-.918.746-1.404 1.153-.489.411-.914.892-1.404 1.254-4.324.005-8.272.05-12.787.05-1.413 0-2.847-.109-4.112.15-.142.727-.212 2.16.05 2.808 4.882.23 10.665-.145 15.845.15.255.56.181 1.725 0 2.307-5.069.313-10.902-.138-15.896.251-.161.74-.161 2.068 0 2.808 1.188.133 2.484.156 3.811.151 3.847-.016 8.17-.176 11.984.05.365.418.215 1.781.1 2.357-5.033.298-10.762-.098-15.795.201-.376.585-.172 1.989-.15 2.808 1.161.378 2.501.164 3.811.201 3.88.108 8.233-.268 12.084.05.261.496.194 1.783.05 2.357-5.05.315-10.872-.141-15.845.25-.205.682-.143 2.019 0 2.808 5.048.267 10.663-.033 15.795.15.022.044.045.09.101.1.057.651.138 1.736-.05 2.307-5.039.294-10.964-.09-15.845.201-.145.734-.211 2.203.05 2.858 5.268.311 10.615-.138 15.795.201.163.577.163 1.779 0 2.356-5.041.283-10.846-.074-15.745.201-.34.577-.271 2.203-.05 2.858 5.107.318 10.791-.137 15.795.2.158.599.185 1.828-.05 2.357-5.009.322-10.815-.151-15.745.25-.247.653-.23 2.153 0 2.808 5.016.3 10.73-.099 15.745.201.161.572.161 1.735 0 2.307-1.188.192-2.51.212-3.811.15-3.779-.18-8.037.108-11.884.1-.022.045-.044.09-.1.101-.16.862-.126 1.982.05 2.808 5.168.293 10.695-.123 15.695.15.175.608.219 1.74 0 2.357-5.045.271-10.694-.064-15.695.25-.141.73-.217 2.208.05 2.858 4.998.267 10.563-.033 15.645.15.264.499.188 1.778.05 2.356-2.443.289-5.173-.019-7.872.1-2.677.118-5.425-.105-7.873.201-.179.728-.114 1.952-.05 2.758.563.212 1.223.2 1.855.2 4.4.001 9.566-.188 13.94.05.145.588.173 1.724 0 2.307-1.226.285-2.55.149-3.861.1-3.723-.139-7.941.124-11.834.151-.274.643-.181 2.083-.05 2.808 1.198.272 2.506.162 3.811.1 3.879-.184 8.153.056 11.934.1.189.557.225 1.652.05 2.257-14.278.127-27.888.313-41.92.1-.294-2.096.093-4.874-.201-6.97-.045-.022-.09-.044-.1-.1-22.489-.056-45.372-.002-68.196 0-.581 0-1.634.252-1.805-.351-.078-.462.234-.535.652-.501 8.746.035 17.508-.05 26.125-.05 14.167 0 29.035.049 43.224-.1.337-.586.237-2.074.1-2.808-.01-.04-.05-.05-.05-.1-21.584-.114-44.036 0-66.14 0-.677 0-1.438-.032-2.156 0-.606.027-1.667.209-1.755-.452.315-.706 1.273-.377 1.855-.401 2.031-.081 4.319-.007 6.519-.05 2.938-.058 6.006 0 8.875 0 17.54.001 35.128.027 52.751-.1.354-.564.229-2.09.1-2.808-.628-.351-1.377-.201-2.056-.201-11.003 0-21.982.05-33.095.05-8.831.001-17.689 0-26.626 0-2.494 0-4.938.092-7.572 0-.234-.008-.756.115-.752-.351.127-.831 1.205-.501 1.755-.501 22.749 0 45.303-.007 68.246-.15.309-.657.177-1.96.1-2.808-.045-.022-.09-.044-.1-.1-11.611-.151-23.316 0-35.452 0-5.57 0-11.816-.145-17.701-.05-2.715.044-5.436.05-8.574.05-2.073 0-4.41-.028-6.619-.05-.24-.003-1.62.192-1.705-.301-.121-.706 1.269-.501 1.755-.501 22.694 0 45.819.008 68.296-.201.329-.585.113-1.903.1-2.758-.615-.349-1.37-.201-2.056-.201-9.519 0-19.165.003-28.682.101-9.986.102-20.557-.05-30.989-.05-2.032 0-4.239 0-6.619 0-.408 0-1.788.197-1.805-.401-.02-.681 1.489-.452 1.805-.452 5.136 0 10.509.027 15.545-.05 6.004-.091 11.73.051 17.35.05 11.958-.001 24.015-.059 35.351-.15.278-.662.175-2.112.05-2.858-17.017-.194-35.453-.102-53.002-.101-2.844 0-5.805-.082-8.725.05-2.361.107-5.144.037-7.622 0-.539-.008-.789-.066-.752-.452.102-.604 1.202-.449 1.805-.451 16.76-.055 33.93 0 50.896 0 4.44.001 8.837-.05 13.138-.05 1.426 0 2.867.121 4.262-.151.163-.738.159-2.069 0-2.808-1.418-.195-2.867-.101-4.312-.101-10 0-20.583.051-30.838.05-8.777 0-17.551.001-26.526 0-2.485 0-5.066.16-7.722 0-.266-.016-.716.063-.702-.401.057-.742 1.13-.419 1.805-.451 2.057-.098 4.378.048 6.519 0 2.892-.065 5.839-.05 8.675-.05 17.185.001 35.423.058 53.002-.101.356-.567.225-2.086.1-2.808-.571-.266-1.267-.15-1.905-.15-3.989 0-7.792 0-11.884 0-.527 0-1.437.251-1.604-.401.065-.708 1.048-.452 1.554-.452 4.464 0 9.457-.031 13.79-.15.259-.657.19-2.073.05-2.808-4.469-.21-9.038-.101-13.739-.1-.542 0-1.437.247-1.655-.351-.045-.797.975-.552 1.504-.552h9.928c1.364 0 2.704.118 3.912-.15.168-.701.161-2.056 0-2.758-1.17-.272-2.51-.15-3.861-.15-3.276 0-6.692.05-9.979.05-.5 0-1.422.248-1.504-.452.092-.697 1.048-.451 1.604-.451h9.878c1.343 0 2.668.118 3.861-.15.164-.705.164-2.053 0-2.758-1.181-.271-2.544-.15-3.912-.15-3.271 0-6.669-.104-9.978.05-.517.024-1.445.201-1.504-.501.144-.663 1.039-.451 1.604-.451 4.701 0 9.186.062 13.74-.101.264-.644.191-2.086.05-2.808-1.17-.271-2.509-.15-3.861-.15-3.284 0-6.648-.054-10.029 0-.499.008-1.361.243-1.504-.401.082-.707 1.044-.452 1.555-.452 4.365.001 9.523-.021 13.79-.15.251-.65.233-2.205 0-2.858-4.167-.18-9.068-.051-13.79-.051-.518 0-1.47.238-1.555-.451.114-.692 1.062-.452 1.604-.452h9.929c1.342 0 2.679.12 3.861-.15.157-.702.166-2.007 0-2.708-1.149-.251-2.511-.176-3.912-.15-3.25.06-6.536.05-9.878.05-.526 0-1.414.244-1.604-.401.025-.752 1.029-.502 1.555-.502 4.617 0 9.246.044 13.79-.1.295-.734.099-2.019.05-2.758-1.128-.27-2.552-.15-3.912-.15-2.681 0-5.16 0-7.873 0-.886 0-3.58.26-3.661-.351-.091-.697 1.131-.501 1.555-.501 4.499 0 9.562.056 13.84-.15.191-.716.105-1.961.05-2.758-1.432-.273-2.917-.15-4.363-.15-16.283 0-32.275.05-48.539.05-4.338 0-8.871.21-13.288 0-1.074-.051-2.147.154-3.31.05-.227-.02-.717.027-.652-.451.103-.637 1.187-.451 1.805-.451 22.67-.001 45.144.029 68.246-.201.272-.654.185-2.123.05-2.858-20.348-.179-41.273 0-61.877 0-2.173 0-4.502-.145-6.519-.05-.529.025-1.501.385-1.705-.401.067-.658 1.14-.451 1.805-.451 22.447 0 46.219.034 68.246-.15.264-.65.189-2.079.05-2.808-.662-.265-1.41-.15-2.106-.15-3.689 0-7.369 0-11.182 0-12.828 0-26.384.051-39.714.05-4.324 0-9.02.05-13.188 0-.509-.006-1.356 0-2.256 0-.484 0-1.812.201-1.705-.502.077-.503 1.547-.351 1.906-.351 22.726 0 45.273.015 68.195-.201.237-.664.243-2.195 0-2.858-5.789-.238-11.715-.05-17.65-.05-14.675 0-29.305.049-44.077.05-2.024 0-4.334-.062-6.669-.05-.394.002-1.709.304-1.705-.401.004-.591 1.427-.401 1.855-.401 22.366 0 46.29-.059 68.246-.201.224-.674.132-2.024 0-2.808-.662-.266-1.423-.15-2.106-.15-20.039.001-39.758.101-59.621.1-2.006 0-4.337 0-6.619 0-.44 0-1.766.162-1.806-.401-.052-.748 1.386-.445 1.705-.452 8.288-.167 15.765-.05 24.119-.05 15.023 0 29.809.034 44.277-.15.274-.643.181-2.083.05-2.808-11.56-.25-23.54-.051-35.401-.05-10.786 0-21.43-.001-32.794 0-.479 0-1.816.163-1.906-.301-.155-.804 1.304-.552 1.705-.552 22.425 0 45.572-.038 68.296-.15h.1c.579-.791.831-1.91 1.304-2.808-.049-.001-.039-.061-.05-.1-14.227-.098-29.044-.05-43.725-.05-5.804 0-11.604.05-17.5.05-2.603 0-5.073 0-7.622 0-.286 0-.712.115-.953-.15.062-.88.983-.702 1.558-.702 8.24 0 16.063-.05 24.37-.05 2.986 0 5.987.129 8.925.05 8.681-.234 17.434-.1 26.526-.1h6.77c.788 0 1.62.101 2.156-.05.547-.154 1.011-.966 1.404-1.404.231-.257.434-.534.652-.752.212-.212.602-.381.501-.752-20.462-.142-41.26-.023-61.426 0-2.858.003-5.733.086-8.575-.101.337-1.134 2.252-.802 3.661-.802 21.263 0 42.43-.101 63.081-.101 1.509 0 3.401.247 4.613-.05.682-.166 1.575-1.067 2.207-1.454.824-.504 1.702-.738 2.256-1.354-1.405-.269-2.83-.15-4.262-.15-21.337 0-43.945.282-65.438 0 1.227-.699 2.723-.662 4.162-.702 1.57-.044 3.225.042 4.814.05 6.502.035 12.75.011 19.155 0 34.779-.064 69.802-.352 105.101-.352 4.742 0 9.532-.05 14.291-.05 4.309 0 8.17-.05 12.536-.05.801.001 1.621-.12 2.357.151z"/><path d="m173.047 34.325c.241.507.204 1.728.051 2.307-7.811.234-15.85.2-23.869.201-8.043 0-16.116.156-24.068-.05-.147-.577-.174-1.734 0-2.307 11.156-.435 22.993.127 34.549-.25 4.408-.145 8.984.023 13.337.099z"/><path d="m44.178 35.679c-.563 1.232-2.832.802-4.463.802-12.404 0-25.96.051-38.259.05-.518 0-1.344.168-1.354-.451.2-.711 1.125-.437 1.604-.451 2.076-.062 4.215.05 6.318.05 6.861 0 13.855-.05 20.96-.05 5.054 0 10.22-.07 15.194.05z"/><path d="m41.571 39.891c.04.573-.626.452-1.053.451-10.459 0-21.191.082-31.841 0-2.049-.016-4.459-.057-6.719.05-.495.023-1.86.216-1.855-.451.004-.626 1.978-.445 2.507-.451 11.833-.15 24.586.093 36.555.05.721-.003 2.154-.366 2.406.351z"/><path d="m173.098 39.891c.163.574.158 1.732 0 2.307-15.734.246-32.5.175-47.888.15-.204-.644-.182-1.699 0-2.357 10.37-.144 20.986-.096 31.24-.15 5.683-.031 11.278-.061 16.648.05z"/><path d="m.102 43.852c.067-.776 1.595-.388 2.307-.451.076-.007.09-.05.15-.05h36.956c.674 0 1.842-.271 2.056.401.041.571-.597.438-.902.451-2.981.131-6.293 0-9.227 0-9.125 0-17.471.05-26.476.051-1.27 0-2.558.033-3.961 0-.311-.008-.874.096-.903-.402z"/><path d="m173.098 45.457c.168.556.159 1.749 0 2.307-7.617.232-15.855.201-24.069.201-6.008 0-11.867.05-17.951.05-1.998 0-3.972.125-5.867-.101-.163-.561-.163-1.745 0-2.307 10.471-.239 20.741-.201 31.541-.201 5.384.001 10.916-.176 16.346.051z"/><path d="m41.571 47.714c-.162.744-1.453.451-2.256.451-6.136 0-12.498 0-18.653 0-5.22 0-10.637.05-15.795.05-1.294 0-2.625-.016-3.861-.05-.277-.008-.85.168-.852-.351-.012-.733.869-.501 1.203-.501h18.403 20.309c.466-.001 1.345-.244 1.502.401z"/><path d="m173.098 51.073c.167.661.219 1.727 0 2.356-16.18.236-32.058.229-47.837.151-.234-.498-.246-1.861 0-2.357 6.854-.178 13.681-.151 20.509-.15 3.352 0 6.716-.14 10.079-.05 5.762.154 11.555-.235 17.249.05z"/><path d="m41.571 51.625c-.125.79-1.388.501-2.206.501-2.644 0-5.305 0-7.873 0-10.356 0-20.131.108-30.437 0-.28-.003-.927.158-.902-.401.038-.742 1.367-.451 2.056-.451 10.835 0 22.455-.053 33.446 0 1.562.007 3.135-.026 4.714-.05.366-.006 1.072-.176 1.202.401z"/><path d="m41.571 55.636c.024.562-.631.399-.902.401-6.13.064-12.382 0-18.704 0-6.646 0-13.513-.092-19.907 0-.546.008-1.855.29-1.905-.351-.06-.771 1.673-.429 2.156-.451 3.256-.152 7.327-.011 10.58 0 8.883.028 18.335-.05 27.329-.05.372 0 1.269-.274 1.353.451z"/><path d="m173.098 56.639c.248.537.19 1.744.05 2.357-3.96.246-7.982.15-11.984.15-12.258 0-23.769.199-35.903.05-.205-.559-.225-1.741-.05-2.356 1.812-.178 3.673-.15 5.516-.15 7.51 0 15.11-.05 22.815-.05 3.713 0 7.476-.05 11.283-.05 2.874-.001 5.6-.052 8.273.049z"/><path d="m41.571 59.548c.024.566-.669.399-.953.401-11.863.064-23.744.051-35.652.05-1.264 0-2.622.066-3.911 0-.259-.014-.898.074-.853-.451.064-.656 1.161-.401 1.805-.401 7.878 0 15.415-.051 23.367-.05 4.985.001 9.767 0 14.542 0 .495-.001 1.465-.307 1.655.451z"/><path d="m173.148 62.305c.163.561.163 1.745 0 2.307-.888.243-1.87.15-2.808.15-15.104 0-30.225.214-45.08 0-.163-.577-.163-1.779 0-2.356 11.614-.151 23.911-.2 35.853-.201h8.775c1.116 0 2.256-.186 3.26.1z"/><path d="m.202 63.509c.055-.697.998-.451 1.504-.451 4.312 0 9.063.199 13.338 0 2.065-.096 4.861-.019 6.92 0 2.232.02 4.504-.05 6.87-.05 3.163 0 6.987.108 10.029.05.495-.009 2.83-.372 2.758.451-.052.589-1.637.401-2.307.401-12.659.001-24.444-.001-36.855 0-.409 0-.918.008-1.354 0-.297-.006-.889.11-.903-.401z"/><path d="m41.671 94.899c-.174.73-1.41.451-2.207.451-12.546.001-25.689.193-38.31 0-.306-.004-.882.123-.902-.401.149-.726 1.073-.452 1.555-.452 1.936 0 3.983.001 5.967 0 11.001 0 21.404.001 32.644 0 .379 0 1.138-.211 1.253.402z"/><path d="m.252 98.91c-.037-.575.623-.447.953-.451 8.621-.091 16.547-.05 25.222-.05 3.95 0 7.933.076 11.784 0 .646-.013 1.357-.018 2.006 0 .436.012 1.255-.19 1.454.401-.06.779-1.264.501-2.006.501-12.746-.001-25.915.067-38.36 0-.44-.002-1.031.108-1.053-.401z"/><path d="m173.348 101.668c.163.562.163 1.746 0 2.307-15.483.281-32.038.192-47.836.2-.135-.637-.207-1.746-.05-2.356 1.672-.286 3.387-.112 5.115-.151 5.354-.12 10.768-.05 16.247-.05 5.373 0 10.828-.166 16.246-.05 3.56.076 6.926-.159 10.278.1z"/><path d="m112.424 101.768c.247.51.204 1.774.05 2.357-1.592.224-3.262.1-4.964.1-12.246 0-24.856.226-36.855 0-.188-.571-.107-1.655-.05-2.307 1.444-.242 2.932-.166 4.413-.2 1.46-.034 2.936.038 4.412.05 5.096.041 10.399-.05 15.795-.05 5.784 0 11.472-.167 17.199.05z"/><path d="m41.671 102.771c-.186.714-1.125.41-1.705.401-6.405-.102-12.816.025-19.506.05-6.468.023-12.643.101-19.306 0-.535-.008-.86-.043-.902-.351-.094-.684.843-.48 1.304-.501 3.603-.168 7.475 0 11.082 0h25.824c.554 0 1.207-.026 1.805-.05.416-.017 1.296-.225 1.404.451z"/><path d="m41.671 106.632c-.03.763-.922.501-1.354.501-11.289 0-22.57.05-33.947.05-1.604 0-3.243 0-4.864 0-.386 0-1.169.206-1.203-.451.089-.693.979-.452 1.454-.452 4.286 0 8.833.205 13.238 0 2.074-.096 4.754-.038 6.92-.05 6.258-.033 12.04.049 18.403.05.379.001 1.162-.232 1.353.352z"/><path d="m173.348 107.234c.16.573.168 1.785 0 2.356-7.739.232-15.882.201-23.969.201-8.073 0-16.106.117-23.918-.05-.145-.598-.2-1.834.05-2.356 6.806-.21 13.607-.151 20.358-.15 3.338 0 6.663.079 9.979 0 5.897-.142 11.857-.109 17.5-.001z"/><path d="m112.474 107.434c.163.562.163 1.746 0 2.307-6.206.172-12.826.125-19.105.101-7.447-.028-15.143.158-22.664.05-.215-.566-.245-1.848 0-2.407 10.193-.371 21.125.049 31.791-.201 3.317-.078 6.798-.013 9.978.15z"/><path d="m41.721 110.593c.034.585-.589.442-.902.451-6.423.198-13.171-.132-19.706.05-1.741.049-3.557-.101-5.366-.05-4.386.123-8.635.05-13.288.05-.704 0-2.071.317-2.156-.501.003-.533.66-.338.902-.351 2.977-.152 6.343-.064 9.527-.05 1.528.006 3.107 0 4.713 0h9.527c5.361 0 10.15-.001 15.595 0 .381.001 1.095-.178 1.154.401z"/><path d="m54.909 110.794c0-.1 0-.201 0-.301.129-.449 1.655-.342 2.206-.351 2.952-.047 6.907 0 10.28 0 .903 0 3.04-.222 3.109.351.088.737-1.198.498-1.404.501-3.795.063-8.516-.062-12.636.05-.507.014-1.153.071-1.555-.25z"/><path d="m173.348 112.85c.194.567.226 1.688.051 2.307-1.961.27-3.964.15-5.967.15-13.694 0-28.131.166-41.92 0-.163-.561-.163-1.745 0-2.306 6.342-.234 12.764-.151 19.205-.15 4.756 0 9.564-.05 14.34-.05 4.786-.001 9.498-.171 14.291.049z"/><path d="m112.474 113.001c.159.558.168 1.75 0 2.306-5.115.287-10.428-.064-15.595.251-.284.69-.115 2.037 0 2.808 1.234.272 2.585.15 3.911.15 3.918-.001 7.931-.165 11.734.1.163.561.163 1.746 0 2.307-5.137.307-10.777-.126-15.645.251-.167.74-.16 2.117 0 2.858 4.345.215 9.393.035 13.89.15.618.016 1.257-.208 1.806.101.129.583.103 1.648-.05 2.256-5.074.292-10.745-.101-15.645.25-.155.855-.209 1.986-.05 2.758 1.24.272 2.6.15 3.961.15h10.079c.651 0 1.48-.127 2.006 0 .488.119.833.975 1.253 1.354.497.448 1.1.546 1.454 1.053-6.056.29-12.845-.098-18.704.251-.271.771-.126 1.945-.05 2.758.694.295 1.469.139 2.206.15 11.755.187 24.311.074 36.104-.05 12.937-.136 25.629-.016 38.31.05.164.65.147 1.759-.05 2.356-18.498.198-38.285.201-57.465.201-6.418 0-12.835-.107-19.055.15-.272.652-.179 2.074-.05 2.808 6.381.184 12.828.101 19.255.101 19.099 0 38.236-.15 57.314 0 .256.52.189 1.759.05 2.356-26.081.384-50.829.038-76.519.351-.351.58-.226 2.076-.1 2.808.738.271 1.534.15 2.306.15 24.962.001 49.993-.098 74.212-.1.022.044.045.089.101.1.196.61.118 1.735-.05 2.307-23.954.265-47.541.251-71.856.251-1.579 0-3.157-.12-4.713.15-.171.728-.155 2.078 0 2.808 1.476.231 2.994.153 4.513.101 4.897-.169 9.659.051 14.391.05 19.251-.002 38.308-.215 57.715-.05.182.561.112 1.617.051 2.256-.045.022-.09.044-.101.101-25.47.312-50.928.023-76.52.301-.265.659-.191 2.12-.05 2.858 19.274.212 38.284.05 57.715.05 6.323 0 12.62-.188 18.904.05.163.561.163 1.745 0 2.307-3.134.202-6.275.15-9.427.15-20.959-.003-41.316.1-62.479.1-1.569 0-3.155-.122-4.713.15-.158.728-.169 2.083 0 2.808.733.243 1.548.173 2.306.15 5.308-.155 10.962.001 16.648 0 9.611-.001 19.075-.051 28.883-.05 8.61.001 17.531-.1 26.576-.101.753 0 1.535-.117 2.257.15.145.681.135 1.717-.051 2.357-6.727.165-13.498.15-20.308.15-43.955.001-87.955.2-132.43.201-1.64 0-3.445-.09-5.115-.05-1.291.031-2.326-.054-3.359-.401-.275-.093-.676-.139-.802-.452 21.68-.306 44.162.127 66.29-.301-.101-.458-.585-.55-.903-.752-.3-.191-.643-.409-.953-.652-.491-.386-1.263-1.419-1.855-1.504-1.308-.189-2.834.05-4.312.05-20.243-.001-40.705 0-61.376 0-1.239 0-3.025.48-3.46-.752 22.316-.276 46.127.098 68.296-.251.003-.559-.465-1.03-.752-1.504-.293-.485-.518-1.069-.953-1.404-17.414-.042-35.571-.05-52.701-.05-5.187.001-9.913.127-15.193 0-.508-.012-1.81.177-1.604-.602.092-.35 1.327-.272 1.956-.251 4.906.17 10.016 0 15.043 0 17.23 0 34.672.089 52.049-.151-.085-.836-.18-2.092-.501-2.858-20.243-.222-40.992.167-61.577-.05-2.011-.021-4.263 0-6.669 0-.48 0-1.775.147-1.705-.502.052-.476 1.463-.396 1.855-.401 5.264-.068 10.357 0 15.294 0 16.98 0 35.229.088 52.701-.1.266-.635.191-2.094.05-2.808-1.412-.273-2.876-.15-4.312-.151-10.294 0-20.549.05-30.788.05-11.365.001-22.032 0-33.195 0-.596 0-1.674.258-1.805-.401.009-.746 1.172-.441 1.805-.452 10.651-.171 21.828.001 32.894 0 11.895 0 23.932-.065 35.352-.15.267-.65.191-2.128.05-2.858-1.365-.24-2.785-.101-4.212-.1-18.883.001-38.832-.122-57.615.05-2.134.02-4.269-.118-6.519-.05-.522.016-1.525.247-1.755-.352.151-.812 1.201-.501 1.755-.501h6.669c20.558 0 41.433.06 61.677-.151.165-.721.165-2.087 0-2.808-.66-.27-1.425-.15-2.106-.15-16.642.002-34.117-.002-50.796 0-2.921 0-5.974.152-8.926.05-2.489-.086-5.191.06-7.572 0-.241-.006-.709.033-.702-.401.159-.797 1.203-.501 1.755-.501 22.341.001 45.552.104 68.296-.151.246-.655.237-2.201 0-2.858-22.391-.138-45.343-.05-68.246-.05-.558 0-1.51.282-1.805-.401.045-.715 1.14-.452 1.805-.452 2.176 0 4.549.001 6.719 0 20.269-.001 40.85.045 61.527-.2.269-.648.184-2.079.05-2.808-11.701-.256-23.77-.049-35.401-.05-5.755 0-11.822-.05-17.701-.05-2.811.001-5.793.076-8.625 0-2.135-.057-4.479-.061-6.669 0-.523.015-1.502.379-1.705-.401.231-.749 1.241-.451 1.805-.451h15.494c5.915 0 11.983-.201 17.801 0 2.843.098 5.795.084 8.675-.05 2.905-.135 5.826.104 8.725.05 5.832-.108 11.732.061 17.55-.15.262-.654.213-2.145 0-2.808-4.302-.182-9.206-.1-13.84-.1-.763 0-1.504.129-1.605-.352-.134-.641.937-.501 1.455-.501 4.616 0 9.466.006 13.94-.1.352-.588.221-2.066.1-2.808-1.156-.269-2.557-.15-3.911-.15-2.655.001-5.26 0-8.023 0-.905 0-3.504.325-3.61-.301-.124-.728 1.07-.551 1.504-.551 4.6 0 9.39.035 13.94-.05.346-.598.262-2.229.05-2.909-4.27-.109-9.425-.219-13.94-.05-.537.02-1.423.207-1.554-.451.109-.723 1.075-.443 1.604-.452 4.19-.063 9.51-.015 13.84-.1.022-.045.044-.09.1-.101.184-.774.12-2.019-.05-2.758-1.166-.244-2.526-.15-3.912-.15-3.193 0-6.953.061-10.029 0-.502-.01-1.439.309-1.554-.401.132-.659 1.059-.452 1.604-.452h9.978c1.362 0 2.706.116 3.912-.15.167-.708.159-2.048 0-2.758-1.183-.268-2.549-.15-3.912-.15-3.297 0-6.854-.069-10.079 0-.493.011-1.403.332-1.504-.401.168-.727 1.115-.451 1.554-.451h11.734c.698 0 1.692.098 2.056-.05.385-.157.138-.814.551-1.002.484-.222 1.688-.05 2.357-.05 12.975.002 26.297-.181 39.316.053z"/><path d="m41.721 114.505c-.047.685-1.037.452-1.654.452-9.994 0-20.745.05-31.19.05-2.23 0-4.471-.05-6.669-.05-.618 0-1.357.209-1.905-.201-.02-.287.004-.53.201-.602 9.812-.088 20.98-.05 31.39-.05 3.043 0 5.853-.061 8.926 0 .28.005.866-.119.901.401z"/><path d="m.353 118.667c-.104-.434.083-.575.401-.652.675-.163 1.725-.005 2.607 0 11.877.064 24.167 0 36.204 0 .713 0 1.909-.281 2.156.401-.146.743-1.429.451-2.206.451-12.239 0-25.446-.001-38.059 0-.35 0-.835.129-1.103-.2z"/><path d="m173.399 118.466c.167.565.157 1.74 0 2.307-1.239.13-2.586.151-3.861.151-14.526-.002-29.961.116-43.976 0-.23-.534-.211-1.755-.05-2.357 15.709-.209 31.952-.246 47.887-.101z"/><path d="m41.771 122.427c-.031.53-.625.398-.953.401-6.516.068-13.116 0-19.907 0-6.332 0-12.286 0-18.453 0-.425 0-2.125.288-2.156-.401-.028-.626.848-.446 1.304-.501 1.215-.146 2.64.05 4.011.05 6.641-.001 13.233-.051 20.258-.05 4.8 0 9.563-.001 14.341 0 .464 0 1.407-.273 1.555.501z"/><path d="m173.399 124.082c.165.579.16 1.777 0 2.357-15.808.186-31.735.22-47.837.1-.254-.504-.192-1.727-.05-2.307 15.842-.213 32.047-.27 47.887-.15z"/><path d="m.353 126.339c.009-.64.772-.451 1.203-.451 3.672 0 7.803.169 11.433 0 2.269-.106 4.931 0 7.421 0 6.362 0 13.119-.001 19.907 0 .411 0 1.401-.14 1.454.351.079.732-1.614.501-2.156.501-12.876.001-25.362.135-38.36 0-.312-.003-.898.124-.902-.401z"/><path d="m173.399 129.648c.134.623.209 1.709.05 2.307-.943.269-1.934.15-2.908.15-6.934.001-13.974.051-21.061.05-8.058-.001-16.138.134-23.918-.05-.148-.681-.218-1.593-.05-2.307 10.834-.228 22.403-.2 33.847-.201 4.761.001 9.372-.164 14.04.051z"/><path d="m43.376 130.501c-5.555.322-11.162.101-16.748.101-5.976-.001-11.886.028-17.701 0-2.471-.012-5.029.069-7.772 0-.281-.008-.803.115-.802-.352.033-.788 1.614-.389 2.306-.451.076-.007.09-.05.15-.05 6.625-.022 13.711.001 20.659 0 6.074 0 12.276.032 18.052 0 .7-.004 1.696-.156 1.856.752z"/></g></svg>