<svg enable-background="new 0 0 56.978 74.286" viewBox="0 0 56.978 74.286" xmlns="http://www.w3.org/2000/svg"><path clip-rule="evenodd" d="m30.678.219c.039 1.808-.039 3.678-.192 5.581-.295 3.658-.337 7.654-.337 11.401 0 .912-.042 1.809-.048 2.742-.005.732-.049 2.431.24 2.694.424.386 2.094.115 3.031.144 5.314.166 10.707.02 15.971-.144 2.095-.066 4.19-.237 6.158-.145.117 1.054.154 2.566.048 3.608-.963.265-2.028.092-3.079.048-1.044-.044-2.123-.047-3.175-.096-3.188-.15-6.379-.198-9.573-.241-2.234-.03-3.913-.048-6.35-.048-.886 0-2.704-.131-3.031.24-.273.311-.11 1.786-.145 2.55-.107 2.467.079 5.223-.096 7.697-.122 1.732-.097 3.516-.097 5.243 0 1.748-.166 3.477 0 5.1.438.119.567-.404.722-.625 1.323-1.895 3.168-3.354 5.484-4.377 2.508-1.108 6.286-1.737 9.718-.914 2.915.699 5.373 2.147 7.216 4.089 1.84 1.938 3.225 4.58 3.463 7.745-.65.337-2.232.222-3.03.096-.077.014-.082-.045-.144-.048-.271-.452-.222-.889-.337-1.347-1.366-5.412-6.891-9.318-14.144-7.457-2.811.721-5.03 2.479-6.543 4.666-2.225 3.218-3.098 9.592-1.636 14.336.849 2.75 2.472 5.059 4.667 6.591 2.172 1.516 5.593 2.403 8.996 1.828 3.031-.513 5.407-2.163 6.975-4.233 1.62-2.14 2.617-4.946 2.31-8.707-.737-.392-1.675-.241-2.55-.241-2.715 0-5.501-.189-8.13-.048-1.755.094-3.558-.096-5.34-.096-1.843 0-3.654.08-5.437-.096-.257-.597-.18-1.972-.047-2.646.911-.346 1.938-.165 2.934-.192 4.996-.139 10.427.193 15.587.192 1.552 0 3.055.048 4.618.048.473 0 1.008-.105 1.443.144.226 1.158.19 2.323.144 3.416-.32 7.609-3.964 12.681-9.813 14.769-1.857.663-4.189.891-6.254.769-2.036-.119-3.961-.846-5.436-1.587-2.816-1.416-4.858-3.207-6.302-6.013-.176-.342-.23-.872-.674-1.058-.39.181-.463.64-.625.962-1.202 2.375-3.123 4.265-5.437 5.628-2.597 1.561-6.803 2.167-10.535 1.395-3.485-.72-6.277-2.286-8.034-4.57-1.478-1.61-2.601-3.747-3.175-6.302-.182-.811-.466-1.694-.337-2.598.812-.203 2.135-.285 2.982-.144.466.994.438 2.044.77 3.079 1.458 4.534 5.102 7.985 11.064 7.986 7.011.002 10.843-4.898 11.689-11.161.67-4.958-.46-9.434-2.646-12.315-1.383-1.519-3.078-3.101-5.388-3.752-2.418-.681-5.557-.609-7.89.289-3.668 1.411-6.438 4.296-7.265 8.707-.111.595-.336 1.306-.048 1.924.783.309 1.738.233 2.598.192 2.509-.119 5.341-.049 8.034-.048 1.798 0 3.563-.091 5.291-.048 1.746.044 3.488-.129 5.196.145.23.65.227 2.091 0 2.742-1.926.372-3.953.194-6.014.192-5.204-.004-10.272-.096-15.587-.096-1.009 0-2.06.149-2.982-.193-.246-.593-.072-1.275-.048-1.876.213-5.324 2.27-9.008 5.147-11.738 1.834-1.741 4.336-2.785 7.216-3.367 5.827-1.177 11.019 1.212 13.519 4.426.373.48.659 1.076 1.202 1.443.262-.699.145-1.594.145-2.502 0-2.567.184-5.23 0-7.793-.122-1.702-.112-3.496-.048-5.195.063-1.72.166-3.428-.097-5.051-.938-.321-2-.241-3.03-.241-5.302 0-10.856.096-15.972.096-2.098 0-4.142.306-6.11.144-.314-.96-.282-2.608-.096-3.656 4.058-.042 8.247.214 12.508.385 3.222.129 6.393.145 9.67.145.785 0 2.627.14 2.982-.192.347-.325.183-2.042.192-2.646.093-5.809.07-11.607-.192-17.27-.041-.868-.283-1.832.096-2.598.88-.066 2.638-.29 3.47.094z" fill-rule="evenodd"/></svg>