<svg enable-background="new 0 0 50.98 72.257" viewBox="0 0 50.98 72.257" xmlns="http://www.w3.org/2000/svg"><path clip-rule="evenodd" d="m49.377.06c-.009.498-.439.855-.725 1.207-.893 1.098-1.757 2.283-2.657 3.43-1.186 1.51-2.176 3.208-3.574 4.493-11.437.176-23.157-.03-34.734.193-.287 3.872-.056 8.605-.049 12.899.239.249.371-.213.58-.29 1.962-2.562 3.923-4.937 5.941-7.536.275-.354.578-.864.918-.966.497-.149 1.402-.009 2.126 0 9.611.116 19.39-.039 29.323-.048 1.469-.002 2.915-.214 4.3.097.165 14.249.144 28.61.146 42.995 0 2.062.039 4.279-.049 6.232-1.003 1.7-2.292 3.183-3.479 4.734-1.186 1.551-2.215 3.228-3.526 4.686-13.629.008-28.304.21-42.222-.096.028-.499.439-.89.725-1.256.861-1.108 1.791-2.258 2.705-3.382.32-.393.529-.838.821-1.256.273-.391.626-.738.918-1.111.593-.758 1.092-1.613 1.884-2.174 11.579-.033 23.242.091 34.59-.144.262-1.02.145-2.159.145-3.237 0-3.227.036-6.43-.097-9.662-.552.003-.741.628-1.015.966-.879 1.085-1.831 2.215-2.705 3.382-1.165 1.555-2.357 3.134-3.672 4.493-11.756.033-24.065.176-35.748-.099-.26-.97-.146-1.988-.146-2.995.002-11.545-.047-22.646-.047-33.961 0-3.066 0-6.017 0-9.227 0-1.096-.148-2.248.048-3.043.188-.759 1.266-1.798 1.739-2.416.629-.822 1.258-1.638 1.787-2.319.623-.8 1.258-1.579 1.74-2.415.481-.836 1.145-1.629 1.884-2.222 13.928.123 28.135-.116 42.125.048zm-41.69 22.753c-.147.731-.188 1.892-.049 2.609 2.807.253 5.775.146 8.744.145 8.994-.002 18.186.044 26.908-.145.225-.6.235-2.011 0-2.609-5.847-.385-11.875.178-17.682-.097-1.435-.068-2.877.111-4.347.048-4.444-.188-8.951.188-13.431-.096-.068.027-.116.076-.143.145zm35.506 3.14c-1.237 1.312-2.469 3.099-3.623 4.541-.535.669-1.137 1.365-1.787 2.174-.413.513-1.185 1.967-1.836 2.126-.447.109-1.146.045-1.739.049-7.781.04-15.401.048-23.092.048-1.147 0-2.312-.18-3.43.097-.164 3.531-.156 7.724 0 11.256.465-.046.685-.611.966-.966.314-.396.677-.762.918-1.16 1.394-1.798 2.741-3.358 4.106-5.169.449-.595.897-1.428 1.498-1.594.438-.121 1.076 0 1.689 0 1.811 0 3.642-.048 5.315-.048h14.3c2.401 0 4.703.088 6.86-.145.175-3.07.096-6.763.096-9.951 0-.419.141-.955-.193-1.256-.015-.002-.032-.002-.048-.002zm-35.313 20.58c.015-.098-.14.01-.146.048-.218.666-.233 2.091 0 2.753 8.891.22 17.75.05 26.667.048 2.993 0 5.969.081 8.938-.096.138-.716.191-2.01 0-2.609-11.377-.301-24.007.084-35.459-.144z" fill-rule="evenodd"/></svg>