<svg enable-background="new 0 0 74.861 74.761" viewBox="0 0 74.861 74.761" xmlns="http://www.w3.org/2000/svg"><g clip-rule="evenodd" fill-rule="evenodd"><path d="m62.986 10.358c2.849 2.689 5.287 5.707 7.217 9.168 2.868 5.142 4.911 11.795 4.633 19.848-.089 2.566-.595 4.885-1.122 7.07-2.103 8.727-6.604 15.088-12.678 20.041-3.044 2.482-6.546 4.498-10.436 5.9-4.036 1.457-8.741 2.717-13.996 2.293-2.676-.217-5.03-.428-7.266-.928-6.494-1.445-12.037-4.506-16.336-8.191-2.217-1.9-4.14-4.016-5.852-6.438-.564-.797-.989-1.656-1.512-2.535-3.89-6.539-6.949-15.818-5.071-26.478.79-4.486 2.525-8.531 4.438-11.947.468-.836 1.11-1.619 1.609-2.486.492-.856 1.086-1.695 1.707-2.391 5.819-6.522 13.069-11.5 23.846-12.971 7.133-.975 14.385.439 19.505 2.682 4.398 1.925 8.191 4.316 11.314 7.363zm-.439 6.924c-4.104.191-8.342.002-12.533 0-3.157 0-6.372.051-9.313.049-1.035 0-2.081-.115-3.072.146-.174.869-.098 1.973-.098 3.024 0 1.084-.113 2.189.146 3.023 5.808.176 11.672.049 17.652.049.811 0 1.67-.111 2.438.147.059 3.041.226 6.971-.049 10.24-2.616.264-5.514.146-8.29.146-2.799 0-5.561-.1-8.095.098-.161 1.908-.162 4.481 0 6.389 1.285.26 2.666.146 4.048.146 4.15-.002 8.355-.096 12.435.098.186 2.371.098 5.08.098 7.607 0 .863.114 1.729-.146 2.486-4.822.17-9.866.098-14.678.098-1.649 0-3.313-.117-4.877.147-.219 1.848-.233 4.445 0 6.289 4.208.268 8.643-.006 13.021.098 3.128.074 6.351.002 9.655 0 1.067 0 2.188.117 3.218-.147.174-13.019.157-26.816 0-40.035-.445-.231-1.082-.12-1.56-.098zm-59.395 11.996c-.817 1.889-1.534 4.094-1.609 6.584-.154 5.094 1.514 9.238 3.852 12.387 1.177 1.584 2.402 3.025 4.047 4.145 3.212 2.184 7.324 3.871 12.873 3.463 2.421-.18 4.444-.982 6.388-1.854 3.649-1.635 6.411-4.572 8.339-8.096.98-1.791 1.645-3.898 1.999-6.193.379-2.455.051-5.059-.585-7.363-1.127-4.082-3.526-7.576-6.583-9.85-2.925-2.176-7.318-4.301-12.533-3.998-3.01.174-5.339.861-7.509 1.852-2.099.959-4.026 2.346-5.364 4.049-1.385 1.425-2.515 3.026-3.315 4.874z"/><path d="m19.634 27.28c.267.633.166 1.967.049 2.682-1.448.24-3.146.147-4.876.147-1.695 0-3.493-.117-4.974.146-.162 1.5-.162 3.668 0 5.168.527.32 1.264.146 1.951.146 2.029 0 4.488-.078 6.388.098.223.707.202 2.057.049 2.828-2.433.42-5.906-.129-8.387.293-.154 1.654-.197 3.529 0 5.121.717.258 1.565.145 2.389.145 2.384 0 5.142-.078 7.412.098.257.598.185 1.961.049 2.635-4.178.166-8.521.17-12.679 0-.256-.729-.146-1.551-.146-2.342-.001-4.881 0-9.689 0-14.824 0-.686-.098-2.115.146-2.34.036-.047.089-.074.147-.098 4.146.077 8.44-.126 12.482.097z"/></g></svg>