<svg enable-background="new 0 0 11.916 11.87" viewBox="0 0 11.916 11.87" xmlns="http://www.w3.org/2000/svg"><path d="m.001.01c1.977-.001 3.953.012 5.93-.01-.006 1.698.775 3.385 2.081 4.471 1.012.888 2.349 1.383 3.692 1.413.072.002.152-.017.212.034-.576.014-1.152.087-1.707.244-.572.173-1.118.432-1.618.76-.288.221-.588.429-.838.694-1.133 1.097-1.804 2.665-1.787 4.244-1.979 0-3.958.001-5.937.009-.002-.678.111-1.358.329-2.001.308-.885.84-1.684 1.511-2.335.85-.8 1.931-1.363 3.089-1.546.15-.041.309-.01.458-.057-.08-.046-.174-.02-.26-.034-.54-.067-1.067-.22-1.572-.42-.632-.283-1.226-.66-1.728-1.139-.651-.599-1.148-1.358-1.47-2.18-.057-.181-.14-.356-.172-.545-.144-.52-.222-1.061-.213-1.602z"/></svg>