<svg enable-background="new 0 0 80.876 63.772" viewBox="0 0 80.876 63.772" xmlns="http://www.w3.org/2000/svg"><path clip-rule="evenodd" d="m64.1.127c.453 5.057-.142 10.348.094 15.449.119 2.533-.027 5.08.049 7.629.076 2.578.021 5.172-.096 7.725-13.975.121-28.604.144-42.793.142-4.637 0-9.256.033-13.791-.142-.141-4.674-.19-9.815 0-14.311 16.869-.277 34.495-.01 51.608-.191.312-.406.222-1.586.095-2.131-1.082-.258-2.215-.143-3.317-.143-16.586 0-34.161-.041-50.897.047-.309.705-.129 1.502-.142 2.275-.083 5.17-.039 11.766.047 17.012.567.223 1.209.166 1.801.189 1.894.076 3.902.049 5.876 0 2.554-.061 5.156 0 7.725 0 13.864 0 28.334-.119 42.319 0 1.225.012 2.501.131 3.696-.189.267-5.359-.058-11.295.142-16.49.508.094.715.818.996 1.279 4.147 6.803 8.301 13.723 12.511 20.616.247.404.841 1.125.853 1.469.012.311-.559 1.141-.805 1.562-2.021 3.459-4.148 6.855-6.256 10.236-2.14 3.432-4.148 6.84-6.256 10.285-.279.457-.428 1.1-.995 1.326-.173-3.77-.095-7.967-.095-11.943 0-1.309.113-2.631-.143-3.838-1.293-.246-2.654-.143-3.98-.143-20.863-.002-41.792.156-62.223-.094-.142-16.039-.187-32.09 0-47.627 2.85-.211 6.224-.096 9.335-.096 18.256.003 36.521-.116 54.642.097z" fill-rule="evenodd"/></svg>