<svg enable-background="new 0 0 82.124 54.406" viewBox="0 0 82.124 54.406" xmlns="http://www.w3.org/2000/svg"><path clip-rule="evenodd" d="m48.756.184c.057.543-.565.826-.896 1.146-1.107 1.5-2.489 2.807-3.834 4.084-2.695 2.557-5.338 5.193-8.019 7.818-.671.656-1.381 1.256-2.042 1.941-.638.662-1.409 1.254-1.843 2.092.453.269 1.033.15 1.544.15 3.698-.002 7.861.104 11.703.049 1.694-1.226 2.734-3.109 4.383-4.383 3.849-3.711 7.663-7.531 11.554-11.453.425-.43 1.286-1.4 1.743-1.545.571-.18 1.496-.018 2.291 0 5.573.135 11.147-.221 16.186.1-.087.543-.581.861-.946 1.195-1.07.984-2.08 2.125-3.088 3.238-2.922 2.721-5.671 5.617-8.565 8.365-.715.697-1.436 1.387-2.142 2.092-.701.701-1.446 1.391-1.992 2.242.59.291 1.328.211 1.992.199 3.315-.061 7.21-.051 10.707-.051 1.425 0 2.841-.043 4.134.199-.166.514-.642.859-.996 1.246-.359.393-.774.721-1.146 1.096-4.814 4.875-9.507 9.707-14.442 14.641-.357.357-1.025.787-1.046 1.146-.025.418.671.971.996 1.295 2.68 2.68 5.392 5.314 8.068 7.918 2.308 2.273 4.688 4.477 6.873 6.873.452.31.811.715 1.195 1.096.356.352.899.66.996 1.244-4.008.139-8.972.102-13.546.102-1.505 0-3.293.25-4.482-.102-.887-.262-1.682-1.713-2.44-2.191-4.141-3.883-7.994-8.053-12.152-11.951-1.381-1.295-2.434-2.91-3.984-4.035-3.535.014-6.828-.049-10.209-.049-1.115 0-2.259-.121-3.287.148.384.803 1.167 1.416 1.793 2.043 1.878 1.879 3.816 3.768 5.727 5.678 2.212 2.211 4.425 4.449 6.673 6.674.319.314.718.576.996.896.198.227.308.518.498.746.281.338.665.637.996.947.312.291.805.58.847 1.094-1.69.125-3.522.119-5.378.102-5.332-.057-10.974-.053-16.634-.051-1.349-.959-2.396-2.219-3.586-3.336-1.23-1.061-2.301-2.281-3.486-3.387-4.589-4.859-9.689-9.221-14.144-14.244-1.478-1.666-3.2-3.117-4.731-4.731-.51-.635-1.205-1.086-1.595-1.842 8.795-9.017 17.73-17.894 26.793-26.644 7.139-.043 14.851-.17 21.963.1z" fill-rule="evenodd"/></svg>