<svg enable-background="new 0 0 59.379 76.379" viewBox="0 0 59.379 76.379" xmlns="http://www.w3.org/2000/svg"><g clip-rule="evenodd" fill-rule="evenodd"><path d="m59.243.217c.285 6.896-.056 14.447.095 21.24.022.98.102 2.062-.047 2.904-.113.642-1.135 1.516-1.667 2.047-3.075 3.076-5.979 5.932-9 8.953-1.185 1.186-2.456 2.346-3.476 3.715-.119 6.437-2.656 10.455-6.714 12.953-2.009 1.078-4.671 2.062-8.048 1.715-2.236-.231-4.048-.754-5.81-1.572-.567-.264-1.331-.484-1.429-1-.1-.527.932-1.408 1.381-1.857 8.207-8.207 16.623-16.799 24.715-24.906.208-.629 1.543-1.15 1.572-1.951.016-.44-.505-1.01-.81-1.381-.36-.439-.713-.791-1.048-1.143-1.773-1.947-3.855-3.807-6.286-5.191-.812-.463-1.595-1.008-2.429-1.381-3.499-1.565-7.785-2.598-12.858-2.285-4.645.283-8.407 1.742-11.667 3.57-3.273 1.836-5.965 4.412-8.047 7.191-.68.764-1.097 1.791-1.858 2.477-1.754.055-3.941.131-5.619-.049-.281-6.719-.096-14.127-.096-21.238.001-.996-.117-2.012.143-2.953 4.65-.133 10.121-.047 15-.047 13.735 0 26.634.049 40.525.047 1.154-.001 2.343-.179 3.478.142z"/><path d="m25.814 21.885c2.832-.295 5.783.438 7.81 1.285.446.188 1.285.492 1.333.906.049.426-.672 1.025-1.048 1.381-1.228 1.16-2.485 2.58-3.572 3.666-4.062 4.062-8.014 7.908-12.048 12.096-.367.381-.812.887-1.19 1.238-.3.279-.864 1.102-1.334 1.047-.396-.045-.804-1.125-.905-1.381-.658-1.666-1.101-3.318-1.238-5.477-.388-6.107 2.04-9.846 5.524-12.381 1.802-1.31 4.045-2.107 6.668-2.38z"/><path d="m3.718 47.361c.491.418.67 1.086.905 1.619 2.742 6.244 7.409 10.916 13.619 13.859 2.291 1.084 4.947 1.857 7.81 2.189 6.562.762 12.039-.859 16.191-3.334 3.164-1.883 5.845-4.119 8.095-6.904.742-.918 1.199-2.016 2.048-2.904 1.071-.088 2.285-.049 3.476-.049 1.168 0 2.379-.113 3.333.143.141 6.861.161 14.5.048 21.525-.016.941.175 1.887-.096 2.762-14.429.219-29.768.047-44.287.047-4.979 0-10.003.109-14.763-.143-.219-8.484.008-16.331-.046-25.191.387-.654 1.113-1.1 1.714-1.762.58-.636 1.189-1.62 1.953-1.857z"/></g></svg>