<svg enable-background="new 0 0 61.435 75.978" viewBox="0 0 61.435 75.978" xmlns="http://www.w3.org/2000/svg"><g clip-rule="evenodd" fill-rule="evenodd"><path d="m30.51 32.723c-.69-.244-.385-1.282-.376-1.97.016-1.071-.108-2.316-.047-3.33-.375-.74-1.13-1.144-1.688-1.735-1.085-1.146-2.012-2.426-2.86-3.939-.752-1.34-1.169-2.82-1.501-4.595-.139-.744-.278-1.536-.328-2.345-.43-6.927 2.712-11.744 6.566-14.723.535-.369 1.428.537 1.922 1.032 3.301 3.3 5.856 7.565 5.393 14.49-.13 1.939-.767 3.854-1.5 5.346-.767 1.559-1.677 2.967-2.72 4.08-.634.867-1.592 1.409-2.157 2.345-.098.723-.047 1.575-.047 2.767-.001.857.349 2.707-.657 2.577z"/><path d="m30.604 36.006c.417-.415.539-1.089.797-1.688.737-1.718 1.789-3.097 3.188-4.22 1.876-1.505 3.949-2.532 7.315-2.532 6.173 0 13.025.063 19.413.188.155 3.832.157 8.313 0 12.145-5.037.229-11.196.047-16.787.047-1.935 0-4.237-.282-5.767.141-1.57.433-2.981 1.924-3.423 3.47-.514 1.791-.082 4.354-.094 6.565 1.015.22 2.08.141 3.142.141 7.366-.001 15.542-.02 22.93.188.13 3.6.175 8.165 0 11.911-1.027.253-2.114.141-3.188.141-7.649.001-15.295-.181-22.789-.047-.335.954-.188 2.126-.188 3.236-.001 3.298.078 6.963-.094 10.128-2.687.261-6.12.164-8.722 0-.275-4.183.09-8.991-.188-13.271-.475-.246-1.036-.141-1.548-.141-8.137-.001-16.437-.058-24.431-.188-.376-1.882.002-4.032-.094-6.049-.095-2.006-.128-4.062.094-5.908 8.288-.306 17.53.077 25.932-.143.254-.875.141-1.893.141-2.907 0-1.009.084-2.06-.047-2.955-.256-1.749-1.316-2.81-2.345-3.657-1.283-.932-3.991-.703-6.142-.704-2.976 0-5.696 0-8.769-.047-2.871-.044-5.985.032-8.769-.141-.269-1.927-.113-4.093-.141-6.143-.02-1.498.047-3.003.047-4.642 0-.471-.138-1.033.187-1.407 5.435-.062 11.72-.055 16.975 0 1.553.016 2.951-.088 4.221.047 1.163.123 2.257.548 3.189 1.079 1.84 1.048 3.382 2.183 4.454 4.033.378.45.557 1.059.797 1.641.239.579.368 1.204.704 1.689z"/></g></svg>