<svg enable-background="new 0 0 78.584 51.433" viewBox="0 0 78.584 51.433" xmlns="http://www.w3.org/2000/svg"><g clip-rule="evenodd" fill-rule="evenodd"><path d="m30.491.158c.257 2.036.15 4.138.149 6.248 0 15.047.122 29.876-.05 44.837-1.787.166-4.261.166-6.048 0-.289-.677.111-2.044-.25-2.649-.688.127-1.189.627-1.749.95-1.646.947-3.702 1.559-6.199 1.75-3.166.242-6.308-.697-8.497-2-4.08-2.428-7.848-6.907-7.847-13.397 0-3.23 1.029-5.946 2.449-8.198 1.4-2.222 3.157-4.071 5.349-5.248 2.332-1.254 5.274-2.191 8.598-1.95 1.661.12 3.061.458 4.349.95 1.256.48 2.302 1.206 3.499 1.799.373-.857.126-1.807.149-2.749.15-6.072 0-12.905 0-19.245 0-.398-.121-.917.25-1.2 1.907-.053 4.018-.13 5.848.102z"/><path d="m32.19 51.293c-.268-1.006-.15-2.059-.15-3.099 0-15.92-.056-32.439.051-47.936.302-.206.979-.183 1.35-.2 1.45-.068 2.923 0 4.398 0 4.405.001 9.024.05 13.396.05 3.046 0 5.945-.007 8.298.7 2.371.712 4.328 1.529 6.298 2.649 5.618 3.196 9.766 8.267 11.796 15.146.707 2.394 1.009 5.03.95 7.998-.11 5.546-1.907 10.157-4.299 13.646-3.567 5.205-8.781 9.406-16.095 10.847-2.541.5-5.619.3-8.648.3-5.999-.001-11.899-.008-17.345-.101zm6.449-29.691c-.931 3.12-.64 6.885.45 9.747.974 2.559 2.82 4.845 4.948 6.448 2.265 1.707 4.948 2.846 8.397 3.049 3.549.209 6.466-.933 8.848-2.449 2.368-1.509 4.106-3.778 5.249-6.198 1.252-2.655 1.781-6.326.999-9.697-.522-2.254-1.481-4.235-2.699-5.849-.427-.565-.798-1.189-1.249-1.649-1.201-1.224-2.856-2.33-4.649-3.099-1.797-.77-4.026-1.364-6.598-1.2-4.085.261-6.99 1.76-9.348 3.849-2.091 1.896-3.472 4.111-4.348 7.048z"/></g></svg>