<svg enable-background="new 0 0 80.524 73.848" viewBox="0 0 80.524 73.848" xmlns="http://www.w3.org/2000/svg"><g clip-rule="evenodd" fill-rule="evenodd"><path d="m69.358 9.798c5.044 4.313 8.764 10.58 10.424 18.542 1.112 5.339.916 12.42-.201 17.49-1.721 7.815-5.671 13.622-10.774 18.141-5.149 4.504-11.679 7.756-19.845 9.171-4.065.705-8.871.903-13.381.501-13.208-1.175-22.54-6.442-28.765-14.633-.664-.873-1.339-1.853-1.955-2.857-1.841-3.002-3.082-6.588-3.959-10.524-.59-2.648-.902-5.408-.902-8.72 0-4.817.685-8.887 2.005-12.478.867-2.359 1.748-4.585 3.006-6.666 1.801-2.976 4.105-5.582 6.615-7.818 5.08-4.465 11.647-7.792 19.795-9.171 1.362-.23 2.751-.5 4.209-.601 4.489-.312 9.862-.236 13.932.451 8.193 1.384 14.898 4.827 19.796 9.172zm-64.547 15.134c-.691 1.9-1.422 4.053-1.554 6.264-.298 5.016-.631 10.123.451 14.484 1.04 4.188 2.614 7.668 4.911 10.774 6.618 8.95 16.931 14.53 32.424 14.533 5.096.001 9.449-.856 13.531-2.155 7.716-2.455 13.975-7.104 17.991-13.28 2.011-3.093 3.705-6.736 4.46-11.176.747-4.393.908-9.695.1-14.483-1.856-11.003-8.067-18.095-16.537-22.601-4.158-2.212-9.445-3.813-15.084-4.46-2.643-.304-5.378-.275-8.068-.05-9.645.805-17.168 3.691-22.852 8.469-4.336 3.496-7.685 7.941-9.773 13.681z"/><path d="m43.148 4.385c.371.208.48 1.094.201 1.503-.597.506-2.146.059-2.857.451-.276.548-.236 1.565-.25 2.506-.01.693-.174 2.153.25 2.505.401.332 1.27.15 1.905.15.716 0 1.417.065 1.854-.15.482-.554-.096-2.167.451-2.656.561-.235 1.427-.172 1.654.201.312.515.051 1.769.05 2.556-.002 1.283.23 1.964-1.203 2.055-.254.016-.75-.049-1.153-.05-2.099-.008-4.627.05-7.116.05-.779 0-1.903.088-2.205-.15-.411-.325-.291-1.443.05-1.654.708-.438 2.174.182 2.856-.351.319-.54.201-1.502.201-2.456 0-.727.191-2.087-.15-2.505-.559-.686-1.998.021-2.856-.251-.343-.183-.359-.875-.25-1.353.211-.322.47-.449.902-.501 2.111-.255 5.59.115 7.666.1z"/><path d="m34.479 28.991c-.478.282-1.784.349-2.105-.05-.263-.326-.132-1.668-.1-2.456.039-.99 0-1.977 0-2.656 0-4.958-.163-9.659-3.709-11.075-.999-.399-2.706-.452-3.959.05-1.37.549-2.102 1.601-3.207 2.605-.665-.152-1.982-.014-2.205-.601-.291-.766 1.214-2.281 1.654-2.706 1.144-1.108 3.1-2.115 5.112-2.305 2.988-.283 4.661 1.096 6.164 2.305 2.98 2.775 2.556 8.503 2.556 14.032-.001.985.084 1.992-.201 2.857z"/><path d="m62.242 15.16c-.273.629-1.56.244-2.355.351-1.154-1.06-2.071-2.318-3.708-2.756-1.254-.336-2.943-.239-4.009.25-2.086.957-3.198 3.685-3.308 6.615-.086 2.319-.018 4.734-.15 7.216-.036.676.151 1.775-.201 2.155-.253.274-1.595.461-1.955.05-.246-.281-.15-1.291-.15-1.854 0-4.765-.517-9.635 1.103-12.93 1.094-2.225 3.516-4.267 6.715-4.31 3.605-.047 5.896 1.589 7.417 3.759.271.388.702.867.601 1.454z"/><path d="m24.005 29.843c.242.585.461 1.834.05 2.255-.418.429-2.192.2-2.957.2-5.854 0-9.996-2.242-10.373-7.517-.182-2.544.814-4.642 2.105-6.114 1.262-1.44 3.37-2.799 5.512-2.957 2.901-.213 5.545.836 6.966 2.456.439.5.876 1.16 1.303 2.155.331.773.922 2.21.351 2.706-.48.417-1.553-.031-2.104-.15-.554-.499-.574-1.149-.852-1.754-.607-1.32-1.742-2.211-3.107-2.556-3.475-.876-7.047 1.45-7.417 4.761-.191 1.705.318 3.544 1.253 4.41 1.137 1.042 2.877 1.734 4.961 1.905 1.389.113 2.901-.116 4.309.2z"/><path d="m56.729 32.299c-.244-.521-.352-1.909.05-2.305.307-.302 1.304-.201 1.854-.201.762 0 1.404.09 2.005.05 3.733-.244 7.012-2.054 6.865-6.014-.078-2.115-1.388-3.313-2.656-4.46-1.763-1.088-4.143-1.066-5.863-.251-.928.44-1.692 1.285-2.155 2.105-.313.555-.338 1.214-.802 1.554-.484.355-1.578.519-2.155.251-.385-.666.033-1.4.251-2.005.629-1.751 1.911-3.453 3.508-4.209 1.008-.478 2.858-.892 4.16-.902.017 0 .034-.002.05 0 1.562.129 3.412.509 4.51 1.203 1.201.758 2.551 2.319 3.207 3.809.896 2.034.92 4.973-.15 6.866-.804 1.42-2.435 3.018-3.959 3.708-1.659.751-4.018 1.003-6.464 1.002-.731-.001-1.564.126-2.256-.201z"/><path d="m31.572 24.08c.245.547.258 1.557 0 2.105-.73.391-1.775.278-2.756.251-3.538-.099-6.283-.357-8.319-2.055-1.369-1.141-2.53-2.768-2.656-4.911.314-.767 2.03-.832 2.606-.301.342.316.389 1.018.601 1.453 1.3 2.669 4.744 3.247 8.62 3.258.619.001 1.315-.226 1.904.2z"/><path d="m62.793 19.319c.201.802-.078 1.592-.351 2.205-1.816 4.083-6.752 5.237-12.729 4.811-.458-.38-.544-2.004 0-2.355 3.935-.124 7.849-.27 9.672-2.506.601-.581.548-2.21 1.553-2.405.55-.107 1.417-.017 1.855.25z"/><path d="m41.495 20.923c.441.314.341 1.521.201 2.105-.279.486-1.687.464-2.155.15-.241-.427-.246-1.302-.15-1.904.213-.595 1.446-.509 2.104-.351z"/><path d="m45.554 24.281c.035.417.191 1.568-.15 1.904-.336.331-1.594.18-2.305.15-1.759-.074-3.243 0-5.012 0-.784 0-1.938.195-2.355-.05-.557-.327-.4-1.781-.05-2.155 1.89-.305 4.357-.171 6.515-.25 1.164-.043 2.589-.177 3.357.401z"/><path d="m25.208 34.855c-.437-.501-.251-1.45-.251-2.356 0-.828.01-1.746 0-2.556-.012-.944-.406-2.748.251-3.107.037-.047.091-.076.15-.1.668.017 1.799-.056 2.004.551.183.541.05 1.394.05 2.356 0 .841.05 1.797.05 2.505 0 .798.023 2.386-.301 2.656-.373.314-1.549.145-1.953.051z"/><path d="m55.727 27.037c.287.733.15 2.227.15 3.809v2.055c0 .889.114 1.811-.301 2.104-.465.331-1.503.121-1.954-.2-.26-1.335-.15-3.836-.15-5.713 0-.682-.1-1.474.1-1.804.335-.552 1.54-.44 2.155-.251z"/><path d="m41.595 27.187c.173 1.678.05 3.787.05 5.763 0 .608.105 1.266-.15 1.805-.387.311-1.559.274-1.954 0-.314-1.11-.089-2.468-.15-3.759-.06-1.269-.047-2.577.1-3.708.342-.42 1.679-.509 2.104-.101z"/><path d="m9.973 29.092c.199.45.255 1.136 0 1.453-.445.555-1.549.006-2.155.401-.369.408-.183 1.308-.2 2.205-.017.86-.243 1.852.05 2.305.256.396 1.07.379 1.353 0 .523-.701-.318-2.361.351-3.057.421-.281 1.17-.283 1.453 0 .611.611-.059 2.328.351 3.107.26.282 1.113.249 1.503.1.689-.644-.055-2.509.451-3.257.24-.243 1.314-.329 1.604.05.234.307.15 1.459.15 2.205 0 1.422-.002 3.17 0 4.46.002.626.035 2.07-.2 2.355-.305.369-1.296.28-1.554 0-.613-.755.227-2.29-.351-2.957-.377-.436-1.97-.201-2.606-.2-.866 0-2.203-.23-2.506.2-.56.797.353 2.466-.351 3.007-.246.189-1.195.237-1.504 0-.434-.335-.25-1.79-.25-2.556 0-2.878.093-5.669.1-8.369.002-.524-.179-1.204.2-1.554.777-.196 2.102-.209 3.107-.2.407.004.786.107 1.004.302z"/><path d="m38.288 32.249c-2.446.189-5.634.194-8.219.2-.629.001-1.314-.041-1.804-.301-.229-.657-.395-2.215.451-2.405.688-.155 1.683.05 2.605.05 1.604 0 2.989.036 4.611.05.829.007 2.166-.195 2.505.15.437.444.228 1.989-.149 2.256z"/><path d="m52.62 29.993c.442.483.526 1.889.05 2.255-.375.288-1.575.15-2.506.15-1.8 0-3.341.044-5.212 0-.684-.017-2.065.045-2.355-.251-.51-.52-.205-2.157.451-2.305.956-.215 2.262-.003 3.208 0 2.08.008 4.284.015 6.364.151z"/><path d="m70.812 43.124c-.232-.405-.225-1.498 0-1.905.538-.601 1.762.107 2.355-.451.465-.437.312-2.236-.05-2.707-.633-.139-1.428-.05-2.355-.05-.695 0-1.96-.187-2.355.15-.742.631.268 2.579-.602 3.107-.342.164-.955.117-1.253-.05-.513-.702-.448-2.448-.451-3.959-.002-.813.059-1.56.05-2.455-.009-.819-.122-1.921.301-2.255.374-.296 1.161-.2 1.554.05.533.674-.12 1.921.3 2.656.356.622 2.143.341 3.107.301.69-.029 1.577.125 1.854-.301.142-.615.132-1.796-.15-2.306-.719-.44-1.709.044-2.205-.351-.395-.314-.503-1.876.451-2.055.554-.104 1.203.015 1.955.05.48.023 1.474-.125 1.804.2.431.424.15 2.46.15 3.408 0 2.275-.05 4.014-.05 6.365 0 .674.174 2.325-.201 2.656-.322.286-1.483.15-2.155.15-.863.002-1.662.101-2.054-.248z"/><path d="m34.529 33.251c.293.989.055 3.303.05 4.911-.002.717.233 1.866-.101 2.306-.383.505-1.429.294-2.055.1-.419-.893-.25-2.241-.25-3.508 0-1.256-.068-2.57.101-3.608.169-.669 1.812-.552 2.255-.201z"/><path d="m46.506 40.618c-.386-.762-.2-2.172-.2-3.859 0-1.003-.331-3.586.602-3.759.475-.088 1.28-.045 1.553.301.396.5.117 2.557.101 3.357-.03 1.396.233 3.039-.251 4.009-.435.311-1.396.227-1.805-.049z"/><path d="m45.253 37.911c-.679.278-1.684.101-2.707.101-1.313 0-2.58.003-3.858 0-1.065-.003-2.625.282-3.057-.15-.444-.444-.243-1.838.15-2.205 2.292-.076 4.851-.202 7.267-.1.802.033 1.706-.195 2.305.3.209.544.23 1.627-.1 2.054z"/><path d="m22.101 37.911c-.444-.732-.376-2.185.501-2.355 1.137-.222 2.498.063 3.759.05.952-.01 1.659-.042 2.556 0 .832.039 2.131-.146 2.506.15.467.369.289 1.948-.05 2.205-.382.29-1.954.141-2.807.1-.981-.047-1.965-.039-2.906 0-1.181.051-2.526.067-3.559-.15z"/><path d="m58.634 35.907c.145.622.244 1.622-.1 2.055-.427.313-.985.175-1.554.15-1.717-.076-3.838-.055-5.462-.05-.584.002-1.617.285-2.004-.2-.465-.582-.151-2.121.551-2.205 1.68-.202 4.618 0 6.615 0 .735 0 1.484-.128 1.954.25z"/><path d="m41.445 38.764c.354 1.233.114 2.833.15 4.31.026 1.036.128 2.357-.15 3.307-.408.294-1.492.275-1.904 0-.405-.86-.226-2.769-.251-4.31-.021-1.308-.306-3.314.602-3.508.445-.095 1.167-.019 1.553.201z"/><path d="m27.212 46.481c-.455.342-1.4.421-2.105.351-.459-.356-.276-1.118-.25-1.704.083-1.894-.086-4.173.05-6.014.256-.619 1.427-.569 2.105-.351.226.207.364.433.401.952.067.956-.006 2.369 0 3.458.006 1.239.096 2.441-.201 3.308z"/><path d="m55.577 38.814c.426 1.038.251 2.581.251 4.009 0 1.4.108 2.917-.251 3.909-.452.289-1.543.266-2.004 0-.397-.912-.148-2.313-.2-3.708-.023-.601-.03-1.243 0-1.955.029-.706-.121-1.604.05-2.004.28-.66 1.536-.421 2.154-.251z"/><path d="m24.005 43.875c-.565.355-1.192.153-1.804.15-3.751-.018-7.064.578-8.369 3.057-.76 1.443-.807 3.364 0 5.011.381.777.959 1.255 1.503 1.954 1.227 1.228 4.47 1.802 6.415.852.912-.445 1.605-1.136 2.055-1.955.393-.715.466-1.677 1.053-2.105.525-.383 1.759-.474 2.205-.05-.045 1.304-.389 2.359-.902 3.308-1.335 2.466-3.888 4.033-7.316 3.959-2.241-.048-4.457-1.15-5.763-2.405-1.725-1.656-2.805-3.808-2.506-7.016.104-1.115.581-2.295 1.052-3.107.713-1.227 1.945-2.216 3.257-2.907 1.423-.749 3.24-1.177 5.162-1.203.535-.007 1.253.086 2.055.05.621-.028 1.554-.207 1.904.1.455.402.205 1.708-.001 2.307z"/><path d="m53.472 50.691c.529-.395 1.922-.244 2.356.15.495.45.55 1.453.851 2.055.594 1.182 1.844 2.361 3.258 2.756 2.23.624 4.494-.288 5.663-1.503 1.382-1.437 2.216-4.347 1.203-6.415-1.103-2.251-3.08-3.347-6.314-3.508-.644-.032-1.313-.117-2.005-.15-.619-.029-1.307.135-1.904-.2-.235-.469-.23-1.685 0-2.155.49-.423 1.341-.182 2.255-.15 2.686.093 5.131.207 6.866 1.103 1.854.958 3.661 3.524 4.059 5.963.467 2.859-.6 5.611-2.405 7.417-1.018 1.018-2.55 1.973-4.009 2.255-1.102.212-2.641.219-3.959-.05-2.673-.547-4.559-2.456-5.462-4.911-.284-.769-.634-1.65-.453-2.657z"/><path d="m38.388 43.775c-.588.402-1.579.241-2.556.251-1.285.012-2.643.048-3.809.05-.99.002-3.403.218-3.809-.301-.352-.45-.306-2.154.401-2.255 2.203.04 4.826 0 7.367 0 .8 0 1.929-.149 2.306.15.506.404.234 1.544.1 2.105z"/><path d="m52.57 41.67c.273.367.45 1.816 0 2.205-.27.233-1.594.203-2.205.2-1.297-.005-3.776 0-5.412 0-.622 0-2.194-.027-2.456-.301-.463-.484-.229-1.878.15-2.205 1.789-.079 3.919 0 5.963 0 1.412.001 2.827-.161 3.96.101z"/><path d="m18.542 58.759c.535-.431 1.646-.123 2.456-.351.669.3 1.01.927 1.503 1.403 1.357 1.077 3.349 1.877 5.562 1.102 1.274-.445 2.227-1.398 2.857-2.255 1.212-2.208 1.253-6.253 1.253-9.923 0-1.365-.274-3.111.201-3.708.363-.457 1.726-.494 2.055-.05.289.39.12 1.629.1 2.355-.073 2.614-.017 5.006-.15 7.417-.267 4.823-2.337 8.273-6.615 9.021-2.917.51-5.729-.615-7.467-2.205-.39-.357-.757-.821-1.103-1.253-.325-.405-.807-.899-.652-1.553z"/><path d="m48.36 44.827c.365.688.15 1.495.15 2.255 0 2.388.013 4.955.15 7.216.111 1.833.496 3.64 1.303 4.861 1.113 1.683 3.962 2.988 6.515 1.804.438-.203 1.129-.635 1.553-1.002.4-.346.846-1.071 1.354-1.152.394-.063 1.964.109 2.104.451.236.576-.691 1.376-.952 1.654-.49.522-.994 1.009-1.403 1.303-1.107.72-2.212 1.427-3.708 1.654-3.387.514-5.902-.921-7.267-2.756-2.461-3.309-1.892-8.774-2.005-14.483-.013-.643-.244-1.425.301-1.904.552-.061 1.5-.147 1.905.099z"/><path d="m31.321 47.283c.388.445.518 1.962 0 2.355-.299.228-1.129.2-1.604.2-2.239 0-4.647-.08-6.314.752-.776.387-1.178.811-1.804 1.353-.221.397-.503.828-.752 1.403-.201.463-.368 1.166-.752 1.353-.642.312-2.136.152-2.355-.351-.318-.731.491-2.282.751-2.756.812-1.48 2.012-2.416 3.658-3.307 2.436-1.318 6.042-1.067 9.172-1.002z"/><path d="m45.253 49.588c-.67.348-1.526.155-2.356.15-.815-.004-1.66-.05-2.506-.05-1.721 0-3.493.211-4.961-.1-.362-.45-.376-1.778.1-2.104 1.88-.195 4.499-.107 6.464-.101 1.021.003 2.777-.28 3.258.201.418.416.23 1.527.001 2.004z"/><path d="m62.442 54.9c-.545.399-1.612.497-2.105.101-.347-.279-.377-1.062-.551-1.654-.816-2.775-3.457-3.509-7.116-3.508-1.033 0-2.181.12-3.257-.15-.309-.361-.244-1.453-.101-1.954.27-.299.695-.388 1.153-.401 4.175-.123 7.887.242 10.023 2.356.58.574 1.292 1.55 1.654 2.455.303.757.576 1.78.3 2.755z"/><path d="m41.395 50.691c.149.65.169 1.86 0 2.506-.359.407-1.403.225-1.955.1-.403-.497-.283-1.886-.2-2.556.36-.442 1.762-.51 2.155-.05z"/></g></svg>