<svg enable-background="new 0 0 150.938 183.617" viewBox="0 0 150.938 183.617" xmlns="http://www.w3.org/2000/svg"><path clip-rule="evenodd" d="m113.005 0c.352.427.205 1.043.205 1.533-.001 17.194.095 34.409.051 51.964-1.896 2.531-4.591 4.324-6.54 6.796-.947 1.201-2.201 2.252-3.321 3.372-5.524 5.524-11.085 11.11-16.657 16.657-7.175 7.212-14.387 14.491-21.613 21.715-1.096 1.096-2.144 2.246-3.27 3.372-.276.276-.542.572-.817.869-.227.245-.659.509-.613.92 1.576.202 3.704.101 5.365.051 4.004-3.873 7.945-7.844 11.905-11.803 7.873-7.872 15.706-15.81 23.606-23.708 3.696-3.696 7.369-7.42 11.087-11.139.174-.174.46-.623.818-.409.211 15.397-.122 31.221.153 47.008.045.022.091.044.102.102 11.691.122 22.913.104 35.154.103.717 0 1.514-.122 2.196.153.189 9.162.103 18.648.103 28.103 0 3.101.105 6.232-.153 9.145-.045.023-.091.045-.101.102-12.188.04-24.928-.072-37.198.052-.312.678-.266 1.498-.255 2.247.156 11.605-.005 24.644-.153 36.329-12.598.126-25.514.108-38.372-.051-.194-3.146-.102-6.423-.103-9.708 0-9.708.117-19.621-.051-28.817-5.821-.265-12.11-.155-18.292-.154-6.197.001-12.423-.043-18.446.052-.022.045-.045.092-.102.103-.27 6.126-.153 12.639-.153 19.109 0 6.494.013 12.989-.102 19.263-.045.022-.091.045-.102.102-12.334.182-25.023.027-37.248-.152-.153-21.379-.051-43.318-.051-65.3 0-1.634-.112-3.554.153-4.753 18.79-18.834 37.564-37.679 56.358-56.511 9.396-9.425 18.743-18.897 28.154-28.307 9.402-9.4 18.719-18.886 28.103-28.307.029-.069.105-.096.2-.103zm-12.723 30.81c-28.416 28.291-56.606 56.83-84.972 85.176-.548 1.036-2.281 1.751-2.606 2.912-.265.946-.051 2.27-.051 3.373v45.219c0 1.03-.222 2.113.102 3.117.066.003.071.065.153.051 3.684.184 8.143.132 11.752.051.051.001.061-.041.102-.051.228-7.153.049-15.061.103-22.073.059-.009.055-.081.051-.153 4.576-4.785 9.398-9.398 14.102-14.102 4.395-4.395 8.83-8.882 13.183-13.234.254-.254.755-.504.715-.971-7.525-.306-15.726.101-23.198-.204.098-.547.631-.86.971-1.227.368-.396.75-.751 1.124-1.124 2.978-2.978 5.92-6.034 8.891-8.941 2.27-2.222 4.465-4.465 6.693-6.694 2.966-2.966 5.801-6.1 8.891-8.941 3.087-2.837 6.035-5.88 8.891-8.941 2.87-3.076 5.95-5.938 8.891-8.942s5.918-5.969 8.891-8.941c5.186-5.187 10.574-10.306 15.584-15.584.723-.761 1.629-1.404 2.146-2.35.022-2.705.145-5.95.051-8.942-.071-2.253.022-4.537 0-6.693-.007-.622.161-1.379-.256-1.891-.095.005-.17.032-.204.1zm-2.555 62.49c-2.465 2.707-5.177 5.279-7.664 7.767-6.862 6.862-13.72 13.722-20.54 20.541-2.991 2.99-5.943 6.147-8.891 9.095-.416.415-1.041.784-1.175 1.431 6.962.218 14.288.079 21.051.102 1.138.004 2.261.006 3.372 0 1.101-.006 2.225-.062 3.27.153.194 6.197.102 12.698.102 19.161.001 4.91-.031 9.847-.051 14.561-.007 1.576-.009 3.142.153 4.65.932.229 2.005.153 3.117.153 3.331 0 6.977.083 10.065-.103.268-.729.153-1.533.153-2.3.001-11.43.051-21.915.051-33.824 0-.769-.12-1.613.153-2.351 12.239-.128 25.059.174 37.351-.103.275-.907.153-1.96.153-2.963 0-2.071 0-4.017 0-6.029 0-1.035.124-2.084-.153-3.016-12.245-.338-24.764.082-37.402-.306-.185-8.281-.103-17.162-.102-25.65 0-1.205.124-2.427-.153-3.576-.034 0-.068 0-.103 0-.833.708-1.898 1.664-2.757 2.607z" fill-rule="evenodd"/></svg>