<svg enable-background="new 0 0 81.744 80.432" viewBox="0 0 81.744 80.432" xmlns="http://www.w3.org/2000/svg"><path clip-rule="evenodd" d="m38.773.047c8.263-.394 15.47 1.732 20.837 4.547 7.758 4.068 13.686 9.972 17.739 17.739 2.288 4.385 4.073 9.827 4.348 15.891.605 13.364-4.672 22.73-10.993 29.433-3.302 3.5-7.17 6.394-11.743 8.545-1.161.546-2.298 1.15-3.498 1.599-3.668 1.37-7.754 2.209-12.593 2.549-6.305.441-12.477-.925-17.289-2.799-4.931-1.92-8.913-4.705-12.443-7.846-3.618-3.219-6.41-7.023-8.794-11.492-2.365-4.433-4.007-9.703-4.297-15.94-.301-6.458.89-12.462 2.898-17.19 4.023-9.473 10.506-16.448 19.538-20.989 2.231-1.121 4.651-1.959 7.445-2.698 2.654-.701 5.838-1.205 8.845-1.349zm0 7.995c-10.081.778-17.185 4.997-22.487 10.743-1.034 1.121-1.966 2.461-2.849 3.798-1.759 2.667-3.232 5.82-4.147 9.145-2.136 7.759-.838 16.493 2.049 22.236 2.975 5.918 7.147 10.573 12.742 13.842 2.353 1.472 5.183 2.453 8.045 3.348.972.305 2.015.627 3.098.5.212-3.355.15-6.975.15-10.644 0-1.854 0-3.733 0-5.597 0-1.838.187-3.742 0-5.496-.125-1.174-.695-2.383-1.249-3.349-1.73-3.014-4.597-4.69-8.645-5.297-.501-.333-.64-1.626-.25-2.148.333-.444 1.329-.45 1.999-.6 4.149-.93 7.657-4.138 8.295-8.495.152-1.037.035-2.09.05-3.148.016-1.104.051-2.185.1-3.248.1-2.15-.166-4.311 0-6.445.25-3.232 1.347-5.32 2.848-7.146.487-.593 1.186-1.027 1.549-1.799-.281-.343-.867-.233-1.298-.2zm6.346 63.961c3.466-.458 6.329-1.294 8.995-2.448 3.529-1.528 6.431-3.641 9.145-6.097 2.589-2.343 4.905-5.283 6.596-8.645 1.711-3.402 3.034-7.375 3.399-11.893.404-5.029-.349-9.62-1.749-13.392s-3.291-6.908-5.597-9.694c-2.318-2.802-4.959-5.173-8.195-7.046-.797-.461-1.525-.992-2.399-1.399-2.516-1.171-5.716-2.5-8.894-2.798-.373.736-.189 1.598-.2 2.398-.061 4.397-.05 9.002-.05 13.441 0 1.809-.14 3.656 0 5.447.216 2.773 1.913 5.025 3.497 6.346 1.269 1.058 2.921 2.124 4.898 2.499.729.138 1.558.129 1.849.649.227.406.275 1.522 0 1.898-.321.44-1.568.457-2.249.6-.882.186-1.585.488-2.148.7-1.228.671-2.337 1.46-3.198 2.498-1.146 1.382-2.317 2.979-2.599 5.247-.288 2.325-.1 5.039-.1 7.745 0 2.646.02 5.147-.45 7.296-.484 2.212-1.587 3.729-2.698 5.196-.357.544-1.214.85-1.249 1.55 1.142.269 2.334.043 3.396-.098z" fill-rule="evenodd"/></svg>