<svg enable-background="new 0 0 76.3 77.22" viewBox="0 0 76.3 77.22" xmlns="http://www.w3.org/2000/svg"><g clip-rule="evenodd" fill-rule="evenodd"><path d="m64.429 10.813c3.176 3.052 5.977 6.759 8.079 11.115 2.076 4.3 3.583 9.389 3.771 15.375.196 6.284-1.016 11.782-2.938 16.256-1.942 4.52-4.572 8.335-7.54 11.605-6.117 6-13.139 10.783-24.14 11.85-3.534.342-7.602.31-11.066-.49-3.19-.736-6.222-1.748-8.961-3.036-1.344-.632-2.566-1.431-3.819-2.204-1.224-.754-2.398-1.616-3.477-2.497-6.523-5.325-11.679-12.532-13.613-22.327-.697-3.531-.889-7.448-.588-11.115.589-7.163 2.963-13.084 6.073-17.873 3.064-4.719 7.186-8.834 12.143-11.801 1.254-.751 2.443-1.484 3.868-2.154 4.044-1.902 8.934-3.173 14.641-3.477 3.158-.168 6.149.203 8.813.784 2.636.574 5.169 1.3 7.296 2.301 1.057.497 2.113 1.078 3.183 1.616 3.2 1.609 5.714 3.8 8.275 6.072zm-28.449 21.398c-1.407.768-1.857 2.654-1.665 4.798.161 1.792.903 3.108 2.204 3.673 2.414 1.048 9.536 1.023 11.751-.049.49-.237 2.51-1.63 1.959-2.497-.23-.362-1.572-.245-2.252-.245-1.12 0-1.775-.142-2.498.049-.512.136-.931.754-1.518.93-1.097.33-2.753.161-3.477-.196-1.028-.506-1.509-2.405-.931-3.77.181-.423.616-.877 1.176-1.077.773-.277 2.359-.326 3.28-.049.512.154.779.722 1.567.881.664.135 1.446-.011 2.497 0 .579.006 2.017.217 2.252-.245.301-.59-.679-1.633-1.077-1.909-1.379-.957-5.467-1.394-7.639-1.224-2.031.159-4.312.212-5.629.93zm-24.874-.49c-2.061 0-4.629-.039-6.464.049-.427.78-.244 1.881-.244 2.889 0 2.035-.015 4.149.147 6.023 1.45.161 3.545.161 4.994 0 .252-.517-.056-1.59.196-2.106 1.137-.176 2.469-.098 3.771-.098 1.295 0 2.657.194 3.721-.098.17-.604.146-1.791 0-2.399-2.159-.306-5.153.02-7.491-.245-.151-.247-.151-.978 0-1.224 2.288-.319 5.147.132 7.394-.147.33-.549.161-1.797.05-2.497-1.788-.263-3.923-.147-6.074-.147zm22.182 6.611c-.834-1.498-1.659-2.935-2.449-4.407-.386-.72-.731-1.515-1.321-2.105-2.304-.081-4.944-.081-7.247 0-.959 1.318-1.746 2.791-2.546 4.26-.403.74-.662 1.552-1.077 2.301-.41.738-1.006 1.422-1.127 2.302.65.241 1.414.146 2.204.146.692 0 1.743.182 2.35-.049.304-.115.501-.777.931-.881.774-.188 2.794.005 3.722 0 .525-.003 1.536-.201 2.057 0 .43.166.401.729.881.93.722-.051 1.475.051 2.203.049.86-.002 1.783.017 2.498-.195-.131-.886-.67-1.615-1.079-2.351zm19.292-6.513c-.059.024-.111.052-.147.098-.307.244-.195 1.519-.195 2.155 0 .871.017 1.573.049 2.252.08 1.683-.191 3.211.098 4.407 1.354.187 3.423.251 4.75 0 .178-2.018.098-4.527.098-6.659 0-.745.11-1.522-.146-2.155-1.315-.222-3.034-.037-4.507-.098zm17.529 0c-3.739 0-8.239-.115-11.556.147-.215.602-.147 1.647 0 2.302 1.312.386 3.458-.063 4.848.245.306 1.869-.137 4.622.245 6.268 1.363.161 3.387.163 4.749 0 .307-1.94-.042-4.342.196-6.268 1.431-.283 3.516.088 4.945-.196.139-.629.163-1.727 0-2.351-1.076-.256-2.242-.147-3.427-.147zm-25.951 17.726c-3.013.965-5.265 3.094-6.61 5.484-.969 1.718-1.735 3.9-1.665 6.414.075 2.689.785 4.453 1.763 6.317 1.684 3.211 5.488 5.912 9.989 6.121 2.477.115 4.725-.437 6.61-1.469 2.377-1.301 3.899-2.987 5.092-5.289 1.317-2.542 1.728-6.452.734-9.499-1.078-3.312-2.799-5.47-5.729-7.149-1.752-1.004-4.071-1.762-6.708-1.567-1.322.097-2.461.311-3.476.637z"/><path d="m27.216 37.156c-.753.12-2.182.243-2.742-.049.263-.913.74-1.611 1.273-2.252.481-.06.722.662.93 1.028.256.452.573.83.539 1.273z"/></g></svg>