<svg enable-background="new 0 0 15.082 18.144" viewBox="0 0 15.082 18.144" xmlns="http://www.w3.org/2000/svg"><path d="m12.031 0c1.025 1.003 2.025 2.032 3.049 3.035.001 2.014.005 4.028-.002 6.041-.997.008-1.994.002-2.991.002.008 1.005 0 2.009.005 3.014-2.023 0-4.047-.003-6.07.001.007-1.009.007-2.018 0-3.027 1.014.012 2.029 0 3.044.006-.004-1.001-.004-2.002 0-3.004-1.013-.008-2.026 0-3.038-.003-.003-1.013-.003-2.027 0-3.04 1.013-.007 2.027-.005 3.041-.001.005 1.006-.003 2.012.003 3.018.986.009 1.972-.007 2.958.007 0-2.016 0-4.032.001-6.049z"/><path d="m0 3.026c1.019-.01 2.038-.003 3.057-.004.002 1.019.003 2.038 0 3.056-.814-.835-1.652-1.648-2.47-2.48-.187-.2-.412-.361-.587-.572z"/><path d="m9.065 12.107c.677.659 1.335 1.337 2.008 2 .338.346.693.678 1.016 1.037.003 1-.002 2 .003 3-3.021 0-6.042.004-9.064-.001-1.001-1.019-2.023-2.017-3.024-3.035 3.02.007 6.04.003 9.061.002-.003-1.002-.002-2.003 0-3.003z"/></svg>