<svg enable-background="new 0 0 75.527 76.352" viewBox="0 0 75.527 76.352" xmlns="http://www.w3.org/2000/svg"><g clip-rule="evenodd" fill-rule="evenodd"><path d="m38.063.234c.21 7.485.13 14.987.048 22.237-6.981.395-14.887-.075-21.995.241-.262.958-.182 2.735-.048 3.771.865.291 1.802.104 2.707.146 6.339.287 12.918-.21 19.336.096.162 6.115.097 12.8.097 19.337 0 .884.112 1.783-.145 2.61-5.12.301-10.798-.018-15.662.193-.339 1.06-.193 2.244-.193 3.384-.001 5.837.048 11.583.048 17.499 0 2.274.062 4.479-.146 6.526-6.195.047-12.97.174-19.385-.049-.892-.03-1.781.213-2.609-.097-.177-24.167-.098-49.172-.098-73.719 0-.75-.094-2.076.146-2.272.036-.045.087-.073.145-.097 10.994.032 21.98.095 33.21.097 1.515 0 3.068-.186 4.544.097z"/><path d="m42.51 48.671c-.168-6.986-.157-14.789 0-21.947 7.183-.283 14.641.03 21.656-.241.188-1.055.1-2.637.048-3.771-.822-.263-1.743-.146-2.609-.146-6.266.002-12.997.077-19.095-.048-.185-.747-.106-1.721-.146-2.659-.122-2.912.048-5.551.049-8.652 0-3.235-.001-6.314 0-9.861 0-.885-.113-1.144.435-1.258.958-.198 2.577 0 3.626 0 2.34 0 4.842-.118 7.154 0 1.088.057 2.145.313 3.045.532 3.837.931 7.11 2.523 9.669 4.641 5.245 4.342 9.185 10.313 9.185 19.337-.001 4.751-1.276 8.134-2.997 11.359-1.655 3.102-4.009 5.679-6.574 7.734-2.615 2.096-5.826 3.812-9.766 4.544-3.94.734-8.879.605-13.68.436z"/></g></svg>