<svg enable-background="new 0 0 17.685 8.708" viewBox="0 0 17.685 8.708" xmlns="http://www.w3.org/2000/svg"><path d="m2.978.018c2.946-.019 5.893.007 8.84-.01 1.955-.008 3.911-.007 5.866-.008.001 1.457 0 2.915.001 4.373-.1-.001-.199 0-.298-.001.008-.719-.185-1.439-.556-2.055-.582-.949-1.552-1.668-2.651-1.882-.274-.051-.552-.093-.832-.085.009 1.904-.005 3.809.012 5.714.029.778.015 1.558.025 2.336.11.001.22.001.33.005.001.101.003.202.006.304-3.58 0-7.159-.001-10.738-.001.005-.102.008-.204.011-.306.468.003.941.003 1.399-.104.68-.158 1.313-.498 1.827-.968.806-.769 1.295-1.876 1.27-2.994.01-.724-.222-1.44-.591-2.06-.251-.389-.548-.756-.919-1.036-.5-.399-1.096-.676-1.724-.795-.421-.084-.852-.066-1.28-.069 0-.12-.002-.239.002-.358zm7.137 2.003c-.451.639-.731 1.408-.751 2.193.457.036.921-.014 1.353-.172.517-.171.972-.49 1.36-.866.303-.342.573-.726.713-1.164.202-.522.245-1.088.208-1.643-1.141.096-2.216.723-2.883 1.652zm-.753 2.541c.048.967.467 1.898 1.123 2.603.673.683 1.592 1.145 2.555 1.199.033-.622-.056-1.258-.316-1.828-.211-.436-.495-.848-.874-1.156-.67-.596-1.592-.912-2.488-.818z"/><path d="m2.739 1.392c.102-.339.437-.599.795-.581.232.02.465.125.6.32.161.209.21.496.123.745-.254.798-.48 1.605-.738 2.402-.05-.087-.075-.185-.106-.281-.202-.632-.391-1.268-.592-1.9-.084-.222-.158-.469-.082-.705z"/><path d="m1.034 1.836c.169-.146.394-.228.618-.213.246.029.486.164.607.385.181.323.341.657.512.985.153.25.274.517.412.775.098.18.192.362.275.549-.75-.373-1.483-.779-2.225-1.168-.22-.108-.388-.319-.428-.563-.061-.268.039-.556.229-.75z"/><path d="m4.98 1.756c.255-.191.622-.189.888-.021.386.229.485.809.21 1.161-.094.14-.248.221-.394.294-.71.369-1.405.766-2.118 1.127.304-.631.631-1.251.955-1.872.131-.241.223-.526.459-.689z"/><path d="m.188 3.866c.18-.234.501-.35.788-.272.491.141.972.314 1.463.456.33.111.668.196.994.316-.121.064-.255.091-.384.136-.684.225-1.371.447-2.058.663-.213.049-.453.027-.633-.105-.395-.244-.48-.85-.17-1.194z"/><path d="m5.576 3.731c.278-.083.564-.226.861-.15.305.067.543.333.599.637.095.418-.219.872-.64.94-.258.053-.504-.068-.745-.141-.386-.126-.778-.233-1.164-.363-.293-.096-.595-.168-.882-.28.649-.239 1.317-.42 1.971-.643z"/><path d="m1.249 5.618c.743-.384 1.461-.817 2.213-1.182-.354.723-.72 1.439-1.082 2.157-.109.257-.312.499-.598.555-.463.125-.957-.267-.972-.739-.028-.321.151-.646.439-.791z"/><path d="m3.577 4.437c.728.352 1.435.745 2.151 1.119.288.128.527.409.532.734.03.368-.231.742-.593.827-.275.076-.588-.01-.78-.222-.115-.137-.182-.305-.268-.461-.339-.67-.707-1.325-1.042-1.997z"/><path d="m3.514 4.471c.026.053.05.109.068.166.173.543.343 1.088.511 1.633.078.28.195.549.242.836.004.228-.078.464-.247.622-.226.243-.615.297-.906.146-.241-.134-.421-.388-.447-.664-.019-.186.055-.361.11-.534.234-.732.425-1.477.669-2.205z"/></svg>