<svg enable-background="new 0 0 76.767 65.774" viewBox="0 0 76.767 65.774" xmlns="http://www.w3.org/2000/svg"><path clip-rule="evenodd" d="m33.596 65.677c-.256-10.529.023-21.286-.242-31.73-1.107-.261-2.335-.146-3.548-.146-3.622 0-7.425.025-10.884.097-.264 1.277-.146 2.606-.146 3.937-.001 9.256.166 19.081 0 27.795-6.186.196-12.776.085-18.514 0-.435-5.435.086-10.949-.145-16.425-.23-5.437-.05-10.93-.049-16.375 0-10.992-.126-21.574 0-32.604.658-.232 1.79-.16 2.526-.194 1.887-.09 3.772.048 5.637.048 9.466.001 18.774.241 28.426.049 3.791-.076 7.585-.168 11.274 0 3.246.147 6.439 1.343 9.038 2.478 2.688 1.174 5.037 2.764 7.095 4.373 6.396 5.003 11.119 12.096 12.438 22.012.984 7.39-.912 14.096-3.4 19.048-1.266 2.518-2.896 4.958-4.617 6.852-3.588 3.951-8.146 7.25-13.605 9.33-1.398.532-2.905.891-4.519 1.214-1.682.338-3.465.292-5.442.292-3.691-.002-7.594.134-11.323-.051zm5.442-18.465c1.366 0 2.701.001 3.985 0 2.667-.001 4.86-.352 6.754-1.215 3.504-1.598 6.337-4.615 7.531-8.454 2.278-7.321-1.242-13.713-5.831-16.57-1.617-1.007-3.521-2.043-5.831-2.187-2.234-.139-4.485-.109-6.803 0-1.103.053-2.621-.054-3.645.194-.243 4.123-.161 8.817 0 12.974 1.097.264 2.3.147 3.499.147 2.445 0 4.844-.05 7.191-.049 1.201 0 2.438-.118 3.547.146.144.346.18 1.229-.048 1.506-3.521.047-7.168.098-10.69.098-1.191 0-2.4-.118-3.499.146-.152 4.22-.191 9.141.049 13.169 1.238.249 2.544.096 3.791.095zm-9.135-28.377c-3.546 0-7.593-.04-10.981.048-.326.407-.195.987-.195 1.507 0 2.884.049 5.719.049 8.357 0 1.126-.117 2.254.146 3.256 4.596.162 9.837.161 14.383 0 .26-.985.146-2.072.146-3.158 0-3.242-.019-6.741-.146-9.864-1.067-.264-2.229-.146-3.402-.146z" fill-rule="evenodd"/></svg>