<svg enable-background="new 0 0 178.534 159.348" viewBox="0 0 178.534 159.348" xmlns="http://www.w3.org/2000/svg"><g clip-rule="evenodd" fill-rule="evenodd"><path d="m155.109 0c4.083 3.658 7.643 7.84 11.637 11.587 3.292 3.272 6.753 6.702 10.176 10.126.452.452 1.333 1.08 1.411 1.611.12.833 0 1.858 0 2.821 0 28.642.254 57.756.15 86.043-.059-.008-.09.012-.101.051-7.397.241-15.436-.056-22.619.252-.032.359.337.596.554.806 1.172 1.135 2.436 2.334 3.627 3.526.47.47.84 1.041 1.31 1.512.948.948 1.962 1.86 2.922 2.821 4.211 4.211 8.607 8.404 12.947 12.745.473.473 1.182 1.001 1.309 1.511.191.762.051 1.899.051 2.922 0 6.883.077 14.055-.051 20.654-.742.272-1.551.151-2.316.151-21.998 0-43.148.2-65.087.201-3.26 0-6.656.036-9.823-.05-1.167-.73-2.057-1.805-3.023-2.771-5.748-5.747-11.694-11.492-17.48-17.279-.731-.732-1.36-1.464-2.065-2.268-.187-.213-.671-.408-.504-.806 25.661-.126 51.302.036 77.177-.302.247-3.73.101-7.48.101-11.436 0-2.976.047-6.031-.05-8.866-.034-.984.179-2.051.05-2.921-.065-.438-.828-1.103-1.259-1.512-6.984-6.62-13.85-13.718-20.554-20.453-.463-.429-1.198-.849-1.26-1.511 7.218-.277 15.671.117 22.72-.252.14-27.453-.102-55.568-.101-83.172.001-1.855-.042-3.895.051-5.592-.003-.084.037-.128.1-.149z"/><path d="m77.782 11.688c.874.595 2.118 1.917 2.921 2.721 6.451 6.452 13.077 12.926 19.496 19.294.284.624 1.201.882 1.26 1.562-7.564.209-16.044.056-23.728.151-.147 6.81 0 14.283 0 21.46 0 .989.121 1.995-.151 2.922-6.836.301-14.373-.099-21.209.202-.006.697.841.971 1.159 1.511 6.391 6.29 13.005 12.907 19.496 19.395.412.411 1.121.955 1.209 1.359.151.697 0 1.716 0 2.62 0 6.117.165 12.074-.05 17.984-9.549.409-20.061-.098-29.672.302-.271 10.701.155 22.294-.101 32.644-1.063.271-2.172.15-3.275.15-6.829.001-13.632-.049-20.201-.05-1.138 0-2.548.222-3.426 0-.471-.119-1.048-.746-1.511-1.209-6.285-6.283-12.581-12.33-18.841-18.589-.412-.412-1.013-.783-1.159-1.411 5.934-.165 12.37-.2 18.589-.201 2.076 0 4.173.123 6.146-.15.233-1.358.101-2.764.101-4.182 0-9.914-.216-20.106.05-29.975 10.146-.27 20.876.21 31.032-.15.305-.741.1-1.575.1-2.368 0-5.767-.004-11.93-.1-17.632-10.233-.286-21.033.089-31.133-.252-.208-7.878-.215-16.215-.05-24.332 17.444-.161 35.391.015 52.845-.15.295-7.822-.119-15.515.101-23.475-.001-.086.038-.131.102-.151z"/><path d="m101.912 35.667c.985.579 2.214 2.013 3.023 2.821 1.022 1.022 2.031 1.896 2.921 2.821 5.083 4.974 9.912 10.064 15.012 15.163.594.594 1.816 1.558 2.015 2.267.233.827.05 2.226.05 3.375.001 14.604.102 29.066.101 43.878-.001 1.155-.033 2.301 0 3.426.029.991.171 2.021-.101 2.972-6.871.134-13.521.035-19.949.051-.901.002-1.851.221-2.72-.101-.183-9.406-.204-19.011-.252-28.412-.079-15.638-.134-32.064-.201-48.109.043-.042.03-.139.101-.152z"/></g></svg>