<svg enable-background="new 0 0 161.556 163.353" viewBox="0 0 161.556 163.353" xmlns="http://www.w3.org/2000/svg"><path clip-rule="evenodd" d="m80.289.036c3.057-.146 6.707.174 9.619.571 3.079.42 5.995.803 8.667 1.477 5.514 1.389 10.485 3.078 15.144 5.143 2.32 1.029 4.521 2.295 6.667 3.524 2.128 1.22 4.148 2.633 6.143 4 12.074 8.278 21.226 19.435 27.668 33.239 3.252 6.971 5.571 14.718 6.762 23.668.202 1.517.334 3.066.429 4.667.282 4.781.219 9.861-.238 14.524-.893 9.122-3.355 17.133-6.429 24.001-5.317 11.882-12.53 21.234-21.667 29.144-5.321 4.606-11.638 8.852-18.524 11.905-4.741 2.102-9.582 3.991-15.049 5.238-2.763.631-5.586 1.132-8.571 1.572-9.283 1.366-19.653.408-27.811-1.429-2.772-.625-5.443-1.36-7.953-2.19-2.558-.847-4.902-1.9-7.19-2.953-4.69-2.159-9.049-4.581-12.952-7.381-5.929-4.254-11.293-8.932-15.953-14.524-2.34-2.807-4.414-5.671-6.429-8.81-1.971-3.068-3.661-6.434-5.238-9.953-4.107-9.158-7.384-20.039-7.384-33.192 0-16.822 4.244-29.677 10.334-40.478.629-1.115 1.172-2.239 1.81-3.286 3.157-5.178 6.863-10.007 11.096-14.239 3.361-3.361 6.97-6.555 11.048-9.286 4.037-2.704 8.167-5.379 12.763-7.524 4.613-2.153 9.475-4.005 15-5.286 5.514-1.278 11.467-2.142 18.142-2.142.032 0 .064.001.096 0zm62.954 61.287c-1.273-3.888-2.874-7.507-4.667-10.857-1.75-3.271-3.852-6.479-6.143-9.334-2.311-2.878-4.757-5.67-7.382-8.143-5.295-4.988-11.651-9.092-18.857-12.143-5.291-2.24-11.6-4.125-18.477-4.81-3.933-.392-8.019-.459-11.953-.191-7.155.488-13.31 2.006-18.857 4.144-2.197.846-4.452 1.73-6.334 2.905-1.946 1.215-3.979 2.138-5.81 3.381-1.834 1.246-3.643 2.515-5.333 3.905-9.983 8.207-17.92 19.091-22 33.286-1.364 4.747-2.278 10.254-2.477 15.953-.16 4.615.186 8.959.81 12.905.205 1.296.615 2.602.476 3.953.578.694.698 1.616.904 2.429.225.882.434 1.777.715 2.619 3.886 11.652 10.02 21.214 18.096 28.667 4.546 4.196 9.793 8.05 15.715 11 4.438 2.211 9.444 4.092 14.81 5.239 1.832.391 3.742.827 5.715.904.257-.675.143-1.44.143-2.143.004-20.993-.003-41.47 0-62.383 0-1.549-.125-3.125.19-4.429.304-1.257.86-2.182 1.763-2.905 1.605-1.727 4.995-1.333 7.904-1.333 19.619.001 39.609.189 59.24.19 1.501 0 3.038.116 4.523-.143-.375-4.556-1.435-8.759-2.714-12.666zm-11.476 28.763c-14.201-.16-28.266-.021-42.573-.143-.056.023-.107.05-.143.095-.253.177-.12 1.217-.143 1.81-.124 3.308-.048 6.1-.048 9.334 0 1.282-.147 2.594.19 3.714.916.179 1.958.095 3.048.095 12.438.001 24.639.096 37.001.095 4.484 0 8.936.189 13.238-.095.958-2.128 1.62-4.497 2.238-6.953.619-2.457 1.191-5.071 1.334-7.81-4.69-.254-9.421-.089-14.142-.142zm-42.764 30.858c-.17.659-.143 2.259-.143 3.238-.001 5.656-.082 11.208 0 16.668.033 2.203-.112 4.356.143 6.381 1.982-.066 3.878-.436 5.715-.81 5.425-1.105 10.33-3.011 14.763-5.096 5.977-2.811 11.147-6.59 15.762-10.762 2.289-2.138 4.396-4.478 6.382-6.857.663-.795 1.493-1.545 1.856-2.571-1.766-.212-3.582-.19-5.381-.19-13.094-.001-25.956-.116-38.953-.095-.057.022-.109.05-.144.094z" fill-rule="evenodd"/></svg>