<svg enable-background="new 0 0 31.317 31.3" viewBox="0 0 31.317 31.3" xmlns="http://www.w3.org/2000/svg"><path d="m8.721 1.765c3.674-1.91 8.156-2.346 12.072-.934-.121.429-.298.84-.44 1.263-3.825-1.345-8.217-.82-11.692 1.238-2.723 1.572-4.923 4.038-6.154 6.933-.877 1.886-1.232 4-1.119 6.073.132 2.323.959 4.547 2.039 6.588.748 1.271 1.645 2.511 2.896 3.329.71.456 1.569.767 2.421.636 1.044-.211 1.896-1.041 2.264-2.023 1.211-2.852 2.439-5.695 3.681-8.533-1.237-.003-2.475.002-3.713.009-.028-.452-.075-.908-.022-1.36 1.383-.003 2.766-.006 4.149-.018.307.032.336-.337.443-.541 1.274-2.871 2.603-5.718 3.841-8.605.355-.851.772-1.728 1.532-2.293.872-.683 2.069-.817 3.123-.56 1.422.353 2.621 1.307 3.532 2.426 1.051 1.299 1.844 2.788 2.476 4.33.944 2.181 1.418 4.59 1.223 6.967-.2 3.249-1.513 6.37-3.513 8.917-.589.702-1.178 1.427-1.953 1.934-2.885 2.441-6.663 3.845-10.45 3.754-1.529-.04-3.053-.315-4.484-.86.107-.437.29-.849.452-1.267 3.849 1.456 8.323.816 11.781-1.35.502-.345 1.064-.596 1.522-1.004 3.527-2.784 5.492-7.334 5.339-11.797-.102-1.8-.567-3.565-1.299-5.209-.777-1.831-1.83-3.642-3.473-4.824-.696-.501-1.551-.85-2.422-.762-.589.041-1.16.344-1.497.834-.368.499-.549 1.098-.812 1.652-1.175 2.757-2.468 5.462-3.641 8.219 1.293.008 2.586-.008 3.879-.005.005.452.014.904.004 1.356-1.44.007-2.879.015-4.318.018-.201-.036-.27.177-.341.318-1.401 3.151-2.765 6.318-4.136 9.482-.327.574-.757 1.131-1.371 1.414-.669.406-1.429.723-2.225.699-1.038.011-2.001-.436-2.885-.933-1.17-.835-2.104-1.961-2.843-3.186-.731-1.122-1.26-2.36-1.7-3.62-.794-2.203-1.095-4.599-.742-6.921.748-4.999 4.076-9.503 8.576-11.784z"/></svg>