<svg enable-background="new 0 0 87.812 66.474" viewBox="0 0 87.812 66.474" xmlns="http://www.w3.org/2000/svg"><path clip-rule="evenodd" d="m87.812 66.243c-.408.375-1.635.186-2.281.154-.841-.951-1.292-2.176-1.865-3.316-1.688-3.357-3.606-6.766-5.34-10.213-1.133-2.254-2.372-4.588-3.524-6.842-.58-1.133-1.158-2.244-1.918-3.266-.724-.973-1.51-2.004-2.695-2.488-.099.65.412 1.168.674 1.711 1.833 3.799 3.772 7.613 5.806 11.352 1.733 3.189 3.355 6.43 5.08 9.643.28.521.571 1.061.829 1.606.257.543.642 1.082.622 1.711-.464.293-1.602.141-2.229.104-.831-.799-1.154-1.953-1.71-2.955-2.759-4.961-5.273-10.197-7.983-15.291-1.039-1.953-1.899-4.279-4.147-5.133-.211.555.23 1.111.466 1.557 2.78 5.217 5.302 10.621 8.19 15.811.524.938.956 1.93 1.451 2.902.49.961 1.181 1.867 1.4 2.955-.453.381-1.71.195-2.333.104-1.02-1.439-1.703-3.119-2.592-4.719-2.166-3.896-4.05-8.086-6.272-12.025-.889-1.576-1.195-3.578-3.369-3.732-.105.568.342 1.016.57 1.451.24.461.453.938.674 1.4.448.941 1.054 1.803 1.451 2.748.11.26.151.557.26.828.464 1.174 1.205 2.312 1.814 3.473 1.494 2.853 3.044 5.67 4.509 8.605.281.564.744 1.096.726 1.764-.243.406-1.897.348-2.28.154-.475-.238-.88-1.492-1.192-2.074-1.12-2.084-2.352-4.318-3.369-6.375-.371-.75-.656-1.508-1.037-2.229-.742-1.406-1.519-2.828-2.229-4.303-.333-.693-.603-1.547-1.348-1.867-.534.236-.661.854-.934 1.297-1.966 3.205-3.286 7.025-5.649 9.9-1.251 1.521-3.071 2.969-5.028 3.889-1.973.926-4.394 1.721-7.258 1.607-5.432-.217-9.476-2.506-12.182-5.6-2.327-2.66-3.747-6.666-5.65-9.953-.277-.479-.604-1.162-1.036-1.141-.474.025-.965 1.428-1.244 1.971-2.214 4.312-4.327 8.396-6.583 12.699-.359.688-.638 1.439-1.192 1.971-.642.043-1.817.201-2.229-.156.151-.943.707-1.769 1.141-2.592.658-1.246 1.26-2.48 1.918-3.783 2.079-4.111 4.386-8.328 6.479-12.492.204-.406.564-.809.467-1.297-1.092-.029-1.853.811-2.385 1.607-.54.809-.988 1.811-1.451 2.643-2.422 4.363-4.556 8.965-6.946 13.529-.332.635-1.007 2.238-1.555 2.488-.598.273-1.727.158-2.281-.104.106-1.076.863-1.924 1.348-2.85 2.445-4.67 4.806-9.541 7.309-14.203.757-1.408 1.504-2.783 2.229-4.252.226-.457.605-.904.57-1.451-.609-.07-1.021.488-1.399.83-1.174 1.061-2.033 2.559-2.8 4.043-1.023 1.983-2.094 4.086-3.109 6.064-1.543 3.002-3.189 6.021-4.718 9.02-.515 1.01-.861 2.113-1.658 2.902-.679.076-1.635.197-2.178-.104-.04-.637.376-1.182.622-1.711.728-1.562 1.611-3.17 2.437-4.768 2.191-4.242 4.34-8.473 6.583-12.701.562-1.057 1.028-2.174 1.607-3.213.58-1.041 1.219-2.064 1.555-3.215-.652-.008-1.101.603-1.503.986-1.272 1.207-2.197 2.98-3.059 4.613-1.164 2.205-2.405 4.506-3.576 6.686-1.204 2.242-2.235 4.604-3.422 6.844-.599 1.131-1.148 2.287-1.711 3.42-.546 1.104-1.04 2.303-1.917 3.162-.635.037-1.837.218-2.233-.153.167-1.145.851-2.105 1.348-3.111 1.476-2.982 3.038-6.053 4.613-9.07 2.073-3.971 4.344-7.871 6.273-11.922.476-1 1.059-1.984 1.607-2.955 1.636-2.9 3.139-5.959 4.717-8.916 1.061-1.988 2.133-3.988 3.11-6.014.985-2.043 2.141-3.955 3.059-6.014.463-1.037 1.085-2.031 1.607-3.057 1.516-2.978 3.043-6.396 5.08-8.812 2.226-2.643 4.815-4.291 8.502-5.443 4.808-1.504 10.414.219 13.425 2.488 2.461 1.855 4.113 4.094 5.495 6.842 2.573 5.117 5.394 10.078 7.931 15.24.178.361.208.756.363 1.141.684 1.701 1.784 3.305 2.592 5.027.394.84.914 1.619 1.348 2.438 1.313 2.477 2.632 4.967 3.888 7.465 2.53 5.033 5.163 10.006 7.775 14.98 1.302 2.479 2.65 4.936 3.939 7.412.436.84.93 1.701 1.14 2.644zm-19.284-32.294c-.855-1.566-1.494-3.127-2.281-4.717-1.07-2.164-2.183-4.275-3.266-6.428-1.434-2.852-2.865-5.764-4.355-8.553-1.536-2.881-2.808-5.811-4.924-7.984-2.029-2.084-5.203-3.684-9.02-3.939-.655-.043-1.235-.051-1.866 0-2.912.238-5.443 1.441-7.309 2.852-2.069 1.564-3.205 3.191-4.459 5.547-1.722 3.236-3.368 6.672-5.132 9.85-.452.814-.97 1.666-1.296 2.435-.136.32-.163.658-.311.984-.469 1.039-1.077 2.076-1.607 3.111-1.348 2.629-2.787 5.215-4.095 7.826-.256.514-.773.975-.674 1.607.684-.125 1.502-.297 1.97-.726.495-.453.817-1.406 1.141-2.021.395-.75.763-1.44 1.089-2.072.755-1.471 1.652-2.789 2.229-4.148.284-.67.496-1.281.829-1.916.957-1.826 1.905-3.608 2.851-5.393 1.272-2.396 2.425-4.852 3.732-7.309 1.302-2.447 2.562-4.791 4.665-6.375 2.104-1.586 4.776-2.789 8.501-2.541 3.627.242 6.714 2.131 8.502 4.457.908 1.184 1.633 2.699 2.384 4.096.777 1.445 1.436 2.961 2.178 4.355 1.502 2.824 2.979 5.711 4.406 8.604 1.644 3.338 3.564 6.562 5.027 10.006.531.469 1.489 1.014 2.229.932-.122-.902-.693-1.728-1.138-2.54zm-4.976-.881c-3.291-6.277-6.533-12.309-9.59-18.816-1.08-2.303-2.365-4.736-4.303-6.014-1.466-.967-3.584-1.85-5.806-1.814-3.216.051-6.061 1.682-7.619 3.68-1.218 1.561-2.143 3.639-3.11 5.547-.976 1.924-1.962 3.85-3.007 5.703-1.622 2.875-2.913 5.82-4.458 8.553-.547.967-.953 1.965-1.399 2.955-.312.691-.852 1.207-.83 2.072.361.234.967.018 1.349-.051 1.388-2.17 2.617-4.465 3.836-6.791 1.197-2.289 2.394-4.662 3.628-7.051 1.087-2.1 2.357-4.65 3.629-7.049 1.265-2.385 2.744-4.527 5.235-5.443.476-.174 1.125-.367 1.607-.414 4.659-.455 7.298 2.088 8.76 4.82 1.269 2.369 2.52 5.049 3.732 7.412 1.221 2.377 2.497 4.801 3.784 7.361.885 1.758 1.813 3.781 2.851 5.547.383.65.685 1.498 1.141 1.658.3.105 1.026.145 1.244-.104.026-.646-.384-1.208-.674-1.761zm-34.627 2.385c.734-.711 1.179-1.691 1.659-2.592 2.513-4.717 4.819-9.355 7.36-14.049.455-.84 1-1.785 1.504-2.748.5-.953.935-2.098 1.555-2.746 1.279-1.34 4.205-1.738 5.702-.156 1.226 1.67 2.121 3.6 3.059 5.494.929 1.881 1.91 3.797 2.902 5.652 1.765 3.297 3.39 6.709 5.132 9.848.235.424.351 1.1.934 1.244.361.033 1.02-.084 1.141-.467-.218-1.008-.843-1.881-1.348-2.799-1.026-1.865-1.938-3.77-2.903-5.65-.479-.932-1.033-1.877-1.451-2.852-1.265-2.941-2.813-5.709-4.303-8.5-.519-.973-.975-2.004-1.608-2.695-1.041-1.143-2.757-2.154-4.975-1.918-1.62.172-2.689 1.055-3.681 1.969-1.642 2.709-3.154 5.596-4.613 8.346-.506.953-.963 1.939-1.452 2.902-1.689 3.326-3.603 6.654-5.235 9.902-.233.465-.588.947-.57 1.502.2.301.679.322 1.191.313zm16.795 14.461c1.171-2.283 2.221-4.584 3.474-6.789 1.248-2.199 2.739-3.943 4.769-5.443.496-.367 1.906-1.023 1.97-1.451.051-.338-.367-.961-.621-1.451-.752-1.453-1.431-2.926-2.074-4.199-2.314-4.582-4.649-9.061-7.102-13.736-.474-.904-1.142-2.426-2.436-2.23-1.139.174-1.813 2.035-2.333 3.008-2.432 4.557-4.562 8.822-6.997 13.373-.638 1.191-1.467 2.607-2.126 3.939-.235.477-.671 1.17-.621 1.451.057.322 1.065.773 1.555 1.09.598.387 1.131.791 1.555 1.141 2.614 2.15 3.908 5.033 5.547 8.137.46.873.977 1.826 1.451 2.695.475.871 1 1.953 2.125 2.074h.104c.982-.07 1.405-.918 1.76-1.609zm14.204-11.87c-.087 1.029 1.197 1.287 1.917.777.182-1.13-1.349-1.456-1.917-.777zm-34.11.829c.727.504 1.897.203 1.814-.828-.597-.688-2.168-.202-1.814.828zm40.33-.725c-.436-.182-1.373-.662-1.71-.156.143 1.06 1.216 1.707 2.28 1.504.104-.551-.377-.926-.57-1.348zm-45.202 1.398c1.198.125 2.365-.5 2.28-1.658-1.236-.332-2.221.467-2.28 1.658zm10.212 1.348c2.463 1.652 3.587 4.332 5.132 7.205.539 1.004 1.133 2.062 1.71 3.059 1.296 2.238 2.554 4.518 5.909 4.51 4.446-.008 5.579-4.19 7.154-7.256 1.447-2.82 2.696-5.811 5.08-7.414.579-.389 1.326-.672 1.658-1.295-.028-.924-.766-.896-1.348-.623-.506.24-1.308.781-1.711 1.09-3.391 2.596-5.098 8.277-7.412 11.975-.591.645-.913 1.135-1.607 1.502-1.938 1.029-4.082.088-5.08-1.191-.504-.646-.88-1.521-1.348-2.332-.447-.777-.891-1.594-1.348-2.385-1.554-2.693-2.51-5.246-4.768-7.102-.688-.566-3.156-2.824-3.474-.727.324.488.939.687 1.453.984zm-7.465 2.074c.939.33 1.936-.123 1.918-1.088-.792-.691-2.054.026-1.918 1.088zm38.256-1.088c0 .986 1.034 1.424 2.021 1.088.328-1.064-1.231-1.804-2.021-1.088zm-32.398 2.953c1.479 1.375 2.261 3.553 3.266 5.34 2.166 3.85 3.62 7.658 8.035 9.072 2.452.783 5.445.518 7.464-.52 3.968-2.037 5.291-6.42 7.361-10.471.729-1.426 1.498-2.943 2.799-3.889.491-.355 1.201-.615 1.244-1.035.049-.471-.456-1.086-.933-.881-2.579 1.101-3.71 3.504-4.925 6.012-.428.885-.886 1.766-1.348 2.645-1.834 3.49-3.557 7.064-8.657 7.049-5.579-.018-7.321-4.68-9.434-8.397-1.086-1.912-2.197-4.391-3.888-5.961-.748-.695-2.472-2.199-2.748-.312.563.649 1.212.837 1.764 1.348zm-3.577 2.075c.04.455.955.916 1.192 1.244.773 1.066 1.31 2.473 1.971 3.732 1.323 2.525 2.54 5.15 4.25 7.154 2.452 2.869 6.928 5.301 12.337 4.664 3.221-.379 5.626-1.812 7.827-3.629 2.224-2.154 3.568-5.662 5.08-8.604.528-1.027.948-2.162 1.556-3.008.248-.346 1.396-1.176 1.399-1.605.002-.264-.309-.838-.726-.883-.483-.051-1.018.512-1.348.883-1.115 1.248-1.686 2.885-2.488 4.301-1.057 1.867-1.999 4.234-3.11 5.961-1.555 2.42-4.275 4.121-7.465 4.822-2.527.555-5.4.188-7.516-.727-2.923-1.264-4.981-3.602-6.376-6.375-.697-1.387-1.47-2.768-2.229-4.148-.765-1.389-1.323-2.908-2.332-4.094-.462-.246-.698-.719-1.399-.727-.173.154-.657.648-.623 1.039z" fill-rule="evenodd"/></svg>