<svg enable-background="new 0 0 64.628 75.911" viewBox="0 0 64.628 75.911" xmlns="http://www.w3.org/2000/svg"><path clip-rule="evenodd" d="m40.715.161c.163 1.953.165 4.583 0 6.535-4.767.369-10.93-.004-16.141.1-1.163.022-2.276-.065-2.772.594-.655.87-.194 3.088-.198 4.308 1.466.269 3.16.148 4.852.148 1.645 0 3.275.049 4.901.049 3.292.001 6.49-.119 9.407.1.057 1.888.142 4.62-.05 6.585-6.041.387-13.081-.082-19.062.197-.237.576-.178 1.235-.198 1.832-.176 5.078.06 10.577 0 15.596-.008.691.087 1.32 0 1.882-.169 1.096-.725 1.931-1.139 2.871-.83 1.887-1.729 3.578-2.574 5.396-2.85 6.125-6.086 12.636-9.011 19.012-.351.764-1.236 2.104-1.089 2.772.274 1.253 4.004.792 5.545.793 13.747.002 27.144.144 41.044.148 1.118.001 2.265.084 2.475-.644.152-.527-.338-1.272-.644-1.881-.875-1.739-1.747-3.553-2.574-5.198-2.379-4.731-4.419-9.302-6.832-13.912-1.202-2.296-2.191-4.703-3.317-7.031-.588-1.213-1.139-2.433-1.188-4.01-.152-4.845 0-10.661 0-15.546-.001-6.912-.082-13.808.099-20.646.867-.272 1.995-.129 3.07-.1 1.092.031 2.295-.14 3.218.149.157 10.065.05 21.103.05 31.686 0 1.567-.164 3.333.198 4.654.357 1.305 1.272 2.701 1.931 4.01 3.355 6.675 6.627 13.078 9.852 19.853.628 1.32 1.319 2.648 1.98 3.961.327.65.703 1.332.94 2.029.253.746.65 1.372.891 2.08.64 1.877-.051 4.058-1.039 5.496-1.255 1.595-3.213 1.879-5.496 1.881-16.923.01-34.383-.251-51.589-.248-2.424.001-4.094-.717-5.248-2.228-1.101-1.44-1.327-3.912-.545-5.941.336-.87.797-1.716 1.188-2.574 1.946-4.269 4.005-8.411 5.941-12.724 1.563-3.482 3.126-6.708 4.753-10.199.783-1.683 1.825-3.394 2.326-5.1.396-1.342.248-3.223.248-5.05 0-6.98 0-14.297 0-21.092 0-1.777-.116-3.56 0-5.297.192-2.858 2.587-5.172 5.348-5.397 1.688-.138 3.443 0 5.198 0 5.038.002 10.435.018 15.251.101z" fill-rule="evenodd"/></svg>