<svg enable-background="new 0 0 14.569 29.656" viewBox="0 0 14.569 29.656" xmlns="http://www.w3.org/2000/svg"><path d="m12.274.651c.418-.04.736-.31.957-.651.002.049.006.147.008.196.045-.014.091-.027.137-.038-.264.915.881 1.469 1.193 2.206-.021.368-.41.547-.738.466-.231-.414-.767-.565-1.209-.618-.415.569-.302 1.353-.557 1.998-.209.458-.034.949-.013 1.416-.229.481-.339 1.105-.861 1.359-.367.716-.357 1.559-.627 2.313-.284.684-.054 1.493.651 1.774.911.005 1.823.008 2.735.008-.016 1.276.046 2.558-.039 3.83-.203-.004-.406-.007-.609-.005-.414-.911-.895-1.825-1.667-2.486-1.675-1.435-4.016-.879-6.029-.991-.011 2.805-.018 5.61-.019 8.415.947.001 1.952.1 2.827-.345 1.015-.486 1.571-1.56 1.874-2.594.083-.004.166-.005.25-.005-.004 2.11-.003 4.22-.005 6.33-.094-.001-.187.001-.28.003-.298-1.148-.937-2.346-2.113-2.78-.814-.297-1.698-.197-2.548-.209-.019 3.136-.052 6.271-.042 9.409-1.848.009-3.697-.008-5.545-.018-.002-.128-.003-.256-.005-.384.587-.026 1.204.051 1.773-.034.022-5.932.067-11.865.059-17.798-.592-.02-1.186.013-1.776-.036-.001-.121-.002-.24-.003-.36 1.175-.003 2.35.006 3.525.003-.016-.084-.031-.164-.047-.245.027-.032.053-.063.08-.093-.36-.276-.011-.707-.047-1.066.097-.476-.047-.965.02-1.435.358-.322 1.007-.683.815-1.261-.294-.89-.69-1.884-.164-2.768-1.184.119-.324 1.678-.871 2.368-.468.6-.559 1.4-.968 2.025.014-.174.044-.344.071-.516-.075.094-.151.188-.23.28-.317-1.014.519-1.912.319-2.924-.017-.51.099-1.088.533-1.407.422-.261.934-.137 1.375-.007.751-.086 1.479-.502 2.25-.312.813.143 1.764.341 2.484-.178-.002-.039-.006-.119-.009-.158.066-.043.132-.087.197-.128-.074-.047-.147-.09-.22-.134.14-.047.28-.09.421-.131.003-.027.01-.079.013-.105-.059-.027-.118-.052-.176-.076.135-.055.268-.115.398-.18-.01-.057-.018-.113-.027-.169.131-.012.262-.019.393-.035-.06-.034-.119-.069-.177-.102.027-.02.054-.039.082-.056-.004-.045-.008-.089-.011-.131.796-.37 1.404-1.048 2.192-1.43zm-5.979 5.862c-.124.21-.164.485-.39.617-.598.413-.982 1.067-1.621 1.426-.54.5-.233 1.276-.4 1.904.13.172.237.361.31.564 2.019.022 4.037.013 6.056.022.025-.102.051-.202.075-.302-.229-.038-.435-.176-.353-.436.207-1.091.307-2.215.117-3.311-1.264-.207-2.571-.006-3.794-.484z"/></svg>