<svg enable-background="new 0 0 75.8 92.878" viewBox="0 0 75.8 92.878" xmlns="http://www.w3.org/2000/svg"><path d="m48.53 12.759c.181-2.273-.833-3.989-2.017-5.172-1.277-1.277-2.916-2.12-5.017-2.38-4.533-.56-7.875 2.478-9 5.689-.708 2.023-.375 4.336.311 6.155 1.731 4.594 3.374 8.658 5.069 13.448.192.545.81 2.319 1.293 2.379.637.08 1.28-1.341 1.655-1.758 2.711-3.022 5.117-6.088 7.758-9.104 1.073-1.226 2.046-2.482 3.155-3.569 2.306-2.26 5.52-3.858 9.414-4.086 2.124-.124 4.12.317 5.845.88 1.719.56 3.12 1.321 4.293 2.431 2.26 2.136 4.342 5.047 4.5 9 .18 4.483-1.68 7.41-4.189 9.258-1.241.914-2.754 1.727-4.707 2.069-1.941.34-4.103.224-5.845-.569-2.87-1.306-5.809-4.011-4.965-8.275.679-3.431 4.475-6.457 8.948-5.069 1.713.532 3.296 1.556 4.242 3.104.924 1.513 1.273 3.96.362 5.896-.4.852-1.028 1.442-1.604 2.225 2.36-1.149 4.001-4.426 3.155-7.966-.705-2.949-2.669-5.191-5.431-6.206-3.347-1.23-6.954-.199-9 1.499-2.135 1.773-3.601 4.196-5.431 6.155-1.701 2.195-3.5 4.229-5.275 6.362-.569.683-1.33 1.31-1.604 2.224.55.702 1.693.575 2.638.775.939.201 1.932.309 2.896.466 1.899.312 3.861.645 5.793.932 3.878.576 7.835 1.091 10.914 2.534 2.85 1.336 5.309 3.559 6.828 6.62.753 1.519 1.351 3.416 1.396 5.328.053 2.217-.271 3.85-1.086 5.638-1.372 3.009-3.592 5.593-6.672 6.827-5.927 2.376-11.625-.601-13.965-4.552-.878-1.48-1.437-3.132-1.241-5.379.17-1.962.773-3.525 2.017-4.707 1.109-1.053 2.826-2.071 4.81-2.068 2.125.002 3.952.866 5.224 2.068 1.234 1.167 2.147 2.817 2.121 5.173-.025 2.158-1.101 3.971-2.379 5.017-1.445 1.183-3.376 1.627-5.897 1.294.026.505.723.494 1.138.568 3.924.703 7.167-1.227 8.586-3.673 1.717-2.318 1.779-5.983.414-8.379-1.351-2.37-3.223-3.949-6.103-4.706-1.471-.388-3.032-.506-4.604-.828-3.052-.624-6.031-.964-9.258-1.552-.649-.118-1.354-.214-2.328-.362-.734-.111-1.94-.488-2.224-.154-.28.328.134 1.143.311 1.602 1.758 4.582 3.443 9.071 5.224 13.604.4 1.018.844 2.064 1.034 3.155.413 2.37.588 5.166-.052 7.5-1.137 4.146-4.152 7.491-7.862 8.896-4.21 1.594-10.29.924-13.189-1.811-2.258-1.75-4.612-4.893-4.189-9.104.401-3.998 2.415-6.613 5.327-8.068 1.52-.799 3.717-1.19 5.638-.673 1.537.414 3.326 1.714 3.982 2.897.968 1.743 1.298 4.023.569 6.052-.704 1.957-1.741 3.04-3.569 3.879-2.75 1.263-5.89.378-7.603-1.189-.894-.817-1.362-1.924-1.914-3.104-.367.806.163 1.626.466 2.276.323.694.769 1.358 1.241 1.811 1.756 2.036 4.343 3.173 7.707 2.74 3.073-.394 5.028-2.024 6.31-4.292.706-1.25 1.111-2.583 1.086-4.241-.025-1.68-.568-2.886-1.086-4.242-.491-1.285-.98-2.592-1.448-3.879-.474-1.302-1.06-2.574-1.448-3.827-.224-.722-.408-1.386-.672-2.069-.496-1.281-.983-2.491-1.552-3.879-.235-.575-.467-1.689-.931-1.759-.596-.088-1.345 1.177-1.707 1.604-2.57 3.025-5.077 5.968-7.604 8.948-1.007 1.188-1.94 2.48-3.052 3.568-2.221 2.175-4.962 4.07-8.741 4.5-4.032.458-7.844-.536-10.448-2.431-3.405-2.478-6.578-8.118-4.759-13.966.487-1.565 1.539-3.038 2.535-4.034 1.067-1.067 2.315-2.023 4.033-2.585 1.7-.556 3.848-.775 5.845-.362 1.66.344 3.271 1.241 4.345 2.276 1.026.988 2.16 2.434 2.276 4.293.235 3.749-1.752 6.118-4.345 7.086-4.593 1.714-9.01-1.413-9.621-5.379-.405-2.632.805-4.027 2.069-5.741-.6.215-.806.359-1.138.672-1.42 1.337-2.49 3.686-2.224 6.413.361 3.703 2.802 6.165 5.689 7.19 1.811.643 3.86.629 5.586.155 3.243-.892 5.144-3.594 6.983-5.896.942-1.181 1.947-2.278 2.948-3.466 1.373-1.629 2.877-3.438 4.396-5.224.276-.325 1.403-1.435 1.293-1.914-.111-.486-2.12-.659-2.689-.776-4.918-1.005-9.95-1.552-14.793-2.483-1.948-.374-3.625-.949-5.121-1.759-2.763-1.493-5.303-4.196-6.465-7.345-.666-1.802-1.077-3.843-.828-5.999.224-1.937.88-3.6 1.759-5.121 1.69-2.929 4.272-5.007 7.914-5.896 4.298-1.051 8.409.994 10.344 3.052 1.045 1.11 2.09 2.707 2.483 4.448.428 1.898.253 4.342-.569 5.896-1.505 2.847-5.342 4.828-9.414 2.948-1.328-.613-2.798-2.073-3.414-3.725-.659-1.767-.459-4.301.362-5.741.947-1.658 2.948-3.275 5.121-3.361.822-.033 1.877.285 2.431.052-.346-.483-1.111-.542-1.707-.621-2.064-.274-4.344.411-5.534 1.189-2.157 1.411-3.964 3.991-3.983 7.086-.025 4.139 2.755 7.021 5.793 8.173 1.078.408 2.371.551 3.776.827 4.54.895 9.383 1.447 14.017 2.276.584.104 1.268.495 1.81.052.14-.91-.354-1.784-.672-2.587-1.633-4.112-3.125-8.294-4.81-12.465-.677-1.677-1.302-3.467-1.448-5.431-.341-4.566 1.213-7.849 3.362-10.345 2.037-2.367 5.141-4.267 9.258-4.552 4.476-.309 7.902 1.429 9.983 3.621 1.987 2.093 3.755 6.119 2.379 10.292-1.15 3.487-3.135 5.796-6.724 6.879-4.084 1.234-7.452-1.141-8.535-4.344-1.292-3.824 1.19-7.016 3.465-8.276 3.186-1.765 7.115-.636 8.638 1.862.439.723.639 1.628 1.139 2.692z"/></svg>