<svg enable-background="new 0 0 81.843 81.465" viewBox="0 0 81.843 81.465" xmlns="http://www.w3.org/2000/svg"><path clip-rule="evenodd" d="m70.726 68.64c-4.112 4.542-9.088 7.982-15.249 10.286-3.088 1.154-6.633 1.989-10.388 2.354-3.841.372-7.928.17-11.768-.461-3.432-.563-6.628-1.819-9.62-3.172-1.519-.687-2.914-1.336-4.247-2.149-1.301-.794-2.474-1.734-3.685-2.661-2.356-1.804-4.68-3.797-6.55-6.191-1.891-2.422-3.628-5.067-4.964-7.778-1.405-2.858-2.609-5.904-3.325-9.469-.729-3.618-1.193-7.68-.767-11.768.794-7.633 3.176-13.659 6.55-18.934 4.946-7.734 12.257-13.292 21.645-16.579 3.21-1.124 6.924-1.792 10.899-2.047 5.108-.327 9.761.516 13.714 1.638 5.855 1.66 10.867 4.551 14.993 7.982 1.362 1.133 2.536 2.518 3.735 3.889 4.76 5.441 8.541 12.019 9.773 20.826.634 4.53.429 9.506-.409 13.97-1.579 8.409-5.648 14.844-10.337 20.264zm-22.515-60.995c.477-.167 1.659-.29 1.586-.818-.053-.382-1.21-.492-1.893-.666-2.13-.541-4.957-.723-7.317-.613-5.953.276-10.398 1.481-14.583 3.428-8.038 3.74-14.095 10.056-17.603 18.422-1.774 4.23-2.873 9.4-2.61 15.197.248 5.45 1.622 10.216 3.787 14.226 1.068 1.979 2.176 3.859 3.582 5.425 1.402 1.559 2.963 3.085 4.707 4.298 1.696 1.18 3.74 2.408 6.141 2.865 2.56.488 5.727.393 7.982-.307 2.221-.688 4.033-1.985 5.527-3.479 1.484-1.485 2.796-3.342 3.53-5.476 2.592-7.531-1.657-14.083-6.141-16.887-2.325-1.453-6.222-2.69-9.876-1.688-2.511.689-4.226 1.914-5.884 3.326-.535.455-.944 1.164-1.74 1.382-.7-.312-1.476-.978-2.149-1.638-.39-.382-1.745-1.438-1.74-2.047.005-.488.601-1.01.922-1.33.436-.437.824-.734 1.228-1.074.819-.717 1.811-1.261 2.713-1.894 2.994-1.577 6.562-3.003 11.104-2.609 3.569.309 6.566 1.697 8.903 3.172.336.212.75.529 1.178.461-.103-.654-.612-1.14-.973-1.638-1.106-1.527-2.122-3.266-2.764-5.22-.873-2.663-1.19-6.046-.716-9.518.836-6.131 4.488-9.937 8.238-13.049 1.465-.918 3.015-1.608 4.861-2.251zm-14.43 67.647c1.719.392 3.613.579 5.527.665 8.173.37 14.641-1.911 19.7-4.86 6.775-3.95 12.073-10.322 14.941-18.063 1.55-4.181 2.435-8.755 2.354-14.021-.041-2.629-.515-5.004-1.024-7.215-1.141-4.952-3.483-9.006-5.987-12.588-.86-1.231-1.891-2.178-3.07-3.121-2.978-2.384-6.924-4.595-12.332-4.196-2.366.174-4.305.939-5.987 1.894-1.669.947-3.142 2.142-4.298 3.582-2.242 2.794-3.947 7.256-2.712 12.179 1.056 4.207 3.51 6.891 6.908 8.903 1.606.952 3.727 1.811 6.038 1.843 3.582.048 6.551-1.583 8.597-3.327.669-.367 1.311-1.761 2.251-1.739.693.017 1.663 1.108 2.201 1.586.769.685 1.527 1.243 1.739 2.047-.402 1.115-1.373 1.663-2.149 2.405-2.879 2.44-6.575 4.169-11.564 4.503-3.818.256-7.112-1.032-9.62-2.303-.913-.463-1.7-1.157-2.661-1.381-.133.437.296.736.512 1.022 1.602 2.121 3.029 4.84 3.685 7.829.815 3.719.567 8.142-.665 11.463-1.152 3.105-3.134 5.658-5.424 7.727-2.018 1.821-4.524 3.269-7.42 4.042-.316.084-.968.044-1.024.563.358.399.979.446 1.484.561z" fill-rule="evenodd"/></svg>