<svg enable-background="new 0 0 78.514 79.261" viewBox="0 0 78.514 79.261" xmlns="http://www.w3.org/2000/svg"><path clip-rule="evenodd" d="m12.54 68.59c-5.182-4.783-8.925-10.795-11.122-18.437-1.139-3.96-1.671-8.827-1.303-13.276.379-4.587 1.403-8.384 2.755-12.024 2.615-7.044 7.01-12.62 12.676-16.884 5.654-4.255 12.953-7.444 21.844-7.916 6.255-.332 11.486.946 15.882 2.605 7.431 2.806 13.067 7.499 17.484 13.327 1.685 2.222 3.159 4.923 4.459 7.866 1.274 2.884 2.353 6.258 2.806 9.519.52 3.735.694 7.616.2 11.423-.466 3.592-1.194 6.892-2.404 9.87-2.333 5.74-5.571 10.901-10.021 14.629-2.3 1.928-4.599 3.574-7.214 5.11-2.597 1.525-5.571 2.57-8.817 3.507-3.307.954-7.038 1.353-10.973 1.353-3.767-.001-7.513-.771-10.621-1.704-6.305-1.893-11.205-5.094-15.631-8.968zm31.463-32.114c2.026-1.075 3.973-1.786 6.764-2.104 7.739-.882 13.175 2.629 16.532 6.713 1.367 1.663 2.527 3.468 3.257 5.611.233.686.217 1.813 1.002 1.954.689-.194.684-1.092.802-1.653.441-2.088.701-4.416.701-6.763.002-9.91-3.476-16.658-7.766-22.145-2.852-3.648-6.567-6.839-11.021-8.918-4.579-2.137-9.756-3.682-16.183-3.557-1.74.033-3.451.269-4.96.551-4.491.839-8.164 2.409-11.522 4.509-2.127 1.329-4.16 2.914-5.662 5.01-1.498 2.09-2.821 4.405-3.307 7.365-1.148 7.009 2.349 11.78 6.463 14.479 2.165 1.42 5.157 2.389 8.417 1.954 3.192-.425 5.258-1.525 7.364-3.307 2.252-2.399 4.715-5.166 4.56-9.669-.12-3.474-1.423-5.756-2.956-7.715-.511-.653-1.27-1.229-1.402-2.155.21-1.042 1.112-1.392 1.653-2.104.689-.564 1.047-1.458 2.154-1.603.989.273 1.586 1.228 2.204 2.004 1.884 2.364 3.185 5.33 3.758 8.868.777 4.805-.787 8.913-2.405 11.924-.234.436-.706.919-.501 1.503.773.05 1.437-.425 2.054-.752zm-35.872-3.658c-.22-.655-.295-2.333-1.253-1.954-.431.671-.536 1.519-.701 2.305-1.298 6.201-.362 13.49 1.503 18.337 1.722 4.471 4.04 8.001 6.914 11.222.973 1.089 2.022 2.018 3.106 2.956 4.237 3.667 9.902 6.511 16.633 7.565 3.676.576 7.629.528 11.072-.1 6.8-1.241 12.229-3.835 16.133-8.066 1.938-2.1 3.794-4.454 4.509-7.615.804-3.553.321-7.486-1.103-10.17-1.394-2.629-3.475-4.692-6.062-6.062-1.306-.692-2.903-1.239-4.659-1.353-5.912-.383-9.94 2.353-12.374 5.711-1.702 2.349-3.001 5.646-2.305 9.369.478 2.555 1.612 4.446 3.006 6.062.389.451 1.25 1.174 1.253 1.804.003.859-1.102 1.552-1.604 2.054-.673.673-1.082 1.416-2.104 1.604-.976-.226-1.65-1.166-2.255-1.954-1.805-2.359-3.376-5.344-3.907-8.817-.769-5.021.764-8.936 2.455-11.974.234-.422.653-.953.45-1.503-.597-.119-1.08.303-1.553.551-1.462.768-2.983 1.478-4.709 1.954-2.4.663-5.16.696-7.966.25-5.018-.797-8.442-3.639-11.223-6.563-1.069-1.204-2.54-3.481-3.256-5.613z" fill-rule="evenodd"/></svg>