<svg enable-background="new 0 0 460.138 595.28" viewBox="0 0 460.138 595.28" xmlns="http://www.w3.org/2000/svg"><g fill="#010101"><path d="m257.712 306.759v-258.738c-45.042 40.949-60.65 87.927-60.65 151.095v80.801h-83.904l-50.806 33.908h94.488l40.222-26.841v258.736c45.042-40.949 60.65-87.927 60.65-151.095v-80.801h83.904l50.806-33.908h-94.488z"/><path d="m414.094 18.126c-18.538-7.15-36.854-10.126-52.805-10.126-36.713 0-66.939 13.818-87.222 27.533l82.429 21.066z"/><path d="m40.68 575.617c18.471 7.124 36.148 10.125 52.625 10.125 36.004 0 67.085-13.795 87.401-27.533l-82.429-21.065z"/></g></svg>