<svg enable-background="new 0 0 56.531 77.516" viewBox="0 0 56.531 77.516" xmlns="http://www.w3.org/2000/svg"><path clip-rule="evenodd" d="m55.927.099c.263 1.333.146 2.75.146 4.192 0 4.687.065 9.884-.098 14.189-1.709.388-4.257-.063-6.046.243.259.41.898.477 1.413.731 1.396.69 2.701 1.787 3.56 3.121 1.14 1.77 1.938 4.203 1.512 7.069-2.212.245-4.615.01-6.973.098-2.29.086-4.663-.175-6.68.147-.494 3.676 3.127 6.492 6.826 5.119.71-.263 1.213-.623 1.658-1.121.454-.509.656-1.129 1.121-1.657 1.112-.052 2.674-.142 3.706.049.08.822-.33 1.553-.683 2.145-1.098 1.843-2.748 3.078-4.827 3.95 1.511.447 3.765-.033 5.363.243.261.733.146 1.551.146 2.341v7.313c0 3.271.113 6.657-.146 9.752-1.307.27-3.225-.072-4.535.195.06.448.596.479.878.634.939.513 1.763 1.321 2.341 2.341 1.081 1.903.926 4.737.926 7.654.001 2.905.079 5.927-.097 8.436-.73.258-2.266.188-3.072.049-.284-.253-.008-1.065-.243-1.365-.841.128-1.546.734-2.438 1.023-2.605.846-6.711.731-8.776-.78-1.241-.907-2.064-2.354-2.048-4.242.018-2.05.882-4.019 2.389-4.924 2.02-1.213 5.152-1.286 7.753-2.048.767-.225 1.662-.497 1.853-1.414-.283-1.585-3.226-1.905-5.071-1.365-.886.259-1.638.654-2.194 1.219-.598.606-.784 1.393-1.219 2.145-1.156.103-3.048.263-4.047-.098.311-2.57 1.405-4.818 3.169-6.095.613-.443 1.38-.589 1.999-1.121-1.791-.246-3.661-.098-5.559-.098-4.768-.001-9.456 0-14.237 0-.89 0-1.828-.109-2.682.146-.265 1.486-.146 3.087-.146 4.681-.001 4.709.081 9.789-.098 14.384-6.796.182-13.908.123-20.625-.098-.158-12.697-.147-25.611-.145-38.764.001-12.157.049-24.12.049-36.08 0-.751-.093-2.134.146-2.34.035-.045.088-.074.146-.098 18.1.231 37.02-.045 55.585.099zm-15.018 18.527c-6.438-.001-13.216-.037-19.894.146-.264 1.566-.146 3.236-.146 4.876.001 5.151-.061 9.992.098 14.822 1.884.259 3.87.178 5.851.098 1.978-.079 4.013-.013 5.998.049 1.986.062 4.022-.048 5.997-.049 2.014 0 3.989.096 5.899-.146-.513-.45-1.187-.534-1.755-.829-3.094-1.604-4.761-5.205-4.583-9.411.175-4.161 2.292-7.274 5.314-8.728.471-.226.973-.287 1.463-.683-1.399-.258-2.83-.144-4.242-.145zm9.606 4.486c-2.983-2.578-8.066-.275-7.802 3.706 1.384.263 3.046.146 4.681.146 1.621 0 3.294.079 4.73-.098.025-1.556-.642-2.918-1.609-3.754zm.097 45.004c-1.748.772-5.235.472-6.534 1.853-.441.47-.763 1.274-.536 2.146.647 2.492 5.096 2.527 6.68.779.626-.689.779-1.823.731-3.218-.019-.536.131-1.25-.292-1.561-.017.001-.033.001-.049.001z" fill-rule="evenodd"/></svg>