<svg enable-background="new 0 0 79.312 69.508" viewBox="0 0 79.312 69.508" xmlns="http://www.w3.org/2000/svg"><g clip-rule="evenodd" fill-rule="evenodd"><path d="m.274 0c20.517.118 42.832-.045 63.614.247.159 10.081.16 20.609.049 30.549-.917.225-1.901.099-2.862.099-15.423 0-31.444-.141-46.588 0-.26.512-.148 1.13-.148 1.678.001 7.642-.001 15.231 0 23.097 0 .527-.017 1.19 0 1.776.018.642-.047 1.335.148 1.678 4.095.24 9.083.156 13.325.099.021-.044.044-.088.099-.099.267-8.596-.04-17.827.148-26.255 2.04-.203 4.139-.148 6.218-.099 2.145.052 4.296-.049 6.465-.049 12.887 0 26.005.062 38.396.247.259.705.148 1.483.148 2.221 0 11.4.105 22.734-.099 34.299-19.53.014-39.709.057-59.469-.05-6.588-.036-13.163.023-19.543-.198-.267-1.371-.148-2.803-.148-4.195 0-20.864.001-41.921 0-62.824 0-.747-.066-1.742.1-2.073.026-.071.075-.12.147-.148z"/><path d="m79.137.296c.268 2.226.1 4.559.099 6.909-.001 7.68.182 15.858-.049 23.639-2.206.21-4.654.05-7.058.05-2.405 0-4.831.091-6.958-.099-.103-9.79-.204-20.517 0-30.5 4.377-.256 9.377-.13 13.966.001zm-13.276.691c-.181 7.144-.099 14.88-.099 22.011 0 1.243.052 2.487 0 3.701-.048 1.142-.152 2.316.099 3.405 4.023.14 8.659.19 12.634.05.268-1.175.148-2.396.148-3.603 0-1.224-.029-2.479 0-3.701.146-6.127-.189-12.195 0-18.211.041-1.296.088-2.57-.148-3.652-4.118-.2-8.559-.221-12.634 0z"/></g></svg>