<svg enable-background="new 0 0 82.721 57.778" viewBox="0 0 82.721 57.778" xmlns="http://www.w3.org/2000/svg"><g clip-rule="evenodd" fill-rule="evenodd"><path d="m33.303.208c.16 3.45.161 7.571 0 11.021-6.896.218-14.294-.126-21.464.097-.312.864-.217 1.916-.192 2.9.071 2.962-.087 6.037.145 8.846.845.262 1.77.146 2.659.146 2.637.001 5.486-.019 8.218.097 3.658.154 7.21-.255 10.587.097.16 3.535.167 7.86 0 11.36-7.036.252-14.06-.129-21.416.097-.432 7.31.138 15.354-.192 22.72-3.598.192-7.76.096-11.458.048-.253-16.741-.146-33.645-.146-50.564 0-1.233 0-2.463 0-3.674 0-1.123-.148-2.263.098-3.336 11.04-.074 22.027.008 33.161.145zm-16.29.194c-5.275-.001-11.143-.135-16.437 0-.382.422-.241 1.037-.241 1.547.002 18.573-.027 36.908.193 55.204.75.229 1.607.146 2.465.146 2.713 0 5.637.04 8.219-.048.35-.851.18-1.807.144-2.707-.036-.896.056-1.8.048-2.708-.064-7.728-.097-15.81-.097-23.493 0-4.903 0-9.797 0-14.647 0-.914-.084-1.876.144-2.755 6.701-.182 14.545.199 21.464-.097.258-1.527.145-3.345.145-5.124.001-1.799.103-3.622-.145-5.173-5.056-.145-10.421-.145-15.902-.145z"/><path d="m47.467.159c.258 1.817.145 3.737.145 5.656 0 5.683-.079 11.735.097 17.306 1.815.273 3.727.144 5.656.097 5.776-.142 11.912.186 17.596-.097.154-.895.148-1.867.145-2.804-.022-6.731-.141-13.551.048-20.206 3.777-.21 7.743-.061 11.408-.049.189 18.831.192 38.672.097 57.525-3.702.223-7.852.044-11.408.049-.286-7.185-.035-15.173-.193-22.672-.043-.021-.086-.043-.097-.097-7.668-.176-15.743-.152-23.155.048-.263.875-.145 1.839-.145 2.756 0 6.248.078 13.507-.097 19.965-3.83.123-8.215.221-12.037.048-.302-2.324-.103-4.714-.097-7.106.031-12.242-.099-24.227-.097-36.062.001-3.677.032-7.387.048-10.877.006-1.159-.222-2.342.098-3.48 3.639-.134 8.322-.201 11.988 0zm32.291.194c-2.604 0-5.816-.039-8.169.049-.329.456-.194 1.082-.194 1.595.002 16.149-.026 32.326.098 48.244.018 2.315-.223 4.65.097 6.912.784.254 1.701.146 2.61.146h5.511c.91 0 1.825.113 2.61-.146.185-18.985.077-37.848-.049-56.655-.766-.257-1.644-.145-2.514-.145z"/></g></svg>