<svg enable-background="new 0 0 72.433 73.299" viewBox="0 0 72.433 73.299" xmlns="http://www.w3.org/2000/svg"><path clip-rule="evenodd" d="m49.927.09c.266 1.084.15 2.248.15 3.377v3.528c0 6.853.143 14.049 0 20.766-8.922.249-18.334.219-27.268.05-.168-1.3-.166-3.286 0-4.586 7.326-.363 15.189.166 22.58-.252.197-5.942.086-12.153-.051-18.094-11.857-.176-23.405-.051-35.632-.051-1.66 0-3.356-.114-4.99.151-.272 1.281-.151 2.632-.151 3.931-.002 9.092.1 18.607.1 27.973 0 8.149.246 16.192.102 23.739-.051 2.627-.08 5.26.15 7.863 1.404.241 2.934.193 4.436.151 4.293-.119 9.045.068 13.307-.101.352-.777.17-1.7.15-2.571-.061-2.706.002-5.71 0-8.669 0-3.892-.162-7.786.102-11.24 4.463-.033 9.123-.302 13.709-.101 4.562.201 9.152-.264 13.508.101.373 7.17-.088 15.174.303 22.328 1.332.272 2.789.151 4.234.151 4.285-.001 8.887.107 13.002-.051.27-.629.152-1.348.152-2.016-.006-21.62-.277-44.447-.152-66.329 1.391-.164 3.098-.189 4.436-.05.18 9.12.203 18.334.203 27.419 0 1.514-.072 3.055 0 4.586.141 3.038.051 6.021.051 9.072-.002 10.489.174 21.072 0 31.905-6.32.242-13.283.151-19.961.151-2.248 0-4.475.123-6.602-.151-.348-7.206.068-15.295-.303-22.328-5.82-.158-11.863-.167-17.892 0-.275.884-.143 1.84-.152 2.772-.062 6.073.16 13.35-.049 19.606-1.07.267-2.219.151-3.328.151-7.861 0-15.937.076-23.789-.151-.242-24.292-.334-48.865-.254-72.879 13.197-.356 27.086.066 40.623-.202 3.295-.065 6.274-.022 9.276.051z" fill-rule="evenodd"/></svg>