<svg enable-background="new 0 0 76.973 77.385" viewBox="0 0 76.973 77.385" xmlns="http://www.w3.org/2000/svg"><g clip-rule="evenodd" fill-rule="evenodd"><path d="m76.973 35.405c-4.417.297-9.393-.049-13.709.241-.254 1.004-.144 2.127-.144 3.234-.001 3.261.079 6.893-.097 10.041-3.161.145-6.987.277-10.523.144-1.127-.042-2.252.097-3.234-.144-.175-3.13-.097-6.7-.097-10.041 0-1.108.109-2.229-.145-3.234-4.475-.161-9.621-.161-14.095 0-.27 1.701-.145 3.437-.145 5.165 0 1.714-.065 3.443 0 5.165.063 1.703-.108 3.44-.048 5.165.059 1.703.082 3.427.048 5.117-.138 6.952.11 14.032-.145 21.095-1.38.14-2.721-.215-3.958-.483-7.548-1.633-13.55-5.009-18.343-9.461-.783-.728-1.459-1.591-2.221-2.414-2.921-3.157-5.329-6.9-7.192-11.344-1.825-4.35-3.136-9.826-2.897-15.495.129-3.073.437-5.711 1.014-8.254 1.702-7.505 5.201-13.108 9.751-18.005 2.948-3.173 6.468-5.894 10.668-7.869 4.225-1.987 9.062-3.625 14.723-3.958 6.558-.386 11.892.858 16.413 2.655 4.563 1.814 8.442 4.288 11.826 7.241 4.888 4.579 8.904 10.192 11.103 17.475.729 2.416 1.352 5.066 1.447 7.964z"/><path d="m62.974 63.161c.219 1.257.048 2.659.097 4.2.016.485.118 1.013 0 1.352-.124.356-.979.934-1.399 1.255-3.447 2.638-7.816 4.83-12.358 6.13-.309-.961-.114-2.075-.145-3.186-.07-2.541 0-5.41 0-8.254 0-.523-.115-1.089.145-1.544 3.959-.096 9.481-.113 13.66.047z"/></g></svg>