<svg enable-background="new 0 0 81.694 60.567" viewBox="0 0 81.694 60.567" xmlns="http://www.w3.org/2000/svg"><path clip-rule="evenodd" d="m81.514.145c.273 1.188.188 3.326.051 4.651-.746.308-2.316-.249-2.201.7.096.768 1.516.166 2.15.5.264.606.15 1.492.15 2.35 0 .839.076 1.745-.1 2.401-1.391.179-3.23.1-5.102.1-2.812 0-6.152-.562-5.85 2.251.301.349.84.181 1.25.2 2.988.142 6.824-.123 9.701.2.166 1.807.166 4.294 0 6.101-.816.268-1.768.15-2.701.15-2.715 0-5.814-.062-8.35.05-.264 3.23-.152 6.664-.15 10.102 0 8.472-.002 17.069 0 25.604 0 1.685.121 3.37-.15 5.001-9.887.061-20.185.153-30.055-.15.039-.925.557-1.729.9-2.55.682-1.634 1.393-3.271 2.1-4.951.342-.812.84-1.599.9-2.5-.83-.222-1.906-.2-2.951-.2-.5 0-1.031-.009-1.551 0-.436.008-1.057-.076-1.398.05-.559.205-1.197 1.964-1.502 2.5-.525.928-.916 1.789-1.35 2.601-.998 1.868-1.881 3.646-2.85 5.101-10.807.021-21.85.071-32.455-.2-.047-.5.518-.812.799-1.15.887-1.115 1.955-2.046 2.852-3.15 9.225-9.478 18.025-19.379 27.203-28.905 5.199-5.487 10.16-11.21 15.604-16.453 3.936-4.052 8.885-7.212 14.852-9.202 1.559-.519 3.049-.927 4.852-1.15 2.582-.32 5.641-.15 8.701-.15 2.245-.002 4.505-.084 6.651.098zm-11.851 4.801c-.117.016-.111.155-.199.2-.033.284.111.388.15.6.576.191 1.555.074 2.299.1.457.016.939.133 1.102-.251.097-1.19-2.62-.553-3.352-.649zm5.201.8c.674.233 2.229.248 2.9 0 .08-.194.08-.567-.049-.7-.769-.003-3.269-.649-2.851.7zm-10.951.35c.348 1.287 1.336.762 2.4.5.582-.144 1.227-.115 1.4-.5-.027-.39-.154-.679-.35-.9-1.319-.067-2.515.418-3.45.9zm-2 3.651c.26-.309 1.133-.866 1.049-1.35-.053-.306-.998-.78-1.301-.751-.588.058-.963.832-1.398 1.301-.615.66-1.52 1.271-1.5 2 .588.11 1.377.021 2.049.05.409-.369.677-.748 1.101-1.25zm-5.002 4.1c-.674 1.26-1.424 2.443-1.9 3.901.621.286 1.924.137 2.701.1.535-.482.629-1.234.9-1.9.268-.657.721-1.304.75-2.101-.687-.161-1.803-.23-2.451 0zm-3.949 7.752c-.584.846-1.024 1.773-1.502 2.7-.469.909-1.033 1.825-1.35 2.85.916.269 2.654.188 3.65.05.529-.794.935-1.76 1.301-2.701.373-.963.932-1.887 1.051-2.9-.834-.163-2.318-.163-3.15.001zm-3.153 11.301c-.867-.012-2.014-.021-2.699.05-1.475 2.369-2.639 4.961-3.951 7.401-.445.828-1.025 1.613-1.25 2.551 1.111.337 2.715.154 4.051.15.416-.001.807.096 1.15-.05.596-.642.84-1.543 1.15-2.35.322-.84.689-1.66 1-2.501.623-1.692 1.588-3.254 2-5.051-.386-.214-.923-.192-1.451-.2z" fill-rule="evenodd"/></svg>