<svg enable-background="new 0 0 83.182 83.49" viewBox="0 0 83.182 83.49" xmlns="http://www.w3.org/2000/svg"><g clip-rule="evenodd" fill-rule="evenodd"><path d="m82.87.107c.279 1.728.154 3.752.154 5.748 0 1.98.086 4.018-.103 5.8-3.541.259-7.156.155-10.822.155-10.897.002-22.219-.017-32.988.208-.162 4.997-.176 10.522 0 15.588.848.281 1.777.154 2.641.154 13.809.001 27.625-.203 41.223.053.172 1.826.104 3.875.104 5.903 0 2.04.123 4.138-.156 5.955-14.375.227-29.318-.034-43.707.259-.279.849-.154 1.755-.154 2.642-.002 13.405.191 27.323-.053 40.808-12.768.209-26.01.081-38.736-.052-.197-6.933-.155-13.909-.156-20.87 0-20.685-.257-41.387 0-62.299 21.279-.081 42.498-.102 64.424-.104 6.173 0 12.319-.154 18.329.052z"/><path d="m82.921 13.623c.209 3.823.264 8.372 0 12.223-14.033.165-28.361.204-42.051.104-.248-3.774-.219-8.375-.051-12.222 13.684-.24 27.971-.299 42.102-.105z"/><path d="m83.024 41.64c.08 13.696.279 27.73.053 41.585-1.701.28-3.465.156-5.23.155-12.387-.004-24.65.138-36.873 0-.197-12.94-.207-26.07-.207-39.254 0-.824-.115-1.694.156-2.486 13.156-.183 25.918-.154 39.254-.154.951-.001 1.931-.123 2.847.154z"/></g></svg>