<svg enable-background="new 0 0 287.178 62.206" viewBox="0 0 287.178 62.206" xmlns="http://www.w3.org/2000/svg"><g clip-rule="evenodd" fill-rule="evenodd"><path d="m82.524.231c.068 1.379-.558 2.681-.946 3.945-5.116 16.655-10.219 33.518-15.227 50.256-.757 2.531-1.431 5.122-2.446 7.574-18.486.032-37.8.052-56.41 0-2.553-.007-5.101.017-7.495-.237.491-2.696 1.454-5.263 2.209-7.89 2.214-7.701 4.653-15.482 7.18-23.116 1.693-5.115 3.139-10.309 4.734-15.463.797-2.576 1.59-5.137 2.367-7.731.75-2.511 1.498-5.079 2.524-7.495 20.691-.101 43.206-.14 63.51.157zm-27.455 11.203c-4.688-.01-9.753-.158-14.596-.158-1.668.001-3.517-.243-4.97 0-1.142.191-1.376 2.146-1.815 3.472-2.801 8.464-5.838 17.881-8.363 25.957-.628 1.565-1.125 3.237-1.657 4.891-.53 1.649-1.209 3.31-1.341 5.049 1.259.424 2.948.237 4.497.237 1.592 0 3.213.133 4.576-.079.742-1.245 1.079-2.741 1.499-4.181.864-2.962 1.729-5.92 2.604-8.757.439-1.426.714-2.956 1.499-4.181 5.25-.353 11.25.292 16.173-.237.645-1.462 1.279-3.344 1.341-5.128-3.623-.244-7.901-.237-11.755-.236-1.289 0-2.662.226-3.708-.316.321-1.685 1.009-3.307 1.5-4.97.483-1.641.777-3.43 1.735-4.734 5.25-.251 11.077.297 16.41-.158.948-1.866 1.64-3.988 2.21-6.232-1.779-.652-3.922-.235-5.839-.239z"/><path d="m150.847.231c-.024 1.378-.637 2.66-1.025 3.945-4.25 14.072-8.674 28.388-13.096 42.445-1.612 5.125-2.919 10.367-4.813 15.384-21.226.114-42.317.224-63.905-.079.028-1.385.548-2.72.947-4.024 5.092-16.67 10.251-33.481 15.543-50.177.804-2.538 1.426-5.146 2.525-7.574 20.378-.085 42.971-.229 63.824.08zm-41.578 11.282c-2.412 6.35-4.168 13.031-6.311 19.566-1.61 4.908-3.11 9.843-4.655 14.753-.514 1.632-1.22 3.248-1.341 4.97 2.732.304 6.135.177 8.836.079 1.431-3.248 2.374-6.764 3.55-10.256.574-1.703 1.162-3.453 1.735-5.207.565-1.729 1.311-3.481 1.736-5.207.106-.432.06-.902.158-1.341.311-1.397.95-2.859 1.42-4.261.989-2.947 1.896-5.749 2.84-8.6.474-1.431 1.076-2.908 1.184-4.418-2.569-.434-6.115-.103-9.152-.078z"/><path d="m218.854.31c-.037 1.377-.626 2.637-1.025 3.945-2.748 8.996-5.505 18.012-8.284 27.06-2.766 9.005-5.638 17.952-8.362 27.061-.375 1.254-.625 2.588-1.342 3.708-10.594.144-21.349.08-32.109.079-10.67 0-21.386-.019-31.717-.237.035-1.38.555-2.726.947-4.024 5.039-16.684 10.254-33.566 15.542-50.256.404-1.276.767-2.575 1.184-3.866.393-1.214.64-2.574 1.42-3.629 21.044-.103 42.551-.1 63.746.159zm-39.605 11.124c-.093.038-.179.084-.236.158-.732.402-1.188 1.631-1.736 2.446-1.699 2.528-3.393 5.043-4.97 7.337-5.073 7.325-10.062 14.65-15.069 21.933-1.686 2.453-3.572 4.789-4.891 7.495 1.122.308 2.498.125 3.865.158 1.355.032 2.828.367 3.787-.079.57-.265 1.055-1.444 1.499-2.13.522-.809 1.091-1.501 1.499-2.13 1.047-1.612 1.886-3.207 3.077-4.26 2.245-.078 4.677-.079 7.179-.079 2.469 0 5.086-.189 7.259.237.495 2.555.27 5.832.789 8.363 2.431.259 5.933.263 8.362 0 .166-3.204-.139-6.475-.315-9.783-.176-3.29-.406-6.629-.552-9.941-.22-4.99-.74-10.05-.947-14.753-.071-1.629.05-3.297-.473-4.812-2.404-.359-5.463-.063-8.127-.16z"/><path d="m287.178.31c-.001 1.38-.624 2.641-1.025 3.945-2.766 8.987-5.396 18.045-8.284 27.06-3.285 10.255-6.201 20.631-9.625 30.769-5.406.144-10.803.079-16.174.079-14.953-.001-29.163 0-44.023 0-1.25 0-2.578.19-3.787-.237.55-2.684 1.4-5.278 2.209-7.89 4.747-15.314 9.492-30.786 14.28-46.232.779-2.514 1.51-5.062 2.524-7.495 7.207-.289 14.561-.158 21.934-.158 14.157.002 28.354-.249 41.971.159zm-23.511 11.124c-9.768 0-19.918.071-29.507.079-.813.746-1.073 1.956-1.499 2.998-.442 1.085-.986 2.183-1.184 3.392 1.564.531 3.688.316 5.681.316h3.077c1.01 0 2.084-.177 2.919.236-.63 3.857-1.864 7.162-2.919 10.572-1.881 6.078-3.78 12.25-5.76 18.146-.404 1.204-.914 2.414-.947 3.708 1.204.412 2.819.237 4.419.237 1.567 0 3.22.122 4.497-.158 1.133-2.55 1.836-5.34 2.682-8.047 2.142-6.849 4.327-13.71 6.391-20.434.408-1.329.592-2.793 1.421-3.945 3.823-.304 8.24.187 12.071-.236 1.087-1.937 1.869-4.179 2.523-6.548-1.185-.559-2.583-.316-3.865-.316z"/><path d="m179.171 21.217h.157c.401 2.093.517 4.531.632 6.943.113 2.414.331 4.915.157 7.101-1.354.283-3.05.158-4.733.158-1.609 0-3.338.185-4.576-.237 1.781-3.483 4.023-6.852 6.154-10.256.803-1.285 1.194-2.721 2.209-3.709z"/></g></svg>