<svg enable-background="new 0 0 60.815 74.092" viewBox="0 0 60.815 74.092" xmlns="http://www.w3.org/2000/svg"><g clip-rule="evenodd" fill-rule="evenodd"><path d="m29.98.226c.253 6.932-.1 14.518-.101 21.691 0 1.863.082 3.73 0 5.51-.082 1.803-.159 3.664.051 5.26.365 2.781 1.681 4.787 3.256 6.363.188.188.553.443.451.801-10.485.139-20.536-.1-31.009-.1-.617 0-1.281.098-1.854-.15-.52-.805-.507-1.914-.6-2.957-.735-8.092.946-15.504 3.356-20.938 1.408-3.176 3.342-6.076 5.461-8.617 2.152-2.582 4.434-5.053 7.063-7.014 3.274-.029 7.243-.154 10.62 0 1.143.053 2.275-.15 3.306.151z"/><path d="m60.688.326c.296 6.197-.028 12.861.051 19.086.011.875.204 1.746-.101 2.557-3.29.154-7.044.049-10.821.049-3.686 0-7.522-.434-10.469.352-1.713.455-3.206 1.32-4.358 2.353-.364.326-.596.887-1.152.951-.224-7.816-.195-16.26 0-24.195.011-.449-.155-1.02.251-1.352 4.363-.035 9.31-.147 13.525 0 4.523.156 8.916-.174 13.074.199z"/><path d="m60.638 25.826c.201 14.154.02 28.23 0 42.83-.432.689-1.281.988-2.004 1.352-1.473.74-3.046 1.307-4.709 1.904-.809.291-1.677.641-2.555.65-.562-5.977.206-12.49-.101-18.936-.075-1.578.05-3.201.051-4.809 0-4.857.149-9.852.1-14.527-.035-3.346-1.56-5.791-3.206-7.613-.214-.238-.597-.496-.501-.902 4.155-.16 8.855-.274 12.925.051z"/><path d="m47.412 39.951c.356.07.287.58.301.803.141 2.367 0 5.021 0 7.463.002 8.316-.103 17.107-.351 25.248-4.106.94-9.42.699-13.375.1-4.158-.629-7.813-2.002-10.921-3.506-6.466-3.131-11.63-7.815-15.529-13.324-2.014-2.766-3.745-5.895-5.01-9.418-.418-1.166-.831-2.434-.951-3.758 3.879-.229 8.019-.102 12.223-.1 4.114 0 8.322-.027 12.323.15 4.016.176 8.406-.078 12.173.1 4.08.193 6.972-1.564 8.917-3.656.033-.069.108-.095.2-.102z"/></g></svg>