<svg enable-background="new 0 0 175.59 89.561" viewBox="0 0 175.59 89.561" xmlns="http://www.w3.org/2000/svg"><path clip-rule="evenodd" d="m175.468.122c.193 2.88.099 6.001.099 9.134 0 3.385.04 6.833-.05 10.024.036.135-.098.099-.099.197-51.595.102-104.06.049-155.384 0-.036.046-.089.075-.148.099-.229 4.972-.034 10.368-.099 15.504.046.036.075.09.099.148 6.54.258 13.065.146 19.553.147 45.23.008 89.913.098 135.881.1.049.066.132.099.197.147.056 6.162.14 12.779-.049 18.861.008.124-.076.155-.148.197-51.812.143-104.13-.099-155.335-.049-.101.015-.097.134-.197.149-.046 5.067-.146 10.313.049 15.306-.009.043.019.047.049.05 6.438.21 12.901.197 19.404.197 17.733.001 35.94 0 54.017 0 11.197 0 22.76.047 34.217.05 9.313.002 19.168-.002 28.737 0 6.442.001 12.822-.019 19.157.148.01.039.05.049.05.098.049 6.108.148 12.731-.05 18.812-7.285.186-14.581.1-21.873.099-14.851-.001-29.382-.046-43.796-.049-3.682-.001-7.387.103-11.061 0-5.433-.152-10.725-.051-16.293-.05-27.662.003-54.905.004-82.309-.197-.164-29.373-.063-59.867.05-89.073-.014-.08.046-.085.049-.148 51.305-.052 102.564.001 154.297 0 6.997 0 13.993-.091 20.986.099zm-1.63 1.432c-57.58-.11-114.663-.008-171.974-.099-.058.024-.112.053-.148.099-.267.637-.149 1.353-.149 2.024 0 2.211-.049 4.328-.049 6.468v25.527c0 10.136-.049 20.393-.049 30.267 0 1.419-.121 2.851.148 4.246.61.261 1.311.149 1.975.149 5.045 0 9.984.098 14.467-.049.011-.056.055-.077.099-.1.166-5.329.025-11.352.148-16.886 1.547-.294 3.139-.129 4.691-.099 1.649.032 3.289 0 4.937 0 47.646-.006 96.19.097 143.83.099.735 0 1.519.131 2.223-.148.087-.208.089-.487.099-.74.086-2.236 0-4.726 0-7.209 0-2.728.079-5.698-.099-7.999-3.215-.273-6.441-.099-9.678-.099-9.794 0-19.345-.101-28.934 0-13.069.137-26.079-.246-39.154-.049-6.499.098-13.028.001-19.553 0-18.464-.004-37.754-.098-55.992-.1-.791 0-1.607.12-2.37-.147-.072-5.437 0-10.837 0-16.492 0-.744-.174-1.561.149-2.222 51.716-.111 104.196.184 155.434-.05.115-.016.11-.153.197-.197-.076-5.277.166-11.187-.099-16.146-.064-.001-.069-.062-.149-.048zm-159.927 70.212c-4.104 0-8.491-.156-12.294.098-.164 5.083-.164 10.819 0 15.851 3.523.156 7.07.148 10.616.147 18.156-.002 35.991.046 53.869.05 35.308.008 72.033.222 107.787.049.01-.055.055-.076.099-.099.082-5.135.082-10.615 0-15.75-.056-.011-.077-.056-.099-.1-52.989-.095-106.903-.248-159.978-.246z" fill-rule="evenodd"/></svg>