<svg enable-background="new 0 0 66.779 78.405" viewBox="0 0 66.779 78.405" xmlns="http://www.w3.org/2000/svg"><g clip-rule="evenodd" fill-rule="evenodd"><path d="m66.636.311c.232 7.594.13 15.167.049 22.38-10.892.354-22.093-.168-33.107.098-5.541.133-11.13-.098-16.724-.098-5.577 0-11.17.081-16.724-.098-.162-7.195-.163-15.085 0-22.331.775-.287 2.054-.09 2.925-.195 1.253-.151 2.665 0 4.047 0 17.429 0 35.093.023 52.026.097 1.331.006 2.623.046 3.949 0 1.173-.04 2.406-.013 3.559.147z"/><path d="m44.109 28.25c.239 1.694.06 3.477.146 5.314.087 1.848-.079 3.765-.049 5.656.06 3.734.048 7.6-.098 11.312-14.395.149-29.417.008-43.98-.098-.178-6.311-.098-13.117-.098-19.649 0-.889-.113-1.799.147-2.633 12.446-.323 26.239-.048 38.909-.049 1.684 0 3.384-.101 5.023.147z"/><path d="m22.07 55.896c.265.86.146 1.815.146 2.73.001 5.554 0 11.339 0 16.968 0 .899.109 1.828-.146 2.682-1.841.178-3.757.098-5.656.098-5.641-.001-11.337.098-16.285-.049-.213-3.467-.098-7.277-.098-11.117 0-3.804-.08-7.672.098-11.263 6.927-.197 14.732-.188 21.941-.049z"/></g></svg>