<svg enable-background="new 0 0 77.838 78.847" viewBox="0 0 77.838 78.847" xmlns="http://www.w3.org/2000/svg"><path clip-rule="evenodd" d="m72.037.145c.181 3.588.098 7.349.097 11.068 0 3.727.114 7.51-.146 11.068-11.39.143-22.68.147-34.181.146-1.59 0-3.2-.118-4.728.098-.158 6.397-.224 13.152-.05 19.894 3.053.259 6.312.147 9.509.147 3.144 0 6.342-.004 9.361-.098-.01-.555-.519-.9-.829-1.268-1.952-2.311-3.928-4.753-5.899-7.119-.326-.392-.795-.729-.878-1.268 5.27-.377 11.276.166 16.919-.098.797-.036 1.674-.171 2.292 0 .662.183 1.52 1.578 1.95 2.097.712.86 1.349 1.497 1.805 2.243 1.042 1.708 2.379 3.111 3.511 4.535 2.015 2.535 4.218 5.142 6.289 7.85.283.37.776.962.78 1.219.007.364-.566.859-.877 1.22-2.961 3.426-5.681 6.913-8.533 10.336-.65.78-1.172 1.622-1.804 2.39s-1.277 1.528-1.902 2.292c-.618.756-1.186 1.578-1.95 2.193-5.852.144-12.697.172-18.528 0 .062-.525.514-.938.829-1.316 1.995-2.39 4.13-4.859 6.192-7.265.321-.374.706-.774.829-1.268-.717-.262-1.524-.146-2.292-.146-5.26-.001-11.385-.08-16.724.098-.261.733-.148 1.558-.147 2.341 0 5.584.08 11.643-.098 17.113-2.129.256-4.314-.005-6.485.098-2.129.102-4.315.147-6.436.049-4.317-.2-8.698.229-12.971-.098-.28-6.65.085-13.204-.242-19.456-.967-.164-2.147-.146-3.317-.146-1.14 0-2.343.115-3.267-.146-.083-5.27-.237-11.208.049-16.285 2.048-.24 4.426.081 6.485-.098.275-.805.195-1.686.195-2.535 0-13.225-.108-27.09.145-39.885 5.527-.201 11.078-.099 16.725-.098 15.898.002 32.243-.156 48.322.098z" fill-rule="evenodd"/></svg>