<svg enable-background="new 0 0 43.012 77.337" viewBox="0 0 43.012 77.337" xmlns="http://www.w3.org/2000/svg"><path clip-rule="evenodd" d="m42.892 22.533c-1.313.205-2.797.039-4.241.048-1.472.01-2.969.131-4.291-.097-.296-2.193-.377-4.226-1.06-5.88-.661-1.602-1.702-2.907-2.844-4.049-2.279-2.279-5.632-3.958-10.026-3.615-4.035.314-6.932 2.443-8.869 4.965-1.485 1.933-2.608 4.356-2.747 7.664-.043 1.012-.166 2.14.096 3.229 5.712.191 11.497.142 17.112.097 4.182-.034 8.376 0 12.677 0 1.406 0 2.822-.082 4.193.145.16 2.733.161 6.135 0 8.869-9.699.36-20.213-.127-30.078.048-1.351.024-2.683-.084-3.953.144-.163 6.867-.193 14.319-.193 21.161 0 5.334 2.006 8.603 5.013 11.038.964.781 2.186 1.522 3.567 1.784.228-.592.166-1.256.193-1.88.205-4.657-.087-9.493 0-13.931.107-5.441-.137-10.745.096-15.763 2.6-.156 5.678-.169 8.195 0 .224 1.243.192 2.563.145 3.856-.278 7.548-.048 15.987-.048 23.86v1.977c0 .612-.112 1.263.145 1.831 1.302-.255 2.36-1.049 3.278-1.783.963-.77 1.797-1.584 2.507-2.555 1.462-2 2.241-4.322 2.41-7.713.158-3.162.096-6.522.096-9.833 0-2.455 0-4.779 0-7.375 0-.748-.076-1.553.145-2.266 2.503-.151 5.714-.19 8.146.049.198 5.848.048 10.912.048 16.726 0 1.85-.024 3.646-.289 5.399-.994 6.573-4.044 11.179-8.339 14.46-.577.441-1.058.89-1.639 1.254-1.708 1.069-3.804 1.871-6.122 2.41-3.363.781-6.809.663-10.123-.145-5.878-1.435-10.268-5.098-13.063-9.737-1.443-2.395-2.458-5.266-2.892-8.532-.233-1.757-.096-3.63-.096-5.543 0-5.608-.034-11.478.048-16.871.057-3.709-.102-7.321 0-10.894.056-1.934-.104-3.832.048-5.592.432-4.998 2.56-8.863 5.158-11.905 3.393-3.974 8.385-7.236 15.425-7.568 3.701-.175 6.844.683 9.448 1.783 2.717 1.148 4.695 2.815 6.555 4.676 1.891 1.891 3.314 4.129 4.483 6.749 1.16 2.605 1.873 5.735 1.686 9.305z" fill-rule="evenodd"/></svg>