<svg enable-background="new 0 0 87.366 27.965" viewBox="0 0 87.366 27.965" xmlns="http://www.w3.org/2000/svg"><g clip-rule="evenodd" fill-rule="evenodd"><path d="m87.011.001c.531.266.309 1.024.309 1.489 0 8.749.079 17.734-.052 26.299-9.96.138-20.124.259-30.356.103-7.05-.107-15.029-.052-22.497-.051-1.597 0-3.705.051-5.65.051-.401 0-1.623.139-1.593-.308.024-.33.823-.156.977-.154 2.698.041 6.126-.15 8.424.154 2.019-.321 4.106-.103 6.163-.103 14.698 0 29.335.04 44.02-.103.322-.923.225-2.069.205-3.184-.135-7.743.037-16.257-.103-24.039-.01-.112.04-.163.153-.154z"/><path d="m5.958 5.908c-.271.778-.154 1.706-.154 2.619 0 2.239-.023 4.627 0 6.934.004.382.154.835-.103 1.13-.477-.081-.352-.697-.359-1.027-.066-3.108.085-7.036.102-10.119 3.926-.161 7.922-.102 12.174-.102h20.699c4.588 0 9.42.026 14.33 0 .362-.002 1.753-.234 1.645.308-.058.285-.285.17-.771.154-.284-.009-.898.05-.925.051-4.575.208-9.329 0-13.611 0-11.395.001-22.093-.08-33.027.052z"/><path d="m81.515 5.753c-.509.202-1.223.103-2.003.103-6.307 0-13.109-.094-19.211.102-.247 1.018-.187 2.712-.153 4.058.01.403.189.881-.052 1.13-.543-.049-.359-.796-.359-1.233 0-1.417-.108-3.374.103-4.469 6.644-.072 13.929-.169 20.7-.102.285.004.933-.143.975.411z"/><path d="m54.343 16.694c-.237.383-.729.102-1.079.103-6.493.007-13.695.079-20.134.154-.262 1.006-.169 2.726-.154 4.058.005.427.148.876-.052 1.13-.575.05-.41-.679-.41-1.13 0-.458 0-1.02 0-1.541 0-.958-.108-2.616.153-2.979.038-.048.094-.078.154-.103h20.494c.318 0 .918-.163 1.028.308z"/><path d="m81.515 16.746c-.253.324-.764.154-1.13.154-6.548 0-13.549-.059-19.98 0-.572 1.235-.092 3.923-.257 5.239-.604.046-.411-.757-.411-1.181 0-1.048 0-2.11 0-3.185 0-.505-.127-1.075.205-1.335 6.462-.035 13.705 0 19.981 0 .484 0 1.261-.236 1.592.308z"/><path d="m21.83 16.591c.017.001.034 0 .051 0 .622.003.359 2 .359 2.723 0 1.24.074 2.243-.103 2.928-3.735.181-8.169.103-12.276.103-1.352 0-2.693-.101-3.903.103-.414 1.435.074 3.772-.257 5.29-1.247.19-3.049.119-4.469.052-.431-.021-1.051.18-1.232-.258.2-.333.779-.154 1.182-.154 1.293 0 2.957.09 4.057-.051.379-1.471-.005-3.704.206-5.342 5.172-.307 11.059.101 16.231-.206.232-1.446.206-3.521.051-5.034-.002-.087.038-.132.103-.154z"/></g></svg>