<svg enable-background="new 0 0 14.87 14.675" viewBox="0 0 14.87 14.675" xmlns="http://www.w3.org/2000/svg"><path d="m.003.003c1.559-.004 3.119-.003 4.678 0 .005 1.537.001 3.074.002 4.61-1.561 0-3.122-.002-4.682.001.011-1.537.005-3.074.002-4.611z"/><path d="m5.115.001c1.554-.001 3.108.002 4.661-.001v4.613c-1.554 0-3.108 0-4.662 0 .007-1.537.004-3.075.001-4.612z"/><path d="m10.212 0c1.552.001 3.105.002 4.657 0-.003 1.538.001 3.075-.002 4.613-1.552-.001-3.104 0-4.656 0 .001-1.538.001-3.075.001-4.613z"/><path d="m0 5.047c1.561.002 3.122.001 4.683 0-.001 1.538.003 3.075-.002 4.612-1.559-.001-3.118 0-4.677-.001 0-1.536.009-3.074-.004-4.611z"/><path d="m5.113 5.048c1.555 0 3.109-.001 4.663.001-.001 1.538 0 3.075 0 4.612-1.552-.005-3.104-.003-4.656 0-.01-1.538.005-3.075-.007-4.613z"/><path d="m10.212 5.048c1.552.001 3.104 0 4.656 0 .001 1.538-.003 3.075.002 4.612-1.554-.002-3.107-.003-4.661 0 .006-1.537.001-3.074.003-4.612zm.3.263c.005 1.336.007 2.673-.001 4.009 1.353-.005 2.706-.009 4.059.003-.009-1.337-.008-2.675 0-4.013-1.353.002-2.705 0-4.058.001z"/><path d="m.003 10.075c1.56-.007 3.121.002 4.681-.004 0 1.533-.001 3.067 0 4.6-1.561-.01-3.122-.003-4.683-.003.009-1.531.006-3.062.002-4.593z"/><path d="m5.115 10.07c1.554.002 3.108.01 4.661-.004v4.607c-1.073-.015-2.147-.002-3.221-.007-.481.005-.962-.008-1.443.007.01-1.534.006-3.069.003-4.603zm.287.307c.002 1.337.002 2.674 0 4.011.689-.011 1.379-.002 2.068-.005.667.007 1.336-.014 2.002.01-.001-1.34-.001-2.681 0-4.021-1.356.016-2.714.005-4.07.005z"/><path d="m10.21 10.066c1.553.013 3.106.008 4.659.002-.002 1.534 0 3.068-.001 4.603-1.276-.011-2.553-.002-3.829-.005-.276.003-.552-.008-.827.009 0-1.537.002-3.073-.002-4.609zm.301.307c.01 1.34.003 2.68.003 4.02.624-.023 1.249-.003 1.873-.01.726.007 1.454-.014 2.179.01-.005-1.34.001-2.68-.003-4.019-1.35.009-2.701.01-4.052-.001z"/></svg>