<svg enable-background="new 0 0 79.438 67.329" viewBox="0 0 79.438 67.329" xmlns="http://www.w3.org/2000/svg"><path clip-rule="evenodd" d="m12.67 0c11.198-.007 22.332.101 33.098.101 11.42 0 22.363-.076 33.5.15.2 3.109.103 6.782.051 9.975-2.321.369-4.676-.01-7.053.102-2.332.108-4.732-.001-7.104 0-9.601 0-19.229.064-28.563 0-3.533-.025-7.081-.102-10.529-.102-1.152.001-2.312-.116-3.425.151-.261 10.583-.138 21.007 0 31.788.953.18 2.596.183 3.677.051.274-1.084.152-2.232.152-3.376 0-8.02-.084-16.561.1-24.482 12.951-.153 26.516-.003 39.697 0 4.405 0 8.772-.107 12.997.15.184 1.544.102 3.323.102 5.038 0 1.713.161 3.434-.102 4.836-13.825.343-28.643-.177-42.618.151-.322 1.195-.201 2.684-.202 4.281 0 4.528-.072 9.056.101 13.401 1.028.255 2.475.085 3.678.05.272-.99.15-2.208.15-3.426 0-3.441-.003-7.012.1-10.327 12.521-.147 25.974-.114 38.79.101.146 3.121.206 6.931 0 9.925-2.259.274-4.647.101-7.053.101-7.105 0-14.751-.06-21.511.051-.273.87-.187 2.573-.051 3.526 1.118.267 2.316.151 3.477.15 8.279-.001 16.776.009 25.138.151.2 1.383.151 3.166.151 4.938 0 1.743.1 3.546-.151 5.037-9.303.222-19.356-.149-28.563.101-.269 1.109-.15 2.343-.15 3.577-.001 2.433 0 4.97 0 7.456 0 1.235.121 2.471-.151 3.576-3.06.168-6.815.168-9.874 0-.322-4.687.146-10.121-.252-14.609-.983-.195-2.512-.104-3.577-.05-.356.471-.255 1.135-.252 1.713.021 4.076.173 8.919-.101 12.946-3.075.234-6.602.055-9.723 0-.271-1.113-.15-2.354-.15-3.576 0-3.605.082-7.597-.101-11.083-1.007-.166-2.67-.166-3.677 0-.272 1.112-.151 2.353-.151 3.576 0 3.573.082 7.527-.1 10.982-.722.267-1.582.151-2.419.151-2.451 0-5.227.064-7.506-.151-.301-4.619.099-9.939-.201-14.559-.911-.268-1.953-.151-2.973-.151-2.984 0-6.352.082-9.219-.101-.168-3.075-.167-6.849 0-9.925 3.813-.3 8.327.099 12.141-.201.268-1.653.151-3.386.151-5.088.001-11.566-.001-22.834 0-34.357 0-.833-.075-2.112.101-2.569.027-.071.076-.121.15-.15z" fill-rule="evenodd"/></svg>