<svg enable-background="new 0 0 76.378 36.965" viewBox="0 0 76.378 36.965" xmlns="http://www.w3.org/2000/svg"><g clip-rule="evenodd" fill-rule="evenodd"><path d="m18.319 15.823c-1.328.363-2.915.152-4.556.152-3.146 0-6.328.084-9.515.101-1.085.006-4.071.342-4.201-.557-.01-.066.007-.136 0-.202-.033-.874.919-.708 1.518-.708h13.261c.795 0 1.652.155 1.974-.102.468-.373.253-2.608.253-3.391 0-1.283-.002-2.472-.05-3.492-.175-3.708 1.918-5.786 4.353-6.833 2.21-.951 5.479-.793 8.757-.759 5.373.057 10.843.152 16.247.152 8.055 0 16.234-.037 23.739-.051 1.02-.002 2.301.084 3.442 0 .528-.039 1.171.062 1.721.101.476.033 1.172-.004 1.114.658-.175.985-1.359.559-2.025.557-.794-.003-1.716-.017-2.48 0-1.67.037-3.44 0-5.112 0-3.539 0-7.234.047-10.477.051-1.573.001-3.269-.104-4.96-.051-4.887.153-10.128-.051-15.387-.051-3.309 0-7.071-.084-10.274-.05-3.173.033-5.757 1.272-6.783 3.644-1.243 2.868.169 7.52-.559 10.831z"/><path d="m52.383 35.411c.835.337 1.842.202 3.087.202.794 0 2.581.235 2.986-.253.423-.509.152-2.812.152-3.746 0-2.825.15-5.097.051-7.744-.172-4.585-.152-9.471-.152-14.83 0-1.059-.247-3.244.152-3.695.42-.477 3.753-.152 4.505-.152 4.027 0 7.888.023 11.439.051.629.004 1.619-.262 1.771.557v.101c-.031.842-1.021.608-1.569.608-4.33 0-8.328 0-12.603 0-.824 0-1.596-.145-1.923.101-.467.35-.253 2.473-.253 3.543 0 6.384.05 12.623.05 19.133 0 1.045.102 2.453.102 3.796 0 1.063.202 3.331-.203 3.695-.33.297-1.601.151-2.227.151-1.757 0-2.975 0-4.707 0-.777 0-1.579.108-2.177-.151-.276-1.24-.152-2.507-.152-3.746 0-3.875-.05-7.547-.05-11.337 0-3.579 0-7.481 0-11.439 0-1.062.19-3.14-.253-3.594-.288-.294-1.688-.261-2.683-.253-4.548.035-9.674-.188-14.324-.051-1.897.056-4.105-.261-5.365.355-.708.346-1.319 1.006-1.569 1.721-.244.697-.152 1.946-.152 3.037 0 .814-.196 2.523.152 2.936.402.477 3.248.234 4.201.253 2.843.056 5.795.101 8.807.101 1.333 0 3.627-.455 3.391.911-.094.544-1.091.385-1.923.405-4.556.109-9.098-.05-13.717-.05-.774 0-1.63.093-2.126-.152-.31-1.159-.202-2.474-.202-3.796 0-1.538-.165-3.278.253-4.352.624-1.605 2.199-2.579 4.403-2.683 1.967-.093 3.815.051 5.669.051 4.514 0 9.255.051 14.071.051.887 0 2.338-.128 2.632.203.363.404.203 2.866.203 3.691 0 3.955.05 7.556.05 11.388 0 3.747-.05 7.602-.05 11.389 0 1.228-.066 2.471.253 3.594z"/><path d="m42.816 30.906c.073.179.111.703-.051.81-.531.438-1.329.253-2.024.253-3.693 0-7.56.068-11.338-.051-1.483-.046-2.919.116-4.251-.152-.309-.704-.253-1.906-.253-2.986 0-2.062.091-4.217 0-6.378-.046-1.081-.192-2.748.557-2.885.548-.1 1.826-.001 2.48 0 3.651.009 7.706.101 11.794.101 1.203 0 3.477-.323 3.138.962-.187.708-2.918.405-3.897.405-3.614 0-6.802-.051-10.477-.051-.687 0-1.723-.068-1.974.152-.341.299-.203 1.516-.203 2.227v4.809c0 .692-.089 1.88.203 2.176.439.445 3.146.171 4.049.203 3.558.123 6.741.101 10.477.101.603 0 1.347-.129 1.77.304z"/><path d="m18.268 19.771c.468.747.253 1.82.253 2.834v6.175c0 1.036.12 2.085-.152 2.986-1.417.274-2.969.152-4.555.152-3.83 0-7.867.051-11.692.051-.676 0-1.536.183-1.974-.354-.075-.19-.075-.569 0-.759.451-.475 1.213-.304 1.873-.304h6.428c2.895 0 5.848.087 8.352-.101.446-.53.304-1.367.304-2.176 0-.768 0-1.64 0-2.43 0-1.674.142-3.418-.203-4.708-.837-.318-1.967-.202-3.138-.202-3.076 0-7.068.027-9.718.051-.59.005-1.307-.059-2.126-.051-.683.007-1.482.238-1.771-.253-.741-1.256 1.489-1.012 2.683-1.012 5.1-.001 10.664-.068 15.436.101z"/><path d="m.097 36.524c-.198-1.076.38-1.067 1.215-1.113 2.431-.134 5.08.05 7.693.05h14.476c5.514 0 10.82.102 16.804.102.747 0 2.764-.335 2.683.759-.051.698-1.026.616-1.873.607-3.785-.039-7.954-.101-11.945-.101-8.603 0-17.4 0-26.472 0-.852 0-1.9.286-2.581-.304z"/></g></svg>