<svg enable-background="new 0 0 81.702 76.293" viewBox="0 0 81.702 76.293" xmlns="http://www.w3.org/2000/svg"><g clip-rule="evenodd" fill-rule="evenodd"><path d="m57.971.128c.194 6.882.153 14.268.153 21.429 0 .986.098 1.96-.102 2.864-5.691.296-12.455-.095-18.309.204-.27.947-.153 1.975-.153 2.966-.001 6.196.051 12.299.051 18.463 0 .979.123 1.991-.153 2.915-6.035.304-12.941-.099-18.82.204-.33 7.572.115 16.266-.204 24.293-6.262.262-13.387.158-20.1.102-.341-.656-.204-1.452-.204-2.148.002-21.561-.101-44.574-.103-66.689 0-1.505-.121-3.027.153-4.5 12.808-.323 26.601.052 39.892-.153 5.92-.092 11.942-.132 17.899.05z"/><path d="m81.496 2.788c.222 23.847.25 49.01.153 73.235-1.114.337-2.318.205-3.478.205-18.25-.005-36.429.181-54.262-.052-.264-7.667-.202-16.258-.052-24.292 4.389-.198 9.141-.102 13.809-.102 1.513 0 3.018.035 4.398-.153.202-5.75.104-12.123.102-18.309-.001-2.05-.127-4.065.102-5.983 6.099-.312 12.949.129 18.974-.256.302-1.851.103-3.872.103-5.933 0-5.15.001-10.174 0-15.445 0-.749-.128-2.706.205-2.915.037-.048.093-.077.153-.102 6.567.059 13.553-.123 19.793.102z"/></g></svg>