<svg clip-rule="evenodd" fill-rule="evenodd" stroke-linejoin="round" stroke-miterlimit="2" viewBox="0 0 560 400" xmlns="http://www.w3.org/2000/svg"><path d="m308.7 0c-170.2 0-308.7 138.5-308.7 308.7s138.5 308.7 308.7 308.7 308.7-138.5 308.7-308.7-138.4-308.7-308.7-308.7zm104.1 274.7h-70v-204.1c24.7 3.5 48.3 10.8 70 21.2zm-138.1-137.2h-134.9c35.8-35.3 82.7-59.5 134.8-67v67zm0 68.1v69h-204.1c3.5-24.4 10.6-47.6 20.8-69zm-69.4 137.2h69.3v204.1c-24.5-3.5-47.8-10.6-69.3-20.9zm137.5 137.6h134.3c-35.8 35.1-82.4 59.1-134.3 66.5zm0-68.1v-69.5h204.1c-3.5 24.5-10.7 47.9-21 69.5zm204.1-137.6h-66v-133.9c34.8 35.7 58.6 82.2 66 133.9zm-476.3 68.1h66.7v134.5c-35.3-35.8-59.3-82.5-66.7-134.5z" fill-rule="nonzero" transform="matrix(.485909 0 0 .485909 130 50)"/></svg>