<svg enable-background="new 0 0 169.378 170.072" viewBox="0 0 169.378 170.072" xmlns="http://www.w3.org/2000/svg"><path clip-rule="evenodd" d="m168.829.173c.164 28.534.396 57.013.396 85.043 0 27.735.264 56.159.1 84.548-.808.262-1.694.148-2.522.148-13.03.001-25.831.085-39.06.05-.049-.067-.132-.099-.198-.148-.18-4.195-.004-8.57-.05-12.855-.014-1.384-.211-2.808.099-4.104.04-.01.049-.05.099-.05 7.909-.255 16.032.104 23.881-.099.298-.008.55.009.791-.148.119-44.843-.127-90.173-.346-134.683-.044-.022-.088-.044-.099-.099-44.373-.028-89.412.175-134.14.296-.022.044-.043.089-.099.099-.121 33.355.198 67.267.198 101.161 0 9.645.099 19.318.099 29.172 0 1.557-.149 3.3.148 4.351 17.3.145 35.058-.001 52.607 0 7.09 0 13.783-.05 20.915-.05 3.492 0 6.976.12 10.433-.148.29-6.428-.04-13.206.049-19.283.023-1.558.056-3.016.049-4.647-.002-.485-.196-.999.099-1.434.04-.009.049-.049.099-.049 8.199-.122 16.883.022 24.87-.148.022-.044.043-.088.099-.099.15-24.314-.15-48.303-.148-72.731 0-1.743.041-3.495 0-5.241-.046-1.908.02-3.967-.148-5.735-10.332-.354-21.014.122-31.594-.049-6.979-.113-13.955.049-21.013.049-7.098 0-14.045.049-20.816.049-2.648 0-5.249.05-7.96.05-.818 0-1.671-.118-2.472.148-.009.041-.049.049-.049.099-.03 6.924-.099 13.808.049 20.717.146 6.816-.139 13.893.05 20.667.097 3.492.066 7.036 0 10.532-.067 3.49.049 6.984.049 10.482 0 6.987.036 13.993.049 20.964.029.103.104.16.148.247 10.616.16 21.761.079 32.484-.049.065-.018.078-.087.148-.099.208-7.873-.086-16.645.099-24.919.04-.01.049-.05.099-.05 8.396-.288 17.403.088 25.661-.247.181-2.296.14-5.212 0-7.516-.641-.243-2.239-.099-3.362-.099-7.235-.001-14.948.035-22.249-.05-.08.014-.086-.046-.148-.049-.168-5.842-.163-11.851-.099-17.651.044-.022.088-.044.099-.099 8.377-.255 16.965-.047 25.513-.198.08.014.085-.047.148-.049.306-1.562.099-3.599.099-5.488 0-.693.063-1.509-.099-1.978-.594-.249-1.291-.213-1.928-.198-10.057.241-21.212-.153-31.396.198-.009.04-.05.049-.05.099-.289 16.254.225 33.062.05 49.69-.004.358.061.702-.148.939-5.638.016-11.601.231-17.157 0-.261-2.761-.149-5.582-.149-8.405 0-16.908-.147-33.939-.148-51.174 0-2.052 0-4.25 0-6.378 0-.844-.105-1.644.049-2.225 22.252-.183 45.801-.222 68.182-.198.028.071.078.121.149.148.131 22.565.316 45.63.148 68.083-8.166.234-16.569.001-24.87.148-.065.018-.078.087-.148.099-.204.973-.107 1.996-.148 3.016-.122 3.051.049 6.243.049 9.444 0 4.289.041 8.639-.049 12.855-.613.242-1.279.148-1.928.148-19.445.001-38.365.1-57.849.099-2.059 0-4.223 0-6.428 0-.832 0-1.645.094-2.274-.049-.255-9.81-.148-19.849-.148-29.814 0-29.975-.341-59.148-.247-89.195-.036-.135.098-.1.099-.198 39.334-.091 79.466-.391 118.664-.247.368 4.9-.013 9.897.148 14.883.161 4.968.049 9.969.049 14.932.002 29.401.245 58.142.247 87.712 0 .565.121 1.201-.148 1.731-.04.009-.049.049-.099.049-8.122.123-16.483-.037-24.622.148-.009.04-.05.049-.049.099-.188 7.195-.05 14.376-.05 21.755 0 .999.12 2.016-.148 2.966-9.841.159-19.735.148-29.665.148-29.74-.001-59.81.164-89.344-.049-.205-3.464-.148-6.971-.148-10.482 0-7.133-.049-14.277-.049-21.409 0-5.377 0-10.613 0-15.97 0-40.798-.445-81.122-.296-121.531 2.998-.176 7.129-.101 10.18-.101 16.586 0 33.554-.099 50.234-.099 3.388 0 6.792.057 10.185-.05 5.088-.159 10.08-.049 15.179-.049 11.714 0 23.701-.049 35.599-.049 11.654 0 23.46-.148 35.353-.148 3.136 0 5.522.011 8.602-.049 1.053-.022 2.683-.09 3.462.147z" fill-rule="evenodd"/></svg>