<svg enable-background="new 0 0 32.478 48.217" viewBox="0 0 32.478 48.217" xmlns="http://www.w3.org/2000/svg"><path d="m24.938.775c1.642-.236 3.258-.618 4.912-.775.668 3.526 1.282 7.061 1.895 10.599.084.523.276 1.064.119 1.592-9.924 1.611-19.829 3.4-29.725 5.176-.912-3.961-1.471-8.056-2.139-12.071 8.291-1.642 16.627-2.989 24.938-4.521z"/><path d="m2.061 17.638c10.134.01 20.284-.108 30.41.075-.071 4.114.114 8.251-.104 12.35-5.989-.004-11.977-.008-17.966-.006-.207 6.026.054 12.081-.169 18.105-4.073.045-8.165.128-12.235-.072-.065-10.146-.04-20.305.064-30.452z"/></svg>