<svg enable-background="new 0 0 30.109 30.111" viewBox="0 0 30.109 30.111" xmlns="http://www.w3.org/2000/svg"><g fill="#010101"><path d="m.193 16.03 3.664 8.845c.26.63.749 1.118 1.377 1.378l8.847 3.664c.309.127.636.193.974.193.337 0 .663-.066.974-.193l8.845-3.664c.628-.26 1.118-.749 1.378-1.378l3.661-8.845c.259-.618.259-1.33 0-1.948l-3.661-8.845c-.26-.629-.75-1.119-1.378-1.379l-8.847-3.663c-.308-.13-.636-.195-.973-.195-.336 0-.663.065-.973.196l-8.847 3.661c-.628.26-1.117.75-1.377 1.378l-3.664 8.846c-.257.619-.257 1.331 0 1.949zm5.175 4.616c0-.479.325-.891.79-1.003l2.41-.585v-7.491l-2.458-.719c-.438-.13-.742-.537-.742-.99v-2.387c0-.568.463-1.03 1.032-1.03h17.887c.569 0 1.033.462 1.033 1.03v5.978c0 .57-.463 1.033-1.033 1.033h-2.274c-.425 0-.812-.266-.962-.662l-.9-2.328h-4.424v1.308h3.166c.569 0 1.032.463 1.032 1.033v2.9c0 .57-.463 1.033-1.032 1.033h-3.166v1.308l2.166.573c.452.121.768.532.768.998v2.32c0 .568-.464 1.03-1.033 1.03h-11.228c-.569 0-1.032-.462-1.032-1.03z"/><path d="m17.026 21.109-2.485-.66c-.266-.069-.449-.307-.449-.581v-3.136c0-.333.27-.602.603-.602h3.594v-1.695h-3.594c-.333 0-.603-.271-.603-.603v-3.37c0-.335.27-.605.603-.605h6.162c.25 0 .473.155.563.388l1.006 2.602h1.258v-4.77h-16.68v1.327l2.766.812c.257.075.434.311.434.578v9.075c0 .279-.191.522-.461.586l-2.739.665v1.243h10.022z"/></g></svg>