<svg enable-background="new 0 0 48.77 84.668" viewBox="0 0 48.77 84.668" xmlns="http://www.w3.org/2000/svg"><g clip-rule="evenodd" fill-rule="evenodd"><path d="m48.562 29.322c-.367.119-.703-.231-.936-.416-1.804-1.425-3.817-2.813-6.444-3.482-3.245-.826-6.805-.483-9.511.779-4.941 2.306-8.449 6.817-9.043 13.669-.158 1.821-.052 3.695-.052 5.561 0 1.845.064 3.718 0 5.561-.127 3.674.17 7.39 0 11.122-.168 3.698 0 7.529 0 11.278v5.665c0 1.853.104 3.675-.156 5.405-7.283.162-15.08.21-22.296 0-.189-16.863-.104-34.76-.104-51.92 0-1.668.079-3.337.052-4.938-.029-1.685-.093-3.304.104-4.885.357-2.86 1.393-5.581 2.599-7.796 1.23-2.263 2.535-4.456 4.209-6.185 4.552-4.808 10.364-8.449 19.178-8.731 2.742-.087 5.408.473 7.64 1.143 2.25.676 4.262 1.64 6.029 2.703 3.712 2.233 6.67 5.228 8.835 8.627-.023 5.466.115 11.222-.104 16.84z"/><path d="m45.339 32.076c1.894 1.931 3.431 4.573 3.431 8.107 0 5.256-3.159 8.254-6.445 10.187-3.072 1.563-7.7 1.163-10.083-.416-2.456-1.626-4.625-3.964-5.353-7.12-.852-3.689.137-7.351 2.027-9.719 1.93-2.419 4.369-4.213 8.211-4.418 3.722-.197 6.336 1.641 8.212 3.379z"/><path d="m48.562 51.098c.205 2.769.052 5.564.052 8.368 0 8.142.108 16.657-.104 25.051-6.915.252-14.621.144-21.984 0-.237-9.189-.103-19.514-.104-29.469 0-1.449-.039-3.046.052-4.262.029-.075.081-.127.156-.156.044-.009.049.02.052.052 2.102 2.188 5.019 4.016 8.939 4.522 4.436.572 8.107-.708 10.81-2.443.761-.503 1.25-1.279 2.131-1.663z"/></g></svg>