<svg enable-background="new 0 0 78.16 78.266" viewBox="0 0 78.16 78.266" xmlns="http://www.w3.org/2000/svg"><g clip-rule="evenodd" fill-rule="evenodd"><path d="m39.54 78.262c-.321-.646-.25-1.449-.25-2.199 0-3.762-.149-8.154 0-12.152.06-1.6-.169-3.188.2-4.602 1.716-.484 4.287.043 6.101-.25.338-.42.228-1.68.1-2.25-.044-.021-.089-.043-.1-.1-3.233-.309-6.309-.006-9.202-.4-2.603-.355-5.143-1.369-7.001-2.6-1.873-1.24-3.453-2.85-4.801-4.801-1.308-1.895-2.439-4.174-2.601-6.951-.369-6.363 2.071-10.553 5.651-13.453 2.594-2.102 5.873-3.774 10.652-3.551.737.035 1.504.035 2.2.201.557.133 1.268.27 1.601.75-.862.094-1.663-.098-2.451-.15-2.562-.172-4.852.586-6.701 1.5-2.453 1.213-4.394 3.188-5.601 5.502-1.287 2.465-2.052 5.898-1.3 9.102.696 2.963 2.17 5.27 4.101 7 2.872 2.666 7.388 4.4 12.702 2.951 2.087-.57 3.818-1.66 5.301-3.051 2.709-2.541 4.899-6.82 4.25-12.201-.287-2.381-1.126-4.49-2.1-6.201-.974-1.713-2.118-3.422-3.65-4.65-1.532-1.23-3.133-2.387-5.151-3.152-2.119-.801-4.543-1.197-7.101-1.25-7.833-.156-13.935 2.824-17.603 7.102-2.579 3.008-4.233 6.609-4.851 11.803-.41 3.443-.249 8.098-.3 12.15-.015 1.184.338 3.51-.25 4.002-.453.379-2.8.15-3.6.15-1.196 0-2.883.26-3.651-.102-.471-.221-.808-1.436-1.05-2.049-2.004-5.084-3.561-11.176-2.951-18.404.394-4.674 1.566-8.818 3.101-12.301.932-2.115 1.906-4.311 3.101-6.102 1.636-2.455 3.5-4.682 5.651-6.65 2.154-1.973 4.381-3.908 6.951-5.351 3.983-2.236 8.223-4.037 13.502-4.951 1.773-.308 3.761-.599 5.751-.601 6.402-.006 11.713 1.348 16.303 3.35 4.698 2.051 8.319 4.598 11.752 7.852 6.518 6.18 11.559 15.037 11.902 27.355.174 6.262-1.396 11.779-3.3 16.352-.942 2.26-2.214 4.338-3.5 6.301-1.299 1.984-2.833 3.834-4.401 5.402-3.244 3.242-7.103 6.041-11.502 8.15-4.405 2.113-9.718 3.592-15.904 3.5z"/><path d="m38.741 37.057c1.267-.322 2.579 1.076 2.45 2.35-.144 1.432-1.737 2.186-2.9 1.701-1.828-.764-1.392-3.696.45-4.051z"/><path d="m11.536 59.26c.262 1.078.15 2.461.15 3.801 0 1.322.115 2.691-.15 3.75-.807-.26-1.299-1.016-1.8-1.6-.511-.596-1.073-1.186-1.5-1.852-.52-.613-1.041-1.226-1.451-1.949-.418-.633-1.109-1.256-1.1-2.15.066-.018.079-.088.15-.1.718-.088 1.985-.051 3-.051.983 0 1.97-.111 2.701.151z"/></g></svg>