<svg enable-background="new 0 0 79.374 79.968" viewBox="0 0 79.374 79.968" xmlns="http://www.w3.org/2000/svg"><g clip-rule="evenodd" fill-rule="evenodd"><path d="m66.543 10.653c1.818 1.501 3.293 3.337 4.79 5.198 1.471 1.826 2.662 3.976 3.771 6.167 2.269 4.477 3.735 9.519 4.18 15.697.469 6.513-.958 12.169-2.752 16.971-.879 2.351-2.109 4.55-3.364 6.575-.332.536-.567 1.095-.866 1.63-.837 1.504-2.263 2.782-3.312 4.128-3.115 3.511-6.887 6.387-11.315 8.613-2.281 1.147-4.615 2.014-7.186 2.803-4.906 1.507-11.926 2.072-17.685.917-8.207-1.646-14.755-5.29-19.826-9.989-5.285-4.676-9.115-10.835-11.364-18.55-1.127-3.866-1.875-8.755-1.529-13.302.356-4.693 1.2-8.599 2.65-12.282 2.773-7.043 7.066-12.639 12.792-17.074 5.542-4.292 12.896-7.684 21.762-8.103 6.913-.327 12.316.932 17.073 2.854 4.704 1.9 8.785 4.501 12.181 7.747zm-7.237-2.243c-5.366-3.471-12.9-6.346-22.169-5.708-4.149.285-8.074 1.286-11.416 2.701-9.762 4.133-16.852 11.182-20.642 21.099-1.34 3.508-2.021 7.102-2.395 11.518-.349 4.133.426 8.691 1.479 12.334 2.068 7.154 5.861 12.669 10.702 17.175 2.863 2.599 6.048 4.803 9.785 6.421 3.777 1.635 7.896 2.933 13.047 3.211 10.68.575 18.653-3.055 24.719-7.696 3.019-2.31 5.658-5.074 7.849-8.358.551-.827 1.033-1.639 1.528-2.497.502-.869.857-1.802 1.325-2.752 1.795-3.642 3.044-8.024 3.466-12.792.708-8.004-1.36-14.858-3.924-20.182-3.155-6.121-7.628-10.771-13.354-14.474z"/><path d="m38.003 16.564c1.278.27 1.07 1.975 1.07 3.771 0 1.086.053 2.183-.408 2.599-1.326.916-4.125.359-4.791 1.937-.076.834.336 1.436.612 2.09.507 1.198 1.062 2.464 1.579 3.822.352.92.988 2.654-.407 2.803-.985.105-2.133-1.266-2.854-1.987-.861-.861-1.569-1.743-2.294-2.497-1.641-1.708-3.291-3.087-4.892-4.688-2.475-2.475-4.703-4.601-7.236-7.135-.807-.807-2.166-1.734-2.039-3.16.082-.92.867-1.618 1.58-2.191 3.45-2.776 7.57-4.918 12.333-6.269 1.947-.552 4.088-1.089 6.473-1.172.927-.032 1.682.32 2.039.866.495.759.203 2.076.203 3.313 0 1.412.206 2.455-.917 3.007-.648.319-1.656.207-2.446.306-.967.122-2.411.36-3.466.663-.92.264-2.245.873-2.396 1.682-.137.741.234 1.415.459 1.885.56 1.167 1.405 1.379 2.854 1.02 1.458-.364 3.13-.941 4.944-.665z"/><path d="m58.898 18.908c-.034 0-.068 0-.102 0-.807-.12-1.367-.671-1.886-1.121-1.056-.917-2.141-1.714-3.567-2.446-.654-.336-1.359-.897-2.191-.815-.721.07-1.027.628-1.274 1.121-.251.503-.638 1.136-.56 1.835.143 1.296 1.907 1.897 2.955 2.599.542.363 1.072.801 1.58 1.172.533.39 1.115.868 1.07 1.682-.186 1.059-1.078 1.704-1.732 2.344-.659.645-1.355 1.455-2.294 1.784-1.186-.156-1.467-.67-2.141-1.121-.514-.344-1.358-1.054-2.293-.917-1.187.174-1.919 2.857-2.345 3.874-.285.681-.62 1.273-.968 2.141-.379.942-.678 1.661-1.427 1.682-1.035.029-1.224-1.088-1.224-2.446 0-1.213-.087-2.44-.051-3.465.179-5.16-.196-9.211 0-14.118.043-1.072.057-2.339.051-3.567-.012-2.391-.183-4.319 1.987-4.587 1.029-.127 2.34.162 3.466.357 2.21.383 4.058 1.051 5.963 1.682.845.28 1.812.696 2.701 1.122 2.406 1.152 4.876 2.744 6.982 4.484.767.634 1.795 1.278 1.682 2.548-.096 1.07-1.18 1.792-1.835 2.447-.75.748-1.307 1.539-2.547 1.729z"/><path d="m14.101 15.902c1.22-.27 2.069.967 2.853 1.784.719.748 1.916 1.5 1.886 2.701-.017.695-.654 1.238-1.172 1.835-.993 1.146-1.672 2.092-2.446 3.465-.322.571-.878 1.398-.815 2.141.061.716.542 1.105 1.07 1.376.53.272 1.136.671 1.834.611 1.523-.13 2.069-2.025 2.65-2.905.795-1.203 1.372-2.309 2.804-2.701 1.099.167 1.785 1.072 2.446 1.733.665.666 1.557 1.333 1.834 2.345-.078 1.168-.651 1.423-1.121 2.14-.372.567-1.079 1.423-.968 2.293.099.776 1 1.073 1.732 1.376 1.534.634 2.791 1.188 4.281 1.937.686.345 1.619.714 1.631 1.478.023 1.664-3.771 1.275-5.861 1.274-6.297-.001-11.505-.051-17.685-.051-2.37 0-4.012.252-4.485-1.682-.25-1.023.054-2.4.255-3.517.216-1.193.461-2.214.663-3.16.468-2.193 1.26-3.946 2.038-5.607 1.308-2.785 2.532-4.877 4.384-7.084.643-.765 1.174-1.595 2.192-1.782z"/><path d="m65.116 16.819c1.261-.263 2.262.979 2.904 1.784.698.875 1.191 1.796 1.683 2.599.533.875 1.07 1.774 1.528 2.752.483 1.03 1.074 1.972 1.376 2.905.245.754.459 1.583.714 2.446.234.795.422 1.654.611 2.497.404 1.795.805 3.683.815 5.453.015 2.312-1.311 2.559-3.67 2.447-1.554-.074-2.761.021-3.312-1.02-.297-.56-.197-1.205-.255-1.988-.086-1.182-.31-2.665-.611-3.822-.328-1.266-.659-2.36-1.682-2.752-1.251.039-2.841.436-3.16 1.427-.33 1.026.251 2.263.459 3.364.279 1.478.749 3.705-.407 4.332-.587.318-1.757.153-2.65.153-1.369 0-2.731.083-3.262-.765-.418-.667-.334-1.845-.51-2.65-.197-.904-.386-1.549-1.224-1.937-1.731.234-2.749.827-4.179 1.427-.665.279-1.358.539-2.039.765-.601.2-1.726.564-2.19 0-.908-1.101.938-2.535 1.376-3.007.85-.915 1.634-1.634 2.395-2.396 4.068-4.068 8.204-7.694 12.231-11.722.876-.873 1.811-2.041 3.059-2.292z"/><path d="m38.869 33.586c3.157-.302 5.439 1.244 6.523 3.517 1.683 3.529-.407 7.258-3.007 8.46-4.338 2.006-8.95-1.443-8.97-5.555-.017-3.597 2.198-5.735 5.454-6.422zm-2.804 5.199c-.646 2.365 1.058 4.23 2.549 4.638 3.382.924 6.023-2.645 4.281-5.504-.544-.893-1.916-1.869-3.466-1.733-1.781.156-2.967 1.148-3.364 2.599z"/><path d="m22.713 40.721c1.201 1.093.382 4.206 2.09 4.791 1.615-.129 2.539-.725 4.077-1.325.586-.228 1.224-.444 1.937-.765.864-.388 2.311-.905 2.6.306.207.872-.794 1.803-1.274 2.294-.669.684-1.192 1.314-1.732 1.886-.595.629-1.291 1.138-1.886 1.733-2.985 2.986-6.168 6.273-9.072 9.021-.867.986-1.487 1.608-2.395 2.446-.831.767-1.729 2.218-3.211 2.09-.994-.086-1.685-.931-2.243-1.682-.613-.828-1.163-1.499-1.631-2.293-2.044-3.472-3.693-6.523-4.69-11.01-.225-1.012-.372-2.122-.561-3.363-.313-2.061-.673-4.408 1.325-4.689.573-.081 1.454 0 2.294 0 1.579 0 2.547-.066 3.108.968.258.475.278 1.256.356 2.039.185 1.846.507 4.649 1.376 5.759.68.868 1.723.771 2.854.255.571-.26 1.066-.617 1.223-1.07.63-1.824-2.302-6.563 0-7.695.838-.412 4.984-.236 5.455.304z"/><path d="m49.368 40.976c4.096-.194 8.466 0 12.537 0 2.93 0 6.038-.093 8.97 0 2.379.075 3.971.051 4.128 2.344.072 1.053-.193 2.325-.408 3.415-.42 2.137-1.063 3.996-1.732 5.912-.326.936-.588 1.959-1.019 2.803-1.3 2.548-2.619 4.789-4.434 7.033-.576.713-1.346 1.643-2.141 1.682-1.156.057-2.125-1.235-2.701-1.835-.625-.65-1.83-1.558-1.886-2.599-.044-.832.594-1.453 1.07-2.039.886-1.087 1.875-2.333 2.6-3.619.407-.723.835-1.51.714-2.344-.137-.936-1.737-2.055-3.059-1.784-.765.157-1.288.936-1.682 1.631-.402.709-.905 1.501-1.223 2.089-.538.996-.807 2.325-2.701 1.886-.862-.199-1.486-1.129-2.192-1.835-.363-.364-.769-.749-1.019-1.019-.159-.172-.68-.662-.714-1.274-.051-.904.737-1.586 1.121-2.141.432-.623 1.091-1.348 1.02-2.242-.065-.821-.982-1.118-1.732-1.427-1.504-.619-2.915-1.226-4.384-1.937-.479-.232-1.621-.635-1.579-1.58.049-1.119 1.357-1.068 2.446-1.12z"/><path d="m43.813 46.175c1.104-.214 2.22 1.252 2.956 1.988.942.942 1.715 1.729 2.446 2.396 4.027 4.443 8.206 8.396 12.436 12.996.685.745 1.541 1.338 1.427 2.599-.133 1.467-2.008 2.553-3.16 3.363-3.697 2.604-8.887 4.851-13.861 5.657-.677.109-1.533.181-2.191.255-1.6.178-3.035.131-3.466-1.07-.204-.568-.103-1.639-.103-2.599 0-1.719-.082-3.088 1.121-3.567.667-.266 1.611-.146 2.447-.255.797-.105 1.643-.196 2.344-.357 1.492-.341 2.849-.614 3.517-1.886-.075-1.276-.505-2.838-1.631-3.16-.956-.272-2.225.361-3.415.611-1.32.278-3.564.637-4.128-.459-.398-.776-.153-2.259-.152-3.466 0-1.366.109-2.258.866-2.701 1.611-.393 3.802-.208 4.383-1.631-.104-1.335-.72-2.526-1.275-3.924-.237-.598-.498-1.207-.764-1.835-.414-.974-1.063-2.522.203-2.955z"/><path d="m23.783 63.095c1.314.694 2.345 1.972 3.976 2.039 1.449.059 2.022-1.798 2.141-2.854.002-.016.001-.036 0-.051-.123-1.431-1.931-1.838-3.007-2.65-.54-.407-1.096-.799-1.631-1.223-.52-.411-1.092-1.076-1.07-1.733.037-1.136 1.355-1.636 1.834-2.293.668-.708 1.19-1.562 2.243-1.885 1.119.151 1.523.553 2.191 1.07.547.423 1.172 1.172 2.141 1.07.75-.079 1.119-.893 1.427-1.682.608-1.557 1.273-2.829 1.886-4.281.378-.896 1.224-2.58 2.293-1.427.537.579.408 2.074.408 3.16-.001 6.848 0 13.68 0 20.793 0 2.076.041 3.379-1.376 3.975-.9.379-2.231.18-3.517-.051-5.432-.974-10.069-3.225-13.913-5.81-.738-.497-1.46-1.066-2.243-1.733-.781-.665-1.858-1.323-1.732-2.599.086-.877 1.239-1.886 1.835-2.446.586-.553 1.443-1.76 2.497-1.784.862-.02 1.418.621 1.937 1.07.573.496 1.056.891 1.68 1.325z"/></g></svg>