<svg enable-background="new 0 0 22.149 26.736" viewBox="0 0 22.149 26.736" xmlns="http://www.w3.org/2000/svg"><path d="m.182.007c1.069-.025 2.153.026 3.212-.002.516.014 1.042.046 1.557.012.31.028.634.063.941-.011 4.448.067 8.902.085 13.347.068.873.055 1.754.042 2.628.016.203 2.598.155 5.239.276 7.854.081.596-.734.287-1.089.302-.429-2.063-.872-4.33-2.503-5.813-.752-.681-1.744-1.105-2.756-1.167-2.42-.279-4.865-.126-7.295-.185-2.797-.051-5.602.015-8.397-.071.096-.328.002-.674.079-1.003z"/><path d="m6.443 2.452c.824-.13 1.502.961.964 1.628-.325.584-1.031 1.274-.63 1.973.834-.009 1.098-.954 1.44-1.553.29-.711 1.415-.66 1.724.008.333.48.08 1.16-.412 1.416-.624.233-1.301-.071-1.924.17-.281.069-.612.242-.53.588.785.808 2.205-.177 2.834.851.596.851-.529 2.07-1.409 1.461-.666-.606-.675-1.905-1.746-2.042-.424.809.354 1.534.694 2.209.44.711-.356 1.616-1.112 1.506-.611-.12-1.128-.828-.817-1.431.301-.71 1.078-1.383.746-2.221-.947-.027-1.127 1.105-1.579 1.713-.444.715-1.656.399-1.788-.399-.281-.747.539-1.505 1.279-1.307.571-.014 1.709.176 1.749-.633-.684-.698-1.718-.218-2.522-.496-.912-.453-.524-2.002.495-1.919 1.254-.039 1.047 1.774 2.139 2.06.202.077.362-.166.328-.348-.009-.84-.783-1.38-.936-2.177.066-.521.454-1.036 1.013-1.057z"/><path d="m14.924 7.63c.374.004.75.018 1.124-.007.028 3.753-.045 7.503-.047 11.258-.366-.011-.733-.006-1.099.001-.164-1.014-.204-2.076-.618-3.038-.399-1.239-1.63-2.016-2.877-2.168-.074-.438.006-.89-.006-1.336 1.248-.142 2.528-.831 2.984-2.061.406-.822.482-1.75.539-2.649z"/><path d="m2.543 11.078c1.898-.177 3.691 1.446 3.913 3.326.293-1.816 1.95-3.426 3.849-3.336.011.768.002 1.536.004 2.304.111 2.042-1.651 4.089-3.749 4.029-1.712.131-3.367-1.131-3.816-2.766-.364-1.153-.079-2.383-.201-3.557z"/><path d="m2.556 17.987c1.853-.033 3.514 1.426 3.885 3.217.333-1.738 1.998-3.262 3.815-3.152.057.838.033 1.682.004 2.521-.03 2.145-2.101 4.099-4.268 3.723-1.894-.131-3.473-1.908-3.46-3.793.013-.839-.022-1.679.024-2.516z"/><path d="m.029 25.704c4.253-.021 8.505.008 12.757.048.01.327-.003.654.01.981-4.265.013-8.529-.033-12.796-.051.015-.326-.013-.653.029-.978z"/></svg>