<svg enable-background="new 0 0 84.887 83.608" viewBox="0 0 84.887 83.608" xmlns="http://www.w3.org/2000/svg"><path clip-rule="evenodd" d="m22.339.122c3.358-.16 7.207-.146 10.547-.053 6.697.186 13.697.158 20.78.156 3.515 0 7.096-.225 10.39.158 5.765.672 11.116 3.397 14.273 6.875 3.381 3.725 5.9 7.953 6.455 14.641.142 1.709.006 3.422.052 5.143.136 5.031-.053 10.086-.052 15.586 0 3.467.058 6.92-.053 10.127-.123 3.572.231 7.004-.157 10.389-.7 6.103-3.597 10.471-7.137 14.012-1.757 1.758-3.913 3.119-6.297 4.25-2.479 1.176-5.248 1.918-8.449 2.1-3.444.195-6.946.053-10.443.053-6.956-.002-13.955.006-20.78-.158-3.569-.084-6.958.213-10.285-.156-6.328-.701-10.782-3.07-14.431-6.717-2.658-2.656-4.725-5.896-5.93-9.918-1.204-4.016-.735-9.844-.735-15.113 0-6.969.052-13.639.052-20.885.001-1.787-.04-3.535 0-5.195.082-3.387.187-6.736.997-9.445 1.176-3.932 3.536-7 6.192-9.656 2.51-2.51 6.137-4.478 10.285-5.562 1.482-.388 3.218-.56 4.726-.632zm13.854 7.451c-.413 1.738.074 4.377-.315 6.141-6.787.267-14.661-.174-21.62.104-.28.732-.132 1.701-.158 2.625-.026.953-.07 1.949.158 2.729 6.061.182 12.912.209 19.048.209.873 0 1.797-.123 2.624.158.095 1.021.052 2.207.052 3.357 0 1.144.098 2.324-.21 3.201-7.003.226-14.487-.205-21.567.105-.159 2.783-.157 6.012-.157 8.92 0 1 .122 2.037-.158 2.939-1.878.32-4.514-.24-6.349.209-.134 1.885-.234 4.562 0 6.297 1.494.285 3.091.158 4.723.158 4.825 0 9.964-.074 14.431.105 1.716.068 3.219-.061 4.566.209 3.3.664 5.58 2.738 6.874 5.354.277.561.396 1.238.84 1.521.334-2.08-.16-4.988.262-6.979 1.907-.092 4.633-.131 6.612.053.426 3.754-.078 8.438.263 12.277.321-.301.401-.772.525-1.154.978-3.023 2.56-5.357 4.67-7.24 2.285-2.039 5.629-3.803 9.708-3.883 4.473-.09 7.782 1.236 10.39 3.199 2.267 1.709 3.999 4.016 5.09 6.77.144.363.219.889.629 1.102.268-9.166.169-19.592.105-28.703-.401.205-.489.701-.629 1.049-2.257 5.586-7.49 10.258-15.533 9.918-4.134-.174-7.36-1.793-9.708-3.883-1.756-1.562-3.273-3.709-4.198-5.982-.325-.799-.449-1.693-.944-2.467-.432 3.75.112 8.475-.315 12.229-.945.141-2.139.051-3.306.051-1.194 0-2.421.121-3.358-.156-.354-10.045.188-20.613-.157-30.541-.811-.202-2.041-.173-2.888-.001zm10.128.053c-.292.375-.137.9-.158 1.363-.107 2.424-.052 5.113-.052 7.557 0 1.002-.132 2.014.21 2.834.866-2.859 2.146-5.305 3.936-7.24 1.42-1.377 3.037-2.611 4.88-3.518.614-.301 1.383-.41 1.89-.943-3.383-.137-7.33-.262-10.706-.053zm15.375 7.031c-3.424.055-5.809 2.174-6.927 4.199-1.295 2.346-1.278 5.42-.052 7.713 1.238 2.316 3.762 4.016 6.769 4.197 5.073.307 8.961-3.885 8.554-8.867-.269-3.291-2.578-5.363-4.985-6.664-1.114-.273-2.05-.599-3.359-.578zm-35.421 42.559c2.684-.008 4.882.186 5.615-1.68.576-1.469-.251-3.111-1.575-3.568-.892-.309-2.525-.158-3.883-.158-3.952 0-8.293-.139-12.227 0-.263.658-.209 1.594-.209 2.52-.001.932-.079 1.924.104 2.676 3.548.184 8.303.22 12.175.21zm35.211-4.672c-2.84.067-5.471 1.863-6.717 3.936-1.529 2.545-1.531 6.551.42 9.027 1.732 2.238 5.397 4.113 9.183 2.885 3.728-1.209 7.006-5.965 4.985-10.809-.378-.908-.992-1.609-1.627-2.467-1.568-1.435-3.355-2.638-6.244-2.572zm-22.46 15.219c0-3.516.066-7.131-.052-10.338-.053 0-.063-.043-.105-.053-.076.029-.128.082-.158.158-1.481 3.641-4.23 6.566-9.025 6.77-.71.029-1.632-.131-2.204.156.191.672.808 1.07 1.26 1.521 2.818 2.82 5.798 5.596 8.606 8.344.449.439.858 1.057 1.522 1.207.27-2.386.157-5.045.156-7.765zm7.033-3.727c-.17 3.715-.179 8.146 0 11.859.831.277 1.809.158 2.781.158 1.932 0 3.942.053 5.877.053 1.041 0 2.064.145 2.781-.211-1.381-.631-2.733-1.107-3.936-1.836-3.657-2.213-6.059-5.574-7.347-10.127-.012-.041-.044-.062-.105-.053-.002.067-.067.073-.051.157zm-19.521 10.235c-3.34-3.342-6.558-6.752-9.971-9.971-.821.039-1.576-.236-2.204 0-.559.209-.383 1.117-.367 1.783.052 2.176-.184 5.094 0 6.664 2.836 2.727 8.054 3.631 13.801 3.096-.218-.651-.8-1.115-1.259-1.572z" fill-rule="evenodd"/></svg>