<svg enable-background="new 0 0 80.567 46.89" viewBox="0 0 80.567 46.89" xmlns="http://www.w3.org/2000/svg"><g clip-rule="evenodd" fill-rule="evenodd"><path d="m50.056.182c.18 15.326.163 31.059 0 46.52-.896.264-1.865.146-2.779.146-.965 0-1.921 0-2.877 0-1.941 0-3.91.158-5.657-.146-1.489-.26-2.983-.83-4.34-1.463-1.378-.643-2.771-1.23-3.998-1.805-3.828-1.785-7.898-3.693-11.948-5.461-2.765-1.205-6.025-2.178-6.046-6.193-.023-4.18.066-8.334-.049-12.678-.063-2.34-.196-5.691.634-7.217 1.037-1.908 3.615-2.875 5.851-3.756 4.702-1.851 8.865-3.758 13.459-5.656 2.29-.947 4.51-2.029 7.217-2.34.075-.01.086-.045.147-.049 3.425-.235 7.037.097 10.386.098zm-18.481 23.407c.139 1.67 1.366 3.025 2.779 3.559 2.166.82 4.562-.566 5.364-2.389.757-1.719-.09-3.732-1.024-4.633-.721-.693-1.964-1.326-3.267-1.17-2.233.268-4.055 2.189-3.852 4.633z"/><path d="m58.882 12.032c-.31 1.125-.195 2.553-.195 3.949 0 1.391-.078 2.846.098 4.096.825.27 1.756.195 2.682.195h8.534c1.837 0 3.838-.068 5.657 0 1.721.064 3.738-.246 4.729.926-.013 1.393.092 3.305-.098 4.682-.972 1.045-3.235.684-4.925.684-3.865 0-7.346-.002-11.118 0-1.892 0-3.769-.117-5.462.146-.162 2.57-.162 5.816 0 8.387.782.273 1.672.168 2.536.195 2.753.086 5.63 0 8.485 0 1.777 0 3.688-.125 5.51-.049 1.708.072 3.851-.287 4.925.731.07 1.439.115 3.267-.049 4.633-1.211 1.336-4.172.879-6.388.879-4.932 0-9.435 0-14.385 0-2.426 0-4.799.088-6.974-.147-.213-11.211-.097-22.281-.098-33.695 0-.654-.19-1.455.244-2 7.539.002 15.335.049 23.26.049 1.111 0 2.356-.15 3.219.098.446.127 1.198.568 1.365.926.218.467.098 1.49.098 2.293 0 .812.074 1.785-.146 2.193-.535.988-3.354.766-4.876.732-2.057-.047-3.769.029-5.462.049-4.005.04-7.427-.096-11.166.048z"/><path d="m11.142 19.491c.216 1.059.081 2.266.098 3.414.017 1.125.129 2.287-.147 3.268-2.529.133-5.527.049-8.339.049-.909 0-1.838.111-2.633-.147-.162-1.971-.162-4.611 0-6.584 3.421-.258 7.511-.115 11.021 0z"/></g></svg>