<svg enable-background="new 0 0 78.276 47.616" viewBox="0 0 78.276 47.616" xmlns="http://www.w3.org/2000/svg"><g clip-rule="evenodd" fill-rule="evenodd"><path d="m17.708.175c.142 1.866-.479 3.528-1.18 4.863-.672 1.282-1.717 2.503-2.947 3.242-2.252 1.353-5.344 1.566-8.793 1.769-.258.579-.147 1.433-.147 2.259-.001.788-.069 1.645.098 2.26.967.265 2.065.148 3.143.148 3.123 0 6.622-.081 9.628.098.266 4.082.148 8.392.148 12.625-.001 4.157.018 8.41.146 12.478 1.022.26 2.164.147 3.292.147 3.271 0 6.913-.081 10.069.098.261 1.075.148 2.404.148 3.684-.001 1.248-.012 2.505-.148 3.537-4.986.279-10.219.098-15.424.098-3.924 0-7.833 0-11.79 0-1.253 0-2.528.118-3.733-.147-.282-.917-.144-1.894-.098-2.849.122-2.577-.05-5.717-.049-8.744.002-11.806-.166-24.094 0-35.565 4.049-.328 8.51.096 12.725-.099 1.438-.067 3.509-.17 4.912.098z"/><path d="m68.845.175c.642 1.888.874 3.891 1.277 5.846 1.207 5.857 2.358 11.778 3.586 17.684 1.232 5.931 2.215 11.91 3.487 17.832.421 1.958.888 3.905 1.081 5.894-.583.3-1.266.079-1.916.098-4.789.142-10.485.111-15.179-.098-.39-.725-.483-1.581-.639-2.407-1.093-5.807-2.278-11.704-3.586-17.537-1.09-4.861-2.058-10.009-3.095-15.032-.164-.792-.322-1.642-.491-2.554-.134-.718-.267-2.183-.59-2.407-.463-.321-1.754-.058-2.259.049-.259.773-.149 1.601-.149 2.407.002 5.704.049 11.534.05 17.488.001 6.726.148 13.48-.099 19.944-1.32.263-2.766.147-4.175.147-4.274.001-8.48.111-12.576-.098-.359-.868-.19-1.828-.147-2.751.134-2.87-.048-5.876-.049-8.842-.002-11.82-.146-23.811.049-35.614.851-.262 1.77-.147 2.653-.147h13.705c6.467 0 12.738-.04 19.062.098z"/></g></svg>