<svg enable-background="new 0 0 11.437 11.409" viewBox="0 0 11.437 11.409" xmlns="http://www.w3.org/2000/svg"><path d="m0 .004c1.618.008 3.235.001 4.853.003.803-.004 1.606.009 2.409-.007-.002 1.03.001 2.06-.002 3.09-1.391-.003-2.783.007-4.173-.005v8.324c-1.028 0-2.056 0-3.085 0 .001-3.802.005-7.604-.002-11.405z"/><path d="m8.353.002c.771.011 1.542.002 2.313.005.257-.003.514.007.771-.005-.001 3.802 0 7.605 0 11.407-2.419 0-4.839 0-7.258 0 0-1.027 0-2.055 0-3.082 1.391 0 2.783-.002 4.174 0 0-2.775.001-5.55 0-8.325z"/><path d="m4.177 4.133c1.028.003 2.057.009 3.085-.003-.001 1.032 0 2.063 0 3.095-1.028-.015-2.057-.006-3.085-.004.002-1.03.002-2.059 0-3.088z"/></svg>