<svg enable-background="new 0 0 73.73 75.83" viewBox="0 0 73.73 75.83" xmlns="http://www.w3.org/2000/svg"><g clip-rule="evenodd" fill-rule="evenodd"><path d="m.304 0c6.2.005 12.365 0 18.487 0 16.375.001 33.144.15 50.277.151 1.503 0 3.008-.117 4.483.151.167 7.854.168 16.427 0 24.333-14.323.164-29.011.053-43.678.05-2.025 0-4.065-.189-6.045.101-.305 17.11.173 33.495-.15 50.831-7.578.204-16.256.107-23.476 0-.274-1.519-.15-3.081-.15-4.635-.001-20.867-.055-41.176-.051-61.663 0-2.242-.014-4.722.051-7.002.021-.741-.178-1.94.101-2.216.036-.047.09-.077.151-.101z"/><path d="m73.552 36.775c.189 4.365.215 9.269.05 13.753-12.473.179-25.132.082-37.984-.051-.276-2.141-.101-4.456-.101-6.801 0-2.323-.188-4.734.051-7.002 3.17-.158 7.032-.181 10.377-.151 8.598.076 16.98.103 25.44.101.701 0 1.484-.116 2.167.151z"/><path d="m73.602 62.619c.172 3.121.101 6.534.101 9.924.001 1.109.121 2.226-.15 3.224-12.464.076-25.591.124-37.935-.101-.229-1.885-.151-4.122-.15-6.549 0-1.531.05-3.239.05-4.987 0-.547-.092-1.47.151-1.612.037-.047.092-.076.15-.101 11.312-.034 22.042.05 33.199.05 1.539 0 3.093-.121 4.584.152z"/></g></svg>