<svg enable-background="new 0 0 54.965 83.759" viewBox="0 0 54.965 83.759" xmlns="http://www.w3.org/2000/svg"><g clip-rule="evenodd" fill-rule="evenodd"><path d="m1.293 1.193c-.277.797-.155 1.673-.155 2.486 0 19.622-.052 40.004-.052 59.71 0 6.044.052 11.665.052 17.711 0 .738.242 1.933-.518 2.072-.81-.044-.608-1.315-.569-2.124.108-2.266 0-5.151 0-7.716 0-24.28-.08-49.155.155-73.175 9.302-.354 19.471 0 28.897 0 8.054 0 16.308.052 24.702.052.377 0 1.143-.169 1.139.518.04.723-.81.518-1.191.518-17.388 0-35.172-.258-52.46-.052z"/><path d="m54.789 14.658c.262 1.342.155 2.759.155 4.143 0 21.5.065 43.165-.104 64.837-12.816.273-26.195-.001-38.943 0-.803 0-1.661.118-2.434-.155-.076-13.639-.196-28.051.052-41.792 8.775-.173 18.394.193 27.343-.052.278-.967.155-2.072.155-3.159 0-3.154.084-6.703-.104-9.735-8.93-.319-18.47-.04-27.395-.363-.254-3.751-.103-8.003-.103-12.274 0-.552-.114-1.162.155-1.657 13.439.078 27.845-.011 41.223.207zm-17.038 41.17c-3.329 0-6.737 0-9.995 0-.061.025-.117.055-.155.104-.267.472-.155 2.36-.155 3.262 0 3.433-.083 7.102.104 10.099.99.229 2.101.199 3.211.207 2.229.017 4.542 0 6.836 0 1.143 0 2.29.122 3.314-.155.181-4.114.167-9.109 0-13.361-.978-.278-2.092-.156-3.16-.156z"/></g></svg>