<svg enable-background="new 0 0 55.32 72.608" viewBox="0 0 55.32 72.608" xmlns="http://www.w3.org/2000/svg"><g clip-rule="evenodd" fill-rule="evenodd"><path d="m1.695 1.67c-.332 1.08-.152 2.217-.151 3.341.002 2.309 0 4.759 0 7.238 0 3.463-.161 7.013-.05 10.528.224 7.151-.256 14.088.05 21.36.1 2.355-.05 4.772-.05 7.187 0 2.411.079 4.83.101 7.238.011 1.146-.136 2.392-.101 3.644.082 2.968-.035 5.949-.051 9.01-.003.633-.06 1.104-.607 1.113-1.089.018-.709-2.798-.709-3.897 0-10.602-.051-21.323-.051-31.938 0-4.667-.141-9.07 0-13.565.047-1.501-.142-3.046-.05-4.606.159-2.715.05-5.852.05-9.06 0-2.031.025-4.466 0-6.884-.01-.869-.135-1.759.152-2.075.358-.395 1.79-.253 2.834-.253 2.238 0 3.905-.091 6.074 0 1.157.049 2.277-.051 3.138-.051 1.128 0 2.269.098 3.442.101 5.738.019 11.325.102 17.159.101 1.051 0 2.303-.003 3.493.05.996.046 2.808-.272 2.784.709-.022.894-2.283.636-3.189.607-2.589-.081-5.27-.127-7.693-.102-4.75.05-10.198-.27-15.185-.05-1.886.084-3.805-.107-5.721-.049-.968.029-1.958.05-2.935.05-.909 0-1.895-.158-2.734.253z"/><path d="m3.467 2.733c2.759-.071 6.053.06 9.01-.051 2.989-.112 6.067.298 9.161.152 2.967-.14 5.744.109 8.908 0 2.153-.074 4.55.155 6.935.152.749-.001 1.759-.129 1.67.708-.037.959-1.142.709-1.772.709-5.623 0-11.061-.168-16.5-.102-1.291.016-2.707-.209-4.15-.151-3.264.131-6.629-.103-10.225.102-.792.045-1.66-.103-1.974.152-.433.35-.253 2.105-.253 3.036 0 1.345-.104 2.238-.102 3.138.012 4.151.051 8.597.051 13.059 0 15.705-.051 30.746-.051 47.123 0 .88-.105 1.538-.607 1.569-1.185.073-.738-2.805-.709-3.644.057-1.641-.071-3.124-.05-4.454.091-5.953.05-11.841.05-17.766 0-3.032-.164-6.132-.05-8.959.119-2.969-.031-5.936 0-8.857.061-5.861.083-11.557.05-17.462-.011-2.121-.095-4.508 0-6.681.027-.617-.071-1.379.456-1.771.051-.002.102-.002.152-.002z"/><path d="m32.774 26.118c-.853.414-1.902.267-2.885.304-1.015.038-2.069-.102-3.088-.102-4.09 0-7.764-.051-12.299-.05-.938 0-2.058-.049-3.087 0-.938.044-2.551.12-2.935-.203-.596-.5-.253-3.225-.253-4.251 0-3.972-.093-7.307 0-11.136.019-.797-.088-1.736.202-2.075.408-.475 1.903-.245 2.885-.253 4.896-.04 8.994.087 13.97.101 4.033.012 8.012-.04 12.097.051.623.014 1.652-.084 1.721.759-.034.723-.864.607-1.367.607-7.002 0-13.528-.152-20.651-.152-1.134 0-2.423.029-3.746 0-1.056-.023-3.01-.199-3.442.304-.452.525-.226 2.575-.203 3.543.016.63-.113 1.246-.101 1.822.041 1.885.051 3.292.051 5.567 0 .993-.256 3.073.202 3.594.358.406 1.586.253 2.48.253 4.797 0 8.798.102 13.362.101.876 0 1.805.101 2.683.101.859 0 1.782.115 2.43-.354.112-.71-.171-1.261-.354-1.873-.178-.595-.303-1.445-.759-1.721-.692-.418-3.424-.186-4.403-.152-1.575.054-2.987-.102-4.454-.051-1.343.046-2.723-.133-4.454-.051-.656.032-1.46-.028-2.278-.05-.574-.016-1.649-.131-1.62.658.034.907 3.132.589 4.049.607 1.593.032 3.187.051 4.606.051 1.536 0 2.845.133 4.606.05 1.21-.056 3.718-.249 3.34 1.063-.138.48-1.119.445-1.974.405-2.352-.111-4.833.008-6.934-.051-2.34-.065-4.398-.101-6.833-.101-.732 0-1.488.108-2.176-.152-.386-.86-.153-1.895-.203-2.936-.045-.968.037-1.949.051-2.986.012-.906-.102-1.901-.102-3.037 0-.917-.141-2.647.253-3.087 1.088-.309 2.322-.254 3.492-.203 3.425.151 7.107.102 10.73.101 2.257 0 4.768.051 7.188.051 1.684 0 3.581.053 5.365.152.465.026 1.195-.083 1.215.607.181.833-1.259.572-1.468 1.114-.148.383.234 1.314.405 1.923 1.226 4.382 2.717 8.625 3.948 13.008.688 2.449 1.492 4.919 2.278 7.39 1.586 4.988 2.898 9.867 4.505 14.88 1.592 4.97 2.978 9.698 4.505 14.831.488 1.641 1.141 3.596 1.721 5.568.091.308.54 1.593.051 1.822-.575.269-1.013-.62-1.215-1.215-1.511-4.437-2.641-8.977-4.1-13.261-.852-2.503-1.574-5.072-2.328-7.592-2.272-7.596-4.69-15.102-7.036-22.727-.756-2.456-1.468-5.007-2.328-7.592-.389-1.167-.728-2.607-1.164-3.796-.37-1.007-.718-3.198-1.417-3.544-.501-.247-2.029-.111-2.885-.152-1.108-.052-2.148.046-2.986.051-4.035.021-7.715-.152-11.894-.152-.931 0-1.937.05-3.037 0-.715-.032-2.228-.138-2.278.607-.071 1.076 2.398.708 3.695.708 1.729 0 3.105.084 4.302.102 4.055.059 8.371.038 12.502.101.596.009 1.32-.043 1.62.102.607.291 1.116 2.643 1.366 3.441 1.151 3.68 2.205 7.463 3.341 11.034 2.495 7.845 4.956 15.917 7.39 23.84.186.606.454 1.167.607 1.772.312 1.229.665 2.455 1.063 3.695.764 2.375 1.475 4.732 2.278 7.289.315 1.004.84 2.353 1.214 3.594.145.478.227 1.126.456 1.923.093.326.64 1.497.101 1.771-.659.335-1.104-.491-1.266-1.012-.605-1.945-1.114-3.687-1.62-5.466-1.413-4.972-3.083-9.508-4.505-14.425-1.762-6.095-3.648-11.996-5.567-18.121-1.472-4.694-2.855-9.454-4.454-14.425-.335-1.042-.696-3.141-1.417-3.442-.486-.203-1.985-.22-2.632-.202-2.68.075-5.116-.051-8.048-.051-2.7 0-5.195-.05-8.149-.05-.597 0-2.206-.157-2.278.506-.124 1.143 3.428.759 4.606.759 4.455 0 8.581.152 13.059.152.977 0 2.253-.129 2.683.152.548.358.905 2.365 1.214 3.391 2.5 8.277 4.982 16.228 7.491 24.396 1.774 5.777 3.521 11.613 5.365 17.412.909 2.857 1.836 5.691 2.683 8.706.14.497.59 1.236.051 1.721-1.231.21-1.33-1.179-1.569-1.974-1.419-4.719-2.813-9.187-4.302-13.869-1.759-5.532-3.284-10.948-5.112-16.652-.837-2.613-1.688-5.482-2.581-8.301-.27-.851-.58-2.22-1.114-2.48-.605-.295-2.538-.114-3.492-.152-1.386-.055-2.491.025-3.544 0-4.885-.117-8.817.026-14.122-.101-1.102-.027-2.002-.04-3.442 0-.854.023-2.774-.181-3.188.304-.263.308-.247 1.645-.203 2.582.131 2.751 0 5.343 0 8.149.001 5.65.051 10.999.051 16.551 0 4.623.115 8.885-.051 13.667-.034.947.111 2.142-.71 2.177-.929-.079-.768-1.272-.759-2.075.027-2.583.164-5.826-.051-8.25.239-12.157 0-23.966 0-36.24 0-3.304.209-6.727.051-10.225-.104-2.295-.024-4.96.051-7.339.026-.844-.149-1.999.101-2.328.383-.505 3.054-.319 3.796-.355 2.543-.12 5.118.05 7.693.051 6.863 0 13.885-.073 20.955.202.739.029 1.127.28 1.063.759-.075.557-.569.557-1.519.557-8.782 0-17.496-.152-26.32-.152-1.146 0-3.621-.201-4.049.253-.344.366-.252 1.513-.252 2.328 0 6.161-.149 11.491.101 17.412.746.781 2.084.403 3.189.456 2.299.109 4.527 0 6.985 0 1.176 0 2.39.136 3.493.101 2.347-.073 4.744-.097 7.035 0 1.149.049 2.263 0 3.391 0 1.085 0 2.27.391 3.24-.151.197-.873-.214-1.7-.456-2.43-.516-1.557-.955-3.029-1.468-4.707-.221-.723-.379-1.804-.961-2.075-.492-.229-1.653-.101-2.48-.101-2.521 0-5.198-.182-7.39-.152-1.428.019-3.323-.085-4.96 0-.695.036-1.733.063-2.48 0-.693-.059-1.771-.118-1.771.658 0 1.064 3.082.657 4.454.708 3.289.123 6.096-.034 9.465.101.562.022 1.382.05 2.176.05.793 0 1.922-.093 2.278.152.568.392.945 2.411 1.164 3.138.329 1.098.745 2.12.809 3.392z"/><path d="m46.743 72.481c-1.156.235-1.3-1.091-1.518-1.822-1.819-6.093-3.779-12.139-5.568-18.222-1.511-5.136-3.305-10.319-4.809-15.589-.227-.796-.494-1.606-.81-2.582-.244-.754-.579-2.095-1.063-2.329-.779-.374-2.909-.101-4.049-.101-4.031-.001-7.354-.102-11.591-.102-1.149 0-2.475.043-3.847 0-.542-.017-1.119-.108-1.772-.051-.632.056-1.406-.02-1.721.203-.473.333-.351 1.904-.304 2.936.057 1.248-.05 2.266-.05 3.29 0 6.499.077 13.233-.051 19.386-.069 3.345.051 7.679.051 11.49 0 .995.135 3.205-.557 3.34-.987.194-.86-1.093-.86-1.923 0-12.703 0-24.271 0-37.354 0-.892-.084-2.236.202-2.531.3-.308 1.707-.247 2.177-.253 1.953-.025 3.901.03 5.871 0 .944-.015 1.932-.016 2.885.05.981.069 1.931-.038 2.885 0 3.871.155 7.788-.042 11.743.253.775.534.824 1.568 1.063 2.379.766 2.598 1.665 5.241 2.43 7.896 1.015 3.523 2.213 7.024 3.239 10.528 1.03 3.516 2.141 7.041 3.239 10.528.962 3.053 1.867 6.119 2.784 9.262.112.383.434.938.001 1.318z"/><path d="m12.78 34.671c-.497.603-.269 1.449-.304 2.177-.106 2.214-.064 4.751-.051 7.289.016 3.189-.192 6.547-.051 9.769.067 1.522.093 3.203.051 4.809-.106 4.096-.029 7.872-.051 12.046-.003.637.178 1.58-.708 1.62-.887-.109-.75-1.134-.759-1.771-.012-.779.073-1.662.051-2.379-.051-1.639.044-3.426.051-5.011.013-3.222-.051-6.573-.051-9.92 0-4.997 0-9.881 0-15.083 0-.717-.044-1.61 0-2.53.035-.73-.091-1.946.101-2.278.428-.737 2.389-.354 3.644-.354 4.379 0 8.018.101 12.552.101.658 0 1.67-.022 2.481 0 .712.02 2.025-.037 2.379.152.406.217.748 1.553.961 2.278 1.724 5.849 3.46 11.535 5.264 17.26 1.769 5.611 3.435 11.518 5.314 17.26.154.47.818 2.144.253 2.43-.864.438-1.328-1.133-1.468-1.62-1.625-5.653-3.535-11.43-5.213-17.007-.47-1.562-1.014-3.265-1.519-4.859-1.292-4.079-2.502-7.93-3.746-12.148-.236-.802-.538-1.871-1.012-2.125-.853-.458-3.417-.098-4.606-.152-3.105-.141-5.9-.101-9.111-.101-1.508-.005-3.04-.161-4.452.147z"/></g></svg>