<svg enable-background="new 0 0 73.576 73.31" viewBox="0 0 73.576 73.31" xmlns="http://www.w3.org/2000/svg"><g clip-rule="evenodd" fill-rule="evenodd"><path d="m60.885 10.354c-.926.061-1.787-.335-2.721-.403-5.246-.387-9.363 1.387-12.047 3.83-4.41 4.017-6.545 10.426-9.727 15.776-.805 1.353-1.385 2.824-2.318 4.031-6.467.025-13.22.051-19.859-.05-.344-.005-.824.093-1.059-.252.005-.608.52-1.908 1.109-2.167.478-.211 1.335-.066 2.116-.051 5.132.101 10.897-.016 15.674 0 .604-.343.855-1.071 1.16-1.663.309-.602.705-1.169 1.008-1.764.623-1.225 1.205-2.493 1.916-3.68 1.428-2.389 2.533-4.955 3.932-7.258 2.467-4.066 5.73-7.297 10.935-8.619.699-.177 1.51-.129 2.219-.555-.223-.522-.844-.748-1.311-1.008-3.369-1.869-7.576-3.064-12.197-3.68-5.783-.77-11.529.52-15.675 2.168-4.186 1.664-7.958 4.077-11.038 7.157-3.942 3.942-6.789 8.248-8.568 14.162-.344 1.142-.764 2.332-1.008 3.528-.524 2.573-.678 5.355-.605 8.367.071 2.92.543 5.47 1.312 7.762.351 1.05.94 2.066 1.461 3.074 1.523 2.947 3.85 5.415 7.358 6.25 2.674.637 5.422-.242 7.057-1.612 2.476-2.075 3.775-5.193 5.394-8.216.524-.98 1.259-1.88 1.512-3.024-.436-.539-1.273-.353-1.966-.353-4.56 0-9.101.114-13.659-.101-.692-.033-1.473.18-2.066-.202-.248-.41.114-.801.303-1.209.199-.433.276-.882.655-1.059.525-.246 1.692-.051 2.57-.051 5.451 0 10.667.101 16.078.101.833.001 1.741-.148 2.469.202.029.575-.32 1.099-.555 1.562-1.687 3.358-3.542 6.688-5.443 9.979-2.178 3.775-5.12 6.863-10.836 6.805-5.374-.051-8.601-3.516-10.785-6.85-1.714-2.616-2.931-5.949-3.377-9.88-.148-1.3-.31-2.654-.303-3.981.017-2.983.216-5.623.706-8.114 1.413-7.184 4.706-13.024 8.87-17.591 3.578-3.923 7.917-6.813 13.004-9.072 2.04-.905 4.39-1.52 6.854-1.966 1.228-.222 2.636-.527 3.982-.604 9.762-.563 16.646 2.241 22.48 5.897 1.44.902 2.697 1.988 3.981 3.125.383.338 1.012.649 1.008 1.259z"/><path d="m12.5 63.276c.675-.159 1.334.126 2.017.202 2.125.235 4.544.06 6.4-.555 2.42-.801 4.71-1.821 6.25-3.377 1.615-1.632 2.978-3.44 4.132-5.494 1.164-2.067 2.133-4.258 3.377-6.25.606-1.464 1.49-2.785 2.219-4.183.723-1.392 1.371-2.856 2.318-4.083 6.182.037 12.268-.072 18.447.101.848.023 1.725-.127 2.52.151.039.9-.488 1.657-.957 2.218-5.799.021-12.236-.187-18.094.05-.809.586-1.16 1.617-1.613 2.47-.469.88-.885 1.796-1.361 2.672-.938 1.723-1.945 3.466-2.822 5.241-1.758 3.555-3.633 7.245-6.552 9.627-1.642 1.34-3.737 2.489-6.1 3.125-.767.207-1.646.215-2.368.706.214.552.84.734 1.309.957 2.438 1.155 5.312 2.431 8.367 2.975 1.269.226 2.605.372 3.982.554 1.422.188 2.945.051 4.385.051 1.414 0 2.855-.208 4.133-.403 2.658-.406 4.971-1.228 7.057-2.016 5.359-2.028 9.709-5.344 13.105-9.577 1.967-2.451 3.963-5.251 5.24-8.366 1.82-4.438 2.91-9.459 2.672-15.373-.225-5.602-2.084-10.082-4.738-13.406-1.334-1.673-3.27-2.967-5.695-3.378-2.789-.472-5.236.322-7.006 1.664-1.684 1.276-2.695 3.289-3.779 5.292-.246.452-.607.924-.857 1.411-.508.99-.916 1.979-1.512 3.024-.26.455-.797 1.066-.654 1.461.234.657 3.506.354 4.385.354 4.186 0 7.418.1 11.541.101.723 0 1.551-.162 2.016.302.045.92-.512 1.672-.957 2.269-6.049.009-12.551.001-19.053-.05-.816-.007-1.703.081-2.418-.252-.141-.584.305-1.061.555-1.513 1.762-3.192 3.484-6.489 5.24-9.728 2.01-3.706 4.773-6.753 9.98-7.157 3.197-.248 5.852.773 7.762 2.117 1.971 1.386 3.471 3.241 4.688 5.191.609.979 1.111 2.153 1.562 3.377.443 1.2.969 2.451 1.209 3.729.514 2.728.865 5.798.707 9.123-.096 1.971-.486 3.94-.857 5.796-1.086 5.415-3.383 9.893-6.1 13.71-1.805 2.537-3.922 4.919-6.4 6.804-2.498 1.901-5.035 3.724-8.115 5.091-3.029 1.345-6.314 2.532-10.231 3.024-3.934.493-8.31.245-12.198-.504-1.74-.336-3.458-.965-5.091-1.513-3.976-1.333-7.566-3.558-10.434-6.099-.527-.466-1.358-.892-1.613-1.663z"/></g></svg>