<svg enable-background="new 0 0 28.789 23.58" viewBox="0 0 28.789 23.58" xmlns="http://www.w3.org/2000/svg"><path d="m28.76 6.56-.012-6.56-27.108.048-1.64.002.003 1.64.035 20.248.003 1.642 1.64-.004 5.366-.009-.004-2.002c.579.739 1.893 1.998 4.128 1.994l15.978-.028.973-.001.668-.001-.025-15.09-5.419.011-.003-1.881zm-7.083-.883.022 11.289-3.736.007-.022-12.001-7.073.012.006 3.518-3.798.006-.005-2.961c-.004-1.868 1.76-3.803 4.038-3.876l6.565-.012c2.203.031 4 2.094 4.003 4.018m-16.247 16.253-3.752.007-.035-20.25 5.874-.011c-.107.071-2.116 1.394-2.111 3.93l.007-.001.005 2.905h-.012l.003 1.657h.012l1.658-.003 3.798-.007.006 3.237-5.468.01zm5.739-.01c-3.063.005-3.938-2.87-4.132-3.736l-.005-3.168 3.854-.007.005 2.901c0 .302-.028 1.507.649 2.499.738 1.084 1.495 1.449 1.627 1.508zm15.957-11.862.021 11.834-10.385.018c-.478-.041-2.029-.261-3.163-1.423-1.21-1.237-1.095-3.122-1.095-3.122l-.018-10.77 3.846-.006.02 12 7.012-.013-.014-8.512zm-3.949-5.095.036-.015c-.002-1.201-.856-2.633-1.949-3.296l5.848-.01.006 3.313z"/></svg>