<svg enable-background="new 0 0 81.069 37.097" viewBox="0 0 81.069 37.097" xmlns="http://www.w3.org/2000/svg"><g clip-rule="evenodd" fill-rule="evenodd"><path d="m30.161.116c.193 2.715.098 5.974.049 8.77-1.114.258-2.389.097-3.634.097-2.655-.001-5.691.093-8.43-.097-.175-1.347-.097-2.93-.097-4.458 0-1.534-.109-3.068.145-4.36 3.792-.07 8.175-.127 11.967.048z"/><path d="m77.641 18.284c.442.478 1.236.604 1.695 1.066.014.099.129.097.193.145.619.726 1.138 1.444 1.357 2.568.211 1.081.048 2.408.048 3.73v3.876c0 1.58.224 3.461-.242 4.65-.446 1.14-1.553 2.121-2.762 2.52-1.286.425-3.285.194-5.038.194-21.128-.002-41.675-.147-62.645-.146-3.442 0-6.912.014-10.126-.145-.175-1.364-.097-2.936-.097-4.506 0-1.521-.116-3.116.145-4.409 9.675-.168 19.802-.001 29.651 0 3.259.001 6.502.099 9.641-.097.295-1.192.121-3.105.097-4.457-1.16-.342-2.43-.193-3.682-.193-8.868 0-18.128.02-26.792-.194-.235-2.879-.192-6.122 0-8.963 1.204-.263 2.476-.146 3.73-.146 8.791.001 17.949.164 26.695-.048.261-.947.145-2.146.145-3.344 0-2.283 0-4.504 0-6.928 0-.988-.117-2.727.194-3.295.036-.045.088-.073.146-.097 11.667.004 23.958 0 35.561 0 .933 0 1.988-.109 2.616.145 1.081.439 1.943 1.398 2.423 2.567.492 1.202.387 2.88.388 4.603 0 3.155.476 7.213-.824 9.108-.099.145-.254.242-.29.387-.613.602-1.424 1.002-2.227 1.409zm-12.064-4.553c1.718-.001 5.431.439 6.008-.63.366-.678.248-2.882-.145-3.392-.385-.5-1.315-.484-2.374-.484-2.936 0-5.905.033-8.43-.049-3.576-.116-7.921.069-11.434.049-.303.541-.125 1.373-.146 2.132-.021.775-.067 1.586.097 2.229 5.268.237 10.66.146 16.424.145zm-13.808 14.049c5.743-.001 11.117.05 16.666.048.889 0 2.178.128 2.714-.145 1.091-.557.812-3.18.339-4.118-.961-.533-2.173-.339-3.295-.339-6.254-.001-12.946-.058-18.992 0-.329.489-.194 1.351-.194 2.132 0 .814-.074 1.672.097 2.276.828.261 1.749.146 2.665.146z"/></g></svg>