<svg enable-background="new 0 0 72.651 69.822" viewBox="0 0 72.651 69.822" xmlns="http://www.w3.org/2000/svg"><path clip-rule="evenodd" d="m56.984.321c.305 1.714.087 3.597 0 5.457-.176 3.795-.051 7.448-.05 11.467 0 .65-.101 1.734-.101 2.754 0 .855.134 2.372-.2 2.654-.29.245-1.706.166-2.503.15-2.527-.051-5.314-.051-7.712-.051-1.829.001-3.514-.048-5.157 0-3.354.1-6.724-.049-10.315-.05-1.875 0-3.367.08-4.557.701-2.22 1.158-3.658 3.49-2.954 7.211 1.245.332 2.601.2 3.956.2 3.993 0 8.274.049 12.618.05 4.854.001 9.675-.05 14.671.05.785.016 1.664-.058 1.903.201.218.234.227 1.023.2 1.601-.169 3.715.208 8.664-.651 11.768-1.036 3.743-3.29 6.434-6.209 8.062-1.617.902-3.548 1.429-5.658 1.502-6.578.228-14.138.001-20.83.2-.391.89-.25 2.348-.25 3.756 0 .77-.234 3.266.2 3.756.365.411 2.262.2 3.104.2 5.272-.001 10.733.25 16.123.05 6.432-.239 10.973-1.808 14.672-4.907 3.75-3.142 6.024-6.845 7.16-12.468.39-1.926.349-3.876.451-6.109.19-4.195.117-8.574.2-12.769.062-3.22.188-6.479.05-9.765-.129-3.061.066-6.295.1-9.413.012-1.016.055-2.059.101-3.055.048-1.031-.154-2.078.2-3.055.403-.382 2.315-.271 3.455-.25.98.018 2.964-.252 3.405.15.457.416.14 2.77.1 3.605-.31 6.546-.148 13.172-.15 19.678 0 1.281-.1 2.605-.1 3.906 0 3.975-.101 7.894-.101 11.867.002 5.299-.876 9.613-2.403 13.52-.745 1.906-1.608 3.769-2.653 5.308-4.3 6.333-11.066 10.463-20.53 11.367-1.253.119-2.519.145-3.806.1-1.28-.044-2.569.101-3.855.101-2.583-.001-5.203-.103-7.812-.05-3.771.075-7.774-.05-11.717-.051-1.229 0-2.509.157-3.705-.149-.265-.85-.216-1.786-.251-2.705-.106-2.82.138-5.812 0-8.712-.138-2.897.001-5.778 0-8.663 0-.919-.11-1.885.15-2.754 1.373-.313 2.927-.101 4.507-.101 6.262.001 12.43 0 18.627 0 1.624.001 3.2.057 4.607 0 4.1-.163 6.377-2.997 5.558-7.61-1.149-.486-2.492-.248-3.805-.251-6.856-.012-13.878-.062-20.931-.1-1.282-.007-2.777-.107-4.206-.05-1.439.057-3.731.32-4.256-.501-.456-.712-.218-2.457-.2-3.305.069-3.557-.231-7.122.601-10.015 1.043-3.629 3.609-6.295 6.509-7.862 1.623-.876 3.481-1.489 5.559-1.651 2.139-.167 4.446.102 7.01 0 4.702-.188 9.32.137 13.82-.15.404-.804.251-2.22.251-3.556 0-.671.247-3.145-.15-3.606-.387-.448-2.203-.3-3.005-.3-2.239 0-4.352 0-6.509 0-5.113.001-11.325-.595-15.623.351-7.171 1.576-11.648 6.062-14.472 11.817-1.46 2.978-2.002 6.739-2.003 11.166 0 3.286-.075 6.606 0 9.765.026 1.068-.147 2.132-.1 3.154.191 4.123 0 8.665 0 12.969v9.464c0 1.012.128 2.788-.2 3.205-.98.168-2.253.207-3.455.149-1.209-.057-2.486.058-3.505-.2-.23-.939-.2-1.936-.2-2.904 0-10.908.099-22.185.1-33.448.001-4.116.014-8.03.801-11.567.739-3.316 2.122-6.172 3.706-8.713 3.139-5.034 7.771-8.865 13.87-10.966 2.377-.818 4.756-1.482 7.661-1.652 8.586-.504 18.634-.147 27.54-.15 1.101.001 2.253-.134 3.304.202z" fill-rule="evenodd"/></svg>