<svg enable-background="new 0 0 13.39 17.059" viewBox="0 0 13.39 17.059" xmlns="http://www.w3.org/2000/svg"><path d="m4.588.331c.673-.21 1.377-.327 2.083-.329 1.343-.002 2.686.001 4.03-.002.001.364-.004.728.002 1.092-1.407.006-2.815 0-4.222.002-1.137.056-2.266.435-3.172 1.13-1.425 1.047-2.29 2.827-2.202 4.596.242-.309.47-.63.753-.904 1.181-1.242 2.866-1.976 4.576-2.033 1.422-.003 2.843.004 4.265-.004 0 .365-.002.729.002 1.093-1.282.006-2.564.002-3.847.003-1.378-.058-2.763.445-3.813 1.332-1.022.865-1.712 2.112-1.893 3.439-.198 1.379.188 2.825 1.018 3.941.979 1.354 2.602 2.21 4.268 2.28 1.596.084 3.21-.566 4.314-1.72.857-.887 1.407-2.07 1.514-3.301-2.273.001-4.547-.007-6.82.004-.006-.361 0-.723-.005-1.084 2.281.008 4.562-.008 6.843.008-.001-2.261 0-4.522 0-6.783.37.011.739-.002 1.109.006-.015 2.418-.002 4.837-.006 7.256.015.56-.046 1.123-.18 1.667-.425 1.774-1.645 3.328-3.243 4.2-1.733.972-3.905 1.103-5.749.37-1.623-.631-2.974-1.927-3.673-3.522-.35-.809-.539-1.69-.538-2.573 0-1.154 0-2.308 0-3.463.001-.342-.012-.686.024-1.028.064-.777.286-1.536.617-2.241.782-1.613 2.242-2.875 3.945-3.432z"/></svg>