<svg enable-background="new 0 0 169.75 176.427" viewBox="0 0 169.75 176.427" xmlns="http://www.w3.org/2000/svg"><g clip-rule="evenodd" fill-rule="evenodd"><path d="m169.678.498c.114 18.253.1 38.952-.098 57.67.008.058-.011.088-.05.099-18.494.236-37.109-.088-55.606 0-.072.101-.161.185-.197.344-.217.96 0 2.528 0 3.782.001 18.244-.097 37.029-.098 55.607-.001 10.098-.048 18.933-.049 29.179-.001 9.311-.049 17.923-.049 27.558 0 1.406-.04 1.826-1.277 1.474-.431-.41-.246-1.088-.246-1.571-.002-36.864.161-74.072.147-111.264-.046-.036-.075-.089-.098-.147-.706-.25-2.117-.186-2.898-.049-.258.499-.147 1.099-.147 1.621.001 17.88-.052 36.167-.147 53.445-.048.001-.038.06-.049.099-13.189.157-27.1 0-40.772 0-22.117 0-45.104-.122-67.839-.295-.017-.064-.086-.077-.098-.147-.034-39.218.058-78.456.196-117.749.093-.006.034-.162.147-.148 38.211-.054 77.358.248 116.372.245 13.742 0 28.492.098 42.442.099h7.909c.834 0 1.691-.12 2.505.148zm-60.469 2.553c-18.446.002-37.539-.197-56.049 0-.257 4.725-.147 9.497-.147 14.246 0 9.651-.049 18.948-.049 28.54 0 21.676-.099 42.455-.099 63.86 0 2.342-.095 4.698.099 7.024.8.137 2.323.213 3.045-.049.15-9.25.257-18.548.147-27.706-.007-.562.015-1.092.049-1.67.03-.525-.049-1.086-.049-1.621 0-7.794.008-16.001.147-24.119.055-.01.076-.055.098-.099 18.441-.099 37.724.149 55.607 0 .011-.055.055-.076.098-.098.173-.822.029-2.062 0-2.997-.062-.002-.068-.062-.147-.049-6.974-.15-13.973-.149-20.926-.148-4.713.001-9.159-.024-13.754-.049-6.007-.032-11.686 0-17.537 0-1.141 0-2.318.116-3.439-.148-.092-16.3 0-31.946 0-48.484 0-1.04-.118-2.126.147-3.144 18.631-.272 37.385.188 55.853-.099.186-.817.105-2.15.049-3.045-1.027-.256-2.097-.145-3.143-.145z"/><path d="m169.581 61.802c.112 18.61.108 38.157-.099 56.689-6.68.142-13.228-.02-19.796.049-8.816.092-17.165-.05-26.183-.049-2.171 0-4.363.114-6.484-.148-.145-17.704-.049-35.405-.049-53.495 0-.564-.007-1.149 0-1.719.006-.487-.053-1.103.246-1.523 8.67-.073 17.931.052 26.379.05 8.839-.003 17.499-.03 25.986.146z"/><path d="m108.717 121.733c.021.043.043.088.098.098.173 18.155.091 35.949-.098 54.33-36.27.156-72.242-.002-108.562-.246-.022-.043-.043-.088-.098-.098-.13-17.686 0-34.956 0-52.758 0-.521-.11-1.09.147-1.572 8.761-.133 18.892 0 28 0 27.25 0 54.31.167 80.513.246z"/><path d="m169.482 121.978c.195 13.683.049 27.137.049 40.772.001 4.519-.014 9.067-.146 13.558-4.283.184-8.68.1-13.067.099-12.935-.004-26.285.034-39.347-.197-.268-1.088-.148-2.225-.148-3.34.001-8.001.049-15.935.049-24.021.001-8.484.048-16.813.049-25.445 0-.504-.113-1.092.147-1.572 4.01-.23 9.284-.048 13.165-.049 11.917-.003 23.929.049 36.105.049 1.038-.001 2.122-.121 3.144.146z"/></g></svg>