<svg enable-background="new 0 0 75.845 75.12" viewBox="0 0 75.845 75.12" xmlns="http://www.w3.org/2000/svg"><g clip-rule="evenodd" fill-rule="evenodd"><path d="m.271 74.95c-.135-.558-.202-1.801.047-2.285 2.853-.142 5.399-.479 7.807-.999 7.113-1.536 12.398-5.24 16.995-9.378 4.195-4.43 7.808-9.92 9.426-16.947.858-3.727 1.164-8.061.619-12.092-.498-3.695-1.648-7.241-2.999-10.14-2.699-5.792-6.975-10.809-12.091-14.282-5.279-3.583-11.727-6.01-19.947-6.379-.192-.596-.149-1.594 0-2.237 7.865-.115 15.898-.096 24.421-.095 2.748 0 5.553.081 8.331-.048 4.424-.206 9.436.137 14.043-.048.768-.03 1.597.039 2.38.048.782.008 1.609-.117 2.285 0 .749.13 1.788.799 2.618 1.237 5.843 3.085 10.642 7.549 14.282 12.663 2.637 3.705 4.8 8.207 6.093 13.187.269 1.034.39 2.135.619 3.237 1.417 6.815.31 14.665-1.523 20.327-2.493 7.7-6.855 13.514-12.425 18.328-1.391 1.202-2.898 2.172-4.475 3.237-.69.466-1.507 1.008-2.38 1.476-.843.451-1.848 1.029-2.618 1.189-.101.022-.178.04-.286.048-2.111.148-4.299 0-6.474 0-13.936.003-27.72.095-41.702.095-1.001.002-2.055.118-3.046-.142z"/><path d="m.271 7.257c9.666.312 16.418 3.944 21.47 8.997 3.706 3.706 6.804 8.569 8.188 14.662.473 2.082.762 4.264.762 6.808 0 4.85-1.157 8.934-2.761 12.473-1.585 3.5-3.733 6.511-6.284 8.902-4.567 4.282-10.022 7.77-17.995 8.663-1.08.121-2.263.316-3.428.048-.132-19.463-.19-38.987-.19-58.554 0-.682-.068-1.553.095-1.856.027-.069.075-.117.143-.143z"/></g></svg>