<svg enable-background="new 0 0 80.291 65.088" viewBox="0 0 80.291 65.088" xmlns="http://www.w3.org/2000/svg"><g clip-rule="evenodd" fill-rule="evenodd"><path d="m37.843.188c.233 4.877.112 10.133.051 14.901-.021 1.577.259 3.131-.051 4.581-5 .135-11.303.096-16.663-.05-.453-.305-.565-.909-.755-1.41-.379-.993-.809-2.04-1.209-3.071-.19-.493-.324-1.057-.704-1.41-.442.307-.572.92-.756 1.41-.555 1.487-1.088 3.176-1.811 4.531-1.875.29-4.42-.09-6.293.202.165.588.746.869 1.158 1.208.842.693 1.592 1.398 2.517 2.165.409.339 1.104.691 1.157 1.158.05.423-.357 1.315-.503 1.762-.542 1.662-1.205 3.41-1.511 5.084.622.014 1.012-.631 1.561-.855 1.476-1.041 2.882-2.152 4.43-3.122 1.577.89 2.99 2.035 4.481 3.071.477.332.906.816 1.511.906-.101-1.214-.617-2.321-.957-3.473-.336-1.142-.747-2.266-1.057-3.424.467-.707 1.255-1.094 1.963-1.561 8.191.001 17.287-.049 25.826.051.228 1.601.15 3.519.151 5.588 0 1.931-.151 3.922-.151 5.79-.001 2.645.393 5.462.05 8.055-9.457.362-19.536-.041-29.249.151-.314 1.077-.279 2.319-.201 3.474.104 1.527.051 3.166.051 4.783-.001 3.203 0 6.427 0 9.565 0 1.583.122 3.188-.151 4.682-6.515.118-13.786.107-20.54-.05-.163-21.486-.156-41.663-.152-63.031.001-.573-.177-1.289.252-1.762 12.149-.048 25.348-.15 37.555.101z"/><path d="m69.358 8.394c-7.582.138-15.867 0-23.813 0-1.078 0-2.192.211-3.222-.101-.183-1.213-.101-2.674-.101-4.078 0-1.424-.117-2.86.151-4.027 6.663-.601 12.776.267 17.67 2.215 3.139 1.25 5.985 2.992 8.407 4.984.347.284.777.575.908 1.007z"/><path d="m77.564 19.62c-.61.269-1.311.151-1.964.151-10.412.001-20.592-.001-31.011 0-.755 0-1.54.114-2.266-.151-.168-2.439-.165-5.564 0-8.004 4.682-.273 10.46-.101 15.607-.101 4.921 0 9.789.102 14.499.05 1.157 1.021 2.067 2.358 2.92 3.675.427.66.827 1.389 1.208 2.114.373.712.811 1.452 1.007 2.266z"/><path d="m78.823 22.943c.895 2.227 1.439 5.07 1.46 8.004-.604.226-1.227.101-1.863.101-7.616.001-15.914.233-23.51-.101-.171-2.515-.168-5.457 0-8.004.55-.13 1.284-.149 1.862-.151 7.237-.025 14.649.049 22.051.151z"/><path d="m80.283 34.32c.053 1.478-.152 2.974-.403 4.33-.25 1.351-.53 2.658-1.057 3.725-7.772.134-16.183.202-23.913-.05-.166-2.455-.168-5.6 0-8.055 2.176-.238 5.07-.101 7.803-.101 4.324.001 8.632 0 12.989 0 1.567 0 3.112-.122 4.581.151z"/><path d="m77.564 45.647c-.084.838-.572 1.544-.956 2.265-.379.71-.781 1.441-1.209 2.114-.853 1.342-1.746 2.723-2.92 3.726-15.635-.018-31.644.075-47.372-.151-.248-1.127-.151-2.542-.151-3.977 0-1.392-.081-2.861.101-4.078.51-.128 1.242-.144 1.763-.151 10.36-.132 21.229.099 31.917.101 4.265.001 8.447-.042 12.586.05 2.088.047 4.193-.261 6.241.101z"/><path d="m69.358 56.924c.045.407-.402.703-.654.906-4.495 3.632-10.216 6.341-17.62 7.098-2.068.212-4.271.151-6.443.151-6.488-.001-13.233.033-19.533-.101-.268-1.624-.151-4.062-.151-6.192 0-.573-.021-1.733.201-1.913.037-.047.092-.076.151-.101 14.784.036 29.395-.067 44.049.152z"/></g></svg>