<svg enable-background="new 0 0 79.832 81.801" viewBox="0 0 79.832 81.801" xmlns="http://www.w3.org/2000/svg"><path clip-rule="evenodd" d="m40.059.003c.747.148.458 1.314.458 1.987.001 2.304.016 4.815.153 6.982.74.43 1.616.449 2.396.663 5.421 1.487 9.947 4.128 13.251 7.797 3.911 4.106 6.678 9.359 8.052 16.003.352-.909.204-1.959.204-2.956.001-3.098-.051-6.239-.051-9.377 0-4.187-.089-8.457.102-12.334 2.067-.173 4.56-.147 6.575 0 .342 10.354.024 21.523.356 31.904 1.164.271 2.821.153 4.383.153h2.293c.683 0 1.767-.171 1.58.663-.109.493-1.189.356-1.937.356-2.214 0-4.665-.042-6.728.051-.339.761-.419 1.577-.611 2.345-1.355 5.419-3.773 9.835-6.982 13.455-3.459 3.277-7.45 6.192-12.843 7.594-.718.186-1.542.239-2.191.713 7.339.349 15.294-.05 23.036.255.152 2.24.278 4.837 0 6.931-9.923.281-20.242-.038-30.528.153-.33.574-.203 1.373-.203 2.141-.001 1.564.035 3.047.051 4.536.006.631.228 1.674-.51 1.784-.756-.148-.443-1.249-.459-1.886-.047-1.997-.025-4.616-.102-6.727-.657-.547-1.551-.529-2.294-.713-3.899-.968-7.273-2.586-10.091-4.74-3.346-2.557-6.012-5.812-8.154-9.632-1.449-2.584-2.246-5.55-3.109-8.766-.342 1.82-.152 3.781-.152 5.759 0 5.983.104 12.391-.051 18.194-.931.205-2.156.102-3.363.102-1.219 0-2.459.082-3.466-.102-.189-5.187-.153-10.539-.154-15.801 0-3.897-.051-7.833-.051-11.824 0-1.249.23-2.483 0-3.67-1.222-.326-2.898-.153-4.484-.153-.753 0-1.652 0-2.447 0-.702 0-1.713.251-1.987-.408 0-.068 0-.136 0-.204.273-.658 1.284-.408 1.987-.408 2.265 0 4.943.041 7.084-.051.495-.681.41-1.595.612-2.395.596-2.368 1.317-4.655 2.344-6.575 1.299-2.677 2.938-5.013 4.892-7.033 1.878-2.093 4.121-3.83 6.626-5.3 1.289-.757 2.592-1.349 4.026-1.937 1.414-.58 2.984-.776 4.484-1.427-7.724-.46-15.253.117-23.239-.306-.2-2.061-.106-4.684-.051-6.829 1.847-.271 3.784-.127 5.708-.153 8.016-.107 16.95.112 24.973 0 .265-.611.153-1.39.153-2.138 0-1.479 0-3.046 0-4.587 0-.716-.148-1.502.204-2.039.143.042.132-.071.255-.05zm-2.855 16.003c-.273 1.028-.152 2.38-.152 3.67 0 1.312.084 2.635-.153 3.618-6.092.214-10.367 2.287-13.658 5.301-2.443 2.28-4.494 5.083-5.861 8.358-.469 1.123-.918 2.377-.968 3.72.837.271 1.876.153 2.904.153h6.116c.904 0 2.452-.295 2.548.561.065.736-1.876.458-2.599.458-3.085 0-6.626-.081-9.174.102-.396.574-.427 1.836-.204 2.599 2.065.331 4.95-.16 6.932.255.192 1.985.446 3.793.866 5.402.15.576.207 1.182.356 1.733.229.841.68 1.768 1.07 2.548 1.22 2.438 2.964 4.513 4.791 6.218 1.876 1.784 4.218 3.109 6.829 4.128.865.337 1.791.786 2.803.764.275-.891.153-1.948.153-3.007 0-2.724-.028-5.227 0-7.899.004-.424-.114-1.181.561-1.07.031.007.071-.01.102 0 .532.164.306 2.678.306 3.517 0 3.089.006 5.812.103 8.664.454.363 1.712.403 2.396.204.267-.881.152-2.127.152-3.414 0-.751-.235-3.069.153-3.465.307-.314 1.089-.165 1.631-.204 5.103-.371 9.518-2.793 12.333-5.555 2.369-2.058 4.347-4.723 5.556-7.899.408-1.073.803-2.252.917-3.466-.895-.268-2.02-.153-3.16-.153-2.303 0-4.296 0-6.625 0-.804 0-2.681.356-2.395-.815.346-.347.914-.204 1.376-.204h4.791c2.162 0 4.354.121 6.218-.153.309-.516.469-1.635.255-2.344-.813-.348-2.073-.204-3.364-.204-.768 0-3.011.247-3.414-.153-.279-.276-.243-1.455-.307-2.09-.504-5.084-2.497-9.044-4.79-12.028-2.212-2.606-4.853-4.752-8.205-6.217-1.113-.487-2.298-1.064-3.619-1.122-.344 2.045-.086 4.446-.102 6.728-.009 1.345 0 2.804 0 4.281 0 .39.147 1.084-.407 1.121-.083-.013-.174.017-.256 0-.475-.101-.35-2.207-.357-2.854-.03-3.049.121-6.897-.153-9.531-.526-.304-1.514-.376-2.295-.256z" fill-rule="evenodd"/></svg>