<svg enable-background="new 0 0 83.822 58.642" viewBox="0 0 83.822 58.642" xmlns="http://www.w3.org/2000/svg"><g clip-rule="evenodd" fill-rule="evenodd"><path d="m24.335.333c.181 2.865.098 5.837-.049 8.694-2.497.119-5.057-.234-6.387 1.18-.987 1.05-.987 3.191-.785 5.206.921.22 2.055.106 3.241.147 1.17.041 2.428-.107 3.488.099-.092.437-.586.514-.884.688-4.77 2.788-8.134 7.8-9.334 14.246-1.413 7.591-.209 16.197 3.291 20.681-.064 1.967.129 4.189-.098 5.993-3.483.163-7.666.162-11.2 0-.282-.636-.099-1.346-.099-2.015 0-10.647.086-22.1-.049-32.176-.733-.238-1.717-.156-2.652-.196-.964-.041-1.945.108-2.751-.098-.05-2.278-.145-5.024.049-7.222 1.562-.288 3.793.092 5.354-.196.12-2.685.15-4.862.688-6.779 1.365-4.871 4.997-7.35 10.316-8.301 2.376-.424 5.439-.345 7.861.049zm-4.864.197c-8.14.383-12.977 3.985-13.361 12.084-.052 1.086.187 2.217-.098 3.341-1.772.26-3.683-.158-5.354.196-.162 1.807-.164 4.285 0 6.091 1.474.426 3.931-.132 5.403.295.156 11.308-.188 22.896.098 34.141 2.339.197 5.048.146 7.614.147.869 0 1.749.114 2.506-.147.226-1.543.035-3.502.098-5.207-2.89-4.091-4.265-10.192-3.782-17.143.456-6.579 2.688-11.583 5.993-15.18.487-.508.969-1.015 1.522-1.474.54-.447 1.267-.777 1.621-1.425-1.462-.355-3.667.033-5.158-.294-.291-2.987-.154-5.684 1.818-6.779 1.299-.722 3.315-.565 5.305-.736.257-.498.147-1.148.147-1.769 0-1.942.08-4.086-.099-5.797-1.197-.335-2.786-.415-4.273-.344z"/><path d="m55.38.382c.202 4.986.013 10.389.049 15.081-.592.642-1.425.889-2.112 1.326-4.137 2.63-7.174 6.614-8.793 11.838-.258.831-.394 1.747-.786 2.604-.431-.496-.543-1.144-.786-1.72-.712-1.689-1.8-3.179-3.438-4.028-1.932-1.279-5.934-1.427-8.106-.344-.806.402-1.636 1.182-2.259 1.916-3.044 3.58-3.646 11.508-1.671 16.751.734 1.947 2.036 3.647 3.733 4.52 3.27 1.679 7.648.457 9.628-1.524.645-.645 1.23-1.272 1.671-2.063.443-.796.649-1.705 1.179-2.505.342.324.34.838.441 1.228 1.442 5.494 4.427 9.861 8.646 12.673.63.421 1.38.729 1.866 1.376-3.311.067-6.968.059-10.218-.099-.282-1.207.085-3.064-.196-4.273-.494.044-.675.555-.934.835-.291.316-.606.573-.884.885-2.424 2.305-5.588 3.783-9.923 3.782-4.351-.001-7.851-1.321-10.315-3.341-4.84-3.963-7.943-10.948-7.369-19.895.544-8.461 3.674-14.783 9.284-18.077 2.8-1.644 6.958-2.91 11.2-2.014 3.461.731 5.729 2.077 7.713 4.273.249.275.462.694.884.786.255-5.609.147-11.829.147-17.733 0-.802-.118-1.619.148-2.357 3.66-.086 7.64-.074 11.201.099zm-10.66.491c-.23.21-.146 1.461-.147 2.309-.001 5.691-.081 11.239-.049 16.506.004.631.239 1.891-.245 2.014-.362.092-.809-.546-.983-.786-1.785-2.468-4.114-4.148-7.466-4.961-4.298-1.043-8.649.237-11.495 1.915-2.814 1.659-5.281 4.456-6.681 7.517-1.465 3.201-2.493 7.201-2.407 11.789.169 9.005 3.438 15.825 9.334 19.06 2.966 1.627 7.851 2.528 11.838 1.376 3.323-.961 5.513-2.691 7.271-5.109.22-.302.448-.859.983-.835.316.241.196.75.196 1.179 0 1.34-.114 3.004.147 4.028 2.248.162 5.17.165 7.418 0-.277-.604-.906-.879-1.376-1.277-1.468-1.246-2.752-2.617-3.88-4.175-1.528-2.109-2.583-4.496-3.537-7.222-.42.177-.543.664-.737.982-1.508 2.465-3.93 4.421-7.81 4.422-4.478 0-6.923-2.222-8.203-5.748-1.276-3.516-1.399-8.43-.491-12.183.887-3.666 2.819-6.762 6.386-7.614 2.478-.591 5.246-.034 6.927.835 1.327.688 2.365 1.856 3.095 3.046.246.403.356.979.835 1.229.411-.729.602-1.515.884-2.26 1.453-3.836 3.68-6.851 6.583-9.185 1.176-.946 2.449-1.704 3.782-2.555.049-4.621.146-9.703-.049-14.196-.699-.259-1.52-.153-2.31-.147-2.494.017-5.138-.112-7.663-.05-.06.022-.114.051-.15.096z"/><path d="m83.429 30.397c-3.341.16-7.066.157-10.414 0-.991-3.312-3.133-6.141-7.27-6.141-2.232 0-4.306.472-5.847 1.621-2.885 2.151-4.07 5.983-4.273 10.61-.308 7.022 2.341 12.878 8.892 13.361 2.264.167 4.662-.255 6.238-1.572.601-.501 1.308-1.499 1.72-2.26.47-.867.744-1.854 1.08-2.897 3.249-.2 7.046-.105 10.267.049-.313 4.267-2.015 7.663-4.421 10.07-2.412 2.412-5.648 4.255-9.628 4.961-9.342 1.658-16.904-2.23-20.877-7.467-2.114-2.786-3.562-6.238-4.127-10.463-.614-4.6.193-9.213 1.572-12.624 2.615-6.47 8.52-11.673 17.193-12.134 8.951-.476 14.483 3.099 17.733 8.449 1.101 1.812 1.906 4.004 2.162 6.437z"/></g></svg>