<svg enable-background="new 0 0 81.185 62.074" viewBox="0 0 81.185 62.074" xmlns="http://www.w3.org/2000/svg"><path clip-rule="evenodd" d="m45.166.151c.262 1.441.146 3.149.146 4.841 0 1.675.079 3.402-.098 4.891-1.027.245-2.181.098-3.326.099-3.396 0-7.156-.081-10.416.098-.261 1.215-.146 2.542-.147 3.863 0 3.875-.079 8.123.099 11.884.702.282 1.521.227 2.298.195 5.514-.221 11.598.221 17.068-.049.37-.933.11-1.987.146-3.032.241-6.985-.293-15.718.146-22.838 3.147-.05 6.764-.146 9.83.049.265 2.046.146 4.204.146 6.357-.001 6.37-.081 13.111.098 19.366.724.302 1.548.195 2.348.195 5.702 0 11.767.053 17.508.098.264 1.452.146 3.186.146 4.891 0 1.676.08 3.402-.098 4.891-1.555.266-3.229.146-4.891.146-4.942 0-10.188-.104-14.965.049-.26 2.062-.146 4.225-.146 6.407v13.057c0 2.163.11 4.311-.146 6.357-3.184.099-6.684.205-9.879-.049-.241-8.234.128-16.991-.195-25.772-6.259-.135-13.13-.195-19.366-.049-.264 2.068-.146 4.243-.147 6.407 0 6.287.082 13.025-.098 19.365-.739.258-1.609.147-2.445.147-2.516-.001-5.119.037-7.433-.147-.293-8.426.098-17.555-.196-25.772-.802-.263-1.689-.146-2.543-.146-6.103 0-12.655.085-18.485-.146-.178-1.509-.099-3.225-.099-4.94 0-1.665-.117-3.409.147-4.842 5.076-.188 10.518-.049 15.845-.049 1.75 0 3.497.119 5.135-.147.178-7.855.1-16.337.098-24.452 0-.453-.148-1.038.245-1.369 7.579.028 16.113-.088 23.67.146z" fill-rule="evenodd"/></svg>