<svg enable-background="new 0 0 12.964 12.966" viewBox="0 0 12.964 12.966" xmlns="http://www.w3.org/2000/svg"><path d="m5.606.52c.168-.177.344-.346.516-.52.417.411.828.828 1.243 1.241.144-.114.261-.258.395-.383.095-.108.23-.195.378-.194.126-.006.255.044.342.135.077.078.154.155.234.23-.248.259-.506.507-.758.762-.49.493-.985.98-1.472 1.476-.74-.73-1.47-1.471-2.208-2.203-.018-.013-.021-.046-.002-.06.164-.16.321-.327.488-.484.56.55 1.11 1.111 1.669 1.663.096-.089.187-.185.281-.277.045-.047.098-.089.131-.146-.409-.417-.825-.826-1.237-1.24z"/><path d="m3.412 1.528c-.015-.248.209-.48.457-.477.113 0 .226-.002.34.001.001 1.054.002 2.109 0 3.163-1.054.001-2.107.002-3.161 0-.002-.245-.001-.49 0-.734.776-.003 1.554-.003 2.332-.003.021.003.036-.018.032-.038 0-.187.002-.374-.001-.561-.588-.003-1.177 0-1.765-.001 0-.24 0-.48 0-.721.588-.001 1.177.003 1.765-.001.003-.209.001-.419.001-.628z"/><path d="m8.766 1.05c.24.002.481-.002.722.002.002.788-.003 1.576.002 2.364.198 0 .396.002.594-.001.004-.588 0-1.176.002-1.764.241-.002.482-.002.723 0 .001.588-.003 1.176.002 1.764.209.001.418 0 .628 0 .225-.018.429.168.473.383.008.133.001.267.004.401-1.05.003-2.1.001-3.15.001-.001-1.05-.005-2.1 0-3.15z"/><path d="m4.87 2.712c.003-.033-.014-.08.026-.098.516.526 1.043 1.041 1.56 1.566.011.016.038.024.051.006.458-.461.919-.919 1.378-1.379.068-.064.128-.137.203-.195.006.754-.001 1.508.003 2.262.753.003 1.506 0 2.259.002-.006.009-.018.028-.024.037-.515.515-1.03 1.031-1.546 1.546-.02.018-.01.051.01.064.523.515 1.036 1.042 1.562 1.554-.024.013-.05.019-.077.018-.729 0-1.457-.001-2.186 0-.003.754.003 1.508-.003 2.262-.158-.141-.302-.297-.453-.445-.368-.368-.737-.736-1.104-1.106-.017-.017-.037-.03-.059-.04-.517.519-1.036 1.035-1.551 1.554-.015.01-.031.017-.049.021.002-.748.001-1.497 0-2.245-.759-.004-1.517 0-2.276-.003.393-.396.789-.789 1.184-1.183.137-.15.294-.28.426-.433-.513-.504-1.016-1.017-1.527-1.522-.025-.023-.045-.05-.057-.081h2.249c.004-.72.001-1.441.001-2.162zm.679 1.507c-.006.43-.001.86-.002 1.291-.006.006-.017.02-.023.027-.436 0-.871-.002-1.307.001.044.062.103.109.156.164.255.256.511.511.767.767 0 .006.001.018.001.024-.311.305-.619.615-.927.924.423.008.846.001 1.268.003.022.003.043.008.064.017-.001.433-.003.866.001 1.3.076-.059.136-.135.206-.202.241-.238.479-.48.719-.719.052.029.089.077.131.118.266.268.536.533.799.803.044-.038.008-.097.012-.145 0-.369 0-.738 0-1.107 0-.025.011-.068.044-.063.428-.005.857.006 1.284-.006-.296-.304-.6-.602-.9-.904-.027-.026.002-.059.022-.076.282-.278.561-.559.841-.839.007-.011.02-.033.027-.044-.434-.004-.868-.002-1.302-.001-.009-.442 0-.885-.004-1.328-.022.011-.045.023-.062.042-.276.28-.557.556-.833.837-.017.017-.038.029-.062.036-.306-.308-.613-.615-.92-.92z"/><path d="m.766 4.518c.08-.093.176-.172.255-.265.08.049.138.126.205.189.667.667 1.333 1.333 2 2.001.029.022.025.064-.004.084-.721.722-1.443 1.443-2.164 2.165-.015.018-.047.015-.06-.002-.155-.157-.311-.312-.467-.467-.02-.014-.006-.037.008-.048.547-.546 1.094-1.093 1.64-1.639-.089-.099-.187-.188-.279-.283-.047-.044-.086-.1-.144-.131-.416.411-.825.829-1.242 1.238-.168-.176-.344-.344-.514-.517.401-.403.803-.805 1.207-1.206.023-.017.03-.055.005-.073-.136-.136-.274-.27-.408-.408-.098-.102-.157-.246-.142-.388.013-.09.046-.179.104-.25z"/><path d="m11.876 4.295c.022-.031.075-.041.099-.007.153.164.32.315.472.48-.555.556-1.114 1.109-1.666 1.669.137.14.279.275.414.417.421-.413.832-.836 1.253-1.248.171.173.348.342.515.519-.405.403-.807.81-1.215 1.21-.024.021-.017.062.009.079.123.123.252.241.37.368.123.107.193.277.17.44-.022.093-.058.185-.125.254-.069.072-.141.141-.209.213-.019.021-.056.012-.07-.01-.524-.524-1.047-1.049-1.572-1.572-.206-.211-.421-.414-.624-.629.723-.731 1.454-1.454 2.179-2.183z"/><path d="m1.045 8.762c.048-.008.097-.007.146-.006 1.006.001 2.013-.002 3.019.001.002 1.051 0 2.102 0 3.153-.054.014-.111.008-.167.009-.186-.002-.373.003-.56-.002l-.01-.012c-.004-.783.003-1.567-.003-2.35-.198-.002-.397-.002-.596.001-.001.587.001 1.175-.001 1.762-.24 0-.48.001-.72 0-.002-.588.001-1.176-.002-1.764-.23-.001-.46.002-.69-.001-.157-.019-.3-.124-.369-.266-.081-.163-.033-.351-.047-.525z"/><path d="m8.751 8.757c1.053-.003 2.107-.002 3.16-.001.007.035.018.069.016.105-.001.203-.001.406 0 .61-.021.008-.041.021-.064.02-.767 0-1.535-.001-2.302 0-.001.197 0 .393 0 .589.588.001 1.177-.003 1.765.001.001.243.001.486 0 .729-.588.006-1.176 0-1.764.003-.01.249.017.5-.021.747-.053.207-.256.365-.47.359-.106-.001-.213.002-.319-.002-.002-1.053 0-2.106-.001-3.16z"/><path d="m6.455 9.721c.022-.027.054-.007.071.015.729.733 1.463 1.461 2.192 2.194-.171.175-.345.349-.52.521-.557-.554-1.11-1.112-1.669-1.665-.139.133-.272.272-.41.407l.028.044c.403.406.812.807 1.211 1.216-.179.164-.341.346-.518.512-.398-.402-.799-.799-1.197-1.2-.021-.032-.071-.036-.094-.003-.14.14-.278.281-.42.418-.119.102-.291.156-.443.104-.19-.05-.304-.223-.44-.351.734-.74 1.474-1.473 2.209-2.212z"/></svg>