<svg clip-rule="evenodd" fill-rule="evenodd" stroke-linejoin="round" stroke-miterlimit="2" viewBox="0 0 560 400" xmlns="http://www.w3.org/2000/svg"><path d="m110.745 157.74 105.031 125.19c-19.086 9.636-42.192 15.6-66.511 15.6-13.354 0-26.258-1.733-38.52-5.008zm343.47 0 105.031 125.19c-31.439 15.87-69.593 20.055-105.031 10.592zm-350.275-4.816v138.608c-36.215-11.569-67.61-37.082-86.028-71.39zm343.47 0v138.608c-36.286-11.594-67.648-37.146-86.028-71.39zm-315.286 19.71 157.354 27.863c-12.044 33.274-36.164 61.677-67.603 79.158zm343.47 0 157.354 27.863c-11.678 32.273-35.362 61.234-67.603 79.158zm-468.789-68.116s92.41 16.32 120.76 21.25l-112.863 88.21c-16.923-35.117-18.785-74.76-7.897-109.46zm343.47 0 120.76 21.25-112.863 88.21c-16.923-35.104-18.792-74.747-7.897-109.46zm-66.447-19.968c16.923 35.105 18.792 74.748 7.897 109.461l-120.76-21.25 112.863-88.21zm343.47 0c16.923 35.118 18.785 74.761 7.897 109.461 0 0-92.41-16.32-120.76-21.25l112.863-88.21zm-478.033 54.281c5.759 0 10.433 4.674 10.433 10.433s-4.674 10.433-10.433 10.433-10.432-4.674-10.432-10.433 4.673-10.433 10.432-10.433zm343.47 0c5.759 0 10.433 4.674 10.433 10.433s-4.674 10.433-10.433 10.433-10.433-4.674-10.433-10.433 4.674-10.433 10.433-10.433zm-298.145-131.833c36.286 11.594 67.648 37.146 86.028 71.39l-86.028 67.218zm343.47 0c36.215 11.569 67.61 37.082 86.028 71.39l-86.028 67.218zm-350.275-1.99v135.782l-105.031-125.19c31.439-15.87 69.593-20.055 105.031-10.592zm304.95-5.008c13.354 0 26.258 1.733 38.52 5.008v135.782l-105.031-125.19c19.086-9.636 42.192-15.6 66.511-15.6zm-416.08 18.875 89.751 107.021-157.354-27.863c11.678-32.273 35.362-61.233 67.603-79.158zm343.47 0 89.751 107.021-157.354-27.863c12.044-33.274 36.164-61.677 67.603-79.158z" fill-rule="nonzero" transform="matrix(.560751 0 0 .560751 99.999 116.3)"/></svg>