<svg enable-background="new 0 0 77.53 77.595" viewBox="0 0 77.53 77.595" xmlns="http://www.w3.org/2000/svg"><path clip-rule="evenodd" d="m38.281 2.984c.293-.826-.083-2.03.241-2.796 2.032-.225 4.147-.097 6.314-.097 6.433 0 13.208-.058 19.619.145.29.553.193 1.224.193 1.832v38.225c0 2.721-.308 5.479.627 7.326.905 1.788 2.371 3.11 4.435 3.615 1.655.405 3.899.192 5.881.193.594 0 1.256-.108 1.831.145.185 8.688.111 17.337-.048 25.885-9.453.173-19.22.098-28.777.097-1.645-.001-3.351.142-4.772-.097-1.347-.226-2.319-.962-3.181-1.639-.561-.291-.705-.999-1.35-1.205-.232.764.017 2.009-.241 2.747-7.282.315-15.453.006-23.185.048-1.033.006-2.102.154-3.085-.145-.279-2.017.084-4.225-.192-5.929-.507-3.118-2.891-5.603-6.508-5.64-1.865-.02-3.891.013-5.929-.145-.189-1.024-.144-2.1-.145-3.182-.009-7.742-.041-16.049.145-24.053.68-.256 1.47-.145 2.217-.145 2.253 0 4.928.274 6.603-.482 2.072-.936 3.747-2.748 3.76-5.64.013-2.873-1.685-4.768-3.808-5.64-1.198-.492-2.627-.483-4.242-.483-1.506 0-3.1.118-4.531-.143-.175-2.806-.096-6.122-.096-9.159 0-.996-.109-2.019.241-2.844-.395-2.062-.241-4.507-.241-6.845 0-2.314.011-4.669.096-6.797 9.559-.092 19.689-.235 29.644-.048 2.289.043 4.656-.21 6.218 1.013.439.263.853.524 1.205.867.342.336.548.864 1.061 1.016z" fill-rule="evenodd"/></svg>