<svg enable-background="new 0 0 77.718 76.057" viewBox="0 0 77.718 76.057" xmlns="http://www.w3.org/2000/svg"><g clip-rule="evenodd" fill-rule="evenodd"><path d="m52.681.39c.264.527.15 1.141.15 1.714 0 9.059-.014 18.695-.15 27.418-2.16.272-4.44.102-6.754.102-6.721 0-14.031-.007-20.817-.202-.092-1.982-.098-4.409 0-6.502 6.895-.223 13.766-.008 20.766-.05.022-.045.043-.09.1-.101.166-4.922.252-10.361.051-15.625-1.496-.236-3.125-.202-4.787-.202-11.428-.002-23.081-.188-34.275-.051-.27 2.515-.151 5.132-.151 7.762.001 17.05-.152 33.396-.151 50.855 0 1.27.118 2.576-.151 3.831-1.953.179-4.475.08-6.451-.051-.18-22.365.1-45.083.101-67.337 0-.611-.186-1.382.252-1.915 3.989.078 8.894-.155 13.206.05 4.368.208 8.818-.08 13.104.101 2.162.092 4.334 0 6.503 0 6.567.001 13.081.026 19.454.203z"/><path d="m77.679 6.891c.096 23.686.01 46.113-.201 69.151-17.277.06-35.02-.072-52.368-.303-.059.009-.09-.011-.101-.05-.209-9.531-.07-19.684.05-28.931 9-.214 18.465-.103 27.52.101.197 1.926.152 4.481 0 6.502-6.598.317-14.203-.168-20.766.101-.336 1.252-.151 2.601-.151 3.932.001 3.256-.051 6.47-.05 9.879 0 .624-.127 1.319.201 1.864 13.186.13 25.674.345 38.961.151.272-2.548.15-5.152.15-7.762 0-13.094.104-25.762.102-39.112 0-4.409.051-9.033.051-13.709 0-.715-.09-1.674.15-1.865.037-.047.092-.076.15-.101 2.128.027 4.359-.055 6.302.152z"/></g></svg>