<svg enable-background="new 0 0 77.995 78.568" viewBox="0 0 77.995 78.568" xmlns="http://www.w3.org/2000/svg"><g clip-rule="evenodd" fill-rule="evenodd"><path d="m37.794.124c.285.831.098 1.792.098 2.73 0 2.745.181 5.918-.049 8.63-.913.264-2.036.146-3.169.146-6.496 0-13.224 0-19.796 0-1.043 0-2.122-.11-3.121.146-.151 4.787-.206 10.044 0 14.774 1.013.265 2.106.146 3.169.146h19.796c1.045 0 2.124-.118 3.121.146.094 1.671.097 3.619.098 5.559 0 1.962.116 3.966-.146 5.705-6.251.183-12.62.098-18.918.098-6.228 0-12.646.15-18.723-.098-.189-12.175-.148-25.463 0-37.934 1.452-.266 2.942-.146 4.437-.146 7.399.001 14.691 0 22.38 0 3.65.001 7.498-.082 10.823.098z"/><path d="m77.824.173c.306.816.069 1.786.098 2.73.055 1.807.049 3.781.049 5.802 0 .969.113 1.962-.146 2.828-6.092.358-12.795-.069-19.552.098-2.186.054-4.357-.16-6.436.146-.276 1.04-.195 2.286-.195 3.56v7.606c0 .756-.249 3.257.146 3.657.342.345 2.279.146 3.169.146h19.796c1.065 0 2.151-.117 3.121.146.152 2.742-.031 5.836.098 8.533.045.95.04 1.933-.195 2.78-11.012.091-22.03.048-33.059.048-1.531.001-3.089.118-4.583-.146-.15-11.729-.098-23.645-.098-35.837 0-.741-.129-1.519.195-2.194 11.678.034 25.431-.114 37.592.097z"/><path d="m37.842 40.448c.098 3.476.194 7.562 0 11.312-1.011.208-2.091.098-3.169.098-7.668 0-15.174-.049-22.868.146-.313.967-.201 2.062-.195 3.121.036 6.42 0 13.484 0 20.137 0 1.083.114 2.192-.146 3.218-3.532.158-7.714.081-11.361-.049-.112-10.918-.14-22.446-.049-33.692.01-1.223-.021-2.181 0-3.511.009-.567-.076-.899.488-.975.692-.093 1.555.049 2.34.049 5.069 0 10.893-.048 16.334-.049 5.498 0 10.875.001 16.48 0 .708 0 1.473-.088 2.146.195z"/><path d="m77.824 40.448c.249 3.56.125 7.654 0 11.361-12.314.162-25.325.162-37.69 0-.177-2.716-.098-5.803-.098-8.875 0-.689-.233-2.554.341-2.633 1.272-.174 3.348 0 4.876 0 10.698.001 22.031-.054 32.571.147z"/></g></svg>