<svg enable-background="new 0 0 60.111 77.541" viewBox="0 0 60.111 77.541" xmlns="http://www.w3.org/2000/svg"><path clip-rule="evenodd" d="m50.908.139c-.188.401-.684.381-1 .45-2.562.564-4.873 1.882-6.85 3.2-2.336 1.558-4.238 3.402-5.951 5.551-3.334 4.181-6.469 9.179-6.252 16.653.732.345 1.863.2 2.9.2 1.049.001 2.119.074 2.951-.1.297-.91.268-1.841.4-2.75.369-2.545 1.15-5.062 2-7.301 2.255-5.952 5.599-10.872 11.052-13.752 1.9-1.003 4.379-1.934 7.351-1.95.863-.005 1.885-.12 2.602.4-.336.39-1.104.267-1.551.35-2.307.428-4.269 2.01-5.701 3.551-1.561 1.68-2.543 3.67-3.4 5.801-1.785 4.434-2.807 9.883-2.551 15.652 1.389.392 3.162.149 4.801.2 1.689.053 3.4-.116 4.951.1.188.319.238 1.146 0 1.45-3.004.297-6.697-.097-9.701.2-.301 1.014-.252 2.345-.252 3.601.002 4.849.227 10.035-.6 14.302-.605 3.129-1.496 5.886-2.949 8.151-1.4 2.181-3.209 4.253-5.15 6.001-1.986 1.787-3.912 3.479-6.102 5.001-4.301 2.989-9.1 5.652-14.303 7.951-1.287.568-2.662 1.071-4.051 1.55-2.723.94-5.584 1.709-8.752 2.35-1.557.315-3.17.717-4.801.55.121-.466.875-.515 1.4-.7 1.535-.541 3.068-1.314 4.451-2.1 1.85-1.051 3.605-2.248 5.102-3.651 3.014-2.828 5.377-6.172 7.051-10.452.838-2.144 1.387-4.514 1.65-7.101.266-2.625.25-5.503.25-8.501 0-2.817.199-5.709.199-8.551 0-2.877.092-5.686.201-8.352-.438-.399-1.158-.25-1.801-.25-1.957 0-4.176-.031-6.051-.1-.207-.298-.24-1.209 0-1.5 2.41-.334 5.359.164 7.75-.15.391-.9.379-1.858.602-2.75 1.084-4.354 3.16-7.981 5.65-11.102 3.041-3.81 6.533-6.52 11.102-9.002 3.668-1.989 7.804-3.756 13.353-3.1zm-19.853 27.755c-.059.024-.113.054-.149.1-.336.25-.299 1.689-.35 2.551-.166 2.798-.193 5.788-.352 8.351-.236 3.834-.285 7.585-.549 11.052-.559 7.327-3.721 11.888-7.201 16.003-1.182 1.403-2.504 2.665-3.951 3.8-1.051.881-2.248 1.632-3.4 2.4-.35.233-.914.482-.951 1 1.127-.001 2.164-.589 3.15-1.05 1.039-.485 2.144-.755 3.102-1.25.93-.482 1.785-1.115 2.699-1.601 2.896-1.536 5.182-3.434 7.102-5.901 1.227-1.575 2.369-3.433 3.25-5.401 1.754-3.912 2.404-8.651 2.801-13.902.391-5.159.557-10.709.451-16.053-1.689-.227-3.797-.036-5.652-.099z" fill-rule="evenodd"/></svg>