<svg enable-background="new 0 0 71.812 81.217" viewBox="0 0 71.812 81.217" xmlns="http://www.w3.org/2000/svg"><path clip-rule="evenodd" d="m71.712.429c.137 7.848.131 16.5 0 24.353-5.018.301-10.734-.098-15.752.201-.168 3.387-.166 7.465 0 10.852.58.287 1.26.121 1.9.15 4.395.195 9.541-.133 13.852.199.098 6.943.049 14.773.051 22.154 0 1.008.117 2.045-.15 3-5.055.168-10.656-.074-15.553.1-.27 1.537-.15 3.19-.15 4.852v12.502c0 .783.113 1.615-.15 2.35-12.539.193-25.899-.047-38.605-.049-1.838 0-3.424.047-4.852-.15-4.092-.564-7.426-2.504-9.551-5.301-1.518-1.998-2.477-4.168-2.65-7.301-.135-2.428.314-4.471 1.15-6.201.25-.518.721-1.078.75-1.801.029-.771-.475-1.656-.75-2.4-.82-2.211-1.518-4.982-1.15-8.101.348-2.951.916-5.246 2.1-7.352.353-.627.93-1.207 1-2.1 0-.033 0-.066 0-.1-.082-.807-.584-1.471-.949-2.15-1.674-3.119-2.881-8.152-1.75-12.803.402-1.656 1.07-3.133 1.5-4.65-.215-1.309-.908-2.236-1.301-3.352-1.352-3.838-.377-8.394 1.5-11.15 2.545-3.738 6.547-5.66 12.453-6.102 2.188-.164 4.854-.025 7.25 0 2.408.025 4.852 0 7.252 0 7.125 0 14.086.098 21.252.1 4.664.002 9.389.051 14.254.051 1.805 0 3.631.049 5.4.049.553-.001 1.137-.112 1.649.15zm-8.951 5.201c-7.59-.002-15.035-.1-22.805-.1-4.275 0-8.519-.049-12.801-.051-2.188 0-4.4.094-6.602 0-2.121-.09-4.674-.174-6.602 0-4.367.395-7.336 2.314-8.301 6.102-.311 1.213-.424 3.508.75 3.65.527.064 1.207-.578 1.65-.85 3.725-2.297 8.525-3.488 14.201-3.602 6.512-.127 12.562 1.348 13.453 6.902.549 3.428-1.31 5.703-3.051 6.9-2.07 1.426-5.02 1.979-7.852 2.301-3.35.381-6.707.088-9.502-.35-2.164-.34-4.242-.83-6.1-1.551-.586-.227-1.299-.76-1.852-.701-.916.1-1.264 1.416-1.5 2.4-.557 2.334-.293 5.072.4 6.902.353.936.617 1.904 1.701 2.25 1.184-.268 2.176-.977 3.35-1.451 1.178-.475 2.436-.822 3.801-1.148 5.023-1.205 12.977-1.432 17.002.898 1.939 1.123 3.566 3.152 3.65 6.252.043 1.498-.523 2.738-1.148 3.75-1.896 3.07-5.799 4.01-10.601 4.201-5.69.229-10.818-.863-14.453-2.801-.533-.283-1.154-.789-1.701-.699-.908.15-1.332 1.385-1.65 2.301-.678 1.951-1.037 4.453-.449 6.85.223.912.525 2.316 1.451 2.451.629.092 1.41-.4 1.949-.6 6.334-2.35 17.934-3.199 23.453.5 1.775 1.188 3.787 3.398 3.301 6.801-.895 6.287-7.66 7.551-14.752 7.252-5.351-.226-9.644-1.789-13.099-3.949-.549-.344-1.139-.883-1.75-.801-.904.498-.908 1.902-.75 3.051.395 2.877 1.979 4.605 4.15 5.75 2.775 1.467 6.512 1.301 10.701 1.301 8.818 0 17.793.1 26.705.1.969 0 1.965.119 2.85-.148.271-1.535.15-3.191.15-4.852 0-3.367 0-6.787 0-10.102 0-1.725-.121-3.408.15-4.9 4.787-.238 10.723.168 15.451-.15.271-1.047.15-2.223.15-3.4 0-2.371 0-4.785 0-7.102 0-1.178.117-2.354-.15-3.4-2.5-.176-5.16-.086-7.801-.15-2.623-.062-5.297.184-7.701-.15-.062-7.084-.139-15.043.051-22.152 5.031-.26 10.738.199 15.601-.15.203-4.229.268-9.24 0-13.402-1.009-.274-2.071-.153-3.098-.153zm-49.86 14.853c3.434.998 7.723 1.797 12.104 1.25 1.625-.203 3.336-.439 4.4-1.102.492-.305 1.123-.973 1.199-1.549.117-.863-.426-1.543-.799-1.852-1.264-1.035-5.197-1.25-7.352-1.15-2.357.109-4.521.248-6.451.801-.914.262-1.805.623-2.65 1-.764.34-1.894.588-2.102 1.551.161.743 1.03.87 1.651 1.051zm1.401 18.553c-.699.264-1.818.641-1.799 1.299.016.531.971.945 1.449 1.15 2.924 1.254 7.26 1.93 11.303 1.602 1.512-.123 3.318-.271 4.301-.951 1.232-.855 1.246-2.586 0-3.449-1.42-.984-5.094-1.16-7.402-1.051-2.923.138-5.483.505-7.852 1.4zm-.901 24.203c2.754 1.252 6.574 2.057 10.402 2 2.623-.039 6.416-.295 6.9-2.4.293-1.264-.627-2.111-1.299-2.5-1.008-.582-2.537-.82-4.002-1-2.58-.318-5.064-.488-7.65-.15-1.769.231-3.41.57-4.951 1.051-.672.209-1.66.422-1.75 1.25.344.856 1.407 1.319 2.35 1.749z" fill-rule="evenodd"/></svg>