<svg enable-background="new 0 0 15.683 18.592" viewBox="0 0 15.683 18.592" xmlns="http://www.w3.org/2000/svg"><path d="m12.378.001c1.077-.002 2.155-.001 3.233-.001-.008 1.093-.002 2.187-.003 3.28-1.008-.008-2.016-.002-3.024-.003v2.849c1.032-.026 2.065 0 3.097-.013.004 1.097.001 2.195.002 3.292-1.033-.011-2.066.006-3.099-.008.001.999-.001 1.997.001 2.995-.448.439-.888.885-1.334 1.325-.556.579-1.143 1.128-1.697 1.709-.059.048-.115.121-.2.111-1.013.001-2.026-.003-3.038.002-1.008 1.023-2.034 2.029-3.042 3.052-1.082 0-2.164.005-3.245-.003-.004-1.099.003-2.199-.004-3.299 1.029.01 2.058-.001 3.087.006 0-.955.001-1.91-.001-2.866-1.036.008-2.072-.005-3.108.006-.003-1.097.001-2.193-.003-3.29 1.037.002 2.073-.008 3.11.005.004-.994-.001-1.988.003-2.982 1.04-1.034 2.081-2.068 3.113-3.112 1.027-.003 2.055-.001 3.082-.001.486-.489.98-.969 1.461-1.463.541-.525 1.084-1.049 1.609-1.591zm.089.223c-.932.951-1.888 1.879-2.82 2.83 1.909 0 3.817.001 5.726 0 0-.944 0-1.888 0-2.832-.969.003-1.938-.001-2.906.002zm-6.108 3.054c-.301.309-.606.612-.915.913-.648.649-1.292 1.301-1.952 1.936.078-.005.158-.012.237-.011 1.84-.001 3.681-.001 5.522-.001-.01-.945-.002-1.89-.004-2.836-.962-.006-1.925-.003-2.888-.001zm3.122.001c-.002.969-.016 1.94.007 2.908.147.165.31.316.473.465.316.314.628.631.946.942.466-.478.966-.921 1.433-1.398-.002-.973 0-1.946-.001-2.92-.953.002-1.906-.003-2.858.003zm-6.148 3.06c.001.952-.002 1.905.001 2.857.474.479.959.949 1.429 1.432.488-.468.946-.967 1.447-1.422-.002-.953.002-1.907-.002-2.86-.958-.002-1.918.012-2.875-.007zm3.102.007c-.008.941-.003 1.883-.003 2.824.944-.003 1.887-.001 2.831-.001.064.011.104-.045.145-.083.438-.444.885-.879 1.321-1.326-.482-.469-.959-.942-1.433-1.419-.953.015-1.907.004-2.861.005zm6.073-.004c-.479.475-.955.953-1.431 1.43.322.305.626.629.946.935.171.14.32.304.475.461.987-.001 1.973-.002 2.96 0-.006-.94-.003-1.88-.002-2.82-.983-.005-1.966.007-2.948-.006zm-1.594 1.584c-.311.341-.669.636-.984.972-.138.147-.307.262-.438.416-.027.063-.012.135-.016.202.004.91-.002 1.82.003 2.73.954-.01 1.908-.01 2.863 0-.004-.95-.002-1.9-.001-2.851.009-.058-.043-.095-.076-.132-.348-.346-.697-.692-1.046-1.037-.105-.097-.222-.183-.305-.3zm-10.683 1.449c.008.943-.002 1.886.005 2.828.981-.014 1.962-.004 2.944-.004.451-.486.955-.917 1.411-1.397-.456-.467-.923-.924-1.382-1.386-.057-.069-.153-.032-.229-.039-.916.001-1.832.005-2.749-.002zm6.126.02c-.471.475-.957.935-1.429 1.409.506.465.977.967 1.473 1.443.949-.016 1.899-.006 2.849-.004-.007-.948-.003-1.896-.002-2.844-.964.003-1.928.008-2.891-.004zm-3.023 2.971c-.004.977 0 1.955-.002 2.933.959-.014 1.918-.004 2.877-.005-.001-.961.002-1.923-.002-2.884-.489-.481-.969-.971-1.458-1.451-.469.47-.94.94-1.415 1.407zm3.098.106c-.002.941-.001 1.881 0 2.822.972-.001 1.944-.008 2.917.003.938-.944 1.888-1.876 2.818-2.827-1.912.006-3.824.003-5.735.002zm-6.158 3.066c.011.943.002 1.886.004 2.829.957-.004 1.914-.005 2.872 0 .23-.227.446-.47.698-.674.721-.716 1.438-1.437 2.157-2.156-1.91.001-3.821-.002-5.731.001z"/></svg>