<svg enable-background="new 0 0 78.84 77.611" viewBox="0 0 78.84 77.611" xmlns="http://www.w3.org/2000/svg"><path clip-rule="evenodd" d="m78.57.111c.304 1.11.105 2.295.149 3.47.129 3.451.049 7.096.049 10.707.001 4.798.062 9.653-.049 14.078-1.037.269-2.195.149-3.321.149-3.249 0-6.7.119-9.914-.05-.022-.044-.043-.089-.099-.099-.235-5.063.057-10.832-.198-16.011-1.425-.27-2.906-.149-4.362-.149-10.23 0-20.352-.076-30.782.1-.267.762-.2 2.082-.099 2.924 1.253.249 2.57.148 3.866.148 9.246 0 19.014-.093 28.254.05.18 3.068.099 6.62.099 9.914 0 1.09.183 2.161-.099 3.123-10.672.298-21.688-.107-31.972.149-.369.602-.17 1.993-.149 2.825.044.022.088.044.099.099 15.363.113 30.3.05 45.851.05.94 0 1.923-.076 2.826.148.174 14.53.133 30.935.049 45.703-.764.262-1.589.149-2.379.149-18.934-.001-37.88.001-56.559 0-5.803 0-11.512 0-17.349 0-.77 0-1.584.111-2.33-.149-.106-9.849-.086-19.752 0-29.543 4.208-.158 9.061-.251 13.383-.05.269 1.255.149 2.635.149 4.016v4.164c0 2.796-.12 5.646.149 8.179 16.751.065 34.059.185 51.354 0 .219-1.52.099-3.155.099-4.809 0-4.815.13-10.001-.05-14.573-11.437-.148-23.853-.203-35.145-.05-.269.714-.245 2.052-.099 2.875 7.963.16 16.244.148 24.289.148 2.668 0 5.308-.116 7.832.099.15 4.067.175 9.029 0 13.235-14.486.167-30.375.089-45.257-.049-.264-5.189.032-10.938-.148-16.209-.569-.263-1.244-.167-1.884-.148-4.633.137-10.063-.125-14.672-.149-.142-15.047-.23-29.352-.049-44.415 9.759-.181 19.666-.099 29.593-.099 3.28 0 6.606.151 9.864 0 2.955-.138 6.706 0 9.914 0 9.784 0 19.77-.085 29.097.05zm-64.787 12.194c-.264.707-.149 1.509-.149 2.28v12.293c0 1.605-.106 3.211.149 4.659.729.139 2.174.212 2.826-.049.258-4.551.055-9.723.049-14.425-.002-1.604.226-3.217-.099-4.709-.726-.192-1.969-.101-2.776-.049z" fill-rule="evenodd"/></svg>