<svg enable-background="new 0 0 77.973 78.151" viewBox="0 0 77.973 78.151" xmlns="http://www.w3.org/2000/svg"><path clip-rule="evenodd" d="m42.443.113c.292 8.122-.097 16.939.195 25.11.539-.181.725-.784.975-1.219 3.38-5.862 6.905-11.801 10.24-17.748.506-.903 1.005-1.83 1.657-2.633 1.666.663 2.829 1.61 4.438 2.536.349.2 1.301.56 1.365.926.051.289-.458 1.068-.683 1.463-1.767 3.106-3.684 6.446-5.413 9.508-2.14 3.789-4.308 7.237-6.144 10.873.529 0 1.028-.334 1.463-.585 5.812-3.358 11.666-6.798 17.554-10.239.394-.229.782-.463 1.365-.78.368-.201 1.195-.706 1.414-.683.416.047.725.941.975 1.365.652 1.103 1.078 1.899 1.707 2.975.201.345.841 1.126.78 1.56-.062.441-2.202 1.49-2.585 1.706-5.561 3.137-10.856 6.249-16.334 9.41-.883.51-1.823.97-2.535 1.707.838.259 1.791.146 2.73.146 7.237 0 14.966-.078 22.234.146.208 2.019.136 4.746 0 6.874-1.379.242-2.826.146-4.242.146-10.36.001-20.737-.159-30.913.098-.265.869-.146 1.875-.146 2.877v5.997c0 .983-.111 1.969.146 2.828 1.438.265 2.922.146 4.389.146 10.159-.002 20.562-.116 30.767.098.162 2.069.16 4.805 0 6.875-11.539.277-23.51-.047-35.204.243-.222 1.154-.068 2.35-.098 3.559-.096 4.03.091 8.516-.146 12.629-2.051.161-4.774.161-6.826 0-.146-5.993-.273-12.529-.146-18.968.042-2.098.167-4.178-.098-6.144-.47.151-.673.732-.926 1.171-3.661 6.344-7.294 12.751-11.068 19.162-.245.416-.565 1.21-.878 1.268-.421.077-1.23-.593-1.561-.78-1.054-.599-1.927-1.127-2.877-1.755-.455-.303-1.03-.452-1.365-.927 1.903-3.785 4.018-7.365 6.096-10.971 1.559-2.704 3.104-5.412 4.681-8.143.517-.895 1.199-1.749 1.463-2.779-1.049.266-1.913.943-2.828 1.463-2.695 1.53-5.419 2.907-8.095 4.632-1.732 1.118-3.49 2.025-5.412 3.071-1.294.706-2.606 1.54-4.047 2.341-.443.247-1.117.725-1.414.683-.403-.057-.739-.958-.975-1.365-.654-1.129-1.094-1.916-1.707-2.975-.207-.358-.824-1.178-.779-1.56.057-.485 2.212-1.414 2.633-1.657 5.911-3.412 11.758-6.682 17.65-10.093.416-.24.959-.431 1.219-.878-.439-.263-.977-.146-1.463-.146-7.559.001-15.74-.12-23.55-.243-.163-2.086-.16-4.838 0-6.924 8.507-.346 16.718.24 25.159-.098-.264-.466-.826-.667-1.268-.927-5-2.936-9.855-5.87-14.969-8.874-1.333-.78-2.651-1.514-4.143-2.386-.394-.231-1.179-.661-1.219-.927-.058-.371.594-1.242.779-1.561.338-.576.608-.999.878-1.463.616-1.057 1.083-2.015 1.804-2.827 2.791 1.372 5.434 3.053 8.095 4.632 2.659 1.578 5.284 3.15 7.996 4.729 1.8 1.047 3.56 2.158 5.461 3.023.053-.565-.39-.979-.634-1.413-2.774-4.941-5.629-9.761-8.581-14.726-.749-1.258-1.423-2.654-2.243-4.096-.209-.367-.709-1.196-.683-1.414.046-.388 1.023-.773 1.316-.976 1.072-.736 1.747-1.037 2.877-1.706.357-.212 1.153-.817 1.511-.78.338.035.664.812.928 1.267 3.404 5.926 6.98 11.816 10.385 17.797.516.907 1.048 1.81 1.706 2.585.305-.389.196-.951.196-1.415-.001-6.941 0-13.827 0-20.819-.001-.837-.066-2.642.194-3.023.036-.045.089-.073.146-.097 2.18.064 4.614-.127 6.631.098z" fill-rule="evenodd"/></svg>