<svg enable-background="new 0 0 70.043 72.102" viewBox="0 0 70.043 72.102" xmlns="http://www.w3.org/2000/svg"><g clip-rule="evenodd" fill-rule="evenodd"><path d="m.31 1.226c.399-1.55 2.597-1.189 4.602-1.189 13.171.002 26.631.102 40.022.103.88 0 2.014.009 3.051.052 1.907.081 3.186-.315 3.724.982.362.877.157 2.451.207 3.775.092 2.451.103 5.202.103 7.859.001 1.922.149 3.635-1.086 4.292-.847.451-2.724.259-3.98.259-7.183 0-13.711.103-20.994.104-1.301 0-2.762-.052-4.188-.052-2.178 0-4.438-.185-5.016 1.292-.436 1.115-.155 2.989-.155 4.24.001 2.926.085 5.834 0 8.688-.074 2.479-.468 5.081 1.913 5.326 1.932.198 4.03-.023 6.05.052.976.036 1.996.02 2.999.052 4.019.126 8.227.043 12.256-.052 1.882-.044 3.198-.04 3.723 1.24.287.702.155 2.111.155 3.258v6.826c0 1.587.184 3.031-.621 3.723-.6.516-1.7.472-2.792.466-1.105-.006-2.184.016-3.206.052-4.53.157-8.291-.026-12.979 0-.947.005-2.114.045-3.258 0-1.88-.075-3.392-.112-3.981.982-.497.919-.362 2.888-.362 4.395 0 3.14-.104 6.163-.104 9.308 0 1.995.116 3.987-1.396 4.499-.788.267-2.273.091-3.412.052-2.24-.078-4.851.043-6.98 0-2.086-.042-3.742.188-4.344-1.241-.403-.959-.155-2.887-.155-4.24 0-4.355 0-8.856 0-13.082-.001-5.659-.23-11.715 0-17.477.112-2.82-.037-5.643.052-8.481.181-5.786 0-11.635 0-17.477-.004-2.866-.125-5.758.152-8.586z"/><path d="m54.397.244c3.072-.057 7.45 0 11.169 0 1.505-.001 3.436-.245 4.086.517.546.642.361 2.582.361 4.033-.002 20.962-.105 41.101-.104 61.947.001 2.335.483 4.691-1.241 5.223-.75.23-1.93.104-3.102.104-13.524.001-26.617-.153-40.384-.155-2.018 0-4.632.282-6.154-.155-1.873-.539-1.602-2.6-1.602-5.067.001-2.691 0-5.118 0-7.602.001-2.336-.045-4.338 1.913-4.705 1.137-.213 2.66 0 3.981 0 3.916-.001 8.162.041 11.997.052 4.128.012 7.916 0 11.944 0 1.363 0 2.894.185 3.982-.052 2.069-.453 1.757-2.983 1.757-5.482.002-4.044-.06-7.895.052-12.1-.05-.002-.04-.063-.052-.104-.395-.674-.881-1.256-1.706-1.5-6.321-.055-12.856-.052-19.649-.052-2.093.001-5.256.327-6.102-.775-.528-.689-.465-2.284-.465-3.619 0-1.48.051-2.553.052-3.982 0-2.425-.5-6.52 1.138-7.238.697-.307 1.925-.155 3.103-.155 5.274-.001 10.427-.104 15.822-.104 3.041-.001 6.472.778 7.55-1.293.438-2.264.361-5.209.361-8.325 0-2.07-.043-4.294 0-6.412.03-1.466-.014-2.784 1.293-2.999z"/></g></svg>