<svg enable-background="new 0 0 71.445 72.106" viewBox="0 0 71.445 72.106" xmlns="http://www.w3.org/2000/svg"><g clip-rule="evenodd" fill-rule="evenodd"><path d="m62.599 12.135c-8.703.269-17.534-.07-26.273.267-.241 1.923-.133 3.866-.133 5.823 0 9.518.044 19.528.044 29.385 0 3.941-.084 7.865.089 11.604 1.433.183 3.121.089 4.802.089 1.687-.001 3.389.07 4.89-.089.225-1.423.134-2.951.134-4.49 0-4.6-.083-9.518.089-13.915 8.056-.139 16.974-.154 25.206 0-.047 1.583-.376 3.112-.756 4.534-.371 1.392-.818 2.753-1.423 3.912-6.753.233-14.199-.023-20.982.179-.285.711-.084 1.534-.089 2.356-.016 2.334-.154 5.073.044 7.38 1.171.239 2.426.134 3.69.134 3.621-.001 7.597-.163 11.202.044-.249.667-.786 1.168-1.244 1.645-.464.482-.952.947-1.468 1.379-3.886 3.688-8.333 6.467-14.003 8.224-2.814.873-6.216 1.513-9.603 1.512-10.933-.001-18.325-3.6-24.45-8.892-4.035-3.485-7.147-7.949-9.381-12.803-2.258-4.907-3.588-11.809-2.711-18.982.775-6.345 3.136-11.841 6.135-16.049 4.626-6.493 10.871-11.405 19.382-13.96 2.129-.64 4.435-1.084 7.023-1.289 13.245-1.054 22.26 4.303 28.808 10.624.263.494.963.783.978 1.378z"/><path d="m71.356 30.762c-8.183.121-16.946.174-25.162 0-.148-2.612-.146-5.833 0-8.446 4.552-.327 9.439.05 14.271-.178 2.831-.134 5.734.144 8.491.089.471.49.651 1.232.889 1.912.475 1.355.886 2.787 1.2 4.356.149.743.423 1.507.311 2.267z"/></g></svg>