<svg enable-background="new 0 0 76.081 75.692" viewBox="0 0 76.081 75.692" xmlns="http://www.w3.org/2000/svg"><g clip-rule="evenodd" fill-rule="evenodd"><path d="m61.835 12.582c-11.642.164-23.425.097-35.08.098-1.651 0-3.159.017-4.555.388-2.755.731-4.584 1.993-6.347 3.827-1.697 1.767-2.94 4.108-3.198 6.929-.295 3.22-.097 6.65-.097 10.03 0 3.33-.06 6.668.097 9.933.742.262 1.556.146 2.326.146 11.747-.001 24.109-.179 35.952.097.227 2.069.209 4.891.048 7.025-4.84.225-9.7.048-14.439.049-7.793 0-15.848.001-23.838.193-.316 7.866.124 16.563-.194 24.227-3.028.149-6.264.145-9.351.145-1.027-.001-2.07.112-3.004-.145-.113-16.547-.145-34.164-.145-49.81 0-2.258-.072-4.288.194-6.104.39-2.661 1.295-4.968 2.374-7.026.367-.699.69-1.431 1.115-2.034 3.79-5.385 9.358-9.682 17.782-10.417.943-.083 2.14-.087 3.198-.098 11.963-.116 24.5.108 37.066.146.235.422.179.971.194 1.454.112 3.641.057 7.328-.098 10.947z"/><path d="m75.886.179c.226 16.97.193 34.332.193 51.408 0 3.006-.255 5.439-.969 7.704-.675 2.142-1.588 4.038-2.81 5.814-2.354 3.419-5.532 6.243-9.206 8.091-1.954.983-4.146 1.757-6.541 2.133-2.43.381-5.102.29-8.237.29-11.316 0-22.976-.019-34.208-.097-.243-1.926-.192-4.107-.097-6.202.095-2.092-.251-4.231.048-6.202 9.881-.327 19.917-.146 29.944-.145 3.294 0 6.913.297 9.739-.388 2.764-.67 4.7-1.909 6.347-3.828 1.613-1.879 2.98-3.97 3.247-6.881.285-3.115.097-6.521.097-9.932 0-3.355.08-6.754-.097-10.03-.712-.307-1.52-.209-2.277-.193-11.957.237-24.333-.032-36.049-.098-.243-.962-.097-2.227-.097-3.488 0-1.25-.173-2.546.097-3.586 12.84-.267 25.315.183 38.277-.144.281-.891.146-1.893.146-2.858 0-6.09-.048-12.184-.048-18.461 0-.984-.117-2.015.146-2.955 3.99-.049 8.445-.146 12.355.048z"/></g></svg>