<svg enable-background="new 0 0 12.887 10.073" viewBox="0 0 12.887 10.073" xmlns="http://www.w3.org/2000/svg"><path d="m.331.011c.068-.018.14-.009.21-.01.29.004.581-.009.872.006.527.015 1.056-.019 1.584-.001.224.011.395.239.383.454-.09.27-.243.513-.347.777-.299.61-.588 1.224-.884 1.835-.068.135-.118.305-.274.365-.157.083-.351.037-.475-.081-.112-.164-.179-.353-.273-.528-.337-.697-.679-1.391-1.012-2.09-.048-.097-.093-.197-.115-.303-.002-.197.123-.4.331-.424z"/><path d="m10.018.038c.013-.003.04-.008.053-.01.818-.005 1.637-.002 2.456 0 .2.041.38.231.358.444.002.078-.045.146-.076.214-.717 1.537-1.463 3.06-2.18 4.598-.094.22-.211.43-.311.648-.14.233-.236.488-.362.729-.474.995-.94 1.995-1.422 2.988-.064.122-.106.267-.228.346-.092.089-.225.075-.342.068-.181-.055-.28-.232-.338-.399-.275-.56-.532-1.129-.805-1.69-.028-.055-.059-.109-.1-.155-.172-.17-.49-.139-.615.071-.318.646-.619 1.301-.928 1.951-.053.082-.124.158-.212.203-.205.086-.442-.03-.534-.225-.223-.495-.478-.976-.702-1.471-.132-.273-.261-.548-.394-.821-.057-.11-.112-.221-.136-.343-.022-.142.045-.276.104-.4.135-.271.259-.546.406-.81.238-.507.49-1.006.722-1.515.054-.129.155-.255.301-.279.188-.052.392.057.466.235.255.544.514 1.087.769 1.631.073.153.106.35.269.435.123.077.288.073.415.008.181-.123.224-.352.342-.524.286-.59.573-1.179.852-1.772.087-.157.032-.357-.085-.483-.086-.071-.2-.11-.311-.105-.63.002-1.259-.001-1.889.002-.079-.003-.163.012-.238-.02-.214-.074-.349-.346-.238-.553.32-.653.622-1.314.945-1.966.076-.163.132-.343.259-.476.178-.16.499-.104.604.116.163.35.323.702.481 1.055.173.326.295.675.468 1.001.153.245.557.236.694-.02.363-.731.7-1.474 1.052-2.21.063-.125.098-.27.203-.371.068-.053.141-.106.227-.125z"/></svg>