<svg enable-background="new 0 0 58.962 78.515" viewBox="0 0 58.962 78.515" xmlns="http://www.w3.org/2000/svg"><path clip-rule="evenodd" d="m58.824.138c.205 3.327.098 6.989.098 10.629 0 2.676.032 5.331 0 7.899-.011.853.167 1.71-.146 2.487-5.97.086-11.954.097-18.431.097-5.452 0-10.866 0-16.529 0-.742 0-1.956-.086-2.194.147-.384.375-.134 3.47-.146 4.096-.058 2.893.059 5.646.049 8.533-.006 1.372-.212 2.821.097 4.096.708.264 1.515.147 2.243.147 11.703 0 23.542-.113 34.96.048.21 1.626.098 3.365.098 5.12 0 5.062.102 10.663-.049 15.75-1.502.309-3.052.098-4.583.098-10.269 0-21.775.014-32.62.146-.253.712-.194 1.518-.194 2.292v7.265c0 3.268.117 6.553-.099 9.411-6.864.182-14.413.161-21.21-.098-.261-1.121-.097-2.28-.097-3.413 0-18.071-.05-35.75-.05-54.028 0-.622-.072-1.323.049-1.804.11-.44.585-.773 1.072-1.268 1.163-1.181 2.333-2.383 3.413-3.559 1.533-1.67 3.072-3.004 4.584-4.73 2.519-2.876 5.254-5.467 7.947-8.337.327-.349.887-1.002 1.219-1.073.938-.2 2.257 0 3.364 0h3.315c11.378 0 22.753-.134 33.84.049zm-5.997 2.048c-3.917-.021-8.32-.18-12.19 0-3.517.164-7.146 0-10.775 0-2.633 0-5.341 0-8.094 0-.93 0-2.08-.142-2.682.049-.329.104-.782.671-1.121 1.024-1.098 1.142-2.153 2.349-3.17 3.364-1.467 1.466-2.751 2.947-4.241 4.437-2.198 2.197-4.238 4.301-6.438 6.583-.467.485-1.879 1.672-1.998 2.34-.174.966-.055 2.276 0 3.413.055 1.139 0 2.367 0 3.462v21.259c0 9.542-.097 19.096.098 28.085 2.637.287 5.587.195 8.483.195 2.925 0 5.858.08 8.582-.098.328-1.487.082-3.052.098-4.584.045-4.543-.019-9.567.146-14.335 6.052-.262 12.367-.146 18.626-.146 6.254 0 12.523.057 18.577-.097.208-5.497.194-11.341 0-16.676-12.34-.287-25.222.079-37.203-.146-.183-3.289-.098-6.951-.098-10.532.001-3.612-.105-7.212.098-10.532 11.673-.141 23.721-.146 35.009-.146.744 0 1.529.117 2.243-.147.102-5.401.174-10.953 0-16.676-1.287-.291-2.623-.089-3.95-.096z" fill-rule="evenodd"/></svg>