<svg enable-background="new 0 0 110.997 172.124" viewBox="0 0 110.997 172.124" xmlns="http://www.w3.org/2000/svg"><g clip-rule="evenodd" fill-rule="evenodd"><path d="m109.482 26.825c-2.863 2.998-5.886 5.807-8.8 8.801-3.309 3.4-6.851 6.754-10.267 10.172-.992.992-1.762 1.951-2.839 3.027-.373.373-1.185 1.352-1.515 1.373-.353.023-1.175-.939-1.514-1.277-6.828-6.828-13.715-13.818-20.534-20.629-.436-.438-.999-.961-1.562-1.56-.297-.318-1.463-1.203-1.466-1.658-.004-.4 1.082-1.24 1.466-1.654 1.507-1.621 3.13-3.131 4.684-4.684 6.244-6.242 12.43-12.426 18.688-18.643.389-.332.785.312 1.088.615.767.766 1.608 1.56 2.366 2.318.542.543.966 1.156 1.466 1.656 6.247 6.244 12.405 12.594 18.689 18.877.271.273 1.493 1.24 1.514 1.609.036.587-1.249 1.243-1.464 1.657z"/><path d="m55.356 30.61c.526.006 1.276.963 1.751 1.467 1.532 1.619 3.207 3.16 4.731 4.684 6.015 6.014 11.987 11.951 17.979 18.074.369.375.706.644.71.852.008.426-1.148 1.289-1.514 1.654-5.734 5.734-11.539 11.445-17.27 17.176-2.088 2.088-4.08 4.232-6.293 6.199-1.211-.887-2.177-2.037-3.217-3.076-1.048-1.049-1.987-2.178-3.028-3.219-5.696-5.693-11.393-11.393-17.174-17.174-.396-.395-1.467-1.271-1.467-1.656 0-.393 1.112-1.301 1.467-1.656 5.655-5.654 11.365-11.318 17.033-16.984 2.12-2.122 4.069-4.345 6.292-6.341z"/><path d="m24.934 61.222h.095c7.877 7.631 15.582 15.582 23.42 23.42.367.365 1.487 1.193 1.514 1.607.03.455-1.067 1.297-1.466 1.705-6.72 6.857-13.597 13.547-20.392 20.344-.52.52-1.069 1.016-1.609 1.514-.535.496-1.001 1.105-1.655 1.467-1.285-.797-2.089-2.074-3.265-2.98-3.168-3.211-6.353-6.375-9.51-9.65-3.524-3.66-7.243-7.24-10.836-10.98-.403-.42-1.224-1.141-1.23-1.467-.009-.463 1.045-1.234 1.467-1.654 3.157-3.158 6.214-6.168 9.368-9.322.521-.519.946-1.119 1.467-1.607 4.338-4.068 8.227-8.346 12.491-12.35.075.013.081-.046.141-.047z"/><path d="m86.062 61.317h.095c2.142 1.908 4.081 4.176 6.198 6.291 5.722 5.723 11.356 11.357 17.174 17.176.37.369 1.455 1.324 1.467 1.654.017.465-1.092 1.283-1.467 1.658-3.666 3.664-7.244 7.361-10.977 10.881-2.202 2.15-4.023 4.272-6.198 6.293-1.558 1.447-3.023 3.141-4.684 4.684-.399.371-1.188 1.416-1.656 1.42-.459.002-1.27-1.068-1.704-1.467-1.601-1.473-3.267-3.174-4.731-4.637-5.286-5.287-10.179-10.369-15.518-15.709-.47-.469-.989-.951-1.562-1.561-.409-.436-1.457-1.268-1.467-1.656-.012-.469 1.044-1.234 1.467-1.656 7.361-7.357 14.502-14.406 21.858-21.764.586-.583 1.085-1.222 1.705-1.607z"/><path d="m55.262 91.975c.511-.016 1.257.973 1.75 1.467 3.641 3.641 7.343 7.391 10.929 10.977 4.23 4.229 8.534 8.254 12.491 12.537-1.926 2.221-4.141 4.154-6.198 6.246-3.089 3.141-6.301 6.158-9.415 9.273-3.107 3.105-6.243 6.184-9.463 9.178-.661-.342-1.188-.918-1.703-1.42-1.558-1.516-3.024-3.164-4.589-4.73-4.102-4.102-8.314-8.172-12.491-12.35-1.413-1.412-3.111-3.064-4.684-4.637-.302-.301-1.454-1.268-1.467-1.607-.015-.412 1.088-1.277 1.467-1.656 3.614-3.613 7.319-7.084 10.929-10.693 3.087-3.084 6.12-6.262 9.227-9.367 1.089-1.089 2.101-2.218 3.217-3.218z"/><path d="m85.968 122.634c.516.037 1.325.994 1.751 1.42 1.575 1.574 3.023 3.289 4.589 4.73 3.116 3.098 6.261 6.168 9.368 9.273 3.107 3.107 6.296 6.131 9.273 9.367-.326.68-.953 1.143-1.467 1.656-3.577 3.578-7.273 7.213-10.976 10.74-2.01 2.127-4.108 4.014-6.245 6.15-1.55 1.551-3.064 3.051-4.637 4.684-.347.361-1.154 1.447-1.608 1.469-.472.019-1.288-1.1-1.656-1.469-3.614-3.611-7.334-7.291-10.976-10.834-3.89-3.797-7.761-7.762-11.686-11.686-.247-.248-.698-.592-.709-.805-.022-.381 1.208-1.398 1.466-1.656 3.566-3.564 7.369-7.107 10.882-10.691 4.221-4.104 8.416-8.235 12.631-12.348z"/></g></svg>