<svg enable-background="new 0 0 31.055 26.897" viewBox="0 0 31.055 26.897" xmlns="http://www.w3.org/2000/svg"><path d="m5.924.021c8.194-.074 16.397.069 24.594.069.198-.01.465-.007.537.226-.272 3.271-3.348 5.954-6.611 5.901-8.034-.053-16.068-.057-24.101-.13-.202.002-.341-.212-.294-.4.358-2.932 2.955-5.369 5.875-5.666z"/><path d="m5.726 10.595c4.776-.155 9.564.024 14.344-.001.217-.003.522-.034.604.229-.241 3.236-3.196 5.903-6.417 5.956-4.547-.022-9.098-.044-13.648-.058-.197-.012-.503-.001-.552-.247.275-2.94 2.74-5.493 5.669-5.879z"/><path d="m.375 20.723c1.058.006 2.118-.006 3.175.02 1.306.067 2.438 1.202 2.516 2.505.031 1.084.003 2.168.009 3.252.008.165-.055.37-.245.397-3.017-.296-5.604-2.923-5.83-5.952.05-.158.222-.224.375-.222z"/></svg>