<svg enable-background="new 0 0 31.199 31.297" viewBox="0 0 31.199 31.297" xmlns="http://www.w3.org/2000/svg"><path d="m5.009 0c7.226.018 14.44.036 21.665.119 3.01.182 5.181 3.483 4.345 6.336-.569 2.168-2.684 3.832-4.942 3.747-4.43-.029-8.863.009-13.292-.044-2.646.008-5.295-.052-7.944-.039-2.544-.142-4.766-2.446-4.705-5.017-.096-2.651 2.232-5.051 4.873-5.102z"/><path d="m5.162 10.569c3.54.008 7.081.008 10.622.02 2.652.052 4.976 2.452 4.87 5.116.075 2.576-2.089 4.949-4.671 5.068-3.658.003-7.316-.014-10.974-.017-2.675-.052-5.069-2.449-4.935-5.156-.061-2.702 2.38-5.143 5.088-5.031z"/><path d="m5.1 21.157c2.242.077 4.4 1.703 4.896 3.924.417 1.649-.143 3.463-1.324 4.667-1.369 1.422-3.643 2.005-5.466 1.152-2.024-.711-3.363-2.912-3.192-5.034.087-2.602 2.535-4.728 5.086-4.709z"/></svg>