<svg enable-background="new 0 0 26.68 82.94" viewBox="0 0 26.68 82.94" xmlns="http://www.w3.org/2000/svg"><g clip-rule="evenodd" fill-rule="evenodd"><path d="m26.504.184c.191 1.322.148 2.95.15 4.551 0 1.601.117 3.281-.15 4.65-3.207.155-6.285-.076-9.002.15-2.801.233-4.594 1.297-6.102 3-1.481 1.674-2.363 3.672-2.5 6.601-.127 2.708-.051 5.864-.051 9.052 0 11.901.055 24.59-.1 36.106-2.662.215-5.758.151-8.551 0-.293-3.285-.115-6.689-.15-10.102-.035-3.29 0-6.598 0-9.902 0-6.958-.109-13.465 0-20.353.055-3.448-.221-6.974.35-9.902.553-2.829 1.824-5.05 3.352-6.951 2.342-2.916 5.123-5.163 9.101-6.351 3.813-1.138 9.223-.633 13.653-.549z"/><path d="m26.504 18.537c.166 4.311.166 9.338 0 13.702-1.348.18-2.945.1-4.502.1s-3.115.103-4.35-.15c-.231-3.803-.115-7.998-.102-12.202.002-.504-.107-1.06.15-1.5 2.708-.155 6.171-.204 8.804.05z"/><path d="m26.504 41.89c.174 5.374.111 11.448.1 16.803-.006 2.833.123 5.757-.1 8.252-.229 2.549-.949 4.626-2 6.551-1.941 3.554-5.141 6.663-9.002 8.101-1.049.391-2.07.771-3.301 1-2.859.531-7.049.3-10.201.25-.607-.01-1.285.141-1.852-.15-.164-2.846-.162-6.074 0-8.901 4.121-.303 8.555.301 11.602-.85 2.715-1.025 5.113-3.552 5.602-6.851.283-1.913.15-4.012.15-6.101 0-5.552.049-11.067.049-16.853 0-.448-.123-.971.201-1.351 2.957-.068 6.142-.131 8.752.1z"/></g></svg>