<svg enable-background="new 0 0 184.675 185.948" viewBox="0 0 184.675 185.948" xmlns="http://www.w3.org/2000/svg"><path clip-rule="evenodd" d="m54.91.342c.185 2.788.102 6.68.102 9.651 0 21.617-.261 44.312-.153 65.777.018.067.09.08.102.153 10.556.205 21.639.209 32.378.204.483-.291.306-1.509.306-2.502 0-5.108-.08-10.858.102-15.628 13.586-.375 28.339.207 42.183-.051.022-.046.045-.091.102-.102.164-5.389.153-11.253.152-17.16 0-1.05.211-2.499-.306-3.013-10.407-.034-21.081-.152-31.561-.153-2.598 0-5.141-.051-7.763-.051-.808 0-1.674.12-2.452-.153-.027-.041-.053-.083-.051-.153-.023-5.78-.023-12.185.051-18.181-.017-.221.071-.338.205-.408 13.792-.106 28.248.149 41.724.051.023-.045.045-.091.102-.102.338-5.502.005-11.866.256-17.722-.015-.082.048-.088.051-.153 18.48-.215 35.932.065 54.082.103.023.046.045.091.102.102.137 14.875-.052 30.935-.052 46.524.001 45.917-.338 92.691-.408 138.295.037.14-.102.104-.102.205-8.76.161-17.83 0-26.965 0-9.119 0-18.305.022-27.117-.153-.229-1.522-.217-3.1-.154-4.647.188-4.561.051-9.33.052-14.044.001-19.063.149-37.963.051-57.044-.046-.023-.091-.045-.103-.103-5.994-.326-12.64.029-18.895-.204-3.068-.115-6.199 0-9.295 0-15.564 0-31.638-.181-46.677-.153.016.117-.147.057-.153.153-.368 24.868.032 50.766-.357 75.786-.061.076-.193.079-.255.153-18.285-.094-36.135-.129-53.878-.256-.083.015-.088-.048-.153-.051-.227-1.744-.149-3.646-.153-5.617-.082-44.886.358-88.939.358-133.495 0-11.588.102-23.191.102-34.777 0-3.373.051-6.746.051-10.214 0-.364-.144-.899.255-1.175 13.464-.132 27.13.155 40.702.155 4.498 0 8.996-.117 13.432.153z" fill-rule="evenodd"/></svg>