<svg enable-background="new 0 0 83.738 61.239" viewBox="0 0 83.738 61.239" xmlns="http://www.w3.org/2000/svg"><path d="m16.105 8.053c0 4.445-3.608 8.053-8.053 8.053s-8.052-3.608-8.052-8.053 3.607-8.053 8.053-8.053c4.444 0 8.052 3.608 8.052 8.053z"/><path d="m16.105 30.619c0 4.446-3.608 8.053-8.053 8.053s-8.052-3.607-8.052-8.053c0-4.445 3.607-8.053 8.053-8.053 4.444.001 8.052 3.609 8.052 8.053z"/><path d="m16.105 53.187c0 4.445-3.608 8.053-8.053 8.053-4.445-.001-8.052-3.608-8.052-8.053s3.607-8.053 8.053-8.053c4.444 0 8.052 3.608 8.052 8.053z"/><path d="m38.604 8.053c0 4.445-3.607 8.053-8.053 8.053-4.445 0-8.052-3.607-8.052-8.053s3.607-8.053 8.052-8.053c4.446 0 8.053 3.608 8.053 8.053z"/><path d="m33.815 30.619c0 2.668-2.165 4.832-4.832 4.832s-4.832-2.164-4.832-4.832c0-2.667 2.165-4.831 4.832-4.831s4.832 2.165 4.832 4.831z"/><path d="m61.171 8.053c0 4.445-3.607 8.053-8.052 8.053-4.446 0-8.053-3.607-8.053-8.053s3.607-8.053 8.053-8.053c4.444 0 8.052 3.608 8.052 8.053z"/><path d="m61.171 30.619c0 4.446-3.607 8.053-8.052 8.053-4.446 0-8.053-3.607-8.053-8.053 0-4.445 3.607-8.053 8.053-8.053 4.444.001 8.052 3.609 8.052 8.053z"/><path d="m61.171 53.187c0 4.445-3.607 8.053-8.052 8.053-4.446 0-8.053-3.608-8.053-8.053s3.607-8.053 8.053-8.053c4.444 0 8.052 3.608 8.052 8.053z"/><path d="m83.738 8.053c0 4.445-3.608 8.053-8.053 8.053-4.444 0-8.052-3.607-8.052-8.053s3.608-8.053 8.052-8.053c4.445 0 8.053 3.608 8.053 8.053z"/><path d="m78.948 30.619c0 2.668-2.164 4.832-4.831 4.832s-4.832-2.164-4.832-4.832c0-2.667 2.165-4.831 4.832-4.831 2.668 0 4.831 2.165 4.831 4.831z"/></svg>