<svg enable-background="new 0 0 75.854 51.848" viewBox="0 0 75.854 51.848" xmlns="http://www.w3.org/2000/svg"><g clip-rule="evenodd" fill-rule="evenodd"><path d="m75.694.127c.182 3.518.243 7.113 0 10.638-9.189.195-17.465.147-26.522.147-2.327 0-4.256-.095-6.521 0-1.204.051-2.223-.047-3.187.147-4.614.931-6.546 4.648-8.873 8.138-7.243 10.863-14.678 21.568-21.816 32.651-.852-.324-1.556-.923-2.304-1.422-.734-.489-1.496-.963-2.206-1.471-1.432-1.022-2.913-1.974-4.265-3.088.746-1.451 1.748-2.725 2.648-4.069 2.223-3.319 4.499-6.64 6.667-10.05.435-.684.757-1.427 1.275-2.059 3.945-6.157 8.061-11.952 12.059-18.042 3.919-5.967 9.094-11.068 18.483-11.57 3.277-.175 6.619 0 10.051 0h5c6.639.001 12.942-.141 19.511.05z"/><path d="m75.694 23.904c.162 3.271.164 7.22 0 10.491-12.094.254-25.489.204-37.847.049-.174-3.316-.203-7.031-.05-10.492.371-.122 1.007-.14 1.373-.147 6.103-.119 12.318.049 18.482.049 6.103.001 12.155-.122 18.042.05z"/></g></svg>