<svg enable-background="new 0 0 68.85 70.879" viewBox="0 0 68.85 70.879" xmlns="http://www.w3.org/2000/svg"><g clip-rule="evenodd" fill-rule="evenodd"><path d="m66.488.029c.716-.017 1.661-.137 2.069.455.505.729.202 3.1.202 4.289 0 4.789-.001 8.245 0 13.324.001 6.135-.156 11.792 0 17.463.082 2.991-.076 5.819 0 8.529.08 2.882-.051 5.743-.051 8.832v13.324c0 1.428.188 3.805-.353 4.289-.564.506-2.66.304-3.987.304-9.985.001-20.144-.053-29.929-.051-10.005.002-19.562-.051-29.777-.051-1.24 0-3.827.223-4.34-.403-.523-.638-.252-2.806-.252-4.139.001-13.421-.088-27.072.05-40.174.029-2.711-.174-5.781-.05-8.782.113-2.747.089-5.673.05-8.73-.022-1.728-.083-4.138 0-6.208.041-1.037-.085-1.633.404-2.018.517-.409 2.669-.253 3.936-.253 10.129-.001 19.011.002 28.718 0 11.438-.001 22.358.012 33.209 0 .034 0 .068.001.101 0zm-62.431 68.69c19.365.001 39.557.103 58.343.101 1.169-.001 3.347.194 3.886-.202.666-.489.455-2.559.455-4.038-.003-19.646.05-38.729.05-58.494 0-1.285.169-3.425-.303-3.937-.56-.608-2.45-.354-3.734-.354-19.025-.001-37.024-.046-55.87-.049-1.374-.001-2.879-.195-4.038 0-.47.078-.841.438-.959.958-.258 1.138-.05 2.876-.05 4.088v53.549c0 1.206-.051 2.577-.051 4.088 0 1.457-.11 3.418.303 3.887.12.136-.156-.032.202.151.485.411 1.186.252 1.766.252z"/><path d="m25.507 5.581c1.305-.924 2.566-1.701 4.391-1.918.605-.071 1.47-.075 2.17-.101 2.743-.102 5.409.062 8.075 0 2.62-.062 5.242.051 8.025.051 2.718-.001 5.544-.051 8.327-.051 1.279 0 2.677-.066 4.19 0 .994.043 3.372-.151 3.936.252.838.601.743 3.701-.051 4.189-.75.461-2.846.202-4.037.202-2.886 0-5.498-.086-8.378.05-1.667.079-3.139-.076-4.189.454-1.915.968-1.781 3.125-1.917 6.006-.063 1.321.058 2.895.101 4.139.067 1.919 0 4.248 0 6.41 0 .828.067 1.667-.252 2.068-.655.826-3.945.455-5.501.455-4.986-.001-9.792 0-14.788 0-1.169 0-2.265.097-2.725-.404-.724-.786-.353-4.495-.353-5.955 0-2.272 0-4.304 0-6.258 0-2.243-.083-4.27.454-5.854.522-1.544 1.296-2.638 2.522-3.735zm35.077-.706c-6.951 0-13.557-.001-20.34 0-2.748 0-5.544-.182-8.176 0-1.149.079-2.43.216-3.381.555-2.756.983-4.486 3.057-4.744 6.561-.255 3.462-.05 7.379-.05 11.054 0 1.188-.078 2.626.707 3.078.462.267 1.46.202 2.322.202h12.769c1.406 0 4.157.315 4.795-.354.523-.548.303-2.529.303-3.785 0-1.417 0-2.717 0-3.886 0-2.623-.246-5.735.101-7.722.254-1.455 1.185-2.651 2.271-3.181 1.116-.542 2.41-.479 4.038-.555 2.904-.135 5.911-.1 8.983-.101 1.4-.001 3.246.432 3.533-.959-.284-1.248-1.984-.907-3.131-.907z"/><path d="m4.663 33.037c2.226-.092 5.256-.05 7.671-.051 16.25-.004 32.339.052 49.056.051 1.226 0 2.996-.08 3.433.353.764.758.553 3.634-.202 4.088-.522.315-2.463.152-3.734.152-17.37 0-35.173-.048-53.296-.051-1.218 0-3.047.129-3.533-.303-.494-.44-.692-2.434-.354-3.432.155-.457.488-.731.959-.807zm.303 2.473c.192.903 1.778.706 3.129.706 9.15.003 17.82.146 26.446.051 5.364-.059 9.42 0 14.737 0 3.769.001 7.626 0 11.558 0 1.198 0 2.946.102 2.877-1.01-.062-1-2.026-.821-2.826-.857-1.364-.062-2.604.004-3.634 0-10.216-.035-19.347 0-29.223 0-7.148 0-14.915-.038-22.257.051-.563.14-.908.581-.807 1.059z"/><path d="m24.043 43.08c1.631-.213 3.858-.051 5.653-.05 4.407 0 8.793.126 13.425 0 1.334-.037 2.454-.104 2.927.555.499.694.252 3.067.252 4.139 0 1.363.096 2.877.05 4.34-.038 1.214-.093 2.803 0 4.089.105 1.439-.151 3.013.202 4.088.305.926 1.036 1.703 1.918 1.968.984.297 2.674.151 4.038.152 2.792 0 5.497-.001 8.378 0 1.274 0 3.283-.215 3.937.252.744.531.914 3.739 0 4.34-.57.375-2.498.202-3.684.202-9.158.002-17.687-.002-26.951 0-9.196.002-17.275-.051-26.598-.051-1.549 0-3.189.152-3.684-.353-.747-.762-.518-3.582.252-4.088.673-.443 2.754-.203 3.987-.202 1.54 0 3.042-.001 4.138 0 4.347.001 8.707.709 9.993-1.867.496-.994.454-2.45.454-3.987.001-3.176 0-5.556 0-8.782.001-2.139-.594-4.496 1.313-4.745zm.303 2.019c-.415.808-.24 2.835-.202 3.937.053 1.527-.051 2.789-.051 4.089 0 2.57.44 5.844-.403 7.924-.521 1.282-1.86 2.365-3.23 2.675-1.123.254-2.721.151-3.987.151-2.865 0-5.141.046-8.176 0-1.208-.019-3.222-.132-3.079 1.06.103.857 2.218.605 3.129.605 16.258-.004 32.798.051 48.653.05 1.082 0 2.38-.059 3.785 0 1.094.046 2.877.208 2.877-.808 0-1.047-1.775-.908-2.927-.908-2.876 0-5.014 0-7.571 0-1.165 0-2.574.123-3.836 0-1.965-.192-3.667-1.437-4.239-3.13-.339-1.004-.303-2.423-.303-3.734 0-2.746 0-5.473 0-8.125 0-1.415.237-3.149-.151-3.836-.639-1.127-3.047-.672-4.845-.707-3.115-.059-6.235.09-9.337-.05-1.432-.065-3.307-.081-4.694.05-1.019.096-1.184.313-1.413.757z"/></g></svg>