<svg enable-background="new 0 0 60.033 76.278" viewBox="0 0 60.033 76.278" xmlns="http://www.w3.org/2000/svg"><path clip-rule="evenodd" d="m17.336.128c.315 3.638.075 7.234.098 10.828.023 3.53.298 7.147 0 10.778-.128 1.568.049 3.41.049 5.316v16.729c0 3.738-.267 7.889.39 10.926 1.296 5.988 4.925 10.233 10.145 12.436 2.524 1.065 5.923 1.791 9.657 1.22 3.11-.476 5.689-1.801 7.804-3.512 2.168-1.754 3.889-3.743 5.073-6.194 1.263-2.616 1.878-6.188 1.365-9.56-.529-3.484-1.478-5.781-3.219-8.048-1.522-1.982-3.682-4.081-6.145-5.17-2.606-1.151-5.755-2.117-9.365-1.707-5.074.576-8.445 2.82-11.218 5.706-.467.487-.849 1.042-1.219 1.61-.35.537-.606 1.187-1.171 1.609-.203-5.416-.154-11.235 0-17.022.698-.331 1.54-.178 2.292-.146 2.345.096 4.999-.169 7.56-.049 1.652.076 3.353 0 5.023 0 8.104 0 16.918-.07 25.362.098.261.999.146 2.051.146 3.072v21.948c0 8.313.206 16.737-.098 25.069-.541.259-1.192.146-1.756.146-18.908.002-38.942.169-57.943-.049-.251-.729-.146-1.538-.146-2.292.001-24.05-.079-49.63.099-73.742 5.361-.19 11.535-.15 17.217 0z" fill-rule="evenodd"/></svg>