<svg enable-background="new 0 0 76.015 78.529" viewBox="0 0 76.015 78.529" xmlns="http://www.w3.org/2000/svg"><g clip-rule="evenodd" fill-rule="evenodd"><path d="m75.887.246c.129.631.207 1.886-.049 2.438-23.018.281-47.448-.003-70.847 0-.684 0-1.424-.138-2.097.098-.412 1.441-.09 2.985-.146 4.485-.176 4.669-.049 9.577-.049 14.384 0 19.077.049 38.579-.098 56.561-.548.25-1.865.191-2.487.049-.18-13.08-.096-26.336-.098-39.642 0-4.866.05-9.779.049-14.482 0-5.055.001-9.412 0-14.432 0-2.453 0-4.746 0-7.266 0-.709-.095-2.164.146-2.34.038-.044.091-.072.149-.096 6.37-.024 12.68.098 18.967.098 12.448-.001 24.798 0 37.545 0 6.344 0 12.71-.092 19.015.145z"/><path d="m75.838 4.928c.259.556.179 1.852.049 2.486-20.098.18-40.018.1-59.974.098-2.799 0-5.586-.188-8.338.049-.371 23.058.082 47.647-.292 70.749-.652.135-1.973.219-2.486-.098-.121-23.984 0-47.92 0-71.48 0-.629-.233-1.422.244-1.95 5.744-.053 12.093.097 17.895.097 9.086.001 17.75.107 26.476 0 8.761-.107 17.645-.077 26.426.049z"/><path d="m75.887 9.706c.143.621.201 1.938-.049 2.486-20.752.263-42.703-.038-63.581.147-.266 1.344-.146 2.727-.146 4.096-.003 21.132.043 41.089-.146 61.875-.623.158-1.863.159-2.486 0-.198-21.949-.05-42.486-.05-64.557 0-1.395-.119-2.822.147-4.193 21.816.2 45.228-.181 66.311.146z"/><path d="m75.838 14.484c.25.547.186 1.817.049 2.438-1.132.298-2.33.146-3.511.146-18.567.002-37.187-.065-55.439.098-.314 1.186-.117 2.422-.146 3.657-.196 8.73.084 18.046-.049 26.768-.118 7.732-.001 15.529 0 23.161.001 2.542.118 5.099-.146 7.606-.566.162-1.726.152-2.293 0-.219-18.65-.051-37.412-.048-56.316 0-1.993.013-3.958 0-5.9-.004-.573-.112-1.212.146-1.755 20.25.12 41.829-.225 61.437.097z"/><path d="m75.887 19.263c.11.652.224 1.918-.049 2.486-17.896.284-36.635-.086-54.464.195-.332 1.046-.195 2.198-.195 3.315 0 17.715-.004 34.887-.145 53.099-.543.246-1.822.191-2.439.049-.209-1.152-.197-2.388-.146-3.56.158-3.599-.043-7.226 0-10.874.176-14.625-.09-30.487.146-44.711 19.291-.106 38.21-.287 57.292.001z"/><path d="m75.887 24.919c.281 3.014.004 6.178 0 9.215-.006 4.066.322 8.256-.049 12.238-2.104.303-4.257.098-6.388.098-2.145 0-4.285 0-6.436 0-12.823-.001-25.93.132-38.666-.098-.172-6.983-.08-14.197.049-21.453 17.391-.114 34.176-.275 51.49 0z"/></g></svg>