<svg enable-background="new 0 0 81.243 69.122" viewBox="0 0 81.243 69.122" xmlns="http://www.w3.org/2000/svg"><path clip-rule="evenodd" d="m72.642 11.654c-.513.433-1.248.222-1.851.25-1.863.088-3.959.039-6.001 0-1.319-.025-2.649.05-4 0-1.348-.05-2.76-.054-4.101 0-5.469.219-11.115-.05-16.603-.05-2.864 0-5.723-.065-8.401 0-2.865.069-4.657.722-5.951 2.45-.594.793-.999 1.798-1.45 2.75-1.11 2.343-2.219 4.764-3.301 7.201-.205.461-.486.968-.45 1.5.771.047 1.326-.445 2-.65 2.059-.626 4.641-.6 7.401-.6 7.714-.002 15.968.099 23.454.1 2.639.001 5.503.048 7.901 0 2.888-.058 4.88-.188 6.601-1.35 2.441-1.648 3.702-4.239 5.001-7.001.393-.835.64-1.873 1.45-2.5.977.511 1.478 1.642 2 2.6 2.596 4.758 4.9 10.74 4.9 17.953 0 2.792-.393 5.649-.95 8.151-1.066 4.786-3.065 9.101-5.701 12.602-4.082 5.423-8.981 8.949-16.053 11.352-2.305.784-4.726 1.553-7.251 1.9-7.918 1.09-17.454 1.308-24.704-.8-2.411-.701-4.768-1.318-6.901-2.25-1.035-.452-2.069-1.011-3.101-1.5-2.065-.979-3.904-2.121-5.5-3.601-.779-.721-1.808-1.371-2.101-2.45 0-.05 0-.1 0-.15.387-.727 1.36-.65 2.201-.65 4.721 0 9.544-.119 14.102.05 1.793.066 3.789.049 5.451-.2 4.812-.721 6.922-4.5 8.851-8.202.32-.614.612-1.282.9-1.95.277-.643.665-1.331.65-2.05-.794-.43-1.765-.25-2.6-.25-6.607 0-12.9 0-19.503 0-4.301 0-6.501.581-8.001 3.351-.954 1.761-1.728 3.833-2.601 5.901-.219.517-.679 1.699-1.05 1.75-.638.089-1.264-1.245-1.55-1.701-2.916-4.631-5.292-9.712-5.751-16.752-.546-8.385 1.788-15.464 4.951-20.603 1.707-2.773 3.558-5.038 5.851-7.051 5.621-4.936 13.576-7.98 23.204-9.001 2.821-.299 6.057-.188 9.101-.15 5.85.074 11.687 1.305 16.203 2.9 4.698 1.66 8.883 3.961 12.152 7.101.452.433 1.052.921 1.102 1.6zm-8.552 16.503c-9.547-.19-19.289-.051-28.705-.05-3.506 0-6.92-.074-10.202-.05-1.691.012-3.518.235-4.701.85-2.336 1.215-2.984 4.063-4.15 6.201-.618 1.133-1.159 2.313-1.701 3.451-.575 1.209-1.253 2.399-1.5 3.701.445.161.747-.244 1.05-.4 2.824-1.449 7.315-1.15 11.452-1.15 7.336 0 13.71.051 20.803.05 1.755 0 3.606.001 5.401 0 1.777 0 3.609.167 5.101-.2 4.576-1.125 5.912-5.215 7.951-8.852.581-1.036 1.234-2.089 1.5-3.25-.694-.352-1.54-.287-2.299-.301z" fill-rule="evenodd"/></svg>