<svg enable-background="new 0 0 75.451 76.638" viewBox="0 0 75.451 76.638" xmlns="http://www.w3.org/2000/svg"><g clip-rule="evenodd" fill-rule="evenodd"><path d="m74.774 16.827c-19.16.297-38.484-.158-58.009.15-.271 1.19-.15 2.44-.15 3.65v11.203c-.001 14.82.001 29.777-.1 43.855-.398.037-.668-.367-.9-.6-3.818-3.818-7.639-7.914-11.552-11.701-1.315-1.436-2.888-2.613-4.051-4.201-.023-12.387-.001-24.648 0-37.105.001-3.336-.127-6.408.45-9.002 1.35-6.058 5.695-10.357 11.252-12.302 1.273-.445 2.623-.625 4.201-.699 3.544-.168 7.204 0 10.802 0h20.903c1.733 0 3.548.121 5.35.051 1.706-.068 3.477-.117 5.102 0 .672.047 1.84 1.525 2.3 2 1.436 1.477 2.812 2.762 4.201 4.15 3.091 3.09 6.263 6.262 9.401 9.4.305.305.884.602.8 1.151z"/><path d="m29.667 59.784c5.288-.185 10.841-.049 16.403-.049 5.538 0 11.217.094 16.453-.15.27-.955.15-2.037.15-3.101 0-3.141.041-6.557-.051-9.65-8.234-.092-16.851-.051-25.253-.051-2.768 0-5.512.107-8.151-.15-.145-2.789-.172-5.801-.05-8.701.09-2.131.024-4.326 0-6.35-.007-.641-.207-1.357.2-1.9 4.577-.092 9.783-.051 14.552-.051.67 0 1.529-.047 2 .1.667.209 1.598 1.398 2.2 2 .74.74 1.424 1.525 2.05 2.15 1.458 1.459 2.699 2.92 4.101 4.252 2.941 2.791 5.545 5.658 8.301 8.451 1.443 1.652 3.15 3.059 4.651 4.65 1.505 1.596 3.067 3.131 4.601 4.701.856.934 1.812 1.783 2.75 2.801.328.354.696.65.801 1.049.193.746-.025 1.756-.15 2.65-.343 2.465-1.354 4.524-2.45 6.252-2.269 3.576-5.507 6.188-9.952 7.4-.758.207-1.547.438-2.4.5-.877.064-1.823-.041-2.85 0-3.646.15-7.518-.082-11.252 0-2.909-2.652-5.647-5.547-8.451-8.352-2.445-2.443-4.953-4.814-7.351-7.35-.307-.322-.877-.56-.852-1.101z"/></g></svg>