<svg enable-background="new 0 0 82.89 55.293" viewBox="0 0 82.89 55.293" xmlns="http://www.w3.org/2000/svg"><g clip-rule="evenodd" fill-rule="evenodd"><path d="m40.518 0c.393-.008 1.087.794 1.512 1.219 6.611 6.612 13.327 13.301 19.845 19.894 5.257 5.35 10.629 10.571 15.896 15.944.864.881 1.865 1.715 2.633 2.682.781.983 1.77 1.741 2.487 2.779-1.775 2.195-4.112 4.307-6.289 6.485-1.535 1.535-3.175 3.126-4.827 4.778-.375.375-1.248 1.499-1.658 1.512-.29.009-1.053-.907-1.414-1.268-8.399-8.398-16.812-16.764-25.208-25.16-.879-.879-1.726-1.803-2.633-2.682-.445-.431-.771-.965-1.219-1.414-3.448-3.449-7.017-6.98-10.532-10.629-.302-.314-1.22-1.11-1.219-1.414.001-.453 1.11-1.279 1.511-1.658 1.647-1.557 3.159-3.159 4.681-4.681 2.183-2.184 4.555-4.351 6.434-6.387z"/><path d="m26.671 13.897c.517-.1 1.555 1.262 1.95 1.658 1.729 1.729 3.596 3.645 5.266 5.314 1.855 1.856 3.424 3.551 5.314 5.315.587.547 1.062 1.222 1.658 1.853 3.301 3.491 7.215 7.021 10.581 10.629.774.829 1.648 1.789 2.584 2.682.295.281.814.706.829.926.031.459-1.072 1.35-1.463 1.755-3.489 3.613-6.974 6.778-10.532 10.337-.252.252-.596.715-.829.731-.562.039-1.496-1.424-1.804-1.755-.552-.592-1.233-1.135-1.804-1.706-5.921-5.922-11.71-11.808-17.601-17.7-1.958-1.959-4.192-4.101-6.144-6.192-.332-.355-.822-.713-.829-.926-.013-.404 1.148-1.343 1.512-1.706 3.171-3.171 6.45-6.329 9.605-9.606.518-.538 1.055-1.222 1.609-1.561.037-.022.036-.037.098-.048z"/><path d="m12.628 27.939c.609.062 1.462 1.169 1.999 1.706 4.208 4.209 8.582 8.422 12.58 12.726-.337.735-1.055 1.091-1.511 1.707-1.647 1.571-3.188 3.249-4.827 4.827-2.215 2.076-4.254 4.327-6.534 6.338-.76-.41-1.295-1.122-1.901-1.707-2.999-2.888-5.991-5.942-8.972-8.923-1.188-1.186-2.514-2.291-3.462-3.704.754-1.295 1.964-2.257 3.023-3.315 2.092-2.093 4.245-4.16 6.29-6.388 1.043-1.137 2.24-2.277 3.315-3.267z"/></g></svg>