<svg enable-background="new 0 0 81.042 82.198" viewBox="0 0 81.042 82.198" xmlns="http://www.w3.org/2000/svg"><g clip-rule="evenodd" fill-rule="evenodd"><path d="m79.305 52.504c-.753-.237-1.272-.922-1.8-1.451-6.967-6.967-13.799-14.048-20.853-21.104-.473-.473-1.037-1.054-1.6-1.65-.487-.515-1.224-1.524-1.75-1.601-.976-.142-2.114 0-3.201 0-7.468.003-14.818-.147-22.404-.1-1.306.876-2.283 2.083-3.351 3.15-5.367 5.368-10.631 10.78-16.102 16.252-1.019 1.019-2.009 2.169-3.101 3.351-.662.718-1.638 1.604-2.45 2.4-.813.797-1.082.711-1.4-.45-.742-2.71-1.102-5.681-1.25-8.852-.191-4.116.291-7.464 1-10.452 1.439-6.064 4.007-11.507 7.251-15.852 3.263-4.37 7.375-7.887 12.302-10.801 4.865-2.876 10.914-4.964 18.002-5.299 8.122-.383 14.435 1.728 19.853 4.351 5.392 2.611 9.803 6.332 13.402 10.752 1.806 2.217 3.345 4.67 4.751 7.351 1.396 2.662 2.396 5.588 3.251 8.802.843 3.169 1.33 7.063 1.15 10.852-.135 2.84-.376 5.667-.95 8.102-.184.778-.246 1.64-.75 2.249z"/><path d="m60.102 71.057c-3.656-3.612-7.326-7.21-10.902-10.902-3.951-4.155-8.423-8.574-12.652-12.802-.429-.429-1.65-1.373-1.65-1.951 0-.504.838-1.138 1.2-1.5 1.383-1.383 2.738-2.685 4.1-4 .551-.227.92.343 1.3.75.838.894 2.071 1.958 2.75 2.75 6.026 6.487 12.644 13.044 19.103 19.503 1.535 1.535 3.204 3.154 4.851 4.801.477.477 1.489 1.253 1.5 1.7.012.471-.822 1.193-1.2 1.55-1.037.98-1.799 1.681-2.95 2.55-.387.292-1.128 1.038-1.65 1.05-.66.017-1.63-1.258-2-1.65-.618-.652-1.229-1.087-1.8-1.849z"/><path d="m22.246 58.055c.622-.232 1.268.817 1.75 1.3 1.49 1.49 3.028 2.979 4.451 4.401 4.986 4.986 9.848 9.848 14.803 14.802.495.495.966.981 1.45 1.501.439.471 1.119.897 1.25 1.6-.231.417-.804.32-1.2.35-3.2.239-6.741.314-9.901-.15-3.388-.497-6.739-1.495-9.452-2.601-4.932-2.009-9.123-4.859-12.852-8.301-.451-.417-1.335-1.167-1.351-1.65-.02-.613.821-1.138 1.25-1.55 3.304-3.174 6.388-6.568 9.702-9.651.001-.05.061-.04.1-.051z"/></g></svg>