<svg enable-background="new 0 0 148.021 170.606" viewBox="0 0 148.021 170.606" xmlns="http://www.w3.org/2000/svg"><path clip-rule="evenodd" d="m148.021.572c-.442.397-1.087.413-1.619.523-8.606 1.795-16.888 4.057-24.667 6.762-8.334 2.898-16.239 6.101-23.62 9.953-14.723 7.684-27.627 17.142-38.144 29.001-2.629 2.918-5.041 6.103-7.334 9.429-.311.451-.783.885-.81 1.477 1.81.295 3.641.085 5.477.143 8.983.284 18.401-.151 27.524.19 3.73.14 7.462-.088 11.191 0 14.785.35 29.713-.155 44.287.238-.313.329-.831.414-1.238.524-3.11.841-6.275 1.773-9.286 2.81-3.442 1.185-6.927 2.17-10.19 3.619-1.628.723-3.332 1.287-4.953 1.953-11.404 4.683-22.222 10-32.286 16.048-1.42.853-2.784 1.826-4.191 2.714-2.811 1.775-5.536 3.654-8.286 5.524-6.81 4.631-13.35 9.755-19.43 15.095-2.45 2.154-4.892 4.322-7.19 6.619-6.862 6.865-13.69 13.935-19.763 21.668-4.043 5.148-8.005 10.406-11.667 15.953-3.547 5.594-7.082 11.318-10.238 17.43-.332.641-.615 1.32-1 1.951-.092.15-.185.518-.476.381-.173-14.289-.094-28.488-.095-42.619-.002-28.069.141-57.141.143-85.004.001-14.311-.048-28.747.095-42.716-.002-.081.035-.123.095-.143.035-.044.087-.072.143-.095 37.063.005 74.403.378 110.719.381 12.316.001 24.519.005 36.809.191z" fill-rule="evenodd"/></svg>