<svg enable-background="new 0 0 77.656 43.972" viewBox="0 0 77.656 43.972" xmlns="http://www.w3.org/2000/svg"><path clip-rule="evenodd" d="m77.656.252c-.253.832-.756 1.562-1.177 2.304-.413.726-.847 1.449-1.275 2.157-.865 1.43-1.571 2.957-2.598 4.266-3.291.126-6.604 0-10.001 0-3.305-.001-6.887-.368-9.462.637-1.784.696-3.351 2.114-4.315 3.628-.515.809-.969 1.663-1.471 2.5-.494.824-1.079 1.662-1.323 2.648.765-.034 1.506-.306 2.304-.44 2.458-.418 5.35-.197 8.089-.197 2.737.001 5.57-.055 8.335.05.875.033 1.755-.111 2.549.147-.199.832-.709 1.551-1.128 2.255-.848 1.426-1.633 2.835-2.5 4.265-.414.684-.739 1.487-1.373 2.01-4.092.023-7.9.148-12.06.05-1.342-.032-2.68-.145-4.021-.05-2.448.176-4.373 1.056-5.784 2.256-1.425 1.21-2.315 2.879-3.334 4.706-2.864 5.139-6.914 9.205-13.776 10.295-2.302.366-4.99.196-7.795.196-5.303 0-10.28-.008-15.541-.196.07-.85.73-1.521 1.079-2.255 1.311-2.103 2.32-4.51 3.774-6.472 4.157-.077 8.55.001 13.139 0 1.49 0 2.884.067 4.217-.195 2.512-.493 4.387-1.719 5.687-3.383.646-.828 1.158-1.872 1.716-2.844.548-.953 1.154-1.925 1.52-2.99-.774-.092-1.48.319-2.255.49-2.342.517-5.238.294-7.893.294-2.736 0-5.565-.049-8.384-.049-.897 0-1.814.117-2.647-.148.115-.817.681-1.458 1.079-2.157.403-.708.82-1.42 1.127-2.206.8-1.423 1.532-2.912 2.501-4.167 5.661-.275 10.966.189 16.031 0 2.678-.1 4.606-.893 6.029-2.206 1.376-1.269 2.27-3.029 3.334-4.902 2.079-3.659 4.406-6.438 8.04-8.433 1.674-.918 3.919-1.717 6.275-1.961 2.412-.249 5.403-.111 8.187-.146 1.221-.016 2.481.098 3.775.098h9.559c.596-.002 1.22-.115 1.767.145z" fill-rule="evenodd"/></svg>