<svg enable-background="new 0 0 77.906 56.109" viewBox="0 0 77.906 56.109" xmlns="http://www.w3.org/2000/svg"><g clip-rule="evenodd" fill-rule="evenodd"><path d="m66.858.252c.122 1.87.204 4.119 0 5.846-12.513.313-25.639-.176-38.192.098-.215 1.48-.187 3.046-.195 4.627-.014 3.072.058 6.266 0 9.353-.027 1.486-.123 2.936.098 4.287.833.262 1.743.146 2.63.146 6.234.001 12.903-.006 19.047.195.162 1.742.162 4.153 0 5.895-1.677.274-3.492.098-5.31.098-5.525 0-11.35-.108-16.319.097-.279.967-.126 1.994-.146 3.021-.139 7.019.142 14.769-.097 21.872-.867.257-2.042.146-3.166.146-1.123 0-2.302.113-3.167-.146-.297-8.094.107-16.868-.195-24.893-3.498-.371-7.209.066-10.814-.097-3.623-.165-7.357.147-10.912-.195-.162-1.763-.161-4.181 0-5.943 6.949-.268 14.601.169 21.677-.146.264-.957.146-1.996.146-3.02 0-5.976.049-12.757.049-18.56 0-.517-.021-1.045 0-1.559.017-.42-.065-.967.244-1.315 3.523-.088 7.775-.048 11.496-.049 3.674 0 7.35-.051 10.863.098 7.488.314 14.893-.357 22.263.144z"/><path d="m77.818.252c.16 18.578.077 36.795-.049 55.679-3.795.188-7.77.236-11.789.097-4.05-.14-8.192 0-12.275 0-8.106.001-16.184-.058-24.21-.146-.067-.35.298-.578.487-.779 3.168-3.378 6.68-6.532 9.889-9.986 1.686-1.814 3.607-3.449 5.31-5.31 1.683-1.839 3.397-3.641 5.164-5.407 3.712-3.713 6.885-7.129 10.473-10.717 3.024-3.024 6.258-6.03 9.255-9.304.421-.46 1.15-.958 1.267-1.364.249-.87.049-2.241.049-3.312 0-2.368 0-4.08 0-6.528 0-.865-.193-2.862.292-3.02.397-.129 1.092.011 1.705 0 1.447-.027 3.028-.114 4.432.097zm-20.07 35.902c-2.167 2.218-4.358 4.411-6.527 6.625-1.547 1.75-3.464 3.199-4.872 5.018-.232.3-.507.604-.779.877-.271.271-.712.503-.682.975 8.55.22 17.657.136 26.207.048.264-1.022.146-2.147.146-3.264-.001-7.611.001-14.659 0-22.165 0-.387.14-1.686-.292-1.51-4.475 4.39-8.796 8.934-13.201 13.396z"/></g></svg>