<svg enable-background="new 0 0 184.959 180.265" viewBox="0 0 184.959 180.265" xmlns="http://www.w3.org/2000/svg"><g clip-rule="evenodd" fill-rule="evenodd"><path d="m72.126 98.205c-.155-6.469-.092-13.021.051-19.774.042-.009.051-.051.103-.051 19.013-.22 37.518.104 56 .103 6.967-.001 13.942.049 21.102.051 9.46.002 18.379.051 28.051.051 2.28.001 4.604-.149 6.796.307.174-.038.084.189.204.204-.002 2.679.312 5.278.46 7.869.152 2.675.017 5.328-.153 7.971-.326 5.071-1.035 10.031-2.044 14.562-2.003 8.996-5.484 16.812-9.401 23.811-2.454 4.384-5.29 8.62-8.431 12.365-.642.765-1.194 1.564-1.839 2.299-1.296 1.476-2.587 2.924-3.934 4.343-2.67 2.812-5.689 5.406-8.737 7.869-3.072 2.482-6.414 4.726-9.76 6.847-6.639 4.21-14.554 7.633-23.197 10.015-8.729 2.405-18.868 3.595-29.789 3.116-10.538-.46-19.569-2.565-27.693-5.517-8.08-2.936-15.202-6.977-21.511-11.701-12.524-9.635-23.19-21.051-30.248-36.175-3.468-7.433-6.151-16.059-7.409-25.804-1.259-9.755-.904-21.206.92-30.657 1.758-9.109 4.793-17.335 8.686-24.525 1.934-3.571 4.18-6.91 6.387-10.22 2.189-3.282 4.609-6.467 7.256-9.35 5.208-5.674 10.935-11.119 17.73-15.482 3.288-2.111 6.789-4.176 10.577-6.029 1.785-.873 3.799-1.786 5.825-2.504 2.223-.79 4.295-1.694 6.487-2.199.418.469.256 1.379.255 2.196-.002 37.679-.31 74.832-.307 112.973.001 6.775.059 12.924 1.38 18.189 1.989 7.934 5.797 13.636 12.416 16.964 2.164 1.087 4.501 1.958 7.307 2.452 2.961.521 6.124.688 9.248.562 2.92-.117 5.566-.926 7.92-1.84 4.544-1.764 8.462-4.555 11.394-8.175 2.994-3.695 4.935-8.259 5.365-14.205.471-6.497-1.176-11.788-3.423-16.043-4.524-8.567-12.111-14.036-24.577-14.562-6.061-.256-12.731.062-19.365-.205-.023-.044-.045-.09-.102-.101zm7.46-7.153c.098.021.04.198.204.153 7.409.151 13.963-.104 19.723 1.124 5.613 1.196 10.394 3.731 14.153 6.847 3.704 3.07 7.095 7.007 9.3 11.701 1.704 3.628 2.952 7.579 3.423 12.313.158 1.585.136 3.202.153 5.008.047 5.01-1.111 9.339-2.759 12.876-.552 1.185-1.246 2.273-1.789 3.475-.517 1.144-1.374 2.114-2.146 3.065-2.428 2.991-4.982 5.227-8.38 7.408-4.283 2.751-9.205 4.812-15.687 5.314-6.638.514-13.224-.513-18.343-2.453-10.128-3.838-16.09-11.909-18.65-23.351-1.314-5.869-1.379-12.481-1.38-19.518 0-6.811.27-13.982.051-20.642-.111-3.366.134-6.791.051-10.22-.083-3.418.051-6.855.051-10.27 0-20.717.152-41.85.153-62.234 0-.406.089-.764-.357-.767-.794-.005-2.015.753-2.811 1.124-5.856 2.731-10.974 6.265-15.686 9.964-2.502 2.369-5.188 4.554-7.511 7.103-2.364 2.523-4.639 5.137-6.693 7.971-5.11 7.1-9.532 14.772-12.774 23.811-1.596 4.448-2.646 9.382-3.525 14.767-1.067 6.546-1.091 14.576-.509 21.562.117 1.407.291 2.794.46 4.14.335 2.659.948 5.176 1.482 7.664.782 3.641 2.016 7.25 3.321 10.372 4.104 9.817 9.396 17.987 15.993 25.241 2.898 3.186 6.133 6.023 9.299 8.992 1.548 1.452 3.336 2.809 5.109 4.037 1.82 1.26 3.635 2.494 5.519 3.628 7.662 4.609 16.312 8.099 26.569 10.066 5.24 1.005 10.768 1.583 16.709 1.584 2.965.001 5.874-.036 8.686-.357 2.762-.315 5.425-.734 8.022-1.176 10.46-1.778 18.945-5.449 26.672-9.963 3.135-1.683 5.951-3.803 8.737-5.876 2.785-2.072 5.489-4.314 7.919-6.745 3.701-3.701 7.225-7.493 10.117-11.854.967-1.458 1.884-2.968 2.861-4.496 5.617-8.786 9.878-19.717 11.445-32.496.4-3.262.715-6.711.715-10.271 0-1.129.186-2.325-.102-3.475-1.977-.273-3.987-.153-5.979-.153-6.119.001-12.276-.05-18.445-.051-24.575-.002-49.142-.358-73.168-.153-.011.058-.057.079-.102.103-.307 1.441-.112 3.496-.101 5.108z"/><path d="m94.352 14.255c5.433-6.049 12.38-10.524 23.248-11.036 10.051-.474 17.247 2.817 22.789 7.051 2.857 2.184 5.131 4.846 7.153 7.767 2.062 2.98 3.589 6.403 4.649 10.271 2.352 8.575.701 18.976-2.555 25.139-3.359 6.36-8.522 11.64-15.022 14.767-3.443 1.656-7.021 3.056-11.547 3.373-10.042.702-17.711-1.761-23.402-6.132-2.807-2.156-5.424-4.727-7.46-7.409-4.291-5.652-7.256-13.131-6.745-22.891.491-9.337 4.101-15.496 8.892-20.9zm16.811 49.154c4.076 1.478 10.27 1.76 14.767.561 4.301-1.144 7.815-3.344 10.832-6.029 3.057-2.721 5.671-5.816 7.307-9.555 1.722-3.933 2.707-9.225 2.044-14.408-.612-4.786-2.335-8.869-4.752-12.11-2.312-3.101-5.351-6-8.891-7.971-4.438-2.471-11.693-4.038-18.394-2.759-4.216.805-7.655 2.438-10.577 4.599-1.892 1.398-3.485 3.248-5.059 5.059-1.567 1.803-2.919 3.982-3.883 6.233-2.085 4.868-2.676 11.412-1.227 17.168 1.346 5.342 4.187 9.225 7.664 12.569 2.884 2.845 6.008 5.134 10.169 6.643z"/></g></svg>