<svg enable-background="new 0 0 68.059 77.764" viewBox="0 0 68.059 77.764" xmlns="http://www.w3.org/2000/svg"><path clip-rule="evenodd" d="m67.885.395c.267 1.632.147 3.572.147 5.432.001 1.867.028 3.732-.147 5.382-4.555.197-9.093.05-13.678.049-14.078-.003-27.697-.263-41.623-.099-.323.758-.135 1.642-.148 2.469-.091 5.94-.094 12.511 0 18.467.992.217 2.237.196 3.457.197 1.21 0 2.491.076 3.555-.099.262-1.275.148-2.674.148-4.049 0-3.93-.102-8.279.148-12.196 16.013-.11 32.138.003 48.142.247.281.811.099 1.745.099 2.667 0 2.744.102 5.744-.05 8.245-11.846.301-23.754-.189-35.649 0-.359 1.313-.177 3.472-.148 5.036.667.272 1.411.197 2.123.197 11.109 0 22.592.125 33.575.297.242 1.729.148 3.724.148 5.678 0 1.961-.021 3.967-.148 5.777-11.67.25-23.819-.224-35.649 0-.265 1.509-.188 3.844-.05 5.431 1.46.3 2.96.097 4.444.148 9.845.344 20.953-.119 31.205.296.022.044.043.089.099.1.004 3.848.196 8.451-.099 12.294-15.042.192-30.153-.146-45.327-.148-.942 0-1.942.121-2.863-.147-.153-5.686.053-12.125-.099-17.973-1.001-.266-2.325-.149-3.556-.149-1.249 0-2.519-.183-3.506.099-.255 1.36-.098 2.75-.098 4.147 0 9.705.015 19.524-.198 29.478-1.875.183-3.955.049-6.023.049-2.057.001-4.214.118-6.073-.148-.121-24.28.049-48.487.049-73.076 0-.817.035-1.613.05-2.419.013-.693-.15-1.432.149-2.074 22.297.09 45.485.06 67.594.395z" fill-rule="evenodd"/></svg>