<svg enable-background="new 0 0 38.86 36.841" viewBox="0 0 38.86 36.841" xmlns="http://www.w3.org/2000/svg"><path d="m11.441 2.813c1.613-.943 3.213-1.915 4.851-2.813.917 1.587 1.824 3.18 2.731 4.773-.984 1.81-2.052 3.572-3.055 5.371-.064.106-.194.398-.296.163-1.402-2.503-2.838-4.987-4.231-7.494z"/><path d="m22.745.019c1.577.91 3.15 1.827 4.708 2.767.079.029.115.112.063.187-3.584 6.376-7.326 12.663-10.942 19.021-2.158.003-4.317-.001-6.475-.015 4.191-7.334 8.423-14.644 12.646-21.96z"/><path d="m20.211 17.255c.998-1.707 1.998-3.413 3.001-5.117 4.187 7.259 8.312 14.561 12.366 21.895-1.564.975-3.152 1.919-4.767 2.808-3.597-6.294-7.144-12.617-10.765-18.897-.189-.234.056-.481.165-.689z"/><path d="m.005 22.763c7.291.002 14.578.021 21.866.066 1.145 1.85 2.146 3.793 3.249 5.671-8.369-.022-16.741.013-25.109-.064-.025-1.89.001-3.781-.006-5.673z"/><path d="m30.273 22.816c2.861.004 5.721.01 8.582.017.015 1.889-.01 3.778.001 5.668-1.74-.022-3.478.066-5.218.034-.213.029-.278-.199-.366-.341-.98-1.803-2.047-3.56-2.999-5.378z"/><path d="m5.874 29.314c2.155-.106 4.321-.03 6.48-.033-1.346 2.569-2.935 5.002-4.336 7.543-1.613-.937-3.225-1.876-4.839-2.811.864-1.58 1.839-3.11 2.695-4.699z"/></svg>