<svg enable-background="new 0 0 64.953 75.206" viewBox="0 0 64.953 75.206" xmlns="http://www.w3.org/2000/svg"><path clip-rule="evenodd" d="m45.98 74.934c-1.456-2.121-1.853-5.301-3.317-7.414-6.361-.203-13.303-.103-19.75-.051-.585.373-.822 1.125-1.089 1.762-.271.652-.517 1.352-.777 2.021-.526 1.357-1.004 2.785-1.763 3.889-4.13.086-8.621.086-12.751 0-.769-.596-1.254-1.484-1.814-2.281-.555-.785-1.063-1.611-1.556-2.488-.429-.764-1.072-1.557-1.658-2.436-.465-.695-1.463-1.687-1.504-2.541-.023-.504.457-1.51.726-2.176.311-.771.568-1.432.83-2.074.569-1.4 1.267-2.746 1.71-4.043.487-1.426.967-2.838 1.556-4.199 2.882-6.654 5.81-13.613 8.553-20.217 2.278-5.486 4.377-10.975 6.688-16.328 1.742-4.035 3.421-8.109 5.08-12.182.549-1.35 1.01-2.754 1.762-3.99 2.301-.252 5.626-.156 8.449-.156.899 0 2.001-.131 2.488.156.432.252.661 1.15.985 1.918 1.995 4.727 4.015 9.389 5.909 14.203 2.188 5.559 4.52 10.971 6.687 16.275 2.253 5.512 4.566 10.885 6.791 16.225 1.126 2.703 2.261 5.408 3.422 8.088.584 1.35 1.078 2.752 1.658 4.096.582 1.344 1.326 2.613 1.659 4.043-.358.971-.99 1.795-1.556 2.592-.574.808-1.104 1.642-1.711 2.435-.795 1.33-1.527 2.41-2.435 3.785-.305.459-.618.969-.985 1.088-.737.24-2.126.051-3.059.051-3.06 0-6.291.043-9.228-.051zm-12.855-72.572c-1.794.02-3.523-.152-5.028.103-.846.934-1.07 2.49-1.711 3.629-5.947 14.205-11.499 28.535-17.469 42.61-1.5 3.537-2.905 7.162-4.406 10.627-.506 1.17-1.208 2.393-1.191 3.732.494.258 1.142.207 1.762.207 1.984 0 4.181.043 6.014-.051.581-.615.816-1.471 1.14-2.228 1.695-3.977 3.212-8.006 4.925-11.924 2.092-4.783 3.977-9.602 5.961-14.357 1.001-2.398 1.936-4.82 2.955-7.154.351-.803.495-1.791 1.141-2.281.632.688.787 1.656 1.141 2.488 1.103 2.601 2.247 5.109 3.317 7.672 1.077 2.582 2.288 5.121 3.266 7.672.32.836.579 1.789 1.244 2.438 1.214.092 2.635.051 3.991.051 1.36 0 2.802.264 3.784-.207-.291-1.365-.933-2.635-1.504-3.889-.566-1.244-1.067-2.52-1.606-3.783-2.944-6.898-5.956-13.902-8.812-20.891-.286-.701-.734-1.426-.726-2.021.008-.471.3-1.076.519-1.607 1.065-2.584 2.082-5.053 3.11-7.516.414-.994 1.015-1.98 1.088-3.111-.725-.44-1.819-.219-2.905-.209zm3.317 5.39c-.609 1.455-1.28 3.01-1.918 4.459-.275.625-.894 1.758-.881 2.332.009.412.454 1.227.726 1.867 1.852 4.359 3.651 8.672 5.391 12.959 1.536 3.783 3.247 7.34 4.614 11.094.463 1.271 1.175 2.461 1.555 3.68.1.318.132.721.207.934.267.754.887 1.463.83 2.279-.64.355-1.434.209-2.178.209-2.468 0-4.789-.059-7.102-.053-2.282.006-4.711.133-7.05.053-.692-.025-1.517.164-2.073-.26.595-1.783 1.335-3.457 2.073-5.236.23-.555.677-1.201.674-1.762-.002-.352-.259-.846-.414-1.244-.834-2.139-1.581-3.869-2.54-5.91-.258-.547-.724-2.234-1.192-2.228-.367.006-.818 1.32-1.037 1.814-.348.783-.515 1.432-.777 2.074-3.873 9.43-7.985 19.053-11.611 28.406 1.095 1.902 2.459 3.656 3.681 5.391.408.58.702 1.34 1.399 1.658.572-.377.684-1.117.933-1.711 1.57-3.744 3.268-7.691 4.718-11.455.231-.601.457-1.297.933-1.762 8.189-.088 16.875-.096 24.934.051.74 1.102 1.209 2.465 1.763 3.785s.928 2.764 1.813 3.783c1.215.092 2.631.053 3.992.053 1.354 0 2.79.154 3.836-.207-.178-1.295-.853-2.449-1.349-3.629-.501-1.193-1.019-2.381-1.503-3.578-2.935-7.264-6.131-14.305-9.123-21.512-1.486-3.578-2.936-7.25-4.406-10.885-2.207-5.455-4.455-10.807-6.738-16.226-.279-.66-.562-1.608-1.037-1.606-.545.423-.816 1.604-1.143 2.383zm-4.717 37.686c.321.23 1.354.258 1.606-.051.005-.672-.291-1.416-.726-1.815-.622.264-.921 1.11-.88 1.866zm-1.918 12.131c-.928 0-1.956-.148-2.748 0-.665.125-.813.99-1.14 1.711-.332.733-.53 1.27-.777 1.865-.628 1.512-1.208 2.609-1.349 3.836.682.322 1.529.207 2.333.207 6.298 0 12.05-.096 17.832.053.617.607.798 1.566 1.141 2.436.162.412.351.826.519 1.244.16.402.179.998.621 1.193.664-.229.987-.988 1.349-1.557 1.177-1.848 2.564-3.654 3.576-5.598-.673-1.85-1.314-3.73-2.28-5.287-5.965-.187-12.891-.103-19.077-.103zm27.681 7.723c-1.723 0-3.739-.039-5.132.053-1.346 1.654-2.592 3.545-3.733 5.34-.389.609-.951 1.18-1.036 1.916.691.281 1.529.156 2.332.156 2.529 0 5.193.043 7.568-.051.918-1.088 1.693-2.287 2.488-3.475.397-.592.782-1.201 1.192-1.812.395-.592.909-1.215 1.036-1.971-1.399-.28-3.038-.156-4.715-.156zm-54.325 1.451c.587 1.02 1.233 1.906 1.866 2.801.864 1.219 1.571 2.58 2.695 3.523 2.333.074 5.067.053 7.465.053.802 0 1.692.162 2.281-.26-.08-.721-.64-1.268-1.037-1.865-.876-1.318-1.508-2.287-2.488-3.629-.374-.512-.902-1.541-1.348-1.711-.569-.219-1.916-.104-2.54-.104-.997 0-2.205.09-3.421.053-1.296-.041-2.971-.191-3.836.104-.147.386.191.736.363 1.035z" fill-rule="evenodd"/></svg>