<svg enable-background="new 0 0 36.582 32.775" viewBox="0 0 36.582 32.775" xmlns="http://www.w3.org/2000/svg"><path d="m14.704 1.891c1.742-2.612 6.054-2.488 7.692.18 3.038 5.291 6.176 10.525 9.171 15.841 1.481 2.757 2.999 5.496 4.573 8.202 1.392 2.733-.674 6.428-3.729 6.66-8.15-.038-16.317.033-24.455-.066-1.936-.094-4.131.425-5.839-.783-1.967-1.237-2.735-4.029-1.561-6.053 2.865-4.886 5.74-9.768 8.598-14.659 1.944-3.05 3.56-6.298 5.55-9.322zm.194 12.094c1.089 1.989 2.266 3.927 3.379 5.902.044.103.192.278.269.101 1.126-1.886 2.183-3.811 3.321-5.692.072-.119.153-.263.087-.402-1.097-2.025-2.345-3.96-3.48-5.965-1.205 2.008-2.425 4.015-3.576 6.056zm-7.238 12.415c1.974.119 3.975.064 5.959.052.37.032.743.015 1.114.02-1.183-2.026-2.329-4.083-3.561-6.076-1.219 1.965-2.363 3.991-3.512 6.004zm14.524.077c2.341.007 4.683-.003 7.019.043-1.122-2.076-2.342-4.114-3.512-6.17-1.151 2.051-2.433 4.035-3.507 6.127z"/></svg>