<svg enable-background="new 0 0 77.698 54.4" viewBox="0 0 77.698 54.4" xmlns="http://www.w3.org/2000/svg"><g clip-rule="evenodd" fill-rule="evenodd"><path d="m.342.012c12.233.053 24.563-.112 36.437.097.785.7 1.289 1.652 1.851 2.533 1.676 2.632 3.372 5.335 5.066 8.038 1.123 1.792 2.165 3.636 3.312 5.407 1.149 1.774 2.161 3.624 3.459 5.261.523-.174.752-.759 1.023-1.169 2.003-3.034 3.956-6.257 5.991-9.352 2.331-3.544 4.48-7.207 6.917-10.62.057.008.087-.011.097-.049 4.369.064 8.995-.128 13.201.097-.233.793-.765 1.465-1.218 2.144-5.072 7.606-9.868 15.226-15.003 22.896-1.3 1.941-2.662 4.149-4.092 6.284-.438.653-1.17 1.486-1.315 2.095-.167.703-.049 1.677-.048 2.581v13.006c0 1.714.117 3.397-.146 5.018-3.507.151-7.438.189-10.863-.048-.341-6.711.207-14.063-.195-20.557-.625-.262-1.332-.146-1.998-.147-7.593 0-15.597-.097-23.139-.097-2.793 0-5.557-.105-8.232.146-.3 1.619-.097 3.352-.097 5.066 0 4.971-.011 10.442-.146 15.54-3.674.168-7.682.154-11.106-.049-.22-16.665-.002-33.531 0-50.662 0-1.025-.072-2.724.098-3.361.035-.046.088-.074.146-.098zm35.804 19.437c-1.185-1.865-2.333-3.73-3.507-5.554-.584-.906-1.002-1.973-1.851-2.679-4.679.052-9.769-.223-14.272-.097-1.532.043-3.137-.18-4.628 0-.044.005-.129.024-.195.049-.405.149-.358 1.976-.341 2.582.083 2.875-.106 6.133.146 8.574 4.237.178 8.705.097 13.152.097 3.313 0 6.695-.151 9.937 0 1.056.049 2.157.183 3.167-.097-.409-1.023-1.021-1.95-1.608-2.875zm-30.105 4.579c-.058.023-.11.052-.146.097-.151.073-.178.374-.195.536-.211 1.976.084 5.053.097 6.917.316.148 1.147.158 1.461 0 .292-.797-.123-2.299.244-3.02.896-.252 2.106.091 2.923-.146.187-.17.21-.8.049-1.023-.795-.293-2.299.123-3.02-.244-.155-.501-.116-1.334.049-1.802.825-.247 2.166.022 3.069-.146.235-.2.225-.716.098-1.023-1.271-.322-3.121-.063-4.629-.146zm5.553.048c-.357.232-.243.73-.243 1.121 0 1.889-.247 4.412.438 5.504.793 1.265 3.332 1.634 4.872.779 1.841-1.022 1.463-4.547 1.315-7.307-.321-.208-1.138-.206-1.461 0-.587 1.83.547 5.233-.828 6.186-.558.387-1.346.369-1.852.097-1.46-.785-.402-4.506-.876-6.284-.258-.222-.973-.158-1.365-.096zm13.25.828c-.932-1.172-3.973-.873-5.553-.73-.16 2.248-.162 5.157 0 7.404.324.204 1.191.221 1.51 0 .131-.924-.035-2.146.195-2.971.746-.164 1.667-.199 2.046.243.575.671.125 1.997.633 2.777.34.138 1.175.165 1.51 0-.094-.937-.029-2.163-.389-2.972-.185-.415-.553-.498-.682-.877.918-.402 1.455-1.962.73-2.874zm4.969 1.949c-.212-.478-.464-.944-.682-1.413-.213-.458-.324-1.042-.78-1.316-.656-.085-1.52-.164-2.095.049-.314 1.164-.092 2.598-.097 3.946-.005 1.215-.21 2.474.097 3.507.259.137.964.159 1.218 0 .388-1.496-.066-3.833.244-5.407.447.252.568.816.779 1.267.215.459.462.944.682 1.413.452.96.782 2 1.413 2.776.601.056 1.62.133 2.143-.048.14-1.711.15-3.514.146-5.212-.001-.748.02-1.576-.146-2.241-.245-.151-.973-.151-1.218 0-.42 1.48.128 3.927-.292 5.407-.627-.751-.992-1.782-1.412-2.728zm4.384-2.679c-.325.62-.145 1.438-.146 2.192-.001.84-.049 1.755-.049 2.63 0 .919-.114 1.842.146 2.631.331.147 1.25.184 1.51-.049.129-1.04.016-2.155.049-3.264.041-1.393.186-2.887-.098-4.141-.307-.141-1.108-.16-1.412.001zm7.794 4.141c1.29-.956.92-3.261-.39-3.897-1.226-.596-3.308-.292-4.579-.195-.257 1.05-.146 2.382-.146 3.653 0 1.311-.055 2.626.098 3.751.298.208 1.15.205 1.51.048.264-.742-.079-2.092.244-2.776 1.301-.154 2.524-.037 3.263-.584zm1.559-4.092c-.256.495-.146 1.149-.146 1.753-.001 1.896-.078 4.017.097 5.699 1.539.11 3.519.257 4.871 0 .146-.188.146-.786 0-.974-.93-.275-2.283.083-3.215-.244-.315-1.844.151-4.471-.244-6.235-.283-.152-1.079-.152-1.363.001zm4.92-.049c-.418-.075-1.159-.101-1.51.049.126.908.782 1.576 1.266 2.338.407.64 1.191 1.629 1.364 2.338.19.776-.118 1.895.146 2.776.334.195 1.133.21 1.461 0 .236-.77-.009-2.022.146-2.874.478-.744.94-1.457 1.413-2.192.459-.714 1.023-1.437 1.267-2.338-.314-.17-1.072-.11-1.461-.048-.425.422-.705 1.005-1.023 1.559-.31.541-.497 1.218-1.023 1.559-.9-.837-1.094-2.382-2.046-3.167z"/><path d="m20.996 27.292c-.142-.469-.199-1.603.049-1.997.867-.079 1.909-.093 2.289.39.905 1.146-.89 2.072-2.338 1.607z"/><path d="m38.727 27.535c-.233-.489-.24-1.766.049-2.192 1.434-.382 2.912.543 2.046 1.851-.399.373-1.421.556-2.095.341z"/></g></svg>