<svg enable-background="new 0 0 82.081 41.612" viewBox="0 0 82.081 41.612" xmlns="http://www.w3.org/2000/svg"><g clip-rule="evenodd" fill-rule="evenodd"><path d="m36.573 1.582c-3.031-.195-4.918 1.082-5.951 3.051-.547 1.043-.82 2.396-1.199 3.701-.723 2.479-1.555 5.027-2.301 7.5-.393 1.301-.922 2.521-1.051 3.752.393.266.934.148 1.4.148h4.502c2.09 0 4.324.271 5.9-.148 1.336-.357 2.133-1.33 2.85-2.15 1.768-3.721 2.371-8.082 4.602-11.303 1.049-1.514 2.398-2.906 4.051-3.9 1.613-.971 3.717-1.779 5.951-1.951 3.346-.258 6.279.51 8.551 1.75.824.451 1.633 1.121 2.4 1.701 2.285 1.725 4.305 4.025 5.852 6.451 2.098 3.289 3.953 6.871 7.051 9.352.832.719 1.998 1.102 2.9 1.75-.082.387-.543.393-.799.5-4.371 1.822-6.586 6.439-9.152 10.152-1.357 1.963-2.988 3.854-4.852 5.451-1.828 1.566-3.969 3.004-6.6 3.699-3.047.807-6.209.65-8.852-.25-2.5-.852-4.541-2.398-6.002-4.301-1.582-2.059-2.422-4.434-3.25-7.051-.791-2.5-1.484-5.189-3.602-6.701-1.752-1.082-4.98-.75-8-.75-1.98 0-3.941-.041-5.701.051-.596.982-.822 2.172-1.201 3.301-1.094 3.258-1.959 6.908-3.449 9.951-1.408 2.873-4.748 5.18-8.352 5.75-1.473.234-3.082.115-4.451-.199-1.283-.295-2.666-.576-3.301-1.451 3.191.676 5.476-1.027 6.551-3.1.522-1.004.809-2.281 1.201-3.5.375-1.166.733-2.389 1.1-3.551.785-2.484 1.672-4.904 2.1-7.152-1.182-.305-2.525-.103-3.85-.148-1.291-.045-2.611-.051-3.9-.051-2.672 0-5.309.092-7.551-.15-.154-.488-.168-1.564 0-2.051 5.184-.332 10.955.145 16.101-.148.643-1.061.867-2.307 1.25-3.502.92-2.867 1.676-6.125 2.9-8.851.668-1.486 1.246-2.65 2.352-3.801.609-.633 1.391-1.277 2.1-1.699 2.414-1.439 5.777-2.26 9.252-1.35.944.244 1.966.567 2.45 1.198z"/><path d="m35.874 2.533c4.025-.358 7.1 4.037 5.1 7.85-1.086 2.072-4.086 3.486-6.699 2.352-1.9-.826-3.195-2.748-3.201-4.9-.009-2.867 2.04-5.058 4.8-5.302z"/><path d="m4.519 28.486c1.701-.205 3.357.424 4.351 1.301.582.514 1.334 1.604 1.549 2.801.482 2.668-1.262 5.025-3.199 5.801-2.916 1.164-5.797-.592-6.752-2.701-.481-1.062-.637-2.406-.25-3.701.478-1.605 2.148-3.241 4.301-3.501z"/></g></svg>