<svg enable-background="new 0 0 14.383 14.367" viewBox="0 0 14.383 14.367" xmlns="http://www.w3.org/2000/svg"><path d="m6.559.026c.346-.047.698-.014 1.046-.022.389.038.781.076 1.163.17.591.117 1.151.353 1.693.611.49.255.956.559 1.378.916.243.215.502.42.695.684.676.72 1.171 1.601 1.481 2.536.352 1.038.451 2.159.303 3.245-.231 1.747-1.141 3.392-2.494 4.52-1.18 1.006-2.701 1.588-4.245 1.679-.16-.635-.332-1.265-.497-1.897-.339-1.36-.708-2.714-1.06-4.071-.082-.361-.214-.712-.255-1.081.037-.261.19-.537.455-.622.276-.087.562-.141.839-.225 1.594-.407 3.186-.821 4.777-1.238.173.447.299.911.365 1.386-1.475.383-2.948.77-4.423 1.15-.141.028-.28.069-.415.118.44 1.621.852 3.251 1.285 4.873.452-.154.909-.305 1.326-.542.836-.452 1.547-1.122 2.058-1.922.614-.947.927-2.081.916-3.207-.023-.204-.023-.411-.042-.615-.025-.103-.044-.208-.056-.314-.2-1.04-.664-2.04-1.388-2.819-.143-.201-.356-.333-.523-.511-.912-.777-2.066-1.281-3.263-1.374-1.163-.108-2.348.166-3.36.741-.954.56-1.758 1.385-2.254 2.378-.436.829-.639 1.771-.625 2.705-.006.319.06.632.09.949.242 1.29.933 2.493 1.94 3.336.415.352.882.647 1.38.866-.379-1.398-.721-2.805-1.099-4.203-.083-.31-.146-.628-.129-.95.023-.954.565-1.875 1.379-2.37.457-.286.997-.376 1.509-.519 1.319-.346 2.639-.685 3.957-1.034.397.361.751.769 1.031 1.228-1.576.4-3.145.822-4.72 1.224-.382.114-.798.157-1.13.396-.214.173-.405.387-.5.65-.119.302-.116.646-.025.955.576 2.186 1.142 4.376 1.723 6.561-.903-.061-1.802-.261-2.624-.647-.678-.3-1.3-.717-1.854-1.207-.191-.193-.384-.383-.575-.575-.834-.962-1.42-2.141-1.658-3.394-.302-1.504-.089-3.1.578-4.481.272-.567.624-1.093 1.025-1.576.315-.337.638-.668.999-.954 1.091-.86 2.439-1.392 3.823-1.507z"/></svg>