<svg enable-background="new 0 0 81.55 81.83" viewBox="0 0 81.55 81.83" xmlns="http://www.w3.org/2000/svg"><g clip-rule="evenodd" fill-rule="evenodd"><path d="m63.624 7.701c-.548.723-1.477.932-2.25 1.25-2.449 1.012-4.81 2.125-7.001 3.451-2.896 1.752-5.427 3.83-7.901 6.051-2.48 2.226-4.291 4.943-6.301 7.65-1.514 2.039-2.663 4.248-3.851 6.652-.371.75-.643 1.594-1.2 2.25-4.73.08-9.504.049-14.203.049-2.444.002-4.697-.031-6.251 1.002-1.404.932-2.601 2.42-2.55 4.699.04 1.77 1.074 3.076 2.15 3.951 2.305 1.875 6.573 1.4 10.752 1.4h3.05c.978 0 1.976-.115 2.851.15.025.652-.534 1.113-.85 1.6-.979 1.508-2.175 2.883-3.401 4.201-4.379 4.713-9.938 8.773-17.653 10.301-.709.141-1.678.404-2.2.301-.45-.09-.847-.84-1.2-1.4-2.297-3.637-3.879-8.15-4.851-13.002-.578-2.887-.828-6.068-.75-9.301.076-3.184.595-6.32 1.3-8.902.75-2.748 1.592-5.168 2.7-7.551 3.196-6.869 8.19-12.201 14.403-16.203 2.725-1.803 5.791-3.211 9.251-4.35 2.605-.859 5.422-1.387 8.451-1.752 1.08-.128 2.308-.196 3.401-.198 8.896-.018 16.275 2.494 21.954 5.9.805.485 1.784.917 2.15 1.801zm-7.601.651c.44-.252 1.9-.775 1.9-1.25 0-.459-1.208-.869-1.7-1.102-.71-.332-1.442-.631-2-.85-3.868-1.513-9.211-2.898-14.553-2.65-3.992.186-7.565.705-10.802 1.701-3.134.963-6.025 2.307-8.552 3.949-5.205 3.385-9.281 7.262-12.552 12.502-3.142 5.038-5.55 11.645-5.55 19.504 0 7.229 1.738 12.941 4.201 17.703.341.66.627 1.455 1.301 1.85.03.004.058.008.05.051 2.097-.08 3.916-.812 5.601-1.5 4.25-1.736 7.702-4.162 10.551-7.252.55-.596 1.384-1.119 1.5-2-1.021-.27-2.197-.15-3.351-.15-1.17 0-2.385.031-3.5 0-2.297-.062-4.108-.707-5.451-1.6-2.051-1.621-3.668-3.549-3.6-6.951.064-3.271 1.73-5.256 3.9-6.65 1.128-.727 2.471-1.147 4.05-1.201 5.119-.176 10.873.176 15.853-.051.655-.467.821-1.291 1.15-1.949 2.43-4.857 5.603-9.041 9.001-12.851 2.068-2.084 4.332-3.971 6.751-5.701 1.904-1.312 3.769-2.384 5.802-3.552z"/><path d="m50.272 34.906c.03-.652.425-1.248.75-1.752 2.232-3.451 5.478-6.217 8.752-8.699 2.889-1.988 6.254-3.715 10.202-4.803 1.319-.363 2.93-.793 4.301-.898 1.083-.084 1.823 1.564 2.2 2.25 1.585 2.877 2.914 5.998 3.801 9.551 1.197 4.793 1.63 10.525.95 15.902-.646 5.113-2.379 9.482-4.351 13.402-1.982 3.939-4.623 7.273-7.551 10.201-2.916 2.916-6.317 5.459-10.352 7.451-3.961 1.957-8.454 3.576-13.652 4.102-5.598.564-11.133.01-15.803-1.451-4.009-1.252-7.392-2.828-10.552-5-.341-.234-1.103-.719-1.05-1.15.062-.506 1.833-.939 2.351-1.15 5.649-2.295 10.713-5.812 14.652-9.752 2.875-2.873 5.339-6.211 7.501-9.951.422-.729.727-1.518 1.15-2.301.301-.555.839-1.44 1.2-2.299.268-.639.718-2.244 1.2-2.4.599-.195 1.686-.051 2.551-.051h7.551c1.715 0 3.477.117 5.151.051 1.697-.068 3.31.025 4.651-.4 2.157-.686 4.355-3.318 3.301-6.551-.966-2.961-4.044-4.051-7.751-4.051-2.815 0-5.952-.113-8.602-.051-.852.019-1.79.246-2.551-.2zm-24.604 41.106c2.701 1.133 5.604 2.166 8.852 2.701 4.666.77 9.704.656 14.102-.25 4.153-.857 7.891-2.316 11.252-4.201 3.177-1.781 6.321-4.275 8.651-6.801 4.868-5.275 8.737-11.832 10.102-20.803.685-4.504.415-10.047-.55-14.104-.709-2.98-1.678-6.066-3.051-8.5-.486-.863-.968-2.24-2-2.051-3.707.68-7.251 2-10.102 3.85-2.119 1.375-4.261 2.824-5.901 4.601-.545.59-1.248 1.15-1.45 1.949 2.331.242 4.753.066 7.001.102 2.307.035 4.275.416 5.851 1.449 2.754 1.807 5.04 5.699 3.151 10.102-.741 1.727-1.988 3.041-3.451 3.852-1.661.92-3.539 1.051-6.151 1.051-3.587-.002-7.334.154-10.902.049-.734-.021-2.756-.277-3.451.051-.466.219-.822 1.268-1.15 1.949-1.698 3.527-3.67 6.869-5.951 9.602-.966 1.158-1.96 2.184-2.951 3.301-3.464 3.908-7.788 6.799-12.402 9.402-.647.365-1.418.633-1.9 1.25.571.755 1.543 1.089 2.401 1.449z"/></g></svg>