<svg enable-background="new 0 0 20.452 38.095" viewBox="0 0 20.452 38.095" xmlns="http://www.w3.org/2000/svg"><path d="m13.362.325c.716-.476 1.623-.33 2.417-.182-4.841 2.814-9.707 5.578-14.555 8.382-.169.836.168 1.774.921 2.214 1.204.675 2.696.74 4.008.396 4.77-2.74 9.52-5.521 14.3-8.245-.001 2.216-.04 4.431-.043 6.647-2.831 1.636-5.674 3.256-8.493 4.909-.012 1.329-.014 2.659-.016 3.989 2.683-1.484 5.311-3.065 7.97-4.593.002 2.196-.026 4.392-.044 6.587-2.654 1.536-5.282 3.12-7.964 4.606.002 3.204-.038 6.409-.038 9.613-1.957 1.143-3.929 2.267-5.88 3.417-1.443.074-2.95.024-4.305-.528-1.013-.411-1.613-1.488-1.64-2.554.044-8.913.045-17.828.133-26.74.012-.449.417-.733.769-.935 4.149-2.336 8.274-4.714 12.46-6.983z"/></svg>