<svg enable-background="new 0 0 12.394 35.439" viewBox="0 0 12.394 35.439" xmlns="http://www.w3.org/2000/svg"><path d="m4.755.013c.874-.05 1.745.061 2.619.046 1.588-.002 3.176-.005 4.762.042.266.136.229.497.258.75-.001 1.311-.024 2.623-.062 3.934-.019.247-.333.206-.468.08-.436-.347-.771-.801-1.141-1.214-.877-.894-1.737-1.799-2.59-2.715-.125.663-.171 1.345-.162 2.021 0 1.598-.026 3.194-.023 4.791 0 .122-.003.258.084.354.277-.064.439-.319.63-.506.384-.456.802-.882 1.167-1.354.117-.148.215-.364.426-.387.182.027.232.243.232.398.004 1.69-.028 3.378-.028 5.068.016.199-.214.29-.338.133-.707-.714-1.366-1.474-2.025-2.232-.088.003-.17.057-.155.155-.085 4.593-.057 9.188-.052 13.781 2.483.707 4.432 3.146 4.445 5.752.15 1.056-.15 2.123-.673 3.038-.166.491-.457.92-.815 1.292-1.216 1.51-3.201 2.25-5.108 2.196-1.583-.085-2.997-.955-4.127-2.012-.684-.887-1.38-1.848-1.485-3.003-.27-1.006-.05-2.034.1-3.037.33-1.035.856-2.054 1.69-2.772.73-.701 1.647-1.14 2.59-1.479.013-2.989.093-5.973.033-8.96.055-3.423-.007-6.847 0-10.275.042-1.227.012-2.456.024-3.684.003-.104.098-.179.192-.201zm.968 25.889c-1.018.081-1.822.843-2.356 1.658-.484.913-.558 2.047-.097 2.986.48 1.023 1.516 1.815 2.664 1.888.985-.02 2.045-.319 2.672-1.131.842-.896 1.013-2.283.584-3.409-.34-.605-.711-1.267-1.382-1.553-.577-.479-1.373-.506-2.085-.439z"/></svg>