<svg enable-background="new 0 0 85.861 64.327" viewBox="0 0 85.861 64.327" xmlns="http://www.w3.org/2000/svg"><g clip-rule="evenodd" fill-rule="evenodd"><path d="m39.776.055c2.918-.14 6.32.032 9.414 0 3.089-.033 6.208-.139 8.961.251 10.688 1.514 18.048 7.128 22.855 14.7 2.29 3.606 4.287 8.616 4.732 14.046.516 6.282-.65 11.575-2.618 15.959-1.992 4.438-4.552 7.974-7.803 10.975-3.194 2.948-7.297 5.486-11.881 6.897-2.363.727-5.054 1.239-8.055 1.359-6.031.242-12.287-.123-18.476 0-3.155.062-6.333.213-9.112-.201-8.3-1.236-14.025-4.512-18.727-9.465-4.515-4.755-8.105-10.799-8.911-19.23-.604-6.312.603-11.71 2.467-16.009 1.991-4.592 4.495-7.922 7.803-10.976.823-.76 1.611-1.564 2.517-2.215 4.537-3.256 9.858-5.694 17.418-6.041 2.915-.134 6.104.108 9.416-.05zm-13.29 2.014c-2.543.395-4.831 1.151-6.947 2.063-3.997 1.723-7.641 4.59-10.32 7.652-2.666 3.048-5.002 6.866-6.394 11.579-1.355 4.591-1.615 10.88-.403 16.01 1.12 4.738 3.213 8.759 5.941 12.032 2.74 3.287 5.902 6.185 9.867 8.104 4.21 2.039 8.778 3.15 14.801 3.172 5.96.022 11.521-.05 17.771-.051 3.239 0 5.979-.027 8.508-.453 2.517-.423 4.785-1.178 6.896-2.114 3.995-1.771 7.462-4.524 10.32-7.652 4.058-4.438 7.375-11.094 7.702-19.28.11-2.757-.261-5.519-.855-8.156-1.087-4.816-3.302-8.921-5.89-12.082-2.722-3.323-5.857-6.014-9.918-8.055-3.925-1.973-8.994-3.484-14.75-3.222-2.877.131-5.787.05-8.759.05-2.876.001-6.077-.037-8.911 0-3.281.043-6.09.003-8.659.403z"/><path d="m49.341 50.549c-.163-7.717-.117-15.771-.101-23.107.006-2.502.106-4.988-.101-7.45-4.024-.163-8.693-.199-12.434-.051-.424 1.184-.1 2.456-.151 3.726-.143 3.57.009 7.454-.05 11.377-.08 5.222.115 10.563-.051 15.506-6.938.731-11.985-.85-15.706-3.675-3.622-2.749-6.449-6.812-7.149-12.384-.783-6.233 1.574-11.335 4.531-14.7 2.264-2.578 5.294-4.669 9.062-5.589 2.94-.717 7.016-.603 10.723-.604 4.159-.001 8.362-.015 12.384.05 2.104.034 4.08-.14 6.041.151 6.912 1.026 11.962 5.263 14.348 10.925.655 1.555 1.124 3.168 1.359 4.983.784 6.033-1.414 11.059-4.179 14.348-3.816 4.542-9.66 7.379-18.526 6.494zm17.168-7.452c2.41-3.064 4.415-6.782 4.027-12.031-.361-4.882-2.325-8.417-5.085-11.075-2.716-2.616-6.347-4.663-11.378-4.782-2.688-.064-5.412-.001-8.104 0-2.64 0-5.232-.175-7.854-.051-3.269.154-6.607-.224-9.414.352-2.711.558-4.702 1.472-6.646 2.921-2.74 1.93-4.869 4.729-6.091 8.256-1.376 3.971-.941 8.843.503 12.183 1.387 3.21 3.663 5.873 6.645 7.703 2.996 1.838 6.997 2.909 11.629 2.366.269-1.201.151-2.478.151-3.726 0-7.838.02-15.584 0-23.107-.004-1.268-.119-2.562.151-3.775 3.791-.223 7.993-.05 11.931-.051 1.309 0 2.63-.158 3.826.101.116 9.032.143 17.923.051 26.733-.015 1.362-.111 2.679.151 3.826 7.407.691 12.234-2.065 15.507-5.843z"/></g></svg>