<svg enable-background="new 0 0 75.257 47.53" viewBox="0 0 75.257 47.53" xmlns="http://www.w3.org/2000/svg"><path clip-rule="evenodd" d="m20.741.145c-.335 1.221-.933 2.233-1.302 3.457-.365 1.207-.604 2.477-.802 3.907-.403 2.92.09 5.986.901 8.315 1.537 4.413 4.847 8.093 8.616 10.22 2.066 1.165 4.329 1.979 7.063 2.404 5.937.924 11.112-1.579 14.327-4.208 1.722-1.408 3.265-3.135 4.258-5.16-.836-.353-1.815-.2-2.755-.2-5.694 0-11.833-.156-17.433 0-.936.026-1.888.097-2.756-.15-.178-6.009-.154-12.536 0-18.585 3.576-.183 7.192-.1 10.82-.1 10.897 0 21.328-.101 32.361 0 1.814 5.475 1.429 13.752-.05 19.186-.756 2.775-1.908 5.333-3.107 7.715-1.217 2.421-2.612 4.653-4.258 6.512-2.281 2.974-5.136 5.647-8.466 7.765-.823.524-1.719.995-2.505 1.553-.83.59-1.703.962-2.655 1.403-3.65 1.69-7.98 2.804-12.924 3.256-2.481.227-5.005.01-7.515-.25-4.798-.497-8.631-2.116-12.323-3.857-2.662-1.256-5.067-3.062-7.163-5.01-3.475-3.228-6.674-6.903-8.867-11.371-1.684-3.433-3.411-7.543-3.907-12.273-.48-4.611-.518-10.268.905-14.579 6.297-.059 13.17-.146 19.537.05z" fill-rule="evenodd"/></svg>