<svg enable-background="new 0 0 87.099 82.454" viewBox="0 0 87.099 82.454" xmlns="http://www.w3.org/2000/svg"><g clip-rule="evenodd" fill-rule="evenodd"><path d="m63.957 0c3.674 1.653 6.878 4.317 9.63 6.842 2.931 2.689 5.333 5.826 7.298 9.072 3.077 5.084 5.334 11.123 6.031 18.55.742 7.893-.861 15.553-3.193 21.033-4.813 11.315-13.5 19.728-24.936 24.176-4.112 1.6-8.471 2.496-13.634 2.737-5.255.245-9.901-.567-14.343-1.824-8.352-2.364-14.873-7.07-20.019-12.722-1.26-1.384-2.383-3.047-3.497-4.714-1.087-1.626-2.026-3.459-2.889-5.27-1.805-3.791-3.199-7.855-3.903-12.468-1.14-7.47-.274-15.543 1.926-21.439.372-.998.771-1.97 1.165-2.94.373-.916.783-1.877 1.419-2.636 5.499-.092 11.148-.052 16.776-.051 5.619.001 11.286-.123 16.675.152-.492.471-1.202.521-1.774.71-1.748.573-3.375 1.502-4.764 2.533-1.894 1.407-3.549 2.824-4.917 4.866-.639.955-1.244 1.961-1.825 3.092-1.584 3.087-2.565 7.558-1.723 12.417.474 2.733 1.503 4.945 2.686 7.096 1.14 2.072 2.767 3.882 4.511 5.271 1.717 1.367 3.868 2.605 6.285 3.497 2.42.893 5.414 1.259 8.616.963 5.82-.539 9.841-3.285 12.873-6.69 3.151-3.54 5.271-7.918 5.271-14.293 0-11.098-.051-22.06-.05-33.197 0-.68-.014-1.527 0-2.433.011-.726-.067-1.886.152-2.23.038-.046.093-.076.153-.1z"/><path d="m51.54 35.579c-.559-.339-.576-1.105-.862-1.622-1.593-2.874-5.389-4.698-9.427-3.648-3.385.879-5.974 3.613-6.234 7.501-.197 2.94.912 5.039 2.281 6.486 1.454 1.538 3.416 2.552 6.133 2.637 2.797.087 5.764-.021 8.717.05 2.177.053 4.237.001 6.488 0 .643 0 1.392-.142 1.977.203.128.741-.436 1.343-.76 1.875-1.004 1.647-2.184 3.179-3.599 4.46-3.019 2.682-6.361 4.391-11.353 4.815-3.802.323-7.387-.591-9.984-1.977-1.667-.89-2.85-1.45-4.156-2.636-1.437-1.306-2.741-2.86-3.801-4.511-1.426-2.221-2.638-5.127-2.94-8.109-.677-6.695 1.522-11.97 4.714-15.559 2.915-3.279 6.727-5.861 12.163-6.538 3.97-.494 8.205.198 10.694 1.774.184 2.339.101 4.92.101 7.45 0 2.537.115 5.068-.152 7.349z"/></g></svg>