<svg clip-rule="evenodd" fill-rule="evenodd" stroke-linejoin="round" stroke-miterlimit="2" viewBox="0 0 560 400" xmlns="http://www.w3.org/2000/svg"><g transform="matrix(3.86321 0 0 3.86321 180 63.064)"><path d="m6.701.153c.265 3.088-.055 6.523.147 9.509.619-.001.858-.797 1.316-1.121.443-.402.849-.842 1.317-1.219 1.628-1.591 3.58-2.946 5.803-3.999 2.197-1.041 4.64-1.993 7.413-2.341 6.23-.782 11.79.749 15.947 3.12 4.053 2.313 7.238 5.729 9.704 9.852.585.978 1.152 2.092 1.609 3.268 1.374 3.532 2.018 7.681 1.756 12.68-.31 5.925-2.49 10.533-5.315 14.24-2.847 3.735-6.563 6.623-11.217 8.339-2.472.912-5.167 1.468-8.192 1.609-2.944.138-5.997-.468-8.486-1.268-4.308-1.386-7.546-3.788-10.339-6.73-.388-.409-.73-.934-1.267-1.17-.235.97-.147 2.03-.147 3.072v16.483c0 2.182.108 4.32-.147 6.339-1.925.104-4.432.115-6.485-.048-.183-8.764-.099-17.718-.098-26.724 0-8.597-.001-17.744 0-26.627 0-5.194.049-10.369.049-15.362 0-.657-.144-1.394.194-1.999 2.099.008 4.453-.183 6.438.097zm10.387 9.217c-2.217 1.157-4.385 2.818-5.803 4.682-.268.351-.464.791-.731 1.17-1.818 2.568-3.396 5.642-3.707 9.607-.189 2.424-.242 4.888.244 7.071.457 2.053 1.168 3.892 2.097 5.56.899 1.616 1.845 3.183 3.121 4.486 2.539 2.595 5.557 4.525 9.754 5.511 2.1.493 4.604.696 6.974.293 6.441-1.097 10.934-4.396 13.85-9.022 1.008-1.598 1.726-3.399 2.341-5.315 1.326-4.126.951-9.398-.438-13.069-1.421-3.751-3.416-6.554-6.34-8.924-3.26-2.53-7.309-4.528-13.12-4.342-3.352.209-5.846 1.042-8.242 2.292z"/><path d="m34.303 16.539c-.269.41-.89.202-1.365.195-1.083-.019-2.394.069-3.365.048-.263.974-.146 2.235-.146 3.463 0 1.213-.078 2.484.098 3.512.49.249 1.106.097 1.707.097 1.705.001 3.722.161 5.267-.097.148-.625.124-1.43.146-2.244.022-.793-.162-1.731.195-2.291.467.035.797.504 1.121.828.34.34.62.746.976 1.024 1.298 1.385 2.605 2.76 3.95 4.097.507.826 1.424 1.242 1.805 2.194-.036.537-.547.84-.878 1.171-1.99 1.99-3.928 4.17-5.949 6.192-.31.31-.622.734-1.073.83-.295-.195-.229-.712-.244-1.073-.048-1.203.229-2.746-.098-3.755-2.075-.188-4.801-.233-6.925-.049-.185 2.271-.227 4.985-.049 7.218.652.173 1.571.098 2.438.097.86 0 1.798-.166 2.292.244-.017.501-.494.812-.829 1.122-1.016.944-1.893 2.04-2.926 3.072-.986.986-2.028 1.879-3.023 2.975-.286.315-.711.927-1.073.927-.345 0-.826-.632-1.121-.927-2.016-2.015-3.969-4.115-5.999-6.145-.315-.316-.845-.617-.828-1.171 1.225-.384 3.279.061 4.584-.243.261-1.008.146-2.341.146-3.609 0-1.254.115-2.564-.146-3.56-2.191-.226-4.894-.193-7.071-.049-.238.585-.147 1.438-.147 2.292 0 .795.143 1.699-.195 2.194-.503.011-.787-.513-1.073-.829-.915-1.013-2.031-2-2.926-3.072-.909-1.039-1.861-2.007-2.877-3.121-.246-.27-.871-.766-.878-1.121-.007-.403.586-.816.878-1.122.978-1.025 1.947-1.986 2.877-2.975.934-1.031 1.928-1.976 2.975-2.926.333-.303.589-.802 1.122-.829.391 1.218-.066 3.284.244 4.584 1.001.262 2.289.146 3.511.146 1.247.001 2.49.033 3.56-.097.382-1.422.135-3.271.146-4.926.005-.74.182-1.466-.098-2.097-1.27-.372-3.367.083-4.583-.342.039-.502.504-.846.828-1.171 1.594-1.594 3.246-3.344 4.926-4.925.666-.627 1.304-1.477 2.049-1.951.546-.349 1.974 1.486 2.34 1.854 1.699 1.698 3.241 3.533 4.926 5.218.32.323.796.612.778 1.123z"/></g></svg>