<svg enable-background="new 0 0 76.724 75.567" viewBox="0 0 76.724 75.567" xmlns="http://www.w3.org/2000/svg"><g clip-rule="evenodd" fill-rule="evenodd"><path d="m76.555.242c.198 6.673.215 13.507.049 20.066-4.431.282-9.052.097-13.619.097-13.454 0-27.261-.084-41.343 0-.265 1.111-.139 2.491-.193 3.78-.058 1.346-.019 2.707.146 3.829.881.259 1.829.146 2.762.146 4.754 0 9.532.049 14.347.049 1.908-.001 3.805-.108 5.622.145.193 5.102.145 10.16.146 15.655 0 .72.111 1.475-.146 2.132-14.912.007-29.711.063-44.153-.146-.263-1.828-.145-3.714-.145-5.622.002-12.414-.002-24.913 0-37.514 0-.834-.099-2.493.145-2.762.034-.045.086-.074.144-.097 25.393.133 51.539-.022 76.238.242z"/><path d="m76.555 28.353c.255 3.812.146 7.721.146 11.681.001 11.774.081 23.911-.097 35.478-25.637.102-50.787.079-76.433-.194-.316-5.25-.043-10.621-.097-16.091-.019-1.789-.183-3.559.097-5.283 17.016-.228 35.185.229 51.956-.048.265-.991.146-2.05.146-3.102.001-6.946 0-14.11 0-21.132 0-.449-.121-1.014.194-1.405 7.687-.06 16.372-.058 24.088.096z"/></g></svg>