<svg enable-background="new 0 0 77.77 68.098" viewBox="0 0 77.77 68.098" xmlns="http://www.w3.org/2000/svg"><g clip-rule="evenodd" fill-rule="evenodd"><path d="m77.594.437c.34 1.238.079 2.608.1 3.955.053 3.291 0 6.834 0 10.315 0 .631.115 1.325-.15 1.903-16.573.111-32.2-.201-48.921-.201-3.671 0-6.059.268-8.162 1.753-1.883 1.328-3.403 3.507-3.506 6.459-.081 2.354.79 4.234 1.854 5.608 1.336 1.727 3.135 3.205 6.159 3.205.271-1.188.149-2.509.149-3.806 0-3.763.022-7.941.15-11.667 1.007-.269 2.131-.15 3.255-.15 3.301.001 6.732-.009 9.814.15.229 9.295.05 18.844.05 28.291 0 1.315.123 2.638-.15 3.906-4.706.094-9.346.194-13.62 0-2.414-.11-4.086-.375-6.008-.952-1.771-.531-3.37-1.187-4.957-2.003-4.572-2.347-8.037-5.856-10.465-10.413-1.605-3.014-2.793-6.605-2.954-10.916-.258-6.88 2.023-11.966 4.907-15.923 1.943-2.668 4.498-4.748 7.411-6.51 2.899-1.754 6.449-3.207 10.665-3.404 2.233-.105 4.544.05 6.81.05 15.681-.001 31.826.149 47.569.35z"/><path d="m.131 67.634c-.217-3.816-.1-8.067-.1-12.167 0-1.37-.118-2.717.149-3.956 13.792-.155 28.715.15 42.562.15 1.839 0 3.658-.05 5.458 0 1.83.05 3.611.144 5.157-.15 3.182-.604 5.144-2.026 6.51-4.356.778-1.329.962-2.713.951-4.406-.01-1.676-.508-2.987-1.252-4.156-1.396-2.194-3.512-3.811-6.71-4.006-.04.009-.05.051-.1.05-.344 4.918.041 10.322-.25 15.523-3.189.2-6.613.05-9.864.05-1.105 0-2.204.116-3.205-.15-.197-9.434-.052-19.142-.05-28.241 0-1.312-.152-2.668.2-3.905 3.267-.049 6.92 0 10.465 0 1.752 0 3.499-.073 5.107.1 4.563.491 8.251 2.254 11.316 4.307 2.112 1.414 3.952 3.064 5.408 4.957 2.253 2.912 4.235 6.253 5.107 10.516.927 4.532.608 9.645-.801 13.569-2.784 7.751-8.098 12.473-15.623 15.573-3.785 1.559-9.282 1.102-14.321 1.102-10.494 0-20.376-.199-30.845-.2-5.172-.003-10.309.038-15.269-.204z"/></g></svg>