<svg enable-background="new 0 0 60.021 105.977" viewBox="0 0 60.021 105.977" xmlns="http://www.w3.org/2000/svg"><path clip-rule="evenodd" d="m48.936.055c6.982-.724 12.934 5.789 10.55 13.188-1.419 4.405-4.926 7.236-10.91 7.073-1.367-.037-2.919-.4-3.836.24-2.639 1.842.486 5.536 1.438 6.713 4.241 5.243 7.569 13.748 5.635 23.139-1.782 8.653-7.052 14.203-14.387 17.743-3.027 1.462-9.244 2.563-9.111 6.714.079 2.462 4.411 4.287 6.234 5.754 3.434 2.764 6.186 5.849 5.635 12.469-.427 5.126-3.322 9.162-7.433 11.269-8.622 4.42-17.63-.865-20.021-7.913-3.259-9.605 3.467-15.157 8.991-18.582.997-.618 2.087-1.188 2.278-2.518.532-3.703-3.841-5.113-6.234-5.994-6.955-2.561-13.494-7.688-16.185-14.986-3.61-9.792-.556-20.96 4.316-26.975 5.387-6.65 16.363-11.746 27.934-8.271 1.923.577 7.188 2.704 8.152-.36.367-1.165-.557-2.718-1.079-4.076-.743-1.932-1.523-4.164-.959-6.833.81-3.831 4.188-7.296 8.992-7.794zm-31.889 43.639c-.554 6.025 4.487 10.472 9.95 9.951 7.799-.744 10.79-10.782 5.515-15.945-1.389-1.359-3.904-2.351-5.995-2.397-5.456-.125-9.067 4.006-9.47 8.391z" fill-rule="evenodd"/></svg>