<svg enable-background="new 0 0 79.614 81.688" viewBox="0 0 79.614 81.688" xmlns="http://www.w3.org/2000/svg"><g clip-rule="evenodd" fill-rule="evenodd"><path d="m.438 0c12.659.108 25.924-.052 38.87.151.022.045.044.09.101.101.219 13.648.051 27.352.051 40.733v35.496c0 1.671.122 3.37-.151 5.035-9.725.153-19.741 0-29.353 0-3.265-.001-6.54.109-9.717-.151-.36-.745-.202-1.636-.202-2.416 0-12.463.05-25.118.05-38.165 0-6.829-.191-13.765 0-20.845.152-5.69.049-11.465.049-17.372 0-.815-.088-2.159.151-2.467.037-.046.092-.076.151-.1z"/><path d="m79.536.352c.097 11.317.05 23.156.051 34.842 0 1.624.122 3.256-.151 4.833-12.267.16-26.275.104-39.121-.101-.203-11.289-.101-23.325-.101-34.993 0-.823.014-1.649.051-2.467.035-.772-.144-1.583.151-2.316 12.34-.063 24.256.05 36.805.05.772.001 1.578-.117 2.315.152z"/><path d="m79.487 40.934c.124 13.416.115 27.263-.051 40.632-6.102.188-13.109.136-19.133 0-.295-.785-.12-1.636-.151-2.467-.209-5.582.001-11.921 0-17.924 0-6.932 0-13.912.101-20.291 4.571-.196 10.095-.101 15.104-.101 1.399 0 2.817-.116 4.13.151z"/><path d="m59.296 62.483c.191 5.938.282 13.107 0 19.082-4.606.232-9.61.05-14.35.05-1.61 0-3.192.116-4.682-.151-.184-5.358-.101-11.342-.101-17.068 0-1.034-.226-2.005.554-2.114.665-.094 1.487-.001 2.215 0 5.266.01 11.042.1 16.364.201z"/></g></svg>