<svg enable-background="new 0 0 71.357 71.744" viewBox="0 0 71.357 71.744" xmlns="http://www.w3.org/2000/svg"><path clip-rule="evenodd" d="m71.09.17c.263 1.442.144 2.915.145 4.384.003 20.941.096 42.225.096 62.685 0 1.443.118 2.908-.145 4.336-1.355.259-2.975.145-4.577.145-1.586 0-3.223.079-4.625-.096-.261-1.136-.145-2.458-.145-3.806 0-3.854-.107-7.856-.049-11.708.055-3.597.009-7.227.049-11.13.013-1.242.003-2.513-.193-3.71-.449-.01-.744.408-1.012.675-1.901 1.902-3.841 3.938-5.781 5.878-6.631 6.63-13.218 13.399-19.899 20.043-.895 1.016-1.804 1.735-2.843 2.843-.21.224-.656.86-1.012.867-.396.008-1.454-1.213-1.734-1.493-1.132-1.132-2.051-2.034-3.18-3.228-.3-.316-1.467-1.233-1.494-1.687-.044-.761 1.218-1.15 1.35-1.638.546-.45.954-1.038 1.542-1.446 4.835-5.122 9.933-9.981 14.888-14.984 1.473-1.514 2.987-2.988 4.433-4.529.419-.577 1.078-.914 1.349-1.639-.737-.267-1.543-.136-2.313-.145-11.755-.123-24.466-.075-36.329.048-.262 1.211-.144 2.501-.144 3.758 0 7.727.048 15.521.048 23.271 0 1.235.116 2.514-.144 3.71-1.34.259-2.943.145-4.529.145-1.57 0-3.188.077-4.577-.096-.288-.646-.209-1.379-.193-2.072.119-4.912 0-10.357 0-15.611 0-17.75-.186-36.021.048-53.674 1.357-.257 2.974-.145 4.577-.145 1.57 0 3.189-.078 4.577.097.377 1.17.128 2.451.144 3.71.118 9.019-.12 17.278.145 26.307.492.054.822-.437 1.108-.723.917-.917 1.762-2.003 2.698-2.939 7.506-7.506 15.101-15.101 22.645-22.645 1.257-1.257 2.412-2.605 3.758-3.758.753.355 1.201 1.015 1.734 1.59 1.27 1.166 2.354 2.45 3.662 3.758.335.335 1.105.885 1.108 1.349.003.448-.969 1.211-1.349 1.59-3.369 3.37-6.938 7.118-10.214 10.359-3.463 3.395-6.822 6.894-10.214 10.359-.341.56-1.231.822-1.253 1.542.727.254 1.551.145 2.313.145h26.837c2.274 0 4.698.048 6.986-.048.759-.032 1.924.186 2.217-.096.333-.321.223-2.984.192-3.614-.173-3.667-.048-7.572-.048-11.419 0-3.921 0-7.916 0-11.853 0-1.255-.054-2.497.145-3.613 1.052-.219 2.332-.175 3.516-.194.944-.015 1.931 0 2.891 0 .963 0 1.943-.114 2.795.145z" fill-rule="evenodd"/></svg>