<svg enable-background="new 0 0 86.543 62.162" viewBox="0 0 86.543 62.162" xmlns="http://www.w3.org/2000/svg"><path clip-rule="evenodd" d="m20.265 0c14.322.127 27.937.006 42.053 0 2.306 1.705 3.98 4.043 6.095 5.941 4.492 4.498 9.188 8.883 13.712 13.408 1.133 1.133 2.254 2.203 3.403 3.352.339.34.902.639.914 1.219-4.92.191-10.172.102-15.643.102-3.938.002-7.495.053-11.63.051-1.301 0-2.9-.232-3.911.051-.665.188-1.365 1.111-1.93 1.676-1.304 1.305-2.291 2.291-3.556 3.557-.587.586-1.339 1.049-1.727 1.828.44.719 1.091 1.293 1.676 1.879.584.584 1.193 1.143 1.777 1.727 1.177 1.178 2.307 2.4 3.607 3.453 10.71.086 21.04-.17 31.437.102-.222.707-.889 1.142-1.371 1.625-3.43 3.43-6.968 6.764-10.462 10.26-1.92 1.922-3.798 3.877-5.942 5.943-1.45 1.395-2.834 2.984-4.368 4.52-.459.459-1.126 1.248-1.574 1.371-.686.189-1.734.051-2.642.051-13.462-.002-26.536.145-39.665-.102.022-.623.671-.977 1.067-1.371.869-.869 1.549-1.621 2.539-2.539.361-.336 1.111-.941 1.117-1.422.007-.572-1.073-1.43-1.422-1.779-1.607-1.605-3.242-3.129-4.774-4.723-4.229-4.236-8.474-8.455-12.799-12.596-1.12-.996-2.066-2.166-3.2-3.148-.403-.465-.979-.99-1.574-1.574-.337-.335-1.462-1.108-1.472-1.678-.007-.389.826-1.217 1.219-1.574 3.353-3.053 6.49-6.439 9.701-9.65 3.798-3.799 7.568-7.393 11.071-11.021 1.067-1.031 2.252-1.945 3.048-3.25-.858-1.559-2.395-2.832-3.759-4.164-.349-.342-1.297-1.002-1.168-1.422.037-.05.093-.08.153-.103zm2.743 1.27c.135 1.41 2.248 1.365 3.707 1.117-.11-1.414-2.334-1.469-3.707-1.117zm5.23-.102c-.105.029-.164.105-.254.152.141 1.449 2.549 1.391 3.962 1.066-.242-1.4-2.028-1.257-3.708-1.218zm4.978.051c-.123.65.541.945.914 1.269.909.008 2.307.334 2.945-.152-.128-1.297-2.322-1.229-3.859-1.117zm5.078.101c.099 1.51 2.529 1.443 3.962 1.117-.24-1.499-2.382-1.351-3.962-1.117zm5.13.051c.286 1.195 1.696 1.24 3.2 1.168.333-.016.697.135.812-.203-.08-1.281-2.666-1.441-4.012-.965zm5.282-.101c-.051 0-.061.041-.101.051.191.414.542 1.037 1.066 1.219.853.297 2.082-.045 2.946-.102-.109-1.52-2.395-1.393-3.911-1.168zm8.075-.051c-.574-.199-2.579-.055-2.945.101.132.646.625.932 1.117 1.219.899-.117 2.275.244 2.844-.203-.163-.311-.461-.926-1.016-1.117zm2.235.051c.007.557.582.973 1.067 1.219.836.037 2.219.189 2.895-.102-.163-1.469-2.452-1.334-3.962-1.117zm-30.625 2.539c-.889.023-2.368-.297-2.894.152.034.457.592.828 1.016 1.066.742.096 2.219.281 2.793-.102.026-.499-.584-.804-.915-1.116zm5.028-.051c-.9.082-2.139-.176-2.794.152.15 1.432 2.495 1.4 3.911 1.066-.094-.685-.641-.915-1.117-1.218zm3.911.051c-.54.025-1.152-.141-1.524.152.024.539.712 1.104 1.422 1.168.791.072 2.087.17 2.489-.203-.3-.922-1.177-1.174-2.387-1.117zm3.555.101c.186 1.508 2.41 1.291 3.911 1.066-.149-1.429-2.519-1.38-3.911-1.066zm5.179 0c.149 1.455 2.535 1.385 3.962 1.066-.143-1.447-2.547-1.39-3.962-1.066zm8.229-.051c-.879-.139-2.292-.193-3.048.102.183 1.393 2.699 1.297 3.962.965-.108-.553-.577-.744-.914-1.067zm3.098-.05c-.343.018-.796-.131-.914.203.162 1.225 2.548 1.338 3.911.914-.179-1.199-1.57-1.194-2.997-1.117zm4.266.101c.056.611.779 1.162 1.625 1.219.744.051 1.84.129 2.234-.254-.161-1.361-2.525-1.275-3.859-.965zm-33.571 2.59c.199 1.361 2.43 1.32 3.81 1.016.026-1.336-2.516-1.493-3.81-1.016zm7.923-.152c-.954.156-2.264-.328-2.793.203.255 1.328 2.434 1.246 3.91 1.016-.059-.721-.643-.915-1.117-1.219zm8.583 0c-.398.02-.915-.143-1.066.203.138 1.262 2.491 1.301 3.86.914-.253-1.123-1.382-1.184-2.794-1.117zm4.063.101c.221 1.457 2.452 1.287 3.911 1.066-.11-1.464-2.523-1.38-3.911-1.066zm5.181 0c.095.617.556.867 1.016 1.117.031.004.061.008.051.051.899-.115 2.275.244 2.844-.203-.112-1.224-2.516-1.353-3.911-.965zm5.23 0c.077 1.477 2.531 1.289 3.86 1.016-.112-1.432-2.514-1.317-3.86-1.016zm5.333-.152c-.104.016-.1.137-.203.152.157.387.464.941.965 1.117.332.117.612 0 1.017 0 .645 0 1.458.209 1.827-.152-.303-1.269-1.983-1.164-3.606-1.117zm-26.002.152c-.04 1.412 2.521 1.418 3.91 1.066-.142-1.454-2.451-1.265-3.91-1.066zm-12.291.305c-.447-.068-1.398 1.186-1.371 1.523.033.441 1.044 1.394 1.473 1.371.625-.033 1.242-1.074 1.473-1.473-.394-.452-.861-1.312-1.575-1.421zm33.214 2.133c-.901.043-2.388-.379-2.894.203.203.51.613.809 1.066 1.066.934-.082 2.208.178 2.896-.152-.154-.574-.593-.863-1.068-1.117zm5.232 0c-.616-.24-2.378-.137-2.945.102.187 1.389 2.559 1.346 3.962 1.016-.153-.439-.489-.911-1.017-1.118zm5.028-.051c-.858-.002-2.347-.266-2.895.203.222 1.342 2.574 1.289 3.961.965-.089-.654-.647-.842-1.066-1.168zm-36.059.051c-.951.006-2.047-.158-2.845.152.152.379.687 1.049 1.22 1.117.753.098 2.05.078 2.59-.203-.025-.449-.584-.805-.965-1.066zm9.141 0c-.593.01-1.279-.137-1.727.152.18 1.369 2.649 1.391 3.961.965-.218-.971-1.166-1.133-2.234-1.117zm3.454.051c.1 1.479 2.501 1.398 3.859 1.117-.095-1.506-2.39-1.317-3.859-1.117zm5.18 0c-.062.566.586.828.914 1.168.812.055 2.565.367 2.997-.203-.284-1.284-2.456-1.184-3.911-.965zm-15.49.05c.06.619.578.777.915 1.117.906.008 2.232.293 2.996-.051-.133-1.464-2.456-1.259-3.911-1.066zm-10.767 1.778c-.006-.486-.801-1.336-1.32-1.473-.423-.111-1.48 1.25-1.473 1.473.019.605 1.168 1.236 1.523 1.473.527-.374 1.277-.811 1.27-1.473zm3.707-1.473c-.387.234-1.492 1.037-1.473 1.523.016.416 1.108 1.443 1.523 1.422.645-.031 1.123-1.125 1.473-1.422-.314-.701-.847-1.183-1.523-1.523zm19.96 2.236c.12 1.441 2.471 1.394 3.86 1.066-.088-1.47-2.495-1.374-3.86-1.066zm8.075-.05c-.866.008-2.315-.363-2.894.15.082 1.26 2.538 1.328 3.91.967-.145-.569-.533-.889-1.016-1.117zm2.235 0c-.021 1.424 2.617 1.428 3.962 1.014-.233-1.368-2.485-1.229-3.962-1.014zm5.18 0c.093 1.428 2.519 1.443 3.809 1.014-.206-1.341-2.376-1.237-3.809-1.014zm5.079.05c.098.613.61.811 1.016 1.117.964-.103 2.289.328 2.895-.203-.197-1.33-2.584-1.216-3.911-.914zm-35.704-.103c-.105.031-.164.107-.254.152.114 1.414 2.471 1.326 3.809 1.018-.24-1.336-1.947-1.201-3.555-1.17zm7.771.103c-.666-.258-2.311-.154-2.945.1.268 1.412 2.434 1.231 3.91 1.018-.098-.461-.446-.918-.965-1.118zm2.234.049c.116.453.679 1.088 1.22 1.17.786.119 2.188.053 2.742-.205-.221-1.34-2.575-1.289-3.962-.965zm-22.397 3.201c.427-.01 1.481-1.094 1.473-1.473-.009-.418-1.155-1.479-1.524-1.473-.608.006-1.221 1.049-1.473 1.473.384.38.861 1.487 1.524 1.473zm8.684-1.422c.008.43 1.108 1.477 1.524 1.473.397-.004 1.505-1.117 1.473-1.523-.037-.465-1.236-1.441-1.626-1.373-.402.072-1.376 1.103-1.371 1.423zm-3.605 1.422c.548-.041 1.183-1.039 1.371-1.422-.18-.488-.929-1.469-1.523-1.424-.609.047-1.038.926-1.371 1.424.398.51.812 1.475 1.523 1.422zm42.306-.914c-.633.002-1.414-.01-1.931.203.139.605.653.836 1.066 1.168.838-.002 2.305.258 2.896-.152-.111-.771-.968-1.225-2.031-1.219zm6.146.102c-.314-.106-.65-.041-1.066-.051-.628-.016-1.492-.242-1.829.203.234 1.375 2.583 1.269 3.962 1.016-.077-.529-.5-.981-1.067-1.168zm-30.88 0c-.947.021-2.284-.309-2.844.254.23 1.328 2.574 1.295 3.961.965-.096-.682-.69-.868-1.117-1.219zm10.26.051c-.031-.004-.061-.008-.051-.051-.874.033-2.041-.17-2.692.152.006.519.619.869 1.017 1.168.961.01 2.001.113 2.844-.102-.118-.644-.609-.915-1.118-1.167zm2.539-.051c-.074.043-.161.074-.152.203.081.426.647.809 1.016 1.117.92.012 2.047.09 2.896-.102-.196-1.433-2.141-1.38-3.76-1.218zm7.923 0c-.803.018-2.619-.295-2.945.203.126 1.244 2.595 1.344 4.012.965-.133-.613-.663-.828-1.067-1.168zm-28.543.101c-.062.006-.12.014-.102.102.008.533.641.883 1.066 1.168.991-.098 2.104.24 2.794-.152-.234-1.329-2.25-1.403-3.758-1.118zm13.002-.05c-.785-.084-1.906-.084-2.691 0-.073.012-.086.082-.152.102.098.629.604.851 1.016 1.168.972-.129 2.296.252 2.895-.152-.038-.491-.636-.857-1.068-1.118zm-31.895 1.828c.019.352.485.629.66.813.225.236.487.664.863.66.426-.004 1.483-1.074 1.473-1.473-.015-.506-1.227-1.451-1.677-1.473-.346.496-1.357.738-1.319 1.473zm5.181.051c.006.404 1.105 1.424 1.473 1.422.467-.002 1.337-1.041 1.32-1.473-.022-.535-1.086-1.435-1.422-1.371-.372.07-1.379 1.011-1.371 1.422zm10.208.05c.022.402 1.062 1.436 1.473 1.422.314-.012.616-.481.812-.66.235-.215.692-.457.66-.863-.03-.387-1.144-1.289-1.524-1.422-.481.474-1.463.777-1.421 1.523zm-3.657 1.422c.408-.035 1.399-1.129 1.371-1.524-.031-.449-1.101-1.398-1.523-1.371-.572.037-1.158 1.027-1.422 1.422.333.383.896 1.53 1.574 1.473zm27.172-.812c-.677.061-1.72-.199-2.082.203.157.889 1.121 1.066 2.285 1.016.55-.025 1.166.117 1.523-.152-.186-.665-.93-1.14-1.726-1.067zm3.046.101c.174 1.465 2.485 1.254 3.86.965-.185-1.402-2.492-1.215-3.86-.965zm5.333-.101c-.104.014-.135.102-.203.152.163 1.256 2.552 1.361 3.809.914-.239-1.287-2.115-1.199-3.606-1.066zm7.822 0c-.863-.018-2.32-.234-2.945.152.302 1.33 2.521 1.18 3.859.914-.097-.564-.578-.742-.914-1.066zm2.235.101c.103.574.589.764.965 1.066.896.01 2.287.229 2.945-.152-.217-1.308-2.578-1.222-3.91-.914zm-33.216-.051c-.781-.096-2.23-.209-2.742.203.12.488.545.674.863.965.887.043 2.179.311 2.895-.102.014-.278-.604-1.015-1.016-1.066zm5.232 0c-.825.006-2.39-.291-2.896.203.121.506.57.684.915.965.944.061 2.189.209 2.996-.102-.135-.558-.56-.827-1.015-1.066zm2.336.102c.06.584.542.744.863 1.066.861.135 2.265.201 2.996-.102-.144-1.401-2.488-1.124-3.859-.964zm-34.283 1.676c.024.27.441.594.66.812.256.256.508.584.863.609.426-.207 1.496-.934 1.473-1.473-.017-.408-1.118-1.254-1.524-1.422-.03.002-.059.008-.051.051-.508.339-1.478.776-1.421 1.423zm5.181.101c.022.346 1.191 1.422 1.473 1.422.259 0 .751-.506.863-.609.224-.207.629-.559.609-.914-.024-.441-1.192-1.422-1.624-1.32-.435.101-1.338 1.142-1.321 1.421zm5.079-.101c.131.523.911 1.551 1.473 1.523.346-.018.58-.428.812-.66.265-.264.65-.459.609-.863-.373-.559-.872-1.26-1.574-1.32-.598.281-1.083.675-1.32 1.32zm10.259.101c.014.396 1.182 1.475 1.523 1.473.305 0 .65-.498.812-.66.229-.229.664-.478.66-.863-.002-.314-.398-.572-.66-.812-.383-.354-.535-.678-1.016-.559-.449.111-1.329 1.136-1.319 1.421zm-3.758-1.421c-.427.035-1.382 1.004-1.372 1.422.007.295.473.625.66.812.195.195.436.643.864.609.559-.041 1.167-1.135 1.422-1.473-.368-.378-.881-1.429-1.574-1.37zm45.76 2.132c.097.564.579.742.914 1.066.873.025 2.288.203 2.996-.102-.216-1.427-2.535-1.395-3.91-.964zm-30.879-.051c.137 1.562 2.591 1.385 3.961 1.117-.215-1.458-2.443-1.429-3.961-1.117zm5.79-.101c-.235.027-.518-.061-.661.152.173.531.782 1.172 1.474 1.219.736.051 2.029.119 2.488-.254-.152-1.117-1.793-1.287-3.301-1.117zm6.856-.051c-.72-.004-1.758-.006-2.336.203.197 1.365 2.514 1.351 3.911 1.016-.121-.617-.805-1.215-1.575-1.219zm5.79.102c-.442-.185-1.4-.035-2.133-.051-.386-.008-.71-.137-.812.203.231.988 1.127 1.092 2.285 1.066.6-.014 1.254.133 1.626-.152-.19-.351-.45-.85-.966-1.066zm4.723-.102c-.854-.109-2.071.045-2.641.203.046.447.627 1.055 1.117 1.117.8.103 2.185.037 2.844-.152-.158-.424-.788-1.1-1.32-1.168zm2.59.051c-.144 1.516 2.497 1.441 3.86 1.117-.248-1.381-2.282-1.234-3.86-1.117zm-30.879.152c.25 1.422 2.483 1.408 3.859 1.016-.178-1.361-2.478-1.356-3.859-1.016zm-29.101 1.727c.012.414 1.137 1.49 1.574 1.473.394-.016 1.426-1.045 1.422-1.473-.002-.471-1.18-1.539-1.676-1.422-.35.082-1.33 1.057-1.32 1.422zm5.231 0c-.006.404 1.117 1.484 1.522 1.473.338-.01 1.449-1.053 1.423-1.473-.011-.158-.506-.658-.66-.812-.3-.299-.585-.637-.965-.559-.352.072-1.315 1.037-1.32 1.371zm6.349-1.321c-.336.473-1.22.701-1.219 1.371 0 .355.441.711.608.863s.643.617.915.609c.438-.012 1.265-.961 1.27-1.422.005-.512-.971-1.641-1.473-1.473-.04.013-.1.004-.101.052zm5.332 2.844c.409-.02 1.493-1.172 1.473-1.524-.025-.457-1.363-1.598-1.777-1.269-.466.369-.961.859-1.219 1.371.337.411.857 1.455 1.523 1.422zm4.977-2.894c-.464.045-1.137 1.008-1.371 1.422.356.66.845 1.188 1.574 1.473.65-.297 1.128-.768 1.422-1.422-.412-.501-.929-1.54-1.625-1.473zm3.86 1.472c0 .443.953 1.422 1.473 1.422.501 0 1.496-1.008 1.474-1.473-.021-.426-1.247-1.496-1.625-1.371-.411.288-1.322.967-1.322 1.422zm31.59.661c.02 1.354 2.57 1.367 3.961 1.016-.246-1.452-2.475-1.214-3.961-1.016zm5.232 0c.139 1.412 2.5 1.322 3.859 1.016-.138-1.407-2.502-1.329-3.859-1.016zm5.129 0c.15.578.559.898 1.066 1.117.816.035 2.19.195 2.845-.101-.194-1.499-2.44-1.177-3.911-1.016zm-33.215-.051c-.926.1-2.107-.289-2.743.152.226 1.283 2.453 1.315 3.81.965-.104-.623-.608-.848-1.067-1.117zm2.641-.051c-.105.029-.164.107-.254.152.177 1.385 2.521 1.344 3.91 1.016-.25-1.358-2.008-1.209-3.656-1.168zm4.926.102c.009 1.369 2.498 1.434 3.91 1.066-.193-1.402-2.43-1.285-3.91-1.066zm5.181 0c-.051.58.598.889 1.015 1.168.884-.115 2.241.244 2.794-.203-.11-1.217-2.388-1.227-3.809-.965zm5.281-.102c-.104.016-.1.139-.203.152.216.529.684.807 1.117 1.117.868-.08 2.069.174 2.692-.152-.248-1.324-2.007-1.14-3.606-1.117zm-52.057 1.828c-.013-.377-1.35-1.699-1.828-1.32-.383.305-1.172.812-1.168 1.32.004.709 1.028 1.094 1.473 1.524.435-.282 1.543-.911 1.523-1.524zm2.183.102c.014.43 1.121 1.422 1.473 1.422.468 0 1.534-1.051 1.523-1.473-.006-.254-.427-.578-.66-.812-.376-.377-.558-.67-1.016-.559-.43.105-1.33 1.109-1.32 1.422zm6.552-1.422c-.38.033-1.364 1.066-1.371 1.371-.011.44 1.118 1.529 1.523 1.523.675-.006 1.196-1.08 1.474-1.473-.389-.384-.92-1.482-1.626-1.421zm5.13 2.945c.356-.008.663-.51.812-.66.201-.201.672-.535.66-.863-.012-.342-1.178-1.617-1.574-1.422-.538.264-1.059.826-1.32 1.422.125.507.879 1.537 1.422 1.523zm4.824-2.844c-.365.424-1.172.734-1.168 1.32.004.598 1.113 1.289 1.524 1.473.453-.217 1.494-.873 1.473-1.473-.016-.418-1.246-1.565-1.727-1.371-.039.012-.1.002-.102.051zm10.565-.101c-.529.064-1.151 1.082-1.422 1.523.422.611.897 1.168 1.625 1.475.616-.385 1.175-.824 1.473-1.525-.417-.491-.973-1.557-1.676-1.473zm-5.029 2.894c.49-.002 1.441-.988 1.422-1.422-.018-.434-1.029-1.358-1.523-1.422-.446-.057-1.227 1.121-1.422 1.422.401.426.752 1.428 1.523 1.422zm8.99-.863c-.257.004-.616.021-.863.101-.52.17-1.841 1.434-1.829 1.93.01.398 1.092 1.494 1.524 1.475.559-.025 1.34-1.189 1.727-1.576.613-.611 1.241-.976 1.523-1.777-.619-.21-1.404-.163-2.082-.153zm4.317.102c-.907.566-1.568 1.42-2.336 2.133-.763.709-1.596 1.414-2.134 2.338.371.594.799 1.131 1.524 1.371.948-.459 1.575-1.322 2.285-2.031.72-.721 1.51-1.369 2.184-2.133.395-.572 1.092-.84 1.321-1.576-.613-.341-1.959-.11-2.844-.102zm-40.122 1.777c-.003-.461-1.1-1.494-1.523-1.473-.592.033-1.271 1.086-1.524 1.523.404.596.872 1.127 1.524 1.473.406-.308 1.526-.894 1.523-1.523zm2.234 0c.011.469 1.045 1.48 1.473 1.475.463-.008 1.426-1.062 1.422-1.475-.005-.5-1.183-1.494-1.625-1.371-.364.289-1.282.847-1.27 1.371zm5.13.051c.013.41 1.188 1.479 1.522 1.473.459-.004 1.494-1.039 1.474-1.473-.019-.379-1.081-1.443-1.574-1.473-.06-.002-.077.045-.102.051-.52.125-1.332 1.078-1.32 1.422zm11.579-1.422c-.354-.045-1.424 1.207-1.422 1.473.003.324.393.643.609.863.228.234.554.623.914.611.67-.023 1.254-1.113 1.524-1.525-.379-.457-.894-1.326-1.625-1.422zm5.282 0c-.427.188-1.486.998-1.473 1.473.012.416 1.098 1.414 1.473 1.422.689.018 1.261-1.053 1.523-1.473-.397-.584-.895-1.067-1.523-1.422zm-10.208 2.894c.554 0 1.34-1.074 1.32-1.473-.021-.439-.885-1.346-1.269-1.371-.637-.039-1.252.99-1.524 1.422.412.436.784 1.424 1.473 1.422zm15.44.104c.475-.014 1.461-1.096 1.422-1.525-.034-.383-1.175-1.422-1.524-1.422-.588.002-1.122 1.002-1.473 1.371.271.429.965 1.591 1.575 1.576zm-35.044.965c.013.406 1.1 1.435 1.523 1.422.409-.014 1.448-.996 1.423-1.473-.023-.42-1.156-1.478-1.626-1.371-.345.076-1.333 1.053-1.32 1.422zm6.602-1.473c-.44.047-1.428 1.164-1.422 1.473.008.438 1.086 1.418 1.473 1.422.688.004 1.304-1.092 1.523-1.523-.371-.364-.872-1.448-1.574-1.372zm3.758 1.473c.016.406 1.098 1.434 1.523 1.422.463-.014 1.483-1 1.473-1.422-.01-.445-1.293-1.516-1.727-1.373-.441.443-1.295.701-1.269 1.373zm5.181.05c.01.408 1.128 1.424 1.473 1.422.431-.002 1.526-1.121 1.524-1.473-.004-.416-1.26-1.441-1.626-1.373-.468.091-1.379 1.106-1.371 1.424zm5.079 0c.035.483 1.071 1.449 1.523 1.422.416-.027 1.375-1.059 1.371-1.422-.005-.447-1.182-1.508-1.625-1.424-.46.391-1.326.651-1.269 1.424zm5.129.051c.01.443 1.094 1.43 1.474 1.422.243-.006.708-.469.863-.609.205-.188.609-.564.609-.863-.001-.318-.405-.559-.66-.812-.37-.367-.466-.682-.965-.559-.419.101-1.328 1.089-1.321 1.421zm6.602-1.474c-.48.027-1.45.988-1.422 1.475.036.602 1.156 1.262 1.575 1.473.566-.398 1.109-.82 1.473-1.422-.269-.462-.942-1.563-1.626-1.526zm5.181.052c-.461.018-1.479 1.078-1.473 1.422.005.307.443.609.66.812.269.248.537.621.914.609.669-.022 1.162-1.047 1.473-1.422-.309-.423-.907-1.448-1.574-1.421zm-38.6 5.332c.406-.01 1.477-1.154 1.474-1.524-.005-.43-1.001-1.402-1.575-1.422-.477-.018-1.272 1.127-1.422 1.523.372.347.883 1.437 1.523 1.423zm3.708-1.472c.021.383 1.073 1.436 1.474 1.422.254-.008.746-.5.863-.609.213-.199.584-.555.559-.914-.029-.426-1.102-1.254-1.524-1.371-.482.442-1.409.761-1.372 1.472zm5.08 0c.012.422 1.143 1.49 1.574 1.473.375-.016 1.483-1.164 1.473-1.524-.012-.449-1.181-1.48-1.676-1.371-.377.082-1.383 1.017-1.371 1.422zm6.653-1.473c-.382.303-1.433 1.031-1.422 1.473.013.549 1.131 1.312 1.573 1.422.63-.336 1.164-.766 1.423-1.473-.394-.605-.854-1.145-1.574-1.422zm5.181 0c-.346-.051-1.474 1.164-1.473 1.473 0 .324.434.649.66.863.161.152.525.672.914.66.65-.021 1.013-1 1.32-1.524-.351-.595-.722-1.37-1.421-1.472zm11.782 1.574c.009-.441-1.12-1.547-1.574-1.524-.471.024-1.493 1.27-1.473 1.524.025.318.499.58.711.812.307.334.432.641.914.66.348-.364 1.411-.892 1.422-1.472zm3.657-1.523c-.357-.053-1.479 1.268-1.474 1.524.011.42 1.172 1.48 1.525 1.473.297-.008.692-.5.863-.66.273-.256.608-.498.66-.863-.355-.486-.86-1.371-1.574-1.474zm-11.834 1.473c0 .404 1.139 1.432 1.523 1.422.463-.014 1.445-1.025 1.422-1.473-.022-.435-1.193-1.422-1.625-1.32-.386.089-1.32 1.091-1.32 1.371zm18.487 0c-.015-.422-1.01-1.342-1.524-1.422-.47-.074-1.312 1.109-1.473 1.473.416.582.843 1.154 1.575 1.422.421-.411 1.446-.78 1.422-1.473zm-40.123 3.91c.401-.014 1.482-1.111 1.474-1.473-.012-.461-1.272-1.605-1.728-1.32-.493.309-1.036.793-1.269 1.371.331.414.864 1.445 1.523 1.422zm3.658-1.473c.01.359 1.18 1.486 1.574 1.473.379-.012 1.447-1.076 1.422-1.473-.029-.463-1.309-1.441-1.676-1.371-.38.072-1.331 1.006-1.32 1.371zm5.179.051c-.008.564 1.1 1.295 1.523 1.422.377-.039.522-.396.812-.66.259-.234.674-.416.66-.812-.012-.383-1.17-1.506-1.625-1.371-.397.417-1.361.815-1.37 1.421zm5.13 0c.003.426 1.173 1.5 1.626 1.473.363-.021 1.434-1.041 1.422-1.473-.014-.439-1.219-1.488-1.626-1.422-.36.059-1.424 1.135-1.422 1.422zm5.13 0c-.035.551 1.041 1.504 1.523 1.473.381-.023 1.438-1.059 1.422-1.473-.007-.184-.409-.57-.66-.812-.352-.338-.586-.641-.965-.559-.333.072-1.299 1.021-1.32 1.371zm5.129.051c.014.424 1.138 1.475 1.524 1.473.447-.002 1.507-1.125 1.473-1.523s-1.108-1.227-1.523-1.422c-.031.002-.061.008-.051.051-.443.163-1.437.966-1.423 1.421zm13.357-.102c-.024-.314-.48-.582-.66-.762-.187-.188-.517-.621-.863-.609-.48.018-1.483 1.188-1.473 1.523.011.355.431.551.66.762.301.277.376.596.863.609.4-.265 1.523-.902 1.473-1.523zm-6.755-1.32c-.438.035-1.422 1.148-1.422 1.473 0 .67 1.165 1.227 1.523 1.523.646-.389 1.202-.863 1.524-1.574-.387-.387-.916-1.479-1.625-1.422zm15.643 4.875c-1.224-1.225-2.391-2.387-3.656-3.605-.451-.434-1.129-1.226-1.625-1.27-.523-.045-1.083 1.053-1.423 1.371.521.945 1.396 1.6 2.134 2.336.74.74 1.437 1.557 2.336 2.133.872-.092 2.121.191 2.742-.152.06-.348-.294-.598-.508-.813zm-45.404-.914c.032.381 1.153 1.422 1.524 1.422.396 0 1.537-1.08 1.523-1.523-.015-.422-1.204-1.488-1.626-1.422-.399.062-1.452 1.159-1.421 1.523zm13.357 0c-.003-.676-1.042-1.147-1.524-1.574-.68.336-1.2.832-1.523 1.523.364.668.903 1.162 1.573 1.523.504-.377 1.477-.81 1.474-1.472zm-8.126-.051c.023.422 1.133 1.445 1.523 1.422.4-.023 1.446-1.1 1.422-1.473-.025-.393-1.255-1.438-1.625-1.371-.521.092-1.338 1.08-1.32 1.422zm10.31.101c.017.441 1.13 1.439 1.524 1.422.5-.021 1.324-1.047 1.32-1.473-.006-.586-1-1.523-1.473-1.422-.326.071-1.388 1.057-1.371 1.473zm5.028 0c.029.371 1.236 1.486 1.574 1.473.344-.012.652-.508.812-.66.24-.227.678-.459.66-.863-.008-.217-.436-.639-.66-.863-.359-.359-.638-.668-1.066-.559-.465.119-1.344 1.164-1.32 1.472zm18.843-.05c-.415-.445-1.271-1.428-1.88-1.473-.404.473-1.44.859-1.422 1.523.009.314.554.779.812 1.016.363.33.711.623 1.067.812 1.037-.055 2.015.129 2.895-.102-.17-.739-.903-1.163-1.472-1.776zm-12.139-1.422c-.444-.059-1.532 1.154-1.523 1.473.009.314.444.605.66.812.308.297.461.6.914.609.607-.324 1.109-.752 1.473-1.32-.205-.488-.946-1.498-1.524-1.574zm3.656 1.472c.003.445 1.052 1.488 1.474 1.473.414-.014 1.533-1.076 1.523-1.523-.01-.465-1.09-1.445-1.575-1.422-.054.002-.08.047-.101.051-.456.099-1.323 1.011-1.321 1.421zm-25.342 2.387c-.008-.451-1.071-1.324-1.574-1.422-.41.441-1.391.824-1.371 1.473.017.592 1.092 1.242 1.473 1.473.465-.407 1.482-.868 1.472-1.524zm2.183 0c.008.293.435.656.66.863.18.166.608.611.914.609.381 0 1.435-.967 1.422-1.422-.011-.453-1.242-1.453-1.574-1.422-.456.046-1.432 1.032-1.422 1.372zm5.181.153c.024.369 1.202 1.426 1.523 1.422.477-.004 1.496-1.086 1.474-1.523-.025-.465-1.219-1.434-1.676-1.32-.431.106-1.34 1.13-1.321 1.421zm5.13 0c.022.439 1.014 1.443 1.473 1.422.328-.014.627-.488.812-.66.199-.184.662-.424.66-.812-.003-.467-1.25-1.494-1.676-1.371-.497.424-1.307.694-1.269 1.421zm5.129-.051c.009.346.466.619.66.812.188.189.509.66.864.66.441 0 1.483-1.092 1.473-1.473-.012-.396-1.19-1.541-1.677-1.371-.371.432-1.336.704-1.32 1.372zm10.31.101c.017.273.392.559.609.762.254.238.496.572.863.559.668-.312 1.176-.787 1.473-1.473-.298-.633-.84-1.293-1.574-1.32-.469.377-1.412.826-1.371 1.472zm-3.962-1.371c-.372.476-1.188.637-1.168 1.32.012.389 1.039 1.426 1.473 1.422.43-.002 1.488-1.027 1.474-1.473-.014-.406-1.204-1.49-1.677-1.32-.039.012-.1.002-.102.051zm38.244 2.946c.616.387 2.04.168 2.895.154.29-.375.952-.635.914-1.17-1.415-.32-3.746-.311-3.809 1.016zm8.126-1.118c-1.529-.078-2.778-.012-3.048 1.117.626.387 2.082.17 2.946.154.401-.311.873-.549 1.016-1.117-.204-.242-.571-.136-.914-.154zm-37.329.051c-.976.082-1.631.469-1.728 1.221 1.449.34 3.764.338 3.962-1.068-.492-.35-1.497-.213-2.234-.153zm3.403 1.168c.705.303 2.128.131 2.996.104.365-.33.845-.545.966-1.119-1.305-.487-3.886-.282-3.962 1.015zm5.18 0c.647.201 1.922.242 2.691.154.62-.072 1.184-.83 1.219-1.219-1.431-.355-3.718-.32-3.91 1.065zm7.872-1.219c-1.485.002-2.447.121-2.691 1.168 1.336.475 3.888.314 3.91-1.014-.251-.255-.765-.154-1.219-.154zm2.539 1.118c.552.273 1.835.301 2.591.205.554-.072 1.058-.799 1.168-1.168-1.336-.385-3.701-.264-3.759.963zm7.669-1.118c-1.431.002-2.585.115-2.641 1.168 1.402.326 3.818.33 3.86-1.014-.251-.255-.752-.154-1.219-.154zm-58.863.559c-.424.443-1.25.713-1.219 1.373.019.4 1.14 1.496 1.574 1.473.329-.018.629-.486.812-.66.197-.188.666-.449.66-.812-.006-.41-1.248-1.598-1.727-1.424-.037.013-.098.001-.1.05zm5.435-.051c-.317-.039-1.423 1.18-1.423 1.424.002.4 1.174 1.486 1.575 1.473.261-.01.676-.432.812-.559.233-.219.561-.508.559-.863-.268-.448-.947-1.401-1.523-1.475zm13.966 1.475c-.006.422 1.137 1.477 1.523 1.473.303-.004.719-.465.863-.609.205-.207.609-.52.609-.863 0-.477-1.234-1.488-1.574-1.424-.451.237-1.415 1.011-1.421 1.423zm-8.735 1.472c.548.002 1.368-1.008 1.371-1.424.003-.539-.923-1.527-1.473-1.473-.543.055-1.145.996-1.423 1.473.343.387.888 1.421 1.525 1.424zm4.977-2.896c-.434.035-1.432 1.15-1.422 1.473.017.602 1.152 1.188 1.473 1.475.738-.295 1.232-.834 1.574-1.523-.401-.396-.909-1.482-1.625-1.425zm10.412 2.846c.479-.018 1.43-1.002 1.422-1.422-.006-.301-.395-.598-.609-.814-.267-.266-.466-.541-.863-.559-.688.277-1.113.818-1.423 1.475.434.374.72 1.345 1.473 1.32zm27.577.304c.591.322 1.755.072 2.591.152.614-.217 1.145-.516 1.32-1.168-1.434-.372-3.702-.349-3.911 1.016zm-20.518 0c.201.287.708.203 1.168.203 1.466 0 2.414-.143 2.691-1.117-1.187-.552-3.848-.361-3.859.914zm15.541 0c.631.193 1.874.25 2.641.152.586-.076 1.093-.68 1.168-1.117-1.193-.349-3.767-.316-3.809.965zm10.208-.05c1.277.381 3.741.457 3.81-1.016-1.4-.19-3.665-.389-3.81 1.016zm7.872-1.067c-.521-.025-1.152-.141-1.625-.051-.6.111-1.024.662-1.168 1.117 1.252.404 3.703.434 3.859-.914-.261-.246-.664-.134-1.066-.152zm-37.836.102c-.379.279-.852.469-.914 1.067 1.346.322 3.673.373 3.86-.965-.676-.411-2.076-.137-2.946-.102zm9.344 1.015c1.377.477 3.806.322 3.911-.965-1.347-.308-3.739-.406-3.911.965zm6.4-1.117c-.622.086-1.124.619-1.219 1.117 1.305.373 3.692.432 3.859-.965-.615-.185-1.869-.261-2.64-.152zm-41.748 3.402c.468-.008 1.545-1.166 1.523-1.574-.021-.428-.982-1.277-1.422-1.422-.482-.16-1.527 1.244-1.625 1.523.352.401.868 1.483 1.524 1.473zm3.708-1.472c.013.443 1.165 1.477 1.524 1.473.448-.006 1.434-1.041 1.422-1.473-.016-.506-1.168-1.51-1.676-1.371-.369.099-1.279 1.041-1.27 1.371zm5.079 0c-.023.539 1.006 1.531 1.473 1.523.428-.008 1.473-1.094 1.473-1.473 0-.471-1.172-1.547-1.676-1.422-.387.094-1.257 1.036-1.27 1.372zm5.129.051c.014.418 1.15 1.482 1.524 1.473.391-.012 1.473-1.127 1.473-1.523 0-.562-1.151-1.482-1.625-1.371-.378.087-1.385 1.012-1.372 1.421zm8.177-.153c-.021-.394-1.064-1.275-1.423-1.32-.509-.065-1.588 1.172-1.574 1.473.026.586 1.119 1.205 1.524 1.422.328-.356 1.506-.96 1.473-1.575zm21.077 1.879c1.364.275 3.713.367 3.86-1.066-1.47-.324-3.715-.364-3.86 1.066zm5.079-.051c1.309.42 3.683.395 3.81-1.016-1.385-.335-3.622-.339-3.81 1.016zm5.079.051c.695.281 2.041.051 2.945.051.337-.342.855-.5.915-1.117-1.388-.332-3.736-.367-3.86 1.066zm7.77-1.219c-1.435 0-2.467.101-2.641 1.168 1.378.334 3.689.359 3.859-1.016-.264-.245-.768-.152-1.218-.152zm-38.599 1.219c.694.322 2.038.09 2.845.152.373-.291.994-.594.965-1.117-1.313-.422-3.763-.341-3.81.965zm5.13 0c.689.307 2.092.125 2.946.102.352-.295.902-.65.914-1.117-1.409-.401-3.871-.241-3.86 1.015zm5.18 0c1.446.311 3.691.441 3.911-1.016-1.424-.374-3.967-.287-3.911 1.016zm5.13 0c1.367.311 3.773.404 3.91-1.016-1.357-.3-3.8-.431-3.91 1.016zm-35.299 2.235c.477-.021 1.488-1.051 1.474-1.473-.012-.346-1.259-1.652-1.625-1.473-.569.279-1.085.861-1.372 1.473.237.451.914 1.5 1.523 1.473zm3.658-1.422c.018.297.479.631.66.812.253.254.518.625.914.609.404-.018 1.27-.803 1.27-1.371 0-.539-1.056-1.574-1.524-1.473-.332.071-1.343 1.048-1.32 1.423zm10.208 0c.01.42 1.148 1.443 1.523 1.422.262-.016.688-.449.863-.609.204-.186.618-.561.609-.863-.011-.395-1.069-1.4-1.574-1.422-.06-.004-.077.045-.102.051-.43.104-1.326 1.122-1.319 1.421zm-3.657 1.472c.385-.014 1.48-1.105 1.473-1.473-.006-.393-1.293-1.746-1.828-1.32-.459.363-1 .795-1.219 1.371.365.36.908 1.446 1.574 1.422zm32.861.203c1.286.221 3.73.414 3.91-.965-1.307-.376-3.723-.417-3.91.965zm5.078 0c1.296.268 3.689.393 3.81-1.016-1.343-.308-3.672-.378-3.81 1.016zm5.079-.05c.655.326 1.893.07 2.794.152.419-.262 1.033-.588 1.016-1.117-1.338-.33-3.615-.348-3.81.965zm-29.762-1.016c-.485.098-.985.715-1.066 1.117 1.347.301 3.741.41 3.911-.965-.657-.275-2.093-.302-2.845-.152zm4.165 1.066c1.296.465 3.769.334 3.809-.965-1.304-.29-3.68-.417-3.809.965zm5.078 0c1.316.4 3.745.43 3.911-.965-1.379-.333-3.681-.351-3.911.965zm5.283 0c1.229.324 3.651.42 3.809-.965-1.393-.39-3.82-.243-3.809.965zm-20.671.051c1.307.283 3.757.457 3.81-1.016-1.398-.185-3.673-.392-3.81 1.016zm-13.255.813c-.015-.424-1.178-1.383-1.524-1.473-.417-.109-1.479 1.26-1.473 1.473.017.633 1.176 1.16 1.473 1.523.41-.254 1.543-.92 1.524-1.523zm7.211.051c.021.424 1.078 1.422 1.474 1.422.323 0 .641-.436.863-.66.271-.274.69-.539.66-.914-.032-.402-1.088-1.189-1.524-1.371-.458.405-1.508.786-1.473 1.523zm-2.184-.051c-.001-.434-1.161-1.449-1.574-1.422-.492.033-1.335 1.021-1.32 1.422.023.666.936 1.111 1.422 1.473.406-.284 1.474-.919 1.472-1.473zm17.065.558c-.491.098-1.02.779-1.066 1.168 1.355.316 3.719.385 3.86-1.016-.614-.288-2.018-.304-2.794-.152zm4.063 1.067c1.204.445 3.82.549 3.86-.965-1.212-.192-3.61-.402-3.86.965zm11.377-1.067c-.412.27-1.068.553-1.017 1.117 1.43.393 3.792.246 3.81-.965-.561-.39-1.857-.031-2.793-.152zm9.142 1.118c1.319.234 3.58.441 3.758-1.016-1.303-.285-3.687-.428-3.758 1.016zm-34.994-1.067c-.425.043-.939.691-.965 1.066 1.336.314 3.721.512 3.859-.965-.711-.193-2.089-.181-2.894-.101zm5.181 0c-.448.279-.973.484-1.067 1.117.688.299 2.096.135 2.946.102.401-.275.841-.514.965-1.066-.675-.436-1.875-.051-2.844-.153zm14.525 1.117c1.342.305 3.672.383 3.758-1.066-1.425-.211-3.627-.352-3.758 1.066zm10.31-.05c1.301.371 3.646.285 3.606-1.016-1.347-.203-3.501-.359-3.606 1.016zm-40.935-.458c-.389.459-.987.707-1.168 1.371.201.475.893 1.473 1.473 1.473.489 0 1.374-.947 1.371-1.473-.003-.516-1.078-1.572-1.574-1.422-.04.012-.101.003-.102.051zm3.911 1.372c.074.334.362.566.609.812.176.176.536.611.863.609.493-.002 1.449-1.018 1.422-1.473-.023-.391-1.205-1.543-1.625-1.371-.519.378-1.078.717-1.269 1.423zm18.944 1.675c.668.34 1.952.107 2.844.152.414-.297.926-.496 1.016-1.117-1.334-.355-3.799-.38-3.86.965zm15.49 0c.716.285 2.029.055 2.945.051.327-.316.809-.479.863-1.066-1.421-.229-3.633-.44-3.808 1.015zm4.977-.05c.175.295.553.145.915.152 1.434.031 2.7.047 2.895-1.117-1.322-.313-3.655-.389-3.81.965zm-34.637-1.067c-.686.08-1.231.598-1.321 1.117 1.307.334 3.818.35 3.86-.914-.526-.273-1.769-.293-2.539-.203zm3.809 1.168c1.357.225 3.787.516 3.86-1.016-1.379-.228-3.687-.423-3.86 1.016zm5.18 0c1.346.307 3.745.412 3.86-1.016-1.349-.308-3.738-.402-3.86 1.016zm10.411-.051c.622.326 1.825.072 2.692.152.451-.244 1.092-.562 1.016-1.168-1.389-.249-3.703-.286-3.708 1.016zm5.029-.05c1.226.398 3.899.393 3.86-.965-1.417-.209-3.634-.352-3.86.965zm-28.848.863c-.014-.385-1.057-1.379-1.625-1.371-.502.414-1.119.709-1.27 1.473.179.77.711 1.186 1.371 1.475.388-.306 1.546-.985 1.524-1.577zm36.669 1.726c1.343.365 3.493.301 3.657-1.014-1.355-.406-3.575-.271-3.657 1.014zm-31.031.053c1.358.359 3.758.449 3.91-1.018-1.37-.347-3.87-.388-3.91 1.018zm5.18.051c1.375.277 3.755.369 3.91-1.068-1.41-.375-3.795-.35-3.91 1.068zm6.146-1.168c-.383.311-.889.5-.966 1.117.677.301 2.055.127 2.896.102.375-.289.971-.617.965-1.119-.591-.354-2.015-.098-2.895-.1zm4.266 1.117c1.357.316 3.661.371 3.81-1.018-1.251-.441-3.802-.277-3.81 1.018zm5.079 0c1.408.297 3.747.369 3.911-1.066-1.405-.332-3.776-.373-3.911 1.066zm6.043-1.117c-.291.352-.774.51-.863 1.064 1.465.41 3.87.23 3.86-1.014-.813-.294-2.113-.118-2.997-.05zm-31.844 1.117c.65.33 1.896.066 2.793.152.488-.291 1.047-.512 1.118-1.219-1.465-.238-3.904-.322-3.911 1.067zm.203 1.371c-1.438-.066-2.593.022-2.742 1.066.726.268 2.023.191 2.894.152.383-.295.839-.516.965-1.066-.25-.257-.709-.134-1.117-.152zm12.697 1.117c.708.303 2.123.127 2.996.101.317-.297.901-.584.864-1.066-1.31-.4-3.657-.384-3.86.965zm5.282-.05c.628.391 2.147.188 2.945.102.298-.312.778-.441.812-1.016-1.275-.403-3.672-.33-3.757.914zm15.389 0c.641.299 1.989.131 2.793.102.363-.299.861-.461.965-1.016-1.233-.442-3.719-.37-3.758.914zm-30.981.05c.651.332 1.896.066 2.794.152.479-.266.968-.523 1.117-1.117-1.337-.326-3.903-.371-3.911.965zm5.18.051c1.409.178 3.727.416 3.86-1.016-1.332-.288-3.775-.445-3.86 1.016zm18.031-1.168c-.496 0-1.062-.08-1.474 0-.599.115-.958.65-1.117 1.066.717.369 2.339.225 3.149.051.267-.309.686-.467.762-.965-.31-.244-.85-.152-1.32-.152zm2.691 1.117c1.351.283 3.571.391 3.708-1.016-1.357-.214-3.766-.353-3.708 1.016zm-32.199 1.321c-.606.084-1.18.662-1.219 1.168 1.326.381 3.662.266 3.707-.965-.502-.27-1.752-.307-2.488-.203zm4.926.051c-.584.07-1.113.666-1.168 1.117.623.182 2.09.264 2.844.152.493-.072.982-.773 1.017-1.066-.592-.266-1.895-.299-2.693-.203zm15.44.05c-.472.068-.981.73-1.017 1.117 1.37.195 3.615.41 3.81-1.016-.69-.224-2.008-.216-2.793-.101zm4.113 1.067c1.336.301 3.779.426 3.759-.965-1.301-.326-3.749-.328-3.759.965zm6.044-1.016c-.328.297-.835.418-.863 1.016.727.316 1.905.121 2.844.101.391-.254.763-.525.915-1.016-.689-.368-2.038-.173-2.896-.101zm6.654-.101c-1.314 0-2.271.133-2.438 1.117 1.197.279 3.581.402 3.759-.965-.283-.238-.821-.152-1.321-.152zm-25.649.05c-1.364 0-2.502.035-2.59 1.117 1.358.281 3.676.414 3.859-.965-.295-.241-.798-.152-1.269-.152zm2.54 1.067c.564.25 1.898.312 2.691.203.615-.086 1.115-.654 1.168-1.168-1.407-.197-3.64-.363-3.859.965z" fill-rule="evenodd"/></svg>