<svg enable-background="new 0 0 73.254 72.492" viewBox="0 0 73.254 72.492" xmlns="http://www.w3.org/2000/svg"><path clip-rule="evenodd" d="m38.552 5.82c-2.209 2.195-4.415 4.395-6.628 6.629-1.519 1.531-3.086 3.139-4.728 4.678-3.858 3.617-7.604 7.457-11.405 11.26-1.822 1.822-3.797 3.676-5.702 5.652-.265.275-.508.652-.877 1.023-.322.324-.821.793-.829 1.024-.012.375.517.705.78.975.357.365.507.748.731 1.023.719.887 1.677 1.639 2.534 2.438 2.542 2.373 5.024 4.91 7.506 7.408 3.341 3.363 6.666 6.68 10.039 9.846 1.624 1.689 3.348 3.281 5.021 4.922.624.463.968 1.209 1.803 1.461.785-.307 1.375-1.012 1.95-1.607 2.836-2.943 5.928-5.783 8.87-8.725 1.163-1.162 2.251-2.422 3.411-3.605 2.255-2.301 4.591-4.719 7.067-7.02 1.186-1.102 2.244-2.4 3.509-3.557.555-.508 1.086-1.143 1.755-1.756.503-.459 1.643-1.287 1.657-1.852.012-.496-.947-1.264-1.365-1.656-2.642-2.479-4.938-4.994-7.555-7.408-1.035-.957-1.984-1.973-3.118-2.828-1.585.894-2.593 2.459-3.899 3.656-.649.594-1.219 1.283-1.852 1.9-3.13 3.047-6.287 6.225-9.456 9.309-1.298 1.357-2.464 2.357-3.752 3.754-.319.346-1.114.9-1.121 1.365-.009.604 1.418 1.709 1.852 2.143 1.747 1.748 3.257 3.154 5.021 4.924.32.322.822.775.828 1.121.007.398-.513.733-.877 1.072-.668.623-1.182 1.195-1.901 1.9-.213.209-.698.855-1.023.877-.408.025-1.131-.838-1.413-1.121-.433-.434-.749-.84-1.267-1.268-4.23-4.217-8.414-8.482-12.77-12.574-1.234-1.457-2.476-2.379-3.851-3.752-.306-.307-1.11-.99-1.121-1.365-.014-.484 1.027-1.221 1.414-1.607 1.479-1.481 3.11-3.063 4.532-4.484 1.504-1.504 2.95-2.902 4.532-4.484.381-.381 1.15-1.44 1.511-1.461.403-.025.824.627 1.072.877.715.715 1.151 1.217 1.95 1.949.286.262.911.639.926 1.024.022.588-1.501 1.775-1.852 2.144-1.922 2.025-4.171 3.891-5.945 5.945.442.867 1.185 1.441 1.852 2.047.281.256.575.607.976.975.275.256.714.824 1.071.828.51.008 1.221-1.018 1.608-1.412.502-.512 1.096-1.027 1.56-1.463 2.648-2.482 4.919-5.012 7.604-7.457.519-.471.981-1.031 1.462-1.51 2.062-2.06 3.964-3.916 6.044-5.994.928-.93 2.116-1.822 3.022-3.023.41-.543.876-.973 1.462-1.559.394-.395 1.222-1.4 1.559-1.414.316-.012.936.65 1.268.975 5.591 5.473 11.223 10.934 16.766 16.377.36.471.83.732 1.315 1.219.298.297 1.146.895 1.17 1.314.028.498-.699.978-1.023 1.267-1.195 1.066-2.353 2.43-3.46 3.412-1.429 1.609-3.116 2.961-4.582 4.531-3.108 2.982-5.957 6.23-9.113 9.164-3.149 2.926-5.961 6.191-9.065 9.162-3.105 2.971-6.014 6.139-9.163 9.064-.935-.559-1.605-1.447-2.388-2.191-.777-.738-1.525-1.525-2.291-2.291-1.516-1.516-3.098-3.002-4.63-4.533-1.51-1.51-3.091-3.027-4.679-4.484-1.572-1.441-3.067-3.02-4.581-4.531-2.631-2.631-5.399-5.293-8.091-7.945-.391-.385-.636-.879-1.023-1.268-2.548-2.547-5.34-5.312-8.14-7.895-.359-.332-1.013-.938-1.023-1.219-.023-.652.738-.805 1.023-1.268 8.527-8.496 17.799-17.311 26.562-26.074.707-.707 1.473-1.434 2.193-2.193 1.463-1.543 2.798-2.799 4.387-4.387.765-.764 1.503-1.66 2.241-2.145.433-.281.991.375 1.316.732.612.674 1.149 1.264 1.9 1.9.372.316.873.656.877 1.023.006.459-.623.838-.926 1.121-.333.314-.634.621-1.024.976z" fill-rule="evenodd"/></svg>