<svg enable-background="new 0 0 78.01 65.186" viewBox="0 0 78.01 65.186" xmlns="http://www.w3.org/2000/svg"><g clip-rule="evenodd" fill-rule="evenodd"><path d="m38.304.112c.263.961.146 2.046.146 3.12 0 3.178.068 6.507-.098 9.508-1.995.174-4.064.135-6.144.098-6.143-.106-12.695.081-18.918.146-.31.842-.195 1.916-.195 3.023-.001 16.33.062 33.166-.098 49.002-1.99.391-4.233-.001-6.387.098-2.166.099-4.361.061-6.436-.049-.191-1.219-.2-2.621-.147-3.949.16-3.987.006-8.069.049-12.093.087-8.252 0-15.809 0-24.33 0-7.553-.047-15.254.049-22.771.007-.618-.201-1.268.097-1.852 12.583-.029 25.362-.15 38.082.049z"/><path d="m77.896.209c.163 21.865.154 43.423-.049 64.849-12.125.203-23.648.095-35.74.098-.729 0-1.535.109-2.243-.146-.163-4-.162-8.677 0-12.677 7.843-.234 16.716.15 24.77-.146.261-1.013.146-2.126.146-3.219 0-3.316-.024-6.431-.098-9.653-.961-.265-2.018-.147-3.023-.147-7.137 0-14.776.105-21.746-.146-.32-1.997-.067-4.245-.098-6.388-.03-2.052-.07-4.24.098-6.289 8.241-.257 16.432.039 24.672-.146.021-.044.042-.087.097-.098.163-4.131.162-8.936 0-13.067-7.776-.268-16.724.027-24.769-.244-.183-4.087-.158-8.438 0-12.628.38-.106 1.007-.159 1.414-.146 9.24.296 18.499-.02 27.451.098 2.31.03 4.566 0 6.973 0 .697-.002 1.463-.181 2.145.095z"/><path d="m38.304 26.344c.25.588.11 1.287.098 1.95-.109 5.895 0 12.101 0 18.333 0 6.188.081 12.409-.098 18.382-.879.248-1.894.098-2.876.098-2.985.001-6.228.161-9.069-.049-.274-2.892.029-6.54-.098-9.703-.113-2.846 0-6.345 0-9.702 0-5.589 0-11.572 0-17.358 0-.898-.246-2.01.585-2.097.951-.1 1.955.026 2.877.049 2.86.068 5.731-.199 8.581.097z"/></g></svg>