<svg enable-background="new 0 0 78.813 66.927" viewBox="0 0 78.813 66.927" xmlns="http://www.w3.org/2000/svg"><g clip-rule="evenodd" fill-rule="evenodd"><path d="m45.206.139c-.436.895-1.22 1.529-1.875 2.221-.657.691-1.317 1.379-1.974 2.072-1.268 1.447-2.661 2.768-3.948 4.195-1.968 2.106-4.034 4.084-5.972 6.217-2.872 3.162-5.874 6.301-8.883 9.428-2.477 2.57-4.921 5.01-7.452 7.797-.394.436-1.433 1.143-1.431 1.58.001.461 1.55 1.838 1.875 2.17 9.859 10.07 20.083 19.988 30.006 29.957.208.404.921.555.839 1.086-4.246.143-8.696.002-13.127.049-2.962-2.598-5.629-5.492-8.44-8.242-5.505-5.582-11.197-10.976-16.582-16.68-2.318-2.156-4.811-4.93-7.304-7.256-.24-.223-.934-.846-.938-1.135-.007-.416.723-.898.938-1.135.375-.412.635-.748.987-1.086 2.022-2.09 4.039-4.187 6.07-6.268 2.741-2.754 5.297-5.691 8.044-8.439 5.403-5.568 10.798-11.146 16.286-16.631 4.111-.045 8.716-.089 12.881.1z"/><path d="m78.813 33.598c-.025.432-.414.711-.69.988-6.384 6.383-12.577 13.17-19 19.592-1.119 1.119-2.188 2.287-3.307 3.404-1.116 1.117-2.103 2.381-3.405 3.307-1.081-1.09-2.122-2.221-3.208-3.307-1.086-1.084-2.272-2.072-3.208-3.305.628-1.051 1.548-1.809 2.369-2.666 1.134-1.385 2.506-2.525 3.603-3.947 1.083-1.406 2.584-2.434 3.553-3.949-.766-.238-1.614-.164-2.418-.197-2.43-.096-5.083.049-7.699.049-3.38.002-6.776-.072-10.166-.049-3.122-2.92-6.309-6.137-9.328-9.277-.118-.123-.567-.434-.247-.691 17.548-.04 35.285-.151 53.151.048z"/></g></svg>