<svg enable-background="new 0 0 31.812 23.681" viewBox="0 0 31.812 23.681" xmlns="http://www.w3.org/2000/svg"><path d="m11.576 0c6.051-.006 12.099.082 18.148.095 1.197.01 2.235 1.153 2.07 2.35-.045 1.083-1.03 2.036-2.124 1.986-5.021-.028-10.044-.012-15.064-.089-2.048.026-4.206-.23-6.109.71-4.083 1.762-5.51 7.458-2.93 11.034 2.416 3.925 8.584 4.38 11.579.889 2.263-2.914 4.207-6.072 6.436-9.014 1.261-1.514 3.554-2.07 5.35-1.233 1.753.744 2.932 2.64 2.812 4.542-.04 3.603.015 7.211-.101 10.811-.427 2.323-4.132 2.031-4.216-.324-.048-3.56.099-7.12.055-10.681.01-.337-.295-.402-.565-.365-2.054 2.822-4.001 5.72-6.06 8.537-2.219 2.677-5.618 4.432-9.128 4.373-3.117.072-6.211-1.265-8.354-3.518-4.089-3.932-4.515-10.966-.992-15.398 2.128-2.875 5.605-4.69 9.193-4.705z"/></svg>