<svg enable-background="new 0 0 37.535 75.858" viewBox="0 0 37.535 75.858" xmlns="http://www.w3.org/2000/svg"><path clip-rule="evenodd" d="m37.358 1.073c.266.943.188 2.728.05 3.75-.946.32-2.198.299-3.258.643-.535.172-2.323.811-2.418 1.48-.076.541.667 1.664.938 2.27.95 2.129 1.759 4.652 1.579 7.896-.321 5.826-3.299 10.275-7.057 12.781-2.009 1.34-4.271 2.31-7.255 2.666-2.815.334-5.862-.184-8.291-1.283-.523-.238-1.06-.894-1.776-.889-.702.006-1.888 1.232-2.221 1.727-.534.791-.951 1.93-.593 2.912.447 1.227 1.888 1.658 3.158 2.072 1.332.438 2.686.578 4.294.889 2.987.578 5.992.986 8.834 1.529 2.718.521 5.908.922 8.538 1.826 2.532.873 4.646 2.473 4.934 5.43.212 2.162 0 4.543 0 6.662v6.613c0 2.426.109 4.621-.049 6.564-.169 2.064-1.06 3.348-2.172 4.441-1.438 1.412-3.611 2.227-5.773 3.01-2.236.809-4.685 1.344-7.156 1.629-5.445.625-11.051-.598-15.003-2.269-2.022-.857-3.888-2-5.133-3.652-.634-.844-1.27-1.824-1.431-2.961-.175-1.234-.05-2.691-.05-4.344 0-2.812 0-5.764 0-8.686 0-2.67-.322-5.934.69-7.994 1.009-2.051 3.061-3.006 5.183-4.146.206-.111 1.236-.504 1.233-.889-.002-.33-1.139-.723-1.529-.938-.685-.373-1.112-.6-1.482-.938-.918-.84-1.825-2.273-1.974-3.604-.245-2.193.76-3.379 1.629-4.391.397-.465.903-.969 1.529-1.481.467-.381 1.561-.894 1.58-1.432.016-.455-.99-1.324-1.283-1.729-1.216-1.67-2.339-3.891-2.813-6.119-.348-1.635-.608-3.537-.395-5.478.593-5.35 3.124-8.704 6.468-11.446 2.228-1.826 5.075-2.916 8.784-3.158 3.775-.246 6.685.811 8.982 2.271.309.195.745.42 1.135.74.363.297.684.727 1.086.74.536.016 1.156-.613 1.728-.939.736-.418 1.29-.816 1.924-1.035 1.621-.559 2.924-.813 4.836-.74zm-26.353 5.822c-1.815 1.504-2.924 3.119-3.701 5.133-.911 2.361-.927 5.359-.297 7.65.612 2.221 1.902 4.195 3.356 5.527 1.681 1.539 3.434 2.443 5.922 2.912 2.532.477 5.001.162 7.255-.988 3.54-1.805 6.749-5.512 6.712-11.004-.022-3.365-1.629-6.414-3.307-8.193-2.064-2.189-5.286-3.955-9.574-3.604-2.728.225-4.742 1.223-6.366 2.567zm21.516 40.666c-.815-2.123-3.52-2.721-6.069-3.158-2.725-.467-5.796-1.094-8.538-1.529-1.508-.24-3.032-.541-4.491-.543-.016 0-.033-.002-.049 0-1.14.117-2.23.744-3.307 1.184-2.247.918-4.576 2.123-5.38 4.293-.37 1.004-.324 2.701.197 3.801.591 1.244 1.747 2.143 2.912 2.812 6.222 3.58 18.271 2.877 22.948-1.232 1.321-1.148 2.612-3.454 1.777-5.628zm.05 9.279c-1.852 1.359-3.841 2.656-6.317 3.404-2.349.711-5.553 1.023-8.537.986-4.867-.061-8.806-1.52-12.042-3.158-.469-.236-.931-.617-1.481-.592-.246.506-.197 1.166-.197 1.777 0 2.316-.331 5.699.345 7.254 1.019 2.34 3.853 3.508 6.613 4.393 2.124.682 4.59.938 7.008.938 4.983 0 9.825-.994 12.832-3.061 1.179-.809 1.944-1.859 2.072-3.553.146-1.908 0-4.496 0-6.465 0-.729.168-1.57-.246-1.924-.017.001-.033.001-.05.001z" fill-rule="evenodd"/></svg>