<svg enable-background="new 0 0 44.351 43.557" viewBox="0 0 44.351 43.557" xmlns="http://www.w3.org/2000/svg"><path d="m12.349.297c1.976-.428 4.068-.404 6.021.145 1.322.314 2.486 1.036 3.676 1.659.579.25 1.228.387 1.856.264 1.132-.133 2.149-1.119 2.145-2.292.103-.001.208.002.311.01.004 3.802-.016 7.603-.038 11.405-.07 0-.139 0-.209.001-.111-2.505-1.186-4.88-2.646-6.883-1.294-1.724-3.014-3.212-5.092-3.883-1.352-.419-2.865-.642-4.217-.104-1.389.729-2.317 2.087-2.908 3.504-.965 2.507-1.228 5.21-1.35 7.87-.106 2.274-.086 4.547-.066 6.821.087 2.207.194 4.476 1.025 6.552.437 1.205 1.261 2.288 2.4 2.902.917.397 1.962.353 2.935.239 1.35-.119 2.643-1.04 3.028-2.369.265-.736.383-1.513.394-2.293.062-1.911.024-3.824.04-5.736-.054-.805-.016-1.679-.495-2.376-.814-1.051-2.306-.959-3.502-1.027.01-.086-.062-.274.087-.255 2.942.024 5.881-.06 8.823-.03 2.896.03 5.791.04 8.688.033 2.605.216 5.119 1.19 7.265 2.673 1.454 1.037 2.766 2.384 3.408 4.081.799 2.048.434 4.462-.811 6.257-1.459 2.143-3.897 3.433-6.394 3.948-1.82.486-3.724.493-5.596.447-1.132-.009-2.187-.398-3.249-.74-.046 2.927-.022 5.855-.033 8.783.072.785.077 1.621.473 2.327.886 1.215 2.555 1.007 3.875 1.111-.004.07-.006.142-.008.213-2.243-.003-4.487.003-6.73-.033-3.357-.05-6.714.058-10.069 0-.015-.063-.022-.127-.011-.19 1.055-.088 2.209.036 3.157-.53 1.085-.674 1.081-2.102 1.078-3.232.024-2.162.009-4.323.015-6.485.013-.89.137-1.814.626-2.578.626-1.034 1.837-1.582 3.02-1.609 1.299-.092 2.624.267 3.7 1.004 1.038.603 2.094 1.262 3.307 1.43 1.47.294 3.147-.029 4.175-1.188 1.255-1.458 1.516-3.473 1.553-5.324-.04-2.526.265-5.207-.9-7.546-.615-1.357-1.993-2.311-3.482-2.402-1.24-.027-2.481-.009-3.722-.013-.032 4.117.003 8.238-.035 12.356-.331.043-.537-.275-.815-.396-1.553-.999-3.593-1.417-5.34-.702-.503.165-.91.522-1.36.787-1.35 1.118-3.005 1.924-4.779 2.002-3.411.217-6.969-.342-9.911-2.159-1.755-1.112-3.239-2.683-4.17-4.544-1.141-2.239-1.555-4.786-1.484-7.281-.013-2.931 1.061-5.811 2.82-8.135 2.377-3.084 5.644-5.675 9.521-6.489z"/></svg>