<svg enable-background="new 0 0 78.003 78.617" viewBox="0 0 78.003 78.617" xmlns="http://www.w3.org/2000/svg"><path clip-rule="evenodd" d="m77.691 23.846c-17.948.196-36.338-.129-53.618 0-.289 1.261-.115 2.565-.146 3.855-.031 1.293.062 2.593 0 3.903-.119 2.482-.119 5.094 0 7.61.125 2.651-.05 5.322-.049 7.952 0 2.597-.023 5.162.146 7.66 9.86.194 20.365.198 30.833.049.209-1.062.098-2.422.049-3.61-.992-.357-2.088-.155-3.171-.195-7.858-.294-16.206.233-23.906-.146-.273-3.627-.098-7.512-.098-11.416.001-3.898-.04-7.826.049-11.611.983-.264 2.007-.147 3.025-.147 15.673.001 31.768.043 47.03.244.272.985.098 2.019.098 3.024 0 4.993.001 10.132 0 15.271 0 2.062.114 4.151.049 6.196-.129 4.034-1.023 7.466-2.342 10.44-2.662 6.004-6.918 9.884-12.489 13.026-2.534 1.428-6.359 2.418-10.149 2.585-4.066.18-8.201 0-12.44 0-4.144.001-8.394 0-12.733 0-8.312.002-14.1-2.745-18.783-6.732-2.131-1.814-4.212-4.382-5.659-7.074-1.499-2.79-2.71-5.992-3.122-9.611-.443-3.888-.196-8.233-.195-12.489.001-4.271-.001-8.602 0-12.733 0-4.402.17-8.197 1.268-11.466 1.076-3.204 2.498-5.864 4.439-8.294 4.161-5.037 10.393-9.57 19.125-10.001 6.225-.308 12.876.001 19.222 0 3.35-.001 6.482-.115 9.465.098 2.876.204 5.517.905 7.758 1.805 4.318 1.734 8.194 4.808 10.879 8.245 1.393 1.783 2.595 3.789 3.562 6.001.976 2.235 1.781 4.746 1.903 7.561z" fill-rule="evenodd"/></svg>