<svg enable-background="new 0 0 81.534 81.046" viewBox="0 0 81.534 81.046" xmlns="http://www.w3.org/2000/svg"><path clip-rule="evenodd" d="m39.827.06c.126-.091.561-.069.691 0 .317.029.45.241.74.296 3.041 2.733 5.768 5.78 8.686 8.636 1.341 1.554 2.993 2.798 4.194 4.491.743.705 1.392 1.504 2.073 2.27.977.903 2.743 2.978.592 3.899-1.076.46-2.849.18-4.293.247-1.671.078-3.108 0-4.59 0-8.073-.001-14.664.001-22.8 0-2.203 0-4.946-.513-5.429 1.283-.16.596-.049 1.541-.049 2.418v17.076 14.46c0 2.141-.479 5.037.987 5.626 6.225.149 12.447.048 18.951.05 4.623 0 9.297-.001 14.312 0 1.416 0 3.839.357 4.046-.691.152-.765-1.111-1.339-1.825-1.728-.866-.471-1.631-.895-2.32-1.333-1.524-.968-3.159-1.851-4.541-2.714-3.086-1.929-6.027-3.514-9.179-5.33-5.351-3.084-10.687-6.173-16.286-9.13-.754-.398-1.904-.99-1.776-1.727.213-1.229 3.283-.74 4.787-.74 7.948 0 15.888-.001 23.935 0 8.024 0 14.495-.001 22.061 0 1.184 0 2.389-.022 3.553-.05 2.143-.051 5.024-.326 5.183 1.58.097 1.169-1.204 2.24-1.925 2.961-4.062 4.061-8.077 8.226-12.141 12.289-1.616 1.616-3.141 3.321-4.837 4.886-1.655 1.528-3.177 3.276-4.836 4.935-2.509 2.509-4.81 4.816-7.255 7.354-2.385 2.475-4.754 4.956-7.156 7.452-1.054.635-1.527 2.203-3.06 2.221-1.103.013-2.249-1.373-2.961-2.122-2.444-2.575-5.203-5.226-7.501-7.649-3.457-3.288-6.712-6.778-10.167-10.068-3.38-3.364-6.71-6.779-9.969-10.265-2.459-2.487-5.02-5.015-7.551-7.649-.776-.81-2.135-1.708-2.171-2.963.156-1.506 1.346-1.978 2.023-2.961 9.046-9.26 18.587-18.686 27.933-28.031 2.243-2.243 4.595-4.645 6.959-7.008.867-.867 1.821-1.998 2.912-2.271z" fill-rule="evenodd"/></svg>