<svg enable-background="new 0 0 75.875 76.136" viewBox="0 0 75.875 76.136" xmlns="http://www.w3.org/2000/svg"><path clip-rule="evenodd" d="m.269 0c25.147.079 50.547-.017 75.459.293.205 1.525.098 3.094.099 4.646.001 11.116-.002 22.527 0 33.695.001 9.66.048 18.867.049 28.071 0 3.126.009 6.242-.148 9.341-9.445.166-18.904.05-28.364.049-15.735-.003-31.436-.027-47.241-.245-.194-21.949-.1-44.932-.098-66.412 0-2.096 0-4.535 0-6.994 0-.797-.072-1.944.098-2.347.036-.045.088-.073.146-.097zm35.456 5.771c-.788 0-1.636-.157-2.299-.049-.676.11-.561.813-.587 1.369-.076 1.635 0 3.476 0 5.037-.001 5.754.001 11.551 0 17.117 0 1.132.115 2.406-.146 3.325-7.766.102-15.889.001-23.719 0-1.093 0-2.229-.119-3.276.147-.179 10.706-.098 22.012-.098 32.815 0 1.551-.117 3.099.146 4.597 1.484.264 3.273.146 4.988.146 1.764.001 3.527.078 5.086-.098.261-1.069.147-2.222.147-3.325 0-6.884-.099-14.016 0-20.54.017-1.112-.131-2.253.098-3.325.841-.189 2.176-.113 2.983.049.3 9.108-.123 18.293.195 27.093 1.555.371 3.34.066 5.038.146.842.04 1.697.029 2.543.049.883.021 1.787.091 2.592-.147.28-8.934-.1-18.153.195-27.142.841-.149 2.36-.193 3.13.049.177 6.651.099 13.556.098 20.344 0 2.264-.116 4.564.147 6.748 1.472.263 3.282.147 5.037.147 1.789 0 3.582.129 4.939-.098.188-4.302.099-8.93.099-13.546-.001-3.429 0-6.921 0-10.27-.001-1.122-.116-2.259.146-3.325 9.005-.33 18.191.158 26.945-.098.224-.866.147-1.804.147-2.739-.001-7.009-.007-13.751-.147-20.784-6.66-.214-13.841-.195-20.686-.196-.976 0-1.965-.111-2.886.147-.151 3.168-.277 7.088 0 10.075 3.873.374 8.984-.06 13.204.244.128.764.215 2.202-.049 2.886-4.067.088-8.454.049-12.568.048-1.426 0-2.859.119-4.06-.146-.089-4.63-.048-9.668-.048-14.329 0-.664-.114-1.354.146-1.956 7.629-.157 15.814.002 23.669 0 1.105 0 2.227.132 3.276-.098.196-3.217.213-6.961 0-10.172-10.95-.31-22.935-.196-34.425-.195z" fill-rule="evenodd"/></svg>