<svg enable-background="new 0 0 70.131 71.951" viewBox="0 0 70.131 71.951" xmlns="http://www.w3.org/2000/svg"><g clip-rule="evenodd" fill-rule="evenodd"><path d="m55.323.114c.64 1.248.901 2.644 1.338 3.967.438 1.32.868 2.639 1.291 3.969.838 2.635 1.889 5.228 2.533 7.982-.667.258-1.402.143-2.103.143-10.878 0-22.333-.027-33.03.096-.646.834-.787 1.926-1.099 2.916-1.589 5.043-3.052 10.264-4.589 15.344-.618 2.043-1.264 4.125-1.673 6.262.587.326 1.309.191 1.959.191 7.861.002 15.396-.049 23.374-.049 2.155.002 4.346.096 6.31.049.641-.016 1.315.027 1.912-.191-.254-1.42-.625-2.721-1.243-3.775-6.533-.332-13.327.014-19.885-.145-2.198-.053-4.399.154-6.501-.096.166-1.355.655-2.656 1.052-3.967.79-2.611 1.502-5.287 2.295-7.936.392-1.309.744-2.623 1.243-3.871 11.296-.06 22.585-.105 33.508.047.517.574.678 1.393.908 2.104 2.166 6.688 4.397 13.51 6.453 20.315.468 1.553.884 3.275.717 5.115-.304 3.348-2.388 5.535-4.828 7.074-2.328 1.471-5.818 2.108-9.273 2.629-3.553.537-7.021 1.053-10.659 1.244-3.755.195-7.631.285-11.52.285-7.706.002-15.112-.842-21.701-2.055-3.434-.631-6.374-1.565-8.508-3.395-1.896-1.625-4.009-4.627-3.538-8.269.218-1.684.812-3.209 1.243-4.731.428-1.51.845-3.029 1.338-4.59 1.4-4.428 2.71-9.174 4.159-13.719.982-3.084 1.679-6.115 2.629-9.273.909-3.021 1.804-6.053 2.724-9.129.449-1.498.854-3.025 1.482-4.445 3.721-.309 7.579.082 11.376-.096 4.877-.227 10.427-.047 15.439-.047 5.11.001 10.077-.011 14.867.047z"/><path d="m65.457 69.902c.159.438.146 1.426 0 1.865-2.382.268-4.824.068-7.313.096-17.34.184-35.258.031-52.962 0-.155-.551-.155-1.697 0-2.248 7.704-.076 14.037-1.059 19.933-3.01 2.354-.779 4.52-1.523 6.644-2.533 1.024-.488 2.055-1.121 3.107-1.482.523-.18 1.229.371 1.864.668 6.973 3.268 14.771 5.799 24.282 6.406 1.416.089 2.896-.001 4.445.238z"/></g></svg>