<svg enable-background="new 0 0 21.81 34.488" viewBox="0 0 21.81 34.488" xmlns="http://www.w3.org/2000/svg"><path d="m11.355 4.149v-4.148h7.042s3.179-.084 3.413 3.412v10.254s-.134 2.894-3.379 3.195h-4.166s-2.458-.251-2.91-2.81v-5.202s-.033-2.275 2.175-2.526h1.973v6.306h2.076l-.037-8.514z"/><path d="m11.355 21.444s-.372-3.34 3.054-3.8h4.058s2.871-.04 3.343 2.821v5.47s-.175 1.958-2.306 2.217h-1.944l.045-6.276-2.145-.029v8.378h6.351v4.253h-7.623s-2.832-.577-2.832-3.562v-9.472z"/><path d="m10.604 17.604-4.28.002-.005 6.352h-2.088v-6.354l-4.231.002v7.328s.178 3.525 4.23 3.227l2.088.018v2.111h-6.318v4.189h6.623s3.633.33 3.981-2.915z"/><path d="m0 12.68v4.182h7.545s2.935-.114 3.059-3.631v-9.807s-.036-3.353-3.573-3.424h-3.82s-2.132-.04-3.022 2.251c0 0-.195.302-.189 1.457v4.531s.083 1.946 2.198 2.202l2.04.006-.033-6.313 2.132-.017.018 8.545z"/></svg>