<svg enable-background="new 0 0 71.429 71.571" viewBox="0 0 71.429 71.571" xmlns="http://www.w3.org/2000/svg"><g clip-rule="evenodd" fill-rule="evenodd"><path d="m34.485.058c.172 1.343.144 2.854.144 4.371 0 1.492.109 3.078-.144 4.419-.978.261-1.956.252-2.882.384-6.496.922-11.394 3.853-15.13 7.589-2.146 2.147-3.85 4.764-5.235 7.732-.697 1.495-1.278 3.088-1.681 4.803-.209.892-.34 1.801-.528 2.738-.181.903-.194 1.84-.432 2.786-1.236.257-2.783.144-4.274.144-1.492 0-3.038.114-4.275-.144-.144-1.721.215-3.401.432-4.996.213-1.56.634-3.066 1.105-4.467.245-.73.356-1.474.624-2.161.516-1.322 1.072-2.601 1.729-3.843.33-.623.548-1.305.865-1.921.566-1.101 1.562-2.342 2.354-3.362.855-1.103 1.731-2.163 2.642-3.074 5.615-5.616 12.913-10.169 23.148-10.998.488-.039 1.041-.108 1.538 0z"/><path d="m34.532 9.616c.107 2.306.316 5.179 0 7.445-1.378.277-2.643.443-3.842.721-3.532.819-6.218 2.997-8.55 5.139-1.946 2.312-3.591 4.897-4.515 8.31-.304 1.126-.353 2.333-.72 3.554-1.605.347-3.718.096-5.668.096-.625 0-1.261.168-1.777-.096-.07-1.873.312-3.649.672-5.332.347-1.621.99-3.173 1.633-4.563 1.313-2.84 2.913-5.308 4.947-7.396 3.963-4.07 9.417-7.5 16.763-7.925.321-.019.738-.15 1.057.047z"/><path d="m34.485 17.926c.274 2.544.181 5.475.048 8.165-.423.337-1.035.302-1.537.433-3.065.794-5.289 3.166-6.388 6.004-.279.72-.442 1.484-.769 2.257-1.949.081-4.039.079-6.052.048-.668-.01-1.357.113-1.921-.144.22-5.047 2.373-8.578 4.947-11.431 2.616-2.535 6.345-5.102 11.047-5.379.161-.011.406-.101.625.047z"/><path d="m34.436 27.003c.333.646.192 1.615.192 2.546 0 1.425.105 2.913-.288 3.89-.473.76-1.125 1.369-2.354 1.489-.801.078-1.768-.043-2.69 0-.905.043-1.822.192-2.401-.144.075-1.999 1.107-3.696 2.257-5.044 1.194-1.396 3.103-2.566 5.284-2.737z"/><path d="m61.718 36.849c.15 3.347-.715 6.561-1.777 9.078-1.672 3.963-4.085 7.293-7.061 9.846-2.05 1.76-4.342 3.127-6.964 4.323-2.62 1.195-5.708 2.097-9.126 1.969-.274-1.716-.013-3.992-.096-5.956-.023-.546-.229-1.12.048-1.585.647-.248 1.332-.25 1.969-.336 3.798-.511 6.706-2.314 9.126-4.275 2.996-2.427 4.916-5.923 6.004-10.278.217-.871.291-1.792.48-2.738 1.344-.288 3.051-.144 4.707-.144.957.001 1.916-.129 2.69.096z"/><path d="m16.905 36.898c.371 1.056.354 2.117.576 3.122.926 4.174 3.265 7.655 6.148 9.99 1.951 1.58 3.985 2.702 6.676 3.602 1.299.434 2.719.546 4.179.913.211 1.125.204 2.536.144 3.842-.059 1.291.147 2.615-.144 3.698-3.869.133-7.295-1.09-10.039-2.401-4.28-1.897-7.688-4.96-10.326-8.598-1.285-1.771-2.46-3.888-3.267-6.196-.815-2.331-1.424-5.019-1.345-7.925 1.754-.26 4.152-.049 6.196-.144.415-.018.849-.13 1.202.097z"/><path d="m34.485 44.631c-2.226-.029-3.921-1.233-5.188-2.45-1.286-1.235-2.214-3.121-2.401-5.235 1.116-.339 2.458-.041 3.603-.144 1.888-.17 3.654.299 4.082 2.065.17.699.048 2.009.048 3.074 0 .961.106 1.942-.144 2.69z"/><path d="m44.235 36.898c.28 2.538-1.26 4.382-2.642 5.764-1.186 1.186-2.909 2.005-4.803 2.017-.257-.688-.144-1.562-.144-2.401 0-2.222-.232-4.151 1.201-5.043.836-.52 1.917-.386 3.122-.384 1.096 0 2.301-.315 3.266.047z"/><path d="m25.839 36.898c.386.683.388 1.445.625 2.113.946 2.67 2.933 4.74 5.524 5.86.75.324 1.636.363 2.449.769.095 1.611.187 3.49.192 5.235.003.968.03 2.056-.288 2.833-2.441-.127-4.729-.774-6.628-1.729-4.547-2.287-8.078-6.125-9.414-11.623-.133-.547-.22-1.173-.336-1.777-.104-.544-.337-1.194.048-1.729 2.496-.02 5.326-.139 7.828.048z"/><path d="m53.264 36.946c.167 3.64-1.316 6.564-2.882 8.982-1.379 2.129-3.178 3.805-5.379 5.188-.305.191-.578.461-.864.624-.968.553-2.183.986-3.362 1.393-1.198.414-2.629.583-3.987.528-.486-2.519-.017-5.165-.048-7.925.806-.421 1.665-.461 2.45-.769 1.543-.604 2.741-1.418 3.795-2.642 1.221-1.418 1.798-3.154 2.354-5.379 2.562-.164 5.43-.073 7.923 0z"/><path d="m71.372 36.994c.163 1.338-.054 2.677-.24 3.938-.556 3.763-1.601 7.092-3.026 9.99-1.939 3.943-4.335 7.265-7.205 10.134-2.819 2.819-6.174 5.432-10.135 7.205-1.998.895-4.073 1.645-6.388 2.306-2.273.648-4.846 1.061-7.541.913-.258-1.238-.144-2.787-.144-4.275 0-1.49-.123-3.005.096-4.227.931-.33 1.926-.291 2.834-.432 2.776-.432 5.27-1.212 7.445-2.306 2.941-1.479 5.504-3.168 7.589-5.427 1.006-1.091 2.084-2.278 2.93-3.603.84-1.315 1.783-2.563 2.45-4.034 1.022-2.255 1.84-4.729 2.257-7.541.069-.462.16-.961.192-1.441.029-.429-.122-.964.24-1.345 1.282-.072 3.068.005 4.467 0 1.463-.004 2.918-.214 4.179.145z"/><path d="m8.596 36.994c.264 1.465.426 2.872.672 4.227.24 1.322.616 2.606 1.057 3.794 1.747 4.706 4.467 8.462 8.021 11.431 1.764 1.474 3.666 2.826 5.956 3.747 2.108 1.038 4.655 1.849 7.397 2.305.913.152 1.909.046 2.786.433.149 2.108.143 4.5.096 6.58-.016.707.181 1.421-.144 2.017-1.776.185-3.504-.26-5.139-.528-5.013-.821-8.977-2.656-12.68-4.803-1.184-.686-2.334-1.577-3.41-2.449-2.615-2.119-5.035-4.654-7.061-7.493-.862-1.209-1.346-2.301-2.065-3.698-.941-1.831-1.951-3.812-2.498-6.052-.547-2.239-1.184-4.447-1.441-7.108-.078-.814-.301-1.8.048-2.498 1.699-.184 4.003.039 5.86.048.917.003 1.759-.276 2.545.047z"/></g></svg>