<svg enable-background="new 0 0 75.217 54.335" viewBox="0 0 75.217 54.335" xmlns="http://www.w3.org/2000/svg"><g clip-rule="evenodd" fill-rule="evenodd"><path d="m32.602 54.099c-.139-2.805-.218-6.722.049-9.606 1.763-.237 3.667-.1 5.575-.1 5.7.001 11.751.05 17.57.05 2.08 0 3.518-.24 4.778-1.095 1.131-.767 2.031-1.898 2.488-3.385 1.064-3.458-.941-6.544-3.683-7.516-1.03-.365-2.471-.214-3.783-.249-4.167-.112-8.58.195-12.443-.1-.19-3.148-.079-6.843.049-10.004 4.094-.089 8.281-.279 12.543-.1 1.467.062 2.7-.107 3.633-.648 2.412-1.396 4.008-4.451 2.788-7.615-.539-1.397-1.377-2.425-2.489-3.135-1.2-.766-2.794-.796-4.828-.796-3.711-.001-7.506 0-11.199 0-3.738-.001-7.494.043-11.049-.199-.198-2.262-.086-4.93-.05-7.317.012-.783-.035-1.577.199-2.24 9.098-.102 17.862.001 27.176 0 1.618 0 3.183-.086 4.579 0 1.351.084 2.698.477 3.633.896 2.079.934 4.023 3.086 5.126 5.077 1.197 2.16 2.212 5.054 1.892 8.213-.537 5.303-2.951 8.977-6.57 11.298-.395.253-1.424.806-1.443 1.095-.027.396.963.799 1.394 1.095 3.307 2.273 5.868 5.772 6.421 10.751.34 3.061-.379 6.025-1.493 8.113-1.188 2.225-2.699 3.844-4.629 5.176-1.998 1.379-4.234 2.432-7.316 2.538-3.049.106-6.438-.05-9.557-.049-6.317.001-12.94.175-19.361-.148z"/><path d="m41.511 11.294c.155 3.083.251 6.657.05 9.855-6.06.175-12.805 0-19.461 0-2.189 0-4.569-.257-6.371.249-2.961.832-5.373 4.396-3.981 8.113.519 1.388 1.793 2.694 3.136 3.334 1.882.899 5.275.494 7.565.448 2.729-.054 5.368.154 8.113 0 .352-.813.127-1.747.149-2.688.064-2.697-.037-5.783.149-8.511 3.307-.167 7.364-.181 10.651.049.165 6.649.166 14.006 0 20.706-.867.211-1.783.1-2.688.1-8.578 0-16.89-.05-25.384-.05-1.793 0-3.29-.438-4.678-1.045-2.686-1.174-4.568-2.895-6.123-5.326-1.523-2.382-2.638-5.262-2.638-8.809 0-3.758.845-6.481 2.339-9.108 2.161-3.797 5.047-6.173 9.905-7.267 1.576-.355 3.638-.184 5.674-.249 3.834-.123 7.809.05 11.796.05 3.961-.001 7.955-.089 11.797.149z"/></g></svg>