<svg enable-background="new 0 0 77.08 36.29" viewBox="0 0 77.08 36.29" xmlns="http://www.w3.org/2000/svg"><g clip-rule="evenodd" fill-rule="evenodd"><path d="m70.874 30.059c-1.008.934-2.142 1.768-3.306 2.696-1.123.895-2.154 2.004-3.459 2.544-2.369.979-4.082-.654-5.544-1.78-2.764-2.129-5.264-4.379-7.986-6.511-2.645-2.071-5.213-4.29-7.935-6.562-1.13-.942-2.847-1.894-2.289-3.866.21-.744.92-1.265 1.475-1.729 1.194-1.001 2.214-1.865 3.56-2.848.54-.395 1.617-1.037 1.628-1.577.018-.891-1.336-1.091-1.78-1.679-1.341-1.273-2.835-2.313-4.273-3.51-.446-.371-.874-.933-1.526-1.017-.518.376-.356 1.106-.356 1.628v25.636c0 1.862.336 4.502-1.221 4.781-.859.154-1.542-.436-1.832-1.119-.383-.906-.254-2.731-.254-4.171 0-7.516-.136-14.103 0-21.109.026-1.348-.047-2.925 0-4.425.046-1.463-.042-2.975.407-3.866.699-1.389 2.595-2.025 4.273-1.221.971.466 1.875 1.303 2.696 1.983 1.608 1.335 3.406 2.789 5.137 4.171.808.645 1.951 1.49 2.391 2.238 1.763 2.997-1.534 4.839-3.205 6.206-.396.323-.825.697-1.373 1.119-.447.344-1.247.776-1.272 1.221-.034.615 1.293 1.482 1.729 1.831 4.623 3.689 9 7.301 13.582 11.038.875.464 1.328 1.351 2.391 1.628 1.024-.31 1.772-1.165 2.594-1.831 1.634-1.326 3.163-2.459 4.883-3.866.335-.274.739-.596 1.221-.967.416-.319 1.046-.666 1.068-1.119.031-.638-1.043-1.243-1.577-1.678-3.005-2.451-5.808-4.842-8.851-7.274-.543-.434-1.169-.968-1.78-1.475-1.009-.837-2.479-2.296-1.729-4.272.394-1.039 1.636-1.897 2.543-2.594 2.335-1.794 4.596-3.778 7.07-5.646.493-.372 1.088-.781 1.832-.712.966.09 1.725.987 1.424 2.289-.184.796-.992 1.276-1.476 1.678-1.721 1.435-3.518 2.76-5.239 4.121-.242.293-.7.541-1.17.915-.243.194-.992.663-1.017 1.068-.037.602 1.291 1.403 1.78 1.832 1.891 1.654 4.063 3.203 5.85 4.832 1.859 1.695 3.976 2.987 5.748 4.934.566.622 1.396 1.309 1.373 2.187-.02.749-.769 1.319-1.271 1.78-1.624 1.49-3.21 2.736-4.934 4.068z"/><path d="m5.563 19.276c3.378 2.827 6.932 5.479 10.326 8.291.678.574 1.398 1.087 2.085 1.628.674.53 1.283 1.273 2.238 1.475.365-.404.319-1.062.305-1.628-.079-3.084-.112-6.002-.102-9.156.006-1.886-.034-3.415 1.272-4.018.623-.288 1.976-.204 2.849-.204 1.93 0 3.937-.147 5.951-.051.885.042 2.207-.089 2.848.152.674.254 1.165 1.157 1.068 1.882-.248 1.865-2.438 1.466-4.324 1.424-1.044-.023-1.944.103-3.052.051-.857-.04-2.443-.097-2.798.305-.455.516-.207 2.287-.152 3.154.157 2.463-.083 4.701.051 7.121.156 2.823.32 5.734-2.188 6.053-.581.074-1.297-.11-1.729-.305-.831-.375-1.729-1.203-2.493-1.832-2.296-1.888-4.817-3.894-7.07-5.748-2.256-1.667-4.794-3.87-7.172-5.697-1.557-1.196-4.053-2.717-3.357-5.798.541-2.395 3.586-3.595 5.087-5.087 3.825-3.047 8.401-6.721 12.563-9.918.728-.56 1.509-1.209 2.391-1.221.808-.011 1.519.753 1.577 1.577.086 1.214-.828 1.813-1.679 2.543-.791.678-1.681 1.377-2.391 1.831-3.11 2.519-6.28 4.978-9.461 7.426-.926.819-2.312 1.851-3.51 2.797-.382.303-1.005.686-1.018 1.068-.024.795 1.561 1.351 1.885 1.885z"/></g></svg>