<svg enable-background="new 0 0 81.163 79.512" viewBox="0 0 81.163 79.512" xmlns="http://www.w3.org/2000/svg"><g clip-rule="evenodd" fill-rule="evenodd"><path d="m38.993 32.879c-3.442.127-6.971.307-10.314-.051-.205-2.719-.069-5.711-.101-8.703-.03-2.885.329-6.117-.553-8.351-1.465-3.711-6.346-6.832-11.774-4.881-3.023 1.086-5.748 3.436-5.887 7.445-.048 1.399 0 2.856 0 4.428v35.422c0 1.666-.066 3.045.202 4.277.246 1.133.738 2.182 1.409 3.018 1.238 1.545 3.005 2.816 5.534 3.32 2.936.586 5.51-.252 7.246-1.357 1.739-1.107 3.163-2.938 3.623-5.232.261-1.305.201-2.785.201-4.277 0-4.363.077-8.877-.101-12.98-1.221-.273-2.665-.152-4.125-.152-4.147 0-8.657.09-12.629-.15-.29-1.611-.076-3.406-.101-5.131-.024-1.695-.159-3.398.101-4.982 8.808-.08 18.2-.164 27.27.051.211 7.203.1 15.326.101 22.893 0 2.082.046 3.961-.201 5.686-.727 5.07-3.052 8.586-6.189 11.32-2.186 1.869-4.576 3.26-7.598 4.127-3.114.895-7.146 1.061-10.315.25-2.993-.764-5.718-1.988-7.899-3.773-2.145-1.752-4.108-3.969-5.233-6.439-.284-.623-.45-1.393-.705-2.113-.731-2.073-.955-4.495-.955-7.351 0-12.943 0-26.228 0-38.64 0-1.863-.009-3.627.302-5.233.568-2.938 1.767-5.797 3.321-7.799 3.132-4.041 8.421-7.191 14.893-7.498 4.304-.203 8.249.935 10.918 2.566 4.163 2.545 7.632 5.947 9.057 11.17.984 3.609.604 8.256.604 12.578-.001 2.181.103 4.37-.102 6.542z"/><path d="m81.005 32.98c-1.582.182-3.409.1-5.182.1-1.789 0-3.604.121-5.132-.15-.443-4.529.386-10.316-.151-15.043-.462-4.076-3.782-6.93-7.95-7.348-3.35-.334-5.797.809-7.647 2.467-1.086 1.025-1.898 2.184-2.314 3.824-.412 1.621-.245 3.627-.251 5.533-.014 3.908-.07 8.291.101 12.025 1.138.273 2.339.15 3.522.15 8.349 0 16.868.008 25.006.152.26 6.707.083 14.736.151 21.686.038 3.898-.047 7.314-1.006 10.213-.931 2.812-2.338 5.025-4.276 6.893-3.038 2.936-7.065 5.662-12.729 5.988-5.946.342-10.91-1.473-14.289-4.277-2.577-2.139-4.578-4.754-5.887-8.15-.435-1.129-.61-2.426-.805-3.824-.394-2.826-.151-6.016-.151-9.207 0-3.088-.073-6.176.101-9.107.717-.297 1.57-.133 2.415-.102 2.49.094 5.36-.152 7.749.102.184 2.775.1 5.643.101 8.504 0 2.871-.238 5.812.101 8.451.315 2.465 1.562 4.057 3.22 5.334 1.636 1.26 3.9 2.045 6.591 1.861 2.646-.18 4.486-1.215 5.937-2.666 1.498-1.498 2.365-3.355 2.365-6.189 0-5.453.097-10.982-.101-16.703-2.254-.367-4.604.012-6.994-.102-6.764-.32-14.386.256-21.383-.201-.137-7.451-.101-14.893-.101-22.59 0-1.346-.029-2.602.101-3.824.839-7.912 5.768-12.842 12.125-15.346.942-.371 1.96-.668 3.019-.906 5.15-1.154 11.012.303 14.44 2.264 4.129 2.363 7.454 6.154 8.805 11.272.48 1.818.604 3.789.604 6.088-.004 4.198.136 8.662-.105 12.828z"/></g></svg>