<svg enable-background="new 0 0 83.603 73.26" viewBox="0 0 83.603 73.26" xmlns="http://www.w3.org/2000/svg"><path clip-rule="evenodd" d="m60.851.108c.794 1.226 1.551 2.47 2.27 3.75 1.789 3.185 3.535 6.272 5.429 9.525.269.461 1.024 1.481 1.037 1.924.014.495-.754 1.564-1.086 2.122-2.001 3.359-3.79 6.794-5.725 10.166-.382.666-.761 1.343-1.136 2.024-.371.674-.816 1.352-1.036 2.122.669.265 1.453.149 2.172.149h15.94c1.018 1.198 1.655 2.636 2.517 4.096.535.907 1.132 2.062 1.776 3.158.217.369.576.732.593 1.037.03.549-.799 1.539-1.135 2.122-1.224 2.12-2.374 4.142-3.505 6.218-1.543 2.834-3.242 5.555-4.737 8.242-2.355 4.231-4.745 8.206-7.106 12.387-.779 1.379-1.451 2.83-2.418 4.047-15.577.08-30.912.086-46.292 0-1.273-1.954-2.399-4.011-3.553-6.07-.384-.685-.648-1.439-1.037-2.122-2.301-4.045-4.623-8.042-6.959-12.141-1.95-3.422-3.82-6.61-5.774-10.167-.308-.56-1.071-1.584-1.086-2.072-.015-.52.788-1.57 1.135-2.171 3.619-6.261 7.217-12.493 10.808-18.803.791-1.391 1.717-2.726 2.418-4.146.721-1.46 1.495-2.858 2.319-4.244.814-1.368 1.569-2.783 2.517-4.047 10.437-.114 21.286.097 31.783-.148-.054-.699-.546-1.229-.839-1.777-.599-1.123-1.167-2.237-1.826-3.356-.314-.533-.739-1.066-.839-1.727 1.059-.348 2.366-.042 3.553-.149 1.453-.13 3.332 0 4.984 0 1.643.001 3.293-.061 4.838.051zm5.477 15.94c-12.55.235-25.359-.242-37.803.099-.725.877-1.223 1.924-1.777 2.912-3.675 6.553-7.372 13.226-11.104 19.691-.29.503-.737.968-.79 1.58.948.208 2.032.148 3.109.148 3.36 0 6.888.001 10.166 0 .88-1.243 1.618-2.613 2.369-3.948 1.913-3.401 3.935-6.788 5.725-10.167.357-.674.657-1.436 1.234-1.974 3.997-.09 8.408-.05 12.436-.049.567 0 1.179-.119 1.678.148-.787 1.96-1.961 3.669-2.912 5.429-.319.591-.755 1.182-.839 1.875 2.356.232 5.273.097 7.896.149.684.013 2.172.143 2.665-.099.395-.193.935-1.288 1.233-1.826 2.238-4.021 4.337-7.942 6.564-11.795.381-.66.928-1.292 1.036-2.073-.268-.21-.613-.105-.886-.1zm-60.948 24.528c-1.02 0-2.156-.17-3.06 0-.711.134-.392.506-.099 1.037 3.461 6.262 7.121 12.394 10.611 18.458 1.537 2.67 2.891 5.237 4.392 7.847.745 1.295 1.527 2.7 2.32 3.8 14.592.082 29.528.082 44.12 0 .907-1.174 1.548-2.513 2.27-3.8 4.723-8.409 9.742-16.771 14.41-25.169.366-.658.878-1.266 1.037-2.023-.47-.257-1.025-.148-1.53-.148-4.057 0-7.794.089-11.548 0-4.425-.105-8.879.254-13.375.049-4.315-.196-8.744-.023-13.127 0-4.46.024-8.914-.156-13.325.099.049.729.55 1.325.888 1.925 1.073 1.9 2.104 3.749 3.208 5.577 1.478 2.448 2.767 5.006 4.343 7.354 4.541.036 9.162.257 13.67-.049-.465-1.205-1.174-2.26-1.777-3.356-.599-1.088-1.468-2.039-1.776-3.257 5.062-.18 10.73-.099 15.891-.099.739 0 1.496-.117 2.172.148-1.314 2.591-2.825 5.088-4.244 7.6-.713 1.261-1.45 2.512-2.172 3.751-.732 1.257-1.327 2.593-2.27 3.701-9.542.06-18.73.078-28.279 0-.772-.81-1.276-1.855-1.826-2.813-3.954-6.889-7.843-13.833-11.894-20.58-3.021-.093-6-.052-9.03-.052z" fill-rule="evenodd"/></svg>