<svg enable-background="new 0 0 77.901 78.328" viewBox="0 0 77.901 78.328" xmlns="http://www.w3.org/2000/svg"><g clip-rule="evenodd" fill-rule="evenodd"><path d="m77.26 32.372c-.947.299-2.021.099-3.074.146-3.018.137-6.42.039-9.464 0-.537-.652-.619-1.502-.879-2.244-1.541-4.417-4.258-8.221-7.464-11.075-2.675-2.381-5.94-4.32-9.904-5.513-3.164-.952-6.958-1.505-10.977-.878-7.081 1.106-12.171 4.158-16.148 8.538-.512.564-1.01 1.066-1.463 1.659-.45.588-.79 1.199-1.171 1.903-.706 1.303-1.488 2.574-2.098 4.049-1.22 2.953-2 6.404-2 10.343 0 4.862 1.305 9.155 3.123 12.392.376.669.663 1.402 1.024 2.049.337.604.873 1.191 1.317 1.756 4.043 5.142 9.681 8.987 17.661 10.099 7.941 1.107 14.557-1.751 19.125-5.074 1.143-.832 2.218-1.916 3.22-2.976 2.484-2.628 4.478-5.804 5.806-9.611.266-.759.598-1.552.586-2.391-1.142-.308-2.571-.146-4.05-.146-9.814 0-20.162.081-29.857-.098-.164-3.689-.262-8.151 0-11.66 15.377-.188 31.039-.158 46.836-.098.592 2.355.487 4.765.487 7.025 0 2.337-.353 4.61-.78 6.684-.842 4.079-2.315 7.845-4.049 10.929-3.653 6.495-8.676 11.366-14.881 15.026-3.125 1.844-6.695 3.323-10.733 4.245-4.311.984-8.962 1.105-13.661.537-8.537-1.033-15.118-4.641-20.49-9.416-5.334-4.739-9.357-10.717-11.662-18.295-1.194-3.923-1.881-8.709-1.561-13.319s1.352-8.637 2.732-12.197c2.751-7.095 7.26-12.658 12.929-16.977 1.443-1.1 2.903-2.106 4.537-2.976 4.081-2.174 8.587-3.836 14.149-4.538 6.937-.874 13.838.484 18.832 2.488 4.279 1.718 7.937 3.963 11.075 6.782 3.289 2.704 5.876 6.046 8.148 9.757 2.247 3.675 3.997 7.993 4.779 13.075z"/><path d="m29.985 15.541c4.069-.022 7.032 2.468 8.148 5.513 1.502 4.103-.36 7.958-2.781 9.806-2.538 1.937-6.527 2.187-9.416.585-2.327-1.29-4.502-4.074-4.245-8.001.232-3.541 2.402-6.029 5.122-7.22.89-.389 1.946-.677 3.172-.683z"/><path d="m53.988 29.835c-1.164 1.142-2.282 2.011-3.854 2.439-1.896.518-3.991.296-5.415-.293-2.827-1.168-5.155-3.823-5.416-7.172-.36-4.636 2.631-8.121 6.489-9.074 4.5-1.113 8.25 1.637 9.66 4.635 1.431 3.044.774 7.491-1.464 9.465z"/><path d="m20.52 30.86c2.989-.234 5.16.837 6.684 2.244 1.416 1.307 2.624 3.508 2.683 6.196.11 4.952-4.031 8.932-9.221 8.538-2.207-.167-3.956-1.222-5.171-2.488-1.323-1.377-2.353-3.163-2.488-5.61-.142-2.566.943-4.787 2.244-6.245 1.09-1.222 2.991-2.457 5.269-2.635z"/><path d="m47.646 46.082c3.503-.013 6.027 1.887 7.318 3.952.741 1.185 1.265 2.621 1.317 4.293.155 4.947-3.578 8.542-8.099 8.733-3.199.135-5.947-1.481-7.464-3.757-1.282-1.922-1.911-5.007-.878-7.854.504-1.39 1.49-2.765 2.83-3.708 1.289-.908 2.862-1.652 4.976-1.659z"/><path d="m29.399 46.13c2.414-.222 4.423.558 5.757 1.561 1.821 1.369 3.556 3.545 3.562 6.83.011 6.13-6.289 10.322-12.148 7.757-1.915-.838-3.55-2.627-4.293-4.635-1.053-2.846-.335-6.023.878-7.855 1.281-1.933 3.381-3.394 6.244-3.658z"/></g></svg>