<svg enable-background="new 0 0 80.05 80.578" viewBox="0 0 80.05 80.578" xmlns="http://www.w3.org/2000/svg"><g clip-rule="evenodd" fill-rule="evenodd"><path d="m47.986.349c-.01.501-.701.95-1.194 1.444-.338.337-1.243 1.007-1.245 1.443-.001.275.556.75.897 1.096 8.88 9.023 17.658 18.105 26.587 27.035 1.328 1.329 2.619 2.691 4.032 3.883.545-.266.963-.764 1.395-1.195.418-.418.785-1.01 1.394-1.095.128 7.973.001 16.027 0 23.998 0 7.116-.05 13.797-.05 20.761 0 .942.113 1.917-.149 2.837-17.927.036-35.71.05-53.87-.149.956-.452 1.983-.451 2.938-.697 6.548-1.691 11.292-5.677 14.389-10.904 1.732-2.926 3.113-6.876 3.137-11.302.024-4.644-1.262-8.258-2.838-11.6.31-.089.582.283.797.498.68.68 1.433 1.53 2.141 2.19 2.479 2.595 5.014 4.964 7.617 7.568.323.323.79.984 1.146.996.623.02 1.36-1.121 1.742-1.593.542-.67 1.141-1.121 1.643-1.643.793-.824 1.615-1.502 2.489-2.439.259-.277.69-.699.697-.946.012-.472-1.106-1.354-1.494-1.743-3.35-3.349-6.227-6.489-9.56-9.808-.358-.358-1.514-1.193-1.543-1.643-.031-.472 1.093-1.342 1.443-1.693 1.541-1.541 3.242-3.176 4.681-4.63.99-1.082 2.062-2.089 3.087-3.137 1.023-1.046 2.088-2.068 2.987-3.236-.328-.652-.945-1.095-1.444-1.593-1.466-1.466-2.874-3.087-4.431-4.531-1.226.857-2.151 2.036-3.236 3.037-1.078.995-2.071 2.08-3.087 3.137-1.672 1.648-3.041 2.997-4.73 4.68-.389.387-1.203 1.44-1.643 1.443-.476.004-1.232-.983-1.643-1.394-1.372-1.372-2.367-2.417-3.784-3.833-.17-.169-.643-.635-.647-.846-.008-.394 1.04-1.289 1.444-1.693 3.202-3.202 6.221-6.072 9.409-9.261.409-.408 1.438-1.192 1.444-1.643.007-.467-1.036-1.314-1.395-1.693-1.124-1.189-1.912-1.863-3.036-3.087-.359-.391-1.165-1.44-1.594-1.444-.471-.003-.958.809-1.295 1.145-1.246 1.246-2.469 2.397-3.634 3.635-4.069 4.296-8.517 8.359-12.795 12.695-.432.437-1.697 1.43-1.693 1.942.004.486 1.035 1.234 1.443 1.643 3.117 3.117 6.05 6.149 9.211 9.311.392.391 1.442 1.185 1.444 1.593.001.268-.593.813-.946 1.146-1.055.99-2.108 2.059-3.087 3.037-3.833 3.832-7.242 7.526-11.252 11.252-.339.314-.937.786-.946 1.095-.017.519 1.055 1.303 1.395 1.643l3.037 3.037c.364.364 1.141 1.379 1.593 1.394.422.013.901-.652 1.245-.996 1.957-1.958 3.736-3.688 5.626-5.577.766-.766 1.487-1.572 2.34-2.141.492.435.7 1.177.896 1.842.604 2.057.688 4.89.05 7.07-1.521 5.192-5.755 9.36-12.348 9.36-3.455 0-5.899-1.163-8.016-2.838-1.973-1.562-3.59-3.9-4.282-6.572-.786-3.031-.424-6.558.847-9.111 2.304-4.631 7.086-7.977 14.239-6.92.237-.731.088-1.595.05-2.44-.117-2.56-.065-5.341-.349-7.717-.788-.401-1.739-.299-2.589-.299-6.398 0-11.203 2.43-14.688 5.377-3.599 3.044-6.37 7.03-7.617 12.447-.166.723-.228 1.527-.597 2.242-.229-9.042-.049-18.152-.05-27.383-.001-6.59.05-12.82.05-20.015 0-1.026.009-2.196.05-3.386.034-1.007-.133-2.895.149-3.335.037-.047.09-.076.149-.1 15.706.199 31.573.214 47.447.349z"/><path d="m79.9.448c.262 1.089.1 2.233.1 3.386.001 6.707.028 13.647-.149 20.214-.585-.167-1.146-.806-1.593-1.294-3.245-3.544-7.006-6.83-10.307-10.406-2.82-3.057-5.844-5.993-8.812-8.962-.73-.73-1.429-1.478-2.19-2.24-.156-.157-.657-.471-.349-.796 7.002-.025 16.1-.071 23.3.098z"/><path d="m.191 59.745c.043-.009.047.02.05.05.042-.009.047.02.05.05.896 5.772 3.313 10.284 6.672 13.642 3.365 3.365 7.828 5.8 13.492 6.821-1.619.302-3.354.126-5.078.1-4.311-.066-8.635.021-12.945-.1-.803-.022-1.609.132-2.34-.149-.162-6.538-.086-13.559.049-20.264-.015-.081.047-.086.05-.15z"/></g></svg>