<svg enable-background="new 0 0 83.624 41.106" viewBox="0 0 83.624 41.106" xmlns="http://www.w3.org/2000/svg"><path clip-rule="evenodd" d="m83.439.21c.174 5.173.1 10.37.154 15.409.054 4.913 0 9.823 0 15.15.001 3.45.116 6.939-.104 10.239-20.808.184-41.609.051-62.619.052-6.938 0-13.868.089-20.735-.155-.169-13.182-.148-27.251-.103-40.643.046-.023.093-.045.104-.104.734-.13 1.802-.155 2.534-.155 27.495-.021 54.412.082 80.769.207zm-45.815 4.602c-5.7 0-12.214-.262-17.84 0-3.15.147-5.713 1.077-7.809 2.482-4.005 2.686-7.186 6.943-7.185 13.392 0 3.326.817 5.823 2.12 8.17 2.275 4.102 6.708 7.628 12.668 7.912 5.81.276 12.209-.218 18.047 0 .788.029 1.622.2 2.379-.104.166-8.249.188-16.972-.052-24.717-1.806-.288-3.77-.122-5.792-.207-4.022-.17-7.892.146-11.841.051-2.061-.049-3.757.042-5.223.672-1.796.773-3.246 2.139-4.24 3.93-.924 1.665-1.569 4.249-.88 6.774.932 3.408 3.603 5.852 7.137 6.515 1.369.257 2.955.155 4.705.155h4.86c1.609 0 3.231.124 4.706-.155.187-1.646.104-3.537.104-5.378 0-1.875.121-3.766-.155-5.378-4.328-.232-8.757-.159-13.237-.051-.171 1.029-.171 2.746 0 3.774.668.296 1.494.104 2.274.104 2.484 0 5.069-.106 7.137.104.204.728.309 2.358-.052 2.999-1.696.187-3.523.103-5.326.103-1.818 0-3.621.192-5.067-.31-2.054-.713-4.027-2.79-3.413-5.895.36-1.821 1.852-3.517 3.826-3.93 1.234-.258 2.808-.103 4.292-.103 3.516 0 7.085-.052 10.497-.052.668 0 1.409-.017 2.017.207.221 4.072.061 8.717.104 12.927.015 1.438.252 2.876-.155 4.137-5.029-.081-9.875.185-14.633.052-2.672-.074-4.284-.403-6.154-1.241-3.358-1.505-5.744-4.44-6.67-8.377-.477-2.024-.275-4.703.413-6.619 1.264-3.515 3.888-6.351 7.498-7.55 2.244-.746 5.45-.724 8.48-.724 5.224 0 10.067.204 14.789-.052.171-.937.165-2.527 0-3.464-.735-.269-1.557-.153-2.329-.153zm21.718 31.956c1.695 0 3.37.123 4.912 0 3.207-.256 5.623-.965 7.808-2.327 1.061-.661 1.942-1.425 2.793-2.275.949-.949 1.55-1.732 2.172-2.947 1.231-2.41 2.275-4.446 2.326-7.808.062-4.026-1.115-7.445-2.792-9.928-1.053-1.56-2.214-2.719-3.774-3.827-1.93-1.369-4.492-2.552-7.343-2.844-1.549-.159-3.24-.052-4.861-.052-4.794 0-9.808-.036-14.684 0-.483.003-1.35-.004-1.758.207-.06 1.046-.145 2.553.052 3.516 6.756.346 13.749-.174 20.321.104 1.465.061 2.917.601 4.137 1.137 3.542 1.561 6.142 4.774 6.877 8.946.574 3.26-.293 6.482-1.603 8.532-1.369 2.141-3.183 3.916-5.688 4.86-2.669 1.006-6.176.828-9.722.827-3.539 0-7.122.099-10.394-.155-.125-5.481-.181-11.22 0-16.909 3.664-.188 8.095-.103 11.997-.103 1.393 0 2.825-.135 4.085 0 3.171.339 5.209 3.803 4.188 6.722-.418 1.197-1.191 2.169-2.275 2.792-1.766 1.014-5.66.672-8.325.672-.973 0-1.971.123-2.792-.155-.069-.793-.253-2.208.052-2.999 2.846-.188 6.186.119 8.945-.155.256-.909.245-2.76 0-3.671-4.053-.172-8.822-.171-12.875 0-.188 2.511-.104 5.538-.104 8.17 0 .91-.12 1.847.154 2.637 3.032.122 6.166.073 9.102.104 3.342.035 6.051-.067 8.222-1.448 2.167-1.378 3.776-3.717 4.033-6.826.261-3.155-1.1-5.997-3.103-7.653-1.293-1.068-2.931-1.946-4.912-2.12-2.107-.185-4.614-.016-6.877-.051-4.461-.071-9.079-.002-13.444.155-.212 8.114-.11 16.772.051 24.768 5.021.19 10.102.104 15.099.104z" fill-rule="evenodd"/></svg>