<svg enable-background="new 0 0 71.259 55.818" viewBox="0 0 71.259 55.818" xmlns="http://www.w3.org/2000/svg"><path clip-rule="evenodd" d="m60.701 23.706c.258-.886.184-1.844.184-2.793 0-5.852.014-11.623.045-17.447.006-.909-.072-1.85.137-2.702 3.213-.144 6.799-.151 10.029 0 .25 1.092.139 2.228.139 3.343 0 12.671-.094 25.307-.092 37.78 0 4.58.107 9.164-.139 13.692-.764.196-1.605.185-2.426.183-5.582-.01-11.668-.001-17.586-.137-.225-3.682-.137-7.63-.137-11.632 0-3.958-.207-7.993-.047-11.815.336-7.941-2.312-13.722-6.549-17.265-3.336-2.942-7.744-4.251-13.416-4.534-5.82-.29-10.369 1.607-13.646 4.167-3.299 2.576-5.748 6.312-6.504 11.449-.85 5.771 1.236 10.674 3.756 13.784 1.293 1.598 3.065 2.986 5.037 3.938 2.031.981 4.393 1.709 7.234 1.74 2.732.03 5.4-.535 7.283-1.694 2.621-1.616 5.049-4.226 5.494-7.922.172-1.425-.088-2.831-.549-3.847-.869-1.91-2.416-3.634-4.717-4.213-1.225-.308-2.76-.229-4.26-.229-2.961 0-5.988 0-8.977 0-1.465 0-2.943.112-4.303-.137-.154-3.055-.152-6.745 0-9.8 5.289-.227 10.883-.046 15.935-.046 1.43 0 2.709-.088 3.893.046 3.33.375 5.996 2.149 7.969 4.121 2.73 2.731 4.807 6.116 5.357 10.808.58 4.941-.953 9.603-2.977 12.868-2.043 3.295-4.85 6.01-8.381 7.785-1.805.908-3.754 1.709-5.953 2.106-3.238.585-7.627.776-10.99 0-3.242-.749-6.363-1.78-8.746-3.343-3.301-2.165-5.953-4.743-8.107-8.014-2.67-3.989-4.41-8.544-4.67-14.7-.262-6.203 1.756-11.533 4.076-15.295 3.613-5.857 9.02-10.342 16.488-12.546 2.566-.758 5.283-1.234 8.287-1.374 4.402-.205 8.943.633 12.273 1.694 3.502 1.116 6.533 2.657 9.113 4.717 2.592 2.069 4.881 4.46 6.594 7.282.895 1.472 1.695 2.913 2.244 4.671.27.862.604 1.711.871 2.61.261.873.288 1.84.734 2.701z" fill-rule="evenodd"/></svg>