<svg enable-background="new 0 0 35.156 74.995" viewBox="0 0 35.156 74.995" xmlns="http://www.w3.org/2000/svg"><path clip-rule="evenodd" d="m34.792 25.732c-1.581.26-3.281.143-4.971.143-4.991.002-10.284-.057-15.009.145-.704.81-.644 2.432-.574 3.775.215 4.176.837 8.057 1.387 11.902.559 3.912 1.126 7.797 1.625 11.664.161 1.254.213 2.561.669 3.729.454-.348.356-1.002.431-1.483 1.262-8.203 2.034-16.947 2.916-25.525 1.04-.334 2.274-.191 3.441-.191 2.787.002 5.703 0 8.699 0 .536 0 1.138-.102 1.625.145.308.91-.045 1.859-.096 2.771-.157 2.84-.458 5.688-.812 8.508-.468 3.721-.715 7.49-1.291 11.185-.573 3.682-.9 7.482-1.242 11.232-.256 2.809-.599 5.576-.956 8.365-.112.879-.139 1.807-.479 2.629-.906.312-1.935.191-2.915.191-5.135 0-10.248.047-15.296.049-1.009 0-2.028-.031-3.012 0-1 .031-2.014.084-2.963-.145-.525-1.312-.611-2.826-.812-4.301-.605-4.441-1.18-9.092-1.769-13.527-.795-5.983-1.586-12.011-2.342-18.067-.363-2.908-.853-6.059-1.004-9.227-.156-3.287.154-6.607.383-9.799.217-3.029.492-6.365.859-9.32.627-5.031.418-9.887 5.88-10.133 1.78-.082 3.761.057 5.688.096 1.946.037 3.87-.063 5.688-.145 3.188-.145 7.24-1.129 9.368.67 1.105.598 1.509 1.9 2.246 2.867 1.303.351 2.521 1.117 2.964 2.437.438 1.307.488 3.072.622 4.732.258 3.213.576 6.486.86 9.799.071.836.121 1.674.19 2.486.07.789.254 1.615.002 2.343zm-11.949-22.226c-3.359.406-7.688.525-11.663.525-1.266 0-2.81-.232-3.872.143-1.307.463-1.695 2.015-1.864 3.586-.133 1.232-.406 2.658-.144 3.775.943.262 1.955.144 2.964.144h3.154c5.162 0 10.588-.172 15.583-.049.96.025 1.991.133 2.868-.191.37-1.852-.199-3.535-1.529-4.014-.483-.174-1.066-.043-1.626-.336-.27-2.103-1.199-3.907-3.871-3.583z" fill-rule="evenodd"/></svg>