<svg enable-background="new 0 0 60.892 85.686" viewBox="0 0 60.892 85.686" xmlns="http://www.w3.org/2000/svg"><g clip-rule="evenodd" fill-rule="evenodd"><path d="m15.029 44.256c-.423-.516-1.103-.674-1.653-.93-3.993-1.859-7.267-4.617-9.71-8.16-2.786-4.041-4.434-9.816-3.306-16.322.974-5.625 3.921-9.799 7.54-12.914 3.706-3.189 8.456-5.518 14.773-5.889 5.983-.35 11.092 1.568 14.669 3.822 3.808 2.4 6.776 5.705 8.678 9.764 1.929 4.113 2.842 10.057 1.24 15.494-1.392 4.725-4.09 8.209-7.386 11.055-1.097.988-2.257 1.812-3.616 2.531-1.899 1.006-4.241 2.02-6.611 2.635-.797.205-1.66.344-2.376.67-1.526.695-3.369 2.021-3.512 3.926-.273 3.639 3.846 4.09 6.044 5.32 1.653.928 2.792 1.863 4.132 3.203 2.389 2.389 4.174 5.566 4.494 10.123.336 4.801-1.365 8.316-3.512 11.002-2.201 2.756-4.943 4.793-8.936 5.682-4.729 1.055-8.986-.021-12.139-1.703-3.187-1.701-5.542-4.172-7.076-7.541-.766-1.678-1.333-3.694-1.345-5.992-.026-4.861 1.574-8.08 3.823-10.795.77-.932 1.681-1.852 2.789-2.688.291-.219.938-.545.981-.826.069-.445-1.202-1.606-1.498-2.221-.3-.623-.515-1.369-.568-1.91-.186-1.908.44-3.467 1.137-4.598.755-1.228 1.775-1.933 2.944-2.738zm19.059-20.713c.024-2.559-.838-4.85-1.911-6.455-.327-.49-.577-1.037-.878-1.395-1.427-1.693-4.429-3.293-7.542-3.152-2.89.131-5.206 1.471-6.715 2.996-2.729 2.758-4.004 8.006-2.066 12.139 1.655 3.529 5.062 6.508 10.124 6.096 2.842-.232 4.679-1.621 6.405-3.254 1.288-1.904 2.557-4.164 2.583-6.975zm-15.96 44.164c-1.555 3.051.541 6.021 3.15 6.559 2.802.578 5.195-1.656 5.217-4.287.013-1.6-.996-3.061-1.705-3.77-.551-.551-1.654-1.434-2.686-1.602-1.483.43-3.389 1.948-3.976 3.1z"/><path d="m52.993 2.676c3.131-.258 5.739 1.5 6.921 3.512 2.138 3.635.478 8.115-2.169 9.918-2.329 1.586-5.74 1.668-8.11.154-2.002-1.277-3.861-3.949-3.306-7.488.285-1.814 1.08-3.072 2.221-4.133 1.087-1.008 2.561-1.809 4.443-1.963z"/></g></svg>