<svg enable-background="new 0 0 78.03 71.639" viewBox="0 0 78.03 71.639" xmlns="http://www.w3.org/2000/svg"><path clip-rule="evenodd" d="m17.866 58.937c2.55 1.882 4.624 5.036 8.688 5.436 2.181.214 4.549-.01 6.91.152 1.076.074 2.283-.051 3.454-.051 5.69 0 11.363-.051 17.273-.051 3.24 0 6.909.102 10.364.102 1.211 0 2.408.106 3.454-.051 2.81-.422 1.92-4.106 1.981-7.214.038-1.915-.051-3.727-.051-5.385 0-7.559-.153-13.935-.152-21.642 0-1.718.035-3.477-.051-5.385-.116-2.565.669-5.642-1.219-6.503-.812-.37-2.465-.22-3.557-.254-3.879-.122-7.334-.051-10.923-.051-5.165 0-9.992-.051-14.784-.051-2.344 0-5.269-.237-7.265.152-2.014.394-3.583 1.434-4.877 2.642-2.436 2.273-4.771 5.469-5.843 9.196-1.272 4.426-.664 9.729.711 13.057 1.487 3.597 3.595 6.455 6.351 8.687 1.392 1.128 3.114 1.872 5.589 1.931 6.231.149 12.256.051 18.238.051 2.105 0 4.343.353 5.131-1.067.333-.599.33-1.63.306-2.642-.11-4.447-.053-9.201-.052-13.92.001-2.013.175-3.982-.152-5.639-.407-2.063-2.637-1.728-5.029-1.728-2.951 0-5.934-.051-9.094-.051-1.993 0-4.274-.152-5.894.203-2.754.604-4.89 4.095-4.521 7.57.179 1.686.938 3.241 1.778 4.319.923 1.183 1.767 2.126 3.81 2.286.881.068 1.856.05 2.946 0 .903-.042 2.102.208 2.997-.051 1.295-.375 1.713-2.568.356-3.353-.621-.358-1.84-.235-2.643-.203-3.006.12-5.026-.829-5.131-3.455-.063-1.563.839-3.089 2.184-3.505.848-.263 2.052-.203 3.099-.203 2.098 0 4.354.021 6.504 0 .936-.009 2.149-.074 2.997.152 1.859.497 1.422 2.678 1.523 4.928.061 1.322 0 2.596 0 3.912 0 1.312.044 2.451.052 3.861.011 2.133.237 4.227-1.321 4.776-.766.27-1.842.096-2.845.102-2.972.016-5.981.051-9.044.051-2.224 0-4.135.132-5.791-.152-1.766-.303-2.882-1.025-4.064-1.981-2.19-1.772-3.875-4.427-4.775-7.367-.504-1.645-.763-3.368-.763-5.284.001-1.817.328-3.551.915-5.131 1.062-2.858 2.72-5.354 5.08-7.062 1.294-.936 2.525-1.339 4.623-1.422 3.951-.158 7.79-.051 11.787-.051 3.931 0 7.697.13 11.735.051.873-.017 1.963.03 2.946.102 1.84.134 2.934-.061 3.506 1.321.426 1.029.216 3.154.254 4.471.046 1.577-.077 2.972 0 4.37.079 1.433.001 3.007 0 4.572-.001 4.732.17 9.467.152 13.92-.012 3.034.146 6.18-.152 9.094-.562 1.981-3.783 1.204-6.3 1.321-1.692.079-3.465.126-5.08.051-3.581-.167-6.934.098-10.313-.051-3.213-.142-6.973-.018-10.212 0-1.791.01-3.62.048-5.08-.152-1.473-.203-2.655-.806-3.76-1.474-2.025-1.226-3.977-3.021-5.588-4.928-1.601-1.895-3.019-4.058-4.064-6.401-1.048-2.348-2.025-4.974-2.438-8.027-.409-3.023-.614-6.308.051-9.601 1.161-5.755 3.633-10.336 7.011-13.971 1.708-1.838 3.564-3.546 5.995-4.521 2.413-.968 5.842-1.059 9.449-.915 3.439.138 6.979.051 10.466.051 3.466 0 6.869.051 10.212.051 5.148 0 10.038.051 15.444.051 1.426 0 3.765-.198 5.029.203 1.585.503 1.514 2.649 1.423 4.928-.134 3.334 0 7.199 0 10.72 0 5.283.221 9.992 0 14.631-.057 1.185.031 2.388.051 3.557.116 7.107.15 14.19.152 21.795 0 2.278.251 4.263-1.524 4.674-.717.166-1.649.077-2.591.051-.898-.025-1.813.102-2.642.102-5.439.001-10.946-.029-16.104-.153-1.74-.041-3.498.028-5.233-.05-1.761-.081-3.571-.031-5.284.05-1.807.086-3.551-.031-5.334 0-3.434.061-7.061-.103-10.364-.05-1.727.027-3.408.004-5.08-.152-3.363-.315-5.614-1.443-7.772-3.1-4.061-3.116-7.564-6.998-10.263-11.532-3.986-6.698-6.75-15.921-5.538-26.52.353-3.083 1.273-6.084 2.185-8.688 2.726-7.786 7.76-14.338 13.972-18.747 2.173-1.543 4.734-2.646 8.382-2.693 1.891-.024 3.785.051 5.69.051 1.819 0 3.663.098 5.487.051 3.61-.093 7.386.175 11.38 0 3.745-.165 7.563.245 11.38.102 2.873-.108 5.438.102 8.484.101 1.942 0 3.257-.078 3.76 1.169.444 1.104.203 4.447-.356 5.131-.107.13-.445.467-.66.559-.783.335-2.658.148-3.658.153-8.876.043-18.121-.106-26.722-.107-2.524-.001-5.138-.199-7.569-.102-2.729.109-5.084-.068-7.266.508-1.981.523-3.511 1.667-4.928 2.845-4.07 3.384-7.59 8.153-9.652 13.615-.683 1.807-1.204 3.962-1.575 6.198-1.205 7.272.408 14.63 2.846 19.56 1.661 3.362 3.687 6.249 6.4 9.094z" fill-rule="evenodd"/></svg>