<svg enable-background="new 0 0 166.191 158.883" viewBox="0 0 166.191 158.883" xmlns="http://www.w3.org/2000/svg"><g clip-rule="evenodd" fill-rule="evenodd"><path d="m165.859.088c.021.041.042.084.095.094.25 9.447.142 19.051.142 28.631.001 14.254.044 28.209.048 42.639.002 7.178.047 14.395.048 21.059 0 4.645-.001 9.312 0 14.197 0 2.365.004 4.723-.19 7.004-.738 8.695-3.261 15.93-7.051 21.816-3.814 5.926-8.477 10.764-14.149 14.67-5.647 3.887-12.552 6.842-20.775 8.045-4.361.639-9.137.521-13.913.52-4.745 0-9.303 0-14.007-.094.252-.541 1.026-.818 1.608-1.184 1.7-1.064 3.456-2.307 4.922-3.645 5.806-4.92 10.338-11.07 12.919-19.26.867-2.75 1.47-5.734 1.751-8.943.298-3.396.189-6.926.189-10.459.001-23.541-.096-49.133-.095-73.494.001-9.004-.048-17.524-.047-25.885 0-4.404-.001-8.609 0-13.109 0-.834-.116-1.695.142-2.508 3.704-.1 7.458-.096 11.264-.094 3.81 0 7.698.178 11.546 0 1.954-.092 4.456-.057 6.436 0 6.267.174 12.851-.267 19.117 0z"/><path d="m110.727.229c.269 4.498.163 8.988.143 13.535-.031 6.736.046 13.727.047 20.775.001 4.57-.058 9.111.048 13.771.1 4.436 0 8.771 0 13.344-.001 16.266.044 32.34.047 48.129.001 4.926.157 9.529-.047 14.008-.21 4.578-1.052 8.227-2.366 11.641-2.594 6.734-6.643 11.949-12.021 15.996-1.32.992-2.714 1.973-4.212 2.791-4.41 2.412-9.789 4.412-16.468 4.543-9.099.18-18.449.004-27.922 0-.102-.334.349-.537.521-.662.792-.574 1.656-1.059 2.461-1.656 5.012-3.727 9.138-9.355 10.647-16.562.616-2.941.615-6.52.615-10.27.001-43.236-.188-86.621-.048-129.287 6.138-.469 12.748.156 19.168-.143 4.682-.217 9.996-.047 14.813-.047 4.967 0 9.84-.078 14.574.094z"/><path d="m55.454.278c.021.041.042.084.095.094.207 17.217.142 34.563.143 52.15 0 17.203.179 34.646-.048 51.818-4.321.133-8.522.229-12.398.096-3.984-.137-7.605-.791-10.885-1.893-9.505-3.193-16.447-9.029-21.91-16.375-.901-1.211-1.706-2.521-2.509-3.881-3.862-6.541-6.75-14.67-7.666-24.182-1.303-13.514 2.189-25.592 6.909-34.168.378-.688.861-1.303 1.183-1.986.662-1.408 1.623-2.588 2.508-3.834 1.325-1.861 2.871-3.516 4.449-5.158 2.545-2.648 5.611-5.129 8.85-7.051 4.1-2.436 8.554-4.143 14.007-5.158 1.835-.342 3.911-.484 5.964-.568 3.597-.146 7.619.084 11.308.096z"/><path d="m49.065 150.67c-1.952 2.387-4.609 4.066-7.43 5.584-3.35 1.451-7.116 2.83-12.021 2.604-7.191-.334-11.769-2.594-16.042-5.916-1.331-1.035-2.665-2.314-3.69-3.596-.264-.328-.43-.754-.711-1.137-1.729-2.363-3.326-5.389-4.164-8.613-1.074-4.131-1.136-8.988-.143-12.967.965-3.859 2.735-7.131 4.732-9.889.984-1.361 2.326-2.533 3.644-3.693 2.57-2.26 5.863-4.012 9.512-5.062 1.953-.562 4.122-.932 6.437-1.041 6.388-.303 11.523 1.736 15.332 4.164 3.896 2.482 7.022 6.115 9.086 10.412 2.045 4.254 3.367 10.156 2.13 16.326-1.075 5.365-3.487 9.518-6.672 12.824z"/></g></svg>