<svg enable-background="new 0 0 78.836 32.3" viewBox="0 0 78.836 32.3" xmlns="http://www.w3.org/2000/svg"><path clip-rule="evenodd" d="m78.709.279c.192 1.67.145 4.262 0 6.075-6.098.272-12.355-.136-18.67.148-.245.925-.143 2.072-.148 3.161-.006 1.071-.043 2.191.099 3.161.684.265 1.468.198 2.223.197 5.363-.001 11.321-.108 16.497.148.17 1.731.138 4.165.049 5.828-1.442.291-2.99.099-4.544.099-4.609 0-9.561-.04-14.126.05-.305.905-.236 2.131-.198 3.26.039 1.106-.01 2.238.099 3.211 1.449.268 3.077.148 4.742.148h9.384c1.549 0 3.108-.032 4.594.198.195 1.847.1 4.245.049 6.174-.044.021-.088.043-.099.099-8.395.068-17.614.136-25.931-.099-.18-4.085.114-8.643-.149-12.645-.713-.263-1.504-.148-2.272-.148-5.368-.001-11.03-.039-16.497.05-.269.911-.166 1.929-.148 2.963.056 3.105-.063 6.69-.148 9.78-5.318.001-10.951.049-16.596.049-5.638 0-11.329.082-16.793-.099-.179-9.024-.099-18.762-.099-28.153 0-1.288-.119-2.609.148-3.853 16.487-.209 32.588.051 48.849.049 9.908-.001 19.813-.112 29.685.149zm-71.273 6.174c-.256 1.22-.117 2.541-.148 3.853-.032 1.335 0 2.693 0 4.05 0 3.887-.082 7.852.148 11.212 2.964.214 6.218.098 9.483.099h4.84c1.659 0 3.267.119 4.692-.148.176-.945.099-2.131.099-3.26 0-1.149.112-2.31-.149-3.21-2.772-.327-6.424.092-9.483-.05-1.075-.05-2.128.087-3.063-.148-.175-.832-.099-1.899-.099-2.914 0-1.047-.114-2.119.148-2.914 3.99-.284 8.398.019 12.546-.247.16-1.911.187-4.53-.05-6.372-6.231-.176-12.881-.152-18.964.049zm26.424-.05c-.388.299-.247.918-.247 1.433 0 1.649-.078 3.577.099 4.989 1.471.264 3.053.148 4.643.148 3.216 0 6.428.049 9.532.049 1.604 0 3.204.118 4.692-.148.17-1.92.172-4.515-.049-6.372-5.879-.221-13.052-.055-18.67-.099z" fill-rule="evenodd"/></svg>