<svg enable-background="new 0 0 74.941 77.563" viewBox="0 0 74.941 77.563" xmlns="http://www.w3.org/2000/svg"><g clip-rule="evenodd" fill-rule="evenodd"><path d="m74.578.077c.276 1.435.152 2.954.152 4.422 0 10.062.18 21.288 0 31.614-.857.228-1.841.105-2.846.152-3.036.141-6.586-.023-9.505-.102.16-.798.78-1.382 1.22-2.033 1.356-2.008 2.209-4.312 2.745-7.217.739-4.004-.123-8.193-1.524-11.182-2.437-4.377-5.948-7.984-11.436-9.352-1.749-.436-3.844-.519-5.997-.559-.169-1.652-.168-3.99 0-5.642 8.766-.21 18.248-.222 27.191-.101z"/><path d="m41.134.179c.169 1.835.167 4.365 0 6.201-1.258.486-2.569.539-3.812.864-8.523 2.233-15.601 5.998-21.551 10.877-.83.681-1.624 1.479-2.439 2.236-2.363 2.196-4.591 4.698-6.506 7.37-2.601 3.63-4.626 7.69-6.506 12.046.454 1.088.989 2.113 1.474 3.151.481 1.032.929 2.124 1.474 3.101 3.242 5.814 7.764 10.713 12.758 14.841 5.85 4.835 12.826 8.614 21.55 10.623 1.216.28 2.52.379 3.761.813.167 1.449.17 3.584 0 5.032-12.472.264-25.774.203-38.628.203-.813 0-1.658.118-2.439-.152-.38-13.088.148-25.919-.153-38.527-.078-3.236-.051-6.474-.051-9.708 0-9.321-.177-19.249.051-28.87 12.563-.225 25.7-.162 38.272-.254.923-.006 1.864-.053 2.745.153z"/><path d="m47.436 36.164c-.303-5.896.057-12.569-.152-18.603-.055-1.589.016-3.241 0-4.727-.004-.435-.123-.997.254-1.321 4.365-.146 7.78 1.097 9.911 3.354 1.591 1.56 2.92 3.707 3.507 6.302 1.405 6.21-1.838 11.021-5.54 13.469-1.997 1.322-4.749 2.096-7.98 1.526z"/><path d="m41.235 36.164c-1.204.269-2.474.152-3.71.152-8.578 0-17.378-.027-26.227.153-.243 1.722-.187 4.156-.051 6.048 1.177.274 2.432.152 3.66.152 6.058-.001 12.577-.051 18.907-.051 1.272 0 2.543.04 3.812 0 1.202-.038 2.453-.199 3.608.102.367 6.684-.009 14.223.203 20.991.029.917.045 1.884-.152 2.745-2.236-.214-4.302-.784-6.251-1.373-3.907-1.18-7.322-2.934-10.572-4.879-7.05-4.218-12.812-10.4-16.925-17.79-.388-.697-1.284-1.983-1.22-2.694.071-.793.718-1.908 1.169-2.693.511-.891.914-1.776 1.322-2.541.925-1.733 2.078-3.166 3.151-4.524 2.392-3.025 4.774-5.614 7.573-7.827 5.906-4.668 12.411-8.145 20.941-9.86.783-.157.808.269.813 1.169.042 7.653.092 15.294-.051 22.72z"/><path d="m74.73 42.619c.226 11.41.287 23.178.102 34.715-8.789.212-18.343.235-27.243.051-.168-1.263-.168-3.21 0-4.473 1.897-.054 3.618-.139 5.235-.509 4.782-1.094 8.041-3.534 10.623-6.912 1.685-2.204 2.853-5.029 3.304-8.387.618-4.604-.799-9.235-2.694-12.249-.443-.705-1.062-1.317-1.372-2.186 3.705-.203 8.168-.237 12.045-.05z"/><path d="m47.538 67.118c-.154-7.288-.153-14.256-.152-21.5 0-.992-.123-2.002.152-2.948 2.108-.092 4.822-.191 6.404.458 1.572.644 2.893 1.622 3.965 2.694 2.188 2.188 3.956 5.556 3.71 9.606-.205 3.369-1.557 5.99-3.406 7.98-2.054 2.21-4.949 3.88-9.149 3.914-.492.003-1.072.007-1.524-.204z"/></g></svg>