<svg enable-background="new 0 0 71.652 53.03" viewBox="0 0 71.652 53.03" xmlns="http://www.w3.org/2000/svg"><g clip-rule="evenodd" fill-rule="evenodd"><path d="m45.282 13.642c2.02-.341 3.969-1.093 5.957-1.644 1.999-.555 3.963-1.173 5.957-1.733 3.956-1.111 7.871-2.418 11.914-3.423.328.344.237 1.022.267 1.645.029.608.135 1.251-.044 1.733-.926.359-1.952.439-2.934.578-2.982.424-5.965 1.052-8.98 1.512-1.988.303-3.984.717-5.957 1.022-2.01.311-4.019.505-5.913 1.066.969.222 1.985.048 2.979 0 5.009-.238 10.192-.595 15.07-.845 1.984-.102 3.937-.208 5.868-.178.263.806.363 2.328.178 3.157-.512.241-1.127.027-1.734 0-.643-.029-1.335-.002-1.956-.045-1.157-.081-2.224-.18-3.557-.267-4.016-.263-8.092-.563-12.136-.801-.685-.04-1.367-.07-2.045-.133-.612-.058-1.267-.236-1.867 0 .894.37 1.881.481 2.845.666 2.886.555 5.906 1.03 8.891 1.557 2.976.524 5.968 1.069 8.891 1.601.966.175 1.951.24 2.845.622.236.884.356 2.33.178 3.334-1.087-.042-2.098-.516-3.112-.8-7.142-2.006-14.182-4.472-21.516-6.357.935.609 1.999.971 3.023 1.423 2.041.901 4.184 1.641 6.312 2.534 4.052 1.7 8.338 3.516 12.448 5.201 1.037.425 2.136.73 3.112 1.289.259 1.042.142 2.154.222 3.245.242 3.288.272 6.691.534 10.047.26 3.339.356 6.668.489 10.092.042 1.073.297 2.193 0 3.245-.6 0-1.188-.279-1.734-.489-1.571-.605-3.243-1.274-4.89-1.912-5.402-2.094-10.918-4.31-16.404-6.357-1.08-.402-2.202-.758-3.201-1.334-1.318-9.484-2.408-19.434-3.557-28.94.343-.517.991-.788 1.512-1.067 3.85-2.06 7.887-3.836 11.781-5.956 3.322-1.81 6.771-3.311 10.091-5.157 1.114-.62 2.222-1.343 3.334-1.733.72-.253.711.762.711 1.467 0 .372.069 1.638-.089 1.956-.147.294-.864.54-1.378.756-1.541.644-3.17 1.157-4.579 1.778-3.967 1.747-8.005 3.451-11.958 5.023-.996.396-1.979.903-2.979 1.289-1.009.389-2.041.744-2.889 1.333zm-2.712 1.156c.238.34.711.444 1.245.489.201-.165.17-.796.044-1.023-.494-.053-1.062.176-1.289.534z"/><path d="m2.382.261c.938.396 2.523 1.148 3.512 1.645 1.179.594 2.347 1.172 3.423 1.689 2.344 1.128 4.636 2.326 6.846 3.379 4.065 1.936 8.024 3.879 12.048 5.868.54.268 1.159.499 1.556.979-.127 2.442-.514 4.865-.845 7.29-.994 7.29-1.726 14.645-2.845 21.828-1.029.506-2.129.916-3.201 1.333-3.187 1.242-6.478 2.47-9.691 3.823-2.144.903-4.392 1.587-6.535 2.489-1.072.452-2.169.871-3.245 1.29-1.073.417-2.1.984-3.246 1.155-.219-.495-.156-1.066-.133-1.601.163-3.852.445-7.727.445-11.646 0-2.127.222-4.391.222-6.624 0-1.022.067-2.08.133-3.334.046-.867-.059-2.642.267-3.157.167-.264.984-.536 1.467-.756 1.546-.699 3.267-1.342 4.712-1.955 4.175-1.772 8.375-3.483 12.537-5.246 1.041-.441 2.071-.941 3.112-1.334 1.022-.386 2.112-.753 3.023-1.378-1.08.111-2.124.459-3.156.801-1.011.334-2.054.607-3.067.933-5.004 1.609-10.158 3.165-15.293 4.757-1.009.313-2.038.71-3.112.801-.27-.839-.021-2.219.044-3.156.897-.499 1.963-.524 2.979-.712 1.014-.187 2.041-.452 3.067-.622 2.071-.343 4.161-.729 6.224-1.155 4.133-.855 8.344-1.472 12.314-2.445-1.997-.077-4.02.185-6.046.356-4.053.343-8.171.583-12.225.934-2.029.176-4.052.344-6.046.312-.258-.855-.13-2.388.133-3.157 3.936-.026 8.04.238 12.092.4 4.055.163 8.097.42 11.958.4-.869-.47-1.912-.451-2.89-.622-2.961-.521-6.071-.905-9.113-1.423-3.013-.513-6.031-.986-9.069-1.467-.995-.158-2.032-.145-2.934-.578-.151-.939-.145-2.447.134-3.247 1.05.13 2.048.471 3.067.756 7.082 1.978 14.193 4.02 21.383 5.912-.391-.376-.931-.557-1.423-.756-3.506-1.416-7.163-2.874-10.758-4.311-3.067-1.228-6.078-2.473-9.202-3.735-.989-.4-2.057-.727-2.934-1.334-.13-.957-.07-2.423.178-3.29.032-.041.081-.067.133-.089zm25.429 14.004c-.236.177-.29.729-.089.978.46.039.998-.132 1.2-.488-.24-.294-.669-.399-1.111-.49z"/><path d="m45.149 10.975c-.351.268-.997.093-1.423.089-3.314-.028-6.829.009-10.269 0-2.429-.006-4.86.199-7.113-.089.125-.586.717-.706 1.067-1.066 1.936-1.457 4.082-3.269 6.135-4.846.681-.523 1.407-1.249 2.089-1.557-.005.003.21-.057.178 0 .958.495 1.74 1.165 2.445 1.912 1.218.855 2.384 1.765 3.512 2.712.911.634 1.805 1.286 2.667 2 .273.227.661.453.712.845z"/><path d="m37.813 22.623c.391.41.995.363 1.245.845.239.46.144 1.519.178 2.223.083 1.737.416 3.319-1.2 3.512-1.049.125-2.323-.049-3.557 0-.827.033-1.641.19-2.267-.133-.035-3.669.209-7.735.311-11.647.01-.387-.067-.856.267-1.111.658-.06 1.843.025 2.756.044 1.314.027 2.822-.147 3.245.934.242.618.148 1.723.178 2.356.035.73.158 1.863-.133 2.312-.241.369-.627.254-1.023.665zm-3.156-4.09c-.163.765-.247 2.188 0 2.934.54.2 1.73.211 2.267 0 .17-.855.057-2.147-.133-2.934-.548-.137-1.621-.247-2.134 0zm.044 5.201c-.414.61-.184 2.095-.178 2.978.544.291 2.014.25 2.623.045.187-.867.084-2.18-.133-2.934-.634-.214-1.549-.112-2.312-.089z"/><path d="m46.749 44.806c.474.901.563 2.067.8 3.156.237 1.086.51 2.211.534 3.289-.972.241-2.012.134-3.023.134-6.131-.002-12.433-.045-18.671-.045-.997 0-1.997.057-2.934-.178-.019-1.072.321-2.153.533-3.2.217-1.07.316-2.175.756-3.067 7.192-.24 14.695-.159 22.005-.089z"/></g></svg>