<svg enable-background="new 0 0 213.298 214.288" viewBox="0 0 213.298 214.288" xmlns="http://www.w3.org/2000/svg"><path clip-rule="evenodd" d="m213.079.48c.049.046.034.158.115.173-.084 6.366.271 13.85 0 20.345-.092 2.196-.045 4.437.057 6.609.105 2.2-.057 4.438-.057 6.667-.003 60.002-.113 119.384-.115 179.022 0 .337.039.592-.115.862-.135.114-.365.132-.632.115-69.36.084-142.753-.199-212.126-.346-.014-.062-.114-.039-.115-.114-.203-35.651 0-71.345 0-107.241 0-17.502.114-36.113 0-53.391-.028-4.292-.096-8.542.058-12.816.074-2.062-.074-4.179 0-6.322.077-2.211.085-4.514 0-6.782-.239-6.396 0-12.865 0-19.77 0-2.277-.269-4.761.058-6.724.049-.307-.082-.555.286-.632 7.217-.362 14.65.284 22.012-.058 3.738-.173 8.27 0 12.184 0 19.727.003 38.665.171 59.022.173 3.978.001 7.986-.057 11.953 0 11.985.172 23.526.057 35.748.058 24.333.001 47.45-.04 71.667.172zm-68.736 6.609c0-.641.268-3.158-.402-3.161-.459-.002-1.72.793-2.414 1.149-.741.381-1.509.82-2.126 1.149-7.37 3.927-14.5 7.352-21.84 11.092-14.574 7.429-29.07 15.162-43.62 22.357-5.858 2.896-11.634 5.963-17.471 8.85-5.871 2.903-11.641 5.977-17.471 8.908-10.959 5.509-21.99 11.043-32.816 16.61-.697.358-1.516.678-2.012 1.322 1.633 1.029 3.443 1.772 5.172 2.586 12.389 5.827 24.764 11.561 36.954 17.586 6.978 3.45 14.115 6.608 21.092 10.058 7 3.462 14.1 6.719 21.149 10.058 7.042 3.336 14.017 6.771 21.092 10.058 8.801 4.087 17.647 8.399 26.321 12.586 11.324 5.465 23.012 10.941 34.368 16.321.869.412 1.767.966 2.759 1.035.24-1.594.172-3.238.172-4.885 0-4.944 0-10.003 0-15.115 0-18.814 0-37.935 0-56.609 0-1.653.153-3.328-.172-4.942-4.956-.263-10.115-.215-15.172-.114-5.137.102-10.24-.222-15.115.114-.308 1.487-.172 3.05-.172 4.598 0 10.331-.059 21.066-.059 31.207 0 .755.135 1.542-.172 2.241-1.775-.595-3.355-1.609-5-2.471-1.652-.866-3.334-1.691-5-2.529-9.977-5.017-19.893-10.174-29.885-15.115-3.33-1.646-6.648-3.354-9.943-5.057-7.403-3.824-15.003-7.683-22.355-11.38-2.127-1.069-4.314-2.038-6.322-3.104-.367-.194-.872-.401-1.092-.805.707-.592 1.593-.976 2.414-1.379 6.021-2.96 11.948-5.805 17.874-8.735 19.507-9.648 39.275-19.2 58.677-28.793.83-.41 1.769-.737 2.472-1.379.045-.013.067-.048.058-.115.113-7.985.058-16.478.057-24.197zm65.114 135.344c-.002-21.64.057-44.245.058-66.436 0-.626.175-1.376-.229-1.954-.013-.045-.049-.067-.115-.057-9.654-.135-19.559-.02-29.311-.058-.067.027-.13.061-.172.114-.379.319-.23 2.933-.23 4.139 0 10.142-.023 20.075-.057 29.425-.127 34.734.002 69.077.057 103.161.074.003.08.073.173.058 9.675.281 20.061.201 29.598.057.013-.064.063-.089.114-.114.157-22.275.116-45.248.114-68.335z" fill-rule="evenodd"/></svg>