<svg enable-background="new 0 0 79.491 82.551" viewBox="0 0 79.491 82.551" xmlns="http://www.w3.org/2000/svg"><path clip-rule="evenodd" d="m40.428 82.473c-.394-1.498-.174-3.117-.15-4.697.025-1.614-.05-3.235-.05-4.847 0-9.506.089-19.034.05-28.982.764-.899 1.716-1.307 1.599-2.698-.088-1.055-.917-1.978-1.949-2.099-1.476-.173-2.869 1.311-2.349 2.948.146.462.352.746.649 1.049.277.283.634.487.75.899.149.532.028 1.491.05 2.248.068 2.368 0 5.03 0 7.346v19.288c0 2.46-.05 4.901-.05 7.295 0 .773.11 1.571-.15 2.299-4.133.23-7.8-.972-11.143-2.049-3.339-1.075-6.271-2.666-8.945-4.397-5.493-3.557-9.548-8.119-13.042-13.691-.422-.674-.71-1.48-1.099-2.249-2.527-4.987-4.52-11.381-4.598-18.789-.067-6.473 1.41-12.043 3.348-16.74.475-1.151 1.115-2.26 1.649-3.348.186-.378.267-.812.45-1.199.327-.695.864-1.373 1.299-2.049 3.019-4.702 7.172-8.548 11.793-11.643 2.68-1.676 5.641-3.342 8.995-4.397 3.361-1.058 7.126-1.966 11.393-1.799.181 1.619.1 3.462.1 5.247 0 1.769.164 3.522-.1 4.997-2.095.295-4.073.447-5.896.899-5.389 1.338-9.641 3.832-13.192 7.046-4.952 4.936-9.125 11.388-9.744 20.688-.205 3.069.097 6.267.749 9.144 1.853 8.172 6.253 13.98 12.043 18.339.948.713 1.984 1.402 3.048 1.998 1.071.601 2.253 1.185 3.498 1.449.358-.781.2-1.666.2-2.499 0-5.872 0-12.019 0-18.089 0-6.168.05-12.201.05-18.439 0-.811-.147-1.686.2-2.449.532.07 1 .701 1.399 1.1.437.437.83.94 1.25 1.349.433.506.812.769 1.299 1.299.309.336.866 1.165 1.399 1.149.508-.015.862-.824 1.149-1.199.734-.96 1.284-1.702 1.998-2.698.265-.369.766-1.192 1.15-1.2.522-.01.995.952 1.299 1.299.466.533.749.994 1.199 1.399.365.488.69.914 1.149 1.449.277.324.852 1.239 1.299 1.25.386.009.757-.588.999-.85.908-.981 1.599-2.143 2.499-3.048.405-.347.607-1.155 1.25-1.1.325 2.24-.157 5.287.25 7.445 1.595.421 4.148-.117 5.747.3-.06.625-.757.871-1.199 1.199-.928.69-1.86 1.45-2.798 2.199-.434.346-1.038.673-1.199 1.249.186.584.805.902 1.249 1.249.923.721 1.857 1.427 2.848 2.149.449.327 1.13.585 1.299 1.199-1.771.294-4.225-.094-5.996.2-.27.935-.15 1.959-.15 2.948v18.439c0 .969-.122 1.98.15 2.898.932.104 1.741-.449 2.498-.8 5.366-2.485 9.569-6.289 12.643-11.143 3.277-5.177 5.779-13.283 4.197-22.037-1.374-7.599-4.919-13.062-9.544-17.589-3.998-3.914-9.2-6.699-15.89-7.895-.946-.169-1.932-.124-2.898-.45-.181-2.351-.1-5.204-.1-7.795 0-.854-.145-1.728.2-2.399 1.905-.303 5.084.423 6.846.799 6.11 1.307 11.177 4.106 15.391 7.196 5.854 4.293 10.085 10.045 13.242 16.84 1.526 3.286 2.682 7.562 3.198 11.843.564 4.679.267 9.712-.649 13.892-1.797 8.194-5.551 14.526-10.444 19.638-3.211 3.37-7.033 6.348-11.543 8.495-2.252 1.072-4.719 1.898-7.395 2.648-2.631.741-5.608 1.197-8.747 1.054z" fill-rule="evenodd"/></svg>