<svg enable-background="new 0 0 169.108 112.534" viewBox="0 0 169.108 112.534" xmlns="http://www.w3.org/2000/svg"><path clip-rule="evenodd" d="m116.055 112.358c.236-.928.625-1.818.994-2.697 1.429-3.409 2.873-6.945 4.306-10.411.358-.869.812-1.729 1.089-2.603.581-1.837 1.313-3.532 2.034-5.3 1.422-3.484 2.853-6.97 4.26-10.458 1.408-3.492 2.899-6.948 4.164-10.506-.781-.326-1.704-.189-2.555-.189-4.348 0-9.074.047-13.582.047-1.819 0-3.613-.111-5.301.142-.257 1.622-.142 3.384-.142 5.205.001 11.475-.002 22.906 0 34.404 0 .824.097 1.681-.189 2.461-27.69.093-55.935.048-83.525.047-9.208 0-18.407.152-27.495-.189-.22-16.621-.05-33.11-.048-49.737.001-7.045.051-13.873 0-20.538-.098-13.121-.001-26.406 0-40.178 0-.527-.108-1.115.142-1.609 36.556.111 73.107-.138 110.5.095.255 1.168.143 2.403.142 3.596-.001 8.339.088 17.053-.095 25.649-.799.252-1.638.142-2.461.142-12.653 0-25.456 0-37.716 0-13.727 0-27.171-.101-40.793.094-.224.446-.172.99-.19 1.467-.141 3.77 0 7.746 0 11.594.001 13.048-.046 26.676.047 39.278.01.038.048.047.048.095 4.051.325 8.429.02 12.824.142 2.166.06 4.355-.052 6.531 0 2.14.051 4.263-.146 6.341-.047 4.241.202 8.663.047 13.061.047 4.391-.001 8.78.068 13.014-.095.021-.042.042-.085.095-.095.172-2.785.095-6 .095-8.991 0-.992.108-1.998-.142-2.887-12.745-.245-25.763-.013-38.285-.189-.009-.038-.048-.047-.047-.095-.1-9.267-.135-19.24.047-28.441 18.259-.109 36.82-.047 55.274-.047 3.663 0 7.37.098 11.026 0 7.336-.196 14.82.163 22.053-.189-.163-.938-.579-1.836-.946-2.697-2.853-6.695-5.769-13.57-8.565-20.349-.186-.45-.252-.919-.426-1.372-.781-2.04-1.882-4.172-2.697-6.294-1.15-2.99-2.473-5.923-3.691-8.944-.167-.414-.47-.85-.379-1.326 2.238-.213 4.574-.142 6.957-.142 2.348 0 4.777.015 7.192-.095 2.452-.111 4.927.111 7.383 0 2.504-.114 5.107-.032 7.43-.142.482-.022.957-.035 1.325.142 4.982 11.724 10.037 23.79 15.097 35.776.516 1.224.858 2.516 1.372 3.739 2.223 5.298 4.555 10.636 6.768 16.137.269.671.763 1.396.709 2.035-.034.413-.434 1.146-.662 1.751-1.968 5.209-4.064 10.214-6.058 15.38-.89 2.306-1.676 4.599-2.602 6.909-3.16 7.873-6.355 15.913-9.418 23.851-.439 1.142-.942 2.259-1.372 3.408-.413 1.106-.763 2.291-1.467 3.265-9.22.094-18.312.095-27.731.095-1.282.001-2.556.099-3.74-.141z" fill-rule="evenodd"/></svg>