<svg enable-background="new 0 0 57.353 76.798" viewBox="0 0 57.353 76.798" xmlns="http://www.w3.org/2000/svg"><path clip-rule="evenodd" d="m38.127 16.708c.326-.432.378-1.098.526-1.723.981-4.123 3.056-7.397 5.74-9.9 1.475-1.377 3.387-2.623 5.453-3.492 2.111-.891 4.559-1.576 7.318-1.436.297 1.758.053 3.725.144 5.644.092 1.949.041 3.969-.144 5.74-2.319.207-3.983 1.064-5.31 2.393-1.284 1.283-2.273 3.029-2.248 5.451.025 2.371.986 4.174 2.248 5.453 1.307 1.326 3.054 2.072 5.31 2.346.265 2.719.061 5.797.096 8.656.012.922.11 1.861-.144 2.68-5.737.014-9.638-2.225-12.772-4.975-1.553-1.432-2.836-3.1-3.922-5.023-1.089-1.928-1.646-4.193-2.248-6.648-.459 1.195-.637 2.381-1.005 3.492-1.093 3.305-2.899 5.967-5.214 8.131-.417.391-.719.775-1.148 1.102-1.22.926-2.61 1.777-4.209 2.439-2.122.877-4.494 1.355-7.318 1.578-.257.83-.144 1.789-.144 2.727 0 2.754.078 5.873-.096 8.514-1.078.275-2.054.365-2.966.766-2.568 1.131-4.872 3.791-4.592 7.701.294 4.109 3.473 6.643 7.558 7.127.159 3.557.159 7.781 0 11.338-4.28.141-7.9-1.311-10.571-3.158-2.736-1.891-5.006-4.4-6.458-7.414-1.49-3.092-2.499-7.338-1.77-11.623.659-3.875 2.294-7.041 4.449-9.424 2.793-3.377 6.792-5.549 11.863-6.648-.561-.342-1.221-.385-1.818-.527-4.22-1.002-7.592-3.176-9.997-6.074-2.168-2.418-3.815-5.494-4.449-9.375-.7-4.289.102-8.478 1.579-11.623 1.403-2.99 3.687-5.506 6.362-7.463 2.794-2.045 6.033-3.244 10.332-3.443 2.381-.111 5.213.412 7.032 1.1 1.972.744 3.78 1.668 5.166 2.822.43.357.849.838 1.292 1.244 2.129 1.949 3.872 4.617 4.975 7.605.461 1.246.64 2.59 1.1 3.92zm-25.065-2.105c-1.099 1.439-2.039 4.027-1.339 6.697.864 3.293 4.02 6.021 8.084 5.693 2.056-.168 3.744-1.156 4.879-2.393 1.181-1.285 2.093-2.924 2.152-5.119.07-2.607-1.085-4.434-2.344-5.691-1.289-1.289-3.307-2.399-5.836-2.201-2.68.211-4.376 1.418-5.596 3.014z" fill-rule="evenodd"/></svg>