<svg enable-background="new 0 0 70.514 70.879" viewBox="0 0 70.514 70.879" xmlns="http://www.w3.org/2000/svg"><path clip-rule="evenodd" d="m70.397.345c.195 4.924.099 10.399.049 15.405-1.024.251-2.121.176-3.179.146-3.361-.094-6.766-.049-10.172-.048-13.516 0-27.358-.066-40.542 0-.021.043-.043.087-.098.098-.095 4.979-.05 10.098-.049 15.258 0 1.665-.112 3.333.099 4.891 2.977.258 6.025.147 9.096.146 9.081-.001 18.493.137 27.631 0 .315-.348.23-1.467.098-1.956-1.301-.249-2.68-.131-4.059-.098-4.19.1-8.604-.049-12.96-.049-5.897 0-11.876.029-17.654-.098-.359-1.254-.036-2.613-.099-3.961-.183-3.958.025-8.229.05-12.031 16.018-.237 32.771.05 48.758.049 1.027 0 2.082-.115 3.08.147.05 17.337.146 35.188-.049 52.523-5.85.188-11.728.049-17.605.049-5.842 0-11.694.141-17.507 0-11.61-.282-23.509.166-35.114-.245-.177-5.31-.141-10.838-.049-15.748 17.029-.285 35.537.17 53.11-.048.316-.322.234-1.444.098-1.908-.942-.266-2.071-.146-3.228-.146-7.711 0-15.618-.048-23.376-.049-8.91-.001-17.863.031-26.556-.196-.26-1.996-.135-4.07-.147-6.162-.073-13.812.05-28.415.05-42.986 0-.935-.102-2.87.146-3.228.036-.046.089-.074.147-.098 22.465-.029 45.288.194 67.977.196.662 0 1.41-.112 2.054.147z" fill-rule="evenodd"/></svg>