<svg enable-background="new 0 0 70.694 77.845" viewBox="0 0 70.694 77.845" xmlns="http://www.w3.org/2000/svg"><g clip-rule="evenodd" fill-rule="evenodd"><path d="m49.499 11.45c-.52-.092-.782-.627-1.1-.957-.98-1.016-2.101-1.947-3.394-2.723-2.964-1.914-8.101-1.99-11.52-.383-3.257 1.531-5.679 3.938-6.979 7.312-1.514 3.932-.91 8.561.812 11.664 1.658 2.984 4.293 5.486 7.744 6.549 3.114.957 7.615.482 9.751-1.053.175-3.967-.11-8.396.144-12.285 3.284-.189 7.105-.096 10.468-.047.189.152-.12.344-.191.717-.157.822-.078 1.627-.191 2.342-.789 4.979-2.877 8.709-5.831 11.664-3.358 3.357-8.056 5.42-14.388 5.641-3.357.115-6.03-.639-8.365-1.674-4.614-2.045-7.782-5.6-9.847-10.133-.786-1.727-1.396-3.639-1.625-5.879-.107-1.049.229-2.742-1.1-2.582.246-.184.797-.062.908-.383.325-5.879 2.628-10.643 5.879-13.766 3.246-3.117 7.172-5.186 12.858-5.449 3.427-.16 7.165.418 9.655 1.482 1.893.807 3.526 1.914 5.115 3.201.441.357 1.157.91 1.338 1.387.271.713.095 1.961.095 2.773v1.434c.003.369.119.884-.236 1.148z"/><path d="m13.315 19.575c-2.855.695-5.532 2.732-4.971 6.453.409 2.715 2.546 4.664 4.254 6.406 5.259 5.365 10.717 10.922 16.013 15.965 2.053 2.022 4.159 4.008 6.31 6.119.28.273.698.764 1.004.764.296 0 .802-.586 1.1-.908 4.635-5.021 9.804-10.119 14.292-15.104 2.347-2.479 4.928-5.312 7.648-8.031 1.292-1.291 2.553-2.717 3.059-4.779.539-2.199-.41-4.807-2.007-5.977-.49-.357-1.276-.537-1.673-.908 4.2-.025 7.398 1.367 9.273 3.824 1.574 1.967 2.671 3.932 3.011 6.883.34 2.957-.656 5.691-1.769 7.889-1.014 2-2.791 3.9-4.302 5.592-1.59 1.781-3.128 3.623-4.541 5.307-2.988 3.561-6.069 7.08-9.034 10.707-2.978 3.641-5.843 7.367-8.843 10.898-.938 1.248-1.987 2.418-2.963 3.633-.971 1.207-1.859 2.508-3.011 3.537-.75-.365-1.14-1.092-1.673-1.674-1.62-1.709-3.112-3.547-4.732-5.258-2.068-2.361-4.188-4.67-6.31-6.978-4.174-4.701-8.395-9.356-12.523-14.102-2.193-2.252-4.181-4.709-6.214-7.121-2.117-2.154-3.978-4.902-4.541-8.748-.631-4.312.539-8.1 2.772-10.229 2.218-2.562 5.653-4.414 10.371-4.16zm20.219 48.567c-.015 1.234 1.011 2.533 2.438 2.533 1.612 0 2.954-1.832 2.294-3.443-.373-.91-1.384-1.637-2.581-1.48-1.204.155-2.135 1.073-2.151 2.39z"/></g></svg>