<svg enable-background="new 0 0 78.978 42.684" viewBox="0 0 78.978 42.684" xmlns="http://www.w3.org/2000/svg"><g clip-rule="evenodd" fill-rule="evenodd"><path d="m21.81.047c.272 1.045.2 2.915 0 3.847-6.449-.015-10.474 2.513-13.666 5.972-2.851 3.089-5.212 9.04-3.796 15.134.797 3.432 2.554 6.386 4.758 8.554 2.199 2.163 5.245 3.898 8.706 4.606 4.252.87 8.268-.248 11.034-1.67 2.134-1.097 3.95-2.604 5.467-4.504.339-.426 1.031-1.806 1.468-1.822.462-.017 1.083 1.213 1.417 1.67 1.26 1.723 2.993 3.261 4.708 4.403 2.47 1.647 5.537 2.257 9.06 2.582.167 1.057.167 2.79 0 3.847-5.922.252-10.521-2.083-13.869-4.96-.4-.344-.928-1.001-1.316-1.012-.494-.015-1.852 1.337-2.227 1.62-2.165 1.634-4.838 2.854-7.744 3.645-4.313 1.173-9.677.302-12.957-1.165-3.527-1.576-6.18-3.809-8.503-6.731-2.273-2.859-3.846-6.283-4.252-10.933-.653-7.49 2.123-13.01 5.72-16.602.538-.537 1.024-1.159 1.569-1.62 2.483-2.101 5.493-3.581 9.161-4.454 1.549-.371 3.318-.545 5.262-.407z"/><path d="m78.853.401c.167 1.024.167 2.721 0 3.746-7.776.163-16.138.019-24.042.051-3.082.012-6.102-.101-8.402.557-5.586 1.596-9.878 5.464-11.743 10.882-.37 1.076-.602 2.257-1.063 3.442-3.295.076-7.459.133-10.882-.05-.172-1.013-.159-2.68 0-3.695 1.089-.182 2.385-.102 3.695-.102 1.142 0 2.725.254 3.644-.101.745-.288 1.31-2.219 1.67-2.936 1.531-3.045 3.514-5.657 6.074-7.643.744-.577 1.691-1.172 2.582-1.62.938-.472 1.87-1.031 2.834-1.367 1.064-.37 2.15-.605 3.34-.86 3.083-.662 7.186-.506 11.085-.506 4.724-.001 9.497.051 14.325.051 2.338 0 4.681-.11 6.883.151z"/><path d="m21.81 8.247c.195 1.003.105 2.559.05 3.645-.495.211-1.102.117-1.62.152-2.685.18-4.606 1.542-6.023 3.037-.799 1.047-1.592 2.287-1.974 3.695-1.606 5.926 2.981 11.629 8.807 11.642 2.139.005 3.973-.754 5.264-1.721.396-.297.96-.639 1.063-1.215-.466-.427-1.425-.253-2.277-.253-.879 0-1.792.104-2.379-.152-.188-.967-.125-2.485 0-3.341 1.658-.184 3.566-.101 5.416-.101 1.866 0 3.76-.122 5.365.152-.138 2.562-1.438 4.399-2.733 5.973-1.291 1.484-2.669 2.503-4.403 3.34-1.748.844-4.029 1.362-6.478 1.114-3.835-.388-7.547-2.505-9.617-5.77-.996-1.572-1.868-3.504-2.075-5.619-.48-4.898 1.365-8.686 3.998-11.186 2.043-1.939 4.492-3.295 8.099-3.543.519-.037 1.137-.061 1.517.151z"/><path d="m62.96 8.5c.264 1.321.152 2.722.152 4.1 0 8.259-.051 17.151-.051 25.662 0 1.395.124 2.812-.152 4.151-.915.128-2.472.097-3.441-.051-.272-9.846.059-20.242-.152-29.964-.666-.267-1.435-.152-2.177-.152-5.283 0-11.326-.475-13.21 2.885.341.434 1.025.304 1.62.304 1.706 0 3.893.041 5.416.152.269.898.192 2.616.05 3.594-.987.26-2.086.101-3.189.101-1.085 0-2.224.053-3.341 0-2.207-.104-4.496.091-6.479-.203.014-1.598.796-3.011 1.468-4.252.325-.601.747-1.137 1.215-1.67s.854-1.138 1.316-1.569c.949-.885 2.217-1.645 3.492-2.177 1.391-.579 3.051-1.062 4.758-1.063h6.377c2.105 0 4.259-.11 6.328.152z"/><path d="m68.122 8.399c3.558.07 7.413-.157 10.73.152.162 1.017.169 2.68 0 3.695-2.118.262-4.914-.164-7.086.152-.412 9.641.077 20.241-.253 30.015-.975.167-2.62.167-3.594 0-.2-11.394-.096-22.54 0-33.862.104-.015.1-.137.203-.152z"/><path d="m50.964 23.887c.271.863.19 2.548.05 3.493-1.626.234-3.732.05-5.517.05-.573 0-1.255-.15-1.62.253.081.618.716 1.024 1.165 1.367 1.468 1.122 3.461 1.821 5.922 1.923.164.944.168 2.549 0 3.493-5.074.264-8.356-2.138-10.629-5.011-.529-.788-1.026-1.685-1.468-2.632-.422-.906-.889-1.946-.81-3.037 3.783-.156 9.1-.095 12.907.101z"/></g></svg>