<svg enable-background="new 0 0 36.912 37.139" viewBox="0 0 36.912 37.139" xmlns="http://www.w3.org/2000/svg"><path d="m11.019 3.6c1.705-2.246 4.49-3.649 7.318-3.599 2.767.007 5.501 1.381 7.133 3.622 1.285 1.569 1.952 3.612 1.999 5.62 2.272-.032 4.537.784 6.246 2.287 1.954 1.646 3.139 4.164 3.193 6.717.048 1.44-.274 2.882-.891 4.183-1.516 3.146-4.865 5.34-8.372 5.353-.056.12-.025.256-.033.384-.04 2.608-1.319 5.123-3.275 6.824-2.575 2.221-6.457 2.799-9.549 1.358-3.044-1.283-5.209-4.366-5.451-7.654-.049-.241-.002-.492-.053-.731-3.048.105-6.029-1.559-7.702-4.081-1.507-2.228-1.974-5.123-1.241-7.71.583-2.138 1.955-4.069 3.848-5.236 1.445-.98 3.193-1.463 4.929-1.487-.01-2.078.573-4.221 1.901-5.85zm6.28-1.839c-1.491.186-2.905.863-4.018 1.869-1.665 1.414-2.534 3.637-2.482 5.8 2.219-.004 4.437-.059 6.656-.062.019 2.795.033 5.593.07 8.389-2.774.061-5.559.074-8.338.105-.02-2.233-.062-4.465-.063-6.699-1.765.009-3.567.613-4.881 1.812-1.546 1.308-2.475 3.288-2.572 5.302-.103 1.815.483 3.661 1.602 5.094 1.424 1.806 3.684 2.988 6.006 2.915-.03-2.24-.06-4.481-.064-6.723 2.771-.033 5.545-.073 8.316-.093.077 2.791.069 5.608.112 8.408-2.219.023-4.44.037-6.659.06-.05 2.913 1.818 5.701 4.462 6.883 1.635.739 3.539.851 5.248.304 3.113-.932 5.293-4.092 5.235-7.312-2.212-.003-4.426.054-6.639.06-.039-2.809-.085-5.619-.084-8.428 2.765-.025 5.528-.066 8.293-.093.01.009.029.026.039.035.033 2.228.035 4.461.081 6.689 1.932-.007 3.86-.802 5.229-2.17 1.423-1.338 2.299-3.243 2.356-5.197.079-2.231-.926-4.447-2.604-5.909-1.391-1.245-3.286-1.873-5.141-1.852-.005 2.242.037 4.484.052 6.726-2.78.04-5.56.073-8.34.094-.046-2.806-.073-5.613-.064-8.42 2.212-.039 4.427-.055 6.643-.082.011-1.93-.777-3.849-2.098-5.251-1.616-1.682-4.032-2.582-6.353-2.254zm3.476 9.273c-.012 1.662-.002 3.353.039 5.026 1.664-.011 3.329-.031 4.992-.064-.024-1.674-.039-3.347-.036-5.021-1.666.001-3.331.022-4.995.059zm-9.958.115c-.035 1.656 0 3.354.037 5.012 1.653.002 3.353-.013 5.007-.062.002-1.656-.034-3.341-.037-5.009-1.659-.002-3.349.018-5.007.059zm10.027 9.902c.017 1.707.015 3.411.065 5.117 1.664-.02 3.328-.038 4.992-.064-.014-1.705-.012-3.416-.064-5.116-1.665.022-3.33.028-4.993.063zm-9.951.101c.023 1.702.019 3.407.059 5.108 1.665.016 3.362-.018 5.026-.052-.014-1.709-.023-3.418-.06-5.126-1.675.015-3.355.013-5.025.07zm11.02 6.482c.114.042.238.077.361.092.002-.069.002-.137.003-.205-.126.025-.24.083-.364.113z"/></svg>