<svg enable-background="new 0 0 81.007 83.708" viewBox="0 0 81.007 83.708" xmlns="http://www.w3.org/2000/svg"><g clip-rule="evenodd" fill-rule="evenodd"><path d="m80.231 33.148c-.768.355-1.75.199-2.701.199-1.861 0-3.789 0-5.75 0-1.031 0-2.182.078-2.9-.1-.52-.336-.535-1.004-.701-1.5-1.191-3.604-3.186-6.91-5.449-9.602-2.619-3.111-5.889-5.666-9.703-7.551-3.834-1.896-8.961-3.213-14.301-2.851-5.451.369-9.316 1.953-13.104 4.101-3.383 1.92-6.611 5.213-8.852 8.4-2.385 3.396-4.283 7.635-4.949 12.303-.391 2.723-.508 5.65-.25 8.201.254 2.529.914 4.871 1.6 7.002 1.381 4.299 3.867 7.639 6.451 10.752 3.311 3.543 7.494 6.252 12.701 8 2.608.875 5.836 1.484 9.002 1.352 3.137-.133 6.111-.691 8.701-1.602 7.629-2.676 12.891-7.713 16.502-14.553 1.199-2.268 2.229-4.815 2.551-7.65-.412-.377-1.055-.25-1.6-.25-2.955 0-6-.051-9.051-.051-1.209.002-2.43.152-3.451-.199.018-.908.414-1.783.6-2.75.375-1.943.354-4.057 0-6.051-.17-.959-.519-1.848-.551-2.752.342-.4.955-.25 1.4-.25 7.924.002 16.48.113 24.404.201.27.9.15 1.863.15 2.801-.002 13.494.002 27.232 0 40.807 0 .92.121 1.865-.15 2.75-3.535.166-7.766.166-11.301 0-.332-.686-.201-1.547-.201-2.4 0-.83 0-1.736 0-2.6 0-1.746.119-3.578-.15-5.051-.445-.141-.627.398-.949.549-.277.256-.58.488-.85.75-4.793 4.016-10.764 7.67-18.254 9.201-2.524.518-5.295.979-8.15.951-11.703-.115-19.908-4.73-26.455-10.102-7.073-6.181-12.186-14.304-14.053-25.703-.197-1.203-.342-2.371-.4-3.6-.178-3.789-.012-7.543.65-10.953.428-2.189 1.074-4.246 1.75-6.15 2.711-7.631 7.236-13.887 13.203-18.553 6.023-4.711 13.318-8.144 23.154-8.601 6.129-.285 11.891.889 16.152 2.6 4.541 1.824 8.387 4.16 11.602 7.002 2.627 2.039 4.832 4.483 6.752 7.252.348.502.625.893.898 1.449.238.484.598.936.9 1.4 1.82 2.791 3.191 6.104 4.301 9.652.376 1.197.768 2.455.802 3.75z"/><path d="m66.129 33.148c-.898.379-1.951.189-2.951.15-2.096-.084-4.16.106-6.4 0-.951-.045-2.299.129-3.051-.1-.582-.178-1.098-1.301-1.5-1.752-1.494-1.664-3.361-3.184-5.502-4.199-2.899-1.377-7.455-1.686-10.951-.602-3.035.941-5.689 3.066-7.451 5.502-1.799 2.484-3.158 5.98-3.051 9.852.111 4.029 1.516 7.119 3.451 9.502 2.826 3.48 6.955 6.418 13.301 5.9 1.916-.156 3.6-.709 5.051-1.4 2.16-1.027 3.969-2.449 5.402-4.301.326-.424.914-1.582 1.449-1.75.791-.248 2.059-.006 3.051 0 2.16.012 4.189-.084 6.301 0 1.006.041 2.002-.045 2.9.199.09.654-.238 1.279-.449 1.852-1.445 3.883-3.881 7.453-6.652 10.051-2.539 2.383-5.226 4.215-8.701 5.65-3.158 1.307-8.164 2.176-12.402 1.701-2.824-.316-5.322-1.131-7.5-2.051-6.539-2.762-11.447-7.82-14.303-14.352-.971-2.223-1.803-4.693-2.199-7.352-.918-6.129.389-11.893 2.4-16.203 2.908-6.232 8.252-11.242 14.902-13.752 2.328-.879 4.943-1.557 8-1.699 3.871-.184 7.211.521 10.002 1.549 2.818 1.037 5.352 2.309 7.451 4.051 3.822 2.85 6.803 6.666 8.752 11.453.261.644.713 1.334.65 2.101z"/><path d="m30.723 32.799c2.172-2.295 4.781-4.271 8.852-4.551 3.756-.258 6.754 1.074 8.852 2.75 2.195 1.754 3.816 3.951 4.65 6.9 2.008 7.105-1.766 13.211-6.351 15.652-2.502 1.334-6.063 2.066-9.502 1.102-2.957-.83-5.115-2.514-6.801-4.752-1.688-2.24-2.908-4.957-2.85-8.701.054-3.594 1.372-6.105 3.15-8.4z"/></g></svg>