<svg enable-background="new 0 0 75.141 78.24" viewBox="0 0 75.141 78.24" xmlns="http://www.w3.org/2000/svg"><path clip-rule="evenodd" d="m48.45.251c.489 6.045 1.034 12.295 1.217 18.484-.947.23-1.989.184-3.017.146-2.818-.106-6.12.117-9.242-.049-.513-1.953-.341-4.59-.778-6.615-.763-.256-1.623-.146-2.433-.146-5.447 0-11.844-.119-17.463-.049-.039.01-.049.049-.098.049-.51 4.365-.784 8.795-1.07 13.23-.285 4.424-.721 8.853-1.021 13.281-.604 8.879-1.418 17.746-1.897 26.561.009.039.048.047.048.096 4.54.225 9.222.146 13.815.146 4.597 0 9.217.238 13.669-.049.101-2.649-.203-5.295-.389-7.977-.375-5.418-.624-10.773-1.021-16.006-.103-1.348-.108-2.689-.243-4.037-.131-1.299-.005-2.643-.39-3.891-6.675-.32-13.746.01-20.382-.293-.19-1.885.282-3.848.389-5.789.107-1.945.096-3.953.486-5.787 11.887-.113 24.162.049 36.192.049 2.47-.002 4.716.008 6.664.582 3.734 1.102 6.679 2.977 8.951 5.596 2.191 2.619 3.9 5.846 4.523 10.02.673 4.506-.642 8.898-2.384 11.869-.904 1.543-1.955 3.023-3.162 4.135-2.476 2.285-5.637 4.102-9.777 4.768-2.079.336-4.33.248-6.858.389.147 6.373.936 12.781 1.07 19.166-13.344.273-27.065-.047-40.376-.049-4.517 0-9.018.113-13.475-.145.064-3.143.357-6.496.584-9.777.67-9.715 1.369-19.348 2.092-29.285.7-9.629 1.418-19.418 2.092-29.283.178-2.615.29-5.715.584-8.611.082-.808.1-.855.681-.924.783-.092 1.716.019 2.578 0 6.217-.148 12.475.049 18.68.049 3.561 0 7.14.047 10.653.049 3.546-.001 7.049-.108 10.508.097zm14.935 40.277c.18-2.965-1.478-5.053-3.356-6.227-1.019-.637-2.197-.973-3.843-.973-1.544 0-3.569-.039-5.011.049-.281.478-.088 1.086-.049 1.605.222 2.92.324 5.816.535 8.707.085 1.164.043 2.334.39 3.357 6.293.83 11.014-1.264 11.334-6.518z" fill-rule="evenodd"/></svg>