<svg enable-background="new 0 0 82.879 65.228" viewBox="0 0 82.879 65.228" xmlns="http://www.w3.org/2000/svg"><g clip-rule="evenodd" fill-rule="evenodd"><path d="m82.764.253c.205 2.793.082 5.758.048 8.609-.017 1.42.111 2.863.049 4.232-.063 1.398.071 2.754-.146 4.037-6.894.174-14.141-.037-21.015.147-.271.781-.195 1.918-.195 3.016 0 1.117-.039 2.254.049 3.26.496.326 1.161.193 1.752.193 3.141 0 6.463.002 9.68 0 1.283 0 2.552-.113 3.697.146.178 4.111.098 8.664.098 12.988 0 1.426.117 2.865-.147 4.184-4.946.291-10.571-.096-15.518.195-.355 1.881-.053 3.861-.146 5.836-.264 5.598.186 11.959-.145 18-.043.021-.087.043-.097.096-8.536.08-16.576 0-25.101 0-2.828.002-5.635.062-8.367-.096-2.477-.145-4.882-.76-7.005-1.508-2.037-.721-4.106-1.65-5.642-2.822-3.361-2.561-6.114-5.09-8.464-8.514-2.246-3.27-4.309-7.18-5.254-11.723-.506-2.436-.758-4.959-.875-7.637-.116-2.646.342-5.203.875-7.588 2.054-9.186 7.151-15.522 13.814-20.139 3.854-2.812 8.199-4.738 14.448-5.107 2.184-.129 4.446 0 6.713 0 10.913.002 22.709.217 33.663.049 4.45-.069 8.898-.052 13.231.146zm-9.973 9.242c.883 0 1.898.184 2.384-.291.078-.182.078-.648 0-.828-.281-.293-.767-.25-1.119-.242-6.721.125-13.324.123-20.333 0-3.628-.064-7.327 0-10.994 0-5.324 0-11.211-.4-15.615.533-1.386.295-2.605.705-3.843 1.217-2.303.953-4.448 2.188-6.324 3.746-1.117.928-2.027 2.084-2.967 3.211-3.631 4.35-6.555 10.812-5.691 18.68.602 5.486 2.812 9.662 5.545 13.086.467.584.847 1.188 1.362 1.701.516.518 1.048 1.002 1.605 1.508 3.21 2.92 7.613 4.879 12.988 5.596 1.884.25 3.912.193 5.983.193 6.199 0 12.238.184 18.485-.049.255-5.699.105-12.104.195-17.998.015-1.002-.042-2.004 0-2.967.043-.982-.092-1.953.194-2.773 4.622-.291 9.923.096 14.545-.195.154-.336.154-1.219 0-1.557-4.403-.281-9.983.104-14.594-.193-.159-6.271.062-13.342 0-19.652-.009-.904-.112-1.832.146-2.676 5.888-.144 11.821-.052 18.048-.05z"/><path d="m52.896 9.592c.062 2.291.144 5.146-.049 7.539-5.496.109-11.349.049-17.172.049-1.897 0-3.826-.064-5.497.293-3.139.668-5.484 2.189-7.686 3.939-1.977 1.572-3.769 4.275-4.524 7.053-.947 3.481-.478 7.223.535 10.022 1.008 2.787 2.955 4.994 5.01 6.566 1.108.848 2.364 1.631 3.746 2.092 1.487.498 3.069.682 5.108.682 3.684 0 7.537.082 11.48-.098.263-.924.146-2.174.146-3.307 0-1.139.174-2.297-.097-3.162-4.465-.352-9.675.043-14.205-.244-.256-.613-.146-1.326-.146-1.994 0-1.748-.061-3.479.048-5.254.019-.299.146-.602.146-.875 0-.352-.135-.688-.146-1.07-.031-1.107 0-2.31 0-3.502 0-1.557-.097-3.123.097-4.525 7.841-.172 15.624-.125 23.106 0 .24 2.469.158 5.545.049 8.076-5.043.258-10.637-.033-15.761.145-.247.307-.166 1.172-.048 1.559 1.222.26 2.562.145 3.892.145 3.87 0 8.113-.08 11.869.098.27.828.128 1.75.146 2.627.094 4.478-.049 9.312-.048 14.107 0 1.898.08 3.752-.146 5.496-3.31.068-6.706.174-10.118.098-3.408-.076-6.885.115-10.313-.049-6.461-.307-11.448-2.779-14.982-5.936-1.618-1.332-2.828-2.996-3.989-4.766-1.145-1.746-2.121-3.77-2.725-5.984-.676-2.478-.924-5.117-.924-7.783 0-3.92 1.339-7.523 2.773-10.312.964-1.875 2.27-3.631 3.697-5.059 3.435-3.434 8.931-6.518 15.128-6.81 3.52-.166 7.227 0 10.896 0h5.448c1.777-.002 3.55-.119 5.256.144z"/></g></svg>