<svg enable-background="new 0 0 78.528 78.82" viewBox="0 0 78.528 78.82" xmlns="http://www.w3.org/2000/svg"><path clip-rule="evenodd" d="m78.07 37.3c-1.18.256-2.451.136-3.757.195-3.851.175-7.928 0-11.758 0-4.455-.001-9.177 0-13.855 0-.688 0-1.516.093-1.854-.098-.523-.294-.621-1.416-.927-1.952-.309-.54-.903-1.244-1.269-1.61-.96-.96-2.077-1.583-3.708-2.049-3.439-.982-6.604 1.01-8.05 2.928-.852 1.13-1.452 2.491-1.512 4.244-.122 3.519 1.76 6.076 4.098 7.416.601.344 1.323.629 2.098.781.753.148 1.669.255 2.537 0 .352-.769.244-1.942.244-3.073 0-1.141-.077-2.317.098-3.269.04-.009.048-.049.097-.049 9.307-.157 18.9-.145 28.297-.146 3.167 0 6.34-.081 9.465.097.3.647.195 1.42.195 2.147 0 11.683.061 24.399-.098 35.712-.856.286-1.782.159-2.684.195-2.868.115-6.024-.001-9.123 0-8.1.001-16.382-.002-24.296 0-2.118 0-4.157.087-6.099-.049-1.795-.126-3.549-.504-5.22-.878-6.527-1.46-11.924-4.449-16.441-8.099-6.723-5.433-11.686-12.926-13.805-22.978-.685-3.248-.971-7.604-.537-11.319.838-7.171 3.14-12.852 6.538-17.954 3.273-4.915 7.502-8.955 12.538-12.001 2.593-1.569 5.431-2.838 8.489-3.757 1.561-.469 3.274-.88 5.025-1.122 1.769-.244 3.745-.493 5.708-.585 3.093-.146 6.122.334 8.782.878 2.668.545 5.059 1.464 7.27 2.342 1.103.438 2.124 1.09 3.171 1.659 2.088 1.133 4.061 2.374 5.854 3.805 4.418 3.527 8.022 8.025 10.684 13.368 1.054 2.115 1.929 4.524 2.585 7.025.665 2.529 1.288 5.265 1.22 8.196z" fill-rule="evenodd"/></svg>