<svg clip-rule="evenodd" fill-rule="evenodd" stroke-linejoin="round" stroke-miterlimit="2" viewBox="0 0 560 400" xmlns="http://www.w3.org/2000/svg"><path d="m14 251.9h-14v363.9h112v-265.9c0-53.9-44.1-98-98-98m112-97.9v461.8h14v-363.9c0-77 63-140 140-140h140v-111.9h-140c-84.8 0-154 69.3-154 154m28 97.9v363.9h14v-265.9c0-61.6 50.4-112 112-112h140v-111.9h-140c-69.4 0-126 56.6-126 125.9m265.9 0h-140c-53.9 0-98 44.1-98 98v265.9h14.2c-.1 0-.2-.1-.2-.2v-167.8c0-46.2 37.8-84 84-84h139.8c.1 0 .2.1.2.2zm0 126h-140c-38.5 0-70 31.5-70 70v167.9h14v-70c0-30.8 25.2-56 56-56h140zm-363.9-84c0 7.7-6.3 14-14 14s-14-6.3-14-14 6.3-14 14-14 14 6.3 14 14" transform="matrix(.47619 0 0 .47619 180 53.381)"/></svg>