<svg enable-background="new 0 0 77.292 71.637" viewBox="0 0 77.292 71.637" xmlns="http://www.w3.org/2000/svg"><path clip-rule="evenodd" d="m46.85 68.534c-.002-.43.498-.547.757-.71 2.161-1.353 4.013-3.114 5.821-4.922 4.076-4.076 6.791-9.601 8.329-16.279.397-1.723.535-3.559.71-5.442.351-3.786-.747-7.566-1.704-10.459-.506-1.53-1.266-2.883-2.035-4.117-3.079-4.939-7.712-8.683-14.055-10.506-3.21-.923-7.305-1.095-10.979-.332-6.496 1.351-11.559 5.017-14.812 9.749-1.585 2.304-3.038 5.196-3.739 8.565-.729 3.509-.933 7.391.095 10.837.928 3.115 2.641 5.55 4.78 7.525 2.17 2.002 4.763 3.415 8.329 3.928 6.111.878 10.566-1.778 13.535-4.638.252-.243.45-.583.663-.899.568-.844 1.442-1.671 1.751-2.792-1.117-.254-2.344-.142-3.549-.142-3.601 0-7.409-.005-10.884-.142-.244-.578-.142-1.262-.142-1.893 0-3.111.058-6.61.047-9.938-.004-1.314-.168-2.648.142-3.833 9.476-.131 20.226-.042 29.956.047.512.67.676 1.625.804 2.508.409 2.817.532 6.18.189 9.133-.445 3.838-1.68 7.273-2.934 10.222-1.861 4.375-5.147 8.146-8.708 11.026-3.635 2.941-7.818 5.361-13.582 6.2-3.985.58-8.303.597-11.973-.332-6.916-1.749-12.396-5.266-16.326-9.985-1.97-2.382-3.715-5.139-4.827-8.376-1.103-3.211-2.334-6.658-2.461-10.695-.034-1.082-.048-2.141-.048-3.169 0-5.191 1.112-9.688 2.602-13.724 1.203-3.254 2.645-6.062 4.543-8.66 1.853-2.538 3.912-4.834 6.294-6.862 2.298-1.957 4.983-3.927 7.808-5.348 3.643-1.831 7.767-3.162 12.683-3.786 10.705-1.359 19.726 2.212 25.98 6.389 2.97 1.983 5.44 4.451 7.761 7.004 2.362 2.597 4.224 5.647 5.821 8.897 1.578 3.21 2.822 7.167 3.407 11.357.607 4.343.493 9.506-.237 13.818-1.076 6.359-2.941 11.74-5.679 16.468-.446.771-.969 1.507-1.419 2.271-.439.745-.81 1.608-1.562 2.082-6.964-.02-14.188.1-21.152-.045z" fill-rule="evenodd"/></svg>