<svg enable-background="new 0 0 61.579 79.486" viewBox="0 0 61.579 79.486" xmlns="http://www.w3.org/2000/svg"><path clip-rule="evenodd" d="m30.578 0c.375-.006.48 1.184.61 1.726.992 4.152 3.497 7.238 5.535 10.26 2.729 3.299 5.718 6.336 8.838 9.244 3.07 2.949 6.647 5.355 9.345 8.734 1.34 1.68 2.491 3.506 3.556 5.484 1.042 1.941 1.932 4.168 2.336 6.603-.696.02-1.368-.248-2.031-.457-7.084-2.232-14.368-4.25-21.636-6.451-2.576-.779-5.605-1.531-8.838-.963-4.358.764-7.393 2.75-9.599 5.789-2.091 2.881-3.562 7.299-2.387 11.986.687 2.74 1.972 4.791 3.555 6.652 1.86 2.109 4.564 3.738 7.923 4.369 3.731.699 7.514-.102 10.158-1.576 3.629-2.021 6.802-5.85 7.415-11.02.112-.949.11-1.869 0-2.846-.096-.84-.4-1.654-.406-2.539 1.442.131 2.822.662 4.215 1.066 4.102 1.193 8.39 2.227 12.393 3.607.243 5.938-1.781 10.656-4.063 14.627-2.246 3.908-5.382 7.361-9.091 9.801-3.822 2.514-8.211 4.373-13.764 5.131-5.784.787-11.72-.32-16.15-2.236-8.682-3.749-14.8-10.77-17.523-20.26-1.445-5.035-1.218-11.805.305-16.557 1.541-4.811 3.901-8.658 6.906-11.986 2-2.232 4.549-3.852 6.705-5.891 1.076-1.02 2.151-2.051 3.199-3.098 1.05-1.051 2.018-2.182 3.047-3.252 4.072-4.226 7.713-9.182 9.346-15.795-.003-.086.037-.13.101-.152z" fill-rule="evenodd"/></svg>