<svg enable-background="new 0 0 75.207 75.869" viewBox="0 0 75.207 75.869" xmlns="http://www.w3.org/2000/svg"><g clip-rule="evenodd" fill-rule="evenodd"><path d="m75.033.279c.267 1.531.147 3.098.147 4.661.002 10.736-.002 22.014 0 32.974.003 12.51.087 25.375-.098 37.733-.044.022-.089.043-.099.098-9.395.239-18.943-.145-28.361.049-6.271.129-12.455.049-18.695.049-9.033 0-18.35-.028-27.724-.246-.022-.044-.043-.088-.099-.098-.181-5.884-.08-12.434-.049-18.597.079-15.569.002-31.536 0-47.499 0-2.602-.115-5.647 0-8.44.039-.934.101-.857.639-.932.695-.095 1.546.052 2.356.052 5.409 0 11.096.098 16.241.098h27.92c1.575 0 3.191.066 4.76 0 1.528-.065 3.063-.12 4.563-.049 6.157.29 12.35-.312 18.499.147zm-38.225 40.775c1.115 1.506 2.349 2.907 3.484 4.417 1.916 2.545 3.697 5.415 6.379 7.115 1.188.753 2.646 1.24 4.416 1.227.988-.007 2.281-.098 3.582-.098 1.258 0 2.549.088 3.681 0 1.415-.11 2.679-.775 3.336-1.521.891-1.01.706-2.441.785-4.318.034-.813.099-1.645.099-2.454-.001-5.566-.099-10.49-.099-16.144.001-2.497.463-5.693-.393-7.311-.99-1.873-2.917-2.11-5.79-2.11-1.509 0-3.025-.095-4.317 0-1.453.107-3.059.084-4.221.491-.73.255-1.476.889-1.913 1.423-.834 1.016-1.527 2.337-2.307 3.386-.224.302-.482.851-.982.834.025-1.925.684-3.894.736-5.79-.863-.455-2.169-.209-3.337-.196-.828.01-1.806-.254-2.356.246.313 3.875.688 8.074 1.08 11.973.059.588.418 1.399.098 1.963-.55-.15-.877-.724-1.178-1.129-2.311-3.123-4.603-6.178-7.017-9.127-1.433-1.527-2.938-3.057-5.544-3.68-1.249-.298-2.678-.246-4.27-.246-3.1 0-6.334-.356-7.802 1.276-1.001 1.112-.923 2.707-.981 4.809-.088 3.168-.01 6.75 0 9.765.013 3.632-.049 7.427-.049 11.09 0 1.377-.08 3.083.195 4.072.652 2.33 2.5 2.699 5.496 2.699 1.354 0 2.719.049 4.122.049 2.989 0 5.296-.236 6.673-1.668.319-.332.511-.779.786-1.178.546-.792 1.155-1.53 1.717-2.257.282-.366.381-.894.982-1.031.008 1.942-.87 3.934-.688 5.889.669.444 1.741.202 2.699.245 1.002.045 2.035.084 2.797-.196.084-2.214-.28-4.563-.49-6.87-.159-1.738-.339-3.461-.491-5.152-.048-.53-.297-1.122 0-1.619.581.157.703.769 1.082 1.126z"/><path d="m39.41 34.97c1.073-.363 2.194.093 3.287.196 3.276.31 6.744.865 10.206.933.41-.679.246-1.85.246-2.895 0-.994.142-2.127-.246-2.748-1.29-.09-2.746.083-4.171.196-1.005.08-2.054.477-2.943.147.02-.76.657-1.396 1.128-2.061.871-1.231 1.788-2.542 2.699-3.778.972-1.32 1.852-3.018 3.827-3.239 1.901-.212 2.941.898 3.092 2.601.174 1.983-.001 4.115 0 6.232 0 5.063.014 10.563.098 15.408.017.985.072 1.991 0 2.895-.166 2.064-2.016 3.422-4.171 2.453-1.397-.628-2.71-2.35-3.729-3.631-2.194-2.758-4.271-5.659-6.329-8.391-.522-.693-1.049-1.408-1.57-2.11-.514-.689-1.197-1.322-1.424-2.208z"/><path d="m35.091 39.043c-.523.318-1.163.089-1.718 0-1.649-.265-3.471-.357-5.25-.638-1.155-.182-2.356-.294-3.533-.442-1.144-.143-2.363-.445-3.435-.098-.112 1.074-.049 2.658-.049 4.122 0 .377-.064 1.064.146 1.275.355.355 1.265.01 1.718-.049.81-.106 1.846-.114 2.847-.196.968-.079 1.97-.315 2.698-.049-.184.909-.882 1.621-1.423 2.355-.548.744-1.041 1.557-1.619 2.257-1.528 1.823-2.814 4.57-5.496 4.465-1.069-.042-2.018-.856-2.307-1.865-.185-.646-.147-1.907-.147-2.699 0-1.758.049-3.616.049-5.545 0-1.804.136-3.687.049-5.544-.086-1.85-.106-3.797-.049-5.643.06-1.917-.072-3.822.049-5.643.139-2.066 1.293-3.617 3.631-2.846 1.638.54 3.013 2.295 4.073 3.631 2.302 2.9 4.447 5.843 6.624 8.734.831 1.104 1.649 2.15 2.503 3.238.267.341.639.708.639 1.18z"/></g></svg>