<svg enable-background="new 0 0 74.028 74.349" viewBox="0 0 74.028 74.349" xmlns="http://www.w3.org/2000/svg"><g clip-rule="evenodd" fill-rule="evenodd"><path d="m35.765.038c5.985-.285 11.493 1.066 15.706 2.864 8.697 3.712 14.76 9.998 18.94 18.155 1.003 1.955 1.848 4.407 2.448 6.837.635 2.567 1.087 5.258 1.155 8.084.147 6.145-1.008 11.209-2.864 15.614-3.146 7.468-8.37 13.39-15.014 17.415-4.722 2.862-10.688 5.029-17.831 5.312-6.01.239-11.386-1.034-15.707-2.863-4.412-1.868-7.987-4.338-11.087-7.438-3.171-3.172-5.686-6.441-7.807-10.764-2.022-4.121-3.575-9.061-3.696-14.829-.125-6.011.98-11.306 2.818-15.66 1.86-4.408 4.258-7.966 7.346-11.18 2.983-3.106 6.404-5.862 10.624-7.899 2.007-.968 4.305-1.888 6.791-2.494 2.551-.621 5.228-1.013 8.178-1.154zm-32.013 32.892c-.654 4.609-.118 9.306.971 13.166 1.64 5.818 4.443 10.327 7.945 14.136 1.16 1.263 2.482 2.356 3.742 3.604.551.546 1.387 1.04 2.125 1.524 5.016 3.29 11.929 6.01 20.141 5.45 4.756-.323 8.301-1.201 11.918-2.817 6.661-2.976 11.752-7.867 15.43-13.997 1.799-2.998 3.18-6.755 3.974-10.718.847-4.231.724-9.065-.231-13.304-1.796-7.971-5.685-13.775-10.995-18.433-2.572-2.256-5.567-4.142-9.1-5.59-4.414-1.808-10.328-2.971-16.355-2.264-8.785 1.032-14.837 4.686-19.864 9.563-4.979 5.03-8.487 11.128-9.701 19.68z"/><path d="m59.741 13.158c4.946 4.911 8.646 10.766 9.932 19.032.707 4.54.297 9.22-.647 13.12-.933 3.852-2.637 7.095-4.434 10.024-1.727 2.813-4.163 5.472-6.884 7.623-5.506 4.353-11.876 7.389-21.572 7.391-2.284.001-4.537-.31-6.468-.785-3.841-.945-7.255-2.374-10.209-4.25-4.287-2.722-8.019-6.631-10.672-11.041-1.759-2.924-3.297-6.584-4.111-10.394-.865-4.046-.856-8.773-.046-13.12 1.464-7.852 5.493-14.018 10.532-18.432 5.038-4.413 11.543-7.887 20.603-8.315 5.405-.256 10.303.927 14.044 2.541 3.903 1.684 7.121 3.911 9.932 6.606zm-27.625-5.221c-7.313 1.277-12.782 4.71-16.769 9.101-2.428 2.674-4.18 5.501-5.683 9.101-1.476 3.535-2.329 7.716-2.125 12.565.192 4.583 1.447 8.409 3.095 11.688 1.231 2.447 2.794 4.653 4.482 6.606 2.865 3.315 6.364 5.922 10.764 7.714 3.543 1.443 7.781 2.306 12.611 2.125 4.385-.164 8.419-1.417 11.688-3.095 3.303-1.696 6.052-3.822 8.407-6.375 2.342-2.538 4.322-5.511 5.774-9.008 1.448-3.486 2.385-7.71 2.125-12.566-.244-4.583-1.377-8.409-3.049-11.733-2.136-4.248-4.726-7.439-8.269-10.21-.699-.546-1.338-1.137-2.079-1.616-4.279-2.773-10.408-5.16-17.555-4.666-1.123.078-2.307.176-3.417.369z"/><path d="m38.352 33.068c-.931.179-2.366.097-3.372.046-.466-.438-.687-1.099-1.017-1.663-.327-.56-.65-1.106-1.108-1.524-.733-1.023-1.789-1.722-2.818-2.448-1.982-1.289-4.744-1.859-7.529-1.432-2.463.378-4.68 1.637-6.053 3.141-1.465 1.607-2.684 3.625-3.049 6.19-.809 5.701 2.461 10.008 6.283 11.872 2.121 1.035 5.081 1.281 7.715.555 2.341-.646 4.212-1.947 5.59-3.649 1.346-1.664 2.49-3.818 2.494-6.606-.837-.248-1.788-.139-2.726-.139-2.777.001-5.762.132-8.315-.138-.151-.98-.151-2.577 0-3.558 4.441-.17 9.79-.112 14.09-.046.573 1.581.647 3.571.462 5.22-.181 1.614-.724 3.255-1.293 4.434-1.229 2.547-3.184 4.683-5.358 6.099-2.324 1.511-5.532 2.532-9.147 2.264-3.507-.262-6.03-1.553-8.13-3.326-2.064-1.831-3.686-4.015-4.62-6.884-1.018-3.126-.796-6.835.323-9.747 1.092-2.837 2.785-4.801 4.989-6.468 1.706-1.289 3.46-2.199 5.96-2.633 5.603-.971 10.473 1.313 13.211 4.25.752.806 1.491 1.775 2.079 2.771.593 1.005 1.21 2.138 1.339 3.419z"/><path d="m56.461 23.09c.001.792-.288 1.566-.508 2.31-.647 2.199-1.316 4.524-1.756 6.93-.158.87-.5 1.766-.739 2.633-.245.894-.502 1.768-.738 2.634-.486 1.782-.874 3.54-1.524 5.174-.342-.3-.457-.811-.602-1.247-.304-.922-.594-1.779-.923-2.774-.146-.439-.404-1.009-.416-1.386-.015-.458.286-1.243.462-1.848 1.043-3.599 2.062-7.274 3.003-10.856.146-.559.164-1.234.601-1.664 1.036-.061 2.168-.089 3.14.094z"/><path d="m60.296 23.09c-.022 1.139-.489 2.198-.786 3.28-1.478 5.399-2.851 11.007-4.388 16.399-.312 1.09-.655 2.215-.832 3.326-.176 1.108-.441 2.223-.924 3.233-.367-.291-.406-.813-.555-1.247-.288-.845-.561-1.688-.878-2.634-.149-.446-.399-.931-.415-1.339-.028-.727.461-1.836.692-2.68.961-3.495 1.867-7.09 2.772-10.625.226-.882.489-1.756.738-2.587.542-1.804.842-3.593 1.524-5.174.964-.026 2.215-.221 3.052.048z"/><path d="m40.015 23.044c.515 1.068.93 2.22 1.247 3.372.957 3.475 2.257 6.925 3.372 10.394 1.118 3.476 2.257 6.934 3.419 10.394.383 1.141.834 2.267 1.016 3.465-.336.317-1.01.185-1.616.185-.609 0-1.274.031-1.756-.046-.935-2.226-1.583-4.594-2.355-6.93-2.194-6.63-4.48-13.288-6.56-20.003-.07-.226-.261-.641.046-.831 1.014-.059 2.125-.081 3.187 0z"/><path d="m43.849 23.044c.603 1.059.849 2.272 1.201 3.418.358 1.164.762 2.318 1.155 3.465 1.961 5.719 3.878 11.531 5.774 17.323.371 1.133.842 2.265 1.017 3.465-.938.185-2.041.155-3.096.093-.565-1.059-.856-2.245-1.247-3.372-2.361-6.815-4.577-13.966-6.837-20.881-.193-.592-.334-1.209-.509-1.802-.159-.54-.582-1.099-.369-1.709.812-.021 1.987-.103 2.911 0z"/><path d="m34.102 33.068c-.557.131-1.249.154-1.895.139-.638-.016-1.328.09-1.801-.093-.597-.23-.71-.922-1.155-1.247-.827-.615-1.435-1.12-2.31-1.479-3.964-1.624-7.995.892-9.239 3.927-.727 1.772-.621 4.222.139 5.82.999 2.103 3.023 3.858 5.727 4.066 2.845.22 5.105-.925 6.237-2.633-.337-.238-.854-.139-1.294-.139-1.24 0-2.845-.018-4.065-.139-.151-.889-.151-2.391 0-3.28 3.2-.16 7.073-.15 10.44 0 .136 1.335-.385 2.547-.878 3.604-1.559 3.346-4.987 6.234-9.839 6.098-3.483-.098-5.862-1.55-7.808-3.511-1.387-2.116-2.61-4.058-2.587-7.16.017-2.162.732-4.135 1.663-5.636.834-1.345 1.664-2.352 3.003-3.233 1.446-.954 3.381-1.639 5.22-1.756 3.725-.238 6.692 1.439 8.546 3.465.798.868 1.608 1.961 1.896 3.187z"/></g></svg>