<svg enable-background="new 0 0 70.743 69.831" viewBox="0 0 70.743 69.831" xmlns="http://www.w3.org/2000/svg"><g clip-rule="evenodd" fill-rule="evenodd"><path d="m70.62.352c.153 3.478.19 7.79-.049 10.929-6.886.158-14.034.001-20.93 0-6.94-.001-14.514-.516-20.197 1.024-3.871 1.049-6.668 2.729-9.221 5.123-4.634 4.344-8.55 11.519-7.172 20.93.465 3.175 1.447 5.695 2.732 8.05 1.231 2.257 2.742 4.375 4.634 6.098 1.257 1.146 2.625 2.236 4.147 3.025 3.941 2.399 9.523 3.367 15.758 3.366 6.151-.001 12.667.207 18.685 0 .264-.713.147-1.527.147-2.293 0-5.517.122-11.241-.098-16.49-.682-.227-1.448-.188-2.195-.195-3.839-.039-7.866-.049-11.807-.049-1.542.001-3.073.098-4.488-.146-.055-3.198-.141-7.261.049-10.538 9.796-.17 20.18-.055 29.955.146.142 13.445.109 26.954-.049 40.396-7.432.23-14.151 0-21.466 0-7.567 0-14.635.332-21.027-.83-6.044-1.098-11.002-3.636-15.026-6.928-6.023-4.925-10.495-11.577-12.343-20.587-.634-3.096-.841-6.749-.487-10.196.665-6.493 2.852-11.616 5.854-16.1 2.982-4.454 6.903-7.672 11.367-10.587 2.244-1.465 4.941-2.42 7.806-3.172 2.925-.767 6.331-1.251 9.855-1.316 2.905-.054 5.894.097 8.879.097 8.976 0 18.095.001 26.687.243z"/><path d="m27.2 26.845c2.979-.293 5.562 1.407 6.781 3.171.502.728 1.009 1.947 1.171 2.781.739 3.803-1.473 6.576-3.561 7.806-2.584 1.521-6.588 1.127-8.879-1.122-1.812-1.778-3.055-5.129-1.562-8.44.646-1.434 2.16-2.952 3.854-3.659.631-.264 1.322-.452 2.196-.537z"/></g></svg>