<svg enable-background="new 0 0 78.912 79.24" viewBox="0 0 78.912 79.24" xmlns="http://www.w3.org/2000/svg"><path clip-rule="evenodd" d="m39.055.019c2.902-.123 6.404.373 8.953.95 5.504 1.248 9.777 3.327 13.752 6.051 4.879 3.345 9 7.56 11.902 12.802.574 1.04 1.037 2.152 1.6 3.351 2.146 4.578 3.65 9.757 3.65 16.102 0 6.495-1.291 11.769-3.352 16.453-1.016 2.314-2.127 4.466-3.449 6.451-3.906 5.857-9.439 10.34-16.104 13.502-5.601 2.659-12.953 4.202-20.803 3.3-10.15-1.166-17.672-5.678-23.404-11.202-3.39-3.267-6.14-6.997-8.2-11.601-2.063-4.609-3.6-9.705-3.6-16.153-.002-6.473 1.266-11.814 3.301-16.402 4.041-9.115 10.551-15.66 19.601-19.903 4.457-2.09 9.682-3.7 16.053-3.701.033 0 .066.001.1 0zm30.256 23.804c-4.149-7.23-10.002-12.904-18.453-15.853-4.035-1.408-9.463-2.307-14.852-1.8-.941.089-1.826.247-2.701.45-3.525.819-6.664 1.71-9.451 3.15-1.367.706-2.588 1.58-3.852 2.451-4.822 3.325-8.855 8.218-11.4 13.802-1.338 2.932-2.248 6.071-2.801 9.752-.578 3.838-.187 7.704.6 11.402.711 3.341 2.133 6.241 3.6 9.001 1.467 2.755 3.303 5.101 5.402 7.201 2.09 2.091 4.387 4.053 7 5.551 2.697 1.545 5.607 2.676 8.951 3.65 1.586.462 3.502.83 5.351.951 1.986.129 4.037.371 5.951.15 7.51-.868 13.385-3.342 17.953-7.201 2.291-1.936 4.508-3.89 6.301-6.301 2.695-3.624 5.045-7.649 6-12.902.311-1.702.727-3.569.551-5.551-2.033-.272-4.102-.091-6.201-.1-8.549-.034-17.35-.149-25.654-.15-6.685 0-13.285-.144-19.803.05-.291.666-.113 1.438-.15 2.2-.103 2.171-.029 4.518.1 6.651.727.259 1.6.15 2.451.15 6.117 0 12.006.1 18.104.1 5.674 0 12.242-.214 18.053.05.861.039 2.209-.139 2.4.25.227.463-.588 1.477-.85 1.9-.447.718-.815 1.275-1.15 1.7-3.074 4.29-7.111 7.741-12.502 9.702-2.84 1.033-6.168 1.451-9.652 1.45-3.467 0-6.494-.893-9.102-2-5.059-2.148-9.113-5.64-11.902-10.301-2.754-4.606-4.717-10.668-3.6-17.903.988-6.404 3.795-10.837 7.65-14.552 1.84-1.772 4.004-3.325 6.551-4.551 2.496-1.201 5.352-2.303 8.652-2.45 1.939-.087 3.592-.123 5.25 0 1.678.124 3.143.455 4.652.9 2.795.825 5.303 2.044 7.5 3.601 3.139 2.224 6.033 5.343 7.852 8.802.631 1.201 1.012 2.537 1.801 3.75 1.375-.254 2.664-.702 3.949-1.1 1.275-.396 2.572-.756 3.652-1.4-.494-1.682-1.362-3.189-2.201-4.652z" fill-rule="evenodd"/></svg>