<svg enable-background="new 0 0 75.649 42.27" viewBox="0 0 75.649 42.27" xmlns="http://www.w3.org/2000/svg"><path clip-rule="evenodd" d="m75.478.293c.022.044.043.088.099.099.084 13.054.05 26.181.049 39.367 0 .81.112 1.667-.147 2.445-6.245.111-12.534.06-18.828 0-9.49-.09-18.804.138-28.315-.049-9.318-.183-18.792.07-28.218-.195-.181-12.722-.099-26.256-.099-39.368 0-.779-.096-2.233.147-2.494.035-.046.088-.075.146-.098 25.46.105 50.032.01 75.166.293zm-44.405 6.358c-8.115-.001-16.382-.163-24.403-.049-.333.467-.195 1.093-.195 1.614v20.002c0 2.429-.203 4.834.098 7.14 1.09.266 2.244.147 3.374.147 8.15-.002 16.387.176 24.452 0 .196-1.253.098-2.819.098-4.352 0-1.536.193-3.134-.098-4.402-4.354-.301-9.303.022-13.742-.293-.033-1.526-.276-3.831.049-5.379 3.388-.136 7.034 0 10.368 0 1.157-.001 2.319.117 3.374-.147.166-4.749.104-9.585-.049-14.133-1.076-.266-2.205-.148-3.326-.148zm10.27.049c-.332.464-.195 1.106-.195 1.662 0 3.124-.083 6.21 0 9.097.035 1.219-.226 2.422.098 3.52 8.005.299 16.533.065 24.403.148 1.133.012 2.313.204 3.423-.099.211-4.821.167-9.515 0-14.182-8.989-.228-18.757-.176-27.729-.146zm13.937 20.002c-4.398.046-9.545-.198-13.986.048-.257.617-.146 1.369-.146 2.103 0 2.262-.16 4.642.098 6.602.889.247 1.856.177 2.787.147.981-.032 1.984.049 2.983.049 5.93-.002 12.065-.067 17.898 0 1.376.016 2.917.206 4.206-.098.054-2.602.171-6.038-.049-8.705-4.436-.219-9.062-.197-13.791-.146z" fill-rule="evenodd"/></svg>