<svg enable-background="new 0 0 79.709 64.238" viewBox="0 0 79.709 64.238" xmlns="http://www.w3.org/2000/svg"><path clip-rule="evenodd" d="m79.517.285c.057 9.027.144 18.046.143 27.246 0 3.039.159 6.107-.096 9.082-.467 5.46-1.877 10.344-3.729 14.627-1.399 3.237-2.938 6.183-4.876 8.891-.637.89-1.269 1.803-2.055 2.533-3.897-.167-8.084.22-11.998.048-3.932-.173-7.843.188-11.615-.143.286-.467.865-.589 1.291-.812 4.904-2.566 9.159-6.195 12.237-10.659 2.239-3.247 3.982-7.007 5.115-11.52.275-1.097.555-2.29.669-3.489.123-1.291 0-2.701 0-4.158 0-4.036 0-8.334 0-12.476 0-1.348.113-2.711-.144-4.015-10.987-.129-22.16-.146-33.125-.144-5.261.001-9 2.243-11.615 5.115-2.501 2.748-4.827 6.585-4.732 11.95.092 5.21 2.358 8.96 5.114 11.616 1.417 1.364 2.943 2.534 4.971 3.394 1.93.818 4.297 1.458 6.883 1.434 2.532-.024 4.867-.618 6.835-1.529 3.889-1.802 6.485-4.597 8.221-8.509.846-1.905 1.479-4.162 1.291-6.835-.597-.256-1.274-.144-1.912-.144-8.808.001-17.508-.271-26.386-.096-1.309.026-2.618.194-3.872-.096.304-4.747 2.248-8.267 4.875-10.851 1.998-1.965 4.439-3.5 7.792-4.11 1.71-.312 3.597-.239 5.592-.239 8.694 0 17.867.046 26.433.048.912 0 1.831-.182 2.677.096.143 3.962.13 8.311.143 12.284.007 2.248.172 4.393-.047 6.357-1.054 9.418-5.296 16.13-10.851 21.127-5.678 4.913-13.282 8.719-23.852 7.792-9.251-.812-16.396-5.375-21.127-10.851-2.397-2.773-4.563-6.177-5.927-10.085-1.294-3.718-2.24-8.966-1.671-14.151.271-2.466.662-4.688 1.291-6.74 1.864-6.081 5.186-10.645 9.464-14.483 4.464-3.783 10.266-6.992 17.877-7.696 1.924-.178 4.364-.048 6.548-.048 13.595.001 27.947.025 41.251.096.974.005 1.992-.213 2.917.143z" fill-rule="evenodd"/></svg>