<svg enable-background="new 0 0 169.131 170.003" viewBox="0 0 169.131 170.003" xmlns="http://www.w3.org/2000/svg"><path clip-rule="evenodd" d="m100.99 54.896c-.055-.007-.084.011-.095.047-6.379.364-12.462-.458-18.267.332-1.742.237-3.405.714-5.017 1.23-6.132 1.965-11.002 5.824-14.434 10.553-3.281 4.523-5.99 11.599-5.158 19.403.785 7.363 3.885 12.785 7.998 16.988 4.1 4.189 9.568 7.354 16.469 8.566 3.734.656 7.786.703 11.404-.049 3.503-.727 6.495-1.811 9.229-3.264 5.151-2.742 9.665-7.217 12.304-12.684 1.94-4.019 3.534-9.551 2.697-15.57-.126-.907-.274-1.775-.473-2.649-.189-.831-.51-1.649-.521-2.508 6.23-.148 12.775-.032 19.261-.095 10.452-.1 21.301-.03 31.99 0 .021.042.042.084.095.095 1.377 10.266.482 20.776-1.656 29.341-.547 2.186-1.065 4.344-1.751 6.389-.69 2.053-1.317 4.088-2.082 6.01-1.543 3.875-3.379 7.404-5.348 10.838-7.929 13.816-19.198 24.182-32.843 31.99-3.404 1.947-7.213 3.588-11.168 5.062-3.947 1.473-8.217 2.623-12.683 3.502-9.198 1.811-20.114 2.15-29.767.568-7.065-1.158-13.148-3.039-18.977-5.348-.968-.383-1.918-.793-2.84-1.23-8.041-3.809-15.653-8.846-21.863-14.576-7.055-6.51-13.074-13.994-17.699-22.856-.922-1.768-1.728-3.648-2.555-5.537-1.643-3.758-3.061-7.754-4.26-11.926-2.452-8.541-3.489-18.842-2.741-29.008.186-2.531.496-4.938.852-7.288.35-2.313.906-4.496 1.42-6.673 1.042-4.409 2.354-8.5 3.975-12.209.418-.957.858-1.906 1.23-2.839 1.133-2.835 2.58-5.489 4.117-8.045 4.062-6.75 8.92-12.579 14.434-17.982 2.719-2.664 5.682-5.248 8.803-7.383 6.434-4.4 13.244-8.463 21.2-11.215 7.096-2.455 14.64-4.188 23.615-4.732 7.373-.447 14.998.178 21.105 1.561.01.039.048.047.048.095-.031 15.061.329 31.19.095 46.755-.034 2.156.075 4.271-.143 6.341z" fill-rule="evenodd"/></svg>