<svg enable-background="new 0 0 72.645 72.482" viewBox="0 0 72.645 72.482" xmlns="http://www.w3.org/2000/svg"><g clip-rule="evenodd" fill-rule="evenodd"><path d="m34.488.152c.245 4.088.142 8.695.142 13.061 0 1.443.115 2.885-.142 4.213-2.814.143-5.765.113-8.376.143-2.688.027-4.574.93-6.058 2.412-1.522 1.523-2.485 3.188-2.603 5.869-.119 2.703.157 5.408-.095 8.281-5.405.258-11.367.146-17.178 0-.257-1.164-.142-2.381-.142-3.549 0-3.664-.244-7.314.52-10.459.917-3.773 2.589-7.146 4.733-9.891 2.167-2.775 4.608-5.023 7.808-6.861 3.141-1.805 7.069-3.103 11.5-3.314 3.135-.147 6.691.032 9.891.095z"/><path d="m72.489 25.8c-2.724.223-5.706.143-8.66.143-2.878 0-5.812.057-8.566-.094-.289-.926-.329-1.814-.615-2.604-1.013-2.799-3.64-5.318-7.146-5.678-2.914-.301-6.454.203-9.417-.143-.173-4.841-.095-10.171-.095-15.237 0-.676-.112-1.406.142-2.035 4.725-.131 10.587-.387 14.528.615 8.015 2.037 13.322 6.66 16.942 13.107 1.805 3.217 3.146 7.239 2.887 11.926z"/><path d="m72.442 29.302c.217 3.152.142 6.383.142 9.561 0 3.332.167 6.613-.047 9.748-.202 2.971-.909 5.539-1.893 7.902-.972 2.338-2.178 4.469-3.597 6.199-2.878 3.516-6.712 6.557-11.357 8.234-1.229.445-2.443.861-3.786 1.137-2.754.564-5.992.252-9.133.379-.801.031-1.594-.045-2.414-.049-.728-.002-1.517.207-2.224-.094-.157-5.5-.158-11.676 0-17.226.879-.256 1.839-.141 2.745-.141 2.663 0 5.765.283 8.092-.332 2.872-.76 4.852-3.031 5.821-5.678.212-.58.348-1.301.284-2.035-.591-.33-1.362-.189-2.035-.189-5.095 0-10.115.053-14.907-.143-.192-2.83-.069-5.811-.095-8.754-.024-2.895-.096-5.803.095-8.52 11.28-.137 23.006-.204 34.309.001z"/><path d="m17.31 38.105c.257 1.322.142 2.773.142 4.164 0 2.918-.131 5.787.805 7.762 1.297 2.736 3.986 4.836 7.855 4.969 2.738.094 5.558-.197 8.423.047.252 5.453.187 11.596.047 17.273-2.834.195-5.773.141-8.565.143-2.835 0-5.396-.363-7.619-1.041-3.317-1.014-6.092-2.639-8.565-4.496-.412-.309-.882-.582-1.23-.947-3.761-3.926-7.29-8.613-8.329-15.521-.381-2.539-.118-5.322-.236-8.139-.027-.639 0-1.41 0-2.178 0-.615-.088-1.771.142-2.035.035-.043.086-.072.142-.094 5.598.062 11.473-.128 16.988.093z"/></g></svg>