<svg enable-background="new 0 0 30.562 29.944" viewBox="0 0 30.562 29.944" xmlns="http://www.w3.org/2000/svg"><path d="m4.187 4.783c3.014-3.148 7.403-4.942 11.763-4.772 3.759.113 7.52 1.616 10.159 4.326-1.161 1.185-2.303 2.428-3.538 3.518-1.75-1.618-4.043-2.661-6.434-2.795-3.701-.313-7.452 1.613-9.433 4.739-1.753 2.583-2.015 6.064-.809 8.925 1.237 3.011 4.016 5.294 7.182 6.004 3.377.767 7.118-.274 9.562-2.741 1.194-1.278 2.198-2.818 2.553-4.551-2.408.004-4.817.007-7.225.037-.001 1.658.012 3.317-.002 4.975-2.578-2.443-5.132-4.917-7.659-7.416 2.451-2.596 5.073-5.022 7.599-7.546.022 1.605.017 3.211.02 4.816-.017.155.166.147.272.142 4.033-.039 8.085-.084 12.109-.079 1.075 5.388-1.304 11.306-5.752 14.535-3.685 2.797-8.681 3.722-13.143 2.543-3.507-.959-6.776-3.059-8.821-6.101-1.887-2.707-2.792-6.072-2.552-9.359.217-3.437 1.785-6.719 4.149-9.2z"/></svg>