<svg enable-background="new 0 0 176.482 177.387" viewBox="0 0 176.482 177.387" xmlns="http://www.w3.org/2000/svg"><path clip-rule="evenodd" d="m140.179 85.267c.01.04.049.049.049.097 11.831.156 24.233-.079 36.008.098.047.049.095.098.145.145.562 11.096-1.265 20.712-3.823 29.232-5.104 16.996-14.356 30.107-26.135 40.508-2.954 2.609-6.101 4.978-9.437 7.212-3.319 2.222-6.87 4.302-10.551 6.098-3.667 1.788-7.722 3.476-12.003 4.694-4.309 1.226-8.756 2.473-13.551 3.098-5.074.661-10.365 1.119-15.584.871-5.173-.246-10.143-.832-14.906-1.742-4.567-.873-8.889-2.243-12.971-3.726-2.023-.735-3.967-1.578-5.855-2.469-.961-.452-1.91-.82-2.808-1.355-.875-.521-1.808-.978-2.71-1.451-7.257-3.809-13.53-8.803-19.214-14.084-2.863-2.661-5.476-5.646-7.936-8.76-2.443-3.09-4.782-6.364-6.776-9.873-4.041-7.112-7.398-14.975-9.533-23.763-2.192-9.017-3.22-19.798-2.178-30.2.991-9.913 3.384-18.825 6.823-26.473.882-1.962 1.697-3.884 2.662-5.711 6.688-12.67 15.744-23.02 27.103-31.168 9.739-6.99 20.972-12.468 34.942-15.005 3.553-.645 7.208-1.087 11.131-1.355 12.898-.88 24.502 1.496 34.169 4.694 3.29 1.089 6.3 2.469 9.292 3.872 4.828 2.264 9.441 5.182 13.551 8.276.11 2.686.163 5.94.049 9.002-.104 2.781.152 5.62.048 8.421-.21 5.632-.048 11.387-.048 17.084-.001 11.453-.063 22.898.047 33.733zm-64.223-43.703c-3.256.877-6.175 1.973-8.856 3.291-5.46 2.684-10.18 6.148-14.035 10.26-3.97 4.234-7.053 8.964-9.438 14.81-1.176 2.881-2.213 5.854-2.855 9.292-.64 3.423-.932 7.122-.871 11.083.058 3.772.593 7.43 1.452 10.647.858 3.211 1.938 6.228 3.242 8.904 2.684 5.51 5.972 10.17 10.163 14.132 2.059 1.946 4.352 3.708 6.776 5.372 2.391 1.642 5.041 3.098 7.889 4.26 5.629 2.296 12.569 4.192 20.472 3.823 7.453-.349 13.95-2.133 19.407-4.84 5.459-2.708 10.061-6.2 14.035-10.261 1.988-2.032 3.738-4.312 5.275-6.823 1.532-2.504 3.078-5.056 4.259-7.89 1.196-2.871 2.231-5.979 2.855-9.292.482-2.559.89-5.347.92-8.179.052-4.996-.358-9.509-1.501-13.648-.889-3.22-1.93-6.297-3.194-8.953-1.333-2.8-2.896-5.333-4.501-7.646-1.634-2.356-3.57-4.394-5.662-6.485-1.935-1.935-4.417-3.885-6.775-5.372-2.496-1.574-5.054-3.095-7.889-4.259-5.55-2.279-12.612-4.151-20.52-3.775-3.755.179-7.386.671-10.648 1.549z" fill-rule="evenodd"/></svg>