<svg enable-background="new 0 0 77.696 44.797" viewBox="0 0 77.696 44.797" xmlns="http://www.w3.org/2000/svg"><g clip-rule="evenodd" fill-rule="evenodd"><path d="m33.146 3.01c.048 1.894.146 4.241-.049 6.054-.614.015-1.161-.336-1.708-.537-1.66-.612-3.864-.947-6.151-.732-5.464.514-9.235 3.3-11.423 7.225-1.159 2.078-2.002 4.342-2.002 7.322 0 2.855.802 5.344 2.002 7.322 1.244 2.054 2.556 3.466 4.491 4.833 2.522 1.782 6.753 3.122 11.13 2.246 1.234-.247 2.515-.48 3.417-1.221.317-3.913-.152-8.613.244-12.448 3.646-.186 7.778-.136 11.277.049.078 2.62-.627 4.874-1.318 6.883-.519 1.508-1.162 2.997-2.001 4.296-.842 1.303-1.615 2.349-2.733 3.466-1.983 1.982-4.443 3.781-7.225 4.979-3.943 1.699-9.173 2.25-13.962 1.221-2.045-.439-4.065-1.316-5.809-2.344-4.326-2.546-7.584-5.79-9.666-10.642-.404-.941-.85-2.01-1.074-2.977-.105-.45-.071-.953-.147-1.416-.198-1.227-.439-2.767-.439-4.199 0-3.852.789-7.446 2.197-10.104 2.862-5.404 7.076-9.166 13.376-11.228 1.568-.514 3.521-.93 5.321-1.025 3.787-.201 7.115.556 9.763 1.659.88.367 1.833.688 2.489 1.318z"/><path d="m44.423 35.863c.625.021 1.178.322 1.757.537 1.703.631 4.056.873 6.346.635 2.843-.297 5.175-1.346 6.981-2.588 3.474-2.387 6.524-6.773 6.151-12.935-.24-3.968-2.062-7.091-4.345-9.373-2.934-2.933-7.75-5.196-13.473-3.954-1.171.254-2.319.565-3.222 1.171-.102 2.096-.048 4.226-.048 6.298 0 2.076.051 4.204-.146 6.151-3.511.124-7.711.097-11.277-.049-.05-3.127.829-5.964 1.904-8.445 1.041-2.404 2.5-4.502 4.247-6.249 3.468-3.467 8.129-6.327 14.352-6.639 9.441-.474 15.511 3.74 19.526 8.933 2.744 3.676 4.788 8.372 4.491 14.597-.27 5.67-2.777 10.236-5.663 13.376-2.992 3.255-6.907 5.967-12.009 7.029-4.23.881-8.973.361-12.448-.879-.568-.202-1.111-.5-1.66-.733-.538-.226-1.169-.356-1.513-.83-.024-1.906-.183-4.367.049-6.053z"/></g></svg>