<svg enable-background="new 0 0 68.21 76.782" viewBox="0 0 68.21 76.782" xmlns="http://www.w3.org/2000/svg"><g clip-rule="evenodd" fill-rule="evenodd"><path d="m68.022.143c.021.043.042.086.096.096.056 9.445.048 18.873.048 28.68 0 3.201-.174 6.39-.048 9.56.121 3.033.108 6.147.048 9.273-.183 9.53.117 19.345-.144 28.919-21.803.139-45.488.19-67.827-.096-.048-.063-.079-.144-.144-.191-.07-12.535 0-25.166 0-37.81 0-9.404 0-18.712 0-28.345 0-3.153-.115-6.312 0-9.416.013-.344-.023-.595.192-.813 22.664.184 44.553.027 67.779.143zm-4.445.431c-20.172 0-40.529-.096-60.514-.096-.723 0-1.541-.155-2.056-.048-.661.138-.478.95-.477 2.151.002 18.484-.017 37.093-.049 54.635-.011 6.161-.058 12.681.143 18.833 22.011.419 44.817.246 66.872.143.259-.723.143-1.5.143-2.247-.002-12.129.047-23.667.047-35.372.001-12.344.077-25.385-.095-37.857-1.316-.256-2.669-.142-4.014-.142z"/><path d="m65.441 2.438c.16.859.154 2.342 0 3.202-.863.279-1.814.162-2.725.144-6.669-.132-13.574.088-20.124.144.038.622.557 1.11.861 1.673.905 1.675 1.755 3.382 1.864 5.975.139 3.31-1.023 5.884-2.533 7.887-2.115 2.805-6.188 4.907-11.186 4.015-1.5-.267-2.639-.812-3.92-1.29-.229.331.17.618.335.812 2.948 3.477 6.138 7.086 9.034 10.66 1.233 1.413 2.445 2.8 3.681 4.206 1.229 1.399 2.316 2.927 3.537 4.35 1.2 1.401 2.416 2.817 3.632 4.254 1.195 1.41 2.447 2.819 3.586 4.302 1.155 1.506 2.4 2.89 3.585 4.302 2.393 2.852 4.792 5.578 7.218 8.556.548.672 1.171 1.429 1.721 2.199.766 1.072 1.742 2.125 1.721 3.729-.015 1.074-.646 1.978-1.387 2.438-.719.447-2.274.383-3.728.383-4.115 0-8.209 0-12.046 0-2.766 0-5.438-.027-8.126.047-2.662.074-5.358-.164-8.126-.047-7.621.321-16.227-.048-24.282-.048-1.45 0-2.691.034-3.681-.383-.92-.388-1.744-1.225-1.96-2.103-.519-2.123 1.057-3.688 1.96-4.78 1.076-1.302 2.188-2.446 3.155-3.633 2.104-2.583 4.031-5.048 6.118-7.504 2.069-2.471 4.142-4.94 6.214-7.409 1.554-1.81 3.051-3.624 4.684-5.545.383-.45 1.336-1.383 1.339-2.055.003-.533-.571-.998-.908-1.386-1.073-1.24-2.052-2.459-3.06-3.681-1.144-1.576-3.403-3.206-2.915-6.023.294-1.692 1.755-3.049 2.677-4.206.463-.583.941-1.175 1.529-1.912.52-.65 1.406-1.398 1.435-2.007.018-.409-.521-1.016-.766-1.386-.841-1.274-1.454-2.88-1.72-4.684-.412-2.783.268-5.276 1.242-7.122 2.081-3.941 5.531-5.954 11.042-6.214 2.496-.118 5.107 0 7.743 0h19.55c1.241-.004 2.521-.12 3.73.14zm-34.607 4.063c-1.934 1.162-3.316 3.588-3.537 6.501-.335 4.417 1.579 7.919 4.636 8.939 2.894.964 5.429-.705 6.597-2.342 3.292-4.613 1.272-13.967-4.923-13.814-1.028.024-2.061.288-2.773.716zm-2.485 37.666c-.681.495-1.333 1.425-1.96 2.199-2.527 3.115-5.09 6.136-7.648 9.082-1.948 2.243-3.945 4.562-5.736 6.835-.773 1.081-1.595 1.997-2.485 3.107-.587.731-1.939 2.436-1.721 3.872.3 1.97 3.43 1.625 5.831 1.625h28.776c1.476 0 3.771.217 4.637-.191 1.416-.669.911-2.353.19-3.346-1.277-1.761-2.499-3.201-3.823-4.78-1.66-2.149-3.333-4.284-5.115-6.31-2.695-3.024-5.224-6.216-7.887-9.273-.391-.565-.9-1.012-1.291-1.577-.487-.257-1.081-1.743-1.768-1.243z"/></g></svg>