<svg enable-background="new 0 0 177.479 166.768" viewBox="0 0 177.479 166.768" xmlns="http://www.w3.org/2000/svg"><path clip-rule="evenodd" d="m29.338 41.647c7.83-8.162 17.674-13.701 30.89-16.391 4.404-.896 9.517-.776 14.984-.776 25.492.001 52.448-.095 78.365-.097 2.576 0 4.94.192 7.128.776 6.185 1.649 10.518 5.15 13.384 10.232 1.908 3.383 3.421 7.244 3.201 12.462-.213 5.053-1.77 8.663-3.928 11.833-2.096 3.077-4.873 5.725-8.293 7.468-1.775.905-3.745 1.588-6.013 1.891-2.279.305-4.782.389-7.468.389-5.124-.001-10.062.096-15.421.097-20.984.004-40.886.142-62.216.145-7.832.001-15.498-.002-23.277 0-2.639 0-5.014.262-6.983.873-4.005 1.241-6.728 3.714-8.438 7.322-.87 1.835-1.388 3.987-1.358 6.401.039 3.093.88 5.541 2.231 7.613 1.73 2.653 4.446 4.891 8.147 5.625 4.334.86 10.062.486 15.178.485 29.934-.007 59.725-.052 90.246-.049 2.268 0 4.678.343 5.237-1.31.319-.943-.188-1.922-.97-2.279-.511-.232-1.211-.193-1.988-.193-9.724-.001-20.241.049-30.211.048-12.067-.001-23.034.001-34.77 0-11.48-.001-23.179.051-34.818.049-5.994-.001-10.98-.459-13.917-3.54-1.298-1.361-2.382-3.686-2.667-6.062-.152-1.263.003-2.716.388-3.88 1.069-3.23 3.398-5.373 6.644-6.498 2.099-.727 4.854-.969 7.759-.97 8.698-.001 17.022-.097 25.604-.097 19.441-.001 40.683-.098 59.792-.097 5.814 0 11.742-.292 17.361-.098 2.915.102 5.525.265 7.808.922 4.548 1.31 7.955 3.643 10.668 6.837 3.739 4.403 6.964 11.791 5.043 20.077-1.09 4.704-3.304 8.153-6.304 11.153-1.408 1.407-3.126 2.663-5.043 3.686-1.858.99-4.203 1.887-6.547 2.182-5.344.671-11.215.389-17.118.388-28.883-.001-58.001.002-86.27 0-3.027 0-5.54-.271-7.856-.873-2.205-.572-4.223-1.577-6.013-2.715-1.774-1.129-3.625-2.251-5.092-3.638-1.498-1.415-2.958-2.836-4.316-4.412-4.046-4.694-6.848-10.758-7.759-18.477-.998-8.453 1.204-16.102 4.17-21.531 2.06-3.77 4.856-6.937 7.856-9.601 5.375-5.081 13.422-8.146 24.101-8.147 15.766 0 32.472-.097 47.717-.097h43.838c1.697 0 2.757-.282 2.91-1.697.143-1.329-.787-2.037-2.521-2.037-14.244 0-27.396 0-41.365 0-12.041 0-24.171.096-36.661.097-6.007 0-12.414-.374-17.943.437-2.708.396-5.214.802-7.71 1.552-9.28 2.789-16.245 8.677-20.755 16.391-2.266 3.875-4.295 8.31-5.189 13.384-.931 5.286-.676 11.884.582 16.827 1.841 7.233 5.469 13.082 10.135 17.748 1.581 1.581 3.132 3.215 4.849 4.413 3.595 2.511 7.988 4.271 13.19 5.383 5.008 1.071 11.546.678 17.797.679 11.973.002 25.104-.001 36.661 0 12.668.002 24.599-.001 37 0 6.031.001 12.714-.479 17.554.728 5.077 1.266 8.56 3.78 11.444 7.129 2.889 3.352 5.092 7.496 5.432 13.142.344 5.712-1.427 10.792-3.928 14.45-2.41 3.525-6.032 6.449-10.475 8.099-4.492 1.668-11.195 1.213-17.361 1.213-21.478 0-43.294-.01-64.738-.098-3.084-.012-6.186.247-9.165 0-5.432-.449-10.617-1.862-15.179-3.395-4.687-1.573-9.091-3.365-13.093-5.479-4.076-2.153-7.796-4.643-11.202-7.371-3.418-2.737-6.726-5.572-9.699-8.874-1.545-1.781-2.855-3.77-4.413-5.576-1.543-1.79-3.104-3.517-4.413-5.528-7.717-11.873-13.768-26.518-13.768-46.021 0-6.513.813-12.447 1.988-17.942 3.465-16.212 11.084-29.121 20.318-39.474 6.93-7.613 15.019-13.797 24.78-18.718 4.757-2.398 10.146-4.435 15.955-5.819 5.877-1.401 12.252-2.329 19.397-2.328 25.119.004 49.957-.049 75.261-.048 3.608 0 7.277.167 10.863 0 2.628-.123 4.662-.047 5.625 1.503 1.003 1.616.167 4.163-.582 5.77-1.503 3.226-4.05 5.942-6.595 8.001-2.801 2.266-5.607 4.007-9.505 5.14-1.893.55-4.304.396-6.692.437-11.553.192-23.921.05-36.176.048-14.639-.002-29.003.048-43.595.049-2.453 0-4.733-.005-6.935.291-2.137.288-4.155.684-6.11 1.164-15.657 3.847-26.664 12.178-35.157 23.277-4.253 5.558-7.642 11.987-9.844 19.349-2.179 7.283-3.931 16.251-2.812 25.75 1.002 8.518 3.563 15.843 6.837 22.355 4.843 9.636 12.035 17.151 20.707 23.132 2.925 2.017 6.086 3.785 9.311 5.285 3.363 1.564 6.883 2.924 10.814 3.831 3.947.911 8.617.971 13.53 1.067 8.918.174 19.315-.003 28.902 0 7.269.002 14.721-.06 21.822.048 4.593.07 9.417-.081 14.16-.048 4.891.034 9.206-.002 14.111 0 1.042 0 2.627.22 3.54-.098 1.493-.519 1.566-2.802.146-3.442-.5-.226-1.1-.138-1.843-.146-14.757-.16-29.933-.001-44.808 0-10.588 0-21.676-.001-32.636 0-2.729 0-5.45-.118-8.098-.145-2.666-.028-5.293-.163-7.711-.534-2.287-.35-4.484-.958-6.595-1.648-5.216-1.705-9.693-3.98-13.917-6.692-4.176-2.681-7.804-5.927-11.202-9.456-5.382-5.589-9.275-12.636-12.22-20.804-1.478-4.099-2.565-8.603-2.958-13.529-.879-11.02 1.098-20.642 4.219-28.416 3.18-7.926 7.599-14.488 13.043-19.932z" fill-rule="evenodd"/></svg>