<svg enable-background="new 0 0 80.235 70.919" viewBox="0 0 80.235 70.919" xmlns="http://www.w3.org/2000/svg"><g clip-rule="evenodd" fill-rule="evenodd"><path d="m.139 70.573c-.182-8.876-.102-17.765-.101-26.832 0-2.966.16-5.934.051-8.86-.108-2.895-.13-5.877 0-8.811.129-2.938-.173-5.879-.051-8.76.228-5.379-.063-10.967.052-16.411.005-.281-.112-.709.251-.857 3.056-.034 6.687-.075 9.817 0 3.273.078 6.458-.148 9.363.252 5.753.791 10.438 2.977 13.744 5.891 3.491 2.996 5.745 7.366 7.3 12.384 1.536 4.959 2.495 10.879 2.315 17.016.256 3.238-.175 6.294-.504 9.162-.33 2.884-1.152 5.479-1.862 7.954-1.834 6.394-5.106 11.034-10.421 14.147-3.076 1.802-6.632 3.169-11.025 3.725-2.92.369-6.126.208-9.313.201-2.412-.005-4.853-.051-7.35-.05-.753 0-1.538.117-2.266-.151z"/><path d="m80.235.395c-4.885.624-10.246-.49-14.6.453-3.961.859-6.85 3.374-8.559 6.595-.847 1.598-1.348 3.731-1.46 6.142-.11 2.385-.106 5.024-.051 7.4.237 9.929-.001 20.019 0 29.4.001 2.549-.048 5.098.051 7.451.1 2.36.746 4.323 1.611 5.94 1.702 3.181 4.669 5.715 8.709 6.443 2.203.397 4.672.305 7.099.202 2.137-.091 4.348-.016 6.494.05.202.007.613-.13.705.201-.512.419-1.187.14-1.763.151-1.872.037-3.963.051-5.94.051-2.596-.001-5.27.185-7.651-.202-4.5-.729-7.838-2.729-10.623-5.286-5.498-5.046-7.54-13.803-8.407-23.409-.23-2.561-.15-5.158-.15-7.702-.001-7.672 1.304-14.772 3.373-20.489 2.565-7.09 6.978-11.26 14.699-13.14 2.866-.697 6.771-.454 10.22-.453 1.761 0 3.627-.134 5.639 0 .171.012.546-.115.604.202z"/></g></svg>