<svg enable-background="new 0 0 35.375 32.171" viewBox="0 0 35.375 32.171" xmlns="http://www.w3.org/2000/svg"><path d="m14.953.108c6.789-.062 13.577-.094 20.367-.108.051 3.826.03 7.657.028 11.485-6.479.022-12.954.099-19.434.099-1.749.013-3.444 1.111-4.108 2.739-1.307 2.676.753 6.19 3.734 6.326 1.15.03 2.309.061 3.457-.037 2.723-.286 4.934-2.84 4.871-5.571 3.825-.098 7.663-.047 11.492-.072-.016 5.704.047 11.417-.006 17.115-6.656-.008-13.303.096-19.959.087-2.512-.064-4.97-.795-7.177-1.978-6.713-3.481-9.939-12.223-7.296-19.277 1.98-5.964 7.743-10.449 14.031-10.808zm3.33 1.487c-1.475.113-2.969-.073-4.433.194-6.563.896-11.988 6.836-12.285 13.451-.626 6.894 4.476 13.899 11.357 15.07 1.805.444 3.672.272 5.511.304 2.17.003 4.268-1.352 5.021-3.413-2.662-.009-5.324.021-7.986.013-2.994-.064-5.868-1.535-7.814-3.787-3-3.408-3.588-8.744-1.255-12.662 1.892-3.465 5.768-5.788 9.736-5.655 5.887-.091 11.785-.021 17.673-.118.007-1.144-.016-2.287-.001-3.431-5.165-.034-10.355.049-15.524.034zm-5.184 5.496c-4.186 1.289-7.168 5.748-6.563 10.123.409 4.679 4.74 8.604 9.451 8.489.912-.073 1.826-.022 2.74-.045 2.06-.122 3.974-1.547 4.702-3.469-2.58-.067-5.161.084-7.739.013-2.605-.056-5.012-2.02-5.579-4.565-.654-2.532.475-5.547 2.869-6.735 1.035-.613 2.256-.848 3.449-.801 5.788.008 11.573-.084 17.36-.075.03-1.161.04-2.329-.004-3.488-5.07.03-10.138.081-15.208.084-1.829.031-3.715-.137-5.478.469zm17.22 9.463c.008 4.665-.022 9.332.035 13.995 1.17-.028 2.342.013 3.511-.028-.027-4.665.039-9.343-.061-13.998-1.161.013-2.326-.03-3.485.031zm-4.905.015c-.012 4.658.021 9.32.004 13.979 1.124.041 2.25-.007 3.376-.002.153.019.09-.183.108-.27-.034-4.585.024-9.171-.072-13.746-1.138.031-2.279-.019-3.416.039z"/></svg>