<svg enable-background="new 0 0 72 70.775" viewBox="0 0 72 70.775" xmlns="http://www.w3.org/2000/svg"><path clip-rule="evenodd" d="m63.122 26.094c1.501 1.458 2.994 2.924 4.512 4.365 1.124 1.098 2.235 2.18 3.336 3.335.35.367.914.617 1.03 1.177-.391 1.097-1.405 1.57-2.06 2.403-5.08 5.252-10.262 10.402-15.351 15.646-2.885 2.98-5.774 6.019-8.73 8.975-1.473 1.473-3.027 2.909-4.415 4.463-1.044 1.171-2.11 2.257-3.237 3.384-.327.327-.606.935-1.177.932-.144-15.786-.099-31.437-.098-47.329 0-2.222-.119-4.479.147-6.67.563.13.94.621 1.324.981 1.988 1.864 3.687 3.713 5.738 5.689.362.349.777.694 1.177 1.128.356.386.903.819 1.03 1.226.206.662.098 1.654.098 2.6 0 4.406-.251 8.985-.049 13.438.079 1.735-.147 3.445.196 5.052.575.007.883-.54 1.226-.883 2.466-2.465 5.057-5.059 7.504-7.602.461-.486.889-.917 1.422-1.472.324-.335 1.31-1.051 1.325-1.52.011-.396-.882-1.123-1.275-1.472-1.377-1.221-2.79-2.828-4.12-4.022-1.943-1.744-3.805-3.56-5.542-5.297-1.759-1.759-3.778-3.356-5.542-5.346-1.221-1.377-2.599-2.698-4.071-4.071-.362-.337-1.006-1.212-1.472-1.226-.652-.019-1.814 1.521-2.256 1.962-4.923 4.924-9.676 9.729-14.616 14.665-1.181 1.271-2.772 2.787-4.12 4.267-.391.429-1.263.975-1.275 1.471-.018.752 1.064.895 1.275 1.569 1.479 1.333 2.893 2.731 4.316 4.12 1.003.876 1.931 1.829 2.894 2.747.957.912 1.851 1.931 2.992 2.648.433-.613.209-1.538.245-2.403.262-6.206-.188-12.66 0-18.833.621-.951 1.504-1.651 2.305-2.453 1.958-1.957 3.946-3.946 5.935-5.934.365-.365.704-.897 1.275-.981.343.651.196 1.455.196 2.158 0 5.315-.049 10.761-.098 15.891-.014 1.44.098 2.887.098 4.365v22.659c0 2.227-.049 4.427-.049 6.67 0 .693.117 1.443-.147 2.109-.521-.102-.915-.556-1.275-.883-1.105-1.003-2.129-2.172-3.237-3.237-1.468-1.41-2.967-2.787-4.414-4.218-7.61-7.439-15.374-14.685-23.002-22.314-.789-.79-1.56-1.541-2.403-2.452-.294-.317-.675-.743-.687-.932-.023-.394.633-.884.981-1.325 1.015-1.284 2.145-2.439 3.237-3.531 6.044-6.044 12.053-12.053 18.098-18.098 4.496-4.496 8.884-9.138 13.439-13.635.542-.311 1.549.891 2.059 1.374.644.608 1.122 1.166 1.668 1.667 1.18 1.083 2.148 2.445 3.237 3.433 1.172 1.065 2.233 2.238 3.384 3.286 5.775 5.259 11.428 11.227 17.019 16.284z" fill-rule="evenodd"/></svg>