<svg enable-background="new 0 0 78.43 80.05" viewBox="0 0 78.43 80.05" xmlns="http://www.w3.org/2000/svg"><path clip-rule="evenodd" d="m78.199.295c.263 2.147.148 4.506.148 6.861v7.008c-.416.721-1.102 1.248-1.678 1.826-1.726 1.725-3.621 3.373-5.38 5.131-2.336 2.336-4.673 4.672-7.008 7.008-1.169 1.17-2.398 2.271-3.504 3.506-1.103 1.228-2.364 2.307-3.504 3.502-1.136 1.193-2.389 2.291-3.554 3.455-1.155 1.156-2.316 2.336-3.603 3.355-10.83-.004-21.947-.174-32.424 0-.267 3.244-.148 6.768-.148 10.266 0 3.469-.081 6.986.1 10.266.695.262 1.47.148 2.221.148 4.692 0 8.956.049 13.867.049.716 0 1.528.182 2.073-.246 0-.264 0-.527 0-.791-.371-.422-1.204-.246-1.925-.246-3.336 0-7.109-.049-10.709-.049-1.429 0-2.86.107-4.097-.149-.164-5.719-.164-12.144 0-17.914 8.633-.217 18.372 0 27.39 0 1.286 0 2.963.223 4.047-.051.871-.219 1.157-1.109 1.876-1.578 4.021-3.957 8.017-7.941 11.992-11.943 4.272-4.299 8.547-8.594 12.979-12.732.279-.219.474-.77.938-.643.09 10.521.05 21.75.05 32.326 0 1.576.188 3.229 0 4.639-.062.459-1.193 1.342-1.678 1.826-5.093 5.092-10.315 9.869-15.349 14.904-.56.559-1.038 1.184-1.629 1.727-2.281 2.098-4.527 4.33-6.811 6.613-.593.594-1.307 1.547-2.023 1.629-.989.115-2.118 0-3.208 0-15.619 0-32.19-.096-47.476-.246-.266-1.109-.148-2.273-.148-3.406 0-17.408.017-35.002.05-51.918 6.382-6.666 12.924-13.218 19.593-19.888 1.04-1.039 1.82-1.99 2.962-3.108.466-.459 1.144-1.307 1.628-1.383.239-.037.618-.053.74-.049 9.051.209 17.943-.01 26.749.049 4.424.029 8.849.029 13.275.098 4.374.068 8.761-.189 13.178.148z" fill-rule="evenodd"/></svg>