<svg enable-background="new 0 0 77.595 78.22" viewBox="0 0 77.595 78.22" xmlns="http://www.w3.org/2000/svg"><path clip-rule="evenodd" d="m14.797 22.176c-.462.301-.546.866-.805 1.325-.24.427-.561.835-.804 1.278-.997 1.811-1.759 3.825-2.413 6.01-.318 1.061-.733 2.184-.757 3.36.009.038.047.047.047.095.602.315 1.296.189 1.94.189 21.629.001 43.546-.044 65.069.142.475.541.521 2.327.521 3.407.001 3.862-.263 7.208-.946 10.222-.93 4.101-2.355 7.481-4.212 10.648-3.702 6.314-8.796 11.275-15.049 14.67-3.13 1.7-6.873 3.18-10.884 3.975-4.265.846-8.966.962-13.629.284-4.276-.622-7.906-1.953-11.311-3.549-5.852-2.744-10.459-6.926-14.197-11.878-.524-.695-1.142-1.451-1.514-2.177-1.671-3.259-3.315-6.487-4.449-10.411-1.728-5.979-1.869-13.496-.378-19.639.487-2.009 1.067-3.905 1.798-5.631 1.466-3.463 3.191-6.758 5.3-9.559 4.113-5.465 10.075-10.051 17.179-12.542 1.876-.658 3.747-1.195 5.821-1.609 2.088-.416 4.217-.643 6.672-.757 3.623-.168 7.474.437 10.458 1.136 3.144.736 5.861 1.913 8.377 3.218 4.229 2.194 8.209 5.395 11.263 9.039.368.438 1.213 1.148 1.23 1.656.015.431-.595 1.005-.994 1.467-5.551 6.425-13.174 11.33-23.141 13.109-10.947 1.953-20.689-1.49-27.211-5.632-.492-.312-.98-.625-1.467-.946-.475-.315-.921-.775-1.514-.9zm18.03-12.115c-2.959.587-5.386 1.62-7.761 2.84-.57.293-.999.634-1.656.994-.51.278-1.599.603-1.609 1.041-.01.404 1.057 1.025 1.514 1.325 3.941 2.584 9.185 4.47 15.286 4.59 6.418.127 11.497-1.895 15.427-4.448.335-.218 1.651-.854 1.609-1.278-.031-.309-1.279-.951-1.704-1.23-1.315-.865-2.506-1.455-3.833-2.035-3.395-1.484-7.625-2.548-12.446-2.319-1.747.083-3.32.221-4.827.52zm31.375 33.552c-3.449 0-6.961 0-10.505 0-11.69 0-23.726-.045-35.635-.047-2.402 0-4.825-.125-7.193 0-.332.018-.806.021-.994.284-.065.619.167 1.243.331 1.798.867 2.936 1.697 5.596 3.123 8.045.222.381.562.839.852 1.372.271.499.525 1.253.994 1.277.287.016.758-.438 1.136-.709 5.33-3.825 12.136-6.616 20.681-7.099 4.793-.271 9.207.497 12.966 1.656 3.798 1.171 6.998 2.838 10.08 4.732.825.5 1.412 1.238 2.366 1.609.852-.634 1.282-1.695 1.846-2.65 1.425-2.416 2.395-5.104 3.123-8.187.138-.583.389-1.285.095-1.893-1.053-.302-2.176-.188-3.266-.188zm-40.556 18.409c-.449.273-1.485.763-1.467 1.136.018.375 1.086.888 1.562 1.183 1.747 1.084 3.601 1.98 5.537 2.698 2.725 1.01 5.876 1.703 9.275 1.704 6.394.001 11.11-1.628 15.143-4.07.357-.216 1.591-.767 1.609-1.136.021-.447-1.097-1.01-1.562-1.325-.616-.417-1.341-.821-1.846-1.088-3.889-2.06-8.472-3.452-14.245-3.265-5.777.186-10.189 1.837-14.006 4.163z" fill-rule="evenodd"/></svg>