<svg enable-background="new 0 0 58.039 74.342" viewBox="0 0 58.039 74.342" xmlns="http://www.w3.org/2000/svg"><path clip-rule="evenodd" d="m36.619 48.706c-.247-.863-.145-2.126-.145-3.422 0-1.095-.216-3.037.096-3.615.228-.423 1.187-.638 1.735-.916 4.116-2.088 7.224-4.959 8.966-9.496.992-2.583 1.395-5.9.868-9.11-.259-1.579-.479-3.005-1.061-4.194-.583-1.19-1.171-2.251-1.928-3.326-2.946-4.186-7.097-6.814-13.738-7.375-3.521-.297-6.748.17-9.399 1.06-2.641.887-4.748 2.149-6.652 3.856-2.711 2.725-4.933 6.388-5.543 11.328-.672 5.439 1.271 9.827 3.808 12.774 1.231 1.549 2.809 2.817 4.627 3.808s3.883 1.801 6.266 2.073c.343-.252.241-.777.241-1.157 0-2.226-.068-4.675 0-6.845.029-.918-.133-1.82.145-2.603 1.492-.201 3.134-.097 4.772-.097 1.583 0 3.342-.244 4.724.145.26 1.434.145 2.952.145 4.483 0 7.521.048 15.276.048 22.992 0 2.454.172 4.306 1.253 5.688.335.428.691.918 1.061 1.205 1.497 1.162 3.912 1.419 5.833.772 4.441-1.499 5.061-7.141 5.062-13.063 0-1.147-.099-2.333.145-3.374 1.385-.169 2.906-.108 4.338-.097 1.404.011 2.939-.124 4.241.145.284 1.018.144 2.101.048 3.133-.287 3.121-.48 6.259-1.06 9.062-.759 3.669-2.718 6.474-5.062 8.436-1.296 1.042-2.737 1.851-4.386 2.362-3.2.992-8.965.841-11.858-.386-.658-.278-1.563-.678-2.314-1.06-.588-.299-1.527-1.237-2.072-1.253-.639-.019-1.612 1.041-2.169 1.35-2.327 1.29-4.721 2.116-8.194 2.314-9.272.527-14.319-4.184-16.244-11.52-.713-2.716-1.012-6.084-1.012-9.399 0-1.036-.111-2.162.385-3.085 1.251-.284 2.796-.099 4.241-.099 1.462 0 2.912-.073 4.145.048.021.043.042.086.097.096.251 1.946.051 4.006.144 5.978.272 5.747 1.378 11.24 7.279 11.279 1.994.013 3.315-.818 4.338-1.88 1.014-1.052 1.742-2.482 1.88-4.29.288-3.769-.032-7.997 0-11.858-.86-.345-1.779-.479-2.651-.579-2.893-.332-5.346-1.12-7.712-1.976-3.112-1.126-5.684-2.888-7.857-5.062-4.305-4.305-7.144-10.509-6.362-19.04.699-7.655 4.116-13.127 9.012-16.773 3.753-2.794 8.135-4.612 13.834-5.543.929-.151 1.865-.27 2.844-.385 6.752-.798 14.058.735 18.799 2.843 4.441 1.975 7.646 4.816 10.026 8.628 2.413 3.866 3.711 9.048 3.326 15.136-.367 5.805-2.296 10.047-5.061 13.544-3.209 4.081-8.012 6.311-13.738 8.002-.788.234-1.693.515-2.554.338z" fill-rule="evenodd"/></svg>