<svg enable-background="new 0 0 79.274 39.014" viewBox="0 0 79.274 39.014" xmlns="http://www.w3.org/2000/svg"><path clip-rule="evenodd" d="m14.909 0h5.415c.925.704 1.62 1.62 2.439 2.44 5.238 5.236 10.677 10.485 16.051 15.66.378.363.745.895 1.317.977.358-1.087.281-2.154.488-3.172.599-2.951 1.864-5.419 3.366-7.562 2.009-2.866 4.681-5.114 8.001-6.587 3.355-1.487 8.286-2.14 12.44-1.073 2.839.729 5.296 1.998 7.367 3.562.685.517 1.415 1.043 1.854 1.757-.373.794-1.322 1.381-2.05 2.098-.234.231-.452.617-.731.635-.479.029-1.67-1.227-2.049-1.513-1.954-1.469-4.601-2.698-7.758-2.928-4.975-.361-8.437 1.394-11.123 3.562-2.005 1.618-3.57 3.767-4.537 6.44-.314.866-.709 1.891-.537 2.927.639.265 1.374.146 2.049.146 9.329-.001 19.032.001 28.052 0 1.417 0 2.827-.118 4.196.146.661 6.748-1.683 11.464-4.781 14.977-2.935 3.33-7.54 6.171-13.465 6.489-6.515.349-11.36-2.139-14.588-5.367-2.511-2.511-4.485-5.459-5.464-9.514-.161-.666-.361-1.331-.439-2.049-.077-.706.023-1.475-.292-2.195-.939.363-1.644 1.23-2.342 1.902-4.968 4.784-9.956 9.729-14.88 14.637-.805.789-1.462 1.725-2.439 2.342-1.743.051-3.947.143-5.61-.049-.01-.51.64-.751.927-1.122.377-.321.694-.705 1.073-1.024 4.359-4.114 8.552-8.393 12.88-12.538.562-.772 1.62-1.307 1.903-2.196-5.141-.45-10.596.101-15.904-.146-3.933-.183-7.846-.049-11.758-.048-1.284 0-2.604.116-3.855-.146-.136-1.123-.216-3.006.049-4.05 10.375-.324 21.057.144 31.321-.146-.016-.514-.515-.905-.829-1.22-2.442-2.442-5.013-4.818-7.513-7.317-2.055-2.055-4.182-4.23-6.343-6.392-.64-.641-1.729-1.552-2.049-2.195.029-.072.077-.121.148-.148zm56.837 21.565c-3.097.052-6.341.054-9.611 0-4.386-.072-8.875-.003-13.318 0-.017 0-.033-.001-.049 0-1.22.058-2.817-.059-3.952.194.12 2.048.841 3.807 1.707 5.269.878 1.482 1.961 2.798 3.22 3.854 2.466 2.259 5.739 4 10.245 3.951 4.42-.048 7.587-1.8 10.099-4 1.884-1.65 3.32-3.721 4.245-6.294.313-.872.698-1.836.536-2.83-1.012-.247-2.073-.163-3.122-.144z" fill-rule="evenodd"/></svg>