<svg enable-background="new 0 0 79.134 41.012" viewBox="0 0 79.134 41.012" xmlns="http://www.w3.org/2000/svg"><path clip-rule="evenodd" d="m54.541 40.8c-.215-1.688-.043-3.408-.092-5.129-.141-4.926-.018-10.298.047-15.387 1-.243 2.246-.138 3.479-.138 1.203 0 2.453-.074 3.48.092.369 4.21-.07 9.081.231 13.509 1.072.247 2.346.138 3.48.138 1.246 0 2.287-.044 3.158-.412 2.211-.933 3.953-3.071 4.076-5.815.166-3.692-2.467-6.59-5.861-7.053-.637-.087-1.328.078-1.969-.183.23-.404.736-.439 1.098-.596 1.109-.483 2.025-1.344 2.748-2.29.645-1.239 1.068-2.434 1.055-3.847-.016-1.428-.59-2.652-1.1-3.755-.014-.029-.027-.061-.047-.092-.689-1.092-2.125-2.108-3.434-2.473-2.248-.625-4.818.009-7.418-.184-1.625 1.078-2.773 2.632-4.26 3.847-1.348 1.353-2.734 2.669-4.121 3.984-1.399 1.299-2.715 2.695-4.121 3.984-1.408 1.289-2.641 2.773-4.213 3.892-.943-.402-1.391-1.297-2.152-1.878-2.064-1.937-4.074-3.925-6.092-5.907-1.361-1.311-2.68-2.661-4.029-3.984-1.348-1.32-2.668-2.681-4.168-3.847-2.637.077-4.959-.196-6.961.229-1.908.406-3.469 1.238-4.853 2.29-2.723 2.067-4.777 4.87-5.449 8.885-.369 2.207.064 4.495.641 6.273 1.17 3.614 3.607 5.958 6.732 7.601 1.564.823 3.498 1.462 5.725 1.328.197-.479.184-1.062.182-1.603-.006-1.583-.045-3.356-.045-5.129 0-2.348-.035-4.741.137-6.823 2.06-.132 4.756-.163 6.916 0 .299 1.62.06 3.327.137 5.037.076 1.714.061 3.499 0 5.221-.119 3.454.166 6.95-.092 10.304-1.951.127-3.967.146-5.816.092-2.049-.06-3.848.036-5.586-.412-6.285-1.62-10.798-5.079-13.556-10.347-1.377-2.631-2.416-5.756-2.428-9.526-.023-7.343 3.533-12.949 7.738-16.211 2.225-1.725 4.967-3.073 8.061-3.893 3.301-.875 7.408-.149 11.449-.412 1.268.945 2.301 2.126 3.434 3.205 2.133 2.265 4.397 4.397 6.641 6.549.762.8 1.646 1.571 2.52 2.427.266.262.613.68.961.688.566.013 1.379-1.059 1.832-1.512.6-.6 1.213-1.2 1.693-1.648 3.16-2.947 6.176-6.01 9.389-9.021.291-.273.641-.655.916-.732.976-.273 2.406-.046 3.525-.046 2.701-.001 5.672-.267 7.877.274 1.172.287 2.174.795 3.16 1.328 1.936 1.048 3.449 2.494 4.672 4.305 1.203 1.782 2.121 4.077 2.197 6.777.039 1.398-.234 2.917-.504 3.984-.113.446-.311 1.146-.549 1.694-.164.372-.75 1.133-.688 1.557.045.302.699.601 1.008.779 2.197 1.266 3.768 3.601 3.801 6.961.029 3.026-.879 5.439-2.108 7.326-1.248 1.921-2.941 3.336-5.037 4.442-1.07.565-2.188 1.078-3.48 1.282-1.342.212-2.912.092-4.578.092-2.994.001-6.235.077-9.389-.091z" fill-rule="evenodd"/></svg>