<svg enable-background="new 0 0 77.068 47.458" viewBox="0 0 77.068 47.458" xmlns="http://www.w3.org/2000/svg"><path clip-rule="evenodd" d="m33.549.193c.19 6.143.128 11.814.049 17.861-4.82.295-10.151-.09-14.82.145-.264 1.004-.18 2.828-.048 3.91 6.112.341 13.223.016 19.743.145 6.672.132 13.471.074 20.033-.048.161-1.073.157-2.788 0-3.862-1.142-.261-2.405-.145-3.669-.145-1.254 0-2.543 0-3.813 0-2.562 0-5.177.116-7.482-.145-.147-5.961-.188-12.214 0-17.861 10.668-.128 22.091-.14 33.356.097.261 1.422.145 2.969.145 4.489 0 4.491.089 8.906-.097 13.372-1.136.263-2.368.096-3.62.096-3.65 0-7.64-.04-11.247.048-.341.741-.193 1.704-.193 2.606 0 2.696-.046 5.581.048 8.158.043.021.087.042.097.097 1.138.191 2.392.097 3.669.096 2.521 0 5.064-.012 7.579.048 1.255.03 2.53-.14 3.668.145.17 5.088.097 10.457.097 15.833 0 .722.111 1.462-.145 2.124-8.251.124-16.746 0-25.15 0-2.78 0-5.562.109-8.254-.145-.061-5.468-.136-12.228.048-17.957 4.954-.254 10.18.059 14.916-.145.284-.796.128-2.284.097-3.234-.744-.196-1.574-.223-2.365-.193-5.496.204-11.696 0-17.378 0-6.709 0-13.42-.062-19.984 0-.357.821-.222 2.325-.097 3.283 1.141.26 2.403.145 3.669.145h7.53c1.247 0 2.491-.11 3.62.145.197 2.86.097 5.912.097 8.979 0 3.031.149 6.078-.097 8.931-1.232.224-2.659.193-4.102.145-4.058-.136-8.356-.048-12.6-.048-5.569 0-11.222-.017-16.702-.145-.16-5.74-.16-12.167 0-17.958 1.037-.183 2.307-.096 3.621-.096 3.674 0 7.671.04 11.295-.048.261-.806.146-1.736.146-2.655 0-2.712.117-5.566-.049-8.158-1.135-.285-2.379-.146-3.62-.193-2.446-.092-5.054 0-7.675 0-1.277 0-2.553.116-3.718-.145-.085-4.818-.22-10.628-.098-15.689.015-.652-.109-1.908.144-2.124.036-.046.088-.073.145-.097 10.896.054 22.403-.065 33.211.193z" fill-rule="evenodd"/></svg>