<svg enable-background="new 0 0 76.303 77.081" viewBox="0 0 76.303 77.081" xmlns="http://www.w3.org/2000/svg"><g clip-rule="evenodd" fill-rule="evenodd"><path d="m36.588.041c6.161-.294 11.894 1.038 16.204 2.964 8.961 4.003 15.239 10.211 19.55 18.785 2.123 4.222 3.65 9.408 3.92 15.248.291 6.279-.998 11.708-2.868 16.204-3.756 9.029-9.899 15.657-18.402 19.933-4.219 2.121-9.457 3.626-15.248 3.872-9.322.394-16.747-2.589-22.466-6.214-5.85-3.709-10.195-8.954-13.385-15.344-2.122-4.254-3.685-9.362-3.871-15.296-.2-6.391 1.006-11.772 2.867-16.3 1.912-4.648 4.358-8.276 7.505-11.663 3.021-3.251 6.607-6.121 10.946-8.222 2.062-.998 4.325-2.059 6.835-2.724 2.549-.676 5.442-1.101 8.413-1.243zm23.183 21.797c-.345.507-.85 1.657-.86 2.725-.026 2.705 1.973 4.691 4.11 5.21 2.824.685 5.056-1.161 5.832-2.916 1.284-2.9-.599-6.151-3.06-7.026-.551-.196-1.516-.245-2.103-.191-1.911.175-3.103.999-3.919 2.198zm-17.877 1.959c-3.064.656-5.433 1.747-7.361 3.394-2.448 2.09-4.399 5.379-4.063 10.229.142 2.034.86 3.957 1.816 5.354 2.824 4.13 8.449 6.599 15.296 6.166 4.416-.279 8.019-1.45 10.659-3.68 2.529-2.137 4.501-5.558 4.015-10.182-.459-4.369-2.615-7.153-5.354-8.986-2.705-1.812-7.202-2.918-11.711-2.677-1.039.055-2.316.173-3.297.382zm23.039 38.145c.113-.478.139-1.017.239-1.482.986-4.564-1.047-8.235-4.254-9.321-2.237-.758-5.675-.526-8.699-.526-3.097 0-6.278-.129-9.226-.048-.059.001-.07.041-.144.048-2.912.261-6.416-.314-9.082.144-.159 3.013-.159 6.69 0 9.703 1.126.267 2.322.128 3.489.144 8.562.114 17.467-.221 25.956 0 .857.337 1.258 1.332 1.146 2.485.348-.244.483-.756.575-1.147z"/><path d="m46.053 23.988c1.634-.16 3.352.7 3.919 2.151.476 1.216.239 3.249.239 5.019 0 1.976.032 3.597.048 5.067.018 1.651.067 3.284 0 5.114-.055 1.477.149 3.649-.239 4.78-.903 2.642-5.921 3.332-7.17.143-.43-1.097-.239-3.332-.239-4.971 0-4.346.014-8.808 0-12.858-.002-.873-.096-1.699.144-2.342.479-1.291 1.794-1.956 3.298-2.103z"/></g></svg>