<svg enable-background="new 0 0 27.917 32.506" viewBox="0 0 27.917 32.506" xmlns="http://www.w3.org/2000/svg"><path d="m16.57 4.62c0 .499-.021 6.959-.031 7.276-.002.086.023.14.113.158.145.031.289.063.432.098.647.158 1.251.402 1.762.842.128.109.159.107.282-.012.272-.262 8.128-7.793 8.721-8.362-.234-.007-11.279 0-11.279 0"/><path d="m16.374 32.506c.059-.049 7.524-7.273 7.874-7.602-.979-1.005-5.04-5.173-5.156-5.289-.182-.188-.191-.191-.4-.021-.625.509-1.362.717-2.146.795-.123.013-.158.06-.156.168.002.189-.025 11.867-.016 11.949"/><path d="m4.368 15.854c1.755.001 6.729-.022 7.477-.005.106.002.158-.038.178-.144.033-.181.067-.36.118-.535.172-.592.438-1.135.854-1.598.061-.068.071-.133.001-.207-.264-.277-8.222-8.481-8.413-8.678-.026.088-.215 11.167-.215 11.167"/><path d="m.488 16.996c.213.223 5.801 5.989 6.969 7.182.873-.823 4.725-4.516 5.333-5.102.14-.136.147-.164.043-.332-.018-.029-.711-1.013-.799-2.15-.007-.096-.048-.129-.138-.127-.152 0-.304-.004-.456-.006-.385-.006-11.44.002-11.44.002.251.275.472.517.488.533"/><path d="m19.429 19.041c.329.334 8.452 8.65 8.452 8.65l.036-11.133s-6.68-.004-7.338-.021c-.123-.003-.182.034-.201.161-.078.497-.211.98-.461 1.42-.143.251-.319.486-.497.715-.069.091-.057.14.009.208"/><path clip-rule="evenodd" d="m15.964 6.584c-.015.889-.049 3.848-.059 4.439-.004.279-.011.557-.016.834-.004.195-.02.214-.203.254-.264.057-.652.13-.899.23-.386.154-.637.313-1.009.498-.039.02-.075.045-.11.07-.111.082-.207.062-.298-.036-.216-.232-4.862-5.015-5.099-5.245-.1-.098-.103-.145.003-.245.509-.479 7.657-7.383 7.657-7.383s.052 5.549.033 6.584" fill-rule="evenodd"/><path d="m15.638 27.963c.029-2.199.093-6.921.093-7.338.004-.195-.037-.253-.23-.275-.726-.086-1.333-.43-1.903-.855-.147-.109-.144-.119-.27.002-.415.396-8.717 8.438-8.762 8.493.065.01 9.107-.035 11.072-.027"/></svg>