<svg enable-background="new 0 0 76.647 76.398" viewBox="0 0 76.647 76.398" xmlns="http://www.w3.org/2000/svg"><g clip-rule="evenodd" fill-rule="evenodd"><path d="m11.802 65.824c-4.883-4.734-8.717-10.467-10.66-18.021-1.022-3.975-1.363-8.664-1.003-13.049.348-4.233 1.439-8.209 2.867-11.471 4.294-9.807 11.957-16.889 22.132-20.889 2.623-1.031 5.492-1.703 8.651-2.104 8.917-1.129 17.23 1.184 22.849 4.301 4.505 2.502 8.294 5.609 11.519 9.418.452.533.785 1.176 1.195 1.768 3.251 4.703 5.991 10.088 6.931 16.969 1.325 9.709-1.141 18.301-4.637 24.475-4.906 8.665-13.018 15.197-23.803 18.019-3.213.84-6.951 1.225-10.803 1.148-3.595-.072-7.283-.795-10.229-1.721-6.061-1.906-10.819-4.972-15.009-8.843zm26.289-64.434c-6.175 6.102-12.193 12.238-18.402 18.449-4.528 4.531-9.269 9.127-13.91 13.768-1.094 1.094-2.226 2.324-3.441 3.441-.371.342-1.101.938-1.1 1.242.001.229.711.902 1.052 1.242 1.255 1.256 2.367 2.32 3.489 3.443 4.687 4.684 9.283 9.264 13.958 13.766 4.776 4.6 9.168 9.17 13.862 13.861 1.207 1.209 2.242 2.195 3.489 3.441.345.346 1.037 1.053 1.29 1.053.317 0 .896-.717 1.243-1.053 3.586-3.453 6.948-6.988 10.42-10.324 2.386-2.293 4.546-4.672 6.931-6.979 5.901-5.625 11.546-11.494 17.351-17.303.348-.348 1.062-.945 1.052-1.291-.008-.262-.69-.881-1.052-1.244-1.97-1.969-3.997-3.781-5.735-5.783-.728-.838-1.582-1.502-2.343-2.295-3.063-3.188-6.3-6.156-9.32-9.176-5.385-5.383-10.797-10.744-16.205-16.154-.707-.709-1.867-1.988-2.485-2.199-.057.023-.109.05-.144.095z"/><path d="m20.358 56.98c-3.224-3.268-5.875-7.18-7.122-12.283-1.421-5.812-.699-11.957 1.243-16.539 2.85-6.723 8.048-11.432 14.961-14.148 1.214-.479 2.455-.783 3.776-1.053 3.59-.732 8.377-.658 11.807.287 2.114.584 4.051 1.348 5.783 2.295 3.368 1.84 6.558 4.418 8.652 7.504 2.197 3.238 4.033 6.951 4.637 11.568.646 4.943-.197 9.996-1.816 13.861-1.462 3.486-4.039 7.051-6.884 9.32-3.041 2.428-6.491 4.48-10.659 5.498-4.405 1.074-10.116 1.049-14.148-.383-4.013-1.423-7.368-3.286-10.23-5.927zm32.169-7.791c1.823-1.674 3.751-3.641 5.449-5.496 1.255-1.371 2.739-2.691 4.111-4.064.447-.447 1.315-1.055 1.29-1.481-.02-.33-1.188-1.332-1.481-1.625-7.301-7.299-14.618-14.428-21.893-21.701-.368-.369-1.191-1.389-1.721-1.434-.085-.008-.166.041-.191.096-4.265 3.978-8.147 8.227-12.38 12.379-3.644 3.578-7.198 7.15-10.85 10.803-.39.391-1.483 1.207-1.482 1.625.002.385 1.186 1.34 1.482 1.625.606.584 1.046 1.094 1.529 1.578 3.194 3.193 6.321 6.129 9.417 9.225 1.997 1.998 4.024 4.238 6.166 6.262 1.535 1.451 3.118 3.07 4.684 4.637.275.275 1.28 1.482 1.673 1.482.269 0 .641-.449.86-.67.831-.83 1.621-1.633 2.391-2.293 3.821-3.618 7.087-7.403 10.946-10.948z"/><path d="m50.424 25.625c2.765 2.736 5.224 6.601 5.354 11.998.134 5.586-2.066 9.646-4.732 12.619-3.421 3.377-8.926 6.434-15.965 5.066-5.706-1.109-10-4.623-12.333-9.369-1.236-2.518-1.942-5.857-1.721-9.035.226-3.23 1.388-5.834 2.772-8.078 2.684-4.346 7.177-7.467 13.815-7.887 5.814-.367 9.712 2.045 12.81 4.686zm-27.771 11.519c-.345.344-.966.781-.956 1.146.009.336.765.924.956 1.1.428.395.743.744 1.052 1.053 2.148 2.146 4.162 4.131 6.214 6.262 2.291 2.379 4.881 4.881 7.265 7.264.168.168.933.959 1.147.957.299-.002.78-.637 1.1-.957 5.014-5.014 9.711-9.709 14.675-14.674.247-.246.967-.777.956-1.147-.009-.281-.761-.916-.956-1.1-2.623-2.471-4.834-4.787-7.313-7.266-2.513-2.512-4.767-4.818-7.313-7.266-.317-.305-.996-1.109-1.387-.812-5.261 5.118-10.251 10.253-15.44 15.44z"/><path d="m42.107 36.091c-1.034-.633-1.459-1.566-2.82-1.721-2.543-.285-4.445 1.391-4.445 3.873 0 2.416 2.523 4.768 5.066 3.584.721-.334 1.31-.82 1.578-1.768-.398-.527-1.823-.025-2.439-.334-.235-.391-.18-1.404-.047-1.865 1.464-.123 3.433-.219 4.875-.047.312 1.859-.248 3.406-1.052 4.396-.79.975-2.104 1.869-3.681 2.008-3.199.281-6.208-2.133-6.453-5.307-.282-3.67 2.197-6.42 5.688-6.643 1.718-.111 3.04.576 4.016 1.338.323.252 1.038.744 1.051 1.1.02.511-1.051 1.088-1.337 1.386z"/></g></svg>