<svg enable-background="new 0 0 76.589 76.671" viewBox="0 0 76.589 76.671" xmlns="http://www.w3.org/2000/svg"><g clip-rule="evenodd" fill-rule="evenodd"><path d="m63.552 58.351c-.393-1.222-.992-2.381-1.561-3.513-2.232-4.441-4.536-8.856-6.781-13.466-1.103-2.264-2.113-4.483-3.269-6.83-.217-.439-.487-1.048-.83-1.707-.245-.472-.821-1.31-.78-1.708.059-.571 1.326-.979 1.902-1.269 2.031-1.02 4.038-2.496 6.196-3.171.684.379 1.006 1.333 1.366 2.049 4.888 9.723 9.821 19.389 14.686 29.224.343.694.685 1.417 1.122 2.244.325.617 1.086 1.775.976 2.293-.093.433-1.156.905-1.757 1.22-1.982 1.038-3.975 2.05-5.903 2.977-4.079 1.96-7.73 4.092-11.758 6-3.924 1.86-8.408 3.449-13.855 3.854-7.96.592-14.412-1.023-19.856-3.415-5.484-2.409-9.897-5.978-13.465-10.147-3.789-4.044-6.528-9.202-8.392-15.271-1.833-5.97-2.157-14.134-.586-20.783 2.212-9.355 7.065-16.567 13.319-22.149 1.446-1.291 3.292-2.63 5.171-3.708.536-.307 1.719-1.116 2.098-1.073.638.071.964 1.317 1.269 1.902.77 1.483 1.42 2.762 2.146 4.196.294.58 1.036 1.619.976 2.195-.053.51-1.995 1.533-2.488 1.853-3.481 2.265-6.312 5.158-8.635 8.538-.591.858-1.045 1.737-1.562 2.732-1.939 3.738-3.446 8.177-3.659 13.515-.226 5.645 1.03 10.487 2.83 14.344.931 1.994 1.867 3.831 3.073 5.513 2.39 3.33 5.552 6.052 9.123 8.099 3.807 2.182 7.942 3.556 13.172 4 2.867.244 5.549-.069 7.952-.536 4.862-.945 8.452-2.94 12.246-4.928.937-.491 1.885-.984 2.829-1.464.916-.462 1.913-.873 2.685-1.61z"/><path d="m48.428 31.908c.826.858 1.206 2.041 1.756 3.074.566 1.062 1.048 2.156 1.61 3.22 1.11 2.102 2.032 4.319 3.123 6.488 1.83 3.643 3.707 7.438 5.659 11.222.257.497.756 1.252.684 1.707-.089.556-1.77 1.225-2.439 1.562-2.712 1.363-5.303 2.78-8.001 4-3.792 1.716-8.565 2.401-13.661 2.05-2.311-.159-4.581-.74-6.537-1.464-5.832-2.157-10.566-5.537-13.807-10.196-2.356-2.891-3.83-6.793-4.83-11.172-.992-4.348-.724-10.129.439-14.295 2.047-7.333 6.143-12.323 11.709-16.295.657-.47 1.994-1.543 2.634-1.562.571-.017 1.06 1.384 1.317 1.902.951 1.924 1.705 3.283 2.634 5.27.159.339.461.867.44 1.122-.041.479-.917.794-1.366 1.073-1.498.93-2.779 2.195-3.854 3.366-2.977 3.242-5.425 7.969-5.074 14.148.171 3.007.834 5.542 1.903 7.757 1.982 4.106 5.754 7.604 10.001 9.318 2.267.915 4.954 1.635 8.196 1.366 2.238-.186 4.089-.551 5.952-1.268.461-.178 1.33-.475 1.415-.976.097-.567-.627-1.639-.927-2.244-2.074-4.194-4.141-8.353-6.245-12.538-.335-.666-.826-1.302-.976-2.147.368-.716 1.228-.995 1.903-1.316 2.079-.991 4.116-2.315 6.342-3.172z"/></g></svg>