<svg enable-background="new 0 0 68.447 69.307" viewBox="0 0 68.447 69.307" xmlns="http://www.w3.org/2000/svg"><g clip-rule="evenodd" fill-rule="evenodd"><path d="m25.049.147c.267 3.444.147 6.974.147 10.512.001 10.483.078 21.13-.099 31.535-6.144.103-12.799.198-19 .099-1.044-.017-2.096.03-3.109 0-.974-.03-1.949.04-2.862-.198-.177-12.919-.098-26.454-.098-39.727 0-.769-.075-1.612.197-2.32 8.257-.072 16.87-.081 24.824.099z"/><path d="m68.281.197c.202 6.094.099 12.795.099 19.296 0 2.12.173 4.195-.099 6.12-6.582.226-13.546.098-20.579.099-7.027 0-14.104.005-20.926-.099-.271-3.957-.099-8.354-.099-12.733 0-3.785 0-7.539 0-11.351 0-.473-.127-1.031.197-1.432 14.127-.072 27.715-.07 41.407.1z"/><path d="m68.281 30.597c.19 6.02.148 12.397.147 18.951 0 6.521.081 13.191-.098 19.593-3.988.284-8.255.078-12.289.148-4.165.072-8.65-.08-12.684-.148-.17-12.998-.155-25.937-.049-38.593 5.808-.284 13.1.024 19.346-.099 1.002-.02 1.998.006 2.961 0 .914-.006 1.82-.016 2.666.148z"/><path d="m41.68 43.872c.169 6.337.149 12.533.149 19 0 2.084.115 4.209-.149 6.219-6.831.234-13.87.048-20.876.049-6.993 0-13.967.055-20.629-.149-.291-7.289.046-14.987-.098-22.405-.02-.971-.234-1.981.147-2.862 6.922-.095 14.284 0 21.023 0 6.987.001 13.68-.082 20.433.148z"/></g></svg>