<svg enable-background="new 0 0 81.709 40.822" viewBox="0 0 81.709 40.822" xmlns="http://www.w3.org/2000/svg"><path clip-rule="evenodd" d="m81.582.283c.179 1.47.099 3.177.099 4.857 0 1.657.109 3.33-.099 4.709-9.64.235-19.859-.078-29.345.149-.263.852-.149 1.972-.149 3.074 0 1.083-.076 2.222.099 3.122.614.264 1.315.1 1.983.1 4.653 0 9.963.001 14.672.148.165 2.646.165 5.979 0 8.625-1.32.266-2.74.148-4.164.148-3.96 0-8.451-.202-12.491.1-.196 1.804-.101 4.161-.05 6.048.547.269 1.197.139 1.785.148 4.106.066 8.737.049 13.037.049 3.724.001 7.361 0 11.104 0 1.177.001 2.385-.104 3.52.149.179 1.364.099 2.984.099 4.56 0 1.581.087 3.156-.149 4.411-3.479.215-6.89.05-10.261.05-3.413 0-6.785.159-10.112 0-3.333-.159-6.672.21-10.062.05-3.335-.158-6.792-.099-10.261-.1-6.604 0-13.937-.051-20.77-.049-7.268.001-14.748-.382-17.646-4.709-1.47-2.196-1.922-5.359-2.181-8.823-.305-4.091-.273-8.135-.148-12.096.136-4.337.28-8.094 1.983-10.607 1.767-2.61 4.221-4.044 8.426-4.312 2.976-.19 6.016 0 9.022 0 20.884.001 41.572.09 62.059.199zm-41.837 11.45c-.909-1.96-3.172-2.299-6.047-2.379-3.384-.095-6.724-.049-10.062-.05-1.857 0-3.956-.013-5.304.05-2.853.132-4.786.613-5.8 2.627-.82 1.628-.595 4.519-.595 7.237 0 2.612-.29 5.35.149 7.386.497 2.306 2.241 3.687 4.858 4.015 4.431.557 9.556.348 14.375.348 2.316 0 5.225.138 6.791-.694 1.504-.8 2.274-2.692 1.784-5.007-3.845-.134-8.164-.148-12.045-.148-1.349 0-2.729.153-3.916-.198-.043-2.923-.189-5.853.05-8.575 5.186-.305 10.986.111 16.06-.198.169-1.431.212-3.314-.298-4.414z" fill-rule="evenodd"/></svg>