<svg enable-background="new 0 0 77.005 78.054" viewBox="0 0 77.005 78.054" xmlns="http://www.w3.org/2000/svg"><path clip-rule="evenodd" d="m76.345 33.056c-3.747.179-7.507.116-11.27 0-.334-1.031-.621-2.031-.963-3.034-.337-.989-.714-1.91-1.156-2.841-.63-1.33-1.282-2.678-2.07-3.949-1.243-2.006-2.805-3.787-4.623-5.345-1.413-1.212-3.008-2.402-4.671-3.275-3.492-1.831-7.558-3.321-12.521-3.419-4.977-.098-9.36 1.23-13.002 2.938-3.391 1.59-6.369 4.207-8.812 7.175-1.227 1.489-2.144 3.118-3.082 4.912-.921 1.759-1.81 3.765-2.216 5.731-.932 4.517-1.126 9.814.192 14.11 1.256 4.088 2.881 7.702 5.395 10.546 4.266 5.106 9.847 9.473 18.637 10.113 7.737.563 13.971-1.881 18.443-5.153 1.773-1.297 3.565-2.901 4.961-4.623.724-.894 1.229-1.869 1.878-2.89.942-1.482 1.654-3.035 2.359-4.816.216-.544.553-1.084.578-1.686-.573-.261-1.296-.144-1.975-.144-1.938 0-4.133-.201-5.923.096-.253.825-.145 1.772-.145 2.697 0 2.751.039 5.769-.048 8.476-.879.253-1.88.144-2.842.144-2.766 0-5.808-.009-8.62-.144-.3-3.68.093-7.505-.192-11.221-.914-.256-1.926-.144-2.938-.144-2.945 0-6.087-.049-9.054.048-.283.802-.149 1.725-.145 2.648.011 2.718-.068 5.815-.097 8.572-.043.021-.086.042-.096.096-3.63.049-7.72.143-11.27-.048-.31-3.624.092-7.47-.192-11.22-1.351-.382-3.456-.012-4.912-.289-.488-.635-.671-1.611-.866-2.552-.554-2.653-1.073-6.361-.097-9.006 1.832-.142 3.995.047 5.827-.096.261-1.016.145-2.155.145-3.275 0-3.297-.04-6.862.048-10.113 3.999-2.349 8.58-4.278 12.906-6.453.637-.32 1.344-.712 2.119-1.107.617-.315 1.646-.986 2.215-1.012.607-.027 1.692.681 2.359 1.012 4.517 2.233 9.065 4.375 13.581 6.645.745.375 1.563.621 2.167 1.204.087 4.42-.167 9.283.096 13.147 1.643.302 3.364.084 5.105.144 4.981.172 10.389-.101 15.361.192.438 7.411-.9 13.625-3.13 18.733-2.237 5.128-5.238 9.505-9.054 13.002-1.042 1.01-2.132 1.893-3.227 2.745-.578.451-1.053.95-1.638 1.349-5.197 3.544-12.047 6.078-20.515 6.356-7.635.251-13.911-2.019-19.07-4.719-1.273-.667-2.495-1.467-3.659-2.312-5.749-4.171-10.328-9.69-13.287-16.515-1.211-2.794-2.192-5.814-2.745-9.198-.566-3.475-.823-7.259-.337-11.028.902-6.985 3.239-12.614 6.453-17.433 3.186-4.775 7.37-8.609 12.28-11.606 3.786-2.311 7.954-3.934 13.146-4.768 4.303-.69 9.619-.593 13.773.289 7.458 1.583 13.314 4.717 17.914 9.054 1.571 1.482 3.099 2.907 4.431 4.575 1.32 1.655 2.543 3.436 3.66 5.346 1.644 2.812 2.894 6.15 3.852 9.631.322 1.166.671 2.428.579 3.708zm-31.639-.722c0-1.125.038-2.271-.048-3.275-.891-.687-1.971-1.15-3.131-1.733-.453-.229-1.023-.51-1.637-.819-.542-.272-1.326-.717-1.83-.674-1.812.933-3.784 1.706-5.49 2.745-.087 1.1-.048 2.352-.048 3.563 0 1.206-.13 2.399.096 3.323 3.746.19 8.276.099 11.943.048.252-.909.145-2.058.145-3.178z" fill-rule="evenodd"/></svg>