<svg enable-background="new 0 0 77.496 79.74" viewBox="0 0 77.496 79.74" xmlns="http://www.w3.org/2000/svg"><path clip-rule="evenodd" d="m38.115.037c6.332-.303 11.975 1.311 16.297 3.368 4.474 2.129 8.53 4.73 11.592 8.074 1.61 1.759 3.022 3.609 4.358 5.498 3.892 5.5 7.134 13.084 7.134 22.29-.001 11.059-3.743 19.213-8.669 25.66-.349.455-.714.947-1.09 1.387-.383.447-.714.919-1.09 1.337-1.511 1.68-3.356 3.206-5.251 4.607-5.387 3.985-12.943 7.387-21.943 7.479-6.354.065-11.645-1.437-16.198-3.468-4.564-2.036-8.375-4.859-11.591-8.074-3.291-3.29-6.019-7.151-8.025-11.641-1.013-2.267-1.923-4.664-2.525-7.281-.614-2.667-.973-5.558-1.09-8.719-.229-6.104 1.242-12.037 3.12-16.445 1.001-2.35 2.19-4.598 3.418-6.439 2.593-3.888 5.785-7.351 9.511-10.154 1.854-1.396 3.874-2.545 6.143-3.666 4.402-2.176 9.466-3.811 15.802-3.814.031.001.065.002.097.001zm-1.635 7.132c-3.616 3.615-7.138 7.286-10.699 10.848-4.371 4.372-8.587 8.539-12.978 12.929-2.367 2.366-5.058 5.108-7.529 7.579-.315.315-.99.889-.99 1.188 0 .279.629.877.941 1.188 5.506 5.509 10.779 10.716 16.098 16.199 2.926 2.804 5.655 5.804 8.521 8.669 2.508 2.508 4.96 5.151 7.48 7.578.352.34.7.846 1.238.941.293-11.909-.094-23.47.247-34.823 11.219-.319 22.901.26 34.08-.099-.027-.532-.566-.815-.892-1.14-2.522-2.521-4.827-5.174-7.331-7.678-7.844-7.844-15.657-15.707-23.529-23.578-.53-.531-1.617-1.843-2.328-2.031-.768.664-1.54 1.442-2.329 2.23z" fill-rule="evenodd"/></svg>