<svg enable-background="new 0 0 147.669 147.761" viewBox="0 0 147.669 147.761" xmlns="http://www.w3.org/2000/svg"><path clip-rule="evenodd" d="m41.841 7.249c6.345-3.043 13.218-5.13 21.282-6.468 2.664-.442 5.526-.579 8.504-.72 5.727-.269 11.124.379 16.011 1.319 4.921.945 9.292 2.267 13.376 3.953 4.145 1.71 8.078 3.501 11.58 5.749 3.514 2.258 6.793 4.699 9.901 7.387 3.137 2.712 5.819 5.664 8.465 8.864 5.206 6.299 9.489 13.648 12.497 22.12 1.512 4.254 2.718 8.869 3.435 13.855.739 5.143.977 10.919.599 16.331-.369 5.275-1.322 10.32-2.596 14.693-2.624 9.01-6.426 16.564-11.419 23.198-2.497 3.316-5.094 6.479-8.026 9.303-5.853 5.64-12.69 10.305-20.523 14.095-1.943.94-4.022 1.786-6.149 2.516-2.142.735-4.291 1.501-6.548 2.076-4.786 1.221-9.63 1.892-15.173 2.156-5.696.273-11.098-.124-16.131-1.038-9.682-1.758-18.083-5.16-25.194-9.423-3.595-2.155-6.873-4.684-10.022-7.308-3.148-2.622-5.934-5.613-8.585-8.704-5.363-6.255-9.518-13.423-12.737-21.88-1.604-4.215-2.754-8.769-3.554-13.776-1.662-10.407-.713-22.238 1.717-31.063 1.241-4.507 2.764-8.76 4.671-12.617 3.835-7.755 8.615-14.485 14.374-20.244 5.767-5.765 12.35-10.539 20.245-14.374zm29.507-4.112c-.788.745-1.579 1.522-2.316 2.275-1.526 1.56-3.121 3.081-4.592 4.552-.758.759-1.437 1.598-2.196 2.357-2.288 2.287-4.617 4.616-6.868 6.867-7.688 7.688-15.333 15.255-22.919 22.839-1.522 1.521-2.958 3.159-4.512 4.632-3.141 2.976-6.036 6.199-9.144 9.184s-6.101 6.101-9.143 9.144c-2.291 2.29-4.557 4.637-6.828 6.907-.763.763-1.615 1.47-2.196 2.397 2.859 3.015 5.958 5.798 8.904 8.744 2.207 2.207 4.416 4.421 6.628 6.588 4.438 4.348 8.993 8.699 13.336 13.137.734.75 1.534 1.46 2.156 2.275.604.792 1.444 1.473 2.156 2.236.713.764 1.515 1.508 2.236 2.196 6.024 5.739 11.867 11.665 17.808 17.488 5.943 5.824 11.806 11.724 17.688 17.608.386.355.708.707 1.118 1.158.227.25.927 1.061 1.277 1.038.212-.014.899-.748 1.198-1.038.439-.427.78-.82 1.118-1.158 5.325-5.325 10.624-10.691 15.932-15.852 1.525-1.483 3.099-2.97 4.511-4.552 1.442-1.616 3.043-3.042 4.553-4.552 3.051-3.052 6.088-6.096 9.143-9.023 5.226-5.226 10.579-10.71 15.932-15.853.768-.736 1.604-1.486 2.276-2.275 1.367-1.605 2.976-3.016 4.512-4.552 1.508-1.508 3.04-3.04 4.552-4.552 2.646-2.645 5.372-5.22 8.025-7.866.311-.31 1.055-.968 1.038-1.237-.01-.17-.474-.594-.639-.759-1.681-1.681-3.431-3.445-4.991-5.031-3.3-3.371-6.677-6.637-10.021-9.982-3.316-3.317-6.462-6.841-9.902-10.102-3.394-3.217-6.476-6.687-10.021-9.982-1.641-1.524-3.334-3.321-5.031-4.991-1.215-1.195-2.542-2.435-3.754-3.754-.318-.347-1.008-1.197-1.317-1.197-.264 0-.878.759-1.198 1.078-.424.424-.826.787-1.158 1.118-2.299 2.3-4.511 4.796-6.787 6.947-3.199 3.024-6.087 6.008-9.184 9.104-5.662 5.66-11.43 11.429-17.129 17.129-.309.309-1.049.988-1.038 1.278.011.283.742.889 1.078 1.197.447.411.775.815 1.118 1.158 2.332 2.332 4.603 4.523 6.868 6.788 2.591 2.591 5.458 5.179 8.105 7.826.309.308.913 1.039 1.238 1.038.427-.002.912-.768 1.198-1.038.436-.414.766-.738 1.118-1.118 3.792-3.715 7.695-7.318 11.26-11.26 1.122-1.138 2.251-2.292 3.354-3.395.37-.37.732-.829 1.237-1.038 1.632 1.349 3.009 2.954 4.552 4.393 1.068 1.163 2.135 2.27 3.273 3.434.27.275 1.049.902 1.039 1.237-.008.254-.779.93-1.039 1.198-.422.439-.828.869-1.117 1.158-3.082 3.081-6.072 6.031-9.064 9.024-.751.751-1.533 1.505-2.235 2.276-1.423 1.563-2.975 3.011-4.512 4.552-5.605 5.619-11.288 11.328-16.929 16.97-.381.38-.971 1.041-1.238 1.038-.24-.003-.907-.747-1.198-1.038-1.168-1.169-2.308-2.269-3.434-3.395-1.551-1.551-3.053-3.134-4.512-4.592-1.559-1.558-2.962-3.184-4.512-4.592-1.574-1.429-3.038-2.958-4.592-4.512-1.499-1.499-3.062-2.982-4.591-4.512-3.105-3.104-5.938-5.976-9.144-9.063-1.141-1.099-2.26-2.299-3.434-3.395-.306-.285-1.082-.857-1.078-1.197.002-.169.463-.629.759-.919 2.056-2.016 4.042-4.082 5.989-6.028 5.761-5.761 11.388-11.429 17.089-17.13 1.145-1.145 2.209-2.369 3.354-3.514 8.523-8.524 17.148-17.11 25.714-25.674.302-.302 1.648-1.364 1.637-1.797-.006-.253-.729-.93-1.038-1.237-.439-.439-.847-.876-1.118-1.158-4.912-5.111-9.863-9.863-14.734-14.933-.364-.38-.808-1.059-1.277-1.078-.856.651-1.548 1.555-2.397 2.358z" fill-rule="evenodd"/></svg>