<svg enable-background="new 0 0 37.61 75.182" viewBox="0 0 37.61 75.182" xmlns="http://www.w3.org/2000/svg"><path clip-rule="evenodd" d="m37.559 18.785c-.916.257-1.956.145-2.995.145-1.03 0-2.094 0-3.14 0-2.114 0-4.277.114-6.135-.145-.304-.331-.29-.807-.386-1.16-.684-2.501-2.82-4.62-5.942-4.734-3.447-.126-6.242 2.526-6.521 5.701-.215 2.449.78 4.191 2.029 5.362 1.099 1.031 2.6 1.727 4.444 1.691 2.74-.054 4.678-1.657 5.604-3.623.32-.679.427-1.453.773-2.271 3.946-.048 8.357-.144 12.222.048.158 2.521-.606 4.704-1.401 6.619-.801 1.929-1.829 3.683-3.14 5.072-1.913 2.143-4.186 4.006-7.15 5.169-.978.384-2.063.513-3.043 1.015.837.446 1.74.556 2.561.87 5.567 2.126 9.606 6.388 11.497 12.27 1.181 3.673.941 8.361-.242 11.739-1.181 3.372-3.078 6.044-5.459 8.116-2.357 2.154-5.393 3.7-9.323 4.299-4.211.643-8.296-.228-11.353-1.739-2.96-1.464-5.368-3.667-7.198-6.377-1.836-2.718-3.197-6.15-3.14-10.338.937-.257 2.002-.145 3.043-.145 3.065 0 6.413-.028 9.372 0 .404.844.424 1.684.773 2.416.911 1.91 3.049 3.588 5.845 3.575 1.838-.009 3.373-.855 4.396-1.884 1.008-1.013 1.87-2.541 1.884-4.397.027-3.537-2.654-6.308-6.087-6.473-1.974-.095-3.496.703-4.589 1.691-1.146 1.035-1.768 2.377-2.125 4.154-3.699.256-8.54.189-12.464.048-.099-2.468.586-4.689 1.401-6.618 1.95-4.611 5.615-8.313 10.338-10.145.959-.372 2.022-.536 2.995-1.062-.476-.398-1.122-.4-1.643-.58-3.752-1.293-6.814-3.339-9.082-6.232-2.484-3.168-4.598-7.698-4.106-13.285.448-5.092 2.533-9.007 5.507-11.98 2.942-2.942 6.783-5.214 12.125-5.556 6.34-.405 11.057 2.265 14.106 5.314 1.657 1.657 2.995 3.409 4.058 5.652 1.026 2.164 1.838 4.748 1.691 7.778z" fill-rule="evenodd"/></svg>