<svg enable-background="new 0 0 80.164 80.836" viewBox="0 0 80.164 80.836" xmlns="http://www.w3.org/2000/svg"><path clip-rule="evenodd" d="m78.23 28.844c-1.775.197-4.094.1-5.951.05-.002-.048-.061-.039-.1-.05-.949-1.915-1.666-3.819-2.65-5.551-2.979-5.235-7.049-9.121-12.152-12.351-3.195-2.024-7.455-3.637-12.002-4.351-4.811-.755-10.363-.28-14.703.95-8.205 2.327-14.518 7.512-18.752 13.952-4.1 6.234-7.109 15.858-4.951 26.205.932 4.473 2.676 8.158 4.801 11.552 2.07 3.307 4.768 6.221 7.852 8.501 3.035 2.245 6.641 4.265 10.852 5.501 4.145 1.216 9.084 1.931 14.451 1.15 9.123-1.327 16.357-5.789 21.104-11.602 3.611-4.42 6.744-9.709 7.701-16.803.314-2.32.705-4.864.201-7.451-.586-.332-1.305-.2-1.951-.2-10.598 0-21.231-.215-32.004-.05-.274 1.418-.19 3.702-.051 5.201 6.76.21 13.52.15 20.604.15.951 0 1.941-.113 2.85.15.033 1.616-.5 3.094-.949 4.451-1.354 4.087-3.648 7.335-6.551 9.901-3.545 3.137-7.469 5.375-13.101 6.001-6.328.703-11.287-1.16-15.203-3.65-3.693-2.349-7.016-5.909-8.902-10.302-1.443-3.364-2.482-7.373-1.949-12.252.141-1.287.492-2.666.85-3.901 1.445-5 4.018-8.676 7.502-11.702 3.488-3.032 7.812-5.007 13.602-5.551 3.107-.292 5.979.346 8.451 1.05 2.475.705 4.615 1.914 6.4 3.15 3.334 2.307 5.711 5.358 7.701 9.102.229.428.529 1.331.852 1.501.391.205 1.371.131 2.049.15 4.996.139 10.293-.187 15.053.1 1.168 4.561 1.174 9.687.65 14.252-.383 3.335-1.338 6.496-2.4 9.301-.354.936-.885 1.75-1.199 2.65-.627 1.787-1.678 3.446-2.752 5.051-5.277 7.894-12.492 13.201-22.553 16.303-4.092 1.261-8.986 1.675-13.852 1.3-8.184-.63-14.727-3.503-19.953-7.301-.75-.545-1.557-1.039-2.252-1.6-5.625-4.542-10.275-10.787-12.705-18.453-1.59-5.02-2.644-10.786-1.951-17.103.621-5.648 2.258-10.647 4.601-14.853.943-1.693 1.838-3.364 2.949-4.801 1.168-1.506 2.262-2.97 3.502-4.3 3.756-4.028 8.467-6.987 13.951-9.352 2.777-1.196 5.83-1.971 9.203-2.5 2.396-.376 5.074-.563 7.951-.35 9.199.681 16.643 3.777 22.053 8.201 1.619 1.323 3.184 2.618 4.551 4.101 1.394 1.511 2.643 3.058 3.9 4.751 1.865 2.511 3.219 5.299 4.451 8.501.197.512.348 1.077.551 1.6.194.5.538 1.037.35 1.601z" fill-rule="evenodd"/></svg>