<svg enable-background="new 0 0 77.346 78.299" viewBox="0 0 77.346 78.299" xmlns="http://www.w3.org/2000/svg"><path clip-rule="evenodd" d="m69.705 38.248c-.77-.339-1.685-.195-2.536-.195-11.445-.001-22.841-.1-34.834-.098-1.732.001-4.258-.345-4.343 1.073-.114 1.919 3.342 1.415 5.416 1.415 8.221-.001 15.872.097 23.954.098 3.201 0 6.454-.118 9.465.146.01.04.049.049.049.098-.477 5.884-2.076 10.574-4.683 14.393-4.234 6.201-10.508 10.898-19.661 12.246-6.098.897-11.957-.611-16.051-2.635-4.241-2.097-7.715-5.066-10.392-8.782-1.785-2.477-3.399-5.227-4.343-8.391-1.016-3.411-1.581-7.371-1.22-11.368.34-3.761 1.461-7.125 2.83-9.953 2.75-5.679 7.149-10.121 12.636-12.88 2.712-1.363 6.19-2.543 9.952-2.83 4.01-.306 7.973.129 11.222 1.22 4.984 1.673 8.454 4.014 11.807 7.367 1.005 1.005 2.213 2.41 2.439 3.903.418 2.758-2.486 5.057-5.221 3.903-1.195-.504-1.967-1.71-2.829-2.634-.838-.898-2.034-1.811-2.977-2.488-2.141-1.539-4.544-2.604-7.61-3.318-3.075-.716-6.897-.416-9.709.342-5.639 1.519-9.566 4.9-12.197 9.611-1.32 2.366-2.353 5.019-2.683 8.196-.738 7.128 1.876 12.366 5.171 16.344 2.001 2.261 4.499 4.266 7.611 5.513 3.072 1.231 7.181 1.966 11.27 1.22 6.178-1.128 10.858-4.554 13.807-9.075.425-.65 1.038-1.354.977-2.195-.445-.345-1.054-.179-1.562-.195-3.855-.121-8.085-.026-12.1-.049-4.48-.024-9.169.152-13.465-.097-4.337-.252-6.913-2.378-8.343-5.513-.791-1.735-1.005-3.913-.488-5.854.473-1.774 1.442-3.1 2.635-4.293 1.168-1.168 2.643-1.997 4.732-2.195 2.155-.206 4.363-.098 6.732-.098 13.441 0 27.644.054 41.03.244.462.928.572 2.028.732 3.074.488 3.215.566 7.235.146 10.684-.548 4.499-1.942 8.414-3.464 11.758-3.054 6.71-8.088 12.536-14.1 16.295-3.087 1.931-6.566 3.544-10.538 4.684-4.053 1.163-8.919 1.671-13.709 1.171-9.046-.945-15.765-4.515-21.271-9.123-5.536-4.638-9.798-10.67-12.195-18.25-1.268-4.01-1.97-8.526-1.756-13.368.217-4.929 1.18-8.8 2.585-12.587 1.338-3.605 3.191-6.931 5.416-9.806 3.329-4.305 7.376-7.806 12.343-10.44 4.129-2.19 8.85-3.925 14.637-4.391 3.094-.249 6.308-.192 9.269.293 5.199.851 9.567 2.479 13.319 4.635 2.598 1.493 4.896 3.066 6.879 5.074 1.964 1.988 4.013 3.92 5.61 6.342.99 1.533 2.278 3.124 3.025 4.976.896 2.221.424 4.565-1.415 5.562-2.101 1.139-4.223-.304-5.074-1.756-.978-1.668-1.843-3.3-2.78-4.83-.904-1.475-2.254-2.888-3.514-4.098-3.968-3.812-8.408-6.467-14.782-8.05-4.044-1.004-9.42-1.108-13.66-.146-2.071.47-3.965 1.11-5.757 1.854-1.758.729-3.349 1.741-4.879 2.732-3.007 1.947-5.678 4.485-7.757 7.415-3.973 5.597-7.36 13.829-5.708 23.808.72 4.349 2.111 7.996 4.049 11.172 1.931 3.163 4.11 5.901 6.929 8.246 5.349 4.451 12.891 8.174 22.881 7.22 4.508-.43 8.402-1.661 11.757-3.464 3.285-1.765 6.257-4.003 8.538-6.635 1.163-1.342 2.191-2.848 3.172-4.44 2.414-3.922 4.219-8.401 4.683-14.343.086-1.109.203-2.317-.099-3.464z" fill-rule="evenodd"/></svg>