<svg enable-background="new 0 0 73.55 73.649" viewBox="0 0 73.55 73.649" xmlns="http://www.w3.org/2000/svg"><g clip-rule="evenodd" fill-rule="evenodd"><path d="m42.957 29.341c-1.182 1.332-2.587 2.635-5.067 2.629-2.402-.004-4.27-.475-5.687-1.768-2.876-2.623-2.601-8.656-2.773-14.149-.075-2.412.047-4.803.382-6.978.337-2.188.779-4.166 1.673-5.641 1.079-1.781 3.128-3.164 5.497-3.394 3.188-.311 5.661 1.221 6.836 3.059.988 1.549 1.311 3.723 1.529 6.215.208 2.375.412 4.881.335 7.361-.077 2.441-.362 4.863-.67 7.025-.322 2.27-.818 4.323-2.055 5.641z"/><path d="m32.919.183c-.114.453-.57.525-.86.67-2.434 1.213-4.439 2.58-6.07 4.588-.453.559-.937 1.109-1.387 1.674-1.87 2.348-3 5.541-3.012 9.227-.004 1.484.336 2.914.67 4.062.159.547.283 1.227.525 1.863.176.461.743 1.094.717 1.625-.027.557-.788 1.02-1.146 1.387-.477.486-.868.936-1.243 1.291-1.28 1.561-2.331 3.582-2.82 5.975-1.088 5.322.821 10.639 4.159 12.762 1.359.867 2.888 1.473 4.636 1.961.534.148 1.171.098 1.673.477-.323.576-1.05.598-1.577.814-.535.219-1.066.525-1.577.764-3.177 1.48-5.952 3.496-6.979 7.219-.773 2.803.018 5.67 1.195 7.6 1.203 1.975 2.777 3.574 4.445 4.971 1.204.873 2.471 1.697 3.871 2.438 1.04.551 2.18.957 3.346 1.387.328.121.799.19.956.574-2.577-.025-4.916-.766-7.074-1.482-6.43-2.137-11.612-5.66-15.63-10.277-4.08-4.555-7.408-10.012-8.891-17.016-.802-3.787-1.053-7.932-.67-11.902.36-3.734 1.439-7.246 2.677-10.277 2.426-5.942 6.388-11.02 11.137-14.774 4.921-3.891 10.778-6.797 18.212-7.648.145-.016.485-.15.717.047z"/><path d="m52.947 3.864c-.258.416-.749.385-1.147.575-.351.166-.729.447-.956.717-.226.266-.591 1.133-1.004 1.147-.439.014-1.327-1.398-1.577-1.674-1.547-1.688-3.829-2.777-5.641-4.062-.008-.119.073-.148.144-.191 1.858.162 4.001.736 5.593 1.291 1.719.598 3.405 1.178 4.588 2.197z"/><path d="m59.113 7.593c.4-.029.684.348.956.572.872.723 1.708 1.518 2.533 2.344 1.066 1.066 2.278 2.088 3.106 3.346.861 1.305 1.76 2.561 2.581 3.92 2.424 4.006 4.194 8.748 4.972 14.436.517 3.775.318 8.062-.431 11.854-1.387 7.023-4.523 12.74-8.556 17.352-3.53 4.035-7.864 7.228-13.145 9.56-.74.326-1.553.697-2.391.717.119-.48.626-.641.956-.861 2.45-1.633 4.383-4.08 6.022-6.644 1.875-2.932 3.357-6.555 3.347-11.137-.006-2.373-.809-4.334-1.577-6.119-1.515-3.514-4.341-6.023-8.078-7.266-1.933-.641-4.053-.914-6.501-1.146-4.688-.443-10.009.717-14.34-.43-1.994-.527-3.911-1.1-5.401-2.295-1.35-1.08-2.536-2.828-2.581-5.066-.034-1.682.609-3.08 1.386-4.207.477-.689 1.046-1.324 1.816-1.672.722.145.981.836 1.339 1.291.381.484.86.867 1.242 1.338 1.542 1.898 3.695 3.152 6.357 4.062.904.309 2.2.5 3.346.574.928.059 1.762-.027 2.82-.096 3.925-.256 6.952-1.904 9.273-3.969 1.342-1.191 2.482-2.646 3.346-4.301 1.247-2.391 2.022-5.58 1.483-9.082-.387-2.506-1.102-4.338-2.104-6.262-.214-.41-.468-.853-.479-1.195-.022-.773.663-1.738 1.147-2.103.618-.465 2.042-.625 2.342.287.259.783-.273 1.4-.286 2.15-.037 2.174 1.903 3.68 3.92 3.061 1.22-.376 1.459-1.32 1.58-3.013z"/><path d="m50.365 50.372c1.531 1.32 2.378 2.732 2.964 4.686.612 2.039.864 4.426.478 6.787-.711 4.357-2.886 7.211-6.022 9.227-2.928 1.879-8.236 3.232-12.38 2.246-2.143-.512-3.901-1.074-5.353-2.295-1.307-1.098-2.51-2.627-3.154-4.445-.276-.777-.469-1.789-.622-2.772-.15-.963-.341-1.998-.382-2.965-.091-2.123.143-4.434.525-6.453.205-1.078.291-2.062.669-2.867 1.075-2.285 3.006-4.197 6.214-4.445 1.65-.129 3.485-.088 5.115 0 4.791.255 9.34.843 11.948 3.296z"/></g></svg>