<svg enable-background="new 0 0 26.141 25.965" viewBox="0 0 26.141 25.965" xmlns="http://www.w3.org/2000/svg"><path d="m9.712.524c2.869-.853 6.043-.665 8.775.568 2.91 1.27 5.272 3.674 6.559 6.568-1.767.693-3.53 1.397-5.308 2.059-1.243-1.954-3.409-3.31-5.728-3.489-1.489-.153-2.979.222-4.313.87-.944.44-2.001.803-3.052.614-1.521-.535-3.022-1.13-4.542-1.672 1.761-2.672 4.521-4.674 7.609-5.518z"/><path d="m1.57 6.809c1.89.674 3.764 1.396 5.644 2.1-.121.177-.27.331-.381.515-1.86-.644-3.692-1.372-5.545-2.04.069-.203.192-.382.282-.575z"/><path d="m.967 8.074c1.823.68 3.661 1.315 5.474 2.022-.095.189-.189.379-.264.577-1.808-.678-3.621-1.345-5.437-2 .062-.204.142-.403.227-.599z"/><path d="m.337 9.997c.05-.209.1-.417.162-.623 1.811.666 3.623 1.328 5.426 2.019-.044.211-.097.419-.144.63-1.811-.687-3.632-1.345-5.444-2.026z"/><path d="m14.133 10.824c3.936-.041 7.874-.074 11.81-.093.481 2.684.076 5.519-1.131 7.965-1.052 2.104-2.669 3.927-4.65 5.2-3.062 1.989-7.002 2.631-10.506 1.541-3.29-.888-6.168-3.132-7.914-6.048-1.278-2.134-1.871-4.656-1.72-7.136 1.199.441 2.394.891 3.586 1.348 1.588.547 2.565 1.999 3.425 3.349 1.337 1.848 3.345 3.43 5.701 3.563 2.592.089 5.139-1.168 6.797-3.133.157-.143.179-.498-.093-.514-1.829-.019-3.659.037-5.489.027-.424-1.012-.896-2.004-1.317-3.018.473-1.027 1.011-2.03 1.501-3.051z"/><path d="m.18 10.764c1.844.65 3.672 1.346 5.503 2.032-.005.226-.013.452-.011.678-1.857-.698-3.72-1.377-5.578-2.074.022-.212.057-.424.086-.636z"/></svg>