<svg enable-background="new 0 0 171.642 134.14" viewBox="0 0 171.642 134.14" xmlns="http://www.w3.org/2000/svg"><g clip-rule="evenodd" fill-rule="evenodd"><path d="m78.744.012c11.401.077 23.009-.15 34.528.143-.172.735-.638 1.361-.998 1.995-3.927 6.912-7.938 13.871-11.968 20.754-1.1 1.878-2.164 3.754-3.277 5.652-.357.609-.589 1.322-1.14 1.805-.346-.159-.488-.554-.665-.855-2.73-4.648-5.459-9.472-8.169-14.153-2.555-4.414-4.979-8.894-7.599-13.298-.354-.595-.848-1.211-.902-1.947.07-.025.12-.071.19-.096z"/><path d="m115.552 1.627c.399.132.899 1.228 1.235 1.805 4.783 8.216 9.406 16.401 14.153 24.602.365.631.736 1.268 1.092 1.9.343.608.877 1.167.95 1.9-8.478.172-17.505.096-26.216.095-2.855 0-5.697.076-8.406-.142.084-.726.603-1.3.95-1.9 2.508-4.333 4.983-8.728 7.504-13.108 2.471-4.293 4.997-8.705 7.551-13.06.39-.665.644-1.396 1.045-1.947.025-.071.073-.118.142-.145z"/><path d="m76.084 1.722c.323.148.915 1.249 1.235 1.805 5.091 8.82 10.052 17.595 15.198 26.359.356.607.799 1.228.902 1.947-11.443.134-23.244.134-34.623-.047.134-.72.592-1.326.95-1.947 5.358-9.295 10.772-18.714 16.195-28.021.036-.045.087-.073.143-.096z"/><path d="m93.419 34.398c-.132.762-.625 1.357-.997 1.995-5.084 8.694-10.09 17.584-15.198 26.406-.223.386-.864 1.754-1.187 1.758-.411.004-.467-.777-.618-1.093-.29-.61-.746-1.201-1.092-1.805-3.776-6.589-7.628-13.337-11.493-19.947-1.057-1.808-2.052-3.641-3.135-5.462-.346-.582-.779-1.172-.902-1.852.358-.113.975-.142 1.33-.143 10.911-.009 22.264.017 33.292.143z"/><path d="m132.887 34.445c-.178.729-.622 1.355-.997 1.995-5.115 8.724-10.162 17.622-15.245 26.454-.338.586-.666 1.289-1.235 1.709-.869-1.178-1.401-2.545-2.137-3.799-2.177-3.707-4.358-7.512-6.507-11.303-2.494-4.402-5.015-8.797-7.599-13.203-.351-.599-.918-1.182-.902-1.947 11.501-.081 23.401-.084 34.622.094z"/><path d="m56.47 35.822h.095c5.284 8.614 10.051 17.578 15.246 26.312.363.609.746 1.234 1.092 1.852.359.639.782 1.271.95 1.995-1.37.212-2.787.065-4.227.095-8.661.183-17.336-.001-26.217 0-1.454 0-2.917.116-4.322-.143.159-.71.591-1.324.95-1.947 5.346-9.288 10.815-18.837 16.291-28.068.034-.045.086-.073.142-.096z"/><path d="m135.071 35.918c.398.069.957 1.207 1.282 1.757 4.812 8.146 9.364 16.399 14.153 24.554.366.624.733 1.269 1.092 1.9.35.614.816 1.226.903 1.947-9.826.142-19.975.049-30.444.048-1.444-.001-2.914.116-4.322-.143.525-1.354 1.374-2.536 2.09-3.8 4.226-7.458 8.498-14.954 12.918-22.417.352-.594.738-1.222 1.092-1.853.403-.713.746-1.466 1.236-1.993z"/><path d="m73.71 68.308c-.208.716-.629 1.349-.998 1.994-3.922 6.884-8.026 13.874-11.968 20.803-1.082 1.9-2.161 3.795-3.277 5.699-.356.607-.656 1.277-1.187 1.757-.542-.494-.805-1.195-1.188-1.805-1.135-1.805-2.21-3.753-3.277-5.651-3.559-6.337-7.238-12.605-10.829-18.998-.713-1.269-1.585-2.468-2.09-3.847 10.897-.209 22.127-.095 33.198-.095.537.001 1.118-.107 1.616.143z"/><path d="m78.649 68.166c10.812-.001 21.756 0 32.628 0 .659 0 1.37-.109 1.995.143-.224.716-.639 1.356-.998 1.994-1.052 1.874-2.16 3.775-3.277 5.652-2.131 3.815-4.332 7.608-6.507 11.398-2.172 3.785-4.302 7.582-6.601 11.256-.6-.437-.843-1.188-1.187-1.805-2.463-4.417-5.126-8.77-7.647-13.251-2.45-4.357-5.006-8.893-7.599-13.346-.347-.596-.978-1.459-.95-1.947.035-.043.087-.072.143-.094z"/><path d="m152.549 68.355c-.174.73-.69 1.311-1.045 1.947-3.871 6.953-7.879 13.967-11.921 20.85-.738 1.259-1.427 2.553-2.185 3.8-.747 1.23-1.358 2.546-2.28 3.657-.571-.466-.829-1.186-1.187-1.805-5.07-8.76-10.201-17.652-15.198-26.549-.356-.634-.86-1.208-.998-1.947 5.78-.186 12.479-.096 18.617-.096h12.254c1.332.001 2.659-.115 3.943.143z"/><path d="m36.95 70.018c.385.056.986 1.222 1.282 1.757 4.632 8.346 9.555 16.314 14.106 24.696.346.639.725 1.262 1.092 1.9.357.622.859 1.209.997 1.947-9.739.182-20.478.04-30.301 0-1.457-.007-2.908.118-4.322-.143 1.143-2.677 2.821-5.045 4.227-7.552 2.801-4.995 5.726-9.928 8.548-14.96 1.403-2.502 2.964-4.911 4.227-7.505.028-.066.075-.113.144-.14z"/><path d="m154.211 70.065c.386.12.913 1.231 1.235 1.805 2.486 4.434 5.17 8.898 7.646 13.251 2.559 4.497 5.054 8.866 7.599 13.346.342.601.85 1.184.95 1.899-10.645.173-21.801.097-32.676.095-.66 0-1.371.113-1.995-.142.462-1.282 1.27-2.392 1.947-3.562 3.988-6.887 8.035-13.914 12.016-20.85.332-.579.673-1.176.997-1.758s.718-1.131.997-1.709c.379-.783.575-1.592 1.14-2.232.029-.069.076-.116.144-.143z"/><path d="m115.456 70.16c.041-.009.045.019.047.048.479.529.843 1.191 1.188 1.805 3.882 6.912 7.933 13.912 11.921 20.803 1.093 1.889 2.109 3.804 3.23 5.698.357.604.815 1.197.95 1.9-.257.257-.699.143-.998.143-10.47.002-20.666-.002-31.536 0-.682 0-1.401.109-2.043-.143.31-1.305 1.336-2.306 1.853-3.562 4.735-8.071 9.348-16.267 14.058-24.364.265-.874.705-1.574 1.187-2.231.036-.046.087-.074.143-.097z"/><path d="m54.427 102.693c-.162.738-.634 1.364-.997 1.995-5.367 9.311-10.818 18.804-16.338 28.068-.581-.279-.79-1.116-1.092-1.757-.548-1.161-1.35-2.404-2.043-3.562-3.465-5.791-6.809-11.794-10.258-17.763-1.185-2.051-2.46-4.16-3.61-6.221-.173-.311-.537-.874.095-.95.94-.113 1.983.04 2.945.047 10.018.076 21.151-.16 31.298.143z"/><path d="m17.382 103.881h.095c5.535 9.329 10.801 18.823 16.338 28.211.362.615.849 1.218.997 1.947-11.977.156-23.172.126-34.812-.047.18-.723.621-1.357.997-1.995 5.071-8.597 9.994-17.423 15.103-26.122.413-.701.789-1.489 1.282-1.994z"/></g></svg>