<svg enable-background="new 0 0 47.981 82.357" viewBox="0 0 47.981 82.357" xmlns="http://www.w3.org/2000/svg"><g clip-rule="evenodd" fill-rule="evenodd"><path d="m47.956.134c.134 2.516-.299 4.891-.74 7.107-2.255 11.318-8.6 17.885-16.188 23.885-1.512 1.197-3.15 2.195-4.688 3.357-1.53 1.154-3.391 1.971-5.083 2.912-6.784 3.765-13.869 7.64-16.631 15.446-1.381 3.904-1.498 9.898-.148 13.918 1.344 4.002 3.519 7.139 6.416 9.574 3.516 2.908 7.66 5.463 13.72 5.527 6.232.064 10.78-2.023 14.361-4.887 3.436-2.746 6.377-6.764 7.551-11.695 1.145-4.812.61-11.56.642-17.373.002-.283-.138-.774.247-.938.567.229.346 1.217.346 1.926-.001 8.186 0 16.313 0 24.43 0 2.625-.01 5.174-.05 7.797-.004.264.124.711-.247.838-.569-.293-.346-1.145-.346-1.727 0-4.561.106-9.363-.099-13.918-.592.475-.614 1.367-.888 2.123-.76 2.096-2.116 3.924-3.356 5.576-3.827 4.25-8.737 7.762-16.286 8.291-5.198.365-9.774-1.223-13.029-3.256-5.199-3.247-8.278-7.743-10.364-14.163-1.341-4.127-2.41-8.635-2.912-13.473-.523-5.049.137-10.322 1.135-14.855 1.933-8.779 6.255-15.758 11.203-21.517 5.795-6.108 12.794-11.094 22.159-13.57 1.567-.416 3.223-.818 4.935-1.037 2.568-.331 5.578-.606 8.34-.298z"/><path d="m33.941 48.054c-.507.139-.499-.322-.938-.346-1.558-.082-.589 3.008.494 1.58.007-.32-.429-.195-.444-.494.03-.369.806-.277 1.036-.148.146.332.136 1 0 1.334-.461.088-.945.248-1.381.197-1.593-.189-1.526-3.289.542-2.961.313.168.869.34.691.838z"/><path d="m35.618 47.265c2.397-.592 2.133 3.561-.099 2.863-1.141-.357-1.284-2.585.099-2.863zm.395 2.418c1.033-.021 1.093-2.191-.247-1.924-.942.268-.669 1.944.247 1.924z"/><path d="m43.169 47.463c-.26.561-1.417-.07-1.382.592.029.551.956.107 1.234.494-.144.609-1.123.018-1.234.592-.151.789 1.069.248 1.48.691-.232.416-1.591.328-1.974.149-.054-.77-.139-1.977.049-2.666.53-.108 1.518-.243 1.827.148z"/><path d="m45.834 50.078c-.743.053-.483-.898-1.135-.938-.404.023-.091.766-.395.889-.726-.041-.308-1.887-.345-2.615.998-.436 2.161-.184 2.023.889-.03.234-.325.449-.346.74-.026.379.448.757.198 1.035zm-.395-1.975c-.046-.543-1.284-.504-.888.346.38.24.92.033.888-.346z"/><path d="m39.172 47.314c.456.152.261.957.592 1.234.542-.148.06-1.322.839-1.234.043.934-.238 1.965-.543 2.715-.118.029-.225.07-.395.049-.339-.221-.22-.898-.494-1.184-.534.174-.092 1.322-.938 1.184-.398-.688-.646-1.787-.592-2.764.728-.068.385.932.74 1.234.497-.146.212-1.335.791-1.234z"/></g></svg>