<svg enable-background="new 0 0 73.081 73.372" viewBox="0 0 73.081 73.372" xmlns="http://www.w3.org/2000/svg"><g clip-rule="evenodd" fill-rule="evenodd"><path d="m72.958.396c.163 2.499.148 5.62 0 8.121-21.098.224-42.701-.195-64.069-.094-.257 1.112-.143 2.285-.143 3.42 0 17.049-.039 35.299.048 52.622 1.09.302 2.237.19 3.372.19 14.911.001 30.356.188 45.547.19 2.302 0 4.583.098 6.743-.096.155-11.165.164-22.916 0-34.005-.042-.021-.085-.042-.095-.095-10.466-.15-21.138.019-31.536-.285-.191-2.698-.105-5.929 0-8.644.043-.021.086-.042.096-.096 11.535-.152 23.178.095 35.05.096 1.677 0 3.358-.115 4.987.142.08 16.792.078 34.362 0 51.341-.697.257-1.469.143-2.186.143-21.937.001-44.229-.243-66.348-.237-1.446 0-2.921.092-4.322-.143-.138-12.063-.06-24.115-.095-36-.034-11.88.045-24.699.143-36.855.888-.173 1.998-.092 2.944-.095 23.188-.061 46.557.185 69.864.38z"/><path d="m72.958 10.655c.134 2.628.208 5.996-.048 8.549-17.589.257-36.051-.237-53.81 0-.256 1.403-.143 2.877-.142 4.322 0 10.31-.118 20.655.095 30.49 11.393.267 23.424.155 34.86.191.021-.042.041-.085.095-.096.157-4.126.158-8.932 0-13.108-.792-.245-1.67-.19-2.518-.19-6.155.001-12.835.034-18.665-.19-.171-1.243-.095-2.688-.095-4.132 0-1.396-.113-2.865.142-4.036 9.544-.131 20.062-.067 29.731.143.155 10.001.156 20.256 0 30.253-.981.264-2.017.131-3.04.095-3.205-.111-6.519-.047-9.783-.047-8.675-.001-17.456-.049-26.217-.048-4.347 0-8.674.007-12.823-.189-.224-15.085-.048-31.122-.048-46.164 0-1.357-.047-3.477-.047-4.939 0-.673-.111-1.22.522-1.33.569-.099 1.274.048 1.947.048 9.506-.002 19.308.094 28.971.095 9.892.002 19.33.144 29.066.143.597-.002 1.247-.108 1.807.14z"/></g></svg>