<svg enable-background="new 0 0 28.169 44.648" viewBox="0 0 28.169 44.648" xmlns="http://www.w3.org/2000/svg"><path d="m1.053 5.619c2.407-4.168 7.635-6.239 12.296-5.456 2.248.303 4.128 1.722 5.882 3.056.941-1.293 2.125-2.563 3.735-2.961 1.377-.312 2.9-.295 4.171.383.943.61 1.152 1.917.974 2.948-.273 1.279-1.803 2.056-3.006 1.608-1.19-.646-1.151-2.335-2.276-3.028-1.208-.289-2.13.772-2.819 1.605.001.038.002.112.002.149 1.208 1.511 2.165 3.304 2.281 5.271.244 2.364-.846 4.629-2.494 6.27-4.622 4.469-12.693 4.441-17.384.097-2.574-2.538-3.191-6.809-1.362-9.942zm5.559-2.853c-1.499 1.724-1.69 4.14-1.775 6.323.002 2.351.103 4.927 1.591 6.874 1.362 1.663 3.679 1.998 5.698 1.87 1.448-.062 2.939-.609 3.788-1.843 1.438-2.243 1.544-5.026 1.471-7.613-.131-1.991-.333-4.181-1.709-5.747-1.027-1.331-2.836-1.704-4.432-1.657-1.696-.053-3.484.488-4.632 1.793z"/><path d="m6.942 22.773c3.231-1.564 7.237-1.548 10.409.158 1.925.966 3.378 3.211 2.728 5.388-.59 1.888-3.317 1.988-4.611.809-1.034-1.853 1.402-4.003-.174-5.706-1.814-1.435-4.484-1.21-6.502-.345-2.7 1.864-3.075 5.465-3.301 8.474-.03 3.464-.232 7.296 1.871 10.26 1.58 2.102 4.474 2.317 6.866 1.874 2.752-.487 4.765-2.82 5.516-5.422.263.033.523.082.784.138-.697 2.89-3.027 5.271-5.907 6.005-3.624.699-7.611-.106-10.505-2.453-2.294-1.858-3.657-4.756-3.709-7.699-.526-4.697 2.22-9.538 6.535-11.481z"/></svg>