<svg enable-background="new 0 0 59.894 77.491" viewBox="0 0 59.894 77.491" xmlns="http://www.w3.org/2000/svg"><path clip-rule="evenodd" d="m36.606.148c.347 1.135.267 2.246.479 3.298.199.991.503 1.96.86 2.868 2.117 5.387 5.567 9.437 8.843 13.671 1.075 1.39 2.268 2.723 3.394 4.111 1.123 1.384 2.198 2.801 3.298 4.206 1.071 1.368 2.188 2.828 3.012 4.493.814 1.646 1.792 3.454 1.673 5.592-.881.193-1.885.143-2.916.144-3.012 0-6.512.114-9.321-.144-.454-.475-.553-1.128-.812-1.673-.772-1.621-1.788-3.087-2.868-4.493-2.836-3.691-5.88-7.157-8.604-10.994-1.044-1.47-1.852-2.981-2.677-4.684-.244-.503-.411-1.164-.956-1.482-.427.264-.486.805-.669 1.195-.564 1.201-1.302 2.312-2.008 3.442-.927 1.485-1.888 2.937-2.916 4.35-3.058 4.203-6.74 7.738-9.56 12.237-1.765 2.814-3.304 6.893-2.868 11.472.201 2.116.643 4.109 1.386 5.879 2.186 5.212 5.738 8.668 11.138 10.66.935.344 1.802.645 2.82.812 1.045.171 2.104.18 3.394.239 4.531.205 8.367-1.356 11.137-3.298 1.398-.98 2.791-2.137 3.776-3.49.996-1.368 1.912-3.009 2.151-5.114-.469-.376-1.167-.239-1.769-.239-3.212 0-6.621 0-9.895 0-1.315 0-2.6.113-3.776-.144-.197-3.745-.149-7.915 0-11.806 4.43-.138 9.175-.096 13.719-.096 4.729 0 8.148 1.026 10.611 3.489 2.411 2.411 3.672 6.11 3.059 10.66-.541 4.013-2.324 7.15-4.254 9.799-4.67 5.935-10.405 10.581-19.694 11.998-3.072.469-6.436.556-9.703 0-2.85-.484-5.59-1.467-8.03-2.533-7.248-3.168-12.538-8.801-15.583-16.108-1.016-2.438-1.884-5.31-2.247-8.317-.396-3.278-.291-6.798.382-9.704 1.313-5.664 3.914-10.195 7.026-14.101 3.148-3.95 6.461-7.645 9.512-11.615 2.285-2.974 4.329-6.239 5.592-10.277.215-.688.381-1.401.479-2.151.092-.713.044-1.515.382-2.247 4.358-.083 8.75-.081 13.003.095z" fill-rule="evenodd"/></svg>