<svg enable-background="new 0 0 76.18 76.022" viewBox="0 0 76.18 76.022" xmlns="http://www.w3.org/2000/svg"><g clip-rule="evenodd" fill-rule="evenodd"><path d="m36.537 12.965c-1.262.375-2.514.448-3.693.708-3.475.767-6.596 2.201-9.16 3.998-4.271 2.995-7.512 7.108-9.361 12.55-.754 2.219-1.215 4.493-1.215 7.591 0 1.414-.07 2.897.102 4.251.639 5.054 2.922 8.925 5.363 12.145.795.875 1.598 1.742 2.43 2.58.93.674 1.752 1.721 2.885 2.024.394-.627.158-1.57.201-2.479.277-5.855-.223-12.575.203-18.319 3.695-.192 8.264-.154 12.094 0 .275 1.44.152 3.048.152 4.706 0 4.81.141 9.616-.051 14.169-.135 3.211.076 6.43 0 9.615-.059 2.417.055 4.854-.051 7.237-.031.73.145 1.521-.152 2.227-2.9.177-5.607-.38-8.045-1.012-4.881-1.266-9.049-3.334-12.602-5.921-5.247-3.822-9.459-8.998-12.347-15.434-.942-2.098-1.692-4.445-2.277-6.983-.595-2.585-1.013-5.405-1.013-8.249 0-5.879 1.362-10.914 3.239-15.283 1.844-4.293 4.334-8.079 7.388-11.133 1.578-1.578 3.208-2.978 4.909-4.352 3.332-2.692 7.585-4.805 12.349-6.174 2.438-.701 5.15-1.224 7.893-1.366.139-.007.305-.096.557 0 .467.177.369 2.245.355 3.036-.059 3.249.009 6.947-.153 9.868z"/><path d="m39.674 76.019c-.35-.924-.201-2.063-.201-3.137 0-1.093.002-2.166.051-3.239.094-2.133-.201-4.397.15-6.325 6.139-.525 10.559-2.769 14.322-5.668 4.988-4.792 9.557-10.967 9.109-20.748-.215-4.654-1.596-8.342-3.441-11.538-.875-1.511-1.99-3.055-3.188-4.301-1.223-1.271-2.488-2.651-4.049-3.391-.344.748-.203 1.64-.203 2.48 0 5.281-.051 10.326-.051 15.637 0 .821.113 1.696-.152 2.479-.92.265-1.984.152-3.035.152-2.057 0-4.227 0-6.326 0-1.021 0-2.043.022-2.936-.203-.236-11.967.002-23.931 0-36.182 0-.914-.225-1.939.658-2.024.56-.054 1.383.104 2.125.202 4.801.632 8.978 1.948 12.5 3.745 4.049 2.065 7.717 4.821 10.678 7.894 3.051 3.167 5.467 6.736 7.439 11.133 1.922 4.288 3.236 9.644 3.035 15.435-.203 5.884-1.441 10.86-3.391 15.181-1.869 4.146-4.5 7.992-7.539 11.032-2.34 2.339-4.857 4.377-7.844 6.123-2.932 1.714-5.996 3.105-9.768 4.149-2.414.67-5.09 1.156-7.943 1.114z"/></g></svg>