<svg enable-background="new 0 0 71.966 73.519" viewBox="0 0 71.966 73.519" xmlns="http://www.w3.org/2000/svg"><g clip-rule="evenodd" fill-rule="evenodd"><path d="m36.176.061c.09-.12.399-.02.576-.053 1.013.363.96 1.971-.053 2.147-1.286.223-1.792-1.738-.523-2.094z"/><path d="m22.826 2.626c1.588-.468 1.73 2.496-.105 2.042-.884-.269-.866-1.883.105-2.042z"/><path d="m49.84 3.044c1.427-.264 1.476 2.032.262 2.147-1.325.126-1.556-1.906-.262-2.147z"/><path d="m35.967 3.935c2.485-.488 2.647 3.086.681 3.403-2.067.332-2.674-2.943-.681-3.403z"/><path d="m25.025 6.029c1.595.25 1.639 3.162.053 3.456-1.458.061-2.084-.708-2.042-2.146.349-.752.806-1.393 1.989-1.31z"/><path d="m47.851 6.552c2.24-.446 2.563 3.033.681 3.403-.271-.025-.649.057-.838-.053-1.594-.341-1.5-3.152.157-3.35z"/><path d="m35.967 8.856c1.133-.149 2.036.538 2.408 1.414.714 1.681-.594 3.27-2.095 3.298-1.524.028-2.431-1.353-2.355-2.513.078-1.214.976-2.059 2.042-2.199z"/><path d="m11.152 10.217c.717-.19 1.24.32 1.309.838.224 1.707-2.291 1.474-2.094 0 .053-.408.317-.645.785-.838z"/><path d="m26.439 10.688c1.144-.1 2.314.757 2.46 1.938.172 1.377-.94 2.852-2.408 2.774-1.323-.069-2.223-1.414-2.147-2.564.077-1.152.973-2.05 2.095-2.148z"/><path d="m48.165 12.783c.635 3.614-4.477 3.826-4.555.576-.027-1.115.993-2.423 2.355-2.409 1.21.012 1.809.881 2.2 1.833z"/><path d="m60.783 11.055c1.645-.312 1.547 2.118.262 2.146-1.128.025-1.446-1.86-.262-2.146z"/><path d="m14.92 16.185c-2.566.312-2.571-3.282-.628-3.507.81-.094 1.748.612 1.885 1.466.181 1.122-.559 1.667-1.257 2.041z"/><path d="m57.536 13.516c2.38-.552 2.625 3.325.419 3.455-2.024.119-2.423-3.118-.419-3.455z"/><path d="m35.81 15.034c2.385-.283 4.277 2.532 3.036 4.765-.593 1.067-1.99 1.873-3.455 1.518-1.366-.331-2.342-1.776-2.356-3.089-.017-1.559 1.209-3.009 2.775-3.194z"/><path d="m18.062 16.29c3.075-.446 3.351 4.262.628 4.659-1.072.157-2.199-.603-2.513-1.57-.514-1.588.605-2.903 1.885-3.089z"/><path d="m29.109 16.448c1.929-.127 3.931 1.745 3.089 4.188-.396 1.149-1.695 2.124-3.194 2.042-3.623-.197-3.681-5.982.105-6.23z"/><path d="m40.207 19.222c.438-1.34 1.313-2.432 2.827-2.566 2.287-.201 3.888 2.237 3.089 4.346-.271.717-.982 1.474-1.728 1.779-2.129.878-4.448-.811-4.188-3.559z"/><path d="m51.673 19.85c-.228-1.896.543-2.996 1.936-3.141 2.696-.281 3.429 3.712 1.047 4.606-1.206.455-2.536-.225-2.983-1.465z"/><path d="m22.565 20.531c2.028-.279 3.454.917 3.664 2.618.182 1.47-.783 2.788-1.779 3.246-2.491 1.143-5.188-1.362-4.137-4.084.254-.655 1.126-1.625 2.252-1.78z"/><path d="m48.689 21.002c1.164-.164 2.383.374 2.775 1.047.591 1.015.628 2.856.053 3.874-.649 1.149-2.644 1.535-3.822.942-.972-.489-1.678-1.716-1.675-2.88.004-1.744 1.134-2.767 2.669-2.983z"/><path d="m3.926 21.473c1.364-.121 1.439 2.188 0 2.146-1.281-.037-1.281-2.032 0-2.146z"/><path d="m7.591 22.677c.195-.14.56-.003.785 0 .6.447 1.181.914 1.047 2.095-.451 1.899-3.215 1.366-3.193-.472.01-.827.595-1.406 1.361-1.623z"/><path d="m12.356 24.3c-.01-.045.02-.049.052-.052 1.812-.256 3.011 1.487 2.618 2.983-.565 2.155-4.015 2.167-4.45-.104-.133-1.668.549-2.521 1.78-2.827z"/><path d="m18.585 26.289c2.3-.348 4.086 1.529 3.508 3.874-.328 1.33-2.019 2.653-3.769 2.199-1.214-.316-2.219-1.623-2.251-2.932-.015-.604.368-1.667.472-1.832.306-.493.907-1.137 2.04-1.309z"/><path d="m17.329 33.41c2.005-.199 3.457 1.546 3.245 3.508-.118 1.1-.894 2.148-1.779 2.565-2.129 1.002-5.022-1.174-4.084-3.979.328-.981 1.125-1.946 2.618-2.094z"/><path d="m38.689 33.777c2.076-.239 4.147 1.775 3.194 4.292-.372.981-1.329 1.729-2.199 1.937-2.154.516-4.753-2.019-3.403-4.607.332-.636 1.212-1.485 2.408-1.622z"/><path d="m46.385 33.881c2.16-.154 4.044 1.821 3.193 4.24-.894 2.546-4.503 2.602-5.654.366-1.134-2.201.601-4.394 2.461-4.606z"/><path d="m51.673 38.959c-1.013-2.309.031-4.909 2.46-4.974 3.276-.087 4.113 4.287 1.676 5.863-1.315.852-3.332.409-4.136-.889z"/><path d="m10.367 34.143c1.244-.198 2.514.727 2.669 1.937.411 3.189-4.451 3.707-4.554.472-.042-1.292.782-2.234 1.885-2.409z"/><path d="m3.717 35.923c.291-.769 1.172-1.661 2.251-1.205.482.204.797.623.942.995 1.012 2.582-3.595 3.404-3.193.21z"/><path d="m60.521 34.981c.242-.103.798-.066 1.047 0 2.573.524 2.345 5.089-1.047 4.606-2.16-.362-2.249-4.274 0-4.606z"/><path d="m.785 35.294c.738-.142 1.234.304 1.309.785.217 1.414-2.059 1.756-2.094.262-.012-.542.357-.833.785-1.047z"/><path d="m66.331 35.713c2.511-.411 2.458 3.377.262 3.403-1.901.022-2.35-3.061-.262-3.403z"/><path d="m70.677 36.498c1.68-.312 1.646 2.056.314 2.095-1.133.032-1.502-1.778-.314-2.095z"/><path d="m18.272 40.687c-.01-.044.021-.05.052-.053 1.886-.078 2.81.634 3.299 1.623 1.153 2.337-.721 4.832-3.09 4.607-1.524-.144-2.681-1.617-2.722-3.036-.044-1.508 1.032-2.769 2.461-3.141z"/><path d="m52.039 41.315c1.484-.3 2.645.547 3.141 1.309 1.45 2.227-.406 5.601-3.298 4.817-.906-.246-1.801-1.18-2.042-2.146-.482-1.939.664-3.585 2.199-3.98z"/><path d="m12.199 44.037c3.185-.572 3.486 5.026-.104 4.607-2.32-.301-2.392-4.44.104-4.607z"/><path d="m58.479 44.927c.228-.121.68-.017.994-.052.978.418 1.752 1.132 1.78 2.251.027 1.091-.859 2.242-2.041 2.355-1.322.128-2.155-.797-2.514-1.884-.077-1.56.657-2.31 1.781-2.67z"/><path d="m7.068 49.901c-.596-.188-.89-.68-1.151-1.204-.174-1.43 1.015-2.406 2.147-2.041 1.583.511 1.132 3.889-.996 3.245z"/><path d="m22.459 46.707c1.844-.163 3.496 1.244 3.403 3.246-.054 1.151-.822 2.138-1.676 2.565-1.881.942-4.239-.289-4.449-2.356-.175-1.728.982-3.3 2.722-3.455z"/><path d="m48.532 47.284c1.37-.115 2.673.764 2.984 1.728.24.745.245 1.858 0 2.617-.353 1.087-1.731 1.801-2.827 1.78-1.574-.029-3.08-1.329-3.089-3.089-.009-1.633 1.204-2.891 2.932-3.036z"/><path d="m63.714 47.807c1.037-.199 1.635.494 1.937 1.204.407 2.337-2.526 2.778-3.193 1.1-.398-1.003.214-2.145 1.256-2.304z"/><path d="m3.403 48.907c1.485-.114 1.236 2.261-.157 2.093-1.096-.132-1.135-1.995.157-2.093z"/><path d="m67.954 50.215c.603-.09 1.126.304 1.152.942.06 1.474-2.104 1.398-2.095.052.005-.447.304-.898.943-.994z"/><path d="m28.375 50.739c2.005-.254 3.448 1.392 3.403 3.246-.05 2.04-2.049 3.566-4.084 2.88-1.275-.431-2.691-2.375-1.832-4.398.335-.787 1.246-1.567 2.513-1.728z"/><path d="m42.197 51.158c2.09-.288 3.616 1.052 3.665 2.88.078 2.899-3.384 4.154-5.235 2.303-1.775-1.774-.793-4.857 1.57-5.183z"/><path d="m37.014 58.225c-4.162 1.709-6.185-4.995-1.938-5.916 2.474-.535 4.507 2.206 3.351 4.503-.298.593-.835.937-1.413 1.413z"/><path d="m17.329 52.362c.275-.1.871-.069 1.151 0 .96.374 1.593 1.08 1.676 1.989.151 1.686-1.527 3.131-3.142 2.408-1.813-.811-1.865-3.923.315-4.397z"/><path d="m53.295 52.781c1.419-.111 3.033 1.542 2.199 3.351-.977 2.121-4.172 1.549-4.188-.994-.004-.648.289-1.379.419-1.571.291-.431.768-.724 1.57-.786z"/><path d="m13.56 56.865c.141-.121.505-.019.733-.053.773.4 1.334.924 1.257 1.885-.166 2.061-3.529 2.07-3.298-.366.07-.754.598-1.236 1.308-1.466z"/><path d="m56.909 60.843c-1.769-.421-1.673-3.331.209-3.456.831-.055 1.763.586 1.832 1.571.084 1.174-.737 1.953-2.041 1.885z"/><path d="m25.654 57.963c3.427-.596 3.496 5.349-.315 4.555-2.041-.533-2.023-4.361.315-4.555z"/><path d="m44.815 58.33c1.608-.306 2.946.917 2.774 2.513-.128 1.192-1.241 2.228-2.513 2.094-1.425-.15-2.511-1.846-1.833-3.351.153-.337.771-1.104 1.572-1.256z"/><path d="m36.648 60.214c.743.573 1.242 1.111 1.309 1.938.146 1.824-1.421 2.881-2.932 2.461-2.767-.769-1.661-5.631 1.623-4.399z"/><path d="m10.837 60.529c1.308-.093 1.319 2.117.053 2.146-1.211.028-1.451-2.047-.053-2.146z"/><path d="m60.364 61.419c.52-.03 1.076.362 1.1.994.053 1.462-2.053 1.37-2.095.053-.016-.505.269-1.007.995-1.047z"/><path d="m24.187 66.968c-1.477.108-2.217-.772-1.989-2.198.363-.558.716-1.146 1.466-1.205 1.965-.152 2.315 2.934.523 3.403z"/><path d="m47.013 64.089c2.349-.427 2.499 3.226.523 3.402-2.057.185-2.526-3.123-.523-3.402z"/><path d="m35.234 66.287c2.211-.503 2.522 3.017.681 3.351-.244 0-.488 0-.733 0-1.633-.279-1.681-3.139.052-3.351z"/><path d="m21.831 68.487c1.464-.323 1.525 1.863.419 2.042-1.238.199-1.724-1.754-.419-2.042z"/><path d="m48.689 68.906c1.673-.349 1.592 2.051.314 2.094-1.091.035-1.49-1.785-.314-2.094z"/><path d="m35.286 71.314c1.505-.343 1.563 2.07.366 2.198-1.309.141-1.582-1.921-.366-2.198z"/></g></svg>