<svg enable-background="new 0 0 82.218 78.875" viewBox="0 0 82.218 78.875" xmlns="http://www.w3.org/2000/svg"><path clip-rule="evenodd" d="m82.218 78.705c-4.2.261-8.951.017-13.409.104-.678.013-1.386.088-1.819-.053-1.287-2.501-2.152-5.189-3.222-7.796-2.125-5.175-4.302-10.35-6.341-15.643-1.002-2.6-2.072-5.212-3.17-7.796-2.156-5.076-4.134-10.354-6.289-15.695-.973-2.411-2.16-5.108-3.066-7.9-.416-1.28-1.054-2.585-1.611-3.898-.903-2.126-1.527-4.751-3.69-5.509-.78-.274-1.736-.094-2.338.312-1.523 1.025-2.348 3.593-3.17 5.665-2.498 6.295-5.251 12.55-7.692 18.762-2.546 6.479-5.143 12.449-7.64 18.814-.825 2.104-1.84 4.114-2.495 6.288.413.354 1.014.208 1.507.208 5.8 0 12.14-.052 18.346-.052 2.225 0 4.415.119 6.444-.104-.113-1.182-.727-2.244-1.143-3.326-1.236-3.209-2.547-6.522-3.95-9.667-1.028-.289-2.164-.064-3.274-.104-2.155-.074-4.328 0-6.652 0-1.113 0-2.259.127-3.274-.156.303-1.209.85-2.323 1.299-3.481.433-1.116.953-2.221 1.403-3.326.696-1.708 1.428-3.383 2.079-5.094.204-.535.33-1.16.78-1.559 5.706-.09 11.208-.033 16.943.052.59.536.812 1.371 1.091 2.079 2.04 5.175 4.257 10.478 6.341 15.695 1.196 2.993 2.389 6.013 3.638 8.991 1.252 2.985 2.5 5.973 3.534 9.043.409.794.774 1.635 1.143 2.495.363.844.758 1.734.884 2.65-3.662.24-7.351.155-11.07.155-12.99.003-26.103-.001-39.187 0-2.017.001-3.743.054-5.249-.415-1.395-.434-2.63-1.211-3.638-2.027-2.838-2.299-5.253-7.413-3.846-12.317.391-1.363 1.036-2.706 1.611-4.054.29-.679.444-1.396.728-2.079 3.551-8.551 7.259-17.329 10.862-25.934 2.764-6.602 5.594-13.27 8.367-19.906.561-1.342 1.074-2.669 1.767-3.846 2.06-3.496 5.371-6.121 9.563-7.432 1.518-.475 3.122-.744 4.99-.832 4.998-.235 8.671 1.771 11.382 4.002 1.378 1.135 2.764 2.517 3.638 4.054.896 1.577 1.528 3.502 2.339 5.302.806 1.79 1.403 3.699 2.183 5.509.774 1.796 1.56 3.57 2.287 5.354 4.432 10.861 8.886 21.801 13.357 32.639 2.248 5.447 4.549 10.847 6.652 16.371.342.897.731 1.827 1.144 2.703.408.872.757 1.807.933 2.754z" fill-rule="evenodd"/></svg>