<svg enable-background="new 0 0 76.173 77.032" viewBox="0 0 76.173 77.032" xmlns="http://www.w3.org/2000/svg"><path clip-rule="evenodd" d="m36.325.081c6.259-.463 11.914 1.134 16.252 2.916 4.6 1.889 8.414 4.405 11.615 7.505.406.394.741.858 1.147 1.291 4.229 4.509 7.636 9.788 9.512 16.778.687 2.557 1.181 5.308 1.29 8.269.413 11.126-3.298 19.085-8.078 25.334-.696.911-1.375 1.853-2.15 2.629-.415.415-.728.913-1.147 1.291-1.241 1.12-2.462 2.26-3.872 3.298-5.295 3.9-12.441 7.192-21.079 7.6-3.215.152-6.121-.121-8.843-.669-2.629-.53-4.976-1.402-7.218-2.342-2.356-.988-4.261-1.985-6.262-3.298-5.709-3.744-10.341-8.862-13.527-15.2-2.152-4.28-3.625-9.156-3.92-15.2-.442-9.059 2.434-16.87 6.022-22.514 2.385-3.75 5.668-7.264 9.226-9.942 4.416-3.325 9.855-6.119 16.635-7.266 1.425-.243 2.924-.371 4.397-.48zm36.997 31.93c-.557-.472-1.131-.923-1.721-1.338-5.979-4.208-13.447-6.738-22.515-7.839-4.791-.582-10.287-.683-15.152-.239-1.166.106-2.325.193-3.441.287-2.194.184-4.27.681-6.31 1.148-3.979.91-7.906 2.158-11.28 3.633-3.359 1.468-6.584 3.333-9.082 5.831-2.319 2.32-4.728 6.307-2.295 10.612 2.953 5.132 9.039 7.524 15.583 9.273 9.759 2.608 22.845 3.225 33.556 1.339 5.32-.938 9.973-2.476 14.005-4.637 1.342-.719 2.717-1.488 3.92-2.294 1.871-1.253 3.543-2.714 5.162-4.159.505-.45 1.314-.881 1.339-1.673-1.428-.521-2.972-.708-4.493-.956-1.537-.251-3.075-.581-4.637-.86-8.399-1.503-17.046-2.974-25.478-4.589-.798-.153-1.735-.377-2.438-.334-.865.053-1.789.547-2.629.86-2.179.812-4.339 1.562-6.405 2.294-.392.139-.944.185-1.147.621.314.473.967.429 1.434.526 3.91.813 7.823 1.555 11.759 2.294 3.875.728 7.904 1.565 11.759 2.294.475.09 1.173.057 1.435.574-.581.568-1.485.65-2.294.86-5.86 1.522-12.803 2.143-19.981 1.721-1.9-.111-3.85-.336-5.736-.574-1.834-.231-3.69-.512-5.401-.955-3.226-.837-6.941-1.669-8.556-4.111-.693-1.048-.774-2.843-.096-4.063.941-1.694 2.872-2.774 4.732-3.633 5.843-2.698 12.739-4.068 20.696-4.541 5.553-.331 11 .2 15.535 1.099 4.164.826 7.65 2.146 10.946 3.776.52.257 1.007.608 1.434.669.65.092 1.52-.111 2.295-.239 1.639-.272 3.223-.372 4.731-.622.768-.127 1.553-.167 2.199-.478-.202-.711-.903-1.129-1.433-1.577z" fill-rule="evenodd"/></svg>