<svg enable-background="new 0 0 80.08 80.749" viewBox="0 0 80.08 80.749" xmlns="http://www.w3.org/2000/svg"><g clip-rule="evenodd" fill-rule="evenodd"><path d="m41.449 80.611c-.268-.696-.149-1.546-.149-2.348 0-.807.031-1.657 0-2.448-.064-1.607-.105-3.228.1-4.596 1.721-.364 3.385-.415 4.946-.749 1.569-.336 3.036-.736 4.445-1.249 2.625-.955 5.211-2.445 7.344-3.997 4.349-3.163 7.688-7.498 9.941-12.739 1.764-4.022 2.933-8.855 2.448-14.387-.443-5.062-1.814-9.754-3.797-13.239-.51-.896-1.119-1.732-1.698-2.598-1.606-2.399-3.885-4.819-6.245-6.494-.428-.304-.849-.553-1.248-.899-1.129-.979-2.543-1.614-4.047-2.298-1.957-.89-3.933-1.697-6.245-2.248-2.462-.587-5.026-.89-7.693-.849-2.509.038-5.108.54-7.343 1.148-4.418 1.205-8.249 3.318-11.291 5.746-3.179 2.537-5.726 5.676-7.593 9.442-.48.966-1.019 1.831-1.399 2.848-.73 1.949-1.635 4.185-1.948 6.544-.161 1.211-.116 2.487-.449 3.796-1.382.27-3.097.15-4.746.15-1.65 0-3.363.119-4.746-.15-.213-3 .591-5.742 1.1-8.342 1.014-5.191 3.542-9.441 6.095-13.189.665-.978 1.317-1.925 2.048-2.797.726-.867 1.576-1.59 2.397-2.398.842-.828 1.586-1.693 2.398-2.448 2.435-2.262 5.439-4.185 8.643-5.795 2.167-1.089 4.484-1.888 6.994-2.648 6.34-1.918 15.745-1.821 22.03.2 1.946.626 3.834 1.201 5.496 2.098 1.64.886 3.208 1.745 4.795 2.748 3.013 1.902 5.689 4.334 8.143 6.994 2.438 2.641 4.59 5.758 6.045 9.092.775 1.777 1.558 3.511 2.147 5.445 1.711 5.602 2.315 13.427.999 20.232-1.606 8.309-5.481 14.785-10.291 19.982-3.121 3.534-7.083 6.306-11.539 8.643-2.171 1.138-4.823 1.966-7.394 2.698-1.973.562-4.084.922-6.444 1.149-.732.07-1.522.178-2.249-.05z"/><path d="m39.002 11.82c.268 2.128.149 4.533.149 6.994 0 .729.112 1.821-.149 2.198-.192.277-1.116.395-1.799.5-4.613.709-7.797 2.801-10.441 5.445-2.393 2.394-4.02 5.038-4.896 8.743-.273 1.157-.636 2.452-.449 3.847.879.349 1.857.2 2.797.2 14.189.001 29.908-.084 44.162.1.309 3.718-.468 7.063-1.549 9.892-1.098 2.875-2.341 5.508-4.046 7.693-3.89 5.02-8.674 8.749-15.736 10.641-2.354.631-5.111.899-7.993.8-2.84-.098-5.215-.563-7.594-1.199-2.192-.586-4.311-1.587-6.045-2.747-3.345-2.24-6.91-5.023-8.992-8.543-.304-.514-.56-1.045-.849-1.549-.849-1.477-1.567-3.042-2.248-4.796-.896-2.304-1.282-4.772-1.549-7.893-.494-5.769 1.204-11.206 3.347-15.336 2.135-4.115 5.176-7.216 8.893-9.992 3.657-2.731 8.267-4.506 13.838-5.045.307-.032.837-.152 1.149.047z"/></g></svg>