<svg enable-background="new 0 0 80.719 78.417" viewBox="0 0 80.719 78.417" xmlns="http://www.w3.org/2000/svg"><path clip-rule="evenodd" d="m74.649 25.028c-1.103.218-2.292.2-3.514.146-2.354-.103-4.661-.049-7.269-.048-1.1 0-2.745.232-3.61-.049-.46-.15-1.102-1.249-1.464-1.708-3.241-4.105-7.538-7.198-13.319-8.879-3.307-.962-7.734-1.206-11.318-.488-1.79.358-3.399.836-4.928 1.414-1.526.579-2.811 1.426-4.098 2.244-5.055 3.214-8.893 7.963-10.782 14.587-.969 3.399-1.213 7.538-.585 11.319.438 2.637 1.273 5.092 2.342 7.172.342.664.711 1.41 1.317 1.853.824-.225 1.403-.962 2.049-1.512.668-.568 1.342-1.124 2-1.659 6.457-5.659 12.924-11.307 19.418-16.929 1.325-1.098 2.547-2.299 3.902-3.366.605-.615 1.297-1.143 1.951-1.708.679-.525 1.133-1.274 2.05-1.561.858.282 1.477 1.014 2.147 1.561 1.998 1.632 3.976 3.361 6.001 5.025 5.388 4.43 10.642 8.964 16.051 13.417 2.336 1.923 4.704 3.865 7.025 5.854.256.22.818.462.683.927-1.615.141-3.557-.044-5.171.098-.637.611-.82 1.488-1.171 2.244-1.079 2.332-2.173 4.547-3.61 6.587-1.888 2.677-3.952 5.117-6.343 7.269-3.277 2.856-6.839 5.013-11.123 6.782-3.985 1.645-9.504 2.956-15.075 2.781-7.623-.24-13.509-2.276-18.539-5.269-2.502-1.488-4.796-3.082-6.879-5.025-4.231-3.945-7.582-8.523-9.807-14.002-1.158-2.854-2.064-5.882-2.586-9.367-.524-3.501-.526-7.6 0-11.124 1.045-6.991 3.462-12.305 6.733-17.076 3.265-4.761 7.427-8.436 12.441-11.367 4.35-2.543 9.554-4.547 15.855-4.977.918-.063 2.024-.19 2.977-.195 6.48-.033 11.718 1.55 16.246 3.561 4.589 2.038 8.312 4.923 11.709 8.099 1.176 1.534 2.465 2.964 3.609 4.537 1.141 1.566 2.151 3.228 3.074 5.025.566 1.241 1.358 2.254 1.611 3.807zm-25.955 18.246c-1.988 1.623-3.908 3.312-5.854 4.977-1.547 1.254-2.805 2.498-4.342 3.805-.488.415-1.047 1.071-1.562 1.171-.644.125-1.577.05-2.342.049-4.026-.004-8.193-.097-12.002-.098-1.61 0-3.197-.117-4.732.146.343.971 1.046 1.721 1.659 2.439.638.747 1.313 1.449 2 2.146 2.452 2.301 5.286 4.198 8.977 5.513 3.586 1.277 8.002 1.93 12.686 1.123 7.028-1.212 12.218-4.879 15.855-9.514.423-.539 1.448-1.687 1.415-2.244-.027-.451-.941-1.009-1.317-1.317-1.536-1.26-2.922-2.419-4.342-3.61-1.454-1.182-2.836-2.434-4.343-3.562-.52-.349-.978-1.253-1.756-1.024z" fill-rule="evenodd"/></svg>