<svg enable-background="new 0 0 72.961 67.68" viewBox="0 0 72.961 67.68" xmlns="http://www.w3.org/2000/svg"><g clip-rule="evenodd" fill-rule="evenodd"><path d="m39.372.031c2.587-.358 4.579 2.434 3.664 4.765-.589 1.503-2.441 2.701-4.711 1.885-1.222-.695-2.241-1.82-2.042-3.665.177-1.643 1.48-2.759 3.089-2.985z"/><path d="m28.796.607c1.391-.192 2.493.478 3.09 1.204.102.124.681 1.148.733 1.361.426 1.757-.553 3.345-1.78 3.927-2.223 1.053-5.112-.281-5.078-3.193.019-1.704 1.434-3.077 3.035-3.299z"/><path d="m49.267 2.597c2.366-.287 4.609 1.768 3.769 4.503-.451 1.468-2.058 2.816-4.136 2.304-1.432-.354-2.802-1.929-2.618-3.822.158-1.628 1.376-2.665 2.985-2.985z"/><path d="m18.431 4.167c2.63-.333 4.831 2.283 3.664 4.869-.883 1.959-4.148 2.77-5.81.785-.676-.806-1.061-2.177-.628-3.507.316-.976 1.292-1.959 2.774-2.147z"/><path d="m62.407 11.183c.28 2.991-2.438 4.938-5.025 3.612-2.034-1.041-2.247-3.891-.995-5.34.461-.533 1.315-1.015 2.094-1.099 2.364-.256 3.347 1.171 3.926 2.827z"/><path d="m11.101 11.025c2.12-.169 3.785 1.297 3.769 3.508-.027 3.84-5.67 4.249-6.701 1.204-.284-.839-.26-2.064.053-2.827.358-.875 1.452-1.77 2.879-1.885z"/><path d="m65.077 16.732c2.224-.313 3.813 1.074 4.031 3.036.22 1.979-1.313 3.658-3.089 3.822-2.148.197-3.909-1.514-3.874-3.559.031-1.803 1.346-3.076 2.932-3.299z"/><path d="m5.604 20.345c1.478-.103 2.78.955 3.246 2.146.887 2.263-.817 4.711-3.036 4.712-2.496 0-4.588-2.749-3.193-5.131.444-.759 1.604-1.632 2.983-1.727z"/><path d="m72.825 30.396c.149 11.851.21 24.776 0 36.543-2.422.188-5.063.202-7.486.052-.316-2.334-.104-4.767-.104-7.225 0-5.899-.052-12.295-.052-18.167-.001-1.156.029-2.306-.157-3.402-14.024-.313-28.799.104-42.878-.209-.311-1.15-.13-2.53-.105-3.822.025-1.291-.154-2.601.105-3.717 17.087-.15 33.456-.222 50.677-.053z"/><path d="m1.049 36.783c-2.138-2.176-.783-5.639 2.042-5.916 2.109-.206 3.6 1.38 3.77 3.037.301 2.946-3.416 5.011-5.812 2.879z"/><path d="m5.133 41.077c2.46-.372 4.581 2.106 3.612 4.606-.178.458-.651 1.182-1.1 1.519-2.128 1.6-5.298.019-5.393-2.565-.067-1.896 1.217-3.309 2.881-3.56z"/><path d="m10.734 49.872c2.475-.315 4.794 2.178 3.612 4.764-.675 1.479-2.59 2.402-4.24 1.938-1.252-.353-2.219-1.544-2.251-3.193-.039-1.955.781-3.242 2.879-3.509z"/><path d="m59.005 52.071c1.794-.149 3.329 1.063 3.664 2.408.592 2.371-1.165 4.356-3.35 4.345-2.052-.011-4.438-2.052-3.351-4.659.415-.995 1.481-1.965 3.037-2.094z"/><path d="m15.813 59.296c.386-1.771 2.52-3.472 4.817-2.514 1.028.43 1.893 1.505 2.041 2.67.229 1.805-1.027 3.746-3.089 3.927-2.306.202-3.964-1.59-3.769-4.083z"/><path d="m53.717 60.762c.215 2.228-1.31 3.878-2.932 4.083-1.645.208-3.388-.939-3.77-2.513-.513-2.113.989-4.144 3.036-4.346 2.09-.204 3.099 1.3 3.666 2.776z"/><path d="m28.953 60.291c2.24-.199 4.26 2.287 3.246 4.764-.634 1.549-2.446 2.275-4.031 1.885-1.572-.388-2.924-2.284-2.251-4.346.378-1.158 1.393-2.158 3.036-2.303z"/><path d="m39.372 60.762c1.151-.175 2.263.311 2.879.89 1.872 1.761 1.073 6.242-2.566 6.021-2.028-.123-4.245-2.27-3.036-4.921.339-.744 1.416-1.793 2.723-1.99z"/></g></svg>