<svg enable-background="new 0 0 75.556 28.417" viewBox="0 0 75.556 28.417" xmlns="http://www.w3.org/2000/svg"><g clip-rule="evenodd" fill-rule="evenodd"><path d="m52.576 6.045c4.106-.039 8.729-.273 13.109-.151 1.61.045 3.063.239 3.29 1.67.185 1.168-.442 1.772-.961 2.075-.727.426-1.836.361-2.936.405-2.242.09-4.348 0-6.681 0-1.004 0-2.43-.206-3.239.051-.593.188-1.129 1.472-1.468 2.126-2.474 4.768-5.022 9.315-7.491 13.97-.402.759-.681 1.609-1.316 2.227-.517-.28-.742-.886-1.012-1.366-.841-1.497-1.691-3.069-2.379-4.707-.442-1.052-1.127-2-1.67-3.037-2.113-4.037-4.392-8.214-6.631-12.198-.556-.99-.979-2.101-1.822-2.886-4.983-.075-10.523-.004-15.742.051-1.077.012-2.162-.05-3.087.051-1.852.202-3.337.953-4.606 1.873-2.472 1.791-4.311 4.855-3.897 8.959.381 3.787 2.533 6.042 5.263 7.692 1.355.703 2.944.915 5.011.961.638.015 1.365.111 1.822-.05.415-.146.686-.866.962-1.367 1.688-3.063 3.165-5.878 4.808-8.958.273-.513.557-1.261.861-1.418.481-.248 1.476-.101 2.176-.101.809-.001 1.559-.07 2.177.101-.108.762-.563 1.411-.912 2.075-1.713 3.269-3.613 6.664-5.365 10.022-.695 1.333-1.369 2.686-2.278 3.848-6.453.727-11.128-.616-14.272-3.493-1.586-1.452-2.903-3.452-3.645-5.67-.562-1.679-.729-3.77-.607-5.922.329-5.774 3.899-9.879 8.2-11.692 1.327-.559 3.052-.998 4.758-1.113 2.442-.164 5.042.001 7.592 0 4.556 0 8.858-.048 13.363.051.736.589 1.005 1.551 1.468 2.328.472.795.926 1.611 1.366 2.43.863 1.606 1.789 3.225 2.683 4.859 1.55 2.833 2.874 5.829 4.556 8.706.22.376.562 1.048.81 1.062.431.025.866-1.105 1.114-1.569 1.892-3.544 3.706-6.827 5.568-10.325.288-.546.506-1.217 1.06-1.57z"/><path d="m69.279 15.308c.304 1.174.998 2.154 1.519 3.189 1.028 2.045 2.183 3.996 3.29 6.023.549 1.005 1.155 2.033 1.468 3.188-1.152.342-2.573.194-3.897.203-1.072.007-2.379-.051-3.594-.051-1.051 0-2.627.221-3.442-.051-.473-.157-.957-1.265-1.265-1.822-1.857-3.355-3.541-6.685-5.365-9.971-.753-1.356-1.523-2.674-2.075-4.049.562-.266 1.391-.152 2.176-.152.795 0 1.61-.041 2.278.051.844.707 1.191 1.913 1.771 2.885 1.223 2.227 2.46 4.478 3.644 6.833.369.733.789 1.541 1.417 2.075.377.068 1.13.135 1.367-.102.079-.58-.321-1.101-.557-1.568-.711-1.415-1.533-2.857-2.329-4.252-.531-.968-1.007-1.927-1.518-2.885-.5-.938-1.186-1.822-1.468-2.936 1.825-.422 4.126.158 5.669-.456 1.48-.59 2.487-2.069 2.379-3.796-.084-1.345-.873-2.125-1.771-2.886-.433-.19-.85-.398-1.367-.506-5.337.069-10.795-.209-15.994.051-.82.797-1.23 1.897-1.822 2.885-1.161 1.941-2.114 4.106-3.239 6.125-.554.992-1 2.064-1.771 2.885-.615-.418-.809-1.188-1.215-1.923-.334-.606-.99-1.372-1.013-2.075-.014-.463.417-1.077.709-1.62 1.827-3.404 3.894-7.263 5.77-10.376 4.665-.093 10.166-.05 15.033-.051 1.657 0 3.429-.173 4.809.102 2.02.4 3.773 1.792 4.707 3.188 1.008 1.507 1.797 4.127 1.063 6.631-.352 1.199-1.043 2.07-1.721 3.138-.534.402-1.014.893-1.67 1.215-.649.319-1.434.375-1.976.861z"/><path d="m38.404 28.417c-.708-.558-1.026-1.429-1.417-2.177-1.216-2.319-2.512-4.543-3.746-6.984-.387-.766-.817-1.542-1.265-2.328-.883-1.553-1.661-2.926-2.531-4.657-.312-.619-.929-1.94-1.418-2.126-.573-.217-2.251-.051-3.289-.05-3.099 0-6.678-.001-9.668 0-2.354 0-3.966.427-4.758 1.974-.585 1.144-.566 2.775 0 3.897.325.644 1.482 1.759 2.329 1.67.371-.038.97-.614.911-1.113-.041-.344-.502-.459-.759-.608-.291-.167-.609-.399-.759-.607-.898-1.236-.131-2.855.911-3.239.812-.299 2.409-.101 3.796-.101 1.39 0 2.749-.079 3.746.101-.122 1.001-.728 1.775-1.164 2.581-1.095 2.019-2.198 4.085-3.391 6.227-.266.476-.433 1.015-.709 1.164-.576.312-2.015.161-2.733.05-3.203-.497-5.459-2.727-6.378-5.364-.576-1.654-.472-4.247.152-5.771.882-2.151 2.685-3.915 4.91-4.606 1.96-.608 4.521-.354 6.985-.354 2.452.001 4.896-.059 7.238-.05.806.003 1.847-.008 2.632-.102.527-.063 1.852-.102 2.43.102.547.191 1.104 1.472 1.468 2.126 2.156 3.878 4.08 7.701 6.276 11.591.388.686.83 1.481 1.265 2.328.357.694 1.12 1.8 1.114 2.43-.007.734-.683 1.437-1.012 2.075-.388.747-.724 1.471-1.166 1.921z"/></g></svg>