<svg enable-background="new 0 0 83.952 39.361" viewBox="0 0 83.952 39.361" xmlns="http://www.w3.org/2000/svg"><g clip-rule="evenodd" fill-rule="evenodd"><path d="m30.17 5.407c-1.9-.086-4.16-.086-6.06 0-.395.381-.422.949-.68 1.412-.797 1.424-2.506 2.5-4.545 2.141-1.375-.242-2.219-.978-2.979-1.932-.287-.533-.446-1.191-.783-1.672-1.805-.199-4.172-.113-6.061-.053-.434.492-.48 1.123-.784 1.619-.319.525-.88 1.019-1.411 1.359-.424.269-.93.318-1.306.731-.087 1.777-.087 3.918 0 5.695.419.482 1.044.547 1.515.889 1.805 1.307 2.529 4.192 1.15 6.217-.615.902-1.667 1.363-2.665 2.037-.087 2.023-.086 4.404 0 6.426.396.406.927.453 1.358.733 1.005.652 1.487 1.666 2.09 2.717 2.086.064 4.178.125 6.165.053.614-1.199 1.365-2.404 2.665-2.978 1.073-.473 2.469-.506 3.656.053 1.254.588 1.857 1.746 2.561 2.978 1.918.086 4.195.086 6.113 0 .59-.543.766-1.498 1.358-2.039.605-.543 1.348-.951 2.142-1.307.199-2.096.024-4.217.053-6.529-.359-.459-.92-.461-1.359-.732-.982-.607-1.418-1.592-2.09-2.508-1.525-.18-3.18.055-4.754 0-.502-.018-1.077-.139-1.463 0-.402.146-.852 1.23-1.254 1.672-.662.729-1.404 1.17-2.508 1.412-3.248.068-5.377-1.828-5.068-5.018.176-1.803 1.589-3.246 3.083-3.709 2.009-.621 4.134.453 5.067 2.039.281.475.344 1.057.732 1.514 1.889.053 4.258.154 6.06-.053.602-1.166 1.092-2.244 2.09-2.924 3.006-2.053 7.443.32 6.896 4.439-.359 2.008-1.721 3.018-3.344 3.762-.174 2.016.008 4.375-.053 6.479.523.502 1.205.652 1.725 1.045.834.631 1.584 1.668 1.725 3.031.273 2.664-1.867 5.338-5.225 4.91-1.99-.252-2.887-1.805-3.711-3.344-1.795-.142-4.219-.049-6.164 0-.463.406-.515.936-.836 1.412-1.231 1.82-3.937 2.564-6.061 1.201-.941-.604-1.398-1.566-1.986-2.613-1.766-.289-4.236-.15-6.164-.103-.57.682-.752 1.459-1.307 2.037-.54.562-1.539 1.184-2.508 1.307-3.025.383-5.596-1.844-5.172-5.174.25-1.973 1.78-2.924 3.344-3.709.086-2.057.087-4.473 0-6.529-.484-.457-1.119-.537-1.62-.889-1.366-.959-2.187-3.016-1.567-4.963.338-1.066 1.029-1.889 1.881-2.457.414-.275.928-.346 1.307-.73.087-1.797.086-3.951 0-5.748-.36-.386-.844-.486-1.252-.732-1.125-.677-1.983-1.732-2.143-3.293-.277-2.709 1.943-5.498 5.329-4.91.868.15 1.646.582 2.194 1.098.594.558.852 1.322 1.359 1.984 1.872.234 4.173.043 6.218.105.488-.355.648-.961.992-1.412.715-.934 1.882-1.873 3.657-1.775 2.259.125 3.276 1.598 4.18 3.187 1.872.201 4.311.107 6.271.051.787-1.008 1.152-1.982 2.246-2.611 2.854-1.641 6.361.336 6.688 3.24.297 2.65-1.422 4.81-3.709 5.066-1.242.139-2.355-.141-3.084-.574-1.069-.638-1.587-1.771-2.194-3.031zm-27.848-2.09c-1.02 1.895.793 3.629 2.246 3.605 3.09-.047 3.008-5.07-.209-4.857-1.138.075-1.724.672-2.037 1.252zm17.033 3.659c.205.023.459.035.678 0 2.736-.441 2.373-5.191-.73-4.807-2.823.35-2.573 4.498.052 4.807zm13.584-4.076c-1.746 2.141.518 5.014 2.873 3.92 2.373-1.106 1.352-5.238-1.568-4.598-.605.054-.904.418-1.305.678zm-28.056 18.81c1.83-.246 2.707-2.689 1.306-4.18-.491-.381-1.231-.789-2.142-.576-2.986.426-2.33 5.178.836 4.756zm14.523-4.756c-1.178.074-1.788.918-2.141 1.934-.051 1.949.883 2.912 2.82 2.873 2.757-.531 2.202-4.985-.679-4.807zm12.906 2.143c-.207 1.834 1.619 3.199 3.291 2.613 2.527-.889 1.76-5.334-1.359-4.65-1.033.238-1.805.906-1.932 2.037zm-30.094 14.838c-.7 1.983 1.023 3.283 2.299 3.291 3.273.021 3.003-5.104-.209-4.807-1.223.113-1.859.861-2.09 1.516zm17.659 3.343c1.357-.096 2.139-1.182 2.09-2.82-.378-1.156-1.201-2.145-2.769-1.934-2.89.463-2.208 4.96.679 4.754zm14.943.053c1.543-.023 2.656-1.562 2.299-3.031-.279-1.145-1.383-1.938-2.666-1.775-3.006.376-2.619 4.851.367 4.806z"/><path d="m65.385 23.851c-.184 1.621.029 3.182-.053 4.912-.025.51-.133 1.244.053 1.566.203.357 1.082.527 1.514.836.914.652 1.332 1.686 1.934 2.561 1.918.088 4.195.088 6.113 0 .496-.41.545-1.035.889-1.516.643-.898 1.605-1.289 2.559-1.881.207-1.94.107-4.451.053-6.479-1.021-.676-2.027-1.059-2.664-1.984-1.453-2.117-.619-5.215 1.41-6.426.404-.242 1.025-.289 1.201-.576.18-.291.053-.871.053-1.357 0-1.361.15-3.188 0-4.441-.449-.406-.992-.572-1.463-.889-1.102-.738-2.004-1.871-1.986-3.762.023-2.252 1.654-4.094 3.814-4.336 3.1-.348 5.568 2.037 5.068 5.119-.209 1.297-.883 2.357-1.881 3.031-.453.307-.973.404-1.41.783-.066 1.84-.176 3.891-.053 5.748.814.613 1.951.904 2.455 1.828 1.451 1.416 1.057 4.406-.156 5.746-.668.74-1.531.949-2.246 1.516-.057 2.061-.137 4.504 0 6.426.904.646 2.092 1.078 2.717 2.143.641 1.092.887 2.652.365 4.129-.812 1.445-2.002 2.676-4.023 2.717-1.719.033-3.047-.822-3.812-1.934-.326-.473-.451-1.031-.838-1.463-1.898-.088-4.16-.088-6.061 0-.529.305-.6 1.031-.939 1.516-.885 1.26-2.75 2.342-4.754 1.775-1.672-.473-2.518-1.816-3.291-3.291-1.996-.125-4.184-.006-6.166.053-.486.713-.791 1.611-1.41 2.193-1.031 1.141-3.322 1.486-4.859.836-1.885-.797-3.139-2.951-2.561-5.225.449-1.762 1.703-2.549 3.291-3.344.055-2.043.035-4.31-.051-6.478-.443-.477-1.086-.539-1.568-.889-.754-.545-1.326-1.361-1.619-2.193-.709-2.016.264-4.16 1.777-5.172.43-.291.918-.371 1.41-.732.086-1.832.086-4.02 0-5.852-.408-.385-.92-.41-1.359-.68-1.328-.809-2.221-2.479-2.037-4.283.258-2.549 2.43-4.242 5.068-3.971 2.148.221 4.148 2.129 3.812 5.016-.16 1.389-.9 2.371-1.828 3.029-.471.334-.998.527-1.514.941-.033 1.836-.234 3.984 0 5.746.365.404.92.445 1.357.732 1.252.818 2.393 2.422 1.934 4.754-.184.936-.691 1.643-1.254 2.193-.586.574-1.324.869-2.037 1.359-.109 2.094-.043 4.373-.053 6.426 1.031.641 2.119 1.08 2.768 2.09.271.422.32.896.68 1.307 1.836.207 4.244.105 6.166.053.436-.396.488-.961.783-1.412.613-.936 1.576-1.369 2.508-1.984.213-2.074.096-4.539 0-6.531-.607-.559-1.33-.777-1.881-1.307-.916-.875-1.465-2.266-1.307-3.812.209-2.025 1.719-3.035 3.188-3.867.086-1.812.088-3.986 0-5.799-.803-.594-1.609-.992-2.195-1.725-1.977-2.473-.869-6.703 2.561-7.209 3.133-.463 5.48 2.01 5.174 4.857-.143 1.318-.805 2.424-1.674 3.084-.492.375-1.143.527-1.67.992-.1 1.754-.197 3.908 0 5.746.324.373.91.482 1.357.732 1.18.9 1.98 2.057 1.986 3.762.004 1.701-.854 3.092-2.09 3.867-.404.252-.861.273-1.255.68z"/></g></svg>