<svg enable-background="new 0 0 33.581 31.58" viewBox="0 0 33.581 31.58" xmlns="http://www.w3.org/2000/svg"><path d="m14.236.419c-.046-.285.297-.437.534-.418.237-.001.353.253.379.455-.173.104-.309.286-.18.484.381.707.211 1.524.041 2.263.081.405.562.432.893.393.084.788.033 1.583.111 2.371.001 1.463.099 2.933-.103 4.388-.061.384-.124.774-.28 1.134-.015-.002-.047-.005-.063-.006-.338-.743-.464-1.565-.538-2.372-.159-1.091-.239-2.193-.316-3.292-.176-1.799-.318-3.6-.478-5.4z"/><path d="m17.47.339c.089-.212.39-.217.584-.179.239.048.263.318.296.514-.125.053-.285.099-.307.259-.006.262.106.514.101.779.009.58-.295 1.091-.501 1.614-.039.416.451.546.777.567-.255 1.718-.578 3.425-.939 5.124-.238.867-.461 1.756-.93 2.534-.029.001-.088.005-.117.006-.22-1.456.037-2.919.175-4.37.254-1.538.368-3.096.577-4.64.118-.733.169-1.475.284-2.208z"/><path d="m11.055.923c.112-.184.28-.335.491-.391.248-.023.563.277.36.512-.195.259.144.478.244.701.349.555.26 1.223.284 1.844.144.393.62.327.937.21.467 1.76.93 3.528 1.267 5.319.087.834.283 1.693.084 2.524-.421-.558-.71-1.208-.923-1.871-.343-.952-.641-1.919-.921-2.891-.62-1.981-1.22-3.97-1.823-5.957z"/><path d="m20.684.983c.222-.04.536-.1.681.123.084.124.066.278.073.421-.126.055-.251.112-.375.17.003.492-.041 1.002-.29 1.438-.16.351-.462.612-.621.963.028.361.37.531.673.63-.178.596-.449 1.159-.659 1.744-.55 1.19-.973 2.439-1.605 3.591-.34.648-.68 1.326-1.24 1.816-.034-1.177.424-2.287.747-3.398.215-.66.395-1.333.683-1.964.551-1.526 1.042-3.073 1.588-4.6.114-.311.171-.649.345-.934z"/><path d="m8.088 2.225c.101-.25.311-.539.618-.489.177-.008.264.169.367.28-.051.11-.18.219-.123.351.168.2.407.333.543.561.236.393.373.841.431 1.295.035.19.068.438.284.503.267.122.522-.073.763-.166.724 1.489 1.484 2.96 2.149 4.477.347.928.738 1.873.779 2.875-.441-.276-.71-.75-1.011-1.163-.427-.712-.884-1.407-1.277-2.138-.626-1.211-1.351-2.368-1.953-3.591-.457-.969-1.074-1.848-1.57-2.795z"/><path d="m23.435 2.581c.116-.347.563-.255.774-.058.128.166.064.386-.003.563-.12.006-.239.013-.358.022-.126.605-.333 1.228-.824 1.638-.202.229-.627.386-.551.755.041.273.314.407.523.543-.17.376-.456.678-.694 1.009-.761 1.148-1.508 2.306-2.319 3.419-.57.666-1.135 1.371-1.892 1.833.126-.925.636-1.726 1.077-2.528.538-.959 1.093-1.908 1.666-2.846.379-.512.657-1.088.995-1.627.512-.921 1.095-1.801 1.606-2.723z"/><path d="m5.549 4.289c-.319-.316.131-.936.539-.726.228.066.138.316.135.49.182.153.391.269.583.408.416.32.66.803.852 1.28.073.177.19.379.408.384.26.048.447-.172.66-.278.119-.023.181.095.251.168.865 1.037 1.628 2.153 2.459 3.216.69.968 1.392 1.971 1.715 3.13-.801-.308-1.327-1.043-1.924-1.627-.495-.537-.984-1.082-1.443-1.65-.268-.373-.57-.718-.881-1.054-.475-.47-.883-1.003-1.367-1.465-.667-.754-1.316-1.525-1.987-2.276z"/><path d="m23.649 6.976c.908-.822 1.671-1.792 2.527-2.668.202.033.413.104.547.269.111.158.063.379-.052.52-.119.016-.239.009-.356.028-.208.164-.235.45-.383.658-.282.402-.67.745-1.137.914-.161.061-.376.15-.343.362-.052.29.202.463.359.661-.019.122-.133.193-.208.28-.795.772-1.559 1.576-2.38 2.322-.502.489-.995.994-1.564 1.406-.585.46-1.184.939-1.9 1.174.273-.835.932-1.45 1.463-2.122 1.082-1.322 2.297-2.525 3.427-3.804z"/><path d="m3.455 5.88c.169-.065.349-.019.515.03.012.157-.032.385.157.451.434.181.913.333 1.22.713.25.241.349.638.67.797.349.105.549-.218.766-.419.135.038.242.134.346.223.92.825 1.956 1.515 2.834 2.387.956.866 1.937 1.773 2.546 2.926-.531-.094-.99-.396-1.449-.661-.534-.364-1.066-.735-1.558-1.155-1.994-1.409-3.925-2.905-5.87-4.378-.155-.106-.355-.183-.423-.374.034-.195.104-.398.246-.54z"/><path d="m28.17 6.796c.482-.227.878.563.411.832-.112-.034-.221-.096-.34-.088-.268.196-.385.539-.669.721-.4.335-.921.432-1.391.62-.335.236-.126.719.101.962-.963.696-1.995 1.291-2.995 1.933-.785.478-1.57.964-2.415 1.333-.499.217-1.007.451-1.555.502.353-.627.949-1.081 1.5-1.529 1.07-.834 2.181-1.61 3.293-2.386 1.345-.98 2.697-1.947 4.06-2.9z"/><path d="m32.719 8.449c.168-.07.342-.181.532-.141.295.111.468.574.188.79-.177.208-.422-.157-.612.031-.343.366-.8.609-1.293.698-.3.064-.618.019-.907.131-.284.197-.177.585-.086.858.054.114-.093.144-.165.183-1.627.582-3.23 1.236-4.885 1.744-.814.178-1.65.468-2.49.35.27-.315.632-.529.981-.747.826-.447 1.688-.821 2.538-1.22 2.077-.868 4.131-1.789 6.199-2.677z"/><path d="m1.795 9.391c-.48-.135-.228-1.031.26-.877.176-.005.167.206.186.329.126.067.26.129.407.128.684.044 1.238.507 1.706.968.116.141.327.171.484.083.207-.127.313-.355.433-.556 1.39.72 2.768 1.465 4.157 2.184.696.471 1.403.929 2.033 1.487.203.168.408.348.509.599-.749-.06-1.469-.313-2.141-.64-.59-.293-1.217-.499-1.812-.78-2.08-.964-4.15-1.947-6.222-2.925z"/><path d="m.583 11.636c.097-.124.266-.089.404-.101.06.116.079.311.237.33.399.015.816-.077 1.2.077.397.099.708.373 1.065.554.427.11.639-.371.687-.714 1.388.376 2.768.785 4.148 1.188 1.155.308 2.263.808 3.256 1.474.004.031.012.092.015.122-.565.029-1.14.04-1.697-.077-.839-.182-1.689-.316-2.526-.507-2.283-.562-4.587-1.038-6.864-1.623-.05-.237-.131-.533.075-.723z"/><path d="m3.607 14.297c1.447.024 2.887.179 4.33.282.951.059 1.886.254 2.806.498.258.083.505.196.745.322-.968.451-2.069.292-3.102.369-1.459-.035-2.922-.039-4.382-.05-.881-.073-1.766-.029-2.649-.06-.032-.067-.064-.132-.097-.197.001.042.002.126.003.168-.379-.007-.759.012-1.137-.021-.124-.275-.21-.601.03-.84.115-.008.231-.017.346-.023.034.071.066.143.099.215.355.048.667-.17 1.019-.166.611-.096 1.142.372 1.746.291.202-.214.256-.5.243-.788z"/><path d="m3.572 16.839c1.706-.271 3.419-.506 5.136-.696.645-.039 1.294-.038 1.94-.008.287.032.589.046.846.195-1.224.71-2.654.892-4.014 1.193-2.327.435-4.642.926-6.965 1.374-.295-.145-.498-.632-.162-.848.137-.152.318-.053.416.085.352.026.585-.312.928-.349.524-.173 1.064-.026 1.596-.009.395-.14.312-.613.279-.937z"/><path d="m8.8 17.661c.942-.262 1.904-.567 2.893-.503-.619.695-1.519 1.027-2.318 1.464-2.506 1.089-5.037 2.127-7.536 3.234-.16.067-.329.175-.509.12-.252-.17-.454-.563-.169-.801.149-.227.346.048.525.032.2-.125.348-.318.551-.44.45-.283.989-.375 1.513-.391.161.003.328-.075.39-.231.106-.261-.015-.534-.072-.791 1.57-.586 3.13-1.2 4.732-1.693z"/><path d="m19.353 17.864c.904.011 1.722.449 2.545.772.431.193.86.387 1.293.574 1.918.93 3.858 1.812 5.777 2.738.273.137.58.223.806.438-.025.217-.004.496-.21.634-.128.108-.302.039-.451.03-.025-.119-.05-.236-.073-.353-.364-.131-.773-.097-1.117-.289-.421-.197-.725-.557-1.075-.849-.369-.173-.688.198-.766.529-.126-.024-.251-.06-.362-.126-1.403-.768-2.828-1.499-4.206-2.311-.776-.519-1.581-1.043-2.161-1.787z"/><path d="m9.802 18.814c.719-.357 1.456-.752 2.265-.835-.51.846-1.374 1.373-2.112 1.995-.73.621-1.563 1.102-2.345 1.652-1.01.686-1.965 1.456-3.018 2.075-.464.333-.935.654-1.394.994-.369.298-.927-.323-.601-.669.091-.2.311-.067.458-.026.354-.446.79-.841 1.333-1.044.259-.106.549-.133.789-.281.211-.265.08-.638-.121-.868.001-.032.005-.096.006-.128 1.566-.978 3.124-1.97 4.74-2.865z"/><path d="m18.837 18.628c.431.016.811.271 1.185.465 2.029 1.335 3.895 2.892 5.852 4.326.533.312.988.736 1.489 1.094.241.197.527.347.724.594.006.3-.18.73-.551.627-.244.015-.195-.282-.242-.44-.139-.121-.325-.159-.49-.228-.409-.153-.733-.466-.995-.806-.15-.191-.245-.43-.437-.585-.353-.141-.66.132-.818.422-1.397-1.01-2.698-2.152-3.976-3.309-.616-.689-1.306-1.334-1.741-2.16z"/><path d="m9.993 20.466c.776-.697 1.603-1.384 2.577-1.784-.124.558-.515 1.01-.845 1.46-.601.686-1.204 1.37-1.799 2.062-.417.524-.883 1.008-1.385 1.451-1.168 1.188-2.261 2.449-3.431 3.635-.203-.068-.434-.14-.545-.34-.071-.181.017-.365.105-.52.117.007.236.014.354.02.23-.347.353-.772.686-1.046.338-.329.797-.476 1.164-.763.01-.204.041-.442-.134-.59-.089-.106-.311-.262-.142-.398.426-.323.791-.715 1.174-1.087.717-.725 1.521-1.358 2.221-2.1z"/><path d="m18.203 19.224c1.024.488 1.721 1.427 2.47 2.244.716.749 1.318 1.601 2.063 2.321 1.03 1.164 2.025 2.358 3.042 3.532.238.227.01.572-.213.712-.189.081-.366-.048-.522-.138.029-.116.06-.231.091-.346-.25-.242-.594-.363-.821-.631-.329-.349-.514-.797-.698-1.232-.11-.316-.545-.277-.755-.091-.093.05-.194.208-.309.124-.682-.825-1.284-1.718-1.992-2.521-.617-.809-1.239-1.62-1.741-2.506-.251-.468-.522-.94-.615-1.468z"/><path d="m12.442 19.949c.252-.241.485-.527.824-.649-.218 1.181-.933 2.177-1.481 3.221-.317.629-.756 1.181-1.099 1.795-.68 1.08-1.199 2.254-1.922 3.307-.341.524-.63 1.08-.984 1.596-.202.002-.438.024-.592-.135-.186-.139-.128-.394-.057-.578.122-.022.273.011.368-.089.137-.279.139-.605.293-.878.208-.375.507-.694.849-.949.127-.122.342-.24.296-.447-.009-.312-.326-.439-.535-.605-.008-.13.086-.231.157-.329 1.328-1.726 2.284-3.747 3.883-5.26z"/><path d="m17.441 19.675c.781.551 1.149 1.481 1.676 2.248 1.304 2.131 2.424 4.368 3.666 6.536.146.298.358.565.464.882.027.347-.462.669-.746.413-.197-.116-.05-.347-.034-.514-.135-.213-.353-.351-.506-.547-.282-.389-.447-.852-.511-1.327-.043-.193-.066-.468-.297-.526-.269-.087-.521.055-.74.195-.58-1.112-1.097-2.256-1.668-3.372-.295-.491-.488-1.031-.705-1.558-.277-.788-.566-1.59-.599-2.43z"/><path d="m13.222 20.73c.231-.358.454-.739.797-1.003.023.715-.152 1.421-.362 2.1-.491 1.801-1.198 3.532-1.759 5.311-.387 1.137-.738 2.29-1.176 3.408-.204.165-.6.13-.743-.113-.034-.141-.016-.288-.012-.43.155-.016.344-.061.365-.246.027-.344-.011-.701.138-1.023.133-.45.486-.776.71-1.173.103-.4-.328-.617-.646-.702.342-1.024.788-2.011 1.182-3.016.47-1.053.891-2.133 1.506-3.113z"/><path d="m14.673 20.239c.046-.104.125-.184.224-.237.231 1.422-.041 2.853-.162 4.272-.317 2.309-.529 4.631-.848 6.94-.075.239-.392.213-.591.189-.231-.054-.261-.322-.257-.519.096-.051.192-.102.288-.153-.063-.515-.157-1.046.023-1.552.064-.386.396-.703.347-1.105-.137-.306-.487-.364-.781-.411.273-1.505.492-3.022.812-4.519.219-.995.47-1.997.945-2.905z"/><path d="m16.634 22.026c-.077-.689-.17-1.397-.008-2.08.562.735.821 1.641 1.124 2.502.326.921.621 1.851.874 2.794.48 1.527.992 3.045 1.438 4.583.072.309.215.602.234.923-.166.125-.332.312-.561.28-.173-.007-.276-.173-.36-.303.052-.167.239-.346.097-.518-.376-.494-.608-1.113-.549-1.739 0-.258.065-.648-.258-.739-.228-.136-.471.032-.708.006-.274-1.028-.542-2.061-.775-3.1-.21-.864-.453-1.723-.548-2.609z"/><path d="m15.697 20.11c.017-.001.052-.005.07-.006.269.537.351 1.142.457 1.726.152 1.241.313 2.483.383 3.733.179 1.912.367 3.825.506 5.74-.084.211-.343.248-.54.277-.239-.028-.331-.262-.378-.465.077-.057.155-.115.233-.171.012-.397-.309-.717-.278-1.12-.059-.514.116-1.003.208-1.501-.196-.324-.564-.393-.914-.331-.072-1.109-.132-2.218-.13-3.329-.031-1.519-.127-3.095.383-4.553z"/></svg>