<svg enable-background="new 0 0 33.419 33.909" viewBox="0 0 33.419 33.909" xmlns="http://www.w3.org/2000/svg"><path d="m12.112.716c4.163-1.292 8.848-.824 12.656 1.307 4.843 2.568 8.199 7.71 8.651 13.153-2.711 1.679-5.887 2.62-9.067 2.783-2.486-4.767-4.947-9.558-7.463-14.315-1.434 2.591-2.732 5.255-4.158 7.852-2.127-.474-4.279-.811-6.456-.854-1.726.099-3.562.21-5.199.606 1.684-4.999 5.972-9.055 11.036-10.532z"/><path d="m16.919 12.366h.159c.965 1.926 2.013 3.817 2.932 5.761-1.8-.342-3.588-.83-5.227-1.659.674-1.384 1.433-2.731 2.136-4.102z"/><path d="m.084 15.298c3.448-1.223 7.237-1.274 10.789-.527-1.562 3.553-3.693 6.916-5.298 10.47 1.394-.02 2.79-.028 4.184.01 1.158-1.904 2.039-4.005 3.166-5.897 2.814 1.324 5.886 2.074 8.979 2.296.713 1.142 1.239 2.424 1.914 3.601 1.396-.027 2.793.014 4.189-.013-.513-1.293-1.296-2.472-1.813-3.76 2.48-.331 4.889-1.06 7.166-2.081-.601 3.818-2.346 7.502-5.237 10.117-2.183 1.944-4.846 3.412-7.725 4.003-4.381.987-9.148.088-12.855-2.457-5.195-3.293-8.083-9.686-7.459-15.762z"/></svg>