<svg enable-background="new 0 0 74.064 74.527" viewBox="0 0 74.064 74.527" xmlns="http://www.w3.org/2000/svg"><g clip-rule="evenodd" fill-rule="evenodd"><path d="m.62 42.623c-.499-.395-.442-1.223-.522-2.043-.155-1.566-.103-3.26 0-4.938.05-.812.019-1.748.237-2.326.219-.58 1.54-1.721 2.042-2.183.78-.721 1.437-1.484 2.089-2.137 2.906-2.904 5.633-5.348 8.546-8.26 1.441-1.441 2.962-2.82 4.273-4.131 1.414-1.414 2.927-2.695 4.273-4.131 1.338-1.428 2.804-2.767 4.273-4.131 2.103-1.953 4.255-4.092 6.457-6.172.716-.676 1.54-1.701 2.231-1.947.295-.103.799-.1 1.14-.141 1.256-.152 2.716-.072 4.273.047.793.06 3.341.016 3.561.711.153.484-1.074 1.57-1.377 1.852-.633.59-1.061 1.131-1.662 1.615-3.295 3.258-6.629 6.475-10.018 9.639-1.223 1.033-2.077 2.316-3.371 3.18-1.333.889-2.774 1.553-3.988 2.564-1.823 1.518-3.293 3.199-4.653 5.174-.434.631-.795 1.352-1.282 1.994-.282.375-.686.65-1.045.998-.987.955-1.994 2.041-2.991 3.039-2.707 2.707-5.508 5.223-8.213 7.928-1.01 1.01-1.942 2.08-3.038 3.039-.355.309-.72.738-1.235.76z"/><path d="m32.049.841c-.037.492-.497.855-.807 1.141-.985.9-1.991 1.811-2.943 2.801-1.29 1.26-2.562 2.533-3.893 3.75-5.729 5.734-11.757 11.242-17.519 16.998-.942.939-2.05 1.795-2.943 2.801-.448.504-.867 1.035-1.377 1.52-.452.428-.944 1.053-1.662 1.092-.286-.883.174-1.795.379-2.611.543-2.154 1.262-4.111 2.089-6.029.172-.4.267-.795.427-1.188.254-.619.726-1.242 1.092-1.899 2.474-4.438 5.812-8.229 9.686-11.205 2.231-1.715 4.592-3.252 7.406-4.51 2.672-1.195 5.942-2.559 9.115-2.803.27-.02.805-.182.95.142z"/><path d="m30.72 15.275c.047-.877 1.043-1.357 1.567-1.947 2.941-2.771 6.487-6.219 9.638-9.305.465-.455 1.004-1.047 1.566-1.566.506-.467 1.316-1.473 1.947-1.473.875.002 3.246.504 3.323 1.141.071.586-.993 1.277-1.424 1.709-2.67 2.67-5.083 5.037-7.786 7.738-.461.461-1.065.971-1.614 1.519-.527.527-1.084 1.189-1.662 1.424-.405.164-.937.166-1.472.238-.96.127-1.885.301-2.801.521-.414.101-.976.364-1.282.001z"/><path d="m3.374 62.515c-.396-.537-.249-1.391-.19-2.233.053-.75.028-1.603.047-2.42.045-1.893-.13-4.322.523-5.461.245-.428.96-1.055 1.519-1.566 1.585-1.451 3.199-3.092 4.7-4.51 6.339-5.992 12.416-12.086 18.801-18.041 2.084-1.945 4.147-4.027 6.22-6.078 2.06-2.039 4.219-3.98 6.267-6.029 2-2 4.015-4.059 6.22-6.076 1.428-1.309 3.103-3.064 4.652-4.559.495-.477 1.356-1.465 1.852-1.473.566-.008 1.248.441 1.709.713.98.578 1.905 1.108 2.896 1.852.422.316 1.128.75 1.14 1.234.015.609-1.299 1.609-1.614 1.898-.685.629-1.118 1.098-1.757 1.709-3.314 3.16-6.655 6.369-9.922 9.639-1.094 1.094-2.313 2.055-3.324 3.182-1.018 1.135-2.143 2.189-3.229 3.275-2.164 2.164-4.411 4.221-6.599 6.408-7.545 7.549-15.604 14.762-23.121 22.41-1.612 1.641-3.254 3.24-4.985 4.795-.262.236-.58.486-.855.76-.237.237-.499.726-.95.571z"/><path d="m37.462 41.388c-4.829 4.521-9.475 9.232-14.338 13.721-.609.561-1.144 1.195-1.757 1.756-.606.555-1.175 1.176-1.757 1.756-1.163 1.164-2.422 2.232-3.608 3.371-1.786 1.717-3.55 3.455-5.317 5.223-.571.57-1.143 1.26-1.947 1.52-1.155-.443-1.709-1.488-2.564-2.23-.313-.408-.766-.732-1.187-1.188-.334-.361-.985-.92-.997-1.377-.023-.897 1.18-1.262 1.567-1.947 8.897-8.588 17.743-17.23 26.682-25.779 2.401-2.264 4.733-4.588 7.169-6.836 1.173-1.084 2.417-2.268 3.466-3.514 1.056-1.256 2.396-2.254 3.561-3.418 4.008-4.008 8.146-8.125 12.391-12.107.463-.434 1.622-1.772 2.137-1.662.452.098 1.002.701 1.376 1.045.798.734 1.669 1.518 2.421 2.373.336.383.947.957.95 1.426.003.637-1.096 1.412-1.614 1.898-1.833 1.721-3.662 3.473-5.365 5.176-6.987 6.987-14.489 14-21.269 20.793z"/><path d="m14.483 74.527c-1.122-.477-1.697-1.414-2.564-2.279-.356-.356-.77-.723-1.234-1.188-.333-.332-1.035-.918-1.045-1.377-.012-.57 1.068-1.447 1.567-1.945 4.058-4.057 8.391-7.912 12.392-11.965 1.148-1.164 2.345-2.315 3.561-3.418s2.311-2.365 3.514-3.467c3.669-3.357 7.061-6.803 10.682-10.207 1.198-1.127 2.231-2.441 3.466-3.514 2.479-2.15 4.777-4.539 7.074-6.836 4.672-4.674 9.534-9.131 14.196-13.674.785-.297 1.149.547 1.519 1.092.701 1.033 1.219 1.924 1.852 2.992.284.479.771 1.23.76 1.66-.019.736-1.04 1.389-1.566 1.9-3.958 3.84-8.324 8.121-12.25 11.773-4.705 4.736-9.6 9.269-14.338 14.006-7.828 7.826-16.022 15.441-23.976 23.217-.596.543-1.135 1.143-1.757 1.662-.649.492-1.024 1.257-1.853 1.568z"/><path d="m58.826 43.191c-.289-.578.067-1.232.19-1.851.354-1.779.622-4.123.475-6.315-.046-.689-.332-1.506-.143-2.184.149-.535.753-.988 1.282-1.471 1.397-1.281 2.764-2.854 4.083-4.084.943-.879 1.876-1.734 2.801-2.658.883-.883 1.776-2.01 2.801-2.611.749-.441 1.072.738 1.33 1.328.289.664.476 1.391.665 1.9.491 1.33.82 2.707.997 4.131-.575 1.137-1.635 1.938-2.516 2.801-2.654 2.596-5.447 5.143-8.119 7.785-.597.594-1.23 1.141-1.851 1.709-.588.54-1.036 1.393-1.995 1.52z"/><path d="m14.483 40.437c-1.617 2.139-3.723 3.818-5.602 5.699-1.417 1.416-2.886 2.742-4.32 4.178-.452.451-.843 1.109-1.519 1.281-.549-.185-.675-.93-.902-1.519-.48-1.25-.768-2.207-1.14-3.703-.156-.629-.401-1.424-.285-1.994.15-.734 1.093-1.33 1.662-1.898.625-.627 1.204-1.287 1.709-1.852.62-.695 1.311-1.168 1.852-1.709 1.732-1.732 3.571-3.543 5.365-5.271 1.203-1.158 2.291-2.49 3.656-3.418.814-.553.42.914.285 1.424-.436 1.643-.848 3.607-.855 5.604-.005 1.065.202 2.239.094 3.178z"/><path d="m33.664 69.209c2.883-2.73 5.771-5.555 8.736-8.355 1.054-.996 1.838-2.26 3.039-2.99.644-.393 1.365-.609 1.994-.951 1.808-.979 3.598-2.367 5.033-3.75 1.532-1.475 2.795-3.029 3.893-4.938.339-.59.591-1.277.997-1.898.43-.658 1.215-1.348 1.899-1.994 1.983-1.875 3.998-3.666 5.934-5.603 1.913-1.91 3.9-3.756 5.84-5.697.613-.611 1.335-1.49 2.041-1.852.712-.361.782 1.066.854 1.9.162 1.84.17 3.164.095 5.031-.033.84.017 1.766-.189 2.375-.212.627-1.432 1.572-2.089 2.184-2.203 2.047-4.376 4.223-6.504 6.219-2.278 2.137-4.268 4.152-6.504 6.268-3.658 3.459-7.165 7.02-10.825 10.396-.708.654-1.412 1.412-2.137 2.137-.701.701-1.455 1.35-2.184 2.043-.665.631-1.354 1.414-2.136 2.135-.766.707-1.472 1.717-2.231 1.994-1.236.453-3.485.256-4.938.143-.824-.062-4.203-.117-4.32-.902-.062-.416.527-.838.807-1.092 1.054-.956 1.921-1.809 2.895-2.803z"/><path d="m41.877 73.34c-.05-.484.416-.842.712-1.139 2.192-2.201 4.548-4.359 6.789-6.6 5.048-5.049 10.44-9.967 15.572-15.098 1.218-1.219 2.579-2.438 3.893-3.752.571-.57 1.237-1.287 1.947-1.898.715-.615 1.354-1.396 1.994-1.805.693-.44.603.594.427 1.377-1.777 7.941-5.628 14.035-10.54 18.85-3.964 3.883-8.741 6.998-14.622 8.877-1.471.471-2.941.871-4.653 1.234-.445.096-1.099.401-1.519-.046z"/><path d="m42.304 59.334c-.132.818-1.018 1.293-1.566 1.852-3.123 2.938-6.112 6.029-9.353 9.022-.475.438-1.057.914-1.614 1.471-.481.482-1.095 1.258-1.709 1.33-.609.072-1.407-.311-2.042-.475-1.545-.402-2.255-.711-3.751-1.283-.516-.195-1.459-.451-1.519-.949-.061-.502.877-1.281 1.234-1.613 3.017-2.814 5.552-5.443 8.593-8.215.489-.443 1.017-1.143 1.567-1.234.645-.105 1.441.232 2.231.285 1.753.121 3.287.072 4.985-.047.875-.061 1.677-.434 2.374-.428.29 0 .482 0 .57.284z"/></g></svg>