<svg enable-background="new 0 0 76.881 46.438" viewBox="0 0 76.881 46.438" xmlns="http://www.w3.org/2000/svg"><g clip-rule="evenodd" fill-rule="evenodd"><path d="m76.683.245c.26.671.147 1.424.147 2.159-.001 5.146.112 10.738-.099 15.849-1.767.316-3.682.098-5.594.098-1.878 0-3.776-.004-5.545 0-.648.001-1.472.198-2.012-.147-.265-1.68-.146-3.699-.147-5.643 0-.964 0-1.947 0-2.895 0-.955.118-1.919-.146-2.748-.562.141-.643.837-.835 1.276-.596 1.363-1.237 2.928-1.816 4.367-.557 1.462-1.204 2.827-1.814 4.416-.501 1.3-.614 1.509-2.503 1.423-3.406-.155-7.175 0-10.845 0-.552 0-1.163.128-1.619-.196-.026-.931.477-1.786.834-2.65 1.023-2.48 2.016-5.088 3.092-7.605.748-1.751 1.283-3.429 2.404-4.711 1.216-1.389 3.231-2.977 5.643-3.19.017-.001.033 0 .05 0 6.353.004 11.985.049 18.253.049.827 0 1.729-.114 2.552.148z"/><path d="m28.008 18.253c-.118-.976.522-2.076.932-3.042.183-.43.39-1.028.54-1.522.159-.52.228-1.086-.393-1.374-.855.019-1.472.628-2.109 1.031-3.762 2.372-7.35 5.013-11.09 7.605-.855.593-1.592 1.108-1.473 2.503.1 1.159 1.055 2.285 1.62 3.189 1.598 2.555 3.026 4.915 4.612 7.409.285.448.588 1.082 1.227 1.129.795-.105 1.016-1.031 1.275-1.668.284-.694.684-1.46.638-2.208-.379-.517-1.265-.265-1.864-.441-.646-.191-.882-.517-1.129-1.079-.29-2.432 2.45-1.917 4.711-2.012 3.104-.131 6.24.049 9.372.049.581 0 1.205-.123 1.669.196.076.817-.346 1.619-.639 2.355-.876 2.202-1.748 4.556-2.698 6.723-1.459 4.511-3.668 9.01-9.667 9.274-4.554.2-9.429-.098-13.984-.099-1.582 0-3.527.215-4.858-.049-2.488-.494-4.156-2.572-4.662-4.907-.24-2.647.71-4.152 1.473-6.183 1.535-4.088 3.329-8.167 4.906-12.169 1.081-2.741 2.235-5.421 3.288-8.096.536-1.36 1.042-2.739 1.619-4.073.574-1.326 1.223-2.636 1.718-3.975.156-.424.198-.919.344-1.276 1.037-2.555 4.038-5.202 7.359-5.446 3.109-.229 6.397.154 9.716 0 1.579-.074 3.288 0 4.907 0 1.701 0 3.792-.249 5.25.049 2.255.461 4.582 2.934 4.662 5.742.034 1.236-.429 2.471-.835 3.484-1.042 2.605-1.975 4.917-3.14 7.605-.192.442-.474 1.172-.786 1.325-.64.315-2.222.099-3.189.098-2.312 0-4.301-.099-6.428 0-1.003.047-2.033.184-2.894-.147z"/><path d="m54.112 28.017c.022.849-.355 1.686-.638 2.453-1.704 4.636-3.513 9.148-5.398 13.739-.292.712-.566 1.506-1.128 2.061-4.084.251-8.573-.152-12.905.049-.529.025-1.128.209-1.521-.196-.003-.831.448-1.607.785-2.405 1.58-3.737 3.005-7.685 4.662-11.531.289-.671.59-1.451.932-2.307.348-.869.544-1.966 1.374-2.109.512-.089 1.224-.018 1.816 0 3.333.1 6.924 0 10.5 0 .508.001 1.121-.135 1.521.246z"/><path d="m76.683 27.919c.202.667.202 1.44.196 2.159-.028 3.676-.072 7.794-.049 11.629.009 1.529.11 3.026-.147 4.417-.967.338-2.123.196-3.238.196-2.264 0-4.424 0-6.625 0-1.114 0-2.229.116-3.238-.147-.259-.984-.146-2.262-.147-3.533 0-3.476.027-7.762 0-10.844-.005-.689-.173-3.642.344-3.926.551-.302 2.597-.098 3.435-.098h6.429c1.038 0 2.081-.115 3.04.147z"/></g></svg>