<svg enable-background="new 0 0 77.263 77.943" viewBox="0 0 77.263 77.943" xmlns="http://www.w3.org/2000/svg"><path clip-rule="evenodd" d="m63.23.331c.293 8.5.2 16.689.15 25.51-.017 2.938-.068 5.879 0 8.756.069 2.871.074 5.928-.352 8.352-.444 2.523-1.193 4.611-2.214 6.641-3.811 7.58-10.944 13.162-21.837 13.637-2.701.117-5.496-.615-7.598-1.308-2.278-.754-4.168-1.738-5.937-2.918-3.479-2.322-6.432-5.44-8.402-9.359-.967-1.922-1.887-4.104-2.314-6.541-.435-2.475-.601-5.195-.402-8.15-.642-.27-1.42-.15-2.164-.15-2.227 0-4.521-.129-6.439.049-.341.521-.264 1.195-.303 1.762-.313 4.541.586 8.938 1.762 12.322 1.398 4.027 3.334 7.486 5.786 10.467 4.858 5.902 11.34 10.529 20.427 12.074 1.196.203 2.376.439 3.572.504 3.92.211 7.845-.293 10.969-1.207 10.52-3.084 17.469-9.621 21.635-19.019.221-.496.342-1.014.503-1.561.438-1.471 1.006-3.012 1.359-4.678.217-.354.15-.814.201-1.209.15-1.184.368-2.568.402-3.975.046-1.928-.047-3.92 0-5.887.139-5.764.049-11.391.05-17.156.001-.967-.003-1.93-.05-2.918-.129-2.715.05-5.617.05-8.453.001-1.889-.326-3.764.051-5.586.669-.209 1.579-.096 2.466-.1.864-.004 1.742-.094 2.465.051.299.758.115 1.574.15 2.363.104 2.279.001 4.767 0 7.195-.002 15.902.004 32.914 0 49.158 0 3.178-.157 6.338-.05 9.459.083 2.396.051 4.799.05 7.193 0 .746.045 1.545-.201 2.266-22.498.119-44.897-.205-67.319-.201-3.187 0-6.415.107-9.61-.152-.152-25.209-.055-49.791-.05-75.32 0-.73-.147-1.529.201-2.213 7.421-.09 15.671.051 23.647.051 7.936-.001 15.922.052 23.748.05 5.301 0 10.504-.041 15.598.201zm-7.296 27.773c-1.545-2.566-3.472-4.684-5.887-6.338-3.269-2.242-7.401-3.773-12.881-3.422-4.807.307-8.105 2.129-11.018 4.428-2.341 2.096-4.419 4.465-5.686 7.646-1.267 3.186-2.012 7.285-1.207 11.473 1.354 7.051 5.917 12.379 11.773 14.943 3.119 1.365 7.171 2.043 11.32 1.307 3.741-.66 6.824-2.145 9.208-4.176 3.47-2.953 6.585-7.098 7.094-12.98.169-1.953.31-4.201-.352-6.139-8.432-.203-17.488-.234-26.063-.049-.215 2.371-.229 5.467-.05 7.899.634.266 1.359.15 2.063.15h13.283c.679 0 1.432-.146 2.013.201-.161 1.051-.869 1.84-1.46 2.617-1.783 2.35-4.379 3.998-7.898 4.479-5.331.725-8.798-2.209-11.12-5.133-.973-1.846-1.861-3.959-1.861-6.742 0-2.85.966-4.863 1.912-6.742 1.785-2.455 4.12-4.209 7.547-4.83 3.754-.68 7.285.609 9.56 2.465.655.535 1.232 1.574 1.963 1.762.535.137 1.383.051 2.113.051 2.26 0 4.858.08 6.792-.102-.111-1.002-.653-1.928-1.158-2.768z" fill-rule="evenodd"/></svg>