<svg enable-background="new 0 0 78.483 78.941" viewBox="0 0 78.483 78.941" xmlns="http://www.w3.org/2000/svg"><path clip-rule="evenodd" d="m38.805.032c6.019-.286 12.101 1.41 16.347 3.319 2.301 1.035 4.452 2.176 6.341 3.517.472.335.873.783 1.338 1.139 3.221 2.475 6.132 5.309 8.47 8.718 3.843 5.604 7.183 13.025 7.183 22.29 0 12.856-4.763 21.573-11.194 28.136-3.217 3.282-6.879 6.134-11.492 8.173-4.573 2.021-9.94 3.616-16.05 3.616-6.393 0-11.731-1.319-16.297-3.369-4.57-2.051-8.386-4.77-11.641-8.024-6.618-6.616-11.355-14.966-11.79-27.541-.215-6.2 1.361-12.146 3.27-16.396 2.139-4.764 4.545-8.28 7.876-11.789 3.136-3.303 7.052-6.104 11.492-8.173 4.404-2.053 9.725-3.615 16.049-3.616.032 0 .066.001.098 0zm12.582 2.923c-5.941.344-9.771 3.998-11.194 8.867-.514 1.755-.496 3.824-.496 6.192.001 4.284.1 8.764.1 13.275 0 4.397-.399 9.28.495 12.929 1.637 6.678 6.517 11.948 12.879 13.87 3.553 1.073 8.06 1.213 11.592 0 3.334-1.146 5.977-2.876 8.173-5.251 2.607-2.831 4.475-6.246 5.053-10.996.615-5.053-.927-9.58-3.021-12.78-2.034-3.106-5.061-5.684-8.768-7.281-2.802-1.207-6.541-1.904-10.254-1.288-1.126.187-2.174.531-3.27.693-.366-5.655.054-12.226-.247-18.179-.347-.179-.733-.07-1.042-.051zm-16.694 69.843c2.437-1.943 4.245-5.183 4.409-9.56.08-2.142-.003-4.448-.05-6.737-.096-4.717-.049-9.402-.049-13.969-.001-2.355.15-4.675-.199-6.786-.675-4.093-2.428-6.947-4.507-9.511-3.585-3.639-8.205-7.075-15.802-6.588-6.086.389-10.585 3.39-13.622 7.231-2.893 3.662-5.141 9.53-3.763 16.051 1.164 5.508 4.225 9.62 8.421 12.284 1.949 1.238 4.599 2.491 7.43 2.923 2.385.364 5.015.191 7.084-.248.675-.143 1.345-.524 2.08-.446.131 4.481.149 9.37.149 13.721 0 1.538-.232 3.058.149 4.458 3.645.147 6.246-1.181 8.27-2.823z" fill-rule="evenodd"/></svg>