<svg enable-background="new 0 0 29.701 31.432" viewBox="0 0 29.701 31.432" xmlns="http://www.w3.org/2000/svg"><path d="m6.205 3.134c3.012-2.171 6.765-3.182 10.454-3.133 2.786.039 5.593.636 8.06 1.957 1.255.687 2.48 1.536 3.269 2.756.933 1.387.979 3.117.925 4.728.051 1.721-.165 3.467.1 5.169-3.118-.532-5.405-3.107-6.66-5.868-.63-1.287-1.362-2.57-2.469-3.509-1.848-1.533-4.557-1.603-6.723-.768-2.688 1.078-3.886 4.071-4.228 6.754-.248 1.834-.2 3.691-.126 5.535.173 2.719.425 5.559 1.796 7.977.579 1.031 1.443 1.942 2.55 2.4 1.189.523 2.537.464 3.792.262.467-.109 1.107-.277 1.202-.826-.058-.523-.44-.931-.708-1.361-1.521-2.049-2.267-4.794-1.527-7.283.462-1.466 2.089-2.121 3.514-2.124 3.431-.034 6.844.701 10.276.348-.747.667-1.12 1.667-1.08 2.66-.04 2.857-.019 5.714-.041 8.572-5.303 4.057-12.725 5.211-18.971 2.809-2.44-.963-4.64-2.556-6.264-4.621-1.755-2.211-2.801-4.934-3.165-7.722-.343-2.512-.228-5.126.63-7.527 1.025-2.858 2.878-5.462 5.394-7.185z"/></svg>