<svg enable-background="new 0 0 85.033 74.787" viewBox="0 0 85.033 74.787" xmlns="http://www.w3.org/2000/svg"><path clip-rule="evenodd" d="m20.629.003c.538-.058.842.846 1.135 1.333 1.847 3.069 3.566 5.895 5.379 9.13.294.524.663 1.252 1.036 1.382.603.21 1.767.049 2.665.049 6.239 0 12.547.088 18.359 0 6.219-.095 12.173-.049 18.556-.049.824 0 1.713-.117 2.518.148-.326 1.205-1.092 2.192-1.679 3.257-1.743 3.168-3.414 6.412-5.379 9.426-7.924.184-16.063.099-24.083.099-1.116 0-2.241-.116-3.307.148-.041.614.409 1.1.691 1.579.873 1.482 1.601 3.006 2.566 4.491.828 1.276 1.723 2.972 2.616 4.491.274.467.619 1.195.987 1.333.559.207 1.775.049 2.665.049 11.473 0 23.217-.049 34.496-.049 1.756 0 3.508-.117 5.183.148-.136.925-.772 1.677-1.185 2.468-2.874 5.507-6.098 10.977-9.031 16.533-2.938 5.564-6.081 10.97-9.031 16.533-.4.755-.783 1.584-1.432 2.171-14.297.17-28.815.136-43.084 0-.413-.192-.574-.67-.79-1.037-1.091-1.857-2.263-3.814-3.356-5.774-1.303-2.338-2.531-4.616-3.948-7.008-.9-1.519-1.794-3.102-2.665-4.639-2.593-4.577-5.293-9.216-7.995-13.917-.572-.995-1.338-2.303-1.974-3.504-.244-.462-.533-.861-.542-1.235-.012-.503.82-2.305 1.332-2.319.482-.014 1.333 1.764 1.53 2.122.473.859.889 1.692 1.283 2.319 5.819 9.907 11.423 20.03 17.174 30.005.302.313.362.726.642 1.185.162.266.579.89.888.888.372-.002 1.078-1.204 1.086-1.579.011-.488-1.028-1.959-1.283-2.418-1.312-2.365-2.698-4.671-4.047-6.958-.898-1.522-1.917-3.095-2.665-4.688-.784-1.672-1.735-3.163-2.616-4.688-3.217-5.574-6.133-10.758-9.426-16.286-.37-.621-1.221-1.86-1.234-2.418-.011-.481.355-.989.592-1.382.273-.455.479-.841.839-1.086.711.421 1.143 1.333 1.579 2.073 1.338 2.271 2.588 4.613 3.948 6.909 1.796 3.033 3.566 6.104 5.281 9.229 2.561 4.666 5.316 9.136 7.945 13.818.615 1.094 1.266 2.259 1.974 3.504.202.355.555.93.839.938.544.015 1.031-1.14 1.036-1.53.01-.793-.812-1.775-1.234-2.467-2.379-3.911-4.451-7.647-6.761-11.598-1.845-3.156-3.476-6.255-5.28-9.426-.895-1.573-1.817-3.117-2.714-4.639-.913-1.549-1.784-3.119-2.665-4.688-.871-1.555-2.041-2.979-2.565-4.739.335-.932.639-1.895 1.48-2.32.459.341.71.903.987 1.382 1.68 2.902 3.389 5.953 5.132 8.834.288.476.4 1.104.938 1.382.385-.096 1.074-1.017 1.085-1.53.01-.452-.552-1.125-.839-1.629-1.78-3.128-3.497-6.073-5.281-9.278-.278-.5-.816-1.12-.839-1.579-.024-.482.349-.971.592-1.431.223-.421.546-1.128.888-1.135.533-.012 1.4 2.002 1.628 2.418 1.405 2.56 3.221 5.149 4.491 7.65.273.537.381 1.259.987 1.48.631-.225.766-.945 1.037-1.53-1.507-3.656-4.136-7.343-6.021-10.956-.274-.525-.732-1.178-.74-1.678-.009-.511.299-.917.592-1.382.204-.324.539-1.094.888-1.085.422.01.771.986.987 1.382.799 1.463 1.865 2.917 2.517 4.441.697 1.631 1.563 2.901 2.517 4.491.24.399.665 1.275 1.037 1.283.36.008.987-.928.987-1.48 0-.506-.535-1.121-.839-1.629-.987-1.649-1.697-3.117-2.616-4.688-.96-1.642-1.574-3.062-2.566-4.738-.308-.519-.753-1.23-.74-1.678.015-.515.311-.863.592-1.382.191-.352.506-1.071.839-1.086.569-.025.764.969.987 1.431.416.863 1.015 1.717 1.53 2.616 1.229 2.145 2.504 4.404 3.75 6.564.243.419.423.954.889 1.135.513-.359.848-.896.987-1.628-.362-1.183-1.095-2.163-1.678-3.208-1.425-2.552-2.972-5.149-4.442-7.797-.271-.488-.814-1.106-.839-1.579-.025-.483.32-1.018.592-1.48.196-.333.599-1.102.888-1.135.469-.053.833.892 1.086 1.332 1.747 3.043 3.473 5.974 5.231 8.982.282.482.502 1.059.987 1.382.553-.335 1.135-.967 1.135-1.628 0-.423-.509-1.21-.79-1.678-1.849-3.078-3.627-6.197-5.428-9.376-.298-.525-.783-1.19-.79-1.629-.006-.624.963-2.119 1.336-2.47zm18.507 36.915c-1.492-2.533-2.897-4.79-4.392-7.452-.288-.512-.606-1.264-1.037-1.333-.324-.051-1.054 1.257-1.036 1.678.018.423.569 1.081.839 1.53 1.804 3.002 3.347 5.977 5.231 8.982.228.363.686 1.315 1.086 1.283.453-.036.874-1.159.938-1.579-.441-1.127-1.046-2.12-1.629-3.109zm-1.184 8.093c-.26-1.143-1.082-2.036-1.629-3.06-.539-1.009-1.127-1.997-1.728-3.01-.842-1.421-1.666-2.987-2.566-4.491-.265-.443-.72-1.296-1.086-1.332-.474.143-1.015.844-.987 1.53.017.426.475 1.15.74 1.628 1.726 3.108 3.667 6.003 5.231 9.031.253.489.507 1.14 1.086 1.333.486-.37.804-.908.939-1.629zm-22.603-5.428c.307.523.504 1.069.79 1.579 1.707 3.049 3.506 5.999 5.231 8.982 2.012 3.479 4.049 7.059 6.07 10.462.282.475.44 1.11.987 1.382 8.68.208 17.699.05 26.305.05.554 0 1.164.124 1.678-.148.234-.612-.284-1.121-.543-1.579-1.409-2.491-2.789-4.975-4.195-7.403-.567-.98-1.105-2.008-1.876-2.813-4.52-.142-9.558.045-14.213-.099-.822-.901-1.324-1.963-1.925-2.961-1.535-2.551-3.068-5.157-4.54-7.748-.332-.585-.625-1.294-1.036-1.432-.844-.282-2.049-.049-3.109-.049-2.169 0-4.278 0-6.317 0-1.368 0-3-.212-3.998.148.01.607.398 1.131.691 1.629zm44.86 10.363c-.263.008-.551.042-.74.198.02.651.426 1.156.79 1.776.248.423.593 1.557 1.135 1.53.266-.013.449-.439.593-.691.508-.896 1.165-1.678 1.233-2.665-.791-.253-2.017-.178-3.011-.148zm-.592 6.959c-.034-.561-.587-1.226-.889-1.777-.68-1.243-1.362-2.137-1.974-3.355-.316-.629-.518-1.503-.987-1.728-.558-.267-1.778-.137-2.073.197-.07.58.391.985.642 1.431.797 1.423 1.598 2.765 2.221 4.294.744.885.99 2.268 2.024 2.862.349-.354 1.089-1.055 1.036-1.924z" fill-rule="evenodd"/></svg>