<svg enable-background="new 0 0 76.999 77.931" viewBox="0 0 76.999 77.931" xmlns="http://www.w3.org/2000/svg"><path clip-rule="evenodd" d="m76.825.164c.264 7.784.145 16.021.146 24.003.001 1.091.067 2.167-.146 3.171-11.462.217-23.663.049-35.615.049-2.083 0-3.906-.013-5.513.39-1.59.399-2.868 1.02-4.05 1.903-2.322 1.734-3.999 4.118-4.586 7.416-.669 3.759.799 6.945 2.537 9.123 1.598 2.002 4.349 3.891 7.806 4.147 3.018.223 5.296-.658 7.172-1.805.421-.257 1.567-.865 1.61-1.366.059-.692-.951-.948-1.171-1.512-2.606-2.711-5.276-5.36-7.855-8.099-.418-.396-1.111-.772-1.171-1.366 13.24-.09 27.519-.056 40.885.146.164 14.088.17 27.633 0 41.567-.664-.055-.986-.867-1.562-1.171-1.538-1.549-3.062-3.256-4.83-5.025-1.148-1.148-2.405-2.502-3.659-3.756-.282-.283-.935-1.135-1.268-1.171-.769-.083-1.199 1.125-1.756 1.22-4.261 3.708-9.063 6.557-15.222 8.196-3.124.832-6.687 1.366-10.343 1.366-3.636 0-7.252-.556-10.246-1.415-5.726-1.642-10.839-4.737-14.978-8.391-4.261-3.764-7.554-8.313-9.805-13.564-1.177-2.743-2.156-5.848-2.684-9.025-1.857-11.189 1.515-21.398 5.952-28.053 3.877-5.813 9.019-10.535 15.611-13.612 2.657-1.24 5.555-2.263 8.782-2.927 3.137-.645 6.654-.585 10.294-.585 11.235 0 23.964-.093 35.665.146z" fill-rule="evenodd"/></svg>