<svg enable-background="new 0 0 172.567 120.685" viewBox="0 0 172.567 120.685" xmlns="http://www.w3.org/2000/svg"><path clip-rule="evenodd" d="m172.42.312c.174 8.239.097 17.486.096 26.272 0 1.351.108 2.991-.143 3.972-32.536.15-66.153 0-99.395 0-1.414 1.086-2.578 2.435-3.828 3.685-3.722 3.722-7.594 7.388-11.294 11.197-4.686 4.628-9.265 9.359-14.021 14.117-.311.312-.858.702-.861 1.005-.004.39.907 1.146 1.292 1.531 3.288 3.288 6.673 6.48 9.954 9.763 3.822 3.823 7.545 7.49 11.341 11.198 1.651 1.785 3.693 3.74 5.599 5.646.565.566 1.352 1.77 2.249 1.771 20.909.01 42.669.048 64.413.048 1.293 0 2.701.201 3.732-.574 1.002-1.105.669-4.35.67-6.508 0-5.652.077-11.858-.096-17.133-.564-.255-1.219-.144-1.818-.144-9.57 0-19.093.098-28.379-.096-.191-4.752-.092-9.839-.047-14.595.042-.021.085-.043.096-.097 14.471-.618 24.612-5.566 30.34-14.931.055.009.085-.01.096-.047 9.953.031 20.034-.064 29.908.047.027.069.075.117.145.145.086 16.637.048 33.044.047 49.051 0 2.118.142 4.228-.047 6.125-.568 5.685-2.495 9.727-4.978 13.543-1.642 2.524-3.546 4.633-5.742 6.604-4.295 3.854-9.39 7.175-16.319 8.327-3.522.586-7.578.431-11.819.431-16.153.001-32.597-.001-48.956 0-6.576 0-14.134-.095-21.103-.096-1.051 0-2.204.14-3.063 0-.617-.1-1.579-1.349-2.01-1.771-.742-.728-1.278-1.369-1.914-1.866-4.65-4.762-9.459-9.363-14.165-14.069-7.047-7.048-14.04-14.136-21.104-21.199-7.016-7.015-14.211-13.948-21.248-21.007-.025-.038-.05-.078-.048-.144 4.936-5.152 9.979-10.171 15.026-15.218 5.015-5.015 10.066-9.973 15.17-15.074 1.267-1.266 2.486-2.541 3.781-3.78.65-.622 1.183-1.326 1.818-1.962 7.485-7.484 15.134-15.041 22.732-22.636.631-.63 1.342-1.721 2.105-1.818.505-.064 1.094.02 1.675 0 1.582-.053 3.417.048 5.168.048 25.816.007 51.714.097 77.142.096 9.184-.001 18.745-.07 27.803.143z" fill-rule="evenodd"/></svg>