<svg enable-background="new 0 0 83.516 46.37" viewBox="0 0 83.516 46.37" xmlns="http://www.w3.org/2000/svg"><g clip-rule="evenodd" fill-rule="evenodd"><path d="m74.336 6.209c.229 5.02.209 10.456.051 15.721-1.656.169-3.982.16-5.641 0-.297-3.479.098-7.65-.199-11.13-.386-.394-1.004-.402-1.497-.499-3.749-.73-7.579-1.561-11.479-2.346-3.709-.746-7.627-1.6-11.479-2.346-.56-.108-1.17-.299-1.647-.299-.515 0-1.134.234-1.748.35-3.986.749-8.065 1.613-11.928 2.396-1.163.235-2.342.404-3.494.648-1.15.243-2.318.391-3.443.649-2.25.517-4.511.856-6.688 1.497-.182 3.561.115 7.601-.15 11.08-.752.154-1.742.131-2.645.1-.902-.031-1.856.036-2.545-.199-.123-4.683-.193-10.465 0-15.422 5.218-1.137 10.518-2.176 15.82-3.194 5.296-1.017 10.527-2.365 15.773-3.195.652-.103 1.484.216 2.246.35 7.553 1.329 15.109 2.808 22.609 4.192 2.725.504 5.453.963 8.084 1.647z"/><path d="m24.229 27.57c-3.064.074-6.854.132-9.982-.05-.254-.529-.131-.978-.549-1.348-.797-.705-2.584-.451-2.945.399-.32.754-.1 1.71-.1 2.745 0 .829-.228 2.245.2 2.745.372.435 2.134.485 2.694.249.45-.19.631-.722.6-1.197-.051-.769-1.301-1.111-.699-2.196.835-.267 1.777-.149 2.695-.149 2.487-.001 5.375-.004 8.086.149.257.63.149 1.396.149 2.097.001 1.787-.146 2.979-1.396 3.493-1.221.502-3.885.199-5.441.199-4.62 0-9.35-.126-13.726-.05-1.555.027-2.803.027-3.393-.898-.641-1.005-.35-2.846-.35-4.642 0-2.025-.451-4.273.898-5.191.686-.467 1.676-.383 2.645-.499 1.422-.17 3.252.001 4.941 0 3.111 0 6.495.101 9.732.1 2.324 0 5.072-.374 5.839 1.099.341.654.336 2.248.102 2.945z"/><path d="m83.369 27.47c-.732.265-1.602.149-2.445.149-2.485 0-5.248.041-7.685-.05-.229-.487-.183-1.031-.499-1.348-.653-.653-2.521-.519-2.944.25-.136.244-.188.822-.199 1.197-.016.509.054 1.477.049 2.346-.004.852-.131 1.855.3 2.196.608.48 3.653.479 3.144-1.048-.045-.894-1.097-1.02-.698-2.196.813-.27 1.765-.149 2.695-.149 2.674 0 5.729-.082 8.284.1.271 2.733.444 5.491-2.145 5.789-1.766.203-3.537 0-5.341 0-3.198 0-7.121.001-10.581 0-1.781 0-4.584.23-5.391-.499-1.122-1.016-.693-3.477-.748-5.739-.067-2.806-.123-4.715 2.445-4.941 2.258-.198 5.104.201 7.188-.049 1.129-.137 2.486.05 3.843.049 1.191 0 2.485.001 3.843 0 2.296 0 5.949-.48 6.738.999.371.699.281 2.106.147 2.944z"/><path d="m39.55 23.677c.292 1.138-.111 2.973.249 4.043.947.268 2.718.186 3.744.049.419-1.092-.031-2.797.299-4.092 2.744-.137 5.738-.149 8.535-.15.901 0 1.832-.114 2.645.15.139 3.456.285 7.525 0 10.93-1.773.182-3.745.1-5.689.1-1.897 0-3.861.217-5.54-.1-.299-1.176.125-2.787-.2-3.893-.959-.268-2.753-.19-3.793-.05-.303 1.11.129 2.956-.249 3.992-3.259.184-7.386.111-10.88.05-.271-1.351-.05-2.959-.051-4.491 0-2.208-.185-4.481.051-6.538 2.979-.15 6.645-.119 9.682-.15.404-.004.837.019 1.197.15z"/><path d="m15.145 36.254c.285 1.361-.084 3.378.199 4.741 1.062.269 2.159.149 3.244.149 16.568-.003 33.328.267 49.909-.1.401-1.279-.07-3.431.249-4.791 1.709-.196 3.967-.119 5.641.05.109 1.474.1 3.217.1 4.94 0 1.734.119 3.507-.15 4.991-20.352.268-40.272.052-60.639.05-.679 0-1.357.011-2.047 0-.596-.009-1.271.036-1.846-.199-.211-1.825-.053-5.23-.1-7.637-.014-.674-.182-2.187.349-2.295 1.435-.293 3.546.098 5.091.101z"/></g></svg>