<svg enable-background="new 0 0 75.867 76.011" viewBox="0 0 75.867 76.011" xmlns="http://www.w3.org/2000/svg"><g clip-rule="evenodd" fill-rule="evenodd"><path d="m40.969.23c.062.404-.479.602-.717.861-2.035 1.777-4.101 3.521-6.123 5.311-2.356 1.996-4.659 4.047-7.032 6.027-2.331 2.037-4.665 4.07-6.983 6.121-1.75 1.463-3.409 3.025-5.214 4.594-.989.859-2.538 2.195-1.626 4.16.469 1.014 1.628 1.98 2.487 2.822 5.793 5.678 11.713 11.187 17.412 16.887.432.432 1.018.791 1.244 1.387-4.835.293-10.396.076-15.594.142-3.474-2.979-6.581-6.531-10.141-10.092-1.237-1.238-2.552-2.504-3.827-3.779-.414-.414-.748-.885-1.148-1.34-.755-.861-1.712-1.623-2.392-2.678-.962-1.494-1.428-3.215-1.291-5.502.099-1.668 1.066-3.223 1.913-4.305.939-1.199 1.979-2.203 3.061-3.156 2.054-2.076 4.208-4.051 6.458-5.932 3.618-3.101 7.721-6.863 11.528-10.236.5-.443 1.325-1.342 1.865-1.436 1.225-.213 2.808.027 4.066.047 3.971.066 8.131-.186 12.054.097z"/><path d="m46.805 61.218c-.256 1.131-.144 2.383-.144 3.637 0 3.631.087 7.67-.096 11.049-3.498.17-7.664.139-11.098-.096-.219-8.863-.119-17.693-.048-26.164 5.37-.156 10.68-.049 16.168-.049 1.431 0 2.838.094 4.114 0 3.629-.264 6.032-2.207 7.558-4.783 1.115-1.881 1.454-4.543.909-6.793-.782-3.229-2.941-5.428-5.836-6.506-1.057-.392-2.121-.506-3.539-.572-2.508-.119-5.192-.059-7.893.047-.254 1.363-.144 2.84-.144 4.305 0 4.316.079 8.998-.096 13.203-3.556.188-7.701.121-11.241-.049-.286-5.342.095-11.35-.191-16.693-.946-.332-2.058-.191-3.157-.191-2.158 0-4.41-.039-6.601 0-1.088.019-2.182.199-3.157-.096-.182-2.625-.096-5.664-.096-8.609 0-.766-.195-2.564.287-2.68.527-.125 1.437-.047 2.152-.047 4.269 0 9.022.066 13.394.047 5.153-.023 10.346.148 15.068 0 5.229-.164 9.29.873 12.628 2.871 4.834 2.893 8.297 7.32 9.662 13.537 1.621 7.377-1.324 13.732-4.735 17.602-2.391 2.711-5.544 4.832-9.423 6.027-2.017.621-4.284.91-6.84.908-2.457 0-5.027-.079-7.605.095z"/></g></svg>