<svg enable-background="new 0 0 65.307 77.568" viewBox="0 0 65.307 77.568" xmlns="http://www.w3.org/2000/svg"><path clip-rule="evenodd" d="m35.69 43.341c.719-.177.877-.955 1.155-1.444.913-1.604 2.18-2.969 3.516-4.238 3.536-3.357 8.356-5.151 14.977-5.73 2.247-.196 4.818-.407 7.368-.434.893-.009 1.934-.158 2.264.192.342.364.275 2.65.289 3.226.03 1.264.048 2.347.048 3.419.001 4.546.012 9.022-.674 13.003-.698 4.054-1.684 7.44-3.323 10.546-.795 1.507-1.708 3.05-2.696 4.238-2.19 2.631-4.559 4.763-7.368 6.501-2.79 1.728-6.065 3.348-9.776 4.094-5.541 1.113-13.325 1.289-18.588-.386-12.165-3.87-20.281-12.293-22.203-26.341-1.135-8.302-.807-17.97.675-25.619 1.487-7.684 4.993-13.541 10.257-17.481 4.086-3.059 8.548-5.1 14.544-6.26 5.566-1.078 12.862-.717 17.818.722 3.207.931 6.206 2.401 8.571 4.142 2.292 1.687 4.505 3.924 6.261 6.501 1.232 1.81 2.392 3.903 3.371 6.164.256.592.972 1.872.674 2.312-.269.396-2.007.209-2.938.241-7.11.246-13.745 1.052-18.011 4.094-2.429 1.731-4.511 4.162-5.394 7.224-.811 2.811-1.065 6.432-1.011 9.968.008.427-.126.968.194 1.346zm-10.979 19.841c-.095-3.395 0-6.931 0-10.45 0-9.507-.382-19.076 2.455-25.619 1.451-3.347 3.362-5.881 6.116-7.946 3.087-2.368 7.201-3.77 12.039-4.334.702-.082 1.559-.005 1.927-.434.065-.596-.598-.879-1.012-1.156-2.173-1.745-5.398-2.813-8.86-3.226-3.804-.453-8.027-.214-11.269.674-2.687.735-5.069 1.964-6.839 3.516-2.636 2.312-4.275 5.304-5.345 9.198-1.206 5.704-1.396 12.752-1.397 19.696-.001 6.865.923 13.349 3.853 17.288 1.406 2.08 3.215 3.862 5.442 5.104.748.417 1.604 1 2.601.866.474-.935.318-2.113.289-3.177zm26.534-19.744c-6.887 1.184-12.15 4.755-14.303 10.787-.906 2.668-.771 6.466-.77 10.017 0 1.183-.148 2.412.192 3.419.784.334 1.656-.031 2.408-.24 5.124-1.429 9.412-4.788 11.558-9.054 1.419-2.822 2.166-6.563 2.167-10.836 0-1.355.134-2.828-.337-3.997-.26-.202-.67-.139-.915-.096z" fill-rule="evenodd"/></svg>