<svg enable-background="new 0 0 75.968 75.471" viewBox="0 0 75.968 75.471" xmlns="http://www.w3.org/2000/svg"><path clip-rule="evenodd" d="m43.001 12.703c-3.089-.465-6.216-.666-9.039-.189-8.386 1.416-13.901 5.699-17.746 11.547-2.577 3.92-4.313 9.211-3.88 15.475.413 5.994 2.739 10.234 5.489 14.008 3.192 3.934 7.516 7.086 13.298 8.707 1.924.541 4.057.996 6.294.994 9.394-.002 15.551-3.908 20.113-9.086 2.825-3.611 5.346-7.777 5.726-13.676-.077-.426-1.638-.285-2.556-.285-2.638 0-5.438 0-7.95 0-2.612 0-5.013 0-7.666 0-.903 0-2.18.15-2.65-.141-.476-.295-.955-2.346-1.183-2.982-.609-1.695-1.213-2.963-1.704-4.543-.5-1.611-.843-3.217-1.704-4.496-1.65-.361-3.803.608-4.827 1.184-2.561 1.441-4.284 3.695-4.827 7.051-.289 1.789.005 3.627.615 5.111 1.1 2.676 3.471 4.789 6.247 5.633 3.209.975 7.254.303 9.039-1.799.093-.73-.496-1.156-.236-1.752 4.251-.145 9.423-.111 13.676-.141.595-.006 1.273-.127 1.751.236-.086 1.074-.519 2.119-.947 3.076-2.858 6.398-8.316 11.217-15.9 12.871-5.09 1.111-10.104.01-13.818-1.656-3.818-1.711-6.709-4.297-8.944-7.477-1.13-1.598-2.172-3.379-2.839-5.394-.683-2.062-1.231-4.315-1.231-6.957 0-5.287 1.552-9.41 3.739-12.684 2.059-3.082 5.195-5.883 8.802-7.619 2.992-1.439 7.42-2.619 12.067-2.033.55.068 1.165.1 1.609.426-.043.99-.478 1.916-.805 2.838-.637 1.803-1.292 3.631-1.798 5.584-.245.945-.736 1.832-.757 2.84.645.356 1.412.156 2.129.19 2.076.094 4.438.047 6.72.047 4.648.002 8.978-.133 13.582-.047 4.41.082 8.83-.104 13.298.096.076-.014.082.045.142.047.856 1.766 1.07 3.938 1.372 6.104.645 4.627.038 9.58-.946 13.441-.506 1.982-1.272 3.756-1.94 5.488-1.329 3.453-3.426 6.439-5.631 9.229-1.068 1.352-2.349 2.623-3.644 3.785-1.327 1.191-2.778 2.324-4.211 3.219-3.027 1.891-6.266 3.695-10.033 4.826-3.809 1.145-8.25 1.791-13.108 1.656-2.245-.061-4.472-.457-6.483-.945-6.041-1.465-11.091-3.666-15.238-7.051-5.67-4.295-9.787-9.937-12.446-17.273-1.672-4.606-2.379-10.51-1.849-16.378.1-1.104.334-2.184.426-3.264.18-2.102.922-4.127 1.562-5.869 3.886-10.576 11.624-18.339 22.242-22.335 3.668-1.381 7.597-2.09 12.541-2.32 2.472-.113 5.595.287 7.856.758.767.16 1.667.119 2.129.711-.033 1.01-.532 1.934-.852 2.887-.625 1.861-1.357 3.728-1.987 5.631-.309.928-.452 1.954-1.089 2.696z" fill-rule="evenodd"/></svg>