<svg enable-background="new 0 0 48.768 81.178" viewBox="0 0 48.768 81.178" xmlns="http://www.w3.org/2000/svg"><path clip-rule="evenodd" d="m30.911 10.905c.639.305 1.312.247 1.915.402 1.65.428 3.096 1.469 4.131 2.671 1.345 1.562 2.311 4.257 1.663 7.003-.504 2.136-1.646 3.599-3.174 4.736-.49.365-1.074.601-1.562 1.059.435.374.879.322 1.31.503 2.272.958 3.708 3.26 3.477 6.047-.172 2.063-1.438 3.369-2.721 4.483.542.292 1.102.24 1.613.354 3.751.831 7.26 5.099 5.895 10.127-.377 1.391-1.315 2.844-2.317 3.778-.742.692-1.353 1.086-2.217 1.663.301.378.91.308 1.259.453 2.081.864 3.669 3.153 3.477 5.845-.165 2.3-1.304 3.488-2.721 4.736.714.263 1.418.311 2.066.504 1.915.569 3.403 1.67 4.434 3.225 1.356 2.045 1.875 5.418.604 8.062-1.072 2.23-3.042 3.837-5.794 4.434-1.403.304-3.183.15-4.938.151-1.674 0-3.369.011-4.887-.101-.268-.895-.151-1.877-.151-2.821 0-3.883-.021-8.033-.101-11.739-.512.096-.762.882-1.159 1.26-1.235 1.199-2.96 2.486-5.34 2.67-1.505.116-3.16 0-4.736 0-1.559 0-3.112.121-4.535-.15-.274-4.884.07-10.595-.202-15.317-.532.378-.783.982-1.159 1.461-1.094 1.396-2.647 2.595-4.786 3.023-1.53.308-3.307.184-5.039.201-1.676.018-3.406-.036-5.039-.15-.268-1.064-.151-2.207-.151-3.326-.001-6.773 0-13.798 0-20.657 0-1.098-.133-2.216.202-3.225 1.012-.104 2.096-.05 3.224-.05 2.377-.001 4.314-.003 5.693.957.678.472 1.086 1.156 1.713 1.612.248-.631.179-1.363.202-2.065.123-3.795 0-7.898 0-11.79 0-1.569-.121-3.116.151-4.535 1.471-.267 3.223-.15 4.787-.15 1.377 0 2.541.107 3.527.604 1.084.547 1.57 1.309 2.418 1.965.185-5.212.151-10.996.151-16.576 0-.921-.223-2.079.504-2.167 1.342-.162 2.86 0 4.182 0 1.468 0 2.589.055 3.627.555 2.016.97 3.539 2.953 3.225 5.794-.237 2.138-1.311 3.241-2.721 4.481zm-8.918 14.258c-.051.001-.06-.04-.101-.05-.666.694-1.356 1.365-2.066 2.016.616.257 1.483.263 2.217.402 1.392.561 2.587 1.221 3.527 2.218.514.544.783 1.268 1.411 1.713.271-1.049.186-2.901.051-4.031-1.33-.354-3.505-.001-4.837-.201-.314-.442-.036-1.477-.202-2.067zm5.039 14.26c-.064-.003-.07-.065-.151-.051 0 .066-.088.046-.101.101-.577.75-1.13 1.523-1.814 2.166-.596.53-1.475.776-1.965 1.411.851.296 1.606.474 2.267.907.647.424 1.082 1.052 1.764 1.41.083-1.865.083-4.079 0-5.944zm-16.274 1.712c-.301.388-.614.764-.957 1.108-.27.352-.816.426-.907.957.623.118 1.458.285 2.066.252.061-.651.137-1.746-.05-2.317-.051 0-.102 0-.152 0zm.957 2.469c-.048.293.334.411.504.504 1.223.664 2.262 1.452 3.023 2.519.306.428.46.984.957 1.26.099-1.272.15-2.983-.05-4.232-1.27-.196-3.082-.104-4.434-.051zm15.216 8.716c-.556.603-1.268 1.05-1.763 1.713.672.168 1.399.28 2.167.353.954.474 1.9.955 2.721 1.562.806.638 1.317 1.571 2.065 2.268.285-1.137.148-2.733 0-3.88-1.399-.206-3.3-.089-4.786-.051-.415-.324-.036-1.442-.302-1.914-.052 0-.061-.041-.102-.051z" fill-rule="evenodd"/></svg>