<svg enable-background="new 0 0 14.458 16.544" viewBox="0 0 14.458 16.544" xmlns="http://www.w3.org/2000/svg"><path d="m.004 0c1.625.003 3.251 0 4.876.002.004 3.088.001 6.176.002 9.265-.018.542.122 1.104.456 1.539.538.748 1.552 1.112 2.444.877.913-.215 1.667-1.028 1.755-1.97.004-1.628-.004-3.257.004-4.885-.77.009-1.54 0-2.31.005-.007-1.61.003-3.22-.005-4.83 2.41 0 4.819-.004 7.228.002.007 2.955.001 5.91.003 8.865-.038.398-.005.799-.043 1.196-.141 1.778-1.011 3.483-2.35 4.657-1.118.993-2.549 1.629-4.038 1.78-.396.063-.797.033-1.195.038-1.658-.084-3.287-.751-4.512-1.873-.246-.256-.518-.489-.732-.774-1.057-1.27-1.628-2.932-1.584-4.582.001-3.105-.002-6.208.001-9.312z"/></svg>