<svg enable-background="new 0 0 13.908 13.074" viewBox="0 0 13.908 13.074" xmlns="http://www.w3.org/2000/svg"><path d="m4.587.194c.562-.13 1.14-.202 1.718-.193.775-.009 1.565.094 2.279.407.462.168.88.439 1.261.747.507.425.905.978 1.15 1.592.275.705.329 1.478.247 2.225-.022.561-.101 1.127-.009 1.686.074.327.144.677.379.932.181.218.474.316.751.296.289-.018.594-.067.87.053.288.143.505.424.562.742.089.339.004.707-.175 1.002-.118.203-.321.33-.492.483.185.085.382.16.527.31.227.291.31.686.217 1.044-.097.376-.384.684-.724.861-.568.32-1.227.472-1.877.453-.598-.002-1.205-.128-1.725-.432-.381-.183-.721-.444-.998-.763-.028-.043-.079-.045-.124-.055-.534.65-1.278 1.123-2.091 1.337-.477.134-.979.167-1.473.149-.596-.051-1.195-.158-1.749-.394-.638-.279-1.229-.673-1.708-1.181-.288-.331-.571-.673-.758-1.073-.318-.563-.499-1.19-.595-1.826-.116-.84-.022-1.704.214-2.516.201-.64.509-1.253.961-1.753.307-.385.699-.691 1.099-.973.136-.085.277-.163.412-.249-.125-.12-.302-.173-.415-.308-.164-.205-.246-.482-.197-.742.045-.232.124-.459.255-.656.201-.267.447-.506.744-.665.452-.264.96-.41 1.464-.54zm1.064.961c-.625.071-1.249.2-1.824.46-.192.1-.404.234-.457.46-.079.203.126.417.328.416.361.007.683-.186 1.031-.25.699-.208 1.439-.287 2.164-.203.656.073 1.329.282 1.818.742.493.442.783 1.109.727 1.772-.041.33-.24.648-.545.794-.237.1-.501.036-.736-.037-.239-.086-.483-.154-.727-.224-.627-.154-1.29-.166-1.921-.03-.282.079-.571.151-.824.303-.344.179-.69.379-.932.69-.423.466-.717 1.07-.722 1.708-.027.677.242 1.367.74 1.83.308.285.703.457 1.109.548.413.087.851.011 1.222-.187.321-.204.598-.497.723-.862.033-.112.038-.244-.031-.343-.07-.139-.263-.195-.398-.119-.143.077-.223.224-.325.344-.218.272-.578.438-.928.38-.348-.028-.678-.21-.897-.481-.239-.288-.327-.674-.327-1.041.02-.396.17-.783.407-1.099.543-.704 1.456-1.06 2.331-1.027.87.01 1.784.323 2.344 1.016.239.281.396.622.51.97.103.334.216.665.347.99.12.222.259.437.437.619.358.301.821.495 1.294.467.319-.019.667-.056.92-.273.11-.092.199-.251.137-.394-.062-.221-.333-.275-.532-.243-.392.082-.828.025-1.147-.232-.413-.332-.627-.843-.775-1.338-.066-.331-.131-.667-.123-1.006-.009-.327.026-.653.045-.979.074-.578.107-1.173-.029-1.745-.136-.494-.386-.96-.744-1.331-.188-.178-.389-.344-.606-.485-.917-.558-2.032-.69-3.084-.58zm-.464 2.031c-.351.097-.713.17-1.039.337-.43.163-.827.402-1.207.658-.245.197-.504.385-.695.64-.532.565-.873 1.286-1.06 2.034-.2 1.005-.09 2.083.377 3.002.222.405.486.794.841 1.094.156.165.343.296.535.417.596.384 1.29.614 1.996.674.566.015 1.146-.056 1.666-.292.095-.043.172-.117.268-.157.354-.179.635-.464.907-.745.126-.171.26-.338.352-.531.117-.184.167-.399.263-.592.035.059.067.12.093.183.118.285.306.532.494.773.235.287.545.497.858.691.174.095.362.159.545.232.592.166 1.229.163 1.823.005.132-.045.262-.104.376-.184.119-.097.197-.274.126-.421-.044-.12-.161-.197-.283-.216-.199-.025-.4-.002-.598.024-.286.05-.58.054-.868.024-.928-.144-1.7-.852-2.046-1.708-.194-.415-.274-.874-.474-1.288-.254-.551-.779-.973-1.375-1.088-.306-.045-.623-.055-.925.021-.434.137-.839.402-1.083.792-.09.163-.133.368-.053.543.06.101.165.179.283.196.17-.016.27-.167.37-.286.17-.188.377-.354.621-.433.31-.097.655-.046.938.107.247.168.454.402.542.691.189.586.021 1.235-.325 1.728-.328.481-.829.831-1.379 1.011-1.114.306-2.38-.048-3.177-.884-.248-.278-.46-.59-.624-.924-.381-.885-.424-1.926-.064-2.826.049-.172.138-.326.225-.48.173-.268.353-.532.576-.762.1-.101.215-.184.318-.281.376-.321.82-.55 1.279-.728.628-.227 1.298-.372 1.969-.313.477.023.945.146 1.383.336.123.052.29.108.397-.003.107-.157.049-.369-.065-.505-.184-.216-.438-.364-.701-.46-.754-.304-1.597-.267-2.38-.106z"/></svg>