<svg enable-background="new 0 0 78.36 37.974" viewBox="0 0 78.36 37.974" xmlns="http://www.w3.org/2000/svg"><path clip-rule="evenodd" d="m43.543.098c.167.92.161 2.017.146 3.07-.015 1.029.118 2.119-.146 2.973-12.103.213-24.693-.014-36.991.146-.287.889-.166 1.877-.147 2.875.055 2.932-.108 6.144.049 9.113 1.169.34 2.441.195 3.704.195 8.876.002 18.279.197 27-.098.349-.658.219-2.26.098-3.07-.965-.264-2.132-.146-3.314-.146-5.596 0-11.53.049-17.155.049-2.299.002-4.563.107-6.726-.195-.205-1.68-.216-3.936-.048-5.848.639-.219 1.331-.098 1.998-.098 21.725.002 44.196-.127 66.234.049.19 1.793.101 4.123.049 5.994-1.324.35-2.761.195-4.191.195-10.188.002-20.5-.068-30.266.147-.252.748-.188 2.246-.049 3.07 11.491.262 22.817-.109 34.457.146.191 1.824.1 4.188.049 6.092-.044.021-.087.043-.098.098-11.268.25-22.85-.07-34.359.195-.338.904-.195 2.014-.195 3.07 0 3.152.079 6.685-.098 9.699-.849.164-1.933.162-2.973.146-1.056-.018-2.136-.012-3.07-.146-.214-.941-.181-2.004-.146-3.07.094-3.01.01-6.555-.098-9.602-.711-.264-1.497-.146-2.242-.146-2.302 0-4.699 0-7.066 0-7.716 0-15.334-.051-23.297-.049-1.511 0-3.058.117-4.532-.147-.172-7.584-.1-15.512-.1-23.489 0-.433-.125-.992.244-1.316 14.384.033 28.826-.037 43.279.098z" fill-rule="evenodd"/></svg>