<svg enable-background="new 0 0 69.085 70.782" viewBox="0 0 69.085 70.782" xmlns="http://www.w3.org/2000/svg"><path clip-rule="evenodd" d="m34.615.066c.068 7.058.24 14.339.096 21.566-.008.403-.135.797-.144 1.201-.024 1.032.117 2.068.096 3.122-.042 2.125-.028 4.271.048 6.292.04 1.05-.215 2.123.096 3.122 11.203.296 22.945-.025 34.246.24.207 4.183-.597 7.88-1.729 11.095-3.35 9.517-9.49 16.722-18.155 20.797-2.938 1.381-6.218 2.551-9.942 3.074-2.036.286-4.066.192-6.1.192-1.968 0-3.909-.263-5.812-.672-6.891-1.485-12.323-4.866-16.811-9.126-2.248-2.133-3.922-4.696-5.571-7.445-1.665-2.775-2.93-5.812-3.843-9.125-2.035-7.392-1.017-16.214 1.393-22.238.628-1.57 1.373-3.009 2.113-4.419.735-1.4 1.736-2.591 2.546-3.938.78-1.298 1.872-2.4 2.978-3.506 1.107-1.107 2.207-2.185 3.362-3.122 1.166-.944 2.559-1.735 3.939-2.545 2.734-1.606 5.753-2.907 9.222-3.747 2.398-.582 5.056-1.064 7.972-.818z" fill-rule="evenodd"/></svg>