<svg enable-background="new 0 0 40.165 74.798" viewBox="0 0 40.165 74.798" xmlns="http://www.w3.org/2000/svg"><g clip-rule="evenodd" fill-rule="evenodd"><path d="m33.645.061c.106-.12.435-.019.628-.052.904.233 1.269 1.82.523 2.513-1.39 1.226-3.079-.875-1.885-2.094.234-.134.403-.331.734-.367z"/><path d="m36.838.899c.617.227.39 1.501-.472 1.099-.153-.178-.251-.411-.209-.785.163-.169.3-.364.681-.314z"/><path d="m37.99 4.72c-.262.48-.438.834-.837.995-1.24.499-2.228-.929-1.571-2.199.575-1.111 2.826-.487 2.408 1.204z"/><path d="m30.608 3.254c2.002-.334 2.013 2.876.157 2.828-1.522-.041-1.778-2.556-.157-2.828z"/><path d="m33.592 3.569c1.384-.448 1.471 1.789.262 1.78-.987.1-1.125-1.626-.262-1.78z"/><path d="m18.828 6.291c1.769-.111 1.807 2.628.21 2.775-1.688.154-2.118-2.655-.21-2.775z"/><path d="m36.524 6.657c1.31-.226 1.167 1.787.105 1.78-.956-.006-1.185-1.594-.105-1.78z"/><path d="m21.917 8.49c-1.255-.022-.968-1.806-.052-1.832.941-.028 1.299 1.744.052 1.832z"/><path d="m30.556 6.71c1.465-.22 1.334 1.984.104 1.833-.752-.094-1.07-1.569-.104-1.833z"/><path d="m33.592 6.71c.729-.187 1.161.374 1.047 1.204-.188.736-1.487.736-1.675 0 0-.21 0-.419 0-.628.167-.235.294-.509.628-.576z"/><path d="m24.902 8.123c-1.693.011.163-1.959.366-.681.059.374-.145.489-.366.681z"/><path d="m12.703 7.181c.865-.357.955.937.366 1.047-.585.11-.998-.786-.366-1.047z"/><path d="m16.001 7.495c.042.484-.08.731-.366.786-1.189.227-.398-1.938.366-.786z"/><path d="m33.33 11.788c-1.698-.745-.211-3.734 1.414-2.513 1.102.829.414 3.124-1.414 2.513z"/><path d="m27.519 9.38c2.094-.394 2.069 2.934.157 2.827-1.457-.082-1.73-2.531-.157-2.827z"/><path d="m9.666 9.432c2.341-.488 2.121 3.057.105 2.67-1.111-.213-1.554-2.298-.105-2.67z"/><path d="m15.95 11.526c-1.597-.111-.721-2.433.471-1.675.488.311.476 1.692-.471 1.675z"/><path d="m21.708 9.851c1.301-.246 1.241 1.93 0 1.78-.92-.111-.878-1.614 0-1.78z"/><path d="m12.598 9.955c1.402-.306 1.403 1.777.314 1.833-.972.05-1.405-1.531-.314-1.833z"/><path d="m24.692 10.27c.826-.185.772 1.16.053 1.1-.547-.047-.671-.962-.053-1.1z"/><path d="m24.483 12.207c.91-.247 1.472.308 1.727.89.329 2.743-3.303 2.067-2.461-.209.126-.341.321-.536.734-.681z"/><path d="m30.556 12.207c1.407-.284 2.035 1.065 1.518 2.042-.649 1.227-2.534.671-2.565-.68-.016-.679.429-1.191 1.047-1.362z"/><path d="m12.651 12.26c1.918-.304 1.848 2.75.262 2.827-1.638.079-1.956-2.56-.262-2.827z"/><path d="m27.519 14.458c-1.494-.648.328-2.894 1.1-1.205.066.835-.262 1.275-1.1 1.205z"/><path d="m7.521 12.992c.408.47.245 1.33-.314 1.519-1.836.291-1.002-2.585.314-1.519z"/><path d="m9.824 12.835c1.231-.2 1.193 1.872 0 1.728-.876-.106-.968-1.571 0-1.728z"/><path d="m9.615 15.453c2.139-.418 2.085 3.013.104 2.774-.602-.072-.89-.528-1.151-1.047-.085-1.009.354-1.495 1.047-1.727z"/><path d="m27.519 17.442c-.841-.267-.754-2.009.472-1.78.845.234.782 2.056-.472 1.78z"/><path d="m30.608 15.767c1.453-.273 1.335 1.926.105 1.78-.784-.093-.969-1.538-.105-1.78z"/><path d="m6.735 15.872c1.236-.278 1.209 1.682.262 1.78-1.038.107-1.281-1.552-.262-1.78z"/><path d="m12.703 16.186c.892-.285.861 1.152.157 1.151-.626 0-.75-.962-.157-1.151z"/><path d="m24.692 16.186c.976-.314.801 1.203 0 1.047-.446-.087-.495-.888 0-1.047z"/><path d="m33.958 17.285c-.34-.1-.567-.249-.575-.576-.037-1.267 1.75-.166.837.471-.059.041-.172-.001-.262.105z"/><path d="m4.326 16.238c.492.343.215 1.415-.575 1.047-.423-.379-.099-1.324.575-1.047z"/><path d="m12.703 18.227c1.86-.368 2.013 2.951.104 2.827-1.569-.041-1.617-2.68-.104-2.827z"/><path d="m3.803 18.332c2.001-.297 1.848 2.827.209 2.827-1.687 0-1.825-2.587-.209-2.827z"/><path d="m27.676 18.698c1.304-.318 1.246 1.704.21 1.728-.978.022-1.125-1.504-.21-1.728z"/><path d="m30.869 18.698c1.06-.133 1.135 1.619.21 1.78-1.082.189-1.393-1.63-.21-1.78z"/><path d="m24.535 18.751c.649-.174 1.087.31 1.099.838.034 1.458-2.117 1.033-1.675-.314.073-.221.255-.37.576-.524z"/><path d="m34.168 20.479c-.766.06-1.165-.344-1.1-.995.111-1.11 1.727-.966 1.676.157-.019.411-.209.581-.576.838z"/><path d="m7.154 20.217c-.524.12-.735-.341-.681-.681.183-1.137 1.764.223.681.681z"/><path d="m10.661 19.484c.224 1.016-1.273 1.015-1.047 0 .177-.442.856-.422 1.047 0z"/><path d="m33.645 24.039c-1.529-.404-1.166-2.673.157-2.827 1.703-.199 2.073 3.1-.157 2.827z"/><path d="m25.687 22.311c.277 1.465-1.483 1.475-1.623.471-.143-1.016 1.192-1.435 1.623-.471z"/><path d="m9.981 21.84c1.229-.183 1.065 1.71.104 1.728-.865.016-1.235-1.56-.104-1.728z"/><path d="m12.703 21.84c1.375-.291 1.342 1.741.262 1.78-.924.033-1.261-1.483-.262-1.78z"/><path d="m4.065 21.945c1.281-.208 1.181 1.942-.053 1.728-.829-.145-.879-1.577.053-1.728z"/><path d="m28.148 23.201c-.138.054-.321.063-.523.053-.198-.168-.376-.307-.367-.576.035-1.015 1.743-.353.89.523z"/><path d="m30.66 22.206c.896-.286.803.961.262 1.047-.47.075-1.019-.805-.262-1.047z"/><path d="m6.526 22.573c.657-1.143 1.543.793.471.785-.377-.003-.514-.263-.471-.785z"/><path d="m5.217 24.719c.629.896.164 2.27-.785 2.409-1.982.288-1.976-2.784-.367-2.88.514-.03.729.222 1.152.471z"/><path d="m33.802 24.772c1.166-.221 1.242 1.568.314 1.728-1.01.173-1.438-1.516-.314-1.728z"/><path d="m12.808 24.824c1.352-.285 1.307 1.952.053 1.78-.764-.105-1.049-1.57-.053-1.78z"/><path d="m24.64 24.824c1.183-.412 1.412 1.467.523 1.727-1.193.297-1.464-1.527-.523-1.727z"/><path d="m6.892 24.876c1.057-.379 1.347 1.49.472 1.727-1.308.282-1.466-1.54-.472-1.727z"/><path d="m30.137 25.4c.727-1.567 2.58.455 1.1 1.152-.175 0-.35 0-.524 0-.375-.202-.661-.492-.576-1.152z"/><path d="m9.772 26.238c-.861-.676.815-1.734.89-.576.025.385-.375.804-.89.576z"/><path d="m27.676 25.191c.898-.338.906 1.092.21 1.099-.584.006-.76-.893-.21-1.099z"/><path d="m33.802 27.284c1.853-.272 1.847 2.726.262 2.775-1.64.051-1.876-2.537-.262-2.775z"/><path d="m24.587 30.059c-.428-.183-.652-.569-.838-.995-.188-1.334.772-2.083 1.729-1.675 1.281.547 1.045 2.999-.891 2.67z"/><path d="m6.84 27.808c.685-.153 1.076.337 1.047.943-.051 1.015-1.593 1.044-1.728.105-.09-.624.23-.947.681-1.048z"/><path d="m27.729 27.808c1.348-.363 1.221 1.671.262 1.728-.981.057-1.145-1.49-.262-1.728z"/><path d="m12.703 29.64c-.543-.344-.755-.725-.524-1.309.334-.846 1.578-.421 1.623.366.028.497-.364 1.069-1.099.943z"/><path d="m3.856 27.965c.768-.217 1.133.375 1.151.786.052 1.149-1.747 1.268-1.675-.053.019-.339.217-.574.524-.733z"/><path d="m31.446 28.384c.09 1.101-1.149.866-1.047.104.069-.52.813-.628 1.047-.104z"/><path d="m10.452 28.28c.713.917-.815 1.483-.838.523-.008-.389.328-.707.838-.523z"/><path d="m12.808 30.426c.941-.243 1.396.455 1.675 1.047.352 2.541-3.352 1.957-2.67-.157.133-.411.516-.713.995-.89z"/><path d="m6.84 30.844c1.35-.271 1.203 1.78.156 1.78-.952.001-1.142-1.581-.156-1.78z"/><path d="m30.818 30.844c1.28-.254 1.274 1.921.052 1.78-.857-.098-.995-1.592-.052-1.78z"/><path d="m24.64 30.897c1.344-.277 1.376 1.755.262 1.78-.905.02-1.183-1.452-.262-1.78z"/><path d="m28.514 31.159c.936 1.424-1.841 2.2-1.466.262.169-.576 1.068-.751 1.466-.262z"/><path d="m9.929 30.949c1.367-.341 1.397 1.698.313 1.728-.904.024-1.231-1.392-.313-1.728z"/><path d="m33.802 31.106c.833-.25.8 1.012.262 1.1-.572.093-.948-.893-.262-1.1z"/><path d="m4.012 31.263c.805-.203.748 1.1.105 1.1-.585 0-.748-.937-.105-1.1z"/><path d="m24.692 33.41c2.156-.351 2.006 2.8.314 2.827-1.432.023-1.759-2.505-.314-2.827z"/><path d="m6.683 33.514c1.834-.393 2.235 2.636.471 2.775-1.633.129-1.991-2.449-.471-2.775z"/><path d="m27.572 33.986c.072-.119.364-.019.524-.052.769.289.746 2.124-.524 1.833-.682-.236-.763-1.571 0-1.781z"/><path d="m12.861 34.09c.334-.176.677.09.89.21.387.703.07 1.729-.942 1.518-.666-.147-.753-1.664.052-1.728z"/><path d="m30.765 34.09c1.502-.348 1.335 1.728.262 1.728-.838 0-1.209-1.423-.262-1.728z"/><path d="m10.033 35.399c-.916-.419.209-1.817.68-.837.054.559-.091.92-.68.837z"/><path d="m29.09 38.174c-.506 1.643-2.803 1.047-2.618-.628.179-1.618 2.979-1.472 2.618.628z"/><path d="m11.447 37.493c.038 1.073-.427 1.807-1.361 1.78-1.839-.054-1.601-2.819.053-2.827.701-.003 1.003.446 1.308 1.047z"/><path d="m17.415 38.174c-.253.523-.591 1-1.204 1.047-1.771.136-1.957-2.64-.262-2.774.831-.067 1.537.519 1.466 1.727z"/><path d="m12.284 38.069c-.171-1.646 1.774-1.325 1.728-.209-.037.886-1.394 1.106-1.728.209z"/><path d="m25.844 37.493c.348 1.484-1.982 1.519-1.623 0 .211-.721 1.407-.712 1.623 0z"/><path d="m21.97 37.022c1.286-.133 1.017 2.164-.262 1.675-.68-.26-.661-1.579.262-1.675z"/><path d="m18.828 39.483c1.925-.355 2.064 2.663.262 2.67-1.548.006-1.849-2.377-.262-2.67z"/><path d="m6.84 39.64c1.777-.233 1.986 2.455.418 2.67-1.625.223-2.24-2.431-.418-2.67z"/><path d="m12.965 40.373c.8-.245.746 1.033.157 1.047-.569.014-.707-.879-.157-1.047z"/><path d="m22.441 40.426c.608.774-.744 1.328-.89.523-.082-.454.365-.831.89-.523z"/><path d="m24.64 40.373c.521-.194.717.215.732.419.096 1.235-1.821.154-.732-.419z"/><path d="m4.117 40.426c.335-.075.619.022.628.471.014.667-.938.709-1.047.157-.059-.302.011-.537.419-.628z"/><path d="m15.582 40.687c.258-.502 1.009-.319 1.048.157.056.684-1.196.894-1.048-.157z"/><path d="m4.169 42.363c1.722-.206 1.986 2.755.106 2.774-1.654.018-1.825-2.569-.106-2.774z"/><path d="m7.311 42.886c.343.228.618.45.628.89.023.967-1.345 1.142-1.675.262-.065-.799.247-1.219 1.047-1.152z"/><path d="m.976 43.252c.233-.161.45.142.576.262.154 1.648-1.728.236-.576-.262z"/><path d="m9.876 45.346c1.944-.334 2.059 2.691.262 2.723-1.571.027-1.884-2.444-.262-2.723z"/><path d="m24.587 45.451c2.129-.504 2.023 2.696.419 2.722-1.349.023-1.749-2.322-.419-2.722z"/><path d="m32.441 46.446c.065 1.252-.513 1.861-1.78 1.78-.59-.308-1.036-.802-.942-1.57.175-1.439 2.346-1.604 2.722-.21z"/><path d="m14.012 46.446c.25 1.595-1.779 1.435-1.675.262.074-.84 1.335-1.132 1.675-.262z"/><path d="m15.321 47.074c-.412-1.893 2.428-1.22 1.518.262-.282.459-1.362.399-1.518-.262z"/><path d="m34.796 46.498c.064.814-.252 1.249-1.1 1.152-1.496-.739.47-2.763 1.1-1.152z"/><path d="m.976 45.975c1.322-.288 1.293 1.627.262 1.675-.863.041-1.213-1.396-.262-1.675z"/><path d="m4.117 46.079c.306-.055.565-.006.732.157.403.394.19 1.407-.418 1.518-1.026.188-1.413-1.476-.314-1.675z"/><path d="m27.676 46.079c1.447-.332 1.328 1.82.104 1.675-.354-.042-.469-.295-.68-.576 0-.192 0-.384 0-.576.161-.204.264-.468.576-.523z"/><path d="m6.945 46.341c.795-.201.726 1.005.156 1.047-.577.043-.814-.881-.156-1.047z"/><path d="m18.933 46.341c.802-.241.757.965.262 1.047-.554.091-.932-.845-.262-1.047z"/><path d="m22.232 46.341c.482.335.339 1.152-.262 1.1-.591-.052-.685-1.204.262-1.1z"/><path d="m35.111 50.53c-.448.319-.647.538-1.152.523-1.527-.043-1.726-2.653-.105-2.827 1.175-.126 1.911 1.226 1.257 2.304z"/><path d="m4.012 48.54c1.932-.319 1.863 2.627.367 2.774-1.602.158-2.087-2.491-.367-2.774z"/><path d="m7.049 48.906c1.29-.237 1.113 1.74.105 1.728-.959-.012-1.175-1.531-.105-1.728z"/><path d="m13.122 49.221c.658-.09.781.943.156 1.047-.501.083-1.021-.929-.156-1.047z"/><path d="m30.818 49.221c.878-.341.918 1.047.209 1.047-.537 0-.75-.838-.209-1.047z"/><path d="m15.95 49.273c.878-.306.904.859.366.995-.538.135-1.099-.74-.366-.995z"/><path d="m22.545 49.482c.043.503-.087.758-.418.786-1.033.085-.327-1.782.418-.786z"/><path d="m36.629 49.273c.858-.322.873 1.009.313 1.099-.544.089-.95-.861-.313-1.099z"/><path d="m19.09 50.424c-.347-.08-.577-.254-.575-.576.007-1.275 1.978.055.575.576z"/><path d="m25.425 49.43c.189.395.003.867-.366.89-.871.056-.594-1.59.366-.89z"/><path d="m10.033 49.378c.934-.288.753 1.049.209 1.1-.41.037-.962-.867-.209-1.1z"/><path d="m27.938 50.424c-.686.027-.745-1.32.157-1.099.438.252.319.964-.157 1.099z"/><path d="m36.838 51.105c1.941-.317 1.848 2.764.157 2.775-1.01.006-1.562-1.211-1.152-2.094.14-.299.471-.595.995-.681z"/><path d="m29.246 53.252c-.584 1.396-3.048.693-2.513-.995.498-1.566 3.189-1.096 2.513.995z"/><path d="m33.958 51.786c1.224-.231 1.143 1.824.157 1.833-.988.007-1.138-1.648-.157-1.833z"/><path d="m16.42 53.618c-.726.06-1.129-.259-1.151-.785-.04-.907 1.261-1.385 1.622-.471.167.421.051 1.017-.471 1.256z"/><path d="m24.378 53.357c-.172-.367-.199-.906 0-1.257.614-.546 1.449-.083 1.466.628.017.73-.829 1.202-1.466.629z"/><path d="m6.996 52.048c1.395-.326 1.246 1.782.157 1.728-.853-.043-1.099-1.508-.157-1.728z"/><path d="m9.824 52.048c1.226-.32 1.388 1.693.366 1.78-.898.077-1.377-1.448-.366-1.78z"/><path d="m12.861 52.048c1.27-.279 1.237 1.765.209 1.78-.972.014-1.16-1.571-.209-1.78z"/><path d="m31.446 52.414c.044.358-.071.557-.209.733-1.582.386-.504-1.987.209-.733z"/><path d="m19.038 52.362c.69-.164.833.919.262 1.047-.573.128-1.013-.869-.262-1.047z"/><path d="m21.917 52.362c.886-.344.875.992.262 1.047-.562.051-.828-.827-.262-1.047z"/><path d="m6.945 54.561c1.868-.309 1.955 2.533.419 2.722-1.666.206-2.129-2.44-.419-2.722z"/><path d="m29.823 56.393c-.283-1.532 1.108-2.289 2.042-1.623 1.015.724.445 2.607-.89 2.565-.626-.019-.862-.481-1.152-.942z"/><path d="m37.047 56.602c-.809.076-1.137-.329-1.047-1.151.674-1.455 2.526.571 1.047 1.151z"/><path d="m10.085 55.032c1.195-.166 1.084 1.737.157 1.78-.935.043-1.294-1.623-.157-1.78z"/><path d="m33.802 55.032c.072-.12.364-.02.523-.053.283.268.478.358.523.681.164 1.17-1.608 1.451-1.676.262-.023-.441.248-.741.63-.89z"/><path d="m4.012 55.189c1.222-.19 1.252 1.666.21 1.728-.952.056-1.251-1.487-.21-1.728z"/><path d="m39.717 56.34c-.369-.049-.596-.241-.523-.733.502-.92 1.485.469.523.733z"/><path d="m12.861 57.545c1.785-.529 2.206 2.299.785 2.67-1.881.407-2.384-2.386-.785-2.67z"/><path d="m10.033 57.807c1.373-.278 1.184 2-.053 1.728-.549-.122-1.018-1.512.053-1.728z"/><path d="m36.576 57.964c1.205-.35 1.36 1.504.419 1.675-.979.178-1.419-1.324-.419-1.675z"/><path d="m3.594 58.278c1.168-1.143 2.169 1.348.838 1.519-.797.101-1.265-.733-.838-1.519z"/><path d="m1.08 58.121c1.36-.304 1.271 1.9 0 1.728-.856-.117-.88-1.531 0-1.728z"/><path d="m33.697 58.225c.906-.447 1.142 1.136.262 1.047-.442-.044-.554-.653-.262-1.047z"/><path d="m39.979 59.168c-.438.173-.744-.071-.785-.367-.145-1.043 1.515-.653.785.367z"/><path d="m7.049 58.33c.7-.189.875.961.314 1.099-.605.149-1.074-.894-.314-1.099z"/><path d="m.871 60.529c1.84-.534 2.307 2.363.732 2.67-1.8.4-2.142-2.362-.732-2.67z"/><path d="m15.792 60.581c1.9-.514 2.24 2.371.681 2.67-1.88.345-2.148-2.357-.681-2.67z"/><path d="m36.629 60.581c1.034-.204 1.789.865 1.413 1.937-.382 1.09-2.365.968-2.513-.366-.08-.728.31-1.342 1.1-1.571z"/><path d="m7.573 62.57c-.586.011-.827-.075-.995-.314-.86-1.229 1.416-2.146 1.519-.628.032.489-.23.681-.524.942z"/><path d="m33.802 61.052c.706-.2 1.137.329 1.047 1.1-.258.878-1.964.733-1.623-.576.161-.205.264-.47.576-.524z"/><path d="m4.065 61.262c.859-.322.881.991.262 1.047-.54.049-.849-.827-.262-1.047z"/><path d="m33.854 63.932c1.312-.276 1.284 1.749.157 1.675-.83-.054-1.009-1.418-.157-1.675z"/><path d="m6.945 64.037c.959-.362 1.416.947.837 1.518-1.088.65-1.933-1.2-.837-1.518z"/><path d="m36.734 64.194c.75-.236.851.846.313.995-.58.16-.988-.783-.313-.995z"/><path d="m1.08 64.298c.895-.348.817 1.003.263 1.047-.364.03-.961-.774-.263-1.047z"/><path d="m4.117 64.351c.877-.34.917 1.047.209 1.047-.537 0-.75-.837-.209-1.047z"/><path d="m30.713 66.497c.224-.118.704-.043.942 0 1.082.438.935 2.421-.21 2.67-1.821.372-2.197-2.376-.732-2.67z"/><path d="m5.688 68.277c-.149.93-1.712 1.348-2.355.576-.241-.403-.413-.933-.262-1.413.439-1.407 2.899-1.151 2.617.837z"/><path d="m7.154 67.073c1.223-.269 1.245 1.632.314 1.728-.944.097-1.355-1.499-.314-1.728z"/><path d="m33.539 67.492c.404-1.374 1.711.538.576.628-.322.026-.558-.231-.576-.628z"/><path d="m10.085 67.335c.79-.237.852.945.314 1.047-.554.106-1.029-.833-.314-1.047z"/><path d="m27.729 69.429c1.855-.36 1.98 2.526.471 2.723-.776.101-1.196-.399-1.518-.942-.056-.999.286-1.599 1.047-1.781z"/><path d="m13.018 72.204c-1.698-.386-1.189-3.192.628-2.775 1.345.309 1.399 3.123-.628 2.775z"/><path d="m10.609 69.9c.814.279.712 1.677-.104 1.78-1.192.15-1.363-1.927.104-1.78z"/><path d="m24.849 71.733c-.852-.278-.742-1.998.523-1.728.775.285.717 2.007-.523 1.728z"/><path d="m7.154 70.215c.773-.135.693 1.228-.053 1.099-.52-.09-.547-.995.053-1.099z"/><path d="m16.839 70.685c.05.49-.162.77-.472.786-1.104.055-.218-1.956.472-.786z"/><path d="m19.09 70.371c.691-.264.856.894.314 1.047-.631.179-.995-.78-.314-1.047z"/><path d="m21.97 70.424c.841-.327.834 1.057.157 1.047-.528-.008-.646-.857-.157-1.047z"/><path d="m12.703 74.507c-.28-.32-.223-.913 0-1.257.311-.211.646-.347.994-.157.955.522.172 2.356-.994 1.414z"/><path d="m22.545 74.769c-.628.07-.888-.228-1.099-.576-.314-1.349 1.43-1.534 1.622-.576.097.477-.154.914-.523 1.152z"/><path d="m16.106 73.093c1.146-.406 1.452 1.427.524 1.675-1.2.276-1.435-1.441-.524-1.675z"/><path d="m24.902 73.356c.461-.181.805.207.732.733-.233.561-1.246.395-1.047-.471.114-.079.122-.263.315-.262z"/><path d="m19.195 73.408c.925-.27.89.991.262 1.047-.487.043-.838-.762-.262-1.047z"/></g></svg>