<svg enable-background="new 0 0 72.614 49.183" viewBox="0 0 72.614 49.183" xmlns="http://www.w3.org/2000/svg"><path clip-rule="evenodd" d="m64.966 29.602c-2.449-1.148-4.162-3.034-6.591-4.203-.418.53-.239 1.392-.239 2.149 0 1.561-.07 2.828-.047 4.537.009.731.171 1.644-.048 2.197-.13.33-.776.789-1.242 1.098-5.187 3.45-10.008 6.764-15.092 10.221-.853.579-1.796 1.115-2.77 1.814-.379.272-.764.683-1.29 1.003-.493.301-1.137.767-1.528.764-.578-.003-1.77-1.013-2.388-1.433-.815-.553-1.553-1.102-2.245-1.576-1.56-1.07-3.143-2.021-4.537-3.057-2.979-2.212-6.059-4.005-9.026-6.209-2.795-2.076-5.916-4.059-8.979-6.256-2.5-1.794-5.223-3.594-7.832-5.492-.4-.292-.914-.611-1.003-.86-.215-.602-.048-1.678-.048-2.531 0-1.839 0-3.167 0-4.967 0-.876-.138-1.774.191-2.388.481.055.872.394 1.242.669 2.487 1.851 5.264 3.554 7.785 5.444 8.397 5.702 16.842 11.441 25.217 17.336.501.353 1.307 1.033 1.767 1.051.792.03 1.768-1.004 2.388-1.48.794-.61 1.618-1.071 2.292-1.528 4.602-3.121 9.089-6.288 13.706-9.313.432-.272.79-.574 1.29-.907.345-.23 1.125-.554 1.146-1.003.019-.396-.766-.845-1.146-1.099-3.054-2.034-6.148-4.296-9.122-6.304-1.797-1.213-3.559-2.455-5.206-3.63-.813-.579-1.7-1.085-2.579-1.814-.378-.314-.758-.616-1.242-.956-.439-.308-.995-.769-1.433-.764-.533.005-1.341.665-1.815 1.002-1.187.847-2.116 1.408-3.343 2.245-.271.185-1.502.806-1.529 1.242-.029.491 1.125 1.031 1.576 1.337 1.768 1.201 3.564 2.48 5.158 3.582 1.723 1.192 3.254 2.434 5.062 3.678.467.321 1.546.757 1.624 1.289.07.48-.974 1.046-1.48 1.385-1.295.867-2.229 1.462-3.486 2.34-.499.348-1.197 1.098-1.815 1.099-.603.001-1.35-.789-1.862-1.146-1.772-1.237-3.792-2.326-5.206-3.726-.179-2.222-.092-4.852-.048-7.068.016-.777.133-1.601-.239-2.197-.707.044-1.261.561-1.815.908-1.168.73-2.142 1.417-3.391 2.245-.492.327-1.227 1-1.815 1.003-.556.003-1.437-.749-1.91-1.099-1.185-.876-2.334-1.567-3.534-2.388-.575-.393-1.234-.767-1.576-1.385.179-.528.714-.805 1.146-1.099 4.79-3.256 9.717-6.63 14.71-9.743 1.802-1.124 3.458-2.612 5.349-3.534.718-.35 1.279.437 1.91.86 1.569 1.05 3.124 2.236 4.585 3.295 1.992 1.444 4.202 2.974 6.209 4.298 4.37 2.886 8.281 5.892 12.465 8.597.599.389 1.109.781 1.767 1.242.476.333 1.234 1.085 1.862 1.099.633.013 1.361-.745 1.911-1.099 1.322-.852 2.419-1.511 3.677-2.34.606-.4 1.126-1 1.815-1.051.423.567.239 1.455.239 2.245v4.872c0 .743.149 1.848-.048 2.388-.189.519-1.266 1.014-1.814 1.385-1.919 1.301-3.747 2.579-5.73 3.726z" fill-rule="evenodd"/></svg>