<svg enable-background="new 0 0 74.984 76.028" viewBox="0 0 74.984 76.028" xmlns="http://www.w3.org/2000/svg"><path clip-rule="evenodd" d="m64.442 25.829c5.251 3.923 9.206 9.208 9.553 17.894.174 4.334-1.096 8.076-2.522 11.202-1.464 3.211-3.292 6.068-5.286 8.438-2.338 2.728-5.088 5.342-8.389 7.322-3.231 1.939-6.969 3.642-11.105 4.559-9.468 2.099-19.668-.314-26.089-3.685-7.179-3.452-12.036-8.75-15.954-15.42-.918-1.564-1.775-3.469-2.424-5.431s-1.274-4.025-1.649-6.159c-.786-4.476-.784-9.758.097-14.402 1.2-6.325 3.903-11.91 7.371-16.197 1.165-1.44 2.373-2.918 3.734-4.073 4.275-3.63 8.734-6.851 14.839-8.68 1.035-.311 2.07-.601 3.152-.776 4.096-.665 9.489-.34 14.111-.34 6.895 0 13.48.097 20.658.097 2.713 0 4.946.049 7.71.049 1.093 0 2.224-.136 2.57.388.257.385.151 1.579.098 2.18-.814 9.244-5.614 14.928-12.22 18.427-.441.233-.927.419-1.649.728-.235.1-1.436.436-1.454.873-.019.425.761.645 1.163.824 1.407.629 2.48 1.382 3.685 2.182zm-38.891-2.279c-.344.371-.243.943-.243 1.406 0 8.455-.147 16.626.048 24.925 4.975.413 10.207.015 15.227.243 2.907.132 4.575-.205 6.159-1.503 1.344-1.103 2.623-2.73 2.764-4.995.18-2.894-1.663-5.235-3.443-6.304-2.102-1.263-5.901-1.191-7.856.194-.934.662-1.913 1.702-2.376 2.765-.244.558-.167 1.325-.776 1.6-.454-.581-.404-1.459-.437-2.231-.076-1.813.239-3.39.582-4.801.184-.758.333-1.535.533-2.182.397-1.284 1.304-2.226 1.746-3.297 1.216-1.597 2.638-2.987 4.17-4.268.482-.411 1.344-.686 1.406-1.357-5.642-.225-11.827-.165-17.504-.195z" fill-rule="evenodd"/></svg>