<svg enable-background="new 0 0 56.392 55.544" viewBox="0 0 56.392 55.544" xmlns="http://www.w3.org/2000/svg"><path d="m13.54 8.514c3.302-5.922 10.463-9.429 17.163-8.305 4.127.67 7.96 2.948 10.573 6.21 2.265 2.915 3.577 6.566 3.611 10.259-1.888-.028-3.782.043-5.666-.05-.045-4.559-3.212-8.85-7.492-10.353-3.799-1.359-8.317-.378-11.193 2.458-1.812 1.695-3.062 3.996-3.44 6.452-.345 2.306.026 4.717 1.008 6.832 3.255 4.918 6.577 9.793 9.883 14.682 2.052-2.971 4.146-5.913 6.14-8.924-1.828-.078-3.661-.023-5.489-.092-1.28-1.831-2.521-3.688-3.765-5.543 2.731-.051 5.461-.028 8.192.019 1.484.036 2.981.002 4.468.042 2.375.008 4.753.026 7.131.029-4.391 6.519-8.852 12.996-13.276 19.491 1.13 1.653 2.213 3.337 3.321 5.004 4.011-5.745 7.953-11.544 11.897-17.332 3.788-5.211 5-12.089 3.451-18.318.498-.067 1.004-.005 1.504-.018 1.419.029 2.84.016 4.261.016.414 1.954.482 3.965.557 5.956.21 6.14-2.128 12.213-6.011 16.927-4.98 7.189-9.89 14.431-14.936 21.572-.527.036-1.058 0-1.586.01-1.871-2.996-3.929-5.877-5.91-8.804-2.015 2.912-4.056 5.81-6.028 8.75-.529.009-1.068.03-1.593-.012-4.169-6.239-8.442-12.414-12.568-18.678-1.093-1.615-2.177-3.234-3.333-4.804-2.025-3.102-3.492-6.586-4.15-10.238-.464-3.63-.29-7.313.323-10.912 1.931-.011 3.862.017 5.793-.003-.434 2.078-.799 4.194-.691 6.328.116 3.166 1.048 6.249 2.286 9.148.706 1.462 1.323 2.999 2.39 4.245 3.621 5.316 7.275 10.612 10.886 15.934 1.11-1.566 2.189-3.19 3.294-4.773-3.26-4.775-6.407-9.623-9.681-14.391-2.557-3.506-3.989-7.937-3.454-12.284.223-2.297.992-4.526 2.13-6.53z"/></svg>