<svg enable-background="new 0 0 133.87 188.204" viewBox="0 0 133.87 188.204" xmlns="http://www.w3.org/2000/svg"><path clip-rule="evenodd" d="m77.425 0c.807.461 1.444 1.183 2.09 1.828 1.911 1.912 3.892 3.859 5.691 5.953-.588.925-1.433 1.642-2.193 2.402-1.501 1.501-3.016 3.015-4.543 4.543-.758.758-1.41 1.616-2.142 2.402-1.456 1.567-3.068 2.965-4.595 4.491-7.539 7.539-15.189 15.137-22.769 22.716-6.066 6.066-12.055 12.21-18.12 18.277-3.038 3.038-6.154 5.997-9.191 9.034-3.027 3.027-6.166 5.953-8.93 9.243-2.099 2.944-1.9 7.679-.314 10.496.774 1.373 1.884 2.458 3.029 3.604 5.48 5.48 11.061 11.167 16.554 16.658 2.18 2.179 4.33 4.487 6.58 6.736 4.412 4.413 8.808 8.86 13.264 13.316 2.086 2.086 5.295 4.056 9.661 3.186 3.489-.695 5.615-3.266 7.833-5.483 4.51-4.509 8.785-8.838 13.264-13.316 3.38-3.38 6.587-6.592 10.027-9.922 1.159-1.123 2.192-2.709 2.036-4.596-.159-1.912-1.285-3.008-2.454-4.177-4.946-4.946-9.775-9.933-14.884-15.04-.862-.862-1.616-2.316-3.498-1.723-1.162.366-1.971 1.552-2.977 2.559-1.091 1.09-2.896 2.091-2.351 4.177.231.882.86 1.388 1.463 2.037.571.616 1.213 1.184 1.723 1.724 1.74 1.84 3.463 3.454 5.17 5.274.529.564 1.144 1.055 1.724 1.724 1.048 1.208 1.821 3.221 1.201 5.326-.5 1.695-1.889 2.71-3.029 3.916-.567.601-1.066 1.222-1.671 1.828-1.714 1.714-3.499 3.446-5.222 5.17-2.304 2.303-4.438 4.863-8.304 5.587-2.056.385-4.144.183-6.005-.522-3.262-1.236-5.433-3.971-7.677-6.215-4.663-4.662-9.209-9.256-13.786-13.942-1.049-1.09-2.028-2.155-3.081-3.134-1.071-.995-2.108-2.002-2.976-3.237-1.637-2.329-2.633-6.17-1.462-9.87.975-3.081 3.256-4.979 5.326-7.05 2.171-2.171 4.163-4.32 6.11-6.266 6.146-6.147 12.443-12.236 18.694-18.486 2.087-2.086 4.099-4.345 6.527-5.849 2.699-1.67 5.591-2.752 9.348-3.081 4.07-.356 7.539.485 10.497 1.775 2.877 1.256 4.994 3.062 7.154 5.222 8.264 8.264 16.512 16.458 24.805 24.752 1.029 1.029 2.026 2.125 3.081 3.133 1.051 1.006 1.943 2.153 2.977 3.186 2.041 2.043 4.076 4.182 6.162 6.267 3.979 3.978 7.393 9.82 6.476 17.964-.398 3.53-1.641 6.539-3.29 9.086-1.597 2.465-3.854 4.338-5.901 6.528-.995 1.064-2.046 2.098-3.081 3.133-1.041 1.041-2.035 2.14-3.028 3.133-18.564 18.567-37.237 37.024-55.824 55.615-2.062 2.062-4.038 4.235-6.267 6.11-1.461-1.111-2.63-2.525-3.917-3.812-1.287-1.288-2.654-2.498-3.812-3.917.502-.829 1.27-1.45 1.932-2.141 4.569-4.769 9.44-9.388 14.152-14.1 3.706-3.707 7.579-7.222 11.227-11.019.324-.338.563-.757.888-1.097 1.303-1.368 2.736-2.632 4.073-3.969 10.775-10.773 21.525-21.525 32.273-32.273 1.323-1.323 2.768-2.607 4.073-4.021s2.776-2.636 3.812-4.23c1.106-1.703 1.812-3.949 1.619-6.371-.186-2.319-1.085-4.242-2.298-5.745-2.406-2.981-5.284-5.514-7.938-8.199-2.649-2.681-5.342-5.394-8.042-8.094-6.617-6.618-13.51-13.457-20.21-20.157-2.639-2.639-5.188-5.917-10.548-5.483-2.363.191-4.128 1.043-5.692 2.35-8.787 8.496-16.699 16.438-25.379 25.118-1.478 1.478-3.654 2.975-3.343 6.058.277 2.733 2.342 3.883 3.917 5.536 4.106 4.309 8.391 8.39 12.638 12.637.95.951 1.924 2.651 3.603 2.663 1.51.011 2.424-1.275 3.238-2.089.934-.934 1.966-1.804 2.559-2.715 1.216-1.87-.435-3.307-1.462-4.334-.698-.698-1.302-1.42-2.037-1.985-1.485-1.496-2.556-2.644-3.969-3.968-1.191-1.118-2.941-2.591-3.551-4.334-.804-2.299.131-4.566 1.357-5.901 1.279-1.392 2.635-2.582 3.969-3.917 2.637-2.636 5.058-5.058 7.886-7.885 1.142-1.142 2.538-2.819 4.021-3.865.849-.598 1.882-.896 3.029-.94 2.492-.095 3.68 1.33 5.065 2.716 7.243 7.243 14.36 14.465 21.619 21.724 2.619 2.619 5.797 5.053 6.632 9.139.486 2.376.141 4.88-.626 6.737-.771 1.863-2.106 3.203-3.395 4.491-7.897 7.898-15.841 15.842-23.656 23.656-1.295 1.295-2.631 2.604-3.916 3.968-3.721 3.951-8.416 7.614-15.823 7.833-5.095.151-9.078-1.275-12.324-3.342-3.201-2.038-5.672-4.94-8.251-7.52-2.635-2.635-5.273-5.272-7.78-7.99-2.521-2.732-5.22-5.323-7.833-7.938-5.257-5.257-10.443-10.548-15.719-15.823-2.611-2.611-5.246-5.224-6.789-8.982-1.48-3.606-2.197-8.941-.992-13.525 1.406-5.346 4.233-8.837 7.728-12.011.666-.604 1.364-1.267 1.984-1.932 3.767-4.037 8.049-7.678 11.854-11.802 1.246-1.351 2.667-2.589 3.969-3.916 6.469-6.599 13.078-13.236 19.635-19.792 1.31-1.31 2.707-2.544 3.969-3.916 1.257-1.368 2.694-2.569 3.969-3.917 1.272-1.345 2.605-2.658 3.917-3.969 1.316-1.316 2.717-2.555 3.969-3.916 5.019-5.46 10.609-10.379 15.666-15.875.04-.045.097-.076.158-.101z" fill-rule="evenodd"/></svg>