<svg enable-background="new 0 0 79.892 46.252" viewBox="0 0 79.892 46.252" xmlns="http://www.w3.org/2000/svg"><path clip-rule="evenodd" d="m45.751.171c.253.638.145 1.34.145 2.024-.001 8.915.048 18.556.049 27.668 0 2.915-.371 6.067 2.217 6.507 1.563.266 2.826-.598 3.182-1.687.351-1.075.145-2.843.145-4.338 0-2.317.01-4.239 0-6.315-.038-7.85-.149-16.288.047-23.811 2.627-.175 5.692-.096 8.531-.096.926 0 1.878-.111 2.699.145.201 9.716.145 19.705.145 29.789 0 1.413-.109 2.876.097 4.146.189 1.169 1.092 2.064 2.169 2.266 1.656.308 2.694-.888 2.988-1.928.339-1.197.146-2.745.146-4.242 0-9.995-.11-19.973.048-30.03 3.368-.196 7.803-.095 11.279-.048.244.366.142.848.145 1.253.054 10.096.096 21.139.097 31.476v5.591c0 1.939.136 3.835-.482 5.062-.576 1.144-1.586 2.132-3.133 2.458-1.51.318-3.654.145-5.447.145-9.423 0-18.207-.049-27.716-.048-1.933 0-4.515.308-5.978-.193-1.356-.464-2.521-1.812-2.796-3.422-.196-1.15-.007-2.434-.048-3.711-.289-8.895.225-18.274-.145-26.945-.801-.26-1.636-.145-2.459-.145-.851 0-1.742.036-2.602 0-3.295-.139-6.481-.048-10.074-.048-3.116 0-6.773-.597-7.183 2.217-.235 1.622-.048 3.456-.048 5.206 0 4.179-.033 8.899.048 13.015.031 1.556-.069 2.692.675 3.47 1.32 1.38 3.723 1.074 4.483-.675.444-1.022.192-2.931.192-4.386 0-4.42-.078-9.37.097-13.545 3.609-.159 7.761-.154 11.23.048.217 5.672.144 12.785.146 19.136 0 2.211.181 4.397 0 6.363-.15 1.635-1.712 3.31-3.278 3.567-.779.128-1.693.03-2.555 0-4.542-.159-9.374 0-14.075 0-2.219 0-4.754.304-6.17-.434-1.283-.669-2.285-2.021-2.41-3.953-.125-1.939-.048-3.851-.048-6.074 0-8.29-.049-17.117-.049-25.113.001-2.207-.152-4.455.049-6.316.226-2.083 1.643-3.728 3.422-4.097 1.179-.245 2.341-.048 3.76-.048 12.722 0 25.768.033 38.465.096z" fill-rule="evenodd"/></svg>