<svg enable-background="new 0 0 72.618 74.348" viewBox="0 0 72.618 74.348" xmlns="http://www.w3.org/2000/svg"><path clip-rule="evenodd" d="m72.439.27c.258.84.146 1.789.146 2.73 0 2.82.06 5.713-.098 8.289-10.372.061-20.849.244-31.16 0-5.022-.117-10.136.074-15.068 0-5.161-.076-10.144.106-15.117.049-.322.514-.195 1.392-.195 2.195 0 .809-.074 1.643.098 2.242.579.283 1.241.119 1.853.147 4.35.203 9.096.049 13.604.049 7.673.002 15.254.129 22.871.049 6.451-.066 12.826.049 19.359.049 1.242 0 2.528-.115 3.755.146.158 2.379.098 5.285.098 7.998 0 .887.116 1.81-.146 2.584-5.021.082-10.191.101-15.215.049-5.035-.053-9.946.168-15.067-.049-5.203-.221-10.366.131-15.557-.049-2.582-.09-5.189.049-7.802.049-2.559 0-5.14-.18-7.705.049-.255 1.111-.173 3.029-.049 4.34 2.464.291 5.091.096 7.656.146 7.739.15 15.441.049 23.017.049 7.608 0 15.053.049 23.065.049 2.573 0 5.139-.109 7.705.146.172 14.037.175 28.152 0 42.619-.688.271-1.431.098-2.146.098-5.352 0-10.806-.055-16.093-.049-17.661.02-35.677.018-54.128-.195-.162-3.496-.163-7.67 0-11.166 12.814-.15 25.865-.002 38.719 0 2.557 0 5.138.166 7.656.049 5.068-.24 10.157.289 15.214-.098.161-1.23.161-3.109 0-4.34-1.209-.242-2.474-.147-3.706-.147-19.503-.001-38.373-.042-57.832-.243-.021-.043-.043-.088-.098-.098-.072-3.439-.111-7.352.049-10.582.044-.021.087-.043.098-.098 15.288-.188 30.643.16 46.326 0 5.091-.051 10.139.215 15.116-.049.268-1.139.183-3.121.049-4.34-1.246-.26-2.52-.059-3.804-.098-3.7-.111-7.681-.047-11.605-.049-5.207 0-10.47-.047-15.653-.049-8.975 0-17.915-.039-26.869-.098-1.215-.008-2.474.195-3.657-.098-.142-13.738-.157-28.508 0-42.424 5.183-.182 10.435-.098 15.653-.098 1.256 0 2.524-.057 3.755 0 2.548.115 5.092-.08 7.607 0 5.154.162 10.295-.164 15.36.049 5.006.211 10.016-.121 14.971.049 5.041.177 10.037-.232 14.97.149z" fill-rule="evenodd"/></svg>