<svg enable-background="new 0 0 75.093 75.774" viewBox="0 0 75.093 75.774" xmlns="http://www.w3.org/2000/svg"><path clip-rule="evenodd" d="m74.217 29.854c-1.203.255-2.519.143-3.833.142-3.865-.001-8.036.066-11.784-.095-3.269-6.695-7.956-11.832-16.09-13.771-2.659-.634-5.995-.913-9.039-.236-5.433 1.207-9.424 3.598-12.635 7.24-2.901 3.291-5.537 8.162-5.537 14.339 0 6.617 2.062 10.914 5.111 14.718 2.957 3.689 7.063 6.322 12.257 7.619 6.143 1.535 12.174-.134 16.137-2.508 3.111-1.864 5.513-4.378 7.524-7.382.652-.974 1.543-1.987 1.562-3.313-.526-.337-1.385-.189-2.177-.189-11.627 0-23.684-.002-34.924-.237-.217-2.083-.095-4.406-.095-6.767 0-2.364-.078-4.812.095-7.099 17.886-.084 35.872-.014 53.759.142.446.958.412 2.102.473 3.171.066 1.153.095 2.315.047 3.454-.096 2.275-.147 4.593-.615 6.625-.881 3.828-2.361 7.453-4.022 10.411-3.486 6.207-8.306 11.193-14.292 14.623-5.887 3.374-14.056 6.005-23.378 4.685-8.37-1.185-14.658-4.62-19.876-9.039-5.077-4.577-9.14-10.121-11.356-17.557-1.13-3.791-1.732-8.35-1.467-12.919.262-4.515 1.187-8.351 2.602-11.831 2.768-6.807 6.976-12.106 12.493-16.421 5.446-4.259 12.472-7.108 21.295-7.619 5.129-.297 10.705 1.107 14.481 2.508 8.327 3.091 14.06 8.386 18.504 15.286 1.649 2.561 3.012 5.455 4.022 8.66.337 1.067.767 2.183.758 3.36z" fill-rule="evenodd"/></svg>