<svg enable-background="new 0 0 65.696 73.288" viewBox="0 0 65.696 73.288" xmlns="http://www.w3.org/2000/svg"><path clip-rule="evenodd" d="m43.911 0c1.259.487 2.387 1.28 3.58 1.978.291.17.991.522 1.036.753.076.395-.521 1.144-.706 1.413-.865 1.258-1.859 2.364-2.921 3.345-1.099 1.045-2.178 1.828-3.674 2.638-.347.188-1.202.496-1.271.801-.11.485.874 1.648 1.083 2.025 1.082 1.955 1.311 5.24.471 7.725-.764 2.258-2.316 3.917-4.191 5.087-.612.382-1.325.634-1.932 1.13-.085 3.864-.126 7.397 0 11.21.574.203 1.288.187 1.979.188 1.94.006 4.307-.026 6.218-.141.302-1.197.094-2.614.094-3.91 0-2.201.005-4.472.142-6.594 1.87-.187 4.269-.096 6.217-.047.969.766 1.356 1.969 2.025 3.062 1.785 2.912 3.841 5.837 5.605 8.854.771 1.066 1.232 2.442 2.261 3.251.254-1.194.142-2.521.142-3.815 0-2.644-.05-5.264 0-7.726.025-1.257-.14-2.487.094-3.626 1.667-.049 3.781-.139 5.37.047.192 4.255.142 8.933.141 13.659 0 2.349.001 4.728 0 7.065 0 2.334.097 4.641-.094 6.83-1.339.171-2.854.174-4.239.047-.759-.542-1.128-1.454-1.602-2.214-2.383-3.821-4.95-7.669-7.301-11.587-.471-.784-.92-1.572-1.413-2.355-.474-.751-.819-1.653-1.554-2.214-.206 3.254-.121 6.708-.142 10.08-.018 2.779.182 5.571-.047 8.29-1.594.155-3.824.156-5.417 0-.254-1.702-.142-3.662-.142-5.605.001-1.929.077-3.901-.094-5.652-1.146-.253-2.659-.142-4.051-.141-1.433 0-2.859-.072-4.098.094-.256 1.819-.142 3.777-.142 5.746 0 .936.01 1.939 0 2.874-.01.928-.122 2.025.047 2.873.125.623 1.46 1.788 1.884 2.261 3.958 4.404 7.933 8.628 11.775 13.094.318.37.646.72.989 1.083.324.344.76.717.848 1.226-5.691.22-11.815.141-17.898.141-6.082 0-12.134.151-17.898-.094.383-.937 1.159-1.479 1.743-2.214 1.765-2.145 3.606-4.213 5.369-6.358 2.312-2.917 4.821-5.636 7.112-8.572.048-3.866.14-8.177-.047-11.964-1.108-.298-2.533-.142-3.909-.142-1.391 0-2.843-.077-4.098.094-.254.849-.142 1.824-.142 2.779 0 2.759.077 5.877-.094 8.525-1.749.187-3.997.077-5.746-.047-.346-3.408.046-7.665-.236-11.258-2.09-.306-4.672-.042-7.018-.141-.76-.032-1.523-.177-2.167.094-.251 3.55.03 7.63-.142 11.258-1.534.195-3.893.129-5.558 0-.141-1.132-.155-2.311-.142-3.485.092-7.797-.135-16.224.094-24.116 1.623-.157 3.889-.155 5.512 0 .248 3.3-.045 7.141.188 10.456.65.222 1.451.165 2.215.189.789.024 1.602 0 2.402 0 1.615.001 3.26.141 4.615-.094.281-3.268-.092-7.189.188-10.457 1.7-.156 4.047-.156 5.746 0 .302 3.263-.14 7.269.235 10.457 1.166.253 2.597.142 4.004.141 1.377 0 2.804.074 4.004-.094.223-1.665.094-3.575.094-5.464 0-1.898.039-3.822-.047-5.605-.487-.608-1.339-.792-2.025-1.177-.677-.38-1.296-.824-1.79-1.366-1.578-1.376-2.935-3.503-3.155-6.311-.129-1.644.106-2.886.518-4.145.389-1.188 1.047-2.123 1.601-3.109-.209-.503-.8-.612-1.225-.848-1.295-.719-2.561-1.572-3.627-2.543-1.086-.926-1.984-2.051-2.873-3.345-.22-.32-.754-.966-.706-1.319.06-.446 1.784-1.277 2.167-1.507.432-.259.645-.404 1.13-.706.251-.157.852-.686 1.178-.66.423.034.793.949 1.036 1.271.35.467.685.755 1.036 1.272 2.58 2.531 6.511 4.894 11.775 4.003 4.438-.75 7.505-3.408 9.467-6.547.037-.044.088-.071.144-.094zm-15.873 14.743c-.377.585-.878 2.079-.754 3.249.194 1.818 1.428 3.197 2.779 3.815 3.516 1.607 6.995-1.153 6.971-4.428-.015-2.006-1.261-3.547-2.59-4.286-.821-.456-1.968-.607-3.109-.471-1.46.177-2.694 1.183-3.297 2.121zm4.192 45.499c-1.229 1.206-2.273 2.595-3.345 3.957-.589.624-1.117 1.296-1.648 1.978-.517.665-1.217 1.244-1.555 2.073.53.223 1.22.185 1.837.188 2.95.02 6.418-.047 9.656-.047.861-.001 1.744.111 2.544-.142-.006-.506-.457-.814-.754-1.131-.954-1.017-1.779-2.08-2.779-3.015-.501-.694-1.161-1.267-1.837-2.025-.465-.523-1.252-1.715-1.979-1.931-.055.024-.106.052-.14.095z" fill-rule="evenodd"/></svg>