<svg enable-background="new 0 0 34.368 32.41" viewBox="0 0 34.368 32.41" xmlns="http://www.w3.org/2000/svg"><path d="m2.641 1.362c1.821-.933 3.914-1.572 5.976-1.298 1.643.306 3.13 1.441 3.856 2.947.546 1.278.423 2.703.388 4.057-.013 3.648-.007 7.296-.013 10.944 1.103-.451 2.165-1.01 3.237-1.535-.006-3.562-.026-7.132.01-10.69.625-.657 1.754-.54 2.604-.727.004 3.387-.015 6.773.009 10.16 1.05-.519 2.137-.941 3.178-1.483-.019-2.312.007-4.624-.002-6.935.049-1.276.065-2.647.796-3.751.759-1.316 2.194-2.009 3.564-2.515 1.576-.484 3.304-.77 4.9-.2 3.022.993 4.12 5.094 2.301 7.612-.648.981-1.646 1.686-2.721 2.133-2.062 1.056-4.157 2.042-6.218 3.099.003 4.483.001 8.973-.015 13.454-.061 2.605 2.169 5.122 4.832 5.053 2.19-1.164 3.027-4.136 1.957-6.336-.72-1.787-2.55-2.883-4.424-3.012.689-.317 1.431-.541 2.179-.665 2.847-.259 5.445 2.411 5.331 5.225-.02 2.658-2.385 4.693-4.874 5.093-1.375.411-2.898.643-4.276.107-1.961-.579-3.373-2.551-3.34-4.589-.014-4.355.015-8.71-.001-13.064-1.088.424-2.125.963-3.175 1.471-.045 3.642.069 7.295-.065 10.932-.8.383-1.702.42-2.562.573-.014-3.415.024-6.829-.009-10.244-1.043.582-2.202.988-3.2 1.626-.041 2.36 0 4.724-.023 7.084.031 1.493-.201 3.155-1.329 4.24-1.665 1.695-4.142 2.148-6.42 2.272-1.304-.096-2.701-.461-3.617-1.456-.866-.871-1.317-2.094-1.424-3.302-.121-1.942 1.019-3.856 2.729-4.762 2.471-1.204 4.958-2.376 7.435-3.567-.016-4.662-.008-9.324-.002-13.985-.218-2.481-2.439-4.635-4.965-4.539-1.901.946-2.908 3.306-2.384 5.35.482 2.251 2.667 3.897 4.941 3.937-1.128.58-2.48.973-3.741.592-2.073-.463-3.79-2.32-4.04-4.434-.202-1.965.913-3.92 2.617-4.872zm24.347-.554c-1.598.907-2.623 2.799-2.432 4.643-.095 2.334-.025 4.674-.047 7.01 1.392-.691 2.806-1.339 4.188-2.05 2.123-.919 3.445-3.331 3.033-5.612-.418-2.182-2.458-4.113-4.742-3.991zm-22.453 22.074c-1.291 1.033-2.007 2.711-1.844 4.358.229 2.446 2.544 4.529 5.013 4.407 1.526-.858 2.536-2.585 2.504-4.342-.02-2.429.01-4.858-.013-7.287-1.886.949-3.907 1.682-5.66 2.864z"/></svg>