<svg enable-background="new 0 0 75.195 76.431" viewBox="0 0 75.195 76.431" xmlns="http://www.w3.org/2000/svg"><g clip-rule="evenodd" fill-rule="evenodd"><path d="m9.118.112c.252 1.268.142 2.597.142 3.929 0 8.018-.047 16.375-.047 24.376 0 1.267-.044 2.54.189 3.739 6.309.338 13.607-.237 20.684.047 2.345.094 4.644-.079 6.863.189.424 3.678-.06 7.423.095 11.076.155 3.682.027 7.4.047 11.076.039 7.274-.035 14.278-.095 21.678-1.39.259-3.087.095-4.78.095-.82 0-1.661-.025-2.461-.047-.815-.023-1.634.129-2.319-.142-.283-11.197.094-23.07-.189-34.316-5.707-.157-12.088-.157-17.844 0-.336 1.283-.178 2.763-.142 4.26.103 4.292 0 8.728 0 13.063 0 5.66-.035 11.296-.095 17.04-1.362.256-2.998.142-4.544.142-1.538 0-3.089.105-4.449-.095-.405-6.221.08-12.511-.095-18.791-.175-6.285 0-12.65 0-18.886 0-11.97 0-24.043 0-36.162 0-.76-.115-1.544.142-2.272 2.699-.116 6.091-.177 8.898.001z"/><path d="m74.959.254c.309 1.45.141 2.969.189 4.497.049 1.575.032 3.208 0 4.828-.096 4.863.024 9.799.047 14.436.008 1.596-.095 3.223-.094 4.828 0 3.25.015 6.52 0 9.751-.015 3.041.122 6.191.047 9.325-.076 3.171-.069 6.361 0 9.467.073 3.247 0 6.479 0 9.656 0 2.391-.104 4.819-.047 7.053.019.749.125 1.517-.142 2.225-2.923.161-6.011.068-8.946 0-.284-1.287-.106-2.724-.142-4.212-.203-8.379 0-17.419 0-26.033 0-1.421.114-2.844-.142-4.213-2.771-.149-5.873-.095-8.946-.095-3.061.001-6.156-.035-8.898.142-.27 2.895-.064 5.776-.095 8.615-.091 8.44.046 16.66-.095 25.749-1.432.293-3.078.095-4.733.095-1.615-.001-3.306.078-4.78-.095-.233-1.789-.142-3.63-.142-5.443 0-5.556-.032-10.876.047-16.093.114-7.498-.225-14.857.095-22.341 9.223-.246 18.565.081 27.595-.142.209-8.024.095-15.919.095-24.234 0-1.898 0-4.264 0-6.106 0-.611-.146-1.692.473-1.798.64-.11 1.456.072 2.177.047 2.137-.077 4.314-.099 6.437.091z"/></g></svg>