<svg enable-background="new 0 0 76.789 77.914" viewBox="0 0 76.789 77.914" xmlns="http://www.w3.org/2000/svg"><g clip-rule="evenodd" fill-rule="evenodd"><path d="m25.862.133c.175 1.604.095 3.247.095 4.875 0 4.735-.149 9.542.048 14.242.601.233 1.326.191 2.055.191 2.11 0 4.606-.077 6.595.096.189 5.091.112 10.463-.048 15.437-5.004.134-10.748.086-15.962-.048-.252-.501-.143-1.086-.143-1.625 0-8.525.152-17.156 0-25.568-.726-.333-1.687-.191-2.581-.191-2.611.001-5.621-.055-8.029.048-.259 1.169-.144 2.497-.144 3.871 0 11.993-.096 23.483-.096 35.366 0 6.603-.047 12.755-.047 19.451 0 1.274-.113 2.565.143 3.823 3.284.159 7.231.159 10.514 0 .222-.468.167-1.024.191-1.529.183-3.854 0-7.893 0-11.948 0-4.61-.044-9.243.095-13.478 1.193-.231 2.528-.143 3.872-.143 4.007 0 8.274.01 12.139.143.243 4.435.096 8.717.096 13.382 0 .592.112 1.261-.144 1.816-2.548.184-5.931-.117-8.555.143-.258 1.504-.143 3.114-.143 4.732 0 4.73.072 9.776-.096 14.385-2.041.257-4.188.143-6.357.143-2.149 0-4.338 0-6.499 0-4.366 0-8.748.082-12.808-.096-.146-19.217.048-39.036.048-58.449 0-5.8.048-11.247.048-16.919 0-.73-.151-1.558.191-2.246 8.447-.058 16.935-.063 25.522.096z"/><path d="m76.712.419c.138 3.142.047 6.351.047 9.606.001 22.164-.144 43.522-.143 65.522 0 .757.113 1.556-.144 2.294-7.981.089-17.28.133-25.568-.096-.173-5.363-.048-11.034-.048-16.822 0-.766.109-1.571-.143-2.294-2.311-.364-5.738.056-8.268-.239-.255-1.193-.144-2.503-.144-3.775 0-3.759-.009-7.68.144-11.375 5.062-.154 10.825-.185 15.819.048.301 9-.123 18.035.143 26.907.779.258 1.693.143 2.581.143 2.587 0 5.44.039 7.981-.048.281-1.207.198-2.473.191-3.727-.047-8.733.048-18.287.048-27.384 0-9.934.048-19.471.048-29.487 0-.601.106-1.251-.144-1.816-3.268-.19-7.195-.226-10.514-.048-.258 1.074-.143 2.228-.143 3.346 0 7.886-.011 16.224-.144 23.895-3.792.174-8.08.096-12.091.096-1.302 0-2.598.089-3.775-.144-.151-4.899-.081-10.402.048-15.341 2.554-.364 5.671.059 8.267-.191.33-.686.191-1.526.191-2.294 0-5.425-.05-11.498.144-16.87 8.123-.198 17.566-.114 25.617.094z"/></g></svg>