<svg enable-background="new 0 0 77.058 78.056" viewBox="0 0 77.058 78.056" xmlns="http://www.w3.org/2000/svg"><g clip-rule="evenodd" fill-rule="evenodd"><path d="m37.341.217c.066 18.782.297 38.126.192 57.24-.014 2.553.053 4.884-.337 6.842-1.148 5.764-4.707 9.777-9.637 12.045-1.663.766-3.591 1.375-5.733 1.541-2.166.168-4.58.048-7.179.048-4.755 0-9.619-.054-14.358-.096-.022-.043-.042-.087-.097-.097-.207-18.96-.192-39.004-.192-58.492 0-2.043-.014-3.891.337-5.589.987-4.774 3.654-8.101 7.131-10.551 2.332-1.644 5.467-2.85 8.962-3.036 3.509-.186 7.08.048 10.6.048 3.505 0 6.968-.101 10.311.097z"/><path d="m76.994 77.885c-1.86.261-3.887.145-5.975.145-1.993 0-4.03-.048-6.023-.048-4.112 0-8.204.319-11.709-.386-6.199-1.247-10.938-5.857-12.768-11.612-1-3.144-.771-7.497-.771-11.419 0-11.561-.048-21.513-.049-33.004 0-.967-.116-1.954.144-2.891 5.982-.132 12.234 0 18.357 0 1.977 0 3.984-.046 5.541.385 6 1.665 10.733 5.825 12.478 11.756.956 3.249.771 7.363.771 11.371.005 11.88.147 24.29.004 35.703z"/></g></svg>