<svg enable-background="new 0 0 80.772 81.507" viewBox="0 0 80.772 81.507" xmlns="http://www.w3.org/2000/svg"><g clip-rule="evenodd" fill-rule="evenodd"><path d="m80.768 40.51c-4.293.286-8.921.036-13.395.2-.27 1.017-.15 2.17-.15 3.299 0 3.328.082 7.036-.1 10.247-3.985.258-9.181.207-13.246.05-.178-4.613 0-8.843-.15-13.445-1.016-.322-2.186-.225-3.299-.2-3.102.071-6.648-.078-9.996.15-.254.763-.131 1.609-.15 2.399-.139 5.79.07 11.885 0 17.644-.073 5.988.05 12.097.05 18.193 0 .815.118 1.669-.15 2.449-4.181.116-8.043-.694-11.546-1.649-5.171-1.41-9.363-4.1-13.145-6.947-2.472-1.861-4.816-4.134-6.748-6.648-.98-1.275-2.011-2.602-2.749-3.949-.983-1.791-1.873-3.705-2.749-5.698-2.505-5.697-4.005-13.62-2.848-21.593 1.422-9.807 5.488-16.892 10.996-22.792 5.053-4.997 11.251-9.07 19.293-11.096 2.711-.683 5.643-.944 8.997-1.1 3.161-.146 6.758.386 9.397.95 8.325 1.781 14.657 5.895 19.743 10.846 3.322 3.427 6.235 7.392 8.347 12.096 2.085 4.645 3.694 10.105 3.598 16.594zm-3.348-12.295c-.892-1.902-1.766-3.825-2.899-5.448-4.627-6.628-10.378-11.693-18.594-14.795-1.983-.749-4.202-1.384-6.598-1.749-2.437-.372-5.022-.729-7.747-.6-5.32.252-10.054 1.571-14.045 3.399-7.848 3.595-13.788 9.287-17.744 16.744-.977 1.842-1.833 3.894-2.499 6.148-.664 2.249-1.392 4.653-1.549 7.098-.192 2.974-.14 5.784 0 8.397.136 2.541.814 4.957 1.449 7.197.613 2.161 1.482 4.198 2.5 6.098 1.018 1.902 2.056 3.775 3.299 5.348 5.115 6.471 11.302 11.62 20.643 13.895-.085-.346-.537-.429-.8-.55-.334-.153-.671-.309-1-.45-4.69-2.015-8.608-5.022-11.846-8.447-3.245-3.545-5.845-7.64-7.597-12.695-1.729-4.99-2.482-11.56-1.45-17.794 1.831-11.058 8.425-19.35 16.495-24.191 4.279-2.568 9.079-4.595 15.245-5.099 6.396-.522 12.447.775 17.194 2.849 7.015 3.065 12.321 8.099 16.194 14.295 1.248 1.996 2.089 4.304 3.149 6.398.036.071.02.318.2.25-.439-2.225-1.099-4.376-2-6.298zm-18.694-10.546c-2.841-.954-7.078-1.723-10.796-1.549-2.301.107-4.352.288-6.348.7-1.915.395-3.707.998-5.398 1.699-6.664 2.763-11.692 7.263-15.344 13.045-1.839 2.912-3.353 6.309-4.148 10.047-.88 4.135-1.083 8.853-.35 12.945 1.435 8.021 5.199 13.797 9.896 18.494 1.14 1.14 2.502 2.29 3.899 3.199 1.418.922 2.879 1.962 4.598 2.499-.158-.489-.687-.727-1.05-.999-2.899-2.179-5.437-4.755-7.497-7.748-2.339-3.396-4.324-7.494-5.098-12.346-1.84-11.519 2.271-20.427 7.447-26.44 2.684-3.119 6.063-5.564 10.046-7.397 1.949-.897 4.064-1.698 6.498-2.199 2.445-.503 5.098-.954 7.897-.75 11.007.804 17.756 5.319 23.192 11.696.445.595.992 1.369 1.45 1.949.142.181.291.552.549.4-3.781-8.222-10.284-14.171-19.443-17.245z"/><path d="m67.123 67.451c.224 1.059.04 2.525.1 3.749-1.697 1.819-3.801 3.313-5.998 4.648-1.1.668-2.226 1.316-3.449 1.899-1.173.56-2.417 1.25-3.799 1.399-.264-.87-.15-1.868-.15-2.849 0-2.86-.082-6.104.1-8.847 3.37-.147 7.071-.151 10.396-.1.97.016 1.929-.116 2.8.101z"/></g></svg>