<svg enable-background="new 0 0 59.047 76.147" viewBox="0 0 59.047 76.147" xmlns="http://www.w3.org/2000/svg"><g clip-rule="evenodd" fill-rule="evenodd"><path d="m29.406.007c4.522-.146 8.054 1.982 10.309 4.236 2.349 2.35 4.232 5.58 4.33 10.215.093 4.363-1.891 7.963-4.189 10.262-2.491 2.49-5.872 4.229-10.167 4.377-4.597.16-8.024-1.904-10.356-4.19-2.448-2.398-4.353-5.68-4.377-10.166-.025-4.637 1.794-8.057 4.142-10.404 2.43-2.427 5.522-4.174 10.308-4.33z"/><path d="m11.707 14.599c.278 5.584-.087 11.771.188 17.275.009.039.047.047.047.094 11.139.127 23.355.176 34.927 0 .25-.643.141-1.377.141-2.07.001-3.586 0-7.397 0-11.063.001-1.453-.114-2.9.142-4.236 3.767-.176 8.041-.113 11.72 0 .27 1.877.114 3.795.095 5.697-.138 13.102.276 27.312-.047 41.092-2.771.172-5.967.094-8.944.094-.988 0-1.992.113-2.871-.141-.227-5.34.059-11.514-.188-17.182-.66-.227-1.391-.156-2.071-.188-2.091-.092-4.331 0-6.543 0-8.762-.002-17.749-.074-26.36.094-.21 4.203-.094 8.832-.094 13.086 0 1.441.097 2.883-.142 4.236-2.677.138-5.807.048-8.755.048-.978 0-1.952.117-2.825-.094-.215-14.848-.093-28.939-.094-43.965 0-.934-.114-1.916.141-2.824 3.64-.144 7.964-.187 11.533.047z"/><path d="m29.453 46.702c.303.065.852 1.049 1.177 1.6 3.69 6.264 7.512 12.363 11.108 18.641.652 1.137 1.418 2.225 2.071 3.342.665 1.137 1.409 2.246 1.977 3.389.128.258.186.598.282.801.247.521.733.926.8 1.506-.847.254-1.771.143-2.636.143-10.909-.002-22.035.047-32.244-.096.08-.721.586-1.287.941-1.883 5.061-8.484 10.119-16.982 15.251-25.559.412-.686.81-1.364 1.273-1.884z"/></g></svg>