<svg enable-background="new 0 0 48.472 45.527" viewBox="0 0 48.472 45.527" xmlns="http://www.w3.org/2000/svg"><path d="m22.916.018c.753-.018 1.507-.012 2.26-.014.217-.039.226.231.225.384.031 6.131.023 12.262.049 18.393.043.554.048 1.111.046 1.668 2.373-.057 4.749-.025 7.123-.041-.05-3.984-.046-7.972-.048-11.958 2.651-.02 5.302-.013 7.953-.012.672-.019 1.33.142 1.998.191 1.689.283 3.344 1.107 4.416 2.471 1.225 1.476 1.753 3.495 1.453 5.385-.253 2.073-1.509 4.01-3.336 5.04-1.709.978-3.723 1.137-5.648 1.185-1.419-.004-2.838.007-4.257 0-.05.272-.086.547-.076.827.014 1.549.002 3.099.007 4.649.105 2.221.019 4.447.074 6.671-.805.118-1.62.033-2.43.079-.091-.497-.05-1.002-.059-1.502-.017-3.546-.01-7.093-.04-10.64-2.372.016-4.743.013-7.114.012-.024 4.346.011 8.691.013 13.037.069 1.089-.06 2.181.043 3.27.022.861.007 1.723.017 2.585.026.53-.287.984-.451 1.469-.24.801-.569 1.572-.843 2.362-.398-.977-.703-1.99-1.046-2.988-.177-.45-.175-.937-.156-1.412-.109-5.518-.056-11.04-.089-16.558-.009-.591.035-1.187-.067-1.771-1.679.049-3.359.009-5.038.034-.624.048-1.253.067-1.873-.025.013 4.069.034 8.138.014 12.207-.805.003-1.608.008-2.413.004-.099-4.046-.043-8.096-.077-12.144-3.113-.004-6.225.007-9.338.022-.77.066-1.485-.289-2.205-.505-.647-.304-1.378-.374-2.003-.724 1.077-.382 2.176-.694 3.255-1.07.309-.09.635-.093.955-.094 3.109-.009 6.219-.022 9.329-.028.004-2.165-.018-4.329-.013-6.493-.046-1.82-.083-3.645.001-5.463.812.032 1.626-.02 2.437.028-.022 2.89.016 5.78.004 8.671-.013 1.086.04 2.17.073 3.255 2.292.004 4.585-.012 6.877-.009.111-.552.035-1.108.028-1.663-.014-6.262-.027-12.523-.03-18.785zm12.127 10.64c.012 3.278.017 6.555.021 9.832 1.562-.008 3.124-.003 4.686-.003.855 0 1.715-.069 2.545-.282 1.078-.327 2.076-.954 2.78-1.839 1.407-1.842 1.219-4.766-.557-6.305-.596-.561-1.372-.852-2.119-1.146-1.032-.304-2.119-.254-3.181-.251-1.392-.004-2.783.003-4.175-.006z"/></svg>