<svg enable-background="new 0 0 12.409 9.585" viewBox="0 0 12.409 9.585" xmlns="http://www.w3.org/2000/svg"><path d="m0 .012h1.372c-.014 1.044-.001 2.089-.007 3.134 1.388-.003 2.775-.005 4.163.001-.002-1.045-.001-2.09-.001-3.136.455.002.91 0 1.366.001-.01 1.478 0 2.957-.005 4.436-2.295-.007-4.591-.002-6.886-.002.005-1.337.001-2.673.002-4.01-.001-.142.004-.283-.004-.424z"/><path d="m7.585 0c.092.061.171.139.247.219 1.526 1.524 3.054 3.046 4.577 4.573-.856.864-1.722 1.718-2.58 2.579-.15.142-.283.302-.45.426-.597.597-1.192 1.197-1.795 1.788 0-3.195-.002-6.39.001-9.585z"/><path d="m.004 5.125c2.296.003 4.592.002 6.888.001-.005 1.482-.005 2.964 0 4.446-.454-.001-.909.002-1.363-.002-.002-1.047-.005-2.095.001-3.143-1.388-.001-2.777.001-4.165-.001.004 1.048 0 2.096.002 3.143-.454.005-.909 0-1.363.003 0-1.482.001-2.965 0-4.447z"/></svg>