<svg enable-background="new 0 0 84.146 84.608" viewBox="0 0 84.146 84.608" xmlns="http://www.w3.org/2000/svg"><path clip-rule="evenodd" d="m84.003.207c.189 6.997.104 14.263.104 21.341 0 3.493-.13 7.016 0 10.463.131 3.509-.128 6.964 0 10.359.064 1.744 0 3.531 0 5.284 0 11.962.072 24.152-.104 36.776-1.661.238-3.384.156-5.076.156-26.274 0-52.365.137-78.783-.259-.244-3.446-.104-6.917-.104-10.412 0-6.953 0-13.923 0-20.926 0-16.863-.057-35.231.051-52.782-.008-.129.08-.162.156-.207 13.824.03 28.265.104 42.267.103 14.106-.001 28.052-.198 41.489.104zm-77.541 30.561c-.326.312-.207.792-.207 1.191 0 7.198-.091 14.49.103 21.548 1.883.163 4.449.168 6.268.052.297-.607.126-1.358.156-2.072.061-1.456.051-2.933.051-4.403 0-.741-.119-1.504.156-2.124 19.638.05 38.475-.16 58.22.052.298 2.759-.094 6.077.259 8.546.852.203 1.96.156 3.108.155 1.105 0 2.326.118 3.211-.155.41-3.604-.077-7.548.104-11.447.169-3.623.06-7.617-.104-11.136-.872-.275-2.024-.156-3.159-.156-1.115 0-2.29-.08-3.212.104-.13 1.979-.041 4.399-.104 6.527-.021.736.173 1.476-.155 2.072-17.392.204-34.371.106-51.072.104-2.428 0-4.845.115-7.2-.155-.273-2.677.161-5.812-.207-8.547-1.767-.339-4.358-.077-6.216-.156zm24.915.103c-3.417 0-7.757-.149-11.136 0-.445.505-.26 1.529-.26 2.434 0 .93-.077 1.942.104 2.642 13.671.322 27.539.101 41.334.104.884 0 1.79.123 2.643-.155.15-1.427.218-3.625-.053-4.973-10.954-.234-21.905-.053-32.632-.052zm28.23 17.56c-1.64.065-3.577-.067-5.024 0-2.822.131-5.741 0-8.65 0-8.616 0-17.491-.085-25.847.104-.207 1.441-.153 3.533 0 5.076 14.052.268 27.934.053 42.06.052.688 0 1.316.155 1.917-.104.17-1.448.17-3.576 0-5.024-1.386-.212-2.908-.166-4.456-.104z" fill-rule="evenodd"/></svg>