<svg enable-background="new 0 0 68.437 66.956" viewBox="0 0 68.437 66.956" xmlns="http://www.w3.org/2000/svg"><g clip-rule="evenodd" fill-rule="evenodd"><path d="m6.178.033c2.562-.251 4.66.985 5.888 2.462 1.34 1.609 1.722 3.997 1.593 6.708-.122 2.564-.048 5.55-.048 8.301-.001 3.042.111 5.264 1.061 7.238 1.742 3.622 5.399 5.778 8.493 8.156 1.538 1.182 3.189 2.324 4.777 3.522 1.558 1.176 3.198 2.541 4.682 3.62 1.629 1.185 3.125 2.258 4.777 3.571 1.512 1.2 3.012 2.815 3.427 4.874.456 2.261.193 5.42.193 8.107 0 3.043.014 5.312-1.158 7.143-1.157 1.807-2.796 2.907-5.213 3.137-3.724.353-6.285-2.36-6.948-5.405-.273-1.245-.193-2.439-.193-3.86 0-2.588.066-5.396 0-8.012-.074-2.928-.924-4.633-2.413-5.936-1.292-1.13-3.684-2.194-6.322-1.496-2.157.571-3.618 1.999-4.488 3.86-.872 1.866-.627 4.669-.627 7.674 0 1.46-.037 2.979-.048 4.15-.015 1.468.121 2.686-.193 3.86-.573 2.138-2.001 3.678-3.812 4.488-2.183.977-4.94.496-6.516-.627-1.46-1.042-2.795-2.758-2.943-5.357-.153-2.687-.048-5.442-.049-8.204 0-13.65-.094-27.512-.096-41.455-.002-2.931-.074-5.464 1.012-7.286.985-1.65 2.863-3.008 5.164-3.233z"/><path d="m66.117 1.915c1.022.975 1.805 2.078 2.123 3.619.332 1.603.145 3.626.145 5.598 0 15.022.05 29.109.049 44.785 0 2.058.049 3.967-.241 5.502-.564 2.984-2.763 5.184-5.937 5.502-3.39.339-6.063-1.819-6.997-4.344-.507-1.369-.483-3.212-.483-5.115 0-3.66.174-7.705.048-11.342-.196-5.683-3.325-7.853-6.756-10.424-3.205-2.401-6.613-4.888-9.846-7.287-2.054-1.525-4.276-3.299-6.515-4.922-2.303-1.671-4.15-3.493-4.295-7.142-.068-1.711.057-3.562 0-5.357-.059-1.847-.089-3.772.192-5.405.506-2.929 2.816-5.34 6.081-5.55 3.792-.242 6.668 2.517 7.19 5.647.426 2.546.146 5.955.146 8.542 0 3.102-.085 5.901 1.206 7.771 1.187 1.716 3.159 3.174 5.888 3.088 3.681-.115 6.506-2.838 6.708-6.708.146-2.771.001-6.046 0-8.977 0-1.51-.056-2.961.241-4.198.541-2.252 2.271-3.97 4.296-4.682 2.38-.836 5.136-.26 6.757 1.399z"/></g></svg>