<svg enable-background="new 0 0 83.134 59.297" viewBox="0 0 83.134 59.297" xmlns="http://www.w3.org/2000/svg"><g clip-rule="evenodd" fill-rule="evenodd"><path d="m49.144.116c.271 1.087.152 2.276.152 3.454 0 3.576.025 7.134.101 10.618.422.086.765-.375 1.017-.609.885-.824 1.718-1.852 2.591-2.744 1.176-1.201 2.37-2.421 3.556-3.607 2.398-2.397 4.736-4.888 7.164-7.164 6.372.126 12.73-.154 19.204.102.259 2.381.152 4.932.151 7.519 0 6.831.079 14.125 0 20.627-.008.653.125 1.282 0 1.778-.178.709-1.061 1.366-1.625 1.93-.666.666-1.22 1.287-1.778 1.778-3.32 3.276-6.573 6.726-9.906 10.059-.178.177-.39.626-.763.458-.213-9.598.071-19.754-.203-29.416-1.527-.276-3.17-.153-4.775-.152-4.639.001-9.67-.147-14.53 0-.27.604-.152 1.362-.152 2.083 0 2.062.083 4.51-.101 6.452-5.014.189-10.315.223-15.241 0-.399-2.513.065-5.891-.254-8.484-6.195-.298-13.207-.005-19.153-.254.031-.467.475-.728.763-1.016 2.021-2.021 3.999-4.273 6.045-6.35 2.362-2.363 4.518-4.931 7.012-7.164 6.834.019 13.802-.09 20.725.102z"/><path d="m14.089 14.95c.331.374.203 1.065.203 1.727-.001 9.465-.049 18.579.101 27.688 1.517.338 3.13.135 4.726.152 4.562.049 9.667.107 14.631 0 .414-2.689-.14-5.826.203-8.637 4.873-.125 10.6-.109 15.241 0 .273 1.245.152 2.764.152 4.268 0 1.487-.079 3.019.102 4.318 1.486.261 3.096.152 4.674.152 4.794 0 9.737.013 14.479.152.045.466-.453.696-.711.965-3.757 3.911-7.296 7.853-11.228 11.787-.494.493-1.295 1.521-1.829 1.676-.625.182-1.679.051-2.541.051-6.078 0-12.46.13-18.289-.102-.235-2.121-.152-4.51-.152-6.909 0-2.403.042-4.851-.051-7.164-.519-.14-.652.529-1.067.661-4.338 4.569-8.683 9.132-13.259 13.463-6.484-.039-12.837.147-19.356-.102-.236-9.848-.035-20.134-.101-30.177 4.447-4.799 9.243-9.249 13.869-13.87.037-.047.092-.077.152-.102.017.003.035.003.051.003z"/><path d="m29.838 18.303c.273 1.345.152 2.967.152 4.572.001 1.574-.082 3.19.103 4.572.887.269 1.864.153 2.794.152 5.858-.001 11.568.001 17.426 0 .916 0 1.873.119 2.743-.152.302-2.797-.099-6.297.203-9.094 1.08-.203 2.714-.116 3.76.051.167 7.443.171 15.019 0 22.506-1.147.123-2.598.136-3.709-.051-.431-2.805.112-6.349-.203-9.195-7.583-.185-15.591-.119-22.913-.051-.371.56-.162 1.365-.152 2.083.031 2.284-.046 4.989-.152 7.163-1.006.141-2.784.224-3.708-.051-.225-3.471-.081-7.318-.101-11.329-.015-2.757-.118-5.593-.052-8.535.019-.796-.075-2.231.153-2.591.037-.047.092-.077.151-.102 1.154.034 2.436-.064 3.505.052z"/></g></svg>