<svg enable-background="new 0 0 83.748 35.055" viewBox="0 0 83.748 35.055" xmlns="http://www.w3.org/2000/svg"><g clip-rule="evenodd" fill-rule="evenodd"><path d="m35.436 11.804c-2.191.051-4.86.148-6.97-.05.002-.971.48-1.828.847-2.639 1.09-2.416 2.531-4.565 4.53-6.124 2.243-1.749 5.626-2.901 9.311-2.987 2.965-.069 5.524.657 7.667 1.743 2.071 1.049 3.847 2.617 4.83 4.58.372.743.788 1.785.696 2.838-.162 1.86-2.397 3.389-4.381 2.24-.869-.503-1.326-1.488-1.892-2.39-1.006-1.602-2.4-2.849-4.681-3.236-1.747-.297-3.545-.033-4.929.548-2.3.966-3.644 2.978-5.028 5.477z"/><path d="m25.579 11.755c-.936.294-2.154.113-3.286.149-1.124.035-2.259.141-3.137-.1-.049-2.299-.273-5.467-.1-7.717.137-1.771 1.399-3.213 3.286-3.286 1.462-.058 3.108 1.111 3.286 2.489.15 1.167.05 2.777.05 4.281 0 1.488.08 2.968-.099 4.184z"/><path d="m77.557 11.605c-.409.255-.916.102-1.444.1-1.466-.01-3.228.189-4.58-.05-.404-.516-.262-1.859-.995-1.843-.744.019-.515 1.509-1.096 1.893-1.934.026-4.15.21-5.925-.05.058-1.023.589-2.068.995-3.137 1.212-3.181 1.748-7.371 5.775-7.667 1.482-.109 2.988.337 3.834 1.244 1.023 1.098 1.465 2.873 1.991 4.482.551 1.677 1.171 3.187 1.445 5.028z"/><path d="m6.461 11.854c-1.841.264-4.264.122-6.273 0-.152-.451-.036-.893-.05-1.394-.056-2.003-.248-5.051-.05-6.82.151-1.351 1.461-2.517 2.788-2.639 1.733-.161 2.626.807 3.336 1.792.204.558.388 1.201.398 1.891.032 2.274.039 4.966-.149 7.17z"/><path d="m68.645 14.244c-.121.979-.395 1.887-.697 2.738s-.499 1.738-.945 2.489c-1.978.051-4.429.147-6.323-.05.146-.867.533-1.736.847-2.639.305-.88.562-1.821.995-2.589 1.46-.143 3.26.021 4.78-.05.471-.02.969-.165 1.343.101z"/><path d="m78.354 14.144c.476.765.644 1.679.945 2.539.295.842.682 1.705.747 2.688-.726.293-1.609.072-2.489.1-1.23.039-2.453.085-3.685-.05-.434-.731-.635-1.694-.896-2.589-.263-.897-.687-1.819-.598-2.688 1.879-.082 4.098-.082 5.976 0z"/><path d="m58.14 19.422c-3.626.263-7.99.149-11.999.149-1.381 0-2.801.234-3.834-.1-2.155-.695-2.497-4.125-.349-5.078.683-.303 2.015-.199 3.137-.199 3.389-.001 6.579.153 9.858 0 .081-.004.084-.042.149-.05 3.296-.395 3.625 2.354 3.038 5.278z"/><path d="m25.529 14.393c.124 1.541.232 3.764 0 5.178-8.054.248-16.985.202-25.292.05-.129-1.54-.226-3.61-.05-5.128.93-.264 1.919-.149 2.888-.149 2.948-.001 5.968.001 9.012 0 4.001-.001 8.077.128 11.899-.05.44-.021 1.165-.177 1.543.099z"/><path d="m34.74 14.343c.132.716-.085 1.625-.149 2.539-.064.908-.001 1.858-.1 2.639-.331.268-.775.117-1.194.1-1.783-.074-3.979.259-5.577-.1-.141-1.483-.303-3.932.249-5.178.037-.047.091-.075.149-.1 2.177.064 4.61-.129 6.622.1z"/><path d="m66.156 21.961c-.43 1.82-1.042 3.659-1.644 5.476-.291.881-.573 1.801-.846 2.689-.267.872-.544 1.87-.946 2.59-.78 1.395-2.974 2.266-4.63 1.194-.985-.637-1.674-1.669-1.494-3.286.083-.741.48-1.466.747-2.24.729-2.122 1.51-4.495 2.34-6.473 2.096-.092 4.371-.168 6.473.05z"/><path d="m74.769 21.861c1.895-.05 4.262-.148 6.074.05.38.221.366.725.498 1.096.669 1.883 1.272 3.875 1.892 5.925.243.805.598 1.674.498 2.589-.317 2.911-4.522 3.681-5.925 1.294-.413-.701-.598-1.734-.896-2.688-.717-2.289-1.412-4.523-2.091-6.87-.126-.438-.375-.979-.05-1.396z"/><path d="m57.742 21.961c-.032 1.923-.77 3.603-1.544 5.078-1.562 2.979-3.79 5.312-7.02 6.722-2.132.932-4.399 1.467-7.319 1.245-2.03-.154-3.789-.722-5.327-1.395-2.974-1.301-5.239-3.751-6.771-6.572-.392-.72-.712-1.501-.996-2.34-.274-.81-.695-1.685-.598-2.639 2.132-.186 4.647-.123 6.772-.05.488.95.733 1.926 1.244 2.788 1.591 2.687 5.09 5.438 9.609 4.183 2.584-.719 4.977-3.182 5.676-5.676.141-.502-.042-1.041.349-1.394 1.846-.05 4.161-.148 5.925.05z"/><path d="m25.529 22.11c.18 1.431.1 3.142.1 4.879 0 1.692.135 3.478-.05 4.93-.205 1.62-2.053 3.014-3.933 2.589-1.158-.262-2.385-1.438-2.54-2.937-.148-1.428 0-3.168 0-4.829.001-1.65-.126-3.292.1-4.631 1.366-.232 3.144-.028 4.68-.1.579-.027 1.185-.176 1.643.099z"/><path d="m6.51 22.161c.195 1.404.1 3.291.1 5.177 0 1.841.25 3.811-.149 5.079-.375 1.188-1.355 1.732-2.439 2.091-1.963.093-3.38-.802-3.784-2.34-.336-1.274-.1-3.207-.1-5.028 0-1.849-.079-3.665.1-5.029 2.046-.073 4.293-.157 6.272.05z"/></g></svg>