<svg enable-background="new 0 0 72.768 73.109" viewBox="0 0 72.768 73.109" xmlns="http://www.w3.org/2000/svg"><g clip-rule="evenodd" fill-rule="evenodd"><path d="m67.204 55.891c-.526-.409-.745-1.072-1.059-1.637-4.775-8.6-9.406-17.422-14.008-26.234-4.705-8.725-9.341-17.519-14.057-26.234-.151-.366-1.144-1.628-.433-1.732 1.481-.218 4.205.287 5.632.529 5.079.861 9.281 2.888 12.853 5.247 4.913 3.246 8.68 7.244 11.745 12.371 2.174 3.635 3.873 8.192 4.573 13.574.737 5.668.147 11.396-1.348 15.981-.487 1.492-1.116 2.91-1.733 4.284-.606 1.354-1.199 2.745-2.165 3.851z"/><path d="m33.99 34.519c-2.746.26-5.571.144-8.424.144-7.766.001-15.629-.143-23.443-.144-.658-.001-1.352.109-1.973-.144-.044-2.567.408-5.017 1.011-7.269 1.765-6.59 5.091-11.928 9.29-16.126 2.794-2.793 5.859-5.31 9.724-7.221 1.871-.925 3.914-1.738 6.114-2.358 2.25-.635 4.793-1.061 7.268-1.348.716-.083.529 1.182.529 1.732 0 10.905.08 22.2-.096 32.734z"/><path d="m37.022 73.076c-.187-11.049-.096-22.456-.096-33.84-.001-11.353-.007-22.733.048-33.646.041-.04.028-.133.096-.145h.097c5.643 10.143 11.251 20.82 16.895 31.385.289.54.678 1.037.915 1.588.998 2.321 2.335 4.433 3.514 6.642 1.739 3.26 3.528 6.584 5.344 9.916.275.508.536 1.037.866 1.685.269.527.825 1.299.818 1.685-.009.435-.738 1.199-1.107 1.637-2.875 3.404-6.408 6.423-10.35 8.616-2.346 1.306-4.863 2.39-7.701 3.177-2.798.776-5.911 1.499-9.339 1.3z"/><path d="m33.942 37.599c.293 1.408.115 2.87.096 4.332-.059 4.483.152 9.073 0 13.479-.102 2.924-.003 5.872.048 8.761.04 2.216 0 4.364 0 6.739 0 .703.112 1.441-.143 2.118-5.318-.192-9.835-1.706-13.72-3.658-3.898-1.959-7.17-4.463-10.012-7.413-5.196-5.394-9.322-12.754-10.11-22.624-.047-.603-.249-1.297.097-1.878 11.185-.081 22.514.11 33.744.144z"/></g></svg>