<svg enable-background="new 0 0 75.832 57.944" viewBox="0 0 75.832 57.944" xmlns="http://www.w3.org/2000/svg"><path clip-rule="evenodd" d="m7.165.164c.284 7.437-.104 15.812.199 23.171.675-.149 1.095-.726 1.591-1.094 2.798-2.078 7.063-3.822 12.083-3.63 6.852.263 11.85 3.47 15.017 7.608.462.605.798 1.305 1.392 1.79-1.013-2.944-1.757-6.138-1.193-9.945.363-2.45 1.127-4.648 2.188-6.563.243-.438.802-1.587 1.243-1.641.433-.053 1.254.598 1.591.796 1.071.629 1.828 1.109 2.983 1.79.362.213 1.316.62 1.393.994.065.324-.285.674-.497 1.045-1.25 2.178-2.041 5.515-1.293 8.851.729 3.254 2.89 5.161 5.32 6.912 2.386 1.324 5.745 2.321 9.298 1.641 3.051-.584 5.523-2.258 7.16-4.127 1.288-1.56 2.275-3.437 2.735-5.768 1.07-5.433-1.801-9.721-4.774-11.884-1.664-1.211-3.713-1.849-6.116-2.337-2.448-.497-5.025-.481-7.807-.497-8.17-.047-17.291.043-24.912-.199-.151-2.087-.213-4.502-.05-6.613 1.763-.232 3.582-.162 5.42-.149 7.46.049 15.094.1 22.725.1 5.632 0 10.421.929 14.071 3.132 4.667 2.816 8.134 7.488 8.801 14.171.64 6.396-1.904 11.727-4.872 15.066-2.123 2.389-5.033 4.424-8.603 5.47-2.977.872-6.498 1.13-9.994.547-4.802-.802-8.27-2.949-11.089-5.768-.949-.949-1.669-2.052-2.635-2.983.477 1.562 1.02 3.116 1.292 4.873.925 5.954-.79 11.125-3.231 14.619-3.341 4.78-8.486 8.248-16.11 8.404-.225-1.028-.205-2.345-.15-3.531.056-1.21-.116-2.416.1-3.48 3.738-.539 6.561-1.606 8.601-3.68.499-.507.948-1.188 1.393-1.79 1.303-1.765 2.223-4.208 2.337-7.061.109-2.718-.95-5.521-2.187-7.259-.425-.597-.844-1.269-1.343-1.79-2.666-2.786-7.552-4.56-12.779-3.282-1.286.315-2.764 1.139-3.778 1.89-1.123.831-2.091 1.709-2.884 2.735-1.686 2.18-2.46 5.043-2.586 8.652-2.127.167-4.934.163-7.061 0-.194-.731-.149-1.55-.149-2.337 0-9.446 0-17.753 0-27.05 0-2.354.103-4.826.05-7.508-.016-.761-.138-2.068.148-2.34.037-.046.091-.075.149-.1h3.53c1.148 0 2.329-.085 3.283.149z" fill-rule="evenodd"/></svg>