<svg enable-background="new 0 0 57.32 70.422" viewBox="0 0 57.32 70.422" xmlns="http://www.w3.org/2000/svg"><g clip-rule="evenodd" fill-rule="evenodd"><path d="m57.147.09c.346 22.843-.065 44.916.146 68.281.006.651.112 1.337-.146 1.95-19.079.104-38.043.165-56.974 0-.262-19.685.051-41.456-.146-61.557-.028-2.87-.084-5.75.146-8.578 18.647-.284 38.018-.18 56.974-.096zm-50.931 6.091c-.166 1.096-.14 2.238-.097 3.363.047 1.206-.049 2.429-.049 3.656 0 2.375.049 4.788.049 7.213-.001 13.381-.21 27.385.049 40.306.023 1.161-.235 2.369.097 3.509 3.659.153 7.41.173 11.209.098 9.219-.183 18.915 0 28.316 0 1.812 0 3.604.051 5.312-.146.23-1.089.104-2.236.146-3.363.046-1.224 0-2.455 0-3.704 0-7.532-.049-14.578-.049-21.737 0-8.293-.001-17.077 0-25.636 0-1.191.118-2.431-.146-3.607-14.94-.059-30.056-.198-44.837.048z"/><path d="m18.352 12.176c.261 4.243-.037 8.827.244 12.867 1.599.264 3.312.146 5.02.146 5 0 10.371.08 15.255-.098.318-.957.195-2.075.195-3.168 0-1.087-.015-2.195 0-3.265.03-2.179-.239-4.47.098-6.482 1.73-.188 3.99-.102 5.8-.049.224 1.229.128 2.527.097 3.802-.095 3.928.049 8.091.049 12.184 0 5.4.081 10.897-.098 16.132-1.607.123-4.102.188-5.848 0-.178-2.07-.098-4.347-.098-6.531 0-2.17.103-4.373-.146-6.336-1.584-.265-3.284-.146-4.971-.146-5.027-.001-10.324-.04-15.304.049-.256.771-.147 1.609-.147 2.437 0 5.811-.08 12.124.098 17.838 1.053.265 2.182.146 3.266.146 7.749 0 15.426.038 23.15.098.175 1.766.238 4.138.049 5.946-9.464.22-18.708.098-28.609.097-1.32 0-2.625.139-3.85-.097-.234-.852-.146-1.777-.146-2.681 0-6.625 0-13.483 0-20.177 0-5.696 0-11.32 0-17.156 0-1.863-.219-3.734.098-5.556 1.728-.142 4.074-.175 5.798 0z"/><path d="m31.852 12.176c.192 1.743.1 4.025.049 5.849-1.713.161-4.087.162-5.799 0-.258-1.204-.146-3.064-.146-4.581 0-.481-.127-1.061.244-1.316 1.76-.051 3.972-.143 5.652.048z"/><path d="m31.901 38.397c.161 1.726.163 4.123 0 5.848-1.701.136-4.178.218-5.799-.049-.172-.74-.098-1.744-.098-2.875 0-.885-.107-2.429.146-2.875.036-.046.089-.074.146-.098 1.853.032 3.834-.064 5.605.049z"/></g></svg>