<svg enable-background="new 0 0 77.275 77.67" viewBox="0 0 77.275 77.67" xmlns="http://www.w3.org/2000/svg"><path clip-rule="evenodd" d="m25.599.197c.293 8.435-.024 16.945.24 25.681 16.386.316 34.211-.035 51.266.289.218 16.963.218 34.22.048 51.41-8.067.172-17.14.077-25.439-.048-.262-.985-.144-2.049-.144-3.084 0-7.425.082-15.104-.097-22.356-.964-.342-2.061-.193-3.132-.193-7.633 0-15.122-.083-22.452.048-.288 8.266.095 17.22-.192 25.536-4.138.025-8.571.241-12.721.048-4.384-.204-8.642.238-12.768-.145-.149-12.926-.144-25.875-.145-38.833-.001-9.811-.064-19.4 0-29.102.02-3.128-.207-6.226.096-9.299.776-.124 1.76-.142 2.554-.145 7.613-.024 15.361.061 22.886.193z" fill-rule="evenodd"/></svg>