<svg enable-background="new 0 0 77.143 62.856" viewBox="0 0 77.143 62.856" xmlns="http://www.w3.org/2000/svg"><path clip-rule="evenodd" d="m77.063 15.473c-1.155.861-2.528 1.357-3.809 2.024-2.547 1.33-5.165 2.516-7.76 3.905-3.781 2.024-7.682 3.926-11.569 5.881-1.932.971-3.815 1.966-5.784 2.94-.623.308-1.33.558-1.831 1.06.523.484 1.202.78 1.831 1.109 3.153 1.646 6.512 3.37 9.737 4.965 1.291.638 2.624 1.227 3.808 2.024 4.547 2.25 9.023 4.647 13.594 6.941.607.306 1.345.535 1.783 1.109.088 2.5.048 5.14.048 7.761 0 2.617.111 5.26-.145 7.664-1.373-.447-2.644-1.135-3.952-1.735-1.279-.585-2.555-1.202-3.809-1.831-2.553-1.283-5.215-2.285-7.712-3.615-2.487-1.325-5.098-2.47-7.664-3.664-1.283-.597-2.563-1.181-3.856-1.783-1.278-.596-2.531-1.324-3.904-1.735-.331.414-.193 1.02-.193 1.542v8.436c0 1.126.114 2.241-.144 3.229-4.964.148-10.585.083-15.665-.048-.25-6.602.026-13.98-.146-20.823-.407-.503-1.068-.709-1.639-.964-2.874-1.286-5.806-2.764-8.677-4.146-1.142-.549-2.248-1.236-3.47-1.542-.26.457-.148 1.042-.146 1.542.031 8.442.023 17.295-.144 25.885-4.443.177-9.265.048-13.835.048-.64 0-1.298.112-1.88-.145-.11-7.575-.094-15.151-.094-22.704 0-7.636.147-15.25 0-22.751-.102-5.11.033-10.148.144-15.184 2.413-.188 5.102-.097 7.81-.097 2.684.001 5.411-.087 7.857.145.304 8.928-.12 18.394.24 27.282.659.021 1.229-.402 1.783-.675 1.729-.848 3.487-1.608 5.206-2.458 1.146-.566 2.308-1.13 3.471-1.639 1.149-.503 2.367-.934 3.374-1.687.069-3.383.048-6.935.049-10.46 0-3.518-.117-7.073.145-10.363 4.947-.07 10.553-.181 15.666.048.175 3.124.096 6.674.096 10.026 0 1.098-.115 2.2.145 3.181.729-.076 1.381-.484 2.024-.771 1.866-.832 3.797-1.758 5.736-2.651 2.505-1.152 5.056-2.29 7.616-3.519.618-.297 1.194-.679 1.832-.964 3.158-1.415 6.346-2.929 9.544-4.434.58-.273 1.274-.54 1.928-.868.624-.313 1.288-.725 1.88-.868.045-.01.087-.096.192-.096.513.003.337 1.285.337 1.687 0 2.051-.053 4.049 0 5.881.092 3.162-.042 5.527-.048 7.905z" fill-rule="evenodd"/></svg>