<svg enable-background="new 0 0 75.259 75.837" viewBox="0 0 75.259 75.837" xmlns="http://www.w3.org/2000/svg"><g clip-rule="evenodd" fill-rule="evenodd"><path d="m46.102 8.387c.668.779 1.371 1.316 2.13 2.13.208.224.562.57.568.805.012.46-1.168 1.449-1.467 1.751-3.236 3.266-6.42 6.326-9.703 9.609-.388.387-1.502 1.306-1.515 1.704-.014.426 1.086 1.362 1.515 1.799 6.051 6.173 12.139 12.139 18.223 18.223 1.582 1.582 3.157 3.388 4.922 5.018.331.305 1.562 1.376 1.562 1.751 0 .41-1.205 1.394-1.467 1.657-.577.577-1.119 1.027-1.562 1.515-7.257 7.131-14.3 14.479-21.678 21.489-1.183-.667-1.866-1.865-2.793-2.792-2.766-2.767-5.579-5.581-8.283-8.473.884-1.246 2.083-2.177 3.124-3.266 1.617-1.495 3.162-3.115 4.828-4.781 1.139-1.139 2.313-2.408 3.55-3.644.312-.312 1.086-.943 1.088-1.278.004-.468-1.133-1.334-1.562-1.751-.553-.539-1.161-1.141-1.657-1.657-.282-.294-.466-.658-.71-.947-.723-.854-1.699-1.651-2.509-2.461-2.234-2.234-4.456-4.503-6.579-6.626-3.794-3.794-7.657-7.704-11.549-11.597-.418-.418-1.515-1.34-1.515-1.751 0-.476 1.05-1.192 1.467-1.609 1.561-1.561 3.05-3.192 4.544-4.686 2.096-2.096 4.283-4.002 6.201-6.059 2.82-3.023 6.02-6.264 9.183-9.277.958-.913 1.834-2.394 2.982-3.124.435-.276.95.524 1.325.899 2.428 2.426 5.039 5.062 7.337 7.429z"/><path d="m11.455 26.421c.04-.008.044.019.047.047.574.356 1.017.875 1.467 1.326 2.759 2.759 5.524 5.524 8.378 8.378.413.413 1.278 1.089 1.278 1.467 0 .424-1.02 1.162-1.373 1.515-2.935 2.935-5.76 5.547-8.615 8.567-.34.359-1.015 1.343-1.467 1.372-.418.027-.998-.809-1.325-1.136-2.862-2.862-5.705-5.734-8.52-8.567-.162-.423-1.313-.834-1.325-1.466-.009-.459.949-1.139 1.325-1.515 3.255-3.255 6.796-6.797 9.94-9.94.099.02.126-.033.19-.048z"/><path d="m67.071 29.687c1.471 1.417 2.757 2.742 4.212 4.118.932.88 2.049 2.101 3.029 3.219.264.3.946.786.947 1.136.001.405-.96 1.176-1.278 1.562-.494.6-1.005 1.004-1.42 1.42-2.458 2.458-4.701 4.572-7.1 7.1-.336.354-1.144 1.317-1.515 1.325-.354.008-1.261-1.024-1.515-1.278-1.429-1.429-2.663-2.825-4.166-4.212-1.461-1.614-2.657-2.705-4.165-4.213-.32-.32-1.301-1.09-1.325-1.467-.025-.387.918-1.107 1.325-1.515l8.473-8.473c.455-.455.95-1.044 1.467-1.372.471-.299 1.247.821 1.656 1.23.549.547 1.069 1.005 1.375 1.42z"/></g></svg>