<svg enable-background="new 0 0 77.571 79.2" viewBox="0 0 77.571 79.2" xmlns="http://www.w3.org/2000/svg"><g clip-rule="evenodd" fill-rule="evenodd"><path d="m67.146.188c.243 11.005.149 22.466.152 33.937.002 11.551.11 22.714 0 34.039-.046.022-.091.045-.102.102-15.43.047-31.192.161-46.588-.102-.262-15.327-.203-31.984-.101-46.942.766-.272 1.63-.153 2.438-.153 5.146 0 10.15.001 15.292 0 .797 0 1.636-.114 2.389.153.168 5.065.169 10.836 0 15.901-.882.209-2.483.145-3.455.051-.274-1.896-.152-4.086-.152-6.198 0-2.111.092-4.245-.102-6.147-3.996-.024-8.75-.206-12.803 0-.274.756-.152 1.59-.152 2.388-.001 12.499-.082 25.215.152 37.239 1.575.27 3.219.153 4.826.152 11.486-.001 23.111.014 34.547 0 .36-1.03.203-2.34.203-3.657.002-18.34-.101-38.293-.152-57.002-1.157-.327-2.412-.204-3.607-.204-18.941.001-37.701-.126-56.088 0-.273.708-.151 1.486-.151 2.235 0 5.405-.001 10.855 0 16.46 0 15.614.052 31.359.051 47.196-.001 3.116.19 6.226-.102 9.298-.998.143-2.475.239-3.404 0-.203-25.564-.205-50.837-.204-76.612 0-.74-.155-1.583.203-2.286 22.414 0 44.757-.146 66.91.152z"/><path d="m77.407.239c.193 25.91.199 52.262.102 78.848-5.521.166-11.099.102-16.714.102-16.879-.001-33.541-.088-50.296-.203-.237-22.884-.272-45.205-.102-68.026 11.67-.188 23.585-.05 35.105-.051 2.933-.001 5.844 0 8.891 0 .934 0 1.893-.122 2.794.152.301 11.39.076 23.65.102 35.41.008 3.9.184 7.797-.102 11.583-6.355.204-13.682.113-20.169-.051-.049-3.821-.266-8.065-.153-12.091.038-1.331-.147-2.643.153-3.861 1.007-.055 2.48-.146 3.403.051.406 3.743-.071 8.369.254 12.193 1.89.251 4.145.152 6.351.152 2.194 0 4.456.089 6.503-.103.298-3.067.102-6.312.102-9.602.002-9.922.057-20.441-.102-29.974-.754-.279-1.6-.153-2.388-.153-11.941-.001-25.201-.149-37.036 0-.344 1.193-.084 2.434-.102 3.658-.269 18.77.09 37.732.102 56.951 1.167.36 2.434.203 3.658.203 19.039.002 37.932.084 56.036 0 .323-1.494.11-3.036.103-4.572-.025-4.643.047-9.333 0-14.022-.184-18.191-.054-36.007-.051-54.411 0-.746-.096-2.01.152-2.235.037-.048.092-.077.152-.102 1.165.079 2.351-.121 3.252.154z"/></g></svg>