<svg enable-background="new 0 0 81.79 81.608" viewBox="0 0 81.79 81.608" xmlns="http://www.w3.org/2000/svg"><g clip-rule="evenodd" fill-rule="evenodd"><path d="m81.664.168c.243 26.726.05 54.754.104 81.219-.781.277-1.64.155-2.436.155-9.302.001-18.846.052-28.177.052-16.786.001-34.248.095-50.865-.207-.084.015-.09-.049-.156-.052-.187-27.052-.154-54.591-.05-81.116-.025-.162.13-.146.207-.207 10.149-.058 20.518.105 30.612.104 15.944-.001 32.022-.052 48.119-.052.995 0 2.008-.078 2.642.104zm-39.936 16.835c-.188 6.643-.104 13.921-.104 20.667 0 .963.121 1.945-.155 2.849-6.787.255-13.228.104-20.046.104-.943 0-1.94.126-2.849-.155-.346-7.124.093-14.722-.052-22.014-.008-.376.118-.987-.363-1.141-.469.215-.311.812-.311 1.192 0 15.598-.09 31.006.104 46.514.669-.207 1.137-.826 1.605-1.295 2.442-2.441 4.889-4.836 7.304-7.252 4.374-4.371 8.822-8.782 13.105-13.156.448-.459.822-1.191 1.554-1.295.31 7.439-.103 15.562.207 22.946.385.112.668-.306.881-.518 7.555-7.558 15.163-15.246 22.531-22.896.228-.235.64-.471.57-.88-6.589-.13-14.15-.051-21.392-.052-.422 0-.968.126-1.347-.155.209-.631.806-1.013 1.243-1.451 1.386-1.385 2.727-2.727 4.092-4.092 5.483-5.481 10.932-10.93 16.368-16.419.322-.599 1.233-.866 1.243-1.606-7.581-.065-16.395-.172-24.188.105z"/><path d="m64.468 17.52c-.192.65-.792 1.103-1.243 1.554-3.184 3.184-6.41 6.512-9.635 9.737-3.224 3.227-6.488 6.438-9.737 9.687-.451.451-.887 1.009-1.503 1.243-.172-7.108-.172-14.955 0-22.117.871-.275 1.835-.156 2.745-.155 6.54-.001 13.118-.152 19.373.051z"/><path d="m64.261 41.295c-.165.635-.757 1.067-1.191 1.502-1.355 1.356-2.639 2.846-4.04 4.248-5.058 5.06-10.135 10.187-15.229 15.28-.428.428-.794 1.07-1.451 1.191-.172-7.109-.172-14.955 0-22.118 2.968-.492 6.273.124 9.376-.154.079-.008.093-.052.155-.053 4.117-.04 8.341-.056 12.38.104z"/><path d="m40.692 41.295c-.027.582-.688 1.035-1.088 1.451-6.317 6.561-13.038 13.018-19.476 19.527-.476.438-.797 1.033-1.502 1.243-.277-1.174-.155-2.524-.155-3.833 0-4.96.052-9.612.052-14.814 0-1.044-.24-3.027.155-3.523.038-.048.095-.078.155-.102 7.353.041 14.562-.07 21.859.051z"/></g></svg>