<svg enable-background="new 0 0 161.291 148.867" viewBox="0 0 161.291 148.867" xmlns="http://www.w3.org/2000/svg"><g clip-rule="evenodd" fill-rule="evenodd"><path d="m75.566.58c.193 8.152 0 16.466 0 24.616 0 2.782.08 5.595-.043 8.407-.123 2.815.125 5.653 0 8.494-.368 8.37.25 16.803-.217 25.049-.038.019-.077.038-.086.086-14.315-.051-29.264-.036-43.554-.303-.008-.035-.043-.043-.043-.086-.145-12.771.158-26.137 0-39.09-.731-.307-1.61-.138-2.47-.174-2.472-.104-5.317-.165-7.67.043-.187.904-.13 1.862-.13 2.774 0 4.902.008 9.436-.086 14.388-.037 1.915-.066 3.855 0 5.764.134 3.872 0 7.733 0 11.614 0 18.931-.229 38.897-.13 58.158.745.197 1.616.209 2.514.173 1.98-.079 4.24.142 6.414.043.554-.025 1.069.119 1.387-.086.217-13.067.087-26.494.087-39.784 0-.839-.099-1.699.086-2.514 1.683-.219 3.495-.086 5.417-.086 12.566 0 25.652.14 38.18.26.018.038.037.077.086.086.126 23.012-.088 45.008-.086 68.169 0 .664.1 1.397-.174 2.037-9.372.194-18.746-.043-28.212-.043-15.673 0-31.125-.132-46.674-.173-.07.012-.075-.041-.13-.044-.143-36.938.26-73.709.26-110.942 0-11.46.13-23.324.13-35.103 0-.722-.029-2.008.173-2.211.032-.04.079-.065.13-.086 6.228.135 12.323-.129 18.505.043 6.235.173 12.472-.046 18.809.173 3.158.109 6.327.044 9.491.044 8.79 0 17.134.173 25.786.173.735.001 1.522-.099 2.25.131z"/><path d="m161.244 1.057c.107 9.191-.001 18.19 0 27.779.001 12.098-.172 24.605-.174 36.707 0 6.269-.043 12.546-.043 18.808 0 9.273-.086 18.349-.086 27.476 0 3.08-.107 6.194 0 9.274.104 3.032-.117 6.068-.044 9.101.075 3.11-.044 6.223-.044 9.361.001 3.073.089 6.181-.129 9.274-24.883.083-49.622-.022-74.54-.13-.001-.042-.054-.034-.087-.043-.232-1.07-.14-2.215-.086-3.337.054-1.147-.044-2.337-.044-3.51.001-4.712-.085-9.468.044-14.084.032-1.184-.013-2.344.043-3.51.055-1.146-.146-2.312.13-3.423 9.646-.136 19.673.043 28.862.043 2.598 0 4.83-.057 6.891-.433 5.963-1.089 10.492-4.179 13.738-8.191 2.134-2.638 3.888-5.967 5.07-9.578.611-1.866 1.027-3.908 1.213-6.11.384-4.543-1.009-9.033-2.34-12.178-.709-1.674-1.76-3.089-2.73-4.55-.95-1.431-2.305-2.603-3.684-3.64-.693-.522-1.393-1.033-2.167-1.474-.771-.439-1.644-.716-2.384-1.257.219-.413.742-.511 1.127-.693 1.202-.57 2.374-1.214 3.381-1.993 2.377-1.657 4.156-4.145 5.721-6.848 1.527-2.64 2.646-5.939 2.946-9.577.336-4.07-.386-7.881-1.387-11.008-1.026-3.203-2.73-5.697-4.55-7.974-3.574-3.638-7.895-6.393-14.215-7.324-2.07-.305-4.418-.255-6.848-.304-9.428-.187-19.229.122-28.299-.216-.051.007-.077-.01-.087-.043-.161-8.759-.008-17.901.044-26.522-.025-.155.05-.209.086-.303.035-.008.043-.044.087-.044 24.493.1 49.386.168 74.453.434.072-.015.076.038.132.04zm-1.344 118.31c-.025-.089.07-.301-.086-.26-.071.07-.052.272.086.26z"/><path d="m86.271 67.969c-.145-9.5.043-18.936.043-28.689 0-.534-.189-1.204.217-1.604 4.895.112 10.135-.058 15.342.087 5.188.144 10.449-.229 15.08.303 4.559.523 8.479 1.691 11.139 4.247 2.568 2.468 4.531 6.066 4.333 11.007-.292 7.315-3.958 11.338-9.664 13.435-1.896.697-4.075 1.168-6.37 1.3-7.125.408-15.025.086-22.622.086-1.917 0-3.845-.043-5.721-.043-.587.002-1.214.101-1.777-.129z"/><path d="m86.185 110.656c-.225-1.292-.087-2.645-.087-3.987 0-6.828.043-13.661.043-20.542 0-2.032.055-3.978.044-6.11-.003-.581-.157-1.251.173-1.777 4.741.102 10.299-.12 15.212.087 2.53.106 5.144-.052 7.671.043 2.526.095 5.187-.187 7.54.13 4.286.577 7.88 2.415 10.358 5.071 2.475 2.654 4.242 6.346 4.116 11.181-.121 4.643-1.813 8.574-4.333 11.094-2.621 2.621-5.92 4.385-10.531 4.854-2.449.249-5.006.173-7.541.173-7.364 0-15.045-.044-22.665-.217z"/></g></svg>