<svg enable-background="new 0 0 73.397 54.652" viewBox="0 0 73.397 54.652" xmlns="http://www.w3.org/2000/svg"><g clip-rule="evenodd" fill-rule="evenodd"><path d="m73.275.163c.192 17.258.1 35.132.099 52.899 0 .488.109 1.063-.148 1.531-23.294.079-49.307.092-73.052-.05-.264-1.09-.148-2.23-.148-3.358.001-16.633.049-32.414.049-49.59 0-.525-.11-1.096.148-1.581 24.353-.016 48.664-.056 73.052.149zm-4.643 2.618c-7.823 0-15.61-.049-23.264-.049-13.061 0-25.274 0-37.934 0-1.449 0-3.003-.231-4.248-.049-.639.093-.592.376-.592 1.185v4.692c-.001 12.589-.049 24.788-.049 37.044 0 2.037-.117 4.286.148 6.125.619.272 1.337.139 1.976.148.719.011 1.414.049 2.124.05 15.578 0 30.921-.001 46.824 0 5.719 0 11.427.116 16.941-.099.144-16.694.199-32.717.049-48.899-.623-.26-1.32-.148-1.975-.148z"/><path d="m17.658 9.696c.356 3.984-.13 9.03.198 13.385.963.27 2.261.198 3.507.198 1.267 0 2.555.073 3.655-.099.267-.962.148-2.169.148-3.358 0-3.27-.012-6.826.148-10.126 7.318-.191 15.243-.078 22.671.049.265 1.081.148 2.241.148 3.359 0 7.901-.183 16.277.05 24.301.962.336 2.297.197 3.556.197 1.266 0 2.552.076 3.605-.099.284-1.065.101-2.184.149-3.31.049-1.161 0-2.365 0-3.556 0-6.843-.101-14.312.148-20.893 2.263-.165 5.194-.161 7.459 0 .163 11.651.151 23.405 0 34.97-1.481.259-3.043.149-4.594.149-11.155 0-22.378.051-33.241-.149-.293-4.332.095-9.348-.197-13.682-1.012-.262-2.334-.148-3.606-.148s-2.592-.112-3.605.148c-.18 3.236-.099 6.921-.099 10.373 0 1.132.115 2.282-.148 3.309-2.161.164-5.002.165-7.162 0-.234-10.76-.049-22.164-.049-33.093 0-.637-.159-1.392.198-1.976 2.224-.049 4.918-.145 7.061.051zm15.658 6.914c-.333.841-.198 2.046-.198 3.211 0 1.163-.115 2.414.148 3.309 1.423.174 3.044.148 4.544.148.931 0 1.86.111 2.618-.148.164-1.914.164-4.507 0-6.421-2.205-.166-4.817-.185-7.112-.099zm-.05 14.374c-.263.876-.148 2.072-.148 3.21 0 1.141-.11 2.328.148 3.211 1.031.261 2.355.147 3.606.148 1.268 0 2.532.171 3.556-.099.166-1.918.161-4.502 0-6.421-2.058-.191-4.926-.234-7.162-.049z"/></g></svg>