<svg enable-background="new 0 0 15.864 41.634" viewBox="0 0 15.864 41.634" xmlns="http://www.w3.org/2000/svg"><path d="m7.908.009c1.309-.102 2.617.712 3.11 1.926.486 1.126.275 2.537-.565 3.44-.863.987-2.383 1.313-3.585.799-1.547-.586-2.327-2.525-1.739-4.05.419-1.16 1.527-2.067 2.779-2.115z"/><path d="m.232 6.908c5.21.035 10.421.055 15.632.111-.009 1.83-.043 3.66-.053 5.49-1.642.001-3.284-.023-4.926-.017-.025 2.023-.049 4.045-.062 6.067-1.908-.006-3.817-.006-5.725-.038.013-2.025.044-4.05.05-6.076-1.653-.029-3.307-.021-4.96-.039-.004-1.832.037-3.665.044-5.498z"/><path d="m5.052 23.097c1.908.007 3.816.02 5.723.035.012 2.027-.034 4.053-.032 6.079 1.642.041 3.285.019 4.927.043-.032 1.824-.026 3.649-.045 5.473-5.209-.021-10.417-.061-15.625-.101.01-1.825.013-3.651.044-5.476 1.655.001 3.31.031 4.965.03.022-2.028.032-4.056.043-6.083z"/><path d="m7.421 35.244c1.332-.181 2.709.609 3.256 1.831.538 1.16.339 2.662-.59 3.568-.941 1.027-2.592 1.304-3.804.606-.963-.564-1.666-1.619-1.648-2.757-.059-1.573 1.206-3.094 2.786-3.248z"/></svg>