<svg enable-background="new 0 0 32.164 32.452" viewBox="0 0 32.164 32.452" xmlns="http://www.w3.org/2000/svg"><path d="m6.851 2.982c5.181-3.816 12.689-4.006 18.009-.362 3.812 2.492 6.502 6.666 7.107 11.19.875 5.343-1.212 11.016-5.285 14.573-.553-.05-1.036-.357-1.534-.577 3.38-2.757 5.537-6.973 5.547-11.357.083-4.005-1.533-8.016-4.423-10.803-2.442-2.343-5.703-3.925-9.106-4.097-3.085-.294-6.2.582-8.821 2.202 1.478.889 2.759 2.142 3.586 3.664 1.705 2.64 2.233 5.823 2.508 8.898 1.048-.592 2.116-1.151 3.198-1.677.411-2.801 1.045-5.912 3.318-7.832 1.13-1.02 3.13-1.186 4.148.079 1.047 1.392.587 3.369-.434 4.644-1.42 1.809-3.416 3.036-5.38 4.175-.302 2.948-.046 6.021 1.126 8.771.769 1.657 1.831 3.298 3.502 4.161.868.511 1.901.558 2.836.862.728.429.058 1.505-.663 1.362-.821.122-1.601-.393-2.382-.336-3.747 2.012-8.303 2.523-12.359 1.2-3.525-1.118-6.669-3.454-8.685-6.565-4.07-5.93-3.423-14.62 1.573-19.82.561-.091 1.074.27 1.596.423-1.796 1.782-3.14 3.988-3.832 6.427-1.198 4.346-.383 9.27 2.369 12.877 2.354 3.073 5.912 5.263 9.768 5.761 2.753.366 5.63-.04 8.128-1.278-3.94-3.042-4.964-8.359-4.732-13.071-1.033.558-2.134 1.018-3.081 1.716-.1 3.134-.607 6.834-3.364 8.787-.909.461-2.081.551-2.96-.029-.751-.542-1.028-1.485-1.136-2.362.054-2.552 2.122-4.434 3.968-5.932.56-.441 1.08-.939 1.719-1.271.185-2.538-.435-5.091-1.308-7.465-1.111-2.868-3.631-5.572-6.918-5.533-.724.109-1.073-.73-.599-1.228.866-.707 2.05-.093 2.996-.177zm14.532 5.528c-1.193 1.43-1.661 3.326-1.914 5.133 1.673-.911 3.315-2.103 4.267-3.792.347-.593.439-1.393.041-1.981-.785-.549-1.87-.061-2.394.64zm-12.653 15.486c-.19.603-.048 1.493.642 1.691.76.099 1.507-.377 1.949-.966.971-1.614 1.261-3.526 1.435-5.367-1.657 1.181-3.399 2.63-4.026 4.642z"/></svg>