<svg enable-background="new 0 0 149.353 172.84" viewBox="0 0 149.353 172.84" xmlns="http://www.w3.org/2000/svg"><g clip-rule="evenodd" fill-rule="evenodd"><path d="m75.315 0c4.206 2.38 8.287 4.964 12.418 7.45 4.126 2.483 8.302 4.88 12.369 7.451-.004.067-.008.135.048.143.006 9.113.047 17.199.048 26.363 0 1.243-.114 2.488.144 3.678.622-.121 1.179-.501 1.719-.812 7.402-4.261 14.815-8.621 22.304-12.942.444-.257 1.369-.905 1.72-.86.402.051.991.498 1.528.812 3.397 1.989 6.81 3.975 10.124 5.97 3.993 2.403 7.855 4.497 11.511 6.877.14 27.275.126 57.485.048 86.109-1.971 1.341-4.107 2.435-6.161 3.63-5.143 2.994-10.356 5.959-15.522 8.979-1.022.598-2.002 1.351-3.152 1.72-.259-1.13-.144-2.325-.144-3.486.001-8.186.081-16.6-.096-24.931-.617-.058-1.088.429-1.576.717-1.472.869-3.07 1.602-4.489 2.579-1.886 1.299-3.999 2.283-5.97 3.438-3.471 2.035-6.979 4.024-10.507 6.018-.479.27-1.06.472-1.385.955-.239 9.317.065 19.443-.144 28.847-1.967 1.264-3.978 2.482-6.018 3.63-5.108 2.872-10.194 5.809-15.33 8.787-1.013.587-1.92 1.449-3.106 1.72-.244-28.092.016-56.682-.143-84.151-.862-.876-2.048-1.375-3.104-1.958-6.422-3.549-13.07-6.999-19.533-10.603-1.087-.606-2.13-1.282-3.296-1.72-.331 1-.19 2.111-.19 3.2v20.011c0 1.072.115 2.175-.144 3.2-1.122-.425-2.13-1.12-3.152-1.72-5.067-2.972-10.057-6.076-15.14-9.074-2.035-1.2-4.083-2.342-6.065-3.629-.28-.759-.095-2.448-.095-3.678 0-7.933-.065-16.965-.048-24.739-.832-.864-1.991-1.321-3.01-1.911-4.098-2.372-8.408-4.675-12.561-7.116-2.561-1.506-5.189-2.94-7.832-4.442-.482-.276-1.024-.599-1.383-1.051.373-.502.959-.795 1.48-1.098 3.697-2.153 7.517-4.23 11.27-6.448 3.689-2.179 7.372-4.427 11.224-6.543.489-.268 1.312-.852 1.672-.859.339-.007 1.111.54 1.576.812 3.479 2.034 6.883 4.199 10.363 6.209 2.014 1.162 3.946 2.397 5.922 3.534 1.505.866 2.947 1.777 4.441 2.674.469.281 1.064.462 1.386.955.214 7.574-.031 15.562.096 23.498.041 2.601-.169 5.186.143 7.689 1.181-.435 2.25-1.132 3.344-1.767 3.175-1.843 6.413-3.72 9.647-5.636 3.684-2.182 7.588-4.161 11.366-6.448.61-.369 1.411-.697 1.624-1.194-.018-8.352 0-16.404 0-25.121 0-.533-.021-1.148-.048-1.767-.026-.601.101-1.363-.048-1.767-.14-.379-.997-.743-1.528-1.051-3.781-2.188-7.708-4.366-11.414-6.543-3.28-1.926-6.564-3.651-9.839-5.588-1.066-.63-2.218-1.139-3.152-1.958.326-.57 1.002-.741 1.529-1.051 6.868-4.045 13.894-7.998 20.87-12.131.509-.302 1.094-.592 1.624-.907.624-.371 1.16-.755 1.767-.955zm24.979 45.753c-.175 4.486-.096 9.269-.096 13.898-.002 13.774-.089 27.635.144 40.835.597-.011 1.049-.441 1.527-.717 6.575-3.778 13.167-7.609 19.678-11.319.98-.559 2.12-1.001 2.865-1.91.01-9.017-.004-18.889-.191-28.082-.879-.648-1.849-1.195-2.817-1.72-6.924-3.748-13.935-7.447-20.871-11.127-.032 0-.063 0-.095 0-.07.025-.118.073-.144.142z"/><path d="m25.025 116.102c4.13 2.125 8.257 4.644 12.179 6.878 3.05 1.737 5.991 3.446 9.026 5.205.998.579 2.094.997 2.961 1.768-.321.513-.941.674-1.433.955-6.996 4.011-14.189 8.16-21.253 12.179-.479.272-.995.633-1.576.669-.179-7.796-.095-16.124-.095-24.023 0-1.213-.04-2.421.048-3.486.027-.07.075-.118.143-.145z"/></g></svg>