<svg enable-background="new 0 0 84.791 45.761" viewBox="0 0 84.791 45.761" xmlns="http://www.w3.org/2000/svg"><g clip-rule="evenodd" fill-rule="evenodd"><path d="m84.791 15.836c-27.553.137-56.85.3-84.791-.05.227-.456.778-.488 1.178-.638 4.781-1.783 9.678-3.575 14.574-5.349 5.231-1.894 10.566-3.932 15.849-5.839 3.54-1.278 7.005-2.7 10.55-3.926.612-.211 2.1.573 2.944.884 12.398 4.557 24.851 9.206 37.193 13.788.441.163.92.264 1.374.441.372.148.91.284 1.129.689z"/><path d="m10.06 17.553c.153 6.75.234 14.394.05 21.393-.997.158-2.637.165-3.632 0-.264-.818-.148-1.727-.148-2.6 0-5.327 0-10.887 0-16.29 0-.854-.115-1.749.148-2.552 1.074-.052 2.588-.14 3.582.049z"/><path d="m44.702 17.603c.209 2.056.099 4.14.098 6.28 0 2.034.049 4.116.049 6.183 0 2.993.06 5.957-.146 8.931-1.055.134-2.637.26-3.631 0-.255-6.04.002-12.671-.099-18.94-.014-.825-.111-1.688.147-2.453 1.002-.142 2.586-.177 3.582-.001z"/><path d="m79.295 17.603c.13 7.082.288 14.036 0 21.394-.979.163-2.603.159-3.582 0-.26-.813-.146-1.714-.146-2.601 0-5.319-.001-10.682 0-16.192 0-.769-.099-2.312.146-2.601.975-.167 2.605-.157 3.582 0z"/><path d="m37.734 26.68c.159.979.163 2.604 0 3.582-7.75.168-16.328.236-24.289-.049-.135-.999-.219-2.762.049-3.681 7.699.113 16.459-.067 24.24.148z"/><path d="m72.328 26.631c.161.96.161 2.572 0 3.533-1.252.264-2.569.147-3.877.147-6.789 0-13.75.116-20.363-.049-.265-.9-.184-2.603-.049-3.582 6.815-.245 14.371-.147 21.442-.147.975 0 1.962-.135 2.847.098z"/><path d="m79.344 42.038c.078 1.054.235 2.577-.049 3.533-3.032.229-6.091.098-9.127.098-20.922.003-42.617.26-63.69-.098-.2-.371-.173-1.167-.148-1.864.025-.678-.081-1.477.197-1.718.035-.046.088-.074.146-.099 15.4.115 30.101.052 45.585.05 8.91-.001 18.133-.199 27.086.098z"/></g></svg>