<svg enable-background="new 0 0 61.704 75.898" viewBox="0 0 61.704 75.898" xmlns="http://www.w3.org/2000/svg"><g clip-rule="evenodd" fill-rule="evenodd"><path d="m61.529.165c.167 15.844.149 31.576.148 47.664 0 4.734-.09 9.307 0 13.93.057 2.959 0 6.072 0 9.385 0 1.541.121 3.104-.148 4.643-20.438.256-41.072 0-61.296-.049-.356-.68-.198-1.496-.198-2.225 0-23.643 0-47.502 0-71.223 0-.729-.115-1.518.148-2.223 20.309-.152 41.317-.012 61.346.098zm-19.708 10.273c-.419.436-.247 1.363-.247 2.174 0 .836-.073 1.754.099 2.371 1.282.242 3.509.242 4.791 0 .138-1.27.217-3.303-.049-4.494-1.328-.192-3.185-.104-4.594-.051zm-28.549 6.521c-.269.941-.148 1.947-.148 2.914 0 3.072-.11 5.949 0 8.891.149 3.982-.149 7.979 0 11.953.075 1.998 0 4.014 0 6.025 0 5.998-.151 12.037.099 18.027.734.258 1.756.148 2.716.148 1.001 0 2.011.074 2.816-.098.173-6.197.148-12.082.148-18.326 0-.867-.12-1.756.148-2.568 1.072-.029 2.693-.191 3.606.1.181 6.805-.114 14.07.148 20.744.671.271 1.629.197 2.568.199.921 0 1.918.074 2.668-.1.265-.775.148-1.648.148-2.471 0-6.113-.082-12.496.099-18.373.976-.086 2.737-.279 3.655.1.09 5.943.049 12.299.049 18.273 0 .834-.113 1.691.148 2.471 4.568.135 9.81.295 14.324 0 .194-1.916.099-3.883.099-5.877 0-10.211.156-20.047.049-29.834-.043-4.016.012-8.021-.148-12.051-1.472-.178-3.324-.18-4.791 0-.239 7.129-.148 14.48-.148 21.682 0 6.357.049 12.481.049 18.475 0 .859.11 1.777-.148 2.617-1.128.113-3.079.268-4.05-.1-.097-10.676-.049-21.557-.049-32.106 0-3.566.114-7.137-.148-10.619-3.88-.178-8.529-.098-12.645-.098-.57 0-1.212-.113-1.729.149-.204 6.191-.099 12.359-.099 18.521 0 .873.118 1.779-.148 2.617-1.067.025-2.699.199-3.605-.098-.201-6.637.061-14.273-.198-21.141-1.62-.19-3.782-.098-5.483-.046z"/><path d="m28.386 22.639c1.143.059 2.525-.121 3.507.098.149 4.963.169 10.496 0 15.56-1.004.137-2.729.213-3.655-.051-.179-4.185-.099-9.053-.099-13.631 0-.68-.072-1.539.099-1.879.037-.044.09-.073.148-.097z"/></g></svg>