<svg height="56.8342" viewBox="0 0 130 56.8342" width="130" xmlns="http://www.w3.org/2000/svg"><path d="m119.553 32.3771c-1.772 1.676-2.413 3.0231-2.413 4.8744 0 2.872 2.509 3.4915 5.385 4.6186 2.136.8363 3.784 1.4827 3.784 3.4257 0 3.9633-6.902 5.4265-8.464 7.0481-.717.7454-1.077 1.4648-1.077 2.5626 0 .5684.034 1.8343 1.562 1.8343 1.848 0 5.689-2.2646 7.746-3.8025 2.269-1.6938 3.483-3.7084 3.483-6.3855 0-2.2305-1.334-4.0656-2.782-4.9637-1.302-.8047-3.225-1.1895-4.601-1.7539-2.55-1.045-1.797-2.3726-.692-3.5613 3.388-3.6402 6.213-2.5415 7.739-4.2483.647-.7268.777-1.883.777-2.2306 0-1.2115-.879-2.0462-1.837-2.0462-.93 0-5.607 1.784-8.61 4.6283zm-9.78 1.2456c.887 0 .652 1.0361.652 1.3926 0 1.5371-3.09 9.7438-5.01 9.7438-.427 0-.665-.2541-.665-1.1092 0-2.0705 2.998-10.0272 5.023-10.0272zm-20.0251 2.25c1.2695.1608 1.1719.8567 2.5602 1.2854 1.3834.4304 2.2371.2136 2.9825.2136.7471 0 .7731.3215.7731 1.7149 0 1.7839-.7519 6.1816-4.0933 6.1816-3.2307 0-3.5424-4.0761-3.5424-5.8625 0-2.2476.4679-3.6393 1.3199-3.5321zm1.3444-2.4481c0-1.1441.9212-1.5549 1.7732-1.5549.9961 0 2.4251 1.2041 2.4251 2.2776 0 .6049-.4858 1.3511-1.5844 1.3511-.9627 0-2.6139-.7884-2.6139-2.0738zm-73.495 23.4096h1.9311c1.9335 0 2.1826-.9371 2.1826-3.1879l-.0114-18.6034c0-1.1774.2327-1.421 1.4127-1.5793 1.1849-.16 4.6084-.5083 5.4645-.5083.695 0 1.2427.1697 1.1564 1.5265v19.4877c0 2.2492.2645 2.6771 1.2288 2.6771h1.7969c1.2638 0 1.5347-1.2155 1.5347-2.6763 0-1.287-.0146-18.4207-.0146-19.8125 0-1.2163.1693-1.589 1.5983-1.7514.4679-.0552 2.6627-.2136 3.6522-.2136 2.2949 0 2.9182.6253 1.984 2.0868-.6388.9988-2.7449 6.1614-2.7449 8.9838 0 1.3902.7715 4.0665 2.6928 4.0665 1.9173 0 3.7906-2.8477 5.0105-4.8874 1.0375-1.7376 1.5689-1.7051 2.1288.2826.3361 1.1782.6413 3.7124 2.0345 4.4773.4606.2525 1.1914.3329 1.7952-.0081 2.7856-1.5672 5.4548-7.8714 6.5648-12.6727.651-2.8152 2.8596-2.4481 2.718-.039v8.4715c0 1.3357.5997 3.4647 2.1646 4.2662.7154.367 1.8441.2468 2.5887-.0601 3.1013-1.2667 5.7493-11.4125 6.2278-13.0957.586-2.0844 2.6611-1.5859 2.5553.3077v8.5258c0 1.9009.8105 3.8001 1.9287 4.3279.909.428 2.0548.3646 2.9019-.0739 1.0864-.557 2.0223-2.1022 2.7368-3.2495.8845-1.4145 1.4664-1.4039 2.5609.2143.5982.89 2.2412 3.3568 5.6501 3.3568 4.8298 0 6.9937-5.1058 6.9937-8.2668 0-1.4973.1708-2.5253.9179-2.9199.7877-.4142 1.9954-.9899 2.6364-.9899 1.025 0 .479 1.3609.377 1.7661-.203.7909-.799 3.2536-.799 4.9247 0 2.7486.993 5.4371 3.302 5.4371 2.29 0 4.212-3.0019 4.852-4.0315.761-1.231 1.44-1.2026 1.571.0682.108 1.0174.082 1.3657.082 1.3657 0 1.784.53 2.5821 1.477 2.5821h1.148c.932 0 1.958-.846 1.958-3.0254v-33.6763c0-1.71089-.336-2.03325-1.507-2.03325h-.944c-1.174 0-1.816.53592-1.816 2.03325v17.7776c0 .8542-.304 1.2708-.944 1.2708-1.158 0-1.585.1136-2.249.4433-2.615 1.2829-5.632 2.7794-7.636 3.4347-1.9666.6431-2.4662.8006-3.0261-.0812-1.2288-1.9463-2.5675-3.9974-6.1823-3.9974-2.4202 0-4.2968 1.1871-5.6135 2.9637-1.3948 1.8822-1.6983 3.9593-2.3119 5.8041-1.359 4.0876-3.5872 6.733-3.5872 3.5443l-.0097-3.5889.0895-3.3284c0-2.3442-2.5716-3.1099-4.1031-3.576-1.857-.5651-1.9986-1.6044-1.9986-3.4379 0-1.8554-.2157-3.3592-1.8123-3.3592-.8171 0-2.8922.6098-2.8922 3.3592 0 2.0348 2.0369 2.8769 2.0369 4.6835 0 1.218-1.3322 5.4192-2.1972 7.4557-.5705 1.3519-1.4071 3.0669-1.9328 3.0669-.5045 0-.6363-.5563-.6363-1.676v-7.0001c0-2.2086-2.9345-2.9573-4.558-3.5192-1.4461-.501-1.4787-1.4096-1.4787-3.2642 0-2.8208-.9911-3.3892-1.9856-3.3892-1.2784 0-2.7205.9314-2.7205 3.2536 0 2.4238 2.0166 2.8379 2.0166 4.8988 0 1.2991-1.9726 7.4418-3.1721 9.4076-.8667 1.4161-1.2915 1.3496-1.7212.0812-.5037-1.49-.9106-6.2839-1.3053-7.3338-.3857-1.0288-1.9303-1.0288-2.5333-.0122-.8243 1.3901-3.4219 6.5974-5.1553 8.728-.1359.1649-1.3972 1.7174-1.3972.1056 0-1.9999 2.7709-6.2401 4.9966-8.5397 1.7529-1.8139 3.9004-2.2199 3.9004-3.8699 0-1.7498-2.1825-1.6727-3.7808-1.6727-4.7313 0-9.9395.3484-11.6696.4296-1.355.0625-1.39-.1243-1.39-1.6597v-26.2881c0-1.058827-.5289-1.82209428-1.6503-1.82209428l-.5721.00081253c-1.7578 0-2.3616.58868975-2.3616 3.21140175v25.16428c0 1.4648-.297 1.913-1.477 2.0608l-5.1301.5099c-1.0652.0934-1.2792-.1477-1.2792-2.0348v-25.70018c0-3.2373856-1.6081-3.21221428-2.4235-3.21221428h-1.4794c-.7837 0-2.4935.78600228-2.4935 3.21140428v26.55759c0 1.7677-.1399 2.0235-1.7065 2.2492-1.4908.2136-9.51306 1.1758-12.20343 1.4982-1.000943.1185-1.389111.22-1.5185058.6739-.0406952.1421-.01464843.6764-.0040741.812.0398712.5262.6201019.8266 1.2939099.7503 1.38994-.1608 11.4214-1.3804 11.4214-1.3804 2.0695-.2655 2.6098-.2022 2.6098 1.4323v18.2722c0 1.6402.7943 2.7558 2.2542 2.7558z" fill-rule="evenodd"/></svg>