<svg enable-background="new 0 0 8.707 8.827" viewBox="0 0 8.707 8.827" xmlns="http://www.w3.org/2000/svg"><path d="m0 .002c.772-.004 1.544 0 2.316-.001-.001.881 0 1.762-.001 2.643.002.085-.015.179.039.253.101.132.251.212.402.274.373.147.774.202 1.172.234.635.031 1.284.006 1.893-.192.206-.073.435-.168.541-.373.012-.945.001-1.892.005-2.838.78-.002 1.56-.003 2.34-.001-.006 1.703-.002 3.405-.002 5.108-.005 1.239.007 2.479-.006 3.718-.454-.016-.909-.003-1.363-.007-.324.002-.648-.005-.972.004.001-.909-.005-1.819.003-2.728-.196.235-.5.328-.786.401-.625.143-1.275.163-1.912.1-.367-.045-.74-.106-1.077-.268-.108-.051-.203-.124-.283-.212.014.901.002 1.803.006 2.705-.771-.003-1.542-.005-2.313 0 0-2.94.003-5.88-.002-8.82zm3.855 5.033c-.43.039-.868.104-1.259.297-.141.078-.317.204-.28.389.059.168.23.256.383.326.425.18.891.232 1.347.266.258-.005.518.015.776-.016.416-.035.839-.101 1.221-.278.139-.068.293-.162.324-.327.011-.115-.072-.214-.158-.279-.235-.164-.517-.24-.794-.297-.512-.103-1.04-.114-1.56-.081z"/></svg>