<svg enable-background="new 0 0 76.608 66.38" viewBox="0 0 76.608 66.38" xmlns="http://www.w3.org/2000/svg"><path clip-rule="evenodd" d="m33.325 34.991c.671-.027 1.16-.537 1.638-.867 1.478-1.02 2.935-2.023 4.481-3.035 3.638-2.524 6.972-4.785 10.358-7.18 1.693-1.195 3.449-2.277 5.204-3.564 1.641-1.203 3.738-2.529 6.553-2.121 3.602.525 6.008 3.096 6.793 6.361.29 1.203.193 2.609.193 4.191-.001 3.996-.062 8.662.096 12.863.098 2.592 1.202 4.492 3.036 5.35.657.307 1.709.482 2.649.385.806-.084 1.272-.574 2.072-.578.209.385.187 1.066.192 1.688.006.576.067 1.365-.096 1.83-.162.457-1.353 1.186-1.975 1.59-2.141 1.391-4.319 2.879-6.312 4.336-2.782 2.035-5.681 3.889-8.335 5.83-1.309.957-2.635 2.01-4.144 2.939-1.459.898-3.356 1.6-5.589 1.301-2.767-.369-5.035-2.184-6.168-4.481-.372-.756-.774-1.703-.867-2.65-.16-1.641 0-3.408 0-5.107 0-.852 0-1.709 0-2.553 0-.789.108-1.613-.144-2.361-.835.1-1.479.74-2.119 1.203-1.941 1.404-3.984 2.768-5.975 4.193-3.983 2.852-7.929 5.441-11.949 8.383-1.337.979-2.673 2.062-4.143 2.65-3.908 1.561-7.639-.314-9.443-2.844-.954-1.336-1.446-2.982-1.446-5.348 0-6.682 0-13.543 0-20.141 0-4.205.354-9.428-.048-13.441-.314-3.146-2.895-6.066-6.553-4.723-.363.135-.704.525-1.204.387-.195-1.017.027-2.402.048-3.517.781-.906 1.863-1.486 2.794-2.217.929-.729 1.911-1.393 2.892-2.072 3.895-2.695 7.742-5.4 11.756-8.189 2-1.391 3.778-3.014 6.553-3.422 1.721-.252 3.521.338 4.722.963 2.359 1.232 4.096 3.506 4.337 6.795.122 1.664.034 3.49 0 5.348-.112 6.002 0 12.771 0 19.225-.002.864-.119 1.782.143 2.6zm-26.356-20.14c-.284.205-1.023.578-.964 1.014.028.209.527.432.867.625 2.291 1.303 3.706 3.5 4.096 6.65.238 1.928.004 3.867.097 5.828.092 1.955-.049 3.957-.049 6.023 0 7.094-.048 14.195-.048 21.008 0 1.023-.068 2.064.097 2.891.45 2.26 2.9 4.687 6.07 3.758 1.731-.506 3.277-1.973 4.674-2.939 3.825-2.648 7.441-5.193 11.178-7.854.345-.244 2.115-1.295 2.072-1.783-.022-.25-.597-.51-.867-.674-1.089-.662-1.749-1.262-2.457-2.168-.773-1.131-1.321-2.297-1.591-3.807-.276-1.553-.119-3.316-.145-5.107-.126-8.85.045-18.254.049-26.74 0-1.727.056-3.779-.386-4.963-.64-1.719-2.507-3.406-4.915-3.275-1.88.102-3.338 1.416-4.625 2.359-3.995 2.932-8.276 5.529-11.997 8.385-.43.21-.702.442-1.156.769zm36.185 20.574c.859.658 1.654 1.689 2.168 2.699.695 1.363.963 2.961.963 4.865v11.467c0 1.881-.217 3.982.338 5.396.748 1.91 3.249 3.863 6.022 2.939 1.689-.562 3.305-1.834 4.722-2.842 3.066-2.184 5.77-4.156 8.914-6.312.934-.641 2.332-1.578 3.373-2.312.35-.246.909-.742.867-.965-.12-.617-1.232-.646-1.591-1.156-1.215-.998-2.142-2.082-2.746-3.613-1.063-2.693-.555-6.258-.723-9.926-.078-1.717.077-3.545 0-5.299-.079-1.797.156-3.721-.241-5.203-.523-1.955-2.426-3.82-4.962-3.662-2.077.131-3.773 1.797-5.204 2.842-1.579 1.154-3.16 2.185-4.674 3.182-2.425 1.594-4.654 3.201-6.938 4.816-.755.535-1.698 1.002-2.169 1.783.584.621 1.292.85 1.881 1.301zm-9.733 5.203c-.704 2.322.511 4.527 1.83 5.494.556.404 1.439.83 2.265.914 2.558.262 4.271-1.086 5.059-2.746 1.666-3.51-1.139-7.627-4.866-7.178-2.261.272-3.713 1.619-4.288 3.516z" fill-rule="evenodd"/></svg>