<svg enable-background="new 0 0 71.458 75.975" viewBox="0 0 71.458 75.975" xmlns="http://www.w3.org/2000/svg"><path clip-rule="evenodd" d="m30.772 27.952c.727.273 1.599.152 2.438.152 2.494 0 5.271.042 7.719-.051.277-.952.152-1.942.152-2.895 0-2.828.051-5.883.051-8.886 0-4.24.963-6.8 2.641-9.394 1.45-2.243 3.825-4.385 6.499-5.585 2.89-1.297 6.592-1.611 10.155-.559 3.103.916 5.338 2.66 7.211 4.875 1.859 2.199 3.233 4.901 3.656 8.378.228 1.887.152 3.905.152 5.89-.001 11.912-.205 23.756-.203 35.697 0 1.993.031 3.963-.102 5.89-.258 3.742-1.523 6.381-3.402 8.683-1.83 2.242-4.096 3.946-7.059 4.976-7.342 2.554-14.021-1.392-16.959-5.636-.857-1.236-1.518-2.544-2.031-4.011-.533-1.522-.66-3.177-.66-5.23 0-3.882.043-7.872-.051-11.984-.046-.022-.092-.044-.102-.101-3.127-.176-7.138-.159-10.106 0-.269.708-.152 1.5-.152 2.234 0 3.743.13 7.96-.051 11.73-.196 4.099-2.381 7.205-4.621 9.445-1.605 1.606-3.379 2.885-5.738 3.656-5.6 1.831-11.158.059-14.471-2.691-3.472-2.881-5.759-6.836-5.738-12.948.042-11.674.305-24.039.305-36.51 0-3.25-.087-6.333.152-9.038.479-5.424 3.384-9.297 7.059-11.73 1.93-1.278 4.236-2.134 7.108-2.285 7.144-.374 11.582 3.67 14.065 8.125.697 1.249 1.338 2.488 1.676 3.859.366 1.484.356 3.261.356 5.179 0 3.397-.183 7.126.051 10.765zm21.682-21.428c-1.215.548-2.289 1.527-3.25 2.488-1.001 1.001-1.732 2.221-2.233 3.504-.812 2.072-.664 4.917.151 6.906 1.005 2.451 2.931 4.519 5.484 5.585 3.487 1.456 7.426.313 9.851-1.828 1.935-1.709 3.498-4.243 3.504-7.311.006-2.619-1.051-4.814-2.234-6.297-1.771-2.22-4.58-4.065-8.479-3.707-1.066.098-2.031.316-2.794.66zm-2.844 24.323c-1.32 1.202-2.416 2.964-2.895 4.824-.536 2.086-.354 4.629-.354 7.363 0 2.525.056 5.166 0 7.515-.084 3.439-.276 8.039.101 11.375.372 3.292 2.289 5.557 4.621 6.957 1.484.891 3.716 1.778 6.194 1.32 3.803-.701 7.028-3.135 8.125-7.312.526-2.005.209-4.906.406-7.312.105-1.286 0-2.596 0-3.859 0-1.31.041-2.595.051-3.808.019-2.257.163-5.014.051-7.566-.059-1.329.055-2.56-.102-3.656-.152-1.073-.486-2.054-.914-2.945-1.56-3.246-5.102-5.957-10.003-5.433-2.311.245-3.955 1.329-5.281 2.537z" fill-rule="evenodd"/></svg>