<svg enable-background="new 0 0 136.882 179.538" viewBox="0 0 136.882 179.538" xmlns="http://www.w3.org/2000/svg"><path clip-rule="evenodd" d="m46.251.102c.201 4.88.144 9.941.144 15.006-.002 15.215.271 30.317.096 45.259-.043.021-.086.042-.096.096-14.879.171-30.108 0-45.02.287-.134.408.312.627.525.86 2.516 2.748 5.231 5.447 7.79 8.22.93 1.007 1.851 2.042 2.819 3.011 1.943 1.943 3.791 3.983 5.735 5.926 1.932 1.932 3.828 3.925 5.688 5.927 3.735 4.021 7.573 7.954 11.374 11.9.942.978 1.851 2.041 2.819 3.011.976.976 2.004 1.911 2.916 2.915 1.845 2.031 3.71 4.024 5.734 5.879 1.034-.894 1.902-1.953 2.82-2.964 6.532-6.943 13.208-13.746 19.594-20.837 5.545-6.021 11.009-12.123 16.632-18.065 1.346-1.493 2.769-2.861 4.206-4.444.323-.356.986-1.417 1.434-1.434.396-.015 1.164 1.021 1.529 1.386 3.298 3.298 6.559 7.085 9.701 10.371 3.672 3.979 7.633 7.709 11.231 11.757.462.52.825 1.11 1.29 1.625 3.138 3.469 6.606 6.784 9.798 10.274 3.854 3.808 7.54 7.785 11.278 11.709.092.1.15.231.239.335-.004.067-.008.135.048.143.047 20.663.236 40.852.238 61.891.001 1.494-.023 3.014 0 4.492.022 1.412.184 2.817-.095 4.158-14.745.188-30.193.328-45.115.19-.398-23.298-.056-47.156-.479-70.396-.009-.038-.048-.047-.048-.096-14.718-.257-29.539.159-44.207.048-.215 23.171.209 46.865.096 70.588-.914.259-1.889.144-2.819.144-13.27-.002-26.716.189-40.289.191-1.012 0-2.155.169-2.914 0-.144-.032-.187-.037-.287-.191-.184-29.835-.387-59.714-.383-89.608.006-29.616-.394-59.428-.236-89.325.73-.253 1.537-.144 2.293-.144 2.385 0 4.713.063 7.074-.048 3.172-.149 6.393.128 9.606 0 4.757-.19 9.557-.096 14.338-.096 4.402.001 8.577-.148 12.903.049z" fill-rule="evenodd"/></svg>