<svg enable-background="new 0 0 197.029 199.492" viewBox="0 0 197.029 199.492" xmlns="http://www.w3.org/2000/svg"><g clip-rule="evenodd" fill-rule="evenodd"><path d="m58.103.48c.503 1.899.24 3.942.24 5.877 0 22.638-.24 45.101-.24 68.373 0 24.281-.24 49.216-.24 74.371 0 16.684.017 33.337-.48 49.78-17.907.134-38.908.462-57.217-.36-.56-62.159.476-128.327.48-192.404 0-2.089-.265-5.216.479-5.877.088-.112.219-.181.36-.24 18.601.196 37.877.102 56.618.48z"/><path d="m197.009 1.32c.141 63.965-.487 127.806-.48 192.164 0 1.953.275 3.987-.359 5.877-19.764.189-38.305.224-57.578-.24-.552-56.926.354-115.444.36-173.571 0-6.231.12-12.421.12-18.833 0-1.93-.253-3.928.479-5.758 18.555-.067 39.105-.271 57.458.361z"/><path d="m131.274 65.254c.487 6.125.226 13.06 0 19.073-21.665.44-43.979.07-65.614-.24-.733-3.293-.079-9.847-.24-14.994-.05-1.599-.485-4.112 1.08-4.438 2.217-.462 5.646 0 8.276 0 18.195 0 38.684.166 56.498.599z"/><path d="m93.129 89.605c.434 4.822.24 10.69.24 16.074 0 1.769.267 3.571-.36 5.038-1.408.256-4.126.261-5.638-.12-.477-1.461-.353-3.309-.36-5.278-.011-3.247-.043-7.912 0-11.995.015-1.425-.034-3.425.48-3.718.088-.112.218-.182.36-.24 1.722.117 3.94-.262 5.278.239z"/><path d="m109.682 89.725c.402 6.446.396 14.545 0 20.992-1.511.343-4.546.479-5.877-.12-.434-4.784-.24-10.646-.24-15.954 0-1.741-.268-3.57.36-5.038 1.465-.4 4.447-.417 5.757.12z"/><path d="m101.526 97.282c.023.463.004.884-.12 1.2-1.273.509-4.508.413-5.878-.12.019-.14-.026-.213-.12-.24-.092-.772.213-1.147.72-1.32 1.763.196 4.382-.464 5.398.48z"/><path d="m101.406 101.72c.304.508.295 1.29-.12 1.679-1.6.152-4.225.312-5.638-.12-1.24-2.689 4.085-1.789 5.758-1.559z"/><path d="m131.034 116.354c.398 5.847.398 13.345 0 19.192-21.398.445-44.121.119-65.614-.24-.432-2.901-.24-6.31-.24-9.716 0-3.281-.287-6.765.36-9.477 4.522-.43 11.85-.24 17.033-.24 16.51.001 32.44-.012 48.461.481z"/></g></svg>