<svg enable-background="new 0 0 49.483 90.517" viewBox="0 0 49.483 90.517" xmlns="http://www.w3.org/2000/svg"><path clip-rule="evenodd" d="m22.231 9.649c-1.424.181-3.316-.107-4.655.157-.285 1.15-.157 2.373-.157 3.557-.001 8.417.05 17.009.209 25.369 1.018.434 2.208.102 3.399.157 3.43.159 7.416.084 10.724-.104.324-9.247-.174-19.771.104-28.927.94-.275 2.009-.157 3.034-.157 2.997 0 6.214-.174 9.102.104.509 23.051.113 47.452.575 70.773 1.309.418 3.524-.071 4.917.262-.069.579-.823.917-1.255 1.308-2.779 2.459-5.718 4.927-8.631 7.428-.352.302-1.019.937-1.308.941-.373.006-1.144-.776-1.518-1.099-2.807-2.419-5.705-4.745-8.526-7.166-.445-.383-1.046-.758-1.255-1.36 1.449-.259 3.48.064 4.917-.209.282-1.142.156-2.362.156-3.557 0-8.385-.067-17.367-.209-25.684-1.021-.307-2.196-.111-3.348-.104-3.51.019-7.374-.081-10.723.052-.283 1.048-.157 2.324-.157 3.609.002 8.594.205 17.42 0 25.683-3.829.121-8.53.276-12.083 0-.285-1.42-.157-2.895-.157-4.342-.001-22.058-.251-44.505-.416-66.482-1.383-.429-3.49.152-4.97-.209.176-.679.823-.886 1.256-1.308 3.136-2.828 6.434-5.491 9.624-8.265.556-.35 1.236.592 1.727.994 2.899 2.378 5.814 4.657 8.474 7.218.218.209.449.424.681.628.193.172.595.376.469.733z" fill-rule="evenodd"/></svg>