<svg enable-background="new 0 0 27.865 32.778" viewBox="0 0 27.865 32.778" xmlns="http://www.w3.org/2000/svg"><path d="m.288 2.503c-.253-1.222.672-2.398 1.9-2.498.244 1.22-.652 2.421-1.9 2.498z"/><path d="m4.577.041c.426-.083.884-.014 1.322-.024-.761.722-1.498 1.471-2.268 2.184.232.652.461 1.304.693 1.955.859.098 1.867.501 2.184 1.372.096.587-.641.654-1.055.607.066.536.314 1.335-.253 1.672-.626.02-.975-.64-1.277-1.098-.277.307-.85.7-1.179.253-.393-.856.128-1.812.669-2.478-.076-.541-.31-1.054-.502-1.565-.126.112-.25.227-.372.344.114.543.134 1.223-.3 1.633-.33.241-.59-.181-.694-.448-.325.184-.773.565-1.132.271-.199-.378.151-.757.342-1.066-.252-.109-.667-.316-.474-.653.377-.469 1.056-.377 1.589-.344.9-.873 1.79-1.759 2.707-2.615z"/><path d="m7.002.019c.303-.003.606-.006.908.004-.001.414.002.828-.001 1.242.943.404 1.856 1.322 1.77 2.413-.188.589-.92.338-1.329.157-.166.586-.21 1.451-.89 1.668-.747-.12-.833-1.068-.946-1.675-.417.173-1.115.404-1.337-.151-.119-1.132.923-1.962 1.812-2.451.031-.401.006-.804.013-1.207z"/><path d="m9.272.053c.976.253 1.532 1.317 1.194 2.267-1.009-.214-1.513-1.322-1.194-2.267z"/><path d="m18.757 1.296c.401-.586.984-1.226 1.754-1.196.491.087.343.693.188 1.011.456.104 1.202.175 1.231.774-.212.465-.789.534-1.236.6.127.318.293.873-.148 1.013-.829.073-1.436-.652-1.835-1.285-.299-.098-.654-.015-.974-.049.004-.288.003-.575.002-.863.338-.013.679-.014 1.018-.005z"/><path d="m23.249 1.455c.699-1.07 2.266-1.5 3.441-1.066.986.823 1.446 2.4.919 3.595-.436.674-1.218.043-1.499-.449-.432.537-.996 1.391-1.783 1.166-.547-.59-.154-1.497.031-2.172-.575.063-1.49-.387-1.109-1.074z"/><path d="m22.273 2.522c.108-.445.75-.41.785.057.451-.126.694.409.387.723.135.227.165.491-.034.692-.137.001-.274-.001-.411-.006-.118.435-.754.415-.79-.055-.456.132-.69-.419-.378-.724-.303-.339-.003-.845.441-.687z"/><path d="m17.735 3.517c.47.282.925.587 1.375.899.819-.418 1.908-.665 2.736-.155.497.43-.032 1.065-.48 1.271.41.425 1.015.94.854 1.596-.49.566-1.302.059-1.868-.132-.034.474-.368 1.23-.96.933-.858-.613-1.021-1.824-.867-2.798-.234-.225-.536-.363-.798-.551-.006-.354.002-.709.008-1.063z"/><path d="m22.668 7.186c-.466-.936.002-2.128.997-2.463.39.946-.007 2.1-.997 2.463z"/><path d="m9.038 5.343c.324-.67 1.284-.118.994.525.697.015.766 1.083.06 1.146.366.613-.499 1.245-.937.67-.359.6-1.406.155-1.058-.534-.729-.014-.794-1.082-.065-1.167-.404-.673.567-1.237 1.006-.64z"/><path d="m24.808 5.144c.401-.079.679.296.933.544.147-.223.333-.457.631-.44.458.455.288 1.131.134 1.677.177.345.438.641.643.971.238-.044.476-.087.713-.135.006.307.004.614-.004.921-1.158.227-2.325.427-3.474.686-.271.685-.737 1.528-1.559 1.581-.501-.035-.382-.649-.318-.989-.449-.011-1.125-.007-1.299-.516.07-.522.697-.691 1.125-.846-.174-.307-.407-.886.068-1.041.719-.123 1.308.419 1.771.894.677-.074 1.344-.24 2.011-.376-.129-.208-.263-.413-.41-.61-.53.02-1.193-.095-1.483-.59-.156-.362.279-.52.55-.58-.107-.351-.418-.877-.032-1.151z"/><path d="m1.06 5.306c.259-.226.682-.078.602.303.35.079.404.564.045.674.107.377-.259.583-.567.388-.262.255-.675.044-.611-.321-.379-.107-.346-.57.01-.685-.018-.051-.056-.153-.074-.204.113-.239.379-.308.595-.155z"/><path d="m6.64 6.978c.767.036 1.075.941 1.289 1.56.398-.316 1.272-.711 1.483-.005.182 1.164-.601 2.281-1.567 2.862.612 2.63 1.261 5.249 1.806 7.893.587-.685 1.155-1.393 1.69-2.117-.496-1.248-.594-2.912.382-3.953.697-.543 1.322.38 1.46.997.592-.416 1.243-.913 2.008-.846.32.011.517.351.484.646-.036.7-.465 1.293-.859 1.843.457.182 1.009.43 1.124.963.014.507-.462.841-.888 1.002-.96.329-2.047.327-2.986-.068-.458.533-.881 1.096-1.318 1.647 2.248.024 4.498.01 6.745.054.038-.597.044-1.196.041-1.794-.863-.447-1.777-1.278-1.69-2.333.185-.578.894-.348 1.294-.16.122-.577.2-1.415.865-1.606.699.151.772 1.039.881 1.622.394-.184 1.069-.403 1.285.13.114 1.064-.835 1.917-1.72 2.331.16.558-.441 1.785.353 1.824.406-.917 1.26-1.797 2.317-1.814.637.124.433.894.238 1.314.569.114 1.522.224 1.547.962-.255.582-.999.66-1.551.774.17.425.349 1.214-.296 1.31-.968-.037-1.75-.817-2.166-1.641-2.948-.079-5.905-.053-8.856-.053-.844 1.014-1.658 2.066-2.503 3.086.315.677.543 1.603.029 2.237-.388.344-.81-.143-1.011-.461-.366.36-.847.962-1.414.726-.363-.448-.033-1.066.136-1.534-.399-.041-1.038-.271-.808-.791.501-.765 1.533-.867 2.369-.811.299-.248.516-.61.758-.921-.426-.398-.793-.858-1.244-1.227-.947.296-2.097.232-2.886-.42-.565-.538.208-1.119.753-1.164-.311-.495-.75-1.202-.377-1.76.641-.344 1.278.283 1.735.683.163-.48.794-1.126 1.246-.569.505.721.411 1.706.116 2.494.408.427.837.834 1.252 1.255.244-.33.592-.602.769-.969-.217-1.01-.473-2.016-.733-3.018-1.758-1.058-3.502-2.144-5.279-3.169-.765.362-1.758.599-2.516.107-.412-.394.11-.866.471-1.048-.328-.36-.901-.836-.655-1.371.474-.349 1.089.01 1.56.206.053-.423.399-1.081.904-.743.605.478.707 1.322.697 2.042.482.31.977.604 1.488.865.029-.112.059-.223.09-.333-.346-.398-.703-.947-.532-1.492.157-.338.601-.137.829.02.211-.296.395-.799.837-.743.328.224.27.683.26 1.03.326-.079.889.054.701.502-.224.759-1.396.654-1.375 1.519.732.477 1.492.917 2.24 1.371-.313-1.485-.668-2.961-1.013-4.439-1.005-.306-2.103-.986-2.291-2.1.058-.695.904-.616 1.395-.487-.002-.65-.068-1.578.607-1.917z"/><path d="m1.185 7.125c.558-.205.76.493.763.914.509-.139 1.222-.428 1.636.035.106.611-.494 1.026-.928 1.339.411.218.813.928.234 1.192-.918.286-2.078-.044-2.661-.823-.304-.931.087-2.159.956-2.657z"/><path d="m17.733 7.504c1.185.013 2.08 1.132 1.886 2.29-1.165-.073-2.048-1.125-1.886-2.29z"/><path d="m22.654 13.683c1.732-1.651 3.459-3.304 5.2-4.948.004.406 0 .812 0 1.218-1.072 1.047-2.163 2.072-3.265 3.086.306.313.622.618.905.953.722-.212 1.674-.225 2.206.388.226.444-.283.735-.631.861.265.409.645.924.419 1.426-.48.329-1.039-.135-1.437-.408-.117.304-.287.608-.609.729-.85-.408-.779-1.567-.579-2.342-.246-.354-.617-.633-.9-.968-.207.204-.443.379-.622.61.176.758.268 1.743-.371 2.316-.431.259-.729-.3-.851-.635-.396.269-.94.703-1.424.417-.305-.501.16-1.046.433-1.455-.366-.112-.927-.472-.613-.907.551-.538 1.437-.539 2.139-.341z"/><path d="m3.498 9.507c1.006.23 1.582 1.291 1.26 2.269-1.02-.181-1.623-1.308-1.26-2.269z"/><path d="m8.574 12.104c-.124-1.163.794-2.267 1.98-2.284.171 1.169-.751 2.371-1.98 2.284z"/><path d="m19.692 10.358c.424-.883 1.839-.18 1.322.696.949-.087 1.058 1.39.106 1.434.529.846-.758 1.68-1.284.822-.404.904-1.813.213-1.32-.668-.975.047-1.032-1.428-.055-1.451-.609-.813.696-1.663 1.231-.833z"/><path d="m21.946 13.082c-.138-1.011.673-1.974 1.698-1.98.133 1.03-.683 1.924-1.698 1.98z"/><path d="m26.207 11.734c.315-.054.554.214.814.346.464-.746 1.052.195.758.727-.051.992-1.436 1.022-1.934.379-.145-.312.185-.479.435-.536-.106-.273-.371-.68-.073-.916z"/><path d="m9.534 12.607c1.313.828 1.572 2.693.604 3.888-1.295-.844-1.513-2.678-.604-3.888z"/><path d="m1.236 16.561c-.118-.677-.157-1.614.549-1.986.298.095.469.358.56.642.373-.199.842-.619 1.268-.343.246.421-.138.875-.36 1.224.278.116.716.348.544.715-.449.566-1.285.496-1.923.379-.621.569-1.194 1.187-1.825 1.744.012-.414-.041-.842.035-1.247.352-.408.759-.763 1.152-1.128z"/><path d="m23.637 19.299c-1.098-.15-1.882-1.254-1.592-2.341 1.102.154 1.866 1.254 1.592 2.341z"/><path d="m25.22 18.717c.105-.465.125-1.232.714-1.316.513.182.584.838.664 1.307.332-.121.873-.329 1.059.11.119.816-.576 1.471-1.194 1.887.055.405.059.815.115 1.22.382-.08.763-.168 1.142-.262-.019.259.06.546-.051.788-1.171.282-2.347.555-3.522.823-.18.596-.462 1.342-1.143 1.49-.424-.016-.42-.524-.393-.838-.396.066-.933.182-1.221-.182-.112-.511.463-.783.825-.997-.216-.244-.492-.737-.088-.943.685-.218 1.432.196 1.869.719.619-.143 1.243-.269 1.857-.437-.055-.405-.054-.818-.121-1.218-.769-.374-1.669-1.058-1.544-2.02.159-.446.705-.244 1.032-.131z"/><path d="m.139 20.387c.152-1.592 1.739-2.659 3.279-2.361-.136 1.593-1.734 2.708-3.279 2.361z"/><path d="m2.197 21.071c.468-1.014 2.062-.207 1.432.765 1.125-.169 1.245 1.627.112 1.617.663.925-.791 1.842-1.386.918-.441 1.005-2.049.187-1.437-.763-1.099.124-1.208-1.617-.105-1.632-.658-.909.822-1.846 1.384-.905z"/><path d="m17.742 26.021c-.468-1.517.507-3.135 2.052-3.456.493 1.524-.494 3.15-2.052 3.456z"/><path d="m25.818 23.952c.397-.8 1.597-.148 1.169.626.866-.063.918 1.297.059 1.32.526.71-.605 1.503-1.079.757-.402.774-1.566.12-1.143-.638-.846.078-.905-1.297-.069-1.319-.516-.699.604-1.484 1.063-.746z"/><path d="m20.97 24.293c.575-.02.777.682.946 1.121.288-.189.805-.48 1.033-.064.254.737-.333 1.409-.719 1.963.316 1.505.649 3.012 1.005 4.51.387-.503.809-.991 1.135-1.533-.219-.838-.298-1.888.33-2.571.483-.364.911.229.987.669.452-.299 1.08-.815 1.618-.444.248.56-.166 1.153-.502 1.587.408.141.991.528.67 1.022-.607.625-1.608.579-2.391.379-.549.547-.949 1.228-1.458 1.813-.352.068-.723.009-1.082.02-.18-.723-.333-1.452-.501-2.178-.921-.563-1.83-1.157-2.775-1.673-.516.092-1.148.271-1.583-.128-.251-.304.134-.591.368-.744-.243-.265-.666-.576-.478-.982.339-.258.793.002 1.139.134.069-.269.218-.702.58-.573.511.326.611 1.016.568 1.575.641.368 1.263.766 1.902 1.135-.096-.572-.259-1.129-.376-1.697-.809-.165-1.699-.684-1.879-1.547-.005-.524.663-.515 1.021-.382.013-.477-.06-1.161.442-1.412z"/><path d="m1.259 26.781c-.947-.194-1.518-1.243-1.142-2.142.921.249 1.461 1.234 1.142 2.142z"/><path d="m2.893 26.301c.05-.462.123-1.059.601-1.274.569.074.651.782.78 1.232.305-.143.893-.335 1.007.129.096.813-.62 1.411-1.271 1.753.011 1.502-.041 3.003-.048 4.504-.291-.003-.582-.005-.874-.004-.001-.179-.001-.358 0-.536-.36-.248-.718-.514-1.116-.695-.494.173-1.119.382-1.589.046-.258-.275.104-.556.302-.729-.283-.226-.665-.532-.566-.941.31-.296.768-.056 1.122.023.055-.262.156-.71.524-.583.493.243.611.862.666 1.359.21.148.43.281.657.402.006-.959.026-1.918.018-2.877-.602-.335-1.258-.843-1.263-1.597.097-.509.713-.352 1.05-.212z"/><path d="m8.027 26.867c.137-.542.766-1.338 1.334-.794.64.777.66 1.915.371 2.841-.252.538.642.69.626 1.197.002.358-.003.716-.013 1.075-.475-.421-.883-.91-1.337-1.352-1.042.375-2.412.417-3.261-.393-.463-.608.348-1.105.857-1.26-.377-.537-1.001-1.272-.572-1.934.691-.384 1.446.225 1.995.62z"/><path d="m.496 27.691c-.655-.607.604-.782.967-.426.841.293-.148 2.2-.53 1.079-.245.042-.526.174-.757.019-.094-.278.148-.492.32-.672z"/><path d="m18.732 30.023c-.046-.78 1.173-.83 1.186-.047.67-.387 1.304.588.662 1.027.696.38.146 1.397-.568 1.082-.015.763-1.179.774-1.203.008-.672.405-1.28-.594-.635-1.011-.695-.364-.157-1.444.558-1.059z"/><path d="m4.364 32.24c-.131-1.117.788-2.097 1.9-2.099.095 1.105-.778 2.114-1.9 2.099z"/><path d="m8.468 30.501c.317-.491 1.042-.133.849.419.526.062.574.827.054.941.23.533-.42.952-.805.521-.305.452-1.047.138-.844-.412-.566-.048-.621-.88-.036-.945-.323-.525.416-.977.782-.524z"/><path d="m24.587 32.103c.715-.849 2.138-.892 2.815.012-.729.859-2.071.793-2.815-.012z"/></svg>