<svg enable-background="new 0 0 29.275 31.748" viewBox="0 0 29.275 31.748" xmlns="http://www.w3.org/2000/svg"><path d="m.106.463c-.023-.565.914-.642.978-.068-.011 3.268-.098 6.547-.007 9.81.328-.013.657-.007.985-.005.103-3.254.005-6.529.08-9.79.077-.566.976-.521.993.052-.058 3.236-.036 6.475-.046 9.713.338.021.72.07 1.039-.007-.001-3.241.031-6.481.055-9.723.019-.591 1-.578 1.002.017-.051 3.247-.034 6.498-.035 9.747.347-.009.694.007 1.041-.01-.008-3.268-.02-6.539.049-9.804.072-.539 1.002-.481.975.079-.027 3.243-.023 6.488-.025 9.733.349.007.698-.005 1.047.012.012-3.267-.026-6.537.049-9.803.065-.557 1-.494.974.085-.012 3.234-.045 6.469-.047 9.704.344.021.689.005 1.033.01.088-3.245-.012-6.503.075-9.749.014-.576.956-.583.976-.003-.045 3.252-.026 6.509-.04 9.763 2.251-.027 4.501.062 6.751.021.02-3.052-.01-6.104.048-9.156.025-.321-.092-.744.222-.958.324-.243.829.063.76.469-.077 10.181-.042 20.368-.082 30.553.078.667-.977.725-.98.059-.038-3.232.027-6.463.011-9.695-2.245.007-4.489-.021-6.733-.032-.081 3.265-.009 6.535-.053 9.801-.092.54-.982.471-.973-.086-.002-3.572-.009-7.146.021-10.718 2.58-.003 5.16.019 7.74.016-.037-.33.093-.734-.057-1.017-2.908-.017-5.817-.021-8.725-.032-.028 3.953.013 7.907-.055 11.857-.138.537-1.017.417-.97-.151.011-4.238-.026-8.479.043-12.715 3.236-.003 6.475.014 9.709.035.147-.291.05-.726.025-1.064-3.602.017-7.214-.053-10.811-.004.011 4.602-.005 9.205-.016 13.806-.043.574-.954.574-.997.001-.027-4.95.045-9.898.034-14.848 3.946.012 7.891.013 11.836.033-.008-.348-.009-.696-.003-1.044-4.286-.011-8.573-.039-12.859-.058-.033 5.297-.047 10.591-.054 15.89-.022.615-1.016.582-1.013-.029.021-5.614.044-11.231.038-16.846 4.618-.033 9.254.021 13.879.016.024-.344.007-.689.009-1.033-4.969-.054-9.94-.059-14.911-.066-.024 5.958-.061 11.912-.055 17.872.041.379-.369.638-.712.524-.085-.097-.174-.188-.265-.277-.005-6.377-.033-12.765.05-19.137 5.301.046 10.604.057 15.907.061-.015-.343.005-.688-.016-1.031-5.655-.032-11.31-.059-16.966-.067-.01 6.693-.009 13.385-.058 20.075-.08.6-1.053.43-.974-.152.032-10.212.031-20.425.104-30.636z"/><path d="m20.111.424c.098-.517.968-.431.966.096-.075 10.26-.007 20.528-.099 30.787-.022.156-.149.266-.242.384-.339.111-.733-.097-.729-.479.019-10.263-.004-20.531.104-30.788z"/><path d="m22.513.089c.278-.089.578.151.586.433-.033 10.205-.071 20.408-.07 30.613.099.653-.94.787-.994.134.045-10.218-.001-20.451.085-30.669-.021-.237.157-.472.393-.511z"/><path d="m24.515.087c.281-.052.611.126.626.434-.088 10.245-.013 20.496-.094 30.739.001.582-.921.625-.989.059-.002-10.253.029-20.503.069-30.754 0-.22.171-.437.388-.478z"/><path d="m26.743.088c.224-.005.432.193.458.414-.077 10.082-.03 20.17-.076 30.253.014.32.074.751-.265.929-.313.193-.714-.087-.734-.425-.01-10.19.046-20.378.068-30.567-.039-.321.213-.635.549-.604z"/><path d="m28.743.092c.251-.026.528.174.531.437-.041 10.259-.063 20.517-.074 30.777-.069.606-1.062.523-1.017-.093.015-10.196.021-20.386.095-30.581-.055-.287.191-.521.465-.54z"/></svg>