<svg enable-background="new 0 0 75.781 76.13" viewBox="0 0 75.781 76.13" xmlns="http://www.w3.org/2000/svg"><g clip-rule="evenodd" fill-rule="evenodd"><path d="m15.45 8.442c.011-1.01.847-1.629 1.545-2.125 2.075-1.473 4.676-2.766 7.241-3.717 3.574-1.326 7.54-2.346 12.068-2.559 5.392-.254 10.142.682 14.192 2.172 2.871 1.057 5.743 2.381 8.157 4.104.917.654 2.133 1.244 2.027 2.752-.114 1.645-2.396 2.385-3.523 3.041-2.885 1.68-5.522 2.965-8.303 4.826-1.684 1.129-3.48 1.822-3.91 4.104-.347 1.84-.097 4.332-.097 6.613 0 2.256.237 4.572-.338 6.227-.434 1.246-1.442 2.367-3.041 2.752-.976.236-2.239.193-3.572.193-1.621 0-3.195.055-4.296-.482-1.067-.52-2.124-1.678-2.414-3.041-.201-.947-.097-2.111-.097-3.283 0-1.113 0-2.289 0-3.379 0-2.899.284-5.742-.724-7.434-.762-1.277-2.238-2.115-3.524-2.848-1.326-.756-2.767-1.625-4.007-2.365-1.871-1.117-3.976-2.32-5.985-3.572-.718-.45-1.441-1.02-1.399-1.979z"/><path d="m10.14 64.049c-2.693-3.191-5.133-6.728-7.048-10.908-1.807-3.945-3.163-9.215-3.089-14.82.143-10.818 3.836-18.725 8.93-24.715.771-.906 1.292-1.6 2.221-2.461.61-.568 1.743-1.795 2.414-.58.351.635.144 2.021.145 3.186v6.856c0 1.871-.038 3.371.676 4.441.751 1.125 2.113 1.945 3.379 2.75 2.572 1.639 4.985 3.062 7.53 4.73 1.646 1.08 3.763 1.926 4.586 3.67.912 1.932.063 4.275-1.255 5.308-1.104.867-3.134 1.908-4.344 2.703-2.769 1.822-6.073 3.441-8.689 5.408-1.387 1.043-2.208 2.639-2.365 4.682-.238 3.086-.048 6.025-.048 9.172 0 .924.167 2.438-.386 2.654-.527.207-1.151-.572-1.448-.869-.473-.468-.842-.84-1.209-1.207z"/><path d="m57.495 28.522c1.995-1.408 4.482-2.115 4.779-5.357.161-1.758 0-4.193 0-6.324 0-.98 0-1.978 0-3.137 0-1.465-.237-3.371.917-3.476.576-.053 1.146.615 1.593 1.062 1.249 1.248 2.593 2.865 3.572 4.104 4.785 6.537 8.677 16.123 7.048 27.996-1.053 7.672-4.274 13.627-8.255 18.633-.918 1.156-1.993 2.412-3.234 3.477-.391.334-1.032.861-1.448.771-.729-.156-.526-2.203-.482-3.137.124-2.629.049-4.625.049-7.289-.001-1.904.128-3.51-.531-4.684-.662-1.176-2.074-2.025-3.331-2.799-2.597-1.598-4.98-2.936-7.627-4.537-.615-.373-1.276-.74-1.882-1.158-.65-.451-1.347-.742-1.834-1.207-.77-.734-1.375-1.773-1.4-2.994-.032-1.607.763-2.932 1.786-3.717.515-.393 1.165-.664 1.689-1.061.56-.424 1.118-.797 1.641-1.111 2.465-1.475 4.478-2.602 6.95-4.055z"/><path d="m60.053 66.995c.188 1.475-.742 2.147-1.689 2.848-2.197 1.627-4.939 3.031-7.675 3.959-3.65 1.238-8.18 2.469-13.082 2.316-7.55-.234-13.298-2.059-18.392-4.924-.754-.424-1.503-.896-2.414-1.447-.997-.603-1.837-1.201-1.786-2.365.071-1.607 2.422-2.418 3.572-3.09 2.893-1.691 5.508-3.076 8.447-4.828 1.749-1.041 3.457-2.398 3.813-4.633.259-1.623.135-3.717.097-5.697-.019-.959.018-1.943.048-2.895.032-1.039-.095-2.051 0-2.896.213-1.904 1.753-3.672 3.717-3.863.995-.096 2.358 0 3.668 0 1.328.002 2.707-.143 3.621.193 1.136.42 2.072 1.465 2.462 2.512.656 1.76.29 4.334.29 6.853v3.621c0 1.254-.152 2.732.145 3.619.504 1.51 2.032 2.268 3.379 3.09 2.825 1.725 5.342 3.129 8.109 4.828 1.292.791 3.011 1.248 3.67 2.799z"/></g></svg>