<svg enable-background="new 0 0 79.811 59.734" viewBox="0 0 79.811 59.734" xmlns="http://www.w3.org/2000/svg"><path clip-rule="evenodd" d="m41.193 4.306c-.209.452-.752.621-1.158.805-6.549 2.977-13.293 6.064-19.785 9.163-.938.521-2.062.858-2.87 1.511.406.561 1.114.779 1.712 1.057 3.7 1.722 7.422 3.495 11.227 5.336.571.276 1.418.792 1.913.806.42.011 1.162-.4 1.712-.655 3.7-1.711 7.553-3.44 11.126-5.236 2.096-1.053 4.229-1.935 6.343-3.02 1.482-.761 3.093-1.455 4.733-2.266.557-.275 1.239-.693 1.61-.705.694-.021 2.278.885 2.92 1.158 1.947.827 3.765 1.567 5.689 2.366.924.384 1.899.744 2.718 1.309-.055.389-.521.568-.805.705-2.331 1.12-4.744 2.152-7.149 3.272-2.654 1.237-5.372 2.525-8.105 3.826-3.97 1.89-8.011 3.892-12.133 5.739-1.185.531-2.947 1.232-3.927 2.014-.647.516-1.45 1.744-.252 2.266 1.846-.285 3.294-1.222 4.833-1.913 1.551-.696 3.031-1.483 4.582-2.165 1.53-.673 3.16-1.287 4.632-2.115 1.423-.8 2.951-1.539 4.481-2.215 4.581-2.024 9.12-4.26 13.895-6.343 1.957-.854 5.122-1.392 7.099-.252 2.859 1.648 3.941 5.354 3.474 9.918-.67 6.538-3.627 10.806-8.156 13.492-2.268 1.346-4.714 2.534-7.148 3.675-7.424 3.481-14.594 6.923-22.001 10.472-1.738.833-3.621 1.802-5.487 2.668-.646.3-1.497.755-1.913.755-.828 0-1.874-.915-2.517-1.258-.899-.481-1.693-.775-2.467-1.259-1.625-.875-3.421-1.58-4.884-2.618-.15-7.669.05-15.69-.101-23.359-1.088-.939-2.494-1.384-3.776-2.014-3.781-1.859-7.681-3.833-11.629-5.588-.273.775-.151 1.768-.151 2.769 0 6.616.066 13.486-.151 19.836-.867-.065-1.661-.612-2.417-1.007-1.859-.973-3.75-1.967-5.739-3.021-.374-.198-.942-.443-1.058-.655-.158-.29-.036-1.015-.05-1.611-.091-3.804.032-8.426 0-11.932-.042-4.613-.114-9.575 0-13.895 2.388-1.392 4.98-2.443 7.501-3.624 7.516-3.524 15.245-6.998 22.856-10.472.78-.173 2.078.548 2.971.906 2.281.916 4.38 1.767 6.595 2.718.403.175.98.21 1.207.656zm-2.92 42.842c.668-.351 1.341-.683 2.014-1.007 8.248-3.981 16.543-7.739 24.82-11.68 1.422-.677 2.993-1.202 4.077-2.014.503-.376 1.546-1.308 1.259-2.165-.1-.298-.593-.564-.956-.453-1.271.389-2.498 1.135-3.726 1.711-1.247.586-2.521 1.101-3.726 1.662-2.44 1.137-4.846 2.375-7.3 3.474-1.231.551-2.482 1.095-3.675 1.712-3.59 1.856-7.397 3.351-10.925 5.236-.715.28-1.418.613-2.115.957-.685.337-1.477.589-1.963 1.158-.056.636-.057 1.628.101 2.215.758-.061 1.466-.466 2.115-.806z" fill-rule="evenodd"/></svg>