<svg enable-background="new 0 0 77.359 67.54" viewBox="0 0 77.359 67.54" xmlns="http://www.w3.org/2000/svg"><g clip-rule="evenodd" fill-rule="evenodd"><path d="m.542 0c7.358.059 14.928-.094 22.059.191.481.336.687.957.917 1.449.735 1.568 1.563 3.158 2.317 4.779.993 2.135 1.937 4.322 2.944 6.467 1.001 2.131 2.038 4.234 3.09 6.324 1.061 2.109 1.784 4.385 3.09 6.324 2.354.188 5.24.1 7.675.049.778-.898 1.144-2.047 1.689-3.09 3.271-6.264 6.415-12.723 9.605-19.068.514-1.02.948-2.182 1.69-3.041 7.219.006 14.732-.057 21.577.098.283.799.111 1.844.097 2.848-.016.998.191 2.059-.097 2.848-5.818.24-12.147.021-17.957.049-.8.836-1.233 1.971-1.738 2.992-2.56 5.18-5.305 10.447-7.916 15.641-1.054 2.094-1.985 4.232-3.234 6.178-4.938.049-10.315.16-15.157-.144-.653-.941-1.152-2.004-1.642-3.041-.497-1.055-1.012-2.092-1.544-3.137-.534-1.047-.897-2.211-1.4-3.283-1.953-4.162-4.18-8.303-6.179-12.502-.49-1.029-.89-2.137-1.593-3.041-6.209-.163-12.526.018-18.439-.243-.207-.67-.15-1.658-.145-2.703.005-.912.021-2.25.145-2.799.027-.071.075-.118.146-.145z"/><path d="m.493 11.102c3.562.043 7.307-.098 10.717.096.711.752 1.064 1.787 1.496 2.705 2.178 4.631 4.456 9.354 6.758 14.047.634 1.291 1.355 2.732 2.027 4.199.232.508.615 1.084.628 1.447.023.674-1.006 2.297-1.304 2.896-2.291 4.635-4.575 9.32-6.902 13.951-.933 1.854-1.659 3.801-2.8 5.502-3.494.018-7.444.076-10.909-.096-.259-.867-.144-1.818-.145-2.703-.001-12.064.227-24.24.145-36.494-.006-.774.058-1.736.048-2.703-.01-.875-.071-2.213.097-2.703.026-.068.074-.117.144-.144z"/><path d="m58.95 61.545c4.47.1 8.957.096 13.613.098 1.49 0 3.023-.117 4.44.145.161 1.803.085 3.842 0 5.6-.81.275-1.692.096-2.559.096-6.243 0-12.996.09-19.067-.145-.477-.369-.666-.988-.917-1.496-2.855-5.775-5.805-11.695-8.641-17.57-1.033-2.141-1.983-4.307-3.185-6.324-2.523-.156-5.159-.068-7.675-.049-.496.328-.684.951-.918 1.449-1.732 3.684-3.56 7.449-5.406 11.15-1.059 2.123-2.003 4.303-3.041 6.42-1.035 2.111-1.958 4.264-3.185 6.227-7.314-.002-15.026.025-22.254-.191-.286-.812-.086-1.83-.097-2.801-.01-.937-.071-1.916.097-2.752 1.428-.322 2.953-.025 4.489-.096 4.549-.207 9.484.264 13.951 0 .438-.344.657-.934.917-1.449 2.331-4.635 4.677-9.344 7.048-14.143.507-1.029.875-2.154 1.448-3.234.768-1.447 1.609-3.037 2.413-4.635.339-.674.45-1.357 1.11-1.447.553-.076 1.256.049 1.883.047 4.339 0 8.697.041 12.889.098.515.338.612.994.868 1.496 3.401 6.676 6.847 13.666 10.138 20.467.502 1.035.921 2.135 1.641 3.039z"/></g></svg>