<svg enable-background="new 0 0 68.788 69.314" viewBox="0 0 68.788 69.314" xmlns="http://www.w3.org/2000/svg"><g clip-rule="evenodd" fill-rule="evenodd"><path d="m68.44.201c.151 1.438.154 3.497 0 4.936-3.282.158-6.797.093-10.286.092-3.482 0-6.969-.052-10.194.139-.215.691-.118 1.942 0 2.722.79.248 1.652.139 2.491.139 5.923-.001 11.978-.131 17.989.046.153 1.374.153 3.377 0 4.751-3.258.104-6.739.093-10.194.092-3.467 0-6.978-.109-10.24.139-.13.749-.208 1.929-.046 2.676.789.244 1.648.138 2.491.138 5.894-.001 12.412-.149 17.989.047.248 1.353.178 3.508.046 4.936-6.55.247-13.917-.006-20.435.23-.242.809-.138 1.865-.138 2.905 0 1.009-.072 2.068.092 2.906 1.599.224 3.282.146 4.981.093 1.654-.053 3.371-.001 5.074 0 3.467 0 7.029-.077 10.425.092.184 1.165.138 2.441.138 3.736v7.842c0 1.278.175 2.555-.092 3.69-6.638.25-13.94-.051-20.435.23-.196.791-.173 1.838-.138 2.859.035 1.003-.004 2.045.138 2.906.757.259 1.583.117 2.399.139 5.904.158 12.347-.251 18.082.046.15 1.238.156 3.1 0 4.336-4.989.131-10.333.139-15.452.139-1.712 0-3.415-.111-5.028.138-.15.7-.15 1.977 0 2.676.804.251 1.692.139 2.537.139 5.949-.001 12.284-.112 17.943.092.25 1.264.175 3.321.046 4.659-6.563.222-13.902-.041-20.435.185-.289.641-.16 1.936-.046 2.722.789.248 1.656.138 2.491.138 5.995.001 12.085-.126 17.99.047.241 1.395.182 3.562.046 5.027-.985.137-2.057.188-3.09.139-3.174-.151-6.535-.001-9.825 0-4.38 0-8.771.124-12.961-.046-.251-1.397-.139-2.838-.139-4.244 0-21.231-.308-43.094-.092-64.624 4.835-.38 9.976.056 15.038-.185 3.657-.178 7.339.06 10.84.135z"/><path d="m20.837.201c.311 8.56-.017 17.988.277 26.846.009.037.046.046.046.092 1.625.063 4.038.241 5.766-.046.331-8.287-.16-18.104.138-26.892 1.346-.151 3.314-.154 4.659 0 .256 22.701.306 45.918.231 68.867-1.343.152-3.316.154-4.659 0-.304-8.744-.017-17.733-.277-26.246-.809-.242-1.865-.138-2.906-.139-1.007 0-2.066-.069-2.906.093-.228 1.005-.136 2.07-.139 3.137-.016 7.178.2 15.732 0 23.155-1.26.252-3.324.175-4.659.047-.284-23.061-.327-46.089-.23-68.868 1.32-.192 3.286-.213 4.659-.046z"/><path d="m39.426.247c.16 21.726.276 43.177.276 64.716 0 1.388.184 2.816-.092 4.198-1.43.077-3.228.084-4.475-.046-.248-1.283-.138-2.775-.138-4.244 0-18.631-.185-37.5-.185-56.228 0-2.294-.028-5.022 0-7.657.007-.716-.029-.784.415-.877.644-.134 1.442.017 2.122.046.729.031 1.431-.099 2.077.092z"/><path d="m13.041.247c.178 8.575.184 17.268.184 26.016 0 14.521.185 28.674.046 42.898-1.347.151-3.312.152-4.659 0-.18-2.7-.139-5.54-.139-8.396 0-19.336-.185-38.952-.185-58.535 0-.676-.11-1.384.139-2.029 1.489-.048 3.232-.066 4.614.046z"/><path d="m5.199.247c.246 5.674.139 11.427.139 17.205 0 11.488.138 23.143.138 34.733 0 4.935.173 10.062.046 14.992-.017.663.128 1.345-.092 1.983-1.494.193-3.475.198-5.074.046-.192-17.275-.277-34.688-.277-51.754 0-5.062-.046-10.084-.046-15.222 0-.637-.15-1.384.184-1.983 1.556-.076 3.427-.077 4.982 0z"/></g></svg>