<svg enable-background="new 0 0 76.707 60.294" viewBox="0 0 76.707 60.294" xmlns="http://www.w3.org/2000/svg"><g clip-rule="evenodd" fill-rule="evenodd"><path d="m76.336.06c.256 2.077.143 4.266.143 6.452 0 4.294.048 8.655.047 13.047 0 1.105-.045 2.21 0 3.298.043 1.021.175 2.079-.095 3.059-10.944.159-21.73.141-32.642.143-.66 0-1.376.185-2.007-.096-.173-1.962-.095-4.363-.096-6.548 0-.697-.134-1.422.096-2.007 3.231.687 5.355 2.482 7.073 4.684.617.689.937 1.675 1.577 2.342.259-.946.143-1.973.143-2.963 0-6.964-.122-14.289 0-21.268 8.371-.244 17.387-.236 25.761-.143z"/><path d="m25.725.299c.227 8.163-.016 16.286.239 24.421.474.008.526-.809.86-1.099.719-1.305 1.58-2.467 2.677-3.393.67-.644 1.482-1.233 2.342-1.721.856-.485 1.847-.938 2.915-1.052.14 2.771.238 5.792.048 8.556-1.372.216-2.799.142-4.206.142-8.629.001-17.236.096-26.19.096-1.438 0-2.867.117-4.253-.143-.203-8.405-.179-17.423-.096-25.759 1.752-.305 3.598-.097 5.448-.096 3.576 0 7.33-.048 11.136-.048 1.937 0 3.986 0 5.735-.048 1.077-.03 2.339-.081 3.345.144z"/><path d="m76.48 33.227c.217 7.744.19 15.73.191 23.609 0 1.074.127 2.14-.096 3.106-6.237.152-12.906.143-19.355.143-2.122.001-4.236.181-6.261-.095-.213-5.975-.239-12.062-.239-18.353 0-2.015.008-4.066-.191-6.021-.425.28-.587.795-.812 1.195-.68 1.203-1.565 2.336-2.629 3.249-1.394 1.197-3.057 2.244-5.209 2.677-.143-3.121-.229-6.304-.048-9.415 3.669-.305 7.435-.031 11.135-.144 5.195-.156 9.908-.047 15.198-.047 1.33 0 2.806.008 4.015-.049 1.407-.064 2.962-.051 4.301.145z"/><path d="m34.805 33.323c.178 2.922.248 6.576.048 9.415-1.252-.079-2.339-.726-3.298-1.29-1.682-.991-3.065-2.312-4.158-3.919-.458-.674-.794-1.434-1.338-2.056-.24.966-.163 1.999-.143 3.011.142 7.164.062 14.633 0 21.602-6.232.23-12.794.192-19.355.192-2.126-.001-4.254.088-6.261-.144-.17-8.656-.239-17.847-.096-26.668 2.108-.266 4.447-.095 6.93-.096 4.731-.001 9.628-.048 14.481-.048 4.448.002 8.872-.221 13.19.001z"/></g></svg>