<svg enable-background="new 0 0 91.696 28.184" viewBox="0 0 91.696 28.184" xmlns="http://www.w3.org/2000/svg"><g clip-rule="evenodd" fill-rule="evenodd"><path d="m12.017 8.362h.672c.544-.347.362-1.17.362-1.86 0-.695 0-1.461 0-2.171-.001-1.501-.172-3.071.154-4.135 2.763-.236 5.938-.051 8.839-.052.97 0 1.941-.118 2.791.155.409 1.151.156 2.691.155 4.031-.002 1.334-.048 2.811.258 3.928.229.126.816.174 1.033 0 .382-.489.229-1.2.208-1.86-.021-.67-.015-1.412 0-2.119.027-1.381-.143-2.828.154-3.98.345-.164 1.275-.181 1.551.052.227.7.193 1.543.207 2.377.013.829-.053 1.678-.052 2.532 0 1.709.158 3.458-.104 4.858-.63.247-1.59.103-2.48.104-.885 0-1.842.113-2.481-.155-.421-2.259.077-5.509-.259-7.908-1.046-.363-2.532-.207-3.928-.207-1.392 0-2.865-.116-3.979.155-.262 1.164-.181 2.625-.155 3.98.026 1.389.104 2.847-.155 4.031-.672.282-1.579.072-2.48.104-.871.03-1.814.09-2.532-.155-.223-1.142-.208-2.601-.208-3.979 0-1.394.12-2.825-.155-3.98-.979-.273-2.605-.155-3.824-.155-.542 0-1.234 0-2.016 0-.621 0-1.562-.091-1.81.155-.287.286-.206 2.074-.206 2.895 0 3.178.053 6.083.052 9.251 0 2.911.104 6.086.104 9.097 0 .927-.148 2.335.155 2.739.403.538 2.85.258 3.825.258h2.066c.624 0 1.545.08 1.81-.207.421-.458.155-3.186.155-3.98-.001-1.361-.228-2.766.103-3.876.647-.269 1.576-.155 2.481-.155.868 0 1.799-.077 2.48.103.408 1.077.146 2.566.207 4.031.026.619.103 1.357.104 2.016.001.49-.114 1.551.104 1.861.305.434 2.377.256 3.049.258 1.61.006 3.496.08 4.807-.206.314-1.138.104-2.573.104-3.98 0-1.385-.121-2.831.155-3.979 1.477-.158 3.53-.298 4.91.051.367 1.276.258 2.966.258 4.652s.085 3.447-.103 4.962c-.32.289-1.214.259-1.603.051-.319-1.679-.207-4.091-.207-6.15 0-.656.125-1.398-.311-1.809-.21-.092-.556-.052-.774 0-.552.491-.368 1.454-.362 2.274.014 1.792.128 3.926-.103 5.634-.873.272-1.885.155-2.894.155-1.947 0-3.996 0-5.996 0-.988 0-1.989.121-2.843-.155-.314-1.186-.113-2.624-.155-3.928-.042-1.329.058-2.697-.206-3.877-.256-.146-.829-.146-1.085 0-.297 1.097-.155 2.521-.155 3.928 0 .709-.017 1.444 0 2.119.015.64.202 1.331-.155 1.809-3.354.157-7.667.105-11.423-.051-.199-8.737-.105-17.399-.105-25.894 0-.614-.119-1.283.155-1.861 2.091-.109 5.86-.2 8.167-.104.502.021 2.562-.069 2.945.207.404.29.311 1.368.311 1.964v4.342c0 .695-.156 1.478.413 1.809z"/><path d="m64.942.3c.287 1.218.155 2.687.156 4.134 0 2.825.052 5.54.051 8.632 0 1.205-.43 3.705.879 3.515.905-.132.62-2.637.62-3.722.001-4.246-.149-8.378.052-12.507.908-.361 1.94-.207 2.946-.207 3.003 0 6.237.052 9.406.052 4.217 0 8.478-.141 12.404.103.362 1.024.207 2.182.207 3.308v20.984c0 1.142.124 2.287-.155 3.359-1.441.342-3.075.06-4.703.104-1.583.042-3.186 0-4.651 0-.675 0-1.395.133-1.965-.104-.28-1.294-.154-2.714-.154-4.083-.001-3.322.001-6.631 0-10.131 0-.602.115-1.307-.259-1.809-.268-.074-.838-.108-1.033.052-.359.539-.207 1.267-.207 1.912 0 1.947-.052 4.022-.052 6.047 0 2.705.228 5.625-.104 8.011-.605.34-.934.148-1.602.155-6.632.071-13.653-.002-20.519 0-.905 0-2.474.127-2.79-.155-.426-.377-.312-3.125-.311-3.928.001-3.019-.001-5.368 0-8.477 0-1.023.291-3.556-.465-3.721-.983-.215-.932.906-.931 1.912 0 2.853.072 5.63 0 8.27-.049 1.784.411 4.394-.104 5.995-2.693.202-5.884.235-8.786.104-.975-.044-1.98.15-2.843-.155-.257-1.723-.155-4.185-.155-6.253 0-.639.109-1.395-.414-1.706-.251.023-.604-.054-.775.052-.445.386-.258 1.159-.258 1.809 0 2.025.1 4.335-.155 6.099-.355.218-1.314.247-1.602-.051-.201-2.203-.155-4.906-.155-7.391 0-.787-.188-1.59.155-2.223.573-.334 1.408-.108 2.429-.155.635-.029 1.964-.288 2.378.155.244.263.154 1.318.154 1.913 0 1.958-.119 4.32.155 5.944.672.34 1.669.329 2.533.31 1.803-.04 3.776-.07 5.375-.207.3-1.046.135-2.434.103-3.773-.08-3.329-.053-6.955-.052-10.44 0-.634-.055-1.622.206-1.861.429-.393 1.8-.207 2.43-.207.96 0 1.879-.098 2.48.155.359 1.242.207 2.672.207 4.032 0 2.693.052 5.175.052 7.959 0 1.357-.122 2.74.155 4.032 1.57.342 3.363.155 5.168.155 3.629.001 7.283.108 10.751 0 1.806-.056 3.59.168 5.271-.103.278-1.239.155-2.608.155-3.98 0-2.67 0-5.442 0-8.166 0-1.353-.125-2.707.155-3.928 1.405-.168 3.505-.173 4.909 0 .363 1.18.207 2.567.207 3.928v8.218c0 1.339-.132 2.699.207 3.877 1.062.274 2.486.155 3.825.155 1.342 0 2.704.121 3.721-.206.312-5.958.153-12.63.155-18.917 0-1.716.052-3.426-.207-5.065-1.481-.368-3.092-.207-4.703-.206-4.59 0-9.76.064-14.316.052-.615-.002-1.443-.211-1.913.155-.367 1.195-.206 2.622-.206 3.98-.001 4.028.177 8.188-.052 12.043-.609.366-1.666.268-2.585.258-.903-.009-1.927.153-2.532-.258-.189-4.649-.103-9.156-.103-14.11 0-.596.066-1.616-.155-1.861-.282-.313-1.722-.207-2.532-.207-5.7.001-10.738.051-16.177.052-.649 0-2.222-.136-2.533.155-.313.293-.155 1.228-.155 1.861v2.067c0 1.531.12 2.884-.154 4.031-1.294.255-3.563.25-4.858 0-.34-1.69-.121-3.569-.104-5.375.014-1.421-.241-3.047.104-4.393.365-.238 1.241-.212 1.551.051.278 1.245.154 2.373.154 3.98 0 .946-.29 3.508.259 3.876.181.122.602.137.826.052.674-.253.414-2.78.414-3.979 0-.987-.279-3.582.155-3.98.395-.362 2.056-.145 2.946-.103 1.183.055 2.116 0 2.997 0 5.712.001 10.266-.103 15.919-.104 1.058-.004 2.113-.125 3.103.152z"/><path d="m31.554.351c.272.989.155 2.098.155 3.204 0 3.18.2 6.729-.052 9.768-.731.264-1.645.207-2.584.207-2.211 0-4.688-.052-7.029-.051-.733 0-1.512.131-2.119-.207-.251-2.56-.035-5.417-.311-7.856-.227-.197-.849-.214-1.137-.052-.324.49-.155 1.188-.155 1.861 0 1.93.122 4.392-.155 6.099-.831.271-1.837.155-2.843.155-1.986 0-3.899-.052-5.943-.052-.776 0-2.464.172-2.791-.155-.244-.245-.227-1.397-.207-1.964.029-.777.028-1.321 0-1.913-.068-1.49.171-2.967-.206-4.031-.199-.155-.834-.155-1.034 0-.408.563-.206 1.373-.206 2.068-.001 4.62.028 8.966.103 13.542.012.688-.168 1.435.207 2.016.208.118.665.149.931.052.457-.412.288-1.135.259-1.809-.06-1.346 0-2.896 0-4.29-.001-.7-.148-1.381.103-1.913.741-.321 1.68-.224 2.532-.207 1.822.037 3.708.062 5.686 0 1.151-.036 2.348-.092 3.411.155.313 1.691.207 4.04.207 6.202 0 .663-.164 1.467.362 1.809 1.116.345 1.171-.761 1.137-1.861-.062-1.988-.228-4.559.052-6.099.849-.348 1.888-.207 2.894-.207 2.013 0 4.009.058 5.995.052.966-.003 1.932-.12 2.791.155.307.979.114 2.104.154 3.205.08 2.121.053 4.327.053 6.564 0 1.095.123 2.19-.155 3.152-.322.246-1.145.13-1.551 0-.374-1.127-.159-2.478-.155-3.773.009-2.395-.08-4.939-.206-7.235-.553-.263-1.255-.155-1.913-.155-1.934 0-4.111-.174-5.892.103-.372 1.15-.193 2.704-.207 4.031-.013 1.321.214 2.742-.104 3.877-.636.244-1.61.103-2.532.103-.912 0-1.861.13-2.48-.103-.304-1.083-.207-2.454-.207-3.98 0-.602.022-1.334 0-1.964-.019-.507.128-1.626-.155-1.912-.251-.254-1.309-.155-1.912-.155-1.965 0-4.241-.181-5.893.103-.276 1.141-.154 2.619-.154 4.031 0 1.385.231 2.833-.155 3.877-1.266.232-3.622.304-4.807-.052-.272-.814-.155-1.717-.155-2.584 0-5.128-.104-10.744-.104-16.126 0-.828-.206-1.701.104-2.481.546-.327 1.485-.155 2.378-.155.885 0 1.858-.108 2.481.155.308 1.067.207 2.491.207 3.876 0 1.405-.146 2.872.206 3.979 1.016.298 2.485.263 3.98.207.568-.022 1.253.033 1.965 0 .511-.024 1.609.015 1.86-.207.312-.275.207-1.269.207-1.912 0-.659.024-1.515 0-2.067-.062-1.36-.18-2.898.104-3.928.597-.259 1.56-.155 2.532-.155.529 0 2.067-.201 2.429.207.433.486.155 3.018.155 3.98 0 1.06-.278 3.366.259 3.876.455.432 2.868.207 3.876.207 1.424 0 2.769.113 3.877-.155.223-1.393.201-3.043.154-4.704-.043-1.57.037-3.178 0-4.6-.017-.656-.212-1.416.207-1.912.421-.059 1.221-.147 1.496.104z"/><path d="m35.12 11.308c.888.672 2.442.203 3.824.258 1.397.056 2.899.188 4.031-.103.423-2.224-.078-5.443.259-7.805.833-.431 2-.211 2.998-.206 3.655.014 7.763-.087 11.525-.052 1.297.012 2.587-.132 3.773.155.305 1.072.206 2.463.206 3.876 0 2.849.179 5.148.052 8.166-.023.546-.08 1.192-.052 2.016.022.642.003 1.623.207 1.86.247.286 1.334.207 1.86.207h2.068c1.432 0 2.924.142 3.876-.207.214-4.647.104-9.206.104-14.11 0-.605-.17-1.299.154-1.809.672-.268 1.48-.106 2.274-.103 3.872.012 8.041-.052 11.991-.052 1.308 0 2.635-.127 3.876.155.272.836.155 1.737.155 2.636-.001 5.398.038 10.906 0 16.074-.007.843.227 1.723-.155 2.481-1.37.169-3.437.172-4.807 0-.266-1.23-.155-2.576-.155-3.928.001-2.683.042-5.473-.052-8.166-.047-1.358.159-2.734-.154-3.98-1.135-.275-2.6-.155-3.98-.155-1.355 0-2.743-.09-3.772.207-.188 4.433-.103 9.497-.104 14.265 0 .658.047 1.583-.207 1.809-.279.248-1.448.155-2.222.155-3.877 0-7.759-.051-11.682-.052-1.534 0-3.025.244-4.289-.103-.32-.542-.155-1.421-.155-2.274 0-3.685-.052-7.037-.052-11.06 0-.836.114-2.422-.207-2.74-.248-.245-1.453-.155-1.912-.155-1.969 0-4.341-.15-5.893.207-.289 1.189-.104 2.517-.102 3.877 0 3.936-.051 8.427-.104 12.146-.58.35-1.56.206-2.481.206-.908 0-1.902.113-2.533-.155-.284-.522-.086-1.207-.104-1.86-.018-.663-.052-1.336-.052-2.016 0-1.401.121-2.838-.155-3.98-.927-.356-2.438-.258-3.876-.258-.629 0-1.384.024-2.016 0-.616-.023-1.609-.043-1.86.258-.316.379-.104 1.819-.104 2.636v5.685c0 .938.113 1.873-.155 2.636-.363.236-1.225.195-1.551-.051-.346-1.918-.207-4.209-.207-6.461.001-1.101 0-2.231 0-3.308.001-1.086-.217-2.162.104-3.101.833-.269 1.836-.155 2.843-.155 1.991.001 3.88-.032 5.996 0 .731.011 2.372-.144 2.688.155.25.238.21 1.323.207 1.913-.007 1.356 0 2.789 0 4.29 0 .71-.153 1.484.361 1.809 1.237.358 1.036-.807 1.034-1.861-.009-3.028.169-7.186 0-10.75-.06-1.24-.062-2.479.103-3.514.771-.411 1.794-.259 2.791-.259h5.996c1.004 0 1.993-.119 2.843.155.233 1.219.191 2.757.206 4.032.038 3.132-.035 6.482.052 10.079.017.666-.09 1.668.155 1.912.395.395 2.925.155 3.618.155 2.377.001 4.791.051 7.339.052 1.24 0 2.498.118 3.566-.155.279-1.238.154-2.608.155-3.979 0-2.67-.001-5.443 0-8.166 0-1.353-.126-2.707.154-3.929.845-.308 1.826-.103 2.791-.103 1.895 0 3.882-.052 5.893-.052.967 0 1.939-.117 2.791.155.295.706.122 1.56.154 2.378.146 3.652.053 7.462.053 11.06 0 .998-.295 3.172.981 2.636.605-.254.368-3.378.362-4.135-.035-4.388.258-9.479-.155-13.283-1.002-.481-2.249-.229-3.463-.207-2.325.043-4.835 0-7.34 0-1.209 0-2.437-.157-3.515.103-.44 1.141-.258 2.564-.258 3.928 0 3.995.18 8.277-.052 12.146-.845.275-1.864.155-2.895.155-2.066 0-3.665.052-5.84.052-.61 0-2.438.192-2.843-.155-.509-.435-.259-2.84-.259-3.876 0-3.96.049-8.046-.052-12.043-.75-.528-1.881-.362-2.946-.362-3.13.001-6.849.13-9.717.155-.62.005-1.604-.291-1.964.103-.267.301-.14 1.353-.147 1.912-.029 1.872.093 4.233-.103 5.996-.865.326-1.995.106-2.946.104-2.863-.008-5.836.176-8.579-.104-.348-.753-.208-2.086-.207-3.256 0-2.106-.001-4.583 0-6.874 0-1.153-.321-2.864.517-3.049 1.745-.386 1.351 1.329 1.344 2.533-.016 2.483.072 6.116.101 8.578z"/></g></svg>