<svg enable-background="new 0 0 83.589 62.984" viewBox="0 0 83.589 62.984" xmlns="http://www.w3.org/2000/svg"><path clip-rule="evenodd" d="m23.617 10.12c.359-.205.313-.678.396-.99.629-2.381 1.967-4.42 3.562-5.938 2.465-2.583 7.814-4.106 12.271-2.326 2.854 1.14 5.07 3.078 6.433 5.74.46.898.647 1.932 1.188 2.87.822-.454.857-1.511 1.237-2.276.752-1.517 1.539-3.076 2.326-4.651.379-.76.695-1.592 1.287-2.177.517.504.819 1.197 1.138 1.831 7.514 14.941 14.868 30.091 22.465 44.979 1.986 3.891 3.813 7.866 5.889 11.728.341.634.681 1.28.99 1.93.304.639.806 1.271.792 2.029-.481.179-1.471.112-2.029.049-.54-.234-.721-.866-.94-1.336-1.632-3.507-3.582-7.084-5.344-10.589-1.523-3.029-3.092-6.002-4.602-9.055-.489-.988-.913-2.065-1.633-2.919-2.738-.179-5.519-.049-8.313-.049-8.55 0-16.438-.077-24.84 0-.75.819-1.141 1.886-1.633 2.87-2.961 5.925-5.87 11.97-8.857 17.913-.492.979-.887 2.022-1.583 2.87-.568-.361-.765-1.079-1.039-1.633-2.03-4.105-4.146-8.266-6.235-12.42-2.374-4.722-4.872-9.447-7.126-14.201-2.236-4.718-4.626-9.595-6.977-14.35-1.132-2.29-2.596-4.938-2.425-8.165.17-3.207 1.14-5.64 2.919-7.719 1.877-2.079 4.479-3.846 8.264-4.107 3.592-.247 6.291 1.355 8.313 2.969 1.431 1.327 2.72 2.95 3.414 5.047.225.68.261 1.447.692 2.076zm-.396 7.472c-.384-1.386-.758-2.637-1.138-3.958-.513-1.785-.863-3.631-1.534-5.245-.626-1.507-1.66-2.849-2.919-3.859-1.19-.955-2.899-1.833-4.8-1.979-1.753-.136-3.529.119-4.652.592-3.17 1.336-6.116 4.788-5.888 9.352.077 1.54.518 2.782 1.088 4.008 1.055 2.267 2.238 4.531 3.315 6.829 3.263 6.961 6.602 13.522 10.045 20.485 1.889 3.821 3.947 8.03 5.987 11.826.316.587.646 1.556 1.039 1.534.294-.016.581-.73.841-1.237 1.638-3.188 3.317-6.618 4.849-9.698 4.679-9.407 9.125-18.45 13.805-27.76.922-1.834 2.029-3.744 2.029-6.284 0-3.152-1.388-5.346-3.068-7.026-1.665-1.666-4.468-3.016-7.62-2.623-4.155.518-6.859 2.99-8.115 6.383-.561 1.516-.893 3.248-1.336 4.948-.217.832-.436 1.684-.643 2.523-.2.81-.366 1.656-.791 2.375-.371-.281-.387-.799-.494-1.186zm28.947-11.826c-.297.287-.654 1.013-.94 1.584-.859 1.709-1.639 3.484-2.424 5.047-.566 1.125-.973 2.328-1.534 3.414-2.851 5.52-5.569 11.258-8.313 16.626-.307.622-.63 1.254-.94 1.88-.315.637-.754 1.254-.792 1.979.525.241 1.169.189 1.732.198 9.628.146 19.441.011 28.749-.099-.034-.728-.464-1.364-.792-1.979-.341-.639-.62-1.294-.94-1.93-1.942-3.862-3.922-7.672-5.789-11.529-2.182-4.506-4.65-8.98-6.73-13.41-.298-.635-.48-1.4-1.088-1.831-.003-.03-.007-.058-.049-.05-.06.025-.114.053-.15.1z" fill-rule="evenodd"/></svg>