<svg enable-background="new 0 0 72.891 73.708" viewBox="0 0 72.891 73.708" xmlns="http://www.w3.org/2000/svg"><path clip-rule="evenodd" d="m36.044.155c.21 2.336.099 4.989.099 7.64 0 1.253.05 2.607.05 3.869 0 1.27.18 2.582-.248 3.622-1.296.195-2.503.252-3.671.496-6.835 1.43-11.175 5.321-14.387 10.467-.527.845-1.118 1.783-1.19 2.828.658.463 1.532.213 2.282.248 2.276.108 4.847.05 7.342.05 9.212-.001 18-.05 27.284-.05.778 0 1.587.111 2.332-.148.144-.972-.472-1.764-.844-2.48-1.133-2.186-2.702-4.05-4.415-5.705-1.716-1.604-3.796-2.956-6.151-3.969-.775-.333-1.619-.686-2.431-.942-.591-.187-1.405-.127-1.885-.596 7.848-.158 16.813-.075 25.35-.099 1.106 1.034 1.805 2.447 2.58 3.819 2.223 3.936 3.944 8.873 4.563 14.486.445 4.038.06 8.195-.794 11.658-1.708 6.929-4.683 12.166-8.78 16.668-2.015 2.213-4.38 4.041-6.846 5.854-2.312 1.7-5.457 3.23-8.483 4.217-3.23 1.054-6.938 1.788-10.914 1.587-.225-4.809-.19-9.854-.05-14.833 1.085-.555 2.312-.473 3.424-.694 5.658-1.127 9.618-3.883 12.749-7.64.601-.721 1.219-1.518 1.686-2.381.479-.885.921-1.881 1.141-2.927-.694-.354-1.526-.199-2.281-.199-5.697.001-11.603-.032-17.363 0-5.418.03-11.102-.001-16.967 0-.764 0-1.557-.114-2.281.149.027.922.557 1.898.992 2.679.443.795.999 1.522 1.488 2.232.983 1.427 2.336 2.821 3.721 3.771.713.488 1.424 1.106 2.232 1.538.804.43 1.538.982 2.381 1.339 1.299.551 2.679 1.062 4.267 1.34.431.075 1.051.005 1.339.496-.402.359-1.013.198-1.488.198-6.638 0-14.232-.05-21.232-.05-1.051 0-2.514.252-3.373-.049-.508-.178-1.014-1.213-1.389-1.786-1.22-1.858-2.403-4.167-3.225-6.201-1.262-3.122-2-6.767-2.431-10.17-.512-4.042-.096-8.196.645-11.559 1.562-7.092 4.482-11.971 8.483-16.669.932-1.094 2.044-2.162 3.174-3.125 1.146-.975 2.25-1.974 3.474-2.778 1.292-.849 2.553-1.666 3.919-2.381 4.072-2.131 9.069-3.646 14.932-3.92.405-.018.847-.161 1.19.1z" fill-rule="evenodd"/></svg>