<svg enable-background="new 0 0 76.109 77.843" viewBox="0 0 76.109 77.843" xmlns="http://www.w3.org/2000/svg"><g clip-rule="evenodd" fill-rule="evenodd"><path d="m29.557.091c.285.9.189 1.881.189 2.84 0 6.439-.12 14.056.095 20.496.875.255 1.817.142 2.745.142 4.72-.001 9.334.047 14.2.047 1.894 0 3.793-.115 5.585.142.184 1.664.14 4.211 0 6.011-2.397.174-4.831.094-7.29.095-5.959.001-12.247-.001-18.128 0-1.181 0-2.367.116-3.503-.142-.212-7.636.074-15.669-.189-23.24-.631-.254-1.362-.142-2.036-.142-4.95 0-10.047.044-14.91.047-.02.041-.04.084-.093.094-.282 5.22-.095 10.662-.095 16.046.001 16.015-.177 32.79.047 49.084 1.283.256 2.683.142 4.071.142 4.098 0 8.557-.078 12.543.095.141.865.118 1.905.142 2.935.024 1.017.089 2.105-.142 2.934-7.326.141-15.298.17-22.672 0-.172-6.494-.094-13.235-.095-19.785-.001-9.91 0-19.408 0-28.873-.001-8.818-.047-17.983 0-26.79.002-.38.036-.781.047-1.183.009-.322-.128-.786.19-1.042 9.613-.006 20.035-.121 29.299.047z"/><path d="m75.99.138c.159 25.677.159 51.843 0 77.579-9.686.137-19.783.197-29.157 0-.252-6.942.031-14.42-.142-21.441-1.148-.355-2.36-.094-3.503-.237-1.083-.135-2.094-.518-2.982-.899-1.857-.797-3.546-1.771-5.349-2.461-2-.766-4.517-1.001-6.579-.284-1.343.467-2.645 1.294-3.692 2.13-.337.269-.605.746-1.089.757-.169-1.013-.094-2.155-.094-3.361 0-1.11-.214-2.48.047-3.408.146-.519.848-.886 1.326-1.184 1.533-.956 3.359-1.68 5.49-1.94 3.161-.386 5.787.963 7.763 1.94 2.37 1.172 4.563 2.319 7.621 2.319 1.686 0 2.701-.648 3.739-1.231.55-.309 1.022-.596 1.515-.947.428-.305.838-.79 1.468-.899.308 8.326-.142 17.319.189 25.181 5.47.157 11.616.158 17.135 0 .25-.611.142-1.303.142-1.94.001-21.383.139-41.837-.047-63.284-1.298-.257-2.713-.142-4.118-.142-4.098 0-8.557.078-12.543-.095-.17-.908-.095-2.018-.095-3.124 0-1.061-.11-2.189.142-3.029 7.552-.165 15.241-.162 22.813 0z"/></g></svg>