<svg enable-background="new 0 0 76.584 62.023" viewBox="0 0 76.584 62.023" xmlns="http://www.w3.org/2000/svg"><g clip-rule="evenodd" fill-rule="evenodd"><path d="m53.744 8.709c-2.039.759-5.378-.144-7.395.681-.458.188-.692.523-1.167.583-.176-1.136-.097-2.406-.097-3.6 0-1.331-.205-2.619.194-3.551.457-1.066 1.646-1.823 2.772-2.092 1.216-.29 2.625-.097 3.989-.097 1.269 0 2.482-.148 3.6-.584.718-.28.535.672.535 1.46 0 .706-.01 1.407 0 1.751.029 1.066.285 2.205 0 3.259-.323 1.194-1.485 1.579-2.431 2.19z"/><path d="m43.529 1.412c.337 5.711-.078 11.665.194 17.22.918.327 1.885.313 2.821.487 4.59.851 8.928 2.148 12.939 3.6 4.816 1.743 8.778 4.278 12.21 7.637 2.02 1.977 4.423 4.849 4.815 8.416.481 4.371-1.462 7.332-3.453 9.68-1.941 2.288-4.63 4.396-7.199 6.032-1.351.859-2.721 1.702-4.184 2.432-3.616 1.804-7.996 3.091-12.6 3.94-.893.165-1.857.445-2.772.243-.188-1.143-.103-2.815-.049-4.038.654-.631 1.496-.947 2.237-1.411 2.08-1.3 4.013-3.35 5.352-5.497 1.816-2.914 3.236-6.788 2.821-11.432-.573-6.4-3.748-10.835-7.929-13.767-1.408-.986-3.046-1.873-4.913-2.286-.264.742-.146 1.555-.146 2.335.002 11.453.048 23.107.049 34.343 0 .75.111 1.562-.146 2.287-.436.396-1.082.279-1.604.292-1.689.04-3.686.097-5.546.097-2.396 0-4.771-.303-6.907-.632-4.307-.663-8.245-1.849-11.821-3.211-1.714-.652-3.448-1.548-5.059-2.48-1.587-.919-3.132-1.874-4.524-2.968-2.773-2.177-5.476-4.858-7.005-8.026-.831-1.723-1.38-4.089-.973-6.373.367-2.062 1.289-3.743 2.335-5.156 2.224-3.003 4.997-5.035 8.026-7.005 1.474-.958 3.146-1.886 4.913-2.627 3.577-1.5 7.127-2.674 11.285-3.746 1.392-.358 3.107-.662 4.719-.924.574-.094 1.332-.14 1.508-.341.287-.326.146-1.619.146-2.335 0-2.36-.008-4.796-.098-7.005-.808-.376-2.423.055-3.308-.243-.22-2.437-.133-5.198-.049-7.54 4.369-.236 9.544-.22 13.915.002zm-10.459 52.926c-.003-1.165-.01-2.376 0-3.502.02-2.256.207-4.789.097-7.2-.109-2.411-.13-4.869-.097-7.199.055-3.958 0-8.567 0-12.55 0-.779.146-1.609-.633-1.362-1.464.465-2.995 1.278-4.378 2.141-1.188.741-2.716 1.947-3.551 2.967-.298.365-.521.843-.827 1.265-2.069 2.854-3.518 6.337-3.794 10.896-.162 2.663.573 4.995 1.313 7.054.747 2.08 1.843 3.67 3.016 5.399 1.135 1.227 2.352 2.413 3.794 3.357 1.407.92 2.936 1.975 4.913 2.141.364-.916.15-2.306.147-3.407z"/></g></svg>