<svg enable-background="new 0 0 167.07 165.202" viewBox="0 0 167.07 165.202" xmlns="http://www.w3.org/2000/svg"><g clip-rule="evenodd" fill-rule="evenodd"><path d="m27.533.206c.273 1.092.152 2.269.152 3.391 0 8.111-.091 16.126.101 24.189 1.055.342 2.207.202 3.34.202 7.926 0 16.14.058 24.391 0 .342-.466.203-1.099.203-1.619 0-8.589-.018-17.335.152-26.112 36.376-.033 73.96-.031 110.976.203.059-.008.09.011.101.051.17 9.029.152 18.484 0 27.58-.041.01-.05.05-.101.05-9.324.273-18.212-.073-27.479.101-.041.009-.05.05-.101.05-.352 1.026-.202 2.168-.203 3.239-.001 16.918-.038 33.769.051 50.453.045.022.09.045.101.102 4.489.145 9.249.102 14.017.102 3.347 0 6.721.07 10.273 0 1.142-.023 2.307-.106 3.39.151.178 17.814.209 36.297.051 54.501-1.084.275-2.254.152-3.39.152-7.804.001-16.338.107-24.341-.102-.268-1.087-.151-2.22-.152-3.34 0-3.413 0-6.872 0-10.374-.001-13.615.04-27.702-.101-40.686-.009-.04-.051-.05-.051-.101-8.834-.144-18.2-.053-27.377 0-.041.01-.05.051-.101.051-.275 1.083-.152 2.221-.152 3.34 0 15.774.051 31.793.051 47.872-.001 1.086.121 2.219-.152 3.289-9.153.19-18.723.123-27.681 0-.139-9.154-.181-17.835-.152-26.922.029-9.145.032-18.393-.051-27.529-1.003-.274-2.172-.151-3.391-.151-7.618.001-16-.116-23.936-.051-.041.01-.051.051-.101.051-.286 1.097-.155 2.254-.101 3.391.055 1.167-.051 2.36-.051 3.542 0 5.878.05 11.583.051 17.51 0 1.146.109 2.3-.203 3.391-8.021.106-16.319.049-24.442.051-1.124 0-2.3.12-3.391-.152-.212-9.127-.001-18.389-.152-27.681-.983-.273-2.179-.152-3.391-.152-6.901 0-13.871-.05-20.849-.05-1.097 0-2.204.066-3.239-.152-.01-.041-.051-.051-.051-.101-.09-27.141-.066-54.67.051-81.726.066-.018.079-.089.152-.101.037-.047.092-.077.152-.102 9.041.036 18.311-.118 27.127.199zm56.02 28.035c-.292 1.012-.16 2.102-.202 3.137-.048 1.164 0 2.325 0 3.492 0 15.898-.032 32.271.101 47.164 1.054.238 2.169.102 3.289.102 8.097 0 16.471.18 24.392-.051.215-11.122.152-22.751.152-33.753 0-6.82.064-14.029-.101-20.04-8.948-.25-18.529-.21-27.631-.051zm-41.446 27.681c-4.573 0-9.603.035-14.169.051-.407.306-.259.863-.253 1.315.007.535-.063 1.117-.051 1.67.15 6.696.098 13.365 0 19.787-.016 1.075-.023 2.174.152 3.188 1.108.266 2.248.152 3.391.152 8.034 0 16.221.135 24.442-.102.168-8.43.168-17.531 0-25.909-4.168-.23-8.762-.152-13.512-.152z"/><path d="m55.669 137.092c.209 9.007.225 18.43.051 27.934-4.452.225-9.18.183-13.815.151-4.63-.03-9.399.107-14.018-.101-.274-1.105-.152-2.285-.152-3.441 0-7.679-.051-15.276-.051-23.025 0-.501-.133-1.122.203-1.568 8.942.043 18.755-.188 27.782.05z"/></g></svg>