<svg enable-background="new 0 0 77.882 76.793" viewBox="0 0 77.882 76.793" xmlns="http://www.w3.org/2000/svg"><g clip-rule="evenodd" fill-rule="evenodd"><path d="m31.457.272c.156 5.531.049 11.657.051 17.591 0 1.971-.107 3.945.1 5.796 7.387.487 15.514-.062 22.934.353.17 2.391.258 5.391 0 7.812-8.992.187-17.844-.002-27.066 0-1.262 0-2.557.119-3.779-.151-.18-7.618.074-15.8-.101-23.387-.527-.329-1.209-.201-1.815-.201-4.268-.001-8.957-.18-13.457.05-.289.567-.125 1.224-.15 1.814-.201 4.292-.104 8.723-.104 13.104.002 15.261-.166 30.066 0 45.16 1.207.271 2.529.151 3.83.151 3.674 0 7.826.011 11.592.202.168 2.34.168 5.371 0 7.711-1.85.215-3.799.101-5.795.102-4.82.001-9.963-.102-14.818-.102-.945 0-1.928.121-2.822-.15-.172-23.698.101-49.147.1-73.94 0-.711-.082-1.445.152-2.116 9.02-.185 18.258.05 27.367.05 1.252 0 2.547-.121 3.781.151z"/><path d="m77.725.524c.203 1.441.15 2.99.152 4.536.008 4.749-.033 9.488-.051 14.264-.066 18.79-.064 38.23-.252 57.308-1.205.221-2.463.15-3.73.151-8.766 0-18.4-.014-27.115-.303-.186-3.856-.102-7.854-.102-11.795 0-1.921-.061-3.852 0-5.745.064-1.934.18-3.878-.1-5.746-3.68-.179-7.521-.151-11.342-.151-1.891 0-3.824-.05-5.744-.05-1.92-.001-3.854.12-5.697-.151-.15-2.375-.209-5.515.051-7.812 5.211-.108 10.455-.05 15.625.051 5.105.1 10.281-.244 15.172.15.164 6.865.104 13.647.049 20.615-.006.917-.109 1.862.152 2.722 4.762.195 9.945.311 14.918.101.273-2.483.152-4.996.152-7.51 0-2.424-.064-4.878.051-7.309.238-5.066-.18-10.168 0-15.322.174-5.004.051-10.059.049-15.07 0-4.969.184-9.937-.049-14.868-1.205-.27-2.516-.151-3.832-.151-3.775.001-7.879-.043-11.592-.202-.18-1.184-.102-2.59-.102-3.981 0-1.365-.102-2.79.203-3.881 7.489-.031 15.491-.005 23.134.149z"/></g></svg>