<svg enable-background="new 0 0 76.224 78.837" viewBox="0 0 76.224 78.837" xmlns="http://www.w3.org/2000/svg"><path clip-rule="evenodd" d="m.197.025c.503-.177.442.619.442 1.031-.002 13.859.151 29.166.294 43.217.354-.223.396-.695.491-1.03 1.628-5.754 4.451-10.258 9.123-13.098 2.491-1.513 5.771-2.374 9.517-2.256 5.461.172 9.351 2.601 12.019 5.788.433.517.725 1.235 1.128 1.864.399.62.801 1.245 1.08 1.864 1.27 2.814 1.571 6.194 1.57 10.302-.002 3.999-.155 7.882.392 11.282 1.591 9.896 7.447 16.623 16.875 18.69 3.451.757 7.499.666 10.498-.294 2.866-.918 5.419-2.677 7.162-4.71.896-1.045 1.625-2.282 2.354-3.581 2.067-3.681 3.137-9.479 1.767-14.765-.382-1.474-.996-2.898-1.767-4.169-.759-1.255-1.527-2.459-2.502-3.435-2.044-2.045-4.265-3.577-7.211-4.61-3.079-1.08-7.045-1.312-10.399-.687-3.201.596-5.876 2.147-7.801 4.071-1.841 1.841-3.434 4.508-4.268 7.603-.855 3.178-.733 7.171.344 10.253 1.01 2.887 2.779 5.079 5.102 6.769 2.286 1.663 5.223 2.89 8.438 3.434 3.783.64 7.185-.332 9.664-1.815 2.563-1.534 4.215-3.536 5.494-6.329 1.269-2.768 1.743-6.78.834-10.056-.829-2.986-2.688-5.401-4.759-7.113-2.239-1.851-5.155-3.07-8.781-3.09-3.545-.018-6.556 1.302-8.731 3.14-2.16 1.826-3.508 4.543-3.826 8.045-.335 3.695.946 6.88 2.747 9.026 1.849 2.204 4.253 3.804 7.604 4.268 3.738.518 7.107-.366 9.124-2.502 2.184-2.21 3.883-5.602 2.748-9.86-.89-3.331-3.227-5.777-6.133-7.162-3.562-1.696-7.783-.451-9.909 1.717-1.073 1.096-1.936 2.723-2.256 4.366-.36 1.843.092 3.699 1.128 5.2 1.523 2.207 4.898 4.955 8.928 3.777 1.623-.474 2.914-1.468 3.679-2.992.669-1.33 1.29-3.32.246-5.298-.706-1.337-2.103-2.499-3.532-3.139-1.835-.823-3.924-.254-5.102.735-1.17.982-2.09 2.958-1.226 4.709.576 1.171 2.298 2.539 4.021 2.6 1.603.057 2.751-1.201 2.601-2.649-.095-.907-1.034-1.665-1.963-1.864-.969-.208-2.176.513-1.52 1.57.119.194.528.436.146.785-1.638-.337-1.04-2.755.392-3.042 1.599-.319 2.97.75 3.435 1.815.583 1.336-.111 2.787-1.08 3.482-1.069.769-2.702.67-3.875.099-.973-.475-2.063-1.243-2.648-2.306-.609-1.105-.634-2.68-.049-4.023.848-1.944 3-3.237 5.641-2.894 2.077.27 4.244 1.808 5.2 3.434 1.308 2.224.649 5.025-.344 6.72-1.088 1.856-2.79 2.974-5.445 3.188-2.621.212-4.783-1.037-6.229-2.306-1.486-1.303-2.892-3.143-3.188-5.444-.334-2.588.876-5.056 2.061-6.476 1.339-1.605 3.125-2.664 5.543-3.091 2.874-.507 5.124.351 6.916 1.423 1.846 1.104 3.358 2.702 4.22 4.415.957 1.904 1.729 4.479 1.226 7.114-.644 3.373-2.708 6.073-5.396 7.554-2.719 1.498-7.779 1.425-10.842.048-3.894-1.75-6.681-5.222-7.456-9.81-.444-2.636.081-5.46.933-7.408 1.721-3.942 5.071-6.539 9.859-7.407 5.385-.976 10.117 1.435 12.804 4.071 2.606 2.559 4.956 7.276 4.072 12.804-1.124 7.015-5.777 11.972-13.147 12.754-2.644.281-5.313-.351-7.456-1.079-6.305-2.143-11.021-6.908-11.479-14.422-.34-5.565 1.581-9.773 4.218-12.951 2.493-2.703 5.597-4.75 9.958-5.298 4.952-.622 9.37.396 12.656 2.159 1.635.876 2.987 2.027 4.316 3.335 3.643 3.583 6.31 9.626 5.004 17.121-.37 2.126-1.007 4.031-1.913 5.739-.873 1.647-1.83 3.253-3.091 4.513-2.522 2.523-5.616 4.67-10.007 5.2-4.921.594-9.332-.374-12.853-2.012-6.904-3.212-11.159-9.284-12.508-17.955-.703-4.516-.007-9.763-.392-14.814-.521-6.808-3.764-11.702-8.929-13.932-1.771-.764-3.753-1.184-6.228-1.372-4.947-.375-8.825 1.483-11.382 3.776-4.247 3.811-6.409 8.503-7.357 15.502-.612 4.515-.296 9.8-.295 14.814 0 1.623.04 3.875.049 5.592.002.423.154 1.524-.294 1.57-.533.054-.393-1.453-.393-1.815-.007-22.599-.282-45.762-.298-67.79.042.009.047-.019.05-.049.027-.07.076-.119.147-.148z" fill-rule="evenodd"/></svg>