<svg enable-background="new 0 0 29.702 28.877" viewBox="0 0 29.702 28.877" xmlns="http://www.w3.org/2000/svg"><path d="m13.248.082c5.263-.565 10.783 1.831 13.797 6.22 2.426 3.317 3.255 7.716 2.217 11.689-1.171 4.669-4.91 8.517-9.449 10.053-5.579 1.999-12.221.309-16.167-4.113-3.313-3.591-4.487-8.987-3.034-13.642 1.606-5.562 6.896-9.713 12.636-10.207zm.774 3.408c-.551.212-.332 1.125.281.984.731-.053.391-1.271-.281-.984zm1.994.009c-.707-.074-.713 1.059-.022 1.04.665.034.653-1.042.022-1.04zm-3.511 1.254c.674-.039.59-1.072-.069-1.065-.67.059-.636 1.163.069 1.065zm5.184-.947c-.689-.048-.707 1.084-.016 1.036.682.061.646-1.034.016-1.036zm-7.121.48c-.682.292-.104 1.323.493.932.569-.304.063-1.143-.493-.932zm8.568.169c-.707.293-.077 1.387.533.89.497-.359-.024-1.107-.533-.89zm-9.932.612c-.612.018-.685 1.07-.012 1.033.685.098.703-1.083.012-1.033zm11.216 1.013c.321.567 1.22.078.946-.518-.325-.603-1.32-.076-.946.518zm-12.832.117c-.335.122-.414.596-.143.824.28.328.929.073.884-.363.014-.357-.432-.619-.741-.461zm14.607.192c-.663.057-.558 1.163.112 1.037.665-.034.559-1.118-.112-1.037zm-15.684 1.022c-.697.089-.449 1.218.22 1.007.638-.105.404-1.134-.22-1.007zm16.777.358c-.652.159-.287 1.201.331.967.647-.171.302-1.212-.331-.967zm-17.799 1.085c-.648.121-.421 1.206.226 1.008.658-.109.44-1.195-.226-1.008zm5.653.054c-.71-.065-.644 1.107.039 1.019.641-.005.598-1.114-.039-1.019zm7.154.065c-.673.221-.199 1.294.425.949.619-.249.157-1.22-.425-.949zm-13.596 1.497c-.627.167-.335 1.147.283.976.693-.079.398-1.234-.283-.976zm6.37.13c-.671.05-.558 1.112.109 1.026.68-.019.559-1.114-.109-1.026zm7.35.059c-.653.038-.559 1.092.097 1.025.693.009.564-1.16-.097-1.025zm-14.541 1.895c.006.361.269.607.624.619.471-.069.619-.786.165-.974-.304-.211-.686.046-.789.355zm6.873-.129c-.461.494.218 1.203.728.791.481-.478-.205-1.177-.728-.791zm7.487-.017c-.628.297-.091 1.274.511.919.586-.299.053-1.239-.511-.919zm-14.076 1.492c-.67.035-.477 1.134.159 1.006.675-.065.517-1.204-.159-1.006zm7.088.072c-.645-.058-.924.903-.251 1.073.688.138.963-.908.251-1.073zm1.288.835c.261.449 1.085.149.958-.367-.017-.315-.317-.422-.58-.468-.359.094-.607.502-.378.835zm2.043.17c.619.338 1.027-.695.405-.95-.598-.214-1.036.73-.405.95zm1.912-.951c-.636.099-.485 1.126.146 1.024.677-.014.517-1.182-.146-1.024zm1.328.608c.055.354.458.453.762.478.431-.114.572-.748.14-.951-.334-.308-.998.005-.902.473zm2.279-.607c-.34.073-.638.506-.387.813.21.38.834.267.963-.129.115-.354-.232-.684-.576-.684zm1.745.058c-.681.123-.381 1.187.271.992.598-.189.353-1.166-.271-.992zm1.745.006c-.689.193-.238 1.282.386.954.623-.213.215-1.186-.386-.954zm1.856.005c-.733.162-.305 1.253.337.977.59-.233.258-1.146-.337-.977zm-21.278 1.561c-.601.218-.218 1.162.372.956.696-.146.252-1.322-.372-.956zm6.789.11c-.686.155-.269 1.249.361.955.613-.198.246-1.182-.361-.955zm7.334.056c-.647.168-.284 1.194.334.968.646-.176.324-1.219-.334-.968zm7.043.006c-.654.074-.483 1.134.158 1.008.703-.056.513-1.17-.158-1.008zm-20.742 1.513c-.564.176-.312 1.102.269.97.754-.06.437-1.273-.269-.97zm6.429.116c-.683.054-.47 1.169.176 1.009.65-.077.472-1.189-.176-1.009zm7.274.058c-.369.093-.498.624-.191.86.276.352.965.039.867-.401.024-.339-.374-.558-.676-.459zm6.618-.007c-.668.035-.496 1.164.158 1.025.645-.1.51-1.16-.158-1.025zm-19.489 1.39c-.633.073-.569 1.115.1 1.03.71.01.586-1.119-.1-1.03zm5.708.242c-.696-.067-.713 1.108-.014 1.037.665.039.641-1.015.014-1.037zm12.935-.01c-.635.238-.249 1.203.381.969.672-.206.236-1.247-.381-.969zm-6.124.376c-.257.656.805 1.043 1.01.393.216-.628-.729-.988-1.01-.393zm-11.613.891c-.624.111-.476 1.106.149 1.029.731-.035.573-1.209-.149-1.029zm16.839.181c-.663.099-.381 1.262.272 1 .6-.184.357-1.174-.272-1zm-15.755 1.148c-.687.312-.056 1.299.524.876.501-.344.002-1.136-.524-.876zm14.555.125c-.726.105-.363 1.246.277.983.611-.164.346-1.168-.277-.983zm-13.119.95c-.692.177-.249 1.249.364.954.641-.174.232-1.253-.364-.954zm11.579 1.08c.606.267 1.084-.601.509-.939-.611-.329-1.098.598-.509.939zm-10.016-.249c-.644.18-.324 1.22.321.963.649-.183.285-1.182-.321-.963zm8.669.076c-.702.009-.577 1.138.109 1.019.655-.072.541-1.109-.109-1.019zm-6.923.48c-.49.064-.642.825-.133.991.789.348.987-1.123.133-.991zm5.237.06c-.582.003-.555 1.06.027 1.029.71.045.675-1.13-.027-1.029zm-3.617.278c-.65.233-.213 1.23.401.964.622-.237.207-1.226-.401-.964zm1.919.994c.676.123.75-.936.114-1.03-.666-.092-.798 1.022-.114 1.03z"/></svg>