<svg enable-background="new 0 0 15.9 15.835" viewBox="0 0 15.9 15.835" xmlns="http://www.w3.org/2000/svg"><path d="m.001 0c1.744.007 3.488.003 5.231.003.006 1.017-.002 2.036.004 3.053-.009.071.025.173-.054.214-.468.32-.939.66-1.284 1.115-1.095 1.253-1.535 3.032-1.188 4.654.292 1.417 1.169 2.704 2.394 3.475.053.039.147.068.132.152 0 1.056-.007 2.113.003 3.169-1.747-.002-3.493.002-5.239-.003.005-5.277.004-10.555.001-15.832z"/><path d="m10.644 0c1.752.008 3.504.002 5.256.003v15.829c-1.753.007-3.506.002-5.259.003.001-1.023.012-2.047-.006-3.07.647-.354 1.225-.828 1.695-1.396.887-1.095 1.345-2.545 1.198-3.949-.149-1.802-1.269-3.493-2.879-4.32-.012-1.034-.002-2.068-.005-3.1z"/><path d="m7.468 2.769c1.346-.157 2.76.219 3.822 1.067 1.045.812 1.759 2.04 1.935 3.354.07.35.03.708.04 1.062-.068 1.245-.622 2.448-1.493 3.336-.9.889-2.127 1.45-3.394 1.507-1.553.106-3.146-.537-4.178-1.704-.5-.548-.877-1.208-1.095-1.917-.547-1.715-.129-3.713 1.106-5.031.157-.155.311-.314.47-.467.783-.664 1.766-1.093 2.787-1.207z"/></svg>