<svg enable-background="new 0 0 68.782 65.657" viewBox="0 0 68.782 65.657" xmlns="http://www.w3.org/2000/svg"><path clip-rule="evenodd" d="m57.92 3.061c-.648.109-1.1.697-1.546 1.111-1.393 1.294-2.679 2.851-3.768 4.493-1.472 2.22-2.553 4.814-2.947 8.019-.693 5.649 1.062 9.911 3.285 13.043.333.469.686.984 1.208 1.546.33.355 1.144 1.047 1.208 1.498.06.42-.271 1.204-.483 1.836-2.902 8.643-7.347 15.861-12.657 21.932-2.087 2.385-4.75 4.467-7.584 6.28-2.537 1.622-6.747 3.784-10.387 1.884-1.796-.938-3.475-2.973-3.14-6.087.113-1.057.585-1.69.966-2.657-1.612 1.254-3.05 3.101-4.782 4.396-2.51 2.028-5.341 3.906-8.889 4.976-3.307.997-6.146-.429-7.391-2.416-.46-.733-.868-1.544-.966-2.463-.35-3.268 1.351-4.878 3.14-6.135 2.394-1.136 5.145-.313 6.618 1.159 1.625 1.625 2.211 4.825.966 7.295.337.165.608-.219.821-.387 3.75-2.964 6.72-7.354 7.584-13.188.794-5.36-.948-9.965-3.092-13.14-.747-1.107-1.676-1.989-2.464-3.044 1.278-5.028 3.457-9.558 5.797-13.72 2.321-4.128 5.143-7.945 8.357-11.16 1.537-1.537 3.343-3.07 5.362-4.396 1-.656 1.891-1.401 2.947-1.932 1.061-.534 2.341-.967 3.623-1.256 3.13-.705 5.698.458 6.956 2.415.673 1.046 1.079 2.37.966 3.816-.113 1.451-.632 2.435-1.353 3.527-.917.755-1.879 1.488-3.285 1.739-4.956.885-8.152-4.042-6.231-8.744-.638.056-1.102.699-1.592 1.064-.83.635-1.302 1.628-2.029 2.415-2.024 2.193-3.682 5.376-4.251 9.034-.43 2.763-.434 5.556.242 7.971.64 2.289 1.614 4.339 2.85 5.99.287.565.704 1.019 1.159 1.546.368.425 1.076.986 1.16 1.546.063.421-.172 1.224-.338 1.788-1.087 3.695-2.839 7.221-4.493 10.289-1.016 1.884-2.158 3.56-3.236 5.217-1.124 1.728-2.406 3.26-3.479 4.928.557-.15 1.015-.669 1.546-.918 3.73-1.752 7.627.852 8.261 4.251.284 1.521-.155 3.079-.725 4.348.663-.049 1.141-.693 1.594-1.111.883-.786 1.722-1.741 2.512-2.705 2.222-2.714 4.123-6.481 4.348-11.159.17-3.543-.573-6.317-1.594-8.792-.498-1.206-1.095-2.364-1.835-3.333-.757-.99-1.59-1.892-2.222-2.947 2.278-7.56 5.551-14.152 10-19.903 1.105-1.428 2.135-2.824 3.382-4.106 1.188-1.223 2.5-2.395 3.913-3.527 2.741-2.193 5.847-4.535 9.807-5.121 2.804-.414 5.101 1.211 6.087 2.754.854 1.337 1.206 3.27.773 4.927-.606 2.319-2.549 4.197-5.459 4.251-2.387.044-4.024-1.291-4.976-2.802-.779-1.237-1.068-2.997-.628-4.686.123-.48.387-.936.384-1.449z" fill-rule="evenodd"/></svg>