<svg enable-background="new 0 0 50.007 77.909" viewBox="0 0 50.007 77.909" xmlns="http://www.w3.org/2000/svg"><path clip-rule="evenodd" d="m35.77.136c.29 4.35-.096 9.376.194 13.726 1.06.258 2.232.146 3.394.146 3.402 0 7.072-.04 10.428.048.293 1.288.11 2.62.146 3.929.102 3.714.08 7.772.048 11.738-.126 15.819.084 32.094-.146 48.017-.83.258-1.729.146-2.619.146-6.234 0-12.971.081-19.109-.097-.278-4.329.08-9.295-.194-13.629-.816-.264-1.917-.14-2.958-.146-1.024-.005-2.104-.189-2.91.097-.263 1.036-.146 2.2-.146 3.347 0 3.343.079 7.054-.098 10.282-6.979.161-14.65.162-21.68 0-.162-21.002-.161-42.766 0-63.683 2.246-.177 4.695-.097 7.081-.097 2.356 0 4.706.137 6.742-.097.261-1.073.144-2.267.144-3.443.001-2.975.049-5.925.049-8.828 0-.512-.146-1.131.194-1.552 6.596-.056 14.446-.075 21.44.096zm-13.484 7.421c-.058.023-.11.052-.146.097-.305.6-.218 2.395-.194 3.443.077 3.403.123 7.271-.097 10.283-3.293.176-7.069.097-10.476.097-1.215 0-2.415-.117-3.395.146-.161 2.017-.167 4.44 0 6.402 1.056.256 2.238.146 3.395.146 2.418 0 4.811-.026 7.179 0 1.147.012 2.314-.123 3.347.145.047 3.484.084 7.205.097 10.476.005 1.172-.214 2.324.097 3.395 1.571.264 3.977.183 5.627.048.256-3.233.146-7.103.146-10.476 0-1.187-.118-2.41.146-3.492 3.439.007 7.036-.216 10.476-.097 1.146.039 2.325.186 3.396-.097.102-.902.049-2.056.049-3.201 0-1.15.113-2.354-.146-3.25-2.211-.17-4.592-.162-6.935-.097-1.18.033-2.372-.098-3.541-.049-1.152.049-2.304.065-3.347-.097-.29-4.351.096-9.376-.194-13.726-1.641-.221-3.686-.035-5.484-.096zm-14.114 27.985c-.057.024-.109.052-.146.097-.24.192-.145 1.41-.145 2.134 0 5.282-.049 10.287-.049 15.229.001 5.952-.057 11.705.146 17.267 1.82.145 4.201.189 5.917 0 .176-3.211.097-6.951.097-10.282 0-1.119-.061-2.25.146-3.25 6.09-.177 12.805-.097 19.013-.097.874 0 1.793-.147 2.57.194.089 3.258.049 6.833.049 10.137 0 1.129-.115 2.275.146 3.298 1.733.24 4.036.183 5.869.048.241-1.325.146-2.721.146-4.122-.002-8.538.001-17.612 0-26.239 0-1.425.115-2.888-.146-4.268-.827-.251-1.896-.105-2.91-.146-1.041-.042-2.154-.078-3.008.146-.236 4.367.12 9.701-.193 14.162-7.297.196-14.551.097-21.584-.048-.293-4.505.102-9.802-.193-14.163-1.72-.222-3.846-.035-5.725-.097z" fill-rule="evenodd"/></svg>