<svg enable-background="new 0 0 75.856 62.279" viewBox="0 0 75.856 62.279" xmlns="http://www.w3.org/2000/svg"><g clip-rule="evenodd" fill-rule="evenodd"><path d="m21.043.156c.172 4.471.095 9.246.095 13.963 0 4.697-.099 9.49.142 13.727.775.256 1.61.141 2.414.141 12.441.004 24.863.041 37.156.143.239 10.918.2 23.07.047 33.986-.919.24-2.021.131-3.029.141-1.011.012-2.052.012-2.982-.094-.256-1.1-.142-2.27-.142-3.408 0-3.494 0-7.086 0-10.65 0-4.568.051-9.262-.142-13.631-12.543-.213-26.731-.039-39.57-.189-.257-1.35-.142-2.775-.142-4.166 0-9.953-.081-20.16.095-29.961 1.288-.223 2.95-.027 4.402-.096.586-.029 1.192-.166 1.656.094z"/><path d="m13.565.156c.205 4.875.142 10.027.142 15.287 0 12.979-.062 26.49.047 39.287.011 1.264.028 2.541 0 3.787-.027 1.229.081 2.455-.142 3.645-1.792.154-4.221.158-6.011 0-.176-4.877-.17-9.953-.142-15.146.056-10.428-.048-20.889-.048-31.477 0-2.494.111-5.143.048-7.857-.04-1.691 0-3.57 0-5.68 0-.652-.088-1.705.142-1.846.035-.045.086-.072.142-.096 1.911.063 4.068-.123 5.822.096z"/><path d="m68.329.25c.102 11.748.175 23.902 0 36.209.108 2.121.191 4.295.142 6.438-.048 2.105.081 4.191.094 6.297.014 2.147-.116 4.344-.142 6.531-.025 2.148.238 4.314-.094 6.391-.833.242-1.95.141-3.029.141-1.076 0-2.203.109-3.03-.141-.208-19.957-.142-39.629-.142-60.16 0-.58-.106-1.238.142-1.799.968-.123 2.215-.096 3.455-.096.951-.001 1.904-.104 2.604.189z"/><path d="m22.416 21.172c-.248-.486-.189-1.09-.189-1.658 0-3.506.037-7.416 0-10.838-.006-.557-.113-1.156.189-1.609.377-.092 1.18.047 1.609.189 3.258 1.082 5.834 5.822 3.787 10.176-.942 2.003-2.717 3.644-5.396 3.74z"/><path d="m5.991 7.066c.434.35.284 1.029.284 1.562v10.98c0 .533.111 1.154-.189 1.609-3.437-.152-5.798-2.869-6.059-6.248-.314-4.075 2.104-7.616 5.964-7.903z"/><path d="m69.607 55.299c-.018-4.041-.289-8.525-.142-12.449.019-.51-.064-1.135.237-1.562 3.497.238 6.104 3.084 6.153 6.912.048 3.761-2.496 7.116-6.248 7.099z"/><path d="m53.608 41.336c.229 3.418.142 7.488.142 11.312 0 .896.112 1.826-.142 2.65-3.409.103-5.856-3.01-6.106-6.248-.312-4.049 1.957-7.051 5.301-7.715.17-.034.516-.103.805.001z"/></g></svg>