<svg enable-background="new 0 0 78.357 60.845" viewBox="0 0 78.357 60.845" xmlns="http://www.w3.org/2000/svg"><g clip-rule="evenodd" fill-rule="evenodd"><path d="m12.248.228c.143 6.715.049 13.506.049 20.608 0 .949-.117 1.923.148 2.817.66-.11 1.115-.792 1.631-1.235 1.524-1.312 3.438-2.543 5.486-3.41 1.419-.601 3.009-.999 4.793-1.137 1.772-.137 3.732-.049 5.831-.049 3.95 0 8.063-.247 11.218.593 3.197.851 5.6 2.309 7.66 4.151.623.499 1.182 1.059 1.68 1.68.66.461.928 1.314 1.682 1.68.795-.661 1.184-1.688 1.779-2.52.596-.833 1.299-1.541 2.025-2.224 2.275-1.974 5.215-3.261 9.588-3.262 3.057 0 6.258.049 9.488.049 1.02 0 2.057-.115 3.014.148.106 1.424-.037 3.256-.148 5.041-.195 3.175-.164 6.066-2.668 6.82-1.119.337-2.789.198-4.201.198-1.502 0-2.994-.049-4.348-.049-2.865 0-6.164-.371-7.957.791-1.625 1.052-2.908 2.831-3.162 5.239-.277 2.614-.051 5.289-.051 8.302 0 5.671.078 11.183-.149 16.308-3.803.042-8.271.179-12.057-.049-.228-7.727-.021-15.955-.1-22.98-.039-3.526-1.969-5.949-4.498-7.165-1.373-.662-3.424-.368-5.336-.445-3.92-.157-7.223-.049-11.367-.049-2.184 0-3.648-.064-5.09.692-2.421 1.269-4.481 3.483-4.893 6.82-.225 1.821-.049 3.86-.049 5.831v11.712c0 .964-.078 1.938-.05 2.866.028.887.169 1.782-.099 2.619-1.844.153-3.984.05-6.078.05-2.08 0-4.193.104-5.931-.149-.174-20.248-.066-40.304.102-60.391 2.15-.212 4.685-.099 7.166-.099 1.699 0 3.39-.021 4.892.198z"/><path d="m27.469 38.725c2.512-.215 4.406.883 5.635 2.224.66.722 1.492 1.974 1.729 3.262.592 3.225-.992 6.068-3.064 7.413-2.223 1.444-5.318 1.408-7.412.149-1.973-1.188-3.719-3.504-3.41-6.82.172-1.843 1.014-3.165 1.879-4.102 1.072-1.166 2.533-1.945 4.643-2.126z"/><path d="m70.809 38.973c3.059-.281 5.469 1.607 6.523 3.36.254.423.619 1.253.742 1.729.566 2.185-.049 4.502-.891 5.831-1.174 1.854-3.604 3.387-6.275 3.212-2.504-.165-4.797-1.848-5.832-3.904-.795-1.582-1.084-3.612-.395-5.634.772-2.26 3.046-4.311 6.128-4.594z"/></g></svg>