<svg enable-background="new 0 0 30.322 30.679" viewBox="0 0 30.322 30.679" xmlns="http://www.w3.org/2000/svg"><path d="m21.756.049c1.078-.035 2.156-.043 3.235-.049.098 1.726.024 3.459.06 5.189 1.695-.028 3.39-.044 5.086-.048.072 1.082.026 2.167.053 3.251-1.694.092-3.396.028-5.092.078-.016 1.712.027 3.426.004 5.138-1.077.016-2.153.05-3.23.039-.028-1.712.007-3.426-.058-5.137-1.698.001-3.396.018-5.094.053.004 1.716.014 3.431.016 5.146-1.079.004-2.158.017-3.237.017-.02-1.714-.012-3.428-.025-5.142-1.697.017-3.394.063-5.092.056.006 1.715-.001 3.43.017 5.145-1.077.006-2.153.028-3.23.051.014 1.08.011 2.16.043 3.239 1.064-.02 2.129-.056 3.194-.044.095 1.729.036 3.464.071 5.195 1.709.022 3.415-.048 5.123-.057-.078-1.733-.034-3.467-.065-5.201 1.081-.005 2.162-.02 3.244-.016.004 1.725.043 3.448.06 5.172 1.718.013 3.437-.051 5.153 0-.026 1.074.014 2.148-.001 3.223 1.067-.009 2.134.002 3.2-.046.046-1.069-.023-2.138-.014-3.208-1.061.008-2.122.002-3.183.029-.128-1.735-.058-3.487-.109-5.228 1.077.002 2.153-.027 3.23-.047-.009-1.081-.01-2.161-.012-3.241 1.702-.018 3.403-.05 5.104-.064.008 1.096.072 2.193.009 3.288-1.686-.003-3.371.037-5.057.058.006 1.721.021 3.443.033 5.164 1.685.004 3.41-.056 5.07-.015.099 1.059.041 2.167.056 3.245-1.696.008-3.391.05-5.086.065-.003 1.701.057 3.399.058 5.099-1.081.085-2.168.025-3.251.057-.064-1.7-.019-3.403-.054-5.104-1.591-.024-3.191.024-4.786.021-.147-.012-.39-.008-.338.208.047 1.642.055 3.286.051 4.929-1.081.012-2.162.012-3.244.02.006-1.704-.03-3.406-.062-5.109-1.696.004-3.391.029-5.086.057.01 1.704.022 3.406.052 5.108-1.079.041-2.158.049-3.237.044-.024-1.707-.038-3.415-.058-5.124-1.705.022-3.411.052-5.118.052-.023-1.089-.015-2.179-.027-3.269 1.698-.053 3.4-.034 5.1-.055-.016-1.728.008-3.458-.062-5.185-1.7-.006-3.399.061-5.099.051-.026-1.027.017-2.056-.043-3.082-.026-.11.046-.226.168-.203 1.656-.028 3.314-.002 4.969-.067-.032-1.703.018-3.407-.057-5.108-1.697.008-3.398.037-5.09.027-.027-1.084-.009-2.17-.018-3.255 1.699.004 3.396-.053 5.095-.062-.008-1.732-.012-3.463-.014-5.195 1.067-.002 2.135-.015 3.202-.023.089 1.598.019 3.202.058 4.802-.011.139.057.366-.133.407-1.032.023-2.065.01-3.097.03-.012 1.078.058 2.154.035 3.232 1.064-.007 2.129-.011 3.193-.027.017-1.096-.029-2.193.013-3.287 1.692.028 3.385-.017 5.078-.016-.005-1.733-.007-3.465-.018-5.198 1.083.021 2.169-.059 3.249-.008.024 1.718-.027 3.438.051 5.155 1.699.009 3.396-.034 5.094-.054-.035-1.722.022-3.445-.05-5.166zm.062 5.214c-.01 1.068.014 2.134.036 3.201 1.067-.003 2.133-.011 3.2-.02-.01-1.077-.001-2.155-.018-3.231-1.073.019-2.147-.018-3.218.05zm-8.345.07c.002 1.076-.003 2.153.014 3.23 1.075.017 2.148-.056 3.223-.044-.025-1.081-.02-2.157-.046-3.238-1.061.078-2.127.027-3.191.052zm.136 16.858c-.001 1.077.018 2.154.013 3.231 1.074.006 2.149-.012 3.224-.016-.015-1.079.024-2.16-.045-3.236-1.064.006-2.128.016-3.192.021zm-8.337.105c.007 1.077.017 2.155.022 3.232 1.062.015 2.122-.048 3.184-.041.016-1.078-.013-2.155-.011-3.233-1.065.023-2.13.04-3.195.042z"/></svg>