<svg enable-background="new 0 0 78.582 66.691" viewBox="0 0 78.582 66.691" xmlns="http://www.w3.org/2000/svg"><g clip-rule="evenodd" fill-rule="evenodd"><path d="m.17 30.975c.637-.205 1.351-.118 2.071-.096 5.349.156 11.047-.21 16.093.096.35.569.539 1.267.771 1.927 1.612 4.579 4.3 8.228 7.709 11.13 3.886 3.309 8.786 5.703 15.37 6.119 8.74.553 14.706-3.369 18.212-8.576.71-1.054 1.235-2.234 1.831-3.517 1.077-2.317 1.799-5.764 1.494-9.058-.621-6.695-3.183-10.979-8.335-13.154-1.336-.564-2.874-.98-4.481-.915-1.621.065-3.011.451-4.336 1.012-2.492 1.055-4.541 2.742-5.733 5.011-1.343 2.554-1.584 6.259-.53 8.866 1.005 2.488 2.739 4.695 4.915 5.83 1.27.663 2.722 1.162 4.288 1.108 3.918-.135 6.619-2.555 7.95-5.493.267-.589.318-1.308.771-1.879.353.258.169.787.144 1.108-.211 2.716-1.34 5.022-2.65 6.697-1.611 2.06-3.515 3.65-6.022 4.625-5.744 2.235-13.23.12-16.623-2.843-3.319-2.586-6-5.997-7.083-10.696-1.209-5.254-.327-11.122 1.59-15.081 3.458-7.144 9.115-11.361 18.165-12.913 4.43-.76 9.159.128 12.72 1.252 7.342 2.318 12.725 7.145 16.141 13.298 2.259 4.069 4.201 9.369 3.951 15.611-.129 3.227-.32 6.103-1.06 8.769-.711 2.562-1.371 4.976-2.554 7.228-4.354 8.68-11.144 15.078-20.911 18.357-1.655.556-3.385 1.06-5.252 1.301-1.864.24-3.811.415-5.975.53-8.571.456-15.751-1.653-21.344-4.722-1.452-.796-2.847-1.541-4.144-2.409-3.838-2.57-7.226-5.939-9.925-9.685-2.547-3.96-4.894-8.15-6.215-13.442-.424-1.689-.999-3.483-1.013-5.396z"/><path d="m4.891 9.871c.382 1.683-.047 4.119.192 5.83 1.024.303 2.396.144 3.71.144 1.337 0 2.706.076 3.854-.096.243-.663.191-1.54.193-2.409.002-1.14-.137-2.37.048-3.421 1.439-.267 3.479-.055 5.107-.048.256 1.378.081 2.789.145 4.192.062 1.389.006 2.827-.048 4.192-.109 2.726.253 5.541-.048 8.383-1.534.184-3.614.125-5.107-.048-.406-1.844.173-4.231-.241-6.071-1.111-.24-2.462-.145-3.758-.145-1.297 0-2.617.01-3.758.097-.259.842-.145 1.948-.145 3.035 0 1.072.075 2.191-.097 3.084-1.38.138-3.515.209-4.818-.048-.18-4.824-.096-9.83-.096-14.744 0-.658-.114-1.366.145-1.976 1.53-.026 3.218-.05 4.722.049z"/><path d="m49.989 19.989c2.564-.211 4.618 1.063 5.782 2.361.479.534.953 1.156 1.349 2.072 1.885 4.36-.907 8.776-4.481 9.829-1.626.479-3.56.32-5.204-.627-2.554-1.47-4.883-4.774-3.421-8.914.625-1.767 1.829-3.288 3.518-4.095.637-.304 1.473-.545 2.457-.626z"/></g></svg>