<svg enable-background="new 0 0 60.878 78.771" viewBox="0 0 60.878 78.771" xmlns="http://www.w3.org/2000/svg"><g clip-rule="evenodd" fill-rule="evenodd"><path d="m60.71.24c.189 6.817.099 13.956.099 21.133-.001 2.352.072 4.703 0 7.011-.296 9.414.36 18.845-.099 28.046-17.417.249-34.509-.196-51.696.099-.266.849-.148 1.763-.148 2.666.001 6.341.08 13.101-.099 19.454-2.636.165-5.955.163-8.591 0-.274-1.541-.137-3.115-.099-4.691.117-4.863-.05-9.845-.05-14.812-.001-17.873.001-36.005 0-54.362 0-.791.018-1.587 0-2.37-.018-.77-.1-1.579.148-2.32 7.445-.199 15.522-.016 23.058 0 12.488.025 24.705-.112 37.477.146zm-51.598 6.37c-.426.738-.246 1.669-.247 2.518-.001 14.084-.131 26.963.099 40.636.826.266 1.71.148 2.567.148 13.826 0 27.226.185 40.39 0 .181-13.187.101-27.123.099-40.537 0-.872.12-1.781-.148-2.617-13.876-.197-28.805-.164-42.76-.148z"/><path d="m12.075 10.313c12.243.032 24.644-.083 36.735.148.17 3.976.166 8.352 0 12.344-1.865.165-4.406.163-6.272 0-.322-1.639.034-4.026-.246-5.826-7.655-.196-16.037-.234-23.8-.049-.267.914-.147 1.916-.147 2.864 0 4.944-.001 9.541 0 14.615 0 1.959-.12 3.922.147 5.777 1.197.264 2.46.148 3.704.148 8.797 0 17.872.014 26.613.099.293 1.816.164 4.498 0 6.37-10.945.27-23.205-.111-34.859 0-.688.006-1.386.135-2.024-.099-.179-10.747-.098-22.759-.099-34.02 0-.774-.072-1.831.099-2.222.028-.072.078-.122.149-.149z"/></g></svg>