<svg enable-background="new 0 0 81.543 40.753" viewBox="0 0 81.543 40.753" xmlns="http://www.w3.org/2000/svg"><path clip-rule="evenodd" d="m39.323.122c.214 3.248.101 7.008.101 10.673 0 1.202-.12 2.409.152 3.49.582.165 1.795.165 2.377 0 .265-4.631-.048-9.579.253-14.113 1.564-.219 3.17-.101 4.805-.101 4.935 0 9.984.05 14.973.05 6.698 0 13.338-.096 19.525.152.159 2.066-.289 4.018-.759 5.767-1.407 5.244-4.009 9.409-7.385 12.697-4.607 4.329-10.374 7.499-19.272 7.537-.275 1.129-.152 2.375-.152 3.592 0 2.402-.051 4.718-.05 7.233 0 1.196.118 2.433-.152 3.541-3.801.197-7.9.109-11.635-.05-.195-4.734.082-9.962-.151-14.366-.595-.193-1.7-.103-2.377-.05-.305 1.064-.203 2.283-.203 3.49v3.693c0 2.478.119 5.026-.151 7.233-3.507.135-7.771.173-11.381 0-.245-1.089-.176-2.267-.152-3.44.07-3.475.111-7.266-.051-10.875-.495-.271-1.068-.152-1.568-.152-1.669 0-3.331.045-4.856-.202-1.889-.306-3.577-.906-5.159-1.568-3.122-1.307-5.997-3.155-7.992-5.514-.526-.621-1.095-1.156-1.619-1.77-2.984-3.496-5.595-8.106-6.324-13.963-.121-.976-.215-2.055.051-3.085 12.744.001 26.409-.091 39.152.101zm-19.778 11.887c-.18.296.271.509.455.607 1.888 1.008 4.502 1.702 7.132 1.517.164-.487.164-1.586 0-2.074-2.313-.199-5.19-.101-7.587-.05zm34.751.051c-.548.195-.337 1.318-.202 1.821 1.326.425 2.914.073 4.147-.253 1.267-.335 2.572-.732 3.339-1.467-2.229-.233-4.888-.036-7.284-.101z" fill-rule="evenodd"/></svg>