<svg enable-background="new 0 0 59.612 76.393" viewBox="0 0 59.612 76.393" xmlns="http://www.w3.org/2000/svg"><path clip-rule="evenodd" d="m5.192.12c.274 1.475.151 3.018.151 4.543.002 10.128-.002 20.012 0 30.086 0 .713-.12 1.488.151 2.171.586.081.88-.56 1.212-.858 1.11-1.001 2.171-2.087 3.433-3.029 4.775-3.564 12.179-5.602 20.747-4.745 5.198.52 9.725 1.732 13.326 3.938 3.604 2.206 6.582 4.951 8.633 8.632.581 1.045 1.234 2.028 1.666 3.281.43 1.252.453 2.841 1.009 4.039.345.74 1.349 1.375 2.02 2.019.252.242.63.689 1.01 1.01.325.275 1.019.624 1.06.959.051.41-.616.944-.908 1.262-.97 1.055-2.379 2.208-3.079 3.332-.326.522-.548 1.628-.707 2.322-.159.695-.258 1.305-.505 1.918-2.732 6.783-8.154 11.556-15.497 13.832-.631.195-1.207.433-1.868.555-.665.123-1.345.22-2.069.354-2.938.542-6.074.76-9.086.605-6.084-.312-11.033-2.045-15.043-4.493-1.015-.619-1.876-1.379-2.776-2.12-.443-.364-.916-.686-1.313-1.111-.375-.402-.661-.987-1.262-1.161-.337.507-.201 1.229-.201 1.918 0 1.965.081 4.334-.102 6.159-.607.293-1.572.202-2.474.202-.905 0-1.875.107-2.523-.152-.269-.724-.151-1.523-.151-2.271 0-18.304-.099-36.177 0-54.468.027-5.603.049-11.029.048-16.609 0-.699-.155-1.511.202-2.171 1.503-.051 3.477-.148 4.896.051zm35.942 50.833c.457-.457 1.268-1.096 1.363-1.767.154-1.087-.57-2.702-.908-3.634-1.225-3.37-3.306-6.127-5.654-8.127-3.377-2.876-7.78-4.923-13.68-4.644-4.152.196-7.41 1.727-10.197 3.836-2.654 2.009-4.771 4.747-6.108 7.724-1.442 3.214-2.137 7.542-1.312 11.711.743 3.756 2.528 6.641 4.644 9.188 2.256 2.366 4.898 4.257 8.431 5.401 3.588 1.163 8.203 1.188 11.862-.05 3.335-1.128 6.255-3.064 8.38-5.452 1.594-1.791 2.955-3.975 3.786-6.563.26-.81.813-2.061.706-2.776-.091-.603-.962-1.223-1.413-1.615-.591-.513-1.156-.936-1.413-1.666.328-.661.981-1.034 1.513-1.566zm-1.918-16.406c.024.521.562.856.959 1.262.401.411.729.857 1.01 1.211 1.681 2.115 3.08 4.404 4.14 6.916.192.458.289 1.143.857 1.363.618-.152 1.077-.778 1.515-1.262.445-.492.978-1.034 1.212-1.666-2.23-3.591-5.214-6.43-9.541-7.925-.06.025-.115.054-.152.101zm8.733 14.337c-.742.777-1.534 1.509-2.271 2.322-.294.322-.972 1.014-.96 1.363.015.433.841 1.052 1.161 1.363.92.892 1.747 1.646 2.575 2.474.409.41.809.956 1.463 1.06 1.06-.538 1.638-1.56 2.474-2.322.4-.489.761-.832 1.161-1.262.327-.351 1.044-.875 1.01-1.414-.028-.443-.748-.885-1.211-1.312-.912-.841-1.673-1.672-2.524-2.524-.425-.425-1.115-1.158-1.615-.959-.421.221-.882.81-1.263 1.211zm-2.575 11.711c-1.452 3.361-3.26 6.137-5.603 8.481-.392.392-.94.723-1.211 1.413 1.228-.063 2.354-.673 3.382-1.212 2.038-1.068 3.762-2.503 5.25-4.24.459-.535 1.947-1.995 1.868-2.877-.045-.505-.863-1.115-1.312-1.564-.487-.487-1.075-1.232-1.666-1.262-.386.25-.469.708-.708 1.261z" fill-rule="evenodd"/></svg>