<svg enable-background="new 0 0 52.081 81.398" viewBox="0 0 52.081 81.398" xmlns="http://www.w3.org/2000/svg"><g clip-rule="evenodd" fill-rule="evenodd"><path d="m51.765.002c.366.512.204 1.203.204 1.779 0 14.438.05 29.875.051 44.791v11.338c0 .65-.026 1.342 0 1.983.021.529.213 1.18-.204 1.627-.502-.279-.286-.932-.305-1.322-.155-3.279-1.171-6.252-2.288-8.744-1.266-2.824-3.02-5.439-5.186-7.422-4.321-3.957-10.004-7.221-17.998-7.221-3.948 0-7.431.975-10.321 2.338-2.989 1.412-5.412 2.973-7.524 5.086-3.693 3.693-6.522 8.197-7.422 14.641-.063.455-.137.941-.153 1.424-.013.383.141.988-.305 1.272-.45-.467-.254-1.176-.254-1.729 0-17.808-.051-37.158-.051-55.824 0-1.342-.041-2.689.051-3.865.028-.072.079-.123.152-.152.044-.01.048.02.051.051.332.4.167.928.204 1.373.261 3.183 1.233 6.215 2.338 8.693 1.25 2.803 3.131 5.381 5.237 7.373 2.129 2.014 4.631 3.662 7.575 5.033 2.875 1.338 6.547 2.227 10.422 2.186 8.019-.084 13.724-3.252 17.845-7.371 3.16-3.16 5.723-6.949 6.915-12 .306-1.295.552-2.559.661-4.066.028-.391-.003-.921.305-1.272z"/><path d="m39.156 47.945c3.036 2.666 5.22 6.201 6.05 10.879.899 5.066-.538 10.219-2.746 13.523-2.117 3.172-5.325 6.123-9.202 7.678-2.09.838-4.415 1.373-7.067 1.373-2.727 0-4.962-.402-7.168-1.271-4.017-1.582-7.051-4.018-9.355-7.574-2.194-3.389-3.633-8.203-2.694-13.576.848-4.851 3.042-7.984 5.999-10.879 2.81-2.75 6.695-4.729 11.744-5.135 6.683-.539 10.973 2.013 14.439 4.982z"/></g></svg>