<svg enable-background="new 0 0 80.757 55.129" viewBox="0 0 80.757 55.129" xmlns="http://www.w3.org/2000/svg"><g clip-rule="evenodd" fill-rule="evenodd"><path d="m29.123.215c.153 3.623.195 7.332.049 10.96-2.152.3-4.697-.001-6.886.145-.335 1.211-.163 2.515-.146 3.783.117 8.923-.115 18.776 0 28.223-1.101 1.136-2.413 2.01-3.637 3.007-1.219.993-2.502 1.93-3.733 2.91-2.462 1.957-4.865 3.987-7.469 5.771-2.347-.062-4.942.125-7.128-.097-.221-12.153-.203-25.447-.098-37.777.199-.588.825-.807 1.262-1.164 6.604-5.4 13.624-10.545 20.415-15.809.035-.045.088-.074.146-.097 2.43.026 4.976-.063 7.225.145z"/><path d="m54.921.215c.243 3.363.2 7.525.049 10.96-2.113.356-4.828-.071-7.129.194-.259.888-.146 1.901-.144 2.91 0 2.917.112 6.244-.146 8.971-4.744.195-9.472.213-14.209 0-.261-.879-.146-1.893-.146-2.861 0-2.907 0-6.032 0-8.971 1.07-1.116 2.349-1.957 3.589-2.91 2.976-2.287 5.976-4.745 9.116-7.08.633-.471 1.408-1.276 2.086-1.358 1.093-.131 2.353-.045 3.491 0 1.15.046 2.296-.014 3.443.145z"/><path d="m80.478.215c.258.702.146 1.485.146 2.23-.002 10.769.095 21.826.097 32.927 0 .821.11 1.706-.049 2.279-.125.451-.823.879-1.261 1.212-3.259 2.477-6.286 5.034-9.456 7.614-3.051 2.467-6.377 4.984-9.601 7.516-.479.376-1.002.994-1.503 1.067-1.051.153-2.424 0-3.685 0-1.24 0-2.464.097-3.491-.146-.16-3.204-.163-7.077 0-10.28 1.044-.112 2.303-.049 3.539-.049 1.251 0 2.572.114 3.638-.146.267-11.097-.064-22.176.097-32.927.333-.75 1.153-1.013 1.697-1.552 1.833-1.368 3.57-2.831 5.432-4.17 2.386-1.88 4.846-3.689 7.177-5.625 2.279-.047 5.021-.142 7.223.05z"/><path d="m47.599 32.172c.263 1.802.136 3.855.146 5.674.01 1.844.025 3.729-.048 5.625-.337.746-1.138 1.029-1.697 1.552-4.243 3.338-8.4 6.763-12.754 9.99-2.369-.021-4.851.113-7.129-.097-.166-3.354-.18-7.099-.049-10.28 2.123-.286 4.91.092 7.032-.194.257-.883.146-1.95.146-3.006 0-2.073 0-4.029 0-6.256 0-.84-.105-2.556.146-3.006.035-.045.088-.073.146-.097 4.654.063 9.567-.13 14.061.095z"/></g></svg>