<svg enable-background="new 0 0 87.56 49.59" viewBox="0 0 87.56 49.59" xmlns="http://www.w3.org/2000/svg"><g clip-rule="evenodd" fill-rule="evenodd"><path d="m.726.075c4.702.021 9.567-.052 14.575-.052.965 0 2.233-.069 2.533.362.306.44.183 1.821.155 2.636-.022.639.092 2.08-.31 2.429-.438.381-2.321.178-3.256.207-3.83.12-7.313 0-11.629 0-.851 0-2.136.055-2.481-.258-.555-.505-.214-2.56-.155-3.463.044-.675-.185-1.536.414-1.861z"/><path d="m39.335.385c.315.559.225 1.538.207 2.429-.016.773.173 2.095-.155 2.533-.445.593-2.747.263-3.929.259-3.474-.012-7.23.086-10.905.104-.875.004-2.646.049-2.946-.31-.336-.404-.252-1.764-.258-2.533-.004-.557-.026-2.243.31-2.584.313-.317 1.805-.256 2.481-.258 3.549-.012 7.775.052 11.578.052 1.242-.002 2.574-.208 3.617.308z"/><path d="m77.685 10.981c-.503.032-.745-.532-.982-.827-1.827-2.27-4.544-4.25-8.528-4.497-2.952-.183-6.453.001-9.407.052-3.877.066-7.762-.052-11.991-.052-1.135 0-3.422.208-3.825-.31-.323-.416-.155-1.729-.155-2.584 0-.913-.176-2.071.155-2.429.327-.353 1.744-.295 2.274-.31 3.239-.089 6.668.103 10.079.103 3.463 0 6.987-.2 10.285 0 4.277.259 7.749 2.66 9.872 5.323.563.707 1.011 1.612 1.447 2.533.417.879.936 1.905.776 2.998z"/><path d="m17.731 8.965c.327.625.221 1.662.207 2.585-.015.955.161 2.015-.258 2.636-1.273.364-2.81.207-4.342.207-2.962 0-6.006 0-8.89 0-1.146 0-3.721.266-4.187-.31-.304-.375-.206-1.782-.206-2.585 0-1.247-.276-2.662.827-2.791 1.085-.127 2.364.051 3.617.051h10.854c.803 0 1.655-.207 2.378.207z"/><path d="m39.335 8.965c.369.572.31 1.536.31 2.585 0 .803.176 2.159-.31 2.584-.579.507-2.999.207-3.979.207-4.015 0-7.08.052-10.958.052-1.036 0-2.067.142-2.791-.31-.314-.599-.206-1.609-.206-2.636 0-.724-.208-2.134.31-2.533.432-.333 2.905-.17 3.67-.207 2.45-.116 5.26.041 7.908.052 2.182.008 4.309-.175 6.046.206z"/><path d="m47.656 8.758c3.778-.18 8.556.059 12.818.052 2.313-.004 4.568-.052 6.512-.052 2.291 0 4.15.033 5.892.672.828.304 2.172 1.162 2.946 1.757.772.593 1.931 1.396 2.171 2.481.141.639-.005 2.095-.414 2.274-.484.211-1.246-.536-1.654-.724-.531-.244-1.259-.54-1.757-.672-2.041-.54-5.114-.31-7.753-.31-6.832 0-12.365.052-19.485.052-1.07 0-3.337.221-3.825-.155-.49-.378-.31-1.689-.31-2.532 0-.859-.147-2.189.207-2.584.305-.34 1.446-.258 2.17-.258.852-.001 1.652.039 2.482-.001z"/><path d="m79.339 16.821c.499.205.665 2.082.672 2.946.046 6.183-4.568 9.955-9.82 10.906-.326.35.245.792-.052 1.137-.874.272-1.808.155-2.739.155-7.144.001-14.908-.052-22.225-.052-.948 0-1.793.092-2.067-.259-.317-.405-.095-1.873-.155-2.998-.038-.708-.237-1.684.207-2.119.5-.489 2.701-.258 3.928-.258 5.49 0 10.565.079 15.712 0 .765-.012 1.609-.117 2.119.052 1.11.368 1.583 1.871 2.791 2.274.973.324 2.649-.119 3.566-.414 4.698-1.511 7.584-5.347 7.959-11.215-.002-.088.039-.134.104-.155z"/><path d="m43.056 22.92c-.334-.629-.207-1.669-.207-2.636 0-.955-.126-1.966.207-2.584 1.364-.449 3.067-.258 4.807-.258 5.06 0 9.85.231 14.834 0 2.377-.111 5.282-.079 7.752 0 1.106.035 2.223-.11 3.566.052.871.105 2.638.304 2.791 1.085.161.826-.963 2.115-1.292 2.585-.407.58-1.161 1.698-1.912 1.912-.965.276-2.357.03-3.515.052-4.665.087-9.914.052-15.299.052-3.071 0-5.983-.052-9.044-.052-.915-.002-1.873.189-2.688-.208z"/><path d="m39.387 17.7c.377.62.258 1.559.258 2.636 0 .699.195 2.235-.206 2.636-.258.258-1.473.236-2.326.207-5.483-.192-12.089 0-17.366 0-5.701 0-11.473 0-17.263 0-.768 0-1.584.129-2.223-.258-.334-1.321-.334-3.899 0-5.22.801-.378 1.689-.182 2.533-.155 3.741.117 7.871-.052 11.991-.052h6.202 12.404c2.069-.001 4.132-.127 5.996.206z"/><path d="m81.251 23.954c.443.041.568 1.514.568 2.171 0 4.664-3.632 8.226-8.372 8.424-.485-.29-1.131-.695-1.137-1.292.141-.447.703-.4 1.034-.465 4.438-.874 7.159-3.876 7.753-8.683.028-.075.08-.127.154-.155z"/><path d="m39.542 31.706c-1.293.497-2.983.258-4.652.259-8.433.001-16.718.052-25.119.052-2.401 0-4.639-.052-7.288-.052-.864 0-1.95-.01-2.223-.311-.351-.385-.206-1.77-.206-2.842 0-1.389-.214-2.367.775-2.533.816-.137 1.865 0 2.843 0 9.757 0 19.443.014 29.098.052 1 .004 2.186-.083 3.515-.052.948.022 2.705-.151 3.153.258.404.37.258 1.697.258 2.533.001 1.031.089 2.073-.154 2.636z"/><path d="m83.009 30.518h.104c.66 1.372.474 3.163-.052 4.341-.501 1.123-1.424 2.218-2.377 2.791-.812.488-1.76.564-2.481 1.137-.047.723.842.773.62 1.499-.615.422-1.409.258-2.119.258-9.122 0-19.04.102-28.737.104-1.676 0-3.373.155-4.807-.259-.345-.694-.178-1.685-.258-2.584-.08-.887-.018-1.81.155-2.481.788-.524 1.797-.288 2.739-.31 6.806-.158 14.695-.028 21.553-.052.972-.003 2.142-.003 3.256 0 .894.003 2.471-.147 3.153.052.937.274 1.393 1.567 2.378 1.809 3.982-.308 5.945-2.634 6.719-6.15.027-.075.079-.127.154-.155z"/><path d="m.365 40.441c-.378-.639-.273-1.612-.31-2.533-.034-.839-.14-2.215.206-2.636.225-.273.926-.309 1.344-.31 1.117-.002 2.25.007 3.515 0 1.889-.01 4.197.215 6.099.104 1.235-.073 2.204 0 3.825 0 1.012 0 2.401-.129 2.739.155.545.458.287 1.825.311 2.739.021.841.22 2.122-.258 2.533-.395.339-1.523.215-2.274.207-2.269-.024-5.38 0-7.856 0-2.47-.001-5.311.156-7.341-.259z"/><path d="m39.49 35.272c.395.576.27 1.632.31 2.584.034.81.198 2.234-.362 2.636-.349.25-1.354.207-2.067.207-3.622 0-7.495 0-11.216 0-1.54 0-3.094.154-4.29-.207-.393-.624-.273-1.675-.259-2.584.016-.959-.235-1.992.207-2.636 1.608-.389 3.374-.207 5.117-.207 1.797 0 3.728-.036 5.427-.104.826-.033 1.709.054 2.533.104 1.573.096 3.217-.226 4.6.207z"/><path d="m84.869 36.978c1.439 2.411-.232 5.744-3.153 5.686-.412-.348-1.369-.688-1.292-1.344.048-.405.755-.502 1.292-.724 1.073-.442 2.004-1.269 2.43-2.17.243-.515.168-.78.465-1.344.044-.077.13-.112.258-.104z"/><path d="m86.368 43.594c.534.038.809 1.2.775 1.757-.053.871-.822 1.106-.827 1.654-.01.961 1.319 1.016 1.24 1.964-.197.484-.952.311-1.498.311-12.122 0-25.478.103-37.885.103-1.66 0-3.352.208-4.962-.155-.367-.684-.163-1.699-.207-2.636-.043-.906-.091-1.849.155-2.533.92-.422 1.997-.258 2.997-.258 7.335 0 15.134.041 22.225.051 3.282.005 7.007-.103 10.699-.103 1.181 0 2.639-.204 3.515.052.721.21.891 1.104 1.809 1.188 1.134.015 1.357-.883 1.964-1.395z"/><path d="m39.593 49.228c-1.334.406-2.868.156-4.341.207-4.11.142-8.822.082-13.231-.051-.461-.564-.302-1.581-.31-2.533-.006-.777-.263-2.168.104-2.688.464-.658 3.329-.361 4.651-.361h9.097c1.168 0 3.309-.235 3.877.155.504.346.362 1.692.362 2.584-.002 1.033.135 1.939-.209 2.687z"/><path d="m17.937 44.007c.379.805.216 1.676.258 2.739.031.772.208 2.271-.258 2.636-.43.335-1.777.162-2.739.155-4.04-.03-7.883.052-12.352.052-1.001 0-2.135.018-2.429-.31-.399-.446-.186-2.128-.207-2.843-.027-.957-.367-2.175.362-2.585 4.21-.024 8.959-.051 13.179-.051 1.407.001 2.864-.16 4.186.207z"/></g></svg>