<svg enable-background="new 0 0 77.442 78.195" viewBox="0 0 77.442 78.195" xmlns="http://www.w3.org/2000/svg"><g clip-rule="evenodd" fill-rule="evenodd"><path d="m10.367.128c.176 5.392.095 11.144.095 16.823 0 5.7-.079 11.426.096 16.918 4.663.219 9.423.095 14.194.096 14.031.002 28.621.246 42.63 0 .25-.633.144-1.332.144-2.007 0-4.885 0-9.989 0-14.959 0-4.252 0-8.446 0-12.76 0-1.358-.094-2.715.143-4.015 2.997-.143 6.614-.085 9.654.048.163 24.775.094 50 .096 75.51 0 .766.111 1.56-.144 2.294-3.163.096-6.419.127-9.606-.048-.256-.628-.143-1.339-.143-2.007 0-10.548.084-21.61-.096-31.829-.515-.253-1.122-.144-1.673-.144-6.492 0-13.148 0-19.738 0-11.696-.001-23.766-.274-35.414.048-.221 1.343-.144 2.74-.144 4.158 0 8.618.153 17.228.048 25.855-.016 1.341.066 2.684-.143 3.919-3.217.158-7.101.145-10.132.048-.259-.713-.144-1.579-.144-2.389 0-9.082 0-18.082 0-27.289 0-3.13-.169-6.62-.048-9.654.125-3.144-.12-6.286 0-9.559.113-3.06 0-6.375 0-9.75 0-3.308 0-6.375 0-9.75 0-2.776.018-5.79.048-8.698.009-.757.025-.889.671-.955.719-.073 1.55 0 2.342 0 2.257 0 4.987-.073 7.264.096z"/><path d="m27.141.128c.256 5.361-.04 11.005.143 16.393.88.336 1.889.191 2.868.191 2.942 0 6.038-.042 8.937 0 3.961.056 7.894.205 11.661-.048.27-2.559.095-5.362.095-8.172 0-2.782.017-5.614.144-8.268 3.062-.158 6.784-.16 9.845 0 .258 1.061.144 2.179.144 3.298v20.55c0 1.116.115 2.236-.144 3.298-14.634.219-28.959.024-43.681-.096-.258-1.085-.143-2.246-.143-3.393 0-7.345-.107-15.243.047-22.366.01-.459-.15-1.042.191-1.434 3.172-.049 6.802-.143 9.893.047z"/><path d="m44.251.224c.172 1.617.096 3.46.096 5.257 0 1.811.115 3.646-.144 5.21-3.482.08-7.044.091-10.371-.096-.181-2.359-.048-5.05-.048-7.838 0-.683-.1-2.276.144-2.581.035-.044.087-.072.143-.096 3.401.04 6.985-.102 10.18.144z"/><path d="m60.883 50.691c.157 8.852.158 18.405 0 27.336-1.578.122-3.316.167-5.019.096-1.7-.071-3.449.196-4.97-.096-.286-5.321.095-11.31-.191-16.631-.914-.26-1.903-.143-2.868-.143-6.766-.001-13.867-.188-20.55 0-.258 1.319-.143 2.73-.143 4.158 0 4.029.079 8.482-.095 12.569-3.216.128-6.774.216-9.893.047-.253-2.188-.143-4.47-.143-6.738 0-6.887-.062-13.899.095-20.646 4.452-.264 9.452-.074 13.955-.144 3.328-.051 6.715-.042 9.941.048 6.697.186 13.355-.118 19.881.144z"/><path d="m44.155 67.418c.159 3.315.159 7.294 0 10.609-.767.277-1.671.137-2.533.096-2.648-.125-5.527.151-7.838-.143-.203-1.592-.096-3.501-.096-5.401 0-.901 0-1.823 0-2.724 0-.895-.227-1.84.144-2.581 1.481-.08 3.549-.077 5.305 0 1.751.078 3.482-.17 5.018.144z"/></g></svg>