<svg enable-background="new 0 0 74.282 71.946" viewBox="0 0 74.282 71.946" xmlns="http://www.w3.org/2000/svg"><g clip-rule="evenodd" fill-rule="evenodd"><path d="m29.016 16.577c.263-.32.893-.236 1.561-.236.621 0 1.331-.084 1.704.094.458.219.595 1.225.946 1.705 1.661 2.27 5.353 3.691 9.183 3.596 1.919-.047 3.867-.227 5.491-.852 1.5-.578 2.945-1.521 3.691-2.744 1.913-3.139-1.081-6.023-2.935-7.289-2.251-1.539-5.018-2.496-8.426-2.889-5.073-.582-10.617.271-13.773 2.65-1.104.832-2.263 1.725-2.888 2.746-1.089 1.781-.904 3.871-.189 5.49.726 1.642 1.868 2.814 2.981 3.834 1.196 1.096 2.587 1.988 4.165 2.65 1.586.666 3.425 1.254 5.207 1.609 8.295 1.66 17.195 0 22.104-3.691 1.438-1.082 2.395-2.156 3.171-3.644.823-1.576 1.152-3.607.521-5.633-1.051-3.371-3.541-5.504-6.391-7.242-5.489-3.346-13.375-5.113-22.388-4.26-4.038.383-7.699 1.336-10.793 2.84-3.141 1.527-5.821 3.32-7.62 6.012-.943 1.412-1.573 3.186-1.561 5.254.011 2.016.757 3.752 1.608 5.207 1.627 2.771 4.24 5.059 6.958 6.625 5.522 3.188 13.409 5.303 22.294 4.971 4.376-.162 8.799-.047 13.301-.047 4.385 0 8.789-.021 13.206-.096.021-.041.042-.084.095-.094.154-5.613-.064-11.967.095-17.277.996-.213 2.682-.205 3.739-.047.24 3.287.142 6.65.142 10.035.001 5.1.047 10.051.048 15.146 0 4.789.075 9.875-.095 14.815-.977.223-2.815.234-3.739.049-.3-6.656.117-13.529-.236-20.117-.562-.252-1.216-.143-1.799-.143-7.028 0-14.254.096-21.158.096-2.553 0-5.075.068-7.573-.049-9.608-.445-17.702-3.055-23.524-7.43-2.804-2.107-5.545-5.045-6.579-8.898-1.357-5.061.986-8.797 3.455-11.266 2.668-2.668 5.81-4.441 9.751-5.729 2.966-.969 5.898-1.805 9.514-2.129 3.912-.351 8.329-.238 12.069.33 2.561.391 4.925 1.045 7.053 1.799 4.44 1.574 8.298 3.414 11.029 6.627 1.815 2.182 3.436 4.58 3.076 8.709-.258 2.955-2.521 5.053-4.213 6.627-1.813 1.545-4.028 2.701-6.531 3.645-7.298 2.754-18.889 2.525-25.892-.568-1.251-.551-2.335-1.145-3.36-1.75-2.058-1.219-3.783-2.889-5.112-5.018-.686-1.1-1.182-2.295-1.278-3.787-.205-3.193 1.506-5.176 3.361-6.721 3.536-2.947 9.143-4.787 15.714-4.496 6.452.284 11.434 1.914 15.054 5.254 1.588 1.465 3.42 4.166 2.366 7.1-.85 2.365-3.09 3.754-5.396 4.779-1.104.492-2.5.932-3.928 1.137-6.237.895-12.461-.592-15.667-3.928-.795-.828-1.639-1.935-1.609-3.361z"/><path d="m3.787 16.104c.255 3.209.142 6.676.142 10.129 0 3.422-.078 6.887.095 10.129 1.14.312 2.473.189 3.786.189 1.282 0 2.583-.047 3.882-.047 5.195-.002 10.498-.049 15.903-.049 2.658 0 5.287-.041 7.857.096 10.02.531 18.263 3.551 23.998 8.283 2.026 1.869 3.867 3.777 4.97 6.484 1.165 2.861 1.017 6.705-.426 9.277-2.585 4.609-7.801 7.701-13.49 9.371-2.896.852-6.155 1.588-9.608 1.846-7.541.566-14.209-.734-19.737-2.84-2.721-1.033-5.34-2.498-7.289-4.117-2.117-1.756-3.914-3.94-4.734-6.721-1.079-3.666.486-6.598 2.178-8.568 3.551-4.135 9.084-6.109 15.762-7.1 5.264-.781 11.093-.064 15.336 1.184 1.476.434 2.901.916 4.118 1.562 2.467 1.309 4.861 2.727 6.579 4.828 1.584 1.936 3.093 5.295 1.562 8.613-2.819 4.758-9.012 7.385-16.565 7.668-5.16.193-9.722-.893-13.349-2.697-1.81-.9-3.442-2.1-4.544-3.502-1.143-1.457-2.296-3.668-1.467-6.059.668-1.928 2.185-3.014 3.976-4.072 1.692-.936 3.818-1.637 6.153-1.94 4.849-.627 10.056.529 13.111 2.604 1.576 1.07 3.132 2.523 3.266 4.686-.643.529-2.354.227-3.36.236-.525-.783-.743-1.598-1.325-2.271-3.573-4.135-15.377-4.285-17.986.947-.235.471-.459 1.227-.379 2.082.215 2.303 1.947 3.771 3.36 4.779 1.61 1.15 3.461 1.943 5.681 2.414 2.201.469 4.783.82 7.384.617 2.464-.195 4.729-.738 6.626-1.469 3.287-1.264 7.881-4.33 5.822-9.467-.704-1.758-2.204-3.34-3.692-4.4-1.574-1.125-3.389-2.064-5.396-2.699-2.042-.645-4.229-1.219-6.721-1.42-1.359-.109-2.561-.275-3.74-.236-6.293.203-11.912 1.699-15.477 4.732-1.571 1.338-2.77 2.606-3.314 4.828-.604 2.465.259 4.744 1.278 6.438 1.949 3.24 5.618 5.268 9.419 6.77 2.942 1.16 6.184 1.918 9.94 2.271 6.196.584 12.918-.438 17.513-2.225 3.778-1.471 7.19-3.723 9.325-6.91 1.136-1.697 1.701-4.1 1.23-6.484-.416-2.104-1.448-3.926-2.698-5.396-5-5.887-12.929-8.713-22.814-9.609-2.646-.238-5.288-.143-7.999-.141-6.441 0-13.172.094-19.975.094-1.295 0-2.599-.111-3.882.143-.33 5.629.118 11.363-.188 17.182-.953.223-2.79.238-3.74 0-.134-6.408-.097-13.049-.096-20.117 0-6.131-.049-12.5-.048-18.934 0-1.119-.02-.994.426-1.088 1.052-.218 2.372.088 3.361.096z"/></g></svg>