<svg enable-background="new 0 0 81.539 47.427" viewBox="0 0 81.539 47.427" xmlns="http://www.w3.org/2000/svg"><g clip-rule="evenodd" fill-rule="evenodd"><path d="m.364 0c8.218.094 16.343-.076 24.614.195.156 1.662.181 3.748 0 5.351-1.481.307-3.115-.158-4.329.291-.612.226-1.246.838-1.46 1.605-.23.832-.112 1.803-.097 2.725.028 1.678-.049 3.733-.049 5.691 0 2.07-.229 3.334 1.119 3.939.787.354 2.193.242 3.405.244 2.468 0 4.812-.064 7.248.049 1.872.086 3.869.172 4.427-.973.412-2.342.243-5.742.243-8.562 0-.981.109-1.928-.049-2.773-.183-.977-.888-1.799-1.751-2.092-1.198-.406-3.321.084-4.816-.242-.223-1.522-.084-3.514-.048-5.205.949-.316 1.975-.092 2.967-.098 6.997-.037 14.793-.014 21.695.146.161 1.562.161 3.789 0 5.35-1.294.317-2.836-.129-3.988.195-.956.269-1.675 1.057-1.801 2.238-.15 1.428-.048 2.959-.048 4.475-.001 7.371-.048 15-.049 22.084 0 1.572-.115 3.109.243 4.232.376 1.178 1.261 2.045 2.189 2.434.617.258 1.808.145 2.821.145 5.099 0 9.517.1 14.545.098 2.393 0 5.026.203 6.47-.633 1.675-.969 1.717-3.277 1.702-5.885-.013-2.277-.071-5.01.098-7.346 1.896-.16 3.906-.121 5.789.049.144 6.264.086 13.217-.049 19.604-13.085.24-26.208-.051-39.5-.049-2.216 0-4.453.098-6.664 0-2.148-.094-4.311.086-6.421-.193-.145-1.543-.207-3.836.048-5.303 2.704-.383 5.989.684 6.518-1.899.194-.947.049-2.104.049-3.162 0-2.1.049-3.9.049-6.273 0-1.689.16-3.109-.778-3.648-.762-.44-2.22-.299-3.356-.244-2.635.125-4.697-.049-7.443-.049-2.235 0-4.434-.33-4.961 1.41-.21.692-.098 1.918-.098 2.969-.001 2.111-.049 3.857-.049 5.934 0 .967-.045 2.062.194 2.822.297.939 1.007 1.541 1.8 1.799 1.351.439 2.546-.137 4.184.293.05 1.656.143 3.773-.049 5.351-7.979.109-16.744.127-24.76-.098-.257-.713-.145-1.701-.146-2.627 0-.951-.035-1.902.098-2.676 1.48-.496 3.543.201 5.011-.195.852-.228 1.553-.875 1.751-1.848.225-1.105.049-2.562.049-3.941.001-7.746.048-15.781.049-23.787 0-1.311.128-2.693 0-3.939-.123-1.189-.922-2.113-1.801-2.382-1.367-.422-3.664.109-4.961-.293-.162-1.512-.162-3.693 0-5.205.036-.045.088-.075.146-.098zm17.707 1.994c-4.152.115-8.491-.047-12.745-.047-.884 0-1.814-.156-2.578-.049-.701.098-.604.903-.438 1.606 1.192.215 2.662.053 3.696.34 1.338.371 2.414 1.41 2.774 2.773.282 1.068.145 2.643.145 4.184-.001 4.611-.048 8.141-.049 12.842 0 4.543-.134 8.646 0 12.891.044 1.389.122 2.92-.146 4.086-.316 1.375-1.344 2.412-2.725 2.627-1.233.191-2.922-.152-3.843.146-.156.504-.144 1.486 0 1.994.782.279 1.649.107 2.481.146.837.037 1.676.047 2.532.047 5.258 0 10.784.07 15.761-.047.195-.484.269-1.688-.049-2.092-.969-.109-1.704-.018-2.627-.146-2.624-.369-3.512-2.676-3.356-5.936.151-3.152-.131-6.473.049-9.438.091-1.5.786-2.523 1.703-3.064.625-.367 1.512-.434 2.432-.438 3.396-.008 6.741.049 10.069.049 1.262 0 2.797-.113 3.893.146 1.241.295 2.049 1.094 2.334 2.285.289 1.201.098 2.951.098 4.574v4.475c0 1.453.107 3.135-.098 4.475-.224 1.475-1.391 2.715-2.772 2.969-1.152.209-2.397-.207-3.648.096-.249.424-.19 1.596-.048 2.092 11.907.264 24.721.107 36.823.293 3.039.047 6.026-.096 9.048-.049.974.014 1.981.201 2.919-.098.262-1.258.145-2.645.145-4.037.001-2.789-.007-5.666.049-8.318.028-1.295.023-2.576-.146-3.697-.473-.217-1.737-.256-2.141.049-.429 3.99.611 8.135-.827 10.945-.699 1.365-1.766 2.162-3.308 2.578-1.615.435-3.683.195-5.74.195-3.511-.002-7.623-.098-11.675-.098-2.04 0-4.078.059-5.837-.049-1.803-.111-3.095-1.096-3.746-2.189-.626-1.051-.924-2.369-.924-4.037-.002-8.367.048-16.236.049-24.664 0-1.693-.095-3.34.048-4.815.146-1.51.753-2.592 1.801-3.211 1.01-.598 2.664-.412 3.988-.633.139-.34.165-1.174 0-1.508-5.7-.361-12.221.023-17.999-.195-.829-.031-1.7-.092-2.48.146-.164.322-.137 1.133 0 1.459 1.525.221 2.478-.02 3.648.342 1.376.424 2.661 1.639 2.821 3.453.16 1.807 0 3.752 0 5.838 0 2.088.19 4.332-.049 6.031-.194 1.387-1.014 2.394-2.188 2.725-.854.238-2.191.098-3.551.098-2.55 0-5.2.059-7.54-.049-1.296-.061-2.559.115-3.795 0-1.509-.143-2.678-1.133-3.113-2.287-.323-.857-.232-2.582-.194-3.793.028-.908.009-1.814.049-2.725.11-2.525-.354-5.473.34-7.248.76-1.941 2.721-2.387 5.497-2.385.224-.305.206-1.197 0-1.508-1.504-.205-3.154-.19-4.817-.145z"/><path d="m78.974 3.309c.294.613.105 1.324 0 1.896-.22 1.205-.501 2.281-1.07 3.113-1.142 1.668-3.46 2.973-5.935 2.822-1.807-.109-3.192-1.125-4.962-1.606-2.403-.652-3.836.742-3.988 3.162-.03.473-.173 1.016.097 1.41.576.006 1.042-.363 1.557-.535.826-.275 1.78-.476 3.017-.389 4.224.303 6.604 3.418 6.907 7.637.145 2.018-.277 3.881-.729 5.498-.448 1.602-1.104 3.031-1.752 4.475-1.322 2.949-2.805 5.756-5.351 7.102-1.257.465-2.704-.301-4.184-.242-1.096.043-2.02.516-3.161.389-1.758-.195-3.022-1.58-3.989-2.869-1.054-1.404-1.772-2.879-2.53-4.33-1.166-2.236-2.189-4.787-2.432-7.832-.084-1.057-.221-2.211-.146-3.26.245-3.438 3.19-6.195 6.713-6.469 2.183-.17 3.07.625 4.962.924.367-.627.179-1.482.146-2.287-.058-1.359-.184-2.771-.194-3.988.321-.164 1.041-.047 1.313.146.247.354-.082.986.097 1.41.691-.492.939-1.428 1.508-2.043 1.547-1.377 2.885-2.709 5.838-2.529 1.37.082 2.569.797 4.037.826 2.245.047 3.27-1.029 4.184-2.432.015.001.032.001.047.001zm-3.599 2.869c-1.554.035-3.188-.664-4.621-.777-1.58-.127-2.833.25-3.795.924-.662.465-1.43.977-1.604 1.703.909-.371 1.606-.906 2.675-1.022 2.272-.246 4.458 1.506 6.762.973.316-.074.637-.357 1.07-.34-.564.422-1.283.744-2.189.729-1.126-.018-2.053-.736-3.259-.973-1.442-.283-2.898-.098-3.794.389-.374.203-.978.389-1.022.975 2.652.135 4.307 2.131 7.345 1.848 1.321-.123 2.656-.713 3.552-1.459.934-.779 1.803-1.842 1.8-3.309-.752.092-.912 1.033-1.509 1.119.194-.539.975-.742.925-1.361-.818.133-1.42.561-2.336.581z"/></g></svg>