<svg enable-background="new 0 0 29.868 41.109" viewBox="0 0 29.868 41.109" xmlns="http://www.w3.org/2000/svg"><path d="m10.175.023c.376-.092.761.107 1.058.326-.209 6.023-.15 12.049-.145 18.081-.015.517-.094 1.082.222 1.534 1.661-.613 3.07-1.825 4.81-2.293 3.133-.993 7.223-.353 9.028 2.661 1.48 2.227 1.025 4.987 1.148 7.502-.115 2.176.076 4.367-.04 6.539.178 1.29-.23 2.773.577 3.903.677.744 1.797.528 2.673.788.53.527.443 1.504-.027 2.046-4.412-.246-8.84-.246-13.255-.077-.567-.476-.429-1.381-.131-1.989.688-.206 1.49-.141 2.079-.604.535-.54.407-1.37.51-2.059.031-3.727.004-7.455.015-11.182.025-1.883-1.49-3.842-3.491-3.728-1.604-.179-3.745.546-4.055 2.327-.167 3.422-.021 6.857-.078 10.284-.016 1.251.025 2.506.206 3.744.199.819 1.148 1.035 1.878 1.056 1.066-.012 1.068 1.561.514 2.137-1.035.032-2.075-.112-3.11-.12-3.411-.065-6.82-.022-10.228.073-.428-.554-.447-1.374-.035-1.935.821-.333 1.852-.031 2.564-.664.673-.659.564-1.677.664-2.533.012-9.035.001-18.07.005-27.103.005-.726-.02-1.462-.177-2.17-.315-.895-1.314-1.174-1.995-1.705-.43-.544-.347-1.756.495-1.833 2.858-.757 5.576-1.929 8.321-3.006z"/><path d="m22.519 2.472c2.57-.225 4.743 2.298 4.346 4.802-.016 3.619-5.161 5.255-7.599 2.85-1.454-1.449-1.673-3.942-.575-5.659.852-1.235 2.323-2.017 3.828-1.993z"/></svg>