<svg enable-background="new 0 0 29.447 34.479" viewBox="0 0 29.447 34.479" xmlns="http://www.w3.org/2000/svg"><path d="m13.495.258c.158-.215.447-.265.698-.257 1.594.017 3.064 1.429 3.038 3.046.038 1.193-.544 2.302-1.298 3.186.554.396 1.137.755 1.707 1.129.259-1.091.643-2.19 1.375-3.058 1.132-1.488 2.978-2.353 4.832-2.405 1.606-.109 3.336.365 4.447 1.582 1.032 1.162 1.405 2.858.981 4.35-.493 1.605-2.04 2.745-3.689 2.907-2.458.224-4.768-.857-6.88-1.984-.06.572-.094 1.147-.079 1.723-.013 3.031.046 6.062.061 9.093.01.948-.056 1.999.524 2.811.648.893 1.987.845 2.871.36 1.176-.671 1.338-2.424.586-3.467-.432-.557-1.164-.844-1.858-.786-.233.128-.305.495-.611.509-.333.039-.5-.376-.344-.628.21-.262.563-.329.879-.361.934-.024 1.971.318 2.461 1.168.546.953.512 2.185-.006 3.143-.789 1.461-2.803 1.987-4.246 1.217-.833-.448-1.337-1.357-1.459-2.275-.117-1.253-.024-2.516-.083-3.772-1.759-.004-3.518.035-5.277.032-.05.01-.157-.021-.146.061-.008 2.049.036 4.097.035 6.146.054.907-.012 1.816-.12 2.716.714.415 1.405.866 2.108 1.299 2.617-2.145 6.237-2.8 9.519-2.207 1.046.191 2.09.501 2.995 1.074.678.421 1.274 1.037 1.51 1.816.359 1.259-.101 2.69-1.078 3.55-.653.523-1.469.836-2.304.885-1.168.067-2.344-.113-3.459-.459-2.687-.786-5.023-2.393-7.35-3.896-.859.851-1.313 2.103-1.182 3.307.141 1.023.922 2.034 1.997 2.144.388.066.5-.477.885-.433.272-.049.458.244.417.487-.016.303-.337.454-.604.466-1.654.084-3.243-1.371-3.205-3.05-.032-1.191.533-2.301 1.304-3.175-.561-.381-1.12-.764-1.697-1.118-.427 2.014-1.644 3.95-3.563 4.827-1.832.803-4.031.903-5.848.003-.96-.495-1.715-1.364-2.066-2.386-.527-1.53-.315-3.443.939-4.564 1.058-1.067 2.65-1.425 4.106-1.213 1.915.227 3.694 1.052 5.378 1.946.09-.687.082-1.381.073-2.073-.038-3.308-.04-6.615-.099-9.923-.032-.879-.38-1.934-1.305-2.225-.975-.237-2.192-.028-2.77.873-.531.895-.498 2.159.2 2.958.456.49 1.149.713 1.809.661.187-.167.285-.462.557-.512.404-.071.561.505.285.735-.331.272-.795.305-1.205.266-.753-.054-1.509-.384-1.963-1.006-.62-.903-.641-2.134-.212-3.12.785-1.742 3.322-2.321 4.795-1.117.716.564 1.026 1.506 1.069 2.389.011 1.155.035 2.31.032 3.465 1.814.007 3.627-.033 5.441-.033-.001-2.158-.051-4.315-.034-6.473-.021-.853.025-1.711.144-2.557-.715-.429-1.42-.874-2.137-1.3-1.335 1.143-3.017 1.805-4.718 2.174-2.268.432-4.688.3-6.839-.574-.891-.388-1.758-.954-2.234-1.821-.676-1.284-.239-2.941.783-3.911.72-.682 1.72-1.023 2.704-1.015 1.924-.024 3.795.592 5.509 1.426 1.721.867 3.361 1.884 4.959 2.957.849-.907 1.37-2.183 1.156-3.433-.136-.854-.735-1.633-1.549-1.942-.267-.095-.624-.156-.834.084-.15.179-.388.318-.627.25-.276-.089-.341-.47-.191-.692zm-10.835 3.488c-.728.762-.837 2.012-.223 2.875.695.97 1.854 1.471 2.973 1.77 2.494.616 5.187.395 7.547-.624.729-.33 1.442-.724 2.042-1.259-.941-.6-1.899-1.174-2.873-1.718-2.04-1.083-4.24-2.094-6.599-2.081-1.03-.018-2.147.253-2.867 1.037zm18.426.134c-1.397.937-2.097 2.596-2.299 4.216 1.813 1.091 3.761 2.157 5.919 2.274.918.074 1.869-.162 2.611-.717 1.651-1.168 1.962-3.872.541-5.333-.858-.899-2.125-1.29-3.34-1.35-1.198-.058-2.447.2-3.432.91zm-19.164 21.148c-1.17.942-1.518 2.663-1.056 4.055.316.9 1.072 1.58 1.925 1.967 1.728.762 3.868.665 5.453-.397 1.401-.959 2.152-2.617 2.376-4.259-1.82-1.11-3.813-2.113-5.977-2.248-.976-.062-1.982.23-2.721.882zm14.76 1.591c-.829.334-1.629.768-2.302 1.361 1.882 1.185 3.797 2.354 5.889 3.134 1.354.491 2.805.8 4.249.658.797-.087 1.614-.367 2.177-.961.631-.622.846-1.625.539-2.454-.276-.729-.904-1.251-1.564-1.625-.815-.44-1.721-.684-2.632-.826-2.132-.335-4.356-.105-6.356.713z"/><path d="m20.256 12.994c.394-.109.772-.332 1.194-.278.005 1.054.031 2.107.025 3.16-.172-.001-.345.005-.517.003-.03-.859-.014-1.721-.027-2.58-.186.047-.367.11-.555.152-.042-.152-.085-.304-.12-.457z"/><path d="m22.218 12.736c.683-.024 1.367-.018 2.05-.019.015.138.018.277.016.415-.272.308-.582.58-.853.888.274.047.568.133.745.363.284.374.202.958-.149 1.262-.573.464-1.529.312-1.949-.285.111-.128.241-.239.359-.361.261.316.721.522 1.113.331.276-.122.325-.548.082-.726-.235-.172-.54-.148-.816-.148-.033-.116-.076-.233-.086-.354.247-.308.538-.578.79-.882-.432-.003-.864.001-1.296.004-.005-.162-.006-.325-.006-.488z"/><path d="m7.786 18.59c.288.001.578.092.797.284.742.664.751 1.992.016 2.664-.466.416-1.248.391-1.681-.061-.522-.552-.594-1.439-.282-2.114.195-.45.654-.779 1.15-.773zm-.183.54c-.696.292-.728 1.302-.369 1.87.222.383.819.437 1.08.068.315-.426.326-1.029.117-1.504-.133-.31-.488-.541-.828-.434z"/><path d="m3.781 19.296c.28-.572 1.048-.858 1.64-.56.531.237.644.975.327 1.427-.34.447-.809.773-1.23 1.137.482.009.965-.004 1.448 0 .001.162.001.325.001.488-.744.035-1.492.019-2.237.025-.009-.152-.011-.304.01-.454.489-.404.96-.835 1.414-1.279.248-.236.301-.759-.072-.899-.37-.165-.73.114-.916.418-.125-.106-.269-.188-.385-.303z"/></svg>