<svg enable-background="new 0 0 57.277 77.325" viewBox="0 0 57.277 77.325" xmlns="http://www.w3.org/2000/svg"><g clip-rule="evenodd" fill-rule="evenodd"><path d="m38.403 11.313c1.003 1.065 2.857 1.278 4.021 2.181 4.6 2.476 8.34 6.053 10.999 10.659 1.922 3.331 3.486 7.502 3.828 12.452.06.862 0 1.792 0 2.713 0 .795.021 1.651-.29 2.374-.729.059-1.867.128-2.52-.048-.136-.812.04-1.644.097-2.471.365-5.261-1.914-9.152-4.458-11.919-.411-.447-.994-1.129-1.454-1.26-.635-.182-1.666-.049-2.422-.048-2.365 0-5.004-.079-7.219.097-.341 1.158-.194 2.512-.194 3.828 0 3.866.102 7.901-.097 11.774-3.189.224-6.607.049-9.981.048-3.37-.001-6.754.094-9.835-.146-.215-2.214-.097-4.845-.097-7.607 0-2.674.08-5.426-.097-7.897-.66-.25-1.445-.194-2.229-.194-1.538 0-3.183 0-4.796 0-.761 0-1.633-.094-2.229.048-.527.126-1.093.803-1.55 1.26-2.308 2.307-4.05 5.303-4.556 9.303-.205 1.623-.054 3.38 0 5.136-.837.149-2.334.188-3.101-.049-1.018-8.056 1.588-14.655 4.893-19.429 2.568-3.708 5.816-6.475 9.884-8.769.562-.316 1.255-.749 2.035-1.066.684-.278 1.87-.6 2.083-1.018.245-.478.058-1.734.097-2.277.17-2.345.976-3.951 2.181-5.475 1.447-1.83 3.78-3.247 6.88-3.489 1.826-.142 3.331.358 4.555.92 1.241.571 2.224 1.425 3.101 2.326 1.559 1.946 2.742 4.268 2.471 8.043zm-2.471-.29c-.833-.208-1.711-.422-2.616-.582-4.062-.715-8.624-.436-12.258.533-.587.157-1.534.488-1.647.775-.1.252.1.989.242 1.405.174.512.479 1.103.678 1.454 1.393 2.462 4.442 4.605 7.752 4.894.5.043 1.231.04 1.647 0 2.807-.271 4.841-1.583 6.299-3.198 1.048-1.16 1.972-2.554 2.132-4.36-.503-.617-1.43-.721-2.229-.921z"/><path d="m1.24 44.891c.909.028 1.932-.058 2.762.048.712 1.128 1.282 2.384 2.084 3.489.331.457.807.95 1.308 1.502.428.471.937 1.157 1.454 1.308.716.211 1.917.048 2.762.048 2.324 0 4.827.027 7.025-.145.391-1.742-.069-4.333.243-6.153 6.383-.187 13.397-.104 19.816.097.284 1.815-.089 4.288.194 6.105.674.259 1.494.146 2.277.146 2.301 0 4.887.075 7.025-.049 2.329-1.417 3.618-3.876 4.991-6.25 1.055-.05 2.562-.143 3.537.048-.085 1.381-.577 2.65-1.017 3.828-1.322 3.538-3.305 6.556-5.572 9.206-2.835 2.864-6.149 5.385-10.126 7.123-.533.233-1.215.295-1.599.824.244 4.516-1.469 7.594-4.021 9.448-1.31.952-3.123 1.661-5.087 1.792-2.866.192-5.344-.997-6.929-2.52-2.08-1.998-3.479-4.754-3.246-8.769-.288-.586-.976-.743-1.502-.969-7.134-3.064-12.821-8.602-15.553-16.231-.39-1.088-1.071-2.816-.969-3.828.033-.047.086-.075.143-.098zm20.108 21.318c.71.186 1.459.41 2.229.582 4.032.898 9.038.425 12.646-.436.686-.164 1.557-.288 1.89-.921-.223-1.776-1.173-3.412-2.326-4.603-1.39-1.436-3.83-2.862-6.347-3.053-3.644-.276-6.313 1.336-7.946 3.198-1.047 1.194-1.994 2.723-2.132 4.458.491.477 1.271.588 1.986.775z"/></g></svg>