<svg enable-background="new 0 0 75.69 61.11" viewBox="0 0 75.69 61.11" xmlns="http://www.w3.org/2000/svg"><g clip-rule="evenodd" fill-rule="evenodd"><path d="m75.015.072c-.659.399-1.431.355-2.124.531-4.827 1.224-8.917 3.399-12.357 6.131-3.89 3.086-7.061 7.222-8.979 12.164-.973 2.504-1.736 5.375-2.076 8.496-.353 3.232-.1 6.708.579 9.703 1.293 5.7 3.915 10.284 7.192 13.951 3.423 3.63 7.523 6.537 12.841 8.303 1.355.45 2.695.773 4.248 1.062.445.083.948.122 1.352.386-8.153.26-16.75.145-25.246.145-2.804 0-5.59.1-8.255-.097-.092-12.639-.291-25.367-.289-37.99 0-7.589-.136-15.184 0-22.688 10.914-.276 22.264-.141 33.114-.097z"/><path d="m33.259.168c.175 2.485.259 5.032.146 7.53-.114 2.515.049 5.063.048 7.579-.004 15.295.346 30.46.146 45.568-1.334.252-2.718.138-4.104.193-2.696.108-5.59.079-8.447 0-6.612-.184-13.988.219-20.709-.097.943-.417 1.944-.459 2.897-.676 6.519-1.481 11.549-5.042 15.446-9.22 3.29-3.698 5.82-8.333 7.048-14.144 1.363-6.45.201-13.255-1.834-18.102-2.067-4.922-5.252-8.855-9.124-12.067-3.909-3.241-8.957-5.287-14.772-6.37 1.21-.32 2.491-.094 3.765-.145 3.838-.154 7.979-.097 12.116-.097h8.207c3.074 0 6.405-.048 9.171.048z"/></g></svg>