<svg enable-background="new 0 0 56.108 71.256" viewBox="0 0 56.108 71.256" xmlns="http://www.w3.org/2000/svg"><g clip-rule="evenodd" fill-rule="evenodd"><path d="m48.121.054c3.215-.386 5.64 1.339 6.734 3.391.43.805.789 1.714.859 2.627.236 3.038-1.136 5.564-3.199 6.782-.6.353-1.412.71-2.197.859-2.157.409-4.433-.433-5.731-1.624-1.625-1.49-2.898-4.12-2.006-7.26.563-1.983 2.23-3.72 4.107-4.441.46-.176.941-.274 1.433-.334z"/><path d="m22.045.198c2.608-.264 4.927 1.279 6.018 2.817.372.525.944 1.785 1.099 2.579.727 3.74-1.484 6.872-4.059 7.928-.922.378-1.886.448-2.77.43-2.454-.051-4.817-1.738-5.779-3.964-.218-.504-.556-1.57-.621-2.245-.123-1.264.247-2.913.715-3.868.773-1.574 2.657-3.4 5.397-3.677z"/><path d="m43.202 1.535c.432.406-.2.86-.382 1.146-.515.809-.883 1.912-1.003 3.2-.11 1.188.076 2.642.143 4.06.067 1.399.034 2.858.096 4.107.029.586.262 1.199-.048 1.719-.453-.133-.775-.518-1.098-.812-1.279-1.161-3.127-2.288-5.875-2.006-1.798.184-3.33 1.238-4.346 2.292-.34.354-.6.902-1.146 1.051-.322-.405-.17-1.021-.144-1.528.055-1.039.195-2.148.287-3.248.047-.564.008-1.158.191-1.576.198-.452.981-.867 1.528-1.194.622-.373 1.157-.688 1.672-1.003 2.89-1.772 5.424-3.394 8.31-5.11.643-.382 1.146-.838 1.767-1.098.016 0 .033 0 .048 0z"/><path d="m16.792 1.678c.462.442-.227.84-.382 1.098-.657 1.095-1.176 2.565-1.241 4.298-.085 2.28.047 4.736.047 7.212.001 4.602.191 9.373.191 14.28 0 7.315.047 14.473.048 21.969 0 2.449-.058 5.039.668 6.686 1.086 2.46 3.733 4.651 7.498 4.394.618-.042 1.23-.394 1.767-.191.001.458-.52.587-.812.764-3.542 2.147-7.051 4.311-10.698 6.543-1.286.787-2.622 1.784-4.06 2.197-4.037 1.158-6.914-.946-8.501-3.343-.853-1.288-1.22-3.014-1.146-5.015.154-4.174-.048-8.216-.048-12.37.001-10.191-.095-20.559-.095-30.9-.001-2.148-.192-4.254.43-5.827.601-1.52 1.631-2.454 2.675-3.582 3.25-2.105 6.715-4.059 10.077-6.161 1.183-.738 2.357-1.508 3.582-2.052z"/><path d="m16.075 10.991c.493.247 1.212 1.304 1.671 1.719.957.864 2.249 1.571 3.869 1.815.433.065.793-.109 1.051.287-.153.669-.926.95-1.433 1.289-1.06.711-2.165 1.353-3.343 2.054-.344.205-1.308 1.032-1.767.812-.375-.179-.241-1.036-.239-1.623.002-.7-.048-1.9-.048-3.2 0-1.011-.156-2.602.096-3.057.035-.045.087-.073.143-.096z"/><path d="m55.524 11.039c.41.511.238 1.403.238 2.245.001 10.671.096 21.329.096 31.76 0 .815.016 1.632.048 2.436.028.709.076 1.494-.191 2.149-.844-.306-1.131-1.094-1.862-1.624-1.505-1.091-3.897-1.844-6.351-1.242-1.401.343-2.64 1.227-3.487 2.149-.222.242-.451.653-.908.621-.382-.619-.114-1.506-.095-2.292.039-1.608.15-3.222.287-4.872.08-.962.179-1.951.048-2.817-.233-1.541-.937-2.828-1.767-3.869-.969-1.214-2.749-2.103-4.489-2.34-3.295-.45-5.79 1.594-7.928 2.866-.379.225-.774.441-1.146.668-.361.22-.721.625-1.194.525-.562-.302-.516-1.629-.334-2.149.19-.544 1.215-1.114 1.767-1.433 1.986-1.146 4.052-2.391 5.922-3.534 2.786-1.703 5.696-2.92 7.594-5.063.497-1.212 1.285-2.211 1.433-3.725.069-.708-.123-1.375.144-2.006.289-.685 1.779-1.385 2.483-1.815 2.66-1.624 5.398-3.305 7.928-4.919.546-.553 1.062-1.135 1.576-1.72.127.006.093-.078.188.001z"/><path d="m42.916 11.517c.512.068.95.827 1.385 1.194.901.76 2.083 1.327 3.439 1.576.414.076.97-.04 1.29.382-.1.615-.799.83-1.242 1.099-.954.577-1.851 1.18-2.818 1.815-.471.309-.988.659-1.576.716-.509-.425-.413-1.343-.477-2.149-.109-1.348-.266-3.013-.143-4.489.025-.07.073-.118.142-.144z"/><path d="m28.636 11.66c.656-.12.328 1.651.287 2.149-.065.774-.109 1.696-.143 2.436-.086 1.83-.315 3.291-.191 4.919.273 3.593 3.007 6.225 6.065 6.83.478.094 1.019-.083 1.337.334-.009.566-.646.692-1.003.907-1.164.702-2.343 1.416-3.534 2.149-1.566.964-3.208 1.842-4.728 2.818-1.45.931-3.088 1.988-5.11 2.483-2.048.502-4.479-.119-5.588-1.576-.115-4.583-.162-9.887-.095-14.71.63-1.049 1.956-1.621 3.056-2.245 1.101-.624 2.212-1.348 3.248-2.054 1.623-1.104 3.334-1.942 4.871-3.104.544-.41.988-.884 1.528-1.336z"/><path d="m34.988 13.666c1.777-.213 3.458.283 4.585 1.003.942.601 1.886 1.662 2.245 2.436.143.308.167.719.287 1.098.274.873.519 1.998.382 3.343-.065.642-.413 1.837-.668 2.436-.502 1.174-1.917 2.366-3.057 2.913-4.463 2.141-9.91-1.62-9.504-6.973.122-1.614.798-2.873 1.433-3.726.487-.655 1.166-1.31 1.863-1.719.602-.354 1.324-.677 2.434-.811z"/><path d="m35.227 33.916c2.943-.305 5.415 1.243 6.4 2.818.961 1.538 1.464 3.71.907 5.779-.706 2.618-2.837 4.921-6.065 5.015-3.609.104-6.63-2.496-7.021-6.161-.257-2.412.616-4.187 1.815-5.444.871-.916 2.406-1.846 3.964-2.007z"/><path d="m29.353 37.211c.062.892-.487 1.643-.573 2.77-.116 1.51.096 3.273.143 4.967.022.798.057 1.633.143 2.388.086.749.318 1.582-.048 2.197-.58.066-.767-.663-1.242-.86-1.247-1.181-2.723-1.779-4.681-1.91-2.465-.166-4.46 1.107-5.635 2.34-.229.24-.7 1.267-1.099 1.194-.415-.076-.287-1.777-.287-2.483 0-1.054-.226-1.92.048-2.627.174-.45.917-.88 1.433-1.194 1.627-.99 3.161-2.01 4.776-2.961 1.204-.709 2.266-1.274 3.248-1.911 1.064-.689 2.089-1.332 3.248-1.91.096-.048.382-.178.526 0z"/><path d="m29.877 45.092c.672.072.983.805 1.48 1.241.837.734 2.237 1.427 3.295 1.624.406.076 1.264-.003 1.337.43.081.481-.929.845-1.242 1.051-.913.601-1.897 1.197-2.818 1.767-.447.277-.906.698-1.576.716-.529-.352-.335-.956-.335-1.576 0-1.616-.488-3.6-.286-5.11.029-.069.077-.117.145-.143z"/><path d="m51.99 61.186c-.017.458-.548.623-.86.812-2.481 1.502-5.059 3.163-7.593 4.681-1.524.912-2.815 1.748-4.346 2.674-1.408.852-3.062 1.841-5.11 1.863-4.294.045-7.626-3.43-7.785-7.642-.031-.827.075-1.579.096-2.388.185-.695.856-.963 1.337-1.385 1.547-1.353 2.812-3.658 2.579-6.686.729-.913 1.858-1.425 2.866-2.006 1.026-.591 2.05-1.201 3.057-1.815 2.017-1.231 4.2-2.252 5.636-4.06.778-.524.553 1.264.525 2.006-.08 2.136-.447 4.909-.43 7.021.019 2.278 1.281 4.275 2.579 5.397 1.352 1.168 3.323 1.932 5.492 1.767.619-.047 1.205-.331 1.957-.239z"/><path d="m48.981 47.24c3.525-.19 6.099 2.076 6.877 4.919.853 3.115-.603 5.851-2.436 7.26-.492.378-1.057.786-1.624 1.002-2.914 1.117-6.123-.148-7.641-2.005-.904-1.106-1.704-2.877-1.576-4.824.157-2.391 1.403-4.122 3.008-5.253.951-.67 2.065-1.027 3.392-1.099z"/><path d="m22.57 47.384c1.775-.096 3.747.812 4.681 1.576 1.327 1.085 2.435 3.2 2.435 5.492 0 1.855-.869 3.49-1.91 4.537-.87.875-2.298 1.699-3.678 1.958-1.407.265-3.053-.044-4.203-.621-2.297-1.152-4.566-4.434-3.487-8.071.182-.61.467-1.051.717-1.48.98-1.686 2.77-3.246 5.445-3.391z"/></g></svg>