<svg enable-background="new 0 0 79.956 79.468" viewBox="0 0 79.956 79.468" xmlns="http://www.w3.org/2000/svg"><path clip-rule="evenodd" d="m13.188 68.993c-3.972-3.542-7.295-7.734-9.559-12.889-2.145-4.888-3.982-11.685-3.571-18.681.267-4.545 1.295-8.642 2.654-12.261.693-1.846 1.416-3.558 2.317-5.165.887-1.581 1.946-3.01 3.041-4.441 4.287-5.603 9.938-10.001 17.04-12.792 3.643-1.432 7.815-2.41 12.405-2.704 4.132-.264 8.021.378 11.296 1.159 5.124 1.222 9.179 3.155 13.033 5.648 2.556 1.652 4.706 3.533 6.759 5.696 2.997 3.157 5.647 6.757 7.627 11.006 2.533 5.435 4.427 12.904 3.477 20.95-1.299 10.999-5.971 18.654-12.6 24.715-3.261 2.981-7.007 5.42-11.44 7.241-4.324 1.776-9.584 2.993-15.64 2.993-3.967 0-7.571-.668-10.91-1.544-3.246-.852-6.062-2.269-8.736-3.717-2.669-1.445-4.978-3.321-7.193-5.214zm26.018-67.147c-.943.332-1.656 1.069-2.414 1.642-2.315 1.747-4.665 3.809-6.372 5.792-2.377 2.761-4.692 6.543-5.116 11.151-.121 1.313-.096 2.602.048 3.813.69 5.829 3.761 9.979 8.109 12.164 1.755.882 3.948 1.69 6.469 1.69 2.599 0 4.64-.745 6.42-1.69 1.68-.891 3.256-2.261 4.393-3.717 2.411-3.086 3.838-7.724 3.041-12.744-.649-4.096-3.122-8.021-5.454-10.765-1.168-1.374-2.359-2.649-4.055-4.055-1.07-.887-2.293-1.717-3.525-2.559-.482-.33-.891-.776-1.399-.724-.042.007-.106-.011-.145.002zm-29.59 13.227c-2.266 2.707-4.061 5.609-5.552 8.93-.491 1.095-.812 2.338-1.206 3.621-.387 1.257-.831 2.538-1.063 3.765-.528 2.799-.82 5.67-.821 8.786 0 3.05.436 5.941 1.111 8.544.661 2.552 1.375 5.079 2.462 7.241 1.62 3.224 3.439 6.049 5.744 8.737.613.715 1.62 2.191 2.558 2.317.589.08 1.132-.729 1.447-1.062.451-.475.801-.78 1.159-1.303 1.465-1.483 2.641-3.36 3.813-5.31 2.375-3.949 3.946-7.974 4.73-13.613.375-2.695.569-5.678.145-8.544-.793-5.356-1.905-9.986-4.103-14.241-1.482-2.87-3.559-5.668-5.552-8.206-.61-.777-1.689-2.322-2.414-2.221-.753.456-1.681 1.631-2.458 2.559zm68.111 35.142c1.13-4.532 1.654-9.949.869-15.351-.734-5.043-2.219-9.025-4.248-12.84-1.465-2.752-3.176-5.28-5.262-7.53-.792-.855-1.841-2.603-2.944-1.689-.704.582-1.362 1.641-2.027 2.462-2.07 2.555-3.828 5.231-5.165 8.351-.859 2.003-1.748 4.263-2.221 6.758-.487 2.57-.989 5.25-1.11 7.917-.259 5.692 1.192 10.89 2.703 15.206 1.349 3.853 3.539 7.11 5.841 9.944.805.991 1.263 1.553 2.172 2.462.303.303.87 1.068 1.352 1.062.499-.006.975-.748 1.304-1.11 1.229-1.351 2.343-2.547 3.282-4.055 2.174-3.223 4.335-7.1 5.454-11.587zm-31.425-6.613c-1.686-.905-3.937-1.712-6.469-1.593-2.585.122-4.614.827-6.42 1.834-1.68.937-3.272 2.165-4.441 3.668-2.333 3.001-3.991 7.427-3.089 12.551 1.147 6.519 5.462 11.005 9.799 14.481.749.601 1.525 1.176 2.317 1.738s1.525 1.368 2.559 1.496c.989-.279 1.777-.928 2.51-1.496.75-.582 1.483-1.189 2.172-1.835 2.583-2.237 5.076-5.043 6.854-8.206 1.768-3.142 3-7.767 1.979-12.309-.607-2.705-1.799-5.025-3.331-6.758-1.288-1.331-2.672-2.622-4.44-3.571z" fill-rule="evenodd"/></svg>