<svg enable-background="new 0 0 73.906 75.202" viewBox="0 0 73.906 75.202" xmlns="http://www.w3.org/2000/svg"><path clip-rule="evenodd" d="m18.986.113c.619 1.225.887 2.561 1.351 3.813.455 1.225 1.059 2.399 1.593 3.572 2.157 4.729 4.52 9.062 8.061 12.599.795.793 1.844 1.544 2.993 2.172 1.132.618 2.636 1.155 4.055 1.062 2.841-.186 5.116-1.964 6.807-3.524 4.889-4.512 7.983-10.97 10.571-17.764.234-.617.328-1.291.724-1.834 5.98-.07 12.367-.167 18.634 0 .142 12.544.159 25.021.096 37.41-.063 12.474.149 24.682-.096 37.411-1.416.262-3.048.145-4.683.145-4.694 0-9.638.027-14.24-.096-.597-1.222-.977-2.522-1.448-3.766-1.439-3.794-3.178-7.168-5.117-10.475-1.245-2.125-2.718-4.051-4.586-5.793-1.721-1.605-3.868-3.384-6.854-3.524-2.951-.138-5.545 1.683-7.144 3.283-1.776 1.776-3.265 3.809-4.538 5.841-2.013 3.211-3.642 6.725-5.068 10.524-.467 1.243-.787 2.561-1.4 3.765-5.308.087-11.125.049-16.412.048-.729 0-1.495.112-2.172-.145-.119-23.416-.099-46.64-.097-70.186 0-.787-.035-1.574 0-2.365.031-.71-.041-1.482.193-2.172 1.242-.172 3.397-.097 4.924-.097 4.54 0 9.287.045 13.853.096zm44.796 3.476c-2.292 6.742-5.134 13.161-9.026 18.247-2.076 2.712-4.247 5.265-7.192 7.337-2.066 1.455-4.492 2.784-7.482 3.379-3.317.661-6.761.053-9.364-.869-3.55-1.256-6.158-3.6-8.544-5.986-1.257-1.256-2.258-2.625-3.283-4.006-4.174-5.622-6.885-12.513-9.22-19.84-.032 0-.064 0-.097 0 0-.113-.132.018-.097.096-.175 2.88-.097 6.047-.096 9.124.002 20.473-.084 41.086.096 61.499.597-.732.788-1.695 1.062-2.559.288-.907.631-1.771.965-2.655 2.008-5.3 4.425-10.166 7.434-14.385 1.522-1.985 3.237-3.983 5.214-5.696 1.964-1.701 4.011-3.375 6.613-4.296 2.83-1.001 6.331-1.37 9.462-.676 2.848.631 5.439 1.912 7.434 3.475 6.077 4.766 10.361 11.579 13.516 19.212.813 1.967 1.537 4.006 2.269 5.937.237.624.423 1.343.918 1.834.258-23.259.146-47.373.048-70.235-.366.202-.507.702-.63 1.063z" fill-rule="evenodd"/></svg>