<svg enable-background="new 0 0 80.885 70.642" viewBox="0 0 80.885 70.642" xmlns="http://www.w3.org/2000/svg"><path clip-rule="evenodd" d="m42.267.205c-.134 1.964-.516 3.892-.821 5.841-.909 5.808-2.015 11.605-2.703 17.475.354.277 1.292.217 1.834.145.351-.325.364-.876.435-1.303 1.048-6.331 2.088-12.9 3.138-19.309.154-.941.183-1.95.627-2.8.987.107 2.104.084 2.848.435-.096 1.926-.55 3.834-.821 5.744-.538 3.802-1.273 7.604-1.834 11.441-.14.957-.31 1.901-.483 2.848-.167.912-.342 1.868-.289 2.8.375.301 1.277.075 1.882.145.43-.812.484-1.79.627-2.703.895-5.71 1.787-11.489 2.8-17.137.164-.912.176-1.866.579-2.703.931.074 2.106.302 2.848.724-.063 1.842-.439 3.649-.724 5.455-.561 3.551-1.239 7.127-1.786 10.765-.273 1.816-.585 3.62-.724 5.455.386.266 1.395.138 1.931.097.606-1.633.653-3.445.965-5.213.774-4.386 1.52-8.792 2.221-13.227.133-.84.198-1.749.579-2.51 1.043.18 1.877.569 2.655 1.013-.071 1.683-.38 3.349-.676 4.972-.598 3.269-1.096 6.516-1.642 9.848-.271 1.659-.639 3.333-.579 5.068.435.155 1.447.155 1.883 0 .296-.703.396-1.507.53-2.268.409-2.316.677-4.793 1.11-7.193.425-2.349.89-4.623 1.255-7.047.112-.742.113-1.574.531-2.221.876.194 1.666.71 2.414 1.159 2.253 1.352 4.448 2.871 6.372 4.586 3.138 2.793 5.954 6.16 8.061 10.185 2.1 4.01 3.622 8.756 3.572 14.578-.099 11.606-5.437 18.969-11.633 24.764-3.938 3.293-8.416 6.187-13.854 8.013-1.805.606-3.682 1.304-5.744 1.448.101-1.966.499-3.891.82-5.793.961-5.677 2.125-11.317 2.896-17.233-.371-.257-1.317-.141-1.834-.097-.581.787-.541 1.856-.724 2.8-.19.979-.427 1.952-.579 2.945-.914 5.975-2.042 12.088-3.138 17.86-.856.257-2.039.434-3.089.338-.022-1.024.197-2.038.386-3.041.926-4.906 1.8-9.832 2.559-14.82.301-1.982.819-3.954.869-5.985-.456-.249-1.339-.134-1.883-.048-.41.899-.482 1.919-.676 2.896-.588 2.97-.996 6.097-1.545 9.171-.538 3.015-1.114 6.008-1.641 9.075-.172.998-.168 2.043-.628 2.944-.93.088-2.174.087-2.993-.096.082-2.043.552-4.039.869-6.034.316-1.994.741-3.958 1.062-5.938.324-2 .652-3.992 1.014-5.986.356-1.96.776-3.932.917-5.937-.362-.269-1.371-.138-1.883-.097-.337.357-.358.898-.434 1.352-1.086 6.502-2.26 13.049-3.379 19.646-.164.969-.309 1.96-.676 2.848-.912.006-2.142-.075-2.848-.435.463-3.922 1.181-7.785 1.882-11.633.704-3.866 1.349-7.729 1.931-11.682-.391-.245-1.515-.189-1.979-.048-.335.903-.399 1.892-.579 2.848-.883 4.682-1.657 9.713-2.51 14.481-.345 1.927-.617 3.84-1.159 5.648-1.107-.116-2.14-.305-2.896-.772.704-5.56 1.913-11.014 2.751-16.654.275-1.852.852-3.659.82-5.551-.487-.163-1.537-.147-2.027 0-.458 1.712-.748 3.511-1.062 5.309-.629 3.602-1.16 7.271-1.882 10.861-.271 1.344-.441 2.678-.724 4.055-.08.391-.022.89-.338 1.207-.963-.116-2.015-.559-2.751-1.062.357-3.393 1.083-6.788 1.641-10.186.56-3.406 1.181-6.782 1.642-10.137-.372-.264-1.362-.139-1.883-.097-.374.706-.41 1.523-.58 2.317-.844 3.95-1.376 8.251-2.124 12.261-.154.825-.284 1.65-.435 2.462-.144.777-.188 1.603-.531 2.317-.901-.14-1.66-.724-2.413-1.159-2.248-1.298-4.404-2.898-6.323-4.586-2.554-2.245-4.848-4.9-6.662-7.869-1.791-2.931-3.421-6.364-4.248-10.33-.832-3.99-.918-8.73 0-13.082 1.617-7.667 5.968-13.759 10.91-18.199 2.581-2.318 5.482-4.376 8.689-5.889 1.636-.772 3.286-1.578 5.117-2.172 1.785-.581 3.649-1.255 5.696-1.448.119.941-.134 1.874-.29 2.8-.763 4.535-1.524 9.372-2.269 13.999-.299 1.86-.642 3.727-.772 5.6.3.384 1.427.261 1.931.145.503-1.843.722-3.767 1.062-5.696 1.015-5.748 1.771-11.69 2.896-17.33.799-.262 2.111-.475 2.993-.338-.102 1.973-.456 3.91-.772 5.841-.934 5.703-1.925 11.481-2.751 17.378.369.351 1.484.171 2.076.145.373-.89.468-1.879.627-2.848.968-5.895 1.957-11.992 2.896-17.957.15-.951.22-1.938.628-2.8.909-.06 2.23-.143 2.946.146z" fill-rule="evenodd"/></svg>