<svg enable-background="new 0 0 79.423 77.1" viewBox="0 0 79.423 77.1" xmlns="http://www.w3.org/2000/svg"><path clip-rule="evenodd" d="m48.098 63.393c-5.229-.037-10.904-.153-15.993 0-.394.632-.411 1.376-.597 2.037-1.297 4.618-4.242 8.232-8.345 10.082-2.552 1.151-5.571 1.857-8.741 1.49-3.02-.35-5.423-1.54-7.5-2.98-2.159-1.497-3.643-3.267-4.967-5.562-1.312-2.279-2.091-5.176-1.936-8.543.143-3.128 1.294-5.773 2.731-7.798 1.449-2.042 3.342-3.683 5.612-4.868 2.479-1.293 5.318-1.636 7.798-2.732 2.323-1.026 4.214-2.783 5.712-4.817 1.494-2.029 2.674-4.426 2.832-7.699.084-1.757-.168-3.35-.547-4.718-.369-1.332-1.021-2.466-1.441-3.775-.899-2.805-1.195-6.251-.596-9.238 1.129-5.629 4.58-9.62 8.841-12.169 2.259-1.351 5.053-1.93 8.394-2.086 4.877-.227 9.069 1.9 11.672 4.073 2.853 2.38 5.038 5.444 6.06 9.536.564 2.261.593 4.86.248 7.252-.312 2.17-1.192 4.131-1.688 6.109-1.178 4.695-.067 9.619 2.136 12.467 1.677 2.6 4.136 4.556 7.351 5.662 1.729.596 3.429.908 4.967 1.54.702.289 1.428.76 2.086 1.192 3.205 2.102 5.691 5.135 6.804 9.437.913 3.529.313 7.877-1.191 10.778-1.495 2.883-3.584 4.914-6.357 6.656-2.635 1.654-6.43 2.584-10.53 1.837-1.718-.312-3.265-1.018-4.718-1.788-3.474-1.84-6.02-4.937-7.401-8.841-.282-.794-.363-1.675-.696-2.534zm-1.639-21.605c-1.183-1.596-2.714-3.014-4.519-4.122-.762-.467-1.784-1.121-2.683-.844-.982.302-2.268 1.145-3.129 1.788-2.894 2.16-5.473 6.222-5.762 10.977-.058.949-.104 2.025.199 3.03 1.461.27 3.041.149 4.619.149 4.691 0 9.719.22 14.205-.099.65-4.529-.841-8.06-2.93-10.879z" fill-rule="evenodd"/></svg>