<svg enable-background="new 0 0 76.595 73.753" viewBox="0 0 76.595 73.753" xmlns="http://www.w3.org/2000/svg"><g clip-rule="evenodd" fill-rule="evenodd"><path d="m31.334 10.737c.256-.777.142-1.701.142-2.603.001-1.77 0-3.676 0-5.491.001-.897-.004-1.762.143-2.508 5.419-.164 11.527-.095 17.371-.095.85 0 1.768-.115 2.414.047.733.184 1.654 1.465 2.178 1.988 2.149 2.15 4.114 4.084 6.2 6.248.76 1.087 1.979 1.714 2.556 2.982-5.463.263-11.321.031-16.708.189-.315.604-.189 1.36-.189 2.036.001 4.916.072 10.137-.143 14.91-4.349.157-9.375.158-13.773 0-.283-5.412.094-11.485-.189-16.897-5.433-.144-11.586-.179-16.945 0-.256 1.034-.142 2.117-.142 3.171-.001 16.061-.103 32.507-.095 48.374-.804-.331-1.301-1.064-1.894-1.657-4.07-4.069-8.294-8.156-12.26-12.402.045-16.324-.051-32.427.142-48.848 6.662-.173 13.901-.107 20.543-.094 1.884 1.664 3.553 3.55 5.301 5.349.879.904 1.787 1.78 2.65 2.698.852.904 1.637 1.912 2.698 2.603z"/><path d="m62.81 11.683c.04-.009.045.018.047.047 3.566 3.323 6.905 6.858 10.366 10.319 1.137 1.136 2.385 2.217 3.313 3.55.09 6.391.047 12.786.048 18.981 0 7.343-.129 14.805 0 22.578.035 2.179-.023 4.335-.19 6.437-6.672.323-13.712.03-20.4.142-1.82-1.633-3.545-3.367-5.253-5.112-1.286-1.313-2.566-2.614-3.882-3.929-.425-.424-.776-.975-1.373-1.184-.351 1.583-.016 3.38-.094 5.112-.038.821-.048 1.68-.048 2.508 0 .866.108 1.74-.142 2.509-6.722.221-13.853.032-20.732.095-3.053-3.003-5.895-6.228-9.088-9.135-.429-.391-.928-.85-1.136-1.42 5.633-.062 11.517.125 16.992-.095.255-3.945.143-8.535.143-12.78 0-1.43-.082-2.807.142-4.071 3.276-.146 6.878-.161 10.413-.142 1.139.006 2.274-.096 3.314.142.287 3.904.025 8.339.095 12.638.022 1.42-.128 2.838.142 4.165.614.186 1.296.095 1.988.095 4.887 0 10.026.043 15.005-.047.257-.923.142-2 .142-3.124-.001-3.236-.048-6.394-.047-9.609.001-11.928.05-23.297.047-35.405 0-.462.03-1.022.048-1.562.019-.607-.082-1.148 0-1.562.025-.067.072-.114.14-.141z"/></g></svg>