<svg enable-background="new 0 0 68.249 71.232" viewBox="0 0 68.249 71.232" xmlns="http://www.w3.org/2000/svg"><g clip-rule="evenodd" fill-rule="evenodd"><path d="m20.318.12c.294 4.443-.078 9.079.203 13.464.493.29 1.606.242 2.227.102.269-1.021.151-2.168.152-3.29.002-2.305-.08-4.642 0-6.884.04-1.147-.123-2.269.1-3.291 6.844-.046 13.773-.212 20.752.051 2.307.087 4.47.049 6.529.456 7.555 1.493 12.903 6.023 15.842 12.198 1.507 3.166 2.522 7.62 1.974 11.742-.549 4.132-1.809 7.477-3.796 10.225-2.971 4.107-6.793 7.07-12.401 8.655-1.834.518-3.961.822-6.175.607-.347-.537-.203-1.482-.203-2.328 0-.87-.066-1.77.101-2.429 1.806-.144 3.414-.25 4.91-.607 4.362-1.043 7.488-3.516 9.718-6.782 1.5-2.198 2.612-4.664 2.986-8.049.357-3.232-.402-6.455-1.67-9.11-2.212-4.632-6.661-8.46-12.704-9.313-3.342-.472-6.931-.303-10.579-.304-2.524 0-5.363.004-8.099-.051-.629-.012-2.162-.233-2.531.101-.422.383-.203 2.379-.203 3.29 0 2.45.009 4.546.051 6.731.021 1.11.066 2.203-.203 3.139-3.648.16-7.729.111-11.591.051-.214-5.688-.101-10.72-.101-16.197 0-.729-.121-1.532.152-2.227 1.393-.052 3.253-.149 4.559.05z"/><path d="m4.577.171c.292 14.606-.092 28.886.253 43.023 3.253.166 7.299.18 10.629 0 .273-.996.152-2.128.152-3.239 0-3.218-.083-6.822.101-9.921 3.674-.155 7.974-.3 11.692 0 .253 6.175.152 13.793.152 20.55 0 2.126.126 3.854-1.518 4.352-1.176.358-2.888.103-4.353.102-1.478 0-2.883.144-4.201-.051-.166-1.293-.168-3.263 0-4.556 1.472-.282 3.592.084 5.062-.202.268-.57.152-1.233.152-1.872 0-4.449.084-9.419-.101-13.767-.431-.262-1.565-.186-2.075-.051-.268 1.017-.152 2.162-.152 3.29 0 3.268.083 6.924-.101 10.072-6.351.278-13.68.169-20.094.102-.257-7.69-.152-15.559-.152-23.739 0-6.907 0-14.064 0-21.207 0-.84-.105-2.627.152-2.886.035-.047.09-.077.15-.101 1.387.064 3.031-.13 4.252.101z"/><path d="m45.423 28.212c-.286-1.261-.176-3.502-.051-4.758.574-.438 1.943-.082 1.923-1.113-.006-.855-.567-1.06-1.519-1.113-.675-.037-2.097-.136-2.429.151-.351.304-.203 1.938-.203 2.986 0 3.201.026 6.753-.051 9.718-.055 2.119.151 4.322.051 6.429-.291 6.108.693 13.595-.962 18.525-.792 2.36-2.014 4.564-3.594 6.275-.529.574-1.005 1.241-1.518 1.722-2.046 1.914-4.847 3.164-8.25 3.847-2.54.509-5.624.303-8.706.304-.935 0-1.898.158-2.784-.102-.052-1.455-.148-3.386.051-4.758 2.178-.259 4.515-.124 6.732-.101 2.359.023 4.335-.177 6.124-.861 1.649-.63 3.011-1.537 4.252-2.732 1.724-1.66 2.808-3.663 3.442-6.429.331-1.443.304-3.099.304-4.859 0-10.058-.051-20.261-.051-30.521 0-.854.016-1.748 0-2.581-.013-.698-.202-1.544.304-2.126 1.156-.086 2.917-.008 4.454 0 1.565.008 3.221-.057 4.302.101 2.432.356 4.264 2.061 4.91 3.999.272.817.268 1.874.253 2.986-.224.893-.498 1.749-.962 2.481-1.124 1.774-3.402 3.024-6.022 2.53z"/></g></svg>