<svg enable-background="new 0 0 79.427 64.591" viewBox="0 0 79.427 64.591" xmlns="http://www.w3.org/2000/svg"><g clip-rule="evenodd" fill-rule="evenodd"><path d="m34.52.099c.277 1.534.099 3.138.099 4.738-.002 4.531-.047 9.394.098 14.163 1.432.285 3.199.197 4.886.197 1.721 0 3.456.077 4.984-.099.335-6.255-.061-12.746.247-18.902 1.4-.264 2.872-.148 4.293-.148 9.174 0 18.641.049 28.18.049.667 0 1.389-.112 2.023.148.111 5.371 0 10.792 0 16.187 0 5.365.218 10.764 0 15.94-.109 2.606.098 5.231 0 7.896-.097 2.641.049 5.353.05 8.044.001 5.407.115 10.807-.099 16.138-11.141.287-23.065.057-34.447-.049-.18-5.211-.1-11.042-.099-16.631 0-.72.104-1.971-.148-2.221-.254-.25-1.774-.099-2.369-.099-2.572 0-5.179-.098-7.402.049-.211.685-.2 1.465-.197 2.221.012 3.842.05 8.053.05 12.042-.001 1.587.118 3.178-.148 4.639-10.231.208-21.817-.001-32.375 0-.656 0-1.345.109-1.974-.099-.158-16.41-.152-31.945-.149-48.411.001-4.046-.052-7.631 0-12.042.007-.543-.021-1.174 0-1.875.019-.592 0-1.782.197-1.875.036-.046.09-.075.148-.099 11.791.009 22.675-.029 34.152.099zm-31.536 2.714c-.288.473-.242 1.098-.246 1.628-.015 1.817.001 3.589 0 5.379-.012 12.306.051 24.576.048 36.965-.001 4.995-.1 10.068.148 14.805 4.554.349 9.476.004 14.262.148 4.948.149 9.928-.03 14.807-.099.179-4.554.099-9.689.098-14.361 0-1.576-.173-3.113.1-4.541 4.826-.137 10.32-.092 15.15.049.277 6.195-.069 13.023.197 18.853 1.131.302 2.336.075 3.504.099 8.649.171 17.282.146 25.515 0 .263-1.162.148-2.376.148-3.554-.001-3.819.068-7.324 0-10.906-.279-14.498.2-29.89-.148-44.318-8.334-.083-17.315-.148-25.465-.148-1.194 0-2.404-.114-3.554.148-.205 1.475-.098 3.047-.098 4.64 0 3.965-.049 7.906-.049 11.943 0 .77.118 1.598-.148 2.32-4.442.192-8.934.049-13.275.049-.62 0-1.269.114-1.826-.148-.298-6.143.103-12.798-.197-18.852-10.06-.194-19.184-.132-28.971-.099z"/><path d="m11.522 5.182c.169 1.972.143 4.695.05 6.465-1.988.178-4.366.169-6.367 0-.173-.947-.099-2.144-.099-3.307 0-1.132-.149-2.38.197-3.208 1.961-.005 4.483-.071 6.219.05z"/><path d="m20.504 5.231c.256.336.116.766.099 1.184-.075 1.696.247 3.76-.099 5.281-1.807.093-4.305.075-6.268 0-.221-1.947-.2-4.352-.05-6.465.136-.068.339-.146.493-.148 1.736-.018 4.098.023 5.825.148z"/><path d="m29.535 5.281c.05 2.009.146 4.488-.05 6.416-1.88.163-4.437.164-6.317 0-.176-.944-.099-2.128-.099-3.257.001-1.145-.117-2.316.148-3.207.676-.172 2.164-.099 3.356-.099 1.128-.002 2.224-.108 2.962.147z"/><path d="m56.332 5.281c.147 1.962.191 4.635 0 6.465-2.079.081-4.265.173-6.316-.049-.201-1.045-.07-2.268-.099-3.405-.027-1.054-.224-2.257.147-3.109 2.202-.052 4.421-.136 6.268.098z"/><path d="m59.195 5.182c1.962.092 4.377-.189 6.169.148.025 2.079.197 4.52-.049 6.415-1.881.149-4.51.203-6.317-.049-.175-1.282-.099-3.214-.099-4.886 0-.534-.072-1.332.148-1.53.036-.046.09-.074.148-.098z"/><path d="m74.149 5.281c.186.899.142 2.063.147 3.208.007 1.148.076 2.352-.147 3.307-1.94.146-4.257.162-6.12 0-.26-.896-.147-2.123-.147-3.307 0-1.126-.149-2.396.197-3.208 1.91-.082 4.16-.083 6.07 0z"/><path d="m11.572 14.904c.081 1.993.082 4.325 0 6.317-.902.26-2.12.148-3.258.148-1.118 0-2.28.071-3.109-.148-.167-2.001-.184-4.391 0-6.366 1.314-.186 2.734-.045 4.097-.049.752-.003 1.585-.196 2.27.098z"/><path d="m20.504 14.904c.163 1.896.163 4.471 0 6.367-1.881.165-4.437.162-6.317 0-.162-1.899-.165-4.468 0-6.367 1.979-.173 4.35-.184 6.317 0z"/><path d="m29.486 14.904c.161 1.899.166 4.469 0 6.367-.502.216-1.099.101-1.728.099-1.545-.005-3.343.172-4.59-.099-.163-1.896-.163-4.471 0-6.367 1.881-.165 4.437-.162 6.318 0z"/><path d="m56.332 14.954c.162 1.898.166 4.469 0 6.366-1.895.195-4.564.117-6.316 0-.244-.898-.149-2.081-.149-3.257 0-1.132-.143-2.381.197-3.208 2.107-.071 4.305-.086 6.268.099z"/><path d="m65.315 15.003c.164 1.898.163 4.468 0 6.366-1.898.16-4.488.185-6.317-.049-.195-1.894-.1-4.34-.049-6.317.64-.258 2.202-.148 3.405-.148 1.084-.001 2.172-.078 2.961.148z"/><path d="m74.149 14.954c.229 1.472.029 3.399.099 5.034.02.484.167.997-.099 1.382-1.716.186-4.344.119-6.12.049-.263-.893-.147-2.062-.147-3.208 0-1.114-.077-2.28.099-3.208 1.952-.194 4.181-.107 6.168-.049z"/><path d="m11.522 24.379c.229 1.946.166 4.498 0 6.416-1.899.166-4.483.178-6.317-.049-.163-1.899-.163-4.469 0-6.367 1.886-.165 4.43-.16 6.317 0z"/><path d="m20.504 24.379c.249 1.432.047 3.189.099 4.787.018.57.169 1.186-.099 1.678-1.976.082-4.293.082-6.268 0-.258-.899-.149-2.102-.149-3.257 0-1.142-.111-2.323.149-3.208 1.918-.161 4.123-.068 6.268 0z"/><path d="m29.486 24.429c.227 1.974.161 4.432 0 6.416-1.883.165-4.434.162-6.317 0-.163-1.914-.163-4.501 0-6.416 1.881-.164 4.436-.164 6.317 0z"/><path d="m38.32 24.478c.237.855.148 2.054.148 3.207-.001 1.12.095 2.319-.148 3.208-1.806.134-4.265.093-6.119-.049-.314-.932-.093-2.128-.1-3.257-.006-1.117-.247-2.347.149-3.208 1.948-.086 4.234-.09 6.07.099z"/><path d="m56.332 24.478c.196 1.911.101 4.373.05 6.366-1.896.165-4.47.163-6.366 0-.305-1.982-.069-4.385-.049-6.366.877-.267 2.022-.099 3.157-.099 1.107 0 2.273-.079 3.208.099z"/><path d="m47.301 24.478c.246 1.755.238 4.558 0 6.366-1.987.139-4.267.223-6.267.049-.168-1.211-.148-2.709-.148-4.096 0-.828-.111-1.661.148-2.319 1.863-.163 4.406-.165 6.267 0z"/><path d="m65.315 24.527c.136 1.954.216 4.526 0 6.367-1.893.16-4.494.187-6.317-.049-.177-.925-.099-2.096-.099-3.208 0-1.128-.117-2.286.148-3.158 1.883-.168 4.45-.177 6.268.048z"/><path d="m74.149 24.478c.257.902.147 2.059.147 3.207.001 1.112.075 2.277-.098 3.208-1.314.211-2.84.061-4.245.099-.675.018-1.403.183-1.974-.099-.174-.932-.099-2.111-.099-3.257 0-1.123-.144-2.336.197-3.158 1.912-.081 4.162-.083 6.072 0z"/><path d="m11.522 33.954c.219.854.099 1.977.099 3.109 0 1.1.201 2.294-.099 3.208-1.881.165-4.437.163-6.317 0-.173-.929-.099-2.097-.099-3.208 0-1.13-.115-2.279.148-3.159 1.961-.051 4.388-.145 6.268.05z"/><path d="m20.504 33.954c.152.537.147 1.221.147 1.875 0 1.489.037 3.136-.147 4.491-1.976.082-4.293.083-6.268 0-.262-.878-.149-2.07-.149-3.208 0-1.125-.106-2.289.149-3.159 1.912-.193 4.477-.113 6.268.001z"/><path d="m38.368 34.053c.163 1.024.052 2.168.1 3.306.042 1.016.068 2.13-.148 3.011-1.83.143-4.293.088-6.169-.05-.163-1.884-.163-4.433 0-6.317 1.756-.202 4.326-.18 6.217.05z"/><path d="m29.486 34.003c.165 1.879.163 4.438 0 6.317-1.88.163-4.437.165-6.317 0-.195-1.878-.099-4.307-.049-6.267.627-.258 2.19-.148 3.355-.148 1.102-.001 2.163-.079 3.011.098z"/><path d="m47.301 34.003c.27.883.1 2.083.1 3.208 0 1.108.18 2.29-.1 3.159-1.882.162-4.435.165-6.316 0-.173-1.935-.116-4.445 0-6.317 1.804-.166 4.361-.233 6.316-.05z"/><path d="m56.382 34.053c.072 1.881.133 4.386-.05 6.317-1.893.144-4.55.21-6.365-.05-.14-2.041-.162-4.377.049-6.317 1.621-.131 4.699-.223 6.366.05z"/><path d="m65.315 34.053c.163 1.898.163 4.468 0 6.366-2.017.186-4.329.129-6.317-.049-.164-1.88-.162-4.437 0-6.317 1.881-.166 4.435-.162 6.317 0z"/><path d="m74.149 34.053c.261.896.147 2.052.147 3.158.001 1.096 0 2.211-.098 3.159-.86.263-1.997.148-3.11.148-1.081 0-2.212.079-3.108-.099-.176-.927-.099-2.099-.099-3.208 0-1.118-.109-2.237.147-3.109 1.882-.157 4.271-.169 6.121-.049z"/><path d="m11.522 43.429c.246 1.832.203 4.462.05 6.366-1.923.202-4.375.105-6.317 0-.179-1.812-.225-4.309-.05-6.366 1.879-.164 4.437-.164 6.317 0z"/><path d="m20.553 43.478c.059 1.785.208 4.328 0 6.317-1.882.164-4.436.163-6.316 0-.174-.997-.106-2.142-.1-3.257.006-1.079-.238-2.283.148-3.158 1.999-.029 4.558-.196 6.268.098z"/><path d="m29.486 43.478c.136 2.026.21 4.396.05 6.317-1.928.318-4.396.066-6.317.049-.204-1.845-.207-4.384-.05-6.366 1.78-.181 4.404-.152 6.317 0z"/><path d="m56.332 43.478c.179.99.1 2.178.1 3.307 0 1.112.138 2.213-.1 3.06-.946.176-2.117.099-3.257.099-1.105 0-2.238.039-3.059-.148-.178-.941-.099-2.117-.099-3.257 0-1.115-.168-2.292.147-3.109 2.136-.087 4.328-.063 6.268.048z"/><path d="m65.315 43.577c.118 1.992.245 4.542 0 6.317-1.9.208-4.495.095-6.268 0-.237-.394-.099-.864-.099-1.332 0-1.604-.173-3.473.049-5.034 1.607-.131 4.664-.224 6.318.049z"/><path d="m74.149 43.528c.268 1.808.188 4.479.05 6.366-2.005.196-4.282.178-6.17.049-.165-.873-.136-1.978-.147-3.109-.012-1.109-.069-2.296.099-3.257 2.031-.191 4.138-.128 6.168-.049z"/><path d="m11.572 52.954c.188 1.981.112 4.346.049 6.317-1.831.312-4.591.123-6.366.049-.162-1.913-.166-4.503 0-6.416.924-.178 2.098-.099 3.208-.099 1.113.001 2.241-.112 3.109.149z"/><path d="m20.553 52.954c.163 1.897.164 4.47 0 6.366-1.864.166-4.402.162-6.268 0-.264-1.342-.148-3.371-.148-5.034 0-.518-.146-1.147.247-1.431 1.299-.139 3.308-.005 4.787 0 .513.002.986-.183 1.382.099z"/><path d="m29.486 52.954c.278.901.114 2.031.147 3.109.036 1.112.055 2.267-.098 3.257-1.36.314-3.268.102-4.837.099-.533-.001-1.071.186-1.481-.099-.184-2.001-.125-4.368-.05-6.366 1.881-.164 4.439-.164 6.319 0z"/><path d="m56.332 52.954c.268.438.105.952.1 1.48-.02 1.567.191 3.385-.05 4.935-1.845.311-4.466.124-6.366 0-.174-.945-.099-2.13-.099-3.257 0-1.146-.116-2.314.147-3.208 2.013-.101 4.238.006 6.268.05z"/><path d="m65.315 53.003c.222 1.906.211 4.387.049 6.415-.846.244-1.979.099-3.108.099-1.12 0-2.342.113-3.258-.148-.133-1.537-.031-3.238-.049-4.935-.006-.511-.147-1.093.148-1.48 1.983-.089 4.296-.087 6.218.049z"/><path d="m74.199 53.053c.176 2.089.141 4.344.049 6.366-1.77.257-4.372.196-6.219.05-.176-.964-.099-2.181-.098-3.356 0-1.112-.256-2.356.197-3.109 1.895-.05 4.257-.147 6.071.049z"/></g></svg>