<svg enable-background="new 0 0 83.25 50.231" viewBox="0 0 83.25 50.231" xmlns="http://www.w3.org/2000/svg"><path clip-rule="evenodd" d="m71.096 21.343c.941.161 2.518.163 3.458 0 .289-1.076.122-2.381.149-3.606.026-1.193.004-2.424.099-3.557.66.164.808.84 1.187 1.285 2.06 2.69 4.365 5.519 6.472 8.399.287.392.794.914.791 1.334-.004.488-.636 1.081-.938 1.482-1.066 1.41-2.081 2.792-3.163 4.101-1.06 1.361-2.056 2.786-3.161 4.101-.364.427-.531 1.05-1.137 1.235-.292-2.129.094-4.936-.197-7.066-.892-.297-2.506-.125-3.558-.099-.45.906-.527 1.908-.79 2.816-.663 2.286-1.538 4.342-2.669 6.226-.235.394-.373.812-.593 1.186-.901 1.533-2.319 2.849-3.607 4.15-2.536 2.565-5.826 4.531-9.732 5.731-1.99.611-4.225 1.033-6.571.939-.296-6.781.098-14.265-.198-21.097-1.007-.295-2.182-.117-3.31-.099-2.386.039-4.954-.113-7.263.099-.269.823-.148 1.746-.148 2.619 0 6.183.068 12.695-.099 18.675-1.758.142-3.451-.185-4.99-.494-1.507-.303-3.016-.813-4.249-1.433-2.548-1.279-4.878-2.702-6.769-4.545-1.972-1.797-3.628-3.895-4.99-6.324-1.375-2.452-2.152-5.301-2.915-8.399-.969-.172-2.534-.146-3.508 0-.265 1.015-.148 2.292-.148 3.558 0 1.249.079 2.542-.099 3.607-.429-.135-.681-.558-.938-.889-1.844-2.364-3.646-4.896-5.484-7.313-.363-.42-.69-.815-1.087-1.334-.286-.372-.933-.989-.941-1.483-.008-.446.672-1.063.987-1.482 1.027-1.36 2.155-2.981 3.113-4.15 1.094-1.286 2.084-2.787 3.162-4.15.331-.419.654-.994 1.186-1.136.235 2.192-.156 5.031.197 7.065.894.269 2.634.186 3.607.049.468-1.507.718-2.986 1.234-4.446 2.453-6.928 7.02-11.609 13.49-14.675 1.29-.611 2.685-1.081 4.199-1.433 1.521-.354 3.195-.607 4.892-.544.261.812.148 1.707.148 2.569 0 6.039-.173 12.586.049 18.527.772.233 1.647.17 2.521.198 2.537.08 5.465-.122 8.053-.099.372-.831.153-1.858.149-2.816-.029-5.659.049-11.005.05-16.798 0-.592-.142-1.293.197-1.828 6.93.26 12.516 2.931 16.255 6.67 1.271 1.271 2.635 2.599 3.508 4.051.229.382.351.855.593 1.285.618 1.095 1.338 2.363 1.828 3.656.687 1.819 1.073 3.777 1.678 5.682zm-16.651-11.808c-.17.322-.063.915-.049 1.433.014.497-.053 1.034-.05 1.482.061 8.009.05 16.869.05 25 0 1.185-.119 2.344.148 3.31.95-.214 1.713-.908 2.47-1.482 4.388-3.33 8.224-9.5 6.769-17.49-.647-3.549-2.285-6.488-4.298-8.646-1.354-1.545-2.774-3.023-4.941-3.755-.062.02-.101.064-.099.148zm-27.963 1.236c-3.897 3.399-7.163 7.722-7.164 14.624 0 5.654 2.605 10.2 5.683 12.994 1.101 1 2.258 2.082 3.755 2.52.268-1.239.147-2.543.147-3.854-.001-4.019.001-8.045 0-12.055-.001-4.718.108-9.485-.049-13.784-.024-.651.213-1.473-.297-1.73-.669.245-1.483.767-2.075 1.285z" fill-rule="evenodd"/></svg>