<svg enable-background="new 0 0 50.532 82.943" viewBox="0 0 50.532 82.943" xmlns="http://www.w3.org/2000/svg"><path clip-rule="evenodd" d="m49.798 50.484c.16.433.531.658.604 1.158.133.904 0 2.051 0 3.172v3.171c0 2.264.16 4.588.05 6.293-.035.551-.251.982-.503 1.41.059.447.474.714.503 1.258.059 1.08 0 2.342 0 3.625v7.4c0 1.213.209 2.746-.05 3.624-.543 1.846-4.638 1.258-7.048 1.259-6.058 0-12.165.104-17.771 0-2.325-.043-3.81-.05-5.135-.856-2.324-1.413-4.279-3.795-4.279-7.703 0-.888.02-2.019 0-3.021-.027-1.385.25-3.092-.906-3.474-.812-.268-2.247-.05-3.474-.05-2.477 0-4.689-.161-7.199-.05-1.954.086-3.722.207-4.279-1.158-.314-.77-.202-2.318-.202-3.524 0-1.341 0-2.611 0-3.675 0-2.663-.202-5.199 0-7.35.05-.527.272-.672.503-1.108-.74-1.026-.573-2.543-.503-4.279.116-2.912-.05-6.084-.05-9.162 0-3.893 0-7.921 0-12.284-.001-6.593-.05-13.93-.05-21.144 0-1.755-.16-3.009.856-3.624 1.264-.766 4.961-.146 6.695-.301 1.248-.112 3.197.019 4.984 0 2.467-.026 5.456-.447 6.193 1.409.327.824.151 2.546.151 3.775 0 3.429-.076 6.108 0 9.666.012.528-.053 1.387.151 1.661.389.524 2.757.285 3.625.252 1.569-.06 3.017.082 4.027.05 2.563-.081 5.366-.05 7.753-.05 2.751 0 5.593-.082 7.954.05 2.454.138 4.364 1.3 5.639 2.467 1.414 1.294 2.209 3.109 2.315 5.79.204 5.108-.005 10.643.051 15.958.014 1.343.037 2.654 0 3.977-.055 1.95.325 4.239-.605 5.388zm-46.366-46.769c-.351.428-.211 1.649-.201 2.618.116 11.042-.001 21.122 0 31.515 0 2.841.05 5.443.05 8.508 0 .944-.11 2.463.202 2.768.35.343 2.155.201 2.92.201h6.292c.956 0 2.403.218 2.92-.251.561-.509.302-2.683.302-3.927-.001-3.329.049-5.232 0-8.407-.024-1.593-.126-3.051.251-3.927.735-1.704 2.642-1.497 4.934-1.56 2.708-.076 5.337 0 7.954 0 1.329 0 2.726-.122 3.877.1 2.215.429 2.145 2.704 2.014 5.538-.135 2.906 0 5.179 0 8.156 0 1.195-.324 3.329.302 3.876.276.242.983.188 1.359.201 2.499.092 4.811.066 7.552.051.667-.004 2.335.159 2.768-.252.54-.511.252-2.738.252-3.474 0-6.294.162-12.503-.101-18.677-.116-2.726-.616-4.356-2.064-5.487-1.479-1.155-4.024-1.286-6.092-1.258-4.218.055-10.142 0-14.8 0-3.169 0-7.212.557-8.055-1.561-.653-1.641-.402-4.732-.402-7.299 0-1.245.047-2.425.05-3.776.003-1.115.081-3.25-.251-3.675-.383-.49-1.53-.325-2.366-.302-2.879.078-5.389-.123-7.954 0-.501.023-1.36-.126-1.713.301zm40.375 48.481c-2.309 0-4.662-.053-6.847 0-2.254.054-4.396.054-5.034-1.359-.398-.881-.202-2.577-.202-3.876 0-2.81 0-5.57 0-8.256 0-1.361.203-2.737-.302-3.826-1.015-.499-2.48-.302-3.876-.302-1.439 0-2.81-.11-4.078-.05-1.217.057-3.572-.192-4.128.352-.481.472-.341 2.56-.352 3.726-.027 2.84.174 5.443.05 8.105-.058 1.253.238 2.866-.101 3.977-.558 1.833-2.601 1.561-4.934 1.561-2.56 0-4.55 0-7.148 0-.995 0-2.988-.179-3.373.251-.362.404-.202 1.93-.202 2.819 0 2.204-.069 4.075 0 6.091.037 1.054-.124 2.058.202 2.769.995.344 2.174.194 3.373.251 2.21.106 4.504 0 6.947 0 1.193 0 2.503-.173 3.474.101.85.24 1.622.97 1.913 1.711.441 1.127.195 2.777.251 4.279.057 1.504-.082 3.157.151 4.531.278 1.639 1.201 2.985 2.517 3.826 1.297.829 3.314.906 5.688.906h16.261c.837 0 2.707.117 3.07-.251.366-.371.202-1.958.201-2.819 0-2.257.001-4.042 0-6.142 0-1.036.151-2.09-.251-2.819-1.018-.294-2.271-.151-3.574-.151-2.561 0-5.024 0-7.653 0-1.176 0-3.107.171-3.625-.352-.414-.487-.373-1.747-.101-2.366.499-.706 2.528-.553 3.927-.554 2.636 0 4.901.123 7.501.05.916-.025 3.134.134 3.524-.251.375-.371.201-2.086.201-2.819 0-2.131 0-3.915 0-6.041 0-1.042.14-2.114-.201-2.92-.996-.269-2.12-.152-3.269-.152z" fill-rule="evenodd"/></svg>