<svg enable-background="new 0 0 80.615 81.389" viewBox="0 0 80.615 81.389" xmlns="http://www.w3.org/2000/svg"><g clip-rule="evenodd" fill-rule="evenodd"><path d="m20.549.201c.327 13.804-.153 27.297.101 40.763.063 3.403-.2 6.8-.051 10.19.144 3.249.065 6.564 0 9.79-.133 6.674.212 13.387-.101 20.131-.757.215-1.589.1-2.409.1-5.855-.001-12.244.088-17.922-.15-.363-3.321-.009-6.699-.101-10.091-.089-3.309-.05-6.656-.05-9.99-.001-17.152.05-33.466.05-50.803 0-2.477.05-5.116.051-7.631 0-.745-.208-2.129.1-2.41.038-.047.092-.076.152-.1 6.188-.003 11.71.05 17.721.05.824 0 1.672-.105 2.459.151z"/><path d="m80.489.351c.202 3.216.102 6.663.101 10.141 0 3.443.042 6.924-.05 10.241.088 4.985.05 10.06.05 15.11 0 14.918.057 30.174-.15 45.432-10.502.181-21.693.144-32.129-.101.018-.742.529-1.347.854-1.958 3.633-6.827 7.439-13.681 11.095-20.582 1.985-3.749 4.111-7.389 6.074-11.195.662-1.284 1.273-2.558 1.958-3.815 2.03-3.733 3.969-7.501 6.074-11.195.713-1.251 1.267-2.57 1.958-3.815.692-1.247 1.35-2.503 2.008-3.765.652-1.25 1.468-2.429 1.958-3.765-1.116-.271-2.273-.151-3.414-.151-17.536 0-35.342-.118-52.912-.301-.268-.777-.15-1.671-.15-2.51 0-5.268.05-10.327.051-15.512 0-.764-.13-2.126.15-2.41.037-.047.091-.076.15-.101 9.635-.026 18.455.05 28.163.05 9.431.002 18.938-.013 28.161.202z"/><path d="m44.295 81.125c-1.598.272-3.307.15-5.021.151-5.081 0-10.435.024-15.361-.151-.201-18.431-.151-37.492 0-56.526.716-.138 1.745-.134 2.46-.15 6.856-.16 10.903 1.749 13.855 5.12 1.489 1.7 2.778 3.54 3.464 6.024.69 2.501.598 5.397.702 8.735.097 3.073.097 6.209 0 9.287-.095 3.058.093 6.11.051 9.137-.084 6.069.054 12.32-.15 18.373z"/></g></svg>