<svg enable-background="new 0 0 30.688 30.548" viewBox="0 0 30.688 30.548" xmlns="http://www.w3.org/2000/svg"><path d="m27.758.013c.889-.001 1.778-.018 2.667-.012.058 10.07.146 20.142.262 30.213-.887.076-1.781.027-2.671.048-.142-10.08-.234-20.165-.258-30.249z"/><path d="m22.247.076c.932-.012 1.863-.015 2.795-.01.043 10.081.192 20.161.251 30.241-.928.006-1.856.015-2.784.012-.03-4.553-.078-9.104-.145-13.656-4.6.017-9.2.105-13.801.13-.003 4.553.101 9.113.106 13.67-.94.011-1.88.06-2.821.031-.109-10.079-.218-20.158-.266-30.238.937-.065 1.878-.027 2.816-.046.039 4.599.09 9.196.113 13.795 4.606-.029 9.21-.104 13.816-.137.021-4.597-.067-9.195-.08-13.792z"/><path d="m11.186.197c.929-.013 1.856-.063 2.786-.045.014 2.709.007 5.42.062 8.129.865-.007 1.732.001 2.596-.018.198-.01.122-.269.139-.4-.039-2.553-.063-5.107-.06-7.662.933.011 1.866-.029 2.798-.037-.011 3.598.078 7.194.071 10.793-2.762.078-5.529.031-8.291.102-.041-3.621-.074-7.241-.101-10.862z"/><path d="m0 .286c.929 0 1.857-.015 2.786-.013.037 10.082.162 20.164.265 30.247-.928-.014-1.859.061-2.785.011-.101-10.082-.215-20.162-.266-30.245z"/><path d="m11.366 19.511c2.757-.047 5.524-.082 8.278-.079.072 3.633.092 7.268.129 10.902-.932.065-1.868.043-2.802.047.001-2.712-.06-5.421-.081-8.133-.909-.006-1.817.006-2.725.014-.011 2.718.062 5.433.071 8.151-.921.069-1.847.024-2.77.042-.018-3.649-.073-7.296-.1-10.944z"/></svg>