<svg enable-background="new 0 0 65.379 67.989" viewBox="0 0 65.379 67.989" xmlns="http://www.w3.org/2000/svg"><path clip-rule="evenodd" d="m30.07 31.575c1.017.012 1.845-.646 2.508-1.182.679-.551 1.284-1.272 1.751-1.988 2.026-3.109 1.346-8.541 1.373-13.537.014-2.457-.13-4.938.236-7.148.633-3.81 3.598-6.969 7.573-7.432 2.446-.283 4.366.408 6.012 1.326 1.608.896 3.026 1.967 4.544 2.934 1.845 1.068 3.434 2.035 5.159 3.125 1.669 1.055 3.323 2.043 4.497 3.738 1.183 1.709 1.561 3.881 1.561 6.676 0 13.391.025 27.545.095 40.422.028 5.143-3.038 8.316-7.337 9.135-2.612.498-4.917-.41-6.579-1.373-1.852-1.07-3.517-2.174-5.112-3.123-1.687-1.004-3.32-2.047-5.111-3.125-2.679-1.611-4.778-3.383-5.349-7.004-.188-1.192-.142-2.506-.142-3.977 0-2.65-.019-5.383-.143-8.094-.584-.088-1.114.295-1.515.568-2.157 1.463-3.65 3.611-4.022 6.863-.147 1.281.03 2.715 0 4.26-.059 2.938.232 5.84-.237 8.188-.465 2.324-1.629 4.051-3.36 5.35-1.627 1.221-4.182 2.135-6.816 1.703-1.287-.209-2.271-.631-3.219-1.135-.934-.498-1.725-1.15-2.65-1.705-1.799-1.08-3.664-2.08-5.49-3.219-3.562-2.221-7.725-3.871-8.142-9.23-.11-1.412.028-2.828 0-4.26-.199-10.25-.093-20.101-.095-30.197 0-2.94.078-5.785-.047-8.473-.135-2.89.795-4.906 2.177-6.533 1.345-1.58 3.353-2.785 5.774-3.076 2.047-.244 4.189.406 5.49 1.23 3.488 2.211 6.855 4.285 10.319 6.486.683.432 1.422.826 2.082 1.277 2.913 1.99 4.07 4.744 4.071 9.371v6.721c.001 2.155-.102 4.339.144 6.438zm-3.504-.33c-1.428-.908-2.854-1.828-4.26-2.699-2.179-1.523-3.904-3.44-4.307-6.674-.25-2.01-.201-4.541-.096-6.863.072-1.568-.03-3.658-.047-5.254-.006-.617.029-1.52-.709-1.231-2.072.811-3.945 2.932-4.64 5.301-.462 1.578-.253 3.494-.236 5.35.022 2.428-.067 4.916-.095 7.383-.01.922.095 1.846.095 2.793 0 4.906-.089 9.678 0 14.484.085 4.582-.003 9.418.048 14.152.006.576-.144 1.264.236 1.752.873-.002 1.541-.639 2.13-1.137 1.858-1.57 3.066-3.729 3.267-6.863.268-4.207-.611-9.912.615-13.252.895-2.439 2.69-4.27 5.064-5.207 1.214-.48 2.603-.623 4.165-.994-.121-.603-.795-.765-1.23-1.041zm24.471 26.27c.789-.842 1.49-1.875 1.846-3.076.614-2.078.379-5.029.379-7.717-.001-9.385-.046-18.207-.047-27.547-.001-1.768-.098-3.604-.048-5.49.017-.605 0-1.469 0-2.65 0-.652.206-2.453-.331-2.463-.543-.008-1.643.902-2.035 1.232-1.537 1.291-2.79 3.271-3.029 5.68-.239 2.404-.001 5.25 0 8.047 0 2.795.178 5.654 0 8.141-.298 4.162-2.879 6.885-6.201 7.951-1.082.348-2.289.34-3.645.615.07.609.7.656 1.042.994 2.948 1.984 6.286 3.334 7.904 6.627 1.094 2.227.946 5.459.946 8.709 0 .998-.158 2.066.284 2.887 1.17-.208 2.142-1.094 2.935-1.94z" fill-rule="evenodd"/></svg>