<svg enable-background="new 0 0 73.184 66.812" viewBox="0 0 73.184 66.812" xmlns="http://www.w3.org/2000/svg"><g clip-rule="evenodd" fill-rule="evenodd"><path d="m72.915.085c.154 10.952.198 22.277.199 33.201 0 3.728.211 7.452-.1 10.984-.584 6.643-3.585 11.474-7.207 15.259-1.815 1.897-4.041 3.435-6.561 4.672-2.491 1.225-5.392 2.231-8.698 2.387-.271-.624-.142-1.345-.149-1.988-.162-15.561-.2-31.95-.199-47.964 0-5.587-.131-11.097.099-16.452 7.268-.197 15.373-.245 22.616-.099z"/><path d="m22.764 66.638c-7.212.223-15.254.224-22.466.049-.234-3.588-.149-7.248-.149-10.885 0-7.092-.1-14.278-.1-21.77 0-3.676-.162-7.381.1-11.034.238-3.324 1.023-6.338 2.287-8.847 3.086-6.13 7.698-10.829 14.861-12.974 1.491-.446 3.141-.695 4.722-.994.833-.157.608 1.081.596 1.69-.038 1.975.05 4.417.05 6.263 0 13.911.149 27.952.149 41.75 0 5.653.122 11.361-.05 16.752z"/><path d="m25.2 22.104c5.08.378 9.089 2.201 12.327 4.522 4.747 3.405 8.647 8.527 9.891 15.408.437 2.417.348 5.139.348 8.052 0 5.548.162 11.024-.05 16.502-5.057-.455-9.115-2.148-12.376-4.524-4.812-3.505-8.516-8.566-9.841-15.606-.456-2.42-.513-5.017-.447-7.903.123-5.436-.317-11.288 0-16.302.026-.072.076-.122.148-.149z"/></g></svg>