<svg enable-background="new 0 0 77.41 77.653" viewBox="0 0 77.41 77.653" xmlns="http://www.w3.org/2000/svg"><path clip-rule="evenodd" d="m23.281 0c.419-.015.831.492 1.164.825 2.2 2.199 4.517 4.565 6.644 6.693 1.231 1.23 2.619 2.457 3.783 3.831.618.729 1.131 1.276 1.843 1.988.434.434 1.559 1.784 1.989 1.795.514.014 1.698-1.456 2.037-1.795 4.209-4.209 8.199-8.2 12.416-12.416.323-.323.739-.873 1.019-.873.291 0 .794.599 1.067.873 1.981 1.981 3.757 3.756 5.771 5.771.312.312.828.766.825 1.067-.005.376-.58.71-.873 1.019-2.161 2.266-4.445 4.4-6.5 6.693.449.803 1.159 1.401 1.795 2.037 1.554 1.555 3.182 3.134 4.802 4.753.252.252.776.864 1.019.873.232.009.82-.601 1.066-.824 2.278-2.075 4.375-4.513 6.693-6.5.782.505 1.367 1.173 1.989 1.795 1.54 1.54 3.069 3.117 4.704 4.753.311.312.859.811.873 1.019.03.47-1.473 1.715-1.794 2.037-.679.679-1.283 1.381-1.843 1.941-3.483 3.481-6.9 6.947-10.429 10.477-.307.307-.873.72-.873 1.019 0 .268.574.741.873 1.066 2.124 2.312 4.448 4.399 6.645 6.597 1.93 1.931 3.627 3.772 5.626 5.771.252.252.549.611.921.971.367.354.866.769.873 1.019.01.352-.573.767-.873 1.066-.997.997-1.779 1.974-2.764 2.959-.97.969-1.796 1.795-2.862 2.861-.234.234-.757.863-1.019.873-.503.019-1.635-1.496-1.94-1.795-.683-.668-1.402-1.229-1.843-1.843-1.375-1.082-2.318-2.597-3.783-3.589-.782.476-1.373 1.194-1.988 1.843-1.816 1.914-3.879 3.676-5.626 5.724.391.799 1.142 1.336 1.745 1.94 1.816 1.816 3.686 3.676 5.433 5.627-.494.771-1.204 1.398-1.843 2.037-1.889 1.889-3.855 3.795-5.82 5.675-.605-.33-1.074-.881-1.552-1.358-3.305-3.305-6.731-6.663-10.04-10.04-1.027-.889-1.807-1.807-2.862-2.861-.239-.239-.753-.825-1.066-.825-.318 0-.726.55-1.067.873-.994.942-2.029 1.874-2.812 2.862-1.146 1.443-2.61 2.584-3.783 3.783-2.617 2.673-5.096 5.2-7.615 7.518-1.493-1.078-2.58-2.561-3.929-3.783-.969-.932-1.869-1.869-2.91-2.91-.267-.267-.858-.685-.873-1.018-.015-.32.533-.767.825-1.067 2.073-2.135 4.525-4.33 6.401-6.499-.468-.797-1.201-1.348-1.843-1.988-1.562-1.562-3.115-3.163-4.753-4.802-.244-.244-.778-.859-1.018-.873-.465-.028-1.721 1.478-1.988 1.746-.646.646-1.28 1.279-1.844 1.843-1.312 1.312-2.385 2.558-3.783 3.638-.824-.449-1.325-1.273-1.988-1.892-1.961-1.83-3.845-3.841-5.724-5.82.165-.44.564-.742.874-1.067.902-.95 1.891-1.912 2.861-2.861 3.129-3.168 6.795-6.593 10.039-9.991.308-.322 1.355-1.121 1.358-1.504.003-.321-.605-.819-.873-1.066-1.01-.933-1.908-1.949-2.861-2.862-3.323-3.281-6.592-6.641-9.991-10.039-.333-.333-1.346-1.159-1.358-1.504-.012-.334.608-.802.873-1.067 1.957-1.957 3.733-3.677 5.772-5.675.26-.254.768-.864 1.019-.873.247-.008.711.543 1.019.825.974.891 1.818 1.866 2.716 2.765.819.819 1.809 1.759 2.766 2.716.273.274.75.771 1.017.776.308.006.784-.541 1.067-.825 2.223-2.223 4.479-4.327 6.597-6.645-.422-.781-1.135-1.377-1.746-1.988-1.824-1.824-3.722-3.672-5.48-5.626.473-.75 1.165-1.359 1.794-1.989 1.239-1.239 2.457-2.518 3.783-3.734.708-.656 1.313-1.37 2.036-1.946zm7.761 23.185c-2.325 2.165-4.703 4.653-6.984 6.936-.295.294-.936.747-.922 1.115.01.258.554.748.824 1.019 1.641 1.64 3.018 3.018 4.608 4.607.449.45 1.759 1.399 1.746 1.94-.012.46-1.286 1.432-1.746 1.892-1.298 1.296-2.388 2.389-3.687 3.687-.323.323-1.765 1.41-1.746 1.939.01.274.643.853.922 1.115 1.808 1.715 3.364 3.473 5.092 5.093.72.675 1.304 1.488 2.135 1.989 2.025-1.666 3.665-3.712 5.529-5.48.625-.594 1.191-1.301 1.939-1.746 1.975 1.739 3.754 3.704 5.578 5.528.615.616 1.231 1.285 1.988 1.746 2.378-2.296 4.87-4.725 7.227-7.081.301-.3.94-.84.922-1.164-.01-.167-.589-.785-.824-1.018-1.607-1.595-3.146-3.048-4.656-4.56-.617-.617-1.243-1.214-1.746-1.939 1.021-1.437 2.449-2.466 3.589-3.783 1.045-.974 1.774-1.772 2.765-2.765.272-.273.873-.666.873-1.019 0-.301-.632-.826-.922-1.115-2.117-2.118-4.104-3.952-6.159-6.064-.338-.347-.755-.971-1.115-.97-.276.001-.716.521-1.019.825-1.659 1.658-3.087 3.123-4.608 4.656-.609.614-1.25 1.24-1.988 1.745-1.978-1.676-3.555-3.752-5.48-5.48-.51-.532-1.225-1.518-1.989-1.746-.058.024-.111.052-.146.098z" fill-rule="evenodd"/></svg>