<svg enable-background="new 0 0 63.203 64.574" viewBox="0 0 63.203 64.574" xmlns="http://www.w3.org/2000/svg"><g clip-rule="evenodd" fill-rule="evenodd"><path d="m.431.32c-.144.103-.224.103-.367 0-.095-.402.462-.402.367 0z"/><path d="m10.902.058c.007.129.008.253-.053.314-.069 0-.14 0-.209 0-.152-.191.049-.471.262-.314z"/><path d="m19.278.005c.122-.017.201.009.262.053.021.196-.041.308-.209.314-.002-.051-.065-.041-.104-.053-.008-.128-.009-.251.051-.314z"/><path d="m1.897.058c.129-.007.252-.008.314.053.017.121-.008.201-.052.262-.069 0-.14 0-.21 0-.06-.062-.059-.186-.052-.315z"/><path d="m3.678.058h.156c.044.061.069.14.052.262-.094-.007-.11.065-.209.053-.072-.068-.072-.248.001-.315z"/><path d="m9.175.32c-.161.037-.101.037-.263 0-.067-.34.315-.295.263 0z"/><path d="m12.42.111c.014-.123.231-.03.262 0 .139.42-.531.254-.262 0z"/><path d="m14.148.058h.209c.113.112.027.293-.053.367-.034 0-.069 0-.105 0-.078-.074-.164-.255-.051-.367z"/><path d="m15.876.058h.157c.071.067.091.313-.053.314-.198.045-.185-.234-.104-.314z"/><path d="m17.812.111c.045.167-.082.162-.104.262-.147-.01-.223-.091-.21-.262.067-.073.248-.073.314 0z"/><path d="m21.32.111c.007.129.008.252-.053.315-.087-.001-.174 0-.261 0-.163-.227.096-.486.314-.315z"/><path d="m57.863.058c.181-.036.188.184.104.262-.181.037-.187-.184-.104-.262z"/><path d="m5.3.111h.157c.022.109-.035.138-.052.209-.093-.012-.119-.09-.105-.209z"/><path d="m7.184.111c.138-.015.226.019.21.157-.097.102-.252.03-.21-.157z"/><path d="m43.727.111c.182-.037.188.184.104.262-.18.036-.187-.184-.104-.262z"/><path d="m49.172.163c0 .243-.261.243-.262 0 .069-.067.193-.067.262 0z"/><path d="m54.355.111c.137-.015.225.019.209.157-.098.102-.252.03-.209-.157z"/><path d="m62.888.111c.18-.021.299.016.262.209-.13.124-.328.021-.262-.209z"/><path d="m42.104.215c.045.167-.082.162-.104.262-.147-.01-.223-.091-.209-.262.066-.071.247-.071.313 0z"/><path d="m47.392.163h.157c.021.109-.036.138-.053.209-.091-.012-.118-.09-.104-.209z"/><path d="m21.007 1.891c.129-.007.252-.008.313.052v.21c-.061.06-.184.059-.313.052-.048-.154-.048-.162 0-.314z"/><path d="m62.888 1.943h.21c.021.109-.036.139-.053.21-.137.015-.171-.074-.157-.21z"/><path d="m42.104 2.153c-.078.082-.298.076-.262-.105.079-.083.299-.077.262.105z"/><path d="m.274 3.566c.001.051.065.041.104.053v.262c-.087 0-.174 0-.262 0 .009-.062-.012-.093-.053-.105.008-.134.077-.204.211-.21z"/><path d="m62.941 3.618c.196-.021.27.237.157.366-.277.044-.318-.255-.157-.366z"/><path d="m41.895 3.775c.014-.122.229-.029.262 0 .139.422-.531.256-.262 0z"/><path d="m21.111 3.827c.259-.008.237.305.052.367-.131.008-.163-.08-.209-.158-.009-.13.08-.163.157-.209z"/><path d="m.379 5.45c.045.198-.234.186-.314.105 0-.052 0-.105 0-.157.067-.072.313-.091.314.052z"/><path d="m62.837 5.398c.213-.021.33.054.313.263-.143.102-.223.102-.366 0-.017-.123.009-.202.053-.263z"/><path d="m41.895 5.502h.209c.061.062.06.186.053.314-.088 0-.175 0-.262 0-.047-.153-.047-.16 0-.314z"/><path d="m21.058 5.608c.148.01.223.091.209.262-.066.071-.247.071-.313 0-.045-.168.082-.163.104-.262z"/><path d="m41.947 7.282c.312-.069.253.375-.052.262-.016-.121.008-.2.052-.262z"/><path d="m21.007 7.388c.236-.028.342.076.313.313-.061.061-.184.06-.313.053-.076-.069-.076-.297 0-.366z"/><path d="m63.15 7.44c.018.122-.008.201-.052.262-.148.044-.136-.073-.262-.052 0-.07 0-.14 0-.21.067-.072.248-.072.314 0z"/><path d="m63.203 9.324c-.007.168-.119.231-.314.21-.307-.239.202-.554.314-.21z"/><path d="m21.007 9.272c.013-.122.229-.029.261 0 .139.422-.531.256-.261 0z"/><path d="m.117 10.79h.157v.209c-.109.023-.139-.035-.21-.052.029-.041.055-.084.053-.157z"/><path d="m41.947 10.843c.014-.123.231-.03.262 0 .139.421-.531.255-.262 0z"/><path d="m21.111 10.895c.232.003.263.331.052.367-.131.009-.163-.081-.209-.157-.009-.131.08-.164.157-.21z"/><path d="m62.941 10.948c.167.007.23.119.209.314-.061.044-.14.068-.262.052-.092-.092-.068-.334.053-.366z"/><path d="m42.104 12.519c.002.051.065.04.104.052v.262c-.06-.009-.093.012-.104.053-.131.009-.164-.081-.209-.157.006-.135.076-.204.209-.21z"/><path d="m21.32 12.989c-.061.061-.184.059-.313.052-.25-.353.402-.538.313-.052z"/><path d="m62.837 12.728c.129-.007.252-.008.313.052.021.195-.042.308-.209.314-.121-.092-.191-.195-.104-.366z"/><path d="m.17 14.298h.104c-.01.045.021.05.053.053v.105c-.045-.01-.05.02-.053.053-.035 0-.069 0-.104 0 .01-.045-.02-.05-.053-.053 0-.035 0-.07 0-.105.045.01.05-.021.053-.053z"/><path d="m21.32 14.717c-.123-.001-.154.09-.313.052-.356-.32.415-.659.313-.052z"/><path d="m42 14.455c.148.01.223.091.209.262-.06.044-.14.068-.262.052-.065-.158-.039-.203.053-.314z"/><path d="m63.098 14.664c.024.164-.046.234-.21.21-.162-.144.066-.372.21-.21z"/><path d="m21.058 16.13c.75.309-.531.591 0 0z"/><path d="m42.157 16.496c-.122.018-.201-.008-.262-.052-.013-.253.347-.279.262.052z"/><path d="m62.888 16.392c.143-.037.105.104.21.104-.028.043-.055.086-.053.158-.211.058-.258-.161-.157-.262z"/><path d="m20.954 18.172c.108-.834.641.393 0 0z"/><path d="m42 18.016c.138-.017.172.072.157.209-.137.015-.225-.019-.21-.157.045.009.05-.021.053-.052z"/><path d="m62.888 18.12c.134.006.203.076.21.209-.061.044-.141.069-.262.053-.016-.122.008-.201.052-.262z"/><path d="m21.32 19.691c0 .139.02.299-.053.366-.087 0-.174 0-.261 0-.236-.192.024-.575.314-.366z"/><path d="m42.261 19.848c.044.219-.24.268-.366.157-.085-.325.308-.409.366-.157z"/><path d="m63.098 19.848c.111.141.111.278 0 .418-.182.042-.222-.058-.314-.104-.027-.237.077-.342.314-.314z"/><path d="m21.32 21.627c-.007.168-.118.231-.313.21-.205-.276.202-.502.313-.21z"/><path d="m40.272 21.523v.263c-.364.191-.364-.456 0-.263z"/><path d="m26.241 21.523c.136.067.165.108.106.263-.109.021-.139-.037-.21-.053-.039-.143.104-.106.104-.21z"/><path d="m42.209 21.575v.21c-.066.07-.247.07-.313 0 0-.07 0-.141 0-.21.153-.046.159-.046.313 0z"/><path d="m22.629 21.575h.21v.21c-.181.04-.25-.03-.21-.21z"/><path d="m24.619 21.733c-.079.083-.299.076-.263-.106.079-.083.299-.076.263.106z"/><path d="m29.592 21.575c.138-.015.226.018.21.157-.047.04-.118.056-.21.053 0-.07 0-.14 0-.21z"/><path d="m31.529 21.627c.023.11-.036.139-.053.21-.133-.007-.203-.076-.209-.21.069-.066.194-.066.262 0z"/><path d="m33.099 21.575c.092.013.119.09.105.21-.053 0-.105 0-.157 0-.022-.11.036-.138.052-.21z"/><path d="m34.932 21.575v.21c-.138.014-.226-.021-.21-.158.047-.041.118-.055.21-.052z"/><path d="m36.66 21.733c-.07 0-.14 0-.21 0-.041-.202.251-.202.21 0z"/><path d="m38.23 21.575c.137-.015.226.018.209.157-.098.103-.252.031-.209-.157z"/><path d="m63.15 21.942c-.111.135-.233.093-.366 0-.095-.402.462-.402.366 0z"/><path d="m.117 23.146h.21v.209c-.181.041-.25-.029-.21-.209z"/><path d="m62.837 23.46c.179-.021.298.016.262.209-.131.124-.33.022-.262-.209z"/><path d="m.17 24.822c.131-.009.163.08.209.157-.006.133-.076.202-.209.209-.002-.051-.064-.041-.105-.053 0-.087 0-.174 0-.262.061.009.093-.01.105-.051z"/><path d="m62.941 25.188c.042.027.085.055.157.053.008.129.01.254-.104.262-.224.038-.184-.287-.053-.315z"/><path d="m.064 26.811c.185-.028.271.044.314.157-.007.167-.118.23-.314.209-.074-.069-.074-.297 0-.366z"/><path d="m63.15 26.968c.028.184-.044.27-.156.314-.428-.043-.081-.631.156-.314z"/><path d="m.064 28.591c.13-.008.253-.009.314.052.007.129.008.253-.052.314-.288.05-.365-.169-.262-.366z"/><path d="m62.888 28.747c.014-.122.23-.03.262 0 .14.422-.53.256-.262 0z"/><path d="m.17 30.37c.131-.009.163.081.209.157.009.131-.08.164-.157.21-.232-.001-.263-.331-.052-.367z"/><path d="m62.888 30.528c.186-.012.273.075.262.262-.061.044-.14.069-.262.053-.071-.068-.071-.248 0-.315z"/><path d="m.379 32.255c.044.22-.24.269-.366.157-.085-.325.307-.408.366-.157z"/><path d="m63.15 32.308c.037.161.037.101 0 .262-.062.061-.185.059-.313.052-.231-.183.048-.506.313-.314z"/><path d="m.327 34.193c-.088 0-.175 0-.263 0-.283-.463.524-.429.263 0z"/><path d="m63.046 34.245c.075.069.075.296 0 .366-.387.082-.402-.46 0-.366z"/><path d="m.379 36.129c-.112.113-.292.027-.366-.052-.014-.322.446-.338.366.052z"/><path d="m63.098 36.286c-.68.249-.054-.769 0 0z"/><path d="m.17 37.596c.092.048.182.097.157.262-.062.043-.141.068-.263.052.007-.094-.063-.11-.052-.209.042-.045.144-.032.158-.105z"/><path d="m63.046 37.752c.252.23-.084.566-.314.314-.028-.237.076-.341.314-.314z"/><path d="m.379 39.48c-.01.147-.091.224-.262.21-.244-.219.124-.51.262-.21z"/><path d="m63.046 39.532c.066.136.115.158.053.314-.088 0-.175 0-.262 0 .008-.061-.012-.094-.053-.104.01-.147.091-.223.262-.21z"/><path d="m.117 41.103h.157c.072.067.091.314-.053.315-.197.044-.184-.235-.104-.315z"/><path d="m62.837 41.313h.262c.062.156.015.178-.053.313-.094.007-.11-.063-.209-.052 0-.086 0-.174 0-.261z"/><path d="m21.215 42.779c.024.164-.046.233-.209.209-.162-.144.065-.373.209-.209z"/><path d="m31.686 42.726c.206-.031.231.117.262.262-.104.001-.066.144-.21.106-.001-.052-.064-.041-.104-.053-.007-.13-.008-.253.052-.315z"/><path d="m42.209 43.04c-.143.102-.223.103-.366 0-.119-.425.473-.388.366 0z"/><path d="m22.89 42.779c.122-.017.201.009.262.053v.209c-.19.103-.364-.072-.262-.262z"/><path d="m24.775 42.779h.105c-.01.044.02.049.052.053v.104c-.044-.01-.049.02-.052.052-.035 0-.07 0-.105 0 .01-.044-.02-.049-.052-.052 0-.035 0-.07 0-.104.044.008.049-.021.052-.053z"/><path d="m26.555 42.779c.085-.015.09.049.157.053.016.138-.072.172-.209.156-.022-.11.036-.139.052-.209z"/><path d="m29.959 42.779c.181-.037.188.184.104.262-.181.036-.187-.184-.104-.262z"/><path d="m36.869 42.779h.104c-.009.044.021.049.053.053v.104c-.045-.01-.05.02-.053.052-.034 0-.069 0-.104 0 .01-.044-.021-.049-.052-.052 0-.035 0-.07 0-.104.044.008.049-.021.052-.053z"/><path d="m38.596 42.779h.157c.011.15.007.285-.157.262-.066-.069-.067-.194 0-.262z"/><path d="m40.377 42.779c.182-.037.188.184.104.262-.181.036-.187-.184-.104-.262z"/><path d="m.17 42.831c.148.01.223.091.209.262-.15.139-.352.094-.366-.157.068-.019.081-.093.157-.105z"/><path d="m33.414 42.831h.157c.021.108-.036.138-.053.209-.092-.012-.119-.09-.104-.209z"/><path d="m63.15 43.355c-.01.164-.097.251-.262.262-.285-.193.07-.547.262-.262z"/><path d="m21.215 44.768c-.061-.009-.093.012-.104.053-.147-.01-.224-.092-.21-.262.134-.118.398-.05.314.209z"/><path d="m42.209 44.663c-.01.164-.097.252-.262.262-.285-.192.069-.547.262-.262z"/><path d="m.117 44.611c.133.007.203.076.21.21-.104 0-.067.143-.21.104-.071-.067-.071-.247 0-.314z"/><path d="m62.888 44.977h.105c.079.074.165.255.052.367-.069 0-.14 0-.209 0-.113-.112-.027-.293.052-.367z"/><path d="m21.007 46.286c.181-.037.188.184.104.262-.182.036-.188-.184-.104-.262z"/><path d="m41.947 46.286c.434-.023.215.592-.104.366-.017-.173-.008-.322.104-.366z"/><path d="m.064 46.443c.014-.122.23-.029.263 0 .139.421-.531.255-.263 0z"/><path d="m63.098 46.757c.007.13.008.252-.053.315-.486.088-.301-.563.053-.315z"/><path d="m21.215 48.066c.024.164-.046.234-.209.21-.162-.145.065-.372.209-.21z"/><path d="m42.209 48.066c0 .14.021.3-.052.367-.264.037-.346-.108-.314-.367.07-.075.296-.075.366 0z"/><path d="m63.046 48.485c.075.07.075.297 0 .367-.402.095-.402-.462 0-.367z"/><path d="m21.058 49.793c.182-.036.188.184.104.263-.18.036-.187-.184-.104-.263z"/><path d="m42.209 49.951c.017.208-.101.283-.313.261-.022-.1-.113-.131-.104-.261.071-.162.366-.225.417 0z"/><path d="m.17 49.951c.133.006.203.075.209.209-.103 0-.066.143-.209.104-.073-.066-.073-.246 0-.313z"/><path d="m63.098 50.527c-.144.103-.224.103-.367 0-.094-.402.448-.387.367 0z"/><path d="m41.895 51.573c.121-.017.2.009.262.053.007.129.008.252-.053.313-.069 0-.14 0-.209 0-.075-.069-.075-.295 0-.366z"/><path d="m.379 51.783c.024.163-.045.233-.209.209-.163-.143.064-.372.209-.209z"/><path d="m21.007 51.731c.133.007.202.076.209.209-.06.044-.141.069-.262.053-.017-.122.008-.202.053-.262z"/><path d="m63.098 52.045v.262c-.062-.009-.094.012-.104.052-.168-.007-.23-.118-.21-.313.067-.073.247-.073.314-.001z"/><path d="m42.104 53.406c-.007.094.065.11.053.209-.047.023-.094.046-.104.104-.148-.01-.224-.091-.21-.262.06-.043.14-.067.261-.051z"/><path d="m.117 53.458h.262c-.021.126.096.114.053.262-.063.061-.186.06-.315.053-.047-.154-.047-.161 0-.315z"/><path d="m21.267 53.511c.025.199-.021.327-.156.366-.389-.016-.171-.626.156-.366z"/><path d="m63.046 53.825c.024.163-.045.233-.209.209.006-.094-.064-.11-.053-.209.068-.067.193-.067.262 0z"/><path d="m42.104 55.081c.14.151.095.354-.157.367-.019-.069-.092-.083-.104-.157.009-.147.09-.223.261-.21z"/><path d="m62.888 55.657h.105c-.01.045.02.049.052.052v.105c-.045-.01-.049.021-.052.052-.035 0-.07 0-.105 0 .01-.044-.021-.049-.052-.052 0-.035 0-.07 0-.105.045.01.049-.019.052-.052z"/><path d="m41.947 56.809c.162.014.293.217.157.367-.069 0-.14 0-.209 0-.113-.112-.027-.293.052-.367z"/><path d="m63.046 57.385v.21c-.069 0-.14 0-.209 0-.163-.145.064-.373.209-.21z"/><path d="m42.209 58.798c-.027.078-.077.133-.104.21-.237.027-.342-.077-.313-.314.173-.163.324-.067.417.104z"/><path d="m.221 58.694c.124.029.218.203.105.314-.261.075-.258-.271-.105-.314z"/><path d="m21.007 58.798h.156c.044.062.069.141.053.262-.161.037-.101.037-.262 0-.017-.121.008-.2.053-.262z"/><path d="m62.837 59.165c.109-.022.139.036.209.052-.013.093-.09.119-.209.106 0-.053 0-.105 0-.158z"/><path d="m42.157 60.474c.007.129.008.252-.053.314-.486.089-.301-.562.053-.314z"/><path d="m21.007 60.578c.17-.014.251.062.261.21-.051.001-.04.063-.052.104-.259.084-.329-.18-.209-.314z"/><path d="m62.837 60.84c.013-.122.229-.03.262 0 .138.422-.532.256-.262 0z"/><path d="m21.215 62.359c-.007.094.064.11.052.209-.066.072-.247.072-.313 0 0-.052 0-.104 0-.156.06-.045.14-.07.261-.053z"/><path d="m42.157 62.516c.016.208-.1.283-.314.262-.022-.047-.046-.094-.104-.104-.1-.345.361-.412.418-.158z"/><path d="m.221 62.411c.042.027.085.055.157.052.016.138-.072.172-.209.157-.022-.109.036-.138.052-.209z"/><path d="m63.15 62.62c-.01.165-.097.252-.262.262-.285-.192.07-.547.262-.262z"/><path d="m41.842 64.139c.186-.028.27.044.314.156-.007.168-.119.23-.314.21-.074-.069-.074-.297 0-.366z"/><path d="m47.131 64.558c-.271-.701.767-.058 0 0z"/><path d="m6.766 64.243c.137-.015.225.018.209.157-.097.103-.252.031-.209-.157z"/><path d="m10.483 64.243c.137-.015.225.018.209.157-.146.054-.223.06-.209-.157z"/><path d="m45.455 64.243h.157c.044.06.069.141.053.262-.161.036-.101.036-.262 0-.018-.121.008-.201.052-.262z"/><path d="m48.754 64.243c.17-.014.252.061.262.209-.051.002-.041.065-.053.106-.259.083-.328-.181-.209-.315z"/><path d="m50.847 64.295v.21c-.137.015-.226-.02-.209-.157.046-.041.119-.057.209-.053z"/><path d="m52.366 64.295h.209v.21c-.18.041-.25-.029-.209-.21z"/><path d="m54.093 64.295h.209v.21c-.179.041-.25-.029-.209-.21z"/><path d="m57.81 64.348c-.001.244-.261.244-.262 0 .07-.067.194-.067.262 0z"/><path d="m59.329 64.295c.138-.016.172.073.157.21-.137.015-.226-.02-.21-.157.045.01.05-.021.053-.053z"/><path d="m61.161 64.295v.21c-.137.015-.226-.02-.209-.157.046-.041.118-.057.209-.053z"/><path d="m62.837 64.295h.209c.022.11-.036.139-.052.21-.139.016-.172-.072-.157-.21z"/></g></svg>