<svg enable-background="new 0 0 76.54 77.036" viewBox="0 0 76.54 77.036" xmlns="http://www.w3.org/2000/svg"><g clip-rule="evenodd" fill-rule="evenodd"><path d="m76.372.076c.009.038.048.047.047.094.294 9.853-.055 19.507.048 29.11.07 6.618.048 12.916.048 19.265-.001 7.949-.067 15.894-.048 23.856.004 1.489.173 3.002-.095 4.449-12.523.244-25.287.142-38.104.142-12.764 0-25.564.124-38.149-.047-.179-12.693-.095-25.606-.095-38.529-.001-11.9 0-23.755 0-36.02 0-.75-.112-1.54.142-2.272 12.827-.162 26.452-.094 39.95-.095 11.961-.001 24.258-.089 36.256.047zm-56.374 5.822c-1.495 0-3.049-.151-4.307 0-.835.101-.537 1.304-.521 2.13.049 2.479-.008 5.019-.142 7.1-2.783.309-6.334-.149-9.04.237-.157 2.748-.157 6.15 0 8.899.643.247 1.417.142 2.177.142h4.686c.778 0 1.568-.106 2.226.142.086 9.351.13 18.534-.048 28.068-.636.249-1.413.142-2.178.142-2.294 0-4.987-.11-6.862.142-.172 1.349-.095 2.906-.095 4.45-.001 1.533-.133 3.121.095 4.402 1.318.253 2.89.142 4.449.142 1.558 0 3.165-.078 4.544.094.256 1.33.142 2.924.142 4.497.001 1.559-.076 3.162.095 4.544 2.825.149 6.021.151 8.852 0 .323-1.394.129-2.943.189-4.449.062-1.541-.165-3.131.095-4.639 8.018-.134 16.468-.144 24.518-.142 1.146 0 2.308-.114 3.407.142.148 2.153.197 4.663.095 6.815-.037.773-.009 1.555.189 2.225 2.753.175 6.103.144 8.805-.047.377-2.715-.066-6.251.236-9.041 2.606-.299 6.149.104 8.899-.189.157-2.731.157-6.12 0-8.852-.649-.25-1.433-.142-2.178-.142-1.503 0-3.037 0-4.591 0-.758 0-1.562.13-2.178-.189-.088-8.095-.046-16.583-.047-24.708-.001-1.149-.113-2.311.142-3.408 2.913-.181 6.163.125 8.898-.142.135-2.758.209-6.264-.047-8.946-2.79-.255-6.15.06-8.899-.237-.172-2.095-.095-4.658-.095-6.863 0-.768.108-1.564-.142-2.225-1.346-.172-2.925-.094-4.45-.095-1.542 0-3.103-.112-4.401.142-.302 2.843.155 6.26-.237 9.088-8.854.136-18.743.171-27.926 0-.281-2.811.092-6.277-.189-9.088-1.225-.247-2.698-.14-4.166-.141z"/><path d="m52.09 24.689c.226 8.087.104 16.295.143 24.188.006 1.205 0 2.405-.143 3.55-2.825.158-6.309.158-9.135 0-.22-2.922.076-6.348-.189-9.325-2.778-.188-6.089-.095-8.946-.047-.32.625-.189 1.432-.189 2.225 0 2.297.077 4.981-.094 7.147-2.728.226-6.201.202-8.993.047-.173-7.909-.096-16.299-.096-24.424.001-1.135-.111-2.278.143-3.361 2.764-.158 6.183-.157 8.946 0 .279 2.782-.091 6.212.189 8.994 1.375.225 3.024.179 4.591.142 1.556-.037 3.114.061 4.449-.142.307-2.776-.146-6.489.236-9.04 2.988-.094 6.107-.152 9.088.046z"/></g></svg>