<svg enable-background="new 0 0 76.939 75.03" viewBox="0 0 76.939 75.03" xmlns="http://www.w3.org/2000/svg"><g clip-rule="evenodd" fill-rule="evenodd"><path d="m35.904.095c.246 5.037.142 10.586.142 16.093 0 4.133-.077 8.255-.047 12.164.01 1.29.164 2.567-.095 3.787.253 1.781.142 3.604.142 5.396 0 5.209.035 10.694-.047 16.093-.108 7.094.218 14.294-.095 21.347-2.952.241-5.86-.365-8.473-.947-1.281-.285-2.542-.723-3.692-1.183-1.17-.469-2.374-.826-3.266-1.562-.094-8.867.123-17.77-.095-26.885-.647-.251-1.517-.133-2.366-.142-.813-.009-1.661-.147-2.32.047-.231 1.039-.172 2.171-.141 3.266.178 6.426 0 13.378 0 20.117 0 1.077.115 2.187-.143 3.218-.923-.283-1.738-.811-2.509-1.325-2.257-1.507-4.476-3.066-6.343-5.017-2.103-2.249-4.223-4.565-5.822-7.479-.234-.428-.564-.826-.662-1.23-.144-.596-.037-1.445 0-2.272.101-2.21-.13-4.696-.047-6.911.229-6.14-.1-12.209.047-18.365.033-1.433 0-2.98 0-4.497 0-1.582-.039-3.363.047-4.733 1.605-3.357 3.968-6.192 6.484-8.709 1.885-1.883 3.97-3.571 6.344-5.018.762-.464 1.525-1.167 2.508-1.183.217 4.303.096 8.789.096 13.3 0 2.209.135 4.456.047 6.674-.09 2.232-.141 4.47.094 6.626 1.379.142 3.242.232 4.639.047.258-1.052.143-2.18.143-3.266 0-7.295 0-14.743 0-22.152 0-.605-.092-1.34.047-1.656.154-.347 1.015-.544 1.516-.758 1.541-.657 3.299-1.352 5.017-1.798 2.798-.726 5.654-1.226 8.85-1.087z"/><path d="m56.399 30.719c.634.256 1.501.167 2.319.189.83.023 1.697-.015 2.414-.142.262-1.013.063-2.106.095-3.171.214-7.441-.142-16.051.142-23.619.475.006.913.302 1.325.521 1.175.623 2.389 1.462 3.456 2.271 2.994 2.274 5.383 4.481 7.667 7.621.766 1.051 1.547 2.19 2.32 3.408.274.433.582.899.662 1.23.284 1.185.048 3.21.047 4.591 0 7.685.002 15.388 0 23.051 0 3.129.04 6.354-.047 9.277-.779 1.721-1.882 3.207-2.982 4.639-2.753 3.584-5.969 6.532-9.893 9.04-.781.5-1.625 1.042-2.556 1.23-.212-1.062-.095-2.198-.095-3.313 0-3.209.093-6.81 0-10.129-.123-4.422.158-8.85-.142-13.064-1.35-.154-3.337-.158-4.687 0-.269 9.152.063 18.199-.188 26.98-1.937 1.236-4.371 1.992-6.911 2.65-2.507.65-5.319 1.228-8.236.994-.164-12.562-.096-25.19-.095-37.819.001-3.089-.047-6.14 0-9.229.122-7.917.048-15.163.048-23.288 0-.723-.025-1.467 0-2.272.025-.768-.112-2.07.143-2.272.035-.042.087-.07.142-.093 4.422.219 8.393.855 11.691 2.225 1.087.451 2.269.726 3.124 1.468.191 8.86.003 18.115.237 27.026z"/></g></svg>