<svg enable-background="new 0 0 70.67 71.02" viewBox="0 0 70.67 71.02" xmlns="http://www.w3.org/2000/svg"><path clip-rule="evenodd" d="m45.554.123c.244 6.957.147 14.799.148 21.881 0 1.004-.174 2.016.099 2.965.354.236 1.404.199 1.828.049.265-.963.147-1.994.147-3.014.001-7.141-.082-14.789.099-21.832.862-.262 1.796-.146 2.717-.146 6.498 0 13.505-.082 19.905.098.204 3.352.099 6.807.099 10.176.001 3.475.192 7-.099 10.371-.493.232-1.489-.039-1.976.197-.256.508-.148 1.275-.148 2.025 0 .73-.075 1.523.1 2.076.407.348 1.536-.023 2.024.246.263.795.149 1.69.149 2.52.001 5.898.066 11.976-.099 18.027-.5.242-1.514-.031-2.025.197-.264.963-.148 1.994-.148 3.014.002 7.156.08 14.822-.099 21.881-6.491.188-14.012.111-20.35.049-.269-.965-.148-1.994-.148-3.012.001-7.145.043-14.475-.049-21.832-.372-.248-1.48-.193-1.927-.051-.192 3.916-.099 8.164-.099 12.398v9.484c0 .998.119 2.021-.148 2.963-6.687.154-13.708.234-20.497.049-.296-8.029.098-16.764-.198-24.844-.336-.256-1.364-.182-1.777-.051-.268 2.029-.148 4.172-.148 6.273-.001 6.346.176 12.629-.099 18.621-6.497.193-13.831.104-20.301.049-.262-1.977-.145-4.051-.148-6.123-.012-6.127.111-12.662-.099-18.77-.465-.342-1.635.022-2.173-.248-.114-6.559-.184-13.773 0-20.498.464-.309 1.514-.031 2.123-.197.268-.961.148-1.994.148-3.012-.001-7.157-.081-14.821.098-21.88 6.462-.189 13.595-.236 20.301-.051.265.961.149 1.998.149 3.014-.002 7.127-.04 14.635.049 21.732.291.359 1.458.324 1.877.1.27-8.082-.085-16.586.198-24.846 6.651-.128 13.848-.245 20.497-.048z" fill-rule="evenodd"/></svg>