<svg enable-background="new 0 0 73.03 72.973" viewBox="0 0 73.03 72.973" xmlns="http://www.w3.org/2000/svg"><g clip-rule="evenodd" fill-rule="evenodd"><path d="m42.094 72.861c-.093-.904.418-1.737.735-2.549 1.621-4.154 3.208-8.372 4.804-12.6.639-1.69 1.442-3.326 1.961-5.001.197-.634.292-1.243.54-1.863 2.487-6.216 4.952-12.713 7.402-19.021.909-2.34 1.842-4.666 1.765-7.844-.136-5.662-3.491-9.84-7.353-11.864-2.161-1.133-4.809-1.927-7.844-1.568-2.182.258-3.902.817-5.441 1.765-.451.277-.915.794-1.569.735.124-1.162.692-2.202 1.128-3.334 1.01-2.622 2.072-5.417 3.138-8.186.242-.631.377-1.424.98-1.52.375-.061 1.192.156 1.813.294 3.951.876 7.451 2.543 10.491 4.265 7.202 4.079 12.202 10.214 15.64 18.09 1.624 3.723 2.801 8.755 2.745 14.071-.112 10.617-4.168 18.593-9.266 24.414-2.631 3.004-5.782 5.474-9.314 7.55-3.054 1.794-6.618 3.204-10.688 4.069-.525.111-1.131.349-1.667.097z"/><path d="m29.935.108c.284.64-.131 1.338-.344 1.912-1.568 4.226-3.275 8.621-4.902 12.893-2.803 7.364-5.634 14.687-8.432 22.11-1.838 4.875-3.842 9.736-5.687 14.658-.704 1.878-1.309 3.751-2.01 5.638-.209.561-.305 1.286-.834 1.667-.51-.127-.757-.652-1.029-1.029-3.092-4.274-5.423-9.699-6.324-16.228-1.479-10.711 1.639-19.781 5.834-26.18.802-1.222 1.741-2.35 2.696-3.48.318-.376.528-.821.834-1.177.547-.638 1.298-1.278 1.961-1.863 4.067-3.586 8.649-6.416 14.707-8.186 1.185-.345 2.356-.725 3.53-.735z"/><path d="m16.943 67.615c.162-2.243.847-4.346 1.275-6.422 1.305-6.322 3.273-11.932 6.471-16.57 1.097-1.591 2.286-2.861 3.48-4.216 2.433-2.758 4.283-5.835 5.001-10.394.335-2.128.375-4.635 1.128-6.52.82-2.059 2.927-3.898 5.589-4.069 2.588-.166 4.545 1.177 5.638 2.696.539.751 1.051 1.784 1.226 2.991.364 2.518-.917 4.512-1.961 6.079-1.108 1.662-2.274 3.269-3.236 4.902-1.026 1.743-1.546 3.763-1.911 6.227-.356 2.398.026 5.001-.295 7.794-.554 4.826-1.943 8.768-3.677 12.551-1.223 2.67-2.839 5.245-4.363 7.844-.435.743-1.163 2.192-1.716 2.304-.441.091-1.343-.206-1.911-.343-3.053-.734-5.62-1.798-8.09-3.039-.948-.477-1.978-.953-2.648-1.815z"/></g></svg>