<svg enable-background="new 0 0 72.572 74.406" viewBox="0 0 72.572 74.406" xmlns="http://www.w3.org/2000/svg"><path clip-rule="evenodd" d="m47.539 49.13c-6.489-.191-13.301-.096-20.117-.096-.871 0-2.305-.107-2.65.236-.447.447-.189 2.66-.189 3.551 0 2.84-.047 4.59-.047 7.383 0 1.238.164 2.725-.095 3.598-.192.648-.858 1.133-1.325 1.516-.518.424-1.006.824-1.562 1.277-2.209 2.035-4.531 3.924-6.816 5.916-.743.649-1.392 1.486-2.367 1.848-.832-.115-1.12-.773-1.704-1.137-2.494-2.225-5.044-4.391-7.573-6.58-.971-.906-2.191-1.562-2.935-2.697-.078-8.84-.095-17.75-.095-26.127 0-6.756 0-13.256 0-19.975 0-1.037-.014-2.168-.047-3.219-.038-1.207-.006-2.408.047-3.504.828-1.102 1.964-1.932 2.982-2.84 1.02-.908 2.047-1.81 3.077-2.697 1.026-.885 2.045-1.814 3.077-2.697 1.035-.889 1.926-2 3.219-2.557 1.029.348 1.689 1.266 2.461 1.939 2.318 2.029 4.619 4.178 6.958 6.248.572.495 1.031.907 1.562 1.374.427.377 1.231.924 1.373 1.658.175.902.047 2.142.047 3.359 0 2.297.072 4.307.047 6.674-.012 1.162-.267 2.908.284 3.408 6.53.133 13.266.047 19.927.047.902 0 1.835.105 2.698-.141.297-.584.197-2.559.236-3.408.11-2.365-.047-4.385-.047-6.769 0-1.111-.172-2.453.047-3.408.136-.588.869-1.121 1.373-1.561 3.605-3.154 6.972-6.609 10.603-9.656.506-.332 1.096.301 1.562.709 2.58 2.267 5.43 5.051 7.857 7.195.984.924 2.154 1.664 2.935 2.793.07 16.275.143 32.898.142 49.557 0 1.08.229 2.496-.047 3.408-.16.531-.944 1.078-1.42 1.467-1.586 1.299-3.05 2.793-4.639 3.977-1.493 1.379-2.992 2.713-4.544 4.07-.491.43-1.034.947-1.704 1.137-.997-.354-1.697-1.199-2.461-1.846-2.307-1.951-4.647-3.912-6.958-5.918-.473-.465-.975-.912-1.515-1.373-.461-.391-1.22-.906-1.373-1.467-.28-1.025-.047-2.48-.047-3.738 0-2.553-.047-4.779-.047-7.338 0-1.242.143-2.508-.19-3.596zm-35.357-46.576c-.882.43-1.685 1.312-2.462 1.988-1.528 1.326-3.053 2.846-4.686 4.213-.471.395-2.232 1.533-2.224 2.225.004.387.68.969.994 1.231.51.422.78.627 1.231.994 2.254 1.834 3.827 3.428 6.011 5.205.333.271.992.9 1.373.9.436 0 .946-.562 1.325-.9.441-.391.842-.762 1.184-1.041 2.183-1.777 3.928-3.441 6.011-5.205.369-.312 1.062-.742 1.042-1.231-.014-.326-.644-.914-.994-1.232-.442-.4-.88-.74-1.23-1.041-2.143-1.836-3.891-3.461-5.964-5.254-.398-.344-.977-.957-1.468-.852-.042.016-.105-.02-.143 0zm37.392 55.379c0 .898-.229 3.025.331 3.219.415.142 1.144-.576 1.42-.805 2.743-2.254 5.06-4.311 7.668-6.531.382-.326.929-.916 1.467-.9.488.016 1 .699 1.325.994 2.576 2.34 4.834 4.377 7.384 6.769.335.315.943 1.039 1.42.852.279-.109.328-.561.331-1.23.082-15.389-.095-30.203-.095-45.865 0-1.166.135-2.387-.094-3.125-.107-.344-.639-.779-1.042-1.135-2.359-2.092-4.553-4.141-6.911-6.154-.361-.309-1.062-1.131-1.467-.852-.284.203-.19 1.264-.19 2.035.001 9.42.047 19.125.047 28.4 0 1.242.266 3.805-.189 4.26-.332.332-1.703.236-2.65.236-6.93-.002-13.466.002-20.306 0-6.887-.002-13.517.049-20.117.047-.908 0-1.926-.19-2.651.285-.013.625.58.957.947 1.324 1.169 1.17 2.302 2.262 3.502 3.361 1.085.992 2.315 2.324 3.456 3.361.411.373.901.838 1.372.945.843.191 1.991 0 3.077 0 6.315 0 12.686-.107 18.981-.047.964.01 1.977-.09 2.84.283.169 3.39.145 6.63.144 10.273zm9.988-24.803c0-9.348-.047-18.447-.047-27.689 0-.752.098-2.211-.71-1.609-1.614 1.227-3.057 2.623-4.591 3.93-.744.672-1.508 1.332-2.272 1.988-.758.65-1.608 1.297-2.083 2.225-.1 3.363-.03 7.043-.047 10.508-.005.951-.172 2.52.095 3.359.151.477.63.85 1.042 1.279 2.358 2.453 4.688 4.592 7.005 6.91.356.355.792.889 1.373.852.393-.427.235-1.147.235-1.753zm-47.995 36.211c.1-2.111 0-4.258 0-6.438 0-8.152-.048-16.127-.048-24.141 0-.746-.086-1.828.142-2.082.278-.309 1.812-.189 2.698-.189 3.026 0 5.789-.047 8.662-.047 11.169 0 22.116-.047 32.991-.047.384 0 .951.139 1.184-.285-.035-.586-.552-1.002-.899-1.324-2.103-1.963-3.943-3.799-6.011-5.822-.644-.631-1.731-1.938-2.556-2.178-.753-.219-2.049-.047-3.077-.047-6.41-.002-11.898.047-18.413.047-.965 0-2.596.137-2.887-.236-.35-.447-.142-2.465-.142-3.408 0-2.293 0-4.77 0-7.1 0-1.332.262-2.98-.521-3.029-.029-.002-.216.035-.237.047-.849.512-1.729 1.356-2.509 2.082-1.601 1.494-3.243 2.926-4.875 4.309-.848.717-1.573 1.637-2.604 2.035-.997-.285-1.62-1.143-2.367-1.752-.756-.619-1.447-1.307-2.177-1.941-1.479-1.283-2.943-2.57-4.449-3.834-.426-.301-.78-.92-1.467-.803-.369.344-.237.908-.237 1.324 0 15.426.095 30.492.095 45.723 0 1.098-.175 2.418.047 3.172.119.404.642.752 1.041 1.09 1.196 1.012 2.456 2.084 3.502 2.98 1.152.988 2.259 2.102 3.408 3.029.37.301.78.83 1.372.711.416-.496.304-1.223.334-1.846zm9.182-4.023c.605-.549 1.917-1.424 2.177-2.225.227-.701.161-2.062.189-2.889.084-2.443 0-5.562 0-8.377 0-1.004.102-2.104-.095-2.793-.095-.332-.626-.885-.994-1.231-1.272-1.197-2.325-2.195-3.503-3.312-.776-.736-1.454-1.367-2.319-2.178-.649-.609-1.75-1.988-2.556-1.988-.086 0-.164.037-.19.094-.38.387-.237 2.508-.237 3.74 0 7.943.047 15.398.047 23.43 0 .82-.309 3.398.284 3.598.392.131.958-.445 1.325-.758.438-.373.846-.801 1.183-.994.716-.75 1.603-1.332 2.319-2.082.824-.737 1.583-1.321 2.37-2.035zm30.672-2.746c-.312.27-1.05.811-1.042 1.23.008.393.756.982 1.042 1.23 1.294 1.129 2.469 2.111 3.645 3.172.832.689 1.622 1.4 2.461 2.082.811.66 1.534 1.566 2.651 1.895 1.161-.322 1.675-1.291 2.556-1.895 1.538-1.428 3.211-2.721 4.733-4.164.394-.301.748-.635 1.183-1.041.293-.275 1.002-.789.994-1.279-.006-.4-.614-.877-.994-1.23-2.391-2.221-4.671-4.219-6.958-6.389-.48-.457-.961-1.049-1.609-.805-1.676 1.336-3.331 2.695-4.97 4.07-1.222 1.018-2.45 2.049-3.692 3.124z" fill-rule="evenodd"/></svg>