<svg enable-background="new 0 0 75.776 56.995" viewBox="0 0 75.776 56.995" xmlns="http://www.w3.org/2000/svg"><path clip-rule="evenodd" d="m75.515.116c.162 3.955.137 8.393.048 12.211-3.729.381-8.377-.158-12.117.236-.254 1.314-.184 3.439-.048 4.828.913.26 1.944.143 2.982.143 3.077 0 6.441-.023 9.183.143.131 7.186.191 14.478.047 21.441-.904.252-1.93.143-2.935.143-2.973-.002-6.207-.039-9.135.047-.318.596-.189 1.555-.189 2.461-.001.895-.103 1.867.142 2.508 4 .277 8.192-.076 12.07.189.269.912.116 1.936.142 2.982.049 2.031-.084 4.256 0 6.344.042 1.037.179 2.066-.095 2.981-9.322.15-18.767.188-28.21.189-15.82.004-31.5.115-47.144-.094-.251-1.887-.143-4.01-.143-6.105 0-2.086-.039-4.188.047-6.154.434-.26.963-.121 1.469-.143 3.416-.137 7.652.1 10.791-.141.187-1.426.096-3.373.047-4.875-.938-.256-1.984-.142-3.029-.142-2.941 0-6.28.074-9.277-.096-.148-6.576-.13-14.619-.047-21.488.923-.25 1.961-.143 2.982-.143 3.004.002 6.271.039 9.23-.047.291-1.31.116-3.381.095-4.875-.854-.305-1.893-.189-2.935-.189-2.054 0-4.288 0-6.39 0-1.054 0-2.082.184-2.982-.096-.096-3.65-.198-8.303 0-12.211 20.812-.029 41.941-.144 63-.143 4.177.002 8.236-.088 12.401.096zm-9.893 3.691c-1.785.027-3.888.047-5.869.047-5.621 0-11.593.133-16.992.096-.878-.006-1.8-.195-2.651.094-.179 1.264-.148 3.17 0 4.592 1.955.307 4.222.098 6.248.094 1.019 0 2.104.002 3.172 0 1.083 0 2.188-.111 3.171.143.049 1.098.139 2.627-.047 3.644-9.704.199-20.002.229-29.583.047-.131-1.014-.211-2.754.047-3.691 4.286-.178 8.412.102 12.496-.189.243-1.248.218-3.385 0-4.639-5.156-.175-10.475-.095-15.715-.095-3.943-.002-7.983.074-11.833-.096-1.29-.056-2.628-.068-3.882.143-.235 1.24-.228 3.396 0 4.639 3.018.121 6.464.143 9.515.143 1.05 0 2.125-.108 3.077.141.167 3.019-.041 6.295.047 9.42.028 1.037.189 2.088-.095 3.029-3.912.231-8.526-.149-12.496.142-.255 1.252-.181 3.311-.048 4.639.58.248 1.227.141 1.847.141 4.647.002 9.144.094 13.773.096 2.667 0 5.333-.002 7.999 0 2.652 0 5.301.107 7.857-.143.155-1.334.158-3.305 0-4.639-.951-.217-2.027-.188-3.076-.143-1.062.047-2.157.049-3.219.049-2.161 0-4.339.09-6.295-.143-.113-1.031-.223-2.742.047-3.691 9.306-.109 18.566-.143 27.832-.143.57 0 1.209-.109 1.751.143.09 1.15.135 2.533-.047 3.645-4.08.26-8.405-.016-12.496.236-.178 1.314-.268 3.391 0 4.685 8.894.19 18.706-.002 27.595 0 1.291 0 2.594.102 3.834-.094.156-1.449.167-3.295 0-4.688-3.977-.281-8.613.094-12.59-.188-.16-2.838-.095-6.332-.095-9.42-.001-1.068-.113-2.137.142-3.076 4.094-.178 8.467 0 12.448-.143.335-.566.143-1.443.143-2.271 0-.84.073-1.738-.095-2.414-1.847-.171-3.938-.173-5.917-.142zm-37.535 26.649c-2.507-.107-5.081.014-7.62 0-2.585-.014-5.197-.047-7.763-.047-2.575 0-5.143-.162-7.573-.047-.26.012-.741.014-.947.188-.158.672-.094 1.537-.094 2.367 0 .82-.041 1.682.189 2.271 3.04.143 6.498.115 9.419.143 1.077.01 2.151-.121 3.124.143.118 4.187.146 8.312 0 12.449-3.934.236-8.555-.152-12.543.141-.232 1.367-.214 3.346 0 4.686 7.664.17 15.654.191 23.571.189 2.651 0 5.304.115 7.858-.141.192-1.275.136-3.293 0-4.688-4.151-.268-8.534.156-12.544-.188-.198-.904-.25-2.693 0-3.693 9.815-.121 19.761-.215 29.584-.047.126 1.033.212 2.783-.048 3.74-4.008.219-8.395-.061-12.448.188-.278.559-.189 1.473-.189 2.32 0 .871-.116 1.803.189 2.367 10.257.174 21.267.031 31.382-.049.155-1.348.157-3.338 0-4.686-.964-.256-2.07-.141-3.124-.141-2.266-.002-4.446-.049-6.437 0-1.032.023-2.094.174-3.029-.096-.163-2.807-.095-6.307-.095-9.371 0-1.074-.113-2.137.143-3.078 3.168-.137 6.338-.141 9.419-.141 1.065 0 2.138.133 3.124-.096.124-1.369.196-3.309-.048-4.685-10.361-.172-21.051-.096-31.429.094-.133 1.344-.208 3.42.048 4.688 3.961.283 8.581-.094 12.543.189.082 1.109.236 2.766-.095 3.691-4.734.139-9.774.094-14.863.094-3.668 0-7.425-.088-11.123 0-1.267.031-2.523.15-3.597-.141-.025-1.09-.19-2.711.094-3.645 4.041-.172 8.534.107 12.496-.143.272-.615.132-1.469.096-2.271-.039-.848.104-1.721-.096-2.414-2.457-.279-5.009-.031-7.574-.14z" fill-rule="evenodd"/></svg>