<svg enable-background="new 0 0 73.204 78.944" viewBox="0 0 73.204 78.944" xmlns="http://www.w3.org/2000/svg"><g clip-rule="evenodd" fill-rule="evenodd"><path d="m60.002.115c.236 2.484.191 5.078.191 7.646 0 7.771.137 15.633-.048 23.227-3.557.186-7.304.143-11.135.144-3.805 0-7.683.087-11.279-.096-.155-1.538-.161-3.72 0-5.257 1.659-.224 3.639-.096 5.544-.096 1.93-.001 3.841.021 5.496-.143.239-.996.164-2.06.143-3.107-.143-7.257-.123-15.072 0-22.27 3.497-.155 7.652-.15 11.088-.048z"/><path d="m72.81.115c.36 10.934-.034 22.296.191 33.644.031 1.569.193 3.154-.095 4.684-5.778.106-11.743.145-17.683.144-5.827-.001-11.881.104-17.444-.096-.097-1.674-.277-3.967 0-5.544 2.038-.087 4.068-.048 6.117-.047 5.819 0 12.025.021 18.018-.191.244-1.297.096-2.653.096-4.015 0-9.018-.048-17.701-.048-26.812 0-.601-.16-1.267.143-1.815 3.441-.048 7.342-.144 10.705.048z"/><path d="m23.919.162c.259 2.034.143 4.172.143 6.309 0 6.196.026 12.813.143 19.021.832.285 1.803.189 2.772.144 1.907-.091 3.959 0 5.926 0 .974 0 1.965-.108 2.819.144.146 1.598.183 3.764 0 5.257-7.532.132-15.222.198-22.557.096-.321-2.432-.035-4.917-.096-7.456-.181-7.538-.094-15.765 0-23.418 3.407-.228 7.512-.183 10.85-.097z"/><path d="m11.063.257c.387 10.803-.041 22.016.335 32.595 7.938.292 16.607-.193 24.326.095.253.757.144 1.772.144 2.772 0 .966.074 1.982-.096 2.771-11.637.135-23.714.299-35.461.144-.251-3.156-.143-6.379-.143-9.606 0-7.845-.096-15.87-.096-24.135 0-.784.015-1.571 0-2.342-.015-.744-.202-1.53.095-2.246 3.426-.158 7.437-.24 10.896-.048z"/><path d="m72.905 40.403c.253.752.143 1.558.143 2.342 0 8.684.096 17.791.096 26.523v7.121c0 .761.185 1.532-.096 2.246-3.347.159-7.358.16-10.705 0-.257-1.316-.144-2.705-.144-4.061 0-3.988-.048-8.207-.048-12.378 0-5.541.022-11.121-.191-16.345-.929-.302-1.938-.104-2.916-.096-5.881.051-12.271.048-18.352.048-.971 0-1.991.112-2.916-.144-.157-1.507-.159-3.655 0-5.161.794-.285 1.664-.108 2.485-.096 4.315.066 8.7-.049 13.143-.048 6.447.002 13.086-.169 19.501.049z"/><path d="m35.771 40.45c.178 1.61.196 3.577.048 5.209-.948.297-1.959.095-2.963.096-7.095.001-14.565.057-21.363.191-.252.611-.143 1.298-.143 1.959 0 9.619.174 20.933.048 30.873-1.689.145-3.614.144-5.496.144-1.898 0-3.821.089-5.448-.096-.234-12.527-.247-25.552-.144-38.233 11.67-.182 23.581-.335 35.461-.143z"/><path d="m60.24 47.619c.167 10.229.262 20.846.096 31.016-1.599.221-3.566.144-5.496.144-1.933.001-3.917.078-5.639-.096-.341-8.37.022-17.092-.287-25.473-.778-.216-1.694-.203-2.628-.191-1.816.023-3.797.049-5.735.048-.933 0-1.902.107-2.724-.143-.159-1.551-.159-3.755 0-5.305 6.822-.219 14.056.116 20.837-.096.522-.016 1.079-.138 1.576.096z"/><path d="m35.819 47.666c.148 1.571.159 3.74.048 5.258-3.814.239-7.786-.003-11.47.191-.257 1.017-.143 2.093-.143 3.154 0 1.068.042 2.16.048 3.25.028 5.238-.029 10.847 0 16.153.005 1.033.202 2.077-.096 3.059-3.512.139-7.297.242-10.849.048-.244-9.96-.199-20.813-.144-31.017 1.03-.26 2.121-.144 3.202-.143 3.103 0 6.519.104 9.797-.048 1.412-.065 3.353-.048 4.97-.048 1.616.001 3.172-.115 4.637.143z"/></g></svg>