<svg enable-background="new 0 0 79.129 79.647" viewBox="0 0 79.129 79.647" xmlns="http://www.w3.org/2000/svg"><g clip-rule="evenodd" fill-rule="evenodd"><path d="m18.658.191c1.372 4.951 3.781 8.865 7.24 11.728 3.351 2.783 7.744 5.117 13.806 5.117 6.049 0 10.496-2.346 13.902-5.019 2.93-2.529 5.358-5.73 6.71-9.848.186-.566.247-1.215.627-1.738 5.688-.039 12.362-.182 18.102.098.154 3.045.047 6.193.048 9.363.002 9.441-.006 19.246-.192 28.818-1.376.268-2.847.123-4.297.145-4.229.066-8.821-.059-13.274-.145-.28-.754-.263-1.549-.387-2.268-.896-5.197-3.162-9.004-6.274-12.117-3.431-3.43-8.236-6.076-14.868-6.178-6.643-.104-11.626 2.59-15.109 5.938-3.12 2.998-5.537 6.805-6.372 12.066-.112.715-.155 1.473-.386 2.221-2.888.213-5.911.049-8.882.098-2.954.047-6.001-.029-8.834-.193-.167-11.553.047-23.887.048-35.914 0-.758-.114-1.549.145-2.27 5.829-.193 12.56-.049 18.247.098z"/><path d="m17.933 41.029c.289 1.59.451 3.07.82 4.439 1.113 4.131 3.206 7.213 5.89 9.896 3.438 3.438 8.156 6.18 14.867 6.18 6.534-.002 11.616-2.639 15.013-6.035 3.079-3.078 5.521-6.713 6.42-11.971.122-.709.101-1.483.387-2.221 5.743-.137 11.698-.162 17.522.049.366 1.5.045 3.084.049 4.633.023 9.5-.052 19.258-.049 28.867 0 1.574.116 3.154-.145 4.682-6.072.174-11.999.094-18.054-.047-.438-.494-.452-1.166-.628-1.738-1.243-4.041-3.797-7.338-6.661-9.896-3.348-2.732-7.651-5.115-13.758-5.115-6.117-.002-10.57 2.101-13.95 4.922-2.518 2.203-4.676 4.774-6.083 8.111-.46 1.092-.74 2.268-1.255 3.426-5.745.149-12.307.045-18.246-.096-.188-11.545.049-24.055.049-35.865 0-.74-.093-2.084.145-2.318.035-.045.087-.072.145-.096 5.934.033 11.892-.038 17.522.193z"/></g></svg>