<svg enable-background="new 0 0 77.005 69.672" viewBox="0 0 77.005 69.672" xmlns="http://www.w3.org/2000/svg"><path clip-rule="evenodd" d="m23.754 0c.346.32.193.863.193 1.254.001 14.103-.081 28.975.096 43.123.956-.285 1.627-1.014 2.361-1.592 3.602-2.828 7.016-5.842 10.696-8.816 1.328-1.072 2.874-2.707 4.674-3.131 2.41-.57 3.842 1.476 4.626 3.035.93 1.85 1.6 3.719 2.36 5.443.75 1.703 1.531 3.67 2.312 5.494.793 1.848 1.643 4.223 3.47 4.914 1.407.533 3.582.211 5.3.289 5.748.26 11.533-.18 17.152.096.097.533-.602.939-.964 1.301-4.395 4.395-8.816 8.961-13.25 13.395-1.622 1.621-3.104 3.375-4.817 4.867-4.387-.018-8.315-.049-12.721-.049-2.233 0-4.316.191-5.975-.338-1.601-.51-2.825-1.447-3.661-2.746-1.708-2.65-2.849-5.627-4.24-8.576-1.011-2.143-2.047-4.34-3.084-6.553-.652-1.391-1.211-3.24-3.131-3.373-1.577.285-2.672 1.418-3.759 2.314-.953.783-1.761 1.691-2.746 2.359-3.741 3.102-7.424 6.26-11.226 9.299-1.414 1.088-2.646 2.393-4.191 3.518-.491.357-1.071.824-1.783.771-1.544-.117-1.445-1.877-1.445-3.758 0-13.815.061-29.18.097-42.496.262-.615.859-1.002 1.349-1.399 1.48-1.199 2.94-2.486 4.433-3.709 2.947-2.463 5.919-4.891 8.865-7.42 2.153-1.85 4.555-3.57 6.602-5.59.722-.711 1.622-1.321 2.407-1.926z" fill-rule="evenodd"/></svg>