<svg enable-background="new 0 0 76.23 78.288" viewBox="0 0 76.23 78.288" xmlns="http://www.w3.org/2000/svg"><g clip-rule="evenodd" fill-rule="evenodd"><path d="m29.335 25.791c.564.911 1.443 1.693 2.328 2.477.367.325.772.69 1.238 1.14.27.26.948 1.024 1.337 1.04.62.024 1.276-1.04 1.635-1.436.542-.599 1.003-1.022 1.486-1.535 1.516-1.649 2.62-3.421 4.656-4.458 2.064-1.053 4.972-1.338 7.232-.149 2.813 1.479 5.78 5.823 4.012 10.402-.694 1.8-1.974 3.056-3.27 4.459-.563.61-1.017 1.45-1.684 2.179-.482.527-1.731 1.487-1.734 2.081-.002.476.813.992 1.14 1.288.933.847 1.433 1.506 2.378 2.377.352.325.91 1.077 1.288 1.09.426.015 1.45-1.266 1.733-1.585 1.56-1.762 3.254-3.541 4.656-5.301 1.88-2.357 3.273-5.844 3.071-10.203-.185-3.966-1.811-7.261-3.814-9.462-1.593-1.749-3.438-3.227-5.795-4.161-.734-.29-1.593-.433-2.279-.99.114-.556.583-.928.892-1.338.316-.419.698-.759 1.04-1.139 1.716-1.909 3.479-3.748 5.201-5.845.299-.364.772-1.007 1.14-1.041.461-.042 1.34.642 1.833.991.633.449 1.18.744 1.684 1.09 1.158.793 2.136 1.781 2.973 2.576 5.694 5.404 9.998 12.28 11.839 21.448.675 3.362.737 6.846.644 10.204-.092 3.306-.928 6.554-1.783 9.313-1.788 5.769-4.561 10.318-7.975 14.216-2.946 3.331-6.59 6.308-10.898 8.57-4.206 2.209-9.353 3.887-15.256 4.16-6.336.294-12.134-1.058-16.446-2.972-4.541-2.016-8.636-4.397-11.789-7.628-.936-.903-1.887-1.825-2.725-2.824-.418-.499-.725-1.105-1.139-1.635-.405-.517-.995-.976-1.09-1.684.387-1.166 1.456-1.648 2.031-2.625 1.397-1.675 2.959-3.184 4.309-4.904.871-.665 1.227-1.845 2.329-2.278.416.467.398 1.081.594 1.585 1.371 3.52 3.862 6.045 7.034 7.876 1.806 1.042 4.19 1.783 6.687 1.833 2.562.051 4.954-.611 6.935-1.586 3.715-1.825 6.537-5.212 7.777-9.312 1.51-4.991.035-10.31-2.229-13.523-2.385-3.384-5.66-5.846-10.601-6.489-5.34-.696-9.61 1.794-12.384 4.458-2.892 2.777-5.456 5.922-8.173 8.867-.676.732-1.392 1.455-2.031 2.229-.64.775-1.275 1.558-1.981 2.278-1.042 1.065-2.041 2.22-3.021 3.369-.316.369-.606.879-1.14.99-.529-.547-.693-1.343-.941-2.031-1.696-4.718-2.823-11.521-2.031-17.98.849-6.918 3.295-12.563 6.291-17.189.733-1.132 1.639-2.228 2.526-3.369.854-1.098 1.721-2.202 2.724-3.12 6.03-5.519 14.096-10.044 24.867-10.552 4.279-.202 8.469.54 11.938 1.535.54.155 1.179.312 1.288.645.195.598-.537 1.288-.941 1.733-1.333 1.468-2.729 2.908-4.012 4.31-1.805 1.972-3.502 4.016-5.201 5.845-2.734 2.944-5.226 5.773-7.925 8.669-.886.949-1.743 1.944-2.478 3.021z"/><path d="m29.583 39.265c3.875-.414 6.495 1.84 7.827 4.111 1.374 2.343 1.248 5.997 0 8.272-1.19 2.17-3.813 4.211-7.034 4.21-2.563 0-4.586-1.154-5.944-2.625-1.37-1.484-2.386-3.709-2.229-6.291.155-2.56 1.136-3.972 2.278-5.201 1.168-1.256 2.794-2.23 5.102-2.476z"/></g></svg>