<svg enable-background="new 0 0 77.495 47.113" viewBox="0 0 77.495 47.113" xmlns="http://www.w3.org/2000/svg"><g clip-rule="evenodd" fill-rule="evenodd"><path d="m4.349.122c1.923-.244 4.185-.047 6.2-.047 2.299 0 5.548-.24 7.1.615 1.442.795 2.476 2.082 2.698 4.07.164 1.471.047 3.166.047 4.828 0 9.906-.049 18.602-.047 28.684 0 1.651.178 3.39-.048 4.781-.318 1.96-1.942 3.462-3.786 3.834-1.389.28-3.443.047-5.018.047-1.758 0-3.532-.047-5.112-.047-1.87 0-3.05-.185-4.165-.994-.988-.718-1.746-1.693-2.035-3.077-.301-1.433-.142-3.148-.142-4.828 0-9.766.049-19.443.048-29.394-.001-1.665-.159-3.382.189-4.733.469-1.812 1.918-3.466 4.071-3.739zm-1.231 4.26c-.398.817-.3 3.096-.236 4.497.086 1.896-.047 3.148-.047 4.781v9.893c0 3.72-.094 6.007-.047 9.608.018 1.412-.049 3.097 0 4.639.084 2.669-.311 5.17 1.609 5.917.629.245 1.974.142 2.981.142 2.087 0 4.018.047 5.917.047.958 0 2.221.177 2.934-.095 1.246-.474 1.326-2.128 1.326-4.165 0-5.338.047-11.622.047-16.283 0-5.669 0-10.418 0-16.093 0-2.004-.228-3.542-1.467-4.07-.555-.236-1.644-.115-2.603-.142-.93-.026-1.949-.047-2.745-.047-1.851 0-4-.177-5.538 0-.866.098-1.725.541-2.131 1.371z"/><path d="m34.973.217c3.171-.075 7.192-.147 10.792 0 .991.041 1.789-.067 2.557.095 2.064.437 3.701 1.934 4.07 4.402.24 1.609.047 3.375.047 4.97.001 1.69 0 3.396 0 5.018.001 3.232-1.149 5.576-3.739 6.248-1.292.335-3.413.216-4.97.142-3.215-.152-6.46 0-9.94 0-1.728 0-4.034.288-5.348-.236-1.555-.621-2.837-2.114-3.077-4.118-.22-1.841-.047-4.145-.048-6.437 0-1.023 0-2.109 0-3.218 0-1.057-.083-2.264.096-3.124.385-1.859 1.942-3.355 3.786-3.692 1.621-.299 3.673 0 5.774-.05zm-6.863 10.271c-.048 1.045 0 2.132 0 3.171 0 2.148.092 3.891 1.515 4.402.53.19 1.433.095 2.225.095h11.597c1.396 0 3.477.244 4.497-.142 2.054-.778 1.641-4.424 1.656-7.336.006-1.018-.016-2.182-.047-3.313-.027-.974.081-2.256-.331-3.029-.215-.401-.824-.948-1.231-1.089-.574-.199-1.38-.06-2.13-.094-3.487-.159-7.59-.047-11.123-.047-1.447 0-3.21-.122-4.544.047-2.805.355-1.93 4.028-2.084 7.335z"/><path d="m62.758.217c2.258-.107 5.424-.005 8.046-.047 2.853-.046 4.677.538 5.822 2.366.912 1.457.852 3.656.852 6.248.002 10.129-.047 19.567-.047 29.915 0 1.633.214 3.613-.142 4.922-.356 1.312-1.381 2.2-2.414 2.793-1.265.726-2.508.615-4.592.615-3.105 0-7.39.38-9.939-.473-1.578-.528-2.748-1.932-3.172-3.503-.327-1.216-.189-3.072-.189-4.781 0-9.504 0-19.242 0-29.062 0-1.679-.156-3.347.143-4.78.53-2.552 2.514-4.212 5.538-4.213.031 0 .063.002.094 0zm11.833 40.611c-.022-.76-.008-1.579 0-2.367.049-4.772.047-9.587.047-14.531 0-4.731.136-9.875.048-14.531-.026-1.404.208-3.558-.189-4.639-.744-2.025-3.596-1.656-6.343-1.656-2.891 0-7-.596-7.999 1.23-.467.853-.284 3.019-.284 4.639v14.153c0 4.309-.047 9.443-.048 14.2 0 1.588-.197 3.507.143 4.686.288.997 1.061 1.77 2.272 1.94 1.717.242 3.852.048 5.726.048h2.888c1.737 0 3.117.233 3.55-1.042.32-.651.21-1.418.189-2.13z"/><path d="m35.495 26.061c3.135-.017 6.603 0 9.892 0 1.444 0 3.091-.145 4.071.284 1.407.616 2.746 2.192 2.934 4.118.191 1.964 0 4.148 0 6.342v3.171c0 1.215.12 2.54-.142 3.408-.372 1.234-1.342 2.304-2.413 2.84-1.237.619-2.82.566-4.592.615-3.322.093-7.201.091-10.271.142-.529.009-1.098-.112-1.703-.095-1.621.045-3.505.188-4.828-.331-1.303-.51-2.551-1.924-2.935-3.219-.496-1.673-.236-4.12-.236-6.485 0-2.061-.156-4.71.095-6.484.272-1.918 1.757-3.617 3.456-4.118.931-.275 2.054-.189 3.218-.189 1.162.001 2.16.008 3.454.001zm-2.083 2.934c-1.244-.001-2.808-.234-3.739.095-2.057.725-1.562 4.163-1.562 7.052 0 .91-.021 2.12 0 3.077.026 1.121-.104 2.344.189 3.123.733 1.948 2.959 1.658 5.632 1.658 3.637 0 6.776-.095 10.224-.095 2.17 0 4.674.416 5.254-1.42.246-.776.073-2.387.095-3.644.021-1.196.031-2.67 0-3.55-.082-2.367.583-5.281-1.183-6.107-.495-.231-1.706-.189-2.698-.189-2.93-.001-5.856-.118-8.33 0-1.519.073-2.518 0-3.882 0z"/></g></svg>