<svg enable-background="new 0 0 188.661 172.604" viewBox="0 0 188.661 172.604" xmlns="http://www.w3.org/2000/svg"><path clip-rule="evenodd" d="m98.165 3.273c6.914 6.403 13.689 12.889 20.585 19.227 1.734 1.594 3.394 3.255 5.121 4.859 8.531 7.927 17.181 15.956 25.811 23.877 3.396 3.117 6.755 6.385 10.345 9.562 1.718 1.52 3.585 3.065 5.12 4.858.749.875 1.718 1.579 2.561 2.403.843.825 1.744 1.588 2.56 2.403 3.375 3.374 6.456 6.893 8.987 10.867 2.601 4.086 4.827 8.438 6.479 13.428 1.645 4.972 2.859 10.643 2.925 16.98.136 12.939-3.283 23.101-8.15 31.401-4.82 8.219-11.434 15.021-19.645 20.168-4.074 2.553-8.583 4.65-13.637 6.27s-10.679 2.761-17.033 2.821c-19.043.182-39.004.103-58.883.105-3.091.001-7.031.405-9.509-.418-2.464-.818-4.084-2.518-5.747-4.18s-3.477-3.174-5.173-4.807c-3.367-3.241-6.875-6.37-10.292-9.613-1.699-1.613-3.339-3.279-5.016-4.911-1.687-1.644-3.408-3.21-5.12-4.86-1.683-1.62-3.468-3.154-5.121-4.807-3.307-3.306-6.925-6.299-10.24-9.613-2.498-2.498-5.138-4.8-7.733-7.21-.865-.804-1.65-1.678-2.507-2.455-1.776-1.613-3.484-3.169-4.18-5.801-.676-2.555-.366-6.156-.366-9.56 0-3.252.036-6.449-.052-9.614-.087-3.142.203-6.27.052-9.456-.152-3.224-.015-6.403-.105-9.614-.181-6.493 0-13.243 0-19.802 0-6.417-.053-12.767-.053-19.488 0-6.576-.052-12.877-.052-19.75 0-3.296-.376-6.839.366-9.457 1.054-3.718 3.914-6.334 7.994-6.895 1.463-.203 3.448-.156 5.016-.157 5.205-.004 10.853-.001 16.092 0 2.789.001 5.593-.144 7.942.157 2.372.303 4.088 1.341 5.434 2.664 1.408 1.383 2.436 3.051 2.769 5.329.33 2.254.073 5.203.157 7.837.079 2.491-.014 5.038 0 7.576.006 1.211 0 2.627 0 4.023 0 1.611-.401 4.294.679 4.754.795.339 2.32.14 3.605.104 1.882-.052 4.334.486 4.649-.993.288-1.347.086-3.347.053-4.754-.113-4.711-.053-10.007-.053-14.63 0-1.791-.048-3.305.261-4.649.835-3.628 3.536-6.402 7.419-7.21 1.372-.285 3.076-.157 4.755-.157 6.58.001 13.163.149 19.541.053 1.617-.024 3.221-.106 4.754 0 3.065.212 4.736 1.286 6.635 3.135zm-60.765 10.816c0-1.139.36-4.304-.313-5.121-.409-.496-1.383-.417-2.403-.417-6.771 0-13.188-.136-19.488.104.15.615.729 1.05 1.149 1.463.462.452.95.874 1.411 1.306 2.845 2.668 5.521 5.461 8.36 8.099 3.296 3.063 6.56 6.284 9.666 9.457.453.462.904 1.037 1.567 1.202.185-5.079.051-10.715.051-16.093zm54.756 34.065c0-11.486-.052-22.595-.052-33.908 0-1.599.323-4.6-.366-5.33-.456-.482-1.967-.365-3.187-.365-5.759 0-11.412 0-16.876 0-2.27 0-4.448-.165-6.479-.053-.567.031-1.265.018-1.619.365-.466.456-.366 1.575-.366 2.769v8.829c0 4 .313 7.825 0 11.601-.3 3.619-2.219 5.987-4.389 7.366-1.231.782-2.686 1.373-4.441 1.463-1.748.09-3.614-.139-5.747.157.335.712.954 1.252 1.516 1.776 3.44 3.208 6.649 6.49 10.136 9.665.493.45 1.186 1.449 1.828 1.516.453.047 1.038-.208 1.62-.262.577-.052 1.218-.042 1.776-.052 7.327-.139 15.361.054 22.832.052 1.233 0 2.52.127 3.709-.156.289-1.763.105-3.615.105-5.433zm-83.544-33.23c-.111 3.879-.053 8.12-.053 12.278 0 12.373.105 24.336.105 36.207 0 8.045.052 16.444.052 24.504 0 5.767-.154 12.686.052 18.235.065 1.742-.388 5.149.313 5.903.478.515 2.182.366 3.396.366 7.314.001 13.974-.053 21.37-.053 1.103 0 2.854.148 3.344-.261.591-.494.486-1.767.47-2.926-.074-5.274-.052-10.393-.052-15.57 0-2.11-.181-4.364.157-6.112.645-3.336 2.856-5.795 5.59-6.897 2.357-.95 5.443-.784 8.569-.784.944.001 1.94.118 2.926-.104.137-3.281.138-6.663.105-10.136-.026-2.679-.322-6.257.261-8.622.093-.377.281-.792.261-1.044-.034-.439-.819-1.028-1.306-1.515-5.349-5.351-10.838-10.263-16.092-15.516-1.927-1.927-3.901-3.796-5.8-5.695-6.769-6.768-13.751-12.967-20.481-19.697-.765-.764-2.201-2.235-3.083-2.717-.065.021-.106.068-.104.156zm91.956 3.187c-.095 1.349-.052 2.934-.052 4.493-.001 10.138.019 20.482.157 30.932 1.517.39 3.158.201 4.754.156 5.065-.141 10.08.001 15.047 0 3.391 0 6.758-.142 9.979.104 3.179.242 6.238.556 9.144.836.066-.479-.517-.897-.888-1.254-.408-.392-.865-.783-1.254-1.097-2.415-2.323-4.908-4.567-7.315-6.897-6.591-6.034-12.895-12.357-19.541-18.339-2.388-2.221-4.844-4.616-7.314-6.896-.659-.609-1.849-1.812-2.612-2.194-.066.021-.107.067-.105.156zm-36.991 140.547c0 1.547-.321 4.531.366 5.172.593.555 3.039.314 4.336.314 15.733-.001 31.047-.047 46.396-.053 5.484-.002 11.379.139 16.719-.104 10.583-.481 18.813-3.743 25.706-8.15 6.915-4.422 12.392-10.366 16.406-17.451 3.106-5.482 5.473-11.387 6.374-19.018.954-8.078-.1-16.264-2.247-22.311-.747-2.104-1.669-4.017-2.508-5.956-.819-1.892-1.996-3.645-3.082-5.381-1.541-2.462-3.515-5.058-5.539-7.158-.695-.721-1.331-1.545-2.038-2.194-2.979-2.737-6.042-5.3-9.613-7.315-5.42-3.056-11.387-5.474-18.914-6.478-2.491-.333-5.195-.629-7.89-.522-8.935.353-18.367-.197-27.221.104-.011.058-.058.081-.105.104-.209 9.711-.052 19.805-.052 29.625 0 4.815.052 10.021.052 14.891 0 2.614.218 5.126-.365 7.158-.565 1.97-1.638 3.393-3.03 4.546-1.512 1.477-3.878 2.268-6.74 2.298-8.833.094-18.565-.114-27.012.053-.241 12.388.001 25.449.001 37.826zm25.287-96.501c-5.76-.001-11.532 0-17.242 0-2.299-.001-4.607-.136-6.844-.053-1.778.065-1.454 1.679-1.411 3.448.024 1.013-.052 2.165-.052 3.03 0 12.963.104 24.687.104 37.515 0 1.692-.352 5.284.419 5.955.503.44 2.317.232 3.344.261 7.057.197 14.187.053 21.474.053 1.168 0 2.816.121 3.291-.313.438-.398.366-1.613.366-2.77 0-7.678-.053-14.978-.052-21.892.001-8.427.022-16.992-.156-25.078-1.05-.284-2.16-.156-3.241-.156zm-33.804 68.025c0-12.438-.029-25.224-.052-37.565-.002-1.128.095-3.44-.313-3.919-.498-.582-2.148-.418-3.292-.418-1.303 0-2.653.097-3.553.053-.584-.028-1.288-.006-1.62.47-.406.583-.209 2.368-.209 3.501v11.285c0 5.133.605 10.396-1.62 13.166-1.16 1.397-2.322 2.619-4.128 3.345-1.849.742-4.148.783-6.74.679-4.965-.198-10.161.081-14.734.105.058.514.547.887.888 1.201 2.697 2.487 5.419 4.896 7.994 7.471 2.945 2.944 6.082 5.717 9.039 8.674 2.942 2.942 6.071 5.715 9.039 8.62 2.6 2.546 5.384 5.025 7.994 7.472.347.326.697.876 1.254.889.232-7.967.053-16.943.053-25.029z" fill-rule="evenodd"/></svg>