<svg enable-background="new 0 0 56.177 75.465" viewBox="0 0 56.177 75.465" xmlns="http://www.w3.org/2000/svg"><g clip-rule="evenodd" fill-rule="evenodd"><path d="m8.386.002c.04-.009.045.019.047.047 1.529 1.005 2.845 2.264 4.26 3.408 1.398 1.129 2.837 2.24 4.119 3.503-.448.798-1.292 1.372-1.941 2.13-1.272 1.485-2.621 2.598-4.023 4.118-.3.326-.621.589-1.041.994-.279.269-.803.892-1.089.899-.358.01-.849-.607-1.136-.852-1.102-.938-2.136-1.825-3.172-2.745-1.046-.892-2.047-1.754-3.172-2.746-.254-.224-.934-.716-.946-.994-.019-.416 1.59-1.749 1.893-2.035 1.407-1.33 2.675-2.546 4.023-3.786.673-.618 1.338-1.485 1.988-1.894.062-.039.154.012.19-.047z"/><path d="m47.813.002c.041-.009.045.019.048.047 1.504 1.131 2.778 2.492 4.165 3.739.883.789 1.975 1.929 3.029 2.887.252.229.89.772.9 1.042.014.368-.691.818-.946 1.042-.419.365-.691.604-1.041.899-2.035 1.894-4.124 3.734-6.296 5.491-.721-.455-1.404-1.134-2.083-1.799-1.636-1.604-3.207-3.08-4.97-4.733-.286-.269-.907-.743-.899-1.042.01-.338.673-.745.947-.994 1.04-.945 1.916-1.956 2.981-2.792 1.385-1.267 2.617-2.686 4.165-3.787z"/><path d="m46.394 28.733c-.435-.01-.73-.446-.995-.71-.878-.878-1.741-1.837-2.65-2.745-1.192-1.192-2.425-2.383-3.455-3.692-.067-3.707-.073-7.299 0-10.981.026-.068.074-.115.143-.142h.095c1.255 1.081 2.382 2.288 3.55 3.456 1.157 1.158 2.412 2.231 3.407 3.55-.061 3.92.142 7.536-.095 11.264z"/><path d="m16.716 10.509c.391.248.237.828.237 1.231 0 2.268-.116 4.774-.048 7.1.027.917.203 2.035 0 2.745-.251.88-1.378 1.187-1.656 1.893-1.473 1.603-2.984 3.173-4.544 4.733-.198.199-.431.516-.757.521-.221-3.566-.033-7.541-.096-11.265 1.013-1.239 2.172-2.345 3.314-3.456 1.138-1.105 2.144-2.335 3.361-3.36.026-.068.073-.116.142-.142z"/><path d="m55.908 11.125c.397.234.236.801.236 1.136v9.608c0 5.391-.14 10.537-.048 15.762.058 3.283-.034 6.972.048 10.556.019.795.026 1.716 0 2.65-.021.796.112 1.888-.048 2.461-.15.541-1.375 1.361-1.798 1.752-1.576 1.454-2.962 2.761-4.544 4.212-.281.257-.553.696-.994.663-.209-14.081-.011-28.109-.048-42.363 1.271-1.476 2.905-2.664 4.402-3.976.893-.781 1.726-1.808 2.794-2.461z"/><path d="m.292 11.172c1.421.882 2.477 2.129 3.786 3.124.56.577 1.223 1.05 1.799 1.609.504.649 1.477.883 1.704 1.704.192.694.047 1.756.047 2.698 0 4.622-.033 8.995-.047 13.159-.018 5.398.17 10.477 0 15.856-.114 3.614.212 7.219-.095 10.603-.752-.278-1.305-.978-1.94-1.515-.636-.536-1.215-1.158-1.846-1.656-.874-.79-1.781-1.678-2.746-2.556-.326-.297-.741-.545-.852-.9-.198-.635-.048-1.699-.048-2.651-.002-12.22.048-24.173.048-36.683 0-.938-.037-1.897.047-2.651.027-.067.075-.115.143-.141z"/><path d="m27.745 14.864c.04-.009.044.018.047.047.872.515 1.637 1.2 2.414 1.846.772.642 1.549 1.299 2.319 1.94 1.554 1.294 3.208 2.46 4.639 3.881-.168.525-.714.755-1.089 1.089-2.633 2.344-5.385 4.758-8.188 7.005-.889-.504-1.581-1.231-2.319-1.893-1.816-1.632-3.655-3.26-5.538-4.97-.271-.246-.983-.829-.993-1.088-.014-.333.731-.847.993-1.088 2.451-2.25 5.085-4.51 7.526-6.722.098.02.125-.032.189-.047z"/><path d="m16.764 25.467c.33.328.189.892.189 1.325.001 3.413.049 6.911-.095 10.271-.68-.201-1.166-.764-1.657-1.23-.968-.919-1.975-1.777-3.028-2.651-.507-.42-1.078-.838-1.421-1.42 1.888-2.12 3.866-4.149 5.822-6.2.035-.044.086-.072.142-.095z"/><path d="m45.542 31.762c-.306.634-.949.99-1.468 1.42-1.032.858-2.019 1.802-3.076 2.698-.512.434-.996.969-1.656 1.183-.2-3.682-.096-7.658-.048-11.455-.002-.081.035-.123.095-.142.549.117 1.185 1.042 1.657 1.515.57.57 1.071 1.082 1.514 1.562 1.045 1.133 2.177 2.063 2.982 3.219z"/><path d="m36.785 26.697h.095c.184 12.923.094 26.096.095 39.428 0 .896.107 1.874-.047 2.604-.142.663-1.271 1.32-1.799 1.798-1.629 1.474-3.047 2.797-4.686 4.26-.28.251-.532.72-.993.663-.118-13.716-.019-28.092-.048-42.315 1.048-1.239 2.379-2.199 3.598-3.266 1.21-1.06 2.39-2.158 3.645-3.171.08.009.122-.081.14-.001z"/><path d="m19.367 26.697c.54.223 1.511 1.081 1.987 1.515 1.26 1.143 2.348 2.14 3.598 3.219.618.533 1.284 1.016 1.751 1.656.07 13.631.13 28.316-.047 42.363-.499.115-.704-.46-1.041-.663-.313-.271-.643-.524-.899-.852-1.827-1.691-3.75-3.288-5.491-5.064.009-13.834-.057-27.85.048-42.032-.003-.081.035-.122.094-.142z"/><path d="m46.299 34.602h.096c.232 3.091.009 6.573.094 9.703-1.019 1.142-2.245 2.18-3.455 3.171-.609.5-1.205 1.013-1.799 1.515-.591.499-1.165 1.053-1.846 1.373-.258-.296-.142-.726-.142-1.088 0-1.979-.001-4.063 0-6.153 0-.766-.161-1.797 0-2.462.129-.533 1.235-1.245 1.656-1.609.604-.524 1.158-.958 1.752-1.467 1.161-1 2.306-2.017 3.502-2.982.081.009.123-.082.142-.001z"/><path d="m16.811 50.364c-.393-.002-.685-.374-.947-.616-.826-.759-1.671-1.56-2.557-2.319-1.179-1.012-2.477-1.906-3.455-3.077.019-3.22-.146-6.381.096-9.656.005-.038.155-.144.142-.047 2.435 1.825 4.658 3.861 6.815 5.964-.025 3.167.228 6.755-.094 9.751z"/><path d="m16.764 53.393c-.395.672-1.084 1.066-1.609 1.609-.528.546-1.115 1.03-1.704 1.514-1.177.954-2.152 2.108-3.502 2.888-.255-1.733-.143-3.721-.143-5.68 0-1.966-.069-4.036.095-5.727-.002-.081.035-.123.095-.142 1.082.623 2.525 1.904 3.503 2.698 1.198.975 2.308 1.837 3.265 2.84z"/><path d="m46.157 47.855c.429-.071.331.641.331 1.231.001 1.56 0 3.055 0 4.543.001 2.146.092 4.169-.142 5.775-.756-.296-1.272-.928-1.846-1.42-.58-.497-1.153-.99-1.752-1.468-.826-.741-1.619-1.461-2.556-2.271-.244-.211-.788-.541-.805-.805-.026-.424 1.247-1.224 1.562-1.467 1.75-1.353 3.579-2.905 5.208-4.118z"/></g></svg>