<svg enable-background="new 0 0 30.708 32.428" viewBox="0 0 30.708 32.428" xmlns="http://www.w3.org/2000/svg"><path d="m.144.887c-.071-.293-.071-.59.001-.882 2.989.003 5.98-.018 8.969.009-.021 4.032-.012 8.066-.028 12.097 0 .758.049 1.673.719 2.162 1.107.702 2.488.513 3.741.567.021.439-.001.88.016 1.319-.041.023-.123.07-.165.093-1.152-.066-2.371-.025-3.456.429-.722.332-.793 1.215-.897 1.903-.008 4.602.015 9.205-.014 13.806-3.004-.002-6.01.016-9.013-.017.012-.27-.009-.537-.016-.805 1.159-.133 2.455.02 3.449-.736.834-.577 1.046-1.659 1.185-2.6.079-5.687-.064-11.386.082-17.068-.168-2.416.132-4.862-.087-7.282-.132-.842-.345-1.773-1.071-2.309-.974-.73-2.257-.689-3.415-.686z"/><path d="m21.97.002c2.908.022 5.819-.021 8.726.03.008.281-.01.563.011.845-1.211.045-2.633-.03-3.545.925-.924 1.096-.878 2.623-.909 3.974-.009 7.395-.028 14.797-.032 22.187.071.926.233 1.903.855 2.634.901.957 2.326.927 3.541.924 0 .287.019.575-.016.861-2.861.09-5.733-.018-8.594.046-.042-.013-.127-.04-.169-.053.026-4.506.005-9.015.011-13.522-.02-.784-.117-1.754-.886-2.175-1.081-.544-2.334-.396-3.499-.476-.085-.445.021-.903.005-1.355 1.348-.09 3.033.235 4.015-.919.596-1.002.302-2.221.407-3.324.044-3.527-.032-7.072.079-10.602z"/></svg>