<svg enable-background="new 0 0 78.866 79.596" viewBox="0 0 78.866 79.596" xmlns="http://www.w3.org/2000/svg"><path clip-rule="evenodd" d="m78.663.329c.259.777.145 1.626.145 2.409 0 5.809-.001 11.796 0 17.683.001 11.491-.001 22.757 0 34.498.001 8.067.16 16.408-.048 24.573-6.535.204-13.106.047-19.707.048-9.846.001-19.527-.048-29.487-.048-9.936.001-19.661-.111-29.294-.193-.021-.043-.042-.086-.096-.096-.156-3.18-.049-6.537-.049-9.877.001-9.847 0-19.698 0-29.728.001-12.638-.25-25.436-.048-38.642.01-.718.052-.857.578-.916.745-.083 1.6-.012 2.409 0 2.318.036 4.894.048 7.323.048 22.817 0 45.859.034 68.274.241zm-58.108 2.458c-5.691 0-11.936-.103-17.634 0-.253.654-.147 1.391-.144 2.071.089 24.221-.126 48.731.097 71.694.054.01.074.053.096.096 11.437.077 23.267.275 34.739.048.257-.688.144-1.461.144-2.168 0-2.319 0-4.536 0-6.794-.001-15.501 0-31.066 0-46.398 0-6.221.095-12.389-.144-18.405-5.458-.176-11.239-.144-17.154-.144zm50.543.144c-9.821 0-20.642-.229-30.451 0-.26 1.208-.145 2.463-.145 3.709.001 6.964-.007 13.882.145 20.67.434-.099.603-.565.819-.867 3.438-4.791 8.767-8.865 16.912-8.865 4.466-.001 7.855 1.322 10.648 3.083 2.481 1.565 4.594 3.507 6.216 5.83.211.302.318.878.819.915.168-8.053.121-16.067-.049-24.38-1.513-.3-3.292-.095-4.914-.095zm5.059 71.694c0-11.656.001-23.894 0-35.269 0-6.224-1.917-10.474-5.106-13.731-1.521-1.553-3.362-2.856-5.541-3.854-2.163-.991-4.871-1.72-7.902-1.542-5.706.336-9.63 2.758-12.527 5.926-2.196 2.402-3.862 5.618-4.384 9.492-.184 1.361-.145 2.857-.145 4.481 0 11.861-.047 24.284.048 36.521 1.352.33 2.794.145 4.24.145 7.507 0 14.943.097 22.308.097 3.001 0 5.974.14 8.865-.097.25-.688.144-1.445.144-2.169z" fill-rule="evenodd"/></svg>