<svg enable-background="new 0 0 80.288 81.185" viewBox="0 0 80.288 81.185" xmlns="http://www.w3.org/2000/svg"><g clip-rule="evenodd" fill-rule="evenodd"><path d="m1.854.161c.193 26.936.213 53.414.049 80.739-.526.062-1.249.185-1.728 0-.066-19.059-.241-37.521-.147-56.211.024-4.883-.069-9.891.05-14.806.039-1.636-.078-3.252 0-4.885.04-.851.039-1.763 0-2.616-.037-.76-.219-1.592.147-2.319.464-.056 1.308-.144 1.629.098z"/><path d="m4.913.063c.515.044 1.22-.102 1.579.099.193 26.792.106 54.268.05 80.689-.342.229-1.317.2-1.727.049-.367-12.987-.008-26.97-.149-40.221-.104-9.851.002-19.973 0-30.351 0-2.383.001-5.045 0-7.649 0-.804-.069-2.039.099-2.468.028-.071.077-.121.148-.148z"/><path d="m11.082.161c.264 3.315.148 6.668.148 10.019-.003 23.303.085 47.454-.1 70.72-.41.138-1.441.201-1.776-.049-.135-25.431-.103-51.645-.098-78.222 0-.827-.096-2.207.148-2.468.036-.046.09-.075.148-.099.5.044 1.186-.099 1.53.099z"/><path d="m15.721.161c.254 12.029-.03 24.903.197 36.866.916.348 1.947.197 2.912.197 15.135-.002 30.478.113 45.649 0 .236-5.939.1-12.195.1-18.458-.001-6.256-.058-12.416.099-18.457.384-.186 1.264-.103 1.726-.049.265.753.149 1.573.149 2.369-.001 12.226.056 25.079-.049 36.52-1.042.263-2.153.148-3.208.148-7.577 0-15.479-.049-23.145-.049-7.792 0-15.391-.099-23.097-.099-1.017 0-2.071.1-3.061-.148-.179-11.758-.1-24.352-.098-36.52 0-.76-.095-2.082.147-2.319.036-.046.09-.075.148-.099.509.036 1.176-.089 1.531.098z"/><path d="m20.361.211c.277 10.567-.07 21.997.197 32.227.73.232 1.559.198 2.319.198 12.345 0 24.928.134 37.014-.05.295-10.523-.098-21.75.197-32.325.395-.152 1.401-.183 1.728.049.164 11.181.164 23.067 0 34.299-7.26.021-14.597.122-21.665.099-5.366-.018-10.824-.07-16.089-.099-1.818-.01-3.631.123-5.429-.148-.181-10.456-.099-21.873-.099-32.424 0-.628-.182-1.4.247-1.925.445-.052 1.28-.15 1.58.099z"/><path d="m23.37.112c.53.045 1.255-.103 1.629.099.294 8.77-.099 18.469.197 27.538 1.199.269 2.457.148 3.701.148 8.688 0 17.636.123 26.305-.049.268-1.074.148-2.234.148-3.355 0-7.956-.082-16.393.099-24.232.386-.158 1.341-.158 1.728 0 .171 9.893.158 20.05.049 29.562-1.318.258-2.721.164-4.097.099-4.281-.202-8.715 0-12.978 0-5.73 0-11.415.051-16.928-.148-.181-8.865-.098-18.477-.099-27.735 0-.637-.071-1.476.099-1.777.027-.073.077-.122.147-.15z"/><path d="m29.589.211c.294 7.318-.096 15.544.197 22.702.641.315 1.532.164 2.271.148 5.867-.132 12.454.372 18.507-.05.266-.874.148-1.829.147-2.764-.001-6.542-.08-13.591.099-20.037.44-.167 1.395-.154 1.776.049.164 7.99.165 16.684 0 24.725-8.271.21-16.728.099-24.725 0-.179-6.862-.1-14.5-.099-21.764 0-.851-.104-2.668.149-3.011.037-.044.089-.073.148-.097.5.043 1.186-.1 1.53.099z"/><path d="m32.649.112c.48.046 1.173-.121 1.432.148.294 5.759-.098 12.205.197 17.964 1.71.266 3.751.197 5.773.198 1.994 0 4.001.039 5.873-.049.328-.625.197-1.407.197-2.122-.001-5.216-.08-10.944.1-16.04.427-.121 1.38-.205 1.727.049.164 6.411.164 13.525 0 19.987-1.188.263-2.487.148-3.8.148-3.866.001-8.001.053-11.648-.099-.23-1.576-.147-3.228-.147-4.935 0-4.062.049-8.216.05-12.732 0-.791-.123-2.065.098-2.418.035-.046.09-.075.148-.099z"/><path d="m71.093.359c.226 13.571-.106 26.962.1 40.32.051 3.349-.106 6.709 0 10.067.106 3.395.048 6.829 0 10.216-.097 6.736.097 13.412-.1 20.086-.382.223-1.269.137-1.726 0-.168-10.157-.15-20.303-.149-30.252.001-6.909.048-13.646.05-20.382.002-9.325.058-18.685-.05-27.883-.009-.742-.08-1.565.197-2.271.485-.062 1.334-.137 1.678.099z"/><path d="m75.535.309c.202 27.405.135 53.707.049 80.689-.325.233-1.332.202-1.727.05-.417-13.083.036-26.774-.099-40.271-.123-12.393-.049-25.257-.049-38.05 0-.767-.098-2.21.148-2.418.037-.046.09-.075.148-.099.5.044 1.186-.099 1.53.099z"/><path d="m80.174.309c.143 26.341.161 53.797 0 80.739-.445.129-1.29.163-1.728 0-.128-3.267-.203-6.591-.099-9.92.103-3.249-.113-6.524-.05-9.821.13-6.666.052-13.58.05-20.333-.002-9.926-.05-19.984-.05-30.598.001-2.514.046-5.084 0-7.6-.014-.794-.082-2.233.148-2.468.036-.046.09-.075.149-.099.516.046 1.221-.099 1.58.1z"/><path d="m66.454 42.357c.297 1.579.099 3.188.099 4.787-.001 11.135.075 22.393-.049 33.855-.325.24-1.382.202-1.777.05-.297-12.14-.001-24.374-.197-36.668-.945-.233-1.93-.17-2.911-.197-7.058-.197-14.262 0-21.32 0-8.15 0-16.315-.184-24.281 0-.309 1.46-.197 3.015-.197 4.54.001 11.075.1 21.537 0 32.128-.343.246-1.408.195-1.826.049-.214-11.75-.039-24.413-.098-36.47-.004-.668-.024-1.966.197-2.172.036-.046.089-.075.148-.099 17.265.136 34.953-.028 52.212.197z"/><path d="m61.816 46.946c.209 11.231.105 22.53.049 34.052-.371.236-1.398.209-1.776 0-.289-10.302.091-21.642-.198-32.127-6.396-.268-13.134-.148-19.74-.148-6.643 0-13.22-.164-19.544.049-.259 1.235-.106 2.549-.099 3.849.052 9.608-.043 19.032-.099 28.278-.376.231-1.342.2-1.727 0-.134-4.164-.148-8.698-.148-12.831 0-6.716-.18-13.461 0-20.53.016-.637-.005-.752.493-.839.785-.137 1.808-.014 2.714 0 6.072.092 12.558.099 18.754.099h18.803c.838 0 1.704-.117 2.518.148z"/><path d="m57.177 51.536c.244 2.37.147 4.873.147 7.354.001 7.516.023 14.798-.099 22.109-.386.158-1.342.158-1.728 0-.296-1.019-.093-2.123-.099-3.207-.041-7.815.01-16.463-.149-24.231-1.184-.26-2.408-.138-3.651-.198-1.216-.058-2.507.05-3.751.05-7.588-.001-15.323-.112-22.603.049-.268 1.079-.148 2.226-.148 3.355-.001 8.084.074 16.187-.099 24.133-.386.158-1.342.158-1.728 0-.252-9.426-.195-19.594-.049-29.413 5.804-.234 12.23-.049 18.407-.05 5.28-.001 10.519-.141 15.55.049z"/><path d="m52.586 56.323c.165 7.973.165 16.652 0 24.675-.43.157-1.319.079-1.776-.049-.148-6.455-.097-13.208-.099-20.036 0-.911.106-1.826-.099-2.665-1.475-.243-3.163-.099-4.935-.099-5.165-.001-10.79-.12-15.793.049-.272.867-.217 1.833-.197 2.764.135 6.413-.014 13.585-.05 19.987-.409.15-1.37.164-1.776 0-.176-7.241-.1-15.654-.099-23.441 0-.422-.16-1.026.247-1.333 7.199-.066 14.261.001 21.665 0 .96 0 1.974-.119 2.912.148z"/><path d="m47.997 60.962c.07 6.515.099 13.789 0 19.987-.338.245-1.314.185-1.728.049-.405-5.659.077-12.272-.247-18.062-3.691-.161-8.069-.153-11.696-.049-.266 1.4-.147 2.917-.147 4.442 0 4.46.042 9.357-.05 13.621-.381.152-1.349.166-1.727 0-.256-1.387-.146-3.28-.148-4.836-.01-4.104 0-8.664 0-12.98 0-.962-.272-2.319.543-2.319 5.134.001 9.998.045 15.2.147z"/></g></svg>