<svg enable-background="new 0 0 77.675 77.032" viewBox="0 0 77.675 77.032" xmlns="http://www.w3.org/2000/svg"><path clip-rule="evenodd" d="m13.456.107c.462 3.39-.261 7.48.29 10.974.182 1.148.564 2.177.918 3.19.889 1.178 1.867 2.341 3.432 2.997 4.273 1.793 9.735.466 12.327-2.03.505-.487 1.284-1.188 1.401-1.885.334-1.984.132-4.356.049-6.574-.084-2.251.068-4.534.145-6.672 4.422-.221 8.983-.024 13.438 0 .227.569.166 1.225.193 1.837.083 1.842 0 3.85 0 5.85v16.049c0 2.632-.088 5.24.145 7.686 1.652.188 3.495.097 5.317.097 1.824 0 3.725.114 5.366-.146-.258-.924-.821-1.701-1.257-2.562-1.24-2.447-2.315-5.324-2.514-8.847-.551-9.748 2.388-17.728 10.394-19.626 2.034-.482 4.445-.503 6.913-.387 2.382.112 4.912-.21 7.348.097.272 2.062.128 4.375.145 6.623.018 2.274.075 4.562-.097 6.622-3.412.325-6.835-.103-9.91.097-3.014.195-5.36 1.332-6.72 3.287-1.405 2.021-1.777 5.451-1.208 8.218.523 2.546 1.924 5.09 3.819 6.188.969.562 2.564.436 4.206.436h6.671c1.128 0 2.223-.107 3.19.145.178 3.374.096 6.754.097 10.297 0 1.128.117 2.297-.145 3.336-10.513.16-21.1-.098-31.518.193-.261.767-.145 1.679-.145 2.561 0 2.592-.095 5.555.145 7.977.506.069.911-.322 1.305-.532 2.879-1.534 6.009-2.781 10.103-3.19 2.396-.239 4.873-.02 7.155.29 6.583.892 11.293 4.014 12.762 10.055.513 2.112.435 4.49.435 7.058 0 1.164-.006 2.353 0 3.529.006 1.194.1 2.399-.145 3.529-4.174.153-9.017.164-13.293 0-.305-3.353.019-6.681-.145-9.717-.163-3.024-1.357-5.406-3.384-6.768-2.092-1.405-5.557-1.737-8.363-1.112-2.497.558-5.158 1.862-6.236 3.916-.451.859-.29 2.389-.29 3.867 0 3.216-.007 6.675-.145 9.813-4.272.161-9.215.159-13.487 0-.253-2.526-.157-5.16-.145-7.783.033-7.642.045-15.765-.097-23.445-.744-.317-1.655-.193-2.562-.193-2.642 0-5.601-.041-8.073.146-.086.493.318.875.532 1.256 1.517 2.707 2.917 5.949 3.191 9.959.327 4.805-.369 9.526-2.031 12.906-1.639 3.334-4.264 5.835-8.218 6.816-2.085.518-4.521.435-7.106.436-2.435 0-4.978.171-7.348-.049-.303-3.954-.062-9.001-.048-13.197.746-.271 1.548-.166 2.32-.145 2.445.068 5.119-.002 7.493-.097 3.054-.122 5.482-1.286 6.864-3.287 1.398-2.025 1.824-5.459 1.112-8.363-.296-1.208-.833-2.536-1.499-3.577-.684-1.069-1.711-2.329-2.997-2.658-.954-.245-2.17-.097-3.335-.097-3.372-.001-6.889.148-9.958-.049-.193-4.335-.097-9.217-.048-13.632 1.238-.268 2.542-.114 3.819-.144 9.247-.221 18.788.144 27.795-.146.185-1.561.097-3.41.097-5.269 0-1.833.116-3.742-.145-5.317-.908.172-1.696.738-2.514 1.16-2.447 1.265-5.319 2.215-8.798 2.514-4.778.412-9.498-.343-13.003-1.885-3.403-1.497-5.996-4.219-6.961-8.121-.506-2.048-.483-4.496-.483-7.058 0-2.441-.08-5.002.097-7.396 4.397-.13 9.054-.239 13.342-.051z" fill-rule="evenodd"/></svg>