<svg enable-background="new 0 0 74.249 28.647" viewBox="0 0 74.249 28.647" xmlns="http://www.w3.org/2000/svg"><path clip-rule="evenodd" d="m36.567 10.944c1.085.3 2.325.141 3.627.141 8.756.002 18.059.077 26.706-.094.256-.828.142-1.763.142-2.685 0-2.716-.151-5.592.094-8.196 2.185-.179 4.96-.112 6.924 0 .29 1.109.058 2.274.095 3.438.183 5.833.048 11.868.047 17.898v3.627c0 1.163.112 2.333-.142 3.439-2.091.157-4.832.157-6.924 0-.372-3.359.154-7.321-.235-10.88-9.674-.161-20.61-.149-30.286 0-.255.806-.141 1.727-.141 2.638-.001 2.61-.058 5.547-.095 8.196-2.538.327-5.117.069-7.725.094-6.481.062-12.948.047-19.547.047-1.329 0-2.742.116-4.004-.047-1.777-.229-3.097-1.527-3.815-2.826-1.509-2.724-1.765-7.924-.378-11.022.71-1.582 1.803-2.545 3.533-3.061 1.706-.509 3.912-.483 6.076-.471 6.856.036 12.639.011 19.452-.142.271-1.647.159-3.75-1.177-4.286-.78-.314-2.251-.141-3.297-.141-7.823 0-16.806.077-24.399-.095-.224-2.125-.104-4.166-.046-6.358 2.788-.204 6.124-.095 9.515-.094 5.281.001 10.299-.048 15.967-.047 2.872 0 5.409-.049 7.302.848 1.444.685 2.49 1.966 2.59 3.815.101 1.903-.063 3.952.141 6.264zm-9.939 6.689c-3.183 0-6.246-.014-9.279 0-1.42.006-2.869.1-4.286.047-.652-.024-1.3-.117-1.884-.047-.925.111-2.274-.187-3.156.141-.958.356-1.49 2.262-.941 3.438.548 1.176 2.349.895 4.144.895 6.258 0 12.282.027 18.417-.141.152-1.188.157-3.005 0-4.192-.973-.254-1.998-.141-3.015-.141z" fill-rule="evenodd"/></svg>