<svg enable-background="new 0 0 65.078 72.962" viewBox="0 0 65.078 72.962" xmlns="http://www.w3.org/2000/svg"><g clip-rule="evenodd" fill-rule="evenodd"><path d="m21.696.191c.42 6.747-.145 13.855.201 20.766 1.688.273 3.488.151 5.293.151 5.211 0 10.854.188 16.027-.051.271-1.644.152-3.412.152-5.191 0-1.744 0-3.529 0-5.292 0-3.558-.109-7.149.15-10.333 6.701-.114 14.508-.066 21.422.101.174 3.051.188 6.69 0 9.829-3.65.303-7.713-.114-11.441.101-.324.764-.201 1.649-.201 2.521 0 4.497.092 8.912 0 13.105-.041 1.764.15 3.537-.152 5.241-13.424.076-27.522.094-41.178-.151-.303-1.57-.102-3.281-.102-4.989 0-5.157.043-10.686-.051-15.776-.787-.312-1.762-.201-2.721-.201-2.834-.002-6.162.078-8.869-.104-.145-3.023-.092-6.708.05-9.778 3.506-.238 7.461-.1 11.391-.1 3.377-.001 6.799-.035 10.029.151z"/><path d="m53.147 41.923c.336 6.755-.147 14.099.152 20.816 1.77.339 3.807.063 5.795.151 1.955.085 3.945-.042 5.746.15.234 1.577.051 3.316.051 4.99 0 1.67.139 3.327-.102 4.788-5.156.063-10.791.255-16.279.051-1.785-.066-3.541.097-5.191-.202-.248-6.782.105-13.953-.102-20.766-.789-.295-1.703-.231-2.57-.201-3.98.138-9.137.001-13.559 0-1.814-.001-3.596-.171-5.24.101-.369 6.585.047 14.04-.252 20.816-6.895.162-14.459.084-21.473-.051-.176-3.096-.17-6.935.051-9.828 3.496-.242 7.67.143 11.492-.151.16-6.015.15-12.164.15-18.347 0-.757-.098-2.19.152-2.52.037-.047.092-.077.15-.101 10.211.073 20.48.098 30.896.101 3.415.002 6.809-.014 10.133.203z"/></g></svg>