<svg enable-background="new 0 0 81.431 81.672" viewBox="0 0 81.431 81.672" xmlns="http://www.w3.org/2000/svg"><g clip-rule="evenodd" fill-rule="evenodd"><path d="m2.542.171c.259.531-.057 1.637.197 2.171.381.234 1.457.23 1.777-.049.151-.638-.092-1.671.197-2.171.736-.131 1.62-.104 2.369 0 .231 2.118.189 4.711.05 7.008-.626.157-1.842.161-2.468 0-.189-.629.025-1.466-.147-2.172-.387-.24-1.248-.24-1.728-.098-.354.485.035 1.713-.247 2.27-.609.161-1.808.157-2.418 0-.175-1.047-.099-2.302-.099-3.553 0-1.202-.116-2.485.147-3.455.595-.155 1.847-.187 2.37.049z"/><path d="m9.6.073c.728.029 1.574-.06 2.221.049.349.599-.073 1.689.247 2.27.404.144 1.276.16 1.678 0 .32-.502-.014-1.658.247-2.221.599-.161 1.818-.161 2.418 0 .195 2.108.1 4.769.049 6.958-.56.247-1.833.193-2.467.05-.261-.546.059-1.671-.198-2.221-.332-.228-1.395-.228-1.727 0-.264.526.064 1.644-.198 2.171-.582.268-1.664.068-2.418.05-.31-1.477-.106-4.18-.099-5.922.002-.417-.144-.865.099-1.086.035-.046.089-.075.148-.098z"/><path d="m21.148.171c.268.571-.094 1.773.247 2.27.448.054 1.309.136 1.678-.05.271-.552-.085-1.73.247-2.221.661-.196 1.633-.037 2.368 0 .266.988.148 2.245.148 3.455 0 1.219.039 2.459-.049 3.554-.677.224-1.831.18-2.517 0-.235-.537.012-1.558-.147-2.172-.387-.24-1.409-.371-1.728-.049-.485.491.134 1.596-.247 2.221-.608.144-1.884.199-2.418-.05-.152-1.351-.099-3.017-.099-4.589 0-.867-.141-1.756.197-2.419.665-.055 1.734-.132 2.32.05z"/><path d="m58.211.22c.289.583-.135 1.878.296 2.32.48.059 1.196.192 1.628 0 .383-.49-.088-1.832.297-2.32.68-.068 1.763-.12 2.369.05.182 2.206.127 4.814.049 7.008-.657.254-1.786.142-2.468.049-.26-.562.063-1.708-.197-2.271-.377-.177-1.224-.109-1.678-.049-.368.488.06 1.772-.296 2.27-.589.155-1.782.164-2.369 0-.166-1.379-.142-2.962-.148-4.491-.003-.854-.056-1.709.099-2.517.602-.261 1.652-.071 2.418-.049z"/><path d="m67.488.27c.352.488-.021 1.699.247 2.27.34.23 1.2.167 1.678.099.37-.584-.006-1.641.297-2.319.603-.165 1.814-.156 2.418 0 .163 2.126.164 4.931 0 7.057-.701.091-1.859.222-2.468-.049-.144-.629.064-1.611-.149-2.172-.312-.231-1.296-.202-1.678-.049-.444.509.068 1.676-.296 2.27-.682.081-1.687.081-2.369 0-.261-.994-.148-2.359-.148-3.652.001-.616 0-1.272 0-1.875.001-.593-.154-1.273.247-1.628.69-.113 1.543-.01 2.221.048z"/><path d="m81.258.27c.222.934.103 1.944.099 2.961-.006 1.354.212 2.837-.099 4.096-.661.141-1.741.07-2.369 0-.36-.462.036-1.681-.247-2.221-.355-.232-1.25-.183-1.678-.05-.344.495.021 1.698-.246 2.271-.643.115-1.834.222-2.468-.049-.051-2.19-.146-4.851.049-6.958.594-.187 1.696-.105 2.369-.049.341.482-.022 1.667.247 2.22.334.242 1.319.189 1.727.05.299-.574-.154-1.899.297-2.32.77-.055 1.649-.105 2.319.049z"/><path d="m2.542 9.45c.262.528-.061 1.641.197 2.171.431.151 1.226.216 1.679.049.357-.498-.052-1.762.296-2.27.614-.139 1.879-.203 2.418.05.045 2.302.149 4.752 0 6.909-.58.21-1.777.214-2.418.049-.275-.547-.014-1.632-.247-2.221-.312-.252-1.17-.15-1.628-.099-.393.446-.071 1.606-.247 2.27-.609.187-1.729.104-2.419.049-.315-1.581-.101-3.959-.098-5.725 0-.486-.225-1.048.197-1.333.663-.052 1.753-.151 2.27.101z"/><path d="m9.55 9.351c.744.029 1.607-.061 2.27.049.404.574-.243 1.725.247 2.221.325.329 1.069.096 1.629.099.435-.519-.082-1.716.296-2.32.692-.059 1.803-.131 2.418.05.168 2.109.14 4.916.049 6.958-.622.153-1.847.166-2.467 0-.238-.551.024-1.604-.198-2.171-.282-.3-1.259-.239-1.678-.099-.392.498.045 1.616-.247 2.271-.607.153-1.812.166-2.418 0-.244-2.012-.204-4.826-.049-6.909.028-.072.078-.122.148-.149z"/><path d="m21.148 9.45c.263.543-.063 1.675.197 2.221.392.163 1.215.119 1.678.049.35-.474-.024-1.669.247-2.221.637-.216 1.838-.169 2.468 0 .147 2.029.168 4.772 0 6.959-.603.164-1.813.155-2.418 0-.35-.473.031-1.677-.247-2.221-.305-.25-1.179-.155-1.628-.099-.434.514-.015 1.601-.247 2.271-.585.248-1.749.123-2.418 0-.24-.994-.148-2.283-.148-3.553 0-1.211-.149-2.554.197-3.455.664-.057 1.733-.134 2.319.049z"/><path d="m55.99 9.45c.719.054 1.661-.115 2.221.099.283.572-.121 1.831.296 2.27.442.08 1.185.08 1.628 0 .309-.515-.002-1.648.247-2.221.571-.284 1.811-.152 2.419 0 .234 1.615.024 3.72.099 5.478.022.541.147 1.046-.099 1.481-.636.143-1.756.091-2.419-.049-.259-.563.078-1.723-.247-2.221-.39-.158-1.286-.15-1.678 0-.255.551.054 1.666-.197 2.221-.61.157-1.808.161-2.418 0-.202-1.161-.148-2.424-.148-4.047 0-.968-.097-2.438.148-2.912.036-.047.09-.076.148-.099z"/><path d="m67.538 9.597c.253.553-.049 1.661.197 2.221.34.231 1.2.167 1.678.099.432-.51-.065-1.669.297-2.271.621-.276 1.823-.141 2.418-.049.194 2.092.101 4.735.049 6.909-.532.258-1.857.19-2.467.049-.236-.554.022-1.601-.198-2.171-.41-.231-1.261-.141-1.726 0-.271.552.09 1.735-.247 2.221-.673.056-1.775.137-2.369-.049-.26-.98-.148-2.266-.148-3.504.001-1.236-.115-2.53.148-3.504.68-.056 1.766-.134 2.368.049z"/><path d="m76.718 9.597c.226.629-.081 1.587.197 2.221.371.158 1.307.158 1.678 0 .354-.468-.032-1.677.246-2.221.597-.158 1.824-.165 2.419 0 .196 2.091.099 4.736.049 6.909-.65.199-1.808.229-2.468 0-.269-.537.101-1.712-.246-2.171-.382-.153-1.365-.182-1.678.049-.264.526.064 1.644-.197 2.171-.617.15-1.805.165-2.419 0-.122-1.216-.145-3.08-.147-4.59-.001-.634.001-2.047.197-2.369.036-.046.09-.075.147-.099.732.044 1.645-.096 2.222.1z"/><path d="m2.592 18.678c.154.619-.081 1.627.148 2.171.326.233 1.333.202 1.727.049.235-.604.007-1.671.247-2.27.608-.145 1.883-.199 2.418.049.225.675.052 1.467.05 2.221-.005 1.624.11 3.337-.099 4.738-.6.161-1.819.161-2.419 0-.271-.568.097-1.774-.246-2.27-.428-.08-1.152-.08-1.579 0-.43.426-.013 1.699-.297 2.27-.617.136-1.878.205-2.418-.049-.229-1.654-.053-3.869-.049-5.626 0-.496-.196-1.027.148-1.382.69-.049 1.826-.16 2.369.099z"/><path d="m11.869 18.678c.236.537-.011 1.558.148 2.171.345.226 1.242.275 1.679.099.387-.468.034-1.676.296-2.27.603-.165 1.813-.155 2.418 0 .263.967.099 2.208.099 3.405 0 1.205.04 2.42-.05 3.504-.604.31-1.662.13-2.467.099-.272-.56-.021-1.455-.198-2.171-.273-.312-1.38-.261-1.727-.049-.205.584-.054 1.526-.198 2.171-.64.15-1.836.156-2.418.049-.256-.633-.148-1.56-.148-2.517 0-.864.015-1.787.049-2.566.025-.566-.121-1.666.148-1.925.036-.046.09-.075.148-.099.72.054 1.663-.114 2.221.099z"/><path d="m21.148 18.678c.365.537-.099 1.606.197 2.221.358.23 1.299.191 1.727.049.229-.577.075-1.537.197-2.221.534-.183 1.809-.148 2.468 0 .165 2.093.163 4.865 0 6.958-.614.161-1.853.161-2.468 0-.252-.554.052-1.664-.197-2.221-.377-.161-1.179-.12-1.628-.049-.404.418-.065 1.582-.247 2.221-.553.23-1.916.237-2.468 0-.173-1.653-.129-3.779-.05-5.577.021-.477-.115-1.053.148-1.431.662-.051 1.74-.138 2.321.05z"/><path d="m58.26 18.826c.204.519.052 1.395.099 2.072.263.364 1.316.291 1.776.148.346-.477-.025-1.67.247-2.22.586-.262 1.656-.066 2.419-.05.294.773.112 1.684.099 2.616-.022 1.461.104 3-.05 4.392-.622.153-1.847.167-2.468 0-.333-.519.129-1.712-.247-2.27-.442-.08-1.186-.08-1.628 0-.337.595-.048 1.521-.247 2.221-.617.246-1.683.109-2.418.049-.259-1.546-.177-3.699-.099-5.478.024-.554-.122-1.15.148-1.579.683-.042 1.839-.172 2.369.099z"/><path d="m67.538 18.826c.298.491.041 1.539.197 2.171.28.305 1.191.209 1.678.148.413-.442.018-1.693.297-2.271.617-.179 1.871-.26 2.467 0 .091 1.948.12 4.813-.049 6.959-.617.15-1.805.165-2.418 0-.323-.467-.023-1.556-.198-2.172-.331-.258-1.316-.173-1.726-.049-.274.55-.011 1.635-.247 2.221-.66.184-1.788.11-2.418-.05-.179-1.039-.1-2.327-.1-3.553.001-1.229-.113-2.477.148-3.455.697-.07 1.744-.109 2.369.051z"/><path d="m76.718 18.826c.229.543-.005 1.55.147 2.171.327.3 1.263.225 1.728.099.358-.497-.064-1.775.296-2.27.604-.167 1.811-.153 2.418 0 .138 2.043.052 4.885 0 6.909-.539.252-1.853.194-2.468.049-.264-.525.065-1.643-.197-2.171-.341-.259-1.252-.159-1.678-.049-.348.475.027 1.672-.246 2.221-.565.224-1.906.239-2.468 0-.098-1.618-.05-3.57-.05-5.429 0-.548-.161-1.237.247-1.579.661-.068 1.682-.116 2.271.049z"/><path d="m2.542 27.956c.264.525-.064 1.643.197 2.171.3.287 1.366.276 1.727.049.276-.562-.1-1.778.247-2.27.685-.084 1.683-.077 2.369 0 .311.828.099 1.863.099 2.813-.001 1.432.204 2.97-.099 4.244-.614.153-1.807.163-2.419 0-.271-.568.097-1.774-.246-2.271-.439-.06-1.267-.126-1.629.05-.364.441.041 1.653-.247 2.171-.545.231-1.872.231-2.418 0-.18-2.167-.135-4.894 0-6.958.579-.21 1.745-.135 2.419.001z"/><path d="m11.82 27.956c.219.571.062 1.518.197 2.171.262.329 1.319.225 1.727.099.323-.516-.016-1.693.247-2.27.616-.168 1.797-.147 2.418 0 .238 2.065.133 5.016 0 7.057-.698.081-1.72.081-2.418 0-.216-.59-.018-1.595-.198-2.221-.326-.229-1.281-.2-1.678-.049-.453.485.047 1.697-.296 2.221-.604.155-1.815.164-2.418 0-.177-1.046-.099-2.302-.099-3.553 0-1.205-.115-2.482.148-3.455.585-.16 1.787-.16 2.37 0z"/><path d="m21.148 27.956c.271.567-.092 1.77.247 2.27.372.166 1.183.116 1.628.049.355-.484-.032-1.71.247-2.27.619-.149 1.922-.196 2.468.049.163 2.093.165 4.865 0 6.958-.618.165-1.848.156-2.468 0-.252-.554.052-1.664-.197-2.221-.363-.19-1.212-.214-1.628-.049-.396.427-.069 1.576-.247 2.221-.688.258-1.815.171-2.468 0-.177-1.562-.099-3.707-.099-5.527 0-.558-.121-1.222.296-1.53.63-.051 1.672-.138 2.221.05z"/><path d="m30.426 28.006c.342.481-.026 1.671.247 2.221.278.234 1.18.193 1.529.049.355-.484-.032-1.71.247-2.27.643-.159 1.891-.176 2.468.049.073 2.2.188 4.606 0 6.958-.607.281-1.629.084-2.468.049-.29-.577.015-1.518-.197-2.221-.356-.243-1.319-.201-1.629.049-.162.627.109 1.688-.197 2.171-.683.081-1.687.081-2.369 0-.3-1.295-.118-3.606-.099-5.231.008-.575-.143-1.574.149-1.826.036-.046.09-.075.148-.099.703.055 1.627-.112 2.171.101z"/><path d="m53.473 28.055c.265.991.148 2.301.148 3.553 0 1.243.107 2.516-.148 3.504-.692.059-1.803.131-2.418-.049-.263-.543.062-1.675-.197-2.221-.378-.177-1.225-.109-1.678-.049-.351.489.028 1.707-.247 2.27-.615.136-1.931.212-2.468-.049-.103-2.157-.119-4.781.05-6.958.599-.161 1.818-.161 2.418 0 .262.528-.066 1.646.197 2.171.38.25 1.306.263 1.728.049.293-.578-.146-1.89.296-2.319.663-.019 1.687-.07 2.319.098z"/><path d="m39.606 28.055c.239.567-.034 1.646.197 2.221.333.246 1.2.154 1.678.099.433-.523-.025-1.779.296-2.319.616-.155 1.804-.161 2.418 0 .163 2.112.165 4.896 0 7.008-.608.187-1.729.104-2.418.049-.344-.478.028-1.673-.246-2.221-.336-.248-1.329-.195-1.679 0-.333.489.022 1.667-.246 2.221-.699.066-1.795.123-2.419-.049-.175-1.427-.098-3.511-.099-5.33 0-.558-.089-1.476.149-1.678.036-.046.09-.075.147-.099.732.041 1.644-.099 2.222.098z"/><path d="m58.211 28.055c.368.487-.075 1.785.296 2.27.348.175 1.155.11 1.579.049.44-.432.005-1.739.296-2.319.655-.189 1.744-.104 2.419 0 .301 1.56.017 3.882.099 5.823.018.432.15.879-.099 1.234-.604.165-1.814.155-2.419 0-.253-.553.049-1.661-.197-2.221-.44-.185-1.416-.251-1.776.049-.151.605.076 1.589-.148 2.122-.669.204-1.778.236-2.468 0-.241-1.091-.033-2.361-.049-3.603-.016-1.19-.236-2.5.148-3.455.665-.054 1.732-.132 2.319.051z"/><path d="m67.538 28.104c.249.59-.055 1.732.247 2.27.425.142 1.227.176 1.628.049.362-.477.088-1.591.247-2.27.626-.205 1.838-.228 2.517 0 .051 2.207.147 4.883-.049 7.008-.604.155-1.815.165-2.418 0-.38-.548.105-1.706-.247-2.221-.367-.182-1.183-.103-1.629-.049-.349.474.024 1.669-.246 2.221-.605.263-1.835.168-2.468 0-.177-1.044-.1-2.302-.1-3.553.001-1.203-.116-2.485.148-3.455.589-.164 1.781-.155 2.37 0z"/><path d="m76.718 28.104c.271.568-.097 1.774.246 2.27.372.166 1.184.117 1.629.049.353-.503-.031-1.742.246-2.319.615-.161 1.854-.161 2.468 0 .199 1.066.037 2.319.05 3.553.013 1.201.203 2.487-.099 3.504-.733.039-1.894.16-2.419-.049-.241-.515.016-1.528-.147-2.122-.394-.223-1.392-.385-1.728-.049-.477.477.124 1.588-.246 2.221-.637.17-1.671.032-2.419 0-.132-1.309-.143-3.221-.147-4.787-.002-.592.004-1.946.197-2.27.036-.046.09-.075.147-.099.72.053 1.662-.115 2.222.098z"/><path d="m7.083 37.185c.262.995.148 2.259.148 3.504 0 1.211.078 2.477-.099 3.504-.627.149-1.793.164-2.418 0-.32-.469-.026-1.553-.197-2.171-.397-.288-1.255-.249-1.727-.049-.315.474-.027 1.552-.197 2.171-.609.186-1.729.104-2.419.049-.261-.978-.147-2.267-.147-3.504 0-1.236-.116-2.53.147-3.504.667-.055 1.783-.14 2.369.049.252.538-.047 1.626.197 2.171.352.224 1.309.201 1.727.049.251-.555-.053-1.664.197-2.221.714-.188 1.652-.123 2.419-.048z"/><path d="m11.869 37.234c.113.661.047 1.5.148 2.171.321.25 1.212.155 1.679.099.445-.512-.045-1.657.296-2.27.619-.14 1.925-.206 2.467.049.185 1.658.033 3.53.05 5.281.005.547.186 1.199-.099 1.678-.692.052-1.807.14-2.418-.049-.259-.548.056-1.668-.198-2.221-.425-.226-1.27-.16-1.727 0-.264.543.062 1.675-.198 2.221-.614.161-1.802.155-2.418 0-.251-.988-.148-2.262-.148-3.504 0-1.236-.116-2.529.148-3.504.698-.058 1.798-.132 2.418.049z"/><path d="m21.197 37.283c.146.626-.07 1.616.148 2.171.389.159 1.219.125 1.678.049.361-.462-.035-1.681.247-2.221.615-.161 1.854-.161 2.468 0 .134 2.128.213 4.961 0 6.958-.62.167-1.845.153-2.468 0-.256-.55.059-1.671-.197-2.221-.321-.24-1.283-.189-1.678-.049-.298.568.091 1.669-.247 2.27-.74.158-1.757.148-2.418-.049-.177-1.557-.099-3.585-.099-5.379 0-.588-.121-1.216.197-1.628.687-.044 1.834-.167 2.369.099z"/><path d="m30.426 37.283c.31.463.033 1.514.197 2.122.237.302 1.088.212 1.53.148.436-.42.004-1.707.296-2.271.603-.165 1.813-.155 2.418 0 .313 1.069.102 2.42.099 3.701-.002 1.142.249 2.406-.147 3.307-.671.059-1.777.135-2.369-.049-.258-.548.056-1.668-.197-2.221-.335-.163-1.191-.146-1.53 0-.353.469.031 1.676-.246 2.221-.609.187-1.73.105-2.419.049-.313-1.324-.102-3.783-.099-5.428.001-.549-.206-1.321.149-1.58.036-.046.09-.075.148-.099.702.055 1.626-.112 2.17.1z"/><path d="m48.933 37.283c.244.562-.042 1.654.197 2.221.407.247 1.14.094 1.678.05.327-.479.025-1.589.197-2.221.62-.296 1.731-.095 2.468-.049.324.846.071 1.939.099 2.912.039 1.355.194 2.873-.099 4.096-.614.151-1.768.083-2.418-.049-.262-.528.066-1.646-.197-2.171-.316-.239-1.29-.192-1.678-.049-.357.465.036 1.682-.247 2.221-.549.22-1.875.243-2.418 0-.164-2.076-.165-4.833 0-6.909.649-.147 1.756-.233 2.418-.052z"/><path d="m37.335 37.234c.735.054 1.694-.115 2.271.099.274.548-.094 1.739.246 2.221.381.148 1.301.163 1.679 0 .276-.562-.101-1.778.246-2.271.689-.055 1.81-.137 2.418.049.196 2.092.1 4.735.05 6.909-.55.242-1.846.202-2.468.049-.292-.563.024-1.53-.197-2.221-.356-.238-1.245-.175-1.678-.049-.405.45-.023 1.688-.296 2.27-.612.148-1.88.195-2.419-.049-.161-2.061-.166-4.799 0-6.86.028-.07.077-.119.148-.147z"/><path d="m58.26 37.382c.242.515-.015 1.528.148 2.122.413.277 1.18.176 1.727.099.317-.489.029-1.584.198-2.221.578-.242 1.934-.22 2.517 0 .211.47.051 1 .05 1.53-.006 1.797.168 3.83-.099 5.429-.631.142-1.861.193-2.419-.049-.262-.527.066-1.646-.197-2.171-.3-.244-1.305-.194-1.678-.049-.359.463.034 1.679-.247 2.221-.606.153-1.813.167-2.418 0-.282-1.27-.094-2.986-.099-4.54-.003-.877-.182-1.743.099-2.418.599-.147 1.894-.204 2.418.047z"/><path d="m67.538 37.382c.237.518.053 1.455.197 2.172.287.297 1.307.247 1.728.099.251-.555.063-1.548.197-2.221.574-.238 1.94-.227 2.517 0 .052 2.216.134 4.768 0 6.86-.548.259-1.891.19-2.517.049-.103-.67-.039-1.507-.149-2.171-.339-.234-1.385-.218-1.726 0-.264.526.063 1.644-.197 2.171-.62.167-1.846.154-2.468 0-.174-1.051-.1-2.301-.1-3.553.001-1.205-.113-2.477.148-3.455.682-.056 1.768-.134 2.37.049z"/><path d="m76.718 37.382c.259.563-.078 1.723.246 2.221.357.157 1.271.157 1.629 0 .358-.464-.038-1.683.246-2.221.619-.165 1.849-.156 2.468 0 .164 2.078.164 4.831 0 6.909-.587.187-1.899.268-2.468 0-.241-.515.016-1.528-.147-2.122-.31-.26-1.219-.148-1.678-.099-.436.42-.004 1.707-.296 2.27-.604.14-1.891.206-2.419-.049-.176-1.395-.099-3.441-.099-5.231 0-.546-.095-1.493.149-1.678.036-.046.09-.075.147-.099.725.05 1.655-.108 2.222.099z"/><path d="m2.542 46.463c.25.54-.051 1.63.197 2.172.381.24 1.361.286 1.777.049.167-.639-.117-1.729.197-2.221.599-.161 1.819-.161 2.418 0 .164 2.111.164 4.897 0 7.008-.614.161-1.853.161-2.468 0-.256-.55.063-1.675-.197-2.221-.31-.253-1.291-.182-1.678-.05-.3.508.096 1.701-.247 2.271-.587.165-1.779.155-2.369 0-.313-1.424-.101-4.129-.098-5.824 0-.447-.179-.983.148-1.185.036-.046.09-.075.148-.099.716.042 1.612-.096 2.172.1z"/><path d="m11.82 46.463c.358.465-.037 1.682.247 2.221.294.26 1.186.148 1.629.099.426-.445.012-1.732.296-2.32.626-.142 1.916-.201 2.467.05.166 1.029.093 2.249.099 3.455.007 1.21.111 2.508-.147 3.553-.612.163-1.804.153-2.418 0-.275-.564.097-1.775-.247-2.27-.414-.218-1.141-.147-1.629-.05-.36.512.06 1.803-.296 2.32-.703.132-1.682.16-2.369 0-.236-1.391-.148-3.218-.148-4.886 0-.786-.137-1.621.197-2.221.665-.056 1.733-.134 2.319.049z"/><path d="m21.197 46.512c.145.662-.078 1.69.197 2.221.381.148 1.301.164 1.678 0 .259-.548-.056-1.668.197-2.221.623-.153 1.848-.167 2.468 0 .164 2.125.164 4.932 0 7.057-.631.152-1.907.188-2.468-.049-.218-.555-.001-1.546-.147-2.171-.286-.317-1.299-.229-1.728-.099-.277.562-.005 1.672-.247 2.27-.594.186-1.695.105-2.368.049-.261-.994-.148-2.359-.148-3.652 0-.618 0-1.271 0-1.875 0-.589-.147-1.268.246-1.629.677-.05 1.792-.157 2.32.099z"/><path d="m30.476 46.512c.249.557-.055 1.667.197 2.221.3.226 1.16.191 1.529.049.375-.498-.076-1.821.296-2.32.699-.049 1.869-.163 2.419.099.127 1.972.188 4.889 0 7.008-.626.157-1.843.161-2.468 0-.261-.562.062-1.708-.197-2.27-.353-.167-1.222-.141-1.579 0-.277.562.106 1.785-.247 2.27-.593.159-1.776.159-2.369 0-.351-1.417-.036-3.611-.099-5.429-.02-.613-.175-1.379.149-1.628.036-.046.09-.075.148-.099.726.047 1.651-.105 2.221.099z"/><path d="m53.523 46.562c.163 2.11.164 4.898 0 7.008-.542.242-1.764.113-2.418 0-.321-.469-.026-1.553-.197-2.172-.299-.329-1.279-.208-1.728-.099-.347.492.029 1.708-.247 2.27-.6.161-1.819.161-2.418 0-.163-2.11-.165-4.898 0-7.008.599-.161 1.818-.161 2.418 0 .258.532-.06 1.639.197 2.171.332.239 1.323.193 1.728.049.289-.583-.135-1.878.296-2.32.741-.078 1.711-.057 2.369.101z"/><path d="m39.606 46.562c.243.563-.033 1.645.197 2.221.344.215 1.32.213 1.728.049.232-.606-.006-1.683.246-2.27.6-.161 1.819-.161 2.418 0 .165 2.126.163 4.931 0 7.057-.623.144-1.799.169-2.418 0-.206-.6-.06-1.552-.197-2.221-.315-.243-1.339-.195-1.728-.049-.253.586.06 1.738-.246 2.27-.643.149-1.845.18-2.419-.049-.175-1.426-.098-3.513-.099-5.33 0-.558-.089-1.476.149-1.678.036-.046.09-.075.147-.099.724.049 1.655-.108 2.222.099z"/><path d="m58.211 46.562c.328.461.021 1.558.197 2.171.271.331 1.239.194 1.727.148.351-.505-.027-1.739.247-2.319.667-.146 1.776-.086 2.468.049.146 2.078.165 4.799 0 7.008-.582.231-1.786.125-2.468 0-.236-.537.012-1.558-.148-2.171-.293-.304-1.297-.238-1.727-.099-.358.465.037 1.682-.247 2.221-.555.228-1.914.239-2.468 0-.102-1.965-.121-4.766.05-7.008.608-.144 1.765-.17 2.369 0z"/><path d="m67.588 46.66c.252.554-.058 1.669.197 2.221.437.179 1.146.172 1.628.049.438-.451-.033-1.811.346-2.319.68-.084 1.688-.079 2.369 0 .294.537.101 1.23.099 1.875-.005 1.735.127 3.672-.099 5.182-.615.181-1.726.108-2.418.049-.24-.583.026-1.671-.198-2.27-.411-.251-1.148-.103-1.678-.05-.375.48.079 1.791-.296 2.271-.616.152-1.872.188-2.418-.049-.221-1.437-.055-2.993-.05-4.442.003-.889-.191-1.849.148-2.615.706-.055 1.807-.148 2.37.098z"/><path d="m76.767 46.66c.131.642-.044 1.59.148 2.171.359.201 1.377.246 1.727 0 .264-.543-.062-1.675.197-2.221.617-.151 1.805-.166 2.419 0-.009.042.019.046.049.049.167 2.192.123 4.805 0 6.958-.653.234-1.774.173-2.468 0-.265-.542.066-1.678-.197-2.221-.377-.163-1.297-.148-1.678 0-.236.603.022 1.701-.246 2.271-.614.153-1.807.163-2.419 0-.178-1.58-.099-3.661-.099-5.478 0-.586-.131-1.224.197-1.628.687-.045 1.835-.167 2.37.099z"/><path d="m2.542 55.79c.264.526-.064 1.643.197 2.171.335.242 1.32.189 1.727.049.27-.553-.097-1.742.247-2.221.584-.161 1.785-.161 2.369 0 .287.934.112 2.004.099 3.059-.018 1.302.176 2.764-.099 3.998-.689.056-1.809.137-2.419-.049-.269-.537.072-1.684-.197-2.221-.294-.26-1.185-.147-1.628-.099-.438.435-.001 1.743-.296 2.321-.604.167-1.81.153-2.418 0-.176-1.044-.099-2.302-.099-3.553 0-1.203-.116-2.485.147-3.455.589-.164 1.781-.155 2.37 0z"/><path d="m11.82 55.79c.238.518-.011 1.524.149 2.122.294.364 1.23.263 1.727.148.383-.472.038-1.673.296-2.27.655-.134 1.785-.096 2.467.049.103 2.182.072 4.676 0 6.958-.587.251-1.919.206-2.517 0-.142-.632-.042-1.504-.148-2.171-.338-.305-1.426-.264-1.776 0-.279.59.102 1.699-.197 2.171-.592.184-1.698.108-2.369.049-.256-.472-.148-1.116-.148-1.727 0-1.203 0-2.488 0-3.751 0-.574-.122-1.22.197-1.628.665-.055 1.733-.132 2.319.05z"/><path d="m21.148 55.84c.26.531-.058 1.637.197 2.171.313.231 1.297.203 1.678.05.346-.478-.024-1.67.247-2.221.649-.139 1.943-.202 2.517.049.05 2.19.146 4.851-.05 6.958-.722.183-1.835.209-2.468 0-.285-.554.112-1.79-.247-2.27-.347-.175-1.155-.11-1.578-.049-.441.432-.006 1.739-.297 2.319-.624.141-1.919.204-2.468-.049-.05-2.19-.146-4.85.05-6.958.67-.151 1.794-.243 2.419 0z"/><path d="m55.99 55.84c.728.029 1.573-.061 2.221.049.315.475.029 1.549.197 2.172.279.326 1.184.189 1.678.147.421-.434.013-1.697.296-2.27.607-.168 1.809-.149 2.419 0 .233 1.987.091 4.64.049 6.958-.546.272-1.839.171-2.468.049-.264-.575.087-1.764-.247-2.27-.408-.149-1.388-.182-1.727.049-.128.679.034 1.646-.197 2.221-.683.082-1.687.082-2.369 0-.235-1.045-.148-2.375-.148-3.948 0-1.064-.042-2.449.148-3.06.036-.045.09-.073.148-.097z"/><path d="m76.767 56.037c.135.589-.034 1.482.099 2.073.327.3 1.263.226 1.728.099.351-.504-.06-1.77.296-2.27.707-.185 1.706-.076 2.369 0 .26.99.099 2.22.099 3.455 0 1.222.079 2.501-.099 3.553-.604.156-1.815.165-2.419 0-.268-.554.087-1.731-.246-2.221-.357-.157-1.271-.157-1.629 0-.365.457.043 1.688-.246 2.221-.64.165-1.834.142-2.419.049-.297-2.08-.112-4.854 0-7.008.697-.123 1.907-.272 2.467.049z"/><path d="m65.317 55.889c.72.054 1.661-.115 2.221.099.334.489-.021 1.667.247 2.221.361.176 1.189.11 1.628.05.397-.458.026-1.684.297-2.271.604-.155 1.814-.164 2.418 0 .201 1.965.139 4.851 0 6.958-.552.252-1.79.184-2.418.049-.281-.509-.051-1.529-.198-2.171-.281-.304-1.374-.266-1.726-.049-.35.583.099 1.659-.247 2.221-.683.069-1.725.131-2.418-.049-.176-1.402-.1-3.467-.1-5.28.001-.582-.078-1.456.148-1.678.036-.047.09-.076.148-.1z"/><path d="m2.542 65.069c.249.541-.041 1.621.197 2.171.296.279 1.374.287 1.727.049.273-.549-.095-1.74.247-2.221.62-.159 1.797-.155 2.418 0 .231 1.389.05 3.036.05 4.54 0 .876.21 1.793-.099 2.517-.689.055-1.809.137-2.419-.049-.236-.537.012-1.558-.148-2.172-.346-.32-1.345-.219-1.777-.049-.253.553.062 1.673-.197 2.221-.599.161-1.819.161-2.418 0-.165-2.13-.178-4.943.049-7.008.602-.15 1.771-.165 2.37.001z"/><path d="m9.6 65.019c.728.029 1.574-.061 2.221.05.307.482.035 1.543.197 2.171.26.327 1.203.197 1.679.148.463-.424-.046-1.823.345-2.319.67-.059 1.777-.135 2.369.049.26 2.145.12 4.859 0 7.008-.608.096-1.724.185-2.418 0-.281-.591.12-1.864-.296-2.32-.472-.061-1.35-.143-1.679.099-.105.668-.006 1.54-.148 2.172-.71.199-1.791.199-2.467.049-.172-2.195-.15-4.975.049-7.008.035-.046.089-.075.148-.099z"/><path d="m21.148 65.117c.26.563-.073 1.719.247 2.221.387.167 1.218.116 1.678.049.261-.546-.059-1.671.197-2.221.641-.244 1.611-.09 2.468-.05.165 2.127.163 4.931 0 7.058-.638.13-1.908.21-2.468-.049-.233-.54.007-1.553-.147-2.171-.35-.308-1.348-.234-1.777-.05-.253.553.061 1.673-.197 2.221-.599.161-1.818.161-2.418 0-.178-1.043-.099-2.303-.099-3.553 0-1.204-.117-2.485.148-3.455.586-.164 1.779-.154 2.368 0z"/><path d="m58.26 65.266c.251.522-.052 1.598.197 2.122.332.238 1.206.161 1.678.099.355-.484-.032-1.71.247-2.271.662-.212 1.674-.022 2.419 0 .263 1.424.122 3.202.147 4.788.013.813.032 1.6-.147 2.27-.644.15-1.665.043-2.419 0-.25-.556.044-1.656-.197-2.221-.33-.308-1.204-.204-1.678-.099-.351.488.029 1.707-.247 2.27-.614.153-1.806.163-2.418 0-.31-1.381-.099-3.505-.099-5.281 0-.555-.096-1.54.148-1.728.036-.046.09-.075.148-.099.724.068 1.731-.149 2.221.15z"/><path d="m67.538 65.266c.344.479-.023 1.668.247 2.221.373.157 1.184.125 1.628.049.448-.407-.004-1.715.297-2.27.615-.155 1.803-.161 2.418 0 .161 2.113.165 4.896 0 7.008-.602.152-1.82.169-2.418 0-.217-.573-.064-1.515-.198-2.171-.324-.252-1.325-.183-1.726-.049-.25.572.063 1.709-.247 2.221-.587.164-1.78.155-2.369 0-.263-.991-.148-2.288-.148-3.504.001-1.249-.041-2.486.148-3.504.587-.166 1.779-.156 2.368-.001z"/><path d="m76.718 65.266c.246.543-.039 1.618.197 2.171.32.223 1.291.208 1.678.049.36-.462-.035-1.681.246-2.221.609-.187 1.73-.105 2.419-.05.254 2.095.12 4.868 0 7.058-.62.159-1.798.155-2.419 0-.263-.576.087-1.765-.246-2.27-.39-.171-1.229-.128-1.629 0-.322.484-.027 1.584-.197 2.221-.554.245-1.841.197-2.468.049-.178-1.043-.099-2.302-.099-3.553 0-1.203-.116-2.485.149-3.454.583-.161 1.785-.161 2.369 0z"/><path d="m.321 74.297c.716.058 1.667-.121 2.221.099.258.516-.056 1.602.197 2.122.317.292 1.396.271 1.777.049.153-.652-.095-1.706.197-2.221.68-.079 1.689-.084 2.369 0 .264.993.148 2.301.148 3.553 0 1.241.098 2.512-.148 3.504-.611.149-1.811.168-2.419 0-.273-.583.099-1.809-.246-2.319-.439-.061-1.267-.127-1.629.049-.363.476.038 1.716-.247 2.27-.607.159-1.81.159-2.418 0-.168-2.155-.168-5.05.049-7.008.037-.045.092-.074.149-.098z"/><path d="m11.869 74.396c.216.588-.061 1.546.198 2.171.308.247 1.177.156 1.629.099.423-.432.014-1.696.296-2.27.619-.14 1.925-.207 2.467.049.119 2.115.107 4.805-.049 6.958-.615.161-1.853.161-2.468 0-.077-.679-.104-1.409-.099-2.171-.297-.32-1.336-.227-1.776-.099-.249.59-.02 1.659-.247 2.27-.599.161-1.819.161-2.418 0-.216-1.457-.068-3.594-.05-5.379.007-.598-.168-1.389.148-1.629.036-.046.09-.075.148-.099.72.055 1.663-.114 2.221.1z"/><path d="m21.197 74.445c.148.642-.083 1.663.197 2.171.377.177 1.224.109 1.678.049.268-.554-.086-1.732.247-2.221.602-.165 1.813-.155 2.418 0 .165 2.111.162 4.896 0 7.008-.617.178-1.724.11-2.418.049-.324-.498-.026-1.619-.197-2.27-.395-.299-1.294-.206-1.777-.049-.253.553.061 1.673-.197 2.221-.714.19-1.741.19-2.468 0-.089-1.653-.049-3.621-.049-5.429 0-.578-.125-1.212.197-1.628.692-.05 1.826-.159 2.369.099z"/><path d="m55.99 74.445c.735.054 1.694-.115 2.27.099.256.535-.057 1.636.197 2.171.466.17 1.183.166 1.678.049.346-.477-.025-1.671.247-2.221.621-.166 1.846-.153 2.468 0 .186 2.209.121 4.777-.049 7.008-.625.164-1.791.148-2.419 0-.256-.566.056-1.7-.197-2.27-.392-.163-1.214-.119-1.678-.049-.393.556.035 1.64-.296 2.27-.584.161-1.786.161-2.369 0-.278-.921-.144-2.1-.099-3.405.039-1.142-.106-2.789.099-3.553.036-.046.09-.075.148-.099z"/><path d="m67.538 74.544c.266.557.012 1.633.247 2.221.325.249 1.274.178 1.678.049.338-.484-.02-1.665.247-2.221.604-.155 1.814-.164 2.418 0 .164 2.093.164 4.866 0 6.959-.609.187-1.729.105-2.418.05-.332-.508.02-1.698-.247-2.271-.371-.157-1.307-.157-1.678 0-.235.605.016 1.694-.247 2.271-.692.059-1.804.131-2.418-.05-.16-1.646-.1-3.602-.1-5.428.001-.569-.156-1.267.247-1.629.706-.112 1.602-.035 2.271.049z"/><path d="m76.767 74.593c.152.621-.077 1.624.148 2.171.382.172 1.22.113 1.678.049.371-.484-.072-1.783.296-2.27.602-.165 1.813-.155 2.418 0 .177 1.046.1 2.302.1 3.553 0 1.205.114 2.482-.148 3.455-.604.156-1.815.165-2.419 0-.242-.563.033-1.645-.197-2.221-.36-.222-1.366-.222-1.727 0-.257.549.059 1.671-.197 2.221-.615.181-1.727.109-2.419.05-.204-1.088-.099-2.656-.099-4.146 0-1.05-.149-2.159.197-2.961.712.015 1.744-.198 2.369.099z"/></g></svg>