<svg enable-background="new 0 0 78.297 52.499" viewBox="0 0 78.297 52.499" xmlns="http://www.w3.org/2000/svg"><g clip-rule="evenodd" fill-rule="evenodd"><path d="m.387 0c9.481.037 18.6-.057 27.997.193.263 1.037.146 2.133.145 3.187 0 12.172-.1 23.605-.096 35.865.001 4.348.115 8.664-.146 12.938-8.831.164-17.645-.047-26.742-.049-.51 0-1.147.162-1.545-.242.415-.594 1.377-.604 2.124-.82 5.128-1.488 9.289-4.314 12.454-7.916 3.468-3.949 6.18-9.805 6.179-17.137 0-7.293-2.969-12.918-6.42-16.895-3.414-3.936-7.751-6.713-13.42-8.4-.229-.068-.884-.122-.724-.626.072-.026.121-.073.194-.098z"/><path d="m78.297.484c-.407.627-1.359.616-2.075.87-4.991 1.762-8.979 4.545-12.213 8.109-3.881 4.463-6.995 11.125-6.228 19.598.233 2.578.838 4.914 1.689 7 2.47 6.045 6.908 10.75 12.503 13.709 1.425.754 2.927 1.455 4.586 1.93.49.143 1.203.086 1.544.629-1.117.262-2.302.145-3.476.145-7.071 0-14.107-.049-21.287-.049-1.127 0-2.298.057-3.38-.193-.125-14.826-.001-30.56 0-45.808 0-1.09-.002-2.17.049-3.234.048-1.004-.255-2.068.193-2.994 8.683.02 17.632.098 26.549.098.499-.003 1.113-.149 1.546.19z"/><path d="m39.004 16.559c3.081-.053 5.542 1.246 7.192 2.896 1.975 1.975 3.603 5.938 2.413 9.703-1.292 4.088-5.656 8.078-11.441 6.853-2.389-.506-4.368-1.945-5.744-3.668-1.1-1.377-2.021-3.322-2.075-5.744-.019-.797.083-1.674.289-2.463.188-.717.376-1.49.628-2.123.559-1.404 1.931-2.836 3.282-3.766 1.311-.901 3.243-1.651 5.456-1.688z"/></g></svg>