<svg enable-background="new 0 0 22.691 43.35" viewBox="0 0 22.691 43.35" xmlns="http://www.w3.org/2000/svg"><path d="m13.771.002c.263.005.526-.01.788.006.043 14.04.066 28.08.078 42.121-.263.009-.527.005-.79.002-.019-6.859-.02-13.718-.044-20.577-2.009-.017-4.018.01-6.027.035-.042-.008-.065.006-.069.043-.008 1.754.019 3.51-.008 5.263-.263-.009-.526-.003-.789-.004-.012-8.952-.036-17.907-.043-26.857.263-.009.527-.008.79-.002.04 6.908.01 13.822.05 20.73 2.027.028 4.066-.057 6.099-.023-.01-6.911-.029-13.825-.035-20.737z"/><path d="m8.486 1.025c.118-.004.237-.006.356-.007.05 5.671.002 11.35.047 17.022-.027.638.039 1.286-.024 1.919-.118-.003-.236 0-.353 0 .006-6.315-.027-12.621-.026-18.934z"/><path d="m15.366 1.013c.131.029.432-.094.4.128.012 14.06.065 28.118.06 42.18-.394.004-.789.008-1.183-.003-.013-.12-.012-.241-.009-.361.265-.003.531.009.797-.002-.016-13.98-.036-27.96-.065-41.942z"/><path d="m20.689 6.899c.259-.004.517-.004.776-.002.036 9.463.056 18.928.051 28.391-.268-.007-.535.005-.803-.003.004-2.266-.005-4.531-.001-6.797-1.369-.009-2.739.012-4.108-.004-.009-.266-.019-.533.002-.798 1.336-.023 2.674-.017 4.01-.017.029-.007.097.011.094-.037-.018-6.908-.044-13.828-.021-20.733z"/><path d="m0 6.948c.264-.038.53.01.795 0 .011 6.9.035 13.794.038 20.694-.005.032.008.055.039.069 4.032.008 8.064-.029 12.097-.039.096.221.025.537.037.794-4.057.041-8.115.05-12.173.059-.002 2.263.004 4.528.002 6.79-.263.006-.525.001-.788.002-.021-9.459-.026-18.912-.047-28.369z"/><path d="m22.285 7.896c.118-.004.237-.004.356.004.025 9.524.043 19.054.049 28.578-.387.006-.773-.007-1.159.012-.018-.131-.015-.262.003-.392.262-.016.525-.002.787-.007.004-9.401-.039-18.797-.036-28.195z"/><path d="m1.601 7.948c.129.004.27-.035.39.03-.004 5.504-.003 11.019.018 16.522-.01.796.041 1.598-.018 2.393-.12.001-.24.001-.36.003-.012-6.316-.029-12.631-.03-18.948z"/><path d="m8.535 22.413c1.489-.024 2.98-.051 4.467-.035.012.123.011.247.005.37-1.371.001-2.747-.013-4.114.049-.002 1.344.009 2.688 0 4.031-.06.118-.245.035-.358.062.014-1.493-.043-2.986 0-4.477z"/><path d="m1.812 29.292c3.732.018 7.466-.025 11.195-.031.031.121.035.25-.018.366-3.657.015-7.312.041-10.969.056-.005 2.237.001 4.473.001 6.709.001.062-.015.146-.097.129-.364-.009-.731.022-1.093-.015.007-.125-.005-.25.009-.374.266.013.532-.021.798-.015-.003-2.243-.003-4.486-.005-6.729-.02-.109.108-.098.179-.096z"/><path d="m16.597 29.292c1.141-.042 2.312-.055 3.451.003-.002.111.004.222-.016.332-1.143.004-2.286.031-3.429.015-.006-.116-.003-.233-.006-.35z"/><path d="m6.919 30.466c.263-.011.53-.029.791.007.001 3.896.047 7.794.006 11.69-.259-.006-.518.004-.777-.003-.008-3.9-.036-7.796-.02-11.694z"/><path d="m8.544 30.451c.118.003.236-.002.355-.002.003 4.284.035 8.569.015 12.855-.369.086-.786.022-1.174.04-.009-.119-.008-.238-.003-.356.268-.014.537.009.805-.015.008-4.172-.02-8.349.002-12.522z"/></svg>