<svg enable-background="new 0 0 64.806 77.324" viewBox="0 0 64.806 77.324" xmlns="http://www.w3.org/2000/svg"><g clip-rule="evenodd" fill-rule="evenodd"><path d="m64.496.164c.204 9.551.143 19.109.144 28.818.001 9.495.095 19.241.096 28.675 0 5.786.047 11.38.047 17.062 0 .763.108 1.556-.143 2.294-5.051.143-11.271.143-16.249.048-.177-18.535-.24-36.188-.239-54.578.001-2.584.106-5.188-.143-7.694-1.093-.255-2.522-.143-3.871-.143-1.372 0-2.757-.087-3.824.096-.238 1.526-.169 3.234-.143 4.97.074 4.811.12 9.995-.048 14.863-5.04.163-10.659.265-15.532 0-.139-11.464-.197-23.17-.048-34.362 1.236-.248 2.516-.155 3.776-.096 1.256.06 2.527-.082 3.775-.048 2.581.072 5.154.001 7.742 0 2.424 0 4.892.078 7.36 0 5.871-.184 11.502.054 17.3.095z"/><path d="m16.227.212c.22 19.824.238 40.09.239 60.265 0 .595-.106 1.253.144 1.816 2.431.196 5.369.084 7.79-.048.311-.678.176-1.498.191-2.246.107-5.396-.254-11.631.048-17.253 4.99-.176 10.281-.1 15.436-.048.257.608.166 1.304.144 1.96-.072 2.072.048 4.321.048 6.547 0 8.736.108 17.68 0 25.808-1.57.229-3.193.143-4.827.143-8.466.001-16.693.093-25.186.096-2.541.001-5.083.048-7.552.048-.806 0-1.631.11-2.39-.144-.261-1.537-.095-3.117-.095-4.684 0-10.952-.111-22.474-.144-33.646-.034-11.981-.047-24.203-.047-36.272 0-.765-.116-1.558.143-2.294 5.045-.168 11.062-.233 16.058-.048z"/></g></svg>