<svg enable-background="new 0 0 10.114 13.869" viewBox="0 0 10.114 13.869" xmlns="http://www.w3.org/2000/svg"><path d="m.02.001c1.332.022 2.665.006 3.997.012-.007.816.016 1.633-.015 2.449.003.491-.003.982.002 1.474l.039.039c.682.008 1.364.001 2.047.003.004-1.321-.007-2.642.006-3.964.271-.022.542-.011.814-.013 1.053.002 2.107-.005 3.16.003.009.009.026.025.035.034.011.633-.006 1.268.009 1.902-.009.009-.027.027-.036.036-.661-.016-1.321-.004-1.98-.007-.005 1.322.012 2.643.007 3.965-2.025.011-4.05.013-6.075.011-.012-.628.016-1.257-.019-1.885.002-.693-.001-1.387.001-2.08-.67-.004-1.341 0-2.011-.002.003-.659-.006-1.318.019-1.977z"/><path d="m2.03 7.954c.752-.008 1.505.018 2.257-.018 1.266-.001 2.532.005 3.798-.003.016.074.023.151.022.227-.003 1.244-.01 2.489-.01 3.733.022.005.066.016.088.021.641.011 1.284-.017 1.924.014 0 .603-.003 1.207.007 1.811-.005.032-.016.096-.021.128-1.334-.019-2.669-.007-4.004-.01-.004-1.318.007-2.636.004-3.953-.692.001-1.384.001-2.075 0-.002 1.223 0 2.446-.001 3.669-.001.095-.014.188-.02.283-1.331.026-2.662.005-3.993.012.003-.65-.016-1.301.011-1.95.665-.017 1.331-.001 1.996-.008.01-.717-.016-1.435.018-2.15-.003-.603-.005-1.204-.001-1.806z"/></svg>