<svg enable-background="new 0 0 64.592 80.142" viewBox="0 0 64.592 80.142" xmlns="http://www.w3.org/2000/svg"><g clip-rule="evenodd" fill-rule="evenodd"><path d="m64.373.127c.228.969.151 2.228.151 3.432-.001 1.202.116 2.437-.151 3.381-9.397.191-19.012.102-28.312.101-9.472 0-19.101.223-28.516-.101-.174-1.002-.101-3.601-.101-5.35 0-.874-.169-1.456.454-1.564.464-.081 1.171.051 1.766.051 17.735.001 37.221-.051 54.709.05z"/><path d="m64.373 12.24c.268.949.151 2.217.151 3.432-.001 1.199.118 2.449-.151 3.381-9.472.083-18.769.276-28.212.151-9.27-.122-19.197.211-28.616-.151-.182-1.514-.101-3.542-.101-5.299 0-.563-.13-1.184.202-1.564 18.828.095 38.107-.177 56.727.05z"/><path d="m64.424 24.453c.166 2.026.168 4.737 0 6.763-9.47.059-19.049.376-28.465.151-3.541-.085-7.133.148-10.648 0-1.184-.05-2.363.105-3.533.05-4.738-.224-9.52.185-14.233-.202-.164-2.027-.169-4.737 0-6.763 12.27-.033 25.282-.101 37.801-.101 6.373.002 12.699-.084 19.078.102z"/><path d="m64.424 36.616c.166 2.04.168 4.773 0 6.813-9.405.167-18.9.15-28.414.151-9.469.001-19.038.123-28.414-.151-.262-2.031-.133-4.724-.051-6.813 17.613-.136 35.463-.151 53.346-.151 1.17 0 2.381-.12 3.533.151z"/><path d="m64.424 48.779c.121 2.104.256 4.812 0 6.813-4.609.227-9.443.151-14.283.152-14.013 0-28.847.008-42.949.101-.266 1.331-.193 3.485-.051 4.896 1.1.295 2.266.172 3.383.202 3.579.096 7.228-.174 10.9 0 4.618.218 9.457 0 14.182 0 9.676 0 19.355-.097 28.818.05.18 2.037.16 4.684 0 6.813-17.953.207-35.735.152-53.851.152-1.128-.001-2.286-.119-3.382.101-.176 1.327-.19 3.377-.051 4.845 1.139.309 2.314.104 3.483.151 3.496.14 7.197-.048 10.852.05 4.73.128 9.515 0 14.282 0 8.475 0 16.834-.051 25.285-.05 1.13 0 2.316-.124 3.432.151.096 1.179.057 2.365.051 3.533-.007 1.105.231 2.303-.151 3.28-10.602.175-21.436.102-32.25.101-10.768 0-21.557.119-31.996-.202-.185-9.552-.103-19.643-.102-29.423 0-.587-.117-1.255.151-1.817 20.909.153 43.167-.091 64.247.101z"/></g></svg>