<svg enable-background="new 0 0 66.961 80.464" viewBox="0 0 66.961 80.464" xmlns="http://www.w3.org/2000/svg"><path clip-rule="evenodd" d="m41.316.213c.116.453-.396.697-.655.957-.796.797-1.659 1.689-2.467 2.517-5.946 5.778-11.642 11.791-17.52 17.671-1.946 1.947-4.012 3.774-5.789 5.891.036 3.899-.19 8.138.05 12.133 3.422.204 7.332.186 10.874.101.388-.93.165-2.054.202-3.121.104-3.015.016-6.423.05-9.717 7.506-7.883 15.288-15.487 22.957-23.209.504-.61 1.064-1.014 1.661-1.61.44-.44 1.083-1.384 1.712-1.561.972-.273 2.459 0 3.574 0 3.559 0 7.68-.101 10.875.151.188 3.141.101 6.571.1 10.019-.001 9.943-.052 19.947-.1 30.257-3.27 3.42-6.809 6.555-10.17 9.917-.563.563-1.172 1.074-1.763 1.611-.58.527-.992 1.222-1.661 1.661-3.983.036-8.161-.206-12.233.051-.239.941-.134 1.973-.15 3.021-.034 2.033-.001 4.201 0 6.443 0 1.014.171 2.342-.051 3.223-.165.653-1.219 1.331-1.762 1.862-3.064 3-6.172 5.811-9.264 8.71-.933.875-1.836 1.719-2.768 2.617-.266.256-.562.693-1.007.655-.211-8.443.138-17.968-.151-26.382-.814-.25-1.749-.201-2.668-.201-2.698 0-5.659-.04-8.257.051-.266.95-.151 2.007-.151 3.07 0 3.111.024 6.493-.05 9.465-.386.776-1.126 1.276-1.712 1.863-.596.596-1.11 1.272-1.813 1.762-3.136 3.074-6.406 6.016-9.616 9.062-.446.425-.888.974-1.51 1.158-.152-13.17-.05-26.96-.051-40.225 0-3.118.051-6.639.051-10.17 0-1.146-.179-2.529.051-3.373.147-.542 1.02-1.221 1.561-1.762 2.76-2.76 5.449-5.499 8.206-8.257 2.136-2.136 4.291-4.492 6.494-6.695 2.762-2.762 5.392-5.342 8.256-8.206.573-.572 1.2-1.47 1.964-1.561 1.152-.138 2.468 0 3.726 0 3.537 0 7.541.068 10.975.151zm-8.81 1.459c-1.663-.054-3.701-.19-5.286 0-.589.071-1.163.75-1.662 1.259-3.165 3.233-6.187 6.368-9.363 9.364-1.901 1.793-3.515 3.715-5.236 5.436-1.817 1.818-3.514 3.66-5.336 5.387-.788.714-1.571 1.552-2.266 2.316-.224.246-.683.446-.604.856 3.287.237 6.801.117 10.371.151 4.224-3.915 8.164-8.113 12.234-12.183 3.562-3.563 7.149-7.2 10.672-10.724.498-.498 1.153-.957 1.41-1.662-1.58-.222-3.245-.145-4.934-.2zm27.689.202c-1.76 0-3.536-.102-5.085-.05-.342.012-.946-.011-1.259.201-.057 12.395-.225 25.817-.051 37.406 3.476.233 7.733.219 11.277.05.307-.674.201-1.432.201-2.164.001-11.931.147-23.62-.05-35.292-1.521-.27-3.286-.151-5.033-.151zm-8.308 1.057c-.06.024-.113.054-.15.101-7.322 7.175-14.581 14.634-21.799 21.85-.465.464-1.149.92-1.259 1.561 3.363.194 7.018.099 10.521.151 2.217-1.939 4.259-4.184 6.545-6.444 1.59-1.572 3.204-3.254 4.833-4.884.482-.481 1.401-1.159 1.561-1.711.201-.699.038-1.76.051-2.568.035-2.295 0-4.691 0-6.897 0-.376.148-.942-.252-1.158-.016-.001-.034-.001-.051-.001zm0 13.442c-.529.366-1.022.914-1.561 1.41-.482.445-.961.948-1.359 1.359-2.279 2.354-4.351 4.502-6.746 6.847-.41.401-1.164 1.018-1.259 1.46-.16.759-.013 1.831 0 2.719.096 6.624-.288 13.092.051 19.584.606-.212 1.056-.738 1.511-1.158.463-.428.91-.878 1.358-1.309 2.761-2.651 5.607-5.177 8.207-7.954.074-6.883.051-14.489.05-21.648 0-.416.158-.982-.201-1.31-.016 0-.034 0-.051 0zm-41.382 11.68c-2.692-.108-6.028-.045-8.559-.051-.38.295-.251.851-.251 1.259 0 7.569-.154 15.124.05 22.504.699-.169 1.101-.776 1.561-1.208.485-.455.964-.916 1.46-1.359 1.431-1.372 2.879-2.727 4.279-4.129 1.396-1.396 3.018-2.604 4.129-4.279.032-4.079.163-8.595-.051-12.586-.791-.295-1.715-.115-2.618-.151zm23.963.101c-2.237 0-4.593-.213-6.494 0-.624.069-.301 2.284-.302 2.719-.006 2.389-.184 6.251.05 8.559 2.79.171 5.804.121 8.659.15.956.01 1.951.205 2.819-.101.159-1.018.155-2.131.151-3.222-.01-2.585.078-5.32-.101-7.904-1.421-.298-3.096-.201-4.782-.201zm.605 13.039c-.921-.039-1.882 0-2.819 0-4.637-.002-9.268-.05-13.744-.05-.911-.001-1.835-.151-2.668-.051-.671.081-1.237.76-1.763 1.259-1.468 1.394-2.868 2.936-4.178 4.179-1.479 1.403-2.858 2.744-4.279 4.077-.455.427-1.083.826-1.259 1.46 7.197.292 14.55.174 22 .252 2.985-2.553 5.719-5.357 8.509-8.105.526-.397.978-.866 1.46-1.309.475-.436 1.06-.862 1.309-1.511-.819-.244-1.701-.165-2.568-.201zm20.792-.05c-1.006-.001-2.123-.165-3.071 0-.545.094-1.192.899-1.661 1.358-1.461 1.432-2.953 2.753-4.279 4.078-1.474 1.473-2.804 2.763-4.229 4.078-.47.433-1.125.786-1.259 1.46 3.559.217 7.507.045 11.177.15 1.09-.725 1.891-1.773 2.818-2.668 2.351-2.264 4.738-4.57 7.049-6.797.467-.45 1.063-.852 1.259-1.51-2.619-.157-5.177-.149-7.804-.149zm-16.865 1.561c-2.984 2.637-5.774 5.469-8.659 8.205-.529.393-.967.88-1.409 1.359-.479.505-1.132.75-1.309 1.461-.285 1.139-.05 2.896-.05 4.178-.001 6.353-.128 12.626.05 18.778.671-.02 1.049-.762 1.511-1.158.53-.409 1.009-.87 1.46-1.358 2.191-2.034 4.466-4.014 6.544-6.092.695-.695 1.598-1.255 2.064-2.165.139-7.097.102-14.759.101-21.95 0-.383.156-.995-.251-1.258-.019 0-.036 0-.052 0zm-31.314 11.125c-1.843-.083-3.788-.196-5.538-.1-.052.002-.121.03-.202.05-.475.117-.302 1.722-.302 2.567 0 6.796-.178 13.702.051 20.188.651-.102 1.067-.725 1.51-1.158 1.413-1.385 3.01-2.609 4.33-4.027 1.547-1.316 2.829-2.644 4.329-4.027.466-.43 1.153-1.061 1.259-1.561.185-.873-.043-2.061 0-2.971.135-2.847.087-5.904-.05-8.811-1.697-.337-3.537-.066-5.387-.15z" fill-rule="evenodd"/></svg>