<svg enable-background="new 0 0 80.329 41.377" viewBox="0 0 80.329 41.377" xmlns="http://www.w3.org/2000/svg"><path clip-rule="evenodd" d="m12.718 10.347c-.521.812-.507 2.443-1.344 2.888-.479.253-1.478.028-2.339.049-1.614.039-2.947-.019-4.778-.099-.746-.033-1.986-.011-2.24-.249-.455-.429-.19-2.147 0-2.887.672-2.623 2.437-4.43 4.281-5.824 3.543-3.133 9.895-3.832 16.425-3.832 4.927 0 9.365.869 12.543 2.638 1.102.614 2.03 1.423 3.185 1.842.711-.092 1.2-.628 1.742-.996 4.914-3.33 13.932-4.694 21.9-3.384 6.262 1.029 10.813 3.938 14.085 7.864 2.273 2.727 3.698 6.031 4.081 10.552.375 4.42-.812 8.778-2.588 11.846-3.606 6.23-10.144 9.513-19.163 10.104-4.663.306-9.283-.323-12.941-1.393-2.804-.82-4.977-2.255-7.167-3.833-.391-.282-1.592-1.474-2.14-1.493-.613-.022-1.569.976-1.991 1.294-3.679 2.777-8.257 4.898-13.837 5.724-2.951.437-6.127.167-8.959-.299-3.55-.583-7.038-1.806-9.059-3.981-.999-1.076-1.68-2.699-2.09-4.43-.965-4.064.343-8.171 2.339-10.103 2.292-2.22 5.565-3.07 9.308-3.733 3.481-.617 7.924-.565 11.747-1.294 1.81-.346 3.472-.72 5.077-1.443 1.409-.636 2.873-1.778 3.335-3.136.919-2.7-1.888-4.443-3.783-5.276-1.659-.729-3.758-1.352-5.674-1.493-4.748-.353-8.467.991-9.955 4.377zm35.438-3.235c-1.788.985-3.87 2.761-4.778 4.53-1.604 3.123-1.878 9.359-1.095 13.389.18.928.251 1.793.498 2.588 1.421 4.585 5.549 7.114 10.851 7.615 4.198.396 7.465-.139 10.153-1.742 2.448-1.459 4.48-3.94 5.326-6.918.864-3.043 1.172-7.568.448-11.05-.706-3.394-2.369-5.948-4.679-7.615-2.246-1.62-6.001-2.694-9.905-2.39-2.742.215-4.952.564-6.819 1.593zm-18.067 13.34c-1.061.614-2.513 1.136-3.982 1.493-1.46.354-2.992.744-4.529.995-3.178.519-6.549.773-8.91 2.141-1.388.804-2.8 2.315-2.837 4.28-.033 1.717.957 2.836 1.892 3.534 2.106 1.572 5.824 2.226 9.308 1.99 4.4-.297 9.097-2.641 10.502-5.823.731-1.658.697-4.388.697-6.868 0-1.032.213-2.972-.398-2.986-.677.3-1.15.9-1.743 1.244z" fill-rule="evenodd"/></svg>