<svg enable-background="new 0 0 80.235 78.599" viewBox="0 0 80.235 78.599" xmlns="http://www.w3.org/2000/svg"><g clip-rule="evenodd" fill-rule="evenodd"><path d="m34.072 33.326c-.321-.562-.193-1.268-.193-1.932.001-8.947.337-17.668.338-26.791 0-.684-.174-3.459.193-3.957.33-.449 1.684-.479 2.462-.531 2.258-.152 3.903-.154 6.082 0 .948.066 1.913.146 2.559.578.442 1.002.338 2.215.338 3.379 0 3.668.073 7.301.097 10.91.023 3.518-.007 7.264.048 10.861.015 1.008.227 2.969-.097 3.572-.338.631-2.011.676-3.041.916-2.053.483-4.111 1.236-5.937 1.98-.92.374-1.782.956-2.849 1.015z"/><path d="m31.514.886c1.701-.488 1.079 1.498.869 2.654-2.004 11.033-4.006 21.717-6.083 32.777-.152.812-.234 1.713-.482 2.27-.375.836-1.517 1.535-2.462 2.074-2.839 1.621-6.452 2.82-10.909 2.607-1.27-.061-2.588-.377-3.813-.725-2.438-.688-4.221-1.568-6.083-2.943-.866-.641-1.935-1.328-2.268-2.221-.349-.934-.092-2.74.096-3.861 1.457-8.684 4.804-14.85 9.558-20.178 5.242-6.1 12.203-10.483 21.577-12.454z"/><path d="m47.733.984c2.171.062 5.14 1.125 6.999 1.883 6.294 2.559 11.704 6.268 15.689 10.812 4.139 4.85 7.425 10.072 8.978 17.521.206.984.465 2.209.628 3.766.104.98.542 3.445-.289 3.717-.474.154-1.086-.373-1.545-.725-4.849-3.707-10.38-6.549-17.523-7.965-1.801-.355-3.94-.639-6.227-.723-.835-.031-1.744-.004-2.075-.242-.378-.271-.529-1.602-.676-2.414-.482-2.67-1.049-5.189-1.303-7.965-.122-1.326-.529-2.807-.82-4.344-.704-3.707-1.27-7.068-1.979-10.957-.121-.651-.708-2.155.143-2.364z"/><path d="m68.007 67.453c-1.654 1.443-3.43 2.961-5.455 4.248-.427.271-1.51 1.195-2.075 1.014-.398-.127-.493-1.146-.628-1.834-1.914-9.797-3.53-19.328-5.358-29.107-.134-.717-.388-1.623-.29-2.172.124-.695 1.301-1.354 2.027-1.787.931-.553 1.744-.912 2.559-1.207.937-.338 1.937-.744 2.848-.965 1.145-.277 2.36-.447 3.428-.531 3.513-.271 6.444.527 8.882 1.594 1.158.506 2.295 1.064 3.427 1.834.912.619 2.293 1.557 2.655 2.559.426 1.174-.038 3.045-.241 4.344-1.503 9.598-6.246 16.609-11.779 22.01z"/><path d="m19.011 72.523c-.853-.061-1.466-.732-2.124-1.16-3.297-2.133-5.918-4.805-8.351-7.916-3.748-4.795-6.807-10.49-8.062-18.006-.115-.688-.216-1.76-.338-2.943-.094-.922-.426-2.756.483-2.801.873-.043 1.96 1.168 2.51 1.594 2.304 1.781 5.168 3.16 7.675 4.488 3.186 1.496 7.011 2.406 11.102 3.09.535.09 1.178.024 1.593.434.126.994-.16 2.024-.338 2.994-.881 4.789-1.854 9.75-2.8 14.627-.186.961-.366 1.941-.58 2.895-.202.913-.158 1.97-.77 2.704z"/><path d="m46.188 77.832c-.775.496-1.887.49-2.993.58-2.173.174-4.479.295-6.806.047-.774-.082-2.524-.166-2.896-.627-.407-.504-.193-2.455-.193-3.523 0-8.568.248-17.084.435-25.295.876-.637 2.026-.652 3.041-.869 2.639-.561 4.994-1.517 7.289-2.461.656-.27 1.889-1.19 2.028-.049.131 1.076.048 2.199.048 3.139 0 5.801.146 11.221.145 16.652 0 1.432.056 2.861 0 4.248-.112 2.765.221 5.859-.098 8.158z"/></g></svg>