<svg enable-background="new 0 0 29.316 30.922" viewBox="0 0 29.316 30.922" xmlns="http://www.w3.org/2000/svg"><path d="m21.443.066c2.518-.092 5.08-.059 7.578-.065.147 10.19.142 20.439.295 30.651-2.542.023-5.081.074-7.624.077-.092-3.856-.05-7.717-.121-11.574-4.685.023-9.371.067-14.056.123-.011 3.859.093 7.716.079 11.575-2.451-.002-4.9.075-7.351.067-.116-10.213-.218-20.458-.243-30.656 2.434-.144 4.892.01 7.329-.124.116 3.871.034 7.755.132 11.63 1.97-.026 3.94-.067 5.911-.059 1.632 1.663 3.212 3.378 4.875 5.01-.034-1.687-.042-3.375-.04-5.062 1.101-.011 2.203-.009 3.305-.021-.002-3.862-.067-7.711-.069-11.572z"/></svg>