<svg enable-background="new 0 0 34.464 36.31" viewBox="0 0 34.464 36.31" xmlns="http://www.w3.org/2000/svg"><path d="m7.945 0c4.766 8.07 9.383 16.231 14.129 24.314.713 1.455 1.556 2.847 2.405 4.227.08-2.832-.115-5.672.026-8.498.664.001 1.329-.011 1.993-.001.109 4.694.059 9.422.054 14.129.018.713.016 1.425.007 2.138-1.987-3.153-3.689-6.48-5.567-9.699-3.657-6.321-7.327-12.635-10.99-18.955-.014 2.829-.029 5.669.046 8.49-.055.037-.109.076-.162.117-.629-.091-1.281-.046-1.908-.006-.091-5.408-.063-10.841-.033-16.256z"/><path d="m23.755 1.382c1.107-.016 2.213-.032 3.319-.011-.007.069-.013.139-.018.211-.202.069-.532.056-.549.337-.065 4.753.083 9.539-.056 14.275-.663-.052-1.332.041-1.989-.083-.057-4.711-.017-9.426-.039-14.137.009-.432-.634-.209-.668-.592z"/><path d="m31.063 8.266c1.032-.348 2.299-.196 3.401-.099-.181.153-.414.204-.636.266.023 6.411-.081 12.852.079 19.259.226-.006.846.176.384.355-1.023.047-2.056.018-3.083.02-.016-.091-.028-.18-.041-.268.228.019.446-.038.599-.219.006-2.846-.007-5.692-.004-8.537-3.858-.009-7.715.014-11.571.049-.339-.644-.75-1.249-1.06-1.908 4.193-.073 8.386-.063 12.579-.061.071-2.883.095-5.793-.026-8.674-.208-.057-.418-.112-.621-.183z"/><path d="m.108 8.154c1.093.028 2.206-.092 3.286.078-.034.063-.068.127-.1.192-.13.001-.258.007-.387.014-.061.075-.12.152-.18.231.025 2.84-.039 5.685.045 8.522 3.867.014 7.734.002 11.601 0 .321.656.767 1.246 1.06 1.915-4.217.004-8.436.026-12.653 0-.083 2.765-.033 5.534 0 8.299-.076.373.321.44.593.495-.008.078-.014.158-.02.24-1.085-.022-2.181.067-3.258-.054-.006-.075-.012-.148-.018-.219.245.027.475-.056.653-.226-.05-6.272-.068-12.541-.061-18.815.016-.161-.103-.276-.194-.387-.16-.01-.319-.033-.475-.066.027-.055.081-.164.108-.219z"/><path d="m7.991 20.103c.69.043 1.387-.055 2.071.06-.037 4.692-.001 9.386-.008 14.078-.063.36.328.401.587.42.021.209-.172.273-.342.257-.991-.016-1.983.027-2.973-.021.002-.312.377-.268.588-.354.185-4.799-.021-9.636.077-14.44z"/></svg>