<svg enable-background="new 0 0 77.148 58.914" viewBox="0 0 77.148 58.914" xmlns="http://www.w3.org/2000/svg"><path d="m37.711 58.769c-.176-18.135-.097-37.084-.097-55.145.001-1.162-.119-2.377.145-3.527 5.34-.106 12.126-.338 16.626.725 9.144 2.16 15.429 7.603 19.38 15.031 2.016 3.789 3.383 8.363 3.383 13.822 0 5.369-1.473 9.992-3.48 13.725-2.02 3.758-4.761 6.852-7.877 9.328-3.139 2.494-7.123 4.48-11.744 5.461-2.409.512-4.993.725-7.878.725-2.754 0-5.628.017-8.458-.145z"/><path d="m34.698.109h.34v58.656h-.34z"/><path d="m33.99.109h.34v58.656h-.34z"/><path d="m33.282.109h.34v58.656h-.34z"/><path d="m32.574.109h.34v58.656h-.34z"/><path d="m31.865.109h.34v58.656h-.34z"/><path d="m31.157.109h.34v58.656h-.34z"/><path d="m30.449.109h.34v58.656h-.34z"/><path d="m29.741.109h.34v58.656h-.34z"/><path d="m29.032.109h.34v58.656h-.34z"/><path d="m28.324.109h.34v58.656h-.34z"/><path d="m27.616.109h.34v58.656h-.34z"/><path d="m26.908.109h.34v58.656h-.34z"/><path d="m26.199.109h.34v58.656h-.34z"/><path d="m25.491.109h.34v58.656h-.34z"/><path d="m24.783.109h.34v58.656h-.34z"/><path d="m24.075.109h.34v58.656h-.34z"/><path d="m23.366.109h.34v58.656h-.34z"/><path d="m22.658.109h.34v58.656h-.34z"/><path d="m21.95.109h.34v58.656h-.34z"/><path d="m21.242.109h.34v58.656h-.34z"/><path d="m20.533.109h.34v58.656h-.34z"/><path d="m19.825.109h.34v58.656h-.34z"/><path d="m19.117.109h.34v58.656h-.34z"/><path d="m18.409.109h.34v58.656h-.34z"/><path d="m17.7.109h.34v58.656h-.34z"/><path d="m16.992.109h.34v58.656h-.34z"/><path d="m16.284.109h.34v58.656h-.34z"/><path d="m15.576.109h.34v58.656h-.34z"/><path d="m14.867.109h.34v58.656h-.34z"/><path d="m14.159.109h.34v58.656h-.34z"/><path d="m13.451.109h.34v58.656h-.34z"/><path d="m12.743.109h.34v58.656h-.34z"/><path d="m12.034.109h.34v58.656h-.34z"/><path d="m11.326.109h.34v58.656h-.34z"/><path d="m10.618.109h.34v58.656h-.34z"/><path d="m9.91.109h.34v58.656h-.34z"/><path d="m9.202.109h.34v58.656h-.34z"/><path d="m8.493.109h.34v58.656h-.34z"/><path d="m7.785.109h.34v58.656h-.34z"/><path d="m7.077.109h.34v58.656h-.34z"/><path d="m6.369.109h.34v58.656h-.34z"/><path d="m5.66.109h.34v58.656h-.34z"/><path d="m4.952.109h.34v58.656h-.34z"/><path d="m4.244.109h.34v58.656h-.34z"/><path d="m3.536.109h.34v58.656h-.34z"/><path d="m2.827.109h.34v58.656h-.34z"/><path d="m2.119.109h.34v58.656h-.34z"/><path d="m1.411.109h.34v58.656h-.34z"/><path d="m.703.109h.34v58.656h-.34z"/><path d="m-.006.109h.34v58.656h-.34z"/></svg>