<svg enable-background="new 0 0 143.337 184.848" viewBox="0 0 143.337 184.848" xmlns="http://www.w3.org/2000/svg"><g clip-rule="evenodd" fill-rule="evenodd"><path d="m21.524 3.616c-.432.507-1.077.773-1.659 1.074-3.485 1.799-7.141 3.74-10.635 5.61-.578.31-1.264.462-1.707.976-.018 24.418-.132 47.575 0 71.712.131 24.048.012 47.979-.049 71.858-.672-.08-1.302-.466-1.902-.78-.597-.312-1.205-.661-1.806-.976-1.205-.631-2.501-1.155-3.562-1.951-.047-18.147-.098-35.796-.098-53.662 0-3.024.117-6.08 0-9.122-.113-2.974.111-5.967 0-8.928-.109-2.955 0-5.951 0-8.927.002-20.923-.144-42.02-.097-63.078.049-.001.039-.06.049-.098 3.756-2.15 8.105-4.281 12.148-6.391.598-.312 1.416-.847 1.951-.927.508-.076 1.49.524 2 .78 1.813.912 3.864 1.843 5.367 2.83z"/><path d="m35.817 10.983c-.332.554-1.018.784-1.56 1.074-3.414 1.821-6.848 3.543-10.391 5.415-.572.302-1.481.679-1.708 1.074-.175 47.541.155 96.427-.049 143.814-.728.021-1.335-.476-1.951-.78-1.235-.611-2.458-1.295-3.708-1.952-.613-.323-1.332-.499-1.805-1.024-.043-24.213-.099-49.079-.098-71.907.001-23.973-.034-48.089 0-71.956 1.023-.774 2.199-1.365 3.366-1.952 3.528-1.774 7.16-3.688 10.684-5.513 1.343.389 2.505 1.151 3.707 1.756.604.304 1.205.625 1.806.927.585.294 1.3.465 1.707 1.024z"/><path d="m50.257 18.3c-.353.564-1.054.734-1.61 1.024-3.907 2.039-8.052 4.186-11.951 6.342-.251 47.393.078 96.612-.244 144.156-.679-.046-1.299-.477-1.903-.78-1.208-.608-2.398-1.263-3.609-1.903-.582-.307-1.27-.514-1.708-1.024-.06-17.792-.049-35.967-.048-54.198 0-18.483-.049-35.984-.049-53.662-.001-12.16-.042-24.206.049-36.344 2.112-1.348 4.482-2.376 6.829-3.707 1.586-.9 3.437-1.84 5.171-2.732.649-.334 1.389-.744 1.903-.83 2.493 1.116 4.91 2.309 7.17 3.658z"/><path d="m64.892 25.716c-.387.521-1.052.785-1.609 1.073-2.86 1.477-5.787 3.08-8.684 4.537-1.165.586-2.365 1.111-3.415 1.853-.104 11.785.001 24.047 0 35.661-.003 36.786.138 72.136-.049 108.641-.712-.044-1.331-.501-1.951-.829-1.255-.665-2.519-1.273-3.806-1.952-.596-.315-1.327-.528-1.756-1.073-.099-24.454-.002-47.789 0-72.151.002-24.41-.005-47.981.049-72.102.047-.001.038-.06.049-.098.984-.765 2.219-1.227 3.415-1.853 2.818-1.475 5.688-2.884 8.635-4.44.537-.283 1.363-.908 1.854-.927s1.432.593 1.902.83c1.801.905 3.787 1.919 5.366 2.83z"/><path d="m79.235 33.082c-.391.478-1.079.76-1.659 1.073-2.809 1.522-5.845 3.174-8.781 4.635-1.19.593-2.443 1.078-3.463 1.902.008.057-.011.087-.049.098-.027 36.022.146 72.391.146 108.349 0 11.919.075 24.196-.049 35.71-.685-.015-1.253-.489-1.855-.78-.605-.293-1.214-.581-1.805-.878-1.189-.598-2.398-1.191-3.415-1.951-.08-36.698-.091-72.476-.098-109.08-.002-12.066-.101-23.683.049-35.466.411-.532 1.086-.681 1.659-.976 3.888-1.999 7.931-4.254 11.903-6.244.684-.156 1.51.441 2.195.781 1.735.855 3.707 1.943 5.222 2.827z"/><path d="m85.626 36.35c-.259.516-.904.598-1.366.83-.49.247-.975.49-1.463.731-.984.487-1.982 1.024-3.122 1.269-.19-1.697-.103-3.931-.049-5.708-.003-.083.036-.126.098-.146 2.088.887 4.018 1.932 5.902 3.024z"/><path d="m100.358 43.863c-3.33 1.833-6.804 3.408-10.244 5.074-2.576 1.247-5.21 2.397-7.757 3.756-.842.449-1.742.897-2.683 1.122-.192-2.265-.1-5.07-.049-7.416 2.035-1.15 4.312-2.099 6.586-3.17 2.23-1.053 4.468-2.187 6.585-3.122.483-.213 1.627.573 2.146.83 1.265.625 2.458 1.257 3.659 1.902.622.334 1.345.48 1.757 1.024z"/><path d="m114.945 51.132c-.578.606-1.418.829-2.146 1.17-8.019 3.765-16.066 7.986-24.197 11.757-2.204 1.022-4.366 2.164-6.586 3.22-.719.342-1.435.817-2.244.927-.268-.484-.195-1.115-.195-1.708 0-1.75.018-3.755.05-5.415 2.222-1.223 4.565-2.344 6.927-3.464 4.617-2.188 9.333-4.494 13.952-6.781 2.335-1.156 4.656-2.362 6.977-3.366.516-.224 1.513.535 2.097.829.637.319 1.235.652 1.806.927 1.313.635 2.577 1.142 3.559 1.904z"/><path d="m129.336 58.498c-.334.454-.922.695-1.414.927-7.774 3.667-15.491 7.671-23.271 11.318-2.082.977-4.182 2.001-6.244 3.025-5.129 2.544-10.334 5.031-15.465 7.61-1.027.517-2.095 1.057-3.219 1.366-.204-2.239-.074-5.036-.098-7.171.746-.638 1.715-.928 2.585-1.366 6.063-3.049 12.29-6.088 18.489-9.025 3.546-1.68 7.097-3.362 10.586-5.122 3.506-1.768 6.97-3.667 10.537-5.171.502-.212 1.514.398 2.146.732 1.253.662 2.442 1.252 3.659 1.854.613.302 1.238.575 1.709 1.023z"/><path d="m143.337 65.523c-.444.612-1.211.812-1.854 1.122-15.284 7.356-30.406 15.295-45.759 22.684-4.677 2.251-9.293 4.571-13.953 6.879-.652.323-1.32.714-2.048.829-.193-2.116-.1-4.779-.049-6.976.419-.545 1.124-.698 1.707-.976 1.725-.821 3.542-1.708 5.317-2.585 11.751-5.811 23.679-11.465 35.417-17.367 2.354-1.183 4.771-2.28 7.122-3.463 2.362-1.189 4.741-2.41 7.123-3.415.52-.22 1.393.329 2 .634 1.621.815 3.593 1.815 4.977 2.634z"/><path d="m129.238 86.939c.375-.038.244 1.163.244 1.854.001 4.742-.001 9.628 0 14.294.003 15.748.133 31.822 0 48.247-.793.776-1.968 1.21-3.024 1.708-1.059.498-2.087 1.037-3.122 1.561-2.082 1.054-4.236 1.982-6.293 3.073-4.115 2.182-8.273 4.311-12.489 6.293-4.224 1.986-8.345 4.171-12.537 6.244-3.647 1.804-7.225 3.657-10.977 5.415-.539.253-1.048.64-1.658.683-.198-2.193-.096-4.66-.098-6.927.757-.643 1.692-1.047 2.585-1.463 2.676-1.247 5.391-2.639 8.099-4 8.043-4.044 16.203-7.983 24.294-12.049 1.739-.874 3.493-1.815 5.317-2.732.856-.431 1.822-.788 2.537-1.463.09-13.954.05-28.81.049-43.32 0-3.854-.014-8.15-.049-12.099-.006-.623-.046-1.28.098-1.61.264-.607 1.114-.606 1.658-1.024 1.774-.878 3.615-1.948 5.366-2.685z"/><path d="m115.237 144.406c-.599.585-1.421.901-2.146 1.268-10.394 5.266-20.941 10.588-31.416 15.855-.737.371-1.477.8-2.293.976-.185-2.4-.125-4.991-.098-7.415 2.256-1.417 4.736-2.462 7.122-3.708 5.941-3.1 12.023-6.015 17.953-9.123 1.163-.61 2.429-1.077 3.463-1.903.166-14.693-.168-28.748.098-43.466 1.546-.9 3.397-1.552 5.122-2.342.538-.246 1.153-.615 1.708-.732.297-.062.411-.262.487.439.073.675 0 1.931 0 2.439 0 1.528.049 2.073.049 3.122.001 10.291-.001 21.738 0 31.953.001 4.328.109 8.938-.049 12.637z"/><path d="m100.7 137.04c-.736.68-1.713 1.016-2.586 1.464-4.366 2.241-8.919 4.475-13.317 6.781-.888.465-1.775.93-2.684 1.366-.897.432-1.746 1.034-2.731 1.269-.259-1.045-.147-2.365-.147-3.756 0-.564 0-1.315 0-1.951 0-.594-.084-1.471.098-1.805.167-.307 1.245-.743 1.707-.976 2.996-1.506 5.902-3.016 8.83-4.488 1.223-.614 2.465-1.082 3.464-1.854.147-9.474-.057-18.794.098-28.148.391-.511 1.046-.699 1.609-.976 1.123-.55 2.221-1.09 3.415-1.659.545-.259 1.316-.848 1.854-.927.541-.079.391 1.294.391 1.854-.002 11.309.035 22.831-.001 33.806z"/><path d="m86.601 129.674c-1.078.753-2.338 1.298-3.562 1.903-.599.296-1.187.648-1.805.927-.609.275-1.227.66-1.902.732-.194-6.916-.098-14.398-.049-21.417.972-.745 2.226-1.184 3.415-1.756 1.168-.562 2.312-1.23 3.415-1.708.613-.266.499.494.487.927-.177 6.57.269 14.115.001 20.392z"/></g></svg>