<svg enable-background="new 0 0 81.503 80.693" viewBox="0 0 81.503 80.693" xmlns="http://www.w3.org/2000/svg"><path clip-rule="evenodd" d="m12.406 69.189c-5.152-5.028-9.23-11.185-11.246-19.192-1.615-6.409-1.523-14.285.149-20.243 2.215-7.888 6.142-13.981 11.496-18.894 1.313-1.205 2.73-2.4 4.198-3.399 4.583-3.115 9.622-5.461 16.046-6.747 3.876-.776 8.8-.959 12.995-.351 5.549.807 10.313 2.371 14.345 4.649 5.439 3.071 9.996 6.889 13.546 11.795 1.766 2.441 3.225 5.223 4.498 8.198 2.426 5.666 3.918 13.918 2.549 21.692-1.878 10.67-6.856 18.214-13.745 24.241-3.3 2.888-7.508 5.387-11.995 7.047-4.366 1.616-10.181 3.01-16.345 2.649-5.882-.344-10.983-1.829-15.394-3.599-.695-.279-1.38-.712-2.049-1.1-3.347-1.932-6.336-4.048-9.048-6.746zm44.434-54.381c-3.647.046-7.719-.047-11.195.2-.427 1.446-.395 3.114-.6 4.799-.197 1.611-.265 3.305-.4 4.998-.129 1.613-.322 3.307-.45 4.948-.245 3.152-.295 6.077-2.849 6.747-1.625.427-3.162-.471-3.749-1.749-.546-1.191-.471-3.069-.649-4.748-.458-4.299-.539-8.455-.95-12.546-.084-.839-.071-1.674-.3-2.449-3.588-.123-7.835-.157-11.646-.1-1.355.021-2.646-.084-3.698.199-.088 3.216.525 6.216 1.449 8.848 1.833 5.226 4.737 9.284 9.246 11.846 2.24 1.272 4.981 2.313 8.048 2.499 3.811.23 6.884-.646 9.496-1.8 2.613-1.153 4.691-2.904 6.448-4.848 2.648-2.986 4.203-7.087 5.248-11.696.351-1.545.659-3.255.5-4.948-1.164-.313-2.625-.216-3.949-.2zm2.8 42.886c-.431-1.539-1.051-3.104-1.7-4.449-.958-1.985-1.956-3.605-3.448-5.098-3.586-3.585-9.192-6.558-16.294-5.648-2.373.304-4.271 1.053-6.099 1.949-4.669 2.291-7.992 6.388-9.996 11.396-1.024 2.559-1.781 5.578-1.8 8.847 1.15.267 2.422.15 3.699.149 1.266 0 2.565.001 3.849 0 2.602 0 5.263.121 7.597-.149.34-1.418.456-3.003.601-4.648.271-3.094.631-6.415.949-9.547.172-1.696.114-3.407.7-4.599.643-1.308 2.462-2.287 4.148-1.648 2.25.851 2.104 3.57 2.398 6.397.416 3.978.497 8.033.9 11.846.08.755.055 1.526.35 2.199 4.905.193 10.182.081 15.194-.05.096-2.495-.456-4.828-1.048-6.947z" fill-rule="evenodd"/></svg>