<svg enable-background="new 0 0 27.03 35.219" viewBox="0 0 27.03 35.219" xmlns="http://www.w3.org/2000/svg"><path d="m8.016.048c2.006-.158 4.144.054 5.966.983.957.541 1.764 1.511 1.787 2.652.025 1.852-1.19 3.391-2.096 4.911-2.347 3.941-4.772 7.844-7.072 11.811-.436.603-.86 1.654-.075 2.163 1.005.466 2.076-.162 3.043-.466.154-.063.579-.278.529.033-2.187 1.278-4.774 2.23-7.334 1.717-1.273-.16-2.559-1.03-2.735-2.382-.244-1.975 1.105-3.621 2.071-5.205 2.232-3.567 4.359-7.195 6.525-10.799.523-.857 1.113-1.728 1.215-2.755.185-1.175-.745-2.336-1.922-2.462.033-.068.065-.135.098-.201z"/><path d="m12.293 12.557c2.195-.06 4.635-.035 6.51 1.279 1.47 1.09 1.384 3.177.631 4.662-1.436 2.708-3.07 5.308-4.629 7.946-.352.606-.729 1.55-.013 2.046 1.228.526 2.485-.293 3.648-.638.107.261-.228.332-.386.453-1.623.861-3.387 1.572-5.246 1.619-1.323.058-2.865-.049-3.778-1.142-1.037-1.295-.763-3.159.1-4.468 1.228-2.309 2.694-4.483 4.038-6.726.509-.77 1.042-1.632.976-2.592.051-1.107-.852-2.107-1.944-2.234.031-.069.061-.138.093-.205z"/><path d="m18.719 22.667c1.922.054 4.019.132 5.682 1.266.832.517 1.434 1.465 1.344 2.467-.233 2.137-1.679 3.826-2.563 5.713-.394.556-.342 1.483.366 1.756 1.205.337 2.349-.458 3.482-.716-.004.064-.007.131-.009.198-1.583.924-3.32 1.643-5.156 1.84-1.394.059-2.997.12-4.09-.905-.894-.824-.948-2.162-.674-3.266.506-1.469 1.444-2.729 2.287-4.019.464-.718.745-1.602.545-2.449-.261-.827-.976-1.504-1.847-1.632.024-.336.422-.159.633-.253z"/></svg>