<svg enable-background="new 0 0 32.532 32.418" viewBox="0 0 32.532 32.418" xmlns="http://www.w3.org/2000/svg"><path d="m15.348.04c4.545-.324 9.216 1.326 12.432 4.578 2.761 2.826 4.565 6.652 4.721 10.621.287 4.51-1.424 9.086-4.543 12.353-4.376 4.515-11.444 6.049-17.315 3.803-5.294-1.96-9.525-6.765-10.382-12.395-1.016-5.243.999-10.869 4.91-14.464 2.717-2.644 6.403-4.235 10.177-4.496zm.321 1.463c-5.552.239-10.755 3.866-12.933 8.971-1.491 3.279-1.644 7.137-.439 10.528 1.066 3.068 3.172 5.754 5.874 7.548 2.592 1.561 5.613 2.478 8.653 2.387 2.83-.045 5.581-1.054 7.958-2.541 5.323-3.625 7.665-10.938 5.533-16.996-.886-2.474-2.321-4.821-4.379-6.491-2.808-2.406-6.588-3.623-10.267-3.406z"/><path d="m8.574 6.356c.981-.003 1.974.395 2.641 1.122.67-.713 1.622-1.152 2.608-1.125.081.522-.009 1.043.002 1.568-.876-.013-1.771.602-1.839 1.518.009 1.75-.024 3.501.002 5.25.077-.029.154-.058.231-.086 1.391.116 2.789.268 4.133.685 1.457-.349 2.954-.652 4.467-.625.024-1.671.078-3.342.068-5.014.059-.948-.857-1.848-1.814-1.672.02-.536-.028-1.074.034-1.607.954-.011 1.933.368 2.564 1.101.683-.705 1.674-1.175 2.666-1.08-.022.528.04 1.061-.042 1.586-.882-.138-1.743.592-1.843 1.457.003 1.723-.028 3.445-.006 5.168.925-.089 1.576-.915 1.571-1.825.496.009.992-.01 1.488.01.065.89-.247 1.804-.887 2.433-.207.167.049.358.147.503.554.621.749 1.494.724 2.307-.494-.022-.99.006-1.484-.009.026-.879-.636-1.808-1.564-1.827-.092 2.004-.022 4.013-.057 6.019-.228 1.145.724 2.218 1.881 2.181-.007.509-.008 1.019-.001 1.528-.965.105-1.93-.334-2.596-1.018-.06.009-.119.018-.178.028-.592.689-1.535.996-2.423 1.006-.184-.493.001-1.044-.068-1.566.942.09 1.8-.701 1.816-1.642.036-2.197.001-4.396.028-6.594-.888.088-1.792.04-2.66.278 1.237 1.544-.427 4.106-2.339 3.508-1.445-.423-2.049-2.312-1.174-3.524-.895-.205-1.814-.206-2.726-.26-.007 2.19-.016 4.392-.02 6.587.003.952.905 1.703 1.833 1.657.003.521.003 1.041-.006 1.561-.967-.023-1.964-.355-2.602-1.113-.687.718-1.665 1.111-2.655 1.115-.04-.518.001-1.038-.016-1.556.948.022 1.827-.714 1.832-1.69.007-1.944.005-3.889.015-5.832-.026-.226.012-.451.051-.673-.878.035-1.655.892-1.549 1.776-.505.106-1.021-.016-1.532.003-.018-.04-.055-.12-.073-.16.111-.914.447-1.818 1.152-2.442-.707-.651-1.156-1.603-1.097-2.573.515-.055 1.034-.01 1.551-.027-.04.884.621 1.783 1.55 1.788-.098-.577.037-1.158-.016-1.74.011-1.138.022-2.277.007-3.415-.09-.882-.944-1.53-1.811-1.493-.003-.518-.021-1.038.016-1.555zm7.794 10.67c-.956.018-.822 1.603.111 1.466.941-.023.819-1.576-.111-1.466z"/></svg>