<svg enable-background="new 0 0 32.131 32.485" viewBox="0 0 32.131 32.485" xmlns="http://www.w3.org/2000/svg"><path d="m15.124.04c4.934-.363 9.965 1.759 13.15 5.544 4.033 4.683 5.003 11.715 2.438 17.329-2.515 6.13-9.258 10.068-15.818 9.521-3.232-.217-6.35-1.5-8.888-3.498-3.705-2.883-5.884-7.531-5.996-12.199-.191-5.339 2.49-10.63 6.823-13.728 2.423-1.72 5.324-2.773 8.291-2.969zm-.099 2.531c.265.916.893 1.679 1.147 2.602.266-.952.932-1.736 1.183-2.693.142-.672-.439-1.354-1.115-1.365-.744-.053-1.428.723-1.215 1.456zm-5.116.883c-1.879.433-3.504 1.639-4.721 3.103-1.362 1.578-2.387 3.603-2.303 5.731.091 1.715 1.541 3.507 3.378 3.331 1.6.069 3.024-1.32 2.949-2.927.114-1.026-.894-2.11-1.945-1.833-.577.133-.981.709-.923 1.296.289-.347.853-.472 1.201-.139.549.515.074 1.58-.675 1.539-.979.031-1.628-.979-1.629-1.875.018-1.203.677-2.506 1.845-2.955.944-.371 1.994.155 2.5.978.963 1.552 1.122 3.432 1.224 5.213.005 2.367.057 4.856-.934 7.059-.397.944-1.34 1.774-2.422 1.603-1.715-.273-2.697-2.349-2.107-3.911.252-.674.983-1.25 1.728-1.052.694.171.943 1.355.204 1.634-.378.238-.762-.06-.977-.366-.109.634.259 1.363.931 1.472.903.204 1.697-.621 1.859-1.451.214-1.108-.213-2.375-1.205-2.975-1.291-.799-3.178-.547-4.097.708-1.358 1.536-1.093 3.839-.288 5.573 1.334 3.021 4.163 5.887 7.685 5.749 1.535.064 2.925-.929 3.644-2.239.757-1.168.993-2.557 1.271-3.892.283 2.315 1.151 5.059 3.555 5.943 2.783.821 5.615-.778 7.354-2.889 1.151-1.481 2.095-3.208 2.31-5.097.194-1.63-.641-3.394-2.162-4.097-.943-.344-2.055-.23-2.912.294-1.365.9-1.711 3.365-.179 4.273.865.538 2.015-.337 1.791-1.315-.233.275-.585.544-.956.338-.727-.299-.502-1.447.188-1.646.639-.185 1.304.249 1.624.786.911 1.662-.366 4.144-2.311 4.179-1.319.003-2.092-1.311-2.399-2.438-.78-2.898-.716-5.994-.227-8.938.355-1.464.958-3.507 2.764-3.606 1.68.094 2.774 2.04 2.415 3.588-.171.753-.873 1.438-1.676 1.383-.709-.062-1.132-1.115-.539-1.575.358-.327.888-.163 1.186.161.115-1.068-1.238-1.738-2.058-1.097-1.501 1.137-.752 3.755.915 4.332 1.04.359 2.355.384 3.196-.427 1.015-.821 1.492-2.168 1.379-3.45-.363-3.13-2.487-5.915-5.21-7.427-1.707-.944-4.077-1.166-5.618.217-1.667 1.503-2.125 3.861-2.363 5.993-.305-1.992-.602-4.156-2.024-5.71-1.038-1.176-2.755-1.496-4.236-1.149zm6.146 23.974c-.237.855-.832 1.539-1.126 2.365-.258.642.193 1.41.853 1.56.816.22 1.675-.652 1.42-1.47-.275-.866-.869-1.587-1.147-2.455z"/><path d="m3.518 10.247c.836-3.29 4.971-6.042 8.154-4.046 2.814 2.017 3.147 5.864 3.262 9.045-.516.047-1.035.022-1.552.025-.126-2.217-.556-4.607-2.138-6.28-1.701-1.797-4.933-1.991-6.677-.155-.452.39-.701.939-1.049 1.411z"/><path d="m22.316 5.599c2.902-.449 5.745 1.941 6.412 4.678-.395-.665-.817-1.342-1.443-1.815-1.894-1.472-4.888-1.062-6.403.772-1.41 1.67-1.88 3.903-1.98 6.035-.535.009-1.07.007-1.605.001.062-2.266.368-4.585 1.358-6.649.693-1.471 2-2.771 3.661-3.022z"/><path d="m13.373 16.755c.522.004 1.044-.004 1.567.003-.055 3.029-.38 6.401-2.602 8.686-1.586 1.736-4.452 1.823-6.263.385-1.182-.888-2.186-2.115-2.569-3.563 1.535 3.116 6.402 3.112 8.218.273 1.186-1.68 1.533-3.775 1.649-5.784z"/><path d="m17.288 16.758c.536.003 1.073-.003 1.61.003.059 2.319.537 4.85 2.234 6.556 2.057 2.098 6.11 1.72 7.473-.989-.678 2.336-2.809 4.316-5.277 4.535-1.86.109-3.57-1.064-4.444-2.657-1.402-2.201-1.567-4.907-1.596-7.448z"/></svg>