<svg clip-rule="evenodd" fill-rule="evenodd" stroke-linejoin="round" stroke-miterlimit="2" viewBox="0 0 560 400" xmlns="http://www.w3.org/2000/svg"><path d="m551.093 310.214c0 3.66-2.504 6.806-5.907 7.704-14.83 4.302-26.065 16.95-28.376 32.486-2.382 14.76 4.43 30.854 17.848 39.354 3.145 2.119 4.558 6.228 3.017 9.823-1.374 3.33-4.837 5.339-8.41 4.879-1.477-.193-2.953-.257-4.366-.257-13.739 0-26.9 7.255-34.218 19.453-8.475 14.06-6.998 31.201 1.412 43.142 2.119 3.146 1.798 7.447-.963 10.208-2.568 2.632-6.548 3.082-9.63 1.284-14.252-7.832-30.944-6.035-43.014 2.953-12.904 9.566-18.425 25.744-15.215 40.446.77 3.724-1.156 7.576-4.751 9.052-3.34 1.388-7.225.358-9.438-2.503-9.63-12.006-25.615-17.591-40.83-13.74-15.601 3.853-26.9 16.757-29.533 31.523-.706 3.724-3.98 6.548-7.896 6.548-3.66 0-6.806-2.503-7.704-5.906-4.11-14.38-16.564-25.937-32.55-28.312-16.37-2.376-31.394 5.521-39.354 17.847-2.055 3.146-6.164 4.494-9.759 3.018-3.33-1.374-5.339-4.837-4.879-8.41 1.862-14.124-5.072-30.174-19.196-38.585-13.995-8.346-30.88-7.19-43.206 1.413-3.082 2.118-7.383 1.797-10.208-.963-2.568-2.568-3.018-6.613-1.22-9.63 7.383-13.482 6.356-30.367-3.017-43.014-8.86-12.006-24.268-18.618-40.382-15.216-3.785.782-7.629-1.248-9.117-4.815-1.348-3.338-.256-7.19 2.504-9.373 12.07-9.63 17.591-25.616 13.739-40.831-3.852-15.6-16.756-26.9-31.522-29.532-3.724-.706-6.549-3.98-6.549-7.897 0-3.659 2.504-6.805 5.907-7.704 14.83-4.301 26-16.948 28.312-32.549 2.375-14.83-4.494-30.816-17.783-39.355-3.21-2.054-4.559-6.163-3.082-9.758 1.412-3.403 4.943-5.329 8.41-4.88 17.206 1.477 31.201-6.676 38.649-19.195 8.153-13.675 7.254-30.623-1.413-43.207-2.118-3.081-1.862-7.447.963-10.207 2.568-2.568 6.549-3.018 9.63-1.284 13.482 7.447 30.367 6.42 43.014-2.954 12.53-9.295 18.496-25.129 15.216-40.381-.77-3.724 1.155-7.576 4.75-9.117 3.403-1.412 7.255-.257 9.374 2.504 9.63 12.07 25.615 17.59 40.895 13.739 15.6-3.852 26.9-16.692 29.532-31.522.706-3.724 3.98-6.549 7.897-6.549 3.659 0 6.805 2.504 7.704 5.907 4.43 15.022 16.884 26 32.485 28.312 16.05 2.44 31.458-5.329 39.354-17.848 2.119-3.146 6.228-4.494 9.823-3.017 3.403 1.412 5.329 4.943 4.88 8.41-1.734 15.344 5.649 30.56 19.13 38.648 13.804 8.154 30.817 7.127 43.207-1.412 3.146-2.183 7.448-1.862 10.208.899 2.632 2.632 3.082 6.612 1.284 9.63-7.447 13.546-6.42 30.43 2.953 43.014 9.566 13.032 25.937 18.425 40.446 15.215 3.724-.77 7.576 1.22 9.053 4.815 1.412 3.403.32 7.255-2.504 9.373-12.006 9.63-17.527 25.616-13.675 40.896 3.852 15.6 16.756 26.9 31.522 29.532 3.724.706 6.549 3.98 6.549 7.896zm90.907 52.516-13.02-73.83s-33.653-7.152-75.743-16.101c-11.594-2.466-11.395-19.093.257-21.25l80.038-14.837-40.28-63.23s-33.826 6.272-76.134 14.11c-11.659 2.164-17.841-13.276-7.896-19.728l68.27-44.337-61.414-43s-28.858 18.739-64.938 42.172c-9.945 6.459-21.565-5.438-14.85-15.209l46.102-67.089-73.188-16.223-43.861 63.815c-6.715 9.77-22.001 3.229-19.536-8.372l16.923-79.621-73.83 13.02s-7.152 33.653-16.101 75.736c-2.466 11.601-19.093 11.402-21.25-.25l-14.838-80.038-63.23 40.28s6.272 33.826 14.11 76.134c2.164 11.659-13.276 17.841-19.728 7.896l-44.337-68.27-43 61.414s18.739 28.858 42.172 64.938c6.459 9.945-5.438 21.565-15.209 14.85l-67.089-46.102-16.223 73.188 63.815 43.861c9.77 6.715 3.229 22.001-8.372 19.536l-79.62-16.923 13.02 73.83s33.653 7.152 75.736 16.101c11.601 2.466 11.402 19.093-.25 21.25l-80.038 14.838 40.28 63.23s33.826-6.272 76.134-14.11c11.659-2.164 17.841 13.276 7.896 19.728l-68.27 44.337 61.414 43s28.858-18.739 64.938-42.172c9.945-6.459 21.565 5.438 14.85 15.209l-46.102 67.089 73.188 16.223 43.861-63.815c6.715-9.77 22.001-3.229 19.536 8.372l-16.923 79.62 73.83-13.02s7.152-33.653 16.101-75.736c2.466-11.601 19.093-11.402 21.25.25l14.837 80.038 63.23-40.28s-6.272-33.826-14.11-76.134c-2.164-11.659 13.276-17.841 19.728-7.896l44.337 68.27 43-61.414s-18.739-28.858-42.172-64.938c-6.459-9.945 5.438-21.565 15.209-14.85l67.089 46.102 16.223-73.188-63.815-43.861c-9.77-6.715-3.229-22.001 8.372-19.536z" fill-rule="nonzero" transform="matrix(.420561 0 0 .420561 145 65)"/></svg>