<svg enable-background="new 0 0 10.229 13.993" viewBox="0 0 10.229 13.993" xmlns="http://www.w3.org/2000/svg"><path d="m9.673.319c.186-.104.367-.216.555-.319.003 2.988 0 5.977.002 8.965.001 1.369-.606 2.714-1.602 3.645-.838.786-1.943 1.292-3.092 1.372 0-1.485-.003-2.97.002-4.455-.224.114-.445.227-.666.341.006 1.375-.002 2.75.004 4.125-1.264-.047-2.5-.596-3.386-1.498-.416-.404-.742-.893-1.002-1.409-.718-1.503-.645-3.365.226-4.791.294-.481.65-.93 1.089-1.286.383-.332.829-.575 1.263-.832.605-.35 1.21-.703 1.813-1.057-.01 1.443-.004 2.886-.003 4.328.213-.117.431-.222.653-.322.009-1.458.009-2.918 0-4.376 1.372-.825 2.768-1.61 4.144-2.431z"/></svg>