<svg enable-background="new 0 0 86.169 28.922" viewBox="0 0 86.169 28.922" xmlns="http://www.w3.org/2000/svg"><g clip-rule="evenodd" fill-rule="evenodd"><path d="m44.221 1.853c-.439-.939-2.145-1.247-3.533-1.229-3.807.049-5.505 3.013-4.865 7.17.161 1.052.48 2.362 1.075 2.561.39.13.895-.157 1.383-.256 1.535-.312 3.271-.117 3.585 1.229-.272 1.826-2.859 1.452-4.148.87-.463-.208-1.005-.736-1.485-.717-.509.02-1.207.822-1.587 1.28-2.341 2.82-2.533 8.861-.358 11.984 1.472 2.115 4.182 3.617 7.682 3.636 4.048.022 7.063-1.252 8.757-3.789.792-1.186 1.447-3.082 1.127-5.224-.244-1.635-1.445-3.335-2.919-3.892-.992-.375-2.899-.48-3.995-.051-.826.324-1.746 1.14-2.15 1.997-.432.915-.67 2.62.256 3.431.491-.896.593-1.933 1.588-2.305 1.308-.489 2.333.309 2.611 1.076.356.978-.139 2.275-1.075 2.766-1.145.599-2.767.145-3.432-.666-.903-1.103-1.031-3.293-1.023-4.814.009-2.151 1.181-3.691 2.355-4.865.956-.956 1.903-1.543 3.432-2.049 1.268-.419 2.746-.891 4.097-1.382 1.405-.512 2.689-1.05 3.329-2.151.288-.496.592-1.27.256-2.048-.612.062-.756.76-1.332.973-1.051.389-2.253-.225-2.406-1.178-.246-1.52 1.167-2.485 2.714-1.946 1.606.56 1.893 3.64 1.178 5.429-.906 2.268-3.543 2.969-6.095 3.79-3.118 1.003-6.471 1.588-6.862 5.122.4-.014.643-.355.871-.563.951-.867 2.446-1.509 4.353-1.332 2.08.194 3.684 1.655 4.353 3.329.695 1.742.368 4.137-.256 5.583-.64 1.479-2.039 2.941-3.329 3.841-2.11 1.471-6.373 1.746-9.68 1.127-2.865-.537-5.689-2.156-7.016-4.25-.938-1.482-1.644-3.787-1.229-6.146.452-2.566 2.206-4.355 3.637-5.941.536-.402 1.207-.67 1.588-1.229-.742-1.547-2.124-2.755-2.049-5.172.055-1.761 1.207-3.553 2.458-4.456 1.263-.911 2.858-1.291 4.609-1.383 2.139-.112 4.284.757 4.865 2.612.209.669.194 1.572-.103 2.202-.668 1.413-2.945 1.282-3.534.051-.524-1.098.042-2.256.769-2.612.37-.186 1.138-.118 1.533-.413zm-6.555 9.219c-.007.251.494.542.717.666.664.369 2.979.679 2.919-.41-.032-.578-1.239-.74-1.639-.769-.3-.021-.609.019-.922.051-.377.04-1.064.001-1.075.462z"/><path d="m9.192.931c.305 3.195-.101 7.099.205 10.294.797.276 1.745.153 2.663.153 2.676 0 5.742.084 8.296-.102.272-.763.153-1.666.153-2.561.001-1.72 0-3.554 0-5.326.001-.873-.114-1.763.154-2.509 2.717-.17 6.143-.17 8.859 0 .217 9.049.314 18.769.102 27.86-2.769.169-6.245.171-9.014 0-.31-3.379.023-7.48-.204-10.857-.813-.273-1.753-.21-2.663-.205-2.66.014-5.635.019-8.297.102-.274.824-.153 1.79-.153 2.714 0 2.676.109 5.695-.154 8.245-2.135.227-4.68.048-6.862.103-.751.019-1.521.1-2.15-.154-.19-7.885-.102-15.963-.102-24.429 0-1.119-.13-2.788.205-3.38.037-.048.093-.078.153-.102h4.507s3.02-.121 4.302.154z"/><path d="m65.679.931c.352 3.358-.148 7.019.257 10.345 3.405.133 7.359.247 10.754.051.267-.753.154-1.648.154-2.51-.001-2.538-.083-5.466.103-7.887 2.785-.169 6.279-.171 9.064 0 .2 2.121.153 4.371.153 6.658.001 6.893-.019 14.358-.153 21.202-2.786.17-6.279.17-9.064 0-.399-3.479.101-7.534-.257-10.959-3.497-.139-7.267-.254-10.754-.051-.275 1.647-.154 3.571-.154 5.479.001 1.876.084 3.796-.103 5.48-2.772.183-6.368.296-9.115 0-.224-5.653-.101-11.538 0-17.259.015-.866-.103-1.751-.103-2.663 0-2.289.052-4.536.051-6.862 0-.358-.129-.849.205-1.127 1.243-.091 3.093-.051 4.66-.051 1.533.001 3.038-.119 4.302.154z"/></g></svg>