<svg enable-background="new 0 0 41.04 35.243" viewBox="0 0 41.04 35.243" xmlns="http://www.w3.org/2000/svg"><path d="m24.687.003c2.651.041 5.31-.035 7.956.014-.027.802.041 1.611-.032 2.409-.918.012-1.84-.027-2.755.026-.028.792.039 1.59-.035 2.377-.791.004-1.583.004-2.374.004-.027-.795.018-1.592-.026-2.385-.914-.002-1.831.031-2.743-.018-.027-.807-.043-1.622.009-2.427z"/><path d="m10.339.073c2.645-.076 5.3.03 7.945-.061.065.813.012 1.633.032 2.449-.918.032-1.837.034-2.756.029-.003 4.513-.013 9.03.03 13.542 3.948-.029 7.899-.063 11.848-.038.046-1.856-.013-3.725.014-5.587.799-.046 1.604-.02 2.405-.021-.011 1.669.033 3.336.022 5.005.009.1.006.201-.002.302-.002 5.651.052 11.302.026 16.95.011.04.022.082.034.123.924-.008 1.847-.008 2.771-.004.009.802-.002 1.603.006 2.405-1.028.006-2.055-.001-3.083.011-.643.021-1.289.032-1.931.003-.101.023-.205.017-.306.011-.196.003-.392.011-.587-.005-.493.023-.988.012-1.481.006-.19.009-.383.013-.571-.021-.072-.792.018-1.591-.033-2.384.926-.035 1.864.028 2.789-.034-.043-4.783-.028-9.568-.036-14.352-.442.01-.886-.019-1.326.018-3.516-.075-7.033.026-10.548.042-.026 1.862.008 3.726-.009 5.589-.796-.036-1.624.053-2.4-.044-.046-7.169-.021-14.341-.069-21.512-.927-.005-1.854.001-2.781 0-.016-.807-.006-1.614-.003-2.422z"/><path d="m17.078 6.452c4.62-.134 9.24.019 13.861-.065 1.398.001 2.796-.008 4.194-.007 2.339.044 4.583 1.562 5.432 3.754 1.025 2.424.182 5.445-1.926 7.015 1.765 1.312 2.711 3.645 2.31 5.813-.39 2.807-3.017 5.08-5.857 5.044-1.205-.002-2.41.014-3.615.003-.005-.815.003-1.631-.004-2.446 1.164-.028 2.329-.037 3.494-.031 1.487.01 2.95-.963 3.413-2.395.529-1.364.06-3.012-1.067-3.933-.498-.416-1.116-.684-1.752-.799-1.361-.09-2.724.015-4.088-.007.007-.804-.054-1.607-.01-2.41 1.142-.037 2.286-.024 3.429-.031 1.066.017 2.145-.429 2.836-1.252.635-.728.927-1.722.839-2.678-.123-1.849-1.9-3.347-3.737-3.217-5.913.07-11.833-.046-17.747.085-.01-.815 0-1.629-.005-2.443z"/><path d="m.002 6.493c3.829-.035 7.658-.037 11.488-.039.087-.001.075.113.082.174-.003.757.003 1.514-.001 2.271-1.2-.001-2.4-.003-3.6.008-.286-.005-.573-.012-.858 0-.626.004-1.254-.03-1.878.021-.007 2.377.008 4.755.002 7.132 2.119.005 4.239-.005 6.359-.003-.007.802.044 1.61-.019 2.409-2.101.008-4.203.015-6.304.007-.029 2.371.009 4.75-.009 7.124 6.874.107 13.754-.081 20.632-.025.033.819.048 1.644-.001 2.462-8.611.027-17.217.109-25.828.073-.034-.23-.035-.464-.013-.695-.011-.579-.007-1.165-.012-1.747.928-.063 1.863-.018 2.793-.03-.025-4.111.022-8.229-.038-12.339.015-1.451-.013-2.91.001-4.364-.93-.009-1.86-.002-2.791-.001-.012-.814-.005-1.626-.005-2.438z"/><path d="m13.202 29.658c.796-.059 1.598-.011 2.396-.029.029 1.064-.026 2.132.033 3.195.917.011 1.834-.005 2.751-.031.01.805 0 1.609.008 2.414-2.651.069-5.307.013-7.959.033-.065-.792.011-1.59-.031-2.383.928-.065 1.864-.013 2.795-.029.009-1.056-.014-2.114.007-3.17z"/></svg>