<svg enable-background="new 0 0 59.874 75.338" viewBox="0 0 59.874 75.338" xmlns="http://www.w3.org/2000/svg"><g clip-rule="evenodd" fill-rule="evenodd"><path d="m5.531.066c2.292-.149 5.199 0 7.909 0 2.647 0 5.306.009 7.86.048 10.354.16 21.295-.055 31.441.146 2.848.056 4.937-.185 6.308 1.601.609.793.825 1.688.825 3.202 0 6.001-.049 13.338-.048 19.796.001 13.077-.146 26.415-.146 39.98 0 1.236-.007 2.586-.048 3.882-.043 1.356.047 2.624-.243 3.688-.3 1.101-.941 1.889-1.844 2.426-.917.546-2.134.524-3.542.485-2.775-.076-5.787-.001-8.491 0-11.336.004-21.192-.19-32.945-.194-2.84-.001-5.832.121-8.394-.097-2.624-.224-4.06-1.642-4.124-4.318-.133-5.561.048-11.214.048-16.837 0-15.243.146-30.514.146-46.19 0-1.411-.122-2.845.097-4.124.399-2.333 2.41-3.562 5.095-3.493.031-.001.065.001.096-.001zm45.464 7.278c-2.177-.061-4.347-.242-6.55-.242-4.862-.001-9.878-.182-14.265.242-4.994.482-8.992 1.926-12.373 4.076-4.356 2.771-7.754 6.988-9.073 12.857-.695 3.095-.814 6.577-.728 10.141.084 3.525-.049 7.14-.049 10.723 0 6.241-.049 12.757-.049 19.068 0 .871-.111 1.771.146 2.62.582.332 1.521.242 2.571.243.73 0 2.345.194 2.717-.146.229-.211.194-1.037.194-1.65 0-1.914 0-4.028 0-5.579 0-2.344-.29-5.389.243-7.182.334-1.124 1.021-1.905 2.038-2.426.787-.402 2.248-.85 3.688-.242.636.269 1.292.856 1.552 1.746.279.956.146 2.285.146 3.445 0 3.673-.566 7.109 1.019 9.704.918 1.503 2.178 2.604 4.027 3.153 1.424.424 4.598.892 6.453.098.576-.247 1.372-.791 1.844-1.165.653-.517.779-1.128 1.65-1.649.633.544.838 1.263 1.455 1.747 1.813 1.423 4.883 2.007 7.86 1.31 2.455-.575 4.556-2.202 5.337-4.415.915-2.591.485-5.95.631-9.024.119-2.526-.072-4.9.437-6.842.165-.63.547-1.179.534-1.844-.695-.235-1.656-.151-2.668-.194-.874-.037-2.246-.165-2.766.146-.711.427-.842 2.224-1.019 3.396-.211 1.394-.217 2.937-.243 4.222-.048 2.447.453 6.281-.485 8.103-1.134 2.202-4.9 1.864-5.822-.436-.41-1.023-.34-2.296-.34-3.64 0-3.949.187-7.82-.048-11.596-.596-.269-1.654-.232-2.62-.242-.792-.009-2.326-.174-2.717.193-.262.247-.252 1.173-.242 1.747.034 1.936-.031 4.289-.048 5.968-.026 2.485.271 6.063-.437 7.715-.627 1.463-2.933 2.018-4.415 1.309-.722-.345-1.22-.861-1.504-1.649-.345-.957-.243-2.202-.243-3.396 0-1.228 0-2.503 0-3.639 0-2.27.08-4.778-.825-6.453-.979-1.813-3.412-3.307-6.162-3.348-1.955-.029-3.658.563-4.852 1.262-.391.229-.788.641-1.31.63-.123-.671-.108-1.671-.097-2.766.01-.926-.125-2.443.291-2.765 3.064-.056 6.109-.094 9.025-.049 5.963.091 11.414-.645 15.72-2.329 2.156-.844 3.931-1.992 5.629-3.445 3.265-2.795 5.615-6.506 7.035-11.111.702-2.276 1.133-4.893 1.456-7.617.161-1.354.291-2.788.291-4.221 0-1.417.114-2.856-.097-4.269-.567-.402-1.288-.275-1.942-.293z"/><path d="m44.105 12.099c-.2.67-1.079.955-1.698 1.311-.644.369-1.272.826-1.893 1.213-1.919 1.197-3.856 2.334-5.822 3.493-.64.378-1.215.85-1.844 1.262-1.264.829-2.623 1.511-3.882 2.329-2.52 1.64-5.164 3.118-7.714 4.706-1.914 1.192-3.768 2.459-5.725 3.591-.628.362-1.267.807-1.99.97-.379-.276-.163-.79-.146-1.164.142-3.048.599-5.756 1.601-7.908 1.148-2.466 3.096-4.324 5.095-5.774 3.132-2.269 7.331-3.526 12.372-3.93 2.826-.227 5.612-.244 8.54-.243 1.054-.001 2.151-.12 3.106.144z"/><path d="m47.307 15.689h.097c.358.372.17.955.097 1.358-1.246 6.874-3.58 12.895-8.976 15.672-4.238 2.181-10.334 3.009-16.739 3.009-1.083 0-2.184-.098-3.251-.049-.993.045-1.998.098-2.911-.242.073-.442.571-.536.873-.729.937-.595 1.946-1.268 2.96-1.844 1.359-.772 2.665-1.62 4.027-2.377 4.055-2.253 7.925-4.895 11.887-7.327 1.32-.81 2.665-1.612 3.979-2.426 2.639-1.633 5.121-3.469 7.763-4.997.067-.038.155.012.194-.048z"/></g></svg>