<svg enable-background="new 0 0 107.449 172.465" viewBox="0 0 107.449 172.465" xmlns="http://www.w3.org/2000/svg"><g clip-rule="evenodd" fill-rule="evenodd"><path d="m107.128.11c.175 9.407.097 18.742.096 28.006-.003 18.816.049 36.363.048 55.533-.001 9.41.084 18.584 0 27.958-.043.021-.086.043-.097.096-35.792.242-71.553.278-106.957.239-.009-.039-.048-.047-.048-.096-.237-36.773-.183-75.451-.096-111.64.748-.199 1.552-.143 2.342-.143h12.761c12.349 0 25.265-.049 37.851-.048 14.187.001 28.905-.001 43.108 0 2.609.001 5.424 0 8.172 0 1.031 0 2.139-.071 2.82.095z"/><path d="m107.224 120.163c.228 8.313.144 17.178.143 25.998-.001 8.836.188 17.6 0 25.855-7.857.443-16.414-.065-24.612.19-1.104.035-2.209.122-3.25-.095-.166-4.196-.144-8.752-.144-13.191 0-1.456.116-2.909-.143-4.254-16.941-.198-33.865-.017-50.85.096-.253.654-.144 1.391-.144 2.103 0 5.013.079 10.518-.096 15.436-9.004.183-18.651.205-27.814.096-.162-17.484-.281-34.502-.096-51.901 9.016-.27 18.464-.203 27.767-.191.259 1.387.144 2.985.144 4.589.001 4.624-.051 9.405.144 13.81 1.03.256 2.097.144 3.154.145 7.47 0 14.646-.098 22.27-.096 8.575.001 17.182.042 25.474-.144.254-.688.143-1.453.143-2.199.001-5.236-.079-10.963.097-16.105 1.412-.259 3.011-.144 4.635-.143 1.569 0 3.153-.001 4.731 0 6.169.002 12.384-.171 18.447.001z"/></g></svg>