<svg enable-background="new 0 0 83.06 39.096" viewBox="0 0 83.06 39.096" xmlns="http://www.w3.org/2000/svg"><path clip-rule="evenodd" d="m39.217 16.668c.671.236 1.585.163 2.459.201.887.037 1.823.045 2.56-.101.272-1.298.151-2.7.15-4.115 0-4.159-.092-8.586.151-12.496 1.688.523 3.248 1.361 4.868 2.058 4.753 2.041 9.572 4.288 14.403 6.373 4.846 2.091 9.662 4.192 14.504 6.273 1.582.68 3.215 1.276 4.667 2.208.091 7.021.159 14.752-.101 21.931-12.51.155-25.752.098-38.442 0-.263-5.569.081-11.489-.15-16.762-1.358-.274-3.581-.19-5.019-.05-.24 1.264-.15 2.694-.15 4.115-.001 2.864.074 5.732-.05 8.481-.065 1.435.17 2.855-.151 4.165-3.215.184-6.518.1-9.786.101-8.727 0-17.542-.049-26.749-.051-.766 0-1.577.113-2.309-.15-.101-7.046-.106-14.922.05-21.68 6.166-2.954 12.609-5.575 19.171-8.582 5.455-2.499 11.313-4.798 16.862-7.427.829-.393 1.799-1.011 2.559-1.154.617-.118.402 1.301.402 1.856 0 5.165-.072 9.931.101 14.806zm-5.822-6.624c0-.811.245-2.31-.552-1.958-5.507 2.431-11.443 4.853-16.862 7.377-.777.363-1.668.562-2.258 1.205 1.533.269 3.182.15 4.817.15 4.962-.001 10.041.133 14.754-.05.188-1.875.101-4.495.101-6.724zm16.561-1.757c-.059 2.796-.155 5.768.05 8.481 4.824.193 9.728.101 14.704.101 1.651 0 3.305.119 4.868-.151-.618-.593-1.485-.869-2.259-1.204-.818-.355-1.68-.654-2.509-1.004-4.842-2.044-9.749-4.38-14.705-6.373-.07.027-.121.078-.149.15zm-40.7 13.851c-1.079.004-2.43-.013-3.413.201-.268 1.682-.15 3.674-.15 5.62v2.911c0 .962-.113 1.929.15 2.761 8.945.213 18.712.246 27.401.05.272-1.688.151-3.694.151-5.621 0-1.977.082-3.956-.101-5.721-7.97-.149-16.192-.224-24.038-.201zm64.789.151c-7.88-.001-16.305-.072-23.938 0-.373.252-.251.809-.251 1.204 0 3.369-.085 6.822.101 10.188 1.006.216 2.078.152 3.162.15 7.767-.013 16.453.062 24.139-.1.167-3.549.168-7.793 0-11.342-1.043-.204-2.125-.1-3.213-.1z" fill-rule="evenodd"/></svg>