<svg enable-background="new 0 0 30.98 26.565" viewBox="0 0 30.98 26.565" xmlns="http://www.w3.org/2000/svg"><path d="m26.294.039c1.47-.042 2.943-.039 4.414-.039.109 8.748.19 17.496.272 26.245-1.475-.006-2.953.066-4.426.026-.049-8.745-.157-17.488-.26-26.232z"/><path d="m13.222.19c1.503-.086 3.012-.039 4.518-.064.05 2.929.097 5.859.114 8.79-1.505.078-3.014.035-4.52.06-.056-2.928-.071-5.857-.112-8.786z"/><path d="m0 .313c1.524-.051 3.049-.042 4.574-.053.112 8.751.23 17.501.261 26.254-1.524.035-3.049.055-4.575.05-.073-8.751-.155-17.5-.26-26.251z"/><path d="m13.406 17.613c1.519-.015 3.036-.072 4.555-.06.022 2.943 0 5.887.066 8.829-1.508-.011-3.013.063-4.52.051-.093-2.939-.019-5.882-.101-8.82z"/></svg>