<svg enable-background="new 0 0 81.57 80.244" viewBox="0 0 81.57 80.244" xmlns="http://www.w3.org/2000/svg"><g clip-rule="evenodd" fill-rule="evenodd"><path d="m3.603.114c.235 6.514.147 13.255.147 19.902 0 16.684-.05 32.853-.049 50.12 0 3.347.11 6.676-.098 9.926-.946.167-2.523.154-3.472 0-.181-25.969-.097-51.691-.097-77.698 0-.749-.155-1.593.196-2.298 1.009-.057 2.442-.135 3.373.048z"/><path d="m81.449.212c.166 26.312.158 53.9 0 79.85-.938.288-2.529.129-3.521 0-.238-1.172-.048-2.39-.098-3.618-.145-3.513 0-7.359 0-11.149 0-5.031.028-10.085-.049-14.865-.009-.04-.049-.049-.049-.098-.648-.4-1.435-.498-2.152-.685-2.186-.57-4.486-1.125-6.748-1.614-2.999-.648-5.934-1.607-8.948-2.249-3.024-.645-6.043-1.405-9.046-2.152-8.897-2.213-17.794-4.545-26.894-6.65-4.511-1.043-8.949-2.189-13.496-3.276-1.457-.348-2.932-.703-4.303-1.271-.032-2.722-.224-5.469-.098-8.166.127-2.71-.113-5.387 0-8.068.225-5.298-.164-10.653.148-16.038 4.138-.325 8.326.097 12.518-.098 2.385-.111 5.452.014 8.068 0 7.574-.041 15.695.049 23.471.049 10.554 0 20.946-.206 31.197.098z"/><path d="m6.342 35.81c16.455 5.764 33.576 11.166 49.875 17.065 3.406 1.232 6.116 2.542 8.264 5.085 1.024 1.212 1.919 2.686 2.396 4.303.993 3.368 1.046 7.883 1.565 11.785.261 1.965.564 3.946.586 5.965-.043.022-.087.043-.098.098-12.934.175-26.168.048-39.362.049-2.601 0-5.21-.07-7.775.049-2.586.12-5.176-.173-7.774-.049-2.602.124-5.238.127-7.824-.098-.209-7.23-.098-14.583-.098-22.248 0-6.337-.049-12.594-.049-19.216 0-.861.023-2.216.147-2.689.036-.047.089-.076.147-.099z"/></g></svg>