<svg enable-background="new 0 0 74.899 69.86" viewBox="0 0 74.899 69.86" xmlns="http://www.w3.org/2000/svg"><g clip-rule="evenodd" fill-rule="evenodd"><path d="m36.441 28.99c.474.227 1.468.178 1.918-.049.228-1.098.201-2.276.197-3.443-.004-1.199-.006-2.42 0-3.639.013-2.46-.185-4.969.098-7.278.285-2.322.683-4.186 1.623-5.852.908-1.609 1.811-3.081 3.148-4.328 1.96-1.828 4.412-3.24 7.328-3.885 3.404-.753 6.667-.057 9.344 1.131 3.696 1.642 6.407 4.809 7.967 8.852.523 1.356.954 3.048.983 4.573.114 5.832-2.428 10.04-5.607 12.688-.444.371-1.043.639-1.278 1.23.55.261 1.216.178 1.819.196 2.754.086 5.527.099 8.41.099.854 0 1.807-.153 2.508.196.008.931-.543 1.735-.935 2.46-.405.747-.838 1.511-1.377 2.114-6.527.065-13.406-.049-20.065-.049-2.221 0-4.464.118-6.59-.147-.076-.394.506-.537.787-.737 2.369-1.6 4.724-3.262 7.18-4.819 1.207-.765 2.502-1.477 3.688-2.312 1.177-.828 2.467-1.518 3.492-2.459 1.549-1.422 2.748-3.494 3.147-5.901.44-2.658-.104-5.351-1.377-7.279-1.142-1.729-2.688-3.378-4.771-4.278-2.136-.923-4.854-1.293-7.475-.344-2.346.849-3.843 1.94-5.262 3.787-1.315 1.712-2.194 3.923-2.213 6.787-.02 2.898 0 5.917 0 8.951 0 2.234.028 4.49.049 6.639.007.669.009 1.378-.196 2.016-2.559.083-5.6.122-8.36 0-.91-.04-1.853.143-2.656-.148-.266-1.202-.147-2.469-.147-3.738 0-2.57-.143-5.137 0-7.573.075-1.28.05-2.634 0-3.885-.104-2.586-.028-4.91-.837-6.836-.769-1.835-1.869-3.147-3.246-4.475-1.955-1.482-4.458-2.592-8.016-2.213-3.83.408-6.641 3.208-8.065 6.049-.777 1.551-1.277 3.738-.983 5.852.848 6.102 5.766 8.197 10.082 11.016 2.452 1.602 4.957 3.264 7.377 4.967.31.218.824.375.885.836-7.152.129-14.783.049-22.229.049-1.022 0-2.077.154-3-.197.066-.887.644-1.632 1.082-2.361.438-.727.727-1.586 1.328-2.163 2.205-.16 4.618.058 6.59-.246-.04-.525-.641-.802-1.033-1.131-.409-.342-.813-.695-1.131-1.082-1.501-1.256-2.372-2.804-3.196-4.623-.807-1.784-1.536-3.976-1.426-6.297.119-2.516.448-4.6 1.328-6.491 1.582-3.399 3.78-5.747 7.033-7.574 2.211-1.242 4.97-1.869 8.36-1.574 3.168.276 6.299 1.995 8.213 3.59.55.458 1.088 1.106 1.623 1.672 1.087 1.15 1.601 2.476 2.311 4.033.333.73.547 1.489.787 2.262.514 1.66.59 3.434.59 5.508v6.049c0 1.919-.178 3.912.196 5.804z"/><path d="m29.36 30.809c-.396.057-.775-.243-1.082-.443-3.54-2.302-7.03-4.69-10.77-6.983-1.291-.791-2.591-2.031-3.295-3.147-.548-.868-1.044-2.111-1.229-3.246-.526-3.223.851-5.741 2.213-7.229 1.512-1.651 3.921-2.892 7.082-2.558.677.072 1.507.338 2.066.59 1.902.858 3.56 2.54 4.426 4.524 1.074 2.46.587 5.676.738 9 .108 2.382.049 4.823.049 7.229-.001.749.137 1.585-.198 2.263zm-4.475-10.967c0-1.454.031-2.992 0-4.229-.079-3.058-3.855-4.613-6.148-2.655-1.244 1.061-1.565 3.472-.492 4.819.664.833 1.913 1.565 2.999 2.262.549.353 1.094.712 1.623 1.033.589.356 1.126.843 1.771.885.397-.562.247-1.374.247-2.115z"/><path d="m45.638 30.957c-.238-.682-.162-1.428-.197-2.164-.107-2.271.081-4.583.098-6.836.032-4.154-.447-8.087 1.279-10.77.606-.942 1.589-1.797 2.557-2.458 1.561-1.067 4.182-1.76 6.59-1.082 2.028.57 4.029 2.216 5.066 4.032.51.894.936 2.164 1.033 3.443.205 2.696-.816 4.961-2.115 6.442-.845.964-2.148 1.802-3.393 2.557-3.165 1.92-5.993 3.834-9.049 5.852-.58.383-1.153.926-1.869.984zm6.393-9.688c.521-.32 1.104-.624 1.623-.984 1.041-.722 2.299-1.356 3-2.213.488-.597.925-1.708.787-2.803-.134-1.056-.924-2.014-1.721-2.508-2.167-1.343-4.799.142-5.41 1.967-.431 1.288-.321 4.097-.197 5.705.043.563-.105 1.261.295 1.672.608-.005 1.086-.506 1.623-.836z"/><path d="m29.016 36.317c.062.514-.543.652-.836.836-2.468 1.554-4.928 3.272-7.475 4.869-1.377.863-2.812 1.84-4.229 2.803-1.453.986-2.806 1.942-3.787 3.246-1.358 1.805-2.033 4.019-1.967 6.639.065 2.575 1.004 4.723 2.311 6.344 1.287 1.595 2.993 2.793 5.164 3.491 2.251.724 4.996.537 7.278-.393 1.947-.793 3.63-2.247 4.672-3.983 1.13-1.883 1.672-4.037 1.672-6.984 0-3.97-.082-8.575 0-12.786.026-1.375-.308-2.754.098-4.033.815-.289 1.763-.098 2.705-.098 1.83 0 3.824-.08 5.705 0 .939.04 1.854-.042 2.656.197.252 1.018.05 2.213.098 3.492.167 4.446-.041 9.684.049 14.212.069 3.49 1.282 6.036 3.098 7.869 1.192 1.203 2.736 2.221 4.574 2.754 2.005.582 4.517.475 6.393-.147 3.286-1.089 6.059-3.953 6.885-7.721.611-2.787.066-5.351-.885-7.229-.977-1.929-2.532-3.297-4.18-4.377-3.481-2.28-6.903-4.567-10.328-6.787-.511-.273-.972-.646-1.476-.984-.454-.304-1.193-.439-1.328-1.082.989-.265 2.067-.148 3.099-.148 6.322 0 12.677.049 19.179.049 1.016 0 2.045-.074 3 .197.066.464-.243.876-.443 1.229-.434.767-.854 1.327-1.328 2.213-.257.482-.393.88-.737 1.033-.707.314-2.487.126-3.394.148-1.149.027-2.251-.176-3.197.098.166.703.899.838 1.279 1.328 3.5 3.119 6.333 7.752 5.41 14.36-.364 2.602-1.545 5.166-3 7.033-2.787 3.574-7.642 6.572-14.065 5.704-5.588-.755-9.498-4.163-11.557-8.508-1.066-2.25-1.69-4.981-1.672-8.36.015-2.922.049-5.831.049-8.803 0-.931.151-1.879-.147-2.754-.352-.305-1.495-.262-1.918-.049-.357 1.658-.216 3.519-.197 5.36.02 1.867-.05 3.755 0 5.558.053 1.891.027 3.668-.295 5.262-1.157 5.723-4.417 9.356-9.393 11.311-4.061 1.595-8.885 1.006-12.294-.787-4.565-2.4-8.388-7.257-8.164-14.409.166-5.271 3.041-9.106 6.098-11.606.24-.196.592-.393.689-.737-.417-.323-1.01-.197-1.524-.197-2.671 0-5.354-.098-8.213-.098-1.091 0-2.217.209-3.147-.148.086-1.062.721-1.574.984-2.459.488-.659.722-1.573 1.328-2.115 7.666.004 15.926-.149 23.507 0 1.086.021 2.168-.136 3.196.147z"/><path d="m14.999 48.759c1.951-1.922 4.402-3.292 6.836-4.869 1.697-1.099 3.46-2.298 5.311-3.442.447-.276 1.611-1.229 1.967-1.18.369.05.388.771.393 1.77.009 1.735-.071 4.794 0 6.295.068 1.421.011 2.996-.049 4.279-.07 1.493.135 2.86-.049 4.131-.248 1.709-1.065 3.182-1.967 4.229-1.365 1.583-3.831 3.065-6.836 2.803-2.997-.261-5.273-2.073-6.442-4.18-1.669-3.009-1.481-7.382.836-9.836zm7.525.443c-1.475.976-3.963 2.036-4.672 3.59-.776 1.702.186 3.715 1.131 4.475 1.901 1.53 5.028.662 5.754-1.869.333-1.162.067-2.392.099-3.738.015-.633.073-1.278.049-1.918-.022-.565.084-1.26-.295-1.721-.863.209-1.345.704-2.066 1.181z"/><path d="m45.687 39.415c1.112.406 2.694 1.506 3.688 2.164 3.498 2.313 7.081 4.538 10.278 7.033 2.134 1.881 3.007 6.407 1.574 9.541-.743 1.624-2.197 3.16-3.836 3.983-2.022 1.017-5.268 1.018-7.328-.049-1.902-.985-3.827-3.088-4.377-5.753-.255-1.237-.246-2.67-.246-4.131 0-3.404 0-6.904 0-10.573 0-.805-.071-1.757.098-2.115.038-.047.091-.076.149-.1zm4.328 11.853c-.052 1.116-.084 2.339 0 3.295.16 1.816 1.377 3.193 2.902 3.541 3.038.693 5.509-2.363 4.082-5.262-.553-1.124-1.982-1.965-3.049-2.656-.593-.384-1.2-.73-1.771-1.082-.594-.366-1.183-.857-1.918-.885-.331.866-.196 1.963-.246 3.049z"/></g></svg>