<svg enable-background="new 0 0 28.391 30.568" viewBox="0 0 28.391 30.568" xmlns="http://www.w3.org/2000/svg"><path d="m18.218.05c1.748-.004 3.504-.092 5.247-.027 1.625 1.377 3.176 2.85 4.735 4.304.04 8.663.109 17.325.191 25.987-1.726.049-3.464.079-5.185.036-1.618-1.409-3.196-2.868-4.796-4.298-.078-2.037-.027-4.077-.069-6.115-2.597-.002-5.193.046-7.79.076.027 3.497.062 6.995.07 10.496-1.868.038-3.736.053-5.605.058-1.623-1.434-3.241-2.871-4.831-4.34-.066-8.659-.12-17.318-.185-25.978 1.704.003 3.422-.106 5.118-.032 1.773 1.546 3.535 3.113 5.292 4.679.098 2.03.046 4.069.071 6.103 2.592.01 5.181-.064 7.772-.072.053-3.623-.053-7.251-.035-10.877zm.749.762c.01 5.001.082 10 .095 15.002-4.714.033-9.427.127-14.142.143-.067-3.63.008-7.264-.085-10.893-1.37-1.175-2.718-2.377-4.071-3.574.044 8.124.085 16.255.19 24.376 1.304 1.266 2.696 2.446 4.057 3.654.01-3.408-.027-6.81-.067-10.216 4.71-.076 9.421-.086 14.13-.166.061 2.111.042 4.224.057 6.335 1.329.006 2.655-.022 3.983-.053-.072-8.217-.096-16.437-.181-24.655-1.323-.005-2.645.017-3.966.047zm-17.572.202c1.315 1.19 2.661 2.343 3.997 3.508 1.127-.003 2.254-.01 3.382-.025-1.314-1.19-2.622-2.395-3.991-3.52-1.127-.034-2.26-.011-3.388.037zm22.313.255c.054 8.123.099 16.249.179 24.37 1.265 1.118 2.474 2.297 3.744 3.411-.054-8.136-.097-16.272-.173-24.408-1.262-1.112-2.451-2.305-3.75-3.373zm-18.061 4.021c.011 3.142.005 6.285.063 9.426 1.339-1.16 2.673-2.328 4.003-3.499.004-1.986-.013-3.971-.05-5.956-1.34.007-2.678.012-4.016.029zm4.861 6.476c-.249-.032-.428.161-.599.308-1.172 1.043-2.369 2.056-3.541 3.098 3.977-.015 7.954-.084 11.931-.116-.001-1.121.006-2.242-.016-3.363-2.592.003-5.182.08-7.775.073zm-4.745 8.3c.036 3.246-.024 6.495.069 9.738 1.34-.03 2.683.021 4.021-.062-.006-3.243-.044-6.482-.078-9.723-1.339-.018-2.674.055-4.012.047zm14.028 6.187c1.237 1.127 2.471 2.255 3.727 3.359 1.167-.019 2.338.031 3.502-.06-1.225-1.109-2.399-2.289-3.685-3.322-1.172-.022-2.364.004-3.544.023z"/></svg>