<svg enable-background="new 0 0 52.428 77.855" viewBox="0 0 52.428 77.855" xmlns="http://www.w3.org/2000/svg"><path clip-rule="evenodd" d="m8.938.074c3.523-.167 7.514 0 11.19 0 1.804 0 3.598-.02 5.392 0 5.301.059 10.715 0 16.277 0 1.992 0 3.807-.088 5.239.356 2.62.812 4.662 3.007 5.138 6.002.255 1.605.152 3.373.152 5.442 0 3.777.412 7.619-1.068 10.02-.697 1.131-1.749 2.056-2.95 2.646-2.688 1.319-6.331.966-10.224.966-2.002 0-4.658-.296-6.257.254-1.403.483-2.332 2.275-1.831 4.425.257 1.101 1.199 2.067 2.238 2.289 1.812.386 3.817.102 5.646.102 3.921 0 7.846-.503 10.58.915 1.154.599 2.309 1.807 2.898 2.798 1.37 2.299.967 6.593.967 10.376 0 7.355.101 15.147.101 22.737 0 3.721-1.55 6.065-4.12 7.325-2.525 1.238-6.868.808-10.58.865-9.45.145-18.995.113-28.23.254-2 .031-3.698-.028-5.036-.661-1.184-.562-2.347-1.609-3.051-2.696-1.488-2.294-1.311-6.421-1.17-10.173.069-1.863.083-3.801 0-5.697-.078-1.779 0-3.702 0-5.646 0-1.888-.103-3.78-.103-5.646.001-4.017-.306-8.228.864-10.58.634-1.273 1.561-2.157 2.748-3.001 1.167-.831 2.945-.992 4.628-1.068 3.523-.16 7.456.193 11.241-.102 1.504-.117 2.546-.902 2.899-2.188.556-2.016-.233-3.963-1.882-4.527-1.607-.549-4.524-.1-6.714-.203-2.19-.104-4.68.056-6.715-.102-2.336-.182-3.694-1.087-4.781-2.136-1.105-1.067-2.014-2.766-2.237-4.68-.243-2.066-.152-4.327-.153-6.765 0-2.211-.192-4.92.306-6.613.726-2.468 2.629-4.585 5.289-5.086.963-.179 1.973-.138 3.309-.202zm-6.154 6.003c-.457 1.481-.254 3.664-.254 5.595 0 1.751.02 3.549.05 5.086.067 3.417 1.23 5.761 4.171 6.155 1.051.141 2.287.088 3.561.101 3.509.037 8.256-.364 10.986.305 1.498.367 2.809 1.503 3.357 2.747.822 1.867.58 5.371-.357 6.765-1.014 1.511-2.598 2.289-4.73 2.34-2.246.054-4.691-.013-7.02 0-2.35.013-4.784-.211-6.612.356-1.696.526-2.901 1.977-3.204 3.917-.195 1.249-.046 2.436-.051 3.612-.017 3.695 0 7.108 0 11.038 0 2.592-.064 5.093.051 7.528.118 2.51-.127 4.929-.051 7.325.081 2.589.533 4.358 2.085 5.442 1.47 1.028 4.163.874 6.715.865 7.129-.025 14.836-.101 22.075-.102 2.486 0 4.998-.102 7.478-.102 2.585 0 5.11.124 6.663-.916 1.756-1.176 2.188-2.628 2.188-5.392 0-8.331.05-17.902.051-26.247 0-1.176.054-2.489-.203-3.611-.306-1.331-1.146-2.319-2.086-2.95-1.106-.743-2.496-.813-4.222-.813-2.777 0-6.504.053-9.97 0-3.151-.048-5.284-1.372-5.85-4.222-.688-3.474.323-6.214 2.492-7.325 1.297-.664 3.283-.61 5.29-.61h5.087c1.446 0 3.438.016 4.934-.153 2.973-.334 4.441-2.406 4.578-5.646.067-1.597-.008-3.422 0-4.984.009-1.709.041-3.458-.152-4.934-.371-2.832-2.411-4.628-5.596-4.628-11.859 0-24.22-.157-35.656 0-3.253.043-5.035.977-5.798 3.458z" fill-rule="evenodd"/></svg>