<svg enable-background="new 0 0 13.198 13.064" viewBox="0 0 13.198 13.064" xmlns="http://www.w3.org/2000/svg"><path d="m5.218.144c1.1-.234 2.259-.18 3.335.147-.003 1.738-.002 3.476 0 5.214-.306-.558-.854-.977-1.479-1.106-.457-.106-.942-.048-1.372.135-.472.205-.866.581-1.09 1.043-.245.505-.297 1.106-.109 1.638.205.644.734 1.17 1.374 1.382.772.271 1.681.07 2.266-.501.165-.154.291-.343.409-.535-.001 1.739.001 3.478-.001 5.217-1.4.42-2.938.38-4.306-.139-.845-.314-1.616-.814-2.265-1.437-.952-.92-1.618-2.133-1.865-3.435-.19-1.01-.148-2.067.142-3.054.314-1.088.928-2.083 1.742-2.867.887-.851 2.012-1.457 3.219-1.702z"/><path d="m10.715 4.355c.426-.064.867.03 1.255.209.459.226.839.615 1.042 1.086.208.452.235.976.113 1.456-.143.516-.478.98-.932 1.266-.464.303-1.047.417-1.592.321-.565-.092-1.095-.412-1.425-.882-.441-.587-.543-1.407-.263-2.086.286-.745 1.011-1.286 1.802-1.37z"/></svg>