<svg enable-background="new 0 0 78.439 79.321" viewBox="0 0 78.439 79.321" xmlns="http://www.w3.org/2000/svg"><path clip-rule="evenodd" d="m65.831 10.683c5.089 4.766 8.994 10.756 11.234 18.36 1.759 5.969 1.761 13.618.396 19.746-.45 2.021-1.111 3.918-1.782 5.592-1.422 3.549-3.195 6.717-5.295 9.503-2.085 2.765-4.659 5.087-7.473 7.324-2.749 2.186-5.854 3.939-9.403 5.393-3.524 1.445-7.616 2.477-12.075 2.673-14.358.634-24.411-5.373-31.327-12.867-1.169-1.267-2.139-2.761-3.168-4.256-2.017-2.934-3.723-6.146-4.949-9.849-.616-1.86-1.012-3.819-1.436-5.939-.842-4.221-.628-9.131 0-13.609.585-4.173 2.029-7.827 3.712-11.086 1.678-3.249 3.632-6.283 5.938-8.81 3.105-3.393 6.743-6.364 11.185-8.562 3.34-1.651 6.888-2.956 11.085-3.711 1.436-.259 2.98-.471 4.553-.545 6.586-.31 12.058 1.138 16.777 2.97 4.728 1.837 8.669 4.631 12.028 7.673zm-16.331 1.484c-.785-2.961-2.455-5.116-4.85-6.582-2.125-1.301-5.138-1.912-8.017-1.287-.719.156-1.375.4-2.029.693-3.396 1.522-6.507 5.065-6.533 9.749-.017 3.322 1.029 5.957 2.871 7.968 1.593 1.74 4.428 3.275 7.275 3.563 2.542.257 4.705-.473 6.235-1.386 1.658-.989 2.838-2.102 3.86-3.761 1.381-2.348 2.019-5.821 1.188-8.957zm-1.881 15.144c-1.916 1.344-4.174 2.393-6.978 2.722-3.989.47-7.512-.927-10.145-2.623-.738-.435-1.329-1.273-2.227-1.385-.223 12.715-.05 25.396-.05 37.809 0 1.296-.062 2.501.148 3.564.582 2.934 2.6 5.325 4.85 6.681 1.514.912 3.669 1.738 5.988 1.683 2.235-.054 4.282-.822 5.791-1.881 1.484-1.041 2.81-2.383 3.612-4.058.381-.795.682-1.866.94-2.871.281-1.092.346-2.305.346-3.514 0-12.287-.049-24.139-.049-36.077 0-.622.161-1.411-.297-1.634-.74.418-1.195 1.07-1.929 1.584z" fill-rule="evenodd"/></svg>