<svg enable-background="new 0 0 75.533 76.478" viewBox="0 0 75.533 76.478" xmlns="http://www.w3.org/2000/svg"><g clip-rule="evenodd" fill-rule="evenodd"><path d="m75.09 22.637c-23.814.104-50.13.041-74.727-.146.081-.652.741-1.016 1.174-1.467.453-.471.872-.986 1.319-1.416 6.224-6.533 12.616-12.897 18.719-19.549 4.999-.09 10.439-.051 15.591-.049 4.544 0 8.886.047 13.244.049.639 0 1.412-.105 1.906 0 .482.102 1.114.869 1.563 1.318 3.358 3.358 6.625 6.551 9.921 9.922 3.546 3.498 7.198 7.002 10.753 10.557.205.205.628.406.537.781z"/><path d="m23.579 27.475c.14 3.109.215 6.988-.049 10.019.204 1.738.146 3.717.146 5.719 0 2.014.08 4.072-.098 5.963-1.872.416-3.851.566-5.816.781-4.863.529-9.801 1.137-14.711 1.711-.962.111-1.934.258-2.884.195-.232-4.338-.146-8.865-.146-13.686 0-3.385 0-6.939 0-10.557 0-.971-.106-2.961.146-3.42.809-.129 2.098.156 3.128.293 6.663.88 13.838 1.878 20.284 2.982z"/><path d="m75.383 52.01c-1.979-.006-3.952-.34-5.913-.586-1.974-.25-3.949-.434-5.914-.685-3.908-.5-7.841-.871-11.632-1.516-.145-6.852-.174-14.652 0-21.699 3.781-.764 7.586-1.051 11.437-1.66 2.819-.447 5.677-.871 8.601-1.223 1.003-.121 2.138-.314 3.079-.391.713-.059.441 2.551.44 3.176-.001 8.162.083 16.594-.098 24.584z"/><path d="m74.993 54.063c-.157.699-.797 1.059-1.222 1.514-.442.475-.84.984-1.369 1.369-.85.975-1.808 1.842-2.688 2.785-4.008 4.197-8.054 8.338-12.022 12.609-.659.709-1.346 1.393-2.004 2.102-.653.703-1.311 1.439-2.102 2.004-10.228.088-20.401-.037-30.545 0-1.87-1.438-3.322-3.291-5.034-4.887-1.708-1.594-3.273-3.346-4.985-4.936-3.424-3.182-6.668-6.566-10.067-9.775-.726-.697-1.423-1.367-2.15-2.102-.227-.23-.624-.434-.587-.83 24.647-.103 49.879-.058 74.775.147z"/></g></svg>