<svg enable-background="new 0 0 81.461 81.196" viewBox="0 0 81.461 81.196" xmlns="http://www.w3.org/2000/svg"><g clip-rule="evenodd" fill-rule="evenodd"><path d="m80.316 23.574c-13.284.149-26.583.155-39.789.153-13.273-.002-26.64.107-39.788-.153.047-.667.789-1.122 1.228-1.585 4.181-4.421 8.756-8.642 12.938-13.143 2.308-2.484 4.626-4.761 7.058-7.416.394-.431 1.176-1.22 1.534-1.329.739-.226 2.486 0 3.479 0 5.952 0 11.721-.051 17.694-.052 4.342 0 7.946-.056 12.019 0 2.154 1.762 3.869 4.009 5.933 5.882 2.047 1.858 4.026 3.872 5.983 5.83 3.445 3.445 6.964 6.811 10.434 10.279.456.458 1.171.811 1.277 1.534z"/><path d="m81.082 25.722c.518.353.307 1.119.308 1.637.001 9.272.19 18.983-.052 27.821-1.035.104-2.073-.137-3.119-.256-5.233-.599-10.51-1.274-15.803-1.943-1.044-.132-2.095-.258-3.12-.409-1.021-.151-2.069-.136-3.017-.512-.169-7.258-.17-15.242 0-22.554.957-.352 2.004-.401 3.017-.562 7.103-1.127 14.619-2.106 21.786-3.222z"/><path d="m.329 25.926c6.244.591 12.331 1.746 18.564 2.455 2.065.235 4.12.45 6.138.869.237 7.208.152 15.019.051 22.605-1.932.493-4.028.717-6.138 1.022-5.187.752-10.468 1.418-15.752 2.148-1.002.139-2.01.437-3.017.307-.192-8.406-.154-17.014-.153-25.725 0-.999-.109-3.087.153-3.58.039-.046.094-.075.154-.101z"/><path d="m80.111 57.533c-.105.698-.762 1.119-1.228 1.585-1.415 1.414-2.854 2.969-4.296 4.398-1.91 1.943-3.828 3.878-5.779 5.779-1.917 1.936-3.75 3.955-5.677 5.881s-3.709 3.996-5.729 5.83c-9.434.041-19.407.101-29.1.103-1.396.001-3.042.226-4.143-.051-.554-.14-1.179-.872-1.637-1.33-1.53-1.531-2.912-2.943-4.5-4.398-1.285-1.664-2.885-3.02-4.399-4.5-1.483-1.451-2.932-2.976-4.449-4.398-2.656-2.491-5.227-5.074-7.824-7.672-.338-.337-.894-.629-.921-1.176 18.911-.138 38.41.092 57.177-.103 7.747-.08 15.027-.034 22.505.052z"/></g></svg>