<svg enable-background="new 0 0 75.881 76.74" viewBox="0 0 75.881 76.74" xmlns="http://www.w3.org/2000/svg"><g clip-rule="evenodd" fill-rule="evenodd"><path d="m.402 0c8.987.041 18.046-.105 26.577.201.217 9.059.078 18.361-.051 27.176-1.057.269-2.187.15-3.297.15-3.287 0-6.69-.1-9.991-.1-4.544 0-9.104.109-13.488-.15-.252-4.588-.027-9.346-.05-13.889-.019-3.631.07-7.666.05-11.689-.003-.578-.079-1.294.1-1.597.037-.047.09-.076.15-.102z"/><path d="m.152 30.276c4.337-.168 8.848-.053 13.339-.051 3.389.002 6.805.051 10.141.051 1.092 0 2.199-.121 3.247.15.38 2.502-.048 4.996.15 7.293.312 3.603 1.325 6.055 3.297 8.193 1.707 1.85 4.48 3.5 8.093 3.346 4.303-.184 7.588-2.928 9.143-6.145.858-1.775 1.376-4.051 1.049-6.394-.299-2.139-1.198-3.846-2.298-5.295-1.59-1.66-3.486-3.371-6.444-3.746-1.565-.199-3.252-.07-4.945-.15-1.637-.076-3.323.139-4.946-.1-.134-6.705-.161-13.941-.1-20.582.015-1.545.093-3.451.1-5.047.002-.562-.091-1.469.15-1.598.036-.047.091-.076.149-.1 5.363.152 10.4-.244 14.887.449 4.255.658 7.982 2.367 11.19 4.146 6.521 3.617 11.743 8.857 15.187 15.436.431.824.757 1.764 1.148 2.699 1.09 2.598 2.165 5.758 2.647 8.842.729 4.66.756 9.406-.1 13.988-.397 2.129-.951 4.115-1.649 6.045-.502 1.387-1.104 2.662-1.648 4.096-.162.426-.428.844-.649 1.248-3.581 6.551-8.953 11.6-15.487 15.137-3.274 1.773-7.025 3.258-11.29 3.998-4.604.797-9.622.725-13.987-.15-6.496-1.303-11.216-3.939-15.736-7.244-1.439-1.051-2.86-2.357-3.997-3.646-2.387-2.707-4.694-5.541-6.444-8.842-1.759-3.32-3.193-7.18-3.897-11.441-.732-4.428-.372-9.26-.3-14.586z"/></g></svg>