<svg enable-background="new 0 0 81.057 80.114" viewBox="0 0 81.057 80.114" xmlns="http://www.w3.org/2000/svg"><path clip-rule="evenodd" d="m68.831 11.797c6.14 5.936 10.288 13.201 11.852 23.449 1.27 8.325-.89 16.248-3.561 22.076-1.862 4.064-4.398 7.325-7.223 10.428-4.127 4.532-9.782 7.879-16.124 10.274-1.066.402-2.259.649-3.459.966-3.48.92-7.655 1.271-11.954 1.068-5.364-.251-10.163-1.682-14.242-3.356-.992-.407-1.955-.959-2.951-1.476-1.984-1.029-3.664-2.155-5.392-3.459-.839-.633-1.733-1.228-2.492-1.882-.767-.66-1.437-1.488-2.187-2.238-2.209-2.207-4.086-4.664-5.748-7.426-3.34-5.55-5.517-12.225-5.341-21.109.04-2.031.252-4.134.661-5.951.144-.643.162-1.274.254-1.934.159-1.124.58-2.342.966-3.458 1.148-3.311 2.55-6.353 4.222-9.004 4.522-7.171 11.041-12.592 19.329-15.921 3.254-1.308 6.556-2.185 10.58-2.646 2.938-.336 6.139-.209 9.054.103 4.307.46 8.424 1.853 11.801 3.306 4.803 2.066 8.606 4.89 11.955 8.19zm-33.876-6.714c-1.491 1.454-2.687 3.832-2.086 6.917.801 4.109 5.296 7.192 9.919 5.901 1.151-.322 2.295-.918 3.204-1.781 1.301-1.235 2.552-3.403 2.289-6.103-.1-1.02-.4-1.979-.814-2.849-1.103-2.32-3.816-4.492-7.477-4.222-1.979.147-3.788.919-5.035 2.137zm12.665 18.616c-.797-2.158-2.59-3.658-4.782-4.526-3.137-1.243-6.673.488-8.087 1.983-1.209 1.279-2.073 2.939-2.136 5.29-.193 7.152-.094 14.561-.204 21.72-.02 1.331.031 2.474-.254 3.51-.962 3.492-3.55 5.715-7.528 6.103-.92.091-1.738.117-2.492.306-2.153.538-3.78 1.973-4.781 3.713-.669 1.162-1.248 2.688-.967 4.578.462 3.103 2.321 5.193 5.036 6.205 3.316 1.237 6.776.177 8.495-1.779.745-.845 1.403-1.899 1.73-3.104.096-.352.106-.932.559-1.067.438.326.429 1.006.611 1.525.19.545.438 1.021.712 1.425 1.432 2.177 4.887 4.568 8.952 3.459 2.204-.603 4.112-2.474 4.883-4.426.712-1.802.564-4.377.61-6.816.047-2.428.106-4.942.051-7.273-.058-2.439.149-4.892.102-7.427-.042-2.221-.185-5.095.407-7.019.954-3.109 2.791-4.746 5.697-5.596 1-.293 2.055-.254 3.357-.407 2.102-.247 3.729-1.217 4.934-2.594 1.06-1.212 2.148-3.151 1.933-5.596-.087-.993-.551-2.393-.916-3.103-.622-1.211-1.847-2.303-3.154-3.001-4.849-2.591-9.972.387-11.343 4.222-.227.635-.157 1.405-.712 1.729-.51-.467-.465-1.363-.713-2.034z" fill-rule="evenodd"/></svg>