<svg enable-background="new 0 0 79.213 56.278" viewBox="0 0 79.213 56.278" xmlns="http://www.w3.org/2000/svg"><g clip-rule="evenodd" fill-rule="evenodd"><path d="m20.399.323c.21 4.937.104 10.079.104 15.314 0 1.663.193 3.311-.104 4.88-6.571.163-13.67.114-20.245-.104-.165-3.041-.105-6.398-.105-10.331.001-2.666.042-5.024 0-7.787-.012-.875-.269-2.081.52-2.232.719-.137 1.684-.009 2.544 0 4.039.043 8.414.104 12.511.104.834 0 1.673.09 2.492.052.77-.036 1.566-.196 2.283.104z"/><path d="m.622 22.541c6.675-.031 13.214.075 19.83.104 2.617 2.019 4.642 4.634 7.111 6.801 1.218 1.104 2.36 2.275 3.479 3.479 1.106 1.19 2.445 2.164 3.375 3.529-.009.061.011.093.051.105-.167 4.886.291 9.775.053 14.847-.075 1.585.14 3.19-.156 4.725-6.358.24-13.051.151-19.778 0-.276-5.445-.155-11.161-.155-16.872 0-.854.109-1.768-.053-2.388-.168-.644-1.079-1.392-1.609-1.921-3.89-3.889-7.685-7.53-11.63-11.319-.271-.261-.662-.562-.727-.986.077-.027.131-.076.209-.104z"/><path d="m79.113 56.025c-.47.315-1.319.107-1.869.104-6.024-.028-11.981.186-18.014-.053-.352-2.996-.049-6.321-.155-9.707-.076-2.422-.053-4.871-.052-7.424 0-.843.115-1.771-.053-2.388-.189-.696-1.054-1.21-1.661-1.817-1.765-1.765-3.33-3.428-5.191-5.087-1.093-1.21-2.258-2.346-3.427-3.479-.82-.856-1.733-1.661-2.647-2.491-.26-.236-.708-.574-.623-.986 6.311-.177 13.342-.08 19.778-.104 4.181 3.806 8.19 7.775 12.304 11.888.511.512 1.44 1.244 1.609 1.817.189.646.052 1.681.052 2.544 0 6.067.128 11.518-.051 17.183z"/><path d="m56.687 56.076c-6.476.166-13.4.252-19.727.053-.232-6.43-.062-13.013-.155-19.364-2.105-2.584-4.724-4.654-6.956-7.111-1.771-1.784-4.271-4.011-6.282-6.022-.414-.414-.913-.817-.155-.986.654-.145 1.598.053 2.44.053 5.527-.001 11.396-.103 17.027-.053 2.412 2.191 4.76 4.447 7.009 6.801 1.793 1.736 3.408 3.306 5.243 5.14.562.562 1.417 1.201 1.608 1.817.197.631.08 1.513.053 2.388-.132 4.169.026 8.548.052 12.562.005.783-.023 1.574 0 2.336.021.793.103 1.62-.157 2.386z"/></g></svg>