<svg enable-background="new 0 0 80.771 81.7" viewBox="0 0 80.771 81.7" xmlns="http://www.w3.org/2000/svg"><g clip-rule="evenodd" fill-rule="evenodd"><path d="m31.114.04c.864-.097 1.551-.016 2.141.204 2.073.774 3.874 3.362 2.803 6.115-.809 2.079-3.246 3.797-6.064 2.65-2.171-.883-3.667-3.974-2.294-6.625.532-1.027 1.766-2.158 3.414-2.344zm-1.173 2.242c-1.271 1.054-1.267 3.707.052 4.74 2.218 1.739 5.465-.744 4.434-3.415-.444-1.15-1.603-1.953-3.007-1.835-.729.063-1.122.215-1.479.51z"/><path d="m45.638 39.437c-.543-.398-.744-1.083-1.069-1.632-2.301-3.864-4.53-7.959-6.728-11.977-2.515-4.595-5.082-9.185-7.543-13.811.454-.582 1.217-.894 1.886-1.274 1.925-1.094 4.168-2.297 6.115-3.312.62-.324.912.693 1.173 1.172 3.379 6.205 6.905 12.124 10.295 18.347.206.38.535.868.814 1.376.259.471.714 1.169.714 1.479 0 .362-.428.866-.662 1.273-1.619 2.813-3.263 5.818-4.995 8.359z"/><path d="m66.789 9.775c2.135-.239 3.878.969 4.435 2.039.875 1.685.633 3.893-.052 5.148-.568 1.043-1.696 1.751-2.854 1.987-2.912.596-5.964-1.628-5.657-5.147.161-1.85 1.393-3.146 2.905-3.771.298-.125.788-.208 1.223-.256zm-2.396 4.892c.321 3.643 5.862 3.321 5.861-.255 0-1.813-1.477-3.14-3.363-2.904-1.545.319-2.654 1.378-2.498 3.159z"/><path d="m60.317 16.961c.616.073 1.564.752 2.242 1.121 1.51.823 2.721 1.571 4.128 2.396.691.404 1.507.624 1.987 1.273-3.525 6.803-7.499 13.308-11.212 19.978-.522.939-.961 1.947-1.683 2.752-2.743.052-5.582-.051-8.307-.051-.881 0-1.81.122-2.6-.153.399-1.249 1.192-2.312 1.835-3.465 4.071-7.304 8.288-14.62 12.436-22.018.373-.663.694-1.382 1.174-1.833z"/><path d="m41.612 35.613c-5.093.257-10.414 0-15.696 0-5.267.001-10.59.035-15.545-.204-.184-1.47-.101-3.199-.101-4.892 0-1.656-.148-3.391.204-4.74 8.428-.037 17.009.006 25.686.153 1.107 1.416 1.936 3.15 2.854 4.79.457.816.916 1.626 1.376 2.446.438.785 1.074 1.533 1.222 2.447z"/><path d="m4.306 25.982c2.997-.273 5.345 2.158 5.045 5.249-.247 2.565-2.51 4.337-5.198 4.077-2.127-.205-3.92-1.964-4.128-4.179-.234-2.502 1.217-4.191 2.752-4.842.466-.197.795-.239 1.529-.305zm-2.549 4.281c-.219 2.036 1.43 3.416 3.109 3.312 1.76-.108 3.291-2.138 2.548-4.026-.413-1.052-1.596-1.954-3.058-1.784-1.421.167-2.444 1.075-2.599 2.498z"/><path d="m36.312 37.092c-.931 2.081-2.201 4.021-3.312 6.014-1.117 2.003-2.273 3.961-3.364 5.963-.283.521-.472 1.062-.765 1.58-1.923 3.41-3.934 6.964-5.911 10.396-.653 1.113-1.183 2.351-1.987 3.312-1.513-.608-2.84-1.547-4.23-2.344-.701-.401-1.429-.786-2.141-1.173-.681-.369-1.398-.772-1.936-1.325.895-1.998 2.055-3.86 3.108-5.759 1.052-1.895 2.183-3.736 3.262-5.605 2.162-3.745 4.117-7.605 6.422-11.264 2.433-.128 5.657 0 8.358 0 .868.001 1.738-.046 2.496.205z"/><path d="m35.343 42.29c.044-.01.049.02.052.051.453.455.747 1.074 1.07 1.631 2.25 3.889 4.446 7.892 6.676 11.926 2.161 3.91 4.369 7.914 6.626 11.977.268.483.927 1.388.866 1.784-.074.476-1.559 1.044-1.988 1.273-2.125 1.139-4.095 2.495-6.319 3.466-1.228-1.66-2.15-3.645-3.211-5.555-2.827-5.093-5.632-10.291-8.612-15.493-.264-.459-.714-1.12-.714-1.479 0-.542.996-1.967 1.273-2.446.95-1.641 1.819-3.114 2.753-4.688.479-.808.865-1.697 1.376-2.345.037-.047.093-.077.152-.102z"/><path d="m39.319 45.501c10.397.011 20.978.036 31.19.255.17 2.958.169 6.622 0 9.581-8.545.235-17.477-.051-25.94-.102-.653-.604-1.035-1.483-1.479-2.294-1.089-1.993-2.223-3.889-3.415-6.014-.247-.44-.569-.971-.51-1.325.039-.047.093-.076.154-.101z"/><path d="m75.402 45.959c.704-.084 1.701-.015 2.294.204 2.007.742 3.9 3.412 2.7 6.269-1.44 3.431-6.819 3.748-8.562.204-.769-1.562-.297-3.858.458-4.893.585-.798 1.718-1.616 3.11-1.784zm-2.09 5.657c.252.697.969 1.38 1.529 1.632 2.883 1.288 5.524-2.41 3.313-4.791-2.136-1.998-5.93.147-4.842 3.159z"/><path d="m16.181 71.136c-.843.251-1.258.499-2.09.51-3.244.045-5.121-2.787-4.74-5.504.265-1.88 1.981-3.708 4.077-3.925 4.539-.468 6.905 5.113 3.874 8.104-.31.306-.71.48-1.121.815zm-4.74-5.708c-1.356 2.346 1.127 5.332 3.721 4.23.53-.226 1.133-.788 1.376-1.224 1.212-2.173-.551-4.657-2.904-4.383-1.089.128-1.745.603-2.193 1.377z"/><path d="m48.696 72.41c1.75-.187 3.224.581 4.027 1.427.599.632 1.269 2.079 1.223 3.364-.096 2.673-2.288 4.69-4.995 4.484-2.54-.192-4.648-2.296-4.332-5.301.23-2.176 1.972-3.749 4.077-3.974zm-2.344 4.128c-.402 4.309 5.659 4.412 5.861.714.1-1.84-1.397-3.372-3.518-3.058-1.32.241-1.96 1.165-2.343 2.344z"/></g></svg>