<svg enable-background="new 0 0 88.68 66.066" viewBox="0 0 88.68 66.066" xmlns="http://www.w3.org/2000/svg"><g clip-rule="evenodd" fill-rule="evenodd"><path d="m22.404.178c.208 6.961-.247 14.692-.051 21.643 6.978.359 15.017-.005 21.9.413.256 6.924.012 14.714.104 21.539.828.295 1.748.134 2.634.155 2.642.063 5.51.052 8.316.052 3.739.001 7.446.107 10.899 0 .274-.837.155-1.749.155-2.634 0-6.019.093-12.796.258-18.956 1.773-.235 3.666-.214 5.527-.155 4.568.145 9.181-.006 13.843.155.88.03 1.799-.148 2.634.155.053 7.463.149 14.56-.155 21.591-7.198.255-14.943-.178-21.952.052-.296 5.308.024 11-.207 16.477-.077 1.818.184 3.659-.155 5.372-5.334.069-11.079 0-16.426 0-1.829 0-3.692.125-5.423-.155-.253-6.993.157-14.873-.104-21.746-1.815-.307-3.693-.114-5.527-.155-5.445-.122-10.734-.11-16.373-.206-.023-.046-.045-.092-.104-.104-.205-7.131.208-14.381-.104-21.539-5.145-.264-10.973-.207-16.58-.207-1.858 0-3.736.125-5.476-.155-.08-6.771-.018-13.897.053-20.662.004-.363-.104-.844.258-1.085 5.254-.002 11.305 0 16.787 0 1.828 0 3.616-.111 5.269.155zm-12.035 2.17c-.369 1.247-.207 2.705-.207 4.132 0 4.362-.167 8.864.052 12.965.507.203 1.518.23 1.963-.052.146-5.443.264-11.485.052-16.942-.398-.242-1.318-.171-1.86-.103zm62.913 22.675c-3.073 1.698-5.047 6.233-3.874 11.002.97 3.94 4.201 6.582 9.297 6.095 3.603-.344 6.002-2.906 6.87-6.095.587-2.156.527-5.273-.413-7.438-1.216-2.8-4.082-4.76-8.213-4.494-1.571.101-2.691.39-3.667.93zm-39.876 16.632c4.329-.222 6.663-3.441 6.663-7.903 0-1.289.082-2.695-.155-3.926-.372-1.933-1.602-3.685-3.099-4.597-2.035-1.241-7.018-.955-10.124-.93-.42.505-.258 1.257-.258 1.911 0 5.056-.059 10.514.051 15.237 2.455.064 4.854.314 6.922.208zm22.159 4.752c-2.016 0-4.035-.188-5.785-.052-.84.065-.552.931-.568 1.963-.051 3.338-.051 7.268-.051 10.899 0 1.484-.213 3.058.103 4.287 3.791.172 8.296.172 12.087 0 .157-.424.166-1.385 0-1.808-1.457-.275-3.23-.155-4.958-.155-.846 0-1.705 0-2.531 0-.848 0-1.711.118-2.428-.155-.106-1.586-.116-3.927.052-5.579 2.896-.318 6.287.131 8.988-.207.165-.389.165-1.367 0-1.756-1.22-.229-2.66-.165-4.081-.155-1.74.012-3.569.243-4.959-.155-.094-1.56-.075-3.448.104-4.907 1.475-.186 3.187-.104 4.855-.104 1.701 0 3.417.122 4.855-.155.205-.425.213-1.326.052-1.808-1.746-.276-3.752-.153-5.735-.153z"/><path d="m77.414 26.211c1.818-.076 3.64.624 4.494 1.653.469.565.998 1.647 1.24 2.428.459 1.482.462 3.485 0 5.166-.271.985-.614 2.022-.981 2.634-1.338 2.234-5.864 2.684-8.212.981-2.396-1.736-3.17-6.643-1.602-9.762.881-1.755 2.444-2.991 5.061-3.1z"/><path d="m28.861 39.486c-.247-2.975-.103-6.504-.103-9.918 0-1.114-.161-2.275.206-3.202 3.232-.167 6.738-.163 7.851 1.962 1.82 3.41 1.383 9.692-1.963 11.002-1.599.627-3.825.212-5.991.156z"/></g></svg>