<svg enable-background="new 0 0 81.648 82.459" viewBox="0 0 81.648 82.459" xmlns="http://www.w3.org/2000/svg"><g clip-rule="evenodd" fill-rule="evenodd"><path d="m17.104 2.524c1.941 2.035 3.375 3.994 3.441 7.346.067 3.381-1.272 5.867-3.082 7.652-2.58 2.545-7.199 3.859-11.505 1.951-3.334-1.476-5.958-4.954-5.958-9.398.001-3.392 1.514-5.904 3.391-7.551 1.378-1.209 3.142-2.072 5.444-2.414 3.56-.531 6.308.952 8.269 2.414z"/><path d="m19.262 22.761c.188 3.109.103 6.242.104 9.4 0 9.389-.013 18.898-.154 28.25-1.455.25-3.009.15-4.521.104-4.488-.141-9.254.137-13.816-.154-.225-6.27-.052-12.574-.052-18.953 0-6.383-.062-12.682.154-18.697 5.641-.306 12.139-.048 18.285.05z"/><path d="m21.676 60.411c-.228-10.287.04-22.342 0-33.027-.002-.539 0-1.455 0-2.31 0-.697-.097-2.098.154-2.313.038-.047.094-.076.154-.102 4.924-.119 9.603.164 14.382.051 4.735-.111 9.232-.002 12.738 1.541 3.201 1.408 5.97 3.769 7.962 6.523 2.102 2.906 3.253 6.342 3.39 10.992.132 4.5-1.602 8.35-3.544 10.94-1.547 2.062-3.377 3.812-5.702 5.189-2.236 1.324-4.823 2.373-8.166 2.67-2.233.197-4.715.051-7.191.051-3.66.002-7.295.016-10.735-.051-1.148-.023-2.339.143-3.442-.154z"/><path d="m80.643 22.915c.176 7.346.123 14.969-.052 22.447-.029 1.254.103 2.529.103 3.801 0 3.848-.001 7.641-.103 11.402-1.47.33-3.033.104-4.571.104-4.361 0-9.316.09-13.92-.104-.237-5.898-.103-12.178-.103-18.645 0-6.439-.085-12.932.153-19.006 1.704-.402 3.732.014 5.6-.154 1.929-.172 4.486 0 6.626 0 2.186.003 4.34-.109 6.267.155z"/><path d="m70.831 61.952c5.057-.15 8.613 2.797 10.017 6.473.491 1.287.92 2.641.771 4.725-.192 2.674-1.461 4.767-2.928 6.267-1.535 1.566-3.617 2.713-6.164 2.979-5.376.559-9.743-2.635-11.145-7.037-1.606-5.037.964-9.488 4.058-11.66 1.197-.841 3.33-1.686 5.391-1.747z"/></g></svg>