<svg enable-background="new 0 0 81.205 70.769" viewBox="0 0 81.205 70.769" xmlns="http://www.w3.org/2000/svg"><g clip-rule="evenodd" fill-rule="evenodd"><path d="m40.843 0c.578.163 1.092 1.384 1.469 2.076 2.483 4.566 5.115 8.726 7.596 13.369.371.694 1.155 1.694 1.165 2.279.008.433-.528 1.221-.861 1.772-2.289 3.805-4.471 7.797-6.734 11.496-2.688 4.392-5.134 8.919-7.647 13.217-2.585 4.422-5.105 8.869-7.646 13.218-.638 1.091-1.344 2.15-1.975 3.241-.646 1.116-1.174 2.284-1.823 3.393-1.282 2.187-2.483 4.43-3.95 6.432-6.066.099-11.93-.052-17.978-.051-.818 0-1.661.119-2.431-.151-.132-.468.251-.869.455-1.216 3.195-5.416 6.332-10.951 9.52-16.459 3.365-5.812 6.882-11.587 10.23-17.471 1.664-2.923 3.466-5.808 5.064-8.811.409-.77.725-1.577 1.165-2.33 4.203-7.186 8.543-14.525 12.913-21.725.448-.739.812-1.574 1.317-2.178.037-.047.092-.077.151-.101z"/><path d="m52.491 20.561c.607.054 1.219 1.405 1.57 2.025 2.548 4.499 5.002 8.95 7.546 13.42.429.755.997 1.467 1.164 2.33-.122.717-.571 1.314-.911 1.924-1.653 2.966-3.513 5.913-5.267 8.913-.694 1.187-1.457 2.407-1.925 3.747.508.429 1.25.254 1.874.254 3.995.001 8.176.051 12.509.051.738 0 1.563-.105 2.025.051.511.172 1.134 1.406 1.469 2.025 2.417 4.466 5.019 8.72 7.545 13.116.407.708 1.009 1.373 1.114 2.229-1.14.196-2.32.101-3.494.101-15.358-.002-31.199-.147-46.995-.151-1.211-.001-2.441.051-3.646 0-1.155-.05-2.321.055-3.443-.203.283-1.389 1.328-2.451 1.924-3.696.937-2.031 2.11-3.94 3.241-5.875 6.68-11.422 13.498-22.832 20.155-34.436.517-.9 1.134-1.874 1.722-2.836.649-1.062 1.062-2.214 1.823-2.989z"/></g></svg>