<svg enable-background="new 0 0 73.227 72.386" viewBox="0 0 73.227 72.386" xmlns="http://www.w3.org/2000/svg"><g clip-rule="evenodd" fill-rule="evenodd"><path d="m10.889.018c3.608-.214 6.603 1.533 8.45 3.38 1.861 1.861 3.494 4.466 3.479 8.301-.014 3.518-1.67 6.115-3.628 8.002-2.021 1.946-5.076 3.392-8.35 3.131-3.503-.279-5.936-1.684-7.853-3.728-1.873-1.996-3.066-4.641-2.982-8.599.07-3.286 1.556-5.669 3.33-7.307.864-.798 1.892-1.584 3.18-2.136 1.273-.547 2.758-.949 4.374-1.044z"/><path d="m73.217 24.621c.086.39-.376.534-.596.695-3.838 2.818-7.936 5.586-11.879 8.351-4.228 2.964-8.502 5.887-12.724 8.847-4.237 2.97-8.445 5.982-12.674 8.946-3.172 2.224-6.284 4.478-9.543 6.66-.528.353-1.042.757-1.59 1.094-.529.325-.97.891-1.64.944-.165-11.731-.247-23.921-.099-35.438 7.536-.183 15.139-.099 22.813-.099 9.264-.001 18.588-.125 27.932 0z"/><path d="m19.935 24.77c.249 12.316.142 24.778.199 37.178-1.044 1.093-2.426 1.849-3.678 2.733-3.231 2.279-6.567 4.565-9.841 6.859-.449.315-.849.801-1.441.846-.219-7.841-.199-15.895-.199-23.759 0-8.033-.116-15.934.049-23.808 4.273-.232 9.118-.12 13.519-.149.393-.002.994-.145 1.392.1z"/></g></svg>