<svg enable-background="new 0 0 81.686 64.041" viewBox="0 0 81.686 64.041" xmlns="http://www.w3.org/2000/svg"><path clip-rule="evenodd" d="m55.834 0c.322.088.735 1.25.985 1.871 6.162 15.349 12.426 30.65 18.564 45.991 1.874 4.684 3.776 9.262 5.663 13.985.261.653.645 1.296.64 2.018-.33.27-.816.148-1.182.148-26.521-.001-53.339.002-80.312-.099-.267-1.155-.148-2.474-.148-3.841 0-19.545-.147-38.652.099-58.055 7.379-.288 15.629.027 23.488-.098 1.269-.02 2.552-.02 3.792-.049 1.287-.031 2.571-.096 3.792.148.29 19.006-.09 39.083.197 57.612.375.012.447-.462.542-.69 1.909-4.575 3.784-9.358 5.663-13.985 2.016-4.963 4.06-9.952 6.057-14.92.51-1.268.913-2.577 1.428-3.841 3.518-8.625 6.985-17.448 10.586-26.049.026-.069.075-.119.146-.146z" fill-rule="evenodd"/></svg>