<svg enable-background="new 0 0 71.277 70.248" viewBox="0 0 71.277 70.248" xmlns="http://www.w3.org/2000/svg"><path clip-rule="evenodd" d="m57.628 37.358c.115 1.012 1.009 1.246 1.515 1.868 3.42 3.232 7.032 6.578 10.599 9.892.507.471 1.323 1.09 1.413 1.716.22 1.533-.027 3.226 0 4.846.066 3.908.001 7.909 0 12.163 0 .868.042 1.807-.303 2.119-.373.339-2.212.202-3.23.202-7.619 0-16.319.221-23.569-.051-9.161-.343-18.425.364-27.053-.152-.954-.426-1.561-1.284-2.271-1.968-.714-.687-1.414-1.376-2.17-2.019-1.42-1.548-3.207-3.118-4.795-4.644-.532-.511-.942-1.145-1.463-1.666-1.407-1.406-3.172-3.155-4.744-4.693-.517-.506-1.288-1.062-1.464-1.666-.173-.593-.05-1.559-.05-2.422 0-4.842 0-9.522 0-14.586 0-.831-.057-1.801.252-2.17.456-.546 2.091-.403 3.23-.404 3.184-.001 5.636.051 8.883.051.526 0 1.149.087 1.413-.354-.117-.853-.977-1.29-1.514-1.816-1.705-1.672-3.58-3.25-5.249-5.047-1.019-1.097-2.3-2.1-3.533-3.332-.511-.51-1.137-1.086-1.767-1.665-.614-.564-1.389-1.267-1.615-1.969-.18-.559-.05-1.503-.05-2.371-.001-5.44.054-11.223.05-16.453.412-1.075 2.552-.707 4.189-.707 3.27 0 6.854.15 10.044.051 4.305-.136 8.695.124 13.274 0 4.168-.113 8.625.05 13.223.05 3.338.001 6.61.051 10.044.051 1.046 0 2.747-.076 3.331.101.905.274 1.622 1.183 2.321 1.868.751.735 1.423 1.474 2.069 2.068 2.788 2.764 5.626 5.479 8.429 8.226.57.616 1.295 1.346 2.069 2.12.631.631 1.759 1.477 2.019 2.271.193.592.101 1.639.101 2.523 0 4.458-.05 8.134-.05 12.567 0 1.401.288 4.325-.303 4.845-.542.476-2.305.252-3.281.252-3.071.001-5.795-.075-8.579-.051-.489.007-1.101-.034-1.415.356zm-36.187 13.122c2.804.104 5.168-.016 8.277 0 1.075.006 3.396.373 4.038-.201.498-.446.303-2.882.303-4.038 0-4.288-.005-8.293.05-12.112.035-2.434 0-5.452 0-8.277 0-1.266-.112-2.601-.05-4.139.043-1.068-.2-3.205.151-4.037.519-1.233 2.937-.867 4.643-.858 2.905.016 5.213 0 8.176 0 1.247 0 3.207.331 3.785-.202.359-.33.304-2.387.303-3.229-.002-2.245.001-4.395 0-6.611 0-1.26.139-2.746-.252-3.18-.619-.687-4.16-.234-5.603-.303-1.762-.087-3.952-.052-5.803-.052-11.89.001-23.974-.085-35.632-.051-.962.334-.654 2.231-.656 3.482-.002 2.396.101 4.748 0 6.965-.05 1.113-.12 2.206.303 2.977 1.165.35 2.55.202 3.886.202 3.453 0 6.779.05 10.195.051.684 0 1.644-.108 1.968.101.914.589.556 3.108.556 4.644 0 4.343.109 8.018 0 12.566-.021.84.067 1.982-.202 2.322-.455.573-2.699.451-3.886.403-3.081-.123-5.367-.05-8.428-.05-1.18 0-3.518-.209-4.088.252-.609.492-.403 2.411-.403 3.432v7.57c0 1.191-.194 2.799.101 3.735.371 1.178 1.9 2.152 2.776 3.028 3 2.999 5.684 6.045 8.731 8.731.474.152 1.172 1.69 1.918 1.311.473-.24.269-2.523.303-3.331.111-2.64 0-4.819 0-7.166 0-1.214-.048-2.556.202-3.433.078-.106.182-.188.252-.303 1.121-.297 2.592-.254 4.086-.199zm32.856-43.606c0 3.459.048 6.094 0 9.286-.016 1.063.162 2.898-.252 3.482-.354.5-1.168.454-2.019.454-3.958 0-6.937-.05-10.599-.05-.944 0-3.446-.212-3.886.354-.453.58-.202 2.712-.202 3.937 0 8.626-.051 16.387-.05 24.78 0 1.359.251 3.948-.454 4.341-1.34.318-2.764.104-4.038.101-2.635-.009-5.484 0-8.378 0-1.339 0-3.375-.246-4.037.252-.564.425-.286 2.215-.303 3.331-.036 2.297-.012 4.445 0 6.713.005 1.054-.18 2.667.403 3.079.409.287 1.889.111 2.827.15 1.039.044 2.099.051 2.978.051 12.953.006 26.192.176 38.862.051 1.028-.011 2.418.118 2.775-.252.444-.461.253-2.147.253-3.079 0-2.398-.11-4.396 0-6.763.042-.916.194-2.472-.202-2.979-.527-.673-3.006-.403-4.239-.403-3.009 0-5.567-.115-8.378-.102-.988.006-3.324.307-3.886-.201-.386-.348-.303-1.435-.303-2.17-.001-5.223 0-9.785 0-14.839 0-.777-.128-1.622.303-2.221 1.056-.482 2.521-.303 3.937-.303 2.948.001 5.492.051 8.428.051 1.174 0 3.386.25 3.987-.253.537-.447.386-2.557.403-3.734.045-2.932-.127-5.059-.05-7.822.034-1.222.187-2.819-.102-3.786-.207-.696-1.044-1.333-1.514-1.816-1.65-1.698-3.463-3.317-4.946-4.895-2.222-2.135-4.281-4.434-6.712-6.359-.759.029-.606.741-.606 1.614zm-39.417 22.863c.334.335 1.015 1.216 1.564 1.11.587-.112.455-1.359.455-2.22 0-2.734.04-5.543-.051-8.025-.393-.827-1.685-.605-2.977-.605-1.854 0-3.514.001-5.199 0-.875 0-1.887-.149-2.624 0-1.414.284.243 1.532.656 1.918.514.479.905.974 1.312 1.362 1.133 1.08 1.896 1.853 2.726 2.625 1.324 1.313 2.774 2.47 4.138 3.835zm39.972 10.044c-.084-.02-.179.054-.202.101-.373.255-.189 1.596-.202 2.271-.021 1.085-.05 2.606-.05 4.139-.001.873-.251 3.512.151 4.038.353.461 1.792.303 2.675.303 2.118-.001 3.992 0 6.006 0 .999-.001 2.107.194 2.726-.303-.01-.781-.748-1.118-1.161-1.515-.475-.456-.879-.936-1.362-1.363-1.923-1.678-3.732-3.469-5.653-5.147-.894-.547-1.846-2.279-2.928-2.524z" fill-rule="evenodd"/></svg>