<svg enable-background="new 0 0 61.726 74.151" viewBox="0 0 61.726 74.151" xmlns="http://www.w3.org/2000/svg"><path clip-rule="evenodd" d="m56.534.148c-.192.884-.687 1.66-1.086 2.454-1.157 2.303-2.32 4.689-3.398 7.078-2.859 6.341-6.097 12.546-9.202 18.829-1.114 2.255-2.295 4.593-3.445 7.032-.323.686-1.111 1.762-1.085 2.406.025.62.942 1.488 1.416 2.171 3.437 4.957 6.865 9.891 10.382 14.724 1.021 1.402 1.885 2.895 2.879 4.294 2.732 3.851 5.412 7.702 8.116 11.609.246.354.635.702.614 1.18-1.143.324-2.483.27-3.775.377-1.281.106-2.583.281-3.822.189-.779-.417-.931-1.461-1.699-1.888-.681.371-.904 1-1.416 1.463-2.016 1.823-6.021 2.538-9.438 1.793-3.22-.702-5.979-2.215-7.975-3.822-3.226-2.376-6.277-5.545-7.976-9.722-.569-1.399-1.157-2.976-1.274-4.577-.212-2.919.545-5.089 2.077-6.513 1.461-1.357 3.792-2.145 6.512-1.935 1.172.091 2.195.536 3.351.472.112-.499-.328-.887-.566-1.227-1.538-2.194-3.049-4.32-4.624-6.654-.249-.367-.642-.815-.661-1.18-.023-.414.377-1.021.613-1.51 2.963-6.118 5.885-12.133 8.919-18.169.471-.936.958-1.89 1.274-2.879-.536.094-.803.865-1.274 1.181-2.597 3.56-5.404 7.031-8.211 10.807-1.308 1.758-2.594 3.618-4.011 5.474-.975 1.275-1.986 2.668-3.02 4.106-.315.437-.762 1.146-1.086 1.273-.501.196-1.341.131-2.029.189-1.409.119-2.63.174-4.105.282-.643.048-1.315.298-1.887 0 0-1.859.579-3.634.896-5.427.634-3.577 1.379-7.149 2.029-10.807.318-1.795.787-3.585.896-5.427-.501.128-.697.744-.896 1.133-1.643 3.192-3.207 6.572-4.861 9.862-.95 1.892-1.737 3.862-2.689 5.758-.473.94-.891 1.901-1.368 2.831-.477.929-.824 1.925-1.463 2.737-1.912.264-4.133.411-6.229.52-.673.034-1.353.259-1.935 0 .177-.879.662-1.647 1.037-2.454 3.638-7.818 7.617-15.621 11.421-23.502.378-.783.705-1.6 1.085-2.406 1.098-2.327 2.267-4.647 3.398-7.079.312-.671.826-1.969 1.273-2.17.566-.255 2.049-.185 2.784-.236 1.985-.139 3.675-.286 5.616-.425.912-.065 1.803-.244 2.689-.095.157.899-.19 1.781-.33 2.644-.436 2.696-.867 5.367-1.416 8.023-.365 1.769-.613 3.564-.99 5.332-.379 1.775-.626 3.554-.944 5.333-.08.447-.437.983-.188 1.51.642-.182 1.002-.848 1.368-1.321 1.165-1.506 2.323-3.051 3.445-4.625 2.963-4.157 6.136-7.944 9.249-12.223 1.059-1.453 2.312-2.991 3.539-4.529.328-.411.829-1.258 1.228-1.416.636-.252 2.078-.226 2.831-.283 2.833-.218 5.746-.444 8.542-.661.256-.018.692-.152.895.096zm-24.019 56.818c.311 1.599 1.086 2.746 1.84 3.823 1.505 2.15 3.509 4.185 5.663 5.662 1.084.743 2.499 1.502 4.105 1.604 2.809.18 3.944-2.125 3.209-4.624-.976-3.317-3.808-6.381-6.323-8.306-1.476-1.13-3.346-2.435-5.805-2.171-1.942.209-3.132 1.746-2.689 4.012z" fill-rule="evenodd"/></svg>