<svg enable-background="new 0 0 72.143 72.729" viewBox="0 0 72.143 72.729" xmlns="http://www.w3.org/2000/svg"><g clip-rule="evenodd" fill-rule="evenodd"><path d="m10.621 62.33c-4.649-4.529-7.838-10.237-9.617-17.539-.918-3.771-1.277-8.305-.779-12.41.968-7.972 4.058-14.075 8.06-19.096 3.03-3.802 6.747-6.797 11.174-9.159 3.644-1.944 8.032-3.421 13.005-3.939 1.044-.108 2.285-.165 3.389-.183 7.456-.119 12.997 2.002 17.906 4.717 4.742 2.622 8.86 6.497 11.86 10.761 1.548 2.2 2.875 4.627 3.984 7.327 1.111 2.705 2.024 5.681 2.335 8.976.325 3.438.291 7.291-.32 10.533-1.797 9.548-6.11 16.14-12.318 21.615-4.033 3.557-9.052 6.319-14.883 7.739-3.084.75-6.731 1.214-10.212 1.007-6.911-.409-12.773-2.4-17.356-5.266-2.346-1.466-4.481-3.046-6.228-5.083zm43.641-22.164c.02 1.27-.125 2.694.23 3.709.352 1.01 1.054 1.86 1.923 2.564.546.443 2.129 1.504 3.206 1.191.77-.224 1.174-1.867 1.466-2.748 1.032-3.121 1.749-6.934 1.374-11.082-.475-5.253-2.146-9.192-4.396-12.456-2.236-3.243-5.099-6.009-8.747-8.105-.92-.529-1.75-1.091-2.702-1.512-3.7-1.636-9.392-2.714-14.563-1.832-8.197 1.399-14.073 5.766-18.043 11.403-2.247 3.191-3.841 7.358-4.396 12.41-.406 3.698.177 8.129 1.191 11.128.283.838.578 2.664 1.282 2.931.777.294 1.885-.297 2.381-.595.714-.429 1.121-.813 1.694-1.42 1.72-1.565 1.419-4.757 1.419-7.923 0-3.081-.074-6.476.092-9.25 1.709-.16 3.547-.102 5.358-.092 1.817.01 3.68-.184 5.358.092.261 3.991-.035 8.54.091 12.73.035 1.148-.313 3.216 1.053 3.16 1.205-.049.962-1.898.962-3.297 0-3.614 0-7.156 0-10.67 0-.698-.107-1.418.137-2.016 3.371-.142 7.248-.083 10.624.046.215 3.933.137 8.452.137 12.64.001 1.329-.31 3.289 1.008 3.297 1.287.008 1.099-1.765 1.099-3.206 0-2.932.055-5.909 0-8.7-.027-1.367-.172-2.819.092-4.076 3.4-.111 7.066-.101 10.533.046.239 3.578.08 7.861.137 11.633zm-3.251 14.7c-.279-.179-.713-.452-1.099-.778-.368-.312-.802-.996-1.282-.733-.509.278-.878.742-1.328 1.1-2.059 1.635-6.49 2.209-8.976.595-.44-.174-.842-.433-1.328-.778-.393-.279-.782-.85-1.328-.824-.489.022-.884.636-1.282.916-1.117.787-2.584 1.497-4.167 1.648-2.751.264-4.802-.582-6.366-1.74-.467-.346-.627-.779-1.328-.916-.72.317-1.053.894-1.694 1.328-.363.246-.943.58-1.557.87-.365.173-1.1.306-1.145.642-.056.416 1.103 1.238 1.511 1.557 3.917 3.056 9.421 5.529 16.211 5.449 5.14-.06 9.549-1.33 12.868-3.251 1.366-.791 2.632-1.774 3.801-2.702.4-.317.967-.598 1.054-1.144-.741-.661-1.619-.632-2.565-1.239z"/><path d="m22.848 16.628c2.42-.266 4.111 1.079 5.037 2.473.637.958.995 1.852.87 3.343-.115 1.384-.893 2.662-1.603 3.39-1.461 1.497-4.312 2.231-6.503.915-1.309-.786-2.59-2.407-2.748-4.259-.195-2.296 1.056-4.061 2.427-4.991.69-.469 1.433-.752 2.52-.871z"/><path d="m40.158 25.466c-1.106.975-1.956 1.721-3.435 1.878-3.98.424-7.558-3.776-5.587-7.785.663-1.348 2.348-2.784 4.213-2.977 1.421-.146 2.621.216 3.48.732 1.422.855 2.653 2.59 2.656 4.579.004 1.449-.543 2.524-1.327 3.573z"/><path d="m48.126 16.628c2.46-.295 4.312 1.061 5.221 2.473.182.283.464.822.595 1.236 1.155 3.649-2.017 7.241-5.358 7.007-2.016-.142-3.721-1.429-4.488-3.022-.219-.455-.479-1.104-.55-1.74-.17-1.524.428-2.988.962-3.709.763-1.032 2.039-2.056 3.618-2.245z"/></g></svg>