<svg enable-background="new 0 0 42.57 75.908" viewBox="0 0 42.57 75.908" xmlns="http://www.w3.org/2000/svg"><g clip-rule="evenodd" fill-rule="evenodd"><path d="m42.57 3.803c-.368 3.154-.984 6.225-1.495 9.305-.509 3.074-1.002 6.144-1.639 9.158-5.834.186-11.917.145-17.934.146-6.037 0-12.149.053-18.176-.098-.411-.66-.395-1.477-.53-2.217-.815-4.486-1.612-9.152-2.459-13.789-.125-.687-.462-1.892-.288-2.313.189-.459 1.551-.674 2.169-.868 2.233-.699 4.765-1.373 7.135-1.881 3.452-.736 6.815-1.018 10.848-1.205 4.164-.193 8.659.32 12.197.916 1.855.312 3.713.672 5.399 1.109 1.731.45 3.465.839 4.773 1.737zm-28.01 3.52c.455.578 1.081.941 1.495 1.541.416.602.74 1.375.771 2.315.067 1.971-1.273 2.935-2.362 3.953.562.256 1.281.123 1.977.098 1.044-.041 2.354.186 3.134-.193-1.043-.926-2.24-1.729-2.362-3.471-.098-1.396.482-2.625 1.253-3.375.309-.301.822-.42.916-.916-1.507-.14-3.431-.187-4.822.048zm8.726 0c.036.318.375.484.579.674.695.647 1.315 1.408 1.542 2.508.246 1.188-.282 2.391-.771 3.084-.441.625-1.123.945-1.543 1.592 1.576.162 3.774.154 5.352 0-.472-.605-1.191-.98-1.688-1.592-.766-.939-1.166-2.611-.627-4 .374-.965 1.248-1.482 1.736-2.266-1.199-.266-3.171-.112-4.58 0zm8.534.047c.136.381.542.531.82.82.781.812 1.424 2.119 1.253 3.566-.14 1.186-1.029 1.918-1.688 2.701-.285.197-.658.307-.771.674.439.215 1.474.201 1.977.049.543-1.023.383-2.26.627-3.471.281-1.398.83-2.916.771-4.387-.734-.183-2.341-.298-2.989.048zm-24.058 0c.007 1.361.233 2.916.723 3.953.249-1.467.739-2.519 1.639-3.277.26-.221.683-.32.771-.723-.876-.155-2.319-.17-3.133.047zm1.302 7.81c.47.156 1.456.148 1.928 0-.083-.367-.469-.432-.723-.627-.633-.572-1.112-1.299-1.591-2.025-.003-.029-.007-.057-.048-.047-.047.902.163 1.953.434 2.699z"/><path d="m39.533 24.58c.198 2.451.084 5.215 0 7.762-.869.312-1.776.566-2.507 1.062-1.016.688-1.959 1.854-2.122 3.422-.228 2.207.04 4.568 0 6.943-.073 4.393 0 9.293 0 14.076 0 2.361-.136 5.057.482 6.605.495 1.238 1.652 2.361 2.941 2.844.46.174 1.052.141 1.446.436.159 2.445.161 5.555 0 8.002-2.036.139-4.577.248-6.557 0-4.877.197-9.885.096-14.849.096-4.982 0-10.038.207-14.801-.047-.146-2.48-.167-5.578-.048-8.004.545-.324 1.167-.332 1.688-.578 1.464-.689 2.498-1.959 2.844-3.857.231-1.264.097-2.762.097-4.291 0-5.895 0-11.74 0-17.838 0-1.506.119-3.059-.145-4.242-.397-1.777-1.66-3.035-3.134-3.809-.479-.252-1.076-.311-1.542-.578-.049-2.541-.143-5.541.048-8.004 9.826-.197 19.193-.143 29.312-.144 2.322 0 4.607-.051 6.847.144zm-25.937 6.848c-.333 0-.792-.115-1.013.191.932.748 1.819 1.549 2.315 2.701.178.412.154.912.482 1.301.409-.236.543-.752.772-1.156.497-.885 1.208-1.621 2.025-2.123.419-.256.916-.408 1.253-.818-1.681-.211-3.941-.096-5.834-.096zm10.076.096c.27.402.763.6 1.157.867.417.285.796.586 1.157.916.282.387.601.725.868 1.158.265.43.318 1.025.771 1.301.32-.291.226-.746.337-1.109.188-.611.511-1.189.82-1.687.334-.537.823-.895 1.109-1.445-1.854-.163-4.363-.157-6.219-.001zm3.857 7.81c-.012.068-.08.08-.097.145-.463 1.021-.999 1.963-1.784 2.65-.843.74-1.866 1.113-2.989 1.592.205.338.627.416.964.529 1.16.395 2.022 1.002 2.748 1.785.236.352.468.709.675 1.107.202.391.322.906.723 1.109.168-2.795.165-6.232-.096-8.918-.048.001-.096.001-.144.001zm-11.957 8.436c.656-.693 1.034-1.666 1.735-2.315.486-.258.871-.678 1.398-.963.533-.289 1.299-.303 1.639-.771-2.072-.692-3.672-1.858-4.628-3.664-.061-.002-.066-.062-.144-.049-.294 2.34-.117 5.363 0 7.762zm12.005 4.051c-.296.605-.493 1.152-.82 1.639-.632.939-1.527 1.758-2.555 2.266-.564.279-1.227.305-1.736.676 2.032.547 3.448 1.518 4.436 3.037.271.418.418.977.868 1.301.123-.328.148-.701.145-1.06-.027-2.469-.033-5.361-.097-7.857-.069-.012-.081-.08-.145-.098 0 .063-.084.043-.096.096zm-12.005 8.822c.534-.408.672-1.15 1.061-1.688.237-.326.578-.523.771-.867.366-.197.637-.5 1.012-.723.708-.422 1.562-.613 2.363-.965-.427-.344-1.083-.387-1.591-.627-1.617-.764-2.73-1.977-3.471-3.568-.048 0-.096 0-.144 0-.16 2.596-.16 5.844-.001 8.438zm12.246 3.52c-.069.027-.118.074-.145.145-.536 1.635-1.363 2.705-2.604 3.519-.375.246-.893.395-1.157.867 1.022.172 2.27.098 3.472.098 1.231 0 2.487.113 3.471-.145-.205-.586-.801-.732-1.205-1.109-.641-.6-1.184-1.547-1.446-2.41-.094-.312-.047-.709-.337-.965-.017 0-.033 0-.049 0zm-9.931 3.47c-.992-.748-1.636-1.879-2.218-2.988-.048 0-.096 0-.145 0 0 .064-.084.043-.096.096-.323 1.396-1.029 2.41-1.929 3.23-.285.197-.643.322-.771.676.938.258 2.166.145 3.326.145 1.185 0 2.375.057 3.375-.098-.329-.547-1.035-.676-1.542-1.061z"/></g></svg>