<svg enable-background="new 0 0 81.51 74.563" viewBox="0 0 81.51 74.563" xmlns="http://www.w3.org/2000/svg"><g clip-rule="evenodd" fill-rule="evenodd"><path d="m19.402 27.955c2.918-5.06 5.852-10.223 8.901-15.514 1.439-2.495 2.91-5.267 4.527-7.681 1.678-2.505 4.062-4.464 7.681-4.73 5.312-.39 8.233 3.108 10.071 6.409 3.036 5.454 5.919 10.43 8.901 15.819 1.004 1.813 1.875 3.68 2.849 5.392 3.969 6.977 7.969 13.912 11.953 21.008 1.002 1.785 1.951 3.568 2.899 5.341.959 1.792 2.047 3.494 2.95 5.29.978 1.945 1.641 4.261 1.271 6.765-.642 4.357-3.808 7.53-8.291 8.189-2.484.365-5.287.051-8.087.051-10.547 0-21.938.201-32.453.204-5.276.001-10.899-.114-16.277 0-2.602.055-5.527.184-7.833-.204-2.393-.403-4.077-1.45-5.493-2.747-1.441-1.32-2.475-3.189-2.849-5.392-.427-2.51.315-4.936 1.271-6.765 1.88-3.59 4.056-7.102 6.003-10.479 4.086-7.086 8.072-13.691 12.006-20.956zm14.597-16.022c-1.772 1.816-2.618 4.278-2.746 7.477-.062 1.542.027 3.17-.051 4.833-.079 1.672 0 3.401 0 5.137 0 5.168.087 10.342 0 15.108-.03 1.638.169 3.305.102 4.984-.137 3.419.008 6.784.051 10.072.041 3.134 1.037 5.525 2.798 7.325 1.657 1.693 4.111 3.058 7.223 3.001 2.939-.053 5.314-1.448 7.02-3.154 1.819-1.819 2.6-4.237 2.747-7.477.14-3.078.051-6.453.051-9.868 0-3.422 0-6.904 0-10.224 0-6.161.062-13.739-.051-20.041-.058-3.162-1.154-5.514-2.849-7.274-1.641-1.703-4.253-3.254-7.172-3.052-3.058.211-5.416 1.406-7.123 3.153z"/><path d="m40.917 11.729c3.042-.238 5.527 1.885 6.512 3.815 1.666 3.27.102 6.98-2.035 8.596-1.952 1.476-4.785 1.935-7.223.712-1.991-.998-4.052-3.551-3.816-6.765.092-1.238.608-2.44 1.119-3.204 1.147-1.713 2.853-2.951 5.443-3.154z"/></g></svg>