<svg enable-background="new 0 0 73.453 74.611" viewBox="0 0 73.453 74.611" xmlns="http://www.w3.org/2000/svg"><g clip-rule="evenodd" fill-rule="evenodd"><path d="m28.126 0c.719.307 1.593 1.413 2.221 2.028.774.757 1.539 1.345 2.125 2.076 1.443 1.342 2.627 2.943 4.202 4.153.869-.496 1.438-1.342 2.125-2.028 1.709-1.709 3.541-3.365 5.215-5.168.321-.345.655-.804 1.159-.917.174 2.235.097 5.182.097 7.726 0 .868.109 1.802-.048 2.463-.121.511-.642.883-.966 1.207-.395.395-.707.734-1.062 1.062-1.598 1.551-3.162 3.066-4.829 4.733-.319.319-1.2 1.517-1.642 1.545-.446.029-1.557-1.267-1.835-1.545-.639-.639-1.061-1.182-1.594-1.787-.812-.922-1.864-1.688-2.752-2.559-.901-.884-1.853-1.697-2.56-2.705-.077-3.452-.029-6.659.048-10.141-.003-.081.036-.123.096-.143z"/><path d="m31.072 14.487c.337.245.193.761.193 1.111v6.471c0 .871.126 1.82-.048 2.511-.122.485-.829 1.04-1.304 1.497-3.329 3.206-6.731 6.296-9.948 9.513-3.865 3.865-7.574 7.365-11.349 10.914-2.23-2.078-4.349-4.252-6.52-6.423-.711-.712-1.442-1.438-2.028-2.27-.042-3.197-.172-6.901.097-9.948.488.14.826.585 1.159.918 2.028 2.028 4.062 4.062 6.181 6.181.3.3.818.917 1.111.917.35.002 1.133-.892 1.497-1.255 6.723-6.723 14.064-13.495 20.765-20.041.036-.045.088-.073.145-.097.017.001.033.001.049.001z"/><path d="m42.662 14.584c.809.578 2.143 1.902 2.897 2.656 4.538 4.538 9.172 9.016 13.812 13.473 1.867 1.794 3.625 3.684 5.602 5.312.935-.434 1.396-1.34 2.173-1.932 1.778-1.743 3.568-3.568 5.36-5.36.22-.22.493-.613.869-.531.053 3.251.116 6.736.048 9.948-2.272 2.566-4.848 4.911-7.292 7.485-.291.308-.778.957-1.111.966-.489.015-1.158-.965-1.497-1.304-1.417-1.417-2.852-2.707-4.201-4.104-4.765-4.635-9.884-9.564-14.825-14.343-.592-.573-1.829-1.49-2.028-2.125-.207-.658-.008-1.765 0-2.559.016-1.553-.005-3.149-.048-4.974-.02-.836-.052-1.992.096-2.559.006-.039.159-.147.145-.049z"/><path d="m59.322 41.82c.193 3.26.099 6.815 0 10.093-.102.542-.646.788-1.014 1.159-2.118 2.135-4.118 4.214-6.326 6.423-.296.296-.863.963-1.159.966-.394.003-.989-.772-1.304-1.062-.477-.44-.851-.821-1.208-1.159-.878-.834-1.508-1.653-2.511-2.222-.291 3.073-.035 6.694-.193 9.9-.174.512-.621.862-.966 1.208-2.104 2.104-4.21 4.258-6.423 6.471-.301.301-.807 1.003-1.11 1.014-.36.013-1.159-.965-1.497-1.304-3.213-3.213-6.59-6.541-9.755-9.706-3.125-3.125-6.479-6.417-9.9-9.562-.449-.413-1.181-1.01-1.304-1.449-.186-.662-.032-1.671 0-2.511.091-2.433-.147-5.484.096-7.63.617.242 1.034.815 1.497 1.255 3.253 3.088 6.388 6.315 9.707 9.465 3.183 3.021 6.429 6.348 9.659 9.513.361.354 1.102 1.254 1.448 1.256.277.001.854-.614 1.159-.917 2.435-2.416 4.919-4.829 7.244-7.292-.537-.87-1.363-1.508-2.076-2.221-3.52-3.521-7.184-7-10.721-10.673-.929-.964-2.111-2.157-3.236-3.188-.413-.378-.902-.735-1.014-1.11-.247-.828-.048-2.348-.048-3.429 0-1.124.043-2.35.048-3.38.005-.959-.176-2.437.048-3.188.005-.038.16-.146.145-.048 1.45 1.061 2.902 2.823 4.25 4.056.509.466.868.964 1.304 1.4 4.559 4.559 9.184 8.798 13.811 13.425.398.397.843.843 1.352 1.352.36.36 1.185 1.241 1.449 1.256.37.021.839-.646 1.159-.966 2.145-2.145 4.103-4.151 6.229-6.278.332-.329.669-.773 1.16-.917z"/></g></svg>