<svg enable-background="new 0 0 82.512 25.521" viewBox="0 0 82.512 25.521" xmlns="http://www.w3.org/2000/svg"><path clip-rule="evenodd" d="m.21 25.351c-.261-1.281-.145-2.656-.145-4.06 0-3.408 0-6.945 0-10.488 0-.702-.146-1.52 0-1.981.15-.476 1.056-.885 1.595-1.208 4.079-2.447 7.892-5.052 11.792-7.588 18.273-.06 36.187 0 54.37 0 1.868 0 3.486-.053 4.881.291 3.914.961 6.815 3.497 8.506 6.862 1.18 2.346 1.694 5.687.967 8.602-.656 2.63-2.028 4.79-3.818 6.428-1.758 1.609-4.131 2.833-7.104 3.19-1.477.178-3.182.097-4.93.097-15.521 0-30.577.001-45.768 0-6.792 0-13.642.115-20.346-.145zm64.326-1.257c2.804 0 5.988.194 8.312-.483 2.371-.69 4.021-1.801 5.461-3.431 1.436-1.626 2.472-3.532 2.706-6.186.495-5.597-2.6-9.576-6.234-11.357-2.082-1.02-4.452-1.337-7.685-1.208-2.794.111-5.75 0-8.506 0-2.952 0-5.834 0-8.699 0-2.956 0-6.31-.105-8.844 0-4.431.183-8.966 0-13.435 0-2.226 0-4.459.048-6.669.048-2.216 0-4.426-.111-6.573.097-.077 1.958-.245 4.685.048 6.669 4.663.265 9.431.097 14.209.097 13.149-.001 26.496.048 39.582.048 1.18 0 2.436-.106 3.335.242 1.537.594 2.863 2.165 2.658 4.494-.172 1.952-1.555 3.353-3.431 3.722-1.041.204-2.198.056-3.383.097-1.179.041-2.4 0-3.577 0-7.229 0-14.379 0-21.41 0-9.868 0-19.126.027-28.515.048-3.22 1.886-6.159 4.054-9.327 5.993-.381.36-1.097.385-1.209 1.015 20.599.133 40.547.096 61.186.095zm-51.616-19.428c0-.846.232-2.683-.483-2.272-2.182 1.257-4.446 2.986-6.621 4.302-.775.469-1.615.865-2.127 1.547 2.714.219 6.273.241 9.086 0 .213-.933.145-2.112.145-3.577zm-11.309 5.123c-.335.392-.193 1.001-.193 1.499v8.457c0 1.122-.148 2.278.193 3.238 1.1-.399 2.014-1.109 2.948-1.691.957-.597 1.888-1.186 2.851-1.788 1.795-1.298 3.798-2.389 5.51-3.77.006-.867 0-1.9 0-2.948 0-1.019.112-2.101-.145-2.9-3.508-.214-7.651-.048-11.164-.097zm48.232 5.751c5.905 0 11.861-.131 17.785 0 1.149.026 2.492.076 3.335-.241 2.241-.843 2.509-4.329.097-5.316-1.255-.514-3.721-.139-5.461-.193-1.959-.062-3.803 0-5.703 0-15.439 0-30.395-.127-45.478.097-.136 1.624-.214 4.012.048 5.558 11.791.169 23.569.096 35.377.095z" fill-rule="evenodd"/></svg>