<svg enable-background="new 0 0 74.91 71.538" viewBox="0 0 74.91 71.538" xmlns="http://www.w3.org/2000/svg"><g clip-rule="evenodd" fill-rule="evenodd"><path d="m16.983.158c.135 5.76.244 11.682.049 17.681-5.388.19-11.366.077-16.86-.048-.186-4.976-.146-10.482-.146-15.75 0-.666-.143-1.442.242-1.98 5.4-.062 11.486-.133 16.715.097z"/><path d="m17.032 19.771c.193 16.982.244 34.469.096 51.594-4.054.212-8.459.049-12.754.048-1.397 0-2.813.166-4.105-.096-.23-8.886-.162-18.359-.097-27.536 1.754-.408 3.231-1.05 4.3-2.271.978-1.119 1.758-2.937 1.449-4.977-.473-3.127-2.658-4.786-5.749-5.41-.147-3.517-.168-7.727 0-11.352 1.296-.356 2.974-.022 4.349-.145 1.938-.175 4.262.104 6.328.048 2.043-.054 4.108-.044 6.183.097z"/><path d="m74.76 19.723c.148 16.526.198 35.287.097 51.545-4.069.191-8.369.145-12.56.145-1.409 0-2.832.118-4.154-.145-.177-2.284-.097-4.606-.097-6.908 0-6.842-.109-13.642 0-20.579 1.108-.381 2.153-.633 3.043-1.257 1.514-1.06 2.869-3.006 2.609-5.796-.221-2.368-1.805-4.094-3.623-4.928-.656-.302-1.384-.418-2.077-.773.013-3.454-.213-7.682.096-11.304 3.606-.225 7.221-.098 11.015-.097 1.958 0 3.872-.11 5.651.097z"/><path d="m55.534 19.723c.237 16.811.237 34.915.145 51.545-.648.26-1.379.145-2.077.145-4.685 0-9.935.121-14.734 0-.263-1.067-.193-2.199-.193-3.333.001-7.846-.037-16.57.048-24.202.713-.364 1.438-.379 2.078-.677 1.757-.816 3.234-2.388 3.623-4.638.56-3.246-1.408-6.013-3.913-6.908-.599-.214-1.259-.217-1.836-.531-.088-1.873-.048-3.811-.048-5.749 0-1.875-.117-3.834.144-5.556 2.678-.361 5.667-.011 8.551-.145 2.846-.132 5.663-.05 8.212.049z"/><path d="m36.209 19.771c.206 17.194.233 34.552.097 51.594-5.287.254-11.401.191-16.763.048-.301-1.091-.094-2.256-.146-3.381-.147-3.272-.048-6.833-.048-10.338 0-4.629-.08-9.333.097-13.865 1.029-.277 1.964-.549 2.802-1.062.787-.482 1.484-1.094 1.98-1.884 1.234-1.97 1.299-5.513-.387-7.198-.518-.642-1.099-1.221-1.884-1.594-.638-.521-1.722-.597-2.561-.918-.159-2.704-.097-5.753-.097-8.793 0-.801-.203-2.569.387-2.656 1.113-.165 2.951-.001 4.3 0 4.149-.001 8.294-.087 12.223.047z"/></g></svg>