<svg enable-background="new 0 0 34.739 67.936" viewBox="0 0 34.739 67.936" xmlns="http://www.w3.org/2000/svg"><g clip-rule="evenodd" fill-rule="evenodd"><path d="m7.667.042c2.78-.305 5.21 1.109 6.512 2.436.721.734 1.388 1.677 1.789 2.734.999 2.628.437 5.82-.895 7.753-1.347 1.954-3.794 3.46-6.213 3.529-2.371.067-4.234-.696-5.666-1.889-1.418-1.181-2.741-2.877-2.982-5.517-.259-2.832 1.019-5.278 2.336-6.61 1.196-1.21 2.755-2.176 5.119-2.436z"/><path d="m25.411.241c3.314-.372 5.809.938 7.356 2.733 1.264 1.467 2.154 3.798 1.938 6.063-.217 2.267-1.122 4.062-2.684 5.418-1.557 1.386-3.528 2.285-5.965 2.138-3.774-.229-6.953-3.19-7.604-6.66-.354-1.881-.058-3.723.646-5.17 1.115-2.29 3.394-4.141 6.313-4.522z"/><path d="m33.513 18.482c.266 2.509.149 5.148.149 7.803 0 7.939.048 16.192.05 23.907.001 7.759-3.438 12.767-8.449 15.706-.839.492-1.75.929-2.734 1.293-.975.36-2.052.731-3.181.745-.264-1.781-.149-4.107-.149-6.213-.001-10.573-.048-20.634-.05-31.412 0-2.087.033-4.143 0-6.263-.021-1.454-.055-2.876-.05-4.423.002-.604-.017-1.138.548-1.243 1.038-.193 2.373 0 3.528 0 3.415 0 6.845-.081 10.338.1z"/><path d="m15.321 18.532c.196 9.193.232 19.147.05 28.827-4.491.165-9.674.166-14.165 0-.269-1.151-.149-2.368-.149-3.578.001-8.565-.079-17.354.05-25.199.23-.158.537-.092.795-.1 4.129-.133 9.208-.086 13.419.05z"/><path d="m2.35 52.132c1.348-1.288 2.916-2.412 5.269-2.585 2.045-.15 4.008.684 5.169 1.541 1.992 1.471 3.817 3.831 3.578 7.405-.266 3.97-3.62 7.514-7.704 7.654-.913.031-2.004-.092-2.833-.348-3.243-1.005-6.042-4.24-5.815-8.351.13-2.35.987-3.764 2.336-5.316z"/></g></svg>