<svg enable-background="new 0 0 69.555 63.565" viewBox="0 0 69.555 63.565" xmlns="http://www.w3.org/2000/svg"><g clip-rule="evenodd" fill-rule="evenodd"><path d="m16.586.184c.232 3.902.213 8.42.05 12.546-5.089.141-11.39.2-16.495 0-.143-4.083-.227-8.653 0-12.546 5.135-.094 11.157-.291 16.445 0z"/><path d="m21.734 63.466c-.339-1.838-.059-4.127-.15-6.298-.09-2.158-.117-4.377.051-6.348 4.34-.214 8.927-.056 13.146-.1 2.299-.024 4.408.044 6.299-.4 5.275-1.239 9.266-4.138 11.797-8.197 1.653-2.653 3.005-6.177 2.949-10.347-.058-4.202-1.37-7.611-3.05-10.297-2.481-3.97-6.379-7.199-11.847-8.198-1.913-.349-3.989-.35-6.298-.35-4.27 0-8.831-.014-13.146-.15-.216-4.123-.032-8.449 0-12.597 3.424-.212 7.892-.207 11.646-.15 3.338.051 6.545-.09 9.497.3 5.902.779 10.542 3.085 14.097 5.698 2.802 1.996 5.297 4.585 7.298 7.548 3.806 5.635 6.656 14.179 5.099 23.693-1.376 8.4-5.437 14.299-10.747 18.894-3.955 3.422-8.992 6.013-15.246 6.998-2.166.341-4.447.4-6.998.4-4.753 0-9.685-.009-14.397-.099z"/><path d="m21.635 46.32c-.143-9.526-.274-19.607-.051-28.992 5.122-.161 10.615-.205 15.946-.1 6.462.127 10.514 3.694 12.646 8.348 1.105 2.414 1.721 5.532 1.199 8.847-.896 5.689-4.67 9.7-9.647 11.347-2.697.893-6.219.834-9.797.7-3.393-.126-6.936.074-10.296-.15z"/><path d="m16.636 17.329c.265.903.15 1.881.15 2.799-.003 14.527.223 28.906 0 43.338-5.644.021-11.314.21-16.495-.05-.181-13.947-.203-28.904-.2-43.487 0-.89-.179-1.817.149-2.649 5.02-.042 11.268-.156 16.396.049z"/></g></svg>