<svg enable-background="new 0 0 79.075 78.924" viewBox="0 0 79.075 78.924" xmlns="http://www.w3.org/2000/svg"><g clip-rule="evenodd" fill-rule="evenodd"><path d="m25.611.117c.359 3.55.04 7.733.051 11.679.005 1.999.101 4.292.101 6.495 0 .741.121 1.677-.051 2.164-.141.402-.767.707-1.208 1.057-1.302 1.036-2.415 1.936-3.625 3.021-4.349 3.387-8.659 6.815-12.988 10.269-.61.486-1.238.999-1.712 1.611.842 1.496 2.019 2.768 3.122 4.178.279.357.755 1.232 1.158 1.26.316.021.931-.558 1.258-.807.47-.355.827-.666 1.158-.906 1.045-.758 1.926-1.664 3.474-1.459 1.975.735 3.012 2.575 4.229 4.077 1.242 1.534 2.457 3.111 3.675 4.632 2.057 2.679 4.291 5.293 6.444 8.055.226.29.853.94.855 1.208.004.421-1.027 1.078-1.41 1.41-1.122.974-1.824 1.6-2.97 2.567-.464.392-1.248.843-1.41 1.359-.157.499-.034 1.358 0 2.063.095 2.021-.051 4.264-.051 6.243 0 2.818.083 5.721-.101 8.457-8.521.038-17.295.188-25.473-.05-.233-6.232-.101-12.711-.101-19.281 0-18.731 0-37.862 0-56.937 0-.798-.096-2.131.151-2.366.038-.046.093-.076.152-.099 8.289.064 17.216-.132 25.272.1zm-19.633 5.638c-1.423 1.212-2.335 2.75-2.769 4.884-.576 2.829.367 5.535 1.46 7.098 1.9 2.719 6.287 4.916 10.623 3.272 3.203-1.214 6.203-4.538 5.839-9.213-.2-2.571-1.566-4.689-3.021-6.041-1.464-1.359-3.785-2.623-6.746-2.315-2.461.255-3.989 1.125-5.386 2.315z"/><path d="m72.279 18.24c-.247.645-.872 1.08-1.359 1.51-1.472 1.299-2.967 2.655-4.481 3.977-1.939 1.819-3.947 3.57-5.94 5.336-2.925 2.725-5.922 5.362-8.911 8.056-.983.885-2.017 1.75-2.87 2.769 1.268 1.999 2.876 3.875 4.531 5.94 1.108 1.383 2.28 2.863 3.474 4.38.289.366 1.07 1.209 1.058 1.561-.012.338-.659.722-1.007 1.007-.435.356-.884.639-1.158.856-.708.562-1.496 1.513-2.618 1.41-.882-.081-1.39-.944-1.812-1.46-.5-.612-.955-1.097-1.41-1.813-4.91-5.863-9.439-12.107-14.297-18.023-1.417-1.769-2.765-3.52-4.279-5.386-.34-.419-1.377-1.324-1.359-1.863.012-.386.745-.835 1.158-1.157 2.595-2.026 5.109-4.12 7.753-6.142.478-.366.913-.812 1.359-1.008 10.805-.04 21.695-.042 32.168.05z"/><path d="m62.563 57.96c.429.017.88.814 1.208 1.209 1.065 1.277 2.102 2.688 3.071 3.927 3.584 4.562 7.207 9.067 10.824 13.643.511.646 1.138 1.26 1.409 2.064-10.582.205-21.59.1-32.42.05-.537-.233-.904-.781-1.259-1.208-.366-.44-.716-.911-1.057-1.359-.696-.914-1.513-1.781-2.064-2.819 3.196-2.746 6.727-5.078 10.069-7.702 1.651-1.297 3.279-2.661 4.984-3.927 1.742-1.296 3.487-2.621 5.235-3.878z"/></g></svg>