<svg enable-background="new 0 0 79.089 79.175" viewBox="0 0 79.089 79.175" xmlns="http://www.w3.org/2000/svg"><g clip-rule="evenodd" fill-rule="evenodd"><path d="m17.88.153c.278 1.603.158 3.255.158 4.88v54.417c0 6.571.107 13.127-.105 19.521-4.256.191-8.98.105-13.486.105-1.498 0-2.988.126-4.355-.158-.095-25.305-.053-51.04-.053-76.614 0-.734-.17-1.575.21-2.256 2.791-.09 6.167.078 9.078 0 2.911-.079 5.796-.071 8.553.105z"/><path d="m58.443.205c.284 2.97.105 6.003.105 9.026 0 2.945.175 5.968-.052 8.92-3.057.285-6.229.158-9.394.158-9.359 0-19.172-.023-28.494-.158-.179-5.853-.163-12.223 0-17.999 6.83-.235 13.79-.106 21.043-.105 4.3.001 8.559.052 12.751.052 1.347.001 2.73-.221 4.041.106z"/><path d="m78.909.153c.269 1.524.157 3.136.157 4.723 0 24.768.092 49.608-.104 74.147-6.099.161-12.076.242-17.947 0-.206-12.703-.105-26.027-.105-39.462 0-11.517 0-23.094 0-34.686 0-.683.031-1.562 0-2.466-.026-.771-.109-2.035.158-2.256.038-.049.095-.08.157-.105 5.782.083 11.865-.146 17.684.105z"/><path d="m38.398 20.513c.197 9.888.104 19.85.105 29.386 0 2.352.003 4.642-.053 6.979-.168 7.12.322 14.697-.052 22.092-1.354.242-2.817.157-4.303.157-4.329 0-9.187-.022-13.486-.157-.188-18.891-.105-38.262-.105-56.988 0-.506-.153-1.161.262-1.574 5.707-.05 11.924-.126 17.632.105z"/><path d="m58.443 32.897c.284 1.402.157 2.909.157 4.408 0 1.472-.109 2.968-.105 4.408.008 3.084.299 6.258 0 9.288-1.39.284-2.895.158-4.408.158-4.476 0-9.21.008-13.539-.158-.186-5.049-.135-10.886-.052-16.11.011-.688-.253-1.453.157-2.046 5.812-.1 12.128.001 17.79.052z"/></g></svg>