<svg enable-background="new 0 0 75.661 77.999" viewBox="0 0 75.661 77.999" xmlns="http://www.w3.org/2000/svg"><g clip-rule="evenodd" fill-rule="evenodd"><path d="m9.305.124c.194 17.002.138 34.728 0 51.483-2.803.172-6.325.173-9.128 0-.262-2.058-.156-4.168-.157-6.312 0-13.915.055-28.057.053-42.042 0-.909-.105-2.784.157-3.13.038-.048.094-.078.156-.103 2.94.068 6.153-.138 8.919.104z"/><path d="m24.275.176c.192 13.602.103 27.95.104 41.624.001 1.932-.125 3.899.156 5.79.757-2.291 1.206-4.464 2.191-6.468.159-.325.374-.617.521-.939.15-.331.206-.724.364-1.043.438-.884 1.124-1.807 1.722-2.608 1.748-2.341 4.223-4.602 6.728-6.155 3.599-2.231 7.904-3.964 13.145-4.069 5.642-.112 9.954 1.413 13.666 3.547 1.922 1.105 3.395 2.322 4.902 3.703 1.495 1.368 2.622 2.94 3.809 4.747 2.288 3.485 3.941 7.843 4.068 13.145.128 5.299-1.298 10.119-3.442 13.771-1.064 1.813-2.222 3.524-3.599 5.007-2.702 2.907-6.211 5.295-10.589 6.624-2.166.658-4.578 1.342-7.251 1.096-.239-2.853-.22-6.193-.052-9.076.872-.326 1.78-.303 2.607-.469 5.782-1.159 9.55-4.838 11.842-9.598.996-2.359 1.415-4.908 1.251-7.876-.144-2.592-1.185-5.212-2.191-6.989-2.145-3.794-5.914-6.722-10.535-7.824-5.737-1.368-10.998.686-14.188 3.338-2.524 2.098-4.331 4.844-5.372 8.397-.354 1.21-.428 2.483-.73 3.86-5.787.133-12.355.104-18.256-.052-.277-1.009-.156-2.099-.156-3.13-.001-16.434.026-32.012.104-48.301.547-.237 1.319-.188 1.982-.208 2.318-.074 5.002.079 7.199.156z"/></g></svg>