<svg enable-background="new 0 0 77.256 77.689" viewBox="0 0 77.256 77.689" xmlns="http://www.w3.org/2000/svg"><g clip-rule="evenodd" fill-rule="evenodd"><path d="m64.086.025c5.893-.348 9.894 2.939 11.908 6.798.837 1.605 1.33 3.746 1.254 6.171-.033 1.059-.153 2.412-.434 3.471-.565 2.131-1.949 4.072-3.423 5.4-1.612 1.452-3.461 2.436-5.786 2.989-5.334 1.269-10.18-1.296-12.583-4.291-1.288-1.605-2.296-3.696-2.651-6.123-.824-5.627 1.857-9.774 5.11-12.149.825-.603 1.731-1.08 2.893-1.495 1.142-.407 2.356-.691 3.712-.771z"/><path d="m24.456.411c.306 8.239.097 16.671.097 25.07 0 8.418.086 16.849-.097 25.07-7.655.217-15.981.202-23.72.048-.259-2.108-.145-4.257-.145-6.364 0-14.306.048-27.568.048-42.474 0-.448-.143-1.016.193-1.398 7.625.005 15.76-.179 23.624.048z"/><path d="m50.49.508c.3 5.999.096 12.352.096 18.079 0 2.015.208 4.02-.096 5.978-3.707.235-7.772.097-11.812.096-4.026 0-8.066.01-11.764-.145-.258-.946-.145-1.989-.145-2.989 0-6.003.048-11.69.048-18.224 0-.855-.115-2.472.144-2.893.035-.045.087-.073.145-.096 7.856.091 15.613.008 23.384.194z"/><path d="m38.245 26.252c2.916-.139 5.673.891 7.473 2.121 2.072 1.417 3.302 3.045 4.339 5.207 1.125 2.345 1.459 5.375.82 8.099-1.153 4.909-4.746 8.402-9.69 9.45-2.661.563-5.69.04-8.003-1.061-1.956-.932-3.708-2.582-5.014-4.532-1.287-1.921-2.157-4.318-1.977-7.569.194-3.505 1.78-6.312 3.664-8.196.902-.902 2.149-1.823 3.519-2.411 1.401-.6 3.073-1.022 4.869-1.108z"/><path d="m76.669 27.024c.176 12.425.096 25.486.096 37.99 0 4.171.048 8.274-.145 12.246-.899.209-1.872.096-2.844.096-7.052.001-14.211.038-20.875-.096-.292-3.902-.097-8.409-.097-12.342 0-10.306 0-21.106 0-32.012 0-1.726 0-2.821 0-4.724 0-.94-.087-1.262.482-1.35.401-.062.954.056 1.446.048 7.011-.108 14.821-.041 21.937.144z"/><path d="m3.485 56.288c2.176-2.08 4.806-3.826 8.871-3.905 3.479-.068 6.236 1.249 8.196 2.844 2.07 1.686 3.516 3.936 4.243 6.798.835 3.289.154 6.71-1.157 9.112-1.886 3.452-5.217 6.134-10.028 6.509-5.254.408-9.157-2.083-11.282-5.11-1.525-2.173-2.602-5.159-2.266-8.678.31-3.252 1.619-5.55 3.423-7.57z"/><path d="m50.49 53.058c.168 3.976.096 8.191.096 12.342 0 3.076.004 6.151 0 9.112-.001.93.039 1.879-.145 2.748-7.778.144-15.806.059-23.575-.145-.396-6.662.173-14.112-.096-21.309-.036-.956-.096-1.942.145-2.844 7.594-.133 15.928-.033 23.575.096z"/></g></svg>