<svg enable-background="new 0 0 40.357 84.344" viewBox="0 0 40.357 84.344" xmlns="http://www.w3.org/2000/svg"><g clip-rule="evenodd" fill-rule="evenodd"><path d="m19.613.027c2.441-.239 4.27 1.164 5.012 2.382 2.405 3.946-.829 8.802-5.36 8.139-2.318-.339-4.29-2.203-4.466-4.963-.083-1.3.534-2.778.993-3.424.774-1.092 2.069-1.963 3.821-2.134z"/><path d="m32.516 48.017c.602.754 1.357 1.356 2.035 2.035 3.187 3.187 5.806 7.931 5.806 14.293 0 2.449-.51 4.767-1.241 6.799-1.377 3.833-3.752 6.928-6.849 9.23-3.097 2.303-7.067 3.971-12.109 3.97-5.017 0-9-1.723-12.06-4.02-3.15-2.365-5.421-5.378-6.898-9.181-1.537-3.957-1.611-9.734-.149-13.747 1.045-2.867 2.688-5.418 4.665-7.394.67-.67 1.439-1.241 2.035-1.985-.529-.749-1.291-1.231-1.886-1.886-1.76-1.938-3.23-4.321-4.169-7.146-1.309-3.94-1.252-9.02.199-12.903 2.532-6.776 8.762-12.287 17.568-12.755 4.81-.255 9.014 1.585 11.811 3.623 3.023 2.202 5.333 5.066 6.749 8.635 1.46 3.679 1.966 8.731.596 13.151-.883 2.848-2.408 5.368-4.218 7.345-.609.666-1.361 1.186-1.885 1.936zm-19.901-22.531c-1.576 1.605-2.82 4.098-2.977 6.7-.234 3.856 1.315 6.377 3.127 8.188.79.791 1.72 1.62 2.829 1.836.277-.675.099-1.44.099-2.183 0-4.742.049-9.681 0-14.343-.007-.724.143-1.603-.248-2.084-.003-.03-.007-.059-.05-.05-.883.315-2.095 1.238-2.78 1.936zm12.059-1.787c-.09 1.421-.049 3.057-.049 4.665v11.712c0 .731-.069 1.51.199 2.183.874-.24 1.56-.939 2.233-1.538 1.931-1.718 3.542-4.331 3.524-7.841-.019-3.448-1.645-6.008-3.524-7.792-.577-.547-1.596-1.5-2.283-1.539-.063.021-.102.065-.1.15zm-13.696 33.846c-1.133 1.592-1.948 3.551-2.084 5.807-.17 2.816.625 5.232 1.836 7.047 1.189 1.784 2.811 3.231 4.864 4.02.346-.73.199-1.614.199-2.432-.001-5.249-.05-10.415-.05-15.633 0-.893.155-1.821-.199-2.432-.033 0-.066 0-.099 0-1.761.666-3.371 2.082-4.467 3.623zm13.796-3.474c-.084.404-.148.822-.149 1.241-.01 5.359-.058 11.445.049 16.873.015.749-.034 1.534.199 2.233 1.12-.42 2.158-1.133 3.027-1.936 1.761-1.624 3.125-4.047 3.474-6.948.429-3.57-.741-6.294-2.332-8.288-.965-1.208-2.601-2.799-4.169-3.325-.062.022-.102.065-.099.15z"/></g></svg>