<svg enable-background="new 0 0 162.302 163.338" viewBox="0 0 162.302 163.338" xmlns="http://www.w3.org/2000/svg"><path clip-rule="evenodd" d="m.27 0c40.355.063 81.566.146 121.38.146 13.585 0 27.165-.051 40.444.098.325 2.124.048 5.035.098 7.581.13 6.583.048 13.779.049 20.735.001 27.173.138 55.403 0 83.235-.1.014-.096.132-.196.146-26.716.078-51.81.099-77.855-.098-.113-17.087-.067-34.791-.049-52.083.048-.001.038-.059.049-.098 12.595-.262 26.067.034 38.634-.147.359-1.583-.022-3.606.098-5.428-.066-.048-.098-.13-.147-.196-27.485-.201-55.365-.097-83.088-.049-.133-.036-.098.097-.195.098-.162 1.605-.162 3.873 0 5.478.04.009.049.049.098.049 11.896.179 24.315.098 36.434.098.752 0 1.534-.114 2.249.146-.008.057.011.087.049.098.09 34.511.077 68.375 0 103.334-.043.022-.087.043-.098.098-26.417.202-51.808.044-78.002-.098-.022-.043-.043-.087-.098-.098-.075-13.273 0-26.774 0-40.297 0-23.725-.049-47.146-.049-71.547 0-3.395-.141-6.821 0-10.172.143-3.382-.158-6.771 0-10.172.08-1.706-.049-3.417-.049-5.135 0-8.574-.099-17.09.098-25.577.026-.069.075-.118.146-.145z" fill-rule="evenodd"/></svg>