<svg enable-background="new 0 0 84.021 61.56" viewBox="0 0 84.021 61.56" xmlns="http://www.w3.org/2000/svg"><path clip-rule="evenodd" d="m47.849.127c1.737 1.777 3.003 3.937 4.503 5.889 4.488 5.841 9.117 11.653 13.657 17.517 4.531 5.852 8.977 11.765 13.607 17.565 1.147 1.437 2.229 2.903 3.365 4.404.364.482.867.927 1.039 1.534-1.763.891-3.617 1.562-5.542 2.325-1.318.523-2.802 1.11-4.255 1.683-.445.175-1.118.525-1.435.495-.469-.044-.887-.867-1.237-1.287-.827-.99-1.46-1.753-2.276-2.771-.282-.352-.801-1.213-1.188-1.287-.539-.103-2.086.62-2.573.792-5.779 2.046-11.787 3.943-17.417 6.136-.289 2.531.092 5.733-.198 8.264-.882.264-1.887.149-2.87.149-2.927 0-6.127.036-8.907-.149-.283-2.521.081-5.688-.198-8.214-.733-.468-1.597-.729-2.424-.99-5.852-1.845-11.761-4.093-17.665-5.987-.556.279-.874.833-1.237 1.287-.745.93-1.398 1.754-2.227 2.771-.297.365-.809 1.223-1.188 1.287-.363.062-.972-.373-1.435-.545-2.393-.885-4.714-1.795-7.076-2.721-.929-.365-1.877-.7-2.672-1.237.563-1.13 1.435-2.056 2.177-3.019.759-.983 1.462-1.986 2.276-2.92 1.474-1.989 2.996-3.932 4.552-5.838 7.318-9.969 14.92-19.651 22.514-29.344.934-1.31 2.21-2.921 3.365-4.403.4-.514.84-1.333 1.386-1.436.919-.172 2.076-.005 3.019 0 2.756.015 5.503.074 8.56.05zm-12.172 19.15c-3.445 4.571-6.765 9.267-10.094 13.954-.61.73-1.121 1.508-1.683 2.276-.55.752-1.25 1.476-1.583 2.424 1.01.543 2.167.799 3.266 1.188 2.245.794 4.586 1.375 6.828 2.127 1.142.383 2.273.835 3.464.94.127-1.29.148-2.705.148-4.058.001-5.806.09-12.051-.049-17.863-.007-.291.099-.786-.248-.989-.016.001-.033.001-.049.001zm23.306 14.943c-1.749-2.436-3.482-4.938-5.245-7.323-1.428-1.931-2.602-3.808-4.008-5.739-.414-.569-1.123-1.637-1.584-1.881-.069.013-.056.108-.099.148-.089.757-.05 1.669-.05 2.573v17.17c0 1.038-.117 2.087.148 3.068 1.154-.145 2.265-.562 3.365-.99 2.191-.852 4.539-1.421 6.779-2.127 1.104-.349 2.266-.646 3.266-1.188-.628-1.363-1.685-2.474-2.572-3.711z" fill-rule="evenodd"/></svg>