<svg enable-background="new 0 0 59.22 70.597" viewBox="0 0 59.22 70.597" xmlns="http://www.w3.org/2000/svg"><path clip-rule="evenodd" d="m50.118.29c.174 1.164.096 2.561.096 3.908 0 1.359.115 2.749-.145 3.859-4.719.23-9.965-.102-14.812.097-.25.85-.145 1.949-.145 3.039 0 1.054-.073 2.161.097 3.04 1.539.259 3.229.144 4.921.144 1.685.001 3.391.003 5.019.049 3.591.101 6.75-.157 9.215.916 2.17.945 4.022 3.034 4.535 5.598.585 2.922.193 6.358.193 9.842v10.133c.001 9.713.016 19.43-.145 29.576-8.228.206-16.808.076-24.462-.097-.394-1.946.072-4.823-.241-6.899-.686-.291-1.545-.192-2.364-.193-2.333 0-5.085-.177-7.382.049-.259.988-.145 2.279-.145 3.521.001 1.232.11 2.494-.145 3.475-7.756.15-16.279.065-24.027-.145-.204-3.17-.093-6.388-.144-9.65-.053-3.284.204-6.621.048-9.987-.15-3.247-.065-6.559 0-9.843.098-4.96-.16-10.144.048-15.101.071-1.686-.054-3.24.193-4.776.446-2.768 1.961-4.749 4.294-5.839 2.369-1.104 5.866-.772 9.36-.771 3.316.001 6.804.179 9.987-.048.211-.856.186-1.947.193-2.943.007-1.029-.066-2.071-.097-3.04-1.121-.39-2.384-.135-3.618-.145-2.403-.02-4.91-.097-7.479-.097-1.258 0-2.515.115-3.667-.144-.133-1.6-.049-3.81-.049-5.79 0-.553-.097-1.719.145-1.93.036-.046.089-.075.146-.098 13.609.092 27.286-.028 40.577.29zm-18.142 36.572c-2.173-.075-5.29-.12-7.431.048-.246.629-.192 1.417-.193 2.171 0 .774.001 1.567 0 2.364 0 1.586-.115 3.259.145 4.584 1.517.174 3.239.097 4.921.097 1.666-.001 3.389.184 4.825-.097.158-2.786.161-6.236 0-9.023-.688-.276-1.486-.116-2.267-.144z" fill-rule="evenodd"/></svg>