<svg enable-background="new 0 0 76.848 39.446" viewBox="0 0 76.848 39.446" xmlns="http://www.w3.org/2000/svg"><g clip-rule="evenodd" fill-rule="evenodd"><path d="m63.414.156c-.02 3.96.334 8.297 0 12.078-5.208.454-8.849 2.773-11.133 6.362-1.016 1.595-1.652 3.455-2.436 5.269-2.295 5.309-6.11 9.445-10.885 12.226-1.603.934-3.422 1.722-5.418 2.286-1.967.557-4.222 1.051-6.71.796-.138-3.933-.201-8.262-.05-12.078 2.374-.284 4.338-.866 6.064-1.789 1.7-.909 3.07-2.111 4.225-3.579 1.841-2.399 2.546-5.332 3.877-7.853 1.352-2.559 3.007-4.697 5.021-6.71 3.915-3.915 9.112-6.475 16.352-7.107.314-.027.833-.157 1.093.099z"/><path d="m65.004.057c3.982.246 6.804 1.918 8.747 4.175 1.414 1.641 2.734 4.007 2.982 6.71.088.953 0 2.046 0 3.231 0 4.13.05 8.443.05 12.774 0 3.207.101 6.302.05 9.443-.016.987.048 1.966-.149 2.883-3.68.165-8.05.165-11.729 0-.278-6.042-.036-12.694-.199-19.483-.116-4.884-.026-9.977 0-14.912.004-.691.031-1.546 0-2.385-.027-.765-.059-1.934.1-2.337.036-.046.09-.075.148-.099z"/><path d="m25.292.405c.188 12.703.256 25.883.1 38.768-1.802.263-3.95.15-6.015.15-1.017 0-2.066.049-3.031.049-.973 0-1.926.053-2.734-.148-.219-9.461-.198-19.52-.198-29.424 0-3.206-.195-6.359.1-9.394 3.052-.242 6.751.052 9.99-.1.573-.027 1.297-.177 1.788.099z"/><path d="m26.833 25.853c-.27-1.003-.149-2.076-.149-3.132 0-5.198-.049-10.842-.05-16.203 0-1.05-.048-2.104 0-3.131.049-1.045-.158-2.099.149-3.082.911-.16 2.247.099 3.082.349 5.476 1.638 9.615 6.699 8.847 14.115-.508 4.9-3.459 8.39-7.307 10.09-1.285.567-2.823 1.079-4.572.994z"/><path d="m12.021.455c.21 12.498.284 26.169.149 38.769-.916.268-1.97.148-2.982.148-2.021 0-4.01-.021-6.064 0-.974.01-1.984.213-2.882-.099-.181-9.595-.199-19.468-.199-29.226 0-3.262-.145-6.484.1-9.593 3.956-.028 7.957-.214 11.878.001z"/><path d="m63.463 39.421c-3.95-.083-6.926-1.72-8.946-3.927-2.429-2.651-4.339-7.733-2.933-12.922 1.09-4.022 4.123-7.338 8.002-8.6.958-.312 2.076-.507 3.28-.646.132-.016.068-.063.249-.05.694.054.406 1.856.398 2.138-.121 3.876.05 8.038.05 12.127 0 2.993.05 5.884.05 8.996-.001.977.121 1.988-.15 2.884z"/></g></svg>