<svg enable-background="new 0 0 56.373 80.086" viewBox="0 0 56.373 80.086" xmlns="http://www.w3.org/2000/svg"><g clip-rule="evenodd" fill-rule="evenodd"><path d="m25.628.127c.298.888.112 1.865.101 2.826-.076 6.688.246 14.512-.051 21.454-1 .273-2.084.151-3.129.151-7.501 0-15.231.117-22.413-.051-.205-3.91-.102-8.099-.101-12.216 0-4.095-.126-8.189.101-12.115 8.182-.238 17.045-.215 25.492-.049z"/><path d="m25.677 29.404c.192 12.722.102 25.598.102 38.213 0 4.179.172 8.356-.102 12.419-2.898.062-5.605-.574-7.874-1.515-1.175-.487-2.287-.912-3.332-1.464-7.103-3.756-12.49-10.12-14.084-19.485-.472-2.774-.354-5.862-.352-9.137 0-4.691-.001-9.611 0-14.387 0-1.546-.131-3.123.201-4.594 8.29-.185 17.143-.258 25.441-.05z"/><path d="m30.927 80.086c-.301-.932-.211-1.935-.201-2.928.137-14.639-.002-29.237 0-44.522 0-.939-.066-2.666.201-3.029.037-.047.093-.076.152-.101 8.069.266 13.671 3.223 17.92 7.471 3.951 3.949 7.491 10.049 7.37 17.971-.123 8.032-3.376 13.674-7.521 17.819-4.252 4.252-9.921 7.139-17.921 7.319z"/></g></svg>