<svg enable-background="new 0 0 79.034 79.498" viewBox="0 0 79.034 79.498" xmlns="http://www.w3.org/2000/svg"><path clip-rule="evenodd" d="m42.448 33.371c-1.643.258-1.104 3.086-1.104 4.814 0 11.418-.1 23.172-.1 35.051 0 .857.045 1.893 0 2.959-.038.893.074 2.23-.201 2.707-.525.912-2.327.695-2.708-.1-.275-.578-.1-1.916-.1-2.859-.001-6.887.05-13.555.05-20.408 0-7.123.038-13.23 0-20.309-.004-.805-.071-1.717-1.053-1.855-1.045.035-1.053 1.078-1.053 1.957-.001 12.805-.1 25.092-.101 38.059 0 .852.017 1.887 0 2.959-.021 1.314.16 2.357-.652 2.758-.389.191-1.386.004-2.105-.102-2.133-.309-4.021-.842-5.767-1.402-7.269-2.338-12.936-6.396-17.35-11.334-4.527-5.072-7.991-11.252-9.527-19.154-1.702-8.756-.018-18.014 3.009-24.369 3.103-6.517 7.51-11.601 13.138-15.545 4.979-3.49 10.671-5.961 18.151-6.92 1.11-.143 2.351-.195 3.511-.25 3.246-.154 6.14.369 8.875.852 2.667.471 5.207 1.355 7.421 2.256 1.165.475 2.269 1.004 3.31 1.555 1.053.557 1.979 1.232 2.959 1.856 1.948 1.24 3.774 2.715 5.415 4.262 4.904 4.625 8.862 10.502 11.032 18.053.737 2.565 1.328 5.395 1.403 8.274.043 1.639.197 3.25.101 4.764-.286 4.477-1.131 8.475-2.507 12.035-3.137 8.111-8.214 14.334-14.943 18.953-3.828 2.629-8.087 4.543-13.589 5.768-1.123.25-3.55.977-4.212.199-.354-.416-.251-1.688-.251-2.707.001-13.795.1-27.172.101-41.018 0-.833-.153-1.71-1.153-1.759zm11.583 40.717c2.057-.844 4.026-1.885 5.667-3.108.862-.645 1.761-1.16 2.557-1.807 2.501-2.027 4.527-4.115 6.518-6.719 4.917-6.424 8.721-15.924 7.272-27.328-1.303-10.248-5.913-17.236-12.136-23.016-2.969-2.76-6.506-5.143-10.78-6.82-3.971-1.559-9.703-2.811-15.144-2.557-5.486.256-10.009 1.459-14.04 3.26-1.942.867-3.773 1.938-5.416 3.209-1.662 1.285-3.327 2.475-4.764 3.91-5.805 5.808-10.032 13.166-10.981 23.669-.504 5.58.467 10.85 1.956 15.043 1.542 4.346 3.619 8.006 6.168 11.184 1.903 2.371 4.06 4.596 6.519 6.418 3.391 2.512 6.893 4.453 11.533 5.816.967.283 2.739.99 3.51.752 1.099-.34.811-2.57.802-4.062-.019-3.354.029-6.453-.1-9.676-.028-.705.102-1.432-.05-1.906-.368-1.141-1.941-.953-3.561-.953-2.517 0-3.871.045-6.017-.051-1.162-.051-2.333.176-3.108-.049-.998-.291-2.297-1.617-2.608-2.809-.151-.582.024-1.092-.25-1.756-.226-.121-.337-.398-.552-.5-.434-.207-1.292-.055-1.705-.201-.538-.191-1.059-.736-1.504-1.154-.491-.459-.92-.857-1.153-1.504-.278-.769-.125-1.613-.652-2.055-.463-.389-1.301-.246-1.955-.502-.595-.232-1.107-.807-1.555-1.254-.483-.483-1.049-1.065-1.203-1.654-.213-.811-.101-2.066-.101-3.16 0-2.123.004-4.275-.05-6.217-.031-1.102-.045-2.264.15-3.059.164-.668.761-1.281 1.203-1.756.447-.479 1.065-1.113 1.604-1.303.725-.258 1.733-.018 2.056-.752.348-.5.216-1.346.451-1.855.359-.779 1.745-2.143 2.558-2.408.534-.174 1.213.006 1.755-.25.855-.404.477-1.234.803-2.256.265-.834 1.441-2.107 2.206-2.408.758-.297 2.102-.25 3.21-.25 2.134 0 4.056.049 6.267.051 1.922 0 3.578-.189 3.711 1.303v.1c-.166 1.682-2.018 1.092-3.761 1.154-2.05.074-3.886-.045-5.867-.051-1.741-.004-3.497-.156-3.46 1.305.037 1.479 1.752 1.131 3.409 1.203 2.023.088 3.912.051 5.918.051 1.726 0 3.581-.172 3.761 1.203.267 2.049-2.034 1.469-3.511 1.453-3.049-.031-5.674.115-8.725.102-.368.328-.833.529-.803 1.152.065 1.357 1.869 1.104 3.46 1.104 2.767 0 6.535.031 8.825.15.828.203.61 1.586 1.454 1.654.752.061 1.237-1.139 2.156-1.504.661-.262 1.168.008 1.755-.451.738-.453.423-1.334.702-2.006.235-.566.839-1.039 1.304-1.504.531-.531.959-1.004 1.655-1.203.484-.139 1.16.027 1.604-.252.771-.484.502-1.643.752-2.256.219-.537.689-.939 1.153-1.404.918-.918 1.593-1.192 3.259-1.203.531-.004 1.096-.023 1.605 0 1.985.088 4.112-.023 6.218.051 1.011.035 2.309-.047 3.059.199.792.26 2.303 2.01 2.558 2.758.155.457.031.998.25 1.455.436.908 1.204.527 2.257.852.764.236 1.175.775 1.605 1.203.47.471 1.05.938 1.304 1.555.221.537.101 1.26.502 1.756.473.584 1.255.379 1.955.652.675.264 1.135.914 1.604 1.404.524.545 1.082 1.033 1.254 1.754.21.883-.047 2.022 0 3.01.092 1.928-.018 4.092.05 6.066.032.92.163 2.211-.05 2.959-.185.648-.75 1.24-1.254 1.705-.505.467-.88.971-1.504 1.254-.504.229-1.223.105-1.755.451-.697.451-.453 1.264-.752 2.006-.376.928-1.854 2.354-2.708 2.707-.6.248-1.57-.014-2.156.502-.576.506-.298 1.352-.602 2.105-.197.488-.707 1.062-1.153 1.504-.405.4-.864.973-1.505 1.154-.792.223-1.741.014-2.908.049-1.987.062-3.921.125-6.067.051-.894-.031-2.301-.164-2.908.1-1.055.461-.752 2.361-.752 4.012 0 3.059-.1 5.35 0 8.525.045 1.432-.21 3.51.853 3.811 2.468-.286 4.79-1.053 6.869-1.907zm2.358-50.996c-1.32-.002-3.016.006-4.613 0-1.382-.004-3.361-.234-4.463-.049-.574.096-1.015.643-1.053 1.152.024.645.422.914.802 1.203 3.537.123 7.733.162 11.233.051.312-.307.713-.524.702-1.154-.05-1.305-1.277-1.199-2.608-1.203zm-38.762 6.018c-.044-1.297-2.41-1.545-2.457.051.106 1.601 2.505 1.329 2.457-.051zm23.417.201c-.033 1.545 2.644 1.59 2.508-.1-.056-.691-.695-1.102-1.404-1.004-.723.1-1.092.574-1.104 1.104zm14.441 1.302c1.558 0 3.596.342 3.561-1.203-.033-1.447-2.085-1.152-3.711-1.152-1.251 0-2.29-.074-3.108 0-1.188.105-4.09-.299-5.115.049-1.063.361-.938 1.771-.1 2.156 2.418.256 5.583.152 8.473.15zm6.269-1.152c-.01 1.592 2.652 1.584 2.607 0-.021-.701-.592-1.199-1.454-1.104-.663.075-1.149.432-1.153 1.104zm-51.649 4.563c-.231 2.361-.1 5.701-.1 8.525 0 1.789-.264 3.547 1.303 3.609.577-.023.786-.418 1.054-.752.162-3.715.062-7.543 0-11.432-.265-.422-.671-.969-1.354-.803-.486.099-.758.413-.903.853zm5.015 1.504c0 1.715.008 3.611 0 5.467-.007 1.664-.45 5.01 1.103 5.215 1.802.236 1.454-1.967 1.454-3.561 0-2.228-.084-3.596-.051-5.766.015-.959.292-1.924 0-2.809-.159-.484-.813-.916-1.354-.854-1.171.14-1.152 1.114-1.152 2.308zm18.002 7.822c-.001-2.367-.072-5.166-.051-7.02.008-.668.162-1.688-.05-2.207-.382-.934-1.848-.902-3.21-.902-2.931.002-5.676-.047-8.424 0-1.531.027-1.354 1.846-1.354 3.611 0 2.019.05 3.906.05 5.867 0 1.535-.205 3.15.852 3.51 3.586.191 7.715.107 11.383.049.993-.451.804-1.459.804-2.908zm25.975.051c.03-2.045-.051-4.27-.051-6.268 0-.91.215-2.312-.101-2.959-.463-.949-1.812-.768-3.259-.803-2.069-.049-3.411 0-5.365 0-.935 0-1.94-.117-2.809 0-1.44.197-1.254 1.885-1.253 3.56 0 2.785.018 6.297.149 8.676.467.99 2.105.756 3.61.803 2.104.064 4.037-.098 6.068 0 1.002.047 2.005.23 2.657-.352.509-.673.338-1.671.354-2.657zm3.81-9.928c-1.656.113-1.204 2.771-1.204 4.662 0 1.236.126 2.689.101 3.912-.038 1.787-.612 4.848 1.655 4.412 1.194-.357.952-1.934.952-3.459-.001-2.916.008-6.156-.1-8.676-.31-.529-.749-.896-1.404-.851zm5.114.099c-.352.217-.625.512-.803.902-.15 2.5.072 5.865-.05 8.475-.078 1.689-.159 3.367 1.203 3.51 1.631-.078 1.247-2.037 1.254-3.609.013-2.664.046-6.152-.05-8.475-.274-.445-.685-1.02-1.454-.803-.033 0-.066 0-.1 0zm-52.851 16.649c-.038 1.379 2.396 1.688 2.508.049-.069-1.535-2.47-1.395-2.508-.049zm8.575 1.303c1.854-.014 3.737-.049 5.666-.049 1.574-.002 3.757.527 3.711-1.104-.036-1.271-1.888-1.283-3.311-1.254-.754.016-1.765.049-2.707.049-2.14.002-3.963-.234-5.516-.049-.828.1-1.385.424-1.404 1.303.131 1.283 2.053 1.115 3.561 1.104zm22.564-1.104c.047 1.402 2.216 1.105 3.66 1.154 1.682.059 3.785 0 5.616 0 1.671 0 3.511.287 3.511-1.154 0-1.385-1.722-1.203-3.16-1.203-2.6 0-5.245-.102-7.371 0-1.149.055-2.296.002-2.256 1.203zm15.795.803c.77.846 2.384.342 2.307-.852-.049-.752-.765-1.139-1.504-1.053-1.059.124-1.446 1.198-.803 1.905zm-38.359 5.515c1.86.053 3.937-.066 5.716 0 1.66.062 3.899.449 3.661-1.453-.154-1.225-1.763-1.062-3.21-1.104-1.648-.045-3.536 0-5.215 0-2.032 0-4.422-.555-4.562 1.354.151 1.563 1.878 1.157 3.61 1.203zm22.614-1.353c-.193 1.805 1.927 1.375 3.61 1.455 2.045.098 3.595-.043 5.566.049.936.045 2.146.168 2.707-.049 1.005-.389 1.139-2.094.101-2.457-.381-.135-1.101-.051-1.304-.051-1.464 0-2.784-.051-4.062-.051-1.691 0-3.965-.242-5.516.051-.599.114-1.04.479-1.102 1.053z" fill-rule="evenodd"/></svg>