<svg enable-background="new 0 0 80.081 81.141" viewBox="0 0 80.081 81.141" xmlns="http://www.w3.org/2000/svg"><g clip-rule="evenodd" fill-rule="evenodd"><path d="m74.879 77.192c.271-1.478.15-3.012.15-4.506 0-1.537 0-3.063 0-4.606 0-20.766.083-42.554-.1-63.836-.658-.244-1.419-.2-2.153-.2-5.314 0-11.006-.168-16.322-.05-5.527.124-12.08.001-18.325 0-10.634-.001-21.392-.051-32.493-.05-1.324 0-3.56.256-4.556-.1-1.146-.41-1.645-2.774-.15-3.555.954-.498 4.041-.2 5.407-.2h11.215c19.004 0 38.358.151 57.628.15 2.439 0 3.926-.054 4.606 1.652.513 1.288.2 3.874.2 5.658.001 22.036-.001 44.396 0 66.49 0 1.86.3 4.559-.35 5.808-.614 1.177-1.826 1.28-3.705 1.252-11.541-.175-23.656-.002-35.047 0-11.428.002-23.074-.051-34.997-.05-1.479 0-3.81.289-4.856-.15-1.462-.614-1.268-3.066 0-3.555.98-.378 3.165-.1 4.606-.1 4.499 0 9.274-.005 13.619-.05 6.624-.069 12.351.05 18.475.05 12.508-.001 25.233.184 37.148-.052z"/><path d="m4.434 14.258c1.073-.311 2.429.467 2.754 1.351.292.796.15 2.354.15 3.705 0 6.322-.03 12.882 0 18.525.005.969 0 2.351 0 3.705 0 1.404.136 2.762-.201 3.605-.68 1.704-3.899 1.948-4.606-.05-.309-.874-.1-2.542-.1-3.655 0-1.286.002-2.587-.05-3.705-.124-2.672.128-4.894.15-7.209.012-1.253-.1-2.519-.1-3.655 0-2.63 0-4.757 0-7.61 0-1.151-.199-2.784.15-3.655.27-.672 1.062-1.274 1.853-1.352z"/><path d="m37.029 33.333c-1.115-.24-2.346-.197-3.555-.15-3.485.135-7.472-.286-11.115.05-.268.878-.15 1.924-.15 2.954v6.158c0 1.057.138 2.16-.15 2.904-.732 1.892-3.93 1.822-4.606-.1-.306-.87-.118-2.406-.15-3.555-.137-4.898.135-10.068 0-14.92-.072-2.572.05-4.859.05-7.36 0-1.251-.19-2.655.15-3.555.717-1.894 3.816-2.014 4.556-.1.298.772.15 1.955.15 3.054 0 3.051-.081 6.57.101 9.362 1.122.272 2.364.15 3.604.15 3.667 0 7.596.147 11.115-.05.237-2.588.15-6.142.15-9.313 0-.88-.175-2.356.1-3.154.598-1.734 3.421-2.016 4.306-.3.379.735.3 2.134.3 3.504v22.681c0 1.193.155 2.789-.15 3.605-.348.929-1.447 1.574-2.653 1.402-.827-.118-1.585-.884-1.803-1.502-.27-.767-.1-1.815-.1-2.854-.001-2.998-.003-6.062-.15-8.911z"/><path d="m53.1 30.63c.941 1.214 1.959 2.182 3.054 3.254 2.563 2.509 5.307 5.256 7.911 7.86.523.523 1.21 1.159 1.352 1.752.429 1.792-1.185 3.529-3.104 3.054-.854-.211-1.603-1.203-2.203-1.802-4.329-4.329-8.601-8.601-13.017-13.018-.321-.321-.893-.744-.901-1.052-.016-.537 1.479-1.678 1.953-2.153 4.181-4.181 8.113-8.062 12.267-12.216.8-.8 1.552-1.97 2.804-2.053 1.57-.104 3.054 1.317 2.603 3.154-.162.662-.919 1.269-1.452 1.802-2.655 2.655-5.443 5.443-8.111 8.111-1.087 1.088-2.257 2.069-3.156 3.307z"/></g></svg>