<svg enable-background="new 0 0 70.543 60.645" viewBox="0 0 70.543 60.645" xmlns="http://www.w3.org/2000/svg"><g clip-rule="evenodd" fill-rule="evenodd"><path d="m3.431.072c4.058-.193 8.363.072 12.336 0 2.512-.046 4.454-.154 5.192 1.571.323.757.224 2.696.285 4.049.115 2.519-.047 5.743-.047 8.574 0 2.352.143 4.157-1.477 4.858-1 .433-2.982.191-4.382.191-3.76 0-7.701-.024-11.479 0-1.842.012-2.988-.212-3.524-1.43-.379-.858-.198-2.65-.19-4.001.013-2.397-.169-5.765-.048-8.431.115-2.527-.247-4.43 1.524-5.191.498-.213 1.334-.168 1.81-.19z"/><path d="m70.543 1.977c-.062 1.072-.739 1.909-1.238 2.763-3.396 5.809-7.178 11.403-10.86 17.004-2.112 3.213-4.143 6.468-6.287 9.669-3.162 4.725-6.304 9.691-9.383 14.528-1.015 1.592-2.098 3.138-3.145 4.811-.953 1.522-2.052 3.158-3.144 4.81-1.019 1.543-2.027 3.533-3.476 4.477-1.399.912-5.25.524-7.479.524-6.533 0-12.779-.095-19.624-.095-2.523 0-5.04.315-5.668-1.62-.354-1.09-.22-2.935-.19-4.43.095-4.787.001-9.059 0-13.908-.001-4.505-.133-9.25.048-13.765.06-1.518-.243-3.417.096-4.477.662-2.078 2.976-1.81 5.81-1.81 3.013.001 5.928.017 8.811.048 1.499.016 3.049-.157 4.335.096 2.345.46 1.982 3.029 2.048 5.763.075 3.156-.076 5.418 0 8.574.035 1.475.174 2.958 1.381 3.096.931.105 1.801-.916 2.286-1.572.582-.785.995-1.643 1.477-2.286 1.65-2.619 3.223-5.505 4.906-8.287 4.063-6.713 8.399-13.517 12.479-20.434.765-1.296 1.728-2.963 2.811-3.763.463-.344 1.08-.574 1.762-.621 1.775-.122 3.798.048 5.716.048 4.677-.001 9.393.048 14.337.048 1.142-.001 1.889.013 2.191.809z"/></g></svg>