<svg enable-background="new 0 0 74.169 75.863" viewBox="0 0 74.169 75.863" xmlns="http://www.w3.org/2000/svg"><g clip-rule="evenodd" fill-rule="evenodd"><path d="m24.122.157c.269 1.807.026 3.779-.4 5.461-.421 1.658-.926 3.189-1.554 4.609-.634 1.434-1.276 2.861-2.104 4.057-4.089 5.908-10.482 10.328-19.888 10.82-.269-.975-.15-2.02-.15-3.055.001-6.316 0-12.684 0-18.986 0-1-.117-2.055.15-3.006 7.859-.085 16.271-.093 23.946.1z"/><path d="m.077 27.96c.879-.285 1.856-.174 2.805-.199 1.022-.029 2.065 0 3.106 0 5.976 0 12.349.021 18.334.15.274.969.15 1.949.15 2.904 0 2.975-.081 5.961.101 8.816.107 1.686.805 3.207 1.503 4.559 1.914 3.707 5.994 6.787 11.522 6.463 3.778-.223 6.143-1.484 8.366-3.707 2.087-2.088 3.536-4.687 3.757-8.316.23-3.789-1.205-6.867-3.006-9.066-1.735-2.119-4.379-3.941-7.665-4.408-1.776-.252-3.79-.051-5.811-.051-1.919 0-3.911.084-5.911-.1-.269-.977-.15-2.02-.15-3.057 0-7.281-.072-14.885.101-21.74 3.437-.213 7.284-.15 10.921-.15 2.444 0 4.697.42 6.712.852 4.097.879 7.665 2.465 10.82 4.258 6.292 3.574 11.137 9.232 14.428 15.781 3.143 6.252 5.367 16.313 3.056 25.246-1.604 6.201-3.904 11.078-7.313 15.379-.552.697-1.128 1.359-1.704 2.055-.558.676-1.286 1.185-1.903 1.853-1.259 1.363-2.516 2.525-4.007 3.557-4.372 3.021-9.73 5.529-16.181 6.463-4.51.652-9.604.414-13.776-.652-1.99-.508-3.837-1.205-5.61-1.953-3.51-1.479-6.479-3.473-9.268-5.811-4.117-3.455-7.378-7.674-9.818-12.824-1.605-3.385-2.938-7.344-3.356-11.723-.429-4.452-.226-9.309-.203-14.579z"/></g></svg>