<svg enable-background="new 0 0 76.551 48.35" viewBox="0 0 76.551 48.35" xmlns="http://www.w3.org/2000/svg"><g clip-rule="evenodd" fill-rule="evenodd"><path d="m48.393.217c.178 16.137.131 32.245-.048 47.922-1.618.262-3.347.145-5.063.145-5.071 0-10.364-.031-15.138-.145-.258-.868-.145-1.94-.145-2.989 0-15.054.097-28.609.096-43.92 0-.756-.086-1.143.579-1.205.769-.072 1.603.04 2.411.048 5.812.06 11.434-.061 17.308.144z"/><path d="m12.09.169c-.066.659-.655 1.09-1.013 1.591-2.169 3.04-4.223 6.667-5.399 10.75-.98 3.403-1.639 7.58-1.639 11.764 0 3.403.534 6.505 1.157 9.594.561 2.783 1.779 5.317 2.94 7.665.867 1.753 1.923 3.362 3.038 4.918.368.514.982.948 1.012 1.639-.466.238-1.169.145-1.832.145-.661 0-1.409.132-1.88-.048-.294-.113-.603-.669-.868-1.013-.802-1.039-1.632-2.323-2.266-3.327-.539-1.3-1.234-2.526-1.832-3.808-1.756-3.769-3.075-8.252-3.423-13.451-.529-7.89 1.46-14.568 4.001-19.622.385-.766.694-1.575 1.061-2.314.82-1.651 2.107-3.149 3.135-4.532 1.148-.049 2.739-.141 3.808.049z"/><path d="m19.081.169c-.04.525-.494.873-.771 1.253-1.967 2.692-3.631 5.765-5.014 9.16-1.575 3.868-2.507 8.353-2.507 13.547 0 7.712 2.11 14.022 5.062 19.091.499.857.994 1.728 1.543 2.507.561.797 1.247 1.483 1.639 2.362-.994.254-2.64.167-3.712.048-.776-.564-1.293-1.458-1.832-2.266-3.702-5.552-6.702-12.607-6.701-21.791.001-5.194 1.006-9.701 2.555-13.643 1.545-3.932 3.514-7.473 5.978-10.317 1.132-.049 2.707-.141 3.76.049z"/><path d="m26.168.217c-.058.516-.485.864-.771 1.253-.835 1.136-1.764 2.31-2.507 3.567-1 1.692-1.792 3.526-2.555 5.496-1.502 3.875-2.7 8.167-2.7 13.451 0 9.685 3.213 17.305 7.425 22.9.266.354.653.722.675 1.205-.878.215-2.272.17-3.278.097-.481-.154-.727-.685-1.013-1.061-1.993-2.63-3.803-5.76-5.11-9.16-1.516-3.941-2.555-8.627-2.555-13.788 0-5.384 1.152-9.689 2.603-13.74 1.428-3.987 3.587-7.433 5.979-10.317 1.136-.023 2.826-.197 3.807.097z"/><path d="m50.611.12c1.123.01 2.302-.021 3.471.048 1.309 1.372 2.441 3.009 3.423 4.773 2.883 5.179 5.159 11.368 5.159 19.332 0 2.601-.295 5.118-.771 7.425-.922 4.465-2.441 8.465-4.483 11.86-1.027 1.707-2.073 3.43-3.471 4.676-.983.034-2.497.184-3.327-.096.069-.51.491-.873.771-1.253 1.962-2.664 3.661-5.772 4.966-9.16 1.513-3.928 2.458-8.459 2.458-13.692 0-5.269-1.126-9.637-2.651-13.499-.772-1.954-1.618-3.817-2.604-5.496-.739-1.259-1.664-2.346-2.507-3.567-.248-.359-.727-.739-.627-1.253.071-.026.121-.072.193-.098z"/><path d="m57.409 48.187c.013-.537.48-.91.772-1.302 2.059-2.773 3.877-6.038 5.159-9.69 1.471-4.196 2.615-9.045 2.362-14.56-.412-8.996-3.704-15.796-7.665-21.309-.227-.315-.696-.679-.579-1.157.69.058 2.795-.251 3.616 0 .645.197 1.428 1.626 1.928 2.362 3.946 5.811 7.042 13.504 6.653 23.238-.334 8.363-3.251 14.976-6.846 20.345-.423.632-1.216 1.94-1.735 2.121-.803.279-2.908-.038-3.665-.048z"/><path d="m64.592.12c1.199.006 2.331.08 3.567.048 1.183 1.375 2.306 2.934 3.23 4.628 2.71 4.968 5.071 10.881 5.159 18.417.099 8.542-2.236 15.217-5.448 20.586-.976 1.631-1.957 3.262-3.278 4.436-1.08.034-2.689.183-3.616-.096.24-.979 1.06-1.649 1.591-2.459 3.625-5.536 6.749-12.25 6.75-21.454 0-9.227-2.878-15.996-6.605-21.647-.261-.396-.574-.775-.868-1.157-.267-.347-.644-.731-.675-1.205.072-.025.121-.071.193-.097z"/></g></svg>