<svg enable-background="new 0 0 79.834 40.42" viewBox="0 0 79.834 40.42" xmlns="http://www.w3.org/2000/svg"><path clip-rule="evenodd" d="m44.336.103c.391 2.134-.062 5.111.247 7.328.448-.059.711-.513.99-.793 3.277-3.277 7.363-6.233 13.715-6.535 7.175-.342 12.018 2.81 15.595 6.387 1.228 1.227 2.155 2.748 3.07 4.307.457.78.829 1.617 1.139 2.525.304.893.685 1.865.692 2.872-2.445.197-5.442.099-7.971.049-.846-1.407-1.53-2.783-2.574-3.96-1.03-1.162-2.251-2.027-3.614-2.872-1.919-.963-4.312-1.278-6.635-1.04-2.29.235-4.253 1.133-5.644 2.178-2.92 2.195-5.365 5.624-5.001 10.694.225 3.128 1.526 5.444 3.268 7.278 1.783 1.879 4.022 3.262 6.882 3.664 7.091.997 11.041-2.818 13.22-7.575 1.314-.097 2.734-.062 4.108 0 1.386.063 2.815-.245 4.011.099-.313 2.452-1.347 4.527-2.476 6.337-1.121 1.799-2.592 3.362-4.208 4.704-3.138 2.604-7.502 4.88-13.17 4.654-5.685-.227-9.58-2.243-12.823-5.001-2.381-2.025-4.285-4.681-5.545-7.822-.425-1.061-.562-2.237-1.139-3.317-5.012-.081-10.741-.177-16.288 0-.225 1.138-.147 2.422-.1 3.713.146 3.893-.028 8.3-.099 12.081-2.315.165-5.31.163-7.625 0-.278-5.216.075-10.718-.247-15.794-2.456-.217-5.21-.099-7.971-.099-1.367 0-2.758 0-4.11 0-1.347 0-2.69.115-3.911-.148-.165-2.381-.163-5.441 0-7.822 5.427-.271 10.691.127 16.042-.198.289-.631.108-1.435.147-2.03.178-2.7 1.449-5.073 2.624-6.783 1.301-1.891 2.746-3.426 4.704-4.654 1.901-1.192 4.175-2.285 6.932-2.426 4.11-.212 9.426-.04 13.765-.001zm-1.238 8.169c-2.065.047-4.186 0-6.238 0-2.158 0-4.339-.209-6.188.099-1.925.321-3.768 1.519-4.753 2.872-.843 1.157-1.628 2.611-1.584 4.753 4.939.216 10.926.22 16.289.05.619-2.103 1.335-4.11 2.277-5.892.358-.582.892-.989 1.039-1.782-.242-.226-.581-.106-.842-.1z" fill-rule="evenodd"/></svg>