<svg enable-background="new 0 0 16.544 16.503" viewBox="0 0 16.544 16.503" xmlns="http://www.w3.org/2000/svg"><path d="m0 0c5.514.012 11.03 0 16.544.006-.008 5.498-.004 10.998-.002 16.497-1.383-.011-2.766-.005-4.149-.003.008-4.121.001-8.241.003-12.362-4.131 0-8.262-.003-12.393.001-.003-1.379.004-2.759-.003-4.139z"/><path d="m.002 8.241c2.759.007 5.517.006 8.275 0-.009 1.383.001 2.766-.005 4.149-1.377-.023-2.756-.002-4.134-.01.002 1.374-.001 2.748.001 4.122-1.379-.012-2.759.004-4.138-.009.002-2.751.001-5.501.001-8.252z"/></svg>