<svg enable-background="new 0 0 48.173 73.64" viewBox="0 0 48.173 73.64" xmlns="http://www.w3.org/2000/svg"><g clip-rule="evenodd" fill-rule="evenodd"><path d="m10.056.038c3.011-.321 5.293 1.459 6.265 3.392.58 1.153.752 2.129.612 3.626-.338 3.625-4.076 6.212-7.442 5.512-.803-.168-1.518-.478-2.166-.896-1.334-.858-2.494-2.336-2.686-4.522-.253-2.902.774-4.916 2.544-6.123.759-.519 1.652-.859 2.873-.989z"/><path d="m32.524 7.621c.255 1.018.141 2.181.141 3.297 0 2.291.047 4.578.047 6.736 0 1.08-.153 2.145.095 3.108.886.314 2.089.211 3.25.189 3.073-.061 6.461-.104 9.797.047.246.708.185 2.186.047 2.968-.976.254-2.113.141-3.249.141-2.215.001-4.173-.077-6.595 0-.428.014-.951-.03-1.601 0-.531.026-1.356-.006-1.554.142-.284.211-.19 1.616-.19 2.449 0 9.652.194 18.531.048 28.214-.024 1.628-.022 3.151.047 4.993.066 1.747-.134 3.617.377 4.757 1.101 2.46 4.924 4.135 8.431 2.873 1.549-.557 2.479-1.541 3.392-2.685.393-.492.798-1.254 1.178-1.837.41-.63 1.074-1.093 1.978-.377.121 1.441-.685 2.726-1.177 3.862-2.159 3.971-6.622 7.054-13.047 5.982-5.233-.873-9.402-3.836-10.363-9.139-.522-2.882-.23-6.301-.188-9.467.041-3.126-.048-6.48-.048-9.608 0-6.464.045-12.901-.189-19.029-1.301-.362-3.325-.14-4.757-.047-.248.986-.151 2.013-.142 3.014.011 1.001 0 2.012 0 3.015 0 5.845.047 11.709.047 18.087.001 3.876-.094 8.254.048 12.341.072 2.104-.171 4.296.377 5.888.436 1.268 1.625 2.843 2.873 3.345.528.212 1.534.417 2.261.518.652.091 2.203-.093 2.544.235.28.271.306.976.094 1.413-.874.48-2.013.307-3.062.236-3.07-.207-6.145-.048-9.703-.048-3.285.001-6.511.13-9.75.283-.925.043-2.621.281-3.108-.048-.238-.16-.596-.934-.236-1.46.252-.368.82-.329 1.602-.329 3.214 0 5.15-1.266 6.124-3.533.411-.959.471-1.919.471-3.392 0-9.562-.047-19.921-.047-30.239-.001-2.707-.658-4.4-2.214-5.511-1.529-1.09-3.559-1.229-6.359-1.318-.355-.623-.232-1.666.142-1.931.396-.281 1.997-.235 2.732-.33 2.778-.358 5.088-.776 7.725-1.366 3.013-.674 6.615-1.348 9.278-2.826 4.431-2.458 7.365-6.921 9.421-11.775.355-.84.457-1.841 1.271-1.978.553-.095 1.322-.028 1.741.14z"/></g></svg>