<svg enable-background="new 0 0 25.173 25.173" viewBox="0 0 25.173 25.173" xmlns="http://www.w3.org/2000/svg"><path d="m25.173 9.78v-9.78h-25.173v9.78h7.032v5.613h-7.032v9.78h25.173v-9.78h-7.023v-5.613zm-2.152-7.636v5.492h-9.058c-1.852 0-3.535.727-4.779 1.909v-2.64c0-2.625 2.143-4.761 4.779-4.761zm-20.869 5.492v-5.492h6.803c-1.188 1.24-1.923 2.915-1.923 4.761v.731zm0 15.393v-5.492h9.067c1.853 0 3.536-.727 4.78-1.909v2.641c0 2.625-2.144 4.761-4.78 4.761h-9.067zm20.869-5.492v5.492h-6.794c1.188-1.239 1.924-2.915 1.924-4.761v-.732h4.87zm-7.023-6.904c0 2.625-2.144 4.761-4.78 4.761h-2.034v-.853c0-2.625 2.143-4.761 4.779-4.761h2.035z" fill="#010101"/></svg>