<svg enable-background="new 0 0 73.334 71.255" viewBox="0 0 73.334 71.255" xmlns="http://www.w3.org/2000/svg"><g clip-rule="evenodd" fill-rule="evenodd"><path d="m5.771.047c2.482-.286 4.204.765 5.358 2.015.775.841 1.613 2.219 1.739 3.847.253 3.281-1.6 5.795-4.121 6.686-4.405 1.556-8.735-1.636-8.747-6.136-.004-1.6.693-3.089 1.282-3.893.964-1.314 2.421-2.28 4.489-2.519z"/><path d="m71.484 2.108c1.017 1.236 1.709 2.288 1.832 4.122.225 3.322-1.736 5.823-4.441 6.64-3.443 1.04-6.67-.814-7.83-3.389-1.113-2.467-.35-5.552 1.006-7.098 1.057-1.204 2.549-2.066 4.488-2.198 2.289-.157 3.682.935 4.945 1.923z"/><path d="m69.607 70.662c-1.955.133-4.506.083-6.502-.046-.24-.738-.139-1.531-.139-2.289.002-11.655.121-23.44.139-34.712.004-3.145.184-6.558-.734-8.747-1.355-3.235-4.016-5.642-8.195-6.091-1.355-.145-3.105-.091-4.672-.091-6.389 0-12.564 0-19.004 0-1.644 0-3.143.024-4.396.366-3.504.956-6.106 3.815-6.869 7.419-.611 2.881.195 5.637 1.51 7.556 1.291 1.881 3.203 3.295 5.68 3.893 1.332.321 2.834.274 4.488.274 4.551 0 9.894-.244 14.195.092 5.666.443 9.559 3.31 12.182 6.915 1.396 1.919 2.303 4.077 2.748 6.777 1.008 6.132-1.41 11.256-4.396 14.242-2.416 2.415-5.406 4.254-9.525 4.808-1.395.188-2.857.152-4.488.183-6.172.12-12.596-.046-19.004-.046-3.4 0-6.209-.137-8.564-1.008-4.518-1.671-8.035-4.755-9.846-9.205-.936-2.301-1.236-4.962-1.236-8.288 0-12.167.021-24.781.184-37.414 1.988-.153 4.621-.167 6.549.046.084 13.081 0 25.332 0 38.284 0 3.37.762 5.518 2.381 7.373 1.527 1.751 3.435 3.079 6.319 3.389 1.504.161 3.131.091 4.763.091 6.412.001 12.539.046 18.959.046 3.441 0 5.668-.539 7.648-2.06 1.863-1.433 3.078-3.312 3.617-6.091.416-2.148-.1-4.551-.916-6.091-.873-1.646-1.877-2.873-3.434-3.847-1.062-.663-2.242-1.078-3.619-1.282-1.354-.2-2.861-.119-4.58-.183-3.227-.121-6.639 0-9.707 0-3.398 0-6.119-.233-8.518-1.191-2.315-.924-4.106-2.171-5.725-3.984-.795-.76-1.402-1.585-1.969-2.473-.581-.908-.945-1.903-1.375-3.022-.827-2.156-1.381-4.737-1.053-7.602.588-5.142 3.04-8.793 6.274-11.357 1.654-1.311 3.703-2.282 6-2.839 2.4-.582 5.278-.457 8.379-.457h8.838c2.973 0 5.965.132 8.791 0 6.752-.314 11.33 1.749 14.473 5.129 2.344 2.524 4.096 5.678 4.441 10.167.115 1.499.092 3.141.092 4.763-.002 12.671-.01 26.254-.184 38.603z"/></g></svg>