<svg enable-background="new 0 0 80.755 71.045" viewBox="0 0 80.755 71.045" xmlns="http://www.w3.org/2000/svg"><path clip-rule="evenodd" d="m50.21.001c.472-.028.998.747 1.409 1.157 2.949 2.95 5.848 5.783 8.704 8.805.164 6.476-.079 13.277.151 19.572.378.079.548-.311.754-.503.608-.566 1.237-1.151 1.862-1.761 1.736-1.85 3.598-3.548 5.484-5.434.208-.208.484-.619.854-.956.289-.262.791-.793 1.007-.805.383-.021 1.063.812 1.409 1.157 2.11 2.11 4.279 4.179 6.39 6.289.831.831 1.719 1.635 2.415 2.616.038 9.31.051 19.162.05 28.83 0 .626.123 1.375 0 1.812-.211.75-1.913 2.064-2.465 2.616-2.147 2.147-4.017 4.067-6.289 6.339-.312.311-.936 1.182-1.309 1.208-.648.044-.902-.909-1.409-1.157-2.935-2.969-5.95-5.856-8.805-8.905-.159-6.505.088-13.397-.201-19.522-.581.143-.973.67-1.358 1.057-1.966 1.966-3.895 3.975-5.887 6.088-.291.309-.789.688-1.258 1.157-.301.301-.9 1.093-1.258 1.107-.361.014-1.038-.787-1.358-1.107-2.044-2.043-4.104-4.004-6.139-6.038-.795-.794-1.508-1.729-2.516-2.314-.268.721-.15 1.547-.15 2.314v17.258c-3.256 3.504-6.627 6.891-10.113 10.164-1.015-.672-1.773-1.621-2.616-2.466-2.12-2.12-4.147-4.096-6.391-6.339-.381-.381-1.04-.94-1.157-1.358-.178-.636-.05-1.59-.05-2.415 0-5.856.021-11.125-.151-16.805-.603.139-.928.676-1.308 1.057-.386.386-.809.735-1.157 1.157-.773.787-1.604 1.516-2.365 2.314-1.509 1.61-2.978 3.261-4.679 4.679-1.91-1.46-3.352-3.389-5.181-4.931-1.241-1.271-2.448-2.499-3.773-3.824-.395-.395-1.064-.853-1.208-1.308-.3-.952-.05-2.651-.05-3.875 0-8.996-.053-17.864-.051-26.817 1.52-1.851 3.346-3.396 5.031-5.082 1.678-1.677 3.277-3.432 5.082-4.981.979.689 1.78 1.579 2.616 2.415.411.411.832.843 1.258 1.258.427.415.746.897 1.157 1.308 1.14 1.14 2.536 2.435 3.824 3.723.35.35 1.061.949 1.157 1.308.154.574.072 1.55.05 2.314-.155 5.439.061 11.614.101 16.956.59-.022.987-.585 1.358-.956 1.938-1.938 3.856-3.967 5.938-5.887.351-.324.726-.749 1.157-1.208.249-.266.947-1.088 1.258-1.107.359-.022 1.013.761 1.358 1.107 2.019 2.019 3.987 4.159 6.088 6.088.84.771 1.549 1.706 2.566 2.315.273-1.465.15-3.14.151-4.83 0-4.86-.001-9.949 0-14.843 3.247-3.427 6.658-6.691 10.013-10.011zm-9.207 11.321c-.107 6.327.004 12.723 0 18.767 2.551 2.705 5.353 5.353 7.949 7.95.353.352.673.947 1.258.956.179-6.331.013-12.633.051-18.868-2.036-2.356-4.477-4.527-6.742-6.792-.602-.602-1.655-1.83-2.415-2.164-.064.02-.104.065-.101.151zm-40.151.05c-.089 1-.05 2.392-.05 3.673 0 7.469.05 14.198.05 21.585 0 1.223-.217 2.832.051 3.673.106.335.627.677.956 1.006 2.419 2.419 4.627 4.555 6.994 6.893.38.31.686.953 1.258.905.224-9.656-.034-19.153.05-28.88-1.312-1.604-2.904-3.005-4.477-4.579-1.068-1.068-2.275-2.247-3.422-3.371-.395-.388-.932-1.034-1.309-1.057-.071.014-.057.111-.101.152zm60.276 20.075c.032 9.595-.064 19.318.051 28.83 1.357 1.656 2.999 3.1 4.528 4.629 1.151 1.151 2.289 2.312 3.421 3.421.359.353.738.92 1.309.906.129-9.55.014-19.461 0-28.88-1.277-1.64-2.905-3.005-4.479-4.579-.695-.695-1.454-1.455-2.264-2.264-.675-.675-1.686-1.901-2.415-2.213-.072.027-.123.078-.151.15zm-40.352.101c-.107 9.582-.05 19.568 0 28.88 2.553 2.723 5.329 5.324 7.899 7.95.367.375.758.85 1.308.956.202-8.011.051-17.042.051-25.308 0-1.111.2-2.733-.051-3.623-.247-.882-1.464-1.615-2.163-2.315-.8-.8-1.487-1.569-2.264-2.264-.684-.739-1.456-1.456-2.265-2.264-.648-.648-1.621-1.748-2.415-2.163-.062.021-.101.065-.1.151z" fill-rule="evenodd"/></svg>