<svg enable-background="new 0 0 75.869 31.532" viewBox="0 0 75.869 31.532" xmlns="http://www.w3.org/2000/svg"><g clip-rule="evenodd" fill-rule="evenodd"><path d="m32.225 16.093c-1.699 3.376-3.114 6.311-4.874 9.555-.556 1.024-1.023 2.139-1.689 3.089-1.188 1.694-2.771 2.413-5.453 2.413-2.521 0-4.908-.018-7.528 0-2.889.018-5.452.152-7.674-.048-2.233-.202-3.758-1.564-4.487-3.33-.714-1.726-.483-4.827-.483-7.384.001-3.927 0-7.796 0-11.727 0-1.309-.046-2.624.097-3.812.299-2.48 2.433-5.068 5.743-4.585 2.396.35 3.856 1.961 4.344 3.909.297 1.187.192 2.742.192 4.247.001 3.677 0 7.24 0 11.1 0 .707-.003 1.526.387 1.834.607.481 2.314.193 3.281.193 1.226 0 2.482.239 3.33-.048.604-.205 1.114-1.085 1.496-1.738 2.692-4.605 5.512-9.627 8.156-14.236 1.423-2.561 2.707-5.175 6.273-5.501 2.019-.185 3.826.779 4.825 1.834.679.715 1.154 1.785 1.737 2.75 1.676 2.773 3.354 5.877 4.923 8.542 1.588 2.696 3.328 5.73 4.971 8.494.554.931 1.226 1.875 1.593 2.896.921 2.558-.252 4.878-1.786 6.033-1.438 1.082-4.199 1.316-5.983.193-1.189-.749-2.028-2.322-2.848-3.764-2.104-3.705-3.972-6.726-6.032-10.473-.325-.589-.799-1.964-1.304-1.978-.759-.024-.712 1.087-1.207 1.542z"/><path d="m57.658.457c3.271-.162 7.506 0 11.148 0 1.639 0 3.194.015 4.295.531 1.842.865 3.444 3.828 2.317 6.515-.55 1.309-1.902 2.539-3.668 2.751-1.804.216-4.185.048-6.37.048-.826 0-1.84-.104-2.22.29-.294.305-.478 1.357-.049 1.882.567.694 3.294.386 4.488.386 1.389 0 3.182-.238 4.729.145 2.498.617 4.566 3.757 2.992 6.756-.597 1.137-2.021 2.433-3.958 2.51-1.9.076-4.036 0-6.128 0-.612 0-1.672-.067-1.979.145-.502.347-.397 1.535-.387 2.365.019 1.386.013 2.702-.386 3.668-1.077 2.608-4.634 4.066-7.48 2.268-.994-.627-2.031-1.913-2.316-3.378-.305-1.566-.097-3.59-.097-5.405.001-3.578 0-7.387 0-11.003.001-2.809-.334-5.963.628-7.818.714-1.378 2.291-2.549 4.441-2.656z"/><path d="m37.437 22.994c1.908 2.035 1.322 5.594-.338 7.191-3.074 2.957-8.57.771-8.542-3.909.007-1.098.288-1.938.724-2.654.707-1.158 2.249-2.392 4.247-2.461 1.789-.062 2.902.982 3.909 1.833z"/></g></svg>