<svg enable-background="new 0 0 79.591 76.4" viewBox="0 0 79.591 76.4" xmlns="http://www.w3.org/2000/svg"><g clip-rule="evenodd" fill-rule="evenodd"><path d="m38.772.002c.041.01.05.049.1.049.182 9.877.049 19.945.049 30.148 0 .688.113 1.41 0 1.938-.113.527-.7 1.037-1.092 1.49-1.194 1.379-2.513 2.734-3.676 4.072-1.579 1.85-3.185 3.67-4.818 5.465-3.176 3.693-6.455 7.285-9.685 10.926-5.687 6.349-11.343 12.73-17.037 19.074-.437.426-.738.973-1.143 1.439-.374.43-.723 1.02-1.341 1.191-.092-8.726-.049-18.734-.049-28.011 0-1.307-.21-2.932.049-3.975.127-.508.69-1.029 1.093-1.49 1.219-1.392 2.312-2.902 3.527-4.172 4.817-5.463 9.674-10.889 14.503-16.34 6.464-7.228 12.808-14.576 19.371-21.704.036-.047.09-.077.149-.1z"/><path d="m40.957.002c.042-.01.047.02.049.049 1.783 1.662 3.152 3.736 4.818 5.514 10.416 11.885 21.152 23.838 31.639 35.91.301.348.677.764 1.043 1.191.378.443.85.947.943 1.293.286 1.051.05 2.662.05 4.021.001 9.453.054 18.894-.149 28.064-.573-.064-.879-.805-1.291-1.193-.424-.438-.803-.918-1.242-1.34-2.406-2.76-4.826-5.506-7.301-8.195-3.181-3.691-6.463-7.279-9.636-10.977-6.498-7.262-13.032-14.486-19.172-22.104-.009-10.518-.02-21.471.1-32.086.028-.069.077-.12.149-.147z"/><path d="m76.619 76.293c-24.768.273-49.308-.053-73.906-.15.009-.604.57-1.035.944-1.44.403-.437.781-.904 1.192-1.291 5.397-6.125 10.72-12.328 16.242-18.328.036-.047.09-.076.149-.1 11.318-.016 23.059.102 34.52.1.794 0 1.69-.127 2.285 0 .509.107.92.824 1.291 1.242 1.181 1.328 2.385 2.674 3.526 3.924 3.752 4.525 7.748 8.809 11.573 13.262.696.957 1.718 1.59 2.184 2.781z"/></g></svg>