<svg enable-background="new 0 0 14.291 9.48" viewBox="0 0 14.291 9.48" xmlns="http://www.w3.org/2000/svg"><path d="m5.105.013c.324-.055.67.067.888.313.081.102.148.217.192.341.058.157.036.327.032.491-.057.254-.219.465-.34.691-1.355 2.386-2.71 4.772-4.065 7.157-.133.248-.39.41-.66.467-.171.005-.35.026-.512-.044-.453-.15-.738-.679-.609-1.138.025-.109.075-.21.132-.306 1.423-2.506 2.847-5.012 4.269-7.518.146-.238.396-.413.673-.454z"/><path d="m7.028.502c.177-.306.521-.524.882-.499.495.001.938.442.938.938.024.34-.2.619-.35.904-.53.95-1.069 1.895-1.596 2.847.449.812.905 1.62 1.359 2.429.185.346.392.679.566 1.03.218.468-.039 1.075-.516 1.26-.174.084-.37.072-.557.062-.277-.058-.539-.228-.671-.484-.662-1.181-1.323-2.364-1.986-3.545-.088-.175-.215-.335-.253-.532-.081-.27.008-.559.151-.791.678-1.206 1.356-2.412 2.033-3.619z"/><path d="m9.87.245c.197-.174.466-.264.728-.242.32.025.63.217.775.507.159.289.152.659-.015.942-.424.757-.85 1.511-1.272 2.268 1.098.007 2.197.001 3.295.003.363.019.706.257.84.597.101.25.093.543-.02.788-.162.316-.493.541-.851.552-1.088-.002-2.177.002-3.265-.002.439.803.896 1.597 1.337 2.398.173.302.154.698-.035.988-.136.228-.383.37-.636.428-.179.007-.367.021-.534-.054-.228-.084-.412-.263-.522-.479-.683-1.222-1.369-2.443-2.052-3.666-.08-.13-.15-.272-.172-.424.002-.147-.021-.299.028-.441.025-.083.068-.159.108-.236.633-1.128 1.267-2.256 1.901-3.384.111-.186.194-.397.362-.543z"/></svg>