<svg enable-background="new 0 0 80.706 48.195" viewBox="0 0 80.706 48.195" xmlns="http://www.w3.org/2000/svg"><g clip-rule="evenodd" fill-rule="evenodd"><path d="m32.561.233c-.197 1.07-.589 2.109-.946 3.137-2.41 6.928-4.923 13.965-7.369 20.91-2.107 5.983-4.265 11.934-6.373 17.924-.697 1.981-1.285 3.986-2.19 5.875-5.062.053-10.582.232-15.683 0 .111-1.148.617-2.216.996-3.286.93-2.628 1.829-5.354 2.788-8.065.202-.571.284-1.106.448-1.693.202-.723.55-1.442.796-2.19.719-2.18 1.571-4.354 2.34-6.522 2.072-5.834 4.015-11.709 6.174-17.524 1.069-2.881 1.809-5.887 3.186-8.613 3.999-.134 8.245-.15 12.298-.149 1.219-.003 2.479-.158 3.535.196z"/><path d="m45.755 48.029c-4.622.034-9.354.08-14.19-.1.136-1.028.595-1.991.946-2.987.691-1.963 1.441-3.955 2.141-5.925.351-.989.54-2.049 1.145-2.888 2.101-.201 5.031.083 7.418-.1.608-.851.926-1.916 1.295-2.938.38-1.052.574-2.179.946-3.236.369-1.047.717-2.112 1.095-3.137.382-1.033.843-2.038.996-3.087-.445-.35-1.148-.199-1.742-.198-.646 0-1.296.021-1.942 0-1.206-.039-2.492.039-3.485-.149-.014-.904.465-1.699.747-2.54.559-1.662 1.155-3.313 1.743-4.979.279-.792.564-1.629.996-2.34 3.204-.148 6.754.049 9.958-.1.514-.342.558-1.015.747-1.544.571-1.598 1.217-3.292 1.842-4.978.828-2.232 1.52-4.538 2.54-6.571.652-.05 1.42-.082 1.991-.1 7.217-.23 12.078 2.308 15.384 6.223 2.551 3.053 4.362 6.643 4.382 11.899.018 5.049-1.96 8.854-4.382 11.8-1.165 1.417-2.774 2.654-4.48 3.685-1.699 1.025-3.788 1.842-5.875 2.24-4.622.883-10.37.075-15.783.498-.619.78-.887 1.825-1.245 2.788-.72 1.94-1.381 3.959-2.041 5.925-.331.98-.634 1.988-1.147 2.839zm11.152-24.845c1.903-.088 3.953.133 5.676 0 2.487-.19 4.244-2.289 4.232-4.779-.008-1.775-1.08-3.442-2.489-4.182-.89-.467-1.925-.448-3.386-.448-.84 0-1.783-.097-2.589 0-.645.076-.908 1.483-1.145 2.19-.815 2.427-1.741 4.741-2.291 7.07.581.372 1.321.18 1.992.149z"/></g></svg>