<svg enable-background="new 0 0 54.778 69.673" viewBox="0 0 54.778 69.673" xmlns="http://www.w3.org/2000/svg"><g clip-rule="evenodd" fill-rule="evenodd"><path d="m13.721.019c1.894-.121 3.734.366 5.172.895 3.783 1.39 6.522 3.945 8.204 7.409 1.118 2.302 1.603 4.985 1.095 8.056-.546 3.294-2.217 5.935-4.326 7.855-2.144 1.952-5.282 3.403-8.603 3.58-3.551.189-7.059-.897-9.448-2.635-2.355-1.714-4.127-3.978-5.171-7.011-.989-2.876-.81-6.621.349-9.448 1.357-3.313 3.62-5.791 6.91-7.31 1.71-.788 3.481-1.242 5.818-1.391z"/><path d="m54.246 69.483c-.896.224-1.848.216-2.734.149-6.354-.478-11.534-2.399-15.116-5.669-3.672-3.845-6.092-8.741-6.663-15.613-.343-4.114-.099-8.67-.1-13.027-.002-10.584.002-21.842 0-32.818 0-.642-.148-1.386.199-1.988 7.813-.282 13.408 2.637 17.304 6.563 3.989 4.021 6.553 9.357 7.359 16.359.419 3.637.248 7.471.248 11.337 0 7.657-.299 15.247-.298 23.071 0 3.926-.013 7.855-.199 11.636z"/><path d="m26.4 29.853c.382.686.145 1.488.149 2.237.05 10.242.049 21.464.05 32.022 0 .801-.021 1.604 0 2.387.021.762.098 1.563-.149 2.287-.491.345-1.184.295-1.741.299-1.823.012-3.88-.067-5.718-.199-2.367-.169-4.611-.886-6.365-1.641-3.707-1.597-6.615-4.108-8.354-7.707-.896-1.858-1.38-3.999-1.69-6.365-.621-4.739-.248-10.441-.247-15.663 0-2.009-.051-3.925-.05-5.967 0-.601-.097-1.241.198-1.79 7.878-.182 16.528-.115 23.917.1z"/></g></svg>