<svg enable-background="new 0 0 60.191 80.411" viewBox="0 0 60.191 80.411" xmlns="http://www.w3.org/2000/svg"><g clip-rule="evenodd" fill-rule="evenodd"><path d="m15.27.041c.469.838.301 2.226.289 3.322-.021 1.975-.056 4.125-.096 6.067-.769.805-1.794 1.352-2.986 1.734-.514-.23-.315-1.121-.337-1.686-.094-2.507-.096-5.743.048-8.188.458-.617 1.695-.961 2.553-1.251.125-.041.327-.063.529.002z"/><path d="m32.415 44.297c.424-.13.266-.635.289-.915.194-2.381.487-4.867.722-7.368.53-5.646.981-11.302 1.59-16.951.223-2.073.406-4.171.626-6.309.062-.607.021-1.368.529-1.782.976.056 2.769.201 3.179 1.06.372.782.151 2.715.192 3.901.047 1.346.049 2.759.049 4.045-.001 2.775.234 5.33.144 7.802-.101 2.74.193 5.391.193 7.994 0 2.008.004 3.95.096 5.827.029.596-.062 1.257.241 1.781.431-.242.423-1.08.481-1.638.856-8.177 1.685-16.156 2.648-24.319.104-.883.086-3.293.626-3.515.545-.225 1.342.508 1.878.818 1.837 1.062 3.25 2.396 4.672 3.708 2.054 1.896 3.652 3.878 5.056 6.116 2.864 4.566 4.87 10.267 4.527 17.77-.243 5.331-2.081 9.585-4.094 13.195-1.633 2.684-3.321 5.147-5.73 7.224-.755.65-1.983 1.351-2.215 2.07-.293.907-.036 2.558 0 3.612.043 1.257-.092 2.353-.048 3.516.041 1.112.096 2.183.096 3.467 0 .993.235 2.673-.096 3.468-.217.518-.675.725-1.301 1.011-.441.202-1.243.674-1.686.481-.575-.249-.337-2.314-.337-3.13 0-2.51-.096-4.412-.097-6.838 0-1.107.221-2.4-.385-3.034-.862.072-1.66.51-2.456.818-2.32.9-4.921 1.789-7.898 2.119-8.86.982-15.865-1.728-21.044-5.249-2.688-1.828-4.779-4.154-6.694-6.645-3.755-4.889-6.766-11.896-6.067-20.467.505-6.21 2.443-10.802 5.152-14.881.655-.986 1.432-1.895 2.216-2.793.251-.287.464-.732.915-.723.205.729.193 1.661.192 2.553-.001.842.092 1.887-.097 2.648-.14.567-.771 1.281-1.059 1.83-.344.657-.735 1.31-1.011 1.878-.61 1.261-1.062 2.836-1.493 4.238-.441 1.437-.954 2.972-1.155 4.623-.694 5.67.874 10.584 2.601 14.446 1.198 2.684 2.778 4.967 4.623 6.887 3.689 3.842 8.474 6.825 15.073 7.946 3.281.558 7.385.378 10.498-.434 2.18-.568 4.293-1.392 6.212-2.456.568-.315 1.405-.615 1.638-1.204.348-.879.137-2.718.048-3.853-.306-3.904-.083-8.256-.24-11.991-.113-2.682-.086-5.381-.097-7.85-.009-1.996-.113-3.9-.145-5.875-.01-.588.072-1.258-.241-1.781-.48.457-.334 1.206-.385 1.781-.17 1.901-.466 3.759-.674 5.683-.75 6.922-1.486 13.944-2.264 21.045-.077.701-.119 1.409-.338 1.781-.262.448-.858.627-1.444.867-.588.241-1.164.516-1.781.385-.461-.479-.27-1.205-.289-1.829-.146-4.62-.017-9.538-.241-14.303-.225-4.754-.119-9.52-.289-14.255-.022-.604.08-1.289-.24-1.83-.346.083-.309.558-.338.818-.89 8.107-1.477 16.029-2.312 24.271-.175 1.729-.419 4.258-.626 6.309-.076.763-.167 1.562-.481 1.782-.468.328-2.792.338-3.178-.048-.327-.328-.241-1.55-.241-2.408 0-2.66-.144-5.248-.192-7.608-.111-5.464.021-11.392-.193-17.144-.034-.929-.108-1.86-.144-2.793-.034-.908.187-1.899-.241-2.697-.421.466-.398 1.206-.434 1.83-.108 1.962-.393 4.055-.577 6.068-.247 2.68-.552 5.411-.771 8.09-.376 4.595-.87 9.29-1.445 14.062-.092.766-.026 1.622-.385 1.831-.451.261-1.344-.181-1.83-.338-.673-.217-1.309-.349-1.493-.866-.161-.453-.048-1.312-.048-2.071 0-4.745-.289-9.459-.289-14.158 0-2.781-.058-5.563-.144-8.09-.049-1.401-.024-2.742-.097-4.094-.069-1.308.215-2.662-.24-3.9-.526.373-.371 1.133-.434 1.686-.621 5.514-1.249 11.364-1.878 16.951-.362 3.207-.715 6.224-1.059 9.438-.058.535.014 1.233-.482 1.59-.753-.163-1.232-.647-1.879-1.204-.499-.431-1.252-1.063-1.444-1.638-.198-.592-.144-1.578-.144-2.456.001-9.258-.386-18.08-.385-27.643 0-2.401-.119-5.082-.144-7.512-.01-.904-.134-1.954.048-2.505.162-.492.939-.945 1.397-1.252.565-.378 1.097-.744 1.782-.723.521.441.337 1.268.337 1.879 0 4.809.28 9.755.289 14.687.005 3.087.189 6.227.289 9.391.011.36-.055.832.24 1.107.488-.346.437-1.058.481-1.589.364-4.309 1-8.572 1.396-12.906.383-4.174 1.061-8.624 1.445-12.906.154-1.72.252-2.022 1.733-2.407.6-.157 1.154-.39 1.686-.289.412.456.328 1.161.337 1.733.051 3.297.192 6.728.192 10.161 0 3.926.276 8 .289 11.991.008 2.226-.086 4.538.145 6.887.022.225-.006.62.289.722.368-.501.32-1.241.386-1.878.483-4.708.885-9.495 1.348-14.303.388-4.017.67-8.007 1.156-12.28.128-1.124.096-3.346.722-3.756.243-.158.96-.128 1.301-.145.458-.021 1.456-.142 1.782.193.262.269.153 1.211.192 1.926.112 2.082.006 4.576.096 6.501.139 2.967.192 5.758.193 8.572 0 4.399.288 8.541.288 12.906.001 1.076.08 2.144.097 3.227.003.262-.12.707.241.822zm16.902 14.303c.857-.933 1.633-1.813 2.36-2.842 2.812-3.973 4.899-9.115 4.864-15.795-.023-4.31-1.152-7.951-2.649-11.124-1.101-2.332-2.547-4.367-4.142-6.213-.497-.575-1.313-1.528-1.83-1.637-.102-.022-.199.108-.24.096-.066 9.262.146 19.142.145 28.847-.001 2.366-.052 4.918.145 7.223.06.7-.178 1.572.385 2.071.436.072.716-.357.962-.626z"/></g></svg>