<svg enable-background="new 0 0 66.669 76.179" viewBox="0 0 66.669 76.179" xmlns="http://www.w3.org/2000/svg"><path clip-rule="evenodd" d="m33.16 0c.655-.012 1.513.66 2.292 1.099.75.422 1.494.85 2.054 1.241 9.125 5.126 18.271 10.578 27.509 15.809.57.322 1.435.836 1.576 1.289.164.524.02 1.534 0 2.245-.064 2.254 0 4.867 0 7.068 0 8.818-.106 17.301-.047 26.268.004.732.152 1.761-.048 2.244-.201.485-1.352 1.016-1.958 1.338-5.004 2.655-9.729 5.516-14.566 8.214-4.867 2.715-9.512 5.485-14.471 8.311-.659.375-1.635 1.107-2.34 1.051-.504-.041-1.648-.857-2.149-1.146-3.476-2.007-6.9-3.911-10.364-5.922-2.776-1.611-5.464-3.19-8.262-4.776-1.399-.792-2.835-1.511-4.155-2.34-1.354-.851-2.762-1.563-4.107-2.388-1.344-.824-2.908-1.337-4.012-2.484-.092-4.707-.048-9.423-.048-14.279 0-1.543.118-3.097.048-4.633-.249-5.483 0-10.947 0-16.429 0-.884-.222-2.057.096-2.675.243-.473 1.312-.939 1.958-1.29 2.101-1.139 4.164-2.536 6.113-3.629 5.656-3.171 10.713-6.291 16.477-9.504 1.997-1.113 4.095-2.304 6.209-3.534.698-.41 1.495-.947 2.195-1.148zm-6.877 11.414c-5.655 3.264-11.174 6.537-16.811 9.791-.811.468-2.384 1.029-2.675 1.767-.204.521-.095 1.439-.095 2.197v4.585c0 .735-.179 1.562.239 2.102.575.061 1.092-.33 1.576-.573.488-.245.964-.549 1.433-.813 2.931-1.644 5.757-3.19 8.645-4.919 2.904-1.738 5.708-3.208 8.597-4.919.851-.504 2.35-1.056 2.627-1.91.164-.507.093-1.747.096-2.436.005-1.33-.006-2.42 0-3.965.002-.67.177-2.951-.716-2.53-.98.433-1.92 1.048-2.916 1.623zm18.482 10.555c.006-1.142-.03-2.422 0-3.82.021-1.003.251-2.938-.096-3.774-.196-.471-1.182-.964-1.767-1.289-1.476-.82-2.555-1.436-3.868-2.244-.543-.335-1.512-.965-2.054-1.004-.085-.006-.166.042-.191.096-.331.273-.239 1.866-.239 2.675 0 2.128.015 4.341.095 6.257.357.669 1.104.98 1.719 1.337 1.33.77 2.628 1.505 3.964 2.244.67.371 1.311.89 2.101 1.003.553-.405.333-.871.336-1.481zm7.069-3.439c-.589.222-.334 3.182-.334 4.107 0 2.281-.038 4.335.048 6.495.029.731.107 1.716-.048 2.197-.141.439-.818.832-1.385 1.146-1.667.925-3.381 1.9-4.872 2.77-4.447 2.594-8.622 4.929-12.99 7.45-1.434.827-3.282 1.812-4.872 2.77-.482.29-1.415.7-1.385 1.193.029.485 1.228.999 1.719 1.29 1.509.892 2.446 1.437 3.868 2.244.487.277 1.441 1.044 2.006 1.051.44.006 1.19-.486 1.767-.812 1.709-.962 3.236-1.854 4.967-2.817 5.574-3.103 10.888-6.43 16.429-9.457 1.084-.592 2.358-1.05 3.057-2.149.087-3.046.048-6.418.048-9.6 0-.979.215-2.451-.048-3.199-.183-.521-1.193-1-1.767-1.338-2.123-1.248-3.961-2.243-6.018-3.343-.061-.067-.107-.029-.19.002zm-10.937 11.128c0-.473-1.181-1.059-1.671-1.337-1.334-.758-2.661-1.497-3.916-2.197-.532-.296-1.636-1.289-2.245-1.003-1.095.514-2.208 1.215-3.296 1.862-1.092.65-2.229 1.243-3.343 1.863-4.442 2.472-8.9 5.026-13.229 7.546-1.103.642-2.188 1.311-3.295 1.91-1.096.594-2.357 1.074-3.152 2.054-.19 3.602-.029 7.581-.048 11.271-.003.583-.11 1.124.048 1.527.219.561 1.163.902 1.815 1.29 1.428.849 2.556 1.541 3.916 2.292.656.363 1.295.893 2.101.907.407-.283.316-.892.335-1.337.021-.539.01-1.136 0-1.672-.044-2.206 0-3.959 0-6.304 0-1.021-.232-2.352.047-3.2.165-.498.875-.81 1.433-1.146 3.823-2.304 7.781-4.371 11.51-6.59 3.917-2.117 7.613-4.454 11.51-6.591.354-.343 1.48-.489 1.48-1.145zm18.96 16.764c.016-.828.127-1.877-.478-1.958-.337-.045-1.244.66-1.576.859-.459.275-.972.5-1.433.765-4.854 2.78-9.18 5.224-14.089 8.024-.823.469-1.747 1.102-2.722 1.671-.649.378-2.438 1.088-2.723 1.72-.292.651-.047 2.058-.047 3.009 0 1.055.004 2.171 0 3.057-.004.895-.301 2.138.239 2.674 1.118-.098 2.034-.85 2.961-1.385 5.679-3.27 11.552-6.414 17.146-9.694.919-.54 1.962-.998 2.627-1.863.115-1.848.053-4.767.095-6.879zm-29.897 18.578c0-1.606.012-3.01.048-4.633.017-.78.119-2.335-.096-3.009-.167-.523-1.144-1.04-1.767-1.385-1.512-.838-2.611-1.547-4.012-2.293-.69-.367-1.752-1.132-2.34-.955-.363.268-.239 1.44-.239 2.149 0 1.678-.072 3.165 0 4.681.036.757-.061 1.672.144 2.148.226.526 1.218.936 1.814 1.29 1.454.864 2.609 1.491 3.964 2.292.676.4 1.342.902 2.149 1.003.419-.265.335-.832.335-1.288z" fill-rule="evenodd"/></svg>