<svg enable-background="new 0 0 76.548 77.009" viewBox="0 0 76.548 77.009" xmlns="http://www.w3.org/2000/svg"><g clip-rule="evenodd" fill-rule="evenodd"><path d="m48.587.122c.166 6.68.166 14.068 0 20.8-6.757.063-13.998.179-20.649-.05-.159-6.24-.13-13.471-.1-19.802.002-.353-.09-.806.25-1.047 6.78-.003 13.79-.091 20.499.099zm-10.076 6.784c-1.235 0-2.677-.038-3.541.05-.408.324-.25.994-.25 1.546 0 1.78-.08 3.849.1 5.387.966.259 2.222.15 3.441.15 1.22 0 2.471.096 3.442-.15.252-.953.149-2.185.149-3.392 0-1.22.11-2.479-.149-3.441-.855-.262-2.017-.15-3.192-.15z"/><path d="m48.587 28.354c.315 4.397-.132 9.376.199 13.666 1.021.269 2.166.149 3.293.15 3.348 0 6.974-.042 10.274.05.357 4.29-.016 9.278.199 13.716 1.052.271 2.231.149 3.392.149 3.398.001 7.074-.041 10.425.05.252 1.709.171 3.489.149 5.237-.059 4.85.099 10.237-.149 15.512-6.629.166-13.969.167-20.649 0-.31-4.194.106-9.276-.199-13.716-.997-.292-2.25-.136-3.393-.1-1.155.036-2.305-.12-3.291.05-.262.508-.15 1.13-.15 1.695 0 2.922.104 6.166 0 8.879-.043 1.139.088 2.235-.149 3.242-6.63-.037-13.921.111-20.599-.1-.271-1.056-.15-2.239-.15-3.392 0-3.295.099-6.902-.1-10.324-2.033-.167-4.75-.165-6.783 0-.27 1.05-.15 2.233-.15 3.392 0 3.462.033 7.172-.149 10.374-5.737.055-12.333.128-18.056.051-.818-.012-1.683.125-2.444-.15-.173-6.811-.105-13.942 0-20.65 3.232-.181 6.906-.1 10.374-.1 1.138.001 2.278.12 3.292-.149.294-4.432-.103-9.547.25-13.666 4.311-.295 9.304.093 13.617-.2.414-.971.094-2.158.149-3.342.128-2.712.05-5.637.05-8.729 0-.559-.092-1.499.15-1.645.037-.047.09-.076.149-.1 3.382 0 6.885-.001 10.325 0 3.441 0 6.893-.118 10.124.15zm-13.667 6.733c-.37.354-.249.999-.249 1.546 0 1.765-.078 3.812.1 5.337 1.576.326 3.748.096 5.537.1.494.002 1.002.166 1.396-.1.165-2.034.166-4.749 0-6.783-1.772-.307-4.979-.119-6.784-.1zm-10.324 13.916c-1.237 0-2.666-.035-3.591.05-.369.355-.25.998-.25 1.546 0 1.78-.079 3.847.1 5.387 1.991.278 4.735.104 6.833 0 .167-2.147.168-4.679 0-6.833-.846-.265-1.956-.15-3.092-.15zm13.915 0c-1.233 0-2.678-.038-3.541.05-.374.319-.292.994-.299 1.546-.023 1.695-.1 3.899.149 5.437 2.19.088 4.575.149 6.834-.05.265-.958.149-2.182.149-3.392 0-1.19.077-2.436-.1-3.441-.855-.261-2.017-.15-3.192-.15zm10.275.15c-.164 2.066-.166 4.816 0 6.883 2 .167 4.684.165 6.684 0 .262-.958.15-2.204.15-3.392 0-1.229.074-2.463-.1-3.491-1.918-.22-4.683-.132-6.734 0zm-41.548 13.816c-.059.023-.113.053-.149.1-.2.365-.202 1.859-.199 2.494.004 1.444.03 3.164.149 4.389.991.177 2.218.1 3.392.101 1.196 0 2.394.11 3.342-.15.176-1.006.1-2.251.1-3.441 0-1.209.117-2.437-.15-3.392-1.965-.232-4.355-.037-6.485-.101zm27.583.149c-.264.941-.149 2.19-.149 3.392 0 1.218-.112 2.484.149 3.441 2.133.171 4.881.168 6.834-.05.265-.938.149-2.173.149-3.342 0-1.216.076-2.431-.1-3.441-1.904-.229-4.73-.129-6.883 0zm27.831-.049c-.264.955-.149 2.205-.149 3.392 0 1.23-.076 2.466.1 3.491 2.185.187 4.607.166 6.883 0 .166-2.05.166-4.783 0-6.833-2.132-.3-4.556-.064-6.834-.05z"/></g></svg>