<svg enable-background="new 0 0 84.54 67.779" viewBox="0 0 84.54 67.779" xmlns="http://www.w3.org/2000/svg"><g clip-rule="evenodd" fill-rule="evenodd"><path d="m84.54 67.661c-5.614.161-12.18.143-18.064 0-3.06-8.31-6.14-16.682-9.104-25.145-1.722-4.917-3.508-9.744-5.299-14.692-.265-.733-.387-1.477-.626-2.216-.917-2.831-1.975-5.637-2.987-8.43-1.776-4.899-3.532-9.732-5.299-14.692-.236-.664-.448-1.39-.867-1.975-.528.547-.613 1.352-.867 2.023-1.819 4.81-3.569 9.833-5.299 14.74-1.978 5.609-4.028 11.209-6.069 16.811-3.061 8.402-6.059 16.809-9.105 25.242-1.005 2.784-1.91 5.619-3.083 8.334-6.08.163-11.967.089-17.871-.049.284-1.453.912-2.853 1.397-4.287 1.415-4.185 3.02-8.392 4.576-12.62 1.53-4.157 2.952-8.452 4.528-12.669.539-1.441 1.098-2.843 1.445-4.288.342-1.422 1.033-2.806 1.542-4.238 2.495-7.026 4.944-14.176 7.515-21.147.778-2.11 1.491-4.181 2.264-6.358.235-.663.424-1.393.915-1.927 2.881-.06 6.255.065 9.104-.048 3.044-.121 6.123.186 9.152.048 2.861-.13 5.773.001 8.719 0 3.029 0 6.091-.079 9.104.097.358.19.359.635.482.963 4.017 10.767 7.779 21.835 11.802 32.708 2.076 5.611 4.026 11.291 6.069 16.908 1.534 4.217 3.073 8.387 4.528 12.669.478 1.402 1.154 2.757 1.398 4.238z"/><path d="m41.523 23.922c3.89-.27 6.612 1.401 8.382 3.468 1.453 1.697 2.704 4.829 2.119 8.286-.128.756-.297 1.543-.529 2.215-.028.08-.062.163-.097.241-1.018 2.317-3.055 4.131-5.395 5.058-2.691 1.066-5.938.835-8.478-.481-1.548-.802-2.902-2.165-3.806-3.612-.947-1.518-1.617-3.526-1.445-5.974.171-2.443 1.291-4.421 2.505-5.877 1.22-1.463 2.792-2.642 5.202-3.179.469-.105.9-.102 1.542-.145z"/><path d="m51.687 45.357c.179 7.196.155 14.79 0 22.255-1.471.293-3.018.115-4.576.097-4.616-.056-9.7.121-14.403-.097-.235-7.009-.148-15 0-22.303 3.291-.261 7.09-.097 10.694-.097 2.862.001 5.672-.109 8.285.145z"/></g></svg>