<svg enable-background="new 0 0 183.131 74.899" viewBox="0 0 183.131 74.899" xmlns="http://www.w3.org/2000/svg"><g clip-rule="evenodd" fill-rule="evenodd"><path d="m182.674.079c.13 1.525.209 3.591.049 5.084-2.436.238-4.94.195-7.48.196-7.528.001-15.299.189-22.685 0 .336-1.736 1.044-3.518 1.711-5.085 6.114-.17 12.624-.244 18.97-.244 3.269 0 6.368-.094 9.435.049z"/><path d="m131.583 5.408c-.595.232-1.282.192-1.907.195-9.134.049-19.038.095-27.917 0-.196-1.457-.229-3.575-.049-5.084 9.151-.176 18.624-.211 27.916-.147.596.639.759 1.585 1.075 2.444.309.836.715 1.691.882 2.592z"/><path d="m90.906 5.702c-16.825.118-33.478.361-50.602.146-.156-1.462-.166-3.575 0-5.036 5.013-.126 10.241-.147 15.45-.147 2.581.001 5.216-.143 7.773-.049 2.561.094 5.167.117 7.676 0 1.143-.053 2.788-.049 4.107-.049 1.392 0 2.797-.073 4.009 0 4.592.278 8.528 2.242 11.245 4.547.151.129.494.318.342.588z"/><path d="m35.464.861c.173 1.453.123 3.607.049 4.987-2.866.352-5.84.032-8.8.147-5.926.229-11.925-.092-17.846.049-2.945.07-5.898.205-8.751-.049-.102-1.364-.2-3.543 0-5.036 11.71-.082 23.501-.311 35.348-.098z"/><path d="m182.723 9.955c.131 1.487.246 3.495.049 4.987-8.079.547-16.85-.079-25.325.293-2.139.094-4.28-.023-6.454 0-.643.006-1.309.181-1.907-.098.432-1.817 1.024-3.474 1.711-5.036 7.081-.101 14.393-.195 21.708-.195 3.519 0 6.939-.086 10.218.049z"/><path d="m133.245 10.151c.79 1.524 1.404 3.224 1.858 5.085-5.418.291-11.228.07-16.818.195-2.71.061-5.489-.131-8.263 0-1.382.065-2.775.049-4.156.049s-2.779.11-4.106-.146c-.107-1.495-.199-3.51 0-4.987.511-.251 1.071-.101 1.613-.098 3.145.017 6.49-.098 9.827-.098 6.911-.001 13.347-.056 20.045 0z"/><path d="m96.773 15.333c-.969.345-2.183.195-3.422.195-17.447.002-35.842.398-52.949.098-.188-1.45-.233-3.537-.049-5.036 8.48-.107 17.107-.195 25.814-.195 6.412 0 13.031-.098 19.263-.098 3.385 0 6.584-.098 9.778.049.502.595.787 1.446 1.076 2.249.296.823.554 1.751.489 2.738z"/><path d="m35.513 10.639c.128 1.512.211 3.556.049 5.036-5.612.353-11.585-.082-17.552.196-4.436.206-9.002-.001-13.494 0-1.448 0-2.913.112-4.302-.098-.292-1.372-.127-3.457-.098-4.987 6.632-.165 13.506-.196 20.29-.196 5.082.001 10.145-.147 15.107.049z"/><path d="m172.652 19.831c.213 1.489.209 3.489.049 5.084-6.538.292-13.419.245-20.339.245-1.143 0-2.284.049-3.422.049-1.095 0-2.224.117-3.276-.147.117-.859.432-1.736.733-2.591.297-.842.579-1.71.977-2.445 2.365-.221 4.817-.196 7.285-.195 3.548 0 7.123-.049 10.707-.049 2.574 0 4.878-.13 7.286.049z"/><path d="m138.623 25.111c-2.172.259-4.425.147-6.698.147-6.698 0-13.59.207-20.045 0-.157-1.492-.166-3.643 0-5.133 8.117-.169 16.972-.207 24.886-.098.539.645.772 1.583 1.075 2.445.303.859.703 1.759.782 2.639z"/><path d="m97.213 20.271c.141 1.671-.097 3.772-.685 5.036-1.479.32-3.058.071-4.645.146-3.462.165-7.154.048-10.609-.049-.16-1.473-.164-3.612 0-5.084 4.44-.222 8.848-.195 13.494-.195.817-.001 1.676-.116 2.445.146z"/><path d="m65.727 20.418c.161 1.474.163 3.611 0 5.085-4.753.217-10.291.217-15.107.097-.212-1.021-.071-2.255-.098-3.373-.015-.621-.176-1.255.098-1.76 4.648-.223 10.291-.215 15.107-.049z"/><path d="m25.148 20.565c.143 1.51.248 3.556.049 5.084-4.883.195-10.226.243-15.156.049-.25-1.385-.197-3.577-.049-5.036 4.015-.363 8.732.004 12.956-.196.741-.034 1.508-.046 2.2.099z"/><path d="m172.7 29.609c.125 1.523.226 3.679 0 5.084-4.668.222-9.869.17-14.667.098-.24-.836.029-2.181-.245-2.982-.683.767-.72 2.18-1.32 3.031-9.574.091-18.738.152-28.21.098-.577-.808-.68-2.09-1.271-2.884-.452.716.031 2.071-.293 2.884-4.709.13-9.971.159-14.716.049-.259-1.393-.191-3.615-.049-5.084 9.26-.226 19.103-.222 28.356-.146.932 1.154 1.025 3.147 1.956 4.302.469-.543.664-1.346.929-2.102.264-.753.426-1.583.831-2.2 9.313-.197 19.489-.266 28.699-.148z"/><path d="m94.133 30c-.34 1.225-1.165 1.964-1.857 2.836-.69.874-1.415 1.714-2.347 2.347-11.415.035-22.603.146-34.468.146-.83 0-1.681-.034-2.493 0-.772.033-1.563.188-2.298-.098-.162-1.441-.162-3.546 0-4.987 2.754-.153 5.566-.281 8.41-.146 2.823.133 5.76-.049 8.653-.049 4.229 0 8.569-.034 12.761-.098 4.613-.069 9.054-.111 13.639.049z"/><path d="m25.197 30.294c.264 1.355.186 3.554.049 4.987-1.161.306-2.445.093-3.716.147-3.676.155-7.798.066-11.44-.049-.197-1.53-.213-3.466-.049-4.987 4.681-.244 10.333-.209 15.156-.098z"/><path d="m172.7 39.485c.266 1.385.186 3.621.049 5.084-4.589.218-9.962.218-14.667.049-.116-1.595-.268-3.573 0-5.036 4.713-.157 9.858-.158 14.618-.097z"/><path d="m154.758 39.632c-.447 1.818-.973 3.558-1.711 5.084-6.947.116-14.595.213-21.17.098-.558-.663-.775-1.596-1.075-2.444-.302-.854-.703-1.698-.831-2.64 7.119-.413 15.077.099 22.343-.245.792-.038 1.719-.048 2.444.147z"/><path d="m126.694 39.73c.218 1.419.216 3.554.049 5.036-.802.265-1.695.088-2.591.098-3.854.04-8.397.155-12.173-.049-.163-1.457-.163-3.579 0-5.036 4.748-.153 9.909-.219 14.715-.049z"/><path d="m94.426 44.912c-7.278.232-14.743.206-21.903.244-6.389.034-12.747.098-19.214.098-.864 0-1.787.117-2.64-.146-.16-1.445-.163-3.542 0-4.987 5.49-.472 11.204.016 16.965-.196 4.294-.158 8.547-.098 12.956-.098 2.433 0 4.448-.049 6.894-.049.822 0 1.763-.085 2.396.049.387.082 1.023.758 1.369 1.076.91.833 1.557 1.666 2.298 2.591.338.423.829.819.879 1.418z"/><path d="m25.246 40.17c.16 1.458.163 3.578 0 5.036-4.779.241-10.14.159-15.059.098-.265-1.389-.185-3.617-.049-5.085 4.937-.149 10.065-.242 15.108-.049z"/><path d="m172.749 49.41c.251 1.464.185 3.514.049 5.085-3.565.232-7.58.173-11.099.146-1.239-.009-2.48.2-3.618-.098-.067-1.553-.219-3.52 0-5.036 4.635-.156 9.935-.248 14.668-.097z"/><path d="m151.335 49.557c-.417 1.88-1.065 3.531-1.76 5.133-4.676.073-9.434.1-14.178.049-.393-.21-.488-.723-.636-1.125-.154-.419-.332-.848-.489-1.271-.318-.856-.661-1.782-.782-2.64.561-.347 1.31-.196 1.956-.196 5.234 0 10.735-.156 15.889.05z"/><path d="m126.743 49.654c.147 1.564.194 3.603 0 5.085-4.773.153-9.969.201-14.716.049-.172-.729-.098-1.694-.098-2.592 0-.917-.14-1.835.098-2.493 4.716-.136 9.896-.237 14.716-.049z"/><path d="m96.822 49.752c.741 1.202 1.04 3.355.929 5.084-5.13.276-10.91.177-16.085.098-.179-1.471-.118-3.636-.049-5.036.914-.26 1.911-.146 2.884-.146.982 0 1.971-.049 2.982-.049 3.215 0 6.349-.06 9.339.049z"/><path d="m66.07 49.948c.204.732.098 1.643.098 2.542 0 .864.196 1.804-.098 2.494-5.047.218-10.327.165-15.303.098-.186-1.544-.218-3.449-.049-5.036.986-.241 2.185-.144 3.275-.196 3.986-.189 8.341.068 12.077.098z"/><path d="m25.295 50.094c.161 1.442.163 3.545 0 4.987-1.169.261-2.436.146-3.716.146-3.678 0-7.75.171-11.392-.049-.158-1.46-.165-3.576 0-5.036 4.452-.32 9.638-.043 14.227-.146.271-.006.622-.117.881.098z"/><path d="m182.918 59.091c.257.675.146 1.62.146 2.542 0 .887.073 1.834-.098 2.543-8.034.22-16.896.254-24.787.146-.129-1.527-.208-3.592-.049-5.084 4.422-.342 9.03.07 13.689-.146 3.707-.174 7.437-.084 11.099-.001z"/><path d="m147.864 59.335c-.384 1.816-.938 3.462-1.614 4.986-2.197.317-5.204.07-7.48.147-.463-.725-.729-1.599-1.027-2.445-.3-.852-.639-1.725-.831-2.64.432-.25 1.017-.146 1.564-.146 1.811 0 3.664-.049 5.573-.049 1.309 0 2.64-.118 3.815.147z"/><path d="m126.743 59.335c.261 1.405.189 3.65.049 5.133-3.868.154-8.143.098-12.418.098-4.246 0-8.537.199-12.37-.049-.098-1.517-.282-3.67 0-5.084 8.191-.169 16.591-.176 24.739-.098z"/><path d="m97.115 59.482c-.2 1.985-.691 4.099-1.956 5.182-18.277.041-36.693.353-54.562.147-.129-1.524-.208-3.595-.049-5.085.876-.264 1.833-.146 2.738-.146 10.033.001 20.733-.098 30.997-.098 1.887 0 3.834.065 5.72 0 5.726-.199 11.405-.063 17.112 0z"/><path d="m35.708 59.726c.162 1.473.162 3.612 0 5.085-5.873.003-11.87.344-17.747.147-5.879-.197-11.823.321-17.552-.049-.128-1.511-.212-3.556-.049-5.036 3.635-.239 7.344-.147 11.099-.147 8.052 0 16.279-.248 24.249 0z"/><path d="m182.967 69.064c.163 1.472.245 3.529.049 5.036-4.059.271-8.254.114-12.369.196-4.17.082-8.302.082-12.418-.049-.256-.675-.147-1.628-.147-2.542 0-.887-.104-1.81.049-2.494.661-.259 1.398-.146 2.103-.146 3.596 0 7.341-.049 10.951-.049 3.99-.001 7.906-.124 11.782.048z"/><path d="m144.442 69.211c-.025.926-.433 1.879-.733 2.787-.143.431-.333.877-.489 1.32-.135.384-.172 1.011-.684 1.076-.515-.035-.642-.678-.783-1.076-.155-.441-.29-.946-.439-1.369-.317-.896-.843-1.857-.734-2.738 1.179-.078 2.682-.084 3.862 0z"/><path d="m126.792 69.309c.19 1.444.233 3.541.049 5.036-.798.259-1.66.146-2.493.146-5.97 0-12.051.001-18.041.049-1.441.012-2.924.169-4.302-.098-.156-1.462-.166-3.575 0-5.036 8.2-.138 16.527-.273 24.787-.097z"/><path d="m91.493 69.406c-.046.501-.576.835-.929 1.125-1.149.94-2.588 1.764-4.058 2.395-2.02.868-4.244 1.612-6.845 1.76-3.266.186-6.588-.067-9.925.049-3.244.112-6.552.049-9.778.049-6.526 0-13.012.062-19.312-.049-.264-1.404-.187-3.652-.049-5.134 12.152-.054 24.623-.195 37.01-.195 4.671 0 9.196-.118 13.886 0z"/><path d="m35.708 69.651c.266 1.388.185 3.619.049 5.085-11.528.177-23.754.211-35.299.098-.185-1.484-.229-3.482-.049-5.084 3.468-.165 7.071-.098 10.707-.098 8.191-.001 16.603-.251 24.592-.001z"/></g></svg>