<svg enable-background="new 0 0 80.531 70.74" viewBox="0 0 80.531 70.74" xmlns="http://www.w3.org/2000/svg"><path clip-rule="evenodd" d="m.244.583c.364-.146 1.332-.205 1.618.052.23 1.13.103 2.322.157 3.497.057 1.212-.057 2.424 0 3.652.338 7.436-.323 15.003.156 22.077 1.03.372 2.281.209 3.497.209 3.594 0 7.544.057 10.96-.157.281-1.166.156-2.394.156-3.601 0-7.25-.051-14.507-.053-22.181 0-1.203-.124-2.407.157-3.549.961-.281 2.082-.157 3.183-.157 3.323 0 6.863-.392 8.978.939 3.139 1.977 5.214 7.311 2.453 11.378-1.088 1.601-2.74 2.868-5.011 3.235-2.24.362-4.9.168-7.725.418-.318.433-.208 1.054-.208 1.617-.001 2.925-.052 5.495-.053 8.611 0 .885-.153 2.865.261 3.236.309.275 1.681.157 2.506.156 5.81-.002 12.33-.024 17.797-.208.281-1.162.156-2.382.156-3.601.001-7.308-.053-14.674-.052-22.181 0-1.192-.127-2.407.156-3.549 1.405-.288 2.876-.149 4.279-.156 1.536-.009 3.019-.085 4.384-.053 2.679.063 4.693 1.252 5.846 3.027 1.237 1.905 1.974 4.443 1.305 6.94-.566 2.114-2.024 4.076-3.914 4.959-.677.315-1.573.269-2.088.834.254.789.982 1.243 1.514 1.775.548.548 1.062 1.129 1.67 1.617 2.729 3.014 5.767 5.716 8.664 8.611.403.403.757 1.025 1.409 1.044.502-.658.457-1.562.574-2.349.863-5.842 1.962-11.398 4.384-15.761 1.331-2.398 2.814-4.732 4.801-6.732.896-.901 2.033-1.786 3.236-2.558 1.13-.726 2.922-1.48 4.279-1.671 1.073-.149.665 2.015.679 2.924.124 8.167.104 16.088.104 23.955 0 2.374.158 4.663 0 6.993-.434 6.368-2.347 11.561-4.802 16.074-.784 1.443-1.755 2.923-2.766 4.228-1.034 1.334-1.974 2.701-3.079 3.862-2.273 2.386-4.808 4.379-7.673 6.263-5.697 3.747-12.643 6.172-21.449 6.419-4.446.125-8.729-.532-12.265-1.67-10.43-3.354-18.368-9.645-23.277-18.527-2.525-4.568-4.453-9.484-4.958-15.97-.167-2.146-.105-4.408-.105-6.733 0-8.008-.051-15.771-.053-24.007.003-1.058-.158-2.187.212-3.231zm49.111 13.255c1.329-.4 2.632-1.356 3.236-2.4 1.852-3.205.407-7.472-2.453-8.769-.815-.369-1.983-.605-3.132-.574-1.719.048-3.978-.083-5.532.261-.189 2.72-.103 6.008-.104 8.873 0 .997-.14 2.002.209 2.818 2.778.028 5.658.429 7.776-.209zm-25.104.679c3.012-.188 5.284-1.594 6.211-3.915.979-2.45-.016-5.319-1.67-6.837-.907-.831-2.074-1.393-3.654-1.513-1.613-.123-3.638-.026-5.323.052-.473.021-.909-.081-1.2.209-.31 1.794-.117 3.902-.156 5.898-.041 2.054-.083 4.124.261 5.845 1.573.363 3.762.371 5.531.261zm53.339-11.848c-2.273.836-4.025 2.704-5.637 4.593-1.192 1.396-2.104 3.093-2.923 4.749-.289.586-.733 1.179-.626 1.827.364.352 1.133.188 1.67.209 1.339.054 2.79 0 4.228 0 1.439 0 2.882.099 4.07-.209.404-.758.166-1.724.156-2.661-.019-1.89-.052-3.898-.052-5.794 0-.965.188-1.996-.261-2.714-.261-.079-.455-.062-.625 0zm-3.758 13.153c-2.1-.001-4.476-.033-6.264.156-.71.736-.903 1.886-1.2 2.923-.316 1.108-.512 2.262-.73 3.444-.432 2.337-1.008 4.84-.887 7.255.967.379 2.137.225 3.287.209 2.306-.033 4.724 0 7.099 0 1.211-.001 2.417.116 3.496-.157.308-2.033.104-4.386.104-6.732 0-1.17 0-2.367 0-3.549 0-1.158.125-2.357-.156-3.393-1.423-.281-3.083-.156-4.749-.156zm-15.24 12.421c-3.005-3.007-5.985-6.004-9.028-8.924-1.136-1.161-2.094-2.499-3.549-3.341-1.501.231-2.897-.34-4.123.052-.602.192-.498.719-.471 1.462.104 2.776 0 5.989 0 8.82 0 1.271-.112 2.505.157 3.444.678.272 1.467.161 2.192.156 4.625-.024 9.069-.051 13.674-.052.739 0 1.551.124 2.244-.156-.118-.636-.678-1.043-1.096-1.461zm5.95 3.497c-.452.351-.354 1.001-.418 1.513-.505 4.064-1.112 8.221-1.879 11.899.734.7 1.784.847 2.714 1.253 2.321 1.015 4.435 2.14 6.576 3.341.411.229.968.646 1.409.573.473-.077 1.017-1.182 1.305-1.722.401-.752.734-1.423.992-2.036 1.771-4.223 3.47-9.055 3.235-14.77-4.46-.233-9.521-.062-13.934-.051zm-9.759 0c-2.477 0-5.318-.149-7.567.052-1.886.169-3.891-.254-5.637.156-.295 1.366-.104 3.005-.104 4.646 0 1.648-.124 3.425.157 4.854 1.674.376 3.372.158 5.01.365 3.987.505 7.841 1.154 11.325 2.192.697.208 1.397.567 2.14.47.601-.745.681-1.812.888-2.818.212-1.035.357-2.14.521-3.236.324-2.163.789-4.444.679-6.575-2.412-.192-4.906-.106-7.412-.106zm-18.162.104c-3.452 0-6.858-.001-10.49 0-1.263 0-2.526.052-3.758.052-1.244 0-2.493-.124-3.653.156-.318 1.111-.117 2.312-.104 3.497.026 2.465.48 4.601.888 6.576.209 1.013.243 2.155.991 2.766 2.848-.708 5.672-1.64 8.768-2.244 1.554-.303 3.194-.397 4.854-.678 1.721-.292 3.456-.116 5.01-.522.269-1.417.156-3.068.157-4.697 0-1.615-.018-3.305-.157-4.802-.76-.266-1.646-.105-2.506-.104zm-23.747.104c-3.463 0-7.252-.087-10.647.104-.2.729-.195 1.727-.156 2.662.132 3.14.953 6.249 1.983 8.977.746 1.977 1.602 3.813 2.609 5.584.332.584.675 1.526 1.2 1.566.323.024.909-.403 1.305-.627 2.203-1.243 4.279-2.392 6.523-3.34.924-.39 1.911-.653 2.662-1.305-.766-3.004-1.342-6.324-1.514-9.968-.057-1.203.007-2.435-.313-3.55-1.102-.334-2.39-.103-3.652-.103zm31.993 22.703c2.153.383 4.039.993 5.845 1.879.573.281 2.132 1.24 2.662 1.148.444-.077.745-.617 1.096-1.044 1.02-1.238 1.877-2.642 2.558-3.967.483-.94.95-1.734 1.461-2.87.246-.547 1.32-2.456 1.044-3.184-.146-.388-1.109-.608-1.774-.783-4.248-1.116-8.262-2.099-13.204-2.296-.831-.033-1.716-.166-2.505-.104-.837.065-.574 1.473-.574 2.505 0 1.088.035 1.938.053 2.662.055 2.3-.202 3.97.052 5.479 1.023.498 2.185.38 3.286.575zm-7.254-11.116c-5.518.258-10.64 1.159-14.927 2.609-.593.2-1.298.357-1.67.888.201 1.179.732 2.185 1.2 3.131.972 1.966 1.996 3.733 3.184 5.479.34.502 1.399 2.213 2.088 2.245.396.018 1.288-.617 1.722-.836 2.277-1.145 4.836-2.111 7.776-2.505.715-.095 1.516-.038 2.192-.417.22-2.226.104-4.698.104-7.046 0-1.216.119-2.429-.157-3.497-.436-.219-1.06-.073-1.512-.051zm21.032 18.683c.345.377.627.926 1.2 1.044 1.119-.365 2.152-1.103 3.132-1.826 1.943-1.438 3.745-2.952 5.375-4.646.835-.866 1.721-1.746 2.349-2.661.158-.23.289-.597.522-.939.206-.304.553-.616.521-.939-.054-.553-1.597-1.27-2.14-1.566-1.809-.988-3.147-1.589-5.011-2.4-.827-.36-2.153-1.071-2.975-.835-.343.247-.494.995-.73 1.514-1.218 2.674-2.449 5.026-3.914 7.255-.602.914-1.325 1.705-1.774 2.714 1.09 1.176 2.391 2.136 3.445 3.285zm-40.187-14.509c-2.318.676-5.166 2.208-7.463 3.497-.654.367-2.052.964-2.088 1.565-.037.611.814 1.317 1.148 1.723.495.602.78 1.142 1.305 1.565 1.952 2.233 4.371 4.211 6.889 6.002.518.368 2.015 1.616 2.818 1.514.391-.05.899-.704 1.2-1.044.76-.854 1.413-1.511 2.297-2.244.331-.275 1.049-.777 1.044-1.252-.006-.507-.663-.916-.939-1.306-1.942-2.732-3.579-5.404-4.959-8.663-.21-.498-.366-1.296-.991-1.357 0-.028-.042-.06-.052 0-.065.015-.144-.018-.209 0zm31.523 10.439c-2.292-1.04-4.92-1.835-8.089-1.931-.062.024-.118.056-.156.104-.276.148-.264 1.471-.262 1.982.01 2.234.053 5.1.053 7.411 0 .836-.16 1.722.209 2.349.613.067 1.129-.383 1.565-.679.479-.325.935-.697 1.356-1.044 2.114-1.455 3.966-3.173 5.688-4.958.584-.604 1.34-1.122 1.67-1.931-.502-.618-1.287-.964-2.034-1.303zm-12.108-1.879c-1.078.084-2.478.338-3.602.626-1.005.258-2.094.768-2.975 1.148-.496.214-2.553.943-2.558 1.618-.002.35.721.975 1.044 1.305 2.006 2.047 3.963 3.97 6.315 5.428.945.586 1.814 1.43 3.026 1.67.347-.667.159-1.45.157-2.192-.009-3.079.176-6.486-.104-9.446-.218-.211-.857-.192-1.303-.157zm16.075 4.384c-.562-.121-1.179.956-1.514 1.305-.907.944-2.236 2.05-3.027 2.818-1.066.882-2.152 1.757-3.235 2.558-.361.267-.874.481-1.044.939 1.058.216 2.116-.132 3.079-.366 3.057-.742 5.818-1.54 8.351-2.714.312-.429 1.2-.31 1.253-.887.06-.661-1.524-1.632-1.723-2.035-.684-.418-1.344-1.446-2.14-1.618zm-20.511 5.897c-1.455-1.188-3.409-2.834-4.905-4.332-.508-.508-1.176-1.711-1.88-1.305-1.389.802-2.85 2.287-3.652 3.653.66.77 1.777 1.013 2.766 1.409 2.479.995 5.202 1.855 8.194 2.297.554.082 1.226.354 1.773.052-.612-.744-1.513-1.199-2.296-1.774z" fill-rule="evenodd"/></svg>