<svg enable-background="new 0 0 50.117 75.953" viewBox="0 0 50.117 75.953" xmlns="http://www.w3.org/2000/svg"><g clip-rule="evenodd" fill-rule="evenodd"><path d="m5.115.035c2.494-.268 4.408 1.049 5.358 2.631 2.083 3.467-.517 7.529-3.507 8.33-1.361.363-3.006-.029-4.092-.635-1.555-.863-2.874-2.481-2.874-4.822 0-1.027.607-2.451.876-2.873.79-1.237 2.377-2.432 4.239-2.631z"/><path d="m9.401 13.138c.214 5.412.047 11.76.098 17.146.029 3.072.513 4.855 2.046 6.576 1.311 1.473 3.101 2.781 5.846 2.777.265-1.109.146-2.301.146-3.41 0-1.215 0-2.4 0-3.557 0-5.774 2.159-9.66 5.115-12.615.582-.582 1.199-1.242 1.802-1.705 2.621-2.014 6.899-3.18 11.302-2.68 4.167.473 7.217 2.328 9.548 4.627 2.347 2.467 4.115 5.396 4.676 9.5.62 4.533-.945 8.402-2.874 11.105-1.912 2.682-4.729 4.856-8.135 6.041-3.536 1.231-8.387.74-13.055.975-.227 8.441-.049 16.25-.049 24.502 0 1.148.115 2.309-.146 3.41-2.412.166-5.478.156-7.891 0-.261-1.098-.146-2.256-.146-3.41 0-8.197.027-16.541-.146-24.551-3.896-.371-7.033-1.465-9.499-3.312-3.548-2.658-6.43-6.625-6.43-12.812 0-4.088-.032-8.619 0-12.566.017-2.031-.188-4.039.097-5.992 2.388-.131 5.302-.246 7.695-.049zm28.157 25.721c1.702-.924 3.518-2.746 4.043-4.725 1.149-4.338-1.222-7.822-4.092-9.451-1.389-.789-3.107-1.277-4.92-.926-2.684.521-4.961 2.141-6.041 4.287-.821 1.633-.682 3.861-.682 6.381 0 .924.005 1.828 0 2.729-.006.902-.211 1.838.097 2.631 4.178.152 8.834.574 11.595-.926z"/></g></svg>