<svg enable-background="new 0 0 84.09 34.981" viewBox="0 0 84.09 34.981" xmlns="http://www.w3.org/2000/svg"><g clip-rule="evenodd" fill-rule="evenodd"><path d="m10.184.148c.163 3.098.163 6.873 0 9.972-1.755.256-3.885.099-5.993.098-1.387 0-2.804.115-4.028-.147-.176-2.146-.099-5.086-.099-7.663 0-.717-.083-2.042.197-2.31.036-.045.089-.074.147-.098 3.281.027 6.669-.053 9.776.148z"/><path d="m42.949.295c.292 3.098-.096 6.875.196 9.973 1.173.246 2.4.111 3.636.098 3.637-.038 7.584.099 11.494.099 5.17 0 10.391.087 15.376.196.179 3.772.098 7.981.098 11.986 0 1.318-.118 2.631.147 3.831 3.262.287 6.662-.02 10.021.246.244 1.19.147 2.657.147 4.077-.001 1.413.115 2.907-.147 4.126-17.182.182-34.92-.148-52.562-.147-9.395.001-19.174-.147-28.737-.147-.82 0-1.7.114-2.505-.147-.18-7.17-.134-14.967.049-22.253 3.128-.177 6.82-.077 9.972.049.312.786.106 1.649.099 2.506-.038 4.8 0 10.48 0 15.767 0 .834-.116 1.718.148 2.506 9.762.241 20.832.241 30.898.196.266-1.156.147-2.507.147-3.881 0-9.14.143-18.139-.05-27.46-1.538-.265-3.366-.147-5.108-.147-1.755 0-3.523-.183-5.108.049-.262.722-.148 1.576-.148 2.407 0 2.435.081 5.245-.098 7.565-4.958.216-10.112.049-15.13.049-1.69 0-3.375.118-4.961-.146-.079-.35-.079-.979 0-1.327.041.01.046-.019.049-.049 5.921-.253 12.526.178 18.471-.099.25-2.259.147-5.095.147-7.663 0-.815-.152-1.71.197-2.357 4.42-.094 8.976-.005 13.262.097zm18.469 17.684c-5.112 0-10.152-.099-15.424-.098-.826 0-2.022-.183-2.604 0-.57.177-.355 1.495-.246 2.112 6.815.148 14.108.242 20.729.098.151-.466.164-1.502 0-1.965-.763-.254-1.608-.147-2.455-.147zm-2.602 8.155c-1.856-.088-3.972-.074-5.453 0-.237.426-.2 1.567-.049 2.064.773.259 1.68.147 2.554.147 2.713 0 5.537.129 8.007-.05.159-.493.151-1.519 0-2.014-1.485-.328-3.27-.062-5.059-.147z"/><path d="m30.815 22.597c.143.312.155 1.066 0 1.376-1.528.178-3.31.099-5.01.099-1.731 0-3.436.026-4.863-.147-.139-.332-.204-1.231.099-1.425 3.076-.026 6.624-.076 9.774.097z"/></g></svg>