<svg enable-background="new 0 0 81.324 54.404" viewBox="0 0 81.324 54.404" xmlns="http://www.w3.org/2000/svg"><g clip-rule="evenodd" fill-rule="evenodd"><path d="m.215 25.826c-.288-1.993-.102-4.138-.102-6.315 0-5.401 0-11.029 0-16.502 0-.539-.023-1.101 0-1.63.018-.447-.059-1.007.254-1.375 21.117-.033 43.291.153 64.988.152 1.985 0 3.934-.075 5.602.306 3.093.707 5.54 2.267 7.386 4.482 1.709 2.051 3.199 5.199 2.954 8.76-.25 3.621-1.539 6.234-3.565 8.302-1.96 2-4.504 3.668-7.844 4.023-1.841.196-3.686-.007-5.602.051-1.859.057-3.756.001-5.705 0-3.872 0-7.838.177-11.714 0-7.817-.354-15.766.213-23.428-.102-1.912-.078-3.886 0-5.857 0-5.774.001-11.793-.027-17.367-.152zm34.684-19.863c-2.32 1.522-4.132 4.122-3.871 7.844.337 4.814 4.783 8.25 9.728 7.741 3.324-.342 5.67-2.22 6.926-4.839.557-1.159.931-2.629.815-4.227-.102-1.407-.751-3.025-1.426-4.075-1.35-2.1-4.315-3.975-7.588-3.819-1.815.086-3.385.589-4.584 1.375z"/><path d="m31.69 28.322c.347.992.074 2.051.102 3.106.195 7.26-.092 15.433-.152 22.715-5.162.229-10.521.052-15.84.052-4.011-.001-8.059-.053-11.867-.052-1.283.001-2.58.12-3.819-.152-.22-7.633-.051-15.094-.051-22.665 0-1.043-.123-2.113.153-3.107 2.145-.197 5.727-.079 8.047-.101 7.55-.073 15.708.124 23.427.204z"/><path d="m79.922 54.246c-4.983.282-10.463.101-15.992.102-5.526.001-11.124.1-16.298-.152-.23-7.541-.051-15.227-.051-22.817 0-1.023-.159-2.117.204-3.056 4.712-.058 9.8-.001 14.719 0 2.669 0 4.956-.194 7.079.203 3.856.721 6.732 3.063 8.557 5.959.953 1.512 1.723 3.448 1.885 5.348.204 2.4 0 4.869 0 7.283-.001 2.341-.057 4.677-.103 7.13z"/></g></svg>