<svg enable-background="new 0 0 40.395 78.588" viewBox="0 0 40.395 78.588" xmlns="http://www.w3.org/2000/svg"><g clip-rule="evenodd" fill-rule="evenodd"><path d="m21.365 0c.568.069 1.811.919 2.518 1.333 2.447 1.436 4.614 2.662 7.108 4.147 2.271 1.351 4.581 2.819 7.009 4.245.657.386 2.04 1.013 2.222 1.53.254.724.017 2.294.049 3.159.078 2.069.049 4.159.049 6.27 0 1.034.138 2.075-.247 2.912-.899-.253-1.717-.761-2.518-1.233-2.314-1.366-4.565-2.784-7.01-4.196-2.292-1.323-4.666-2.737-7.108-4.146-.649-.374-1.985-.936-2.221-1.48-.245-.564-.099-1.96-.099-2.963 0-.929 0-2.117 0-3.061 0-2.579-.018-4.522.099-6.367.028-.073.078-.123.149-.15z"/><path d="m.237 23.448c-.269-.952-.148-1.976-.148-3.012 0-2.087.001-4.055 0-6.318 0-.985-.229-2.33.05-3.011.232-.568 1.579-1.105 2.221-1.481 2.353-1.376 4.813-2.597 7.059-3.949 3.064-1.846 6.242-3.68 9.28-5.381.946-.529.642 1.891.642 2.716v6.417c0 1 .161 2.461-.099 3.11-.228.57-1.573 1.155-2.221 1.529-4.788 2.771-9.582 5.405-14.315 8.146-.746.431-1.477.979-2.469 1.234z"/><path d="m37.606 27.052c-1.588-.575-2.858-1.692-4.295-2.518-2.878-1.653-5.741-3.323-8.639-4.986-.715-.41-1.46-.785-2.172-1.233-.695-.438-1.427-.941-2.271-1.086-.855.254-1.607.715-2.32 1.135-4.567 2.693-9.633 5.221-14.267 8.047-.326.198-.827.531-1.135.543-.488.018-2.356-.951-2.369-1.481-.015-.6 1.678-1.335 2.27-1.678 2.45-1.42 5.301-2.943 7.553-4.295 2.554-1.533 4.991-2.797 7.553-4.295.785-.459 1.771-1.115 2.616-1.333.136-.034.084-.023.198 0 .818.165 1.797.852 2.616 1.333 2.52 1.477 4.893 2.837 7.404 4.344 1.698 1.018 3.349 1.735 4.936 2.913.991.734 2.446 1.499 3.653 2.221.415.249 1.071.528 1.086.84.017.391-.74.757-1.037.938-.488.297-.849.559-1.38.591z"/><path d="m21.463 19.351h.099c3.933 2.308 7.993 4.428 11.897 6.763.766.459 1.459 1.025 2.221 1.481 1.555.931 3.216 1.691 4.591 2.863.132 10.602.099 21.624.099 32.53 0 .676.116 1.391-.149 2.024-.957-.201-1.729-.823-2.518-1.283-3.943-2.305-7.631-4.69-11.798-7.01-.754-.42-1.552-.857-2.37-1.383-.656-.421-2.012-.932-2.221-1.53-.169-.479-.115-1.339-.149-2.073-.09-1.981.144-4.479.05-6.467-.127-2.682-.107-5.948 0-8.54.114-2.783-.049-5.748-.05-8.687 0-1.998.001-4.28 0-6.517 0-.556-.097-1.896.149-2.073.038-.046.091-.074.149-.098z"/><path d="m.286 64.864c-.257-2.776-.148-5.667-.148-8.589 0-5.858.093-11.653 0-17.426-.032-1.945-.049-4.07-.05-6.368 0-.794-.1-1.647.05-2.122.197-.625 1.483-1.124 2.172-1.53 4.001-2.358 7.718-4.53 11.699-6.764 1.037-.581 2.407-1.297 3.554-1.974.391-.231 1.062-.683 1.382-.691.34-.01.37.109.395.74.104 2.687.049 4.678.049 7.404v17.771c0 1.271-.011 3.15.049 4.442.063 1.354.215 3.475-.148 4.295-.264.595-1.606 1.119-2.271 1.481-2.588 1.409-4.387 2.548-7.108 4.097-2.325 1.421-4.795 2.676-7.207 4.048-.778.445-1.503 1.063-2.418 1.186z"/><path d="m20.18 55.288c.909-.194 2.154.852 2.814 1.234 2.513 1.451 5.117 3.002 7.503 4.393 2.877 1.678 5.784 3.443 8.639 5.233.441.276 1.074.56 1.086.888.012.334-.683.744-1.037.938-1.196.658-2.755 1.49-3.752 2.172-.809.554-1.738.88-2.567 1.382-3.648 2.209-7.396 4.241-11.255 6.418-.424.239-.955.636-1.283.642-.604.01-2.031-1.119-2.567-1.432-5.122-2.981-9.907-5.757-15.155-8.737-.39-.222-.823-.483-1.234-.741-.267-.166-1.07-.604-1.086-.888-.02-.358.703-.665 1.086-.889 4.564-2.668 9.188-5.154 13.674-7.8.79-.466 1.661-.914 2.518-1.382.843-.46 1.747-1.245 2.616-1.431z"/></g></svg>