<svg enable-background="new 0 0 72.998 73.992" viewBox="0 0 72.998 73.992" xmlns="http://www.w3.org/2000/svg"><g clip-rule="evenodd" fill-rule="evenodd"><path d="m14.253 3.675c1.726-2.076 3.902-3.92 7.88-3.648 2.959.202 5.151 1.799 6.518 3.843 1.29 1.928 2.242 5.128 1.119 8.27-1.11 3.105-4.011 5.61-7.589 5.886-3.532.272-6.673-1.714-7.977-3.892-.202-.337-.344-.788-.535-1.167-.492-.978-.96-2.527-.973-3.989-.018-2.096.801-3.755 1.557-5.303z"/><path d="m61.341 20.993c-.138 1.688-.575 3.333-.925 4.962-1.048 4.889-2.237 9.74-3.162 14.788.462.175.904-.147 1.313-.292 1.25-.443 2.819-.808 4.427-.876 2.137-.09 4.176.474 5.644 1.411 2.667 1.703 4.631 5.172 4.329 9.778-.413 6.31-3.369 11.042-6.664 14.642-3.401 3.715-7.278 6.568-13.086 8.124-4.055 1.086-8.665.211-11.091-2.092-1.255-1.191-2.31-2.451-2.87-4.232-.547-1.739-.826-4.019-.487-6.324.584-3.966 1.644-7.882 2.481-11.675.87-3.94 1.736-7.791 2.53-11.626.8-3.867 1.829-7.641 2.432-11.724-.689-.291-2.152-.248-2.967-.097-.499.759-.564 1.848-.778 2.87-1.43 6.828-3.205 13.773-4.67 20.674-.837 3.945-1.739 7.901-2.675 11.82-.708 2.965-1.274 5.942-1.995 8.902-.23.947-.327 1.942-.778 2.821-3.55.066-7.395.066-10.848.097-1.151.011-2.297.032-3.308-.146.281-1.978.725-3.934 1.167-5.886 1.321-5.824 2.534-11.709 3.843-17.561.872-3.899 1.721-7.809 2.529-11.724.807-3.906 1.873-7.767 2.432-11.724-.873-.344-2.31-.107-3.405-.097-.442.893-.573 1.914-.778 2.87-2.321 10.782-4.831 21.687-7.248 32.446-.884 3.934-1.637 7.888-2.725 11.724-4.45.122-9.678.204-14.008-.047.283-2.202.889-4.339 1.313-6.519 1.259-6.457 2.982-12.872 4.281-19.36.869-4.341 1.875-8.652 2.821-12.988.939-4.303 1.776-8.644 2.87-12.891 11.769-.094 23.799-.146 35.998-.146 4.048 0 8.147.186 12.161 0 .544-.025 1.421-.18 1.897.098zm-5.351 25.732c-.689 2.827-1.36 5.784-1.994 8.562-.231 1.013-.314 2.018-.486 3.064-.292 1.772-.846 3.52-1.216 5.302-.376 1.809-.862 3.602-1.07 5.399 1.27.094 2.684-.489 3.794-.876.896-3.741 1.785-7.64 2.578-11.529.691-3.388 1.531-6.805 2.189-10.167.079-.406.394-.971.048-1.362-1.393.426-2.648.987-3.843 1.607z"/></g></svg>