<svg enable-background="new 0 0 79.492 83.785" viewBox="0 0 79.492 83.785" xmlns="http://www.w3.org/2000/svg"><path clip-rule="evenodd" d="m79.38.129c.01.042.052.052.052.104.093 10.58.052 21.184.052 31.337 0 16.466.037 34.746-.052 51.953-.046.023-.093.045-.104.104-12.766.279-26.103.104-39.211.104-13.33-.001-26.681.087-39.936-.104-.275-.811-.156-1.697-.156-2.538.001-26.619.054-51.671.052-78.163 0-1.083-.175-2.397.259-2.9 25.785-.053 53.733-.029 79.044.103zm-59.567 4.092c-1.842-.078-3.762-.018-5.646 0-3.295.032-6.695-.002-9.945.155-.176 5.03-.052 10.204-.052 15.436 0 .713-.117 1.465.155 2.124 5.192.159 10.802.112 15.798.052 1.761-.021 3.489.153 5.128-.155.2-4.183.155-8.817.155-13.157 0-1.465.124-2.944-.155-4.299-1.746-.219-3.58-.078-5.438-.156zm37.449.052c-.847 0-1.737-.082-2.538 0-.852.087-.725.529-.725 1.398v5.076c0 4.623-.26 9-.052 13.467.104 2.247 0 4.473 0 6.682v20.253c0 2.279-.101 4.684.155 6.526 6.854.169 14.167.17 21.082 0 .275-1.021.156-2.113.156-3.16 0-16.918.091-33.662-.104-50.088-5.855-.207-11.83-.154-17.974-.154zm-38.797 21.806c-4.672-.025-9.418-.092-14.141.104-.279 1.061-.155 2.191-.155 3.264 0 15.66.051 31.306.052 46.773 0 1.076-.149 2.165.104 3.211 5.034.189 10.59.104 15.747.104 1.745 0 3.498.126 5.128-.155.316-2.115.127-4.302.155-6.475.144-10.966 0-22.279 0-33.513 0-3.367 0-6.656 0-9.997 0-1.066.191-2.169-.104-3.212-2.2-.239-4.475-.091-6.786-.104zm26.676 0c-3.445 0-6.951 0-10.359 0-1.54 0-3.588-.309-5.128-.052-.742.124-.57.867-.57 1.709 0 3.455.018 6.547 0 9.997-.036 6.703-.155 13.481.103 19.838.778.273 1.661.155 2.486.155 6.155 0 12.653.05 18.492-.052.172-10.271.172-21.224 0-31.441-1.629-.278-3.319-.154-5.024-.154z" fill-rule="evenodd"/></svg>