<svg enable-background="new 0 0 72.737 42.121" viewBox="0 0 72.737 42.121" xmlns="http://www.w3.org/2000/svg"><g clip-rule="evenodd" fill-rule="evenodd"><path d="m72.737.148c-.11.831-.699 1.48-1.073 2.195-2.241 4.281-4.795 8.517-7.172 12.781-.399.718-.861 1.435-1.171 2.147-.107.247-.131.535-.243.78-.637 1.384-1.585 2.66-2.342 4.001-.76 1.345-1.401 2.755-2.342 3.952-.583-.31-.775-.995-1.073-1.513-1.517-2.635-3.193-5.31-4.732-8.049-2.715-4.835-5.58-9.718-8.391-14.586-.316-.548-.703-1.075-.829-1.707.11-.084.272-.118.487-.097 8.404-.014 16.865-.03 25.319-.049 1.19-.004 2.391-.021 3.562.145z"/><path d="m25.758.099c4.986-.064 9.857-.069 14.83 0 .564.393.835 1.084 1.171 1.659 1.019 1.736 2.051 3.514 3.073 5.318 2.716 4.784 5.354 9.413 8.099 14.293.941 1.674 2.027 3.476 3.073 5.317.302.53.956 1.342.976 1.805.022.51-.609 1.24-.878 1.707-2.035 3.542-3.973 7.045-6.05 10.732-.126.225-.372.685-.585.683-.273-.002-.603-.836-.829-1.22-1.778-3.011-3.562-6.029-5.269-9.074-3.975-7.092-7.992-13.776-12.001-20.782-.496-.866-.945-1.763-1.464-2.634-1.257-2.113-2.512-4.269-3.756-6.488-.196-.348-.665-.843-.39-1.316z"/><path d="m23.318.49h.098c4.062 6.826 7.882 13.774 11.855 20.635.997 1.722 1.98 3.471 2.927 5.22.94 1.735 2.067 3.356 3.025 5.073 1.45 2.601 2.922 5.188 4.391 7.806.486.869 1.081 1.713 1.366 2.683-1.177.267-2.438.077-3.708.098-3.555.057-7.708.057-11.708.049-.543-.438-.745-1.124-1.073-1.708-.955-1.698-2.006-3.441-3.024-5.171-1.358-2.306-2.614-4.662-3.952-6.977-2.686-4.646-5.226-9.383-7.853-14.05 2.362-4.658 5.148-8.898 7.51-13.561.036-.045.089-.074.146-.097z"/><path d="m14.44 16.344c.402.038.788 1.02 1.072 1.512 2.142 3.705 4.347 7.474 6.44 11.123.308.536.619 1.097.878 1.659.757 1.642 1.785 3.228 2.683 4.83 1.209 2.156 2.6 4.198 3.562 6.439-1.167.266-2.415.146-3.61.146-3.703.001-7.36-.001-10.977 0-4.825.002-9.718.205-14.488-.097.107-.618.472-1.174.78-1.708 4.526-7.819 8.975-15.853 13.514-23.758.027-.069.076-.118.146-.146z"/></g></svg>