<svg enable-background="new 0 0 71.643 70.978" viewBox="0 0 71.643 70.978" xmlns="http://www.w3.org/2000/svg"><path clip-rule="evenodd" d="m71.296.333c.337 1.285.191 2.753.191 4.25v10.985c0 .736.1 1.564-.047 2.148-.252 1.002-1.541 1.513-2.054 2.245-3.772 3.736-7.549 7.453-11.319 11.223-.93.931-1.802 1.955-2.818 2.818-.321.273-.803.534-.812 1.051.541.326 1.26.195 1.91.19 4.252-.03 8.607-.057 13.038.048.844.021 1.74-.112 2.054.287.213 1.281.095 2.738.095 4.298 0 2.781-.071 5.84 0 8.788.035 1.441.224 2.971 0 4.25-.151.866-1.507 1.898-2.102 2.532-.743.792-1.586 1.534-2.292 2.196-3.056 2.866-5.952 5.857-8.979 8.883-1.061 1.062-2.229 2.195-3.438 3.296-.507.462-.732.912-1.337 1.051-.9.206-2.17.047-3.343.048-12.273.002-24.397-.094-36.679-.096-3.358 0-6.612-.048-9.981-.048-1.051 0-2.156.15-3.152-.191-.249-.687-.143-1.443-.143-2.148 0-3.564 0-7.191 0-10.698 0-1.338-.25-3.203.095-4.394.243-.835 1.34-1.673 2.006-2.34 4.696-4.695 9.309-9.261 13.993-13.945.347-.348.838-.703.907-1.242-.522-.41-1.305-.238-1.958-.238-3.309 0-7.157 0-10.698 0-1.42 0-2.868.173-4.06-.239-.345-1.315-.191-2.854-.191-4.346 0-4.536-.124-8.958.048-13.182.48-1.001 1.382-1.579 2.102-2.34 3.809-3.97 7.562-7.515 11.558-11.511.644-.643 1.273-1.268 1.91-1.957.484-.524 1.541-1.701 2.102-1.863.995-.287 2.44-.048 3.486-.048 8.778 0 17.941.05 26.889.048 6.795-.001 13.406.002 20.297 0 .898-.001 1.847-.024 2.722.191zm-55.544 4.919c-.537.482-1.017 1.026-1.481 1.481-2.999 2.94-6.148 6.006-8.931 8.884-.565.563-1.35.97-1.576 1.814.871.255 1.827.143 2.77.143 2.968.001 5.977.009 8.692 0 .833-.002 1.731.174 2.436-.143.255-1.018.143-2.183.143-3.344 0-2.917.015-5.949 0-8.787-.003-.496.104-1.142-.287-1.481-.003-.029-.007-.057-.048-.048-.532.284-1.159.98-1.718 1.481zm50.338.334c-.557.558-1.168 1.084-1.719 1.624-2.84 2.784-5.641 5.642-8.406 8.406-.547.546-1.308 1.059-1.576 1.814.936.431 2.151.217 3.296.238 2.434.046 4.887.017 7.116-.048 1.18-.033 2.367.235 3.343-.19.249-1.023.191-2.179.191-3.344 0-2.762.087-5.9 0-8.691-.016-.507.077-1.152-.287-1.528-.032 0-.063 0-.096 0-.746.349-1.274 1.131-1.862 1.719zm-32.762 12.465c-.645-.031-1.331 0-2.006 0-4.464 0-9.213-.083-13.42.047-1.035.686-1.855 1.664-2.722 2.532-2.656 2.655-5.38 5.196-8.024 7.832-.569.609-1.095 1.261-1.719 1.814-.359.759-1.496.984-1.528 1.911.511.333 1.195.19 1.767.19 1.993 0 3.963-.092 5.922 0 2.678.126 5.186-.096 7.594 0 .518.021 1.148.138 1.624 0 .622-.18 1.316-1.125 1.862-1.672 3.897-3.896 7.749-7.604 11.558-11.414.3-.3.702-.595.764-1.051-.504-.253-1.104-.162-1.672-.189zm11.939.047c-2.745.001-5.499-.167-8.023-.047-.303.015-.856.005-1.098.19-.256 1.3-.144 2.716-.144 4.155v8.692c0 1.412-.114 2.821.191 4.06 1.252.324 2.754.19 4.203.19h10.793c.66 0 1.754.113 2.054-.19.254-.258.191-1.227.191-1.958 0-3.75 0-7.265 0-10.89 0-1.469.123-2.939-.191-4.107-2.523-.172-5.259-.095-7.976-.095zm-22.733 34.912h10.984c.685 0 1.847.099 2.102-.144.273-.259.191-1.293.191-2.005 0-2.211-.048-4.404-.048-6.496 0-1.98.123-4.571.048-6.59-.024-.638.072-1.669-.191-1.959-.236-.26-1.206-.19-1.911-.19-3.688 0-6.956-.048-10.555-.048-1.461 0-2.99-.158-4.298 0-.925.111-.764.939-.764 2.054v10.984c0 1.472-.108 3.018.143 4.25 1.394.261 2.859.144 4.299.144zm43.318-14.422c-4.631-.002-9.484-.08-13.946-.048-1.592.012-2.084.87-3.009 1.719-.65.598-1.195 1.232-1.767 1.768-2.544 2.386-4.605 4.813-7.068 7.068-.922.844-1.807 1.789-2.579 2.723-.252.305-.746.576-.669 1.05.544.262 1.186.179 1.815.192 3.379.069 7.116.001 10.65 0 1.142 0 3.292.234 4.25-.048.495-.146 1.241-.984 1.671-1.433 3.601-3.75 7.358-7.392 10.889-10.936.326-.229.57-.598.859-.908.268-.286.807-.525.716-1.002-.559-.258-1.214-.145-1.812-.145zm.573 14.756c-2.282 0-4.353.001-7.068 0-.901 0-1.698.001-2.818 0-.869 0-2.324-.12-2.627.191-.442.456-.191 2.44-.191 3.296v8.739c0 .541-.122 1.148.191 1.576.85-.17 1.352-.922 1.911-1.48 3.711-3.711 7.503-7.457 11.175-11.128.254-.254.66-.575.621-1.003-.247-.311-.752-.19-1.194-.191zm-52.631.096c-2.298 0-4.351-.047-6.638-.048-1.133 0-2.473-.213-3.438 0-.629.14-.525.75-.525 1.528 0 3.74-.048 7.223-.048 10.842 0 .542-.128 1.412.287 1.528.277.077.751-.417 1.003-.669 2.021-2.022 4.049-4.201 6.018-6.017 1.725-1.592 3.497-3.449 5.158-5.11.539-.539 1.301-1.148 1.433-1.91-1.034-.258-2.141-.144-3.25-.144z" fill-rule="evenodd"/></svg>