<svg enable-background="new 0 0 35.882 77.225" viewBox="0 0 35.882 77.225" xmlns="http://www.w3.org/2000/svg"><g clip-rule="evenodd" fill-rule="evenodd"><path d="m35.656.161c.207 2.717.129 5.926.049 8.572-.93.316-1.81.357-2.63.684-2.275.9-4.036 2.551-5.018 4.822-.428.902-.931 2.201-.779 3.361.496.385 1.249.236 1.948.242 2.027.023 4.616-.225 6.527.098.134 3.035.203 6.312 0 9.207-2.74.309-6.163-.133-8.72.244-.29 2.484-.146 5.053-.146 7.648 0 7.709.048 15.662.049 23.527 0 2.771.175 5.582-.244 7.746-.402 2.08-1.452 3.998-2.533 5.455-2.147 2.896-5.408 5.457-10.473 5.457-5.225 0-8.5-2.252-10.766-5.213-1.182-1.545-2.135-3.293-2.533-5.455-.411-2.227-.342-4.779-.341-7.6 0-5.256-.001-10.539 0-15.783 0-5.287-.157-10.59.098-15.734 1.355-.262 2.959-.146 4.481-.146 1.513 0 2.983.027 4.384 0 .07 3.787.049 7.461.049 11.205 0 3.617.09 7.4 0 11.203-.084 3.518.073 7.572 0 11.203-.038 1.877-.134 3.791.633 5.02.727 1.16 1.809 2.111 3.557 2.191 2.056.094 3.067-.82 3.896-1.9.958-1.248.891-2.506.926-4.822.171-11.188-.033-22.58-.098-34.002-1.378-.283-2.953-.125-4.433-.098-1.488.029-3.005.002-4.433-.049.005-3.154.009-6.309-.049-9.402 2.797-.053 6.175.121 8.963-.096.383-1.199.378-2.432.683-3.557.898-3.33 2.428-6.047 4.384-8.33 2.626-2.867 6.255-5.307 11.155-5.797.427-.042 1.065-.157 1.414.099z"/><path d="m8.962 8.977c.282 2.895-.086 5.871.098 8.818-2.658.005-6.047.095-8.914-.097-.162-2.682-.162-6.039 0-8.721 2.625-.24 6.027-.166 8.816 0z"/></g></svg>