<svg enable-background="new 0 0 65.778 63.585" viewBox="0 0 65.778 63.585" xmlns="http://www.w3.org/2000/svg"><g clip-rule="evenodd" fill-rule="evenodd"><path d="m61.411 58.223c.373-.294.25-.846.25-1.25 0-3.347-.05-6.64-.05-10.047 0-3.347.053-6.838-.1-10.197-.018-.4-.103-.912.2-1.25.324-.079.925-.079 1.25 0 .385.846.25 1.859.25 2.85 0 5.086.1 10.229.1 15.295 0 .949.033 2.08 0 3.099-.068 2.115.269 4.068-2.05 4.049-1.135-.248-1.398-1.385-1.799-2.35-2.405-5.79-4.642-11.807-6.998-17.745-.67-1.69-1.234-4.198-3.599-3.649-2.551.592-1.95 3.457-2 6.548-.056 3.533.1 6.252.1 9.997 0 1.702.268 3.474-.15 4.899-.413 1.408-1.352 2.251-2.849 2.549-2.008.399-3.742-1.051-4.099-2.899-.27-1.398-.021-3.181-.05-4.748-.074-3.996.06-7.861-.1-11.847-.035-.859.102-1.684-.05-2.349-.277-1.213-1.619-2.248-3.049-1.7-1.379.529-1.679 2.184-2.25 3.599-1.043 2.587-2.119 5.418-3.099 7.998-1.43 3.764-2.725 6.861-5.749 9.097-2.661 1.968-6.837 3.557-11.596 2.649-3.853-.734-6.827-3.112-8.797-5.998-1.956-2.865-3.101-7.353-1.95-11.896.913-3.603 3.404-6.814 6.248-8.548 1.521-.927 3.455-1.692 5.499-1.949 4.387-.553 9.188-.401 14.296-.4h3.699c1.365 0 3.014.116 4.148-.25 1.259-.406 2.265-1.75 2.5-3.149.254-1.522.05-3.399.05-5.199 0-5.274-.092-10.845-.15-15.896-.017-1.458.288-3.355-.2-4.449-.294-.661-1.135-1.435-2.199-1.25-1.746.304-2.019 2.043-2.649 3.649-2.167 5.523-4.406 11.055-6.548 16.795-.451 1.209-.876 2.429-1.75 3.049-.743.527-1.853.468-2.549.1-.836-.442-1.212-1.371-1.649-2.449-1.163-2.869-2.334-6.079-3.499-8.748-1.265-2.898-2.31-5.797-3.549-8.748-.405-.964-.713-2.129-1.25-2.799-1.071-1.337-3.56-.815-4.049.75-.366 1.172-.118 3.282-.051 4.702.076 1.609 0 3.079 0 4.648v4.748c0 1.75.133 3.342.05 4.799-.117 2.042-1.567 3.733-3.849 3.549-1.29-.104-2.282-.999-2.749-1.799-.754-1.291-.5-3.475-.5-5.548 0-4.871-.05-9.927-.05-14.896 0-.944-.193-1.98.25-2.799 1.682-.592 1.323.927 1.35 2.699.082 5.416.02 11.026.1 16.746.028 1.986.015 3.513 1.85 3.799.973.152 1.624-.788 1.899-1.649-.034-4.85.016-9.74 0-14.496-.005-1.529-.232-3.265.05-4.65.447-2.197 2.978-4.105 5.648-2.849 1.68.79 2.248 2.706 2.999 4.548 2.219 5.447 4.359 11.025 6.648 16.545.31.749.703 2.331 1.549 2.299.765-.029 1.254-1.761 1.6-2.649 2.025-5.206 3.816-9.95 5.898-15.146.764-1.904 1.383-4.476 2.949-5.448 2.392-1.484 5.453.011 5.949 2.499.255 1.281.05 2.874.05 4.299 0 5.799-.075 11.517.15 17.145.057 1.419.133 2.938-.05 4.249-.331 2.374-1.868 4.053-3.849 4.798-1.13.425-2.712.191-4.299.25-3.629.136-7.504-.011-11.046.15-2.643.12-5.03-.143-7.298.25-4.118.713-7.067 3.031-8.848 6.198-.866 1.54-1.575 3.514-1.649 5.898-.145 4.609 1.924 7.935 4.698 10.347 2.513 2.213 7.491 3.525 11.747 2.049 3.571-1.238 6.333-3.732 7.748-7.298.702-1.77 1.401-3.597 2.099-5.448.682-1.809 1.446-3.623 2.1-5.448.614-1.716 1.37-3.829 2.899-4.649 2.652-1.421 5.532.757 5.848 3.349-.099 5.35.255 11.213.1 16.795-.022.802-.029 1.643.2 2.2.601 1.46 2.654 1.161 3.249 0 .487-.949.308-3.302.25-4.749-.136-3.409-.05-6.525-.05-9.947 0-1.646-.217-3.357.05-4.849.292-1.635 1.526-2.978 3.099-3.349 1.94-.458 3.609.437 4.449 1.75.508.795.736 1.71 1.1 2.649 1.704 4.402 3.521 8.86 5.249 13.346.515 1.337 1.006 2.627 1.549 3.999.156.395.277.933.7 1.151z"/><path d="m1.578.94c.458 5.428-.041 10.875.2 16.595.075 1.796-.144 3.72.15 5.399.43 2.459 3.318 4.411 5.998 3.049 1.009-.513 1.983-1.659 2.199-2.999.245-1.518.05-3.271.05-4.999 0-4.06.135-7.864-.05-12.247-.072-1.716.005-3.525 2-3.249 1.076.149 1.489 1.382 1.95 2.549 2.294 5.82 4.513 11.367 6.898 17.145.675 1.636 1.1 3.608 2.899 4.049 3.142.77 3.768-2.032 4.549-3.999 2.33-5.873 4.679-11.805 6.998-17.745.362-.927.671-2.157 1.899-2.2h.1c1.758.281 1.5 1.999 1.5 4.199 0 3.282.05 6.346.05 9.547 0 3.759.05 6.219.05 9.497 0 1.334.111 3.068-.35 3.999-.489.985-1.24 1.826-2.549 1.95-1.211.114-2.538-.111-3.849-.05-1.262.059-2.556.102-3.799.1-2.548-.003-5.089.066-7.448 0-2.403-.067-5.138-.046-7.198.45-4.218 1.017-7.085 3.197-9.248 6.298-1.054 1.512-1.885 3.27-2.299 5.449-.938 4.933.464 9.119 2.699 12.097 2.151 2.731 5.339 5.244 9.747 5.798 5.064.637 8.927-1.139 11.797-3.399 2.867-2.237 4.216-5.884 5.698-9.797 1.043-2.752 2.099-5.551 3.249-8.397.399-.986.74-2.068 1.899-2.149 2.416-.068 1.75 3.298 1.75 5.698 0 3.691.15 6.17.15 9.697 0 1.623-.206 3.479.05 4.898.221 1.225.968 2.153 1.75 2.699.77.539 2.045 1.012 3.449.6 1.121-.329 1.968-1.044 2.5-1.95.576-.981.6-2.244.6-3.849 0-4.217-.077-8.511-.1-12.746-.003-.604.03-1.513 0-2.149-.032-.672-.068-1.477.15-2.05.315-.829 1.637-1.495 2.649-.85.667.425 1.033 1.679 1.4 2.649 1.073 2.843 2.245 5.783 3.399 8.598 1.159 2.827 2.158 5.795 3.349 8.697.624 1.519 1.015 3.421 2.799 3.649 1.458.187 2.556-.847 2.799-2.1.167-.853.05-2.001.05-3.049 0-5.13-.2-10.056-.2-15.046 0-.965-.024-1.952-.05-2.899-.027-.981-.116-1.99.2-2.849.312-.165 1.133-.146 1.45 0 .27.895.135 1.909.15 2.899.074 4.872.05 10.188.05 15.196 0 2.086.184 4.151-.05 5.998-.311 2.449-2.861 4.405-5.598 3.349-1.805-.696-2.429-2.357-3.149-4.249-.971-2.552-2.133-5.29-3.099-7.848-1.17-3.1-2.37-6.076-3.599-9.147-.151-.378-.292-.886-.7-1.1-.364.432-.25 1.076-.25 1.6 0 1.814.044 3.563.1 5.299.077 2.384-.104 4.794 0 7.098.115 2.516-.074 4.695-1.1 6.248-.944 1.43-2.481 2.517-4.699 2.6-2.403.09-3.858-1.095-4.898-2.449-.568-.739-.942-1.558-1.05-2.6-.108-1.044-.084-2.273-.05-3.599.085-3.291-.05-6.899-.05-10.347 0-1.138.047-2.309-.2-3.349-.614.088-.629.845-.8 1.25-1.368 3.242-2.675 6.85-3.949 10.247-1.462 3.899-4.036 6.81-7.448 8.747-2.748 1.659-6.086 2.453-9.797 2.149-3.639-.298-6.591-1.662-8.698-3.449-2.145-1.819-3.982-4.06-5.198-6.948-1.223-2.903-1.712-6.701-.8-10.447.764-3.138 2.362-5.811 4.349-7.798 2.13-2.13 4.441-3.539 7.648-4.499 1.622-.485 3.512-.599 5.498-.6 4.975-.001 10.001-.101 15.096-.1 1.783 0 3.6.177 4.099-1.15.236-.628.1-1.819.1-2.849 0-5.634-.1-11.485-.1-17.295 0-.929.146-1.889-.25-2.649-.496.213-.625.855-.8 1.299-2.133 5.41-4.295 10.794-6.398 16.346-.839 2.216-1.412 3.797-3.649 4.599-.634.227-1.588.233-2.25.15-2.499-.317-3.4-2.199-4.248-4.349-2.255-5.711-4.421-11.186-6.798-16.845-.196-.467-.312-1.036-.75-1.35-.432.443-.25 1.178-.25 1.75 0 4.454.05 9.077.05 13.646 0 1.415-.023 2.608-.4 3.549-.965 2.413-4.142 4.774-7.698 3.349-1.749-.701-3.201-2.211-3.649-4.249-.235-1.07-.15-2.426-.15-3.799 0-5.879-.05-11.181-.05-17.295 0-.552-.152-1.244.25-1.7.363-.051 1.08-.143 1.299.103z"/></g></svg>