<svg enable-background="new 0 0 77.469 78.482" viewBox="0 0 77.469 78.482" xmlns="http://www.w3.org/2000/svg"><path clip-rule="evenodd" d="m77.231.114c.129 19.81.194 38.55.195 58.761v14.873c0 1.545.143 3.091-.098 4.583-5.977.266-12.353.098-18.53.098-.838 0-1.701.116-2.487-.146-.04-4.805-.659-8.775-2.487-11.947-1.745-3.03-4.219-5.537-7.363-7.07-3.188-1.556-7.666-2.351-12.093-1.268-3.757.919-6.601 3.143-8.778 5.608-3.024 3.379-4.544 8.264-4.583 14.629-.044.021-.088.043-.098.097-6.877.045-13.974.178-20.726-.049-.156-13.353-.145-26.027-.145-39.694 0-.833-.133-1.689.098-2.487 5.457-.231 11.426.05 16.921-.147.324-.64.194-1.409.194-2.097 0-11.284-.131-22.675.049-33.696.577-.215 1.252-.144 1.853-.147 8.829-.037 18.114 0 26.771 0 10.654.001 20.638-.013 31.307.099zm-53.689 3.803c-.576.001-1.159-.142-1.609-.049-.551.115-.487.344-.487 1.317 0 6.067.038 11.588.049 17.116.013 6.468-.001 12.209 0 18.384 0 3.164-.098 6.419 0 9.509.032 1.03-.13 2.065.146 2.975 8.382.24 16.856.097 25.698.097 8.714.001 17.562.231 25.893-.048.223-1.902.099-4.141.098-6.437 0-1.127 0-2.318 0-3.462 0-1.141.118-2.294-.146-3.316-10.562-.314-22.067.177-32.623-.098-.698-.018-1.436.13-2.097-.146-.008-1.235-.271-2.859.049-3.95 11.49-.381 23.535.159 34.671-.146.259-1.051.146-2.247.146-3.414-.001-2.457-.049-4.86-.049-7.071 0-1.14.138-2.238-.098-3.218-5.707-.068-11.725-.098-17.604-.098-4.324 0-8.588-.087-13.02 0-1.432.028-2.823.113-4.097-.097-.085-1.176-.206-2.965.049-4.048 11.459-.361 23.26.171 34.671-.195.212-4.386.173-8.813 0-13.508-16.519-.216-33.056-.139-49.64-.097z" fill-rule="evenodd"/></svg>