<svg enable-background="new 0 0 81.267 44.876" viewBox="0 0 81.267 44.876" xmlns="http://www.w3.org/2000/svg"><g clip-rule="evenodd" fill-rule="evenodd"><path d="m12.162 0c.276.194.149.595.149.846 0 10.164-.141 20.19.05 30.321 2.574.28 5.749.056 8.514.05.357-1.078.199-2.316.199-3.485 0-8.513-.02-16.814.1-25.043.113-.36.5-.517.747-.747.715-.665 1.452-1.499 2.439-1.942-.06 6.467-.05 12.966-.05 19.417 0 3.213.972 5.461 2.34 7.468 1.336 1.959 3.22 3.371 5.576 4.232 2.62.958 6.038.986 8.414.1 2.327-.868 4.274-2.451 5.676-4.132 1.501-1.801 2.42-4.211 2.639-7.169.227-3.073-.108-6.348.1-9.708.176-.195.48-.159.697-.299.379-.246.72-.76 1.095-1.145.896-.921 1.822-1.864 2.788-2.738.139-.125.371-.389.598-.299-2.133 3.085-3.362 6.348-3.286 11.352.067 4.371 2.083 7.756 4.381 10.206 2.128 2.27 5.684 4.598 9.908 4.73 3.576.111 6.296-.833 8.663-2.191.761-.437 1.39-1.04 2.191-1.444-.954 1.427-2.294 2.582-3.485 3.883-1.16 1.268-2.404 2.503-3.635 3.734-3.789 3.79-6.642 7.921-13.293 8.763-2.209.279-4.411.049-6.423-.598-3.65-1.174-6.577-3.326-8.364-6.323-.634-.66-.876-1.712-1.444-2.439-1.129.547-1.75 1.603-2.639 2.39-2.459 2.322-4.7 5.366-8.514 6.473-4.526 1.313-9.103-.324-11.352-2.689-.407-.413-.765-.764-1.195-1.294-.261-.322-.781-1.264-1.195-1.294-.472-.035-1.1.751-1.394 1.045-1.187 1.187-2.488 2.6-3.634 3.634-3.105-.065-6.471.132-9.41-.099-.232-10.319-.034-20.779-.05-31.118 3.833-4.25 7.89-8.276 11.9-12.348.037-.046.091-.076.149-.1z"/><path d="m40.093.1c.04.009.049.05.1.05.04 4.472 0 9.91 0 14.986 0 2.486.206 4.94-.697 6.473-1.332 2.258-4.962 1.609-6.024-.299-.49-.88-.398-2.403-.398-3.983 0-3.515-.048-7.409.1-10.555-.019-.317.464-.133.647-.249 1.566-1.701 3.667-3.586 5.328-5.526.391-.46.477-.73.944-.897z"/><path d="m81.267 12.696c-.139.667-.668 1.235-1.095 1.693-1.305 1.399-2.747 2.706-4.033 4.182-.182.209.187.499-.05.598-.992.256-2.348-.102-3.436.1-.698.513-1.047 1.334-1.643 1.941-.592.604-1.304 1.019-2.042 1.494-1.108.379-1.794.628-3.236.548-3.679-.204-6.331-3.336-6.423-6.871-.078-3.005 1.395-5.535 3.535-6.821.637-.383 1.729-.808 2.738-.896 2.503-.22 4.021.752 5.327 1.842.64.604.996 1.494 1.693 2.041 2.596.235 6.1.109 8.665.149z"/></g></svg>