<svg enable-background="new 0 0 81.297 81.555" viewBox="0 0 81.297 81.555" xmlns="http://www.w3.org/2000/svg"><path clip-rule="evenodd" d="m81.219.27c.135 3.173.053 6.522.053 9.875.002 23.662-.114 47.928-.209 71.267-.046.023-.094.045-.104.105-26.86.079-54.039.048-80.774-.157-.28-.787-.157-1.65-.157-2.456-.003-12.667.101-25.639.103-38.09.002-12.805.104-25.639.105-38.454 0-.773-.16-1.627.208-2.35 26.096-.012 54.038-.052 80.619.208.084-.015.09.049.156.052zm-60.659 3.135c-5.582 0-11.276-.09-16.876.104-.192 23.509-.315 46.519-.313 69.855 0 1.535-.125 3.083.157 4.598 7.451.174 15.592.174 22.988 0 .041-.011.062-.044.053-.104.251-24.646.306-49.598.208-74.297-2.002-.283-4.109-.156-6.217-.156zm51.465.104c-13.928 0-27.974-.119-41.538-.052-.368.603-.215 1.381-.208 2.038.006.766-.053 1.532-.053 2.299-.004 20.312-.159 41.021-.157 60.974 0 3.096-.144 6.164.104 9.195 7.465.195 15.497.158 23.563.157 6.042 0 12.073.001 18.078 0 1.967 0 3.903.22 5.8-.104.226-6.651.155-13.925.156-20.743 0-.973.122-1.963-.156-2.873-7.5-.347-15.472.038-23.563-.261-.207-8.878-.131-18.058.052-26.699 7.477-.418 15.744.15 23.616-.209.228-7.662.203-16.1.104-23.563-1.91-.285-3.862-.159-5.798-.159z" fill-rule="evenodd"/></svg>