<svg enable-background="new 0 0 173.599 174.239" viewBox="0 0 173.599 174.239" xmlns="http://www.w3.org/2000/svg"><g clip-rule="evenodd" fill-rule="evenodd"><path d="m173.537 75.645c-9.156.25-18.227.096-27.626.147-.014-.1-.182-.047-.194-.147-1.201-4.955-2.643-9.559-4.661-13.74-1.982-4.107-4.393-7.877-7.089-11.264-.704-.885-1.286-1.801-1.991-2.623-4.895-5.703-11.028-10.398-18.158-13.982-8.144-4.094-18.391-6.785-30.442-6.117-5.581.309-10.767 1.484-15.295 3.059-9.222 3.205-16.256 7.854-22.577 14.178-3.057 3.057-5.889 6.439-8.254 10.098-4.847 7.496-8.427 16.315-9.322 27.385-.492 6.094-.066 11.752 1.02 16.896 2.655 12.59 8.532 22.08 16.168 29.715.765.764 1.525 1.553 2.331 2.281.796.721 1.625 1.461 2.573 1.99h.097c2.149-4.182 3.876-8.619 5.875-12.963 1.961-4.262 3.887-8.643 5.875-12.914.665-1.43 1.361-2.836 1.991-4.273.624-1.426 1.158-2.928 2.039-4.225 4.844-.178 10.663-.098 15.634-.098 5.153 0 10.231-.166 15.148.049.042.557-.275 1.08-.485 1.555-.61 1.379-1.455 2.854-1.99 4.32-.198.543-.304 1.096-.534 1.602-4.991 10.984-10.137 22.051-15.101 33.162-.863 1.934-1.894 3.807-2.573 5.826.381.369.957.365 1.457.438 1.54.227 3.23.439 4.952.582 2.349.195 4.75.172 7.186.146 4.668-.049 9.076-.984 12.915-1.895 3.795-.898 7.605-2.408 10.827-4.029 6.681-3.357 12.357-7.344 17.14-12.525 2.358-2.555 4.551-5.264 6.555-8.254 3.984-5.949 6.891-12.941 8.691-20.977.039-.008.048-.049.097-.049 2.208-.23 4.492-.072 6.798-.096 6.941-.072 14.145-.141 20.975 0 .107 2.514-.466 4.961-1.02 7.283-1.641 6.877-3.743 13.152-6.555 18.838-3.755 7.592-8.285 14.248-13.595 20.246-4.586 5.18-10.029 9.768-15.877 13.789-10.873 7.479-23.757 12.965-40.299 14.713-5.197.547-10.921.617-16.168.193-9.129-.736-16.925-2.822-24.131-5.486-4.986-1.844-9.769-4.289-14.178-6.992-10.488-6.428-19.399-14.475-26.219-24.52-7.938-12.037-14.097-25.645-15.392-44.328-.083-1.189-.146-2.445-.098-3.641.049-1.226-.093-2.42-.049-3.594.623-16.635 5.07-29.92 11.361-40.883 1.85-3.221 3.627-6.324 5.826-9.127 2.188-2.787 4.343-5.553 6.798-8.109 7.241-7.537 15.84-14.115 25.976-18.838 6.775-3.156 14.075-5.863 22.675-7.186 3.239-.498 6.492-.906 10.099-1.117 14.716-.863 27.497 2.246 37.823 6.457 9.721 3.965 17.765 9.355 25.005 15.732 10.716 9.682 18.978 21.693 24.324 36.803 1.327 3.75 2.425 7.754 3.205 12.09.257 1.428.468 2.911.437 4.419z"/><path d="m119.74 48.602c-.288 1.242-.948 2.342-1.456 3.496-3.008 6.828-6.26 13.598-9.273 20.44-.495 1.123-.902 2.316-1.651 3.303-10.133.078-20.355.201-30.782 0 .015-.648.377-1.238.631-1.797 3.332-7.32 6.8-14.793 10.1-22.189.498-1.115.941-2.301 1.65-3.301 3.992.018 8.216-.049 12.478-.049 4.264 0 8.592.193 12.769 0 1.812-.085 3.824-.155 5.534.097z"/></g></svg>