<svg enable-background="new 0 0 76.614 76.472" viewBox="0 0 76.614 76.472" xmlns="http://www.w3.org/2000/svg"><g clip-rule="evenodd" fill-rule="evenodd"><path d="m35.927.09c6.374-.442 11.932.79 16.506 2.625 4.648 1.866 8.515 4.374 11.77 7.362 2.576 2.364 4.695 4.797 6.565 7.784.61.976 1.091 2.019 1.642 3.142 2.113 4.308 3.572 9.158 4.079 15.006.666 7.691-1.413 14.625-3.985 19.742-.548 1.088-1.013 2.162-1.642 3.142-4.344 6.763-10.444 11.902-18.476 15.006-3.354 1.296-7.443 2.35-11.771 2.532-6.059.255-11.757-.708-16.365-2.579-2.215-.899-4.373-2.034-6.33-3.236-4-2.455-7.234-5.423-10.082-9.05-4.101-5.221-7.362-11.981-7.784-20.867-.233-4.916.295-9.078 1.454-12.802 1.133-3.642 2.529-6.988 4.407-9.941 4.95-7.782 11.89-13.392 21.805-16.459 1.167-.361 2.515-.704 3.893-.891 1.424-.193 2.872-.416 4.314-.516zm9.425 68.557c3.145-.66 5.842-1.854 8.253-3.142 3.309-1.768 6.124-4.09 8.488-6.752 3.401-4.177 6.26-9.099 7.174-15.662 1.014-7.27-.645-13.983-3.235-18.944-3.804-7.287-9.945-13.016-18.616-15.615-4.396-1.318-10.293-1.875-15.146-.75-4.595 1.065-8.577 2.574-11.863 5.018-4.358 3.242-7.897 7.063-10.316 12.146-2.374 4.986-3.99 11.971-2.673 18.851 1.199 6.264 3.768 11.121 7.408 15.099 2.365 2.541 5.11 4.865 8.348 6.659 2.456 1.361 5.183 2.275 8.159 3.095.994.274 2.122.586 3.095.375.256-1.415.118-2.857.188-4.314.07-1.479 0-3.006 0-4.502.001-8.85-.097-17.823-.047-26.682 1.459-2.492 2.906-4.971 4.408-7.55 1.093-1.878 2.02-3.779 3.235-5.721.268-.428.841-1.732 1.267-1.735.404-.003.947 1.254 1.219 1.735 1.108 1.966 2.186 3.971 3.188 5.721 4.342 7.576 8.878 15.225 13.224 22.509.627 1.077 1.212 2.203 1.829 3.235.2.334.598.67.516 1.126-.724.256-1.52.128-2.298.141-4.135.066-8.371-.228-12.38-.094-.797.027-1.602.047-2.391.047-.769 0-1.61.075-2.298-.235-.166-.98-.094-2.178-.094-3.329 0-1.171-.104-2.344.141-3.282.053-.01.072-.052.094-.094 1.625-.084 3.65-.047 5.346-.046.566 0 1.244.155 1.595-.235-.156-.735-.624-1.354-.985-2.016-.354-.649-.799-1.278-1.172-1.923-1.512-2.61-2.976-5.278-4.502-7.878-.577-.984-1.258-1.92-1.782-2.86-.158-.284-.194-.838-.656-.844-.286 1.509-.056 3.075-.094 4.642-.038 1.591 0 3.201 0 4.83-.001 8.975.001 18.189 0 27.103 0 .758-.139 1.585.188 2.298 1.118.146 2.177-.214 3.185-.425z"/><path d="m42.304 16.221c-.278.852-.788 1.614-1.219 2.392-1.268 2.285-2.686 4.539-3.986 6.846-3.46 6.136-6.969 12.253-10.551 18.335-1.336 2.268-2.775 4.476-4.032 6.799-.411.758-.772 1.591-1.407 2.204-1.87.085-4.034.047-6.049.047-.635 0-1.317.088-1.829-.188.187-.82.725-1.482 1.125-2.204 1.189-2.143 2.521-4.271 3.799-6.424 1.682-2.836 3.25-5.777 4.971-8.628 2.544-4.217 5.074-8.54 7.503-12.895.409-.734.788-1.487 1.219-2.204.421-.702.917-1.399 1.267-2.11.131-.267.152-.578.281-.844.315-.648.785-1.285 1.172-1.97.915-1.62 1.869-3.163 2.86-4.876.219-.378.37-.807.61-.985.585-.348 1.092.985 1.359 1.454.361.635.68 1.217.984 1.735.785 1.331 1.589 2.352 1.923 3.516z"/></g></svg>