<svg enable-background="new 0 0 78.698 74.492" viewBox="0 0 78.698 74.492" xmlns="http://www.w3.org/2000/svg"><g clip-rule="evenodd" fill-rule="evenodd"><path d="m28.462 4.609c2.237-2.262 4.883-4.337 9.016-4.58 3.897-.228 6.944.915 9.112 2.652 2.252 1.804 3.965 3.856 4.869 6.846 2.156 7.124-1.8 13.322-6.412 15.765-2.552 1.352-6.171 2.092-9.643 1.157-4.445-1.198-7.759-4.15-9.305-8.292-.558-1.496-.819-2.999-.819-5.014 0-3.768 1.351-6.156 3.182-8.534z"/><path d="m57.051 31.511c-.196.366-.644.13-.916.097-2.417-.299-5.592-.238-7.955.144-2.639.427-5.23 1.39-7.376 2.218-4.548 1.755-8.144 4.818-10.51 8.629-1.864 2.907-2.606 7.604-1.495 11.764.99 3.703 3.449 6.304 6.123 8.244 2.734 1.983 6.266 3.399 10.172 4.194 4.115.838 9.118.62 12.92-.579 3.501-1.103 6.895-2.795 8.919-5.448 1.013-1.327 1.887-3.08 2.073-5.11.191-2.088-.369-4.142-1.446-5.641-2.02-2.811-5.512-3.85-9.691-4.676-3.896-.771-8.432-1.353-9.835-4.532-.977-2.214.342-4.123 1.639-5.158 1.438-1.148 3.381-1.679 5.592-1.881 5.117-.466 9.366.868 12.583 2.218 2.98 1.584 5.376 3.243 7.377 5.688 1.949 2.383 3.471 5.486 3.471 9.594.001 4.234-1.395 7.225-3.326 9.738-1.887 2.456-4.34 4.432-6.991 6.027-2.679 1.611-5.624 3.124-8.823 4.243-3.246 1.134-6.73 1.916-10.558 2.507-7.562 1.167-16.647.818-24.009-.627-3.644-.716-6.929-1.746-10.028-3.037-3.068-1.279-5.959-2.732-8.292-4.773-2.232-1.952-4.425-4.3-5.641-7.424-1.208-3.105-1.474-7.544-.144-11.041 2.331-6.133 7.563-9.902 13.451-12.68 7.321-3.453 16.323-5.35 27.142-4.918 5.3.212 10.034.837 14.56 1.784.324.07.812.107 1.014.436z"/></g></svg>