<svg enable-background="new 0 0 13.045 13.131" viewBox="0 0 13.045 13.131" xmlns="http://www.w3.org/2000/svg"><path d="m.742.016c.232.003.463-.022.696-.014 1.771 0 3.542.001 5.312 0 .959.028 1.919.008 2.878.014.872-.001 1.745.001 2.618-.001.095-.007.184.032.275.052.19.09.358.231.445.426.02.054.041.107.065.16.024.387.004.776.012 1.164.02.375-.255.737-.618.826-.385.056-.775.049-1.161.09-.428-.014-.816.374-.809.801-.005 2.001.007 4.002-.012 6.003-.01.113.027.221.052.33.084.207.245.375.441.48.185.072.388.054.581.093.3-.016.597.027.895.053.281.072.511.289.601.565.057.292.018.591.031.887-.009.235.039.487-.079.703-.131.29-.441.487-.759.479-3.576.018-7.152-.005-10.728 0-.273-.005-.547.012-.819-.013-.337-.09-.609-.39-.638-.741-.001-.343.001-.687-.001-1.03-.028-.338.19-.668.496-.805.044-.011.086-.027.125-.048.238.005.471-.068.71-.048.217.019.426-.049.642-.047.016-.006.046-.018.062-.025.25-.087.447-.292.523-.546.049-.293.066-.591.063-.888.053-.203.005-.425.11-.614.121-.253.382-.422.657-.453.594-.001 1.19-.01 1.786.001.35-.003.659.266.751.595.067.411.045.831.093 1.244.011.275.207.526.461.625.256.105.564.037.761-.156 1.021-1.124 2.034-2.256 3.051-3.384.09-.093.085-.236.062-.353-.081-.157-.221-.271-.336-.402-.533-.597-1.072-1.187-1.599-1.788-.167-.15-.286-.342-.45-.494-.143-.131-.246-.297-.387-.428-.202-.184-.333-.459-.614-.54-.164-.058-.357-.042-.519.021-.177.081-.312.227-.392.402-.084.201-.033.419-.063.628-.071.289.014.592-.084.876-.03.057-.058.115-.085.174-.098.148-.238.263-.401.33-.227.077-.471.05-.706.054-.428-.003-.856.007-1.283-.005-.335-.007-.643-.241-.747-.557-.06-.241-.039-.499-.077-.745-.03-.232.01-.473-.072-.696-.089-.252-.305-.446-.561-.518-.469-.071-.95-.036-1.418-.123-.356-.119-.588-.488-.579-.857.007-.27-.012-.541.015-.811.005-.141-.006-.285.056-.416.111-.277.373-.492.671-.53z"/></svg>