<svg enable-background="new 0 0 65.006 70.416" viewBox="0 0 65.006 70.416" xmlns="http://www.w3.org/2000/svg"><g clip-rule="evenodd" fill-rule="evenodd"><path d="m38.216.013c1.209 1.541 2.033 3.418 3.064 5.203.668 1.156 1.548 2.523 2.285 3.889.242.447.668.988.681 1.361.015.426-.396.922-.681 1.41-.265.453-.481 1.019-.681 1.41-.503.984-1.009 1.73-1.508 2.674-.606 1.148-1.552 2.656-2.284 3.988-.272.492-.503 1.043-.876 1.166-.62.205-1.974 0-2.819 0-2.894 0-5.733.125-8.752 0-.668-.733-1.136-1.633-1.604-2.527-.906-1.729-2.062-3.338-2.917-5.252-.163-.365-.447-.858-.729-1.313-.253-.406-.676-1.029-.681-1.361-.007-.455.567-1.275.826-1.75.721-1.318 1.136-2.246 1.848-3.502.331-.584.677-1.18 1.022-1.75.72-1.191 1.198-2.514 2.091-3.451 3.83-.213 7.85-.227 11.715-.195zm-6.855 1.021c-1.052 0-3.628-.182-4.376.193-.487.246-1.053 1.623-1.409 2.238-.465.797-.932 1.65-1.314 2.334-.669 1.199-1.349 2.225-1.944 3.5-.185.395-.536 1-.535 1.312.001.309.333.898.535 1.312.653 1.338 1.323 2.369 1.993 3.598.405.744.859 1.492 1.361 2.383.337.598.927 1.99 1.556 2.188.7.221 1.878.039 2.626.049 1.838.025 3.296 0 5.202 0 .832 0 2.085.131 2.626-.098.617-.258 1.104-1.533 1.507-2.236 1.011-1.764 1.798-3.078 2.723-4.764.372-.678 1.233-1.846 1.216-2.529-.016-.606-.637-1.387-.924-1.896-1.103-1.953-2.098-3.492-3.16-5.396-.512-.752-.73-1.799-1.556-2.236-2.019-.02-3.664.048-6.127.048z"/><path d="m47.552 12.071c3.834.027 7.674-.104 11.522.049.752.592 1.196 1.588 1.653 2.479s1.033 1.748 1.459 2.676c.124.268.168.598.292.873.332.744.836 1.469 1.264 2.336.32.646 1.159 1.701 1.167 2.381.005.391-.353.938-.632 1.41-.781 1.32-1.462 2.533-2.14 3.891-.458.916-.961 1.793-1.459 2.625-.508.85-.957 1.744-1.605 2.48-3.708.137-7.787.057-11.475.047-.874-.514-1.238-1.559-1.75-2.43-1.269-2.158-2.46-4.379-3.744-6.662-.225-.4-.661-1.045-.681-1.361-.039-.652.689-1.549 1.022-2.139 1.153-2.045 2.088-4.225 3.354-6.078.521-.873.886-1.902 1.605-2.576.05-.001.099-.001.148-.001zm.389 1.069c-1.101 1.361-1.919 2.98-2.82 4.668-.613 1.152-1.349 2.33-1.944 3.646-.206.455-.628.898-.632 1.264-.005.363.359.81.583 1.266 1.095 2.23 2.15 4.105 3.306 6.078.459.781.847 1.658 1.557 2.188 2.795.109 5.382.021 7.974-.049.775-.021 2.036.201 2.674-.098.245-.115.547-.619.778-1.021.696-1.209 1.419-2.373 1.993-3.451.45-.846.752-1.582 1.216-2.432.281-.514 1.265-1.746 1.264-2.383 0-.598-.619-1.266-.875-1.75-.339-.642-.58-1.295-.826-1.848-.608-1.365-1.783-3.092-2.577-4.521-.228-.41-.591-1.305-.924-1.459-.21-.096-.795-.127-1.118-.144-2.839-.158-6.624.156-9.481.047-.051-.001-.1-.001-.148-.001z"/><path d="m23.485 22.864c-.308 1.004-.936 1.826-1.361 2.771-.83 1.84-1.91 3.574-2.966 5.301-.522.852-.815 1.869-1.557 2.576-3.795.006-7.727.043-11.523-.049-.723-.725-1.101-1.678-1.653-2.527-.273-.42-.518-.896-.729-1.361-.8-1.758-1.977-3.445-3.015-5.252-.241-.42-.67-1.008-.681-1.361-.011-.363.385-1.039.632-1.459.771-1.307 1.52-2.709 2.237-3.986.701-1.25 1.443-2.666 2.236-4.035.257-.445.513-1.031.875-1.168.688-.256 1.986-.049 2.966-.049 2.454.002 3.584-.049 5.932-.047.916 0 2.127-.143 2.723.096.348.141.475.467.729.973 1.289 2.553 2.906 4.977 4.084 7.537.314.681.791 1.288 1.071 2.04zm-14.879-9.578c-.654 0-1.626-.137-2.139.049-.558.203-1.138 1.584-1.507 2.236-1.008 1.777-1.732 3.137-2.675 4.863-.289.529-1.287 1.885-1.264 2.527.012.324.393.857.583 1.215.229.428.504.81.681 1.119 1.009 1.76 1.746 3.207 2.723 4.861.409.691.96 2.18 1.653 2.383.462.137 1.268-.08 1.993-.049.667.029 1.409.109 1.994.098 1.178-.023 2.319.037 3.695 0 .886-.023 2.306.061 2.819-.195.347-.172.559-.672.778-1.068.696-1.258 1.389-2.354 1.993-3.551.398-.81.899-1.469 1.361-2.332.389-.727 1.128-1.69 1.118-2.578-.008-.775-.758-1.795-1.166-2.527-1.344-2.41-2.693-5.059-4.085-7.051-2.694-.137-5.62 0-8.555 0z"/><path d="m26.888 28.602c.21 3.141.194 6.611.194 9.869 0 1.127.131 2.275-.146 3.307-.528.311-1.881.256-2.48.049-.229-.562-.204-1.271-.194-1.945.058-3.838-.063-7.594 0-11.23.495-.401 2.084-.43 2.626-.05z"/><path d="m31.07 41.729c-.243-3.074.012-6.58-.147-9.918-.036-.771-.278-2.744.098-3.16.29-.322 2.654-.172 3.258-.244.573-.068 1.245.027 1.847.049 2.211.076 3.792.525 4.911 1.654 1.519 1.529 1.901 4.068 1.653 6.367-.27 2.5-1.963 4.533-4.23 5.154-1.492.41-3.277.352-5.202.34-.714-.003-1.501.116-2.188-.242zm7.001-2.625c2.443-1.31 2.464-6.676-.049-8.07-.816-.455-2.739-.516-4.084-.391-.438.34-.266.947-.243 1.459.08 1.818 0 3.649 0 5.348 0 .734-.001 1.535.194 2.141 1.704.306 3.072.107 4.182-.487z"/><path d="m59.27 57.872c-3.196.035-6.973.303-10.308.146-.539-.025-1.05.107-1.41 0-.35-.106-.702-.77-.924-1.168-1.296-2.324-2.418-4.4-3.695-6.66-.213-.377-.447-.869-.729-1.361-.247-.432-.667-.975-.681-1.361-.026-.75 1.071-2.193 1.41-2.771.566-.969.9-1.986 1.361-2.771.527-.9 1.03-1.797 1.507-2.674.489-.899.926-1.83 1.605-2.529 3.39-.166 7.433.096 10.551-.146.223-.018.895-.014 1.167.098.402.166.798.912 1.069 1.361.957 1.582 1.629 3.191 2.432 4.863.324.676.804 1.342 1.216 2.139.336.652 1.146 1.561 1.166 2.188.023.65-.799 1.621-1.166 2.285-1.521 2.744-2.823 5.82-4.571 8.361zm-6.808-20.275c-.997.004-3.833-.152-4.57.195-.581.273-1.011 1.637-1.41 2.285-.981 1.596-1.916 3.162-2.723 4.764-.408.815-.861 1.647-1.167 2.578.321.885.814 1.658 1.216 2.527.368.797.898 1.607 1.361 2.432.41.729.838 1.398 1.41 2.334.418.682.905 1.984 1.556 2.236.526.203 1.691.08 2.528.049 2.105-.08 3.387-.012 5.349-.098.804-.035 2.035.176 2.674-.049.528-.186.889-1.062 1.167-1.557.363-.643.658-1.26.973-1.75.756-1.119 1.237-2.371 1.848-3.598.307-.615 1.348-1.801 1.313-2.625-.03-.703-.906-1.815-1.264-2.481-.929-1.726-1.685-3.303-2.577-4.91-.44-.793-.762-1.729-1.508-2.236-1.936-.042-4.296-.102-6.176-.096z"/><path d="m17.65 36.868c.71.682 1.155 1.619 1.604 2.527.9 1.822 1.961 3.432 2.917 5.35.184.365.392.887.681 1.408.223.4.678 1.033.681 1.361.004.324-.386.973-.632 1.41-1.249 2.228-2.257 4.492-3.501 6.662-.492.859-.831 1.818-1.507 2.527-3.8.064-7.773.238-11.523.244-.801-.623-1.262-1.615-1.751-2.48-.509-.9-.959-1.83-1.459-2.723-1.001-1.787-2.219-3.447-3.062-5.299 1.394-2.805 2.901-5.551 4.424-8.266.503-.897.882-1.885 1.605-2.627 3.679-.043 7.822-.141 11.523-.094zm-3.161 20.322c.778 0 2.188.139 2.82-.145.53-.24 1.085-1.52 1.458-2.189.941-1.689 1.751-3.115 2.626-4.764.378-.713 1.137-1.756 1.118-2.578-.018-.82-.804-1.885-1.167-2.527-.973-1.723-1.655-3.111-2.626-4.812-.355-.627-.9-1.994-1.507-2.238-.512-.205-1.41-.117-2.139-.096-2.803.076-5.58-.029-8.412.145-.761.514-1.033 1.5-1.507 2.334-.957 1.684-1.758 3.203-2.723 4.959-.292.531-1.345 1.904-1.313 2.578.018.369.417.852.633 1.215.755 1.269 1.379 2.461 2.09 3.598.398.824.877 1.605 1.361 2.383.48.767.872 1.646 1.557 2.236 2.723.073 5.044-.099 7.731-.099z"/><path d="m38.606 70.222c-2.797.242-5.907.08-8.995.098-.878.004-2.29.246-2.917-.049-.581-.273-1.217-1.937-1.556-2.529-1.024-1.779-1.977-3.365-2.869-5.201-.434-.893-1.055-1.707-1.361-2.676.289-1.065.903-1.873 1.361-2.77 1.126-2.207 2.346-4.439 3.598-6.662.263-.465.527-1.074.827-1.215.502-.238 1.309-.111 2.139-.146 2.829-.121 5.399.027 8.411-.098.245-.01.837-.078 1.168.098.3.16.637.818.875 1.215.801 1.338 1.486 2.686 2.236 4.037.762 1.369 1.534 2.49 2.285 3.986.232.463.615 1.051.632 1.41.036.779-.976 2.174-1.312 2.771-.539.959-.99 1.816-1.459 2.625-1.055 1.822-1.972 3.649-3.063 5.106zm-8.703-20.178c-.751 0-1.982-.162-2.577.098-.607.264-1.169 1.734-1.459 2.285-.45.859-.956 1.709-1.361 2.43-.674 1.203-1.46 2.313-2.042 3.6-.176.389-.491 1.084-.486 1.408.01.529.524 1.367.827 1.896 1.083 1.902 1.99 3.494 3.015 5.301.573.658.74 1.723 1.556 2.139 3.491.086 7.378.232 10.696 0 1.085-1.354 1.863-2.949 2.82-4.57.672-1.139 1.227-2.396 1.944-3.598.28-.469.644-.871.633-1.264-.011-.352-.388-.83-.633-1.264-1.188-2.119-2.323-4.113-3.451-6.127-.459-.818-.83-1.711-1.508-2.334-2.954-.102-5.081 0-7.974 0z"/></g></svg>