<svg enable-background="new 0 0 81.73 70.87" viewBox="0 0 81.73 70.87" xmlns="http://www.w3.org/2000/svg"><g clip-rule="evenodd" fill-rule="evenodd"><path d="m46.786 4.889c-1.455.248-3.693.188-5.222.049-.158-1.451-.171-3.267-.095-4.795.027-.069.074-.118.142-.143h.096c1.326 1.168 2.629 2.344 3.892 3.607.402.403.952.731 1.187 1.282z"/><path d="m40.33.285c.341.445.189 1.068.189 1.566.001 12.842.094 26.371.095 39.881.001 4.525.372 9.518-.521 13.387-1.73 7.49-6.605 12.363-13.294 14.766-3.476 1.25-8.524.807-13.198.809-4.482 0-9.32.146-13.578-.049-.135-.426.373-.602.569-.854 1.312-1.229 2.491-2.531 3.893-3.846.398-.373.959-1.133 1.473-1.188 1.748-.184 3.603-.047 5.412-.047 1.832 0 3.68-.047 5.412-.049 1.831 0 3.609.17 5.175-.094 4.653-.787 7.768-3.109 10.018-6.361 1.495-2.162 2.327-4.951 2.327-8.547-.001-14.055-.108-28.73 0-43.252.235-.699.888-1.125 1.376-1.613 1.454-1.453 2.967-2.94 4.463-4.416.03-.062.1-.087.189-.093z"/><path d="m53.86 11.916c-2.006.07-4.183.23-6.267.142-2.079-.088-4.141.125-6.029-.142-.195-1.184-.192-3.074-.143-4.652.016-.506-.042-1.047.237-1.377 2.047-.08 4.409-.078 6.457 0 1.701 1.715 3.472 3.373 5.127 5.176.227.244.59.478.618.853z"/><path d="m33.113 7.453c.283.16.237.797.237 1.187 0 6.689.047 13.898.048 20.699 0 7.484.138 15.047.047 22.268-.018 1.414-.483 2.812-.949 3.939-1.407 3.408-3.868 5.887-7.217 7.359-1.151.506-2.475.838-3.94.949-1.489.113-3.095 0-4.747 0-3.207.002-6.557.078-9.639-.094.26-.719.801-1.068 1.378-1.615.211-.199.464-.465.759-.76.186-.186.653-.596.665-.807.027-.482-.913-1.104-1.234-1.424-.499-.5-1.007-.861-1.14-1.424 4.709-.357 9.413.141 13.578-.143 2.187-.15 4.011-1.545 5.08-3.039.425-.594.982-2.201 1.092-3.228.143-1.334 0-2.812 0-4.225 0-9.6-.08-19.428 0-28.725.007-.717-.01-1.609-.047-2.422-.039-.856-.133-1.873.047-2.516.17-.605.918-1.125 1.377-1.566.524-.504.95-1.053 1.472-1.424.953-.994 1.912-1.982 2.943-2.896.035-.045.087-.072.143-.096.016.003.032.003.047.003z"/><path d="m60.649 18.658c-6.215.143-12.924.203-19.133.047-.259-1.574-.179-4.041-.047-5.744 2.418-.27 5.353-.096 8.308-.096.827 0 1.723-.047 2.564-.047.91 0 1.915-.137 2.563.047.596.17 1.144 1.002 1.519 1.377.538.539.998.967 1.472 1.424.476.49.988.943 1.472 1.426.46.459 1.07.883 1.282 1.566z"/><path d="m26.087 14.527c.323.211.229.701.237.998.161 5.805 0 11.873 0 17.803v14.244c0 1.607.231 3.422-.095 4.699-.773 3.023-3.75 4.793-7.691 4.605-3.726-.176-8.264.133-12.201 0-1.978-1.635-3.7-3.639-5.603-5.412-.238-.223-.612-.523-.57-.902 5.554-.193 11.693-.025 17.566-.143.774-.016 1.583.211 2.279-.143.747-.404.475-2.461.475-3.846.001-8.652.005-17.623 0-26.254 1.674-1.982 3.592-3.721 5.412-5.555.032-.062.102-.088.191-.094z"/><path d="m47.309 19.608c.213 9.223.142 18.16.143 27.773 0 1.658-.067 3.203.095 4.652.449 4.023 2.352 7.168 4.938 9.26 1.787 1.445 3.922 2.648 6.409 3.037 2.856.447 6.064.189 9.258.191 3.136 0 6.306-.08 9.353.094.035.426-.398.633-.617.855-1.271 1.291-2.474 2.521-3.846 3.893-.423.422-1.159 1.314-1.661 1.424-.709.154-1.683.031-2.469.049-2.464.047-5.042.059-7.502-.049-1.661-.072-3.248-.166-4.7-.475-1.404-.299-2.723-.754-3.893-1.281-2.35-1.061-4.294-2.418-6.077-4.273-1.71-1.779-2.877-4.016-3.846-6.457-.972-2.447-1.472-5.418-1.472-8.783 0-6.82 0-13.312 0-20.178 0-2.83-.065-5.621-.048-8.783.005-.844-.019-.943.475-1.045.825-.166 1.871.002 2.801 0 .928 0 1.846-.072 2.659.096z"/><path d="m54.335 19.608c.252 8.762.144 17.744.143 26.588 0 .822.04 1.688 0 2.562-.038.851-.053 1.769.048 2.611.355 2.979 2.287 5.02 4.795 5.84 1.364.445 3.103.285 4.796.285 2.643 0 4.583.096 7.168.096 1.656-.002 3.28-.078 4.939 0 .856.039 1.793-.152 2.516 0 .559.115 1.092.9 1.567 1.377.218.217 1.398 1.086 1.424 1.518.029.488-1.275 1.477-1.566 1.758-.621.598-1.047 1.146-1.71 1.566-6.433-.105-12.709.402-18.373-.047-2.741-.219-4.912-1.32-6.741-2.754-1.864-1.463-3.178-3.133-4.179-5.318-1.028-2.246-1.092-5.148-1.092-8.402 0-6.379 0-12.619 0-18.801 0-2.285.025-4.482-.048-6.789-.022-.711-.158-1.525.238-2.137 1.9-.049 4.252-.143 6.075.047z"/><path d="m61.457 19.608c.237 8.246.14 17.896.142 26.824 0 1.43-.248 3.48.523 3.941.499.299 1.502.189 2.278.189 2.293 0 5.14-.037 7.217.047.633.324 1.155.881 1.661 1.377 1.271 1.244 2.517 2.518 3.799 3.799.225.225.609.484.569.854-5.062.184-9.942.143-14.86.143-5.107.002-7.548-2.428-7.549-7.643 0-4.758-.047-9.793-.047-14.766 0-3.693 0-7.264 0-11.109 0-1.06-.127-3.25.189-3.656.035-.045.086-.072.143-.096 1.949.062 4.144-.123 5.935.096z"/></g></svg>