<svg enable-background="new 0 0 73.329 73.499" viewBox="0 0 73.329 73.499" xmlns="http://www.w3.org/2000/svg"><path clip-rule="evenodd" d="m.201 73.379c-.217-7.881-.144-16.14-.143-24.184.002-8.086-.161-16.215.048-24.278 7.841-.247 16.017-.059 24.089.048.325.382.189.929.189 1.38 0 6.337.047 13.304.048 19.947 0 .972-.061 1.924.142 2.809 7.835.256 16.427.107 24.659 0 .26-.972.143-2.016.143-3.047 0-7.305.057-14.431-.143-21.564.01-.041-.018-.045-.047-.048-6.851-.185-14.094-.048-21.184-.048-.97 0-1.944.116-2.857-.143-.038-8.002-.217-16.109 0-24.041 7.867-.383 15.949.182 23.803-.19 3.383-.159 6.504.67 9.045 1.714 5.055 2.077 8.822 5.418 11.568 9.855 1.373 2.219 2.57 4.779 3.141 7.569.609 2.98.449 6.598.572 10.14.121 3.545 0 7.13 0 10.711 0 3.519.113 7.277-.049 10.473-.164 3.264-.893 6.215-2.047 8.665-2.344 4.978-5.65 8.534-10.188 11.234-3.467 2.064-7.486 3.093-12.996 3.094-12.254.002-24.828-.001-37.273 0-3.54 0-7.045.097-10.52-.096z" fill-rule="evenodd"/></svg>