<svg enable-background="new 0 0 181.054 121.337" viewBox="0 0 181.054 121.337" xmlns="http://www.w3.org/2000/svg"><g clip-rule="evenodd" fill-rule="evenodd"><path d="m110.163 0h.1c10.124 16.938 19.976 34.298 30.176 51.304 2.948 4.914 5.584 9.876 8.501 14.815 10.056 17.024 20.059 34.333 30.076 51.353.376.616.718 1.267 1.094 1.889.366.605.901 1.199.944 1.938-19.337.042-38.718.102-58.264-.148-.021-.044-.043-.089-.099-.1-.116-7.384-.051-14.481-.051-22.022 0-1.012-.119-2.068.149-3.033 3.952-.333 8.438.173 12.379-.148.052-.561-.339-1.047-.597-1.491-3.935-6.8-7.814-13.854-11.732-20.73-2.1-3.688-4.209-7.384-6.264-11.086-2.054-3.701-4.166-7.351-6.363-10.937-.811.683-1.206 1.728-1.69 2.634-1.462 2.733-3.299 5.375-4.723 8.203-1.905 3.784-4.128 7.416-6.214 11.036-3.057 5.571-6.298 10.973-9.346 16.555-1.011 1.849-2.188 3.614-3.033 5.567.365.343.962.199 1.442.199 3.749 0 7.489-.028 11.036.149.165 8.114.165 16.938 0 25.104-18.059.188-36.505-.055-54.833-.05-1.163 0-2.343.118-3.48-.148.103-.74.637-1.327.994-1.939 5.476-9.362 11.135-18.789 16.604-28.237 1.463-2.525 2.97-5.021 4.424-7.556.735-1.28 1.394-2.606 2.139-3.878 3.649-6.239 7.313-12.584 11.036-18.841 5.96-10.018 11.792-20.116 17.747-30.126 5.969-10.031 11.775-20.137 17.7-30.176.036-.047.089-.076.148-.1z"/><path d="m24.906.696c.366-.024.664.806.944 1.293 7.156 12.414 14.052 24.937 21.228 37.334.795 1.375 1.534 2.75 2.386 4.126.261.42.6.909.597 1.441-3.1.134-6.471.12-9.545.1-1.04-.007-2.126-.25-3.032.149-.132 2.696.085 5.433 0 8.053-.009.262-.14.521-.149.796-.023.643.092 1.318.1 1.988.013 1.041.146 2.12-.249 2.982.056.344.301.495.249.945.133.515-.397.364-.397.746.081.237.328.311.397.646.165.801.07 2.473 0 3.479-.021.307-.085.571-.149.796.218 1.438.319 4.097-.1 5.518.385.971.303 2.584.299 3.977-.003.762-.05 1.546-.05 2.337 0 .77-.123 1.556-.1 2.286.009.28.138.596.149.945.067 1.986.012 4.112 0 6.214-.016 2.799 0 5.524-.149 8.103-.031.538.132 1.073.149 1.591.02.575.058 2.064-.1 2.486-.118.316-.057.134-.248.248-.209.125-.243.04-.299.299-.107.496.483.666.597 1.044.215.711-.021 2.519-.05 3.33.101 4.681.05 9.981.05 14.964 0 .656.111 1.377-.149 1.988-7.698.113-16.647.141-24.607-.099-.288-25.036.068-51.148-.149-75.763-.962-.218-2.024-.192-3.082-.199-1.993-.014-4.1 0-6.363 0-1.036 0-2.123.12-3.082-.149.744-1.678 1.69-3.28 2.585-4.872 4.434-7.893 9.168-15.721 13.621-23.664.888-1.582 1.765-3.184 2.685-4.772.901-1.556 1.924-3.119 2.684-4.723.489-1.031.961-2.003 1.541-2.983.556-.938 1.024-1.923 1.641-2.833.025-.069.075-.119.147-.147z"/></g></svg>