<svg enable-background="new 0 0 75.541 57.186" viewBox="0 0 75.541 57.186" xmlns="http://www.w3.org/2000/svg"><g clip-rule="evenodd" fill-rule="evenodd"><path d="m67.559 48.662c.331.792.974 1.316 1.517 1.859 1.104 1.104 2.152 2.101 3.327 3.327.346.361 1.732 1.301 1.125 1.908-.545.546-1.653-.852-1.908-1.125-1.179-1.264-2.091-2.091-3.327-3.327-.465-.465-1.22-1.523-1.81-1.517-.308.004-1.021.639-1.321.881-4.355 3.518-9.859 6.294-17.513 6.506-2.76.077-5.424-.237-7.827-.881-4.407-1.18-8.249-3.322-11.447-6.017-3.181-2.679-5.797-5.981-7.484-9.979-1.739-4.12-2.901-9.465-2.202-14.774.704-5.343 2.394-9.332 4.648-12.817 2.182-3.375 5.395-6.411 8.903-8.561 3.634-2.227 7.993-3.849 13.502-4.109 7.198-.34 12.616 1.768 16.975 4.647 4.357 2.877 7.758 6.883 9.979 11.643 1.092 2.34 2.184 5.251 2.544 8.267.386 3.232.479 6.619-.196 9.931-.873 4.291-2.803 8.167-5.039 11.203-.768 1.043-1.683 1.9-2.446 2.935zm-6.848-4.99c-.303-.303-1.667-1.378-1.076-1.957.572-.56 1.558.861 1.859 1.174 1.336 1.388 2.02 2.087 3.327 3.327.403.382 1.254 1.54 1.81 1.517.404-.018.981-.832 1.321-1.223 2.712-3.123 5.108-7.288 5.968-11.985.548-2.995.668-6.382.293-9.491-.355-2.944-1.332-5.691-2.348-7.925-2.048-4.499-5.273-8.388-9.344-11.203-3.978-2.75-9.15-4.878-15.752-4.794-1.319.017-2.669.224-3.865.391-3.607.506-6.574 1.528-9.197 3.082-6.831 4.046-11.797 10.035-13.6 19.128-.996 5.022-.26 10.251 1.125 14.284 2.677 7.794 8.816 13.515 16.339 16.389 1.994.761 4.193 1.33 6.604 1.565 8.12.792 14.431-1.865 19.127-5.186.434-.246.724-.565 1.174-.929.337-.272 1.031-.623 1.027-1.125-.002-.296-.423-.65-.685-.929-.835-.891-1.725-1.715-2.446-2.495-.605-.548-1.042-.995-1.661-1.615z"/><path d="m15.9 1.21c.157 17.789.231 36.022.049 54.056-1.233.265-2.596.147-3.914.147-3.952 0-8.024.083-11.838-.098-.416-8.99.217-18.27-.098-27.395-.078-2.249.096-4.527 0-6.8-.189-4.512-.049-9.011-.049-13.501 0-1.683-.023-3.404 0-4.941.008-.505-.019-1.053.196-1.517 4.959-.049 10.723-.146 15.654.049z"/></g></svg>