<svg enable-background="new 0 0 94.888 28" viewBox="0 0 94.888 28" xmlns="http://www.w3.org/2000/svg"><path d="m27.398.089c.332-.056.479.332.719.493 1.434 1.513 3.013 2.917 4.366 4.494-4.475 4.508-8.931 9.041-13.458 13.497-3.046 3.054-6.004 6.203-9.117 9.196-3.296.067-6.607.001-9.908.031.003-.041.01-.123.013-.163 5.778-5.801 11.593-11.558 17.331-17.385 3.295-3.44 6.793-6.698 10.054-10.163z"/><path d="m20.064 27.588c9.179-9.172 18.279-18.42 27.466-27.588 3.309 3.336 6.592 6.695 9.908 10.02 3.348-3.274 6.6-6.66 9.978-9.894 7.801 8.022 15.72 15.941 23.638 23.857 1.278 1.338 2.585 2.652 3.835 4.014-3.249-.002-6.498.025-9.744-.051-.238.024-.366-.207-.524-.34-3.547-3.57-7.073-7.154-10.64-10.702-2.162-2.255-4.34-4.517-6.625-6.642-1.487 1.337-2.85 2.81-4.29 4.2-.205.219-.513.408-.508.744 4.191 4.195 8.429 8.349 12.505 12.654-3.308.131-6.655.099-9.97.003-2.586-2.547-5.056-5.209-7.698-7.691-2.35 2.202-4.496 4.607-6.818 6.842-.396.312-.667.941-1.254.855-3.187-.027-6.374.013-9.561-.013 4.144-4.308 8.413-8.51 12.656-12.732-1.589-1.703-3.242-3.353-4.925-4.963-5.923 5.865-11.756 11.806-17.633 17.707-3.267-.007-6.534.006-9.801-.01-.207.041-.082-.218.005-.27z"/></svg>