<svg clip-rule="evenodd" fill-rule="evenodd" stroke-linejoin="round" stroke-miterlimit="2" viewBox="0 0 560 400" xmlns="http://www.w3.org/2000/svg"><path d="m138.1 533.2c-10.8-9.2-20.2-20.3-27.5-33-22.4-38.8-22.4-86.3 0-125.1l108.3-187.6 85.6 148.2 37.5-44.7 22.5 39c22.4 38.7 22.4 86.2 0 125.1-22.4 38.8-63.6 62.6-108.3 62.6-29.8 0-57.9-10.5-80.1-29l-.3-.3zm230.2-274.4-149.4-258.8-189.6 328.3c-37.7 65.5-40.5 148.7 0 218.9 13.2 22.8 29.8 42.3 48.8 58.3l37.5-45c39.5 33 89.5 50.8 140.3 50.9 75.6-.1 149-39.3 189.5-109.4s37.7-153.4 0-218.9l-39.4-68.9-.1-.1z" transform="matrix(.421258 0 0 .421258 180.014 71.2215)"/></svg>