<svg clip-rule="evenodd" fill-rule="evenodd" stroke-linejoin="round" stroke-miterlimit="2" viewBox="0 0 560 400" xmlns="http://www.w3.org/2000/svg"><path d="m338.4 318.8 190.5-110c30-17.3 44.7-51.2 39.4-83.6-.1-.4-.3-.6-.6-.8s-.7-.1-1 0l-255.4 147.6c-.5.3-.7 1-.4 1.5l26 45c.3.5 1 .6 1.5.3m40.5 70.3 96.8-55.9c30-17.3 44.7-51.2 39.5-83.6-.1-.4-.3-.6-.6-.8s-.7-.1-1 0l-161.7 93.4c-.5.3-.7 1-.4 1.5l26 45c.3.5.9.7 1.4.4m13.2 24.9 42.4 73.5c.2.3.5.5.9.5h85c.4 0 .7-.2.9-.5s.2-.7 0-1.1l-63.7-110.3c-.3-.5-1-.7-1.5-.4l-63.7 36.8c-.4.3-.6 1-.3 1.5m-74.5-20.7-81.2-140.6c-36.8-63.7-91.9-112.2-165-105.6-27 2.4-52.9 12.8-71.2 31.7-.3.3-.3.7-.1 1s.7.4 1 .3c15.6-7.6 33.5-9.9 51-9.7 52.6.8 95.7 37 123.9 85.8l94.7 164.1c24.8 43 67.5 67.6 117.1 67.6h13.8c.4 0 .7-.2.9-.5s.2-.7 0-1.1l-35.8-61.9c-.2-.4-.6-.6-1.1-.5-16.7 2-33.9-5.8-42.8-21.3zm-70.2 40.6-94.6-164c-15.5-26.9-31-46.9-48.8-61.1-27.4-21.8-67-32.5-101.4-23.7-.5.1-.8.6-.8 1.1s.4.9.9 1c7.6 1.6 15 4.4 21.7 8.3 21.9 12.6 40.9 31 54.4 54.5l81.1 140.6c30.3 52.4 78.9 85.9 136.5 94.9.4.1.8-.2.9-.5.1-.4 0-.8-.4-1-20-11.5-37.1-28.4-49.5-50.1zm50.4-185.3 284.2-164.1c30-17.3 44.7-51.2 39.5-83.6-.1-.4-.3-.6-.6-.8s-.7-.1-1 0l-349.2 201.6c-.5.3-.7 1-.4 1.5l26 45c.3.5 1 .7 1.5.4" transform="matrix(.409823 0 0 .409823 152.445 100.006)"/></svg>