<svg enable-background="new 0 0 77.069 68.174" viewBox="0 0 77.069 68.174" xmlns="http://www.w3.org/2000/svg"><path clip-rule="evenodd" d="m76.854.131c.326 2.671.058 5.517.147 8.365.088 2.794.073 5.69-.049 8.464-.123 2.797.195 5.618.099 8.414-.098 2.816.113 5.594-.147 8.316-1.041.274-2.198.116-3.346.147-3.425.093-7.217-.213-10.58.099-.26.633-.147 1.343-.147 2.018 0 10.025.049 19.985.049 30.114 0 .647.116 1.355-.147 1.968-6.081.103-12.939.252-18.945 0-.126-3.207-.23-6.398-.148-9.841.025-1.041 0-2.097 0-3.149 0-13.193-.168-26.87.049-40.055 2.955-.288 6.241.03 9.448-.099 3.217-.128 6.443-.058 9.497.05.242 1.024.157 2.154.197 3.297.117 3.371-.168 7.11.098 10.383 2.711.163 6.098.163 8.808 0 .232-.817.17-1.816.197-2.805.071-2.578-.049-5.681-.049-8.71-.001-3.997.081-8.047-.099-11.859-1.305-.182-2.663-.14-3.986-.098-1.375.043-2.755 0-4.133 0-13.882-.001-27.748-.047-41.778-.049-5.562-.002-11.134-.103-16.631.147-.193.897-.15 1.85-.148 2.806.012 6.655-.061 13.589.099 20.568 1.306.301 2.831.099 4.33.098 1.514 0 3.063.041 4.527-.049.332-1.02.197-2.208.197-3.395 0-2.311.013-4.727 0-7.086-.006-1.132-.101-2.256.099-3.247 6.078-.114 12.83-.289 18.945 0 .261 2.198.148 4.464.148 6.692 0 6.761.049 13.554.049 20.224 0 7.441.049 15.181.049 23.078 0 1.049.114 2.112-.197 3.1-6.098.042-12.827.237-18.895.05-.265-2.794-.148-5.704-.148-8.562 0-8.722.045-17.1-.148-25.587-3.371-.22-7.118-.049-10.629-.05-1.165 0-2.336.115-3.395-.147-.169-11.057-.186-22.775-.05-33.56.59-.263 1.273-.147 1.919-.148 24.61-.003 50.063-.117 74.844.098zm-52.898 19.781c-1.507.041-3.121-.045-4.478.197-.131 2.646-.217 5.993 0 8.513 2.748.201 6.027.092 8.759-.05.137-2.753.213-6.107 0-8.513-1.275-.234-2.845-.186-4.281-.147zm24.85.197c-.132 2.629-.213 6.021 0 8.513.622.253 1.377.147 2.116.147 2.264 0 4.614.001 6.643-.147.264-1.234.147-2.786.147-4.281 0-1.498.113-3.042-.147-4.281-2.703-.158-6.126-.19-8.759.049zm-29.328 13.827c-.255.671-.107 1.408-.098 2.116.08 6.371-.112 13.596.049 20.322.054 2.245-.172 4.457.098 6.544 1.289.279 2.808.127 4.281.099 1.498-.029 3.069.102 4.478-.099.24-2.259.148-4.635.148-7.036 0-2.414-.049-4.867-.049-7.332 0-4.948.118-9.966-.148-14.664-2.738-.193-6.062-.125-8.759.05zm30.312-.098c-.343.017-.776.009-1.033.196-.099 8.975-.104 19.471.098 28.885.616.258 1.381.147 2.116.147 2.241 0 4.739.106 6.692-.147.184-9.683.145-19.646-.049-28.982-2.35-.093-5.4-.214-7.824-.099z" fill-rule="evenodd"/></svg>