<svg clip-rule="evenodd" fill-rule="evenodd" stroke-linejoin="round" stroke-miterlimit="2" viewBox="0 0 560 400" xmlns="http://www.w3.org/2000/svg"><path d="m248.5 0c-137.2 0-248.5 111.3-248.5 248.5 0 110.7 72.3 204.4 172.3 236.6v132.8h151.4v-132.5c100.5-31.9 173.3-125.9 173.3-236.9 0-137.2-111.3-248.5-248.5-248.5zm-190.3 294.6c-18 0-32.6-14.6-32.6-32.6s14.6-32.6 32.6-32.6 32.6 14.6 32.6 32.6-14.6 32.6-32.6 32.6zm94.4 94.4c-18 0-32.6-14.6-32.6-32.6s14.6-32.6 32.6-32.6 32.6 14.6 32.6 32.6-14.6 32.6-32.6 32.6zm0-94.4c-18 0-32.6-14.6-32.6-32.6s14.6-32.6 32.6-32.6 32.6 14.6 32.6 32.6-14.6 32.6-32.6 32.6zm0-94.4c-18 0-32.6-14.6-32.6-32.6s14.6-32.6 32.6-32.6 32.6 14.6 32.6 32.6-14.6 32.6-32.6 32.6zm123.7 371.1h-56.6v-155.9h56.6zm-29.3-182.3c-18 0-32.6-14.6-32.6-32.6s14.6-32.6 32.6-32.6 32.6 14.6 32.6 32.6-14.6 32.6-32.6 32.6zm0-94.4c-18 0-32.6-14.6-32.6-32.6s14.6-32.6 32.6-32.6 32.6 14.6 32.6 32.6-14.6 32.6-32.6 32.6zm0-94.4c-18 0-32.6-14.6-32.6-32.6s14.6-32.6 32.6-32.6 32.6 14.6 32.6 32.6-14.6 32.6-32.6 32.6zm0-94.4c-18 0-32.6-14.6-32.6-32.6s14.6-32.6 32.6-32.6 32.6 14.6 32.6 32.6-14.6 32.6-32.6 32.6zm94.4 283.2c-18 0-32.6-14.6-32.6-32.6s14.6-32.6 32.6-32.6 32.6 14.6 32.6 32.6-14.6 32.6-32.6 32.6zm0-94.4c-18 0-32.6-14.6-32.6-32.6s14.6-32.6 32.6-32.6 32.6 14.6 32.6 32.6-14.6 32.6-32.6 32.6zm0-94.4c-18 0-32.6-14.6-32.6-32.6s14.6-32.6 32.6-32.6 32.6 14.6 32.6 32.6-14.6 32.6-32.6 32.6zm94.4 94.4c-18 0-32.6-14.6-32.6-32.6s14.6-32.6 32.6-32.6 32.6 14.6 32.6 32.6-14.6 32.6-32.6 32.6z" fill-rule="nonzero" transform="matrix(.436964 0 0 .436964 171.414 65)"/></svg>