<svg enable-background="new 0 0 83.165 68.391" viewBox="0 0 83.165 68.391" xmlns="http://www.w3.org/2000/svg"><path clip-rule="evenodd" d="m12.929 9.155c3.798-2.802 7.898-4.785 12.521-6.434 2.366-.845 4.887-1.48 7.522-1.931 1.369-.233 2.707-.493 4.157-.594 4.017-.278 8.605-.34 12.372.347 6.988 1.273 13.11 3.46 18.213 6.631 1.698 1.057 3.252 2.298 4.751 3.563 1.515 1.28 2.87 2.63 4.058 4.207 3.525 4.683 6.444 10.376 6.632 18.262.191 8.087-2.496 14.074-5.89 18.855-1.712 2.412-3.765 4.484-6.087 6.384-2.25 1.84-4.854 3.335-7.671 4.751-5.517 2.773-12.012 4.569-19.746 5.098-5.129.35-10.465-.271-14.896-1.485-8.536-2.34-16.181-6.206-21.182-11.976-2.531-2.922-4.697-6.354-6.087-10.492-.685-2.04-1.289-4.372-1.484-6.829-.656-8.224 1.653-14.982 4.8-19.846 2.152-3.327 4.797-6.061 8.017-8.511zm21.924-3.415c-2.357 1.791-3.824 3.836-4.306 7.176-.916 6.356 3.137 10.712 7.72 12.026 2.416.692 4.994.49 7.227-.446 1.812-.76 3.467-2.038 4.701-3.761 1.173-1.637 2.116-3.824 2.128-6.334.016-3.366-1.618-6.15-3.415-7.82-1.892-1.757-4.576-3.23-8.363-2.919-2.495.204-4.176.926-5.692 2.078zm-3.118 22.122c-1.712 1.389-3.101 3.102-4.651 4.651-1.548 1.548-3.155 3.056-4.652 4.652-2.621 2.796-5.544 5.396-8.116 8.165-.362.391-.934.703-1.039 1.287 1.442.304 2.988.099 4.553.099 4.744.001 9.734-.081 14.253.1.367 5.88-.078 12.39.248 18.36.581.05.846-.635 1.236-.94 4.364-4.147 8.628-8.396 12.917-12.619.847-.743 1.525-1.495 2.375-2.277.504-.463 2.083-1.717 2.228-2.425.135-.658 0-1.555 0-2.375.001-5.516.081-11.451-.099-16.629-6.571-.238-13.072-.006-19.253-.049z" fill-rule="evenodd"/></svg>