<svg enable-background="new 0 0 78.673 74.79" viewBox="0 0 78.673 74.79" xmlns="http://www.w3.org/2000/svg"><path clip-rule="evenodd" d="m59.048 74.779c-.293-1.046-.199-2.165-.199-3.225.001-3.319 0-6.746 0-10.023.001-4.533-.945-7.919-2.58-10.916-2.372-4.349-5.959-7.556-11.064-9.18-1.731-.55-3.543-.858-5.806-.942-4.203-.158-7.732 1.214-10.42 2.977-4.746 3.113-8.197 7.704-9.08 14.538-.13 1.005-.049 2.115-.05 3.324 0 3.811.001 7.896 0 11.809 0 .492.111 1.071-.148 1.538-.527.197-.959-.325-1.34-.546-1.242-.721-2.495-1.668-3.622-2.58-1.533-1.242-2.943-2.655-4.218-4.068-4.592-5.063-8.244-11.239-9.774-19.203-.825-4.294-.953-9.197-.446-13.545.487-4.185 1.733-8.061 3.175-11.313 2.926-6.598 7.363-12.004 13-15.977 4.254-2.998 9.062-5.483 15.084-6.649 1.023-.198 2.061-.338 3.126-.496 5.529-.821 12.081.136 16.474 1.588 9.174 3.031 16.126 8.663 21.038 15.927.503.743.957 1.489 1.39 2.282.428.786.733 1.658 1.141 2.531 1.531 3.281 2.938 7.069 3.523 11.263.61 4.382.588 9.159-.248 13.546-1.571 8.244-4.869 14.792-9.576 19.947-2.348 2.519-5.025 4.828-8.039 6.748-.394.25-.8.733-1.341.645zm-33.84-68.175c-1.606 1.698-2.837 3.611-3.87 5.855-1.047 2.274-1.539 4.957-1.539 8.237.001 2.996.82 5.556 1.886 7.84 1.048 2.245 2.398 4.154 4.069 5.705 1.661 1.544 3.534 2.944 5.854 3.92 2.257.949 5.02 1.793 8.088 1.687 5.821-.201 10.233-2.84 13.446-6.053 1.652-1.652 2.867-3.518 3.87-5.855.985-2.295 1.669-5.053 1.638-8.137-.03-2.954-.833-5.574-1.886-7.84-2.065-4.446-5.289-7.7-9.874-9.676-2.149-.926-5.146-1.797-8.137-1.637-6.184.331-10.426 2.654-13.545 5.954z" fill-rule="evenodd"/></svg>