<svg enable-background="new 0 0 15.776 15.613" viewBox="0 0 15.776 15.613" xmlns="http://www.w3.org/2000/svg"><path d="m.058.002c2.712-.003 5.423.018 8.135.013 1.013.011 2.025-.037 3.037-.003 1.252-.007 2.505.016 3.757.011.263-.008.526.025.788-.003 0 1.961-.01 3.921-.012 5.882-.036.729-.011 1.46-.018 2.19.007 2.485-.011 4.969-.014 7.453-.858.045-1.719.021-2.579.036-.343-.014-.685.026-1.027.018-2.308.003-4.616-.007-6.924.013-1.133.002-2.266-.001-3.399-.005-.596-.02-1.193-.021-1.79-.009.002-.192.008-.385-.012-.577.026-.342.01-.686.014-1.029-.001-1.505.002-3.01-.001-4.515-.026-.373.035-.745-.003-1.118.02-.715.012-1.431.016-2.146-.001-2.07.026-4.14.032-6.211zm.18.217c.002 2.501-.014 5.003-.024 7.504 2.54.018 5.08.009 7.621.009.002-.625.002-1.25 0-1.874-1.9-.003-3.8.004-5.7-.013.002-.305.006-.609-.003-.913 1.843-.002 3.684.036 5.527.03.061-.004.185.01.175-.085.001-.611.003-1.222-.001-1.833-.461 0-.923 0-1.383.003-.328.031-.656.006-.984.01-1.112 0-2.221-.026-3.332-.025-.001-.319.002-.636.002-.954 1.021 0 2.042.008 3.062.017.358.026.716.009 1.073.015.523.002 1.046-.007 1.569-.007.05-.619.006-1.242.009-1.863-1.092-.013-2.185.017-3.275-.025-.493-.003-.986-.002-1.479-.004-.654.04-1.309-.013-1.964.006-.298.012-.596-.018-.893.002zm7.826.021c.015.59-.009 1.181-.005 1.77v3.083c-.007.884.014 1.767-.011 2.649 1.925.001 3.851-.004 5.777-.013.563.003 1.127.011 1.69.001.012-.012.037-.037.049-.049.018-.599-.009-1.199-.014-1.798-1.891-.001-3.782-.015-5.673-.014.029-.316.008-.635.014-.952-.006-1.56.012-3.121-.009-4.681-.204-.023-.412-.007-.617-.01-.4.032-.801.008-1.201.014zm-3.251 7.675c-.099.134-.181.28-.271.42-.037.063-.078.123-.115.186-.045.074-.092.147-.135.222-.122.192-.239.388-.357.582-.037.055-.073.113-.109.17-.036.064-.075.125-.113.188-.083.13-.163.261-.245.391-.103.165-.207.329-.312.494-.08.138-.171.269-.25.407-.078.118-.151.238-.224.359-.122.193-.243.386-.357.583-.037.056-.072.114-.109.171-.072.121-.148.24-.224.359-.043.074-.09.147-.135.22-.074.12-.142.244-.224.359-.077.118-.143.242-.223.358-.038.062-.077.123-.114.186-.079.116-.148.239-.223.358-.031.044-.061.089-.089.134-.037.056-.073.114-.11.17-.074.119-.147.24-.223.359-.037.063-.077.124-.114.186-.038.056-.073.114-.109.171-.085.141-.181.276-.267.417.012.011.035.032.047.043.726-.017 1.453.003 2.181-.005.195-.31.394-.618.577-.935.973.003 1.946 0 2.919-.003.004.313.006.626.006.939.632.006 1.263.029 1.895.017.013-.417-.012-.835.019-1.251.025-2.081.018-4.161.011-6.242-.214-.024-.432-.013-.649-.015-.785.001-1.57-.003-2.354.002zm3.24.015c-.019.754.001 1.508-.003 2.263-.004 1.162-.011 2.324-.016 3.486-.037.561-.018 1.124-.017 1.685.013.013.04.04.053.054.458.008.917.004 1.376-.003.447-.017.894.023 1.341-.008 1.583-.052 3.167-.029 4.751-.054.005-.619.002-1.238.001-1.858-1.183.013-2.366-.005-3.55.009-.699.042-1.398.044-2.098.04-.012-.565.014-1.131-.015-1.696.001-1.308.004-2.617 0-3.925-.606.004-1.214-.006-1.823.007z"/><path d="m5.675 10.083c.076-.125.154-.25.244-.366.019.968-.025 1.936-.02 2.904-.598.002-1.197 0-1.795.002.532-.84 1.045-1.694 1.571-2.54z"/></svg>