<svg enable-background="new 0 0 29.879 29.49" viewBox="0 0 29.879 29.49" xmlns="http://www.w3.org/2000/svg"><path d="m6.086 8.556s.449-1.327 1.052-1.72c0 0 1.112-.89 2.485-.365 0 0 1.16.404 1.51 1.564 0 0 .271.663.002 1.522-.27.859-2.729 8.095-2.729 8.095l-3.342 9.815s-.809 2.894-3.674 1.724c0 0-1.635-.931-1.359-2.709 0 0 .074-.287.283-.935.21-.649 5.772-16.991 5.772-16.991"/><path d="m10.672 14.74s.471-1.949 1.973-2.369c0 0 1.307-.503 2.449.608 0 0 .92.834.811 1.752 0 0 .057.528-.387 1.726l-3.627 10.636s-.664 2.717-3.029 2.365c0 0-1.753-.102-2.146-2.133 0 0-.195-.417.248-1.698.441-1.281 3.708-10.887 3.708-10.887"/><path d="m19.178 9.327.498-1.448s1.137-2.423 3.42-1.425c0 0 1.615.693 1.535 2.223 0 0 .057.585-.443 1.866l-5.731 16.873s-.908 2.785-3.555 1.871c0 0-2.482-.914-1.15-4.033z"/><path d="m24.641 13.032-2.6 7.485 2.74 6.965s.797 2.275 2.832 1.976c0 0 1.621-.099 2.246-1.786 0 0 .104-.993-.17-1.811-.275-.818-3.742-9.517-3.742-9.517z"/><path d="m13.589 2.848c.003 1.563-1.263 2.833-2.825 2.835-1.563.003-2.833-1.262-2.835-2.825-.003-1.563 1.261-2.832 2.825-2.835 1.562-.002 2.832 1.262 2.835 2.825"/><path d="m18.191 8.88c.002 1.563-1.262 2.833-2.825 2.835-1.564.003-2.833-1.262-2.835-2.825-.003-1.563 1.262-2.833 2.825-2.835 1.564-.003 2.832 1.262 2.835 2.825"/><path d="m26.895 2.63c-.004-1.455-1.186-2.633-2.641-2.63-.137 0-.27.014-.4.034l.002-.003s-1.484.066-2.316 1.682l-1.197 3.485s-.113.199 0 .198l3.539-.006s1.603-.081 2.162-.817l-.002-.002c.524-.483.853-1.173.853-1.941"/></svg>