<svg enable-background="new 0 0 73.04 75.806" viewBox="0 0 73.04 75.806" xmlns="http://www.w3.org/2000/svg"><g clip-rule="evenodd" fill-rule="evenodd"><path d="m20.037.013c.401.641.241 1.457.241 2.168v7.179c-.001 20.532.096 41.025.096 61.817.001.686-.057 1.524-.048 2.361.01.858.224 1.959-.241 2.216-2.181.071-4.151-.526-5.926-1.156-5.198-1.846-8.923-5.703-11.467-10.214-1.774-3.147-2.446-7.389-2.603-11.901-.163-4.746 0-9.551 0-14.166.001-2.375-.096-4.8-.048-7.227.046-2.352-.114-4.729 0-7.131.115-2.42-.062-4.727.289-6.842 1.004-6.039 4.32-10.225 8.385-13.298 1.338-1.011 2.887-1.866 4.674-2.554 1.917-.736 4.38-1.365 6.648-1.252z"/><path d="m53.138.11c.709-.132 2.471.271 3.229.434 5.739 1.236 10.145 4.679 12.864 8.914 1.368 2.13 2.589 4.791 3.229 7.661.445 2 .53 4.204.53 6.746-.002 9.782.049 18.611.048 28.716-.001 2.52.063 4.875-.337 6.938-.39 2-1.077 3.752-1.88 5.348-1.642 3.265-3.844 5.512-6.89 7.613-2.076 1.431-4.623 2.524-7.902 2.987-.798.113-2.593.612-3.18.145-.463-.369-.24-3.678-.24-4.673-.002-11.612-.052-21.647-.049-33.438.001-3.207-.045-6.495-.048-9.54-.003-3.145-.079-6.328 0-9.636.065-2.703.056-5.874.048-9.299-.005-1.999.068-4.53-.048-6.987-.039-.826-.129-1.789.626-1.929z"/><path d="m34.685 3.193c4.931-.436 8.542 1.604 10.889 3.951 1.812 1.811 3.505 4.805 3.951 7.853.541 3.695-.415 7.103-1.928 9.492-1.481 2.341-3.675 4.23-6.504 5.3-3.256 1.231-6.561 1.009-9.781-.145-1.32-.473-2.616-1.369-3.661-2.265-2.888-2.475-5.705-6.951-4.915-12.479.483-3.383 1.954-5.981 3.951-7.854 1.385-1.299 3.2-2.713 5.444-3.373.79-.23 1.677-.402 2.554-.48z"/><path d="m23.555 30.994c.342-.016.564.622.819 1.012.696 1.066 1.51 2.073 2.36 2.891 1.087 1.045 2.812 2.273 4.143 2.891 2.553 1.184 5.868 1.539 8.77.916 2.834-.609 5.01-1.893 6.793-3.566.869-.815 1.711-1.628 2.409-2.794.277-.463.916-1.805 1.012-.241.132 2.143.001 4.892 0 6.746-.001 6.629.035 12.635 0 18.839-.007 1.271.276 2.89-.048 4.047-.318 1.134-1.289 2.353-2.12 3.229-2.491 2.625-6.173 5.029-11.082 4.963-4.953-.067-8.3-2.345-10.984-5.06-.389-.392-.816-.887-1.205-1.445-.357-.51-.848-1.199-.964-1.783-.218-1.1-.089-2.492-.096-3.758-.04-7.284 0-14.727 0-22.838 0-1.318-.038-2.812.048-3.902.028-.072.075-.12.145-.147z"/></g></svg>