<svg enable-background="new 0 0 26.625 40.223" viewBox="0 0 26.625 40.223" xmlns="http://www.w3.org/2000/svg"><path d="m8.053 14.421h-1.824-6.229v5.157h7.667v2.684h-7.667v5.042h7.667v12.919h5.245v-21.027c-.412-5-4.859-4.775-4.859-4.775"/><path d="m18.573 14.421h1.823 6.229v5.157h-7.667v2.684h7.667v5.042h-7.667v12.919h-5.244v-21.027c.411-5 4.859-4.775 4.859-4.775"/><path d="m13.354 0c-3.981 0-7.21 3.228-7.21 7.21 0 3.98 3.228 7.209 7.21 7.209 3.981 0 7.209-3.229 7.209-7.209-.001-3.983-3.228-7.21-7.209-7.21m.438.964c1.043.072 2.017.398 2.857.921-.545 1.086-1.605 1.861-2.857 1.99zm3.625 1.481c1.254 1.071 2.08 2.627 2.187 4.377h-5.812v-2.03c1.564-.126 2.901-1.041 3.625-2.347m-4.501-1.481v2.895c-1.22-.172-2.241-.956-2.758-2.036.818-.486 1.755-.791 2.758-.859m-3.535 1.404c.692 1.308 1.998 2.237 3.535 2.406v2.048h-5.814c.11-1.793.973-3.383 2.279-4.454m3.535 11.087c-1-.069-1.936-.372-2.751-.856.519-1.072 1.537-1.85 2.751-2.019zm-3.527-1.398c-1.284-1.051-2.141-2.604-2.277-4.358h5.805v1.966c-1.533.167-2.834 1.092-3.528 2.392m4.403 1.398v-2.89c1.246.129 2.302.898 2.849 1.975-.839.519-1.81.844-2.849.915m3.616-1.476c-.725-1.297-2.06-2.205-3.616-2.331v-1.95h5.803c-.133 1.713-.952 3.232-2.187 4.281"/></svg>