<svg enable-background="new 0 0 172.54 99.027" viewBox="0 0 172.54 99.027" xmlns="http://www.w3.org/2000/svg"><g clip-rule="evenodd" fill-rule="evenodd"><path d="m122.127.037c3.76-.178 8.127.299 11.298 1.082 9.997 2.473 17.936 6.875 24.1 13.039 4.24 4.24 7.61 8.66 10.31 14.451 2.564 5.502 4.708 12.426 4.706 20.004 0 4.148-.223 7.863-.988 11.299-.758 3.404-1.675 6.564-2.918 9.461-2.456 5.719-5.98 10.389-10.026 14.686-3.964 4.211-8.814 7.639-14.451 10.309-5.551 2.631-12.376 4.66-20.052 4.66-10.252 0-18.246-2.441-24.854-6.119-.676-.377-1.326-.748-1.977-1.129-.629-.369-1.173-.859-1.788-1.271-2.46-1.648-4.643-3.518-6.825-5.555-4.28-3.992-7.551-8.826-10.356-14.404-1.379-2.742-2.396-5.871-3.2-9.178-.821-3.381-1.317-6.982-1.412-10.922-.186-7.736 1.481-14.957 4.001-20.568 3.861-8.604 9.205-15.336 16.568-20.523 2.434-1.715 4.928-3.344 7.721-4.66 5.409-2.553 12.157-4.664 20.052-4.66.029-.002.06 0 .091-.002zm24.995 54.227c1.617-8.947-1.885-16.303-5.884-20.947-1.364-1.584-3.056-2.973-4.942-4.236-3.667-2.455-8.345-4.275-14.451-3.955-4.771.252-8.51 1.644-11.768 3.719-3.113 1.982-5.744 4.598-7.673 7.627-2.011 3.158-3.499 6.893-3.812 11.484-.323 4.736.868 9.182 2.589 12.662 3.362 6.799 9.363 11.56 17.416 13.18 4.596.924 9.594.361 13.228-1.129 3.706-1.52 6.655-3.328 9.132-6.215 2.864-3.188 5.245-7.099 6.165-12.19z"/><path d="m36.6 3.52c-.096.856-.682 1.619-1.083 2.4-5.991 11.656-10.209 25.514-10.685 42.693-.131 4.73.199 9.285.706 13.557 1.003 8.455 2.956 15.943 5.649 22.783 1.019 2.584 1.981 5.109 3.154 7.531.387.799.888 1.57 1.083 2.447-8.954.217-18.055.053-26.925-.047-.434-.193-.462-.736-.612-1.129-2.338-6.09-4.324-12.889-5.743-19.959-2.22-11.068-2.786-25.596-1.364-38.033 1.27-11.12 3.96-21.132 7.577-30.171.331-.828.69-2.172 1.365-2.26.935-.121 2.222.047 3.295.047 7.838 0 15.811.008 23.583.141z"/><path d="m83.341 3.662c-.064.457-.547.77-.895 1.082-.369.332-.752.66-1.082.988-5.335 5.105-10.171 11.15-13.604 18.451-3.391 7.213-5.979 15.682-5.978 26.031.001 15.662 5.114 26.996 11.768 36.244 1.957 2.721 4.102 5.23 6.449 7.578.317.318.767.643.847 1.131-10.374.045-20.872-.023-31.349-.094-1.073-1.359-1.928-3.039-2.777-4.66-.852-1.625-1.617-3.32-2.4-4.99-1.589-3.389-2.78-7.049-4.002-10.826-2.419-7.482-3.489-16.262-3.435-26.078.025-4.689.617-9.25 1.365-13.463.738-4.16 1.816-8.068 3.012-11.768 2.055-6.354 4.875-12.371 8.238-17.697.407-.646 1.082-2.006 1.647-2.072 1.139-.131 2.824-.047 4.236-.047 9.088-.001 18.611.079 27.96.19z"/></g></svg>