<svg enable-background="new 0 0 73.8 36.001" viewBox="0 0 73.8 36.001" xmlns="http://www.w3.org/2000/svg"><path clip-rule="evenodd" d="m42.522 11.016c.253-.312.12-.754.138-1.146.12-2.736-.07-6.088.137-8.793 2.123-.166 4.407-.091 6.686-.091 2.244 0 4.514-.142 6.686-.046 2.337.103 4.714-.112 6.731.046 2.015.157 3.708.744 5.221 1.511 2.949 1.494 5.221 4.069 5.221 8.289 0 3.493-1.144 5.45-3.022 7.098-.576.505-1.345.795-1.877 1.466.383.643 1.078.831 1.557 1.236 1.042.882 2.003 2.447 2.427 3.938.672 2.36.473 5.241.778 8.014.05.454.104.833.229 1.236.11.356.345.656.367 1.054-2.38.229-5.227.091-7.877.092-.784 0-1.999.154-2.473-.138-.854-.527-.624-3.021-.733-4.442-.246-3.2-.757-6.231-3.526-6.915-.799-.196-1.944-.137-3.068-.137-1.012 0-2.108-.102-3.068.137-.261 3.683.037 7.671-.229 11.403-.75.242-1.61.138-2.473.138-2.479 0-5.223.162-7.51-.092-.209-1.54-.092-3.226-.092-4.9 0-1.669-.003-3.38-.137-5.037-.291.147-.429.522-.55.778-.411.875-.819 1.779-1.282 2.656-.646 1.225-1.747 2.316-2.839 3.297-3.058 2.744-7.947 4.869-13.922 4.213-6.025-.661-10.56-4.061-13.097-8.288-.376-.628-.591-1.354-1.053-1.97-.31.622-.184 1.418-.184 2.198 0 2.27.074 4.909-.091 7.053-1.448.246-3.14.137-4.763.137-1.591 0-3.225.092-4.671-.091-.25-1.344-.138-2.749-.138-4.122 0-9.374-.073-19.69.092-29.263 3.025-.128 6.364-.208 9.388-.045.242.63.138 1.373.138 2.107 0 2.121-.048 4.468.137 6.411.595-.507.867-1.26 1.282-1.878 1.257-1.872 2.647-3.619 4.58-4.9 2.524-1.673 5.625-3.018 9.571-3.205 3.752-.179 6.759.636 9.342 1.97 2.396 1.237 4.626 3.137 5.954 5.312.733 1.203 1.232 2.53 2.013 3.709zm-19.92-1.466c-.901.63-1.766 1.648-2.244 2.519-1.214 2.211-1.601 6.712-.779 9.8.549 2.063 1.736 3.854 3.16 4.763 1.925 1.229 4.934 1.187 6.914-.138 2.187-1.462 3.481-4.771 3.481-8.426 0-1.2 0-2.481-.32-3.664-.855-3.148-3.1-6.322-7.419-5.861-1.165.123-2.088.513-2.793 1.007zm33.979 6.045c1.32.061 2.704.149 3.709.046 2.4-.249 3.43-3.684 1.786-5.496-.916-1.01-2.423-.904-4.488-.915-1.844-.011-3.034-.126-4.534.091-.244.847-.137 1.981-.137 3.068 0 1.104-.102 2.25.137 3.114.984.227 2.261.032 3.527.092z" fill-rule="evenodd"/></svg>