<svg enable-background="new 0 0 81.516 82.08" viewBox="0 0 81.516 82.08" xmlns="http://www.w3.org/2000/svg"><path clip-rule="evenodd" d="m40.783 0c.509.199 1.469 1.244 2.056 1.85 4.387 4.529 9.002 9.055 13.405 13.457 5.175 5.174 10.232 10.322 15.255 15.408 1.526 1.879 3.331 3.486 5.034 5.19.855.855 1.712 1.711 2.568 2.568.839.838 1.756 1.662 2.414 2.67-3.246 3.568-6.734 6.895-10.067 10.375-3.335 3.48-6.739 6.891-10.17 10.274-5.999 5.92-11.995 11.842-17.978 17.824-.843.842-1.604 1.801-2.619 2.465-3.527-3.305-6.858-6.805-10.273-10.221-.856-.857-1.609-1.816-2.466-2.672-2.522-2.523-5.096-5.096-7.653-7.652-6.822-6.825-13.598-13.696-20.289-20.649.699-.996 1.616-1.82 2.466-2.672 4.197-4.197 8.502-8.451 12.738-12.687 4.217-4.215 8.441-8.492 12.688-12.738 4.196-4.195 8.409-8.543 12.738-12.685.037-.05.093-.08.153-.105zm-16.539 19.98c-.352.354-.985.947-.976 1.233.009.266.692.898.976 1.182 1.122 1.123 2.223 2.223 3.236 3.236 1.433 1.434 2.835 3.092 4.212 4.469 2.21 2.211 4.326 4.326 6.472 6.473.724.723 1.366 1.557 2.26 2.105 1.569-1.367 3.112-2.791 4.521-4.314 3.54-3.836 7.393-7.494 11.043-11.147.737-.738 1.6-1.404 2.157-2.311-1.023-1.312-2.275-2.48-3.492-3.699-.257-.256-.913-1.09-1.336-1.078-.303.008-.613.428-.873.668-.891.82-1.538 1.66-2.362 2.361-2.551 2.57-5.535 5.588-8.219 8.27-.287.289-.876 1.092-1.284 1.08-.626-.021-1.304-1.279-1.592-1.594 3.361-3.617 7.271-7.527 10.889-11.144.346-.346 1.508-1.18 1.49-1.695-.014-.375-.692-.848-.977-1.131-1.151-1.15-2.065-2.299-3.338-3.133-3.538 3.32-7.472 7.316-11.044 10.889-.355.355-1.275 1.506-1.694 1.49-.373-.014-1.551-1.332-1.541-1.643.009-.322.432-.543.719-.822 1.912-1.867 3.621-3.793 5.444-5.547 1.612-1.463 3.146-3.096 4.726-4.676.335-.334 1.498-1.133 1.489-1.643-.006-.383-.695-.801-1.027-1.131-.777-.772-1.381-1.381-2.157-2.156-.351-.352-.784-1.029-1.283-.976-5.435 5.179-11.052 11-16.439 16.384zm35.596 3.032c-4.385 4.322-8.813 8.762-13.201 13.148-1.028 1.029-2.236 2.156-3.287 3.287-.335.361-.999.879-.976 1.234.025.383 1.159 1.346 1.593 1.797 3.959 4.121 8.026 7.885 11.813 11.967.797.711 1.49 1.523 2.26 2.262.775.742 1.46 1.598 2.363 2.207.968-.607 1.672-1.476 2.465-2.26.336-.408.718-.717 1.182-1.182.253-.254 1.078-.879 1.078-1.283 0-.395-1.069-1.275-1.335-1.541-3.354-3.354-6.877-6.969-10.017-10.17-.482-.629-1.229-.996-1.54-1.797.354-.311 1.061-1.512 1.644-1.49.472.018 1.298 1.133 1.695 1.541 2.766 2.84 5.471 5.574 8.166 8.27 1.117 1.115 2.083 2.385 3.339 3.234 1.203-.877 2.188-1.957 3.236-3.08.309-.332.984-.727.976-1.182-.007-.365-.786-1.016-1.079-1.336-2.713-2.979-5.981-5.889-8.577-8.629-.569-.498-1.047-1.047-1.644-1.645-.314-.314-1.541-1.289-1.541-1.746 0-.393 1.25-1.619 1.644-1.592.454.031 1.209 1.158 1.644 1.592 2.801 2.801 5.382 5.33 8.167 8.115.474.475 1.014 1.016 1.541 1.695.357.461 1.273 1.596 1.695 1.592.418-.002 1.038-.885 1.284-1.129.943-.943 1.538-1.539 2.465-2.465.295-.295 1.106-.967 1.079-1.389-.016-.232-.684-.838-1.028-1.18-1.976-1.977-3.862-3.705-5.598-5.701-.697-.803-1.523-1.461-2.261-2.262-2.579-2.793-5.135-5.289-7.807-7.961-.413-.414-.943-1.021-1.284-1.027-.06.028-.116.057-.154.106zm-37.753 36.724c3.05 3.051 6.123 6.328 9.246 9.451 2.649 2.65 5.405 5.508 8.115 8.219.387.387.909 1.088 1.284 1.078.345-.008.905-.752 1.182-1.027 2.628-2.629 5.232-5.18 7.756-7.705 2.509-2.508 5.11-5.225 7.756-7.705.284-.266 1.052-.828 1.027-1.232-.015-.234-.701-.855-1.079-1.232-2.773-2.773-5.446-5.549-8.115-8.219-6.344-6.342-12.403-12.475-18.594-18.799-2.258-2.305-4.497-4.848-6.883-7.139-.623-.6-1.797-1.889-2.466-2.26.033-.068-.216.006-.205 0-.713.447-1.491 1.439-2.209 2.156-4.455 4.455-8.897 8.899-13.252 13.252-.74.74-1.535 1.449-2.105 2.312 5.958 6.383 12.264 12.569 18.542 18.85z" fill-rule="evenodd"/></svg>