<svg enable-background="new 0 0 70.142 74.572" viewBox="0 0 70.142 74.572" xmlns="http://www.w3.org/2000/svg"><g clip-rule="evenodd" fill-rule="evenodd"><path d="m68.103 22.564c-3.654 3.679-7.398 7.256-10.984 11.034-1.187 1.251-2.508 2.361-3.579 3.729.414.792 1.175 1.289 1.79 1.889 4.29 4.189 8.527 8.612 12.823 12.873.337.264.634.635 1.044 1.044.306.306.923.73.944 1.143.021.406-.919 1.876-1.144 2.237-2.946 4.738-6.871 9.007-11.332 11.977-5.358 3.34-11.709 6.337-20.428 6.064-.246-6.012-.149-12.23-.149-18.49 0-15.358-.1-30.824-.1-46.771 0-2.225-.025-4.664 0-7.008.008-.73-.006-2.023.199-2.188.036-.046.09-.075.149-.099 12.444.472 21.105 5.425 27.388 12.428 1.764 1.966 3.433 4.261 4.821 6.81.208.382.545.932.547 1.093.005.441-.664.909-.944 1.193-.41.412-.674.739-1.045 1.042z"/><path d="m29.335.845c.418.298.249.924.249 1.342 0 6.698.152 13.451.049 19.832-.016.973.087 1.934-.149 2.833-7.865.044-15.824.101-23.957.1-1.112-.001-2.227.12-3.28-.149 1.972-6.131 5.666-11.18 10.04-15.259 4.272-3.985 9.935-7.072 16.601-8.648.103-.026.237-.076.447-.051z"/><path d="m29.484 28.777c.262 5.415.149 11.205.149 16.949 0 9.249.173 18.692-.049 28.033-1.333-.084-2.58-.503-3.778-.896-3.509-1.148-6.719-2.748-9.493-4.672-5.561-3.743-10.029-8.91-12.973-15.457-1.419-3.156-2.586-6.892-3.081-11.134-.483-4.138-.327-9.021.795-12.774 9.365-.126 18.947-.245 28.43-.049z"/></g></svg>