<svg enable-background="new 0 0 79.588 79.42" viewBox="0 0 79.588 79.42" xmlns="http://www.w3.org/2000/svg"><path clip-rule="evenodd" d="m31.333 38.073c-.76.391-.5 3.077-.5 4.606v28.588c0 1.535-.396 3.97 1.051 3.956.944-.01 1.078-1.029 1.102-2.003.065-2.72 0-6.361 0-8.862 0-1.884-.101-3.869.05-5.908.143-1.924 1.006-3.154 2.254-3.904 1.381-.831 3.94-.572 6.058-.651 2.223-.083 4.645 0 6.709 0h9.964c1.67 0 3.405.287 4.005-.751.383-.661.251-2.291.251-3.455-.001-2.478-.117-4.587 0-7.159.05-1.108-.236-2.78.25-3.305.523-.565 3.312-.513 3.856 0 .427.403.247 2.932.25 3.705.01 2.575-.05 5.368-.05 7.911 0 1.819.292 4.117-.602 5.106-.929 1.805-3.045 2.152-5.557 2.153-2.455 0-5.021-.025-7.41.05-3.905.12-7.572-.047-11.365 0-1.785.022-3.748-.304-4.306.801-.46.911-.201 2.938-.201 4.256 0 3.171-.029 5.744 0 8.912.013 1.322.206 3.163-.1 4.256-.674 2.411-3.787 3.523-7.06 2.854-1.258-.257-2.335-1.108-2.904-2.003-.75-1.18-.692-3.034-.751-5.106-.057-2.047-.011-3.98-.05-5.607-.1-4.145 0-7.598 0-11.466 0-3.718 0-7.744 0-11.666 0-2.041-.092-4.069 0-5.858.093-1.797 1.054-3.043 2.103-3.705 1.45-.915 5.24-.551 7.861-.551h8.361c7.125 0 13.921-.049 20.928-.05 1.38 0 2.848-.154 4.105.1 2.064.419 3.548 2.208 3.455 4.907-.138 4.003-.051 8.35-.051 12.366 0 1.321-.361 3.019 1.002 3.154 1.201-.077.951-1.395.951-2.253.002-11.366.049-22.38.05-33.945.001-3.107-.051-6.098-.05-9.413 0-1.338.14-2.645-.45-3.104-.694-.541-3.546-.251-4.707-.251-4.318.001-8.056 0-12.416 0-.882 0-1.972-.065-2.504.101-.846.264-1.889 1.488-2.653 2.253-2.43 2.428-4.936 5.058-7.31 7.359-6.257 6.343-12.942 12.652-19.227 19.326-.836.889-1.844 1.868-2.903 2.554-1.528.987-3.353 1.351-5.958 1.351-1.189 0-2.404 0-3.655 0-1.194 0-2.423.113-3.505-.149-1.444-.352-2.62-1.569-3.054-2.854-.332-.98-.251-2.294-.251-3.655 0-7.78 0-15.357 0-23.231 0-1.055.338-2.723-.951-2.903-1.437.169-1.051 1.96-1.051 3.154v25.134c0 1.13.263 3.409-.201 3.955-.536.631-3.375.508-3.854 0-.458-.483-.315-2.919-.301-4.206.048-4.348.05-8.828.051-13.317 0-2.949.051-6.252-.051-8.861-.051-1.3-.059-2.787 0-4.257.065-1.619.11-2.827.701-3.755.604-.948 1.528-1.739 2.704-2.003 1.115-.249 2.687-.167 3.704-.05 1.83.211 3.181 1.478 3.555 3.154.216.964.101 2.249.101 3.505v21.529c0 1.499-.256 3.283.601 3.856 1.054.332 2.504.199 3.955.199 1.54 0 3.493.271 4.606-.149.841-.317 1.608-1.358 2.354-2.104 2.214-2.213 4.405-4.556 6.559-6.709 2.891-2.889 5.973-6.022 8.812-8.861 2.964-2.964 5.764-6.004 8.861-8.862 1.591-1.468 2.943-3.115 4.506-4.355.841-.667 1.78-1.191 2.954-1.452 2.542-.563 5.923-.514 9.013-.4 3.168.116 6.012 0 9.313 0 1.614 0 3.237-.12 4.355.4 1.079.502 1.904 1.259 2.403 2.403.497 1.14.4 2.636.4 4.355.004 12.798.051 25.299.051 37.951-.001 1.518.01 3.144-.051 4.757-.062 1.661.324 3.847-.15 5.156-.659 1.824-2.078 2.769-4.455 2.954-2.372.186-4.259-.332-5.408-1.853-1.337-1.768-.951-5.64-.951-8.611 0-2.074 0-4.637 0-7.109 0-.734.098-1.817-.2-2.203-.472-.612-3.088-.429-4.256-.4-7.774.187-15.749.051-23.531.05-1.582 0-3.191 0-4.757 0-1.525-.002-3.035-.085-4.457.148z" fill-rule="evenodd"/></svg>