<svg enable-background="new 0 0 66.918 78.349" viewBox="0 0 66.918 78.349" xmlns="http://www.w3.org/2000/svg"><path clip-rule="evenodd" d="m20.47.169c.328 3.847-.08 7.705.049 11.537.19 5.667.049 11.252.049 17.06 0 5.773-.081 11.599.098 17.354 1.881.288 3.815.102 5.72.146 9.375.224 19.349.098 28.841.098 3.875 0 7.748-.114 11.536.146.595 2.017-.626 2.532-1.711 3.617-5.663 5.664-11.312 11.308-16.963 16.914-3.121 3.097-6.201 6.25-9.385 9.435-.571.571-1.396 1.657-1.955 1.809-.542.146-1.464 0-2.249 0-11.091 0-23.156-.016-34.365-.146-.19-9.95-.101-20.87-.049-30.503.003-.653-.032-1.366 0-2.102.033-.759-.134-1.553 0-2.102.109-.447.75-.975 1.125-1.369 2.828-2.979 5.819-5.687 8.505-8.799-.027-.804.057-1.719-.049-2.444-.517-.105-.786.443-1.075.733-.324.324-.668.636-.978.929-.872 1.034-1.882 1.931-2.835 2.884-.951.952-1.769 2.05-2.884 2.836-.471.065-1.313.118-1.711-.049-.191-3.005-.146-6.125-.147-9.337-.001-2.282-.082-4.898 0-7.283.028-.805-.062-1.712.098-2.347.163-.646 1.116-1.409 1.662-1.955 1.852-1.853 3.534-3.496 5.377-5.328 1.896-1.713 3.67-3.909 5.915-5.964 1.591-1.457 2.93-2.85 4.497-4.448.755-.772 1.465-1.927 2.884-1.322z" fill-rule="evenodd"/></svg>