<svg enable-background="new 0 0 75.544 49.565" viewBox="0 0 75.544 49.565" xmlns="http://www.w3.org/2000/svg"><g clip-rule="evenodd" fill-rule="evenodd"><path d="m72.279.126c-.219 1.282-.865 2.436-1.312 3.645-.89 2.403-1.917 4.772-2.867 7.24-.459 1.189-1.104 2.318-1.507 3.499-.117.346-.128.722-.242 1.068-.542 1.631-1.336 3.201-1.992 4.811-1.63 3.993-3.291 8.026-4.908 12.1-.306.77-.538 1.655-1.117 2.284-.218-9.107-.147-18.683-.146-28.28 0-2.145-.108-4.285.098-6.366 2.777-.185 5.882-.097 8.892-.097 1.756 0 3.509-.112 5.101.096z"/><path d="m44.679.224c-.382 1.528-1.049 2.951-1.604 4.422-3.252 8.609-7.004 17.106-10.253 25.802-.267.712-.586 1.431-.875 2.138-.277.68-.404 1.479-.972 1.993-.175-11.146-.234-22.804-.048-34.355 3.651-.128 7.612-.146 11.273-.146.85.001 1.729-.117 2.479.146z"/><path d="m20.285.273c.207 16.202.262 32.758.098 49.126-6.431.195-13.582.229-20.117.048-.264-.973-.146-2.022-.146-3.013 0-13.5-.096-26.725-.098-40.233 0-1.988-.107-3.957.145-5.88 6.627-.126 13.536-.226 20.118-.048z"/><path d="m75.437 49.205c-3.438.172-6.879.146-10.593.146-1.183 0-2.398.117-3.499-.146.105-.771.45-1.521.729-2.235 1.385-3.553 3.089-7.125 4.373-10.787 2.569-7.327 5.892-14.402 8.698-21.526-.002-.083.036-.126.097-.146h.098c.232 11.252.27 23.279.097 34.694z"/><path d="m47.691 49.253c-2.17.284-4.583.09-6.948.193-2.382.105-4.778.001-6.997-.097.015-.785.438-1.484.729-2.187 4.344-10.479 8.458-21.256 12.925-31.682.027-.07.075-.119.146-.146.039.009.049.049.098.048.131 11.059.249 22.705.047 33.871z"/></g></svg>