<svg enable-background="new 0 0 89.794 56.239" viewBox="0 0 89.794 56.239" xmlns="http://www.w3.org/2000/svg"><g clip-rule="evenodd" fill-rule="evenodd"><path d="m15.829.211c.218 4.34.151 9.475 0 14.01-1.187.287-2.519.106-3.831.106-3.87 0-8.138.092-11.755-.209-.237-3.585-.065-8.388-.052-12.018.002-.588-.23-1.73.157-1.994.038-.049.095-.081.157-.106 2.497.014 5.13.053 7.714.053 2.599-.002 5.232-.125 7.61.158zm-13.749 1.469c-.455.634-.263 1.644-.263 2.519v2.832c0 1.91-.209 3.875.105 5.459 3.739.285 8.403.199 12.227.051.127-3.389.25-7.6 0-10.705-3.703-.318-8.151-.076-12.069-.156z"/><path d="m72.082.525c.3 2.135.13 4.508.105 6.873-.025 2.367.019 4.795 0 7.137-.999 1.311-2.282 2.338-3.517 3.412-7.486 7.416-15.394 14.41-22.983 21.725-.571.566-1.368.904-1.627 1.783 9.018.412 18.789.066 27.864.42.282 1.109.157 2.359.157 3.568 0 3.557.09 7.266-.157 10.547-1.073.24-2.199.105-3.306.105-12.521 0-25.183-.061-37.678-.209-3.416-.041-6.849-.053-10.128-.053-1.068 0-2.164.098-3.2-.158-.144-3.102-.053-6.945-.053-10.547 0-1.105-.196-2.57.053-3.516.177-.676 1.189-1.328 1.679-1.785.632-.586 1.167-1.113 1.784-1.678 6.931-6.818 14.211-13.287 21.2-20.047 1.176-1.115 2.515-2.066 3.463-3.41-1.092-.285-2.264-.158-3.41-.158-7.912.002-16.623-.018-24.559-.262-.226-4.031-.053-8.172-.053-12.385 0-.557-.096-1.535.157-1.678.039-.051.096-.08.157-.106 17.904.202 36.262.065 54.052.422zm-52.476 1.311c-.37.719-.209 1.691-.209 2.572 0 2.771-.176 5.678.052 8.186 2.468.379 5.033.037 7.609.158 2.546.121 5.153.053 7.714.053 3.806 0 7.651.053 11.492.053 1.256-.002 2.521-.127 3.726.156-.398.844-1.212 1.271-1.837 1.889-.604.656-1.243 1.275-1.941 1.838-6.76 6.408-13.599 12.764-20.36 19.102-2.267 2.123-4.51 4.27-6.612 6.559.069 3.85-.139 7.975.106 11.65 8.056.24 16.72.209 25.346.209 4.285 0 8.58.105 12.856.105 3.237 0 6.497-.004 9.603.105 1.024.035 2.099.1 3.097-.158.168-3.295.262-7.305.052-10.758-2.349-.23-4.873-.158-7.451-.158-6.577.002-12.883-.154-19.363-.156-1.258 0-2.567.127-3.778-.158.419-.822 1.266-1.217 1.837-1.889 8.361-7.758 17.001-15.99 25.45-23.877.542-.506 1.135-1.082 1.784-1.73.545-.545 1.609-1.266 1.731-1.838.179-.836 0-1.963 0-2.938 0-.994 0-2.027 0-2.94.001-1.955.222-3.93-.104-5.719-16.723-.304-33.984-.304-50.8-.316z"/><path d="m89.609.629c.283 1.074.157 2.27.157 3.465 0 3.539.046 7.309-.157 10.6-3.723.221-7.882.053-11.859.053-1.293 0-2.565.098-3.727-.158-.219-3.922-.052-8.008-.052-12.121 0-.67-.122-1.381.157-1.994 4.831-.058 10.51-.015 15.481.155zm-13.854 1.576c-.319 1.633-.095 3.482-.158 5.299-.063 1.846-.066 3.738.105 5.406 1.872.344 4.058.078 6.087.156 1.04.039 2.117.043 3.148.053 1.04.01 2.067.213 2.991-.105.2-3.336.253-7.371.053-10.758-3.871-.143-8.499-.278-12.226-.051z"/><path d="m12.312 3.307c.208 2.398.13 5.408-.053 7.766-1.265.191-2.786.106-4.25.106-1.482 0-2.984.123-4.197-.158-.222-1.605-.056-4.347-.053-5.984.001-.666-.283-1.797.472-1.889 1.203-.145 2.703 0 4.146 0 1.4 0 2.801-.121 3.935.159zm-6.611 1.521c-.063.025-.119.055-.158.106-.26.294-.158 1.435-.158 2.203 0 .877-.075 1.705.105 2.203 1.366.287 3.639.199 5.09.053.173-1.256.173-3.203 0-4.459-1.423-.239-3.283-.041-4.879-.106z"/><path d="m68.619 3.621c.3 1.986.105 4.324.104 6.664 0 .762.119 1.596-.053 2.205-.13.461-.973 1.15-1.469 1.627-7.81 7.498-16.121 15.059-23.929 22.354-2.132 1.969-4.205 3.99-6.35 5.983-.694.644-1.54 1.229-1.994 2.098 1.348.285 2.745.158 4.146.158 4.157 0 8.395.105 12.595.105 5.633 0 11.307-.029 16.792.209.174 2.367.174 5.453 0 7.82-14.567.123-29.605-.105-44.447-.105-.935 0-1.923.117-2.833-.158-.191-2.078-.105-4.381-.105-6.664 0-.756-.11-1.742.105-2.309.161-.426.554-.682.997-1.102 1.048-.996 2.07-2.225 3.148-3.045 1.382-1.363 2.897-2.594 4.25-3.986 5.812-5.209 11.457-10.584 17.212-15.85 2.116-2.004 4.309-3.916 6.454-5.93.695-.65 1.505-1.252 1.994-2.098-1.36-.275-2.781-.158-4.197-.158-9.977.002-19.8-.074-29.701-.262-.284-1.024-.105-2.322-.105-3.83 0-.564 0-1.27 0-2.047 0-.602-.098-1.715.157-1.941.039-.049.096-.08.158-.105 11.853.146 23.552-.024 35.526.156 3.877.059 7.74-.051 11.545.211zm-6.98 1.522c-5.474 0-10.896-.103-16.425-.105-7.125 0-15.005-.142-22.092-.051-.385 1.074-.232 3.219-.105 4.459 1.451.312 2.952.121 4.461.158 10.632.251 21.664-.104 32.063.314-.17.496-.623.861-.997 1.207-2.711 2.502-5.418 4.951-8.081 7.451-8.524 7.777-16.958 15.646-25.451 23.457-.548.748-1.828 1.27-2.204 2.256-.302.795-.104 2.318-.104 3.359 0 1.131-.085 2.234.104 3.252 1.772.285 3.602.158 5.405.158 12.635.002 26.007.234 38.569.158.257-1.211.215-3.227.053-4.514-1.429-.285-2.934-.158-4.408-.158-4.418 0-9.053-.104-13.644-.104-4.584-.002-9.239-.053-13.801-.053-1.477 0-2.973.098-4.355-.158.494-.975 1.478-1.459 2.151-2.256 10.517-9.672 21.496-20.246 32.22-30.016.633-.576 1.798-1.576 1.994-2.205.266-.85.052-2.271.053-3.305 0-1.137.166-2.262-.053-3.148-1.761-.279-3.571-.156-5.353-.156z"/><path d="m86.092 3.727c.258 2.299.142 5.314 0 7.818-1.288.207-2.798.104-4.25.053-1.461-.051-3.008.162-4.25-.158-.12-1.971-.132-4.816-.105-6.873.003-.254.036-.822.21-.892.038-.049.096-.08.157-.105 2.771.026 5.653-.058 8.238.157zm-6.507 1.521c-.062.025-.118.055-.157.105-.36.182-.183 1.426-.21 2.045-.043.977-.171 1.918.105 2.414 1.519.135 3.6.236 5.09.053.087-1.318.359-3.371-.053-4.512-1.485-.142-3.152-.099-4.775-.105z"/><path d="m8.744 6.508c.245.252.204 1.047 0 1.311-.388.084-1.08.084-1.469 0-.162-.25-.162-1.008 0-1.258.308-.182 1.081-.122 1.469-.053z"/><path d="m24.854 6.561c13.239.088 27.103-.006 40.511.314.044.865.316 2.188.053 3.149-.18.652-1.558 1.688-2.204 2.309-2.291 2.201-4.749 4.479-6.979 6.559-3.142 2.932-6.344 5.767-9.288 8.711-3.026 3.027-6.31 5.734-9.288 8.711-3.028 3.029-6.27 5.781-9.288 8.711-.313.275-.682.729-1.207 1.207-.353.322-1.13.734-.997 1.365.151.717 3.543.42 4.565.42 10.803 0 21.365.158 32.168.156.801 0 1.641-.117 2.309.158.144.199.181.91 0 1.102-.736.379-1.616.211-2.414.211-5.883 0-11.804.037-17.894-.105-5.979-.141-11.97-.104-17.946-.105-.81 0-1.646.119-2.414-.156-.238-.883-.04-2.199-.105-3.254 1.494-1.707 3.28-3.123 4.881-4.723 1.6-1.602 3.342-3.061 4.984-4.619 9.062-8.535 18.175-17.019 27.287-25.502.619-.973 2.017-1.168 2.1-2.676-.564-.539-1.481-.316-2.204-.316-10.765 0-21.214-.158-32.115-.156-1.594 0-3.204.074-4.723-.158-.136-.337-.146-.927.051-1.21.038-.049.095-.078.157-.103z"/><path d="m82.629 6.978c.149.297.178 1.035-.053 1.26-.35.139-.973.062-1.417 0-.023-.047-.046-.094-.104-.106-.094-.398-.145-1.188.262-1.258.452.021 1.013-.067 1.312.104z"/><path d="m15.829 16.268c.121 6.375 0 13.107 0 19.836 0 6.689.101 13.613-.158 19.572-5.239.199-10.441.1-15.532-.104-.227-1.461-.105-3.072-.105-4.723 0-9.895.053-19.738.053-29.859 0-.715-.043-1.561 0-2.52.03-.658-.011-2.144.21-2.309.038-.049.096-.078.157-.105 2.515.02 5.163.053 7.767.053s5.217-.121 7.608.159zm-13.697 1.468c-.062.025-.119.057-.157.105-.313.174-.21 1.316-.21 2.1 0 5.5-.053 10.793-.053 16.004 0 5.541-.054 10.766-.053 15.848 0 .705-.117 1.48.157 2.152 3.743.266 8.354.215 12.175.053.219-10.371.211-21.201.21-31.695 0-1.502.105-2.98-.105-4.408-3.823-.217-8.015-.065-11.964-.159z"/><path d="m89.609 16.687c.139 12.531.07 26.248-.105 39.408-2.307.207-5.012.158-7.661.053-2.685-.107-5.435.168-7.977-.105-.145-11.127.001-23.369 0-34.842 0-.83-.036-1.69 0-2.52.031-.707-.112-1.547.315-2.152 5.079-.092 10.42.006 15.428.158zm-10.548 1.522c-.952 0-2.009-.223-2.938-.053-.484.09-.533.232-.577.84-.193 2.643 0 5.508 0 8.082 0 7.752-.316 15.711-.053 22.826.056 1.5-.268 3.221.104 4.461 3.821.203 8.298.305 12.175.105.285-1.426.157-2.918.157-4.408-.001-9.162.104-18.068.105-27.287 0-1.486.126-3.006-.158-4.461-2.957-.103-5.845-.105-8.815-.105z"/><path d="m12.208 19.416c.221 10.621.111 22.092-.053 32.85-2.588.152-5.995.226-8.501-.053-.128-10.09 0-20.492 0-31.064 0-.609-.169-1.346.263-1.838 2.713-.043 5.842-.182 8.291.105zm-6.717 1.574c-.294 1.162-.146 2.396-.157 3.621-.065 7.096-.104 14.98-.105 22.303 0 1.225-.126 2.494.157 3.672 1.498.195 3.485.172 5.038 0 .397-4.67.001-9.816.157-14.797.15-4.807.068-9.945-.053-14.746-1.46-.205-3.491-.107-5.037-.053z"/><path d="m77.75 19.678c2.789.027 5.688-.057 8.291.158.193 10.752.077 22.223-.053 32.902-2.638.203-5.85.08-8.501-.053-.216-2.596-.105-5.383-.105-8.186.002-7.598-.101-15.119.053-22.828.015-.695-.025-1.66.158-1.889.037-.048.094-.079.157-.104zm1.574 1.732c-.3 1.062-.158 2.271-.158 3.463 0 8.631-.26 17.715 0 26.133 1.428.246 3.625.242 5.091.105.282-1.149.157-2.383.157-3.568.001-8.666.175-17.535-.053-26.027-1.491-.192-3.435-.2-5.037-.106z"/><path d="m8.744 22.617c.104 8.49.12 18.055-.104 26.605-.345.166-1.176.154-1.522 0-.169-8.129-.046-17.18 0-25.66.002-.346-.121-.83.262-1.051.413-.087 1.079-.095 1.364.106z"/><path d="m82.577 23.037c.135 8.609.063 17.932-.104 26.606-.333.178-1.184.146-1.522 0-.234-1.295-.062-3.625-.052-5.248.029-4.875-.17-10.916 0-16.32.033-1.053.044-2.641.052-4.092.005-.74-.032-.902.367-1.051.363-.135.933-.069 1.259.105z"/></g></svg>