<svg enable-background="new 0 0 17.228 17.049" viewBox="0 0 17.228 17.049" xmlns="http://www.w3.org/2000/svg"><path d="m7.801.031c.863-.065 1.736-.034 2.585.146 1.475.307 2.871 1.003 3.991 2.012.779.682 1.417 1.521 1.9 2.436.581 1.109.904 2.352.95 3.601-.01.321.022.646-.025.966-.111 1.484-.631 2.936-1.486 4.154-.588.858-1.341 1.597-2.197 2.186-2.018 1.404-4.646 1.859-7.024 1.254-2.214-.544-4.181-2.013-5.327-3.983-.722-1.214-1.121-2.616-1.164-4.026-.05-1.569.351-3.152 1.146-4.507.605-1.041 1.43-1.951 2.41-2.65 1.238-.895 2.721-1.442 4.241-1.589zm-1.867 2.09c-.514.212-.993.517-1.39.907-.864.795-1.371 1.983-1.307 3.159.074.696.361 1.367.823 1.895.702.753 1.72 1.108 2.715 1.257-.017-1.093-.001-2.186-.008-3.28.54-.001 1.079.001 1.619 0-.006 1.64-.002 3.28-.002 4.921-.685-.026-1.377.023-2.054-.106-1.328-.211-2.651-.783-3.545-1.815-.49-.573-.836-1.261-1.021-1.99-.078.438-.159.88-.144 1.327-.055 1.698.585 3.4 1.712 4.667.15.134.247.321.415.436.154.112.268.27.427.378.972.79 2.157 1.32 3.398 1.499 1.01.16 2.053.081 3.034-.208 1.005-.295 1.964-.847 2.612-1.682.405-.506.658-1.129.734-1.772.12-.905-.131-1.859-.694-2.582-.268-.356-.627-.636-1.011-.859-.549-.307-1.166-.463-1.783-.563.002 1.09-.001 2.18.002 3.269-.539-.019-1.08-.018-1.619-.001.005-1.64.001-3.281.002-4.922.637-.004 1.276.009 1.91.089 1.37.187 2.729.78 3.643 1.842.461.553.813 1.2.994 1.899.005.056.036.104.073.146.047-.347.11-.691.141-1.039.004-.492.022-.987-.064-1.473-.185-1.286-.755-2.511-1.604-3.493-.182-.173-.313-.397-.524-.54-1.015-.961-2.331-1.603-3.714-1.812-1.265-.205-2.585-.04-3.77.446z"/></svg>