<svg enable-background="new 0 0 49.268 80.196" viewBox="0 0 49.268 80.196" xmlns="http://www.w3.org/2000/svg"><g clip-rule="evenodd" fill-rule="evenodd"><path d="m22.976.234c.184 7.022.225 14.364 0 21.542-7.395.153-15.491.082-22.847-.103-.176-6.664-.169-14.657 0-21.491.218-.18.612-.096.887-.104 7.018-.23 14.9.119 21.96.156z"/><path d="m25.583.183c.744.438 2.006 1.676 2.713 2.295 6.104 5.346 11.887 11.26 17.891 16.586.508.432.972.905 1.461 1.358.387.466 1.185.795 1.199 1.459-6.391.015-13.626.002-20.134 0-1.06 0-2.277-.004-3.233-.155-.233-6.947-.07-14.649-.052-21.387.028-.074.081-.127.155-.156z"/><path d="m.338 24.176c7.547.032 15.247-.078 22.638.157.248 2.685.147 5.464.104 8.294-.128 8.336.101 17.132 0 25.871-2.495 2.766-5.357 5.15-8.032 7.771-4.362 4.274-8.893 8.62-13.458 12.78-.467.389-.82 1.159-1.513 1.147-.133-17.581-.05-34.743-.051-52.473-.001-1.088-.105-2.896.156-3.442.038-.049.095-.079.156-.105z"/><path d="m49.161 24.437c.142 11.31.163 22.732-.053 33.852-7.769.166-15.767.041-23.628-.104-.191-9.65-.107-19.941-.104-29.835 0-1.344-.104-2.724.157-4.017 4.565-.196 9.353-.144 14.03-.052 3.274.063 6.504-.137 9.598.156z"/></g></svg>