<svg enable-background="new 0 0 70.728 71.325" viewBox="0 0 70.728 71.325" xmlns="http://www.w3.org/2000/svg"><path clip-rule="evenodd" d="m70.627 33.477c-6.515.146-13.177.096-20.173.096-2.064 0-3.979.004-4.179 1.825-.114 1.046.594 1.882 1.393 2.161.717.25 1.788.145 2.786.144 4.864 0 9.841.001 14.553 0 1.998 0 3.936-.11 5.716.144.061 2.64-.553 5.058-1.152 7.301-.611 2.287-1.389 4.369-2.306 6.34-1.804 3.877-4.451 7.093-7.301 9.942-2.807 2.806-6.327 5.216-10.327 6.964-4.077 1.782-8.742 2.93-14.313 2.93-5.414 0-10.404-1.335-14.217-3.074-2.979-1.358-5.665-2.946-8.069-4.899-2.355-1.913-4.442-4.021-6.34-6.58-.605-.816-1.111-1.773-1.681-2.642-2.25-3.43-3.872-7.716-4.707-12.584-.105-.614-.193-1.27-.24-1.921-.044-.604-.156-1.271.048-1.873 8.087-.11 16.231 0 24.592 0 1.984 0 4.209-.07 6.244 0 1.954.067 3.458-.235 3.986-1.633.385-1.021.24-2.91.24-4.419 0-7.595.047-15.144.048-22.814 0-1.439-.008-3.059-.048-4.515-.017-.602-.016-1.429 0-2.21.011-.548-.025-1.892.192-2.065.036-.044.088-.072.145-.095 5.439.126 10.118 1.268 14.121 3.074 9.885 4.458 16.595 11.961 19.933 23.055.673 2.236 1.246 4.727 1.056 7.348z" fill-rule="evenodd"/></svg>