<svg enable-background="new 0 0 60.142 82.359" viewBox="0 0 60.142 82.359" xmlns="http://www.w3.org/2000/svg"><g clip-rule="evenodd" fill-rule="evenodd"><path d="m50.457 13.948c-1.944-2.069-4.093-3.858-6.617-5.243-2.521-1.383-5.485-2.564-8.856-3.003-7.778-1.014-14.02 1.323-18.476 4.631-4.758 3.534-7.807 7.826-9.874 13.845-.99 2.882-1.352 6.71-1.425 10.434-.077 3.884-.114 7.892.051 11.809.089 2.108-.077 3.986.102 5.751.351 3.464 1.058 6.856 2.291 9.569.596 1.31 1.354 2.51 2.188 3.715 3.187 4.602 7.575 8.156 13.59 10.129 3.054 1.002 6.71 1.487 10.434 1.221 3.718-.265 6.723-1.255 9.314-2.544 3.905-1.943 7.143-4.677 9.62-8.195.358-.508.721-1.215 1.12-1.832.285-.44.879-1.607 1.272-1.68.397-.074.84.244 1.221.407.84.36 1.334.684 2.189 1.018.36.141.843.32.916.662.145.678-.629 1.567-.916 2.087-1.101 1.997-2.309 3.699-3.767 5.243-4.588 4.794-10.115 8.707-18.171 9.976-3.325.524-6.972.571-10.282 0-1.577-.272-3.03-.717-4.428-1.17-5.437-1.761-10.083-4.898-13.641-8.805-3.608-3.963-6.231-8.655-7.533-14.914-.958-4.607-.764-10.506-.764-15.982 0-5.432-.152-11.067.865-15.677.666-3.017 1.622-5.849 2.952-8.246 4.718-8.496 11.567-14.542 22.549-16.745 2.831-.568 6.474-.487 9.467-.102 1.3.167 2.521.555 3.614.865 6.972 1.981 12.282 5.769 16.186 10.587 1.284 1.612 2.583 3.25 3.614 5.293.275.545.989 1.39.865 2.087-.127.715-1.48 1.017-1.985 1.272-.435.22-1.671.961-2.341.865-.63-.09-1.003-1.343-1.324-1.883-1.185-2.002-2.448-3.957-4.02-5.445z"/><path d="m20.478 56.498c.846.461 1.099 1.514 1.781 2.138 2.326 2.445 5.107 4.046 9.671 4.022 4.184-.023 6.953-2.102 8.907-4.734 1.362-1.833 2.456-3.986 2.596-6.515.123-2.229-.13-4.581-.102-6.922.074-6.208 0-12.357 0-19.036 0-.923.003-1.256.61-1.374.541-.105 1.411 0 2.291 0 .643 0 1.774-.117 2.087.152.549.472.204 3.641.204 4.632 0 4.836.051 10.367.051 14.862 0 3.577.222 6.906-.254 9.722-.931 5.5-4.113 9.539-8.144 12.012-2.102 1.29-4.546 2.298-7.584 2.494-3.276.211-6.046-.603-8.398-1.68-2.316-1.061-4.146-2.375-5.802-4.275-.412-.47-.772-.906-1.171-1.527-.293-.457-.966-1.217-.865-1.781.095-.527 1.409-1.041 1.883-1.272.822-.404 1.428-.679 2.239-.918z"/><path d="m55.292 24.229c.274.938.152 1.926.153 2.901 0 6.805.051 14.115.051 20.97 0 2.091.099 4.036-.102 5.802-.199 1.753-.661 3.292-1.171 4.835-.949 2.874-2.461 5.596-4.326 7.686-3.667 4.108-8.668 7.829-15.575 8.5-.94.091-1.806.22-2.698.203-6.729-.125-11.559-2.484-15.473-5.548-1.749-1.514-3.496-3.263-4.886-5.446-.361-.568-1.283-1.475-1.171-2.24.091-.615 1.269-.932 1.832-1.222.571-.293 1.386-1.042 2.087-.967.823.087.839 1.066 1.324 1.629 1.641 2.318 3.513 4.15 5.751 5.548 2.312 1.443 4.75 2.535 8.348 2.952 7.192.834 12.838-2.488 16.186-6.21 2.674-2.973 4.532-6.754 4.937-12.012.133-1.735.062-3.633.051-5.599-.033-6.071-.051-12.728-.051-19.494 0-.65-.269-2.278.611-2.443.619-.116 1.438 0 2.138 0 .725.002 1.442-.097 1.984.155z"/></g></svg>