<svg enable-background="new 0 0 76.199 77.458" viewBox="0 0 76.199 77.458" xmlns="http://www.w3.org/2000/svg"><g clip-rule="evenodd" fill-rule="evenodd"><path d="m75.97.201c.219 25.518.277 51.241.191 76.944-6.18.178-13.154.112-19.308.048-.273-1.139-.122-2.313-.144-3.489-.156-8.324-.048-17.088-.048-25.52 0-9.71.015-19.506-.191-29.152-.857-.203-1.852-.144-2.868-.144-2.96 0-6.162.004-9.08.096-.255 1.579-.096 3.313-.096 5.066 0 5.168.045 10.594-.096 15.771-4.132.189-8.62.089-12.856-.048-.247-3.269-.143-6.792-.143-10.323 0-1.756 0-3.549 0-5.305 0-1.735.11-3.48-.144-5.113-.858-.257-1.848-.144-2.82-.144-2.871 0-6.052-.012-8.746.048-.31 1.12-.144 2.311-.144 3.488 0 15.925.096 31.695.096 47.744 0 2.381.09 4.761-.096 7.073-5.235.209-11.445.133-16.918.19-.763.009-1.578.106-2.294-.143-.27-6.149.031-12.574-.096-18.974-.127-6.424-.194-12.944-.096-19.403.194-12.715-.246-25.795 0-38.615.741-.251 1.546-.144 2.342-.144 5.513.001 11.196-.134 16.871 0 .356 5.616-.043 12.352.239 18.304.551-.038.925-.59 1.291-.955 1.111-1.111 2.279-2.34 3.345-3.537 4.385-4.157 8.488-8.63 12.904-12.951.269-.263.775-.753.956-.765.313-.021.961.687 1.29 1.003.459.441.725.895 1.052 1.243 2.233 2.381 4.542 4.638 6.834 6.93 2.705 2.705 5.319 5.319 8.029 8.029.363.363.678.86 1.195 1.051.248-.579.144-1.467.144-2.246 0-4.568 0-9.396 0-14.145 0-.568-.192-1.92.382-2.008 1.339-.205 3.441-.048 4.97-.048 4.066 0 7.827.174 11.852.048.722-.022 1.506-.186 2.201.096z"/><path d="m44.332 52.342c.259.959.144 2.012.144 3.011 0 7.207.136 14.762-.048 21.841-.947.176-2.017.192-3.106.143-3.104-.141-6.698.085-9.749-.143-.199-7.688-.144-15.503-.144-23.562 0-.456-.141-1.016.191-1.386 4.352-.076 8.567-.07 12.712.096z"/></g></svg>