<svg enable-background="new 0 0 70.685 71.036" viewBox="0 0 70.685 71.036" xmlns="http://www.w3.org/2000/svg"><g clip-rule="evenodd" fill-rule="evenodd"><path d="m70.559 70.953c-23.003.123-46.609.11-70.384-.049-.271-1.411-.146-2.851-.148-4.297-.032-21.225.05-42.584.049-64.457 0-.681-.113-1.419.148-2.075 23.44-.069 46.994-.164 70.286.099.269.542.148 1.353.148 2.124 0 23 .105 45.55-.099 68.655zm-57.443-30.574c-.132 1.273-.267 3.085 0 4.297 1.426.163 3.514.164 4.939 0 .137-1.22.22-3.206-.049-4.347-1.574-.127-3.44-.159-4.89.05zm14.521 6.817c-4.794.094-9.836-.049-14.521.148-.265 1.042-.148 2.21-.148 3.359 0 3.502.081 7.234-.099 10.521-.663.22-2.057.236-2.716 0-.167-2.257.098-4.706-.198-6.767-.677-.259-1.643-.148-2.568-.148-.914 0-1.881-.068-2.568.148-.18 2.66-.099 5.817-.099 8.594 0 .952-.116 1.928.149 2.766 12.469.172 24.354.08 36.995 0 .268-1.05.148-2.231.148-3.408 0-2.94 0-6.034 0-8.891 0-.563-.111-1.177.148-1.679.662-.06 1.738-.131 2.322.049.18 3.303.099 7.101.099 10.521 0 1.167-.114 2.347.148 3.408 5.853.432 12.261-.198 18.473.099.846.04 1.723.189 2.519-.099.167-6.028.166-12.444 0-18.424-4.324-.204-8.743-.181-13.089 0-.221 1.133-.258 3.171 0 4.297 2.342.292 5.364-.095 7.706.198.152.577.167 1.747 0 2.321-2.396.255-5.331-.029-7.706.247-.402 1.952.075 4.783-.247 6.816-.568.161-1.753.161-2.321 0-.18-3.289-.099-7.066-.099-10.471 0-1.168.12-2.353-.148-3.408-1.974-.141-4.204-.237-6.421-.148-2.197.088-4.475-.18-6.47.148-.405 4.315.078 9.536-.247 13.879-.729.11-1.825.165-2.47-.049-.294-4.398.097-9.481-.197-13.879-2.024-.129-4.196-.191-6.375-.148z"/><path d="m28.625 51.839c.143.594.17 1.732 0 2.321-2.371.303-5.152-.024-7.607.247-.375 2.03.041 4.758-.198 6.816-.64.21-1.696.161-2.371 0-.179-2.166-.099-4.765-.099-7.162 0-.778-.116-1.571.148-2.223 3.148-.164 6.98-.163 10.127.001z"/><path d="m28.625 58.902c.14.606.2 1.84-.049 2.371-.615.052-1.64.138-2.173-.049-.135-.569-.212-1.831.049-2.321.533-.173 1.634-.145 2.173-.001z"/><path d="m60.335 58.951c.165.584.15 1.734 0 2.321-.599.146-1.777.171-2.371 0-.138-.603-.226-1.912.099-2.371.646-.051 1.707-.138 2.272.05z"/></g></svg>