<svg enable-background="new 0 0 75.639 77.281" viewBox="0 0 75.639 77.281" xmlns="http://www.w3.org/2000/svg"><path clip-rule="evenodd" d="m22.038.086c1.671-.107 3.88-.102 5.797-.049 5.705.158 11.604.099 17.294.098 5.775 0 11.674-.062 17.245.148 3.713.14 7.995-.605 10.269 1.179 1.04.816 2.074 1.956 2.456 3.39.97 3.64-1.337 6.409-3.931 7.32-1.453.512-3.326.641-5.257.59-5.222-.137-11.85-.147-16.999-.148-7.439-.002-15.591-.05-23.091-.049-2.114 0-3.709.036-5.257.491-4.101 1.206-7.493 4.599-7.91 9.531-.312 3.687-.072 7.599-.099 11.447-.026 3.801-.049 7.628-.049 11.398 0 3.612-.377 8.214.54 11.104.918 2.892 2.77 4.924 5.307 6.338 1.319.736 2.663 1.206 4.569 1.277 5.828.218 11.166.099 17.294.099 4.016-.001 7.754-.006 11.496.049 3.801.056 6.331-1.172 8.353-3.193 1.914-1.914 3.292-4.54 3.292-8.401-.001-1.897 0-3.821 0-5.748-.001-1.892.141-3.816.049-5.749-.162-3.377.572-8.084-1.081-10.366-.772-1.066-2.053-2.04-3.636-2.211-1.727-.185-3.203.52-4.226 1.572-.976 1.005-1.54 2.292-1.621 4.226-.078 1.842 0 3.907 0 5.847 0 3.878-.069 7.946-.049 11.397.011 1.928-.237 3.487-1.032 4.717-.726 1.123-1.912 2.084-3.242 2.555-3.203 1.134-6.133-.727-7.517-3.439-1.221-2.393-.736-7.472-.736-10.906 0-1.839.049-3.819.049-5.798 0-1.85.165-3.943-.147-5.649-.308-1.683-1.022-2.662-2.26-3.587-1.019-.76-2.819-1.392-4.569-.737-1.489.558-2.404 1.622-3.046 2.801-.683 1.256-.639 2.999-.639 5.159 0 4.89-.06 9.663-.049 14.493.002.952.035 1.89-.099 2.702-.249 1.506-1.098 2.983-2.015 3.783-1.05.916-2.651 1.651-4.323 1.523-3.031-.232-5.637-2.664-5.748-5.896-.064-1.861.049-3.794.049-5.748 0-1.985-.023-3.896.05-5.797.069-1.848-.001-3.678 0-5.553 0-3.759-.001-7.533 0-11.447 0-2.104.241-3.512 1.13-4.717.804-1.09 1.878-1.975 3.39-2.407 1.498-.429 3.46-.333 5.355-.295 1.885.038 3.914.035 5.748.05 7.709.06 15.164.049 22.993.049 1.885 0 3.856.049 5.797.05 1.947 0 3.853.134 5.65.049 1.995-.095 3.595.037 4.864.884 1.131.756 2.125 1.752 2.652 3.145.534 1.408.541 3.174.541 5.109 0 5.73-.098 11.47-.099 17.146 0 3.994.119 7.865 0 11.645-.113 3.618-1.314 6.388-2.652 8.99s-3.073 4.65-5.012 6.683c-1.746 1.83-4.539 3.504-7.174 4.471-2.858 1.049-5.932 1.671-10.071 1.572-3.857-.093-7.455-.049-11.104-.05-3.526 0-7.751-.098-11.497-.098-3.934-.001-8.02.169-10.857-.786-2.944-.992-5.513-2.16-7.762-3.882-4.336-3.316-7.736-7.914-9.041-14.297-.663-3.247-.118-7.237-.294-10.956-.173-3.641 0-7.518 0-11.349-.001-3.867.035-7.701.049-11.202.007-1.869-.092-3.736.245-5.404.95-4.689 3.167-8.519 5.945-11.496 1.875-2.01 3.831-3.664 6.534-5.11 1.184-.633 2.622-1.281 4.176-1.67 1.542-.388 3.245-.773 5.013-.887z" fill-rule="evenodd"/></svg>