<svg enable-background="new 0 0 79.082 79.897" viewBox="0 0 79.082 79.897" xmlns="http://www.w3.org/2000/svg"><g clip-rule="evenodd" fill-rule="evenodd"><path d="m66.365 10.57c1.706 1.584 3.34 3.307 4.72 5.222 4.142 5.748 7.399 12.496 7.934 21.894.362 6.357-.861 12.172-2.762 16.922-1.875 4.686-4.56 8.835-7.683 12.152-1.624 1.725-3.296 3.334-5.172 4.771-.484.371-.955.743-1.406 1.104-1.355 1.089-2.995 1.923-4.62 2.812-4.136 2.263-9.553 3.989-15.517 4.369-6.605.42-12.193-.858-16.973-2.711-4.785-1.856-8.752-4.45-12.152-7.683-5.229-4.745-9.011-10.97-11.299-18.529-.587-1.941-.895-4.111-1.155-6.327-1.136-9.692 1.308-17.937 4.77-24.304.879-1.618 1.767-3.228 2.812-4.62 2.107-2.806 4.667-5.357 7.432-7.482 5.627-4.323 12.978-7.516 21.693-8.085 6.602-.432 12.396 1.047 17.123 2.862 4.774 1.833 8.778 4.576 12.255 7.633zm-.753 28.422c3.125-1.273 5.404-3.738 5.674-7.633.316-4.551-2.719-7.764-6.176-8.888-1.996-.649-4.408-.422-6.277.502-1.559.771-2.887 2.235-4.118 3.465-1.964 1.965-3.885 3.785-5.725 5.625-1.271 1.272-2.394 2.545-3.716 3.867-.702.702-1.379 1.817-2.009 1.808-.585-.009-1.819-1.398-1.808-1.858.01-.382.613-.864.954-1.205 1.955-1.955 3.792-3.515 5.423-5.574.671-.847 1.581-1.535 2.21-2.21 1.315-1.41 3.006-2.799 4.369-4.419 1.381-1.643 2.439-3.683 2.209-6.628-.269-3.449-2.658-6.153-5.423-7.181-4.927-1.832-9.375.763-11.048 4.218-.179.371-.42 1.889-.904 1.858-.455-.029-.593-1.394-.753-1.758-.614-1.391-1.77-2.688-3.063-3.565-1.288-.876-3.091-1.593-5.221-1.457-2.478.158-4.146 1.034-5.574 2.31-1.289 1.152-2.455 2.841-2.762 4.971-.708 4.911 2.363 7.536 4.72 9.893 2.179 2.179 4.44 4.34 6.578 6.477 1.094 1.094 2.204 2.204 3.314 3.214.376.342.902.684.954 1.255-.095.486-.405.706-.753 1.055-.279.279-.666.759-1.104.753-.354-.004-.833-.532-1.205-.904-4.001-4.001-7.81-7.55-11.7-11.6-1.467-1.527-3.045-2.678-5.574-2.913-2.779-.257-5.021.63-6.478 1.908-1.412 1.239-2.715 3.142-3.063 5.423-.749 4.916 2.131 7.977 5.172 9.44.445.214 1.076.28 1.356.803-.454.446-1.077.655-1.607.904-2.442 1.145-4.27 3.322-4.77 6.327-.558 3.35.853 6.37 2.662 7.884 1.823 1.869 5.046 2.921 8.135 2.059 2.787-.778 4.437-2.88 6.177-4.62 1.83-1.83 3.683-3.525 5.373-5.423.804-.904 1.83-1.676 2.762-2.661.408-.432.775-.877 1.306-1.406.393-.393 1.062-1.215 1.506-1.205.401.009.78.504 1.104.854.33.355.792.669.804 1.155.007.287-.35.896-.602 1.356-.252.457-.496.935-.653 1.306-.887 2.098-1.105 3.912-1.105 6.829 0 3.924.091 7.995-.05 11.75-.098 2.616.01 5.173.151 7.583.36.327 1.503.233 2.009.101.525-2.271-.075-5.386.301-7.633.945-.229 2.896-.286 3.766.05.313 2.317-.127 5.352.201 7.532.441.244 1.599.324 2.008 0 .227-5.018.043-10.255.101-15.767.027-2.596.201-5.431-.251-7.583-.314-1.495-.962-3.079-1.657-4.319-.267-.476-.671-.939-.653-1.355.027-.609 1.479-2.184 2.059-2.159.579.024 1.503 1.202 2.009 1.707.682.682 1.375 1.272 1.908 1.858.62.68 1.145 1.357 1.758 1.958 1.927 1.888 3.679 3.707 5.574 5.674 1.226 1.272 2.409 2.669 3.967 3.515 1.697.921 4.074 1.308 6.226.753 3.589-.925 6.465-4.017 6.678-8.285.115-2.284-.694-4.095-1.858-5.625-.96-1.129-2.182-2.226-3.666-2.762-.46-.166-1.248-.102-1.406-.753.312-.395.83-.479 1.254-.651z"/><path d="m37.089 16.245c1.244.183 2.996.112 4.318.05.568-.704.509-1.424.804-2.16.796-1.986 2.809-3.593 5.373-3.866 1.975-.21 3.491.827 4.67 1.708 1.285 1.322 2.445 3.536 1.808 6.277-.41 1.764-1.621 2.988-2.812 4.118-1.668 1.581-3.26 3.461-4.921 5.122-1.547 1.548-3.272 3.391-5.022 5.072-.452.434-1.389 1.498-1.808 1.506-.724.014-1.832-1.491-2.259-1.909-3.57-3.485-6.814-6.847-10.495-10.244-1.386-1.279-2.733-3.089-2.561-5.724.156-2.382 1.583-4.03 3.013-4.921.871-.542 1.949-.94 3.214-.954 2.94-.033 5.314 1.898 6.126 4.218.185.528.114 1.197.552 1.707z"/><path d="m62.95 41.854c.545.397 1.337.423 1.958.653 2.201.814 3.971 3.033 3.917 6.076-.052 2.941-2.127 5.485-4.67 6.176-1.581.429-3.583.071-4.871-.703-1.015-.609-1.966-1.684-2.862-2.662-1.786-1.945-3.593-3.693-5.474-5.574-.96-.96-1.993-1.806-2.812-2.711-.518-.572-.92-1.171-1.456-1.707-.504-.503-1.263-.861-1.506-1.657.27-.851 1.052-1.384 1.657-2.009 2.927-3.026 6.038-6.038 9.089-9.089 1.729-1.729 3.253-4.151 6.528-4.168 2.127-.011 3.549.802 4.67 2.009 1.694 1.823 2.36 5.225.854 7.733-.786 1.309-2.087 2.322-3.716 2.812-.43.129-1.156.235-1.306.452-.258.375-.1 1.562-.1 2.209 0 .84-.069 1.655.1 2.16z"/><path d="m33.725 39.745c-.32.916-1.097 1.549-1.758 2.209-1.972 1.973-3.793 3.843-5.825 5.976-1.302 1.367-2.662 2.492-3.967 3.917-1.271 1.388-2.92 3.099-5.122 3.314-2.996.292-5.01-1.3-6.076-3.013-.54-.868-.87-1.825-.954-2.913-.218-2.834 1.39-5.146 3.365-6.226.72-.394 1.603-.449 2.36-.854.037-1.389.178-3.113-.05-4.318-.621-.466-1.361-.381-2.008-.653-2.409-1.012-4.481-4.339-3.565-7.683.663-2.419 2.797-4.533 5.574-4.72 1.582-.107 3.071.462 4.017 1.105 1.256.853 2.424 2.274 3.566 3.415 2.907 2.907 5.722 5.919 8.788 8.637.596.53 1.284 1.057 1.655 1.807z"/><path d="m37.541 39.846c.396-.826 1.116-1.596 1.908-1.858.369.018.648.426 1.004.753.334.306.696.607.703.954.011.514-1.194 1.788-1.757 1.808-.806.029-1.449-1.15-1.858-1.657z"/><path d="m41.057 62.141c-.863.227-2.625.274-3.415-.05-.07-2.934-.245-6.928-.05-10.144.056-.916.177-1.946.452-2.862.261-.868.547-1.907 1.055-2.31.78-.436 1.282 1.396 1.506 2.059.76 2.241.627 5.009.552 8.135-.045 1.888.115 3.757-.1 5.172z"/></g></svg>