<svg clip-rule="evenodd" fill-rule="evenodd" stroke-linejoin="round" stroke-miterlimit="2" viewBox="0 0 560 400" xmlns="http://www.w3.org/2000/svg"><path d="m7 428.5c32.6 103.5 128.9 178.7 242.8 179.8 142.7 1.3 258.6-112.4 259.7-255.2.5-69.2-26.3-132.1-70.2-178.6l51-94.7c1.7.2 3.3.3 5.1.3 23 0 41.5-19.5 39.9-42.9-1.4-19.7-17.3-35.7-37.1-37.1-23.4-1.6-42.8 16.9-42.8 39.9 0 8.8 2.8 16.9 7.6 23.5l-121.3 225.2v-212.4c14.6-6.8 24.4-22.2 22.9-39.7-1.6-19.5-17.5-35.1-37-36.5-23.4-1.6-42.9 16.9-42.9 39.9 0 17.3 11 32 26.4 37.6v308.1c0 84-68.8 152.8-152.8 152.8h-2c-38.3 0-73-14.7-99.8-38.4-.6-.5.1-1.4.8-1 23.6 17.5 52.9 27.9 84.6 27.8 76.8-.2 139.8-62.6 140.9-139.3 1.1-79-62.6-143.4-141.4-143.4-78.1 0-141.4 63.3-141.4 141.4 0 14.8 2.7 29.5 7 42.9z" fill-rule="nonzero" transform="matrix(.443854 0 0 .443854 161.181 64.9985)"/></svg>