<svg enable-background="new 0 0 74.021 53.081" viewBox="0 0 74.021 53.081" xmlns="http://www.w3.org/2000/svg"><g clip-rule="evenodd" fill-rule="evenodd"><path d="m15.882 24.586c.683 1.157.965 2.544.965 4.247 0 1.843-.212 4.084.483 5.357 1.245 2.281 4.83 2.008 5.551-.628.38-1.393.192-3.312.192-5.067 0-5.093 0-10.563 0-15.443 0-3.678-.088-6.711 1.352-9.073 1.277-2.097 3.672-3.766 6.66-3.957 3.28-.21 5.433 1.122 6.997 2.799.745.799 1.451 1.891 1.785 3.088.37 1.324.262 2.8.338 4.537.139 3.137-.048 6.314 0 9.459.049 3.176.018 6.355 0 9.459-.018 3.389-.085 6.341-.771 8.928-.684 2.572-1.762 4.637-3.186 6.563-2.763 3.738-6.555 6.447-11.775 7.722-6.194 1.513-12.037-.631-15.636-3.041-3.992-2.672-6.844-6.34-8.156-11.341-.697-2.653-.794-6.035-.581-9.025.308-4.306 2.432-7.519 5.937-8.687 1.172-.391 2.853-.513 4.392-.193 2.585.538 4.401 2.094 5.453 4.296z"/><path d="m65.347.166c3.098-.102 5.525 1.54 6.949 3.571 1.487 2.122 1.642 5.214 1.641 8.832-.001 6.986.001 14.341 0 20.896 0 3.5.217 7.312-.048 10.376-.29 3.36-1.494 5.344-3.62 6.853-2.109 1.498-5.555 1.875-8.349.724-2.027-.836-4.236-3.018-4.825-5.647-.425-1.894-.29-4.995-.29-7.528 0-1.445.149-2.643-.724-3.185-.568-.353-1.83-.242-2.654-.241-3.031 0-5.249-.124-7.287-1.255-2.348-1.303-4.157-3.743-4.247-7.191-.096-3.693 1.989-6.081 4.054-7.383 1.971-1.243 4.274-1.239 7.384-1.206 1.377.015 2.892.194 3.33-.917.264-.67.163-2.083.192-2.992.029-.876-.048-2.126-.048-3.137 0-2.124.167-3.951.82-5.501.598-1.418 1.607-2.681 2.799-3.571 1.228-.918 2.655-1.423 4.923-1.498z"/></g></svg>