<svg enable-background="new 0 0 77.964 54.047" viewBox="0 0 77.964 54.047" xmlns="http://www.w3.org/2000/svg"><g clip-rule="evenodd" fill-rule="evenodd"><path d="m2.159.605c.453-.207.971-.632 1.474-.237.564.443.266 1.526-.523 1.568-.427 0-.547-.308-.855-.428-.387.12-.602.411-.76.761.164.375.439.639.617.998-.191.539-.515.943-1.094 1.094-.58-.125-1.008-.592-.95-1.188.039-.405.394-.554.475-.903-.424-.495-.902-1.583-.143-2.092.614-.412 1.26.011 1.759.427z"/><path d="m9.765 2.269c-.361-.083-.558-.33-.761-.57-.474-1.569 1.582-1.592 1.617-.428.016.547-.426.792-.856.998z"/><path d="m5.867.89c.17 1.188-1.252 1.048-1.236.238.012-.608.935-.859 1.236-.238z"/><path d="m7.483.653c.965-.199.81 1.217.143 1.237-.636.017-.899-1.082-.143-1.237z"/><path d="m28.874 1.794c-.294-1.199 1.274-1.474 1.569-.617.276 1.262-1.249 1.495-1.569.617z"/><path d="m27.306.796c1.196-.316 1.093 1.561.048 1.426-.657-.084-.825-1.221-.048-1.426z"/><path d="m24.738 1.223c.146-.397.924-.519 1.189-.143.604 1.225-1.427 1.574-1.189.143z"/><path d="m3.443 2.412c.684.177.684 1.534 0 1.711-.756.075-1.002-.36-1.236-.808.197-.515.443-.982 1.236-.903z"/><path d="m9.575 2.46c.581-.028.99.447.998.902.019 1.055-1.542 1.216-1.712.238-.109-.632.317-.907.714-1.14z"/><path d="m5.82 2.888c.225.453.031 1.018-.334 1.092-1.197.247-.808-1.886.334-1.092z"/><path d="m7.531 2.792c.322-.034.654.226.665.57.03.9-1.274.821-1.283.048-.003-.268.144-.585.618-.618z"/><path d="m27.258 2.982c1.405-.315 1.229 1.616.238 1.664-.881.042-1.221-1.436-.238-1.664z"/><path d="m24.501 3.695c.246-1.035 1.675-.844 1.569.143-.097.891-1.431.764-1.569-.143z"/><path d="m.828 4.693c1.221-.261 1.252 1.792.143 1.76-.939-.028-1.061-1.563-.143-1.76z"/><path d="m9.718 4.693c1.065-.147 1.216 1.646.19 1.76-1.014.111-1.389-1.556-.19-1.76z"/><path d="m7.341 5.026c1.102-.291 1.098 1.401.237 1.427-.721.02-1.045-1.177-.237-1.427z"/><path d="m50.884 6.12c-.192-1.348 1.505-1.396 1.663-.428.172 1.047-1.302 1.43-1.663.428z"/><path d="m3.633 5.502c.092.658-.356.942-.76.855-1.185-.254.133-2.083.76-.855z"/><path d="m5.486 5.074c.584.264.393 1.219-.189 1.236-.723.021-.908-1.361.189-1.236z"/><path d="m9.812 7.023c1.214-.125 1.129 1.736.096 1.759-.928.021-1.256-1.641-.096-1.759z"/><path d="m.781 7.213c1.322-.296 1.035 1.773-.048 1.379-.485-.177-.612-1.212.048-1.379z"/><path d="m49.362 7.213c1.164-.198 1.219 1.707.237 1.807-1.043.106-1.341-1.566-.237-1.807z"/><path d="m7.341 7.261c1.093-.325 1.148 1.405.19 1.379-.746-.021-.906-1.166-.19-1.379z"/><path d="m2.873 7.308c.953-.2.817 1.198.143 1.235-.714.041-.907-1.074-.143-1.235z"/><path d="m5.297 7.403c.943-.247.808 1.568-.239 1.094-.354-.281-.256-1.029.239-1.094z"/><path d="m51.501 7.403c1.262-.232 1.123 1.515.143 1.474-.73-.03-.903-1.263-.143-1.474z"/><path d="m71.941 8.782c.334.096.712.353.809.665.357 1.167-1.528 1.629-1.616.428-.044-.592.367-.88.807-1.093z"/><path d="m67.473 8.829c1.029-.072 1.194 1.727.143 1.807-1.033.079-1.247-1.614-.143-1.807z"/><path d="m74.128 8.829c.355-.005.79.323.855.666.242 1.255-1.844 1.542-1.568-.048.177-.266.344-.544.713-.618z"/><path d="m69.708 8.877c1.184-.145 1.135 1.708.142 1.759-.986.05-1.219-1.568-.142-1.759z"/><path d="m75.649 10.065c-.352-1.903 2.274-1.111 1.426.19-.222.342-1.26.514-1.426-.19z"/><path d="m10.668 10.445c-.375.972-1.797.576-1.663-.428.137-1.032 1.889-1.015 1.663.428z"/><path d="m3.253 9.399c.597.27.418 1.249-.19 1.284-.796.045-.992-1.431.19-1.284z"/><path d="m7.341 9.495c1.124-.287 1.003 1.377.237 1.426-.814.052-1.049-1.219-.237-1.426z"/><path d="m5.201 9.59c.939-.215.746 1.146.096 1.141-.622-.005-.734-.995-.096-1.141z"/><path d="m47.223 9.685c1.367-.284 1.154 1.777.048 1.663-.727-.075-1.146-1.435-.048-1.663z"/><path d="m49.314 9.78c1.149-.213.957 1.444.142 1.474-.838.03-1.062-1.304-.142-1.474z"/><path d="m51.501 9.78c1.071-.347 1.013 1.293.237 1.331-.714.035-.912-1.112-.237-1.331z"/><path d="m.876 10.683c-1.095-.183.167-1.524.333-.571.053.302-.11.45-.333.571z"/><path d="m67.283 11.206c1.103-.356 1.332 1.476.476 1.664-1.024.226-1.528-1.325-.476-1.664z"/><path d="m71.989 12.727c-.464-.107-.792-.35-.714-.998.172-.273.352-.537.856-.476.672.187.582 1.418-.142 1.474z"/><path d="m74.794 11.539c.673 1.214-1.449 1.604-1.188.19.149-.491.863-.593 1.188-.19z"/><path d="m76.41 11.302c.819-.089.942 1.3.143 1.378-.771.076-1.12-1.274-.143-1.378z"/><path d="m69.612 11.348c1.131-.237 1.1 1.494.096 1.379-.639-.073-.828-1.179-.096-1.379z"/><path d="m7.293 11.824c.604-.175 1.003.265.903.95-.614 1.177-2.138-.392-.903-.95z"/><path d="m1.209 12.442c-.144.158-.162.285-.428.238-.881-.161.442-1.575.428-.238z"/><path d="m5.201 11.92c.922-.246.889 1.108.191 1.141-.576.025-.843-.917-.191-1.141z"/><path d="m47.794 11.967c.546.527.182 1.472-.571 1.379-1.011-.125-.652-1.97.571-1.379z"/><path d="m2.873 11.967c.767-.258.672.856.19.903-.417.04-.77-.709-.19-.903z"/><path d="m49.314 11.967c1.108-.3 1.009 1.387.095 1.283-.595-.068-.787-1.096-.095-1.283z"/><path d="m51.691 13.155c-.726-.11-.586-1.102 0-1.141.684-.046.878 1.08 0 1.141z"/><path d="m67.378 13.392c1.247-.267 1.213 1.676.238 1.712-.94.034-1.205-1.505-.238-1.712z"/><path d="m69.66 13.535c1.146-.245 1.081 1.538.095 1.427-.638-.072-.827-1.234-.095-1.427z"/><path d="m72.084 14.818c-.77.059-.7-1.037-.19-1.141.693-.139.989.983.19 1.141z"/><path d="m74.033 13.725c.879-.289.864 1.085.19 1.093-.554.008-.763-.904-.19-1.093z"/><path d="m76.22 13.725c.839-.399 1.008 1.053.285 1.093-.556.032-.759-.867-.285-1.093z"/><path d="m9.623 13.868c1.361-.339 1.387 1.705.332 1.759-.925.047-1.275-1.44-.332-1.759z"/><path d="m8.244 15.056c-.316.884-1.676.286-1.283-.665.284-.692 1.553-.451 1.283.665z"/><path d="m47.318 14.058c1.298-.188 1.05 1.752.095 1.759-.935.007-1.221-1.595-.095-1.759z"/><path d="m5.771 14.249c.713 1.01-1.156 1.439-.998.332.057-.395.588-.644.998-.332z"/><path d="m49.314 14.153c1.088-.271 1.177 1.402.285 1.474-.825.066-1.143-1.189-.285-1.474z"/><path d="m3.49 14.344c.174.48-.396.857-.76.522-.319-.596.454-.96.76-.522z"/><path d="m51.549 14.201c1.048-.375 1.185 1.592-.048 1.283-.508-.156-.497-1.174.048-1.283z"/><path d="m.828 15.151c-.824-.09-.091-1.399.333-.618.046.363-.105.53-.333.618z"/><path d="m67.378 15.723c1.33-.35 1.274 1.73.19 1.663-.821-.051-1.073-1.433-.19-1.663z"/><path d="m69.708 15.864c1.125-.274.95 1.339.19 1.379-.806.042-.972-1.187-.19-1.379z"/><path d="m71.847 15.96c.742-.339.979 1.062.19 1.093-.548.022-.854-.879-.19-1.093z"/><path d="m74.176 16.102c.24-.097.447.148.475.333.158 1.066-1.453.185-.475-.333z"/><path d="m9.718 16.149c1.28-.314 1.448 1.564.428 1.712-1.025.148-1.431-1.341-.428-1.712z"/><path d="m76.742 16.245c.397.823-.787.952-.713.237.035-.338.405-.477.713-.237z"/><path d="m7.435 16.293c1.148-.241.971 1.558 0 1.426-.546-.075-.9-1.238 0-1.426z"/><path d="m49.409 16.293c1.304-.216 1.088 1.639.19 1.711-1.018.082-1.299-1.528-.19-1.711z"/><path d="m51.549 16.388c1.169-.265 1.156 1.479.189 1.474-.758-.007-1.023-1.234-.189-1.474z"/><path d="m5.201 16.435c.845-.192.781 1.077.191 1.141-.667.071-.913-.978-.191-1.141z"/><path d="m1.161 16.625c.167.718-.619.79-.713.333-.079-.388.402-.73.713-.333z"/><path d="m2.92 16.578c.756-.276.689.814.189.855-.409.034-.711-.665-.189-.855z"/><path d="m67.759 17.956c.778.26.709 1.622-.096 1.712-1.114.124-1.429-1.853.096-1.712z"/><path d="m69.708 18.146c1.055-.228.963 1.345.19 1.378-.748.032-1.039-1.194-.19-1.378z"/><path d="m71.561 19.002c-.187-.98.959-.958 1.046-.332.081.584-.728.932-1.046.332z"/><path d="m76.458 19.098c-.159-.117-.263-.17-.286-.333-.154-1.074 1.474.085.286.333z"/><path d="m74.176 18.384c.534-.124.604.715.19.809-.431.097-.808-.666-.19-.809z"/><path d="m9.812 18.526c.209-.022.42-.004.57.096.531.348.377 1.498-.285 1.616-1.029.183-1.546-1.58-.285-1.712z"/><path d="m51.643 18.526c1.242-.225 1.178 1.612.238 1.712-.963.102-1.274-1.524-.238-1.712z"/><path d="m8.244 19.572c-.296.746-1.4.53-1.379-.237.024-.893 1.525-1.019 1.379.237z"/><path d="m5.297 18.811c.85-.172.779 1.187.095 1.189-.624.003-.752-1.054-.095-1.189z"/><path d="m3.015 18.859c.705-.253.736.961.094.903-.44-.039-.52-.75-.094-.903z"/><path d="m1.066 19.05c.428.433-.273 1.08-.57.523-.074-.431.202-.686.57-.523z"/><path d="m67.426 20.19c1.222-.236 1.128 1.69.19 1.711-.933.021-1.169-1.521-.19-1.711z"/><path d="m69.66 20.381c.946-.34 1.172 1.208.38 1.378-.499.107-.97-.2-.855-.95.133-.168.207-.395.475-.428z"/><path d="m71.847 21.568c-.808-.377.058-1.723.665-.95.169.534-.043 1.054-.665.95z"/><path d="m74.033 20.666c.304-.165.597.052.617.333.079 1.042-1.353.065-.617-.333z"/><path d="m76.695 20.761c.194.3.092.679-.19.713-.548.067-.527-1.006.19-.713z"/><path d="m9.812 20.808c1.078-.124 1.217 1.667.19 1.759-1.011.09-1.389-1.621-.19-1.759z"/><path d="m28.637 21.664c.021.983-1.384 1.154-1.664.333-.266-1.376 1.582-1.426 1.664-.333z"/><path d="m7.911 22.519c-.567.076-.829-.153-.998-.475-.107-2.1 2.422-.399.998.475z"/><path d="m5.201 21.094c.934-.39 1.061 1.406 0 1.141-.405-.1-.492-1.064 0-1.141z"/><path d="m3.633 21.427c.039.426-.18.683-.475.665-.842-.05-.079-1.578.475-.665z"/><path d="m1.161 22.045c-.249.127-.593-.092-.618-.333-.076-.746 1.221-.504.618.333z"/><path d="m67.426 22.473c1.061-.205 1.336 1.489.38 1.663-.999.181-1.452-1.456-.38-1.663z"/><path d="m70.135 22.614c.658.36.39 1.412-.332 1.379-.834-.038-.905-1.609.332-1.379z"/><path d="m71.847 22.758c.808-.285 1.033 1.093.19 1.093-.544-.001-.787-.883-.19-1.093z"/><path d="m74.081 22.805c.625-.269.727.715.285.809-.432.09-.781-.597-.285-.809z"/><path d="m76.362 22.995c.461-.243.598.723.143.761-.407.052-.543-.689-.143-.761z"/><path d="m29.73 23.043c.662-.151.983.254.998.76.032 1.104-1.664 1.188-1.664.048 0-.44.257-.715.666-.808z"/><path d="m9.812 23.09c1.078-.127 1.152 1.713.143 1.759-.911.041-1.326-1.601-.143-1.759z"/><path d="m27.639 23.138c1.039-.159.934 1.424.143 1.474-.864.053-1.107-1.326-.143-1.474z"/><path d="m7.435 23.232c.488-.131.836.088.903.476.201 1.155-1.392 1.169-1.426.237-.01-.299.078-.593.523-.713z"/><path d="m26.26 23.66c.266 1.136-1.344 1.107-1.379.285-.03-.699 1.06-1.023 1.379-.285z"/><path d="m5.392 23.375c.811-.095.678 1.224-.049 1.142-.581-.067-.667-1.058.049-1.142z"/><path d="m.876 24.278c-.22-.081-.35-.152-.38-.333-.178-1.055 1.437-.129.38.333z"/><path d="m2.777 24.23c-.408-.729.691-1.074.809-.428.076.424-.402.739-.809.428z"/><path d="m67.378 24.754c1.393-.252 1.3 1.788.143 1.664-.728-.079-1.036-1.402-.143-1.664z"/><path d="m69.708 24.943c.638-.181.902.199.902.666 0 .874-1.478 1.082-1.379-.095.02-.227.126-.471.477-.571z"/><path d="m72.321 26.085c-1.388.167-.494-2.004.333-.809.052.432-.102.658-.333.809z"/><path d="m74.223 25.134c.656-.231.636.812.189.856-.465.046-.661-.689-.189-.856z"/><path d="m76.599 25.134c.204-.054.423.027.428.333.019.954-1.304-.098-.428-.333z"/><path d="m9.765 25.276c1.258-.285 1.217 1.732.237 1.759-.959.027-1.223-1.535-.237-1.759z"/><path d="m31.917 25.324c1.292-.279 1.264 1.656.285 1.711-.894.051-1.276-1.441-.285-1.711z"/><path d="m7.483 25.42c.984-.25 1.089 1.298.333 1.426-.834.14-1.229-1.201-.333-1.426z"/><path d="m29.777 25.42c1.17-.276 1.066 1.499.143 1.473-.757-.021-.93-1.289-.143-1.473z"/><path d="m28.398 25.8c.049.629-.201 1.035-.76.95-1.163-.177.051-2.201.76-.95z"/><path d="m25.023 26.085c.071-.444.636-.742 1.047-.428.715.967-1.014 1.571-1.047.428z"/><path d="m5.344 25.609c.803-.127.74 1.154.096 1.188-.632.034-.833-1.071-.096-1.188z"/><path d="m3.062 25.704c.674-.228.687.817.238.903-.466.089-.801-.712-.238-.903z"/><path d="m.924 26.607c-1.111-.32.417-1.428.332-.38-.017.208-.129.272-.332.38z"/><path d="m67.378 26.988c1.437-.358 1.439 1.79.19 1.616-.674-.093-1.007-1.338-.19-1.616z"/><path d="m70.182 28.509c-.62.031-.981-.245-.951-.76.056-.925 1.408-.788 1.427.047.008.339-.155.507-.476.713z"/><path d="m71.608 27.511c.262-.53 1.059-.344 1.094.19.049.741-1.284.959-1.094-.19z"/><path d="m74.27 27.368c.621-.223.726.825.19.855-.445.027-.672-.681-.19-.855z"/><path d="m76.505 27.464c.491-.175.551.77.048.713-.34-.039-.402-.588-.048-.713z"/><path d="m29.777 27.511c1.325-.309 1.174 1.616.238 1.664-.827.042-1.262-1.425-.238-1.664z"/><path d="m27.685 27.558c.455-.077.849.191.856.665.015.96-1.434 1.028-1.474.095-.014-.363.113-.675.618-.76z"/><path d="m10.24 27.558c.279.217.557.424.57.808.045 1.199-1.709 1.143-1.664 0 .018-.432.278-.902 1.094-.808z"/><path d="m26.07 27.844c.799 1.042-1.172 1.649-1.141.475.014-.558.658-.845 1.141-.475z"/><path d="m7.435 27.796c1.049-.324 1.16 1.217.381 1.379-.821.171-1.22-1.062-.381-1.379z"/><path d="m4.916 28.699c-.157-1.214 1.205-.939 1.141-.19-.042.492-.894.767-1.141.19z"/><path d="m.828 27.938c.521-.151.533.743.096.761-.41.017-.528-.635-.096-.761z"/><path d="m3.158 27.986c.666-.177.619.892.047.855-.459-.028-.512-.732-.047-.855z"/><path d="m67.378 29.223c1.298-.373 1.411 1.498.476 1.663-.914.162-1.423-1.333-.476-1.663z"/><path d="m69.708 30.648c-.229-.193-.41-.355-.429-.666-.079-1.327 1.754-.807 1.379.238-.101.28-.364.453-.95.428z"/><path d="m72.702 30.267c-.23.521-1.073.359-1.094-.19-.025-.71 1.251-.991 1.094.19z"/><path d="m74.698 29.745c.116.258.025.594-.143.713-1.036.196-.535-1.378.143-.713z"/><path d="m76.599 30.458c-.916-.265.232-1.324.333-.476.03.25-.119.373-.333.476z"/><path d="m9.812 29.793c.544-.079.932.396.951.855.047 1.089-1.541 1.18-1.664.19-.072-.589.249-.979.713-1.045z"/><path d="m27.496 29.793c1.431-.385 1.31 1.607.285 1.615-.806.008-1.068-1.295-.285-1.615z"/><path d="m25.452 29.888c1.118-.259 1.089 1.339.333 1.474-.895.158-1.325-1.245-.333-1.474z"/><path d="m6.961 30.458c.324-.774 1.494-.528 1.378.333-.047.351-.315.617-.808.617-.416-.091-.624-.39-.57-.95z"/><path d="m4.916 30.458c.113-.382.844-.45 1.046-.095.3 1.152-1.265 1.23-1.046.095z"/><path d="m.781 31.076c-.002-.047-.059-.037-.096-.048-.206-.299-.098-.899.428-.761.305.227.197.887-.332.809z"/><path d="m3.158 30.315c.666-.175.633.859.143.903-.491.045-.708-.754-.143-.903z"/><path d="m67.568 31.456c.981-.253 1.315 1.795.143 1.759-.987.04-1.169-1.694-.143-1.759z"/><path d="m69.803 31.694c1.126-.288 1.04 1.424.143 1.378-.672-.034-.927-1.179-.143-1.378z"/><path d="m72.465 31.741c.377.382.263 1.125-.285 1.142-.813.022-.756-1.475.285-1.142z"/><path d="m51.691 31.837c1.34-.342 1.386 1.592.333 1.663-.925.062-1.271-1.329-.333-1.663z"/><path d="m74.318 31.931c.582-.104.59.877.095.903-.454.024-.705-.793-.095-.903z"/><path d="m76.742 32.644c-.403.07-.467-.198-.428-.57.373-.574 1.011.325.428.57z"/><path d="m9.67 32.17c1.406-.317 1.303 1.835.096 1.663-.735-.105-.965-1.45-.096-1.663z"/><path d="m6.961 33.215c-.207-1.273 1.321-1.202 1.378-.332.05.757-1.066 1.121-1.378.332z"/><path d="m5.344 32.407c.812-.135.852 1.302 0 1.188-.625-.083-.672-1.077 0-1.188z"/><path d="m2.825 32.835c.106-.596.821-.365.855.048.044.532-.901.757-.855-.048z"/><path d="m1.161 33.31c-.208.129-.528-.087-.57-.238-.244-.875 1.214-.608.57.238z"/><path d="m67.378 33.833c1.38-.334 1.393 1.73.285 1.712-.835-.015-1.15-1.403-.285-1.712z"/><path d="m69.897 33.975c1.051-.241.974 1.385.19 1.426-.815.043-.977-1.245-.19-1.426z"/><path d="m49.314 35.734c-.256-.238-.482-.398-.475-.808.014-.942 1.439-1.284 1.663-.285.137.606-.226 1.338-1.188 1.093z"/><path d="m72.18 34.07c.822-.135.713 1.153.047 1.142-.597-.012-.745-1.028-.047-1.142z"/><path d="m74.27 34.214c.281-.127.526.037.571.285.203 1.129-1.444.108-.571-.285z"/><path d="m76.458 34.261c.647-.276.572 1.02-.096.666-.161-.205-.165-.551.096-.666z"/><path d="m10.383 36.019c-.724.13-1.432-.35-1.141-1.235.229-.613 1.347-.604 1.474.095-.13.36-.091.891-.333 1.14z"/><path d="m7.911 35.925c-.702.068-1.007-.261-.95-.951.486-1.317 2.164.327.95.951z"/><path d="m5.249 34.688c.921-.306.843 1.115.191 1.141-.589.023-.751-.954-.191-1.141z"/><path d="m.828 34.736c.612-.278.685.812.143.809-.415-.004-.485-.654-.143-.809z"/><path d="m3.301 35.686c-.27-.065-.44-.175-.476-.38-.208-1.193 1.722-.106.476.38z"/><path d="m67.52 36.115c1.274-.281 1.288 1.748.19 1.711-.874-.03-1.146-1.501-.19-1.711z"/><path d="m46.843 36.732c.418-.698 1.463-.554 1.568.238.191 1.421-2.046 1.414-1.568-.238z"/><path d="m69.47 36.543c.321-.39 1.092-.315 1.236.189.251 1.471-1.881 1.054-1.236-.189z"/><path d="m72.654 36.543c.213.477-.016 1.003-.475.998-.971-.011-.43-1.818.475-.998z"/><path d="m49.599 36.447c.405-.166.722.166.855.428.32 1.253-1.677 1.349-1.378.048.147-.187.24-.426.523-.476z"/><path d="m51.786 36.495c1.083-.322 1.024 1.361.096 1.283-.634-.053-.716-1.098-.096-1.283z"/><path d="m74.27 36.543c.313-.142.611.073.618.38.024 1.024-1.473.005-.618-.38z"/><path d="m76.886 36.543c.348.257.16.843-.19.855-.503.018-.662-.983.19-.855z"/><path d="m9.67 36.685c1.292-.262 1.305 1.692.238 1.711-.875.016-1.147-1.415-.238-1.711z"/><path d="m7.435 36.828c1.15-.355 1.049 1.375.238 1.426-.788.05-.95-1.206-.238-1.426z"/><path d="m5.344 36.971c1.032-.267.799 1.475-.095 1.141-.471-.177-.478-.994.095-1.141z"/><path d="m.781 37.874c-.588-.805.803-1.2.713-.333-.03.293-.307.485-.713.333z"/><path d="m3.062 37.969c-.683-.384.213-1.438.57-.665.045.455-.121.701-.57.665z"/><path d="m67.568 38.348c1.204-.268 1.242 1.69.237 1.712-.909.021-1.247-1.486-.237-1.712z"/><path d="m45.274 38.491c1.167-.073 1.151 1.791.095 1.807-.978.014-1.135-1.614-.095-1.807z"/><path d="m69.803 38.539c1.051-.355 1.135 1.26.332 1.379-.756.111-1.189-1.06-.332-1.379z"/><path d="m47.509 38.681c1.072-.179 1.062 1.582.047 1.522-.805-.048-.909-1.378-.047-1.522z"/><path d="m72.037 38.681c.913-.321 1.002 1.203.095 1.046-.245-.042-.799-.797-.095-1.046z"/><path d="m49.694 38.729c.885-.102.803 1.309.048 1.331-.714.021-.886-1.234-.048-1.331z"/><path d="m74.413 38.729c.406-.087.582.162.618.428.108.801-.997.873-1.046.143-.023-.346.124-.506.428-.571z"/><path d="m76.553 38.729c.877-.31.883 1.06.189 1.046-.519-.01-.736-.853-.189-1.046z"/><path d="m51.786 38.872c.492-.165.818.184.761.618-.144 1.09-1.844.007-.761-.618z"/><path d="m9.67 38.967c1.238-.405 1.409 1.791.189 1.712-.84-.039-1.029-1.534-.189-1.712z"/><path d="m7.483 39.109c.545-.131.832.251.856.666.052.908-1.494 1.185-1.378-.048.021-.238.156-.529.522-.618z"/><path d="m3.109 39.205c.92-.254.802 1.152.191 1.188-.638.038-.835-1.01-.191-1.188z"/><path d="m5.297 39.205c.984-.244.805 1.199.143 1.188-.424-.007-.952-.989-.143-1.188z"/><path d="m1.209 40.392c-.143 0-.285 0-.428 0-.196-.155-.32-.274-.333-.522-.069-1.325 1.927-.178.761.522z"/><path d="m67.568 40.725c1.234-.227 1.325 1.835.095 1.664-.713-.099-1.12-1.475-.095-1.664z"/><path d="m48.459 41.914c-.285.944-1.663.668-1.663-.237 0-1.056 1.82-1.211 1.663.237z"/><path d="m72.417 40.82c.557.151.642 1.2.048 1.379-1.163.254-1.174-1.581-.048-1.379z"/><path d="m74.223 40.868c1.122-.232 1.122 1.442.143 1.331-.591-.066-.845-1.11-.143-1.331z"/><path d="m76.125 41.486c.002-.526.548-.835 1.046-.57.987.814-.952 1.988-1.046.57z"/><path d="m69.803 40.916c.97-.289 1.111 1.098.475 1.331-.754.275-1.421-1.05-.475-1.331z"/><path d="m49.694 40.964c1.097-.205 1.055 1.601 0 1.473-.757-.091-.793-1.326 0-1.473z"/><path d="m51.358 41.391c.272-.659 1.25-.464 1.284.19.045.871-1.458 1.056-1.284-.19z"/><path d="m10.858 42.01c-.04 1.148-1.815 1.041-1.663-.144.121-.953 1.579-.947 1.663.144z"/><path d="m2.73 42.532c-.535-.787.405-1.625.998-1.046.607.593-.203 1.714-.998 1.046z"/><path d="m8.339 41.723c.29 1.2-1.194 1.26-1.331.476-.141-.81.939-1.237 1.331-.476z"/><path d="m.924 41.391c.965-.128.926 1.523-.048 1.378-.65-.096-.724-1.276.048-1.378z"/><path d="m5.344 41.391c.035-.107.268-.019.381-.048.723.237.639 1.322-.047 1.426-.763.116-1.164-1.118-.334-1.378z"/><path d="m67.616 42.912c1.058-.183 1.278 1.547.332 1.712-1.031.18-1.438-1.521-.332-1.712z"/><path d="m69.755 43.008c1.338-.454 1.505 1.748.237 1.663-.799.017-.987-1.469-.237-1.663z"/><path d="m72.084 43.008c1.249-.279 1.229 1.821.048 1.663-.746-.1-.972-1.457-.048-1.663z"/><path d="m74.223 43.008c1.216-.377 1.432 1.461.475 1.616-.86.139-1.392-1.225-.475-1.616z"/><path d="m76.029 43.482c.223-.303.336-.498.666-.522 1.07-.081 1.188 1.722.047 1.664-.494-.026-.773-.453-.713-1.142z"/><path d="m49.79 44.813c-.424-.215-.783-.43-.761-.998.044-1.091 1.593-.988 1.664 0 .037.518-.271.869-.903.998z"/><path d="m51.549 44.48c-.427-.481-.27-1.616.666-1.426.972.296.474 1.991-.666 1.426z"/><path d="m10.003 45.241c-.616-.143-.899-.542-.856-1.046.09-1.038 1.533-.986 1.664-.047.089.633-.344.908-.808 1.093z"/><path d="m.924 43.482c1.244-.258 1.123 1.759.143 1.759-.815.001-1.124-1.555-.143-1.759z"/><path d="m3.348 45.289c-.348-.08-.576-.28-.761-.522-.495-1.486 1.468-1.707 1.569-.571.049.56-.375.888-.808 1.093z"/><path d="m5.486 45.241c-.516-.224-.807-.532-.76-1.046.096-1.056 1.664-.979 1.664.096 0 .531-.408.809-.904.95z"/><path d="m7.721 45.289c-.516-.177-.877-.584-.808-1.141.104-.848 1.298-.942 1.616-.19.095.808-.301 1.125-.808 1.331z"/><path d="m23.17 44.433c-.001-.046-.059-.037-.095-.048-.497-1.329 1.321-.167.095.048z"/><path d="m52.404 45.241c.886.336.573 1.676-.285 1.712-1.059.044-1.24-1.953.285-1.712z"/><path d="m25.594 45.385c1.312-.266 1.148 1.648.191 1.663-.836.013-1.216-1.457-.191-1.663z"/><path d="m20.935 45.955c.775-.269.754.97.19.998-.532.026-.705-.82-.19-.998z"/><path d="m23.17 46.002c.632-.196.613.745.096.714-.317-.021-.515-.542-.096-.714z"/><path d="m27.971 47.475c1.209-.215 1.238 1.864 0 1.711-.772-.094-.956-1.541 0-1.711z"/><path d="m25.642 47.714c1.141-.318 1.014 1.432.189 1.426-.718-.005-.934-1.219-.189-1.426z"/><path d="m19.224 47.903c.541.228.508 1.385-.095 1.427-.762.052-1.027-1.51.095-1.427z"/><path d="m21.221 49.186c-.812-.036-.665-1.182-.047-1.188.597-.005.833 1.086.047 1.188z"/><path d="m23.598 48.047c.432.252.318.964-.143.998-.613.045-.793-1.11.143-.998z"/><path d="m30.015 49.758c1.398-.299 1.307 1.826.095 1.664-.753-.102-.932-1.436-.095-1.664z"/><path d="m19.843 50.376c.223 1.266-1.524 1.166-1.284-.048.205-.614 1.091-.523 1.284.048z"/><path d="m27.924 49.947c.4-.178.691.163.855.381.193 1.296-1.394 1.093-1.331.189.021-.286.191-.457.476-.57z"/><path d="m21.078 50.043c.594-.179.848.231.855.522.023.789-1.235.966-1.235.048 0-.28.12-.457.38-.57z"/><path d="m23.408 50.043c.981-.271.924 1.273.047 1.188-.606-.058-.627-1.029-.047-1.188z"/><path d="m26.307 50.138c.339.474.032 1.111-.428 1.141-1.096.071-.707-1.904.428-1.141z"/><path d="m16.515 51.991c1.478-.277 1.393 1.807.237 1.807-.967 0-1.334-1.535-.237-1.807z"/><path d="m32.772 53.607c-.844.099-1.159-.477-1.046-.998.171-.782 1.272-.868 1.568-.095.069.607-.176.901-.522 1.093z"/><path d="m19.035 52.135c1.174-.265 1.082 1.568.189 1.568-.648 0-1.205-1.341-.189-1.568z"/><path d="m21.316 52.181c.894-.088 1.006 1.331.143 1.426-.707.078-1.285-1.312-.143-1.426z"/><path d="m30.062 52.181c1.135-.285 1.114 1.306.238 1.331-.649.02-.992-1.075-.238-1.331z"/><path d="m27.971 52.229c.861-.171.871 1.206.143 1.236-.694.029-.899-1.085-.143-1.236z"/><path d="m25.785 52.276c.839-.2.82 1.045.236 1.142-.662.109-.975-.964-.236-1.142z"/><path d="m23.312 52.324c1.073-.284.969 1.15.238 1.188-.569.03-.999-.974-.238-1.188z"/><path d="m76.458 8.592c-.618-.127-.903-.587-1.094-1.141.14-.352.395-.588.522-.951-.092-.729-1.054-.757-1.188-.047.099.424.447.598.57.998-.193 1.334-1.864 1.504-2.091 0 .401-.469.715-1.565-.095-1.568-.336-.002-.43.283-.618.523.084.438.432.614.522 1.046-.104.64-.507.982-.998 1.235-.429-.142-.663-.477-.998-.713-.484.135-.661.575-1.142.713-.563-.269-.989-.526-.998-1.141-.006-.392.473-.73.476-1.046.003-.357-.39-.557-.665-.713-.326.103-.483.373-.618.666.112.421.471.626.475 1.045.016 1.326-1.993 1.295-1.996-.047-.001-.398.452-.673.428-1.046-.049-.752-1.053-.398-1.094.048.063.394.457.57.476.95.026.525-.498.845-.808 1.188.22.351.623.518.761.951.09.739-.381.919-.618 1.331.211.406.615.62.665 1.188-.103.483-.441.731-.713 1.046.366.411.864.815.618 1.521-.117.337-.475.418-.666.713.298.41.739.59.714 1.189-.023.53-.454.701-.714 1.094.266.387.729.517.761 1.046.034.566-.431.816-.761 1.188.2.356.655.504.714.998.066.575-.294.907-.666 1.236.161.449.721.594.761 1.141.04.542-.364.832-.761 1.142.203.406.732.609.761 1.141.027.527-.371.756-.665 1.141.155.288.471.416.617.713.242.809-.3 1.17-.665 1.522.193.315.523.362.665.713.264.648-.177 1.459-.855 1.474-.491.011-.653-.384-1.046-.57-.335.092-.457.398-.618.665.082.362.279.608.571.761.468-.157.522-.601 1.046-.618.523-.016.976.492.998.998.023.532-.364.82-.618 1.188.13.316.459.4.57.761.194.627-.223 1.413-.855 1.426-.385.009-.657-.521-1.046-.522-.387-.002-.517.409-.713.618.114.377.362.62.665.808.496-.168.534-.666 1.141-.617.411.032.872.545.903.998.035.496-.336.753-.522 1.141.101.397.525.511.57.95.057.557-.399.966-.761 1.284.178.345.587.413.713.808.234.729-.229 1.209-.855 1.427.396.341.967.696.903 1.378-.039.421-.483.905-.951.903-.534-.003-.628-.541-1.046-.761-.271.203-.438.512-.617.809.108.351.319.599.617.761.409-.146.559-.552.999-.666 1.112.233 1.385 1.442.476 2.092.184.717 1.193.852 1.426.095-.118-.493-.621-.576-.618-1.093.007-1.141 1.904-1.231 1.997-.048.037.48-.309.725-.523 1.141.188.778 1.239.619 1.427-.048-.081-.37-.509-.465-.571-.902-.071-.503.284-1.119.761-1.188.65-.096.851.424 1.283.713.383-.212.454-.608.903-.666 1.199-.151 1.419 1.417.57 1.997.13.346.444.506.761.665.353-.075.538-.317.666-.618-.039-.331-.427-.485-.476-.855-.066-.5.235-.861.618-1.093.796-.094 1.286.375 1.283.95-.003.457-.409.678-.523 1.046.189.78 1.218.71 1.427 0-.131-.369-.562-.566-.57-1.046-.017-1.023 1.37-1.36 1.806-.38.262.718-.497 1.046-.475 1.426.019.338.444.354.57.713.249.53-.171.945-.143 1.427.015.27.278.487.332.761.115.577-.094.886-.285 1.426.528.791.349 2.1-.57 2.329-.69.088-.886-.318-1.331-.476-.461.059-.531.413-.902.476-.579.096-.832-.452-1.332-.476-.506-.023-.507.445-1.093.476-.539.097-.655-.414-1.142-.428-.468-.014-.978.447-1.567.333-.254-.05-.345-.228-.666-.333-.533.206-.925.541-1.664.285-.249-.086-.37-.32-.618-.333-.329-.017-.705.41-1.141.428-.379.016-.776-.379-1.141-.38-.332-.002-.598.346-.951.38-.566.055-.769-.269-1.283-.476-.376.104-.706.48-1.141.476-.311-.004-.589-.284-.903-.285-.508-.001-.871.446-1.379.38-.271-.035-.505-.278-.76-.285-.5-.012-.822.446-1.616.333-.279-.04-.494-.237-.761-.237-.496-.001-.843.427-1.521.237-.272-.076-.528-.496-.855-.522-.325-.026-.726.432-1.188.428-.353-.003-.657-.286-.903-.285-.356.001-.634.372-.998.428-.412.062-.779-.233-1.236-.237-.305-.003-.606.244-.902.285-.324.045-.656-.066-1.046-.096-.655-.049-1.387.104-1.949.048-.213-.021-.448-.143-.665-.143-.266-.001-.534.168-.808.19-.48.038-.917-.241-1.379-.238-.505.004-.87.26-1.331.19-.271-.041-.52-.268-.808-.285-.485-.03-.824.279-1.331.143-.35-.095-.472-.362-.855-.523-.377.057-.473.353-.809.429-.586.131-1.253-.319-1.283-.903-.02-.373.459-.74.428-1.094-.065-.746-1.071-.51-1.474-.095.327.338.731.599.855 1.141-.135 1.395-2.226.974-1.759-.333.144-.398.477-.486.714-.76-.37-.249-.692-.545-.951-.903-.469.132-.46.592-.903.665-1.19.197-1.388-1.389-.57-1.901-.22-.414-.625-.644-.855-1.046-.424.259-.597.747-1.094.761-.455.012-.972-.43-.998-.95-.023-.455.479-.663.476-1.094-.003-.385-.486-.61-.618-.809-.428.227-.483.709-1.045.713-.547.005-.969-.558-.904-1.093.049-.409.436-.531.524-.903-.176-.485-.653-.579-.666-1.141-.012-.57.859-1.317-.143-1.569-.33.034-.539.19-.665.429.066.339.452.472.523.855.271 1.486-2.051 1.68-1.807-.095.092-.289.344-.418.428-.714-.123-.438-.57-.676-.57-1.189 0-.385.295-.598.381-.998-.255-.764-1.005-.115-1.094.38.359.857.166 1.689-.617 1.807-.273.041-.607-.154-.903-.095-.747.15-.413 1.032-.523 1.711-.144.823-1.269.921-1.854.429-.335.062-.47.321-.618.569.219.932.214 1.912-.57 1.997-.364.039-.676-.358-1.045-.333-.903.063-.107 1.062-.191 1.807-.11.285-.342.45-.428.761.09.442.385.494.333.998-.114 1.104-1.581.897-1.616-.095-.021-.595.572-1.071-.237-1.331-.811.18-.323.823-.333 1.474-.008.462-.261.603-.38.998.069.357.324.53.427.855.183 1.632-2.004 1.43-1.996.191.003-.443.279-.524.381-.951-.068-.64-.906-.534-.951.048.42.553.41 1.641-.332 1.901-.537.188-.862-.233-1.379-.238-.461-.004-.816.384-1.236.333-.4-.048-.699-.424-.95-.428-.473-.007-.649.521-1.379.428-.304-.039-.517-.32-.855-.333-.38-.013-.722.383-1.093.381-.407-.002-.775-.47-1.142-.476-.323-.005-.669.405-.998.428-.469.032-.876-.472-1.235-.475-.353-.004-.589.377-.856.427-.581.098-1.13-.172-1.341-.627-.262-.567.121-1.01.143-1.474.018-.367-.223-.788-.189-1.236.019-.276.229-.572.237-.855.012-.391-.28-.818-.191-1.283.065-.332.313-.445.476-.809-.043-.347-.382-.527-.428-.902-.173-1.421 1.702-1.47 1.948-.286.453-.28.574-.989 1.19-.998.922-.014 1.308 1.476.522 2.044.083.699 1.073.886 1.188.095-.025-.412-.469-.61-.476-1.045-.008-.507.519-1.062 1.046-1.046.412.012.591.556.998.57.473.018.601-.644 1.046-.665.605.187 1.058.526.998 1.378-.095.316-.38.443-.476.761.121.339.395.525.666.713.307-.105.488-.336.617-.618.011-.369-.37-.548-.427-.902-.096-.596.372-1.213.903-1.236.951-.043 1.385 1.349.617 2.044.07.609.977.656 1.142.095-.019-.445-.423-.625-.429-1.046-.006-.5.426-.739.713-1.093-.28-.448-.807-.649-.665-1.521.109-.318.374-.481.523-.761-.143-.445-.629-.67-.617-1.188.011-.494.398-.67.666-1.046-.309-.414-.809-.936-.571-1.616.101-.289.386-.366.571-.618-.082-.36-.441-.433-.571-.761-.255-.646.165-1.14.618-1.521-.594-.529-1.009-1.92 0-2.281-.287-.489-.867-.841-.618-1.568.106-.312.435-.407.618-.713-.246-.413-.736-.6-.76-1.142-.026-.556.408-.761.664-1.188-.773-.503-.842-1.857.143-2.187-.268-.39-.755-.627-.76-1.188-.004-.477.367-.696.57-1.093-.159-.41-.608-.602-.617-1.094-.011-.516.4-.754.713-1.094-.162-.397-.658-.524-.713-1.045-.061-.568.424-1.232.949-1.236.505-.003.594.475 1.047.618.699-.183.688-1.201 0-1.379-.377.162-.584.494-.998.618-1.108-.135-1.371-1.787-.334-2.187-.221-.461-.668-.694-.808-1.236.15-.499.531-.769.856-1.093-.312-.434-.889-.602-.762-1.474.102-.359.398-.521.523-.855-.18-.376-.482-.627-.666-.998-.408.228-.496.77-1.045.76-.981-.02-1.227-2.024.237-1.806.333.157.528.453.713.76.36-.257.577-.658.903-.95-.227-.39-.709-.544-.761-1.046-.06-.58.396-.802.666-1.236-.138-.386-.507-.538-.618-.95-.081-.762.348-1.016.713-1.331-.277-.491-.685-.5-.761-1.046-.067-.496.386-.764.38-1.188-.006-.483-.546-.612-.57-1.093-.047-.4.461-.658.476-1.094.019-.541-.449-.875-.285-1.379.254-.777 1.224-.704 1.997-.237.524-.18.722-.586 1.33-.522.353.036.604.416.904.427.311.013.586-.373.95-.427.527-.078.739.153 1.235.285.438-.095.612-.344 1.046-.333.344.008.589.289.903.285.481-.006.891-.542 1.568-.476.313.031.51.178.903.285.759-.185 1.802-.096 2.377.19.517 1.204-.569 2.145.191 3.138-.108.32-.287.568-.381.903.08.379.216.703.523.855.492-.056.444-.292.856-.285 1.059.016 1.174 1.806.048 1.806-.475 0-.569-.43-.999-.57-.621.108-.464 1.079.048 1.188.505-.035.502-.327.903-.333.441-.006.672.468.998.476.322.008.547-.278.761-.57-.12-.42-.571-.528-.614-1-.051-.57.47-1.14 1.094-1.094.453.034.522.38.903.57.387-.183.594-.547.902-.808-.14-.373-.589-.466-.665-.903-.106-.611.395-1.247 1.046-1.188.457.041.496.44.903.618.382-.173.629-.48.855-.808-.113-.348-.474-.446-.57-.809-.044-.749.319-1.232.903-1.236.457-.002.671.384 1.046.523.349-.087.551-.568.998-.618.511-.057.721.405 1.188.38.422-.021.65-.544 1.093-.57.338-.019.626.328 1.046.333.409.005.811-.428 1.236-.428.323 0 .67.283.998.285.474.003.88-.342 1.616-.237.189.026.345.138.522.143.54.013 1.019-.25 1.569-.19.242.026.51.184.76.19.5.013.935-.264 1.427-.19.247.037.495.273.761.285.341.017.656-.262.998-.285.568-.039.832.258 1.331.428.55-.115.735-.331 1.235-.237.381.07.597.5.903.522.58.043.956-.817 1.664-.333.566.543.221 1.775-.285 2.092.153.258.407.416.665.57.242-.249.336-.647.475-.998-.336-.568-.395-1.979.333-2.044 1.071-.097 3.202-.054 4.325.048.631-.228 1.484-.134 2.044.095.385-.059.699-.189 1.189-.143.271.109.47.291.761.38.38-.054.471-.298.761-.38.6-.17.958.271 1.474.285.475.014.88-.396 1.331-.333.31.044.58.373.855.381.45.012.68-.467 1.379-.333.31.06.566.422.855.428.423.009.656-.493 1.331-.428.32.031.667.339.95.333.441-.01.63-.416 1.284-.333.28.035.59.375.902.38.347.006.665-.369.998-.38.527-.018.818.463 1.189.476.522.018.678-.41 1.093-.428.869-.039 1.258.673 1.188 1.474-.021.238-.143.433-.143.665 0 .258.183.556.19.903.007.359-.273.716-.285 1.093-.015.443.385.89.189 1.474-.083.251-.409.382-.428.666-.024.389.425.588.428 1.093.008.612-.338.845-.897 1.093zm-42.973-6.084c.044-.905-1.155-.685-1.283 0 .259.619 1.249.701 1.283 0zm16.59.189c0 .313.416.626.428.951.024.643-.57.81-.761 1.188.113.315.464.392.57.713.219.812-.275 1.303-.856 1.474-.616-.369-1.387-.974-1.616.095.73.691.567 2.121-.808 1.949-.403-.108-.516-.747-.855-.761-.347.894-1.325 1.116-2.091.523-.705.14-.788 1.163 0 1.283.37-.217.51-.665.998-.665.55 0 .96.628.903 1.188-.056.553-.539.612-.761.998 1.042.307.824 1.856-.143 1.854-.411 0-.872-.35-.855-.902.016-.535.495-.621.713-1.046-.393-.13-.517-.529-.951-.618-.271.14-.408.415-.569.666.606.689.468 1.621-.238 2.139.306.297.611.594.903.903.423-.274.59-.765 1.189-.713.476.041.932.537.855 1.141-.058.453-.472.5-.618.951.302.3.532.672.808.998.312-.427.518-.971 1.189-.903.476.047.872.541.854.998-.02.573-.599.793-.902 1.141.427.176.695.51 1.094.713.387-.169.492-.512.95-.523.634-.015 1.133.705.95 1.331-.094.322-.417.373-.475.713.204.287.482.5.76.713.492-.144.508-.657 1.046-.665.458-.007.959.448.998.855.056.578-.461.834-.665 1.283.151.182.351.315.713.285.224-.262.522-.497.524-.856.001-.283-.299-.547-.333-.855-.065-.587.235-.821.38-1.379-.102-.392-.278-.6-.285-.998-.007-.422.245-.778.19-1.141-.046-.311-.339-.546-.38-.809-.083-.527.259-.915.237-1.474-.011-.292-.253-.578-.285-.855-.083-.711.385-.955.38-1.426-.003-.335-.35-.669-.38-.998-.057-.623.32-.837.333-1.283.012-.438-.333-.817-.238-1.331.063-.342.332-.441.381-.856-.105-.436-.329-.634-.333-1.093-.004-.449.346-.826.333-1.188-.01-.269-.331-.539-.381-.855-.113-.724.641-1.666-.19-1.949-.166 1.114-1.966 1.246-2.091 0 .094-.509.552-.652.713-1.093-.397-.778-1.334-.536-1.332.189zm-15.353-.189c.167.407.916.104.665-.333-.233-.247-.699-.085-.665.333zm33.655-.239c.041.069.07.15.189.143.07-.041.15-.071.143-.19-.041-.069-.071-.15-.19-.143-.07.042-.151.071-.142.19zm-55.903.239c-.017.235.214.435.523.569.995-.276-.462-1.45-.523-.569zm35.748.189c.014.097.128.094.142.19.263.024.407-.068.429-.285-.077-.274-.619-.34-.571.095zm-33.085.095c.215.025.311-.069.285-.284-.199-.185-.469.086-.285.284zm15.591 1.236c-.295.212-.549.466-.761.761.17.273.431.457.761.57.707-.139.683-1.175 0-1.331zm37.601.191c-.011.279.079.459.333.475.557-.166-.056-1.011-.333-.475zm-55.855.333c.01.307.276.492.618.57.953-.515-.649-1.665-.618-.57zm51.434-.048c.105.085.193.188.428.143.408-.435-.537-.884-.428-.143zm11.123-.333c-.123.48.452.618.476.19-.069-.221-.27-.346-.476-.19zm-8.794.237c.057.056.168.054.285.048.177-.251-.365-.528-.285-.048zm6.655.144c.117.006.229.007.285-.048.094-.557-.613-.272-.285.048zm-39.644.189c.046-.291-.113-.473-.429-.38-.806.237.307 1.145.429.38zm14.641.19c.131.673 1.052.511 1.141-.095-.144-.548-1.096-.532-1.141.095zm-32.752-.142c.11.015.183-.008.237-.048.019-.177-.038-.279-.19-.285-.11.029-.131.249-.047.333zm31.182.522c.224.012.346-.196.429-.428-.324-.972-1.275.386-.429.428zm17.922 1.664c.277-.103.462-.298.522-.618-.467-1.381-1.793.348-.522.618zm6.084-.475c.029.759 1.117.609 1.094-.047-.012-.309-.252-.562-.713-.429-.269.077-.388.299-.381.476zm-8.224.19c.155-.02.25-.1.333-.19-.009-.879-1.09-.09-.333.19zm-49.816.143c.248.372 1.189.686 1.33 0-.143-.858-1.123-.719-1.33 0zm3.326-.048c-.014-.22-.174-.4-.475-.285-.817.312.531 1.141.475.285zm12.265.333c.12.26.37.391.666.476.626-.08.665-1.062 0-1.141-.257.187-.555.333-.666.665zm18.967-.048c-.036-.565-.966-.666-1.093 0 .119.341.221.698.523.857.179-.288.594-.475.57-.857zm-15.829-.189c-.09-.37-.716-.274-.666.237.037.011.056.04.048.095.375.252.693-.025.618-.332zm13.214.57c.166-.155.17-.467-.048-.57-.505-.097-.494.714.048.57zm19.537 1.235c-.005.328.249.472.428.713.396-.143.544-.533.855-.76-.259-.692-1.272-.714-1.283.047zm-1.901.143c.226.107.525.025.522-.237-.044-.193-.196-.279-.476-.237-.094.111-.124.317-.046.474zm-49.532.285c.199.261.447.472.761.618.267-.112.44-.319.57-.57-.047-.814-1.192-.719-1.331-.048zm14.546.191c-.005-.213-.195-.469-.476-.476-.426-.009-.45.505-.95.523-.431-.172-1.308-1.013-1.427-.19-.129.889 1.051.549 1.427.237.458.442 1.443.605 1.426-.094zm-11.932-.047c.06.162.222.221.476.189.061-.113.174-.175.143-.38-.104-.328-.69-.282-.619.191zm13.881-.048c-.087-.311-.72-.233-.618.189.078.302.744.258.618-.189zm12.739.237c.017.393.766.476.761 0-.067-.361-.734-.469-.761 0zm22.675.713c-.655.193-.607 1.174-.048 1.427.854-.327.843-1.088.048-1.427zm-2.425.855c.085.133.438.133.523 0 .126-.533-.66-.564-.523 0zm-48.771-.237c-.351-.011-.531.395-.76.618.234.256.463.519.808.665.725-.178.583-1.263-.048-1.283zm1.806.713c.075.578 1.172.116.57-.38-.39-.043-.605.116-.57.38zm9.174.048c.088.182.189.351.476.333.609-.333-.396-1.074-.476-.333zm17.351.19c.123.241.205.524.476.617.234-.193.427-.428.523-.76-.125-.551-.99-.429-.999.143zm-15.069 0c.213.038.264-.085.285-.238-.079-.062-.159-.126-.333-.095-.067.147-.021.213.048.333zm13.738-.095c-.874-.682-.281 1.042 0 0zm24.148.76c-.614.345-.515 1.231.143 1.474.218-.258.476-.475.713-.713-.191-.348-.45-.628-.856-.761zm-2.282.904c.188.138.495.079.476-.237-.133-.35-.661-.121-.476.237zm-48.343.427c.031-.656-.955-1.034-1.141-.095.161.556 1.106.817 1.141.095zm28.236-.712c-.178.218-.366.426-.428.761.209.664 1.1.479 1.331-.048-.246-.293-.507-.571-.903-.713zm-26.382.951c.047-.063.078-.144.143-.19-.07-.926-1.114.216-.143.19zm8.699-.429c-.005.401.137.655.57.618.413-.321-.244-1.029-.57-.618zm15.924.381c.021-.163-.019-.267-.047-.381-.806-.493-.589.99.047.381zm-13.928.095c.095.347.713.295.666-.143-.109-.291-.689-.226-.666.143zm38.219 1.997c.251-.193.55-.338.666-.666-.194-.298-.413-.57-.761-.713-.563.267-.609 1.229.095 1.379zm-1.855-.666c-.066-.753-1.261.265-.189.333.135-.119.206-.148.189-.333zm-18.871.666c.09.618 1.133.514 1.141-.048.005-.321-.436-.506-.617-.761-.302.248-.575.458-.524.809zm-31.374-.048c.34.151.535.447.904.57.296-.115.521-.303.617-.618-.24-.87-1.214-.583-1.521.048zm3.471-.143c-.123-.398-.928-.292-.809.332.294.491.948.115.809-.332zm8.651-.238c-.601.072-.337 1.044.19 1.046.291.001.354-.217.523-.428-.193-.337-.364-.659-.713-.618zm17.303.476c.064.047.096.127.143.19 1.151.063-.065-1.251-.143-.19zm-14.688.047c-.091-.505-.938-.506-1.045.095.17.619 1.18.653 1.045-.095zm1.806.38c.596-.339-.406-.969-.475-.285.07.184.19.317.475.285zm34.939 1.189c.136.292.236.62.618.666.264-.228.556-.428.761-.713-.249-.631-1.278-.859-1.379.047zm-18.016.522c.013.293.37.529.713.666.31-.213.665-.381.903-.666-.493-.22-.744-.682-1.046-1.093.002.405-.587.721-.57 1.093zm16.066-.522c.049.095.119.166.19.237.42.08.58-.308.381-.569-.276-.123-.614-.012-.571.332zm-35.27 0c-.381.013-.601.594-1.046.57-.466-.023-.483-.419-.951-.522-.667.185-.413 1.244.048 1.474.402-.162.452-.598.903-.618 1.136-.052 1.192 1.798.047 1.759-.495-.017-.509-.418-.998-.618-.448.409-.397 1.348.19 1.568.339-.15.478-.458.902-.428 1.011.073.867 1.589-.095 1.569-.376-.008-.355-.247-.808-.333-.837.484-.033 1.205-.096 1.997-.024.313-.274.621-.285.95-.02.614.355 1.146.143 1.759-.085.247-.299.336-.38.666.129.337.369.459.428.76.124.633-.395 1.042-.38 1.474.01.29.398.619.428.951.065.704-.774 1.601.096 1.901.478-.182.512-.523.998-.523 1.059.001 1.064 1.793-.049 1.759-.418-.013-.458-.398-.902-.475-.325.279-.736 1.099-.19 1.426.496-.122.644-.593 1.235-.618.484.087.633.509.999.713.226-.344.589-.551.761-.95-.842-.444-.748-1.947.237-2.044.594-.059.668.388 1.141.57.339-.185.548-.498.809-.761-.103-.358-.419-.425-.523-.761-.202-.651.251-1.411.903-1.378.349.017.662.629.998.617.372-.013.517-.583.714-.713-.147-.411-.533-.644-.523-1.141.027-1.328 1.863-1.157 1.949 0 .281-.337.539-.697.713-1.141-.703-.658-.385-1.663.285-2.14-.417-.217-.621-.646-1.046-.855-.438.211-.401.542-.808.618-.651.122-1.088-.262-1.142-.809-.043-.442.451-.824.429-1.188-.021-.334-.525-.726-.666-.903-.313.219-.517.828-1.188.76-.589-.06-.861-.592-.855-.998.006-.364.489-.683.476-.998-.011-.255-.477-.726-.761-.713-.286.013-.564.514-.951.522-.393.01-.968-.413-.998-.903-.035-.587.502-.8.57-1.141-.311-.319-.37-.724-.761-.711zm-14.213.618c.297.193.496.485.855.618.267-.113.402-.358.475-.666-.174-.757-1.108-.504-1.33.048zm31.61-.048c.037.011.056.04.048.096.183.163.637.122.618-.19-.024-.352-.775-.429-.666.094zm-28.235 0c-.029-.381-.686-.45-.714.096.159.471.741.278.714-.096zm13.499.143c-.05-.608-1.074-.572-1.093 0-.01.31.363.462.617.618.322-.173.498-.356.476-.618zm1.284.095c.013.545.869.442.808-.096-.029-.262-.253-.336-.476-.285-.322.076-.336.25-.332.381zm33.798.665c-.621.07-.687 1.372.047 1.379.308-.185.607-.376.809-.666-.296-.199-.47-.757-.856-.713zm-1.807.713c-.027-.43-.795-.319-.57.238.312.222.587.018.57-.238zm-14.403.618c.033.546 1.001.669 1.141 0-.161-.66-1.184-.714-1.141 0zm-1.949.048c.037.01.056.039.048.095 1.34.498.109-1.526-.048-.095zm-14.689.047c-.102-.642-1.101-.643-1.093 0 .004.342.497.599.713.857.231-.332.436-.509.38-.857zm-16.019.333c.773-.107-.209-1.286-.428-.333.11.192.189.366.428.333zm18.016-.38c-1.163-.622-.207 1.29 0 0zm-15.972-.048c.006.121.069.185.19.19.04-.056.063-.128.048-.238-.11-.014-.183.008-.238.048zm46.87.998c-.32.108-.439.416-.57.713.155.273.333.524.57.713.377-.146.566-.48.856-.713-.228-.294-.512-.534-.856-.713zm-2.472.524c-.175.61.79.628.665.048-.098-.268-.528-.295-.665-.048zm-11.551.761c.105.614 1.043.34 1.235-.096-.162-.803-1.39-.805-1.235.096zm-37.885.141c.351.559 1.221.786 1.378-.095-.206-.879-1.129-.554-1.378.095zm35.983-.237c.047.191.328.239.523.143.127-.235-.009-.455-.19-.522-.188.048-.354.119-.333.379zm-14.735.048c-.101-.55-.971-.489-.998.048-.017.318.299.524.57.665.328-.196.484-.405.428-.713zm-17.968.285c.033-.24-.053-.359-.143-.476-.886-.1-.268 1.097.143.476zm19.347 0c.043.113.222.197.475.143.626-.554-.765-.905-.475-.143zm29.281.713c-.299.113-.424.4-.57.666.1.344.33.557.57.76.349-.19.659-.418.856-.76-.288-.22-.494-.522-.856-.666zm-11.123.475c-.428-.133-.604.285-.713.618.141.207.25.447.57.475.32-.163.458-.827.143-1.093zm8.699.38c.194.312.814.068.57-.333-.225-.192-.684-.094-.57.333zm-49.294.571c.176.683 1.116.815 1.141-.095-.125-.752-1.077-.645-1.141.095zm22.009-.143c.128.221.506.603.855.761 1.256-.603-.243-1.947-.855-.761zm16.59-.237c-.05-.377-.74-.429-.666.19.232.369.71.146.666-.19zm-14.118.333c.023.239.366.426.713.285.465-.751-.778-.939-.713-.285zm-21.677.285c.708-.04-.112-1.149-.332-.285.087.174.153.295.332.285zm48.914.617c-.6.241-.507 1.327.096 1.331.317.003.521-.423.713-.665-.243-.25-.404-.58-.809-.666zm-11.741 1.19c.124.256.198.562.522.617.108-.412.733-1.209.048-1.426-.249.21-.447.472-.57.809zm9.412-.191c.314.134.638-.143.476-.476-.328-.316-.793.149-.476.476zm-26.478.617c.514-.096.448-1.175-.189-.998-.602.168-.479 1.124.189.998zm-22.247-.998c-.356.166-.551.494-.807.761.311.196.422.592.807.713.255-.205.495-.425.571-.808-.148-.263-.277-.547-.571-.666zm24.054.618c1.028.435.127-1.15 0 0zm13.548.38c.204.018.348-.171.38-.427-.393-.71-1.016.371-.38.427zm-35.176-.094c0-.11 0-.222 0-.332-.695-.572-.759.936 0 .332zm48.724.712c-.673.226-.609 1.233.047 1.426.243-.279.607-.439.761-.808-.261-.214-.463-.489-.808-.618zm-31.85 1.141c.123.274.347.446.666.523.856-.211.361-1.163 0-1.569-.121.449-.51.633-.666 1.046zm20.964 4.089c.003-.247-.294-.512-.333-.809-.063-.476.35-.929.333-1.378-.01-.271-.364-.649-.381-1.046-.031-.76.824-1.628-.095-1.902-.201.386-.519.655-.713 1.046.133.434.557.488.57.951.016.513-.543 1.058-1.046 1.046-.52-.012-.661-.453-1.046-.713-.236.317-.549.561-.713.95.1.312.393.432.476.761.201.76-.272 1.246-.903 1.331-.465-.063-.683-.611-1.046-.618-.275.264-.591.487-.761.856.287.316.71.551.714 1.045.002.496-.513 1.057-.999 1.046-.581-.013-.664-.673-1.093-.76-.155.35-.714.552-.713.902 0 .337.413.318.475.713.22.794-.295 1.256-.855 1.427-.514-.104-.72-.517-1.094-.761-.247.26-.51.504-.665.855.246.416.617.67.523 1.236-.07.418-.522.571-.618.95.312.211.482.563.855.713.694-.92 2.059-.604 1.948.523-.033.354-.486.599-.475.903.012.324.662.657.665 1.141.003.403-.504.764-.476 1.094.067.764 1.188.67 1.475-.048-.365-.271-.827-.551-.809-1.094.04-1.16 1.898-1.162 1.949 0 .026.605-.453.715-.761 1.188.406.212.58.656.951.903.367-.293.467-.822 1.045-.809.615.015 1.045.712.855 1.331-.093.305-.375.386-.428.713.177.363.478.601.666.951.372-.173.392-.559.76-.713.63-.264 1.028.185 1.427.618.921-.298.027-1.197.048-1.807.012-.382.439-.732.428-1.094-.012-.347-.396-.719-.428-1.093-.053-.607.392-.918.38-1.331-.012-.403-.438-.764-.38-1.283.04-.366.27-.499.38-.903-.409-.653-.387-1.62 0-2.282-.919-.84.36-2.516-.761-3.137-.264.248-.344.563-.713.617-1.278.189-1.068-1.687.048-1.473.334.064.37.418.713.522.015-.434.615-.798.621-1.278zm8.366-4.421c.108.907 1.324-.562.332-.381-.31.058-.352.207-.332.381zm-11.076-.19c-.63.088-.475 1.036-.048 1.379.343-.196.516-.562.666-.951-.146-.272-.319-.469-.618-.428zm-37.601.048c-.334.157-.565.418-.76.713.26.247.434.581.807.713.227-.203.422-.435.523-.761-.13-.281-.228-.595-.57-.665zm22.485.427c.026-.382-.695-.513-.618.143.226.259.601.105.618-.143zm12.787.238c.074.101.176.173.381.143.026-.1.117-.136.095-.285-.081-.256-.554-.252-.476.142zm-33.037.333c.316-.018.459-.751-.096-.57-.475.154-.123.582.096.57zm47.203 1.283c-.037-.405-.885-.553-.761.19.227.4.796.196.761-.19zm-31.517-.285c-.43.093-.572.474-.808.761.572 1.047 1.796-.174.808-.761zm-17.968.19c-.235.257-.527.456-.713.761.199.307.461.553.807.713.703-.221.6-1.318-.094-1.474zm35.034.57c-.031.826 1.042.671 1.094-.048-.2-.68-1.072-.551-1.094.048zm-15.355-.048c.028.156.182.296.476.286.809-.497-.621-1.109-.476-.286zm13.359.239c.102.389.793.284.713-.285-.037-.011-.056-.04-.048-.096-.384-.262-.751.055-.665.381zm-30.471.094c.046-.286-.122-.467-.428-.38-.82.233.309 1.125.428.38zm49.436 1.617c-.165-.341-.39-.624-.76-.761-1.145.693.297 1.924.76.761zm-2.566-.095c-.065-.372-.715-.413-.713.143.174.48.786.278.713-.143zm-33.75-.238c-.276.184-.547.372-.666.714.247.496 1.048.636 1.236 0-.098-.33-.221-.634-.57-.714zm17.16.666c-.022.339.274.599.522.808.31-.213.555-.491.761-.808-.251-.576-1.235-.707-1.283 0zm-32.8-.428c-.293.197-.563.42-.76.713.262.26.508.537.76.808.31-.164.465-.485.57-.855-.145-.268-.222-.602-.57-.666zm18.16.332c.002-.277-.228-.405-.476-.285-.645.312.47 1.039.476.285zm1.758.096c.107.013.179-.012.189-.096-.067-.011-.08-.078-.143-.095-.013.065-.066.091-.046.191zm11.218.474c.233.024.311-.148.381-.38-.328-.808-1.042.312-.381.38zm-29.281-.094c.244.453.896-.095.476-.428-.338-.036-.513.09-.476.428zm47.154 2.044c.311-.069.532-.229.618-.522-.271-.944-1.554.16-.618.522zm-35.556-.856c-.406.312-.824 1.076.047 1.188.696-.12.59-1.07-.047-1.188zm17.161.713c.06.337.272.519.475.713.34-.151.598-.386.713-.76-.206-.561-1.056-.6-1.188.047zm-30.567-.476c-.33.209-.633.444-.854.761.235.24.485.465.808.618.611-.179.661-1.159.046-1.379zm11.933.476c-.031-.886-1.142-.226-1.046.381.025.161.171.228.332.38.289-.197.727-.376.714-.761zm3.707.238c.201-.068.322-.217.285-.523-.454-.535-1.011.487-.285.523zm13.216.095c.93.039-.085-.989-.096-.095.054.01.074.053.096.095zm-27.048 0c.022.178.166.299.476.285.695-.523-.563-.992-.476-.285zm49.483 2.329c.257-.172.485-.371.571-.713-.195-.249-.328-.56-.666-.666-.677.224-.593 1.218.095 1.379zm-2.233-.38c.229-.046.369-.31.237-.57-.556-.435-.859.529-.237.57zm-37.269-.142c-.057-.651-1.01-.326-.855.475.068.027.116.074.143.143.447.019.74-.315.712-.618zm16.59.142c.155.225.245.517.571.57 1.232-.417-.189-1.781-.571-.57zm-15.211-.096c.066.151.252.234.428.143.029-.113.068-.217.048-.38-.181-.172-.505-.067-.476.237zm-13.928.381c.246.229.397.555.76.665.294-.135.422-.434.523-.76-.135-.831-1.152-.565-1.283.095zm27.333 0c.139-.013.146.107.285.095.187-.066.307-.201.333-.428-.161-.422-.915-.205-.618.333zm-24.813.047c.113.309.657.298.666-.095-.014-.363-.779-.424-.666.095zm49.437.761c-.666.403-.592 1.429.143 1.712.229-.326.554-.556.761-.903-.334-.238-.519-.623-.904-.809zm-22.818 1.046c.157.753 1.139.521 1.331-.047-.253-.223-.422-.529-.808-.618-.265.13-.423.368-.523.665zm20.679.19c.236-.002.329-.193.428-.428-.369-.981-1.314.432-.428.428zm-21.866-.237c.006-.304-.399-.476-.666-.238-.288.696.656.729.666.238zm-27.192-.333c-.329.192-.596.449-.76.808.296.211.443.571.809.713.566-.303.588-1.274-.049-1.521zm13.121.522c-.016.617 1.156.363.617-.285-.359-.138-.611.018-.617.285zm-10.791.38c0-.095 0-.189 0-.285-.613-.443-.611.722 0 .285zm48.961.714c-.679.349-.766 1.349 0 1.663.317-.269.515-.658.951-.808-.301-.299-.632-.571-.951-.855zm-19.584.904c.017-.649-.969-.808-1.094-.048.056.799 1.08.635 1.094.048zm17.066.094c.163.342.811.185.665-.333-.217-.261-.778-.147-.665.333zm-48.773-.427c-.258.248-.559.454-.713.808.225.267.411.572.762.714.711-.246.565-1.277-.049-1.522zm28.712.333c.062.263.615.265.571-.096-.065-.28-.604-.244-.571.096zm18.064.142c.121-.007.185-.069.19-.19-.056-.04-.127-.062-.237-.048-.016.11.008.182.047.238zm-30.803.047c-.018-.289-.537-.386-.523.096.162.34.54.17.523-.096zm-14.07.143c-.088.491.465.504.57.19-.021-.323-.378-.403-.57-.19zm29.71 1.854c.009-.273-.299-.475-.571-.333-.651.34.544 1.123.571.333zm17.873.095c.032-.347-.256-.469-.523-.38-.836.275.443 1.225.523.38zm-50.199.475c.196.216.424.401.666.57.316-.111.517-.339.618-.665-.122-.274-.192-.602-.476-.714-.395.144-.565.512-.808.809zm15.83-.333c.184.275.377.542.713.665.223-.157.399-.361.475-.665-.103-.633-1.051-.551-1.188 0zm2.852.38c.411-.051.456-.893-.143-.713-.557.168-.154.751.143.713zm28.807-.474c.062.064.225.064.286 0 0-.063 0-.127 0-.19-.134-.058-.304-.028-.286.19zm-44.921.522c.389.679.985-.578.19-.333-.169.006-.191.158-.19.333zm2.329.048c.111.11.152.291.428.237.398-.362-.41-.805-.428-.237zm31.422.761c-1.113.567.18 1.934.569.713-.13-.298-.302-.554-.569-.713zm22.294 0c-.228.248-.537.414-.666.76.171.29.449.471.713.666.343-.117.641-.279.713-.666-.215-.292-.412-.603-.76-.76zm-6.609 1.425c.356-.002.541-.373.714-.666-.169-.274-.369-.519-.714-.617-.664.216-.729 1.287 0 1.283zm-62.888-.19c.086.626 1.058.632 1.141-.095-.201-.322-.328-.717-.666-.903-.128.383-.538.545-.475.998zm28.997-.38c.175.316.351.631.665.809 1.072-.517-.23-1.932-.665-.809zm16.066.143c.308-.024.396-.628-.143-.57-.278.211-.126.589.143.57zm15.259 0c.078.458.881.302.809-.191-.041-.278-.246-.338-.523-.237-.285.103-.323.213-.286.428zm-54.761.142c-.021-.614-1.059-.748-1.142.047.161.641 1.163.554 1.142-.047zm26.239.285c.314-.08.42-.521.19-.761-.694-.316-.796.736-.19.761zm-20.677-.142c.053.394.715.449.903.048.118-1.029-.98-.611-.903-.048zm2.377-.096c.096.301.232.562.666.523.351-.393-.432-1.001-.666-.523zm35.841.809c-.166.294-.402.517-.476.903.129.268.298.495.618.57.271-.141.525-.299.617-.618-.303-.234-.412-.664-.759-.855zm2.091.285c-.205.223-.548.308-.617.666.195.248.414.473.761.57.566-.19.233-1.05-.144-1.236zm-20.345.855c.331.225.502.608.903.761 1.203-.778-.375-2.111-.903-.761zm16.305.048c.125-.027.111-.127.238-.237-.249-1.184-1.169.442-.238.237zm26.383-.142c.064.047.095.127.143.19 1.034.009-.171-1.305-.143-.19zm-11.076.142c.475.129.537-.453.237-.57-.328-.058-.429.397-.237.57zm2.138-.19c.082.125.174.239.428.19.389-.435-.445-.834-.428-.19zm4.421 0c.093.098.148.232.333.238.347-.021.317-.697-.095-.618-.142.063-.209.202-.238.38zm2.52.19c.114.019.104-.087.237-.048.164-.226.058-.587-.332-.522-.155.16-.101.5.095.57zm-4.706-.094c.11.064.157.19.381.142.196-.125.225-.404.047-.57-.335-.05-.451.119-.428.428zm-33.465.094c.043.334.74.442.713-.143-.192-.406-.76-.225-.713.143zm26.905-.094c.095 0 .061.129.19.095.198-.23-.187-.417-.19-.095zm-24.528.142c.123.099.405.053.38-.142-.051-.231-.47-.17-.38.142zm-35.605 0c.052.139.132.249.333.237.356-.281-.286-.745-.333-.237zm6.703.237c.134.055.248.055.381 0 .092-.201.03-.494-.238-.476-.243-.016-.21.318-.143.476zm-4.373-.047c.117.007.229.008.285-.047.099-.572-.608-.235-.285.047zm8.652-.095c-.017.334.14.494.428.522.07-.056.134-.119.189-.189.102-.427-.43-.624-.617-.333zm39.644 1.759c.147.232.278.481.665.476.011-.037.04-.056.095-.048.216-.275.043-.74-.143-.903-.421-.058-.512.216-.617.475zm-1.902.094c.057.237.469.321.666.144.011-.037.001-.095.048-.096.128-.609-.787-.612-.714-.048zm15.782.096c.084.124.344.124.428 0 .105-.452-.557-.507-.428 0zm-28.616.57c.474-.047.537-1.047-.19-.855-.696.182-.111.886.19.855zm35.366-.618c.053.01.074.053.095.096.279.026.336-.231.19-.381-.215-.025-.31.07-.285.285zm2.283.096c.211.021.354-.027.332-.238-.093-.323-.562-.03-.332.238zm-11.171-.096c.146.033.091.033.237 0 .033-.191-.046-.271-.237-.237zm6.75.048h.237c.011-.037.001-.094.048-.096-.007-.151-.108-.209-.285-.189-.066.06-.066.224 0 .285zm-9.033-.19c-.039.135.067.123.048.238h.19c.064-.062.064-.225 0-.285-.11-.016-.182.007-.238.047zm6.704 0v.19c.061.064.224.064.285 0 .015-.11-.008-.183-.048-.237-.135-.04-.123.066-.237.047zm-60.038.333c.041.069.07.15.189.143.01-.037.04-.056.096-.048.006-.117.006-.229-.048-.285-.155-.014-.229.056-.237.19z"/></g></svg>