<svg enable-background="new 0 0 38.831 83.694" viewBox="0 0 38.831 83.694" xmlns="http://www.w3.org/2000/svg"><path clip-rule="evenodd" d="m38.785 17.256c-1.614.164-3.913.17-5.526 0-.401-.574-.508-1.255-.704-1.858-.202-.626-.371-1.275-.603-1.909-.501-1.371-1.519-2.503-2.462-3.517-1.019-1.098-2.12-1.834-3.366-2.562-2.294-1.342-6.342-1.973-9.897-1.155-3.008.69-5.377 2.416-7.285 4.571-1.83 2.068-3.185 5.154-3.115 8.742.073 3.689 1.4 6.432 3.166 8.69 1.726 2.209 4.379 3.903 7.234 4.622 5.666 1.428 10.415-.755 13.213-3.667.924-.962 1.958-2.133 2.462-3.467.515-1.361.761-2.716 1.306-4.119 1.631-.168 3.945-.166 5.577 0-.066 2.169-.669 4.104-1.457 5.777-.8 1.698-1.666 3.163-2.763 4.522-1.595 1.975-3.598 3.82-5.979 5.024-.789.398-1.635.694-2.412 1.205-.083.789-.083 1.924 0 2.713.617-.041.907-.651 1.507-.904 2.696-1.134 5.065 1.642 4.019 4.422-.526 1.399-2.37 2.277-4.069 1.507-.538-.244-.88-.777-1.457-.955-.206 1.576-.104 3.678 0 5.275.348.15.481-.261.653-.401 1.165-.953 3.269-1.145 4.471.251.598.693.929 2.608.352 3.868-.506 1.104-2.238 1.787-3.668 1.307-.73-.246-1.14-.719-1.758-1.055-.267 1.467-.194 3.778-.05 5.325.93-.399 1.391-1.255 2.562-1.307 2.541-.113 3.862 2.509 2.863 5.024-.686 1.128-2.201 1.84-3.818 1.156-.611-.259-1.021-.716-1.558-.955-.233 1.069-.151 2.217-.151 3.366 0 2.32.01 4.718 0 7.084-.005 1.179.046 2.307-.101 3.366-.292 2.115-1.226 3.576-2.512 4.672-1.28 1.091-3.202 1.927-5.426 1.758-2.118-.16-3.722-1.036-4.923-2.311-1.566-1.66-2.06-3.778-2.06-7.134 0-3.017.139-6.238 0-9.445-.408-.354-1.058-.16-1.607-.15-2.232.039-4.989-.053-7.134-.15-.236-1.722-.183-4.143-.05-5.778.06-.376.797-.073.955-.352-.019-.52-.441-.905-.653-1.356-.837-1.777-.51-4.075.552-5.476.392-.516 1.258-.96 1.256-1.457-.001-.359-.623-.744-.855-1.005-.906-1.023-1.774-2.513-1.406-4.571.321-1.799 1.591-3.162 3.064-3.869 1.758-.843 4.737-.553 7.436-.553h6.028c.456 0 1.397.277 1.558-.452-.147-.735-1.287-.491-2.009-.552-5.351-.453-9.09-2.695-12.208-5.527-3.25-2.954-5.977-8.175-5.977-14.268 0-2.893.826-5.496 1.809-7.687.993-2.212 2.257-4.07 3.869-5.627 3.259-3.147 7.392-5.62 13.213-5.929 2.87-.151 5.332.444 7.385 1.206 2.108.783 3.913 1.808 5.476 3.115 3.137 2.628 5.726 6.054 6.782 10.852.14.639.403 1.356.251 2.06zm-26.275 28.737c-1.054.049-2.3-.176-3.115.101-1.522.515-1.605 2.645-.05 3.114 1.45.163 2.96.026 4.471.051 2.111.034 4.352.19 6.38-.101.145-.81.21-2.333-.05-3.064-2.017-.098-5.225-.213-7.636-.101zm2.662 9.245c-1.865-.001-3.869-.177-5.325 0-.868.105-1.738.814-1.708 1.708.023.671.722 1.301 1.206 1.457.611.197 1.546.129 2.412.1.77-.025 1.674-.051 2.411-.05 2.129.005 4.32.221 6.029-.101.167-.78.159-2.182 0-2.964-1.348-.252-3.169-.15-5.025-.15zm1.859 9.495c-.263.865-.15 1.902-.151 2.964v6.23c0 1.113-.148 2.314.151 3.015.541 1.267 2.624 1.431 3.165.051.26-.663.101-1.696.101-2.663.001-3.274.161-6.894-.101-9.596-.836-.166-2.329-.166-3.165-.001z" fill-rule="evenodd"/></svg>