<svg enable-background="new 0 0 44.194 42.397" viewBox="0 0 44.194 42.397" xmlns="http://www.w3.org/2000/svg"><path d="m6.889.123c4.908-.061 9.819.013 14.727-.047.041.52.18 1.05.011 1.564-1.537.015-3.073.026-4.607.097-.015 10.034.072 20.064.1 30.097-.013 2.671-.869 5.354-2.583 7.424-2.321 2.766-6.281 3.598-9.71 2.908-2.105-.335-4.835-1.506-4.827-4.006.313-1.927 2.511-2.56 4.126-3.02 1.01-.313 2.169.335 2.361 1.386.219 1.142-.428 2.503.412 3.494 1.017.87 2.76.621 3.64-.343 1.047-1.2.986-2.887 1.103-4.379-.103-11.177-.042-22.37-.151-33.552-1.526-.14-3.066-.126-4.598-.163-.104-.484.008-.972-.004-1.46z"/><path d="m29.056.103c4.965-.172 9.95-.032 14.922-.103.118.471.042.957.081 1.436-1.551.136-3.113.139-4.669.216.08 9.582.011 19.173.144 28.753.601-.006 1.199.052 1.799.06.934.044 1.871.068 2.805.097.052.469-.01.942.057 1.409-4.945.168-9.912.038-14.865.088-.051-.098-.1-.195-.15-.29.064-.268.089-.55.005-.816.023-.097.046-.193.07-.287 1.524-.062 3.055-.048 4.576-.157-.028-4.564-.08-9.126-.096-13.69-4.566-.031-9.122.061-13.686.055-.008-.666-.003-1.33.003-1.995 4.559-.13 9.136-.036 13.702-.068-.007-4.358-.039-8.724-.018-13.073-1.534-.077-3.07-.117-4.605-.174-.13-.478-.044-.975-.075-1.461z"/></svg>