<svg enable-background="new 0 0 75.846 74.881" viewBox="0 0 75.846 74.881" xmlns="http://www.w3.org/2000/svg"><path clip-rule="evenodd" d="m37.7 8.007c.642-.419.661-1.07.9-1.601 1.379-3.057 4.157-5.155 7.607-6.055 4.008-1.046 7.989.368 10.357 2.602 2.219 2.092 4.081 5.525 3.353 9.958-.106.642-.219 1.289-.4 1.851-.178.55-.596 1.042-.501 1.651 1.08-.065 1.886-.673 3.003-.9 1.061-.217 2.226-.452 3.652-.351 1.55.111 2.892.697 4.053 1.251 2.58 1.229 4.78 3.7 5.654 6.605.581 1.93.611 3.785.15 6.004-.741 3.569-3.263 6.138-6.405 7.556-.439.198-.993.229-1.301.65.419.441 1.008.624 1.501.9 1.536.863 2.895 1.713 4.003 3.103 1.372 1.719 2.486 4.194 2.503 7.005.026 4.796-2.867 8.314-6.205 9.907-.635.303-1.551.585-2.402.801-1.757.446-3.954.373-5.604-.1-.812-.233-1.522-.693-2.353-.701.001.721.346 1.335.551 1.952.648 1.949.761 4.573.101 6.705-.775 2.5-2.296 4.741-4.304 6.104-2.163 1.47-5.167 2.356-8.206 1.802-4.257-.777-7.185-3.548-8.656-7.255-.179-.45-.273-1.001-.65-1.352-.361.229-.385.714-.5 1.051-.872 2.537-2.549 4.599-4.653 6.005-1.957 1.269-4.522 1.968-7.306 1.65-2.601-.295-4.74-1.518-6.205-2.901-2.252-2.13-3.975-5.626-3.252-10.157.205-1.285.724-2.345 1.001-3.553-1.024.061-1.813.669-2.752.95-3.209.962-6.937.146-9.257-1.301-2.997-1.87-5.435-5.315-5.154-9.958.184-3.024 1.319-4.947 2.752-6.805.455-.412.889-.846 1.301-1.301 1.133-.886 2.54-1.496 3.803-2.252-.168-.45-.711-.539-1.051-.7-3.843-1.821-6.826-5.127-6.805-10.908.013-3.234 1.737-5.921 3.452-7.606.973-.954 2.459-1.817 3.953-2.352 1.53-.547 3.542-.902 5.505-.551.669.12 1.302.358 1.9.551.574.184 1.115.57 1.802.551-.029-.756-.327-1.421-.55-2.101-.668-2.038-.715-4.712.05-6.956 1.412-4.145 5.156-7.157 10.457-7.405 3.028-.141 5.328 1.11 7.155 2.452 1.294 1.038 2.406 2.329 3.152 3.953.238.517.306 1.169.801 1.552zm8.306 21.465c1.258-1.142 2.333-2.332 3.554-3.553 1.076-1.076 2.315-2.425 3.502-3.603.357-.354 1.114-.833 1.101-1.301-.013-.424-.848-1.002-1.151-1.351-.886-1.02-1.501-1.601-2.452-2.553-.327-.327-1.132-.996-1.051-1.451.081-.45 1.553-.777 2.002-1.101.552-.398 1.329-1.276 1.601-1.851.837-1.766-.01-3.945-1.051-4.954-.733-.711-2.06-1.272-3.452-1.201-1.635.083-3.005 1.166-3.703 2.353-.894 1.519-.551 4.307-.55 6.805 0 4.564.05 9.315.05 13.61 0 .332-.143.851.25 1.05.577-.053.966-.55 1.35-.899zm-10.507-11.308c-.578.507-1.01 1.053-1.701 1.602-.514.407-1.355 1.3-2.052 1.251-.478-.033-1.028-.778-1.351-1.101-.471-.471-.799-.852-1.2-1.251-.344-.47-.751-.743-1.201-1.251-.306-.346-1.084-.917-1.001-1.501.093-.648 1.603-.834 2.052-1.101 1.707-1.017 2.866-3.616 1.552-5.805-.635-1.055-2.164-2.484-4.254-2.252-2.289.256-4.443 2.422-4.153 5.103.179 1.648 1.516 2.547 2.553 3.553.361.351.644.795 1 1.151.381.38.823.702 1.151 1.051 4.215 4.476 8.802 8.615 12.959 13.01.376.339.824.773 1.251 1.2.368.368.837 1.088 1.502.701.021-.699-.639-1.162-1.052-1.601-.924-.985-1.793-1.906-2.701-2.852-.46-.478-1.031-.909-1.251-1.552-.128-2.965-.045-6.263-.101-9.107-.012-.6.158-1.314-.25-1.752-.787.634-1.084 1.755-1.752 2.504zm-14.661 3.503c-.871 1.189-2.403 2.441-3.553 3.652-.351.37-.902 1.169-1.4 1.051-.52-.122-.382-1.042-.651-1.4-.886-1.657-2.41-3.432-5.203-2.803-1.504.339-2.977 1.871-3.253 3.403-.495 2.745 1.198 4.963 3.352 5.504 5.992.044 11.798-.039 17.564-.101.764-.008 1.624.214 2.251-.2.02-.537-.664-.803-.851-1.301-1.976-1.827-3.655-3.95-5.654-5.754-.276-.375-.661-.736-1.101-1.151-.315-.298-.964-.989-1.351-1-.071.012-.085.082-.15.1zm35.126 11.558c-.328-.405-.939-.999-.9-1.651.024-.408.604-.983.95-1.351.853-.902 1.46-1.46 2.352-2.352.329-.33.847-1.114 1.351-1.001.359.08.752 1.428 1.051 1.852 1.026 1.456 3.396 2.59 5.604 1.551 1.39-.653 3.146-2.773 2.552-5.004-.347-1.304-1.747-2.824-2.901-3.202-.419-.138-1.133-.19-1.651-.15-2.417.188-3.432 1.864-4.804 3.202-1.608 1.568-3.24 3.153-4.753 4.754-.785.83-1.619 1.569-2.402 2.352-2.808 2.808-5.484 5.644-8.256 8.356-.346.339-.967.771-.801 1.401.708.343 1.294-.429 1.701-.801 1.494-1.368 2.758-3.072 4.354-4.203 1.704-.045 3.543-.05 5.354-.05 1.829-.001 3.691.118 5.304-.15-.289-.547-.947-.769-1.45-1.101-.515-.34-.999-.702-1.401-1.151-.523-.425-.865-.819-1.254-1.301zm-40.731 13.11c-.208-.453-.784-1.152-1.2-1.501-2.837-2.376-7.156-.273-7.406 3.202-.236 3.31 2.692 5.185 5.755 4.504 1.095-.244 2.203-1.152 3.002-1.952 2.161-2.161 4.153-4.071 6.205-6.154.423-.43.903-.767 1.301-1.2.379-.415.73-.898 1.15-1.302.423-.405.911-.742 1.301-1.2 1.876-2.203 4.151-4.121 6.105-6.255.407-.444 1.806-1.907.15-1.752-1.356 1.264-2.6 2.397-3.902 3.753-.46.479-.815 1.1-1.352 1.252-.7.197-1.73.049-2.601.049-1.836.001-3.635-.037-5.354 0-.834.019-1.669-.064-2.401.201.32.546.967.713 1.451 1.05 1.009.704 1.74 1.477 2.552 2.452.416.501.927.975.801 1.701-.091.521-.684.919-1.101 1.302-.926.846-1.593 1.592-2.402 2.401-.382.382-.697 1.026-1.4 1.051-.553-.394-.41-1.073-.654-1.602zm31.974 12.859c-1.05.412-2.018 1.415-2.451 2.302-1.341 2.741.784 5.704 3.202 6.305 2.401.597 4.527-.995 5.153-2.651 1.186-3.14-1.293-5.046-2.802-6.555-.793-.794-1.661-1.562-2.401-2.302-3.841-3.841-7.776-7.987-11.808-11.709-.752-.693-1.827-2.021-2.502-2.252-.044-.088-.261.069-.351.101-.168.813.635 1.234 1.051 1.65.977.977 1.819 1.734 2.802 2.803.462.502 1.15.929 1.301 1.501.185.696.051 1.75.051 2.651v5.604c0 .899-.115 1.836.149 2.652.496-.186.568-.774.852-1.201.762-1.154 1.655-2.276 2.751-3.202.468-.395 1.17-1 1.752-.951 1.176.101 1.423 1.753 2.452 2.151.642.908 1.788 1.314 2.201 2.452-.35.617-.947.473-1.402.651zm-.401-13.66c2.257 2.258 4.448 4.465 6.806 6.655.346.321.872.966 1.301.951.47-.017.91-.69 1.251-1.051.874-.926 1.512-1.377 2.352-2.252.394-.41.802-1.091 1.301-1.001.443.08.607 1.113.9 1.602.239.396.561.638.701.9.667.501 1.433.902 2.352 1.15 2.076.157 3.455-.463 4.304-1.5 1.304-1.596 1.372-3.827 0-5.505-.377-.459-1.128-1.117-1.702-1.301-.756-.241-1.907-.05-2.851-.05-5.591 0-12.18-.073-17.663.15.037.595.598.9.948 1.252zm-15.461 2.452c0-.874.142-3.157-.351-3.253-.1-.019-.252.035-.35.101-.333.22-.736.694-1.102 1.051-1.113 1.09-2.238 2.249-3.252 3.303-.688.763-1.426 1.475-2.151 2.201-.727.727-1.493 1.466-2.052 2.352.839 1.261 2.392 2.231 3.402 3.503.263.33.987.94.9 1.401-.069.372-1.067.59-1.501.851-1.622.975-2.771 3.312-1.851 5.554.549 1.341 1.849 2.673 3.602 2.853 2.755.281 3.901-1.456 4.703-3.353-.031-5.602.003-10.952.003-16.564z" fill-rule="evenodd"/></svg>