<svg enable-background="new 0 0 28.133 74.489" viewBox="0 0 28.133 74.489" xmlns="http://www.w3.org/2000/svg"><path clip-rule="evenodd" d="m.787 0c1.114.289 2.296 1.748 2.969 2.523 2.122 2.446 3.882 5.009 5.443 8.165.246.498.659 1.624 1.04 1.633.32.007.791-.938 1.039-1.336.727-1.164 1.134-1.712 2.028-2.721.338-.381.877-1.121 1.237-1.138.493-.024.943.709 1.237 1.088.786 1.015 1.122 1.565 1.88 2.722.285.434.652 1.282.99 1.287.465.007.914-1.278 1.138-1.732 1.594-3.223 3.603-6.077 6.037-8.561.622-.634 1.201-1.443 2.078-1.682.332.402.209 1.019.198 1.484-.088 3.682 0 7.748 0 11.529 0 2.266.124 4.455-.149 6.383-.82 5.811-4.148 9.848-9.055 11.579-.598.211-1.19.371-1.831.495-.571.111-1.276.069-1.781.545.031.931.423 1.804.693 2.672 1.601 5.163 3.288 10.506 4.75 15.785.248.893.425 1.824.693 2.721 1.958 6.568 4.054 13.005 5.987 19.744.104.364.473.844.148 1.237-1.083.38-1.194-.935-1.385-1.534-1.256-3.921-2.339-7.889-3.612-11.826-.508-1.571-1.045-3.153-1.435-4.701-.093-.37-.109-1.207-.396-1.435-.483-.384-2.346-.099-3.166-.099-3.272 0-6.722-.139-9.897 0-.579.643-.725 1.55-.99 2.375-1.347 4.205-2.836 8.265-4.206 12.618-.227.721-.55 1.678-.841 2.523-.235.685-.308 2.069-1.484 1.781-.344-.441.021-.928.148-1.336 3.189-10.135 6.644-19.861 9.897-30.085.79-2.483 1.685-5.184 2.573-7.868.219-.661.892-2.276.693-2.672-.156-.31-1.855-.484-2.276-.594-5.056-1.313-8.548-4.741-10.045-9.698-.91-3.015-.395-7.08-.544-10.639-.074-1.745-.05-3.616-.05-5.492 0-.905-.033-1.866 0-2.82.031-.913.038-1.92.099-2.772.027-.071.077-.12.148-.148zm1.138 2.672c-.253.492-.148 2.437-.148 3.414 0 3.567.001 7.358 0 10.639 0 1.247.002 2.29.198 3.315.39 2.039 1.133 3.629 2.078 5.047.449.674.921 1.55 1.732 1.732.513-1.035.505-2.206.742-3.315.586-2.741 1.344-5.405 2.326-7.818.217-.534.544-1.091.544-1.534 0-.48-.346-1.215-.594-1.732-.788-1.642-1.6-3.206-2.524-4.552-.811-1.52-1.908-2.849-2.968-4.058-.363-.413-.638-.986-1.188-1.188-.003-.03-.007-.059-.05-.049-.058.024-.111.053-.148.099zm23.554 1.336c-2.288 2.42-4.011 5.137-5.443 8.412-.245.559-.653 1.269-.643 1.683.011.45.379 1.064.594 1.583.221.534.483 1.115.594 1.584.547 2.295 1.16 4.879 1.583 7.373.141.827.146 1.727.544 2.474.86-.222 1.343-1.11 1.831-1.781.5-.686.993-1.459 1.336-2.276.741-1.767.992-3.739 1.088-6.037.195-4.614-.076-9.792-.148-14.251-.05 0-.059-.04-.099-.049-.487.323-.805.827-1.237 1.285zm-13.509 7.917c-.281.468-1.072 1.828-1.088 2.326-.015.452.359.972.544 1.435.935 2.336 1.926 5.349 2.524 7.967.082.36-.005.924.445 1.089.373-.857.497-1.806.791-2.722.581-1.807 1.153-3.499 1.831-5.294.305-.808.996-1.828.94-2.623-.03-.426-.442-1.034-.693-1.484-.263-.473-.524-.939-.792-1.386-.457-.765-1.227-2.071-2.078-2.375-.777.644-1.714 1.886-2.424 3.067zm6.482 4.256c-.253.4-.441 1.028-.644 1.583-.578 1.589-1.159 3.3-1.583 4.998-.597 2.392-1.085 4.977-1.039 7.571 1.017.414 2.401-.065 3.415-.445.802-.3 2.384-.743 2.672-1.583.127-.372-.024-1.054-.099-1.633-.385-2.954-.624-5.556-1.385-8.016-.255-.824-.653-2.535-1.188-2.622-.072.026-.121.075-.149.147zm-8.511.099c-1.09 2.3-1.877 5.459-2.375 8.61-.129.82-.667 2.45-.396 3.216.133.378.799.698 1.237.94.554.307 1.053.507 1.534.693 1.092.422 2.258.911 3.514.693.111-2.657-.477-5.208-1.04-7.571-.428-1.798-.99-3.533-1.534-5.097-.183-.524-.217-1.185-.693-1.534-.003-.03-.007-.058-.049-.049-.073.025-.125.073-.198.099zm4.157 18.308c-1.729 5.536-3.775 11.016-5.443 16.527-.241.795-.593 1.587-.644 2.424.9.264 1.939.148 2.969.148 2.577 0 5.305.05 7.868.05.46 0 1.03.135 1.385-.198-.036-.833-.355-1.632-.594-2.424-1.453-4.81-2.875-9.704-4.355-14.399-.245-.776-.388-1.623-.891-2.276-.19-.044-.175.12-.295.148z" fill-rule="evenodd"/></svg>