<svg enable-background="new 0 0 17.799 17.168" viewBox="0 0 17.799 17.168" xmlns="http://www.w3.org/2000/svg"><path d="m7.763.036c1.756-.011 3.511-.045 5.267-.034-.006.133-.006.265-.003.398-1.622-.009-3.243.017-4.864.018.032 3.169.037 6.34.035 9.51-.052.803-.282 1.609-.75 2.271-.699.956-1.829 1.573-3.008 1.667-1.468.166-2.986-.569-3.787-1.807-.348-.516-.592-1.111-.639-1.734-.004-.249-.01-.498-.014-.748.136 0 .272 0 .409-.001-.03.735.14 1.48.514 2.115.609.965 1.663 1.655 2.808 1.754.331-.004.667.028.994-.046 1.251-.204 2.379-1.097 2.814-2.295.15-.443.24-.907.262-1.375.002-3.231-.005-6.462-.038-9.693z"/><path d="m9.759 1.93c1.089.011 2.178-.015 3.266-.034.005.128.004.257.001.385-.953.005-1.906.002-2.859.007.008.51 0 1.019.009 1.528.627-.009 1.255-.026 1.882-.014-.01.138-.01.277-.008.416-.759-.002-1.516.005-2.275.001-.009-.764-.015-1.526-.016-2.289z"/><path d="m5.866 3.833c.137.004.274.002.411-.001.004 1.998.034 3.996.03 5.994-.036.572-.24 1.161-.676 1.551-.812.808-2.283.809-3.078-.025-.479-.448-.711-1.125-.656-1.774.14.005.28.008.42.003.008.528.137 1.097.534 1.473.417.432 1.065.599 1.645.47.582-.098 1.074-.551 1.273-1.099.159-.414.115-.862.115-1.295-.004-1.765-.019-3.531-.018-5.297z"/><path d="m9.784 5.758c.759-.004 1.519.007 2.278-.007-.002.134-.003.267-.003.401-.626.003-1.251.003-1.877.005-.014 3.669.035 7.339.047 11.008-.132.001-.264.001-.396.003-.013-3.804-.064-7.607-.049-11.41z"/><path d="m16.711 7.555c.157-.001.315-.002.473-.007-1.167 1.556-2.35 3.099-3.533 4.643 1.383 1.648 2.771 3.292 4.148 4.944-.159-.002-.318-.005-.477.005-.268-.27-.494-.577-.743-.865-1.134-1.369-2.284-2.723-3.416-4.093.494-.592.936-1.226 1.417-1.828.705-.937 1.423-1.864 2.131-2.799z"/><path d="m11.669 7.592c.132 0 .265.001.399.002 0 .939.022 1.878.012 2.817.734-.936 1.444-1.891 2.182-2.825.157-.003.314-.003.47.004-.986 1.291-1.974 2.582-2.954 3.877-.035.041-.071.081-.108.119.002-1.331-.003-2.662-.001-3.994z"/><path d="m11.689 12.856c1.204 1.435 2.405 2.871 3.606 4.308-.179-.003-.357-.004-.535-.003-.241-.323-.521-.611-.773-.924-.635-.752-1.275-1.499-1.905-2.256.042 1.058.013 2.119.028 3.178-.131.005-.263.006-.394.008-.006-1.436-.003-2.874-.027-4.311z"/></svg>