<svg enable-background="new 0 0 57.95 82.488" viewBox="0 0 57.95 82.488" xmlns="http://www.w3.org/2000/svg"><g clip-rule="evenodd" fill-rule="evenodd"><path d="m23.329.154c.144 1.091.221 2.933-.051 3.943-1.424.198-3.479-.234-4.098.768-.634 1.541-.461 3.4-.461 5.224v11.267c0 1.927.121 3.791-.357 5.377-1.216 4.023-5.83 6.317-11.37 5.531-1.495-.212-3.203-.685-4.302-1.434-.643-.438-1.317-1.423-1.793-2.355-1.308-2.567-.962-6.505 1.435-7.631.64-.3 1.683-.544 2.663-.41.904.124 1.492.745 2.254 1.127 1.124 1.101 1.045 4.239.051 5.428-.267.466-1.407.352-1.485.871-.103.69 1.76.834 2.612.768 2.496-.194 2.509-2.263 2.51-5.172 0-3.745.114-7.985 0-11.318-.056-1.587.023-3.155 0-4.865-.014-.877.179-1.809-.052-2.356-.602-1.428-3.505-.456-5.019-.973-.064-.415-.138-1.117-.103-1.895.029-.628-.014-1.715.205-1.946.038-.048.094-.078.154-.103 5.51.152 11.648-.094 17.207.154z"/><path d="m51.649 14.801c.332.366.844.367 1.229.512 2.848 1.068 5.012 3.235 5.07 7.17.04 2.698-1.204 4.37-2.407 6.044-1.453 1.509-3.227 2.552-5.735 2.868-2.523.317-5.431-.02-8.348.103-3.873.164-8.242.054-12.445 0-1.356-.018-2.715.195-3.943-.103-.171-1.071-.166-2.82 0-3.892 1.077-.357 3.413.293 4.148-.512.741-.812.461-4.006.461-5.582 0-3.731 0-7.833 0-11.779 0-1.723.317-4.71-.666-5.275-.99-.569-3.174.086-4.25-.308-.224-1.031-.03-2.425 0-3.534 1.841-.254 3.81-.213 5.787-.205 1.901.007 3.849.026 5.787-.051 3.993-.16 8.021.021 11.778-.154 2.558-.119 4.532.477 5.992 1.69.832.954 1.894 2.047 2.355 3.38 1.003 2.889-.594 6.304-2.1 7.733-.822.782-1.78 1.305-2.713 1.895zm-3.481-3.636c1.229-2.198.383-5.437-1.435-6.453-.786-.44-2.291-.666-3.431-.563-1.775.159-4.013-.244-5.685.154-.171 2.717-.17 6.142 0 8.859 4.05.096 8.993.787 10.551-1.997zm-10.55 6.043c-.18.492-.103 1.741-.103 2.561 0 2.642-.187 5.493.051 7.836.993.268 2.097.154 3.175.153 3.558 0 6.474.083 7.836-2.151.927-1.52 1.145-4.566.103-6.299-1.169-1.946-3.47-1.901-6.555-2.048-1.492-.071-3.024-.115-4.354-.154-.06.024-.116.054-.153.102z"/><path d="m57.847 39.792c.154 2.488.113 5.296-.052 7.836-14.433.191-28.783.103-43.274.102-4.79 0-9.586-.004-14.34-.205-.205-1.668-.051-3.86-.051-5.992 0-.543-.104-1.722.154-1.895.037-.048.092-.078.152-.102 4.766.002 9.56.102 14.392.102 13.21.001 26.475-.102 39.689 0 1.1.01 2.25-.124 3.33.154z"/><path d="m57.744 58.126c.274.946.153 1.968.153 2.971.001 7.147.077 14.57-.153 21.253-17.979.309-35.981.001-54.132 0-1.16 0-2.348.124-3.482-.153-.162-3.852-.201-8.462.051-12.24-.269-3.331-.101-7.003-.101-10.652 0-.441-.123-.992.205-1.332 7.06-.072 14.705.175 21.662.102 11.222-.117 23.698.042 35.797.051z"/></g></svg>