<svg enable-background="new 0 0 87.529 43.421" viewBox="0 0 87.529 43.421" xmlns="http://www.w3.org/2000/svg"><g clip-rule="evenodd" fill-rule="evenodd"><path d="m74.531 19.589c-.521-.551-.518-1.107-.819-1.639-1.426-2.508-4.186-4.412-7.989-4.096-1.853.154-3.48 1.123-4.609 2.201-1.189 1.135-2.257 2.836-2.407 4.916-.312 4.336 2.237 7.137 5.378 8.195 5.456 1.836 10.384-2.113 10.651-7.529 2.029-.108 4.254-.205 6.453-.102 2.155.1 4.331-.109 6.248.152.025 7.32.194 14.334 0 21.459-1.046.273-2.16.154-3.227.154-3.289 0-6.679 0-10.037 0-4.617 0-9.014.381-12.855-.461-7.154-1.57-12.234-5.896-15.057-11.728-1.488-3.076-2.518-6.904-2.151-11.164.682-7.916 4.756-13.252 10.191-16.645 2.769-1.727 6.238-3.086 10.294-3.277 2.982-.139 5.657.285 7.939.975.716.217 1.462.473 1.997.922.099 5.724.218 11.968 0 17.667z"/><path d="m43.291.232c.201 1.111.173 2.297.154 3.482-.094 5.842.214 12.586.051 18.436-.13 4.666-1.575 8.346-3.533 11.422-2.863 4.494-7.168 7.877-13.111 9.27-4.454 1.043-9.327.623-12.905-.82-3.504-1.414-6.46-3.565-8.757-6.145-3.288-3.691-5.891-9.785-5.02-17.004.127-1.053.399-2.098.666-3.072.258-.939.515-1.904 1.075-2.611 5.619-.121 12.119-.201 17.873 0-1.078.527-2.062.99-2.919 1.689-.818.67-1.594 1.518-2.1 2.51-1.198 2.351-.92 5.289 0 7.119.994 1.975 2.661 3.354 4.814 4.045 2.552.82 5.222.07 6.965-1.178 1.795-1.287 3.075-3.109 3.277-5.582.243-2.98-.873-4.699-2.202-6.299-.766-.639-1.489-1.314-2.51-1.742-.99-.416-2.15-.57-3.38-.818-.066-1.062-.085-2.139-.051-3.227.032-1.021 0-2.045 0-3.072 0-2.125-.123-4.355.153-6.352 6.797-.117 14.75-.174 21.46-.051z"/></g></svg>