<svg enable-background="new 0 0 41.795 41.726" viewBox="0 0 41.795 41.726" xmlns="http://www.w3.org/2000/svg"><path d="m18.649.037c1.438-.076 2.883-.012 4.324-.005.008 6.19.009 12.381.014 18.571 6.267-.012 12.526.043 18.794.032-.001 1.451.018 2.903-.002 4.353-3.822.005-7.643-.018-11.47-.021-3.882-.012-7.764.005-11.646-.02.006-7.638-.083-15.273-.014-22.91z"/><path d="m29.287 2.112c1.705-1.725 4.371-2.528 6.715-1.813.756.244 1.415.737 1.916 1.348.022-.398.008-.797.007-1.196 1.276-.02 2.55-.024 3.826-.008-.002 4.49.01 8.978.03 13.466-1.28.029-2.565.037-3.847.01.008-.426-.012-.853 0-1.279-.696.964-1.841 1.544-3.016 1.637-1.449.131-2.944-.217-4.189-.977-2.31-1.361-3.716-4.093-3.466-6.765.126-1.648.852-3.252 2.024-4.423zm5.147 1.661c-1.245.064-2.429.882-2.895 2.045-.472 1.132-.26 2.533.547 3.463.778.957 2.132 1.462 3.335 1.127 1.668-.41 2.784-2.205 2.46-3.88-.25-1.607-1.823-2.867-3.447-2.755z"/><path d="m5.709.08c2.878 0 5.755.001 8.633.007.028 9.039.047 18.075.045 27.117 9.131.001 18.264.024 27.401.027.002 1.452.011 2.903.002 4.355-9.132.03-18.266-.056-27.395 0-.044 1.931.215 3.943-.559 5.768-1.104 2.67-3.942 4.488-6.829 4.365-2.643-.031-5.138-1.702-6.268-4.075-.971-1.964-.992-4.383-.027-6.352 1.095-2.297 3.46-3.942 6.016-4.061 1.115-.017 2.23.005 3.344-.032-.013-7.56.03-15.125-.041-22.683-1.44.008-2.881-.002-4.321.006-.013-1.481-.003-2.962-.001-4.442zm-1.376 34.023c-.204 1.488.939 3.033 2.438 3.231 1.63.317 3.253-1.108 3.308-2.733.062-1.002-.027-2.011.033-3.01-1.018-.01-2.035 0-3.053-.007-1.351.045-2.596 1.166-2.726 2.519z"/></svg>