<svg enable-background="new 0 0 16.893 16.727" viewBox="0 0 16.893 16.727" xmlns="http://www.w3.org/2000/svg"><path d="m5.722 0c1.821.013 3.643-.006 5.464.01.003 1.8-.006 3.601.004 5.402-1.599-.009-3.198-.002-4.797-.004-.225.002-.45-.007-.675.009.006-1.806-.001-3.611.004-5.417z"/><path d="m4.949 5.673c.172-.01.347.007.514-.044-.001 1.811-.002 3.623 0 5.435-1.628-.007-3.256-.002-4.884-.003-.192.002-.385-.008-.577.012-.044-1.455.588-2.905 1.646-3.898.344-.338.741-.622 1.162-.856.668-.336 1.39-.586 2.139-.646z"/><path d="m5.721 5.64c1.823.011 3.644 0 5.467.005-.02.329-.027.66-.09.984-.193 1.199-.852 2.3-1.762 3.094-.987.868-2.303 1.342-3.614 1.347-.002-1.811-.002-3.621-.001-5.43z"/><path d="m11.423 5.662c1.823.008 3.646.007 5.468 0-.005 1.801-.003 3.602 0 5.403-1.823-.009-3.645-.006-5.468-.001.007-1.801.007-3.601 0-5.402z"/><path d="m.003 11.297c1.821-.002 3.641-.002 5.461 0-.003 1.81-.002 3.62-.001 5.43-.971-.024-1.954-.242-2.791-.75-1.636-.937-2.717-2.788-2.669-4.68z"/><path d="m5.721 11.296c1.822 0 3.644-.004 5.466.002-.003 1.808-.002 3.616 0 5.424-1.822.002-3.644-.001-5.465.002-.002-1.81-.002-3.619-.001-5.428z"/><path d="m11.427 11.297c1.821-.002 3.642-.002 5.463 0 .048 1.495-.627 2.966-1.717 3.976-.589.525-1.28.949-2.038 1.178-.552.185-1.133.247-1.712.275.009-1.81.002-3.62.004-5.429z"/></svg>