<svg enable-background="new 0 0 71.253 75.348" viewBox="0 0 71.253 75.348" xmlns="http://www.w3.org/2000/svg"><g clip-rule="evenodd" fill-rule="evenodd"><path d="m53.327 4.119c.035 5.642.133 11.325-.05 16.613-.602-.028-1.009-.565-1.41-.906-2.94-2.503-6.752-4.461-11.378-5.387-7.425-1.485-14.391 1.517-18.576 4.732-1.759 1.352-3.396 2.905-4.732 4.833-1.034 1.492-1.754 3.055-2.365 4.833-.621 1.802-.604 3.945-.604 6.545 0 3.046.1 6.267-.101 9.364-4.547.195-9.485.052-13.945 0-.231-3.523-.151-7.177-.151-10.874-.001-10.994-.052-22.466.049-33.227 4.6-.172 9.472-.245 13.995 0 .146.936.151 2.065.151 3.222 0 1.114-.121 2.343.151 3.272.832-.211 1.49-.807 2.164-1.258 3.35-2.243 7.407-3.94 12.032-4.984 1.913-.432 3.966-.753 6.142-.856 5.715-.27 10.625.826 14.751 2.316 1.367.493 2.742.979 3.877 1.762zm-4.934 3.222c-1.684-.985-3.79-1.431-5.94-1.863-2.211-.443-4.607-.727-7.199-.604-6.024.285-11.024 2.103-14.951 4.38-2.156 1.076-3.832 2.558-5.487 4.078-1.265 1.161-2.501 2.362-3.574 3.625-.338.396-.66 1.102-1.209 1.107-.153-3.229-.043-6.72-.05-9.918-.003-1.061.101-2.151-.151-3.122-1.65-.137-4.073-.223-5.64.052-.15 11.467-.211 24.123.051 35.189 1.651.165 3.986.168 5.639 0 .192-2.939.101-5.961.101-8.811 0-1.542-.062-3.031.251-4.228.288-1.095.88-2.166 1.41-3.121 2.159-3.892 4.959-7.062 8.457-9.565 3.419-2.446 7.627-4.438 12.938-5.084 2.727-.332 5.77-.346 8.307.202 1.936.418 3.659.931 5.286 1.51.551.196 1.109.461 1.711.453.197-1.215.104-2.984.05-4.28z"/><path d="m71.048.696c.271 1.016.151 2.094.15 3.121 0 3.222.001 6.441 0 9.666 0 12.653.125 25.237 0 38.16-4.615.203-10.013.147-14.75 0-.293-1.922.092-4.522-.201-6.444-.528.193-.533.91-.856 1.309-.776 1.371-1.593 2.703-2.668 3.776-3.396 3.812-8.547 7.111-16.159 6.394-2.2-.208-4.153-.883-5.891-1.611-3.322-1.393-6.149-3.901-8.155-6.897-2.058-3.074-3.419-7.032-3.121-11.932.307-5.045 2.504-8.483 4.983-11.478 3.651-3.906 10.177-7.439 18.073-5.688 6.098 1.352 10.561 5.091 13.14 10.018.161.308.2.777.604.906.378-2.358.034-4.83.101-7.25.135-4.844.001-9.869 0-14.901 0-1.848.001-3.701 0-5.538 0-.542-.137-1.177.201-1.662 4.482-.028 10.008-.158 14.549.051zm-6.897 4.329c-1.003 0-2.203-.037-2.92.051-.44.694-.252 1.62-.252 2.416-.001 10.071-.102 19.56 0 29.148.038 3.549-.04 7.117.15 10.623 1.564.272 3.994.191 5.639.05.194-3.406.101-6.941.101-10.471 0-9.006-.051-17.736-.05-26.48 0-1.753.102-3.486-.102-5.185-.69-.265-1.633-.152-2.566-.152zm-27.085 18.727c-5.894.703-9.988 4.33-11.68 8.81-.976 2.586-1.318 5.871-.503 8.659.741 2.535 1.991 4.61 3.825 6.444 1.566 1.565 4.043 3.079 6.596 3.625 2.893.619 6.487.226 8.81-.856 3.424-1.595 6.011-4.245 7.501-7.904 1.278-3.137.963-7.636-.302-10.471-.78-1.75-1.743-3.13-3.121-4.38-2.49-2.266-6.065-4.53-11.126-3.927z"/><path d="m69.436 55.217c-.721 1.774-1.719 3.161-2.719 4.581-.989 1.406-2.148 2.69-3.322 3.927-4.612 4.86-10.617 8.933-18.426 10.623-3.988.863-8.636 1.385-13.239.654-8.348-1.326-14.712-4.555-19.835-9.213-3.86-3.509-6.879-7.273-9.313-12.435-.572-1.212-.979-2.576-1.461-3.977-.176-.514-.567-1.12.202-1.259 1.08-.195 2.388 0 3.524 0 3.492 0 6.895-.006 10.319.101.69.509 1.002 1.398 1.46 2.114.47.733.912 1.439 1.511 2.014 1.794 2.398 4.045 4.252 6.695 5.739 3.836 2.151 9.198 3.802 15.203 2.92 4.37-.642 7.998-2.404 10.874-4.632.531-.411 1.167-1.156 1.763-1.309.506-.13 1.29-.033 2.014-.051 3.451-.082 7.221.05 10.723.051 1.427.001 2.793-.098 4.027.152zm-12.233 4.783c-.996 0-2.191-.192-2.92 0-.286.075-.64.4-1.006.654-4.892 3.395-11.406 6.214-19.836 5.235-8.091-.939-13.419-4.504-17.972-9.162-.324-.624-.782-1.128-1.259-1.712-.339-.415-.828-1.419-1.359-1.611-1.028-.371-3.235.175-4.179-.05-.21-.026-.341.028-.453.101-.006.577.42 1.054.705 1.511 2.048 3.285 4.645 6.275 7.652 8.558 3.52 2.671 7.6 4.931 12.535 5.991 2.613.561 5.46.997 8.357.906 2.794-.088 5.631-.517 8.055-1.208 4.737-1.352 8.78-3.767 12.031-6.544.434-.389.884-.761 1.309-1.158.324-.514 1.01-.668 1.157-1.359-.718-.248-1.754-.152-2.817-.152z"/></g></svg>