<svg enable-background="new 0 0 77.901 52.755" viewBox="0 0 77.901 52.755" xmlns="http://www.w3.org/2000/svg"><path clip-rule="evenodd" d="m38.861.104c.238 4.087-.038 8.447.147 12.629 10.721.411 22.923-.212 34.019.098 1.594.045 3.173-.212 4.699.098.132 4.09.23 8.455.049 12.531-.704.216-1.462.083-2.203.098-11.515.228-24.682-.079-36.466.049-.167 3.157-.234 7.009-.049 10.132.748.262 1.573.147 2.35.147 11.912 0 24.828.034 36.368.098.15 5.369.185 11.47 0 16.642-12.939.143-25.858.218-38.669-.049-.285-3.158.103-6.988-.245-10.084-12.559-.287-26.189.115-38.669-.196-.074-3.912-.164-8.337-.098-12.627.021-1.363-.091-2.724.147-3.965 12.739-.241 26.213-.008 38.669-.196.175-4.003.032-8.385 0-12.58-6.368-.226-12.856.005-19.384-.098-6.463-.102-13.114.196-19.334-.098-.078-3.23-.282-6.347-.147-9.545.044-1.041-.03-2.116.147-3.084 12.868-.07 25.686-.194 38.669 0z" fill-rule="evenodd"/></svg>