<svg enable-background="new 0 0 71.683 76.627" viewBox="0 0 71.683 76.627" xmlns="http://www.w3.org/2000/svg"><path clip-rule="evenodd" d="m36.019 66.499c-.622.341-.829 1.065-1.176 1.584-2.486 3.73-6.136 6.522-11.036 7.92-3.051.871-6.752.79-9.657 0-2.764-.753-5.215-2.16-7.102-3.73-3.869-3.221-7-7.71-7-14.715.001-5.348 0-10.853 0-15.891.001-1.695-.158-3.433.103-5.109 2.594-.276 5.454-.153 8.277-.153 2.781 0 5.621.18 8.227-.051.27-.646.153-1.379.153-2.043.001-10.095-.078-21.04.103-31.731.791-.271 1.66-.153 2.503-.153h15.84c.823 0 1.687-.117 2.453.153.309 1.275-.136 3.303.255 4.497.385.127.562-.319.716-.511 2.856-3.57 6.94-5.949 12.927-6.489 5.748-.518 9.977 1.706 13.183 4.241 3.164 2.502 5.542 6.102 6.54 10.781.527 2.472.307 5.493.307 8.379.001 11.109.053 22.984.051 33.723 0 2.942-.227 5.308-1.124 7.511-1.686 4.14-4.429 7.123-8.073 9.249-1.874 1.093-3.854 1.984-6.335 2.351-2.373.35-5.387.162-7.818-.409-4.557-1.07-7.846-3.636-10.423-6.847-.791-.696-1.115-1.854-1.894-2.557zm31.628-47.927c-.068-1.816-.467-3.45-1.073-4.905-1.757-4.216-4.713-7.253-9.197-8.737-1.557-.515-3.271-.869-5.212-.767-5.547.295-9.433 3.177-11.752 6.591-1.157 1.705-2.253 3.874-2.452 6.591-.188 2.581-.031 5.618-.103 8.584-.135 5.67.103 11.907.103 17.73v9.044c0 3.043-.096 6.254.562 8.533 1.295 4.49 4.334 7.955 8.328 9.81 2.219 1.03 4.992 1.497 7.664 1.277 2.638-.216 4.983-1.268 6.643-2.453 2.683-1.914 4.714-4.36 5.876-7.715.42-1.211.538-2.361.613-3.934.262-5.495-.089-11.244-.103-17.526-3.838-.158-8.526-.188-12.212 0-.283 1.286-.101 2.706-.152 4.19-.099 2.813-.052 6.104-.052 8.789 0 1.391.292 3.183-.102 4.292-.274.773-1.013 1.549-1.942 1.584-.87.032-1.838-.65-2.146-1.533-.387-1.108-.153-3.219-.153-4.803 0-9.915 0-20.052 0-29.891 0-2.874-.542-6.071 1.788-6.336 1.119-.127 1.866.629 2.197 1.533.411 1.122.176 2.896.204 4.343.068 3.45.103 7.543.103 11.189 0 .72-.121 1.481.153 2.147 1.774.283 3.937.153 6.08.153 2.146.001 4.348.227 6.233-.102.051-5.731.321-11.888.104-17.678zm-37.044-11.905c-2.08 0-4.117.041-6.029 0-.928-.02-1.95-.155-2.861-.051-.551.063-.648.155-.664 1.227-.03 1.944 0 3.436 0 5.007-.001 9.148.019 17.5 0 26.161-.013 5.566.13 10.892.051 16.146-.034 2.284-.133 4.16-1.993 4.395-.051 0-.102 0-.152 0-2.38-.281-2.096-3.041-2.096-5.723.001-3.046-.051-5.817-.051-8.737 0-1.552.169-3.013-.153-4.19-2.938-.176-6.309-.153-9.401-.153-1.062 0-2.121-.115-3.066.153-.269.533-.16 1.168-.152 1.737.023 1.999-.091 3.905 0 5.825.06 1.266-.148 2.57-.052 3.832.103 1.338.103 2.636.103 3.934 0 5.648 1.62 8.833 4.343 11.701 2.561 2.697 6.655 4.796 11.497 4.445 4.921-.357 8.113-2.514 10.576-5.519 1.264-1.541 2.154-3.191 2.759-5.263.597-2.042.617-4.566.562-7.358-.103-5.233-.052-10.766-.051-15.941 0-9.598-.102-18.454-.103-27.591 0-1.301.122-2.607-.153-3.883-.934-.276-1.933-.154-2.914-.154z" fill-rule="evenodd"/></svg>