<svg fill="none" viewBox="0 0 130 130" xmlns="http://www.w3.org/2000/svg"><path clip-rule="evenodd" d="m61.3056.0393322c-13.2875.8671688-25.5131 5.3982378-35.8257 13.2778678-14.5852 11.1441-23.80769 27.9102-25.338626 46.0648-.279977 3.321-.1219311 11.2204.281653 14.076 2.015683 14.2585 8.191183 26.928 18.000573 36.928 7.5064 7.651 16.031 12.967 26.2053 16.339 14.0143 4.645 29.3052 4.341 43.297-.86 2.7657-1.028 7.9158-3.517 10.5177-5.084 2.3785-1.432 5.0825-3.318 7.4465-5.196 2.322-1.844 7.089-6.514 9-8.815 8.208-9.8888 13.12-21.2144 14.768-34.0557.458-3.5711.455-12.1322-.006-15.6179-2.32-17.5472-11.006-32.7955-24.78-43.504-9.4967-7.38286-21.1025-12.03924-33.1417-13.296486-2.0239-.2112145-8.6273-.3739024-10.4247-.2565818zm8.1071 5.4727978c13.0148 1.02223 25.3496 6.16537 34.8013 14.51077 11.946 10.5469 18.817 24.1505 20.306 40.1989.277 2.9946.131 9.2598-.29 12.3996-1.235 9.2062-4.423 17.6962-9.495 25.2862-2.481 3.7114-3.89 5.4524-6.981 8.6204-10.9563 11.228-24.7952 17.362-40.7706 18.072-2.8895.128-7.3986-.12-10.6109-.585-12.5878-1.822-24.5363-7.813-33.5101-16.802-8.9101-8.9252-14.65206-19.9725-16.74314-32.2131-1.10427-6.4639-1.03278-14.5418.18653-21.0643 2.5453-13.6172 10.11031-26.3248 20.92421-35.1484 6.0837-4.9639 14.0841-9.1233 21.606-11.23284 6.5566-1.83883 13.8945-2.56711 20.5767-2.04223zm-15.7997 13.98027c-.3331 1.0963-.4375 1.2275-1.8433 2.3184l-1.4902 1.1562-1.0713-.8309c-.5892-.457-1.2141-.8309-1.3886-.8309-.6286 0-5.4087 3.9374-5.4087 4.4554 0 .0709.4678.9001 1.0395 1.8428 1.2228 2.0162 1.4254 1.3617-1.6748 5.4153-4.11 5.3739-4.5981 6.0741-5.5841 8.0107-1.7333 3.4043-2.6727 6.8477-3.0792 11.289-.6624 7.2356-.8628 21.1917-.4012 27.926.2807 4.094.6028 5.6186 1.6655 7.8839.9329 1.988 1.7231 3.1216 4.4845 6.4326 3.1189 3.7393 4.3352 6.2531 4.5891 9.4821.204 2.594.2511 2.773.809 3.061.4293.222 1.8456.272 7.9768.282l7.4549.012.2113-.981c.1164-.538.2595-1.327.3183-1.752l.1071-.773-2.9845-.705-2.9842-.705 1.9717-2.334c1.0846-1.2833 1.9962-2.3661 2.0258-2.4059.1176-.1582 2.2787 1.6211 3.5343 2.9099.7314.75 2.0298 2.25 2.8854 3.332s1.8214 2.27 2.1462 2.64l.5905.673 6.9022.055 6.9023.055v-1.868-1.868h-3.1647c-1.7405 0-3.1646-.04-3.1646-.09s.2055-.881.4568-1.847c.697-2.6793.9057-4.7114.794-7.7309-.1162-3.1424-.5142-4.8762-1.6428-7.1583-1.7432-3.5246-4.8989-6.2436-9.1745-7.9047l-1.6115-.626.051-3.0788.0508-3.0788 3.63-.0929c1.9965-.0512 3.7443-.1666 3.884-.2566.1865-.1201 1.7567 1.3368 5.9109 5.4843l5.6569 5.6478 12.5182-12.503 12.5182-12.5027-12.5648-12.5503-12.5643-12.5502-9.1281 9.1155-9.1279 9.1154-1.9954-2.0224c-1.4807-1.5008-1.9954-2.1443-1.9954-2.4946 0-.6169 1.7742-4.5891 2.1908-4.9051.2163-.164.9496-.2464 2.2304-.2503 1.6551-.0052 1.9574-.0552 2.2804-.3778.5147-.5141.4715-.9239-.2793-2.6543-.3583-.8259-.6515-1.5287-.6515-1.5618s.2541-.0602.5646-.0602c.5274 0 .6197.1126 1.3962 1.7062 1.2571 2.5798 1.1238 3.3582-.9167 5.3536-1.3228 1.2937-1.5156 1.8299-.8302 2.3094.5381.3765 1.0441.1023 2.4237-1.3137 1.4624-1.501 1.9232-2.4509 1.9232-3.9651 0-1.0366-.1106-1.4386-.7776-2.825l-.7776-1.6165 1.0103-.1963c.5557-.108 1.4623-.2841 2.0146-.3914.8742-.1698 1.1392-.3365 2.0477-1.2877 1.0599-1.1098 1.228-1.5464.8107-2.1034-.1279-.1709-1.7825-1.0269-3.6766-1.9023-1.8941-.8753-3.538-1.7153-3.6531-1.8665-.115-.1512-.2628-.6799-.3285-1.1751-.0717-.5384-.2666-1.0328-.4853-1.2304-.2011-.1819-1.7268-.8685-3.3903-1.5261-1.6635-.6575-3.1311-1.2839-3.2614-1.3917-.1518-.1259-.2368-.6805-.2368-1.5453 0-.8573-.0855-1.4197-.2344-1.5432-.3461-.2867-5.1379-1.8964-5.6457-1.8964-.3727 0-.4868.1681-.7887 1.162zm39.6184 48.5735c-5.5795 5.5732-10.2013 10.1333-10.2709 10.1333-.0698 0-1.9495-1.8015-4.1772-4.0032l-4.0505-4.0032.9406-.9704c1.109-1.1442 3.7823-4.4996 3.7823-4.7473 0-.2304-4.0453-4.125-4.2847-4.125-.1033 0-1.7201.6693-3.5928 1.4874s-3.4558 1.4875-3.5178 1.4875c-.0619 0-1.3442-1.2248-2.8491-2.7215l-2.7363-2.7216 10.2119-10.2007 10.2118-10.2006 10.2385 10.226 10.2388 10.2261z" fill="#000" fill-rule="evenodd"/></svg>