<svg enable-background="new 0 0 51.221 75.938" viewBox="0 0 51.221 75.938" xmlns="http://www.w3.org/2000/svg"><g clip-rule="evenodd" fill-rule="evenodd"><path d="m31.673 0c.593.209 1.587 1.246 2.224 1.797 4.951 4.291 9.899 8.746 14.762 13.012.365.392.804.711 1.183 1.088.319.367.99.609.994 1.137-12.648.145-25.255-.078-38.086 0 .138.621.691 1.014 1.088 1.418 1.209 1.234 2.254 2.674 3.5 3.928 3.918 4.332 7.995 8.5 11.923 12.822.37.418.773.858 1.183 1.277.391.398.896.826.994 1.371-3.755.172-7.962-.107-11.638.143-.342 6.471.109 13.936-.19 20.393-.579-.145-.892-.719-1.277-1.137-1.935-2.096-3.941-4.248-5.914-6.387-.797-.861-1.58-1.729-2.46-2.461-2.985 2.758-5.625 5.861-8.517 8.754-.401.4-.756.939-1.325 1.135-.16-10.137-.148-20.904 0-30.848.329-.068.485.424.805.522.693.693 1.538 1.238 2.224 1.939 1.056.805 2.015 1.707 3.028 2.555 2.033 1.689 3.929 3.516 6.056 5.109.312-.738.189-1.592.189-2.412 0-5.824.039-12.088-.048-17.885-.36-.074-.629.287-.851.473-1.721 1.441-3.558 3.02-5.3 4.494-1.705 1.51-3.581 2.934-5.346 4.449-.219.188-.42.524-.758.52-.193-2.393-.047-5-.047-7.57 0-.912-.172-1.832.095-2.648 3.595.035 7.63-.213 11.214-.049.319.016.598.047.898.143 6.387-5.775 12.829-11.49 19.397-17.082zm-19.492 37.756c-.122.043-.292.082-.426.094-1.694.162-3.765 0-5.726 0-.977.002-1.971 0-2.886 0-.955.002-1.886-.19-2.697.096.061.457.477.738.757 1.041 2.077 2.234 4.188 4.412 6.293 6.576.328.479.711.805 1.183 1.277.274.273.841 1.199 1.278 1.184.295-.012.853-.754 1.088-.994 2.451-2.5 4.924-5.373 7.238-7.664.247-.514.982-.781.994-1.373-2.196-.249-4.892.003-7.096-.237z"/><path d="m32.147 37.898c4.28.008 8.442.045 12.868.047 2.109 0 4.184-.078 6.104.141.195 6.144.047 12.051.048 18.17 0 .842.114 1.705-.143 2.508-.36-.258-.775-.861-1.183-1.23-5.548-5.947-11.183-12.197-16.843-18.264-.321-.346-1.116-.969-.993-1.277.036-.044.086-.073.142-.095z"/><path d="m50.93 58.857c-.141.545-.647.885-1.042 1.231-2.78 2.435-5.667 4.935-8.469 7.428-2.704 2.295-5.632 4.973-8.469 7.428-.33.287-.885.979-1.23.994-.442.021-.967-.684-1.277-.994-1.169-1.168-2.504-2.057-3.596-3.217-3.202-2.836-6.448-5.631-9.605-8.518-1.381-1.17-2.811-2.49-4.163-3.783-.121-.117-.511-.352-.283-.615 12.469-.073 25.522.128 38.134.046z"/></g></svg>