<svg enable-background="new 0 0 49.054 78.694" viewBox="0 0 49.054 78.694" xmlns="http://www.w3.org/2000/svg"><g clip-rule="evenodd" fill-rule="evenodd"><path d="m23.856 4.984c2.322-2.517 5.285-4.642 9.69-4.946 4.198-.289 7.43 1.097 9.791 2.877 2.454 1.85 4.242 4.237 5.148 7.469 1.018 3.631.625 7.698-.808 10.599-1.965 3.979-5.688 7.427-10.952 8.024-6.201.704-10.624-2.039-13.273-5.451-1.798-2.315-3.205-5.583-3.078-9.438.127-3.88 1.426-6.702 3.482-9.134z"/><path d="m47.173 31.431c.165 15.479.242 31.757.15 47.139-7.735.191-15.716.101-23.619.101-7.873 0-15.728.096-23.469-.101-.222-3.914-.151-7.892-.151-11.86 0-11.832-.19-23.494 0-35.278 4.128-.185 8.258-.101 12.365-.101 4.101 0 8.218.19 12.314 0 3.602-.167 7.481-.051 11.355-.051 3.736-.001 7.449-.007 11.055.151zm-29.323 1.362c-4.416.12-8.933-.05-13.324-.05-.881 0-1.902-.148-2.675 0-.443.084-.505-.098-.505 1.11 0 3.277.051 6.803.05 9.64 0 11.274-.02 22.887.202 33.613 3.292.211 6.853.152 10.447.152h8.177c.892 0 1.79.115 2.624-.152.203-4.409.05-9.003.051-13.425 0-.608-.115-1.267.151-1.817.424-.053 1.036-.164 1.312.051.29 4.7-.099 10.524.253 15.191.796.267 1.682.152 2.523.152 6.212 0 12.704.083 18.674-.102.271-.775.151-1.646.151-2.473 0-4.451 0-8.983 0-13.374 0-1.781.122-3.549-.151-5.198-5.255-.291-10.414.051-15.696-.252-.112-.391-.125-1 .051-1.363 5.026-.352 10.812.179 15.646-.202.286-1.633.104-3.376.151-5.148.049-1.776-.05-3.616-.051-5.451 0-1.824.08-3.701 0-5.501-.08-1.825.076-3.61-.201-5.299-6.998-.139-14.485-.236-21.248-.051-.07 4.384-.252 9.658-.102 13.98.022.632.204 1.301-.101 1.867-.347.117-1.043.183-1.312-.05-.13-3.786-.151-8.04-.152-11.86 0-1.333.121-2.671-.151-3.886-1.52-.202-3.138-.146-4.794-.102z"/></g></svg>