<svg enable-background="new 0 0 77.267 77.797" viewBox="0 0 77.267 77.797" xmlns="http://www.w3.org/2000/svg"><path clip-rule="evenodd" d="m77.265.146c.04.527-.635.748-.87 1.16-4.474 4.589-9.177 9.129-13.825 13.777-.572.572-1.381 1.679-2.03 1.885-.92.292-3.274.048-4.351.048-2.942 0-5.708 0-8.701 0-1.458 0-2.895-.116-4.254.145-.161 5.49-.16 11.67 0 17.21 1.35.261 2.764.145 4.157.145h21.222c2.817 0 5.662-.092 8.363.097.224 2.729.135 5.606.097 8.459-.307.705-.931 1.249-1.45 1.788-3.636 3.786-7.484 7.543-11.167 11.36-1.029 1.07-2.105 2.169-3.142 3.288-.315.339-.68.809-1.16.87-.27-5.233.082-11.484-.193-16.871-.629-.256-1.356-.148-2.03-.145-4.579.025-9.708-.085-14.599.097-.275 1.038-.236 2.413-.193 3.867.038 1.268.011 2.648 0 3.867-2.617 2.777-5.304 5.497-8.024 8.218-.38.38-.891.703-1.015 1.257 8.238.338 17.161.006 25.572.193.011.377-.351.671-.58.918-1.705 1.847-3.694 3.646-5.511 5.463-2.099 2.099-4.161 4.254-6.284 6.284-1.355 1.433-2.552 3.023-4.158 4.206-13.866-.014-28.936.182-42.975-.048-.198-13.583-.098-26.199-.097-39.736 0-.894-.148-1.937 0-2.659.118-.577 1.512-1.802 1.934-2.224 1.414-1.414 2.783-2.733 4.061-4.157.343-.383.57-.812.918-1.16 3.079-3.079 6.069-6.248 9.137-9.378.361-.302.651-.924 1.16-.918.254 8.35-.044 17.253.241 25.572.535-.059.883-.571 1.209-.918 1.719-1.833 3.669-3.582 5.463-5.414.727-.743 1.327-1.596 2.224-2.127 2.391-.156 4.879.055 7.203-.193.182-1.837.145-3.782.145-5.753 0-.656-.12-1.338 0-1.886.154-.703 1.385-1.724 1.885-2.224 2.052-2.052 4.142-4.114 6.139-6.091.278-.433.917-.755.967-1.257-.975-.26-2.028-.145-3.045-.145-7.198 0-14.604.039-21.898-.048.01-.535.534-.845.87-1.16 1.06-.993 2.047-2.125 3.143-3.142 4.307-4.001 8.188-8.627 12.617-12.568.4-.036.829-.097 1.208-.097 13.791-.01 27.93.079 41.617.145zm-59.749 43.362c-.158.551-.097 1.346-.097 2.127v10.876c0 1.523-.127 2.979.193 4.206 5.163.142 11.062.205 16.098-.048.041-5.453.174-11.935-.097-17.209-5.167-.225-10.7-.033-15.952-.097-.069.027-.117.075-.145.145z" fill-rule="evenodd"/></svg>