<svg enable-background="new 0 0 77.253 48.656" viewBox="0 0 77.253 48.656" xmlns="http://www.w3.org/2000/svg"><path clip-rule="evenodd" d="m33.437 0c.368.075.236.537.241.771.096 4.836.022 9.994.048 15.039-2.006 1.979-4.513 3.457-6.7 5.254-.71.607-1.704.931-2.41 1.542.482.503 1.155.628 1.687 1.013 1.526 1.104 2.873 2.525 4.386 3.711.931.869 1.891 1.708 2.892 2.507.963.836 1.783 1.816 2.988 2.41.298-1.655.058-3.481.048-5.206-.011-2.105.118-4.262.048-6.459-.068-2.155 0-4.359 0-6.556 0-3.369 0-6.722 0-10.123 0-1.065-.118-2.185.144-3.229 3.467-.041 6.726-.149 9.978-.097 3.257.053 6.58-.182 9.785.097 3.094.268 5.604 1.151 7.905 2.265 1.17.567 2.254 1.136 3.229 1.832 2.933 2.093 5.195 4.909 7.038 8.194 2.354 4.199 3.334 11.129 1.687 16.871-.718 2.504-1.88 4.943-3.229 6.893-2.73 3.944-6.467 6.977-11.183 9.11-4.574 2.069-10.653 3.466-17.112 2.506-2.984-.443-5.526-1.282-7.953-2.217-2.402-.925-4.458-2.25-6.556-3.567-4.141-2.6-7.768-5.806-11.279-9.014-1.262-1.431-2.734-2.639-4.049-4.049-.429-.46-.747-1.069-1.35-1.35-.374 5.555.142 11.837-.193 17.497-2.048.259-4.398.145-6.7.145-2.293 0-4.606.104-6.652-.145-.176-13.278-.141-26.11-.142-39.571 0-1.861-.119-3.727.096-5.543 4.044-.171 9.084-.152 13.304 0 .279 5.562-.023 11.1.241 16.823.596-.03.921-.574 1.253-.964 1.03-1.209 2.402-2.233 3.615-3.326 1.609-1.45 3.323-2.79 4.917-4.29 2.354-2.217 4.917-4.319 7.375-6.507.863-.769 1.656-1.593 2.555-2.267zm4.917 33.646c2.536 1.633 5.673 2.977 9.592 3.133 4.733.189 8.586-.954 11.135-3.422 2.38-2.306 4.255-5.799 4.146-10.363-.109-4.544-1.948-7.627-4.82-9.737-1.313-.887-3.361-1.205-5.592-1.205-.796 0-1.821-.066-2.41.048-.49.095-.308 1.508-.29 2.169.025.91.001 1.838 0 2.651 0 3.666.001 6.907 0 10.508 0 1.802.102 3.785-.144 5.206-3.892.189-8.682-.146-12.581.193.107.445.614.593.964.819z" fill-rule="evenodd"/></svg>