<svg enable-background="new 0 0 81.881 42.232" viewBox="0 0 81.881 42.232" xmlns="http://www.w3.org/2000/svg"><path clip-rule="evenodd" d="m.173 42.084c-.263-1.689-.148-3.441-.148-5.172 0-11.359 0-22.844 0-34.371 0-.789-.036-1.65.197-2.412 17.195-.215 34.242-.096 51.604-.098h8.913c2.797 0 5.277.522 7.534 1.428 4.322 1.734 7.614 4.236 10.045 7.879 2.148 3.084 3.348 6.746 3.546 11.424.198 4.684-1.365 8.785-3.201 11.67-1.936 3.041-4.557 5.49-7.731 7.238-1.621.893-3.442 1.643-5.416 2.068-2.051.443-4.348.492-6.943.492-17.628-.002-33.729.004-51.211 0-2.412 0-4.849.012-7.189-.146zm38.211-39.098c-2.531 2.529-5.193 5.012-7.534 7.533-2.841 3.062-5.945 5.861-8.716 8.863-.4.434-.896.844-1.083 1.428 4.472.223 9.627.098 14.428.1 1.605 0 3.203.127 4.678-.148-.178-.482-.594-.869-.936-1.231-.714-.756-1.458-1.459-2.167-2.168-.339-.338-.935-.654-.887-1.231.379 0 .735.387.985.641.875.887 1.724 1.793 2.561 2.658.51.279.691.885 1.33 1.033.233-1.576.191-3.27.148-4.924-.13-4.984.134-10.125-.049-15.066-.033 0-.065 0-.099 0-.825.461-1.824 1.676-2.659 2.512zm-1.477 18.366c-3.351.002-6.961.006-10.242 0-.489 0-.954-.106-1.428-.049-1.356.164-2.95-.137-4.235.197.625 1.021 1.583 1.779 2.413 2.609 5.457 5.455 10.881 11.08 16.299 16.496.422.422.776.988 1.379 1.182.108-6.658.177-13.227 0-19.941-.808.215-1.335.988-1.92 1.574-.612.611-1.272 1.191-1.822 1.822-.474.272-.735.996-1.33.984.023-.539.543-.887.886-1.23.379-.379.77-.736 1.133-1.133.715-.779 1.609-1.43 2.117-2.363-1.021-.266-2.133-.148-3.25-.148z" fill-rule="evenodd"/></svg>