<svg enable-background="new 0 0 77.603 62.208" viewBox="0 0 77.603 62.208" xmlns="http://www.w3.org/2000/svg"><path clip-rule="evenodd" d="m.216 61.934c-.258-1.152-.143-2.455-.143-3.809.001-3.883 0-7.858 0-11.806.001-5.247-.193-10.562.048-15.614.116-2.443-.069-4.935 0-7.426.197-7.095 0-14.523 0-21.565 0-.564-.14-1.225.238-1.714 13.184.074 27.375.143 40.749.143 3.518 0 6.963-.08 9.855.333 2.959.423 5.381 1.303 7.807 2.38 4.721 2.096 8.594 4.866 11.664 8.664 2.654 3.075 4.56 6.679 5.949 11.044 1.373 4.314 1.619 10.027.572 14.948-1.935 9.088-7.265 15.472-13.995 19.9-1.723 1.133-3.58 2.042-5.666 2.856-2.055.803-4.277 1.496-6.711 1.762-2.637.287-5.391.143-8.236.143-13.956-.001-28.463.08-42.131-.239zm18.47-46.32c-.842 0-1.844-.161-2.617 0-.406.084-.435.198-.476.714-.09 1.117.048 1.886.048 2.951-.001 6.346-.048 13.367-.048 19.708 0 2.677-.077 5.573.096 7.855 1.506.212 3.717.212 5.283.047.25-.563.142-1.22.142-1.809 0-9.834.168-19.363-.047-29.277-.652-.272-1.51-.189-2.381-.189zm21.899 0c-1.24.059-2.596-.06-3.713.19-.115 4.645-.246 9.843 0 14.139.639-.279.859-1.03 1.189-1.571 2.189-3.576 4.598-7.134 6.617-10.759.338-.606.906-1.13.953-1.856-1.564-.107-3.326-.224-5.046-.143zm16.281 10.235c-.361.538-.756 1.056-1.096 1.571-.393.601-.639 1.23-.951 1.761-.18.304-.506.653-.762 1.047-.207.32-.666.922-.666 1.19 0 .38.564 1.066.762 1.381.301.483.629.823.855 1.285.818 1.683 2.043 3.271 3.096 4.951.252.402.684 1.349 1.094 1.333.387-.015.98-1.225 1.238-1.713 1.064-2.023 1.752-4.31 1.809-7.188.057-2.853-.695-5.293-1.713-7.236-.271-.519-.859-1.697-1.334-1.714-.73.794-1.514 2.118-2.332 3.332zm-12.519 19.233c-1.037-1.779-2.045-3.489-3.096-5.284-.65-1.115-1.426-2.204-2.141-3.428-.312-.534-.596-1.179-1-1.809-.326-.507-.889-1.481-1.238-1.619-.066.013-.055.104-.096.143-.037 4.684-.094 9.243.049 13.805 1.201.228 2.729.095 4.236.095.729 0 1.471-.003 2.189 0 .703.004 1.459.196 2-.143-.083-.671-.575-1.195-.903-1.76z" fill-rule="evenodd"/></svg>