<svg enable-background="new 0 0 172.299 181.003" viewBox="0 0 172.299 181.003" xmlns="http://www.w3.org/2000/svg"><g clip-rule="evenodd" fill-rule="evenodd"><path d="m96.644.094c.26.887.145 1.848.144 2.748 0 12.275.096 24.818.097 37.17.001 1.857.099 3.725-.144 5.496-5.291.127-10.93.146-16.15.145-.899 0-1.805-.084-2.7-.047-.85.033-1.746.186-2.555-.098-.251-15.092-.144-30.523-.097-45.318.925-.258 1.919-.144 2.893-.144h3.037c5.575.001 10.33-.131 15.475.048z"/><path d="m121.907 20.729c.113 8.08.241 16.809 0 24.684-7.237.242-14.718.201-21.551.096-.225-.945-.15-1.979-.145-2.988.036-6.91-.108-14.646.096-21.791 1.609-.182 3.276-.098 4.966-.098 4.792.002 10.186.135 15.235-.047.414-.016 1.043-.124 1.399.144z"/><path d="m71.719 20.825c.175 6.851.144 14.312.144 21.744 0 .998.114 2.033-.144 2.988-6.934.158-14.611.148-21.405.049-.236-.926-.145-1.928-.145-2.941 0-7.125-.078-14.707.097-21.84 6.977-.162 14.35-.172 21.453 0z"/><path d="m146.976 44.11c.357 7.689-.01 15.463.145 23.238.308 15.518-.064 31.162.097 46.523.06 5.734.048 11.395.048 17.404 0 1.9.116 3.84-.145 5.738-6.837.221-14.363.201-21.454.047-.222-30.893-.232-62.064-.192-92.854 3.151-.377 6.581.004 9.738-.145 3.859-.182 7.972.029 11.763.049z"/><path d="m46.649 44.352c.256.926.144 1.893.144 2.844.003 29.959.297 60.254.048 90.059-1.664.217-3.474.144-5.303.144-4.562 0-9.104.049-13.692.049-.876 0-1.778.109-2.604-.145-.115-30.75-.245-62.498-.144-92.855 6.988-.192 14.58-.203 21.551-.096z"/><path d="m172.046 66.674c.254 3.922.145 7.926.145 11.906.001 7.926.047 15.654.049 23.672.001 3.896.185 7.797-.097 11.572-6.94.127-14.673.264-21.454.047-.141-11.701-.195-23.482-.192-35.531 0-2.998.048-5.969.048-8.871 0-.926-.157-1.891.097-2.795 3.979-.318 8.403.102 12.68-.098 1.311-.061 3.061.023 4.531-.047 1.472-.071 2.89.018 4.193.145z"/><path d="m121.955 66.819c.258 3.896.144 7.918.145 11.908.002 7.863.048 15.488.048 23.623 0 3.951.172 7.859-.097 11.619-3.54.184-7.287.225-10.896.145-3.594-.08-7.242.197-10.702-.098-.148-15.885-.234-31.248-.049-47.15 3.282-.232 6.541-.064 9.835-.096 3.302-.031 6.668.109 10.076-.049.469-.021 1.235-.174 1.64.098z"/><path d="m71.815 66.963c.172 15.525.243 31.517.048 47.15-3.483.254-7.091.096-10.702.096-3.595 0-7.186.17-10.752-.049-.155-7.865-.145-15.621-.143-23.574 0-6.022-.001-12.084 0-17.838 0-1.939-.105-3.891.096-5.785 6.892-.211 14.756-.22 21.453 0z"/><path d="m21.531 67.059c.387 3.889.006 7.885.144 11.908.205 5.928.047 11.914.049 17.887 0 2-.09 4.02 0 5.979.086 1.918.127 3.902.048 5.785-.081 1.908.097 3.799-.146 5.641-6.627.17-14.749.156-21.453-.098-.164-7.764-.144-15.738-.144-23.67 0-7.01 0-13.805 0-20.732 0-.924-.109-1.889.096-2.795 6.887-.178 14.56-.006 21.406.095z"/><path d="m122.099 136.049c.213 7.861.211 16.275.048 24.346-1.738.256-3.557.146-5.399.146-4.367-.002-8.979.047-13.596.047-.87 0-1.776.109-2.604-.145-.171-7.025-.144-14.244-.144-21.406 0-.983-.116-2.002.144-2.94 6.848-.153 14.673-.145 21.551-.048z"/><path d="m96.885 136.145c.256.887.146 1.828.146 2.748-.001 6.449.048 13.26.048 19.863 0 3.646-.072 7.336 0 10.992.056 2.814.033 5.645.048 8.389.005.893.106 1.83-.145 2.701-3.521.176-7.188.096-10.799.096-3.564 0-7.2.207-10.606-.096-.203-12.926-.143-25.992-.145-39.244-.001-.951.032-1.908 0-2.846-.03-.867-.138-1.77.145-2.604 6.562-.077 14.479-.204 21.308.001z"/><path d="m71.912 136.194c.239 8.234.221 16.475.048 24.395-5.215.238-10.971.014-16.392.096-1.744.027-3.461.176-5.063-.096-.167-8.27-.166-16.207-.048-24.346 6.93-.19 14.473-.229 21.455-.049z"/></g></svg>