<svg enable-background="new 0 0 72.297 71.663" viewBox="0 0 72.297 71.663" xmlns="http://www.w3.org/2000/svg"><path clip-rule="evenodd" d="m57.013.181c-.249.965-1.234 1.317-1.717 2.11-1.764 1.704-3.37 3.565-5.104 5.299-1.734 1.735-3.582 3.351-5.3 5.103-3.432 3.502-6.94 6.929-10.402 10.403-1.742 2.035-3.822 3.733-5.544 5.79-.566.694-1.476 1.043-1.816 1.962.629.341 1.425.196 2.109.196 8.227.001 16.526-.049 24.583-.049 2.997 0 5.991.085 8.833-.098.295-10.002-.099-20.542.196-30.717 1.491-.121 3.162-.153 4.759-.147 1.588.006 3.172-.073 4.515.147.26 2.932.146 5.884.147 8.832.006 20.66.075 41.474-.099 62.415-.673.246-1.477.178-2.257.196-1.551.036-3.206-.07-4.809 0-.793.035-1.59.053-2.257-.147-.179-8.766-.1-18.036-.099-27.036 0-1.245.117-2.527-.147-3.729-5.841-.256-11.904-.147-17.86-.147-5.957 0-11.929.03-17.763.099-.097.487.417.76.687 1.03 5.046 5.046 10.111 10.291 15.358 15.211 4.267 4.001 8.222 8.572 12.611 12.513.266.334.671.596.98.933.287.31.723.657.688 1.128-3.944.169-8.072.151-11.825.049-.892-.582-1.589-1.394-2.356-2.11s-1.465-1.515-2.207-2.257c-1.48-1.48-3.035-2.886-4.515-4.367-5.193-5.194-10.388-10.388-15.604-15.604-.738-.738-1.407-1.533-2.159-2.257-1.9-1.831-3.694-3.742-5.545-5.643-.712-.731-1.461-1.461-2.208-2.208-.365-.365-.714-.823-1.226-.981-.292 11.541.099 23.783-.194 35.377-1.383.308-3.138.092-4.76.147-1.592.055-3.151.074-4.563-.098-.164-23.788-.215-47.219 0-71.296 2.924-.116 6.314-.164 9.274 0 .266 2.864.147 5.831.146 8.783 0 8.913-.09 17.767.099 26.301.557-.032.893-.554 1.275-.883 1.149-.986 2.186-2.261 3.288-3.336 7.335-7.42 14.604-14.905 22.032-22.229 3.048-2.857 5.753-6.057 8.931-8.783 2.981-.038 5.929.067 8.832-.049 1.016-.041 2.061-.088 2.993.147z" fill-rule="evenodd"/></svg>