<svg enable-background="new 0 0 71.891 63.643" viewBox="0 0 71.891 63.643" xmlns="http://www.w3.org/2000/svg"><path clip-rule="evenodd" d="m47.496 32.732c-1.131.249-2.331.143-3.506.142-5.967 0-12.256.16-18.15 0-1.749-.047-3.457 0-5.261 0-.551 0-1.146-.108-1.658.142.038 1.057.61 1.969 1.042 2.844 1.279 2.587 3.331 4.62 5.64 6.208 2.107 1.238 4.434 2.324 7.346 2.559 3.177.257 5.995-.411 8.293-1.469 4.54-2.089 7.675-5.666 9.147-10.615 1.759-5.911-.565-12.138-2.985-15.639-2.733-3.952-6.428-6.76-11.374-8.388-2.661-.876-5.708-1.136-8.673-.853-7.415.709-12.084 4.332-15.543 9.146-.346.481-.649.978-.948 1.516-.295.532-.688 1.064-.9 1.564-.245.58-.409 1.258-.616 1.896-.588 1.81-.994 3.894-1.185 6.208-.243 2.965.407 6.166 1.232 8.625 1.646 4.9 4.509 8.697 7.724 12.037 4.256 3.469 9.691 6.349 17.346 6.351 7.684.001 13.008-2.982 17.345-6.351 1.341-1.174 2.786-2.438 3.839-4.075 1.004-1.563 2.174-3.083 2.984-4.929 1.174-2.665 2.059-5.655 2.418-9.431.049-.515.031-1.137.094-1.801.06-.613.22-1.306 0-1.659-.363-.585-1.458.012-1.848-.616-.039-.973.859-1.415 1.279-2.085.504-.65 1.043-1.263 1.518-1.943.599-.647 1.035-1.13 1.611-1.848.316-.396 1.09-1.667 1.752-1.706.707-.042 1.469 1.142 1.897 1.659 1.127 1.362 1.982 2.402 3.175 3.838.356.43 1.585 1.519 1.327 2.085-.243.533-1.48.142-1.801.569-.283.375-.135 1.847-.189 2.559-.451 5.915-1.541 11.152-3.744 15.307-3.043 5.738-7.684 10.643-13.174 14.027-3.375 2.08-7.262 3.539-11.896 4.455-6.479 1.281-13.757.321-18.861-1.658-1.35-.524-2.552-1.107-3.743-1.706-1.193-.6-2.176-1.384-3.271-2.18-1.063-.773-2.167-1.465-3.128-2.322-2.777-2.478-5.559-5.523-7.439-8.909-1.943-3.495-3.412-7.4-4.219-12.084-.863-5.024-.206-9.953 1.09-14.312 1.644-5.526 4.932-9.464 8.863-12.89 4.597-3.819 10.15-6.59 18.103-6.966 5.974-.282 11.173 1.295 14.927 3.413 3.994 2.252 7.38 4.976 9.811 8.483 1.035 1.029 1.527 2.436 2.228 3.744 1.997 3.733 3.72 8.596 3.271 14.359-.553 7.076-3.439 12.334-7.583 16.16-2.024 1.869-4.477 3.38-7.298 4.597-2.826 1.218-6.225 2.022-10.047 1.848-7.436-.338-12.437-3.292-16.492-7.25-2.011-2.254-3.71-4.859-4.928-7.914-1.234-3.093-1.951-6.742-1.422-10.9.117-.918.322-1.817.568-2.654.682-2.319 1.775-4.636 3.176-6.397.969-1.222 1.936-2.386 3.127-3.27 3.537-2.626 8.592-4.724 14.833-3.791 1.757.262 3.374.908 4.834 1.563 1.46.656 2.748 1.589 3.886 2.512 2.254 1.828 4.242 4.38 5.45 7.346.907 2.229 1.488 5.006 1.28 8.246-.062.892-.098 1.862-.574 2.603zm-26.633-7.819c5.452.069 11.335.047 16.871.047.479 0 1.128.165 1.517-.237-.011-.844-.569-1.541-.995-2.18-1.275-1.917-3.383-3.462-5.687-4.218-1.942-.637-4.467-.451-6.304 0-2.104.517-3.859 1.765-5.117 3.128-.814.882-1.585 1.993-1.896 3.27.402.366 1.006.182 1.611.19z" fill-rule="evenodd"/></svg>