<svg enable-background="new 0 0 70.152 69.778" viewBox="0 0 70.152 69.778" xmlns="http://www.w3.org/2000/svg"><path clip-rule="evenodd" d="m69.965.103c.256 5.658.146 11.609.146 17.496 0 17.916.118 34.369-.049 52.004-13.557.074-26.717.279-39.624.098-1.943-.027-4.017.061-5.849-.049-.861-.488-1.396-1.301-2.096-1.949-4.422-4.316-8.768-8.721-13.159-13.111-.272-.271-.514-.703-.975-.73-.36 5.236.068 10.568-.195 15.742-.043.021-.087.043-.098.098-2.037.049-4.153.117-5.995.049-.641-.025-1.336.129-1.901-.146-.177-11.498-.098-23.322-.098-34.896 0-2.908-.108-5.844 0-8.725.108-2.873.065-5.779-.048-8.625-.056-1.398.088-2.832.048-4.24-.08-2.873-.048-5.758-.048-8.725.002-1.414-.116-2.849.149-4.242 2.504-.049 5.473-.147 7.895.049.178 4.117.098 8.274.098 12.428 0 12.269.019 24.799.146 37.187.494-.002.818-.478 1.121-.781 3.617-3.615 7.261-7.408 10.917-11.062 1.336-1.336 2.569-2.736 4.045-3.898 12.246-.039 25.202.057 37.43-.098.297-.602.223-1.35.195-1.998-.198-4.705-.049-9.896-.049-14.719 0-5.717-.081-11.504.097-17.107 2.518-.171 5.374-.214 7.897-.05zm-35.725 36.113c-4.912 4.734-9.729 9.828-14.572 14.672-.301.301-.891.766-.877 1.072.011.24.588.781.877 1.072 4.639 4.639 9.222 9.27 13.793 13.84.306.307.631.768 1.121.781.209-9.238.049-19.117.049-28.561 0-1.006.12-2.02-.146-2.973-.032 0-.064 0-.097 0-.059.025-.112.052-.148.097zm25.929 6.045c-5.646-.002-11.67-.082-17.399.098-.163 6.141-.163 12.963 0 19.106 1.502.262 3.109.144 4.728.144 3.274.002 6.536-.047 9.699-.047 1.598 0 3.19.178 4.679-.098.224-2.93.146-6.098.146-9.359 0-3.23-.021-6.568-.146-9.697-.513-.252-1.127-.147-1.707-.147z" fill-rule="evenodd"/></svg>