<svg enable-background="new 0 0 75.147 75.76" viewBox="0 0 75.147 75.76" xmlns="http://www.w3.org/2000/svg"><path clip-rule="evenodd" d="m73.88 28.809c-.692.28-1.513.122-2.293.146-2.056.064-4.592.054-6.831-.049-.497-.467-.653-1.215-.878-1.854-.229-.65-.447-1.348-.732-1.952-.398-.843-1.062-1.667-1.61-2.488-.55-.824-1.093-1.638-1.659-2.391-1.188-1.579-2.526-2.968-3.952-4.196-3.019-2.599-6.451-4.336-10.538-5.708-3.98-1.335-9.808-1.722-14.295-.488-4.308 1.185-8.022 2.823-11.026 5.22-4.449 3.55-7.99 8.372-9.904 14.49-.671 2.146-1.048 4.361-1.171 6.928-.258 5.428.846 9.835 2.586 13.563 1.733 3.714 4.001 6.714 6.928 9.318 3.465 2.898 7.617 5.482 12.977 6.538 4.28.842 9.236.813 13.124-.342 6.283-1.865 11.112-4.971 14.832-9.563 2.141-2.643 4.049-5.749 5.22-9.416.39-1.221.753-2.568.683-3.952-.553-.322-1.261-.195-1.902-.195-4.732 0-9.975-.081-14.587.097.101.581.635.977 1.024 1.366 2.331 2.331 4.686 4.685 7.123 7.123.336.336.971.898.975 1.366.006.669-1.055 1.298-1.464 1.707-.592.592-1.046 1.078-1.561 1.61-1.132.965-1.887 2.309-3.317 2.976-.598-.056-.902-.658-1.269-1.024-1.851-1.852-3.673-3.869-5.562-5.757-.375-.374-.775-.719-1.123-1.122-.336-.39-.568-.959-1.122-1.122-.345.995-.195 2.207-.195 3.366v7.025c0 1.173.117 2.335-.146 3.367-.688.287-1.508.117-2.342.097-.805-.019-1.692 0-2.537 0-1.692 0-3.401.096-4.732-.097-.253-.533-.146-1.18-.146-1.756 0-1.77 0-3.546-.049-5.318-.067-2.416.164-4.87-.098-7.123-.706.091-.924.67-1.366 1.025-2.438 2.283-4.731 4.747-7.171 7.22-.303.307-.878.824-1.22.829-.632.01-1.26-.913-1.61-1.317-1-1.154-1.799-1.76-2.879-2.927-.371-.401-1.259-1.041-1.22-1.659.028-.434.621-.816.976-1.171 2.485-2.486 4.917-4.952 7.367-7.318.25-.547.928-.665 1.024-1.366-.515-.271-1.142-.127-1.707-.146-2.83-.098-6.04 0-8.977 0-1.192 0-2.39.118-3.464-.147-.225-1.299-.13-2.918-.098-4.537.017-.837 0-1.664 0-2.488 0-.76-.163-1.568.146-2.195 4.35-.301 9.319.017 13.709-.244.026-.603-.613-.942-.976-1.317-1.885-2.035-3.935-3.903-5.854-5.903-.395-.44-.697-.721-1.171-1.171-.317-.301-1.064-.79-1.073-1.269-.011-.559.993-1.294 1.415-1.708 1.138-1.115 1.94-1.94 3.123-3.122.413-.413 1.148-1.406 1.707-1.415.505-.008.959.72 1.269 1.024.417.412.695.687 1.073 1.171 2.041 1.931 3.993 3.944 6.001 5.952.263.263.496.69.927.731.312-.903.147-2.13.147-3.366 0-3.334.004-6.75.098-10.001.678-.274 1.523-.146 2.342-.146h2.537c1.718 0 3.456-.161 4.879.146.291 4.344-.096 9.366.195 13.709.605-.013.899-.642 1.269-1.025 2.342-2.421 4.691-4.69 7.172-7.171.343-.343.862-1.061 1.269-1.073.577-.017 1.318.987 1.708 1.366 1.178 1.146 1.916 1.807 3.025 3.025.36.395 1.353 1.078 1.366 1.659.011.485-.701 1.024-1.074 1.366-2.561 2.355-4.927 4.781-7.367 7.221-.386.386-.871.77-1.073 1.317 1.004.269 2.074.183 3.122.147 3.102-.107 6.396.048 9.66.049 4.373 0 8.806-.107 13.075.098.729 2.058.511 4.439.488 6.635-.024 2.255-.403 4.491-.83 6.342-.9 3.909-2.348 7.354-4.001 10.343-2.563 4.638-6.03 8.393-10.001 11.562-.68.543-1.353 1.056-2.098 1.512-6.366 3.903-14.877 7.39-25.711 6.001-8.357-1.071-14.687-4.608-19.759-8.977-2.551-2.304-4.819-4.805-6.684-7.708-.917-1.429-1.933-2.938-2.585-4.586-.66-1.665-1.35-3.421-1.903-5.269-1.154-3.858-1.623-8.292-1.513-12.782.052-2.121.5-4.289.927-6.245 1.28-5.865 3.665-10.708 6.635-14.929 1.931-2.744 4.528-5.099 7.171-7.171 4.621-3.625 10.467-6.478 17.759-7.416 3.345-.431 7.928-.594 11.221.146 2.402.54 4.649 1 6.635 1.756 4.174 1.592 7.595 3.637 10.637 6.101 3.795 3.074 7.407 6.691 9.708 11.27.918 1.827 1.884 3.731 2.537 5.854.319 1.037.754 2.166.635 3.318z" fill-rule="evenodd"/></svg>