<svg enable-background="new 0 0 166.328 169.427" viewBox="0 0 166.328 169.427" xmlns="http://www.w3.org/2000/svg"><g clip-rule="evenodd" fill-rule="evenodd"><path d="m132.764 99.671c1.196.325 3.094 1.055 4.303 1.54 9.545 3.831 19.26 7.569 28.854 11.279.123.103.35.104.408.271-.141.935-.502 1.916-.861 2.809-3.895 9.704-9.295 18.11-15.717 25.366-2.342 2.645-4.912 5.059-7.475 7.474-2.423 2.023-4.822 3.935-7.383 5.707-2.594 1.796-5.33 3.34-8.154 4.938-5.611 3.175-11.791 5.48-18.661 7.474-6.827 1.981-14.861 2.899-23.192 2.899-8.341-.001-16.141-1.332-22.83-3.307-10.051-2.968-18.901-7.227-26.588-12.683-1.247-.885-2.408-1.948-3.624-2.899-1.22-.954-2.411-1.971-3.533-2.99-4.585-4.164-8.779-8.731-12.366-13.77-3.646-5.122-6.972-10.581-9.422-16.714-2.5-6.257-4.608-12.861-5.662-20.519-.538-3.91-.861-7.992-.861-12.23 0-12.831 2.85-23.413 6.659-32.568 2.554-6.141 5.843-11.598 9.467-16.669 3.628-5.077 7.871-9.574 12.501-13.679 11.54-10.23 25.849-17.775 44.798-20.565 2.865-.422 5.878-.652 9.014-.77 17.375-.651 31.225 3.697 42.715 9.421 2.678 1.334 5.224 2.955 7.699 4.53 2.484 1.58 4.874 3.313 7.066 5.119 3.348 2.755 6.408 5.795 9.331 9.014.962 1.059 1.956 2.107 2.855 3.216 4.486 5.636 8.525 11.692 11.686 18.844.186.419.689 1.177.589 1.495-.112.354-1.423.838-1.947 1.087-7.478 3.544-15.017 7.043-22.468 10.509-2.063.96-4.082 1.905-6.16 2.854-.666.304-1.318.777-2.083.815-.493-.549-.61-1.272-.906-1.902-4.437-9.451-10.876-16.656-19.567-21.969-4.472-2.733-9.787-5.014-15.945-6.206-6.155-1.191-13.77-1.254-20.111.136-11.845 2.597-21.084 8.607-27.676 16.624-3.292 4.004-6.066 8.578-8.153 13.997-2.064 5.359-3.361 11.921-3.035 18.934.318 6.836 1.951 12.843 4.212 17.938 2.261 5.09 5.318 9.521 8.878 13.272 3.571 3.762 7.633 7.058 12.456 9.693 4.772 2.606 10.318 4.645 16.624 5.526 6.935.97 14.264.475 20.021-1.132 5.848-1.632 10.92-3.911 15.174-6.976 2.193-1.58 4.322-3.099 6.16-4.938 1.848-1.847 3.544-3.748 5.164-5.888 2.796-3.693 5.145-7.729 6.93-12.457.244-.65.359-1.376.816-1.95z"/><path d="m99.335 82.187c-.509-1.775-1.108-3.293-1.948-4.666-.835-1.364-1.832-2.494-3.125-3.488-2.42-1.859-5.821-3.394-10.101-2.899-3.817.441-6.66 2.07-8.788 4.394-2.039 2.227-3.746 5.408-3.579 9.603.163 4.079 1.855 7.02 4.031 9.195 2.228 2.228 5.106 3.806 9.15 4.032 4.061.226 7.551-1.314 9.784-3.307 1.746-1.558 3.132-3.511 3.986-5.934.283-.803.365-1.672.725-2.537 1.324.32 2.535.956 3.805 1.45 6.205 2.41 12.473 4.896 18.707 7.338 2.492.976 5.029 1.826 7.429 2.99-.149 1.07-.577 2.071-.951 3.035-2.587 6.662-6.657 12.281-11.55 16.76-5.691 5.21-12.466 9.068-21.335 11.052-7.085 1.585-15.451 1.203-21.788-.453-2.127-.556-4.085-1.317-5.979-2.084-7.581-3.068-13.676-8.041-18.39-13.997-4.848-6.124-8.283-13.268-9.467-22.92-1.282-10.446 1.479-19.661 5.119-26.634 1.817-3.481 4.204-6.632 6.84-9.376 6.65-6.922 14.893-12.101 26.498-13.997 1.17-.191 2.405-.271 3.669-.362 5.634-.403 11.285.224 15.854 1.45 3.556.954 6.722 2.349 9.558 3.896 5.885 3.21 10.704 7.246 14.585 12.321 1.333 1.63 2.551 3.439 3.624 5.345 1.076 1.91 2.154 3.892 2.809 6.07-.131.337-.541.413-.815.544-4.474 2.13-9.145 4.306-13.68 6.432-4.248 1.992-8.417 4.063-12.773 5.979-.616.268-1.208.694-1.904.768z"/></g></svg>