<svg enable-background="new 0 0 67.206 79.572" viewBox="0 0 67.206 79.572" xmlns="http://www.w3.org/2000/svg"><g clip-rule="evenodd" fill-rule="evenodd"><path d="m40.001 34.258c-.139-7.542.025-14.568-.145-21.85-.857-.304-2.101-.193-3.336-.193-1.21 0-2.48-.072-3.48.097-.256.844-.145 1.755-.145 2.659 0 6.402.113 13.188-.097 19.288-1.737.256-3.576.145-5.414.145-5.394 0-11.156-.08-16.437.097-.16 1.81-.159 4.281 0 6.091.808.238 1.696.193 2.562.193 6.292 0 12.981-.04 19.239.048.022.043.043.086.097.097.112 6.683.048 13.082.049 19.53 0 6.395.139 12.69-.097 18.949-8.057.339-16.35.048-24.412.048-2.748 0-5.518.109-8.219-.145-.154-26.02-.147-51.02-.145-76.91 0-.766-.11-1.576.145-2.32 4.951-.182 10.75 0 15.856 0 10.553 0 20.732-.048 31.083-.048 5.358 0 8.986 1.426 11.988 3.77 2.937 2.293 5.186 5.504 6.14 9.62 1.131 4.88-.217 9.578-2.127 12.762-1.937 3.226-4.858 5.697-8.604 7.154-1.942.755-4.304 1.015-6.864 1.015-1.246 0-2.555-.007-3.867.048-1.245.052-2.527.075-3.77-.145z"/><path d="m40.05 79.408c-.161-12.595-.161-25.882 0-38.527 3.657-.012 7.777-.352 11.359-.097 4.982.355 8.349 2.597 10.877 5.511 2.542 2.973 4.589 6.478 4.883 11.505.303 5.201-1.308 9.511-3.48 12.762-2.128 3.182-5.139 5.821-9.04 7.299-3.925 1.487-8.976 1.945-14.599 1.547z"/></g></svg>