<svg enable-background="new 0 0 68.837 79.651" viewBox="0 0 68.837 79.651" xmlns="http://www.w3.org/2000/svg"><g clip-rule="evenodd" fill-rule="evenodd"><path d="m45.439 6.8c-2.528 1.666-5.249 3.127-7.908 4.667-1.994 1.154-3.977 2.26-5.993 3.439-.648.379-1.338.744-1.867 1.276 1.127.176 2.277-.1 3.39-.245 7.852-1.026 15.899-1.788 23.776-2.8 3.266 1.7 6.3 3.809 9.48 5.649.433.25.969.422 1.228.884-.285.43-.789.662-1.228.934-2.644 1.638-5.297 3.188-8.007 4.912-.421.268-.976.741-1.376.737-.437-.005-1.209-.641-1.621-.885-1.598-.945-3.084-1.966-4.666-2.849-3.414.352-6.711.821-9.923 1.375-.632 1.147-1.05 2.607-1.572 4.028-.128.35-.49 1.034-.442 1.375.058.408 1.021.859 1.376 1.081.531.331 1.08.656 1.522.934 1.078.674 2.086 1.167 2.898 1.965-.662.673-1.563 1.036-2.358 1.523-2.347 1.436-4.791 2.882-7.27 4.225-3.172-1.552-6.1-3.44-9.187-5.158-1-.557-2.031-1.12-2.896-1.867.788-2.619 1.932-5.057 2.897-7.565.486-1.263.962-2.537 1.474-3.782.505-1.226 1.103-2.431 1.376-3.733-.807.052-1.455.613-2.112.983-1.98 1.112-4.054 2.209-6.091 3.341-2.703 1.5-5.324 3.148-8.106 4.52-1.086-.266-1.955-1.008-2.898-1.523-2.348-1.282-4.631-2.711-6.976-4.028-.446-.25-1.005-.407-1.277-.884.199-.347.605-.544.934-.736 2.402-1.415 4.93-2.738 7.368-4.176 2.743-1.618 5.574-3.186 8.351-4.814 4.169-2.444 8.433-4.769 12.625-7.172 1.423-.815 2.813-1.643 4.225-2.357.517-.262 1.084.266 1.67.639 2.228 1.418 4.454 2.859 6.632 4.273.897.579 1.901.988 2.552 1.814z"/><path d="m.247 20.8c1.189.492 3.198 1.659 4.372 2.358 2.897 1.723 5.532 3.176 8.399 4.912 6.136 3.713 12.432 7.392 18.863 11.052.596.34 1.787.94 1.965 1.327.322.699.099 2.273.099 3.291v3.341c0 2.185.116 4.589-.148 6.532-1.062-.36-1.985-1.015-2.947-1.571-5.675-3.285-11.362-6.75-16.996-10.119-.922-.551-1.812-1.276-2.898-1.523-.266.469-.147 1.089-.147 1.621 0 3.349.048 6.723-.05 10.119-.017.588-.084 1.299.05 1.671.119.334.905.727 1.326.983 1.446.879 2.921 1.838 4.273 2.652 1.993 1.199 3.771 2.436 5.797 3.438.358-.936.138-2.027.098-3.095-.122-3.265-.188-6.718-.196-9.873.724.583 1.058 1.495 1.523 2.26 3.049 5 6.103 10.14 9.284 15.228.227.363.675.954.639 1.228-.053.394-.982.713-1.376.934-3.062 1.723-5.732 3.249-8.842 5.011-.456.259-1.074.786-1.523.786-.371 0-1.017-.47-1.473-.737-3.146-1.84-6.35-3.927-9.433-5.698-2.765-1.589-5.473-3.164-8.203-4.765-.897-.526-1.921-.919-2.652-1.67-.106-13.214-.026-26.36.049-39.546.027-.071.076-.12.147-.147z"/><path d="m68.773 34.161c-.276.529-.891.783-1.376 1.081-1.463.897-3.123 1.748-4.518 2.8-1.325 3.506-2.609 7.052-3.881 10.61.359.614 1.091.852 1.67 1.229.581.377 1.16.816 1.817 1.08 1.605-.779 3.082-1.688 4.667-2.555.479-.262.91-.758 1.522-.736.264 4.286.11 8.908.05 13.41-1.511 1.188-3.462 2.046-5.453 3.193-1.289.743-2.67 1.537-4.126 2.357-.432.243-1.053.69-1.425.688-.47-.003-1.082-.475-1.474-.737-.467-.312-.867-.603-1.326-.835-2.827-1.496-5.296-3.35-8.302-4.667-.32.366-.197.908-.197 1.376 0 3.52.066 7.491-.098 10.905-.669.808-1.712 1.206-2.604 1.719-2.249 1.296-4.47 2.611-6.729 3.979-.433.262-.893.628-1.425.589-.138-1.217-.141-2.479-.147-3.733-.063-11.555.096-23.558.098-35.516 3.033-1.962 6.287-3.731 9.481-5.6.415-.242.83-.686 1.375-.639.279 7.565-.123 15.871.148 23.48.495-.345.607-1.018.786-1.522.584-1.649 1.151-3.362 1.769-5.06 1.996-5.49 3.988-11.102 6.042-16.702.788-2.148 1.467-4.369 2.26-6.632 2.732-1.487 5.398-3.186 8.154-4.666.934-.502 1.896-.934 2.8-1.474.639-.383.491.619.491 1.277 0 3.614.05 7.863-.049 11.301z"/></g></svg>