<svg enable-background="new 0 0 71.65 73.337" viewBox="0 0 71.65 73.337" xmlns="http://www.w3.org/2000/svg"><path clip-rule="evenodd" d="m13.996 32.443c-.966 1.068-2.005 2.236-2.133 4.114-.126 1.852.864 3.14 1.879 4.215 6.293 6.301 12.134 12.84 18.64 18.842.951.879 1.737 1.46 3.199 1.524 1.309.057 2.49-.545 3.353-1.321 1.62-1.457 3.219-3.219 4.673-4.672 3.176-3.176 6.2-6.327 9.345-9.396 3.61-3.582 6.754-7.192 10.513-10.615.59-.537 1.172-1.181 2.032-1.473.868-.295 1.996-.358 2.996 0 1.657.594 2.846 2.009 3.048 4.012.21 2.091.05 4.544.05 6.958.001 4.757 0 9.18 0 13.916.001 2.396.188 4.854-.102 6.857-.305 2.104-1.227 3.503-2.285 4.724-1.114 1.284-2.523 2.138-4.266 2.742-1.642.569-4.007.457-6.45.457-13.682 0-28.021-.001-42.053 0-2.44 0-4.786-.06-7.009 0-2.204.06-3.933-.433-5.333-1.473-1.381-1.025-2.503-2.361-3.199-3.86-.381-.819-.708-1.677-.813-2.692-.103-1.007-.05-2.153-.051-3.454-.001-9.256.002-18.72 0-28.086 0-4.63.188-9.31.051-13.966-.06-2.063-.115-4.568-.051-6.908.064-2.289-.142-4.594.458-6.348 1.115-3.265 3.827-5.977 7.771-6.45 1.71-.206 3.639 0 5.484 0h16.405c1.99 0 3.933-.218 5.332.152 1.294.342 2.302 1.387 2.845 2.59 1.52 3.371-1.268 5.788-2.845 7.364-7.279 7.281-14.222 14.655-21.484 22.247zm-4.571 10.666c-1.493-1.848-2.312-4.067-2.184-7.263.115-2.857 1.487-4.857 2.946-6.45 1.549-1.692 3.085-3.186 4.672-4.774 4.756-4.756 9.126-9.633 13.865-14.373.702-.703 1.674-1.446 2.438-2.286.533-.586 2.239-1.906 1.981-2.641-.198-.562-1.481-.508-2.438-.508-6.114 0-11.982 0-17.878 0-1.804 0-3.667-.216-5.078.254-1.447.483-2.736 1.879-3.047 3.403-.208 1.017-.102 2.289-.102 3.505-.001 16.507.089 33.791 0 49.975-.007 1.272-.105 2.574.152 3.454.341 1.161 1.37 2.159 2.438 2.641.894.404 2.089.305 3.453.305 12.731 0 25.027-.049 37.532-.051 3.557 0 7.696.114 11.326 0 1.228-.039 2.504.129 3.605 0 1.783-.209 3.342-1.907 3.607-3.504.16-.969.051-2.097.051-3.2-.002-6.59.001-12.803 0-19.35 0-1.043.307-2.405-.508-2.793-.794-.087-1.307.686-1.727 1.168-.473.542-.991 1.092-1.474 1.574-3.052 3.052-5.958 6.161-8.989 9.193-3.009 3.009-6.069 6.065-8.989 9.142-.99 1.043-1.99 2.179-3.048 3.048-2.294 1.886-5.795 3.023-9.243 1.93-2.916-.924-4.795-3.424-6.755-5.384-4.079-4.079-8.002-8.196-12.037-12.189-1.581-1.85-3.195-3.127-4.569-4.826z" fill-rule="evenodd"/></svg>