<svg enable-background="new 0 0 71.549 69.961" viewBox="0 0 71.549 69.961" xmlns="http://www.w3.org/2000/svg"><g clip-rule="evenodd" fill-rule="evenodd"><path d="m33.756.101c.164 6.585.185 13.865.185 20.758 0 .962.173 2.172 0 2.998-.13.623-1.135 1.121-1.661 1.523-.662.504-1.202.972-1.799 1.337-.843.75-1.731 1.427-2.629 2.122-2.221 1.721-4.365 3.359-6.688 5.166-.426.332-1.235.771-1.245 1.107-.014.468 1.268 1.132 1.707 1.476 2.923 2.295 5.92 4.541 8.902 6.78.594.445 1.211.878 1.799 1.338.576.45 1.179.914 1.66 1.476.097 7.804.183 16.072.046 23.617-4.487.165-9.608.228-14.207.046-.376-9.529-.015-19.656-.323-28.921-1.295-.281-3.042-.062-4.474-.047-.252 1.111-.093 2.278-.092 3.46.003 7.852.067 17.081-.046 25.323-.455-.015-.734-.457-1.015-.737-3.292-3.292-6.773-6.589-10.102-9.918-1.213-1.212-2.569-2.276-3.552-3.689-.104-3.236-.092-6.937-.092-10.333 0-3.351.093-6.677 0-10.01-.166-5.963-.092-11.675-.092-17.713 0-.878-.11-1.832.046-2.49.162-.684 1.178-1.409 1.707-1.938 3.985-3.984 7.837-7.838 11.808-11.808.284-.283.54-.754 1.015-.784.333 4.341-.024 9.344.184 13.931.221 4.866-.187 9.737.138 14.529.62.219 1.503.171 2.306.139.792-.031 1.589.062 2.168-.139.252-1.154.139-2.374.139-3.552 0-7.991-.159-16.786.046-25 4.582-.162 9.384-.211 14.161-.047z"/><path d="m38.277 69.8c-.261-2.9-.104-5.823-.185-8.718-.082-2.959 0-5.909 0-8.856 0-17.03-.27-34.475-.092-52.124 6.359-.045 12.678-.126 18.958-.046.742.415 1.307 1.088 1.937 1.66.613.558 1.163 1.21 1.753 1.8 2.963 2.962 5.806 5.937 8.995 8.856.525.48 1.517 1.317 1.661 1.892.164.652.046 1.65.046 2.583-.001 5.924.092 12.082.092 17.989 0 6.221.046 11.718.046 17.897 0 .891.136 1.873 0 2.584-.123.643-1.221 1.451-1.707 1.937-1.767 1.767-3.827 3.776-5.489 5.443-2.15 2.111-4.084 4.227-6.366 6.365-.343.322-.652.693-1.015.784-.629.158-1.511.047-2.353.047-4.633-.002-9.358.046-14.068.046-.739-.001-1.51.104-2.213-.139zm14.392-57.013c-.216 1.824-.092 3.682-.092 5.535 0 12.982.07 25.919.231 39.069 1.301.155 3.218.149 4.52 0 .232-3.618.092-7.358.092-11.116 0-5.653-.046-11.071-.046-16.698 0-5.558.009-11.29-.185-16.79-1.398-.153-3.157-.172-4.52 0z"/></g></svg>