<svg enable-background="new 0 0 75.638 63.12" viewBox="0 0 75.638 63.12" xmlns="http://www.w3.org/2000/svg"><path clip-rule="evenodd" d="m7.872.053c5.569-.196 11.644.226 17.416.102 2.757-.059 5.659 0 8.582 0 8.674 0 17.348.082 26.1.051 2.896-.01 6.006-.161 8.582.051 2.818.231 4.443 1.308 5.738 2.996.623.813 1.101 1.828 1.27 3.148.15 1.188.037 2.607.051 4.215.067 8.417-.051 17.293-.051 25.592 0 5.605.057 11.914 0 17.417-.016 1.52.071 2.871-.152 4.113-.41 2.279-1.943 4.031-3.859 4.875-1.062.468-2.244.508-3.859.508-17.754 0-34.681-.05-51.794-.051-3.056 0-5.823.012-8.53-.102-4.019-.169-6.506-2.469-7.16-5.992-.227-1.221-.203-2.58-.203-4.164 0-13.92.1-28.409.102-42.958 0-3.037.307-5.407 1.727-7.007 1.52-1.72 2.992-2.687 6.04-2.794zm5.737 18.585c-1.811 0-3.757-.159-5.23.051-.24.975-.054 2.006-.102 3.046-.295 6.32-.051 13.11-.051 19.448 0 1.048-.147 2.115.101 3.098 2.998.256 6.527.282 9.698.101.18-3.397.151-7.326.152-10.866 0-.479-.125-1.055.152-1.473.712.324 1.221.956 1.777 1.473 3.376 3.136 6.956 6.164 10.308 9.241.559.513 1.089 1.236 1.879 1.422.273-1.979.152-4.074.152-6.195 0-4.23 0-8.525 0-12.695 0-2.117.094-4.194-.102-6.144-.719.178-1.275.818-1.828 1.32-.57.519-1.168 1.038-1.676 1.574-1.194.989-2.301 2.066-3.504 3.047-1.728 1.545-3.443 3.155-5.18 4.621-.588.497-1.08 1.199-1.878 1.421-.304-3.877.101-8.461-.203-12.339-1.353-.246-2.916-.151-4.465-.151zm27.167.101c-.436.524-.254 1.426-.254 2.184 0 2.398-.209 4.89.101 7.007 2.881.228 6.396.207 9.343.051.272-1.32.152-2.959.152-4.52.001-1.61.082-3.223-.102-4.621-2.868-.212-6.361-.067-9.24-.101zm24.424 0c-2.273 0-5.141-.04-7.159.051-.372.305-.284.896-.305 1.32-.026.53 0 1.098 0 1.625-.001 6.564-.052 13.039-.052 19.55 0 1.056-.117 2.147.152 3.148 2.796.206 6.508.145 9.445 0 .173-8.71.226-17.065.051-25.541-.632-.271-1.392-.153-2.132-.153zm-24.424 16.909c-.061.025-.115.054-.152.102-.251.256-.152 1.441-.152 2.082 0 2.228-.081 4.728.102 6.55.707.266 1.521.152 2.285.152 2.352 0 4.775.134 7.108-.102.146-2.035.132-4.553.152-6.703.007-.712.024-1.392-.152-1.98-2.883-.217-6.061-.04-9.191-.101z" fill-rule="evenodd"/></svg>