<svg enable-background="new 0 0 72.89 73.496" viewBox="0 0 72.89 73.496" xmlns="http://www.w3.org/2000/svg"><path clip-rule="evenodd" d="m13.001.166c.242 7.441-.026 15.39.143 23.082.402.125.644-.312.854-.522 5.559-5.558 11.109-11.325 16.765-16.86 1.975-1.932 3.912-3.892 5.937-5.747 5.347.173 10.648-.164 16.101.095.777.037 1.621-.133 2.279 0 .685.138 1.841 1.651 2.327 2.137 2.227 2.227 4.497 4.592 6.649 6.744 3.03 3.031 5.978 6.061 8.833 9.024-.138.577-.667.884-1.045 1.282-4.075 4.294-8.674 8.291-12.633 12.776-1.439 1.63-3.184 2.96-4.512 4.702.562.973 1.428 1.687 2.232 2.422.801.732 1.462 1.612 2.28 2.327 2.108 2.492 4.468 4.611 6.839 6.981 1.956 1.956 3.943 3.991 6.031 6.08.297.296.792.66.808.902.022.334-.666.903-.997 1.234-4.079 4.081-8.216 8.133-12.253 12.253-1.458 1.488-2.787 3.133-4.465 4.417-6.224-.023-12.365.017-18.57-.095-6.967-6.647-13.627-13.603-20.374-20.47-.723-.729-1.442-1.442-2.185-2.184-.232-.232-.479-.571-.855-.57-.387 6.565.179 13.564-.095 20.422-.036.893.116 1.814-.142 2.66-4.005.109-8.712.101-12.776-.047-.163-2.673-.142-5.491-.142-8.359-.001-5.849 0-11.844 0-17.668 0-1.465.05-2.913 0-4.369-.05-1.426-.078-2.898.142-4.274 5.96-.199 11.737-.048 17.858-.048.856 0 1.823-.129 2.517.048.521.133 1.209.972 1.71 1.472 7.438 7.437 14.729 14.823 22.228 22.322.408.409 1.294 1.464 1.662 1.473.339.008.897-.66 1.187-.95 1.064-1.064 2.135-2.184 3.134-3.183 1.468-1.466 2.871-2.741 4.132-4.274-.597-.922-1.469-1.613-2.231-2.375-5.31-5.308-10.724-10.688-15.958-16.148.521-1.014 1.508-1.563 2.185-2.422 4.778-4.592 9.289-9.461 14.105-14.058.674-.643 1.383-1.295 1.899-2.09-.549-.856-1.288-1.526-1.994-2.232-1.727-1.727-3.475-3.522-5.272-5.319-.342-.341-.838-.946-1.141-.95-.397-.005-1.313 1.076-1.709 1.473-3.663 3.663-7.486 7.535-11.114 11.161-2.141 2.141-4.368 4.189-6.411 6.317-2.09 2.175-4.167 4.359-6.364 6.316-5.106.036-10.312-.048-15.53-.047-1.687 0-3.448.107-4.94-.142-.16-10.805-.047-21.769-.048-32.914 0-.649-.171-1.408.238-1.947 3-.037 6.428-.001 9.641 0 1.029 0 2.086-.11 3.04.142z" fill-rule="evenodd"/></svg>