<svg enable-background="new 0 0 82.81 52.776" viewBox="0 0 82.81 52.776" xmlns="http://www.w3.org/2000/svg"><path clip-rule="evenodd" d="m40.704 0c.363.085 1.081 1.047 1.493 1.542 1.341 1.609 2.688 3.338 3.95 4.913 1.795 2.239 3.574 4.442 5.299 6.551 1.787 2.186 3.424 4.479 5.202 6.648 3.57 4.354 6.989 8.772 10.598 13.102.456.548.913 1.078 1.349 1.639.428.551.783 1.163 1.205 1.733.832 1.128 1.786 2.177 2.649 3.276 3.248 4.138 6.667 8.115 9.923 12.283.191.246.479.569.434.915-3.416.151-7.119.06-10.839.097-1.602-1.329-2.604-3.177-3.901-4.77-3.866-4.745-7.771-9.556-11.657-14.354-2.586-3.192-5.22-6.355-7.756-9.586-1.271-1.619-2.567-3.203-3.853-4.817-1.274-1.598-2.561-3.212-3.95-4.721-.661.438-1.04 1.173-1.493 1.782-3.169 4.269-6.705 8.443-9.73 12.91-.618.912-1.38 1.784-2.071 2.649-2.06 2.577-4.027 5.319-6.118 7.9-.865 1.206-1.884 2.258-2.601 3.612.652.276 1.504.287 2.312.241 1.55-.088 3.224-.167 4.914-.193.81-.012 1.624-.023 2.312-.24.052-.585-.354-1.059-.53-1.59-.56-1.69-.577-3.741-.386-5.925.127-1.441.414-2.449.916-3.517.483-1.03.951-1.982 1.444-2.939 1.724-2.031 3.779-3.678 6.552-4.673 2.811-1.009 6.729-1.092 9.489.049 2.58 1.065 4.771 2.59 6.358 4.865 1.493 2.138 2.925 4.911 3.083 8.092.15 3.024-.51 5.587-1.396 7.516-.923 2.003-2.522 3.483-4.095 4.816-1.627 1.38-3.615 2.347-6.166 2.746-2.507.393-5.569.144-8.719.145-11.416.003-23.463.157-34.925-.047.141-.715.729-1.242 1.156-1.782 2.116-2.679 4.189-5.482 6.358-8.188 2.575-3.214 5.127-6.514 7.659-9.827 4.177-5.464 8.553-10.826 12.765-16.33.843-1.101 1.617-2.23 2.457-3.323 3.375-4.393 6.724-8.777 10.164-13.102.064-.018.077-.086.145-.098zm-1.734 34.057c-1.486.894-3.035 3.081-2.264 5.588.742 2.413 3.933 4.648 6.792 2.842 1.136-.717 2.456-2.239 2.36-4.383-.079-1.771-1.226-3.395-2.457-4.095-.639-.363-1.725-.642-2.697-.529-.71.08-1.295.313-1.734.577z" fill-rule="evenodd"/></svg>