<svg enable-background="new 0 0 75.974 76.691" viewBox="0 0 75.974 76.691" xmlns="http://www.w3.org/2000/svg"><path clip-rule="evenodd" d="m75.863 35.238c-1.918.194-4.612.109-6.452.051-.412-.746-.305-1.599-.453-2.369-.437-2.262-1.043-4.47-1.865-6.452-3.219-7.761-8.958-13.373-16.381-16.934-4.602-2.209-12.512-3.498-18.951-2.067-6.08 1.35-10.943 3.888-14.817 7.358-2.454 2.325-4.756 5.063-6.502 8.316-1.646 3.064-3.016 7.108-3.528 11.29-.603 4.915.142 9.484 1.209 13.307.264.942.716 1.813 1.009 2.722.873 2.707 2.427 4.973 3.981 7.056 3.218 4.162 7.248 7.465 12.5 9.727 2.429 1.047 5.397 2.09 8.669 2.42 3.229.325 6.936.402 10.232-.354 8.749-2.006 15.466-6.888 19.758-13.507 1.46-2.252 2.851-4.698 3.528-7.56-.275-.349-.839-.28-1.311-.303-1.505-.07-3.164.029-4.587.051-.533.524-.736 1.265-1.059 1.915-.96 1.94-2.158 3.791-3.528 5.394-3.107 3.354-6.83 6.016-11.693 7.61-2.5.82-5.595 1.251-8.518 1.108-2.903-.142-5.642-.804-7.963-1.663-4.51-1.669-8.343-4.573-11.14-8.165-2.848-3.657-4.89-8.174-5.393-13.86-.417-4.718.775-8.952 2.116-12.298.451-1.124.988-2.242 1.613-3.176 3.974-5.934 8.969-10.164 17.137-11.744 2.752-.532 5.893-.523 8.82 0 5.433.97 9.534 3.25 12.803 6.452 2.019 1.862 3.906 4.018 5.241 6.603 1.322 2.559 2.541 5.481 2.772 8.972-.706.35-1.548.201-2.318.201-4.938.001-9.879-.05-14.919-.05-.859 0-1.81.143-2.47 0-.45-.098-.577-.494-.907-.857-1.184-1.299-3.348-2.365-5.897-1.814-3.297.712-5.706 4.982-3.83 8.517 1.521 2.87 5.743 4.517 9.072 2.017.299-.292.557-.535.856-.907.218-.271.503-.771.857-.857.466-.112 1.184 0 1.765 0 1.128 0 2.222.001 3.377 0 .536 0 1.126-.106 1.562.151.059 1.543-.766 2.747-1.411 3.78-1.931 3.088-5.182 5.614-9.829 5.947-3.419.245-6.152-.939-8.215-2.318-1.935-1.292-3.791-3.577-4.587-5.947-.478-1.423-.857-2.754-.857-4.436 0-4.991 2.315-8.322 5.241-10.533 2.039-1.541 4.537-2.604 8.014-2.521 1.632.039 3.107.503 4.285 1.008.571.245 1.205.52 1.764.857.515.311 1.103.997 1.764 1.108 1.122.189 2.47 0 3.68 0 1.221 0 2.426.082 3.528-.101.077-.472-.305-.871-.555-1.21-1.811-2.457-4.036-4.464-6.955-5.896-3.293-1.617-8.06-2.259-12.399-1.31-3.753.819-7.034 2.98-9.324 5.392-2.394 2.523-4.173 5.858-4.889 9.828-.825 4.573.235 9.03 1.966 12.147 1.821 3.283 4.266 5.705 7.258 7.459 1.455.854 3.391 1.626 5.342 2.017 1.598.319 3.201.43 4.939.403 2.79-.043 5.275-.904 7.359-1.814 1.631-.713 3.063-1.803 4.284-3.024 2.973-2.622 4.957-6.232 5.947-10.837 6.135-.277 12.819-.133 19.254 0 .205 1.022-.01 2.081-.151 3.075-.997 6.981-3.924 12.611-7.359 17.187-2.92 3.894-6.736 7.229-11.239 9.829-4.458 2.573-9.663 4.636-16.078 4.989-14.07.775-23.235-4.747-30.342-11.542-3.115-3.68-6.241-7.846-8.115-12.953-.621-1.693-1.278-3.497-1.663-5.343-.819-3.933-1.175-8.499-.706-12.953.209-1.98.731-3.97 1.21-5.796.492-1.88 1.088-3.648 1.865-5.142 1.434-3.748 3.687-6.898 6.048-9.778.264-.321.474-.709.756-1.008 3.955-4.184 8.791-7.482 14.768-9.728 2.604-.978 5.323-1.611 8.468-2.066 6.786-.982 14.145.502 19.053 2.621 8.816 3.807 15.151 9.708 19.505 17.893 1.879 3.532 3.275 7.654 3.932 12.449.085.628.286 1.323.049 1.966z" fill-rule="evenodd"/></svg>