<svg enable-background="new 0 0 31.701 35.622" viewBox="0 0 31.701 35.622" xmlns="http://www.w3.org/2000/svg"><path d="m15.087.006c2.596-.058 5.232.283 7.666 1.221 1.414.562 2.753 1.34 3.869 2.38 1.594 1.41 2.787 3.239 3.566 5.212 1.154 2.937 1.537 6.125 1.511 9.262.001 2.376-.236 4.769-.889 7.062-.581 2.006-1.488 3.941-2.833 5.549-1.697 2.066-4.071 3.524-6.64 4.234-1.488.437-3.04.623-4.585.681-.915-.017-1.83.053-2.742-.019-2.63-.154-5.271-.859-7.498-2.294-2.164-1.39-3.803-3.505-4.806-5.858-1.035-2.371-1.489-4.96-1.638-7.531-.079-1.243-.089-2.495-.018-3.739.175-3.379.922-6.815 2.733-9.714.525-.836 1.148-1.608 1.843-2.307 1.312-1.372 2.969-2.389 4.744-3.047 1.828-.685 3.777-.969 5.717-1.092zm1.191.101c-2.509-.01-5.058.331-7.388 1.302-2.962 1.185-5.366 3.571-6.751 6.426-1.456 2.966-1.98 6.308-2.015 9.584-.032.386-.027.777.004 1.163.026 1.999.249 4.003.719 5.95.618 2.472 1.71 4.885 3.471 6.754.27.351.637.602.936.925 1.8 1.566 4.066 2.516 6.392 2.974 1.63.33 3.302.379 4.958.319 3.447-.077 7.019-1.008 9.69-3.279 1.739-1.432 3.022-3.365 3.839-5.454.947-2.38 1.33-4.949 1.437-7.496.085-2.862-.089-5.759-.855-8.529-.691-2.528-1.934-4.954-3.85-6.772-1.078-1.033-2.334-1.886-3.717-2.459-2.164-.928-4.527-1.324-6.87-1.408z"/><path d="m14.948.54c1.932-.074 3.869.134 5.751.582 1.957.521 3.871 1.363 5.391 2.725 2.368 1.988 3.815 4.885 4.48 7.867.517 2.089.656 4.25.657 6.394.009.854-.042 1.703-.11 2.556-.27 3.346-1.212 6.752-3.318 9.423-.481.596-.996 1.172-1.591 1.657-1.526 1.372-3.433 2.262-5.404 2.786-1.947.501-3.971.639-5.973.58-2.071-.038-4.147-.427-6.064-1.226-1.462-.629-2.85-1.489-3.941-2.658-1.421-1.417-2.432-3.206-3.1-5.088-.815-2.23-1.126-4.613-1.221-6.972-.051-1.323-.032-2.651.085-3.969.243-2.76.915-5.526 2.3-7.944 1.326-2.312 3.365-4.23 5.814-5.304 1.956-.901 4.115-1.254 6.244-1.409zm.217.095c-1.465.088-2.946.239-4.36.659-1.947.511-3.773 1.482-5.276 2.821-.164.121-.277.293-.42.435-1.286 1.22-2.249 2.75-2.94 4.374-.978 2.297-1.42 4.794-1.552 7.276-.061 1.496-.057 2.999.075 4.49.279 3.233 1.127 6.526 3.086 9.167.466.668 1.051 1.236 1.614 1.818 1.55 1.355 3.438 2.299 5.433 2.793 2.054.566 4.212.619 6.325.509 3.077-.148 6.208-1.041 8.642-2.988.961-.787 1.812-1.708 2.505-2.739 1.404-2.077 2.167-4.524 2.546-6.986.277-1.851.328-3.724.277-5.592-.119-2.921-.606-5.889-1.886-8.545-1.127-2.394-3.007-4.451-5.353-5.692-1.736-.923-3.669-1.427-5.613-1.662-1.031-.11-2.067-.189-3.103-.138z"/><path d="m15.386 1.545c.568.013 1.136.036 1.705.025.001.109 0 .218-.001.327-.117-.296-.482-.166-.726-.17.012.54-.009 1.077-.029 1.616-.025.142.084.241.194.305-.213.007-.425.01-.638-.001.093-.062.181-.146.177-.267.022-.564.005-1.129.005-1.694-.249.013-.593-.08-.719.207.004-.117.018-.232.032-.348z"/><path d="m14.09 1.717c.243-.186.581-.156.862-.087.012.123.028.246.033.37-.141-.401-.801-.38-.85.064.027.351.45.406.692.568.38.165.395.733.096.982-.227.196-.559.206-.839.147-.169-.035-.117-.253-.134-.379.2.378.872.33.928-.121.057-.376-.363-.507-.631-.633-.358-.131-.463-.675-.157-.911z"/><path d="m17.532 1.6c.201.026.402.051.602.081-.323.157-.195.602-.28.893.383.038.764.102 1.144.167-.046-.312.194-.667-.037-.931.203.02.406.054.604.106-.088.026-.199.054-.215.161-.109.536-.178 1.079-.247 1.621-.031.122.064.206.148.275-.192-.015-.382-.05-.57-.089.064-.038.15-.069.163-.154.067-.28.066-.572.139-.852-.384-.043-.765-.108-1.146-.17-.061.262-.082.532-.125.797-.021.105.069.18.129.254-.199-.014-.397-.044-.589-.098.296-.097.204-.457.272-.693.051-.424.164-.846.146-1.274-.047-.03-.093-.062-.138-.094z"/><path d="m20.856 1.719c.105-.114.334-.088.325.095.007.18-.208.198-.323.113-.001-.069-.002-.138-.002-.208z"/><path d="m12.889 1.822c.151-.032.301-.075.454-.098-.179.174-.052.417-.019.622.09.505.229 1.003.307 1.508-.66-.46-1.301-.948-1.933-1.445.074.498.197.988.293 1.482.01.105.098.17.174.231-.141.036-.281.074-.425.097.047-.076.132-.152.101-.25-.111-.531-.243-1.059-.341-1.593-.009-.117-.106-.174-.211-.193.173-.037.384-.157.536-.008.5.401 1.017.78 1.536 1.154-.069-.429-.167-.853-.261-1.278-.013-.117-.111-.185-.211-.229z"/><path d="m21.39 2.014c.022-.213.288-.213.364-.032-.008.212-.35.257-.364.032z"/><path d="m20.748 2.263c.507-.049 1.005.301 1.137.79.173.595-.222 1.332-.855 1.428-.476.069-1.003-.164-1.238-.59-.363-.677.17-1.643.956-1.628zm.084.155c-.568-.005-.934.619-.866 1.137.017.477.511.875.979.765.621-.18.864-1.001.573-1.541-.149-.218-.419-.364-.686-.361z"/><path d="m9.977 2.638c.683-.12 1.294.548 1.235 1.209-.015.769-.977 1.255-1.638.921-.486-.27-.752-.912-.523-1.435.154-.376.526-.642.926-.695zm.053.179c-.284-.003-.589.146-.711.412-.287.519.051 1.225.586 1.422.41.175.934-.102 1.03-.535.135-.562-.276-1.313-.905-1.299z"/><path d="m22.198 4.714c-.274-.637.25-1.417.92-1.489.553-.052 1.069.289 1.377.728-.071.094-.146.185-.228.27.043-.463-.431-.763-.835-.818-.519-.06-.941.408-1.028.884-.086.477.313.967.788 1.003.185-.094.315-.358.186-.55.171.121.34.245.512.365-.267-.043-.361.247-.492.418-.482-.09-1.007-.328-1.2-.811z"/><path d="m7.742 3.825c.146-.132.314-.235.483-.333-.175.429-.195.901-.326 1.345.543.088 1.077.265 1.629.283-.189.213-.497.236-.756.156-.34-.062-.679-.133-1.022-.18.176.26.328.552.565.761.053-.011.106-.021.16-.03-.146.147-.327.251-.5.363.02-.095.065-.203-.007-.287-.315-.443-.614-.896-.929-1.337-.055-.092-.168-.071-.257-.073.154-.138.325-.252.5-.36-.023.057-.047.114-.071.171.159.233.293.487.482.699.093-.368.167-.741.248-1.112-.022-.02-.044-.041-.065-.061-.045-.002-.09-.003-.134-.005z"/><path d="m15.645 4.393c2.639-.064 5.375.594 7.498 2.217 1.094.855 2 1.945 2.653 3.171.214.523.498 1.018.674 1.557.832 2.264 1.072 4.701 1.033 7.098-.041 2.155-.343 4.341-1.182 6.343-.172.377-.354.75-.527 1.126-.945 1.737-2.406 3.198-4.177 4.088-1.776.934-3.805 1.301-5.797 1.303-1.166.031-2.343-.051-3.485-.31-1.207-.323-2.395-.78-3.423-1.501-1.705-1.153-2.964-2.904-3.656-4.83-.492-1.363-.792-2.789-.93-4.232-.225-2.428-.163-4.901.371-7.289.327-1.294.717-2.593 1.435-3.73 1.117-1.956 2.961-3.479 5.088-4.22 1.412-.53 2.924-.76 4.425-.791zm-.347.109c-1.169.072-2.346.229-3.462.597-1.629.475-3.146 1.373-4.303 2.62-1.064 1.128-1.856 2.514-2.312 3.994-.802 2.375-.961 4.911-.869 7.399.06 1.279.196 2.565.512 3.81.352 1.588.991 3.128 1.98 4.428 1.21 1.615 2.97 2.796 4.91 3.343 1.245.417 2.577.499 3.88.511 1.942-.023 3.923-.318 5.68-1.19 1.981-.938 3.633-2.571 4.571-4.554 1.373-2.766 1.616-5.932 1.469-8.97-.123-2.372-.64-4.76-1.775-6.861-1.047-1.909-2.776-3.417-4.792-4.232-1.74-.689-3.626-.976-5.489-.895z"/><path d="m24.711 5.047c.004-.284.272-.535.556-.506.321.013.565.298.655.587-.06.092-.133.176-.218.246.157-.336-.221-.799-.568-.594-.312.205-.07.59-.017.865.127.344-.13.737-.486.788-.365.063-.679-.236-.829-.539-.084-.159.12-.247.209-.344-.072.198-.034.423.136.557.199.243.624.123.705-.167.058-.31-.146-.588-.143-.893z"/><path d="m15.271 4.978c1.274-.039 2.559.031 3.798.348 1.568.372 3.062 1.102 4.266 2.18 1.088.98 1.928 2.221 2.493 3.569.111.407.298.789.41 1.195.424 1.273.582 2.614.718 3.943.144 2.259.034 4.558-.553 6.755-.241.768-.479 1.544-.855 2.257-1.028 2.112-2.862 3.822-5.06 4.659-1.107.471-2.303.695-3.497.798-1.117.064-2.245.093-3.358-.054-1.211-.125-2.39-.507-3.469-1.063-1.459-.729-2.675-1.899-3.533-3.279-.676-1.141-1.207-2.385-1.447-3.693-.283-1.271-.421-2.574-.473-3.872-.044-1.794.063-3.598.456-5.353.444-2.187 1.492-4.303 3.162-5.812 1.873-1.717 4.445-2.471 6.942-2.578zm.403 1.515c-.081.002-.162.005-.243.007-.001.069-.001.139-.001.209.082.004.164.01.246.016.001.081.001.162.001.243-.143.082-.293.207-.277.39-.038.252.22.449.453.439.209-.045.405-.238.373-.466.001-.175-.157-.281-.29-.363-.001-.085 0-.169.001-.254.092-.002.184-.003.276-.004-.001-.073-.001-.146-.002-.218-.089.002-.177.006-.266-.001-.041-.089-.006-.192-.008-.286-.221-.063-.302.087-.263.288zm-.67.774c-.13.023-.109.172-.106.27.102.045.206.02.283-.058-.011-.097-.055-.23-.177-.212zm1.461.056c-.057.277.36.28.307.002-.089-.081-.217-.085-.307-.002zm1.06-.07c-.032.068-.056.139-.073.213.117.175.348.066.303-.134-.067-.053-.147-.077-.23-.079zm-3.556.063c-.174.136.075.372.22.221.043-.138-.065-.332-.22-.221zm4.059.215c.005.167.241.271.307.083.053-.198-.226-.242-.307-.083zm-4.694-.024c.001.069.002.139.002.209.095.037.238.059.275-.067.051-.162-.169-.241-.277-.142zm3.563.129c-.001.064-.001.127-.001.192.224.17.402-.192.125-.26-.041.023-.082.045-.124.068zm-2.349.285c.167.013.28-.171.153-.296-.194-.053-.302.171-.153.296zm4.102-.237c-.182.073-.075.35.111.27.199-.053.053-.349-.111-.27zm-5.832.102c-.091.306.386.274.283-.018-.093-.063-.201-.064-.283.018zm1.652 1.531c.046-.007.093-.013.14-.02-.011-.541.127-1.206.651-1.477-.02-.04-.04-.08-.06-.12-.595.287-.718 1.023-.731 1.617zm1.852-1.515c.531.286.632.948.684 1.492.037-.005.074-.009.111-.013-.013-.592-.163-1.303-.743-1.594-.017.038-.035.076-.052.115zm1.211-.064c0 .04.001.081.002.122.744.071 1.374.727 1.463 1.462.032-.002.064-.003.097-.004-.048-.805-.751-1.539-1.562-1.58zm-5.057 1.632c.037-.001.075-.001.112-.001.08-.734.705-1.387 1.439-1.483-.001-.042-.002-.083-.002-.124-.803.069-1.512.803-1.549 1.608zm4.689-1.067c.11.051.225.028.296-.073-.002-.029-.003-.057-.004-.086-.04-.038-.08-.076-.12-.113-.159-.001-.209.138-.172.272zm1.836-.246c-.033.092-.034.189 0 .28.077.001.152-.017.221-.053.024-.143-.071-.264-.221-.227zm-4.765.275c.13.107.291-.035.245-.186-.042-.029-.084-.058-.126-.087-.121.028-.238.165-.119.273zm1.627.026c.162-.066.1-.258-.039-.309-.224.015-.179.37.039.309zm-3.383-.241c-.16.082-.034.338.13.259.182-.068.04-.378-.13-.259zm2.864.009c-.104.36-.13.761-.014 1.12.033-.024.067-.048.101-.072-.041-.332-.071-.682.034-1.005-.041-.014-.081-.029-.121-.043zm.748.02c.117.333.148.694.052 1.036.045.014.092.029.138.043.053-.358.071-.737-.041-1.086-.05.003-.099.005-.149.007zm1.237.376c-.125.15.034.315.203.264.151-.149-.023-.383-.203-.264zm1.893.252c.14.13.307-.038.259-.197-.139-.161-.394.022-.259.197zm-5.036.057c.146.029.183-.135.166-.247-.065-.04-.138-.063-.213-.073-.083.096-.12.292.047.32zm1.565-.287c-.168.055-.089.322.079.289.2-.025.111-.377-.079-.289zm-3.549.279c.109.103.242.002.292-.109-.046-.086-.121-.149-.212-.184-.09.068-.176.19-.08.293zm5.278.466c.206.015.209-.26.046-.334-.186.027-.243.277-.046.334zm-1.841-.148c.044.263.38.183.311-.073-.111-.094-.246-.045-.311.073zm3.762-.081c-.148.262.288.365.277.066-.052-.038-.105-.076-.157-.114-.04.016-.08.032-.12.048zm-5.41.05c-.042.19.248.3.298.096.049-.188-.206-.23-.298-.096zm-1.968.015c-.073.246.256.335.281.065-.066-.103-.177-.147-.281-.065zm3.434.794c-.208.072-.36.292-.256.509.098.223.372.23.561.127-.019.371-.568.493-.747.164-.18.333-.715.242-.759-.141.147.056.326.109.457-.015.246-.192.099-.605-.206-.629.036-.2-.089-.43-.309-.432-.246-.034-.422.228-.385.453-.155.063-.329.184-.296.377.022.284.383.411.594.229 0 .386-.561.527-.747.186-.152.254-.584.303-.7-.005.179-.101.368-.305.274-.525-.064-.187-.268-.263-.451-.239-.005-.269-.288-.489-.544-.373.476.399.666 1.043.64 1.648 2.161-.032 4.322-.059 6.484-.045.007-.596.142-1.277.665-1.637-.254-.127-.575.075-.582.357-.222-.02-.448.132-.465.363.038.175.155.325.312.411-.144.264-.553.251-.696-.007-.168.317-.721.242-.745-.138.181.087.418.093.539-.095.154-.229-.043-.523-.297-.544.06-.239-.138-.494-.392-.44-.23.008-.291.26-.295.447-.289.06-.373.449-.144.627.134.128.31.04.448-.028-.032.396-.558.524-.766.184-.19.329-.73.221-.752-.167.187.117.466.11.564-.118.131-.239-.075-.501-.326-.507.054-.172-.031-.373-.212-.422-.257-.102-.492.183-.466.425zm-.062 1.693c.009.165.175.264.305.142.078-.216-.197-.358-.305-.142zm.628.174c.072.057.149-.014.218-.042 0-.094.007-.223-.112-.246-.164-.052-.264.226-.106.288zm.469-.243c-.019.13.013.255.157.284.069-.059.122-.135.134-.228-.078-.093-.185-.133-.291-.056zm.63.288c.206-.016.246-.318.024-.337-.174.042-.159.25-.024.337zm.543-.336c-.183.056-.128.264.014.336.197-.038.204-.344-.014-.336zm.555.002c-.191.014-.183.29-.004.318.199.013.201-.327.004-.318zm.486-.013c-.149.093-.127.327.067.329.213-.039.134-.347-.067-.329zm-4.762.04c-.182.036-.147.328.039.314.193-.021.152-.345-.039-.314zm.421.045c.002.073.003.146.005.218.106.062.282.034.273-.118 0-.151-.177-.186-.278-.1zm.535.192c.14.154.385-.054.234-.204-.142-.131-.288.057-.234.204zm-2.073.091c.183.047.318-.213.13-.299-.187-.069-.273.193-.13.299zm.582-.009c.212.03.206-.302.016-.334-.156.053-.204.293-.016.334zm-.849.332c-.013.084-.025.168-.034.253 2.197-.033 4.395-.06 6.593-.049-.014-.083-.036-.164-.062-.243-2.166-.015-4.332-.002-6.497.039zm8.154 2.232c-.98 1.373-1.922 2.772-2.913 4.136-.044-1.443-.014-2.891-.026-4.335.222-.002.443-.005.665-.002-.001-.097-.003-.194-.01-.29-.758-.002-1.515-.005-2.272-.003-.003.092-.002.185.001.278.135.011.29-.037.411.036.008 1.387.014 2.776.006 4.164-.477-.014-.955.02-1.431-.001.001-1.391-.006-2.783-.006-4.174.135-.012.271-.006.407-.02-.001-.093-.002-.187-.003-.28-.761-.001-1.521.033-2.282.032-.001.096 0 .193.009.289.218-.01.437-.001.655-.005.032 1.447.018 2.896.015 4.344-.65-.885-1.322-1.76-1.92-2.68-.427-.569-.794-1.183-1.253-1.727-.308-.318-.728-.541-1.17-.589-.649-.047-1.259.572-1.186 1.222.021.361.294.705.649.784.508.102.981-.549.698-.992-.169-.381-.695-.427-1.013-.211.048-.346.407-.581.744-.552.576-.02 1.055.384 1.375.826.381.549.764 1.096 1.159 1.635.383.652.881 1.232 1.289 1.866-1.052 1.282-2.142 2.535-3.222 3.796-.374.414-.709.877-1.178 1.19-.516.338-1.266.268-1.692-.186-.351-.413-.444-.98-.427-1.506-.06 0-.119 0-.179.001-.038.439.065.884.241 1.285.457 1.041 1.827 1.458 2.832.996.525-.237.918-.679 1.292-1.103 1.017-1.105 1.935-2.297 2.963-3.393-.004 1.474.039 2.948.009 4.42-.216.005-.432-.002-.648.012-.005.093-.009.186-.009.279.76.003 1.519-.024 2.279-.033 0-.095-.001-.189-.002-.283-.136.006-.271.017-.407.008.008-1.487-.03-2.972-.011-4.459.474-.034.95-.012 1.425-.022.002 1.491.041 2.982.01 4.472-.135-.003-.27-.005-.405.001.001.094.001.188.002.282.762-.005 1.524.01 2.285-.003-.002-.092-.003-.184-.006-.276-.219-.005-.438-.001-.657-.003-.005-1.474-.02-2.95-.007-4.423 1.231 1.335 2.345 2.775 3.634 4.057.759.738 2.048.789 2.874.137.624-.466.857-1.289.831-2.038-.062.005-.123.01-.184.016.007.516-.068 1.077-.408 1.488-.433.488-1.225.549-1.754.185-.424-.298-.746-.712-1.092-1.091-1.09-1.286-2.223-2.534-3.297-3.833.287-.415.566-.832.847-1.25.601-.806 1.129-1.664 1.745-2.459.322-.432.862-.714 1.407-.634.264.048.495.255.557.518-.192-.066-.395-.145-.6-.088-.374.069-.625.538-.441.878.1.255.36.439.635.442.38-.038.688-.374.732-.747.089-.599-.403-1.204-1.005-1.253-.633-.044-1.232.353-1.567.869zm-4.4 11.486c-.209.09-.32.299-.385.505.032.001.064.003.097.006.133-.264.525-.392.755-.184.206.251.005.644-.272.747-.079.046-.227.05-.226.167.143.054.312.003.445.096.25.11.4.42.298.679-.131.389-.647.545-.999.368-.076-.036-.26-.13-.219.031.395.344 1.085.332 1.414-.1.341-.395.177-1.079-.315-1.264.192-.152.342-.387.304-.642-.042-.398-.569-.623-.897-.409zm1.893.018c-.055.356-.144.706-.202 1.062.276.048.563.092.799.256.387.239.354.978-.13 1.08-.248.121-.517.023-.746-.091-.019.029-.037.059-.056.09.417.385 1.204.33 1.461-.217.208-.384.044-.897-.319-1.126-.209-.168-.488-.176-.728-.267.02-.17.062-.336.076-.507.337-.01.674.004 1.011-.005-.001-.092-.002-.184-.003-.275-.387.015-.776-.011-1.163 0zm-4.422.06c-.004.187-.004.374 0 .561l.072-.006c.043-.081.064-.22.182-.213.378-.042.759-.022 1.138-.025-.388.761-.773 1.525-1.168 2.283.118.01.265.01.311-.124.397-.823.842-1.622 1.253-2.438-.008-.016-.023-.049-.031-.065-.587-.005-1.172.029-1.757.027zm-1.439.426c.005.02.01.042.015.063.059-.016.118-.032.178-.047.031.056.071.113.069.181 0 .578.01 1.156.002 1.734.007.108-.092.156-.177.188-.005.024-.009.048-.014.073.242.001.483-.006.725-.009.002-.022.005-.044.008-.065-.067-.026-.133-.054-.197-.085.011-.818-.023-1.634-.018-2.452-.239.063-.394.281-.591.419z"/><path d="m26.397 5.691c.146.15.273.316.394.487-.08-.025-.175-.093-.248-.018-.203.163-.421.308-.609.491.397.028.784.155 1.183.138.01-.06.02-.12.03-.179.113.151.241.291.342.451-.444-.121-.91-.155-1.367-.209-.036.548-.164 1.091-.15 1.64-.139-.152-.254-.363-.204-.575.054-.402.093-.806.097-1.211-.196.19-.433.331-.627.522-.08.068-.035.181-.034.271-.135-.171-.296-.323-.409-.51.059.02.118.043.177.065.494-.333.935-.741 1.399-1.116.084-.061.042-.166.026-.247z"/><path d="m4.212 7.156c.145-.17.265-.361.418-.526-.089.206.116.331.257.435.399.268.713.69 1.172.85.169-.187.323-.388.464-.597.063-.086.001-.189-.022-.278.092.068.185.134.278.201-.317.4-.603.826-.95 1.201.111-.333-.306-.464-.497-.653-.266-.223-.525-.459-.818-.648-.092-.074-.207-.017-.302.015z"/><path d="m6.947 6.98c-.166-.182.086-.413.249-.224.026.157-.105.241-.249.224z"/><path d="m3.423 9.359c-.256-.577.032-1.248.478-1.64.123.027.231.098.328.176-.484-.027-.728.545-.722.955.023.768 1.155 1.204 1.658.599.143-.177.208-.415.22-.64-.161-.13-.385-.266-.559-.074.095-.192.189-.384.299-.568-.006.265.29.306.437.453.038.375-.143.737-.341 1.044-.234.253-.604.432-.951.337-.36-.07-.667-.328-.847-.642z"/><path d="m27.245 7.82c.637-.09 1.252.471 1.258 1.108.028.756-.858 1.365-1.554 1.06-.395-.168-.637-.595-.702-1.006-.061-.575.443-1.095.998-1.162zm.08.247c-.449.071-.852.452-.883.916-.03.399.287.785.685.83.526.048 1.085-.329 1.181-.859.076-.53-.459-1.019-.983-.887z"/><path d="m2.613 10.315c.048-.173.09-.348.166-.511.015.102.037.223.152.254.578.214 1.174.376 1.75.597.004.021.008.043.012.065-.738.289-1.459.619-2.188.928.471.199.966.338 1.451.5.108.053.198-.032.268-.104-.038.181-.078.372-.193.521-.007-.061-.01-.122-.013-.183-.557-.284-1.19-.389-1.768-.63-.056.046-.112.092-.17.137.057-.18.076-.44.301-.486.577-.263 1.173-.484 1.744-.758-.396-.177-.818-.284-1.225-.433-.112-.058-.211.024-.287.103z"/><path d="m28.971 9.903c.1.201.168.417.234.632-.084-.081-.184-.173-.307-.107-.475.189-.975.308-1.447.502-.15.067-.079.26-.04.378.09.218.099.545.38.601-.097.034-.194.069-.291.102-.178-.471-.321-.955-.482-1.433.078.056.162.15.268.108.419-.114.816-.296 1.232-.421.185-.073.479-.096.453-.362z"/><path d="m27.68 12.685c-.05-.174-.091-.35-.123-.528.222.242.574.223.869.299.478.114.963.202 1.438.325-.425.337-.895.61-1.325.94-.195.155-.468.25-.541.513-.059-.217-.112-.436-.141-.658.039.047.077.094.115.143.241-.039.404-.252.613-.365-.058-.243-.087-.492-.147-.735-.246.011-.665-.288-.758.066zm.921-.004c.038.196.075.391.114.586.188-.151.453-.244.587-.44-.208-.09-.468-.115-.701-.146z"/><path d="m1.89 12.822c.015-.179.044-.357.108-.525.029.065.034.151.093.197.479.154.998.163 1.47.34.464.225.428.862.194 1.244-.146.284-.505.388-.801.312-.372-.046-.73-.172-1.102-.213-.114-.026-.189.067-.26.138.026-.203.065-.404.12-.601.056.096.131.194.251.206.407.073.811.166 1.22.226.437.008.69-.498.556-.878-.07-.267-.37-.359-.612-.396-.377-.054-.745-.181-1.127-.187-.037.047-.074.092-.11.137z"/><path d="m30.075 14.184c.023.168.145.389-.016.521-.44.501-.915.971-1.347 1.478.44-.036.879-.083 1.318-.123.115-.005.164-.121.222-.202.02.173.042.346.039.521-.051-.065-.093-.155-.183-.17-.651.049-1.301.151-1.954.157.535-.602 1.116-1.165 1.627-1.785-.503.024-1.006.083-1.508.134-.124-.007-.161.128-.218.212-.01-.172-.04-.343-.042-.515.075.061.148.165.259.135.54-.067 1.085-.092 1.624-.164.112-.001.152-.108.179-.199z"/><path d="m1.489 15.226c.002-.188.03-.374.06-.559.222.416.535.775.829 1.141.398-.355.851-.654 1.218-1.04.014-.003.043-.008.058-.011-.033.16-.04.344-.165.465-.331.299-.693.563-1.021.866.263.044.527.077.793.094.128.02.182-.118.257-.193-.002.22-.05.437-.072.656-.052-.078-.099-.19-.209-.193-.542-.047-1.084-.106-1.625-.165-.114-.021-.172.097-.245.161.006-.204.042-.404.059-.607.033.051.065.102.097.154.282.051.569.073.855.084-.227-.283-.442-.576-.668-.86-.055-.089-.152-.022-.221.007z"/><path d="m29.159 18.282c.279-.089.588.18.502.469-.056.31-.514.41-.698.158-.169-.201-.075-.575.196-.627z"/><path d="m2.259 18.387c.251-.074.533.139.489.407.01.311-.413.483-.635.276-.247-.177-.162-.631.146-.683z"/><path d="m28.297 20.375c.105.01.208.029.311.049-.052.027-.105.053-.157.079-.051.197-.093.4-.09.605.552.102 1.111.175 1.668.25.118.031.184-.082.256-.153-.007.218-.06.432-.088.648-.103-.295-.442-.226-.68-.303-.407-.047-.81-.122-1.217-.163-.01.244-.187.566.074.734-.113-.009-.226-.024-.338-.038.084-.571.179-1.139.261-1.708z"/><path d="m3.515 21.037c.138.344.176.733.211 1.102-.023.483-.714.573-.95.192-.326.264-.713.482-.944.843-.047-.151-.075-.339.049-.462.237-.228.525-.4.749-.642-.007-.131-.052-.256-.08-.384-.308.14-.816-.008-.939.393-.059-.208-.074-.424-.124-.634.095.107.236.135.371.103.505-.107 1.015-.191 1.52-.297.107-.01.106-.135.137-.214zm-.807.622c.038.203.049.444.231.577.185.191.508.035.596-.181.039-.18-.026-.36-.06-.535-.26.014-.512.093-.767.139z"/><path d="m27.813 23.051c.053-.205.188-.409.412-.447.296-.052.56.187.601.474.408-.115.854-.149 1.22-.376 0 .168-.084.354-.257.403-.309.101-.631.156-.941.25-.03.125-.062.249-.09.374.243.077.494.126.741.186.121.04.204-.067.282-.139-.039.215-.097.426-.152.637-.025-.106-.079-.212-.199-.226-.57-.133-1.129-.339-1.713-.398-.034.039-.067.078-.101.117.038-.291.123-.573.197-.855zm.277-.098c-.181.124-.181.369-.235.561.251.064.5.134.754.181.054-.203.125-.431.031-.634-.108-.176-.383-.239-.55-.108z"/><path d="m3.192 23.23c.614-.059 1.165.502 1.157 1.103.053.841-1.092 1.393-1.748.902-.487-.336-.685-1.122-.266-1.588.195-.271.528-.415.857-.417zm.081.237c-.409.04-.851.279-.956.704-.129.408.148.888.573.962.527.095 1.186-.197 1.285-.767.041-.489-.406-.95-.902-.899z"/><path d="m28.752 25.028c.232-.041.491.035.697-.108-.049.202-.139.39-.222.58-.013-.064-.026-.129-.04-.192-.225-.047-.456-.022-.684-.028-.11.229-.188.47-.291.702.219.129.367.561.664.377-.057.159-.118.317-.201.464-.063-.322-.38-.484-.575-.72-.309-.372-.703-.665-.988-1.057.548-.021 1.095.005 1.64-.018zm-1.161.284c.16.187.341.354.5.542.08-.19.17-.376.237-.571-.245-.004-.49.031-.737.029z"/><path d="m4.566 25.091c.109.19.184.397.284.591-.078-.035-.188-.111-.256-.016-.18.236-.31.507-.502.735.278.081.572.094.858.131.109.025.174-.068.207-.157.082.134.117.287.159.436-.118-.119-.292-.095-.443-.121-.321-.027-.638-.133-.962-.104-.236.085-.47.185-.689.309-.004.065-.008.13-.013.195-.117-.166-.188-.359-.267-.544.102.071.235.095.345.025.239-.138.572-.171.694-.453.185-.348.506-.632.585-1.027z"/><path d="m26.477 26.969c.091.051.172.118.245.193-.323-.026-.44.346-.609.556.194.151.393.297.602.426.108-.231.455-.409.314-.697.145.089.288.183.409.304-.319-.101-.431.309-.604.496.205.163.428.299.639.454.09.076.209.026.308 0-.108.182-.24.348-.373.513.054-.261-.224-.381-.396-.508-.384-.235-.718-.546-1.107-.772-.047.023-.094.047-.141.071.182-.38.469-.696.713-1.036z"/><path d="m4.519 27.748c.452-.059.902-.132 1.354-.191-.217.38-.512.707-.716 1.094-.173.29-.447.533-.518.872-.123-.148-.216-.317-.32-.477.322.147.39-.34.591-.498-.149-.205-.267-.431-.417-.635-.216.066-.453.042-.659.143-.003.061-.006.121-.011.183-.126-.129-.213-.286-.307-.438.321.142.675-.017 1.003-.053zm.151.152c.1.176.23.333.324.514.151-.192.274-.404.395-.616-.241.027-.479.07-.719.102z"/><path d="m6.494 28.559c.145.158.338.279.441.471-.113-.044-.246-.043-.328.058-.373.362-.792.688-1.122 1.088.036.285.35.459.529.67.079-.003.159-.008.238-.011-.074.087-.162.16-.259.22-.335-.366-.691-.709-.998-1.1.06.019.119.043.182.052.366-.24.63-.599.971-.871.148-.172.427-.307.346-.577z"/><path d="m25.356 28.58c.404-.077.821.099 1.075.417.316.33.33.872.087 1.247-.166.236-.407.408-.668.526-.657.208-1.396-.381-1.378-1.06-.025-.525.374-1.024.884-1.13zm-.05.213c-.332.064-.595.378-.641.707-.041.59.524 1.12 1.107 1.076.487-.052.852-.608.656-1.07-.191-.42-.632-.812-1.122-.713z"/><path d="m8.477 30.277c.202.082.371.223.545.351-.08.002-.183-.026-.239.051-.317.423-.586.879-.912 1.297-.102.108-.074.251-.016.373-.18-.13-.382-.23-.543-.385.125.037.259.008.329-.11.32-.461.664-.909.936-1.4-.034-.059-.068-.118-.1-.177z"/><path d="m21.719 31.053c.384-.189.74-.429 1.131-.604.051.095.097.192.139.291-.266-.206-.533.128-.781.222.097.23.218.45.346.664.205-.148.569-.195.575-.508.098.142.19.289.249.453-.247-.22-.504.101-.746.181.114.221.222.447.363.652.064.091.185.052.264.006.186-.105.388-.187.55-.33.003-.07.007-.139.013-.208.078.093.13.204.168.319-.428.204-.825.465-1.253.668.059-.113.08-.243-.002-.35-.274-.469-.53-.948-.791-1.425-.076-.009-.15-.02-.225-.031z"/><path d="m9.188 30.796c.168.078.412.117.457.331.172.615.37 1.223.559 1.833.182-.381.363-.763.538-1.148.066-.108.016-.225-.041-.323.139.057.274.124.408.193-.091.043-.185.094-.227.192-.252.558-.51 1.116-.787 1.662-.236-.773-.485-1.543-.71-2.32-.231.498-.481.987-.684 1.496l.096.183c-.163-.067-.328-.134-.474-.234.056-.005.113-.009.169-.012.304-.498.506-1.05.767-1.571.074-.102-.015-.198-.071-.282z"/><path d="m19.895 31.727c.551-.169 1.083-.392 1.63-.573.044.094.078.194.097.297-.216-.204-.481.057-.717.091.194.568.383 1.142.632 1.687.061.006.122.013.183.023-.179.13-.404.177-.614.239.068-.091.144-.201.088-.318-.192-.512-.353-1.037-.577-1.536-.22.1-.585.098-.594.416-.05-.106-.094-.215-.128-.326z"/><path d="m19.196 31.887c.172-.049.347-.083.525-.097-.05.063-.148.114-.133.205.061.455.209.899.233 1.359.017.775-1.275 1.011-1.565.307-.167-.437-.185-.915-.311-1.364-.018-.09-.119-.106-.187-.14.193-.05.39-.087.589-.107-.171.168-.073.416-.041.619.083.324.084.672.229.978.229.398.88.321 1.084-.058.098-.409-.07-.816-.127-1.219-.031-.192-.043-.469-.296-.483z"/><path d="m11.318 32.537c-.127-.285.043-.698.377-.725.27-.051.516.089.731.234-.033.114-.07.226-.12.334-.044-.214-.203-.454-.451-.421-.262-.029-.425.306-.284.511.158.221.41.366.526.618.051.259.036.594-.227.736-.323.195-.748.069-1.016-.162.003-.104.014-.231.088-.307.059.261.3.441.569.405.279-.018.473-.359.333-.603-.146-.231-.417-.363-.526-.62z"/><path d="m12.763 32.082c.566.066 1.134.106 1.698.183-.012.102-.027.203-.041.305-.092-.295-.46-.171-.689-.244-.085.591-.188 1.184-.214 1.782.055.047.111.094.166.141-.211-.001-.418-.039-.627-.064.089-.061.193-.132.196-.253.059-.543.125-1.086.198-1.627-.244-.01-.562-.172-.734.078-.003-.104-.006-.21.047-.301z"/><path d="m15.803 32.259c.568-.026 1.135-.056 1.702-.092.02.107.035.215.036.324-.165-.28-.505-.126-.762-.129.077.566.049 1.141.138 1.707.006.113.135.131.213.177-.219.035-.446.043-.667.04.164-.089.2-.271.15-.44-.018-.499-.075-.998-.084-1.497-.247.081-.611-.07-.72.253-.007-.114-.008-.228-.006-.343z"/><path d="m14.8 32.254c.199-.009.399-.015.598.001-.046.045-.109.081-.133.144-.064.549-.025 1.102-.045 1.653-.015.122.066.214.176.251-.214-.003-.429.035-.643.003.07-.052.166-.094.185-.188.046-.555.042-1.115.041-1.672.008-.105-.111-.139-.179-.192z"/></svg>