<svg enable-background="new 0 0 80.055 68.944" viewBox="0 0 80.055 68.944" xmlns="http://www.w3.org/2000/svg"><g clip-rule="evenodd" fill-rule="evenodd"><path d="m32.092.191c4.293-.083 8.934-.083 13.226 0 .383.811.541 1.611.947 2.295.399.67.955 1.374 1.598 1.797 1.832 1.205 4.715 1.248 6.488.1.734-.476 1.26-1.098 1.697-1.796.471-.756.738-1.572 1.098-2.395 1.969-.165 4.619-.165 6.588 0 .345 6.345-.023 13.108.199 19.415.459.307 1.495.036 2.097.199.048.527-.501.8-.799 1.098-.96.961-1.946 1.996-2.944 2.995-1.314 1.314-2.529 2.729-3.844 4.042-2.632 2.633-5.313 5.238-7.785 7.986-1.129 1.188-2.609 2.609-3.943 3.942-.585.585-1.629 1.354-.947 2.496.689-.103 1.103-.754 1.547-1.198 3.275-3.275 6.617-6.667 9.932-9.982 1.895-1.895 3.646-3.951 5.59-5.79 1.952-1.845 3.624-3.939 5.689-5.64.719.029 1.559-.061 2.196.05-.151.711-.822 1.122-1.298 1.597-1.469 1.469-2.928 3.028-4.441 4.542-.992.992-1.973 2.013-2.995 2.994-1.015.974-1.851 2.15-2.845 3.145-2.985 2.986-5.883 5.982-8.934 9.034-.451.451-.957.906-1.498 1.497-.386.422-1.384 1.199-1.396 1.597-.014.42.763.968 1.197 1.447 1.265 1.392 2.627 2.727 3.894 3.993 1.729 1.729 3.495 3.646 5.19 5.34 1.777 1.777 3.355 3.716 5.141 5.39 1.816 1.703 3.414 3.595 5.19 5.34.531.431.996.993 1.498 1.497.488.489 1.145.919 1.298 1.597-.63.045-1.399.219-2.196.05-.485-.103-1.037-.916-1.497-1.348-3.373-3.164-6.649-6.853-9.782-10.082-2.824-2.842-5.635-5.684-8.484-8.534-.931-.931-1.775-2.026-2.945-2.695-.691.429-.137 1.435.301 1.747 3.26 3.521 6.832 6.804 10.081 10.381.798.879 1.616 1.847 2.495 2.646 1.77 1.607 3.376 3.425 5.091 5.141.419.419.834.852 1.247 1.297.376.404.985.777 1.049 1.397-.547.169-1.575.122-2.196.05-.948-.516-1.673-1.381-2.396-2.146-.73-.773-1.395-1.595-2.146-2.346-1.497-1.498-2.994-2.995-4.491-4.492-2.251-2.251-4.47-4.519-6.737-6.788-.75-.751-1.426-1.618-2.396-2.096-.431.537-.218 1.322-.249 1.996-.23 4.934.15 10.647-.15 15.522-1.079.304-2.222.125-3.345.1-3.281-.074-6.813.05-10.331.05-4.867 0-9.395.151-13.226-.898-3.573-.978-6.745-2.727-9.283-4.841-2.583-2.152-4.683-4.749-6.288-7.786-1.675-3.161-2.849-6.805-2.849-11.279.002-6.568 2.383-11.885 5.59-15.621 2.716-3.163 6.041-5.704 10.232-7.386.82-.33 1.737-.478 2.494-.998-1.1-.38-3.014.053-4.191-.25-.231-.665-.191-1.53-.15-2.396.219-4.604 0-9.914 0-14.922 0-.744-.15-2.085.3-2.196.069-.017.181-.044.249-.05 1.752-.136 3.928.105 5.691.15.413.831.573 1.73 1.048 2.495 1.098 1.767 3.381 3.194 6.488 2.496 1.488-.334 2.735-1.484 3.443-2.745.387-.69.523-1.502.898-2.247zm-5.091 13.924c-3.066-.314-5.053 1.297-6.038 3.145-.361.675-.678 1.543-.6 2.346 2.654.258 6.019.149 8.884.149.97 0 1.985.248 2.745-.2-.156-2.912-2.103-5.144-4.991-5.44zm26.601.499c-1.324-.543-3.398-.516-4.591 0-1.844.797-3.424 2.788-3.594 5.39-.057.856 0 1.831 0 2.795v12.078c0 .97-.09 1.95.199 2.795.58-.029.899-.6 1.248-.948 2.608-2.609 5.201-5.202 7.785-7.786 1.482-1.481 3.002-2.919 4.442-4.442 1.093-1.155 2.202-2.302 3.294-3.394.341-.341.822-.718.898-1.247-1.792-.321-4.377.151-6.089-.25-.309-2.315-1.631-4.186-3.592-4.991zm-23.057 7.038c-2.303 0-4.68-.149-6.787-.05-7.445.351-13.022 3.653-16.57 7.936-3.556 4.29-6.195 11.218-4.691 18.716 1.277 6.368 5.132 11.483 9.782 14.523 2.358 1.542 5.206 2.877 8.634 3.494 2.941.529 6.852.543 10.132.399.335-.015 1.071.214 1.147-.399.171-.82-.516-.699-1.197-.699-3.662 0-7.443-.19-10.432-.699-3.703-.63-6.391-2.192-8.733-3.993-3.53-2.712-6.38-6.532-7.686-11.329-.462-1.7-.701-3.395-.798-5.59-.173-3.938 1.026-7.312 2.495-10.082 1.547-2.916 3.463-5.008 5.84-6.887 2.326-1.838 5.422-3.3 8.783-3.943 1.8-.344 3.953-.349 5.99-.349 1.543 0 3.112-.025 4.691 0 .332.005 1.031.188 1.047-.449.048-.867-1.072-.599-1.647-.599zm.699 40.625c-3.066-.197-6.435-.023-9.184-.399-3.285-.449-5.637-1.642-7.836-3.244-4.532-3.302-8.398-9.011-7.486-17.069.455-4.026 2.324-7.083 4.342-9.482.877-1.042 1.904-1.835 2.945-2.595 2.016-1.473 4.617-2.758 7.835-3.194 2.212-.299 5.483-.236 7.886-.199.816.012 2.293.117 2.445-.35.377-1.15-1.018-.898-1.945-.898-4.285 0-8.17-.246-11.131.699-3.48 1.111-6.428 2.712-8.634 5.141-2.811 3.095-5.255 7.55-5.24 13.176.009 3.692 1.065 6.643 2.495 9.283 1.395 2.575 3.213 4.604 5.49 6.289 2.152 1.592 4.89 2.979 8.186 3.593 2.539.473 5.644.35 8.484.35.91 0 2.323.35 2.295-.699-.062-.521-.636-.381-.947-.402zm.898-33.987c-.445-.367-1.111-.18-1.646-.2-1.773-.066-3.687-.138-5.54-.05-2.72.129-4.983.443-6.888 1.297-1.736.78-3.404 1.907-4.741 3.244-2.553 2.553-4.791 6.291-4.791 11.229 0 4 1.442 7.395 3.443 9.982 1.955 2.526 4.57 4.544 7.786 5.64 3.009 1.024 7.003.849 10.83.849.466 0 1.089.151 1.497-.2.187-.163.09-.703.05-.949-.68-.268-1.454-.149-2.145-.149-2.367 0-4.765.059-6.838-.2-2.771-.346-4.938-1.186-6.838-2.496-3.533-2.437-6.31-6.517-6.488-12.178-.18-5.752 3.088-9.963 6.389-12.277 1.865-1.307 4.119-2.21 6.938-2.396 2.145-.142 4.613-.15 6.888-.15.694 0 1.494.153 2.146-.2-.026-.257.052-.617-.052-.796zm-8.584 3.094c-3.346.156-5.608 1.308-7.437 2.995-2.724 2.514-5.178 6.828-4.143 11.978.592 2.941 1.926 5.32 3.943 7.087 1.934 1.694 4.285 3.257 7.586 3.494 2.582.185 5.727.047 8.534-.05.26-.447.147-1.011.149-1.497.009-1.565 0-3.254 0-4.941.001-5.662.051-10.667.051-15.971 0-1.021.088-2.086-.2-3.044-2.71-.143-5.773-.177-8.483-.051z"/><path d="m75.513 19.855c-.21.805-.899 1.13-1.397 1.647-3.422 3.581-7.045 6.963-10.432 10.581-3.492 3.511-6.848 7.159-10.381 10.63-.309.595-1.359.879-1.347 1.647.007.445.802 1.051 1.197 1.448 1.335 1.334 2.618 2.667 3.894 3.942 1.801 1.801 3.456 3.656 5.141 5.34 3.594 3.595 7.019 7.201 10.331 10.631.535.462.997.998 1.497 1.497.479.479 1.072.928 1.348 1.597-.541.208-1.446.051-2.146.1-6.311-5.884-12.102-12.288-18.218-18.366-1.537-1.501-3.006-3.056-4.541-4.592-.496-.496-1.057-1.016-1.399-1.647.161-.871.986-1.078 1.399-1.697 2.883-2.736 5.708-5.709 8.584-8.585.938-.937 1.758-2.019 2.695-2.994 2.774-2.889 5.604-5.655 8.534-8.584.415-.416.938-.842 1.447-1.397.47-.512 1.095-1.155 1.647-1.248.695-.115 1.53-.085 2.147.05z"/><path d="m80.055 19.855c-.193.737-.896 1.116-1.398 1.597-1.497 1.439-2.902 3.077-4.441 4.542-4.418 4.466-8.908 8.993-13.275 13.675-1.013 1.086-2.172 2.228-3.294 3.444-.335.363-.985.907-.998 1.248-.015.381.591.884.898 1.248.721.854 1.383 1.456 2.096 2.196.37.384.605.792.948 1.198.723.855 1.687 1.584 2.496 2.446 2.349 2.505 5.013 4.915 7.336 7.436 2.465 2.414 4.836 5.002 7.337 7.436.624.608 1.218 1.209 1.847 1.847.152.154.517.398.398.699-.521.007-1.422.173-2.046 0-.494-.137-1.122-.972-1.597-1.447-3.59-3.588-6.972-7.122-10.58-10.73-1.503-1.502-3.01-3.059-4.543-4.592-1.525-1.525-2.826-3.054-4.491-4.641-.46-.439-.914-.925-1.497-1.547-.422-.45-1.389-1.273-1.398-1.647-.012-.48 1.041-1.29 1.398-1.647 1.574-1.574 3.146-2.955 4.592-4.542 3.98-4.557 9.173-9.172 13.525-13.825 1.016-1.086 2.265-2.215 3.443-3.394.469-.469.768-.967 1.348-1.048.585-.084 1.327-.035 1.896.048z"/></g></svg>