<svg enable-background="new 0 0 65.187 70.326" viewBox="0 0 65.187 70.326" xmlns="http://www.w3.org/2000/svg"><path clip-rule="evenodd" d="m18.218 59.666c-.545.626-.255 1.66-.307 2.555-.052.923-.103 1.857-.102 2.759 0 1.832.368 3.761-.256 5.11-1.165.365-2.711.215-4.189.152-3.632-.152-7.364.147-11.037 0-.651-.025-1.726.004-1.992-.204-.527-.41-.28-2.81-.256-3.832.101-4.188-.043-8.652 0-12.773.16-15.17.05-30.943.051-46.65.001-.878-.2-3.48.205-4.037.47-.645 3.086-.357 4.343-.357 1.691 0 3.27-.067 4.701 0 2.246.107 4.605.051 6.897.051.69.001 1.47-.146 1.941.358.097 3.643.052 7.767.052 11.752 0 .497-.141 1.125.255 1.482.55.096.896-.433 1.226-.715 1.756-1.496 3.349-3.366 4.905-5.16 1.831-2.112 3.896-4.051 5.927-6.081.631-.631 1.301-1.352 1.993-2.044.717-.717 1.335-1.498 2.095-1.941.693-.405 1.441.687 1.891 1.175 2.367 2.576 4.864 4.828 7.204 7.46.42.473.815.969 1.38 1.533.42.42 1.224 1.175 1.226 1.686.003.656-.846 1.152-1.329 1.636-3.478 3.478-6.667 6.949-10.065 10.475-3.241 3.263-6.686 7.037-9.964 10.577-.412.444-1.221 1.128-1.226 1.685-.006.629.877 1.248 1.278 1.686 1.434 1.566 2.858 3.021 4.292 4.497 1.435 1.517 2.846 2.999 4.343 4.496.476.475.897 1.166 1.635 1.277.838-.001 1.263-.764 1.737-1.277.476-.515 1.044-.968 1.533-1.431 1.019-.963 1.936-2.038 2.912-3.015 1.478-1.477 2.967-2.961 4.395-4.548.458-.509 1.066-1.021 1.226-1.736-.21-.877-.923-1.396-1.432-1.993-1.033-1.214-2.074-2.221-3.219-3.525-.46-.524-1.422-1.181-1.431-1.941-.009-.799 1.293-1.815 1.737-2.3 1.939-2.109 4.059-3.987 5.927-6.08.415-.408.816-.876 1.277-1.38.331-.36 1.026-1.104 1.533-1.124.641-.024 1.609 1.202 2.095 1.737 1.827 2.012 3.792 3.946 5.468 5.927 1.184 1.401 2.444 2.679 3.474 4.139 1.07 1.519 1.839 3.21 2.3 5.315 1.019 4.655-.558 9.147-2.606 11.905-1.113 1.498-2.426 2.664-3.628 3.985-1.194 1.312-2.369 2.639-3.628 3.985-2.452 2.624-4.894 5.258-7.357 7.868-2.422 2.484-5.189 4.97-9.197 6.029-4.515 1.195-9.409.051-12.212-1.992-2.315-1.478-4.054-3.518-5.928-5.468-.606-.635-1.19-1.415-2.093-1.688zm-5.774-55.081c-2.279.001-4.327-.057-6.643 0-.967.024-2.661-.261-3.167.153-.442.362-.46 2.596-.46 3.73-.001 19.128-.048 37.19-.051 55.899 0 .913-.227 3.154.256 3.576.469.411 2.214.204 3.116.204 2.566 0 4.142.098 6.489.052.735-.015 2.639.164 3.065-.153.596-.443.429-2.299.46-3.321.082-2.642-.086-4.979 0-7.46.027-.778-.301-3.294.409-3.475.54-.138 1.241.693 1.635 1.073 1.43 1.377 2.814 2.81 4.036 4.139 3.532 3.842 6.697 8.1 14.052 7.767 3.325-.151 5.692-1.574 7.715-3.22 4.403-4.055 8.459-8.916 12.723-13.183 1.445-1.445 2.881-2.967 4.089-4.547 1.302-1.705 2.165-3.559 2.555-6.081.885-5.744-2.405-9.268-4.906-12.16-1.357-1.571-2.921-2.926-4.189-4.445-.699-.527-1-1.452-2.044-1.635-.929.286-1.509.998-2.095 1.584-1.214 1.213-2.398 2.494-3.576 3.78-.549.6-1.662 1.363-1.635 2.096.023.664 1.011 1.431 1.481 1.89 1.311 1.281 2.056 2.159 3.321 3.424.468.468 1.44 1.363 1.431 1.993-.007.467-.457.797-.767 1.124-.349.366-.647.737-.971.971-.633.645-1.238 1.317-1.891 1.941-2.448 2.661-5.095 5.125-7.512 7.817-.737.546-1.168 1.22-1.89 1.941-.376.376-1.409 1.765-2.146 1.737-.729-.026-1.552-1.27-1.993-1.788-.647-.761-1.322-1.344-1.89-1.941-1.965-2.07-3.779-3.806-5.569-5.825-.61-.688-1.337-1.26-1.891-1.941-.588-.723-1.147-1.389-1.788-2.044-.619-.631-1.427-1.231-1.687-2.146.516-1.355 1.699-2.222 2.657-3.167.491-.485.823-1.079 1.328-1.584.496-.497.991-.977 1.481-1.482 5.02-5.232 10.103-10.478 15.073-15.686.707-.741 1.619-1.446 1.891-2.504-.313-.951-1.096-1.547-1.737-2.248-1.266-1.383-2.442-2.75-3.832-4.139-.523-.523-1.54-1.882-2.248-1.84-.789.047-2.214 1.684-2.76 2.3-2.575 2.909-5.429 5.483-8.021 8.226-.377.399-.699.875-1.073 1.277-1.876 2.02-3.767 4.09-5.773 5.877-.377.335-.69 1.022-1.328.919-.45-1.246-.335-2.707-.307-4.139.069-3.604.081-7.698-.052-11.036-.028-.708.026-1.432-.255-2.044-.807-.403-1.966-.256-3.116-.256z" fill-rule="evenodd"/></svg>