<svg fill="none" viewBox="0 0 130 107" xmlns="http://www.w3.org/2000/svg"><path clip-rule="evenodd" d="m29.5729.51461c-1.0477 1.14884-2.8967 4.15827-2.8967 4.71497 0 1.62983 7.3912 6.15362 13.0809 8.00622 1.4574.4743 2.7055.9176 2.7733.985.0678.0673-.249 1.0892-.7042 2.271-.9294 2.4134-1.48 4.5143-1.4851 5.6671-.0099 2.2494 1.5112 4.2747 4.1985 5.5905 2.6972 1.3208 4.2465 1.5843 9.6324 1.6387 5.1759.0522 5.7952.172 7.7341 1.4954 1.3994.9548 2.7023 2.6393 3.7787 4.8844 1.5861 3.3081 1.9084 4.6573 2.0334 8.5123.2354 7.2666-.8471 10.1177-4.4711 11.7755-1.4606.668-2.8388.9539-9.2439 1.9173-4.1537.6248-6.1062 1.2675-6.8427 2.2524-.3947.5283-.4957 1.0459-.5568 2.8589-.0982 2.9171.8167 16.0412 1.1459 16.4344.3113.3723 1.1644.3954 1.5216.0411.1453-.1441 1.0537-3.4714 2.0189-7.3939s1.9594-7.4653 2.2093-7.8728c.7478-1.22 1.828-1.5137 7.5898-2.064 6.2566-.5974 7.9114-.9205 10.0634-1.9648 4.1196-1.9993 6.5287-6.2751 9.7285-17.2669.8838-3.0362 1.6521-5.5651 1.7074-5.62.0554-.0549 1.3364.4558 2.8469 1.1349 3.9048 1.7554 5.569 2.2304 8.2963 2.3674 2.7099.1361 4.308-.2207 5.8049-1.2964 2.7844-2.0008 3.1574-6.181.8674-9.7359-2.6532-4.1194-7.8185-6.3224-14.874-6.3439-2.5984-.008-3.0916.0592-5.0088.6827-1.7491.5686-2.1718.6372-2.3823.3856-.1406-.1683-.557-2.4406-.9253-5.05-.783-5.5493-1.3426-8.7267-1.6356-9.2868-.3362-.64221-.8981-.47182-2.5825.7829-1.7864 1.3309-2.8342 2.6229-3.0493 3.7596-.211 1.1162-.0004 1.6809 1.0387 2.786l.9233.9817-.1384 2.6778c-.0758 1.4727-.166 2.7109-.1999 2.7516-.0339.0405-.8983-.397-1.9211-.9727-3.4174-1.9235-5.5951-2.6256-8.6961-2.8033-3.2499-.1867-6.1893.5066-10.7647 2.5387-1.6551.7351-2.0224.7381-2.7003.0222-.4445-.4691-.5573-.8819-.641-2.3444-.1162-2.028.2396-4.2987.7634-4.873.3226-.3536.8437-.3794 5.4499-.2705 6.0359.1427 6.3891-.0586 2.1395-1.2186-10.264-2.8018-17.3223-6.65542-22.7428-12.41608-.8631-.917378-1.7323-1.63692-1.9772-1.63692-.2405 0-.6484.23146-.9066.51461zm47.1167 9.94909c-.1571.2551.6686 4.9305.9693 5.4878.6649 1.2326 2.1727 1.7902 2.8974 1.0716.9481-.9407.0555-3.3914-1.9726-5.4158-1.2707-1.2684-1.6689-1.5088-1.8941-1.1436zm-51.1474 11.9577c-4.75 2.5916-5.8233 2.8581-11.0287 2.7396-7.81738-.1782-7.92898-.1647-8.43117 1.0276-.65344 1.5514-.26493 3.5648.78949 4.0911.33502.1671.91007.3757 1.2776.4633l.66843.1594-.83859.5652c-1.56744 1.0564-1.3394 2.5223.54138 3.4829.85727.4377 1.31865.516 2.67996.4542 1.4886-.0672 1.9149-.2102 4.4962-1.5056 3.2367-1.6248 4.2035-1.7824 5.5236-.9 1.4323.9576 1.7173 2.3784.9253 4.6141-.7344 2.0726-2.0247 3.718-6.3749 8.1299-2.2949 2.3272-4.5086 4.7223-4.9195 5.3222-1.80426 2.6344-2.79388 5.6225-2.79388 8.436 0 1.5234.0747 1.8551.53793 2.3894.36914.4256.74959.6145 1.21189.6015.37056-.0105 4.46016-.752 9.08826-1.6481 4.6281-.8959 11.8907-2.2986 16.139-3.1172 5.584-1.0759 7.839-1.6006 8.1387-1.8931.7464-.7289 1.1755-4.3655 1.1769-9.9763.0011-4.8262-.0245-5.1139-.6237-7.0417-1.49-4.7923-3.9636-8.1549-9.8328-13.3657-2.2684-2.0141-5.2864-3.9508-6.1561-3.9508-.2776 0-1.2656.4151-2.1953.9221zm66.3195 10.1706c1.5142.7559 1.7109 1.0237 1.1556 1.5744-.5229.5188-8.4283.5556-8.8586.0412-.4215-.5039.0646-1.1825 1.3214-1.8448.9514-.5014 1.3328-.5656 3.0473-.5151 1.6484.049 2.1785.1672 3.3343.7443zm19.1463 20.8337c-1.528.2172-3.999.8643-5.37 1.4061l-1.45.5732-2.354-.4817c-7.976-1.6314-15.5196-1.1356-20.4544 1.3444-.6974.3506-2.6688 1.4809-4.3809 2.5117-7.1147 4.2843-9.3356 5.0203-16.6529 5.5183-3.1191.2122-4.2563.3716-4.578.6415-.3196.2683-.7546 1.8928-1.7194 6.42-.7104 3.3336-1.3763 6.4434-1.4798 6.9107-.1303.5873-.0982.972.1038 1.2463.2762.3746.4812.3666 3.7205-.1435 3.8513-.6063 8.8681-.7266 10.8063-.2591.9778.236 1.4676.5832 3.228 2.2881 3.3857 3.2793 5.9407 4.9343 9.4422 6.1165 1.7226.5816 3.6901.8531 8.7733 1.2102 6.3926.4489 9.1339 1.7814 8.4069 4.0869-.1462.464-2.0858 3.538-4.3099 6.8308-3.9317 5.8209-4.3797 6.7069-3.3922 6.7069.2053 0 1.6872-.999 3.2929-2.219 9.6206-7.3109 13.1096-10.0091 13.4686-10.4132.499-.5645.526-1.9594.049-2.6348-.195-.2761-1.264-.9675-2.374-1.5366-3.372-1.7272-5.5725-4.1011-5.5725-6.0104 0-.6056.3919-1.0262 3.1315-3.3612 1.722-1.4679 3.253-2.6288 3.401-2.5799.591.1951.336.8893-1.219 3.3198-.893 1.3961-1.624 2.6973-1.624 2.8917 0 .411 2.477 1.5943 4.371 2.0881.704.1835 2.332.3303 3.689.3326l2.431.0046 3.189 5.8276c2.358 4.309 3.298 5.8279 3.607 5.8279.229 0 .47-.1365.535-.3035.065-.1672-.181-3.795-.546-8.0622-.366-4.2674-.667-7.8799-.67-8.0284-.012-.625-.744-.9882-1.991-.9882-1.866 0-4.597-.6279-6.184-1.4215-1.094-.5473-3.655-2.1188-4.26-2.6151-.052-.0426.2-.8234.561-1.7351 2.431-6.1462 2.499-8.9423.335-13.7723-.504-1.1262-.917-2.114-.917-2.1954 0-.253 2.585.2397 3.565.6795 1.286.5772 2.394 1.7311 3.092 3.2201 1.096 2.339.914 7.0115-.427 10.9605-.231.682-.366 1.3809-.299 1.5534.066.1724 1.172.8181 2.456 1.4347 3.151 1.5132 4.881 1.8327 9.926 1.8327 3.61 0 4.059-.0423 4.247-.4002.115-.2201.494-2.2462.842-4.5023.753-4.8817.729-8.2589-.073-10.4745-1.575-4.3506-5.67-7.7976-10.831-9.1161-1.718-.4387-6.045-.7433-7.541-.5306zm-69.5175 4.604c-6.8243 1.2129-24.0089 5.2698-27.9417 6.5966-4.54534 1.5336-5.2253 3.0934-3.1453 7.2155 1.232 2.4413 3.299 4.5956 6.3548 6.6225 2.1416 1.4205 2.5084 1.5861 3.5142 1.5861 1.4044 0 2.2216-.6239 3.1173-2.38 1.2057-2.3638 2.4739-3.1091 5.2894-3.1091 1.2495 0 1.8932.1239 2.6716.5146 1.739.8727 2.386 2.0001 3.6422 6.3468.1199.4147.352.5931.8452.6489 1.6134.1832 6.6161-1.2399 7.6272-2.1694.6857-.6303.6751.0071.199-11.9737-.3487-8.7779-.3925-9.284-.8354-9.6632-.2571-.22-.5336-.3863-.6147-.3692-.081.0172-.4068.0773-.7238.1336zm-33.05471 20.2848c-5.01657 2.1458-6.74518 3.4614-7.934476 6.0383-.49158165 1.0649-.5561418 1.4777-.4680629 2.9868.0857729 1.4713.2418709 2.0147.9764789 3.4017.96356 1.819 3.57595 4.7534 4.07952 4.5825.33802-.1146.33733-.0896.08877-4.1807-.17523-2.8815.08532-3.7077 1.45446-4.6148 1.34032-.8881 6.46022-1.6742 10.90792-1.6746 1.3374-.0002 1.8326-.0888 2.0676-.3696.2642-.3156.2379-.4236-.181-.7433-2.4891-1.9-3.5416-2.8853-4.9484-4.6329-.8992-1.1168-1.7175-2.0308-1.8187-2.0308s-.3221-.0512-.4909-.1141c-.169-.0627-1.8487.5455-3.73321 1.3515zm18.87451-.6651c-1.2751.4471-2.0897 1.4258-2.4065 2.891-.6233 2.8822.8658 8.3876 5.5579 20.5516 2.0893 5.416 2.5149 6.25 2.9631 5.805.368-.365.5875-20.4171.2562-23.3877-.2748-2.4619-.8225-4.0698-1.7129-5.0292-1.0597-1.1422-2.8564-1.4624-4.6578-.8307z" fill="#000" fill-rule="evenodd"/></svg>