<svg enable-background="new 0 0 169.424 152.398" viewBox="0 0 169.424 152.398" xmlns="http://www.w3.org/2000/svg"><g clip-rule="evenodd" fill-rule="evenodd"><path d="m67.461.117c.184 5.35.104 11.416.048 16.695-.043.021-.086.041-.096.096-5.629.266-11.393-.088-16.934.191-.269.57-.181 1.25-.191 1.912-.054 3.525 0 7.104 0 10.764 0 1.42.201 2.828-.096 4.113-5.447.254-11.14-.029-16.55.238-.385 5.516.143 11.52-.24 16.934-5.411.289-11.456-.014-16.981.24-.174 4.678-.097 9.838-.096 14.732 0 .664.108 1.354-.144 1.961-3.899.062-7.994 0-12.15 0-1.349 0-2.708.123-3.922-.191-.057-22.334-.186-46.398-.047-67.685 4.861-.221 9.735-.047 14.589-.047 12.291 0 24.339-.047 36.211-.049 5.652 0 11.026-.088 16.599.096z"/><path d="m100.657.261c.314 5.293-.153 11.428.239 16.693 5.333.254 11.237-.031 16.694.144.021.043.042.084.096.096.272 5.35-.076 11.541.191 16.74 1.354.246 2.82.098 4.257.096 4.428 0 8.648-.1 12.867.096.175 4.025.097 8.473.096 12.725 0 1.412-.113 2.818.143 4.113 5.23.287 11.129-.094 16.359.192.297 5.402-.127 11.537.239 16.742 5.775.297 11.701-.068 17.411.191.305 2.566.006 5.441.144 8.322.068 1.42 0 2.902 0 4.354 0 1.424.116 2.891-.144 4.209-5.609.283-11.756-.041-17.411.24-.286 5.277.095 11.225-.191 16.502-1.268.256-2.635.143-4.019.145-4.071 0-8.416-.018-12.293.096-.021.041-.042.084-.096.096-.088 4.041-.047 8.348-.048 12.531 0 1.367.116 2.752-.143 4.019-5.47.248-11.527-.082-17.029.238-.256 2.602-.009 5.445-.144 8.275-.135 2.82.214 5.686-.048 8.322-.622.254-1.325.145-2.01.145-4.849 0-10.15-.074-14.78.096-.394 5.166.075 11.258-.239 16.551-5.126.238-11.064.195-16.312.047-.253-.736-.144-1.539-.144-2.295 0-5.562 0-11.207 0-16.838 0-4.693 0-9.277 0-14.111 0-7.582-.047-15.688-.048-23.582 0-29.914-.09-60.026-.091-90.551-.001-1.529-.099-3.082.143-4.592 5.199-.168 10.883-.199 16.311-.047z"/><path d="m16.23 85.261c.3 5.311-.13 11.424.239 16.408 5.437.285 11.543-.096 16.98.191.313 5.33-.025 11.314.24 16.693 5.31.287 11.287-.096 16.598.191.312 5.502-.084 11.029.239 16.502.646.275 1.356.129 2.057.096.72-.033 1.466.074 2.2.049 4.14-.143 8.721-.031 12.819.096.191 5.283.097 11.141.049 16.551-.62.209-1.31.193-1.962.191-10.231-.035-20.917.047-31.57.047-11.365 0-22.893.057-33.914-.191-.338-16.768.068-33.262-.144-50.033-.06-4.779.001-9.871 0-14.973 0-.742-.097-1.771.191-1.961.035-.045.087-.072.144-.096 4.607-.037 9.203.096 13.968.096.621.001 1.291-.111 1.866.143z"/></g></svg>