<svg enable-background="new 0 0 20.065 20.952" viewBox="0 0 20.065 20.952" xmlns="http://www.w3.org/2000/svg"><path d="m9.704.021c.513-.067 1.04.033 1.512.237.828.368 1.47 1.149 1.63 2.046.14.704-.028 1.45-.418 2.048-.444.64-1.143 1.116-1.92 1.228-.649.122-1.337-.009-1.909-.336-.687-.387-1.206-1.072-1.364-1.849-.174-.749.004-1.561.447-2.187.454-.67 1.226-1.089 2.022-1.187z"/><path d="m4.44 5.563c1.69-.501 3.573-.226 5.07.696-1.249.992-2.088 2.47-2.36 4.038-.417-.353-1.031-.438-1.535-.235-.256.094-.46.287-.633.492-.309.392-.381.948-.196 1.409.206.517.72.9 1.278.935.355.037.71-.077 1.003-.274-.012 1.592-.01 3.183-.001 4.775-.425.099-.867.028-1.299.05-2.142-.104-4.175-1.439-5.129-3.359-.75-1.462-.836-3.237-.273-4.776.294-.832.806-1.57 1.412-2.205.75-.714 1.665-1.259 2.663-1.546z"/><path d="m10.811 6.116c.97-.548 2.089-.826 3.202-.799 2.038.032 4.034 1.131 5.116 2.862.587.901.876 1.969.933 3.036.033 1.637-.597 3.302-1.79 4.438-1.021 1.048-2.443 1.686-3.898 1.793-.475-.017-.956.046-1.423-.055-.001-1.599.008-3.198-.004-4.797.311.212.687.346 1.068.299.67-.045 1.258-.601 1.349-1.265.133-.823-.57-1.665-1.408-1.673-.812-.077-1.576.624-1.591 1.435-.003 1.179-.357 2.355-1.013 3.335-.855 1.264-2.181 2.22-3.678 2.558.014-1.805.002-3.609.006-5.415-.011-.357.022-.714.043-1.07.164-1.944 1.377-3.751 3.088-4.682z"/><path d="m12.08 14.739c.104-.168.174-.357.293-.516-.026 1.43-.004 2.862-.011 4.293.006.811-.012 1.623.009 2.433-1.565.001-3.131-.004-4.696.002.01-1.007.013-2.015-.002-3.022 1.032-.244 2.02-.693 2.838-1.374.612-.518 1.168-1.117 1.569-1.816z"/></svg>