<svg enable-background="new 0 0 12.277 11.533" viewBox="0 0 12.277 11.533" xmlns="http://www.w3.org/2000/svg"><path d="m7.154 0c.508.3 1.022.591 1.534.882-.893 1.559-1.788 3.116-2.681 4.675-.256.44-.5.887-.764 1.323-.681.004-1.363-.01-2.044.007 1.324-2.293 2.635-4.592 3.955-6.887z"/><path d="m3.606.899c.506-.302 1.021-.59 1.527-.892.289.499.579.998.87 1.497-.348.582-.682 1.172-1.027 1.755-.459-.785-.917-1.571-1.37-2.36z"/><path d="m6.3 5.553c.345-.589.69-1.178 1.03-1.77 1.32 2.281 2.646 4.56 3.973 6.837-.508.301-1.022.594-1.531.894-1.022-1.76-2.046-3.517-3.066-5.277-.138-.227-.26-.463-.406-.684z"/><path d="m9.552 7.128c.546.018 1.093.003 1.639.008.362-.001.724.003 1.086-.002 0 .589 0 1.178-.001 1.767-.561 0-1.122 0-1.683 0-.355-.587-.688-1.186-1.041-1.773z"/><path d="m0 7.132c1.789.01 3.58.001 5.369.004.513-.002 1.026.004 1.54-.003.351.585.691 1.177 1.032 1.767-2.647 0-5.294.002-7.94-.001-.002-.589 0-1.178-.001-1.767z"/><path d="m1.876 9.201c.683.001 1.366 0 2.049 0-.22.349-.414.714-.623 1.07-.24.421-.483.839-.721 1.261-.511-.293-1.023-.585-1.533-.88.269-.488.553-.967.828-1.451z"/></svg>