<svg enable-background="new 0 0 175.856 160.94" viewBox="0 0 175.856 160.94" xmlns="http://www.w3.org/2000/svg"><g clip-rule="evenodd" fill-rule="evenodd"><path d="m57.6.064c17.709-.091 35.752-.078 53.642 0 .776.281 1.394.878 2.014 1.375 1.245.998 2.476 2.017 3.733 3.046.615.503 1.158 1.078 1.768 1.572 4.961 4.013 9.829 8.147 14.688 12.33 3.626 3.12 7.219 6.21 10.856 9.382 3.57 3.114 7.167 6.325 10.169 10.07 1.904 2.377 3.974 5.096 5.207 8.302.66 1.719 1.011 3.84.589 5.649-.399 1.712-1.36 3.117-2.751 3.979-2.993 1.856-8.657 1.619-12.919.983-12.989-1.939-23.225-6.635-32.47-12.183-12.47-7.482-23.455-16.267-33.993-25.543-3.453-3.163-6.97-6.261-10.463-9.383-2.986-2.81-6.062-5.531-9.088-8.302-.306-.397-1.163-.716-.982-1.277zm30.702 17.192c.41.394.793.824 1.228 1.179 4.475 3.659 8.799 7.311 13.459 10.758 1.86 1.375 3.811 2.735 5.797 3.93 3.928 2.364 8.143 4.708 12.968 6.386 2.305.802 4.912 1.499 7.86 1.818 3.927.425 9.363.358 9.726-3.144.173-1.669-.537-3.266-1.129-4.421-1.929-3.758-4.694-6.726-7.565-9.186-3.307-3.038-7.299-5.697-10.905-8.646-.5-.41-1.084-1.052-1.817-.983-2.496.237-5.271.122-7.859.246-7.69.367-15.256.405-22.842.835.082.573.7.864 1.079 1.228z"/><path d="m99.109 87.403c-3.732-1.225-7.346-2.733-11.003-4.126-2.739-1.043-5.465-2.113-8.253-3.095-.896-.315-1.843-.62-2.652-1.13.224-1.903.656-3.839.884-5.846.482-4.227.433-8.733-.245-12.723-.34-1.995-.697-3.888-1.277-5.551-2.256-6.464-6.977-11.704-13.067-14.246-3.316-1.384-7.987-1.661-11.838-.933-3.764.71-6.814 2.461-9.432 4.224-2.713 1.828-5.031 4.048-7.319 6.337-2.256 2.256-4.461 4.764-6.19 7.467-1.766 2.762-3.33 5.714-4.716 8.94-1.378 3.208-2.539 6.728-3.095 10.562-.608 4.193-.507 8.586.196 12.478.691 3.82 1.932 7.22 3.439 10.218 2.235 4.444 4.984 8.678 9.284 11.199 1.439.845 3.064 1.677 4.765 2.063 6.298 1.432 12.432-.574 16.8-2.702 1.508-.734 3.018-1.448 4.273-2.554-.363-.864-1.195-1.261-1.719-1.965-3.509-3.713-7.518-7.553-11.151-11.445-.357-.384-1.508-1.248-1.522-1.72-.015-.483.938-1.459 1.277-1.965 2.588-3.864 5.118-7.761 7.811-11.544.443-.622.804-1.307 1.375-1.817.505.145.808.608 1.179.933 1.097.959 2.147 2.067 3.242 3.095 5.102 4.736 9.955 9.731 15.032 14.491.651.611 1.217 1.253 1.817 1.916.578.639 1.3 1.166 1.916 1.769 3.082 3.017 6.304 5.961 9.382 9.039.606.605 1.402 1.103 1.769 1.916-4.689 7.195-9.618 14.182-14.295 21.466-4.608 7.177-9.582 14.23-14.344 21.368-.678 1.018-1.368 2.04-2.063 3.046-.686.993-1.281 2.062-2.112 2.947-1.05-.604-1.562-1.745-2.456-2.505-2.076-2.168-3.976-4.499-6.091-6.828-.306-.337-.742-.672-.786-1.031-.067-.555.371-2.035.491-2.653.507-2.609 1.191-5.239 1.523-7.811-.883-.399-2.003-.321-3.095-.441-3.042-.337-6.015-1.081-8.646-1.965-3.493-1.174-6.681-2.781-9.579-4.52-5.877-3.525-10.598-8.243-14.688-13.558-4.53-6.057-8.219-12.911-11.003-20.779-.933-2.635-1.77-5.424-2.211-8.35-2.009-13.325.452-26.844 4.372-36.498 4.942-12.173 13.166-22.367 22.646-30.309 4.781-4.005 10.417-7.188 17.881-8.548 3.803-.693 8.314-.665 12.329-.049 6.695 1.027 12.277 3.943 16.899 7.024 3.199 2.134 5.932 4.704 8.596 7.369 7.937 7.938 14.197 17.825 16.849 31.045 1.349 6.721 1.539 14.872.393 21.909-.366 2.248-.768 4.459-1.572 6.386z"/><path d="m121.705 138.59c-2.335 1.029-5.017 2.154-7.418 3.192-.813.353-1.63.769-2.505.885.339-.96.972-1.77 1.522-2.603 1.611-2.441 3.123-5.068 4.765-7.566 4.362-6.631 8.595-13.314 12.919-19.992 1.077-1.663 2.133-3.368 3.242-5.011 1.113-1.647 2.244-3.282 3.144-5.06-.909.632-1.584 1.675-2.309 2.604-.741.948-1.546 1.843-2.26 2.751-5.05 6.436-10.271 12.879-15.523 19.551-.648.823-1.212 1.727-1.867 2.555-3.84 4.858-7.7 9.697-11.642 14.638-.296.372-.658.802-.982 1.229-.346.455-.649.951-.982 1.179-.71.484-1.779.748-2.653 1.13-1.808.792-3.6 1.387-5.453 2.112-.889.349-1.749.821-2.702.934.156-1.005.779-1.826 1.228-2.702 3.154-6.144 6.354-12.348 9.481-18.568 3.558-7.077 7.384-14.039 10.807-21.221-.149-.17-.381.396-.589.491-5.256 7.784-10.475 15.606-15.769 23.382-5.292 7.772-10.364 15.703-15.769 23.383-3.074 1.201-6.18 2.733-9.284 3.98-1.012.406-2.052.871-3.144 1.08.122-.588.556-1.037.884-1.523 2.204-3.264 4.51-6.594 6.73-9.923.641-.961 1.178-1.992 1.817-2.947 4.406-6.579 9.05-13.118 13.46-19.797 2.512-3.806 5.18-7.502 7.712-11.299 5.639-8.454 11.698-16.828 17.39-25.444.314-.477.674-.929.982-1.425.307-.495.499-1.047.835-1.523 3.268-4.637 6.324-9.36 9.677-14.098.578-.816 1.366-2.382 2.014-2.702.471-.232 1.233-.261 1.916-.393 3.275-.635 6.507-1.196 9.726-1.817 1.299-.25 2.595-.556 3.881-.589-.392 1.113-1.033 2.128-1.621 3.144-6.387 11.033-12.66 22.267-19.06 33.354-2.328 4.033-4.737 8.025-6.878 12.183.346.05.527-.487.835-.639.181-.327.467-.548.688-.835 1.421-1.674 2.877-3.312 4.273-5.011 9.6-10.982 19-22.166 28.491-33.256 3.909-4.312 7.437-9.002 11.347-13.312 3.805-.958 8.411-1.977 12.379-2.849.976-.214-.076 1.008-.196 1.179-5.44 7.73-10.638 15.6-16.161 23.235-1.174 1.622-2.169 3.359-3.291 5.01-2.249 3.308-4.589 6.545-6.829 9.775-9.177 13.244-18.342 26.284-27.258 39.149z"/></g></svg>