<svg enable-background="new 0 0 86.384 26.582" viewBox="0 0 86.384 26.582" xmlns="http://www.w3.org/2000/svg"><path clip-rule="evenodd" d="m86.205.259c.275 1.021.152 2.116.152 3.199 0 7.526.084 15.578-.102 23.003-14.303.24-28.705.051-43.061.051-14.343 0-28.741.017-42.959-.051-.354-2.033-.203-4.257-.203-6.449 0-6.517-.084-13.432.101-19.804 5.024-.135 10.382-.219 15.285-.051.303 4.352-.1 9.409.203 13.761.727.269 1.589.152 2.437.152 2.449 0 5.166.015 7.465-.152.274-1.033.152-2.205.152-3.352 0-3.381-.083-7.147.101-10.41.967-.133 2.047-.149 3.046-.152 9.366-.031 18.96.102 28.589.102 9.637 0 19.35-.005 28.794.153zm-77.083 2.538c-2.141.102-4.391-.053-6.348.153-.268.781-.152 1.653-.152 2.488v13.203c0 1.757-.122 3.503.152 5.129 6.624.009 13.6.154 20.007 0 .93-.022 1.899.13 2.793-.152.181-.972.102-2.19.102-3.351 0-1.196.117-2.413-.152-3.352-3.156-.151-6.484-.141-9.597-.102-1.028.013-2.092.113-3.047-.153-.138-2.097-.102-4.395-.102-6.753 0-2.351.112-4.792-.102-6.957-1.044-.23-2.353-.21-3.554-.153zm39.963 10.512c-1.47-1.722-2.937-3.465-4.367-5.23-1.075-1.327-2.129-2.703-3.199-3.961-.365-.428-.657-1.009-1.219-1.218-3.798-.079-7.946-.076-11.679-.051-.317.729-.203 1.582-.203 2.387 0 6.114-.07 12.504.101 18.382 1.083.27 2.31.152 3.504.152 2.491 0 4.927.051 7.312.051 1.209 0 2.448.119 3.554-.152-.126-.863-.804-1.505-1.32-2.133-1.053-1.282-2.044-2.447-3.148-3.757-.481-.571-1.309-1.309-1.473-1.98-.127-.523-.051-1.203-.051-1.879 0-.619-.09-1.298.152-1.777 1.014.779 1.714 1.875 2.539 2.844.831.976 1.678 1.949 2.488 2.945 1.565 2.041 3.139 4.072 4.926 5.89 3.997-.023 7.885.217 11.628-.101.235-.782.181-1.654.152-2.488-.208-6.077.15-12.127-.151-18.233-4.48-.276-9.887-.07-14.371-.05.288.815.948 1.421 1.473 2.082 1.08 1.359 2.108 2.591 3.25 3.961.459.55 1.443 1.396 1.574 2.031.238 1.158-.091 2.487-.102 3.656-.677-.237-.904-.924-1.37-1.371zm30.62-10.41c-5.997 0-12.202-.085-18.078.101-.267.766-.152 1.626-.152 2.438 0 6.082-.083 12.443.102 18.281.835.269 1.746.152 2.641.152 6.464 0 13.215.083 19.448-.101.232-.483.095-1.073.102-1.676.012-1.101.186-2.342-.152-3.199-3.333-.134-6.965-.152-10.156-.152-1.139 0-2.316.124-3.352-.152-.057-.709-.141-1.861.051-2.488 3.226-.21 6.839-.051 10.207-.051 1.139 0 2.278.122 3.3-.152.168-1.415.168-3.511 0-4.926-1.014-.272-2.176-.152-3.3-.152-2.344 0-4.676-.051-6.906-.051-1.165 0-2.315.124-3.352-.152-.062-.714-.132-1.853.051-2.488 3.235-.215 6.837-.051 10.207-.051 1.142 0 2.279.119 3.3-.152.166-1.397.17-3.478 0-4.875-1.246-.278-2.609-.154-3.961-.154z" fill-rule="evenodd"/></svg>