<svg enable-background="new 0 0 80.362 80.547" viewBox="0 0 80.362 80.547" xmlns="http://www.w3.org/2000/svg"><path clip-rule="evenodd" d="m13.036 70.002c-2.73-2.336-4.842-5.179-6.829-8.235-3.75-5.767-6.743-14.28-6.126-23.902.438-6.845 2.504-12.64 5.172-17.424.445-.799.969-1.535 1.456-2.31 4.301-6.852 10.612-12 18.63-15.265 3.629-1.479 8.01-2.602 12.453-2.812 8.713-.412 14.962 1.667 20.689 4.469 5.565 2.723 9.991 6.842 13.658 11.449 3.543 4.452 6.513 10.655 7.633 17.475.625 3.802.797 7.674.301 11.649-.457 3.667-1.339 6.98-2.511 10.043-2.198 5.745-5.88 10.855-10.294 14.864-4.436 4.029-9.711 7.207-16.069 9.039-3.272.943-7.085 1.507-11.047 1.507-12.141-.002-20.523-4.767-27.116-10.547zm41.478-38.163c-.446-.763-.934-1.468-1.506-2.16-2.938-3.548-7.396-6.422-14.01-6.076-4.584.24-7.785 2.121-10.295 4.419-1.268 1.161-2.37 2.589-3.214 4.067-1.102 1.931-1.822 4.126-2.059 6.729-.247 2.721.274 5.438 1.104 7.582 1.535 3.963 4.746 7.402 8.486 9.089 4.248 1.915 10.088 2.148 14.362 0 3.355-1.687 6.055-4.407 7.683-7.733.217-.443.348-1 .803-1.306.274 3.168-.064 7.219.251 10.495.622.242 2.14.242 2.762 0 .168-10.878.166-22.416 0-33.243-.678-.241-2.078-.219-2.762 0-.268 2.469.013 5.414-.101 7.984-.039.876.045 1.755-.201 2.511-.486-.771-.847-1.578-1.303-2.358z" fill-rule="evenodd"/></svg>