<svg enable-background="new 0 0 16.277 13.696" viewBox="0 0 16.277 13.696" xmlns="http://www.w3.org/2000/svg"><path d="m0 6.672c1.301-2.22 2.589-4.447 3.894-6.665.305.553.632 1.094.95 1.64-.64 1.113-1.298 2.216-1.938 3.33 1.292-.009 2.584-.002 3.876-.003.33.565.667 1.126.984 1.697-2.588-.002-5.177-.005-7.766.001z"/><path d="m4.271.012c.635-.005 1.27.001 1.905-.002.424.697.821 1.411 1.241 2.112.232.42.492.825.719 1.248.661-1.117 1.305-2.243 1.967-3.36.635.002 1.27-.004 1.906.003-1.16 2.002-2.333 3.998-3.496 5.999-.134.206-.233.432-.38.628-1.283-2.212-2.576-4.418-3.862-6.628z"/><path d="m12.378 0c.804 1.395 1.621 2.783 2.431 4.174.493.83.964 1.674 1.466 2.499-2.342-.009-4.684-.001-7.026-.004-.255.003-.51-.008-.765.008.321-.532.634-1.069.94-1.609.028-.037.051-.104.11-.095 1.28.002 2.56-.006 3.839.004-.666-1.095-1.288-2.218-1.951-3.316.309-.559.653-1.099.956-1.661z"/><path d="m0 7.028c2.589.006 5.178.002 7.767.002-.321.569-.656 1.13-.987 1.694-1.291.001-2.582.001-3.873 0 .647 1.108 1.291 2.217 1.942 3.323-.327.542-.64 1.093-.96 1.639-1.297-2.22-2.59-4.441-3.889-6.658z"/><path d="m8.497 7.028c2.107.007 4.214.001 6.321.003.486-.002.973.005 1.459-.005-.41.662-.788 1.344-1.186 2.015-.908 1.551-1.81 3.104-2.717 4.656-.297-.565-.646-1.101-.952-1.661.664-1.096 1.283-2.221 1.952-3.315-1.294.012-2.588-.001-3.881.007-.34-.563-.666-1.133-.996-1.7z"/><path d="m8.127 7.055c1.295 2.209 2.585 4.421 3.871 6.635-.581-.006-1.162-.003-1.743-.002-.059-.004-.121.01-.177-.013-.648-1.115-1.305-2.226-1.946-3.345-.375.617-.728 1.248-1.097 1.869-.285.498-.584.988-.862 1.489-.639-.003-1.278-.002-1.917 0 1.288-2.212 2.576-4.425 3.871-6.633z"/></svg>