<svg enable-background="new 0 0 167.972 171.717" viewBox="0 0 167.972 171.717" xmlns="http://www.w3.org/2000/svg"><g clip-rule="evenodd" fill-rule="evenodd"><path d="m127.712 84.293c-1.242 1.194-2.635 2.047-4.4 2.631-1.852.613-3.823.718-6.267.718-13.813-.001-27.928.001-41.76 0-6.5 0-13.955-.047-20.855-.048-2.391 0-4.572-.041-6.314-.67-3.368-1.214-5.909-3.652-7.175-6.792-.702-1.74-1.081-3.751-.861-5.932.204-2.024.891-3.512 1.77-5.214 1.579-3.056 3.295-6.039 4.927-9.088 1.626-3.038 3.133-6.161 4.736-9.232 1.592-3.05 3.26-6.081 4.879-9.136 5.616-10.605 11.475-21.159 17.076-31.857 1.645-3.139 3.134-5.997 6.123-7.845 1.521-.94 3.395-1.528 5.405-1.77 2.558-.308 5.08.668 6.744 1.674 1.849 1.117 3.227 2.417 4.258 4.114 1.074 1.768 2.006 3.635 2.966 5.453 8.701 16.478 17.487 32.857 26.261 49.269.911 1.704 2.043 3.579 2.87 5.549.818 1.95 2.087 3.726 2.727 5.644 1.673 5.024-.542 9.961-3.11 12.532zm-44.102-42.38c-3.119 5.75-6.087 11.361-9.185 17.22-.491.929-1.479 2.052-1.34 3.061.205 1.47 2.222 1.202 3.827 1.196 5.997-.023 12.012.001 18.512 0 1.055 0 2.271.044 2.631-.431.602-.794-.072-1.936-.526-2.774-2.129-3.931-4.105-7.796-6.123-11.576-.855-1.604-1.881-3.334-2.439-4.688-.464-1.126-.784-1.908-1.387-2.966-.309-.542-.812-1.872-2.009-1.626-.954.196-1.515 1.76-1.961 2.584z"/><path d="m93.128 119.787c6.456-8.133 13.125-15.887 19.708-24.013 2.812-3.472 6.242-6.274 12.054-6.648 5.719-.369 10.241 2.61 12.771 5.884.901 1.165 1.647 2.429 2.392 3.826 7.26 13.626 14.087 27.333 21.382 41.041 1.363 2.561 2.862 5.432 4.306 8.18 1.425 2.715 2.633 6.025 2.104 10.094-.471 3.615-1.914 6.354-3.923 8.561-1.976 2.174-4.544 3.861-7.893 4.594-8.04 1.756-14.1-2.365-16.933-7.176-1.549-2.629-2.875-5.439-4.306-8.18-1.43-2.74-2.88-5.506-4.305-8.18-.367-.689-.68-1.402-1.053-2.105-1.077-2.029-2.08-4.131-3.157-6.17-.684-1.295-1.278-2.941-2.631-3.635-1.612-.826-3.488-.041-4.448 1.1-1.891 2.248-3.796 4.525-5.645 6.84-1.838 2.305-3.763 4.512-5.645 6.84-1.844 2.283-3.653 4.641-5.597 6.889-1.925 2.229-3.85 4.506-5.645 6.84-1.732 2.256-4.059 4.351-6.936 5.549-2.991 1.246-7.342 1.363-10.667.287-2.994-.967-5.466-2.875-7.271-5.213-1.831-2.373-3.791-4.654-5.597-6.889-3.758-4.652-7.584-9.027-11.337-13.633-1.151-1.492-2.397-2.916-3.588-4.4-1.179-1.473-2.205-3.113-3.683-4.305-.252-.055-.432-.228-.622-.287-1.981-.609-3.449.684-4.209 2.008-2.374 4.139-4.465 8.799-6.697 12.82-1.417 2.521-2.594 4.973-3.922 7.463-1.309 2.451-2.446 5.074-4.019 7.365-1.506 2.197-3.539 3.965-6.219 5.166-2.59 1.164-6.029 1.857-9.613 1.102-4.501-.949-7.852-3.646-9.998-7.08-.725-1.16-1.4-2.574-1.769-3.922-.863-3.154-.622-7.184.478-9.854 1.092-2.654 2.623-5.146 3.874-7.512 1.952-3.689 3.819-7.533 5.836-11.24.671-1.234 1.204-2.574 1.865-3.826 5.285-10.008 10.376-19.832 15.689-29.849 1.423-2.682 2.759-4.507 5.166-6.218 1.729-1.229 3.553-2.053 5.979-2.583 3.532-.774 7.493.028 10.045 1.339.641.328 1.189.788 1.771 1.195 2.394 1.68 4.088 4.045 5.836 6.171 3.612 4.396 7.283 8.841 10.811 13.154 3.503 4.285 7.141 8.926 10.81 13.154.945 1.09 2.125 1.957 3.684 2.344 1.658.414 3.677.064 5.07-.621 1.323-.65 2.042-1.855 2.966-3.014.904-1.128 1.824-2.173 2.731-3.253z"/></g></svg>