<svg enable-background="new 0 0 180.032 180.068" viewBox="0 0 180.032 180.068" xmlns="http://www.w3.org/2000/svg"><path clip-rule="evenodd" d="m.302.048c-.009-.041.019-.046.049-.048 58.507.075 117.083.143 176.118.144 1.17 0 2.533-.189 3.416.145.168 40.342.098 82.334.096 123.152-.001 16.611.001 33.236 0 50.223 0 1.884.118 3.752 0 5.581-.042.647-.147.746-.866.77-3.729.121-7.509 0-11.257 0-10.948-.001-22.283 0-33.482 0-9.359-.001-18.737 0-28.046 0-12.879-.001-25.729 0-38.629 0-18.452-.001-36.737-.091-55.515-.097-3.962-.001-8.154.08-11.882-.096-.227-.076-.21-.246-.24-.434-.135-.837-.009-1.885 0-2.887.126-13.951-.048-28.723-.048-42.381 0-15.055 0-30.07 0-44.644 0-16.763.048-33.761.048-50.03 0-3.728-.039-7.369 0-11.064.093-8.878 0-17.971 0-27.036 0-.411-.113-.878.144-1.251 0-.045.057-.036.094-.047zm94.337 7.36c-5.146 6.399-10.214 12.877-15.25 19.387-1.331 1.586-2.543 3.237-3.704 4.955-.566.839-1.296 1.588-1.924 2.405-6.255 8.142-12.78 16.194-19.002 24.294-1.902 2.477-3.882 4.83-5.773 7.265-10.097 12.999-20.224 25.976-30.403 38.918-1.294 1.639-2.516 3.291-3.8 4.858-.429.523-1.02 1.019-1.203 1.731 4.015.254 8.295.146 12.556.145 4.279 0 8.562.062 12.604-.048.971-.87 1.732-1.959 2.55-2.982 1.65-2.067 3.252-4.151 4.859-6.206.797-1.02 1.535-2.16 2.549-2.983 11.008-.025 22.284.06 33.338-.048 3.621-5.028 7.186-10.296 10.632-15.442.218-.325.631-.646.577-1.106-10.393-.319-20.929.101-31.606-.192-.104-.396.288-.649.481-.914.641-.883 1.232-1.804 1.876-2.646 6.353-8.662 12.786-17.423 19.098-26.219 4.741-6.607 9.608-13.098 14.384-19.627 1.388-1.897 2.796-3.88 4.185-5.725.142-.188.362-.662.722-.529.115 17.352.097 34.185.096 51.474 0 1.195.131 2.405 0 3.512-.057.484-.565 1.111-.962 1.684-5.593 8.064-11.339 16.185-16.789 24.102-1.96 2.847-3.979 5.648-5.965 8.467-5.335 7.567-10.458 15.181-15.779 22.706-4 5.657-7.896 11.366-11.882 16.981-1.329 1.872-2.694 3.735-3.993 5.629-2.278 3.321-4.726 6.602-6.976 9.862-.308.445-.75.915-.817 1.491.97.25 2.016.144 3.031.144 3.058.001 6.233 0 9.429 0 4.27.001 8.541.002 12.603 0 .289 0 .492.024.626-.096 2.837-3.891 5.516-7.918 8.227-11.834.927-1.341 1.719-2.749 2.646-4.09 10.983-15.887 21.608-32.048 32.664-47.817 1.515-2.284 3.036-4.582 4.618-6.88.35-.508 1.081-2.002 1.684-2.164.729-.196 2.175-.038 3.175 0 3.108.117 6.415-.001 9.621 0 4.554.001 8.476.299 11.498 1.731 4.371 2.072 7.452 5.982 7.601 12.219.049 2.059-.286 3.803-1.059 5.484-1.293 2.815-3.621 5.209-6.35 6.88-2.875 1.759-6.052 2.789-10.343 2.79-8.85.001-17.682-.004-26.411.048-1.129 1.385-2.111 2.913-3.079 4.426-2.673 4.18-5.642 8.32-8.274 12.459-.236.372-.621.764-.577 1.251 7.469.135 14.995.097 23.091.097 7.888 0 16.099.449 22.899-.77 6.686-1.199 12.811-3.068 17.27-6.495 2.32-1.782 4.502-3.419 6.398-5.483 5.354-5.833 9.996-14.914 8.563-26.507-.842-6.81-3.821-12.162-7.505-16.26-3.795-4.222-8.501-7.33-14.865-8.9-3.326-.82-7.085-.721-11.161-.722-3.881 0-7.925.05-11.738-.096 0-.049-.039-.058-.048-.096-.284-24.274.104-49.947-.192-74.421-9.418-.224-19.278-.163-28.721-.097z" fill-rule="evenodd"/></svg>