<svg enable-background="new 0 0 53.923 76.06" viewBox="0 0 53.923 76.06" xmlns="http://www.w3.org/2000/svg"><g clip-rule="evenodd" fill-rule="evenodd"><path d="m53.662.211c.429 12.304-.105 25.329.193 37.842.151 6.365.001 12.729 0 19.042-.001 6.331.17 12.625-.049 18.897-8.745.125-18.276.063-27.016-.048-.257-1.361-.146-2.767-.146-4.157.006-18.443-.051-36.564-.048-55.337 0-1.3-.021-2.708 0-4.108.021-1.436-.228-2.955 0-4.156.12-.638 1.45-1.773 1.885-2.175 1.786-1.649 3.266-3.304 5.074-4.978.412-.381.886-.924 1.306-.966 1.472-.148 3.105 0 4.735 0 4.604-.002 9.686-.056 14.066.144z"/><path d="m25.39 23.36c.185 11.006.146 21.684.145 32.96 0 2.223.145 4.448.048 6.621-.167 3.804.042 7.369 0 11.261-.005.486.05 1.002-.192 1.45-4.025.021-7.465-.998-10.343-2.368-2.86-1.361-5.365-3.182-7.394-5.365-4.115-4.429-7.357-9.879-7.636-17.93-.28-8.077 3.021-14.201 7.104-18.365 4.266-4.351 9.466-7.614 17.205-8.313.294-.026.77-.142 1.063.049z"/></g></svg>