<svg enable-background="new 0 0 69.845 81.555" viewBox="0 0 69.845 81.555" xmlns="http://www.w3.org/2000/svg"><g clip-rule="evenodd" fill-rule="evenodd"><path d="m69.729.177c.177 23.856.098 48.306.1 71.346 0 2.545-.05 5.13-.05 7.617 0 .778.097 1.582-.099 2.34-22.887.117-46.199.079-69.504 0-.267-.779-.149-1.645-.149-2.44 0-19.548 0-39.098 0-58.6 0-6.808-.118-13.601.149-20.313 15.701-.255 30.828-.047 46.551-.049 7.826-.001 15.493-.122 23.002.099zm-36.893 8.116c-.544.179-.398 1.584-.199 2.041.929.275 2.748-.096 3.734.249 2.265.792 1.892 3.928 1.892 7.07 0 3.822.068 7.562 0 11.053-.03 1.557.286 4.246-.149 5.427-.678 1.842-3.364 1.088-5.527 1.394-.154.502-.166 1.591 0 2.091 8.977.234 19.132.215 28.379.05.261-.742.149-1.623.149-2.489 0-.879 0-1.79 0-2.688 0-1.81.119-3.683-.149-5.228-.51-.147-1.586-.171-2.091 0-.379 1.855.249 4.507-.299 5.974-.932 2.498-3.833 2.24-7.219 2.241-.95 0-1.918 0-2.837 0-.971 0-1.934.111-2.739-.149-.334-1.819-.074-3.813-.149-5.775-.189-4.888-.05-9.927-.05-14.887 0-1.016-.115-2.186.149-2.888.742-1.975 3.819-.969 5.925-1.444.149-.467.191-1.547-.05-1.942-6.114-.131-12.421-.093-18.77-.1zm-24.894 31.516c-.156.51-.162 1.582 0 2.091 1.324.268 3.27-.11 4.431.448 1.03.496 1.81 1.682 2.34 2.987 1.054 2.596 2.123 5.078 2.938 7.717.425 1.38.998 2.662 1.444 3.934.926 2.646 1.82 5.293 2.838 7.816.518 1.284.903 2.644 1.394 3.933.503 1.321.849 2.689 1.544 3.834 4.564.117 9.289 0 13.94 0 4.724 0 9.422.247 13.841-.05.151-.427.165-1.417 0-1.842-1.438-.307-3.494.131-4.68-.249-1.203-.385-2.108-1.467-2.241-2.888-.208-2.234 0-5.554 0-8.065 0-.708-.113-1.426.15-1.992.976-.09 2.072-.05 3.137-.049 1.094 0 2.158-.215 2.938.149 1.605.75 1.015 3.114 1.195 5.278.372.21 1.48.251 1.842 0 .37-3.342-.1-7.217.05-10.505.051-1.127.158-2.242-.1-3.236-.381-.165-1.309-.15-1.693 0-.384 1.075.052 2.794-.249 3.734-.494 1.545-2.119 1.494-4.182 1.493-1.042 0-2.165.118-2.987-.149-.245-.851-.124-1.833-.1-2.837.049-2.027 0-4.177 0-6.274 0-1.016-.216-2.084.15-2.938 1.633-.091 3.483-.06 5.377-.05 2.161.012 4.698-.346 6.024.448.484.419.869.767 1.195 1.344.951 1.682.312 4.5.647 6.771.383.224 1.512.239 1.892 0 .165-3.373.166-7.431 0-10.804-2.287-.266-4.677-.149-7.07-.149-7.282 0-14.578-.116-21.359.1-.15.505-.168 1.589 0 2.091 1.29.521 3.357-.231 4.63.249 1.158.437 1.045 1.808 1.045 3.435 0 .837.092 1.794 0 2.54-.092.747-.484 1.642-.846 2.39-1.113 2.299-2.009 4.297-3.037 6.672-.98 2.265-2.128 4.49-3.037 6.671-.304.729-.443 1.773-1.344 1.942-.955-.335-1.055-1.432-1.344-2.241-.952-2.663-1.793-5.227-2.888-7.866-.699-1.687-1.22-3.397-1.941-5.228-.643-1.629-1.777-3.499-1.693-5.526.056-1.356 1.12-2.475 2.24-2.788 1.217-.34 2.742-.008 4.332-.199.315-.479.228-1.626.05-2.19-6.754-.144-13.983-.146-20.813.048z"/><path d="m37.865 60.869c.54-.158.349 1.37.349 1.892 0 2.11.039 4.715-.05 6.522-.473 1.058-2.936 2.111-4.232 1.046-.003-1.638 1.104-3.043 1.743-4.73.28-.739.639-1.442.996-2.291.353-.841.617-1.983 1.194-2.439z"/></g></svg>