<svg enable-background="new 0 0 71.632 49.414" viewBox="0 0 71.632 49.414" xmlns="http://www.w3.org/2000/svg"><g clip-rule="evenodd" fill-rule="evenodd"><path d="m35.814 3.045h.095c1.059-.226 1.954-.86 2.943-1.234 2.914-1.103 6.587-1.991 10.728-1.709 5.078.346 9.226 1.931 12.484 4.177 1.645 1.134 3.202 2.31 4.557 3.797 1.29 1.417 2.495 3.093 3.465 4.842 1.018 1.835 2.005 4.029 1.281 6.503-.561 1.921-1.98 3.644-4.224 4.082-1.407.275-3.261.095-4.984.095-3.425.001-6.76-.048-10.11-.047-1.708 0-3.462.162-5.032-.048-1.779-.238-2.955-1.24-3.845-2.373-.818-.928-1.079-2.082-1.472-3.181-.955-2.672-2.525-5.239-4.509-7.12-.361-.342-.942-.94-1.376-.949-.731-.016-1.969 1.472-2.374 1.946-1.41 1.656-2.385 3.156-3.322 5.269-.45 1.012-.731 2.198-1.187 3.085-.57 1.108-1.465 1.941-2.468 2.516-1.119.641-2.417.759-4.225.759-3.178 0-6.527.047-9.873.047-3.112 0-6.873.38-9.114-.807-1.952-1.033-3.773-3.365-3.086-6.549.256-1.188.88-2.352 1.472-3.418 2.86-5.153 7.476-8.878 13.148-11.154 1.717-.69 3.754-1.195 5.838-1.424 3.204-.351 6.714-.062 9.446.665 2.11.56 3.834 1.524 5.744 2.23zm-5.126 3.75c-.104-.453-.961-.665-1.566-.854-.69-.216-1.398-.378-1.994-.475-6.457-1.051-11.591.784-15.474 3.655-2.145 1.585-3.911 3.427-5.269 5.743-.472.805-.998 1.692-1.044 2.658.657 1.168 2.552.76 4.082.76h9.636c1.361 0 3.798.278 4.699-.19.809-.421 1.197-2.154 1.566-2.991.468-1.059.948-2.123 1.519-3.085.881-1.397 1.861-2.696 2.943-3.893.267-.47 1.044-.708.902-1.328zm12.958-.997c-.795.164-2.527.468-2.658 1.139-.095.489.543.923.854 1.282 1.844 2.127 3.306 4.229 4.415 6.93.396.965.606 2.683 1.424 3.133.47.258 1.481.19 2.374.19h12.057c1.397 0 3.899.356 4.177-.712.229-.882-.614-2.076-1.044-2.8-1.518-2.551-3.439-4.618-5.791-6.171-3.013-1.989-7.173-3.778-12.39-3.465-1.049.062-2.111.204-3.418.474z"/><path d="m32.491 36.367c.944 1.065 1.713 2.305 3.085 2.943.814-.149 1.272-.825 1.756-1.329.505-.524.988-1.071 1.471-1.614 1.46-1.934 2.411-3.787 3.181-6.076.716-2.128 2.294-3.99 4.747-4.461.692-.133 1.551-.095 2.374-.095 3.825 0 8.084.047 12.056.047 1.481 0 3.116-.124 4.842 0 2.352.169 4.22 1.809 5.079 3.513 1.175 2.33.243 4.869-.712 6.693-1.925 3.677-4.903 6.709-8.117 8.971-3.306 2.327-7.51 4.125-12.721 4.415-5.122.285-9.094-.939-12.437-2.516-.502-.237-.997-.669-1.566-.664-.433.003-1.011.38-1.519.617-3.357 1.564-7.094 2.575-12.152 2.373-2.492-.099-4.969-.651-6.977-1.424-6.09-2.342-10.346-6.171-13.433-11.677-1.006-1.793-1.998-4.143-1.092-6.551.656-1.743 2.398-3.726 4.652-3.892 1.706-.126 3.38-.045 4.984 0 3.182.088 6.596 0 9.873 0 1.55 0 3.818-.23 5.126.142 2.37.673 3.772 2.377 4.462 4.604.669 2.157 1.679 4.246 3.038 5.981zm-7.404-2.468c-.394-.955-.519-2.674-1.519-3.085-.534-.22-1.643-.095-2.611-.095-3.534 0-5.756.048-9.588.047-1.007 0-2.173 0-3.37 0-1.229-.001-2.533-.138-2.753.617-.162.555.272 1.213.569 1.804.312.62.574 1.167.854 1.614 1.89 3.01 4.589 5.554 7.737 7.073 2.154 1.04 4.657 1.89 7.832 2.041 1.6.076 3.274-.106 4.604-.333.897-.152 3.532-.515 3.607-1.329.04-.432-.667-1.004-.949-1.329-1.158-1.334-2.026-2.508-2.896-3.987-.592-1.11-1.052-1.91-1.517-3.038zm17.277 9.351c.634.187 1.283.39 1.946.522 4.596.915 9.348-.052 12.531-1.709 3.817-1.986 6.89-4.622 8.829-8.544.273-.554.729-1.333.569-1.851-.296-.962-2.789-.665-4.225-.665-1.655 0-3.219 0-4.651 0-2.254 0-4.641-.154-6.883-.047-.756.036-1.525-.039-2.231 0-1.387.076-1.678 2.108-2.184 3.275-1.185 2.738-2.726 4.884-4.462 6.835-.352.395-.801.719-.902 1.376.334.571 1.076.634 1.663.808z"/></g></svg>