<svg enable-background="new 0 0 185.77 184.671" viewBox="0 0 185.77 184.671" xmlns="http://www.w3.org/2000/svg"><path clip-rule="evenodd" d="m185.276.169c.284 5.695.208 11.547.207 17.352 0 2.939.058 5.881.053 8.781-.006 2.791-.108 5.541 0 8.26.234 5.9-.277 11.805 0 17.662.275 5.826.052 11.693.052 17.561 0 22.137.153 43.666.155 65.51 0 1.389.124 2.828-.155 4.209-15.077.328-30.351.025-45.717.363-.314.807-.156 1.707-.156 2.545-.001 14.07.131 28.094-.052 41.822-7.635.244-15.368.205-23.118.207-22.334.004-44.151.145-66.29.156-.987 0-2.065.166-2.806 0-.227-.053-.308.035-.415-.209-.112-10.014-.104-19.893-.105-30.08 0-3.357-.124-6.635.105-9.713.042-.045.142-.031.155-.105 14.129-.065 28.675-.17 42.601-.104.015.105.141.102.155.209.145 11.477-.005 23.078.208 34.494.019.068.092.082.104.156 1.684.088 3.718.084 5.402 0 .016-.105.141-.101.156-.207.04-12.754.131-25.949-.156-39.016-31.386-.258-63.559.393-95.278-.053-.022-.045-.046-.092-.104-.104-.145-45.992-.336-92.934-.26-139.176-.014-.084.05-.09.053-.156 10.393-.096 21.803 0 32.781 0 2.555.002 5.45-.006 8-.051 1.061-.02 2.346-.127 2.961.207.084 38.99.311 77.826.312 117.098v8.156c0 2.877-.018 5.883.104 8.676.047.092.116.162.208.209 1.959.15 3.977-.07 6.026 0 .078-.113.26-.121.26-.312-.146-19.605.199-40.008-.052-60.004-.104-8.27-.082-18.226 0-26.754.068-.02.081-.092.155-.104 29.298-.139 58.832-.211 88.473-.26.023.047.046.092.104.104.346 28.785.052 57.719.363 86.811.051.002.04.062.052.104 1.946.205 4.463.105 6.494.053.023-.047.046-.094.105-.105.138-42.963-.171-85.207-.208-128.631-.07-.051-.104-.139-.156-.207-2.178-.082-4.514-.104-6.494.103-.242 1.426-.155 2.916-.155 4.416-.001 4.57.001 9.016 0 13.508-.001 5.949.258 12.377-.052 18.234-7.099.24-14.488.207-21.82.207-7.354.002-14.684.049-21.819-.051-.044-.043-.03-.143-.104-.156-.047-13.615-.156-27.623-.052-41.301.046-.024.093-.045.104-.104 26.771-.275 54.674-.027 81.355-.365 2.754-.034 5.544-.013 8.261.155zm-89.668 53.77c-.004-.318.132-.84-.26-1.039-1.499-.078-3.826-.133-5.403.053-.232 13.85-.052 27.025-.052 40.781.001 13.588-.034 27.309.208 40.834.728.268 1.761.156 2.754.156 1.006-.002 2.062.104 2.805-.156.015-26.82.228-53.471-.052-80.629z" fill-rule="evenodd"/></svg>