<svg enable-background="new 0 0 209.135 172.33" viewBox="0 0 209.135 172.33" xmlns="http://www.w3.org/2000/svg"><path clip-rule="evenodd" d="m160.616.272c.498.941.062 2.817.48 3.838.775.734 3.272.632 4.078 0 .576-.823-.104-2.903.48-3.718.711-.555 2.717-.451 3.598-.12.519 3.726.129 8.979.24 12.715-.945.413-3.023.345-3.838-.12-.475-.845-.056-2.584-.36-3.599-.645-.706-2.994-.606-3.958-.239-.695.744-.121 2.757-.481 3.838-.749.65-2.637.161-3.719.48-.062 1.936 3.061 2.432 3.119 4.198.062 1.885-3.1 2.519-3.599 4.438.357.877 1.032 1.543 1.8 2.279.605.581 1.539 1.662 2.279 1.68 1.915.046 2.45-3.093 4.438-3.479 1.812.707 2.387 2.65 4.199 3.358.759-.6.039-2.68.6-3.479.844-.556 2.604-.194 3.718-.481.583-.703.479-3.08.12-3.958-.833-.566-2.867.068-3.719-.48-.57-.744-.472-3.042-.119-3.959 3.854-.125 8.818-.35 12.475.12.149.994.303 2.909-.12 3.719-.851.549-2.864-.065-3.718.48-.383.868-.383 3.091 0 3.959.814.584 2.895-.096 3.718.479.538.763.538 3.075 0 3.839-3.655.463-8.624.251-12.476.119-4.354 4.604-9.061 8.852-13.314 13.555.357 8.44-.117 17.711.24 26.15 6.139.286 13.566.12 20.871.119 1.787 0 3.83.322 5.158 0 1.116-.271 2.569-2.208 3.6-3.238 3.5-3.501 6.648-6.684 9.836-10.316.188-4.018-.365-8.834.239-12.115.799-.379 2.92-.379 3.719 0 .549.851-.04 2.84.48 3.719.846.596 3.072.445 3.959 0 .555-.885.086-2.792.6-3.719.765-.378 2.834-.378 3.599 0 .394 3.578.399 8.779 0 12.355-.791.353-2.816.396-3.599 0-.494-.865-.057-2.662-.48-3.599-.642-.755-2.974-.559-3.958-.239-.687.997-.052 2.75-.48 3.838-.594.646-2.406.073-3.119.6.047 2.02 2.648 2.039 2.76 3.719.108 1.661-3.496 2.872-3.6 4.438-.059.895 1.275 1.874 1.8 2.399.827.826 1.251 1.309 2.278 1.799 1.682-.079 2.677-3.572 4.439-3.599.988-.015 1.855 1.376 2.278 1.8.55.549 1.797 1.302 1.8 2.158.003 1.035-2.149 2.629-2.999 3.479-1.183 1.184-2.22 2.298-3.118 3.239-2.18 2.099-4.383 4.175-6.358 6.478 2.472 3.072 6.238 6.479 9.477 9.716.911.911 2.978 2.37 2.999 3.358.018.825-1.086 1.686-1.68 2.279-.734.734-1.243 1.388-2.159 1.68-1.774-.625-2.433-3.584-4.318-3.599-1.575-.013-3.089 3.064-4.078 3.958.356 2.062 3.552 2.523 3.599 4.439.037 1.495-3.02 3.265-3.959 4.079-2.637-1.698-4.465-4.267-6.717-6.358-2.24-2.08-4.228-4.406-6.598-6.357-6.253-.091-12.775.119-19.553.12-2.113 0-4.54-.533-6.477-.12-1.227.262-2.422 2.062-3.479 3.119-3.428 3.428-6.267 6.629-9.836 9.836-4.133 4.584-8.524 8.909-12.715 13.435.171 17.184.465 36.235.12 53.14-2.37.732-5.378.24-8.277.239-2.956 0-5.968.191-8.517-.239-.717-5.466.078-11.755-.6-17.153-4.954-.703-11.877-.237-17.273 0-.71 5.207.229 12.065-.48 17.274-5.287.473-11.909.243-17.393.119-.649-3.084-.36-6.43-.36-9.716.001-13.275-.24-26.94-.24-40.064 0-1.081.283-2.434.12-3.238-.206-1.016-2.319-2.56-3.239-3.479-7.88-7.879-15.279-15.263-23.151-23.031-8.438-.158-17.511.317-25.55-.24-.388-2.276-.4-6.122 0-8.396 2.248-.591 5.746.068 8.037-.479.835-1.869.559-6.044.24-8.277-1.982-.937-5.981.143-8.157-.6-.977-1.742.257-5.695-.72-7.437-1.888.351-2.122 2.356-3.838 2.879-2.052-.363-2.536-3.545-4.439-3.599-1.483-.042-3.272 3.024-4.079 3.958.002 1.761 3.499 2.785 3.599 4.438.091 1.51-3.153 3.281-3.958 4.198-2.583-1.694-4.406-4.149-6.597-6.237-2.213-2.024-4.364-4.111-6.236-6.478.304-1.171 1-1.479 1.799-2.279.519-.519 1.279-1.8 2.159-1.799 1.523 0 2.871 3.44 4.439 3.479 1.639.039 3.113-3.09 4.078-3.959.024-1.789-3.483-2.625-3.598-4.318-.06-.878 1.001-1.641 1.679-2.278.539-.508 1.343-1.682 2.159-1.68 1.077.002 2.652 2.292 3.478 3.119 3.032 3.031 6.967 7.235 9.956 9.596 8.414.02 17.49-.313 25.43 0 .457 2.23.254 5.732.12 8.157-2.041.918-6.051-.134-8.277.6-.71 2.016-.312 5.754-.24 8.156 1.875 1.165 6.148-.069 8.397.72.715 2.084-.299 5.897.6 7.797 1.583-.653 2.862-2.184 4.318-3.718.554-.584 3.006-3.776 4.078-3.839 1.261-.073 3.465 2.985 4.438 3.958.692.692 1.347 1.228 2.159 2.04.61.61 1.505 1.886 2.279 1.919.808.035 1.957-1.357 2.399-1.8 1.629-1.629 2.488-2.571 4.078-4.318.601-.659 1.919-1.408 1.919-2.278 0-1.125-3.255-3.735-3.958-4.438-1.635-1.635-2.517-2.392-3.959-4.318.915-1.695 2.409-2.889 3.719-4.198 1.297-1.297 2.797-2.549 3.598-4.318-1.958-.721-5.654.297-7.437-.6-.656-2.183.186-5.863-.479-8.037-2.249-.743-5.542-.347-8.157-.24-1.219 2.026.161 6.079-.6 8.397-2.39.456-6.053.255-8.636.119-.282-8.698-.022-17.257-.12-26.029-2.468-3.389-6.329-6.436-9.357-9.716-.362-.393-.868-1.28-1.319-1.8-.629-.724-1.42-1.149-1.44-1.68-.033-.906.994-1.312 1.679-2.158.626-.773 1.024-1.793 1.919-1.8 1.61-.013 2.922 3.435 4.438 3.479 1.01.029 3.957-2.873 3.958-3.958.003-1.445-3.464-2.824-3.479-4.438-.014-1.558 2.899-2.39 3.119-4.078-.784-.495-2.522-.037-3.358-.48-.496-.903-.204-2.595-.48-3.718-.619-.733-3.008-.593-3.958-.24-.563.957-.076 2.963-.6 3.958-.927.372-2.574.226-3.479-.12-.381-3.635-.408-8.844 0-12.475.656-.557 2.81-.511 3.479 0 .46.819.044 2.516.36 3.478.56 1.023 2.686.478 3.838.36.851-.629.24-2.72.6-3.839.734-.512 2.833-.505 3.719-.12.431 3.819.276 8.826.24 12.715 4.462 4.295 8.482 9.032 13.315 12.955 3.531-2.88 6.588-6.229 9.836-9.476 1.039-1.039 1.937-2.381 3.359-2.999 1.379 1.14 2.732 2.307 3.718 3.838-.768 1.911-2.827 2.531-3.599 4.438.862 1.816 2.464 2.893 3.959 4.078 1.041-.392 1.382-.966 2.279-1.799.437-.406 1.455-1.757 2.159-1.8.935-.057 1.703 1.224 2.279 1.8.521.52 1.79 1.243 1.799 2.159.011 1.036-2.296 2.707-3.119 3.479-3.298 3.093-6.811 6.946-9.596 9.836.001 6.454 0 12.831 0 19.433 0 2.088-.4 4.626 0 6.478.236 1.09 2.161 2.521 3.119 3.479 3.29 3.288 6.715 6.715 9.836 9.836 4.541 4.541 8.641 9.15 13.314 12.955 1.373-.749 2.4-2.04 3.479-3.119 3.233-3.232 6.488-6.676 9.836-9.956 4.336-4.421 8.966-8.547 13.075-13.194-.098-6.53.131-12.923 0-19.553-.038-1.913.425-4.484 0-6.237-.264-1.089-2.112-2.472-3.119-3.479-3.383-3.384-6.409-6.309-9.596-9.836.225-1.024.983-1.505 1.799-2.279.542-.515 1.444-1.772 2.159-1.8 1.608-.062 2.844 3.38 4.438 3.599 1.091-.213 1.468-.987 2.279-1.799.564-.565 1.778-1.302 1.799-2.159.042-1.712-3.549-2.875-3.599-4.438-.024-.759 2.954-3.838 3.838-3.838.951 0 2.942 2.462 3.359 2.879 3.055 3.055 6.017 6.688 9.356 9.356 4.774-3.942 8.638-8.795 13.315-12.835-.201-1.982-.12-4.45-.12-6.837 0-2.289-.438-4.93.601-6.357.913-.137 2.642-.314 3.362.115zm-25.429 26.509c-.96.847-3.968 2.944-3.958 4.079.015 1.666 3.656 2.678 3.599 4.439-.762 1.677-2.562 2.316-3.239 4.078 1.795.924 5.573-.136 7.557.6.582 2.479.048 5.777.48 8.156 1.992.576 6.166.587 8.157 0 .863-2.033-.025-5.982.48-8.036 1.864-.896 5.45-.068 7.558-.72-.068-1.779-3.303-2.566-3.239-4.318.069-1.907 3.529-2.648 3.479-4.438-.026-.947-1.212-1.484-1.8-2.039-.567-.537-1.271-1.799-2.158-1.8-.688 0-1.848 1.284-2.279 1.68-.896.82-1.129 1.529-2.159 1.92-1.785-.775-2.491-2.627-4.199-3.479-1.669.81-2.308 2.65-4.078 3.359-1.716-.848-2.388-2.735-4.201-3.481zm-65.974 3.719c-1.631-.888-2.468-2.57-4.078-3.479-1.787.812-2.344 2.854-4.318 3.479-1.591-.206-2.658-3.592-4.438-3.479-.627.04-1.681 1.321-2.159 1.8-.575.575-1.736 1.41-1.679 2.278.106 1.622 3.505 2.672 3.599 4.318-.56 1.839-2.72 2.079-3.119 4.079 1.945.733 5.68-.322 7.437.6.663 2.216-.186 5.942.479 8.156 2.168.636 6.194.479 8.397 0 .678-2.241-.201-6.038.479-8.276 1.961-.759 5.844.405 7.437-.72-.29-1.63-2.598-2.279-3.119-4.078.908-1.771 2.868-2.49 3.599-4.438-1.237-1.482-2.208-3.23-4.318-3.839-1.616.984-2.39 2.81-4.199 3.599zm70.652 26.989c-.007.073-.018.143-.12.12-.476 2.443.382 6.221-.48 8.277-2.011.668-5.546-.189-7.557.479.277 1.143 1.156 1.756 1.68 2.279.656.655 1.185 1.252 1.919 2.039.719.771 3.839 3.015 3.839 4.198 0 1.184-3.345 3.824-3.958 4.438-.86.859-4.034 3.406-3.958 4.558.045.685 1.318 1.559 1.919 2.159 1.658 1.658 2.45 2.483 4.079 4.079.561.549 1.419 1.949 2.279 1.919.705-.024 1.593-1.354 2.159-1.919 1.6-1.602 2.598-2.479 4.199-4.079.595-.595 1.411-1.95 2.279-1.919.882.032 2.462 2.102 3.119 2.759 1.137 1.138 1.84 2.11 2.998 2.879.635.539 1.175 1.767 2.16 1.56.728-1.989-.315-5.752.6-7.557 2.204-.675 5.952.194 8.156-.48.613-2.051.479-6.043.12-8.276-2.175-.914-6.067.226-8.396-.72-.343-2.457-.095-5.503-.36-8.037-2.407-.471-6.131.373-8.156-.479-.725-2.234.317-6.235-.6-8.277-2.374-.351-5.35-.134-7.92 0zm55.898 12.716c-.052-1.119-3.031-3.459-4.078-3.959-1.898.508-2.574 3.604-4.318 3.599-1.801-.006-1.965-2.924-4.078-2.999-.793 2.007.451 6.049-.72 7.678-2.7.059-5.688-.171-7.917.359-.642 2.045-.451 6.04-.12 8.276 2.208.751 6.262-.344 8.276.601.635 2.163-.258 5.856.6 7.797 1.941-.352 2.353-3.274 4.199-3.239 1.77.034 2.436 3.089 4.318 3.599 1.701-1.018 3.061-2.377 4.078-4.078-.414-2.047-3.67-2.667-3.599-4.559.068-1.809 3.177-2.282 3.599-4.198-1.055-1.665-2.964-2.474-3.719-4.438.52-1.887 3.57-2.486 3.479-4.439zm-104.239 26.509c-1.059-1.152-3.725-4.598-4.918-3.838-1.479.941-2.665 2.665-4.078 4.078-1.409 1.408-3.097 2.622-3.839 4.318 2.323 3.274 5.814 5.382 8.037 8.757-1.103 1.646-2.631 2.89-3.959 4.318-1.314 1.414-2.968 2.606-3.838 4.438 4.826.992 11.856-.484 16.794.6.78 5.161-.378 12.315.6 17.153 5.259.487 11.79.206 17.033-.12.83-2.292.48-5.502.48-8.516 0-3.075-.192-6.201.24-8.757 4.944-.736 11.246.265 16.074-.36.027-.962-.934-1.653-1.56-2.279-2.054-2.053-4.372-4.029-5.998-6.357 1.343-1.844 2.396-2.766 4.079-4.318.757-.699 3.963-3.274 3.958-4.438-.004-.782-1.32-1.681-1.919-2.279-1.703-1.702-2.549-2.669-4.198-4.318-.492-.492-1.512-1.973-2.399-1.919-.545.032-1.712 1.352-2.279 1.919-.775.775-1.398 1.478-2.039 2.159-.936.995-3.091 3.991-4.439 3.958-.801-.02-1.657-1.297-2.279-1.919-2.274-2.274-4.339-4.534-6.597-6.237-3.259 2.299-5.245 5.87-8.637 8.037-1.373-1.086-2.832-2.462-4.319-4.08z" fill-rule="evenodd"/></svg>