<svg enable-background="new 0 0 78.984 75.663" viewBox="0 0 78.984 75.663" xmlns="http://www.w3.org/2000/svg"><path clip-rule="evenodd" d="m14.693.169c.268 20.038-.116 40.205.099 60.623 1.516.268 3.121.149 4.709.149 11.198-.004 22.634.101 33.757.099 3.502-.001 5.858-.344 7.732-1.982 1.684-1.473 3.099-3.634 2.975-6.741-.163-4.062-3.125-7.079-6.742-7.832-1.447-.302-2.945.048-4.511-.298-.116-4.933-.146-9.858.05-14.771 1.558-.185 3.215.029 4.56-.298 3.522-.856 6.696-4.565 5.205-9.071-.778-2.35-2.66-4.188-5.155-4.808-1.384-.344-3.115-.198-4.808-.198-4.969 0-10.061-.075-14.821 0-.26.503-.149 1.121-.149 1.686 0 3.917-.185 8.548.05 12.441 2.213.164 4.666.149 6.939.149.773 0 1.562-.108 2.231.149.253 4.731.121 9.634.049 14.722-1.359.317-2.962.099-4.511.099-1.587.001-3.172-.04-4.66.05-.266.931-.149 1.958-.149 2.975 0 2.879.042 6.055-.099 8.972-3.688.182-7.612.1-11.55.1-1.27 0-2.548.119-3.718-.149-.254-1.857-.099-3.837-.099-5.799 0-1.958-.14-3.939 0-5.8.032-.429.049-.619.396-.793-.38-.061-.357-.267-.396-.595-.206-1.741 0-3.676 0-5.503 0-12.193-.072-25.026.149-37.573 9.903-.186 20.042.003 30.287 0 2.084 0 4.113-.099 5.998.148 7.024.922 12.014 4.262 15.515 9.022 1.735 2.359 3.167 5.337 3.767 8.476 1.505 7.875-1.219 14.555-4.808 18.787.438.842 1.096 1.517 1.636 2.28 2.546 3.602 4.721 8.672 4.312 15.02-.457 7.091-3.308 12.114-7.485 15.862-2.802 2.514-5.933 4.488-10.162 5.402-2.237.484-4.715.496-7.287.496-17.959-.001-36.292-.146-53.832-.248-.258-1.385-.086-2.87-.149-4.361-.065-1.552.049-3.164.049-4.759 0-9.479.149-19.149.149-28.553 0-11.903.05-23.433.05-35.541 0-.701-.173-1.512.248-2.131 4.682-.041 9.907-.181 14.179.097z" fill-rule="evenodd"/></svg>