<svg enable-background="new 0 0 76.532 82.008" viewBox="0 0 76.532 82.008" xmlns="http://www.w3.org/2000/svg"><g clip-rule="evenodd" fill-rule="evenodd"><path d="m15.573.208c.263 14.327-.162 30.231.102 44.34 2.017.207 4.358.102 6.699.102h3.477c1.139 0 2.274-.12 3.274.153.17 4.802.17 10.334 0 15.189-8.516.199-16.844.102-25.469.102-1.171 0-2.358.155-3.477-.102-.273-2.443-.153-4.959-.153-7.467-.001-5.003.001-10.094 0-15.138-.001-7.039.051-14.861.051-22.4 0-3.722.052-7.349.051-11.2 0-1.202-.119-2.444.154-3.631 2.847-.184 5.907-.084 8.899-.154 1.103-.026 2.228.103 3.324.051 1.061-.049 2.122-.135 3.068.155z"/><path d="m45.952.208c.285 4.783.197 10.438 0 15.24-4.836.17-10.402.17-15.292 0-.24-2.473-.052-5.123-.051-7.722 0-2.587-.144-5.168.103-7.518 2.01-.147 4.136-.133 6.238-.153 3.001-.03 6.143-.096 9.002.153z"/><path d="m76.432.259c.191 18.27.05 37.13.051 56.205 0 1.216.117 2.445-.153 3.631-1.127.225-2.305.106-3.478.154-3.648.146-7.246-.051-10.791-.051-4.889 0-9.853.086-14.678-.102-.098-3.705-.22-7.866-.103-11.609.04-1.26-.082-2.492.153-3.631 4.3-.253 9.331.015 13.502-.204.277-.865.153-1.823.153-2.71 0-2.84-.021-5.636.051-8.439.093-3.632-.188-7.309-.051-10.996.135-3.607.052-7.532.051-11.302 0-2.663.022-5.685 0-8.387-.006-.738-.025-2.346.205-2.608.037-.048.093-.078.153-.102 2.482.006 5.002 0 7.518 0 2.477-.002 5.074-.122 7.417.151z"/><path d="m45.9 45.06c.306 5.938.104 12.286.103 18.514-.001 6.254.021 12.421-.153 18.309-4.84.183-10.567.135-15.24.051-.277-1.484-.153-3.027-.154-4.552-.001-9.372.052-18.461.052-27.821 0-1.52-.124-3.042.153-4.5 4.977-.124 10.564-.254 15.239-.001z"/></g></svg>