<svg enable-background="new 0 0 78.307 73.192" viewBox="0 0 78.307 73.192" xmlns="http://www.w3.org/2000/svg"><path clip-rule="evenodd" d="m38.689 0c.45.393.258 1.302.258 2.066-.001 2.31.052 4.507.052 6.664-.001 5.905-.21 12.555.052 18.595 1.213.358 2.628.217 3.978.207 3.803-.029 8.234.1 12.241-.103.009-.517-.511-.796-.826-1.085-2.373-2.172-4.577-4.507-7.025-6.767-2.012-1.856-3.96-3.795-6.095-5.733-.591-.537-1.762-1.326-1.963-1.963-.239-.76-.038-2.067-.052-2.944-.043-2.824.027-6.058.207-8.885.595.11.946.66 1.343 1.033 1.178 1.109 2.446 2.222 3.667 3.357 6.808 6.533 14.271 13.153 21.281 19.887 1.385 1.33 2.72 2.74 4.133 4.081 2.394 2.271 4.984 4.521 7.438 6.973.329.328.916.873.93 1.085.031.472-.78 1.012-1.085 1.292-.473.435-.845.783-1.188 1.188-2.635 2.496-5.338 4.924-7.903 7.49-.649.649-1.233 1.339-1.911 1.963-7.294 6.705-14.537 13.681-21.849 20.454-1.241 1.082-2.436 2.312-3.668 3.461-.371.347-.791.838-1.343.878-.407-8.703.122-18.319-.155-26.756-1.062-.366-2.44-.207-3.822-.206-3.86 0-8.072-.044-11.88.051.017.479.479.789.774 1.085 4.085 4.083 8.442 8.061 12.759 12.087.589.549 1.722 1.254 1.911 1.911.227.787.019 1.982 0 2.893-.041 1.896 0 4.04 0 6.095 0 .984.147 1.999-.207 2.841-1.085-.481-1.706-1.427-2.53-2.17-5.722-5.229-11.221-10.681-16.891-15.961-6.04-5.646-12.057-11.205-18.183-16.996-.377-.356-1.114-.852-1.137-1.188-.025-.377.693-.9 1.085-1.291 2.71-2.71 5.73-5.454 8.419-8.006 4.938-4.686 9.663-9.041 14.463-13.74 4.693-4.594 9.739-9.241 14.515-13.688.029-.074.08-.126.155-.155.017 0 .035 0 .052 0zm-8.988 20.713c-.062.025-.117.055-.155.103-4.142 3.847-8.097 7.881-12.189 11.777-1.075.906-2.064 1.854-3.151 2.841-.288.262-.887.773-.878 1.137.01.373.683.872 1.033 1.188.395.356.771.81 1.085 1.136.787.82 1.65 1.478 2.324 2.169 1.146 1.175 2.314 2.16 3.409 3.254.373.373.726.899 1.291.981.265-1.256.155-2.742.155-4.184 0-1.421-.187-2.879.155-4.029 7.37-.194 14.982-.155 22.469-.155 1.037 0 2.124-.091 3.099.207.188 3.679.104 7.873.104 11.673 0 1.308-.119 2.626.155 3.822.65-.295 1.146-.871 1.652-1.343 3.692-3.445 7.233-7.009 10.848-10.486 1.063-.947 2.048-1.945 3.099-2.996.284-.284.963-.719.931-1.136-.02-.265-.729-.856-1.033-1.137-1.951-1.8-3.753-3.546-5.527-5.32-.752-.751-1.473-1.58-2.376-2.014-.42 2.399.089 5.84-.31 8.109-4.194.268-8.528.104-12.861.103-3.294 0-6.656.131-9.763 0-1.08-.045-2.171.159-3.202-.155-.03-4.354-.245-9.408-.052-13.792.025-.589.113-1.299-.259-1.756-.018.003-.036.003-.053.003z" fill-rule="evenodd"/></svg>