<svg enable-background="new 0 0 76.503 59.876" viewBox="0 0 76.503 59.876" xmlns="http://www.w3.org/2000/svg"><g clip-rule="evenodd" fill-rule="evenodd"><path d="m47.34 59.589c-.166-3.059-.18-6.208-.049-9.045 8.992-.757 14.59-5.314 17.9-11.901 1.65-3.282 2.58-7.985 1.715-12.52-.783-4.087-2.637-7.418-5-9.902-3.562-3.808-8.322-6.712-15.662-6.712-12.047-.001-24.762.091-36.465.238-.26.772-.189 1.621-.189 2.428-.002 12.843.057 25.493.189 38.274.678.257 1.426.143 2.143.143 11.062-.002 22.625-.183 33.609-.096.254 1.342.143 2.939.143 4.522 0 1.567.076 3.183-.096 4.57-.889.258-1.846.144-2.76.143-13.682-.002-28.668.291-42.561.048-.254-1.187-.143-2.404-.143-3.618 0-18.516-.225-37.57-.047-55.745.746-.345 1.639-.19 2.428-.19 9.508-.002 19.123-.145 28.467-.143 3.48.001 6.998.158 10.426 0 2.23-.103 5.354-.133 7.713.048 7.031.537 12.395 3.368 16.518 6.76 3.094 2.573 5.762 5.879 7.713 9.759 1.316 2.619 2.318 5.402 2.762 8.902.223 1.77.5 3.639.381 5.427-.484 7.225-2.81 12.607-6.143 17.138-.826 1.126-1.705 2.194-2.666 3.142-3.852 3.807-8.758 6.716-15.232 7.998-1.606.317-3.352.658-5.094.332z"/><path d="m47.721 10.651c8.305.921 13.584 5.134 16.566 11.425.768 1.617 1.244 3.453 1.523 5.475.299 2.166.094 4.284-.334 6.38-.766 3.77-2.566 6.813-4.807 9.14-2.354 2.443-5.02 4.325-8.617 5.379-3.711 1.088-8.471.856-13.139.857-9.156 0-18.781.128-27.754 0 .037-.487.619-.667.951-.904 5.154-3.669 10.354-7.307 15.662-10.997.328-.227.998-.663 1-.904.006-.5-.801-.542-1-.952-.418-.232-.807-.493-1.142-.81-4.889-3.462-9.965-6.902-14.852-10.473-.271-.199-.768-.382-.762-.81 5.109-.115 10.781-.143 16.281-.143 1.863 0 3.697-.126 5.475-.048 3.4.15 7.324.115 10.711-.095 1.801-.112 3.324-.298 4.521-1 1.496-.878 2.908-2.471 3.143-4.57.336-3.017-1.449-5-3-6.188-.227-.175-.59-.323-.619-.667.072-.025.122-.07.193-.095zm3.951 3.38c.086.569.451 1.007 1 1 1.246-.017 1.336-2.149-.191-1.904-.426.144-.749.393-.809.904z"/></g></svg>