<svg enable-background="new 0 0 28.739 46.319" viewBox="0 0 28.739 46.319" xmlns="http://www.w3.org/2000/svg"><path d="m7.178 9.719c1.613-5.639 7.157-9.729 13.007-9.719 2.85.01 5.7-.015 8.548.064.019 2.305-.012 4.609-.005 6.914-.001.136.01.385-.194.37-2.694.017-5.39-.003-8.084-.001-1.954-.11-3.967.77-5.145 2.347 5.696 0 11.18 3.899 12.811 9.399.239 1.042.711 2.034.551 3.127-2.856.012-5.712-.014-8.568-.003-3.395.009-6.675-2.113-8.033-5.228-.678.028-1.356-.001-2.034.012.462 1.805 1.714 3.335 3.078 4.567.004 7.364-.015 14.727-.076 22.09 4.313-.003 8.636.033 12.944-.003-.006-.615-.064-1.237.06-1.843-3.665-.184-7.353.002-11.025-.103-.019-6.256.13-12.513.027-18.757 1.575.651 3.244 1.191 4.972 1.189 2.887-.02 5.766.062 8.653.05-.306 5.897-5.095 11.088-10.895 12.101-.035.897-.058 1.795-.051 2.694 3.626.114 7.273.03 10.907.066.017 2.422.003 4.845-.003 7.267-6.063-.098-12.139-.032-18.206-.063-.034-3.246.015-6.493-.014-9.739-3.466-.001-6.937.058-10.403-.075.016-8.914-.029-17.829.079-26.743 2.366.015 4.733.032 7.099.02zm2.863-.013c.799-.131 2.095.464 2.419-.569 1.389-2.439 3.973-4.178 6.774-4.458 2.266-.052 4.533-.008 6.798-.011.076-.641.032-1.288.026-1.931-2.296-.059-4.603-.096-6.897.016-4.037.307-7.768 3.128-9.12 6.953zm-6.827 2.668c-.091 7.153-.059 14.303-.094 21.463 2.432.003 4.864.013 7.297 0 .024-.641-.018-1.281.014-1.92-1.765-.078-3.532-.018-5.299-.062.032-5.851-.039-11.705.07-17.553 3.45.025 6.9.003 10.35.014 3.361.047 6.437 2.268 7.827 5.28.672-.118 1.357.088 2.029-.063-1.385-4.09-5.483-7.135-9.819-7.143-4.125-.001-8.257-.017-12.375-.016zm12.026 4.69c1.092 1.591 3.065 2.506 4.976 2.467-1.093-1.585-3.05-2.61-4.976-2.467zm-7.392 1.88c-.051 3.43-.035 6.863-.024 10.293.868.009 1.737.011 2.605-.001-.019-2.165.036-4.335-.016-6.496-1.005-1.148-1.937-2.391-2.565-3.796zm9.945 7.665c-.01.7-.007 1.4-.003 2.102.883-.316 1.562-.971 2.187-1.643.005-.086.011-.17.02-.252-.735-.063-1.471-.108-2.204-.207zm5.483.201c-1.026 2.277-3.1 4.014-5.459 4.781-.13.665.001 1.341-.026 2.014 3.402-.895 6.441-3.415 7.59-6.788-.702-.009-1.403-.003-2.105-.007z"/></svg>