<svg enable-background="new 0 0 76.728 56.375" viewBox="0 0 76.728 56.375" xmlns="http://www.w3.org/2000/svg"><g clip-rule="evenodd" fill-rule="evenodd"><path d="m67.437.023c1.348-.1 2.896.125 3.874.553 3.484 1.528 6.794 6.115 4.83 11.421-.822 2.222-2.839 4.185-5.082 5.082-3.898 1.56-8.16-.383-10.113-3.169-1.11-1.585-1.844-3.754-1.66-6.139.17-2.201 1.114-3.709 2.214-4.83 1.213-1.237 2.487-2.24 4.327-2.717.413-.106 1.028-.158 1.61-.201z"/><path d="m59.085 56.174c-.165-4.57-.101-9.203-.101-14.138 0-1.573.221-3.3-.051-4.73-.225-1.187-1.202-2.358-2.112-2.969-2.667-1.788-6.333-.097-9.007.554-4.727 1.149-8.838 2.237-13.384 3.472-1.459.396-2.978.712-4.427 1.157-1.408.431-3.112.993-4.629.905-1.504-.086-2.788-.657-3.674-1.912-.9-1.108-1.25-2.539-1.811-3.823-1.701-3.893-3.407-7.768-5.132-11.673-1.715-3.879-3.33-7.88-5.031-11.824-.419-.969-.781-1.989-1.46-2.767-.18-.208-.57-.424-.451-.805 5.18-.834 10.585-1.51 15.798-2.163 3.013-.378 3.984 2.566 4.931 4.73.557 1.272 1.223 2.497 1.61 3.724.846 2.674 2.066 5.114 3.119 7.497 1.087 2.458 2.175 4.979 3.271 7.346 1.068 2.306 1.97 5.28 4.932 5.685 2.059.13 3.389-.659 5.131-1.107 3.605-.927 7.238-2.163 10.868-3.17 4.229-1.173 8.584-2.325 12.831-3.623 1.046-.319 2.246-.824 3.471-.352.824.317 1.683 1.033 1.912 1.862.289 1.042.151 2.546.151 3.824 0 2.646-.001 5.199 0 7.95 0 1.243.223 2.889-.051 3.874-.189.682-1.36 1.249-1.962 1.711-2.137 1.641-4.021 3.186-6.239 4.729-2.334 1.904-4.907 3.615-7.397 5.434-.322.234-.624.698-1.106.602z"/><path d="m27.638 40.878c.294.781.135 2.278.101 3.22-.408.494-1.056.642-1.61.906-3.895 1.854-8.023 3.593-12.075 5.333-4.601 1.977-9.111 4.259-13.836 6.038-.269-.87-.15-1.818-.151-2.717-.001-6.422.001-12.964 0-19.874-.001-5.641-.05-10.871-.051-16.754 0-.943-.034-1.929 0-2.868.064-1.7-.054-3.241.554-4.378.608-1.139 2.038-2.304 3.622-2.365 1.672-.064 3.177.828 3.874 1.862.345.51.54 1.171.806 1.811.731 1.768 1.544 3.591 2.364 5.384 1.078 2.355 2.011 4.881 3.119 7.245 1.107 2.36 2.085 4.828 3.17 7.195.548 1.195 1.053 2.429 1.56 3.622.518 1.219.954 2.508 1.561 3.623.88 1.622 2.765 3.078 5.282 2.918.573-.036 1.186-.313 1.71-.201z"/></g></svg>