<svg enable-background="new 0 0 76.748 57.657" viewBox="0 0 76.748 57.657" xmlns="http://www.w3.org/2000/svg"><g clip-rule="evenodd" fill-rule="evenodd"><path d="m49.457 15.07c.656-.176 1.228-.705 1.849-1.119 1.739-1.16 3.895-2.209 6.762-2.335 3.974-.174 7.141.881 9.826 2.335 2.505 1.356 4.573 3.478 6.129 6.032 1.56 2.56 2.755 5.639 2.724 9.34-.062 7.225-4.24 12.661-9.097 15.226-2.571 1.358-6.228 2.557-9.972 1.995-1.753-.264-3.38-.695-4.719-1.362-1.341-.668-2.383-1.637-3.648-2.384-.653.914-1.059 1.864-1.848 2.53-2.79 2.353-7.28.695-8.221-2.481-.039-.131-.127-.504-.146-.681-.18-1.681-.051-3.559 0-5.399.051-1.815-.048-3.727-.048-5.643 0-7.243 0-14.986 0-22.571 0-2.058-.147-3.931.389-5.302.743-1.899 2.934-3.777 5.74-3.113 1.684.398 2.827 1.437 3.502 2.772.817 1.615.632 3.623.632 5.837 0 2.102-.09 4.319.146 6.323zm-1.459 14.983c.267.639 1.008 1.323 1.751 1.557 1.158.364 3.206.146 4.719.146h9.826c1.55 0 3.725.186 4.719-.195.768-.295 1.413-1.04 1.605-1.654.463-1.481-.392-2.846-1.459-3.308-1.252-.542-3.196-.243-4.621-.243-3.467-.001-6.38 0-9.632 0-1.58 0-3.411-.056-4.718.048-1.772.142-2.908 1.929-2.19 3.649z"/><path d="m10.59 42.749c-.325.41-.194.996-.194 1.508v5.108c0 2.376.006 4.399-.924 5.886-.862 1.377-2.836 2.735-5.108 2.336-1.885-.332-3.426-1.661-4.038-3.454-.4-1.172-.243-3.113-.243-4.816 0-3.52 0-6.598 0-10.069 0-1.658.106-3.353.097-4.913-.027-4.684-.146-9.211-.146-13.961 0-1.597-.103-3.258.048-4.719.183-1.76 1.641-3.212 2.821-3.746 2.389-1.079 4.986-.132 6.324 1.606.365.474.44.971.973 1.508.728-.285 1.289-.816 1.898-1.216 1.875-1.233 4.05-2.255 6.956-2.481 3.314-.258 6.646.612 8.708 1.752 4.466 2.468 7.948 6.003 9.243 11.675.66 2.891.674 6.232-.292 9.194-1.647 5.052-5.188 8.988-10.02 10.896-2.475.978-5.668 1.573-8.951 1.119-2.288-.317-4.006-1.276-5.594-2.286-.503-.321-.948-.804-1.558-.927zm12.064-23.788c-.425-1.001-1.523-1.812-2.967-1.605-1.33.191-2.161 1.358-2.189 2.773-.036 1.771.247 4.048-.097 5.935-2.063.256-4.667-.03-6.81.146-2.325.496-2.418 4.275-.146 5.01.774.25 2.355.128 3.502.146 1.219.019 2.453-.093 3.502.097.171 1.059.097 2.253.097 3.502 0 1.168-.212 2.574.098 3.502.761 2.285 4.306 2.089 5.107 0 .374-.973.146-2.292.146-3.405 0-1.235-.08-2.467.097-3.648 1.039-.171 2.218-.097 3.405-.097 1.179 0 2.483.255 3.405-.048 2.213-.729 2.235-4.339-.097-5.011-1.132-.326-2.333-.05-3.454-.097-1.115-.047-2.196.093-3.259-.146-.494-2.134.429-5.239-.34-7.054z"/></g></svg>