<svg enable-background="new 0 0 16.941 17.134" viewBox="0 0 16.941 17.134" xmlns="http://www.w3.org/2000/svg"><path d="m.003 0c2.268.001 4.536-.002 6.805.002-.017 1.2-.001 2.4-.008 3.599-.474-.008-.948.005-1.422-.008.002 3.316 0 6.633.001 9.95 1.308-.004 2.615-.001 3.923-.001.969.01 1.954-.201 2.792-.7 1.496-.858 2.481-2.554 2.439-4.283.803-.004 1.606.002 2.408-.003-.012 2.859-.001 5.719-.005 8.578-5.642-.005-11.284-.004-16.926 0-.012-1.199.007-2.398-.01-3.596.488.006.975.003 1.462.002.012-3.314.002-6.628.005-9.942-.485.001-.97 0-1.456.004-.015-1.201.004-2.402-.008-3.602z"/><path d="m6.796 4.981c.941.015 1.883-.01 2.824.012.948.041 1.886.457 2.523 1.165.961 1.009 1.204 2.601.642 3.867-.342.8-.997 1.463-1.792 1.816-.574.274-1.218.351-1.848.34-.783.002-1.566-.004-2.349.004-.001-2.402 0-4.803 0-7.204z"/></svg>