<svg enable-background="new 0 0 104.649 97.98" viewBox="0 0 104.649 97.98" xmlns="http://www.w3.org/2000/svg"><g clip-rule="evenodd" fill-rule="evenodd"><path d="m90.538 33.904c2.375-1.473 4.918-3.681 4.555-7.552-.302-3.216-3.729-6.049-5.634-7.432-2.492-1.808-5.596-3.186-8.75-4.195-6.925-2.215-15.873-2.38-22.415-.6-12.828 3.491-23.036 12.305-26.373 25.413-1.879 7.384-1.47 16.271.719 22.535 6.656 19.042 30.437 22.24 56.338 20.138-.538 4.976-1.019 10.009-1.678 14.864-39.778 3.318-79.89-1.215-86.424-35.241-1.794-9.341-.771-19.211 2.517-26.491 8.015-17.744 23.215-29.097 43.752-33.803 14.221-3.259 31.603-1.16 42.313 4.555 6.889 3.676 14.237 9.273 15.104 18.82.321 3.54-.265 7.274-1.438 10.069-3.093 7.364-11.193 12.934-20.617 14.384-9.957 1.532-22.687.607-28.049-5.394-2.561-2.865-3.136-8.858-.959-12.586 2.655-4.546 9.213-6.626 15.703-6.952 9.359-.471 17.539 3.328 21.336 9.468zm4.435-.599c-.629.889-1.628 1.409-2.158 2.397 1.282.804 3.487 3.394 5.274 1.438-1.068-1.248-1.989-2.645-3.116-3.835z"/><path d="m86.582 23.116c1.398-.159 2.219.758 2.038 2.158-.284 2.188-3.687 2.048-3.836-.12-.093-1.339.654-1.908 1.798-2.038z"/><path d="m98.089 37.141c-1.788 1.956-3.993-.635-5.274-1.438.53-.988 1.528-1.509 2.158-2.397 1.127 1.189 2.048 2.586 3.116 3.835z" fill="#fff"/></g></svg>