<svg enable-background="new 0 0 72.073 64.498" viewBox="0 0 72.073 64.498" xmlns="http://www.w3.org/2000/svg"><g clip-rule="evenodd" fill-rule="evenodd"><path d="m70.552 0c.539.34.056 1.299-.143 1.801-2.979 7.558-8.659 13.232-17.061 15.402-.563.146-1.348.284-2.085.427-.425.082-1.907.437-1.99-.095-.067-.438.353-.467.663-.521-.122.022.732-.047 1.043-.095 4.533-.689 8.105-2.598 11.09-4.881 3.357-2.569 6.139-6.41 7.677-10.568.177-.478.234-1.375.806-1.47z"/><path d="m25.531 18.909c.292.905.103 1.89.095 2.843-.047 5.928.047 11.712.047 17.866 0 .954.111 1.939-.142 2.844-1.006.244-2.091.158-3.128.142-6.285-.096-12.805-.142-19.193-.142-1.021 0-2.095.112-3.08-.143-.19-1.857-.095-3.824-.095-5.829.001-4.8 0-9.914 0-15.022 0-.95-.169-1.977.237-2.796 7.405-.04 14.808-.019 22.225.095 1.015.015 2.051-.124 3.034.142z"/><path d="m48.846 18.956c.221.63.096 1.276.096 1.943 0 14.506.131 28.292-.096 43.172-1.646.318-3.271-.088-4.738-.426-4.286-.989-7.835-3.096-10.521-5.782-3.459-3.459-6.426-8.396-6.871-14.738-.572-8.154 2.805-13.626 6.635-17.629.828-.865 1.834-1.704 2.891-2.417 3.127-2.112 6.822-3.835 11.658-4.218.284-.022.702-.133.946.095z"/><path d="m72.067 41.419c-.812.305-1.766.213-2.653.189-5.359-.144-11.22.001-16.729 0-.888 0-1.815.11-2.653-.142-.223-7.118-.047-14.337-.048-21.42 0-.374-.14-.917.237-1.185 5.076.237 9.355 2.029 12.511 4.313 1.075.778 1.944 1.708 2.891 2.654 1.833 1.833 3.398 4.056 4.502 6.635 1.118 2.611 2.03 5.573 1.942 8.956z"/><path d="m24.915 43.599c.647-.626.483.843.427 1.184-.854 5.231-3.331 9.106-6.304 12.369-.504.555-1.18 1.093-1.801 1.611-1.104.921-1.963 1.735-3.223 2.464-2.277 1.319-4.999 2.382-8.197 2.891-1.334.211-2.617.379-4.219.379-.611 0-1.263.022-1.279-.379-.027-.679 1.396-.447 2.038-.474 7.809-.33 13.122-3.602 17.061-8.104.636-.727 1.216-1.613 1.753-2.464 1.474-2.333 2.557-4.474 3.271-7.677.1-.45.221-1.606.473-1.8z"/><path d="m71.357 45.874c.464.471.076 1.378-.095 1.99-.529 1.89-1.391 3.667-2.275 5.261-1.213 2.185-2.754 3.972-4.549 5.544-3.186 2.79-6.798 4.71-12.084 5.544-.551.087-1.94.354-1.99-.237-.055-.622 1.594-.524 2.227-.616 2.284-.333 4.674-1.226 6.398-2.038 1.266-.596 2.365-1.391 3.459-2.18 2.617-1.888 4.9-4.275 6.397-7.345.454-.93.818-1.878 1.185-2.891.348-.96.604-1.981 1.043-2.986.145.036.139-.081.284-.046z"/></g></svg>