<svg enable-background="new 0 0 81.398 82.137" viewBox="0 0 81.398 82.137" xmlns="http://www.w3.org/2000/svg"><g clip-rule="evenodd" fill-rule="evenodd"><path d="m.514 0c13.306.013 26.563.104 39.847.254-.046.634-.686.99-1.066 1.372-5.405 5.405-10.922 10.922-16.367 16.366-4.149 4.149-8.209 8.645-12.554 12.656-1.742 1.607-3.356 3.355-5.032 5.031-.832.833-1.737 1.62-2.541 2.491-.396.428-.78.923-1.22 1.321-.411.373-.811.866-1.372 1.017-.144-12.135 0-25.261 0-37.968 0-.883-.088-1.966.152-2.439.037-.047.092-.077.153-.101z"/><path d="m81.176.812c.308.279.201.755.203 1.119.066 12.768-.051 26.443-.203 39.39.087 13.236.104 27.395-.152 40.713-3.395.037-6.804.179-10.217.051-3.392-.127-6.814.031-10.267-.051-6.674-.159-13.589-.025-20.28-.254.155-.588.719-.922 1.118-1.321 1.243-1.243 2.535-2.535 3.812-3.812 5.047-5.046 10.319-9.965 15.4-15.045 3.385-3.384 6.784-6.783 10.165-10.165 2.542-2.542 5.113-5.013 7.675-7.573.837-.836 1.82-1.562 2.44-2.592-1.578-.271-3.209-.153-4.829-.153-11.356.003-23.245-.146-34.563-.305.028-.633.683-.932 1.067-1.321 2.828-2.857 5.762-5.875 8.641-8.742 9.954-9.92 19.716-20.03 29.785-29.835.035-.069.11-.097.205-.104z"/><path d="m.31 41.118c.043-.009.047.021.051.052 5.918 5.788 11.581 11.832 17.434 17.688 2.922 2.923 5.667 6.022 8.59 8.945 2.922 2.923 5.773 5.917 8.691 8.844 1.356 1.475 2.86 3.013 4.319 4.473.145.145.521.386.357.661-10.081-.027-20.01.137-30.039-.102-3.264-.078-6.488.066-9.657-.203-.149-11.538.05-23.296.051-35.122.001-1.688-.04-3.612.051-5.082.028-.074.079-.125.152-.154z"/></g></svg>