<svg viewBox="0 0 90 90" fill="none" xmlns="http://www.w3.org/2000/svg">
<path d="M70.0066 48.0346C70.0066 48.4703 70.0066 49.9708 71.3723 49.9708C74.3538 49.9708 74.9829 44.0054 74.9834 43.8688C74.9834 43.2115 74.4235 42.3328 73.3818 42.3328C70.9057 42.3328 70.0066 46.8891 70.0066 48.0346Z" fill="black"/>
<path d="M37.7285 43.3417C37.7548 42.7961 37.2526 42.2626 36.5068 42.2178C33.9734 42.0628 33.2649 46.3172 33.2649 46.3172C33.2649 46.3172 37.6057 46.8628 37.7285 43.3417Z" fill="black"/>
<path d="M9.0757 54.0125C9.0757 54.5335 9.98724 55.464 11.3871 55.4234C13.2226 55.3662 15.4255 53.6031 15.4255 53.6031C15.4255 53.6031 13.5591 52.8605 11.3871 52.7428C10.4894 52.6791 9.0757 52.8605 9.0757 54.0125Z" fill="black"/>
<path d="M34.0994 30.9591C34.236 29.7683 33.6951 28.4446 32.064 28.4446C28.0888 28.4446 26.3649 39.5478 26.3649 39.5478C26.3649 39.5478 33.3055 37.9482 34.0994 30.9591Z" fill="black"/>
<path fill-rule="evenodd" clip-rule="evenodd" d="M90 45C90 69.8528 69.8528 90 45 90C20.1472 90 0 69.8528 0 45C0 20.1472 20.1472 0 45 0C69.8528 0 90 20.1472 90 45ZM79.9288 49.5614C80.7609 49.5614 81.9332 48.7168 81.9332 48.7168L82.4603 50.4554C82.4603 50.4554 80.1886 52.5886 77.1642 52.5886C74.6834 52.5886 73.8711 50.7222 73.8711 50.7222C73.8711 50.7222 72.3438 52.5886 69.4989 52.5886C65.8574 52.5886 64.8729 49.7838 64.8729 49.7838C64.8729 49.7838 62.0497 52.7575 58.374 52.7575C54.7758 52.7575 53.2006 50.1434 53.2006 50.1434C53.2006 50.1434 50.3695 52.8614 46.7529 52.8614C43.2475 52.8614 43.0057 50.1434 43.0057 50.1434C43.0057 50.1434 38.6728 52.8614 34.2342 52.8614C30.318 52.8614 27.2792 51.3342 27.2792 47.7808C27.2792 43.8882 30.9895 40.6062 36.2792 40.6062C39.1458 40.6062 41.406 41.4697 41.406 43.7331C41.406 47.6958 34.9315 48.144 34.4109 48.144C33.7412 48.144 32.85 48.0863 32.85 48.0863V48.4103C32.85 49.1912 33.6051 50.5186 35.7955 50.3686C40.044 50.0645 43.0823 47.8643 43.0823 47.8643L45.0605 40.8568L50.6045 40.7728C50.6045 40.7728 48.4837 47.994 48.4837 48.4948C48.4837 48.8672 48.4837 49.704 49.5563 49.704C51.1255 49.704 52.3348 48.3138 52.4977 48.1168C52.4948 48.1017 52.4976 48.0556 52.5038 47.9555C52.5104 47.8495 52.5207 47.6829 52.5318 47.4286C52.6495 44.1111 55.9998 40.4271 60.9051 40.4335C63.1809 40.44 64.2955 41.3063 64.2955 41.3063L63.5903 43.6214C63.5903 43.6214 62.7905 42.4846 61.4834 42.4846C59.082 42.4846 58.2309 46.5291 58.2309 47.5528C58.2309 48.4952 58.524 49.9708 60.2852 49.9708C62.4863 49.9708 64.2803 47.9289 64.398 47.7928C64.398 47.7928 64.4045 47.7134 64.4261 47.1554C64.5471 44.5832 67.3283 40.2083 72.4025 40.2083C75.018 40.2083 75.7449 41.6783 75.7449 41.6783L76.0052 40.8115L80.9894 40.7451C80.9894 40.7451 78.9521 47.1554 78.9521 48.456C78.9521 49.0343 79.2978 49.5614 79.9288 49.5614ZM49.0597 57.2451C71.2855 57.5192 82.9348 53.4609 82.9348 53.4609L83.4581 55.1972C83.4581 55.1972 67.4294 60.2589 48.4205 60.2589C33.8982 60.2589 19.9749 55.0002 19.9749 55.0002C19.9749 55.0002 17.4032 57.6715 12.4528 57.6715C9.91662 57.6715 6.28385 56.3151 6.53216 53.4268C6.624 52.3089 7.91031 50.5278 11.6529 50.5278C14.5398 50.5278 16.8637 51.2982 16.8637 51.2982C16.8637 51.2982 19.3814 45.1588 19.89 41.9174C19.89 41.9174 17.3183 41.6442 15.5492 40.806L16.1492 39.1735C16.1492 39.1735 17.6266 39.7062 20.2482 40.0694C20.2482 40.0694 20.2606 40.0242 20.2934 39.8755C20.3232 39.7577 20.359 39.6069 20.4017 39.4274C21.1039 36.4728 23.6555 25.7363 31.6602 26.0478C34.0911 26.1517 36.5529 27.8575 36.5529 30.5049C36.5529 38.8722 26.0169 41.808 26.0169 41.808C26.0169 41.808 24.2049 48.1648 22.6685 51.2977C22.4202 51.7938 22.0422 52.5305 22.0422 52.5305C22.0422 52.5305 33.7302 57.0577 49.0597 57.2451ZM45.8617 36.576C45.8617 34.9191 47.1637 34.2009 48.9295 34.2009C50.2085 34.2009 51.9328 34.5526 51.9328 36.264C51.9328 37.9694 50.5015 38.7092 48.9295 38.7092C47.3672 38.7092 45.8617 38.2491 45.8617 36.576Z" fill="black"/>
</svg>
