<svg enable-background="new 0 0 67.681 77.977" viewBox="0 0 67.681 77.977" xmlns="http://www.w3.org/2000/svg"><path clip-rule="evenodd" d="m39.649.113c.263 1.359.145 2.985.145 4.564.001 1.573-.04 3.162.049 4.612.461.352 1.079.407 1.602.534 7.826 1.906 13.85 6.159 18.353 11.556.269.322.881 1.018.874 1.263-.014.462-1.384 1.258-1.699 1.505-1.259.986-2.281 1.808-3.544 2.865-.418.35-1.312 1.38-1.845 1.359-.401-.016-1.094-1.069-1.408-1.456-1.25-1.541-2.911-2.989-4.467-4.079-2.307-1.615-4.778-2.989-7.72-3.593-.341.601-.194 1.382-.194 2.088.001 3.676-.022 7.561 0 11.167.009 1.484-.226 2.954.097 4.321 8.835.355 18.137-.006 27.044.194.528 1.422.588 2.985.68 4.516.512 8.502-2.007 15.373-5.292 20.489-4.095 6.376-9.48 10.999-17.188 13.983-5.053 1.956-11.836 2.588-18.11 1.311-8.22-1.673-14.824-6.237-19.372-11.798-1.588-1.942-2.809-4.077-3.981-6.409-2.358-4.686-3.909-10.386-3.643-17.043.231-5.792 1.703-10.444 3.787-14.42.307-.585.493-1.209.777-1.796.515-1.066 1.383-2.145 2.136-3.156 4.434-5.954 10.523-10.585 18.741-12.721 1.387-.361 2.838-.535 4.321-.923.258-1.838.146-4.415.146-6.749 0-.619-.099-1.934.146-2.185.036-.045.088-.074.145-.097 3.11.063 6.472-.126 9.42.098zm-9.759 31.899c.212-3.501 0-7.22 0-11.41 0-.798.112-1.814-.388-1.845-.086-.006-.114.036-.194.048-3.858.613-7.123 2.207-9.759 4.224-1.929 1.476-3.729 3.193-5.292 5.195-.398.508-1.384 1.713-1.36 2.185.022.413 1.02 1.206 1.457 1.603 3.862 3.507 7.319 6.843 11.119 10.342 1.001 1.006 2.085 2.066 3.107 3.01.343.316.67.78 1.166.825.469-4.148-.148-9.367.144-14.177zm-20.538 9.517c-.108.722-.192 2.063-.146 3.107.137 3.122.829 5.843 1.7 8.011 2.5 6.23 6.557 10.708 12.332 13.546 3.706 1.821 9.217 3.063 14.226 2.039-.273-.799-1.048-1.243-1.602-1.796-.578-.578-1.166-1.139-1.748-1.699-5.859-5.645-11.61-11.085-17.527-16.702-1.693-1.606-3.462-3.414-5.244-5.05-.571-.523-1.388-1.498-1.894-1.602-.061.02-.1.062-.097.146zm42.338 5.097c-6.691-.001-14.337-.025-21.363.048-.035.563.598.841.922 1.166 1.102 1.103 2.268 2.148 3.399 3.156 2.933 2.893 6.011 5.641 8.982 8.497.791.666 1.381 1.532 2.185 2.185.331.294.67.644 1.117 1.068.259.246.862.982 1.262.971.215-.006.665-.432.971-.68 3.495-2.827 5.979-6.367 7.623-10.828.616-1.67 1.22-3.496 1.214-5.438-2.111-.221-4.173-.144-6.312-.145z" fill-rule="evenodd"/></svg>