<svg enable-background="new 0 0 55.107 72.24" viewBox="0 0 55.107 72.24" xmlns="http://www.w3.org/2000/svg"><g clip-rule="evenodd" fill-rule="evenodd"><path d="m54.04.146c.189 3.834.126 8.35.048 12.117-2.168.23-4.4.144-6.64.144-4.499 0-8.859-.05-13.329-.048-10.854.003-22.65.081-33.976-.097-.173-2.723-.095-6.078-.095-9.208 0-.815-.104-2.543.146-2.957.035-.045.087-.073.145-.097 4.544 0 9.064.001 13.571 0 6.784-.001 13.494.001 20.114 0 6.584-.001 13.338.006 20.016.146z"/><path d="m54.04 15.558c.182 2.017.146 4.095.097 6.204-.047 2.009.227 4.23-.097 6.155-4.451.318-8.974-.086-13.474.049-2.208.065-4.462-.09-6.688 0-4.457.18-8.818-.001-13.329 0-6.789.001-13.633.079-20.405-.097-.184-2.75-.097-6.034-.097-9.258 0-.833-.104-2.62.146-3.054.035-.045.088-.073.145-.097 18.3.02 35.425-.012 53.702.098z"/><path d="m55.107 43.427c-.48.237-1.045.187-1.551.193-3.978.061-8.159.08-12.213 0-13.311-.262-27.506.189-41.197-.145-.204-.894-.097-1.903-.097-2.957 0-3.06-.079-6.611.097-9.548 10.788-.139 22.899-.048 34.073-.049 4.404 0 8.612-.392 11.923.679.97.314 1.975.825 2.811 1.357 3.334 2.122 5.999 5.434 6.154 10.47z"/><path d="m55.058 46.868c.158 3.438-1.276 5.702-2.714 7.706-2.132 2.259-4.664 4.441-8.676 4.75-2.524.193-5.21 0-7.852 0-2.59-.001-5.232 0-7.803 0-5.135-.001-10.396-.201-15.17.097-.351 4.211.08 8.988-.243 12.698-3.927.161-8.529.161-12.456 0-.296-4.178-.027-8.484-.097-12.795-.065-4.05-.089-8.36.097-12.505 9.217-.375 19.435.138 29.032-.097 2.124-.052 4.261 0 6.398 0 6.33.001 12.967.008 19.484.146z"/></g></svg>