<svg enable-background="new 0 0 74.114 73.429" viewBox="0 0 74.114 73.429" xmlns="http://www.w3.org/2000/svg"><g clip-rule="evenodd" fill-rule="evenodd"><path d="m68.537 55.707c-.292-6.238.122-13.586-.244-19.911-.265.498-.05.975-.098 1.565-.462 5.67-2.756 9.89-5.919 12.964-2.424 2.326-5.428 4.023-9.295 4.893-4.149.932-8.881.089-11.937-1.419-2.994-1.478-5.712-3.689-7.631-6.556-1.898-2.834-3.236-6.686-3.18-10.958.038-2.828.908-5.482 1.908-7.631 1.982-4.262 5.344-7.388 9.833-9.246 2.547-1.055 5.774-1.788 9.05-1.419.294.033.756.175 1.027-.098-.206-.454-.833-.25-1.174-.245-7.043.105-14.837-.097-22.112-.098-3.895 0-7.797.049-11.692.05-2.971 0-5.921.049-8.806.048-.916 0-1.866.074-2.74-.195.619-1.354 1.543-2.403 2.397-3.521 2.995-3.869 6.888-6.849 11.3-9.345 4.385-2.479 9.674-4.251 16.095-4.549 3.895-.182 8.3.339 11.447 1.174 9.71 2.574 17.016 8.387 21.671 15.899 3.174 5.12 5.675 11.35 5.675 19.372-.001 6.988-1.8 12.745-4.354 17.464-.334.62-.576 1.399-1.221 1.762z"/><path d="m25.096 24.153c2.731 2.993 4.24 6.276 4.745 10.909.547 5.026-1.077 9.375-3.18 12.229-2.326 3.158-4.835 5.391-8.708 6.947-2.645 1.063-6.386 1.771-10.077 1.174-1.075-.174-2.251-.351-3.082-.783-.415-.216-.826-1.175-1.174-1.907-2.077-4.367-3.62-9.566-3.62-15.899 0-6.33 1.454-11.424 3.62-15.898.303-.626.721-1.607 1.076-1.859.605-.428 1.77-.601 2.642-.782 2.522-.526 5.349-.483 7.876.098 4.22.969 7.424 3.068 9.882 5.771z"/><path d="m68.292 56.196c-.203.73-.693 1.362-1.125 1.956-2.941 4.042-6.724 7.457-11.154 10.077-3.662 2.285-8.218 3.97-13.404 4.795-5.426.863-11.623.276-16.29-1.125-4.513-1.356-8.589-3.55-12.035-6.164-2.984-2.265-5.82-4.837-7.924-8.023-.286-.433-.664-.928-.685-1.467 21.058-.202 42.004-.187 62.617-.049z"/></g></svg>