<svg enable-background="new 0 0 111.45 183.008" viewBox="0 0 111.45 183.008" xmlns="http://www.w3.org/2000/svg"><path clip-rule="evenodd" d="m78.655 3.002c-15.354.173-30.075-.17-45.238-.051-.258.467-.191 1.672-.05 2.217 4.091.411 8.358-.052 12.645.151 4.18.198 8.458.101 12.694.101 6.321 0 12.611.101 18.992.101 2.137 0 4.28-.111 6.348 0 1.335.072 2.638 1.219 3.627 1.864.264.171.716.319.705.705-18.185.212-36.818-.314-55.012-.051-.159.497-.169 1.621 0 2.116 1.169.271 2.378.151 3.577.151 16.857 0 33.885.159 51.183.252 1.289.007 2.708.059 3.829.101.444.349.912.762 1.36 1.159.417.37 1.023.768 1.058 1.36-20.185.161-40.781-.218-60.956-.151-.343.402-.229 1.663-.101 2.217 1.265.27 2.6.151 3.879.151 19.505 0 39.869.287 59.645.302.457.299.75.762 1.058 1.209.298.394.863.779.806 1.36-21.174.165-43.72-.216-65.288-.151-.349.403-.229 1.71-.101 2.267 5.443.233 11.119.201 16.725.201 16.813 0 33.565.19 50.376.252h.151c.288.351.57.777.806 1.209.225.412.538.867.503 1.36-22.632.18-45.733-.271-68.562-.101-.175.628-.172 1.584 0 2.217 23.067.359 46.528.207 69.822.403.509.633.941 1.609 1.007 2.519-23.354.293-47.472-.257-70.779-.05-.312.409-.275 1.687-.05 2.166 23.538.453 47.767.223 71.686.453.445.598.716 1.633.705 2.519-24.479.338-48.154-.347-72.391-.05-.24.445-.237 1.72 0 2.166 23.944.384 49.542.187 72.945.454.246.644.471 1.791.302 2.519-24.262.273-48.713-.227-73.197-.151-.001.049-.062.039-.101.05-.154.552-.272 1.653 0 2.166 9.07.244 18.371.252 27.405.252 13.81 0 27.841.151 41.661.151 1.498 0 3.008-.123 4.483.151.181.62.232 1.753.05 2.418-.044.023-.09.045-.1.101-24.039.084-49.106-.22-73.398-.201-.379.394-.222 1.401-.202 2.116.045.022.09.044.1.101 24.096.404 49.643.159 73.399.504.058-.008.089.011.101.05.091.783.037 1.848-.252 2.418-.04.01-.05.051-.101.051-24.413.173-48.857-.208-73.096-.151-.376.434-.276 1.585-.101 2.167 1.47.275 2.997.151 4.483.151 19.76 0 39.682.253 59.545.252 1.541 0 3.076.034 4.584.05 1.441.015 2.884-.194 4.282.101.025.871-.195 1.916-.604 2.519-24.114.166-48.336-.286-72.189-.151-.041.01-.05.051-.101.051-.228.486-.232 1.682 0 2.166 23.309.239 46.721.401 69.57.403.695 0 1.406-.16 2.065.101-.145.997-.447 1.836-.907 2.519-23.471.157-47.31-.213-70.628-.151-.041.009-.05.05-.101.05-.259.471-.182 1.616-.05 2.166 5.763.384 11.609.019 17.43.202 5.765.181 11.562.051 17.33.05 11.641 0 23.318.142 34.911.252-.18.916-.668 1.949-1.31 2.569-22.761.126-45.65-.243-68.311-.151-.242.478-.204 1.667-.05 2.217 2.649.273 5.447.151 8.312.151 19.366-.001 39.054.203 58.538.302.019.536-.417 1.004-.705 1.411-.3.423-.597.892-1.008 1.159-21.825.061-43.394-.218-65.036-.151-.04.009-.05.05-.1.05-.193.521-.251 1.663 0 2.166 7.811.199 15.661.201 23.677.202 12.978 0 26.148.092 39.344.201-.043.593-.618 1.006-1.007 1.411-.406.422-.783.907-1.26 1.209-19.782-.041-40.7-.214-60.704-.201-.336.383-.236 1.633-.101 2.166.526.266 1.159.151 1.713.151 18.071-.001 37.963.198 56.119.302.127.398-.37.58-.604.755-.78.582-1.629 1.31-2.519 1.813-18.098.029-36.107-.14-54.558-.151-.001.049-.061.039-.1.051-.25.445-.201 1.646-.05 2.166.998.271 2.05.151 3.073.151 15.861 0 31.02.078 47.001.302-.104.406-.603.556-.907.705-1.119.55-2.208 1.023-3.476 1.511-1.633.629-4.148.382-6.297.353-2.001-.027-4.211-.051-6.448-.051-10.802 0-22.037-.15-32.896-.05-.259.453-.196 1.687-.05 2.216 10.802.388 22.431.001 33.349.353.164.611.164 1.857 0 2.468-11.189.317-22.137-.137-33.249.05-.041.01-.05.051-.101.051-.222.467-.216 1.584-.05 2.116 1.067.304 2.218.113 3.325.151 7.76.269 16.055-.09 24.029.101 5.565.134 11.649.101 17.179.101 1.164 0 2.225-.028 3.073.353 1.723.773 3.237 1.255 4.685 2.167-.422.29-.995.201-1.461.201-16.818 0-34.004-.271-50.729-.151-.262.5-.286 1.672-.05 2.217 16.587.185 32.732.303 49.722.302 2.417 0 4.875-.034 7.304.05.592.416 1.225.791 1.763 1.26.29.154.616.389.907.604.255.189.667.405.604.755-19.797.09-40.449-.232-60.3-.101-.258.438-.196 1.651-.05 2.166 1.268.275 2.582.151 3.879.151 19.703 0 39.865.253 59.545.251.547.246.935.783 1.36 1.209.41.412 1.027.774 1.108 1.36-18.676.181-38.693-.102-57.882-.101-1.385 0-2.765.01-4.131-.05-1.3-.057-2.624-.057-3.879.151-.145.526-.204 1.716.05 2.166 22.933.249 45.149.236 68.008.302-.009.043.02.047.05.05.522.205.751.752 1.058 1.159.295.392.763.769.806 1.36-5.827.197-11.692.101-17.531.101-8.812.001-17.54-.101-26.246-.101-8.706.001-17.408-.127-26.146-.05-.262.468-.315 1.752-.05 2.267 11.821.181 23.688.202 35.667.202 10.247 0 20.681.1 31.334.1 1.544 0 3.251-.041 4.635.05.444.217.62.783.856 1.209.233.42.651.841.554 1.36-23.983.219-48.946-.199-73.046-.05-.218.482-.253 1.741 0 2.216 24.171.284 49.668.17 74.255.353.591.568.979 1.606 1.058 2.519-25.082.309-50.501-.243-75.313 0-.249.431-.202 1.611-.05 2.116.719.272 1.519.151 2.267.151 24.554-.001 49.84.279 74.003.303.433.658.611 1.572.756 2.519-1.462.324-3.073.109-4.685.101-1.607-.009-3.219.05-4.836.05-1.594 0-3.224-.122-4.837-.05-4.741.208-9.645-.001-14.508 0-16.057 0-32.378-.251-48.109-.101-.26.436-.195 1.653-.05 2.166 1.559.274 3.153.151 4.735.151 24.167.001 48.521.181 72.744.302.452.513.496 1.675.503 2.469-.75.269-1.593.151-2.368.151-24.258-.001-50.476-.216-75.564-.151-.336.522-.188 1.539-.101 2.166 1.539.248 3.116.151 4.685.151 22.911.003 45.62.203 68.562.202 1.652 0 3.667-.076 4.987.101.283.579.291 1.683.202 2.469-.889.274-1.863.151-2.771.151-14.583 0-28.628-.128-42.92 0 .02.487.536.813.907 1.209.38.405.756.961 1.31 1.058 1.646.288 3.594.05 5.491.05 12.094.001 26.085.041 37.883.151.023.045.045.09.101.101.094.765.016 1.751-.151 2.418-.041.01-.05.051-.101.05-13.422.177-27.344-.072-40.352.051-.039.55.568.863.907 1.209.365.374.669.867 1.159 1.058 10.896.084 22.185.101 33.45.101 1.549 0 3.108-.121 4.635.151-.001.811-.115 1.929-.504 2.519-11.286.068-22.982-.084-34.608.05-.142.495.475.828.806 1.159.363.363.683.798 1.058 1.058 10.488.295 21.947-.023 32.191.252-.004.872-.283 1.899-.706 2.519-9.396.186-19.745-.133-28.362.101.041.467.461.887.806 1.309.321.394.79 1.008 1.36 1.008 4.036 0 8.249.05 12.645.05 4.327 0 8.687-.117 12.645.151-.143.602-.441 2.268-1.108 2.519-.542.204-1.965.035-2.67.051-5.794.13-12.716-.224-18.79.05-.022.566.552.905.906 1.26.375.375.712.862 1.209 1.058 6.135.131 12.066-.159 18.135.101-.162.967-.802 1.882-1.41 2.569-4.44.051-9.227-.057-13.804.101-.139.51.524.877.907 1.259.323.324.794 1.058 1.36 1.058 2.915 0 6.97-.082 9.824.101-.043.519-.459.957-.806 1.411-.245.32-.753 1.159-1.26 1.159-1.578-.001-3.333-.042-5.038.05.013.534.648.999 1.159 1.511.337.337 1.295 1.057 1.31 1.461.014.395-1.019 1.185-1.411 1.561-3.477 3.35-7.741 6.333-12.342 8.463-5.289 2.449-11.818 4.356-19.395 4.181-.241-3.768-.1-7.752-.1-11.788 0-10.821.1-21.982.1-33.097 0-.954.119-1.943-.151-2.872-16.079-.439-32.678.037-48.966-.252-3.976-.07-7.822-.05-11.939-.05-1.288 0-2.616.121-3.879-.201-.231-8.257-.05-17.244-.05-25.39 0-25.208.201-50.017.202-75.917 0-9.561.101-19.337.101-29.47 0-1.017-.024-2.07.05-3.174.051-.759.137-.706.554-.756.751-.088 1.671.05 2.519.05 2.444 0 5.07.051 7.506.051 3.395 0 6.859-.153 10.075 0 3.263.155 6.652-.109 10.025.05 3.328.157 6.731.101 9.975.101 3.239 0 6.623.051 10.025.051 5.078 0 10.102.05 15.063.05 3.999 0 7.6.933 10.73 1.864.611.178 1.323.255 1.763.752z" fill-rule="evenodd"/></svg>