<svg enable-background="new 0 0 78.339 47.295" viewBox="0 0 78.339 47.295" xmlns="http://www.w3.org/2000/svg"><path clip-rule="evenodd" d="m31.792.156c.293 5.576-.05 11.445.229 17.128.427-.322.445-.887.596-1.328 1.077-3.162 2.947-6.015 5.037-8.289 2.478-2.694 5.467-4.596 9.205-6.045 3.751-1.454 8.937-1.7 13.189-.686 4.053.966 7.36 2.892 10.029 5.175 2.693 2.363 4.907 5.244 6.412 8.838.489 1.169.995 2.441 1.099 3.847-1.327.297-2.987.073-4.534.138-1.518.062-2.999.031-4.259-.046-.629-.622-.809-1.695-1.328-2.428-1.62-2.708-3.886-4.823-6.96-6.182-3.021-1.335-7.759-1.561-11.083-.229-2.229.893-4.153 2.49-5.678 4.259-1.564 1.816-2.842 4.018-3.114 6.732.686.316 1.458.183 2.198.183 5.514.001 11.072 0 16.486 0 6.338.001 12.718-.079 18.867.092.266 1.482.134 2.93.047 4.259-.267 4.062-1.527 7.382-3.16 10.167-2.164 3.691-5.321 6.729-9.021 8.792-3.681 2.053-8.978 3.383-14.7 2.473-4.222-.671-7.887-2.62-10.808-4.763-.381-.279-.925-.914-1.282-.916-.326-.001-.765.503-1.053.733-2.287 1.828-5.211 3.361-8.243 4.213-3.632 1.02-8.72 1.136-12.593.092-3.691-.995-6.663-2.77-9.205-5.038-2.591-2.311-4.572-4.796-6.091-8.105-1.547-3.371-2.375-7.562-1.969-11.998.585-6.383 3.342-10.947 6.823-14.562 1.131-1.174 2.568-2.1 3.984-3.113 1.322-.948 3.074-1.745 4.808-2.29 1.832-.576 3.937-1.076 6.091-1.19 3.299-.18 6.754.052 9.981.087zm-9.617 8.793c-5.286.606-8.654 3.059-11.036 6.411-.921 1.739-1.831 3.664-2.152 6.137-.326 2.505.029 5.034.686 7.235.7 1.201.948 2.019 1.649 3.206.458.774 1.203 1.478 1.923 2.197 2.046 2.046 5.037 3.593 8.426 3.984 4.013.464 7.338-.594 9.846-2.244.496-.326 2.153-1.255 2.198-1.969.02-.312-.271-.73-.413-1.1-.441-1.15-.803-2.294-1.282-3.251-2.145-.083-4.588-.046-6.777-.046-.741 0-1.512.108-2.152-.137-.168-5.894-.091-12.065-.091-17.95 0-.823.081-1.668-.183-2.427-.227-.116-.474-.065-.642-.046zm42.956 20.562c-6.829 0-14.137 0-20.974 0-.923 0-1.833-.149-2.427.138.321 1.368 1.214 2.432 2.015 3.434.816 1.022 1.824 1.85 2.885 2.61 2.177 1.56 4.699 2.702 8.288 2.702 3.426-.001 6.284-1.048 8.38-2.61 1.049-.782 2.04-1.616 2.839-2.656.79-1.03 1.717-2.077 2.015-3.48-.959-.283-1.992-.138-3.021-.138z" fill-rule="evenodd"/></svg>