<svg enable-background="new 0 0 18.727 20.672" viewBox="0 0 18.727 20.672" xmlns="http://www.w3.org/2000/svg"><path d="m2.674.609c.757-.404 1.616-.628 2.475-.608 2.922.003 5.843-.003 8.765.003 1.206.065 2.395.568 3.255 1.42 1.262 1.184 1.827 3.057 1.434 4.742-.191.935-.683 1.792-1.334 2.481-.817.796-1.885 1.349-3.026 1.468-1.378.174-2.815-.264-3.873-1.161-1.548-1.245-2.269-3.532-1.465-5.394.249-.517.504-1.083 1.005-1.404.489-.367 1.144-.497 1.737-.353.625.112 1.045.681 1.674.784.558.133 1.184-.161 1.41-.693.308-.61-.055-1.394-.661-1.654-.344-.169-.736-.084-1.103-.102-1.029.086-2.016.537-2.775 1.234-.966.917-1.718 2.151-1.771 3.511-.004 3.614-.003 7.227 0 10.841-.044 1.107-.432 2.206-1.148 3.057-.683.864-1.676 1.47-2.744 1.73-.058.02-.173.061-.231.081 2.155-.028 4.311-.005 6.467-.014.802.021 1.606-.019 2.407.035.282.009.564-.003.845-.035.08-.028.134.052.195.088-.994.025-1.986-.031-2.98-.011-3.744.018-7.486-.018-11.229-.004-.003-4.765 0-9.529-.001-14.294.015-.823-.062-1.659.144-2.466.326-1.387 1.267-2.617 2.528-3.282z"/><path d="m11.783 10.859c1.844-.728 4.119-.371 5.553 1.03.56.559.981 1.264 1.184 2.031.381 1.513.241 3.229-.681 4.527-.818 1.218-2.199 2.038-3.656 2.188.026-.025.078-.074.104-.098 1.034-.133 2.024-.606 2.781-1.322 1.077-.992 1.634-2.506 1.51-3.959-.136-.706-.974-1.189-1.652-.927-.659.195-1.047.966-.83 1.614.075.257.268.454.363.702.31.701.291 1.54-.063 2.222-.296.632-.848 1.127-1.485 1.4-.528.222-1.109.233-1.672.21-1.98-.089-3.886-1.454-4.466-3.374-.361-1.164-.245-2.443.215-3.562.511-1.228 1.557-2.206 2.795-2.682z"/></svg>