<svg enable-background="new 0 0 50.808 70.527" viewBox="0 0 50.808 70.527" xmlns="http://www.w3.org/2000/svg"><path clip-rule="evenodd" d="m.23 0c.379.114 1.222 1.02 1.712 1.511 4.768 4.767 9.521 9.471 14.257 14.206 2.112 2.112 4.035 4.333 6.196 6.448 1.062 1.04 2.196 2.056 3.174 3.124 2.009 2.194 4.247 4.197 6.348 6.297 4.21 4.209 8.514 8.312 12.745 12.544 1.576 1.576 3.193 3.093 4.786 4.685.492.492 1.128.966 1.36 1.662-13.256.193-27.04-.113-40.201.101-.336.669-.202 1.531-.202 2.368.001 2.445-.061 5.234.101 7.556.768.209 1.626.212 2.418.202 10.957-.14 21.743.05 32.695.05 1.661 0 3.347-.119 4.987.151.157 3.007.185 6.628 0 9.521-10.482.19-21.096.051-31.587.051-6.476 0-12.471.021-18.79-.151-.162-11.618-.15-23.124-.151-34.961 0-8.784-.051-17.806-.05-26.347 0-1.477-.062-3.008 0-4.484.062-1.469.016-3.056.1-4.383-.002-.086.037-.13.102-.151zm25.691 39.496c-1.06-.971-2.05-1.951-3.072-2.922-3.438-3.263-6.615-6.573-10.177-9.773-.644-.578-1.487-1.753-2.116-1.964-.063.021-.103.065-.101.151-.058 4.867-.146 10.619.051 15.566 3.857.265 8.194.151 12.292.151 1.362 0 2.736.115 3.979-.101-.119-.457-.527-.808-.856-1.108z" fill-rule="evenodd"/></svg>