<svg enable-background="new 0 0 67.436 79.141" viewBox="0 0 67.436 79.141" xmlns="http://www.w3.org/2000/svg"><path clip-rule="evenodd" d="m54.369.16c.106 1.454.089 3.528 0 4.957-1.565.264-3.163.15-4.705.15-10.858 0-22.248 0-33.446 0-3.342 0-5.754.506-7.66 2.003-1.769 1.389-3.043 3.435-3.254 6.358-.102 1.42 0 2.96 0 4.506.001 11.034-.051 22.098-.051 33.346 0 3.362.656 5.662 2.304 7.31.776.777 1.674 1.611 2.804 2.003 1.189.412 2.554.501 4.307.501h28.889c3.48 0 6.091-.026 7.209-2.403 1.056-2.245-1.157-4.15-3.254-4.456-1.866-.272-4.245-.1-6.259-.1-4.269 0-8.625 0-12.817 0-4.337 0-9.115.376-12.366-.601-3.241-.973-5.007-3.529-5.007-7.911 0-4.577 2.174-6.794 4.856-8.111 1.489-.731 3.412-.901 5.558-.901h19.075c1.99 0 4.449.129 6.459 0 1.967-.126 3.554-.946 4.006-2.453.193-.647.164-1.747-.051-2.253-.641-1.51-2.59-2.247-5.207-2.253-7.401-.019-14.549.05-22.229.05-2.557 0-5.07.019-7.01-.451-3.805-.923-5.943-4.519-5.357-9.363.508-4.191 3.155-6.93 7.511-7.41 2.132-.235 4.921-.027 7.359-.1 2.534-.077 5.009-.025 7.36 0 4.765.05 9.687 0 14.72 0 2.485 0 5.04-.173 7.41.05 4.587.431 7.443 2.383 9.463 5.408 1.14 1.433 1.744 3.162 2.152 5.307.411 2.154.145 4.665.2 7.059.223 9.515 0 19.374 0 29.44v7.46c0 2.495-.592 4.415-1.502 5.958-1.853 3.144-4.865 5.004-9.263 5.657-2.21.329-4.779.201-7.259.201-12.196-.001-24.986.086-36.851-.1-.194-1.476-.103-3.499-.05-5.057.045-.022.09-.044.1-.101 13.221-.036 25.113-.051 38.002-.05 1.799 0 3.364.063 4.757-.05 1.433-.117 2.547-.521 3.604-1.202 1.925-1.238 3.227-2.982 3.455-6.158.222-3.108.049-6.323.05-9.563 0-9.436-.001-19.255 0-28.839 0-6.324-2.807-10.264-8.963-10.264-2.966 0-6.333 0-9.612 0-6.801 0-12.437.05-19.076.05-3.841 0-7.287-.365-8.261 2.604-.251.767-.169 1.605.15 2.253.728 1.479 2.239 1.982 4.356 2.103 2.044.116 4.395.05 6.309.05 3.981 0 8.044-.05 12.517-.05 4.413 0 9.076-.261 12.066.801 2.896 1.028 4.74 3.896 4.456 8.311-.272 4.218-2.448 6.404-5.207 7.661-1.541.702-3.577.601-5.857.601-4.369 0-8.435 0-12.768 0-3.272 0-6.215.034-9.312.05-1.086.006-2.191-.078-3.154.05-2.258.3-4.578 2.156-3.454 4.707.631 1.434 2.019 2.183 4.055 2.253 1.888.066 4.033-.05 6.108-.05h12.316c4.132 0 8.87-.433 11.967.601 3.119 1.042 4.958 3.156 5.257 7.26.298 4.092-1.614 6.871-4.105 8.361-1.337.8-2.96 1.252-5.007 1.252-10.002 0-20.443.05-30.892.05-2.248 0-4.283.105-6.008-.3-4.924-1.156-8.586-4.017-9.813-8.962-.429-1.728-.4-3.746-.4-5.908 0-6.329 0-12.468 0-18.275 0-2.033.111-4.144.05-6.258-.117-4.002-.12-8.392-.05-12.367.036-2.04.215-3.793.751-5.407 1.044-3.143 2.99-5.491 5.407-7.109 1.135-.76 2.95-1.449 4.506-1.752 1.78-.348 4.21-.294 6.158-.3 12.414-.045 25.236.044 37.498.146z" fill-rule="evenodd"/></svg>