<svg enable-background="new 0 0 77.716 78.296" viewBox="0 0 77.716 78.296" xmlns="http://www.w3.org/2000/svg"><g clip-rule="evenodd" fill-rule="evenodd"><path d="m77.556 78.16c-6.484.178-12.959.098-19.406.098-19.247.002-38.271.149-57.878-.146-.255-.741-.146-1.578-.146-2.395 0-5.761 0-11.461 0-17.305 0-9.769-.049-19.411-.049-29.673 0-6.723.002-12.629-.049-19.455-.017-2.278-.073-5.676.048-8.212.043-.894-.016-.89.488-.977 1.348-.235 3.135.048 4.645 0 1.562-.05 3.157 0 4.546.049 3.169.108 6.345-.093 9.386.048 6.271.291 12.778.001 18.674 0 8.969 0 18.57-.048 28.059-.048 2.258-.001 4.608-.027 6.99 0 .781.009 1.549-.056 2.2.048 1.2.193 2.393 1.318 2.541 2.592.174 1.493.001 3.199 0 4.79 0 3.212-.012 6.356.049 9.435.092 4.62.001 9.224 0 13.98 0 9.509.002 19.24 0 28.646 0 3.151-.068 6.287 0 9.386.068 3.064.129 6.135-.098 9.139zm-71.565-1.124c4.776 0 9.46.099 14.177.098 9.453-.002 19.027-.137 28.205-.049 9.591.092 18.825-.027 28.059-.098.113.015.055-.142.147-.146.007-12.361.112-24.717 0-36.906-.1-10.865.002-21.518 0-32.605 0-2.997.57-5.971-2.15-6.159-1.43-.1-2.919-.026-4.351 0-4.521.081-8.613 0-13.198 0-8.848-.002-18.4.049-27.23.048-9.389-.001-19.293-.148-28.302-.049-.255.698-.147 1.486-.147 2.199 0 24.73.043 48.767.098 73.423.055.011.076.054.098.098 1.51.264 3.063.146 4.594.146z"/><path d="m20.363 3.174c.209 16.261.148 32.677.146 49.665 0 2.416.583 4.329 2.542 4.644.972.156 2.086.048 3.177.048 3.058.001 6.551 0 9.727 0 12.022.002 23.312-.05 35.392-.048 1.035 0 2.108-.113 3.129.147.219 5.521.155 11.483 0 17.305-.345.234-.826.181-1.223.195-1.359.051-2.808 0-4.252 0-5.459 0-10.89 0-16.621 0-3.59 0-7.681-.048-11.194.049-1.958.054-3.641-.047-4.985-.685-1.301-.616-2.214-1.483-3.227-2.396-7.448-7.64-15.201-14.976-22.535-22.73-1.536-1.477-3.059-2.971-4.546-4.497-1.001-.902-1.892-1.844-2.444-3.227-.568-1.423-.439-3.22-.439-5.229 0-3.502.042-7.606 0-11.293-.071-6.118 0-12.983 0-19.357 0-.876-.101-2.402.146-2.688.035-.047.089-.075.147-.098 5.683.043 11.383-.061 17.06.195z"/><path d="m74.428 55.479c-8.616.069-16.833.098-25.518.098-7.648.001-14.763.051-22.241.049-2.054 0-3.54.072-4.058-1.368-.277-.771-.146-2.046-.146-3.128-.001-12.071-.05-23.616-.049-35.392 0-4.376-.106-8.62.146-12.563 2.713-.178 5.722-.099 8.652-.098 2.96.001 5.894-.107 8.457.098.265 1.414.146 2.878.146 4.351 0 10.208-.067 21.18.098 30.846 1.308.269 2.719.096 4.107.098 4.139.006 8.617.065 12.954-.05.282-.63.146-1.391.146-2.102 0-5.079.062-10.734-.098-16.033-.55-.26-1.2-.146-1.81-.146-3.162-.001-6.575.055-9.679 0-1.225-.023-2.461.175-3.567-.099-.182-4.875-.099-9.938-.099-14.909 0-.665-.11-1.388.146-2.004 8.44-.171 17.818-.098 26.251-.098h2.786c1.48 0 2.635-.113 3.178.685.403.593.293 1.844.293 3.03-.002 15.5.048 29.972.049 45.608.002 1.049.12 2.124-.144 3.127z"/></g></svg>