<svg enable-background="new 0 0 88.212 57.882" viewBox="0 0 88.212 57.882" xmlns="http://www.w3.org/2000/svg"><g clip-rule="evenodd" fill-rule="evenodd"><path d="m39.147 3.163c.031-1.078-.836-1.494-1.575-1.889-2.909-1.553-5.625-.332-6.979 2.203-.428.801-.655 1.816-.892 2.781-.504 2.055-.817 4.492.892 5.353.75.377 2.019.17 2.729.682.038.58-1.057.404-1.47.473-2.58.428-4.218 2.529-5.038 5.248-1.147 3.803-2.448 9.101.84 11.228 1.721.936 4.134.383 5.877-.314 2.685-1.074 5.184-3.418 6.297-5.982.476-1.094.864-2.418.839-3.674-.278-.547-1.042-.465-1.679-.576-2.425-.422-6.119-1.855-8.501-.473-.539.312-1.314 1.145-1.522 1.941-.176.68-.198 1.781.473 2.1.377-.34.312-1.004.525-1.418.308-.6.852-1.066 1.364-1.258 2.42-.906 4.711 1.307 3.831 3.672-.38 1.025-1.736 2.09-3.568 1.838-1.773-.244-3.437-1.861-3.463-3.83-.041-3.059 2.279-5.785 4.303-6.822 1.564-.803 3.52-1.271 5.877-1.207 2.338.062 4.74.856 7.032 1.311 2.219.443 4.782 1.195 6.874-.262.311-.318.581-.678.84-1.049.601-1.459.051-3.613-1.259-3.779-.365.342-.113.893-.158 1.312-.202 1.887-2.21 3.578-4.408 2.467-1.026-.519-2.096-2.141-1.417-3.832.738-1.838 3.159-2.529 5.248-1.574 1.714.785 3.313 2.451 3.463 4.775.132 2.035-.764 3.963-1.941 5.092-2.046 1.957-5.411 2.344-8.868 1.889-.333-.045-.933-.299-1.365-.211-.533.109-.762.91-.997 1.574-1.042 2.947-2.468 5.154-4.775 6.822-1.317.953-3.161 1.92-4.828 2.361-4.642 1.23-9.751-.274-11.912-2.781-1.319-1.531-2.285-4.156-1.574-6.928.872-3.396 3.724-5.877 6.874-7.084.689-.262 1.534-.287 2.099-.838-.306-.654-1.06-.725-1.522-1.104-.831-.68-1.64-1.803-1.679-3.305-.093-3.568 2.896-6.201 5.667-7.295 2.923-1.154 7.499-1.242 9.551.945 2.052 2.394 1.451 6.75-1.68 7.137-2.297.283-4.084-2.143-2.991-4.355.435-.881 1.434-1.73 2.938-1.627.62.044 1.047.452 1.628.263z"/><path d="m19.731 12.923c-.352.594-1.692.199-2.414.42-.705.934-.834 2.182-1.102 3.307-.834 3.5-1.743 7.057-2.571 10.6-.558 2.391-.986 4.836-1.626 7.189-.318 1.172-.609 2.354-.892 3.516-.281 1.156-.706 2.322-.63 3.516.525.408 1.307.291 1.994.314 2.135.076 4.527.191 6.402-.314 2.421-.652 4.281-2.012 5.562-3.619.704-.826 1.26-1.791 1.784-2.834.148-.295.293-.754.682-.84-.109 2.107-.903 4.145-1.364 6.244-.162.736-.256 1.678-.63 1.941-.45.318-2.059.158-3.044.158-6.972 0-13.701.01-20.675-.053-.379-.004-.952.121-1.207-.264.137-.772 1.706-.111 2.257-.471.662-.99.738-2.258.997-3.412 1.322-5.879 2.771-11.81 4.041-17.736.253-1.182.578-2.342.84-3.516.266-1.191.596-2.398.63-3.621-.292-.564-1.632-.082-2.099-.473.251-.527 1.626-.303 2.151-.367 1.648-.197 3.675.053 5.562.053 1.446 0 2.731.053 4.198.053.363 0 .884-.133 1.154.209z"/><path d="m82.177 14.288c-.588-.619-1.766-.648-2.467-1.154.401-.516 1.274-.314 1.994-.314 1.479 0 2.984.053 4.461.053.736 0 1.528-.154 2.047.209-.351.549-1.071.508-1.575.787-.608.338-1.102.879-1.574 1.365-1.117 1.918-1.578 4.264-2.099 6.559-1.306 5.756-2.84 11.574-4.198 17.369-.268 1.142-.397 2.334-.944 3.359-.604.139-1.404.129-2.204.156-.694.025-1.656.061-2.151-.156-.711-.314-1.146-2-1.574-2.834-3.013-5.859-5.433-11.85-8.397-17.842-.199-.402-.459-.891-.734-1.469-.236-.496-.531-1.289-.892-1.26-.473.037-.79 1.971-.892 2.361-1.153 4.379-2.095 8.504-3.253 12.855-.214.805-.481 1.701-.682 2.572-.29 1.254-.872 2.613-.368 3.83.233.562.685.99 1.207 1.207.405.168 1.036.027 1.364.525-.469.232-1.121.143-1.731.158-1.245.029-2.571-.023-3.831-.053-.626-.016-1.302.133-1.784-.158.298-.449.974-.346 1.469-.525.477-.172.788-.469 1.154-.682 1.084-1.178 1.269-2.645 1.627-4.564.283-1.523.803-3.207 1.259-4.881 1.096-4.02 2.027-7.996 3.148-12.174.222-.828.599-1.887.577-2.467-.02-.547-.482-1.336-.787-1.941-.271-.541-.635-1.463-.997-1.68-.637-.383-1.78.109-2.099-.525.07-.051.103-.141.209-.156 2.257-.031 4.984 0 7.557 0 .772 0 1.901-.141 2.413.053.631.236 1.107 1.746 1.522 2.57 2.755 5.48 5.451 10.525 8.081 16.162.306.656 1.051 2.535 1.521 2.52.495-.016.67-1.531.787-2.047 1.064-4.705 2.164-8.965 3.254-13.695.348-1.505.66-3.193-.418-4.093z"/><path d="m56.411 27.196c.323.324.095.857 0 1.207-.32 1.18-.48 2.49-.787 3.727-.297 1.197-.656 2.332-.997 3.568-.087.318-.096.854-.524.945-.369-.303-.221-.83-.263-1.207-.133-1.207-.429-2.365-.839-3.412-1.123-2.855-3.046-5.205-7.084-5.09-.277.008-.658.098-.892.158-4.294 1.094-5.687 5.315-7.084 9.707-.693 2.18-1.238 4.418-1.732 6.664-.513 2.334-1.102 4.953-1.102 7.295 0 2.242.774 3.842 2.204 4.617 1.153.627 2.776.99 4.303.998 3.251.014 5.976-1.522 7.556-3.359.228-.328.573-.639.84-.996.233-.314.392-.893.892-.787.162.713-.477 1.283-.84 1.73-1.236 1.529-2.677 2.789-4.565 3.727-2.471 1.225-6.19 1.631-9.289.629-5.317-1.719-9.107-5.754-9.183-12.908-.063-5.916 2.739-10.172 5.982-13.066 1.145-1.021 2.411-2.039 3.621-2.728 2.264-1.291 4.718-2.277 7.977-2.467 1.684-.098 3.47.316 4.88.893 1.326.541 2.582 1.537 3.936 1.732 1.03.146 1.576-.26 2.204-.789.249-.241.421-.837.786-.788z"/></g></svg>