<svg enable-background="new 0 0 20.235 32.121" viewBox="0 0 20.235 32.121" xmlns="http://www.w3.org/2000/svg"><path d="m.013.001c6.742-.008 13.481.03 20.222.031-.013 9.178 0 18.354-.013 27.533-6.74-.003-13.479-.009-20.219-.02 0-.671-.001-1.343 0-2.014 6.07.005 12.139.018 18.208.015.015-7.835-.001-15.667.007-23.503-5.411-.027-10.823-.017-16.234-.031-.027 2.817.007 5.636-.026 8.453-.651.001-1.303.012-1.954-.004-.002-3.487.017-6.974.009-10.46z"/><path d="m.009 23.093c-.015-3.408.007-6.823.03-10.226 1.388.026 2.777.022 4.166.024.775.015 1.584.239 2.156.787 1.206 1.098 1.094 3.4-.416 4.182 1.788.84 1.771 3.657.217 4.716-.584.361-1.273.528-1.956.523-1.399-.003-2.798.003-4.197-.006zm1.977-8.409c.001.775-.01 1.549-.006 2.324.855-.047 1.734.111 2.569-.117.912-.334.857-1.877-.098-2.123-.806-.178-1.646-.045-2.465-.084zm-.013 4.137c-.003.83-.001 1.661 0 2.491.695.007 1.39.003 2.085.007.34-.006.688-.119.936-.36.61-.629.359-1.929-.569-2.097-.811-.095-1.636-.034-2.452-.041z"/><path d="m.002 28.718c.783.018 1.575-.04 2.352.034-.058 1.118-.007 2.24-.03 3.36-.387-.279-.776-.558-1.14-.869-.405.278-.782.593-1.183.877-.002-1.133-.002-2.268.001-3.402z"/></svg>