<svg enable-background="new 0 0 67.753 68.752" viewBox="0 0 67.753 68.752" xmlns="http://www.w3.org/2000/svg"><g clip-rule="evenodd" fill-rule="evenodd"><path d="m1.78.219c.216 3.69.045 7.396.101 11.085.085 5.594-.126 10.942 0 16.248.108 4.557.101 8.974.101 13.767 0 .923-.164 2.298.253 2.683.441.406 2.864.232 3.796.202 4.25-.136 7.885 0 12.097 0 4.223 0 7.424-.05 11.692-.05 1.349 0 3.961-.451 3.543 1.164-.208.805-1.598.584-2.531.81-2.71.656-4.095 2.466-4.404 5.618-.195 1.992-.101 4.381-.101 6.58 0 2.376.195 4.077 1.164 5.518.926 1.377 2.208 2.167 4.1 2.581 1.735.38 4.026.507 6.276.405 4.252-.194 8.707.068 12.957-.051 2.173-.061 4.536.088 6.428-.152 3.911-.497 5.918-2.931 6.023-7.339.048-2.018.041-4.322-.102-6.529-.279-4.343-1.847-6.928-6.327-7.036-2.895-.069-6.67.037-9.718-.101-1.161-.053-2.109.01-2.936-.354-.844-.372-1.528-1.236-1.771-2.075-.681-2.34.276-4.899 1.974-5.517 1.185-.431 2.66-.27 4.1-.253 4.56.055 8.949.171 10.072-3.29.504-1.553.371-3.414.405-5.163.018-.889-.064-1.777-.102-2.632-.039-.879-.221-1.652-.101-2.48.578-.366 1.369-.174 2.126-.202 1.411-.053 2.996-.001 4.555 0 .751 0 1.507-.183 2.126.101.244.328.213 1.335 0 1.67-.803.175-1.982.101-3.239.101-.94 0-2.813-.177-3.24.253-.396.4-.202 2.059-.202 2.733 0 3.018.085 5.906-1.012 7.693-.697 1.136-2.355 2.454-4.049 2.784-1.621.316-3.592.152-5.416.152-1.753 0-3.557-.307-5.112.304-1.615.634-1.876 3.651.05 4.252.879.274 2.131.202 3.189.203 3.153 0 6.936-.246 9.87.101 2.029.24 3.371 1.04 4.454 2.278 1.04 1.189 1.943 2.627 2.075 4.656.132 2.041.083 4.378.152 6.58.075 2.374-.075 4.419-.709 6.023-1.281 3.244-3.718 4.819-8.301 5.112-2.121.136-4.34.051-6.479.051-4.367 0-8.707.05-13.312.051-2.214 0-4.394.011-6.125-.557-3.404-1.118-5.36-3.46-5.669-7.795-.143-2.005-.051-4.329-.05-6.479 0-2.603.256-5.123 1.518-6.681.158-.195.548-.44.456-.961-.417-.355-1.036-.203-1.519-.203-7.003 0-14.06 0-21.562 0-1.033 0-2.722.133-3.088-.253-.253-.267-.202-1.831-.202-2.784 0-10.519.06-21.013-.051-31.736-.031-3.522.057-6.422.057-10.124 0-.647-.093-1.076.557-1.164.411-.057.86.036 1.163.202z"/><path d="m11.701.269c.079 10.486.203 21.911.203 32.293 0 1.276-.346 3.766.253 4.302.524.469 2.376.253 3.341.253h9.111c.552 0 1.191.139 1.62-.203.142-.521-.387-.788-.608-1.062-.58-.723-1.15-1.961-1.266-3.139-.127-1.307 0-2.755 0-4.1 0-1.403-.07-2.744 0-3.948.15-2.58.963-4.478 2.48-5.669 1.017-.798 2.31-1.388 3.847-1.569 1.562-.184 3.25-.102 5.163-.102h5.365c8.421 0 18.177-.158 26.371.051.252.303.192 1.29.05 1.67-.832.271-1.741.152-2.581.152-9.734 0-19.518-.052-29.306.05-1.68.018-3.679-.115-5.112.203-1.83.406-3.185 1.357-3.796 2.935-.589 1.523-.607 3.532-.607 5.871 0 1.917-.16 4.515.455 5.872.826 1.824 2.67 2.818 5.213 3.037 1.092.094 1.828.394 1.417 1.366-.293.695-1.607.456-2.581.456-6.156.001-11.778-.05-18.019-.05-1.038 0-2.341.088-2.683-.304-.497-.571-.202-3.742-.202-4.809 0-9.68-.051-19.238-.051-29.255 0-.794-.098-2.523-.051-3.695.046-1.134 1.105-.811 1.974-.606z"/><path d="m39.843 23.704c1.405-.067 3.281-.127 4.96-.05 2.99.136 5.143-.135 5.871 2.176.204.645.152 1.551.152 2.429 0 .93.068 1.896-.152 2.531-.611 1.767-2.575 2.114-5.163 2.075-1.069-.017-2.219-.058-3.34-.051-3.154.021-6.392.409-7.39-1.62-.656-1.333-.569-4.534.051-5.77.821-1.638 2.529-1.602 5.011-1.72zm-3.391 3.088c-.4.977-.208 2.832.253 3.441.786 1.038 3.909.709 5.669.708 1.888 0 4.511.272 5.618-.253 1.281-.606 1.473-3.694.203-4.606-.989-.71-3.416-.409-4.758-.456-1.8-.062-3.689.005-5.314.051-.713.076-1.434.536-1.671 1.115z"/><path d="m39.084 50.277c2.254-.228 4.775-.05 7.289-.05 3.867 0 7.102-.309 8.301 2.379.456 1.023.561 3.713.455 5.416-.125 2.015-1.122 3.672-2.834 4.201-1.002.31-2.39.203-3.695.203-2.587 0-5.057-.074-7.643-.101-1.45-.016-2.862.087-3.847-.354-1.302-.584-2.306-1.805-2.582-3.493-.139-.851-.074-2.071-.051-3.188.066-3.151 1.494-4.698 4.607-5.013zm-2.278 2.987c-.648.949-.647 4.611-.202 5.668.684 1.626 2.545 1.62 4.96 1.62 1.235 0 2.448-.005 3.593-.051 1.882-.075 5.388.455 6.833-.405 1.251-.744 1.164-1.983 1.164-3.948 0-1.047.022-2.114-.354-2.784-.698-1.242-2.153-1.266-4.049-1.266-1.307 0-2.548-.054-3.695 0-3.247.156-7.065-.57-8.25 1.166z"/></g></svg>