<svg enable-background="new 0 0 79.344 43.053" viewBox="0 0 79.344 43.053" xmlns="http://www.w3.org/2000/svg"><path clip-rule="evenodd" d="m72.19 22.842c.598-.71.334-1.739.247-2.525-.26-2.361-1.222-4.797-2.277-6.485-.372-.596-.819-1.136-1.287-1.684-.449-.525-.866-1.113-1.337-1.584-1.883-1.883-4.746-3.386-8.07-3.664-1.806-.15-3.479.113-5.248.495-3.139.677-5.609 2.249-7.377 4.308-1.844 2.148-2.87 5.046-3.515 8.219-.331 1.625-.483 3.329-.892 4.95-.395 1.567-.766 3.138-1.237 4.604-1.908 5.934-6.017 9.566-11.536 11.883-2.887 1.212-6.319 1.924-10.001 1.534-6.824-.722-11.755-3.938-15.101-8.317-1.748-2.287-3.11-4.811-3.911-7.772-1.902-7.034.676-14.333 3.961-18.17 3.227-3.771 6.837-6.536 12.724-7.774.771-.162 1.65-.411 2.476-.148.33.69.198 1.831.198 2.971 0 .867.208 2.501-.148 3.02s-2.053.655-2.674.842c-2.548.767-4.797 2.408-6.387 4.159-.992 1.092-2.169 2.612-2.723 4.308-.571 1.743-1.137 3.644-1.04 5.94.19 4.512 1.969 7.245 4.308 9.754 2.104 2.256 5.639 4.095 9.753 4.258 3.613.144 6.078-.768 8.367-2.079 2.228-1.277 3.723-3.375 4.803-5.743 1.426-3.128 2.108-7.329 3.119-10.893 1.523-5.372 3.852-10.15 8.021-13.021 2.93-2.517 6.929-3.97 12.03-4.209 3.336-.156 6.401.749 8.912 1.732 2.465.967 4.595 2.516 6.337 4.259 1.779 1.777 3.224 3.743 4.407 6.189 1.16 2.395 2.076 5.17 2.228 8.367.323 6.809-2.554 12.055-5.743 15.496-3.385 3.653-7.58 6.752-14.209 6.981-3.373.116-6.438-.661-8.565-2.08-2.213-1.476-4.061-3.056-5.396-5.198-.694-1.113-1.194-2.335-1.634-3.663-.878-2.654-.736-6.742.198-9.209 1.432-3.783 4.137-6.512 7.674-8.219 2.437-1.177 5.611-1.904 8.862-1.337 1.469.256 2.809.647 4.01 1.287 2.874 1.53 5.104 3.748 6.635 6.635.275.521.385 1.267 1.038 1.583zm-17.725-2.228c-1.532.768-2.884 2.224-3.664 3.861-.447.939-.892 2.315-.892 3.515 0 2.087.816 3.733 1.882 5.001.866 1.03 2.061 2.098 3.366 2.624 2.748 1.108 6.402.294 8.417-1.634.999-.956 1.909-2.246 2.426-3.861.588-1.837.299-3.832-.495-5.496-1.274-2.672-4.238-4.979-8.218-4.703-1.19.082-2.073.316-2.822.693z" fill-rule="evenodd"/></svg>