<svg enable-background="new 0 0 61.643 80.147" viewBox="0 0 61.643 80.147" xmlns="http://www.w3.org/2000/svg"><g clip-rule="evenodd" fill-rule="evenodd"><path d="m40.698.293c-.199.993-.755 1.863-1.195 2.754-2.167 4.382-4.433 9.002-6.756 13.357-.468.877-.963 1.762-1.403 2.65-.441.893-1.023 1.719-1.403 2.599-.218.504-.327.969-.572 1.455-3.367 6.697-6.872 13.406-10.29 20.113-1.764 3.461-3.965 6.983-4.47 11.746-.493 4.642.827 8.489 2.495 11.486.229.411.582.795.624 1.299-.878-.097-1.585-.646-2.287-1.039-2.11-1.185-4.34-2.533-6.445-3.69-2.924-1.607-5.262-3.53-6.964-6.6-1.555-2.805-2.527-7.199-1.767-11.278.684-3.673 2.311-6.528 3.898-9.615 3.161-6.147 6.043-11.708 9.303-17.774 1.183-2.201 2.393-4.351 3.482-6.705.346-.747.814-1.44 1.195-2.183 1.076-2.096 2.241-4.487 3.431-6.705.417-.776.842-2.027 1.507-2.131.619-.097 1.448.052 2.183.052 4.999.001 10.667-.024 15.434.209z"/><path d="m61.643.397c-.495 1.577-1.356 3.008-2.079 4.47-2.147 4.342-4.218 8.765-6.601 12.941-5.392.095-11.13.052-16.683.052-.755 0-1.54.119-2.235-.156.132-.813.62-1.506.987-2.234 1.07-2.123 2.215-4.339 3.327-6.549 1.1-2.188 2.217-4.36 3.274-6.6.335-.71.711-1.461 1.195-2.079 5.17-.164 11.151-.052 16.735-.052.705-.001 1.44-.085 2.08.207z"/><path d="m51.976 19.678c-.281 1.025-.882 1.91-1.352 2.859-1.368 2.766-2.774 5.614-4.158 8.471-1.79 3.697-3.703 7.375-5.613 11.174-1.835 3.65-3.572 7.431-5.561 11.226-.926 1.766-1.942 3.648-2.807 5.613-1.118 2.541-2.07 4.888-1.871 8.472.243 4.38 2.179 7.8 4.625 10.082.334.312.822.537.936 1.04-2.427-1.089-4.615-2.576-6.86-3.898-2.252-1.327-4.546-2.581-6.6-4.158-2.903-2.358-5.125-5.61-6.081-10.031-1.086-5.023.362-9.694 2.183-13.097 3.378-6.311 6.215-12.323 9.563-18.606.463-.869 1-1.785 1.352-2.65.253-.624.407-1.214.728-1.819.591-1.117 1.108-2.124 1.715-3.378.344-.71.548-1.414 1.299-1.507.696-.086 1.491.038 2.287 0 2.161-.102 4.664.052 6.964.052h7.068c.727 0 1.503-.12 2.183.155z"/><path d="m44.544 53.253c4.486-.384 8.063 1.609 10.187 3.846 2.164 2.281 4.092 5.329 4.002 9.979-.112 5.734-3.952 9.887-7.9 11.798-2.489 1.205-5.271 1.599-8.212.987-4.844-1.007-8.675-4.9-9.926-9.719-.694-2.673-.492-5.984.52-8.472 1.298-3.191 3.872-5.989 7.328-7.432 1.213-.506 2.416-.851 4.001-.987z"/></g></svg>