<svg viewBox="0 0 90 118" fill="none" xmlns="http://www.w3.org/2000/svg">
<path fill-rule="evenodd" clip-rule="evenodd" d="M20.5552 117.323C46.9124 117.281 73.6398 117.166 73.6981 117.096C73.7329 117.055 74.31 115.016 74.9809 112.567C77.3503 103.913 77.9817 101.693 78.5747 99.9251C78.9045 98.9422 79.1196 98.0462 79.0527 97.9335C78.9446 97.7518 78.3905 97.7373 76.2153 97.8602C75.8007 97.8834 75.2486 98.4119 74.5196 99.484C72.423 102.566 69.5944 106.058 67.9491 107.597C65.8065 109.599 64.5794 110.567 64.1922 110.561C64.0222 110.558 63.8812 110.659 63.879 110.785C63.8768 110.911 63.2093 111.288 62.3961 111.621C61.5826 111.955 60.6636 112.339 60.3535 112.475C57.5575 113.7 51.841 114.051 40.0554 113.723C32.7116 113.519 31.0513 113.398 30.0543 112.997C28.5896 112.407 26.6695 111.056 26.4665 110.471C26.384 110.234 26.245 109.975 26.1575 109.897C25.8972 109.664 25.397 107.895 25.1238 106.243C24.9834 105.394 24.8743 99.9179 24.8815 94.0729C24.8884 88.2278 24.8657 78.4108 24.8307 72.2574C24.7059 50.2004 24.9186 45.7665 26.2043 43.6212C27.1229 42.0889 29.1711 40.9288 31.7499 40.4805C33.7425 40.1338 33.7353 40.1294 34.4547 42.1599C34.717 42.9 35.0375 43.5737 35.1669 43.6571C35.2966 43.7402 35.3992 43.999 35.3952 44.2322C35.384 44.8738 37.6268 48.2931 38.834 49.4748C41.8213 52.3987 45.4379 52.7138 47.8965 50.2642C48.8375 49.3267 48.8724 49.2177 48.9092 47.1059C48.9455 45.028 48.8953 44.8403 47.9053 43.3478C46.8033 41.6863 44.7856 40.1397 41.8299 38.6909C40.1236 37.8545 39.4408 37.0161 38.3232 34.3864C38.0108 33.6507 37.6474 32.8252 37.5159 32.5519C36.3954 30.2228 35.6178 26.0155 35.6631 22.5246C35.711 18.8186 36.1014 17.104 37.5306 14.3267C40.24 9.06181 45.0942 5.19027 51.6357 3.0774C54.6978 2.08851 60.9718 1.93932 64.6323 2.7684C70.3583 4.06563 74.7161 7.07129 77.7148 11.792C79.7925 15.0624 80.871 20.2197 80.2974 24.1427C79.9935 26.2213 80.1778 26.1546 76.8361 25.3942C70.6132 23.9784 64.6953 24.6199 60.6235 27.152C56.0812 29.9766 53.7481 33.907 53.6711 38.864C53.5747 45.0571 57.0531 49.3146 65.8905 53.8209C75.7366 58.8417 76.9019 59.486 78.5946 60.8435C81.4801 63.1578 82.1658 64.5438 82.1064 67.9433C82.0671 70.1971 81.9751 70.6108 81.2262 71.9086C79.4003 75.072 76.4003 76.8775 72.6522 77.0688C68.6327 77.2738 65.7218 76.1091 62.9528 73.1871C60.5898 70.694 59.3592 67.7281 58.4239 62.2718C58.2944 61.5164 58.2326 61.4882 56.8287 61.5448L55.3683 61.6034L55.2526 64.1185C55.1887 65.5018 55.1934 68.837 55.263 71.5301L55.3893 76.4266L56.7748 77.1639C63.9201 80.9664 74.0225 81.7188 80.3635 78.9203C85.5942 76.6117 88.9438 72.401 89.8432 67.0033C90.2769 64.3998 89.803 61.427 88.519 58.7001C87.6456 56.8441 85.1831 53.9895 83.3512 52.7094C82.8193 52.3379 82.3227 51.9483 82.2476 51.8438C82.1725 51.7396 80.6772 50.8837 78.9247 49.9425C76.0905 48.42 74.6052 47.6949 71.16 46.1513C66.4358 44.0345 63.4354 41.7612 62.3013 39.4386C61.1124 37.0043 61.5132 33.3473 63.2054 31.192C64.8321 29.1197 68.1288 28.0038 71.888 28.2531C74.02 28.3944 74.6259 28.549 75.839 29.2615C77.1584 30.036 78.6818 31.3301 79.3891 32.2766C80.2358 33.4089 82.004 37.7434 82.4187 39.7017L82.8941 41.9474L86.0522 42.1703L86.0693 40.5485C86.0788 39.6565 86.0385 35.0873 85.9801 30.3947C85.8849 22.7848 85.804 21.5593 85.231 19.0548C84.4839 15.7909 83.926 14.3324 82.4723 11.8434C80.6643 8.74801 78.8396 6.78277 75.937 4.80459C71.1057 1.51211 66.3444 0.126548 59.45 0.00676508C52.6118 -0.111757 47.3569 1.32159 42.0975 4.7397C37.3055 7.85442 34.1989 11.8065 32.1813 17.355C31.4042 19.4921 31.2677 20.2963 31.0694 23.9012C30.8343 28.1756 31.0299 30.5722 31.9282 34.4334C32.2758 35.9273 32.3167 36.5137 32.0786 36.5842C31.8011 36.666 4.41226 36.8153 1.33556 36.7515L0.287154 36.7298L0.22966 40.0237L3.37164 40.2732C8.96828 40.7177 11.4626 41.9411 12.845 44.9198C13.6105 46.5687 13.6331 46.7637 13.7425 52.6265C13.8042 55.9347 13.8803 69.3733 13.9118 82.4897C13.9743 108.485 13.9643 108.677 12.427 110.721C10.8958 112.757 6.89731 114.035 2.30702 113.955L0.058563 113.916L0 117.271L4.68393 117.306C7.25995 117.326 14.4022 117.333 20.5552 117.323Z" fill="black"/>
</svg>
