<svg height="170" viewBox="0 0 130.00015 170" width="130.00015" xmlns="http://www.w3.org/2000/svg"><path d="m29.6908 169.994c38.0716-.062 76.6782-.228 76.7622-.329.05-.06.884-3.013 1.853-6.562 3.422-12.539 4.334-15.756 5.191-18.318.476-1.424.787-2.723.69-2.886-.156-.263-.956-.284-4.098-.105-.599.033-1.397.799-2.45 2.352-3.028 4.466-7.114 9.525-9.4903 11.754-3.0949 2.902-4.8673 4.305-5.4266 4.296-.2456-.005-.4493.141-.4525.325-.0032.182-.9672.728-2.1419 1.211-1.1751.484-2.5026 1.041-2.9504 1.237-4.0387 1.775-12.2959 2.284-29.3195 1.809-10.6077-.296-13.0059-.471-14.446-1.053-2.1157-.854-4.8893-2.812-5.1823-3.659-.1193-.344-.32-.719-.4465-.832-.3759-.337-1.0984-2.901-1.4931-5.295-.2028-1.23-.3604-9.164-.35-17.634.01-8.469-.0228-22.693-.0733-31.608-.1803-31.9599.127-38.3843 1.984-41.4927 1.3269-2.2202 4.2854-3.9011 8.0104-4.5507 2.8782-.5024 2.8678-.5086 3.9069 2.4333.3789 1.0724.8418 2.0486 1.0288 2.1694.1874.1203.3355.4954.3297.8332-.0162.9297 3.2235 5.8841 4.9671 7.5963 4.3151 4.2365 9.539 4.693 13.0903 1.1438 1.3592-1.3584 1.4096-1.5164 1.4629-4.5762.0523-3.0107-.0201-3.2826-1.4501-5.4453-1.5918-2.4074-4.5062-4.6482-8.7757-6.7475-2.4645-1.2119-3.4509-2.4266-5.0651-6.2369-.4513-1.066-.9763-2.2621-1.1661-2.658-1.6186-3.3748-2.7418-9.4709-2.6764-14.529.0692-5.3697.6332-7.8541 2.6976-11.8783 3.9135-7.6284 10.9252-13.23804 20.3741-16.29945 4.423-1.43283 13.4854-1.64901 18.7728-.44772 8.2712 1.87961 14.5652 6.23457 18.8972 13.07457 3.001 4.7386 4.559 12.2112 3.73 17.8954-.439 3.0118-.173 2.9151-4.999 1.8134-8.989-2.0514-17.5373-1.1219-23.4187 2.547-6.5611 4.0926-9.9312 9.7875-10.0424 16.9698-.1392 8.9735 4.8851 15.1423 17.6502 21.6716 14.2219 7.2749 15.9059 8.2085 18.3509 10.1753 4.168 3.3532 5.158 5.3615 5.072 10.2872-.057 3.2655-.189 3.8645-1.271 5.7455-2.638 4.583-6.971 7.199-12.385 7.477-5.8058.297-10.0105-1.391-14.0101-5.624-3.4133-3.614-5.1908-7.9104-6.5419-15.8162-.1869-1.0945-.2763-1.1355-2.3041-1.0534l-2.1094.0851-.1672 3.6441c-.0923 2.0043-.0855 6.8368.0151 10.7384l.1824 7.095 2.0012 1.069c10.321 5.509 24.913 6.599 34.073 2.544 7.555-3.345 12.393-9.446 13.693-17.2665.626-3.7723-.059-8.0797-1.913-12.0308-1.262-2.6893-4.819-6.8253-7.465-8.6802-.768-.5382-1.485-1.1027-1.594-1.2542-.108-.1509-2.268-1.3911-4.8-2.7549-4.094-2.206-6.239-3.2566-11.215-5.4931-6.8242-3.0671-11.1581-6.3609-12.7962-9.7263-1.7174-3.5272-1.1384-8.8259 1.3059-11.9488 2.3496-3.0026 7.1115-4.6195 12.5413-4.2582 3.08.2046 3.955.4286 5.707 1.461 1.906 1.1223 4.107 2.9973 5.128 4.3687 1.223 1.6406 3.777 7.9211 4.376 10.7585l.687 3.2538 4.562.323.024-2.3499c.014-1.2924-.044-7.9129-.129-14.7121-.137-11.0263-.254-12.802-1.082-16.4307-1.079-4.7294-1.885-6.8425-3.984-10.449-2.612-4.485-5.248-7.33251-9.44-10.19875-6.979-4.7706-13.8562-6.7782-23.8147-6.95175386-9.8775-.17172214-17.4679 1.90512386-25.0648 6.85772386-6.9218 4.51308-11.409 10.23938-14.3234 18.27868-1.1224 3.0966-1.3196 4.2619-1.606 9.4851-.3397 6.1933-.0571 9.6658 1.2404 15.2604.5021 2.1647.5612 3.0143.2173 3.1164-.4008.1187-39.96254.3348-44.40666.2424l-1.51436-.0314-.08305 4.7726 4.53842.3616c8.08405.644 11.68695 2.4168 13.68385 6.7325 1.1057 2.3891 1.1383 2.6718 1.2963 11.1665.0891 4.7935.1991 24.2657.2445 43.2697.0903 37.666.0758 37.943-2.1447 40.906-2.2118 2.95-7.98732 4.802-14.61774 4.686l-3.2477691-.057-.0845909 4.862 6.76568.05c3.72092.028 14.03742.039 22.92512.025z" fill-rule="evenodd"/></svg>