<svg enable-background="new 0 0 445.725 247.923" viewBox="0 0 445.725 247.923" xmlns="http://www.w3.org/2000/svg"><g clip-rule="evenodd" fill-rule="evenodd"><path d="m57.626.449c.301 55.864-.12 114.873-.12 173.331 0 3.733-.513 7.573.24 11.276 3.035.579 6.196.458 9.356.359 3.255-.102 6.624 0 9.956 0 19.175.002 39.148.546 58.537.12.097-.022.119-.121.24-.12.652-2.489.36-5.139.36-7.677 0-12.97.121-25.986.12-39.585-.002-26.174.389-53.093 0-78.809-.023-.098-.121-.119-.12-.24-4.605-.414-9.588-.67-14.514-.479-14.638.565-30.099-.14-44.623-.36-.595-4.584-.36-9.325-.36-14.154 0-13.848.083-29.076.36-43.543.102.023.113-.047.12-.119 62.024-.11 123.063.369 184.008.359 59.462-.009 118.869.479 178.97.479 1.798 0 3.658-.288 5.398.36.183 22.859.313 47.441-.12 70.892-.107.054-.215.105-.24.24-6.362.122-13.869.356-20.032-.12-.728-.771-.554-2.038-.6-2.999-.15-3.169.12-6.78.12-10.315 0-13.892.305-28.25-.24-40.544-1.564-.635-3.293-.36-4.918-.36-46.62.002-93.775-.353-138.426-.359-6.687-.001-13.402.149-20.032 0-26.913-.609-54.603.183-81.928-.36-6.865-.136-13.732 0-20.632 0-20.789 0-41.035-.275-61.536 0-.645 1.786-.36 3.935-.36 5.998 0 6.015-.257 12.735.12 18.352 2.308.642 4.765.359 7.197.36 14.803.001 29.214.116 44.503.119 2.396.001 4.826-.293 7.077.36.178 54.146-.019 107.693-.36 161.337-.107.053-.215.104-.24.239-9.452.389-19.055.119-28.668.12-29.072.004-59.098-.147-87.686-.6-.6-15.458-.036-31.099-.12-46.781-.167-31.101.12-62.318.12-93.924 0-7.792-.082-15.623 0-23.391.082-7.785.479-15.564-.24-23.271-5.428-.691-12.545-.328-18.353-.24-.053.106-.106.215-.24.24-.297 70.157-.688 140.594-.36 210.637 1.254.633 2.767.36 4.078.36 43.316.005 88.119.617 131.349.6.053.106.105.215.24.24.123 5.803.355 12.748-.12 18.353-12.745.705-25.669.24-38.625.24-37.237-.002-74.162-.483-111.676-.48-1.472 0-3.06.267-4.439-.359-.379-30.53 0-61.868 0-93.084 0-39.918.36-82.5.36-122.712 0-7.518 0-14.901 0-22.671 0-2.307-.241-6.658.359-7.437.088-.112.218-.183.36-.24 14.429-.331 28.912.391 42.943.12 4.594-.087 9.096-.395 13.437.242z"/><path d="m277.14 43.152c.509 23.138.118 46.307.12 69.812.003 37.713-.348 76.512-.12 115.154 2.876.762 5.898.479 8.876.48 45.6.001 92.573.633 137.826.119.12-.159.198-.361.36-.479.175-38.363.442-77.255.12-114.915-2.145-.595-4.642-.378-7.197-.479-2.442-.097-4.959.018-7.437.12-4.911.202-9.959-.157-14.874-.12-9.89.075-19.893-.186-29.749.239-.642 1.56-.36 3.462-.36 5.278 0 5.354-.293 11.134.12 16.193 12.799.907 27.195-.117 39.944.601.193-.034.206.113.36.119.329 11.038.119 23.025.12 35.026 0 11.941.082 23.896-.36 34.906-17.89.44-36.155.116-54.338.12-18.139.004-36.525.033-54.339-.48-.139.02-.213-.027-.24-.12-.232-26.822.001-53.947 0-81.208-.002-26.565.09-55.153.36-80.249 33.648-.597 68.463.007 102.559 0 2.169 0 4.386-.292 6.478.36.121 9.359.357 19.869-.12 29.028-5.655.396-12.939.399-18.593 0-.628-3.855-.109-8.438-.479-12.715-1.17-.839-2.752-.427-4.079-.479-9.954-.397-21.004-.122-31.308-.12-11.894.002-23.823-.427-35.026.12-.097.022-.12.12-.24.12-1.039 20.665.153 42.543-.48 62.734-.336 10.746 0 21.415 0 32.028.001 10.485-.313 20.988 0 31.547 2.419.848 5.438.48 8.517.48 14.812 0 29.819.123 44.863.12 5.964-.002 11.813.263 17.393-.24.625-10.194.441-22.131.12-32.747-3.06-.686-6.452-.48-9.836-.48-6.689-.001-13.678 0-20.512 0-3.397-.001-6.753.275-9.836-.36-.595-9.19-.051-19.035-.24-28.549-.188-9.506.205-19.136.36-28.309 31.132-.335 62.193-.008 93.563 0 1.958 0 3.997-.284 5.878.359.461 18.909.12 37.74.12 56.858 0 31.302.005 62.885-.48 94.523-.107.053-.214.105-.24.24-15.522.18-31.019.124-46.542.119-47.037-.013-94.152-.243-140.945-.72-.642-1.807-.36-3.764-.36-5.638 0-61.423.713-122.336.24-182.088-.107-.054-.215-.105-.24-.24-19.688-.327-41.215-.391-61.176-.12-.635 3.828-.359 7.783-.36 11.636-.003 58.276-.175 117.048-.72 176.211-5.53.398-12.703.398-18.233 0-.398-25.638-.001-51.334 0-77.25.003-41.102.242-79.838.24-121.152-.001-2.062-.428-4.404.6-5.878 12.55-.111 26.341.094 38.865.12 16.112.035 32.974-.115 49.061 0 4.028.034 8.034-.244 11.996.365z"/></g></svg>