<svg enable-background="new 0 0 83.014 83.59" viewBox="0 0 83.014 83.59" xmlns="http://www.w3.org/2000/svg"><path clip-rule="evenodd" d="m82.792.25c.139 4.888.32 10.498 0 15.332-7.329.172-14.886.103-21.962.104-2.082.001-3.66.022-4.921.622-2.449 1.165-3.938 3.513-4.454 6.63-.257 1.551-.034 3.303-.104 5.335-.118 3.401 0 7.093 0 10.774 0 5.514.089 11.089.052 16.575-.013 1.864-.107 3.747 0 5.438.213 3.352 2.169 5.303 4.455 6.578 1.536.676 3.656.519 5.802.519 2.121 0 4.355.083 6.215-.104.301-2.527.083-5.16.155-7.769.148-5.308-.052-10.445-.052-15.644 0-1.327 0-2.665 0-3.988 0-1.282-.125-2.591.156-3.833 4.739-.089 9.844-.162 14.71.052.239 14.993.178 31.243.104 46.566-3.26.266-6.615.104-9.997.104-23.704-.002-49.269.084-72.724 0-.26-3.214-.088-6.553-.155-9.945-.136-6.877 0-14.039 0-21.134 0-5.321-.052-10.38-.052-15.642 0-12.155-.086-24.444.104-36.517 1.006-.276 2.088-.156 3.108-.156 3.167 0 6.385-.053 9.583-.052 4.212.002 8.474.195 12.69 0 4.565-.212 9.762-.001 14.503 0 14.163.004 28.681.011 42.784.155zm-63.037 67.855h4.455c3.079 0 6.084.264 8.08-.881 1.828-1.048 3.076-2.813 3.678-5.231.603-2.427.363-5.59.363-8.599 0-8.827-.052-17.705-.052-26.676 0-1.549.079-3.037-.104-4.351-.193-1.391-.522-2.453-1.139-3.367-1.154-1.71-2.835-3.09-5.439-3.315-1.318-.113-2.794-.051-4.351-.051-3.414-.001-6.305-.011-9.686.155-.278 1.007-.155 2.073-.155 3.107 0 12.169.052 23.999.052 36.154 0 4.358-.122 8.812.155 12.95 1.492.284 2.844.105 4.143.105z" fill-rule="evenodd"/></svg>