<svg enable-background="new 0 0 22.473 38.531" viewBox="0 0 22.473 38.531" xmlns="http://www.w3.org/2000/svg"><path d="m.193 1.687c.911-.583 1.845-1.135 2.776-1.687 6.283 3.651 12.647 7.162 18.975 10.731-.757.604-1.706 1.048-2.543 1.582-.248.226-.488-.1-.716-.191-6.224-3.362-12.376-6.875-18.492-10.435z"/><path d="m0 2.055c6.312 3.586 12.621 7.205 18.988 10.69.11 1.077.033 2.182.054 3.269-5.348-2.933-10.69-5.924-15.996-8.916-.111-.032-.217.074-.194.184-.006 6.164.106 12.323.152 18.485-.862.637-1.841 1.157-2.773 1.702-.091-8.472-.187-16.942-.231-25.414z"/><path d="m3.237 7.625c.941.506 1.863 1.056 2.776 1.611.032 4.961.043 9.922.17 14.878 4.336 2.564 8.786 4.918 13.198 7.341.044-.025.13-.076.174-.102.002-2.536.022-5.1-.087-7.618-2.161-1.212-4.33-2.41-6.49-3.626-.027-1.098-.025-2.202-.026-3.303 3.129 1.755 6.286 3.464 9.378 5.281.053 4.802.08 9.605.143 14.408-4.746-2.596-9.44-5.316-14.196-7.879-1.621-.96-3.356-1.788-4.889-2.861-.015-6.046-.159-12.081-.151-18.13z"/><path d="m19.413 12.751c.92-.571 1.872-1.097 2.792-1.671-.002 1.087.1 2.196.029 3.272-.9.592-1.844 1.16-2.803 1.662-.025-1.086-.018-2.175-.018-3.263z"/><path d="m9.742 18.479c.924-.559 1.841-1.152 2.792-1.659.006 1.101.046 2.206.004 3.304-.934.53-1.831 1.127-2.778 1.632-.019-1.092-.021-2.186-.018-3.277z"/><path d="m10.064 22.031c.917-.52 1.793-1.112 2.72-1.614 2.009 1.187 4.148 2.237 6.097 3.474-.837.565-1.745 1.024-2.605 1.556-.244.198-.493-.083-.72-.169-1.812-1.034-3.643-2.036-5.449-3.079-.083-.013-.136-.13-.043-.168z"/><path d="m16.277 25.895c.936-.569 1.877-1.168 2.855-1.646-.011 2.215.079 4.423.067 6.639-.974-.425-1.903-1.019-2.841-1.541-.122-1.126-.081-2.305-.081-3.452z"/><path d="m.491 27.874c.737-.681 1.826-1.142 2.704-1.73 6.309 3.609 12.707 7.063 19.025 10.67-.774.663-1.847 1.182-2.766 1.717-6.346-3.509-12.645-7.113-18.963-10.657z"/></svg>