<svg enable-background="new 0 0 52.581 74.715" viewBox="0 0 52.581 74.715" xmlns="http://www.w3.org/2000/svg"><g clip-rule="evenodd" fill-rule="evenodd"><path d="m52.477 26.045c-2.704.141-6.13.168-9.012 0-.364-.447-.161-1.051-.195-1.51-.111-1.504-.536-2.795-.975-4.043-.579-1.65-1.307-3.074-2.29-4.385-1.902-2.537-4.336-4.746-7.501-5.894-3.432-1.246-8.012-1.385-11.497-.242-3.327 1.088-5.835 3.092-7.843 5.504-2.079 2.498-3.428 5.607-3.702 9.693-.277 4.141-.097 8.738-.097 13.299 0 8.859-.106 18.172.146 26.402 13.957.205 28.727-.012 42.868.195.266 1.469.11 3.145.097 4.773-.013 1.617.227 3.293-.097 4.725-17.281.238-34.555.15-52.074.049-.057.008-.087-.01-.098-.049-.164-8.152-.097-16.51-.097-24.844 0-4.172.114-8.359 0-12.469-.116-4.172-.177-8.356 0-12.375.336-7.649 3.715-13.359 7.745-17.389 1.039-1.041 2.328-1.865 3.556-2.729 2.473-1.74 5.233-3.187 8.525-4.043 3.355-.871 8.234-.959 11.886-.195 1.822.381 3.392 1.051 4.92 1.705 6.193 2.65 10.729 7.031 13.494 13.103.682 1.496 1.238 3.188 1.656 4.969.415 1.766.907 3.713.585 5.75z"/><path d="m41.322 26.045c-2.585.164-5.842.16-8.427 0-.229-.766-.276-1.543-.536-2.191-.842-2.103-3.317-4.195-6.333-3.898-2.693.266-5.095 2.111-5.699 4.58-.276 1.125-.217 2.449-.244 3.654-.084 3.826.044 7.412.098 11.203.719.336 1.581.146 2.387.146 5.934 0 12.739-.002 18.559.193.162 2.715.163 6.104 0 8.818-6.723.26-13.997-.033-20.8.146-.505.842.141 2.836-.438 3.604.394.512.178 1.25.195 1.9.066 2.648.229 5.789 0 8.574-.626.256-1.407.145-2.144.145-2.135 0-4.607.076-6.576-.049-.287-2.594-.098-5.299-.146-8.037-.047-2.656 0-5.361 0-8.086 0-5.6 0-11.295 0-16.758 0-2.853.124-5.445.682-7.697.54-2.172 1.541-3.975 2.826-5.553 2.546-3.125 5.861-5.498 11.155-5.748 2.465-.115 4.63.469 6.43 1.268 1.82.807 3.237 1.754 4.579 3.068 1.231 1.205 2.395 2.875 3.117 4.578.747 1.767 1.494 3.826 1.315 6.14z"/></g></svg>