<svg enable-background="new 0 0 79.033 60.64" viewBox="0 0 79.033 60.64" xmlns="http://www.w3.org/2000/svg"><path clip-rule="evenodd" d="m79.033 60.466c-9.063.263-18.709.149-28.262.149-9.542 0-18.916-.049-28.013-.05-3.305 0-6.165-.117-8.592-.944-6.77-2.305-11.721-7.704-13.51-15.049-.637-2.615-.859-5.608-.447-8.592.746-5.399 3.529-9.162 5.762-13.262 3.336-6.125 6.711-12.33 10.033-18.477.551.172.742.798.993 1.242 1.818 3.219 3.838 6.551 5.761 9.785 1.076 1.808 2.087 3.687 3.228 5.662.771 1.333 1.646 2.789 2.483 4.222.266.455.788 1.038.795 1.391.006.322-.48 1.068-.745 1.54-2.482 4.414-5.033 8.723-7.351 13.212-.52 1.006-1.162 2.014-1.49 3.079-1.682 5.454 1.621 10.33 5.413 11.92 2.144.899 5.191.795 8.344.795h9.139c3.003 0 5.999.102 8.841-.149-.098-.691-.517-1.304-.844-1.887-2.302-4.105-4.823-8.291-7.251-12.368-2.797-4.695-5.489-9.442-8.245-14.155-1.375-2.353-2.878-4.632-4.222-7.003-3.708-6.547-7.56-12.97-11.324-19.52-.349-.606-.844-1.161-.894-1.887 8.275-.192 17.376-.107 25.43-.05.574.428.889 1.128 1.242 1.738 1.066 1.848 2.188 3.778 3.228 5.712 2.529 4.215 4.927 8.492 7.351 12.765.316.558.48 1.177.795 1.738 2.059 3.672 4.416 7.317 6.556 11.026 4.905 8.498 9.854 16.97 14.801 25.43.344.651.861 1.127.995 1.987z" fill-rule="evenodd"/></svg>