<svg enable-background="new 0 0 73.722 37.428" viewBox="0 0 73.722 37.428" xmlns="http://www.w3.org/2000/svg"><g clip-rule="evenodd" fill-rule="evenodd"><path d="m73.511 37.215c-.672.313-1.443.187-2.156.187-22.23.001-44.009-.092-66.666-.093-.718 0-1.393.009-2.25 0-.769-.008-1.866.098-2.157-.141-.35-.288-.231-1.394-.234-2.109-.04-8.364-.048-17.084-.048-25.457 0-2.246.035-4.726.047-7.032.004-.747-.087-2.065.234-2.344.311-.27 1.337-.188 2.063-.188h31.692c3.237 0 6.459-.198 8.439 1.031.293.182.66.514.984.844.306.309.733.751 1.032.75.571-.002.75-.837 1.266-1.031 1.485-1.594 4.323-1.547 7.595-1.547 5.673-.001 11.382-.22 17.112.047.92.042 2.622-.273 3.047.187.26.281.188 1.334.188 2.156v32.63c-.001.703.122 1.468-.188 2.11zm-29.864-3.515c0-4.621-.094-8.921-.094-13.502 0-3.894-.223-7.755-.094-11.486.091-2.638-.272-4.596-1.594-5.72-1.301-1.106-3.2-1.031-5.579-1.078-3.546-.07-6.836.059-10.173-.094-1.65-.075-3.851-.022-5.345.047-3.123.145-6.329.017-9.329 0-1.474-.008-3.049 0-4.735 0-1.004 0-4.073-.275-4.5.281-.205.266-.141 1.281-.141 1.969 0 8.136-.026 14.849-.047 23.019-.004 1.792.008 4.129.047 6.094.015.733-.07 1.743.141 2.016.342.445 1.82.281 2.672.281h5.907c.848 0 2.373.153 2.719-.234.382-.426.188-2.043.188-2.954 0-6.27-.141-12.538-.141-18.893 0-1.011-.2-2.079.188-3 .489-.254 1.44-.29 1.735.093.312.406.172 2.249.141 3-.137 3.253.141 6.435.141 9.376 0 3.394-.003 6.439.047 9.517.017 1.034-.217 2.094.188 2.907.775.319 1.812.187 2.813.187 2.15 0 3.829-.047 5.954-.047.915 0 2.31.207 2.719-.234.359-.387.188-2.084.188-3 0-6.34.087-12.89-.188-18.8-.029-.629-.139-2.563.188-2.953.345-.413 1.542-.288 1.781 0 .337.405.177 1.828.188 2.907.061 6.38.094 12.075.094 18.799 0 .791-.15 2.546.141 3 .331.516 2.318.328 3.329.328 2.446 0 4.686-.09 6.938 0 1.093.044 2.195.088 3.282-.141.341-.494.231-1.126.231-1.685zm15.893-18.097c.002.46-.033 1.363.188 1.641.355.447 1.974.234 2.813.235 2.109 0 4.016-.019 6.095.046 1.035.033 2.186.134 2.954-.234.284-1.064.141-2.296.141-3.563 0-2.572 0-5.239 0-7.782 0-1.298.138-2.623-.188-3.751-.647-.418-1.478-.281-2.25-.281-4.195 0-8.536-.043-12.658 0-1.69.017-3.331-.073-4.875 0-1.576.074-3.331.157-4.407.891-.735.502-1.454 1.563-1.688 2.625-.227 1.032-.141 2.352-.141 3.657 0 7.668.141 15.225.141 22.691 0 1.23-.122 2.494.234 3.61.935.328 2.02.188 3.094.188h3.329c5.567-.001 10.842-.186 16.221 0 .993.034 2.726.129 3.047-.281.2-.256.223-1.116.188-1.875-.161-3.413-.03-6.748-.047-9.892-.007-1.346.223-2.719-.188-3.844-.803-.317-1.837-.188-2.86-.188-2.08 0-4.081 0-6.048 0-.769 0-2.428-.203-2.813.188-.261.265-.188 1.191-.188 1.735 0 1.924.179 4.133-.188 5.485-.244.211-1.381.343-1.688-.047-.212-.27-.188-1.183-.188-1.875 0-3.613-.094-6.916-.094-10.408 0-.857-.323-3.523.141-3.985.3-.298 1.381-.242 1.688-.047.348 1.356.225 3.277.235 5.061z"/><path d="m36.943 18.228c.215.707.745 1.099 1.125 1.641.543.379.792 1.053 1.454 1.312.922-.206.182-2.018 1.359-1.875.759.092.441 1.173.375 1.547-.121.681-.466 1.11-.375 1.781.076.555.63.846.891 1.125.147.158.874.762.797 1.172-.059.312-.533.472-1.125.281-.486-.157-.877-1.108-1.453-1.125-.44-.013-1.002.695-1.406.938-.447.269-1.065.516-1.407.609-2.212.609-4.364-.514-5.157-2.062-.598-1.168-.41-3.038.234-3.938.515-.721 1.281-1.039 1.922-1.922-.266-.921-.86-1.343-.985-2.25-.271-1.975 1.184-3.186 2.954-3.188 1.428-.001 2.481 1.122 2.626 2.344.194 1.648-1.064 2.623-1.829 3.61zm-.984-1.172c.552-.004 1.23-.804 1.359-1.125.246-.611.224-1.466-.094-1.922-.636-.913-2.257-.603-2.625.516-.21.993.602 2.538 1.36 2.531zm-.891 1.876c-.848.303-1.839 1.236-1.969 2.344-.119 1.01.255 2.181 1.172 2.766 1.553.99 4.052.334 4.501-1.266-.272-.947-1.164-1.274-1.501-2.156-.664-.319-1.323-2.003-2.203-1.688z"/></g></svg>