<svg enable-background="new 0 0 129.567 185.353" viewBox="0 0 129.567 185.353" xmlns="http://www.w3.org/2000/svg"><g clip-rule="evenodd" fill-rule="evenodd"><path d="m90.184.182c.206 25.416.102 51.533.104 77.874.001 12.884-.081 25.609.052 38.236.133 12.527 0 25.885-.052 38.184-.046.023-.093.047-.104.105-3.672.086-7.706.086-11.378 0-.13.008-.162-.08-.207-.156-.16-44.715-.101-90.179-.104-135.852 0-5.133 0-11.255 0-16.572 0-.726-.191-1.882.52-1.922 3.405-.195 7.558.025 11.169.103z"/><path d="m109.874 30.832c.276 6.246.103 12.65.103 19.066 0 19.751.054 38.615.052 57.665-.002 25.818.095 51.541-.052 77.615-3.642.32-7.799.1-11.533.106-.023-.047-.045-.094-.104-.106-.197-22.676-.158-45.312-.156-68.367.001-3.252-.123-6.541 0-9.611.127-3.166-.172-6.367-.052-9.559.118-3.145.073-6.305 0-9.403-.075-3.149 0-6.308 0-9.507.002-12.657-.003-25.601 0-38.548 0-2.61.022-5.637.052-8.468.008-.753-.031-.883.468-.987.839-.175 1.935 0 2.909 0 2.68 0 5.539-.001 8.313.104z"/><path d="m129.407 30.832c.223 15.426.105 31.086.104 46.756-.001 25.531.156 50.594-.052 76.836-3.587.215-7.888.238-11.533.051-.022-.045-.045-.092-.104-.104-.18-34.894-.107-72.872-.104-108.11 0-3.875-.001-7.619 0-11.637 0-1.096-.108-3.332.155-3.793.038-.048.095-.079.156-.103 3.76.069 7.792-.137 11.378.104z"/><path d="m31.271 30.885c.023.046.046.093.105.104.175 15.48-.039 31.177 0 46.392.032 12.732-.143 25.796.052 38.911.18 12.135.015 25.82 0 38.289-.046.021-.093.045-.104.104-3.655.051-7.809.154-11.377-.053-.271-10.205-.156-20.75-.156-31.17.003-31.512-.087-61.637.053-92.473.046-.023.093-.046.104-.104 3.618-.233 7.628-.031 11.323 0z"/><path d="m51.012 30.885c.197 28.436.105 57.443.105 85.356 0 9.955.051 20.262.052 30.807 0 2.541.164 5.068-.104 7.533-2.653.256-5.927.154-8.884.154-.98 0-1.929.025-2.754-.154-.182-4.504-.104-10.303-.104-15.379.001-13.129-.053-26.047-.052-38.6.001-15.207-.002-31.135 0-46.755 0-7.172.051-14.092.052-21.352 0-.925-.185-1.578.468-1.714.803-.167 1.854.052 2.805.052 2.768 0 5.881-.09 8.416.052z"/><path d="m70.495 30.885c.215 20.455.106 41.666.104 62.29-.003 20.497.135 41.565 0 61.354-.042.01-.052.053-.104.053-3.378.152-7.79.186-11.326 0-.272-5.074-.155-10.283-.155-15.482 0-7.857 0-15.692 0-23.586 0-5.141-.051-10.191-.052-15.326-.002-12.827.002-25.821 0-38.858-.001-5.231.122-10.423 0-15.533-.06-2.47-.043-4.986 0-7.429.023-1.27-.006-2.535.052-3.792.057-1.249-.171-2.518.155-3.741 3.638-.054 7.774-.158 11.326.05z"/><path d="m11.79 30.989c.347 9.157-.082 19.226.052 28.573.018 1.233.223 2.525-.208 3.636.33.819.246 1.732.208 2.598-.12 2.747.052 5.716.052 8.624.002 26.373.046 53.513 0 80.162-.046.021-.093.045-.103.104-2.655.119-5.797.104-8.78.104-.965 0-1.954.121-2.805-.156-.194-20.76-.107-41.898-.103-62.445 0-5.127.082-10.255 0-15.377-.227-14.061-.003-28.307 0-42.236 0-.643-.001-1.327 0-1.974 0-.559-.162-1.217.207-1.714 2.527-.093 5.982-.052 8.78-.052.934-.003 1.878-.128 2.7.153z"/></g></svg>