<svg enable-background="new 0 0 44.674 78.531" viewBox="0 0 44.674 78.531" xmlns="http://www.w3.org/2000/svg"><path clip-rule="evenodd" d="m10.029.113c1.209 2.238 2.033 4.659 3.064 7.005 2.562 5.828 5.131 11.691 7.589 17.609.481 1.159.854 2.396 1.557 3.454.534-.38.644-1.089.876-1.654 2.634-6.422 5.534-12.962 8.221-19.409.981-2.354 1.865-4.755 3.016-7.005 3.186-.214 6.787-.013 10.07 0 .265 2.049.146 4.138.146 6.227.002 14.668.097 29.628.098 44.121 0 4.317.159 8.602-.827 11.87-.957 3.169-2.412 6.027-4.329 8.318-1.842 2.201-4.295 4.221-7.103 5.545-2.858 1.349-6.281 2.399-10.312 2.335-3.991-.063-7.384-1.119-10.118-2.578-5.307-2.831-9.49-7.787-11.14-14.205-.43-1.671-.682-3.628-.681-5.643 0-17.375-.097-35.232-.098-53.12 0-.528.017-1.068 0-1.605-.015-.417-.187-.941.145-1.314 3.172-.064 6.873-.123 9.826.049zm8.173 35.608c-3.864-8.292-7.413-16.785-11.237-25.052-.032 0-.064 0-.098 0-.061.02-.099.063-.097.146-.089.923-.049 1.963-.049 2.967.001 8.072-.057 16.015.145 23.642.882.256 1.897.146 2.919.146h7.687c.46 0 1.014.132 1.361-.195-.023-.609-.387-1.13-.631-1.654zm19.603-24.955c-.049 0-.058-.04-.097-.049-.388.359-.684 1.098-.973 1.752-1.735 3.924-3.49 7.842-5.157 11.626-1.499 3.403-2.952 6.657-4.427 9.972-.499 1.123-1.144 2.201-1.41 3.405 3.827.156 8.426.17 12.112 0 .195-9.014.086-17.692-.048-26.706zm-3.697 32.884c-9.203 0-18.344.008-27.144.049-.337.803-.194 1.711-.194 2.577 0 .9.039 1.825.049 2.725.037 3.595-.351 7.556.243 10.653.564 2.95 1.993 5.652 3.648 7.492 2.5 2.779 6.314 5.205 11.48 5.205 3.569 0 6.314-1.02 8.61-2.481 3.28-2.089 5.96-5.45 6.859-9.826.326-1.582.341-3.308.341-5.254 0-3.551.073-7.399-.146-10.994-1.223-.262-2.487-.146-3.746-.146z" fill-rule="evenodd"/></svg>