<svg enable-background="new 0 0 17.527 18.302" viewBox="0 0 17.527 18.302" xmlns="http://www.w3.org/2000/svg"><path d="m7.796.105c2.204-.343 4.527.165 6.385 1.4 1.457.954 2.632 2.335 3.334 3.928.042.067-.034.11-.075.148-.967.807-1.938 1.609-2.906 2.416-.325.28-.67.537-.986.828-.495-.604-1.061-1.157-1.71-1.595-1.277-.887-2.827-1.36-4.38-1.37-1.971-.002-3.939.765-5.361 2.135-.346.323-.661.678-.941 1.06 1.049 1.537 2.69 2.654 4.496 3.099 1.867.47 3.908.212 5.594-.719.873-.473 1.65-1.121 2.282-1.886 1.331 1.108 2.662 2.215 3.995 3.32-.455.985-1.057 1.911-1.829 2.676-1.243 1.291-2.885 2.192-4.639 2.559-1.657.351-3.412.235-5.005-.345-1.394-.501-2.657-1.353-3.657-2.443-.66-.741-1.219-1.578-1.613-2.491-.503-1.125-.741-2.355-.78-3.583.007-1.698.453-3.402 1.347-4.852.326-.544.727-1.038 1.147-1.512 1.396-1.475 3.286-2.485 5.302-2.773z"/><path d="m3.899 7.533c.268-.056.553.024.764.196.196.173.307.432.311.692-.011.256-.128.506-.327.668-.24.224-.609.267-.908.147-.322-.133-.557-.463-.555-.815-.014-.416.307-.81.715-.888z"/></svg>