<svg enable-background="new 0 0 77.125 77.831" viewBox="0 0 77.125 77.831" xmlns="http://www.w3.org/2000/svg"><g clip-rule="evenodd" fill-rule="evenodd"><path d="m6.754 61.1c-2.567-4.008-4.65-8.477-5.827-13.759-.397-1.782-.57-3.701-.783-5.729-.439-4.171.194-8.282.98-11.85.367-1.673.996-3.364 1.566-4.945 1.751-4.855 4.278-8.557 7.491-12.094 2.054-2.261 4.295-4.346 6.953-6.072 5.354-3.476 11.631-6.232 19.636-6.61 4.836-.228 8.841.539 12.534 1.616 5.515 1.606 9.904 4.211 13.711 7.492 3.707 3.195 7.134 7.19 9.45 11.703.754 1.468 1.696 3.208 2.105 4.995 1.024 4.48-1.805 7.635-5.142 8.569-1.933.541-4.242-.018-5.631-1.028-1.451-1.056-2.244-2.281-3.33-3.77-.967-1.329-1.957-2.78-2.986-4.065-2.091-2.608-3.966-5.532-6.268-7.834-3.579-3.58-7.771-6.271-13.318-7.884-1.749-.508-3.996-.892-6.071-.979-4.652-.196-8.618.567-12.143 1.91-3.408 1.297-6.398 3.098-8.863 5.239-5.074 4.406-8.779 10.353-10.038 18.213-1.412 8.822 1.552 16.877 5.19 22.132 2.786 4.023 6.759 7.365 11.507 9.695 4.501 2.209 11.413 3.686 17.872 2.448 3.961-.759 7.354-2.017 10.332-3.771 5.856-3.449 9.561-9.362 13.515-14.739.479-.651 1.053-1.304 1.566-2.007.505-.689.911-1.414 1.47-2.057 1.089-1.253 2.688-2.188 4.651-2.399 2.297-.247 4.12.549 5.337 1.616 1.213 1.064 2.223 2.57 2.448 4.603.236 2.131-.565 4.068-1.322 5.68-1.505 3.207-3.292 6.168-5.386 8.716-1.041 1.267-2.294 2.44-3.477 3.574-2.336 2.241-5.064 4.262-8.275 5.876-3.082 1.55-6.729 3.046-10.479 3.623-4.149.639-8.724.892-13.024.245-3.847-.578-7.581-1.912-10.724-3.378-6.435-3.002-11.432-7.696-15.227-12.975z"/><path d="m76.774 34.855c.39 1.117.343 2.736.343 4.26.001 1.544.093 3.145-.343 4.26-.702-.156-1.059-.841-1.566-1.273-1.437-1.221-3.302-2.382-5.632-2.791-3.467-.609-6.645.491-8.666 2.155-1.833 1.485-3.103 3.474-4.505 5.337-1.404 1.866-2.801 3.75-4.162 5.631-1.393 1.924-2.75 3.889-4.358 5.484-4.605 4.569-12.715 8.136-22.034 6.61-5.454-.893-9.751-3.434-13.073-6.562-3.252-3.062-6.112-7.236-7.394-12.241-.715-2.792-1.075-5.792-.832-8.813.481-5.962 2.542-10.484 5.484-14.151 1.429-1.781 3.123-3.502 4.994-4.798 1.992-1.379 4.066-2.408 6.366-3.428 3.368-1.494 8.304-1.978 12.779-1.273 4.153.654 7.567 2.095 10.332 4.113 2.914 1.799 5.118 4.5 7.197 7.296 2.048 2.753 4.1 5.603 6.072 8.373 1.048 1.473 2.195 2.689 3.477 3.771 1.336 1.126 3.135 1.666 5.288 1.958 3.96.538 7.184-1.217 9.205-3.183.269-.263.522-.756 1.028-.735z"/></g></svg>