<svg enable-background="new 0 0 36.511 39.09" viewBox="0 0 36.511 39.09" xmlns="http://www.w3.org/2000/svg"><path d="m16.865 1.949c.159-.75.362-1.769 1.251-1.949.869.104 1.278 1.155 1.246 1.937.897-.092 1.524.786 1.382 1.621-.602-.185-1.234-.093-1.607.46-.408 1.142 1.157 1.121 1.658.468.18.454.82.697 1.238.459.29-.551-.248-1.298-.862-1.249.173-1.093 1.554-.608 1.902-1.448.522-.598 1.62-.754 2.222-.26-1.372 1.456-2.281 3.288-3.152 5.072-2.644-.297-5.364-.477-7.988.06-.635-1.911-1.795-3.682-2.89-5.288.89-.368 2.026-.071 2.388.886.611-.077 1.474.35 1.423 1.026-.577-.099-1.05.701-.793 1.187.493.309.921-.102 1.287-.374.401.33.952.486 1.459.322.61-.863-.604-1.826-1.441-1.314-.158-.791.397-1.719 1.277-1.616z"/><path d="m8.936 4.797c.54-.653 1.571-.924 2.413-.984.46.562.861 1.172 1.152 1.839-1.14-.481-2.342-.764-3.565-.855z"/><path d="m25.153 3.805c.803.169 1.953.328 2.356 1.063-1.222.05-2.457.349-3.593.835.321-.69.761-1.308 1.237-1.898z"/><path d="m6.102 6.795c.519-1.01 1.984-1.211 3.045-1.148 1.489.129 3.005.758 3.96 1.946-.546.484-1.326.129-1.932.362 1.057 1.199.979 3.025.138 4.311-.174-1.279-1.635-1.672-2.05-2.815-.16 1.063-1.414 1.344-2.019 2.104-.64-.767-.665-1.836-.434-2.764.14-.709.138-1.743-.708-1.996zm1.266-.276c.49 1.029.776 2.175.675 3.321.559-.191.788-.853.975-1.32.415.226.851.48 1.307.652-.152-.411.064-.88-.248-1.239-.529-.587.725-.654.635-1.302-1.063-.42-2.269-.602-3.344-.112z"/><path d="m23.197 7.662c1.684-1.931 5.255-2.893 7.232-.891-1.162.456-.868 1.807-.649 2.761.136.712-.164 1.387-.517 1.986-.072.005-.141.01-.21.016-.528-.768-1.725-.989-1.879-2.005-.026.022-.079.069-.105.091-.377 1.678-2.13 2.786-2.068 4.628-1.494-1.79-.812-4.43.2-6.293-.672-.063-1.378.039-2.004-.293zm2.544-1.011c.025.445.426.764.815.91-.465.828-.964 1.707-1.081 2.665.799-.373 1.315-1.226 1.999-1.704.049.572.424 1.164.961 1.394-.164-1.166.166-2.314.661-3.357-1.065-.476-2.294-.314-3.355.092z"/><path d="m14.655 8.246c.998-.655 2.482-1.153 3.457-.205.831-.919 2.186-.46 3.12.033.835.382 1.44 1.16 2.334 1.424-.49.513-1.192-.235-1.722-.387-.067.058-.132.117-.197.176-.031.25.072.471.265.628-1.163.477-1.894-1.001-2.955-1.09-.52-.025-.467.667-.014.734-.256.358-.666.083-.986.004-.055.057-.109.114-.162.17-.214.015-.438 0-.578-.188.137-.068.275-.137.412-.208.102-.483-.531-.625-.858-.403-.788.36-1.518 1.383-2.473.962.074-.12.164-.228.266-.326.004-.103.007-.207.012-.31-.125-.093-.268-.146-.424-.127-.373.34-1.081.816-1.489.315.819-.104 1.284-.869 1.992-1.202z"/><path d="m3.732 9.885c.135-.688.76-2.077 1.619-1.481.479 1.196-.537 2.727.583 3.766-1.139.027-2.625-.29-3.143-1.441-.118-.553.48-.83.941-.844z"/><path d="m30.519 12.241c1.261-1.083-.19-2.964.891-4.004.799.165 1.141 1 1.314 1.708.574-.028 1.169.386.856 1.01-.633.98-1.951 1.333-3.061 1.286z"/><path d="m18.178 11.753c-1.16.059-.919-1.807.185-1.425.598.332.446 1.233-.185 1.425z"/><path d="m22.793 10.286c.333.165.591.448.655.823-.435 1.63-2.816.563-3.218-.531.81-.285 1.966 1.24 2.626.103-.054-.126-.066-.261-.063-.395z"/><path d="m13.053 11.687c-.469-.376-.287-1.236.318-1.327-.084.312.088.677.432.717.732.089 1.273-.542 1.971-.622.25.508-.427.762-.749 1.001-.566.329-1.418.853-1.972.231z"/><path d="m4.601 12.957c1.651.173 3.653-.005 4.706-1.474.377.823 1.337 1.676.797 2.639-.19-.507-.507-1.035-1.125-1.039.439.415.238 1.132-.271 1.388-.115-1.009-1.416-.914-2.099-.677 2.16.554 2.062 3.659.327 4.672-1.084 1.081-2.656.819-3.986 1.228.132-1.246 1.808-.518 2.301-1.195-.208-.173-.448-.302-.728-.255.351-1.337 2.21-.613 2.951-1.567.025-.238.028-.561-.272-.612-.185.123-.368.252-.551.378-.023-.375.161-.808-.161-1.106-.737-.699-1.375-1.503-1.889-2.38z"/><path d="m27.059 11.565c1.149 1.358 3.101 1.661 4.8 1.431-.522.882-1.146 1.713-1.901 2.408-.321.291-.191.732-.23 1.112-.182-.213-.414-.406-.715-.362-.266.408.086.873.5.98.815.262 1.854.175 2.393.966-.004.071-.006.143-.007.214-.292-.045-.744.069-.682.446.763.218 1.973-.048 2.281.934-1.028-.336-2.201-.034-3.153-.634-1.004-.489-1.964-1.326-2.153-2.481-.297-1.15.478-2.482 1.663-2.707-.725-.312-1.925-.355-2.199.608-.52-.259-.575-.883-.275-1.336-.63-.044-.885.596-1.132 1.049-.398-.981.37-1.827.81-2.628z"/><path d="m.06 18.431c-.164-2.37.67-4.726 1.956-6.689-.077 1.364-.403 2.711-.308 4.09-.043.741.196 1.667.986 1.923-.146.767-1.094.617-1.494.153-.041.599.255 1.293.868 1.485.009.044.028.132.037.176-.862.529-1.955-.201-2.045-1.138z"/><path d="m34.424 11.814c1.305 1.807 2.085 4.087 2.049 6.323.134 1.078-1.107 2.089-2.109 1.525-.003-.039-.009-.117-.012-.156.584-.229.962-.836.903-1.461-.51.353-1.323.528-1.592-.214.616-.149.986-.729 1.027-1.338.243-1.552-.109-3.118-.266-4.679z"/><path d="m11.602 13.049c2.797-.814 5.778-1.028 8.647-.474.921.268 1.855.633 2.527 1.344 1.334 1.369 1.137 3.845-.338 5.031-.835.773-1.997.947-3.008 1.318.729.137 1.47.239 2.161.523 2.023.628 3.422 2.92 2.822 4.995-.481 2.42-3.071 3.586-5.327 3.6-2.541.274-5.134.04-7.585-.705-.009-.192-.01-.384-.008-.575.561.005 1.305.238 1.598-.421.365-.911.205-1.916.276-2.875-.025-3.372.05-6.748-.03-10.116.021-.951-.912-1.299-1.714-1.066-.08-.185-.173-.401-.021-.579zm4.226-.108c-.013 2.349-.089 4.698-.015 7.038 1.524.021 3.42.061 4.488-1.229 1.077-1.739.93-4.873-1.312-5.611-1.031-.317-2.103-.266-3.161-.198zm.295 7.692c-.393-.087-.335.389-.354.642.011 1.763-.041 3.538.065 5.29-.007.663-.012 1.501.599 1.919.948.496 2.043.245 3.037.056 1.459-.431 2.345-1.984 2.284-3.454.135-1.235-.119-2.655-1.127-3.487-1.299-.929-2.976-.945-4.504-.966z"/><path d="m2.975 14.112c.161-.495-.045-1.048.205-1.516.553 1.133 1.373 2.222 1.455 3.517.068.493-.413.649-.8.723-1.011-.486-.793-1.797-.86-2.724z"/><path d="m33.227 12.699c.244 1.053.378 2.533-.075 3.666-.196.671-1.332.631-1.395-.092.104-1.32.893-2.424 1.47-3.574z"/><path d="m9.748 15.639c.327-.727 1.697-.433 1.549.404.049.699-.645 1.035-1.14 1.354.138.083.291.14.448.182.007.069.013.137.022.207-.395.052-.77.201-1.116.392-.568-.439.454-.926.617-1.382.414-.363.297-1.316-.38-1.157z"/><path d="m25.31 16.042c-.049-.793 1.329-1.098 1.517-.35-.12.007-.241.015-.359.022-.649.93.664 1.559.88 2.335-.372.407-.907-.366-1.391-.268.092-.216.306-.307.531-.303-.45-.395-1.279-.672-1.178-1.436z"/><path d="m10.098 18.766c.551-.16.935.274.992.784.205.714 1.059.46 1.557.752-.006.046-.019.139-.025.185-.241.226-.578.089-.863.191-.924.068-.634 1.684-1.713 1.364.383-.283.349-.918-.087-1.124-.783.48-1.725.43-2.534.046-.775-.448-1.765-.184-2.534-.594.848-.313 1.807-.16 2.631-.569.747-.43 1.766-.424 2.459.112.449-.258.482-.802.117-1.147z"/><path d="m25.152 19.578c.11-.5.466-.945 1.031-.82-.336.327-.394 1.065.184 1.135.732-.55 1.719-.408 2.497-.03.79.407 1.779.22 2.552.595-.769.341-1.69.155-2.469.524-.82.358-1.875.547-2.624-.068-.382.231-.546.84-.146 1.142-.397.096-.882-.07-.93-.526-.197-.831-1.231-.912-1.936-.891-.059-.084-.116-.167-.173-.249.578-.444 1.598-.04 2.014-.812z"/><path d="m.001 22.543c-.031-1.042 1.156-1.973 2.121-1.386-.473.399-1.045.895-.927 1.618.42-.432 1.285-.547 1.503.149-.691.288-1.042 1.051-.988 1.771-.14 1.443.179 2.882.291 4.31-1.295-1.878-1.969-4.185-2-6.462z"/><path d="m2.936 21.052c1.411.336 3.035.187 4.14 1.318 1.583 1.05 1.628 3.859-.339 4.502-.014.029-.043.087-.058.117.72.128 1.814.273 2.001-.681.032.001.098.004.131.005.442.314.469.871.188 1.305.616-.022 1.199-.417 1.366-1.023.039.001.116.004.154.006.651 1.148-.764 1.819-1.241 2.67-1.065-1.447-3.1-1.74-4.761-1.432.531-.939 1.249-1.769 2.006-2.534.226-.268.093-.642.114-.959.182-.015.279.158.396.267.323.066.575-.294.392-.569-.709-.939-2.186-.319-2.878-1.318-.006-.071-.012-.142-.016-.212.296-.035.66-.069.714-.433-.74-.348-2.084.076-2.309-1.029z"/><path d="m34.291 21.267c1.063-.779 2.405.499 2.198 1.652-.043 2.191-.898 4.28-2.02 6.13-.167-.995.325-2.183.27-3.262 0-.936.125-2.336-.973-2.705-.05-.815 1.092-.67 1.476-.221.138-.703-.395-1.266-.951-1.594z"/><path d="m30.155 21.813c.965-.626 2.154-.333 3.195-.68-.2 1.178-1.724.526-2.305 1.119.209.229.512.273.806.285-.405 1.461-2.913.403-3.02 1.97.063.058.126.118.19.179.247-.006.387-.22.543-.379.246.337-.144.773.215 1.064.791.696 1.385 1.58 1.953 2.459-1.64-.147-3.776-.061-4.72 1.514-.564-.762-2.136-1.788-1.153-2.766.103.659.761 1.056 1.387 1.102-.375-.468-.223-1.1.3-1.376.181 1.019 1.35.848 2.106.729-.665-.363-1.395-.832-1.542-1.639-.438-1.512.697-2.999 2.045-3.581z"/><path d="m9.302 22.693c.496-.081.915.366 1.424.349-.116.258-.392.323-.649.3.58.369 1.335.779 1.247 1.591-.126.733-1.223.868-1.601.268.3-.024.705-.199.648-.565-.03-.816-1.02-1.164-1.069-1.943z"/><path d="m25.975 23.052c.467-.024.856-.349 1.327-.344.102.696-.832 1-.967 1.651-.178.381.028.928.516.847-.016.067-.032.135-.046.203-.501.341-1.344.276-1.489-.407-.197-.805.605-1.245 1.188-1.565-.164-.046-.325-.093-.487-.138-.015-.085-.029-.166-.042-.247z"/><path d="m3.247 24.342c.294-.572 1.31-.543 1.382.158-.048 1.362-.946 2.458-1.5 3.65-.048-.099-.095-.197-.14-.294.069-1.156-.218-2.404.258-3.514z"/><path d="m31.848 24.314c.236-.498 1.093-.406 1.268.11.502 1.211.226 2.55.135 3.808-.595-1.216-1.668-2.514-1.403-3.918z"/><path d="m24.554 28.291c.485 1.391 1.982 2.089 2.528 3.466.123-1.131 1.402-1.388 2.012-2.187.529.64.772 1.535.543 2.341-.142.888-.392 2.179.732 2.535-1.769 1.904-4.844 1.025-6.786-.175.356-.519.922-.903 1.546-1.021-.975-1.446-1.155-3.326-.575-4.959zm3.614 3.107c-.437.34-.753.82-.767 1.388-.391-.333-.856-.549-1.317-.765-.089.56.04 1.125.372 1.586-.259.28-.829.447-.792.954 1.066.426 2.263.566 3.349.12-.433-1.035-.891-2.164-.631-3.314-.054.007-.161.022-.214.031z"/><path d="m2.749 30.121c.314-1.278 2.006-1.604 3.15-1.559-1.124 1.013-.142 2.532-.601 3.729-.69.625-1.361-.492-1.505-1.107.036-.709-1.164-.271-1.044-1.063z"/><path d="m30.944 32.203c-.061-1.23.35-2.564-.394-3.653 1.061.083 2.289.324 2.944 1.243.384.53-.194 1.158-.767 1.024-.21.708-.966 2.386-1.783 1.386z"/><path d="m9.219 31.694c.203-1.037 1.321-1.357 1.793-2.193.86 1.011.673 2.562.097 3.679.57.184 1.051.542 1.469.963-.681.72-1.766.98-2.713 1.22-1.335.295-3.017.218-3.922-.951 1.717-.859.034-2.949.856-4.282.135-.194.283-.735.587-.447.576.721 1.665.987 1.833 2.011zm-1.326-.403c.159 1.127-.076 2.325-.681 3.299 1.069.524 2.393.369 3.421-.158-.223-.331-.487-.7-.895-.803.346-.474.502-1.09.404-1.678-.412.261-.897.416-1.248.767-.14-.562-.393-1.244-1.001-1.427z"/><path d="m13.45 29.759c.882-.087 1.672.508 2.313 1.051-.001.123-.002.245-.003.368-.828.067-1.721-1.151-2.466-.28-.001.061-.002.183-.003.244.022.037.068.111.09.148-.121-.022-.241-.045-.36-.065-.451-.46-.275-1.399.429-1.466z"/><path d="m20.154 31.07c.538-.865 1.917-1.681 2.92-1.086.498.389.324 1.218-.29 1.364.132-.834-.892-.893-1.418-.55-.378.15-.802.602-1.212.272z"/><path d="m17.915 29.97c.871-.161 1.081 1.324.2 1.415-.873.146-1.097-1.296-.2-1.415z"/><path d="m14.214 31.864c1.202-.559 1.949 1.177 3.102 1.018.433-.191.123-.59-.179-.718.271-.306.626-.105.935-.01.213-.168.677-.241.76.067-.231.087-.383.265-.32.522 1.237.658 2.056-1.56 3.337-.882-.217.187-.386.486-.192.752.668.004 1.211-.921 1.893-.353-.983.276-1.64 1.128-2.582 1.502-.874.534-2.115.738-2.933.016-.748.579-1.855.604-2.671.105-1.015-.35-1.72-1.218-2.683-1.661.477-.504 1.114.276 1.629.396.064-.069.129-.137.195-.205.003-.226-.145-.396-.291-.549z"/><path d="m12.893 35.551c1.198-.782 2.905-1.198 4.14-.27 1.418 1.089.498 3.715-1.24 3.803-.452.055-.946-.359-.786-.84.116-.639 1.004-.549 1.307-.099.866-.394 1.117-1.718.266-2.265-.381-.324-1.1-.25-1.379.158.401.075.838.578.56.959-.581.477-1.052-.33-1.651-.299-.469-.075-.913.127-1.328.317-1.341.602-3.044.489-4.181-.48 1.487.134 3.052-.102 4.292-.984z"/><path d="m19.572 34.977c2.466-1.051 4.289 1.713 6.683 1.592.478.104.957-.047 1.44-.023-.77.694-1.905.91-2.922.832-1.016.071-1.843-.796-2.866-.675-.468.035-.807.39-1.243.516-.33-.107-.525-.385-.431-.735.182-.191.39-.356.621-.485-.588-.59-1.755-.232-1.896.6-.238.634.245 1.262.779 1.554.537-1.014 2.006.238.971.809-2.267.741-3.421-3.342-1.136-3.985z"/></svg>