<svg enable-background="new 0 0 81.755 66.677" viewBox="0 0 81.755 66.677" xmlns="http://www.w3.org/2000/svg"><path clip-rule="evenodd" d="m47.989 9.11c.646-.221.944-.857 1.324-1.324 2.771-3.408 5.987-6.086 11.035-7.357 3.08-.776 6.606-.421 9.27.441 5.069 1.642 8.952 5.19 10.937 10.054.506 1.24.883 2.662.981 4.267.096 1.571.179 3.3-.098 4.953-.472 2.811-1.808 5.294-3.335 7.161-1.587 1.941-3.58 3.4-5.885 4.61-1.234.63-2.868.859-4.12 1.472.38.375.953.487 1.422.637 1.547.495 2.971.983 4.267 1.814 4.707 3.022 8.73 8.209 7.847 16.283-.506 4.63-2.77 8.264-5.738 10.544-1.541 1.185-3.089 2.3-5.149 2.992-1.954.656-4.279 1.312-6.915.883-.129-13.205-.147-26.674-.147-39.873 0-5.108.636-10.796-1.863-13.929-1.21-1.516-2.763-2.72-5.15-2.844-2.941-.154-4.304.674-5.787 2.158-1.228 1.227-2.337 3.353-2.452 5.591-.128 2.489.052 5.184-.049 7.896-.1 2.676.049 5.385.049 7.896v28.151c0 1.277.111 2.587-.147 3.826-5.202.062-11.598.15-16.969-.098-.235-.83-.183-1.746-.147-2.599.112-2.66.091-5.261 0-7.896-.124-3.569 0-7.235 0-10.888 0-7.276 0-14.63 0-21.825 0-3.736.123-7.159-1.471-9.466-1.41-2.039-4.118-3.56-7.7-2.697-2.798.674-4.432 2.977-5.297 5.591-.807 2.438-.361 5.939-.49 8.877-.01.223-.006.441-.049.637-.094.43-.111.53 0 .981.123.497.049 1.231.049 1.864 0 11.699.185 25.351-.049 37.42-1.174.266-2.565.147-3.973.147-3.424 0-6.724 0-10.152 0-.616 0-1.29.114-1.864-.147-.167-8.033-.116-16.316-.098-24.326.019-10.006-.052-21.046-.052-31.73 0-2.635-.111-5.287.147-7.896 5.009-.15 10.75-.171 15.939 0 .283 2.351-.041 4.777.245 7.16.422.04.637-.389.833-.637.619-.784 1.312-1.585 2.109-2.256 2.955-2.961 6.629-5.217 12.065-5.591 2.025-.14 4.008.233 5.689.736 1.674.501 3.267 1.025 4.512 1.913 1.916 1.365 3.566 2.862 4.954 4.708.442.587.681 1.442 1.472 1.716z" fill-rule="evenodd"/></svg>