<svg enable-background="new 0 0 73.512 65.127" viewBox="0 0 73.512 65.127" xmlns="http://www.w3.org/2000/svg"><g clip-rule="evenodd" fill-rule="evenodd"><path d="m31.108 62.036c-1.745-2.714.268-5.938 2.834-6.226 1.671-.188 3.727-.067 5.416 0 1.773.071 3.484.076 5.112-.05 3.344-.26 5.914-1.231 8.352-2.43 4.609-2.266 8.235-5.862 10.629-10.882 2.223-4.662 2.57-12.833.759-18.424-1.709-5.277-5.155-9.306-9.465-12.046-2.256-1.434-4.74-2.485-7.694-3.087-2.891-.591-6.523-.507-10.274-.507-1.732 0-3.573-.05-5.365-.05-1.825 0-3.664-.093-5.265.101-2.947.358-5.062 2.316-5.062 5.669 0 4.947-.151 10.663-.151 15.893 0 1.802.102 3.571-.152 5.213-.667 4.308-3.306 7.57-6.934 9.212-1.241.561-2.619 1.154-4.404.86-1.746-.288-2.951-1.618-3.189-3.34-.292-2.121.738-3.561 2.126-4.302.597-.319 1.289-.356 1.974-.708 1.116-.574 1.951-1.658 2.176-3.037.291-1.779.062-3.82.102-5.821.074-3.777-.001-7.473 0-11.541 0-1.98-.056-3.863.303-5.618.641-3.132 2.505-5.531 4.505-7.339 2.112-1.91 4.721-3.268 8.453-3.543 1.592-.117 3.246.127 4.859.051 1.63-.078 3.254-.1 4.808 0 3.309.211 6.482-.072 9.465.202 5.855.539 10.506 2.588 14.425 5.112 2.022 1.302 3.841 2.64 5.415 4.353 4.55 4.95 8.222 11.618 8.605 20.702.547 12.979-4.674 21.103-11.945 26.977-3.451 2.788-8.044 5.096-13.413 6.125-2.703.518-5.961.456-9.212.456-3.228-.001-6.56.36-7.793-1.975z"/><path d="m26.805 9.852c1.776-.054 3.394 1.134 3.948 2.632.362.978.304 2.473.304 3.898 0 4.227-.051 8.802-.051 12.856 0 2.962.073 5.729-.405 8.099-1.427 7.077-5.483 11.963-10.781 14.982-1.769 1.008-3.729 1.885-6.175 2.43-2.708.603-7.048 1.268-9.009-.304-1.214-.973-1.905-2.863-1.316-4.606.21-.621.662-1.392 1.266-1.873 1.495-1.19 3.583-.64 5.618-.911 2.055-.274 3.8-.903 5.112-1.62 2.898-1.583 5.146-3.891 6.327-7.137 1.207-3.317 1.082-8.092.962-12.401-.091-3.267.05-6.617.05-9.971 0-1.154-.106-2.325.152-3.188.467-1.565 1.973-2.825 3.998-2.886z"/><path d="m52.366 22.708c-1.772-2.091-4.243-3.592-7.44-4.404-1.054-.267-2.338-.439-3.492-.05-.526.663-.354 1.555-.354 2.328v7.997c0 3.543.055 7.022-.455 10.123-.985 5.984-3.688 10.564-6.833 14.527-3.124 3.936-7.116 6.933-12.198 9.161-3.531 1.548-7.972 2.588-13.261 2.733-.835.023-1.715-.069-2.581-.101-.873-.033-1.747.021-2.48-.152-1.412-.334-2.486-1.32-2.986-2.53-.597-1.446-.197-3.2.709-4.201.983-1.087 2.192-1.316 4.201-1.316 1.889 0 3.752.096 5.466-.051 6.561-.562 11.52-3.574 14.982-7.036 3.632-3.632 6.523-8.397 6.884-15.134.183-3.42.101-7.124.101-10.832 0-2.573.102-5.308.102-8.048 0-.914-.097-1.888.05-2.683.318-1.721 1.953-3.179 3.847-3.24 4.254-.136 8.382.045 11.49.912 3.167.882 5.927 2.42 8.149 4.302 3.36 2.846 5.803 6.636 7.036 11.641.417 1.696.455 3.632.455 5.771 0 8.071-3.243 13.535-7.845 17.057-3.229 2.471-7.798 4.977-13.869 4.808-2.403-.066-4.825-1.829-4.201-4.909.29-1.433 1.599-2.653 2.936-3.037.836-.24 1.801-.157 2.733-.253 4.161-.428 7.552-2.55 9.516-5.264 1.634-2.258 2.487-5.424 2.48-9.415-.01-3.669-1.339-6.42-3.142-8.704z"/><path d="m45.027 29.44c-.894-1.234-2.363-1.855-2.835-3.392-.895-2.914 1.78-5.972 5.112-5.112 1.049.271 2.253 1.233 2.987 1.974 1.932 1.95 3.323 4.476 3.543 8.098.245 4.036-.897 7.721-3.138 10.072-.798.838-2.143 1.855-3.392 2.379-2.743 1.152-5.961-.723-5.922-3.796.017-1.294.629-2.23 1.316-2.885.719-.685 1.842-.987 2.328-1.974.668-1.354.488-3.832.001-5.364z"/></g></svg>