<svg enable-background="new 0 0 50.269 76.265" viewBox="0 0 50.269 76.265" xmlns="http://www.w3.org/2000/svg"><g clip-rule="evenodd" fill-rule="evenodd"><path d="m24.843 0h.104c1.164.868 2.181 1.972 3.236 3.027.509.51 1.123.973 1.618 1.514.508.555 1.091.995 1.514 1.565.86 1.164 2.016 2.163 3.131 3.132 1.105.961 2.182 2.008 3.184 3.027 3.082 3.136 6.424 6.006 9.551 9.133 1.026 1.026 2.242 1.932 3.027 3.184.096 2.589.052 5.142.052 7.672 0 7.548.017 14.654-.156 22.233-4.073.201-8.237.104-12.421.104-12.163 0-25.016-.11-37.16-.156-.039-.471.469-.716.731-.992 3.179-3.354 6.666-6.599 9.968-9.969.829-.845 1.716-1.805 2.714-2.714.292-.265.77-.779.783-.992.033-.556-1.259-1.572-1.722-2.035-3.698-3.697-7.51-7.353-11.221-11.064-.622-.62-1.339-1.155-1.776-1.931.851-1.209 1.996-2.152 3.027-3.184 1.026-1.026 2.054-2.051 3.079-3.079 3.007-2.964 6.06-6.02 9.29-9.185 2.274-2.229 4.498-4.672 6.941-6.941.816-.758 1.688-1.904 2.506-2.349zm10.125 13.1c-1.462-1.409-2.936-2.814-4.28-4.28-1.251-1.333-2.752-2.909-4.175-4.332-.42-.42-1.017-1.268-1.618-1.252-.495.013-1.317 1.004-1.723 1.409-1.378 1.378-2.785 3.096-4.071 4.227-1.454 1.333-2.8 2.775-4.175 4.123-.467.458-1.113.858-1.253 1.566.858.277 1.789.157 2.714.157 4.795 0 9.536.052 14.3.052 1.422 0 2.846.117 4.228.052.414-.02.904.035 1.252-.208-.115-.668-.739-1.071-1.199-1.514zm11.168 10.594c-.341-.354-.688-.704-1.096-.992-1.655-1.442-3.144-3.021-4.854-4.488-.526-.452-1.218-1.161-1.827-1.305-.898-.212-2.266-.052-3.34-.052-7.866 0-16.049-.205-23.903-.052-2.39 2.119-4.723 4.502-7.045 6.628-.295.27-.792.657-.731 1.149.836.277 1.739.157 2.609.157 13.888 0 27.397.217 41.021.052.095-.535-.513-.805-.834-1.097zm-40.395 3.393c-.09.391.301.706.522.94.249.264.535.535.783.783 3.147 3.147 6.516 6.217 9.655 9.289.531.52 1.142 1.035 1.461 1.723-.301.726-1.08.973-1.461 1.618-3.147 3.152-6.484 6.328-9.603 9.446-.419.419-1.148.763-1.201 1.461 10.583.303 20.825.044 31.575.209 1.77.027 3.541.052 5.324.052 1.739 0 3.514.125 5.219-.156.175-7.099.101-15.28.157-22.233.008-1.02.15-2.092-.209-3.027-14.027-.173-28.246-.35-42.222-.105z"/><path d="m13.778 28.6c2.19-.503 2.736 2.893.939 3.393-2.497.507-3.128-3.084-.939-3.393z"/><path d="m49.163 76.146c-.917.23-2.251.044-3.34.104-5.38-4.119-10.29-8.677-15.501-12.996-.855-.708-1.677-1.496-2.558-2.192-.88-.696-1.694-1.552-2.764-1.983-1.148.332-1.899 1.317-2.766 2.036-2.601 2.152-5.237 4.18-7.933 6.367-1.697 1.377-3.385 2.868-5.219 4.332-1.214.969-2.65 2.109-3.966 3.235-.45.386-.898.921-1.305 1.044-.916.277-2.329-.022-3.131-.052.067-.604.816-1.022 1.305-1.409 1.489-1.179 3.095-2.493 4.541-3.758 5.131-4.15 10.603-8.97 15.866-13.256.768-.625 1.51-1.367 2.297-1.827.677-.396 1.326.755 1.878 1.043 1.49 1.311 3.091 2.511 4.541 3.862 1.426 1.385 3.025 2.573 4.54 3.862 3.004 2.555 5.981 5.151 9.081 7.672 1.143.93 2.283 1.868 3.445 2.818.368.304.891.572.989 1.098z"/></g></svg>