<svg enable-background="new 0 0 25.541 24.569" viewBox="0 0 25.541 24.569" xmlns="http://www.w3.org/2000/svg"><path d="m19.873 9.425 5.239-1.166c.235-.052.428-.292.428-.532v-7.29c0-.24-.197-.437-.439-.437h-24.662c-.242 0-.439.197-.439.437v7.289c0 .241.193.48.428.532l5.239 1.166c.236.052.428.293.428.533v4.653c0 .24-.193.48-.428.533l-5.239 1.167c-.235.052-.428.292-.428.533v7.289c0 .241.197.438.439.438h24.662c.242 0 .439-.197.439-.438v-7.289c0-.24-.193-.48-.428-.532l-5.239-1.166c-.236-.053-.428-.293-.428-.533v-4.654c-.001-.24.192-.481.428-.533zm.241-6.145h1.914c.121 0 .22.099.22.219v.09c0 .12-.096.24-.214.267l-12.929 2.877c-.118.027-.311.027-.429 0l-1.933-.43c-.118-.027-.118-.069 0-.096l12.937-2.879c.118-.026.313-.048.434-.048zm-4.178 10.551-6.332 1.409c-.118.027-.214-.051-.214-.171v-.613c0-.121.096-.24.214-.267l6.333-1.409c.118-.026.215.051.215.172v.613c-.001.119-.098.239-.216.266zm.215.842v.614c0 .12-.097.24-.215.266l-6.333 1.409c-.118.027-.214-.05-.214-.17v-.615c0-.12.096-.239.214-.266l6.333-1.409c.118-.025.215.051.215.171zm-.215-2.566-6.333 1.409c-.118.027-.214-.05-.214-.17v-.614c0-.12.096-.24.214-.266l6.333-1.409c.118-.026.215.051.215.171v.614c0 .119-.097.239-.215.265zm0-1.723-6.333 1.409c-.118.027-.214-.051-.214-.171v-.613c0-.12.096-.24.214-.266l6.333-1.409c.118-.026.215.051.215.171v.613c0 .119-.097.239-.215.266zm0-1.724-6.333 1.409c-.118.027-.214-.05-.214-.17v-.615c0-.12.096-.24.214-.266l6.333-1.41c.118-.026.215.051.215.171v.613c0 .122-.097.242-.215.268zm-12.643-5.16c0-.12.099-.219.22-.219h5.397c.121 0 .123.022.006.048l-5.409 1.203c-.118.026-.214-.051-.214-.171zm1.939 2.371c-.118.027-.31.027-.428 0l-1.297-.288c-.118-.027-.214-.112-.214-.19s.096-.163.214-.189l8.429-1.876c.118-.026.313-.048.434-.048h4.284c.121 0 .123.022.005.048zm-1.939 13.388c0-.121.096-.24.214-.266l12.429-2.766c.118-.026.215.051.215.171v.613c0 .121-.097.24-.215.267l-12.429 2.765c-.118.027-.214-.05-.214-.17zm2.148 2.029h-1.929c-.121 0-.22-.098-.22-.219v-.087c0-.12.096-.24.214-.266l12.935-2.879c.118-.027.311-.027.429 0l1.933.43c.118.027.118.069 0 .096l-12.928 2.877c-.118.026-.313.048-.434.048zm16.807-.219c0 .121-.099.219-.22.219h-5.383c-.121 0-.124-.022-.006-.048l5.394-1.201c.118-.026.214.051.214.172v.858zm-1.933-2.37c.118-.026.311-.026.428 0l1.291.288c.118.026.214.112.214.191 0 .078-.096.165-.214.191l-8.415 1.872c-.118.026-.313.048-.434.048h-4.284c-.12 0-.123-.022-.005-.048zm-10.711-10.354c-.118.027-.214-.05-.214-.171v-.613c0-.12.096-.24.214-.267l12.43-2.766c.118-.026.214.051.214.171v.614c0 .12-.096.24-.214.266z" fill="#010101"/></svg>