<svg enable-background="new 0 0 195.884 133.822" viewBox="0 0 195.884 133.822" xmlns="http://www.w3.org/2000/svg"><g clip-rule="evenodd" fill-rule="evenodd"><path d="m119.982 37.744c.595-9.135 2.646-16.782 6.229-23.36 1.037-1.904 2.649-4.537 4.552-5.272 3.441-1.328 7.566 1.319 6.709 5.631-.883 4.441-6.449 3.064-10.063 4.911-5.227 2.672-5.269 10.607-5.87 18.09 14.239.914 23.848-4.322 35.341-7.308 11.898-3.091 32.427-6.091 37.617 5.031 2.928 6.274.726 14.058-2.037 18.329-2.997 4.636-8.14 7.346-14.256 8.506-14.671 2.782-27.623-3.153-37.617-6.589 3.848 6.239 9.152 13.314 13.777 19.767 2.141 2.987 4.961 8.683 9.344 8.985 2.563.177 5.912-1.639 8.985-.6 2.025.686 4.73 4.439 2.276 7.548-1.077 1.363-3.751 2.083-6.11 1.317-3.822-1.24-6.968-5.058-9.464-8.146-2.704-3.347-5.127-6.9-7.428-10.062-2.632-3.618-4.903-7.076-7.188-10.423-2.345-3.434-4.739-6.822-7.547-9.943 3.02 7.615 7.171 15.168 8.026 25.637.401 4.917.297 10.701 1.317 15.574.483 2.309 1.069 4.214 2.037 6.469.777 1.814 1.878 4.454 3.354 5.032 2.255.883 5.873-.287 8.387.479 3.807 1.161 4.859 7.708.599 9.105-1.953.64-4.586-.395-5.75-1.198-5.904-4.076-8.704-12.788-11.98-19.887-3.521-7.629-6.617-14.757-10.303-21.563 1.678 6.866 2.882 14.431 1.917 22.162-1.81 14.495-11.027 22.121-21.923 27.674-5.36 2.731-11.567 4.831-14.615 10.183-3.636-5.64-10.817-7.651-17.132-11.141-10.176-5.624-18.218-12.898-20.126-27.075-.98-7.282.165-14.406 1.677-21.204-3.823 6.999-7.03 14.286-10.542 22.282-1.548 3.525-3.219 7.557-5.271 11.142-1.817 3.175-4.753 7.286-7.907 8.506-6.324 2.444-9.268-5.685-4.792-8.386 2.999-1.81 6.846.315 9.823-1.078 1.559-.73 2.355-3.233 3.235-5.271.85-1.97 1.699-4.157 2.156-6.35 1.08-5.182.703-10.179 1.078-15.095.8-10.49 4.91-17.846 7.906-25.876-2.63 2.853-4.88 6.471-7.308 9.943-4.495 6.43-9.549 13.516-14.376 20.006-2.197 2.956-5.429 6.793-8.865 8.267-3.98 1.707-9.24-.209-8.146-5.151.294-1.329 1.505-2.601 2.516-3.115 2.997-1.524 7.382.753 10.542.12 3.055-.611 4.903-3.754 6.589-6.109 5.289-7.39 10.949-14.623 15.813-22.283-7.349 2.718-16.082 5.783-25.637 6.829-16.255 1.777-30.604-4.826-29.468-22.165 1.07-16.319 23.354-13.779 37.018-10.422 6.244 1.533 11.8 3.459 17.371 5.15 5.693 1.729 12.525 3.139 19.646 2.396-.323-6.084-.456-14.042-4.672-17.371-2.143-1.691-6.212-.902-8.984-2.635-4.643-2.903-1.217-11.122 4.552-8.387 3.895 1.848 5.894 7.525 7.548 11.98 1.944 5.239 2.863 10.23 2.995 16.292 2.277.144 3.229-2.106 4.192-3.474 2.898-4.112 6.511-9.609 7.667-15.334.423-2.093.245-4.487-.599-6.11-1.326-2.549-4.473-3.546-5.511-6.109-1.175-2.903.613-5.968 3.234-6.47 3.969-.758 5.977 2.279 6.229 5.151.539 6.117-1.484 13.582-3.354 17.97-2.213 5.194-5.108 9.42-7.786 13.418 3.855-.29 5.399-2.322 8.266-4.672 1.597-1.309 3.173-2.49 4.193-3.714.653-.785 1.496-3.326 2.755-2.995 1.643.432-.116 3.044-.359 3.354-2.037 2.605-5.282 5.161-8.026 7.308-11.087 8.672-17.133 24.755-18.569 42.77-1.104 13.849 1.068 25.293 6.709 33.544 4.787 7.001 11.979 11.418 20.246 15.574.797.4 2.554 1.789 3.234 1.797.795.009 2.547-1.384 3.354-1.797 12.655-6.477 22.941-14.162 25.996-30.189 3.538-18.552-1.804-38.808-8.625-50.675-2.375-4.132-5.568-8.02-9.345-11.021-2.467-1.961-5.908-4.532-8.026-7.308-.356-.468-1.95-2.853-.479-3.354 1.354-.462 1.83 1.795 2.396 2.516 1.053 1.339 2.663 2.611 4.313 3.953 2.871 2.336 4.361 4.272 8.386 5.032-4.224-6.359-8.607-13.841-10.422-23.96-.921-5.133-1.439-12.49 4.192-12.818 2.441-.142 4.67 1.773 5.032 3.594.979 4.919-4.849 6.143-6.229 9.704-1.98 5.103 1.984 11.888 4.072 15.453 1.041 1.777 2.104 3.444 3.115 5.032.922 1.443 1.84 3.665 4.194 3.952zm14.615 9.823c1.324 1.826 2.6 3.774 3.833 5.631 8.413 3.749 17.09 7.684 28.513 8.386 5.684.349 10.833-.662 14.975-2.995 4.539-2.557 8.733-6.415 8.026-13.657-1.249-12.804-23.759-14.157-36.539-11.381-5.988 1.301-12.14 3.253-17.97 4.792-4.092 1.081-9.93 1.316-12.219 4.193 2.864 2.646 5.869 5.152 9.464 7.068-.462-2.49-3.409-4.287-2.516-6.948 2.117.882 3.163 3.16 4.433 4.911zm-72.239-8.625c-11.014-2.684-21.119-7.131-34.502-6.589-9.515.385-18.73 3.517-21.443 9.703-3.171 7.23 2.037 13.562 6.589 16.293 10.753 6.452 27.244 2.298 37.497-2.037 1.895-.801 5.202-1.853 6.709-3.114 1.536-1.288 2.668-3.8 3.953-5.631.542-.773 1.275-1.668 2.036-2.755.449-.643 1.511-2.914 2.516-1.917.925.917-.71 2.669-1.078 3.354-.725 1.35-1.04 2.165-1.557 3.354 3.679-1.831 6.599-4.423 9.464-7.068-2.555-2.781-6.747-2.756-10.184-3.593zm59.78 6.109c-.022 3.28 2.454 7.148 3.833 10.063 4.57 9.657 8.705 19.857 13.418 28.392-.407-6.18.396-12.151-.359-17.61-.729-5.262-3.119-9.532-4.792-13.537-4.427-2.402-8.07-5.587-11.86-8.625-.093.351-.237.854-.24 1.317zm-54.629 3.594c-1.374.992-5.166 2.625-6.109 3.834-.908 1.164-1.484 3.584-2.156 5.27-.741 1.862-1.559 3.663-2.036 5.512-1.518 5.862-.423 13.424-.479 20.126 4.601-8.963 8.427-18.518 12.818-27.913 1.672-3.578 4.233-7.231 3.953-11.501-.12 0-.143-.097-.239-.12-1.703 1.241-3.544 3.2-5.752 4.792z"/><path d="m92.668 46.848c2.097.579 4.269 1.083 5.271 2.756 1.192-1.443 2.875-2.396 5.271-2.636-.582-.979-1.429-1.342-1.917-2.276-1.672-3.203.622-7.499 4.792-7.068 2.107.218 4.01 1.854 5.151 2.995 5.093 5.092 7.939 13.109 10.543 21.324 2.629 8.299 4.299 18.009 3.474 27.913-1.03 12.37-7.01 22.796-16.053 28.152-2.996 1.775-7.343 4.867-11.86 4.433-3.725-.357-7.954-2.654-11.141-4.672-9.251-5.857-15.693-17.498-15.694-31.746 0-15.225 3.602-27.831 9.225-38.216 2.141-3.954 4.657-8.57 8.985-9.943 5.799-1.841 8.81 6.193 3.953 8.984zm2.515 6.589c-2.227-.257-1.908-2.623-2.995-4.192-1.581-2.284-6.685-2.859-9.584-.839-1.33.927-2.551 3.247-3.234 4.912-1.413 3.441-2.868 7.401-3.953 11.141-.541 1.865-1.443 4.862-1.318 6.229.177 1.929 2.867 4.853 4.313 5.87 5.588 3.934 13.885 5.44 22.881 4.912 6.752-.396 12.534-2.268 16.413-5.151 1.4-1.042 3.873-3.855 4.073-5.75.183-1.743-.877-4.019-1.438-6.11-.562-2.092-1.083-3.857-1.798-5.75-1.26-3.338-2.62-8.11-5.031-10.183-2.143-1.842-6.908-1.852-8.865-.24-1.757 1.447-1.524 4.841-3.833 5.151-1.676.226-1.918-.527-2.995-1.317-.455.964-1.309 1.47-2.636 1.317zm-22.282 33.544c.419 1.477 2.903 3.574 4.192 4.552 4.814 3.649 11.861 7 19.048 7.428 9.718.579 20.13-4.341 25.038-9.464.621-.649 1.74-2.009 1.917-2.755.552-2.329-.352-4.617 0-6.829-1.058.308-1.502 1.447-2.156 2.156-5.222 5.658-12.618 9.303-23.241 9.225-12.017-.089-19.49-4.705-24.679-11.501.017 1.894-.771 4.889-.119 7.188zm12.459 24.679c4.103 2.357 9.113 5.31 14.975 4.312 4.575-.778 9.483-3.559 13.059-5.87 4.056-2.623 6.699-6.949 7.786-12.459-5.458 4.544-12.134 10.268-21.563 10.901-5.433.365-10.268-1.376-14.256-3.354-4.266-2.115-7.618-4.791-10.542-7.667.877 7.188 4.993 10.948 10.541 14.137z"/></g></svg>