<svg clip-rule="evenodd" fill-rule="evenodd" stroke-linejoin="round" stroke-miterlimit="2" viewBox="0 0 560 400" xmlns="http://www.w3.org/2000/svg"><g fill="#ab1d3f"><path d="m91.27 114.584c-4.986 0-5.746 8.742-9.649 8.742-1.976 0-3.304-1.234-3.304-3.272 0-2.065 1.056-3.218 3.821-3.835.162-.026.215-.187.215-.401 0-.189-.108-.377-.215-.349-1.492.215-2.657.322-4.201.429 0 1.69-.488 2.28-.488 4.129 0 3.539 2.548 5.71 5.257 5.71 5.257 0 5.61-8.794 9.973-8.794 2.14 0 3.603 1.101 3.603 3.406 0 2.708-1.219 4.049-4.579 5.014-.162.054-.216.161-.216.348 0 .214.08.403.216.403 1.3-.134 3.143-.268 4.607-.322 0-2.011.839-3.03.839-5.335 0-3.621-2.303-5.873-5.879-5.873m-4.526-12.196c-1.138 0-2.14 1.823-2.14 4.317 0 2.815 2.194 6.033 6.232 6.033 4.01 0 6.287-3.003 6.287-5.819 0-2.117-1.057-3.566-2.06-4.423-.08-.054-.162-.054-.217-.054-.325 0-.597.294-.46.402.786.75 1.273 1.823 1.273 3.245 0 2.52-2.114 3.941-4.851 3.941-3.794 0-5.338-1.369-5.338-3.325 0-2.359 2.385-1.34 2.385-3.217 0-.698-.407-1.1-1.111-1.1m9.594-15.416c-.19 0-.354.108-.38.214-.163 1.556-.542 1.823-2.277 1.823h-5.177c-2.22 0-3.9 1.395-3.9 4.103 0 1.232.758 2.655 1.842 3.78h-4.607c-1.408 0-3.604-.108-4.716-.214-.108 0-.216.161-.216.374 0 .216.135.296.216.377.65.884 1.084 2.091 1.384 3.351 0 .135.162.214.352.214.189 0 .324-.079.352-.214.134-1.26.405-1.475 1.869-1.475h12.601c1.735 0 2.114.242 2.277 1.797.026.133.19.214.38.214.215 0 .378-.081.378-.214 0-1.126-.163-1.555-.163-2.842 0-1.288.163-1.957.163-3.083 0-.108-.163-.216-.378-.216-.19 0-.354.108-.38.216-.137 1.286-.571 1.715-2.277 1.715h-6.097c-.867-.777-1.356-1.688-1.356-2.868 0-1.877 1.086-2.629 2.928-2.629h4.525c1.706 0 2.14.216 2.277 1.503.026.106.19.214.38.214.215 0 .378-.108.378-.214 0-1.126-.163-1.583-.163-2.869 0-1.261.163-1.716.163-2.843 0-.106-.163-.214-.378-.214m-5.393-12.898c-3.47 0-6.341 2.413-6.341 6.247 0 3.806 2.871 6.246 6.341 6.246 3.441 0 6.178-2.44 6.178-6.246 0-3.834-2.737-6.247-6.178-6.247m-.027 2.707c3.035 0 5.337 1.152 5.337 3.54 0 2.359-2.302 3.539-5.337 3.539-3.009 0-5.448-1.18-5.448-3.539 0-2.388 2.439-3.54 5.448-3.54m.027-16.759c-3.47 0-6.341 2.412-6.341 6.247 0 3.806 2.871 6.246 6.341 6.246 3.441 0 6.178-2.44 6.178-6.246 0-3.835-2.737-6.247-6.178-6.247m-.027 2.708c3.035 0 5.337 1.152 5.337 3.539 0 2.359-2.302 3.539-5.337 3.539-3.009 0-5.448-1.18-5.448-3.539 0-2.387 2.439-3.539 5.448-3.539m5.392-9.789c-.189 0-.352.107-.38.214-.161 1.555-.543 1.823-2.275 1.823h-11.844c-1.409 0-3.576-.133-4.714-.214-.109 0-.218.161-.218.375 0 .215.163.269.218.375.676.885 1.083 2.091 1.41 3.353 0 .107.134.212.324.212s.324-.105.352-.212c.136-1.288.406-1.503 1.87-1.503h12.602c1.732 0 2.114.269 2.275 1.823.028.108.191.216.38.216.216 0 .38-.108.38-.216 0-1.125-.137-1.743-.137-3.002 0-1.288.137-1.904.137-3.03 0-.107-.164-.214-.38-.214m-5.365-19.036c-3.47 0-6.341 2.412-6.341 6.247 0 3.808 2.871 6.248 6.341 6.248 3.441 0 6.178-2.44 6.178-6.248 0-3.835-2.737-6.247-6.178-6.247m-.027 2.708c3.035 0 5.337 1.153 5.337 3.539 0 2.358-2.302 3.539-5.337 3.539-3.009 0-5.448-1.181-5.448-3.539 0-2.386 2.439-3.539 5.448-3.539m-12.629-14.315c-.786 0-1.274.696-1.274 1.931 0 3.432 3.902 6.542 8.293 6.542.325 0 .596 1.018.759 1.715.027.135.243.242.405.242.164 0 .352-.107.352-.268v-1.368c0-.213.19-.321.38-.321h6.477c1.735 0 2.088.24 2.277 1.797.026.133.163.214.38.214.215 0 .378-.081.378-.214 0-1.127-.163-1.717-.163-3.003 0-1.288.163-1.877.163-3.004 0-.134-.163-.214-.378-.214-.217 0-.354.08-.38.214-.189 1.555-.542 1.797-2.277 1.797h-6.801l.108-3.03c0-.214-.298-.322-.732-.322-.407 0-.732.108-.732.322v3.003h-3.171c-2.952 0-3.794-1.421-3.794-2.199 0-.938.922-1.072.922-2.279 0-.964-.433-1.555-1.192-1.555m18.049-28.447c-.217 0-.354.107-.38.215-.299 2.627-.895 2.814-2.277 2.869l-12.764.617c-1.409.026-1.978-.134-2.302-2.708 0-.134-.164-.215-.38-.215-.19 0-.38.108-.38.242 0 1.179.162 1.635.162 2.761 0 .939-.162 1.609-.162 2.654l15.095 5.953-15.095 5.764c0 .965.162 1.796.162 2.735 0 .75-.162 1.609-.162 2.547 0 .107.19.242.38.242.216 0 .38-.081.38-.188.324-2.574.893-2.977 2.302-2.842l12.764 1.394c1.382.108 1.978.456 2.277 3.082.026.108.163.243.38.243.215 0 .378-.081.378-.188 0-1.234-.163-2.227-.163-3.54 0-1.259.163-2.279.163-3.646 0-.108-.163-.241-.378-.241-.217 0-.354.053-.38.188-.299 2.573-.895 2.896-2.277 2.788l-12.493-.965 15.745-6.087c.109-.027.216-.16.216-.375 0-.188-.081-.321-.216-.376l-16.394-6.461 13.142-.563c1.382-.027 1.978.134 2.277 2.708.026.133.163.215.38.215.215 0 .378-.108.378-.242 0-1.769-.163-2.466-.163-4.128 0-1.663.163-2.468.163-4.237 0-.134-.163-.215-.378-.215m-.517-13.292c-.19 0-.352.107-.352.215-.162 1.206-.378 1.501-1.706 1.501h-8.645c-.218 0-.38.134-.352.268.297 1.18.624 3.003.624 4.049 0 .133.216.214.432.214.19 0 .354-.081.325-.214-.053-1.557.272-1.931 2.005-1.931h5.989c.868.778 1.355 1.474 1.355 2.68 0 1.878-1.191 2.388-2.927 2.388h-7.451c-.218 0-.38.134-.352.295.297 1.153.624 3.002.624 4.022 0 .133.216.214.432.214.19 0 .354-.081.325-.214-.053-1.557.272-1.905 2.005-1.905h5.069c2.114 0 3.902-1.179 3.902-3.887 0-1.233-.76-2.44-1.816-3.593l1.708.108c.108 0 .216-.082.216-.269 0-.133-.082-.295-.163-.375-.595-.805-.813-2.226-.92-3.351-.027-.134-.109-.215-.327-.215m-2.6-9.443c-3.28 0-3.389 5.899-5.907 5.899-1.167 0-1.844-.644-1.844-2.092 0-1.126.949-1.957 2.223-2.145.134-.026.216-.188.216-.375 0-.215-.109-.402-.216-.375-.813.08-1.762.134-2.711.16 0 .536-.378 1.69-.378 2.869 0 2.145 1.516 4.103 3.467 4.103 3.984 0 3.416-5.792 6.07-5.792 1.302 0 2.114.75 2.114 2.118 0 1.341-1.22 2.709-2.492 3.111-.136.027-.218.187-.218.375s.11.403.218.376c.704-.136 1.924-.376 2.871-.484 0-.803.489-2.172.489-3.351 0-2.359-1.627-4.397-3.902-4.397m-13.28-5.501c-.786 0-1.409.616-1.409 1.394 0 .777.623 1.394 1.409 1.394.76 0 1.411-.617 1.411-1.394 0-.778-.651-1.394-1.411-1.394m16.397-1.877c-.217 0-.354.107-.38.215-.189 1.581-.542 1.823-2.277 1.823h-4.254c-1.409 0-3.578-.135-4.716-.215-.107 0-.216.161-.216.376 0 .214.162.267.216.375.679.884 1.084 2.091 1.409 3.351 0 .135.136.215.326.215s.352-.08.352-.215c.135-1.26.434-1.474 1.871-1.474h5.012c1.735 0 2.088.24 2.277 1.796.026.134.163.215.38.215.215 0 .378-.081.378-.215 0-1.126-.163-1.716-.163-3.002 0-1.288.163-1.904.163-3.03 0-.108-.163-.215-.378-.215m-9.594-10.969c-1.138 0-2.14 1.823-2.14 4.316 0 2.816 2.194 6.034 6.232 6.034 4.01 0 6.287-3.003 6.287-5.819 0-2.117-1.057-3.565-2.06-4.423-.08-.054-.162-.054-.217-.054-.325 0-.597.294-.46.402.786.751 1.273 1.824 1.273 3.244 0 2.521-2.114 3.941-4.851 3.941-3.794 0-5.338-1.367-5.338-3.325 0-2.359 2.385-1.339 2.385-3.216 0-.697-.407-1.1-1.111-1.1" transform="matrix(0 2.07616 -2.07616 0 361.94123536 49.613340608)"/><path d="m72.389 47.533c-.217 0-.354.106-.379.213-.3 2.629-.895 2.817-2.277 2.869l-12.765.617c-1.409.027-1.977-.133-2.302-2.709 0-.133-.163-.213-.379-.213-.19 0-.381.106-.381.241 0 1.179.163 1.635.163 2.761 0 .94-.163 1.609-.163 2.656l15.095 5.951-15.095 5.765c0 .964.163 1.796.163 2.733 0 .752-.163 1.611-.163 2.549 0 .107.191.24.381.24.216 0 .379-.079.379-.187.325-2.574.893-2.977 2.302-2.841l12.765 1.393c1.382.108 1.977.457 2.277 3.084.025.107.162.241.379.241.215 0 .378-.08.378-.187 0-1.234-.163-2.225-.163-3.54 0-1.26.163-2.278.163-3.647 0-.106-.163-.24-.378-.24-.217 0-.354.054-.379.187-.3 2.573-.895 2.896-2.277 2.789l-12.493-.966 15.744-6.086c.109-.027.216-.161.216-.375 0-.189-.08-.322-.216-.377l-16.394-6.46 13.143-.563c1.382-.027 1.977.133 2.277 2.708.025.133.162.214.379.214.215 0 .378-.106.378-.242 0-1.768-.163-2.466-.163-4.128s.163-2.467.163-4.237c0-.133-.163-.213-.378-.213m-.813-12.531c-.326 0-.57.267-.461.401.298.322.542.671.542 1.045 0 .403-.218.939-1.518.913l-6.124-.188c-2.249-.08-3.36 1.447-3.36 3.244 0 2.065 1.896 5.362 3.333 5.362.595 0 .948-.429.948-.965 0-.859-.569-1.582-1.842-1.609-.842-.027-1.356-.938-1.356-1.903 0-1.02.786-1.769 2.195-1.742l2.114.08c.46 1.742 1.788 6.515 4.498 6.515 1.409 0 2.629-1.046 2.629-2.736 0-1.527-.57-2.869-1.491-3.753.841-.268 1.383-1.072 1.383-2.064 0-1.046-.514-1.877-1.246-2.494-.082-.079-.137-.079-.244-.106m-4.607 4.664 3.631.106c.758.35 1.246 1.476 1.246 2.333 0 .94-.704 1.476-1.924 1.476-1.707 0-2.493-1.905-2.953-3.915m5.42-19.401c-.217 0-.354.081-.379.215-.19 1.556-.543 1.795-2.277 1.795h-5.177c-2.114 0-3.901 1.181-3.901 3.889 0 1.259.759 2.466 1.815 3.592l-1.708-.106c-.107 0-.216.161-.216.375s.163.267.216.376c.679.884 1.085 1.982 1.41 3.243 0 .108.136.214.325.214.19 0 .353-.106.353-.214.135-1.287.433-1.501 1.87-1.501h5.013c1.734 0 2.087.268 2.277 1.823.025.107.162.215.379.215.215 0 .378-.108.378-.215 0-1.125-.163-1.583-.163-2.841 0-1.287.163-1.743.163-2.869 0-.108-.163-.215-.378-.215-.217 0-.354.107-.379.215-.137 1.286-.571 1.5-2.277 1.5h-6.097c-.867-.778-1.356-1.474-1.356-2.653 0-1.878 1.193-2.413 2.927-2.413h4.526c1.706 0 2.14.214 2.277 1.5.025.108.162.216.379.216.215 0 .378-.108.378-.216 0-1.126-.163-1.582-.163-2.869 0-1.285.163-1.715.163-2.841 0-.134-.163-.215-.378-.215m0-15.257c-.19 0-.354.106-.379.214-.164 1.555-.543 1.823-2.277 1.823h-5.177c-2.221 0-3.901 1.395-3.901 4.103 0 1.233.759 2.653 1.842 3.779h-4.606c-1.409 0-3.604-.107-4.716-.213-.108 0-.216.16-.216.375 0 .214.134.294.216.374.65.886 1.083 2.092 1.383 3.352 0 .134.162.214.352.214s.324-.08.352-.214c.135-1.26.406-1.474 1.87-1.474h12.601c1.734 0 2.113.241 2.277 1.797.025.134.189.213.379.213.215 0 .378-.079.378-.213 0-1.127-.163-1.556-.163-2.843 0-1.288.163-1.957.163-3.083 0-.109-.163-.214-.378-.214-.19 0-.354.105-.379.214-.137 1.286-.571 1.715-2.277 1.715h-6.097c-.867-.777-1.356-1.688-1.356-2.869 0-1.876 1.085-2.627 2.927-2.627h4.526c1.706 0 2.14.215 2.277 1.501.025.108.189.216.379.216.215 0 .378-.108.378-.216 0-1.125-.163-1.582-.163-2.868 0-1.26.163-1.716.163-2.842 0-.108-.163-.214-.378-.214m-.813-12.199c-.326 0-.57.267-.461.401.298.323.542.671.542 1.045 0 .404-.218.94-1.518.913l-6.124-.188c-2.249-.08-3.36 1.449-3.36 3.244 0 2.064 1.896 5.362 3.333 5.362.595 0 .948-.429.948-.965 0-.858-.569-1.582-1.842-1.608-.842-.027-1.356-.938-1.356-1.903 0-1.02.786-1.77 2.195-1.743l2.114.08c.46 1.743 1.788 6.515 4.498 6.515 1.409 0 2.629-1.045 2.629-2.736 0-1.527-.57-2.868-1.491-3.752.841-.268 1.383-1.072 1.383-2.066 0-1.045-.514-1.875-1.246-2.492-.082-.08-.137-.08-.244-.107m-4.607 4.665 3.631.107c.758.348 1.246 1.474 1.246 2.332 0 .939-.704 1.476-1.924 1.476-1.707 0-2.493-1.905-2.953-3.915m-4.986-13.103c-.408 0-.732.133-.732.348v3.942l-2.603-.107c-.107 0-.216.187-.216.375 0 .214.136.322.216.374 1.221.833 2.385 1.986 3.145 3.245.054.108.244.242.406.242s.352-.107.352-.295v-1.018c0-.215.191-.324.38-.324l6.585.055c2.032.054 3.55-1.181 3.55-3.351 0-1.368-.488-2.28-1.193-3.111-.081-.079-.19-.134-.297-.134-.245 0-.516.188-.434.322.352.59.515 1.126.515 1.985 0 1.258-.841 1.795-2.547 1.795h-6.504l.107-3.995c0-.215-.296-.348-.73-.348m0-9.784c-.408 0-.732.135-.732.348v3.942l-2.603-.107c-.107 0-.216.187-.216.376 0 .215.136.321.216.375 1.221.831 2.385 1.985 3.145 3.245.054.106.244.241.406.241s.352-.108.352-.296v-1.018c0-.215.191-.322.38-.322l6.585.054c2.032.053 3.55-1.181 3.55-3.352 0-1.367-.488-2.279-1.193-3.11-.081-.081-.19-.133-.297-.133-.245 0-.516.186-.434.321.352.59.515 1.126.515 1.984 0 1.26-.841 1.796-2.547 1.796h-6.504l.107-3.996c0-.213-.296-.348-.73-.348m9.593-12.455c-.326 0-.57.267-.461.402.298.321.542.669.542 1.045 0 .402-.218.938-1.518.911l-6.124-.187c-2.249-.08-3.36 1.449-3.36 3.244 0 2.065 1.896 5.363 3.333 5.363.595 0 .948-.429.948-.965 0-.859-.569-1.583-1.842-1.61-.842-.025-1.356-.939-1.356-1.904 0-1.017.786-1.768 2.195-1.742l2.114.08c.46 1.743 1.788 6.516 4.498 6.516 1.409 0 2.629-1.046 2.629-2.735 0-1.528-.57-2.869-1.491-3.753.841-.269 1.383-1.073 1.383-2.065 0-1.046-.514-1.877-1.246-2.494-.082-.08-.137-.08-.244-.106m-4.607 4.665 3.631.108c.758.348 1.246 1.474 1.246 2.332 0 .937-.704 1.473-1.924 1.473-1.707 0-2.493-1.903-2.953-3.913m5.42-19.401c-.217 0-.354.081-.379.214-.19 1.556-.543 1.796-2.277 1.796h-5.177c-2.114 0-3.901 1.179-3.901 3.888 0 1.26.759 2.467 1.815 3.593l-1.708-.107c-.107 0-.216.16-.216.376 0 .214.163.267.216.375.679.885 1.085 1.984 1.41 3.244 0 .106.136.214.325.214.19 0 .353-.108.353-.214.135-1.288.433-1.502 1.87-1.502h5.013c1.734 0 2.087.269 2.277 1.824.025.107.162.214.379.214.215 0 .378-.107.378-.214 0-1.126-.163-1.582-.163-2.843 0-1.286.163-1.743.163-2.869 0-.106-.163-.214-.378-.214-.217 0-.354.108-.379.214-.137 1.288-.571 1.502-2.277 1.502h-6.097c-.867-.777-1.356-1.474-1.356-2.655 0-1.876 1.193-2.413 2.927-2.413h4.526c1.706 0 2.14.216 2.277 1.503.025.106.162.213.379.213.215 0 .378-.107.378-.213 0-1.126-.163-1.583-.163-2.869 0-1.287.163-1.716.163-2.843 0-.133-.163-.214-.378-.214" transform="matrix(0 2.07616 -2.07616 0 251.343776928 38.568792256)"/></g></svg>