<svg clip-rule="evenodd" fill-rule="evenodd" stroke-linejoin="round" stroke-miterlimit="2" viewBox="0 0 560 400" xmlns="http://www.w3.org/2000/svg"><path d="m217.7 0c-72.4 0-131.3 56.1-131.3 125.1s58.9 125.1 131.3 125.1 131.3-56.1 131.3-125.1-58.9-125.1-131.3-125.1zm0 185.6c-33.4 0-60.5-27.2-60.5-60.5s27.2-60.5 60.5-60.5 60.5 27.2 60.5 60.5-27.1 60.5-60.5 60.5zm168.4 108.1c-3.7-24.9-25.5-43.3-51.1-43.3h-32.3l-85.1 219.9-85.1-219.9h-32.3c-25.6 0-47.4 18.4-51.1 43.3l-49.1 328.7h75.5l33.6-224.4 87.2 224.4h42.7l87.3-224.4 33.7 224.4h75.5z" fill-rule="nonzero" transform="matrix(.459242 0 0 .459242 180 57.0838)"/></svg>