<svg enable-background="new 0 0 77.449 66.339" viewBox="0 0 77.449 66.339" xmlns="http://www.w3.org/2000/svg"><g clip-rule="evenodd" fill-rule="evenodd"><path d="m77.33.209c.171 5.954.16 12.371-.048 18.417-5.995.196-12.312.085-18.417-.049-.155-5.016-.048-10.798-.048-16.278 0-.666-.027-1.984.194-2.187.035-.045.088-.074.145-.097 3.064.035 6.226-.047 9.28 0 3.077.047 6.081.041 8.894.194z"/><path d="m77.234 25.477c.175 13.39.073 27.575-.146 40.817-19.313.14-38.897-.097-57.97-.098-.412 0-.805-.008-1.215-.048-.889-.088-2.194 0-3.353 0-4.804 0-9.619-.089-14.432-.243.01-.042-.02-.045-.049-.048-.156-6.691 0-13.612 0-20.506.002-6.038.049-11.924.049-17.93 0-.795-.121-1.636.194-2.381 4.018 0 8.683-.016 12.926.049 1.391.021 2.751-.032 4.032.194 19.7-.085 39.729-.05 59.964.194zm-23.617 4.956c-1.743-.06-3.522 0-5.296 0-8.595 0-17.329.01-25.803-.097-1.724-.022-3.46.131-5.15-.146-.245.142-.514.144-.777.146-3.49.029-8.052-.288-11.468-.097-.348 1.161-.194 2.455-.194 3.693.002 9.032-.176 18.141 0 27.065.922.297 1.976.099 3.014.146 2.115.096 4.254.097 6.316.097 1.031 0 2.095.17 3.012-.097.349-.722.16-1.571.195-2.381.217-4.938.165-10.438.097-15.258-.011-.791-.009-1.648.194-2.38 1.709-.088 3.736-.049 5.491-.049.587 0 1.222-.107 1.7.145-.002 4.738.251 10.054.049 15.112-.066 1.653-.178 3.316.098 4.859 3.834.263 8.529.186 12.391.049.257-.752.146-1.572.146-2.381 0-5.067.049-10.119.049-15.209 0-.812-.111-1.661.145-2.43 1.932-.221 4.305-.048 6.269-.048.7 0 1.412-.112 1.992.146.247 6.378-.185 13.618.146 19.971 3.84.179 8.433.118 12.197.049.333-1.148.123-2.384.145-3.596.163-8.909.135-18.204 0-27.114-1.614-.293-3.285-.137-4.958-.195z"/></g></svg>