<svg enable-background="new 0 0 80.578 81.172" viewBox="0 0 80.578 81.172" xmlns="http://www.w3.org/2000/svg"><g clip-rule="evenodd" fill-rule="evenodd"><path d="m39.907 20.125c-3.182.272-6.478.145-9.825.101-10.082-.133-20.582.207-29.928-.152-.266-.736-.123-1.555-.05-2.267.508-4.998 2.834-8.868 5.542-11.74 3.238-3.434 7.431-5.754 13.704-6.046 6.529-.304 11.396 2.648 14.662 5.794 1.728 1.665 3.18 3.702 4.182 5.996 1.025 2.349 1.876 5.135 1.713 8.314z"/><path d="m80.516 20.175c-1.573.226-3.168.083-4.786.151-1.612.068-3.287-.035-4.938 0-3.294.069-6.654 0-9.976 0-4.97 0-10.05-.05-15.166-.05-1.651 0-3.322.122-4.938-.151-.16-6.108 2.369-10.491 5.391-13.754 2.959-3.235 7.317-6.018 13.251-6.298 6.856-.324 11.674 2.372 15.115 5.643 2.592 2.472 4.688 5.724 5.643 9.926.318 1.388.593 2.934.404 4.533z"/><path d="m40.764 61.087c-.249-3.273-.151-6.698-.151-10.077 0-9.354 0-17.774 0-27.56 0-.768-.121-2.3.201-2.418.037-.047.092-.077.151-.101 6.221.098 10.653 2.958 13.906 6.097 1.669 1.609 3.027 3.648 4.031 5.945 1.034 2.366 1.713 5.111 1.713 8.263 0 6.134-2.583 10.846-5.845 14.107-1.639 1.639-3.561 3.106-5.845 4.132-2.264 1.016-4.981 1.85-8.161 1.612z"/><path d="m39.907 41.185c.265 12.938.126 26.596 0 39.955-3.169.209-5.855-.612-8.112-1.612-2.292-1.016-4.189-2.431-5.894-4.031-3.358-3.149-5.765-7.848-6.046-13.805-.142-3.004.647-5.993 1.612-8.313.991-2.383 2.324-4.429 3.879-6.046 3.246-3.375 7.518-5.878 13.604-6.197.252-.014.702-.156.957.049z"/></g></svg>