<svg enable-background="new 0 0 79.143 47.797" viewBox="0 0 79.143 47.797" xmlns="http://www.w3.org/2000/svg"><path clip-rule="evenodd" d="m46.639 0c.04.009.049.05.099.05.236 11.055.017 22.399.199 33.277.042-.009.047.02.05.05 5.184.451 10.681-.141 16.142.099 5.414.238 10.959-.182 15.993.149.136.448-.411.709-.646.943-3.759 3.76-7.576 7.675-11.374 11.474-.578.578-1.076 1.265-1.788 1.688-5.402-.235-10.993.231-16.49 0-5.496-.231-10.992.187-16.241-.199-.296-4.356.097-9.401-.199-13.758-.47-.044-.725.427-.994.695-2.003 2.003-4.036 4.199-6.159 6.159-2.447 2.258-4.529 4.917-7.103 7.003-6.013-.06-12.278.129-18.128-.098.212-.668.821-1.118 1.291-1.589.484-.484 1.021-.952 1.49-1.44 2.849-2.965 5.658-6.019 8.643-8.94 5.892-5.768 11.721-11.722 17.632-17.632 5.376-5.376 10.531-10.83 15.993-16.291.588-.588.957-1.338 1.59-1.64z" fill-rule="evenodd"/></svg>