<svg enable-background="new 0 0 76.881 33.15" viewBox="0 0 76.881 33.15" xmlns="http://www.w3.org/2000/svg"><path clip-rule="evenodd" d="m43.084 22.217c.704.479 1.756.354 2.733.354 5.268-.001 9.672.101 14.982.102 1.359 0 5.065-.311 5.062 1.113-.007 3.01-4.701 2.227-7.693 2.227-4.695 0-9.315-.153-13.565-.05-1.083.026-2.238.046-3.341 0-1.052-.044-2.227.099-2.986-.456-.033-.924.379-1.729.658-2.531.568-1.632 1.092-3.164 1.67-4.91.257-.776.542-2.056 1.164-2.277.77-.274 2.134-.101 3.34-.101 7.297-.001 15.76.432 22.929.152 2.207-.597 4.106-1.575 5.062-3.442 1.139-2.226.628-5.258-1.569-6.175-1.324-.552-3.623-.506-5.567-.506-2.097 0-3.769-.03-5.821-.102-2.043-.071-3.634.128-5.719-.05-.848-.073-1.882-.051-2.986-.051-1.001 0-2.319-.133-2.784.101-.716.361-.999 1.987-1.013 2.784.506.668 1.639.455 2.581.456 5.113 0 9.858.207 15.084.151 1.701-.018 4.999-.142 5.062 1.316.053 1.227-1.659 2.016-2.835 2.126-.827.078-1.82.001-2.733 0-3.798 0-8.31-.101-12.451-.101-1.584 0-3.101.031-4.859-.051-1.23-.057-4.142.239-4.505-.456-.317-.605.319-2.015.506-2.581.61-1.844 1.048-2.974 1.619-4.909.212-.716.554-1.922 1.063-2.177.588-.293 1.909-.152 2.987-.152 3.104 0 6.252.163 9.161.152 4.223-.015 8.502-.12 12.249.203 3.461.298 5.988 2.85 6.276 6.276.316 3.762-1.425 6.705-3.948 8.453-.384.692-1.663.732-1.771 1.569-.086.66.682 1.449.86 1.974.715 2.113.195 4.571-.557 6.327-1.296 3.024-3.584 5.02-7.137 5.719-2.926.576-6.738.254-10.123.253-4.65-.001-10.051.001-15.286 0-2.637 0-5.131.051-7.744.051-.76 0-1.619.141-2.277-.304-.228-.597.14-1.171.304-1.721 1.189-3.999 2.358-7.648 3.644-11.692.674-2.118 1.341-4.344 2.075-6.731.582-1.89 2.093-4.817 1.114-7.036-.883-2.001-3.8-2.739-6.175-1.822-2.079.802-3.38 2.665-4.302 4.809-.925 2.15-1.654 4.518-2.379 6.732-1.149 3.51-2.199 6.833-3.34 10.325-.377 1.154-.799 2.337-.962 3.594.433.675 2.126.475 3.037.354.721-.549.951-1.492 1.214-2.329 1.381-4.379 2.831-8.967 4.303-13.413.601-1.815 1.032-3.689 1.822-5.213.476-.918 1.241-2.019 2.632-1.923 1.321.606.53 2.241.253 3.189-1.648 5.636-3.637 10.998-5.365 16.753-.305 1.017-.672 2.108-1.063 3.341-.273.861-.758 2.753-1.367 3.037-.553.257-1.795.123-2.581.102-.464-.013-.887.096-1.266.101-.432.005-.837-.088-1.265-.101-.875-.027-1.756.066-2.582.05-.829-.016-1.717.225-2.328-.303-.044-1.199.521-2.315.86-3.442 1.008-3.35 2.272-6.531 3.29-9.921.65-2.165 1.325-4.349 2.125-6.681.626-1.822 2.077-5.044 1.165-7.238-.662-1.59-2.953-2.713-5.365-2.126-1.104.269-2.274.94-3.037 1.67-.79.755-1.359 1.831-1.823 2.885-1.43 3.246-2.353 6.951-3.593 10.528-1.023 2.949-1.81 5.613-2.936 8.807-.22.625-.611 1.359-.405 1.822.265.596 2.44.519 3.087.203.598-.292.951-1.618 1.266-2.581.356-1.089.584-2.151.86-2.936 1.278-3.623 2.531-7.672 3.796-11.439.584-1.738 1.165-4.23 2.379-5.213.489-.396 1.458-.868 2.075-.355.86.717-.02 2.653-.304 3.442-1.236 3.427-2.222 6.526-3.29 9.921-.741 2.356-1.502 4.265-2.278 6.529-.392 1.143-.622 2.113-1.012 3.391-.282.922-.764 2.632-1.468 2.936-.589.254-1.492.102-2.379.101-1.722 0-3.178 0-5.062 0-.978 0-1.911.15-2.177-.354-.207-.391.163-1.185.354-1.822 1.268-4.225 2.776-8.252 4.049-12.3.363-1.153.852-2.295 1.214-3.492.701-2.311 1.558-4.716 2.329-7.036.18-.541.458-1.08.708-1.62.258-.548.442-1.176.712-1.62.749-1.231 1.888-2.211 3.037-3.037 1.256-.903 2.528-1.578 4.454-1.771 3.16-.318 5.243.996 6.58 2.429.315.337.657.939 1.113.962.547.028 1.607-1.149 1.974-1.417.697-.51 1.42-.913 2.126-1.215 1.565-.669 3.897-.866 5.77-.354 3.061.836 5.85 3.759 5.011 8.149-.333 1.742-1.135 3.362-1.62 5.112-1.181 4.264-2.784 8.47-3.998 12.806-.179.64-.89 2-.557 2.581.208.362 1.346.317 2.176.354 2.541.115 4.986.05 7.289.051 3.337 0 6.635.04 9.718.101 1.551.031 3.19-.025 4.809 0 3.138.048 6.579.228 8.756-.962 1.663-.908 3.613-3.088 3.138-6.023-.653-4.029-6.455-3.336-10.933-3.392-4.544-.055-9.15-.141-14.021-.05-.817.554-1.147 1.849-1.163 3.037z" fill-rule="evenodd"/></svg>