<svg enable-background="new 0 0 70.314 71.114" viewBox="0 0 70.314 71.114" xmlns="http://www.w3.org/2000/svg"><g clip-rule="evenodd" fill-rule="evenodd"><path d="m.262 0c17.114.096 34.64-.02 51.594.245.299 18.023-.116 36.863.244 54.626.424.252 1.605.189 2.104.049.343-11.943-.181-24.387.195-35.896.057.008.087-.011.098-.049 4.991.035 10.959-.089 15.649.098.188 2.102.098 4.266.098 6.407-.001 13.056.052 25.898.049 39.172 0 2.13.093 4.267-.098 6.357-8.184.203-16.867.049-25.332.049-1.429 0-2.868.048-4.255 0-1.321-.046-2.623.128-3.863-.146-.148-17.981.031-35.978-.195-54.137-.449-.305-1.577-.23-2.104-.049-.373 17.718.093 35.934-.146 54.137-.566.277-1.231.15-1.858.147-4.522-.027-9.626.127-14.133-.147-.224-18.131-.038-36.075-.196-54.137-.398-.319-1.728-.264-2.2-.049-.328 18.118.177 36.169-.147 54.186-4.922.184-10.757.132-15.6 0-.19-20.398-.15-41.087-.148-61.913.001-2.934-.077-5.901.099-8.803.025-.07.074-.12.145-.147z"/><path d="m70.145.294c.259 1.268.047 2.643.098 4.01.146 3.881.045 8.259-.098 12.226-2.57.254-5.326.147-7.971.147-2.664 0-5.257.055-7.776-.147-.308-1.245-.105-2.619-.098-4.01.018-3.294 0-6.696 0-10.319 0-.65-.087-1.715.146-1.956.036-.045.089-.074.146-.098 5.186.078 10.27-.08 15.553.147z"/></g></svg>