<svg enable-background="new 0 0 47.783 69.615" viewBox="0 0 47.783 69.615" xmlns="http://www.w3.org/2000/svg"><g clip-rule="evenodd" fill-rule="evenodd"><path d="m47.474.082c.234 3.667.179 7.847.046 11.532-3.954.178-8.283.174-12.408.046-.25-3.725-.125-7.921-.046-11.532 4.011-.219 8.506-.102 12.408-.046z"/><path d="m13.894 16.918c.931 1.802 1.659 3.779 2.444 5.72 1.552 3.836 3.119 7.6 4.797 11.44.392.896.778 1.934 1.199 2.859.383.842.688 2.078 1.799 2.261.852-.127 1.164-1.096 1.43-1.753.299-.738.622-1.517.922-2.214 1.252-2.906 2.599-5.795 3.875-8.765.47-1.094 1.024-2.136 1.522-3.229.15-.329.206-.805.6-.968.256 8.332.079 17.386.185 25.739.016 1.229.178 2.655-.046 3.644-.156.686-.714 1.485-1.061 2.214-1.759 3.695-3.434 7.481-5.12 11.209-.684 1.514-1.052 3.169-2.03 4.475-1.078-.029-2.273.059-3.275-.047-.64-.992-.943-2.146-1.384-3.228-4.858-11.925-9.68-24.049-14.53-36.071-1.546-3.832-3.072-7.623-4.659-11.485-.21-.512-.63-1.012-.554-1.615.389-.309.948-.185 1.43-.185 4.085 0 8.374-.112 12.456-.001z"/><path d="m47.566 17.011c.28 8.593-.14 17.409.139 26.292.068 2.174.029 4.338-.046 6.505-.074 2.145.046 4.346.046 6.55 0 3.344-.081 6.742.046 9.917.042 1.049.078 2.151-.138 3.183-4.036.155-8.43.151-12.408.046-.152-17.787-.252-34.729-.092-52.492 4.014-.187 8.326-.147 12.453-.001z"/><path d="m11.357 69.457c-3.37.185-7.307.217-10.886.046-.247-.353-.18-.851-.185-1.245-.153-14.675-.022-29.023-.046-43.636 0-.047 0-.093 0-.139h.138c3.565 8.267 6.917 16.856 10.379 25.37.233.573.559 1.216.646 1.706.24 1.354.046 3.006.046 4.475 0 4.439.076 9.099-.092 13.423z"/></g></svg>