<svg enable-background="new 0 0 74.337 29.866" viewBox="0 0 74.337 29.866" xmlns="http://www.w3.org/2000/svg"><g clip-rule="evenodd" fill-rule="evenodd"><path d="m13.75.068c6.918-.394 11.808 3.309 14.274 7.592 1.286 2.235 2.182 5.414 1.822 9.01-.157 1.562-.623 3.003-1.164 4.303-.481 1.154-1.21 2.673-2.429 3.036-1.335.398-2.445-.459-2.582-1.518-.142-1.1.65-2.074 1.012-2.784.436-.854.775-1.753.962-2.784.366-2.018.054-4.684-.709-6.428-.72-1.648-1.927-3.156-3.34-4.201-1.455-1.076-3.304-1.995-5.365-2.177-3.601-.316-6.201.761-8.2 2.328-1.116.876-2.022 2.242-2.733 3.594-.744 1.416-1.235 3.132-1.215 5.061.029 2.792 1.22 5.209 2.632 6.833 1.85 2.129 4.324 3.88 8.554 3.797 2.315-.046 3.825-.75 5.365-1.569.492-.262.994-.605 1.721-.557 1.077.072 1.865.958 1.822 2.075-.054 1.402-1.544 2.124-2.733 2.683-1.331.624-2.715 1.096-4.1 1.316-3.571.566-6.985-.229-9.161-1.367-2.245-1.175-4.27-3.072-5.669-5.163-2.143-3.203-3.361-8.314-1.822-12.906.462-1.381 1.113-2.599 1.822-3.644 1.426-2.105 3.55-4.046 5.82-5.113 1.561-.734 3.342-1.257 5.416-1.417z"/><path d="m33.641.068c2.267-.236 2.328 1.922 2.329 4.352 0 6.907.151 13.796.151 20.651 0 1.171.078 2.406-.202 3.138-.595 1.555-2.915 1.527-3.594.102-.319-.671-.203-2.06-.202-3.29 0-6.76-.102-13.691-.102-20.499.001-2.219-.248-4.119 1.62-4.454z"/><path d="m47.814 24.261c1.902 1.079 3.958 1.741 6.63 1.367 1.257-.176 2.447-.593 3.189-.911.905-.389 1.835-1.205 2.936-1.113.983.081 1.83.729 1.771 2.024-.057 1.256-1.262 1.935-2.125 2.379-1.036.532-2.174.995-3.24 1.266-2.806.712-5.611.588-7.895-.102-4.561-1.376-7.982-4.474-9.566-8.402-.916-2.271-1.492-4.884-1.114-7.592.751-5.374 3.177-8.64 6.985-10.983 1.88-1.158 4.185-2.045 6.985-2.177 3.561-.168 6.653.916 8.756 2.277 2.32 1.502 3.94 3.334 5.264 5.72 1.231 2.218 2.021 5.576 1.518 9.162-.226 1.612-.691 2.896-1.316 4.2-.59 1.231-1.336 2.682-2.834 2.632-1.896-.062-2.176-2.074-1.367-3.441.302-.51.618-1.02.81-1.468 1.869-4.377.315-9.102-2.075-11.692-2.52-2.731-7.353-4.407-11.845-2.733-1.78.663-3.188 1.755-4.454 3.289-1.187 1.438-2.202 3.305-2.379 5.315-.503 5.723 1.959 8.731 5.366 10.983z"/><path d="m71.906.119c.526-.087 1.523.202 1.923.86.405.666.354 1.841.354 3.189 0 6.962.152 14.157.152 20.904 0 2.437.111 4.116-1.873 4.454-.771.131-1.659-.703-1.873-1.164-.318-.688-.279-2.006-.253-3.29.106-5.396-.051-11.445-.051-17.159 0-2.492-.806-7.326 1.519-7.794.033-.007.07.005.102 0z"/></g></svg>