<svg enable-background="new 0 0 34.561 34.267" viewBox="0 0 34.561 34.267" xmlns="http://www.w3.org/2000/svg"><path d="m8.605 0c5.749-.002 11.5.006 17.249.01.021 2.847.009 5.694.008 8.54-2.856.042-5.713-.003-8.57.014.019 2.829-.009 5.66.02 8.489 5.727.068 11.446.018 17.176.055.08.485.064.979.05 1.47.026 2.368-.006 4.739.024 7.107-2.876 0-5.761-.008-8.631.028-.125 2.842.13 5.719-.098 8.553-2.857-.113-5.732.042-8.588-.091.043-.929-.015-1.855.042-2.777-.075-2.412-.043-4.839-.024-7.254-.048-2.274-.01-4.55-.024-6.824.036-.189-.175-.212-.309-.2-1.311.019-2.621-.004-3.931.014-.42-.011-.841-.019-1.261.001-1.021-.024-2.041-.012-3.063-.011-.012 2.847.001 5.694 0 8.541-2.876.015-5.752.006-8.628.006-.005-5.622-.067-11.238-.04-16.862.011-.149.023-.373.229-.32 2.768.001 5.536-.004 8.304 0 .14-2.823.012-5.659.065-8.489z"/></svg>