<svg enable-background="new 0 0 48.546 26.885" viewBox="0 0 48.546 26.885" xmlns="http://www.w3.org/2000/svg"><path d="m31.775.594c1.452-1.083 3.72-.627 4.684.894.452.66.577 1.482.547 2.266.015 1.745-.013 3.491.017 5.236 2.929-.848 6.254-.049 8.501 2.006 2.02 1.796 3.131 4.528 2.996 7.221.019 1.892.043 3.79.006 5.682-.155 2.036-2.462 3.461-4.36 2.738-1.294-.433-2.246-1.718-2.234-3.089-.039-1.987-.002-3.976-.028-5.963-.074-1.228-1.185-2.32-2.429-2.283-1.031-.024-2.012.707-2.316 1.685-.371 1.097.162 2.405 1.199 2.923.419.241.926.247 1.342.494 1.358.615 2.173 2.244 1.81 3.696-.266 1.366-1.507 2.488-2.899 2.582-1.782.021-3.482-.83-4.855-1.917-2.558 2.136-6.33 2.682-9.366 1.293-.615.477-1.377.813-2.17.758-1.684.052-3.219-1.409-3.269-3.093-.049-2.288-.013-4.579-.033-6.868.07-.82-.68-1.6-1.506-1.542-.723.036-1.321.701-1.341 1.417.005 2.113.012 4.226.013 6.339.183 1.477-.667 3.05-2.089 3.566-1.469.612-3.311-.045-4.082-1.434-.352-.643-.47-1.39-.434-2.116-.017-2.159.022-4.319-.035-6.477-.067-.715-.75-1.31-1.471-1.261-.81-.013-1.457.775-1.41 1.56.039 2.262.019 4.526.032 6.789-.038.649-.235 1.3-.632 1.822-.806 1.263-2.595 1.707-3.937 1.095-1.283-.519-2.11-1.906-1.996-3.281-.044-2.257-.01-4.516-.029-6.774.038-3.256 2.259-6.333 5.337-7.397 2.45-.906 5.296-.449 7.412 1.058 2.844-2.128 7.031-2.018 9.788.206 1.239-.82 2.632-1.531 4.142-1.639 1.614-.103 3.143 1.212 3.347 2.806.311 1.704-.944 3.474-2.641 3.784-1.478.324-2.302 2.159-1.562 3.481.38.762 1.183 1.29 2.034 1.329 1.284.109 2.482-.981 2.56-2.256-.004-4.931-.027-9.86-.04-14.789.048-1.003.571-1.97 1.397-2.547zm-1.145 2.534c.02 4.129-.015 8.26.049 12.386.736-3.019 3.117-5.541 6.083-6.461-.017-1.88-.004-3.761-.012-5.641.076-1.422-.985-2.783-2.37-3.082-1.768-.505-3.704.977-3.75 2.798zm-17.645 7.252c-.103.077-.232.2-.352.079-1.383-.987-3.084-1.56-4.79-1.494-3.848-.02-7.321 3.284-7.56 7.112-.059 2.183.001 4.371-.017 6.556-.003.809-.047 1.665.372 2.392.589 1.128 1.942 1.781 3.193 1.56 1.437-.188 2.52-1.564 2.507-2.986-.005-2.302-.005-4.605-.011-6.908.034-.996 1.055-1.817 2.036-1.569.771.149 1.381.902 1.338 1.69.01 1.926.012 3.854.025 5.777.042.652-.078 1.332.172 1.957.395 1.219 1.641 2.11 2.927 2.048 1.597.054 3.053-1.402 3.009-2.998-.01-2.301-.01-4.605-.017-6.907.026-.956.986-1.794 1.942-1.611.586.095 1.053.533 1.315 1.048.349-2.167 1.576-4.123 3.246-5.525-2.619-2.121-6.623-2.227-9.335-.221zm24.217-1.179c-.098.029-.225.076-.193.203.033 2.366-.032 4.735.052 7.099.48-.832 1.351-1.451 2.333-1.462 1.418-.065 2.715 1.173 2.768 2.583.018 2.019 0 4.038.018 6.057.059 1.586 1.523 2.951 3.113 2.869 1.586.041 3.002-1.373 3.002-2.95-.006-1.649-.008-3.297-.008-4.946.149-2.467-.606-5.021-2.307-6.847-2.138-2.412-5.67-3.452-8.778-2.606zm-10.833-.138c-1.298.229-2.56.752-3.605 1.56 1.697 1.486 2.708 3.669 2.803 5.918.381-.725 1.07-1.29 1.881-1.452 1.556-.322 2.661-2.012 2.311-3.569-.246-1.541-1.845-2.719-3.39-2.457zm5.377 4.436c-2.002 3.519-1.124 8.351 2.012 10.92 1.339-1.173 2.342-2.76 2.757-4.496.403-1.422.239-2.914.271-4.371-.036-2.072-.015-4.143-.031-6.217-2.121.674-3.972 2.191-5.009 4.164zm-12.463 5.636c.432 2.871 2.404 5.422 5.036 6.628.614-.541.982-1.349.992-2.168-.004-2.113-.003-4.226-.011-6.339.122-2.432-.883-4.906-2.761-6.477-2.496 1.928-3.767 5.252-3.256 8.356zm8.318 1.292c-.865-.117-1.627-.714-2.027-1.48-.041 1.593.007 3.19-.014 4.785-.026.81-.43 1.553-.955 2.15 2.908 1.254 6.505.766 8.918-1.284-1.643-1.505-2.814-3.591-3.037-5.833-.461 1.105-1.687 1.859-2.885 1.662zm9.385-1.637c-.258 2.215-1.349 4.324-3.031 5.793 1.132.949 2.531 1.594 3.987 1.833 1.689.277 3.375-1.175 3.399-2.875.058-1.208-.657-2.433-1.773-2.922-.405-.246-.907-.231-1.314-.474-.57-.284-.988-.792-1.268-1.355zm-17.797 1.154c-.018 1.173-.002 2.346-.003 3.519.003.941.416 1.897 1.183 2.464 1.055.858 2.666.842 3.739.024-2.412-1.159-4.279-3.401-4.919-6.007z"/></svg>