<svg enable-background="new 0 0 73.566 58.154" viewBox="0 0 73.566 58.154" xmlns="http://www.w3.org/2000/svg"><path clip-rule="evenodd" d="m29.851.043c.425.587.485 1.331.703 2.016.642 2.018 1.125 4.232 1.735 6.376.403 1.416.764 2.856 1.125 4.267.364 1.422.618 2.872 1.219 4.172 1.245.18 2.993.1 4.313.047.537-.476.62-1.254.844-1.922.682-2.031 1.251-4.224 1.875-6.376.624-2.148 1.221-4.301 1.828-6.47.191-.681.376-1.387.75-1.969 9.437-.219 19.675-.22 29.16 0 .257 2.321.094 4.69.094 7.079 0 4.707.047 9.56.047 14.486v21.8c0 4.886.085 9.747-.094 14.486-5.646.173-11.768.093-17.627.094-.808.001-1.638.111-2.391-.141-.346-6.562.101-13.89-.234-20.768-.407.222-.452.79-.562 1.172-.866 2.976-1.821 6.169-2.719 9.235-.777 2.652-1.463 5.3-2.297 7.97-.268.857-.409 1.771-.891 2.531-6.9.048-14.104.032-21.097-.141-.383-.277-.359-.82-.469-1.219-1.317-4.782-2.657-9.747-3.985-14.58-.245-.891-.447-1.802-.703-2.672-.249-.846-.379-1.74-.844-2.485-.253 1.655-.141 3.416-.141 5.204v13.314c0 .82.094 1.675-.094 2.438-1.501.255-3.116.141-4.735.141-4.743.002-9.881.041-14.44-.046-.02-.042-.041-.084-.094-.095-.157-19.465-.164-38.806-.045-57.757 1.153-.325 2.467-.188 3.75-.188 8.525.002 17.253-.096 26.019.001zm8.205 40.693c-.895 0-1.846.074-2.579-.094-.412-.609-.561-1.374-.75-2.062-.622-2.257-1.105-4.512-1.782-6.751-.888-2.941-1.603-5.972-2.391-8.955-1.19-4.507-2.36-9.008-3.563-13.455-.396-1.462-.779-2.935-1.359-4.312-2.149-.193-4.479-.094-6.985-.095-4.403 0-8.997-.084-13.221.142-.242.947-.14 1.95-.14 2.905v8.954c0 11.13.047 21.714.047 33.005 0 .949-.123 1.943.141 2.86 1.281.149 2.756.122 4.171.094 1.397-.028 2.837.088 4.032-.141.247-1.076.141-2.267.141-3.423 0-5.61-.047-11.398-.047-16.971 0-.587-.116-1.248.187-1.782 1.111-.279 2.909.127 3.892-.281-.024-1.134-.415-2.236-.704-3.328-.577-2.182-1.182-4.34-1.734-6.517-.273-1.077-.695-2.131-.797-3.234.716-.244 1.676-.142 2.625-.142.926.001 1.912-.069 2.672.094.632 1.383.917 2.887 1.313 4.36 1.996 7.438 4.154 14.928 6.188 22.315.407 1.48.772 2.993 1.219 4.454.455 1.485.603 3.048 1.266 4.454 3.923.192 8.816.201 12.846.094.439-.56.551-1.292.75-1.969 1.036-3.522 2.03-7.058 3-10.596.39-1.423.945-2.803 1.078-4.267-1.139-.252-2.618-.141-4.032-.141-1.417 0-2.842-.098-3.891.094-.012 1.626.951 2.922.891 4.595-.665.259-1.582.096-2.484.096zm25.222-35.677c-4.042 0-8.195-.001-12.189 0-.832 0-1.742-.119-2.485 0-.696.111-.625.617-.844 1.312-.476 1.511-.896 3.006-1.313 4.453-.652 2.264-1.359 4.023-1.688 6.048 1.086.268 2.299.141 3.516.141 3.13.001 6.402 0 9.47 0 .597 0 1.241-.108 1.782.141.123 1.719.221 3.918 0 5.345-3.722.234-7.647.141-11.58.141-2.971 0-6.021.043-8.861-.047-.963-.03-1.949-.09-2.86.141.066 1.333.554 2.612.891 3.892.343 1.301.611 2.627 1.079 3.845 5.933.329 12.587-.004 18.565.14.846.021 1.731-.233 2.485.141.283 5.734-.025 11.352.094 16.644.021.923-.041 1.84 0 2.766.04.9-.047 1.842.188 2.72 2.72.145 5.869.199 8.533 0 .256-.871.055-1.797.094-2.72.042-.985.047-1.992.047-3 0-6.061-.047-12.138-.047-18.144 0-7.036 0-13.842 0-20.909 0-.966.112-1.959-.141-2.906-1.53-.258-3.143-.145-4.736-.144z" fill-rule="evenodd"/></svg>