<svg enable-background="new 0 0 73.88 79.605" viewBox="0 0 73.88 79.605" xmlns="http://www.w3.org/2000/svg"><path clip-rule="evenodd" d="m73.716.242c.181 6.296.117 13.341.049 19.563-11.558.487-24.064-.282-35.907.049-3.644.102-6.606 1.438-9.025 3.025-4.748 3.113-8.419 8.096-9.026 15.124-.345 4 .572 7.381 1.854 10.099 1.312 2.779 3.106 4.882 5.268 6.781 1.473 1.223 3.107 2.221 4.928 3.122 1.859.92 3.902 1.371 6.488 1.562 2.545.187 5.235.049 7.904.049 2.64 0 5.297.08 7.903-.098.221-2.974.201-6.478.049-9.416-.832-.261-1.733-.146-2.635-.146-2.562 0-5.419-.049-8.147-.049-1.885.001-3.706.152-5.317-.049-1.503-.188-2.866-.749-4.001-1.512-2.111-1.419-3.797-3.888-4.244-6.83-.567-3.728.793-6.26 2.391-8.44 1.003-.904 1.992-1.741 3.317-2.293 1.413-.589 2.961-.683 4.928-.683 10.905.001 22.479-.006 33.272.195.205 15.977.08 33.026.049 49.129-.043.021-.088.043-.098.097-11.669.158-23.497.047-35.078.049-3.746.001-7.203-.633-10.294-1.561-5.831-1.75-11.048-4.977-15.173-8.635-6.314-5.6-10.822-13.03-12.587-23.076-.604-3.443-.776-7.551-.342-11.172.852-7.079 3.124-12.607 6.196-17.564 2.934-4.731 7.133-8.823 12.001-11.758 3.813-2.298 7.83-4.074 12.734-5.122 1.654-.354 3.506-.581 5.464-.634 3.004-.082 6.104-.047 9.172.049 3.078.097 6.199 0 9.318 0 6.219-.001 12.508.012 18.589.145z" fill-rule="evenodd"/></svg>