<svg enable-background="new 0 0 80.055 39.966" viewBox="0 0 80.055 39.966" xmlns="http://www.w3.org/2000/svg"><path clip-rule="evenodd" d="m55.951.2c.25 2.136.099 4.867.15 7.464.017.815-.029 1.647.2 2.354.958-.194 1.748-.637 2.605-.901 2.646-.816 6.153-1.077 9.167-.25 3.589.984 6.412 2.887 8.517 5.46 2.114 2.586 3.585 6.302 3.456 10.42-.063 2.029-.687 3.94-1.402 5.61-1.627 3.793-4.273 6.359-8.065 8.116-2.095.97-4.596 1.676-7.715 1.453-2.669-.191-5.064-1.014-6.812-2.254-.224-4.132.143-9.149-.15-13.475-1.161-.323-2.612-.084-4.008-.15-1.299-.062-2.655-.003-3.907-.101-.288-1.265-.537-2.568-1.052-3.607-1.337-1.933-3.198-3.679-6.162-3.908-3.969-.305-7.386 2.325-8.165 5.761-.128.563-.034 1.164-.351 1.703-2.529.177-5.624.126-8.016-.05-.435-1.636-.78-3.361-1.703-4.508-1.454-1.736-3.366-3.132-6.161-3.156-2.894-.025-5.093 1.357-6.312 3.356-.48.787-.925 1.819-1.101 2.855-.079.458.056.971-.2 1.453-2.773.051-6.026.149-8.717-.05-.343-3.969 1.291-6.822 2.905-9.167 1.426-1.671 2.916-3.254 4.859-4.358 1.922-1.091 4.193-1.989 7.063-2.103 3.845-.154 6.982.729 9.367 2.154.949.567 1.773 1.127 2.655 1.954.348.327.96.994 1.253 1.002.536.016 1.311-1.015 1.903-1.453 2.925-2.163 7.78-4.161 12.924-3.156.927.181 1.78.405 2.605.702.792.284 1.506.747 2.354.852.26-.566.15-1.63.15-2.505 0-1.633 0-3.475 0-5.31 0-1.003-.256-2.157.501-2.304 1.152-.224 2.506 0 3.757 0 1.25-.003 2.465-.085 3.608.097zm4.008 17.282c-.782.45-1.526 1.104-2.004 1.703-.452.567-.815 1.13-1.152 1.954-1.098 2.679-.296 5.555.902 7.264.742 1.059 1.84 1.935 2.955 2.455 4.841 2.256 10.291-.942 10.921-5.611.262-1.938-.196-3.723-.902-4.959-1.21-2.122-3.793-4.128-7.464-3.757-1.379.139-2.384.449-3.256.951z" fill-rule="evenodd"/></svg>