<svg clip-rule="evenodd" fill-rule="evenodd" stroke-linejoin="round" stroke-miterlimit="2" viewBox="0 0 560 400" xmlns="http://www.w3.org/2000/svg"><g transform="matrix(.450225 0 0 .450225 145 70.7404)"><path d="m432.8 0c-54.3 0-102.5 25.9-133 66.1-30.4-40.2-78.7-66.1-133-66.1-92.1 0-166.8 74.7-166.8 166.8v407.4c72.8-11.6 139-76.5 139-149v-213.5c0-27.1 21.9-49 49-49s49 21.9 49 49v1.2h55.6l-55.6 36.3v269c0 4.4.1 8.7-.6 13.1-1.6 10.1-7.3 27.5-26.8 41.7 20.2 3.2 158.2-15.7 158.2-174.5v-186.8c0-27.1 21.9-49 49-49s49 21.9 49 49v1.2h55.8l-55.8 36.4v267.5c0 8.4-.1 16.3-2.9 24.3-2.5 7.2-6.5 13.9-11.4 19.7-3.8 4.5-8.3 8.5-13 12.1h161.2v-406.1c0-92.1-74.7-166.8-166.9-166.8z" fill-rule="nonzero"/><circle cx="188" cy="210.4" r="16.1" transform="matrix(.707094 -.707119 .707119 .707094 -93.6981 194.592)"/><path d="m416.8 194.2c-8.9 0-16.1 7.2-16.1 16.1s7.2 16.1 16.1 16.1 16.1-7.2 16.1-16.1c.1-8.8-7.1-16.1-16.1-16.1z" fill-rule="nonzero"/></g></svg>