<svg enable-background="new 0 0 72.437 64.302" viewBox="0 0 72.437 64.302" xmlns="http://www.w3.org/2000/svg"><path clip-rule="evenodd" d="m36.211 0c.436-.004 1.02 1.299 1.33 1.872 4.061 7.466 8.479 14.597 12.416 22.122.707 1.35 1.604 2.577 2.316 3.941 1.42 2.719 3.055 5.296 4.582 7.981.76 1.337 1.566 2.671 2.217 4.04 1.32 2.781 2.889 5.457 4.434 8.08 2.344 3.978 4.523 7.999 6.799 12.021.561.991 1.133 1.958 1.725 3.005.166.294.475.646.395 1.034-.305.35-.799.145-1.184.148-13.113.123-26.49-.147-39.463-.148-.857 0-1.781.121-2.611-.148.062-.688.522-1.372.887-1.971 2.586-4.242 5.041-8.66 7.588-13.105 1.381-2.412 2.887-4.924 4.285-7.538.998-1.865 2.09-3.754 3.203-5.666.33-.566.977-1.456.984-1.971.012-.617-.756-1.655-1.033-2.168-.406-.75-.705-1.473-1.33-1.872-.633.414-.879 1.154-1.232 1.773-5.342 9.39-10.779 19.032-16.258 28.378-.359.75-.787 1.478-1.184 2.217-.383.718-.785 1.491-1.379 2.02-2.076.021-4.553 0-6.848 0-.721 0-1.482.101-2.07-.197-.019-.532.348-.989.592-1.428.969-1.738 2.152-3.512 3.104-5.321.244-.464.385-.974.641-1.429 1.502-2.67 3.131-5.229 4.631-7.982 1.971-3.61 4.016-7.079 6.06-10.741 1.994-3.573 3.986-7.049 6.109-10.642.717-1.215 1.455-2.639 2.266-4.04.275-.476.686-1.03.689-1.379.006-.405-.338-.798-.541-1.232-.209-.444-.457-.828-.641-1.133-.484-.803-.726-1.622-1.428-2.069-.566.455-.887 1.157-1.232 1.774-1.057 1.882-2.125 3.815-3.154 5.764-1.346 2.55-2.904 5.012-4.334 7.538-2.492 4.397-5.06 8.812-7.588 13.204-.355.617-.787 1.25-1.084 1.872-.377.789-.644 1.565-1.084 2.316-2.483 4.234-5.061 8.577-7.44 12.957-.389.716-.748 1.488-1.33 2.069-2.215.107-4.418 0-6.799 0-.768 0-1.551.116-2.217-.148.193-.766.648-1.445 1.035-2.119 2.611-4.545 5.283-9.194 7.98-13.795 3.059-5.215 5.937-10.593 9.016-15.914.76-1.309 1.402-2.704 2.217-4.039 1.566-2.569 2.938-5.284 4.484-7.982 2.992-5.221 5.977-10.5 9.016-15.864.34-.599.754-1.29 1.133-1.971.414-.74.881-1.669 1.33-2.114zm14.289 41.927c-.348.343-.781 1.047-1.135 1.626-1.062 1.746-2.039 3.623-2.955 5.271-1.004 1.808-2.021 3.519-2.957 5.272-.324.61-.807 1.156-.887 1.872 1.232.264 2.6.148 3.941.148 3.443 0 6.854.049 10.199.049.647 0 1.332.115 1.922-.147.008-.705-.561-1.241-.838-1.823-1.672-3.159-3.436-6.307-5.174-9.36-.586-1.03-1.062-2.142-1.871-3.006-.033 0-.066 0-.1 0-.057.023-.11.052-.145.098z" fill-rule="evenodd"/></svg>