<svg enable-background="new 0 0 25.699 27.683" viewBox="0 0 25.699 27.683" xmlns="http://www.w3.org/2000/svg"><path d="m9.985.902c3.399-1.173 7.443-1.393 10.628.5 2.429 1.428 3.93 4.537 2.789 7.259-.878 3.224-6.034 4.13-7.635 1.037-1.025-1.752-.072-4.146 1.766-4.893 1.428-.649 3.148-.176 4.198.942-.059-1.877-1.622-3.271-3.315-3.796-2.818-.895-6.284-.567-8.423 1.643-2.1 2.226-2.787 5.376-2.959 8.34-.072.965.873 1.531 1.625 1.897-.793.329-1.73.958-1.634 1.937.131 2.696.406 5.541 1.896 7.87 1.788 2.875 6.062 3.257 8.725 1.429 1.671-1.124 2.55-3.187 2.443-5.172-.061-1.083.282-2.359-.52-3.253-1.257-1.276-3.924-.535-4.031 1.365.873-.151 1.803.671 1.507 1.573-.272.994-1.661 1.197-2.327.476-1.305-1.355-.826-3.723.526-4.878 1.054-.949 2.538-1.212 3.913-1.182 2.3.005 4.635-1.108 5.831-3.118 1.103 1.699.908 4.134-.478 5.62-.016 3.677-.071 7.354-.086 11.031-.477-1.062-1.384-2.119-2.634-2.148-1.943-.12-3.391 1.43-5.175 1.913-3.472.992-7.383.043-10.131-2.268-2.709-2.231-4.279-5.616-4.67-9.067-.052-1.04-.902-1.815-1.814-2.18.973-.376 1.813-1.225 1.863-2.313.604-4.612 3.654-8.986 8.122-10.564z"/></svg>