<svg enable-background="new 0 0 188.268 185.713" viewBox="0 0 188.268 185.713" xmlns="http://www.w3.org/2000/svg"><path clip-rule="evenodd" d="m18.038 46.102c6.236-4.734 13.822-8.287 24.706-8.285 8.637.001 18.206-.052 27.267-.05 8.61.001 17.711.138 26.915 0 10.954-.165 20.732-.051 32.138-.05 1.819 0 3.691-.028 5.423 0 1.811.03 3.475.03 4.972.402 2.862.71 5.211 2.084 6.98 4.017 1.698 1.855 3.115 4.488 3.565 7.432.258 1.684.15 3.515.151 5.373 0 16.359-.049 31.96-.051 48.256-.001 7.31.001 14.196 0 21.794 0 3.645.319 7.615-.401 10.595-.699 2.889-2.062 5.198-4.018 6.98-1.895 1.726-4.369 3.102-7.381 3.565-1.638.252-3.472.235-5.273.15-1.77-.084-3.645 0-5.474 0-14.457.002-28.64-.002-43.436 0-7.33.001-14.305-.001-21.793 0-1.699 0-3.597.079-5.272 0-1.949-.092-3.563.026-5.072-.402-2.809-.796-5.057-2.339-6.679-4.318-1.73-2.11-2.712-4.477-2.711-8.285 0-7.214.05-14.383.05-21.743 0-3.516-.098-7.124 0-10.595.103-3.672-.277-7.344.101-10.797.675-6.172 4.413-10.621 9.641-12.303 1.357-.437 2.977-.715 4.771-.653 1.741.061 3.628.012 5.373 0 10.591-.069 22.107-.002 32.489-.05 6.644-.031 14.03-.001 21.392 0 1.979 0 3.274-.178 4.469-.954 1.07-.695 1.867-1.73 2.261-3.214.847-3.195-1.254-5.805-4.067-6.478-1.498-.358-3.359-.251-5.273-.251-20.157 0-40.45-.001-60.157 0-7.417 0-12.116 2.363-15.918 6.026-3.612 3.479-6.478 8.428-6.478 15.517.001 7.198 0 14.505 0 21.743.001 4.447-.164 9.064-.05 13.207.072 2.63.126 5.391 0 8.034-.18 3.778-.099 7.383.653 10.345.754 2.97 1.931 5.378 3.465 7.481 3.594 4.445 8.432 8.28 16.119 8.638 2.552.118 5.338 0 8.235 0 24.507-.006 48.823.005 73.564 0 2.782-.001 5.549.108 8.135-.101 5.013-.405 8.885-2.24 11.801-4.67 2.913-2.428 5.348-5.678 6.729-9.792.685-2.04 1.189-4.454 1.155-7.081-.168-12.828-.003-26.741 0-40.373.002-13.627-.077-27.594.05-41.075.025-2.706.075-5.41-.1-7.934-.344-4.959-2.474-8.648-4.771-11.7-3.471-3.868-7.521-6.743-13.808-7.532-2.094-.263-4.335-.095-6.88-.101-8.74-.017-18.713 0-27.97 0-28.302.001-56.186 0-84.812 0-3.443 0-7.142-.013-10.646-.05-1.128-.012-2.328-.028-3.213-.301-1.674-.515-3.23-1.582-4.42-2.662-2.426-2.204-4.297-5.447-4.469-9.742-.087-2.179.385-4.378 1.105-5.976 1.361-3.021 4.026-5.743 7.13-7.03 1.674-.694 3.767-1.164 6.026-1.105 6.837.178 13.955.049 20.789.05 18.839.002 37.716-.002 56.592 0 14.203.002 28.149-.001 42.281 0 4.607.001 9.185-.124 13.759 0 2.442.066 4.685.003 6.779.251 6.161.73 11.379 2.8 15.717 5.574 5.783 3.697 10.257 8.472 13.608 14.763 1.608 3.018 2.939 6.61 3.716 10.495.801 3.999.754 8.493.754 13.407-.004 27.938.003 57.086 0 83.86-.001 4.689-.05 9.283-.051 13.858 0 2.481.122 4.828-.05 7.03-.506 6.475-2.319 11.803-4.871 16.42-1.706 3.088-3.646 5.855-5.976 8.186-4.76 4.76-10.346 8.419-17.927 10.495-1.865.511-3.88.892-6.025 1.105-2.169.215-4.462.201-6.88.201-18.855.002-37.327-.002-56.441 0-14.078.001-28.322-.001-42.482 0-2.458 0-4.819.052-7.08-.05-6.569-.298-11.937-2.258-16.521-4.721-6.073-3.264-10.73-8.167-14.361-14.01-1.852-2.979-3.234-6.294-4.269-9.942-1.054-3.715-1.406-7.905-1.406-12.755 0-4.587 0-9.213 0-13.809 0-17.683.048-36.922.05-55.839 0-2.411-.076-4.744.352-6.729 1.225-5.675 3.732-10.565 6.728-14.562 2.033-2.715 4.379-5.142 6.977-7.18zm60.609 59.907c-1.77.028-3.526-.131-5.021.15-2.216.417-4.204 2.198-4.569 4.972-.387 2.936 1.333 5.349 3.264 6.227 1.744.793 4.457.502 6.93.502 11.248.003 22.582-.003 33.846 0 1.924.001 4.031.231 5.573-.101 2.796-.601 4.859-3.11 4.62-6.227-.194-2.525-1.957-4.957-4.771-5.423-1.817-.301-4.146-.101-5.976-.101-5.952 0-12.325-.044-18.027 0-5.323.042-10.579-.083-15.869.001z" fill-rule="evenodd"/></svg>