<svg enable-background="new 0 0 76.863 67.436" viewBox="0 0 76.863 67.436" xmlns="http://www.w3.org/2000/svg"><path clip-rule="evenodd" d="m57.646.033c.608.516.955 1.275 1.339 1.961 2.743 4.891 5.588 9.74 8.365 14.721.394.707.739 1.44 1.146 2.152 2.608 4.549 5.152 8.99 7.791 13.67.224.396.562.809.574 1.051.026.498-.774 1.613-1.1 2.199-2.373 4.271-4.77 8.334-7.122 12.619-.187.34-.461.652-.621 1.004-.179.391-.27.779-.479 1.147-1.588 2.809-3.16 5.619-4.779 8.365-1.64 2.781-3.051 5.666-4.828 8.318-2.805.123-6.659.143-9.56.143-8.753 0-17.31 0-26.194 0-.889 0-1.663.119-2.438 0-1.003-1.273-1.74-2.721-2.581-4.111-.833-1.375-1.617-2.805-2.438-4.205-4.491-7.66-9.077-15.318-13.575-23.088-.32-.555-1.125-1.67-1.146-2.15-.024-.531.826-1.625 1.146-2.199 2.759-4.953 5.637-9.771 8.413-14.723 1.597-2.848 3.195-5.672 4.779-8.461.797-1.4 1.55-2.856 2.391-4.205.853-1.371 1.54-2.809 2.485-4.111 12.806-.163 25.767-.144 38.432-.097zm-9.225 45.457c-1.448 1.172-2.825 1.891-4.541 2.533-1.733.65-3.698 1.143-6.023.957-4.507-.359-7.369-1.969-9.751-4.398-2.458-2.506-4.202-5.617-4.589-9.559-.438-4.471 1.043-8.109 3.155-10.803 1.038-1.326 2.139-2.51 3.585-3.49 2.044-1.387 4.842-2.455 8.078-2.533 3.407-.084 6.104.988 8.269 2.342 1.332.834 2.526 2.123 3.823 3.25 1.269 1.104 2.789 2.227 4.972 2.104 3.715-.209 6.681-4.352 4.637-8.27-.873-1.672-2.521-3.164-4.016-4.492-1.616-1.438-3.289-2.547-5.066-3.49-3.794-2.012-8.519-3.301-14.244-2.963-6.246.367-10.445 2.535-14.196 5.4-5.464 4.174-9.674 10.262-10.564 18.834-.484 4.672.518 9.324 1.96 12.523.519 1.152.935 2.326 1.529 3.395 1.19 2.139 2.629 4.062 4.206 5.639 3.145 3.145 7.32 5.891 12.381 7.219 2.65.695 5.708 1.139 8.795.812 8.828-.932 14.7-5.047 19.025-10.42 2.003-2.49 4.014-5.984 4.732-9.99.248-1.383.437-3.141.048-4.494-.525-1.822-2.242-3.441-4.159-3.775-1.626-.285-3.66-.049-5.497-.049-3.866.002-7.178 0-10.994 0-1.772.002-3.809-.035-4.971.527-1.5.725-2.775 2.395-3.06 4.062-.558 3.285 1.578 5.738 3.968 6.596 1.691.607 4.636.383 6.787.383 1.083 0 2.231-.15 3.347.143-.152 1.06-1.099 1.324-1.626 2.007z" fill-rule="evenodd"/></svg>