<svg enable-background="new 0 0 81.824 40.896" viewBox="0 0 81.824 40.896" xmlns="http://www.w3.org/2000/svg"><g clip-rule="evenodd" fill-rule="evenodd"><path d="m40.775.175c-.038.626-.521 1.012-.798 1.496-.162.282-.235.614-.399.898-.539.932-1.241 1.809-1.846 2.743-2.929 4.524-6.218 9.047-9.228 13.567-.923 1.386-1.821 2.72-2.743 4.14-.26.4-.5.956-.998 1.147-.199-7.772-.1-15.279-.1-22.994 0-.438-.107-.97.249-1.147 4.918-.043 11.022-.052 15.863.15z"/><path d="m16.335.125c-.013.473-.351.876-.599 1.247-3.749 5.615-7.644 11.358-11.472 16.958-.985 1.517-1.966 3.049-2.993 4.589-.313.468-.581 1.112-1.147 1.347-.165-7.777-.166-16.262 0-24.091 5.326-.156 10.917-.25 16.211-.05z"/><path d="m81.774.175c-.146.8-.716 1.438-1.098 2.145-.383.71-.781 1.401-1.197 2.095-.821 1.371-1.604 2.801-2.594 3.99-8.891-.059-18.443.127-27.383-.1-.167-2.481-.165-5.649 0-8.13 10.647-.212 21.299-.15 32.272 0z"/><path d="m81.774 16.236c-.026.726-.615 1.213-.948 1.795-.32.56-.558 1.14-.898 1.696-.966 1.581-1.88 3.302-2.993 4.789-2.315.177-4.602-.085-6.883 0-5.513.207-11.137 0-17.258 0-1.117 0-2.264.166-3.292-.1-.167-2.497-.165-5.683 0-8.18 10.521-.199 21.519-.157 32.272 0z"/><path d="m16.434 16.585c.274.423.149.988.149 1.446 0 6.99.142 15.068 0 22.694-.703.301-1.597.103-2.393.1-4.433-.016-9.493.198-13.866-.05.075-.612.521-1.105.848-1.596 3.64-5.459 7.32-10.958 11.023-16.509.654-.981 1.331-1.997 1.996-2.993.715-1.073 1.432-2.174 2.194-3.092z"/><path d="m40.874 16.635c.28.402.141.949.15 1.396.139 7.015.081 15.429-.05 22.744-3.851.196-8.12.05-12.22.05-1.322 0-2.646.099-3.841-.149.423-1.05 1.122-1.961 1.746-2.893.617-.921 1.281-1.822 1.895-2.743 3.675-5.512 7.399-11.026 11.123-16.56.28-.717.63-1.365 1.147-1.845z"/><path d="m81.824 32.745c-.128.691-.692 1.158-.998 1.746-.146.281-.197.619-.349.898-.518.949-1.18 1.824-1.746 2.743-.567.921-1.059 1.915-1.796 2.693-8.963.05-18.446.149-27.383-.05-.323-1.214-.077-2.639-.1-4.04-.023-1.379-.203-2.839.1-4.04 6.535-.201 13.305-.1 20.101-.1 4.171 0 8.278-.117 12.171.15z"/></g></svg>