<svg enable-background="new 0 0 71.035 70.703" viewBox="0 0 71.035 70.703" xmlns="http://www.w3.org/2000/svg"><path clip-rule="evenodd" d="m70.847.341c.28 1.409.097 2.844.146 4.292.048 1.399.04 2.871 0 4.292-.077 2.818.126 5.674 0 8.534-.256 5.83-.05 11.857-.049 17.897.002 11.92.063 23.709-.145 35.308-11.324.127-23.511-.099-35.308-.098-11.935 0-23.86-.057-35.405-.244-.157-17.625-.049-35.076-.049-52.961 0-5.215.049-10.229.049-15.41 0-.628-.173-1.393.244-1.951 22.818.079 47.722.074 70.517.341zm-35.016 4.097c-8.956-.001-17.896.043-26.919-.098-1.279-.02-3.117-.226-3.999 0-.521.134-.341 1.703-.341 2.634 0 6.827-.062 14.116.049 20.238.437.044.678-.434.927-.683.866-.866 1.705-1.746 2.487-2.634 1.12-1.155 2.199-2.351 3.316-3.511 1.655-1.77 3.356-3.524 4.974-5.267.54-.581 1.036-1.268 1.756-1.658 1.483-.112 3.254 0 4.926 0 5.033-.001 9.896-.115 14.63.049 6.662.231 13.31-.215 19.849.194.128 1.241.223 3.23-.049 4.39-4.309.142-8.8-.001-13.216 0-3.352.001-6.772-.177-9.803-.049-1.062.045-2.116-.117-3.121.146-.161 1.163-.161 2.982 0 4.145 8.287.36 17.803-.017 26.188.342.116 1.161.258 3.138-.098 4.146-6.408-.128-13.167.263-19.702-.049-.907-.043-1.864-.079-2.73.146-.209 2.142-.181 4.423-.147 6.632s-.105 4.475.147 6.584c5.788.164 11.762.241 17.849.049.222-1.955.146-4.462.146-6.682 0-.771-.114-1.554.146-2.194 1.312-.024 3.188-.198 4.341.098.181 7.56.097 15.385.097 22.921.001 1.135.118 2.254-.146 3.17-1.325.055-3.094.137-4.341-.049-.297-2.733.041-5.848-.243-8.534-1.055-.213-2.786-.217-3.901-.049-.263 1.241-.146 2.792-.146 4.291 0 1.5.115 3.049-.147 4.292-1.331.027-3.216.193-4.389-.098-.274-2.604.083-5.838-.195-8.437-1.121-.245-2.932-.238-3.95-.049-.382 2.544.063 5.915-.244 8.534-1.25.149-3.097.082-4.389-.049-.309-2.721.116-5.959-.244-8.534-1.092-.152-2.812-.168-3.901 0-.258 1.884-.147 4.363-.147 6.437 0 .734.109 1.484-.146 2.098-1.221.136-3.197.216-4.34-.049-.343-2.555.057-5.837-.244-8.485-1.133-.146-2.795-.245-3.95-.049-.251 1.892-.146 4.359-.146 6.437 0 .73.112 1.488-.146 2.098-1.218.195-2.946.096-4.146-.049-.257-1.004-.146-2.067-.146-3.121 0-6.631.001-13.398 0-19.702 0-1.063.108-2.155-.146-3.17-1.001-.262-2.133-.146-3.218-.146-3.35 0-6.714-.136-9.9.049-.162 11.424-.162 23.495 0 34.869.56.196 1.186.098 1.756.098 1.911-.001 3.839.049 5.804.049 17.944-.001 36.398.319 54.083.146.321-1.209.074-2.468.098-3.706.067-3.693.049-7.636.048-11.558-.001-5.155.001-10.356 0-15.557-.001-9.132.165-18.247.049-27.164-.016-1.232.126-2.494-.146-3.706-9.639-.122-20.173-.194-30.484-.196zm-13.313 13.704c-.267 1.076-.182 2.989-.049 4.145 1.017.264 2.856.186 3.95.049.258-1.09.188-2.978.049-4.145-1.036-.281-2.543-.091-3.804-.146-.057.022-.11.051-.146.097z" fill-rule="evenodd"/></svg>