<svg enable-background="new 0 0 42.506 83.794" viewBox="0 0 42.506 83.794" xmlns="http://www.w3.org/2000/svg"><path clip-rule="evenodd" d="m41.885.117c.177 13.971.188 27.506 0 41.422-1.095.281-2.323.156-3.534.156-3.548 0-7.489-.085-10.914.104.441.485 1.109.603 1.663.832 3.996 1.652 7.127 4.201 9.511 7.588 2.603 3.697 4.633 9.123 3.639 15.488-.844 5.402-3.476 9.607-6.86 12.681-3.196 2.903-8.121 5.373-14.137 5.405-6.168.033-10.842-2.366-14.188-5.405-3.424-3.108-5.955-7.255-6.81-12.733-.99-6.343 1.047-11.626 3.639-15.384 1.986-2.882 4.511-5.312 7.743-6.912 1.076-.533 2.244-.892 3.379-1.507-2.278-.28-4.856-.156-7.329-.156-1.203 0-2.423 0-3.586.052-1.198.054-2.403-.016-3.481-.208-.178-5.041-.053-10.133-.052-15.488 0-8.23-.001-16.362 0-24.895 0-.34-.126-.831.207-1.091 13.003-.018 27.586-.166 41.11.051zm-32.379 8.472c-.254.364.212.679.416.883.766.766 1.604 1.54 2.339 2.235 2.057 1.997 4.128 3.979 6.133 6.029.591.421.972.933 1.559 1.507.348.34 1.183 1.394 1.716 1.351.459-.036 1.191-1.07 1.507-1.403 1.435-1.513 3.033-3.079 4.262-4.469 1.692-1.695 3.395-3.488 4.989-5.197.236-.253.681-.447.624-.883-7.689-.214-15.811-.062-23.545-.053zm10.343 22.92c-.493-.503-.953-1.062-1.507-1.455-2.978-2.998-5.993-5.961-9.096-8.835-.034 0-.069 0-.104 0-.075.029-.127.081-.156.156-.048 3.846-.151 7.877.052 11.642.889.273 1.911.156 2.91.156 3.061-.001 6.364.084 9.2-.104-.147-.658-.825-1.075-1.299-1.56zm13.304-9.667c-.062.025-.117.055-.155.104-1.902 1.754-3.684 3.627-5.51 5.457-.912.924-1.841 1.831-2.807 2.703-.793 1.043-1.944 1.728-2.598 2.91 1.278.244 2.732.096 4.157.104 2.343.013 4.867.063 7.068-.052.271-.445.103-.936.104-1.455.006-2.638.128-5.987 0-8.68-.016-.345.172-.87-.208-1.091-.015 0-.033 0-.051 0zm-1.039 34.51c-1.714-3.143-5.292-6.099-9.667-6.393-4.098-.275-6.465.871-8.68 2.443-3.076 2.183-5.872 6.467-5.041 11.901.369 2.411 1.318 4.315 2.599 5.977 2.298 2.982 6.752 5.62 12.162 4.574 3.5-.678 6.023-2.646 7.795-5.042.606-.817 1.24-1.705 1.456-2.858-.916-.275-1.979-.156-3.015-.156-2.143 0-4.263.052-6.289.052-1.038 0-2.094.119-3.015-.156-.045-2.88-.175-5.834.053-8.472 4.088-.28 8.234.042 12.213-.26.049-.59-.306-1.125-.571-1.61z" fill-rule="evenodd"/></svg>