<svg enable-background="new 0 0 77.52 27.16" viewBox="0 0 77.52 27.16" xmlns="http://www.w3.org/2000/svg"><g clip-rule="evenodd" fill-rule="evenodd"><path d="m77.52.143c-.128.901-.651 1.7-1.024 2.537s-.737 1.701-1.122 2.537c-.773 1.679-1.355 3.449-2.342 4.928-6.859.25-14.374-.064-21.172.194-.607.466-.81 1.337-1.073 2.147.602.368 1.541.195 2.439.195 6.102 0 12.54-.07 18.636.098-.091.721-.462 1.334-.732 1.951-.266.608-.453 1.299-.927 1.756-4.704.187-9.455-.081-14.147.049-3.493.098-7.01.049-10.342.049-1.124 0-2.283.119-3.366-.146.057-.764.517-1.405.78-2.099.796-2.088 1.794-4.107 2.732-6.146.937-2.037 1.813-4.084 2.731-6.146.288-.646.459-1.413 1.025-1.903 8.263-.088 16.117-.097 24.294-.097 1.228-.002 2.5-.152 3.61.096zm-11.952 3.708c-3.562-.011-7.251-.036-10.879.049-.535.588-.983 1.519-1.073 2.391.774.265 1.661.147 2.537.147 3.906 0 8.017.075 11.806-.098.438-.671.909-1.559 1.025-2.391-1.085-.322-2.257-.094-3.416-.098z"/><path d="m46.542.29c-.403 1.444-1.137 2.755-1.707 4.145-1.119 2.729-2.363 5.426-3.61 8.099-.617 1.321-1.059 2.735-1.854 3.951-.917.141-2.086.05-3.219.049-1.128 0-2.291.116-3.171-.146.248-1.123.848-2.107 1.269-3.123.859-2.07 1.752-4.05 2.683-6.098.448-.985 1.01-1.971 1.268-3.073-.574-.229-1.288-.191-2-.195-1.409-.008-2.866 0-4.391 0-.61 0-1.635-.145-2.049 0-.367.128-.644.94-.878 1.464-1.218 2.721-2.382 5.278-3.513 8-.46 1.11-.941 2.19-1.512 3.074-2.003.05-4.468.142-6.391-.049.195-1.113.765-2.105 1.22-3.123.453-1.013.856-2.061 1.317-3.073.915-2.01 1.915-4.003 2.634-6.146-.56-.335-1.334-.195-2.049-.195-1.479 0-2.872.067-4.293.049-.565-.007-1.605-.191-2.098 0-.385.148-.584.902-.83 1.464-.695 1.591-1.471 3.249-2.146 4.731-1.002 2.203-1.812 4.491-2.829 6.294-1.024.134-2.183.098-3.317.097-1.113 0-2.264.094-3.171-.146.079-.744.492-1.415.78-2.099 1.711-4.06 3.596-8.152 5.415-12.293.302-.688.574-1.82 1.268-1.902.685-.081 1.499.049 2.244.049 9.881-.001 20.172.05 30.344.048 1.546 0 3.087-.116 4.586.147z"/><path d="m5.71 21.024c-.74-.371-1.854-.157-2.878-.196-1.017-.038-2.053.04-2.83-.194-.023-.512.204-.771.439-1.024 1.655-.103 2.932.112 4.537.049.439-.018.982.047 1.366-.049.625-.156 1.247-1.013 1.708-1.317.915-.607 2.728-1.377 4.146-.635 1.163.609 1.612 2.347 1.269 4.195-.378 2.034-2.114 3.999-4.195 4.537-2.443.633-4.022-.7-3.854-3.512.039-.684.232-1.024.292-1.854z"/><path d="m22.296 19.803c5.062.239 10.548.055 15.513.391.08.396-.203.744-.39 1.024-4.954.097-10.059-.184-15.074-.098-.373.604-.34 1.304-.585 1.903-.85 2.071-2.698 3.652-5.805 3.561-.82-.212-1.529-.928-1.805-1.658-.776-2.054.188-4.802 1.61-6.05.938-.822 2.299-1.456 3.415-1.512.591-.03 1.183.106 1.561.292.838.414 1.141 1.281 1.56 2.147z"/><path d="m50.591 17.949c1.15-.088 2.176.312 2.634 1.122.621 1.1.572 2.697.195 3.952-.618 2.053-2.409 3.635-4.342 4.049-2.026.434-3.521-.776-3.707-2.684-.205-2.094.801-4.101 1.951-5.073.746-.63 1.727-1.248 3.269-1.366z"/></g></svg>