<svg enable-background="new 0 0 98.669 98.823" viewBox="0 0 98.669 98.823" xmlns="http://www.w3.org/2000/svg"><path clip-rule="evenodd" d="m77.094 77.753c-5.205 4.978-11.245 10.174-19.302 12.708-8.291 2.608-19.117 3.009-27.693.12-7.923-2.669-14.088-6.946-19.302-12.828-4.887-5.512-9.028-13.359-10.311-21.819-1.681-11.081 1.188-20.961 5.635-28.653 4.396-7.603 10.952-13.334 18.702-17.023 8.125-3.868 19.759-5.602 29.972-2.877 9.318 2.485 16.365 7.469 22.06 13.667 3.351-4.577 7.511-10.101 11.029-15.226 1.495-2.178 2.564-5.312 5.395-5.755 3.459-.541 5.968 2.296 5.275 5.515-.481 2.241-2.48 4.15-3.836 6.114-3.422 4.957-6.709 9.533-10.19 14.626-.582.851-1.848 2.098-1.919 2.997-.063.801.932 1.956 1.319 2.878 3.271 7.789 4.477 19.641 1.798 29.013-.315 1.105-.841 2.711-1.438 4.195-.491 1.221-1.708 3.022-1.679 3.957.021.669 1.392 2.239 1.919 2.997 3.455 4.971 6.647 9.703 10.07 14.506 1.312 1.84 3.272 4.093 3.836 5.875 1.1 3.47-2.202 7.229-5.994 5.754-1.957-.761-3.147-3.477-4.196-4.915-4.143-5.688-6.997-10.166-11.15-15.826zm-35.366-62.701c-13.234.778-22.318 8.059-27.694 16.904-2.966 4.881-4.795 10.462-4.795 17.264 0 6.775 1.997 12.55 4.795 17.384 5.226 9.025 14.543 16.114 27.095 16.904 12.42.781 21.732-4.456 27.694-10.67.515-.537 2.491-2.245 2.518-3.117.021-.735-1.486-2.377-2.038-3.117-2.363-3.168-4.209-6.286-6.714-8.872-4.391 5.825-9.238 11.396-18.583 11.51-10.153.122-19.249-7.394-20.261-17.264-.848-8.279 2.587-14.164 7.073-17.863 3.277-2.702 7.671-4.689 13.187-4.676 9.574.024 14.171 5.901 18.583 11.749 3.159-3.834 6-7.986 8.752-12.229-6.581-7.815-15.305-14.747-29.612-13.907zm34.647 23.378c-3.053 3.342-5.453 7.336-8.032 11.15 2.697 3.575 4.885 7.662 8.032 10.789 2.635-5.675 2.431-16.208 0-21.939zm-32.85.12c-4.514.05-8.043 2.928-9.471 5.515-4.661 8.447 2.621 18.032 13.188 15.705 1.411-.311 2.994-1.487 3.956-2.398 2.3-2.174 3.798-5.403 5.755-8.032-3.742-4.336-5.541-10.877-13.428-10.79z" fill-rule="evenodd"/></svg>