<svg clip-rule="evenodd" fill-rule="evenodd" stroke-linejoin="round" stroke-miterlimit="2" viewBox="0 0 560 400" xmlns="http://www.w3.org/2000/svg"><path d="m503.2 248.3-237.9-248.3-237.8 248.3c-37.2 38.9-36.6 100.3 1.5 138.4l236.3 236.3 236.4-236.4c38-38 38.7-99.4 1.5-138.3zm-240.1 160.4-38-93.1v129.7h-30.1v-133.8h-4.4v133.9h-30.2v-133.9h-4.4v133.9h-30.2v-133.9h-4.4v133.9h-30v-259.1h129l42.7 125.2zm176.2-97.2v133.9h-30.2v-133.9h-4.4v133.9h-30.2v-133.9h-4.4v133.9h-30.2v-133.9h-4.4v133.9h-30.2v-129.7l-38 93.1v-97.2l42.7-125.2h129v125.1z" fill-rule="nonzero" transform="matrix(.433387 0 0 .433387 165.009 65)"/></svg>