<svg enable-background="new 0 0 9.567 9.567" viewBox="0 0 9.567 9.567" xmlns="http://www.w3.org/2000/svg"><g fill="#2e2a25"><path d="m8.508 5.982-1.07-1.248v-.934c0-.769-.625-1.394-1.394-1.394-.558 0-1.039.331-1.262.806-.22-.475-.702-.806-1.26-.806-.474 0-.892.238-1.145.601-.024-.13-.081-.251-.172-.352-.131-.147-.312-.235-.509-.247-.409-.023-.761.288-.785.69-.01.171.04.341.147.486l1.07 1.247.002 1.548c-.001.014.001.026.001.04 0 .004-.002.008-.002.013 0 .256-.209.465-.465.465-.073 0-.133.059-.133.132s.06.132.133.132c.249 0 .469-.126.601-.317.125.178.326.3.56.315.016.001.03.001.046.001.391 0 .716-.304.739-.691.01-.171-.04-.341-.147-.486l-1.07-1.248v-.932s0-.001 0-.003c0-.622.507-1.129 1.13-1.129.622 0 1.129.507 1.129 1.129v2.761c0 .073.06.132.132.132.073 0 .133-.059.133-.132v-2.761c0-.622.506-1.129 1.129-1.129s1.128.507 1.128 1.129l.001.626-.869-1.013c-.048-.056-.131-.061-.187-.015-.055.048-.061.132-.014.187l1.069 1.247v1.547c0 .014.003.029.003.044 0 .003-.001.006-.001.009 0 .256-.209.465-.465.465-.073 0-.133.059-.133.132s.06.132.133.132c.249 0 .469-.126.6-.316.126.178.326.301.562.316.014-.001.028-.001.043-.001.39 0 .717-.302.74-.691.01-.171-.04-.341-.148-.487zm-7.242-2.561c-.064-.088-.097-.197-.09-.307.014-.248.223-.443.474-.443.01 0 .02.001.029.001.129.008.245.064.33.159.085.094.127.215.119.349l.001 1.246zm1.99 2.726c.064.088.097.197.09.307-.015.257-.244.455-.504.442-.263-.017-.464-.24-.448-.509l-.001-1.246zm4.632.749c-.263-.017-.464-.24-.448-.509l-.002-1.246.863 1.006c.064.088.097.197.091.307-.015.258-.244.456-.504.442z"/><path d="m4.784 0c-2.639 0-4.784 2.145-4.784 4.784 0 2.637 2.145 4.783 4.783 4.783s4.784-2.147 4.784-4.783c0-2.639-2.146-4.784-4.783-4.784zm0 9.303c-2.492 0-4.52-2.027-4.52-4.518 0-2.492 2.027-4.52 4.519-4.52s4.52 2.027 4.52 4.52c0 2.49-2.028 4.518-4.519 4.518z"/></g></svg>