<svg enable-background="new 0 0 159.698 160.636" viewBox="0 0 159.698 160.636" xmlns="http://www.w3.org/2000/svg"><path clip-rule="evenodd" d="m18.13 29.554c.285 12.171-.101 24.139.088 36.447.038 2.465-.033 4.862.132 7.167.324 4.52 1.578 8.092 3.517 11.255 1.867 3.046 4.283 5.58 7.254 7.562 3.033 2.022 6.296 3.543 10.859 3.913 4.685.38 8.918-.671 12.53-1.979 3.658-1.323 6.855-2.965 10.2-4.572 4.977-2.391 10.05-4.781 14.992-7.211 1.661-.816 3.362-1.544 5.013-2.374 3.289-1.654 6.529-3.349 9.804-4.968 3.319-1.642 6.618-3.274 10.112-4.661 1.861-.738 3.604-1.336 5.803-1.582 4.748-.533 8.499 1.133 11.211 3.297 3.891 3.104 7.598 7.953 6.551 15.256-.608 4.251-2.572 7.122-5.188 9.585-2.402 2.013-5.398 3.674-9.496 3.956-2.098.145-4.328-.043-6.596-.043-28.735 0-57.903.228-86.391.132-.001.043-.054.034-.088.044-.278 1.132-.132 2.33-.132 3.517 0 8.382-.154 17.363.088 25.544-.013.102.127.049.132.132 14.968.074 30.684.043 45.9.044 6.151.001 12.144-.044 18.113-.044 3.028 0 6.049-.088 9.058-.088 6.109 0 12.311.088 18.069.088 5.893 0 11.153-.82 15.784-2.55 8.963-3.351 15.934-8.612 20.971-15.696 3.859-5.101 6.713-11.155 8.134-18.685.732-3.88.96-8.27.659-12.398-.604-8.289-3.359-14.391-6.77-20.004-1.689-2.776-3.515-5.449-5.716-7.65-1.142-1.142-2.256-2.255-3.473-3.253-3.65-2.993-7.885-5.459-12.662-7.386-3.17-1.278-6.604-2.373-10.552-2.857-4.093-.502-8.61-.442-12.486.308-7.508 1.453-13.417 4.406-19.521 7.254-6.092 2.843-12.047 5.837-18.07 8.705-4.526 2.155-9.037 4.297-13.629 6.463-1.514.714-2.945 1.595-4.529 2.154-.071.012-.076-.042-.132-.044-.22-13.96.035-28.503-.044-42.91-.019-3.492-.005-6.906-.044-10.596-.014-1.296-.008-2.739.088-3.913.036-.214.244-.255.396-.352 7.838-3.283 16.215-5.679 26.598-6.375 6.918-.464 14.543-.045 20.532 1.143 2.389.474 4.726 1.027 6.946 1.671 2.201.637 4.404 1.33 6.375 2.198 4.07 1.793 7.939 3.517 11.52 5.671 3.605 2.17 7.038 4.427 10.156 7.035 11.124 8.94 19.547 20.578 24.884 35.304 1.321 3.647 2.431 7.592 3.21 11.826.781 4.248 1.406 8.819 1.406 13.629 0 4.98-.303 9.714-.967 14.069-1.634 10.707-5.33 19.838-9.805 27.83-.889 1.588-1.961 3.05-2.945 4.572-.254.394-.44.808-.703 1.187-7.869 11.349-18.491 20.594-31.567 26.687-3.448 1.606-7.036 2.993-10.903 4.133-7.42 2.187-17.021 3.85-26.6 3.429-9.45-.415-17.571-2.501-24.884-5.188-7.4-2.72-13.552-6.433-19.3-10.772-8.523-6.434-15.689-14.387-21.235-23.873-3.704-6.334-6.628-13.3-8.661-21.455-.497-1.994-.826-4.122-1.186-6.33-1.216-7.447-1.258-16.796-.088-24.489.17-1.118.246-2.223.439-3.297 1.139-6.317 3.014-11.959 5.32-17.234 2.87-6.566 6.432-12.327 10.596-17.63.198-.253.522-.871.923-.748z" fill-rule="evenodd"/></svg>