<svg enable-background="new 0 0 23.788 23.691" viewBox="0 0 23.788 23.691" xmlns="http://www.w3.org/2000/svg"><g fill="#010101"><path d="m0 14.754v8.937h2.165l8.971-8.937z"/><path d="m22.563 9.881h-8.906l9.761 9.725c.24-.659.37-1.369.37-2.108 0-2.519-1.508-4.685-3.674-5.653.976-.436 1.817-1.118 2.449-1.964"/><path d="m20.008.495-8.377 8.345h11.562c.382-.801.595-1.699.595-2.647 0-2.558-1.557-4.754-3.78-5.698"/><path d="m0 13.714h9.11l-9.11-9.077z"/><path d="m9.459 9.533 9.428-9.392c-.425-.091-.865-.141-1.316-.141h-8.112z"/><path d="m14.352 12.044v11.647h3.219c2.297 0 4.299-1.239 5.376-3.084z"/><path d="m3.642 23.691h9.665v-9.628z"/><path d="m8.416 11.552v-11.552h-8.416v3.167z"/></g></svg>