<svg enable-background="new 0 0 89.124 47.993" viewBox="0 0 89.124 47.993" xmlns="http://www.w3.org/2000/svg"><g clip-rule="evenodd" fill-rule="evenodd"><path d="m46.168 29.8c-.696-.254-1.124-.916-1.611-1.403-3.487-3.487-6.894-7.102-10.447-10.654-1.943-1.943-3.962-4.127-6.86-5.197-3.174-1.172-7.206-.543-9.719 1.04-2.528 1.591-4.288 3.62-5.302 6.756-1.139 3.524-.198 7.274 1.352 9.667 1.619 2.5 3.782 4.22 6.964 5.093 3.147.863 6.408.04 8.627-1.196.323-.18.742-.474.987-.467.625.017 1.797 1.589 2.183 1.975.76.76 1.438 1.439 2.079 2.079 1.449 1.449 2.84 2.678 4.054 4.209-.868.96-2 1.64-3.119 2.287-3.39 1.963-7.381 3.382-12.733 3.326-6.609-.069-11.505-2.993-15.124-6.289-3.686-3.356-6.431-8.14-7.276-14.189-.968-6.92 1.33-12.893 4.158-16.839 4.118-5.596 9.772-9.551 18.814-9.978 4.299-.203 8.083 1.174 11.019 2.65 3.116 1.567 5.434 3.541 7.536 6.081 2.011 2.429 3.706 5.51 4.574 9.043.866 3.524 1.132 8.286-.156 12.006z"/><path d="m88.942 1.475c.277.88.156 1.853.156 2.755.001 13.927.078 29.117-.104 42.669-.806.251-1.794.156-2.755.156-.98 0-1.966 0-2.962 0-2.011 0-4.015.107-5.665-.156-.279-1.417.083-3.472-.207-4.989-1.404-.182-3.062-.156-4.834-.156-4.923 0-10.229.171-15.176-.052.048-.629.685-1.021 1.092-1.455.433-.461.897-.908 1.299-1.351 2.646-2.621 5.058-5.475 7.848-7.952 3.275-.069 6.549.097 9.615-.104.279-.881.156-1.91.156-2.91 0-2.891.084-6.17-.104-8.939-.848.304-1.342 1.11-1.923 1.715-1.746 1.817-3.655 3.573-5.405 5.457-2.313 2.49-4.764 4.92-7.172 7.328-2.417 2.417-4.755 4.911-7.172 7.328-1.827 1.827-3.513 3.721-5.353 5.561-.29.29-.646.571-.936.884-.256.276-.455.766-.935.728-.237-4.947-.102-10.04-.052-15.176.471-.793 1.164-1.423 1.819-2.079.65-.649 1.273-1.326 1.923-1.975 1.288-1.287 2.49-2.645 3.794-3.95 1.266-1.266 2.566-2.566 3.898-3.898 5.796-5.796 11.373-11.732 17.307-17.618.63-.625 1.444-1.814 2.183-1.923 1.512-.223 3.276 0 4.886 0 1.681-.001 3.309-.086 4.779.102z"/><path d="m30.369 16.027c.623.277 1.597 1.337 2.235 1.975 4.837 4.837 9.791 9.758 14.448 14.656-.046 5.024.123 10.268-.104 15.332-.545.024-.827-.516-1.143-.831-3.752-3.752-7.693-7.537-11.486-11.33-1.386-1.387-2.872-2.655-4.106-4.158.027-5.171-.059-10.55.052-15.488-.002-.089.039-.134.104-.156z"/></g></svg>