<svg enable-background="new 0 0 86.755 76.521" viewBox="0 0 86.755 76.521" xmlns="http://www.w3.org/2000/svg"><path clip-rule="evenodd" d="m86.245.161c.424 9.26.029 18.685.254 28.056.038 1.558.051 3.131.051 4.676 0 1.535.117 3.061-.102 4.523-11.33.246-22.919.254-34.816.254-2.732 0-5.809.078-8.641 0-1.282-.035-2.63.218-2.389-.915.13-.612.683-.602 1.372-.61.708-.007 1.446.086 1.474-.458.041-.783-2.358-.602-2.948-.406-1.584.524-1.553 2.945.203 3.354.739.172 1.811 0 2.795 0 14.158 0 29.248-.157 43 0 .146 6.154.152 12.572.153 18.907 0 4.752.05 9.532.05 14.181 0 1.501.169 2.99-.102 4.422-4.983.187-10.358.226-15.35.051-.203-4.162-.152-8.541-.152-13.012 0-1.253-.343-3.629.711-3.66.644-.018.78.535.813 1.271.025.553-.185 1.58.355 1.677.915.165.734-2.278.458-2.999-.525-1.367-2.701-1.586-3.253 0-.326.936-.051 2.94-.051 4.167v8.488c0 1.407.125 2.807-.102 4.066-3.493.214-7.355.152-11.182.152-1.212 0-2.446.191-3.558-.102-.274-1.273-.153-2.79-.152-4.219 0-2.794-.051-5.678-.051-8.59 0-1.262-.343-3.735.661-3.812.761-.058.819.481.864 1.271.031.542-.098 1.593.458 1.626.816.049.589-2.351.356-2.999-.502-1.391-2.727-1.554-3.253 0-.313.924-.051 3-.051 4.219 0 2.717-.021 5.713 0 8.538.011 1.377.192 2.738-.102 4.016-8.738.14-17.675.152-26.633.152-8.968.001-18.02.21-26.938-.102-.294-1.537-.129-3.122-.152-4.676-.164-10.75-.153-21.952-.153-33.191 0-12.597-.239-25.395-.101-37.968 1.709-.279 3.464-.102 5.185-.102 8.856 0 17.785-.152 26.633-.152 14.103 0 28.385-.152 42.44-.152 3.554 0 7.123.112 10.623-.051.383-.011.999-.164 1.323.109z" fill-rule="evenodd"/></svg>