<svg clip-rule="evenodd" fill-rule="evenodd" stroke-linejoin="round" stroke-miterlimit="2" viewBox="0 0 560 400" xmlns="http://www.w3.org/2000/svg"><path d="m320.997-.003c177.289 0 321 143.719 321 321 0 177.289-143.711 321-321 321-177.281 0-321-143.711-321-321 0-177.281 143.719-321 321-321zm54.487 47.098-54.487 134.267-54.48-134.267 1.047 144.899-101.719-103.202 56.42 133.472-133.473-56.419 103.202 101.719-144.9-1.047 134.268 54.48-134.267 54.487 144.899-1.046-103.202 101.718 133.472-56.419-56.419 133.465 101.719-103.195-1.047 144.9 54.48-134.275 54.487 134.275-1.046-144.9 101.718 103.195-56.419-133.465 133.465 56.419-103.195-101.718 144.9 1.046-134.275-54.487 134.275-54.48-144.9 1.047 103.195-101.719-133.465 56.42 56.419-133.473-101.718 103.202 1.046-144.9zm-54.484 134.784 53.222 10.593 45.132 30.174 30.174 45.132 10.593 53.222-10.593 53.222-30.174 45.132-45.132 30.174-53.222 10.593-53.222-10.593-45.132-30.174-30.174-45.132-10.593-53.222 10.593-53.222 30.174-45.132 45.132-30.174zm0 8.281-12.776 66.704-37.3-56.688 13.739 66.447-56.175-38.135 38.135 56.175-66.447-13.739 56.688 37.3-66.704 12.776 66.704 12.776-56.688 37.3 66.447-13.739-38.135 56.175 56.175-38.135-13.739 66.447 37.3-56.688 12.776 66.704 12.776-66.704 37.3 56.688-13.739-66.447 56.175 38.135-38.135-56.175 66.447 13.739-56.688-37.3 66.704-12.776-66.704-12.776 56.688-37.3-66.447 13.739 38.135-56.175-56.175 38.135 13.739-66.447-37.3 56.688zm-12.449 68.244 24.89.006 23.01 9.534 17.616 17.61 9.527 22.996v24.89l-9.54 23.01-17.603 17.616-22.997 9.528h-24.897l-23.009-9.54-17.616-17.604-9.528-22.996.007-24.897 9.533-23.01 17.604-17.61zm23.722 5.925-11.274 27.78-11.273-27.78.218 29.982-21.045-21.353 11.672 27.612-27.613-11.671 21.353 21.044-29.981-.218 27.78 11.275-27.78 11.273 29.981-.218-21.353 21.045 27.613-11.672-11.672 27.613 21.045-21.347-.218 29.975 11.273-27.78 11.274 27.78-.218-29.975 21.044 21.347-11.671-27.613 27.612 11.672-21.346-21.045 29.975.218-27.78-11.273 27.78-11.274-29.975.218 21.346-21.044-27.612 11.671 11.671-27.612-21.044 21.353.218-29.982z" fill-rule="nonzero" transform="matrix(.46729 0 0 .46729 130.001 50.0014)"/></svg>