<svg enable-background="new 0 0 82.262 80.674" viewBox="0 0 82.262 80.674" xmlns="http://www.w3.org/2000/svg"><g clip-rule="evenodd" fill-rule="evenodd"><path d="m24.404 40.332c-.236 10.637-.018 22.088-.153 32.779-.019 1.534.245 3.056-.102 4.53-1.125-.131-2.018-.876-2.952-1.375-6.698-3.573-11.713-8.766-15.676-15.166-2.153-3.479-4.037-7.914-4.886-12.726-.927-5.25-.836-10.864.254-15.931 1.031-4.791 2.688-8.974 4.988-12.674 2.263-3.641 4.873-6.96 8.042-9.569.843-.693 1.582-1.417 2.392-2.036 4.893-3.738 11.148-6.541 18.68-7.736 6.935-1.101 14.173.056 19.851 1.934 4.532 1.5 8.354 3.759 11.656 6.362 6.701 5.283 12.08 12.189 14.506 21.53 1.278 4.919 1.613 11.039.865 16.236-.74 5.152-2.545 9.599-4.58 13.438-3.08 5.807-7.693 10.393-12.979 14.048-1.315.908-2.755 1.761-4.225 2.545-.472.252-.988.681-1.578.56-.507-.446-.407-1.291-.407-1.934 0-9.316.051-19.686.051-29.572 0-.687.025-1.525 0-2.291-.037-1.164.06-1.992-.661-2.442-.75-.469-2.884-.204-4.072-.204-7.031.001-13.933-.001-21.072 0-2.15 0-4.208.012-6.21-.152-.595-.049-1.16-.219-1.732-.154zm2.087-10.026c1.972-1.32 3.855-2.659 5.701-4.072 2.427-1.857 5.062-3.533 7.635-5.344 2.495-1.757 4.989-3.516 7.635-5.345 1.846-1.276 3.695-2.767 5.701-4.021.516-.322 1.773-1.039 1.68-1.578-.054-.312-.879-.602-1.425-.813-5.025-1.939-11.768-2.79-18.12-1.781-2.864.454-5.317 1.231-7.686 2.29-.708.316-2.963 1.16-3.257 1.731-.227.438-.102 1.651-.102 2.443 0 2.383.063 5.351.051 7.584-.014 2.617 0 5.162 0 7.635 0 .808-.115 1.667.153 2.442.768-.205 1.396-.744 2.034-1.171zm40.414 32.168c.407-.357.757-.771 1.068-1.222 5.049-5.987 8.472-14.939 6.923-26.264-.667-4.877-2.605-8.636-4.784-12.267-1.562-2.602-3.565-4.926-5.803-6.974-.618-.566-2.059-1.994-2.749-1.628-1.183.626-2.261 1.545-3.41 2.341-1.145.794-2.232 1.651-3.359 2.443-6.257 4.399-12.553 8.694-18.629 13.132-.523.382-1.294.726-1.476 1.425 1.27.273 2.646.153 4.021.153 7.055-.001 13.9 0 20.665 0 2.915-.001 4.792.683 5.65 2.697.694 1.63.618 4.404.56 6.515-.19 6.874-.023 13.759.102 20.563.598.079.893-.555 1.221-.914zm-50.848-44.689c-2.457 2.753-4.713 5.936-6.312 9.722-1.601 3.793-2.749 8.141-2.748 13.336 0 8.919 3.315 15.737 7.38 20.716.6.733 1.035 1.73 1.985 2.035.38-7.629.005-15.439.153-22.955.138-6.984-.05-14.398-.051-21.632 0-.384.158-.962-.204-1.273-.002-.031-.007-.06-.051-.051-.059.024-.115.055-.152.102z"/><path d="m41.15 42.979h.102c.572 1.176 1.01 2.336 1.578 3.411 1.714 3.246 3.792 5.908 5.955 8.907 1.35 1.871 2.636 3.845 3.716 6.209.992 2.173 1.889 5.117 1.374 8.297-.831 5.131-4.666 9.095-9.416 10.384-6.14 1.665-11.413-1.18-13.896-4.887-1.774-2.209-2.845-5.709-2.239-9.365.543-3.282 2.037-6.069 3.512-8.348 1.541-2.379 3.331-4.586 4.938-6.922 1.64-2.385 3.071-4.862 4.173-7.687.116.071.191-.13.203.001z"/></g></svg>