<svg enable-background="new 0 0 19.194 13.252" viewBox="0 0 19.194 13.252" xmlns="http://www.w3.org/2000/svg"><path d="m1.158 2.929c1.173-1.739 3.206-2.856 5.302-2.924 3.058-.008 6.118.001 9.176-.005 1.178 2.213 2.379 4.413 3.558 6.626-1.036 1.887-2.088 3.765-3.125 5.651-.189.318-.348.655-.549.966-2.926.019-5.855.002-8.783.009-1.673.004-3.341-.637-4.57-1.773-.239-.168-.4-.416-.602-.622-.849-1.002-1.39-2.262-1.52-3.569-.009-.33-.08-.658-.023-.986.057-1.2.452-2.384 1.136-3.373zm7.591-2.638c1.086.344 2.1.941 2.883 1.773.989 1.012 1.635 2.356 1.801 3.762.003.113.022.224.045.334-1.409-.01-2.819-.004-4.228-.003-.174-1.093-1.175-1.97-2.274-2.035-.755-.076-1.551.206-2.064.77-.425.397-.661.97-.718 1.542-.051.726.228 1.477.766 1.973.333.351.79.568 1.257.675.248.073.508.034.762.042 1.117-.079 2.124-.981 2.29-2.095 1.405-.013 2.811 0 4.216-.006-.022.117-.043.235-.048.355-.151 1.414-.799 2.762-1.781 3.786-.788.821-1.786 1.447-2.878 1.775 2.19.009 4.38 0 6.569.004 1.161-2.111 2.334-4.216 3.5-6.324-1.14-2.101-2.268-4.207-3.398-6.313-1.3.003-2.601 0-3.901.001-.932-.009-1.866.019-2.799-.016zm-6.459 1.792c-1.162 1.08-1.882 2.625-1.963 4.21 0 .238.001.476 0 .714.088 1.368.638 2.702 1.544 3.732.196.197.388.398.59.591 1.321 1.177 3.144 1.768 4.904 1.588 1.334-.124 2.619-.687 3.628-1.565.288-.293.602-.564.848-.895.715-.897 1.159-1.996 1.299-3.131-1.203.007-2.406.008-3.608 0-.214.757-.733 1.425-1.439 1.782-.372.203-.791.3-1.21.335-.872.036-1.77-.332-2.324-1.014-.797-.881-.893-2.296-.247-3.289.532-.868 1.556-1.38 2.567-1.342.469.042.937.157 1.343.402.602.353 1.072.936 1.267 1.609.012.086.114.053.172.06 1.156-.002 2.312-.004 3.468.001-.159-1.329-.75-2.611-1.686-3.571-1.107-1.195-2.702-1.904-4.323-1.992-.254 0-.507-.003-.76 0-1.506.093-2.987.716-4.07 1.775z"/></svg>