<svg enable-background="new 0 0 72.352 78.365" viewBox="0 0 72.352 78.365" xmlns="http://www.w3.org/2000/svg"><path clip-rule="evenodd" d="m72.352.211c-.862.968-2.132 1.528-3.152 2.339-1.626 1.137-3.252 2.234-4.881 3.356-1.606 1.106-3.206 2.285-4.982 3.203-.258-.523-.196-1.035-.306-1.525-.568-2.553-2.332-4.387-4.474-5.135-1.83-.64-3.884-.221-5.084.407-2.355 1.233-4.709 4.404-3.559 8.135.44 1.426 1.42 2.723 2.492 3.559.314.245 1.45.734 1.474 1.067.035.46-.972.868-1.423 1.17-3.545 2.374-7.132 4.84-10.525 7.27.573.8 1.5 1.232 2.288 1.779 2.37 1.646 4.73 3.406 7.118 5.084 1.585 1.115 3.343 2.059 4.83 3.305s3.234 2.143 4.78 3.305c.866.676 1.989 1.095 2.644 1.983-6.342 4.327-12.708 8.749-19.219 12.965-.915.593-1.872 1.159-2.644 1.932.8.946 2.056 1.435 2.999 2.237 2.58 1.734 5.403 3.685 8.085 5.593.364.259 1.052.528 1.017.915-.027.298-.614.444-1.067.712-2.126 1.258-4.189 4.2-3.152 7.779.495 1.708 1.919 3.324 3.406 4.119 2.484 1.327 5.501.659 7.322-.763 1.161-.907 2.161-2.251 2.542-4.068.092-.434-.015-.892.254-1.373.678.112 1.197.602 1.729.966 3.121 2.14 6.436 4.258 9.559 6.508.494.356 1.166.607 1.424 1.22-11.087.209-23.426.05-34.778.051-1.638 0-3.368.146-4.779-.102-.536-.094-.923-.557-1.424-.915-.929-.667-1.616-1.146-2.593-1.881-.382-.288-1.129-.654-1.17-1.017-.027-.247.338-.715.559-1.068.618-.988 1.233-2.107 1.22-3.661-.008-.939-.245-2.045-.559-2.847-.4-1.023-1.462-2.211-2.441-2.898-1.117-.784-2.637-1.313-4.423-1.169-1.302.105-2.469.672-3.356 1.271-.934.631-1.547 1.415-2.288 2.237-2.812-1.725-5.292-3.908-7.932-5.847-1.994-1.464-4.01-2.881-6-4.373-.65-.484-1.378-.874-1.883-1.523.469-.683 1.296-1.008 1.983-1.474 4.863-3.153 9.482-6.551 14.389-9.661.915.499 1.219 1.194 1.983 1.678.795.503 1.865.954 3 1.068 2.519.254 4.655-.825 5.949-2.237 1.05-1.145 1.725-2.795 1.729-4.678.004-2.002-.96-3.577-2.034-4.729-1.067-1.144-2.94-2.118-5.034-1.982-1.968.127-3.313.776-4.423 1.83-.263.25-.696.94-1.119.966-.588.036-1.58-.931-2.135-1.322-3.433-2.419-6.74-4.676-10.118-7.067-1.377-.974-2.796-1.838-3.966-2.898.386-.8 1.419-.954 1.932-1.627 4.892-3.294 9.404-6.969 14.236-10.322.864.759 1.287 1.783 2.288 2.441 4.621 3.036 10.873-.114 10.881-5.899.002-2.11-1.105-3.237-1.831-4.728.981-.856 2.444-2.034 3.661-2.898.441-.313 1.058-.837 1.475-.916.702-.131 1.673 0 2.542 0h17.439c5.142 0 10.04-.055 14.795 0 1.597.019 3.2-.135 4.73.153zm-37.727 2.593c-.91.439-2.161 1.52-2.593 2.135-.557.794-1.295 2.42-1.271 4.169.024 1.827.992 3.712 1.983 4.728.868.89 2.298 1.77 3.813 1.983 3.096.436 5.579-1.262 6.762-3 1.351-1.985 1.441-5.272.254-7.321-1.08-1.865-3.316-3.605-6.356-3.356-.965.08-1.873.315-2.592.662zm-16.981 16.22c-1.227 1.154-2.221 2.9-2.136 5.339.087 2.481 1.428 4.543 3.152 5.746 2.955 2.06 7.105.795 8.999-1.678.704-.918 1.387-2.259 1.525-3.763.127-1.383-.195-2.602-.661-3.61-1.023-2.212-3.494-4.168-6.813-3.813-1.683.179-3.15.917-4.066 1.779zm14.337 16.066c-.572.725-1.45 2.312-1.525 3.813-.131 2.608 1.15 4.722 2.542 5.796 1.642 1.268 4.512 2.039 7.016.966 1.859-.796 3.551-2.689 4.017-4.78.671-3.013-.838-6.093-3.051-7.372-.993-.574-2.723-1.064-4.322-.864-2.098.288-3.682 1.181-4.677 2.441zm-15.863 16.067c-2.009 3.925.064 8.069 2.796 9.457.973.494 2.516.852 3.762.763 2.592-.186 4.658-1.87 5.542-3.661 1.28-2.592.854-5.65-.763-7.627-1.104-1.35-3.406-2.614-5.745-2.39-2.662.256-4.817 1.945-5.592 3.458zm27.303 15.762c-.928-2.323-3.495-4.435-6.864-4.119-.86.081-1.917.362-2.644.712-1.509.728-2.793 2.191-3.356 3.763-1.64 4.587 2.083 8.77 5.644 9.101 3.374.315 5.623-1.541 6.915-3.559.876-1.666 1.014-4.124.305-5.898z" fill-rule="evenodd"/></svg>