<svg fill="none" viewBox="0 0 130 220" xmlns="http://www.w3.org/2000/svg"><path clip-rule="evenodd" d="m40.4197.613852c-8.6744 2.437768-15.7228 10.071048-17.0677 18.484448l-.461 2.8818-3.1732.5134c-6.7916 1.0984-13.69683 5.9986-16.82772 11.9417-4.90521 9.3106-3.468196 20.5017 3.5642 27.7573l1.93692 1.9986-2.00827 2.2396c-4.35471 4.8569-6.3154104 9.9184-6.3318433 16.3454-.011676 4.5495.8878163 7.9755 3.1309033 11.9244 3.35792 5.9115 10.27571 10.5945 16.74331 11.3325 3.6892.421 3.8004.45 3.6909.953-1.6545 7.591-.6097 13.88 3.3018 19.865 1.9036 2.914 3.6282 4.61 6.8754 6.764l2.2924 1.52-2.0593 1.21c-1.1326.666-3.6395 2.787-5.5708 4.716-11.826 11.806-23.06479 34.059-25.94357 51.371-.87657 5.272-.68586 12.806.41514 16.374 2.12633 6.892 8.08413 11.1 15.81663 11.174 3.1331.029 4.0434-.138 6.1636-1.134 4.891-2.298 8.9395-7.204 13.8356-16.763 1.4223-2.777 2.6466-5.116 2.7197-5.197.0735-.081 1.6035 2.748 3.4003 6.288 6.6553 13.107 11.0515 16.729 20.3685 16.78 3.5266.02 4.7007-.147 6.3643-.902 5.5915-2.54 8.5706-6.028 13.5861-15.907l3.2809-6.462 2.8788 5.595c4.9147 9.554 8.5291 14.103 13.1383 16.539 2.045 1.08 2.689 1.195 6.591 1.182 3.449-.012 4.82-.213 6.772-.992 6.687-2.668 9.808-7.874 10.186-16.987.428-10.3-2.779-22.128-9.875-36.422-6.577-13.25-14.95-24.343-21.8327-28.925-1.2826-.854-2.3322-1.617-2.3322-1.697 0-.079.5518-.43 1.226-.78 4.1627-2.158 8.6209-7.376 10.4189-12.194 1.779-4.767 1.996-8.961.781-15.06-.064-.32.929-.615 2.71-.805 5.3-.567 9.379-2.46 13.364-6.205 3.014-2.8319 5.445-6.6009 6.571-10.1868 1.065-3.3931 1.254-9.0816.418-12.606-.795-3.3488-3.277-7.9377-5.778-10.6812l-2.124-2.3307 2.402-2.6017c4.129-4.4718 6.01-9.5108 5.99-16.0402-.021-6.5501-2.61-12.4239-7.503-17.0236-3.303-3.1047-6.97-4.9471-11.696-5.8759l-3.647-.7168-.446-2.8423c-.713-4.5395-2.791-8.3687-6.592-12.14377-3.5461-3.5231-6.3738-5.16043-10.9383-6.332921-3.6675-.941807-10.4582-.6348054-13.6777.619201-2.9843 1.16252-7.5094 4.128-9.1402 5.99037l-1.283 1.46517-2.007-1.95603c-2.2971-2.23875-5.9067-4.47185-9.0497-5.59881-2.9973-1.07448972-10.4734-1.325986-13.5684-.456158zm33.1806 20.198148c18.112 3.1918 33.1857 17.2825 37.6647 35.2085 3.977 15.9201-.336 32.6333-11.4976 44.5465-18.2608 19.492-49.2942 20.082-68.0619 1.295-19.0885-19.1084-18.9574-49.5502.2941-68.3421 7.1224-6.953 17.5114-11.9435 27.394-13.1602 3.5603-.4384 10.386-.2211 14.2067.4523zm-17.45 3.8461c-10.7877 2.3528-20.0001 8.2703-26.3488 16.9248-3.8025 5.1839-4.4581 7.5024-2.2716 8.0318.5189.1258 17.7557.1748 38.3032.1093 40.9269-.1305 38.6129.0277 37.9569-2.5943-.503-2.0081-3.8777-6.5944-7.614-10.3482-5.8903-5.9171-12.2788-9.618-20.2738-11.7431-4.9749-1.3225-14.5833-1.5077-19.7519-.3803zm-16.9617 32.8601c-4.7414 2.6069-6.5274 7.5635-4.411 12.2417 1.1866 2.6234 1.9646 3.4204 4.5074 4.618 6.3184 2.9759 13.1895-1.3442 13.1895-8.2924 0-3.9702-1.5308-6.5592-4.9666-8.4021-2.2037-1.1816-6.3219-1.2636-8.3193-.1652zm43.5137.0811c-6.7491 3.6783-6.7409 13.1788.0148 16.613 3.6173 1.8389 7.3727 1.4474 10.2281-1.0667 4.6492-4.0929 4.3422-11.3546-.6288-14.8578-1.5667-1.1039-2.3045-1.3155-4.9493-1.417-2.4282-.0937-3.4487.0659-4.6648.7285zm-20.727 32.6567c-2.6357 1.3351-3.879 3.3154-3.879 6.179 0 1.6186.2763 2.6732.9764 3.73 1.0755 1.623 4.2021 3.425 5.9427 3.425s4.8671-1.802 5.9426-3.425c.7002-1.0568.9765-2.1114.9765-3.73 0-1.6187-.2763-2.6733-.9765-3.73-1.0755-1.623-4.202-3.4247-5.9426-3.4247-.6128 0-1.9806.4389-3.0401.9757zm4.7932 40.028c1.8876 1.957 5.3243 4.256 7.7944 5.215 2.7079 1.051 2.7815 1.217 1.056 2.386-2.1843 1.479-4.8728 5.072-7.8337 10.468-1.4046 2.56-2.6509 4.657-2.7698 4.66s-1.2865-1.985-2.5947-4.419c-2.9358-5.462-5.0198-8.315-7.6101-10.42-1.6909-1.374-1.8729-1.662-1.1927-1.885 2.7871-.916 6.5917-3.18 8.7137-5.186 1.3571-1.282 2.5753-2.339 2.7071-2.348.1315-.009.9099.679 1.7298 1.529z" fill="#000" fill-rule="evenodd"/></svg>