<svg enable-background="new 0 0 79.959 64.828" viewBox="0 0 79.959 64.828" xmlns="http://www.w3.org/2000/svg"><path clip-rule="evenodd" d="m39.687.036c4.345-.207 8.696.498 12.136 1.486 5.835 1.677 10.895 4.239 15.208 7.38 3.586 2.612 6.327 5.527 8.817 9.313 1.096 1.667 2.186 4.052 2.823 6.242.679 2.336 1.291 5.013 1.288 7.727-.008 5.684-1.69 10.316-3.914 14.118-2.22 3.796-5.338 6.91-8.718 9.362-3.456 2.508-7.265 4.85-11.69 6.39-4.496 1.564-9.768 2.744-15.307 2.773-5.853.032-10.998-1.1-15.404-2.724-4.459-1.644-8.271-3.717-11.79-6.291-6.928-5.067-12.806-11.656-13.126-23.082-.158-5.654 1.559-10.621 3.764-14.266 2.31-3.817 5.411-6.691 8.818-9.263 5.297-3.999 11.208-6.851 18.724-8.422 1.241-.259 2.552-.457 3.913-.594 1.393-.14 2.872-.073 4.458-.149zm-19.368 19.963c-1.125.002-2.299-.172-3.318-.05-.089.011-.292.024-.397.05-.295.071-.713.884-.941 1.337-.292.581-.536 1.144-.742 1.585-2.471 5.252-5.275 10.341-7.728 15.405-1.025 2.116-2.13 4.182-2.923 6.341.917.346 2.207.198 3.418.198 1.215 0 2.49.036 3.566-.049.756-.854 1.147-1.965 1.635-2.972 1.503-3.111 3.208-6.128 4.607-9.263 1.873-4.198 4.323-8.132 6.043-12.433-.947-.349-2.087-.152-3.22-.149zm10.352 0c-1.223 0-2.696-.038-3.616.049-.737.867-1.157 1.946-1.634 2.972-.478 1.026-1.03 2.048-1.536 3.071-2.037 4.118-4.197 8.163-6.191 12.285-.501 1.034-.981 2.091-1.486 3.121-.517 1.051-1.173 2.055-1.436 3.22.992.266 2.253.148 3.468.148 1.225 0 2.467.04 3.566-.049.754-.854 1.127-1.963 1.635-2.972 1.553-3.089 3.085-6.136 4.606-9.213 1.54-3.115 2.993-6.276 4.458-9.362.489-1.03 1.134-1.997 1.387-3.121-.909-.267-2.052-.149-3.221-.149zm10.304.049c-1.181.055-2.372-.041-3.517 0-.696.874-1.188 1.925-1.685 2.923-1.556 3.121-2.984 6.203-4.558 9.263-1.049 2.041-1.902 4.207-2.972 6.242-.81 1.54-1.511 3.13-2.278 4.656-.257.511-.709 1.01-.595 1.635 1.972.292 4.725.155 6.786.05.652-.919 1.158-1.948 1.635-2.972.974-2.09 2.096-4.093 3.071-6.143 2.216-4.654 4.707-9.23 6.886-13.87.247-.527.584-1.08.644-1.684-.995-.283-2.262-.153-3.417-.1zm33.188 0c-8.686-.001-17.781-.135-26.303.049-.639.827-1.001 1.858-1.486 2.824-.476.945-1.16 1.919-1.288 2.972 9.332.185 18.744.263 27.839.099.646-.79.977-1.897 1.535-2.774.36-1.077 1.072-1.801 1.288-3.021-.487-.259-1.063-.149-1.585-.149zm-6.142 9.264c-7.062-.14-13.895-.099-20.854-.099-1.167 0-2.548-.191-3.566 0-.582.109-.758.804-1.09 1.387-.317.557-.539 1.096-.743 1.486-.624 1.198-1.098 2.101-1.387 3.121 1.033.379 2.191.188 3.319.148 8.103-.279 16.798.322 24.668.05.642-.835 1.079-1.857 1.585-2.824.511-.975 1.059-2.022 1.189-3.17-.972-.259-2.028-.078-3.121-.099zm-29.374 9.361c-.922 1.343-1.622 2.988-2.378 4.458-.265.516-.585 1.05-.595 1.635 1.087.263 2.251.149 3.369.149 8.226 0 16.346-.027 24.52 0 .726-.828 1.188-1.926 1.684-2.972.505-1.065 1.19-2.108 1.387-3.22-9.279-.2-18.849-.265-27.987-.05z" fill-rule="evenodd"/></svg>