<svg enable-background="new 0 0 65.877 75.881" viewBox="0 0 65.877 75.881" xmlns="http://www.w3.org/2000/svg"><g clip-rule="evenodd" fill-rule="evenodd"><path d="m48.967 75.88c-.266-.707-.148-1.499-.148-2.271 0-4.635-.049-9.241-.049-14.068 0-.716.175-1.551-.247-2.123-.821-.094-1.171.703-1.827.938-3.179 2.621-6.5 5.05-9.824 7.553-.471.354-.98.802-1.629.839-.42-.651-.247-1.514-.247-2.271 0-5.035-.108-9.727 0-14.612.018-.829-.136-1.663.049-2.32.224-.795 1.752-1.639 2.567-2.221.982-.702 1.984-1.35 2.863-1.926 1.96-1.285 3.826-2.809 5.578-3.998 2.857-1.94 5.676-3.893 8.491-5.875 2.711-1.908 5.571-4.027 6.911-7.404.931-2.345.925-5.698-.296-7.849-1.099-1.936-3.106-3.471-5.528-4.048-2.171-.518-4.379-.323-6.269.197-.546.15-1.173.537-1.777.297-.19-.682.194-1.329.296-2.024.345-2.354-.633-4.507-1.629-5.727-1.125-1.385-2.742-2.245-4.837-2.616-2.167-.383-4.555.22-6.22 1.037-1.603.786-3.071 1.911-4.541 2.912-1.509 1.028-3.012 1.996-4.393 3.011-6.742 4.848-13.493 9.468-20.388 14.415-.426.305-.884.691-1.382 1.086-.574.455-1.098.764-1.283 1.333-.173.531-.049 1.543-.049 2.369-.001 10.916.001 22.184 0 33.321 0 .706.148 1.51-.198 2.172-.745-.017-1.083-.458-1.58-.84-.484-.372-1.092-.693-1.283-1.283-.184-.567-.049-1.594-.049-2.419 0-5.533-.073-11.808 0-17.129.096-6.962-.092-13.054 0-19.252.042.009.046-.02.049-.05 1.246-1.48 3.067-2.286 4.542-3.505 1.479-1.223 3.096-2.273 4.689-3.356 3.183-2.164 6.363-4.39 9.527-6.565 2.947-2.198 6.16-4.398 9.429-6.664 2.407-1.669 4.74-3.312 7.75-4.295 1.055-.345 2.275-.601 3.554-.642 3.555-.116 6.369 1.276 8.343 2.962 1.571 1.342 2.688 2.875 3.356 5.084.192.634.277 1.435.889 1.926 5.677-.403 9.453 1.767 11.798 5.035.621.865 1.167 1.754 1.481 2.764.349 1.12.346 2.384.346 3.9 0 11.198.048 22.204.049 33.666 0 1.308-.094 2.671-.049 4.098.041 1.291.193 3.01-.099 3.949-.213.685-1.242 1.281-1.876 1.776-3.461 2.707-7.012 5.149-10.515 7.75-1.047.778-2.067 1.543-3.159 2.32-.346.246-.701.671-1.186.643z"/><path d="m32.43 16.247c1.154-.162 2.417.359 2.468 1.53.048 1.086-1.16 1.937-1.925 2.469-1.798 1.25-3.401 2.394-5.183 3.604-.732.497-1.78 1.663-2.765 1.629-.47-.017-1.269-.593-1.678-.839-.387-.233-1.261-.749-1.284-1.234-.031-.67 1.531-1.604 2.222-2.073.926-.629 1.751-1.196 2.517-1.727.877-.608 1.725-1.118 2.518-1.729.844-.65 1.955-1.467 3.11-1.63z"/><path d="m44.475 23.701c1.375-.191 2.45.664 2.468 1.728.015.904-1.242 2.012-1.826 2.469-.587.459-1.271.878-1.975 1.382-1.237.887-2.588 1.772-3.949 2.716-.569.394-1.465 1.204-2.123 1.185-.547-.017-1.285-.636-1.728-.938-.442-.302-1.382-.807-1.382-1.283 0-.508.73-.78 1.086-1.037.47-.339.797-.648 1.234-.888 1.742-1.274 3.726-2.582 5.578-3.9.789-.564 1.598-1.183 2.617-1.434z"/><path d="m9.673 70.844c-.708-.144-1.205-.539-1.777-.938-.471-.327-1.17-.808-1.332-1.333-.179-.575-.05-1.532-.05-2.419 0-5.29-.049-10.902 0-16.24.052-5.624-.049-11.377-.049-17.031 0-.742-.141-1.537.198-2.221.605-.06 1.226.433 1.876.888.515.362 1.146.804 1.284 1.234.175.549.049 1.5.049 2.37-.002 11.136-.009 22.966.048 33.519.004.714.064 1.522-.247 2.171z"/><path d="m16.683 75.682c-.748-.031-1.172-.555-1.728-.938-.516-.355-1.182-.695-1.382-1.283-.175-.513-.138-1.456-.099-2.32.1-2.194 0-4.753 0-7.06 0-8.824 0-17.417 0-26.31 0-.645-.125-1.972.247-2.173.522-.199 1.182.463 1.777.89.577.412 1.106.735 1.284 1.233.401 1.124.012 3.249.049 4.591.279 10.122.049 20.91.049 31.198 0 .719.144 1.519-.197 2.172z"/><path d="m23.544 61.119c-.6.084-1.067-.425-1.58-.789-.439-.312-1.147-.661-1.333-1.087-.196-.447-.099-1.526-.099-2.319 0-4.767 0-9.396 0-14.218 0-.808-.097-1.933.148-2.271.553-.277 1.132.388 1.728.79.581.392 1.06.666 1.234 1.136.217.585.099 1.553.099 2.369 0 4.522.049 9.355.05 14.217.001.739.153 1.569-.247 2.172z"/><path d="m28.086 45.125c.55.35 2.417 1.217 2.665 1.976.151.461.092 1.408.099 2.023.051 4.733 0 9.647 0 14.365 0 .912.162 1.953-.296 2.566-.643.08-1.125-.48-1.58-.789-.473-.322-1.029-.633-1.234-1.186-.062-5.223-.23-11.231-.099-16.833.017-.712-.152-1.491.247-2.073.104.021.132-.033.198-.049z"/></g></svg>