<svg enable-background="new 0 0 74.911 36.063" viewBox="0 0 74.911 36.063" xmlns="http://www.w3.org/2000/svg"><path clip-rule="evenodd" d="m46.181.141c.263 2.215.146 4.7.146 7.164 0 2.436-.077 4.91.098 7.165.489.047.746-.453 1.023-.732 2.079-2.079 4.161-4.376 6.336-6.433 2.502-2.365 4.77-4.982 7.311-7.262 4.533.033 9.195-.064 13.647.049.043.404-.418.667-.682.926-.291.286-.601.572-.877.829-2.109 1.867-4.158 3.808-6.238 5.702-1.048.954-2.167 1.826-3.168 2.827-.496.496-1.027.971-1.559 1.413-.548.456-1.187.772-1.706 1.267 4.447.394 9.754-.072 14.28.244.162 2.878.162 6.431 0 9.309-1.121.265-2.362.146-3.558.146-3.718 0-7.209-.049-10.479.098.046.421.539.553.828.78.893.7 1.675 1.709 2.632 2.388 1.069 1.173 2.218 2.266 3.461 3.265 1.867 1.985 4.135 3.697 6.092 5.654.239.239.655.521.634.926-2.892.167-6.4.098-9.699.098-1.019 0-2.42.198-3.217-.049-.676-.209-1.351-1.279-1.95-1.803-2.032-1.777-3.647-3.761-5.604-5.507-1.828-1.833-3.698-3.698-5.557-5.556-.604-.604-1.124-1.349-1.9-1.705-.264.509-.146 1.13-.147 1.705 0 4.139.081 8.776-.097 12.818-3.533.131-7.07.262-10.43 0-.415-8.747.111-18.034-.244-26.659-1.004-.292-2.281-.109-3.46-.146-1.166-.038-2.348-.062-3.365.095-.214 7.909-.098 15.705-.097 23.443 0 1.08.114 2.206-.146 3.265-3.317.145-7.189.248-10.527.049-.29-1.063-.195-2.196-.195-3.314 0-3.356 0-6.776 0-10.187 0-3.394.052-6.778.049-9.942-.001-1.097.033-2.182-.146-3.216-.944-.335-2.164-.153-3.363-.146-1.192.006-2.464-.083-3.509.098-.237.464-.188 1.049-.195 1.56-.127 8.302.192 17.346-.048 25.148-3.271.248-6.985.143-10.381 0-.257-8.763-.147-17.986-.146-26.952 0-1.49-.001-2.96 0-4.435 0-1.444-.118-2.925.146-4.338 3.641-.144 7.441-.098 11.307-.098 3.841 0 7.777.181 11.648 0 3.731-.173 8.089-.048 11.94-.049 3.882 0 7.598-.011 11.112.098z" fill-rule="evenodd"/></svg>