<svg enable-background="new 0 0 80.519 62.764" viewBox="0 0 80.519 62.764" xmlns="http://www.w3.org/2000/svg"><g clip-rule="evenodd" fill-rule="evenodd"><path d="m55.385 18.825c-8.238.181-16.733-.118-24.816.146-.186 6.132-.098 12.559-.098 18.698 0 2.078-.11 4.178.146 6.168 7.923.227 16.331-.069 24.816.195-1.841 5.028-4.909 8.829-8.565 12.042-4.795 3.888-11.317 7.418-20.216 6.559-2.685-.259-5.199-.845-7.342-1.664-4.154-1.589-7.865-4.232-10.72-7.342-2.976-3.243-5.19-6.928-6.754-11.258-1.594-4.411-2.253-10.05-1.566-15.908.578-4.931 2.647-9.76 4.894-13.118 3.582-5.35 8.404-9.644 15.027-11.992 2.244-.796 4.764-1.186 7.684-1.322 5.716-.265 10.514 1.339 14.098 3.329 3.846 2.135 6.826 4.846 9.251 8.076 1.645 2.207 3.177 4.525 4.161 7.391z"/><path d="m55.63 18.923c8.443.018 16.558-.039 24.67.098.245 1.968.146 4.045.147 6.168 0 2.099.12 4.271.049 6.363-.146 4.209.132 8.455-.147 12.384-8.15.065-17.134.124-24.768-.049-.042-7.987-.021-16.393-.049-24.817-.001-.084.037-.127.098-.147z"/></g></svg>