<svg enable-background="new 0 0 23.207 19.945" viewBox="0 0 23.207 19.945" xmlns="http://www.w3.org/2000/svg"><path d="m16.279 1.107c.279-.403.597-.783.965-1.107.172.104.333.225.498.339.042.158-.123.298-.168.448-.026.051-.053.102-.08.153-.027.057-.054.113-.081.17-.079.16-.159.318-.242.476-.035.072-.07.144-.107.214-.045.092-.092.184-.137.276-.044.087-.088.175-.133.261-.061.129-.127.256-.19.385-.044.085-.088.171-.132.258-.013.026-.04.08-.054.106-.027.058-.056.116-.083.174-.092.178-.18.359-.27.538-.013.027-.04.08-.052.107-.027.05-.054.1-.08.151-.014.03-.041.09-.055.121.011.536.094 1.077.325 1.566.365.839 1.095 1.491 1.936 1.832.305.135.63.214.955.288 1.275.222 2.583.031 3.806-.37.07.129.13.264.197.396.013.031.038.094.051.125l.061.012c-.054.064-.126.103-.208.115-.122.042-.247.078-.372.107-.136.047-.275.085-.418.1-.021.01-.061.03-.081.04-.541.101-1.083.191-1.631.223-.743.014-1.493-.046-2.202-.278-1.082-.341-2.061-1.079-2.582-2.099-.143-.309-.291-.625-.34-.965-.015-.014-.045-.043-.06-.058-.081.162-.182.313-.269.472-.046.071-.09.139-.136.207-.086.145-.174.289-.269.429-.172.274-.354.542-.538.808-.466.664-.934 1.33-1.463 1.946 1.612.015 3.225.002 4.838.006.173.167.335.346.518.504.042 2.564.013 5.129.023 7.694-.036.723-.01 1.448-.019 2.171-.17.163-.334.33-.504.494-.724-.01-1.449.024-2.17-.025-2.153.002-4.306.002-6.458 0-1.005.051-2.012.014-3.018.025-.127-.015-.287.044-.377-.074-.15-.148-.298-.297-.446-.447.007-1.091-.018-2.182.018-3.272-.001-2.183 0-4.366-.001-6.548.168-.167.336-.335.502-.505 1.574-.001 3.147.002 4.721-.001-.497-.586-1.01-1.159-1.441-1.796-.108-.162-.218-.322-.324-.485-.045-.075-.093-.148-.136-.224-.045-.069-.088-.139-.134-.208-.529-.891-.974-1.831-1.337-2.8-.083-.209-.137-.429-.246-.627.054.431.029.867.051 1.3.048.501.029 1.007.056 1.509.056.633.012 1.271.081 1.903-.227.12-.482.17-.726.243-.649-1.371-1.3-2.741-1.946-4.115-.059-.125-.101-.262-.197-.364.06.415.091.834.126 1.252.038 1.04.043 2.087-.133 3.115-.227 1.533-.763 3.022-1.571 4.345-.054.09-.11.179-.162.27-.037.053-.072.107-.107.161-.037.053-.072.107-.106.163-.502.725-1.059 1.412-1.692 2.025-.085-.214-.212-.405-.323-.604.88-.896 1.631-1.921 2.203-3.041.714-1.397 1.128-2.945 1.221-4.51.136-1.708-.121-3.411-.38-5.093.153-.063.315-.103.473-.154.062-.017.123-.036.184-.055.096.137.155.295.226.447.149.277.255.574.402.852.602 1.268 1.182 2.546 1.807 3.802-.038-.574-.045-1.15-.059-1.725-.057-.572-.018-1.148-.075-1.719-.014-.702-.041-1.403-.049-2.105.008-.119-.066-.257.015-.36.094-.034.189-.061.287-.082.108-.045.222-.074.334-.104.015.028.046.086.061.115.061.369.182.727.267 1.091.463 1.683 1.117 3.323 2.041 4.807.043.075.091.147.137.222.037.053.073.107.108.161.037.052.073.106.108.16.267.394.562.767.861 1.137.162.139.255.341.429.466-.025-.132-.085-.252-.136-.376-.042-.087-.075-.179-.106-.271-.028-.067-.053-.136-.081-.203-.043-.129-.092-.257-.138-.386-.019-.052-.038-.103-.055-.155-.019-.056-.036-.111-.053-.167-.314-1.004-.592-2.04-.617-3.1l-.021-.037c.003-.641.046-1.304.329-1.892.263-.539.707-1.023 1.293-1.2.538-.167 1.145-.039 1.587.304.32.231.55.563.718.915.037.091.072.185.108.276.373 1.327.182 2.746-.247 4.036-.004.027-.014.082-.019.109-.031.071-.056.144-.083.216-.016.052-.034.105-.053.156-.027.076-.055.151-.082.228-.029.067-.054.135-.082.202-.046.111-.089.224-.134.336-.061.122-.109.25-.162.376-.096.192-.18.39-.266.586.05-.033.094-.072.134-.118.377-.489.747-.984 1.102-1.491.06-.096.128-.187.19-.281.038-.053.074-.107.109-.161.036-.052.072-.106.105-.16.08-.123.16-.246.241-.367.045-.076.092-.148.136-.224.105-.154.196-.316.293-.475.064-.112.13-.223.19-.337.114-.194.227-.389.322-.592.028-.05.057-.099.085-.148.064-.165.061-.342.069-.516.068-.358.151-.715.275-1.059.028-.067.054-.136.082-.203.139-.36.325-.702.538-1.024.036-.054.071-.107.107-.16zm-5.26.28c-.466.247-.743.743-.873 1.238-.054.219-.078.442-.089.667-.058.337.019.672.028 1.009.063.595.201 1.18.356 1.757.053.142.075.293.136.433.005.026.015.078.02.104.067.158.11.325.166.487.059.141.11.287.161.432.039.088.074.179.108.269.039.088.073.179.107.269.094.21.192.418.274.632.073-.074.117-.169.158-.264.044-.087.088-.174.131-.261.014-.027.042-.083.056-.111.081-.182.165-.364.244-.546.061-.123.11-.251.161-.378.042-.086.075-.176.108-.266.072-.159.119-.327.185-.488.017-.053.034-.106.053-.159.018-.055.036-.109.056-.163.043-.159.098-.314.138-.475.279-1.014.393-2.097.134-3.127-.029-.07-.052-.141-.079-.211-.034-.075-.07-.148-.107-.221-.199-.353-.527-.637-.925-.74-.24-.031-.491-.006-.707.113zm-5.33 8.355c.003 1.471-.006 2.942.004 4.413.012.013.036.038.048.05.592 0 1.186.022 1.777-.019 1.227-.002 2.454.001 3.681-.002-.001-1.068-.004-2.136.002-3.204-.019.01-.055.033-.074.043-.396.646-.985 1.172-1.66 1.516-.437.212-.96.389-1.432.182-.218-.089-.392-.265-.504-.468-.014-.027-.041-.081-.053-.108-.105-.273-.108-.602.026-.866.027-.056.055-.112.081-.169.1-.15.215-.289.326-.43.328-.392.766-.666 1.193-.936-1.138-.004-2.277 0-3.415-.002zm6.559-.01c.065.121.2.171.309.244.997.627 2.059 1.144 3.14 1.612.036.009.107.027.144.036-.006.235-.054.468-.113.695-.432-.206-.882-.376-1.31-.593-.887-.417-1.749-.892-2.567-1.433-.005 1.298-.002 2.596-.001 3.895.785-.001 1.568-.004 2.352.002.32.032.641.016.962.02.699-.002 1.398.002 2.097-.001.094.01.113-.085.109-.157 0-.898 0-1.796 0-2.694-.038-.534-.019-1.069-.018-1.603-.189-.03-.382-.029-.571-.006-.268-.023-.539-.022-.808-.001-.286-.021-.575-.022-.861.001-.108-.019-.215-.018-.322 0-.358-.03-.718-.006-1.076-.014-.341.007-.684-.016-1.024.014-.148-.02-.296-.021-.442-.017zm-2.068.269c-.024.005-.073.015-.098.021-.107.05-.22.086-.328.136-.65.281-1.256.716-1.632 1.326-.016.028-.047.085-.063.113-.002.092-.002.185-.002.278.064.127.165.228.295.289.167.019.329-.023.49-.066.144-.054.287-.11.421-.186.538-.293 1-.723 1.341-1.231.093-.132.163-.279.239-.421.058-.134.12-.268.143-.413-.275-.001-.548.065-.806.154zm-4.492 4.853c.016 1.479.008 2.959.014 4.438.57-.006 1.14-.001 1.71-.003 1.257.01 2.514-.029 3.771-.015.002-.738-.017-1.476.016-2.212 0-.741-.003-1.483.001-2.224-1.838.005-3.675-.016-5.512.016zm6.16 1.513c-.043.968-.012 1.938-.022 2.908 1.84-.003 3.68-.008 5.52.018.008-.418-.016-.838.021-1.255.003-1.061.003-2.121 0-3.181-.249-.028-.5-.005-.749-.012-1.59.003-3.179-.006-4.769-.009-.005.51-.002 1.021-.001 1.531z"/></svg>