<svg enable-background="new 0 0 70.852 71.679" viewBox="0 0 70.852 71.679" xmlns="http://www.w3.org/2000/svg"><path clip-rule="evenodd" d="m30.689 26.906c-.138-.737-.6-1.288-.964-1.832-.365-.544-.755-1.066-1.109-1.639-4.316-6.674-8.774-13.206-13.015-19.956-.391-.519-.726-1.086-1.109-1.639-.358-.518-.872-1.066-.916-1.735 2.567-.111 5.318-.048 8.194-.048.938 0 1.964-.156 2.699.048.494.137.869.968 1.253 1.543 1.102 1.644 2.236 3.398 3.23 5.013 1.436 2.334 3.002 4.475 4.387 6.652 2.528 3.976 5.005 7.812 7.712 11.616.378.531.641 1.17 1.205 1.543.625-.289.885-.971 1.253-1.495 1.104-1.57 2.241-3.232 3.278-4.916.354-.574.645-1.166 1.012-1.735 2.476-3.828 4.912-7.843 7.472-11.665.731-1.092 1.462-2.167 2.169-3.277.697-1.096 1.35-2.256 2.218-3.23 2.618-.027 5.535-.049 8.436-.049.913 0 1.846-.06 2.65.144.209 5.841.049 11.78.049 17.739-.001 17.922.002 36.083-.193 53.504-1.268.201-2.835.114-4.338.097-1.504-.017-3.067.227-4.387-.097-.277-18.549.197-38.084-.097-56.686-.353-.055-.491.37-.626.578-2.479 3.828-5.18 7.911-7.713 11.762-1.318 2.136-2.695 4.213-4.049 6.314-.618 1.07-1.428 2.063-2.024 3.182-.591 1.107-1.205 2.221-2.024 3.133-.641-.148-1.034-.706-1.495-1.06-1.438-1.108-3.222-2.158-5.35-2.603-3.166-.661-6.498-.13-8.918 1.061-2.229 1.096-4.087 2.787-5.495 5.06-1.366 2.206-2.262 5.294-1.832 8.532.379 2.856 1.619 5.404 3.326 7.23 1.676 1.792 3.933 3.357 6.555 4.001 3.15.773 6.451.281 8.918-.868 2.358-1.099 4.389-2.758 5.688-4.868.305-.495.473-1.113.723-1.688.738-1.689 1.157-3.523 1.157-5.977 0-2.459-.733-3.917-1.398-5.785-.082-.232-.215-.554-.385-.818-.166-.259-.424-.492-.434-.724-.012-.282.334-.699.53-1.061.17-.312.335-.796.481-1.06.781-1.406 1.522-2.4 2.411-3.856.154-.254.367-.574.626-.965.166-.249.501-.843.675-.867.582-.082.689.84 1.157 1.012.277.43.632.782.915 1.206 3.263 4.091 5.636 11.075 4.001 18.364-1.42 6.334-5.131 10.766-9.592 13.931-3.628 2.639-9.944 4.608-16.292 3.278-5.458-1.144-9.665-3.936-12.773-7.52-1.442-1.662-2.857-4.001-3.808-6.363-.982-2.438-1.763-5.272-1.639-8.387.136-3.399.638-5.986 1.687-8.484.984-2.344 2.227-4.406 3.904-6.218.121-.715 1.932-1.39 1.976-2.266.012-.25-.392-.865-.627-1.205-2.752-3.991-5.282-8.199-7.953-12.195-.739-1.105-1.416-2.205-2.17-3.326-.234-.348-.448-.805-.868-.964-.272.523-.125 1.138-.144 1.687-.139 4.016-.048 8.394-.048 12.581.001 14.388-.02 28.764-.191 42.807-1.322.174-2.872.096-4.387.096-1.483 0-2.994.044-4.194-.145-.18-17.614 0-36 0-53.89 0-5.224.048-10.116.048-15.377 0-.683-.148-1.436.193-2.073 3.374.01 7.208-.048 10.653.049.655.311.94 1.037 1.301 1.591 4.84 7.423 9.762 14.958 14.702 22.365.376.564.743 1.16 1.108 1.736.358.564.707 1.182 1.253 1.59.559-.037 1.07-.121 1.352-.433z" fill-rule="evenodd"/></svg>