<svg enable-background="new 0 0 10.727 10.767" viewBox="0 0 10.727 10.767" xmlns="http://www.w3.org/2000/svg"><path d="m10.727 7.997s-.49-.338-.759-.561c-.269-.224-.691-.644-.691-.644s-.013.089-.093.199c.012.01.04.033.084.069.228.19.287.532.082.748-.112.104-.232.202-.358.293l-.895-4.3c.199.087.394.183.579.292.2.117.389.253.562.402.043.037.084.074.125.112.202.21.191.511-.034.706-.067.059-.105.093-.12.105.082.108.098.196.098.196s.412-.43.676-.66c.263-.23.744-.58.744-.58s-.086-.028-.182-.124c-.014.012-.05.043-.112.098-.195.172-.512.188-.787-.018l.002.007c-.255-.206-.531-.382-.815-.527-.26-.135-.529-.245-.804-.339l-.677-3.259h.937c.009-.135.055-.212.055-.212s-.893.053-1.242.053c-.006 0-.014.001-.021.001h-.223l-1.011 3.003c-.296-.017-.592-.021-.887-.01l-1.009-2.999c-.095.003-.212.005-.277.005-.35 0-1.242-.053-1.242-.053s.046.077.056.212h.937l-.665 3.191c-.349.109-.69.246-1.018.419-.435.234-.855.528-1.184.928-.331.394-.558.905-.558 1.456.002.259.056.534.154.778.098.247.241.47.404.668.314.383.714.668 1.13.897l-.417 2.005h-.001l.132-.631c-.101.485-.506.631-.915.631-.133 0-.222 0-.239 0-.009.135-.055.212-.055.212s.893-.053 1.242-.053 1.242.053 1.242.053-.046-.078-.056-.212c-.021 0-.153 0-.344 0-.605 0-.724-.313-.645-.702l.251-1.204c.778.382 1.622.576 2.467.664v1.211h-.078c-.281 0-.349 0-.395 0 .001.161-.035.244-.035.244s.158-.032.508-.032h.002.567c1.227 0 1.717-.764 1.778-1.479.254-.04.508-.091.758-.155.41-.102.813-.242 1.198-.424l.392 1.877h-.001l-.147-.705c.082.39-.035.706-.642.706-.126 0-.21 0-.227 0-.01.135-.056.212-.056.212s.893-.053 1.242-.053c.35 0 1.242.053 1.242.053s-.046-.078-.056-.212c-.011 0-.052 0-.114 0-.409 0-.815-.146-.916-.631l.132.631-.434-2.092c.206-.118.405-.252.593-.404v.001c.256-.214.51-.252.738-.06l-.002-.002c.087.073.135.112.151.126.095-.097.179-.127.179-.127zm-3.798-7.494h.003.01.011l.587 2.821c-.029-.008-.057-.017-.085-.024-.457-.117-.923-.191-1.391-.229zm-1.155 2.766-.356 1.057h-.027l-.36-1.066c.248-.009.496-.006.743.009zm-2.183-2.818h.023l.882 2.625c-.506.045-1.012.127-1.506.262zm-2.702 6.938c-.271-.353-.444-.76-.44-1.193-.004-.414.169-.834.439-1.183.272-.35.63-.647 1.027-.885.246-.146.506-.271.773-.38l-.921 4.428c-.337-.22-.641-.482-.878-.787zm4.03 3.134h-.13v-1.177c.49.026.982.017 1.471-.034-.042.619-.301 1.211-1.341 1.211zm-.13-1.395v-1.455h.13c1.154 0 1.346.729 1.349 1.416-.491.06-.987.073-1.479.039zm2.601-.266c-.227.065-.456.118-.689.161-.03-.738-.508-1.563-1.782-1.563h-.567-.001c-.351 0-.508-.031-.508-.031s.036.083.035.244h.395.079v1.413c-.845-.11-1.672-.367-2.394-.789l.966-4.641c.526-.189 1.083-.31 1.644-.366l.269.799c.132.394-.027.632-.399.632-.037 0-.06 0-.071 0-.011.135-.057.212-.057.212s.593-.053.943-.053.942.053.942.053-.046-.077-.054-.212c-.013 0-.037 0-.076 0-.415 0-.441-.34-.343-.632l.271-.807c.473.042.942.128 1.396.258.071.022.141.046.21.069l.988 4.748c-.376.211-.779.378-1.197.505z"/></svg>