<svg enable-background="new 0 0 69.008 69.593" viewBox="0 0 69.008 69.593" xmlns="http://www.w3.org/2000/svg"><g clip-rule="evenodd" fill-rule="evenodd"><path d="m68.634.183c.232 3.064.148 6.443.148 9.791.001 3.307.151 6.615-.1 9.593-4.17.244-8.779.151-13.221.149-1.463-.001-2.949.181-4.324-.1-.284-1.516-.137-3.102-.098-4.721.093-3.895-.051-8.199-.05-12.376 0-.781-.112-1.608.148-2.336 4.666-.263 9.924-.148 14.713-.149.984-.001 1.977-.139 2.784.149z"/><path d="m22.41.431c.449.47.507 1.105.695 1.641.199.563.479 1.092.647 1.689.345 1.23.646 2.436 1.093 3.629 1.26 3.36 2.333 6.898 3.629 10.388 1.45 3.906 2.922 7.959 4.324 12.078.225.662.541 1.316.547 1.789.011.911-.803 2.603-1.094 3.528-1.104 3.511-2.235 7.015-3.43 10.439-1.421 4.071-2.692 8.032-4.026 12.127-.17.524-.295 1.164-.745 1.541-.601-1.13-.987-2.364-1.392-3.579-1.217-3.65-2.503-7.376-3.877-11.033-1.822-4.849-3.419-9.784-5.169-14.662-3.063-8.538-6.052-17.099-9.095-25.698-.427-1.204-.946-2.404-1.144-3.678.866-.27 1.814-.149 2.734-.149.934 0 1.884-.05 2.833-.05 4.579.001 8.984-.107 13.47 0z"/><path d="m47.112 69.27c-3.627.217-7.487.149-11.332.149-1.912 0-3.857.05-5.767.05-1.905 0-3.81.118-5.616-.149.081-.735.35-1.453.597-2.137 3.685-10.199 6.916-20.951 10.537-31.363 3.877-11.15 7.24-22.488 11.183-33.55.015-.044.134-.217.149-.099.041.009.05.05.1.05.1 16.757.248 33.586.248 50.548 0 4.197.05 8.387.05 12.426 0 1.374.118 2.743-.149 4.075z"/><path d="m24 69.32c-.917.269-1.918.149-2.883.149-5.996 0-11.87.1-17.942.1-.945 0-1.931.115-2.833-.149-.271-5.512-.149-11.03-.149-16.601-.001-5.521.044-11.123-.1-16.75-.136-5.313.085-10.974-.05-16.602-.097-4.043 0-8.44 0-12.674 0-1.429-.04-2.914.05-4.175-.002-.085.037-.129.1-.149h.1c2.023 5.524 3.997 11.089 6.014 16.65 2.016 5.557 4.101 11.113 5.915 16.75.9 2.798 2.054 5.521 3.031 8.301.989 2.811 1.896 5.649 2.883 8.449 1.709 4.846 3.5 9.754 5.219 14.613.239.676.599 1.35.645 2.088z"/><path d="m68.683 23.244c.268.898.149 1.851.149 2.784 0 2.899.051 5.727.05 8.599-.002 10.564.101 21.212.1 31.81 0 .911.119 1.857-.149 2.733-1.382.268-2.887.15-4.374.149-2.963-.001-5.945.001-8.847 0-1.472 0-2.929.201-4.274-.1-.238-.879-.171-1.827-.199-2.733-.089-2.841 0-5.768 0-8.698-.001-11.382-.175-23.079 0-34.444.642-.285 1.589-.114 2.336-.149 4.885-.227 10.398-.014 15.208.049z"/></g></svg>