<svg fill="none" viewBox="0 0 130 134" xmlns="http://www.w3.org/2000/svg"><path clip-rule="evenodd" d="m54.8736.244974c-11.2309.614088-31.2462 2.570506-31.782 3.106286-.209.20874-.2815.57466-.171.86254.2181.56831.201.56886 10.3069-.38715 17.3004-1.63684 28.6239-1.46753 37.5016.56142 5.9806 1.3666 14.5627 5.00287 19.6795 8.33803 5.3969 3.518 9.2121 8.3799 10.9704 13.9795.899 2.8623.899 8.6855.001 11.9881-2.048 7.5296-7.031 13.0726-15.347 17.0721-10.2147 4.9127-19.8863 5.6936-38.4667 3.1057-12.1235-1.6887-14.7927-1.9308-19.5295-1.7717-4.552.1531-6.1913.5526-9.6996 2.3646-1.1375.5873-3.6192 1.8715-5.515 2.8531-3.88635 2.013-6.93115 2.9502-10.45712 3.2191l-2.36508.1803v.8206.8209l2.85288.3351c3.97075.4663 6.77813 1.4399 11.52982 3.998 4.6038 2.4787 6.5856 3.3691 8.7577 3.9349 4.0579 1.057 9.5505.7967 23.2391-1.1019 11.1294-1.5433 15.1711-1.8792 20.2134-1.6795 9.2833.3675 17.393 2.8084 24.0534 7.2405 6.2928 4.1872 9.9347 9.5621 11.1327 16.4301 1.359 7.7914-1.086 14.7684-7.232 20.6324-2.8455 2.714-4.7848 3.969-10.4442 6.758-10.0402 4.947-17.6682 6.568-30.8837 6.561-7.1071-.004-12.906-.36-24.2478-1.487-4.745-.472-5.5502-.493-5.8877-.156-.6199.62-.1682 1.513.8529 1.685 2.3207.393 18.3391 1.832 26.8009 2.409 7.0831.483 30.4061.479 35.5714-.005 8.8321-.828 15.3162-2.017 20.6712-3.79 12.456-4.124 20.545-11.987 22.598-21.964.552-2.688.564-7.6863.025-10.7777-1.721-9.8698-8.803-17.5126-19.834-21.404-10.0132-3.5326-22.9104-5.2615-39.1778-5.2521-12.9383.0074-17.8193.4638-26.5475 2.4814-5.9407 1.3735-8.5388 1.6203-10.4332.9911-.7495-.249-2.6626-1.207-4.2509-2.1288-3.7681-2.1872-5.5971-3.1011-7.3688-3.6812-.7961-.2609-1.4474-.6194-1.4474-.7967.0003-.1775.7139-.5349 1.5856-.7941.8719-.2595 3.0122-1.2869 4.7563-2.2835 1.7441-.9965 4.1018-2.2735 5.2392-2.8374 1.904-.9442 2.236-1.0208 4.1817-.9651 2.1244.0606 2.6924.1618 9.6944 1.7267 5.7185 1.2778 8.669 1.6164 17.1672 1.9705 20.7064.8623 40.2672-1.8186 50.7662-6.9574 11.134-5.4496 16.492-14.2307 16.004-26.2265-.17-4.2021-.638-6.2746-2.155-9.5489-3.547-7.658-10.62-13.21155-21.3-16.72567-6.01-1.97765-12.8278-3.06244-23.3453-3.715133-5.1179-.31766-22.3824-.3110436-28.2641.010477zm-18.9576 63.977426c-.2655.1547-.6797.6623-.9207 1.1281-.6102 1.1802-.3099 2.496.7787 3.4118 1.7824 1.4998 4.3472.2509 4.3472-2.1169 0-1.536-1.1686-2.7244-2.6673-2.7126-.5805.0047-1.2726.1349-1.5379.2896z" fill="#000" fill-rule="evenodd"/></svg>