<svg enable-background="new 0 0 76.878 77.888" viewBox="0 0 76.878 77.888" xmlns="http://www.w3.org/2000/svg"><g clip-rule="evenodd" fill-rule="evenodd"><path d="m11.875 67.118c-5.021-4.782-8.647-10.689-10.69-18.348-1.079-4.042-1.338-8.631-1.107-13.099.107-2.102.595-4.238 1.059-6.212 2.265-9.624 7.559-16.546 14.399-21.815 4.129-3.181 9.054-5.503 14.977-6.79.998-.216 1.991-.446 3.034-.578 4.734-.599 10.526-.193 14.495.915 6.395 1.785 11.302 4.632 15.747 8.428 1.093.932 2.039 2.018 3.034 3.034 2.072 2.114 3.498 4.382 5.008 7.079 2.145 3.829 3.819 8.349 4.623 13.484.562 3.59.535 7.594.097 11.317-.406 3.459-1.402 6.708-2.552 9.535-4.625 11.372-13.373 19.051-25.812 22.538-3.177.89-7.036 1.419-10.835 1.252-11.366-.5-19.197-5.006-25.477-10.74zm55.477-12.135c1.052-2.037 2.11-4.19 2.697-6.549.205-.825.28-1.729.481-2.648.784-3.586.901-7.675.337-11.365-.272-1.783-.531-3.567-1.011-5.153-2.359-7.795-6.939-13.595-13.099-17.818-2.424-1.662-5.142-3.1-8.283-4.093-4.35-1.376-10.538-2.009-15.699-1.108-1.416.248-2.759.62-4.094 1.06-7.603 2.507-13.623 7.13-17.577 13.34-2.678 4.205-4.785 9.216-5.297 15.314-.536 6.378.691 12.487 2.985 17.24 4.37 9.054 12.324 15.912 22.923 18.252 6.114 1.35 12.883.513 17.914-1.252 5.107-1.791 9.003-4.553 12.521-8.09 2.05-2.156 3.82-4.455 5.202-7.13z"/><path d="m17.75 25.27c.28 4.531-.021 9.206.049 13.725.068 4.488.141 8.962-.097 13.243-2.273.227-5.228.156-7.513.048-.175-7.545-.097-15.853-.096-23.79 0-.94-.102-2.829.143-3.275.036-.045.088-.073.145-.096 2.417.089 5.193-.182 7.369.145z"/><path d="m20.303 25.173c2.426.063 5.102-.126 7.368.097.26 1.07.144 2.21.145 3.323 0 5.671-.001 11.414 0 17 0 2.287.114 4.554-.145 6.742-1.737.113-3.897.173-5.827.096-.616-.024-1.235.027-1.733-.193-.2-7.458-.049-15.323-.049-23.549 0-1.05-.073-2.669.097-3.371.026-.069.075-.118.144-.145z"/><path d="m37.495 25.318c.118 3.29.283 6.69.145 10.161-.217 5.447.14 11.356-.145 16.903-2.38.188-5.042.082-7.367-.048-.258-.895-.145-2.157-.145-3.323-.001-7.346.049-14.89.048-22.345 0-.673-.146-1.368.434-1.493.515-.11 1.191.023 1.781.048 1.76.075 3.553-.133 5.249.097z"/><path d="m66.823 25.414c.159 2.332.16 5.324 0 7.657-8.685.066-18.085.046-26.823-.096-.162-2.332-.158-5.325 0-7.657 5.588-.29 11.274-.018 16.951-.048 3.307-.018 6.621-.097 9.872.144z"/><path d="m66.823 35.335c.275 1.068-.005 2.185-.048 3.274-.055 1.368.339 2.736.048 4.045-8.831.179-18.122.048-26.823-.048-.251-2.233-.086-4.845-.049-7.368.437-.119.982-.142 1.445-.145 8.133-.041 17.293.049 25.427.242z"/><path d="m66.775 45.014c.248 2.197.215 5.26 0 7.464-8.725.149-17.845.039-26.775-.096-.233-1.069-.158-2.481-.145-3.804.014-1.275-.042-2.574.145-3.66 3.059-.1 6.35-.181 9.246-.144 5.809.072 11.726.019 17.529.24z"/></g></svg>