<svg enable-background="new 0 0 78.349 78.699" viewBox="0 0 78.349 78.699" xmlns="http://www.w3.org/2000/svg"><path clip-rule="evenodd" d="m38.451.035c6.107-.289 12.181 1.268 16.437 3.181 4.623 2.078 8.348 4.8 11.643 7.974 3.381 3.257 6.083 7.019 8.121 11.496 2.067 4.542 3.39 9.799 3.669 15.947.141 3.087-.256 6.263-.881 8.953-.631 2.715-1.351 5.241-2.348 7.436-2.117 4.659-4.727 8.308-7.877 11.741-3.162 3.445-7.015 5.92-11.397 8.218-4.045 2.12-9.906 3.718-15.899 3.719-12.812 0-21.457-4.629-28.032-11.204-3.188-3.188-6.148-6.924-8.169-11.447-1.983-4.436-3.718-9.732-3.718-15.9 0-12.924 4.702-21.47 11.006-28.227.762-.815 1.639-1.63 2.545-2.396 2.603-2.202 5.498-4.321 8.853-5.822 4.452-1.99 9.681-3.668 15.948-3.669.033 0 .066.002.099 0zm-13.453 23.286c-1.591 1.202-3.014 3.345-2.74 6.458.164 1.856 1.01 3.182 1.859 4.109 1.287 1.406 3.277 2.334 5.479 2.299 2.646-.042 5.106-1.792 6.164-4.012 1.642-3.444.071-7.38-2.299-9.001-1.105-.756-2.865-1.417-4.844-1.223-1.58.155-2.74.706-3.619 1.37zm18.932.637c-1.025 1.025-1.861 2.383-2.006 4.256-.217 2.818.926 4.801 2.201 6.017 1.848 1.761 4.835 2.406 7.24 1.517 1.955-.723 3.992-2.641 4.452-4.794.256-1.201.198-2.99 0-3.963-.081-.393-.31-.927-.538-1.369-1.08-2.092-3.594-4.013-6.996-3.669-1.937.194-3.326.977-4.353 2.005zm-20.107 30.28c1.207 1.507 3.377 2.809 6.213 2.593 3.334-.253 6.157-2.945 6.409-6.457.222-3.104-1.179-5.131-3.033-6.408-1.105-.761-2.723-1.479-4.647-1.321-1.341.109-2.302.606-3.327 1.126-3.493 2.084-4.118 7.344-1.615 10.467zm18.737-7.582c-.258.543-.575 1.614-.636 2.396-.195 2.542.862 4.531 2.055 5.724.962.963 2.129 1.618 3.474 1.908 3.671.793 7.518-1.52 8.365-5.038.123-.515.168-1.381.146-2.056-.093-2.899-1.059-4.273-2.69-5.527-1.24-.952-2.924-1.557-4.892-1.37-2.767.264-4.871 1.959-5.822 3.963z" fill-rule="evenodd"/></svg>