<svg enable-background="new 0 0 68.711 83.287" viewBox="0 0 68.711 83.287" xmlns="http://www.w3.org/2000/svg"><g clip-rule="evenodd" fill-rule="evenodd"><path d="m53.491 1.123c.063.553.701.689 1.141 1.037.43.34.765.881 1.296.984 1.011.197 2.008-.031 2.852 0 2.558.098 4.294 1.385 5.391 3.111.772 1.213 1.088 2.549 1.089 4.613.003 18.979-.053 37.147-.053 56.191 0 3.898-.051 6.688-.051 11.041-.001 1.125.112 2.766.051 4.199-.016.385-.087.957-.414.984-.707.059-.467-1.887-.467-2.332-.003-22.395.052-45.353.053-68.217 0-1.899.13-3.674-.415-5.08-1.018-2.629-3.497-3.978-7.31-3.578.036.834.702 1.473.934 2.281.042.01.052.053.104.051 2.099.377 3.603 1.453 3.991 3.422.26 1.318.052 3.021.052 4.613-.001 22.65-.057 43.928-.052 66.922 0 .629.256 1.711-.415 1.865-.726-.074-.466-1.168-.466-1.865.001-22.51.104-43.865.104-66.506 0-1.744.268-3.92-.207-5.287-.38-1.096-1.336-1.926-2.592-2.074-.277.273-.13.738-.107 1.039.205 2.564.053 5.586.052 8.346-.001 21.761-.052 42.263-.052 64.38 0 .656.266 1.777-.414 1.969-.767-.158-.467-1.42-.467-2.229-.002-13.07-.143-27.172.052-39.707.101-6.471 0-13.981 0-21.148 0-3.502.126-7.443 0-10.783-.128-3.41-1.718-5.522-3.732-6.998-1.225-.715-2.784-1.348-4.82-1.348-1.94 0-4.06-.133-5.857.053.037.461.688.769 1.088 1.088.382.305.912.934 1.4.934 1.968 0 3.765-.082 5.184.518 2.606 1.105 4.146 3.291 4.146 7.154.001 20.822.059 40.922-.052 61.892-.017 3.192.064 6.275 0 9.59-.006.307.117.939-.415.984-.784-.182-.467-1.508-.466-2.332.003-22.6.05-45.6.052-68.27 0-1.894.143-3.668-.467-5.027-1.136-2.533-3.393-4.062-7.309-3.576-.218.404.232.781.414 1.141.207.406.276.895.57 1.191 2.155.361 3.755 1.42 4.096 3.473.229 1.381.052 3.025.052 4.613-.004 22.605-.05 43.982-.052 66.869 0 .621.267 1.727-.415 1.867-.748-.041-.467-1.199-.467-1.867 0-22.227.054-44.414.052-66.816 0-1.547.196-3.236-.052-4.51-.271-1.391-1.227-2.332-2.799-2.541-.26.701-.052 1.451-.052 2.178-.001 8.541 0 17.559 0 26.334 0 14.675-.052 29.861-.051 45.201 0 .346.009.813 0 1.191-.007.258.133.824-.363.83-.823-.037-.519-1.311-.519-2.074-.003-23.055.052-45.574.052-68.58 0-1.715.153-3.463-.155-4.924-.296-1.402-.904-2.467-1.606-3.473-.984-1.166-2.238-2.168-4.044-2.748-1.658-.531-3.84-.484-6.323-.467-3.046.023-6.678-.104-9.901 0-.511.018-2.733.244-2.799-.361-.084-.779 1.661-.504 2.487-.52 4.419-.082 9.232.053 13.893.053 5.643 0 10.883.051 16.329.051 2.728 0 5.728-.178 7.775.416 2.119.613 3.708 1.752 4.872 3.369 1.222 1.697 1.763 3.629 1.763 6.479.001 8.1 0 16.629 0 24.777 0 2.732.071 5.342 0 7.932-.07 2.564.092 5.156 0 7.828-.177 5.123-.052 10.801-.052 16.225v14.463c0 .363.127 1.605-.363 1.658-.738.078-.524-1.986-.518-2.385.116-7.178.051-13.652.052-20.994.001-16.789.05-32.162.052-48.674 0-2.211-.152-3.879-.83-5.34-1.215-2.619-3.693-4.82-7.516-4.82-1.839 0-3.824-.129-6.014.051z"/><path d="m21.871 3.041c4.483.002 8.767 0 12.907 0 2.318.002 4.147.016 5.599.83 1.284.721 2.386 1.832 3.007 3.422.576 1.473.457 3.875.414 5.805-.14 6.279 0 12.746 0 19.18.001 16.398-.054 32.879-.052 49.66 0 .607.076 1.201-.362 1.244-.653.062-.429-1.123-.467-1.918-.097-2.029.006-5.113-.052-6.842-.103-3.096.052-6.18.052-9.332.001-17.709.051-34.254.052-51.68 0-1.615.13-3.246-.104-4.615-.448-2.627-2.438-4.576-5.288-4.82-3.172-.272-6.302-.053-9.952-.051-1.847 0-3.264-.014-4.977-.053-.492-.012-1.148.109-1.088-.467.02-.195.035-.217.311-.363z"/><path d="m21.56 6.826c.05-.719 1.482-.357 2.125-.416 2.405-.215 6.436 0 9.59 0 1.693.002 3.272-.156 4.406.313 1.206.498 2.128 1.396 2.488 2.643.335 1.162.155 2.9.155 4.562 0 17.236-.05 33.604-.052 51.369-.001 5.363.06 10.471 0 16.07-.005.461.118 1.768-.415 1.815-.62.055-.447-1.109-.467-1.918-.133-5.533.001-10.643 0-16.121-.001-17.475.054-33.789.052-51.215 0-1.734.155-3.666-.311-4.717-.372-.84-1.083-1.449-2.073-1.764-1.046-.332-2.421-.207-3.836-.207-3.368 0-6.722 0-10.108 0-.469 0-1.362.262-1.554-.414z"/><path d="m36.956 17.453c.034.578-.622.42-.985.414-1.371-.023-3.034-.06-4.355.051-1.858.16-3.296.773-4.458 1.453-1.69 1.184-3.077 2.77-3.836 5.027-.774 2.307-.485 5.197-.517 8.242-.12 11.336-.053 23.103-.052 34.887 0 3.072-.305 6.072.518 8.346.779 2.152 2.146 3.846 3.939 4.871 1.055.738 2.579 1.416 4.406 1.504 1.362.066 2.819.045 4.251.053.358.002 1.017-.141 1.036.414-.076.756-.934.43-1.295.414-1.727-.068-3.577-.07-5.34 0-4.66.188-9.343-.051-13.996-.051-2.39 0-4.728.168-6.998-.103-3.947-.473-6.815-2.885-8.242-6.014-1.48-3.246-.933-8.539-.933-13.322 0-9.578.052-18.484.052-27.732 0-4.797-.46-10.021 1.037-13.219 1.366-2.92 4.642-5.517 8.656-5.754 2.258-.133 4.633 0 6.946 0 6.25 0 12.489.018 18.921.053.386.001 1.17-.169 1.245.466zm-28.304.517c-3.613.666-6.403 3.455-7.309 6.842-.393 1.469-.31 3.43-.311 5.393 0 3.828.109 7.482 0 11.092-.105 3.516.128 7.152-.052 10.99-.171 3.682.001 7.439 0 11.301 0 1.783.001 3.756 0 5.648 0 1.896-.135 3.91.208 5.496.635 2.936 2.545 5.131 4.924 6.375 1.189.623 2.736 1.08 4.561 1.09 1.793.008 3.795.035 5.651-.053.095-.334-.316-.516-.519-.674-.751-.586-1.427-1.271-2.178-1.762-2.447.062-4.963.07-6.686-.934-1.616-.943-2.909-2.463-3.266-4.562-.155-.912-.105-1.93-.105-2.953.001-7.199.053-13.559.053-20.787 0-6.131 0-12.361 0-18.455 0-2.061-.191-4.24.103-6.064.359-2.225 1.626-3.684 3.11-4.561.827-.49 1.76-.861 2.902-.934 1.124-.072 2.545.279 3.836-.053.611-.156.957-.748 1.503-1.191.511-.414 1.189-.76 1.348-1.297-2.341-.072-5.618-.343-7.773.053zm12.13-.103c-1.759.104-3.401.691-4.561 1.504-1.814 1.27-3.61 3.688-4.043 6.272-.257 1.535-.174 3.279-.155 5.027.123 11.732-.051 24.191-.052 35.871-.001 3.396-.323 7.297.674 9.695.985 2.371 2.783 4.332 5.08 5.287 2.388.99 6.355.752 9.59.674-.084-.576-.942-.818-1.4-1.193-.515-.4-.892-.938-1.503-1.244-4.123.305-7.175-.463-8.709-2.746-.232-.701-.635-1.287-.829-1.918-.485-1.578-.311-3.859-.31-6.066 0-12.705.052-25.219.052-37.943 0-2.094-.126-4.58.362-6.065.253-.768.662-1.592 1.089-2.178 1.163-1.598 3.052-2.332 5.702-2.334.808 0 1.858.176 2.644-.051.531-.152 1.006-.883 1.451-1.244.566-.461 1.23-.619 1.504-1.244-1.893-.092-4.444-.231-6.586-.104zm-16.173 8.242c-.168 1.074-.132 2.688-.103 3.99.186 8.642-.052 18.117-.052 26.748 0 4.809.185 10.184 0 14.826-.107 2.678.578 4.488 2.021 5.754 1.352 1.186 3.853 1.746 6.272 1.244.026-.445-.309-.869-.519-1.297-.205-.416-.346-.947-.726-1.191-1.521-.17-3.019-.785-3.784-2.021-.906-1.465-.622-4.201-.622-6.738 0-11.449.052-23.103.052-34.732 0-2.006-.22-4.273.208-5.648.534-1.725 2.2-2.797 4.198-2.955.474-.822.936-1.656 1.244-2.645-4.236-.78-7.646 1.198-8.189 4.665zm11.404-1.658c-.85 1.881-.519 5.318-.519 7.982-.001 12.006-.052 24.385-.052 36.492 0 2.1-.232 4.43.155 5.961.347 1.367 1.478 2.596 2.748 3.266 1.244.658 3.551 1.004 5.184.57-.278-.947-.761-1.691-1.192-2.486-2.558-.213-4.308-1.711-4.406-4.562-.127-3.654.052-7.217.052-10.887-.001-8.777.001-18.848 0-28.199 0-2-.184-4.111.207-5.494.476-1.684 2.06-2.764 4.096-2.902.475-.809 1.035-1.791 1.244-2.695-3.503-.624-6.473.641-7.517 2.954zm-4.925 48.517c-.088-2.012 0-4.039 0-6.064 0-4.072 0-7.828 0-12.025 0-6.043.053-12.158.052-18.142 0-3.256-.18-7.399.104-10.576.046-.518.174-1.098-.415-1.035-1.195.123-2.28 1.094-2.644 2.229-.426 1.328-.155 3.76-.155 5.547 0 11.576-.052 22.981-.052 34.469 0 1.822-.262 4.295.155 5.598.39 1.215 1.499 2.232 3.059 2.127.189-.419-.072-1.424-.104-2.128zm10.783.209c-.162-4.061 0-8.051 0-12.131-.001-7.773.053-16.164.052-24.207 0-2.838-.102-6.143 0-9.123.024-.688.403-2.529-.207-2.541-1.096-.021-2.101.984-2.488 1.815-.547 1.172-.362 3.557-.362 5.547-.002 11.865-.051 23.191-.053 35.145 0 1.975-.221 4.463.312 5.65.455 1.016 1.347 1.869 2.799 1.814.225-.387-.028-1.328-.053-1.969z"/><path d="m36.956 20.925c.025.627-.692.467-1.037.467-2.446 0-4.962-.17-6.583.674-1.978 1.029-3.059 3.059-3.059 5.908.002 14.582-.052 28.998-.052 44.166 0 4.557 2.163 6.736 6.686 6.738h2.229c.783 0 1.762-.107 1.762.467 0 .354-.107.393-.829.414-2.904.09-5.781.123-7.516-.932-2.003-1.221-3.214-3.16-3.215-6.48 0-3.209-.071-6.436.052-9.539.123-3.059-.211-6.156-.052-9.537.299-6.309.052-12.922.052-19.334 0-1.615 0-3.275 0-4.873 0-1.635.002-3.145.467-4.356.769-2 2.847-3.988 5.702-4.199 1.281-.094 2.963-.027 4.354 0 .383.008.982-.099 1.039.416z"/><path d="m36.956 24.709c-.233.811-1.336.416-2.021.416-.833 0-1.735-.08-2.437.051-1.314.244-2.261 1.17-2.592 2.436-.371 1.416-.128 4.088-.104 5.652.029 1.906.004 3.842-.052 5.545-.127 3.92.163 7.422.052 11.404-.155 5.6-.051 11.291-.052 17.314 0 1.906-.237 4.35.208 5.598.658 1.848 2.07 2.178 4.768 2.178.885 0 2.131-.154 2.177.414.052.633-.935.42-1.866.414-.725-.004-1.756.055-2.384 0-1.968-.172-3.598-1.662-3.784-3.783-.222-2.516 0-5.25 0-7.932 0-10.189.053-19.961.052-29.701 0-2.225-.199-4.598 0-6.637.203-2.068 1.861-3.67 3.836-3.836.672-.055 1.55 0 2.333 0 .676 0 1.681-.201 1.866.467z"/></g></svg>