<svg enable-background="new 0 0 75.044 70.949" viewBox="0 0 75.044 70.949" xmlns="http://www.w3.org/2000/svg"><g clip-rule="evenodd" fill-rule="evenodd"><path d="m40.403 0c.651.229 1.75 1.153 2.314 1.61 2.129 1.723 4.344 3.398 6.44 5.031 5.819 4.411 11.507 8.954 17.258 13.434 2.167 1.65 4.294 3.373 6.49 5.031.721.544 1.528 1.019 2.063 1.761.091 14.082.126 29.185-.051 43.774-.533-.026-.878-.473-1.258-.755-4.93-3.66-9.581-7.36-14.591-11.22-.304-.234-.681-.581-1.107-.906-.395-.301-.952-.626-1.057-.905-.282-.758-.05-2.85-.05-3.824-.001-8.703.1-17.983.05-26.867-.281-.599-1.503-1.408-2.062-1.862-2.063-1.671-4.301-3.272-6.29-4.88-1.454-1.027-2.762-2.202-4.226-3.221-.66-.567-1.378-1.125-2.063-1.66-.533-.417-1.798-1.082-2.012-1.711-.237-.692-.051-2.231-.051-3.17 0-3.014-.059-6.886.101-9.509-.001-.086.038-.129.102-.151z"/><path d="m.252.252c.554.182 1.591 1.134 2.264 1.66 4.99 3.902 10.219 7.756 15.145 11.623 1.444 1.133 2.821 2.325 4.277 3.421 2.886 2.173 5.701 4.472 8.604 6.692 1.44 1.102 2.944 2.141 4.276 3.37.067 14.853.13 29.691-.101 43.824-.502.027-.813-.449-1.157-.705-5.444-4.042-10.945-8.33-16.302-12.528-5.034-3.907-10.1-7.859-15.194-11.773-.706-.542-1.54-1-2.063-1.76.016-14.587-.049-29.259.1-43.673.028-.073.079-.123.151-.151z"/><path d="m20.328.353c.562.14 1.633 1.063 2.315 1.61 7.885 6.319 16.036 12.25 23.949 18.465 1.44 1.131 2.883 2.254 4.327 3.371 1.441 1.115 3.013 2.1 4.227 3.472-.048 14.52.103 30.082-.101 43.673-.513.067-.845-.434-1.208-.704-.384-.286-.814-.548-1.157-.855-4.615-3.582-9.315-7.098-13.987-10.667-.654-.5-1.367-.984-1.861-1.66-.128-10.324.116-20.557-.05-30.691-.526-.729-1.307-1.228-2.014-1.762-3.485-2.631-7.055-5.346-10.515-8.1-1.384-1.103-2.841-2.11-4.076-3.371-.094-4.21-.012-8.376.051-12.63-.003-.087.036-.131.1-.151z"/></g></svg>