<svg enable-background="new 0 0 77.043 49.868" viewBox="0 0 77.043 49.868" xmlns="http://www.w3.org/2000/svg"><path clip-rule="evenodd" d="m22.719 0c.382.138.826 1.486 1.109 2.121 2.271 5.089 4.236 10.458 6.459 15.473 2.273 5.13 4.334 10.211 6.556 15.377.299.695.555 1.48 1.061 2.072.583-.385.657-1.303.915-2.024 2.824-7.867 5.29-16.173 8.098-24.149.515-1.463 1-2.925 1.495-4.386.485-1.435.964-2.88 1.59-4.242.473.306.625.927.819 1.397 1.465 3.544 3.06 7.111 4.531 10.701 3.771 9.197 7.808 18.365 11.714 27.476.866 2.02 1.724 4.025 2.603 6.073.427.992.764 2.052 1.398 2.941 1.411.042 3.23.097 4.771.097.44 0 1.146-.144 1.205.386v.145c-.031.562-.729.386-1.061.386-6.737-.001-13.449-.051-20.004-.048-.324 0-.969.154-1.012-.387 0-.031 0-.063 0-.096-.013-.585.715-.434 1.156-.434 1.431 0 3.34.073 4.579-.097.052-.604-.25-1.196-.481-1.735-3.39-7.914-6.887-15.812-10.268-23.812-.457-1.791-1.302-3.364-1.976-5.013-.295-.722-.577-1.464-.868-2.169-.289-.699-.47-1.485-1.012-2.024-.538.581-.642 1.404-.868 2.121-2.532 8.052-5.551 16.172-8.146 24.245-.948 2.947-1.855 5.906-3.037 8.725-.485-.494-.706-1.212-.964-1.831-1.625-3.894-3.352-7.827-5.013-11.762-.265-.628-.531-1.274-.915-1.832-4.764-.128-10.121-.243-14.991-.048-1.128 2.301-1.698 4.94-2.506 7.472-.804 2.517-1.836 4.947-2.41 7.423.67.333 1.894.193 3.037.193.466 0 1.082-.011 1.591 0 .457.009 1.093-.031.964.626-.176.534-.933.338-1.446.338-2.958 0-5.431-.049-8.532-.049-.718 0-3.072.33-2.844-.627.134-.563 2.289-.337 2.988-.337 1.24 0 2.037.1 3.085 0 .708-.726.847-1.81 1.157-2.748.622-1.88 1.328-3.778 1.976-5.735.322-.972.711-1.938.964-2.892.078-.295.065-.626.144-.915.204-.746.521-1.512.771-2.267.738-2.228 1.518-4.546 2.314-6.796 1.071-3.025 1.987-6.113 3.037-9.11 2.125-6.066 3.985-12.18 6.17-18.076-.002-.085.036-.128.097-.147zm-4.098 14.22c-.536 1.439-1.05 3.018-1.59 4.531-1.349 3.778-2.562 7.664-3.808 11.376-.258.768-.633 1.529-.627 2.361 1.083.263 2.297.145 3.471.145 2.457.001 4.83.015 7.086.049 1.194.018 2.387.099 3.471-.145-.119-.854-.536-1.638-.868-2.41-2.319-5.398-4.523-10.74-6.893-16.052-.032 0-.065 0-.097 0-.069.027-.118.075-.145.145z" fill-rule="evenodd"/></svg>