<svg clip-rule="evenodd" fill-rule="evenodd" stroke-linejoin="round" stroke-miterlimit="2" viewBox="0 0 560 400" xmlns="http://www.w3.org/2000/svg"><path d="m559.2 252.1c-26.1 0-47.9 18.2-53.5 42.7l-109.6-24.7 60-94.9c21.2 13.3 49.5 10.8 68-7.6 21.4-21.4 21.4-56.2 0-77.6s-56.2-21.4-77.6 0c-18.5 18.5-21 46.8-7.6 68l-94.9 60-24.7-109.6c24.4-5.6 42.7-27.4 42.7-53.5-.1-30.3-24.6-54.9-55-54.9-30.3 0-54.9 24.6-54.9 54.9 0 26.1 18.2 47.9 42.7 53.5l-24.7 109.6-94.9-60c13.3-21.2 10.8-49.5-7.6-68-21.4-21.4-56.2-21.4-77.6 0s-21.4 56.2 0 77.6c18.5 18.5 46.8 21 68 7.6l60 94.9-109.6 24.7c-5.6-24.4-27.4-42.7-53.5-42.7-30.3 0-54.9 24.6-54.9 54.9s24.6 54.9 54.9 54.9c26.1 0 47.9-18.2 53.5-42.7l109.6 24.7-60 94.9c-21.2-13.3-49.5-10.8-68 7.6-21.4 21.4-21.4 56.2 0 77.6s56.2 21.4 77.6 0c18.5-18.5 21-46.8 7.6-68l94.9-60 24.7 109.6c-24.4 5.6-42.7 27.4-42.7 53.5 0 30.3 24.6 54.9 54.9 54.9s54.9-24.6 54.9-54.9c0-26.1-18.3-47.9-42.7-53.5l24.7-109.6 94.9 60c-13.3 21.2-10.8 49.5 7.6 68 21.4 21.4 56.2 21.4 77.6 0s21.4-56.2 0-77.6c-18.5-18.5-46.8-21-68-7.6l-60-94.9 109.6-24.7c5.6 24.4 27.4 42.7 53.5 42.7 30.3 0 54.9-24.6 54.9-54.9.1-30.3-24.5-54.9-54.8-54.9z" fill-rule="nonzero" transform="matrix(.439739 0 0 .439739 145 65)"/></svg>