<svg enable-background="new 0 0 77.357 51.646" viewBox="0 0 77.357 51.646" xmlns="http://www.w3.org/2000/svg"><g clip-rule="evenodd" fill-rule="evenodd"><path d="m51.393 4.298c-1.129.09-2.453.051-3.722.051-1.251 0-2.563-.146-3.524.197-.19 4.812-.152 10.029 0 14.988.46-.676.481-1.521.695-2.283 1.271-4.533 3.227-8.49 6.253-11.465.493-.484 1.099-1.092 1.688-1.24.798-.199 1.949-.057 2.878-.098 3.152-.145 7.167-.057 10.224.049-.182.42-.658.562-.992.793-2.359 1.631-4.277 3.877-5.757 6.502-2.445 4.336-4.498 10.246-3.673 16.924.747 6.041 3.157 11.043 6.253 14.787 1.03.959 2.004 1.984 3.177 2.83.374.27.882.428 1.092.893-2.992.068-6.597.1-9.926.1-1.131 0-2.326.145-3.275-.1-.569-.146-1.185-.773-1.688-1.24-1.559-1.449-2.62-3.15-3.722-5.062-.699-1.217-1.325-2.563-1.836-4.02-.505-1.439-.784-3.018-1.34-4.467-.343 4.934-.141 9.688-.1 14.689 1.078.268 2.461.15 3.772.15 1.346 0 2.677-.074 3.821.098-.397.373-.984.502-1.489.695-.521.201-1.092.35-1.638.496-2.723.738-5.412 1.746-8.188 2.631-.576.184-1.286.48-1.787.447-1.075-.072-2.282-.656-3.424-.992-2.251-.666-4.438-1.445-6.7-2.135-.562-.172-1.143-.307-1.688-.496-.525-.184-1.122-.264-1.539-.646 2.227-.287 5.118.09 7.345-.197.266-1.1.149-2.32.149-3.523 0-1.176-.001-2.371-.05-3.523-.101-2.397.293-4.889-.099-7.147-.567 1.387-.831 2.852-1.34 4.219-.992 2.656-2.155 5.098-3.971 7.144-.855.965-1.793 2.119-2.878 2.631-.247.117-.681.264-.992.299-1.883.211-4.105 0-6.154 0-2.117 0-4.255-.109-6.154-.1-3.477.018-7.398.227-10.968-.051-.202-13.824-.136-28.463 0-42.629.796-.262 1.724-.148 2.63-.148 2.641 0 5.663-.082 8.188.1-.177 3.307-.1 7.664-.1 11.463.001 9.539 0 19.158 0 28.734 0 .791-.141 1.639.199 2.383 1.742-.768 3.089-2.168 4.367-3.574 1.251-1.377 2.262-3.043 3.077-4.814 1.685-3.66 2.927-7.762 2.928-12.854.001-5.074-1.238-9.269-2.928-12.853-1.443-3.059-3.522-5.816-6.204-7.642-.341-.231-.773-.457-.993-.842 2.493-.01 4.987-.209 7.543-.1 1.589.067 3.219-.117 4.665.049 1.242.143 2.717 1.658 3.524 2.58 1.913 2.188 3.101 4.516 4.219 7.394.546 1.406.783 2.949 1.34 4.418.265-2.207.149-4.67.149-7.098 0-2.418.041-4.853-.05-7.146-1.049-.297-2.467-.26-3.772-.197-1.294.061-2.608.076-3.722-.1 2.069-.883 4.324-1.43 6.551-2.135 2.198-.695 4.353-1.6 6.551-2.084.889-.195 2.484.615 3.523.943 2.709.854 5.436 1.846 8.139 2.631.498.142 1.134.226 1.443.693z"/><path d="m77.2 4.448c.241.633.099 1.357.099 2.084 0 2.129.005 4.545 0 6.65-.001.475.186 1.029-.099 1.438-3.414.149-7.146.258-10.521.051-.27-3.199-.094-6.836-.049-10.125.212-.178.668-.186.942-.197 3.021-.143 6.678.025 9.628.099z"/><path d="m77.2 25.389c.251 3.51.108 7.193.099 10.869-.009 3.637.094 7.359-.099 10.918-3.294.164-7.277.166-10.57 0-.157-7.082-.127-14.635.049-21.736 3.293-.168 7.191-.248 10.521-.051z"/></g></svg>