<svg enable-background="new 0 0 43.896 40.209" viewBox="0 0 43.896 40.209" xmlns="http://www.w3.org/2000/svg"><path d="m19.451.632c1.325-1.066 3.666-.802 4.281.927.625 1.918-.308 3.992-1.676 5.355 1.504.47 2.96 1.076 4.43 1.636 1.466-1.625 3.325-3.096 5.56-3.387 1.62-.159 3.473-.148 4.769.988.65.527.953 1.381.856 2.203-.409 1.045-1.415 1.681-2.469 1.938-2.897.759-5.866-.13-8.58-1.143-2.978 3.451-4.948 7.635-6.693 11.808.127 1.238.009 2.491.071 3.735.57.02 1.14-.01 1.71.011.006.101.014.206.022.31-1.738.036-3.477.023-5.216.01-.018-.111-.035-.221-.047-.33.581.007 1.163.006 1.745-.001.096-1.237.009-2.486.031-3.727-1.076-2.329-2.148-4.664-3.304-6.953-.958.005-1.915-.016-2.873.008.021 3.562-.064 7.132.051 10.689.506-.024 1.012-.016 1.518-.009-.002.104-.005.207-.006.313-1.622.031-3.246.019-4.868.004-.008-.106-.015-.211-.022-.313.554-.006 1.109-.017 1.662 0-.039-3.319.013-6.636-.033-9.952-1.47 3.309-2.664 6.747-4.189 10.024-1.366-3.213-2.795-6.399-4.176-9.606-.128 2.985-.064 5.979.005 8.966.175.772 1.131.524 1.714.574.012.104.023.21.035.317-1.244.014-2.488.027-3.731-.005-.007-.104-.013-.207-.019-.31.57-.024 1.544.158 1.596-.662.031-3.289.013-6.579.005-9.868-.056-.052-.112-.102-.167-.152-.434-.02-.868.001-1.303-.019-.032-.034-.104-.1-.14-.133.845-.504 2.211-.159 3.251-.178 1.248 2.797 2.486 5.597 3.679 8.417 1.171-2.797 2.309-5.608 3.404-8.433 2.716-.109 5.445-.032 8.164-.031-.001.104-.001.21-.001.316-.498.082-1.004.031-1.505.048.944 2.019 1.853 4.048 2.817 6.057 1.566-3.981 3.611-7.812 6.297-11.154-1.49-.515-2.937-1.281-4.473-1.585-3.114 2.518-7.27 3.506-11.217 3.147-1.34-.158-2.858-.401-3.791-1.476-.728-.738-.531-2.058.261-2.668.692-.591 1.609-.757 2.461-.991 3.817-.483 7.655.185 11.358 1.079 1.116-1.38 1.804-3.421.995-5.107-.456-.853-1.59-.641-2.282-.225.009-.155.02-.308.033-.462zm7.567 8.163c2.135.744 4.359 1.576 6.663 1.217.991-.097 2.147-.684 2.283-1.776.302-1.23-.726-2.443-1.926-2.608-2.719-.545-5.399 1.099-7.02 3.167zm-17.34-2.821c-1.411.181-2.323 1.963-1.305 3.087 1.06 1.032 2.674 1.048 4.06 1.079 2.897-.043 5.896-1.138 7.872-3.31-3.431-.865-7.119-1.708-10.627-.856z"/><path d="m24.397 16.938c.926-2.528 4.088-4.332 6.636-3.035.579.185 1.113.993 1.734.57.058-.188.122-.374.195-.555.099.035.198.071.297.109.027 1.105-.023 2.21.02 3.314-.104.029-.208.058-.312.088-.082-2.253-2.454-4.191-4.673-3.509-1.263.31-1.919 1.605-2.183 2.776-.417 1.961-.43 4.041.092 5.984.036-.003.108-.011.144-.015 1.583-1.512 3.773-2.87 6.046-2.258 1.242.203 1.873 1.787 1.31 2.85-.585 1.351-2.19 1.804-3.532 1.952-1.603.223-3.214-.321-4.464-1.323-2.142 2.15-3.96 4.609-6.259 6.603 1.222.346 2.431.735 3.655 1.073 3.049-2.761 7.405-3.905 11.419-3.066 1.153.256 2.537.604 3.103 1.756.534 1.374-.769 2.616-2.013 2.923-3.842 1.195-7.858-.052-11.645-.859-1.394 1.647-2.524 3.857-2.03 6.058.127 1.178 1.625 1.413 2.439.771.025.025.075.077.101.103-.005.096-.011.192-.016.291-1.329 1.087-3.712.894-4.349-.869-.759-2.539.907-4.964 2.527-6.765-1.251-.269-2.442-.779-3.689-1.045-2.168 1.708-4.838 2.934-7.65 2.804-1.442.01-2.987-.086-4.216-.922-1.11-.785-1.195-2.684-.035-3.463 1.735-1.272 4.063-1.012 6.038-.561 1.934.467 3.83 1.074 5.746 1.6 2.439-2.018 4.352-4.564 6.553-6.82-1.689-1.679-1.876-4.44-.989-6.56zm6.183 3.833c-1.449.081-2.579 1.124-3.669 1.971-.181.174-.545.373-.366.669 1.005 1.84 3.98 1.937 5.32.438.957-1.06.296-3.253-1.285-3.078zm-6.221 11.131c3.222.775 6.596 1.823 9.914 1.056.972-.189 1.913-1.053 1.754-2.112-.085-.893-.944-1.453-1.708-1.756-3.498-1.197-7.488.175-9.96 2.812zm-14.414-2.949c-1.333.024-2.285 1.413-1.801 2.658.334 1.007 1.475 1.42 2.435 1.565 2.775.249 5.652-.697 7.741-2.534-2.745-.743-5.473-1.952-8.375-1.689z"/><path d="m34.383 13.636c2.362.088 4.776-.254 7.097.269 1.097.273 2.212 1.201 2.099 2.434.141 1.516-1.368 2.622-2.767 2.66 1.428.171 3.028 1.075 3.069 2.681.205 1.911-1.682 3.456-3.503 3.338-1.997.014-3.994.013-5.991.006-.012-.101-.024-.2-.035-.297.559-.065 1.124-.02 1.686-.034-.044-3.549.024-7.103-.041-10.649-.516-.121-1.116.064-1.654-.108.012-.102.026-.202.04-.3zm3.366.368c-.044 1.598.006 3.198-.016 4.797 1.062.008 2.203.105 3.19-.345 1.254-.774 1.23-2.834.126-3.731-.907-.81-2.172-.721-3.3-.721zm-.016 5.119c.005 1.856.02 3.715-.007 5.571 1.101-.046 2.344.101 3.293-.572 1.069-.933 1.296-2.716.487-3.882-.881-1.161-2.462-1.115-3.773-1.117z"/></svg>