<svg enable-background="new 0 0 28.69 47.229" viewBox="0 0 28.69 47.229" xmlns="http://www.w3.org/2000/svg"><path d="m5.673.073c2.837-.131 5.684-.027 8.524-.067 1.688.038 3.68-.272 4.966 1.087 2.012 2.011 1.435 5.59-.721 7.281.87.712 1.856 1.395 2.347 2.439-.096.486-.586.795-.887 1.169-.772-1.577-2.291-2.967-4.155-2.839-2.354.015-4.711-.034-7.062.031-.795.223-.763 1.102-.727 1.766-.548-.633-1.45-1.219-1.336-2.165-.009-2.123 0-4.245-.017-6.366-.019-.516-.505-.806-.922-.998-.016-.446.001-.892-.01-1.338zm3.061 1.39c-.521.148-.901.65-.839 1.201.047 1.3.06 2.601.056 3.903-.059.561.455 1.085.996 1.136 2.564.008 5.128.005 7.693 0 3.076-.274 3.245-5.804.172-6.258-2.691-.032-5.39-.049-8.078.018z"/><path d="m26.451 4.911c.61-.194 1.309-.042 1.954-.084-.483.688-1.291 1.219-1.441 2.09.004 2.88-.006 5.76.056 8.637.07.809-.942.346-1.431.472.003-2.618-.05-5.228-.07-7.846-3.852 4.435-7.345 9.143-11.1 13.653-3.843-4.445-7.391-9.139-11.281-13.547-.047 2.571.002 5.158 0 7.735-.446.056-.955.149-1.377.023-.191-.608-.001-1.291-.107-1.926.032-2.393-.041-4.786-.047-7.18-.151-.848-.944-1.375-1.438-2.031.633-.029 1.266-.007 1.899-.018 4.216 4.815 8.185 9.849 12.317 14.727 1.744-1.914 3.34-4.017 4.911-6.091 2.322-2.922 4.787-5.732 7.155-8.614z"/><path d="m6.682 13.206c.528.683 1.478 1.279 1.299 2.26.057 7.32.068 14.651.106 21.965.066.573.663.878 1.173.969 1.337.176 2.689.026 4.032.088.024.449-.003.898.014 1.348-2.481-.025-4.998.138-7.458-.078.009-.427.004-.853.004-1.28.457-.178.94-.483.928-1.039.006-8.079-.128-16.152-.098-24.233z"/><path d="m21.697 13.556c.044-.005.132-.016.176-.021.724 3.077.574 6.26.593 9.397.025 3.167-.004 6.335.037 9.501.024 1.693.208 3.543-.71 5.053-1.295 1.997-3.899 2.464-6.113 2.365.014-.457-.026-.919.071-1.37 1.646-.042 3.558-.117 4.69-1.506.537-.567.668-1.406.679-2.158-.012-4.511-.015-9.024-.081-13.53-.037-2.027.083-4.063-.237-6.073-.205-.715.583-1.116.895-1.658z"/><path d="m.068 16.535c1.705.016 3.422-.006 5.132-.012-.012.037-.035.112-.047.149-.554.142-.753.823-.468 1.284.471.593 1.041 1.108 1.479 1.726.072.749.025 1.51.027 2.263-1.831-1.757-3.168-4.755-6.067-4.767-.227-.14-.078-.437-.056-.643z"/><path d="m23.426 16.534c1.719-.059 3.45.044 5.162-.09.042.204.078.409.103.616-.924.067-1.968.109-2.647.841-1.002 1.098-1.969 2.23-2.905 3.384-.045.004-.136.013-.181.017.035-.701-.031-1.405.019-2.105.27-.686 1.282-1.058 1.101-1.902-.079-.346-.4-.547-.652-.761z"/><path d="m1.712 18.09c.62.15 1.216.6 1.467 1.189.069 6.331-.007 12.67.109 19 .044 1.429-.193 2.952.475 4.279-.784.031-1.569.026-2.353.006.43-1.003.481-2.105.439-3.181-.076-7.095-.041-14.194-.137-21.293z"/><path d="m25.61 19.611c-.079-.822.762-1.264 1.374-1.599.193 6.937.123 13.907.164 20.859-.041 1.226.037 2.468.432 3.63-.748.088-1.537.082-2.291-.017.75-1.432.33-3.089.472-4.628-.148-6.078.006-12.168-.151-18.245z"/><path d="m14.458 29.294c2.088-2.394 4.047-4.893 6.115-7.297.059.723.014 1.452.031 2.177-1.755 2.179-3.557 4.348-5.405 6.459-.05 1.919-.035 3.856.005 5.78-.014 2.89.065 5.781.042 8.675-.036.736.181 1.45.473 2.118-.783.026-1.568.033-2.351.003.26-.712.48-1.46.441-2.226.033-2.798-.087-5.595-.035-8.388-.041-.227-.037-.459-.017-.688-.042-1.736-.018-3.474-.02-5.211-1.722-2.008-3.489-3.987-5.186-6.013-.015-.731-.058-1.474.015-2.204 1.97 2.266 3.901 4.57 5.892 6.815z"/></svg>