<svg enable-background="new 0 0 77.976 77.715" viewBox="0 0 77.976 77.715" xmlns="http://www.w3.org/2000/svg"><g clip-rule="evenodd" fill-rule="evenodd"><path d="m77.796.259c.193 1.597.098 3.225.098 4.827 0 4.816-.045 9.831.049 14.726.122 6.384-.143 12.768-.049 19.113.19 12.836-.029 25.655-.049 38.617-.75.264-1.556.146-2.34.146-24.964.007-50.601-.047-75.332-.146-.289-1.505-.096-3.049-.097-4.584-.023-20.219-.05-41.875-.05-63.142 0-3.246-.118-6.503.146-9.703 21.012-.255 43.25.002 64.46 0 4.405 0 8.799-.114 13.164.146zm-70.017 1.317c-1.565 0-3.2-.173-4.632 0-.458.055-1.198-.039-1.561.195-.236 2.962-.066 5.971-.098 8.972-.031 2.979.072 5.963-.048 8.972-.062 1.537.122 3.119.048 4.681-.211 4.466.126 9.139-.048 13.799-.116 3.095.048 6.258.048 9.41v26.135c0 .749-.114 1.526.147 2.243 21.72.084 43.831.098 65.629.098 2.242 0 4.456-.112 6.826 0 .715.033 1.497.192 2.194-.098.206-23.5.049-47.058.049-69.628 0-1.594.174-3.155-.097-4.583-22.466-.168-45.796-.193-68.457-.196z"/><path d="m55.563 3.478c-.026.812-.438 1.566-.732 2.291-4.434 10.938-8.747 22.083-13.165 33.107-.298.744-.59 1.485-.878 2.243-.285.75-.479 1.537-.78 2.291-3.515 8.789-7.008 17.673-10.531 26.477-.58 1.448-1.05 2.967-1.804 4.34-7.76.22-16.473.216-24.476.048.325-1.554 1.099-2.962 1.657-4.437 1.671-4.41 3.499-8.858 5.218-13.312 2.285-5.922 4.644-11.816 7.021-17.699 4.759-11.778 9.25-23.655 14.091-35.35.04-.01.049-.05.098-.049.036-.046.088-.074.146-.098 8.049.067 16.229-.025 24.135.148z"/><path d="m74.383 3.527c.162 6.87.162 14.436 0 21.355-6.067.184-12.516.098-18.87.098-2.06 0-4.19.188-6.046-.098.508-1.891 1.327-3.656 2.048-5.461 1.419-3.554 2.83-7.12 4.242-10.678.702-1.77 1.335-3.569 2.194-5.266 5.209-.184 11.401-.107 16.432.05z"/><path d="m74.383 28.637c.205 3.082.097 6.531.098 9.946 0 1.691.079 3.37.049 5.022-.03 1.639.105 3.265-.146 4.778-11.03.157-22.706.245-34.034 0-.022-.953.404-1.797.731-2.633 1.919-4.9 3.871-9.89 5.851-14.823.318-.791.594-1.627 1.073-2.34 8.518-.047 17.894-.144 26.378.05z"/></g></svg>