<svg enable-background="new 0 0 78.747 79.601" viewBox="0 0 78.747 79.601" xmlns="http://www.w3.org/2000/svg"><path clip-rule="evenodd" d="m66.394 11.075c3.41 3.215 6.186 6.994 8.364 11.432 2.145 4.37 3.729 9.661 3.959 15.787.36 9.6-2.499 17.354-6.285 23.309-1.278 2.011-2.756 3.96-4.306 5.543-6.494 6.635-14.978 11.843-27.12 12.422-3.258.155-6.293-.256-9.106-.792-8.296-1.581-14.381-5.376-19.598-10.046-3.37-3.069-6.13-6.977-8.265-11.531-2.109-4.499-3.777-9.572-4.009-15.738-.246-6.554 1.126-12.022 3.019-16.777 1.866-4.687 4.375-8.829 7.572-12.174 6.468-6.552 14.792-11.881 27.269-12.471 6.578-.312 11.909 1.31 16.628 3.167 4.696 1.848 8.673 4.729 11.878 7.869zm-24.547-6.978c-2.771 2.662-5.626 5.284-8.215 8.017-.075 3.736-.088 7.797 0 11.531.714.548 1.587.745 2.326 1.138 3.86 2.053 6.833 4.78 8.908 8.562.393.716.813 1.598 1.039 2.425.232.849.311 1.834.891 2.623.739-.155 1.257-.72 1.93-1.04 3.463-1.646 7.096.731 8.017 3.365.685 1.959.445 4.474.445 6.978 0 1.223-.031 2.469-.049 3.662-.018 1.2-.102 2.384.149 3.464 3.567.151 7.805.146 11.481.049.264-1.04.149-2.141.149-3.217 0-3.366.222-7.017 0-10.244-.276-4.01-1.897-7.339-3.86-9.799-3.286-4.118-9.231-7.685-16.876-6.434-.956.157-1.845.513-2.771.544-.281-.911-.142-1.927-.099-2.92.045-1.033 0-2.096 0-3.167.001-5.25-.07-10.552.05-15.54.016-.66.253-2.883-.544-2.672-.997.816-2.011 1.752-2.971 2.675zm-20.439 43.501c0-2.425-.244-5.056.445-6.879.467-1.235 1.216-2.121 2.128-2.771 1.498-1.069 4.017-1.32 5.79-.495 1.597.743 2.874 2.18 3.316 4.058.309 1.314.29 2.812.346 4.306.055 1.475.049 3.011.049 4.503v18.509c0 2.338-.049 4.651-.049 6.929 0 .698-.191 1.525.247 2.128.651-.051 1.088-.666 1.534-1.089 2.885-2.738 5.714-5.279 8.562-8.067.469-.459 1.193-.928 1.336-1.435.185-.658.026-1.768 0-2.722-.027-.967 0-1.988 0-2.821 0-5.363.049-11.342.049-16.777 0-2.029-.025-3.759-.297-5.345-.808-4.712-3.365-8.249-6.384-10.689-3.156-2.591-8.273-4.732-14.055-3.712-2.561.452-4.481 1.325-6.384 2.475-3.953 2.389-7.441 6.85-8.265 12.373-.132.886-.05 1.856-.05 2.919.001 3.636-.083 7.669.099 11.729 3.582.165 7.851.165 11.432 0 .26-2.141.151-4.64.151-7.127z" fill-rule="evenodd"/></svg>