<svg enable-background="new 0 0 77.709 40.636" viewBox="0 0 77.709 40.636" xmlns="http://www.w3.org/2000/svg"><path clip-rule="evenodd" d="m47.999 18.956c.627.261 1.383.151 2.105.151 2.08 0 4.36.173 6.368-.05-.313-.775-1.164-1.063-1.705-1.604-2.701-2.701-4.601-6.205-5.014-11.333-.157-1.955-.202-4.138.35-5.967 3.099-.227 6.403-.05 9.678-.05 1.069 0 2.143-.117 3.109.15.071 1.369-.014 2.669.1 3.961.115 1.3.335 2.551.552 3.711.437 2.337 1.464 4.292 2.508 6.017 1.011 1.671 2.711 3.056 4.463 4.062.946.544 2.054.847 3.209 1.053 1.163.208 2.446.15 3.761.451.286.515.297 1.883.05 2.457-1.4.333-2.783.178-4.012.301-3.676.368-6.144 2.654-7.872 5.064-.607.848-1.209 1.724-1.655 2.658-.922 1.931-1.42 4.37-1.805 6.82-.187 1.19-.16 2.471-.552 3.711-3.061.278-6.411-.034-9.527.05-1.019.027-2.043.107-2.958-.15-.27-.462-.14-1.028-.151-1.504-.086-3.638.918-6.625 2.106-9.176 1.171-2.513 3-4.625 4.914-6.469.27-.259.719-.381.803-.802-.624-.269-1.413-.15-2.156-.15-2.178 0-4.656-.135-6.619.1-.269.577-.188 1.22-.301 1.806-1.46 7.566-4.537 13.767-11.733 15.644-1.1.287-2.298.614-3.511.702-1.542.112-3.155 0-4.713 0-3.017 0-6.02-.054-9.076 0-1.514.026-3.038.1-4.514-.15-.355-1.649-.122-3.412-.149-5.165-.056-3.487.086-7.087 0-10.73-.043-1.776-.182-3.543.1-5.215.752-.265 1.614-.15 2.457-.15h15.244c.762 0 2.126.125 2.407-.151.418-.41.038-2.003-.051-2.758-.337-2.855-.913-5.164-2.006-7.17-1.495-2.745-3.189-4.955-6.218-6.067-1.851-.68-4.278-.953-6.819-.953-2.523 0-5.163-.226-7.421.101-.332.645-.201 1.482-.201 2.256-.001 8.784-.05 17.525-.05 26.426 0 2.414-.05 4.746-.05 7.271 0 .781.093 1.982-.151 2.256-.354.398-1.978.201-2.707.201-2.011 0-3.732 0-5.717 0-.96 0-1.935.134-2.657-.201-.27-6.534-.151-13.505-.15-20.458 0-5.742.051-11.904-.051-17.601-.019-1.096-.079-2.117.552-2.256.53-.118 1.376 0 2.106 0h26.977c1.394 0 2.768-.094 4.012.1 2.272.354 4.255 1.249 6.018 2.307 3.559 2.135 5.656 5.22 6.97 9.577.641 2.128 1.003 4.432 1.353 6.916zm-17.601 3.36c-1.39 0-3.098-.187-4.162.05-.61.136-.352 2.954-.352 3.761 0 2.971.051 5.506.051 8.273 0 1.438-.141 2.916.2 3.961 1.731-.011 3.081-.982 3.962-2.056 2.707-3.302 4.214-8.075 4.062-13.789-1.046-.354-2.418-.2-3.761-.2z" fill-rule="evenodd"/></svg>