<svg enable-background="new 0 0 70.868 65.393" viewBox="0 0 70.868 65.393" xmlns="http://www.w3.org/2000/svg"><g clip-rule="evenodd" fill-rule="evenodd"><path d="m44.887 47.16c.689-.115 1.195-.705 1.653-1.137 2.787-2.633 5.634-5.174 8.574-7.852.35-.318 1.232-1.184 1.6-1.137.324.043.783 1.133 1.033 1.602 2.153 4.041 4.322 8.043 6.148 12.191 1.04 2.365 2.438 4.59 3.563 6.92.566 1.174 1.186 2.309 1.757 3.461.581 1.176 1.321 2.299 1.652 3.565-1.214.273-2.689.154-4.132.154-1.432.002-2.884.043-4.184-.051-.591-.34-.862-1.084-1.188-1.705-.964-1.84-1.905-3.668-2.944-5.578-.947-1.742-2.018-3.672-2.996-5.578-.247-.482-.674-1.686-1.084-1.758-.424-.072-.937.52-1.24.775-1.131.953-2.094 1.959-3.202 2.842-3.599 3.434-7.479 6.565-11.157 9.969-.512.473-.984 1.105-1.705 1.291-.28-1.322-.154-2.705-.154-4.029 0-1.369-.052-2.715-.052-4.08-.002-8.174.001-16.113 0-24.225-.002-8.119.001-16.473 0-24.535 0-1.373-.043-2.758 0-4.133.041-1.318.013-2.781.104-3.976-.003-.09.038-.134.102-.156h.104c2.132 3.926 4.502 8.252 6.611 12.449.309.611.791 1.174.93 1.756.265 1.102.038 2.697.052 4.029.087 8.379.001 16.561 0 24.947-.001 1.325-.124 2.694.155 3.979z"/><path d="m32.955.104h.104c.17 21.762.24 43.133.052 65.289-.504-.074-.846-.527-1.188-.826-2.445-2.125-4.759-4.443-7.18-6.715-1.293-1.213-2.686-2.691-4.029-3.926-.944-.867-1.964-1.893-3.047-2.893-.325-.299-.853-.852-1.137-.826-.402.035-.86 1.182-1.136 1.756-.939 1.951-1.991 3.793-2.944 5.58-1.374 2.572-2.43 5.143-3.926 7.438-1.304.141-2.795.103-4.287.103-1.466 0-3.006.123-4.236-.156.336-1.295 1.104-2.42 1.705-3.615 3.527-7.018 7.126-13.926 10.744-21.023.264-.518.548-1.088.878-1.756.246-.498.702-1.549 1.033-1.602.402-.062 1.114.73 1.445 1.033 1.306 1.195 2.635 2.396 3.874 3.514 1.335 1.201 2.382 2.473 3.72 3.666.412.369.863.83 1.446.982.376-.867.157-1.816.154-2.738-.025-8.021.002-16.428 0-24.535 0-1.186-.153-2.449.052-3.461.125-.613.564-1.316.93-1.963 1.75-3.098 3.263-6.283 4.855-9.451.308-.611.67-1.244.982-1.859.365-.721.725-1.468 1.136-2.016z"/></g></svg>