<svg clip-rule="evenodd" fill-rule="evenodd" stroke-linejoin="round" stroke-miterlimit="2" viewBox="0 0 560 400" xmlns="http://www.w3.org/2000/svg"><path d="m.2 0v35.35c30.1 3.84 34.73 12 100.98 115.62l132.28 198.53h65.65v-103.1l-162.6-246.4zm343.32 0h-81.79v133.29h38.37v-26.26c0-28.9 7.48-58.16 43.42-67.66zm-267.28 271.62v-90.88l-36.36-54.52v145.41c0 12.52-12.82 43.42-39.88 50.49v27.39h116.12v-27.89s-39.88-12.03-39.88-50zm441.97-271.62v39.88c35.95 9.5 43.4 40.29 43.4 69.19v24.23l38.39-.01v-133.29zm-28.28 257.61v-257.61h-116.12v252.57c0 37.36-7.57 58.57-39.38 67.66v29.28h192.87v-28.27c-33.32-11.12-37.37-35.35-37.37-63.63z" fill-rule="nonzero" transform="matrix(.57223 0 0 .57223 108.331 100)"/></svg>