<svg clip-rule="evenodd" fill-rule="evenodd" stroke-linejoin="round" stroke-miterlimit="2" viewBox="0 0 560 400" xmlns="http://www.w3.org/2000/svg"><path d="m558.98 73.58c-22.66 0-41.03 18.37-41.03 41.03 0 22.65 18.37 41.02 41.03 41.02s41.02-18.38 41.02-41.02c0-22.66-18.36-41.03-41.02-41.03zm-290.32 164.08h118.92s12.73-3.18 12.72-3.18c-43.62 41.37-82.93 94.35-141.86 114.56-15.79 5.42-32.39 8.17-49.29 8.17-83.06 0-150.64-67-150.64-149.36 0-82.35 67.58-149.36 150.64-149.36 52.54 0 101.52 27.71 128.65 71.68h65.7l-5.65-12.03-.16-.31c-16.83-34.79-43.04-64.2-75.8-85.07-33.64-21.43-72.62-32.76-112.74-32.76-115.32 0-209.15 93.25-209.15 207.86 0 114.63 93.83 207.87 209.15 207.87 23.38 0 46.36-3.81 68.29-11.34 66.36-22.78 112.68-81.4 159.75-130.48l-3.18 15.91v113.19h59.78v-223.22h-225.13z" fill-rule="nonzero" transform="matrix(.481081 0 0 .481081 135.676 100)"/></svg>