<svg enable-background="new 0 0 171.558 126.577" viewBox="0 0 171.558 126.577" xmlns="http://www.w3.org/2000/svg"><g clip-rule="evenodd" fill-rule="evenodd"><path d="m.112.234c6.395-.377 13.233.064 19.704-.181 3.133-.119 6.313-.001 9.467 0 34.514 0 69.505.051 103.546.045 6.324-.001 12.669.001 18.98 0 4.701-.001 9.35-.046 14.041-.045 1.787 0 3.67-.038 5.391.045.008.036.045.045.045.091.24 42.232.162 83.94.271 125.923-.134.239-.175.227-.361.271-.67.165-1.761 0-2.719 0-24.08.004-48.154.087-72.428.091-10.698.003-20.783-.002-31.889 0-7.25.002-14.451.009-21.018.046-6.827.038-14.275-.047-21.379-.046-6.294.001-11.972.045-18.526.046-.9 0-2.817.242-3.035-.272-.141-.333-.045-1.271-.045-1.947 0-30.925-.158-61.884-.091-92.586.023-10.362-.19-21.068.046-31.481zm130.045 15.582c-5.921.031-11.554.046-17.303.045-2.886 0-5.789.08-8.652-.045-5.69-.25-11.432.211-17.076 0-2.8-.106-5.676.045-8.561.045-14.571-.001-28.949-.087-43.394-.09-5.684-.002-12.052-.206-17.484.045-.655.03-1.605-.163-2.039.181-.15 28.082.045 55.2.045 82.937 0 3.981-.107 7.967.136 11.913.607.234 1.263.113 1.903.091 2.102-.073 4.358 0 6.567 0 2.944 0 5.897-.057 8.833-.045 2.838.011 5.713.101 8.561.045 1.399-.028 2.848-.066 4.258 0 1.456.068 2.917-.06 4.349 0 2.905.122 5.845 0 8.787 0 11.873-.001 23.723 0 35.104 0 5.942-.001 11.764 0 17.667 0 14.662-.001 29.264.001 43.892-.136.245-.911.136-1.88.136-2.809 0-7.038-.045-13.765-.045-20.564 0-15.82-.047-31.6-.046-47.244.001-7.848.073-15.677-.045-23.418-.005-.345.038-.611-.136-.861-8.742-.149-17.078-.135-25.457-.09z"/><path d="m86.809 47.614c.561-.448.849-1.161 1.178-1.767 4.439-8.161 8.751-16.506 13.272-24.687.691-1.253 1.255-2.58 2.129-3.714 4.88-.017 9.904-.001 15.038 0 .677 0 1.4-.106 2.038.136-.084.521-.387.985-.634 1.449-1.658 3.102-3.413 6.277-5.118 9.422-.983 1.812-1.836 3.698-2.809 5.526-.963 1.805-2.025 3.554-2.854 5.435.807.283 1.715.206 2.582.182 2.631-.072 5.537 0 8.379 0 10.924.001 22.422-.169 33.564.046.157 8.459.223 17.557.046 26.181-1.235.244-2.559.136-3.85.136-3.637 0-7.557.002-11.46-.136-.238-.801-.136-1.699-.136-2.582 0-2.531.098-5.232-.091-7.791-.962-.334-2.14-.136-3.306-.136-3.371 0-7.065-.114-10.373.091-.276 10.605.071 22.003-.137 32.568-1.186.245-2.48.135-3.76.136-3.859 0-7.742-.119-11.369.09.012.511.358.934.59 1.359 1.164 2.148 2.362 4.323 3.532 6.522.471.885.885 1.796 1.358 2.673 1.417 2.616 2.775 5.256 4.258 7.836.49.851 1.037 1.717 1.314 2.673-4.029.165-8.535.09-12.818.09-1.484 0-2.949.052-4.304-.09-2.124-3.536-4.066-7.227-6.069-10.871-2.005-3.647-3.927-7.33-5.979-10.917-.621-1.226-1.317-2.419-1.993-3.623-.671-1.196-1.259-2.461-2.083-3.533-.55.26-.798 1.043-1.132 1.631-2.362 4.146-4.709 8.446-6.976 12.728-1.952 3.686-3.867 7.377-5.889 11.007-.666 1.195-1.216 2.481-2.039 3.579-5.625.146-11.45.15-17.258 0-.023-.526.366-.941.589-1.359 3.46-6.475 7.152-12.981 10.554-19.613-.499-.306-1.179-.235-1.767-.227-4.075.061-9.097.12-13.408-.045-.246-1.261-.136-2.64-.136-3.986 0-4.016.014-8.241-.091-12.185-.571-.22-1.223-.182-1.857-.182-4.558 0-9.601-.066-13.997.046-.24.621-.136 1.321-.136 1.993v10.282c0 1.36.091 2.746-.091 3.986-4.938.18-10.387.091-15.401.045-.019-.041-.039-.081-.09-.091-.163-5.987-.09-12.064-.09-18.254 0-9.81-.091-20.256.045-30.031 1.2-.242 2.505-.137 3.805-.137 3.799.001 7.948-.074 11.641.091.246 1.296.136 2.716.136 4.077 0 4.241.013 8.244.09 12.365.59.239 1.259.136 1.903.137 4.52 0 9.548.147 13.906 0 .02-.041.04-.081.09-.091.271-5.256-.089-11.143.182-16.397 1.14-.164 2.385-.136 3.669-.136 2.534 0 5.205-.001 7.791 0 1.274 0 2.554.107 3.714-.137-.327-.979-.864-1.929-1.359-2.854-2.879-5.381-5.926-10.859-8.878-16.261-.485-.889-1.099-1.726-1.359-2.718.108-.194.602-.165.815-.182 1.31-.101 2.734 0 4.167 0 3.5 0 7.103.024 10.328.046.684.004 1.558-.156 1.948.045.339.175.812 1.341 1.087 1.858 1.017 1.91 2.108 3.796 3.08 5.616.698 1.309 1.459 2.559 1.993 3.851.54 1.306 1.285 2.555 1.993 3.805 2.495 4.403 4.763 8.745 7.157 13.227.331.614.646 1.264 1.136 1.767zm21.651-7.157c-.271.359-.582.937-.859 1.45-3.755 6.912-7.357 13.835-11.144 20.655-.248.446-.782 1.226-.77 1.539.012.314.542 1.094.77 1.495 3.028 5.346 5.929 10.739 8.878 16.035.943 1.693 1.838 3.478 2.809 5.118.127.215.296.56.589.589.173-15.733.097-31.168-.046-46.927-.045 0-.053-.037-.09-.045-.054.022-.104.049-.137.091zm-42.352 45.659c1.759-3.153 3.472-6.245 5.164-9.422 1.689-3.171 3.46-6.353 5.164-9.421.258-.466.396-.97.634-1.45.241-.487.916-1.234.906-1.812-.005-.297-.491-1.057-.725-1.495-.279-.523-.508-1.123-.725-1.54-.554-1.065-1.113-2.068-1.585-2.944-3.198-5.934-6.385-11.816-9.603-17.575-.03 0-.061 0-.09 0-.057.02-.093.059-.091.137-.083 1.79-.045 3.914-.045 5.843 0 13.716-.082 27.522.136 40.767.446-.171.654-.719.86-1.088z"/></g></svg>