<svg enable-background="new 0 0 75.586 63.013" viewBox="0 0 75.586 63.013" xmlns="http://www.w3.org/2000/svg"><g clip-rule="evenodd" fill-rule="evenodd"><path d="m40.794.018c2.706-.188 4.806 1.1 6.014 2.356 1.064 1.108 2.069 3.08 2.165 5.052.135 2.801-1.072 4.68-2.213 5.82-3.207 3.207-8.941 2.98-11.643-.625-1.261-1.683-2.135-4.325-1.395-6.928.584-2.056 1.672-3.432 3.416-4.522.898-.56 2.104-1.045 3.656-1.153z"/><path d="m34.926 17.385c.336.86.191 1.842.191 2.741-.001 14.19.014 28.706-.096 42.863-.381.136-.525-.336-.674-.528-1.967-2.562-4.058-5.234-6.062-7.842-.732-.953-1.518-1.897-2.164-2.887-1.3-1.99-2.889-3.824-4.33-5.772-1.433-1.938-2.868-3.92-4.378-5.725-3.087-3.69-5.849-7.639-8.852-11.401-2.612-3.274-5.182-6.62-7.696-10.007-.335-.451-.835-.928-.865-1.539 11.586-.152 23.128-.105 34.926.097z"/><path d="m47.337 62.797c-.254-.898-.145-1.872-.145-2.79.001-2.884.038-5.788 0-8.659-.052-3.871.165-7.732 0-11.497-.081-1.841-.006-3.76.048-5.629.129-4.484-.116-9.41 0-14.239.012-.475 0-.961 0-1.443 0-.373-.137-.912.24-1.203 3.985.016 8.96-.214 12.22.722 3.44.987 6.044 2.637 8.13 4.618 4.474 4.007 7.466 9.566 7.745 17.655.138 3.991-1.116 7.429-2.453 10.295-1.378 2.95-3.416 5.316-5.532 7.216-2.148 1.922-4.939 3.591-8.371 4.378-3.459.794-7.762.834-11.882.576z"/></g></svg>