<svg enable-background="new 0 0 83.826 37.788" viewBox="0 0 83.826 37.788" xmlns="http://www.w3.org/2000/svg"><path clip-rule="evenodd" d="m26.105 5.464c.421-1.446-.125-3.858.295-5.305 7.763-.151 16.492-.049 24.808-.049 1.155 0 2.333-.111 3.438.147.029 3.919.228 8.058 0 11.986-1.079.28-2.8-.082-3.881.196-.165 6.153-.161 13.002 0 19.207.567-.143.707-.962.982-1.523 4.174-8.489 8.283-17.358 12.428-25.888.683-1.266 1.144-2.754 2.015-3.832.572.666.91 1.521 1.277 2.309 1.853 3.976 3.857 7.971 5.747 11.986.761 1.616 1.654 3.189 2.112 4.961-.663.263-1.491.148-2.26.147-2.306 0-4.772.132-6.779-.098-.255-1.594.069-3.769-.196-5.354-.486.146-.706.667-.982 1.031-1.691 2.227-3.334 4.616-5.06 6.976-.227.31-.772.893-.786 1.179-.016.337.52.909.786 1.277 1.422 1.965 2.829 3.925 4.225 5.895.557.785.993 1.683 1.768 2.259.276-.489.176-1.167.148-1.817-.053-1.213-.02-2.551.147-3.586 3.814-.154 8.525-.122 12.772-.049 1.419 2.879 2.949 5.785 4.273 8.793.182.411.464.859.442 1.326-12.702.317-26.64.046-39.298-.049-.267-1.256-.148-2.583-.148-3.881 0-7.113-.005-14.077.049-21.27 1.477-.391 3.798.064 5.354-.246-.088-.528-.667-.73-1.031-.982-2.703-1.872-5.363-4.035-8.203-5.846-1.28.689-2.381 1.615-3.537 2.456-1.143.832-2.331 1.619-3.439 2.505-.645.665-1.647.972-2.161 1.769.702.263 1.683.147 2.603.147.914 0 1.829 0 2.555.147.199 4.13.097 8.313.098 12.526.001 4.26.142 8.545-.098 12.674-.91.088-1.963.049-2.997.049-1.026 0-2.088.111-2.898-.147-.305-8.104.13-17.105-.196-25.053-.859-.241-2.458-.2-3.389-.049-.547 1.075-.834 2.208-1.425 3.193-.58.967-1.36 1.726-2.112 2.505-1.257.971-2.713 1.814-4.716 2.161-1.935.335-4.292.111-6.582.246-.259.622-.148 1.342-.148 2.014v10.807c0 1.436.116 2.863-.146 4.176-3.865.189-8.061.112-11.839-.049-.161-7.705-.159-15.788 0-23.432 3.686-.164 8.054-.163 11.74 0 .389 1.478-.064 3.797.245 5.354.525-.087.717-.685.982-1.032 1.716-2.241 3.311-4.634 5.109-6.975.273-.354.734-.926.736-1.228.005-.63-1.286-1.947-1.62-2.407-1.143-1.574-2.213-3.161-3.341-4.716-.562-.774-1.074-1.606-1.817-2.21-.242.485-.215 1.202-.196 1.867.032 1.184.153 2.495-.099 3.537-3.847.2-7.941.101-11.74-.049-.175-1.183-.099-3.024-.099-4.618 0-.508-.089-1.272.147-1.424.036-.046.09-.075.147-.099 5.172-.04 10.688.05 15.526.051 2.811.001 4.495.4 6.337 1.474.848.495 1.509 1.091 2.161 1.769.628.652 1.081 1.455 1.767 2.161z" fill-rule="evenodd"/></svg>