<svg enable-background="new 0 0 145.099 176.576" viewBox="0 0 145.099 176.576" xmlns="http://www.w3.org/2000/svg"><path clip-rule="evenodd" d="m144.975.5c.173 6.508.158 14.059 0 20.459-.049.002-.039.062-.05.102-7.776.135-15.842-.002-23.518 0-7.572 0-15.332-.051-23.016-.051-2.726 0-5.159-.092-7.371.451-2.137.523-3.83 1.334-5.315 2.557-3.319 2.709-5.557 6.604-6.669 11.734-.137.633-.211 1.887-.652 1.955-.594.094-.678-1.098-.802-1.603-1.066-4.332-3.008-8.059-5.767-10.73-1.638-1.588-3.447-2.906-5.767-3.711-2.348-.816-5.575-.752-8.575-.752-3.137 0-6.243-.051-9.327-.051-6 0-12.102-.096-18.202-.051-2.24.018-4.487 0-6.77 0-.721 0-1.498-.117-2.206.15-.19 7.396-.201 15.068-.201 22.715 0 22.381-.191 45.9-.05 68.396 5.602.232 12.026.219 17.751.051.01-.041.05-.051.05-.102.307-22.891.079-46.609.301-69.447.049-.002.039-.063.05-.102.26-.146.535-.096.852-.1 8.805-.135 17.704.047 26.576.051 4.371 0 8.776.049 13.138.049 12.87.002 26.042.152 39.313.15 8.755 0 17.461-.023 26.124.15.191 27.855-.102 56.408-.1 84.844 0 1.808.075 3.617-.151 5.365-21.17.227-42.918-.1-64.184-.1-6.238 0-12.385-.051-18.704-.051-.839 0-1.698-.115-2.507.15-.158 7.467-.242 15.01-.05 22.715.041.043.137.031.15.1 28.411.16 57.042.137 85.244.402.184 1.688.1 3.441.1 5.164 0 1.711-.175 3.443-.051 5.064.13 1.682.084 3.42.051 5.115-.033 1.662.025 3.338-.15 4.965-4.316.121-8.694.049-13.088.049-30.592.004-62.55-.23-92.866-.35-.266-.836-.15-1.75-.15-2.607 0-13.061.206-27.213.05-40.617-.049-.002-.039-.061-.05-.1-12.462-.334-25.77-.076-38.21-.352-.137.037-.101-.1-.201-.1-.058-27.346.205-54.93.205-82.584 0-5.564-.11-11.137 0-16.697.193-9.736.101-19.459.101-29.084 0-1.043.024-2.098.05-3.109.006-.27-.114-.649.15-.852.037-.047.091-.076.151-.1 19.591-.002 38.94.197 58.918.199 2.119 0 3.871.088 5.466.502 4.555 1.184 7.653 4.162 9.878 7.924 1.043 1.762 1.926 3.977 2.557 6.367.184.697.385 2.098.853 2.105.573.012.61-1.492.702-1.955.995-5.018 3.16-9.359 6.669-11.834 2.104-1.482 4.533-2.59 7.672-2.908 3.141-.318 6.655.096 10.28-.051 3.198-.127 6.693.002 10.179 0 10.256.001 20.527-.025 31.139.151zm-52.049 62.631c-10.637 0-21.326-.229-31.59-.102-.531.008-1.449-.008-1.906.201-.231 10.269-.15 20.838-.15 30.889 0 2.018-.05 4.027-.05 6.018 0 3.061.085 6.168-.05 9.076-.046.996-.084 2.035.15 3.008 20.749.189 42.054.299 62.88.301.611 0 1.314.117 1.905-.15.219-11.822.201-24.193.201-36.605 0-4.156.084-8.291-.1-12.385-10.168-.163-20.715-.253-31.29-.251z" fill-rule="evenodd"/></svg>