<svg clip-rule="evenodd" fill-rule="evenodd" stroke-linejoin="round" stroke-miterlimit="2" viewBox="0 0 560 400" xmlns="http://www.w3.org/2000/svg"><path d="m98.3 407.3h112.1v112.1c0 51.8 40.5 94.6 91.5 98.2v-302.2h-301.9c3.4 51.1 46.3 91.9 98.3 91.9zm421.1-196.9h-204.4v91.9h302.7c-3.5-51.2-46.4-91.9-98.3-91.9zm-519.4 91.9h301.8v-91.9h-203.5c-52 0-94.9 40.7-98.3 91.9zm315 315.4c51.3-3.2 92.3-46.2 92.3-98.3v-112.1h112.1c51.9 0 94.8-40.8 98.3-91.9h-302.7zm-104.7-519.4c0 52 40.3 94.6 91.5 98.2v-196.4c-51.1 3.6-91.5 46.2-91.5 98.2zm197 0c0-52.3-40.8-95.1-92.3-98.3v196.6c51.5-3.2 92.3-46 92.3-98.3z" fill-rule="nonzero" transform="matrix(.437105 0 0 .437105 145 65)"/></svg>