<svg enable-background="new 0 0 83.083 80.969" viewBox="0 0 83.083 80.969" xmlns="http://www.w3.org/2000/svg"><g clip-rule="evenodd" fill-rule="evenodd"><path d="m33.46.19c.256 5.845.122 12.127.1 18.173-.013 3.747.136 7.511-.1 11.145-.412-.075-.591-.515-.803-.803-3.322-4.511-6.794-9.124-10.04-13.755-1.737-2.477-3.646-4.829-5.372-7.329-.436-.631-.801-1.285-1.255-1.907-.873-1.195-1.763-2.428-2.661-3.665-.441-.608-1.068-1.137-1.255-1.907 3.474-.221 7.613-.101 11.496-.101h5.02c1.681-.002 3.329-.113 4.87.149z"/><path d="m82.958.14c.183 4.016.101 8.544.101 12.801 0 .545.113 1.165-.15 1.657-.887-.094-1.726-.446-2.56-.753-9.098-3.343-18.542-6.476-27.61-9.94-2.895-1.105-5.85-2.055-8.787-3.163-.362-.137-.9-.182-1.104-.602 12.085-.184 24.761-.101 36.998-.101 1.08 0 2.143-.137 3.112.101z"/><path d="m42.195 8.323c1.541.479 3.675 1.188 5.221 1.757 1.756.646 3.461 1.197 4.97 1.958.099 5.114.196 11.138 0 16.566-.699.572-1.648.759-2.51 1.054-1.7.583-3.443 1.237-5.221 1.858-.869.303-1.698.754-2.611.803-.191-1.873-.1-3.841-.1-5.874 0-3.933 0-8.014 0-12.048 0-2.057-.067-4.136.1-5.974.038-.047.092-.076.151-.1z"/><path d="m41.191 40.803c-.721.544-1.622.759-2.46 1.054-2.555.902-5.151 1.828-7.731 2.761-6.843 2.476-13.678 4.891-20.482 7.43-3.418 1.275-6.877 2.471-10.341 3.615-.271-1.141-.151-2.411-.151-3.665 0-3.644-.082-7.669.101-11.195 2.808-.288 5.821-.005 8.835-.201.265-.54.15-1.171.15-1.757-.001-7.876.05-16.152.05-24.398 0-1.29-.04-2.684.05-3.765.028-.072.078-.123.15-.15.041.009.05.05.101.05 1.855 2.487 3.686 5.016 5.522 7.53 1.847 2.528 3.51 5.162 5.422 7.631.952 1.229 1.811 2.531 2.761 3.765 1.892 2.46 3.627 5.027 5.522 7.53.918 1.213 1.667 2.62 2.861 3.615 3.082.182 6.643-.117 9.64.15z"/><path d="m59.715 14.698c2.504.806 5.477 1.795 7.882 2.711 2.667 1.015 5.227 1.784 7.631 2.861-.422.568-1.205.617-1.808.854-1.896.744-3.872 1.47-5.823 2.159-2.625.926-5.234 1.94-7.932 2.711-.271-.815-.151-1.778-.151-2.711.001-1.83 0-3.705 0-5.622 0-.961-.04-1.999.05-2.811.029-.074.08-.124.151-.152z"/><path d="m82.909 80.311c-.434-.158-.527-.705-.652-1.054-1.028-2.852-2.203-5.725-3.313-8.584-3.147-8.104-6.315-16.312-9.438-24.448-.624-1.627-1.138-3.292-1.957-4.819-3.247-.083-6.844-.084-10.091 0-.548.405-.615 1.123-.854 1.707-3.666 8.986-6.981 18.532-10.693 27.561-1.073 2.846-2.115 5.791-3.313 8.584-.15.349-.212.857-.603 1.054-.146-2.356.027-4.993-.15-7.43-3.097-1.555-6.979-2.326-10.091-3.865-.05-5.273-.15-11.07.05-16.316.708-.529 1.613-.756 2.46-1.054 2.462-.867 5.1-1.883 7.53-2.862.202-2.475.114-5.41.101-8.032 11.685-4.451 23.676-8.505 35.543-12.851 1.68-.615 3.396-1.167 5.02-1.858.702-.298.603.727.603 1.306-.003 17.217-.018 35.307-.152 52.961z"/><path d="m62.376 49.889c.04.01.05.05.101.05 3.562 8.923 6.912 18.011 10.441 27.008.497 1.268 1.175 2.49 1.355 3.865-7.915.2-15.849.217-23.695 0 .368-1.627 1.111-3.141 1.707-4.719 1.164-3.083 2.386-6.177 3.564-9.287.583-1.541 1.351-3.033 1.807-4.568.081-.273.063-.606.151-.904.273-.925.733-1.899 1.104-2.861.711-1.848 1.503-3.706 2.209-5.623.37-1.006.667-2.011 1.104-2.861.038-.046.093-.076.152-.1z"/><path d="m24.224 55.311c.404.229.251.806.251 1.205v7.179c0 .961.12 1.91-.151 2.71-1.347-.276-2.585-.851-3.865-1.305-1.276-.453-2.584-.83-3.815-1.355-2.473-1.055-5.048-1.747-7.48-2.861.451-.487 1.153-.606 1.757-.803 1.784-.583 3.684-1.283 5.522-2.008 2.457-.97 5.008-1.709 7.43-2.661.067-.028.143-.155.351-.101z"/><path d="m.277 66.003c12.114 4.158 23.938 8.604 35.944 12.852 1.272.45 2.491.943 3.815 1.406.347.121.877.129 1.054.552-13.638.196-27.476.114-40.964-.05-.182-3.936-.101-8.567-.101-12.901 0-.645-.067-1.443.101-1.757.038-.048.092-.077.151-.102z"/></g></svg>