<svg enable-background="new 0 0 81.902 82.277" viewBox="0 0 81.902 82.277" xmlns="http://www.w3.org/2000/svg"><path clip-rule="evenodd" d="m13.193 71.319c-5.471-4.945-9.452-11.075-11.69-19.154-1.142-4.123-1.659-9.134-1.462-13.831.195-4.601 1.283-9.076 2.662-12.734.701-1.858 1.705-3.478 2.609-5.115.925-1.672 2.004-3.173 3.08-4.645 1.613-2.209 3.52-4.252 5.637-5.95.693-.556 1.48-1.036 2.191-1.618.734-.6 1.393-1.178 2.191-1.67 3.902-2.401 8.38-4.515 13.675-5.584 1.078-.218 2.151-.395 3.287-.574 2.905-.457 6.645-.527 10.125-.365 2.108.098 4.226 0 6.211 0 4.172 0 8.513.052 12.578.052 2.276 0 4.115-.012 5.845.47 3.332.928 5.873 2.656 7.934 4.906 1.041 1.137 1.794 2.42 2.505 3.914.652 1.371 1.215 3.248 1.252 5.167.12 6.074-.193 13.188-.052 19.102.106 4.416.295 8.728-.156 12.578-.431 3.669-1.346 7.261-2.558 10.281-2.421 6.03-6.098 10.918-10.542 15.187-2.097 2.013-4.818 3.883-7.464 5.376-2.806 1.582-5.801 2.789-9.081 3.758-6.773 2-15.82 1.828-22.39-.261-3.317-1.055-6.334-2.207-9.028-3.81-2.679-1.594-5.075-3.381-7.359-5.48zm36.168-59.81c2.506 1.833 5.055 3.531 7.567 5.271 2.038 1.411 3.943 2.89 6.002 4.28.996.672 2.003 1.411 3.027 2.14 1.439 1.025 3.124 2.002 4.436 3.288.412.404 1.013 1.148 1.566.939.599-.226.365-2.322.365-3.288 0-2.603 0-4.931 0-7.359 0-1.092.041-2.476-.261-3.444-.385-1.231-1.579-2.493-2.662-3.079-1.36-.737-3.504-.58-5.584-.679-4.058-.192-8.46-.052-12.474-.052-1.293 0-3.053-.345-3.235.678.136.649.794.969 1.253 1.305zm-39.769 33.297c.819 6.043 2.764 10.602 5.638 14.718 2.728 3.907 6.175 7.306 10.751 9.603.98.492 2.068 1.058 3.444 1.618.495.201 3.287 1.605 3.811.783.38-.599-.464-1.398-.731-1.879-.408-.734-.599-1.334-.783-2.035-.416-1.588-.324-3.409-.312-5.167.006-.914-.126-1.855-.104-2.766.284-11.952.154-24.666.154-36.951 0-1.93-.125-3.871 0-5.741.122-1.816.691-3.389 1.409-4.697.239-.436 1.235-1.873-.156-1.722-1.803.196-3.902 1.076-5.22 1.774-.787.418-1.596.692-2.296 1.096-.729.421-1.377.894-2.035 1.357-2.747 1.934-5.167 3.877-6.994 6.576-4.289 5.709-7.957 13.233-6.576 23.433zm31.732-5.793c0 .846-.289 2.027.47 2.505.577.095.783-.481.991-.783.791-1.142 1.478-2.037 2.453-2.975 1.652-1.587 4.32-3.248 6.89-3.966 1.914-.536 4.41-.417 6.732-.417.903 0 2.989.321 3.131-.522.15-.897-1.737-1.574-2.14-2.036-1.941-1.669-4.123-3.029-6.211-4.54-2.084-1.508-4.154-3.07-6.263-4.541-.729-.448-1.544-1.177-2.453-1.827-.899-.643-1.805-1.443-2.714-1.618-.294-.057-.522.295-.73.417-.129 6.413-.156 13.969-.156 20.303zm9.76 32.149c.858-.323 1.767-.606 2.557-.939 3.306-1.395 6.039-3.221 8.403-5.584 1.137-1.137 2.543-2.311 3.444-3.601 1.932-2.767 3.702-5.434 5.011-9.029.585-1.611 1.071-3.591 1.461-5.532.113-.564.261-1.927.261-3.236 0-1.143.272-2.73-.679-2.87-.363-.054-.819.549-1.043.73-1.442 1.166-3.512 2.175-5.95 2.244-5.212.146-10.686-.454-12.943 2.662-1.053 1.453-1.137 3.586-1.305 6.002-.245 3.543-.027 7.482-.053 10.804-.01 1.334.12 2.723 0 3.914-.102 1.026-.53 1.898-.887 2.609-.352.701-.967 1.324-.887 2.192.847.564 1.856-.082 2.61-.366z" fill-rule="evenodd"/></svg>