<svg enable-background="new 0 0 6.665 5.969" viewBox="0 0 6.665 5.969" xmlns="http://www.w3.org/2000/svg"><path d="m6.22 2.31-.003-1.394c0-.719.445-.536.445-.536v-.277c-.458-.275-.723.065-.727.258-.004-.193-.269-.533-.727-.258v.277s.445-.183.445.536l.001 1.394c0 .586.445.536.445.536v.002.165.113s-.445-.054-.445.535l-.001.95-3.097-2.667c.29-.222.671-.358 1.091-.358.072 0 .143.006.213.015.041.01.08.021.112.03.473.133.532.601.54.727h.284c.1-.518.006-.726-.173-.857.117-.012.28-.178.162-.539h-.278s.018.049.013.113v-.018c-.006.173-.252.077-.252.077-.2-.054-.409-.081-.621-.081-.581 0-1.109.205-1.5.538l-1.104-.951c.1-.387.414-.26.414-.26v-.277c-.459-.275-.724.065-.728.258-.003-.193-.268-.533-.727-.258v.277s.445-.183.445.536l-.002 1.394c0 .586-.445.536-.445.536v.002.165.113s.448-.054.448.535l-.001 1.392c0 .719-.445.536-.445.536v.276c.459.275.724-.064.727-.256.004.192.269.531.728.257v-.277s-.445.183-.445-.536l-.002-1.391c0-.589-.445-.535-.445-.535v-.114-.165-.002s.445.05.445-.536l.001-.966.767.662c-.19.288-.302.621-.302.979 0 1.065.974 1.932 2.171 1.932.41 0 .809-.105 1.152-.297l.678.586v.001c.141.122.079.269.064.298-.131.166-.333.084-.333.084v.276c.458.275.723-.064.727-.256.004.192.269.531.727.257v-.277s-.445.183-.445-.536l.003-1.391c0-.589.445-.535.445-.535v-.114-.165-.002s-.445.05-.445-.536zm-2.573 2.073c-.903 0-1.638-.627-1.638-1.398 0-.226.064-.438.176-.627l2.178 1.884c-.222.092-.466.141-.716.141z"/></svg>