<svg enable-background="new 0 0 72.638 73.101" viewBox="0 0 72.638 73.101" xmlns="http://www.w3.org/2000/svg"><g clip-rule="evenodd" fill-rule="evenodd"><path d="m37.217.104c.187 5.687.143 11.697.142 17.699-.001 5.982-.099 11.9.047 17.51.042.021.084.043.095.096 11.494.264 23.615-.057 34.972.141.207.383.231 1.469 0 1.846-11.359.287-23.35-.029-34.972.189-.256 1.344-.142 2.838-.142 4.402-.001 10.428.077 21.078-.047 30.949-.377.213-1.472.227-1.846 0-.21-8.725-.024-17.98-.142-26.832-.039-2.881.155-5.736-.095-8.471-1.238-.285-2.7-.143-4.259-.143-10.19 0-20.658.178-30.808-.047-.21-.391-.224-1.459 0-1.846 11.31-.271 23.81.078 35.02-.19.255-.664.142-1.435.142-2.131 0-10.297 0-20.514 0-31.043 0-.701-.09-1.904.142-2.131.035-.043.087-.07.142-.094.523.047 1.236-.097 1.609.096z"/><path d="m31.112 11.274c-1.348.398-2.651.703-3.88 1.135-6.018 2.117-10.637 6.229-13.535 11.547-.602 1.104-1.104 2.262-1.514 3.502-.406 1.228-.751 2.502-1.183 3.834-2.538.139-5.381.102-8.045.094-.887-.002-1.774.018-2.556-.19-.035-1.699.446-3.303.852-4.826 1.015-3.812 2.538-7.021 4.449-9.984.383-.596.719-1.225 1.088-1.799.586-.912 1.404-1.781 2.129-2.65 2.139-2.562 4.939-4.68 7.761-6.531 1.925-1.262 4.089-2.226 6.389-3.123 2.28-.889 4.829-1.65 7.524-1.986.077-.01.108-.061.189-.049.564.084.399 1.818.426 2.557.096 2.652-.055 6.055-.094 8.469z"/><path d="m41.666.389c4.429.439 8.433 1.994 11.736 3.738 3.431 1.812 6.347 4.029 8.85 6.531 4.4 4.399 7.965 10.143 9.607 17.32.232 1.018.477 2.115.426 3.217-1.622.258-3.511.143-5.348.143-1.847 0-3.715.039-5.442-.047-.351-.611-.395-1.299-.567-1.941-1.211-4.494-3.539-8.191-6.483-11.072-2.462-2.605-5.536-4.398-9.181-5.869-1.215-.49-2.528-.676-3.833-1.135-.157-2.6.05-5.549-.047-8.141-.031-.834-.069-2.146.142-2.65.032-.043.083-.071.14-.094z"/><path d="m72.425 41.608c.202 7.656.143 15.521.142 23.52 0 2.613.114 5.236-.142 7.762-1.544.232-3.342.143-5.111.141-1.751 0-3.593.113-5.158-.141-.284-6.727.11-14.199-.236-20.728-.792-.252-1.671-.143-2.508-.143-5.957 0-12.245.137-18.125-.094-.157-3.219-.157-7.098 0-10.316 10.246-.154 20.979-.173 31.138-.001z"/><path d="m11.047 41.608c.419 1.346.708 2.646 1.183 3.881 1.386 3.602 3.296 6.703 5.821 9.227 2.476 2.476 5.521 4.545 9.181 5.869 1.223.441 2.557.68 3.88 1.135.137 2.586.206 5.463.142 8.33-.019.885.129 1.797-.189 2.555-2.705-.115-5.171-1.008-7.524-1.799-4.647-1.559-8.409-4.096-11.783-7.051-1.22-1.068-2.465-2.285-3.502-3.596-3.011-3.809-5.427-8.312-6.957-13.678-.332-1.164-.613-2.355-.852-3.689-.065-.365-.226-.898.095-1.23 3.462-.069 7.197-.095 10.505.046z"/><path d="m57.708 52.87c.358-.059.333.268.332.568.075 3.152-.124 6.197-.048 9.418.02.842.246 2.295 0 3.076-.156.496-.992 1.008-1.562 1.371-3.017 1.935-6.248 3.307-10.08 4.449-1.497.447-3.132.895-4.78.851-.25-.773-.142-1.676-.142-2.555 0-2.58-.077-5.529.095-7.998.881-.305 1.77-.395 2.603-.568 2.462-.512 4.736-1.553 6.673-2.697 1.384-.818 2.58-1.617 3.691-2.602 1.148-1.019 2.165-2.095 3.218-3.313z"/></g></svg>