<svg clip-rule="evenodd" fill-rule="evenodd" stroke-linejoin="round" stroke-miterlimit="2" viewBox="0 0 560 400" xmlns="http://www.w3.org/2000/svg"><path d="m647.338 1047.85h19.854c3.88 0 7.011 3.21 7.026 7.16v14.67c0 1.54-1.229 2.8-2.745 2.8-1.51 0-2.75-1.25-2.739-2.79v-14.02c-.015-1.44-1.146-2.6-2.558-2.6h-13.354c-.291 0-.536.24-.526.53v16.08c0 1.54-1.224 2.8-2.739 2.8-1.511 0-2.756-1.25-2.745-2.79v-21.3c-.011-.3.24-.54.526-.54m35.13 15.18c0-.3.224-.54.526-.54h14.255c1.313 0 2.375-1.09 2.375-2.42 0-1.34-1.072-2.42-2.375-2.42h-14.255c-.302 0-.526-.24-.526-.54v-1.44c0-1.44 1.136-2.6 2.563-2.6h16.771c1.416 0 2.557-1.17 2.557-2.61s-1.156-2.61-2.557-2.61h-17.787c-3.88.02-7.026 3.21-7.026 7.16v10.11c0 3.96 3.146 7.16 7.026 7.17h17.787c1.401 0 2.557-1.17 2.557-2.61s-1.141-2.61-2.557-2.61h-16.771c-1.427 0-2.563-1.17-2.563-2.61zm64.057 6.66c-.015 1.54 1.224 2.79 2.745 2.79 1.511 0 2.74-1.26 2.74-2.8v-16.08c0-.3.234-.53.526-.53h8.646c1.416 0 2.557-1.17 2.557-2.61s-1.156-2.61-2.557-2.61h-23.782c-1.416 0-2.557 1.17-2.557 2.61s1.156 2.61 2.557 2.61h8.599c.292 0 .526.23.526.53zm-18.463-3.92c.24.09.432.34.432.63 0 .37-.297.67-.661.67h-18.323c-1.412 0-2.557 1.17-2.557 2.61s1.156 2.61 2.557 2.61h18.609c3.146 0 5.724-2.62 5.724-5.84 0-2.51-1.562-4.66-3.75-5.48l-18.333-6.6c-.255-.09-.443-.34-.443-.63 0-.37.281-.67.656-.67h18.302c1.412 0 2.558-1.17 2.558-2.61s-1.162-2.61-2.558-2.61h-18.614c-3.167.01-5.708 2.62-5.708 5.84 0 2.43 1.458 4.52 3.541 5.39zm41.974-2.74c0-.3.224-.54.526-.54h14.255c1.307 0 2.375-1.09 2.375-2.42 0-1.34-1.078-2.42-2.375-2.42h-14.255c-.302 0-.526-.24-.526-.54v-1.44c0-1.44 1.135-2.6 2.557-2.6h16.776c1.412 0 2.558-1.17 2.558-2.61s-1.157-2.61-2.558-2.61h-17.791c-3.881.02-7.021 3.21-7.021 7.16v10.11c0 3.96 3.14 7.16 7.021 7.17h17.791c1.401 0 2.558-1.17 2.558-2.61s-1.146-2.61-2.558-2.61h-16.776c-1.422 0-2.557-1.17-2.557-2.61z" fill="#003a94" fill-rule="nonzero" transform="matrix(3.44554 0 0 3.44554 -2198.62 -3452.85)"/></svg>