<svg enable-background="new 0 0 51.785 78.412" viewBox="0 0 51.785 78.412" xmlns="http://www.w3.org/2000/svg"><g clip-rule="evenodd" fill-rule="evenodd"><path d="m.261 0c.518.145 1.12 1.152 1.539 1.687 1.378 1.762 2.912 3.487 4.169 5.211 4.21 5.173 8.419 10.352 12.655 15.534 1.052 1.287 2.089 2.595 3.127 3.92.332.424.571 1.012 1.142 1.191.399-.854.248-1.996.248-3.176 0-7.716-.185-16.146.05-23.821.861-.27 1.802-.152 2.68-.149 2.675.01 5.764-.137 8.536-.05 3.691.117 6.501 1.268 8.883 2.73 4.583 2.813 8.22 7.619 8.486 14.74.131 3.503-.958 6.764-2.283 9.33-1.331 2.579-3.192 4.571-5.409 6.204-2.141 1.577-5.008 2.821-8.536 3.077-2.724.197-5.575.125-8.437.099-.767-.007-2.141.13-2.729-.05-.443-.135-1.021-.989-1.439-1.489-4.897-5.845-9.523-11.854-14.342-17.717-1.308-1.591-2.546-3.228-3.921-4.814-.425-.49-.817-1.165-1.489-1.39-.334.964-.199 2.029-.199 3.077 0 6.307.049 12.734.05 19.206 0 1.03.119 2.095-.149 3.077-.693.16-1.987.16-2.68 0-.218-1.381-.149-2.846-.149-4.318 0-4.649.059-9.166 0-13.796-.064-5.068-.05-10.563-.05-15.881 0-.812-.064-1.804.1-2.283.026-.071.075-.121.147-.149zm38.461 32.903c3.291-1.325 5.443-3.695 6.898-6.849 1.46-3.162 2.206-7.439 1.489-11.662-.643-3.791-2.527-6.84-5.013-8.784-1.533-1.303-3.716-2.363-6.501-2.68-2.703-.308-6.367-.206-9.181-.149-.402.473-.248 1.151-.248 1.737v13.896c0 3.953-.128 8.015.05 11.762.061 1.279-.164 2.588.149 3.821 4.665.351 9.168.193 12.357-1.092z"/><path d="m41.154 42.581c-.035.868-.597 1.59-.943 2.332-.354.761-.697 1.511-1.092 2.233-1.168 2.616-2.387 5.392-3.672 7.99-3.528 7.134-7.002 14.174-10.521 21.489-.249.517-.683 1.765-1.092 1.787-.552.029-1.017-1.541-1.29-2.084-2.641-5.253-5.258-10.455-7.841-15.682-2.663-5.196-5.187-10.452-7.842-15.733-.363-.722-.866-1.442-.943-2.283 1.345-.3 3.406-.124 4.913-.1.852 1.014 1.289 2.299 1.836 3.474 1.659 3.567 3.397 7.084 5.062 10.719 1.047 2.286 2.222 4.665 3.424 7.097.832 1.683 1.643 3.468 2.531 5.359.263.561.715 1.541 1.092 1.539.413-.002.773-1.013 1.042-1.588 1.961-4.184 3.753-8.396 5.707-12.556 1.996-4.251 3.827-8.163 5.757-12.556.341-.777.507-1.5 1.241-1.588.821-.097 1.937.032 2.631.151z"/></g></svg>