<svg enable-background="new 0 0 73.857 76.952" viewBox="0 0 73.857 76.952" xmlns="http://www.w3.org/2000/svg"><path clip-rule="evenodd" d="m73.582 50.875c.078 1.621-.517 3.189-1.09 4.598-1.649 4.051-3.973 7.758-7.014 10.473-2.091 1.867-4.088 3.766-6.445 5.213-4.77 2.93-10.562 5.006-17.629 5.688-3.566.344-7.311-.199-10.615-.854-6.47-1.279-11.523-4.012-15.923-7.393-4.411-3.389-7.847-7.633-10.568-12.748-1.321-2.482-2.392-5.391-3.128-8.529-.746-3.188-1.315-6.68-1.137-10.521.254-5.467 1.494-10.199 3.269-14.217 2.949-6.674 7.501-11.947 13.27-15.875 5.301-3.746 11.543-6.102 19.998-6.635 8.703-.551 15.604 2.049 21.089 4.881.796.41 1.468.941 2.227 1.422 3 1.894 5.631 4.084 7.961 6.775 2.275 2.629 4.42 5.498 5.402 9.336 1.123 4.383.6 9.014-.852 12.559-1.35 3.295-3.752 6.287-6.54 8.199-2.908 1.994-6.368 3.377-11.089 3.648-3.12.18-7.304-.123-10.899 0-.959.033-2.629-.197-3.46.189-1.109.52-1.024 1.92-1.042 3.697-.012 1.057.123 2.328-.854 2.463-.787.111-1.785-1.047-2.227-1.516-3.705-3.916-7.37-7.369-11.186-11.183-.549-.549-1.412-1.371-1.421-2.275-.009-.92.853-1.721 1.421-2.322.661-.697 1.336-1.285 1.896-1.848 3.169-3.182 6.071-6.121 9.336-9.383.51-.51 1.453-1.631 2.227-1.518 1.674.248.468 4.553 1.09 5.83.561 1.147 2.168.947 4.029.947 2.289 0 4.27.047 6.398-.047 1.149-.051 2.218.145 3.08-.096 1.985-.551 3.177-3.178 2.038-5.307-.973-1.82-2.662-3.127-4.359-4.361-3.295-2.393-7.93-4.043-13.648-3.791-2.596.115-5.117.811-7.062 1.66-2.835 1.236-5.605 3.096-7.724 5.354-.694.74-1.495 1.598-1.943 2.418-2.087 3.82-4.018 8.064-3.601 13.695.299 4.039 1.438 7.226 3.081 10 .562.949 1.051 1.873 1.705 2.652 3.891 4.647 9.435 8.312 18.057 8.104 2.658-.062 5.195-.699 7.203-1.516 3.242-1.318 5.609-2.883 7.392-5.688.566-.891.993-2.408 2.085-2.748 1.083-.336 2.749-.143 4.171-.143 3.567.002 6.949 0 10.473 0 1.213.002 2.116-.092 2.558.713z" fill-rule="evenodd"/></svg>