<svg enable-background="new 0 0 26.295 31.975" viewBox="0 0 26.295 31.975" xmlns="http://www.w3.org/2000/svg"><path d="m21.341 4.953c1.638-1.637 3.25-3.299 4.87-4.953.036 2.206.026 4.414.027 6.622-1.611 1.667-3.247 3.308-4.872 4.962-1.084-1.259-2.513-2.252-4.136-2.661-2.404-.657-5.092-.093-7.039 1.459-.948.78-1.742 1.753-2.294 2.851-.032.07-.116.007-.118-.05-.705-1.627-.822-3.489-.381-5.201.773-2.884 3.219-5.294 6.175-5.859 2.857-.63 5.968.539 7.768 2.83z"/><path d="m.018 12.228c.576 3.697 2.53 7.176 5.437 9.538 2.445 2.014 5.514 3.299 8.687 3.477 4.521.336 9.08-1.602 12.122-4.933.032 2.211.028 4.423.031 6.635-2.764 3.094-6.845 5.011-11.008 5.028-4.353.076-8.64-1.938-11.503-5.19-1.833-2.152-3.141-4.782-3.58-7.585-.34-2.307-.142-4.648-.186-6.97z"/></svg>