<svg enable-background="new 0 0 76.7 55.481" viewBox="0 0 76.7 55.481" xmlns="http://www.w3.org/2000/svg"><g clip-rule="evenodd" fill-rule="evenodd"><path d="m38.05.167c.682.99.899 2.205 1.295 3.309 2 5.574 4.031 11.271 5.946 16.976.38 1.133.851 2.222 1.247 3.357.205.586.293 1.223.479 1.822.175.563.379 1.128.575 1.678 2.819 7.913 5.765 15.633 8.536 23.545.382 1.09.741 2.222 1.343 3.213.312-.715.192-1.545.192-2.302 0-12.214-.061-24.789.144-36.541 3.013-.224 6.268-.048 9.447-.048 3.208 0 6.415-.139 9.303.096.341 6.7-.136 13.636.096 20.284.113 3.225-.152 6.51 0 9.734.158 3.353-.131 6.68-.144 10.022-.752.254-1.566.144-2.35.144-12.182 0-24.318.032-36.493-.144-1.026-2.089-1.582-4.375-2.35-6.57-.766-2.187-1.62-4.34-2.398-6.521-3.111-8.719-6.146-17.553-9.303-26.279-.4-1.104-.699-2.252-1.103-3.356-.792-2.163-1.592-4.324-2.35-6.57-.355-1.053-.686-2.171-1.294-3.117-.228 1.025-.192 2.117-.192 3.165v22.874c0 8.81.098 17.774-.144 26.327-3.016.066-6.115.274-9.207.144-3.074-.129-6.257.109-9.255-.191-.123-8.802-.049-18.173-.048-27.478.001-9.264-.084-18.677.097-27.526.225-.205.782-.16 1.103-.192.716-.07 1.536.048 2.301.048 11.238 0 23.089-.076 34.527.097z"/><path d="m76.557.262c.205 2.914.07 5.976.048 8.872-.008.979.22 1.976-.096 2.877-4.481.259-9.5.018-14.146.048-1.556.01-3.105.189-4.556-.096-.234-3.704-.17-7.972 0-11.701 3.019-.292 6.582-.096 9.878-.096 3.042 0 6.044-.078 8.872.096z"/></g></svg>