<svg enable-background="new 0 0 80.015 52.458" viewBox="0 0 80.015 52.458" xmlns="http://www.w3.org/2000/svg"><path clip-rule="evenodd" d="m49.668 0h.1c9.008 15.111 17.707 30.441 26.622 45.646.637 1.086 1.256 2.18 1.887 3.277.626 1.088 1.283 2.199 1.738 3.377-.743.281-1.593.1-2.384.1-5.925 0-12.146.107-17.781-.1-2.943-4.932-5.806-9.99-8.742-15-.406-.691-.755-1.467-1.341-2.035-.627.547-.974 1.332-1.391 2.035-1.654 2.793-3.344 5.709-5.016 8.543-.424.719-.717 1.521-1.143 2.236-.424.711-.83 1.416-1.242 2.135-.397.693-.745 1.473-1.341 2.037-13.081.044-26.592.1-39.634-.148.135-.848.678-1.52 1.092-2.236.208-.357.393-.73.596-1.092.219-.389.302-.781.497-1.193.339-.715.836-1.428 1.242-2.135 1.215-2.117 2.468-4.264 3.725-6.406.834-1.422 1.571-2.904 2.533-4.223 5.853-.119 11.561 0 17.434 0 .847 0 1.835.148 2.434-.049.498-.166 1.03-1.408 1.391-2.037 3.768-6.574 7.484-13.006 11.175-19.57.832-1.478 1.578-3.014 2.384-4.42 1.172-2.045 2.434-4.365 3.725-6.506.498-.826.92-1.66 1.44-2.236z" fill-rule="evenodd"/></svg>