<svg enable-background="new 0 0 76.243 76.726" viewBox="0 0 76.243 76.726" xmlns="http://www.w3.org/2000/svg"><g clip-rule="evenodd" fill-rule="evenodd"><path d="m42.074 50.424c-.259-.826-.146-1.785-.146-2.719 0-2.732.08-5.831-.097-8.448-1.027-.341-2.461-.194-3.787-.194-1.341 0-2.706-.074-3.836.097-.312 1.512-.093 3.057-.146 4.612-.15 4.486-.048 9.068-.048 13.983v9.565c0 2.376.062 4.708-.049 7.089-.034.722.228 1.482-.146 2.136-.908.117-1.751-.259-2.573-.485-2.46-.678-4.595-1.7-6.554-2.913-2.53-1.566-4.902-3.616-6.652-5.972-3.459-4.659-6.32-11.534-5.001-19.567 1.203-7.329 4.571-12.232 9.225-16.022 4.211-3.429 10.042-6.061 18.062-5.487.481.035 1.076.222 1.311.049.418-.307.194-2.847.194-3.544 0-1.327.077-2.615-.097-3.642-1.115-.533-2.713-.492-4.321-.485-4.587.019-8.778 1.15-12.041 2.525-7.916 3.335-13.731 9.146-17.236 16.848-.513 1.127-.851 2.297-1.263 3.593-1.167 3.675-1.778 8.231-1.359 12.963.129 1.458.352 2.85.485 4.273-.704-.398-.934-1.252-1.311-1.894-1.141-1.945-2.064-4.288-2.816-6.651-1.027-3.229-1.675-6.798-1.845-10.828-.171-4.057.485-7.912 1.408-11.264.919-3.336 2.318-6.281 3.787-8.837 1.554-2.703 3.183-5.224 5.292-7.38 6.131-6.265 14.449-11.253 26.171-11.799 3.938-.184 7.869.637 10.584 1.796 2.971 1.268 5.502 2.797 7.575 4.71 4.32 3.987 7.504 9.059 8.254 16.313.814 7.888-1.978 14.168-5.535 18.645-3.106 3.909-7.42 6.969-12.915 8.545-.796.229-1.7.466-2.574.389z"/><path d="m42.025 76.642c-.259-1.437-.146-3.012-.146-4.564 0-1.555-.017-3.105.048-4.661.132-3.135-.212-6.276.097-9.08 1.225-.329 2.439-.494 3.593-.777 8.051-1.969 13.966-6.357 18.353-12.089 3.749-4.899 6.562-10.933 6.943-19.13.128-2.746-.388-5.27-.777-7.963.042-.039.029-.133.097-.146.402.091 1.037 1.338 1.311 1.845 2.54 4.693 4.373 10.15 4.661 16.994.342 8.123-1.811 14.843-4.661 19.955-4.331 7.769-10.951 13.972-19.713 17.382-2.22.864-4.586 1.588-7.185 2.088-.822.159-1.753.339-2.621.146z"/></g></svg>