<svg enable-background="new 0 0 73.974 57.145" viewBox="0 0 73.974 57.145" xmlns="http://www.w3.org/2000/svg"><path clip-rule="evenodd" d="m45.845 21.941c.392-.258.359-.759.471-1.13.827-2.753 1.979-5.238 3.392-7.489 3.215-5.13 7.603-8.932 13.612-11.352 2.962-1.192 6.491-2.011 10.504-1.743.25.645.072 1.382.094 2.072.155 4.951-.057 10.434-.047 15.497-.042.021-.084.042-.095.094-3.163.319-5.605 1.342-7.395 3.156-1.72 1.743-3.062 4.235-3.062 7.489 0 3.325 1.432 5.67 3.155 7.394 1.812 1.812 4.102 2.955 7.349 3.203.144 5.786.161 11.92-.048 17.898-7.846.225-15.808.046-23.598.047-7.688.001-15.361.115-23.032-.094-.207-9.136-.048-19.251-.047-28.591 0-3.616-1.771-5.915-4.004-7.489-1.094-.771-2.518-1.398-4.192-1.413-.249.74-.141 1.549-.141 2.308 0 11.838.006 23.37-.142 35.138-1.45.281-3.015.094-4.569.094-3.875 0-7.81-.094-11.775-.094-.751 0-1.519.109-2.213-.142-.142-17.446 0-35.357 0-53.319 0-1.148-.116-2.316.141-3.438 5.367-.124 11.152.096 16.769.096 1.511 0 2.888-.041 4.191.047 1.283.087 2.419.353 3.58.659 2.238.591 4.284 1.283 6.171 2.261 5.617 2.915 9.805 7.085 12.575 12.765.697 1.429 1.229 2.975 1.743 4.616.146.465.169 1.097.613 1.46z" fill-rule="evenodd"/></svg>