<svg enable-background="new 0 0 68.937 83.068" viewBox="0 0 68.937 83.068" xmlns="http://www.w3.org/2000/svg"><path clip-rule="evenodd" d="m38.354.004c3.254-.066 6.197.676 8.601 1.699 1.153.492 2.174 1.23 2.951 2.201.783.977 1.455 2.098 1.5 3.65.019.639-.43 1.578-.1 2.1.289.455 1.555.178 2.45.15 2.85-.09 5.484.131 7.551.701 2.8.769 5.593 1.859 7.001 4.049.629.978.524 2.299.55 4.002.042 2.752.051 6.318.051 9.451v25.203c0 2.09.089 4.219-.051 6.201-.291 4.154-2.798 5.586-5.601 7.303-4.056 2.482-8.289 4.518-12.402 6.949-.669.396-1.291.887-1.95 1.301-.664.416-1.405.736-2.1 1.1-3.517 1.844-6.738 3.873-10.252 5.902-.876.506-1.656 1.135-2.65 1.1-.596-.021-1.611-.605-2.3-1.051-4.752-3.072-9.741-5.623-14.552-8.602-2.765-1.711-5.52-3.213-8.352-4.9-1.297-.771-2.606-1.656-4.101-2.551-1.395-.834-3.202-1.57-4.001-2.6-.838-1.08-.55-3.973-.55-6.15 0-9.227 0-17.986 0-27.254 0-2.635 0-5.4 0-8.053 0-.947-.109-2.104.15-2.75.55-1.373 2.806-2.223 4.15-3 2.377-1.377 4.427-2.662 6.752-4.002.759-.436 1.522-.853 2.25-1.299 4.473-2.734 9.112-5.215 13.552-7.902.815-.492 1.51-.92 2.3-1.301 2.552-1.225 5.256-1.571 9.153-1.647zm-24.154 66.51c.001-6.053 0-11.904 0-18.002 0-5.092-.164-10.402 0-15.152.06-1.721-.306-3.803.101-5.051.397-1.225 2.305-1.898 3.5-2.601 1.296-.76 2.622-1.465 3.8-2.199 5.052-3.15 10.058-5.82 15.153-8.752 2.532-1.457 5.108-2.828 7.551-4.4.694-.684 1.005-1.873.6-2.951-.987-2.633-5.207-3.59-8.951-3.352-3.741.24-6.157 2.404-8.752 3.652-5.679 3.33-11.523 6.781-17.453 10.002-.836.453-1.763 1.133-2.801 1.75-.998.592-2.156 1.152-2.45 2.148-.184.625-.1 1.539-.1 2.502v7.801c-.001 9.799.001 18.959 0 28.754 0 .893-.11 2.018.1 2.551.261.662 1.504 1.152 2.2 1.551 2.096 1.201 3.881 2.475 5.901 3.6.385.217.848.58 1.351.451.426-.681.25-1.558.25-2.302zm40.257-26.904c-2.02 1.055-3.991 2.26-5.851 3.352-4.827 2.83-9.862 5.635-14.652 8.4-.473.273-1.025.732-1.65.6-.456-.365-.3-1.025-.3-1.549 0-3.223-.071-5.992 0-8.953.027-1.115-.23-2.57.05-3.549.368-1.289 2.558-2.104 3.751-2.801 2.864-1.676 5.605-3.156 8.401-4.701 2.873-1.588 5.458-3.213 8.251-4.851 2.794-1.639 5.417-3.219 8.351-4.75 1.312-.684 3.131-1.803 2.95-3.602-.164-1.639-1.913-2.553-3.351-3.051-3.133-1.084-7.423-.769-10.051.451-.605.281-1.173.705-1.8 1.051-4.312 2.365-8.472 4.826-12.752 7.25-3.733 2.115-7.12 4.203-10.802 6.301-1.175.67-2.886 1.381-3.25 2.502-.22.674-.097 1.602-.1 2.549-.02 5.973.006 12.24 0 18.103-.006 5.473 0 12.326 0 18.303 0 .889-.148 2.09.05 2.65.226.639 1.636 1.258 2.3 1.65 2.199 1.299 4.283 2.404 6.351 3.602.391.227.817.631 1.4.5.351-.393.264-1 .25-1.5-.077-2.752.115-5.971 0-8.852-.039-.975-.214-2.707.05-3.451.174-.49.833-.764 1.45-1.1 1.679-.916 3.101-1.717 4.651-2.602 5.217-2.973 10.219-5.77 15.353-8.851.63-.377 2.676-1.326 2.75-2.1.067-.693-.611-1.615-.95-2.301-.376-.76-.924-1.678-.95-2.35-.02-.524.262-1.197.45-1.75.421-1.242.73-2.221 1.05-3.352.151-.533.43-1.168.2-1.75-.586-.229-1.149.265-1.6.502z" fill-rule="evenodd"/></svg>