<svg enable-background="new 0 0 78.734 39.363" viewBox="0 0 78.734 39.363" xmlns="http://www.w3.org/2000/svg"><path clip-rule="evenodd" d="m78.726 39.075c-3.769.198-7.813.119-11.748.149-1.061-1.138-1.456-2.94-2.578-4.015-9.454-.04-18.761-.027-28.304.049-.592.555-.858 1.222-1.289 1.983-.312.549-.721 1.726-1.239 1.983-.355.176-1.119.026-1.685.049-4.04.167-8.486.05-12.541.05-2.639 0-4.756-.025-6.543-.645-5.278-1.828-8.921-5.39-11.153-10.458-1.454-3.3-2.066-7.698-1.338-12.145.648-3.96 2.389-7.242 4.709-9.716 2.292-2.444 5.091-4.711 8.724-5.651 3.908-1.011 8.96-.643 13.78-.644 2.368-.001 4.785 0 7.187 0 7.473-.001 14.401-.118 21.562.049.4.24.62.712.843 1.091 1.646 2.794 3.242 5.747 4.908 8.575 4.728 8.028 9.418 16.209 14.077 24.338.708 1.234 1.387 2.444 2.082 3.718.206.378.615.745.546 1.24zm-41.291-34.946c-4.145.175-8.837-.056-13.086 0-3.693.049-6.755 1.752-8.873 3.569-.763.655-1.582 1.274-2.131 1.982-.249.321-.436.722-.694 1.09-.749 1.07-1.344 2.259-1.834 3.569-1.471 3.935-1.106 8.646.397 12.095.707 1.622 1.743 3.207 2.875 4.362 2.358 2.406 5.551 4.332 9.913 4.461.537-.502.827-1.207 1.19-1.834 2.622-4.53 5.29-9.023 7.831-13.582 2.535-4.546 5.216-9.116 7.833-13.532.374-.631.836-1.283.941-2.032-1.443-.224-2.929-.208-4.362-.148zm12.887 5.602c-1.019 1.697-1.968 3.461-2.974 5.205-.996 1.726-1.928 3.518-2.875 5.254-.955 1.75-1.977 3.453-2.924 5.205-.95 1.757-2.053 3.45-2.826 5.304.86.269 1.817.149 2.727.149h8.773c3.918 0 7.896.12 11.55-.149-.1-.769-.635-1.413-.991-2.082-.354-.663-.739-1.32-1.091-1.983-2.136-4.026-4.523-8.078-6.395-12.144-.354-.77-.84-1.59-1.338-2.478-.387-.689-.951-2.063-1.487-2.379-.058.022-.112.051-.149.098z" fill-rule="evenodd"/></svg>