<svg enable-background="new 0 0 84.047 46.8" viewBox="0 0 84.047 46.8" xmlns="http://www.w3.org/2000/svg"><g clip-rule="evenodd" fill-rule="evenodd"><path d="m.381.017c13.441-.05 26.965.049 40.375.05.939 0 1.947.013 2.916 0 .928-.013 1.873-.144 2.668 0 .754.136 1.709.895 2.473 1.384 5.4 3.463 11.164 6.901 16.506 10.18 5.527 3.393 10.906 6.828 16.455 10.229.781.479 1.613.894 2.273 1.532-.193.451-.719.61-1.088.84-2.666 1.668-5.506 3.322-8.252 5.041-3.1 1.941-6.195 3.975-9.34 5.881-5.371 3.255-11.006 6.685-16.555 10.081-.82.501-1.824 1.398-2.67 1.482-1.83.185-3.887 0-5.83 0-13.242.001-26.887.11-40.229-.148-.141-7.539-.047-15.393-.049-23.326 0-1.961-.08-3.973 0-5.98.186-4.658.049-9.089.049-14.282 0-.922-.094-2.39.148-2.866.039-.045.092-.074.15-.098zm80.01 21.893c-5.33-3.305-10.611-6.642-15.963-9.884-5.109-3.188-10.711-6.683-15.963-9.884-.731-.445-1.594-1.192-2.371-1.334-.783-.143-1.844 0-2.768 0-6.766 0-12.793-.05-19.174-.05-7.646.001-15.796-.045-23.128.05-.27.852-.149 1.789-.149 2.669 0 14.302-.232 28.255 0 42.352 15.355.313 30.148.085 45.267.099.012-.039.041-.058.1-.049 9.164-5.543 18.336-11.123 27.279-16.802 2.262-1.437 4.631-2.766 6.869-4.151.74-.459 1.604-.837 2.174-1.532-.624-.623-1.433-1.025-2.173-1.484z"/><path d="m45.057 1.648c.76-.269.492 1.806.492 2.323 0 13.434-.014 27.556-.147 40.82-.338.094-.592-.25-.791-.445-1.478-1.446-3.088-3.021-4.646-4.448-3.145-2.921-6.014-6.158-9.191-9.043-.793-.721-1.494-1.544-2.273-2.323-2.236-2.237-4.705-4.409-6.967-6.671-5.303-5.301-10.838-10.393-16.161-15.716-.373-.372-.751-.766-1.136-1.136-.377-.361-.782-.801-1.285-.989-.313.76-.198 1.625-.198 2.471 0 12.383-.051 23.676-.051 36.273 0 .348.223 2.221-.346 2.273-.667.063-.444-1.804-.444-2.322.001-13.282.035-27.132.148-40.523.621.057 1.02.673 1.434 1.087.443.442.906.875 1.334 1.285 6.133 6.025 12.355 11.959 18.533 17.939 6.197 5.958 12.189 12.124 18.434 18.038.453.42.885.859 1.334 1.285.426.403.803.957 1.434 1.137.262-.788.146-1.66.146-2.471.002-9.551.051-18.763.051-28.515 0-2.399-.062-5.204.049-7.66.037-.83-.104-2.038.1-2.52.026-.072.075-.121.147-.149z"/><path d="m46.934 2.587c1.264.539 3.104 1.838 4.299 2.57 1.447.886 2.869 1.753 4.201 2.57 4.348 2.665 8.393 5.111 12.652 7.759 2.764 1.719 5.471 3.518 8.301 5.238.703.428 1.391.885 2.076 1.335.678.445 1.453.75 2.025 1.334-.145.409-.617.59-.938.791-2.398 1.498-4.957 2.966-7.414 4.497-7.662 4.778-15.393 9.62-23.178 14.332-.68.412-1.354.907-2.125 1.136-.338-.64-.197-1.557-.197-2.471 0-5.836.051-12.008.051-18.087-.002-5.923.049-12.201.049-18.236 0-.947-.037-1.897.049-2.619.028-.072.079-.121.149-.149zm.643 1.582c-.111.72-.02 1.568-.049 2.422-.029.802-.051 1.601-.051 2.372.002 11.158-.125 22.85.051 33.753.414.119.731-.256 1.037-.445 2.352-1.444 4.611-2.795 6.918-4.201 5.281-3.219 10.494-6.535 15.715-9.736 1.982-1.214 4.012-2.385 5.932-3.608.643-.41 1.379-.735 1.877-1.334-1.129-.98-2.541-1.675-3.854-2.471-6.414-4.13-12.908-8.178-19.521-12.108-1.211-.831-2.527-1.582-3.904-2.422-1.109-.677-2.752-1.897-4.002-2.372-.073.029-.122.078-.149.15z"/></g></svg>