<svg enable-background="new 0 0 74.786 74.353" viewBox="0 0 74.786 74.353" xmlns="http://www.w3.org/2000/svg"><g clip-rule="evenodd" fill-rule="evenodd"><path d="m67.104 15.778c-.675.321-1.465.194-2.176.193-11.147-.001-23.532-.049-35.109-.048-3.241 0-6.397-.108-9.334.048-5.884.313-10.34 2.289-13.83 5.03-.854.67-1.815 1.407-2.515 2.225-.53.618-1.067 1.258-1.644 1.886-.155.169-.353.554-.677.387 1.071-3.752 2.672-7.077 4.74-9.962 4.053-5.659 9.535-10.15 16.441-12.912 3.029-1.212 6.489-2.113 10.397-2.466 4.217-.381 8.961-.079 12.622.967 3.18.909 5.993 1.863 8.656 3.288 3.894 2.084 7.205 4.711 10.107 7.835.937 1.006 2.128 2.06 2.322 3.529z"/><path d="m6.944 30.432c5.392-.289 11.274-.048 16.829-.048 13.84 0 27.861.048 41.832.048 1.122 0 2.745.069 4.208 0 1.254-.059 3.528-.26 4.062.193.504.428.567 2.105.677 3.047.326 2.8.329 5.882-.097 8.608-.086.555-.218 1.297-.532 1.499-.29.187-1.437.097-2.127.097-19.404 0-39.079.001-58.71 0-1.405 0-2.884.066-4.304 0-1.923-.089-3.846.215-5.174-.532-2.16-1.215-3.851-3.682-3.579-6.77.122-1.39.767-2.686 1.547-3.627.718-.864 1.848-1.8 2.999-2.176.661-.217 1.528-.294 2.369-.339z"/><path d="m67.346 59.158c.134.449-.256.824-.484 1.112-.716.909-1.508 1.818-2.321 2.66-4.079 4.195-9.068 7.518-15.282 9.575-3.106 1.028-6.822 1.747-10.591 1.838-3.861.093-7.727-.425-11.074-1.354-9.402-2.61-16.658-8.263-21.617-15.669-.773-1.154-1.695-2.562-2.225-3.965-.583-1.545-1.294-2.997-1.693-4.546.027-.07.076-.118.145-.145h.097c1.126 1.669 2.262 3.104 3.772 4.449.803.714 1.639 1.408 2.515 2.031 1.81 1.288 3.993 2.181 6.19 2.853 4.622 1.415 11.064.854 17.168.967 5.451.102 11.705 0 17.651 0h9.092c2.278 0 4.514.012 6.625 0 .666-.003 1.424-.137 2.032.194z"/></g></svg>