<svg enable-background="new 0 0 79.266 37.17" viewBox="0 0 79.266 37.17" xmlns="http://www.w3.org/2000/svg"><path clip-rule="evenodd" d="m46.207.219c.261 2.83.146 6.23.146 9.352 0 1.027-.11 2.061.146 2.973 4.394.182 8.996.098 13.688.098 4.625 0 9.516-.44 12.714 1.168 2.945 1.482 5.168 4.291 5.992 7.892.923 4.035.08 8.293-1.949 11.106-1.993 2.764-4.88 4.287-9.597 4.287-12.734 0-24.856-.049-37.753-.049-1.176 0-2.525.17-3.41-.049-.68-.166-1.49-1.348-1.997-1.947-1.798-2.129-3.527-4.371-5.261-6.43-2.106-2.504-4.183-4.889-6.235-7.455-.268-.334-.5-.857-1.023-.924-.308 5.166.236 11.336-.195 16.805-3.613.154-7.854.178-11.35 0-.176-6.818-.098-14.15-.098-21.287 0-.967-.119-1.963.146-2.873 5.906-.17 12.551-.098 18.56-.098.881-.002 1.88-.186 2.484 0 .462.141.984.984 1.461 1.559 2.783 3.338 5.404 6.561 8.184 9.937.414.502 1.012 1.4 1.559 1.51 1.299.26 3.013.049 4.482.049h22.262c2.196 0 4.406.105 6.625 0 .973-.047 1.549-.076 1.559-.828-.036-1.43-2.07-1.023-3.215-1.023-9.807.002-19.534.086-29.082-.098-.178-7.16-.098-15.012-.098-22.555 0-.584-.142-1.144.438-1.266.739-.154 1.989-.016 2.679 0 2.621.058 5.525-.024 8.138.146z" fill-rule="evenodd"/></svg>