<svg enable-background="new 0 0 84.132 41.94" viewBox="0 0 84.132 41.94" xmlns="http://www.w3.org/2000/svg"><g clip-rule="evenodd" fill-rule="evenodd"><path d="m50.21 4.209c-.141-1.102-.222-2.972.05-3.993 2.568-.239 4.979-.051 7.329-.051 2.422 0 4.791-.166 7.228-.051 2.305.11 4.167.764 6.015 1.466 1.77.673 3.46 1.651 4.802 2.629 5.296 3.856 9.924 11.22 8.088 20.927-1.502 7.935-7.006 13.261-13.951 15.871-1.881.707-3.917.892-6.369.91-6.574.049-13.247.017-19.764-.051-.608-.006-1.316.108-1.819 0-.452-.098-1.023-.91-1.466-1.364-6.024-6.194-12.11-12.213-18.197-18.299-.476-.476-.908-.967-1.364-1.466-.426-.465-.914-1.005-1.517-1.263-.269.866-.152 1.809-.152 2.729.001 4.413 0 9.388 0 14.053 0 1.872.123 3.754-.151 5.509-1.123.158-2.873.171-3.994 0-.19-7.573-.101-15.72-.101-23.504 0-1.065.194-2.609-.05-3.437-.14-.474-.88-1.1-1.314-1.517-.528-.508-.978-1.132-1.517-1.214-.267 1.176-.152 2.402-.152 3.64 0 7.39-.001 15.066 0 22.544 0 1.201.083 2.381-.151 3.487-1.116.118-2.922.107-4.094-.05-.188-7.974-.101-17.142-.101-25.728 0-2.052 0-4.158 0-6.369 0-.731.124-1.554 0-2.123-.156-.717-1.021-.923-1.415-1.516-.496-.482-.796-1.159-1.567-1.365-.313 1.455-.083 2.988-.152 4.499-.21 4.628 0 9.38 0 14.103.001 3.172 0 6.347 0 9.452.001 3.094.071 6.132-.151 9.048-1.155.167-2.99.167-4.145 0-.102-12.836-.05-25.835-.05-39.275-.001-1.143-.162-2.237.505-2.376.694-.145 1.824 0 2.78 0 1.03 0 1.943-.152 2.73.05.686.177 1.848 1.664 2.477 2.275 2.432 2.364 4.761 4.761 7.077 7.076 3.193 3.192 6.214 6.541 9.402 9.503 1.632 1.517 3.192 3.134 4.751 4.701 3.907 3.927 7.805 7.917 11.777 11.827.795.782 1.485 1.683 2.426 2.274 6.241-.085 12.699.127 18.399 0 2.354-.052 3.928-.006 5.661-.556 6.057-1.922 10.48-6.476 11.828-13.192.795-3.958-.079-7.706-1.466-10.464-1.408-2.802-3.481-5.026-5.914-6.57-1.325-.842-2.699-1.531-4.246-2.022-1.635-.519-3.376-.657-5.61-.656-4.04 0-8.127.084-12.385-.101z"/><path d="m50.21 11.689c-.163-1.092-.17-2.851 0-3.942 3.388-.188 7.162-.101 10.514-.102 1.909 0 3.659-.183 5.155.102 1.393.265 2.702.777 3.842 1.466 2.151 1.3 3.985 3.05 5.308 5.358 1.297 2.263 2.022 5.316 1.415 8.744-.531 3.002-1.857 5.235-3.589 7.127-1.704 1.862-4.094 3.18-6.823 3.842-1.537.372-3.372.202-5.156.202-5.27 0-10.465.024-15.619-.051-.763-.254-1.175-1.002-1.719-1.517-2.72-2.571-5.362-5.312-8.037-7.986-5.309-5.308-10.792-10.608-16.024-16.073-2.138-2.142-4.16-4.399-6.369-6.47-.349-.323-.713-.69-1.061-1.062-.319-.34-.901-.634-.859-1.162 1.287-.041 2.335-.14 3.74-.101.482.014 1.085-.047 1.466.05.659.168 1.423 1.372 1.921 1.871 1.848 1.848 3.926 3.991 5.661 5.711 3.809 3.747 7.52 7.471 11.373 11.323 1.836 1.835 3.856 3.623 5.712 5.66 1.276 1.401 2.868 2.741 4.246 4.246.458.501.991 1.219 1.466 1.365.515.159 1.293-.022 2.022 0 4.559.143 9.604.051 14.355.051 2.775 0 4.596-.934 6.167-2.325 1.519-1.346 2.614-3.206 3.033-5.409.517-2.716-.361-5.11-1.415-6.772-1.082-1.706-2.712-3.001-4.752-3.691-2.187-.739-5.218-.354-7.835-.354-2.754.001-5.551-.052-8.138-.101z"/><path d="m21.601.114c1.857.257 3.688-.369 5.257.051.567.152 1.093.951 1.517 1.365.53.52 1.01.956 1.465 1.415 4.753 4.767 9.574 9.466 14.305 14.254 1.318 1.494 2.862 2.735 4.297 4.297.405.441 1.004 1.168 1.516 1.314.458.13 1.046.001 1.668 0 2.777-.007 5.747.16 8.694.05 2.005-.074 4.471.284 4.6-1.769.134-2.148-2.265-1.878-4.347-1.82-3.546.099-7.053-.072-10.413-.151-.131-1.128-.229-2.999.051-4.044 3.261-.207 6.98-.05 10.463-.05 1.191 0 2.37-.159 3.487 0 3.47.491 6.449 4.589 4.398 8.744-.579 1.173-1.718 2.303-2.881 2.83-1.089.494-2.615.354-4.196.354-4.243 0-9.152.014-13.446 0-1.274-.925-2.299-2.154-3.386-3.285-5.409-5.63-11.173-11.072-16.731-16.631-1.94-1.94-3.871-3.881-5.813-5.863-.254-.259-.642-.502-.657-.909-.035-.135.104-.097.152-.152z"/></g></svg>