<svg enable-background="new 0 0 80.487 80.784" viewBox="0 0 80.487 80.784" xmlns="http://www.w3.org/2000/svg"><path clip-rule="evenodd" d="m39.989 77.484c.336-.703.201-1.52.201-2.266-.001-12.057.052-24.519.051-36.196-.001-12.995-.104-26.022.15-38.814 13.051-.16 26.807 0 39.973.101.161.776.168 2.195 0 2.971-5.922.098-10.837 1.531-15.104 3.473-8.459 3.851-14.618 10.04-18.576 18.526-1.996 4.278-3.192 9.36-3.272 15.254-.079 5.842 1.388 11.042 3.323 15.254 1.964 4.274 4.497 7.973 7.551 10.975 3.147 3.093 6.636 5.805 10.925 7.652 2.137.92 4.343 1.881 6.847 2.416 1.281.273 2.592.483 3.978.654 1.341.166 2.751.201 4.229.402.164.74.164 2.13 0 2.87-26.786.086-53.479-.036-80.096-.302-.313-.769-.078-1.607-.101-2.417-.15-5.394 0-11.502 0-17.469 0-5.129.213-10.394 0-15.254-.035-.797-.025-1.663 0-2.467.127-4.049-.083-8.112.05-12.334.219-6.94-.001-13.438 0-20.489.001-2.424.051-4.641.051-7.451 0-.788-.101-2.28.151-2.467.037-.047.092-.076.15-.101.643.028 1.403-.06 1.964.051 1.573 3.146 2.944 6.396 4.38 9.615 5.746 12.886 11.351 25.861 17.216 38.765 1.468 3.229 2.805 6.52 4.229 9.767 2.467 5.625 5.097 11.246 7.551 16.915.341.787.572 1.663 1.158 2.316.81.185 2.132.111 3.021.05z" fill-rule="evenodd"/></svg>