<svg enable-background="new 0 0 16.092 17.937" viewBox="0 0 16.092 17.937" xmlns="http://www.w3.org/2000/svg"><path d="m3.109 0c3.294.014 6.59-.001 9.884.007.81.037 1.596.406 2.163.982.604.587.924 1.429.935 2.264 0 2.852 0 5.705.001 8.557-.007.744-.244 1.5-.731 2.071-.625.779-1.622 1.234-2.619 1.219-2.698-.004-5.397.003-8.095-.003-.888-.028-1.695-.722-1.858-1.594-.151-.73.163-1.537.776-1.965.347-.263.788-.392 1.221-.376 2.203 0 4.405.002 6.607-.001.361.007.715-.242.804-.596.145-.455-.222-.99-.702-1.007-2.219-.001-4.44 0-6.66-.001-.448.006-.904-.114-1.266-.383-.571-.406-.899-1.133-.802-1.829.095-.902.91-1.658 1.816-1.689 2.269.001 4.539.001 6.808 0 .4.002.782-.31.827-.713.072-.451-.322-.9-.777-.895-2.752.003-5.505-.001-8.258.002-.588.03-1.156.323-1.527.778-.318.381-.474.883-.463 1.377.002 2.851 0 5.703.001 8.553.016.816.567 1.577 1.328 1.864.275.106.569.156.863.147 3.198-.003 6.395.005 9.592-.003.008.39-.005.78.008 1.171-3.25-.004-6.501-.001-9.751-.001-1.403.002-2.745-1.009-3.107-2.368-.095-.31-.113-.634-.127-.955 0-2.819 0-5.637 0-8.456.009-.834.314-1.679.919-2.265.594-.634 1.453-1.001 2.32-1.016 2.6-.002 5.2 0 7.799-.001.233.002.468-.013.7.027.524.07.988.388 1.304.803.365.491.467 1.161.279 1.741-.239.785-1.014 1.353-1.831 1.371-2.219.002-4.438 0-6.657 0-.191-.006-.389.026-.55.136-.268.17-.412.526-.316.833.076.301.343.542.65.585.171.034.346.019.519.021 2.117 0 4.235-.001 6.352 0 .839-.002 1.621.613 1.846 1.416.166.549.067 1.169-.259 1.64-.319.479-.857.813-1.433.862-2.186-.002-4.371 0-6.557-.001-.258-.001-.54-.009-.764.137-.211.114-.332.347-.378.574-.068.452.33.918.791.901 2.718.003 5.437-.001 8.155.002.465-.009.912-.205 1.271-.495.481-.405.773-1.036.737-1.668-.002-2.869 0-5.738-.001-8.607-.014-.52-.259-1.016-.617-1.386-.412-.386-.971-.614-1.538-.605-3.21.006-6.42-.007-9.63.007 0-.391.005-.78-.002-1.169z"/></svg>