<svg height="130.0003" viewBox="0 0 130.00021 130.0003" width="130.00021" xmlns="http://www.w3.org/2000/svg"><path d="m63.2316.00520325c-40.4082-.02420045-41.3204-.00398255-44.5038.98419175-1.3433.417115-3.0294 1.024455-3.7468 1.349925-1.4044.63698-4.8615 2.80626-5.79802 3.63791-2.69848 2.3966-4.96978 5.19107-6.3395 7.79857-2.685582 5.1125-2.8800095 6.9911-2.83911599 27.4262.01885989 9.3448.01892089 27.767.00036621 40.9383-.01858522 13.1713.04138188 24.5307.13290378 25.2437.472809 3.682 2.007596 7.514 4.528136 11.307 3.18604 4.794 8.40133 8.391 14.88993 10.27 2.3892.692-1.2721.625 52.1192.949 37.1501.225 37.8761.19 42.7271-2.052 3.362-1.553 9.472-6.095 9.48-7.047.001-.15.289-.513.638-.805.617-.516 2.309-3.24 3.03-4.88.195-.443.561-1.278.813-1.856s.71-2.273 1.018-3.766c.514-2.493.564-6.176.604-44.8951.043-41.977.04-42.1907-.647-44.6122-2.73-9.6191-9.541-16.444-18.926-18.96215-3.418-.917088-7.464-1.0053447-47.1804-1.02934675zm44.3754 13.69679675c4.077 1.2066 7.231 4.2373 8.486 8.1559.742 2.3178.772 2.8284.875 15.0389.096 11.3325.048 12.8719-.471 14.8826-1.244 4.8267-5.287 8.5504-10.244 9.4358-.994.1774-7.196.2655-14.3309.2035-11.7575-.1023-12.7139-.1536-14.6453-.7863-4.4786-1.4667-7.2272-4.3977-8.3842-8.9388-.5093-2.0002-.56-3.7088-.457-15.4634l.1157-13.2151.8237-1.9699c.4528-1.0834 1.3062-2.5857 1.8967-3.3385 1.0544-1.3445 3.717-3.2482 5.6434-4.035 1.8817-.7688 28.0779-.7429 30.6919.0303zm-53.1976.5513c2.2735 1.1194 5.0548 3.8323 5.937 5.7908 1.3164 2.9221 1.384 4.0673 1.3038 22.1244l-.0772 17.4199-.9181.7752c-.9843.8313-2.7125 1.0198-3.8195.4167-1.5012-.8173-1.5225-1.0906-1.4904-19.2592l.0307-17.1514-.7944-1.4489c-.4366-.7967-1.4237-1.8975-2.1939-2.4463l-1.3995-.9973-26.4115-.2296-1.4532.7964c-.7996.438-1.9568 1.4428-2.5717 2.233l-1.1182 1.4365-.0862 36.5786c-.0472 20.1183-.0058 38.6363.0917 41.1509.1652 4.248.2401 4.669 1.0486 5.91.9954 1.527 2.6388 2.496 4.8212 2.841 2.9959.475 6.69-2.16 10.3142-7.356.4937-.707.9798-1.359 1.0803-1.447.1004-.088 1.3534-1.8245 2.7843-3.8589 1.4313-2.0345 2.7203-3.8437 2.8647-4.0204.3746-.4582 3.2972-4.3697 3.875-5.1867.2667-.3769 2.1126-2.9557 4.1018-5.7309 1.9893-2.7749 4.1794-5.8678 4.8673-6.8732.6879-1.005 1.5271-2.1893 1.8652-2.6313.3381-.4421 1.3047-1.7087 2.1481-2.815 1.7867-2.3433 2.5934-2.969 3.8142-2.9584 1.9634.0171 3.1826 1.2507 3.1607 3.198-.0108.9653-3.4969 6.3664-6.1692 9.559-.148.1767-.6123.8681-1.032 1.5369-.4196.6685-.9326 1.3922-1.1404 1.6082-.2078.2157-.9825 1.261-1.7215 2.3226-.7395 1.0615-2.4035 3.3771-3.6976 5.1458-1.2945 1.7686-2.5391 3.4834-2.7661 3.8105-.499.7193-2.7548 3.7796-3.1173 4.2289-.1425.1767-1.0715 1.4519-2.0644 2.8329-6.5212 9.075-9.3852 12.166-12.7841 13.8-1.998.96-2.3262 1.017-5.7027.988-4.0381-.036-5.2721-.425-8.0949-2.552-2.3235-1.752-3.8511-4.062-4.5924-6.946-.5242-2.039-.4681-81.945.0594-84.0941.6278-2.5586 1.5342-4.0705 3.6634-6.1099 1.9462-1.8639 3.9733-2.9939 6.1431-3.4255.6263-.1243 7.4956-.1478 15.2652-.0517l14.1264.1743zm24.8046 5.4464c-1.1411.3946-1.816.7991-2.7331 1.6377-.2049.1872-.6962.9593-1.092 1.7158-.7088 1.355-.7194 1.5649-.7305 14.2126-.0102 11.8859.034 12.9219.5958 13.9718.8691 1.625 2.3061 2.8747 3.7731 3.282 1.6245.4513 25.2947.6461 26.9327.2218 1.516-.3926 3.413-2.2589 4.118-4.0515.494-1.2569.547-2.7476.493-13.8128-.067-13.4438-.038-13.2102-1.944-15.3139-1.881-2.0749-1.982-2.089-15.7342-2.1928-9.5635-.0721-12.7386.0042-13.6788.3293zm27.244 48.6376c6.182 1.224 10.376 6.4717 10.332 12.927-.031 4.5754-1.808 7.8738-5.619 10.4332-2.128 1.4284-4.307 2.048-9.939 2.8252-2.334.3221-7.1707.9872-10.7476 1.4774-12.2147 1.675-12.2753 1.6907-14.3342 3.7068-1.3598 1.3311-1.5894 2.0691-1.4286 4.5901.1485 2.325 1.2283 4.081 3.2259 5.244l1.3688.797 13.1522.165c7.2337.091 13.4745.181 13.8695.202.395.02 1.085.438 1.535.93 1.089 1.191 1.091 2.955.005 4.192l-.791.901-12.4527.063c-6.8486.034-13.5272-.067-14.8415-.224-4.9682-.595-8.5397-3.247-10.4485-7.76l-1.0357-2.448.0179-13.5858c.019-14.3247.0855-15.0963 1.5605-18.1158 1.7081-3.4964 5.5294-6.0894 9.6367-6.5391 3.1573-.346 24.9783-.1683 26.9343.219zm-26.6652 6.1318c-2.2427.7148-4.3548 2.6469-4.878 4.4631-.4247 1.4739-.6113 13.7247-.2089 13.7282.1478.0013 1.1397-.3416 2.2042-.7618 1.2824-.5063 3.9629-1.0289 7.9453-1.5487 3.3056-.4317 6.8152-.9184 7.7991-1.0813.9839-.1633 3.9106-.5812 6.5038-.9289 7.0617-.947 8.1337-1.3044 9.9667-3.3217 2.686-2.9553 1.357-8.0681-2.57-9.8919-1.311-.6088-2.133-.6522-13.8336-.73-6.8421-.0456-12.6599-.0127-12.9286.073zm-22.2416 31.2929c2.2473.54 4.0794 2.876 4.0592 5.175-.0237 2.706-2.1151 5.284-4.6097 5.682-6.0711.967-9.0837-7.021-3.8666-10.254 1.589-.985 2.3795-1.093 4.4171-.603zm-3.603 1.432c-1.154.488-2.3951 2.495-2.4073 3.892-.0041.47.2319 1.369.5249 1.998 1.3864 2.977 6.0039 3.259 7.6913.469 1.2246-2.025.3444-5.546-1.6138-6.456-1.0267-.477-2.943-.433-4.1951.097zm3.6219 1.824c.6461.544.6067 2.145-.0587 2.393-.4776.178-.4759.27.0211 1.041.838 1.299.0994 1.672-.9072.459-.9854-1.188-1.8685-1.333-1.7649-.291.0456.461-.1314.756-.4983.828-.5017.1-.5669-.172-.5484-2.283.0115-1.319.0852-2.46.1638-2.537.3066-.3 3.138.007 3.5926.39zm-2.5245.704c-.2683.708.1004 1.215.8889 1.222.9499.008 1.3163-.512.8024-1.14-.4762-.582-1.4832-.63-1.6913-.082z" fill-rule="evenodd"/></svg>