<svg viewBox="0 0 90 90" fill="none" xmlns="http://www.w3.org/2000/svg">
<path fill-rule="evenodd" clip-rule="evenodd" d="M43.7757 0.0035972C15.8008 -0.0131536 15.1693 0.000846891 12.9654 0.684964C12.0354 0.973738 10.8681 1.39421 10.3715 1.61953C9.3992 2.06052 7.00579 3.56232 6.35746 4.13809C4.48927 5.79726 2.91682 7.73189 1.96856 9.53708C0.109319 13.0765 -0.0252889 14.3771 0.00302881 28.5245C0.0160717 34.9939 0.0161226 47.7478 0.00326591 56.8664C-0.00959076 65.9849 0.0319319 73.8493 0.0952897 74.3428C0.422606 76.8917 1.48516 79.5449 3.23015 82.1709C5.43586 85.4898 9.04648 87.9801 13.5386 89.2808C15.1927 89.7596 12.6579 89.7134 49.6211 89.9373C75.3406 90.0933 75.8427 90.0692 79.2012 88.5173C81.529 87.442 85.7587 84.2976 85.7645 83.6385C85.7654 83.5345 85.9643 83.2835 86.2065 83.0811C86.6335 82.7241 87.8048 80.8377 88.304 79.7028C88.4391 79.3959 88.6922 78.8176 88.8666 78.4176C89.0412 78.0176 89.3584 76.8441 89.5716 75.8102C89.9276 74.0844 89.9621 71.5346 89.9895 44.7292C90.0192 15.6682 90.0171 15.5203 89.5414 13.8439C87.6519 7.18449 82.9361 2.45957 76.4391 0.71623C74.0725 0.0813157 71.2719 0.0202182 43.7757 0.0035972ZM74.4969 9.48599C77.32 10.3214 79.5031 12.4195 80.3718 15.1324C80.8855 16.737 80.9062 17.0905 80.9779 25.544C81.0445 33.3895 81.0109 34.4552 80.652 35.8473C79.7908 39.1888 76.9918 41.7668 73.5599 42.3797C72.8717 42.5026 68.5779 42.5636 63.6384 42.5206C55.4986 42.4498 54.8365 42.4143 53.4993 41.9763C50.3988 40.9608 48.4959 38.9317 47.6948 35.7879C47.3423 34.4031 47.3072 33.2203 47.3785 25.0824L47.4586 15.9335L48.0289 14.5698C48.3423 13.8197 48.9331 12.7797 49.342 12.2585C50.0719 11.3277 51.9153 10.0097 53.2489 9.465C54.5516 8.93279 72.6878 8.95069 74.4969 9.48599ZM37.6681 9.86768C39.242 10.6427 41.1675 12.5208 41.7783 13.8767C42.6896 15.8997 42.7364 16.6925 42.6809 29.1936L42.6274 41.2535L41.9918 41.7902C41.3104 42.3657 40.114 42.4962 39.3476 42.0786C38.3083 41.5128 38.2936 41.3236 38.3158 28.7454L38.337 16.8714L37.7871 15.8682C37.4848 15.3167 36.8014 14.5546 36.2682 14.1747L35.2993 13.4842L17.0144 13.3252L16.0083 13.8766C15.4548 14.1799 14.6537 14.8755 14.2279 15.4225L13.4539 16.417L13.3942 41.7407C13.3615 55.6687 13.3902 68.4889 13.4577 70.2301C13.572 73.1703 13.6238 73.4618 14.1836 74.321C14.8727 75.3787 16.0104 76.0493 17.5214 76.2885C19.5954 76.617 22.1528 74.7929 24.662 71.1957C25.0038 70.7058 25.3402 70.255 25.4098 70.194C25.4794 70.133 26.3468 68.9307 27.3375 67.5222C28.3283 66.1137 29.2207 64.8612 29.3207 64.7389C29.58 64.4216 31.6033 61.7137 32.0034 61.1481C32.188 60.8871 33.4659 59.1018 34.8431 57.1805C36.2203 55.2594 37.7365 53.1182 38.2128 52.4222C38.689 51.7264 39.27 50.9065 39.5041 50.6005C39.7381 50.2944 40.4073 49.4175 40.9912 48.6517C42.2281 47.0293 42.7866 46.5962 43.6318 46.6035C44.9911 46.6154 45.8351 47.4694 45.8199 48.8175C45.8125 49.4858 43.3991 53.225 41.549 55.4353C41.4465 55.5576 41.1251 56.0363 40.8345 56.4993C40.544 56.9621 40.1889 57.4632 40.045 57.6127C39.9012 57.762 39.3648 58.4857 38.8532 59.2206C38.3413 59.9555 37.1893 61.5586 36.2933 62.7831C35.3971 64.0075 34.5355 65.1947 34.3783 65.4212C34.0329 65.9191 32.4712 68.0378 32.2202 68.3488C32.1216 68.4712 31.4784 69.3539 30.791 70.3102C26.2763 76.5925 24.2935 78.7326 21.9405 79.8637C20.5572 80.5285 20.33 80.568 17.9924 80.5477C15.1969 80.5233 14.3426 80.254 12.3883 78.7809C10.7797 77.5685 9.72212 75.969 9.20896 73.9726C8.84605 72.5606 8.8849 17.2412 9.25004 15.7534C9.68467 13.982 10.3122 12.9354 11.7863 11.5235C13.1336 10.233 14.537 9.45078 16.0392 9.15197C16.4727 9.06589 21.2284 9.04967 26.6074 9.11616L36.3872 9.23683L37.6681 9.86768ZM54.8405 13.6383C54.0505 13.9115 53.5832 14.1915 52.9483 14.7721C52.8065 14.9017 52.4663 15.4362 52.1923 15.9599C51.7016 16.898 51.6943 17.0433 51.6866 25.7994C51.6795 34.0281 51.7101 34.7453 52.099 35.4722C52.7008 36.5972 53.6956 37.4624 54.7112 37.7443C55.8359 38.0568 72.223 38.1916 73.357 37.8979C74.4063 37.6261 75.7197 36.334 76.208 35.093C76.5501 34.2229 76.5868 33.1908 76.5489 25.5303C76.5025 16.223 76.5231 16.3847 75.203 14.9284C73.9009 13.4919 73.831 13.4821 64.3104 13.4103C57.6895 13.3604 55.4914 13.4132 54.8405 13.6383ZM73.7018 47.3104C77.9816 48.1578 80.8854 51.7909 80.8548 56.2599C80.8329 59.4275 79.6032 61.711 76.9646 63.4829C75.4915 64.4718 73.9831 64.9007 70.084 65.4388C68.4678 65.6618 65.1194 66.1222 62.6431 66.4616C54.1867 67.6212 54.1448 67.6321 52.7194 69.0278C51.778 69.9497 51.619 70.4602 51.7303 72.2054C51.8331 73.8152 52.5807 75.0306 53.9637 75.836L54.9113 76.3878L64.0167 76.5021C69.0246 76.5649 73.3454 76.6276 73.6187 76.6416C73.8918 76.6554 74.3698 76.9452 74.6811 77.2856C75.4352 78.1104 75.4369 79.3312 74.6845 80.1879L74.1369 80.8118L65.5161 80.8552C60.7747 80.8789 56.151 80.8091 55.2411 80.7002C51.8016 80.2885 49.3291 78.452 48.0076 75.3278L47.2905 73.6329L47.303 64.2276C47.3161 54.3105 47.3621 53.7763 48.3833 51.6859C49.5658 49.2653 52.2114 47.4701 55.0548 47.1588C57.2407 46.9193 72.3474 47.0423 73.7018 47.3104ZM55.2412 51.5555C53.6885 52.0504 52.2263 53.388 51.8641 54.6453C51.5701 55.6658 51.4409 64.1471 51.7195 64.1495C51.8218 64.1504 52.5085 63.913 53.2454 63.6221C54.1333 63.2716 55.989 62.9098 58.7461 62.55C61.0345 62.251 63.4642 61.9141 64.1454 61.8013C64.8266 61.6883 66.8527 61.3989 68.648 61.1582C73.5373 60.5026 74.2792 60.2552 75.5481 58.8586C77.4073 56.8126 76.4876 53.273 73.769 52.0104C72.8614 51.5889 72.2923 51.5589 64.1917 51.505C59.4549 51.4734 55.4272 51.4962 55.2412 51.5555ZM39.8431 73.2196C41.3989 73.5936 42.6673 75.2108 42.6534 76.8028C42.637 78.6761 41.1891 80.4606 39.4621 80.7359C35.2589 81.406 33.1733 75.8754 36.7851 73.637C37.8852 72.9552 38.4325 72.8804 39.8431 73.2196ZM37.3487 74.2112C36.5498 74.5493 35.6906 75.9383 35.6822 76.9059C35.6793 77.231 35.8427 77.8532 36.0456 78.2887C37.0054 80.3503 40.2021 80.5454 41.3703 78.6135C42.2181 77.2117 41.6087 74.7739 40.253 74.1442C39.5422 73.8138 38.2156 73.8446 37.3487 74.2112ZM39.8562 75.4742C40.3035 75.8507 40.2763 76.9593 39.8156 77.131C39.4849 77.2542 39.4861 77.3178 39.8302 77.8512C40.4103 78.7504 39.899 79.0092 39.2021 78.169C38.5199 77.3469 37.9086 77.2461 37.9803 77.9677C38.0119 78.2868 37.8893 78.491 37.6353 78.5412C37.2879 78.6101 37.2428 78.4222 37.2556 76.9601C37.2636 76.0474 37.3146 75.2572 37.369 75.2039C37.5813 74.9963 39.5415 75.2092 39.8562 75.4742ZM38.1085 75.9616C37.9227 76.4518 38.178 76.8024 38.7239 76.8071C39.3815 76.8128 39.6351 76.4528 39.2794 76.0179C38.9497 75.6151 38.2525 75.5817 38.1085 75.9616Z" fill="black"/>
</svg>
