<svg enable-background="new 0 0 51.351 43.722" viewBox="0 0 51.351 43.722" xmlns="http://www.w3.org/2000/svg"><path d="m20.382 9.783c5.449 0 9.914 4.068 10.615 9.37h9.825c-.737-10.726-9.519-19.153-20.44-19.153-10.81 0-19.641 8.427-20.382 19.152h9.881c.685-5.301 5.052-9.369 10.501-9.369z"/><path d="m31.004 21.712v7.802h9.749c-.873 3.727-4.484 5.357-9.2 5.357-6.114 0-10.83-5.415-10.83-11.704 0-.498.032-.988.087-1.47h-9.871c-.034.486-.057.975-.057 1.47 0 11.296 9.084 20.554 20.671 20.554 11.529 0 19.798-6.638 19.798-22.01h-20.347z"/></svg>