<svg enable-background="new 0 0 81.416 81.278" viewBox="0 0 81.416 81.278" xmlns="http://www.w3.org/2000/svg"><path clip-rule="evenodd" d="m11.132 12.683c6.014-6.038 13.189-10.47 23.442-12.196.741-.124 1.488-.24 2.249-.3.815-.063 1.748-.111 2.549-.149 5.85-.277 10.945 1.009 15.294 2.549 4.39 1.555 8.194 3.808 11.397 6.397 3.358 2.717 6.057 5.714 8.496 9.297 3.644 5.351 6.121 11.675 6.748 19.943.651 8.579-1.73 15.925-4.748 21.643-4.037 7.646-10.362 13.689-18.144 17.443-4.094 1.976-8.665 3.485-13.995 3.849-11.845.809-20.69-2.606-27.641-7.547-3.533-2.512-6.485-5.563-8.897-8.897-1.221-1.688-2.305-3.571-3.349-5.548-3.02-5.719-5.097-13.13-4.398-21.893.544-6.819 2.77-12.056 5.398-16.844.536-.976.985-1.955 1.6-2.85 1.2-1.743 2.546-3.322 3.999-4.897zm1.399 37.536c1.344 4.003 3.47 7.473 6.048 10.247 5.203 5.6 12.223 9.845 22.692 9.847 3.258 0 6.556-.65 9.247-1.6 5.321-1.878 9.537-5.038 12.846-8.847 3.329-3.995 5.777-8.742 6.748-14.945 1.053-6.729-.581-13.368-3.099-17.993-2.468-4.532-5.889-8.381-10.396-11.297-4.211-2.724-10.237-4.876-17.293-4.548-7.945.369-13.846 3.399-18.344 7.347-3.41 2.993-6.156 6.788-7.947 11.347-.607 1.546-1.247 3.251-1.25 5.099 1.458.362 3.848.138 5.498.05.565-1.506.996-2.942 1.599-4.299.606-1.363 1.377-2.562 2.2-3.748 4.561-6.581 13.295-11.982 24.841-9.598 3.085.638 5.868 2.019 8.248 3.599 2.382 1.582 4.398 3.609 6.048 5.849 2.86 3.883 4.838 9.489 4.399 16.044-.06.892-.001 1.815-.3 2.699-.05 0-.059.04-.1.05-10.733.23-22.639.151-33.038.15-.665 0-1.447-.188-1.999.25.134 1.112.821 2.016 1.449 2.799 1.915 2.389 4.74 4.18 8.347 4.748 4.934.778 9.006-1.439 11.096-3.998.294-.359.683-.984 1.1-1.1.806-.223 2.054.003 2.999 0 2.484-.007 5.105-.05 7.647-.05.464-.001 1.028-.13 1.4.199-.061.993-.584 1.873-1 2.699-3.016 5.999-7.658 10.069-14.295 12.346-3.941 1.353-9.26 1.265-13.295.2-4.043-1.067-7.314-2.922-9.946-5.299-3.034-2.781-5.684-6.341-6.948-10.796-.177-.623-.195-1.357-.65-1.899-1.66-.023-3.902-.206-5.398.101-.128 1.544.396 3.006.846 4.347zm38.037-17.593c-.441-.614-.951-1.247-1.5-1.749-1.988-1.82-5.252-3.472-9.197-3.148-3.902.318-6.819 2.032-8.747 4.348-.663.797-1.409 1.659-1.55 2.749.716.269 1.531.15 2.299.15 5.835-.001 11.42-.02 16.794 0 1.007.004 2.001.139 2.949-.15-.047-.829-.579-1.546-1.048-2.2z" fill-rule="evenodd"/></svg>