<svg enable-background="new 0 0 70.913 70.639" viewBox="0 0 70.913 70.639" xmlns="http://www.w3.org/2000/svg"><path clip-rule="evenodd" d="m35.07 68.16c-1.558.412-2.972 1.074-4.609 1.353-1.741.296-3.517.387-5.411.351-3.536-.067-6.96-1.194-9.469-2.455-5.156-2.592-9.457-6.925-12.024-11.774-1.36-2.567-2.568-5.518-3.106-8.818-.282-1.727-.451-3.558-.451-5.51 0-5.757 1.81-10.278 4.159-13.728.767-1.126 1.53-2.281 2.605-3.356.435-.436 1.008-.948 1.553-1.403.461-.385 1.33-.886 1.553-1.402.304-.704.223-1.706.401-2.505 1.193-5.371 3.697-9.659 7.314-12.725 2.023-1.911 4.402-3.27 7.114-4.359 2.76-1.108 5.87-1.629 9.619-1.804 2.777-.129 6.059.274 8.417 1.002.764.236 1.503.6 2.204.902 1.503.648 2.855 1.352 4.058 2.154 3.583 2.389 6.629 6.061 8.667 9.92.364.689.618 1.439.952 2.154.329.704.713 1.388 1.002 2.104.613 1.522.776 3.219 1.153 5.01.104.499.976 1.205 1.503 1.653 3.776 3.216 6.425 7.327 7.916 12.826.884 3.261.903 7.22.351 10.621-.563 3.471-1.762 6.192-3.106 8.767-1.283 2.458-3.008 4.92-5.06 6.814-2.049 1.891-4.436 3.582-7.165 4.709-2.851 1.179-5.978 2.143-9.82 1.954-2.035-.1-3.698-.308-5.26-.702-1.511-.38-2.798-1.014-4.309-1.603-.159-.062-.436-.194-.751-.15zm20.341-49.499c-1.344-4.674-3.907-8.299-7.014-11.122-.862-.766-1.878-1.506-2.956-2.205-1.032-.668-2.157-1.389-3.356-1.853-2.5-.968-5.268-1.912-8.617-1.753-6.27.296-11.089 2.51-14.58 5.611-2.646 2.292-4.863 5.278-6.162 8.868-.435 1.201-.9 2.587-.802 4.008 1.199.191 2.14-.626 3.207-.902 1.147-.296 2.419-.517 3.757-.601 1.24-.079 2.619.221 3.858.451 1.236.229 2.346.62 3.307 1.052 1.798.81 3.577 2.228 4.86 3.808 1.312 1.616 2.289 3.893 2.455 6.212.155 2.166-.447 3.819-1.203 5.261-.729 1.392-1.859 2.783-2.906 3.557-1.523 1.127-4.062 1.948-6.563 1.604-2.474-.341-4.364-1.25-5.961-2.455-2.731-2.058-4.715-5.13-5.962-8.717-.191-.547-.241-1.293-.702-1.403-.427-.102-1.205.587-1.603 1.002-1.355 1.411-2.473 3.127-3.357 4.759-1.273 2.352-2.133 5.419-2.354 8.517-.326 4.543.752 8.84 2.204 12.125 1.521 3.441 3.715 6.044 6.263 8.266 2.506 2.091 5.685 4.091 9.469 5.06 3.446.882 8.142.775 11.223-.15.435-.13 1.012-.252 1.152-.702-.325-.716-1.076-1.081-1.603-1.603-1.656-1.638-3.405-3.34-4.409-5.611-1.247-2.82-2.229-7.609-.852-11.172.623-1.611 1.377-2.967 2.655-4.008 1.24-1.01 2.639-1.841 4.509-2.154 3.122-.523 6.042.515 7.815 1.904 2.528 1.98 4.008 5.126 4.008 9.469 0 1.655-.324 3.036-.751 4.309-.687 2.044-1.721 3.821-2.956 5.26-.191.668-1.537.942-1.353 1.804.074.348.988.641 1.503.801.634.197 1.28.401 1.804.551 1.348.388 2.826.401 4.258.401 3.171 0 5.621-.694 7.716-1.653 4.289-1.965 7.84-4.677 10.32-8.417 2.456-3.703 4.138-9.127 3.507-14.98-.591-5.479-2.601-9.824-5.561-13.176-.413-.424-.818-.851-1.253-1.252-.414-.382-.778-.966-1.453-1.052-.415.407-.373 1.051-.451 1.553-.627 4.007-2.214 7.367-4.559 9.619-1.922 1.847-4.735 3.733-8.417 3.658-4.838-.099-7.41-3.019-9.018-6.413-1.315-2.774-.827-6.623.701-9.068 2.423-3.875 7.575-6.525 14.028-5.311.756.143 1.491.573 2.305.351.271-.677.028-1.487-.15-2.108zm-11.874 5.061c-1.011.7-2.047 1.646-2.855 3.056-.677 1.181-1.433 2.8-1.403 4.559.02 1.197.543 2.46 1.052 3.257.458.717 1.165 1.302 1.904 1.753 2.037 1.245 4.977 1.052 7.215 0 .626-.295 1.36-.885 1.954-1.403 2.421-2.112 3.778-4.692 4.509-8.567.155-.82.339-2.283 0-2.955-.358-.71-1.712-1.006-2.655-1.203-1.199-.249-2.467-.355-3.558-.3-2.315.115-4.786.849-6.163 1.803zm-29.158 1.302c-.861.373-2.261.796-2.455 1.653-.147.65.188 1.685.401 2.355.579 1.814 1.315 3.28 2.355 4.709 1.874 2.576 4.736 5.106 8.868 5.261 3.822.143 7.408-2.229 6.964-6.564-.232-2.267-1.64-4.254-3.056-5.56-1.979-1.827-5.079-3.148-8.817-2.856-1.735.136-2.88.404-4.26 1.002zm20.19 19.439c-2.061.866-2.977 2.471-3.708 4.409-.443 1.176-.778 2.288-.651 4.058.297 4.152 2.478 7.198 5.01 9.419.842.738 2.056 1.943 2.906 1.904.563-.026 1.065-.704 1.503-1.102.523-.476.966-.922 1.303-1.353.784-1.001 1.627-2.234 2.004-3.307.161-.457.234-1.035.401-1.603.591-2.017.635-4.92 0-6.813-.194-.58-.33-1.224-.501-1.604-.964-2.138-3.526-4.56-6.663-4.358-.589.037-1.093.135-1.604.35z" fill-rule="evenodd"/></svg>