<svg enable-background="new 0 0 81.801 81.511" viewBox="0 0 81.801 81.511" xmlns="http://www.w3.org/2000/svg"><g clip-rule="evenodd" fill-rule="evenodd"><path d="m64.153 64.174c2.724-2.734 5.108-5.92 6.794-9.691 1.5-3.357 2.599-6.912 2.947-11.439.044-.574-.047-1.226.25-1.799 1.013-.342 2.481-.201 3.847-.199 1.373 0 2.85-.184 3.796.248.147 4.775-.875 9.07-2.197 12.84-1.301 3.709-2.973 7.232-5.146 10.092-4.438 5.836-9.71 10.668-16.736 13.688-3.412 1.467-7.382 2.795-11.939 3.297-2.265.25-4.661.422-6.993.199-2.278-.217-4.563-.346-6.694-.898-2.116-.549-4.078-1.051-5.895-1.748-3.575-1.375-6.865-3.26-9.841-5.346-.725-.508-1.358-1.17-2.049-1.748-.701-.588-1.347-1.191-1.998-1.799-5.283-4.927-8.958-11.347-11.093-19.384-.532-2.006-1.06-4.27-1.148-6.494-.096-2.391-.08-4.807.1-7.295.328-4.537 1.712-8.621 3.147-12.039 2.549-6.066 6.554-11.277 11.39-15.236.708-.58 1.338-1.248 2.049-1.75 3.009-2.117 6.356-3.818 10.091-5.144 3.805-1.352 7.879-2.273 12.69-2.498 3.248-.15 6.909.293 9.542.898 2.913.674 5.461 1.322 7.843 2.449 2.434 1.15 4.611 2.195 6.744 3.598 6.195 4.072 10.948 9.502 14.287 16.635 1.871 3.996 3.363 8.705 3.747 14.338.05.721.167 1.889-.15 2.197-.457.445-2.639.246-3.547.25-.811.004-3.392.203-3.797-.25-.399-.445-.37-2.332-.5-3.146-.515-3.232-1.073-6.102-2.198-8.594-.754-1.672-1.525-3.285-2.447-4.795-2.644-4.326-6.531-8.041-10.891-10.74-3.019-1.871-6.062-3.306-10.142-4.25-8.958-2.07-17.761.34-23.629 3.598-3.062 1.701-5.774 3.857-8.094 6.344-.544.586-.992 1.353-1.548 2.049-3.645 4.568-6.658 10.591-6.994 18.234-.408 9.256 2.662 16.551 6.744 21.932 2.118 2.791 4.595 5.252 7.344 7.043 5.581 3.637 13.195 6.641 22.729 5.596 2.173-.238 4.178-.607 6.045-1.199 5.58-1.769 9.613-4.331 13.54-8.044z"/><path d="m17.842 17.914c2.82-2.715 5.958-4.932 9.691-6.494 2.874-1.203 5.867-2.205 9.442-2.697 5.687-.785 11.605.32 15.886 2.047 3.239 1.307 6.251 3.277 8.793 5.346 2.647 2.156 4.821 4.676 6.645 7.543 1.85 2.912 3.306 6.193 4.146 9.992.922 4.164 1.055 8.609.35 12.738-.653 3.834-2.111 7.359-3.796 10.342-1.671 2.959-3.778 5.717-6.245 7.943-2.488 2.246-5.346 4.227-8.542 5.596-3.566 1.525-6.89 2.393-11.441 2.746-4.359.34-8.711-.596-12.189-1.748-3.699-1.225-6.523-2.738-9.392-4.795-1.412-1.014-2.634-2.135-3.797-3.299-1.182-1.18-2.097-2.553-3.098-3.945-1.987-2.766-3.449-5.998-4.546-9.643-.567-1.885-1.016-3.807-1.199-5.894-.188-2.141-.134-4.305.05-6.693.156-2.021.691-4.025 1.249-5.846.551-1.795 1.232-3.598 2.049-5.045 1.722-3.055 3.54-5.86 5.944-8.194zm47.159 27.526c1.81-8.893-1.689-16.201-5.745-20.832-2.825-3.225-6.609-5.824-11.24-7.143-2.368-.676-5.183-1.145-8.242-1-4.608.219-8.676 1.648-11.84 3.646-1.643 1.037-3.048 2-4.347 3.299-3.768 3.766-6.862 8.838-7.394 15.635-.376 4.816.928 9.115 2.598 12.641.719 1.516 1.832 3.195 3.048 4.596 3.551 4.088 8.336 7.484 14.487 8.543 4.739.814 9.501.434 13.288-1.051 3.651-1.43 6.572-3.486 9.143-6.193 2.97-3.19 5.217-7.091 6.244-12.141z"/><path d="m46.018 64.024c-.398-.445-.25-1.182-.25-1.848 0-1.939-.04-4.23.05-6.096.415-.588 1.13-.668 1.699-.898 1.776-.717 3.273-1.875 4.596-3.197 1.703-1.703 3.199-3.666 4.047-6.344.398-1.262.513-2.809.549-4.447.032-1.441-.072-3.033-.35-4.445-.265-1.354-.934-2.652-1.648-3.848-1.465-2.449-2.993-3.937-5.445-5.545-.51-.334-.983-.656-1.748-.998-.537-.24-1.652-.748-2.099-.551-.638.283-.35 3.348-.35 4.496.001 11.234.082 22.729-.1 33.721-.812.795-2.477.65-3.997.65-1.5 0-3.148-.105-4.096-.551-.303-1.478-.15-3.074-.15-4.644 0-10.707.001-20.793 0-31.473 0-.695.15-1.518-.35-2.049-.818-.135-1.644.223-2.348.549-2.062.959-3.875 2.361-5.296 3.996-1.899 2.186-3.432 5.072-3.797 8.594-.42 4.057.691 7.541 2.298 9.99 1.662 2.535 3.837 4.439 6.545 5.795.69.41 1.669.529 2.148 1.15.089 1.879.05 3.955.05 6.094 0 .48.104 1.516-.25 1.75-.489.322-1.798-.246-2.248-.4-2.134-.728-4.037-1.631-5.695-2.748-2.244-1.502-4.208-3.285-5.845-5.395-2.45-3.26-4.434-6.996-4.945-11.939-.573-5.525.714-10.105 2.697-13.889 2.838-5.414 7.762-9.369 14.038-11.291 1.105-.338 2.22-.648 3.396-.848 7.265-1.24 13.921 1.252 18.085 4.346 1.775 1.318 3.322 3.014 4.646 4.746 2.637 3.449 4.757 8.039 4.846 13.887.136 8.922-4.108 14.703-8.792 19.135-1.42.963-2.856 2.023-4.496 2.848-.767.385-1.629.853-2.498 1.148-.883.299-1.883.646-2.897.549z"/></g></svg>