<svg enable-background="new 0 0 75.316 74.314" viewBox="0 0 75.316 74.314" xmlns="http://www.w3.org/2000/svg"><g clip-rule="evenodd" fill-rule="evenodd"><path d="m.165 74.278c-.207-2.854-.142-6.218-.141-9.438 0-1.066-.111-2.128.141-3.067 9.759-.568 16.039-4.763 20.198-11.043 1.382-2.087 2.586-4.477 3.114-7.173-.35-.327-.907-.188-1.321-.189-7.067-.002-14.97-.084-22.038-.235-.156-3.902-.158-8.462 0-12.364.902-.253 1.879-.142 2.832-.142 4.775 0 9.912.095 14.77.095 1.932 0 3.852.16 5.616-.095-.084-1.227-.652-2.344-1.133-3.397-1.182-2.592-2.686-4.952-4.624-6.89-.393-.393-.678-.865-1.039-1.227-.894-.898-2.096-1.713-3.256-2.501-3.389-2.303-7.807-3.773-13.166-4.059-.185-2.869-.095-6.184-.094-9.391 0-.85-.102-2.599.141-3.067.035-.044.086-.072.142-.095 12.04.325 19.662 5.066 26.002 11.09 4.492 4.654 8.134 10.476 9.863 17.933.907 3.912 1.173 8.464.661 12.694-.492 4.066-1.608 7.698-3.021 10.854-2.827 6.318-7.207 11.271-12.6 15.196-2.652 1.93-5.715 3.599-9.202 4.672-3.519 1.081-7.429 2.077-11.845 1.839z"/><path d="m75.058.189c.273 1.903.1 4.037.094 6.135-.006 2.107.181 4.28-.047 6.323-11.725.703-18.876 6.619-22.51 15.526-.238.582-.421 1.159-.661 1.745-.233.569-.316 1.154-.472 1.794-.309 1.269-.519 2.669-.613 4.152-.396 6.134 1.656 11.224 4.105 14.865.641.953 1.218 1.965 1.981 2.784.782.838 1.577 1.576 2.407 2.312.973.711 1.746 1.62 3.021 2.029.309-.904.188-2.043.188-3.209.001-7.476-.155-15.325.095-22.746 3.869-.167 8.469-.107 12.458.047.255 3.554-.015 7.132.094 10.618.107 3.435-.102 6.835.048 10.24.157 3.582.001 7.207 0 10.807-.001 3.563.079 7.123-.095 10.665-5.985.217-10.912-1.28-15.147-3.114-4.244-1.837-7.747-4.558-10.854-7.551-1.528-1.472-2.896-3.177-4.2-5.002-3.748-5.244-6.625-12.172-6.795-20.812-.116-5.86 1.184-11.055 3.067-15.337 1.925-4.377 4.392-7.915 7.361-11.042 2.897-3.052 6.564-5.875 10.618-7.787 4.385-2.065 9.742-3.543 15.857-3.442z"/></g></svg>