<svg enable-background="new 0 0 78.652 78.409" viewBox="0 0 78.652 78.409" xmlns="http://www.w3.org/2000/svg"><path clip-rule="evenodd" d="m78.604.448c.088 25.982.064 51.93-.149 77.916-12.966.16-26.011-.15-39.057-.15-13.065 0-26.188-.059-39.255-.248-.022-.043-.044-.088-.1-.1-.099-12.473 0-25.377 0-38.609 0-3.262-.035-6.6 0-9.926.094-8.791.051-17.646.05-26.898 0-.795-.095-2.092.148-2.332.038-.048.092-.077.15-.101 13.211-.008 26.023.146 39.156.148 13.095.005 26.117.071 39.057.3zm-73.101 4.564c-.059.025-.112.055-.148.1-.244.166-.15 1.373-.15 2.035 0 4.871-.049 8.822-.049 13.35 0 1.314-.014 2.649.198 3.871 1.087-4.094 2.646-7.616 5.012-10.471 2.822-3.404 6.733-6.328 11.415-7.793.919-.287 1.942-.412 2.828-.893-6.137-.281-12.664-.127-19.106-.199zm27.89.25c.513.354 1.146.434 1.737.594 1.232.338 2.396.736 3.474 1.191.552.234 1.081.578 1.688.647.238-.578.214-1.85 0-2.432-2.09-.213-4.622-.162-6.899 0zm12.308.049c-.237 1.84-.145 4.242-.099 6.303.823 1.113 1.856 2.068 2.73 3.227 2.523 3.344 4.509 7.652 4.665 13.25.218 7.832-2.881 13.147-6.65 17.221-.571.371-1.16 1.293-.695 2.232 3.765.152 7.901.176 11.563.051.255-.82.149-1.707.149-2.582 0-6.23-.089-12.549.099-18.809 1.521-.18 3.298-.094 4.815.051.157 6.033.049 12.209.05 18.758 0 .891-.114 1.797.148 2.631 3.436.158 7.544.16 10.918.051.268-3.463.148-7.008.148-10.572.001-8.836.049-17.935.05-26.402.001-1.762.106-3.537-.148-5.26-2.211-.262-4.505-.148-6.799-.148-6.914 0-13.889-.143-20.794-.1-.059.022-.113.051-.15.098zm-13.399 41.935c2.178-.395 4.047-1.158 5.707-2.035.839-.441 1.748-.859 2.283-1.588.158-10.012.185-20.068.05-29.529-1.375-1.305-3.229-2.141-5.211-2.828-1.991-.689-4.303-1.219-6.997-1.092-5.822.275-10.091 2.932-13.003 6.104-2.938 3.199-5.299 8.01-4.814 13.945.311 3.805 1.56 6.701 3.375 9.281 1.424 1.992 3.278 3.9 5.36 5.162.447.27.884.488 1.39.744.899.451 1.881 1.047 3.027 1.092.262-.766.148-1.607.148-2.432 0-5.129.05-10.727.05-15.533 0-.834-.119-1.707.148-2.482.738-.09 1.618-.049 2.481-.049.868 0 1.791-.117 2.432.148.182 6.969-.114 14.402.149 21.24 1.132.208 2.341.048 3.425-.148zm14.243-11.464c.212-.551.424-1.152.596-1.736 1.261-4.279.741-10.256-1.29-13.4-.033 0-.066 0-.1 0-.003-.029-.008-.059-.05-.049-.003.064-.063.068-.05.149-.179 2.545-.099 5.639-.099 8.486 0 2.717-.081 5.41.099 7.941.426-.268.696-.874.894-1.391zm-41.29-2.581c-.155 13.137-.254 26.678-.05 39.702 4.448.129 9.239.199 13.747.199 1.526 0 3.081.121 4.517-.148.161-6.742.17-14.102.049-20.795-1.13-.533-2.29-.807-3.374-1.24-3.287-1.314-6.068-3.291-8.288-5.658-3-3.197-5.353-7.068-6.452-12.158-.049 0-.059-.039-.099-.049-.058.007-.054.077-.05.147zm38.064 19.553c-4.547 0-10.011-.183-14.441.051-.262.748-.149 1.576-.149 2.381.001 5.922-.082 12.121.1 17.816 1.115.268 2.312.148 3.474.148 8.533.002 16.97.164 24.863 0 .262-4.951.149-10.322.149-15.135 0-1.723.119-3.441-.149-5.062-4.385-.267-8.997-.197-13.847-.199zm19.156.149c-.268.76-.149 1.627-.148 2.434 0 5.127-.05 10.34-.05 15.434 0 .81-.117 1.668.148 2.432 1.751.182 3.677.1 5.559.1 1.841 0 3.733.205 5.359-.1.251-.561.094-1.139.1-1.787.039-4.4.05-9.393.05-13.894 0-1.549.119-3.082-.149-4.518-3.376-.248-7.35-.162-10.869-.101z" fill-rule="evenodd"/></svg>