<svg enable-background="new 0 0 70.128 70.647" viewBox="0 0 70.128 70.647" xmlns="http://www.w3.org/2000/svg"><path clip-rule="evenodd" d="m17.444 70.552c-1.659-.651-2.956-1.664-4.445-2.485-3.786-2.199-7.528-4.452-11.472-6.692-.495-.282-1.301-.748-1.434-1.148-.177-.531-.048-1.601-.048-2.39 0-5.709.084-11.896.048-17.351 1.194-1.186 2.798-1.845 4.254-2.725 2.892-1.748 5.743-3.365 8.795-5.067.696-.387 1.429-.866 2.199-1.29.642-.354 1.864-.845 2.055-1.386.212-.6.048-1.661.048-2.533 0-5.972-.066-11.674.048-17.303.503-.684 1.35-.973 2.055-1.386 4.27-2.504 8.695-4.96 13.097-7.504.646-.374 1.676-1.256 2.295-1.291.467-.026 1.236.582 1.768.908 1.678 1.03 3.299 1.924 4.923 2.915 2.324 1.418 4.48 2.66 6.596 3.824.702.557 1.369.774 2.199 1.29.532.332 1.801.857 2.007 1.434.195.544.048 1.797.048 2.486v14.769c0 .769-.132 1.908.048 2.438.156.459 1.636 1.232 2.055 1.482.815.485 1.499.815 2.199 1.29 3.718 2.114 7.492 4.171 11.137 6.357.512.442 1.854.671 2.103 1.386.205.589.048 1.539.048 2.39 0 5.635.043 12.153-.048 17.35-.48.719-1.352 1.007-2.055 1.434-4.328 2.626-8.772 5.068-13.24 7.696-.32.188-.714.385-1.147.621-.392.213-.878.569-1.147.573-.519.009-1.649-.844-2.247-1.194-2.959-1.738-5.67-3.374-8.604-5.067-1.462-.844-2.703-1.654-4.254-2.533-.725-.411-1.454-1.051-2.151-1.243-.479-.131-1.854.897-2.39 1.195-5.146 2.867-10.186 5.894-15.343 8.75zm31.021-44.692c0-4.398.1-8.584-.096-13.145-.909-.894-2.106-1.461-3.25-2.103-2.847-1.599-5.498-3.449-8.365-5.066-.65-.366-1.54-1.017-2.056-.812-.563.223-1.122.632-1.673.956-3.34 1.961-6.761 3.899-10.038 5.832-.541.319-1.222.56-1.53 1.147-.09 4.286-.048 9.053-.048 13.24 0 .554-.114 1.224.239 1.673.64-.061 1.186-.457 1.721-.765 3.314-1.91 6.629-3.773 9.942-5.688.488-.282 1.286-.9 1.721-.908.421-.007 1.22.557 1.721.86.608.369 1.171.686 1.625.956 1.151.685 2.187 1.416 3.203 2.007 1.688.983 3.325 1.851 4.971 2.772.542.304 1.061.768 1.721.812.323-.515.192-1.19.192-1.768zm-4.971 3.824c-.912-.517-1.905-.995-2.868-1.625-.832-.545-1.782-1.173-2.772-1.721-.601-.332-2.228-1.546-3.011-1.482-.409.034-1.186.596-1.578.813-1.412.783-2.777 1.565-4.11 2.39-1.354.838-2.742 1.629-4.063 2.39-.445.256-1.056.387-1.291.908.731.777 1.742 1.23 2.677 1.769 2.395 1.38 4.689 2.786 7.122 4.11.463.252 1.166.717 1.53.717.346 0 1.049-.428 1.482-.669 1.46-.814 2.84-1.642 4.11-2.438 1.871-1.171 3.824-1.977 5.401-3.298-.689-.807-1.679-1.327-2.629-1.864zm-20.027 6.213c-.609-.344-1.409-1.024-1.96-.812-.215.512-.176 2.228-.144 3.107.121 3.223-.03 6.654.096 9.608.963.813 2.118 1.411 3.203 2.055 2.763 1.641 5.652 3.147 8.365 4.78.55.331 1.119.798 1.816.765.268-.63.241-1.619.239-2.391-.009-3.266-.002-6.914-.095-10.181-.891-.885-2.093-1.438-3.203-2.056-1.138-.633-2.202-1.381-3.346-1.959-1.469-.882-3.36-2.004-4.971-2.916zm-9.847 1.148c-2.257 1.224-4.229 2.427-6.5 3.728-.48.275-1.014.561-1.625.908-.518.295-1.315.681-1.481 1.1-.335.843-.096 2.613-.096 3.729v7.695c0 1.125-.299 2.972.048 3.729.204.444 1.084.755 1.577 1.051 3.42 2.055 6.691 3.908 10.085 5.927.487.289 1.323.908 1.769.908.452 0 1.236-.581 1.721-.86 3.371-1.946 6.684-3.81 9.894-5.736.518-.311 1.156-.572 1.53-1.099-.362-.505-.953-.821-1.482-1.147s-1.124-.65-1.673-.956c-2.249-1.254-4.493-2.537-6.692-3.824-1.09-.639-2.303-1.168-3.203-2.056-.029-4.277-.048-8.425-.048-12.667 0-.793.182-1.736-.334-2.294-.032 0-.064 0-.096 0-1.155.507-2.217 1.226-3.394 1.864zm38.956-1.673c-.258 4.755.011 10.127-.191 14.961-.907.869-2.103 1.334-3.202 1.96-2.767 1.574-5.417 3.167-8.27 4.732-.358.196-1.481.857-1.482 1.147 0 .348 1.161.979 1.434 1.147 3.401 2.094 6.483 3.871 9.847 5.784.491.279 1.272.872 1.769.86.477-.011 1.239-.598 1.768-.908.648-.38 1.236-.681 1.721-.956 2.953-1.678 5.646-3.346 8.461-4.971.566-.327 1.218-.589 1.577-1.147.098-3.754.164-7.336.144-11.042-.003-.493-.048-1.204-.048-1.959 0-.707.115-1.521-.048-1.96-.148-.397-.978-.785-1.529-1.099-2.869-1.635-5.576-3.192-8.317-4.828-.909-.542-2.483-1.559-3.489-1.864-.07.026-.118.074-.145.143z" fill-rule="evenodd"/></svg>