<svg fill="none" viewBox="0 0 130 291" xmlns="http://www.w3.org/2000/svg"><path clip-rule="evenodd" d="m61.3335.24773c-10.2771 1.6769-17.756 7.35265-21.6923 16.46327-3.3407 7.7331-3.912 14.313-2.8413 32.7218.4565 7.8491.4394 8.9262-.1584 9.8359-.4193.6391-2.3008 1.7243-5.0245 2.8983-8.1644 3.519-13.6618 7.2293-19.0555 12.8619-9.27236 9.6828-13.106407 20.9023-12.4996345 36.5811.5100655 13.193 4.0822345 25.55 12.0580345 41.712 4.9513 10.033 9.8123 18.163 18.4946 30.931 1.988 2.924 3.9187 5.902 4.2893 6.617 1.8182 3.506 1.8148 3.403 1.8199 52.611.003 27.54.1656 47.14.3915 47.28.2127.131 1.5294-1.635 2.9261-3.924 22.9144-37.56 23.2619-38.101 24.4801-38.101.6449 0 1.4613.336 1.8139.747.353.411 6.3758 9.92 13.3837 21.132 7.0078 11.212 12.9108 20.385 13.1175 20.385.2139 0 .3783-20.406.3813-47.28.0051-49.461.0012-49.343 1.8198-52.85.3706-.715 2.3013-3.693 4.2894-6.617 14.145-20.801 22.243-36.339 26.911-51.636 4.303-14.101 4.944-28.302 1.773-39.2758-2.23-7.7181-6.284-14.2558-12.531-20.2107-4.19-3.9938-8.474-6.8545-14.882-9.9372-6.0756-2.9235-6.3186-3.2569-5.9412-8.1557.9234-11.985 5.7852-19.4452 15.8182-24.271l2.927-1.4079-2.285-1.1536c-4.305-2.1716-7.424-4.6016-11.6997-9.1132-11.7713-12.4209-16.1668-15.6795-24.2534-17.98097-3.4836-.991278-10.3994-1.422877-13.8304-.8632zm10.2377 23.62087c1.9743 1.1211 3.6693 3.9954 3.6693 6.2226 0 3.9451-3.3184 7.3599-7.1816 7.3898-4.1456.032-7.2325-2.637-7.6852-6.6448-.6568-5.812 5.9697-9.935 11.1975-6.9676zm3.6693 37.4284c9.7837.756 15.2536 1.4216 15.9669 1.9416.6787.4952.727 4.7438.7283 63.6644.0013 58.939-.0471 63.168-.7261 63.667-.5632.413-6.5038.533-26.2389.533-19.7342 0-25.6761-.12-26.2406-.533-.682-.499-.7291-4.655-.721-63.671.0082-57.9924.0659-63.1797.7099-63.6493.6539-.4769 6.0964-1.1574 15.3011-1.9126 5.6206-.4615 15.5314-.4803 21.2204-.0401zm-33.7854 4.1589c-.8345.5832-.8751 1.0293-.8751 9.5803 0 8.9984.2345 10.6206 1.5366 10.6206.3577 0 4.9244-1.667 10.1478-3.7051 9.2146-3.5946 9.6053-3.7056 13.1342-3.7308 3.5833-.026 3.7797.0291 13.2634 3.7248 6.3797 2.4859 9.9545 3.6689 10.5989 3.5075l.9722-.2433-.1151-9.9159-.1147-9.9153-1.0698-.117c-.5883-.0645-5.4023 1.5416-10.6977 3.5694-8.8016 3.3704-9.885 3.6863-12.6232 3.6833-3.2423-.0038-3.0617.0508-15.4924-4.6955-7.066-2.6981-7.8714-2.918-8.6651-2.363z" fill="#000" fill-rule="evenodd"/></svg>