<svg enable-background="new 0 0 80.596 57.511" viewBox="0 0 80.596 57.511" xmlns="http://www.w3.org/2000/svg"><g clip-rule="evenodd" fill-rule="evenodd"><path d="m80.537.586c.156 16.575-.049 33.145-.049 49.781.002 1.203.01 2.388-.047 3.591-.055 1.153.156 2.349-.146 3.493-3.428.133-7.453 0-11.305 0-1.274 0-2.537.117-3.688-.146-.02-.782.398-1.493.68-2.184.82-2.023 1.762-4.151 2.619-6.259 2.277-5.589 4.705-11.115 6.891-16.788 1.082-2.81 2.482-5.504 3.396-8.395-.846-.296-2.008-.193-3.154-.193-1.141 0-2.322-.04-3.348.048-.475.362-.555 1.01-.775 1.505-2.979 6.652-5.723 13.703-8.541 20.523-.215.519-.482 1.03-.68 1.553-.199.528-.185 1.179-.629 1.602-.77-.87-1.002-2.051-1.408-3.105-1.211-3.148-2.66-6.319-3.881-9.559-1.219-3.233-2.543-6.426-3.883-9.606-.434-1.032-.736-2.145-1.455-3.009-2.443-.162-5.33-.135-7.812-.097-.465.386-.516 1.025-.727 1.553-1.453 3.62-3.135 7.497-4.512 11.305-.801 2.21-1.617 4.413-2.475 6.599-.848 2.154-1.611 4.359-2.621 6.405-.488-.349-.615-.981-.824-1.505-3.219-8.075-6.57-16.353-9.85-24.405-2.531-.165-5.203-.157-7.764-.097-.504.543-.691 1.321-.971 1.989-.871 2.079-1.623 4.247-2.475 6.404-1.104 2.8-2.264 5.616-3.348 8.491-1.842 4.887-3.924 9.809-5.822 14.896-.336.901-.477 2.402-1.697 1.989-.076.015-.082-.045-.144-.048-.207-9.171 0-18.694 0-28.287 0-7.221.047-14.458.049-21.591 0-2.351-.074-4.693.146-6.987 3.213-.117 7.029 0 10.527 0 19.996.002 40.064.338 59.826.34 1.672 0 3.324-.014 4.996.049 1.626.06 3.292-.164 4.901.145z"/><path d="m18.19 31.299c.039.009.049.049.098.049 2.074 4.172 3.705 8.608 5.629 12.906 1.44 3.217 2.879 6.429 4.27 9.655.457 1.06 1.16 2.034 1.311 3.202-6.959.156-14.924.067-21.738-.146.213-1.127.756-2.158 1.213-3.202 1.371-3.132 2.557-6.368 3.883-9.559 1.32-3.181 2.492-6.43 3.881-9.606.461-1.055.793-2.221 1.31-3.203.033-.044.086-.072.143-.096zm2.572 14.459c-2.123-.001-4.936-.07-6.695 0-.32.442.127.897.291 1.262 1.147 2.541 2.336 5.198 3.492 7.666.189.401.287.95.729 1.164.512-.596.734-1.376 1.068-2.086.34-.723.644-1.487.969-2.232.775-1.776 1.57-3.664 2.088-5.579-.54-.255-1.256-.195-1.942-.195z"/><path d="m46.963 31.639c.375.036.641.967.873 1.504 1.58 3.68 3.27 7.573 4.852 11.208.937 2.151 1.947 4.278 2.814 6.404.893 2.193 1.945 4.276 2.717 6.453-.842.264-1.771.146-2.668.146-5.465 0-10.797-.098-16.4-.097-.871 0-1.789.116-2.619-.146.627-2.205 1.715-4.236 2.57-6.356 2.107-5.212 4.314-10.514 6.404-15.817.42-1.061.836-2.217 1.31-3.153.028-.071.077-.119.147-.146z"/></g></svg>