<svg enable-background="new 0 0 78.548 79.454" viewBox="0 0 78.548 79.454" xmlns="http://www.w3.org/2000/svg"><path clip-rule="evenodd" d="m66.315 10.843c1.611 1.674 3.198 3.366 4.607 5.3 1.388 1.906 2.477 4.047 3.615 6.242 1.1 2.118 1.985 4.626 2.676 7.183.713 2.646 1.143 5.522 1.287 8.569.317 6.659-.993 12.013-2.823 16.842-.9 2.377-2.205 4.422-3.27 6.588-.509 1.036-1.374 1.97-2.08 2.873-.74.947-1.431 1.895-2.229 2.675-4.156 4.326-8.865 7.498-14.91 9.808-5.793 2.213-13.995 3.399-21.299 1.783-1.746-.386-3.373-.761-4.904-1.288-4.608-1.586-8.344-3.771-11.987-6.489-4.675-3.486-8.288-8.308-10.997-13.671-2.77-5.483-4.516-12.916-3.864-20.508.64-7.443 2.947-13.429 6.142-18.526 4.64-7.399 11.726-13.259 20.755-16.248 2.347-.776 4.862-1.354 7.579-1.684.951-.116 2.02-.201 3.021-.248 6.708-.317 12.118 1.104 16.743 3.021 4.645 1.927 8.514 4.7 11.938 7.778zm-49.187 15.157c-1.543 0-3.229-.096-4.31.149-.195 2.218-.1 4.572-.1 6.935 0 6.061.051 11.857.05 17.783 0 1.172-.117 2.354.148 3.467 5.298.211 11.458.149 17.337.149.817 0 1.663.111 2.428-.149.051-2.429.147-5.331-.05-7.678-.603-.294-1.345-.098-2.03-.099-3.182-.008-6.803.106-9.858-.149-.263-6.708.011-13.505-.247-20.259-.94-.259-2.15-.149-3.368-.149zm34.525 0c-9.707 0-19.267.067-28.433.05-.421.419-.248 1.167-.248 1.832v2.081c0 1.431-.115 2.937.148 4.062 3.896.326 8.296-.148 12.087.247.133.53.213 1.641-.099 2.031-3.865.181-8.206-.114-11.988.149-.266 1.118-.148 2.525-.148 3.864 0 1.333-.013 2.685.148 3.764 2.992.173 6.204.231 9.114.1 1.098-.05 2.203-.079 3.021.198.186 3.12-.132 6.978.198 9.956 1.091.252 2.441.168 3.716.149 1.333-.021 2.704.096 3.913-.099.26-.75.148-1.629.148-2.477 0-.893.005-1.8 0-2.675-.009-1.739-.162-3.475.1-4.954 3.901-.259 8.393.073 12.284-.198.236-2.227.123-5.232 0-7.579-.907-.268-1.953-.148-2.973-.148-3.115 0-6.465.081-9.361-.099-.145-.477-.202-1.63.05-2.031 3.887-.273 8.403.082 12.284-.198.196-2.447.079-5.426-.05-7.876-1.272-.269-2.59-.149-3.911-.149zm10.849 0c-1.288-.045-2.89-.001-3.963.05-.323.268-.198.742-.198 1.09-.001 5.571.05 11.44.05 16.842-.001.839.116 1.698-.149 2.477-4.094.224-8.625-.179-12.631.198-.191 2.274-.152 5.219 0 7.678 6.938.167 13.721.175 20.557.05.179-9.475.137-18.938-.099-28.235-1.089-.252-2.326-.107-3.567-.15z" fill-rule="evenodd"/></svg>