<svg enable-background="new 0 0 75.508 75.439" viewBox="0 0 75.508 75.439" xmlns="http://www.w3.org/2000/svg"><g clip-rule="evenodd" fill-rule="evenodd"><path d="m75.336.389c.263 1.139.146 2.326.146 3.491-.003 17.7-.119 36.241-.194 53.827-2.485 2.72-5.228 5.183-7.855 7.759-2.629 2.577-5.183 5.228-7.856 7.759-.815.533-1.395 1.985-2.425 2.134-1.054.152-2.43.051-3.637 0-3.47-.146-7.309.05-10.766-.097-4.804-.204-9.609-.009-14.111-.098-9.891-.193-19.362.072-28.562-.242-.194-11.773.046-24.432.047-36.709 0-1.792-.041-3.706.048-5.383.333-.663.957-1.102 1.455-1.601 2.967-2.967 6.009-5.929 9.116-8.923.424-.407 1.124-1.305 1.601-1.405.696-.149 1.735-.001 2.667 0 11.27 0 22.867.194 34.236.193 1.699 0 3.395-.106 5.044.145.05 4.384.261 9.027 0 13.724-.12 2.154.048 4.539.048 6.838 0 1.107-.042 2.289-.048 3.442-.007 1.123.189 2.45 0 3.443-.1.52-.836 1.077-1.262 1.503-1.034 1.035-1.764 1.771-2.813 2.716-.47.424-.853 1.066-1.503 1.164-.168-9.161.133-17.96-.049-27.156-1.35-.262-2.757-.146-4.17-.146-9.428 0-20.174-.151-29.532-.146-.398 0-.965.592-1.358.97-2.309 2.22-4.49 4.394-6.74 6.644-.383.383-.902.753-1.018 1.213-.283 1.126-.048 2.796-.048 4.218-.001 8.287-.097 16.758-.097 25.121 0 1.353-.116 2.744.145 4.073 8.059.225 16.121.242 24.344.243 7.566 0 15.392.098 23.034.097.523 0 1.09.119 1.504.048.676-.116 1.398-1.2 1.939-1.696 1.949-1.79 3.559-3.416 5.479-5.335 1.801-1.8 3.527-3.569 5.479-5.383.48-.445 1.588-1.302 1.697-1.891.164-.879.049-2.073.049-3.104-.001-15.076.13-30.796.048-45.778-1.057-.179-2.158-.146-3.248-.146-16.908.008-34.415-.182-51.111-.338-.099-.38.335-.557.533-.776.641-.707 1.283-1.428 1.988-2.133.917-.918 1.944-1.746 2.861-2.619.079.014.084-.046.146-.049 18.307.051 36.795.047 54.749.389z"/><path d="m67.625 7.759c.193 11.395-.001 23.029 0 34.818.001 3.932.061 7.986-.097 11.784-.946 1.267-2.18 2.251-3.298 3.346-2.754 2.695-5.536 5.438-8.292 8.195-.546.546-1.025 1.186-1.697 1.601-7.861-.196-15.63.149-23.52-.098-7.816-.244-15.582.098-23.18-.29-.162-10.238.021-20.581 0-30.987.487-.818 1.254-1.409 1.94-2.037 2.027-1.855 3.825-4.057 6.013-5.819 10.488.132 21.11-.066 31.375.291.226 7.453.05 15.106.049 22.599-.001 1.042.115 2.104-.146 3.103-1.146.142-3.002.203-4.073-.048-.324-7.123.175-14.479-.146-21.58-2.057-.289-4.154-.117-6.207-.145-5.314-.074-10.553-.099-16.1-.098-1.086 0-2.289-.217-3.152 0-.484.122-1.092.816-1.406 1.164-.815.901-1.57 1.667-2.473 2.57-.395.396-1.031.828-1.164 1.357-.222.886-.048 2.124-.048 3.249-.001 7.354-.14 15.527 0 22.646.754.362 1.629.166 2.425.193 5.858.204 11.752.015 17.699.098 4.9.068 10.078.098 15.13.097.821 0 1.701.088 2.522.049.888-.042 1.962.168 2.667-.049.437-.135 1.101-.893 1.503-1.261.532-.487.929-1.009 1.31-1.455.893-1.048 1.807-1.711 2.812-2.716 1.463-1.462 2.746-2.604 4.171-4.121.379-.405 1.26-1.079 1.26-1.553.007-12.733.159-27.145.098-40.346-1.052-.349-2.191-.194-3.298-.194-17.192.007-34.676-.211-51.692-.387-.213-.277.151-.491.29-.63.881-.881 1.917-1.723 2.861-2.667.39-.39.803-.969 1.31-1.067.461-.09 1.103.046 1.697.049 17.631.094 35.844.023 52.857.339z"/><path d="m61.806 13.918c.218 6.126.049 12.564.049 19.058 0 5.539-.049 11.072-.049 16.73 0 .81.11 1.688-.048 2.327-.114.459-.755.948-1.164 1.358-1.31 1.309-2.512 2.503-3.831 3.733-.903.844-1.572 1.838-2.425 2.619-.383.351-.84.742-1.309 1.212-.375.375-.893 1.062-1.358 1.164-.642.14-1.59 0-2.425 0-11.688.001-23.655-.148-35.448-.291-.254-.878-.122-1.838-.097-2.765.18-6.709-.144-14.135.048-20.9 1.234-1.449 2.458-2.908 3.977-4.073 7.532.106 15.389-.079 23.083.194.243 1.532.146 3.191.146 4.849 0 1.662-.049 3.344-.049 5.044 0 3.397.113 6.876-.146 10.038-.535.139-1.721.198-2.182-.049-.275-5.488.112-11.376-.098-17.118-.719-.3-1.548-.193-2.327-.193-4.95 0-9.883-.05-14.937-.049-.844 0-1.734-.128-2.376 0-.55.109-1.01.72-1.503 1.212-.482.482-1.069.889-1.213 1.455-.163.651-.027 1.571-.048 2.425-.132 5.476-.082 11.831.048 17.166 1.347.268 2.774.138 4.171.146 9.167.052 18.426.048 27.835.146.734.007 1.502.143 2.037 0 .747-.202 1.803-1.562 2.327-2.086 1.444-1.443 2.888-2.919 4.413-4.413.571-.56 1.894-1.52 2.085-2.279.274-1.085.049-3.015.049-4.267.002-9.617.172-19.872 0-29.581-.009-.039-.049-.048-.049-.097-18.316-.367-36.946-.128-55.088-.485.042-.575.717-.93 1.115-1.31.416-.425.78-.9 1.309-1.212.035-.046.088-.073.146-.098 18.375.141 37.049.059 55.332.39z"/><path d="m57.296 18.33c.21 10.34-.017 21.185 0 31.569-.499.809-1.307 1.333-1.891 2.037-1.438 1.733-3.193 3.168-4.85 4.849-.323.329-.713.773-1.066.873-1.002.283-2.706-.006-3.929 0-7.744.038-15.831-.096-23.858-.097-1.307 0-2.638.11-3.879-.146-.26-5.717.034-11.459-.049-17.215.37-.443 1.069-1.553 1.746-1.697.62-.133 1.494 0 2.23 0 4.998.002 10.417-.027 14.936.146.219 2.366.098 5.085.098 7.808-.001 2.692.063 5.383-.146 7.71-.322.153-1.18.153-1.503 0-.29-4.492.148-8.914-.146-13.529-1.186-.265-2.499-.146-3.782-.146-3.769-.001-7.837-.136-11.639 0-.239 1.181-.154 2.444-.194 3.685-.111 3.491.004 7.571.098 11.299 1.176.263 2.402.146 3.637.146 7.407-.001 14.965.144 22.355.146 1.164 0 2.749.214 3.733 0 .64-.139 1.255-1.083 1.746-1.552.626-.598 1.148-1.139 1.648-1.601.481-.465 1.06-1.01 1.649-1.6.54-.539 1.468-1.233 1.552-1.988.061-.545-.01-1.182 0-1.794.144-8.884.002-19.012 0-27.593-1.088-.262-2.224-.146-3.346-.146-1.136.001-2.296-.049-3.443-.049-4.638.001-9.175-.046-13.82-.048-11.117-.004-23.001-.129-34.382-.242-.197-.382.651-1.127 1.066-1.213.927-.19 2.338 0 3.54 0 12.771 0 25.32.241 38.019.243 4.685.001 9.342-.102 13.87.145z"/></g></svg>