<svg enable-background="new 0 0 75.004 73.884" viewBox="0 0 75.004 73.884" xmlns="http://www.w3.org/2000/svg"><path clip-rule="evenodd" d="m64.727 43.149c.717.986 1.687 1.734 2.533 2.582.841.84 1.725 1.637 2.629 2.484 1.299 1.219 2.498 2.51 3.872 3.777.36.33 1.224.918 1.243 1.289.027.533-1.288 1.459-1.625 1.816-.619.656-1.116 1.23-1.625 1.77-1.162 1.229-2.219 2.316-3.441 3.346-1.041-.615-1.737-1.578-2.629-2.342-1.865-1.857-3.858-3.572-5.736-5.449-.614-.615-1.217-1.295-1.96-1.77-1.761 1.527-3.355 3.221-4.971 4.924-.521.549-1.148 1.045-1.53 1.721.682.943 1.603 1.662 2.438 2.438 2.081 1.933 3.994 3.914 6.166 5.975.304.289 1.136.932 1.147 1.244.016.445-1.144 1.416-1.578 1.863-1.486 1.531-2.649 2.746-4.206 4.303-.267.266-.646.76-.908.764-.329.006-1.022-.764-1.386-1.1-2.639-2.436-5.005-4.766-7.552-7.312-.318-.318-1.006-1.086-1.338-1.1-.29-.012-.902.516-1.195.717-1.097.756-2.549 1.477-3.776 1.961-2.681 1.057-6.267 1.738-10.038 1.242-3.273-.432-5.972-1.555-8.317-3.107-1.523-1.008-2.832-2.23-4.159-3.488-3.878-3.682-7.842-7.553-11.615-11.281-1.227-1.318-2.256-2.842-3.107-4.541-.3-.598-.427-1.18-.669-1.863-.903-2.549-1.598-5.381-1.339-8.748.145-1.877.643-3.758 1.195-5.4.525-1.566 1.006-2.852 1.912-4.158 1.557-2.25 3.573-4.176 5.354-6.119 1.271-1.389 2.6-2.648 3.824-3.871 1.295-1.295 2.451-2.643 3.728-3.92 1.292-1.291 2.612-2.558 3.824-3.871 3.7-4.012 8.024-7.426 15.247-7.887 3.189-.205 6.07.492 8.46 1.48 2.369.98 4.384 2.307 6.118 3.824 1.789 1.566 3.306 3.363 5.019 4.924 1.731 1.576 3.443 3.209 5.019 4.875 1.703 1.801 3.391 3.152 4.78 5.162 1.357 1.963 2.331 4.156 3.011 6.883 1.508 6.035-.331 12.092-2.819 15.963zm-6.644-15.916c-1.142-2.648-3.268-4.273-5.258-6.262-.989-.99-1.95-1.92-2.916-2.82-.975-.91-1.997-1.815-2.963-2.82-1.826-1.9-3.842-4.17-6.262-5.307-2.011-.943-5.251-1.236-7.6-.525-2.653.805-4.311 2.256-6.07 4.016-2.219 2.219-4.355 4.613-6.597 6.883-1.683 1.633-3.328 3.354-4.971 5.115-1.648 1.766-3.501 3.307-4.78 5.352-1.316 2.105-2.179 5-1.578 8.031.55 2.771 1.95 4.611 3.729 6.404 3.335 3.363 6.77 6.564 10.276 9.943 1.715 1.652 3.429 3.193 6.214 3.871 1.186.289 3.132.379 4.589.096.794-.154 1.29-.27 2.007-.525.394-.143 1.545-.48 1.578-.957.02-.295-.437-.58-.669-.812-.815-.814-1.524-1.514-2.294-2.199-2.624-2.502-5.35-5.148-8.03-7.695-.34-.322-1.069-.838-1.052-1.242.012-.275.504-.633.765-.908 1.5-1.586 2.716-2.83 4.159-4.35.269-.283 1.311-1.641 1.768-1.625.399.014 1.242 1.051 1.625 1.434 1.624 1.623 3.178 2.988 4.732 4.541 1.537 1.537 3.073 3.025 4.637 4.588.407.408 1.244 1.412 1.721 1.387.298-.016.62-.477.86-.717.905-.904 1.655-1.551 2.39-2.486.894-.672 1.599-1.635 2.438-2.438.24-.229.717-.633.717-.908 0-.277-.45-.594-.669-.812-.815-.815-1.549-1.533-2.294-2.246-1.55-1.465-3-2.924-4.636-4.445-1.163-1.08-2.226-2.225-3.394-3.393-.319-.32-1.051-.91-1.051-1.244 0-.227.456-.668.717-.955 1.417-1.557 2.714-2.93 4.063-4.35.55-.58 1.053-1.215 1.769-1.625 1.088.848 2.069 1.82 3.059 2.771 2.475 2.377 5.019 4.779 7.409 7.17.484.484.971 1.055 1.626 1.338 1.786-2.332 1.366-6.655.236-9.274z" fill-rule="evenodd"/></svg>