<svg enable-background="new 0 0 74.233 74.835" viewBox="0 0 74.233 74.835" xmlns="http://www.w3.org/2000/svg"><path clip-rule="evenodd" d="m25.723 74.747c-.021-.042-.041-.085-.095-.095-.068-8.836-.146-16.638-.048-25.373.043-.021.086-.042.096-.096 4.318-.139 8.027.033 11.758-.095 3.744-.13 6.322-1.75 8.236-3.809 1.932-2.08 3.447-5.013 3.332-8.712-.115-3.691-1.598-6.263-3.666-8.331-2.107-2.107-4.855-3.598-8.521-3.522-3.666.075-6.387 1.482-8.426 3.522-2.05 2.051-3.591 4.427-3.76 8.283-.17 3.846.205 7.744-.096 11.901-1.869.159-3.85.133-5.855.142-5.006.027-10.362-.094-15.566-.095-.989 0-2.012.115-2.952-.143-.174-15.801-.229-31.834-.049-48.221 8.509-.231 17.655-.003 26.516 0 2.09 0 4.127-.001 6.141 0 2.018 0 3.996-.118 5.855-.048 3.836.144 7.193.865 10.332 1.903 6.125 2.028 10.777 5.542 14.852 9.617 4.139 4.138 7.068 9.254 8.949 15.519.992 3.303 1.477 6.827 1.477 10.759 0 3.652-.678 7.407-1.666 10.568-1.922 6.146-5.127 11.41-9.092 15.377-5.082 5.08-11.297 9.088-19.947 10.663-1.803.328-3.701.275-5.76.333-3.942.11-8.098-.036-12.045-.047z" fill-rule="evenodd"/></svg>