<svg enable-background="new 0 0 80.336 81.206" viewBox="0 0 80.336 81.206" xmlns="http://www.w3.org/2000/svg"><path clip-rule="evenodd" d="m78.825 28.933c-19.064.18-38.064 0-57.277 0-2.014 0-3.889-.151-5.61.049-4.972.577-8.005 3.702-9.513 7.757-1.121 3.012-.65 6.685.732 9.416 1.225 2.421 3.333 4.478 6.244 5.318 2.838.819 7.025.646 10.831.683 3.724.037 7.501 0 11.319 0 9.547 0 18.299.049 27.954.049 1.856 0 3.873.222 5.465-.098 2.795-.561 4.991-3.124 5.659-5.854.873-3.571-.455-6.504-2.684-8.342-1.453-1.225-3.539-1.805-6.099-1.805-2.486 0-5.255-.049-7.806-.049-10.702 0-20.403-.049-30.688-.049-2.519 0-5.103.062-7.708 0-1.405-.034-2.611-.109-3.61.244-.947.335-1.712.922-2.244 1.659-2.148 2.975.394 6.384 3.562 6.732 1.161.127 2.477.098 3.806.098 5.235-.001 10.62.048 15.709.049 9.045 0 17.91-.115 27.175.048 1.004.018 2.761.392 3.073-.731-.062-1.127-1.395-.878-2.293-.878-11.599 0-23.197-.098-34.785-.097-4.259 0-8.488.109-12.538-.146-.195-.775-.153-1.732-.146-2.684.007-.936-.072-1.939.098-2.83.691-.312 1.474-.091 2.195-.098 14.55-.125 29.192.098 43.908.098 1.69 0 3.094-.045 4.343.342 2.359.731 4.166 2.058 4.878 4.488.372 1.266.323 2.8-.146 4.049-.77 2.048-2.636 3.957-5.318 4.049-3.086.106-6.231-.048-9.367-.048-12.521 0-24.764-.05-37.322-.049-3.098 0-6.062-.058-8.146-1.22-1.979-1.103-3.434-2.767-4.294-5.074-.832-2.23-1.045-5.431.342-7.66 1.299-2.383 2.76-4.001 5.268-5.074 2.433-1.04 6.057-.695 9.465-.732 3.202-.035 6.601-.111 9.953.049 3.398.162 6.886-.076 10.245.049 3.303.123 6.661-.049 10.099-.049 3.412 0 6.84.049 10.148.049 3.64 0 6.54-.034 9.025 1.171 1.144.555 2.209 1.307 3.073 2.098.885.811 1.503 1.825 2.244 2.878 1.474 2.094 2.293 4.877 2.293 8.05.001 4.937-1.832 8.639-3.073 12.393-.398 1.202-1.106 2.34-1.708 3.415-1.227 2.188-2.686 4.172-4.244 6.049-3.042 3.666-6.897 6.937-11.269 9.367-4.457 2.477-9.439 4.418-15.612 4.976-6.765.611-12.903-.507-17.905-2.342-5.174-1.897-9.265-4.443-12.831-7.757-3.629-3.372-6.67-7.071-8.977-11.66-2.333-4.641-4.051-9.666-4.586-16.002-.571-6.758.804-12.711 2.781-17.563 4.031-9.896 10.68-16.88 19.71-21.516 2.305-1.183 4.733-2.208 7.415-2.878 3.824-.956 8.469-1.571 13.319-1.22 4.024.291 7.393 1.213 10.587 2.293 4.306 1.456 7.979 3.56 11.074 6.098 1.594 1.307 3.18 2.578 4.537 4.049 3.046 3.301 5.713 7.2 7.709 11.611.233.517.346 1.056.536 1.61.179.521.379 1.03.586 1.562.19.492.518 1.025.439 1.61zm-68.157-4.098c1.345-.735 2.934-1.072 4.684-1.366 2.33-.393 4.961-.237 7.61-.244 10.844-.028 21.186.049 31.565.049 4.979 0 10.218.122 14.978.049.252-.004.67.114.83-.195.012-.793-.655-1.329-.976-1.952-4.712-6.725-10.972-12.015-20.051-14.441-3.026-.809-6.604-1.456-10.295-1.22-1.944.125-3.874.419-5.61.781-3.436.716-6.364 1.872-9.074 3.317-4.077 2.176-7.434 4.911-10.343 8.245-1.458 1.67-2.655 3.546-3.806 5.464-.388.648-.885 1.353-.878 2.146.561.03.932-.396 1.366-.633zm-1.463 31.175c.539 1.321 1.404 2.756 2.244 4 2.581 3.822 5.673 6.849 9.318 9.416 5.009 3.526 10.791 5.784 18.734 6.245 3.875.225 7.772-.399 10.978-1.415 4.847-1.536 8.661-3.918 12.147-6.586 1.185-.907 2.168-1.95 3.22-3.025 1.522-1.555 2.989-3.357 4.099-5.269.367-.633.958-1.248.976-2.049-1.155.203-2.257.535-3.464.585-1.315.056-2.648-.049-4.001-.049-13.583 0-26.431-.097-39.81-.098-3.94 0-8.373.277-11.368-.731-.856-.289-2.178-.937-2.976-1.171-.068.013-.055.108-.097.147z" fill-rule="evenodd"/></svg>