<svg enable-background="new 0 0 75.267 34.549" viewBox="0 0 75.267 34.549" xmlns="http://www.w3.org/2000/svg"><g clip-rule="evenodd" fill-rule="evenodd"><path d="m51.032 34.264c-.214-.89-.141-1.868-.141-2.813 0-2.853-.007-5.94 0-8.908.007-2.97-.149-5.955-.047-8.907.032-.931-.062-1.909.234-2.767 1.269-.219 2.845-.094 4.407-.093 1.528 0 3.158-.208 4.407.14.157 3.516.141 7.391.141 11.299 0 1.262-.121 2.524.188 3.657 1.766.232 4.17.257 5.907 0 .364-.582.235-1.328.235-2.017 0-2.071-.071-4.273 0-6.516.064-2.046 0-4.248 0-6.518 0-.77.091-1.772-.187-2.156-.741-.307-1.574-.162-2.391-.141-.836.022-1.71-.047-2.579-.047-4.342-.001-8.432.046-12.799.047-.763 0-2.083-.15-2.531.094-.418.227-.666 1.463-.891 2.109-1.764 5.073-3.859 10.218-5.532 15.237-1.022 3.067-1.938 5.877-4.595 7.313-.676.366-1.335.698-2.109.891-1.53.381-3.696.28-5.626.281-.911 0-1.902.113-2.813-.141-.372-1.164-.021-2.855-.234-4.032-.399-.036-.4.444-.516.656-.877 1.62-2.654 3.405-5.063 3.563-1.405.092-2.866-.038-4.313-.047-1.424-.009-2.904.047-4.407.047-1.585 0-3.114.139-4.407-.047-2.404-.345-4.024-2.007-4.876-3.985-.485-1.126-.469-2.399-.469-3.984 0-5.916-.056-11.843 0-17.581.016-1.613-.091-2.956.234-4.125.61-2.195 2.177-3.768 4.454-4.407 1.11-.312 2.659-.234 4.219-.234 2.784-.001 5.967-.208 8.86 0 2.612.188 4.294 1.35 5.345 2.859 1.146 1.649 1.078 4.245 1.078 7.032 0 4.5.036 9.361.047 14.158.001.546-.171 1.45.141 1.782.365.388 1.804.199 2.532.234.87.041 2.175.124 2.672-.141.469-.25.64-1.114.844-1.689 1.504-4.234 3.174-8.595 4.688-12.752 1.328-3.643 2.075-7.883 4.97-10.032.934-.693 2.169-1.298 3.516-1.453 2.367-.272 4.959-.047 7.454-.047 5.825-.001 11.24-.047 17.018-.047 3.233 0 5.212 1.239 6.329 3.188 1.123 1.959.797 5.536.797 8.72v14.018c0 1.678.024 3.119-.469 4.266-.899 2.095-2.536 3.773-5.438 4.079-1.525.16-3.127.039-4.688.094-2.904.102-5.952-.091-9.189 0-1.444.044-2.927.095-4.407-.137zm3.704-1.218c2.517 0 4.898-.001 7.454 0 3 0 7.166.415 9.189-.75 1.169-.673 2.155-1.982 2.438-3.423.362-1.847-.009-4.25.094-6.423.095-2.005 0-4.198 0-6.376 0-2.138.098-4.307 0-6.376-.104-2.208.094-4.319-.656-5.719-.838-1.562-2.817-2.688-4.923-2.673-1.189.009-2.758.094-4.173.094-3.213 0-6.708.126-9.939.047-.582-.015-1.513-.17-1.829.141-.371.365-.14 1.77-.14 2.297 0 .983-.188 2.127.094 3.001 1.004.396 2.408.234 3.704.234 2.65 0 4.981.055 7.595 0 .741-.016 3.357-.342 3.797.094.259.256.141 1.69.141 2.391 0 4.301.047 8.5.047 12.752 0 1.714.106 3.424-.141 4.923-1.931.314-4.35.141-6.563.141-.511 0-1.865.1-2.109-.188-.177-.207-.167-1.18-.188-1.734-.027-.73.046-1.441.046-1.923.001-2.756-.046-4.864-.046-7.548 0-1.31.123-2.682-.141-3.656-.804-.319-1.964-.213-3.001-.188-1.08.025-2.187-.155-3.047.141-.318.733-.207 1.589-.188 2.391.019.81.017 1.653 0 2.484-.086 4.286 0 8.916 0 13.174 0 .829-.111 1.717.188 2.485.706.305 1.506.187 2.297.187zm-3.891-28.786c.028-.697.235-2.26-.188-2.672-.251-.245-.886-.163-1.359-.141-1.698.081-3.248-.168-4.735-.047-2.322.189-4.371 1.462-5.438 3.234-.956 1.588-1.439 3.825-2.157 5.72-.715 1.889-1.432 3.879-2.11 5.767-1.064 2.967-2.193 5.779-3.187 8.626-.343.982-.53 2.048-1.172 2.814-1.482.171-3.308-.013-4.688.141-.394.507-.188 1.266-.188 1.969 0 1.105-.243 2.351.094 3.235.827.3 1.82.188 2.719.188 1 0 1.994.022 2.86-.047 3.224-.261 4.953-2.143 5.907-4.595.676-1.738 1.294-3.536 1.922-5.345 1.56-4.487 3.243-9.02 4.829-13.455.305-.851.499-1.857 1.172-2.484 1.776-.129 3.913.146 5.532-.188.34-.71.145-1.679.187-2.72zm-41.022-2.719c-1.503-.047-3.015-.135-4.407.14-1.953.388-3.59 1.718-4.032 3.704-.188.846-.134 1.893-.14 2.626-.007.868 0 1.761 0 2.767 0 5.514-.171 11.354-.047 16.971.039 1.756.768 3.088 1.735 3.984 1.097 1.019 2.444 1.406 4.36 1.407 1.857 0 3.658-.001 5.485 0 1.78 0 3.798.116 5.626-.047 2.148-.191 3.803-1.818 4.267-3.985.171-.8.141-1.811.141-2.859 0-6.03-.047-11.631-.047-17.722 0-.905.086-2.016-.094-2.953-.323-1.675-1.439-2.886-2.766-3.47-1.528-.673-3.447-.649-5.485-.609-1.806.034-3.185.09-4.596.046z"/><path d="m16.387 7.307c.297 1.314.113 2.722.141 4.125.082 4.215.015 8.693 0 12.894-.003 1.029.137 2.045-.094 3-.873.324-1.968.188-3.047.188-1.874.001-3.894.149-5.579-.141-.241-.67-.141-1.594-.141-2.484 0-5.093 0-10.282 0-15.472 0-1.066-.214-2.108.562-2.25.492-.09.985.068 1.454.047 1.235-.058 2.672-.048 4.079-.047.881 0 1.811-.108 2.625.14zm-3.704 1.313c-.882 0-1.804-.036-2.579 0-.341.017-.785-.025-.984.234-.24 1.274-.074 2.669-.141 4.079-.138 2.899.182 5.949.047 8.86-.068 1.463-.137 2.9.141 4.22.797.245 1.909.141 2.954.141 1.06 0 2.146.115 2.906-.188.31-1.313.188-2.759.235-4.22.091-2.832-.047-5.847-.047-8.767 0-1.447.141-2.87-.141-4.173-.6-.31-1.514-.186-2.391-.186z"/></g></svg>