<svg enable-background="new 0 0 81.193 51.615" viewBox="0 0 81.193 51.615" xmlns="http://www.w3.org/2000/svg"><g clip-rule="evenodd" fill-rule="evenodd"><path d="m59.289 6.97c.74-.451.896-1.268 1.34-1.935.713-1.073 1.84-2.239 2.978-2.978 1.254-.814 2.616-1.494 4.169-1.787 3.659-.688 7.043.523 9.231 2.283 2.226 1.79 3.725 4.142 4.119 7.791.425 3.929-1.22 6.506-2.729 9.032-2.943 4.926-5.668 10.195-8.586 15.236-1.455 2.514-2.893 5.079-4.367 7.543-1.468 2.453-2.526 5.291-4.963 6.898-2.317 2.059-6.934 2.974-10.57 1.687-1.606-.568-2.903-1.614-3.971-2.531-.637-.474-1.04-1.117-1.488-1.787-.43-.641-.748-1.393-1.29-1.936-.564.209-.686.862-.943 1.291-1.782 2.971-4.864 5.683-9.678 5.657-4.146-.022-6.878-2.042-8.784-4.417-.66-.824-1.098-1.779-1.736-2.63-.774.58-1.051 1.484-1.489 2.184-1.34 2.136-3.449 3.833-6.253 4.615-4.551 1.27-8.486-.484-10.868-2.779-2.303-2.218-4.196-6.232-3.077-10.769.469-1.9 1.388-3.344 2.283-4.963 4.241-7.674 8.84-15.41 13.102-23.176.873-1.591 1.643-3.199 2.68-4.616 1.872-2.558 5.266-4.953 9.826-4.665 1.921.122 4.014.863 5.409 1.836.424.295.822.772 1.241 1.142.845.746 1.474 1.581 2.084 2.58.287.47.505 1.016.943 1.39.688-.374.88-1.17 1.24-1.737 1.723-2.711 4.711-5.139 8.934-5.409 4.766-.306 8.415 2.53 10.223 5.36.351.556.46 1.22.99 1.59zm-11.762 15.385c1.375.774 2.558 1.484 3.97 2.283.491.278 1.806.752 1.886 1.241.048.29-.548 1.295-.744 1.638-1.495 2.608-2.931 5.099-4.367 7.643-.579 1.025-1.207 2.016-1.539 3.275-1.028 3.904 1.216 6.816 3.673 8.089 1.328.688 3.356 1.039 5.062.645 3.202-.739 4.378-3.168 5.857-5.658 1.701-2.864 3.214-5.66 4.863-8.585.257-.455.977-1.292.894-1.836-.046-.302-.57-.605-.894-.794-.81-.474-1.401-.717-2.184-1.191-.349-.211-.695-.631-1.19-.545-.344.06-.85 1.067-1.142 1.588-1.683 2.996-3.303 5.888-4.963 8.784-.608 1.06-1.274 2.659-2.432 3.077-1.151.416-2.275-.39-2.481-1.29-.18-.788.219-1.626.596-2.333 1.107-2.076 2.263-4.055 3.325-5.906 1.542-2.689 2.915-5.24 4.466-7.791 2.132-3.507 4.459-7.99 6.65-11.712.715-1.215 1.313-3.168 2.631-3.524 1.086-.293 2.234.419 2.48 1.34.306 1.137-.322 1.981-.744 2.73-1.808 3.205-3.829 6.587-5.607 9.776-.203.363-.871 1.352-.795 1.787.057.317.588.496.943.695.881.491 1.288.791 2.134 1.241.333.177.766.569 1.191.496.552-.094 1.162-1.617 1.489-2.184 1.171-2.032 2.29-3.962 3.324-5.856.221-.403.319-.872.546-1.34 1.044-2.148 2.769-3.864 2.779-6.799.01-2.76-1.566-5.099-3.375-6.204-.8-.489-1.734-.895-2.778-.992-5.578-.52-7.192 3.365-9.182 6.948-1.37 2.469-2.916 5.217-4.367 7.742-.253.44-1.142 2.367-1.638 2.432-.521.069-1.229-.599-1.688-.844-.509-.273-1.376-.635-1.438-1.092-.057-.414.413-1.063.645-1.489 1.224-2.246 3.008-4.407 2.433-7.792-.591-3.472-3.595-6.314-7.792-6.005-4.014.296-5.706 3.729-7.246 6.502-2.096 3.776-4.141 7.489-6.303 11.315-.229.406-1.14 1.982-1.092 2.432.06.554 1.252 1.067 1.737 1.34 1.449.814 2.472 1.407 3.97 2.283.513.299 1.746.838 1.787 1.34.038.464-.636 1.299-.894 1.737-1.719 2.93-2.998 5.527-4.715 8.436-.493.837-1.291 2.74-2.382 2.878-1.233.157-2.179-.789-2.283-1.737-.061-.569.147-1.177.299-1.539.44-1.049 1.397-2.511 2.282-4.169.326-.609.623-1.288 1.092-2.134.341-.615 1.179-1.637 1.092-2.184-.039-.243-.455-.528-.794-.745-1.035-.66-1.848-1.207-2.829-1.786-.683-.404-1.226-.662-1.984-1.092-.468-.265-1.762-.772-1.787-1.34-.017-.366.517-.89.744-1.291 1.399-2.451 2.307-4.469 3.623-6.699.825-1.399 1.568-2.575 1.985-4.268.462-1.878.13-4.103-.646-5.509-1.376-2.497-4.843-4.458-8.635-3.176-2.525.853-3.792 3.027-5.013 5.261-2.187 4.002-4.471 7.921-6.65 11.861-2.203 3.984-4.483 7.917-6.65 11.861-.742 1.349-1.59 2.642-2.184 4.02-.706 1.639-.707 3.67-.198 5.162.97 2.835 3.616 5.091 7.544 4.764 1.827-.152 3.205-.982 4.268-1.935 1.062-.952 1.64-2.383 2.432-3.722 1.899-3.211 3.772-6.644 5.608-9.826.359-.623.544-1.351 1.29-1.837.711.216 1.054.555 1.688.894.461.246 1.432.551 1.488 1.092.051.484-.531 1.241-.793 1.687-.339.576-.703 1.141-.943 1.588-.567 1.056-1.264 2.239-1.489 3.573-.441 2.618.547 4.665 1.688 6.005.854 1.003 2.345 2.017 3.871 2.283 4.409.768 6.607-1.628 8.04-4.119 2.573-4.472 5.134-9.202 7.791-13.747.301-.514 1.093-1.609.992-2.134-.091-.479-1.215-.894-1.836-1.241-1.538-.858-2.518-1.438-3.97-2.283-.53-.309-1.739-.742-1.787-1.34-.034-.439.59-1.336.844-1.787 1.673-2.966 3.197-5.521 4.765-8.437.592-1.102 1.16-2.657 2.382-2.928 1.49-.331 2.486.838 2.481 1.985-.004.97-.738 1.811-1.142 2.531-.904 1.613-1.719 3.224-2.63 4.764-.453.766-.972 1.526-1.241 2.482.443.583 1.181.873 1.836 1.241z"/><path d="m27.229 9.651c1.041-.148 1.889.61 2.084 1.34.235.876-.211 1.75-.596 2.432-1.116 1.981-2.308 4.064-3.374 5.955-1.533 2.717-2.762 5.106-4.467 7.94-2.315 3.847-4.494 7.842-6.75 11.911-.676 1.22-1.472 3.183-3.076 3.127-.766-.027-1.492-.623-1.688-1.29-.455-1.56 1.146-3.426 1.688-4.367 2.209-3.843 4.375-7.955 6.65-11.811 2.217-3.759 4.409-7.816 6.649-11.811.634-1.131 1.347-3.209 2.88-3.426z"/></g></svg>