<svg enable-background="new 0 0 77.144 77.478" viewBox="0 0 77.144 77.478" xmlns="http://www.w3.org/2000/svg"><path clip-rule="evenodd" d="m60.778 1.086c2.544-.076 5.238-.05 7.973-.05.856 0 1.745-.12 2.507.15-1.441 3.74-3.17 7.193-4.663 10.881.331.629.854 1.123 1.304 1.655 1.312 1.549 2.618 3.225 3.61 5.165-1.153.865-2.559 1.647-4.112 2.557-.969.567-2.064 1.156-3.158 1.805-.264.156-.834.603-1.053.602-.608-.005-.626-1.068-1.154-1.053-1.241 2.266-2.142 4.746-3.259 7.12-.551 1.171-1.137 2.348-1.604 3.56-.466 1.206-1.278 2.304-1.454 3.611.554.214 1.572.203 2.307.2 6.056-.019 12.865-.056 18.954.101.334 1.944.106 3.849-.101 5.616-1.444 12.342-7.417 20.54-15.093 26.677-6.298 4.952-14.867 8.34-26.426 7.722-2.531-.135-5.034-.661-7.271-1.304-2.208-.635-4.29-1.485-6.168-2.407-3.84-1.885-7.318-4.411-10.028-7.12-2.821-2.821-5.471-5.934-7.421-9.728-1.935-3.762-3.572-8.028-4.162-12.987-1.321-11.101 1.809-20.542 6.418-27.078.39-.599.769-1.111 1.254-1.755.335-.443 1.215-1.143 1.254-1.705.03-.435-.487-1.098-.702-1.554-1.202-2.56-2.392-5.107-3.61-7.572-.513-1.034-1.047-2.022-1.356-3.109 3.36-.2 7.286-.101 10.731-.05 1.135 1.573 1.7 3.715 2.809 5.315.837-.234 1.504-.773 2.206-1.204 3.503-2.147 7.646-3.688 12.485-4.563 1.93-.349 3.968-.444 6.268-.551 6.295-.293 11.751 1.379 16.097 3.309.679.302 1.4.575 2.206 1.003.563.299 1.696 1.152 2.106 1.103.507-.06 1.006-1.717 1.203-2.156.372-.827.743-1.674 1.103-2.206zm-20.308 45.23c3.36-7.521 6.592-14.807 9.979-22.364.952-2.124 2.023-4.45 3.009-6.668.271-.611 1.004-1.88.902-2.357-.071-.335-1.157-.895-1.604-1.153-3.965-2.293-9.356-4.056-15.595-3.761-5.688.269-10.426 2.177-14.19 4.563-.536.34-1.411.789-1.454 1.203-.025.241.249.71.451 1.153 2.506 5.505 5.354 11.057 7.873 16.397 2.388 5.063 5.015 10.244 7.371 15.293.331.71.562 1.552 1.203 2.056.86-1.354 1.4-2.896 2.055-4.362zm-27.279-20.86c-1.878 3.636-3.004 7.461-3.209 12.586-.227 5.702 1.55 10.689 3.51 14.391 1.974 3.727 5.078 7.265 8.374 9.627 1.734 1.244 3.684 2.356 5.817 3.209 2.177.871 4.529 1.765 7.12 1.805-.186-1.004-.729-1.903-1.153-2.808-2.959-6.312-6.152-12.533-9.026-18.854-.816-1.797-1.685-3.59-2.557-5.366-1.783-3.627-3.341-7.302-5.115-10.831-.892-1.775-1.618-3.623-2.657-5.315-.033 0-.067 0-.101 0-.418.302-.687.946-1.003 1.556zm42.673 21.863c-1.498 0-3.072-.161-4.413 0-.711.085-1.113 1.58-1.454 2.357-2.213 5.039-4.479 9.898-6.619 14.792-.37.847-.797 1.694-.952 2.557 1.067.125 2.128-.207 3.108-.451 5.159-1.286 8.979-3.57 12.335-6.619 1.323-1.201 2.734-2.524 3.661-3.961.807-1.252 1.592-2.606 2.356-3.962.372-.658.703-1.434 1.003-2.156.317-.763.659-1.569.702-2.407-3.098-.171-6.491-.15-9.727-.15z" fill-rule="evenodd"/></svg>