<svg enable-background="new 0 0 70.689 73.979" viewBox="0 0 70.689 73.979" xmlns="http://www.w3.org/2000/svg"><g clip-rule="evenodd" fill-rule="evenodd"><path d="m12.271.073c3.606-.199 7.853.082 11.613 0 5.66-.124 11.307-.001 17.173 0 3.904 0 7.823.049 11.712.049 1.95 0 3.996-.001 5.806.099.691.309 1.025 1.068 1.428 1.673.401.604.864 1.196 1.23 1.82 2.231 3.806 4.435 7.812 5.953 12.4.979 2.958 1.908 6.328 2.51 9.743.617 3.505 1.059 7.282.984 11.22-.128 6.836-.961 13.048-2.805 18.502-.798 2.359-1.418 4.578-2.411 6.79-1.56 3.477-3.313 6.663-5.413 9.842-.389.59-.977 1.637-1.476 1.723-.741.127-1.99-.05-2.902-.05-10.28-.001-21.408-.099-32.133-.098-2.862 0-5.812-.124-8.71-.05-.975.025-2.346.134-2.853-.099-.519-.235-.936-1.182-1.329-1.771-.475-.711-.896-1.326-1.181-1.869-2.926-4.501-5.317-9.924-7.037-15.895-1.707-5.929-2.802-12.845-2.312-20.273.242-3.684.58-7.017 1.279-10.187 1.357-6.146 3.526-11.775 6.25-16.681 1.355-2.443 2.824-4.774 4.526-6.889.033.001.066.001.098.001zm3.987 7.922c-1.341 1.751-2.431 3.781-3.396 5.905-2.89 6.352-5.067 13.767-5.068 22.931-.001 5.96.868 11.386 2.411 16.238 1.115 3.51 2.548 6.762 4.133 9.891.385.759 1.269 2.8 2.018 2.952 1.327.271 3.084.049 4.724.05 11.147.002 22.892.11 33.314.049.828-.649 1.243-1.704 1.771-2.607.538-.921 1.013-1.919 1.476-2.903 2.791-5.934 4.886-12.816 5.266-21.012.541-11.695-2.599-20.921-6.446-28.541-.685-.873-.98-2.137-1.87-2.805-12.863-.225-24.859-.142-38.187-.148-.049 0-.097 0-.146 0z"/><path d="m51.194 36.88c.411.389 1.108.439 1.723.64 1.671.545 3.089 1.557 3.888 3.051 1.12 2.097.908 5.258.295 7.873-.871 3.718-2.156 7.069-3.592 10.285-.472 1.055-.978 2.11-1.674 2.952-10.812.071-22.207.133-33.067-.099-.71-.652-1.011-1.635-1.427-2.51-2.913-6.119-5.067-13.066-5.068-22.29-.001-8.799 2.257-16.022 5.167-22.193.329-.697 1.085-2.35 1.673-2.46 1.177-.221 2.787-.001 4.183 0 9.456 0 19.513.044 28.639.147 1.857 2.722 3.15 6.239 4.281 9.841.529 1.686 1.057 3.709 1.378 5.659.366 2.228.298 4.422-.837 6.151-1.132 1.725-3.232 2.345-5.562 2.953zm-10.53-9.645c-.311-.993-.491-2.063-1.132-2.756-1.229-.178-2.635-.099-4.035-.099-1.445.001-2.958-.147-4.183 0-.597.073-.683.644-.935 1.28-.574 1.449-1.065 3.262-1.181 4.675.902.258 1.926.148 2.952.148 2.064-.001 4.188 0 6.2 0 1.025 0 2.051.11 2.952-.148.015-1.055-.335-2.131-.638-3.1zm-2.264 16.091c-2.816 0-6.37-.035-9.152.049-.26.468-.01 1.065.099 1.575.351 1.646.824 3.324 1.574 4.477 2.78.107 5.88.133 8.66-.049.821-1.675 1.507-3.741 1.674-5.905-.871-.262-1.869-.147-2.855-.147z"/></g></svg>