<svg enable-background="new 0 0 69.937 70.399" viewBox="0 0 69.937 70.399" xmlns="http://www.w3.org/2000/svg"><g clip-rule="evenodd" fill-rule="evenodd"><path d="m69.813.319c.184 6.822.145 14.348 0 21.574-.515-.447-.546-1.379-.945-1.94-1.104-2.215-2.651-3.953-4.685-5.348-1.942-1.33-4.592-2.387-7.807-2.176-2.495.164-4.578.875-6.293 1.988-3.316 2.15-5.743 5.412-6.15 10.408-.147 1.816-.001 4.062 0 6.104 0 .598.084 1.268-.236 1.797-1.046-.043-2.04-.354-3.123-.424-2.327-.154-4.465.189-6.198.896-.839.344-1.575.924-2.271 1.373-1.469.951-2.687 2.166-3.644 3.645-.494.762-.854 1.557-1.23 2.41-.382.869-.551 1.801-.898 2.746-.371-.201-.385-.703-.473-1.041-.681-2.629-2.012-4.883-3.833-6.434-2.475-2.662-8.366-4.939-13.2-2.935-.568.236-1.104.398-1.609.617-2.374 1.018-4.38 3.098-5.677 5.297-.295.5-.491.973-.71 1.514-.193.483-.316 1.051-.709 1.469-.166-10.533-.097-21.133-.096-31.465.002-3.042.047-6.093.047-9.224 0-.363-.125-.85.19-1.137 11.392.17 23.623-.223 35.012.096 11.767.328 23.318-.353 34.538.19z"/><path d="m61.723 20.945c.05 2.82.169 6.492-.048 9.322-2.823.105-6.341.103-9.32-.047-.185-1.606-.143-3.688-.143-5.678 0-1.315-.108-2.635.189-3.738 1.306-.084 3.233-.047 4.921-.047 1.595.001 3.174-.046 4.401.188z"/><path d="m69.765 70.246c-2.851.273-5.764.096-8.658.094-2.884 0-5.762-.047-8.658-.047-17.47 0-35.135-.047-52.327-.236-.197-1.654-.096-3.416-.096-5.203.002-5.287-.078-10.934.096-16.088.464.652.6 1.412.898 2.082.892 1.998 2.227 3.592 3.88 4.969 2.102 1.752 5.071 3.117 8.894 2.791 5.342-.457 8.748-3.111 10.835-6.861.354-.637.658-1.318.899-2.033.236-.705.324-1.5.709-2.225.347.283.328.775.427 1.137.31 1.15.751 2.207 1.324 3.217.707 1.246 1.612 2.49 2.696 3.406 2.198 1.859 4.858 3.443 8.705 3.455 2.431.006 5.009-.865 6.625-1.846 3.446-2.092 5.974-5.502 6.481-10.363.204-1.953.047-4.183.047-6.291 0-.619-.132-1.318.189-1.892.889-.105 1.788.312 2.745.426 3.271.387 6.28-.51 8.231-1.656 2.827-1.662 4.857-4.172 5.914-7.428.041-.039.028-.131.095-.143h.095c.139 13.602.182 27.393-.046 40.735z"/><path d="m43.176 39.35c.385.115.237.623.237.9 0 3.561.092 7.316-.096 11.07-1.01-.166-1.781-.861-2.649-1.324-2.071-1.106-4.107-2.348-6.197-3.643-.319-.197-1.016-.518-1.041-.898-.03-.459.686-.824.994-.994.494-.271.819-.48 1.23-.711 2.468-1.49 4.969-2.947 7.476-4.4z"/><path d="m18.101 44.319c.285 2.619-.758 4.613-2.413 5.584-1.277.746-3.275.916-4.779.236-.703-.318-1.196-.82-1.798-1.326-2.051-2.436-1.209-6.436 1.229-7.9.851-.51 2.291-.939 3.69-.662 2.1.413 3.507 2.085 4.071 4.068z"/></g></svg>