<svg enable-background="new 0 0 81.83 24.012" viewBox="0 0 81.83 24.012" xmlns="http://www.w3.org/2000/svg"><path clip-rule="evenodd" d="m29.333 10.32c.765-.641 1.176-1.587 1.696-2.444 1.271-2.09 2.577-4.119 3.94-6.385.274-.454.525-1.043.848-1.196.785-.373 2.549-.1 3.691-.1 1.357 0 2.683.047 3.691.05 6.344.016 13.471-.158 19.851 0 1.125 1.729 1.865 3.843 2.842 5.786.316.626.541 1.326 1.048 1.795.522-.47.677-1.204.948-1.846.797-1.887 1.699-3.944 2.643-5.735 3.592-.051 7.664-.148 11.173.05.166 7.542.166 16.082 0 23.542-1.334.267-2.989.149-4.589.149-1.598 0-3.256.119-4.589-.149-.214-3.584.173-7.527-.199-11.023-.484.213-.505.892-.798 1.297-1.637 3.217-3.014 6.696-4.788 9.775-.651-.568-.896-1.443-1.297-2.194-.399-.746-.848-1.482-1.247-2.244-.795-1.518-1.727-3-2.443-4.539-.484-1.037-.742-2.191-1.598-2.993-.266.4-.148.929-.148 1.396 0 3.299-.02 7.165-.15 10.574-2.713.209-5.756.07-8.478.05-.405-.376-.744-.818-.848-1.496 1.201-.27 2.723-.149 4.189-.149s2.988.119 4.189-.149c-.15-.698-.444-1.252-.947-1.597-7.419-.024-15.922.002-23.643 0-.83 0-1.854-.152-2.443.05-.576.197-.697.924-.948 1.547.491.26 1.14.149 1.745.149 1.741 0 3.863-.081 5.487.1-.007.585-.429 1.161-.798 1.546-9.417.121-18.988-.03-28.381-.1-.459-.216-.928-.448-1.397-.698-.434-.231-1.011-.392-1.247-.848 2.577-.21 5.747-.05 8.679-.05 1.01 0 2.1.158 2.893 0 .732-.146 1.716-1.21 2.096-1.796-.573-.348-1.326-.199-1.996-.199-4.185 0-8.578-.162-12.618-.1-.733.011-1.473.123-1.995-.05-.69-.229-1.225-.919-1.396-1.597.692-.327 1.52-.199 2.294-.199 5.657 0 11.626.128 17.258.05.459-.357.847-1.046.848-1.696-.747-.205-1.728-.225-2.644-.199-5.848.162-12.586-.15-18.754-.1-.353-.348-.623-1.035-.498-1.696.868-.268 1.826-.149 2.742-.149 4.73.001 9.521.05 14.315.05.962 0 1.892.005 2.843.05.889.043 1.846.082 2.693-.149.193-.273.32-.822.199-1.247-.854-.363-1.851-.186-2.793-.199-5.722-.087-11.816-.101-17.606-.1-.936 0-1.906.119-2.793-.149-.207-.396-.066-1.157.05-1.547 1.785-.239 3.728-.149 5.686-.149 3.885 0 7.855.099 11.771.1 1.939.001 3.862.127 5.685-.1.17-.491.02-1.332-.249-1.695-7.321-.274-15.157-.065-22.544-.3-.054-.674.21-1.454.649-1.798 6.951-.327 14.213.191 21.197-.1.066-.788-.432-1.426-.898-1.846-4.732.099-9.672-.282-14.464-.149-1.545.043-3.098.077-4.538-.1.004-.607.74-1.512 1.346-1.695.984-.299 2.902-.051 4.09-.051 3.773.001 8.408.196 12.07 0-.068-.571-.898-1.292-1.545-1.446-.795-.189-1.904-.05-2.943-.05-2.826 0-6.149-.067-8.828-.149.109-.581.856-.821 1.446-1.048.671-.258 1.493-.486 2.194-.548 3.59-.317 8.061.272 11.672.1 1.879 2.473 3.693 5.065 5.486 7.681.581.846 1.084 1.795 1.895 2.444zm13.367-8.38c-.664.081-.932 1.014-1.097 1.597.972.294 2.21.133 3.392.1 1.205-.034 2.485.104 3.541-.1.03-.629-.457-1.126-.798-1.547-1.373.032-3.718-.209-5.038-.05zm7.034 3.641c-1.98-.09-4.665-.05-6.833-.05-.812 0-1.757-.144-2.345 0-.607.147-.973 1.14-1.047 1.695 2.798.252 5.899.101 8.828.1.77 0 1.558.115 2.244-.149-.103-.71-.422-1.207-.847-1.596zm1.995 3.791c-4.512.035-9.151-.054-13.517 0-.379.419-.774.821-.848 1.546.538.263 1.198.149 1.795.149h9.726c1.29 0 2.576.113 3.74-.149-.015-.606-.412-1.243-.896-1.546zm-7.082 2.294c-.505.41-.423 1.069-1.048 1.297-.781.283-2.37 0-3.74 0-1.016 0-3.114-.233-3.791.1-.461.227-.659 1.003-.799 1.546 1.025.267 2.355.15 3.642.15h1.896c.615 0 1.258-.113 1.746.149-.246.836-.652 1.509-1.247 1.995-2.47.025-5.058-.07-7.382.1-.416.27-.826.8-.748 1.396.959.144 1.912.153 2.893.149 6.926-.024 13.829.058 20.699-.149.044-.587-.38-1.109-.748-1.446-2.555-.105-5.744.139-8.131-.1-.394-.571-.746-1.183-.947-1.945.518-.261 1.194-.149 1.846-.149h4.09c.631 0 1.361.113 1.796-.25-.046-.521-.396-1.168-.849-1.446-2.412-.23-5.252-.035-7.83-.1-.512-.352-.59-1.141-1.197-1.396-.061.024-.115.053-.151.099z" fill-rule="evenodd"/></svg>