<svg enable-background="new 0 0 85.11 27.987" viewBox="0 0 85.11 27.987" xmlns="http://www.w3.org/2000/svg"><g clip-rule="evenodd" fill-rule="evenodd"><path d="m56.462 7.829c-5.712.216-11.228-.107-17.168.15-.268.884-.15 1.896-.15 2.895 0 2.889-.082 6.162.1 8.934 1.042.271 2.205.15 3.344.15 3.338.001 6.991.048 10.381.1.836.411 1.402 1.202 2.046 1.846 1.611 1.612 3.254 3.205 4.891 4.841.298.298.745.618.748 1.098-5.711.217-12.612.05-18.815.05-.943 0-1.924.135-2.645-.05-.736-.189-1.646-1.397-2.196-1.946-.749-.75-1.324-1.403-2.046-2.096-1.33-1.433-2.853-2.671-4.043-4.242.102-6.521-.19-13.47.1-19.415 4.56-.144 9.7-.164 14.324-.05 1.134.028 2.52-.212 3.544.05.738.19 1.395 1.203 1.996 1.847 1.624 1.74 3.164 3.113 4.841 4.791.278.279.735.588.748 1.047z"/><path d="m28.014 27.743c-5.447.244-11.304.15-17.069.15-.844 0-1.741.106-2.395-.05-.692-.165-1.177-.927-1.747-1.497-1.655-1.655-3.212-3.081-4.741-4.841-.312-.752-1.772-1.347-1.996-2.246-.14-.564 0-1.541 0-2.396 0-4.854-.05-9.477-.05-14.673 0-.454-.133-2.017.399-2.096 1.364-.203 3.433.073 5.04 0 4.844-.22 9.8.02 14.723 0 .878.381 1.447 1.198 2.096 1.847 1.302 1.302 2.616 2.616 3.943 3.943.65.65 1.418 1.237 1.896 2.046-.075 6.548.147 13.5-.099 19.813zm-19.864-19.764c-.169 3.927-.178 8.159 0 11.878.88.23 1.908.196 2.894.15 2.988-.142 6.246.121 8.934-.1.269-1.798.149-3.924.149-5.989 0-1.015 0-2.046 0-3.044 0-1.024.114-2.051-.149-2.944-3.945-.087-7.955-.198-11.828.049z"/><path d="m58.757.393h.1c1.385 1.143 2.578 2.478 3.993 3.593 1.026.943 1.869 1.768 2.944 2.745.396.359.82.55.948.948.238.74.05 2.127.05 3.044 0 3.032-.082 6.284.1 9.134.804.267 1.709.149 2.595.15h5.44c.879 0 1.901-.138 2.646.05.748.188 1.432 1.232 2.046 1.846 1.403 1.403 2.489 2.489 3.843 3.843.636.636 1.36 1.245 1.647 2.096-4.948.179-10.804.099-16.121.1-.79 0-1.68.128-2.246-.05-.606-.191-1.687-1.538-2.146-1.996-1.682-1.682-3.369-3.306-5.091-5.141-.366-.39-.85-.771-.948-1.098-.179-.597-.05-1.59-.05-2.446 0-3.938 0-7.79 0-11.928 0-1.503-.075-3.561.1-4.841.006-.039.166-.15.15-.049z"/></g></svg>