<svg enable-background="new 0 0 81.486 59.751" viewBox="0 0 81.486 59.751" xmlns="http://www.w3.org/2000/svg"><g clip-rule="evenodd" fill-rule="evenodd"><path d="m58.99 25.777c-2.666.273-5.454-.026-8.08.198-.268 1.141-.149 2.569-.149 3.966 0 1.368-.078 2.784.099 3.965 2.432.445 5.638-.145 8.129.198-.014 1.595-.475 3.08-.892 4.461-2.852 9.443-9.49 16.23-18.539 19.481-2.795 1.004-5.896 1.547-9.17 1.686-3.268.138-6.524-.51-9.418-1.338-6.771-1.938-12.099-6.252-15.763-11.401-.374-.526-.781-1.067-1.09-1.636-.319-.588-.511-1.25-.843-1.883-1.275-2.438-2.211-5.074-2.776-8.08-1.299-6.92.101-13.554 2.379-18.34 1.183-2.483 2.535-4.682 4.213-6.642 3.247-3.793 7.649-7.052 12.888-8.823 1.384-.468 2.834-.84 4.362-1.09 1.559-.256 3.315-.478 5.106-.496 4.419-.043 8.333.934 11.599 2.28 3.294 1.357 6.047 3.279 8.377 5.452 1.238 1.155 2.343 2.269 3.371 3.569 2.993 3.785 5.526 8.494 6.197 14.473zm-39.506 4.214c.008 2.816 1.179 5.259 2.775 6.89 1.597 1.631 3.796 2.965 6.494 3.172 3.821.294 6.759-1.219 8.625-3.519 1.846-2.275 3.162-5.556 2.132-9.319-.447-1.633-1.375-3.189-2.429-4.263-1.709-1.742-4.237-3.328-7.832-3.172-3.117.136-5.254 1.443-6.89 3.172-1.697 1.846-2.885 3.824-2.875 7.039z"/><path d="m81.296 1.587c.212 4.496.148 9.152.148 13.879 0 14.38.122 28.552-.049 42.679-.729.265-1.54.148-2.33.149-4.049.001-8.146-.104-12.244.049-1.585.06-3.184.031-4.66-.148-.144-7.755-.147-16.168 0-24.042 2.225-.367 5.399.101 7.782-.297.173-2.455.152-5.483 0-7.832-2.381-.352-5.43.112-7.782-.247-.188-7.983-.184-15.957-.049-24.19 6.138-.155 12.975-.188 19.184 0z"/></g></svg>