<svg enable-background="new 0 0 77.473 79.065" viewBox="0 0 77.473 79.065" xmlns="http://www.w3.org/2000/svg"><path clip-rule="evenodd" d="m66.586 67.017c-6.167 6.082-13.511 11.094-24.754 11.952-3.814.291-7.705-.1-11.202-.8-6.351-1.271-11.986-4.264-16.453-8.002-2.195-1.837-4.269-3.867-6.001-6.201-1.758-2.371-3.297-4.97-4.5-7.701-2.503-5.68-4.335-12.818-3.451-20.603.607-5.351 2.077-10.13 4.201-14.152.347-.658.754-1.301 1.1-1.951.361-.676.664-1.374 1.05-2 4.576-7.423 11.812-12.834 20.804-15.853 2.319-.778 4.864-1.299 7.601-1.55 5.644-.519 11.308.301 15.703 1.85 3.697 1.304 6.796 3.046 9.701 4.951 2.982 1.956 5.328 4.483 7.651 7.002 2.354 2.551 4.155 5.777 5.701 8.951 1.58 3.244 2.697 7.156 3.351 11.352.68 4.367.425 9.345-.501 13.452-1.796 7.978-5.244 14.27-10.001 19.303zm3.851-41.458c-3.538.07-6.977-.067-10.302-.05-.577.003-1.791-.047-2.35.15-1.158.408-1.763 2.083-2.401 3.25-.709 1.299-1.292 2.578-1.95 3.751-1.052 1.875-2.082 3.621-3.051 5.451-.322.608-.597 1.293-1.15 1.7-14.609.073-29.674-.165-44.558 0-.679.887-1.149 1.907-1.7 2.901-.539.972-1.142 1.984-1.5 3.1.972.269 2.013.15 3 .15 15.936 0 31.772.035 47.308.05.602-.437.804-1.196 1.15-1.85.724-1.369 1.322-2.503 2.101-3.951.29-.54.751-1.68 1.2-1.85.577-.219 2.049-.083 2.75-.05 2.68.124 5.566-.035 8.101-.05.492-.642.839-1.421 1.251-2.15.409-.725.934-1.47 1.05-2.3-2.454-.222-5.314-.15-8.051-.15-.916 0-1.841.135-2.6-.15.141-.601.406-1.016.7-1.601.198-.394.542-1.251.95-1.4.654-.239 1.819-.05 2.701-.05 2.806 0 5.723.06 8.151-.05.617-.621.986-1.474 1.4-2.25.421-.788.938-1.568 1.15-2.5-1.085-.297-2.228-.122-3.35-.101z" fill-rule="evenodd"/></svg>