<svg enable-background="new 0 0 80.643 68.402" viewBox="0 0 80.643 68.402" xmlns="http://www.w3.org/2000/svg"><g clip-rule="evenodd" fill-rule="evenodd"><path d="m80.512.159c.154 22.785.193 45.861 0 68.047-6.499.228-13.158.15-19.889.151-20.304 0-40.314.129-60.424-.051-.275-1.373-.151-2.795-.151-4.189-.003-18.645.002-36.809 0-55.78-.001-2.783-.158-5.505.101-8.128 3.467-.132 6.866-.101 10.398 0 .191 17.303.103 34.51.102 51.792 0 1.178-.053 2.48 0 3.735.051 1.207-.106 2.594.151 3.584.675 2.596 3.691 3.306 6.612 3.534 3.152.246 6.75.148 9.844.101 6.963-.107 13.364.303 19.688-.051 6.902-.385 11.588-1.393 15.446-4.796 1.811-1.596 3.294-3.516 4.544-5.602.639-1.067 1.117-2.214 1.716-3.332.303-.565.642-1.052.858-1.665.209-.596.48-1.181.757-1.768 1.078-2.293 2.079-4.736 2.979-7.168.897-2.428 1.898-4.938 2.574-7.572.703-2.737 1.205-6.124.505-8.935-.951-3.817-4.767-5.351-9.541-5.653-4.577-.291-10.57-.345-13.781 1.161-1.034.484-1.939 1.399-2.776 2.321-2.45 2.7-4.956 5.087-7.42 7.724-1.304 1.399-2.564 2.767-3.938 4.14-.417.416-.857 1.1-1.565 1.11-.345-.567-.201-1.288-.201-1.918.001-7.509-.001-15.317 0-22.767 0-2.726-.185-5.436.101-8.026 14.355-.172 28.794-.246 43.31.001z"/><path d="m45.631 34.283c1.973 1.092.964 4.156.303 6.058-.826 2.377-1.582 4.6-2.776 6.714-.566 1.002-1.31 2.077-2.271 2.424-1.469.527-3.253-.059-3.686-1.161-.282-.721-.151-1.885-.151-2.776 0-.913-.051-1.955-.05-2.827 0-1.646-.315-4.41.201-5.755.319-.83 1.436-1.896 2.373-2.372 1.552-.791 4.333-1.149 6.057-.305z"/></g></svg>