<svg enable-background="new 0 0 48.646 78.556" viewBox="0 0 48.646 78.556" xmlns="http://www.w3.org/2000/svg"><g clip-rule="evenodd" fill-rule="evenodd"><path d="m.125 38.414c-.197-2.948-.101-6.259-.101-9.472 0-8.939 0-17.425 0-26.502 0-.748-.113-1.554.151-2.268 3.37-.607 7.308.594 9.623 1.713 3.197 1.545 5.818 3.932 7.759 7.054 1.971 3.171 3.282 7.123 2.973 11.84-.181 2.76-1.063 5.285-2.217 7.356-.605 1.086-1.119 2.092-1.814 2.973-.686.869-1.483 1.669-2.368 2.418-3.485 2.948-7.674 5.236-14.006 4.888z"/><path d="m27.886 38.212c-.233-1.504-.101-3.059-.101-4.636 0-9.482 0-19.208 0-28.769 0-1.565-.122-3.129.151-4.635 2.948-.601 6.86.488 9.019 1.461 3.579 1.614 5.853 3.69 7.961 6.651.676.949 1.372 1.922 1.864 2.973 1.046 2.235 1.751 5.168 1.764 7.96.013 3.001-.732 5.909-1.865 8.162-.578 1.15-1.068 2.318-1.763 3.225-2.088 2.725-4.989 5.127-8.464 6.499-2.371.937-5.216 1.565-8.566 1.109z"/><path d="m27.886 78.469c-.273-3.151-.151-6.409-.151-9.673 0-6.583.065-13.072 0-19.348-.029-2.759.05-5.525.05-8.464 0-.311-.118-.769.202-1.008 6.527-.418 11.592 2.322 14.812 5.542 3.154 3.153 5.921 7.839 5.845 14.107-.075 6.133-2.902 10.681-6.197 13.755-3.4 3.172-7.997 5.681-14.561 5.089z"/></g></svg>