<svg enable-background="new 0 0 69.239 66.109" viewBox="0 0 69.239 66.109" xmlns="http://www.w3.org/2000/svg"><path clip-rule="evenodd" d="m69.239.363c-.031.778-.552 1.406-.888 2.057-2.393 4.634-4.721 9.327-7.104 14.066-.666 1.326-1.284 2.709-2.009 4.066-1.767 3.304-3.364 6.548-5.095 10.048-.326.659-.929 1.547-.934 2.056-.006.534.594 1.517.889 2.149 1.633 3.507 3.02 6.818 4.673 10.328.654 1.389 1.39 2.773 1.822 4.16.448 1.435 1.223 2.786 1.869 4.159 1.61 3.417 3.133 6.842 4.721 10.281.308.666.729 1.341.794 2.103-.558.414-1.32.233-1.962.234-16.32 0-33.273-.009-48.884-.094-4.341-.023-8.596 0-12.945 0-1.354 0-2.73.032-4.065-.14-.198-1.05-.094-2.163-.094-3.271 0-7.873-.091-16.114.141-23.927.489-.247 1.076-.14 1.589-.14h25.563c2.393 0 4.724.237 6.775 0 2.079-.24 3.926-.55 5.655-1.215 1.609-.619 2.937-1.635 4.112-2.757.582-.556 1.065-1.189 1.495-1.916.417-.704.812-1.534 1.028-2.383-.413-.343-1.017-.168-1.495-.187-5.901-.236-12.367-.093-18.226-.094-1.677 0-3.339 0-5.048 0-.488 0-1.041.104-1.495-.14-.147-.919.123-2.208.468-2.944 4.471-.239 9.817-.094 14.86-.094 2.626.001 5.261.121 7.618 0 2.305-.118 3.924-1.235 5.327-2.243.91-.779 1.604-1.768 2.29-2.757.684-.988 1.372-2.038 1.775-3.271-.58-.253-1.264-.141-1.869-.141-8.115.001-16.998-.094-25.516-.093-1.284 0-2.594.112-3.833-.14-.226-.569-.224-1.872.047-2.383.893-.25 1.856-.14 2.804-.14 2.898 0 5.825.046 8.786.047 3.945 0 7.937-.133 11.543 0 4.293.158 7.183-.427 9.628-2.104 1.685-1.155 2.79-3.127 3.691-5.141.287-.641.78-1.259.795-2.009-.936-.333-1.984-.139-2.991-.187-1.049-.05-2.113.047-3.178.047-12.694-.001-25.555-.095-38.365-.095-2.337 0-4.183.045-5.468.981-.518.377-1.01.989-1.356 1.589-.577 1.004-.572 2.33-.607 4.066-.03 1.565-.094 3.091-.094 4.533 0 3.156.184 6.511-.374 8.786-.506 2.068-1.96 3.311-4.393 3.551-.455.045-1.003.179-1.496-.046-.18-1.019-.093-2.342-.093-3.599-.001-7.462.048-14.912.048-22.525 0-1.02-.223-3.231.327-3.412.504-.165 1.552-.037 2.337 0 2.064.098 4.429 0 6.496 0 18.902.001 38.525.094 57.948.094.644 0 1.36-.125 1.963.187z" fill-rule="evenodd"/></svg>