<svg enable-background="new 0 0 72.864 80.829" viewBox="0 0 72.864 80.829" xmlns="http://www.w3.org/2000/svg"><g clip-rule="evenodd" fill-rule="evenodd"><path d="m45.538.917c.282.248.14.661.152.962.093 2.214.167 4.882.051 7.343-.112 2.369-1.155 4.642-2.279 6.28-1.182 1.721-2.571 3.038-4.608 3.95-2.007.899-4.305 1.623-7.09 1.469-5.092-.282-8.691-2.322-11.748-4.76-.511-.375-.942-.793-1.469-1.266-.428-.384-1.022-1.045-1.671-1.063-.917-.026-1.877 1.185-2.481 1.823-1.457 1.536-2.802 2.929-4.204 4.406-.712.75-1.353 1.618-2.329 1.975-1.095-.188-1.556-1.009-2.178-1.671-1.516-1.393-2.775-2.741-4.254-4.304-.458-.485-1.281-1.03-1.367-1.621-.141-.965 0-2.063 0-3.089 0-2.901-.047-5.815.151-8.66.653.105 1.221.756 1.723 1.215 1.069.979 1.848 1.956 3.038 2.988.475.411 1.205 1.098 1.874 1.113.91.021 1.889-1.13 2.431-1.722 2.011-2.196 4.053-4.243 6.178-6.229.879-.309 1.688.725 2.279 1.316 1.666 1.666 3.653 3.523 5.166 5.014 2.265 2.219 4.814 4.347 8.861 4.659 5.228.403 8.518-1.956 10.838-4.659 1.363-1.588 2.263-3.481 2.936-5.469z"/><path d="m.214 17.882c.772.105 1.244.838 1.723 1.317 1.493 1.494 2.982 3.034 4.507 4.558 1.994 1.994 3.986 4.065 6.077 6.026 1.095 1.026 2.035 2.073 3.14 2.937 3.307 2.586 7.517 4.619 12.964 5.165 7.961.799 14.208-1.969 18.383-5.52 3.78-3.213 6.828-7.26 8.407-12.762.218-.761.354-1.602.658-2.38.006-.04.167-.154.152-.051.04.01.05.051.101.051.005 4.597.449 9.137-.151 12.863-.3 1.853-.789 3.589-1.469 5.165-.657 1.522-1.492 3.043-2.481 4.153-2.114 2.368-4.505 4.418-7.344 5.976-2.837 1.556-6.357 2.431-10.331 2.937-3.907.498-8.386-.128-11.748-1.164-3.505-1.081-6.376-2.258-9.115-4.153-3.87-2.675-6.864-6.342-10.382-9.571-.532-.488-1.051-1.051-1.672-1.671-.471-.471-1.5-1.399-1.569-1.874-.124-.844-.021-1.881 0-2.937.04-2.015.07-4.232.051-6.229-.012-1.011-.153-2.007.099-2.836z"/><path d="m72.53 26.947h.102c.348.45.202 1.115.202 1.671 0 4.278.014 8.577 0 12.913-.924 1.475-2.287 2.569-3.494 3.798-1.204 1.227-2.329 2.532-3.545 3.748-7.256 7.256-14.403 14.72-21.573 22.13-2.689 2.901-5.513 5.715-8.406 8.609-.429.428-.87.999-1.367 1.013-.769.022-1.847-1.289-2.431-1.874-.389-.388-.635-.84-.963-1.215-.351-.402-.806-.684-1.113-1.013-4.143-4.418-8.601-8.65-12.812-12.863-5.055-5.056-10.001-9.949-15.041-14.99-.705-.706-1.49-1.393-1.975-2.279-.106-4.332-.181-8.751.051-13.015.583-.13.89.461 1.215.759 2.476 2.267 4.79 4.845 7.242 7.191 2.791 2.671 5.442 5.543 8.204 8.306 3.37 3.371 6.838 6.838 10.331 10.331 1.417 1.417 2.729 2.515 4.102 4.153.523.625 1.55 1.771 2.329 1.772.905 0 2.102-1.492 2.734-2.178 2.342-2.537 4.841-4.992 7.191-7.394 6.442-6.581 12.615-13.121 19.193-19.7 1.558-1.558 3.188-3.201 4.811-4.912.722-.762 1.627-1.569 2.43-2.431.856-.914 1.663-1.94 2.583-2.53z"/></g></svg>