<svg enable-background="new 0 0 77.323 32.345" viewBox="0 0 77.323 32.345" xmlns="http://www.w3.org/2000/svg"><g clip-rule="evenodd" fill-rule="evenodd"><path d="m33.71.172c-.187.775-.648 1.457-1.024 2.146-2.532 4.642-5.292 9.314-7.903 13.952-2.257 4.01-4.472 8.025-6.732 12.05-.745 1.325-1.364 2.727-2.342 3.902-5.088.028-10.605.159-15.709-.048.121-.755.596-1.437.976-2.098.384-.669.755-1.338 1.171-1.951 3.795-7.112 7.794-14.074 11.708-21.124.648-1.166 1.317-2.317 2-3.463.676-1.136 1.233-2.362 2.049-3.415 3.714-.173 8.274-.097 12.245-.098 1.234 0 2.444-.115 3.561.147z"/><path d="m50.345.27c-.72 1.675-1.67 3.296-2.585 4.878-2.259 3.902-4.443 7.893-6.635 11.903-.418.767-.837 1.611-1.463 2.244-5.031.08-10.211.074-15.27-.098-.027-.486.321-.888.537-1.269 1.53-2.708 3.137-5.53 4.732-8.293 1.829-3.168 3.525-6.409 5.464-9.464 4.26-.207 8.913-.049 13.221-.049.677.001 1.372-.11 1.999.148z"/><path d="m67.225.221c-.099.784-.61 1.426-.976 2.098-3.297 6.056-6.691 12.242-10.147 18.245-1.529 2.655-3.061 5.308-4.586 8.001-.747 1.317-1.579 2.6-2.537 3.756-4.893-.02-10.315.07-15.172-.146-.018-.51.348-.907.585-1.316.706-1.219 1.39-2.509 2.098-3.757.939-1.654 2.009-3.274 2.83-4.976.243-.504.414-.996.683-1.464 1.797-3.126 3.559-6.475 5.366-9.659 1.554-2.739 3.065-5.454 4.635-8.245.494-.879.949-1.851 1.659-2.585 4.985-.08 10.459-.136 15.562.048z"/><path d="m68.249.367c.397.012.604 1.222.781 1.853 2.412 8.656 4.8 17.312 7.317 25.953.388 1.331.815 2.685.976 4.049-2.421.193-5.076.099-7.756.098-2.662-.001-5.364.041-7.903-.049-.491-1.102-.63-2.294-.927-3.464-.731-2.885-1.35-5.814-2.098-8.879-.147-.601-.476-1.294-.439-1.756.052-.664.834-1.54 1.219-2.244 1.231-2.244 2.605-4.459 3.708-6.635.746-1.472 1.604-2.972 2.439-4.44.876-1.538 1.743-3.136 2.683-4.486z"/></g></svg>