<svg enable-background="new 0 0 63.804 77.588" viewBox="0 0 63.804 77.588" xmlns="http://www.w3.org/2000/svg"><g clip-rule="evenodd" fill-rule="evenodd"><path d="m10.713.017c2.995-.178 5.765 1.037 7.539 2.529 2.112 1.777 3.884 4.357 4.104 7.969.238 3.922-1.347 6.465-3.102 8.443-1.782 2.012-4.813 3.533-8.063 3.484-3.447-.053-6.09-1.478-8.016-3.531-1.778-1.895-3.399-4.672-3.149-8.396.207-3.092 1.621-5.582 3.292-7.254.822-.822 1.866-1.63 3.101-2.193 1.265-.578 2.595-.949 4.294-1.051z"/><path d="m21.592 62.808c-.34.988-.19 2.309-.191 3.578 0 3.668-.001 7.594-.143 11.117-6.523.178-13.606.041-20.183-.096-.256-1.055-.144-2.154-.144-3.244.002-7.75.047-15.598.048-23.379.002-8.87.011-17.933.192-26.624 6.535-.199 13.599-.049 20.183.096.256.779.143 1.641.143 2.48 0 2.443-.231 5.348.096 7.684.419 2.988 1.861 5.234 3.579 6.822 1.354 1.273 3.149 2.098 5.344 2.48 5.001.875 8.572-1.775 10.64-4.627 1.157-1.598 1.939-3.473 2.004-5.773.136-4.883-2.899-7.875-5.916-9.686-1.688-1.014-3.628-1.564-6.012-1.766-2.368-.201-4.919-.029-7.491-.287-.068-5.867-.201-11.76-.048-18.131.019-.773-.103-2.061.191-2.385.035-.045.087-.072.143-.096 6.325-.07 12.443-.092 17.081 1.383 4.684 1.49 8.518 3.764 11.785 6.68 1.547 1.381 3.132 3.008 4.485 4.771 2.707 3.527 4.639 7.416 5.726 12.691.539 2.619.86 5.553.62 8.494-.46 5.641-1.924 10.32-4.246 14.219-2.285 3.834-5.326 6.984-8.875 9.541-3.462 2.494-7.865 4.531-13.025 5.439-4.041.713-8.658.549-12.405-.381-1.224-.3-2.339-.781-3.581-1z"/></g></svg>