<svg enable-background="new 0 0 83.163 49.575" viewBox="0 0 83.163 49.575" xmlns="http://www.w3.org/2000/svg"><g clip-rule="evenodd" fill-rule="evenodd"><path d="m82.99.189c.265 4.002.146 8.107.146 12.242.002 12.238.077 24.952-.097 36.922-.044.021-.088.043-.098.098-10.331.292-20.743-.073-31.215.049-17.145.2-34.786-.054-51.603-.098-.177-15.87-.098-31.976-.098-47.993 0-.42-.131-.958.195-1.317 13.983-.094 27.932 0 41.556 0 3.501 0 7.059.146 10.535 0 6.743-.284 13.515.212 20.436-.049 1.714-.064 3.447 0 5.17 0 1.691-.001 3.406-.102 5.073.146zm-46.188 3.902c-10.677-.002-21.736-.031-32.239 0-.362.243-.245.724-.245 1.072-.001 4.925 0 9.655 0 14.535 0 1.732.079 3.495 0 5.17-.28 5.915.186 12.039 0 17.949-.026.832-.188 1.684.098 2.487 12.087.189 24.998.3 36.727.049.263-3.33.146-6.76.146-10.194 0-10.303.081-20.834-.098-30.923-1.433-.265-2.912-.145-4.389-.145zm17.217.049c-.333.477-.195 1.133-.195 1.707 0 4.484-.147 9.212.098 13.363.961.265 2.002.146 3.024.146 3.197.001 6.346 0 9.511 0 4.214.001 8.48.086 12.388-.146.265-2.318.036-4.847.146-7.364.113-2.563-.034-5.186-.146-7.657-8.128-.218-17.197-.048-24.826-.049zm12.632 26.338c-4.061-.001-8.355-.019-12.632.048-.326.488-.195 1.206-.195 1.854 0 1.958-.084 4.204.098 6.097 5.591.235 11.197.166 16.778 0 .262-1.127.146-2.523.146-3.901 0-1.361.077-2.773-.098-3.951-1.354-.267-2.73-.147-4.097-.147z"/><path d="m21.877 13.699c1.575-.116 3.004.109 4.048.439 3.177 1.003 5.487 3.101 6.779 5.852 1.525 3.249 1.199 7.381-.39 10.194-1.514 2.681-4.117 4.634-7.267 5.365-3.787.879-7.643-.692-9.657-2.536-.453-.415-.813-.998-1.219-1.513-1.116-1.411-2.157-3.356-2.341-5.755-.248-3.22.758-5.711 2.049-7.511 1.131-1.579 2.415-2.855 4.438-3.707 1.018-.428 2.162-.725 3.56-.828z"/></g></svg>