<svg enable-background="new 0 0 73.075 73.585" viewBox="0 0 73.075 73.585" xmlns="http://www.w3.org/2000/svg"><path clip-rule="evenodd" d="m73.064 25.159c-.57.328-1.265.213-1.905.238-3.331.133-6.772-.15-10.381 0-1.419.06-2.901-.047-4.333-.047-2.903-.002-5.864 0-8.81 0-5.842-.002-11.413.107-17.286-.096-2.834-.098-5.674.127-8.477 0-5.836-.266-11.709.199-17.572 0-.552.623-.698 1.5-.905 2.334-.628 2.527-1.13 5.467-1.19 8.523-.169 8.539 2.714 14.697 6 19.857 1.646 2.588 3.928 4.709 6.19 6.715 2.173 1.926 4.848 3.732 7.81 5.142 2.908 1.387 6.328 2.541 9.81 3.096 7.155 1.141 14.224-.201 19.382-2.381.726-.307 1.484-.621 2.048-1.143.004-.547-.614-.736-.953-1-2.247-1.756-4.228-3.703-6.238-5.857-.291-.312-.864-.791-.857-1.143.007-.387 1.013-1.158 1.477-1.143.381.012.925.662 1.19.951.967 1.057 2.076 2.299 3.143 3.191 1.138 1.024 2.237 1.822 3.571 2.809.313.232.957.756 1.333.762.42.008 1.109-.531 1.571-.855 2.966-2.082 5.253-4.135 7.572-6.953.333-.404.785-1.174 1.19-1.191.435-.018 1.355.787 1.381 1.238.033.574-1.038 1.531-1.428 2-1.593 1.91-3.427 3.629-5.191 5.096-.403.342-.796.609-1.286 1-.292.234-1.177.664-1.19 1.047-.021.572 1.863 1.316 2.286 1.525 1.72.844 3.475 1.428 5.524 2 .376.104.91.303 1.524.381.631.08 1.263.108 1.476.381.364.467.054 1.375-.238 1.619-1.317.082-2.525-.354-3.667-.619-2.89-.672-5.47-1.844-8-3.096-.467-.23-1.138-.65-1.524-.666-.532-.023-1.317.557-1.857.809-4.233 1.977-8.866 3.572-14.81 3.857-3.732.18-6.805-.217-9.762-.809-2.802-.562-5.478-1.518-7.953-2.715-4.881-2.361-8.772-5.346-12.286-9.049-3.43-3.613-6.147-8.236-7.81-13.523-1.671-5.312-2.261-12.666-.809-18.715 1.384-5.767 3.789-10.578 6.905-14.43 3.207-3.963 6.977-7.428 11.524-9.809 4.127-2.162 8.661-3.797 14.334-4.334 5.838-.553 11.806.404 16.191 1.857 3.894 1.289 7.334 3.168 10.238 5.285 2.988 2.178 5.51 4.879 7.762 7.762 1.991 2.551 3.509 5.502 4.857 8.715.178.427.502.884.429 1.384zm-4.286-4.428c-.395-.74-.795-1.461-1.238-2.142-3.043-4.842-7.047-8.594-12.048-11.619-2.383-1.443-5.193-2.664-8.333-3.476-2.292-.594-4.816-1.246-7.572-1.287-.954-.014-1.946-.139-2.905-.094-2.11.098-4.131.312-6 .666-5.544 1.045-9.812 3.125-13.81 5.762-2.538 1.674-4.772 3.92-6.762 6.238-1.464 1.707-2.851 3.807-3.905 5.857-.377.734-.824 1.506-.953 2.334.585.225 1.247.184 1.857.19.682.008 1.368 0 2.047 0 17.23 0 35.716.1 52.526.096h6.143c.627 0 1.319.125 1.905-.191-.001-.91-.575-1.627-.952-2.334z" fill-rule="evenodd"/></svg>