<svg enable-background="new 0 0 126.928 166.894" viewBox="0 0 126.928 166.894" xmlns="http://www.w3.org/2000/svg"><g clip-rule="evenodd" fill-rule="evenodd"><path d="m63.763.002c.041-.009.045.019.048.048.269 2.752.365 5.456.574 8.132.208 2.675.613 5.304.766 7.893.309 5.273 1.283 10.296 2.152 15.211.854 4.836 2.115 9.504 3.3 14.063 1.188 4.57 2.644 8.987 4.114 13.25 5.922 17.179 14.026 32.284 23.247 46.207 2.64 3.962 5.671 7.532 8.228 11.576-.779-.372-1.363-1.016-2.057-1.531-7.519-5.583-16.437-9.74-27.361-12.054-7.78-1.648-18.086-1.736-26.117-.144-7.983 1.583-14.864 4.178-20.951 7.702-3.053 1.767-5.807 3.754-8.61 5.692.543-1.062 1.342-1.982 2.057-2.918 2.121-2.771 4.178-5.729 6.171-8.706 18.514-27.649 32.07-60.429 34.44-104.278-.001-.048-.001-.096-.001-.143z"/><path d="m.288 95c.478 1.687.776 3.298 1.34 4.831 1.643 4.473 4.141 8.184 7.127 11.385 1.972 2.114 4.252 3.936 6.601 5.74 2.327 1.787 4.952 3.401 7.605 4.735 2.729 1.372 5.516 2.741 8.515 3.827 8.938 3.233 19.516 5.357 31.666 5.357 16.143 0 29.529-3.254 40.564-8.801 2.648-1.332 5.317-2.911 7.701-4.64 2.387-1.731 4.716-3.62 6.649-5.692 3.478-3.729 6.488-7.884 8.084-13.489.219-.771.305-1.598.717-2.344.186 20.192-.046 41.151-.048 61.897 0 2.939.107 5.897-.144 8.801-.27-.341-.285-.795-.383-1.196-1.474-6.097-4.533-10.909-8.322-14.78-6.056-6.188-13.916-10.827-23.009-14.016-9.07-3.182-19.504-5.262-31.762-5.262-5.933.001-11.794.617-16.98 1.531-5.302.934-10.145 2.178-14.733 3.779-1.483.518-2.999 1.081-4.4 1.77-1.393.684-2.839 1.282-4.162 2.009-5.338 2.934-10.33 6.141-14.254 10.428-3.428 3.744-6.496 7.849-7.941 13.633-.193.779-.273 1.632-.669 2.392-.097-23.966-.056-47.899.191-71.751-.005-.069-.009-.136.047-.144z"/></g></svg>