<svg enable-background="new 0 0 20.955 20.883" viewBox="0 0 20.955 20.883" xmlns="http://www.w3.org/2000/svg"><path d="m10.597 0c1.631 1.599 3.218 3.245 4.844 4.851-3.496 3.505-7.037 6.964-10.538 10.464-1.621-1.637-3.282-3.233-4.903-4.869 3.528-3.486 7.101-6.926 10.597-10.446z"/><path d="m12.375 9.342c1.245-1.284 2.543-2.513 3.812-3.773.011 1.258-.004 2.517-.011 3.776-1.267.006-2.534.01-3.801-.003z"/><path d="m17.226 6.655c1.262 1.245 2.489 2.526 3.729 3.795-1.259 1.264-2.495 2.551-3.763 3.806 0-2.534.039-5.066.034-7.601z"/><path d="m11.236 10.465c1.641-.006 3.282-.002 4.923-.005-.009 1.521-.011 3.042-.022 4.562-.008.162.012.357-.141.462-1.844 1.778-3.65 3.594-5.47 5.398-1.614-1.642-3.265-3.246-4.904-4.863 1.88-1.843 3.745-3.7 5.614-5.554z"/></svg>