<svg enable-background="new 0 0 192.561 192.356" viewBox="0 0 192.561 192.356" xmlns="http://www.w3.org/2000/svg"><g clip-rule="evenodd" fill-rule="evenodd"><path d="m95.919 0c.476.115 1.31 1 1.757 1.445 1.582 1.584 3.17 3.213 4.752 4.65 5.713 5.647 11.815 11.764 17.664 17.613.344.342 1.08.91 1.086 1.238.008.623-1.31 1.189-1.498 1.705-6.13 6.209-12.254 12.408-18.44 18.596-4.105 4.105-8.13 8.283-12.19 12.5-6.035 6.266-12.445 12.223-18.439 18.594.266.555.766.975 1.188 1.395 2.95 2.951 5.971 6.023 9.091 8.885 1.276-.826 2.21-2.059 3.306-3.1 3.246-3.08 6.309-6.412 9.504-9.605 4.242-4.242 8.324-8.635 12.603-12.914 6.305-6.305 12.636-12.791 19.061-19.215 1.543-1.543 3.154-3.154 4.803-4.805.424-.422 1.326-1.479 1.653-1.498.387-.022 1.45 1.193 1.704 1.447.527.527 1.085 1.109 1.498 1.652.95 1.25 2.174 2.174 3.151 3.15 3.243 3.244 6.19 6.242 9.401 9.453 2.617 2.619 5.078 5.234 7.799 7.955.432.432 1.467 1.195 1.498 1.601.033.441-1.006 1.314-1.446 1.756-3.673 3.672-7.392 7.494-11.002 11.105-4.217 4.217-8.595 8.453-12.604 12.705-2.042 2.166-4.3 4.146-6.405 6.25-4.222 4.223-8.318 8.512-12.604 12.707-1.59 1.559-3.16 3.109-4.751 4.701-.521.52-1.163.975-1.498 1.652.694.994 1.581 1.787 2.428 2.635 2.081 2.082 4.103 4.051 6.302 6.25.359.359 1.027 1.084 1.395 1.084.495 0 1.258-1.051 1.704-1.498 1.58-1.58 3.14-3.17 4.753-4.699 6.445-6.119 12.865-12.723 19.111-18.75 7.855-7.984 15.653-15.705 23.656-23.709.391-.391 1.301-1.486 1.652-1.498.418-.014 1.369 1.213 1.654 1.498 7.344 7.344 14.494 14.443 21.849 21.797.267.268 1.472 1.199 1.497 1.602.019.283-.904 1.207-1.395 1.652-1.58 1.439-3.061 3.061-4.493 4.494-1.995 1.994-4.14 3.932-6.095 5.889-4.029 4.029-8 8.102-11.932 12.035-8.06 8.062-16.02 16.07-23.968 24.018-6.061 6.064-11.933 11.986-17.975 18.027-4.006 4.006-8.032 7.879-12.087 11.932-4.018 4.018-7.824 7.926-11.932 12.035-1.317 1.318-2.969 2.969-4.494 4.494-.412.412-1.221 1.424-1.549 1.447-.502.033-1.201-.988-1.55-1.344-1.01-1.029-1.899-2.002-2.841-2.943-.474-.475-.99-.91-1.344-1.551 1.362-2.977 2.662-5.961 3.977-8.936 1.308-2.961 2.842-5.814 3.978-8.885-.428-.064-.685.371-.93.619-3.502 3.574-7.096 7.098-10.692 10.693-.393.393-1.232 1.557-1.704 1.549-.38-.004-1.029-.887-1.344-1.188-.979-.936-1.58-1.58-2.531-2.531-.284-.285-1.175-.891-1.188-1.291-.012-.385 1.144-1.248 1.498-1.602 3.604-3.602 7.181-7.078 10.795-10.691 3.58-3.58 7.083-7.135 10.744-10.797.304-.303 1.181-1.434 1.602-1.445.559-.016 1.23 1.045 1.602 1.395.572.541 1.113 1.039 1.498 1.498.539.428 1.007.904 1.549 1.445.332.334 1.358 1.115 1.395 1.602.037.492-.735 1.785-.981 2.273-2.504 4.977-5.071 10.297-7.336 15.238.248.104.521-.178.672-.311 1.385-1.211 2.641-2.811 4.029-4.08 1.615-1.479 3.102-3.104 4.648-4.65 6.186-6.184 12.435-12.33 18.646-18.543 15.445-15.443 31.082-31 46.643-46.332 1.157-1.27 2.359-2.463 3.668-3.77.279-.279 1.122-.982 1.136-1.344.021-.568-1.312-1.518-1.757-1.963-1.246-1.246-2.286-2.584-3.563-3.771-1.88-1.744-3.774-3.67-5.579-5.475-1.242-1.242-2.439-2.527-3.77-3.564-1.224.869-2.203 2.049-3.254 3.1-5.244 5.244-10.66 10.494-15.807 15.91-2.051 2.158-4.299 4.143-6.404 6.25-4.227 4.227-8.523 8.385-12.707 12.654-2.084 2.127-4.193 4.252-6.353 6.301-2.164 2.055-4.118 4.318-6.404 6.25-1.008-.703-1.812-1.637-2.686-2.479-4.314-4.154-8.639-8.484-12.914-12.758-.852-.854-1.73-1.68-2.582-2.531-.846-.846-1.836-1.596-2.479-2.635 2.044-2.133 4.089-4.312 6.302-6.354 1.101-1.016 2.104-2.131 3.202-3.15 1.097-1.018 1.999-2.203 3.099-3.203 2.184-1.983 4.218-4.195 6.303-6.354 6.222-6.441 12.561-12.512 19.008-18.955 1.067-1.068 2.006-2.23 3.1-3.256 2.672-2.506 5.218-5.217 7.902-7.902.441-.441 1.434-1.307 1.445-1.703.011-.35-.504-.797-.773-1.086-.9-.965-1.965-1.797-2.738-2.789-2.74-2.766-5.549-5.439-8.161-8.367-.853-.957-1.751-1.916-2.789-2.686-.686.34-1.179.971-1.704 1.496-3.667 3.668-7.404 7.445-11.105 11.158-4.225 4.264-8.416 8.561-12.604 12.861-8.508 8.474-16.702 17.257-25.466 25.47-1.042-.646-1.834-1.627-2.686-2.48-2.537-2.535-5.133-5.115-7.697-7.695-2.992-2.809-6.002-5.898-9.039-8.936-.361-.361-1.174-.943-1.188-1.344-.016-.467 1.082-1.287 1.498-1.703 10.023-10.021 20.029-20.301 30.01-30.32 2.125-2.133 4.143-4.352 6.25-6.457 3.168-3.166 6.407-6.289 9.453-9.607 1.012-1.104 2.198-2.061 3.047-3.307-.402-.793-1.182-1.277-1.756-1.91-1.711-1.885-3.637-3.65-5.424-5.527-2.497-2.375-4.848-4.896-7.437-7.18-1.263.805-2.186 2.004-3.254 3.047-4.504 4.398-8.938 9.092-13.43 13.586-5.544 5.545-11.068 11.107-16.581 16.684-5.678 5.41-10.988 11.188-16.581 16.684-2.709 2.834-5.492 5.596-8.264 8.367-2.707 2.838-5.602 5.486-8.213 8.42.541.785 1.263 1.533 2.014 2.221 1.798 1.646 3.547 3.393 5.373 5.217.246.246.966.775.98 1.086.022.449-.756.963-1.033 1.238-.457.457-.722.799-1.136 1.137-.278.277-.683.682-1.137 1.137-.353.354-.808 1.051-1.188 1.084-.583.051-.7-.691-1.188-.93-1.001-1.064-2.097-2.035-3.047-3.15-1.116-1.096-1.996-1.943-3.151-3.1-.271-.269-.788-.961-1.085-.98-.395-.027-.943.682-1.239.98-.839.848-1.304 1.305-2.169 2.17-.197.197-.983.832-.983 1.188 0 .365.609.793.93 1.086 1.057.961 2.057 2.107 2.996 3.047 1.416 1.414 2.705 2.676 3.926 4.133-.514 1.002-1.402 1.627-2.066 2.479-.242.348-.713.672-1.136 1.137-.229.25-.735 1.059-1.137 1.084-.38.025-.814-.576-1.136-.93-.393-.432-.772-.684-1.085-.98-1.794-1.697-3.259-3.434-5.165-5.166-.312-.283-.738-.93-1.085-.93-.397 0-1.239 1.033-1.601 1.395-1.5 1.502-3.024 2.928-4.339 4.598.547.844 1.316 1.521 2.015 2.221 2.071 2.072 4.339 4.051 6.302 6.303-.594.859-1.385 1.443-2.221 2.221-.32.297-.741.713-1.137 1.084-.243.229-.899.965-1.188.98-.521.033-1.503-1.244-1.809-1.549-.629-.629-1.147-1.102-1.756-1.602-3.224-3.492-6.87-6.561-10.07-10.076.711-1.232 1.885-2.143 2.892-3.15 1.01-1.01 1.996-2.025 3.047-2.996 2.078-1.916 3.89-4.146 5.889-6.146 12.014-12.016 23.951-24.211 36.002-36.26 4.021-4.02 7.963-8.119 11.983-12.139 4.011-4.01 8.003-8.047 11.932-12.139 7.859-8.184 16.165-15.932 24.019-24.122.038-.048.093-.078.155-.103z"/><path d="m43.232 90.908c.566.092 1.22.969 1.705 1.447 1.563 1.535 3.116 3.174 4.442 4.803-1.28 3.004-2.6 5.889-4.028 8.73-1.42 2.822-2.918 5.629-4.081 8.678.538-.104.96-.6 1.343-.982 1.926-1.926 4.021-3.918 5.992-5.889.807-.807 1.728-1.531 2.428-2.324.475-.539.967-1.174 1.549-1.756.193-.193 1.41-1.537 1.756-1.549.387-.014 1.08.846 1.395 1.135 1.324 1.223 2.514 2.473 3.72 3.721-.796 1.252-2.078 2.018-2.996 3.15-3.636 3.525-7.162 7.162-10.743 10.744-2.684 2.682-5.41 5.305-8.109 8.006-.892.891-1.754 1.84-2.79 2.582-1.028-.826-2.013-1.805-2.944-2.789-.919-.973-1.863-1.934-2.685-2.996 2.533-6.109 5.465-11.82 7.955-17.975-.406-.029-.688.377-.93.619-1.875 1.875-3.818 3.869-5.734 5.785-2.199 2.199-4.338 4.484-6.611 6.561-1.418-.996-2.481-2.404-3.873-3.668-.319-.289-1.162-.865-1.19-1.291-.022-.371.994-1.305 1.395-1.705 5.598-5.598 11.281-11.23 16.84-16.787.979-.979 2.02-2.037 2.996-3.1 1.025-1.119 2.167-2.216 3.198-3.15z"/><path d="m64.772 112.24c.414.1 1.382 1.072 1.859 1.551 2.769 2.77 5.692 5.355 8.007 8.521 1.085 1.486 2.262 3.207 2.066 5.787-.174 2.287-1.601 3.98-2.996 5.268-1.438 1.328-2.967 2.805-5.269 2.996-1.746.145-2.789-.635-4.235-1.187-.06.453.356.73.568 1.033.706 1 1.169 2.65.517 4.131-.861 1.955-2.781 3.592-4.442 5.217-1.661 1.627-3.556 3.145-4.493 5.113-.199.418-.198.902-.518 1.293-.566-.123-.936-.658-1.342-1.086-.836-.877-1.673-1.5-2.531-2.531-.326-.389-1.08-.955-1.137-1.395-.058-.445.328-1.115.517-1.498.235-.477.424-.984.671-1.342.346-.5 1.039-.935 1.602-1.498 1.012-1.012 1.986-2.076 3.048-3.1.66-.637 1.349-1.209 1.652-2.014.89-2.354-.881-4.947-2.272-5.992-1.906 1.443-3.426 3.373-5.217 5.166-1.258 1.258-2.528 2.527-3.874 3.873-.308.307-1.079 1.176-1.395 1.188-.356.014-1.079-.795-1.396-1.084-.977-.895-1.57-1.48-2.53-2.377-.282-.262-1.116-.918-1.136-1.291-.023-.412.993-1.252 1.395-1.652 1.503-1.504 3.099-3.15 4.545-4.598 6.059-6.057 12.17-12.525 18.182-18.389.037-.046.093-.077.154-.103zm1.447 8.938c-1.15.836-1.912 1.912-3.203 3.201-.49.492-.984.986-1.601 1.602-.435.436-1.581 1.199-1.55 1.705.028.471 1.012 1.025 1.24 1.187.998.713 2.357 1.533 3.977 1.137 1.186-.289 2.652-1.527 3.307-2.582.941-1.52.403-3.426-.414-4.701-.354-.551-.99-1.457-1.549-1.652-.063.028-.196.093-.207.103z"/><path d="m75.258 141.941c2.941-2.465 4.994-6.168 9.918-6.508 3.399-.234 5.908 1.467 7.645 3.047.629.572 1.039 1.305 1.549 2.014 1.028 1.434 1.804 2.979 2.015 5.115.204 2.059-.479 4.023-1.395 5.578-.822 1.398-2.042 2.559-3.306 3.822-1.207 1.207-2.428 2.428-3.565 3.564-2.429 2.428-4.655 5.023-7.18 7.023-1.453 1.152-2.766 1.934-4.855 2.274-2.145.348-4.186-.195-5.785-1.137-2.754-1.621-5.586-4.314-6.301-7.902-.895-4.49 1.964-7.805 4.08-9.865 2.45-2.386 4.641-4.591 7.18-7.025zm8.367 2.17c-3.337 3.078-6.178 5.973-9.4 9.193-.594.594-1.264 1.16-1.911 1.809-.935.936-1.897 1.58-1.756 3.201.144 1.658 1.981 3.602 4.132 2.842.699-.246 1.447-1.033 2.066-1.652 2.029-2.029 3.646-3.596 5.682-5.631 1.885-1.885 3.662-3.766 5.578-5.682.63-.629 1.535-1.301 1.756-2.014.672-2.164-1.539-4.287-3.563-3.979-1.232.161-1.756 1.15-2.584 1.913z"/></g></svg>