<svg enable-background="new 0 0 80.87 55.72" viewBox="0 0 80.87 55.72" xmlns="http://www.w3.org/2000/svg"><g clip-rule="evenodd" fill-rule="evenodd"><path d="m23.43.081c3.059-.073 5.993.889 8.342 1.933.658.292 2.088.77 2.136 1.271.04.413-.664.758-.814.864-1.966 1.393-3.479 3.172-4.781 5.239-.127.201-.448.847-.712.916-.41.106-1.257-.302-1.628-.407-1.525-.436-3.816-.527-5.494-.305-2.078.275-4.14 1.245-5.697 2.391-3.016 2.219-5.346 5.513-5.544 10.631-.054 1.397.051 2.904.051 4.323 0 6.564.051 13.861.051 21.059 0 1.617.15 2.979-.153 4.12-.54 2.036-2.568 4.066-5.392 3.51-1.163-.229-2.529-1.048-3.103-2.086-.537-.971-.581-2.661-.61-4.222-.091-4.876.038-9.813-.051-14.293-.073-3.684 0-6.41 0-9.563 0-3.191 0-6.222.661-8.901 1.205-4.886 4.36-9.038 7.833-11.751 1.847-1.441 3.951-2.563 6.307-3.458 2.472-.939 5.366-1.272 8.495-1.271.036 0 .07 0 .103 0z"/><path d="m28.161 33.092c-1.03-1.378-1.67-3.13-2.137-5.035-.94-3.839-.914-8.832.357-12.462.317-.907.672-1.737 1.017-2.543 2.374-5.545 7.108-9.747 13.225-11.802 1.85-.62 3.713-1.067 6.104-1.221 1.782-.114 3.74.114 5.392.458 4.839 1.008 8.503 3.111 11.394 6.002 1.91 1.91 3.615 3.995 4.833 6.816.797 1.849 1.679 4.218 1.882 6.816.072.923.193 1.905.102 2.797-.168 1.639-1.292 3.239-2.797 3.866-3.132 1.303-6.008-.758-6.46-3.459-.159-.949-.084-1.802-.204-2.595-.79-5.238-4.271-9.134-8.901-10.63-2.777-.897-6.438-.818-9.003.203-.692.275-1.464.745-2.136 1.17-1.997 1.26-3.447 2.979-4.68 5.087-.485 1.095-.901 2.157-1.17 3.459-.276 1.333-.146 2.751-.356 4.222-.368 2.567-1.651 4.72-3.001 6.205-.927 1.112-1.971 2.102-3.461 2.646z"/><path d="m42.251 12.035c.01-.058.051-.028.051 0 .529.24 1.028 1.608 1.272 2.288.868 2.424 1.58 5.679 1.628 8.649.033 2.05-.474 4.233-1.018 5.899-.291.891-.562 1.746-.916 2.544-.369.835-.642 1.69-1.017 2.441-.397.795-1.042 1.65-1.628 2.441-.556.751-1.299 1.503-1.933 2.137-2.72 2.72-6.042 4.555-10.427 5.849-1.838.543-5.11.985-7.172.458-.011-.002-.11-.034-.153-.05-1.85-.7-3.163-2.386-2.899-5.24.531-2.194 1.744-3.396 3.815-3.764 1.221-.217 2.314-.175 3.306-.355 4.801-.877 8.176-4.198 9.868-8.292.363-.879.638-1.811.763-2.849.122-1.012.013-2.117.204-3.407.395-2.662 1.59-4.708 3.154-6.409.854-.93 2.006-1.904 3.102-2.34z"/><path d="m42.861 34.72c1.06.165 2.532.745 3.815.814 4.098.219 8.647.05 13.225.051 2.92 0 5.986.048 8.851-.051 1.401-.049 3.027.064 4.527 0 3.81-.166 6.291.192 7.274 2.95 1.166 3.27-1.038 6.143-4.069 6.409-1.73.152-3.596.085-5.392 0-1.774-.085-3.624.051-5.392.051-3.54 0-6.972-.001-10.529 0-3.671 0-7.37.181-10.58-.254-1.585-.216-3.018-.668-4.324-1.171-1.328-.51-2.674-.946-3.611-1.831.03-.426.484-.656.763-.864 2.092-1.561 3.97-3.529 5.29-5.951.028-.073.079-.124.152-.153z"/></g></svg>