<svg enable-background="new 0 0 77.197 29.927" viewBox="0 0 77.197 29.927" xmlns="http://www.w3.org/2000/svg"><g clip-rule="evenodd" fill-rule="evenodd"><path d="m36.519.111c.257 4.526.151 9.577.152 14.678v7.593c0 2.504.167 4.993-.101 7.339-8.187.187-17.093.247-25.409.051-.168-5.934-.168-12.589 0-18.575 4.483-.169 9.688-.169 14.223 0 .135 2.237.22 5.241 0 7.339-2.314.305-4.901-.17-7.086.202-.14.944-.201 2.434-.051 3.341.831.224 1.78.235 2.733.202 2.688-.093 5.775.066 8.503-.151.274-1.11.152-2.352.152-3.594 0-2.446 0-4.994 0-7.491 0-1.224.118-2.446-.152-3.543-3.661-.168-7.463-.101-11.237-.101-3.726-.001-7.49-.016-11.033.15-.27.861-.152 1.825-.152 2.732 0 6.557.108 13.148-.05 19.487-2.064.168-4.82.168-6.884 0-.185-4.847-.101-9.941-.101-14.982 0-5.019-.103-10.002.101-14.628 4.806-.183 9.762-.102 14.729-.1 7.357.001 14.722-.089 21.663.051z"/><path d="m77.062.111c.156 9.972.183 19.872.051 29.559-1.466.271-2.997.152-4.505.152-4.442 0-9.134.05-13.768.051-3.107 0-6.248.122-9.313 0-3.028-.121-6.028.077-8.908-.152-.185-7.196-.101-14.879-.101-22.321 0-2.474-.104-4.91.101-7.238 2.045-.168 4.788-.167 6.833 0 .387 7.178-.064 14.902.253 22.17.868.275 1.819.152 2.733.152 6.486 0 13.03.068 19.537-.051.262-.509.203-1.135.203-1.722 0-1.845 0-3.86 0-5.77 0-2.531.062-4.995-.152-7.187-3.494-.213-7.594-.139-11.186 0-.298.835-.133 2.393-.101 3.392 1.014.305 2.321.202 3.594.202 1.262 0 2.533-.148 3.594.051.102 2.26.293 5.184 0 7.339-4.358.236-9.663.219-14.223.051-.241-5.902-.216-12.648-.05-18.677 8.317-.021 17.056-.24 25.408-.001z"/></g></svg>