<svg enable-background="new 0 0 192.756 190.249" viewBox="0 0 192.756 190.249" xmlns="http://www.w3.org/2000/svg"><g clip-rule="evenodd" fill-rule="evenodd"><path d="m27.747 162.043c-9.051-9-16.354-19.6-21.436-32.489-1.271-3.224-2.458-6.502-3.357-10.124-.293-1.183-.496-2.414-.774-3.668-2.146-9.636-2.861-21.817-1.446-32.851.686-5.343 1.636-10.314 3.047-14.928 4.239-13.853 10.825-24.886 19.214-34.658 2.764-3.219 5.728-6.312 8.937-9.04 3.241-2.756 6.511-5.466 10.072-7.851 3.599-2.41 7.366-4.602 11.363-6.611 4.019-2.021 8.341-3.613 12.81-5.114 7.945-2.667 16.807-4.119 26.859-4.597 11.311-.539 22.016.904 30.682 3.616 11.555 3.615 21.366 8.55 30.062 14.876 5.746 4.18 10.856 9.112 15.65 14.308.596.645 1.074 1.415 1.653 2.118 3.903 4.742 7.524 9.944 10.537 15.599 5.191 9.746 9.046 20.744 10.641 34.246.273 2.312.409 4.695.465 7.025.173 7.163-.425 14.204-1.55 20.609-1.104 6.283-2.941 12.064-5.062 17.407-.701 1.766-1.453 3.534-2.272 5.165-1.715 3.411-3.344 6.677-5.27 9.71-.969 1.526-1.978 3.025-2.996 4.494-1.014 1.462-2.18 2.802-3.254 4.236-.556.743-1.021 1.487-1.602 2.169-3.988 4.704-8.426 8.903-13.273 12.862-8.271 6.753-17.777 12.227-28.822 16.116-7.369 2.594-15.581 4.233-24.794 5.113-2.341.224-4.7.414-7.076.414-1.214 0-2.448.125-3.667 0-1.156-.118-2.342-.153-3.514-.207-4.582-.208-8.967-.981-13.171-1.808-8.378-1.648-15.64-4.263-22.417-7.49-3.396-1.617-6.533-3.452-9.557-5.423-6.042-3.942-11.528-8.056-16.682-13.224zm112.965-143.13c-2.92-1.637-5.965-3.243-9.246-4.597-3.23-1.333-6.529-2.752-10.072-3.771-3.541-1.018-7.368-1.863-11.415-2.427-4.056-.565-8.389-1.054-12.913-.93-6.257.172-11.87.588-17.149 1.498-12.994 2.24-24.087 7.352-33.265 13.43-1.854 1.228-3.577 2.599-5.372 3.977-7.115 5.467-13.124 11.755-18.336 19.008-5.236 7.287-9.267 15.588-12.294 25.104-2.96 9.305-4.284 21.341-3.202 33.316 1.014 11.225 4.146 20.892 8.161 29.184 6.765 13.975 16.725 25.505 29.028 33.988.479.331.879.716 1.344 1.033 5.56 3.802 11.666 6.996 18.491 9.504 9.129 3.355 19.464 5.68 31.663 5.682 6.114.001 11.563-.796 16.941-1.756 10.541-1.881 19.411-5.439 27.48-9.866 12.012-6.59 21.805-15.66 29.441-26.602 2.546-3.646 4.777-7.667 6.87-11.828 2.085-4.146 3.809-8.661 5.217-13.43 2.138-7.238 3.46-15.401 3.46-24.535.002-9.26-1.445-17.364-3.564-24.483-2.902-9.755-7.106-17.655-12.138-25.258-7.661-10.611-17.232-19.569-29.13-26.241z"/><path d="m78.883 48.82c-.295 7.689.037 16.108-.311 23.709-2.26.173-5.229.169-7.489 0-.308-1.125-.103-2.316-.103-3.46 0-15.624.206-30.972.206-46.488 0-1.804-.001-3.653-.052-5.268-.016-.486-.118-1.131.31-1.498 4.373-.015 9.325-.145 13.791.051 4.74.208 9.144-.283 13.43.052 8.166.639 13.226 5.405 14.359 12.965.676 4.508-.182 8.471-1.756 11.519-1.551 3.002-3.748 5.341-6.922 6.767-3.355 1.506-7.418 1.549-12.035 1.549-4.416-.001-8.986-.029-13.428.102zm4.701-6.611c4.688 0 9.981.402 13.998-.414 2.585-.525 4.901-1.621 6.198-3.46 1.285-1.824 1.984-4.84 1.55-7.955-.422-3.026-1.879-5.399-4.391-6.612-1.854-.895-4.365-1.068-7.076-1.188-4.806-.211-9.976.069-14.825.104-.268.73-.15 1.547-.154 2.324-.023 4.13-.052 8.167-.052 12.19 0 1.646-.224 3.291.104 4.855 1.492.279 3.088.156 4.648.156z"/><path d="m71.032 133.685c-.262-16.458 0-33.912 0-50.051 0-1.349.053-3.635.052-5.372 0-.894-.138-1.303.672-1.394 1.565-.177 3.286 0 4.907 0 4.809 0 9.746.052 14.359.052 3.525 0 6.649-.099 9.504.31 8.378 1.201 13.793 5.881 17.148 12.293 2.314 4.423 3.269 9.787 3.203 16.271-.062 6.015-1.726 11.591-3.926 15.702-2.358 4.407-5.493 7.569-9.814 9.814-2.171 1.128-4.753 1.932-7.541 2.273-2.871.351-5.988.31-9.4.31-6.507-.001-12.955.027-19.164-.208zm21.901-6.353c4.603-.001 8.112-.715 11.054-2.634 2.732-1.782 4.677-4.354 6.095-7.593 1.376-3.144 2.222-7.206 2.222-11.519 0-8.904-2.368-16.058-7.955-19.473-3.014-1.842-6.629-2.484-11.157-2.531-4.483-.046-8.638.102-13.326 0-.062.025-.117.055-.155.104-.294.27-.258 1.661-.258 2.531 0 6.382-.053 13.181-.052 19.163 0 7.552-.155 14.963.103 21.797 4.457.288 9.073.156 13.429.155z"/><path d="m171.135 133.737c-.489.425-1.295.258-2.015.258-2.093 0-4.606.073-6.56-.103-.084.014-.089-.049-.155-.052-.81-1.538-.774-3.561-.878-5.579-.103-2.001-.164-4.111-.258-6.146-.199-4.267-.184-7.988-2.48-10.331-2.252-2.298-6.176-2.118-10.64-2.118-3.122 0-6.249-.051-9.35-.052-1.036 0-2.079-.11-3.048.155-.182 3.851-.154 7.947-.154 11.88 0 4.063.125 8.209-.154 12.139-2.002.152-4.794.218-6.716-.052-.212-18.247-.002-36.459 0-55.061.001-.531-.114-1.111.155-1.602 5.815-.099 12.023 0 18.026 0 3.093.001 6.038-.097 8.729.207 8.074.91 12.764 4.974 13.533 13.274.542 5.843-1.178 10.419-4.287 13.378-.36.27-.804.619-1.344 1.033-.286.22-1.3.716-1.291 1.085.006.264.76.622 1.189.878 1.315.788 2.331 1.655 3.151 2.996 1.992 3.26 1.57 9.402 1.807 14.411.126 2.652.222 5.294 1.24 6.921.578.921 1.594 1.216 1.5 2.481zm-30.165-30.527c3.575.001 7.364 0 10.847 0 5.242.001 8.814-2.087 9.865-6.405.697-2.859.43-6.779-.93-9.246-.817-1.483-2.207-2.612-3.873-3.202-1.758-.621-3.948-.62-6.509-.62-4.729 0-9.929-.041-14.411 0-.363.648-.207 1.471-.207 2.221 0 5.581-.186 11.688 0 17.045 1.653.265 3.419.207 5.218.207z"/></g></svg>