<svg clip-rule="evenodd" fill-rule="evenodd" stroke-linejoin="round" stroke-miterlimit="2" viewBox="0 0 560 400" xmlns="http://www.w3.org/2000/svg"><path d="m642 199.062c0 125.791-128.657 227.72-287.423 227.72h-34.797l37.365-102.506c118.962-8.66 178.54-160.687 80.699-221.626l-37.557 103.02c-2.568 7.12-8.218 12.7-15.28 15.266-17.552 6.389-80.77 1.09-87.633-2.18-5.258-2.451-7.6-8.455-6.034-13.472l47.058-129.19c-34.86 4.746-66.254 20.077-91.1 42.657-21.828 18.795-37.878 50.74-37.878 85.379 0 38.68 19.004 72.87 48.215 93.718l-81.085 222.542h-176.55l189.563-520.387h221.06c127.822 0 231.377 89.112 231.377 199.06" fill-rule="nonzero" transform="matrix(.384329 0 0 .384329 156.63 99.9988)"/></svg>