<svg clip-rule="evenodd" fill-rule="evenodd" stroke-linejoin="round" stroke-miterlimit="2" viewBox="0 0 560 400" xmlns="http://www.w3.org/2000/svg"><path d="m261.932 344.563c-21.105 23.974-52.088 39.101-86.599 39.101-10.852.003-21.65-1.529-32.073-4.55v-53.396c10.905 4.294 22.836 6.666 35.28 6.666 35.666 0 66.778-19.422 83.392-48.267v-45.64c-27.904 25.512-65.045 41.025-105.843 41.025-4.297 0-8.595-.193-12.829-.577v-51.088c3.201.256 6.411.385 9.622.385 44.39 0 83.904-20.961 109.05-53.588v-51.664c-23.67 31.794-61.581 52.37-104.239 52.37-4.875 0-9.686-.256-14.433-.769v-50.639c1.604.064 3.207.128 4.811.128 62.864 0 113.86-50.96 113.86-113.777v-9.616h-261v641h261v-297.104zm51-343.896v9.615c0 62.82 50.996 113.782 113.86 113.782 1.604 0 3.207-.064 4.81-.128v50.64c-4.746.514-9.557.77-14.432.77-42.658 0-80.568-20.577-104.238-52.372v51.667c25.145 32.628 64.66 53.59 109.049 53.59 3.207 0 6.415-.128 9.622-.385v51.09c-4.234.385-8.532.577-12.83.577-40.797 0-77.938-15.513-105.841-41.026v45.641c16.613 28.846 47.725 48.27 83.39 48.27 12.445 0 24.376-2.372 35.28-6.667v53.397c-10.423 3.022-21.22 4.554-32.072 4.551-34.511 0-65.494-15.128-86.598-39.102v156.09h87.002c96.091 0 173.998-77.846 173.998-173.879v-152.243c0-96.032-77.907-173.878-173.998-173.878z" fill-rule="nonzero" transform="matrix(.421217 0 0 .421217 158.929 64.719)"/></svg>