<svg enable-background="new 0 0 66.217 76.402" viewBox="0 0 66.217 76.402" xmlns="http://www.w3.org/2000/svg"><g clip-rule="evenodd" fill-rule="evenodd"><path d="m33.145 9.346c.608-.277.802-.952 1.136-1.42 2.431-3.411 5.725-5.994 10.366-7.289 2.833-.791 6.447-.523 8.898.237 2.71.84 4.746 1.936 6.532 3.55 3.402 3.073 6.389 7.376 6.106 14.105-.136 3.229.009 6.727-.047 9.939-.112 6.312.174 13.268.047 19.69-.065 3.319-.047 6.683-.047 10.035 0 1.795-.066 3.269-.426 4.639-1.69 6.425-6.082 10.952-12.354 12.874-2.561.785-6.032.963-8.899.237-2.491-.631-4.851-1.984-6.674-3.408-1.28-.999-2.602-2.42-3.644-3.929-.233-.337-.739-1.379-1.136-1.373-.314.006-.615.599-.852.994-.67 1.12-1.652 2.191-2.508 3.029-1.245 1.218-2.79 2.326-4.308 3.077-1.599.791-3.442 1.591-5.538 1.846-2.039.248-4.551.092-6.627-.426-5.21-1.301-9.087-4.495-11.17-9.135-.897-1.998-1.864-4.488-1.94-7.242-.135-4.839-.001-9.806 0-14.768 0-7.388-.001-14.705 0-22.104 0-2.496-.185-5.004.095-7.289.253-2.075 1.059-3.92 1.751-5.633.685-1.695 1.98-3.038 3.077-4.26 2.72-2.751 6.52-5.057 11.691-5.301 6.273-.296 10.62 2.595 13.632 5.727.531.544.982 1.156 1.42 1.799.428.631.807 1.349 1.419 1.799zm-22.53-3.172c-1.729 1.048-3.27 2.459-4.354 4.071-1.117 1.659-2.064 3.489-2.273 6.106-.205 2.575-.047 5.349-.047 8.378v33.654c0 2.73.628 4.852 1.656 6.721 1.963 3.567 5.224 6.237 9.94 6.863 2.58.343 5.133-.012 7.195-.946 3.779-1.712 6.564-4.859 7.668-9.136.591-2.287.587-5.033.521-7.81-.031-1.298.045-2.695.047-4.071.003-1.28-.183-2.795.047-3.976.205-1.053 1.115-1.81 1.94-1.893 1.169-.118 2.009 1.01 2.177 1.846.16.79.048 1.761.048 2.65 0 2.8-.047 5.427-.048 8.141 0 4.12.542 6.328 2.083 8.851 2.045 3.35 5.218 5.948 9.845 6.485 5.351.621 9.312-1.933 11.644-4.639 1.708-1.982 3.012-4.376 3.313-7.621.318-3.432.142-7.031.142-10.744 0-8.838 0-18.341 0-27.169 0-1.79.11-3.583 0-5.301-.098-1.533-.606-3.003-1.183-4.26-1.677-3.65-4.672-6.447-8.804-7.573-3.019-.823-6.618-.394-9.135.805-2.39 1.137-4.423 3.18-5.68 5.253-1.489 2.457-2.13 4.939-2.13 8.804 0 1.794.047 3.629.047 5.396 0 2.602.407 6.12-1.325 7.053-1.422.766-2.691-.457-2.934-1.657-.15-.742-.047-1.638-.047-2.461 0-.86 0-1.716 0-2.509 0-3.334.372-6.935-.095-9.751-.233-1.408-.732-2.556-1.278-3.787-1.893-4.263-6.585-7.811-12.449-7.715-2.588.043-4.759.869-6.531 1.942z"/><path d="m16.39 8.067c3.261-.3 6.058.994 7.81 2.746 1.79 1.79 3.018 3.965 3.171 7.336.074 1.637-.095 3.404-.095 5.159 0 1.775.074 3.592 0 5.159-.165 3.484.745 5.876 3.313 7.1 3.042 1.45 6.051-.157 7.289-2.13.729-1.161.967-2.451 1.041-4.212.209-4.953-.646-11.096.757-14.815.971-2.571 2.689-4.36 5.065-5.443 2.671-1.218 6.14-.955 8.52.331 2.347 1.269 4.05 3.281 4.781 5.727.415 1.392.331 3.124.331 4.923v26.08c0 3.484.097 7.013-.047 10.177-.083 1.826.121 3.395-.237 4.828-.33 1.32-.959 2.554-1.751 3.502-1.567 1.878-3.531 3.567-6.58 3.929-3.536.419-6.075-1.012-7.81-2.556-.858-.764-1.571-1.977-2.13-3.124-.594-1.219-.872-2.619-.994-4.26-.123-1.651 0-3.373 0-5.064 0-3.201.618-7.428-.521-9.798-1.002-2.086-3.753-4.022-6.91-3.077-1.28.383-2.39 1.341-3.03 2.225-1.455 2.012-1.118 6.115-1.136 9.372-.02 3.624.259 7.244-.663 9.751-.938 2.553-2.728 4.452-4.97 5.538-1.349.653-2.6.974-4.26.947-4.692-.075-7.905-3.023-9.23-6.532-.919-2.435-.521-6.761-.521-9.987 0-10.453.001-21.066 0-31.524 0-1.858-.086-3.563.284-4.97.348-1.322 1.001-2.514 1.751-3.503 1.496-1.968 3.809-3.562 6.772-3.835zm8.33 27.596c-.585-.92-.999-1.969-1.278-3.266-.53-2.463-.237-5.679-.237-8.709 0-2.69.405-6.206-.615-8.236-.955-1.899-2.815-3.426-5.917-3.124-2.458.24-4.517 2.447-4.922 4.828-.133.776-.12 1.742-.095 2.651.073 2.619.047 5.45.047 7.999 0 9.288-.046 17.662-.047 26.933 0 1.918-.149 3.82.237 5.301.436 1.672 1.701 2.945 3.077 3.597 1.622.769 3.867.71 5.349-.237 1.607-1.026 2.671-2.727 2.793-5.112.123-2.418.047-5.031.047-7.857 0-2.459-.129-5.332.521-7.384.462-1.459 1.276-2.769 2.177-3.739.309-.333.725-.634.852-1.136-.662-.901-1.411-1.601-1.989-2.509zm18.508-19.076c-.433 1.594-.331 3.547-.331 5.349-.001 1.853.083 3.821 0 5.585-.085 1.805-.008 3.837-.379 5.301-.364 1.435-1.019 2.583-1.799 3.881-.349.581-1.254 1.029-1.231 1.562.016.361.462.648.615.805.267.273.523.572.662.805 1.544 2.57 2.248 4.581 2.083 8.709-.065 1.621-.047 3.52-.047 5.396 0 1.781-.182 3.697.095 5.349.443 2.645 2.827 5.167 6.011 4.875 2.986-.273 5.044-2.553 5.349-5.538.169-1.659.107-3.464.047-5.206-.061-1.754.047-3.463.047-5.112 0-8.985 0-17.818 0-27.122 0-1.792.133-3.846-.331-5.159-.788-2.231-3.04-3.987-6.059-3.692-.03.003-.05.047-.047.047-2.159.249-4.063 1.876-4.685 4.165z"/></g></svg>