<svg enable-background="new 0 0 53.049 77.494" viewBox="0 0 53.049 77.494" xmlns="http://www.w3.org/2000/svg"><g clip-rule="evenodd" fill-rule="evenodd"><path d="m19.515.116c.101 25.115.195 51.65-.048 77.139-.043.021-.086.043-.096.096-6.347.043-13.198.166-19.369-.096-.016-19.445.095-38.518.096-57.963 0-5.592-.16-11.443 0-17.008.021-.73-.032-1.516.193-2.217 5.969-.057 13.225-.137 19.224.049z"/><path d="m37.872 28.977c-.115 1.049-.619 2.014-.963 2.986-1.019 2.881-2.213 5.783-3.325 8.674-2.97 7.725-5.797 15.502-8.865 23.223-1.527 3.842-2.777 7.793-4.529 11.516-.264-.918-.144-1.91-.144-2.844 0-13.463 0-27.275 0-41.002 0-.887-.094-1.828.193-2.65 5.506-.012 12.103-.206 17.633.097z"/><path d="m38.547 29.266h.096c.572 1.35.842 2.748 1.156 4.191.202.928.587 1.809.867 2.746 3.523 11.797 7.247 23.752 10.793 35.606.548 1.832 1.225 3.648 1.59 5.541-.756.25-1.603.098-2.408.098-5.897 0-12.061.053-18.213-.049-.641-1.416-.947-2.943-1.397-4.434-1.32-4.361-2.882-8.777-4.047-13.346.781-2.576 1.879-5.057 2.794-7.613.904-2.521 1.874-5.039 2.843-7.564 1.659-4.32 3.394-8.756 5.011-13.201.225-.619.524-1.328.771-1.83.026-.071.074-.12.144-.145z"/></g></svg>