<svg enable-background="new 0 0 172.112 174.524" viewBox="0 0 172.112 174.524" xmlns="http://www.w3.org/2000/svg"><path clip-rule="evenodd" d="m122.078.139c.01.04.05.049.049.099.179 16.652.149 32.785.148 49.427 0 16.071.119 33.02.099 49.871-.102.014-.046.184-.148.198-11.886.187-24.283.098-36.588.099-4.082 0-8.136-.117-12.098.148-.19.208-.136.433-.148.741-.158 4.067 0 8.153 0 12.196 0 12.085.045 23.989.099 36.44.015.101.134.097.148.197 24.619.12 49.628.021 73.868 0 .001-.048.061-.038.099-.049.267-.708.148-1.494.148-2.222-.001-10.116-.048-20.547-.049-30.663-.003-38.414-.131-77.677-.099-116.283-.02-.103.034-.131.05-.198 7.71-.197 16.01-.099 23.849-.049.191-.043.175.121.296.148.14 44.266.249 85.983.247 130.306-.001 14.552.146 28.822 0 43.304.036.135-.098.1-.099.198-40.784.101-82.091.146-122.604 0-.022-.044-.043-.088-.099-.099-.168-33.359-.189-65.344-.148-98.507.624-.31 2.15-.083 3.209-.099 15.229-.219 30.857.189 45.526-.099.04-.009.049-.05.099-.049.214-16.446.004-33.804 0-50.365-.383-.478-1.629-.296-2.716-.296-17.409 0-34.675-.001-52.043 0-6.202 0-12.541-.023-18.566.049-.022.043-.044.088-.099.099-.131 50.655.251 99.551.049 149.662-.179.122-.438.138-.741.148-3.708.123-7.724-.129-11.752-.049-3.98.079-7.968.084-11.703 0-.108-.106-.188-.24-.148-.494-.026-57.948-.282-116.556-.195-173.71-.014-.08.047-.085.05-.148 27.126-.203 55.54 0 82.657 0 6.727 0 13.353-.014 19.899-.049 6.236-.034 13.226.062 19.454.098z" fill-rule="evenodd"/></svg>