<svg enable-background="new 0 0 74.074 55.391" viewBox="0 0 74.074 55.391" xmlns="http://www.w3.org/2000/svg"><g clip-rule="evenodd" fill-rule="evenodd"><path d="m37.88 0h.096c2.966 1.471 5.692 3.348 8.548 5.022 7.837 4.595 15.686 9.078 23.518 13.763.679.406 1.458.775 1.98 1.4-.713.258-1.522.144-2.27.144-3.87 0-7.92.002-11.783 0-1.409 0-3.355.322-4.636 0-.653-.162-1.368-.764-2.028-1.158-.675-.404-1.369-.809-1.98-1.158-1.455-.836-2.781-1.488-4.008-2.27-.322-.205-.595-.482-.917-.678-1.601-.967-3.335-1.914-4.974-2.897-.642-.385-1.369-.721-1.835-1.305-.15-2.557.015-5.564 0-8.209-.004-.734-.155-2.18.145-2.559.034-.042.087-.072.144-.095z"/><path d="m36.576.049c.042-.01.046.018.048.049.414.185.288.752.29 1.109.012 2.264 0 4.568 0 6.955 0 .785.13 2.065-.097 2.656-.213.553-1.312 1.033-1.932 1.4-4.221 2.492-8.425 4.793-12.652 7.195-.696.395-1.472.705-1.98 1.303.101.512 1.353 1.012 2.028 1.4 4.277 2.471 8.314 4.859 12.556 7.438.29.176.653.408 1.062.627.355.191.895.529 1.11.531.505.008 1.166-.635 1.594-.869.593-.324 1.224-.467 1.497-.965-.25-.602-.936-.871-1.449-1.158-3.286-1.854-6.605-3.764-9.852-5.748-.502-.307-1.21-.475-1.497-1.062.542-.42 1.528-.242 2.415-.242 6.097.002 11.85.023 17.868.049 2.081 1.016 4.401 2.475 6.326 3.623 1.591.947 3.117 1.76 4.684 2.703.464.279 1.099.543 1.304 1.111-.531.691-1.412.93-2.125 1.352-.729.434-1.441.881-2.173 1.305-1.459.844-2.916 1.789-4.539 2.414-1.213-.332-1.954-1.137-3.042-1.594-2.446.033-5.003-.131-7.195.049-.318.523-.193 1.199-.193 1.787v3.863c0 .623.108 1.385-.048 1.883-.168.533-1.179 1.041-1.642 1.305-.534.301-1.326.914-1.98.916-.561.002-1.64-.789-2.27-1.158-4.33-2.531-8.467-5.088-12.942-7.631-.652-.369-1.83-.838-2.028-1.4-.214-.605-.048-1.68-.048-2.51 0-1.764 0-3.408 0-5.119 0-.85.115-1.701-.145-2.416-.932.018-1.542.66-2.27 1.064-1.458.809-2.853 1.557-4.394 2.461-.541.318-1.682 1.15-2.27 1.16-.663.01-1.938-.949-2.462-1.256-1.982-1.162-3.603-2.229-5.699-3.477-.378-.224-1.004-.531-1.014-.822-.014-.393 1.565-1.195 2.028-1.447.711-.389 1.604-.885 2.173-1.256 1.493-.975 2.997-1.693 4.395-2.512 7.345-4.295 14.631-8.383 21.973-12.555 1.458-.83 2.903-1.764 4.395-2.463.074-.035.147.008.192-.048z"/><path d="m73.954 20.959c.161 3.252.161 7.178 0 10.432-.786.213-1.823.186-2.704.191-3.274.024-6.803-.156-9.852.049-.388.625-.241 1.494-.241 2.318 0 2.455.04 5.248-.048 7.631-.73.885-1.84 1.307-2.801 1.883-3.853 2.312-7.867 4.568-11.832 6.857-1.944 1.121-3.906 2.281-5.892 3.477-.969.584-1.945 1.248-3.043 1.594-.206-.465-.191-1.041-.193-1.594-.012-3.668-.049-8.186.097-11.783 1.858-1.34 3.943-2.293 5.939-3.428.98-.559 1.928-1.201 2.897-1.787.97-.588 1.97-1.123 2.946-1.691 3.448-2.006 6.794-4.094 10.334-6.035.465-.256 1.022-.52 1.352-.967-.286-.559-.938-.873-1.448-1.158-3.779-2.119-7.559-4.477-11.397-6.568-7.566.016-15.102-.117-22.504 0 .134.588.971.854 1.545 1.16 1.729.922 3.472 2.09 5.167 3.09 1.553.916 3.44 1.981 5.264 3.043.445.258 1.545.744 1.545 1.207.001.447-1.507 1.295-2.028 1.303-.665.012-1.491-.76-2.077-1.109-4.283-2.564-8.499-4.953-12.894-7.533-.356-.211-.811-.467-.821-.725-.018-.484 1.354-1.092 1.787-1.354 3.306-1.988 6.559-3.619 9.852-5.601.637-.383 1.325-.746 1.98-1.109.676-.377 1.319-.826 1.98-1.111.613-.266 1.668.59 2.318.965.754.438 1.399.811 1.98 1.16 2.752 1.654 5.054 3.012 7.823 4.635.622.365 1.312.752 1.98 1.16.616.375 1.397 1 2.077 1.158.762.178 1.755.049 2.656.049 5.325 0 10.575-.074 15.792 0 .807.009 1.671-.026 2.464.191z"/><path d="m.261 20.572c.563.148 1.695.812 2.414 1.256 8.206 5.059 16.569 9.916 24.919 14.777 2.278 1.326 4.554 2.623 6.809 4.008.722.443 1.534.814 2.125 1.449.117 3.191.048 6.801.048 10.094 0 1.098.162 2.207-.144 3.185-.927-.08-1.618-.773-2.367-1.207-9.119-5.271-18.262-10.752-27.332-16.178-1.492-.892-2.955-1.838-4.491-2.752-.744-.443-1.577-.797-2.173-1.449-.116-3.076-.048-6.32-.048-9.803 0-.945-.073-2.57.097-3.285.034-.042.086-.071.143-.095z"/></g></svg>