<svg enable-background="new 0 0 34.352 36.162" viewBox="0 0 34.352 36.162" xmlns="http://www.w3.org/2000/svg"><path d="m17.749.017c2.709-.016 5.42-.029 8.13.003 3.342.111 6.47 2.332 7.711 5.428 1.124 2.657.797 5.869-.821 8.254-1.513 2.304-4.164 3.837-6.931 3.904-2.682.08-5.374-.037-8.052.025-.084 6.165-.04 12.335-.053 18.502-2.212-.707-4.545-2.148-5.08-4.574-.454 2.43-2.835 3.861-5.015 4.563-.013-8.988.004-17.975.016-26.962-.058-2.354.855-4.777 2.654-6.338 2.64-2.611 7.2-2.798 10.08-.47-1.793 1.612-2.715 4.043-2.609 6.435.035 2.882-.078 5.766.029 8.646 3.523-.948 6.304-4.167 6.6-7.821.554-4.275-2.501-8.565-6.659-9.595z"/><path d="m.049 10.598c1.562-.028 3.178.293 4.478 1.195 1.812 1.291 2.596 3.699 2.35 5.849-2.334.024-4.929-.835-6.067-3.027-.647-1.224-.844-2.649-.761-4.017z"/><path d="m1.111 20.895c1.184-1.901 3.574-2.744 5.729-2.508.061 1.765-.353 3.638-1.49 5.033-1.296 1.522-3.402 2.156-5.35 1.966.013-1.55.273-3.158 1.111-4.491z"/><path d="m17.927 18.556c2.661-.001 5.325-.036 7.985.015 3.361.096 6.559 2.319 7.78 5.457.82 1.964.877 4.226.165 6.231-1.088 3.33-4.371 5.775-7.87 5.882-2.717.037-5.438.025-8.153-.028 1.391-.673 2.992-1.259 4.096-2.465 2.34-2.34 3.269-6.014 2.18-9.159-.864-2.888-3.358-5.067-6.183-5.933z"/></svg>