<svg enable-background="new 0 0 76.099 81.366" viewBox="0 0 76.099 81.366" xmlns="http://www.w3.org/2000/svg"><g clip-rule="evenodd" fill-rule="evenodd"><path d="m75.886.475c.358 1.59.157 3.252.157 4.879 0 8.443-.051 16.797-.053 25.399-.002 16.842-.048 33.656-.21 50.43-.721.281-1.504.156-2.256.156-8.828.002-17.417-.107-26.238-.104-9.474.002-18.794-.16-28.337-.158-4.774 0-9.548-.106-14.272-.106-1.529 0-3.102.127-4.618-.156-.155-26.631.032-53.6.157-80.498-.009-.131.081-.164.157-.209.039-.049.096-.08.158-.105 12.603-.027 25.08.154 37.677.156 11.041.004 21.983.16 33.112.158 1.524 0 3.064-.125 4.566.158zm-53.997 1.836c-4.916 0-10.123-.105-15.113-.105-.721 0-1.488-.131-2.151-.053-.6.072-1.569-.076-1.994.264-.201 12.756-.159 25.633-.158 38.412.001 12.846-.227 25.109 0 37.572 0 .053.043.062.053.104 22.828.289 46.003.475 68.848.473.696 0 1.438.123 2.099-.156.23-1.523.105-3.066.104-4.619-.003-19.098.21-38.611.21-57.408.001-4.068 0-7.85 0-11.859.001-.75.119-1.578-.157-2.309-17.388-.245-34.745-.314-51.741-.316z"/><path d="m34.588 36.21c-.363 1.014-.21 2.145-.21 3.201-.001 5.523-.053 10.992-.053 16.687 0 2.211-.156 4.449-.105 6.613.038 1.582.105 3.293.105 5.037 0 .475-.149 1.104.21 1.469.585-.18.617-.912.84-1.365.691-1.406 1.337-2.912 2.099-4.406 1.463-2.873 2.536-6.129 3.935-9.131.462-.992.943-1.986 1.364-2.992.417-.994.913-2.025 1.312-3.043.396-1.012 1.013-2.068 1.259-3.045.151-.6.194-1.42 0-1.889-.426-1.025-3.22-1.201-2.204-2.781.477-.74 2.962-.42 4.304-.42.836 0 1.6-.006 2.256 0 .731.008 1.824-.053 2.361.158.793.312 1.207 1.781 1.627 2.729 1.356 3.059 2.661 5.986 3.988 9.025.881 2.02 1.894 4.027 2.519 6.141.639 2.158 1.924 4.035 2.519 6.139.962 1.916 1.743 3.904 2.677 5.982.646 1.438 1.059 2.682 2.466 3.463 1.02.568 3.657.652 2.572 2.361-.435.684-2.207.473-3.464.473-2.678 0-5.217.025-7.714-.053-1.232-.037-2.76.229-2.781-1.049.355-1.607 2.57-1 2.886-2.572.162-.803-.403-1.852-.682-2.518-.716-1.713-1.1-2.836-1.89-4.617-.297-.672-.743-1.736-1.259-1.994-.731-.369-2.388-.211-3.568-.211-2.689 0-4.836.027-7.557 0-1.083-.01-2.674-.268-3.568.053-.703.252-1.042 1.07-1.417 2.047-.719 1.869-1.259 2.971-2.047 4.828-.285.674-.945 1.758-.787 2.623.235 1.281 2.118.748 1.942 2.623-.045-.008-.05.021-.053.053-.207.773-1.232.631-2.099.631-2.618 0-5.194-.053-7.977-.053-1.655 0-3.508.088-5.405 0-1.439-.068-4.321.348-4.46-.893-.155-1.383 1.694-1.094 2.046-2.1.091-1.537-.713-2.906-1.259-4.197-.554-1.309-1.146-2.596-1.68-3.883-.541-1.305-1.031-2.631-1.627-3.936-1.747-3.826-3.408-7.549-5.09-11.598-.522-1.258-1.059-2.58-1.679-3.883-.554-1.162-1.228-2.818-2.151-3.359-.867-.506-3.102-.361-2.991-1.783.082-1.051 1.726-.84 3.096-.84 2.879 0 4.896.053 7.661.053 1.361 0 3.016-.256 2.991.996-.03 1.584-2.214.662-2.624 1.838-.362 1.043.79 2.814 1.102 3.568.488 1.178.914 2.367 1.364 3.41.982 2.275 2.09 4.477 2.938 6.561 1.601 3.928 3.415 7.672 5.195 11.49.236.508.334 1.189.892 1.471.453-.406.316-1.104.316-1.627.001-17.228.156-34.605.157-51.793 0-1.121.058-2.51 0-3.883-.065-1.547.269-3.412-.577-4.094-.784-.633-2.931-.26-2.991-1.627-.067-1.514 2.294-1.102 3.778-1.102 4.394 0 9.059.088 13.224 0 1.713-.037 3.247.338 4.618.734 5.421 1.57 9.627 4.963 11.124 10.338 1.893 6.791-1.155 12.553-4.774 15.584-1.942 1.627-4.322 3.02-7.242 3.516-1.545.264-3.208.367-4.88.473-1.592.103-3.297-.174-4.878.369zm0-28.231c-.247.315-.158 2.1-.158 3.043 0 1.33-.049 2.225-.052 3.043-.009 1.943-.148 4.525-.053 6.141.163 2.789.1 6.197.053 9.34-.017 1.055-.145 2.297.21 2.887.473.789 2.404.875 3.83.787 3.611-.225 6.317-1.635 8.239-4.041 1.709-2.141 3.091-5.535 2.886-9.393-.198-3.731-1.581-6.619-3.621-8.658-1.87-1.871-5.109-3.65-8.763-3.516-.594.022-2.214-.09-2.571.367zm18.208 48.854c-1.027-2.186-1.89-4.469-2.939-6.717-.315-.676-1.036-2.994-1.784-3.096-.518-.07-.769.93-.997 1.416-1.092 2.326-2.207 4.941-3.147 7.084-.44 1.002-.742 1.908-1.207 2.939-.203.451-.82 1.25-.525 1.785.266.478 1.728.42 2.624.42 2.275-.002 4.102.068 6.14.051.957-.008 2.075.051 2.834-.262.152-1.364-.491-2.54-.999-3.62z"/></g></svg>