<svg enable-background="new 0 0 79.455 67.596" viewBox="0 0 79.455 67.596" xmlns="http://www.w3.org/2000/svg"><path clip-rule="evenodd" d="m79.333.182c.196 5.411.097 10.927.097 16.503 0 16.731.083 33.746-.097 50.331-4.59.229-9.394.096-14.236.097-14.467.002-29.369-.003-43.575-.097-.318-.897-.193-1.953-.193-2.992 0-2.911.173-6.24-.096-9.024-.734.248-.929 1.034-1.448 1.496-2.238 2.83-4.589 5.563-6.901 8.349-.768.925-1.394 1.976-2.316 2.751-1.084-.903-1.853-2.104-2.75-3.185-.894-1.078-1.805-2.156-2.702-3.233-1.341-1.61-2.582-3.313-3.909-4.97-.437-.546-1.01-1.038-1.207-1.738 1.122-.246 2.773.039 3.86-.242.258-1.067.145-2.185.145-3.281 0-14.373 0-29.494 0-44.251 0-2.213-.105-4.419.145-6.562 24.316-.284 50.929-.041 75.183.048zm-23.501 12.546c-9.043 0-17.517-.002-26.348-.048-4.163-.022-8.229-.095-12.257.097-.182 6.771-.145 13.76-.145 20.606 0 6.874-.058 13.864.097 20.798 1.094.281 2.931.162 4.054 0 .213-2.923.143-5.947.096-9.024-.129-8.468.048-17.331.048-25.576 0-.748-.119-1.548.145-2.268 12.604-.158 25.495-.002 38.171 0 .803 0 1.641-.111 2.413.145.161 10.453.161 21.543 0 31.946-8.998.303-18.614-.104-27.506.145-.139 1.351-.291 3.373 0 4.681 7.999.178 16.228.193 23.839.193 2.63-.001 5.274.101 7.817-.145.143-13.585.17-27.796 0-41.452-3.444-.217-6.934-.097-10.424-.098zm-21.087 17.228c-.057.024-.109.052-.145.097-.226.224-.145 1.031-.145 1.592 0 1.767-.07 3.747.145 5.067 1.104.256 2.308.145 3.523.145 2.428 0 4.9.048 7.335.048 1.217 0 2.467.115 3.571-.145.133-1.998.216-4.792-.048-6.659-4.603-.192-9.474-.115-14.236-.145z" fill-rule="evenodd"/></svg>