<svg enable-background="new 0 0 75.74 77.662" viewBox="0 0 75.74 77.662" xmlns="http://www.w3.org/2000/svg"><path clip-rule="evenodd" d="m49.005 75.937c-.346-.799-.195-1.737-.195-2.595 0-9.854.1-19.956.098-30.016 0-1.949-.188-3.987.049-5.484.235-1.488.961-2.742 1.763-3.722 1.652-2.018 4.762-3.445 7.981-2.546 2.67.746 4.734 2.711 5.582 5.436 1.549 4.976-1.699 9.211-5.582 10.184-.804.201-1.645.276-2.497.245-.769-.028-1.467-.344-2.302-.442-.461.357-.99 1.719-1.273 2.351-.753 1.683-1.442 3.097-2.155 4.75-.358.832-.771 1.636-.93 2.497.851.76 2.285 1.144 3.672 1.371 4.542.743 9.405-.046 12.389-1.959 4.109-2.636 7.297-5.995 8.813-11.262.81-2.814.973-5.95.44-8.814-.535-2.88-1.505-5.218-2.84-7.198-2.729-4.049-6.402-7.026-11.996-8.079-6.541-1.231-12.067 1.152-15.326 4.162-3.336 3.08-6.252 7.463-6.464 13.612-.113 3.287-.032 6.587-.049 9.891-.04 8.144-.001 16.05 0 24.532 0 .815-.01 1.626-.049 2.448-.036.761.159 1.591-.196 2.301-5.582.394-10.338-1.214-14.493-2.889-2.005-.809-3.948-1.926-5.729-3.085-5.393-3.512-9.479-7.9-12.828-13.612-1.057-1.802-2.031-3.882-2.742-6.071-.722-2.221-1.408-4.657-1.714-7.101-.702-5.601-.608-11.202.734-15.864.681-2.366 1.345-4.532 2.252-6.562 2.667-5.961 6.731-10.987 11.703-14.738 2.931-2.212 6.125-4.139 9.989-5.436.526-.177 1.033-.51 1.615-.489.26.825.147 1.729.147 2.595.002 9.79-.097 19.227-.098 29.38 0 1.934.071 3.624 0 5.238-.071 1.643-.486 2.938-1.175 4.211-1.214 2.248-4.126 4.052-7.687 3.525-3.221-.476-5.25-2.412-6.316-5.092-1.314-3.304.032-6.838 1.763-8.569 1.635-1.634 4.159-2.953 7.296-2.154.342.087.824.313 1.175.245.618-.12 1.025-1.581 1.322-2.203.804-1.689 1.408-3.235 2.105-4.946.275-.675 1.052-1.837.833-2.546-.217-.698-2.839-1.21-3.673-1.371-1.506-.29-2.992-.396-4.652-.343-3.054.097-5.769 1.232-7.687 2.302-4.273 2.384-7.388 6.146-8.813 11.213-.78 2.774-.913 5.995-.392 8.96.491 2.789 1.523 5.278 2.84 7.149 2.793 3.968 6.427 6.894 12.046 7.933 3.141.58 6.437.312 8.911-.539 4.767-1.64 8.598-4.9 10.675-9.303 1.059-2.244 2.009-4.796 2.105-7.884.103-3.27-.117-6.647 0-10.038.229-6.574.04-13.276.098-19.88.021-2.402 0-4.731 0-7.296.001-.753-.155-1.595.196-2.301 5.684-.316 10.808 1.22 14.787 2.889 2.039.855 3.975 1.935 5.729 3.085 5.271 3.458 9.454 8.096 12.584 13.759 2.126 3.849 3.556 8.21 4.406 13.172.951 5.543.417 11.027-.734 15.865-1.099 4.618-3.071 8.734-5.386 12.192-2.363 3.53-5.221 6.523-8.521 9.059-2.479 1.906-5.198 3.552-8.373 4.847-1.008.414-2.076.931-3.231 1.03z" fill-rule="evenodd"/></svg>