<svg enable-background="new 0 0 92.598 24.308" viewBox="0 0 92.598 24.308" xmlns="http://www.w3.org/2000/svg"><g clip-rule="evenodd" fill-rule="evenodd"><path d="m10.503 8.142c-.348.73-.21 1.66-.21 2.572v8.08c1.113-.078 2.157-.498 3.201-.838 6.203-2.027 12.423-4.025 18.786-5.982 1.029-.316 2.076-.842 3.097-.998 1.422-.217 3.128 0 4.775 0 1.627 0 3.259-.045 4.774.158.237.912.105 1.963.105 3.043 0 3.137.085 6.811-.105 9.812-2.799.25-6.131.07-9.025-.051-.267-1.576-.036-3.307-.105-5.039-.065-1.654.175-3.43-.157-4.932-1.877.447-3.749 1.06-5.615 1.678-3.707 1.229-7.45 2.447-11.177 3.621-1.843.582-3.746 1.043-5.457 1.889 1.595.275 3.326.211 5.037.211 5.13.002 10.57-.035 15.533.158.221.539.268 1.883 0 2.414-9.705.17-19.696-.055-29.754-.053-1.363 0-2.769.123-4.093-.158-.052-.404-.141-1.02 0-1.313.629-.562 1.544-.67 2.361-.943 1.616-.543 3.314-1.051 4.985-1.574.793-.25 1.655-.481 2.309-.945-1.428-.283-3.145-.158-4.775-.158-1.658 0-3.306-.047-4.828-.104-.288-1.289-.114-3.012-.104-4.514.025-3.674 0-7.883 0-11.965 0-.976-.196-2.006.524-2.15.749-.151 1.804.019 2.781.054 2.735.094 5.843-.074 8.502 0 3.612.1 7.597.053 11.019.053 11.241-.002 21.533.156 33.164.156 7.545.002 14.79.106 22.356.106 1.785 0 3.73.01 5.615.053 1.827.041 4.406-.326 5.824.156 1.666.568 2.938 2.174 2.729 4.305-.185 1.875-1.598 3.275-3.517 3.463-1.638.16-3.336-.061-5.037 0-4.744.164-9.89 0-14.746 0-6.518 0-12.983-.106-19.31-.106-13.468.002-26.334-.266-39.462-.159zm8.501-2.781c18.404 0 37.558.314 55.991.316 1.706 0 3.209.102 3.411-.998.309-1.682-1.705-1.516-3.149-1.469-1.532.049-3-.053-4.303-.053-8.963 0-17.053-.104-25.818-.105-2.82 0-5.776-.041-8.605-.103-2.814-.065-5.702.121-8.607 0-4.858-.207-9.952-.105-15.008-.105-.776 0-1.739-.141-2.204 0-.65.195-.439 1.715-.263 2.361 2.811.279 5.685.158 8.555.156z"/><path d="m91.368 11.344c.175.56.163 1.748 0 2.309-11.169.285-23.31-.092-34.949 0-.351.494-.242 1.871-.104 2.519 1.397.242 2.859.211 4.303.211 4.396 0 8.904-.104 13.328.053 5.814.201 11.752-.186 17.423.209.056.627.148 1.715-.053 2.256-5.659.041-11.653.324-17.527.053-2.902-.135-5.835.062-8.71-.053-2.949-.117-5.865-.01-8.711.053-.272.502-.204 1.83-.053 2.414 1.331.242 2.801.211 4.303.211 4.355-.002 8.767-.076 13.066.104 5.946.25 11.992-.309 17.632.158.14.619.238 1.695.053 2.309-1.233.23-2.544.092-3.831.105-4.072.041-8.147.02-12.174.053-2.366.018-4.739-.129-7.138-.053-2.376.074-4.868.041-7.241-.053-4.755-.189-9.51-.014-14.168-.158-.277-1.975-.158-4.221-.158-6.453.001-2.215-.046-4.465.158-6.455 11.246-.191 23.517 0 34.791 0 1.616 0 3.227-.016 4.828 0 1.655.014 3.325-.027 4.932.208z"/></g></svg>