<svg enable-background="new 0 0 54.79 100.592" viewBox="0 0 54.79 100.592" xmlns="http://www.w3.org/2000/svg"><path d="m30.94.001h-24.28c-3.614-.061-6.594 2.816-6.66 6.43v66.75c.066 3.59 3.009 6.458 6.6 6.43h21.6v14.55c.066 3.617 3.051 6.496 6.668 6.43h.002c.598.002 1.193-.076 1.77-.23 10.55-2.73 18.15-10.43 18.15-19.5v-57.82c-.02-12.73-10.69-23.04-23.85-23.04zm20.83 80.86c0 7.47-6.39 14.14-15.9 16.6-.327.081-.663.125-1 .13-1.959.062-3.599-1.471-3.67-3.43v-46.53c.024-.672.549-1.219 1.22-1.27 6.573-.655 12.79-3.299 17.82-7.58.54-.48 1.06-1 1.55-1.49z"/></svg>