<svg enable-background="new 0 0 66.744 64.116" viewBox="0 0 66.744 64.116" xmlns="http://www.w3.org/2000/svg"><g clip-rule="evenodd" fill-rule="evenodd"><path d="m66.72.272c.135.926-.311 1.832-.625 2.643-.957 2.474-1.727 5.146-2.545 7.736-.545 1.719-1.326 3.377-1.73 5.141-.408 1.781-1.084 3.476-1.682 5.189-1.783 5.108-3.455 10.229-5.238 15.376-.588 1.698-1.068 3.454-1.729 5.093-2.66 6.59-7.289 11.116-13.406 14.078-3.156 1.529-6.639 2.571-11.195 2.547-3.408-.02-6.08-.747-8.649-1.634-.328-.113-.756-.236-1.25-.48-.361-.179-.932-.486-1.248-.433-.529.089-.809 1.391-1.01 1.97-.291.84-.553 1.506-.769 2.162-.51 1.558-.881 3.049-1.488 4.373-.057-.008-.086.011-.096.048-3.223.041-7.049 0-10.619 0-1.172 0-2.404.171-3.363-.24-.305-.533.377-1.751.625-2.45 1.869-5.312 3.641-10.851 5.381-16.192-.189-.732-.6-1.339-.914-1.971-.947-1.905-1.604-4.093-2.018-6.63-.561-3.44-.373-7.146.385-10.427 1.357-5.881 4.934-10.743 9.033-13.934 2.023-1.574 4.545-3.09 7.4-4.084 2.779-.968 6.18-1.774 9.85-1.537 6.334.408 10.994 2.221 14.894 5.237.391.302 1.387.932 1.441 1.392.043.362-.316 1.051-.48 1.538-1.006 2.994-2.041 5.694-3.076 8.841-.152.471-.455 1.214-.719 1.249-.459.062-1.047-1.072-1.346-1.441-1.252-1.545-2.879-2.802-4.564-3.796-2.275-1.344-5.354-2.225-9.082-1.923-1.58.129-3.055.587-4.324 1.25-2.541 1.326-4.473 2.805-5.957 5.141-.721 1.132-1.154 2.38-1.684 3.844-1.953 5.419-3.823 10.967-5.766 16.481-.961 2.729-1.877 5.491-2.883 8.216-.756 2.05-1.387 4.118-2.113 6.246-.229.668-.566 1.337-.576 2.066.5.407 1.301.24 2.018.24 2.168 0 4.494.046 6.535-.048.555-.585.635-1.436.912-2.162 1.398-3.661 2.721-7.583 3.988-11.388.252-.76.527-1.543.768-2.307.225-.713.312-1.588.914-2.114.725.105 1.16.697 1.682 1.057.545.377 1.146.634 1.73 1.01 2.283 1.282 5.197 2.006 8.455 1.634 2.875-.329 5.605-1.399 7.4-2.835 1.801-1.441 3.453-3.506 4.371-5.862.943-2.415 1.852-5.001 2.691-7.543 1.268-3.829 2.568-7.677 3.844-11.532 1.252-3.784 2.609-7.613 3.893-11.436.645-1.92 1.373-3.795 1.971-5.718.191-.617.248-1.328.721-1.825 2.633-.185 6.01-.098 9.033-.097.777.001 1.607-.16 2.209.241z"/><path d="m28.378 25.978c2.814-.18 4.935 1.38 5.91 2.979 1.855 3.048.477 6.364-1.346 8.023-1.654 1.506-4.711 2.367-7.352 1.01-1.391-.716-2.887-2.346-3.219-4.036-.402-2.044.188-4.06.961-5.142.777-1.088 2.131-2.144 3.459-2.595.456-.153.97-.2 1.587-.239z"/></g></svg>