<svg clip-rule="evenodd" fill-rule="evenodd" stroke-linejoin="round" stroke-miterlimit="2" viewBox="0 0 560 400" xmlns="http://www.w3.org/2000/svg"><path d="m613.3 332.6c-2.8-73-51.6-134.4-117.8-156.4 10.1-17.3 15.9-37.4 15.9-58.9-.1-64.8-52.6-117.3-117.4-117.3h-174.6c-64.8 0-117.3 52.5-117.3 117.3 0 21.5 5.8 41.6 15.9 58.9-66.2 22-115 83.4-117.8 156.4-3.8 97.9 74.5 178.4 171.6 178.4h43.2c30.3 0 54.9-24.6 54.9-54.9v-124c0-20.3 16.6-36.8 36.8-36.8 20.3 0 36.8 16.6 36.8 36.8v124c0 30.3 24.6 54.9 54.9 54.9h43.2c97.1 0 175.4-80.5 171.7-178.4zm-185.7-151.6c0 20.3-16.5 36.8-36.8 36.8s-36.8-16.5-36.8-36.8 16.5-36.8 36.8-36.8 36.8 16.4 36.8 36.8zm-78.9-112c20.3 0 36.8 16.5 36.8 36.8s-16.5 36.8-36.8 36.8-36.8-16.5-36.8-36.8c0-20.4 16.5-36.8 36.8-36.8zm-84 0c20.3 0 36.8 16.5 36.8 36.8s-16.5 36.8-36.8 36.8-36.8-16.5-36.8-36.8c0-20.4 16.5-36.8 36.8-36.8zm-42.1 75.2c20.3 0 36.8 16.5 36.8 36.8s-16.5 36.8-36.8 36.8-36.8-16.5-36.8-36.8 16.5-36.8 36.8-36.8zm-78.9 112c0-20.3 16.5-36.8 36.8-36.8s36.8 16.5 36.8 36.8-16.5 36.8-36.8 36.8c-20.4 0-36.8-16.5-36.8-36.8zm78.9 112c-20.3 0-36.8-16.5-36.8-36.8s16.5-36.8 36.8-36.8 36.8 16.5 36.8 36.8-16.4 36.8-36.8 36.8zm42-75.2c-20.3 0-36.8-16.5-36.8-36.8s16.5-36.8 36.8-36.8 36.8 16.5 36.8 36.8c.1 20.3-16.4 36.8-36.8 36.8zm5.4-112c0-20.3 16.5-36.8 36.8-36.8s36.8 16.5 36.8 36.8-16.5 36.8-36.8 36.8-36.8-16.5-36.8-36.8zm41.8 75.2c0-20.3 16.5-36.8 36.8-36.8s36.8 16.5 36.8 36.8-16.5 36.8-36.8 36.8-36.8-16.5-36.8-36.8zm79 112c-20.3 0-36.8-16.5-36.8-36.8s16.5-36.8 36.8-36.8 36.8 16.5 36.8 36.8-16.5 36.8-36.8 36.8zm39.2-75.2c-20.3 0-36.8-16.5-36.8-36.8s16.5-36.8 36.8-36.8 36.8 16.5 36.8 36.8-16.5 36.8-36.8 36.8z" fill-rule="nonzero" transform="matrix(.391389 0 0 .391389 159.943 100)"/></svg>