<svg enable-background="new 0 0 84.785 39.018" viewBox="0 0 84.785 39.018" xmlns="http://www.w3.org/2000/svg"><g clip-rule="evenodd" fill-rule="evenodd"><path d="m55.847 9.812c-.928-1.914-4.007-3.579-6.551-2.283-.983.501-1.942 1.486-2.283 2.68-.363 1.275-.215 3.074-.198 4.665.047 4.489.043 10.424-.1 14.59-1.018.179-2.247.1-3.474.1-1.177 0-2.434.118-3.374-.149-.16-3.898-.101-9.058-.1-13.499 0-1.575.12-3.14 0-4.516-.193-2.216-1.699-3.797-3.375-4.317-1.628-.505-3.264.149-4.218.894-2.04 1.55-1.737 5.159-1.737 8.238 0 3.127-1.027 5.6-2.282 7.692-2.359 3.931-6.447 7.208-12.655 7.295-2.684.037-5.024-.593-6.75-1.638-.056-2.501-.222-5.188 0-7.692.429-.104.676.326.943.546.85.699 1.824 1.222 3.077 1.588 3.218.941 6.447-.271 8.237-1.836 1.04-.91 1.899-2.203 2.383-3.623 1.057-3.109-.161-7.474.844-10.719.456-1.475 1.31-2.608 2.084-3.871 1.974-1.99 4.478-3.643 8.04-3.921 3.165-.246 5.437.825 7.345 2.085.405.268 1.064.879 1.438.893.596.023 1.263-.809 1.639-1.043 2.479-1.543 5.917-2.408 9.479-1.588 2.857.658 5.369 2.573 6.898 4.863.827 1.24 1.376 2.663 1.688 4.218.333 1.665.343 3.583.347 5.41.005 1.949.249 3.43.943 4.863.307.634.699 1.164 1.191 1.737 1.148 1.338 2.596 2.494 4.813 2.879 3.476.602 6.395-.906 7.99-2.73.189-.217.63-.948 1.042-.993.434-.046 1.14.573 1.488.794 1.028.649 1.701 1 2.829 1.688.288.175 1.229.648 1.291.943.059.288-.434.899-.645 1.191-1.698 2.333-4.395 4.322-7.345 5.261-1.95.62-4.154.982-6.303.744-6.265-.692-10.429-4.226-12.655-8.982-.777-1.662-1.266-3.675-1.39-5.856-.122-2.171.276-4.65-.594-6.601z"/><path d="m24.731 3.807c-.46 1.2-1.388 2.126-1.886 3.375-.358.897-.392 1.981-.794 2.977-.533.027-.818-.507-1.142-.793-1.004-.891-2.346-1.699-3.921-2.085-4.323-1.058-7.783 1.608-9.231 4.07-.368.627-.748 1.497-.893 2.233-.37 1.874-.067 4.267-.099 6.253-.097 5.938.241 12.899-.05 19.057-1.938.166-4.562.165-6.501 0-.223-6.009-.149-12.683-.149-18.957 0-2.17-.148-4.351 0-6.402.279-3.893 2.462-6.697 4.367-8.933 2.798-2.43 6.881-5.015 12.556-4.268 1.507.198 3.057.691 4.367 1.241 1.307.547 2.612 1.265 3.376 2.232z"/><path d="m79.37 2.368c1.675 1.034 2.996 2.116 4.269 3.673.229.28 1.109 1.117 1.042 1.588-.051.351-.98.738-1.34.943-.999.57-1.79 1.069-2.829 1.688-.354.21-1.08.826-1.439.794-.377-.034-.69-.72-.942-.993-1.9-2.059-5.303-3.605-8.982-2.581-1.115.31-2.451 1.131-3.275 1.936-.257.25-.605.834-.894.794-.398-.055-.551-1.306-.646-1.638-.387-1.355-.765-2.079-1.34-3.176-.235-.449-.774-.995-.744-1.489.028-.474 1.016-1.003 1.538-1.34 1.708-1.1 4.217-2.012 6.551-2.184 3.913-.288 6.466.83 9.031 1.985z"/></g></svg>