<svg enable-background="new 0 0 78.951 73.389" viewBox="0 0 78.951 73.389" xmlns="http://www.w3.org/2000/svg"><g clip-rule="evenodd" fill-rule="evenodd"><path d="m42.154 0c.355.184.191.673.199.951.225 8.04 0 17.326 0 25.983 0 2.167.023 4.398 0 6.659-.008.753.096 1.564-.049 2.103-.268.979-1.84 2.055-2.604 2.804-2.729 2.671-5.432 5.581-8.012 8.16-1.842 1.844-3.58 3.683-5.355 5.457-1.359 1.357-2.715 2.638-4.057 4.056-.414.438-1.06.78-1.201 1.451.305.906 1.086 1.486 1.703 2.103.625.625 1.309 1.196 1.851 1.903 2.629 2.394 4.869 5.177 7.461 7.609.875 1.016 1.795 1.927 2.752 2.903.283.289.75.608.752 1.102-.662.156-1.598.127-2.555.101-.854-.024-1.867.076-2.553-.101-.725-.187-1.361-1.278-1.953-1.902-1.873-1.98-3.9-3.901-5.756-5.758-2.525-2.525-5.123-5.222-7.611-7.709-3.762-3.764-7.631-7.634-11.514-11.516-.523-.522-1.248-1.206-1.902-1.952-.475-.54-1.74-1.597-1.752-2.053-.014-.482.807-1.057 1.201-1.451 3.104-3.104 6.111-6.083 9.162-9.263 10.732-10.312 20.969-21.117 31.59-31.54.035-.067.11-.093.203-.1zm-6.209 11.566c-2.062 2.062-4.312 4.012-6.107 6.107-.611.714-1.332 1.335-2.002 2.053-.654.699-1.312 1.404-2.004 2.053-1.434 1.345-2.699 2.863-4.055 4.105-3.578 3.275-6.814 6.814-10.162 10.163-1.689 1.688-3.537 3.332-5.107 5.056-.32.352-.75.736-.801 1.252.207.715.853 1.203 1.352 1.702 3.064 3.065 6.15 6.161 9.211 9.162.502.491 1.027 1.171 1.803 1.302.639-.148.994-.743 1.402-1.151.434-.435.902-.833 1.351-1.252.9-.836 1.639-1.816 2.553-2.653 2.193-2.007 4.438-4.213 6.459-6.458 1.248-1.386 2.596-2.543 3.904-3.905 1.205-1.254 2.5-2.709 3.855-3.955.453-.417 1.062-.995 1.201-1.402.238-.691.102-1.963.1-3.004 0-6.375-.049-12.453-.049-18.724 0-.562.215-2.958-.701-2.503-.699.369-1.499 1.349-2.203 2.052z"/><path d="m49.213 36.197c-.145.738-.809.961-1.201 1.451-5.592 5.89-11.322 11.641-17.123 17.322-.301.37-.85.743-1.351 1.302-.471.524-1.496 1.599-.551 2.053.748-.041 1.197-.746 1.652-1.201 3.27-3.27 6.563-6.414 9.912-9.763 3.248-3.246 6.414-6.613 9.764-9.963.443-.443 1.113-1.178 1.502-1.302.658-.21 1.666-.05 2.502-.05.902 0 1.77-.03 2.404.15.074.392-.322.708-.551.951-.252.267-.549.511-.801.751-1.564 1.484-3.031 3.222-4.608 4.756-4.221 4.11-8.254 8.205-12.516 12.466-1.539 1.539-3.039 3.09-4.654 4.706-.465.464-1.394 1.147-1.402 1.702-.01.692 1.213 1.622 1.601 2.053.637.704 1.322 1.3 1.803 1.852.688.53 1.248 1.188 1.851 1.802.344.355.59.64.902.951.229.23.795.577.801 1.002.006.433-.785 1.113-1.053 1.401-.301.326-.984 1.09-1.352 1.102-.758.024-1.275-1.399-1.852-1.652-3.557-3.417-6.889-7.187-10.463-10.764-.369-.369-1.385-1.183-1.402-1.602-.018-.403.844-1.145 1.201-1.502 3.164-3.164 6.215-6.325 9.412-9.463 2.996-2.741 6.184-6.533 9.412-9.512.572-.527.953-1.111 1.703-1.202.709-.085 1.559-.008 2.352 0 .735.01 1.501-.027 2.106.203z"/><path d="m64.332 36.247c-.182.746-.943 1.204-1.451 1.702-1.551 1.518-3.123 3.141-4.656 4.756-5.028 5.295-10.526 10.307-15.621 15.771-.381.409-1.076 1.026-1.602 1.552-.459.46-2.107 1.85-.9 2.253.721.241 1.471-.921 1.902-1.352 1.74-1.74 3.31-3.3 4.955-5.007 6.767-6.533 13.248-13.354 20.127-19.775 4.127.037 7.859-.168 11.865.101-.104.565-.588.988-.951 1.352-2.643 2.642-5.518 5.238-7.961 8.16-3.016 3.124-6.211 6.07-9.211 9.212-4.463 4.454-9.188 9.188-13.818 13.818-1.035 1.034-2.267 2.305-3.404 3.504-.361.38-.935.912-1.252 1.002-.627.178-1.529.05-2.303.05-.828 0-1.643.073-2.252-.101-.018-.509.492-.844.801-1.151 4.975-4.975 9.91-10.265 15.02-15.169 3.881-4.179 8.195-7.926 12.064-12.116.977-.863 1.994-1.9 3.004-3.004.266-.289.945-.688.801-1.201-.232-.826-1.576.003-1.803.2-.476.419-.851.953-1.301 1.401-6.186 6.187-12.767 12.599-18.725 18.774-1.9 1.791-3.508 3.408-5.406 5.307-.465.466-1.322 1.672-1.854 1.702-.586.034-1.305-1.054-1.701-1.451-1.244-1.245-1.959-1.91-3.154-3.154-.248-.26-1.428-1.235-1.451-1.702-.027-.544.988-1.289 1.451-1.752 1.592-1.591 3.164-3.318 4.707-4.807 4.318-4.171 8.449-8.449 12.715-12.716 1.502-1.503 3.193-3.075 4.758-4.757.541-.583 1.199-1.437 1.851-1.552 1.424-.251 3.477.14 4.756.15z"/></g></svg>