<svg enable-background="new 0 0 16.458 14.398" viewBox="0 0 16.458 14.398" xmlns="http://www.w3.org/2000/svg"><path d="m.001 0c1.727.002 3.455-.002 5.182.002-.014 3.25-.002 6.5-.006 9.749.003 1.546-.006 3.092.004 4.637-1.727.012-3.454-.006-5.181.01 0-4.799 0-9.598.001-14.398z"/><path d="m5.499.001c.545 0 1.089-.003 1.634.001.641.056 1.279.233 1.832.569.418.224.754.561 1.077.902.552.658.901 1.489.957 2.348-.011.304.03.614-.036.914-.174 1.272-1.01 2.417-2.138 3.017-.547.295-1.16.457-1.777.494-.517.004-1.033.001-1.55.002.001-2.75 0-5.498.001-8.247z"/><path d="m11.293.001c1.722-.001 3.443-.001 5.165 0-.011 4.482-.002 8.963-.005 13.444.002.317-.005.635.004.952-1.233-.013-2.466-.002-3.699-.005-.488.003-.977-.008-1.465.006.008-2.522.001-5.045.003-7.568-.002-2.276.006-4.552-.003-6.829z"/></svg>