<svg enable-background="new 0 0 70.721 72.34" viewBox="0 0 70.721 72.34" xmlns="http://www.w3.org/2000/svg"><path clip-rule="evenodd" d="m33.857 30.576c0-.635-.573-1.039-.94-1.435-1.105-1.19-2.289-2.336-3.464-3.513-1.229-1.099-2.281-2.331-3.464-3.514-.367-.367-.964-.68-1.039-1.287.947-.351 2.083-.197 3.216-.197 2.217 0 4.526-.117 6.681-.05 1.121.035 2.351-.186 3.266.05 1.116.286 1.758 1.929 2.673 2.475 2.906 3.043 5.917 6.047 8.956 9.005.752.732 1.509 1.499 2.227 2.276.348.377.81.687 1.138 1.088.35.428.613.861.99 1.237 1.131 1.132 2.222 2.223 3.364 3.365.332.332.917.713.842 1.286-9.507.385-19.384-.028-28.849.198-5.008.12-10.239-.605-13.607 1.089-1.693.852-2.868 1.935-3.959 3.464-.987 1.384-1.764 3.251-1.78 5.591-.025 3.301 1.584 5.854 3.266 7.571 1.908 1.95 4.608 2.757 8.164 2.672 6.736-.161 14.332-.063 21.03 0 1.848.018 3.503-.05 5.294-.05 1.803 0 3.507-.064 4.948-.445 2.771-.732 4.752-2.416 6.185-4.602 1.497-2.283 1.335-5.576 1.336-9.401 0-6.653-.05-14.144-.05-21.179 0-1.895.077-3.711 0-5.394-.221-4.874-2.988-8.132-6.581-9.649-1.29-.544-2.936-.544-4.849-.544-8.928.002-17.937.05-26.969.05-1.906 0-3.756-.092-5.096.347-1.295.423-2.465 1.147-3.414 1.979-.465.406-.787.986-1.188 1.534-.769 1.051-1.486 2.07-1.832 3.562-.16.692-.172 1.442-.494 2.178-.352.213-1.639.099-2.475.099-.912 0-1.795 0-2.523 0-1.838 0-3.524.149-4.799-.197-.258-2.252.344-4.266.939-6.037 1.748-5.205 5.221-9.321 9.797-11.727 3.318-1.744 6.812-2.425 11.926-2.425h7.076c5.111.001 9.956 0 15.142 0 2.653.001 5.283-.154 7.719.1 4.543.472 8.316 2.634 10.985 4.849 3.795 3.293 6.263 7.485 6.878 13.904.2 2.086.198 4.299.197 6.73 0 9.016.001 18.688 0 27.313 0 4.255-1.684 7.843-3.463 10.392-2.817 4.034-6.898 7.108-12.321 8.461-1.884.47-4.111.495-6.433.495-8.585.001-18.329.047-27.216.05-2.374 0-4.467-.139-6.283-.644-1.76-.489-3.278-1.205-4.801-2.128-2.787-1.689-5.209-4.05-6.977-6.878-1.728-2.765-3.166-6.294-3.166-10.639-.001-4.445 1.057-8.087 2.82-11.034 1.71-2.859 4.107-5.28 6.828-7.026 2.833-1.819 6.371-3.016 10.639-3.217 2.206-.104 4.537.16 6.878.05 1.136-.054 2.271-.05 3.414-.05 1.058.001 2.182.157 3.218-.198z" fill-rule="evenodd"/></svg>