<svg enable-background="new 0 0 74.565 75.106" viewBox="0 0 74.565 75.106" xmlns="http://www.w3.org/2000/svg"><g clip-rule="evenodd" fill-rule="evenodd"><path d="m74.563 34.747c-5.883.178-12.41.145-18.575 0-.687-3.105-1.723-5.728-3.284-7.975-3.037-4.369-7.697-7.42-14.588-7.928-3.277-.24-6.756.617-9.241 1.877-4.885 2.477-8.369 6.934-9.71 12.76-1.615 7.014 1.201 13.361 4.691 16.84 2.101 2.287 4.867 4.189 8.35 5.16 3.77 1.051 8.014.947 11.539-.328 6.549-2.369 10.573-7.561 12.15-14.777 2.921-.258 6.048-.094 9.194-.094 3.149 0 6.373-.092 9.475.094.034 2.07-.343 4.053-.797 5.91-1.349 5.518-3.594 10.127-6.614 14.025-4.017 5.187-9.082 9.424-15.527 12.01-3.337 1.338-6.86 2.324-11.117 2.674-4.264.348-8.604-.154-12.383-1.08-7.289-1.785-12.974-5.527-17.45-10.084-4.495-4.627-8.104-10.35-9.804-17.732-1.346-5.846-1.062-13.383.376-18.621.501-1.828 1.151-3.49 1.829-5.02 2.768-6.248 6.834-11.433 12.241-15.293 5.497-3.922 11.739-6.631 20.358-7.129 2.752-.16 6.169.234 8.678.656 7.757 1.305 13.733 4.867 18.388 9.193 3.154 2.932 5.893 6.504 7.928 10.461 2.082 4.05 3.67 8.819 3.893 14.401z"/><path d="m36.802 23.818c4.208-.248 7.716 1.67 9.897 3.707 2.284 2.131 4.033 5.322 4.269 9.334.261 4.447-1.433 7.689-3.565 9.945-2.259 2.389-5.225 4-9.334 4.221-4.232.226-7.623-1.451-9.898-3.611-2.329-2.211-4.114-5.039-4.315-9.289-.208-4.396 1.453-7.828 3.612-9.99 1.646-1.648 3.526-3.185 6.286-3.894.946-.244 2.028-.363 3.048-.423z"/></g></svg>