<svg enable-background="new 0 0 75.351 39.086" viewBox="0 0 75.351 39.086" xmlns="http://www.w3.org/2000/svg"><g clip-rule="evenodd" fill-rule="evenodd"><path d="m39.233.639c-6.516.287-11.774 1.55-15.436 4.731-1.184 1.029-2.37 2.22-3.154 3.536-2.117 3.553-2.574 8.579-2.628 13.954-.027 2.668-.204 5.411-.096 8.124.109 2.717.226 5.402.191 7.933-2.793.159-5.832.148-8.793.144-1.472-.002-3.02 0-4.539 0-1.511 0-3.035.117-4.444-.144-.057-5.5-.657-11.419-.096-16.725.547-5.173 2.1-9.484 4.587-12.568 5.91-7.103 16.599-10.121 29.963-9.557.805.034 1.613.098 2.389.143.714.041 1.494.082 2.056.429z"/><path d="m50.462 24.199c.316-.321.811-.333 1.195-.43 2.784-.701 5.506-2.043 7.168-3.966 1.151-1.332 2.213-3.184 2.294-5.448.078-2.178-.557-4.096-1.386-5.591-1.384-2.498-3.842-4.158-6.547-5.495-2.393-1.184-4.994-1.922-8.124-2.438-.372-.061-.831-.053-1.147-.335 3.98-.511 8.749-.199 12.807.144 5.48.463 9.878 1.619 13.763 3.775 1.551.861 3.682 2.818 4.301 4.588.797 2.278.693 5.213.048 7.264-.547 1.74-2.315 3.691-3.775 4.827-4.499 3.498-13.007 4.814-20.597 3.105z"/><path d="m46.496 5.131c-2.502.038-4.376.597-6.021 1.577-2.166 1.291-4.093 3.738-4.109 6.833-.019 3.384 1.767 5.824 3.632 7.455 2.051 1.794 4.563 2.842 7.694 3.393-.382.379-.991.354-1.482.43-1.609.249-3.464.334-5.352.334-3.108 0-5.868-.635-8.554-1.338-2.585-.677-4.972-1.857-6.643-3.25-1.875-1.562-3.648-4.322-3.058-7.598.62-3.448 3.217-5.448 5.973-6.834 2.228-1.12 4.562-1.861 7.455-2.15 2.323-.232 4.852-.239 7.12.144 1.22.207 2.446.425 3.345 1.004z"/><path d="m43.677 8.763c1.291-.957 2.593-2.006 4.731-2.007 5.641 0 9.003 5.315 6.403 10.8-.005.011-.034.072-.048.096-1.538 2.578-5.084 4.411-8.697 3.058-1.442-.539-2.738-1.779-3.488-3.01-1.23-2.018-1.196-5.179-.048-7.312.333-.619.683-1.06 1.147-1.625z"/></g></svg>