<svg enable-background="new 0 0 61.926 79.365" viewBox="0 0 61.926 79.365" xmlns="http://www.w3.org/2000/svg"><g clip-rule="evenodd" fill-rule="evenodd"><path d="m25.636 4.333c1.17 1.103 2.15 2.336 2.895 3.758.752 1.438 1.427 3.15 1.676 4.979.582 4.266-.676 7.869-2.387 10.615-2.44 3.914-6.789 6.84-13.154 6.805-2.061-.012-3.737-.426-5.435-1.168-5.657-2.473-10.596-8.379-8.888-16.912 1.053-5.264 4.481-9.049 8.888-11.073 1.591-.731 3.314-1.219 5.485-1.32 5.022-.236 8.278 2.039 10.92 4.316z"/><path d="m45.29.271c4.754-.482 7.943 1.176 10.615 3.148 2.04 1.506 3.446 3.463 4.469 5.639 1.222 2.598 1.838 5.168 1.422 8.481-.354 2.822-1.496 5.125-2.946 7.162-1.409 1.976-3.192 3.613-5.485 4.621-2.459 1.08-5.405 1.84-8.533 1.473-4.194-.492-7.678-2.492-9.904-5.23-.712-.879-1.518-1.951-1.98-3.049-.196-.465-.267-1.033-.457-1.574-.883-2.504-1.267-5.682-.559-8.785.124-.543.274-1.053.457-1.574.187-.535.271-1.105.457-1.574.842-2.115 2.976-4.475 4.774-5.791 2.078-1.519 4.507-2.627 7.67-2.947z"/><path d="m40.923 31.607c-.083.533-.707.572-1.066.711-1.205.463-2.346 1.104-3.403 1.828-2.769 1.898-4.627 4.715-5.79 8.229-.581 1.754-.762 3.738-.762 6.195v14.018c0 3.496.763 6.127 2.083 8.432 1.156 2.018 2.71 3.482 4.723 4.723 1.29.795 2.754 1.406 4.215 1.777 3.279.836 7.242.479 10.056-.914 4.548-2.248 8.125-6.055 8.634-12.342.057-.697-.272-1.934.661-2.285.862.086.782.98.762 1.523-.18 4.893-2.329 8.344-4.774 10.92-2.957 3.115-7.057 4.926-13.001 4.926-5.577 0-11.808.082-17.623-.102-3.125-.098-6.097.123-8.989 0-2.74-.115-5.127-.84-7.06-1.879-3.941-2.117-6.787-5.385-8.025-9.953-.974-3.596-.558-8.209-.558-12.596 0-4.426-.259-9.014.914-12.342 2.219-6.293 7.596-10.889 15.795-11.275 3.808-.18 7.842.051 11.783.051 2.889 0 5.816.051 8.787.051.877-.001 1.907-.22 2.638.304z"/><path d="m45.189 32.165c3.478-.297 6.272.66 8.431 1.879 1.181.668 2.162 1.295 3.047 2.133.885.84 1.596 1.832 2.285 2.846 1.377 2.025 2.449 4.506 2.539 7.77.181 6.492-2.899 10.801-6.907 13.561-2.062 1.42-5.023 2.461-7.821 2.488-3.218.033-6.149-.617-8.329-1.98-1.989-1.244-3.953-2.969-5.181-5.078-.606-1.041-1.097-2.404-1.473-3.656-.802-2.67-.937-6.035-.102-8.939.171-.596.407-1.273.66-1.879.802-1.922 1.517-2.91 2.946-4.471 1.547-1.688 3.407-3.012 5.84-3.809 1.206-.396 2.561-.736 4.065-.865z"/></g></svg>