<svg enable-background="new 0 0 86.217 40.426" viewBox="0 0 86.217 40.426" xmlns="http://www.w3.org/2000/svg"><path clip-rule="evenodd" d="m56.853 8.27c-1.445 1.643-3.004 3.277-4.639 4.787-.52.481-1.096.994-1.382 1.629 1.202.268 2.623.148 4.047.148 4.063 0 8.511.049 12.387-.049.081-.461-.419-.717-.691-.988-.302-.303-.554-.658-.839-.938-2-2.135-4.25-4.057-6.218-6.219-1.475-1.619-3.041-3.156-4.59-4.736-.514-.525-1.153-.965-1.431-1.68 3.772-.23 7.642-.098 11.647-.098.528 0 1.12-.055 1.53.049.603.154 1.508 1.23 1.974 1.777.61.717 1.278 1.326 1.826 1.875 3.701 3.701 7.428 7.691 10.956 11.352 1.204 1.25 2.508 2.408 3.702 3.701.388.42.858.836 1.086 1.381-1.491 1.832-3.245 3.402-4.886 5.084-3.689 3.795-7.353 7.6-11.104 11.35-1.242 1.242-2.375 2.594-3.751 3.703-3.909-.098-8.516.023-12.486-.1.081-.662.741-1.008 1.135-1.432 2.952-3.164 6.16-6.318 9.18-9.475.901-.869 1.713-1.812 2.615-2.715.289-.289.706-.543.79-.986-.464-.23-1.156-.17-1.826-.197-.62-.027-1.408-.098-1.925.049-.519.146-1.539 1.342-1.974 1.777-.686.685-1.276 1.324-1.826 1.875-1.311 1.31-2.472 2.439-3.702 3.75-1.332 1.42-3.106 3.006-4.639 4.688-.284.312-.611.643-.938.939-.558.506-1.367 1.555-1.974 1.727-.9.254-2.5.049-3.701.049-7.559 0-14.52-.047-22.356-.049-1.096 0-2.761.24-3.652-.049-.481-.156-1.488-1.406-1.875-1.826-4.15-4.498-8.598-8.736-12.634-13.275-1.177-1.217-2.269-2.566-3.553-3.85-.26-.259-1.136-.952-1.136-1.331 0-.389.871-1.068 1.135-1.334 1.218-1.217 2.35-2.541 3.553-3.701 2.201-2.648 4.739-4.969 7.106-7.451 2.361-2.477 4.706-4.967 7.107-7.402 8.678-.094 17.411-.002 26.403 0 1.203 0 2.799-.205 3.702.049.712.201 1.392 1.307 2.023 1.975 1.363 1.441 2.572 2.67 3.948 4.047.669.667 1.395 1.313 1.876 2.12zm-7.748 5.181c-1.059-1.146-2.213-2.176-3.356-3.207-6.28.07-13.228-.256-19.197-.049-.915.031-1.872-.168-2.665-.051-.571.086-1.094.699-1.53 1.137-2.497 2.496-4.904 4.85-7.304 7.451-.331.357-1.096 1.033-1.086 1.383.012.42.807 1.004 1.086 1.281.472.473.864.918 1.135 1.283.82.775 1.571 1.621 2.319 2.469 1.295 1.191 2.26 2.408 3.504 3.652.395.395.874 1.025 1.283 1.135.709.187 1.807.021 2.665.049.921.029 1.849 0 2.714 0 5.166 0 11.345-.006 16.73 0 1.057-.975 2.026-2.154 3.01-3.158.325-.332.831-.617.839-1.135-8.188-.203-17.042-.197-24.873-.197-1.162 0-2.314.15-3.405-.1-.132-2.711-.099-5.324-.099-7.897 0-.892-.112-1.84.148-2.664 9.484-.252 19.184.137 29.019-.148-.127-.521-.599-.867-.937-1.234z" fill-rule="evenodd"/></svg>