<svg enable-background="new 0 0 76.044 76.855" viewBox="0 0 76.044 76.855" xmlns="http://www.w3.org/2000/svg"><path clip-rule="evenodd" d="m76.014 36.987c-1.507.257-3.065.146-4.635.146-4.666 0-9.563.034-14.1.048-2.984.01-6.058.084-9.074-.048-3.08-.136-6.183.215-9.172-.098-.19-2.253-.157-4.968 0-7.27 5.199-.225 10.994-.146 16.587-.146.757 0 1.542.117 2.245-.146.149-.498-.185-.954-.391-1.366-.209-.418-.325-.879-.536-1.269-.407-.75-.99-1.468-1.464-2.146-.967-1.385-2.328-2.607-3.61-3.659-2.695-2.213-5.95-3.892-9.953-4.586-9.38-1.626-16.428 2.73-20.686 7.562-1.647 2.038-3.032 4.216-3.903 7.025-.867 2.796-1.459 6.01-1.073 9.611.696 6.491 3.43 10.928 7.318 14.441 3.715 3.356 9.353 5.991 16.1 5.416 6.734-.574 11.031-3.267 14.636-7.123.848-.734 1.452-1.767 2.098-2.732.336-.502.529-1.059.829-1.61.274-.502.726-1.007.684-1.61-.68-.289-1.457-.132-2.196-.146-5.236-.101-11.212.059-16.685-.146-.224-2.141-.129-4.975 0-7.22 9.215-.181 18.676-.098 27.76-.098 2.317 0 4.588-.049 6.977-.049.705 0 1.473-.104 2.146.146.259 1.078.064 2.19-.049 3.22-.333 3.028-1.11 6-2.049 8.586-2.494 6.87-6.546 12.366-11.855 16.49-2.695 2.094-5.519 4.011-8.781 5.367-1.729.718-3.393 1.395-5.22 1.903-3.471.963-8.254 1.57-12.831 1.317-2.019-.111-4.186-.58-6.05-1.024-5.637-1.344-10.27-3.912-14.246-7.025-1.323-1.036-2.591-2.2-3.708-3.366-4.654-4.858-8.285-10.503-10.099-18.247-.942-4.021-1.319-8.496-.781-12.929 1.01-8.315 4.226-14.685 8.392-19.954 4.118-5.209 9.675-9.344 16.441-11.855 2.63-.976 5.382-1.715 8.586-2.049 1.061-.11 2.295-.215 3.415-.292 3.129-.216 6.132.236 8.733.781 5.294 1.108 9.467 3.137 13.368 5.659 1.937 1.253 3.707 2.781 5.171 4.342 1.568 1.671 3.073 3.276 4.439 5.074 1.368 1.8 2.477 3.814 3.513 6.001 1.508 3.182 2.772 6.709 3.366 10.879.192 1.338.408 2.744.343 4.195z" fill-rule="evenodd"/></svg>