<svg enable-background="new 0 0 39.156 52.148" viewBox="0 0 39.156 52.148" xmlns="http://www.w3.org/2000/svg"><path d="m11.292.027c6.535-.289 13.248 1.73 18.289 5.961 5.837 4.744 9.488 12.11 9.563 19.648.124 4.036-.73 8.118-2.5 11.754-2.761 5.656-7.566 10.332-13.404 12.735-3.026 1.296-6.32 1.984-9.611 1.984-.776.069-1.557.014-2.335.039-.041-11.738.006-23.478-.023-35.217-2.241.447-4.302 1.75-5.651 3.597-1.306 1.698-1.919 3.846-1.926 5.971-1.229-.002-2.459.005-3.688-.001-.103-3.264 1.128-6.548 3.298-8.987 1.988-2.259 4.737-3.846 7.714-4.337 2.86-.505 5.883.04 8.413 1.468 3.333 1.83 5.818 5.139 6.576 8.873.736 3.438.023 7.166-1.962 10.074-2.006 3.077-5.417 5.108-9.04 5.598 0 3.061-.003 6.123.007 9.184 5.228-.41 10.305-2.749 13.961-6.512 1.978-2.018 3.65-4.376 4.738-6.993 1.476-3.445 1.99-7.268 1.616-10.987-.64-6.388-4.194-12.412-9.47-16.061-3.233-2.259-7.075-3.622-10.999-3.976-1.187-.128-2.401.024-3.581-.096.013-1.241-.001-2.48.015-3.719zm3.716 16.902c.003 6.184-.012 12.369.007 18.553 4.141-.73 7.434-4.593 7.521-8.792.345-4.514-3.079-8.938-7.528-9.761z"/></svg>