<svg enable-background="new 0 0 66.005 72.179" viewBox="0 0 66.005 72.179" xmlns="http://www.w3.org/2000/svg"><g clip-rule="evenodd" fill-rule="evenodd"><path d="m9.233 21.191c1.669-1.604 3.678-2.971 5.888-4.082.713-.357 1.5-.654 2.015-1.291.267-3.928.104-7.967.155-11.828.013-.99-.288-3.129.258-3.668.408-.402 2.578-.297 3.719-.258 1.23.043 2.71.037 3.874 0 4.058-.127 7.713.01 11.673-.053 2.619-.039 4.804.053 7.696.053 1.077 0 3.396-.219 3.823.154.547.482.23 2.789.258 3.771.08 2.783.049 5.189.104 7.955.024 1.24-.154 3.104.207 3.924.224.51 1.296.92 1.911 1.24 4.73 2.471 8.381 6.203 11.105 10.744 1.52 2.533 2.765 5.633 3.512 8.988.77 3.455.725 7.83.104 11.416-.877 5.06-3.089 9.478-5.837 12.912-.905 1.131-1.934 2.262-2.996 3.203-3.236 2.869-7.065 5.486-11.932 6.818-.782.213-1.646.463-2.531.566-.893.105-1.809.324-2.738.363-2.087.088-4.176.051-6.198.051-6.283 0-11.432-.701-15.961-2.635-7.103-3.029-12.365-8.585-15.392-15.802-.31-.74-.603-1.529-.827-2.324-.228-.812-.31-1.662-.516-2.584-.742-3.312-.817-7.775-.155-11.467.172-.961.226-1.848.465-2.686 1.598-5.621 4.461-9.926 8.316-13.48zm37.81-7.647c-.044-2.469 0-4.91 0-7.437 0-.945.131-3.014-.258-3.564-.314-.443-1.666-.389-2.531-.361-4.645.146-9.563-.229-14.102-.104-1.886.053-4.031-.105-5.785.053-1.648.148-4.024-.365-5.217.361-.375 1.1-.155 2.332-.155 3.564 0 1.211.021 2.447-.051 3.719-.055.963.103 2.254.103 3.615 0 1.131.288 2.982-.103 3.772-.23.461-1.358.709-1.912 1.033-.658.385-1.42.818-1.859 1.084-3.814 2.314-6.742 4.963-9.091 8.729-2.913 4.674-5.218 11.357-3.977 18.957 1.087 6.656 4.079 11.754 8.162 15.549 4.259 3.957 9.196 6.453 16.477 7.283 1.862.211 3.767.139 5.682.205 1.978.068 3.941.17 5.785.053 3.644-.234 6.963-.904 9.711-2.17 5.362-2.469 9.662-6.168 12.552-11.209 1.414-2.467 2.617-5.346 3.254-8.625.648-3.338.643-7.408-.052-10.899-1.304-6.545-4.439-11.301-8.729-15.031-1.728-1.41-3.681-2.74-5.733-3.771-.691-.348-1.532-.52-2.066-1.137-.182-1.011-.084-2.479-.105-3.669z"/><path d="m40.793 8.226c.497.781.396 1.859.413 2.893.052 3.125-.015 6.863.155 9.916.424.617 1.18.674 1.808.93.655.268 1.368.428 2.015.672 3.874 1.467 6.896 3.984 9.194 7.076 2.669 3.826 4.563 8.459 4.132 14.773-.376 5.525-2.751 10.133-5.682 13.273-2.811 3.014-7.11 5.941-12.345 6.613-2.776.355-6.013.316-9.194.205-3.188-.109-5.929-.219-8.471-.98-4.791-1.434-8.425-4.037-11.208-7.748-2.668-3.559-4.814-8.422-4.391-14.463.411-5.861 2.662-9.957 5.63-13.326 2.246-2.551 4.998-4.482 8.523-5.734 1.081-.383 2.328-.59 3.357-1.342.2-2.961.258-6.748.258-10.072 0-1.5-.39-2.844.982-2.996 1.165-.131 2.49-.004 3.719.051 3.69.167 7.764-.366 11.105.259zm-6.456 2.064c-.493 1.943-.259 4.101-.259 6.303 0 4.381.017 8.668.052 12.965.018 2.193-.129 4.377-.052 6.56.249 6.992.155 15.242.155 22.777 0 1.068-.111 2.701.258 3.1.342.369 1.518.289 2.118.311 5.769.199 9.902-2.051 12.758-4.391 3.478-2.85 6.103-7.049 6.973-12.654 1.005-6.479-1.508-11.52-4.235-14.928-1.481-1.852-3.205-3.305-5.269-4.547-1.445-.869-3.171-1.727-5.165-2.17-.694-.152-1.622-.248-1.859-.619-.35-.545-.194-2.285-.155-3.15.105-2.312.052-4.353.052-6.561 0-1.088.16-2.178-.309-2.996-1.085-.638-3.872-.496-5.063 0zm-7.025 51.758c.961.098 3.957.459 4.545-.104.303-.291.288-1.963.31-2.945.217-9.731 0-19.84 0-29.234 0-5.311 0-10.66 0-16.271 0-1.014.173-2.654-.155-3.15-.39-.592-2.83-.449-3.564-.414-.52.025-1.29-.021-1.549.465-.36.805-.224 1.943-.207 3.049.017 1.063-.115 2.184-.103 3.305.01.947.155 2.055.155 3.254 0 1.006.165 2.689-.258 3.152-.202.221-.852.299-1.395.412-3.543.742-6.515 2.271-8.729 4.184-2.589 2.236-4.71 5.219-5.94 8.834-1.329 3.902-1.208 8.914.155 12.654 1.316 3.613 3.443 6.402 6.095 8.678 2.838 2.164 6.088 3.662 10.64 4.131z"/><path d="m26.64 56.417c-1.207.084-2.285-.244-3.202-.619-2.078-.854-3.961-2.254-5.269-3.822-1.765-2.119-3.14-4.963-3.357-8.213-.198-2.951.524-5.803 1.808-8.008 2.009-3.451 4.804-5.791 9.246-6.869.122-.029.355-.127.568 0 .52.32.361 1.197.361 1.91 0 7.266.052 15.449.052 22.936 0 .902.21 1.875-.207 2.685zm-1.756-5.371c.037-.939-.021-1.947 0-2.842.113-4.734-.103-9.545-.103-14.412 0-.996.122-2.393-.878-2.117-1.261.348-2.882 1.607-3.719 2.48-1.329 1.383-2.574 3.588-3.047 5.732-1.298 5.881 1.741 10.469 5.062 12.758.627.433 1.414 1.008 2.273.879.493-.568.376-1.575.412-2.478z"/><path d="m39.864 56.521c-.396-.588-.157-1.412-.155-2.067.015-6.693.008-14.084-.052-20.92-.006-.744.063-1.568.052-2.375-.01-.734-.147-1.562.207-2.119 1.183-.246 2.395.496 3.306 1.033.568.336 1.176.615 1.705.982 3.413 2.375 6.319 6.188 6.301 11.725-.018 5.728-3.202 9.807-6.87 12.139-.635.404-1.295.777-2.066 1.084-.712.283-1.544.77-2.428.518zm1.446-22.676c-.024 2.287.052 4.854.052 7.387 0 3.371-.037 6.754 0 9.916.009.85-.097 2.332.516 2.531.738.24 2.298-1.074 2.892-1.6 2.453-2.176 4.224-5.094 4.339-9.35.114-4.217-2.059-7.322-4.287-9.402-.684-.637-2.071-1.713-3.151-1.652-.536.572-.354 1.447-.361 2.17z"/></g></svg>