<svg enable-background="new 0 0 83.562 55.703" viewBox="0 0 83.562 55.703" xmlns="http://www.w3.org/2000/svg"><path clip-rule="evenodd" d="m83.451.254c.204 13.434.079 26.357 0 39.048-.046.022-.091.044-.102.102-4.649.162-10.079-.102-14.796.153-.322 1.204-.203 2.554-.203 3.915 0 3.967.083 8.328-.103 12.151-16.936.101-35.709.141-53.132-.102-.276-5.235.115-10.638-.102-15.965-.045-.022-.091-.045-.101-.102-4.752-.296-10.307.106-14.846-.254-.109-11.5-.05-24.518-.05-36.81 0-.791-.057-2.081.203-2.288.037-.048.092-.078.152-.102 24.601-.001 48.581.153 72.962.152 3.396 0 6.773-.206 10.118.102zm-20.236 7.932c-4.068-.023-8.193.019-12.355-.051-13.848-.231-28.59.106-42.709 0-.27.887-.152 1.854-.152 2.796v2.949c0 4.804.148 9.978-.051 14.491-.042.955-.084 1.945.152 2.847 1.059.179 2.294.095 3.457.051 1.208-.045 2.411.189 3.407-.102.195-2.371.065-4.911.152-7.423.085-2.478-.325-5.093.152-7.322 16.74-.06 33.458.051 49.879.051 1.06 0 2.164-.125 3.203.152.142 4.507-.124 9.948.152 14.694 2.073.14 4.979.228 6.915-.051.119-7.503.267-15.829 0-22.982-4.009-.284-8.104-.078-12.202-.1zm-11.593 16.219c-9.597.275-19.375-.281-28.523.102-.266.873-.152 1.815-.152 2.745-.001 6.744-.083 13.773.101 20.287 12.482.164 24.654.244 37.167.051.196-1.284.096-2.7.102-4.067.005-1.36.099-2.77-.102-3.966-9.307-.186-18.054-.153-27.456-.153-.576 0-1.231.117-1.78-.153-.092-1.227-.051-2.609-.051-3.966 0-1.347-.122-2.747.152-3.864 7.224.102 14.836-.333 22.016 0 2.393.111 4.822.031 7.118-.153.269-.924.152-2.165.152-3.356 0-1.19.116-2.432-.152-3.356-2.819-.067-5.724-.233-8.592-.151z" fill-rule="evenodd"/></svg>