<svg enable-background="new 0 0 74.854 76.939" viewBox="0 0 74.854 76.939" xmlns="http://www.w3.org/2000/svg"><path clip-rule="evenodd" d="m.103 76.739c-.22-2.503-.023-5.13 0-7.664.434-.577 1.091-.939 1.666-1.333 1.155-.794 2.275-1.658 3.428-2.476.586-.416 1.096-.872 1.666-1.285 2.287-1.659 4.685-3.194 6.95-4.903 2.256-1.703 4.632-3.27 6.95-4.903 4.609-3.249 9.241-6.501 13.853-9.807 4.596-3.294 9.238-6.547 13.853-9.855 1.995-1.429 3.981-2.9 5.998-4.332.261-.185.739-.294.761-.714-3.291-.214-6.887-.045-10.235-.095-7.644 5.049-15.004 10.494-22.517 15.709-4.708 3.269-9.325 6.625-13.996 9.949-2.277 1.621-4.563 3.353-6.902 4.999-.434.305-.875.815-1.476.809-.11-2.619-.016-5.442-.047-8.14 1.284-1.037 2.646-1.993 3.999-2.952 1.356-.961 2.681-1.961 4.046-2.904 7.637-5.356 15.242-10.86 22.898-16.233.481-.338 1.131-.592 1.38-1.19-.783-.227-1.65-.163-2.476-.143-1.659.04-3.3.047-5.094.047-.834 0-1.806-.152-2.571 0-.406.082-.95.621-1.428.952-3.261 2.261-6.452 4.589-9.616 6.808-1.874 1.313-3.744 2.501-5.475 3.904-1.285 1.041-2.76 1.912-4.142 2.904-.425.305-.847.793-1.428.809-.276-5.577.021-11.347-.048-16.995-.092-7.608 0-16.157 0-24.897.001-.799-.098-2.417.143-2.713.038-.044.09-.072.146-.095 9.113.048 18.914.047 28.134.047 4.838 0 9.585-.131 13.663.524 3.934.632 7.476 1.976 10.664 3.475 4.798 2.256 8.792 5.379 12.091 9.188 1.108 1.279 2.221 2.523 3.19 3.904 2.863 4.079 5.158 9.12 6.141 15.138.331 2.026.647 4.194.571 6.379-.316 9.061-2.781 15.946-6.807 21.565-3.952 5.514-8.976 9.985-15.329 12.996-3.208 1.52-6.815 2.759-10.854 3.332-4.199.596-9.011.333-13.758.333-9.347 0-19.06.094-27.992-.142z" fill-rule="evenodd"/></svg>