<svg enable-background="new 0 0 17.115 14.767" viewBox="0 0 17.115 14.767" xmlns="http://www.w3.org/2000/svg"><path d="m3.733.973c2.043-1.186 4.661-1.29 6.801-.299 1.74.801 3.151 2.295 3.83 4.089.213.522.327 1.075.425 1.628-.115-.088-.206-.206-.33-.284-.345-.232-.804-.275-1.188-.116-.371.153-.666.485-.763.875-.083.334-.036.704.155.994.229.391.687.616 1.134.616.29-.024.582-.122.799-.321.089-.078.161-.171.241-.257-.076.749-.218 1.496-.506 2.194-.324.813-.797 1.564-1.378 2.218-.339.343-.676.691-1.068.973-.641.483-1.361.861-2.122 1.115-1.694.549-3.585.487-5.228-.207-2.006-.84-3.616-2.598-4.229-4.691-.369-1.25-.407-2.596-.099-3.863.316-1.328 1.021-2.562 2.006-3.507.446-.457.969-.835 1.52-1.157zm2.894 1.222c-.91.134-1.781.518-2.497 1.095-1.034.816-1.749 2.034-1.929 3.343-.087.621-.068 1.258.065 1.872.271 1.241 1.018 2.368 2.046 3.112 1.17.868 2.711 1.204 4.138.915 1.435-.272 2.719-1.191 3.484-2.43-.929-.54-1.56-1.546-1.65-2.615-.004-.215-.004-.43.002-.645.059-.464.19-.925.429-1.329.25-.451.62-.827 1.033-1.132-.302-.412-.654-.789-1.055-1.105-1.126-.907-2.639-1.308-4.066-1.081z"/><path d="m15.285 4.16c.49.274.935.643 1.244 1.116.424.623.629 1.392.578 2.143-.052.66-.283 1.312-.696 1.834-.251.342-.583.615-.939.844.264-.736.399-1.514.45-2.293-.009-.37.021-.742-.021-1.11-.074-.868-.283-1.727-.616-2.534z"/></svg>