<svg enable-background="new 0 0 64.928 72.836" viewBox="0 0 64.928 72.836" xmlns="http://www.w3.org/2000/svg"><g clip-rule="evenodd" fill-rule="evenodd"><path d="m28.315.129c.306 1.104.093 2.283.147 3.414.154 3.233 0 6.809 0 10.34 0 9.275.211 18.394 0 27.802-.055 2.471-.029 4.723.39 6.584.809 3.589 3.631 6.073 7.024 7.17 1.925.622 4.235.362 6-.391 2.973-1.269 5.663-4.206 6.097-8.048.539-4.783-1.837-7.753-4.536-9.56-1.506-1.008-3.347-1.512-5.56-1.512-2.088 0-4.394-.02-6.682-.098-.237-1.262-.146-2.657-.146-4.097 0-2.778 0-5.749 0-8.584 0-1.407-.079-2.808.146-4.049 4.784-.033 9.042-.306 12.779.488 3.631.772 6.681 2.236 9.316 4.048 5.266 3.621 9.071 8.83 10.877 15.851 2.081 8.093-.395 16.239-3.707 21.363-3.384 5.234-8.762 9.353-15.559 11.169-8.133 2.172-16.311-.325-21.363-3.707-1.248-.836-2.449-2.011-3.561-3.122-3.311-3.311-6.062-7.366-7.413-12.632-.932-3.629-.83-8.027-.83-12.535 0-13.265-.08-27.058.098-39.896 5.366-.177 11.07-.163 16.483.002z"/><path d="m9.244 19.102c.253 1.296.147 2.688.147 4.098 0 1.385.017 2.807-.049 4.194-.132 2.79.317 5.649-.098 8.243-3.012.183-6.026.083-9.072-.05-.264-1.288-.146-2.718-.146-4.146 0-3.524.06-7.208.049-10.584-.002-.601-.246-1.321.195-1.805 2.863-.048 6.193-.144 8.974.05z"/></g></svg>