<svg enable-background="new 0 0 75.481 72.673" viewBox="0 0 75.481 72.673" xmlns="http://www.w3.org/2000/svg"><g clip-rule="evenodd" fill-rule="evenodd"><path d="m30.429.004c.674-.089 1.136 1.244 1.481 1.876 2.286 4.185 4.497 8.771 6.664 13.081.649 1.29 1.648 2.826 1.777 4.591.208 2.866-.889 4.647-1.876 6.517-1.537 2.91-2.866 5.401-4.394 8.441-.271.539-.783 1.264-.79 1.776-.008.545.522 1.33.839 1.926 1.671 3.14 3.023 5.892 4.69 9.133.943 1.834 1.749 3.141 1.629 5.775-.091 2.004-1.219 3.779-2.024 5.232-2.204 3.976-3.995 7.829-6.22 11.896-.296.543-.926 2.228-1.53 2.222-.687-.007-1.33-.718-1.925-1.086-1.305-.809-2.307-1.389-3.703-2.222-.522-.312-1.554-.835-1.629-1.333-.064-.429.386-1.299.642-1.925 1.254-3.075 2.496-5.807 3.752-8.935.506-1.26 1.135-2.506 1.234-3.85.136-1.842-.39-3.275-.987-4.739-1.376-3.373-2.727-6.484-4.196-10.021-.277-.668-.778-1.434-.79-2.024-.012-.584.485-1.485.741-2.123 1.411-3.521 2.744-6.495 4.196-10.021.582-1.412 1.16-2.798 1.037-4.641-.099-1.472-.694-2.702-1.234-3.899-1.382-3.064-2.393-5.87-3.702-9.132-.248-.618-.737-1.378-.691-1.876.054-.589 1.12-1.111 1.53-1.382 1.293-.855 2.321-1.357 3.603-2.173.486-.307 1.317-1.011 1.876-1.084z"/><path d="m18.482.054c.446-.094.572.031.839.839 1.774 5.351 3.385 10.405 5.084 15.747.254.798.611 1.649.691 2.468.193 1.977-.264 3.407-.691 4.789-1.071 3.463-2.153 6.679-3.308 10.267-.217.676-.577 1.465-.592 2.122-.021.879.672 2.512.987 3.456.772 2.315 1.382 4.362 2.123 6.713.358 1.14.895 2.285 1.085 3.308.06.322-.044.598 0 .889.06.395.4.781.445 1.383.157 2.13-.731 3.829-1.234 5.43-1.316 4.182-2.612 8.261-3.999 12.588-.223.696-.6 2.186-1.037 2.271-.54.105-1.494-.914-1.975-1.283-1.339-1.029-2.338-1.776-3.653-2.814-.542-.428-1.483-.921-1.629-1.579-.195-.877.384-2.371.592-3.406.49-2.436.931-4.237 1.432-6.664.361-1.749.851-3.073.691-5.183-.09-1.191-.488-2.502-.789-3.802-.719-3.095-1.397-6.262-2.073-9.429-.13-.609-.333-1.326-.346-1.925-.025-1.169.514-2.573.79-3.851.568-2.631 1.048-4.993 1.679-7.603.309-1.278.653-2.658.74-3.85.138-1.9-.353-3.318-.691-4.937-.585-2.804-1.224-5.556-1.777-8.59-.117-.642-.338-1.251-.247-1.728.124-.644.979-1.162 1.53-1.579.634-.482 1.269-.883 1.777-1.284.857-.676 1.679-1.36 2.567-2.073.296-.236.663-.622.989-.69z"/><path d="m68.834 30.363c-1.397 1.471-2.874 2.891-4.394 4.492-.367.387-1.313 1.11-1.333 1.63-.019.509 1.054 1.363 1.53 1.876 1.672 1.799 3.341 3.489 5.035 5.183 2.152 2.152 5.231 4.415 5.726 7.898.429 3.017-.896 5.379-2.419 6.96-3.265 3.391-6.084 6.28-9.478 9.676-1.068 1.068-2.421 2.322-3.653 3.554-.394.395-.829.993-1.333 1.037-.705.062-1.598-.521-2.221-.79-1.519-.657-2.593-1.028-4.196-1.728-.546-.238-1.79-.58-1.876-1.086-.139-.811 1.194-1.438 1.432-1.975 1.516-1.874 3.13-3.648 4.64-5.528 1.048-1.211 2.108-2.414 3.159-3.653 1.018-1.2 1.92-2.704 2.074-4.689.357-4.636-2.963-6.389-4.838-9.083-1.562-1.903-3.188-3.732-4.789-5.628-.524-.621-1.164-1.219-1.432-2.023.164-.676.701-1.183 1.136-1.679 1.286-1.47 2.541-3.034 3.9-4.492 1.486-2.144 3.718-3.83 4.985-6.171 1.159-2.14 1.195-5.289.05-7.404-.647-1.194-1.658-2.263-2.518-3.308-2.215-2.69-4.274-5.195-6.615-7.947-.39-.459-1.243-1.185-1.185-1.728.064-.585 1.245-.843 1.827-1.086 1.558-.653 2.563-1.123 4.097-1.729.583-.229 1.619-.957 2.221-.888.832.095 1.763 1.368 2.419 2.023 2.197 2.197 4.418 4.615 6.516 6.714 1.491 1.491 2.762 2.911 4.344 4.492 1.638 1.638 2.992 3.032 3.554 5.282 1.05 4.204-1.47 6.853-3.456 8.786-.965.943-1.782 1.996-2.909 3.012z"/><path d="m45.435 2.226c3.036 3.957 5.927 8.059 8.935 12.045 1.649 2.07 3.152 4.408 2.37 7.897-.345 1.539-1.169 2.626-2.073 3.9-2.121 2.987-4.121 5.539-6.319 8.589-.376.523-1.127 1.337-1.135 1.827-.009.545 1.096 1.922 1.432 2.369 1.616 2.153 3.333 4.407 4.838 6.417 1.005 1.343 2.285 2.943 2.912 4.641.687 1.855.607 4.319-.296 6.22-.746 1.568-1.994 2.895-2.962 4.245-2.033 2.834-3.986 5.342-6.17 8.244-.652.866-1.567 2.035-2.32 3.109-.237.34-.625.796-.938.84-.606.085-1.508-.565-2.024-.84-1.304-.693-2.319-1.224-3.751-1.974-.533-.279-1.597-.705-1.678-1.186-.101-.59.692-1.522 1.037-2.072 1.196-1.917 2.495-3.873 3.554-5.776.363-.652.696-1.346 1.086-2.023 1.09-1.898 2.743-3.61 2.518-6.764-.179-2.499-1.708-4.353-2.814-6.121-.394-.629-.654-1.301-1.037-1.925-1.167-1.906-2.272-3.59-3.406-5.479-.363-.605-.877-1.169-1.037-1.925.454-1.458 1.216-2.383 1.975-3.555.726-1.121 1.405-2.225 2.122-3.406.339-.558.615-1.181.987-1.776 1.347-2.157 3.451-4.391 3.209-7.998-.104-1.546-.714-2.9-1.432-4.097-.704-1.173-1.588-2.233-2.172-3.308-.208-.383-.292-.775-.494-1.135-.964-1.713-2.028-3.238-3.11-5.035-.324-.54-1.185-1.62-1.086-2.173.091-.509 1.19-.866 1.629-1.085 1.803-.9 3.688-1.947 5.38-2.716 1.046-.473 1.633 1.512 2.27 2.026z"/><path d="m7.82 72.372c-.476-.01-.826-.448-1.135-.741-1.666-1.574-3.181-3.23-4.887-4.936-.59-.591-1.484-1.432-1.678-2.222-.231-.942-.037-2.324-.049-3.555-.183-17.337.061-35.344-.051-53.114.426-.75 1.146-1.295 1.777-1.926 1.52-1.519 3.039-3.019 4.591-4.689.618-.665 1.421-1.734 1.679-.049.727 4.758 1.231 9.275 1.826 13.92.325 2.532.691 4.896.395 7.553-.083.747-.314 1.461-.395 2.172-.11.966-.171 1.927-.296 2.863-.244 1.838-.517 3.638-.741 5.578-.122 1.061-.334 2.101-.296 3.209.027.812.239 1.713.345 2.616.105.884.184 1.78.296 2.666.228 1.787.594 3.581.741 5.184.036.399-.094.758-.05 1.086.049.363.278.568.346.938.569 3.109.185 5.98-.296 9.034-.514 3.263-.838 6.593-1.234 9.823-.098.795-.28 1.58-.395 2.369-.112.766-.022 1.639-.493 2.221z"/></g></svg>