<svg enable-background="new 0 0 89.729 26.416" viewBox="0 0 89.729 26.416" xmlns="http://www.w3.org/2000/svg"><g clip-rule="evenodd" fill-rule="evenodd"><path d="m58.951 11.513c-3.793.039-8.312.222-12.174 0-.311-2.068.101-4.858-.21-6.927-.533-.274-1.903-.202-2.519-.052-.284 1.253-.158 2.756-.158 4.25 0 4.269-.092 8.803.105 13.014.621.307 1.816.228 2.571.105.352-2.3-.066-5.052.263-7.294 3.816-.156 8.569-.31 12.174 0 .178 3.651.103 7.27-1.574 9.183-2.144 2.445-7.219 2.624-11.649 2.624-5.524 0-11.495-.054-13.171-4.251-1.08-2.703-1.018-7.321-.997-11.019.02-3.662.219-7.756 2.623-9.498 2.051-1.485 4.962-1.412 8.449-1.574 2.24-.104 5.372-.105 7.714.052 2.854.193 5.313.599 6.821 1.994 1.752 1.884 2.077 5.925 1.732 9.393z"/><path d="m25.683 14.819c1.275 2.7 2.57 5.27 3.936 7.923.445.866 1.035 1.692 1.26 2.676-3.841.244-8.144.032-11.86.053-.95-1.554-1.606-3.383-2.413-5.248-.534-1.233-1.181-2.653-1.784-3.988-.209-.461-.493-.911-.577-1.311-.311-1.467-.053-3.57-.053-5.195 0-1.77.043-3.476-.053-5.195-.677-.237-1.729-.139-2.571-.105-.356.756-.21 1.668-.21 2.518.001 4.378-.001 8.95 0 13.329 0 1.753.225 3.496-.104 5.142-1.776.096-3.707.053-5.615.053-1.898 0-3.85.125-5.51-.158-.189-6.857-.104-14.532-.105-21.83 0-.831-.107-2.679.158-2.991.038-.049.095-.08.157-.105 5.671.01 11.757 0 17.684 0 2.486 0 4.954-.203 6.612.629 1.317.661 2.305 2.079 2.729 3.831.403 1.664.568 3.929.21 5.982-.056.319-.178.57-.367.892.057 1.6-.86 2.222-1.524 3.098z"/><path d="m89.598.598c.271 3.955.045 8.06 0 12.069-.013 1.051.104 2.129.104 3.201.001 3.231.099 6.501-.104 9.603-3.508.122-7.351.159-11.021.052-.283-3.361-.157-7.061-.157-10.6 0-1.75-.001-3.482 0-5.143.001-1.721.082-3.395-.157-4.985-.658-.18-1.908-.153-2.571 0-.251 1.53-.11 3.104-.157 4.723-.049 1.665.268 3.608 0 5.038-.17.905-.759 1.829-1.155 2.781-.793 1.909-1.509 3.7-2.309 5.562-.395.921-.716 1.871-1.311 2.624-1.961.08-4.023.074-6.035.053-1.962-.021-3.988.137-5.772-.158.001-.576.316-1.12.525-1.626 3.185-7.74 6.535-15.617 9.865-23.299 4.798.029 10.437-.053 15.374-.053 1.668 0 3.321-.087 4.881.158z"/></g></svg>