<svg enable-background="new 0 0 74.127 75.913" viewBox="0 0 74.127 75.913" xmlns="http://www.w3.org/2000/svg"><g clip-rule="evenodd" fill-rule="evenodd"><path d="m73.785 33.968c-1.29.252-3.328.099-4.732 0-.367-.912-.44-1.886-.663-2.792-.688-2.805-1.437-5.317-2.65-7.666-.81-1.568-1.581-3.01-2.508-4.401-.902-1.353-1.905-2.615-3.076-3.786-4.594-4.595-10.057-8.373-17.936-9.607-8.957-1.402-16.819 1.129-22.1 4.685-5.608 3.776-9.83 8.578-12.446 15.096-1.347 3.355-2.322 6.894-2.461 11.311-.14 4.472.476 8.496 1.751 12.02 1.184 3.272 2.699 6.373 4.78 8.991 4.227 5.319 9.025 8.954 16.185 11.357 3.175 1.066 7.859 1.868 12.209 1.278 4.29-.581 7.5-1.499 10.695-3.076 3.01-1.486 5.733-3.218 8.186-5.537 4.746-4.75 8.785-10.937 9.796-19.687.077-.663.245-1.531 0-1.798-.346-.377-2.164-.189-2.934-.189-6.363 0-12.402 0-18.74 0-.996 0-2.025.115-2.934-.142-.187-.671-.142-1.613-.142-2.508 0-.91-.089-1.877.189-2.555 7.509-.192 14.485-.095 22.289-.095 2.497 0 4.954-.08 7.288.189.021.042.041.084.095.094.595 5.132-.207 9.898-1.467 14.008-.332 1.083-.527 2.14-.899 3.123-1.049 2.77-2.534 5.434-4.165 7.761-4.37 6.238-10.474 11.048-18.171 13.725-3.929 1.366-8.775 2.423-13.771 2.082-4.788-.327-9.185-1.414-12.825-3.123-3.638-1.708-7.022-3.591-9.796-6.152-2.763-2.55-5.309-5.306-7.24-8.708-1.55-2.583-3.022-5.368-3.88-8.518-.886-3.25-1.625-6.693-1.704-10.695-.159-8.039 2.233-14.397 5.064-19.734 1.333-2.512 3.299-4.93 5.3-7.098 2.005-2.173 4.219-4.151 6.672-5.726 2.537-1.629 5.245-3.103 8.282-4.117 1.558-.52 3.125-1.056 4.874-1.325 1.779-.273 3.593-.522 5.584-.615 5.989-.278 11.177 1.049 15.38 2.745 4.374 1.764 7.892 4.231 10.932 7.051 3.761 3.676 6.981 7.992 9.228 13.298.451 1.064.709 2.24 1.088 3.407.363 1.117.7 2.317.947 3.549.246 1.229.564 2.555.426 3.88z"/><path d="m68.011 33.873c-.88.337-1.914.189-2.887.189-6.057 0-12.018-.047-18.03-.047-.962 0-1.967.116-2.887-.142-.204-1.5-.191-3.509 0-5.016 1.329-.255 2.777-.142 4.212-.142h10.789c.674 0 1.374.107 1.988-.142.045-.825-.423-1.553-.757-2.224-1.013-2.036-2.124-3.982-3.549-5.632-3.082-3.861-7.364-6.356-12.588-8.045-3.344-1.081-8.23-1.495-12.067-.568-.953.23-1.868.437-2.745.71-.837.261-1.618.66-2.413.994-6.456 2.708-10.989 7.292-13.724 13.771-1.374 3.256-2.338 7.106-2.129 11.5.408 8.555 4.057 14.312 8.755 18.74 4.596 4.028 11.524 7.663 20.633 6.483 2.555-.331 5.06-1.125 7.099-2.035 6.151-2.744 10.785-7.735 13.44-14.055.68-1.618 1.205-3.392 1.562-5.3.114-.611.082-1.279.426-1.846.653-.239 1.613-.142 2.508-.142.908 0 1.845-.101 2.461.189.156 1.406-.225 2.781-.473 4.07-.248 1.283-.626 2.543-1.041 3.691-2.521 6.966-6.731 12.036-12.351 15.9-1.852 1.273-4.018 2.315-6.294 3.171-4.438 1.667-10.519 2.579-16.327 1.467-2.489-.477-5.042-1.295-7.146-2.271-8.42-3.904-14.635-10.877-17.417-20.301-1.423-4.821-1.688-11.694-.236-16.658 1.454-4.971 3.339-9.104 6.247-12.588 1.316-1.62 2.808-3.043 4.448-4.259.417-.309.74-.715 1.136-1.041 3.531-2.91 8.225-4.892 13.676-5.915 5.767-1.083 12.499.123 16.658 1.988 1.798.806 3.377 1.651 4.874 2.602 1.518.965 2.776 2.148 4.117 3.312 4.657 4.046 8 9.445 9.607 16.516.223.985.622 2.015.425 3.076z"/><path d="m60.155 27.768c-.755.251-1.78.142-2.745.142-.987 0-1.974.027-2.792-.095-1.179-1.724-2.355-3.45-3.88-4.827-2.634-2.371-5.929-4.397-10.175-5.064-4.794-.753-9.302.218-12.683 1.988-3.202 1.676-5.851 4.236-7.808 7.43-1.925 3.14-3.284 7.333-2.981 12.115.279 4.419 2.017 8.189 4.212 11.026 2.313 2.991 4.992 5.1 8.565 6.625 3.567 1.523 8.699 1.891 12.967.568 3.92-1.215 6.898-3.174 9.275-5.915.679-.773 1.253-1.65 1.846-2.508.474-.961 1.143-1.728 1.373-2.934-.865-.31-1.811-.125-2.745-.142-2.69-.047-5.619.069-8.376-.142-.22-1.24-.241-3.596 0-4.969 1.407-.257 2.945-.142 4.448-.142h11.311c.707 0 1.455-.123 2.082.189.161 1.368-.23 2.691-.568 3.88-1.009 3.56-2.604 6.683-4.685 9.228-2.166 2.649-4.528 4.587-7.525 6.389-.969.583-2.004.994-3.123 1.467-4.464 1.884-10.97 2.258-15.854.71-6.803-2.156-12.085-6.478-15.286-12.493-1.06-1.993-1.961-4.261-2.508-6.768-1.235-5.66-.262-11.593 1.562-15.806 1.902-4.392 4.697-7.661 8.14-10.364 2.602-2.043 5.86-3.436 9.559-4.354.639-.159 1.265-.277 1.94-.379 5.383-.807 10.79.543 14.481 2.319 3.435 1.653 6.171 3.769 8.329 6.578 1.159 1.328 2.121 2.806 2.981 4.448.277.529.648 1.124.663 1.8z"/></g></svg>