<svg enable-background="new 0 0 83.444 47.354" viewBox="0 0 83.444 47.354" xmlns="http://www.w3.org/2000/svg"><g clip-rule="evenodd" fill-rule="evenodd"><path d="m21.707.134c-.141 1.587-.967 2.915-1.195 4.58.397-.026.663-.443.896-.697 1.755-1.902 4.205-3.747 7.717-3.983 1.505-.101 3.108.05 4.68.05 3.007 0 6.032.018 8.962.1 1.506.042 3.019-.167 4.431.149-.072.896-.438 1.774-.697 2.639-.523 1.747-1.104 3.48-1.643 5.227-.263.854-.449 1.74-.896 2.489-5.836.508-12.54-.814-17.077.548-4.611 1.385-7.327 4.398-9.211 8.613-.918 2.057-1.535 4.392-2.19 6.721-1.616 5.745-3.285 11.549-5.028 17.227-.341 1.109-.614 2.269-1.145 3.286-3.118.067-6.215.151-9.311-.049.044-1.036.453-2.008.747-2.987 3.788-12.614 7.423-25.558 11.251-38.237.295-.974.617-1.964.897-2.938.271-.945.406-1.971.996-2.788 2.517-.019 5.321-.155 7.816.05z"/><path d="m57.654.333c-.109 1.47-1.026 2.822-.996 4.432.518-.106.709-.629.996-.946.944-1.04 2.105-1.79 3.485-2.489.924-.469 1.855-.907 2.987-1.045 1.116-.137 2.466-.103 3.834-.05 4.928.19 10.628-.14 15.484.199-.077.9-.385 1.779-.647 2.639-.525 1.719-1.126 3.397-1.643 5.128-.259.867-.279 1.837-.747 2.639-2.925.082-5.857 0-8.862 0-3.085 0-6.046-.181-8.414.498-2.276.653-4.129 1.846-5.676 3.236-1.617 1.454-2.642 3.187-3.585 5.328-.921 2.091-1.515 4.366-2.24 6.671-.711 2.26-1.331 4.622-1.992 6.92-1.331 4.63-2.609 9.31-4.083 13.742-2.981.184-6.612.15-9.41-.05-.019-1.036.5-1.975.796-2.938.879-2.855 1.75-5.808 2.639-8.763.306-1.017.454-2.058.747-3.087 2.477-8.684 5.295-17.478 7.916-26.288.265-.889.545-1.917.847-2.938.279-.946.647-2.25.996-2.838.037-.046.09-.075.149-.099 2.441.066 5.144-.132 7.419.099z"/><path d="m35.299 18.108c.019.969-.403 1.861-.647 2.788-.24.91-.527 1.833-.796 2.738-.541 1.812-.93 3.686-1.643 5.377-1.316.104-2.801 0-4.232 0-1.429 0-2.838.151-3.983-.1.143-1.247.601-2.445.946-3.635.36-1.236.608-2.562 1.096-3.585.6-1.258 1.916-2.413 3.236-2.987 1.414-.613 4.049-1.042 6.023-.596z"/><path d="m29.773 37.376c-.249 1.662-.838 3.292-1.294 4.929-.454 1.63-.933 3.249-1.494 4.78-1.332.216-2.778.045-4.232.05-1.406.004-2.932.221-4.182-.1.258-1.66.889-3.279 1.394-4.929.499-1.631.847-3.341 1.543-4.829 1.767-.089 4.356-.05 6.372-.05.657-.001 1.342-.114 1.893.149z"/></g></svg>