<svg enable-background="new 0 0 79.828 77.892" viewBox="0 0 79.828 77.892" xmlns="http://www.w3.org/2000/svg"><g clip-rule="evenodd" fill-rule="evenodd"><path d="m67.428 10.828c5.531 5.142 9.787 11.714 11.604 20.448.951 4.576 1.068 9.747.256 14.517-.779 4.569-2.381 8.281-4.193 11.809-.24.471-.395.947-.664 1.38-3.891 6.242-8.932 10.84-15.488 14.518-3.365 1.887-7.607 3.229-12.064 3.937-4.641.737-9.795.557-14.619-.358-8.879-1.684-15.781-5.496-21.266-10.786-2.674-2.579-4.943-5.659-6.799-9.201-2.689-5.138-4.678-11.878-4.09-19.834.361-4.859 1.49-9.204 3.119-12.933.815-1.866 1.764-3.519 2.812-5.163 4.172-6.552 9.945-11.386 16.918-15.08 4.695-2.088 9.436-3.735 15.848-4.039 6.496-.307 12 1.114 16.664 3.067 2.365.99 4.498 2.066 6.492 3.374 2.013 1.319 3.833 2.752 5.47 4.344zm-28.883 60.779c3.193.195 6.455-.167 9.355-.869 10.824-2.619 18.582-9.117 22.85-18.504 1.086-2.39 1.869-5.085 2.402-7.924 1.174-6.255-.062-13.107-1.994-17.738-2.041-4.892-4.994-8.769-8.689-11.961-3.691-3.19-8.014-5.774-13.443-7.208-4.297-1.134-10.432-1.479-15.133-.511-5.131 1.057-9.201 3.177-12.932 5.674-4.758 3.187-8.893 8.05-11.348 13.444-1.231 2.702-2.459 6.056-2.762 9.61-.316 3.75-.342 7.744.562 11.348 1.662 6.625 4.824 11.553 9.252 15.54 5.38 4.874 12.355 8.519 21.88 9.099z"/><path d="m59.861 25.601c3.889 4.075 6.977 8.869 7.311 16.205.166 3.648-.734 7.128-1.943 9.814-1.229 2.734-2.758 5.12-4.65 7.054-3.881 3.964-9.24 6.769-16.359 7.105-7.623.361-12.748-2.801-17.022-6.339-3.158-2.843-5.449-6.282-6.697-10.939-.609-2.279-.977-4.974-.664-7.923.262-2.469.943-4.936 1.891-6.901 2.873-5.952 7.25-10.263 13.496-12.882 3.395-1.423 8.59-1.962 12.934-1.124 4.916.949 8.621 3.156 11.703 5.93zm-34.146 15.693c-.533 5.021 1.379 8.976 3.629 11.808 2.242 2.821 5.299 5.285 9.15 6.39 4.502 1.292 9.572.412 12.934-1.278 4.902-2.465 9.037-6.949 9.814-13.495.586-4.94-.852-9.342-3.016-12.217-3.283-4.358-7.746-8.04-15.642-7.667-5.551.262-9.174 2.731-12.014 5.827-2.658 2.845-4.357 5.936-4.855 10.632z"/><path d="m43.76 35.978c1.57-.109 3.719-.272 4.805.307 1.504.802 1.346 3.375 0 4.141-.478.272-.781.293-.767.716.025.703 1.156.642 1.482.818 1.818.98 1.467 5.054-.715 6.032-.584.262-1.775.313-2.709.358-1.178.056-3.168.258-3.578-.613-.396-.841-.055-2.848-.051-4.192.002-1.53-.053-2.899-.051-4.601 0-1.329-.113-2.399.613-2.811.25-.143.719-.138.971-.155zm3.476 3.527c.619-1.75-1.865-3.322-2.557-1.176-.098 1.085.178 1.799.869 2.096.905.107 1.507-.409 1.688-.92zm-2.404 3.68c-.299.651-.289 2.601.103 3.169.707 1.027 2.318.39 2.709-.716.588-1.663-.188-3.476-1.891-3.118-.396.084-.751.301-.921.665z"/><path d="m39.158 47.735c-.57.997-2.17.849-2.555-.051-.422-.98.152-2.74-.205-3.885-.324-1.041-2.125-1.79-2.658-.409-.57 1.479.479 4.523-.92 5.01-.537.187-.992.056-1.482-.256-.313-.381-.205-1.927-.205-2.812 0-2.811-.041-5.984.051-8.537.301-.608.824-.714 1.738-.767 1.98-.115 5.025-.196 5.726 1.227.406.828.229 2.052-.205 2.914-.242.67-1.494.5-1.533 1.227-.037.67 1.029.591 1.483.869 1.398.858.804 3.543.765 5.47zm-4.703-7.105c2.305.698 2.42-3.733 0-3.067-1.271.294-1.082 2.739 0 3.067z"/><path d="m53.932 36.285c1.912-.482 1.789 1.051 1.789 3.067v5.623c0 .818.135 2.474-.205 2.914-.373.485-1.783.554-2.197.102-.361-.395-.238-2.87-.256-3.681-.027-1.259-.037-2.936 0-4.243.041-1.421-.399-3.463.869-3.782z"/></g></svg>