<svg enable-background="new 0 0 64.405 76.394" viewBox="0 0 64.405 76.394" xmlns="http://www.w3.org/2000/svg"><g clip-rule="evenodd" fill-rule="evenodd"><path d="m31.467 76.258c-3.107.165-6.895.165-10.001 0-.217-1.91-.099-4.097-.099-6.337 0-2.194.079-4.461-.099-6.485-.359-.056-.553.382-.693.594-2.321 3.511-4.568 7.2-6.931 10.743-.343.515-.671 1.111-1.188 1.485-3.121.051-6.715.147-9.753-.05-.054-1.221-.245-2.495-.05-3.663.092-.551.727-1.34 1.089-1.882 1.215-1.813 2.236-3.776 3.515-5.396 1.035-1.668 2.296-3.588 3.515-5.396.31-.459 1.093-1.269 1.089-1.832-.004-.616-1.071-1.323-1.485-1.684-.633-.549-1.14-.986-1.634-1.534-1.449-1.565-2.74-3.138-3.862-5.05-1.84-3.139-3.207-6.542-4.159-10.596-1.68-7.152-.208-14.744 2.178-19.952 1.235-2.695 2.635-5.253 4.456-7.377 1.822-2.125 3.809-4.039 6.09-5.693 2.352-1.706 4.884-2.94 7.674-4.159 2.854-1.247 6.126-1.65 9.803-1.98.589-.053.688.019.693.94.118 21.868 0 43.906 0 65.997 0 3.196.065 6.394-.148 9.307zm-13.516-59.708c-1.887 1.727-3.305 3.491-4.555 5.743-.627 1.13-1.073 2.349-1.683 3.515-.137.995-.413 1.978-.594 3.069-.543 3.262-.259 7.059.495 9.902 1.589 4.666 4.384 8.314 7.872 11.041.493.385 1.021.881 1.683.94.263-.687.148-1.468.148-2.179 0-11.307.111-21.939.05-33.27-.001-.282.155-.801-.248-.94-.003-.03-.007-.059-.049-.05-1.084.579-2.186 1.373-3.119 2.229z"/><path d="m33.497.013c2.578.123 4.849.396 6.931.94 2.045.536 3.777 1.513 5.496 2.327 3.5 1.659 6.475 3.983 9.159 6.535 5.005 5.376 9.033 11.993 9.309 21.934-3.298.236-7.483.098-10.843.05-.327-2.109-.561-4.025-1.139-5.793-1.102-3.366-2.89-6.366-5.248-8.566-1.177-1.098-2.352-2.316-3.862-3.021-.283.68-.198 1.448-.198 2.179v29.706c0 1.508-.089 3.002.099 4.456.858-.151 1.459-.869 2.079-1.387 3.759-3.133 6.68-7.143 7.822-12.922.189-.953.175-1.946.446-2.971 3.457-.127 7.354-.179 10.843.05.066 1.415-.111 2.798-.347 4.06-1.177 6.298-3.516 11.513-7.13 15.646-1.045 1.194-2.107 2.309-3.366 3.465-.364.335-1.074.832-1.09 1.188-.012.271.452.874.693 1.238 1.752 2.645 3.549 5.374 5.298 7.971 1.783 2.616 3.532 5.32 5.297 8.021.233.355.62.715.595 1.188-4.146.063-8.529.156-12.675 0-.521-.365-.857-.957-1.188-1.485-1.67-2.672-3.431-5.47-5.198-8.12-.374-.561-.649-1.129-.94-1.732-.263-.545-.67-1.096-1.139-1.485-.23.433-.178.998-.198 1.485-.067 1.588 0 3.277 0 4.951 0 2.177.12 4.437-.148 6.387-3.381.076-6.375.149-9.605 0-.188-6.184-.099-12.664-.099-19.062 0-17.563.049-34.566.05-52.529 0-.732-.039-1.551 0-2.427.027-.628-.074-1.913.148-2.178.035-.046.089-.075.148-.099z"/></g></svg>