<svg fill="none" viewBox="0 0 130 166" xmlns="http://www.w3.org/2000/svg"><path clip-rule="evenodd" d="m.00764311 6.70824c-.03146941 8.59806.17105589 9.84026 2.05610689 12.60996 1.33885 1.9681 4.02186 3.8311 6.9052 4.7955l2.07195.6928 32.2484.1972c30.8653.1888 32.3758.2244 35.2168.8295 9.9605 2.1212 15.9285 7.3117 17.6419 15.3431.6767 3.1724.4215 10.0798-.487 13.1899-.7201 2.4641-2.9862 7.1886-4.0431 8.4286l-.6605.775.3125-.8702c.1717-.4786.5384-2.571.8145-4.6498.5842-4.3962.4399-10.1703-.3272-13.0793-1.5277-5.7955-5.2423-9.8269-10.9006-11.8303-4.1271-1.4613-3.4236-1.4306-37.5673-1.6339l-32.2484-.1919-2.02521-.7173c-4.55497-1.6135-7.37444-4.2537-8.525722-7.9841-.4570858-1.4801-.4670519-1.4026-.48823925 3.7651-.01744835 4.2366.09222835 5.6852.55616825 7.3505 1.435133 5.1482 5.626483 9.2893 10.794603 10.6651 1.2155.3233 5.5474.4153 19.7074.4181 9.9823.0022 18.1485.1082 18.1472.2362-.0012.1281-.5032.572-1.1157.987-3.5424 2.4006-7.3701 7.5054-9.0798 12.11l-.8633 2.3249-.1758 37.9734c-.1716 37.0507-.1916 38.0417-.8247 40.7637-.3571 1.534-.9968 3.731-1.4214 4.882-.4247 1.151-.6668 2.092-.5375 2.092.129 0 1.5485-1.364 3.1547-3.032 5.825-6.048 9.1645-12.326 10.9202-20.527.5525-2.581.65-4.466.7896-15.277l.1595-12.3317.6665.2058c.9506.2933 2.2452 1.2499 3.0157 2.2282.3643.4625 8.7273 8.8997 18.5847 18.7497 17.7338 17.719 17.9494 17.921 20.4608 19.114 5.7411 2.728 11.5054 2.339 16.7484-1.129l2.179-1.442-1.868-.698c-3.938-1.473-4.806-2.258-26.7084-24.141-13.0635-13.052-21.5257-21.28-22.0105-21.4009-1.0933-.2731-1.9277.2238-6.775 4.0336l-4.2063 3.306-.0807-16.9551c-.076-15.9922-.0455-17.1023.5378-19.545 1.5881-6.6529 6.1104-11.7655 12.1618-13.7497 2.5322-.8302 6.432-1.1228 8.88-.6665 4.8594.9061 9.4446 4.3919 11.5269 8.7639 2.306 4.8414 2.2923 9.2395-.0443 14.1376-1.3694 2.8711-3.1049 4.6204-10.0805 10.1608-5.1472 4.0884-5.4579 4.3956-5.5489 5.4842-.0529.6343.0172 1.3491.1558 1.5884.1387.2396 9.7864 10.021 21.4394 21.7367 16.3029 16.39 21.5469 21.483 22.7449 22.09 1.053.533 2.216.827 3.583.908 2.739.16 4.185-.501 9.868-4.516l4.557-3.22-2.461-.831c-3.397-1.148-5.273-2.161-7.953-4.294-1.263-1.005-8.631-8.182-16.373-15.9493-14.738-14.7858-14.738-14.7858-14.743-17.4133-.0028-1.4253 1.1946-3.5437 2.4818-4.3912 1.3145-.8655 3.7894-1.2242 11.0542-1.6027l4.346-.2262.064-1.7505.064-1.7505-1.721-.2139c-2.409-.2995-4.11-1.1039-5.4482-2.5782-1.3678-1.5062-1.6361-2.6556-1.4155-6.0658.1368-2.1138.4982-3.4176 2.2387-8.0789 2.541-6.8011 3.555-10.6279 3.786-14.2808.436-6.9133-2.514-13.9497-8.2684-19.7195-3.6825-3.6922-7.4941-5.9062-12.9476-7.5209-2.1347-.6317-2.9011-.6494-35.9873-.819-26.6403-.1367-34.0705-.2594-35.0526-.5793-5.50434-1.7927-9.75364-6.11484-11.216503-11.408795-.3726474-1.348133-.414716-.762876-.43995389 6.125035zm66.16395689 40.85966c-7.0946 1.8234-10.7289 9.8551-7.4115 16.3785 3.8642 7.5984 14.7255 8.2497 19.5727 1.1733 5.0495-7.3712.0371-17.3847-8.8647-17.7108-1.2887-.0474-2.7721.0245-3.2965.159zm-30.3757 5.9682c-4.1378 3.2031-6.2562 5.1055-8.356 7.5035-3.6507 4.1694-6.8189 9.8889-8.2696 14.9296-1.7192 5.9738-1.7383 6.4034-1.7401 39.5678-.0019 31.561-.1147 35.034-1.2778 39.324-.6973 2.572-2.6543 6.458-4.545 9.024-2.31379 3.142-2.60978 3.332 5.0286-3.23 7.4828-6.428 11.3841-13.024 13.7854-23.308.4459-1.91.5303-6.469.702-37.9738.1779-32.6376.2427-35.968.7335-37.6634.9568-3.3063 2.3954-5.7307 4.9207-8.2921 1.3027-1.3212 2.3471-2.4024 2.3213-2.4024-.0256 0-1.5121 1.1342-3.303 2.5208z" fill="#000" fill-rule="evenodd"/></svg>