<svg enable-background="new 0 0 15.09 11.389" viewBox="0 0 15.09 11.389" xmlns="http://www.w3.org/2000/svg"><path d="m10.897.025c.583-.038 1.168-.016 1.752-.021.812-.003 1.624.004 2.436-.004-.005 1.208-.006 2.417 0 3.624-1.254-.006-2.508.008-3.762-.007.002.088 0 .175-.002.262 1.254-.006 2.508-.005 3.762-.001.001 1.207-.01 2.413.006 3.619-1.314-.005-2.628-.003-3.942-.001.01 1.297-.005 2.595.007 3.892-2.652-.005-5.305.003-7.957-.004-.863-1.284-1.689-2.597-2.543-3.889-.218.001-.436-.003-.654.004.003-1.208.003-2.416.001-3.623 1.279.003 2.559-.003 3.838.002-.004-.085-.004-.171-.002-.256-1.278.005-2.557-.002-3.836.003.002-1.207.001-2.415 0-3.623 1.284.005 2.567-.002 3.85.004.932.012 1.858.383 2.529 1.032.599.558 1.01 1.324 1.129 2.138.009.113.021.227.042.339.059-.841.396-1.668.979-2.282.098-.146.252-.239.374-.363.563-.468 1.266-.761 1.993-.845zm-3.359 4.101c-.048.443-.167.88-.364 1.281-.45.908-1.277 1.621-2.244 1.929.058.102.122.2.188.297.813 1.244 1.619 2.493 2.432 3.737-.004-2.212.001-4.425-.002-6.638-.002-.202.015-.405-.01-.606z"/></svg>