<svg fill="none" viewBox="0 0 130 124" xmlns="http://www.w3.org/2000/svg"><path clip-rule="evenodd" d="m.775003.609127-.775003.608833.00411987 5.63524c.00205883 3.09912.08411623 5.9344.18235113 6.3005.122059.4549 1.914119 1.8147 5.657939 4.293 4.32739 2.8646 26.67179 17.6682 48.53409 32.1545l2.4671 1.6346-.7338.6074c-1.2609 1.0437-5.7671 4.28-5.9594 4.28-.1009 0-1.4006-.9024-2.8883-2.0054-16.4873-12.2228-15.7435-11.7436-19.6888-12.6886-5.1068-1.2229-10.3206-.595-15.0126 1.8089-3.4877 1.7865-7.2627 5.6088-8.95358 9.0652-1.71765 3.5108-2.23 5.6905-2.245 9.5498-.01471 3.839.48764 6.0319 2.15352 9.4028 2.72177 5.5069 7.39886 9.3576 13.45326 11.0763 2.9253.8307 7.807.8812 10.6762.1108 2.24-.6015 4.9191-1.8806 6.7714-3.2329.7242-.5289 4.4271-3.2669 8.2286-6.0848 3.8014-2.8176 7.0538-5.2109 7.2276-5.3182.2985-.1842 6.9394 4.5172 7.1238 5.0435.0477.136-4.8494 3.7976-10.8823 8.1367-15.045 10.8212-17.3686 11.9228-25.2338 11.9642-3.4192.0179-4.3586-.0861-6.7648-.7496-1.5367-.4237-3.6997-1.178-4.80671-1.6757-2.27824-1.0247-2.89589-1.1019-3.55471-.4437-.40882.4087-.46206 2.319-.46206 16.5815 0 17.468-.06088 16.8 1.56471 17.198.35264.087 9.09027.12 19.41737.074l18.7759-.083.5623-.694c.5221-.644.5621-1.253.5621-8.569v-7.875l11.9144 7.902c6.5529 4.346 12.277 8.087 12.7206 8.313 1.9841 1.012 3.662 1.07 30.7805 1.07 26.726 0 26.862-.003 27.633-.609l.775-.609-.004-5.635c-.002-3.099-.085-5.937-.184-6.305-.124-.463-2.006-1.879-6.099-4.586-3.255-2.154-14.654-9.7047-25.3306-16.7791-10.6765-7.0742-20.7212-13.7276-22.3218-14.7857l-2.9103-1.9235.7356-.6088c1.2438-1.0296 5.7679-4.2821 5.9565-4.2821.0976 0 4.0164 2.8432 8.7085 6.3184 4.692 3.4752 9.1868 6.6505 9.9882 7.0562 4.6649 2.3616 12.0589 2.5247 17.1469.3776 4.461-1.8823 8.673-5.8036 10.728-9.9879 1.715-3.4931 2.222-5.6561 2.227-9.4942.005-3.8407-.502-6.0504-2.159-9.4028-2.721-5.5069-7.398-9.3576-13.453-11.0763-2.925-.8307-7.807-.8812-10.676-.1108-2.325.6242-5.0874 1.9658-6.9762 3.3874-2.4571 1.8497-14.9506 11.0628-15.2653 11.257-.2891.1783-6.9309-4.5404-7.11-5.052-.0477-.136 4.8494-3.7976 10.8823-8.1367 15.045-10.8212 17.3682-11.9228 25.2342-11.9642 3.419-.0179 4.358.0861 6.764.7496 1.537.4237 3.7 1.178 4.807 1.6757 2.278 1.0246 2.896 1.1019 3.555.4437.409-.4087.462-2.319.462-16.581 0-17.468728.061-16.800542-1.565-17.198987-.352-.0863888-9.09-.1195857-19.417-.0737469l-18.7761.0831529-.5623.693752c-.5221.644389-.5621 1.253229-.5621 8.568939v7.87519l-11.9144-7.90164c-6.5529-4.34588-12.277-8.08674-12.7206-8.3127-1.9841-1.0119845-3.662-1.07046-30.7809-1.07046-26.72583 0-26.86142.00293783-27.632597.609127zm26.577897 50.393373c1.2521.682 13.5845 9.6035 14.8109 10.7145.1388.1258-1.5156 1.5389-3.6764 3.14-2.1606 1.6014-5.3183 3.9413-7.0168 5.1998-3.7327 2.7659-4.6312 3.2431-6.9709 3.7029-3.5773.7032-7.8326-.6552-10.5471-3.3674-4.57407-4.5695-4.68583-11.8793-.2544-16.6124 2.6556-2.8365 5.2642-3.8764 9.39-3.7438 2.2936.074 2.8633.203 4.2647.9664zm84.3131-.1763c2.133.749 4.027 2.1315 5.367 3.9172 3.652 4.868 3.349 11.1188-.752 15.4994-2.66 2.8414-5.474 3.948-9.514 3.7423-3.264-.1663-3.9-.5075-11.6199-6.2385-3.3971-2.522-6.5021-4.8239-6.9-5.1154l-.7239-.5304 4.5474-3.3715c7.0303-5.2124 9.7764-7.1908 10.5764-7.6201 2.224-1.193 6.082-1.3141 9.019-.283zm-43.1613 8.5345c1.9547 1.4575 3.5541 2.6995 3.5541 2.7601 0 .0602-1.5764 1.2482-3.5035 2.6398l-3.5035 2.5303-3.5859-2.6737c-1.9724-1.4704-3.473-2.7844-3.3347-2.9196.2288-.2239 6.657-4.9473 6.7706-4.975.0267-.0064 1.6479 1.1807 3.6029 2.6381z" fill="#000" fill-rule="evenodd"/></svg>