<svg clip-rule="evenodd" fill-rule="evenodd" stroke-linejoin="round" stroke-miterlimit="2" viewBox="0 0 560 400" xmlns="http://www.w3.org/2000/svg"><path d="m263.783 326.804c5.7 7.936 13.026 14.566 21.49 19.448l231.743 133.867-53.467 92.61-199.766-115.333zm-6.847-68.536c-4.022 8.906-6.1 18.567-6.096 28.339l-.065 267.63h-106.935v-230.667zm329.014-45.78 53.468 92.61-199.766 115.334-113.096-65.29c9.722-.972 19.127-4.003 27.587-8.89l231.807-133.763zm-386.184-59.706 113.096 65.289c-9.722.972-19.127 4.003-27.587 8.89l-231.807 133.765-53.468-92.611zm295.812-133.805v230.666l-113.096 65.303c4.022-8.906 6.101-18.568 6.096-28.34l.065-267.629zm-319.709-18.492 199.766 115.333v130.598c-5.698-7.939-13.025-14.572-21.49-19.454l-231.744-133.867z" fill-rule="nonzero" transform="matrix(.422259 0 0 .422259 145 78.9776)"/></svg>