<svg enable-background="new 0 0 77.588 38.368" viewBox="0 0 77.588 38.368" xmlns="http://www.w3.org/2000/svg"><path clip-rule="evenodd" d="m33.298 28.167c-1.351-.232-3.003-.144-4.66-.144-.804 0-1.645 0-2.45 0-.782 0-1.653.172-2.21-.24-.046-.224-.1-.651 0-.865.211-.463.857-.288 1.297-.288 3.538 0 7.2-.074 10.329.145.19 2.717.097 5.695.097 8.551 0 .954.113 1.899-.145 2.738-.332.059-.826.082-1.153 0-.259-1.16-.144-2.644-.144-4.035 0-1.362.056-2.724-.049-3.988-.487-.082-.727.456-.961.721-2.926 3.3-7.262 5.903-13.019 6.39-2.143.181-4.32-.18-6.294-.672-3.592-.897-6.526-2.719-8.888-5.237-2.302-2.454-4.088-5.438-4.757-9.368-1.545-9.089 3.27-15.473 8.744-18.833 2.998-1.84 6.732-2.957 11.386-2.642 4.267.288 7.404 1.846 10.186 3.939 2.74 2.062 4.659 4.768 6.005 8.119.688 1.711.96 3.726 1.297 5.765.328 1.982.741 3.971 1.298 5.765 1.083 3.497 3.225 6.144 5.765 8.359 3.198 2.79 7.153 4.708 12.972 4.708 1.147 0 2.269.025 3.267-.144 5.798-.98 10.177-4.372 12.636-8.551 1.736-2.954 2.985-6.977 2.306-11.434-.628-4.115-2.188-7.002-4.468-9.657-1.819-1.901-3.655-3.177-6.054-4.275-2.391-1.095-5.308-1.877-8.6-1.634-5.856.433-10.334 3.608-12.971 7.687-1.374 2.124-2.264 4.861-2.402 7.927-.144 3.158.87 5.991 2.018 8.311 1.069 2.162 2.889 3.966 4.9 5.429 2.025 1.474 4.493 2.551 7.302 2.979 6.826 1.039 11.691-2.18 14.413-5.861 1.423-1.924 2.652-4.375 2.786-7.542.203-4.785-1.616-8.726-4.132-11.242-2.539-2.54-5.986-4.516-10.953-4.516-3.227 0-5.83 1.121-7.734 2.594-2.056 1.59-3.439 3.292-4.42 5.861-1.041 2.725-1.138 6.111-.192 8.791 1.663 4.718 5.737 8.372 11.818 8.84 6.228.479 10.723-3.525 12.011-8.503.739-2.861.12-6.274-1.105-8.456-1.109-1.976-3.24-3.971-5.429-4.9-2.302-.977-5.619-1.546-8.503-.336-3.328 1.396-6.27 4.552-6.198 9.32.025 1.662.423 2.917 1.009 4.132 1.504 3.115 4.956 5.844 9.753 5.621 1.542-.072 2.684-.554 3.844-1.297 2.061-1.32 3.622-3.551 3.795-6.534.18-3.11-1.468-5.528-3.314-7.014-1.83-1.472-5.066-2.438-7.879-1.105-2.077.984-4.107 3.084-3.94 6.342.035.684.471 1.66.193 2.114-1.327.22-1.202-.785-1.298-1.441-.383-2.639.799-4.859 1.825-6.101 1.561-1.888 4.417-3.269 7.831-2.69 1.369.231 2.707.975 3.748 1.681 3.003 2.037 5.277 6.575 3.362 11.434-.982 2.49-3.115 4.396-5.572 5.285-1.399.506-2.957.677-4.757.48-1.604-.175-2.949-.799-4.035-1.345-2.188-1.1-4.128-3.19-5.093-5.765-1.086-2.899-.934-6.175.385-8.888 1.204-2.476 3.139-4.194 5.572-5.285 2.527-1.133 6.35-1.251 9.032-.144 2.605 1.075 4.536 2.548 6.102 4.756 1.387 1.956 2.67 4.808 2.306 8.407-.315 3.118-1.673 5.709-3.411 7.446-1.921 1.922-3.991 3.233-6.918 3.892-3.251.732-6.835-.241-9.032-1.345-2.531-1.273-4.262-2.935-5.717-5.092-1.65-2.448-2.469-5.043-2.306-8.455.161-3.359 1.304-5.744 2.931-7.879 2.871-3.768 8.562-6.93 15.422-5.188 5.635 1.431 9.655 5.366 11.386 10.281.957 2.719 1.243 6.428.385 9.417-.785 2.73-2.278 5.017-4.036 6.774-1.857 1.856-3.927 3.257-6.726 4.131-2.885.901-6.327 1-9.417.144-5.584-1.546-9.536-4.989-11.77-9.897-1.142-2.506-1.827-5.914-1.394-9.176.825-6.219 4.183-10.381 8.694-12.974 1.191-.684 2.391-1.274 3.747-1.681 1.432-.43 3.054-.686 4.805-.769 2.366-.111 4.689.433 6.63 1.057 1.968.632 3.578 1.543 5.044 2.594 3.096 2.218 5.275 4.85 6.822 8.503 1.551 3.662 1.816 8.773.48 13.019-1.153 3.666-3.526 6.91-6.293 8.984-2.955 2.215-6.359 4.014-11.147 4.18-5.029.174-8.976-1.086-12.299-2.931-3.248-1.803-5.796-4.492-7.591-7.735-.929-1.678-1.569-3.476-2.065-5.573-.467-1.976-.712-4.239-1.201-6.438-1.374-6.184-5.023-10.33-10.377-12.634-1.743-.749-3.965-1.345-6.294-1.345-5.077 0-8.559 1.407-11.53 3.699-2.921 2.255-5.008 5.177-6.005 9.273-1.171 4.809-.091 9.305 1.777 12.491 1.907 3.251 4.698 5.737 8.119 7.158 1.826.758 3.882 1.392 6.198 1.489 6.17.26 10.651-2.388 13.691-5.429.601-.599 1.269-1.306 1.587-2.21z" fill-rule="evenodd"/></svg>