<svg enable-background="new 0 0 73.992 33.578" viewBox="0 0 73.992 33.578" xmlns="http://www.w3.org/2000/svg"><g clip-rule="evenodd" fill-rule="evenodd"><path d="m46.946 25.291c1.656-.097 1.223-1.951 1.271-3.103.125-2.937.103-5.807.102-8.952 0-2.27-.239-4.401 1.425-5.341 1.977-1.117 5.836-.345 7.628.305 2.074.752 3.995 2.205 5.24 3.764 1.247 1.563 2.488 3.425 2.899 6.155 1.051 6.992-2.542 11.541-7.07 13.784-.946.469-1.841.951-2.85 1.221-4.986 1.336-9.754-.471-12.461-2.899-1.332-1.194-2.375-2.865-3.002-5.188-.638-2.364-.254-4.864-.356-7.579-.095-2.516.112-4.945 0-7.935-.042-1.116-.092-2.463-.051-3.916.037-1.356-.087-2.788.305-3.764.395-.983 1.263-1.732 2.441-1.831 1.497-.125 2.6.853 3.001 1.933.572 1.535.099 4.137.153 6.104.113 4.105-.101 7.976 0 12.259.046 1.901-.541 4.722 1.325 4.983z"/><path d="m70.395.57c1.487-.197 2.79.736 3.255 1.679 1.105 2.238-.647 4.498-2.695 4.578-1.658.064-3.383-1.214-3.408-3.103-.023-1.634 1.123-2.883 2.848-3.154z"/><path d="m13.425 2.707c.574-2.431 4.059-1.883 7.121-1.882 3.043 0 6.08-.001 9.258 0 1.346 0 3.313-.166 4.374.203.797.277 1.536 1.138 1.577 2.035.051 1.128-.835 2.021-1.679 2.34-1.083.41-3.28.142-4.73.204-2.768.117-6.764-.051-9.716-.051-3.187 0-6.443.523-6.205-2.849z"/><path d="m35.755 26.257c-.042 1.293-.753 2.189-1.425 2.899-1.944 2.058-4.931 4.02-8.596 4.273-5.42.374-9.36-2.482-11.598-5.595-1.245-1.733-2.104-3.696-2.34-6.257-.232-2.525.312-5.129 1.373-7.121 1.907-3.58 5.263-6.515 10.122-7.07 5.22-.597 9.293 1.934 11.496 4.781.934 1.208 1.842 2.686 2.391 4.629.454 1.608 1.091 4.679-.356 5.595-.808.511-3.196.353-4.527.254-1.424-.106-3.341-.001-4.73 0-1.544 0-3.085-.051-4.832-.051-1.739 0-3.532-.213-3.611 1.221-.109 1.958 2.878 1.577 4.831 1.577 2.832 0 5.463-.131 8.394-.051 1.286.036 2.916-.188 3.408.916z"/><path d="m2.489 7.844c1.433-.225 2.738.64 3.205 1.78.416 1.017.203 3.118.203 5.188 0 3.173.058 7.331-.051 10.682-.023.72.041 1.765 0 2.645-.052 1.084.058 2.082-.204 2.797-.492 1.346-1.739 2.282-3.458 1.832-2.552-.668-2.189-3.475-2.137-6.918.033-2.18 0-3.413 0-5.544 0-3.072-.085-5.058.051-7.935.045-.951-.132-1.936.102-2.645.299-.908 1.249-1.719 2.289-1.882z"/><path d="m70.344 7.997c1.369-.207 2.586.642 3.052 1.679.512 1.14.305 3.27.305 5.29 0 1.816-.05 3.368-.051 5.392 0 1.741-.131 3.629-.051 5.545.065 1.556.187 4.203-.254 5.188-.372.832-1.117 1.541-1.882 1.729-1.546.382-2.875-.475-3.357-1.678-.466-1.16-.203-3.43-.204-5.29 0-2.179.001-3.294 0-5.443 0-3.115.011-5.211.103-8.087.028-.913-.138-1.821.101-2.493.326-.916 1.224-1.679 2.238-1.832z"/><path d="m9.407 14.202c-1.621-.471-3.16-1.971-2.492-4.019.351-1.077 1.515-2.12 2.95-2.187 2.519-.118 4.181 2.677 2.849 4.782-.567.893-1.631 1.541-3.307 1.424z"/></g></svg>