<svg enable-background="new 0 0 77.714 50.389" viewBox="0 0 77.714 50.389" xmlns="http://www.w3.org/2000/svg"><g clip-rule="evenodd" fill-rule="evenodd"><path d="m76.659 1.111c-.09.34-.561.261-.732.274-3.346.272-5.229 2.168-6.045 5.038-.309 1.09-.326 2.246-.365 3.664-.143 5.082-.047 10.259-.047 15.387.002 5.119 0 10.468 0 15.799 0 2.655 1.07 4.39 2.428 5.633 1.031.943 2.4 1.659 4.213 1.831.533.051 1.598-.105 1.604.366.004.427-.828.301-1.236.321-3.49.165-7.367-.154-10.762 0-3.688.167-6.703 0-10.488 0-.389 0-1.164.085-1.19-.321-.031-.478 1.025-.386 1.373-.412 1.762-.13 2.945-.711 3.893-1.465 1.23-.981 2.346-2.499 2.701-4.396.186-.979.139-2.177.139-3.435 0-8.236.047-16.386.045-24.363 0-2.491.178-4.81-.412-6.686-.559-1.778-1.547-3.076-2.838-4.259-2.744-2.515-8.553-4.074-13.281-2.656-2.207.663-3.766 1.741-5.037 3.48-1.188 1.626-2.127 3.753-2.107 6.411.02 2.437.941 4.359 2.062 5.771 1.164 1.468 2.789 2.531 4.625 3.206 1.779.654 3.76 1.432 5.723 2.106 1.975.678 4.023 1.406 5.404 2.427.668.494 1.365 1.276 1.969 1.969 1.789 2.05 2.883 5.201 2.244 9.113-.723 4.434-2.686 7.663-5.404 10.212-1.32 1.239-3.047 2.276-4.807 3.022-1.881.797-4.06 1.287-6.596 1.236-2.424-.048-4.873-.369-7.006-.824-4.139-.883-6.906-3.436-8.565-7.052-.818-1.789-1.173-3.935-1.51-6.32-.307-2.162-.492-4.665-1.1-6.731-.625-2.124-1.282-3.933-3.16-4.625-.803-.296-2.342-.137-3.481-.183-1.082-.044-2.184-.039-3.159.092-.243.62-.138 1.284-.138 1.923v14.196c0 2.96.852 4.377 2.336 5.861.999 1 2.143 1.803 4.167 1.969.306.025 1.603-.088 1.603.412 0 .414-.818.321-1.236.321-7.315 0-14.068-.176-21.34-.137-.284.001-1.113.165-1.145-.275-.037-.514.831-.334 1.373-.367 1.605-.095 2.887-.65 3.847-1.374 1.265-.953 2.352-2.332 2.839-4.076.496-1.77.275-4.439.275-6.686-.001-9.236.001-18.417 0-27.706 0-2.134-.613-3.884-1.877-5.038-.878-1.01-2.158-1.796-3.939-2.012-.537-.065-1.291.161-1.649-.32.336-.539 1.165-.315 1.695-.32 4.746-.049 9.737.092 14.241.092 2.831 0 5.671-.24 7.969.274 2.286.512 4.132 1.361 5.54 2.747 2.037 1.986 3.979 4.692 3.756 8.701-.209 3.785-2.088 6.395-4.259 8.197-.704.677-1.596 1.167-2.518 1.648-.913.477-1.959.745-2.84 1.282.243.506.865.502 1.283.687 3.129 1.39 5.642 3.275 7.053 6.503.799 1.831 1.225 3.982 1.602 6.136.387 2.21.531 4.451 1.42 6.32 1.637 3.439 4.734 5.913 9.662 5.816 4.744-.094 7.662-2.634 9.801-5.679 1.359-2.038 1.383-5.803.549-8.243-.809-2.368-2.695-4.038-4.809-5.129-2.277-1.176-4.77-1.967-7.143-2.793-2.709-.942-4.332-2.162-5.861-4.076-1.588-1.985-2.432-4.092-2.703-7.281-.262-3.093.695-5.924 1.695-8.151 1.945-4.332 5.844-7.865 11.906-8.151 2.318-.109 4.203.554 6.457.779 2.24.223 4.68.045 7.189.045 4.555.001 9.029-.135 13.463.046.186.008.591-.113.641.229zm-57.791 22.485c1.076-.057 2.109-.094 3.021-.412 2.385-.83 3.37-2.847 4.076-5.312.346-1.209.576-2.615.641-3.984.133-2.79-.12-6.378-.869-8.38-.725-1.933-2.809-3.57-5.312-3.71-1.367-.076-3.241-.063-4.58 0-.404.727-.229 1.69-.229 2.564 0 6.67-.111 12.735.092 19.096 1.037.276 2.135.192 3.16.138z"/><path d="m47.626 2.027c4.254-.35 7.557 1.965 8.885 4.763.277.586.441 1.345.596 1.969.857 3.476-.494 6.925-2.336 8.747-2.289 2.266-6.469 3.482-10.258 1.648-1.482-.717-2.771-1.829-3.617-3.297-.846-1.469-1.494-3.232-1.328-5.541.096-1.347.705-2.952 1.189-3.847.564-1.04 1.523-2.123 2.703-2.931 1.057-.725 2.465-1.371 4.166-1.511zm-1.42 8.426c-.291 1.288.6 2.339 1.42 2.656 1.52.587 2.982-.481 3.16-1.786.217-1.589-1.059-2.747-2.473-2.61-1.091.105-1.89.79-2.107 1.74z"/><path d="m47.946 10.957c.078-.415.375-.534.643-.458.945.27-.553 1.707-.643.458z"/><path d="m44.97 30.053c3.299-.081 5.879 1.676 7.281 3.572.848 1.146 1.484 2.751 1.74 4.488.287 1.947-.246 3.824-.916 5.129-1.285 2.505-3.769 4.84-7.326 5.083-2.562.175-4.857-.816-6.32-2.061-1.545-1.317-2.707-2.979-3.16-5.175-.506-2.467.062-4.987 1.238-6.778.975-1.487 2.529-2.982 4.578-3.755.742-.279 1.705-.474 2.885-.503zm-2.061 10.258c.471.913 1.879 1.547 3.068 1.053 2.363-.982 1.361-5.001-1.465-4.396-1.411.268-2.366 1.861-1.603 3.343z"/><path d="m44.88 38.662c.715-.143.91 1.014.273 1.145-.726.149-1.103-.979-.273-1.145z"/></g></svg>