<svg enable-background="new 0 0 75.735 25.725" viewBox="0 0 75.735 25.725" xmlns="http://www.w3.org/2000/svg"><path clip-rule="evenodd" d="m75.351.223c.248.528.151 1.103.151 1.662-.001 4.137.201 9.039.201 13.702 0 .641-.028 1.303 0 1.965.03.692.071 1.443-.05 1.965-.162.697-.814 1.134-1.311 1.663-1.018 1.083-1.943 1.923-2.922 2.972-.459.492-.982 1.196-1.561 1.36-.727.205-1.841 0-2.922 0-.674 0-2.377.25-2.822-.151-.449-.406.061-1.638-.402-2.116-1.184.089-1.651 1.94-2.67 2.268-.682.22-1.965.05-3.022.05-2.187 0-3.769 0-6.046 0-.799 0-2.414.256-2.82-.101-.473-.414-.006-1.539-.504-1.713-1.01.064-1.211 1.492-2.268 1.813-.818.25-2.047.05-3.022.051-1.026 0-2.062.192-2.821-.151-.209-3.284-.313-7.267-.302-10.881.003-1.119.313-2.419-.403-3.124-.347-.096-.756-.077-.957.051-.647.413-.223 2.995-.201 4.08.025 1.275.209 3.208 0 4.231-.12.589-.801 1.153-1.26 1.612-1.002 1.003-1.836 1.83-2.821 2.871-.374.396-1.066 1.178-1.511 1.311-.734.22-1.885.051-2.871.051-.992 0-1.958.079-2.822-.101-.318-.468-.201-1.137-.201-1.763 0-1.814-.082-3.804-.15-5.542-.047-1.151.053-2.652 0-3.879-.049-1.11.259-3.036-.907-2.922-.654.064-.604.891-.604 1.663 0 2.352.016 4.519.051 6.75-.668 1.195-1.824 1.951-2.721 2.922-.902.978-1.819 1.942-2.82 2.821-1.92-.062-4.092.128-5.845-.101-.38-1.169-.302-2.599-.302-3.981 0-3.501-.182-7.084-.151-10.377.006-.642.04-1.326-.252-1.864-1.44.264-1.209 1.648-1.209 3.325v2.367c0 1.583.333 3.393 0 4.685-.147.568-.848 1.1-1.309 1.611-.529.587-1.041 1.042-1.461 1.461-.993.994-1.896 1.979-3.022 2.821-1.038-.019-2.114.002-3.174.051-1.06.048-2.184.081-3.073-.151-.267-1.455-.15-3.043-.15-4.685-.001-3.965-.051-8.249-.051-12.292 0-.814-.113-1.73.051-2.368.17-.66.889-1.094 1.359-1.611.523-.577.898-1.133 1.41-1.512.43-.381.892-.944 1.411-1.512.397-.434.958-1.177 1.562-1.359.66-.2 1.986-.051 2.821-.051 2.041 0 3.542.051 5.692.051.74 0 2.312-.133 2.67.15.381.302.125 1.333.453 1.512 1.059-.177 1.326-1.35 2.268-1.612 1.025-.286 2.69 0 3.979 0 8.188.002 16.063-.051 24.08-.05 1.289 0 2.595-.123 3.828.101.404.335.013 1.466.454 1.763 1.055-.172 1.449-1.437 2.418-1.863 6.018-.017 12.218-.164 18.286-.101.866.009 1.786-.129 2.568.202zm-60.955.453c-.799-.007-1.658.003-2.418 0-1.69-.005-3.925-.277-5.391-.1-1.048.126-2.141 1.611-2.821 2.317-.384.397-.773.822-1.16 1.209-.375.376-.974.711-1.006 1.309.232.334.707.202 1.058.202 3.014-.001 6.308.057 8.967 0 1.269-1.017 2.314-2.265 3.426-3.376.37-.369.883-.739.957-1.31-.419-.391-1.085-.246-1.612-.251zm58.033-.101c-4.285-.001-8.943.055-13.047.05-1.049-.001-3.688-.251-4.635.051-.387.123-.978.787-1.26 1.058-.852.819-1.545 1.558-2.267 2.368-.329.369-.872.714-.958 1.36 1.433.328 3.035.201 4.686.201 4.096 0 8.152-.05 12.241-.05.86-.001 1.81.124 2.419-.051.426-.123.857-.625 1.259-1.058.855-.921 1.489-1.539 2.267-2.368.358-.382.915-.741.957-1.36-.465-.339-1.117-.201-1.662-.201zm-24.936.05c-5.032 0-9.482.051-14.408.051-3.06 0-5.908 0-8.967 0-1.125 0-3.514-.254-4.383.101-.41.168-.715.706-1.108 1.108-.854.876-1.453 1.51-2.217 2.317-.347.367-.904.657-1.007 1.26.822.349 1.773.201 2.67.201 8.551.001 16.479-.001 24.533 0 1.065 0 2.677.207 3.576-.05.474-.136.827-.669 1.209-1.058.826-.843 1.442-1.593 2.217-2.367.381-.381.944-.756.957-1.36-.919-.361-2.031-.202-3.072-.203zm19.696 5.592c-.931.044-2.016.016-2.771.051-3.627.169-7.575.051-11.234.051-1.221 0-2.478-.123-3.627.151-.152 4.374-.051 9.227-.05 13.853 0 1.571-.121 3.136.151 4.584.768.345 1.76.252 2.721.251 1.941 0 3.951-.05 5.893-.05.969 0 1.991.113 2.721-.302.086-1.336.295-3.325-.051-4.635-1.537-.629-4.071.088-5.742-.354-.27-1.933-.151-4.515-.151-6.649 0-.761-.112-1.539.151-2.166 2.77-.13 6.264-.175 9.068 0 .396 1.766.252 4.293.252 6.901v3.577c0 .985-.279 2.771.201 3.274.478.502 1.678.164 2.468.201.962.046 1.95.148 2.519-.201.326-1.849.232-4.094.202-6.146-.046-3.118-.018-6.326-.101-9.32-.027-.981.087-1.976-.201-2.871-.713-.201-1.592-.239-2.419-.2zm-59.795.051c-2.24 0-4.586-.044-6.55.151-.265.69-.152 1.468-.152 2.217 0 3.957.001 8 0 11.889 0 1.539-.098 3.09.201 4.483.757.256 1.865.198 2.872.201.849.003 1.724-.001 2.368-.201.4-.964.284-2.191.252-3.375-.068-2.42-.122-4.918-.051-7.204.037-1.19-.14-2.342.101-3.375 1.307-.482 3.517.251 4.735-.303.145-1.194.219-3.166-.051-4.281-1.123-.234-2.421-.202-3.725-.202zm30.929.05c-2.548-.121-5.167.051-7.758.05-4.676-.001-9.125-.05-13.701-.05-.75 0-1.769-.101-2.166.05-.837.318-.357 3.303-.353 4.383.014 4.061.201 8.366.101 11.989-.023.804 0 1.669.252 2.268.566.422 1.57.201 2.518.201.957 0 2.025.135 2.619-.252.295-1.983-.002-4.479.102-6.951.041-.98-.051-2.118-.051-3.426 0-.729-.246-3.078.152-3.476.223-.224 1.324-.15 1.763-.15.774 0 1.372.037 1.914.05 1.384.033 2.814-.169 3.728.201.225 3.49.252 7.48.252 11.134 0 .896-.113 1.802.151 2.619.487.457 1.3.217 2.065.201 1.02-.021 2.186.149 2.973-.201.279-.963.201-2.129.201-3.324 0-2.47-.102-4.629-.102-7.053 0-.893-.239-3.142.202-3.476.274-.209 1.271-.101 1.813-.101 1.713 0 2.213-.049 3.778 0 .624.019 1.574-.088 1.813.151.387.387.201 2.422.201 3.324 0 1.232.01 2.54.051 3.577.085 2.177-.097 5.075.252 6.952 1.34.327 3.662.265 4.987-.051.272-1.453.151-3.024.151-4.584-.001-3.16-.051-6.264-.051-9.319 0-1.647.148-3.247-.201-4.584-2.509-.35-5.064-.028-7.656-.152zm23.275 4.886c-.349.014-.946.128-1.108.403-.32.546-.08 1.774.051 2.418.774.317 2.48.365 3.225-.05.16-.61.16-1.809 0-2.419-.335-.362-1.484-.378-2.168-.352zm-.453 3.729c-.997.072-1.269.366-1.864.957-.366.363-.736.764-1.008 1.058-.73.792-1.576 1.351-1.863 2.217.8.452 2.27.25 3.477.201.423-.017.808.048 1.158-.05.545-.246.894-.896 1.41-1.461.703-.769 1.846-1.369 1.26-2.772-.728-.264-1.759-.21-2.57-.15z" fill-rule="evenodd"/></svg>