<svg enable-background="new 0 0 54.685 70.979" viewBox="0 0 54.685 70.979" xmlns="http://www.w3.org/2000/svg"><g clip-rule="evenodd" fill-rule="evenodd"><path d="m.17 70.737c-.259-1.338-.145-2.869-.145-4.35 0-13.379.023-26.707.097-40.258.042-7.928-.09-15.801.048-24.309.015-.932-.244-1.691.773-1.789.901-.086 1.86.029 2.803.049 6.405.127 13.205.047 19.573.049 7.551 0 13.368 1.539 17.93 4.494 2.332 1.51 4.361 3.156 6.09 5.172 3.395 3.955 5.694 9.359 6.766 15.658.542 3.184.58 6.707.58 10.633 0 14.978-4.468 25.434-13.871 31.027-2.371 1.41-5.055 2.471-8.071 3.141-3.081.684-6.574.725-10.487.725-5.46 0-11.028-.047-16.674-.049-.921 0-1.838-.008-2.754-.047-.886-.039-1.801.143-2.658-.146zm18.945-59.155c-3.735 1.283-6.202 3.777-7.732 7.057-1.095 2.346-1.696 5.264-1.208 8.264.426 2.623 1.799 4.949 3.142 6.719.174.229.476.596.773.869.219.203.735.549.725.918-.008.314-.627.84-.918 1.16-.339.373-.695.881-.918 1.209-1.736 2.553-3.122 5.297-3.19 9.424-.041 2.539.717 4.961 1.595 6.815 1.786 3.769 5.295 6.152 9.762 7.057 2.514.508 5.16.148 7.491-.436.957-.24 1.932-.826 2.899-1.305.952-.471 1.872-.992 2.658-1.547 1.674-1.182 2.956-2.781 4.108-4.301 2.467-3.256 3.952-7.217 4.542-12.277.578-4.939.304-10.826-.918-15.416-.31-1.164-.55-2.273-.967-3.238-.404-.938-.93-1.848-1.45-2.754-1.979-3.455-5.01-6.271-8.989-7.83-1.007-.394-2.025-.781-3.238-.967-1.227-.188-2.792-.299-4.012-.242-1.49.071-2.929.399-4.155.821z"/><path d="m23.271 17.721c2.016-.232 4.667.604 6.09 1.449.441.262.888.684 1.305 1.016 1.169.926 2.417 2.434 3.141 3.77.262.48 1.017 1.777.822 2.271-.177.447-1.371.541-1.788.627-3.491.719-6.057 1.779-8.941 2.996-.492.209-1.116.412-1.691.726-.397.215-1.034.799-1.595.774-.497-.024-1.14-.908-1.402-1.209-.456-.523-.811-1.045-1.112-1.498-.674-1.016-1.354-2.438-1.401-3.77-.152-4.281 2.828-6.722 6.572-7.152z"/><path d="m35.789 33.186c.413.652.477 2 .483 3.092.004.649-.003 1.363-.338 1.74-2.282-.147-4.732-.703-6.766-1.4-.472-.162-1.785-.477-1.837-.871-.062-.471 1.163-.801 1.547-.967 1.976-.85 4.306-1.706 6.911-1.594z"/><path d="m19.55 40c.447-.096 1.23.463 1.885.773 2.914 1.381 6.196 2.492 9.618 3.285.712.166 1.456.332 2.175.435.662.096 1.491-.018 2.03.531-.108 1.258-.616 2.418-1.257 3.383-.629.947-1.362 1.807-2.174 2.562-1.707 1.586-3.505 2.9-6.38 3.092-5.327.357-8.716-1.961-8.651-7.006.019-1.414.439-2.822.87-3.965.44-1.164 1.001-2.238 1.74-3.092.047.002.095.002.144.002z"/></g></svg>