<svg enable-background="new 0 0 69.308 72.441" viewBox="0 0 69.308 72.441" xmlns="http://www.w3.org/2000/svg"><path clip-rule="evenodd" d="m.171 72.202c-.316-2.926-.098-5.902-.098-8.906 0-20.314.048-40.657.049-61.018 0-.776-.092-1.939.148-2.165.036-.046.089-.075.147-.099 9.483 0 18.106.05 27.606.05 4.428 0 9.118-.173 13.778.049 4.443.211 9.144-.561 12.892.59 3.427 1.053 6.324 3.106 8.464 5.462 3.269 3.599 6.009 8.223 5.954 14.96-.036 4.415-1.232 7.992-2.952 10.924-.618 1.053-1.263 2.107-2.116 3.1-.303.353-.722.689-.738.984-.028.522 1.23 1.647 1.525 2.018 1.506 1.892 2.84 4.368 3.593 6.889.53 1.775.886 3.835.886 6.102 0 2.208-.305 4.266-.837 6.151-1.994 7.059-6.866 11.933-13.729 14.221-3.653 1.218-8.363.886-13.04.886-13.745-.002-27.705-.023-41.532-.198zm43.5-41.925c3.542 0 6.965.26 9.251-1.033.831-.47 1.641-1.191 2.314-1.919 1.995-2.163 3.273-6.122 1.77-9.793-.881-2.152-2.194-3.487-3.985-4.576-1.946-1.183-4.315-1.132-7.431-1.132-11.263 0-23.138-.118-33.953.049-.3.592-.096 1.483-.098 2.166-.042 11.53-.049 23.259-.049 34.789 0 3.835-.119 7.655.099 11.416 7.316.22 13.934.147 21.749.148h10.826c1.967 0 3.89.092 5.561-.05 1.704-.144 3.002-.579 4.183-1.427 2.227-1.6 3.732-4.044 3.789-7.332.058-3.393-1.413-5.84-3.592-7.529-1.089-.843-2.352-1.437-4.035-1.574-1.58-.129-3.673-.058-5.462-.049-3.498.018-7.1-.187-10.776.049-.017.434.429.691.689.935 2.096 1.966 4.171 3.986 6.249 5.905.38.384.74.666 1.181 1.132.32.338 1.083.745 1.083 1.279 0 .383-.55.845-.836 1.132-.374.373-.725.696-.984.984-1.569 1.744-3.341 3.244-4.97 4.872-.324.325-.707.911-1.132.886-.404-.024-1.112-.947-1.525-1.329-3.584-3.308-6.669-6.768-10.039-10.137-3.395-3.396-6.562-6.956-9.891-10.284-.478-.478-1.12-.905-1.279-1.624.214-.754.876-1.06 1.279-1.624 3.384-3.39 6.703-6.845 9.94-10.383 3.184-3.235 6.728-6.939 9.989-10.333.365-.379 1.015-1.377 1.525-1.377.377 0 .851.598 1.132.885 1.086 1.109 1.968 2.175 3.051 3.1.594.768 1.305 1.418 1.968 2.116.313.634 1.907 1.35 1.87 2.214-.02.464-.75.947-1.082 1.279-.455.455-.816.78-1.231 1.132-2.005 2.1-4.473 3.932-6.495 5.954-.271.271-.751.529-.738.984 3.418.08 6.615.099 10.085.099z" fill-rule="evenodd"/></svg>