<svg enable-background="new 0 0 10.737 10.883" viewBox="0 0 10.737 10.883" xmlns="http://www.w3.org/2000/svg"><path d="m.003.001c2.519-.002 5.037 0 7.556-.001.432.015.865.095 1.261.27.963.403 1.692 1.317 1.866 2.347.163.865-.076 1.791-.619 2.482-.092.127-.214.229-.308.356.728.67 1.086 1.711.948 2.688-.095.671-.401 1.321-.894 1.79-.595.637-1.484.966-2.348.946-1.592 0-3.183 0-4.775 0-.896.003-1.792-.006-2.688.005-.002-3.628-.004-7.256.001-10.883zm1.767 1.77c.006 1.969.001 3.938.003 5.907-.005.479.01.958-.007 1.436 1.973-.002 3.947 0 5.92-.001.307-.033.611-.163.833-.381.291-.266.45-.664.444-1.056-.023-.345-.156-.691-.411-.93-.231-.247-.56-.402-.898-.418-.86-.007-1.72.008-2.58-.008.141.12.27.253.406.378.149.11.265.256.409.37.14.108.248.25.391.355.138.117.256.256.397.37-.397.398-.794.797-1.177 1.209-.443-.436-.879-.879-1.32-1.317-.346-.34-.68-.694-1.037-1.022-.228-.229-.457-.457-.686-.686-.195-.164-.365-.356-.55-.532.373-.362.735-.735 1.106-1.098.149-.12.273-.267.412-.398.289-.304.603-.582.895-.883.393-.392.786-.784 1.178-1.176.399.395.774.814 1.176 1.206-.127.106-.233.236-.366.336-.127.1-.227.231-.356.329-.13.099-.23.23-.36.329-.086.069-.163.147-.24.226-.088.091-.196.159-.28.254.839-.011 1.679 0 2.518-.006.342-.011.687-.143.929-.389.291-.265.451-.664.444-1.055-.019-.316-.133-.633-.35-.867-.253-.293-.634-.48-1.023-.481-1.94-.001-3.88.002-5.82-.001z"/></svg>