<svg enable-background="new 0 0 65.612 72.456" viewBox="0 0 65.612 72.456" xmlns="http://www.w3.org/2000/svg"><g clip-rule="evenodd" fill-rule="evenodd"><path d="m31.838 0c.68.219 1.318 1.96 1.738 2.831 3.425 7.118 6.769 14.332 10.083 21.457.958 2.061 1.815 4.19 2.831 6.208 1.028 2.047 1.844 4.15 2.781 6.209 1.637 3.596 3.386 7.075 5.017 10.728.221.496.581 1.07.396 1.639-.893.243-1.868-.238-2.831-.447-3.102-.674-6.386-.275-9.039.795-3.489 1.407-5.685 3.874-10.281 3.874-2.328 0-4.165-.526-5.812-1.292-1.557-.723-2.951-1.694-4.669-2.384-1.751-.703-3.689-1.207-5.91-1.192-1.137.008-2.15.144-3.179.348-.932.185-1.858.593-2.831.497-.187-.581.174-1.157.398-1.639.684-1.48 1.308-3.1 1.986-4.669 3.529-8.163 7.397-16.249 10.878-24.585.422-1.011.937-2.019 1.39-3.03.466-1.037.814-2.105 1.292-3.129 1.603-3.439 3.148-7.135 4.817-10.679.28-.595.432-1.232.795-1.44.037-.047.091-.076.15-.1zm-.795 48.178c4.577.692 8.054-2.53 8.891-5.762.758-2.93-.147-5.738-1.59-7.5-1.74-2.126-5.375-3.712-8.94-2.483-1.882.648-3.648 2.252-4.37 3.923-.298.69-.677 2.119-.745 2.98-.138 1.731.302 2.832.695 4.371 1.219 2.205 3.168 4.034 6.059 4.471z"/><path d="m59.751 59.85c-.58.045-1.074-.383-1.54-.646-1.351-.762-3.034-1.562-4.867-1.838-2.663-.401-5.43-.258-7.848.596-4.236 1.497-7.061 5.066-12.814 5.066-2.819 0-5.156-.835-7.151-1.838-1.962-.986-3.672-2.298-5.812-3.129-4.303-1.671-9.387-.805-12.716 1.043-.456.253-.938.717-1.539.596-.082-.631.235-1.194.447-1.688.416-.971.921-1.97 1.391-2.98.225-.484.394-1.102.745-1.44.721-.697 2.926-1.201 4.172-1.391 3.13-.476 6.385.264 8.543 1.292 1.648.785 3.065 1.837 4.719 2.583 2.403 1.084 5.375 1.618 8.394 1.341 3.154-.289 5.232-1.283 7.45-2.533 2.104-1.187 4.249-2.431 7.252-2.732 2.37-.237 4.713.069 6.605.696.66.218 1.346.376 1.838.794.857 1.389 1.554 2.963 2.285 4.569.226.499.708 1.052.446 1.639z"/><path d="m65.612 72.118c-.631.339-1.612.199-2.533.199-.907 0-1.866.04-2.633-.05-.774-.636-1.336-1.716-2.086-2.483-1.448-1.48-3.427-2.657-5.91-3.079-2.795-.476-5.549.337-7.55 1.44-1.098.604-2.062 1.343-3.129 1.937-3.186 1.774-7.272 2.889-12.517 2.136-2.757-.396-5.059-1.505-7.202-2.881-2.028-1.303-4.362-2.739-7.301-2.781-2.467-.036-4.244.721-5.811 1.688-.731.537-1.444 1.068-2.036 1.738-.59.668-.977 1.485-1.64 2.086-1.648.031-3.839.207-5.264-.148-.008-1.099.627-2.095 1.143-2.98 2.13-3.657 5.763-6.57 10.728-7.4 3.772-.631 7.427.332 9.934 1.688 2.008 1.087 3.729 2.423 6.01 3.229 2.417.854 5.555.971 7.997.348 4.738-1.208 7.704-4.796 13.063-5.364 6.066-.644 10.478 1.934 13.46 4.868.767.754 1.445 1.634 2.036 2.582.594.953 1.248 2.022 1.241 3.227z"/></g></svg>