<svg enable-background="new 0 0 78.099 39.885" viewBox="0 0 78.099 39.885" xmlns="http://www.w3.org/2000/svg"><path clip-rule="evenodd" d="m69.968.118c.004 1.12-.516 2.133-.841 3.166-1.621 5.152-3.253 10.274-4.899 15.438-.654 2.054-1.371 4.11-1.88 6.235.534.26 1.183.149 1.782.148 4.319-.008 9.503.021 13.954.149.122.442-.489.561-.643.891-1.982 1.828-3.876 3.744-6.037 5.394-3.678.033-7.488-.066-11.084.049-.496.519-.573 1.285-.792 1.979-.625 1.983-1.294 4.266-2.078 6.185-1.055.07-2.205.053-3.365.099-1.117.044-2.322.082-3.266-.148.518-2.683 1.787-5.305 2.326-7.966-.665-.351-1.492-.198-2.227-.198-4.699 0-9.581 0-14.152 0-.855 0-1.683-.163-2.276 0-.426.117-.86.617-1.337.99-2.629 2.056-5.03 4.073-7.719 6.185-.506.397-.947.97-1.484 1.039-1.589.205-3.415 0-5.196 0-1.715 0-3.457.082-5.096-.099.205-.512.74-.764 1.138-1.089 2.353-1.924 4.812-3.948 7.225-5.888.387-.311.917-.575 1.088-1.089-1.853-.31-3.807-.099-5.74-.099-5.531 0-11.607.08-17.368-.099.158-.566.889-.843 1.385-1.188 1.519-1.053 3.049-2.176 4.602-3.266 4.116-2.889 8.247-5.774 12.371-8.709 1.021-.727 2.021-1.486 3.068-2.177 1.05-.694 2.013-1.58 3.216-2.029-.754 1.921-1.785 3.633-2.722 5.394-.466.876-.934 1.777-1.385 2.672-.455.902-1.012 1.767-1.287 2.771.912.333 1.993.198 3.018.198 3.052 0 6.041-.014 9.204 0 2.767-1.868 5.167-4.212 7.818-6.284 6.549-5.122 12.956-10.307 19.545-15.587.582-.466 1.246-1.053 1.93-1.583.681-.528 1.456-1.182 2.029-1.534 2.262-.05 4.994-.146 7.175.05zm-18.952 17.764c-2.486 2.027-5.075 4.044-7.521 6.037-.343.279-.794.584-.94 1.039 1.944.268 4.165.148 6.333.148 2.179 0 4.379.041 6.433-.049.601-1.063.85-2.292 1.237-3.464.966-2.921 2.005-5.958 2.92-8.857.186-.59.481-1.23.396-1.88-.033 0-.066 0-.099 0-3.006 2.255-5.879 4.645-8.759 7.026z" fill-rule="evenodd"/></svg>