<svg enable-background="new 0 0 58.168 81.126" viewBox="0 0 58.168 81.126" xmlns="http://www.w3.org/2000/svg"><g clip-rule="evenodd" fill-rule="evenodd"><path d="m45.293.051c.248 1.785.15 3.762.15 5.739 0 5.852.183 11.973-.05 17.721-.717.087-1.608-.063-2.064-.403-.234-7.4-.193-15.686-.101-22.704.524-.253 1.335-.476 2.065-.353z"/><path d="m47.609 0c.801.005 1.482.128 1.964.453.215 7.268.248 15.182.101 22.654-.502.306-1.377.5-2.115.403-.203-5.622-.152-11.665-.15-17.57.001-1.979-.07-3.99.05-5.789.027-.072.077-.123.15-.151z"/><path d="m41.115 22.201c-.896-.261-1.568-.747-2.114-1.359-.189-6.073-.047-11.868-.101-18.073.224-.507 1.198-1.023 1.762-1.359.763-.456.472.981.504 1.662.229 4.939.1 9.655.1 14.347.001.844 0 1.663 0 2.467 0 .813.118 1.63-.151 2.315z"/><path d="m51.837 1.309c.553.379 1.733.653 2.014 1.41.238.643.023 2.113.051 3.071.118 4.131-.036 8.323.1 12.284.031.903.129 2.148-.051 2.718-.206.658-1.502 1.312-2.114 1.41-.301-5.646-.08-12.277-.15-18.173-.011-.904-.131-1.823 0-2.568.027-.073.078-.124.15-.152z"/><path d="m56.016 18.375c-.205-4.202-.088-8.864-.051-13.039-.014-.081.048-.086.051-.151.043-.009.048.019.051.05h.101c1.836 2.232 2.609 6.689 1.46 10.27-.181.56-.409 1.115-.654 1.611-.24.484-.447 1.102-.958 1.259z"/><path d="m36.784 5.236c.272.454.151 1.053.151 1.561.002 3.634.186 7.949-.05 11.579-.641-.495-1.061-1.444-1.41-2.366-.558-1.477-.913-3.084-.755-5.286.15-2.104.994-4.036 1.862-5.336.028-.073.079-.123.151-.151.018-.001.035-.001.051-.001z"/><path d="m41.115 26.782c.252 2.201.157 4.455.201 6.696.18 9.062-.001 18.301 0 27.437 0 5.623.052 11.009.051 16.765-.001 1.091.118 2.203-.151 3.272-1.139.219-2.881.052-4.027.101-.756-1.033-1.311-2.188-1.913-3.322-3.566-6.732-7.298-13.516-10.976-20.34-.264-.488-.55-1.072-.906-1.712-.269-.484-.844-1.321-.855-1.711-.014-.426.552-1.214.855-1.762.94-1.693 1.873-3.537 2.719-5.135 3.013-5.697 6.187-11.19 9.111-16.966.571-1.127 1.123-2.295 1.863-3.323 1.25-.04 2.836-.229 4.028 0zm-2.568 1.964c-2.189 4.252-4.462 8.412-6.695 12.586-1.117 2.086-2.36 4.127-3.424 6.242-1.073 2.135-2.335 4.168-3.272 6.394.432 1.114 1.033 2.182 1.611 3.222 2.922 5.257 5.644 10.613 8.508 15.858.862 1.578 1.679 3.192 2.567 4.732.281.487.568 1.075 1.058 1.41.269-16.106.047-33.25.051-49.185 0-.447.144-1.026-.202-1.41-.127-.009-.158.077-.202.151z"/><path d="m2.149 26.833c.42 4.363-.003 8.826.202 13.341.205 4.518 0 9.166 0 13.794v20.489c0 2.22.157 4.397-.101 6.494-.485.147-1.534.173-2.014 0-.273-1.071-.151-2.215-.151-3.323 0-5.626 0-11.413 0-17.116 0-10.028-.05-19.969-.05-30.458-.001-.999-.144-2.807.15-3.222.037-.047.092-.077.151-.101.589.05 1.385-.108 1.813.102z"/><path d="m4.515 26.732c.627.045 1.445-.103 1.913.101.264 17.733.276 35.842.101 54.118-.621.092-1.494.161-2.114 0-.226-16.902-.06-33.758-.15-50.947-.006-1.06-.124-2.438.101-3.171.036-.047.09-.077.149-.101z"/><path d="m10.657 26.833c.244 9.015.201 17.801.201 26.883-.001 9.143.053 18.178-.051 27.185-.535.219-1.506.141-2.114.05-.199-4.464-.102-8.989-.101-13.542.003-12.463-.051-24.633-.051-37.455 0-1.071-.21-2.154.151-3.172.549-.053 1.499-.138 1.965.051z"/><path d="m14.937 26.833c.287 3.941-.008 8.465.251 12.435.561-.248.777-.926 1.058-1.41 1.462-2.524 2.907-5.336 4.279-8.004.552-1.074.962-2.238 1.762-3.121.669.052 1.557-.114 2.063.101-.382 1.44-1.363 2.631-1.912 3.926-.266.626-.487 1.24-.806 1.863-1.812 3.539-3.673 6.831-5.588 10.421-.302.565-.786 1.227-.906 1.712-.252 1.013.078 2.613.101 3.776.745-.628 1.124-1.703 1.61-2.618 1.438-2.702 2.973-5.401 4.431-8.155 1.465-2.767 2.872-5.558 4.279-8.357.45-.897.917-1.839 1.561-2.618.645-.04 1.777-.179 2.266.101-1.004 2.384-2.333 4.577-3.474 6.847-1.139 2.266-2.379 4.46-3.625 6.645-.523 1.419-1.232 2.698-1.964 4.027-1.428 2.596-2.756 5.128-4.229 7.904-.271.512-.796 1.202-.806 1.611-.011.466.559 1.223.856 1.762 2.156 3.92 4.256 7.879 6.242 11.831 1.989 3.957 4.217 7.854 6.293 11.78.289.547.721 1.076.755 1.711-.538.186-1.597.111-2.215.05-.639-.7-1.054-1.58-1.511-2.416-1.346-2.465-2.79-5.045-3.977-7.703-.904-2.024-2.128-3.929-3.172-5.89-.788-1.482-1.551-2.961-2.366-4.43-.253-.457-.474-.988-.906-1.309-.262.462-.15 1.115-.15 1.762 0 .65-.052 1.453.05 1.963.103.51.494 1.117.806 1.711 1.956 3.738 4.19 7.452 5.94 11.327.738 1.635 1.94 3.12 2.518 4.883-.55.253-1.689.131-2.316 0-.397-.456-.58-1.043-.855-1.561-1.623-3.05-3.333-6.285-5.034-9.364-.269-.487-.458-1.091-.957-1.41-.27 1.872-.151 4.013-.15 6.142 0 2.111.082 4.271-.102 6.192-.507.156-1.608.167-2.113 0-.243-5.448-.119-11.004-.101-16.664.036-11.502-.102-23.417-.101-34.384 0-1.042-.122-2.112.151-3.122.585-.059 1.555-.126 2.064.053z"/><path d="m34.368 26.833c-.062.683-.517 1.238-.806 1.812-3.153 6.274-6.528 12.167-9.867 18.426-.55 1.03-1.183 2.085-1.711 3.423-.192.487-.527 1.12-.857 1.712-.276.498-.844 1.307-.855 1.711-.015.513.682 1.45.956 1.963.366.687.633 1.353.906 1.964.439.979 1.044 1.943 1.56 2.919 3.018 5.698 6.142 11.577 9.313 17.268.531.953 1.188 1.892 1.46 2.97-.562.21-1.492.051-2.215.101-.824-.969-1.343-2.155-1.963-3.272-2.457-4.42-4.885-9.018-7.3-13.593-.602-1.138-1.102-2.336-1.712-3.474-.857-1.6-1.83-3.322-2.769-5.084-.248-.465-.844-1.364-.856-1.711-.013-.361.575-1.246.856-1.762 2.138-3.921 4.081-8 6.242-11.881 2.207-3.965 4.193-7.726 6.343-11.83.322-.615.608-1.402.957-1.661.037-.047.091-.077.15-.101.706.053 1.629-.116 2.168.1z"/><path d="m43.481 26.732c.62.05 1.454-.111 1.913.101.186 4.492.151 9.081.15 13.643 0 4.573.143 9.138 0 13.543-.137 4.227.051 8.714.051 13.291 0 4.537.084 9.121-.101 13.643-.446.247-1.595.197-2.114.05-.154-16.771-.154-33.841-.151-50.846 0-1.055-.075-2.692.101-3.322.036-.049.091-.079.151-.103z"/><path d="m49.622 26.833c.234 4.351.2 8.868.201 13.441.001 4.588-.001 9.254 0 13.895.002 8.147.116 16.115.051 23.711-.01 1.053.079 2.111-.151 3.121-.485.163-1.579.163-2.063 0-.308-1.06-.112-2.176-.102-3.272.127-12.231-.03-24.624-.101-37.405-.018-3.251.001-6.675 0-10.169 0-.919-.104-2.982.151-3.322.037-.047.092-.077.151-.101.606.05 1.42-.11 1.863.101z"/><path d="m51.989 26.732c.63.042 1.44-.098 1.913.101.252 17.803.173 36.372.1 54.118-.43.264-1.605.186-2.114.05-.17-17.018-.153-33.397-.151-50.896 0-.963-.119-2.636.101-3.272.036-.047.091-.077.151-.101z"/></g></svg>