<svg enable-background="new 0 0 68.342 69.417" viewBox="0 0 68.342 69.417" xmlns="http://www.w3.org/2000/svg"><g clip-rule="evenodd" fill-rule="evenodd"><path d="m68.126.218c.257 2.4.145 4.927.145 7.513 0 6.249-.078 12.453 0 18.95.014 1.12.178 2.633-.048 3.635-.133.592-.732 1.071-1.163 1.599-1.067 1.308-1.995 2.407-3.102 3.684-.175.202-.409.612-.775.485-.311-9.87-.01-20.18-.194-30.583-.516-.317-1.172-.194-1.745-.194-6.852 0-13.985-.049-20.841-.048-1.927 0-3.817.019-5.622 0-.569-.006-1.207.116-1.745-.146.202-.606.78-.992 1.26-1.405.946-.815 1.805-1.556 2.859-2.472.533-.463 1.107-1.087 1.745-1.164 1.117-.134 2.452-.052 3.684 0 8.16.345 17.561-.236 25.542.146z"/><path d="m59.402 8.991c.15 3.069.131 6.523.097 9.79-.016 1.514.121 3.026-.194 4.265.105.338.176.708.194 1.066.279 5.448-.206 11.173 0 16.624-2.349 3.014-4.883 5.844-7.367 8.724-.329.373-.623 1.016-1.163 1.018-.218-5.048-.146-10.557-.146-16.139 0-5.574.08-11.234-.097-16.625-.588-.259-1.262-.146-1.89-.146-9.715 0-20.428-.025-30.098-.194.05-.559.638-.866 1.018-1.211 1.152-1.048 2.504-2.091 3.683-3.15 1.653-1.4 3.218-2.889 4.992-4.168 7.141-.054 14.154.048 21.035.049 3.38 0 6.683-.15 9.936.097z"/><path d="m47.14 21.496c.211 2.867.097 5.729.097 8.578 0 6.981.049 13.881.048 20.89 0 1.409.004 3.008-.097 4.265-2.743 3.86-5.808 7.037-8.821 10.712-.472.576-.907 1.157-1.454 1.793-.429.499-1.106 1.447-1.648 1.6-.557.156-1.391.048-2.181.048-9.562 0-19.061-.047-28.644-.048-1.441 0-2.879.118-4.265-.146-.237-2.725-.14-5.647-.097-8.627.113-7.776-.094-16.29-.048-24.718.004-.757-.096-1.57.048-2.133.216-.84 1.105-1.042 1.599-1.696 2.953-2.492 5.663-5.226 8.676-7.658.85-.805 1.675-1.465 2.617-2.278.286-.246.579-.582.921-.678.371-.104 1.098-.097 1.503-.097 5.06-.003 10.506.049 15.946.049h11.923c1.3-.002 2.631-.109 3.877.144zm-24.864 12.601c-4.833 0-10.28-.09-14.734.097.423.534.981.86 1.454 1.26 1.26 1.066 2.219 2.283 2.763 4.022.106.339.3.676.388 1.018.735 2.864-.372 5.953-1.696 7.706-1.249 1.652-3.632 3.254-6.156 3.49-.578.054-1.48-.136-1.599.291-.124.446 1.018 1.406 1.357 1.842.558.718.938 1.282 1.406 1.793 1.128 1.232 1.957 2.314 2.956 3.441 1.542 1.739 3.028 3.397 4.508 5.089.485.555.814 1.358 1.599 1.599.441-.464.608-1.156.775-1.745.574-2.011 1.16-3.967 1.745-5.961 2.136-7.276 4.356-14.544 6.446-21.762.19-.654.496-1.334.436-2.036-.503-.254-1.094-.144-1.648-.144zm10.227 0c-2.393 0-5.509-.078-7.658.097-.162.705.232 1.398.436 2.036.22.686.419 1.399.63 2.084 1.291 4.188 2.51 8.301 3.732 12.456 1.42 4.83 2.846 9.78 4.314 14.54.204.663.305 1.487.824 1.89.18-10.442.149-22.136 0-32.909-.653-.32-1.473-.194-2.278-.194z"/></g></svg>