<svg enable-background="new 0 0 81.887 61.116" viewBox="0 0 81.887 61.116" xmlns="http://www.w3.org/2000/svg"><path clip-rule="evenodd" d="m69.931 30.435c.29.756.918 1.281 1.433 1.877 3.533 4.088 6.975 8.401 10.522 12.549-.945 1.386-2.079 2.631-3.161 3.903-3.208 3.767-6.473 7.582-9.685 11.413-.321.242-.49.887-.987.79-.18-3.032.113-6.536-.148-9.486-.986-.282-2.081-.203-3.162-.197-7.618.04-15.746.145-23.567-.05-.29-1.719.091-4.11-.198-5.83-.473-.036-.714.474-.988.791-.29.335-.622.674-.89.988-.573.662-1.106 1.365-1.729 1.977-2.931 3.524-5.868 7.072-8.894 10.573-.418.484-.769 1.105-1.383 1.383-.261-2.984.03-6.519-.148-9.585-1.016-.323-2.119-.148-3.212-.148-5.594 0-11.321-.098-16.946-.099-2.273 0-4.519.119-6.67-.148-.101-2.903-.049-6.396-.049-9.585 0-1.054-.17-2.089.099-3.014 8.62-.228 17.942.269 26.68-.049.269-1.204.149-2.538.147-3.854 0-3.881.082-8.142-.099-11.907-.959-.268-2.089-.149-3.261-.149-7.735.002-15.824-.016-23.466-.197-.294-.489-.101-1.16-.099-1.729.014-3.435-.195-7.492.049-10.869 8.393-.253 17.963.277 26.729-.05.267-1.436.149-3.151.147-4.842 0-1.662-.077-3.365.1-4.842.419.144.722.565.987.89 1.897 2.313 3.913 4.693 5.88 7.016 1.146 1.308 2.246 2.661 3.409 3.953.776 1.056 1.699 1.969 2.569 2.964.275.315.466.805.938.889.348-.837.103-1.9.148-2.915.046-1.025-.068-2.05.148-2.964 8.932-.256 17.981.021 26.63-.198.328-.695.206-1.54.197-2.322-.008-.747-.019-1.504 0-2.273.039-1.623-.07-3.427.05-4.941.001-.084.039-.128.101-.148h.099c4.176 4.988 8.609 9.929 12.796 15.069.284.349.774.759.791 1.038.028.49-1.055 1.441-1.433 1.877-1.556 1.795-2.986 3.591-4.496 5.336-2.09 2.415-4.123 4.611-5.978 7.115zm.247-2.471c.688-.787 1.369-1.539 2.026-2.322 2.326-2.714 4.66-5.433 7.016-8.202.321-.378.938-.923.938-1.285 0-.411-.867-1.209-1.235-1.63-2.322-2.663-4.456-5.285-6.67-7.905-.742-.879-1.976-2.378-2.816-3.063-.062.021-.101.064-.099.148-.156.941-.099 2.522-.099 3.706 0 1.26.134 2.534-.148 3.508-8.751.244-17.96-.034-26.63.198-.304 1.523-.101 3.325-.148 5.039-.023.836 0 1.694 0 2.52 0 .858-.11 1.728.148 2.47 1.733.268 3.566.148 5.385.148 5.991 0 11.717-.05 17.689-.05 1.215 0 2.477-.117 3.655.149.274 2.154-.211 5.084.198 7.213.403.011.573-.394.79-.642zm-31.917-10.524c.347-.404.957-.906.939-1.285-.018-.385-.922-1.164-1.285-1.581-.513-.591-.948-1.119-1.334-1.581-1.812-2.173-3.666-4.148-5.385-6.275-.735-.91-1.881-2.476-2.767-3.112-.062.02-.102.064-.099.148-.28 2.022.086 5.039-.198 7.213-7.723.146-16.031.11-23.616.049-1.015-.008-2.18-.205-3.112.099-.18 2.316-.1 5.128-.1 7.559 0 .832-.108 1.695.148 2.421 7.958.248 16.074.197 23.518.198 1.082 0 2.182-.099 3.212.148.257 2.271-.086 4.895.197 7.263.661-.27 1.062-.913 1.482-1.433.434-.537.91-1.036 1.334-1.581 2.389-2.677 4.692-5.479 7.066-8.25zm2.52-.839c-.059.024-.112.053-.148.099-3.441 3.92-6.918 8.065-10.326 12.055-.386.453-1.401 1.329-1.384 1.828.012.315.719 1.011 1.038 1.384 2.671 3.112 5.206 6.237 7.855 9.189.722.929 1.516 1.784 2.273 2.618.239.264.414.775.889.741.288-1.738-.092-4.143.198-5.879 8.542-.213 18.043.051 26.679-.198.265-1.203.148-2.525.148-3.854 0-2.684 0-5.42 0-8.053 0-1.346.115-2.684-.148-3.903-8.869-.323-18.165.147-26.729-.198-.115-1.362-.034-3.019-.05-4.496-.005-.463.087-1.046-.247-1.334-.015.001-.032.001-.048.001zm28.557 15.908c-.223 2.434.11 5.09-.197 7.164-2.11.17-4.298.148-6.522.148-6.534.001-13.496-.086-20.158.099-.175 3.248-.228 6.796 0 10.03 6.659.188 13.519.099 20.01.099 2.273 0 4.557-.109 6.719.099.295 2.283-.102 5.137.198 7.312.747-.225.967-.977 1.481-1.433 1.365-1.566 2.654-3.209 4.052-4.743 1.301-1.596 2.645-3.114 4.002-4.743.304-.365 1.303-1.202 1.284-1.68-.014-.366-.931-1.168-1.284-1.582-1.407-1.642-2.665-3.165-4.002-4.693-1.33-1.521-2.572-3.161-3.953-4.743-.46-.528-1.121-1.373-1.482-1.482-.071.028-.12.077-.148.148zm-41.007.05c-.159 2.362.033 4.833-.198 7.164-2.102.226-4.336.148-6.571.148-6.806 0-13.36-.228-20.108 0-.233 1.495-.099 3.258-.099 4.99 0 1.71-.218 3.494.099 4.99 2.141.268 4.384.149 6.62.149 6.703 0 13.55.098 20.108.198.287 2.215-.091 5.097.197 7.312.701-.203 1.062-.925 1.482-1.433 1.345-1.627 2.731-3.149 4.051-4.743 1.33-1.585 2.714-3.116 4.002-4.743.295-.589 1.319-.968 1.285-1.68-.013-.256-.36-.558-.593-.84-.65-.79-1.475-1.732-2.026-2.322-2.302-2.636-4.634-5.53-6.966-8.251-.319-.373-.838-1.099-1.185-1.087-.069.012-.056.108-.098.148z" fill-rule="evenodd"/></svg>