<svg enable-background="new 0 0 78.453 78.967" viewBox="0 0 78.453 78.967" xmlns="http://www.w3.org/2000/svg"><g clip-rule="evenodd" fill-rule="evenodd"><path d="m78.28.21c.265 1.353.149 2.822.149 4.296-.001 4.341.08 9.02-.099 13.232-19.665.377-40.378-.182-60.386.049-.27 1.242-.149 2.534-.149 3.802.001 11.356-.1 22.705-.099 34.218.001 6.518-.001 12.543 0 19.108 0 1.252.116 2.522-.148 3.752-5.584.19-11.678.079-17.479-.05-.154-24.265-.005-48.989 0-73.815 0-1.605-.119-3.211.147-4.789 25.779-.059 52.067.099 78.064.197z"/><path d="m78.329 20.997c.13 12.364.099 24.94-.05 37.427-1.426.268-3.006.147-4.641.147-10.789-.001-21.956.013-32.835-.197-.291-4.181.026-8.829-.05-13.134-.024-1.407-.191-2.811.1-4.099 6.583-.295 13.575.117 20.194-.049.311-.592.281-2.154.049-2.815-7.448-.168-15.729-.311-23.206-.098-.247.898-.152 1.859-.197 2.813-.043.9 0 1.845 0 2.766 0 5.877-.066 11.882.099 17.528.742.353 1.579.136 2.37.147 12.501.2 25.628-.047 38.019.247.312 1.275.163 2.679.148 4.099-.03 2.913.126 5.917 0 8.789-.064 1.471.164 2.943-.148 4.296-14.205.23-28.877-.004-43.055 0-3.639 0-7.216-.05-10.912-.05-1.157 0-2.323.117-3.456-.148-.165-18.537.002-37.643 0-56.337 0-.515-.159-1.163.246-1.58 18.988.039 38.407.04 57.325.248z"/></g></svg>