<svg enable-background="new 0 0 79.13 74.005" viewBox="0 0 79.13 74.005" xmlns="http://www.w3.org/2000/svg"><g clip-rule="evenodd" fill-rule="evenodd"><path d="m66.803 33.265c.93.258 1.98.143 3.028.143 2.055 0 4.154.047 6.2.047 1.026 0 2.065-.111 2.981.143.173 11.898.095 24.313.095 36.44 0 .754.108 1.549-.142 2.271-3.267.158-7.191.156-10.458 0-.251-.729-.142-1.545-.142-2.318-.001-5.535.077-11.518-.095-16.943-.385.057-.521.529-.663.805-2.609 5.084-6.075 9.486-10.506 12.777-4.081 3.16-8.855 5.74-14.907 6.814-3.164.562-6.906.73-10.222.379-3.149-.334-6.142-1.184-8.707-2.129-7.576-2.794-13.618-8.267-17.746-14.814-3.512-5.568-5.807-12.404-5.49-21.58.113-3.275.54-6.656 1.467-9.369.465-1.363.913-2.676 1.467-3.928 3.343-7.564 8.428-13.131 15.38-17.178 3.529-2.055 7.323-3.438 11.973-4.307 1.548-.289 3.147-.393 4.921-.475 7.378-.342 13.571 1.34 18.646 3.408 4.463 1.818 8.116 4.541 11.5 7.713.498.467 1.166 1.014 1.278 1.562.148.727.047 1.646.047 2.508v12.967c0 1.705-.1 3.404.095 5.064zm-1.61.143c.289 0 .736.125.947-.189.07-.865-.292-1.682-.568-2.461-1.984-5.586-5.067-9.971-9.275-13.344-2.345-1.881-5.017-3.494-8.282-4.639-3.024-1.061-7.032-2.086-11.168-1.892-8.583.4-14.582 3.527-19.024 8.139-4.502 4.674-7.451 10.822-7.051 20.066.117 2.701.817 5.26 1.657 7.43 2.506 6.473 6.978 11.217 13.203 14.008 4.222 1.893 9.497 2.934 15.238 1.797 4.853-.959 8.716-3.469 11.925-6.199 2.528-2.148 4.423-4.625 6.057-7.57.536-.967 1.092-2.016 1.373-3.172-.51-.25-1.121-.141-1.656-.141-4.264 0-8.495-.002-12.73 0-4.853 0-9.744.059-14.339-.189-.172-2.736-.095-5.979-.095-8.85 0-.981-.147-2.023.189-2.84 10.941.046 22.656.048 33.599.046z"/><path d="m36.705 18.359c2.9-.256 5.059 1.207 6.152 3.029 1.236 2.061 1.224 5.322-.047 7.334-.701 1.111-2.263 2.307-3.786 2.65-2.38.537-4.972-.434-6.2-1.609-2.129-2.035-2.619-6.176-.899-8.754.635-.951 1.802-1.893 2.981-2.318.478-.174 1.176-.278 1.799-.332z"/></g></svg>