<svg enable-background="new 0 0 80.705 76.33" viewBox="0 0 80.705 76.33" xmlns="http://www.w3.org/2000/svg"><path clip-rule="evenodd" d="m80.683.237c.053 25.163.019 50.717-.254 76.015-4.306.109-9.433.112-13.862-.05-.338-6.256.123-13.666-.203-20.21-.461.543-.562 1.354-.812 2.082-1.688 4.916-4.545 8.988-8.226 12.035-2.037 1.687-4.442 3.211-7.261 4.316-2.729 1.07-6.26 1.926-9.8 1.777-10.94-.462-17.64-5.589-22.242-12.492-1.153-1.729-2.065-3.751-2.793-5.891-.235-.689-.284-1.505-.762-2.132-.273 3.257-.152 6.79-.152 10.207 0 3.392-.013 6.812-.152 10.054-4.412.169-9.55.169-14.015 0-.24-1.991-.123-4.057-.102-6.144.156-15.338-.094-30.433.203-45.65 4.517-.22 9.548-.029 14.015 0 .276 1.492.152 3.107.152 4.723 0 4.718-.182 9.851.102 14.218.449-.624.597-1.404.812-2.082 1.593-5.008 4.55-8.971 8.226-12.034 4.115-3.429 9.659-6.187 17.011-6.094 7.132.091 12.924 2.814 16.858 6.246 2.087 1.821 3.906 3.836 5.382 6.195 1.49 2.38 2.542 5.051 3.504 8.023.354-.805.203-1.721.203-2.589 0-8.97-.024-18.373.203-27.319.022-.874-.102-1.766-.102-2.641 0-2.711.051-5.392.051-8.175 0-.858-.121-1.764.152-2.589 3.208-.039 7.085-.053 10.511 0 1.127.016 2.285-.032 3.353.201zm-66.113 44.584c-.367 1.096-.229 3.215-.102 4.469.962.26 2.006.152 2.996.152 16.377-.001 32.658.37 48.899.152.25-1.163.25-3.305 0-4.469-17.041-.198-34.547-.36-51.793-.304z" fill-rule="evenodd"/></svg>