<svg enable-background="new 0 0 46.965 79.772" viewBox="0 0 46.965 79.772" xmlns="http://www.w3.org/2000/svg"><g clip-rule="evenodd" fill-rule="evenodd"><path d="m29.867.111c.36 6.989-.058 14.559.248 21.685.777.431 1.648.399 2.426.545 5.621 1.058 9.371 4.284 11.932 8.565.754 1.261 1.314 2.588 1.782 4.109.484 1.577.644 3.215.644 5.199 0 3.676.062 7.506-.099 11.437.259 2.324-.009 4.808.099 7.179.113 2.483.126 4.852-.297 6.882-.793 3.807-2.686 7.187-5.248 9.308-.688.569-1.313 1.146-2.03 1.634-2.109 1.436-4.577 2.74-7.922 2.97-4.318.297-9.542.066-14.308 0-.262-.894-.148-1.863-.148-2.772 0-2.857 0-5.769 0-8.713 0-3.854.169-7.787 0-11.635-.34-7.732.269-15.517-.198-23.022-1.254-.009-2.307.74-3.119 1.436-.804.689-1.51 1.744-1.733 2.871-.299 1.513-.148 3.456-.148 5.298 0 1.816-.033 3.643 0 5.199.072 3.436-.101 6.921.049 10.347.078 1.767 0 3.565 0 5.347 0 5.37.122 10.809-.099 15.695-3.48.107-7.727.065-11.486 0-.15-11.292-.15-23.118-.151-34.658 0-2.363-.167-4.766.05-6.931.422-4.223 2.003-7.347 4.208-9.753 2.102-2.569 4.951-4.321 8.515-5.446 1.194-.377 2.473-.552 3.862-.792.297-7.184-.141-15.032.148-21.883 1.154-.354 2.597-.035 3.862-.148.075-.007.088-.049.149-.05 3.084-.022 6.258-.018 9.012.097zm4.554 65.849c.311-.519.633-1.166.693-1.782.403-4.164-.098-8.527.049-13.517.066-2.23 0-4.41 0-6.733 0-2.188.261-5.007-.198-6.634-.541-1.917-2.593-3.893-4.555-4.109-.12-.013-.168.087-.247.099-.217 10.986 0 22.331 0 33.469 0 .71-.118 1.461.148 2.129 1.722-.174 3.24-1.468 4.11-2.922z"/><path d="m46.551.062c.365 1.951.064 4.187.05 6.238-.014 1.888.299 3.899 0 5.743-2.755.21-5.889.149-9.061.149-1.026 0-2.053.116-2.971-.149-.179-2.811-.099-6.064-.099-9.109 0-.999-.12-1.999.148-2.872 3.864-.082 8.071-.083 11.933 0zm-7.377 5.842c-.093 1.702 2.294 2.181 2.724.594.569-2.455-2.622-2.457-2.724-.594z"/></g></svg>