<svg enable-background="new 0 0 71.988 77.33" viewBox="0 0 71.988 77.33" xmlns="http://www.w3.org/2000/svg"><path clip-rule="evenodd" d="m27.048 14.892c.422-.229.271-.803.284-1.23.1-3.162-.087-6.674.047-9.94.471-.799 1.96-1.557 2.84-2.035 1.124-.613 2.102-1.389 3.077-1.658.645-.176 1.521.504 2.083.854 1.709 1.06 3.57 2.152 5.254 3.123 4.784 2.762 9.049 5.502 14.011 8.33 1.624.928 3.429 2.033 5.254 3.125.644.385 1.42.734 1.609 1.184.277.658.094 2.137.094 2.934.001 2.203 0 3.82 0 6.059.001 1.025-.16 2.17.095 2.936.258.771 1.649 1.332 2.367 1.799 1.747 1.139 3.383 2.018 5.206 3.123.726.439 2.208 1.094 2.462 1.705.175.422.11 1.057.095 1.656-.015.555.069 1.076.047 1.656-.045 1.162.205 2.918-.095 3.598-.274.621-1.615 1.176-2.225 1.514-1.727.963-3.007 1.691-4.733 2.746-.595.363-2.138 1.01-2.177 1.562-.044.615 1.663 1.424 2.13 1.75 1.691 1.184 3.063 1.9 4.828 2.936.689.404 1.966.926 2.225 1.609.141.371.116 1.021.095 1.703-.017.512 0 1.121 0 1.658 0 1.09.225 2.936-.142 3.596-.218.395-1.147.748-1.704 1.09-4.019 2.467-8.173 4.773-12.212 7.1-4.221 2.432-8.144 4.607-12.307 7.053-.44.258-1.512.982-1.987.898-.908-.158-1.966-.947-2.793-1.42-2.263-1.289-4.345-2.469-6.626-3.785-.494-.287-1.055-.658-1.516-.664-.792-.01-2.066.984-2.65 1.326-.899.523-1.723.975-2.509 1.42-1.241.701-2.366 1.459-3.691 2.225-.466.27-.957.604-1.325.615-.585.02-1.245-.498-1.704-.758-1.171-.66-1.91-1.08-3.077-1.846-.462-.303-1.226-.621-1.372-1.041-.241-.686-.048-1.936-.048-2.84 0-1.941 0-3.809 0-5.729 0-.834.208-1.813-.378-2.461-.952.127-1.722.74-2.509 1.184-1.624.918-3.095 1.736-4.828 2.746-.685.395-1.643 1.307-2.464 1.322-.451.01-1.117-.473-1.609-.758-1.068-.617-1.795-1.107-2.934-1.75-.512-.289-1.262-.572-1.372-1.09-.12-.559-.018-1.275 0-1.986.114-4.756-.049-8.953-.048-14.012.001-4.174-.048-8.027-.047-12.307 0-1.357-.204-3.15.095-3.975.247-.686 1.946-1.42 2.603-1.799 1.921-1.109 3.752-2.152 5.585-3.219.862-.502 1.873-.891 2.65-1.705.186-2.9.047-5.783.047-8.898.001-1.002-.189-2.16.096-2.934.202-.551.866-.781 1.372-1.09 1.168-.709 1.863-1.123 3.077-1.846.431-.256 1.234-.855 1.751-.805.829.082 1.73.889 2.461 1.326 1.691 1.012 3.116 1.902 4.733 2.84.813.473 1.559 1.114 2.509 1.28zm15.099 11.312c.001-.603-1.608-1.312-2.272-1.703-1.772-1.047-3.174-1.842-5.017-2.982-.41-.254-2.315-1.182-2.272-1.752.031-.406.942-.771 1.325-.994 2.655-1.535 4.936-2.832 7.526-4.307.702-.4 2.086-1.648 3.124-1.609.844.031 1.942 1.023 2.697 1.467 2.273 1.334 4.374 2.584 6.579 3.834.438.25.976.625 1.468.615.574-.01 1.331-.555 1.846-.852.356-.205 1.521-.75 1.516-1.23-.006-.436-.984-.859-1.373-1.088-3.712-2.19-7.57-4.395-10.981-6.533-3.717-2.33-7.215-4.293-10.934-6.531-.718-.432-1.408-.994-2.225-.805-.566.242-1.011.563-1.61.899-.417.236-1.382.596-1.372 1.137.007.375.685.701 1.089.947 1.394.844 2.49 1.443 3.834 2.272.824.508 1.618 1.033 2.509 1.562.445.264 2.366 1.148 2.366 1.703 0 .483-.902.861-1.278 1.09-.575.348-.975.527-1.467.898-2.324 1.221-4.5 2.518-6.815 3.834-.627.355-1.604 1.205-2.367 1.184-.381-.012-.955-.387-1.42-.662-1.35-.803-2.663-1.672-3.929-2.414-.921-.541-1.795-1.057-2.65-1.562-.882-.521-1.707-1.201-2.793-1.467-.663.098-1.237.488-1.894.899-.398.248-1.563.764-1.562 1.277.001.42.965.912 1.325 1.137 2.617 1.635 5.299 3.072 7.858 4.639 4.69 2.871 9.289 5.68 14.011 8.473.533.316 1.185.775 1.751.758.783-.027 1.34-.727 1.846-.9.514-.48 1.56-.587 1.561-1.234zm-10.792-12.353c1.295-.758 2.581-1.443 3.881-2.225.435-.262 1.721-.781 1.704-1.373-.014-.477-1.201-1.025-1.704-1.326-1.261-.748-2.63-1.625-3.739-2.318-.676-.422-1.568-.967-2.271-.994-.388.584-.237 1.422-.237 2.225 0 1.621-.011 3.269 0 4.828.006.754-.178 1.617.331 2.082.783-.018 1.416-.538 2.035-.899zm23.004 14.674c-.001-1.791 0-3.59 0-5.396 0-.824.162-2.014-.048-2.65-.181-.549-1.443-1.141-2.083-1.516-1.678-.982-2.995-1.729-4.543-2.65-.691-.41-1.909-1.334-2.557-1.137-.373.295-.236 1.678-.236 2.416v5.205c0 .789-.153 1.979.047 2.604.224.701 1.356 1.193 2.083 1.609 1.694.971 3.074 1.787 4.639 2.746.727.443 1.512 1.123 2.461 1.135.419-.659.237-1.542.237-2.366zm-16.378 10.98c0-2.104.001-4.146 0-6.248 0-1.027.162-2.33-.142-3.029-.169-.391-.77-.801-1.325-1.137-1.646-.99-3.174-1.918-4.687-2.84-2.175-1.326-4.203-2.357-6.247-3.738-2.026-1.369-4.093-2.555-6.201-3.787-1.492-.873-3.173-1.887-4.733-2.793-.514-.297-1.428-.986-1.893-.709-.368.395-.237 1.645-.237 2.414 0 1.871.076 3.426 0 5.158-.038.867-.123 2 .095 2.557.161.412.745.762 1.184 1.041.472.301.942.594 1.372.851.72.432 2.354 1.062 2.604 1.846.208.65.048 1.811.048 2.652v5.441c0 .869-.191 1.814.284 2.463.96-.149 1.698-.658 2.413-1.09 1.519-.912 2.772-1.674 4.45-2.604.653-.361 1.558-1.221 2.319-1.23.496-.006 1.184.492 1.703.805 1.166.703 1.948 1.143 3.124 1.895.357.229 1.389.656 1.373 1.184-.019.609-1.905 1.387-2.461 1.703-.965.549-1.839 1.111-2.603 1.562-.778.459-1.806.934-2.651 1.514-.672.461-2.153 1.068-2.414 1.752-.291.764-.094 2.445-.094 3.645-.001 3.852.047 7.273.047 11.076v11.217c0 .691-.23 3.203.284 3.457.294.145.909-.242 1.23-.428 2.004-1.156 3.613-2.131 5.538-3.266.613-.361 1.884-.854 2.13-1.42.309-.711.095-1.867.095-2.887 0-1.068-.157-2.326.047-3.029.203-.697 1.459-1.146 2.178-1.562 1.963-1.135 3.862-2.266 5.68-3.361.353-.211.886-.365.947-.898-.123-.453-.6-.652-.947-.852-2.012-1.162-3.758-2.127-5.822-3.314-.64-.367-1.872-.896-2.082-1.561-.145-.457-.047-1.238-.047-1.895 0-.678 0-1.35 0-1.986 0-.975-.263-3.447.378-3.598.385-.092.907.371 1.373.662 2.236 1.399 4.211 2.502 6.438 3.834.771.461 1.847 1.295 2.745 1.373.518.045 1.267-.51 1.799-.805 7.599-4.225 14.938-8.541 22.435-12.875.406-.234 1.387-.695 1.373-1.184-.011-.34-.557-.646-.899-.852-1.166-.699-2.397-1.348-3.408-1.988-.691-.439-1.31-.943-2.13-1.42-.519-.301-1.747-1.199-2.414-1.184-.46.01-1.008.443-1.468.711-1.083.629-1.692.983-2.745 1.609-.456.271-1.044.723-1.515.709-.325-.01-.849-.348-1.23-.568-1.945-1.117-3.833-2.365-5.633-3.408-.749-.434-1.349-.967-2.414-1.135-.433.607-.371 1.512-.331 2.365.082 1.736.048 3.6.047 5.396 0 .939.128 2.025-.094 2.65-.256.721-1.702 1.348-2.32 1.705-.899.521-1.667.959-2.461 1.467-.634.234-.969.768-1.799.805-.479-.758-.285-1.83-.286-2.838zm-.709-18.318c1.283.764 2.532 1.51 3.786 2.271.613.373 1.259.928 2.035.9.447-.475.284-1.316.284-2.082 0-1.596 0-3.225 0-4.781 0-.734.171-1.666-.379-2.035-.729.072-1.367.545-1.988.898-1.278.729-2.539 1.412-3.786 2.178-.601.369-1.322.678-1.657 1.326.356.651 1.084.956 1.705 1.325zm22.72-.569c-.001-.981.211-2.539-.758-2.129-1.075.455-2.607 1.221-3.219 2.129-.02 2.687-.22 5.551-.095 8.189.023.496-.085 1.158.331 1.42.71-.041 1.333-.549 1.941-.899.604-.35 1.384-.603 1.704-1.232.056-2.073.096-4.989.096-7.478zm-46.813 7.102c-.648-.404-1.452-1.025-2.083-.853-.971.268-2.178 1.137-3.219 1.752-1.127.668-2.266 1.262-3.124 1.846-.37.404-1.9.715-1.893 1.42.006.522 1.116.957 1.562 1.231.525.322 1.201.939 1.94.9.718-.039 1.583-.785 2.178-1.137 1.77-1.047 3.579-2.043 5.301-3.029.354-.203.817-.432.852-.852-.151-.61-.929-.913-1.514-1.278zm26.365 2.461c-.03 2.361-.183 4.736-.095 7.1.027.742-.103 2.246.379 2.414.344.119.795-.215.994-.332.736-.428 2.262-1.023 2.508-1.799.162-.506.048-1.523.048-2.412 0-1.852 0-3.164 0-5.018 0-.908.17-2.076-.474-2.084 0-.025-.038-.053-.047 0-1.209.606-2.602 1.027-3.313 2.131zm-24.14.519c-2.185 1.09-4.211 2.406-6.39 3.693-.664.391-1.733.82-1.941 1.467-.188.586-.047 1.717-.047 2.557v5.205c0 .594-.194 2.09.379 2.273.55.176 1.783-.785 2.318-1.09 1.616-.918 2.928-1.74 4.402-2.603.714-.416 1.569-.713 2.035-1.467.086-2.424.048-5.193.048-7.668 0-.85.136-1.727-.19-2.414-.267-.124-.5-.009-.614.047zm.426 23.336c-3.076-1.639-5.902-3.289-9.04-5.065-.511-.289-1.152-.648-1.278-1.09-.231-.803-.024-1.973-.048-3.029-.045-2.084-.047-3.713-.047-5.963 0-.994.219-2.312-.048-3.076-.176-.506-.957-.801-1.515-1.137-.619-.373-1.358-1.039-1.987-.805-.418.32-.219 1.846-.237 2.604-.023.971 0 1.957 0 2.84-.001 7.371.049 14.264.048 21.631 0 .838-.116 1.771.047 2.273.169.516.972.887 1.468 1.182.619.369 1.132.805 1.799.758.482-.635.283-1.861.283-2.887.001-2.225 0-4.205 0-6.201.001-.914-.195-2.648.426-2.793.471-.109 1.216.527 1.609.758 2.606 1.523 4.986 2.797 7.526 4.307.745.443 2.545 1.191 2.84 1.941.261.66.084 2.07.095 3.123.029 2.756.027 6.184.095 9.041.288.672.969.99 1.562 1.326.606.342 1.228.838 2.035.898.394-.379.276-.979.283-1.467.112-7.828-.046-16.176-.047-24.377 0-1.072.203-2.906-.095-3.691-.195-.518-.98-.92-1.562-1.23-.686-.367-1.287-.764-1.94-.758-.41.244-.284.814-.284 1.23v7.668c0 1.014.175 2.119-.331 2.65-.65-.028-1.177-.405-1.657-.661zm4.923-11.548c.52.295 1.247.873 1.893.852.651-.021 1.405-.707 2.083-1.088 1.457-.82 2.466-1.539 3.976-2.367.562-.309 1.816-.775 1.799-1.373-.014-.463-1.031-.93-1.515-1.231-.573-.357-1.536-1.115-2.082-.852-1.247.602-2.495 1.582-3.929 2.318-.675.348-1.349.756-1.988 1.137-.666.396-1.511.729-1.751 1.42.262.514.9.834 1.514 1.184zm47.995 14.341c-2.593 1.387-4.862 2.895-7.431 4.307-.386.213-1.062.642-1.42.475-.464-.219-.284-1.09-.284-1.469-.001-3.146-.047-6.012-.048-8.852 0-1.121-.198-2.629.095-3.455.221-.621 1.834-1.371 2.604-1.799 2.501-1.387 4.381-2.59 6.816-3.928 1.337-.734 1.305-.908 1.23-3.076-.029-.857.153-2.111-.71-1.705-1.048.494-2.059 1.195-3.124 1.799-.525.299-1.076.537-1.609.852-.516.305-.989.707-1.515.994-5.283 2.898-10.505 6.031-15.81 8.994-.783.438-2.679 1.273-2.981 1.988-.301.707-.254 3.695.331 3.881.324.104.921-.301 1.325-.521 2.205-1.201 4.207-2.398 6.248-3.598.833-.488 1.646-1.119 2.65-1.324.451.299.331.939.331 1.42 0 3.621.052 7.26 0 10.602-.01.676.137 1.277 0 1.705-.126.396-.621.664-1.183.994-2.438 1.43-4.627 2.725-7.006 4.023-.657.359-2.346 1.09-2.65 1.75-.222.48-.133 1.338-.142 2.131-.008.693-.104 1.609.473 1.799.619.02 1.152-.426 1.657-.711 3.765-2.123 7.408-4.184 11.171-6.342 3.104-1.781 6.361-3.684 9.514-5.49.474-.274 1.013-.565 1.609-.9.506-.283 1.293-.73 1.42-1.088.179-.506.047-1.404.047-2.082 0-.701.171-1.592-.284-1.895-.542-.131-.922.307-1.324.521zm-53.202-13.726c-.659.258-1.264.68-1.893 1.041-1.184.678-2.538 1.459-3.787 2.178-.504.289-1.674.85-1.657 1.324.02.514 1.367 1.121 1.705 1.326 1.333.813 2.619 1.459 3.881 2.178.619.352 1.249.846 2.083.945.513-.426.331-1.281.331-2.035 0-1.574 0-3.207 0-4.732 0-.789.128-1.59-.19-2.178-.163-.084-.337-.102-.473-.047zm27.216 10.98c0-.699.073-1.475-.095-1.988-.178-.541-1.241-1.043-1.846-1.42-1.473-.912-2.767-1.668-4.118-2.461-.686-.402-1.547-1.027-2.178-1.135-.081-.016-.166.047-.189.094-.393.244-.327 1.178-.331 1.988-.004.717-.046 1.373.095 1.752.236.631 1.184 1.098 1.846 1.467 1.507.836 2.845 1.592 4.213 2.414.706.424 1.422.92 2.271 1.041.483-.256.332-1.082.332-1.752zm18.649-4.402c-.481.301-.282 1.246-.283 1.895-.002 1.064 0 2.496 0 3.881 0 .971-.26 3.398.426 3.551.3.066.78-.26 1.089-.428 1.123-.605 1.858-1.07 2.887-1.656.581-.33 1.175-.697 1.894-1.135.461-.281 1.718-.768 1.704-1.326-.012-.49-1.192-1.078-1.656-1.373-.705-.447-1.469-.846-1.941-1.135-1.343-.828-2.387-1.654-3.834-2.32-.147-.036-.141.081-.286.046zm-7.431 10.414c0-1.607 0-3.269 0-4.828 0-.775.158-1.629-.284-2.129-.164-.221-.43-.039-.52 0-1.324.557-2.379 1.305-3.834 2.129-.565.32-1.204.674-1.894 1.088-.469.283-1.68.816-1.656 1.326.024.529 1.393 1.121 1.751 1.326 1.344.762 2.688 1.584 3.977 2.271.643.344 1.295.83 2.177.947.45-.497.283-1.347.283-2.13zm-40.611-.852c-1.298-.772-2.489-1.512-3.835-2.225-.683-.363-1.361-.785-2.035-.994-.803-.25-.561 1.305-.567 2.178-.014 1.693-.152 3.59-.095 5.254.021.617.013 1.51.331 1.656.705.324 1.639-.803 2.083-.9.997-.539 2.005-1.102 2.981-1.703.962-.592 2.079-1.025 2.793-1.893-.22-.736-1.042-1.007-1.656-1.373zm23.429 6.295c1.543.877 2.882 1.66 4.496 2.557.614.34 1.673 1.193 2.367 1.182.322-.004.833-.303 1.23-.52 2.082-1.135 3.658-2.061 5.633-3.219.381-.223 2.055-.965 2.035-1.516-.018-.504-1.475-1.184-2.035-1.514-1.687-.99-3.009-1.623-4.592-2.604-.628-.389-1.909-1.375-2.697-1.088-1.501.545-2.908 1.629-4.402 2.461-.723.402-1.436.883-2.13 1.277-.732.418-1.693.707-1.94 1.516.41.732 1.3 1.05 2.035 1.468zm-2.746 3.977c.102 1.098 1.156 1.48 2.036 1.986 1.564.904 2.632 1.562 4.165 2.367.52.273 1.726 1.15 2.225.994.447-.139.379-.865.379-1.752-.001-.77.062-1.59-.095-2.035-.219-.615-1.252-1.039-1.94-1.42-1.346-.742-2.871-1.619-4.118-2.365-.638-.383-1.779-1.166-2.414-.947-.245.186-.298 2.504-.238 3.172z" fill-rule="evenodd"/></svg>