<svg enable-background="new 0 0 79.516 79.434" viewBox="0 0 79.516 79.434" xmlns="http://www.w3.org/2000/svg"><g clip-rule="evenodd" fill-rule="evenodd"><path d="m32.247 0c.364.26.186.773.202 1.107.288 6.05-.172 12.299 0 18.274.188 6.518 0 13.05 0 19.684 0 13.103-.163 26.217.05 39.419.888.295 1.84.201 2.769.201 14.122-.004 29.508.169 43.396 0 .308-.907.106-1.873.151-2.819.316-6.642.101-13.727.101-20.59-.001-6.704.157-13.463.05-20.439-.014-.892.059-1.81-.151-2.668-10.148-.268-20.905.014-31.162-.252-.292-2.499-.101-5.086-.101-7.702 0-7.857-.016-16.04.05-23.862.491-.117.821.429 1.108.704 7.734 7.45 15.323 15.274 22.956 22.906 1.988 1.988 3.944 3.994 5.94 5.99.661.661 1.444 1.255 1.863 2.115.106 11.717 0 23.798 0 35.794 0 1.965-.021 3.923-.05 5.839-.029 1.93.171 3.825-.101 5.689-9.9.1-19.686-.003-29.803 0-3.303 0-6.645-.15-9.917 0-3.305.15-6.603-.206-9.918-.051-1.596.074-3.216.007-4.833 0-8.005-.036-16.473-.042-24.668-.201-.274-.906-.151-1.887-.151-2.819 0-13.821.05-27.364.05-41.382 0-.978-.166-2.144 0-2.92.132-.619 1.327-1.549 1.913-2.114 4.712-4.54 9.466-9.415 13.996-13.945 5.367-5.367 10.597-10.645 16.059-15.857.033-.069.107-.094.201-.101zm-15.707 31.867c-4.929-.001-10.82-.057-15.506.05-.411.846-.144 1.802-.151 2.719-.104 13.037-.1 25.379-.1 38.009v2.97c0 .957-.114 1.944.151 2.87 2.498.141 5.104.26 7.703.15 2.483-.104 5.027.142 7.299-.15.2-9.074.151-18.083.151-27.286 0-1.274-.088-2.539.151-3.726 5.127-.152 10.228.174 15.354-.101.272-1.162.151-2.451.151-3.725 0-3.872.083-7.979-.101-11.63-4.875-.132-9.926-.15-15.102-.15z"/><path d="m63.56 47.624c.332 1.148.201 2.451.201 3.725 0 1.262-.084 2.549-.101 3.827-.034 2.603.254 5.381-.101 7.853-2.619.094-5.367.208-8.055.101-2.675-.107-5.366.154-7.904-.15-.237-4.314-.05-9.365-.05-13.693 0-.571-.155-1.225.151-1.712 5.294-.062 10.862-.131 15.859.049z"/></g></svg>