<svg enable-background="new 0 0 75.663 79.903" viewBox="0 0 75.663 79.903" xmlns="http://www.w3.org/2000/svg"><g clip-rule="evenodd" fill-rule="evenodd"><path d="m.067 79.7c-.117-19.71-.045-39.617-.047-59.935-.002-4.951 0-9.708 0-14.853 0-.833-.041-1.691 0-2.523.035-.766-.027-1.54.143-2.285.039-.008.047-.047.096-.047 9.431-.07 18.951-.048 28.8-.048 4.857 0 9.865-.133 13.852.619 4.158.785 7.607 1.985 10.855 3.618 6.398 3.218 11.523 7.749 15.279 13.663 1.92 3.022 3.461 5.973 4.713 9.759 1.211 3.657 1.904 7.801 1.904 12.52.002 9.254-3.062 16.401-6.902 22.041-1.984 2.914-4.102 5.546-6.711 7.759-5.133 4.352-11.434 7.948-19.613 9.283-4.141.675-8.996.57-13.807.571-8.289.001-16.699.047-25.182.047-.598 0-1.215.028-1.81 0-.517-.023-1.086.037-1.57-.189zm29.277-5.38c4.227-.101 7.988.199 11.615-.333 3.399-.499 6.483-1.555 9.283-2.809 5.488-2.456 9.822-6.332 13.281-10.854 1.697-2.217 3.027-4.912 4.236-7.807 1.199-2.867 2.107-6.277 2.334-9.759.519-8.016-1.291-14.606-4.285-19.661-.393-.663-.666-1.352-1.047-1.952-2.729-4.289-6.287-7.826-10.664-10.473-5.084-3.076-10.873-5.189-18.947-5.189-9.966.002-19.858-.061-29.561.143-.193 5.645-.146 11.331-.143 16.948.012 16.131 0 32.916 0 49.651 0 .68-.113 1.43.143 2.095 7.892.05 15.957.187 23.755 0z"/><path d="m36.77 11.91c4.221-.179 8.518.943 11.568 2.333 4.811 2.191 8.561 5.33 11.426 9.378 2.772 3.916 5.047 9.258 5.045 15.757 0 4.587-.924 8.261-2.379 11.521-1.432 3.202-3.317 5.888-5.619 8.236-2.229 2.274-4.92 4.311-8.092 5.808-4.678 2.206-11.441 3.271-17.613 1.952-5.506-1.178-10.012-3.965-13.426-7.378-2.305-2.305-4.24-4.908-5.76-8.141-1.478-3.143-2.57-6.834-2.57-11.282 0-8.896 3.445-15.214 7.902-19.851 2.223-2.312 4.982-4.258 8.141-5.76 3.152-1.5 6.768-2.57 11.281-2.571.034-.002.065 0 .096-.002zm-4.855 9.236c-3.857 1.062-6.572 3.109-8.853 5.522-2.951 3.121-5.412 7.586-5.143 13.996.242 5.734 2.955 10.161 6.094 13.043 3.338 3.065 7.926 5.411 14.043 5.142 5.777-.254 10.045-3.03 12.996-6.141 3.045-3.208 5.436-7.753 5.143-13.901-.281-5.879-2.826-10.14-5.998-13.139-3.119-2.947-7.904-5.47-14.045-5.142-1.399.076-2.929.259-4.237.62z"/></g></svg>