<svg enable-background="new 0 0 74.591 67.512" viewBox="0 0 74.591 67.512" xmlns="http://www.w3.org/2000/svg"><path clip-rule="evenodd" d="m69.886 30.513c1.563 1.441 3.205 2.807 4.63 4.387.046 5.269.049 10.768.049 16.277v12.232c0 1.334.119 2.666-.146 3.949-1.322.135-2.923.098-4.533.096-1.586 0-3.301.117-4.679-.145-.129-5.664-.048-11.35-.049-17.254 0-1.904.111-3.83-.146-5.654-.869-.262-1.813-.144-2.729-.144-6.277 0-13.333-.074-19.641.096-.294.867-.146 1.848-.146 2.779 0 .938-.014 1.885 0 2.826.03 1.975.091 3.998 0 5.947-.18 3.867.185 7.771-.146 11.453-2.781.162-6.235.16-9.017 0-.237-1.928-.146-3.994-.146-6.143 0-14.402.094-29.598-.098-44.156-.573-.017-.911.615-1.316.926-4.438 3.996-8.726 8.139-13.111 12.186-1.208 1.1-2.347 2.266-3.606 3.314-.262.439-.951.701-.975 1.219 5.305.406 11.205-.152 16.668.195.229 2.732.209 6.338.049 9.26-7.03.254-14.38-.031-21.347.193-.335.838-.195 1.816-.195 2.73 0 6.65.085 13.615-.098 20.275-2.171.178-4.596.189-6.823.096-.773-.031-1.556.131-2.242-.145-.126-10.695-.107-21.328-.049-32.314.524-.986 1.402-1.619 2.193-2.338 11.582-10.855 23.121-21.75 34.75-32.557.023-.049.112-.115.195-.098.597.113 1.56 1.33 2.144 1.852.764.682 1.321 1.404 1.95 1.998 1.399 1.322 2.828 2.555 4.143 3.754 2.791 2.541 5.443 5.199 8.139 7.65 5.651 5.141 10.962 10.371 16.328 15.258zm-27.342-12.137c-.165 2.481-.097 5.451-.097 8.236v4.143c0 1.357-.116 2.738.146 3.998 5.752.129 11.894.111 17.643-.049-.041-.518-.547-.818-.877-1.121-1.131-1.039-2.193-2.094-3.314-3.119-3.706-3.395-7.334-6.812-11.063-10.236-.595-.545-1.655-1.693-2.339-1.998-.063.021-.101.064-.099.146z" fill-rule="evenodd"/></svg>