<svg enable-background="new 0 0 187.244 74.542" viewBox="0 0 187.244 74.542" xmlns="http://www.w3.org/2000/svg"><path clip-rule="evenodd" d="m.343 0c24.232.269 48.229.007 72.524.26.28 1.274.155 2.664.155 4.052 0 4.023.099 8.373-.155 12.157-18.461.184-37.878-.11-56.419.104-.023.046-.046.093-.104.104-.137 13.369-.158 27.81-.053 41.146.755.277 1.59.156 2.391.156 12.504 0 25.389.068 37.664-.052.074-.029.127-.081.155-.156.11-4.031.172-8.353 0-12.364-.046-.023-.093-.045-.103-.104-9-.232-18.452.053-27.949-.156-.023-.046-.046-.093-.104-.104-.08-5.275-.115-10.956.052-16.157 19.101-.358 37.993.133 57.406-.208.12.016.058-.15.155-.156.046-8.238.051-16.238.053-24.884 0-1.157-.146-2.332.207-3.377 24.125-.068 48.327-.081 72.473 0 .293.864.141 1.797.155 2.701.215 13.562-.068 28.136-.104 42.133-.107.015-.102.141-.208.156-18.677.076-37.333.022-56.107.052-.001.051-.063.04-.104.052-.378.889-.178 1.948-.156 2.961.064 3.005-.135 6.363 0 9.455.016.106.141.102.156.208 22.776.123 45.676.076 68.42 0 .309-1.148.122-2.35.155-3.533.101-3.565.051-7.13.052-10.702.004-14.589-.083-29.223.156-43.379.046-.023.093-.045.103-.104 5.125-.087 10.647-.067 15.794.104.361.666.207 1.468.207 2.182-.001 24.097-.077 47.569-.155 71.796-.047.023-.093.046-.105.104-33.797.08-67.203.165-100.889-.052-.022-.046-.046-.093-.104-.104-.2-9.525.126-19.442-.104-28.833-.01-.042-.052-.052-.052-.103-4.064-.145-8.689-.217-12.728.052-.321 2.298-.035 4.686-.104 7.117-.198 7.09.127 14.708-.156 21.767.015.084-.049.09-.052.156-6.049-.065-12.082.227-18.131 0-3.012-.113-6.182-.145-9.247 0-3.062.145-6.108-.112-9.144 0-5.843.214-11.9 0-17.975 0-4.583-.001-9.194-.104-13.768-.104-.78 0-1.566.024-2.338 0-.685-.021-1.422.043-2.078-.207-.16-24.204-.06-49.402.107-73.98.029-.075.082-.127.156-.156zm102.084 16.625c-.371.807-.212 1.816-.208 2.805.016 2.998-.204 6.383.053 9.247 1.578.313 3.2.095 4.831.156 1.581.059 3.207-.026 4.831 0 10.183.163 20.591-.06 30.392-.104.279-.893.156-1.907.156-2.91 0-3.062.093-6.239-.105-9.143-13.136-.211-26.813-.077-39.95-.051z" fill-rule="evenodd"/></svg>