<svg enable-background="new 0 0 78.495 76.822" viewBox="0 0 78.495 76.822" xmlns="http://www.w3.org/2000/svg"><g clip-rule="evenodd" fill-rule="evenodd"><path d="m68.84.142c.22 3.103.22 7.066.05 10.452-.956.268-1.985.149-2.986.149-7.085.001-14.392.031-21.303.1-.336 1.259-.165 2.58-.199 3.883-.105 4.021.049 8.254.05 12.443 0 16.449.184 33.156 0 49.474-3.254.093-7.069.201-10.552 0-.182-5.543-.1-11.037-.1-16.525 0-5.422-.172-10.842-.049-16.225.061-2.71-.084-5.47-.05-8.213.102-8.04.02-16.399-.1-24.737-.95-.263-1.988-.149-2.986-.149-6.183 0-12.125.051-18.416.05-.993 0-1.999.117-2.936-.149-.166-3.253-.166-7.198 0-10.452 4.978-.275 9.962.007 14.981-.149 5.081-.158 10.198.24 15.38 0 4.473-.207 9.725 0 14.633 0 4.969-.001 9.863-.182 14.583.048z"/><path d="m31.808 12.884c.304 9.258.026 18.929.149 28.619.123 9.672.087 19.435.05 29.018-.008 1.987.221 4.177-.1 6.122-10.408.192-21.648.26-31.904.05-.052-.508.487-.786.796-1.095.329-.329.647-.681.945-.996 4.963-4.775 9.465-10.013 14.335-14.882 2.437-2.437 4.882-4.878 7.267-7.366 2.08-2.17 4.199-4.299 6.271-6.521.276-.296.744-.526.796-.995-2.171-.473-4.166-.887-5.873-1.792-1.668-.884-3.089-1.995-4.33-3.285-1.9-1.966-3.231-4.43-3.932-7.565-.746-3.333-.236-7.076.945-9.806 2.116-4.886 6.881-9.011 13.339-9.556.391-.033.857-.157 1.246.05z"/><path d="m46.541 12.784c3.538.141 6.476 1.248 8.81 2.837 2.25 1.532 4.145 3.802 5.276 6.321 1.209 2.694 1.941 6.243 1.294 9.806-.58 3.188-2.048 5.788-3.833 7.764-2.421 2.739-5.765 4.556-10.154 5.326.032.482.51.789.796 1.095 4.677 4.988 9.71 9.814 14.434 14.832 2.525 2.683 5.166 5.267 7.765 7.864 2.285 2.284 4.466 4.615 6.769 6.919.292.292.794.552.796 1.045-5.04.143-10.475.1-15.977.1-5.389 0-10.83.198-16.027-.1-.146-10.474-.148-20.949-.149-31.755-.001-9.798-.05-19.946-.05-29.963 0-.715-.071-1.619.1-1.941.029-.071.078-.122.15-.15z"/></g></svg>