<svg enable-background="new 0 0 83.027 59.798" viewBox="0 0 83.027 59.798" xmlns="http://www.w3.org/2000/svg"><g clip-rule="evenodd" fill-rule="evenodd"><path d="m43.339.19c.306 10.507-.016 21.465.052 31.849-.415.501-1.032.859-1.605 1.191-.584.338-1.17.7-1.761 1.036-1.167.664-2.41 1.285-3.366 2.175.168.741.613 1.374.932 2.02.316.64.587 1.37 1.139 1.812 2.968-1.262 5.438-3.021 8.338-4.35 11.885.07 23.975-.104 35.733.104.281 1.078.23 2.276.207 3.47-.068 3.42.112 7.158-.155 10.513-9.897.146-19.681.156-29.519.155-1.356 0-3.15-.307-4.246.052-.711.232-1.483.723-2.227 1.139-3.556 1.991-7.023 4.013-10.668 6.111-.654.376-1.394.741-2.175 1.191-.556.32-1.798 1.185-2.175 1.14-.412-.05-.859-1.148-1.14-1.657-2.275-4.135-4.881-8.309-7.146-12.377-2.316-4.16-4.707-8.143-7.146-12.429-.281-.493-.967-1.45-.932-1.812.038-.391 1.062-.877 1.502-1.139 1.648-.98 3.384-2.028 4.92-2.952 2.221-1.336 4.414-2.479 6.525-3.987.051-2.903.155-6.297-.052-9.114-1.05-.188-2.231-.128-3.418-.155-3.507-.084-7.514-.057-10.824.155-.279 1.462-.155 2.975-.155 4.454.001 1.526.012 3.044-.052 4.557-.125 2.975.052 6.028.052 9.062.001 5.801.118 11.604-.103 17.607-3.255.188-6.963.104-10.461.104-1.145 0-2.291.116-3.315-.155-.184-15.575-.052-32.238-.053-48.682 0-.796-.101-1.156.622-1.243.842-.102 1.802.051 2.693.051 13.041.002 26.925-.095 39.979.104z"/><path d="m82.852.242c.315 4.408.089 9.339.052 13.878-10.161.196-20.954.103-31.59.103-1.445.001-2.902.085-4.247-.155-.259-3.099-.104-6.94-.104-10.616 0-.794-.243-3.152.311-3.314.482-.142 1.635-.052 2.382-.052 10.961.002 22.512-.017 33.196.156z"/><path d="m47.275 18.005c11.967.092 23.851-.093 35.578.104.291 1.086.063 2.251.104 3.418.04 1.157-.117 2.304-.104 3.47.027 2.358.287 4.763.052 7.043-2.9.235-5.886.155-8.907.155-8.725 0-17.961.097-26.929-.155-.188-3.136-.104-6.943-.104-10.513 0-.968-.108-2.875.155-3.418.038-.049.094-.079.155-.104z"/></g></svg>