<svg enable-background="new 0 0 82.038 68.799" viewBox="0 0 82.038 68.799" xmlns="http://www.w3.org/2000/svg"><g clip-rule="evenodd" fill-rule="evenodd"><path d="m81.855.477c.277 1.182.156 2.477.156 3.762 0 3.681.055 7.738-.156 11.442-.726.278-1.544.156-2.299.156-2.406 0-4.887-.026-7.315-.052-3.19-.033-6.446-.177-9.51.104-6.013.554-10.268 2.899-13.427 6.218-1.469 1.747-2.866 3.724-3.711 6.113-.273.776-.433 1.612-.939 2.299-2.756.119-6.092.119-8.883-.052-.375-.288-.334-.822-.418-1.201-1.576-7.126-6.164-12.121-13.532-13.532-.936-.179-1.906-.176-2.978-.209-5.969-.188-12.607.102-18.601-.261-.275-1.02-.156-2.473-.157-3.814 0-3.098.001-6.232 0-9.718 0-.818-.1-1.541.575-1.672.688-.134 1.694 0 2.612 0 12.516 0 25.641.21 38.298.209 5.217 0 10.284-.144 15.466 0 6.646.184 12.849.051 19.855.051h2.561c.786 0 1.638-.118 2.403.157zm-7.158 4.964c-4.968-.193-10.36-.053-15.569-.053-12.004 0-23.987-.052-36.104-.052-2.806 0-5.739.062-8.777-.052-2.662-.1-6.625-.166-9.092 0-.28.633-.161 1.508-.156 2.299.005.805-.113 1.664.104 2.351 1.471.307 3.025.126 4.598.156 1.563.031 3.161.021 4.755.052 3.173.063 6.449-.244 9.195.366 5.23 1.162 8.995 3.871 11.965 7.158 1.699 1.972 3.119 4.446 4.075 7.105.12.332.201.864.627.993.561-.59.875-1.361 1.201-2.038.355-.734.724-1.427 1.149-2.09 2.578-4.001 6.019-6.811 10.45-9.039 2.896-1.455 6.475-2.299 10.711-2.298 4.168 0 8.591.087 12.905-.105.328-1.269.193-3.204.052-4.598-.656-.29-1.403-.129-2.089-.155z"/><path d="m22.188 43.686c.452 1.193 1.334 2.137 2.037 3.187 2.761 4.122 5.598 8.318 8.412 12.436 1.755 2.565 3.548 5.081 5.33 7.681.331.483.832.986.836 1.619-6.415.064-12.912.311-19.385.052-3.191-.127-6.432.038-9.666-.104-2.441-.107-4.905.06-7.314-.052-.762-.035-1.572.147-2.299-.157-.232-3.836-.103-7.834-.104-11.86-.001-11.196.052-22.107.052-33.336 0-.944-.165-1.941.21-2.821 4.047-.042 9.237-.057 13.532.105 2.357.088 4.619-.128 6.635.156 1.864.263 3.718.931 4.964 1.776 2.481 1.685 4.829 4.899 5.068 8.464.309 4.608-1.226 7.52-3.605 9.875-.655.635-1.418 1.141-2.246 1.62-.823.475-1.789.699-2.457 1.359zm5.277 17.712c-2.912-4.366-5.829-8.501-8.778-12.905-.783-1.169-1.845-2.517-2.559-3.918-.279-.545-.713-1.01-.783-1.411-.111-.624 0-1.432 0-2.298 0-.749-.087-1.871.208-2.143.359-.33 1.617-.157 2.194-.157.89 0 1.698.07 2.352 0 2.342-.25 4.517-2.331 5.172-4.493 1.083-3.57-.968-6.61-3.238-7.733-1.846-.912-4.931-.836-7.681-.836-2.166 0-4.255-.052-6.374-.052-.686 0-1.458-.086-2.038 0-.808.12-.628.662-.628 2.09.001 5.73-.153 11.954-.051 16.928.131 6.382-.184 13.152.103 19.488.871.344 1.858.209 2.822.209 6.039.001 12.253.157 18.024.157.963 0 1.99.156 2.875-.209-.348-1.001-1.042-1.851-1.62-2.717z"/><path d="m81.855 21.167c.203 9.037.136 18.911-.053 27.795-.802.283-1.703.157-2.508.157-4.284-.001-8.499-.052-12.904-.052-1.759 0-3.535.149-5.226 0-1.546-.137-3.109-.889-4.545-1.672-1.336-.728-2.635-1.719-3.501-2.665-2.244-2.451-4.093-6.058-3.71-11.024.278-3.603 2.092-6.679 4.128-8.673 2.146-2.103 5.116-3.832 8.935-4.076 3.274-.209 6.603-.041 9.822 0 1.639.021 3.295.001 4.911.052 1.568.051 3.129-.16 4.651.158zm-8.203 5.225c-3.13 0-6.564-.198-9.561-.052-5.064.247-9.195 3.759-9.195 8.673 0 2.741 1.41 5.226 3.188 6.635.577.458 1.223.947 2.09 1.307 2.449 1.016 6.235.488 9.509.522 1.127.012 2.281.009 3.449.052 1.156.043 2.393.096 3.553-.156.271-.609.156-1.317.156-1.986 0-4.829.229-10.236-.105-14.838-.965-.278-2.025-.157-3.084-.157z"/><path d="m44.237 36.058c.348.989.381 1.987.574 2.926.956 4.617 3.358 8.414 6.583 10.92 1.294 1.005 2.79 1.981 4.337 2.665 1.689.747 3.437 1.33 5.591 1.411 4.384.164 9.373.052 13.846.052 1.175 0 2.371-.051 3.501 0 1.087.05 2.169-.153 3.134.209.19 3.42.104 7.351.104 11.024 0 1.183.16 2.435-.209 3.448-10.704.103-22.778.054-34.17.053-.735 0-1.584.102-2.037-.053-.392-.134-.805-.859-1.149-1.358-4.418-6.389-8.693-12.491-13.01-18.966-.276-.414-.606-.917-.993-1.463-.306-.431-.932-1.079-.94-1.515-.01-.49.476-.757.836-1.098 1.693-1.6 2.952-3.429 3.866-5.643.358-.868.645-1.749 1.149-2.613 2.756-.174 6.231-.171 8.987.001zm-6.584 7.628c-.187.325-.393.765-.679 1.202-.238.363-.685.795-.679 1.202.01.69 1.054 1.753 1.462 2.351 1.136 1.66 2.033 3.071 3.083 4.545.526.74.933 1.523 1.516 2.351 1.516 2.151 3.127 4.494 4.702 6.74.561.799 1.16 1.998 1.672 2.194.761.292 2.35.053 3.396.053 7.075 0 14.136.053 20.951.052 1.1 0 2.245.125 3.344-.157.264-.547.104-1.337.104-2.142 0-.788.108-1.679-.157-2.247-4.621-.265-9.423-.157-13.74-.157-1.188 0-2.268.026-3.292-.157-6.971-1.247-11.675-4.571-15.309-9.144-1.46-1.835-2.835-4.198-3.71-6.74-.252-.732-.554-2.448-1.097-2.456-.526.665-1.019 1.558-1.567 2.51z"/></g></svg>