<svg enable-background="new 0 0 77.156 76.831" viewBox="0 0 77.156 76.831" xmlns="http://www.w3.org/2000/svg"><path clip-rule="evenodd" d="m47.02 52.453c.528-.075.949.31 1.436.495 1.392.528 3.077 1.045 4.904.842.266-2.112.149-4.695.149-7.133-.001-5.93.051-11.551.05-17.832 0-.924.222-3.097-.148-3.468-.433-.433-2.153.014-2.774.148-2.666.579-4.677 1.724-6.39 3.17-.864.54-1.306 1.502-2.23 1.981-.422-1.213.125-3.394-.297-4.606-.26-.101-.585-.123-.892-.05-.422.619-.248 1.447-.248 2.18.002 11.172-.098 21.901-.099 33.09 0 .738-.119 1.526.148 2.229.191.148.8.148.99 0 .263-.543.148-1.179.148-1.783.001-4.273-.005-8.945.149-13.176.532.124.844.819 1.189 1.287 2.488 3.376 5.359 6.552 8.817 9.065 3.507 2.549 7.25 4.519 11.789 6.093.605.209 1.281.302 1.833.693-.03.752-.935 1.042-1.338 1.585-4.253 3.741-9.066 6.473-15.256 8.223-6.162 1.742-14.201 1.827-20.508.05-8.694-2.452-16.086-7.734-20.852-14.366-3.277-4.561-5.82-9.735-7.034-16.396-.625-3.436-.722-7.331-.297-10.946.807-6.864 3.27-12.382 6.39-17.041 1.477-2.205 3.333-4.46 5.399-6.34 3.136-2.851 6.465-5.218 10.551-7.034 1.364-.606 2.8-1 4.261-1.585 2.854-1.143 6.156-1.608 9.906-1.783 4.658-.217 9.601.369 13.028 1.535 5.539 1.887 10.075 4.273 13.969 7.679 1.289 1.127 2.572 2.29 3.615 3.616 2.154 2.736 4.288 5.388 5.796 8.619 1.474 3.155 2.849 6.819 3.517 10.946.659 4.065.639 8.804-.197 13.127-1.127 5.823-3.463 10.82-6.539 15.108-.444.62-.935 1.374-1.535 2.08-.439.517-1.215 1.72-1.783 1.783-.327.037-1.081-.248-1.585-.396-3.528-1.04-6.815-2.604-9.561-4.31-2.934-1.822-5.377-3.725-7.679-6.191-.305-.328-.706-.709-.792-1.188zm18.625-21.053c-.947-1.34-2.04-2.404-3.318-3.368-1.694-1.277-4.299-2.446-6.886-2.675-.059.023-.112.053-.148.099-.329.357-.198 2.499-.198 3.418.001 7.217-.097 14.369-.099 21.449-.001 1.169-.155 2.368.197 3.417 1.385.163 2.707-.321 3.864-.792 1.141-.465 2.224-1.019 3.17-1.685 1.745-1.226 3.662-3.246 4.508-5.251.222-.525 1.028-2.451.496-2.724-.771-.395-.985.869-1.14 1.238-1.252 2.976-3.308 5.201-5.896 6.638-1.05.583-2.26 1.188-3.665 1.238-.271-.992-.148-2.084-.148-3.121-.001-7.169.051-13.982.049-21.052 0-.465-.154-1.087.248-1.437 1.081.062 2.072.504 2.923.94 2.241 1.153 3.945 2.737 5.35 4.657.272.372.607.923 1.188.445.333-.553-.225-1.052-.495-1.434zm-29.572-5.449c-2.159-.001-4.327-.028-6.291-.049-.984-.011-2.225-.195-3.268 0-.771.144-.545 1.243-.545 2.08-.001 7.071-.1 14.561-.1 21.151v11.987c0 .803-.11 1.639.148 2.278.432.255.985.149 1.486.149 2.702-.001 5.663-.044 8.371.05 1.086.037 2.202.222 3.121-.149.192-10.726.197-21.928.198-32.742 0-1.617.119-3.21-.148-4.607-.948-.204-1.978-.147-2.972-.148z" fill-rule="evenodd"/></svg>