<svg clip-rule="evenodd" fill-rule="evenodd" stroke-linejoin="round" stroke-miterlimit="2" viewBox="0 0 560 400" xmlns="http://www.w3.org/2000/svg"><g fill-rule="nonzero" transform="matrix(.439596 0 0 .439596 145 77.4407)"><path d="m586.8 17.8c-15.1 0-27.5 12.4-27.5 27.5v203.1c0 2-1.6 3.6-3.6 3.6s-3.6-1.6-3.6-3.6v-212.5c0-15.1-12.4-27.5-27.5-27.5s-27.5 12.4-27.5 27.5v212.4c0 2-1.6 3.6-3.6 3.6s-3.6-1.6-3.6-3.6v-220.8c0-15.1-12.4-27.5-27.5-27.5s-27.5 12.4-27.5 27.5v220.9c0 2-1.6 3.6-3.6 3.6s-3.6-1.6-3.6-3.6v-210.8c0-15.1-12.4-27.5-27.5-27.5s-27.5 12.4-27.5 27.5v204.8l20 35.1c5.2 9.1 6.5 19.8 3.7 29.9-2.8 10.2-9.4 18.7-18.5 23.8-5.9 3.4-12.6 5.1-19.4 5.1-14.2 0-27.4-7.6-34.4-19.9l-41.1-72.2c-8.8-15.4-28.6-20.9-44.1-12.1-15.4 8.8-20.9 28.6-12.1 44.1l150.2 262.7h237.2v-496c.1-12.7-12.3-25.1-27.4-25.1z"/><path d="m217.4 250c2.8-10.2 9.4-18.7 18.5-23.8 5.9-3.4 12.6-5.1 19.4-5.1 14.2 0 27.4 7.6 34.4 19.9l41.1 72.2c8.8 15.4 28.6 20.9 44.1 12.1 15.4-8.8 20.9-28.6 12.1-44.1l-149.8-262.5h-237.2v496c0 12.8 12.4 25.1 27.5 25.1s27.5-12.4 27.5-27.5v-203.1c0-2 1.6-3.6 3.6-3.6s3.6 1.6 3.6 3.6v212.4c0 15.1 12.4 27.5 27.5 27.5s27.5-12.4 27.5-27.5v-212.4c0-2 1.6-3.6 3.6-3.6s3.6 1.6 3.6 3.6v220.9c0 15.1 12.4 27.5 27.5 27.5s27.5-12.4 27.5-27.5v-220.9c0-2 1.6-3.6 3.6-3.6s3.6 1.6 3.6 3.6v210.7c0 15.1 12.4 27.5 27.5 27.5s27.5-12.4 27.5-27.5v-204.8l-20-35.1c-5.7-9.2-7-19.8-4.2-30z"/></g></svg>