<svg clip-rule="evenodd" fill-rule="evenodd" stroke-linejoin="round" stroke-miterlimit="2" viewBox="0 0 560 400" xmlns="http://www.w3.org/2000/svg"><g fill="#15366f" fill-rule="nonzero" transform="matrix(1.55475 0 0 1.55475 -270.825 -865.589)"><path d="m0 0c-14.854-5.31-19.967-19.695-19.967-19.695-2-5.307-7.31-9.294-13.297-9.294h-28.168c-7.76 0-14.189 6.425-14.189 14.162 0 7.752 5.318 13.943 14.189 13.943l22.34-.038-32.326 32.337c-5.529 5.537-5.529 14.389 0 19.9 5.552 5.525 14.427 5.525 19.96 0l32.156-32.021v22.073c0 7.737 6.213 14.143 14.192 14.143 7.775 0 13.984-6.406 13.984-14.143v-28.093c0-5.972-3.552-11.513-8.874-13.274m-5.11-119.021c-7.752 0-13.973 5.106-13.746 13.943l.042 22.427-32.421-32.371c-5.534-5.545-14.631-5.545-19.956 0-5.537 5.514-5.537 14.589 0 19.888l32.069 32.099h-22.087c-7.983 0-14.185 6.41-14.185 14.135 0 7.749 6.202 14.166 14.185 14.166h28.161c5.983 0 11.308-3.534 13.311-8.852 5.103-15.027 19.503-20.114 19.503-20.114 5.556-1.992 9.328-7.079 9.328-13.274v-28.104c0-7.745-6.222-13.943-14.204-13.943m90.686 56.198-22.386.022 32.356-32.333c5.545-5.519 5.545-14.374 0-19.888-5.533-5.545-14.415-5.545-19.952 0l-32.152 32.073v-22.129c0-8.417-6.437-14.166-14.192-14.166-7.767 0-14.2 6.421-14.2 14.166v28.104c0 5.976 3.772 11.505 9.101 13.274 14.85 5.087 19.949 19.676 19.949 19.676 1.995 5.299 7.32 9.29 13.307 9.29h28.169c7.767 0 14.188-6.417 14.188-14.166 0-7.725-5.763-13.923-14.188-13.923m.223 34.061h-28.169c-5.983 0-11.535 3.541-13.304 8.848-5.106 14.823-19.733 20.137-19.733 20.137-5.325 1.996-9.32 7.079-9.32 13.277v28.09c0 7.737 6.429 13.92 14.2 13.92 7.759 0 13.969-5.745 13.969-13.92l.007-22.511 32.365 32.455c5.544 5.526 14.418 5.526 19.959 0 5.545-5.511 5.545-14.582 0-20.119l-31.929-31.853h21.955c7.756 0 14.185-6.418 14.185-14.162 0-7.745-6.429-14.162-14.185-14.162" transform="matrix(.352778 0 0 -.352778 265.189 674.474)"/><path d="m0 0h1.073l17.745-28.346h15.7l-15.31 22.983c-1.565 2.328-3.421 5.083-5.273 7.521 9.165 1.565 16.188 8.92 16.188 18.675 0 13.459-9.362 19.963-23.883 19.963-7.616 0-13.754-.094-18.928-.389v-68.753h12.688zm0 30.168c1.262.204 3.118.291 4.97.291 7.99 0 11.89-4.565 11.89-10.892 0-6.142-4.682-10.383-12.283-10.383-1.946 0-3.7.091-4.577.189z" transform="matrix(.352778 0 0 -.352778 318.855 669.289)"/><path d="m0 0c-14.721 0-24.771-10.911-24.771-26.033 0-17.254 8.98-24.367 22.719-24.367 14.441 0 24.778 10.915 24.778 26.128 0 16.675-8.874 24.272-22.726 24.272m-1.07-39.78c-7.12 0-10.82 5.061-10.82 15.02 0 9.937 5.461 14.238 11.021 14.238 7.306 0 10.722-5.069 10.722-14.442 0-9.845-4.777-14.816-10.923-14.816" transform="matrix(.352778 0 0 -.352778 340.265 661.85)"/><path d="m0 0 19.208 51.194h-13.361l-5.749-16.483c-1.561-4.475-3.613-11.017-4.683-15.401h-.102c-1.069 4.384-2.43 9.165-3.798 13.356l-6.535 18.528h-13.95l17.941-48.461-1.557-4.294c-2.634-7.597-6.916-9.547-11.013-9.547-2.049 0-4.29.385-6.138.975l-1.467-10.73c1.852-.393 4.774-.684 6.826-.684 11.21 0 18.044 4.777 24.378 21.547" transform="matrix(.352778 0 0 -.352778 359.55 680.254)"/><path d="m0 0c6.867 0 12.556 3.458 15.103 8.511v-7.543h11.898c-.287 3.987-.389 8.583-.389 12.472v19.997c0 10.825-4.479 17.065-19.491 17.065-6.55 0-13.467-1.372-18.339-3.322l2.041-9.551c4.286 1.86 10.243 3.315 14.631 3.315 6.436 0 8.67-2.627 8.67-8.493v-1.746c-16.962 0-27.98-5.359-27.98-16.872 0-7.899 5.08-13.833 13.856-13.833m14.124 22.515v-1.278c0-5.843-4.082-11.686-10.133-11.686-3.617 0-5.847 2.543-5.847 5.654 0 4.184 3.409 7.31 15.98 7.31" transform="matrix(.352778 0 0 -.352778 372.102 679.63)"/><path d="m385.067 654.178h4.404v25.112h-4.404z"/><path d="m0 0c0 7.317-4.777 13.561-11.796 15.035v.196c6.331 2.533 9.944 8.531 9.944 15.066 0 10.526-7.899 16.599-22.035 16.599-8.001 0-16.282-.204-21.842-.483v-68.274c8.289 0 14.816-.189 19.212-.189 19.291 0 26.517 11.902 26.517 22.05m-33.056 36.563c2.045.095 4.388.193 7.117.193 7.703 0 10.632-3.628 10.632-8.5 0-5.855-3.908-9.714-12.586-9.714-2.037 0-3.602 0-5.163.106zm0-27.572c1.368.095 4.676.095 5.56.095 8.682 0 13.946-3.235 13.946-9.479 0-5.753-4.199-11.426-12.487-11.426-2.343 0-5.458.201-7.019.299z" transform="matrix(.352778 0 0 -.352778 416.138 671.577)"/><path d="m0 0c0-7.899 5.072-13.833 13.86-13.833 6.867 0 12.559 3.458 15.103 8.519v-7.552h11.897c-.294 3.992-.385 8.588-.385 12.477v19.993c0 10.825-4.486 17.065-19.506 17.065-6.531 0-13.455-1.368-18.342-3.322l2.052-9.551c4.297 1.863 10.239 3.315 14.623 3.315 6.444 0 8.689-2.627 8.689-8.489v-1.75c-16.962 0-27.991-5.36-27.991-16.872m27.991 7.404c0-5.843-4.097-11.682-10.14-11.682-3.61 0-5.851 2.539-5.851 5.65 0 4.188 3.402 7.31 15.991 7.31z" transform="matrix(.352778 0 0 -.352778 418.706 674.751)"/><path d="m0 0c0 8.493 4.966 15.602 11.214 15.602 4.679 0 6.04-3.02 6.04-7.998v-31.003h12.381v34.035c0 8.485-3.503 15.397-14.434 15.397-7.419 0-12.827-3.552-15.889-8.681v7.706h-11.796v-48.457h12.484z" transform="matrix(.352778 0 0 -.352778 440.976 671.034)"/><path d="m459.261 671.389 5.297 7.9h5.502l-6.762-9.287 6.319-7.808h-5.369l-4.987 6.28v-14.297h-4.404v25.112h4.404z"/><path d="m0 0c-14.721 0-24.763-10.927-24.763-26.045 0-17.261 8.976-24.37 22.718-24.37 14.427 0 24.768 10.923 24.768 26.128 0 16.671-8.875 24.287-22.723 24.287m-1.066-39.795c-7.12 0-10.832 5.08-10.832 15.013 0 9.955 5.461 14.248 11.025 14.248 7.313 0 10.73-5.072 10.73-14.437 0-9.842-4.781-14.824-10.923-14.824" transform="matrix(.352778 0 0 -.352778 321.844 698.723)"/><path d="m0 0v-3.991h-8.493v-9.661h8.493v-38.808h12.378v38.808h11.32v9.661h-11.32v4.093c0 6.429 2.434 9.264 7.903 9.264 1.837 0 4.093-.197 6.043-.881l.877 10.239c-2.543.582-5.268.79-7.899.79-13.259 0-19.302-6.444-19.302-19.514" transform="matrix(.352778 0 0 -.352778 334.35 697.71)"/><path d="m0 0c0 4.671 3.409 7.892 10.817 7.892 3.9 0 7.706-.681 11.32-1.849l1.164 11.124c-3.7.774-8.292 1.251-11.891 1.251-15.9 0-24.873-8.089-24.873-19.786 0-21.653 27.689-17.741 27.689-30.316 0-6.153-5.064-8.591-11.017-8.591-5.261 0-10.137 1.085-14.332 2.839l-1.361-12.185c4.384-1.18 9.362-1.765 15.209-1.765 15.213 0 25.455 9.074 25.455 21.259 0 20.863-28.18 18.422-28.18 30.127" transform="matrix(.352778 0 0 -.352778 354.974 698.416)"/><path d="m0 0c-8.289 0-11.301 5.756-11.301 14.041 0 8.984 3.795 14.929 11.203 14.929 3.22 0 6.436-.775 9.071-1.848l1.946 10.719c-3.118 1.081-6.924 1.659-10.624 1.659-16.774 0-24.677-11.596-24.677-26.714 0-16.486 8.395-23.509 21.842-23.509 4.691 0 9.857.79 13.659 2.242l-1.663 10.446c-2.823-1.277-6.138-1.965-9.456-1.965" transform="matrix(.352778 0 0 -.352778 375.36 712.694)"/><path d="m0 0c-14.717 0-24.771-10.927-24.771-26.045 0-17.261 8.976-24.37 22.722-24.37 14.438 0 24.775 10.923 24.775 26.128 0 16.671-8.882 24.287-22.726 24.287m-1.07-39.795c-7.124 0-10.828 5.08-10.828 15.013 0 9.955 5.454 14.248 11.025 14.248 7.31 0 10.722-5.072 10.722-14.437 0-9.842-4.773-14.824-10.919-14.824" transform="matrix(.352778 0 0 -.352778 388.994 698.723)"/><path d="m0 0c-4.294 0-5.745 1.757-5.745 8.001v21.253h11.796v9.66h-11.796v20.3l-12.389-3.311v-16.989h-8.387v-9.66h8.387v-24.567c0-11.316 3.318-15.217 14.037-15.217 3.413 0 7.419.579 10.541 1.368l-.884 9.846c-1.656-.487-3.504-.684-5.56-.684" transform="matrix(.352778 0 0 -.352778 407.837 712.794)"/><path d="m412.907 691.102h4.401v25.115h-4.401z"/><path d="m0 0c0 10.817-4.479 17.057-19.502 17.057-6.524 0-13.452-1.364-18.324-3.318l2.041-9.548c4.302 1.845 10.239 3.308 14.627 3.308 6.444 0 8.678-2.623 8.678-8.482v-1.753c-16.966 0-27.98-5.371-27.98-16.868 0-7.907 5.072-13.849 13.841-13.849 6.89 0 12.589 3.485 15.118 8.542v-7.57h11.902c-.295 4.006-.401 8.579-.401 12.476zm-12.48-12.193c0-5.858-4.089-11.709-10.129-11.709-3.61 0-5.855 2.544-5.855 5.666 0 4.187 3.41 7.309 15.984 7.309z" transform="matrix(.352778 0 0 -.352778 434.13 704.751)"/><path d="m0 0c-7.427 0-12.843-3.568-15.897-8.693v7.718h-11.796v-48.469h12.484v23.399c0 8.489 4.97 15.61 11.206 15.61 4.683 0 6.052-3.02 6.052-7.99v-31.019h12.389v34.035c0 8.485-3.515 15.409-14.438 15.409" transform="matrix(.352778 0 0 -.352778 446.838 698.774)"/><path d="m0 0v-22.243c-2.143.299-4.089.386-6.142.386-16.097 0-25.651-11.301-25.651-27.693 0-13.844 5.858-22.715 17.654-22.715 7.071 0 12.253 3.474 14.914 8.459v-7.389h11.611v71.195zm0-46.042c0-8.281-3.908-15.893-10.439-15.893-5.654 0-8.281 4.69-8.281 13.754 0 12 5.065 16.478 12.185 16.478 2.139 0 4.298-.291 6.535-.782z" transform="matrix(.352778 0 0 -.352778 465.691 691.083)"/></g></svg>