<svg enable-background="new 0 0 58.089 70.375" viewBox="0 0 58.089 70.375" xmlns="http://www.w3.org/2000/svg"><path clip-rule="evenodd" d="m7.855 18.599c.823.221 1.712.191 2.572.191 9.882 0 19.779.096 29.722.096 2.615-.001 5.209.047 8.002.047.91 0 2.007-.133 2.62.096.685.256 1.359 1.492 1.715 2.334.4.948.983 1.772 1.381 2.619.894 1.909 1.59 3.873 2.191 5.859 1.25 4.126 2.221 8.728 2 13.86-.83.253-1.731.143-2.571.143-13.121-.001-26.215.053-39.392.286-.11 1.659.583 3.07 1.191 4.334.617 1.283 1.351 2.465 2.144 3.525 2.534 3.131 6.276 5.412 11.907 5.049 3.813-.247 6.576-2.059 8.431-4.334.656-.806 1.084-1.708 1.715-2.525 4.016.057 7.996.461 11.955.619 1.32.054 2.649-.008 3.906.286-.073 1.153-.537 2.218-.953 3.191-1.228 2.877-3.042 5.368-4.953 7.621-2.445 2.712-5.179 4.651-8.478 6.239-3.347 1.61-7.583 2.238-12.384 2.239-4.996.001-9.14-.678-12.575-2.144-3.351-1.43-6.262-3.575-8.621-6.097-4.935-5.275-8.293-11.561-9.192-20.243-.89-8.576 1.512-15.546 4.667-20.671.455-.74 1.052-1.425 1.477-2.192.364-.659.579-1.379.858-2.048 1.929-4.64 4.862-8.747 8.81-11.525 2.276-1.604 5.049-2.756 7.906-3.716 2.213-.743 4.441-1.395 7.098-1.619 2.353-.198 4.812-.167 7.049.237 3.162.572 5.711 1.707 8.288 3.145.388.216 1.297.674 1.286.952-.018.437-1.88.833-2.382 1.001-2.481.825-5.076 1.794-7.477 2.619-6.665 2.29-13.399 4.637-20.006 6.954-1.676.588-3.382 1.111-5.049 1.715-.827.299-1.637.631-2.477.905-.805.263-1.686.455-2.381.952zm32.103 9.574c-.481-1.076-1.105-2.108-1.81-2.953-.985-1.183-2.481-2.42-3.954-3.049-1.631-.697-3.691-1.293-5.858-1.144-3.306.229-5.879 1.621-7.858 3.478-1.923 1.803-3.558 4.147-3.858 7.192.428.256.96.13 1.429.142.511.015 1.023.048 1.524.048 6.279 0 12.154.056 18.528.048.978-.001 2.012.126 2.905-.19-.028-1.322-.571-2.51-1.048-3.572z" fill-rule="evenodd"/></svg>