<svg enable-background="new 0 0 89.395 37.218" viewBox="0 0 89.395 37.218" xmlns="http://www.w3.org/2000/svg"><g clip-rule="evenodd" fill-rule="evenodd"><path d="m36.246.391c.176 4.385.181 9.18 0 13.539-4.714.223-10.044.096-14.588-.053-.284-.471-.267-1.086-.473-1.523-.317-.674-.918-1.271-1.522-1.574-2.35-1.172-5.134.67-4.88 3.412.801.389 1.748.191 2.624.209 5.88.117 12.624-.113 18.838.211.171 4.738.053 9.529.053 14.797 0 1.84.148 3.801-.683 4.881-.902 1.307-2.133 2.445-4.04 2.623-2.534.238-5.25-.051-7.924-.051-2.622-.002-5.254-.053-7.871-.053-5.349-.002-10.729.02-15.69-.211-.147-4.229-.104-8.795.053-13.328 1.073-.26 2.255-.106 3.463-.106 3.678 0 7.414-.107 10.915.106.29.637.454 1.4.787 1.994 1.195 1.988 4.527 1.887 5.668-.105.361-.633.564-1.43.524-2.361-.831-.307-1.737-.133-2.624-.156-4.335-.119-8.909-.106-13.381-.106-1.807 0-3.637.127-5.352-.158-.189-4.254-.053-9.695-.053-14.43 0-1.73-.217-3.713.314-4.986.606-1.448 2.35-2.637 4.252-2.834 2.796-.287 6.149 0 9.183 0 4.918.002 9.908-.123 14.956.105 2.5.113 4.996-.207 7.451.158z"/><path d="m49.838 13.458c-.785.586-1.646 1.174-2.729 1.574-2.866 1.055-6.271-.055-7.818-1.732-.805-.938-1.346-1.584-1.731-2.676-1.822-5.154 1.847-9.856 6.139-10.232.57-.051 1.251-.051 1.837 0 4.761.416 7.976 5.688 6.035 10.547-.395.985-1.048 1.651-1.733 2.519z"/><path d="m89.193 17.708c-4.577.174-9.903.174-14.535 0-.425-.525-.47-1.262-.787-1.785-.414-.68-1.086-1.285-1.837-1.521-2.321-.727-4.55 1.057-4.25 3.779.764.27 1.622.174 2.466.209 2.73.115 5.498-.125 8.134 0 1.856.088 3.733 0 5.562 0 1.79 0 3.603-.144 5.247.211.216 5.965.096 12.516-.052 18.471-10.032.412-20.296-.195-30.173 0-1.486.029-2.779-.152-3.674-.682-.917-.543-2.133-2.002-2.414-3.359-.398-1.926-.104-4.955-.104-7.293 0-4.896.052-9.758.052-14.641 0-1.201-.045-2.508 0-3.727.058-1.531-.046-2.959.42-3.988.735-1.623 2.582-2.853 4.461-2.99 2.545-.188 5.292.068 7.976.053 6.785-.044 12.63.05 19.415.05 1.128 0 3.22-.189 3.778.211.729.524.472 2.74.473 3.988 0 4.602.018 8.668-.158 13.014z"/><path d="m51.831 11.831h.106c.085 5.783.265 12.521.053 18.209-.033.885.117 1.818-.053 2.57-.305 1.348-1.602 2.525-2.729 3.254-1.764 1.139-4.198 1.641-6.612 1.102-2.066-.461-4.22-2.059-5.037-3.725-.621-1.264-.473-3.135-.473-5.09-.001-5.291-.019-10.52.157-16.059.551.139.852.668 1.154 1.049 1.121 1.414 3.022 2.646 5.405 2.887 3.546.359 6.45-1.723 7.871-4.041.03-.074.083-.127.158-.156z"/></g></svg>