<svg enable-background="new 0 0 75.21 77.851" viewBox="0 0 75.21 77.851" xmlns="http://www.w3.org/2000/svg"><g clip-rule="evenodd" fill-rule="evenodd"><path d="m53.469 27.571c-2.526-2.721-5.502-4.881-9.625-5.985-4.158-1.114-9.63-.504-12.929 1.389-.399.229-.767.574-1.197.766-1.372.614-2.425 1.433-3.544 2.298-2.951 2.284-5.102 5.063-7.326 8.284-.712 1.031-1.5 2.342-2.25 3.591-.269.448-.621.945-.623 1.293-.003.609.563 1.234.91 1.724.396.559.714 1.131 1.006 1.58 2.087 3.21 4.333 5.988 7.087 8.523 2.543 2.098 5.221 4.38 9.05 5.268.938.217 1.925.564 2.921.67 3.396.363 6.803-.025 9.338-1.149 3.322-1.473 5.699-3.74 8.093-6.225 2.359-2.45 4.478-5.163 6.561-7.709.312-.536.715-.906 1.148-1.437.229-.28.726-1.314 1.245-1.341.45-.023 1.175.912 1.485 1.197 1.406 1.291 2.659 2.799 3.926 4.118 1.864 1.94 3.676 3.683 5.22 5.507.361.645 1.043.968 1.245 1.771-2.164 6.839-6.053 11.952-10.727 16.281-4.292 3.723-8.985 6.829-15.228 8.428-3.128.801-6.668 1.437-10.391 1.437-7.541 0-13.788-2.016-18.819-4.789-1.223-.674-2.393-1.527-3.544-2.346-8.038-5.719-13.866-13.815-15.945-25.378-.593-3.3-.772-7.479-.239-11.109 1.995-13.592 8.889-22.722 18.579-28.636 1.277-.78 2.489-1.482 3.831-2.107 2.659-1.239 5.666-2.168 9.002-2.777 1.696-.309 3.511-.58 5.411-.67 5.196-.246 9.804.743 13.791 2.011 3.952 1.256 7.293 3.201 10.296 5.458 5.197 3.907 9.51 8.749 12.498 15.084.185.392.372.866.574 1.389.2.518.53 1.129.526 1.437-.008.829-.967 1.071-1.292 1.772-1.578 1.967-3.27 3.721-4.98 5.698-1.237 1.431-2.492 2.77-3.783 4.262-.312.359-.949 1.28-1.341 1.292-.391.013-1.125-.944-1.388-1.245-.907-1.036-1.509-1.809-2.395-2.825-.418-.478-.722-1.02-1.102-1.484-1.611-1.97-3.323-3.622-5.075-5.316z"/><path d="m24.355 35.904c1.755-.218 3.356 1.002 3.688 2.585.359 1.719-.655 3.484-2.107 3.975-2.264.766-4.305-.872-4.549-2.729-.26-1.983 1.109-3.601 2.968-3.831z"/></g></svg>