<svg enable-background="new 0 0 150.443 156.938" viewBox="0 0 150.443 156.938" xmlns="http://www.w3.org/2000/svg"><g clip-rule="evenodd" fill-rule="evenodd"><path d="m126.465 79.797c4.323 4.188 8.175 8.102 12.347 12.586 2.851 3.064 5.809 6.408 8.87 9.829.831.928 2.673 2.485 2.757 3.477.111 1.301-1.809 4.774-2.396 5.993-4.67 9.676-10.579 17.306-17.741 24.214-5.709 5.507-12.362 9.802-19.898 13.545-3.818 1.897-7.947 3.105-12.227 4.555-8.483 2.874-18.612 3.256-29.008 2.758-5.431-.261-10.575-1.931-15.343-3.356-9.544-2.855-17.832-7.636-24.693-13.186-6.73-5.444-13.397-12.067-17.74-20.019-6.733-12.321-11.54-26.21-11.39-44.591.095-11.612 3.18-21.823 7.192-30.447 3.961-8.513 9.211-16.325 15.343-22.416 6.5-6.456 13.882-11.407 22.176-15.703 6.154-3.188 13.724-5.466 21.936-6.473 22.446-2.753 43.046 4.952 55.979 14.984 10.442 8.1 18.771 17.335 24.813 30.447.72 1.562 2.262 4.356 2.157 5.634-.097 1.18-1.801 2.528-2.637 3.596-5.407 6.904-11.193 12.99-17.381 19.658-.63.678-2.238 2.982-3.117 2.997-.645.011-1.97-1.83-2.517-2.517-5.061-6.367-10.9-12.744-16.662-18.22-6.375-6.06-14.141-13.271-25.532-14.265-14.897-1.3-24.909 5.007-32.484 12.227-2.809 2.677-5.097 4.863-7.672 8.151-3.416 4.362-6.461 8.619-9.35 14.024-.557 1.043-1.437 2.286-1.438 3.236-.003 1.646 2.503 4.373 3.476 5.874 6.121 9.439 13.831 17.611 23.015 23.734 3.884 2.59 8.244 3.994 13.425 5.035 4.256.854 10.098 1.08 14.864.119 10.013-2.019 17.58-8.249 23.494-14.743 6.313-6.93 11.666-13.576 17.382-20.737zm-75.877-73.719c.006-.206-.092-.308-.24-.359-.171.174-.176.464.24.359z"/><path d="m50.348 5.719c.147.052.246.153.24.359-.416.105-.411-.185-.24-.359z" fill="#fff"/><path d="m47.711 73.444c7.076-1.02 9.958 9.05 4.436 12.107-5.413 2.997-10.833-1.948-9.59-7.432.445-1.964 2.159-4.243 5.154-4.675z"/></g></svg>