<svg enable-background="new 0 0 74.418 76.628" viewBox="0 0 74.418 76.628" xmlns="http://www.w3.org/2000/svg"><path clip-rule="evenodd" d="m37.46 0h.1c1.065 1.444 1.579 3.181 2.36 4.771.775 1.577 1.579 3.14 2.36 4.72 1.571 3.177 3.026 6.422 4.62 9.592.209.417.329.862.502 1.306.466 1.19 1.114 2.445 1.708 3.615 2.38 4.691 4.544 9.566 6.929 14.311 3.188 6.341 6.226 12.763 9.24 19.182 1.51 3.216 3.127 6.362 4.62 9.591 1.109 2.399 2.22 4.808 3.465 7.182.4.763.913 1.492 1.054 2.359-.768-.037-1.251-.789-1.858-1.154-9.34-6.306-21.051-11.396-36.356-11.399-7.76-.001-14.514 1.448-20.437 3.565-5.596 2-10.284 4.648-14.813 7.683-.255.17-.601.464-.954.401.327-1.105.988-2.083 1.506-3.114 1.032-2.051 1.97-4.126 3.063-6.176.536-1.004 1.132-2.033 1.557-3.063.294-.713.527-1.406.854-2.108 2.14-4.602 4.526-9.229 6.829-13.81 2.641-5.254 5.082-10.641 7.783-15.817 1.335-2.558 2.632-5.203 3.967-7.834 2.664-5.25 5.243-10.3 7.834-15.768.891-1.88 1.941-3.954 2.912-5.975.376-.783.698-1.565 1.155-2.06zm-6.628 31.184c-1.5.727-2.781 1.597-3.766 2.56-2.098 2.055-3.83 4.502-4.369 8.286-.584 4.104.625 7.776 2.209 10.144 1.718 2.564 3.86 4.558 6.93 5.725 3.503 1.331 7.647 1.146 10.696-.051 2.991-1.175 5.369-3.351 6.879-5.774 1.586-2.545 2.705-6.24 1.958-10.194-.49-2.593-1.586-4.793-2.963-6.527-.464-.585-.9-1.264-1.406-1.758-2.399-2.343-6.237-4.149-11.147-3.766-1.952.15-3.544.64-5.021 1.355z" fill-rule="evenodd"/></svg>