<svg enable-background="new 0 0 31.833 31.695" viewBox="0 0 31.833 31.695" xmlns="http://www.w3.org/2000/svg"><path d="m.016 24.808c-.003-8.271.058-16.537.066-24.808 10.584.038 21.167.103 31.75.136.013 10.505-.07 21.008-.067 31.514-2.32.081-4.65.032-6.972.001-8.265.004-16.528-.085-24.793-.09.006-1.519-.009-3.038.015-4.556 9.054.073 18.112.054 27.165.13.062-7.476-.003-14.957.076-22.432-5.594-.127-11.218-.036-16.826-.081-1.925-.067-3.857-.025-5.787-.057.018 5.218-.021 10.457-.003 15.683 5.25.009 10.499.083 15.749.068.101-.724.028-1.458.069-2.185-2.48-.013-4.967.032-7.444-.04-.375.055-.754.019-1.13.019-1.66-.041-3.325-.037-4.986-.042-.123-.868.023-1.742-.058-2.613.077-2.895.025-5.794.045-8.691 6.055.114 12.129-.001 18.185.117.007 1.518.047 3.043-.028 4.558-4.524-.04-9.051-.064-13.577-.054-.105.4-.072.818-.044 1.226-.023.178-.031.361.019.537-.024.131-.046.264-.065.398 4.517.03 9.036.016 13.553.041.112-.009.118.134.146.212-.018 3.697-.054 7.391-.049 11.093-1.065.064-2.135.044-3.201.005-7.274.002-14.539-.037-21.808-.089z"/></svg>