<svg enable-background="new 0 0 68.865 67.255" viewBox="0 0 68.865 67.255" xmlns="http://www.w3.org/2000/svg"><g clip-rule="evenodd" fill-rule="evenodd"><path d="m21.554 14.251c.305 1.716.139 3.311-.434 4.44-.834 1.642-2.927 3.291-5.646 2.509-1.161-.334-2.29-1.359-2.847-2.267-.646-1.055-.724-2.442-.724-4.295 0-1.502.187-4.024-1.014-4.055-1.514-.036-.89 3.673-.869 5.02.016 1.027-.036 2.076 0 3.04.033.886-.015 2.063.241 2.751.28.753.88 1.213 1.545 1.448 1.019.36 1.996.319 2.799.53.878.231 1.594.542 2.316.966 2.627 1.541 4.612 4.187 4.826 8.349.104 2.041.121 4.213.144 6.418.043 4.132 0 8.956 0 13.175 0 3.705.178 6.269-1.014 8.688-.35.712-.693 1.494-1.158 2.123-1.007 1.363-2.163 2.206-3.668 2.943-1.491.731-3.399 1.322-5.356 1.207-4.049-.239-6.661-2.048-8.542-4.633-.915-1.259-1.635-2.797-1.882-4.729-.248-1.932-.097-4.25-.097-6.467 0-3.241.048-6.575.048-9.797 0-1.156-.075-2.185.146-3.137.371-1.606 1.527-2.789 2.702-3.378 2.962-1.485 6.096.654 6.853 2.991.383 1.182.29 3.017.29 4.729 0 3.469-.06 6.285.097 9.652.059 1.275-.597 4.355 1.013 4.15.747-.095.676-1.105.676-2.22 0-5.128-.096-9.379-.096-14.382 0-1.855.197-4.272-.242-5.501-.198-.557-.765-1.189-1.399-1.448-.927-.378-1.874-.27-2.799-.53-2.526-.713-4.439-2.292-5.743-4.15-.811-1.157-1.53-2.776-1.593-5.019-.11-3.997-.219-9.238 0-13.127.109-1.933.627-3.594 1.545-5.067 1.637-2.627 3.954-4.618 8.107-5.115 2.235-.267 4.646.35 6.226 1.207 1.566.85 2.977 1.96 3.909 3.426 1.44 2.266 2.219 5.865 1.64 9.555z"/><path d="m64.843 2.814c1.859 1.565 3.392 3.832 3.667 7.143.266 3.18.652 7.46-.965 9.411-.759.888-1.897 1.838-3.475 1.93-1.655.097-2.966-.623-3.909-1.447-.448-.808-1.011-1.41-1.255-2.606-.214-1.048-.109-2.542-.096-3.764.012-1.22.261-2.763-.966-2.992-1.006.031-.951 1.091-.917 2.075.069 2.006.008 4.005.049 6.032.019 1.012-.156 2.264.048 2.992.176.628.77.898 1.11 1.206 3.139.214 5.332 1.05 7.142 2.558 1.678 1.399 3.123 3.584 3.475 6.226.19 1.424.078 2.981.097 4.585.055 4.569-.048 9.504-.048 14.187 0 3.163.312 6.85-.482 9.218-.888 2.644-2.153 4.227-4.103 5.599-1.962 1.381-4.75 2.224-7.625 1.882-2.76-.328-4.862-1.476-6.515-3.137-1.554-1.562-2.841-3.664-3.089-6.611-.13-1.549-.089-3.179-.097-4.778-.032-7.484.079-16.456 0-23.599-.036-3.259-.048-6.37-.048-9.555 0-3.245-.233-6.533.048-9.652.256-2.838 1.537-4.997 3.137-6.563 1.594-1.559 3.86-2.888 6.757-3.089 3.795-.264 6.04 1.135 8.06 2.749zm-6.322 53.424c.417-.725.207-1.748.241-2.654.103-2.718 0-5.21 0-8.301 0-2.712 0-5.722 0-8.591 0-1.347.229-2.919-1.062-2.702-.906.151-.639 2.374-.676 3.571-.04 1.294.008 2.697 0 3.812-.027 3.69.145 8.062.145 12.017 0 1.058-.187 2.123.241 2.896.278.122.903.169 1.111-.048z"/><path d="m34.488 56.382h.145c.87-.155.627-1.201.627-1.786.001-3.894-.096-7.611-.096-11.775-.001-2.568-.104-4.769.965-6.225 1.288-1.757 4.039-2.923 6.419-1.496 1.127.676 2.242 1.944 2.558 3.619.218 1.156.192 2.545.192 3.86.001 4.001.155 8.034.049 11.872-.04 1.438-.004 2.617-.193 3.812-.517 3.263-2.45 5.715-4.777 7.239-1.66 1.087-4.014 1.712-6.322 1.593-4.673-.242-8.033-2.926-9.555-6.467-.429-.997-.723-1.928-.82-3.186-.09-1.141-.049-2.472-.049-3.957 0-2.569-.176-5.104-.144-7.674.124-10.38-.098-21.252-.097-31.85 0-2.711-.029-5.171.772-7.143 1.415-3.484 4.922-6.414 9.507-6.708 3.276-.21 5.856 1.036 7.722 2.654 1.816 1.576 3.3 3.864 3.667 6.659.196 1.493.097 3.304.097 5.116 0 3.699.049 6.383.049 10.183-.001 1.84.071 3.633-.338 4.826-.443 1.291-1.44 2.273-2.365 2.799-1.52.863-3.585.586-4.874-.241-1.181-.758-2.239-2.049-2.413-3.765-.157-1.55 0-3.128 0-4.681 0-2.956-.048-6.03-.048-9.218-.001-1.316.34-3.765-.869-3.765-.904 0-.862 1.083-.868 2.075-.071 11.028.145 21.89.145 32.72 0 2.812.017 5.761.048 8.783.006.801-.205 2.054.866 2.127z"/></g></svg>