<svg enable-background="new 0 0 79.314 45.63" viewBox="0 0 79.314 45.63" xmlns="http://www.w3.org/2000/svg"><path clip-rule="evenodd" d="m52.981 11.028c.355-.28.32-.779.412-1.145.68-2.697 2.178-4.925 4.121-6.457 2.342-2.076 5.839-3.51 10.487-2.977 4.045.464 6.593 2.308 8.655 4.991 1.368 1.78 2.423 3.845 2.61 6.457.105 1.467 0 3.007 0 4.488 0 4.143-.046 8.58-.046 13.051 0 1.617.111 3.118-.046 4.442-.464 3.915-2.396 6.502-4.717 8.655-2.17 1.906-5.163 2.918-8.976 2.839-1.691-.035-3.369-.542-4.717-1.145-3.34-1.495-5.618-4.114-7.006-7.556-.274-.679-.356-1.444-.779-2.107-.461.459-.463 1.159-.641 1.74-.729 2.377-1.898 4.037-3.526 5.633-2.417 2.37-6.935 4.562-11.815 3.343-4.148-1.036-7.126-3.491-8.884-6.915-.304-.593-.606-1.181-.824-1.832-.208-.623-.246-1.33-.687-1.924-.481.709-.551 1.58-.824 2.335-.814 2.248-2.189 4.083-3.893 5.496-1.637 1.43-3.785 2.593-6.457 2.977-6.012.864-10.531-2.058-12.914-5.587-1.272-1.884-2.349-4.201-2.289-7.006 2.216-.182 4.943-.093 7.235-.046.31.64.361 1.246.55 1.74.426 1.12 1.164 2.057 2.106 2.656.264.167.652.279.778.504.194.344-.003.88.275 1.144.718-.028 1.454-.216 2.106-.412 2.083-.625 3.827-1.243 4.9-2.931.26-.408.575-.95.733-1.465.924-3.01-1.037-5.826-3.068-6.869-1.567-.805-3.92-.593-5.77-1.053-1.913-.476-3.339-1.174-4.671-2.152-2.475-1.885-4.585-4.587-5.221-8.426-.712-4.304.783-8.092 2.793-10.487 1.971-2.263 4.958-4.395 8.838-4.808.76-.081 1.536-.058 2.244 0 3.406.281 6.367 1.513 8.155 3.481 1.478 1.4 2.729 3.024 3.48 5.221.24.701.332 1.487.733 2.152.355-.378.427-.921.55-1.374.401-1.48.933-2.75 1.74-3.938.993-1.462 2.396-2.797 3.893-3.709 1.653-1.007 3.823-1.841 6.183-2.015 4.119-.303 7.216 1.31 9.434 3.16 2.017 1.684 3.544 3.801 4.305 6.732.089.354.137.816.455 1.099zm15.066-4.305c-1.836.523-3.724.877-5.037 1.786-1.102.763-1.975 1.88-2.381 3.343-.113.404-.077.769-.367 1.191-3.768.075-7.593.046-11.173.046-1.26 0-2.527.106-3.709-.138-.362-1.524-.768-2.665-1.694-3.618-.323-.332-1.408-.924-1.557-1.328-.155-.419.074-.868-.229-1.19-.858-.008-1.634.357-2.427.595-.809.243-1.672.398-2.381.779-1.339.719-2.491 2.207-2.885 3.572-.88 3.05 1.003 5.789 3.068 6.823.819.411 1.804.538 2.748.641.999.109 1.996.274 2.931.504 2.042.502 3.254 1.086 4.625 2.198 2.207 1.79 4.009 3.976 4.854 7.053.113.411.12.934.458 1.282.357-.267.317-.735.412-1.099 1.142-4.368 3.795-7.329 7.647-8.976 1.414-.604 3.064-1.223 4.946-.962.114 2.187.173 4.998 0 7.281-1.468.341-2.732.763-3.709 1.74-1.207 1.208-2.088 3.567-1.466 5.725.216.749.682 1.291 1.099 1.969.758.87 1.767 1.507 2.977 1.923 1.186.408 2.451 1.004 3.801 1.053.278-.21.146-.831.229-1.236.572-.537 1.254-.932 1.786-1.603.488-.615.923-1.401 1.145-2.29.364-1.457.229-3.577.229-5.495 0-3.803 0-7.485 0-11.357 0-1.991.154-4.085-.275-5.45-.177-.562-.512-1.064-.687-1.557-.558-.801-1.429-1.288-2.106-1.969-.095-.409-.002-1.006-.275-1.237-.232-.088-.464-.037-.597.001zm-50.007 3.572c-.261-.445-.704-.946-1.053-1.282-.404-.39-1.042-.563-1.236-1.008-.305-.695.04-1.393-.825-1.19-.739.173-1.589.479-2.427.732-.82.248-1.698.503-2.29.87-2.389 1.482-3.782 5.452-1.603 8.335.594.704 1.338 1.257 2.152 1.74 2.017.728 4.457.571 6.32 1.145 2.784.858 5.131 2.468 6.686 4.488 1.038 1.349 2.039 3.12 2.473 4.992.234 1.012.256 2.08.504 3.252 2.278.289 5.127-.031 7.327.275.294 1.481.744 2.727 1.557 3.618.482.528 1.181.828 1.603 1.419.029.428-.024.94.183 1.19.972-.03 1.917-.428 2.839-.687.982-.275 1.831-.474 2.61-1.008 1.4-.96 2.535-2.511 2.565-4.717.029-2.131-1.187-3.838-2.565-4.808-1.706-1.201-4.058-.875-6.274-1.511-2.104-.604-3.637-1.325-5.221-2.61-2.24-1.817-3.758-4.076-4.534-7.144-.26-1.028-.265-2.146-.595-3.343-2.216-.242-4.943.028-7.235-.137-.427-.844-.44-1.726-.961-2.611z" fill-rule="evenodd"/></svg>