<svg enable-background="new 0 0 83.012 75.973" viewBox="0 0 83.012 75.973" xmlns="http://www.w3.org/2000/svg"><path clip-rule="evenodd" d="m54.547 2.553c-.195.974-1.316 1.164-1.346 2.072-.029.912 1.309 1.343 1.346 2.123.039.797-1.297 1.352-1.399 2.123-.006.723 1.379 1.379 1.399 2.123.018.608-1.385 1.454-1.399 2.123-.014.746 1.371 1.399 1.399 2.123.029.747-1.379 1.496-1.399 2.123-.023.847 1.389 1.363 1.399 2.123.012.781-1.361 1.254-1.399 2.072-.029.701 1.383 1.454 1.399 2.175.016.701-1.393 1.315-1.399 2.123-.002.431.574.885.777 1.139.316.392.496.772.881.984 9.408.065 18.881-.128 28.068.104.217 15.669.143 31.644 0 47.644-1.918.28-4.131.155-6.318.155-2.17 0-4.396.084-6.369-.104-.275-11.865.033-24.329-.156-36.303-1.086-.37-2.414-.207-3.676-.207-3.744 0-7.9-.085-11.498.103-.268.607-.154 1.365-.154 2.072 0 2.022-.105 4.323-.053 6.473-.135.393-.459.688-.775 1.087-.217.274-.709.74-.727 1.088-.037.812 1.399 1.487 1.399 2.123.004.758-1.373 1.348-1.399 2.123-.029.991 1.35 1.295 1.399 2.175-.1.698-1.375 1.305-1.399 2.071-.023.838 1.211 1.196 1.399 2.072-.031.8-1.393 1.377-1.399 2.175-.004.833 1.213 1.198 1.399 2.071-.281.892-1.068 1.278-1.399 2.124.285.889 1.068 1.28 1.399 2.123-.047.75-1.375 1.35-1.399 2.123-.021.827 1.305 1.268 1.348 2.071.029.556-.543.914-.881 1.347-.334.427-.566.99-1.035 1.139-.574.183-1.602.052-2.33.052-2.137 0-5.236.041-7.096-.052-.486-.199-.647-.65-1.035-1.139-.211-.265-.865-.822-.881-1.243-.025-.753 1.33-1.541 1.348-2.123.021-.74-1.334-1.355-1.348-2.123-.012-.666 1.342-1.347 1.348-2.123.004-.702-1.344-1.398-1.348-2.124-.004-.655 1.32-1.44 1.348-2.071.035-.834-1.316-1.329-1.348-2.123-.031-.79 1.268-1.426 1.398-2.123-.035-.779-1.371-1.352-1.398-2.123-.025-.741 1.279-1.387 1.398-2.124-.035-.776-1.369-1.354-1.398-2.123-.027-.741 1.285-1.384 1.398-2.123-.338-.886-1.096-1.355-1.502-2.175-.135-2.689.102-5.778-.103-8.545-1.127-.281-2.342-.155-3.522-.155-8.492 0-16.728-.027-25.117.103-.363 1.023-.207 2.48-.207 3.781 0 1.321-.143 2.647.104 3.677 6.711.301 13.998-.099 20.872.209.279 1.136.154 2.333.154 3.521v3.625c.002 7.123.074 14.519-.104 21.595-2.652.339-5.373.069-8.131.155-2.723.085-5.527-.001-8.285 0-5.564 0-11.172.086-16.623-.104-.246-1.743-.156-3.729-.156-5.645 0-1.906-.027-3.83.156-5.541 6.637-.366 14.219.155 20.973-.259.279-.927.156-2.151.156-3.314 0-1.16.041-2.338-.053-3.366-1.531-.4-3.342-.155-5.127-.155-5.228 0-10.865.085-15.949-.104-.264-4.661-.105-9.494-.104-14.397 0-4.966-.088-9.999.104-14.915 13.338-.149 27.387-.094 40.652-.104.475-.213.682-.485 1.035-.932.195-.247.766-.81.777-1.191.024-.78-1.389-1.438-1.398-2.124-.008-.593 1.381-1.496 1.398-2.123.02-.693-1.387-1.417-1.398-2.124-.01-.634 1.383-1.474 1.398-2.123.016-.626-1.361-1.435-1.398-2.071-.043-.773 1.34-1.425 1.398-2.175-.031-.789-1.355-1.325-1.398-2.071-.043-.74 1.266-1.413 1.398-2.123-.275-.898-1.033-1.314-1.398-2.123.047-.786 1.393-1.379 1.398-2.175.006-.831-1.209-1.204-1.398-2.072.137-.476.539-.852.932-1.346.445-.559.648-1.088 1.502-1.191 1.262-.152 2.873 0 4.402 0 1.549 0 3.082-.042 4.453.052.88.607 1.438 1.533 2.02 2.435z" fill-rule="evenodd"/></svg>