<svg enable-background="new 0 0 172.713 173.379" viewBox="0 0 172.713 173.379" xmlns="http://www.w3.org/2000/svg"><g clip-rule="evenodd" fill-rule="evenodd"><path d="m118.524 6.478c.047 12.905.141 26.307-.048 39.211-1.316.232-2.688.086-4.048.094-20.655.112-42.869-.326-63.499-.142-.254.835-.141 1.724-.141 2.589-.002 13.443-.155 26.877.047 40.292.607.325 1.32.188 1.977.188 21.839.001 43.445.193 65.57.33.251.686.142 1.44.142 2.165-.001 11.379.019 23.01-.048 34.032-.042.021-.084.042-.094.094-22.226.234-45.64-.188-67.406-.094-.038.025-.076.049-.141.047-.173 11.491-.094 23.457-.095 35.162 0 1.649.113 3.295-.141 4.895-.816-.111-1.505-.586-2.213-.941-3.54-1.78-6.955-3.765-10.214-5.884-3.871-2.518-7.41-5.515-10.732-8.614-2.221-2.072-4.318-4.207-6.308-6.543-1.967-2.31-3.8-4.795-5.555-7.343-3.492-5.072-6.679-10.515-9.131-16.616-1.834-4.56-3.494-9.375-4.566-14.733-.709-3.542-1.265-7.27-1.601-11.297-.85-10.2.287-21.035 2.589-29.043.985-3.426 1.903-6.673 3.153-9.744 3.711-9.108 8.685-17.04 14.451-24.147 2.932-3.314 6.01-6.48 9.367-9.367 1.667-1.494 3.425-2.858 5.272-4.095.929-.623 1.754-1.385 2.683-2.024.919-.631 1.835-1.268 2.777-1.883 3.8-2.478 8.003-4.434 12.333-6.401 2.178-.99 4.503-1.768 6.825-2.542 5.912-1.971 12.234-3.143 19.581-3.813 13.257-1.209 25.945 1.249 35.586 4.66 1.251.443 2.524.84 3.628 1.507z"/><path d="m54.272 128.675c16.305-.145 33.849.14 50.365.141 4.815 0 9.986-.186 14.969 0 .815.031 1.613.14 2.166-.047.256-.832.141-1.719.141-2.589-.001-13.465.053-27.625-.047-40.434-.042-.021-.084-.041-.094-.094-9.599-.112-19.309-.188-28.996-.188-6.92 0-14.007-.094-21.041-.094-5.809 0-11.674-.032-17.369-.094-.047-.064-.126-.094-.188-.142-.076-12.173-.072-24.006.047-35.915-.013-.076.045-.081.048-.141 22.459-.187 45.078.195 67.5.094.001-.046.057-.037.094-.047.258-13.675-.05-27.611.188-40.858.007-.087.031-.157.095-.188.08.01.122-.081.142 0 4.913 2.194 9.454 4.761 13.462 7.861 3.804 2.823 7.529 5.741 10.873 9.084 3.334 3.333 6.479 6.808 9.273 10.686 8.411 11.672 14.603 25.197 16.428 43.446.619 6.191.483 12.895-.329 18.97-1.566 11.694-5.046 21.522-9.697 30.173-2.286 4.253-5.119 8.152-7.955 12.003-1.381 1.875-3.014 3.638-4.612 5.366-7.994 8.639-17.61 15.8-29.138 20.711-7.02 2.991-14.656 5.157-23.535 6.402-2.957.415-6.081.46-9.414.565-6.502.204-12.629-.54-18.17-1.694-5.489-1.144-10.629-2.612-15.251-4.66.008-.055-.01-.084-.047-.094-.15-11.825-.046-23.454-.047-35.916-.002-.759-.116-1.575.139-2.307z"/></g></svg>