<svg enable-background="new 0 0 162.868 122.809" viewBox="0 0 162.868 122.809" xmlns="http://www.w3.org/2000/svg"><path clip-rule="evenodd" d="m123.316.182c.009.037.045.045.045.09.282 12.211-.135 25.316.136 37.351.044 0 .035.055.045.09 12.896.213 26.083.031 39.118.182.26.646.181 2.238.181 3.264.001 3.031 0 6.104 0 9.019.001 2.002-.117 3.996-.045 5.938.074 2.002.114 4.061 0 6.029-.114 1.971 0 3.978 0 5.982 0 6.096.075 12.26-.091 18.312-1.541.266-3.115.098-4.714.137-11.317.273-23.257-.246-34.403.045-.037.008-.045.045-.091.045-.245 2.145-.136 4.543-.136 6.799 0 1.154-.093 2.24-.091 3.309.003 1.1.173 2.195.091 3.355-.196.361 0 .781 0 1.178.009 6.779.067 14.562-.091 21.35-.037.008-.045.045-.091.045-2.832.189-6.242.078-9.02.045-.333-.846-.176-1.777-.136-2.674.042-.922-.062-1.871-.046-2.81.192-10.816-.115-22.887.091-33.904.04-2.143-.19-4.268.045-6.301.037-.008.045-.045.091-.045 9.246-.141 18.824-.092 28.239-.092 3.193.002 6.383.152 9.519.047.297-.012.514.031.726-.137.24-1.148.136-2.355.136-3.535 0-3.482-.001-7.184 0-10.879 0-5.053.036-10.152-.046-15.094-.053-.068-.113-.129-.181-.182-9.379-.082-19.381-.045-29.055-.045-2.433 0-4.91.059-7.162-.045-.749-.035-1.503.121-2.221-.092-.257-12.406.071-25.164-.136-37.576-.041-.02-.081-.039-.091-.09-9.488-.166-19.318-.125-29.009-.045-.258.736-.114 1.535-.136 2.311-.144 5.15-.045 10.838-.045 16.408 0 6.363.16 12.496-.091 18.676-7.495.166-15.196.092-22.845.09-6.692 0-13.282.002-19.989 0-.909 0-1.837.107-2.72-.135-.173-3.156-.099-6.555 0-9.609 8.593-.201 17.99-.092 26.698-.092 2.876 0 5.733.105 8.567-.135.244-1.082.136-2.221.136-3.356 0-7.912.075-16.291-.09-24.113-.037-.01-.045-.045-.091-.045-2.601-.107-5.244-.045-7.887-.045-5.327 0-10.693.061-16.136-.047-2.658-.051-5.318.154-7.933.047-5.374-.223-10.81-.047-16.227-.047-5.423 0-10.844-.131-16.272 0-.092.014-.089.123-.181.137-.079 20.992-.091 42.498-.091 64.41 0 4.346.194 8.744 0 13.145-.091 2.074-.084 4.229 0 6.346.042 1.035-.155 2.08-.09 3.127.329 5.301-.19 10.92.09 16.318.009.037.046.045.045.09.601.215 1.269.176 1.904.182 7.458.078 15.179.047 22.301.045 12.094-.002 24.322.047 36.534.047 1.303 0 2.649.105 3.943-.137.164-8.625.162-17.609.045-26.199-.009-.037-.046-.045-.045-.09-10.955-.127-22.249-.139-33.18-.137-.688 0-1.422.109-2.085-.137-.095-2.832-.175-6.312 0-9.336.037-.01.045-.047.091-.047 13.695-.115 28.337-.043 42.834-.045.897 0 1.866-.139 2.72.182 0 15.09.079 30.32-.091 45.555-10.454.18-21.198.088-31.91.09-1.719 0-3.457-.08-5.167 0-1.76.084-3.564.064-5.303 0-3.318-.123-6.821-.09-10.334-.09-7.256 0-13.985-.045-21.258-.047-2.682 0-5.248-.045-7.887-.045-1.001 0-2.042.141-2.674-.09-.23-30.729.178-61.611.045-91.924-.034-7.648 0-15.406 0-22.98 0-2.494-.096-5.006.09-7.48.073.013.078-.044.136-.046 40.836.088 82.346-.084 122.972.182z" fill-rule="evenodd"/></svg>