<svg enable-background="new 0 0 75.886 77.269" viewBox="0 0 75.886 77.269" xmlns="http://www.w3.org/2000/svg"><path clip-rule="evenodd" d="m37.784 77.049c-.331-3.877.002-8.482-.248-12.059-.396.07-.509.564-.642.84-2.508 5.211-6.395 8.982-12.503 10.725-3.309.943-7.599.643-11.762.643-2.095 0-4.178 0-6.227 0-2.033 0-4.047.158-5.881-.1-.152-5.258-.198-11.023 0-16.209 5.4-.244 11.543-.168 17.247-.197.852-.006 1.768.109 2.471-.051 1.162-.262 2.152-1.695 2.026-3.162-.09-1.047-1.163-2.207-1.73-3.016-1.927-2.744-4.024-5.519-5.93-8.152-2.664-3.682-5.198-7.334-7.907-10.922-.684-.906-1.397-1.809-2.026-2.719-1.278-1.846-2.605-3.594-3.46-5.93-.21-.574-.311-1.223-.494-1.879-1.603-5.748-.449-12.887 2.72-16.851 2.845-3.478 6.237-6.307 11.366-7.463 1.744-.391 3.619-.342 5.832-.443 4.271-.199 9.163-.049 13.59-.051 2.133 0 4.37-.002 6.573.051 6.356.152 13.072 0 19.767 0 2.25 0 4.511-.119 6.474.246 1.805.336 3.228 1.205 4.448 2.225 2.867 2.098 4.349 5.392 4.349 10.428 0 17.307.049 34.143.049 50.949 0 2.566-.104 4.691-.84 6.525-.693 1.727-1.752 3.043-3.113 4.248-1.3 1.154-2.963 2.096-4.991 2.373-2.308.314-4.848.1-7.314.1-7.308-.001-14.772.118-21.844-.149zm21.497-17.94c.186-.588.124-1.434.148-2.322.023-.84 0-1.738 0-2.57 0-9.938-.049-20.34-.049-30.59 0-1.666.183-3.797-.247-4.893-.802-2.049-2.966-1.83-5.881-1.828-9.7 0-18.578-.051-28.218-.051-1.604 0-3.292-.18-4.794 0-.716.088-1.798-.018-2.421.248-.886.375-1.845 1.582-1.532 3.064.141.666.729 1.359 1.186 2.025 1.354 1.971 2.709 3.949 4.052 5.732 1.428 1.897 2.638 3.908 4.053 5.684.493.617.888 1.301 1.334 1.928 1.863 2.617 3.68 5.086 5.436 7.561.905 1.275 1.924 2.465 2.718 3.805.623 1.051 1.189 2.133 1.729 3.164.167.318.285.801.692.937.243-4.951.148-10.217.148-15.467 0-5.303-.102-10.623.049-15.717 3.78-.131 8.091-.049 12.058-.049 1.359 0 2.717-.121 3.954.149.289 13.486-.094 27.539.247 40.623 2.379.27 4.788.306 5.338-1.433z" fill-rule="evenodd"/></svg>