<svg enable-background="new 0 0 76.735 74.486" viewBox="0 0 76.735 74.486" xmlns="http://www.w3.org/2000/svg"><path clip-rule="evenodd" d="m76.711.413c.052 24.669.033 49.886-.194 74.048-25.614.086-51.309-.069-76.424-.243-.208-18.569-.001-37.24 0-55.815 0-5.591.048-10.745.048-16.1 0-.719-.117-1.489.145-2.182 12.634-.274 25.957-.001 38.455 0 12.034 0 23.912.145 35.739.145.727.001 1.52-.116 2.231.147zm-30.938 15.857c-.907-1.612-1.802-3.243-3.007-4.559-1.188-1.297-2.812-2.663-4.897-2.812-1.131-.082-2.249-.042-2.812.436.154.609.766.805 1.164 1.115.403.315.916.635 1.261 1.019.191.212.291.514.485.727.532.586 1.208 1.079 1.746 1.697 1.145 1.32 2.193 2.652 3.782 3.492.812.429 1.829.93 2.861.679.1-.63-.274-1.245-.583-1.794zm-6.595-2.134c-.282-.319-.551-.612-.873-.921-.29-.279-.517-.646-.825-.97-.513-.539-1.245-1.141-1.94-1.649-.668-.489-1.72-.956-2.522-1.067-.593-.082-1.416-.134-2.134-.048-.741.089-2.697.756-2.618 1.406.04.335 1.045.558 1.357.679 2.575 1 4.388 2.517 6.498 3.831.864.538 1.851 1.092 2.958 1.164.686.045 1.384-.046 1.648-.436-.214-.965-1.068-1.291-1.549-1.989zm11.832 4.704c-.673-1.938-1.294-3.802-2.134-5.479-.674-.926-1.417-2.013-2.57-2.715-.969-.591-2.368-1.198-3.637-1.164-.392.011-.793.169-.825.437-.055.47.892 1 1.164 1.309 1.3 1.483 2.319 3.426 3.346 5.383.498.947 1.198 1.974 1.94 2.716.782.782 1.777 1.566 3.007 1.552.189-.681-.078-1.424-.291-2.039zm-30.842-2.473c-.701-1.991-1.649-3.732-3.006-4.995-.98-.481-2.512-2.002-4.17-1.649-.627.134-.47.534-.63 1.116-.091.33-.363.522-.291.824.074.312.722.615 1.067.873 1.189.888 2.02 2.043 2.91 3.006.958 1.039 2.034 1.675 3.249 2.328.421.226.846.636 1.357.437.227-.696-.272-1.333-.486-1.94zm4.995 6.353c.123-1.105.239-2.33.146-3.54-.237-3.076-1.992-6.154-3.685-7.517-.876-.705-2.147-1.26-3.637-1.212-1.442.046-.099 1.029.291 1.455.976 1.066 1.729 2.506 2.279 3.782 1.041 2.416 1.691 5.277 3.055 7.226.301.43.519 1.083 1.164 1.115.339-.324.339-.881.387-1.309zm1.6-9.02c.82.536 1.441 1.791 2.279 2.182.647.302 2.703.615 3.879.485.565-.063 1.71-.536 1.746-1.019.042-.567-.935-.919-1.406-1.212-.684-.425-1.157-.688-1.697-.97-1.626-.848-3.181-1.814-5.431-1.649-.86.064-1.863.335-2.182.97 1.028.466 1.891.611 2.812 1.213zm-15.42-1.164c-.282 1.015-.569 2.498.146 3.152.428.391 1.837.807 2.522.873.574.056 1.44.204 1.794-.242-.227-.936-1.222-1.525-1.794-2.279-.671-.671-1.408-1.533-2.57-1.551-.05-.002-.059.038-.098.047zm43.886 11.202c0-.588.05-1.227.048-1.746-.014-3.899-.823-6.87-3.055-8.486-.663-.481-1.7-.941-2.715-.97-.072.025-.122.072-.194.097-.211.495.139 1.034.339 1.455.644 1.352 1.24 2.749 1.697 4.268.621 2.061 1.191 4.162 2.23 5.722.323.485.753 1.015 1.358 1.164.425-.323.292-.974.292-1.504zm-30.648-9.068c.579 1.067 1.173 2.413 1.309 3.879.264 2.834-.396 5.105-.581 7.614-.06.806-.049 2.302.436 2.376.381.058 1.1-.952 1.455-1.406 1.223-1.566 2.328-3.774 2.328-6.255 0-1.428-.299-2.93-.824-4.025-.489-1.02-1.709-2.354-2.716-2.959-.43-.258-1.322-.611-1.746-.388-.248.463.172.854.339 1.164zm30.648 1.794c-.101.453.164 1.387.291 2.182.564 3.53-.274 8.369 1.115 10.814.228.401.536.929.97.97.394-.341.401-.948.534-1.503.118-.497.329-1.016.485-1.552 1.028-3.529.892-8.214-1.552-10.281-.408-.345-1.153-.8-1.697-.776-.071.027-.119.076-.146.146zm-25.847.339c-.154.708.925.75.921.146-.105-.28-.699-.407-.921-.146zm-10.717 1.601c-.525.101-.809.926-1.018 1.6-.198.64-.504 1.519-.048 1.843.588-.239.888-.85 1.261-1.309.377-.466.903-.9 1.115-1.503-.278-.385-.809-.728-1.31-.631zm.146 8.874c.482-1.311 1.312-2.426 2.23-3.395.39-.411 1.274-.942 1.358-1.455.102-.625-.35-1.215-.534-1.649-.16-.377-.488-1.557-1.163-1.212-1.133.578-2.227 2.417-2.958 3.346-.104.739-.56 1.499-.63 2.424-.092 1.212.215 2.462.485 3.298.108.336.227.83.581.824.302-.763.374-1.484.631-2.181zm40.928-2.474c-.309 2.964-1.749 5.334-1.697 8.535.01.639.085 2.221.63 2.231.234.004.521-.579.728-.922.647-1.077 1.327-2.149 1.794-3.152.652-1.4 1.557-3.118 1.649-4.946.063-1.257-.288-2.284-.776-3.249-.367-.726-1.235-1.896-1.939-2.037-.104-.021-.206.113-.243.097-.136 1.252-.031 2.335-.146 3.443zm-29.581-3.297c-.146.362-.203.897-.291 1.309-.444 2.084-1.448 3.878-2.619 5.286-.429.516-1.222 1.242-1.358 1.794-.267 1.087.477 2.758 1.455 2.716.407-.018 1.142-.67 1.552-1.018 1.369-1.166 2.735-2.746 3.103-4.655.301-1.562-.071-3.005-.534-4.073-.222-.515-.706-1.39-1.164-1.503-.068.025-.117.074-.144.144zm-8.68 12.656c.071-1.685.378-3.206.921-4.607.616-1.588 1.736-2.881 1.6-4.946-.247-.566-.764-1.553-1.406-1.212-2.017 1.068-3.839 3.991-3.686 7.419.052 1.147.365 2.421.776 3.346.317.712.931 1.677 1.649 1.795.279-.519.121-1.216.146-1.795zm41.655-6.013c-1.071 4.17-3.906 6.836-5.043 10.911-.154.55-.445 1.222-.146 1.843.501.033.798-.458 1.115-.776.313-.313.682-.565 1.019-.873.631-.577 1.188-1.338 1.794-1.988 1.28-1.372 2.448-2.789 2.91-4.655.396-1.602-.039-4.349-1.455-4.607-.099.014-.095.132-.194.145zm-37.63 10.572c.454-2.698.643-5.69-.146-8.195-.225-.715-.763-2.413-1.503-2.473-.139-.011-.114.121-.242.097-.882 1.763-1.781 4.585-1.601 7.274.141 2.1.776 3.835 1.552 5.189.276.481.639 1.05 1.164 1.164.493-.708.577-1.874.776-3.056zm3.782-6.741c-.542.473-1.266.744-1.309 1.31-.036.458.445.944.728 1.357.222.326.574 1.099 1.018 1.067.347-.025.747-.841 1.019-1.455.309-.699.526-1.297.582-1.891.075-.805.065-1.826-.582-1.697-.511.101-.88.807-1.456 1.309zm-2.715 1.261c-.286.266-.079 1.205-.097 1.698-.087 2.308-.531 4.57-.921 6.692-.273 1.486-.727 3.453.145 4.801 1.13-.166 1.795-1.154 2.473-2.085.299-.411.592-.878.824-1.455.224-.553.604-1.122.679-1.601.063-.401.013-.847.048-1.261.161-1.896-.286-3.231-1.018-4.461-.541-.907-1.174-1.832-1.94-2.377-.003-.03-.007-.057-.048-.048-.058.024-.11.052-.145.097zm37.678 1.94c-1.269 2.186-3.493 3.78-5.092 5.674-.556.659-1.243 1.244-1.697 1.891-.516.735-1.035 1.689-.921 2.716.516.109.937-.272 1.358-.485 1.3-.659 2.569-1.332 3.588-2.23 1.581-.856 3.187-2.223 3.588-4.219.242-1.202.248-2.941-.582-3.346-.003-.03-.007-.058-.049-.048-.064.014-.091.067-.193.047zm-43.643 2.473c-.614.502-1.354 1.451-1.358 2.23.55.159.997-.278 1.455-.485.452-.204 1.11-.222 1.309-.728-.058-.572-.185-1.076-.533-1.357-.387-.014-.645.154-.873.34zm5.334 12.705c2.125-.777 4.557-1.4 5.673-3.201.932-1.502 1.043-4.512.194-6.11-.267-.503-.818-1.49-1.358-1.212-.276.158-.209.753-.291 1.164-.254 1.274-.497 1.928-1.018 2.91-.725 1.368-1.717 2.302-2.909 3.249-1.085.862-2.46 1.703-1.843 3.54.543.117 1.072-.164 1.552-.34zm-7.516-8.728c-.598.552-1.341 1.653-1.697 2.473-.411.947-.553 2.162-.242 3.298.778-.311.681-.786 1.164-1.358 1.043-1.236 2.913-2.243 4.655-2.91.581-.222 1.574-.402 1.6-.97.019-.398-.496-.905-.727-1.212-.311-.414-.517-.807-.824-1.115-1.586-.118-2.962.899-3.929 1.794zm37.242 8.243c1.397-.42 2.598-.819 3.879-1.358 2.672-1.124 4.737-2.446 5.188-5.625.104-.732.074-1.903-.63-1.455-.687.437-1.226 1.074-1.939 1.551-.674.451-1.346.942-2.085 1.406-2.012 1.264-4.399 2.204-5.625 4.171-.345.553-.887 1.151-.824 1.842.766.133 1.385-.336 2.036-.532zm-38.697 2.182c.163.512.673 1.583 1.115 1.503.192-.035.41-.606.436-.679.111-.305.154-.658.242-.873.493-1.202 1.491-2.398 2.376-3.249 1.12-1.076 2.242-1.617 2.958-2.668.188-.275.47-.833.533-1.455.054-.527.122-1.75-.582-1.503-1.797.631-3.774 1.532-5.14 2.57-1.435 1.214-2.751 3.803-1.938 6.354zm45.098-4.073c-1.381.721-2.955 1.447-4.655 1.988-2.371.754-4.673 1.581-6.304 2.958-.443.374-1.035.82-1.115 1.406 1.083.39 2.457-.16 3.637-.291.565-.063 1.142.028 1.697 0 1.814-.093 3.347-.428 4.559-1.115.93-.67 1.629-1.571 2.279-2.522.183-.721.854-1.625.436-2.473-.261-.14-.429-.006-.534.049zm-39.618 10.62c-.014-.71-.06-1.41 0-2.23.087-1.199.588-2.876.873-4.17.194-.884.891-3.959-.097-4.17-.058-.012-.146.027-.194.048-.62.274-1.634 1.357-2.231 2.037-.467.533-1.045 1.381-1.309 1.94-1.157 2.454-.92 5.851.873 7.71.655.442 1.282 1.382 2.279 1.164.196-.679-.178-1.506-.194-2.329zm8.68-9.941c-1.005.499-1.638 1.061-3.249 1.649-.509.185-1.121.394-1.794.63-.574.201-1.51.465-1.552.921-.035.378.494.812.679 1.115.28.457.411.831.776 1.067 2.512.024 4.194-1.509 5.189-3.201.345-.587.676-1.448.388-2.182-.279-.071-.299-.067-.437.001zm-7.856 6.595c-.125.885-.25 1.864-.242 2.715.037 3.808 1.83 6.454 4.995 7.032.413.075 1.044.3 1.358-.146.046-.593-.386-.973-.679-1.407-.912-1.35-1.542-2.705-2.085-4.461-.326-1.054-.502-2.288-.921-3.443-.325-.896-.818-2.543-1.649-2.764-.492.423-.657 1.625-.777 2.474zm-5.092 1.164c-.077-.507-.001-1.206-.242-1.552-.177-.254-.727-.359-1.164-.485-1.332-.381-3.828-.776-4.8.097.285.513.93.712 1.455.97.551.271 1.092.583 1.6.873.44.363.985.626 1.503.921.495.282 1.07.719 1.746.63.144-.419-.017-.923-.098-1.454zm39.958-2.182c-2.347.628-5.846.509-8.486.97-.837.146-1.705.471-2.425.776-.746.316-1.629.702-1.794 1.455 1.01.551 2.437.588 3.831.824 1.4.237 2.933.47 4.268.388 1.621-.1 3.292-.838 4.17-1.794.552-.601 1.112-1.466 1.164-2.521-.209-.224-.553-.145-.728-.098zm-31.908.582c-.301 1.56 2.137 1.094 1.988-.146-.36-.442-1.57-.109-1.988.146zm-9.214 3.442c-1.131-.567-2.189-1.38-3.297-2.037-1.16-.686-2.483-1.312-3.686-1.697-.156-.05-.126.084-.243.048-.49.306-.336 2.924-.097 3.249.212.288 1.347.597 1.843.825.689.316 1.262.619 1.843.873 1.832.801 4.274 1.749 6.11.582-.159-1.271-1.523-1.366-2.473-1.843zm9.747-1.454c-.188.335.269 1.674.485 2.376.26.846.579 1.511.873 2.134 1.114 2.361 2.669 4.737 5.625 4.995.69.06 1.464.048 1.746-.339-.311-.788-1.167-1.031-1.551-1.746-.562-.537-.945-1.253-1.455-1.843-1.407-2.109-2.754-5.041-5.577-5.722-.07.026-.118.075-.146.145zm24.78 2.327c-1.122-.102-2.32-.278-3.491-.437-2.279-.308-6.166-1.244-7.856.242.367.57 1.144.797 1.794 1.116 1.342.657 2.606 1.299 4.122 1.794.752.246 1.602.582 2.376.582.784 0 1.751-.27 2.522-.63 1.251-.586 2.331-1.17 2.812-2.376-.696-.437-1.509-.221-2.279-.291zm-20.415-.339c-.068.579.435 1.04.728 1.503 1.372 2.173 2.807 4.918 5.479 5.673 1.001.283 4.192.183 4.122-.776-.025-.346-1.076-.758-1.552-1.067-1.131-.734-1.737-1.374-2.667-2.182-1.634-1.419-3.134-3.174-5.916-3.249-.072.026-.123.073-.194.098zm-18.33 1.213c.126-.534-2.042-1.327-2.57-1.116-.115.456.01 1.043.194 1.358.401.28 2.274.191 2.376-.242zm33.944 2.618c-.458-.125-.896-.279-1.358-.437-2.529-.861-4.994-2.675-7.613-3.152-.516-.094-1.371-.128-2.037-.048-1.257.151.694 1.435 1.067 1.794.57.549 1.016 1.06 1.455 1.503.425.43 1.304.934 2.037 1.406.775.5 1.553.971 2.279 1.164 1.437.381 2.852-.043 3.879-.485.619-.267 1.356-.547 1.552-1.212-.304-.38-.83-.416-1.261-.533z" fill-rule="evenodd"/></svg>