<svg enable-background="new 0 0 79.12 63.117" viewBox="0 0 79.12 63.117" xmlns="http://www.w3.org/2000/svg"><g clip-rule="evenodd" fill-rule="evenodd"><path d="m55.453 12.295c-.309-.759-.256-1.748-.31-2.686-.149-2.573-.549-6.199.62-8.006.945-1.46 3.116-2.117 5.01-1.136.459.238 1.28.659 1.343 1.188.044.37-.317.83-.568 1.24-1.192 1.948-1.939 4.053-2.893 6.147-.686 1.506-1.175 3.465-3.202 3.253z"/><path d="m12.684 13.018c-.477-.52-.436-1.402-.465-2.169-.112-3-1.269-7.445.414-9.453.806-.962 2.484-1.605 4.132-.982.58.219 1.371.65 1.446 1.24.075.588-.766 2.039-.981 2.582-.738 1.859-1.113 3.5-1.808 5.32-.327.855-.605 1.818-1.033 2.479-.319.495-.907 1.109-1.705.983z"/><path d="m15.628 10.9c-.082-.803.365-1.512.62-2.221.749-2.086 1.572-4.204 2.428-6.25.794-1.109 1.874-2.737 4.184-2.221 1.127.251 2.731 1.517 2.583 2.737-.05.416-.578.781-.93 1.085-1.114.962-2.155 1.898-3.099 2.944-.586.593-1.208 1.374-1.911 2.118-.638.675-1.306 1.585-2.066 1.911-.415.178-1.395.326-1.809-.103z"/><path d="m59.843 11.055c-1.637-.217-.732-1.779-.258-2.789.854-1.819 1.929-4.323 2.996-5.682.926-1.18 2.729-2.058 4.7-1.084.734.362 2.306 1.969 2.118 3.047-.097.559-1.848 1.427-2.273 1.756-1.711 1.326-2.798 2.336-4.494 3.564-.769.558-1.421 1.305-2.789 1.188z"/><path d="m54.42 14.258c-.404.37-.639.911-1.343.981-.473-.101-.609-.629-.775-.981-.551-1.171-1.148-2.189-1.808-3.409-.832-1.539-1.824-3.189-1.86-5.063-.037-1.94 1.43-3.358 3.306-3.461.875-.047 2.08.182 2.376.775.25.502.088 2.521.104 3.306.054 2.734.675 5.537 0 7.852z"/><path d="m11.083 3.513c.28.973.056 1.976.155 3.048.102 1.101.269 2.301.414 3.46.146 1.176.396 2.378.31 3.513-.055.711-.497 2.011-1.136 2.014-.38.002-1.027-1.127-1.343-1.705-.421-.771-.734-1.354-1.085-1.911-.834-1.323-1.758-2.495-2.274-3.718-1.044-2.473.528-4.908 2.944-5.165.868-.093 1.435.075 2.015.464z"/><path d="m25.907 3.669c1.779-.99 4.098-.05 4.959 1.446.243.421.769 1.798.413 2.479-.195.373-1.259.65-2.015.93-1.477.545-2.765 1.001-4.235 1.549-.756.282-1.423.681-2.015.878-.775.259-1.846.667-2.737.568-.506-.056-1.187-.426-1.24-.775-.104-.682 1.04-1.434 1.549-1.963 1.734-1.798 3.181-3.682 5.321-5.112z"/><path d="m64.182 9.454c.624-.662 1.52-1.172 2.376-1.808 1.419-1.054 2.764-2.617 5.217-2.531 1.604.383 2.939 1.809 3.151 3.512.075.604.002 1.617-.362 1.911-.247.201-1.009.132-1.549.155-1.373.058-2.875.347-4.339.671-1.437.318-2.876.962-4.236.775-.646-.089-1.637-.707-1.653-1.24-.021-.738 1.035-.942 1.395-1.445z"/><path d="m47.808 6.871c.715.618.857 1.63 1.24 2.479.366.812.838 1.611 1.292 2.428.898 1.619 2.041 3.136 2.634 4.752.393 1.068.487 2.941-.62 3.306-.684-.142-1.151-.829-1.704-1.343-.51-.474-1.021-.99-1.55-1.498-1.033-.992-2.25-1.936-3.151-2.944-.451-.505-1.038-1.248-1.291-1.86-1.061-2.552.576-5.182 3.15-5.32z"/><path d="m10.411 19.164c-.811-.153-1.502-.691-2.221-1.136-1.355-.839-2.756-1.592-4.184-2.531-1.13-.743-2.092-1.448-2.479-2.892-.148-1.769.528-3.054 1.55-3.719.384-.25 1.311-.746 1.911-.671.62.076 1.245 1.474 1.652 2.065 1.08 1.563 1.924 2.922 2.893 4.494.484.785 1.071 1.553 1.292 2.376.197.736.091 1.799-.414 2.014z"/><path d="m34.223 14.774c-3.148-.567-6.903-.332-10.02-1.137-.737-.19-2.227-.753-2.066-1.601.081-.428 1.468-.742 2.118-.982 2.225-.82 4.163-2.035 6.663-2.479 1.785-.317 3.309.58 3.874 1.808.519 1.128.667 3.517-.569 4.391z"/><path d="m65.732 12.863c.386-.53 1.101-.522 1.653-.62 1.912-.336 3.575-.856 5.733-1.033 3.399-.278 5.524 2.01 4.752 5.165-.179.731-.539 1.728-1.085 1.808-.37.055-.892-.327-1.291-.516-2.811-1.334-6.807-1.619-9.194-3.306-.238-.452-.641-.737-.568-1.498z"/><path d="m46.517 15.394c.792.775 1.66 1.474 2.428 2.273.76.688 1.666 1.408 2.479 2.221 1.1 1.1 2.449 2.146 2.118 4.545-.116.84-.739 2.292-1.395 2.325-.542.026-1.685-1.372-2.325-1.963-.801-.739-1.516-1.3-2.273-1.963-1.601-1.402-3.441-2.747-4.39-4.081-1.142-1.606-1.101-4.644.723-5.579.707-.362 1.007.553 1.446 1.033.474.518.847.862 1.189 1.189z"/><path d="m24.925 14.412c2.523.293 7.707.203 9.763 1.24 1.266.639 2.185 1.81 1.963 3.977-.055.538-.265 1.074-.465 1.549-.143.338-.458 1.076-.878 1.136-.436.064-1.01-.477-1.446-.723-.515-.291-.962-.556-1.343-.775-1.826-1.052-3.318-1.622-5.114-2.685-.744-.441-1.523-.988-2.015-1.498-.46-.479-1.078-1.381-.62-2.169.042-.027.085-.054.155-.052z"/><path d="m1.94 15.084c.73-.076 1.873.938 2.686 1.395 1.615.909 3.373 1.905 5.062 2.944.652.402 2.074 1.239 2.015 1.963-.056.681-1.529.909-1.963 1.24-3.414-.325-8.539-.303-9.556-3.254-.624-1.81.434-3.663 1.756-4.288z"/><path d="m75.133 26.034c-.677-.384-.815-.922-1.292-1.55-1.216-1.601-3.342-3.311-4.958-4.907-.49-.484-1.193-1.342-1.343-1.911-.119-.452-.116-1.479.258-1.653.493-.156 1.42.208 2.273.465 3.251.982 8.878 1.722 7.748 6.664-.308 1.343-1.39 2.441-2.686 2.892z"/><path d="m29.368 25.311c-.855-.355-1.71-1.219-2.48-2.118-.822-.96-2.005-1.876-2.014-3.358-.005-.801.315-1.412.775-1.859.731-.287 1.831.918 2.737 1.343 1.173.551 2.477 1.055 3.719 1.808 1.187.719 2.523 1.371 3.357 2.169.354.339 1.073 1.179 1.033 1.86-.033.549-.837 1.334-1.395 1.343-.403.006-.663-.41-1.033-.671-.798-.565-2.183-1.108-3.616-.827-.417.083-.469.28-1.083.31z"/><path d="m68.211 19.681c.983.586 1.904 1.745 2.944 2.841.951 1.001 2.019 2.042 2.738 3.047.562.786 1.177 2.01.981 3.306-.296 1.962-2.17 3.58-4.649 3.254-.436-.843-.481-1.796-.723-2.737-.447-1.74-1.111-3.455-1.601-5.32-.39-1.485-1.115-3.23 0-4.339.158.037.152-.09.31-.052z"/><path d="m52.509 34.247c-.924-.334-1.605-1.17-2.428-1.86-1.497-1.254-3.077-2.671-4.649-3.925-.392-.313-.701-.745-1.085-1.085-1.06-.94-2.403-1.964-2.169-4.132.124-1.152.752-1.988 1.446-2.686 1.271.023 1.767 1.261 2.634 1.859.828.619 1.55 1.343 2.376 1.963 1.23 1.383 3.215 2.655 4.235 4.39.845 1.435 1.167 4.39-.36 5.476z"/><path d="m7.88 23.194c-.202.507-.837.686-1.291.878-1.453.614-2.89 1.494-4.597 1.859-.504-.397-.72-1.555-.62-2.531.043-.421.314-1.498.879-1.343.77.211 1.717.521 2.737.671 1.006.148 2.084.125 2.892.466z"/><path d="m68.469 34.867c-.742.635-1.735 1.137-3.1 1.137-.757 0-2.086-.271-2.273-.93-.147-.521.374-1.684.568-2.531.432-1.887.652-3.578.981-5.424.321-1.796.452-3.234 1.808-3.977.885-.485.977.921 1.24 1.756.234.742.427 1.36.62 2.014.402 1.362.906 2.918 1.085 4.184.22 1.545-.238 2.971-.929 3.771z"/><path d="m28.541 25.673c-.403 1.156-1.262.515-1.962-.051-.396-.32-.786-.642-.982-.878-.108-.546.207-1.325.723-1.24.918.545 1.576 1.351 2.221 2.169z"/><path d="m64.337 25.105c-.07 2.052-.427 3.757-.827 5.682-.615 2.958-1.118 6.736-5.01 6.456-.901-.064-2.788-.744-2.841-1.498-.02-.291.404-.788.723-1.188.82-1.028 1.668-2.343 2.324-3.358 1.181-1.827 1.866-3.446 2.841-4.752.503-.673 1.715-1.804 2.79-1.342z"/><path d="m23.686 25.26c1.587-.106 2.962.447 3.46 1.601-.103.588-.604 1.018-.981 1.446-1.875 2.127-3.348 4.579-5.372 6.767-.946 1.022-2.197 3.109-4.081 1.963-.001-1.001.497-2.017.878-3.047.346-.937.736-1.908 1.136-2.841.804-1.873 1.62-3.864 2.996-5.01.516-.431 1.232-.783 1.964-.879z"/><path d="m60.67 26.551c-.788 1.896-1.824 3.453-2.944 5.165-.749 1.146-1.487 2.467-2.479 3.616-.266.309-.792.928-1.085.93-.411.003-1.069-.922-1.084-1.395-.017-.516.522-1.202.723-1.808.191-.578.359-1.435.31-2.221-.032-.51-.395-1.129-.361-1.653.045-.713.976-1.772 1.549-2.376.833-.876 1.604-1.388 2.583-1.498 1.332-.149 2.104.318 2.788 1.24z"/><path d="m38.407 25.414c.96-.122 3.022.295 3.1 1.033.041.389-.63 1.035-.93 1.395-.947 1.135-1.82 1.983-2.635 3.203-.854 1.279-2.037 2.857-3.202 3.926-.611.56-1.469 1.27-2.118 1.601-.513.261-1.403.471-2.273.413-1.011-.067-2.394-.609-2.428-1.291-.017-.334.671-1.033 1.033-1.395.844-.844 1.583-1.737 2.324-2.531 1.105-1.185 2.183-2.691 3.409-3.822.836-.772 1.643-1.721 2.583-2.221.318-.17.677-.252 1.137-.311z"/><path d="m31.176 25.466c.08-.008.471-.07.826 0 .77.152 2.39.877 2.428 1.601.019.355-.439.837-.827 1.239-.991 1.029-1.972 2.2-2.841 3.203-.639.738-1.17 1.481-1.859 2.17-1.266 1.266-2.496 2.739-4.235 3.461-.491.204-1.051.352-1.705.31-.862-.056-2.299-.588-2.376-1.085-.053-.345.578-1.035.93-1.446.417-.487.774-.881 1.085-1.24 1.555-1.795 2.774-3.465 4.184-5.217 1.035-1.286 2.379-2.803 4.39-2.996z"/><path d="m13.821 38.793c-.534-.472-.283-1.229-.31-1.911-.066-1.664-.339-3.569-.362-5.217-.045-3.38 1.089-5.555 4.132-5.837.8-.074 2.763.274 2.893.981.065.354-.389.978-.62 1.395-1.205 2.171-2.054 4.547-2.996 6.921-.384.968-.678 2.043-1.188 2.79-.301.44-.847.977-1.549.878z"/><path d="m54.73 26.241c.027.547-.239.753-.517 1.136-.195.269-.441.852-.775.878-.354.028-.767-.514-.775-.878-.014-.703 1.231-2.281 2.067-1.136z"/><path d="m43.262 27.325c-.826 1.396-2.018 2.186-1.549 4.442.117.563.698 1.161.671 1.756-.029.655-.858 1.323-1.395 1.859-.92.921-1.916 2.22-3.667 1.963-.931-.137-2.602-.751-2.634-1.498-.023-.516 1.358-1.639 1.653-1.963.633-.697 1.243-1.141 1.549-2.015 1.404-1.234 2.8-4.155 4.391-5.165.388-.244.886.229.981.621z"/><path d="m12.684 28.565c-.218 2.239.03 4.951.258 7.593.115 1.33.293 5.411-1.239 5.217-.396-.05-.801-1.28-1.137-1.963-.385-.783-.731-1.441-1.033-2.014-.801-1.518-1.555-2.589-2.066-4.029-.995-2.803.747-5.221 3.254-5.372.813-.049 1.448.118 1.963.568z"/><path d="m43.883 28.049c.775.025 1.88 1.296 2.531 1.911.807.763 1.61 1.396 2.325 2.015 1.264 1.094 2.335 1.828 3.564 2.944.771.7 1.374 1.395 1.601 2.634.22 1.205-.377 3.021-1.136 3.099-.359.037-.829-.476-1.292-.827-2.028-1.539-4.054-3.058-6.043-4.494-1.414-1.02-3.291-2.047-3.306-4.339-.01-1.357.823-2.574 1.756-2.943z"/><path d="m6.383 32.491c.599.676.834 1.65 1.291 2.531.846 1.631 1.715 3.32 2.583 5.01.441.859.913 1.772 1.136 2.634.14.54.309 1.888-.31 2.014-.864.176-1.421-1.397-2.118-1.498-.582-.606-1.418-.958-1.911-1.653-1.425-1.094-4.209-2.657-4.287-5.165-.059-1.868 1.182-3.205 2.996-3.822.118-.04.37-.071.62-.051z"/><path d="m42.695 34.247c.289-.191.906.194.93.62.023.43-.448.776-.723 1.137-.294.383-.566.883-.93.93-.393.05-.825-.209-.878-.568-.079-.532.401-.936.62-1.24.287-.401.548-.711.981-.879z"/><path d="m53.645 45.972c-1.069-.116-2.012-.736-2.996-1.188-1.88-.864-4.023-1.592-5.734-2.634-.827-.504-1.792-1.25-2.169-2.015-.92-1.866.079-3.877 1.291-4.648.59-.375 2.161 1.001 2.634 1.343 1.528 1.103 2.85 2.254 4.442 3.306 1.346.889 2.816 1.788 3.047 3.616.112.873-.116 1.868-.515 2.22z"/><path d="m76.992 35.848c.731.562.659 2.449-.052 2.944-.497.347-1.49.093-2.221.052-1.1-.063-2.38.242-3.047-.104.086-.568.735-.574 1.136-.826 1.206-.524 2.447-1.517 3.719-2.015.103-.039.251-.065.465-.051z"/><path d="m34.068 36.365c.986.288 1.433 1.115 2.17 1.653.886 1.112 1.482 3.096.826 5.062-.159.477-.537 1.39-1.033 1.446-.651.074-1.455-.96-1.911-1.343-1.751-1.469-3.689-2.822-5.32-4.287-.311-.181-.629-.587-1.084-1.033-.344-.337-1.592-1.463-.517-1.653.015-.003.037-.001.052 0 .884.077 1.372 1.034 2.531 1.24 1.915.34 2.841-.551 4.286-1.085z"/><path d="m29.264 39.981c.978.705 2.265 1.626 3.513 2.634 1.212.979 2.735 2.062 3.409 3.254.612 1.082.707 2.911.052 4.132-.349.649-1.188 1.573-1.756 1.55-.755-.031-1.235-1.449-1.756-1.808-1.848-1.699-3.536-3.558-5.217-5.423-.545-.894-1.708-2.426-1.602-3.978.03-.439.588-2.306 1.188-2.169.866.197 1.525 1.28 2.169 1.808z"/><path d="m11.858 47.522c-.775.351-1.65-.079-2.479-.259-3.071-.665-7.114-.946-8.574-3.202-.98-2.084.316-4.278 1.653-5.01.613-.335 1.145.355 1.601.774 1.168 1.074 2.52 2.093 3.719 2.996.918.691 1.822 1.271 2.531 1.963.741.725 1.816 1.565 1.549 2.738z"/><path d="m72.808 39.361c3.072-.127 6.531.041 6.302 3.461-.06.891-.743 2.326-1.395 2.376-.327.025-.814-.418-1.188-.62-2.379-1.289-5.314-1.714-7.903-2.893-.26-.118-1.005-.313-1.033-.723-.033-.484 1.819-1.285 2.169-1.395.721-.225 2.118-.167 3.048-.206z"/><path d="m76.166 44.991c1.004.827 2.288 1.767 2.169 3.719-.034.569-.271 1.308-.516 1.757-.353.644-1.418 1.904-2.273 1.808-.56-.063-1.504-1.705-1.859-2.118-1.314-1.525-2.51-2.656-3.822-4.132-.712-.801-2.076-2.172-1.292-3.513.521-.271 1.39.267 2.118.517 1.8.618 4.039 1.182 5.475 1.962z"/><path d="m55.401 49.072c-.665.437-1.579.238-2.428.258-2.961.071-6.949 1.006-8.936-.465-1.657-1.227-2.039-4.808.052-6.198.602-.335 1.489.469 2.17.774 1.868.839 4.071 1.845 5.94 2.479.581.454 1.373.756 2.015 1.24.556.421 1.417.886 1.187 1.912z"/><path d="m34.223 53.1c.137 2.807-1.522 4.089-4.029 4.081-.639-.556-.819-1.528-1.188-2.428-.331-.807-.772-1.61-1.136-2.427-.374-.837-.671-1.72-1.033-2.531-.392-.879-.876-1.753-1.033-2.531-.19-.943.217-2.9.981-2.789.428.062 1.194 1.143 1.601 1.55.506.506 1.106 1.135 1.549 1.549 1.108 1.038 2.284 2.217 3.048 3.151.562.685.974 1.451 1.24 2.375z"/><path d="m70.845 57.646c-.467-.749-.552-1.704-.827-2.634-.493-1.67-1.124-3.41-1.653-5.166-.244-.81-.697-1.918-.671-2.738.019-.617.407-1.671.981-1.549.416.088 1.222 1.127 1.653 1.601.586.646 1.039 1.184 1.549 1.705 1.093 1.115 2.331 2.358 2.944 3.512 1.447 2.718-.855 5.725-3.976 5.269z"/><path d="m13.924 50.311c-.302.592-.989.496-1.653.62-2.01.375-4.568 1.279-6.663 1.446-1.922.153-3.312-.698-3.874-1.962-.513-1.154-.418-3.38.517-4.081.407-.286 1.071.136 1.756.31 1.535.391 3.215.758 4.804 1.033 1.091.189 2.233.386 3.15.723.94.346 1.937.818 1.963 1.911z"/><path d="m25.287 48.607c.01-.059.052-.029.052 0 .781.258 1.494 2.615 2.066 3.822.641 1.352 1.429 2.906 1.705 4.132.637 2.835-.91 4.484-3.357 4.648-.845.057-1.438-.109-2.014-.516-.06-1.679-.027-4.115 0-6.663.02-2.065-.053-5.069 1.548-5.423z"/><path d="m66.816 48.969c.056-.086.461-.086.517 0 .443.291.503.894.672 1.394.165.494.366 1.03.516 1.549.299 1.034.717 2.07.981 3.1.347 1.351.866 3.195.155 4.545-.542 1.029-1.934 2.077-3.719 1.911-.738-.069-1.667-.36-1.859-.93-.178-.528.296-1.746.413-2.531.283-1.893.399-3.603.62-5.423.204-1.68.402-3.091 1.704-3.615z"/><path d="m57.829 51.189c-.183.658-1.008.81-1.602 1.137-1.141.629-2.292 1.362-3.512 1.962-1.12.552-2.247 1.29-3.719 1.446-1.287.137-2.218-.146-2.944-.774-.386-.334-1.046-1.235-1.24-1.911-.266-.928-.234-2.293.413-2.893 2.902.358 6.309-.459 9.401-.465 1.324-.002 2.927.193 3.203 1.498z"/><path d="m23.17 50.931c.221.883.204 2.159.207 3.15.003.93-.01 2.013-.052 3.047-.087 2.172-.282 4.16-1.446 5.166-1.14.985-3.365 1.124-4.804.207-.395-.252-1.065-.773-1.085-1.188-.016-.334.479-.841.724-1.188 1.814-2.578 2.876-5.878 4.648-8.419.436-.376 1.003-1.104 1.808-.775z"/><path d="m64.698 51.189c.077 1.208-.29 2.587-.413 3.978-.291 3.296-.742 7.193-4.081 7.335-1.758.074-3.195-1.033-3.719-2.479.315-.87.993-1.518 1.498-2.221.521-.726 1.017-1.443 1.55-2.169 1.278-1.615 2.11-3.675 4.029-4.649.39-.123.975-.066 1.136.205z"/><path d="m12.942 55.063c-.628.414-1.305.974-2.066 1.498-.692.477-1.425 1.111-2.221 1.291-1.335.302-2.519-.172-3.254-.878-.675-.896-1.428-2.351-1.033-3.822.793-.312 1.683-.326 2.583-.465 2.381-.368 5.1-1.355 7.49-1.653.644-.08 2.275.025 2.325.775.035.542-1.523 1.433-1.86 1.705-.736.591-1.373.967-1.964 1.549z"/><path d="m61.393 51.758c-.041.799-.719 1.385-1.188 2.015-.45.603-.88 1.237-1.343 1.859-.917 1.233-1.732 2.683-2.737 3.616-.925.858-2.78 1.627-4.339.775-1.13-.617-2.127-1.925-1.963-3.616.589-.742 1.628-.777 2.479-1.24 1.917-1.042 3.851-2.323 5.94-3.306.841-.395 2.314-1.175 3.151-.103z"/><path d="m20.174 52.222c-.147.938-.625 1.544-1.033 2.221-.325.988-.941 2.054-1.55 3.151-.959 1.727-2.04 4.168-4.649 4.08-1.813-.061-3.302-1.471-3.719-3.047.502-.729 1.366-1.22 2.169-1.756 1.473-.982 2.981-2.179 4.442-3.306.721-.556 1.545-1.237 2.325-1.549.591-.237 1.63-.392 2.015.206z"/></g></svg>