<svg enable-background="new 0 0 76.758 50.219" viewBox="0 0 76.758 50.219" xmlns="http://www.w3.org/2000/svg"><path clip-rule="evenodd" d="m49.841.254c-.364 1.564-1.027 3.018-1.591 4.483-.568 1.477-1.093 2.965-1.639 4.434-1.093 2.945-2.262 5.848-3.229 8.917.6.253 1.3.145 1.976.145 2.009 0 4.313.11 6.17-.048 2.677-.228 4.377-1.314 5.447-2.94.527-.802.959-2.211.53-3.326-.268-.697-.903-1.32-1.542-1.59-1.997-.846-5.268.153-7.713-.434.083-.874.463-1.69.771-2.506.305-.807.66-1.605.964-2.41.617-1.634 1.166-3.298 1.928-4.82 3.707-.005 7.344-.233 10.99-.096 3.695.139 6.441 1.029 8.821 2.603 2.219 1.467 4.039 3.78 4.724 6.748.729 3.157.113 6.93-1.253 9.496-2.614 4.908-7.264 8.218-13.593 9.303-3.432.589-7.046.36-10.942.482-3.665.115-7.444-.124-11.183.048-.605.736-.839 1.724-1.157 2.603-1.935 5.349-4.078 10.81-6.074 16.196-.328.887-.509 1.853-1.108 2.603-6.452.057-13.133.16-19.57-.048.089-.935.501-1.786.819-2.651.327-.886.545-1.814.868-2.699 1.256-3.447 2.571-6.873 3.904-10.364.655-1.714 1.323-3.458 1.832-5.254-.667-.342-1.684-.193-2.651-.193-1.866 0-3.756-.016-5.543 0-.887.008-1.774.099-2.555-.145.128-.955.588-1.844.916-2.748.652-1.796 1.411-3.548 2.073-5.35.325-.885.569-1.837 1.109-2.604 3.519-.206 7.394.153 10.797-.096.439-.463.604-1.145.819-1.735.657-1.806 1.444-3.648 1.976-5.591-.924-.261-2.042-.145-3.181-.145-5.493.001-10.965 0-16.437 0-2.157 0-4.295.062-6.314-.144.03-.938.521-1.76.868-2.653.809-2.082 1.617-4.203 2.506-6.459.226-.574.265-1.097.819-1.205.795-.155 1.894.048 2.94.048 6.753.001 13.219-.001 20.148 0 1.847 0 3.733.02 5.592-.048 1.887-.069 3.765.133 5.64.048 3.325-.15 6.713-.14 10.026 0 .436.018.919-.113 1.302.145z" fill-rule="evenodd"/></svg>