<svg enable-background="new 0 0 36.957 26.488" viewBox="0 0 36.957 26.488" xmlns="http://www.w3.org/2000/svg"><path d="m36.957 13.288-2.34-1.955v.001l-13.27-11.334h-4.721l15.287 12.959-4.172-.009c-4.994-7.971-13.582-7.7-13.582-7.7-9.784 0-14.159 7.954-14.159 7.954 4.964 8.291 13.828 7.954 13.828 7.954 8.529 0 12.906-6 13.889-7.539l4.164.017-15.255 12.852h4.511l13.66-11.441zm-23.068 4.622s-6.469.125-10.031-4.889c0 0 3.248-4.732 10.385-4.647 0 0 6.189-.119 9.793 4.568l-6.473-.013c-.141-1.893-1.72-3.385-3.648-3.385-2.022 0-3.66 1.639-3.66 3.66 0 2.022 1.638 3.66 3.66 3.66 1.896 0 3.455-1.441 3.641-3.288l6.452.027c-.904 1.082-4.151 4.378-10.119 4.307"/></svg>