<svg enable-background="new 0 0 81.055 60.033" viewBox="0 0 81.055 60.033" xmlns="http://www.w3.org/2000/svg"><g clip-rule="evenodd" fill-rule="evenodd"><path d="m37.415.172c.057 5.492.142 11.107-.049 16.437-5.955.211-12.11.147-18.296.147-.829 0-1.708-.116-2.495.146-.236.628.028 1.757-.196 2.397.113 6.104.274 12.689 0 18.785-5.044.222-10.902.131-16.241 0-.181-11.867-.098-23.778-.098-35.858 0-.718-.186-1.548.245-2.152 10.288.032 22.031-.049 32.581-.049 1.531 0 3.067-.114 4.549.147z"/><path d="m80.905.172c.201 5.312.172 10.867 0 16.486-5.379.184-10.913.099-16.388.098-1.806 0-3.656-.118-5.381.146-.291 3.199.096 7.075-.196 10.273-1.199.265-2.583.147-4.011.146-2.725 0-5.542 0-8.316 0-1.365 0-2.723.118-3.962-.146-.179-6.568-.098-13.654-.098-20.449 0-2.242-.083-4.447.147-6.555 12.657-.183 25.885-.113 38.205.001z"/><path d="m37.366 21.892c.194 5.009.233 11.061 0 16.486.028.34.142.694.146 1.027.097 6.596-.014 13.974-.098 20.399-.718.261-1.507.146-2.25.147-2.384 0-4.607-.005-6.897.049-3.125.073-6.263-.198-9.393-.049-3.074.147-6.234.049-9.392.05-3.133 0-6.301.117-9.344-.147-.162-5.246-.163-11.189 0-16.486 1.578-.292 3.318-.034 5.039-.098 4.81-.179 10.328.202 15.508-.098.263-.83.146-1.766.146-2.642 0-.916 0-1.818 0-2.739 0-4.456.178-9.015 0-13.453-.033-.832-.151-1.789.245-2.495 5.238-.039 11.016-.152 16.29.049z"/><path d="m58.939 32.801c.292 3.215-.095 7.107.196 10.322.832.264 1.761.146 2.642.146 6.255.001 12.988-.081 19.128.098.251 2.724.098 5.605.098 8.414 0 2.808.167 5.579-.098 8.121-11.175.136-22.26.098-33.559.099-1.578 0-3.156.118-4.696-.147-.232-8-.049-16.812-.049-24.802 0-.774-.143-1.574.098-2.299 4.874-.103 10.81-.118 16.24.048z"/></g></svg>