<svg enable-background="new 0 0 83.875 62.838" viewBox="0 0 83.875 62.838" xmlns="http://www.w3.org/2000/svg"><path clip-rule="evenodd" d="m44.733 39.781c-.835-.197-1.789-.256-2.851-.26-.727 0-2.462-.123-2.903.209-.528.396-.354 2.66-.362 3.523-.039 3.732-1.127 6.844-2.436 9.229-1.829 3.328-4.409 5.91-7.724 7.826-3.338 1.93-8.091 2.83-12.7 1.918-4.275-.846-7.469-2.805-10.108-5.443-2.502-2.5-4.491-6.022-5.287-10.264-.886-4.717-.082-9.734 1.763-13.062 1.976-3.565 4.212-6.047 7.517-8.035 2.307-1.387 5.433-2.412 9.123-2.539.812-.027 3.062.221 3.524-.311.329-.381.17-1.525.208-2.385.257-5.863 1.64-10.092 4.561-13.27 3.277-3.529 7.354-6.559 13.685-6.894 3.487-.185 6.545.762 8.968 1.865 4.844 2.205 8.475 6.225 10.315 11.352.668 1.861 1.14 4.162 1.141 6.947 0 .838-.119 2.127.207 2.488.469.518 2.804.221 3.577.258 3.683.18 6.678 1.264 9.019 2.695 3.262 1.994 5.826 4.34 7.672 7.984 1.748 3.451 2.793 8.244 1.918 13.113-.764 4.252-2.658 7.783-5.287 10.316-2.657 2.561-5.84 4.783-10.16 5.494-9.938 1.639-17.15-3.65-20.579-9.951-1.395-2.562-2.305-5.443-2.592-9.123-.091-1.147.226-2.406-.209-3.68zm12.856-17.158c.288-.279.301-1.287.311-1.969.085-5.324-1.915-9.006-4.251-11.715-2.582-2.998-7.221-5.775-12.855-5.443-4.523.266-7.748 2.238-10.212 4.56-2.549 2.404-4.18 5.754-4.717 9.902-.288 2.219-.104 4.621-.104 6.945v7.205c0 2.168.113 4.625 0 7.205-.104 2.354.02 4.844-.83 6.48-1.165 2.248-3.994 4.314-7.36 3.266-1.67-.521-3.068-1.76-3.784-3.059-.96-1.742-1.217-3.732-.622-5.494.851-2.52 2.84-4.279 6.013-4.51.929-.068 1.979.098 3.007-.26.342-.52.456-2.176 0-2.592-.402-.367-1.319-.184-1.918-.156-.8.037-1.551-.01-2.125.053-1.305.143-2.502.604-3.318 1.037-3.602 1.91-6.337 6.606-4.457 11.818 1.135 3.146 3.45 5.473 6.842 6.271 4.286 1.01 7.524-.951 9.331-3.266 1.365-1.748 2.177-3.639 2.177-6.582.001-2.734.053-5.516.053-8.502-.001-2.84.158-5.606.051-8.449-.101-2.701-.266-5.871.26-8.295 1.003-4.623 3.853-7.937 7.983-9.537 2.333-.904 4.933-1.217 7.464-.674 2.156.463 4.235 1.654 5.754 3.006 2.271 2.021 3.992 4.935 4.406 8.709.139 1.27-.126 2.645.259 4.043.64.247 2.198.435 2.642.003zm-6.22-2.643c0-2.758-.956-4.844-2.178-6.377-1.472-1.846-4.436-3.815-7.879-3.576-2.088.144-4.101.959-5.442 2.072-1.311 1.088-2.499 2.553-3.111 4.252-.764 2.123-.621 4.943-.621 7.879-.001 5.469.169 11.004 0 16.381-.047 1.481.065 2.816-.155 4.094-.981 5.691-4.832 10.012-10.265 11.094-2.524.504-5.328.072-7.309-.828-1.96-.893-3.431-2.031-4.873-3.682-1.596-1.949-2.714-4.172-3.058-7.205-.386-3.395.5-6.123 1.763-8.398 1.217-2.191 3.193-3.82 5.339-4.924 1.685-.867 3.681-1.334 6.323-1.348.718-.004 2.009.043 2.333-.26.45-.42.325-2.002.052-2.592-1.412-.354-2.877-.234-4.198-.154-4.152.25-7.352 2.062-9.642 4.197-1.495 1.396-2.852 3.311-3.784 5.443-.942 2.156-1.52 4.857-1.296 7.932.241 3.316 1.412 5.93 2.902 8.139 1.536 2.273 3.564 3.98 5.857 5.184 2.444 1.279 5.695 2.154 9.021 1.709 3.191-.426 5.681-1.541 7.827-3.213 3.141-2.445 5.338-5.891 6.064-10.471.248-1.564.139-3.324.156-5.287.043-5.111.022-10.729.052-16.07.015-2.895-.229-5.924.984-7.672 1.312-1.805 3.148-3.33 5.909-3.162 3.455.213 5.804 2.869 6.117 6.324.091.998.005 2.102.259 3.162.599.246 2.046.246 2.644 0 .351-.848.208-1.799.209-2.643zm-6.48.569c-.065-2.047-.906-3.375-2.437-3.834-1.28-.385-2.693.514-3.266 1.398-.344.531-.453 1.334-.519 2.178-.061.785-.256 1.754.207 2.332 1.785.158 3.897.227 5.702.053.467-.557.335-1.44.313-2.127zm3.525 22.965c.217 3.695 1.324 6.502 2.903 8.76 2.098 3.002 5.178 5.469 9.123 6.48 4.708 1.207 9.503.084 12.492-1.918 3.168-2.121 5.431-4.91 6.739-8.865 1.489-4.5.622-9.393-1.141-12.75-1.772-3.379-4.591-6.074-8.087-7.518-1.819-.752-4.121-1.365-6.479-1.295-2.442.072-4.88.051-7.412.051-5.029 0-10.28-.242-15.085-.104-.707.021-2.118-.078-2.488.207-.533.412-.433 1.621-.155 2.592.966.434 2.075.26 3.11.26 5.665 0 11.153-.104 16.743.053 2.282.062 4.574-.174 6.738.051 3.883.402 6.794 2.281 8.761 4.77 1.984 2.51 3.512 5.736 3.059 10.211-.4 3.955-2.312 6.678-4.769 8.762-2.325 1.971-6.066 3.504-10.315 2.695-3.563-.68-6.419-2.783-8.19-5.34-1.412-2.037-2.391-4.537-2.488-7.672-.031-.98.079-2.066-.26-3.162-.695-.213-2.135-.365-2.695.053-.289 1.263-.171 2.542-.104 3.679zm16.846 5.91c-3.91.398-6.733-2.316-7.257-5.6-.181-1.129.234-3.445-.311-3.99-.51-.512-2.449-.254-2.696.051-.341.422-.155 1.576-.155 2.229.001 2.623.596 4.328 1.504 5.754 1.298 2.043 3.021 3.584 5.391 4.303 6.099 1.854 11.111-2.723 12.026-7.359.494-2.51-.054-5.051-1.089-6.844-.992-1.719-2.471-2.918-4.303-3.99-1.867-.941-4.188-.881-6.635-.883-7.399 0-15.311-.193-22.652-.051-.659.371-.583 2.117-.156 2.695.995.357 2.122.207 3.214.207 3.374 0 6.693.103 10.057.103 3.272 0 6.855-.084 10.108.053 1.136.047 2.293-.096 3.266.104 1.685.342 3.247 1.527 4.095 2.799 1.656 2.482 1.582 6.393-.777 8.605-1.077.874-2.064 1.654-3.63 1.814zm-48.83-7.985c-.32.779-.129 1.957.052 2.385.555 1.305 2.247 2.359 3.888 1.814 1.141-.379 1.971-1.537 2.073-2.955.065-.889.124-2.053-.259-3.006-2.479-.745-5.106.186-5.754 1.762zm45.151-1.605c-.819.629-.119 3.889.104 4.354.215.451.861 1.135 1.399 1.4 2.253 1.107 4.342-1.049 4.303-2.904-.027-1.258-1.012-2.475-1.866-2.85-.698-.307-1.688-.207-2.747-.156-.38.017-.931-.047-1.193.156z" fill-rule="evenodd"/></svg>