<svg clip-rule="evenodd" fill-rule="evenodd" stroke-linejoin="round" stroke-miterlimit="2" viewBox="0 0 560 400" xmlns="http://www.w3.org/2000/svg"><path d="m179.5 195.3h15v384.9h178.6v-384.9h15.5v384.9h180.8v-421.6c.2-88.7-66.1-158.6-147.9-158.6h-268.3c-18.5 0-35.7 3-50.5 8.1-35.4 12.2-60 35.5-77 61.4-20.9 31.6-30.2 70.5-20 118.7 0 0 63.8 248.4 75.7 294.6 1.1 4.1-1.3 8.3-5.3 9.6-2.2.7-4.6.5-6.5-.7-2-1.1-3.4-3-4-5.2-6.4-25.6-24.6-99.4-24.6-99.4h-41v101.6c0 49.6 40.2 89.8 89.8 89.8s89.8-40.2 89.8-89.8v-293.4zm-87.3-17.6c9.3 0 16.8 7.5 16.8 16.8s-7.5 16.8-16.8 16.8-16.8-7.5-16.8-16.8 7.5-16.8 16.8-16.8z" transform="matrix(.465357 0 0 .465357 147.513 65)"/></svg>