<svg enable-background="new 0 0 76.374 38.091" viewBox="0 0 76.374 38.091" xmlns="http://www.w3.org/2000/svg"><g clip-rule="evenodd" fill-rule="evenodd"><path d="m38.394.199c-.083.559-.686 1.035-1.101 1.45-2.168 2.168-4.49 4.341-6.697 6.548-.886.886-1.736 1.796-2.75 2.5-3.437.018-6.736-.051-10.197-.051-1.116 0-2.267-.117-3.299.15.026 1.769 1.379 2.881 3.1 3.049 1.099.107 2.283-.004 3.449 0 1.076.004 2.161.05 3.249.05 2.285 0 4.495-.186 6.498.3 3.92.952 5.763 3.329 7.498 6.549.316-.668.2-1.517.199-2.35 0-2.432.082-5.257-.1-7.548-.903-.269-2.089-.15-3.249-.149-1.145 0-2.344.081-3.299-.101.092-.556.717-.994 1.149-1.399 2.233-2.094 4.546-4.296 6.748-6.498.881-.882 1.691-1.83 2.699-2.55 6.338-.004 12.849.101 19.296.101 2.172 0 4.435-.216 6.397.1 2.683.432 4.812 1.998 6.299 3.898.413.529 1.271 1.438 1.249 2.1-.016.466-.738.938-1.1 1.3-1.992 1.992-3.991 3.842-5.948 5.799-.778.778-1.459 1.7-2.499 2.199-.255-.774-.05-1.496-.15-2.149-.176-1.148-1.234-2.351-2.349-2.649-.861-.231-2.326-.058-3.55-.1-3.412-.118-7.761.01-10.797.1-.269.874-.149 2.058-.149 3.149 0 1.116-.1 2.231.05 3.148 1.04.31 2.42.256 3.749.2 1.231-.052 2.517.001 3.749 0 2.55-.002 5.179-.141 7.598.15-.089.544-.683.982-1.1 1.399-2.928 2.929-5.904 6.074-8.997 8.897-.811-.05-1.521.048-2.25.05-.866.002-1.76-.195-2.649 0-.411.09-.979.779-1.399 1.2-2.615 2.615-5.2 5.15-7.798 7.747-.414.414-.854.909-1.449 1.1-.372-3.014.089-6.382-.3-9.447-.61.068-.956.656-1.35 1.05-1.214 1.214-2.553 2.401-3.799 3.649-1.661 1.662-3.325 3.346-5.099 4.849-8.916-.047-18.28-.038-27.242-.2-.023-.485.459-.81.75-1.1 2.204-2.203 4.519-4.56 6.848-6.698.415-.447.782-.882 1.249-1.35.374-.373.871-.998 1.4-1.149.903-.259 2.194 0 3.299 0 3.249 0 7.098.08 10.047-.101.007-1.391-.866-2.431-1.85-2.799-1.295-.484-4.381-.2-6.048-.2-2.081.001-4.184.059-6.148-.05-5.174-.286-8.889-3.561-9.946-8.147-.171-.738-.216-1.735-.25-2.749-.033-.943-.146-2.066.1-2.899.149-.507.853-1.003 1.25-1.399.474-.475.89-.87 1.35-1.25 2.611-2.637 5.26-5.236 7.897-7.848.105.021.132-.034.2-.05 9.395.064 18.314.004 27.542.199z"/><path d="m76.132 9.147c.354.213.2.742.2 1.05.001 5.146-.001 9.79 0 15.345 0 .81.122 1.717-.05 2.35-.151.558-.746.946-1.199 1.399-.479.479-.895.96-1.3 1.3-2.282 2.195-4.576 4.477-6.849 6.748-.285.285-.558.784-1.049.75-.174-5.093-.051-10.839-.051-16.445 0-.858-.109-1.765.051-2.399.213-.846 1.856-1.984 2.449-2.6.852-.884 1.63-1.665 2.549-2.449 1.692-1.723 3.374-3.457 5.198-5.048.019-.001.035-.001.051-.001z"/></g></svg>