<svg enable-background="new 0 0 82.372 59.289" viewBox="0 0 82.372 59.289" xmlns="http://www.w3.org/2000/svg"><path clip-rule="evenodd" d="m22.399 1.699c.629-.286.636-1.195 1.156-1.59.629-.058 1.663-.128 2.216.049.579.32.567 1.231 1.156 1.541.634-.329.651-1.275 1.253-1.638.697.025 1.498-.054 2.119.048.478.115.598 1.538 1.107 1.59.622.065.637-1.339 1.204-1.59.619-.062 1.623-.12 2.168.049.582.317.572 1.227 1.156 1.541.646-.285.636-1.227 1.204-1.59.628-.176 1.562-.086 2.216 0 .495.404.562 1.237 1.108 1.59.617-.329.637-1.257 1.204-1.638.612-.064 1.579-.115 2.119.048.601.314.622 1.209 1.156 1.59.654-.277.66-1.202 1.204-1.59.616-.163 1.589-.113 2.216 0 1.112 1.547 2.001 3.241 2.938 4.914 1.855 3.31 3.88 6.587 5.781 9.923.954 1.676 2.004 3.273 2.793 5.01.373.821.917 1.646 1.397 2.457 3.297 5.575 6.658 11.413 9.923 17.052 3.302 5.702 6.563 11.347 9.875 17.101.455.791 1.137 1.521 1.301 2.457-.349.139-1.032.182-1.445.096-.63-.365-.857-1.103-1.204-1.686-2.465-4.144-4.798-8.545-7.322-12.717-1.442-2.385-2.817-4.849-4.19-7.273-2.07-3.655-4.095-7.241-6.263-10.887-1.447-2.435-2.662-4.872-4.094-7.37-2.072-3.614-4.268-7.189-6.311-10.887-1.009-1.826-2.093-3.617-3.131-5.443-.34-.597-.622-1.247-1.108-1.733-.692.527-1.079 1.36-1.396 2.264.396 1.113 1.042 2.115 1.638 3.131 2.894 4.936 5.696 10.096 8.622 15.077.585.995 1.116 2.017 1.687 3.035.56 1.002 1.235 1.962 1.733 2.986 1.316 2.706 2.906 5.274 4.384 7.899 3.67 6.523 7.38 12.978 11.079 19.558.733 1.305 1.643 2.531 2.168 3.95-.32.184-.966.168-1.397.096-2.839-4.445-5.176-9.246-7.948-13.824-2.035-3.363-3.971-6.931-5.925-10.405-.658-1.171-1.432-2.288-1.975-3.468-1.059-2.3-2.409-4.464-3.661-6.695-3.091-5.514-6.271-10.913-9.345-16.475-.603-1.09-1.16-2.229-1.975-3.18-.393.165-.571.606-.819 1.012-.197.322-.573.845-.578 1.204-.006.408.661 1.335.963 1.879 4.393 7.903 8.874 15.57 13.344 23.459.694 1.226 1.411 2.403 1.975 3.661.437.973 1.091 1.896 1.639 2.842 3.527 6.093 6.995 12.301 10.501 18.449.262.461.661.887.674 1.445-.258.176-.966.104-1.301.048-2.04-3.203-3.837-6.582-5.78-9.923-.95-1.636-1.899-3.339-2.842-5.01-2.379-4.217-4.602-8.381-7.081-12.62-2.91-4.977-5.678-10.075-8.574-15.078-1.089-1.881-2.103-3.747-3.227-5.636-.354-.595-.62-1.299-1.156-1.782-.385.165-.589.597-.819 1.012-.19.343-.565.856-.577 1.204-.018.506.774 1.538 1.107 2.119 4.324 7.537 8.496 14.953 12.861 22.496 1.547 2.673 3.324 5.441 4.576 8.237.566 1.263 1.451 2.47 2.168 3.709 1.431 2.473 2.774 4.978 4.191 7.466.711 1.251 1.608 2.403 2.071 3.758-.312.169-1.061.108-1.445.048-2.297-3.776-4.49-7.638-6.647-11.513-.278-.498-.459-1.051-.723-1.541-1.806-3.358-3.881-6.714-5.781-10.067-3.824-6.751-7.615-13.471-11.513-20.184-.542-.935-.988-1.978-1.733-2.794-.688.516-.982 1.426-1.397 2.216 1.55 3.121 3.392 6.085 5.106 9.104 4.27 7.519 8.547 15.057 12.861 22.641.859 1.511 1.873 2.944 2.602 4.479.327.691.588 1.324.963 1.976.692 1.199 1.385 2.469 2.12 3.709.359.606.811 1.222.963 1.927-.245.23-.966.153-1.349.096-2.258-3.39-3.842-7.173-5.974-10.646-2.116-3.448-4.002-7.042-6.02-10.549-3.528-6.131-7-12.32-10.55-18.449-.503-.868-.88-1.825-1.59-2.554-.681.54-1.014 1.428-1.396 2.265 1.796 3.377 3.731 6.678 5.636 9.972 1.908 3.301 3.757 6.619 5.636 9.923 1.417 2.489 2.831 4.961 4.239 7.466 1.393 2.477 2.842 4.944 4.239 7.467.918 1.658 2.021 3.239 2.745 5.01-.281.137-.894.197-1.252.096-.457-.188-.598-.716-.819-1.108-.65-1.148-1.387-2.363-2.071-3.564-2.735-4.801-5.438-9.625-8.188-14.451-3.197-5.609-6.381-11.196-9.538-16.859-.433-.778-.921-1.58-1.493-2.265-.386.166-.583.6-.819 1.012-.193.339-.566.852-.577 1.204-.019.579.85 1.676 1.204 2.312 3.76 6.765 7.616 13.487 11.464 20.135.432.746.823 1.517 1.253 2.265 1.679 2.921 3.421 5.99 5.106 8.959.426.752.932 1.473 1.156 2.312-3.281.279-6.585.121-9.924.097-9.793-.07-20.166.344-30.155-.049-.37-.119-.516-.557-.723-.915-.175-.304-.531-.726-.529-1.06.005-.666.799-.983.771-1.733-.271-.404-1.295-.056-1.783-.241-.32-.157-.512-.575-.723-.915-.178-.29-.527-.747-.529-1.061-.006-.649.772-.942.771-1.686-.29-.399-1.319-.062-1.831-.241-.287-.223-.415-.604-.625-.963-.174-.296-.527-.69-.531-1.012-.004-.655.766-.927.772-1.687-.285-.404-1.318-.062-1.83-.24-.252-.506-1.156-1.308-1.156-2.023 0-.709.815-1.057.771-1.782-.347-.409-1.22.002-1.782-.192-.277-.21-.479-.578-.675-.915-.187-.322-.521-.73-.53-1.06-.02-.692.789-1.013.819-1.782-.416-.4-1.353-.081-1.83-.24-.345-.114-.526-.522-.723-.867-.192-.338-.513-.7-.53-1.059-.033-.722.752-1.066.771-1.734-.297-.394-1.312-.069-1.831-.241-.281-.469-1.149-1.256-1.159-1.98-.007-.552.755-1.605 1.108-2.216 5.962-10.3 12.065-21.145 18.064-31.215.655-.107 1.499-.036 2.119.048.507.392.551 1.249 1.108 1.59zm21.099 2.89c.222-.37.602-.874.578-1.301-.02-.367-.386-.833-.578-1.156-.229-.386-.382-.857-.771-1.011-.394.301-1.372 1.87-1.349 2.312.021.373.39.851.578 1.204.204.385.393.857.771 1.012.339-.218.528-.654.771-1.06zm-23.411-3.324c-.43.561-.795 1.325-1.203 2.023-4.389 7.501-8.707 15.023-12.959 22.496-1.171 2.059-2.442 4.063-3.565 6.117-.371.681-.923 1.319-1.012 2.119.75.225 1.607.059 2.506.097.928-1.109 1.531-2.465 2.264-3.757 2.187-3.861 4.455-7.624 6.695-11.513 2.152-3.735 4.396-7.748 6.649-11.513.357-.599.593-1.294 1.011-2.023.323-.564 1.079-1.463 1.06-1.976-.023-.605-1.082-1.83-1.301-2.167-.057.025-.109.053-.145.097zm3.228 2.168c.012.368.393.867.578 1.204.207.381.393.859.77 1.012.391-.185.526-.644.771-1.06.199-.339.632-.798.626-1.204-.004-.345-.393-.885-.578-1.204-.229-.396-.45-.845-.819-1.012-.399.185-1.356 2.013-1.348 2.264zm6.647 1.156c.201-.34.569-.768.578-1.156.011-.438-.367-.825-.578-1.204-.227-.409-.35-.917-.77-1.06-.338.224-1.35 1.812-1.35 2.216 0 .39.383.895.578 1.252.213.389.432.945.818.964.333-.214.502-.637.724-1.012zm4.528.048c.207-.353.584-.881.578-1.252-.006-.378-.389-.838-.578-1.156-.238-.4-.404-.809-.723-1.06-.031 0-.063 0-.096 0-.595.609-.982 1.426-1.35 2.264.398.79.685 1.691 1.35 2.216.361-.176.59-.618.819-1.012zm2.361-1.204c.009.344.382.853.578 1.204.158.284.488.994.819.964.258-.023.655-.812.771-1.012.201-.35.578-.841.578-1.204 0-.387-.404-.911-.578-1.204-.236-.399-.462-.832-.771-1.012-.383.093-1.405 1.936-1.397 2.264zm4.336 5.058c.222-.384.642-.803.626-1.252-.012-.323-.339-.717-.578-1.108-.252-.411-.438-.954-.77-1.012-.289.021-1.355 1.823-1.349 2.217.006.398.391.857.578 1.204.22.406.362.905.771 1.06.388-.199.477-.686.722-1.109zm-19.028-3.227c-4.787 8.375-9.496 16.812-14.355 25.048-.695 1.18-1.474 2.361-1.975 3.661.681.341 1.671.078 2.601.145.469-.426.703-1.052 1.012-1.59.969-1.692 1.9-3.34 2.89-5.01 3.583-6.049 7.047-12.288 10.501-18.449.291-.519.916-1.277.916-1.733 0-.352-.331-.776-.578-1.205-.24-.413-.48-1.021-.867-1.012-.071.027-.117.075-.145.145zm5.539 3.276c.2-.349.587-.878.578-1.253-.008-.356-.396-.848-.578-1.156-.229-.391-.4-.832-.771-1.012-.663.542-1.009 1.4-1.397 2.217.414.807.695 1.746 1.397 2.264.338-.22.537-.652.771-1.06zm2.362-1.205c.004.337.4.87.577 1.204.144.27.468 1.058.771 1.06.331.002.598-.761.771-1.06.183-.317.626-.822.626-1.204 0-.367-.416-.927-.578-1.205-.243-.416-.474-.875-.819-1.012-.25.17-1.356 1.743-1.348 2.217zm6.646 1.205c.204-.352.589-.86.578-1.253-.009-.328-.324-.737-.578-1.157-.23-.381-.469-1.017-.819-1.012-.331.328-1.293 1.752-1.3 2.217-.006.423.365.826.578 1.204.224.398.357.919.771 1.06.326-.231.537-.656.77-1.059zm-6.166 2.697c-.369-.598-.777-1.896-1.445-2.168-.287.289-1.295 1.811-1.301 2.216-.004.383.389.901.578 1.253.221.407.414.885.82 1.012.602-.619 1.012-1.428 1.348-2.313zm3.902 1.252c.241-.411.638-.857.578-1.349-.034-.276-.363-.739-.578-1.107-.22-.376-.531-.949-.819-.964-.32.283-1.302 1.848-1.301 2.265.002.384.389.86.578 1.204.228.41.375.897.771 1.06.378-.221.516-.675.771-1.109zm4.529 0c.211-.365.597-.819.577-1.252-.017-.379-.401-.913-.577-1.204-.105-.174-.495-.987-.819-.964-.32.024-.649.854-.819 1.156-.171.305-.536.786-.529 1.108.008.358.386.859.578 1.204.229.412.431.852.818 1.012.372-.266.53-.645.771-1.06zm-15.609-1.397c-.355.6-.705 1.261-1.059 1.879-.738 1.284-1.616 2.514-2.168 3.66-.127.265-.169.569-.289.819-.669 1.39-1.596 2.728-2.408 4.095-2.041 3.431-4.042 6.915-5.974 10.309-.386.678-.883 1.381-1.012 2.167.661.179 1.815.105 2.554.049 2.187-3.55 4.321-7.377 6.599-11.273.55-.938.972-1.964 1.542-2.938 1.373-2.349 2.751-4.685 4.094-7.081.261-.464.783-1.096.772-1.493-.009-.299-.342-.75-.578-1.156-.25-.428-.479-.982-.819-1.011-.488.481-.817 1.242-1.254 1.974zm8.817 5.347c.2-.353.587-.787.577-1.204-.008-.333-.333-.781-.577-1.204-.235-.406-.493-.976-.819-1.012-.371.322-1.315 1.856-1.3 2.265.013.366.395.887.577 1.204.228.396.404.89.818 1.011.344-.224.491-.651.724-1.06zm4.479 0c.209-.35.64-.772.626-1.204-.011-.357-.395-.876-.578-1.204-.225-.403-.44-.85-.819-1.012-.373.178-1.348 2.013-1.348 2.216 0 .357.388.92.577 1.253.218.382.451.852.819 1.011.369-.206.479-.652.723-1.06zm-9.923-3.228c-.297.232-.541.79-.819 1.253-.791 1.314-1.562 2.669-2.265 3.854-1.579 2.67-2.924 5.206-4.383 7.804-1.464 2.606-3.078 5.196-4.384 7.851.548.368 1.71.12 2.554.193.994-1.206 1.595-2.805 2.504-4.095.629-1.552 1.477-2.803 2.265-4.191 2.007-3.533 4.111-6.915 6.021-10.501-.37-.834-.718-1.691-1.349-2.264-.056.024-.108.052-.144.096zm7.707 7.13c.209-.355.598-.771.578-1.204-.018-.387-.405-.859-.578-1.156-.103-.179-.473-1.008-.77-1.012-.323-.005-1.33 1.914-1.35 2.119-.055.605.358.823.578 1.253.23.396.298.955.819 1.06.352-.278.484-.653.723-1.06zm-5.492-3.275c-2.236 3.733-4.367 7.518-6.502 11.271-.705 1.239-1.596 2.421-2.217 3.709-.128.268-.166.562-.289.819-.181.38-.58.708-.529 1.204.642.176 1.658.181 2.408.097 1.521-2.201 2.84-4.765 4.384-7.37 1.055-1.781 2.145-3.741 3.228-5.588.289-.493 1.018-1.474 1.012-1.976-.008-.572-1.031-1.908-1.301-2.167-.012-.124-.083.066-.194.001zm.289 7.225c-.604 1.089-1.234 2.207-1.83 3.276-1.24 2.226-2.729 4.276-3.66 6.503.591.28 1.855.129 2.601.097.682-.747 1.106-1.741 1.638-2.698 1.265-2.278 2.645-4.54 3.998-6.84.248-.422.727-1.072.723-1.445-.003-.315-.327-.776-.578-1.204-.229-.392-.528-.965-.818-1.012-.716.871-1.447 2.196-2.074 3.323zm2.794 2.987c-.85 1.5-1.714 2.993-2.552 4.479-.434.767-1.007 1.466-1.205 2.313.756.267 1.615.136 2.457.144 2.142.023 4.017 0 6.117 0 .671 0 1.371.108 1.975-.144-.257-.834-.714-1.632-1.156-2.409-1.091-1.915-2.142-3.769-3.275-5.731-.21-.363-.568-1.034-.867-1.012-.553.624-1.037 1.553-1.494 2.36zm-25.626 8.236c-.462.001-.981-.089-1.35 0-.46.113-.655.709-.914 1.156-.258.444-.61.863-.578 1.253.715.226 1.867.137 2.697.048.521-.683 1.031-1.377 1.301-2.312-.281-.229-.74-.145-1.156-.145zm3.035.097c-.482.675-1.137 1.433-1.253 2.312.595.108 1.888.338 2.505.048.318-.149.574-.736.771-1.06.254-.417.587-.844.53-1.252-.576-.243-1.905-.192-2.553-.048zm4.624-.048c-.361.13-.604.711-.819 1.059-.269.437-.607.852-.578 1.252.527.345 1.809.178 2.553.145.525-.681 1.039-1.37 1.301-2.312-.649-.177-1.784-.386-2.457-.144zm4.432.048c-.573.663-1.116 1.357-1.349 2.36.617.249 1.957.184 2.648.049.176-.243.312-.524.386-.867.212-.466.733-.868.675-1.445-.56-.238-1.662-.155-2.36-.097zm21.243 0c-4.035-.018-8.433-.072-12.38.049-.532.656-1.163 1.468-1.301 2.36.685.287 1.554.096 2.312.096 3.296 0 6.864.073 10.116.048.88-.006 1.792.022 2.602-.192-.261-.976-.772-1.702-1.349-2.361zm-15.463 0c-.443 0-.944-.087-1.301 0-.373.091-.678.706-.915 1.108-.263.446-.552.907-.578 1.252.585.314 1.733.065 2.554.144.617-.634 1.077-1.427 1.396-2.36-.279-.228-.744-.144-1.156-.144zm-15.607 3.806c-.449 0-.949-.088-1.301 0-.422.106-.654.731-.914 1.156-.277.451-.629.909-.578 1.301.6.26 1.805.141 2.553.096.522-.73 1.062-1.441 1.348-2.408-.264-.226-.708-.145-1.108-.145zm3.083.047c-.569.652-1.206 1.49-1.398 2.36.497.376 1.828.157 2.554.145.52-.7 1.179-1.517 1.349-2.408-.563-.282-1.788-.125-2.505-.097zm4.479.049c-.62.632-1.092 1.413-1.396 2.36.618.254 1.777.207 2.553.145.521-.7 1.168-1.529 1.35-2.409-.569-.276-1.786-.129-2.507-.096zm26.542 1.108c-.229-.4-.467-.868-.867-1.107-5.532-.04-11.278-.029-16.763.048-.41.204-.58.706-.819 1.108-.228.386-.633.818-.577 1.3.737.262 1.562.145 2.359.145h12.332c1.66 0 3.328.114 4.913-.145-.053-.515-.355-.961-.578-1.349zm-22.061-1.108c-.586.143-.644.892-.916 1.396-.195.363-.484.657-.481 1.012.533.312 1.718.195 2.456.144.536-.702 1.187-1.54 1.349-2.457-.728-.051-1.727-.261-2.408-.095zm-11.225 3.902c-.682.618-1.115 1.485-1.444 2.457.667.27 1.874.153 2.601.097.516-.737 1.055-1.451 1.35-2.409-.571-.314-1.702-.066-2.507-.145zm4.432.047c-.375.259-.543.752-.77 1.156-.219.389-.647.786-.53 1.301.592.233 1.844.19 2.505.049.502-.688 1.14-1.492 1.301-2.36-.502-.358-1.78-.167-2.506-.146zm4.48.049c-.576.692-1.103 1.434-1.349 2.457.601.26 1.806.141 2.553.096.388-.263.47-.754.675-1.156s.538-.798.578-1.3c-.568-.262-1.742-.14-2.457-.097zm25.772 0c-7.298-.076-14.336-.047-21.389.048-.574.679-1.073 1.431-1.348 2.409.533.255 1.168.144 1.734.144 6.812-.001 13.721.002 20.665 0 .6 0 1.262.113 1.83-.144-.375-.94-.75-1.883-1.492-2.457zm-32.516 3.95c-.592.628-1.071 1.368-1.348 2.312.613.282 1.838.113 2.553.145.517-.672 1.137-1.495 1.301-2.36-.658-.283-1.683-.08-2.506-.097zm4.481.048c-.594.626-1.074 1.366-1.35 2.312.61.289 1.718.081 2.554.144.595-.641 1.083-1.389 1.349-2.36-.597-.263-1.808-.138-2.553-.096zm4.383.048c-.538.618-.899 1.413-1.203 2.265.822.33 1.861.192 2.842.192 7.543-.001 15.147-.068 22.64-.049 1.012.003 2.098.214 3.083-.096-.242-.979-.746-1.694-1.301-2.36-8.308-.034-17.343-.021-26.061.048zm-6.696 3.806c-.525.695-1.075 1.365-1.301 2.36.611.265 1.842.138 2.601.097.528-.692 1.048-1.393 1.301-2.36-.679-.216-1.793-.159-2.601-.097zm35.742 1.156c-.247-.408-.456-.94-.915-1.108-10.209-.092-20.065-.018-30.3 0-.508.696-.947 1.461-1.155 2.457 1.312.292 2.687.098 4.046.144 8.977.312 18.289-.001 27.024 0 .621 0 1.356.15 1.927-.192-.003-.468-.379-.893-.627-1.301zm-33.429 2.794c-.648.604-1.094 1.411-1.397 2.36.686.231 1.461.192 2.167.192 11.54.002 23.841.152 35.405-.096-.125-.938-.805-1.73-1.301-2.457-12.015-.1-23.296-.014-34.874.001z" fill-rule="evenodd"/></svg>