<svg clip-rule="evenodd" fill-rule="evenodd" stroke-linejoin="round" stroke-miterlimit="2" viewBox="0 0 560 400" xmlns="http://www.w3.org/2000/svg"><path d="m482.7 221.8c-17.7 0-34.7 3.6-50.1 10.1 29.7-23.9 48.7-60.5 48.7-101.7.1-71.9-58-130.2-129.5-130.2-28.1 0-54.2 9-75.4 24.3 0 0-216.4 125.9-224.1 131.6-31.8 23.8-52.3 61.7-52.3 104.5 0 71.9 58 130.2 129.6 130.2 17.7 0 34.7-3.6 50.1-10.1-29.7 23.8-48.7 60.5-48.7 101.7 0 71.9 58 130.2 129.6 130.2 28.1 0 54.2-9 75.4-24.3 0 0 216.4-125.9 224.1-131.6 31.7-23.7 52.2-61.7 52.2-104.5.1-71.9-58-130.2-129.6-130.2zm-210.9-171.9c21.4-21.4 49.7-33.3 79.9-33.3s58.6 11.8 79.9 33.3 33.1 50 33.1 80.3-11.7 58.8-33 80.3-49.7 33.3-79.9 33.3-58.6-11.8-79.9-33.3-33.1-50-33.1-80.3 11.7-58.8 33-80.3zm68.7 512.6c-21.4 21.4-49.7 33.3-79.9 33.3s-58.6-11.8-79.9-33.3c-21.4-21.4-33.1-50-33.1-80.3s11.8-58.8 33.1-80.3 49.7-33.3 79.9-33.3 58.6 11.8 79.9 33.3 33.1 50 33.1 80.3c.1 30.3-11.7 58.8-33.1 80.3z" fill-rule="nonzero" transform="matrix(.440888 0 0 .440888 145.022 65)"/></svg>