<svg fill="none" viewBox="0 0 130 91" xmlns="http://www.w3.org/2000/svg"><path clip-rule="evenodd" d="m42.7714.144909c-7.4153.998501-13.7008 4.126681-19.1109 9.510921-3.1907 3.17527-4.9396 5.60837-6.7599 9.40447-4.0082 8.3594-4.5564 17.231-1.6151 26.1434 1.7452 5.2878 4.2989 9.3748 8.5807 13.7328 2.4558 2.4997 2.6368 2.4117-5.2394 2.5448l-6.4141.1084-.2558.542c-.1408.2981-2.51457 5.8098-5.27494 12.2482-2.76037 6.4385-5.43167 12.6602-5.935981 13.8258-.74336152 1.7178-.866492 2.18-.6503603 2.4388.3807413.4555 19.6720813.4824 20.0517813.028.1834-.2194-.1107-1.8518-1.1929-6.6212-1.1461-5.0524-1.383-6.3938-1.1723-6.6459.2233-.2671 1.6655-.3157 9.3886-.3157 5.0184 0 9.2799.0592 9.4698.1316.19.0724.3454.3254.3454.5623 0 .2368-.849 3.1441-1.8867 6.4604-1.0376 3.3164-1.8264 6.1859-1.7526 6.3769.1209.3128 1.149.3416 10.3464.2909l10.2123-.0563.0705-.4943c.0389-.2719-.7844-3.1917-1.8295-6.4885-1.393-4.394-1.8425-6.0852-1.6843-6.3345.19-.2989 1.3634-.3468 9.7151-.3965 8.3874-.0498 9.5318-.0169 9.7815.2819.2374.284-.0249 1.3286-1.6284 6.4861-1.0514 3.3812-1.8766 6.3273-1.834 6.5467.0738.3808.5464.3991 10.3352.3991 10.1228 0 10.2586-.0059 10.3208-.4377.0347-.2407-.7748-3.0697-1.7989-6.2867-1.0243-3.2169-1.8631-6.0667-1.8644-6.3327-.0013-.3228.1613-.5231.4893-.6022.27-.0653 4.5575-.0915 9.5274-.0584 8.1813.0547 9.0583.0948 9.2673.4241.178.2807-.207 1.7587-1.682 6.458-1.053 3.3518-1.8816 6.2609-1.8421 6.4648.0664.3426.8531.3751 10.3561.4271 8.42.046 10.328.0033 10.528-.2365.186-.2224-.012-1.0941-.827-3.6333-.59-1.8372-2.605-8.1205-4.477-13.9628-1.873-5.8423-3.499-10.8419-3.615-11.1101l-.21-.4878h-6.118-6.1169v-7.0669c0-8.1666.0231-8.2883 1.7129-9.0307 2.156-.9472 5.042-.1475 8.33 2.3083 3.498 2.6135 7.308 4.0829 11.243 4.3369 4.811.3107 8.211-.6943 9.246-2.7332.44-.8649.536-1.4459.632-3.7971.094-2.2817.056-2.8232-.208-3.0415-.244-.2005-3.15-.2794-11.873-.3217l-11.551-.0562v-1.4091-1.409l11.551-.0562c8.087-.0392 11.638-.1286 11.843-.2974.387-.3191.414-4.3177.031-4.6975-.198-.1964-3.372-.2601-12.946-.2601s-12.748-.0638-12.946-.2602c-.144-.1431-.262-.7089-.262-1.2573 0-.5485.118-1.1143.262-1.2574.198-.1964 3.4-.2601 13.076-.2601 11.482 0 12.827-.0356 12.946-.343.255-.662.146-5.8433-.13-6.1171-.41-.4076-25.315-.3603-27.272.0515-4.3672.9192-7.7879 4.4671-8.478 8.7932-.1238.775-.2255 3.8217-.2264 6.7704l-.0018 5.3612-.5444.1357c-.2996.0746-4.9907.0885-10.4246.0306-10.5668-.1123-11.9346-.2252-16.7569-1.3839-6.0635-1.457-10.041-3.8111-12.4287-7.3559-2.603-3.8646-3.121-9.1181-1.2854-13.0339.7276-1.5522 2.6451-3.3571 4.2189-3.9712 1.0527-.4109 1.735-.513 3.4915-.5231 2.017-.0115 2.2956.0405 3.6587.6815 1.9673.9255 3.7018 2.5821 4.5899 4.3845.667 1.3533.7023 1.5506.7023 3.9181 0 2.3727-.0343 2.5626-.7095 3.9331-.7964 1.6163-.8643 2.0315-.3642 2.222.19.0724 2.2902.1316 4.667.1316 3.379 0 4.3754-.0644 4.5684-.295.179-.2144.2312-4.2928.1904-14.9039-.0557-14.50494-.0592-14.60921-.5002-14.67186-.2495-.03555-2.0268.82746-4.0534 1.96839l-3.6094 2.03148-1.132-1.03363c-3.5207-3.21468-9.4465-6.06689-14.8626-7.153842-2.4543-.4927487-8.0847-.707579-10.3922-.396929z" fill="#000" fill-rule="evenodd"/></svg>