<svg fill="none" viewBox="0 0 130 168" xmlns="http://www.w3.org/2000/svg"><path clip-rule="evenodd" d="m63.6466.481744c-.1393.270998-.3393 2.185436-.444 4.254366-.4419 8.71559-1.9595 12.36999-5.6249 13.54539-1.4692.4714-4.0872.2063-5.4329-.5501-1.389-.7807-2.0478-1.7574-4.4457-6.5935-1.7118-3.45232-2.058-3.97265-2.6427-3.97265-.3701 0-.788.18995-.929.42211-.3832.63205 6.0073 24.93274 6.7528 25.67844.5563.5561.587.5564 4.0365.0369 4.829-.7272 14.7645-.7264 19.4793.0017l3.3397.5158.6284-.6641c.4857-.5131 1.3443-3.4316 3.7799-12.8504 1.852-7.1622 3.0778-12.4192 2.9726-12.75042-.1309-.41198-.3802-.54031-.9287-.47671-.6621.07655-.9956.5814-2.8602 4.32983-1.1609 2.3337-2.331 4.5574-2.6006 4.9418-1.2021 1.7141-4.8104 2.6864-7.1374 1.9234-3.6572-1.199-5.1512-4.8667-5.6147-13.78175-.1086-2.08948-.3233-3.957201-.477-4.150811-.4103-.515826-1.5584-.4285887-1.8514.140705zm-6.865 37.350556c-6.5619.9325-10.6795 2.0641-11.3749 3.1253-.4367.6669-.4198.8093.3256 2.7322 1.8869 4.867 4.6309 9.6912 7.8773 13.848 3.1115 3.9839 11.1013 11.4525 12.6744 11.8473 1.4313.3591 7.0001-3.6856 11.526-8.3716 4.6124-4.7753 8.0532-9.9566 10.2966-15.5044 1.1045-2.7319.9894-3.4214-.6957-4.1668-2.0056-.8873-7.6873-2.423-11.43-3.0893-4.4981-.8009-14.9193-1.0292-19.1993-.4207zm-21.4148 6.7077c-6.6033 3.3904-11.6763 7.1785-17.0765 12.7518-11.89637 12.2771-18.2903 28.1059-18.2903 45.2782 0 17.703 7.08592 34.247 20.0094 46.716 6.2426 6.024 12.829 10.305 20.7301 13.475 7.9986 3.21 15.5786 4.668 24.2664 4.668 10.2028 0 19.7623-2.209 28.6563-6.621 19.9068-9.874 33.0278-28.24 35.9378-50.304.482-3.653.539-11.4385.113-15.3386-.807-7.3847-3.05-14.94-6.492-21.8687-1.47-2.957-1.936-3.5176-2.928-3.5176-.998 0-1.476.8513-2.102 3.7402-2.182 10.0712-5.714 16.6781-10.89 20.3716-4.382 3.1268-7.6358 3.2678-21.7522.9419-11.1542-1.8379-15.6875-2.2029-21.4173-1.7245-4.1227.3442-4.4257.4309-4.7829 1.3705-.4806 1.2644.2291 1.8351 3.7333 3.0018 6.1226 2.0385 11.7061 5.2994 17.278 10.0904 7.3282 6.301 11.1407 12.317 11.5803 18.273.3732 5.052-1.5306 8.715-6.3914 12.301-2.0717 1.528-3.6882 2.133-7.2387 2.709-8.8951 1.444-18.9108-1.111-25.6821-6.551-11.7832-9.468-14.6052-27.059-6.8974-42.996 3.0213-6.2464 8.2974-13.0383 13.1546-16.933 1.6158-1.2959 1.8995-1.6547 1.8995-2.4041 0-.7176-.2983-1.1451-1.6108-2.3095-8.4722-7.5162-14.1102-15.2404-17.3943-23.8293-.8082-2.114-1.5593-3.05-2.4567-3.0612-.273-.0034-2.0532.793-3.9561 1.7701zm34.7118 1.7453c2.0303 1.0496 2.8256 3.9498 1.6547 6.0331-1.7853 3.1769-6.2578 3.14-7.8928-.0647-2.0337-3.9862 2.2133-8.0497 6.2381-5.9684z" fill="#000" fill-rule="evenodd"/></svg>