<svg clip-rule="evenodd" fill-rule="evenodd" stroke-linejoin="round" stroke-miterlimit="2" viewBox="0 0 560 400" xmlns="http://www.w3.org/2000/svg"><g fill-rule="nonzero" transform="matrix(.511945 0 0 .511945 130 50.0256)"><path d="m404 196.2h-20.3c4.2 39.8 14.2 78.6 29.8 115.6 20.5 48.6 49.9 92.2 87.4 129.6 9 9 18.3 17.5 28 25.5 4-5.4 7.9-11 11.5-16.8-6.2-5.2-12.3-10.6-18.2-16.3-66.8-63.2-108.2-147-118.2-237.6zm63.6 278.5c-41.7-41.7-74.5-90.4-97.4-144.5-18.1-42.8-29.4-87.7-33.8-133.9h-20.3s.1 1.2.2 2.3c4.5 48 16.4 94.9 35.2 139.5 23.9 56.6 58.2 107.4 101.8 151 9.5 9.5 19.4 18.6 29.6 27.2 5.2-4.4 10.2-9 15.1-13.8-10.6-8.8-20.7-18.1-30.4-27.8z"/><path d="m30.9 399.9c63.3-60.3 100.8-141.4 105.4-228.4l1.2-22.3h310.4l1.2 22.3c4.6 87 42.1 168.2 105.4 228.4 2.7 2.6 5.5 5.1 8.3 7.6 15-35.2 23.2-73.9 23.2-114.5 0-161.8-131.2-293-293-293s-293 131.2-293 293c0 40.5 8.2 79 23.1 114.1 2.6-2.3 5.2-4.7 7.8-7.2z"/><path d="m201.7 196.2h-20.4c-10 90.6-51.5 174.3-118.1 237.7-5.8 5.5-11.7 10.8-17.8 15.9 3.6 5.7 7.5 11.3 11.5 16.8 9.5-7.9 18.7-16.3 27.6-25.2 37.4-37.4 66.8-81 87.4-129.6 15.7-36.9 25.7-75.7 29.8-115.6zm218.3 326c-47.9-47.9-85.5-103.7-111.8-165.9-5.8-13.7-11-27.5-15.5-41.6-4.6 14-9.8 27.9-15.5 41.6-26.3 62.2-63.9 118-111.8 165.9-7.6 7.6-15.3 14.9-23.3 21.9 44.1 26.6 95.7 41.8 151 41.8 55.1 0 106.6-15.2 150.6-41.6-8.2-7-16-14.4-23.7-22.1zm-150.9-323.6c.1-1.2.2-1.3.2-2.3h-20.3c-4.3 46.2-15.7 91.1-33.8 133.9-22.9 54.2-55.7 102.8-97.4 144.5-9.6 9.6-19.6 18.8-30 27.5 4.9 4.8 9.9 9.4 15 13.8 10.1-8.5 19.8-17.5 29.2-26.9 43.6-43.6 77.8-94.4 101.8-151 18.9-44.6 30.7-91.5 35.3-139.5z"/></g></svg>