<svg enable-background="new 0 0 31.801 32.067" viewBox="0 0 31.801 32.067" xmlns="http://www.w3.org/2000/svg"><path d="m14.549.056c4.516-.394 9.165 1.297 12.373 4.501.673.786 1.406 1.529 1.969 2.402 2.578 3.614 3.518 8.338 2.518 12.663-.676 3.047-2.339 5.831-4.567 8-4.581 4.624-12.235 5.812-17.989 2.752-3.416-1.721-6.183-4.698-7.649-8.23-2.134-5.027-1.384-11.133 1.85-15.524 2.645-3.709 6.936-6.226 11.495-6.564zm1.113 1.523c-3.561.048-7.069 1.506-9.618 3.992-3.92 3.608-5.493 9.504-3.921 14.591 1.438 4.806 5.515 8.74 10.398 9.921 4.777 1.22 10.101-.311 13.559-3.815 2.091-2.2 3.601-5.009 4.031-8.033.456-3.019-.083-6.17-1.496-8.877-.488-.991-1.181-1.857-1.821-2.751-2.705-3.242-6.923-5.091-11.132-5.028z"/><path d="m15.991 4.217c1.15-.246 2.427.171 3.126 1.137.489.672.679 1.533.582 2.354-.093.527-.435 1.094-1.003 1.189-.597.134-1.222-.393-1.211-1.001-.044-.486.334-.864.727-1.081-.198-1.216-1.847-1.683-2.713-.854-.57.499-.805 1.291-.807 2.029-.024 2.165.012 4.331-.019 6.497-.484.001-.968-.042-1.445-.132.019-2.241-.013-4.484.018-6.725.057-1.555 1.121-3.188 2.745-3.413z"/><path d="m5.5 12.883c-.852-1.914.73-4.49 2.869-4.434 1.016.023 2.206.555 2.447 1.631.162.684-.523 1.388-1.213 1.21-.562-.187-.858-.79-.804-1.358-1.132-.289-2.279.758-2.116 1.908.197 1.13 1.281 1.797 2.237 2.255 1.785.825 3.77 1.007 5.702 1.191-.206.478-.584.852-.831 1.308-2.427-.175-5.01-.582-7.009-2.085-.564-.412-.991-.994-1.282-1.626z"/><path d="m21.845 8.86c.867-.34 1.873-.482 2.758-.12 1.212.512 2.007 1.809 2.062 3.104.027 1.406-1.134 2.713-2.519 2.894-.636.083-1.29-.421-1.245-1.087.05-.879 1.151-1.265 1.808-.739.946-.742.517-2.483-.615-2.808-1.116-.359-2.244.287-3.112.943-2.148 1.759-3.566 4.19-5.16 6.421-1.353 1.869-2.691 3.854-4.661 5.129-.85.547-1.82 1.02-2.857.954-1.799.05-3.182-1.778-3.114-3.482.136-1.388 1.399-2.745 2.848-2.64.806.031 1.183 1.079.682 1.666-.386.5-1.138.517-1.606.122-.537.556-.676 1.472-.198 2.11.478.883 1.661.91 2.496.587 1.163-.484 2.136-1.335 2.961-2.272 2.033-2.28 3.483-5 5.419-7.356 1.112-1.379 2.371-2.751 4.053-3.426z"/><path d="m18.057 15.593c2.147.159 4.372.465 6.272 1.552.883.496 1.676 1.222 2.055 2.179.762 1.858-.698 4.258-2.727 4.344-.964-.015-2.049-.356-2.563-1.234-.347-.593-.01-1.493.709-1.574.728-.189 1.359.598 1.232 1.286.917.327 1.962-.367 2.115-1.302.211-.857-.422-1.645-1.073-2.12-1.99-1.445-4.558-1.558-6.914-1.813.275-.454.594-.88.894-1.318z"/><path d="m13.256 21.921c.458-.527.936-1.043 1.409-1.56.062 1.474-.105 2.961.089 4.426.137.768.663 1.571 1.476 1.721.691.156 1.444-.209 1.795-.815.584-.973.4-2.143.427-3.222-.567-.082-1.142.005-1.709-.056-.733-.184-.739-1.485.053-1.592.736-.105 1.488-.021 2.23-.046.506-.032.956.43.893.936-.067 1.298.158 2.634-.26 3.891-.295.994-1.077 1.859-2.083 2.157-1.397.469-3.099-.132-3.807-1.446-.755-1.334-.542-2.93-.513-4.394z"/></svg>