<svg enable-background="new 0 0 34.864 35.577" viewBox="0 0 34.864 35.577" xmlns="http://www.w3.org/2000/svg"><path d="m19.06.362c.591-.532 1.628-.493 2.061.218.955 1.447 2.04 2.84 2.892 4.337-.501.254-1.149.119-1.492-.33-1.153-1.408-2.324-2.804-3.461-4.225z"/><path d="m15.286.724c.452-.647 1.477-.785 2.026-.187 1.247 1.244 2.604 2.38 3.806 3.665-.467.391-1.184.333-1.627-.064-1.402-1.136-2.823-2.254-4.205-3.414z"/><path d="m23.147.866c.561-.525 1.684-.182 1.926.572.611 1.604 1.275 3.192 1.886 4.794-.515.19-1.147-.05-1.384-.55-.803-1.608-1.676-3.191-2.428-4.816z"/><path d="m11.584 1.877c.249-.735 1.212-1.081 1.865-.657 1.521.94 3.043 1.877 4.554 2.833-.305.51-1.01.604-1.506.331-1.645-.822-3.269-1.683-4.913-2.507z"/><path d="m26.638 1.88c.659-.418 1.611.1 1.721.85.284 1.706.56 3.415.802 5.128-.519.06-1.06-.269-1.203-.779-.457-1.729-.855-3.473-1.32-5.199z"/><path d="m8.253 3.665c.086-.787.973-1.24 1.692-1.021 1.697.636 3.404 1.245 5.104 1.872-.147.552-.81.796-1.328.655-1.823-.501-3.643-1.014-5.468-1.506z"/><path d="m29.53 2.779c.618-.243 1.481.107 1.538.825.043 1.621.159 3.237.173 4.859-.5.079-1.031-.259-1.089-.778-.211-1.635-.421-3.27-.622-4.906z"/><path d="m32.289 4.03c.492-.233 1.25-.021 1.241.612-.1.97-.59 1.849-1.028 2.704-.113.289-.467.096-.687.081.163-1.132.297-2.267.474-3.397z"/><path d="m5.229 6.15c-.18-.655.553-1.364 1.236-1.306 1.864.272 3.728.55 5.591.822-.041.589-.669.959-1.221.883-1.871-.104-3.743-.222-5.606-.399z"/><path d="m3.973 7.499c1.888-.054 3.776-.234 5.664-.218-.027.594-.539 1.002-1.101 1.068-1.883.232-3.764.492-5.651.698-.167-.72.344-1.48 1.088-1.548z"/><path d="m2.158 10.628c1.781-.447 3.556-.932 5.351-1.315.176.587-.3 1.152-.851 1.293-1.764.558-3.498 1.232-5.276 1.732-.349-.669.047-1.533.776-1.71z"/><path d="m.765 14.058c1.671-.861 3.401-1.591 5.108-2.37.281.479.014 1.076-.447 1.322-1.608.938-3.226 1.859-4.831 2.802-.484-.489-.399-1.367.17-1.754z"/><path d="m.453 17.74c1.444-1.068 2.84-2.201 4.303-3.243.394.426.267 1.11-.159 1.464-1.361 1.205-2.689 2.452-4.076 3.627-.678-.319-.687-1.433-.068-1.848z"/><path d="m4.274 17.314c.515.264.544 1.004.213 1.428-1.072 1.424-2.089 2.891-3.166 4.312-.729-.064-1.035-1.143-.572-1.683 1.179-1.348 2.346-2.709 3.525-4.057z"/><path d="m19.814 17.566c4.999-.084 10.002-.057 15.004-.089.022.414.105.871-.03 1.264-1.37.415-2.94.957-3.559 2.378-2.492.269-4.992.47-7.49.684-.241-1.932-2.223-2.717-3.902-2.988-.12-.361-.081-.87-.023-1.249z"/><path d="m4.569 20.283c.609.048.736.841.552 1.313-.706 1.636-1.456 3.253-2.154 4.893-.764-.041-1.244-.984-.889-1.646.833-1.518 1.673-3.034 2.491-4.56z"/><path d="m31.13 22.286c.173-.117.358-.386.59-.236.841.427 1.729.847 2.383 1.544.394.459-.218 1.075-.701.927-.754-.749-1.527-1.479-2.272-2.235z"/><path d="m26.903 22.699c.327-.413 1.024-.291 1.46-.103 1.444.764 2.912 1.485 4.361 2.238-.35.547-1.275.533-1.839.276-1.335-.79-2.641-1.63-3.982-2.411z"/><path d="m23.682 23.055c.255-.356.989-.331 1.417-.151 1.321.729 2.629 1.487 3.947 2.222-.27.587-1.245.61-1.782.341-1.206-.785-2.386-1.613-3.582-2.412z"/><path d="m5.399 22.961c.562.051.895.667.804 1.189-.357 1.76-.664 3.531-1.029 5.29-.701-.019-1.398-.654-1.238-1.392.459-1.703.994-3.387 1.463-5.087z"/><path d="m21.802 23.899c-.267-.493.312-.935.768-.921.637.787 1.324 1.558 1.894 2.385-.148.093-.297.186-.447.278-.792-.494-1.676-.955-2.215-1.742z"/><path d="m6.631 30.715c.113-1.69.158-3.394.34-5.073.48.059.949.408 1.001.915.102 1.794.099 3.594.168 5.391-.722.204-1.654-.43-1.509-1.233z"/><path d="m30.986 26.105c.116-.163.258-.313.439-.404.964.456 1.986.907 2.733 1.69.397.483-.079 1.058-.592 1.156-.882-.788-1.708-1.641-2.58-2.442z"/><path d="m27.082 26.155c.589-.096 1.091.267 1.607.483 1.255.641 2.579 1.165 3.828 1.801-.246.656-1.262.744-1.835.43-1.392-.785-2.797-1.547-4.184-2.34-.055-.25.378-.349.584-.374z"/><path d="m23.03 26.565c.431-.415 1.148-.333 1.623-.036 1.367.838 2.753 1.646 4.114 2.495-.479.619-1.519.661-2.098.151-1.199-.888-2.453-1.702-3.639-2.61z"/><path d="m22.344 28.764c-.805-.391-.95-1.655.135-1.737.71.858 1.407 1.734 2.052 2.64-.757.715-1.52-.551-2.187-.903z"/><path d="m8.858 27.854c.588-.124 1.221.251 1.314.861.376 1.682.914 3.343 1.247 5.022-.575.366-1.516-.054-1.652-.753-.304-1.709-.585-3.423-.909-5.13z"/><path d="m11.28 29.498c.55-.2 1.167.11 1.407.626.778 1.577 1.709 3.092 2.363 4.722-.675.396-1.673.129-1.907-.658-.586-1.577-1.337-3.098-1.863-4.69z"/><path d="m31.456 29.964c.15-.149.301-.509.559-.361.872.39 1.806.754 2.492 1.44.419.433-.038 1.059-.536 1.143-.82-.761-1.71-1.442-2.515-2.222z"/><path d="m27.188 30.408c.301-.591 1.124-.595 1.624-.265 1.526.869 3.157 1.513 4.691 2.365-.353.988-1.626 1.032-2.311.367-1.313-.861-2.688-1.615-4.004-2.467z"/><path d="m23.447 30.956c.33-.433.94-.551 1.432-.353 1.664.84 3.381 1.583 4.985 2.541-.3.663-1.147 1.032-1.8.641-1.522-.969-3.078-1.905-4.617-2.829z"/><path d="m13.936 30.783c.447-.318 1.087-.191 1.444.201 1.202 1.368 2.344 2.795 3.455 4.237-.544.494-1.489.493-1.945-.116-.981-1.444-1.936-2.907-2.954-4.322z"/><path d="m17.055 31.427c.517-.324 1.167-.28 1.652.083 1.397 1.118 2.814 2.212 4.193 3.353-.453.695-1.536.792-2.092.176-1.232-1.224-2.557-2.357-3.753-3.612z"/><path d="m20.103 31.59c.336-.62 1.267-.439 1.818-.17 1.544.764 3.089 1.532 4.61 2.341-.248.712-1.198 1.078-1.842.655-1.531-.936-3.078-1.859-4.586-2.826z"/></svg>