<svg enable-background="new 0 0 29.608 29.97" viewBox="0 0 29.608 29.97" xmlns="http://www.w3.org/2000/svg"><path d="m13.671.042c4.541-.352 9.2 1.512 12.156 4.994 2.515 2.832 3.905 6.652 3.771 10.439-.092 5.966-4.17 11.7-9.849 13.604-5.628 2.191-12.383.197-16.207-4.402-2.422-2.888-3.752-6.702-3.516-10.471.258-4.448 2.498-8.806 6.179-11.377 2.154-1.624 4.777-2.594 7.466-2.787zm.737.855c-4.011.038-7.862 2.086-10.383 5.163-1.705 2.107-2.739 4.724-3.063 7.405-.415 3.569.627 7.268 2.819 10.114 2.271 2.982 5.784 5.014 9.519 5.405 4.04.467 8.282-.959 11.169-3.833 2.647-2.573 4.249-6.206 4.272-9.903.061-3.5-1.238-7.007-3.554-9.633-2.637-3.086-6.729-4.861-10.779-4.718z"/><path d="m8.513 4.159c3.278-1.987 7.506-2.271 11.029-.764 1.91.761 3.588 2.057 4.896 3.634-.001.031-.002.093-.002.124-.248.124-.481.274-.716.418-2.82-3.482-7.757-5.089-12.064-3.784-3.438.932-6.308 3.64-7.544 6.967-1.259 3.08-1.063 6.709.5 9.646.455-.214.871-.497 1.315-.73-.938-1.834-1.313-3.938-1.035-5.979.468-3.574 2.909-6.914 6.33-8.171 3.819-1.538 8.5-.344 11.152 2.799-.308.187-.753.697-1.035.222-2.795-2.998-7.693-3.68-11.179-1.509-4.024 2.38-5.72 8.017-3.463 12.164 6.196-3.62 12.481-7.092 18.608-10.825 2.685 4.175 2.498 9.93-.415 13.94-2.45 3.656-7.053 5.664-11.404 5.145-3.205-.309-6.2-2.006-8.243-4.476.001-.036.004-.106.006-.142.246-.15.492-.308.769-.393 1.796 2.284 4.565 3.794 7.455 4.104 4.273.567 8.836-1.563 11.045-5.281 2.21-3.433 2.385-8.003.502-11.619-5.914 3.474-11.919 6.828-17.83 10.317 2.014 3.562 6.762 5.161 10.57 3.761 3.666-1.174 6.299-4.903 6.191-8.746.037-.924-.145-1.832-.39-2.716.235-.175.499-.307.756-.447 1.333 4.036-.033 8.861-3.553 11.348-2.14 1.59-4.943 2.281-7.571 1.818-2.799-.389-5.285-2.162-6.806-4.506-.753.275-1.378.819-2.108 1.152-2.039-3.27-2.481-7.49-1.039-11.075.919-2.672 2.871-4.931 5.273-6.396z"/></svg>