<svg enable-background="new 0 0 78.026 38.169" viewBox="0 0 78.026 38.169" xmlns="http://www.w3.org/2000/svg"><g clip-rule="evenodd" fill-rule="evenodd"><path d="m68.626 24.959c-4.824.084-9.965.046-14.93.046-1.633 0-3.283-.143-4.762.183.188 1.494 1.08 2.506 1.922 3.434.854.939 1.844 1.736 3.068 2.244 2.6 1.076 6.217.974 8.977 0 2.559-.904 4.578-2.543 6.09-4.58 1.57-2.115 2.539-4.615 2.428-8.197-.102-3.259-1.574-5.65-3.205-7.464-1.598-1.775-3.957-3.399-6.777-3.847-3.064-.485-6.605-.169-10.076-.183-3.439-.014-6.928-.008-10.395-.137-.15-2.009-.166-4.589.045-6.32 5.848-.173 12.012-.064 17.861-.137 5.002-.063 8.789 1.692 11.768 3.938 3.025 2.28 5.373 5.353 6.549 9.25.652 2.157.979 4.582.779 7.052-.186 2.282-.754 4.499-1.557 6.32-1.58 3.575-4.211 6.451-7.373 8.38-1.605.979-3.369 1.926-5.449 2.473-2.127.559-4.623.907-7.008.687-2.525-.234-4.641-.601-6.502-1.374-.885-.368-1.701-.896-2.52-1.42-3.9-2.498-6.705-6.606-7.051-12.685-.303-5.302 1.133-9.144 3.754-11.998 1.756-1.759 4.121-2.894 7.145-3.389 4.787-.784 10.109.231 12.914 2.381.902.692 1.799 1.792 2.518 2.748 1.516 2.012 2.547 4.803 2.564 7.922.01 1.703-.175 3.472-.777 4.673zm-13.601-11.861c-2.586.051-4.316.973-5.494 2.473-.596.758-1.234 1.776-1.146 2.885.996.248 2.125.137 3.252.137h6.777c1.094 0 2.188.109 3.115-.183-.477-3.254-2.817-5.383-6.504-5.312z"/><path d="m32.724.185c.148 1.883.152 4.391 0 6.274-3.84.134-7.945.148-11.678.091-3.875-.059-7.137.578-9.525 2.381-2.147 1.62-4.055 4.229-4.672 7.281-.734 3.634.191 7.159 1.877 9.479 2.117 2.938 5.641 5.298 10.58 5.312 1.984.005 3.631-.47 4.99-1.19 1.262-.64 2.172-2.776.596-3.801-.965-.627-2.766-.747-4.213-.824-3.31-.177-6.611.001-8.885-1.191-1.027-.539-2.078-1.388-2.701-2.335-1.559-2.372-1.441-5.94-.275-8.38 1.086-2.269 3.127-4.169 5.404-5.083 2.779-1.116 6.209-1.116 9.158-.688 3.043.443 5.385 1.634 6.824 3.664 1.09 1.537 1.812 3.658 1.648 6.457-.935.321-2.336.183-3.572.183-1.275-.001-2.588.074-3.664-.092-.254-.996-.102-2.107-.41-2.885-.844-2.111-4.822-2.998-7.328-1.557-.844.485-2.025 1.92-1.557 3.48.516 1.714 2.283 1.774 4.441 1.877 2.25.108 4.717.019 6.686.458 2.752.613 4.709 2.131 5.725 4.579.633 1.522.881 3.67.275 5.816-.947 3.353-3.639 5.581-6.641 6.869-2.359 1.013-5.428 1.576-8.746 1.145-6.719-.872-11.693-4.424-14.471-9.159-1.539-2.624-2.926-6.66-2.519-10.899.574-5.987 3.369-10.535 6.961-13.28 1.238-.946 2.6-1.872 4.168-2.564 1.502-.664 3.312-1.357 5.219-1.511 2.057-.166 3.752 0 5.908 0 1.188.001 2.371-.046 3.527-.045 2.405.001 4.743-.107 6.87.138z"/><path d="m39.822.185c.178 2.027.139 4.317.045 6.228-.787.31-1.918.183-2.977.183-1.076 0-2.17.042-3.021-.137-.295-1.019-.096-2.297-.092-3.48.002-.987-.135-1.988.092-2.839 1.753-.012 4.208-.249 5.953.045z"/><path d="m39.822 8.107c.207 9.311.193 19.253 0 29.08-.836.241-1.951.137-3.023.137-1.059 0-2.146.089-2.977-.137-.172-2.139-.092-4.803-.092-7.282.002-6.582 0-13.704 0-20.378 0-.703-.16-1.469.504-1.557.91-.121 1.953.045 2.885.045.943 0 1.833-.087 2.703.092z"/></g></svg>