<svg enable-background="new 0 0 68.777 76.134" viewBox="0 0 68.777 76.134" xmlns="http://www.w3.org/2000/svg"><path clip-rule="evenodd" d="m26.182 0c10.737.208 18.9 3.139 25.513 7.673 6.544 4.487 11.962 10.414 14.921 18.263 1.557 4.128 2.364 8.901 2.118 14.31-.476 10.483-3.717 18.28-9.132 24.053-1.308 1.395-2.837 2.666-4.424 3.86-6.285 4.732-14.745 7.369-25.324 7.861-2.639.122-5.296.229-7.861-.142-4.725-.681-8.497-2.564-11.627-4.989-4.659-3.609-8.204-8.471-9.744-15.157-.541-2.35-.775-5.134-.518-7.672.51-5.035 2.046-8.946 4.236-12.333 1.561-2.414 3.715-4.625 6.025-6.402.771-.594 1.58-1.265 2.4-1.742 3.527-2.05 7.696-3.393 13.039-3.53.192-6.573.095-13.88.094-21.041 0-.947-.093-2.386.141-2.918.036-.044.087-.071.143-.094zm-.236 24.242c-.085.943-.047 2.045-.047 3.106.001 15.656-.078 31.638.094 46.93 3.921.168 7.417-.733 10.261-2.071 2.817-1.325 5.375-3.033 7.39-5.131 4.028-4.193 7.26-9.803 7.343-17.746.042-3.937-.912-7.411-2.212-10.309-2.631-5.861-6.714-9.976-12.427-12.662-2.89-1.359-6.36-2.206-10.309-2.26-.058.021-.095.062-.093.143z" fill-rule="evenodd"/></svg>