<svg enable-background="new 0 0 73.993 56.475" viewBox="0 0 73.993 56.475" xmlns="http://www.w3.org/2000/svg"><g clip-rule="evenodd" fill-rule="evenodd"><path d="m40.781.019c1.371-.112 2.729.298 3.619.821 1.795 1.055 3.238 3.189 2.992 6.226-.194 2.396-1.581 4.175-3.185 5.066-2.977 1.654-6.692.322-8.301-2.123-1.103-1.676-1.357-4.529-.338-6.563.858-1.71 2.588-3.212 5.213-3.427z"/><path d="m28.138 54.696c-3.189 2.091-8.866 1.495-14.237 1.496-2.625.001-5.491-.083-7.866-.097-2.855-.015-4.462-.576-5.501-2.461-1.451-2.632.284-5.422 2.509-6.129 1.309-.416 3.136-.362 4.875-.289 1.7.071 3.431.048 5.018.048 1.626 0 3.398.066 5.115.049.854-.009 1.742-.087 2.559-.049.828.039 1.622.092 2.316-.048 1.608-.325 3.285-2.003 2.75-4.198-.335-1.376-1.469-2.439-2.943-2.703-1.113-.198-2.402-.097-3.668-.097-3.606 0-7.601.165-10.424-.82-3.583-1.25-6.178-3.82-7.625-7.335-.787-1.911-1.054-4.259-.773-6.419.283-2.173 1.188-4.157 2.075-5.405 2.007-2.819 5.023-5.128 9.749-5.405 2.512-.146 4.66.186 6.949.097 4.559-.176 9.643-.023 14.092 0 2.299.013 4.127.621 5.694 1.448 3.069 1.621 5.4 4.278 6.37 7.914.521 1.953.435 4.226.435 6.708 0 4.657-.048 9.377-.049 14.188 0 2.396.196 4.911-.048 6.998-.245 2.091-1.366 3.507-3.089 4.054-3.223 1.022-5.746-1.47-5.888-4.44-.053-1.111.048-2.28.048-3.522 0-5.196.049-9.197.049-14.236 0-2.316.301-4.82-.097-6.901-.284-1.489-1.493-2.733-3.089-2.992-1.728-.28-3.729-.013-5.501-.097-3.517-.166-7.265-.048-11.052-.048-.853 0-1.808-.001-2.702 0-.932.001-1.875-.11-2.606.097-.989.279-1.979 1.249-2.316 2.268-.729 2.205.839 4.06 2.606 4.488.934.226 2.014.118 3.089.144 3.043.075 6.881-.132 9.555.435 3.548.751 6.099 2.568 8.011 5.309 1.842 2.64 2.692 7.006 1.593 10.665-.994 3.311-3.082 5.679-5.983 7.285z"/><path d="m50.916 15.172c1.541-.173 3.503-.048 5.115-.048 3.279 0 6.568.048 9.989.048 1.642 0 3.724-.28 5.067.241 1.274.495 2.188 1.644 2.558 2.558 1.264 3.127-1.118 6.014-4.005 6.322-1.505.161-3.153 0-4.73 0-.754 0-1.518.129-2.268.097-2.15-.093-4.614-.145-6.9-.145-1.943 0-4.689.233-6.081-.338-2.066-.849-3.681-3.676-2.268-6.37.545-1.039 1.912-2.184 3.523-2.365z"/><path d="m52.46 26.079c3.985-.094 8.975.048 13.127.048 1.838 0 4.103-.307 5.501.241 2.241.878 3.728 3.892 2.316 6.419-.553.99-1.589 1.882-2.799 2.22-1.397.391-3.443.273-5.067.241-3.042-.061-7.2.003-10.472.049-1.842.025-4.176.07-5.454-.531-1.856-.873-3.429-3.322-2.22-5.984.524-1.152 1.617-2.207 2.895-2.558.68-.186 1.41-.127 2.173-.145z"/></g></svg>