<svg enable-background="new 0 0 63.288 73.574" viewBox="0 0 63.288 73.574" xmlns="http://www.w3.org/2000/svg"><g clip-rule="evenodd" fill-rule="evenodd"><path d="m63.032 17.495c-.387-.131-.46-.604-.596-.895-2.291-4.909-6.106-8.14-11.166-10.421-1.294-.582-2.896-.965-4.516-1.289-1.594-.32-3.223-.686-4.913-.844-3.462-.326-7.375-.242-10.769.346-3.3.572-6.086 1.621-8.635 2.93-2.41 1.236-4.47 3.209-6.303 5.211-3.518 3.842-6.238 9.559-7.345 15.73-1.245 6.945-.46 15.15 1.191 20.795 2.682 9.17 7.786 15.174 16.129 18.512 2.815 1.125 5.927 1.742 9.578 1.936 5.669.297 10.84-.504 15.384-1.688 1.505-.393 3.008-.727 4.318-1.439.285-2.209.056-4.578.149-7.047.176-4.689 0-9.621 0-14.592 0-1.18.012-2.412 0-3.572-.016-1.457.148-2.959-.298-4.02-.295-.701-1.182-1.564-1.886-2.035-.46-.309-1.078-.305-1.39-.744 2.779-.146 5.599-.1 8.536-.1.936 0 1.927-.121 2.779.149.055.564-.17.789-.199 1.391-.133 2.809 0 5.693 0 8.586 0 8.43-.019 17.098-.099 25.16-8.134 2.81-18.567 4.646-29.479 3.82-10.388-.786-17.99-4.493-23.622-10.124-2.775-2.775-4.832-6.483-6.65-10.274-.953-1.986-1.565-4.045-2.134-6.303-.587-2.328-.781-4.734-.993-7.443-.428-5.471.511-10.439 1.985-14.592 1.5-4.223 3.397-7.771 5.956-10.916 6.02-7.345 13.473-12.56 25.856-13.548 3.89-.311 7.958-.186 11.861.197 2.069.203 4.09.367 5.956.746 1.92.389 3.873.625 5.757.941.966.162 1.934.336 2.878.496.911.156 1.857.217 2.68.646.175 4.494.159 9.691 0 14.294z"/><path d="m47.498 11.49c.051 2.766.146 6.002-.05 8.686-.438-.34-.552-.912-.745-1.34-1.454-3.25-4.218-5.451-8.337-6.154-5.317-.91-9.608 1.281-10.819 5.359-1.109 3.734.824 6.875 2.878 8.486 1.12.879 2.352 1.631 3.573 2.383 1.24.764 2.421 1.631 3.573 2.381 4.791 3.125 10.475 5.633 11.315 12.506.483 3.957-.605 7.199-2.134 9.629-1.543 2.451-3.715 4.381-6.452 5.459-3.073 1.211-6.997 1.043-10.372.348-3.31-.682-6.066-1.783-8.436-3.475-.073-3.217-.224-7.066.049-10.322.696 1.24.835 2.584 1.439 3.723 1.711 3.227 4.755 5.906 8.486 6.996 1.376.402 3.054.609 4.615.547 1.659-.066 2.896-.529 3.97-1.191 2.013-1.24 3.645-3.494 3.871-6.402.481-6.18-4.793-8.072-8.288-10.57-5.634-4.03-12.666-6.12-13.595-14.643-.33-3.025.606-5.701 1.737-7.592 2.319-3.877 6.509-6.271 12.457-6.551 2.072-.098 4.162.178 6.005.496 1.871.323 3.72.53 5.26 1.241z"/><path d="m58.615 20.919c2.425-.225 4.245 1.52 4.169 3.871-.053 1.639-1.238 3.123-2.729 3.572-2.912.877-5.767-1.99-4.566-5.16.39-1.033 1.415-2.125 3.126-2.283z"/></g></svg>