<svg enable-background="new 0 0 80.015 50.357" viewBox="0 0 80.015 50.357" xmlns="http://www.w3.org/2000/svg"><g clip-rule="evenodd" fill-rule="evenodd"><path d="m79.865 40.21c.136 3.148.256 6.644 0 9.84-7.137.017-12.063-2.507-16.124-5.748-1.355-1.081-2.397-2.493-3.702-3.604-.555.426-.772 1.098-1.121 1.656-2.374 3.796-6.241 6.711-11.497 7.697-3.365.631-7.2.248-9.742-.779-2.662-1.075-4.812-2.53-6.576-4.384-2.28-2.689-4.128-5.712-4.433-10.181-.378-5.543 1.824-9.994 4.725-12.958 1.457-1.488 3.181-2.71 5.261-3.604 3.362-1.446 8.201-2.084 12.275-.975.74.201 1.432.456 2.095.731.659.272 1.278.64 1.949.779.188-.339-.167-.639-.292-.877-.469-.885-.906-1.683-1.559-2.436-2.083-2.4-4.685-4.238-8.427-4.969-.723-.141-1.466-.196-2.241-.39-.175-1.545-.097-3.322-.097-5.066 0-1.735-.09-3.485.146-4.92 6.194.084 11.07 2.639 14.614 5.407 4.647 3.629 8.037 8.771 9.158 15.637.239 1.464.291 2.968.487 4.482.375 2.886.994 5.479 2.338 7.599 2.608 4.112 6.757 6.608 12.763 7.063zm-41.017-12.227c-.979 1.069-1.947 2.735-2.095 4.676-.29 3.829 1.774 6.625 4.433 7.94 5.71 2.824 11.339-1.28 11.691-6.527.187-2.792-.866-4.86-2.046-6.138-1.34-1.452-3.264-2.587-5.894-2.582-2.826.007-4.791 1.214-6.089 2.631z"/><path d="m39.482.119c.162 3.072.163 6.817 0 9.889-1.52.26-2.874.441-4.141.877-3.652 1.255-6.397 3.49-8.232 6.674-1.26 2.186-1.938 4.789-2.241 7.746-.294 2.866-.678 5.816-1.51 8.427-1.51 4.74-4.837 8.7-8.476 11.448-2.756 2.081-6.221 3.85-10.376 4.579-1.378.241-2.861.552-4.385.291-.162-3.039-.162-6.753 0-9.792 1.505-.281 2.893-.419 4.189-.779 1.258-.349 2.456-.889 3.458-1.51 2.614-1.62 4.595-4.015 5.894-6.869.693-1.522 1.113-3.187 1.267-5.115.148-1.864.269-3.815.633-5.749 1.33-7.067 5.255-11.907 9.986-15.491 3.226-2.323 7.251-4.369 12.422-4.725.45-.029 1.069-.049 1.512.099z"/></g></svg>