<svg enable-background="new 0 0 72.16 56.874" viewBox="0 0 72.16 56.874" xmlns="http://www.w3.org/2000/svg"><g clip-rule="evenodd" fill-rule="evenodd"><path d="m.148 38.426c.102-.619.808-.475 1.186-.475 14.438-.002 28.297.047 43.014.047 2.033 0 4.434.18 5.935-.521 1.695-.791 3.44-2.906 3.419-5.412-.022-2.586-1.596-4.502-3.419-5.412-1.237-.617-3.021-.666-4.842-.664-9.249 0-18.009-.002-27.395 0-1.932 0-3.786.059-5.508 0-1.657-.059-3.17-.483-4.463-.998-2.433-.973-4.688-2.734-5.981-4.984-1.346-2.342-2.438-4.873-1.994-8.783.53-4.67 3.085-8.016 6.6-9.828 1.164-.601 2.633-1.166 4.178-1.281.073-.006.083-.047.143-.049 3.852-.103 7.848.047 11.821.049 5.972 0 11.841-.002 17.709 0 5.037 0 9.543-.049 14.433-.049.767 0 2.039-.348 2.374.57-.082.975-1.588.711-2.516.713-2.836.004-5.972.033-9.163 0-8.45-.092-16.577.002-25.4 0-2.132-.002-4.366.057-6.409 0-2.268-.064-3.85.207-5.461.854-2.925 1.174-5.118 3.633-6.314 6.551-.634 1.545-.946 3.465-.808 5.412.141 1.978.777 3.496 1.566 4.842 1.566 2.67 3.971 4.771 7.312 5.555 1.75.412 3.773.369 5.934.381 8.119.043 16.848 0 25.306 0 2.132 0 4.327-.193 6.314 0 3.674.358 6.342 2.531 6.932 5.934.533 3.08-.994 5.4-2.706 6.742-.588.461-1.289.932-2.042 1.139-1.757.486-4.229.156-6.029.238-2.052.094-4.297.025-6.314 0-4.102-.053-8.404.047-12.486.047-7.418 0-14.797-.096-22.267-.094-.476 0-1.055-.018-1.566-.049-.353-.02-1.026.125-1.093-.475z"/><path d="m55.221 37.858c1.134-1.869 2.19-3.602 1.994-6.268-.183-2.494-1.145-4.379-2.421-5.84-1.251-1.432-3.032-2.648-5.223-3.039-1.191-.211-2.521-.123-3.94-.189-3.934-.186-8.175-.049-12.297-.047-2.676 0-5.354-.076-7.929.047-1.281.06-2.681.051-4.035 0-3.767-.141-8.484.258-11.584-.664-1.016-.303-1.905-.82-2.659-1.473-.752-.65-1.498-1.256-2.041-2.088-1.062-1.631-1.879-4.051-1.519-6.553.318-2.211 1.338-4.207 2.801-5.459 1.454-1.246 3.291-2.336 5.793-2.422 5.454-.187 10.979-.002 16.427 0h8.261c2.736 0 5.492.127 8.214 0 2.918-.135 6.623.002 9.638-.047.964-.016 2.406-.316 2.658.568-.115 1.025-1.55.666-2.564.666-13.958.002-27.536-.002-41.306 0-2.108 0-3.814.355-5.127 1.234-1.283.859-2.296 1.962-2.944 3.466-.656 1.519-1.017 3.519-.522 5.508.606 2.434 2.267 4.107 4.368 5.223 2.073 1.1 5.38.957 8.594.902 6.222-.109 12.621.01 18.658.047 2.078.012 4.177-.047 6.267-.047 2.156 0 4.323-.119 6.314.094 5.192.557 8.796 4.541 9.21 9.971.149 1.953-.275 3.828-1.044 5.269-1.39 2.609-3.642 5.014-7.074 5.697-1.796.357-3.987.238-6.172.238-10.668 0-21.003-.002-31.904 0-3.013 0-6.061-.096-9.495-.096-.87 0-2.57.125-2.564-.617.008-.848 2.365-.521 3.134-.521 13.624 0 27.185.043 40.641.047 2.604 0 5.178.258 7.073-.428 1.903-.689 3.239-1.859 4.319-3.179z"/><path d="m66.426 48.111c-2.495 2.986-5.517 5.246-9.211 6.836-1.87.807-3.989 1.434-6.314 1.711-2.322.275-5.047.143-7.833.143-4.819-.002-10.398.047-15.905.047-3.481 0-7.806.084-11.584-.047-1.135-.041-3.278.172-3.703-.285-.429-.461-.253-1.578.095-1.9.36-.332 1.454-.197 2.278-.189 9.209.098 18.329-.117 27.489-.047 3.285.025 6.885.152 9.733-.332 5.91-1.006 9.537-3.771 12.913-7.408 1.533-1.65 2.926-3.875 3.846-6.314.954-2.527 1.725-5.186 1.614-8.402-.118-3.455-.649-6.004-1.709-8.451-1.028-2.375-2.186-4.467-3.846-6.315-1.623-1.807-3.451-3.299-5.602-4.557-2.679-1.566-5.89-2.693-9.827-2.896-2.448-.127-5.055 0-7.502 0-3.273-.002-6.807 0-10.159 0-1.629 0-3.257-.066-4.891 0-1.568.061-3.222.123-4.938.045-2.071-.094-4.901.019-7.311-.094-.829-.041-1.901.1-2.279-.238-.468-.42-.553-1.777.428-1.947.973-.168 2.232 0 3.371 0h29.673c2.229 0 4.486-.18 6.599.049 1.899.205 3.561.768 5.223 1.471.779.33 1.523.66 2.232 1.092.714.438 1.492.756 2.136 1.188.628.42 1.194 1.006 1.852 1.52 1.765 1.379 3.48 3.344 4.748 5.269.867 1.318 1.669 2.871 2.278 4.416.636 1.609 1.175 3.35 1.473 5.174 1.402 8.631-1.374 15.833-5.367 20.461z"/><path d="m62.96 45.404c-3.473 3.836-7.812 6.855-15.003 7.027-7.168.172-14.545 0-21.792 0-3.505 0-6.941 0-10.776 0-1.166 0-2.928.195-3.419-.236-.329-.291-.546-1.4-.142-1.9.535-.664 2.973-.266 4.178-.285 4.365-.067 8.998-.108 13.246-.047 5.947.084 11.586.002 17.804 0 5.87 0 10.021-2.199 13.008-5.127 1.51-1.48 2.766-3.127 3.751-5.318.945-2.102 1.709-4.504 1.709-7.311 0-2.961-.751-5.314-1.614-7.453-.868-2.152-2.188-3.961-3.608-5.461-1.508-1.596-3.327-2.703-5.412-3.656-2.119-.967-4.478-1.473-7.549-1.471-10.778 0-22.318.019-33.661 0-.759-.002-1.486.088-1.851-.285-.332-.338-.484-1.334-.096-1.805.467-.564 3.15-.285 4.367-.285h27.109c1.633 0 3.351-.029 4.748-.047 4.969-.063 8.068 1.41 11.157 3.418 3.017 1.961 5.162 4.74 6.741 7.93 1.203 2.43 2.042 5.395 2.042 8.973 0 5.837-2.166 10.099-4.937 13.339z"/><path d="m44.871 16.445c.864-.043 2.101-.035 3.086-.049 3.352-.041 5.513.684 7.644 1.947 4.806 2.85 9.101 9.285 7.312 17.377-.731 3.305-2.561 6.082-4.795 7.975-2.449 2.076-4.978 3.469-9.021 3.799-3.976.324-7.635.01-12.392.143-2.086.059-4.197-.012-6.315 0-2.102.012-4.207 0-6.409 0-3.181 0-6.042-.008-9.448-.047-.92-.012-2.391.205-2.754-.332-.227-.34-.147-1.066 0-1.33.384-.684 2.602-.428 3.562-.428h27.394c2.577 0 5.187.072 7.407-.428 4.287-.965 7.301-3.178 9.21-6.647 1.37-2.49 2.101-6.266 1.187-9.732-.812-3.08-2.474-5.506-4.7-7.168-1.469-1.098-3.269-2.166-5.364-2.564-2.227-.426-5.122-.143-7.739-.143-9.283-.002-18.248.002-27.488 0-.949 0-3.089.256-3.561-.379-.28-.377-.319-1.312.047-1.711.473-.512 2.684-.285 3.893-.283 7.043 0 13.744-.002 20.795 0 2.851 0 5.891.122 8.449 0z"/><path d="m12.444 28.361c1.124-.219 3.194-.022 4.7 0 5.805.082 12.037-.115 18.326-.047 3.081.033 5.964-.002 9.163 0 2.198 0 4.586-.223 5.697.807 1.588 1.469 1.551 4.93-.428 6.172-.954.6-3.101.475-4.984.475-10.567.002-20.309-.002-30.907 0-.768 0-1.751.047-2.09-.285-.266-.26-.498-1.279-.094-1.709.426-.455 3.398-.225 4.367-.189 1.512.055 2.974-.113 4.463-.049 3.285.146 6.482.021 9.258 0 4.502-.031 9.093 0 13.863 0 1.479.002 3.571.193 4.463-.236.441-.213.944-.746.949-1.234.018-1.484-1.967-1.414-3.608-1.377-4.747.106-9.974 0-14.338 0-5.04-.002-9.727.049-14.812.047-.96 0-4.071.184-4.558-.379-.583-.677-.214-1.843.57-1.996z"/></g></svg>