<svg enable-background="new 0 0 78.59 78.549" viewBox="0 0 78.59 78.549" xmlns="http://www.w3.org/2000/svg"><path clip-rule="evenodd" d="m38.029 70.74c-2.835 3.613-6.81 6.293-12.206 7.215-4.525.771-9.002.137-12.404-1.336-1.086-.469-2.048-1.131-3.064-1.777-3.856-2.455-6.792-6.168-8.698-10.676-.978-2.314-1.538-4.883-1.532-8.055.004-2.244-.099-4.637-.099-6.969 0-.729-.116-1.543.148-2.273 4.301-.197 9.074-.016 13.491 0 .105.414-.31.635-.494.891-1.337 1.848-2.425 4.561-2.174 7.857.261 3.441 1.592 5.945 3.756 7.809 2.008 1.729 5.23 3.049 8.796 2.422 3.271-.578 5.665-1.918 7.413-4.152 1.569-2.004 2.856-5.506 2.026-9.094-.728-3.145-2.439-5.107-4.744-6.818-1.146-.852-2.41-1.518-3.904-1.879-1.507-.363-3.229-.516-4.992-.791-3.231-.504-6.507-1.318-8.846-2.717-4.642-2.777-8.16-7.615-9.637-13.541-1.799-7.219.712-14.018 3.756-18.236.754-1.045 1.781-2.131 2.768-3.062 2.897-2.74 6.947-4.973 11.959-5.387 7.7-.639 12.883 2.242 16.901 6.029.454.539.933 1.035 1.384 1.58.44.533.809 1.185 1.433 1.533.802-.303 1.026-1.182 1.581-1.73 3.697-4.102 8.2-7.215 15.567-7.561 3.73-.176 7.198.791 9.785 1.977 5.265 2.412 8.977 6.91 11.07 12.353.564 1.467.885 3 1.186 4.695s.297 3.475.297 5.535v23.277c0 3.686.085 7.537 0 11.119-.049 2.072-.31 3.461-.84 5.039-.485 1.445-1.11 2.773-1.779 4.053-.782 1.16-1.631 2.273-2.619 3.262-.962.963-1.934 2.016-3.064 2.816-2.312 1.643-4.973 2.76-8.055 3.658-6.918 2.016-14.151-.367-18.235-3.607-.907-.658-1.72-1.41-2.471-2.225-.27-.311-.691-.709-1.087-1.234-.306-.406-.682-1.199-1.087-1.236-.658-.063-.843.892-1.286 1.236zm3.508-32.272c2.256-2.141 4.907-3.65 8.5-4.496 2.426-.572 5.055-.787 7.512-1.137 4.867-.697 8.406-3.344 9.785-7.514.767-2.316.644-5.121-.198-7.361-.781-2.08-2.104-3.65-3.756-4.893-2.634-1.984-7.409-2.617-10.823-.99-2.883 1.375-5.337 4.338-6.029 7.908-.283 1.459-.065 2.791-.099 4.15-3.899.18-8.433.1-12.453.1-.554 0-1.178.127-1.631-.197.45-6.57-2.859-10.762-7.66-12.307-2.854-.918-6.182-.432-8.302.791-2.067 1.193-3.908 2.945-4.744 5.338-.907 2.594-.812 6.154.148 8.4 1.031 2.412 2.957 4.088 5.436 5.041 2.5.961 5.791.92 8.945 1.533 4.327.84 7.748 2.898 10.476 5.238.94.805 1.668 1.775 2.718 2.52.864-.684 1.476-1.46 2.175-2.124zm25.895 11.516c-.855-1.936-2.077-3.463-3.854-4.746-1.623-1.17-4.043-2.168-6.671-1.977-1.561.115-2.88.426-4.052.988-1.72.826-3.517 2.201-4.695 3.707-1.257 1.607-2.206 3.701-2.373 6.029-.396 5.533 2.595 9.082 6.178 11.07 1.896 1.051 4.652 1.318 7.166.74 2.342-.539 4.019-1.588 5.634-3.014 2.915-2.377 4.699-8.204 2.667-12.797z" fill-rule="evenodd"/></svg>