<svg enable-background="new 0 0 74.442 40.519" viewBox="0 0 74.442 40.519" xmlns="http://www.w3.org/2000/svg"><path clip-rule="evenodd" d="m74.258.421c.249.884.185 2.055.151 3.121-.035 1.121.137 2.245-.101 3.172-1.175.226-2.474.21-3.726.15-3.694-.176-7.619-.051-11.479-.051-2.432.001-5.066-.05-7.652-.05-2.942-.001-4.908-.096-6.595 1.107-2.154 1.537-3.656 3.963-4.028 7.099-.565 4.776 2.233 9.265 5.84 10.572 1.359.492 3.059.504 4.935.504 3.518-.001 7.159.125 10.673-.101.336-.685.201-1.736.201-2.719 0-1.002.076-2.032-.1-2.819-1.614-.27-3.536-.151-5.438-.151-2.727 0-6.021.351-7.4-.956-1.165-1.105-1.56-3.386-.756-4.935.35-.672.953-1.367 1.662-1.762 1.236-.688 3.649-.403 5.689-.402 4.888 0 10.19.101 15.204.101.994 0 2.024-.12 2.92.15.272 1.034.151 2.202.151 3.373v7.049c0 1.139.153 2.315-.201 3.273-3.392.37-7.652-.143-11.177.201-.271 1.066-.151 2.269-.151 3.474v7.199c0 1.166.042 2.295-.15 3.322-1.235.268-2.643.151-4.028.151-1.359 0-2.728.012-4.078-.051-2.797-.127-5.602.286-7.702-.553-1.962-.785-3.546-2.061-4.782-3.524-.626-.741-1.224-1.561-1.662-2.467-.443-.917-.653-1.958-1.208-2.92-.47.36-.48.999-.654 1.46-1.311 3.462-3.823 6.082-7.4 7.4-2.193.808-4.939.503-7.753.503-1.357.001-2.733-.043-4.078-.05-1.376-.007-2.754.128-4.027-.151-.273-1.023-.151-2.185-.151-3.322 0-3.353.082-7.087-.101-10.321-1.449-.357-3.127-.201-4.682-.201-1.666 0-3.184-.04-4.381-.453-2.215-.763-3.937-2.674-4.934-4.732-1.114-2.299-1.109-5.021-1.109-8.557 0-2.375.051-4.852.051-7.199 0-.702-.197-1.582.352-2.064.324.193.225.658.251.906.361 3.322 2.122 6.301 4.884 7.3 1.097.396 2.3.436 3.977.453 3.917.041 8.858-.085 13.191.05 1.403.044 3.228-.144 4.379.202 1.606.481 2.937 2.054 2.92 4.027-.012 1.473-.749 3.096-2.164 3.675-.731.3-1.837.297-2.87.252-2.942-.129-6.226-.049-9.112 0-.225.786-.201 1.782-.201 2.819 0 .741-.209 2.453.151 2.819.341.347 2.096.151 2.618.151 2.66-.001 5.649.05 8.205.05 1.983 0 3.753-.057 5.035-.453 1.312-.406 2.516-1.321 3.272-2.215 1.678-1.982 2.988-4.794 2.567-8.206-.43-3.477-2.508-6.653-5.286-7.854-1.354-.585-3.184-.553-5.034-.553-3.91-.001-6.944-.051-11.025-.051-1.698 0-3.866.215-5.438-.101-1.129-.227-2.303-1.111-2.819-1.913-1.185-1.843-.329-4.312 1.913-4.582 1.263-.151 2.706 0 4.078 0 19.793.002 40.64.064 60.363.354z" fill-rule="evenodd"/></svg>