<svg clip-rule="evenodd" fill-rule="evenodd" stroke-linejoin="round" stroke-miterlimit="2" viewBox="0 0 560 400" xmlns="http://www.w3.org/2000/svg"><g fill-rule="nonzero" transform="matrix(.44335 0 0 .44335 145 65)"><path d="m395 535c92-36.2 157.2-125.9 157.2-230.5 0-29.7-5.3-58.3-14.9-84.7l-123.1 130.4c-12.4 13.1-19.2 30.3-19.2 48.3zm-395-535v81l61 64.6c48.2-73.7 129-124.2 222-131 7.1-.5 14.3-.9 21.6-.9s14.4.4 21.6.9c92.9 6.8 173.7 57.3 222 131l60.8-64.6v-81z"/><path d="m595.4 304.5c0 153.4-118.7 278.9-269.3 290-7.1.5-14.3.9-21.6.9s-14.4-.4-21.6-.9c-150.6-11.1-269.3-136.6-269.3-290 0-42.5 9.2-82.8 25.5-119.2l-39.1-41.5v465.2h609v-465.2l-39.2 41.5c16.4 36.4 25.6 76.7 25.6 119.2z"/><path d="m326.1 57.8v493.4c8.7-.8 17.3-1.9 25.7-3.6v-149.1c0-29.1 11-56.8 31-77.9l134.6-142.6c-39.8-66.6-110-113.1-191.3-120.2zm-269.3 246.7c0 104.7 65.3 194.3 157.2 230.5v-136.5c0-18-6.8-35.2-19.2-48.3l-123.1-130.4c-9.6 26.5-14.9 55-14.9 84.7z"/><path d="m282.9 551.2v-493.4c-81.3 7.1-151.5 53.6-191.2 120.2l134.6 142.6c20 21.2 31 48.8 31 77.9v149.1c8.3 1.7 16.9 2.9 25.6 3.6z"/></g></svg>