<svg enable-background="new 0 0 79.045 81.806" viewBox="0 0 79.045 81.806" xmlns="http://www.w3.org/2000/svg"><g clip-rule="evenodd" fill-rule="evenodd"><path d="m37.888 3.58c-.544 1.299-1.237 2.283-1.994 3.516-.195.318-.5.949-.787.997-.321.053-.881-.424-1.207-.577-2.804-1.317-5.655-2.437-9.131-2.991-5.41-.864-11.005-.086-12.384 3.988-.837 2.472.709 4.442 2.151 5.3 1.215.723 2.894 1.043 4.67 1.259 5.035.612 11.442.618 15.008 2.676 2.464 1.422 4.44 3.617 4.985 6.822.631 3.714-.467 7.09-2.099 9.34-3.141 4.33-9.796 6.431-17.737 5.562-3.527-.386-6.541-.825-9.917-1.889-2.07-.653-4.19-1.516-6.298-2.519-.502-.239-1.763-.72-1.836-1.102-.065-.34.366-.851.577-1.207.496-.841.786-1.362 1.312-2.256.203-.346.427-.946.734-.997.306-.051 1.067.492 1.47.735 2.341 1.417 4.46 2.565 7.294 3.568 1.042.369 2.169.796 3.306 1.049 4.968 1.106 11.329.888 13.696-2.414.723-1.146 1.092-2.262.944-3.778-.543-5.608-8.065-4.821-13.801-5.457-6.45-.716-12.821-2.994-13.748-9.236-.426-2.864.451-5.864 1.416-7.504 1.26-2.141 3.405-3.729 5.825-4.723 4.93-2.024 13.224-2.262 19.102-.84 1.505.365 2.979.747 4.407 1.155 1.418.406 2.906.696 4.042 1.523z"/><path d="m52.371.852c.285 1.426.157 2.906.158 4.355.001 10.959.107 22.295-.053 33.059-1.128.331-2.52.105-3.883.105-1.34 0-2.752.082-3.936-.105-.228-6.215-.106-12.549-.105-18.838 0-5.314-.053-10.756-.053-16.477 0-.72-.12-1.512.158-2.204 2.337-.075 5.304-.075 7.714.105z"/><path d="m77.192.904c-.406.864-1.177 1.452-1.784 2.151-3.597 4.146-7.524 7.875-11.229 12.122-.562.643-1.462 1.509-1.364 2.519.067.706.771 1.316 1.311 1.627 1.571.903 3.812 1.157 5.93 1.679 3.029.747 6.069 1.047 7.767 2.991 1.553 1.367 1.12 4.75 1.102 7.766-.014 2.345.205 4.675-.053 6.56-2.244.254-5.243.078-7.713.052-.393-1.706-.036-3.643-.105-5.51-.074-2.013.23-4.258-.473-5.72-1.131-2.354-4.266-2.907-7.347-3.568-.904-.194-1.827-.504-2.729-.734-2.928-.75-5.993-1.462-6.297-4.775-.227-2.481 1.113-4.14 2.257-5.457 2.415-2.783 5.054-5.235 7.504-7.871 1.229-1.323 2.46-2.612 3.726-3.936 1.914-.042 3.813 0 5.72-.052 1.286-.037 2.578-.096 3.777.156z"/><path d="m28.495 47.922c-2.182-1.096-4.792-2.078-8.028-2.152-3.104-.071-7.127.68-7.189 3.936-.042 2.216 1.859 3.647 3.148 4.775 1.464 1.28 2.946 2.508 4.303 3.621 1.513 1.24 2.938 2.459 4.355 3.568.755.59 1.528 1.156 2.257 1.731.752.595 1.443 1.32 2.309 1.627.321-.749.157-1.803.157-2.834.001-1.001.016-2.051.158-2.886 4.687-.393 9.846.069 14.483-.263.179-2 .157-4.196.157-6.402 0-2.192-.21-4.442 0-6.35.146-1.333.902-2.369 1.836-2.991 1.643-1.092 4.936-.84 7.609-.84 8.3 0 17.124-.042 24.82.157.171 1.255.177 3.207 0 4.461-8.472.222-17.052-.065-26.08.104-.366.827-.209 1.896-.209 2.886 0 2.978-.065 6.14.104 8.921 1.02.281 2.13.157 3.201.157 6.545 0 13.497-.07 19.993.053 1.042.02 2.128-.147 3.096.21-.051 1.25.246 3.029-.105 4.198-8.393.295-17.489-.114-26.08.158-.278.606-.157 1.324-.157 1.994-.001 4.892.044 10.182-.104 14.746-.515.251-1.11.104-1.731.104-1.978 0-4.333.131-6.14-.157-.399-5.463.091-11.275-.263-16.687-1.703-.174-4.122-.174-5.825 0-.276 2.02-.051 4.23-.104 6.454-.051 2.085-.573 3.748-1.521 5.195-1.816 2.769-4.492 4.407-8.082 5.405-7.369 2.05-16.854.738-22.512-2.519-3.427-1.968-6.309-5.36-6.351-10.439-.037-4.451 2.276-7.144 5.038-8.868.963-.601 2.006-.983 3.043-1.574-.134-.725-.767-1.087-1.154-1.522-1.199-1.349-2.094-3.38-1.837-5.982.536-5.423 5.972-7.585 12.122-7.872 3.804-.177 7.68.273 10.758 1.154.804.23 2.526.708 2.624 1.26.095.542-.693 1.427-.945 1.836-.401.654-.615 1.259-1.154 1.627zm-16.005 13.591c-2.091.575-3.691 3.672-3.673 6.087.011 1.508.466 3.096.997 4.198.805 1.669 2.408 3.244 4.25 4.198 1.935 1.002 4.945 1.774 8.186 1.365 1.812-.229 3.673-.926 4.88-1.89.279-.223 1.074-.787 1.05-1.207-.016-.265-.524-.629-.84-.892-5.037-4.198-9.354-7.931-14.588-11.912-.19.008-.129.017-.262.053z"/></g></svg>