<svg enable-background="new 0 0 29.62 79.569" viewBox="0 0 29.62 79.569" xmlns="http://www.w3.org/2000/svg"><g clip-rule="evenodd" fill-rule="evenodd"><path d="m14.412.002c.058-.009.088.01.099.048.115 1.646.05 3.738.05 5.642 0 .624-.143 1.349.293 1.716.667-.151 1.231-.597 1.815-.932.562-.321 1.104-.679 1.669-1.03 1.479-.917 2.99-2.243 5.396-1.618 1.387.36 2.726 1.477 3.973 2.158.43.234.948.447 1.129.883-.889-.144-1.58-.905-2.404-1.275-1.213-.606-2.272-1.672-4.12-1.619-1.525.045-2.846 1.053-3.876 1.717-.501.323-1.099.621-1.766 1.029-.346.213-1.557.774-1.569 1.178-.013.413 1.18.915 1.668 1.177 1.793.961 3.541 2.077 5.298 3.09 1.073.62 2.335 1.417 3.483 2.159 1.156.749 2.486 1.357 3.188 2.404.539.804.886 1.843.884 2.943-.005 3.203-2.892 4.308-5.005 5.543-2.06 1.205-4.107 2.484-6.181 3.728-1.04.625-2.177 1.115-3.041 1.914.271.556.92.841 1.423 1.128 3.663 2.09 7.463 4.374 10.988 6.672 1.62 1.158 2.108 4.138 1.129 6.034-.791 1.531-2.272 2.263-3.876 3.188-2.728 1.574-5.519 3.14-8.191 4.758-.541.327-1.135.57-1.522 1.03.247.553.98.861 1.522 1.178 2.742 1.605 5.556 3.288 8.339 4.954 1.065.637 2.378 1.343 3.14 2.159 1.011 1.084 1.69 3.324.932 5.15-.798 1.92-3.247 2.965-5.003 4.023-1.953 1.174-3.874 2.117-5.69 3.286-.614.279-1.219.666-1.914 1.08-.436.259-1.579.685-1.766 1.226-.247.715.298 2.039-.147 2.846-.381-.401-.147-1.298-.196-2.011-.027-.377-.109-.708-.148-.982-.424-.556-1.149-.756-1.716-1.128-1.711-1.122-3.475-2.115-5.25-3.286-1.092-.722-2.23-1.526-3.433-2.257-1.535-.933-3.386-1.799-3.68-3.923.355.197.469.737.735 1.127.928 1.354 2.521 2.077 4.022 3.091 2.622 1.77 5.204 3.24 7.996 5.003.486.308 1.245.883 1.669.883.469 0 1.289-.636 1.814-.932 1.779-1.004 3.432-2.032 5.102-3.042 2.353-1.421 4.848-2.414 6.721-4.17 1.338-1.463 1.076-4.811-.393-5.935-2.077-1.47-4.426-2.67-6.524-4.12-1.718-.908-3.264-1.913-5.053-2.944-.458-.264-1.28-.882-1.767-.882-.426 0-1.242.587-1.765.882-1.701.958-3.344 1.976-5.004 2.894-1.098.607-2.219 1.209-3.336 1.962-1.039.701-2.482 1.216-3.189 2.061-.421.502-.72 1.31-.98 1.815-.086.307.01.795-.148 1.029-.272-.366-.086-.912 0-1.274.437-1.836 2.031-2.623 3.533-3.533 2.329-1.409 4.567-2.628 6.867-4.022 1.164-.705 2.374-1.273 3.336-2.109-.213-.604-.951-.684-1.374-1.079-3.643-2.047-7.016-4.364-10.596-6.475-1.836-1.153-2.623-4.114-1.373-6.377.621-1.126 1.781-1.826 3.041-2.551 3.046-1.752 5.583-3.379 8.683-5.2.452-.265 1.575-.814 1.569-1.177-.004-.302-1.04-.808-1.569-1.128-1.669-1.011-3.482-2.093-5.003-3.09-.517-.338-1.167-.579-1.718-.981-.534-.391-1.061-.76-1.618-1.079-1.612-.923-3.304-1.769-3.826-3.63-.321-1.145-.232-2.65.293-3.729.949-1.947 3.119-2.591 4.955-3.826 1.243-1.105 2.857-1.767 4.268-2.698 1.416-.933 2.954-1.634 4.17-2.747-.266-.579-.949-.825-1.472-1.128-.533-.309-1.074-.637-1.619-.932-1.098-.596-2.174-1.394-3.434-1.67-2.29-.501-3.948 1.243-5.396 2.11-.529.316-1.039.701-1.668.882-.002-.32.391-.417.589-.54.673-.412 1.351-.88 2.059-1.324.942-.589 2.006-1.169 3.091-1.521 2.004-.079 3.33.878 4.611 1.668.558.344 1.101.662 1.667.981.557.312 1.085.775 1.767.882.428-.395.294-1.085.294-1.668 0-.608-.048-1.286-.048-1.913-.001-1.273.055-2.632.048-3.679-.014-.077.047-.083.049-.145zm-3.679 10.399c-1.152.725-2.296 1.361-3.384 2.061-1.023.658-2.14 1.4-3.288 2.109-1.604.992-3.16 1.821-3.678 3.68-.492 1.766.187 3.506 1.03 4.316.787.758 2.04 1.393 3.188 2.109 1.186.739 2.352 1.501 3.336 2.012 1.577 1.046 3.241 2.001 4.955 2.992.515.298 1.198.899 1.815.883.457-.012 1.071-.528 1.57-.834 3.546-2.173 7.371-4.233 10.792-6.23 1.109-.994 2.056-1.783 2.207-3.63.219-2.666-1.69-4.035-3.287-4.955-1.699-.98-3.201-1.922-4.954-2.943-1.567-.914-3.244-2.037-4.905-2.944-.668-.364-1.382-.887-1.913-.784-.03.003-.059.007-.05.049-1.091.513-2.22 1.347-3.434 2.109zm2.109 21.829c-2.659 1.531-5.38 3.127-7.946 4.709-1.795 1.106-3.97 1.932-4.513 4.071-.459 1.804.217 3.426 1.275 4.464 3.581 2.549 7.479 4.62 11.282 7.015.491.309 1.247.892 1.766.883.476-.008 1.133-.595 1.668-.883 2.836-1.528 5.502-3.26 8.144-4.758 1.068-.605 2.333-1.186 3.188-1.962 1.393-1.262 1.838-3.891.785-5.789-.523-.941-2.108-1.818-3.188-2.453-3.059-1.793-5.788-3.488-8.83-5.298-.549-.326-1.401-1.002-1.963-.932-.575.157-1.052.58-1.668.933z"/><path d="m18.091 15.748c-.296-.271-.28-.669-.392-.981-.383-1.065-1.336-2.002-2.6-2.159-1.564-.193-2.699.723-3.434 1.766-.284.762-.411 1.612-.245 2.601-.917-2.323 1.236-4.972 3.777-4.66 1.188.145 2.011.976 2.55 1.913.24.414.508 1.005.344 1.52z"/><path d="m11.666 17.563c.488.271.8.886 1.422 1.079.789.245 1.638.156 2.453.343 1.397.321 2.436 1.198 2.601 2.748.236 2.241-1.371 4.18-3.484 4.169-1.913-.009-3.682-1.559-3.481-3.63.345.445.281.967.49 1.422.491 1.07 1.608 2.005 3.237 1.864 1.54-.133 2.901-1.347 2.992-3.042.08-1.497-.746-2.756-1.717-3.139-.602-.238-1.383-.23-2.061-.344-1.098-.182-2.092-.463-2.452-1.47z"/><path d="m12.008 36.008c.288 1.527-.092 3.723.197 5.249.677-.212 1.16-.783 1.667-1.226 1.012-.886 2.019-1.814 3.041-2.748.484-.442.894-1.061 1.57-1.275.003.425-.433.597-.687.834-1.279 1.192-2.471 2.447-3.925 3.63-.297.241-1.457 1.044-1.472 1.521-.015.518 1.103 1.261 1.472 1.569 1.399 1.174 2.577 2.403 3.974 3.581.233.196.675.388.588.785-.689-.125-1.097-.779-1.568-1.227-.484-.456-1.017-.896-1.522-1.324-1.028-.874-1.959-1.88-3.09-2.6-.317.273-.203.792-.197 1.227.006.423-.008.894 0 1.325.017.86.187 1.809-.097 2.501-.273-.081-.242-.546-.246-.785-.053-3.402.101-7.144.049-10.84.042.008.047-.02.049-.05-.014-.079.047-.084.05-.147z"/><path d="m18.533 59.358c-.195.471-.867.214-1.275.196-1.55-.068-3.344-.008-4.856 0-.385.479-.245 1.479-.245 2.354 0 .863-.142 1.838.245 2.306 1.323.072 2.878.194 4.268.196.591.001 1.257-.181 1.718.098-.359.231-.894.099-1.374.099-1.456 0-3.207-.04-4.611.048-.467.68-.198 2.997-.195 4.121.001.589-.028 1.3-.148 1.716-.281-.254-.132-.709-.146-1.029-.131-2.987 0-6.214 0-9.124 0-.403-.115-.93.245-1.128 1.928-.023 4.352-.024 6.374.147z"/></g></svg>