<svg enable-background="new 0 0 83.869 39.132" viewBox="0 0 83.869 39.132" xmlns="http://www.w3.org/2000/svg"><path clip-rule="evenodd" d="m33.095.2c.163 3.274.188 6.905 0 10.122-7.144.183-14.677-.121-21.823.148-.189 1.097-.104 2.724-.05 3.901.98.358 2.063.17 3.11.148 1.04-.022 2.103 0 3.16 0 6.434 0 13.279.169 19.75-.049.266-1.104.148-2.33.148-3.555 0-3.625-.133-7.498.099-10.715 14.46-.18 29.035-.099 43.45-.099.912 0 1.87-.112 2.765.148.215 4.055-.014 8.176 0 12.245.011 2.991.099 6.108.1 9.233 0 .99.2 1.984-.1 2.913-9.908.293-20.724.049-30.711.049-1.449 0-2.898-.119-4.296.148-.295 4.478.098 9.643-.197 14.122-1.651.253-3.578.148-5.48.148s-3.834.111-5.48-.148c-.278-4.477.072-9.796-.198-14.122-5.939-.229-12.232-.148-18.564-.148-6.329 0-12.701.061-18.615-.148-.228-7.837-.171-16.27-.1-24.291.299-.23 1.005-.152 1.383-.197 1.145-.138 2.495.04 3.802.049 9.106.069 18.725-.208 27.847.098zm33.723 10.221c-5.027 0-9.85-.049-14.714-.049-1.068 0-2.413-.105-3.21.049-.494.096-.277 1.421-.296 1.975-.03.907-.056 1.6.099 2.074 6.508.172 13.611.198 20.194.197 1.266 0 2.582.014 3.753-.148.162-1.1.162-2.85 0-3.95-1.864-.268-3.828-.148-5.826-.148z" fill-rule="evenodd"/></svg>