<svg enable-background="new 0 0 84.533 33.599" viewBox="0 0 84.533 33.599" xmlns="http://www.w3.org/2000/svg"><g clip-rule="evenodd" fill-rule="evenodd"><path d="m28.034 6.09c-.898.288-2.453.061-3.561.052-.611-.334-.588-.881-1.098-1.309-2.27-1.899-6.121.261-4.869 3.455.701 1.791 3.164 2.441 4.711 1.257.539-.412.697-.965 1.205-1.518 1.191-.021 2.709-.204 3.611.156.004 1.926-1.156 3.136-2.146 4.241-1.555 1.285-3.914 2.176-6.334 1.518-2.072-.562-3.875-2.268-4.66-4.136-1.184-2.819-.115-6.029 1.623-7.853 1.205-1.057 2.535-1.781 4.555-1.938 2.463-.19 4.699 1.305 5.916 3.089.564.828 1.107 1.96 1.047 2.986z"/><path d="m1.752 2.32c1.143-1.015 2.383-2.017 4.24-2.198 4.15-.404 6.775 2.255 7.592 5.183.643 2.299-.102 4.718-1.152 6.125-1.109 1.486-3.209 2.848-5.549 2.827-1.998-.018-3.742-.987-4.869-2.147-.867-.893-1.719-2.415-1.938-3.927-.337-2.342.481-4.274 1.676-5.863z"/><path d="m31.542 1.325c1.418-.748 3.016-1.519 5.236-1.099 3.107.588 5.551 3.684 5.496 7.12-.047 2.987-2.047 5.272-4.449 6.282-.576.241-1.373.604-1.99.628-.807.032-1.951-.236-2.723-.524-2.447-.911-4.559-3.718-4.449-6.806.091-2.59 1.373-4.103 2.879-5.601zm1.361 4.188c-1.545 2.571 1.338 5.83 4.031 4.293 2.432-1.387 1.481-5.781-1.623-5.654-1.143.047-2.041.75-2.408 1.361z"/><path d="m77.612.226c2.957-.071 5.043 1.733 6.074 3.664 2.658 4.976-1.338 10.726-6.492 10.366-2.371-.166-4.352-1.656-5.287-3.299-1.162-2.034-1.32-4.786-.158-7.015.912-1.747 2.361-2.999 4.504-3.561.365-.094.878-.144 1.359-.155z"/><path d="m48.399.278c1.736-.254 3.547.326 4.66 1.1 1.625 1.129 3.088 3.216 3.088 5.969.002 3.163-2.01 5.517-4.291 6.438-3.547 1.434-6.975-.546-8.377-2.931-.555-.943-1.084-2.432-1.1-3.456-.016-1.011.604-2.775.994-3.508.684-1.281 1.967-2.535 3.402-3.141.462-.194 1.065-.389 1.624-.471z"/><path d="m62.954.331c2.098-.178 3.68.512 4.869 1.518 1.42 1.2 2.541 3.134 2.514 5.706-.053 4.74-5.061 8.223-9.791 5.969-2.482-1.184-4.947-4.59-3.561-8.586.613-1.767 2.162-3.464 3.979-4.188.587-.235 1.378-.367 1.99-.419z"/><path d="m21.071 14.518c2.088-.141 4.084.897 5.184 2.042.971 1.012 1.998 3.028 2.041 4.921.031 1.344-.391 2.601-.838 3.456-.598 1.149-1.881 2.341-2.879 2.879-2.617 1.411-6.065.851-8.062-1.1-.951-.928-1.902-2.411-2.094-4.136-.287-2.579.811-4.816 1.938-6.021 1.087-1.164 2.472-1.889 4.71-2.041zm-2.565 5.864c-.689 1.783.41 4.04 2.25 4.293 2.225.307 4.027-1.726 3.508-3.874-.35-1.453-1.527-2.354-3.193-2.199-1.332.124-2.219.881-2.565 1.78z"/><path d="m42.274 21.324c.781-3.391 2.674-6.469 6.648-6.701.406-.024.828-.01 1.258.053 5.312.778 7.799 7.744 4.135 11.832-1.188 1.325-3.316 2.494-5.863 2.199-1.354-.158-2.699-.854-3.561-1.571-1.375-1.146-2.105-2.868-2.564-4.921-.449 1.437-.83 2.827-1.729 3.926-1.01 1.235-2.795 2.316-4.658 2.461-1.229.095-2.133-.344-3.299-.628-.385.709-.285 1.792-.262 2.774.023.968.107 1.939-.104 2.723-.928.167-2.531.176-3.457 0-.197-3.741-.231-7.744-.209-11.517.023-4.133 2.662-7.273 6.649-7.487 2.949-.158 5.76 2.395 6.545 4.816.227.699.237 1.376.471 2.041zm-9.633-.89c-.799 2.107.676 3.95 2.252 4.24 2.15.397 3.604-1.615 3.455-3.402-.133-1.605-1.539-2.877-3.352-2.671-1.195.087-2.126 1.233-2.355 1.833z"/><path d="m1.858 16.665c1.559-1.672 4.811-2.785 7.643-1.623 2.316.95 4.267 3.375 4.346 6.439.082 3.138-1.848 5.684-4.188 6.701-4.076 1.771-8.375-.815-9.371-4.45-.778-2.832.191-5.335 1.57-7.067z"/><path d="m58.555 16.665c1.283-.95 2.67-1.979 4.713-2.042 3.045-.093 5.18 1.901 6.125 3.561 1.008 1.767 1.234 4.421.471 6.282-.99 2.42-3.5 4.34-6.543 4.293-3.008-.046-5.355-2.113-6.23-4.293-1.087-2.706-.19-6.117 1.464-7.801z"/><path d="m77.194 14.676c4.496-.125 7.625 3.34 7.277 7.905-.129 1.696-.877 3.035-1.781 3.979-1.098 1.149-3.029 2.225-5.078 2.252-2.705.034-4.699-1.594-5.705-3.246-.693-1.138-1.236-2.976-.943-4.922.271-1.785 1.113-3.266 2.199-4.24 1.048-.942 2.267-1.503 4.031-1.728z"/></g></svg>