<svg enable-background="new 0 0 77.357 59.813" viewBox="0 0 77.357 59.813" xmlns="http://www.w3.org/2000/svg"><path clip-rule="evenodd" d="m25.62.118c.183 2.877.168 5.897.203 8.751.011.931-.193 1.874.101 2.731 7.957.19 16.419.151 24.836.152 3.968 0 8.419.05 12.393.051 2.168 0 4.183-.198 5.817.253 1.651.456 2.965 1.211 4.098 2.175 2.299 1.957 4.084 4.533 4.249 8.296.09 2.047 0 4.087 0 6.171v6.272c.001 8.151.014 16.767-.203 24.736-18.42.241-37.758 0-56.097 0-2.643 0-5.275.163-7.486-.455-4.193-1.172-7.287-3.533-9.611-6.728-2.274-3.126-3.897-7.443-3.389-12.696.452-4.67 2.682-8.398 5.311-11.027 2.09-2.09 4.496-3.604 7.739-4.502 1.02-.283 2.128-.388 3.238-.81.05-.794.141-1.757.05-2.529-1.294-.352-2.695-.152-4.097-.152-3.964 0-8.414-.007-12.596-.152-.265-.632-.151-1.415-.151-2.175 0-2.166-.115-4.759.151-6.728 5.38-.319 11.342.19 16.744-.152.269-.835.152-1.839.152-2.883 0-1.961-.023-3.862 0-5.969.008-.789-.081-2.275.202-2.63.037-.047.092-.077.152-.101 2.699.065 5.663-.133 8.194.101zm43.502 30.198c0-2.275.343-5.748-.405-7.335-1.065-2.263-3.338-2.125-6.677-2.125-11.309.001-22.033-.05-33.233-.05-.869 0-1.976-.161-2.58 0-.727.194-.395 1.966-.303 2.63 1.16.271 2.383.152 3.591.152 3.776 0 7.534.001 11.28 0 4.973 0 9.994-.127 14.821.101 1.301.062 2.308.14 3.339.405 2.923.753 5.078 2.474 6.677 4.603 2.154 2.87 3.421 7.148 1.821 11.685-1.274 3.613-3.922 6.207-7.436 7.587-1.886.741-4.135.759-6.728.759-7.127 0-14.696-.038-22.004-.05-3.572-.006-7.419-.184-10.876-.051-1.212.047-2.434.191-3.591-.101-.11-4.696-.02-9.432 0-13.759.002-.587.08-1.262-.203-1.771-1.666.063-3.092.874-4.199 1.771-2.221 1.8-3.861 4.662-3.439 8.549.435 4.008 2.963 6.61 6.222 7.739 1.928.668 4.542.542 7.284.607 4.729.112 10.517-.222 15.48-.05 5.049.175 10.279.05 15.478.051 3.914 0 7.938-.001 11.786 0 1.278 0 2.571.162 3.743-.101.188-6.748.152-14.044.152-21.246zm-16.288 9.915c1.311 0 2.725.085 3.743-.202 1.147-.324 2.174-1.267 2.58-2.428.775-2.216-.715-4.069-2.225-4.603-.792-.28-2.405-.195-3.743-.202-7.913-.043-15.378.032-23.016-.051-1.293-.014-3.049-.171-4.047 0-.611.105-.354 2.679-.354 3.541 0 1.338-.116 2.861.152 3.794 8.588.125 18.274.151 26.91.151z" fill-rule="evenodd"/></svg>