<svg enable-background="new 0 0 81.458 31.159" viewBox="0 0 81.458 31.159" xmlns="http://www.w3.org/2000/svg"><path clip-rule="evenodd" d="m19.244.098c.264 1.621.146 3.363.146 5.121v13.166c0 .812-.157 1.674.098 2.438 13.941.248 28.601.199 42.766.049.262-.791.146-1.867.146-2.877 0-1.02.151-2.049-.049-2.877-.539-.258-1.185-.147-1.755-.147-8.997 0-18.944.074-27.406-.098-.216-.488-.229-1.66 0-2.144 9.727-.289 19.39.154 29.112-.195.279-1.391.175-3.322 0-4.682-9.498-.252-19.826.035-29.112-.195-.236-.438-.223-1.656 0-2.096 4.706-.057 9.805-.123 14.727-.049 2.395.035 4.86-.162 7.266-.049 2.429.113 4.839.08 7.119-.098.392-1.43-.067-3.709.244-5.219 6.099-.182 12.76-.145 18.726.049.1 7.059.205 13.35.098 20.385-.031 2.051.342 4.727-.244 6.484-.547 1.644-1.81 2.832-3.315 3.512-1.568.707-3.935.537-6.291.537-13.502 0-26.867 0-40.474 0-2.242 0-4.564.102-6.827 0-4.503-.205-8.743.01-12.922-.049-1.128-.018-2.234-.051-3.316 0-1.091.051-2.207.035-3.218-.147-2.251-.408-3.927-2.365-4.486-4.486-.32-1.213-.172-2.723-.244-4.244-.069-1.455 0-3.021 0-4.484-.002-5.113.046-10.033.047-15.459 0-.648-.096-1.945.147-2.146.035-.045.088-.072.146-.098 6.484.037 12.816-.07 18.871.098z" fill-rule="evenodd"/></svg>