<svg enable-background="new 0 0 76.03 68.376" viewBox="0 0 76.03 68.376" xmlns="http://www.w3.org/2000/svg"><path clip-rule="evenodd" d="m75.92.289c.215 9.939.048 19.856.048 29.771 0 5.207.216 10.404-.531 14.547-1.513 8.379-5.951 14.062-11.744 18.365-2.763 2.051-6.425 3.863-10.294 4.736-1.004.225-2.144.338-3.335.436-3.363.27-7.304.283-11.02.145-5.225-.197-9.811.273-14.45-.387-4.354-.621-7.738-2.213-10.874-4.205-6.062-3.854-10.584-9.576-12.759-17.35-1.119-4.004-1.299-9.037-.338-13.435 1.738-7.967 6.213-14.096 12.034-18.076 4.462-3.051 10.02-5.205 17.446-5.025 2.284.055 4.683.072 7.201-.098.259-2.16.146-4.967.144-7.441 0-.809-.184-1.703.242-2.271 12.696.112 25.833-.019 38.23.288zm-52.292 30.932c-2.528 1.678-5.018 5.133-4.156 9.568.364 1.879 1.316 3.4 2.416 4.592 1.062 1.15 2.513 2.207 4.35 2.658 1.759.43 4.446.289 6.718.289 4.618 0 9.237.096 13.919.098 2.408 0 3.98-.457 5.51-1.451 2.626-1.705 4.953-5.141 4.011-9.713-.722-3.508-3.49-6.246-6.814-7.201-1.79-.516-4.02-.484-6.524-.484-4.616.002-9.441-.269-14.016 0-2.309.136-4.009.71-5.414 1.644z" fill-rule="evenodd"/></svg>