<svg enable-background="new 0 0 89.052 67.517" viewBox="0 0 89.052 67.517" xmlns="http://www.w3.org/2000/svg"><g clip-rule="evenodd" fill-rule="evenodd"><path d="m43.082.164c.006.503-.481.845-.78 1.143-9.737 9.738-19.487 19.487-29.312 29.313-.292.293-.587.64-.987 1.04-.362.362-.934.718-.936 1.04-.002.385 1.036 1.244 1.352 1.559 5.328 5.329 10.371 10.522 15.747 15.799 1.318 1.294 2.895 2.746 4.366 4.262.416.428 1.05 1.34 1.507 1.352.475.012 1.125-.917 1.507-1.299 1.378-1.378 2.851-2.799 4.158-4.106 1.87-1.869 3.753-3.516 5.405-5.665-1.055-1.45-2.287-2.65-3.638-4.002-.319-.318-1.17-.908-1.195-1.299-.029-.449.82-1.028 1.195-1.403 2.955-2.955 5.931-6.317 8.991-8.991.778.543 1.416 1.26 2.079 1.923 1.963 1.964 3.978 3.978 5.977 5.977 2.659 2.66 5.344 5.293 7.9 8.056-.76 1.118-1.814 1.969-2.754 2.91-5.6 5.6-11.187 11.238-16.891 16.943-.412.412-.906.887-1.403 1.403-.447.464-1.079 1.181-1.507 1.3-.626.173-1.703 0-2.702 0-4.677 0-9.235-.052-13.825-.052-1.849 0-3.856.238-5.509-.052-.535-.094-1.048-.782-1.559-1.299-5.934-5.998-11.711-11.71-17.671-17.67-.408-.408-.858-.842-1.299-1.403-.437-.558-1.074-1.025-1.195-1.507-.185-.735-.052-1.817-.052-2.807 0-6 0-11.621 0-17.567 0-1.015-.139-2.126.052-2.858.118-.45.79-1.103 1.195-1.559 1.247-1.402 2.822-2.822 4.106-4.106 1.88-1.88 3.6-3.696 5.405-5.509 2.972-3.033 6.294-6.397 9.511-9.615.475-.475 1.025-1.253 1.611-1.351.803-.135 1.799 0 2.703 0 6.188-.004 12.433-.036 18.448.1z"/><path d="m45.837 67.364c.006-.541.562-.822.883-1.144l28.221-28.221c.699-.698 1.443-1.351 2.131-2.079.674-.712 1.454-1.341 1.975-2.183-.776-1.062-1.796-1.953-2.755-2.911-6.129-6.13-12.088-12.255-18.398-18.398-.424-.413-1.007-1.337-1.455-1.351-.456-.015-1.238.978-1.611 1.351-3.419 3.42-6.847 6.775-10.135 10.239.6 1.115 1.677 1.753 2.443 2.703.418.419.809.861 1.247 1.299.263.262 1.196.887 1.196 1.351 0 .359-.94 1.149-1.196 1.403-2.933 2.934-6.032 6.288-8.991 8.939-1.556-1.131-2.74-2.677-4.158-4.002-3.338-3.436-6.774-6.774-10.083-10.238-.269-.244-.641-.574-1.04-.988-.255-.266-.924-.74-.935-1.091-.018-.532 1.569-1.83 1.923-2.183 4.705-4.706 9.724-9.745 14.344-14.292 1.053-1.31 2.869-2.573 4.106-4.054.552-.661.785-1.277 1.559-1.403.791-.129 1.795.052 2.754.052h19.282c3.795 3.55 7.397 7.293 11.07 10.966 3.664 3.665 7.349 7.308 10.81 11.174.054 7.573.019 15.63-.052 23.388-.25.612-.79 1.05-1.247 1.507-3.107 3.107-6.204 6.417-9.459 9.459-3.129 3.242-6.176 6.228-9.459 9.511-.431.431-.977 1.113-1.455 1.248-.679.19-1.769.052-2.703.052-6.182 0-12.835.085-18.812-.104z"/></g></svg>