<svg enable-background="new 0 0 68.965 78.6" viewBox="0 0 68.965 78.6" xmlns="http://www.w3.org/2000/svg"><g clip-rule="evenodd" fill-rule="evenodd"><path d="m42.511 3.827c-.62.854-1.879 1.069-2.8 1.622-6.036 2.841-11.794 6.059-17.93 8.94-.781.367-2.139.828-2.161 1.67-.023.826 1.287 1.409 2.014 1.768.89.439 1.842.884 2.899.884 1.161 0 2.566-.539 3.536-1.031 3.088-1.566 5.885-3.058 9.039-4.618 3.451-1.707 7.043-3.54 10.562-5.403.497-.264 1.132-.709 1.522-.737.712-.05 1.619.582 2.26.885 1.601.755 2.609 1.237 4.273 2.014.382.178 1.932.726 1.965 1.13.028.333-.814.715-1.326.982-3.52 1.837-7.084 3.659-10.512 5.502-3.46 1.859-6.77 3.689-10.415 5.6-.431.226-1.308.637-1.325.934-.03.502 1.92 1.244 2.308 1.424 1.764.82 3.102 1.546 4.913 2.457.592.298 2.242 1.046 2.26 1.424.015.324-.715.655-1.032.836-2.505 1.425-4.639 2.645-7.123 4.028-.384.214-.899.589-1.228.589-.505 0-1.616-.751-2.21-1.081-4.891-2.715-9.755-5.357-14.639-8.056-4.941-2.73-9.798-5.289-14.737-8.007-.671-.369-1.417-.714-1.965-1.277.434-.684 1.306-.856 1.965-1.179 7.608-3.729 15.475-7.274 23.088-11.102 2.057-1.034 4.204-2.009 6.337-2.997.712-.33 1.414-.719 2.112-.982.628-.237 1.643.521 2.309.835 1.461.689 2.751 1.187 4.126 1.867.679.336 1.441.516 1.915 1.079z"/><path d="m68.546 16.403c.042-.009.047.019.049.049.438.391.228 1.309.246 2.063.051 2.142.075 4.426-.049 6.534-.687.864-1.768 1.263-2.702 1.817-2.801 1.659-5.586 3.337-8.498 4.961-1.875 1.045-3.637 2.371-5.551 3.438-.972.542-1.949 1.072-2.898 1.621-1.254.725-3.287 1.527-3.783 2.947-.241.691-.146 1.659-.146 2.898 0 1.191.012 2.209.736 2.358.875.179 2.424-1.131 2.997-1.474 1.055-.632 1.928-1.021 2.849-1.572 5.132-3.071 10.116-6.04 15.228-9.137.447-.271.898-.675 1.475-.639.591.279.393 1.186.393 1.916v4.568c0 .808.123 1.627-.049 2.112-.27.761-2.145 1.646-2.8 2.063-1.06.674-2.11 1.247-3.046 1.817-2.017 1.23-3.998 2.677-5.846 3.831-3.105 1.941-5.824 3.616-8.989 5.6-1.109.695-2.266 1.33-2.652 2.309-.255.645-.246 1.789-.246 2.997 0 1.275-.003 2.282.786 2.407.517.082 1.156-.384 1.621-.688 5.141-3.353 10.289-6.6 15.326-9.972.917-.614 1.897-1.167 2.849-1.768.458-.289.949-.582 1.425-.885.443-.282.956-.681 1.523-.639.265 1.21.147 2.694.147 4.126.001 1.443.04 2.907-.049 4.225-.473.71-1.295 1.076-1.965 1.523-4.835 3.224-9.631 6.65-14.54 9.825-5.265 3.405-10.521 6.85-15.769 10.365-.334.224-.667.619-1.13.491-.263-7.065-.148-14.313-.148-21.516-.001-7.213-.09-14.314 0-21.418.469-.663 1.295-.95 1.965-1.326 2.054-1.152 4.091-2.409 6.189-3.586 2.755-1.544 5.517-3.131 8.302-4.716 2.706-1.539 5.608-3.046 8.351-4.716 1.992-1.212 4.145-2.342 6.189-3.586.73-.44 1.477-.857 2.21-1.223z"/><path d="m.216 17.336c1.241.488 3.143 1.55 4.372 2.211 4.221 2.268 8.567 4.65 12.723 6.877 4.284 2.296 8.438 4.575 12.674 6.927.691.384 1.423.737 2.112 1.129.683.389 1.479.624 2.015 1.228.089 2.102.049 4.481.049 6.73 0 .71.119 1.463-.147 2.063-.621.108-1.1-.376-1.572-.638-3.445-1.919-6.865-3.766-10.414-5.699-1.952-1.063-3.752-2.241-5.846-3.34-1.572-.825-2.873-1.583-4.421-2.505-.479-.285-1.087-.725-1.572-.688-1.479.114-1.189 4.168-.688 5.306.426.964 1.566 1.701 2.653 2.357 2.18 1.318 4.032 2.453 6.287 3.635 1.049.55 2.096 1.301 3.095 1.867 3.66 2.07 7.357 4.176 11.15 6.288.544.302 1.261.651 1.426 1.032.326.757.098 2.255.098 3.34-.001 8.025.119 15.738-.098 23.137-.442.064-.839-.284-1.18-.491-2.479-1.511-4.979-3.229-7.467-4.814-5.665-3.608-11.208-7.475-16.948-11.053-2.141-1.334-4.179-2.803-6.337-4.175-.69-.439-1.452-.861-2.014-1.474-.145-1.285-.099-2.755-.099-4.225 0-1.442-.118-2.961.147-4.175.562-.029 1.076.357 1.522.639 3.19 2.011 6.349 3.998 9.678 6.042 1.782 1.094 3.665 2.208 5.551 3.438.892.582 1.753 1.053 2.751 1.769.689.494 2.274 1.612 3.045 1.474.854-.154.984-1.096.934-2.309-.059-1.408-.06-2.466-.54-3.291-.524-.899-1.611-1.483-2.604-2.112-5.762-3.656-11.698-7.178-17.584-10.71-.973-.584-1.987-1.104-2.849-1.818-.175-3.852-.099-7.87-.099-12.035 0-2.848 0-5.816 0-8.891 0-.917-.067-2.307.049-2.898.028-.071.077-.12.148-.148z"/></g></svg>