<svg enable-background="new 0 0 89.734 29.814" viewBox="0 0 89.734 29.814" xmlns="http://www.w3.org/2000/svg"><path clip-rule="evenodd" d="m48.246.269c.19 2.582.104 5.621.104 8.449 0 .932-.125 1.875.157 2.676 1.386-.234 2.669-.832 3.988-1.312 7.885-2.867 16.015-5.592 23.981-8.397.609-.213 1.283-.461 1.941-.734.66-.273 1.426-.604 1.994-.682 1.332-.184 2.824 0 4.251 0 1.428 0 2.867-.072 4.197.105-.762.592-1.732.748-2.623 1.049-2.612.881-5.322 1.908-7.977 2.939-3.547 1.377-7.188 2.561-10.81 3.777-5.429 1.822-10.767 3.863-16.215 5.668-1.763.584-3.545 1.215-5.195 2.047.821.275 1.724.193 2.571.156 2.76-.121 5.438.053 8.187.053 7.319-.002 14.633.105 21.934.105 3.675 0 7.4-.121 10.862.156.159.777.184 2.037.053 2.781-6.942.26-14.421.004-21.358.158-.359.379-.238 1.666-.104 2.203.625.271 1.311.113 2.047.105 4.591-.045 9.912.053 14.745.053 1.613 0 3.209-.107 4.671.156.058 2.307.151 5.533-.053 7.924-9.188.141-19.018.18-28.39-.104-.268-.572-.199-1.918-.053-2.572 1.679-.32 3.475-.133 5.248-.106 5.172.08 10.701.08 16.109 0 .307-.422.268-1.592.106-2.15-.826-.277-1.755-.158-2.623-.158-4.485 0-8.997.057-13.539-.053-1.802-.043-3.6.156-5.301-.156-.335-1.535.15-3.734-.209-5.142-6.503-.268-13.69-.158-20.519-.158-.928 0-1.867-.201-2.729.105-.194 2.367-.235 4.936-.053 7.399 1.018.351 2.193.191 3.358.211 3.391.053 7.167.09 10.548-.053.266-.41.206-1.609.053-2.1-.849-.283-1.851-.156-2.834-.156-2.812 0-6.052.119-8.658-.158-.142-.729-.097-2.012.053-2.781 3.047-.158 6.316-.018 9.341-.053s6.173-.164 9.131.158c.143 2.26.169 5.527 0 7.871-1.074.256-2.22.105-3.359.105-8.127-.002-16.479.145-24.453-.158-.266-2.426-.105-5.137-.105-7.766.001-.885.122-1.783-.157-2.572-7.717-.252-16.092-.228-23.614-.105-.261.457-.197 1.617-.052 2.152 5.024.271 10.813.156 16.109.158.916 0 1.838-.043 2.729 0 .854.039 1.728-.049 2.519.209.118 2.467.214 5.406-.053 7.924-2.303.144-4.655.053-7.031.053-6.056 0-11.635-.051-17.632-.053-1.14 0-2.312.123-3.411-.158-.176-.652-.16-1.914 0-2.57 6.873-.311 14.457.129 21.253-.105.267-.424.205-1.647.052-2.15-.805-.291-1.706-.082-2.57-.105-4.98-.139-10.923-.105-16.163-.105-.869 0-1.768.123-2.571-.158-.23-2.525-.085-5.572 0-8.133 1.3-.279 2.672-.135 3.988-.106 4.246.096 8.494 0 12.751 0 7.316.002 14.461.106 21.726.106 1.741 0 3.538.109 5.194-.106-.748-.547-1.663-.816-2.518-1.154-.871-.342-1.793-.631-2.676-.943-12.323-4.362-24.85-9.065-37.256-13.434-.157-.068-.579-.201-.314-.367 14.961.014 32.52-.102 47.227.262zm-29.124 2.937c.74.619 1.731.84 2.624 1.156 6.505 2.303 12.873 4.811 19.416 7.031.412-.799.157-1.932.157-2.939 0-1.721.194-3.619-.053-5.195-7.208-.133-15.341-.316-22.144-.053z" fill-rule="evenodd"/></svg>