<svg enable-background="new 0 0 75.866 76.841" viewBox="0 0 75.866 76.841" xmlns="http://www.w3.org/2000/svg"><path clip-rule="evenodd" d="m61.329 14.138c-.723.764-1.396 1.537-2.224 2.365-.231.232-.587.658-.852.662-.209.004-.688-.434-.946-.615-4.548-3.184-9.639-5.592-17.226-5.82-3.92-.119-7.278.943-10.127 2.178-2.925 1.266-5.434 2.924-7.383 4.873-2.041 2.041-3.848 4.295-5.206 7.1-1.336 2.762-2.391 6.076-2.603 9.654-.477 8.059 2.567 13.613 6.862 17.604 3.88 3.603 10.921 6.844 18.551 4.922 3.362-.848 5.547-2.379 7.713-4.59 1.986-2.027 3.63-4.719 4.307-7.951.409-1.953.574-3.848.331-5.631-.658-4.844-4.167-8.742-8.139-10.27-1.536-.59-3.509-.904-5.3-.662-3.513.473-5.817 2.494-6.909 5.394-.563 1.492-.859 3.492-.047 5.016.519.975 2.121 2.701 4.259 2.225 1.024-.229 1.161-1.074 1.798-1.846 1.16-.053 2.751-.135 3.833.047.18 1.885.084 4.113-.047 5.916-4.659.156-9.76.104-14.386 0-.086-6.955-.167-13.969 0-20.728.891-.25 1.834-.141 2.745-.141 13.871-.004 28.313.057 42.591.094 2.924 5.828 3.768 15.18 2.082 23.047-1.546 7.215-5.249 12.951-9.275 17.603-4.11 4.75-9.698 8.393-16.421 10.459-3.597 1.106-7.272 1.799-11.642 1.799-2.149 0-4.137-.346-6.104-.615-1.863-.256-3.712-.76-5.442-1.277-6.625-1.986-12.132-5.859-16.422-10.507-2.174-2.357-3.828-5.119-5.395-8.045-1.603-2.996-2.797-6.24-3.549-9.891-1.679-8.152-.386-16.982 2.177-23.094 2.664-6.355 6.476-11.396 11.594-15.287 4.373-3.24 9.341-6.076 15.664-7.381 2.158-.447 4.437-.594 6.957-.711 6.392-.296 11.369 1.358 15.805 3.266 3.233 1.391 6.258 3.139 8.896 5.301.397.324.772.609 1.278 1.088.285.269 1.12.99 1.136 1.23.03.455-1.156 1.383-1.419 1.656-.605.626-1.158 1.176-1.515 1.563z" fill-rule="evenodd"/></svg>