<svg enable-background="new 0 0 66.189 75.873" viewBox="0 0 66.189 75.873" xmlns="http://www.w3.org/2000/svg"><path clip-rule="evenodd" d="m65.431 6.89c-1.351.189-3.239.1-4.67.049-.55-.389-.604-1.018-1.168-1.559-1.096-1.049-3.443-1.424-5.156-.826-.671.234-1.537.916-1.46 1.801.065.754.741 1.267 1.362 1.557 1.373.637 2.972.807 4.523 1.166 3.476.809 6.417 1.924 7.151 5.4.929 4.398-2.01 6.926-5.205 8.025-1.682.578-4.082.391-6.421.391-8.447-.002-17.859-.295-26.658-.049-.164.945-.211 2.494-.048 3.551.502.256 1.137.147 1.702.147 4.217-.002 8.368.096 12.696.096 4.948 0 10.175-.381 12.988 1.703.676.502 1.525 1.463 1.994 2.238.513.848.946 1.947.925 3.162-1.275.309-3.027-.014-4.573.096-.494-.41-.59-1.055-1.022-1.555-1.474-1.711-6.373-2.236-6.956.582v.098c.353 1.77 2.345 1.932 4.086 2.336 2.932.678 6.09 1.135 7.881 3.064 1.217 1.312 1.673 3.678 1.167 5.74-.659 2.688-3.052 4.516-5.788 5.156-1.01.236-2.117.145-3.405.146-7.177 0-14.54-.162-21.695-.049-.289.93-.127 2.561-.098 3.648.734.258 1.55.145 2.335.145 8.909 0 18.192.193 27.095.195 3.167 0 5.506 1.123 6.908 2.967.856.961 1.569 2.32 1.605 3.941-1.399.189-3.337.1-4.816.047-.441-.406-.559-.965-.876-1.41-.879-1.234-2.871-1.887-4.962-1.361-.775.195-1.929.93-1.897 1.945.02.604.573 1.113 1.022 1.363 1.384.768 3.271.873 5.059 1.312 1.767.436 3.421.867 4.622 1.703 1.153.738 2.215 2.109 2.432 3.891.242 1.994-.336 3.777-1.265 4.963-1.403 1.658-3.51 3.055-6.421 3.113-9.171.18-19.068-.146-28.312-.146-6.176 0-12.532-.096-18.825-.098-1.677 0-3.071-.029-4.427-.34-2.532-.582-4.56-1.689-5.789-3.697-.588-.961-1.117-2.191-1.07-3.551.688-.256 1.645-.146 2.579-.146.901 0 1.853-.074 2.577.098.45.566.407 1.027.778 1.605.991 1.541 3.97 2.518 6.421 1.41.646-.291 1.411-.984 1.411-1.848.001-1.469-1.718-2.029-2.87-2.336-1.513-.404-2.998-.539-4.28-.924-2.68-.805-5.35-1.633-6.275-4.135-.487-1.318-.292-3.281-.292-4.914.001-4.5.077-8.51.098-12.939.004-.807-.196-1.633.097-2.383 1.592-.082 3.516-.08 5.108 0 .372.477.281.945.535 1.41 1.09 1.994 4.276 2.598 6.664 1.557.609-.266 1.271-.889 1.313-1.557.064-1-.837-1.768-1.313-2.043-.898-.518-2.205-.734-3.356-.973-3.502-.729-7.32-1.256-8.659-4.232-.587-1.307-.39-3.359-.389-5.01 0-5.234-.023-10.186.146-15.713.691-.256 1.643-.146 2.578-.146.894 0 1.852-.064 2.578.098.354.578.361 1.025.681 1.508 1.003 1.516 3.396 2.461 6.032 1.606.72-.233 1.942-.967 1.8-2.043-.102-.777-.654-1.24-.973-1.459-.765-.525-2.142-.832-3.356-1.119-2.548-.602-4.824-.955-6.615-2.334-.759-.586-1.592-1.516-1.897-2.531-.767-2.545.449-4.904 1.46-5.982 1.242-1.326 2.784-2.281 5.351-2.432 2.621-.154 5.356-.053 8.026.049 2.67.1 5.367.047 8.026.047 10.819.002 21.241.147 32.057.147 3.972 0 6.838 1.094 8.465 3.648.49.771 1.103 1.769.924 2.92z" fill-rule="evenodd"/></svg>