<svg clip-rule="evenodd" fill-rule="evenodd" stroke-linejoin="round" stroke-miterlimit="2" viewBox="0 0 560 400" xmlns="http://www.w3.org/2000/svg"><path d="m365.8 199.7v379.3c0 29.8 99.8 29.8 99.8 0v-379.3l-114.3-198c-.6-1.1-1.7-1.7-2.9-1.7h-5.7c-.8 0-1.4.2-2 .7-22.6 17.2-54.2 17.2-76.9 0-.6-.5-1.3-.7-2-.7h-5.5c-1.2 0-2.3.6-2.9 1.7s-.6 2.3 0 3.3zm-252.9 0-112.4-194.7c-.6-1.1-.6-2.3 0-3.3.6-1.1 1.6-1.7 2.8-1.7h5.5c.8 0 1.4.2 2 .7 22.6 17.2 54.2 17.2 76.9 0 .7-.5 1.3-.7 2.1-.7h5.7c1.2 0 2.3.6 2.9 1.7l114.3 198v379.3c0 29.8-99.8 29.8-99.8 0zm126.4 0-112.4-194.7c-.6-1.1-.6-2.3 0-3.3.6-1.1 1.7-1.7 2.9-1.7h5.5c.8 0 1.4.2 2 .7 22.6 17.2 54.2 17.2 76.9 0 .6-.5 1.3-.7 2-.7h5.7c1.2 0 2.3.6 2.9 1.7l114.3 198v379.3c0 14.9-25 22.4-49.9 22.4-25 0-49.9-7.5-49.9-22.4z" transform="matrix(.429599 0 0 .429599 179.979 70.8195)"/></svg>