<svg enable-background="new 0 0 67.452 52.778" viewBox="0 0 67.452 52.778" xmlns="http://www.w3.org/2000/svg"><path clip-rule="evenodd" d="m33.681 0c.421.123 1.191.78 1.758 1.143.623.399 1.163.81 1.671 1.144 1.173.772 2.319 1.517 3.385 2.242 1.125.765 2.36 1.38 3.517 2.11 3.461 2.182 6.787 4.468 10.332 6.595 2.339 1.403 4.569 2.954 6.551 4.704 3.483 2.974 6.386 6.317 6.551 12.223.085 3.061-.829 5.489-1.979 7.43-1.173 1.981-2.9 3.441-4.44 4.924-.774.746-1.715 1.381-2.638 2.066-5.36 3.981-11.76 6.998-20.224 7.958-7.516.853-14.577-.693-20.092-2.814-2.225-.855-4.217-2.065-6.199-3.209-1.979-1.142-3.835-2.514-5.452-3.913-3.237-2.802-6.548-6.352-6.419-12.266.128-5.856 3.065-9.276 6.551-12.179 4.067-3.468 8.824-6.147 13.41-9.1 3.426-2.207 6.822-4.454 10.376-6.508 1.16-.67 2.399-1.325 3.209-2.418.025-.063.069-.107.132-.132zm-19.037 22.291c-1.1 0-2.197-.111-3.165-.044-2.245.155-3.72 1.77-3.781 4.001 1.069.245 2.239.123 3.385.132 4.443.036 9.225.032 13.322-.088.255-1.089.093-2.788 0-3.957-2.996-.203-6.657-.044-9.761-.044zm11.959 0c-.052.021-.1.047-.132.088-.218.173-.132 1.295-.132 1.891 0 4.616-.071 9.56.088 13.805 1.009.231 2.748.171 3.825.044.155-1.272.139-2.638.132-4.001-.016-2.922.06-6.07-.044-8.837-.037-.989.134-1.977-.132-2.902-1.033-.198-2.428-.035-3.605-.088zm13.76.087c-.379.461-.219 1.16-.219 1.759 0 4.645-.072 9.599.088 14.025 1.012.217 2.856.213 3.869 0 .15-5.031.141-10.663 0-15.696-.997-.253-2.601-.119-3.738-.088zm15.916-.044c-3.179 0-6.81-.036-9.848.044-.296.417-.176 1.183-.176 1.891 0 .698-.088 1.467.132 1.934.968.207 2.056.153 3.121.132 1.106-.021 2.212-.044 3.341-.044 2.223 0 4.525.191 6.551-.088.147-1.118.075-2.545-.044-3.737-.963-.238-2.015-.132-3.077-.132zm-17.806 8.837c-1.564-2.246-3.567-4.053-5.056-6.375-.531-.436-.847-1.087-1.407-1.495-.002-.027-.007-.052-.044-.044-.063.025-.107.069-.132.132-.102 1.891-.015 3.971-.044 5.936.414.814 1.163 1.366 1.67 2.11.128.188.177.425.308.616.314.457.732.906 1.099 1.363.748.932 1.54 1.802 2.287 2.682.379.446.679 1.019 1.231 1.275.323-1.915.019-4.18.088-6.2zm-16.003-2.549c-.807-.425-2.063-.485-3.034-.439-3.744.174-8.057-.204-11.562.088-.226 1.044-.175 2.802-.044 3.912 1.294.191 2.69.088 4.089.088h10.552c.685 0 1.392.102 2.022-.132.158-1.564-.833-2.89-2.023-3.517zm30.82-.352c-2.221 0-5.064-.099-6.947.132-.141 1.068-.149 2.715 0 3.781.993.237 2.083.132 3.166.132h6.595c1.111 0 2.235.107 3.253-.132.145-1.062.145-2.718 0-3.781-1.832-.145-3.917-.132-6.067-.132zm-30.732 5.715c-4.895 0-10.042-.002-14.641.044-.349.396-.22 1.216-.22 1.935 0 .743-.089 1.533.132 2.022.98.232 2.083.132 3.209.132h6.683c1.152 0 2.3.068 3.297-.044 1.985-.222 3.541-1.934 3.473-3.957-.604-.231-1.276-.132-1.933-.132zm30.556.264c-2.216 0-4.862-.101-6.771.132-.145 1.053-.145 2.684 0 3.737 3.201.114 6.719.132 9.804.132 1.106 0 2.198.102 3.21-.132.159-1.042.163-2.607 0-3.737-1.958-.112-4.104-.132-6.243-.132z" fill-rule="evenodd"/></svg>