<svg enable-background="new 0 0 77.526 75.402" viewBox="0 0 77.526 75.402" xmlns="http://www.w3.org/2000/svg"><g clip-rule="evenodd" fill-rule="evenodd"><path d="m37.934.042c6.171-.457 10.566 2.917 12.873 6.485 1.257 1.943 2.182 4.601 2.146 7.558-.072 5.994-3.03 9.991-6.973 12.385-2.028 1.232-4.916 2.123-7.655 1.999-2.878-.131-5.322-1.034-7.314-2.341-1.906-1.25-3.555-2.972-4.632-5.021-.229-.437-.372-.992-.585-1.512-1.019-2.477-1.338-5.927-.586-8.923 1.212-4.826 4.099-8.048 8.68-9.801 1.189-.455 2.57-.72 4.046-.829zm-.975 19.991c3.941 1.213 7.615-1.615 7.9-5.363.067-.891-.049-1.788-.244-2.39-.775-2.386-3.131-4.483-6.241-4.241-3.388.264-6.014 3.164-5.656 6.826.156 1.595.844 2.515 1.707 3.657.88.71 1.473 1.185 2.534 1.511z"/><path d="m67.287 26.761c.81.331 1.976 1.362 2.682 1.902 2.118 1.62 4.216 3.221 6.388 4.924.288.226 1.162.792 1.17 1.073.011.383-.843.821-1.219 1.121-2.553 2.038-5.172 3.995-7.753 6.046-.406.323-.8.815-1.365.829-.273-.945.077-2.515-.194-3.462-.56-.21-1.233-.19-1.854-.195-4.393-.028-9.577.012-13.993.146-.264 1.09-.147 2.456-.147 3.755 0 1.275-.102 2.572.098 3.657.558.266 1.211.165 1.853.146 1.978-.06 4.011.063 6.046 0 2.766-.086 5.563-.034 8.045.146.152 2.262.17 5.532 0 7.948-1.247.285-2.599.14-3.949.097-2.56-.08-5.261.048-8.045.049-1.341.001-2.706-.116-3.949.146-.257 3.18-.146 6.679-.146 10.142 0 3.438.108 6.926-.146 9.996-3.298.181-7.529.149-10.971 0-.151-14.68-.109-29.394.049-44.858 1.061-.258 2.215-.146 3.315-.146 7.952.001 15.744.087 23.795-.097.373-.935-.189-2.446.29-3.365z"/><path d="m10.093 26.81c.508-.116.342.998.342 1.561 0 .751-.05 1.374.098 1.707 1.037.35 2.206.194 3.315.194 7.832.001 15.858-.176 23.794.098.176 7.51.097 15.199.098 22.722.001 7.589.059 15.018-.147 22.137-.809.244-1.75.165-2.682.146-2.635-.053-5.689.018-8.289-.146-.291-6.485.098-13.652-.194-20.138-5.181-.292-10.747.094-15.896-.195-.203-2.44-.094-5.379-.049-7.996 1.225-.262 2.57-.146 3.9-.146 3.93 0 8.228.081 12.044-.098.23-2.122.085-5.087.049-7.46-1.225-.265-2.568-.146-3.901-.146-3.913-.001-8.196-.08-11.994.097-.396.888.107 2.675-.293 3.56-.999-.47-1.827-1.235-2.682-1.901-.856-.668-1.743-1.282-2.584-1.95-1.695-1.35-3.446-2.621-5.022-4.098.679-.812 1.6-1.4 2.438-2.048 2.508-1.94 5.092-3.953 7.655-5.9z"/></g></svg>