<svg enable-background="new 0 0 74.354 74.715" viewBox="0 0 74.354 74.715" xmlns="http://www.w3.org/2000/svg"><path clip-rule="evenodd" d="m74.241 36.245c-1.148.203-2.36.235-3.565.235-3.579-.001-7.33.35-10.976.422-3.567.07-7.321.093-10.977.234-1.307.051-2.614.031-3.331-.422-.671-.425-1.103-1.335-1.454-1.923-1.256-2.099-3.433-3.407-6.849-2.908-1.683.246-3.345 1.045-4.597 2.111-1.02.868-2.435 2.326-1.735 4.691.417 1.412 1.865 2.478 3.049 3.143 1.252.703 2.85 1.448 4.691 1.454 2.091.007 3.432-.748 4.409-1.783 1.066-1.127 1.605-3.094 3.424-3.518 1.047-.244 2.251-.094 3.471-.094 6.099 0 11.726.028 17.497.282 2.346.103 4.693-.025 6.942.281.219 1.05.073 2.133-.047 3.143-.842 7.103-3.35 12.865-6.708 17.543-3.9 5.435-8.964 9.626-15.292 12.431-3.243 1.438-6.777 2.498-10.93 2.955-4.293.474-8.748.033-12.618-.844-7.325-1.661-13.171-5.384-17.731-9.944-4.598-4.599-8.201-10.404-9.944-17.779-.937-3.961-1.213-8.393-.751-12.571.459-4.15 1.489-7.806 2.861-10.977 2.776-6.413 6.933-11.438 12.337-15.386 5.494-4.013 11.849-6.579 20.686-6.989 5.94-.276 11.623 1.258 15.761 3.002 6.623 2.79 11.553 7.065 15.48 12.477 3.247 4.475 5.667 9.817 6.661 16.605.195 1.326.467 2.726.236 4.129z" fill-rule="evenodd"/></svg>