<svg enable-background="new 0 0 77.538 72.493" viewBox="0 0 77.538 72.493" xmlns="http://www.w3.org/2000/svg"><g clip-rule="evenodd" fill-rule="evenodd"><path d="m21.778 0c16.283 5.728 32.532 11.549 48.832 17.318 1.176.416 2.372.793 3.562 1.17 1.141.362 2.294.778 3.366 1.317-.307.423-.875.481-1.317.634-10.891 3.776-21.787 7.791-32.685 11.661-3.313 1.176-6.668 2.347-10.001 3.513-.422.147-.999.19-1.268.634.817.565 1.805.835 2.732 1.171 2.783 1.007 5.671 2.015 8.537 3.024 3.789 1.336 7.6 2.637 11.366 4.049 5.652 2.119 11.372 3.954 17.075 6.049 1.407.517 2.83.972 4.293 1.513.434.16.955.266 1.268.634-.998.648-2.229.937-3.415 1.366-3.464 1.254-7.01 2.409-10.489 3.708-2.302.859-4.642 1.693-6.976 2.488-10.496 3.575-20.991 7.478-31.465 11.172-1.153.407-2.328.926-3.562 1.073-.178-9.058-.098-18.293-.097-27.514 0-6.044-.049-11.864-.049-18.05 0-8.237.045-16.227 0-24.636-.004-.824-.08-1.761.146-2.195.037-.047.09-.075.147-.099zm2.342 3.756c-.132 9.224-.048 19.193-.049 28.49 0 1.365-.117 2.705.146 3.854.986-.163 1.888-.591 2.83-.927 2.898-1.036 5.744-1.969 8.586-3.024 3.792-1.408 7.709-2.547 11.464-4.049s7.638-2.674 11.416-4.098c3.306-1.246 6.755-2.29 10.049-3.513.428-.159.969-.286 1.269-.683-.829-.536-1.816-.758-2.732-1.073-8.594-2.957-17.2-5.988-25.611-9.074-5.652-2.074-11.437-4.06-17.172-6.001-.073.026-.123.073-.196.098zm.049 32.783c-.164.336-.098 1.236-.098 1.951-.001 8.926 0 17.809 0 26.539 0 1.313-.111 2.611.146 3.854 1.011-.084 1.935-.539 2.878-.878 4.745-1.705 9.517-3.33 14.245-5.073 5.743-2.118 11.479-3.958 17.172-6.049 3.308-1.216 6.754-2.37 10-3.561.433-.159 1.015-.214 1.317-.634-.783-.634-1.814-.803-2.732-1.122-2.869-.998-5.64-2.069-8.488-3.074-5.742-2.024-11.441-4.006-17.075-6.098-5.658-2.101-11.573-3.994-17.221-6-.068.026-.117.075-.144.145z"/><path d="m43 13.708c1.344 1.512 2.208 3.132 2.341 5.415.284 4.828-2.73 8.039-6.293 9.22-2.044.678-4.634.482-6.537-.39-2.904-1.333-5.335-4.099-5.366-8.147-.021-2.87 1.068-4.797 2.488-6.293 1.449-1.526 3.379-2.704 6.098-2.878 3.34-.214 5.691 1.412 7.269 3.073z"/><path d="m8.363 27.319c4.589-.295 7.798 2.438 9.074 5.805 1.678 4.43-.429 8.58-3.073 10.586-1.483 1.126-4.074 2.073-6.488 1.708-2.379-.36-4.35-1.506-5.659-3.122-1.289-1.591-2.383-3.441-2.195-6.537.221-3.65 2.323-6.197 4.976-7.562.961-.495 2.104-.797 3.365-.878z"/><path d="m43.585 47.564c1.638 1.942 2.358 5.836 1.171 8.879-.597 1.527-1.686 2.879-2.927 3.805-1.257.938-2.91 1.726-4.878 1.805-5.551.222-10.217-3.836-9.757-9.903.283-3.725 2.865-6.671 5.903-7.757.827-.295 1.819-.511 2.927-.537 3.65-.085 5.868 1.702 7.561 3.708z"/></g></svg>