<svg enable-background="new 0 0 19.254 79.573" viewBox="0 0 19.254 79.573" xmlns="http://www.w3.org/2000/svg"><g clip-rule="evenodd" fill-rule="evenodd"><path d="m16.325 15.837c-1.185 1.298-2.905 2.391-5.022 2.807-4.237.832-7.786-1.335-9.504-3.693-1.845-2.354-2.319-6.689-.689-9.75 1.386-2.6 4-4.898 7.485-5.17 4.024-.313 7.181 1.793 8.765 4.234 1.055 1.628 1.679 3.899 1.428 6.205-.25 2.293-1.2 3.948-2.463 5.367z"/><path d="m19.083 20.86c.316.937.099 1.951.099 2.954 0 3.306-.001 7.02 0 10.489 0 .943.093 1.921.049 2.856-.045.939.036 1.861-.148 2.708-2.077.254-4.665-.003-6.746.246.297.428.862.491 1.28.689 1.273.606 2.357 1.477 3.299 2.462 1.338 1.793 2.483 3.744 2.266 6.992-.274 4.093-2.757 6.825-6.008 8.224-1.773.763-3.974.69-6.303.69-2.207 0-4.486.024-6.697-.099-.32-2.283-.099-4.828-.099-7.288 0-1.987-.049-3.979-.049-5.958 0-1.967-.095-3.932.147-5.761 2.064-.299 4.853.125 6.845-.246-.598-.488-1.314-.618-1.92-.936-.9-.472-1.773-1.148-2.463-1.871-2.337-2.453-3.374-6.864-1.772-10.488.673-1.523 1.731-2.852 3.053-3.841 1.402-1.05 3.101-1.759 5.171-1.92 3.104-.242 6.805.099 9.996.098z"/><path d="m19.083 60.401c.263 4.383.098 9.393.099 14.329 0 1.605.168 3.185-.099 4.678-3.38.05-6.68.274-9.849.099-2.971-.165-5.195-1.557-6.746-3.3-1.573-1.767-2.813-4.203-2.363-7.534.276-2.047 1.057-3.479 2.067-4.875 1.524-1.653 3.612-3.26 6.648-3.497 1.688-.131 3.484-.035 5.22 0 1.682.035 3.378-.105 5.023.1z"/></g></svg>