<svg enable-background="new 0 0 80.458 80.383" viewBox="0 0 80.458 80.383" xmlns="http://www.w3.org/2000/svg"><g clip-rule="evenodd" fill-rule="evenodd"><path d="m80.084 35.322c-1.113.41-3.107.156-4.4.1-.355-.484-.373-1.092-.5-1.65-.662-2.898-1.463-5.627-2.602-8.101-.459-.998-.83-2-1.35-2.898-2.117-3.656-4.611-6.772-7.701-9.402-4.139-3.504-8.734-6.061-14.853-7.602-3.902-.982-8.971-1.389-13.451-.699-6.49.996-11.512 3.219-15.953 6.449-5.584 4.064-10.117 10.1-12.551 17.354-1.281 3.816-2.109 8.248-1.801 13.053.301 4.682 1.258 8.576 2.85 12.051 3.148 6.873 7.531 12.189 13.803 16.103 5.752 3.59 14.24 6.623 24.055 5 4.334-.717 7.975-1.895 11.301-3.65 3.262-1.721 6.158-3.807 8.652-6.301 1.164-1.164 2.438-2.508 3.5-4 2.598-3.65 4.562-7.783 5.75-12.902.186-.799.744-2.617.352-3.15-.232-.312-1.711-.201-2.551-.199-5.674 0-10.797-.102-16.402-.102-.928 0-2.064-.15-2.701.051-.603.189-1.064 1.664-1.5 2.35-1.473 2.316-3.652 4.043-6.201 5.252-1.6.758-4.127 1.266-6.551 1.1-2.188-.15-4.242-.883-5.801-1.85-3.156-1.957-5.408-4.764-6.352-8.951-1.09-4.844.639-9.207 3-11.703 2.385-3 7.475-5.859 13.354-4.4 3.625.9 6.326 2.789 8.201 5.551.615.906 1.379 1.857 1.5 3.051-.623.34-1.576.199-2.451.199-.879 0-1.858.154-2.551-.049-.42-.125-.635-.58-.949-1-.814-1.09-2.109-1.838-3.25-2.451-3.811-1.6-7.889-.203-9.953 2.051-2.105 2.299-3.281 6.244-1.35 10.002 1.426 2.771 4.662 5.141 8.701 4.6 3.521-.471 6.324-2.889 7.352-6 .254-.77.205-1.645.5-2.451 1.229-.271 2.523-.15 3.801-.15 9.125 0 18.291.065 27.106.15.021.045.043.09.1.1.404 1.135.146 2.34.1 3.451-.148 3.398-.941 6.607-1.851 9.402-1.223 3.764-2.949 7.096-5.051 9.951-1.08 1.469-2.064 2.98-3.25 4.25-2.424 2.598-5.092 4.84-8.201 6.801-4.516 2.85-10.033 5.016-16.553 5.951-4.494.646-9.316.387-13.602-.6-3.957-.91-7.635-2.266-10.902-4.102-9.556-5.368-16.509-13.67-19.757-25.258-.553-1.971-.889-4.289-1.049-6.451-.73-9.854 1.942-17.795 5.5-24.103 4.418-7.83 11.555-13.764 20.504-17.002 2.781-1.008 5.648-1.857 9.002-2.25 7.283-.854 14.891.43 20.053 2.549 2.324.955 4.383 2.043 6.352 3.252 1.988 1.221 3.74 2.6 5.5 4.051 3.541 2.914 6.246 6.539 8.551 10.65 1.152 2.053 2.107 4.303 2.9 6.701.794 2.4 1.55 4.991 1.601 7.851z"/><path d="m71.332 35.373c-1.248.174-3.193.262-4.5 0-.449-.674-.578-1.482-.801-2.201-.713-2.299-1.521-4.309-2.6-6.25-2.754-4.951-7.059-8.734-12.502-11.152-2.742-1.219-5.934-2.1-9.553-2.25-7.721-.322-13.438 2.439-17.752 5.9-2.199 1.764-3.912 3.92-5.551 6.301-1.594 2.314-2.848 5.248-3.502 8.301-.762 3.566-.932 7.357-.25 10.703 1.359 6.652 4.303 11.283 8.553 15.101 4.998 4.492 12.807 7.963 22.354 6.201 6.547-1.209 11.377-4.44 15.152-8.502.459-.494.951-1.025 1.35-1.6.4-.578.975-1.141 1.051-1.9-.836-.697-2.869-.199-4.252-.35-.9.514-1.498 1.398-2.199 2.1-3.439 3.44-8.348 6.088-14.902 6.451-8.35.463-13.996-3.186-17.902-7.65-1.33-1.521-2.506-3.143-3.451-5.101-.92-1.904-1.625-4.201-1.951-6.551-.756-5.465.641-10.441 2.701-14.002 1.09-1.883 2.186-3.549 3.65-4.902 1.471-1.355 3.037-2.611 4.852-3.65 3.605-2.066 8.652-3.34 14.051-2.65 4.883.625 8.65 2.783 11.752 5.301 2.547 2.305 4.695 5.062 6.102 8.553.455 1.129 1.07 2.336 1.051 3.701-.521.34-1.432.199-2.25.199-.844 0-1.719.065-2.352-.1-.467-.922-.779-1.867-1.199-2.75-1.246-2.621-2.984-4.803-5.201-6.502-2.631-2.102-5.654-3.453-9.951-3.75-4.227-.293-8.061.996-10.652 2.9-2.535 1.861-4.758 4.264-6.252 7.4-1.482 3.119-2.059 7.338-1.049 11.502.857 3.543 2.67 6.434 5.051 8.601 2.486 2.264 5.092 3.963 9.051 4.602 6.648 1.068 11.863-1.623 15.252-4.752 1.182-1.09 2.004-2.488 3.101-3.701 3.588-.064 7.436 0 11.051 0 1.184 0 2.469-.184 3.451.25.172.795-.297 1.508-.551 2.15-.268.682-.525 1.328-.799 1.951-2.734 6.231-7.57 10.938-13.303 14.252-1.17.678-2.479 1.121-3.801 1.701-1.35.592-2.721.934-4.25 1.25-3.236.668-6.604 1.121-9.953.799-3.188-.305-6.268-.969-8.9-2.1-5.031-2.158-9.49-5.299-12.752-9.301-3.34-4.098-5.848-8.945-6.752-15.303-1.025-7.211.43-13.475 2.852-18.404 3.537-7.199 9.457-12.881 17.453-15.652 1.422-.492 2.762-.885 4.301-1.199 1.543-.316 3.268-.566 5.051-.65 4.883-.231 9.178.725 12.752 2.1 3.633 1.4 6.666 3.281 9.25 5.551 4.627 4.064 8.152 9.066 9.953 16.004.246.958.67 1.979.447 3.05z"/></g></svg>