<svg enable-background="new 0 0 43.571 76.009" viewBox="0 0 43.571 76.009" xmlns="http://www.w3.org/2000/svg"><g clip-rule="evenodd" fill-rule="evenodd"><path d="m32.628 35.126c.384-.535.242-1.256.242-1.885 0-4.619.156-9.937 0-14.451-.09-2.604 0-5.404 0-8.166 0-2.736-.219-5.631.58-7.879.792-1.348 2.004-2.49 3.818-2.705 3.129-.375 5.4 1.92 5.751 4.397.188 1.318.049 2.814.049 4.254.002 14.627-.049 27.717-.049 42.336.001 1.418.074 2.818-.145 4.012-.581 3.166-4.595 5.451-7.926 3.285-.754-.49-1.65-1.193-2.029-2.223-.443-1.197-.415-2.758-.58-3.865-.543-3.635-2.794-6.277-5.558-7.781-2.051-1.117-4.657-1.678-7.395-1.111-2.381.49-4.05 1.633-5.703 3.189-1.845 2.17-3.323 4.988-2.852 8.844.385 3.148 2.238 5.732 4.495 7.346 1.128.807 2.51 1.51 4.108 1.836 1.764.363 3.409.238 4.881 1.016 1.237.652 2.28 1.914 2.61 3.336.403 1.738-.037 3.35-1.063 4.543-1.838 2.973-7.288 2.059-10.391 1.111-3.42-1.045-6.224-2.828-8.458-4.883-4.323-3.974-8.118-10.632-6.717-19.284 1.158-7.146 5.516-12.748 11.116-15.561 3.01-1.514 6.451-2.629 10.777-2.562 3.153.049 5.832.856 8.168 1.836.768.324 1.435.844 2.271 1.015z"/><path d="m32.821 73.597c-.709-1.367-1.437-3.352-.773-5.365.764-2.314 2.794-4.443 6.089-4.156 2.937.256 5.204 2.65 5.413 5.365.255 3.307-2 5.859-4.64 6.428-2.681.576-4.882-.707-6.089-2.272z"/></g></svg>