<svg enable-background="new 0 0 64.845 76.69" viewBox="0 0 64.845 76.69" xmlns="http://www.w3.org/2000/svg"><path clip-rule="evenodd" d="m64.546 76.55c-.043.01-.053.052-.105.052-4.412.161-9.338.052-14.041.052-.611 0-1.269.118-1.82-.156-.217-9.699.187-19.263-.104-28.76-1.254-.283-2.588-.156-3.9-.156-8.853 0-18.682-.129-27.721.052-.305 1.093-.145 2.275-.156 3.432-.074 7.988.029 17.252-.154 25.379-.047.023-.094.046-.105.104-5.131.061-11.168.149-16.383-.052-.166-23.572.082-46.98.156-70.47.006-1.473-.207-2.977.105-4.42 5.318-.168 11.094-.184 16.381.053.375 5.599-.062 11.806.678 17.11.709 5.083 2.826 9.125 6.137 11.806 2.154 1.745 4.965 3.188 8.424 3.536 8.066.81 13.375-2.662 15.758-7.853 2.047-4.458 1.439-11.477-3.692-12.066-1.799-.206-3.619.275-3.85 2.028.262 1.567 2.344.983 2.445 2.497.065.967-.92 1.609-1.664 1.873-3.359 1.186-5.879-1.011-6.709-3.485-1.002-2.981-.303-6.617.779-8.997 1.852-4.073 5.975-7.103 11.025-7.905 4.633-.735 8.842.618 11.65 2.548 2.385 1.639 3.988 3.641 5.357 6.345.678 1.341 1.246 2.784 1.508 4.369.275 1.67.162 3.478.26 5.564.084 1.804.014 3.674-.053 5.513-.068 1.897 0 3.852 0 5.825.005 15.469-.049 31.007-.206 46.182z" fill-rule="evenodd"/></svg>