<svg enable-background="new 0 0 74.732 47.671" viewBox="0 0 74.732 47.671" xmlns="http://www.w3.org/2000/svg"><path clip-rule="evenodd" d="m37.658 6.401c.617-.413.948-1.03 1.463-1.51 1.481-1.38 3.536-2.395 5.757-3.067 1.578-.477 3.164-.727 4.908-.991 1.756-.266 3.536-.236 5.521-.236 7.604 0 13.612 2.352 16.988 6.56 1.001 1.247 1.846 2.713 2.219 4.483.408 1.941.201 4.149-.283 5.899-.983 3.55-3.013 5.75-6.183 7.125-3.145 1.364-7.615 1.312-11.939 1.416-4.47.107-8.783.173-11.845 1.463-1.625.685-2.782 1.829-3.209 3.492-.458 1.788-.316 4.05.566 5.522 1.528 2.546 5.561 3.898 9.014 4.294 4.271.49 8.68.134 11.515-1.321 2.056-1.055 3.798-3.071 4.577-5.427.272-.823.351-1.714.661-2.643 2.243-.151 4.633-.101 6.89.047.192 1.038-.261 2.019-.425 2.973-.846 4.92-3.868 8.075-7.551 10.288-1.546.929-3.22 1.634-5.049 2.076-5.89 1.426-13.763 1.005-18.452-1.227-1.632-.777-2.975-1.74-4.247-2.879-.477-.513-.772-1.209-1.416-1.557-.767.477-1.23 1.258-1.935 1.84-1.979 1.635-4.601 3.025-7.739 3.539-3.282.538-6.699.675-10.334.378-5.608-.458-9.639-2.842-12.789-5.993-2.538-2.539-4.263-6.012-4.341-10.571.471-.25 1.1-.142 1.699-.142 1.709 0 3.748-.075 5.332.094.322 1.213.383 2.318.756 3.303 1.11 2.937 3.128 4.879 6.228 5.946 3.879 1.335 9.811 1.253 14.157-.094 2.171-.673 3.662-1.764 4.672-3.445 1.013-1.685 1.112-4.662.047-6.56-1.007-1.794-2.867-2.452-5.096-3.02-3.323-.847-7.241-.856-11.091-1.038-1.268-.06-2.508-.233-3.727-.331-2.472-.197-4.843-.61-6.654-1.463-3.571-1.682-6.026-4.938-6.229-10.004-.208-5.228 2.748-8.331 5.899-10.334 2.554-1.624 5.474-2.541 9.155-3.02 5.124-.668 10.933-.012 14.959 1.227 1.578.485 3.037 1.092 4.295 1.934 1.242.832 2.276 1.865 3.256 2.974zm-3.492 10.854c0-2.571.112-4.759-.755-6.182-1.505-2.469-4.712-3.538-8.306-4.011-3.954-.521-8.56-.637-11.986.331-2.777.783-5.215 2.163-5.945 4.907-.436 5.153 3.677 5.894 8.211 6.135 2.344.125 4.792.28 6.983.472 4.166.365 7.772.882 10.43 2.595.377.243.731.631 1.227.661.24-1.513.141-3.25.141-4.908zm9.014 3.775c2.48-1.191 5.642-1.493 9.202-1.651 2.178-.097 4.562-.183 6.938-.283 3.389-.143 6.448-.396 7.738-2.501 1.115-1.818.75-4.361-.472-5.757-1.229-1.406-3.26-2.369-5.663-2.926-2.35-.545-5.477-.889-8.022-.661-3.594.323-6.981.451-9.296 1.982-1.27.839-2.411 2.267-2.784 3.87-.195.836-.12 1.811-.142 2.926-.02 1.004 0 2.065 0 3.162 0 .998-.112 2.078.142 3.067.834-.306 1.54-.835 2.359-1.228z" fill-rule="evenodd"/></svg>