<svg enable-background="new 0 0 75.331 74.133" viewBox="0 0 75.331 74.133" xmlns="http://www.w3.org/2000/svg"><path clip-rule="evenodd" d="m45.138.264c.185 2.029.149 4.615 0 6.726-11.66.23-23.246.049-35.119.048-1.632 0-2.785-.091-3.267 1.104-.408 1.015-.082 3.121-.144 4.612-.069 1.64-.001 3.162 0 4.564.001 7.979-.05 15.564-.049 23.637 0 1.336-.312 3.848.961 3.843.716-.002 1.243-.607 1.729-1.057.541-.499 1.071-.907 1.489-1.297 2.999-2.575 5.945-5.201 8.936-7.783 1.984-1.731 3.953-3.477 5.957-5.189 1.036-.821 1.836-1.879 2.883-2.69.519-.409.958-.899 1.488-1.297.361-.568 1.101-.758 1.298-1.489-3.082-.135-6.434-.145-9.464-.145-1.056.001-2.114.116-3.075-.143-.173-2.229-.098-4.561.048-6.87 8.407-.131 17.728-.052 26.279.048.056-.008.085.011.096.048.366 9.514-.199 19.158.097 28.633.041 1.336-.133 2.618-.145 3.892-.012 1.248.097 2.651.096 4.036 0 2.74.001 5.328 0 8.263 0 1.224-.06 3.062.961 3.171.788.084 1.77-1.062 2.307-1.537 4.757-4.218 9.535-8.422 14.268-12.587.983-.731 1.889-1.538 2.786-2.354.616-1.033 2.375-1.565 2.258-3.171-.054-.728-.684-1.212-1.201-1.729-.534-.534-.986-1.106-1.489-1.44-4.447-4.042-8.932-8.087-13.452-12.203-1.741-1.586-3.675-3.189-4.564-5.717-.904-2.572.173-5.036 1.73-6.342.629-.527 1.39-.948 2.402-1.009.977-.059 2.177-.005 3.314.048 6.681.312 13.694-.304 20.034.096.369 1.017.034 2.276.048 3.411.013 1.113.3 2.358-.048 3.363-5.322.118-10.944.047-16.479.048-.709 0-1.543-.131-1.874.48-.025.826.573 1.028.961 1.441 2.868 2.721 5.881 5.297 8.743 8.023 2.006 1.953 4.171 3.699 6.294 5.668.926.858 2.025 2.036 2.595 3.412.575 1.389.741 3.421.048 5.044-1.077 2.519-3.81 4.463-5.766 6.197-2.17 1.925-4.128 3.869-6.293 5.669-1.675 1.512-3.495 2.879-5.093 4.468-1.673 1.477-3.391 2.987-5.093 4.517-1.679 1.509-3.347 3.1-5.188 4.371-1.025.708-2.284 1.16-3.699 1.009-2.504-.268-4.455-2.149-4.948-4.611-.25-1.25-.199-2.905-.144-4.42.115-3.146 0-6.35 0-9.561-.001-9.397.082-19.137-.097-28.489-.868.317-1.427 1.067-2.065 1.634-.656.581-1.324 1.134-1.97 1.729-3.977 3.375-7.752 6.949-11.675 10.377-3.996 3.532-7.805 6.621-11.769 10.281-1.182 1.09-2.733 2.556-4.468 2.882-2.677.504-4.615-.929-5.573-2.306-.564-.811-.951-1.809-1.009-3.026-.06-1.244-.001-2.631 0-4.036.005-12.407.049-23.399.051-35.792 0-1.402-.126-2.79.144-3.892.484-1.97 2.089-3.685 3.651-4.42 1.494-.702 4.523-.384 6.63-.384 11.218-.002 22.885.059 34.638.193z" fill-rule="evenodd"/></svg>