<svg enable-background="new 0 0 75.584 76.518" viewBox="0 0 75.584 76.518" xmlns="http://www.w3.org/2000/svg"><g clip-rule="evenodd" fill-rule="evenodd"><path d="m63.751 10.849c4.727 4.718 8.615 10.498 10.524 18 .987 3.878 1.573 8.395 1.19 12.81-.367 4.229-1.423 8.058-2.857 11.381-1.437 3.331-3.122 6.343-5.286 9-4.261 5.231-9.526 9.286-16.429 12.048-1.654.662-3.519 1.217-5.524 1.619-1.991.399-4.144.81-6.286.81-4.65 0-8.804-.531-12.524-1.762-5.395-1.786-9.77-4.431-13.62-7.762-3.81-3.296-6.864-7.23-9.286-12.048-.786-1.563-1.336-3.405-1.905-5.238-1.642-5.297-2.38-12.452-1.095-18.858 1.582-7.887 4.788-14.197 9.524-18.953 6.109-6.548 14.308-11.15 26.335-11.856 2.988-.176 6.061.257 8.667.857 7.694 1.771 13.893 5.353 18.572 9.952zm-3.571 33.478c1.388-6.952-.034-13.884-2.334-18.715-2.334-4.904-5.826-8.923-10.286-11.905-2.188-1.463-4.601-2.918-7.333-3.762-2.764-.854-6.07-1.476-9.619-1.476-.059 0-.069.044-.143.047-5.822.301-10.301 1.728-14.286 4.143-3.59 2.176-7.244 5.547-9.476 9.001-2.394 3.702-4.095 8.566-4.572 13.905-.38 4.26.262 8.831 1.333 12.238.365 1.159.78 2.272 1.286 3.333 3.887 8.165 11.218 14.151 20.715 16.239 5.407 1.188 11.647.642 16-1.143 4.471-1.833 8.066-3.978 11.144-7.333 3.554-3.771 6.368-8.552 7.571-14.572z"/><path d="m58.037 39.755c-.582.229-1.99.229-2.571 0-.257-.802-.128-1.619-.143-2.381-.045-2.289-.714-4.333-1.381-6.143-.895-2.428-2.165-4.53-3.762-6.286-3.033-3.455-7.207-6.298-13.143-6.952-6.457-.712-11.628 1.7-15.096 4.714-2.301 1.923-4.049 4.27-5.381 7.191-1.304 2.86-2.098 6.538-1.619 10.62.833 7.104 4.596 12.243 9.715 15.381 2.665 1.634 5.718 2.796 9.619 2.952 7.972.319 13.437-3.484 16.953-8.048.907-1.177 1.683-2.539 2.333-3.953.666-1.447.956-3.073 1.571-4.667.612-.207 2.13-.276 2.667.047.078 1.403-.336 2.751-.714 4-1.096 3.615-2.947 6.963-5.143 9.572-2.989 3.548-6.927 6.315-11.62 7.953-2.458.858-5.278 1.507-8.286 1.524-9.368.05-15.815-4.063-20.429-8.905-3.067-3.464-5.607-7.622-6.571-13-1.116-6.213-.067-12.061 1.904-16.62 1.869-4.325 5.014-8.065 8.858-10.714 4.091-2.821 8.611-4.81 14.667-5.096 2.154-.102 4.462.202 6.476.667 5.75 1.327 10.059 4.126 13.572 7.714 4.083 4.172 6.948 9.624 7.667 17.239.097 1.032.287 2.169-.143 3.191z"/><path d="m52.941 39.803c-4.926.158-9.702.217-14.81.095-3.396-.082-7.012-.048-10.905-.048-1.218 0-2.451-.116-3.619.143.123 2.222 1.353 3.924 2.667 5.238 1.327 1.327 3.141 2.347 5.381 2.619 3.856.469 6.692-1.297 8.429-3.381.611-.732.981-1.629 1.572-2.381 2.636-.131 5.491-.013 8.238 0 .87.004 1.75-.148 2.524.143.087.829-.257 1.613-.524 2.286-1.823 4.602-5.671 8.183-10.667 9.619-3.305.95-7.205.59-10.001-.571-5.259-2.185-9.184-6.567-10.238-12.953-.595-3.605.271-7.237 1.524-9.763 1.249-2.519 3.104-4.699 5.381-6.238 2.295-1.553 5.375-2.75 9-2.762 5.248-.017 9.23 2.586 11.81 5.381 2.397 2.598 4.003 5.969 4.381 10.668.05.622.114 1.297-.143 1.905zm-12.143-6.62c-1.539-2.41-4.655-4.688-8.714-4.429-3.576.229-6.231 2.193-7.572 4.762-.457.875-1.018 1.857-.953 3 .666.21 1.433.221 2.143.19 4.463-.188 9.282 0 14 0 .754 0 1.537.109 2.238-.142.006-1.241-.581-2.502-1.142-3.381z"/></g></svg>