<svg enable-background="new 0 0 70.587 71.039" viewBox="0 0 70.587 71.039" xmlns="http://www.w3.org/2000/svg"><path clip-rule="evenodd" d="m70.587 33.329c-.882.241-1.826.134-2.756.134-6.524.001-13.398-.073-19.827.089-.148 1.064-.144 2.713 0 3.778 7.286.266 15.207-.088 22.539.178.119 2.011-.255 3.932-.667 5.735-1.205 5.277-3.326 9.737-6.135 13.47-3.739 4.968-8.604 8.995-14.582 11.559-3.092 1.326-6.574 2.269-10.491 2.623-8.583.775-15.878-1.683-21.206-4.757-2.786-1.608-5.254-3.564-7.335-5.735-2.195-2.193-4.018-4.697-5.646-7.469-.815-1.388-1.401-2.91-2.045-4.489-1.802-4.425-2.93-10.967-2.222-16.938.68-5.737 2.498-10.544 4.935-14.671 2.378-4.026 5.794-7.499 9.469-10.136 5.217-3.743 11.408-6.294 19.472-6.668 5.676-.264 10.835 1.14 14.804 2.756 4.243 1.73 7.659 4.086 10.625 6.802 4.452 4.236 7.993 9.461 9.869 16.315.618 2.264 1.226 4.735 1.199 7.424zm-24.273-4.223c-.714-1.217-1.647-2.281-2.667-3.157-2.086-1.613-4.755-3.328-8.491-3.156-5.476.252-9.201 3.451-11.069 7.336-.944 1.962-1.552 4.949-.978 7.691.984 4.699 4.293 8.335 8.536 9.646 2.395.741 5.387.915 7.868 0 2.177-.803 4.037-2.023 5.424-3.689 1.352-1.624 2.569-3.585 2.845-6.18-.423-.197-.97-.168-1.467-.178-1.574-.028-3.188.017-4.712.089-.393.406-.48.98-.755 1.423-.503.809-1.263 1.643-2.045 2.134-1.498.938-3.483 1.167-5.202.667-2.347-.684-4.324-2.714-4.712-5.335-.441-2.979.969-5.094 2.711-6.312 1.753-1.226 4.816-1.664 7.069-.312 1.359.817 2.082 2.133 2.934 3.601 1.943.046 4.31.133 6.179-.044-.111-1.635-.766-3.029-1.468-4.224z" fill-rule="evenodd"/></svg>