<svg enable-background="new 0 0 68.562 75.015" viewBox="0 0 68.562 75.015" xmlns="http://www.w3.org/2000/svg"><g clip-rule="evenodd" fill-rule="evenodd"><path d="m5.254.169c.247.862.168 1.791.146 2.683-.068 2.745.103 5.721.049 8.633-.177 9.502 0 19.029 0 28.825 0 5.534 1.568 10.087 3.658 13.852 1.417 2.552 3.057 4.764 4.975 6.682 4.833 4.833 11.434 8.291 20.924 8.292 5.454 0 10.02-1.86 13.608-3.902 1.223-.696 2.295-1.612 3.366-2.487 3.101-2.537 6.001-5.971 7.803-9.706 2.474-5.124 4.039-12.655 2.438-19.558-1.442-6.225-4.505-11.078-8.535-14.778-2.309-2.146-4.88-4.026-7.999-5.365-3.122-1.341-6.706-2.133-10.974-2.341-.022-.043-.043-.087-.098-.097-.159-1.559-.162-3.759 0-5.316 1.206-.271 2.468-.131 3.609 0 7.933.907 14.062 4.083 18.778 8.291 5.25 4.686 9.653 11.356 11.071 19.851.406 2.435.487 4.768.487 7.267 0 2.375-.476 4.681-.927 6.78-.907 4.226-2.524 7.888-4.487 10.974-4.035 6.348-9.567 11.126-16.924 13.998-3.845 1.501-8.087 2.444-13.12 2.244-4.797-.191-8.954-1.215-12.584-2.877-7.054-3.232-12.567-8.235-16.095-14.828-1.811-3.385-3.248-6.956-4.048-11.413-.403-2.25-.341-4.824-.341-7.414 0-12.118 0-24.509 0-36.727 0-.536-.171-1.201.244-1.658 1.531-.033 3.603-.193 4.976.095z"/><path d="m16.423.169c.162 7.094.147 14.162.147 21.314v14.242c0 2.474.05 4.679.39 6.828.667 4.21 2.369 7.055 4.829 9.608 2.474 2.568 5.311 4.201 9.414 5.024 4.33.868 8.869-.465 11.803-2.146 1.433-.821 2.782-2.015 3.951-3.268 1.152-1.235 2.229-2.654 2.926-4.292.741-1.738 1.239-3.612 1.463-5.755.217-2.069.036-4.33-.39-6.584-.342-1.808-1.367-3.541-2.341-4.975-1.021-1.504-2.203-2.756-3.512-3.804-2.036-1.631-4.336-2.965-7.462-3.512-.972-.17-2.052-.127-3.024-.585-.042-.828-.097-1.838-.098-2.78 0-.942-.121-1.926.244-2.585 8.638.327 14.525 4.185 18.241 9.658 2.71 3.99 4.831 9.756 3.853 16.729-.689 4.914-2.815 8.853-5.512 11.998-.547.638-1.012 1.304-1.609 1.854-2.321 2.133-5.335 4.199-8.779 5.17-3.616 1.019-8.232 1.384-12.242.292-3.676-1-6.786-2.48-9.267-4.682-3.07-2.595-5.353-5.767-6.877-9.901-.773-2.096-1.317-4.452-1.317-7.072-.001-7.919-.208-16.39 0-24.63.12-4.795.097-9.489.097-14.388 0-.61-.15-1.298.195-1.854 1.55-.084 3.404-.059 4.877.096z"/><path d="m28.129.218c.264 1.673.147 3.413.147 5.17-.001 8.575-.094 17.566.048 26.435.024 1.476.065 3.298 0 5.024-.065 1.734-.058 3.527.391 4.829.555 1.61 2.103 3.414 3.804 3.902 1.641.471 3.401.083 4.438-.537 2.266-1.352 3.854-4.548 2.585-7.56-.52-1.232-1.374-2.135-2.487-2.78-.694-.402-1.567-.5-2.439-.927-.11-.792-.07-1.741-.049-2.634.022-.916-.131-1.895.147-2.634 1.986-.078 3.735.621 5.121 1.463 1.418.862 2.711 1.864 3.609 3.17 1.768 2.256 2.677 5.892 1.854 9.462-.679 2.94-2.632 5.396-4.926 6.926-2.351 1.568-6.143 2.553-9.462 1.415-4.169-1.43-7.44-4.739-8.047-9.755-.207-1.712-.147-3.61-.147-5.706 0-10.949 0-21.657 0-32.629 0-.899-.149-1.879.195-2.731 1.603-.024 3.774-.201 5.218.097z"/></g></svg>