<svg enable-background="new 0 0 78.541 81.472" viewBox="0 0 78.541 81.472" xmlns="http://www.w3.org/2000/svg"><path clip-rule="evenodd" d="m74.743 20.799c-6.552.4-13.703-.28-20.373.049-3.183.157-5.441 1.475-7.036 3.396-1.511 1.82-2.844 4.502-2.165 7.972.836 4.276 3.78 6.95 7.923 7.774 1.456.29 3.15.142 4.92.197 3.295.104 6.753-.131 10.235 0 1.724.064 3.462.049 5.167.049 1.719 0 3.431-.119 5.068.147.071.299.087.886 0 1.181-.777.24-1.653.176-2.461.148-5.659-.197-11.933-.099-17.812-.099-1.897 0-3.643-.128-5.117.099-1.403.215-2.68.795-3.74 1.476-1.986 1.275-3.688 3.21-4.231 6.151-.62 3.35.61 6.248 2.115 8.021 1.598 1.882 3.854 3.194 6.988 3.396 6.471.416 13.816-.137 20.421.246.087.455-.28.836-.492 1.181-1.524 2.477-3.376 4.802-5.413 6.84-2.326 2.327-4.799 4.607-7.676 6.348-5.836 3.53-12.843 6.101-21.947 6.103-9.066.001-15.991-2.788-21.7-6.348-4.932-3.076-9.208-7.319-12.4-12.154-.468-.708-.985-1.437-1.231-2.264 6.17-.357 12.483.192 18.552-.05 2.744-.109 5.043-1.279 6.544-2.854 1.49-1.562 2.749-3.855 2.756-6.644.009-3.287-1.494-5.645-3.248-7.184-2.021-1.774-4.18-2.51-7.922-2.51-5.608 0-11.972-.1-17.961-.099-.806 0-1.651.112-2.411-.147-.173-.316-.067-.825 0-1.182 1.555-.19 3.165-.099 4.773-.098 4.867.002 9.988.049 14.812.049 1.82 0 3.325.056 4.675-.295 1.272-.331 2.346-.858 3.346-1.575 1.826-1.308 3.295-3.298 3.789-6.102.56-3.177-.527-5.935-1.969-7.676-1.455-1.759-3.575-3.216-6.348-3.543-1.534-.182-3.172-.096-4.822-.147-4.878-.153-9.893.142-14.467-.148-.054-.431.242-.841.443-1.181 3.114-5.264 7.711-9.55 12.794-12.893 5.572-3.665 12.308-5.991 21.011-6.396 4.572-.213 9.265.616 12.795 1.673 3.779 1.131 7.064 2.553 9.939 4.379 5.134 3.261 9.292 7.472 12.695 12.45.466.683.987 1.441 1.181 2.264z" fill-rule="evenodd"/></svg>