<svg enable-background="new 0 0 82.389 50.742" viewBox="0 0 82.389 50.742" xmlns="http://www.w3.org/2000/svg"><path clip-rule="evenodd" d="m.206 31.079c4.644-.073 9.366-.079 13.936.099.263 2.736-.094 5.8.296 8.253.403 2.534 1.288 4.464 2.57 5.98 2.284 2.734 6.541 4.454 10.971 3.113 1.852-.56 3.333-1.639 4.498-2.965 1.12-1.275 1.993-3.222 1.68-5.683-.531-4.185-4.184-5.982-7.709-7.265-5.475-1.991-11.528-3.447-16.555-5.881-1.601-.775-3.07-1.938-4.349-3.113-2.641-2.427-4.328-5.517-4.35-10.477-.01-2.232.833-4.37 1.631-5.881 1.681-3.184 4.708-5.321 8.549-6.375 1.948-.534 4.33-.67 6.869-.791 4.454-.21 9.065 0 13.64 0 9.058 0 17.874.099 26.982.099 4.517 0 9.129-.174 12.651.89 6.795 2.052 10.872 7.691 10.872 16.407v13.442c0 4.383-.313 8.381-1.828 11.564-2.108 4.428-6.435 7.393-12.355 8.104-2.05.247-4.338.099-6.721.099-13.897 0-26.42-.099-40.326-.099-2.38 0-4.484-.001-6.474-.346-2.925-.507-5.175-1.583-7.215-3.015-2.005-1.408-3.56-3.179-4.942-5.288-1.341-2.05-2.307-4.48-2.519-7.708-.034-.513.046-1.071.049-1.631.004-.507-.112-1.049.149-1.532zm35.433-12.602c0-2.526.083-5.12.049-7.413-.051-3.573-2.008-5.882-4.201-7.314-2.043-1.334-5.062-2.343-8.5-2.076-3.633.283-6.535 2.248-7.512 5.041-.668 1.912-.25 4.246.742 5.634 1.861 2.604 5.459 3.63 8.994 4.893 2.539.906 5.129 1.868 7.66 2.718.886.297 1.726.716 2.62.89.267-.75.148-1.587.148-2.373zm16.901-14.035c-1.398 1.427-2.385 3.127-2.817 5.436-.434 2.318-.247 5.138-.247 8.006 0 5.789.037 10.662-.05 16.309-.042 2.804-.204 5.717.396 7.857 1.13 4.032 4.385 7.259 9.587 6.82 4.636-.392 7.621-3.419 8.401-8.055.385-2.286.346-5.067.346-7.907 0-5.813 0-10.397.049-16.11.024-2.779.008-5.474-.494-7.759-.907-4.128-4.314-7.492-9.39-7.116-2.546.187-4.4 1.11-5.781 2.519z" fill-rule="evenodd"/></svg>