<svg enable-background="new 0 0 81.64 80.576" viewBox="0 0 81.64 80.576" xmlns="http://www.w3.org/2000/svg"><g clip-rule="evenodd" fill-rule="evenodd"><path d="m40.004.037c6.494-.31 12.523 1.39 16.994 3.299 2.42 1.033 4.566 2.225 6.598 3.549.997.65 2.087 1.319 2.899 2.199.819.888 1.813 1.564 2.648 2.399 3.466 3.466 6.386 7.027 8.597 11.696 2.178 4.595 3.9 9.892 3.899 16.344-.001 3.513-.194 6.521-.8 9.347-1.165 5.438-3.471 10.067-6.248 14.045-4.839 6.931-11.34 12.33-20.093 15.395-3.692 1.292-8.113 2.099-12.896 2.249-6.32.199-12.257-1.316-16.795-3.299-7.182-3.139-12.649-7.536-17.044-13.396-4.275-5.703-7.443-13.013-7.745-22.642-.206-6.567 1.415-12.264 3.449-16.844 3.142-7.078 7.655-12.447 13.644-16.744 3.971-2.848 8.38-5.027 13.846-6.448 2.777-.721 5.848-.997 9.047-1.149zm-9.297 2.149c-2.695.622-5.04 1.615-7.197 2.699-2.264 1.138-4.387 2.219-6.248 3.649-5.628 4.323-10.256 9.475-13.245 16.444-2.34 5.455-3.98 13.596-2.699 21.093 1.686 9.865 5.942 17.136 11.996 22.692 5.208 4.78 11.383 8.377 19.692 9.997 4.311.84 9.163.918 13.646.35 7.126-.904 13.04-3.608 17.744-6.998 1.872-1.349 3.774-2.957 5.298-4.598 6.21-6.684 11.46-15.429 11.097-28.54-.167-6.007-1.866-11.435-4.049-15.745-2.308-4.555-5.019-7.936-8.497-11.346-3.314-3.25-7.103-5.932-11.896-7.897-4.612-1.892-10.461-3.302-16.844-2.999-3.226.153-6.048.565-8.798 1.199z"/><path d="m36.455 32.725c-.401.321-1.043.2-1.6.2-1.656 0-3.496.138-4.897-.1-.475-.525-.309-.869-.551-1.399-.959-2.119-3.515-3.262-6.447-3.299-2.217-.028-4.406.861-5.148 2.549-.697 1.586.216 2.886 1.3 3.548 5.576 2.496 13.668 2.288 16.794 7.148 1.004 1.56 1.434 3.557 1.35 5.648-.084 2.098-.871 3.708-1.899 5.048-1.983 2.585-5.238 4.151-9.396 4.498-4.473.373-8.702-.261-11.647-2.099-1.397-.873-2.598-2.031-3.498-3.449-.884-1.389-1.6-3.247-1.399-5.348.908-.265 2.124-.15 3.248-.15 1.15 0 2.307-.102 3.249.05.449.728.372 1.267.649 2 .734 1.938 2.778 3.106 5.198 3.399 3.275.396 7.326-.432 7.998-3.199.48-1.98-.855-3.251-1.949-3.849-1.531-.836-3.673-1.227-5.698-1.75-1.986-.513-4.038-.946-5.798-1.649-3.664-1.463-6.23-4.033-5.898-8.997.22-3.271 2.01-5.268 4.199-6.798 1.82-1.272 3.817-1.958 6.847-2.099 3.892-.181 7.564.298 9.947 1.699 2.148 1.264 3.869 3.226 4.698 5.798.243.76.504 1.68.348 2.6z"/><path d="m65.545 23.128c.637.62.717 1.267 1.05 2.1.883 2.207 2.179 4.553 3.349 6.897.827 1.657 1.617 3.342 2.549 5.098.3.564.738 1.393.75 1.799.016.542-.553 1.467-.85 2.1-1.868 3.975-3.72 7.954-5.498 11.996-.289.657-.485 1.382-.949 1.949-.616.04-1.74.181-2.199-.1.613-2.215 1.89-3.957 2.648-5.998.341-.915.66-1.722 1.05-2.549.773-1.643 1.4-3.081 2.249-4.848.339-.705 1.033-1.862 1.05-2.499.016-.58-.63-1.647-.95-2.299-.761-1.549-1.439-2.689-2.148-4.249-.906-1.994-1.792-4.179-2.8-6.148-.267-.522-.552-1.053-.799-1.6-.216-.476-.718-1.067-.45-1.649.558-.084 1.386-.072 1.948 0z"/><path d="m43.953 23.228c2.099 3.753 4.018 7.807 5.947 11.896.266.564.663 1.211 1 1.949.276.607.882 1.525.899 2.049.018.541-.566 1.461-.85 2.099-.916 2.067-1.871 4.069-2.799 5.998-1.315 2.733-2.35 5.451-3.799 7.897-.703.019-1.721.216-2.249-.05.06-.774.536-1.4.85-2.049.954-1.977 1.701-3.883 2.699-5.898.912-1.843 1.75-3.867 2.749-5.898.306-.622.834-1.463.85-1.999.015-.515-.552-1.505-.85-2.1-1.66-3.303-3.245-6.491-4.799-9.796-.609-1.296-1.374-2.544-1.799-3.999.52-.275 1.523-.205 2.151-.099z"/><path d="m47.501 23.179c.895 1.036 1.384 2.36 2 3.599 1.226 2.464 2.459 4.991 3.698 7.497.615 1.244 1.117 2.565 1.949 3.648 1.616.054 3.324.089 4.948.05.898-.022 1.906.03 2.699-.2-.324-1.333-1.071-2.467-1.649-3.648-1.168-2.388-2.33-4.716-3.448-7.147-.549-1.191-1.312-2.342-1.6-3.699.444-.278 1.498-.136 2.099-.1.836 1.185 1.401 2.544 2.1 3.849 1.704 3.185 3.16 6.618 4.848 9.946.3.59.883 1.534.9 2.049.017.523-.561 1.516-.85 2.149-1.845 4.044-3.757 8.037-5.649 12.046-.306.649-.5 1.397-1.05 1.899-.59.046-1.661.17-2.099-.1.338-1.319.995-2.511 1.549-3.699 1.665-3.566 3.389-7.04 4.898-10.796-.392-.421-1.124-.25-1.749-.25-1.855 0-4.131-.076-5.848.1-.88 1.028-1.309 2.378-1.899 3.599-.598 1.235-1.121 2.517-1.75 3.749-1.255 2.46-2.197 5.099-3.599 7.397-.638.052-1.692.14-2.249-.05.076-.723.432-1.416.75-2.049 1.606-3.193 3.141-6.445 4.648-9.846.255-.576.624-1.226.949-1.95.271-.603.797-1.602.8-2.099.004-.548-.622-1.423-.9-2.049-1.78-4.015-3.817-7.845-5.698-11.796-.305-.641-.773-1.282-.75-2.049.531-.154 1.353-.112 1.952-.05z"/><path d="m60.047 23.128c.622.028 1.359-.059 1.899.05.817 1.192 1.382 2.532 2.049 3.849 1.298 2.557 2.408 5.28 3.749 7.947.285.567.607 1.264.95 1.999.269.582.873 1.488.899 2 .023.458-.391 1.206-.65 1.799-.539 1.235-1.023 2.135-1.549 3.349-.255.585-.595 1.125-.8 1.649-.119.304-.136.646-.25.949-.268.715-.697 1.396-1 2.1-.9 2.099-1.96 4.265-3.049 6.248-.613.053-1.668.143-2.199-.05.025-.745.445-1.396.75-2.049 1.516-3.257 2.975-6.415 4.549-9.796.269-.578.607-1.257.9-2 .261-.661.743-1.545.75-2.099.003-.295-.184-.66-.351-1.05-.644-1.512-1.228-2.913-1.999-4.448-1.394-2.771-2.707-5.581-4.149-8.497-.27-.546-.798-1.421-.649-1.799.028-.072.078-.122.15-.151z"/><path d="m38.404 55.067c.4-1.46 1.142-2.743 1.75-4.048 1.503-3.227 3.041-6.45 4.598-9.797.313-.672.765-1.524.75-2.099-.014-.54-.604-1.46-.899-2.049-2.161-4.297-4.288-8.421-6.298-12.795-.127-.276-.441-.721-.1-1.05.554-.08 1.395-.08 1.949 0 .854 1.185 1.455 2.547 2.099 3.899 1.571 3.299 3.332 6.499 4.948 9.946.267.568.886 1.559.899 2.049.016.518-.565 1.503-.85 2.099-.965 2.028-1.861 4.035-2.799 6.048-.632 1.359-1.306 2.684-1.899 3.999-.605 1.343-1.088 2.739-1.949 3.898-.62.036-1.736.185-2.199-.1z"/></g></svg>