<svg enable-background="new 0 0 23.097 19.519" viewBox="0 0 23.097 19.519" xmlns="http://www.w3.org/2000/svg"><path d="m12.35.821c.162-.284.235-.68.575-.809.289-.072.519.188.622.427 3.184 6.312 6.373 12.623 9.549 18.939-.772-.021-1.546-.011-2.318-.003-2.27-4.469-4.539-8.938-6.807-13.408-.526-1.051-1.08-2.089-1.59-3.148-.204.424-.395.854-.59 1.283-.06.098.037.187.073.274 2.032 3.993 4.067 7.985 6.098 11.978.525 1.001 1.014 2.022 1.548 3.019-.871-.006-1.742-.004-2.613-.004-1.557-3.068-3.119-6.133-4.677-9.2-.556-1.125-1.155-2.228-1.701-3.358-.2.434-.381.878-.604 1.302.474.845.873 1.73 1.333 2.583 1.468 2.898 2.949 5.789 4.421 8.685-.834-.014-1.671-.029-2.504.007-1.087-2.076-2.135-4.174-3.218-6.253-.398-.809-.838-1.599-1.218-2.416-.139.202-.216.438-.321.658-.533 1.125-1.05 2.258-1.569 3.388-.508 1.042-.899 2.158-1.631 3.074-.646.854-1.604 1.52-2.683 1.655-.339.065-.682-.004-1.017-.061-.345-.06-.662-.226-.94-.433-.379-.321-.537-.829-.568-1.31.01-.929.44-1.815 1.067-2.487.584-.619 1.343-1.096 2.185-1.257.659-.064 1.37-.018 1.933.368.253.142.387.409.587.609.349-.587.577-1.24.887-1.848 1.894-4.085 3.799-8.166 5.691-12.254z"/></svg>