<svg enable-background="new 0 0 56.084 72.968" viewBox="0 0 56.084 72.968" xmlns="http://www.w3.org/2000/svg"><path clip-rule="evenodd" d="m55.938.265c.204 5.149.133 10.552.133 15.959 0 5.413.075 10.892-.133 16.049-7.332.154-15.128.133-22.406 0-.23-.576-.133-1.275-.133-1.956 0-2.004.145-4.203-.045-6.09-.658-.229-1.432-.178-2.178-.178-2.212 0-4.679 0-6.803.133-.236.619-.133 1.312-.133 1.957v26.673c0 1.332.108 2.7-.133 4.001-1.283.08-2.61.034-3.912.089-1.311.055-2.672.022-3.868-.133-.171-12.397-.089-25.389-.089-38.232 0-.803-.107-1.625.133-2.401 7.088-.114 14.74-.133 21.962-.133 1.012 0 2.051-.106 3.022.133.151 2.59-.088 5.571.134 8.091.039.02.079.039.089.089 1.989.046 4.397.131 6.312-.044.348-.546.115-1.236.134-1.868.12-4.312.075-9.672-.045-14.092-.037.008-.042-.017-.045-.044-1.598-.207-3.242-.089-4.89-.089-11.475 0-23.619-.079-34.986.089-.224 1.09-.133 2.247-.133 3.379 0 17.813-.059 36.06.044 53.124.788.24 1.642.133 2.445.133 12.655 0 24.746.116 37.476-.089.239-.587.164-1.256.178-1.912.094-4.371.007-9.561-.134-14.359-2.264-.174-5.229-.094-7.424-.044-.263 2.537.085 5.687-.178 8.224-1.128.239-2.51.134-3.867.133-1.344 0-2.737.073-3.912-.089-.258-.608-.117-1.31-.089-1.956.139-3.156-.188-6.908-.045-10.313.058-1.354-.127-2.694.134-3.957 7.61-.169 15.737-.147 23.384 0 .22 10.494.084 21.581.044 32.23-16.012.084-32.803.338-49.122.088-1.179-.018-2.354.053-3.513 0-1.088-.049-2.187.055-3.244-.178-.152-9.112-.088-18.358-.09-27.34-.001-12.698.045-25.523.045-38.764 0-1.918-.031-3.655 0-5.69.01-.698.065-.79.533-.845 1.01-.118 2.33.044 3.468.044 3.392 0 7.007.052 10.358.044 4.557-.01 9.373-.101 13.781.045 9.349.309 18.541-.413 27.741.089z" fill-rule="evenodd"/></svg>