<svg enable-background="new 0 0 86.996 44.94" viewBox="0 0 86.996 44.94" xmlns="http://www.w3.org/2000/svg"><path clip-rule="evenodd" d="m86.818 44.834c-2.689.078-5.513.087-8.186.102-.861.004-1.766.007-2.542-.204-.185-5.061-.102-11.125-.102-16.575 0-1.921.153-3.836 0-5.542-.054-.601-.73-1.34-1.118-1.881-.417-.581-.739-1.194-1.221-1.576-.579.245-.955.887-1.372 1.424-.393.504-1.019 1.051-1.17 1.627-.198.755-.051 1.885-.051 2.847 0 6.543.099 13.268-.101 19.727-3.419.201-7.287.221-10.779 0-.185-6.11-.102-13.283-.102-19.829 0-.941.131-1.994-.051-2.745-.145-.597-.713-1.108-1.119-1.627-.424-.543-.776-1.151-1.271-1.475-.518.33-.912.958-1.322 1.576-.354.532-1.007 1.158-1.119 1.729-.157.811 0 1.91 0 2.848 0 6.446.073 13.427-.102 19.523-2.431.143-5.368.19-8.186.103-.88-.027-1.749.088-2.491-.204-.147-8.567-.128-17.593 0-26.744.544-1.178 1.41-2.162 2.136-3.203.371-.531.684-1.054 1.067-1.576 1.84-2.5 3.697-5.134 5.593-7.678.934-1.422 2.137-2.574 2.898-4.169-.811-.249-1.714-.203-2.542-.203-7.947 0-16.531-.105-24.304-.102-4.614.001-8.545-.002-13.321 0-.935 0-2.024-.135-2.644.051-.598.179-1.174 1.329-1.627 1.932-3.112 4.145-5.782 8.32-8.795 12.455-.248.341-.466.71-.711 1.068-.213.309-.624.622-.56 1.067 1.638.294 3.357.213 5.034.203 11.95-.065 24.285-.065 36.456.101.227 1.68.051 3.589.051 5.441 0 1.868.119 3.717-.102 5.339-4.935.253-10.352.103-15.863.102-4.111 0-8.21 0-12.355 0-1.305 0-2.63-.097-3.864.102-.168 1.363-.168 3.416 0 4.78 10.278.36 21.936-.021 32.083.254.146 3.338.233 7.402 0 10.88-7.065.102-14.22.051-21.405.052-7.082 0-14.438.011-21.507-.203-.211-8.817-.112-18.053-.051-26.897 1.519-2.229 3.066-4.444 4.729-6.661.528-.703.932-1.518 1.475-2.287 1.406-1.994 3.184-4.481 4.779-6.61.46-.613 1.209-2.024 1.881-2.135.546-.091 1.229.002 1.881 0 18.885-.073 39.634.148 59.183.152.741.562 1.177 1.404 1.729 2.136 2.717 3.599 5.354 7.417 8.033 11.135 1.067 1.479 2.23 2.897 3.152 4.474.089 7.737.051 15.935.051 23.644-.002 1.083.116 2.202-.155 3.252zm-29.439-43.625c-.09.564.434 1.065.763 1.525.354.495.747.973 1.068 1.424 1.552 2.199 3.108 4.33 4.678 6.609.209.304 1.289 2.111 1.728 2.085.372-.022.813-.992 1.119-1.373 2.256-2.812 4.176-5.872 6.254-8.694.33-.448.867-.893.864-1.525-5.222-.195-10.992-.195-16.474-.051z" fill-rule="evenodd"/></svg>