<svg enable-background="new 0 0 179.268 128.053" viewBox="0 0 179.268 128.053" xmlns="http://www.w3.org/2000/svg"><g clip-rule="evenodd" fill-rule="evenodd"><path d="m80.395 0h.15c3.696 3.304 7.258 6.918 10.946 10.344 2.467 2.292 4.676 4.699 7.182 6.981 1.242 1.131 2.447 2.361 3.615 3.465 4.947 4.675 9.52 9.202 14.512 13.859 2.426 2.263 4.762 4.662 7.231 6.93 3.64 3.341 7.125 6.959 10.847 10.395 1.245 1.15 2.558 2.433 3.313 3.767 3.428 6.044 6.821 12.077 10.295 18.077 3.464 5.984 6.826 12.039 10.294 18.027 5.194 8.971 10.324 17.992 15.516 27.016 1.729 3.002 3.518 6.014 4.972 9.189-.454.056-.673-.429-.904-.703-.778-.927-1.784-1.77-2.711-2.611-1.226-1.112-2.399-2.35-3.565-3.515-2.37-2.37-4.846-4.666-7.23-6.931-8.271-8.301-16.906-16.154-25.208-24.454-3.113-3.112-6.164-6.231-9.341-9.29-.527-.509-1.088-.988-1.607-1.506-1.551-1.551-3.097-2.946-4.721-4.57-1.014-1.014-2.271-2.032-2.962-3.214-8.337-14.26-16.568-28.963-24.907-43.386-.762-1.316-1.395-2.703-2.159-4.017-4.552-7.819-9.055-15.748-13.509-23.703-.058-.007-.042-.09-.049-.15z"/><path d="m54.282 16.621c4.319-.205 9.021.347 12.704 1.155 11.356 2.492 19.889 7.859 26.966 14.462.601.561 1.101 1.181 1.657 1.808 1.572 1.773 3.296 3.672 4.67 5.674 2.766 4.029 5.341 8.353 7.131 13.608 1.691 4.97 3.214 10.975 3.213 17.476 0 15.99-5.269 26.888-12.453 35.903-.499.627-1.065 1.25-1.606 1.857-.544.611-1.063 1.265-1.607 1.809-4.627 4.626-9.921 8.535-16.219 11.398-4.795 2.18-9.931 3.898-16.069 4.67-4.131.519-8.587.691-12.955.251-6.139-.618-11.798-2.194-16.471-4.269-6.52-2.892-11.939-6.486-16.621-10.997-2.353-2.266-4.381-4.822-6.327-7.481-1.94-2.651-3.649-5.556-5.122-8.688-2.919-6.201-5.175-13.79-5.173-22.446 0-4.518.418-8.658 1.205-12.503 1.948-9.522 6.237-16.888 11.197-23.351.998-1.3 2.065-2.518 3.215-3.665 4.552-4.552 9.86-8.513 16.169-11.449 6.164-2.87 13.602-5.212 22.396-5.223.033.001.067.003.1.001z"/></g></svg>