<svg enable-background="new 0 0 60.745 74.125" viewBox="0 0 60.745 74.125" xmlns="http://www.w3.org/2000/svg"><g clip-rule="evenodd" fill-rule="evenodd"><path d="m24.088 25.331c-3.099 2.603-8.129 4.268-13.354 2.801-4.15-1.166-7.703-4.21-9.402-8.002-.972-2.169-1.554-4.652-1.25-7.402.528-4.803 3.425-8.563 6.801-10.604 2.929-1.77 7.594-2.852 11.903-1.55 2.993.904 5.077 2.517 6.852 4.602 2.478 2.911 4.441 8.026 2.9 13.154-.872 2.907-2.625 5.022-4.45 7.001z"/><path d="m55.947 3.975c2.637 2.353 4.37 5.345 4.751 9.703.388 4.428-1.663 8.094-3.851 10.503-2.221 2.446-5.789 4.397-9.903 4.551-4.752.178-7.896-1.588-10.553-3.851-1.866-1.828-3.303-3.974-4.151-6.702-.916-2.943-.717-6.333.45-9.053 1.594-3.716 4.374-6.457 8.202-8.053 1.411-.588 2.804-.967 4.552-1.05 4.898-.231 7.939 1.725 10.503 3.952z"/><path d="m28.789 31.333c.25 3.483.149 7.075.15 10.703.001 7.189.156 14.62.05 21.656-.026 1.762.08 3.537 0 5.252-.08 1.732.154 3.434-.15 5.102-4.65.024-9.528.059-14.254 0-3.624-.046-7.292-.01-10.553-.05-1.155-.014-2.301.133-3.401-.1-.2-13.047-.154-26.484-.151-40.062 0-.842-.119-1.737.15-2.551 2.007-.18 5.198-.1 7.452-.1 7.16-.001 13.645-.046 20.707.15z"/><path d="m60.549 31.433c.188 6.997.098 14.264.1 21.456.002 7.114.171 14.195-.05 21.156-9.223.126-19.203.098-28.408-.05-.256-12.813-.15-26.637-.15-40.111 0-.851-.113-1.735.15-2.551 8.978-.184 19.45-.154 28.358.1z"/></g></svg>