<svg enable-background="new 0 0 75.722 79.259" viewBox="0 0 75.722 79.259" xmlns="http://www.w3.org/2000/svg"><path clip-rule="evenodd" d="m15.818 79.097c-.021-.043-.042-.085-.095-.095-.254-6.283.049-12.371-.144-18.566-3.644-.241-7.794-.143-11.71-.143-1.286 0-2.586.115-3.762-.143-.151-13.639-.15-27.857.048-41.797 5.056-.252 10.446.006 15.376-.047.24-4.351.143-9.188.144-13.805 0-1.524-.116-3.06.143-4.475 3.868-.028 8.587 0 12.615 0 4.101 0 8.368-.14 12.14.238 11.205 1.122 18.703 6.364 24.85 12.567 1 1.01 1.887 2.254 2.762 3.475 4.148 5.798 7.812 13.706 7.521 23.564-.062 2.059-.148 3.883-.43 5.713-.809 5.251-2.518 9.946-4.855 13.853-3.162 5.286-7.166 9.47-12.043 12.901-4.881 3.431-10.838 5.976-18.328 6.617-3.934.337-8.055.387-12.187.191-2-.095-3.948.059-5.951 0-1.972-.059-4.001.082-6.094-.048zm6.665-60.697c-2.137-.097-4.594-.011-6.665 0-.257.758-.143 1.643-.143 2.523-.001 2.662-.075 5.51.095 7.95.45-.593.59-1.339.857-2 .271-.669.537-1.4.858-2 .824-1.546 2.228-2.894 3.617-3.903 1.479-1.075 3.256-1.735 5.094-2.428-1.129-.297-2.426-.083-3.713-.142zm13.758 42.036c2.137.059 4.186-.429 6.045-.952 5.4-1.519 9.082-4.93 11.807-9.045.912-1.378 1.777-3.143 2.189-4.808.836-3.384 1.057-7.856.191-11.235-.135-.517-.154-1.069-.287-1.571-.601-2.298-2.002-4.521-3.283-6.188-2.709-3.526-6.418-6.333-11.379-7.569-2.498-.622-6.314-.88-9.377-.571.092.301.449.306.666.381.268.092.559.195.809.286 5.332 1.929 9.83 6.966 8.998 14.52-.27 2.439-1.186 4.528-2.428 6.236-2.416 3.32-6.242 5.867-11.616 5.665-2.505-.094-4.81-.89-6.616-2-2.428-1.491-4.152-3.653-5.285-6.379-.295-.709-.4-1.515-.856-2.189-.296 2.057-.096 4.148-.143 6.236-.14 6.218-.013 12.538.048 19.042 6.952.286 13.794-.044 20.517.141z" fill-rule="evenodd"/></svg>