<svg enable-background="new 0 0 13.689 13.831" viewBox="0 0 13.689 13.831" xmlns="http://www.w3.org/2000/svg"><path d="m5.569.15c1.104-.228 2.26-.197 3.349.094 1.215.331 2.349.984 3.218 1.899.694.697 1.215 1.558 1.553 2.481-.606.267-1.226.501-1.833.765-.304.13-.614.247-.915.382-.302-1.027-1.053-1.9-1.997-2.396-.752-.388-1.624-.54-2.463-.422-.769.097-1.502.431-2.095.926-.278.262-.556.53-.76.855-.394.596-.624 1.299-.652 2.012-.032.666.115 1.338.413 1.933.585 1.19 1.796 2.035 3.11 2.196.766.101 1.562-.011 2.264-.337.862-.39 1.579-1.095 1.979-1.953.084-.168.141-.348.208-.523.73.297 1.452.613 2.182.91.186.082.378.149.56.239-.377 1.016-.976 1.954-1.773 2.69-.904.862-2.05 1.469-3.269 1.746-.722.157-1.468.229-2.204.153-1.802-.133-3.541-.998-4.728-2.361-1.008-1.135-1.626-2.616-1.699-4.134-.044-.502.002-1.008.077-1.505.216-1.347.855-2.621 1.798-3.605.976-1.038 2.281-1.76 3.677-2.045z"/><path d="m4.888 3.927c1.181-.844 2.859-.892 4.096-.14.261.151.486.353.712.55.081.072.135.168.213.244.333.378.563.837.716 1.315-.805.337-1.615.663-2.413 1.013.801.346 1.604.687 2.413 1.015-.324 1.122-1.219 2.054-2.321 2.435-.712.246-1.496.283-2.224.089-1.333-.329-2.435-1.466-2.691-2.818-.141-.688-.073-1.415.187-2.066.265-.658.729-1.234 1.312-1.637zm2.028 1.861c-.446.047-.852.372-.978.805-.09.28-.054.594.089.85.164.309.478.527.821.586.388.074.804-.082 1.062-.378.244-.265.335-.653.249-1-.119-.546-.693-.936-1.243-.863z"/></svg>