<svg enable-background="new 0 0 20.745 38.939" viewBox="0 0 20.745 38.939" xmlns="http://www.w3.org/2000/svg"><path d="m9.469.047c.355-.058.715-.043 1.073-.047.298-.002.593.033.889.061.144 0 .286.031.428.054.191.034.387.045.575.098.469.118.947.215 1.392.409.166.075.347.111.506.2.439.19.874.391 1.282.643.302.184.596.379.884.583.332.256.668.511.959.813.122.122.261.228.373.362.158.178.336.338.479.529.276.331.541.671.766 1.039.115.183.234.364.332.558.064.128.154.242.211.374.099.224.215.441.301.671.198.45.344.921.48 1.393.054.19.115.38.132.578.015.176.082.342.09.519.011.174.065.343.065.518.074.549.045 1.106.051 1.659-.002.189.014.38-.021.567-.096-.008-.192-.007-.287-.004-2.22.001-4.439.007-6.659.002-.006-.433-.001-.866-.005-1.299-.023-.221-.035-.445-.091-.661-.044-.168-.103-.332-.138-.501-.021-.099-.073-.187-.119-.276-.221-.436-.528-.83-.91-1.136-.231-.173-.471-.338-.736-.453-.166-.058-.324-.135-.492-.185-.198-.063-.406-.076-.611-.103-.174-.012-.348-.005-.521-.004-.238-.003-.469.063-.698.12-.155.037-.298.108-.446.162-.191.068-.356.187-.526.294-.323.21-.599.486-.833.79-.178.212-.313.456-.422.71-.137.296-.21.616-.26.936-.025.396-.013.794-.015 1.192.004 1.581 0 3.161.004 4.742-.003.196-.002.393.004.59.135.08.274.155.415.227.297.14.583.304.882.441.286.14.57.282.856.421.338.148.665.321 1.001.474.588.287 1.169.585 1.758.87.208.108.427.197.632.311.333.168.672.323 1 .501.154.095.312.185.475.264.577.317 1.162.621 1.728.959.184.124.378.232.565.352.565.387 1.129.779 1.645 1.231.233.216.476.422.687.66.56.61 1.059 1.284 1.416 2.035.04.102.082.203.133.3.1.199.153.416.229.624.064.188.113.382.166.574.059.2.068.411.118.614.035.127.016.26.042.389.057.364.04.733.043 1.1-.005.246.012.495-.04.738-.034.139-.006.284-.042.424-.042.175-.056.355-.079.533-.062.322-.145.641-.236.956-.043.157-.086.315-.149.466-.07.167-.113.346-.191.51-.07.146-.115.303-.195.444-.419.888-.95 1.729-1.612 2.457-.196.191-.364.409-.565.596-.385.363-.791.705-1.224 1.009-.395.277-.797.548-1.233.759-.186.121-.397.192-.591.296-.125.065-.265.097-.394.153-.439.188-.895.335-1.359.443-.308.046-.609.134-.919.168-.101.009-.2.032-.301.036-.206.002-.408.046-.613.053-.219.007-.438.006-.657.004.001-.678-.001-1.356-.001-2.034-.005-.11.009-.219.029-.326.216.006.433.011.648-.021.314-.037.633-.049.942-.126.213-.054.429-.096.643-.149.276-.07.54-.182.812-.264.124-.039.232-.115.347-.173.316-.159.632-.32.937-.499.486-.307.945-.66 1.347-1.072.424-.409.777-.883 1.107-1.369.203-.315.382-.645.536-.986.063-.179.158-.344.211-.525.054-.18.128-.352.18-.532.075-.274.145-.551.176-.833.015-.157.07-.309.068-.468-.001-.125.035-.247.033-.372.007-.419.022-.841-.03-1.258-.001-.165-.054-.321-.08-.482-.069-.406-.229-.788-.39-1.164-.103-.191-.204-.383-.328-.561-.222-.377-.517-.703-.819-1.016-.09-.104-.191-.197-.297-.284-.321-.293-.67-.554-1.019-.812-.314-.196-.614-.416-.937-.598-.31-.205-.646-.364-.959-.563-.307-.179-.627-.336-.946-.493-.533-.275-1.071-.543-1.609-.808-.262-.114-.51-.256-.772-.368-.303-.158-.612-.306-.92-.453-.405-.179-.796-.387-1.195-.577-.359-.172-.724-.333-1.076-.519-.013.08-.032.161-.033.243.004.551-.002 1.101.003 1.652.002.182-.013.364.009.545-.007.073-.014.147-.012.221.003.414.001.828.002 1.243.004.124-.011.25.012.375-.024.201-.011.403-.014.606 0 .511.004 1.022.001 1.533-.002.071.002.142.007.214-.006.254-.016.51.003.764-.019.292.001.586-.009.878-.005.329.004.658 0 .988-.007.209.027.415.03.624.074.549.274 1.087.609 1.531.158.226.347.431.561.605.209.186.448.337.699.46.179.066.347.158.533.204.131.035.262.069.396.093.11.021.223.011.334.029.192.031.388.023.581-.005.124-.013.251-.012.373-.044.283-.072.566-.15.83-.275.275-.127.518-.311.751-.502.228-.202.442-.424.601-.685.104-.175.213-.349.286-.539.089-.334.186-.667.234-1.009.005-.115.002-.232.028-.344.208.038.42.022.63.024.566.005 1.133-.007 1.699.007.007.197.006.394-.005.592-.018.182-.069.359-.09.541-.038.295-.132.579-.235.858-.053.191-.151.364-.228.546-.136.245-.265.495-.432.722-.364.543-.838 1.006-1.365 1.389-.253.195-.526.366-.816.501-.301.156-.629.253-.951.357-.308.08-.618.162-.937.181-.174.026-.349.04-.524.049-.244-.025-.492.008-.735-.037-.101-.017-.204-.01-.304-.027-.346-.057-.684-.146-1.022-.238-.172-.058-.34-.127-.509-.193-.417-.198-.822-.424-1.188-.706-.206-.181-.43-.344-.612-.551-.116-.129-.239-.252-.348-.387-.076-.091-.126-.198-.189-.297-.074-.12-.16-.231-.233-.351-.063-.104-.111-.216-.171-.321-.102-.172-.162-.364-.243-.547-.133-.302-.214-.625-.27-.95-.12-.465-.095-.948-.111-1.423.021-.215-.028-.43 0-.644.013-.356.014-.714-.008-1.069.03-.255-.01-.51 0-.765-.009-.215.029-.428.014-.642-.013-.173-.018-.347-.011-.519.025-.215-.016-.429-.004-.644-.011-.276.026-.55.015-.825-.005-.214.011-.428-.007-.642-.006-.082-.007-.164 0-.244.02-.184-.024-.368-.002-.551.032-.265-.012-.53-.004-.796-.002-1.054-.001-2.108-.006-3.162-.598-.369-1.159-.794-1.701-1.24-.4-.354-.782-.73-1.131-1.134-.441-.529-.826-1.11-1.1-1.743-.2-.393-.304-.824-.439-1.241-.059-.234-.092-.473-.129-.71-.054-.276-.066-.558-.093-.837-.011-.356-.003-.713 0-1.069.003-.118.033-.229.031-.342-.009-.143.039-.28.038-.422.011-.229.085-.448.113-.674.021-.169.054-.337.102-.5.062-.212.104-.43.185-.635.059-.145.096-.296.144-.444.335-.882.762-1.735 1.328-2.493.296-.43.647-.818.999-1.203.184-.183.362-.373.561-.54.231-.21.485-.391.726-.59.471-.348.975-.651 1.494-.922.146-.087.302-.155.458-.22.511-.243 1.054-.41 1.596-.568.355-.108.723-.158 1.085-.232.201-.026.403-.046.605-.066zm.428 2.348c-.14.027-.283.018-.423.04-.072.011-.143.016-.215.022-.143.013-.278.065-.42.083-.202.02-.393.09-.589.136-.589.165-1.152.413-1.692.7-.252.154-.517.288-.75.471-.225.183-.464.348-.677.544-.665.556-1.214 1.243-1.65 1.99-.262.407-.445.857-.627 1.303-.169.507-.311 1.025-.398 1.553-.01.128-.022.257-.047.384-.026.114-.016.232-.02.348-.025.281-.044.566-.005.846.008.17.006.341.04.509.086.448.157.908.355 1.324.165.41.395.793.655 1.15.167.209.32.431.517.614.206.206.423.401.642.593.007-1.549.002-3.097.001-4.646.005-.113-.002-.226.015-.337.024-.138.007-.28.043-.416.056-.241.083-.488.162-.723.068-.23.127-.466.236-.681.155-.384.362-.747.598-1.087.066-.098.119-.204.195-.295.204-.234.4-.477.641-.675.249-.221.504-.44.791-.612.144-.095.295-.178.443-.266.139-.08.291-.131.434-.205.17-.088.359-.131.538-.196.305-.108.625-.158.943-.21.182-.002.361-.046.543-.041.298-.001.598-.01.892.048.138.029.281.01.417.05.239.065.484.113.718.194.142.062.286.118.431.172.298.13.584.287.854.467.311.224.61.467.889.73.226.244.453.488.648.758.242.361.486.727.642 1.135.155.341.258.704.341 1.069.755.007 1.509.002 2.264 0-.019-.166-.059-.328-.094-.491-.066-.31-.135-.62-.244-.918-.06-.171-.135-.335-.2-.503-.083-.215-.201-.415-.296-.625-.128-.218-.237-.447-.386-.652-.288-.454-.637-.867-1.006-1.257-.245-.224-.477-.465-.746-.661-.311-.237-.63-.466-.972-.655-.259-.169-.547-.283-.816-.432-.15-.085-.321-.123-.479-.19-.296-.124-.61-.198-.92-.281-.255-.069-.52-.085-.779-.136-.073-.014-.146-.018-.22-.018-.109.001-.218-.029-.33-.029-.296-.003-.592-.014-.887.005z"/></svg>