<svg enable-background="new 0 0 77.944 66.187" viewBox="0 0 77.944 66.187" xmlns="http://www.w3.org/2000/svg"><path clip-rule="evenodd" d="m8.866.128c.335 1.087.071 2.226.099 3.359.138 5.707.152 11.833.05 17.683-.199 11.203.004 22.821.048 34.229.779.318 1.676.229 2.52.197 7.665-.287 15.807.188 23.659 0 5.252-.125 10.663.074 15.953-.148.269-1.062.148-2.204.148-3.31-.001-7.878.083-16.051-.099-23.955-1.171-.265-2.666-.148-4.1-.148-1.42 0-2.894-.117-4.051.148-.267 1.442-.148 3.068-.147 4.742.001 3.987-.001 8.104 0 12.15 0 .759.114 1.563-.148 2.272-8.289.182-17.268.162-25.585 0-.167-13.238-.101-26.56-.1-39.958.001-1.858-.119-3.751.149-5.581 12.649-.158 25.608-.149 37.884-.149h19.065c1.211 0 2.444-.142 3.606.198.181 8.101.099 16.288.099 24.35 0 10.706-.048 21.036-.05 31.907 0 1.357-.046 2.743 0 4.1.045 1.284.192 2.593-.099 3.853-2.672.183-6.095.12-8.693.05-.254-1.048-.149-2.172-.148-3.26 0-8.043-.001-16.279 0-24.4 0-9.313.128-18.608-.1-27.561-1.712-.269-3.478-.148-5.235-.148-12.463 0-25.188-.085-37.489.099-.267 1.076-.147 2.241-.147 3.359-.001 7.911-.175 16.052.05 24.054.143.246 1.402.251 2.024.247 1.865-.013 4.103.011 5.828-.148.264-1.487.148-3.07.148-4.692-.001-4.76-.118-9.993.148-14.571 4.358-.176 8.807-.148 13.237-.148h9.681c1.07 0 2.175-.118 3.21.148.179 14.204.101 28.515.1 42.577 0 .899.114 1.838-.149 2.716-4.887.255-9.843.148-14.817.148-14.987.001-30.345.081-45.244-.099-.263-5.343-.148-10.793-.148-16.2-.001-15.687.012-31.746.15-48.11 2.51-.192 5.935-.148 8.693 0z" fill-rule="evenodd"/></svg>