<svg enable-background="new 0 0 39.362 39.119" viewBox="0 0 39.362 39.119" xmlns="http://www.w3.org/2000/svg"><path d="m18.69.029c6.123-.348 12.249 2.467 16.196 7.122 2.147 2.696 3.694 5.908 4.226 9.329.614 3.735.087 7.65-1.488 11.094-1.27 2.692-3.026 5.22-5.401 7.051-5.077 4.315-12.409 5.564-18.715 3.57-2.224-.807-4.397-1.867-6.206-3.416-5.757-4.442-8.498-12.385-6.809-19.439.329-1.581.944-3.081 1.631-4.535 3.098-6.189 9.689-10.36 16.566-10.776zm-9.507 4.833c-3.363 2.314-5.924 5.82-7.032 9.749-1.111 3.925-.866 8.204.678 11.981 1.461 3.403 3.952 6.401 7.137 8.316.251-.728.424-1.482.632-2.223.443.167.89.329 1.342.473-.185.853-.465 1.685-.635 2.541 1.43.723 2.939 1.311 4.52 1.603 4.249.816 8.821.279 12.628-1.842-.601-2.327-1.219-4.651-1.841-6.973.465-.124.918-.31 1.393-.389.596 2.175 1.134 4.366 1.76 6.533 5.406-3.383 8.549-9.926 8.097-16.251-.156-2.811-1.066-5.549-2.46-7.985-2.977-5.066-8.579-8.465-14.425-8.862.751 3.096 1.684 6.148 2.418 9.247-.503-.006-1-.098-1.501-.135-.684-2.496-1.338-4.999-2.022-7.495-.235.773-.401 1.566-.637 2.339-.492.047-.988.024-1.482.047.353-1.348.698-2.699 1.04-4.05-3.431.23-6.796 1.392-9.61 3.376z"/><path d="m15.985 6.375c1.315-.131 2.653-.257 3.967-.159.135.442.368.948.347 1.389-1.89-.059-3.799.036-5.659.416-1.524.366-3.065.888-4.271 1.928-.973.789-1.594 1.993-1.654 3.243-.409.359-.942.587-1.384.921-.233-1.868.503-3.822 1.924-5.06 1.825-1.686 4.327-2.356 6.73-2.678z"/><path d="m23.004 6.477c2.869.425 5.714 1.388 8.109 3.047-.265.376-.516.762-.785 1.135-2.085-1.372-4.472-2.248-6.92-2.697-.144-.491-.278-.988-.404-1.485z"/><path d="m16.968 8.409c.492-.131 1.019-.095 1.528-.121-.786 3.08-1.64 6.147-2.443 9.224-.482-.044-.961-.103-1.443-.158.78-2.983 1.591-5.96 2.358-8.945z"/><path d="m18.445 11.3c3.282-.169 6.607.238 9.717 1.319 1.769.613 3.437 1.558 4.84 2.786-.129.456-.432.856-.618 1.296-.378-.224-.67-.565-1.039-.803-1.776-1.421-3.984-2.16-6.173-2.667-2.325-.531-4.727-.643-7.103-.502.067-.488.249-.954.376-1.429z"/><path d="m10.714 13.03c1.498-.601 3.056-1.093 4.658-1.311-.123.485-.21.989-.395 1.452-1.759.45-3.539.938-5.127 1.847-1.475.802-2.9 1.912-3.572 3.498-.6 1.338-.253 2.951.642 4.074 1.193 1.538 2.957 2.494 4.725 3.224-.072.468-.233.918-.343 1.378-2.383-.925-4.77-2.321-6.07-4.605-1.107-1.886-.795-4.355.554-6.034 1.246-1.636 3.071-2.711 4.928-3.523z"/><path d="m22.668 13.51c.511.052 1.019.126 1.524.216.999 3.878 2.055 7.745 3.09 11.614-.446.194-.924.299-1.388.444-.156-.516-.275-1.043-.411-1.564-.957-.029-1.917.018-2.874-.029-.372.022-.751.033-1.122-.01-.862.009-1.732.024-2.599.013-.128.02-.258.015-.386 0-.867.029-1.743.026-2.607.032-.539.05-1.085.02-1.626.029-.577 2.048-1.006 4.132-1.609 6.172-.44-.086-.84-.297-1.264-.434-.125-.023-.069-.168-.052-.25.85-3.233 1.74-6.455 2.542-9.699.476.061.951.146 1.431.178-.192.905-.527 1.779-.675 2.691 3.483-.087 6.963-.076 10.446-.049-.758-3.129-1.625-6.232-2.42-9.354z"/><path d="m8.377 16.889c.334-.338.722-.659 1.158-.846.749.897 1.892 1.3 2.986 1.594 3.402.832 6.932.677 10.392 1.061.15.032.403-.046.442.163.127.434.226.876.347 1.312-3.183-.344-6.399-.353-9.576-.767-2.062-.364-4.337-.826-5.749-2.517z"/><path d="m26.796 20.775c-.14-.515-.349-1.018-.403-1.552 2.128.486 4.441 1.311 5.643 3.266-.333.341-.674.676-1.059.958-.856-1.517-2.569-2.254-4.181-2.672z"/><path d="m29.264 25.292c1.665-.844 3.352-1.957 4.186-3.692.328.36.754.678 1.024 1.063-1.005 1.794-2.787 2.999-4.59 3.897-4.426 2.105-9.504 2.372-14.298 1.76-.531-.079-1.053-.207-1.582-.3.11-.452.229-.9.345-1.35 4.951.906 10.283.764 14.915-1.378z"/><path d="m31.397 26.537c.503-.304.971-.661 1.463-.981.147 2.385-1.21 4.688-3.224 5.917-.148-.482-.301-.966-.383-1.463 1.144-.805 1.97-2.074 2.144-3.473z"/><path d="m6.928 29.823c.289-.356.549-.797.897-1.067 3.047 2.269 6.876 3.233 10.629 3.34 2.736.076 5.54.073 8.171-.781.164.446.27.913.371 1.378-1.841.613-3.794.802-5.724.859-3.623.086-7.345-.176-10.711-1.636-1.296-.533-2.523-1.237-3.633-2.093z"/></svg>