<svg clip-rule="evenodd" fill-rule="evenodd" stroke-linejoin="round" stroke-miterlimit="2" viewBox="0 0 560 400" xmlns="http://www.w3.org/2000/svg"><path d="m298.6 0s.5.2.5.5c8.5 11.4 54.6 103.1 54.6 103.1l78.1-22-6.6 79.1 20.9-27.6 38.8 70.4 111.8-33.2-36.2 110.3 40.1 23.5v140.4h-180.5v181.7h-239.4v-181.6h-180.2l-.5-143.4s26.9-12.9 38.8-20.9c-2.3-12.7-32.3-96.2-34.7-109.3 36.1 10.3 72.9 21.6 110.3 33.2 14.2-22.6 25.3-46.6 38.8-71 9.2 8.8 14.7 21.4 23 31.1 1.2-2.7-7.7-83.7-7.7-83.7l76.6 23zm-29.6 159.8c-2 .5-45.9-13.3-45.9-13.3l19.9 198.1-84.2-120-20.4 35.2-60.7-17.4 19.3 61.8-49.5 26v67.3h180.7v181.9h144.7v-181.9h180.4v-66.7l-49.5-28.6c-.3-1.3 18.9-60.2 18.9-60.2l-60.2 17.9-20.4-35.2-81.7 122.5 17.9-201.2-49 13.8-30.1-56.1z" transform="matrix(.431172 0 0 .431172 150.519 65)"/></svg>