<svg enable-background="new 0 0 46.678 77.41" viewBox="0 0 46.678 77.41" xmlns="http://www.w3.org/2000/svg"><g clip-rule="evenodd" fill-rule="evenodd"><path d="m39.544.014c2.775-.19 4.99 1.607 6.012 3.206 1.032 1.617 1.542 4.305.701 6.412-1.165 2.916-4.872 5.385-8.667 4.007-1.956-.71-3.444-2.115-4.208-3.807-1.02-2.26-.557-5.017.651-6.763 1.069-1.544 2.765-2.867 5.511-3.055z"/><path d="m45.705 71.348c-.892.747-2.025 1.078-3.056 1.603-2.5 1.276-5.094 2.584-7.714 3.807-.529.247-1.043.615-1.653.651-.272-.945-.101-2.136-.101-3.356 0-3.416.221-7.032 0-10.319-.423.478-.421 1.145-.601 1.703-1.257 3.907-3.545 7.224-6.863 9.167-1.882 1.102-4.051 2.125-6.663 2.505-2.57.374-5.6.145-8.015-.751-4.341-1.612-7.673-4.615-9.518-8.817-.931-2.119-1.504-4.692-1.503-7.665 0-2.88-.084-5.947.1-9.017 4.142-.291 8.228.106 12.123-.15.032-.404-.323-.748-.551-1.001-1.249-1.391-2.661-2.84-3.808-4.409-.452-.619-.821-1.333-1.252-2.003-1.709-2.662-2.957-5.81-3.056-9.919 1.904-1.364 4.116-2.205 6.211-3.356.698-.383 1.462-.64 2.154-1.002 2.799-1.465 5.733-2.727 8.616-4.108 2.848-1.364 5.67-2.834 8.517-4.208 2.858-1.379 5.578-3.029 8.416-4.258.603-.262 1.501.875 1.953 1.402.529.617 1.059 1.141 1.503 1.653 2.945 3.398 4.884 7.93 5.26 13.676.205 3.122.001 6.399 0 9.618 0 3.183-.179 6.351-.15 9.417.063 6.423-.224 12.867-.349 19.137zm-12.173-22.292c.137-3.237.053-6.562.15-9.618.104-3.251.451-6.844-.45-9.217-.431-1.132-1.136-2.137-1.954-2.956-.821-.821-1.799-1.586-2.905-2.054-1.11-.469-2.639-.847-4.259-.752-2.376.139-3.703.626-5.109 1.703-1.797 1.376-3.264 3.578-3.256 6.562.009 3.361 2.327 5.594 4.008 7.364.492.519.947 1.099 1.452 1.603.984.984 2.007 1.981 3.006 3.056 1.486 1.599 3.046 3.078 4.358 4.759.454.581 1.007 1.085 1.402 1.653 1.286 1.847 2.249 4.058 2.855 6.462.08.317.098.747.401.952.428-2.911.161-6.188.301-9.517zm-20.89 2.305c-.184.442-.079 1.576-.1 2.505-.051 2.22-.317 5.244-.101 7.464.214 2.187 1.681 3.161 3.406 3.657 3.028.227 5.126-1.697 4.909-4.308-.114-1.378-.859-2.142-1.602-3.006-1.356-1.575-2.935-3.181-4.258-4.559-.731-.605-1.174-1.499-2.104-1.903-.072.028-.122.078-.15.15z"/></g></svg>