<svg enable-background="new 0 0 76.504 72.419" viewBox="0 0 76.504 72.419" xmlns="http://www.w3.org/2000/svg"><path clip-rule="evenodd" d="m27.723 43.967c-.983-.624-1.397-1.817-2.411-2.41-.665.41-.767 1.323-1.004 2.108-.686 2.267-.898 5.484-.151 8.035.716 2.444 1.691 4.337 3.264 5.976.436.453 1.359 1.063 1.456 1.606.187 1.046-.597 3.084-.904 3.867-1.353 3.443-3.598 5.854-6.679 7.531-2.053 1.119-4.675 1.905-7.683 1.708-2.73-.18-5.317-.917-7.08-2.36-1.78-1.458-3.389-2.87-4.57-4.922-1.122-1.948-2.03-4.519-1.958-7.481.151-6.269 3.368-8.979 5.976-12.955.324-.494.565-1.023.904-1.507 10.084-14.385 19.955-28.815 30.28-43.085.448-.365 1.058.644 1.406 1.105 1.033 1.37 2.077 2.869 3.063 4.117 1.487 1.881 2.774 3.686 4.067 5.474 2.739 3.786 5.404 7.531 8.085 10.997 5.592 7.229 10.816 14.582 16.32 21.894 1.372 1.822 2.79 3.59 4.067 5.523 1.232 1.866 2.156 4.347 2.31 7.231.168 3.151-.64 5.725-1.758 7.783-2.19 4.034-5.985 7.005-11.499 7.633-2.853.324-5.757-.413-7.884-1.557-3.134-1.685-5.419-4.009-6.829-7.482-.415-1.022-1.042-2.793-.854-3.917.111-.666.994-1.289 1.356-1.707 2.177-2.516 3.92-6.689 3.113-11.499-.142-.846-.335-1.637-.603-2.41-.166-.479-.482-1.908-1.055-1.958-.393-.035-.768.673-1.054 1.054-2.078 2.757-5.008 4.962-9.189 5.574-5.569.816-9.603-1.28-12.502-3.966zm24.304-8.738c.565-5.077-1.155-8.886-3.415-11.5-.478-.553-.959-1.197-1.456-1.656-2.703-2.498-7.961-4.199-12.805-2.963-2.887.737-4.985 1.984-6.83 3.866-2.309 2.357-4.179 5.875-4.167 10.094.005 1.97.491 4.009 1.054 5.474.184.476.381 1.104.904 1.305.598-.163.857-.779 1.205-1.205.362-.442.742-.871 1.105-1.306 2.442-2.215 5.543-4.267 10.244-4.268 4.574-.001 8.066 1.717 10.294 4.218.444.321.834.743 1.205 1.205.349.434.583 1.129 1.205 1.155.813-1.179 1.27-2.742 1.457-4.419z" fill-rule="evenodd"/></svg>