<svg enable-background="new 0 0 70.679 76.76" viewBox="0 0 70.679 76.76" xmlns="http://www.w3.org/2000/svg"><path clip-rule="evenodd" d="m50.015.15c.266 10.352-.116 20.988.097 31.619.51.023.698-.535.973-.826.847-.896 2.083-1.771 3.502-2.141 2.031-.525 4.558-.564 6.616 0 3.726 1.024 6.417 3.777 7.929 7.102 1.593 3.506 1.966 8.285 1.07 12.893-.805 4.141-2.961 7.142-5.74 9.242-2.035 1.34-4.873 2.082-8.124 1.703-2.153-.252-4.024-1.027-5.302-2.19-.438-.398-.816-.906-1.411-1.07-.44 1.047-.398 2.211-.681 3.404-.515 2.178-1.167 4.102-2.238 5.887-.212.354-.478.797-.778 1.266-.227.352-.734.945-.73 1.264.008.533.875.963 1.216 1.119.958.439 2.475.406 3.551.633.142.926.141 2.074.098 3.113-.045 1.059.038 2.08-.146 2.869-1.847.117-3.878.258-5.546-.242-.723-.219-1.399-.656-1.945-1.07-.478-.363-1.194-1.131-1.8-1.168-.304-.02-.49.242-.875.486-1.91 1.211-4.342 2.48-7.199 2.676-7.247.494-11.962-3.439-13.086-9.438-.57-3.043.289-6.029 1.459-8.027.153-.26.51-.508.438-.875-.416-.051-.787.203-1.167.342-2.56.92-6.204 1.336-9.729.875-4.851-.635-8.17-2.961-9.729-6.908-.379-.961-.804-2.055-.729-3.211 2.03-.193 4.602-.096 6.713-.049.361.764.537 1.518.924 2.19.352.611.871 1.195 1.508 1.605 3.017 1.947 7.928 1.031 9.34-1.41.931-1.609-.195-3.156-1.411-3.746-1.923-.932-4.84-1.147-7.2-1.606-2.497-.484-4.724-1.189-6.324-2.432-2.462-1.584-3.517-6.191-2.14-9.777 1.196-3.117 3.861-4.891 7.442-5.691 6.253-1.4 11.914.803 14.594 4.328.468.617.874 1.334 1.167 2.141.278.768.617 1.674.535 2.627-2.025.211-4.702.072-6.665.049-.396-.553-.312-.904-.535-1.41-.697-1.58-2.385-2.508-4.524-2.627-2.534-.141-5.585.723-5.789 3.064-.214 2.465 2.842 2.779 4.913 3.211 3.693.767 7.976 1.16 10.459 3.113 1.189.82 1.946 2.074 2.822 3.209.378-.281.393-.791.486-1.166.756-3.047 2.487-4.996 5.253-6.129 3.529-1.445 7.752-.373 9.729 1.848.762.471 1.054 1.41 1.8 1.896.285-1.693.195-3.453.195-5.205 0-12.375-.019-24.768.146-37.359 1.937-.226 4.599-.175 6.568-.001zm.925 37.506c-.861 1.164-1.271 2.832-1.411 4.719-.432 5.842 1.545 10.441 6.518 10.652 1.468.064 2.942-.395 3.794-1.021 2.499-1.834 3.299-6.381 2.773-10.264-.414-3.059-1.944-5.406-4.135-6.275-.69-.271-1.806-.369-2.579-.34-2.325.089-4.013 1.249-4.96 2.529zm-18.486 9.146c-.048 1.053.259 1.646.632 2.48.293.652.731 1.82 1.265 1.897.504.072 1.442-.633 1.848-.973.561-.471 1.016-.883 1.362-1.459 1.371-2.283-.151-5.027-2.821-4.572-1.3.221-2.226 1.334-2.286 2.627zm-6.129 3.989c-.012.068-.081.082-.097.146-.216.781-.327 1.535-.584 2.188-.25.637-.792 1.168-.73 1.898 1.073-.354 1.919-.935 2.578-1.703-.295-.904-.569-1.83-1.07-2.529-.032 0-.064 0-.097 0zm15.858 1.605c-.884 1.045-2.428 2.117-3.648 2.967-.489.34-1.183.578-1.216 1.021-.021.271.295.777.486 1.07.828 1.268 1.472 2.461 2.238 3.746.438.734.846 1.576 1.508 1.945 2.006-1.678 1.713-6.549 1.703-10.119-.001-.439.047-1.777-.292-1.701-.307.274-.487.725-.779 1.071zm-11.723 6.615c-1.273.561-2.821 1.881-3.454 2.918-.688 1.129-1.093 3.258-.486 4.768.46 1.146 1.666 2.479 2.627 3.064 1.65 1.006 4.22.83 5.935 0 .631-.305 1.712-.822 1.751-1.41.015-.225-.374-.949-.584-1.312-1.12-1.938-2.614-4.078-3.794-5.936-.417-.656-1.042-2.207-1.848-2.092-.041.006-.11-.015-.147 0z" fill-rule="evenodd"/></svg>