<svg enable-background="new 0 0 77.741 68.376" viewBox="0 0 77.741 68.376" xmlns="http://www.w3.org/2000/svg"><g clip-rule="evenodd" fill-rule="evenodd"><path d="m25.876 67.759c-.288-7.966.099-16.212-.196-24.406-8.206-.387-17.007.014-25.392-.296-.267-1.381-.147-2.863-.147-4.33 0-4.161-.086-8.66.147-12.843 8.274-.328 17.132.145 25.392-.148.279-.978.131-2.037.147-3.1.094-6.186 0-12.859 0-19.388 0-.894-.102-2.738.148-3.149.036-.046.089-.074.147-.099 7.566-.007 14.941.05 22.242.05 5.991 0 11.3-.168 15.746 1.23 6.923 2.177 11.883 7.248 13.188 15.106.594 3.57-.01 7.194-1.181 9.743-1.211 2.634-2.834 4.667-4.724 6.594-.185.733-1.422.696-1.428 1.476-.002.271.32.518.689.788.804.588 1.583 1.619 2.165 2.264 2.803 3.101 4.922 6.84 4.921 12.793-.001 3.513-1.509 6.631-3.002 8.809-3.165 4.617-7.923 7.922-14.811 8.759-3.348.407-7.389.345-11.17.345-1.9 0-3.846-.009-5.758-.049-3.814-.082-7.658-.001-11.515 0-1.896 0-3.776.098-5.608-.149zm24.702-43.007c1.79.066 3.695.2 4.97-.246 1.452-.507 3.025-2.152 2.56-4.38-.346-1.651-1.86-2.866-3.74-3.001-2.673-.192-5.948.143-8.759 0-.058.023-.111.052-.147.099-.243.185-.147 1.227-.147 1.77-.001 1.949-.076 4.126.099 5.659 1.383.313 3.283.029 5.164.099zm-.541 26.375c1.688 0 3.471.141 4.822 0 1.875-.194 3.833-2.233 3.297-4.576-.232-1.018-1.314-2.242-2.411-2.657-1.158-.437-2.986-.295-4.625-.295-2.069 0-4.171-.091-5.708.098-.156 2.266-.179 5.129 0 7.283 1.316.264 2.963.147 4.625.147z"/><path d="m9.194.099c3.31-.271 5.989 1.395 7.529 2.952 1.6 1.617 2.994 4.224 2.756 7.775-.132 1.967-.856 3.49-1.771 4.773-.887 1.242-2.128 2.416-3.347 3.149-2.478 1.49-6.378 1.533-8.956.196-2.385-1.237-4.073-3.544-4.92-6.151-1.059-3.258.028-6.888 1.476-8.759.788-1.018 1.752-1.89 2.952-2.608 1.113-.664 2.544-1.183 4.281-1.327z"/><path d="m9.391 48.668c4.384-.281 7.208 2.548 8.809 5.166.957 1.567 1.528 3.39 1.378 5.561-.271 3.901-2.825 6.81-5.709 8.168-3.82 1.8-8.253.343-10.53-1.771-1.18-1.096-2.222-2.451-2.805-4.134-1.688-4.872.923-9.258 3.69-11.269 1.32-.958 3.01-1.583 5.167-1.721z"/></g></svg>