<svg enable-background="new 0 0 28.803 30.784" viewBox="0 0 28.803 30.784" xmlns="http://www.w3.org/2000/svg"><path d="m21.235.065c2.416-.003 4.83-.052 7.245-.065.118 10.177.24 20.357.324 30.531-2.416.055-4.835.047-7.253.061-.054-4.033-.06-8.073-.174-12.102-3.327.006-6.651.086-9.979.069 1.938-2.129 3.864-4.27 5.84-6.363 1.375-.006 2.751.01 4.124-.055-.056-4.025-.102-8.05-.127-12.076z"/><path d="m0 .292c4.201-.112 8.415-.096 12.618-.145.179.204.039.584.089.857-1.283.2-3.091.196-3.656 1.62-.431 1.203-.329 2.501-.331 3.757.095 6.697.113 13.396.238 20.094.101.9.148 2.005.95 2.589.928.563 2.051.631 3.106.748.009.279.008.558.013.838-4.229.095-8.467.114-12.701.135.003-.281.001-.561-.004-.841 1.036-.185 2.131-.275 3.059-.816.566-.333.692-1.038.796-1.632.144-1.16.17-2.335.1-3.501-.048-6.17-.122-12.337-.164-18.505-.091-1.157.018-2.483-.778-3.431-.905-.774-2.18-.799-3.307-.925-.018-.281-.022-.562-.028-.842z"/></svg>