<svg enable-background="new 0 0 81.211 76.219" viewBox="0 0 81.211 76.219" xmlns="http://www.w3.org/2000/svg"><path clip-rule="evenodd" d="m65.274 20.463c-.908.124-1.842-.267-2.834-.405-.969-.134-1.979-.357-2.984-.455-1.244-.121-2.488.151-3.693-.151-.721-.627-.824-1.552-1.213-2.277-2.586-4.818-8.408-8.877-16.24-7.487-3.812.676-6.574 2.758-8.701 5.211-2.062 2.376-3.691 5.945-3.541 10.371.15 4.51 1.854 7.267 4.248 9.663 1.156 1.156 2.469 2.103 4.098 2.884 1.533.734 3.445 1.397 5.465 1.467 4.703.163 8.08-1.35 10.572-3.339 2.117-1.688 4.146-4.138 5.06-7.082.145-.468.277-1.014.557-1.164.445-.24 2.588-.068 3.236 0 6.992.733 12.309 3.836 15.887 7.892 1.027 1.165 1.883 2.583 2.781 4.047 2.535 4.13 3.998 10.116 2.834 16.644-.654 3.667-2.104 6.837-4.047 9.562-.483.675-.947 1.374-1.467 1.973-1.516 1.747-3.424 3.459-5.465 4.705-3.846 2.35-9.936 4.444-16.441 3.44-1.891-.292-3.807-.526-5.363-1.417.18-.95 1.047-1.214 1.416-1.973.803-.884 1.588-1.816 2.277-2.833.68-1.002 1.221-2.131 2.074-2.985 4.609.565 8.396-.566 11.131-2.226 3.641-2.21 7.277-6.809 7.082-13.052-.191-6.091-3.516-10.101-7.59-12.546-2.848-1.709-7.086-2.547-11.027-1.619-3.568.84-6.328 2.797-8.297 5.109-.934 1.098-1.871 2.515-2.529 4.199-.613 1.564-1.148 3.57-1.062 5.615.129 3.06.955 5.615 2.326 7.741.393.609.863 1.53 1.469 1.872.314.179.98.043 1.264.354 0 .917-.594 1.696-1.062 2.378-3.26 4.753-7.928 8.595-14.115 10.422-3.791 1.119-8.436 1.166-12.445.354-3.719-.754-7.041-2.516-9.56-4.452-2.682-2.06-4.773-4.503-6.527-7.538-1.75-3.03-2.639-6.607-2.832-11.18-.094-2.203.342-4.325.859-6.172.531-1.891 1.205-3.521 1.922-5.059 1.221-2.612 3.174-5.077 5.312-6.981.248-.221.818-.705 1.062-.658.498.096.715 1.765.91 2.277.756 1.965 1.445 3.674 2.529 5.362.203.315.551.593.557 1.012.01.585-1.08 1.652-1.365 2.074-.455.673-.9 1.585-1.164 2.226-.598 1.455-1.197 3.361-1.164 5.616.068 4.393 1.59 7.386 3.795 9.815 2.256 2.482 4.967 4.042 8.803 4.806 4.129.822 8.399-.689 10.877-2.327 2.605-1.72 4.803-4.315 5.971-7.639 1.269-3.616 1.07-8.005-.557-11.231-1.461-2.897-3.715-5.4-6.678-6.931-1.426-.736-3.381-1.363-5.312-1.518-2.103-.168-4.049.162-6.172.506-1.324-1.567-2.123-3.478-2.682-5.514-.295-1.077-.647-2.138-.809-3.288-.17-1.187-.207-2.431-.254-3.795-.174-5.089 1.605-9.347 3.592-12.647 3-4.985 7.705-8.891 13.66-10.827 1.053-.342 2.082-.678 3.238-.86 1.174-.185 2.535-.308 3.844-.405 1.693-.124 3.475.258 5.16.506 4.68.687 8.637 2.916 11.484 5.414 1.992 1.747 3.771 3.769 5.16 6.121.689 1.165 1.355 2.481 1.771 3.896.404 1.376 1.077 2.87.909 4.499z" fill-rule="evenodd"/></svg>