<svg enable-background="new 0 0 74.601 74.801" viewBox="0 0 74.601 74.801" xmlns="http://www.w3.org/2000/svg"><path clip-rule="evenodd" d="m67.792 34.567c.284.812.986 1.135 1.553 1.553 1.164.861 2.125 1.768 3.406 2.705.522.381 1.479 1.018 1.653 1.553.291.891.05 3.193.05 4.309.001 8.66-.021 16.701.05 25.547.009 1.105.29 3.611-.15 4.059-.247.25-1.453.223-2.104.199-2.24-.078-4.607.051-6.812.051-9.177.002-18.719.15-28.003.15-9.075 0-18.254.098-27.903.1-2.273.002-4.548 0-6.963 0-1.022.002-1.879.07-2.154-.199-.38-.373-.176-2.201-.2-3.207-.129-5.381-.05-10.77-.05-16.43 0-1.016.051-2.252 0-3.408-.043-.971-.239-2.4 0-3.154.197-.625 1.606-1.41 2.153-1.805.325-.234.716-.467 1.152-.801.206-.158.941-.564.952-1.002.012-.484-.683-.836-1.002-1.102-.443-.369-.737-.645-1.102-.953-.564-.719-1.98-1.115-2.153-2.104-.159-.904-.052-1.98-.101-3.006-.144-3.006 0-6.152 0-9.117 0-4.191-.102-8.275 0-12.072.729-.902 1.76-1.545 2.705-2.205 4.809-3.356 9.489-6.668 14.327-10.168 1.347-.975 2.888-1.92 4.358-3.006.45-.334 1.086-.887 1.503-.902.691-.027 1.789 1.057 2.254 1.402 1.472 1.1 2.689 2.121 4.107 3.207.615.471 1.652 1.283 1.854 2.053.174.666.049 1.682.05 2.656 0 2.59-.001 5.297 0 8.016 0 2.68.05 5.338.05 7.965 0 .918-.141 2.004.05 2.705.194.709 1.267 1.508 2.154 1.652.435-.406.301-1.178.301-1.904 0-.697 0-1.467 0-2.203 0-1.455-.371-3.059 0-4.209.203-.629.994-1.076 1.652-1.553 6.896-4.986 13.627-9.703 20.439-14.678 1.781-1.301 3.698-2.611 5.61-3.957.591-.416 1.55-1.275 2.104-1.303.744-.035 1.795.975 2.304 1.353.747.555 1.42 1.129 2.004 1.604 1.486 1.203 3.045 2.039 3.857 3.355.101 7.18.102 14.135.101 21.74 0 1.023.203 2.193-.051 3.006-.233.748-1.288 1.33-1.953 1.805-.768.547-1.591.932-2.052 1.703zm-52.599-15.631c-.368-.287-1.165-.721-1.152-1.201.014-.51 1.09-1.08 1.602-1.453 3.588-2.609 7.186-4.98 10.67-7.664.478-.369 1.619-.914 1.603-1.453-.012-.422-.722-.799-1.101-1.102-.961-.768-1.529-1.334-2.405-2.004-.415-.318-.894-.764-1.402-.852-.68-.117-2.253 1.275-2.855 1.703-2.505 1.771-4.983 3.553-7.364 5.26-2.951 2.115-5.738 4.103-8.566 6.16-.387.283-.977.484-1.052 1.053.095.592.688.873 1.102 1.203 1.301 1.037 2.562 2.072 3.857 3.105 4.699 3.75 9.559 7.445 14.327 11.172.416.324 1.127.818 1.101 1.252-.046.781-1.977 1.373-2.254 1.902-4.142 2.838-8.189 5.771-12.173 8.768-1.139.701-2.472 1.789-3.657 2.654-.382.279-1.057.568-1.052 1.053.004.453.733.943 1.052 1.201.494.404.91.639 1.303 1.002.4.277.804.633 1.302 1.002.384.285.95.852 1.453.854.457 0 1.184-.668 1.653-1.004 2.751-1.967 5.241-3.701 7.865-5.609 4.653-3.385 9.31-6.789 14.026-10.219.425-.311 1.366-.916 1.352-1.354-.012-.348-.637-.715-1.002-1.002-1.989-1.562-3.68-3.031-5.61-4.508-3.865-2.959-7.61-5.961-11.322-8.918-.441-.294-.802-.61-1.301-1.001zm49.744-14.877c-.476-.373-1.047-1.01-1.703-.752-1.092.428-2.286 1.543-3.356 2.305-3.396 2.414-6.401 4.6-9.819 7.062-3.793 2.732-7.592 5.471-11.421 8.215-.494.355-1.456.945-1.453 1.404.003.549 1.097 1.213 1.503 1.553 1.825 1.519 3.547 2.545 5.21 4.008 6.052 4.689 12.112 9.492 18.185 14.076.873.66 1.696 1.537 2.805 1.854 1.087-.361 1.855-1.082 2.705-1.703.361-.264.8-.539 1.303-.902.334-.24 1.066-.74 1.052-1.152-.013-.354-.746-.879-1.101-1.152-3.085-2.369-6.22-4.697-9.117-7.012-3.563-2.848-7.121-5.373-10.42-8.016-.299-.494-1.236-.594-1.202-1.303.02-.41.694-.754 1.151-1.053 1.431-.934 2.702-1.904 3.958-2.805 1.805-1.291 3.451-2.678 5.159-3.807 3.159-2.09 6.232-4.346 9.218-6.514.418-.303.952-.621 1.103-1.152-.771-1.109-2.533-2.193-3.76-3.154zm-36.169 20.188c0-3.41.112-6.857 0-10.119-.031-.916.225-3.492-.451-3.656-.016-.004-.033.002-.05 0-.698.092-1.411.812-2.103 1.301-1.865 1.318-4.017 2.756-5.661 4.059-.445.266-.801.5-1.303.851-.336.236-1.052.637-1.052 1.102 0 .545 1.201 1.367 1.703 1.754 1.993 1.531 4.075 3.178 5.861 4.508.903.65 1.62 1.486 2.755 1.904.473-.356.301-1.095.301-1.704zm31.61-7.715c-2.033 1.447-4.058 3.004-6.162 4.459-.449.311-1.87 1.127-1.854 1.703.013.453 1.028 1.166 1.403 1.453 1.719 1.314 3.341 2.435 4.909 3.707 1.489 1.146 3.234 2.527 4.809 3.756.491.385 1.271 1.115 1.804 1.104.405-.01.789-.393 1.151-.652 1.12-.797 2.369-1.316 3.006-2.404.13-5.303-.001-11.455 0-17.133 0-.604.177-2.293-.65-1.902-2.929 1.845-5.634 3.915-8.416 5.909zm-57.809 4.66c-.286.754-.113 1.375-.101 2.203.057 3.502 0 8.143 0 12.072 0 1.348-.213 3.035.101 4.008.28.873 1.584 1.295 2.054 1.953.73.297 1.382 1.59 2.454 1.555.484-.018 1.194-.611 1.653-.953 2.702-2.006 5.038-3.553 7.715-5.561.454-.34.924-.674 1.553-1.102.462-.312 1.329-.873 1.303-1.354-.021-.375-.464-.551-.901-.9-2.434-1.941-4.783-3.936-7.264-5.66-1.902-1.703-4.115-3.201-6.162-4.859-.603-.488-1.545-1.463-2.204-1.555-.104.017-.1.138-.201.153zm35.968 5.709c-.55-.42-1.475-1.307-2.004-1.002-.372.463-.2 2.352-.2 3.006 0 1.152-.215 2.336.05 3.256.315 1.094 2.22 1.543 2.505 2.555.334 1.186-.021 3.15.05 4.66.074 1.551.05 3.129.051 4.658.001 8.029.05 15.264.05 23.193 0 1.211-.278 4.004.2 4.51.355.375 1.804.25 2.806.25 3.224 0 6.077-.051 9.017-.051 2.936.002 6.032.07 9.018-.049.961-.039 1.962.074 2.806-.25.263-.982.149-2.025.149-3.057.001-7.51-.05-14.934-.1-22.492-.837-1.098-2.048-1.85-3.106-2.705-3.228-2.613-6.578-5.055-9.818-7.615-3.614-2.742-7.714-5.992-11.474-8.867zm-5.711 11.973c-1.832 1.262-3.446 2.553-5.21 3.809-4.413 3.141-8.718 6.449-13.124 9.518-.809.838-2.43 1.227-2.806 2.404-.337 1.055-.096 2.961-.051 4.258.105 3.035.001 5.629 0 8.816 0 .99-.268 3.723.251 4.209.369.346 2.075.199 2.905.199 6.28.002 11.978-.1 18.436-.1.877 0 2.575.172 2.955-.199.454-.445.2-3.096.2-4.26 0-9.949-.049-18.912-.05-28.904 0-.777-.007-2-.701-1.604-.934.539-1.873 1.213-2.805 1.854zm39.374 29.256c.001-3.977-.05-7.242-.05-11.172.001-4.262-.165-9.02-.05-13.174.02-.713.018-1.689-.651-1.252-1.289.842-2.972 2.072-4.309 3.105-.513.396-1.086.73-1.252 1.252-.215.678-.05 1.969-.05 3.006.001 6.402.05 12.674.05 18.836 0 .855-.229 2.482.2 2.906.433.426 2.161.199 2.906.199 1.155 0 2.179.127 2.955-.199.422-.933.251-2.32.251-3.507zm-63.069-.151c0-3.318.033-7.051 0-10.068-.008-.707.048-1.543-.101-2.004-.152-.475-.873-.961-1.352-1.354-1.1-.898-2.001-1.625-3.006-2.404-.523-.406-1.204-1.098-1.903-1.101-.358.609-.17 1.42-.2 2.154-.198 4.695 0 9.988 0 14.729 0 1.463-.184 2.902.25 4.006.783.318 1.948.201 3.056.201 1.12 0 2.321.141 3.106-.201.268-1.2.15-2.573.15-3.958z" fill-rule="evenodd"/></svg>