<svg enable-background="new 0 0 75.154 70.971" viewBox="0 0 75.154 70.971" xmlns="http://www.w3.org/2000/svg"><g clip-rule="evenodd" fill-rule="evenodd"><path d="m19.045 35.193c-1.037-.322-2.191-.188-3.33-.188-1.147.001-2.331-.062-3.472-.047-2.301.03-4.639.161-6.426-.516-1.57-.594-3.065-1.718-4.035-3.002-.983-1.301-1.77-3.01-1.782-5.206-.023-4.312 2.54-7.091 5.676-8.35 1.829-.734 3.956-.563 6.38-.563 2.303.001 4.688.039 6.942-.047.286-.622.154-1.331.141-2.017-.097-4.672.005-10.331.094-15.104 5.533-.311 11.075-.033 16.84-.141.854-.017.845.081.845 1.407-.001 16.157.094 30.927.094 47.049 0 2.133-.298 3.977 1.22 4.504.976.339 2.779.141 4.081.141 3.541-.001 6.641-.286 9.054 1.031 1.44.788 2.525 1.949 3.377 3.425.826 1.431 1.391 3.268 1.126 5.441-.439 3.608-2.916 6.571-6.146 7.458-1.832.504-3.97.329-6.285.423-2.27.091-4.616-.001-6.567 0-1.236 0-2.35.059-3.33-.094-2.726-.425-5.149-1.66-7.084-3.096-2.559-1.9-4.79-4.456-6.051-7.506-.721-1.743-1.149-3.48-1.267-5.535-.114-2.003.059-4.156 0-6.567-.105-4.292.061-8.462-.095-12.9zm-15.058-13.697c-1.086 1.108-1.881 2.512-1.877 4.504.009 3.995 3.296 6.917 6.896 6.849 3.527-.067 5.684-2.348 6.332-5.301.262-1.19.219-2.334-.141-3.425-.156-.476-.439-1.243-.656-1.642-.84-1.534-3.434-3.272-6.145-3.049-2.102.173-3.383 1.017-4.409 2.064zm37.386 36.964c-.559.89-.992 2.029-.984 3.424.018 3.384 2.767 6.524 5.957 6.802 2.062.18 3.955-.418 5.395-1.735.63-.576 1.363-1.412 1.688-2.393.562-1.689.502-3.776-.047-5.301-.883-2.453-3.562-4.191-6.849-3.987-2.597.28-4.169 1.614-5.16 3.19z"/><path d="m38.7 35.052c-.173-4.975-.095-10.433-.095-15.479 0-.703-.11-1.423.141-2.065 6.404-.113 12.98-.093 19.608-.094 2.751 0 4.938.635 6.755 1.548 3.713 1.867 6.365 4.543 8.256 8.304.902 1.795 1.675 4.014 1.735 6.567.062 2.573 0 5.398 0 8.256 0 5.473.048 10.982.047 16.324 0 2.943.132 5.601-.797 7.505-1.601 3.281-5.883 6.331-10.977 4.504-2.847-1.021-5.116-3.482-5.724-6.708-.219-1.165-.155-2.468-.141-3.894.071-6.798-.047-13.066-.047-20.077 0-1.964.207-3.981-1.267-4.504-.547-.193-1.411-.093-2.157-.094-3.813 0-7.548.047-11.024.047-1.479.001-2.931.114-4.313-.14zm21.813 23.596c-.725 1.172-1.024 2.425-.892 4.034.231 2.834 2.472 5.223 4.926 5.91 4.414 1.237 8.604-2.17 8.584-6.567-.007-1.458-.635-3.007-1.313-3.893-1.205-1.573-3.122-2.826-5.629-2.721-2.75.117-4.777 1.782-5.676 3.237z"/></g></svg>