<svg enable-background="new 0 0 73.114 73.588" viewBox="0 0 73.114 73.588" xmlns="http://www.w3.org/2000/svg"><g clip-rule="evenodd" fill-rule="evenodd"><path d="m30.554 5.133c-.527.268-1.142.114-1.709.139-2.486.109-5.489.017-8.27.046-3.603.039-7.31-.092-10.995-.092-.615 0-1.236.029-1.848 0-.546-.026-1.146.034-1.661-.185.397-.837 1.343-1.473 2.125-1.986 1.678-1.101 3.611-1.936 5.866-2.541 5.461-1.465 11.337.428 14.69 2.864.681.494 1.499.993 1.802 1.755z"/><path d="m70.744 27.354c-.638-.272-.836-.994-1.154-1.524-2.307-3.846-4.562-7.838-6.883-11.734-1.296-2.175-2.551-4.433-3.835-6.791-.919-1.688-1.86-3.357-2.864-5.128-.259-.457-.752-1.477-1.154-1.478-.427-.001-.88 1.034-1.155 1.524-.952 1.698-1.881 3.528-2.771 5.128-3.223 5.789-6.36 10.999-9.655 16.815-.289.512-.546 1.066-.924 1.709-.263.448-.847 1.488-1.154 1.479-.413-.013-.689-.962-.878-1.386-.501-1.129-.869-2.061-1.155-3.372-.128-.586-.244-1.326-.462-1.802-.385.348-.396.926-.508 1.386-.833 3.456-2.203 6.438-4.389 8.592-1.687 2.01-3.889 3.501-6.56 4.574-.863.347-1.769.866-2.818.785-.324-.864-.185-1.867-.185-2.818-.001-6.723-.123-13.762.093-20.233.991-.25 2.097-.139 3.188-.139 3.239 0 6.736-.038 9.932.046.791.626.645 2.188 1.201 3.049.412-.414.397-1.04.508-1.525.843-3.658 2.795-6.722 5.128-9.054 2.723-2.723 6.316-4.685 10.994-5.22.612-.07 1.588-.083 2.356-.046 6.89.33 12.007 4.175 14.691 8.823 1.366 2.367 2.641 5.461 2.771 8.962.108 2.876-.413 5.434-1.293 7.53-.275.651-.524 1.369-1.065 1.848z"/><path d="m54.806 3.655c.385.05.867.895 1.155 1.432 1.513 2.813 2.94 5.332 4.527 8.038 2.781 4.744 5.487 9.486 8.315 14.321.245.419.845 1.175.831 1.663-.007.26-.329.955-.739.97-.405.015-.789-.827-1.062-1.294-2.029-3.465-4.002-6.892-5.959-10.348-1.911-3.344-4.057-6.765-6.005-10.302-.223-.402-.59-1.315-.971-1.339-.383-.025-.813.83-1.062 1.294-.825 1.535-1.64 3.083-2.448 4.481-2.391 4.13-4.421 7.724-6.745 11.826-.791 1.398-1.65 2.897-2.54 4.435-.277.479-.61 1.283-1.017 1.293-.428.012-.768-.601-.785-.924-.025-.467.501-1.098.831-1.663.904-1.546 1.903-3.41 2.68-4.805 1.246-2.237 2.51-4.278 3.649-6.282 1.206-2.119 2.381-4.248 3.649-6.283.915-1.467 1.679-3.328 2.587-4.897.327-.565.646-1.197.971-1.524.034-.043.085-.07.138-.092z"/><path d="m3.483 8.136c-.009-1.769 2.702-1.294 4.666-1.294 6.695 0 13.766.093 20.788.093 1.781 0 4.274-.429 4.25 1.247-.393.462-1.129.277-1.663.277-8.697 0-17.427-.139-26.332-.139-.549 0-1.216.147-1.709-.184z"/><path d="m54.806 9.799c.413.032.936 1.026 1.201 1.479 1.954 3.318 3.75 6.539 5.683 9.886.318.552.771 1.094.831 1.755-1.113.325-2.413.185-3.695.185-3.177 0-6.468 0-9.701 0-.561 0-1.234.145-1.709-.185-.039-.457.261-.878.462-1.247 1.44-2.644 3.1-5.283 4.573-7.946.588-1.429 1.343-2.692 2.218-3.834.033-.044.084-.071.137-.093zm4.528 10.302c-.967-1.813-2.01-3.499-3.095-5.266-.319-.521-.809-1.854-1.433-1.94-.08-.011-.161.044-.185.092-.436.407-.894 1.341-1.247 1.986-.821 1.503-1.484 2.831-2.264 4.204-.394.694-.986 1.348-.97 2.171.632.323 1.486.185 2.31.185h6.283c.347 0 .867.122 1.016-.277.058-.408-.221-.792-.415-1.155z"/><path d="m17.527 10.261c.309 8.522-.077 18.014.231 26.47.212.243.827.222 1.154.092.33-1.037.185-2.183.185-3.28.001-6.495-.046-13.364-.046-20.002 0-1.087-.111-2.217.139-3.28 1.176-.248 2.464-.139 3.741-.139 3.753 0 7.859-.076 11.503.093.22.258.456.498.416 1.016-.476.328-1.105.161-1.663.185-2.829.119-5.895 0-8.962 0-1.204 0-2.443-.135-3.511.184-.169 5.833-.093 12.132-.093 18.201 0 2.047.135 4.104.047 6.052-.019.396-.221.621-.277 1.016.504.292 1.084.339 1.617.462 6.008 1.386 10.072 4.928 12.565 9.886.825 1.641 1.359 3.343 1.71 5.451.037.225.002.598.276.739.315-.452.309-1.024.416-1.524.658-3.079 1.99-5.749 3.742-7.854.268-.322.489-.878 1.017-.877.2 5.998.139 12.356.138 18.524v3.141c0 .991.14 2.04-.184 2.957-.869-.4-1.35-1.299-1.848-2.079-1.269-1.987-2.338-4.062-2.91-6.837-.103-.503-.028-1.108-.37-1.571-.336.352-.279.879-.369 1.293-1.445 6.684-5.397 11.249-11.226 13.581-3.188 1.275-7.399 1.78-11.226.693-3.319-.943-6.205-2.579-8.407-4.804-2.122-2.145-3.96-5.021-4.805-8.408-.917-3.677-.616-8.133.739-11.364 1.902-4.536 5.312-7.968 9.84-9.978 1.56-.692 3.339-.959 5.174-1.432-.243-2.545-.139-5.192-.139-7.853 0-4.271 0-8.528 0-12.796 0-1.59.098-3.17-.139-4.666-.52-.25-1.127-.126-1.709-.139-3.383-.075-7.232-.093-10.811-.093-.553 0-1.198.132-1.662-.185-.146-1.334 1.263-1.106 2.68-1.106 3.097 0 6.227-.056 9.378.092 1.276.061 2.514-.157 3.649.139zm13.951 39.128c-1.274-2.919-3.544-5.294-6.144-6.791-1.893-1.09-4.594-2.013-7.438-1.894-1.666.07-3.194.352-4.527.831-1.254.451-2.353 1.007-3.419 1.756-3.847 2.7-7.052 7.75-5.913 14.32.498 2.869 1.742 5.113 3.419 6.976 2.772 3.576 8.884 6.321 15.06 4.389 4.396-1.375 7.819-4.535 9.331-8.823.225-.635.483-1.379.37-2.079-1.226-.584-1.462.721-1.71 1.432-.633 1.82-1.582 3.383-2.633 4.435-1.334 1.506-2.858 2.573-4.851 3.372-1.967.788-4.572 1.254-7.113.693-4.307-.951-7.477-3.543-9.332-7.206-.971-1.916-1.543-4.401-1.293-6.837.496-4.847 3.08-8.018 6.467-10.071 1.704-1.033 3.92-1.815 6.467-1.801 1.777.009 3.497.417 4.897 1.016 3.49 1.492 5.967 4.002 7.299 7.484.262.683.303 1.5.785 2.171.303.067.822.089 1.062-.046.103-1.197-.358-2.35-.784-3.327zm-4.896 11.225c-.539.816-1.201 1.481-1.895 2.125-2.033 1.83-5.698 3.09-9.192 2.032-2.827-.855-5.228-3.122-6.329-5.682-1.057-2.457-1.026-5.623-.093-7.807 1.689-3.952 6.539-7.429 12.289-5.543 2.84.932 4.895 2.991 6.005 5.589.199.466.25 1.081.739 1.432.293.053 1.011.155 1.108-.139.146-.849-.354-1.637-.693-2.356-1.21-2.567-3.002-4.475-5.728-5.59-1.376-.563-3.144-1.068-4.989-.97-3.329.177-5.863 1.528-7.669 3.372-1.867 1.908-3.144 4.259-3.326 7.53-.207 3.745 1.398 6.468 3.188 8.408 1.732 1.876 4.068 3.132 6.93 3.557 4.857.722 8.748-2.063 10.718-4.804.701-.977 1.403-2.137 1.57-3.604-.179-.278-.877-.195-1.247-.138-.584.814-.849 1.775-1.386 2.588zm-1.572-10.44c-1.403-2-4.067-3.63-7.576-3.372-3.684.271-6.412 3.037-7.252 5.959-.792 2.753.023 5.939 1.709 7.854 1.717 1.95 4.915 3.705 8.592 2.726 1.931-.514 3.703-1.903 4.712-3.373.358-.522.79-1.161.786-1.848-.19-.273-.731-.167-1.108-.139-.471.391-.73.957-1.109 1.432-1.087 1.362-2.738 2.617-4.897 2.771-1.502.108-2.711-.205-3.695-.693-.35-.174-.591-.458-.97-.739-1.535-1.139-2.712-2.768-2.864-5.082-.206-3.14 1.514-5.515 3.696-6.698 2.595-1.407 5.979-.673 7.852.97.462.405.775.909 1.109 1.386.328.469.491 1.155 1.108 1.432.264.093.817.08.97-.092-.017-.971-.574-1.798-1.063-2.494z"/><path d="m14.385 12.986c.303.865.186 1.829.186 2.772v14.736c0 1.955.115 3.87-.093 5.682-1.292-.063-2.517-.609-3.604-1.155-1.084-.545-2.112-1.065-3.049-1.756-3.713-2.734-6.341-6.324-7.438-11.872-.399-2.017-.243-4.662.139-6.652.218-1.132.201-1.763 1.294-1.895 1.006-.121 2.133 0 3.233 0 3.137.002 6.426-.08 9.332.14z"/><path d="m54.899 15.712c.618.511.892 1.31 1.294 1.986.4.673.911 1.318 1.108 2.125-.556.534-1.827.323-2.864.277-.691-.03-1.381.124-1.848-.139-.136-.667.406-1.477.832-2.217.397-.69.911-1.865 1.478-2.032z"/><path d="m67.557 31.465c-.114.42-.396.888-.832.877-.525-.012-.841-.905-1.108-1.386-.328-.589-.673-1.087-.924-1.524-.694-1.207-1.161-2.316-1.94-3.002-4.63-.087-8.954-.046-13.628-.046-.653 0-1.414-.106-1.894.046-.481.152-.762.919-1.063 1.432-.663 1.132-1.172 1.941-1.847 3.142-.257.456-.586 1.382-1.017 1.432-.368.043-.82-.365-.878-.739-.094-.614.634-1.519.832-1.848.689-1.146 1.239-2.173 1.939-3.418.262-.465.641-1.378 1.062-1.571.564-.257 1.925-.093 2.864-.093h3.835c2.458 0 5.441.035 7.991-.046.799-.025 2.097-.115 2.633.092.495.19.833 1.004 1.155 1.524.378.61.697 1.179.97 1.663.7 1.236 1.283 2.103 1.85 3.465z"/><path d="m57.209 36.962c.11.354.582.351.878.416 1.741.381 3.285.898 4.758 1.617.386.188 1.438.625 1.479 1.062.051.535-1.404 1.727-1.709 2.033-3.743 3.743-7.447 7.372-11.041 11.226-.294.315-.618.618-.924.924-.283.283-.584.705-1.016.739-.305-.199-.185-.64-.185-.924 0-5.193-.075-10.899.093-15.983.642-.712 2.264-.446 2.956-1.109-.453-.394-1.109-.318-1.663-.462-1.564-.406-3.15-1.047-4.48-1.755-.521-.42-1.442-.545-1.57-1.201-.08-.407.392-1.07.646-1.524.308-.548.6-.978.831-1.386.63-1.112 1-2.12 1.709-2.726 3.638-.121 7.229-.092 11.18-.092.954 0 2.135-.187 2.771.046.47.172.7.875.924 1.293.562 1.048 1.097 1.775 1.663 2.772.217.38.706 1.04.647 1.524-.071.582-1.307 1.153-1.848 1.432-.8.411-1.493.719-2.264 1.017-1.22.47-2.628.6-3.835 1.061z"/><path d="m47.647 71.932c-1.717.372-1.202-2.465-1.202-4.25.002-8.721 0-17.587 0-26.424.001-1.287-.113-2.104.739-2.448 1.011-.409.648 1.662.648 2.31 0 9.527.046 18.787.046 28.133 0 .958.095 1.964-.231 2.679z"/><path d="m44.505 40.473h.092c.397.462.232 1.155.232 1.71 0 1.901.046 3.766.046 5.636 0 6.245-.079 12.742-.046 18.894.007 1.22.235 2.465-.139 3.603-1.728.047-1.247-2.605-1.247-4.342 0-5.587.107-11.6.046-17.601-.01-.972 0-2.243-.046-3.464-.038-1.014-.191-2.812.046-3.557.13-.407.677-.742 1.016-.879z"/><path d="m65.801 41.166c.376-.178.901.379.924.693.037.513-1.055 1.407-1.479 1.848-1.614 1.683-3.415 3.202-4.988 4.897-1.64 1.765-3.215 3.225-4.943 4.989-.401.409-1.499 1.256-1.524 1.755-.025.498 1.073 1.443 1.477 1.848 3.418 3.417 6.554 6.506 9.933 9.886.722.721 2.496 2.009.646 2.587-.801-.321-1.363-1.04-1.94-1.617-3.513-3.513-7.047-7.094-10.625-10.671-.25-.251-.513-.559-.831-.924-.273-.313-.733-.745-.739-1.016-.01-.473 1.267-1.683 1.57-1.986 4.09-4.089 8.262-8.269 12.381-12.288.046-.001.092-.001.138-.001z"/><path d="m68.804 66.712c-.16.415-.343.895-.785.924-.538.035-1.384-1.061-1.71-1.386-3.073-3.074-5.988-6.052-9.146-9.146-.406-.399-1.383-1.157-1.386-1.663-.004-.632.994-1.272 1.386-1.663.619-.619.979-1.055 1.479-1.524 2.363-2.419 5.44-5.349 7.991-7.899.327-.327.954-1.131 1.34-1.155.507-.032.731.484.832.97-.217.647-.839 1.023-1.294 1.478-2.699 2.699-5.486 5.487-8.223 8.223-.453.453-1.047.831-1.247 1.478.126.798.822 1.026 1.247 1.524 2.387 2.459 4.814 4.861 7.253 7.299.791.79 1.694 1.545 2.263 2.54z"/><path d="m69.867 45.554c.039-.008.044.018.046.046.565.304.797 1.033 1.108 1.617 1.394 2.61 2.337 6.536 1.756 10.81-.281 2.069-1.048 4.063-1.894 5.774-.292.588-.675 1.452-1.063 1.478-.483.033-1.067-.863-1.339-1.155-2.435-2.61-4.864-4.864-7.437-7.437-.357-.357-1.099-.88-1.109-1.34-.011-.5.685-.914 1.109-1.34 2.035-2.036 4.076-4.158 6.144-6.051.814-.746 1.553-1.852 2.494-2.356.067-.035.145.011.185-.046z"/><path d="m49.679 55.902c1.188.806 2.657 2.565 3.742 3.649 3.043 3.042 5.978 6.07 9.1 9.193.399.399 1.74 1.403 1.71 1.94-.028.491-1.178.949-1.71 1.201-2.76 1.308-6.335 2.067-10.255 1.524-1.026-.142-2.082-.169-2.726-.739-.163-4.427-.092-9.716-.093-14.644 0-.699-.065-1.662.093-2.033.035-.042.085-.068.139-.091z"/></g></svg>