<svg enable-background="new 0 0 84.648 58.776" viewBox="0 0 84.648 58.776" xmlns="http://www.w3.org/2000/svg"><path clip-rule="evenodd" d="m40.199.184c.384 11.574-.079 24.291.294 35.802.611.255 2.011.191 2.698.049.261-.682.147-1.439.147-2.158 0-11.08-.165-22.259.049-33.741 3.216-.093 7.528-.224 11.182-.05 1.865.089 3.643-.192 4.855.491 2 1.126 2.865 3.783 3.875 6.13 2.94 6.833 6.136 14.11 9.122 20.795 1.035 2.316 2.089 4.684 3.041 6.964.958 2.296 2.122 4.506 3.139 6.817 1.435 3.262 3.191 6.883 4.659 10.299.509 1.187 1.266 2.532 1.373 3.58.148 1.448-.741 2.811-1.814 3.188-.708.248-1.745.147-2.697.147-2.744-.001-5.869-.073-8.435.049-1.931.092-3.76-.137-5.591-.049-1.822.086-3.666.118-5.493-.05-.365-2.762-.016-5.695-.148-8.681-.124-2.827.009-5.743-.049-8.632-.084-4.224 0-8.54 0-12.996 0-1.554.126-3.349-.343-4.414-.433-.983-1.422-1.821-2.501-2.061-2.263-.5-4.078.822-4.561 2.354-.353 1.121-.098 2.732-.098 4.218 0 9.934.167 20.172-.049 30.211-1.486.084-3.143.224-4.757.147-1.582-.075-3.194.126-4.61-.147-.241-4.908-.03-10.42-.196-15.252-.625-.266-2.042-.182-2.747-.05-.378 4.946.126 10.217-.196 15.302-2.734.198-6.016.229-8.877.05-.18-9.49-.196-20.229-.196-30.358 0-1.507.203-3.362-.294-4.365-.318-.642-.793-1.166-1.324-1.52-1.938-1.291-4.845-.403-5.787 1.569-.389 2.303-.196 5.812-.196 8.682 0 8.547.158 17.628-.049 26.042-5.575.008-10.978.395-16.871.147-1.644-.07-3.997.293-5.248-.295-.982-.462-1.66-1.461-1.471-3.09.124-1.067.858-2.429 1.324-3.58 1.423-3.511 3.001-6.911 4.365-10.348 2.289-5.77 4.913-11.288 7.161-17.362 2.214-5.986 4.643-11.557 7.16-17.361 1.138-2.623 2.068-5.954 4.954-6.474.765-.138 1.672-.063 2.55-.099 3.485-.139 7.101-.048 10.348-.049.813.001 1.725-.095 2.302.149z" fill-rule="evenodd"/></svg>