<svg enable-background="new 0 0 78.541 16.378" viewBox="0 0 78.541 16.378" xmlns="http://www.w3.org/2000/svg"><g clip-rule="evenodd" fill-rule="evenodd"><path d="m28.901.244c.27.958-.078 2.532.193 3.488.777-.243 1.332-1.041 2.035-1.744.259-.259.598-.55.969-.92.277-.278.662-.862 1.018-.872.44-.014.84.645 1.113.92.393.392.743.597 1.018.969 4.76 4.624 9.33 9.436 14.195 13.954.268-.566.207-1.255.194-1.891-.062-3.17 0-6.607 0-10.028 0-1.339-.121-2.693.097-3.924 1.394-.072 2.881-.111 4.215 0 .26 1.154.146 2.611.146 4.021 0 1.411-.115 2.865.145 4.021-.258 1.155-.145 2.57-.145 3.973 0 1.369.077 2.784-.098 3.973-1.234.229-3.242.21-4.506 0-1.588.318-3.747.065-5.571.146-3.146-2.9-6.196-6.051-9.302-9.156-.312-.312-1.047-1.189-1.405-1.212-.417-.025-1.078.892-1.405 1.212-2.195 2.149-4.412 4.314-6.589 6.491-.859.859-1.716 1.727-2.616 2.568-1.695.031-3.934.188-5.475-.097-.64.158-1.498.097-2.326.097-.785 0-1.65.094-2.18-.193-.188-3.886.039-8.013-.193-11.919-.921-.261-1.973-.145-3.004-.145-3.039 0-6.379.086-9.254-.048-.199-1.009-.255-2.783 0-3.779 9.395-.285 19.392-.108 28.731.095zm-3.295 3.827c-1.024 0-2.068-.054-3.101-.048-1.829.009-3.938-.049-5.475.146-.176 1.059-.141 2.227-.145 3.391-.01 2.782.01 5.746.145 8.431.643-.288 1.068-.874 1.551-1.356.497-.497.981-.986 1.453-1.502.938-1.024 2.059-1.866 2.956-2.907 1.38-1.601 2.915-2.965 4.36-4.409.473-.472 1.045-.934 1.26-1.599-.921-.257-1.974-.147-3.004-.147z"/><path d="m78.366.244c.203 1.105.191 2.77.049 4.021-1.736.762-3.654 1.388-5.571 1.986-1.9.594-3.845 1.139-5.523 1.986.724.602 1.782.719 2.714 1.065.939.352 1.9.643 2.761 1.018 1.843.678 3.888 1.151 5.571 1.986.144 1.122.329 3.053-.048 4.07-4.054-1.191-8.001-2.661-11.967-3.973-3.978-1.316-7.918-2.643-11.821-4.07.303-.446.91-.485 1.356-.63 3.364-1.088 6.806-2.292 10.223-3.488 3.921-1.372 7.931-2.57 11.772-3.924.09-.029.299-.068.484-.047z"/></g></svg>