<svg enable-background="new 0 0 79.072 73.359" viewBox="0 0 79.072 73.359" xmlns="http://www.w3.org/2000/svg"><path clip-rule="evenodd" d="m39.586 0c.367.129 1.055 1.396 1.391 1.986.465.818.729 1.578 1.093 2.234 2.363 4.26 4.945 8.453 7.351 12.566 2.897 4.955 5.691 9.738 8.542 14.752.428.752.945 1.392 1.192 2.185 3.413 3.234 6.547 6.625 10.033 9.934 2.867 2.721 5.788 5.789 8.742 8.742.341.34 1.143 1.006 1.143 1.34 0 .307-.857 1.057-1.143 1.342-2.887 2.887-5.85 5.75-8.692 8.592-2.894 2.893-5.745 5.547-8.742 8.543-.338.338-.945 1.139-1.292 1.143-.361.004-1.003-.826-1.341-1.143-2.997-2.809-5.627-5.631-8.543-8.543-1.672-1.59-3.27-3.252-4.917-4.867-1.64-1.607-3.109-3.379-4.868-4.867-.981.646-1.717 1.568-2.533 2.383-4.854 4.855-9.87 9.623-14.801 14.553-.35.352-.763.729-1.242 1.193-.348.338-1.006 1.123-1.291 1.143-.479.031-1.924-1.676-2.285-2.037-4.998-4.996-10.154-10.041-15.05-15.1-.383-.273-.772-.762-1.241-1.24-.277-.283-1.088-.977-1.092-1.342-.004-.332.758-1.037 1.093-1.391 1.225-1.291 2.488-2.488 3.725-3.725 4.936-4.936 10.118-10.049 15-14.752 3.084-5.633 6.531-11.07 9.785-16.787 1.549-2.725 3.323-5.475 4.917-8.346 1.122-2.021 2.458-4.217 3.676-6.309.459-.787.875-1.588 1.39-2.182zm14.651 33.824c-11.302 0-22.944-.229-34.171-.1.074.578.662.91 1.043 1.291 2.89 2.889 5.649 5.699 8.543 8.592 2.881 2.881 5.704 5.607 8.593 8.494.341.342.951 1.16 1.341 1.142.375-.016 1.02-.82 1.292-1.094 1.282-1.281 2.267-2.48 3.576-3.676 4.532-4.508 9.178-9.029 13.658-13.51.292-.291.704-.604.795-1.041-1.527-.307-3.099-.098-4.67-.098z" fill-rule="evenodd"/></svg>