<svg enable-background="new 0 0 37.321 30.475" viewBox="0 0 37.321 30.475" xmlns="http://www.w3.org/2000/svg"><path d="m7.684 1.814c2.457-2.32 6.302-2.12 9.281-1.037 2.921 1.174 5.869 2.359 9.007 2.807.001.07.002.142.005.215-2.98.432-5.95-.411-8.732-1.408-2.138-.805-4.534-1.238-6.765-.558-2.002.471-3.585 2.75-2.769 4.755.66 1.586 2.962 1.85 4.069.591-.87-.267-1.077-1.553-.244-1.992.789-.495 1.842.345 1.552 1.23-.439 2.336-3.533 3.484-5.4 2.015-2.193-1.522-1.823-4.949-.004-6.618z"/><path d="m19.165 6.213c.875-.845 1.998-1.567 3.252-1.57-.008.082-.014.167-.02.252-1.228.315-2.211 1.215-2.937 2.22-1.552 2.148-2.636 4.58-3.876 6.908-.02.109-.013.222-.013.335 2.017.069 4.035-.005 6.05.057.563-.065 1.318.065 1.636-.538 1.27-2.219 2.759-4.429 4.928-5.861 2.299-1.52 5.642-1.49 7.737.38 1.352 1.199 1.749 3.271 1.085 4.928-.797 1.771-3.096 2.73-4.888 1.912-1.365-.546-2.124-2.353-1.393-3.665.424-.708 1.655-.57 1.828.266.259.751-.399 1.579-1.201 1.401.519 1.337 2.376 1.548 3.466.807 1.657-.822 1.584-3.322.356-4.494-1.549-1.406-4.033-1.509-5.822-.507-2.363 1.373-3.828 3.804-5.173 6.098-1.632 2.918-3.118 5.964-5.302 8.524-.942 1.048-2.139 2.053-3.597 2.183-.159.051-.248-.063-.272-.203 1.656-.457 2.792-1.866 3.671-3.257 1.254-2.057 2.325-4.219 3.421-6.362.135-.257.268-.551.173-.844-2.411-.033-4.879-.201-7.265.099-1.479 2.494-2.938 5.176-5.358 6.914-2.445 1.897-6.373 1.874-8.545-.434-1.126-1.207-1.398-3.075-.792-4.591.869-2.173 3.993-3.049 5.781-1.475.854.793 1.14 2.176.61 3.223-.444.723-1.662.546-1.877-.277-.264-.755.457-1.538 1.231-1.394-.544-1.548-2.728-1.603-3.837-.657-1.426 1.111-1.185 3.548.219 4.578 2.09 1.537 5.184 1.13 6.98-.683 4.287-3.996 5.653-10.115 9.744-14.273z"/><path d="m26.785 21.524c1.648-.493 3.533.426 4.171 2.022.728 1.905.018 4.242-1.588 5.483-2.734 2.055-6.523 1.655-9.525.438-2.697-1.18-5.512-2.108-8.403-2.614.028-.049.086-.148.114-.197 1.713-.163 3.459-.061 5.13.365 2.578.527 4.958 1.905 7.633 1.968 1.64.036 3.457-.285 4.635-1.523.995-1.035 1.405-2.826.505-4.04-.889-1.164-2.785-1.212-3.761-.13.795.263 1.018 1.422.335 1.924-.625.526-1.694.02-1.684-.797.096-1.354 1.155-2.524 2.438-2.899z"/></svg>