<svg fill="none" viewBox="0 0 130 121" xmlns="http://www.w3.org/2000/svg"><path clip-rule="evenodd" d="m36.1135 1.02354c-6.6123 3.53765-10.8064 8.95445-13.7285 17.73136-2.0642 6.1996-2.8919 11.3827-2.8895 18.0958.0028 7.3763.9432 12.1716 3.333 16.9923 3.041 6.1349 7.6688 10.2314 14.1725 12.5456 2.0563.7318 2.966.7747 3.2975.1557.3109-.5807.3163-7.1214.0062-7.7005-.1292-.2412-.9415-.81-1.8053-1.2639-3.5055-1.8429-5.6328-4.0873-7.5134-7.9268-2.0998-4.2877-2.6759-7.7031-2.4902-14.7689.1006-3.8344.2406-5.3423.7063-7.5978 1.9309-9.356 5.2456-18.39428 8.9276-24.34181 1.0646-1.71971 1.2267-2.121936 1.0149-2.517414-.3634-.678526-.8132-.590071-3.0311.596364zm35.1646-.580771c-.2192.409211-.1309.681091.5572 1.716681 3.696 5.56229 7.4014 15.47365 9.3936 25.12695.4656 2.2555.6056 3.7634.7063 7.5978.1849 7.0462-.3842 10.4312-2.4835 14.7689-2.9231 6.0399-6.7696 8.5436-15.0347 9.7868-3.102.4665-3.7892.7654-5.0946 2.2162-1.4101 1.5673-2.1832 4.3785-1.5363 5.5865.2199.4106.5125.45 3.3195.4465 10.125-.0121 15.126-1.4269 20.283-5.738 3.6259-3.0312 6.9077-8.2899 8.1834-13.1127 1.878-7.1007 1.8727-16.3778-.0145-24.7901-2.5757-11.481-7.6342-19.07162-15.4006-23.108798-2.1471-1.116368-2.5133-1.17945-2.8788-.496733zm-40.7668.303068c-9.2682 3.850033-14.3049 9.398863-17.6896 19.487563-5.114 15.2444-3.88495 31.9173 3.1509 42.7393 1.6143 2.4832 5.5712 6.4813 7.993 8.0762 4.4805 2.9508 10.1357 4.898 14.6857 5.0563 1.8021.0626 1.8883-.1197 1.8883-3.9981 0-3.546-.0797-3.7448-1.6307-4.0656-3.2329-.6688-7.4265-2.6864-10.2112-4.9126-4.9383-3.948-8.0629-9.5802-9.639-17.3736-.4666-2.3077-.53-3.313-.5314-8.4391-.0018-6.2536.1552-7.8285 1.3209-13.2679 1.3998-6.5309 3.764-12.3245 6.7085-16.44061.741-1.03583 2.4215-2.96573 3.7346-4.2888 1.6326-1.64476 2.3438-2.519981 2.2487-2.767649-.1828-.4760164-.4834-.447386-2.0287.194596zm47.3922-.226719c-.1039.270015.618 1.165252 2.5068 3.108892 4.1132 4.23294 6.4911 8.19589 8.4414 14.06869 2.0593 6.201 2.927 11.2747 3.0964 18.1065.0971 3.9224.0407 5.5986-.2605 7.7515-1.4825 10.5971-6.1692 18.094-13.8111 22.0928-3.9339 2.0584-7.4924 2.8295-14.8572 3.2196-5.8608.3108-5.5419.0699-5.434 4.1001.0456 1.7062.1817 2.9559.3391 3.1126.3485.3475 11.2849.3475 14.2844 0 7.808-.9046 13.2113-3.4271 18.4452-8.6114 6.7652-6.701 9.998-15.8486 9.998-28.29 0-6.0504-.605-10.5715-2.1333-15.9448-3.2238-11.3343-7.6825-17.21597-16.1645-21.32228-3.5466-1.716913-4.2425-1.9345575-4.4507-1.392202zm-23.8528 1.813982c-.9367.49324-1.1349.52141-1.8636.26466-1.5754-.55516-3.2855-.23579-4.4887.83844l-.7366.65758.6341.78281c2.1471 2.65126 2.8252 3.60492 3.648 5.13001.7519 1.3939 1.642 3.9096 1.642 4.6412 0 .089-.4847.4458-1.0773.7926-1.4825.8683-2.7757 2.0708-3.9837 3.7046-.6765.915-1.3397 1.5239-1.9641 1.8033-1.4671.6561-2.5694 1.6526-3.4576 3.1258-.7564 1.2542-.8154 1.4909-.8154 3.2695 0 2.3631.2502 2.7281 1.2778 1.8643.9991-.8401 2.2298-1.1401 3.3887-.8263 3.5469.9606 3.5847 5.8518.0508 6.5971-.4904.1034-.6406.2705-.6406.7126 0 .79.7293 1.4531 1.7923 1.63 1.745.2903 1.8336.4197 1.5945 2.3308-.1353 1.0817-.5614 1.9406-2.7402 5.5246-2.7604 4.5402-3.9084 6.8059-4.3906 8.6663-.2344.9038-.3201 6.3318-.3839 24.294-.0736 20.6533-.0436 23.19.2809 23.684l.3634.555h6.8306c6.2864 0 6.8609-.034 7.2108-.42.344-.38.3862-2.2274.4437-19.3782l.0636-18.9585.6844-1.2346c.7828-1.4118 2.0027-2.5961 3.416-3.3165.5757-.2935 2.7088-.814 5.1939-1.2677 2.3193-.4234 4.3855-.838 4.5917-.9211.9127-.3687.9278-.6606.8573-16.5397l-.0685-15.3603-.6413-1.8927c-1.0451-3.083-2.9704-5.6884-5.7551-7.7873l-.7988-.6022.2854-1.2733c.4293-1.9171 1.4899-3.96103 3.3125-6.38417.9025-1.1997 1.7407-2.24298 1.8625-2.3184.437-.26978.2096-1.01744-.4526-1.48857-1.1452-.81493-2.8185-1.08075-4.1153-.65408-1.0539.3466-1.1375.34147-1.7451-.10754-1.0315-.76186-2.4688-.79632-3.784-.09009l-1.117.59962-.6642-.49044c-1.0254-.75767-2.4837-.8189-3.7407-.15713zm-36.9553 3.74971c-4.6833 3.44943-9.98802 9.90839-12.45078 15.15989-2.04927 4.3696-3.810608 10.8802-4.392752 16.239-.531827 4.8917-.2054645 11.383.828142 16.4776.90804 4.4755 3.49939 10.7161 6.02341 14.5063 6.55078 9.8371 17.51768 15.8689 30.19648 16.6082 3.2497.1892 3.2397.2014 3.2397-3.9322 0-3.5118-.1964-3.9052-1.9496-3.9052-1.6726 0-5.0012-.668-7.5185-1.509-9.4033-3.141-15.9124-9.7119-19.7191-19.9059-5.69747-15.2586-2.65816-35.8528 7.2725-49.27432.5128-.69295.5393-1.46971.0501-1.46971-.1179 0-.8288.45251-1.5796 1.00534zm74.308-.64664c-.082.21345.2523.89663.8258 1.68759 6.1276 8.45024 9.6318 19.93444 9.6388 31.58904.012 18.4665-8.2427 32.2169-22.1668 36.9257-3.6432 1.232-10.0304 2.0395-16.4489 2.08-3.3676.0209-5.2095.256-5.4912.7008-.1148.1816-.2105 1.6541-.2126 3.2721-.0031 2.4744.0622 3.0232.41 3.4522l.4134.5103 7.3322-.2589c4.0326-.1422 8.328-.368 9.5451-.5016 10.2934-1.1294 19.5034-5.8169 25.4678-12.9618 8.393-10.0555 11.626-24.8059 8.657-39.5036-1.883-9.3208-5.36-16.0013-11.645-22.3702-2.5382-2.57208-5.4266-4.98033-5.9731-4.98033-.1181 0-.2768.16131-.3525.3587zm20.9756 12.77633c-.078.2037.18 1.5479.574 2.9867 1.926 7.0276 2.144 8.8432 2.358 19.6086.192 9.6304.312 10.8024 1.308 12.727.635 1.226 2.285 2.613 4.523 3.8004 2.374 1.26 3.207 2.1832 3.423 3.7963.146 1.0863-.233 2.3849-.863 2.9541-.432.3908-.495.3647-1.68-.7007-3.465-3.1149-6.792-4.5264-10.688-4.5339-2.138-.0042-2.132-.0098-3.321 3.0535-2.16 5.5635-6.142 11.1234-10.9123 15.2353-1.3052 1.1252-1.3336 1.176-1.7131 3.0793-.5346 2.6813-.3844 6.8437.3161 8.7564.6746 1.8422 1.7304 3.5582 3.4267 5.57 2.3886 2.8321 2.8806 3.5339 3.7206 5.3023 1.385 2.9152 1.6 5.6682.596 7.6242-.559 1.087-1.149 1.602-3.248 2.833-2.9494 1.729-4 3.218-4.5875 6.502-.3921 2.193-.4091 3.551-.049 3.911.2062.206 2.3128.279 8.0315.279h7.752l.331-.523c.214-.339.342-1.264.364-2.619.057-3.478.506-4.616 2.708-6.867 2.136-2.184 2.223-2.481 2.439-8.38.257-7.0302.886-8.9889 4.182-13.0347 3.826-4.6957 4.916-6.4706 5.862-9.5436.428-1.3906.535-2.2668.525-4.3063-.012-2.2455-.104-2.8265-.752-4.7245l-.738-2.1641.913-1.2111c2.54-3.3689 3.191-6.8451 1.861-9.934-.594-1.3796-1.729-2.4713-3.824-3.6785-1.808-1.0414-2.525-1.7066-2.896-2.6857-.332-.8756-.313-1.3789.071-1.9045.297-.4048.371-.334.99.9446.823 1.6981 1.814 2.4299 3.29 2.4299 1.349 0 2.288-.5766 2.86-1.756 1.34-2.7668-.338-6.1678-3.236-6.556-1.177-.1579-1.826.0049-2.887.7241-.649.4407-.896.5056-1.08.2847-.332-.4008.468-1.6555 1.43-2.2416 1.08-.6578 2.231-.584 3.805.243.74.3892 1.485.6544 1.654.5894.657-.2516.158-4.2176-.771-6.1386-1.13-2.3359-3.381-3.0798-5.524-1.8249-.552.3233-1.14.7511-1.305.9504-.329.3954-.71.4818-.71.1606 0-.1111.416-.9227.925-1.804.509-.881 1.108-2.3019 1.331-3.1571.355-1.3603.368-1.7364.107-3.003-.849-4.1046-3.53-7.0627-9.876-10.8969-.766-.4627-.891-.4821-1.016-.1571zm-58.6591 6.1849c-.0046.6402-.0834 1.1639-.1752 1.1639-.0917 0-.461-.2619-.8204-.5819l-.6537-.582.6537-.5819c.3594-.32.7324-.5819.8288-.5819.0962 0 .1712.5237.1668 1.1638zm6.6787-.5104c.5801.4979.5081.8163-.2912 1.2881l-.6988.4125v-1.1906c0-1.2414.0862-1.2856.99-.51zm32.6606 56.1662c-1.1924.8103-5.5099 2.918-7.2778 3.553-3.3654 1.2088-8.0396 2.1662-12.6888 2.5991-1.1967.1115-1.6297.25-1.8054.5782-.1372.2563-.2311 3.1226-.2311 7.0641 0 8.1814-.2562 7.6314 3.2714 7.0144 5.4214-.9472 13.5274-3.3776 18.9934-5.6941 3.6088-1.5295 3.5564-1.4941 3.1604-2.1322-.8943-1.4413-1.9298-3.8102-2.2401-5.1249-.3727-1.5805-.4454-4.9578-.1458-6.7773.2323-1.4092-.0773-1.7318-1.0362-1.0803zm-64.4584 5.1105c-.3734.2225-.4081.8226-.4123 7.1563-.0026 3.8023-.1102 7.6432-.2392 8.535-.4909 3.395-2.272 5.759-6.0232 7.996-1.2093.721-2.562 1.68-3.0063 2.131-1.4312 1.454-2.1801 3.689-2.5035 7.473-.2329 2.724-.8537 2.543 8.7068 2.539 4.6739-.002 8.2257-.097 8.4279-.224.2649-.167.3814-.885.4815-2.964.1533-3.186.3863-3.778 2.3978-6.089.7098-.815 1.7129-2.293 2.2291-3.285 1.6008-3.075 1.6952-3.745 1.8163-12.9284.1014-7.6731.0825-8.1822-.3219-8.6589-.3774-.4448-.8093-.5374-3.5516-.7618-2.7267-.223-4.9751-.5522-7.0113-1.0266-.3203-.0744-.766-.0262-.9901.1074zm35.0009 1.3957c-2.3703.0886-4.5379.1745-4.8172.1908-1.2141.0713-1.2395.227-1.2395 7.5907 0 5.9891-.0531 7.0001-.4305 8.2121-.8305 2.666-2.3319 4.285-6.0922 6.57-3.4938 2.122-4.4847 3.837-4.9592 8.581-.25 2.5-.2402 2.663.1789 2.969.3587.262 1.9896.324 8.5355.324 7.0458 0 8.1393-.047 8.4582-.365.2826-.283.366-.883.366-2.636 0-2.999.3459-3.939 2.2396-6.088 1.7208-1.952 3.1371-4.63 3.6876-6.972.2835-1.206.3562-3.197.359-9.8263.0032-7.9829-.0145-8.3229-.4471-8.5543-.2478-.1325-.6935-.2221-.99-.199-.2968.023-2.4788.1145-4.8491.203zm31.0989 9.2202c-2.6167 1.1595-8.2359 3.1953-10.8774 3.9409l-2.2263.6285-.1561 1.721c-.1898 2.095-.8556 4.321-1.6309 5.455-.3617.529-1.4442 1.376-2.9041 2.272-1.2801.786-2.5297 1.716-2.7768 2.067-1.244 1.764-1.7802 3.47-2.0346 6.472-.2418 2.853-.8359 2.661 8.2679 2.661 6.8163 0 7.6766-.041 7.962-.384.2157-.259.3615-1.337.4487-3.316.1749-3.972.3811-4.386 3.9096-7.857 2.4355-2.395 2.9212-3.003 3.6913-4.62l.8869-1.862.0011-3.9531c.001-3.3368-.0533-3.9601-.3482-4.0018-.1922-.0272-1.1881.3222-2.2131.7765z" fill="#000" fill-rule="evenodd"/></svg>