<svg fill="none" viewBox="0 0 130 84" xmlns="http://www.w3.org/2000/svg"><path clip-rule="evenodd" d="m24.5215 3.93414c-3.7447 2.16647-6.8581 3.98994-6.9189 4.0521-.1254.12862 1.2257 3.42986 2.621 6.40526 1.2899 2.7501 1.8485 4.6552 1.6847 5.7469-.3234 2.1556-1.9211 3.848-6.0794 6.4397-2.9364 1.8298-4.0028 2.7597-5.105 4.4507-1.3627 2.0912-1.70375 3.1811-1.81558 5.8031-.08208 1.924-.02934 2.5152.32914 3.6925 1.45544 4.7781 5.21924 7.48 11.52504 8.2734.9593.1207 4.3527.277 7.5411.3476l5.7968.128v10.0193 10.0194h3.078 3.078l.0031-2.2053c.0016-1.2386.1389-2.7812.3129-3.5195.8241-3.4952 3.2356-6.0114 6.5877-6.8744 1.7935-.4616 5.2831-.4263 7.3577.0747 2.9643.7157 10.9556 3.8004 18.2627 7.0493 6.8734 3.0562 8.3527 3.3411 15.4926 2.9842 5.5147-.2759 8.1099-.1543 9.7529.457 1.5642.582 2.664 1.6524 3.004 2.9253l.256.9549 2.676-.0008 2.676-.0006.715-1.3841c.393-.7611 1.631-3.0916 2.751-5.1789 5.01-9.3383 6.361-13.0784 7.117-19.6933.335-2.9322.141-7.4073-.413-9.5389-.916-3.521-3.038-6.8231-5.926-9.2191-4.682-3.8851-8.868-5.6774-15.1768-6.4988-1.0837-.1411-7.3314-.2833-15.8453-.3604-13.2333-.1202-14.1019-.1504-14.8382-.5159-.4301-.2136-1.0038-.7147-1.2749-1.1135-.4446-.654-.5087-.6864-.6544-.3297-.0888.2175-.1598 1.134-.158 2.0366.0044 1.9298.4312 2.9352 1.7116 4.0296 1.6264 1.3902 2.1378 1.4833 8.5962 1.566l5.7969.0743v7.3708 7.3706h2.739 2.7392l.3218-.8191c.8544-2.1743 3.434-1.0967 3.434 1.4345 0 1.0702-.5206 2.0231-1.5027 2.7505l-.5795.4291h-32.868c-30.7834 0-32.9581-.0229-34.2849-.3633-3.8475-.9869-5.705-3.2647-5.3922-6.613.2983-3.1922 2.0692-5.9517 7.4499-11.6086 3.9013-4.1013 4.3546-6.3434 2.4128-11.9337-.401-1.1541-.7441-2.228-.7628-2.3863-.0207-.1762 1.9544-1.42759 5.0847-3.22153l5.1185-2.93327.7296.85482c4.7816 5.60128 10.8703 8.89948 18.0691 9.78758 1.3894.1715 6.3708.2176 17.3393.161 14.9724-.0773 15.4442-.0917 17.3894-.5317 5.6939-1.2875 10.1644-3.8421 14.3467-8.19796l1.965-2.04686 5.065 2.89942c4.398 2.51746 5.05 2.9536 4.946 3.3105-.065.2261-.173 1.3804-.24 2.5651-.283 5.0636 1.398 9.7155 4.836 13.3809 2.168 2.3109 4.668 4.0008 6.91 4.6712l.841.2513.134 3.5155c.168 4.4412.175 16.6065.01 17.0379-.069.1785-.235.3245-.37.3245-.392 0-3.542 1.5749-4.597 2.2978-3.737 2.5611-6.592 7.0338-7.422 11.626-.3 1.6557-.359 4.0178-.148 5.8973l.164 1.461-3.242 1.8555c-1.783 1.0203-4.051 2.323-5.041 2.8947l-1.799 1.0392-.752-.8683c-4.3972-5.0815-9.7154-8.2324-16.1092-9.5453-1.5205-.312-3.4636-.3494-18.2207-.3494-17.8737 0-17.6106-.0141-21.4433 1.1533-4.8045 1.4635-9.2048 4.3143-12.5291 8.1171l-1.2894 1.4754-5.0949-2.8875c-2.8022-1.5882-5.2232-3.0066-5.3797-3.1522-.2377-.2205-.1353-.3042.6156-.5038.4951-.1315 1.9161-.5652 3.1576-.9635 3.7561-1.2052 5.4244-2.2014 6.0712-3.6252.4679-1.0303.4921-1.8006.0813-2.5948-.9306-1.7991-3.5377-1.538-5.6861.5692-.5335.5231-1.0248.8967-1.0917.8298-.157-.1569.5188-1.4739 1.8175-3.5427 2.0791-3.3122 2.7923-5.5595 2.4139-7.6055-.4257-2.3021-1.549-3.2956-3.5394-3.1306-1.4063.1167-2.1682.6338-2.8919 1.9631-.9023 1.6573-1.1834 3.1524-1.365 7.2592-.1592 3.6047-.2528 4.2796-.5928 4.2796-.078 0-.1472-2.0538-.1539-4.5643-.0105-4.033-.0638-4.7516-.458-6.173-1.2959-4.6724-4.3043-7.7963-8.43-8.7532-1.3876-.3219-4.61701-.3201-6.03022.0034-1.44974.332-4.17807 1.6543-5.146609 2.4947l-.788171.684 2.32717.016c7.37855.051 12.90353 4.5347 15.42153 12.5148.9538 3.0227 1.0533 6.6319.2549 9.2444-.1775.5809-.702 1.6243-1.1656 2.3182-.4635.694-.8091 1.2877-.7676 1.3193.0412.0318.4906.2868.9985.567.664.3662 12.4769 7.1314 13.7732 7.8877.0702.0411 1.4005-1.4051 2.9563-3.2134 3.2914-3.8257 4.4584-4.9279 6.0893-5.7509 2.5057-1.2643 1.2529-1.2097 27.7251-1.2097 26.6164 0 25.2838-.0603 27.9032 1.2616 1.6067.8109 2.7421 1.8936 5.929 5.6546 1.454 1.7166 2.71 3.1612 2.79 3.21.114.0694 10.258-5.6331 14.263-8.0186l.767-.4564-.949-1.2873c-2.067-2.8042-2.834-5.1299-2.719-8.2387.072-1.9429.139-2.2348.839-3.6503 1.274-2.5771 3.298-4.1489 6.331-4.9157 1.93-.4878 4.399-.4474 6.187.1009.536.1646.998.2388 1.026.1654.028-.0737.026-7.1632-.004-15.7546l-.055-15.6205-.971.3127c-1.419.4572-5.362.455-6.819-.0035-3.694-1.1625-6.014-3.8252-6.596-7.5694-.209-1.3422-.194-1.8374.101-3.3345.497-2.5333 1.61-4.8267 3.153-6.50005l.497-.53869-.681-.41253c-.374-.22709-2.897-1.68316-5.605-3.23605-2.709-1.55269-5.793-3.32324-6.854-3.93414-1.565-.90138-1.974-1.0599519-2.17-.840864-.134.148314-1.482 1.739574-2.997 3.535964-2.9382 3.48468-4.1545 4.59859-5.9013 5.40396-2.4052 1.1092-1.382 1.0688-27.1924 1.0714-26.465.0027-25.1618.0636-27.7155-1.29295-1.652-.87758-2.8344-2.01733-5.9668-5.75167-1.4671-1.74921-2.7137-3.1825102-2.7702-3.18517699-.0564-.0026668-3.1664 1.76767699-6.9113 3.93413699z" fill="#000" fill-rule="evenodd"/></svg>