<svg fill="none" viewBox="0 0 130 253" xmlns="http://www.w3.org/2000/svg"><path clip-rule="evenodd" d="m79.3688.552155c-.0139 1.151825-1.3167 3.646135-2.5455 4.872795-2.3252 2.32096-3.2798 2.54734-11.7618 2.78914-9.0573.25834-10.7186.70019-14.0489 3.73861-3.0903 2.8192-4.8116 7.0667-5.2599 12.9796l-.171 2.2563 7.0086 3.4649c3.8547 1.9058 7.6867 3.6393 8.5155 3.8522 2.4582.6321 6.6451.4689 9.2845-.3621 7.498-2.3609 10.5513-9.1045 10.4496-23.0802-.0539-7.40962-.3617-10.838785-.9919-11.0459861-.2603-.0857384-.4747.1534311-.4792.5347411zm-70.67088 4.167715c.04784 3.6796-.26936 4.452-3.70661 9.01603-3.05374 4.0553-4.259265 6.3718-4.754283 9.1364-1.21984 6.8129 2.358303 13.6998 8.668843 16.6848 2.30103 1.0883 2.75953 1.1691 6.62403 1.1691 3.9187 0 4.2909-.0684 6.6262-1.2161 6.1391-3.0166 9.573-9.5756 8.6007-16.4283-.4077-2.873-.8424-3.9631-2.5136-6.3025-1.5065-2.1093-3.6241-3.6789-8.5174-6.312-4.9728-2.67589-7.7202-4.76934-9.2897-7.07826-.72516-1.06722-1.42248-1.94453-1.54982-1.9498-.12695-.00526-.21172 1.47109-.18836 3.28063zm32.06918 30.59393c-9.1864.9649-19.363 6.0769-24.5622 12.3373-2.3108 2.7828-4.631 7.281-5.6411 10.9373-1.05366 3.8135-.96776 12.7637.1594 16.6547 3.9357 13.5828 13.0434 21.3334 28.5871 24.3275 2.2261.4287 4.1064.8384 4.1783.9104.3617.361-1.8508 37.816-3.1121 52.683-2.7577 32.505-7.3093 65.358-12.7857 92.289-.7328 3.603-1.3322 6.775-1.3322 7.05 0 1.383.8288-.027 3.189-5.422 11.5561-26.42 21.7665-44.017 31.17-53.719 13.2815-13.705 25.579-13.224 38.9965 1.525 5.4269 5.965 10.4209 13.435 16.6019 24.837 2.778 5.122 8.875 17.967 11.558 24.349 1.099 2.614 1.201 2.729 1.977 2.236.356-.225.335-.748-.094-2.344-1.828-6.804-6.388-31.408-7.873-42.479-1.716-12.803-3.225-29.842-3.98-44.938-.332-6.636-1.107-31.703-1.125-36.382-.003-.776-.141-1.41-.306-1.41s-1.502 1.819-2.971 4.042c-7.9 11.956-16.309 18.102-26.4795 19.351-8.4032 1.033-17.0728-2.65-24.902-10.58-4.489-4.546-8.2329-10.072-11.8634-17.51-2.0675-4.236-5.4389-12.604-5.4389-13.499 0-.041 1.4836.068 3.2964.24 8.0062.762 17.0992-.8267 24.6307-4.3021l3.2516-1.5008-1.1479-2.222c-.8898-1.7219-1.1479-2.7094-1.1468-4.3851.0019-2.6846.7535-4.4272 3.9534-9.1665 3.5469-5.2526 4.5927-8.5437 4.5863-14.4303-.0057-5.1492-.8292-8.3468-3.2727-12.7085-3.9507-7.0516-12.7356-13.2974-22.0381-15.6683-5.4282-1.3835-10.2443-1.714-16.064-1.1026z" fill="#000" fill-rule="evenodd"/></svg>