<svg enable-background="new 0 0 25.68 34.195" viewBox="0 0 25.68 34.195" xmlns="http://www.w3.org/2000/svg"><path d="m11.296.06c.086-.076.223-.081.314-.009.254.188.488.402.747.583.375-.118.626-.622 1.053-.597 3.756 2.965 7.495 5.953 11.243 8.929.188.339.044.78.086 1.16.299.285.719.48.931.835-.009 1.86-.008 3.723-.015 5.585-.111.214-.362.308-.529.474.165.188.45.276.531.53.001 1.935.014 3.87.019 5.802.025.115-.057.209-.141.275-.283.218-.551.454-.847.654-.014.37.044.757-.032 1.117-1.176.946-2.406 1.828-3.566 2.796-2.551 1.971-5.099 3.945-7.637 5.932-.411.308-.661-.511-1.047-.356-.359-.111-.619-.414-.933-.61-.138-.107-.337-.202-.318-.408.023-4.027.012-8.058.019-12.087-1.393-1.069-2.766-2.16-4.147-3.244-.003 3.76-.007 7.521 0 11.281.002.149-.001.333-.134.43-.302.227-.598.463-.901.69-.085.06-.211.079-.296.009-.317-.236-.627-.482-.938-.725-.113-.08-.119-.23-.113-.355-.005-4.421.016-8.838.018-13.258-1.49-1.168-2.944-2.381-4.438-3.545-.136-.09-.245-.234-.214-.405.036-.391-.078-.81.072-1.179-.094-.311-.025-.644-.045-.965.012-.168-.047-.372.087-.505 3.724-2.943 7.444-5.894 11.171-8.834zm.01.636c-3.538 2.794-7.075 5.59-10.612 8.387.174.141.337.298.531.41 1.414-1.145 2.84-2.276 4.274-3.398 2.163-1.682 4.28-3.421 6.445-5.101 0-.011.001-.033.001-.044-.204-.091-.413-.489-.639-.254zm1.49.286c1.481 1.162 2.937 2.354 4.414 3.521.143.094.178.333.015.427-2.016 1.583-4.043 3.153-6.06 4.735-1.736 1.356-3.445 2.745-5.19 4.089-.08.063-.196.053-.273-.01-1.512-1.183-2.996-2.401-4.496-3.598-.17.139-.342.277-.519.407 2.858 2.372 5.818 4.633 8.708 6.969.68.538 1.351 1.088 2.047 1.605.167-.143.354-.263.511-.419-1.78-1.376-3.515-2.808-5.285-4.197-.141-.084-.183-.315-.04-.417 3.723-2.965 7.468-5.903 11.222-8.828.074-.058.182-.084.266-.031 1.839 1.413 3.62 2.899 5.452 4.322.159-.146.367-.246.491-.425-3.594-2.834-7.158-5.709-10.757-8.535-.169.125-.34.252-.506.385zm-4.391 3.467c-2.26 1.792-4.546 3.554-6.786 5.371.093.077.19.149.287.221 3.391-2.715 6.817-5.389 10.197-8.116.063-.126.025-.284.012-.42-1.244.972-2.489 1.944-3.71 2.944zm4.236-2.944c-.007.138-.027.277-.001.415 1.252 1.005 2.507 2.008 3.755 3.019.084-.07.171-.137.263-.196-1.305-1.113-2.67-2.17-4.017-3.238zm-.483 1.031c-3.268 2.619-6.567 5.198-9.832 7.819-.001.01-.003.031-.003.041 1.156.942 2.326 1.87 3.496 2.795.064.012.115-.046.164-.079 3.319-2.624 6.642-5.244 9.987-7.835 0-.01.001-.03.001-.04-1.182-.941-2.349-1.9-3.541-2.827-.105-.066-.187.081-.272.126zm6.081 3.437c-.009.165-.004.33-.007.496 1.556 1.202 3.087 2.434 4.637 3.642.095-.069.189-.141.267-.23-1.638-1.297-3.243-2.633-4.897-3.908zm-11.037 8.314c.127.069.264.329.412.167 3.352-2.687 6.734-5.339 10.109-7.998.003-.15.008-.301-.001-.451-3.511 2.754-7.029 5.501-10.52 8.282zm.723.564c1.462 1.2 2.948 2.372 4.441 3.533 3.349-2.617 6.692-5.243 10.017-7.889.123-.128-.164-.211-.234-.304-1.385-1.1-2.773-2.196-4.173-3.277-3.371 2.62-6.712 5.279-10.051 7.937zm-7.378-5.218c-.01.13-.002.26-.005.39.068-.078.216-.116.22-.23-.062-.065-.141-.11-.215-.16zm23.444.233v.049c.082.06.165.12.244.184.002-.139.003-.278-.001-.417-.08.062-.161.124-.243.184zm-11.215 8.85c.167.14.334.281.507.414 3.598-2.826 7.198-5.65 10.778-8.5-.155-.147-.333-.268-.492-.411-3.601 2.827-7.19 5.671-10.793 8.497zm11.965-7.929c-.01.135.002.27-.003.406.092-.062.181-.129.263-.205-.083-.071-.168-.14-.26-.201zm-24.229.302c.007.147.002.294.006.44 1.507 1.183 2.977 2.408 4.485 3.588.064.054.151.114.147.209.002.417.001.835.002 1.252 0 .071-.003.141-.002.213.019.964-.009 1.931.002 2.896-.008.345.001.69-.001 1.035-.001 2.685-.004 5.371-.001 8.056.14.107.273.225.425.315.014-4.32.002-8.64.008-12.96.039-.261.369-.255.511-.081 1.705 1.306 3.359 2.675 5.081 3.958-.006-.144-.001-.289-.003-.433-3.551-2.833-7.121-5.641-10.66-8.488zm23.653.104c-3.527 2.82-7.098 5.587-10.634 8.395.004.145.004.29.006.435.582-.438 1.164-.878 1.719-1.35 2.94-2.304 5.878-4.612 8.806-6.931.232-.099.165-.358.167-.558-.015.003-.048.007-.064.009zm.571.843c.005 1.543-.013 3.083.004 4.625.137-.104.29-.191.409-.317.006-.975-.001-1.95.006-2.925-.004-.417-.003-.835 0-1.252-.004-.215 0-.43 0-.644-.145.165-.469.244-.419.513zm-.937.553c-.008 1.182.034 2.363.024 3.545-.032.238.235.342.381.479.056-.692.012-1.392.019-2.087.018-.207.002-.414.008-.62 0-.543-.001-1.086.002-1.628-.162.079-.289.209-.434.311zm-10.238 8.076c-.042 1.119-.023 2.242-.021 3.362.079-.051.158-.104.231-.163 3.162-2.548 6.378-5.029 9.551-7.564.008-1.101-.024-2.2-.029-3.301-3.237 2.563-6.497 5.101-9.732 7.666zm-7.475-3.973c-.006 4.139-.003 8.278-.001 12.417.139-.122.328-.201.428-.358.012-.819 0-1.638.002-2.458-.001-.403-.001-.804 0-1.207.001-2.683-.002-5.369.003-8.053-.143-.115-.283-.233-.432-.341zm7.446 7.999c.006.269-.004.539.007.808 3.503-2.758 7-5.528 10.506-8.282.001-.013.003-.038.004-.051-.156-.142-.322-.273-.477-.416-3.342 2.653-6.706 5.279-10.04 7.941zm11.206-7.327c-.007.136-.001.273-.003.409.086-.066.173-.129.257-.196-.084-.073-.168-.143-.254-.213zm-10.95 8.589c-.211.143-.566.517-.756.154-.022-1.675.009-3.352-.005-5.028-.128.099-.268.189-.381.305-.008 2.951-.002 5.903-.01 8.855.006.682.002 1.364 0 2.047.007.234-.007.47.007.704.123-.085.238-.18.362-.263.012-1.857.023-3.714.016-5.572-.003-.079.01-.161.058-.225 3.741-2.885 7.429-5.843 11.15-8.756-.032-.148.005-.298-.019-.447-3.477 2.737-6.95 5.483-10.422 8.226zm10.929-7.507c.011 1.729-.024 3.454-.021 5.182.162-.117.329-.234.468-.377-.019-1.714-.01-3.43-.013-5.145-.145.112-.297.217-.434.34zm-.94.733c.03 1.358.019 2.725.021 4.087.128.112.258.223.388.334.021-1.586.024-3.172.026-4.758-.146.11-.286.23-.435.337zm-12.076.821c.138-.106.275-.213.412-.32-.006-.145.002-.29-.003-.435-.265.18-.562.391-.409.755zm.915-.751c-.001.143-.001.287-.003.431.132.11.269.214.412.31.007-.135.003-.27.004-.406-.137-.114-.273-.227-.413-.335zm.916 7.965c-.003.888-.003 1.776-.006 2.664-.006.334-.034.671.008 1.004 3.257-2.538 6.527-5.06 9.764-7.622-.016-1.225.013-2.452-.027-3.676-3.258 2.529-6.463 5.125-9.739 7.63zm-1.667-6.693c.001.009.002.027.003.037.178.119.335.268.522.374.16-.137.333-.258.491-.399-.178-.131-.337-.287-.528-.399-.164.128-.326.257-.488.387zm-.192 6.562c.003.821-.003 1.64-.002 2.46.002.064.003.127.002.192-.018.545.001 1.09.003 1.636-.028.362-.018.725-.013 1.088-.074.295.291.395.469.549-.03-3.859-.019-7.725-.023-11.587-.099-.16-.286-.246-.429-.365-.004 2.009-.002 4.018-.007 6.027zm1.86 4.445c-.052.267-.003.54-.019.808 3.502-2.717 7.01-5.431 10.503-8.16.001-.011.003-.034.003-.046-.164-.13-.32-.271-.475-.412-3.331 2.611-6.679 5.201-10.012 7.81zm.022 1.424c-.082.136-.038.32-.031.475 2.48-1.922 4.952-3.855 7.436-5.773 1.05-.864 2.144-1.673 3.223-2.5.012-.157.004-.315.002-.472-3.532 2.77-7.099 5.497-10.63 8.27z"/></svg>