<svg enable-background="new 0 0 70.735 70.755" viewBox="0 0 70.735 70.755" xmlns="http://www.w3.org/2000/svg"><g clip-rule="evenodd" fill-rule="evenodd"><path d="m.327 0c23.384.279 46.968-.111 70.236.146.261 2.125.147 4.926.147 7.459 0 .844.114 1.707-.147 2.42-11.394.098-23.026.098-34.97.1-11.849.002-23.779.129-35.415-.197-.164-3.031-.165-6.75 0-9.781.029-.071.078-.12.149-.147z"/><path d="m.327 20.301c10.218.061 20.186-.023 30.08.146.372 6.248-.055 13.293.247 19.609 1.437.221 3.153.205 4.791.148 1.617-.057 3.28.019 4.742-.148.263-1.541.174-3.225.098-4.891-.148-3.279.159-6.695 0-10.025-.04-.852-.016-1.695 0-2.52.016-.742-.069-1.498.148-2.174 5.091-.277 10.259-.051 15.312-.098 5.011-.049 9.904-.152 14.818.098.299 1.461.105 3.185.147 4.791.046 1.684.007 3.369-.049 4.99-6.499.295-13.7-.098-20.251.197-.264 1.416-.148 3.105-.148 4.74 0 1.652-.018 3.307.099 4.793.732.332 1.59.197 2.421.197 5.065 0 10.368-.002 15.509 0 .808 0 1.635-.045 2.371.197.051 9.924.151 20.432-.049 30.229-9.752.144-20.11.098-30.18.049-.311-3.203.027-6.711-.099-10.076-.124-3.301.076-6.848-.147-10.225-.688-.262-1.521-.148-2.322-.148-2.301 0-4.973-.076-7.161.1-.26.764-.149 1.602-.149 2.42 0 5.822.081 12.154-.099 17.881-1.224.264-2.508.148-3.754.146-8.963-.002-17.579-.021-26.475-.197-.352-1.19-.053-2.465-.1-3.703-.314-8.469.039-18.119.1-26.672 6.682-.228 13.582.279 20.201-.051.262-.709.149-1.553.149-2.369-.001-2.475.015-5.066-.099-7.262-6.561-.244-13.659-.006-20.251-.297-.173-1.42-.176-3.012-.148-4.791.011-.707 0-1.602 0-2.469 0-.805-.07-1.951.099-2.471.029-.068.078-.117.149-.144zm50.133 29.932c-.298 1.012-.147 2.246-.147 3.457 0 2.309-.101 4.725.099 6.816 2.402.148 5.169.148 7.705.148.877-.002 1.761.107 2.52-.148.179-2.383.099-5.258.099-7.756 0-.865.109-1.764-.148-2.517-3.304-.016-6.919-.221-10.128 0zm-40.057-.051c-.059.025-.112.053-.149.1-.255.227-.205 1.414-.198 1.977.027 1.859.001 3.373 0 5.234 0 1.086-.137 2.213.198 3.062 3.108.147 6.997.293 10.175 0 .267-1.518.149-3.355.149-5.137 0-1.785.112-3.611-.149-5.137-3.146-.228-6.715-.035-10.026-.099z"/></g></svg>