<svg enable-background="new 0 0 79.073 80.799" viewBox="0 0 79.073 80.799" xmlns="http://www.w3.org/2000/svg"><g clip-rule="evenodd" fill-rule="evenodd"><path d="m78.862.175c.329 2.662.099 5.892.101 8.76.001.955.223 1.93-.101 2.769-11.232.268-22.538-.05-33.428.251-.195 2.816-.101 5.718-.101 8.608-.001 20.776.108 39.603-.05 60.059-1.724.326-3.719.101-5.638.101-1.963 0-3.931.041-5.789-.05-.248-1.338-.151-2.748-.151-4.128.001-21.758.064-43.232-.151-64.54-.626-.269-1.346-.151-2.014-.151-10.448.001-21.053.088-31.414-.101-.167-3.593-.168-7.886 0-11.478 5.541-.348 11.103-.053 16.664-.151 5.526-.097 11.074-.001 16.613 0 8.333.001 16.751-.05 24.919-.05 2.795 0 5.635.129 8.407 0 1.812-.084 4.169.097 6.242 0 2.043-.095 4.036-.132 5.891.101z"/><path d="m78.912 12.811c.177 4.491.156 9.652 0 14.146-.363-.757-.445-1.58-.654-2.315-1.492-5.274-4.554-9.029-9.212-11.227-.246-.213-.896-.27-.856-.604 3.343-.166 7.379-.169 10.722 0z"/><path d="m61.443 23.181c2.956-.316 5.347 1.278 6.344 3.272.609 1.22.867 2.5.554 4.128-.773 4.009-5.695 6.406-9.515 4.078-1.354-.825-2.307-2.148-2.719-3.625-.504-1.805-.019-3.666.654-4.833.888-1.537 2.419-2.778 4.682-3.02z"/><path d="m78.862 31.085c.043-.009.047.019.05.05.206 3.091.112 6.505.102 9.716-.006 1.543.192 3.103-.102 4.48-3.275.168-7.245.167-10.521 0 .12-.367.574-.472.856-.604 5.119-2.39 8.402-7.052 9.565-13.492-.015-.081.047-.086.05-.15z"/><path d="m67.485 46.188c.218 1.325.15 2.725.15 4.128-.001 10.043.081 20.383-.101 30.256-3.506.271-7.893.194-11.479.05-.2-11.301-.182-22.833-.05-34.334 3.519-.308 7.796-.124 11.48-.1z"/></g></svg>