<svg enable-background="new 0 0 74.565 62.866" viewBox="0 0 74.565 62.866" xmlns="http://www.w3.org/2000/svg"><g clip-rule="evenodd" fill-rule="evenodd"><path d="m47.549.166c-.383 2.069-.86 4.047-1.557 5.805-.149 1.406-.573 2.68-.896 3.963s-.649 2.552-1.133 3.728c-4.941.06-9.741.165-14.535-.047.046-1.182.468-2.321.755-3.445.29-1.132.626-2.235.944-3.351.638-2.236 1.057-4.546 1.841-6.7 3.689-.094 7.604-.096 11.608-.095 1.019.001 2.033-.112 2.973.142z"/><path d="m31.506 62.741c-4.914.138-10.186.195-14.96 0 .092-1.426.586-2.79.943-4.152 2.495-9.502 5.117-19.011 7.504-28.692-.886-.255-1.965-.141-3.067-.141-7.323-.002-14.838.131-21.896-.095-.125-.58.186-1.146.33-1.699.752-2.894 1.5-5.798 2.265-8.73.302-1.155.499-2.343.991-3.398 15.914-.109 31.406-.14 47.427-.142h14.157c2.709 0 4.441.145 6.088 1.133 2.158 1.295 3.819 3.84 3.114 7.361-.989 4.941-2.27 9.657-3.586 14.487-.519 1.901-.918 3.886-1.511 5.711-.578 1.782-1.026 3.6-2.406 4.814-.755.728-1.551 1.302-2.643 1.698-1.147.417-2.477.388-3.965.378-8.164-.055-17.485.053-25.577.142-.497.794-.653 1.801-.896 2.737-.487 1.881-.955 3.847-1.463 5.805-.248.952-.438 1.934-.849 2.783zm11.088-25.624h8.777c1.382 0 3.241.202 4.2-.236.932-.425 1.301-1.442 1.604-2.548.235-.855.917-2.386.614-3.445-.35-1.217-1.798-1.18-3.54-1.18-4.927 0-9.474-.107-13.968.095-.518 1.043-.771 2.279-1.086 3.491-.316 1.223-.727 2.475-.803 3.729 1.266.234 2.712.094 4.202.094z"/></g></svg>