<svg enable-background="new 0 0 60.616 75.387" viewBox="0 0 60.616 75.387" xmlns="http://www.w3.org/2000/svg"><path clip-rule="evenodd" d="m18.234.251c.182.669-.289 1.22-.502 1.802-.213.587-.33 1.237-.5 1.853-.986 3.546-2.254 7.132-3.305 10.864-.695 2.471-1.258 5-1.902 7.56-.652 2.593-1.107 5.329-1.301 8.16-.264 3.859.74 6.319 2.201 8.662.447.715 1.756 1.508 2.455 1.752 2.828.989 5.838.129 7.408-1.502 1.631-1.692 2.217-4.329 2.555-7.109.182-1.5.299-3.01.299-4.556 0-1.478-.24-2.968-.449-4.355-.525-3.465-1.494-6.12-4.807-6.809-.842-.085-1.9.167-2.453-.1-.531-1.001-.111-2.114.199-2.854.463-1.096 1.43-2.008 2.705-2.253.457-.088.873.052 1.352-.1.711-.226.881-1.406 1.702-1.753.832-.352 2.359-.075 3.355.05 1.119.141 2.137.277 3.152.401 1.16.141 2.283.337 3.305.3 1.105-.04 2.123-.402 3.154-.1.172.632-.277 1.198-.451 1.802-.178.622-.346 1.286-.5 1.953-.303 1.309-.562 2.762-.701 4.205-.281 2.928-.619 6.036-.5 9.212.227 6.036.326 12.838 5.057 14.468 3.072 1.059 5.891-.085 7.459-1.652 3.113-3.112 3.252-10.791 2.053-16.271-.602-2.75-1.566-5.029-3.605-6.158-1.502-.77-3.643-1.108-5.457-.451-.643.233-1.129.736-1.752.701-.469-1.253-.078-2.634.25-3.755.629-2.144 1.584-3.935 3.256-5.057 2.438-1.638 6.389-1.175 9.111.15 3.246 1.486 5.258 4.208 6.959 7.359 1.695 3.142 2.326 7.335 2.553 11.765.113 2.211-.121 4.545-.5 6.558-1.127 5.974-3.891 10.639-7.66 13.768-2.754 2.496-9.088 3.722-13.568 2.002-.682-.262-1.348-.562-1.951-.901-.609-.343-1.135-.907-1.854-1.001-.619.734-.309 2-.35 3.205-.152 4.398-.156 9.206.049 13.667.053 1.126.068 2.281.15 3.354.168 2.153.783 4.137.902 6.008-.801.437-2.031.25-3.205.251-2.23 0-4.463-.001-6.758 0-1.098 0-2.281.178-3.154-.251.053-1 .475-1.914.65-2.954.17-1 .385-2.036.551-3.104.338-2.182.357-4.495.551-6.809.094-1.134.033-2.319.1-3.504.133-2.312.34-4.506.15-6.809-.047-.585-.023-1.217-.049-1.802-.025-.513.158-1.124-.252-1.552-.729.136-1.338.483-1.951.751-1.848.807-3.973 1.464-6.51 1.552-3.519.122-5.99-.851-8.26-2.503-2.068-1.505-3.684-3.451-5.006-5.757-1.305-2.275-2.029-5.155-2.504-8.26-.496-3.252.271-6.887.801-9.763.551-2.981 1.383-5.907 2.203-8.561.822-2.656 1.654-5.493 2.553-8.21.637-1.919 1.201-4.118 1.902-6.158.31-.899.375-1.679 1.252-1.652 2.057.062 4.785.05 7.16.05.785.001 1.592-.128 2.203.201z" fill-rule="evenodd"/></svg>