<svg enable-background="new 0 0 77.891 63.059" viewBox="0 0 77.891 63.059" xmlns="http://www.w3.org/2000/svg"><g clip-rule="evenodd" fill-rule="evenodd"><path d="m33.432.151c.113 5.178.12 11.369-.05 17.084-2.738.17-5.53.101-8.316.101-7.221 0-13.725-.05-20.763-.05-1.378 0-2.749.113-4.082-.151-.184-4.783-.101-10.17-.101-15.22 0-.65-.162-1.414.252-1.915 10.866.026 22.06-.049 33.06.151z"/><path d="m56.06.252c.083 5.576.104 11.527-.05 17.034-1.861.208-3.837.151-5.745.151-1.889-.001-3.887.018-5.695-.202-.24-2.524-.101-5.441-.101-8.416 0-1.446 0-2.936 0-4.385 0-1.454-.121-2.914.151-4.233 3.442-.16 7.919-.084 11.44.051z"/><path d="m77.831.302c.161 15.327-.051 31.679-.05 47.171 0 5.244.106 10.417-.101 15.522-18.501.126-37.088.054-55.688-.101-.167-11.343-.182-23.354.051-34.42.839-.27 1.815-.151 2.771-.151 2.75-.001 5.886-.083 8.517.1.256 4.276.015 8.953.05 13.304.012 1.429-.045 2.845.151 4.133 1.592.186 3.425.151 5.292.151 1.838 0 3.788.12 5.443-.151.288-5.668-.088-11.735.252-17.387 1.852-.299 3.853.031 5.795-.05 1.922-.081 3.887-.047 5.645.101.237 5.43-.152 11.762.151 17.387.792.269 1.73.151 2.621.151 2.651-.001 5.484.049 8.013-.05.022-.045.044-.09.101-.101.332-14.965.032-30.58.303-45.608 3.281-.209 7.289-.146 10.683-.001z"/><path d="m10.905 28.423c.084 10.842.13 23.063-.05 34.421-1.556.285-3.431.101-5.291.101-1.847 0-3.815.12-5.443-.151-.237-10.391-.05-21.938-.051-32.354 0-.671-.092-1.871.151-2.066.037-.047.092-.077.151-.101h5.393c1.788-.001 3.583-.1 5.14.15z"/></g></svg>