<svg enable-background="new 0 0 80.137 80.605" viewBox="0 0 80.137 80.605" xmlns="http://www.w3.org/2000/svg"><path clip-rule="evenodd" d="m39.74.033c6.261-.297 12.366 1.44 16.644 3.449 2.386 1.12 4.402 2.171 6.448 3.599.997.696 2.029 1.312 2.849 2.199.763.827 1.67 1.618 2.549 2.449 3.451 3.263 6.182 7.15 8.297 11.796 1.574 3.457 2.719 7.183 3.299 11.796 1.005 7.977-.535 15.663-3.099 21.292-4.136 9.084-10.738 15.982-19.843 20.344-4.506 2.158-10.334 3.648-16.394 3.648-6.519-.001-11.988-1.369-16.645-3.449-4.613-2.06-8.627-4.827-11.945-8.146-3.311-3.311-6.197-7.252-8.247-11.847-2.081-4.664-3.549-9.896-3.648-16.443-.146-9.586 3.082-17.343 7.047-23.092 4.007-5.81 9.354-10.797 16.244-13.895 4.587-2.062 9.793-3.701 16.345-3.699.033-.001.066.001.099-.001zm.101 3.9c-3.475 5.758-7.143 11.438-10.597 17.143-1.159 1.916-2.286 3.872-3.499 5.748-.608.94-1.11 1.939-1.699 2.898-3.528 5.756-7.061 11.509-10.597 17.194-.599.965-1.267 1.924-1.648 2.999 1.603.264 3.482.128 5.298.101 1.858-.029 3.733.159 5.398-.101.285-3.618-.111-7.679.199-11.296 5.863-.162 11.675-.149 17.544-.149 4.43-.001 8.815.084 13.096 0 1.444-.029 2.884-.204 4.299.1.294 3.521-.096 7.726.199 11.246 3.311.165 7.287.166 10.547 0-.165-.753-.64-1.43-1.05-2.1-.413-.675-.92-1.318-1.3-1.999-1.863-3.665-4.28-7.003-6.398-10.497-2.131-3.516-4.349-6.96-6.498-10.446-4.308-6.986-8.595-13.963-12.995-20.893-.033 0-.067 0-.1 0-.014-.117-.133.058-.199.052zm-5.199 46.133c-.539.618-.285 1.702-.3 2.648-.105 6.708.05 14.201.149 21.043 3.414.231 7.61.128 11.246 0 .27-.911.15-1.893.15-2.85 0-7.026.008-13.924-.15-20.792-3.522-.211-7.619-.079-11.095-.049z" fill-rule="evenodd"/></svg>