<svg enable-background="new 0 0 89.612 56.28" viewBox="0 0 89.612 56.28" xmlns="http://www.w3.org/2000/svg"><g clip-rule="evenodd" fill-rule="evenodd"><path d="m31.647.236c.284 1.253.157 2.587.157 3.917v24.074c0 1.224.213 2.933-.052 3.969-.137.535-.648.857-1.044 1.253-.389.389-.692.936-1.201.94-.06-7.738-.3-16.058-.052-23.97.082-2.63.048-5.269-.156-7.728-9.478-.359-19.795.123-29.141-.366-.094-.792-.415-2.168.418-2.298.51-.08 1.219.039 1.828.052 9.64.216 20.09-.123 29.243.157z"/><path d="m66.165.393c.166.531.166 1.662 0 2.193-7.402.2-14.683.059-21.933 0-2.397-.02-4.798-.063-7.154.157-.286 1.192-.104 2.446-.104 3.708 0 8.839-.064 18.872-.104 27.938-.452.1-.87-.504-1.253-.888-.372-.372-.917-.806-1.044-1.253-.134-.47-.045-1.329-.052-2.037-.078-8.368.052-17.363.052-26.215 0-1.262-.127-2.564.157-3.76 8.99-.17 18.644.052 27.677.052 1.266 0 2.536-.1 3.758.105z"/><path d="m.367 4.153c7.896.029 16.116.104 24.126.104 1.065 0 2.139-.127 3.133.105.188 8.937.104 18.748.104 27.886 0 1.375.198 2.849-.052 3.969-.104.464-.444.757-.783 1.096-.298.298-.635.778-1.097.679-.178-10.353.083-21.319-.104-31.593-.955-.29-2.017-.188-3.029-.157-3.185.1-6.424-.052-9.661-.052-4.346-.001-8.713.082-12.794-.157-.114-.495-.376-1.661.157-1.88z"/><path d="m66.113 4.414c.246.43.248 1.391.052 1.828-8.528.313-16.719-.152-25.379.104-.283.559-.208 1.214-.208 1.828-.001 9.876.07 20.55-.105 29.922-.503-.048-.738-.471-1.044-.784-.303-.309-.675-.604-.784-.992-.28-1.003-.052-2.695-.052-4.021 0-8.768.052-17.567.052-26.215 0-.573-.161-1.272.209-1.775 9.109-.13 18.119.044 27.259.105z"/><path d="m.367 7.704c7.747.165 15.812-.109 23.604.209.219 9.676-.003 19.895.052 30.027.004.692.127 1.367 0 1.932-.092.408-.334.648-.627.94-.219.219-.514.645-.888.522-.271-10.272.032-21.437-.157-31.698-.864-.281-1.812-.157-2.715-.157-6.451 0-12.885.029-19.426-.209-.17-.421-.298-1.371.157-1.566z"/><path d="m66.165 8.017c.156.296.175 1.169 0 1.462-7.158.352-14.934-.171-22.089.157-.283 1.247-.157 2.563-.157 3.864 0 9.172.044 18.746-.052 27.886-.412.144-.625-.311-.888-.574-.267-.267-.604-.489-.679-.835-.186-.857 0-2.099 0-3.186 0-9.479-.115-19.36.105-28.826 7.388-.293 16.203-.05 23.76.052z"/><path d="m20.838 10.994c.208 10.434.105 21.493.052 32.064-.203.531-.633 1.103-1.201 1.097-.195-10.933.03-20.966-.157-31.698-1.371-.364-3.077-.208-4.752-.208-4.823 0-10.08.122-14.622-.209-.766-1.703 1.43-1.266 2.82-1.201 5.937.274 12.395-.207 17.86.155z"/><path d="m66.165 11.15c.133.258.161.846 0 1.097-1.376.262-3.006.157-4.752.157-3.268 0-6.547-.052-9.817-.052-1.626 0-3.256-.221-4.752.104-.281 10.596.011 21.14-.157 31.75-.417.062-1.132-.622-1.253-1.044-.127-.441.03-1.215 0-1.932-.299-7.086-.052-14.871-.052-22.246 0-1.862 0-4.012 0-6.11 0-.564-.11-1.705.208-1.828.039-.049.095-.079.157-.104 5.882.043 12.077.052 18.121.052.787 0 1.592-.072 2.297.156z"/><path d="m18.07 13.761c.208 10.469.104 21.562.052 32.168-.297.316-.58.912-1.096.835-.179-10.84.091-21.426-.157-31.698-.583-.335-1.322-.209-1.984-.209-4.261 0-8.514-.052-12.847-.052-.637 0-1.379.138-1.932-.209-.099-.354-.124-1.007.261-1.044 5.956.229 12.046-.152 17.703.209z"/><path d="m48.462 13.709c5.088.058 10.509.052 15.771.052.676 0 1.478-.185 1.984.261.093.212.052.562 0 .783-.54.361-1.28.209-1.932.209-4.82 0-10.079-.037-14.778 0-.269 1.281-.105 2.63-.105 3.969 0 9.424.029 18.497-.104 27.834-1.136-.091-1.148-1.135-1.097-2.507.089-2.37-.052-4.886-.052-7.52 0-6.217 0-12.736 0-19.217 0-1.23-.108-3.042.157-3.76.038-.048.095-.079.156-.104z"/><path d="m.315 15.85c5.075.13 10.49-.08 15.458.157.179 9.418.052 19.637.052 29.609 0 1.203.391 3.137-.94 3.342-.271-10.288.03-21.245-.157-31.802-.721-.309-1.631-.164-2.454-.157-2.939.025-6.38-.072-9.504-.104-.911-.01-1.87.163-2.663-.209-.102-.317-.071-.748.208-.836z"/><path d="m51.7 17.156c-.284 1.249-.157 2.558-.157 3.864 0 9.203.087 18.942-.104 28.042-1.306-.179-.94-1.991-.94-3.238.001-4.325 0-8.537 0-12.846.001-4.84 0-9.812 0-14.883.001-.645-.098-1.821.157-1.984.039-.049.095-.079.157-.104 4.738-.011 9.193.052 14.1.052.803 0 1.508-.029 1.358.679-.14.659-2.627.366-3.447.366-3.646 0-7.797-.049-11.124.052z"/><path d="m13.579 18.096c.444 9.433-.232 19.878.104 29.504.042 1.194.272 3.111-.783 3.447-.233-1.192-.111-2.478-.105-3.708.05-9.362-.006-18.915-.104-28.304-.843-.224-2.054-.21-3.186-.157-2.507.119-5.435-.052-8.199-.052-.436 0-1.173.071-1.253-.366-.064-.353.194-.509.522-.574.995-.198 2.262.052 3.29.052 3.129.001 6.6.023 9.714.158z"/><path d="m53.527 19.14c-.259 1.342-.156 2.87-.156 4.386 0 9.119.098 18.479-.104 27.573-.932-.123-.679-1.29-.679-2.037 0-6.463.059-13.312 0-19.479-.03-3.106.052-6.189.052-9.765 0-.595-.091-1.487.157-1.619.038-.049.095-.079.157-.104 3.494-.063 7.608.06 10.862.052.634-.002 2.461-.379 2.455.418-.006.739-2.067.47-2.924.47-3.338.001-6.97-.107-9.82.105z"/><path d="m11.96 19.767c.157 6.126.104 12.338.104 18.956 0 4.183.014 8.292-.052 12.638-.007.458.053 1.159-.575 1.149-.285-.574-.157-1.277-.157-1.88 0-9.836.043-20.113-.052-29.922-.79-.294-2.252-.198-3.29-.209-1.874-.02-4.053-.052-6.214-.052-.684 0-1.65.121-1.671-.418-.018-.447.479-.422.888-.47.744-.087 1.733.061 2.663.105 2.667.124 5.865-.182 8.356.103z"/><path d="m55.042 20.707c-.284 1.257-.157 2.604-.157 3.917v12.167c0 5.413.06 10.833-.157 15.823-.912-.199-.626-1.905-.626-2.977 0-8.297 0-18.051 0-26.319 0-.624.069-1.251.052-1.88-.015-.55-.123-1.145.157-1.619 2.555-.063 6.505-.086 9.243-.052.744.009 2.575-.082 2.663.366.158.805-1.773.522-2.455.522-2.869-.001-5.998-.044-8.72.052z"/><path d="m.367 21.125c1.667-.018 3.427.052 5.17.052 1.707 0 3.498-.126 5.013.157.093 8.098.052 16.528.052 24.805 0 1.979-.041 3.916-.052 6.005-.003.58.182 1.318-.313 1.723-.459-.452-.261-1.197-.261-1.775 0-9.949.088-20.265-.104-30.184-2.346-.175-5.103-.096-7.676-.209-.668-.029-2.005.319-2.037-.47.076-.027.131-.078.208-.104z"/><path d="m66.217 21.594c-.073.459-.656.307-.992.313-2.728.057-6.207-.125-8.93.104-.19 9.831-.082 20.523-.157 30.34-.004.542.182 1.156-.104 1.619-.704-.184-.47-1.127-.47-1.671 0-9.744 0-19.195 0-29.139 0-.604-.175-1.342.261-1.828 2.561-.009 6.413 0 9.348 0 .341.002.864-.145 1.044.262z"/><path d="m9.401 22.43c.24 8.182.052 16.386.052 24.596v6.058c0 .606.159 1.336-.209 1.88-.366-.392-.209-1.187-.209-1.88 0-9.744.141-20.371-.104-30.184-1.266-.281-2.931-.157-4.491-.157-1.113 0-2.266-.061-3.394-.105-.256-.01-.865.165-.836-.313.042-.027.085-.054.157-.052 2.903-.047 6.154.008 9.034.157z"/><path d="m66.113 22.691c-.444.368-1.328.209-2.089.209-2.146 0-4.771-.063-6.58.052-.281.592-.151 1.307-.156 1.932-.034 4.418 0 9.463 0 14.152 0 5.5.117 10.983-.157 16.084-.468-.226-.313-.854-.313-1.253 0-7.226-.073-14.146 0-21.097.027-2.575 0-5.047 0-7.781 0-.84-.123-1.708.157-2.506 2.338.006 5.592-.173 8.251-.053.256.011.745-.051.887.261z"/><path d="m.837 23.317c.15.006.342-.028.418.053-.026.072-.471.127-.418-.053z"/><path d="m3.866 23.422c-.566.053-1.185-.021-1.932 0-.01-.044.02-.049.052-.052.569-.119 1.344-.033 1.88.052z"/><path d="m8.357 23.422c.184.532.049 1.26 0 1.933-.154-.713.13-1.655-.574-1.88-.781-.004-1.725.098-2.246-.052.762-.084 2.014-.044 2.82-.001z"/><path d="m58.123 23.474c1.668.122 3.572-.121 5.222.105-1.565.191-3.353.007-4.909.104-.092.047-.153.126-.261.157-.266 1.263-.086 2.823-.157 4.178.015.093-.049.107-.052.052-.056-1.358-.117-3.253 0-4.439.03-.075.082-.128.157-.157z"/><path d="m65.852 23.526c-.327.236-.985.115-1.514.104.333-.318.957-.024 1.514-.104z"/><path d="m7.208 24.258c.136-.015.225.019.208.156-.136.015-.224-.018-.208-.156z"/><path d="m59.22 24.362c-.056.205-.205.317-.418.365-.054-.314.116-.406.418-.365z"/><path d="m8.304 28.07c.241.438.037 1.321.104 1.932-.24-.438-.036-1.321-.104-1.932z"/><path d="m57.966 28.383c.139.333.022.602.052 1.044.01.108.002.6-.052.313 0-.191 0-.383 0-.574-.083-.251-.042-.52 0-.783z"/><path d="m57.966 29.897c.121.175.019.574.052.836-.16-.239-.057-.51-.052-.836z"/><path d="m57.966 31.934c.219.769.007 1.71.052 2.715-.167-.655-.119-1.861-.052-2.715z"/><path d="m68.62 34.754c-.992.236-2.293.211-3.499.157-1.208-.055-2.452.014-3.499-.157-.14-.603-.23-1.846.157-2.245 1.173.146 3.479-.391 4.7 0 .451.144.853.749 1.148 1.044.407.406.855.707.993 1.201z"/><path d="m8.304 34.284c.188.032.087.351.052.47-.118-.056-.019-.328-.052-.47z"/><path d="m57.966 35.38c.152.795.051 1.642.052 2.402-.208-.603-.094-1.708-.052-2.402z"/><path d="m8.304 35.433c.17.123.126.69.052.888-.12-.193-.017-.609-.052-.888z"/><path d="m72.223 38.409c-3.277.177-7.271.171-10.549 0-.218-.398-.235-1.382 0-1.775 2.918-.133 5.786-.018 8.826-.052.636.513 1.519 1.055 1.723 1.827z"/><path d="m8.304 37.313c.16.114.181.882 0 .993 0-.331 0-.662 0-.993z"/><path d="m57.966 38.201c.114.044.023.742.052 1.044-.174-.273-.071-.684-.052-1.044z"/><path d="m57.966 40.028c.225 1.152-.04 2.612.052 3.969-.121-1.149-.085-2.705-.052-3.969z"/><path d="m75.565 41.804c-4.438.205-9.495.133-13.891-.052-.181-.38-.278-1.292.104-1.514 4.155-.121 8.154.059 12.376 0 .346.177.668.376.835.731.203.241.701.439.576.835z"/><path d="m78.437 44.572c-1.317.239-2.767.213-4.178.157-3.98-.159-8.463.098-12.585-.157-.141-.255-.242-1.162.157-1.201 5.26-.148 10.51.035 15.458 0 .475.307.979.586 1.148 1.201z"/><path d="m57.966 44.989c.122.662.018 1.549.052 2.298-.219-.561-.085-1.644-.052-2.298z"/><path d="m81.048 47.183c-2.014.284-4.12.157-6.214.157-4.354 0-8.743.046-13.212-.157-.607-1.48 1.225-1.097 2.611-1.097 5.032 0 10.908.107 15.875.052.366.296.851.472.94 1.045z"/><path d="m57.914 47.861c.208.337.104 1.247.052 1.671-.121-.452-.017-1.131-.052-1.671z"/><path d="m83.189 49.428c-5.997.102-12.681.052-19.113.052-.846 0-1.767.158-2.507-.209-.102-.331-.062-.779.261-.835 6.86.034 13.855-.068 20.627.052.263.265.835.482.732.94z"/><path d="m85.226 51.413c-6.68.19-13.939.104-20.94.104-.599 0-2.506.193-2.716-.261-.14-.303.033-.585.366-.679.777-.22 2.089 0 3.133 0 5.879 0 11.884.052 17.859.052.829 0 2.089-.246 2.298.784z"/><path d="m57.914 50.629c.207.38.103 1.309.052 1.776-.121-.488-.017-1.201-.052-1.776z"/><path d="m86.688 52.875c-.254.336-.759.209-1.096.209-7.282 0-14.361-.052-21.515-.052-.865 0-1.822.159-2.507-.209-.008-.235-.012-.464.157-.522 7.32-.119 14.762 0 22.037 0 .977-.001 2.523-.358 2.924.574z"/><path d="m57.914 53.554c.151.135.125.579.052.783-.12-.158-.018-.539-.052-.783z"/><path d="m87.993 54.18c-.398.359-1.007.209-1.514.209-7.84 0-15.795-.052-23.761-.052-.446 0-1.467.074-1.044-.47.039-.049.095-.079.157-.104 7.99.122 16.801-.162 24.962 0 .397.008 1.035-.099 1.2.417z"/><path d="m57.914 54.441c.194.148.112.813.052 1.044-.121-.244-.018-.713-.052-1.044z"/><path d="m61.831 55.016c8.458.163 17.334-.24 25.797.052.476.017 1.076-.163 1.462.209-.414.377-1.068.208-1.566.208-6.407 0-12.762 0-19.27 0-1.768 0-3.569-.078-5.222 0-.422.021-1.15.179-1.41-.313.106-.015.102-.141.209-.156z"/><path d="m89.612 56.165c-6.144.214-12.211.067-18.277.052-3.156-.008-6.302.179-9.4-.104 9.467.022 18.672-.026 27.677.052z"/></g></svg>