<svg enable-background="new 0 0 76.205 73.094" viewBox="0 0 76.205 73.094" xmlns="http://www.w3.org/2000/svg"><path clip-rule="evenodd" d="m73.898 9.749c.973 1.708 1.652 3.502 2.001 5.644.369 2.263.084 4.668.206 7.235.226 4.78-.002 10.204 0 15.034 0 5.101-.052 10.309-.052 15.188 0 1.347.024 2.618-.052 3.797-.212 3.311-1.521 6.121-3.078 8.312-2.105 2.962-4.955 5.437-8.466 6.773-4.572 1.741-11.44 1.283-17.6 1.282-3.745 0-7.526-.005-11.34.051-4.865.072-9.796-.216-14.726 0-5.082.224-9.133-.858-12.263-2.924-2.92-1.928-5.595-4.961-6.978-8.261-.762-1.814-1.345-3.841-1.488-6.157-.145-2.321 0-4.73 0-7.389 0-2.58 0-5.144 0-7.645 0-2.514-.083-4.993 0-7.389.169-4.907-.118-9.886.051-14.777.17-4.896 1.767-8.37 4.003-11.237 2.292-2.94 4.957-5.016 8.928-6.31 1.966-.642 4.17-.863 6.721-.924 4.868-.116 9.616 0 14.572 0 6.855.001 14.322 0 21.088 0 2.563 0 4.655.066 6.568.513 5.52 1.29 9.331 4.696 11.905 9.184zm-60.186.924c-2.188 1.272-4.126 3.696-4.31 6.722-.17 2.806.039 6.349.103 9.748 2.715.252 5.676.123 8.672.154 3.022.031 6.112.061 9.03-.103.274-1.355.154-2.826.154-4.31-.001-3.011 0-6.072 0-9.03-.001-1.502.122-2.992-.154-4.361-4.718-.113-10.436-.599-13.495 1.18zm29.042-1.283c-3.723 0-7.099 0-10.672 0-.709 0-1.571-.132-2.207 0-.599.125-.509.746-.513 1.436-.011 1.936 0 3.511 0 5.182-.002 11.188-.225 23.222-.052 34.224.066 4.205-.256 9.004.103 13.186 1.366.239 2.841.176 4.311.206 2.873.057 5.906-.051 8.876-.051 1.475 0 2.91.162 4.259-.103.211-13.214.206-27.377.205-40.637 0-4.536.138-9.001-.103-13.289-1.376-.276-2.789-.154-4.207-.154zm24.115 13.34c.037-1.564.094-3.155 0-4.669-.173-2.793-1.34-5.127-2.925-6.517-1.077-.944-2.828-1.973-4.771-2.103-2.923-.196-6.924.107-9.749.051-.352.602-.188 1.369-.205 2.052-.119 4.997-.083 10.668.051 15.649 1.329.277 2.784.154 4.259.154h8.928c1.488 0 2.939.098 4.26-.103.168-1.507.117-3.024.152-4.514zm-2.053 22.885c-2.008-.07-4.136-.044-6.259-.051-3.041-.01-6.514-.044-9.288.154-.236 5.677-.227 11.934-.051 17.753 1.368.278 2.904.154 4.412.154 1.575 0 3.183.101 4.618 0 3.609-.253 5.779-2.038 7.389-4.156.273-.893.764-1.723 1.026-2.771.268-1.07.257-2.241.257-3.54 0-2.47.168-5.146-.104-7.389-.619-.286-1.343-.132-2-.154z" fill-rule="evenodd"/></svg>