<svg enable-background="new 0 0 54.633 76.508" viewBox="0 0 54.633 76.508" xmlns="http://www.w3.org/2000/svg"><path clip-rule="evenodd" d="m38.449.143c-.081 1.832-.602 3.639-.964 5.348-.569-.164-.852-.797-1.397-1.156-1.617-1.062-4.262-1.061-5.83.338-1.36 1.213-1.939 3.416-1.205 5.252.6 1.5 2.126 2.869 4.144 2.939 1.272.043 2.061-.502 2.987-.723.085.537-.096 1.217-.289 1.639-2.287.285-4.831-.149-6.89.191-.271 2.945-.104 6.166-.096 9.396.008 3.25-.187 6.566.048 9.733 8.181.385 17.634-.064 25.584.24.131 14.416.141 28.502-.096 43.074-5.723.178-12.096.049-17.924.049-.833 0-1.682.113-2.458-.145-.214-7.631.096-16.062-.096-23.705-.608-.32-1.565-.193-2.458-.193-.91 0-1.848-.072-2.553.096-.391 7.656.085 16.18-.29 23.85-4.67.148-9.541.049-14.406.049-4.783 0-9.618.031-14.262-.193.113-1.629.508-3.223.867-4.818 1.05-4.67 1.983-9.496 2.987-14.26 1.337-6.342 2.67-12.686 4-19.033 2.659-12.701 5.131-25.459 7.998-38.016 7.406-.157 15.15-.103 22.599.048zm-13.973 6.697c1.218-1.883-.227-4.447-2.506-4.336-1.677.082-2.761 1.266-2.65 3.275.385 2.506 3.911 2.985 5.156 1.061z" fill-rule="evenodd"/></svg>