<svg enable-background="new 0 0 78.899 26.444" viewBox="0 0 78.899 26.444" xmlns="http://www.w3.org/2000/svg"><path d="m18.476.139c3.917.001 7.834-.019 11.75.003-1.142.866-1.133 2.523-.473 3.683 1.979 4.894 4.254 9.676 6.297 14.538-1.302 2.697-2.648 5.391-3.977 8.081-2.994-6.787-6.034-13.575-9.144-20.323-1.112-2.138-2.179-4.601-4.384-5.819-.024-.055-.047-.11-.069-.163z"/><path d="m35.842.09c3.69-.083 7.401-.149 11.083-.006-.965.656-1.216 1.95-.947 3.026.428 1.959 1.417 3.724 2.061 5.608 1.289 3.022 2.601 6.051 3.827 9.093-1.141 2.665-2.438 5.266-3.626 7.913-.1.186-.128.466-.343.556-.122-.25-.146-.532-.246-.79-3.23-7.344-6.401-14.713-9.547-22.093-.571-1.214-1.193-2.447-2.262-3.307z"/><path d="m54.939.197c.002-.063.002-.126.001-.188 2.799.099 5.61-.044 8.416.003.137 7.707-.002 15.431.145 23.14.039.912.262 1.849.958 2.489-3.205-.017-6.418.118-9.615-.003 1.642-.918 1.641-3.022 1.649-4.668.068-5.389-.029-10.784-.016-16.177-.086-1.592.032-3.652-1.538-4.596z"/><path d="m.702.142c2.055-.017 4.114-.016 6.168.025-2.827 1.279-5.222 3.418-6.87 6.043.149-2.032.468-4.045.702-6.068z"/><path d="m9.333.142c2.284.005 4.569-.002 6.854.009.011 6.116.026 12.225.058 18.338.005 1.706-.056 3.425.213 5.115.182.864.747 1.645 1.526 2.066.005.031.015.093.021.124-1.75-.009-3.501-.001-5.249.015-.576-.013-1.156-.04-1.731.007-1.159-.067-2.323.012-3.483-.04 1.251-.706 1.767-2.12 1.775-3.492.062-7.38-.031-14.762.016-22.142z"/><path d="m68.253.205c2.661.157 5.499.771 7.54 2.601 1.654 1.463 1.716 4.26.163 5.819-1.915 1.921-4.795 2.127-7.345 2.307 1.643-1.741 1.884-4.297 1.663-6.575-.105-1.52-.657-3.176-2.01-4.025-.004-.032-.009-.095-.011-.127z"/><path d="m68.762 11.916c2.9.313 6.052.707 8.349 2.693 2.117 1.777 2.364 5.166.69 7.315-2.168 2.695-5.838 3.431-9.106 3.66 1.937-1.084 2.617-3.414 2.701-5.494.13-1.848.043-3.742-.499-5.526-.346-1.114-1.12-2.072-2.135-2.648z"/></svg>