<svg enable-background="new 0 0 78.864 55.468" viewBox="0 0 78.864 55.468" xmlns="http://www.w3.org/2000/svg"><g clip-rule="evenodd" fill-rule="evenodd"><path d="m54.17 19.095c-.584.147-.59-.553-.683-.878-.323-1.135-.993-2.306-1.561-3.317-.792-1.412-1.682-2.709-2.635-3.854-4.565-5.341-10.305-9.292-19.172-10.149-4.504-.434-9.007.49-12.49 1.855-1.724.675-3.265 1.608-4.732 2.586-4.347 2.893-7.832 6.834-10.002 11.953-1.466 3.458-2.396 7.544-2 12.44.36 4.449 1.726 8.035 3.513 11.123 1.785 3.085 4.005 5.713 6.781 7.855 3.395 2.682 7.698 4.951 13.123 5.61 2.989.362 6.005.401 8.782 0 5.324-.771 9.681-2.87 13.124-5.562 1.722-1.347 3.208-2.966 4.781-4.538.785-.785 1.61-1.5 2.341-2.341.724-.833 1.571-1.571 2.342-2.343 1.569-1.568 3.136-3.123 4.684-4.634.53-.544.896-1.25 1.707-1.513.298 4.986-.082 10.43.098 15.319.028.768.046 1.617 0 2.634-.019.404.114 2.248-.39 2.244-.531-.004-.342-1.591-.342-2.049-.001-5.357.049-11.144-.049-16.246-.362-.188-.591.254-.78.439-1.479 1.448-2.997 2.996-4.489 4.488-.858.858-1.851 1.603-2.635 2.536-.8.954-1.663 1.731-2.537 2.586-1.799 1.76-3.424 3.444-5.416 4.879-3.91 2.817-9.097 4.737-15.416 5.172-10.209.702-17.271-3.66-22.198-8.587-3.206-3.205-6.19-7.989-7.269-13.318-.618-3.048-.862-6.383-.439-9.465.407-2.965 1.253-5.666 2.342-7.952 2.165-4.549 5.456-8.226 9.514-11.075 3.19-2.239 6.403-3.632 10.879-4.537 1.451-.293 2.956-.358 4.684-.439 3.585-.167 7.2.787 9.904 1.708 2.933.998 5.304 2.527 7.416 4.049 3.21 2.392 5.919 5.554 7.952 9.271.518.945.832 1.997 1.22 3.073.097.271.414.703.048.977z"/><path d="m52.951 19.193c-.565.074-.642-.518-.781-.83-3.675-8.277-10.197-14.346-20.637-16.002-3.638-.577-7.941-.249-11.27.878-3.159 1.07-5.987 2.397-8.342 4.392-5.51 4.667-10.528 11.334-9.758 21.808.14 1.895.472 3.63.976 5.366 1.375 4.74 4.166 8.749 7.416 11.758 1.028.952 2.345 2.006 3.561 2.781 2.451 1.562 5.672 2.993 9.172 3.562 3.635.591 7.899.612 11.611-.244 3.514-.811 6.323-2.179 8.928-3.806 2.635-1.645 4.49-3.909 6.732-6 4.139-3.86 7.833-8.059 12.002-11.904.235-.218.483-.64.878-.586.119 6.679.049 13.626.049 20.687 0 .602.203 2.56-.391 2.585-.617.026-.444-1.856-.438-2.293.074-5.989.059-13.125-.049-19.075-.618.083-.979.687-1.366 1.073-2.923 2.922-5.899 5.899-8.879 8.879-1.698 1.698-3.383 3.394-5.122 5.025-1.734 1.627-3.825 2.966-6.05 4.049-4.493 2.189-10.74 3.484-16.978 2.586-5.872-.845-10.162-3.252-13.807-6.439-3.496-3.058-6.536-7.246-8.001-12.295-.785-2.704-1.321-5.901-1.073-8.976.251-3.116.837-5.714 1.854-8.245 1.872-4.664 4.936-8.51 8.879-11.367 1.993-1.444 3.976-2.677 6.537-3.61 2.5-.911 5.173-1.457 8.489-1.61 3.43-.159 7.076.6 9.611 1.464 2.845.97 5.1 2.27 7.221 3.757 1.031.723 2.102 1.602 2.976 2.536 2.246 2.4 4.134 4.824 5.611 8.1.265.584.713 1.323.439 1.996z"/><path d="m51.584 19.144c-.886.084-.826-1.186-1.268-1.707-.979-2.096-2.224-3.924-3.659-5.562-3.658-3.954-8.323-7.133-14.831-8.196-5.328-.87-10.683.23-14.538 2.049-2.618 1.235-4.779 2.876-6.684 4.781-4.481 4.483-8.446 11.686-6.879 21.174.511 3.092 1.71 5.973 3.122 8.343 2.717 4.562 7.095 8.529 12.49 10.489 1.456.528 2.947.97 4.537 1.22 1.718.27 3.432.292 5.367.292 3.678.001 6.724-.815 9.513-1.951 5.383-2.189 9.058-6.178 12.929-10.05 3.365-3.366 6.672-6.721 10.051-10.099.466-.467 1.081-.862 1.316-1.513-.948-.282-1.996-.144-2.976-.098-1.021.048-2.071.009-3.074 0-5.184-.049-11.117-.016-17.027-.049-.377-.002-1.125.05-1.122-.439.004-.689 2.247-.438 2.927-.438 7.633-.001 15.31-.017 22.93.146.128 8.191.142 16.636.098 24.783-.002.404.06 1.272-.391 1.268-.438-.003-.341-.964-.341-1.22 0-7.705.076-15.661-.098-23.223-.623.067-.972.693-1.366 1.073-2.904 2.798-5.818 5.84-8.782 8.636-1.219 1.712-2.96 2.901-4.342 4.391-2.769 2.984-5.917 5.715-10.001 7.416-2.04.85-4.312 1.526-6.782 1.902-11.592 1.768-19.896-3.451-24.735-9.513-2.577-3.229-4.423-7.331-5.123-12.295-1.185-8.414 2.222-15.384 6.149-19.611.706-.762 1.386-1.495 2.146-2.195 3.64-3.358 8.784-5.984 15.465-6.294 6.935-.321 12.204 1.986 16.198 4.733 3.613 2.484 6.382 5.735 8.342 9.904.248.526.767 1.222.439 1.853z"/><path d="m50.219 19.144c-.84-.035-.965-.996-1.22-1.513-2.688-5.441-7.5-9.578-13.612-11.709-1.43-.498-2.93-.742-4.586-1.024-3.238-.551-7.015-.02-9.953.878-2.69.823-5.366 2.131-7.318 3.952-1.003.935-2.067 1.69-2.927 2.684-2.57 2.967-4.681 6.528-5.562 11.269-.59 3.174-.34 6.982.537 10.099 1.197 4.254 3.505 7.797 6.392 10.489.978.914 1.944 1.841 3.024 2.586 4.246 2.931 11.078 4.899 18.051 3.562 6.538-1.254 10.543-4.151 14.441-8.05.917-.917 1.888-1.84 2.83-2.781 2.79-2.789 5.542-5.667 8.391-8.439.379-.564 1.111-.776 1.317-1.513-.79-.261-1.702-.146-2.586-.146-5.75 0-11.921.198-17.563-.049-.351-.016-.979.03-1.025-.293-.095-.679 2.015-.438 2.586-.438 5.975 0 11.727.047 17.808.049.933 0 1.866-.129 2.683.097-.123.592-.675.939-1.073 1.317-1.173 1.114-2.361 2.31-3.512 3.514-2.63 2.379-5.012 5.116-7.66 7.659-2.577 2.474-5.083 5.251-8.343 6.977-3.442 1.822-7.163 3.035-12.05 3.268-4.867.233-9.022-.914-12.441-2.732-3.219-1.712-6.125-4.152-8.245-7.073-2.187-3.015-3.848-6.517-4.44-10.831-.692-5.048.29-9.577 1.854-13.075 1.583-3.544 3.911-6.256 6.732-8.538 3.312-2.837 7.722-5.089 13.368-5.415 6.536-.378 11.518 1.581 15.612 4.244 3.426 2.229 6.154 5.436 8.05 9.27.249.499.77 1.107.44 1.705z"/><path d="m48.755 19.095c-.806-.012-.917-.938-1.17-1.415-2.083-3.902-5.254-7.08-9.318-9.123-2.353-1.183-4.992-2.143-8.099-2.488-3.136-.349-6.552.174-9.27 1.073-5.192 1.719-8.991 5.016-11.757 9.367-2.607 4.102-4.111 10.799-2.293 17.125 1.49 5.184 4.854 9.486 8.928 12.196 4.117 2.738 10.253 4.532 17.076 3.366 6.135-1.048 9.852-4.044 13.611-7.513 1.827-1.686 3.528-3.528 5.269-5.27.435-.435.899-.866 1.317-1.317.425-.458.779-.985 1.22-1.414.892-.871 1.977-1.568 2.585-2.684-.684-.263-1.448-.146-2.195-.146-4.569 0-9.101-.05-13.904-.049-.644 0-1.614.255-1.903-.391.066-.773 1.386-.487 2.147-.487 5.87 0 12.543-.063 17.807.098.096.604-.59.838-.878 1.22-2.644 2.315-4.924 5.055-7.513 7.513-2.57 2.439-4.892 5.16-7.855 7.172-2.977 2.021-6.471 3.542-10.831 4.195-4.734.71-9.648-.306-12.929-1.756-3.422-1.513-6.143-3.83-8.44-6.586-1.114-1.338-2.16-2.886-2.927-4.587-.765-1.697-1.507-3.669-1.805-5.708-1.452-9.949 2.718-16.937 8.05-21.271 3.259-2.59 7.281-4.656 12.636-5.024 3.038-.209 5.809.3 8.196.976 6.249 1.77 11.09 6.035 13.855 11.367.228.44.628 1.041.39 1.561z"/><path d="m76.759 14.558c1.208 1 2.198 2.252 2.098 4.146-.136 2.558-2.328 4.74-5.27 4.441-1.523-.156-3.258-1.356-3.756-2.684-1.2-3.197.814-6.468 4.195-6.635 1.186-.059 1.874.371 2.733.732zm-5.367 1.22c-.552.537-1.136 1.332-1.171 2.585-.068 2.5 2.111 4.158 4.392 3.903 1.811-.202 3.42-1.632 3.415-3.806-.006-2.288-1.932-4.023-4.245-3.756-1.025.118-1.859.556-2.391 1.074z"/><path d="m73.978 15.192c2.146-.148 4.315 2.008 3.269 4.537-.569 1.377-2.308 2.509-4.146 1.952-1.478-.448-3.034-2.419-2-4.587.359-.756 1.349-1.796 2.877-1.902zm2.488 4.196c.709-1.771-.77-3.479-2.586-3.317-.95.084-1.819.817-2.098 1.512-.632 1.576.452 2.893 1.756 3.317 1.566.109 2.542-.549 2.928-1.512z"/><path d="m73.88 16.607c2.29-.413 2.771 2.766 1.171 3.562-1.611.802-3.328-.794-2.684-2.44.216-.55.727-.934 1.513-1.122zm.293 2.927c1.368-.037 1.401-2.456-.293-2.048-1.356.272-.919 2.082.293 2.048z"/><path d="m74.514 18.314c.072.638-.662.606-.731.195-.068-.402.505-.648.731-.195z"/><path d="m67.245 24.95c.199 4.482.098 9.405.098 14.344v12.83c0 .478.194 1.218-.342 1.464-.413-.397-.244-1.09-.244-1.658 0-8.608.027-17.481-.049-26.199-1.097-.265-2.263-.145-3.415-.145-7.63 0-15.51-.05-22.93-.049-.497 0-1.133.166-1.513-.245-.011-.413.272-.443.537-.487.795-.133 1.782 0 2.684 0 .914 0 1.846.044 2.634.049 7.297.04 15.475-.143 22.54.096z"/><path d="m66.075 26.218c.277 6.708-.202 14.12.049 20.832.062 1.664.048 3.349 0 5.073-.014.476.092 1.092-.293 1.464-.609-.127-.391-.936-.391-1.366.001-8.377.049-17.064-.049-25.125-1.006-.342-2.13-.055-3.269-.098-3.267-.122-6.619.041-9.953-.049-3.699-.099-8.035.001-11.953 0-.561 0-1.296.035-1.366-.342-.072-.392.232-.485.537-.536 1.02-.171 2.275 0 3.415 0 5.324 0 11.012.048 16.733.049 2.212.001 4.409-.136 6.54.098z"/></g></svg>