<svg enable-background="new 0 0 25.232 25.232" viewBox="0 0 25.232 25.232" xmlns="http://www.w3.org/2000/svg"><path d="m12.616 0c-.149 0-.298.004-.446.011-.034.001-.069.001-.103.003-6.703.289-12.067 5.83-12.067 12.602 0 6.957 5.659 12.616 12.616 12.616h12.616v-1.917h-12.616c-5.899 0-10.699-4.799-10.699-10.699 0-.14.005-.279.011-.419.305 2.344 1.365 4.51 3.064 6.209 2.037 2.037 4.744 3.158 7.625 3.158h12.616v-1.917h-12.617c-2.368 0-4.594-.922-6.269-2.597-1.674-1.674-2.597-3.901-2.597-6.269 0-.167.006-.333.015-.499.28 1.883 1.151 3.622 2.522 4.993 1.691 1.69 3.938 2.621 6.328 2.621h12.616v-1.916h-12.615c-1.878 0-3.644-.731-4.972-2.059s-2.06-3.094-2.06-4.972c0-.198.01-.395.026-.591.25 1.427.928 2.742 1.974 3.788 1.344 1.344 3.131 2.084 5.031 2.084h12.616v-1.917h-12.615c-1.388 0-2.694-.541-3.675-1.522-.982-.982-1.523-2.288-1.523-3.676 0-.227.02-.452.048-.673.216.967.697 1.856 1.415 2.574.997.997 2.324 1.547 3.734 1.547h12.616v-6.24h-9.624v1.917h7.707v2.405h-10.698c-.899 0-1.743-.35-2.379-.985-.635-.636-.985-1.48-.985-2.379s.35-1.743.985-2.379c.635-.635 1.48-.985 2.379-.985h12.616v-1.917z" fill="#010101"/></svg>