<svg enable-background="new 0 0 76.548 67.681" viewBox="0 0 76.548 67.681" xmlns="http://www.w3.org/2000/svg"><g clip-rule="evenodd" fill-rule="evenodd"><path d="m52.218 20.505c.455.586 1.315.685 2.007 1.004 1.909.873 3.715 2.285 4.541 4.35.696 1.738.675 4.416-.191 5.975-1.031 1.855-2.719 3.06-4.828 3.871-1.27.488-2.606.891-4.207.908-3.006.033-5.804-.871-8.03-2.15-4.142-2.379-7.114-6.918-7.696-12.715-.646-6.424 2.019-11.725 5.114-15.105 3.325-3.629 7.51-6.148 14.005-6.596 2.671-.184 5.365.209 7.648.717 6.258 1.395 10.743 4.475 14.818 8.223.366.336.888.852.908 1.147.034.508-.643 1.039-.908 1.387-.39.508-.644.922-.956 1.289-.955 1.279-1.926 2.572-2.916 3.824-.996 1.262-1.851 2.631-3.011 3.729-5.254.13-10.858-.089-16.298.142z"/><path d="m76.548 54.73c-.125.684-.702 1.156-1.1 1.672-2.036 2.644-4.082 5.43-6.214 8.078-.841 1.047-1.603 2.191-2.581 3.107-21.979-.016-44.625.25-66.489-.047-.296-13.941-.091-28.619-.144-42.447 3.767-4.986 7.931-9.758 11.854-14.723 1.355-1.715 2.534-3.59 4.062-5.066h.096c-.723 1.736-1.588 3.316-2.199 5.162-1.161 3.51-1.828 8.352-1.386 13.049.207 2.205.537 4.354 1.051 6.264 2.005 7.443 6.198 13.674 11.663 17.732 5.692 4.227 12.467 7.121 22.275 7.123 9.35.002 19.592.031 29.112.096z"/></g></svg>