<svg enable-background="new 0 0 15.601 15.452" viewBox="0 0 15.601 15.452" xmlns="http://www.w3.org/2000/svg"><path d="m5.853.151c.217-.061.439-.103.66-.151-.007 3.497-.001 6.995-.003 10.492.004 1.651-.008 3.303.006 4.953-1.462-.246-2.85-.921-3.943-1.923-.325-.266-.597-.588-.861-.911-1.219-1.509-1.837-3.486-1.691-5.42.071-1.156.414-2.291.983-3.299 1.023-1.833 2.814-3.22 4.849-3.741z"/><path d="m9.2.002c.956.174 1.882.517 2.717 1.016.489.291.935.646 1.356 1.027 1.208 1.151 2.03 2.691 2.327 4.333-2.134-.005-4.268-.005-6.402 0 .01-2.126.006-4.251.002-6.376z"/><path d="m9.2 9.05c2.134.003 4.268.007 6.401-.002-.271 1.564-1.022 3.049-2.148 4.17-1.133 1.171-2.652 1.947-4.253 2.234.005-2.134.007-4.268 0-6.402z"/></svg>