<svg enable-background="new 0 0 68.824 78.843" viewBox="0 0 68.824 78.843" xmlns="http://www.w3.org/2000/svg"><g clip-rule="evenodd" fill-rule="evenodd"><path d="m32.153.266c-.431.838-1.248 1.35-1.887 1.986-1.891 1.891-3.837 3.84-5.812 5.713-.664.631-1.237 1.338-1.887 1.986-7 7-14.333 13.855-21.407 20.861-.376.207-.591.826-1.043.795-.181-7.717-.101-15.998-.1-23.941 0-1.953.049-3.795.05-5.861 0-.572-.147-1.266.198-1.787 7.963-.074 16.043.1 23.99.1 2.647 0 5.298-.121 7.898.148z"/><path d="m36.922.167c9.313-.004 18.604.098 27.963.1 1.294 0 2.586-.119 3.825.148.22 10.502.064 20.943 0 31.49-.483.072-.806-.465-1.093-.744-2.295-2.23-4.656-4.74-6.954-7.004-6.709-6.586-13.386-13.203-20.016-19.867-.954-.846-1.997-1.896-3.03-2.93-.294-.295-.953-.769-.845-1.094.038-.044.091-.074.15-.099z"/><path d="m39.603 26.938c-.653 1.006-1.584 1.768-2.384 2.633-.788.854-1.593 1.734-2.533 2.434-.936-.711-1.763-1.609-2.582-2.484-.408-.434-.828-.861-1.242-1.291-.396-.41-.959-.795-1.043-1.391 1.329-.088 3.311-.049 5.066-.049 1.687 0 3.378-.115 4.718.148z"/><path d="m34.438 36.128h.1c.235 5.549.104 11.207 0 16.687-.014.695.1 1.486.099 2.285 0 1.572.001 3.105 0 4.768 0 .783.111 1.645-.049 2.285-.183.727-1.358 1.656-1.938 2.236-2.818 2.816-5.431 5.594-8.245 8.244-.721.678-1.294 1.443-1.986 2.135-1.039 1.041-2.082 2.033-3.129 3.08-.31.311-.573.828-1.093.844-.16-7.25-.05-15.065-.05-22.846 0-1.068-.2-2.445.05-3.23.202-.635 1.438-1.537 1.986-2.086 2.034-2.033 4.045-4.293 5.96-6.207 2.781-2.781 5.372-5.434 8.146-8.096.037-.046.091-.076.149-.099z"/><path d="m68.412 36.276c.435-.129.298.955.298 1.441.001 7.896-.07 15.812-.05 23.096.001.57.114 1.191 0 1.588-.155.541-1.538 1.715-1.986 2.137-.697.654-1.407 1.363-2.037 2.086-3.57 4.092-7.45 7.549-11.274 11.373-.305.305-.58.826-1.093.846-.219-7.658-.049-14.748-.05-22.301 0-1.203-.205-2.594 0-3.627.14-.703 1.363-1.562 1.937-2.135 2.031-2.031 4.133-4.232 6.059-6.16 1.346-1.344 2.856-2.621 4.073-4.072 1.297-1.545 2.707-2.903 4.123-4.272z"/></g></svg>