<svg enable-background="new 0 0 43.281 43.723" viewBox="0 0 43.281 43.723" xmlns="http://www.w3.org/2000/svg"><path d="m20.636.057c3.151-.319 6.4.709 8.831 2.731.123.107.282.152.443.166 2.456.292 4.831 1.345 6.647 3.032 2.193 1.977 3.609 4.779 3.937 7.711.021.568.507.929.774 1.387 1.265 1.984 1.93 4.333 2.013 6.678-.063 2.868-.886 5.798-2.738 8.035-.285 1.857-.765 3.734-1.789 5.34-1.835 3.126-5.168 5.316-8.767 5.756-.621.014-1.009.559-1.516.838-.614.467-1.356.694-2.042 1.026-2.879 1.248-6.247 1.286-9.157.113-.898-.397-1.834-.742-2.608-1.364-.294-.193-.534-.508-.9-.556-3.162-.338-6.178-1.967-8.18-4.439-1.378-1.648-2.222-3.701-2.589-5.807-.073-.343-.019-.734-.236-1.027-1.682-2.04-2.612-4.651-2.757-7.281-.072-2.892.828-5.838 2.661-8.097.207-.23.216-.548.259-.836.354-2.85 1.775-5.538 3.896-7.467 1.766-1.606 4.014-2.676 6.379-3.015.352-.068.757-.041 1.04-.301 1.808-1.485 4.07-2.404 6.399-2.623zm-5.094 2.781c2.208.144 4.38.84 6.211 2.09 1.832-1.274 4.033-1.927 6.246-2.086-3.632-2.558-8.82-2.544-12.457-.004zm-1.436 1.147c-1.618 1.539-2.773 3.569-3.272 5.744 2.158-.191 4.349.128 6.332 1.01.749-2.049 2.124-3.813 3.758-5.235-1.681-1.141-3.722-1.684-5.74-1.745-.366.015-.805-.081-1.078.226zm8.435 1.518c1.664 1.391 2.99 3.196 3.74 5.236 2.009-.901 4.239-1.179 6.422-1-.402-2.035-1.481-3.898-2.896-5.398-.238-.218-.446-.551-.803-.556-2.263-.095-4.552.492-6.463 1.718zm-18.614 7.405c1.658-1.532 3.742-2.564 5.947-3.029.426-2.18 1.487-4.19 2.919-5.875-4.401.766-8.107 4.506-8.866 8.904zm26.877-8.831c1.45 1.642 2.431 3.667 2.868 5.81 2.13.53 4.165 1.533 5.782 3.042-.743-4.308-4.303-8.102-8.65-8.852zm-12.82 7.087c1.435.802 2.713 1.886 3.729 3.18 1.039-1.286 2.329-2.358 3.749-3.2-.693-2.014-2.016-3.775-3.7-5.069-1.717 1.271-3.077 3.066-3.778 5.089zm-7.341-.445c-.31 2.118.02 4.305.878 6.262 1.597-.379 3.247-.598 4.887-.396-.104-1.66-.032-3.342.45-4.944-1.916-.925-4.115-1.23-6.215-.922zm15.938.912c.496 1.599.554 3.291.443 4.952 1.662-.205 3.36-.014 4.963.456.887-1.959 1.212-4.166.901-6.294-2.127-.343-4.354-.017-6.307.886zm-22.432 2.346c-.164.199-.403.376-.439.649-.139 2.237.454 4.512 1.681 6.389.132.023.199-.115.283-.19 1.281-1.623 3.114-2.707 4.984-3.524-.824-2.026-1.219-4.249-.945-6.43-2.105.468-4.059 1.565-5.564 3.106zm29.667-3.041c.284 2.177-.148 4.388-.965 6.409 1.977.807 3.81 2.05 5.117 3.757 1.306-1.919 1.819-4.297 1.721-6.597-1.524-1.753-3.583-3.098-5.873-3.569zm-16.136 1.132c-.429 1.508-.552 3.116-.303 4.667.328.079.688.122.958.345.433.357.462 1.092.06 1.484-.354.388-1.023.39-1.399.034-.294-.264-.338-.682-.432-1.043-1.515-.204-3.09-.146-4.556.306.703 1.358 1.831 2.454 2.991 3.426.361-.204.731-.552 1.179-.439.562.087.978.719.783 1.265-.111.608-.885.972-1.418.644-.23-.072-.475-.381-.71-.181-1.191.91-2.149 2.102-2.879 3.407 1.461.465 3.034.535 4.548.328.236-1.024.747-1.953 1.103-2.937 1.17-2.758 2.294-5.548 3.52-8.274-.899-1.246-2.096-2.291-3.445-3.032zm4.652 3.041c1.536 3.421 2.915 6.925 4.349 10.396.091.264.157.536.225.81 1.543.247 3.137.121 4.64-.297-.698-1.414-1.785-2.622-3.03-3.58-.437.328-1.052.656-1.562.277-.663-.389-.565-1.486.134-1.778.505-.295 1.024.094 1.447.354 1.18-.951 2.294-2.062 2.994-3.422-1.43-.435-2.948-.503-4.428-.366-.366.005-.294.459-.412.702-.142.575-.834.892-1.368.65-.626-.226-.836-1.127-.408-1.626.268-.362.753-.402 1.156-.504.199-1.543.158-3.144-.304-4.638-1.366.699-2.539 1.788-3.433 3.022zm-19.494 13.087c.107-2.053.681-4.084 1.738-5.852.109-.201.314-.445.133-.666-1.119-1.792-1.785-3.844-1.944-5.95-2.485 3.654-2.496 8.854.073 12.468zm37.764-12.464c-.17 2.016-.694 4.03-1.785 5.751-.104.189-.327.413-.157.631 1.141 1.827 1.772 3.953 1.879 6.101 2.48-3.648 2.501-8.804.063-12.483zm-18.971.208c-.28.039-.26.594.066.549.42.049.366-.698-.066-.549zm-.445 1.255c-.602 1.383-1.204 2.766-1.76 4.169 1.535.016 3.071.011 4.607.004-.533-1.414-1.187-2.778-1.783-4.165-.355.009-.71.04-1.064-.008zm-3.781.471c-.005.132-.01.264-.011.4.417.244.769-.227.375-.533-.122.04-.244.085-.364.133zm7.999.452c.196.002.392.005.589.009-.035-.19.049-.532-.246-.492-.314-.09-.305.273-.343.483zm-16.673 1.17c-1.074.679-1.978 1.602-2.754 2.6 1.264 1.74 3.07 3.07 5.078 3.828.8-1.475 1.888-2.779 3.168-3.86-1.223-1.068-2.298-2.309-3.131-3.703-.831.282-1.585.735-2.361 1.135zm20.579 2.58c1.284 1.076 2.341 2.396 3.18 3.842 1.886-.743 3.578-1.979 4.8-3.601.058-.087.116-.203.051-.299-1.173-1.725-2.973-2.919-4.909-3.635-.793 1.415-1.908 2.629-3.122 3.693zm-13.543-.248c-.144.263-.004.45.229.589.112-.108.224-.216.334-.325-.035-.068-.105-.204-.139-.272-.143-.001-.285.002-.424.008zm11.45.246c-.03.314.357.303.564.218-.003-.158-.006-.314-.011-.468-.206-.001-.574-.066-.553.25zm-8.18.49c-.4.828-.754 1.682-1.055 2.552.587.244.892.941.609 1.525-.229.492-.802.582-1.274.693-.236 1.559-.095 3.159.309 4.679 1.375-.743 2.609-1.804 3.496-3.091-.152-.357-.458-.669-.413-1.083-.054-.603.573-1.138 1.16-1.018.478.073.885.526.866 1.018.016.415-.28.746-.472 1.089.972 1.227 2.127 2.371 3.536 3.085.437-1.506.54-3.101.333-4.655-.442-.124-1.005-.193-1.214-.667-.32-.569.053-1.179.534-1.498-.284-.906-.7-1.772-1.05-2.656-1.387-.004-2.776-.097-4.163-.014-.398.036-.827-.128-1.202.041zm-13.619.38c-1.279 1.98-1.795 4.392-1.656 6.731 1.565 1.731 3.653 3.018 5.947 3.495-.281-2.175.099-4.398.932-6.419-2.034-.792-3.838-2.124-5.223-3.807zm27.459 3.8c.819 2.024 1.196 4.238.935 6.414 2.232-.491 4.29-1.754 5.772-3.486.226-2.326-.375-4.723-1.618-6.701-1.353 1.655-3.084 3.004-5.089 3.773zm-15.483-.778c-.001.132 0 .265.002.401.217.111.616.116.553-.231.016-.327-.36-.253-.555-.17zm8.081.397c.193.131.408.191.612.045-.015-.146-.029-.288-.043-.43-.316-.067-.566.031-.569.385zm-14.841 6.996c2.081.307 4.25-.007 6.157-.897-.437-1.618-.563-3.299-.447-4.969-1.612.134-3.251.032-4.805-.439-.945 1.946-1.185 4.174-.905 6.305zm16.415-5.847c.236 1.667-.039 3.344-.397 4.971 1.931.885 4.106 1.18 6.206.892.313-2.125.051-4.361-.862-6.313-1.602.484-3.286.611-4.947.45zm-5.609.109c-.013.227.013.584.338.529.273-.07.218-.35.153-.551-.165.003-.328.01-.491.022zm-3.515 5.318c.741 2.012 2.067 3.793 3.775 5.089 1.747-1.252 3.088-3.073 3.779-5.106-1.457-.81-2.712-1.933-3.795-3.191-1.015 1.316-2.328 2.375-3.759 3.208zm-13.921-1.709c.741 4.358 4.445 8.067 8.803 8.797-1.411-1.61-2.471-3.553-2.892-5.661-.015-.255-.306-.257-.489-.312-2.015-.448-3.889-1.451-5.422-2.824zm29.66 2.916c-.489 2.164-1.451 4.218-2.94 5.876 4.313-.783 7.926-4.483 8.644-8.799-1.588 1.469-3.581 2.497-5.704 2.923zm-22.81.21c.411 2.089 1.567 3.995 3.054 5.5.208.194.409.47.726.459 2.201.032 4.426-.535 6.286-1.729-1.692-1.387-3.039-3.19-3.816-5.24-1.957.87-4.121 1.173-6.25 1.01zm15.351-.73c-.822 1.907-2.036 3.691-3.704 4.955 1.924 1.206 4.223 1.851 6.497 1.685.21.015.353-.158.495-.285 1.562-1.543 2.736-3.516 3.187-5.676-2.111.273-4.28-.077-6.241-.89-.144-.099-.181.128-.234.211zm-4.757 5.71c-1.751 1.12-3.796 1.775-5.873 1.861.604.481 1.315.803 2.021 1.107 2.238.726 4.686 1.001 6.978.339 1.188-.185 2.273-.746 3.275-1.388-2.035-.199-4.061-.755-5.787-1.881-.182-.147-.427-.207-.614-.038z"/></svg>