<svg enable-background="new 0 0 76.521 60.27" viewBox="0 0 76.521 60.27" xmlns="http://www.w3.org/2000/svg"><path clip-rule="evenodd" d="m37.445.148c.161 4.553.225 9.219.048 13.874-3.566.286-6.954-.142-10.006.338-2.822.444-5.355 1.559-7.251 3.045-3.77 2.957-6.702 7.51-6.042 14.357.591 6.133 3.817 9.98 8.314 12.327 2.301 1.201 4.947 1.934 8.363 1.934 3.256 0 6.733.062 10.151-.048.261-.639.145-1.42.145-2.175 0-2.083.08-4.588-.097-6.719-.822-.256-1.739-.145-2.61-.145-6.045 0-12.773.097-18.611-.097-.187-4.418-.148-9.378 0-14.067 7.003-.262 14.329.034 21.173-.193.244-1.728.145-3.583.145-5.462 0-5.515-.179-11.501.048-16.967 4.444-.166 9.513-.15 13.874 0 .259.874.145 1.841.146 2.755 0 6.481 0 13.202.145 19.771.812.253 1.716.149 2.562.144 5.674-.031 12.451-.059 18.417.049.236 2.064.145 4.494.145 6.864.001 2.398.04 4.818-.048 7.058-.81.255-1.702.145-2.562.145-2.596 0-5.299 0-7.976 0-3.571 0-7.172-.112-10.49.145-.256.912-.146 1.889-.146 2.852 0 6.794.112 13.606-.096 20.158-2.201.37-4.454.003-6.671.097-4.458.188-9.02 0-13.632 0-2.318 0-4.637.104-6.913-.048-9.476-.634-16.117-4.952-20.835-10.441-.278-.324-.581-.575-.822-.918-.228-.327-.373-.743-.628-1.112-.949-1.368-1.898-2.765-2.659-4.302-1.561-3.157-2.682-6.807-2.949-10.925-.609-9.413 2.443-15.953 6.381-21.318 1.345-1.752 2.953-3.244 4.641-4.641 3.389-2.805 7.513-4.874 12.665-5.898 1.3-.258 2.665-.478 4.109-.532 3.121-.119 6.569-.013 9.572.095z" fill-rule="evenodd"/></svg>