<svg enable-background="new 0 0 30.456 30.801" viewBox="0 0 30.456 30.801" xmlns="http://www.w3.org/2000/svg"><path d="m28.459.015c.561-.009 1.123-.011 1.685-.015.13 10.148.261 20.298.311 30.449-8.872.094-17.747.205-26.618.278-.092-8.951-.18-17.902-.275-26.852 1.782-.007 3.562-.067 5.344-.064.095 7.778.183 15.554.238 23.332-.588-.004-1.176.017-1.765.011-.039-7.173-.126-14.343-.207-21.512-.608-.005-1.216.008-1.824.013.1 7.752.167 15.504.238 23.256 7.713-.088 15.427-.147 23.141-.254-.038-9.549-.216-19.093-.268-28.642z"/><path d="m0 .312c8.874-.125 17.749-.182 26.623-.3.072 8.959.222 17.919.254 26.876-1.721.09-3.532.071-5.285.067-.062-7.759-.166-15.518-.233-23.277.592-.014 1.186-.085 1.777-.011.083 7.166.127 14.334.246 21.499.576-.015 1.151-.007 1.727-.022-.063-7.768-.147-15.537-.25-23.305-7.692.083-15.383.146-23.073.26.114 9.553.196 19.109.3 28.663-.592-.01-1.182.038-1.773.039-.117-10.163-.195-20.325-.313-30.489z"/><path d="m17.798 3.741c.593-.006 1.188-.077 1.781-.014.029 3.548.069 7.096.108 10.643-2.953.071-5.909.062-8.863.109-.001-3.551-.109-7.101-.09-10.652.579-.01 1.158-.006 1.737-.019.065 2.941.051 5.894.123 8.839 1.761.005 3.52-.037 5.28-.057-.001-2.951-.075-5.899-.076-8.849z"/><path d="m10.863 16.401c2.947-.007 5.892-.087 8.84-.079.048 3.56.086 7.126.085 10.685-.585.006-1.169 0-1.753.01-.059-2.956-.027-5.915-.107-8.871-1.758-.005-3.52.039-5.279.037-.025 2.98.096 5.957.063 8.937-.588.001-1.175.008-1.763.008.003-3.576-.088-7.15-.086-10.727z"/></svg>