<svg enable-background="new 0 0 87.112 26.492" viewBox="0 0 87.112 26.492" xmlns="http://www.w3.org/2000/svg"><g clip-rule="evenodd" fill-rule="evenodd"><path d="m30.374.072c4.528-.06 9.455-.07 13.871.156.17.904.17 2.472 0 3.377-1.93.312-4.6-.055-6.754.156-.371 1.416-.195 2.947-.155 4.468.113 4.361-.234 9.394 0 14.183.855.41 2.155.26 3.377.26 1.251 0 2.514-.092 3.481.156.171.915.171 2.514 0 3.429-1.419.279-2.947.156-4.468.156-4.48 0-9.078-.111-13.456-.207-.256-.856-.249-2.676 0-3.533 2.009-.359 4.709.253 6.65-.208.111-5.861.289-12.409 0-18.183-.464.252-.617.82-.831 1.246-.677 1.347-1.268 2.801-1.922 4.208-.868 1.864-1.725 3.737-2.598 5.611-1.312 2.816-2.601 5.631-3.896 8.416-.425.914-.716 1.938-1.402 2.702-.486-.254-.583-.859-.779-1.299-1.447-3.239-3.16-6.519-4.676-9.767-1.531-3.281-3.043-6.572-4.676-9.818-.207-.414-.417-.938-.831-1.195-.28 1.394-.156 2.911-.156 4.416 0 4.457-.043 9.204.052 13.611.911.364 2.252.208 3.481.208 1.246 0 2.513-.084 3.533.104.171.932.171 2.549 0 3.481-5.761.172-12.264.173-18.079 0-.171-.932-.171-2.549 0-3.481 2.088-.344 4.699.156 6.702-.26.184-6.152.15-12.621.052-18.65-.489-.27-1.145-.156-1.714-.156-.607 0-1.197-.034-1.767-.052-1.105-.037-2.277.217-3.275-.106-.118-.887-.283-2.657.104-3.377 4.127-.206 9.308-.105 13.559-.052.894 1.32 1.436 2.833 2.13 4.312 1.697 3.613 3.412 7.187 5.144 10.962.212.462.736 2.077 1.143 2.078.364 0 1.01-1.777 1.143-2.078.996-2.254 1.998-4.333 2.961-6.598.642-1.507 1.306-2.982 1.975-4.416.674-1.451 1.227-2.944 2.077-4.26z"/><path d="m84.403 13.215c.348.868.97 1.128 1.403 1.766 1.305 1.921 1.893 4.915.52 7.429-.238.435-.571.899-.883 1.299-.561.716-.91 1.337-1.61 1.818-1.783 1.224-5.03.935-8.104.935-6.204 0-11.876.032-17.819 0-2.924-.016-6.052.115-8.728-.156-.306-.903-.152-2.626-.052-3.481 2.25-.263 4.801.032 7.169-.156.279-.691.208-1.48.208-2.234 0-5.16.061-11.144-.104-16.52-2.008-.457-5.16.145-7.221-.312-.12-.887-.282-2.654.104-3.377.038-.049.094-.079.156-.104 7.438-.002 15.987.052 23.845.052 4.05 0 8.412-.474 10.754 1.247 1.692 1.243 3.202 3.634 2.962 6.753-.184 2.369-1.486 3.432-2.6 5.041zm-21.456-2.026c4.217 0 8.242.052 12.468.052 2.712 0 5.198.235 6.546-.936 1.892-1.644 1.276-5.033-.987-6.13-1.21-.587-3.583-.364-5.455-.364-5.015 0-10.049-.073-14.806 0-.367.921-.208 2.29-.208 3.533 0 1.291-.083 2.626.104 3.688.725.277 1.552.157 2.338.157zm2.494 11.533c3.224 0 6.428.052 9.819.052 1.728 0 3.553.232 4.987-.052 2.363-.467 3.662-3.369 2.494-5.559-.351-.658-.98-1.255-1.714-1.611-1.072-.519-2.933-.467-4.728-.467-5.381 0-10.411-.167-15.637.052-.394.976-.156 2.331-.156 3.637 0 1.304-.083 2.679.104 3.793 1.504.281 3.15.155 4.831.155z"/><path d="m54.479 11.293c-.897.305-2.521.137-3.584.104-.613-.885-.935-1.685-1.767-2.182-1.094-.652-2.777-.689-3.792-.207-2.085.988-2.992 4.212-1.767 6.701.792 1.608 3.24 2.794 5.351 1.611.973-.447 1.338-1.502 2.026-2.234 1.06-.029 2.693-.206 3.584.103-.139 1.608-1.016 3.024-2.13 4.001-2.062 1.809-6.218 2.584-9.091.987-2.15-1.195-3.948-4.094-3.948-7.065 0-1.658.568-3.135 1.299-4.26.484-.745 1.34-1.678 2.078-2.234 1.497-1.128 4.726-1.624 7.066-.831 2.341.792 4.365 2.817 4.675 5.506z"/></g></svg>