<svg enable-background="new 0 0 72.703 77.98" viewBox="0 0 72.703 77.98" xmlns="http://www.w3.org/2000/svg"><g clip-rule="evenodd" fill-rule="evenodd"><path d="m3.26.169c-.25.729-.925 1.162-1.425 1.662-.489.49-.96 1.119-1.661 1.377-.216-.752-.264-2.404.048-3.086.8-.136 2.312-.205 3.038.047z"/><path d="m12.518.216c-.187.719-.874 1.242-1.376 1.709-.543.504-1.061 1.004-1.567 1.519-2.038 2.081-4.172 4.016-6.173 6.173-.48.517-1.043 1.037-1.567 1.519-.51.471-.986 1.035-1.613 1.33-.258-.18-.183-.584-.19-.902-.024-.996.019-2.262 0-3.275.503-.83 1.314-1.392 1.994-2.137 1.227-1.342 2.74-2.674 4.131-4.035.539-.532 1.643-1.965 2.278-2.043.611-.072 1.408 0 2.137 0 .689 0 1.405-.098 1.946.142z"/><path d="m49.313.169c-.081.672-.709 1.076-1.14 1.471-1.403 1.289-2.629 2.678-4.035 4.084-1.292 1.293-2.652 2.672-4.036 4.084-.442.451-1.182 1.055-1.187 1.517-.006.506.827 1.182 1.234 1.568 2.923 2.773 5.515 5.467 8.356 8.309.363.363 1.017 1.209 1.519 1.234.557.027 1.189-.748 1.614-1.188 1.366-1.418 2.767-2.883 4.083-4.227.931-.949 1.886-1.852 2.754-2.801.9-.982 1.883-1.836 2.801-2.754.93-.93 1.758-1.951 2.706-2.848 2.368-2.24 4.604-4.605 6.932-6.932.443-.443.925-1 1.567-1.188.238.553.143 1.299.143 1.994 0 .717.105 1.479-.048 2.041-.165.604-.87 1.07-1.329 1.52-.531.519-.971 1.01-1.377 1.424-4.885 4.879-9.747 9.842-14.718 14.814-1.11 1.109-2.409 2.481-3.608 3.797-.375.412-.887 1.043-1.377 1.045-.61.002-1.211-.914-1.661-1.33-3.625-3.33-7.014-6.902-10.445-10.35-.841-.811-2.019-1.9-2.991-2.943-.301-.322-.799-.826-.807-1.139-.021-.744.927-1.002 1.233-1.566.416-.52.83-1.039 1.377-1.426 1.835-1.885 3.703-3.734 5.556-5.602.342-.424.895-.816 1.424-1.377.493-.521.927-1.24 1.662-1.33.523-.062 1.226 0 1.898 0 .635.004 1.318-.071 1.9.099z"/><path d="m58.381.216c-.102.642-.696 1.051-1.14 1.473-2.243 2.129-4.311 4.404-6.6 6.693-.397.398-.897.873-1.329 1.33-.301.318-1.125 1.129-1.14 1.519-.02.541 1.327 1.92 1.852 1.945.541.027 1.441-1.045 1.852-1.471 1.682-1.75 3.236-3.463 4.938-5.033 1.163-1.072 2.197-2.291 3.276-3.371.549-.549 1.089-1.139 1.661-1.662.569-.518 1.052-1.15 1.757-1.518 1.214-.025 2.977-.191 4.035.094.052.582-.568.871-.901 1.234-1.026 1.121-2.159 2.207-3.276 3.324-2.943 2.945-5.748 5.844-8.783 8.879-.704.703-1.5 1.383-2.231 2.184-.309.338-.574.824-.997 1.234-.36.35-.897.902-1.281.902-.861 0-1.186-1.158-1.805-1.52-1.183-1.25-2.397-2.398-3.703-3.703-.354-.355-1.078-.873-1.092-1.377-.019-.676 1.471-1.899 1.852-2.279 2.078-2.078 4.112-4.225 6.172-6.219.692-.49 1.932-2.633 2.944-2.803.606-.102 1.356 0 2.041 0 .669.003 1.361-.107 1.898.145z"/><path d="m21.681.216c-.121.682-.743 1.076-1.187 1.52-2.209 2.209-4.59 4.4-6.742 6.742-2.558 2.783-5.324 5.418-8.022 8.119-1.351 1.35-2.718 2.668-4.084 4.035-.419.42-.824.965-1.424 1.139-.327-.438-.19-1.227-.19-1.947 0-.709-.038-1.469.048-2.041.494-.932 1.332-1.625 2.041-2.373.705-.744 1.479-1.42 2.184-2.184 1.365-1.478 2.924-2.875 4.416-4.369 2.165-2.164 4.286-4.334 6.552-6.598.313-.314.671-.707 1.093-1.092.457-.42.939-.988 1.424-1.045 1.014-.119 2.844.02 3.891.094z"/><path d="m30.844.216c.012.494-.466.799-.76 1.092-4.76 4.76-9.585 9.703-14.386 14.48-4.409 4.58-8.975 9.004-13.436 13.531-.734.549-1.139 1.424-2.089 1.758-.275-.568-.126-1.33-.095-2.09.027-.668-.178-1.434 0-2.041.143-.49 1.066-1.305 1.566-1.805 2.809-2.809 5.547-5.623 8.451-8.26 1.164-1.059 2.07-2.283 3.229-3.467 1.628-1.664 3.436-3.254 5.08-4.984 2.14-2.256 4.4-4.402 6.694-6.695.448-.449 1.289-1.482 1.756-1.566 1.139-.205 2.9-.017 3.99.047z"/><path d="m40.055.216c-.111.625-.702 1.053-1.14 1.52-2.163 2.307-4.417 4.465-6.742 6.789-.404.406-.939.851-1.377 1.33-.362.396-1.125 1.113-1.139 1.566-.02.668.771.834.949 1.33 2.701 2.568 5.274 5.266 7.929 7.881 2.362 2.078 4.399 4.49 6.837 6.742.343.316.772.643 1.187 1.092.318.344.933.896.949 1.281.03.652-1.049 1.477-1.472 1.899-1.24 1.24-2.073 2.074-3.323 3.324-.39.389-1.21 1.506-1.804 1.52-.672.014-1.646-1.361-2.137-1.852-4.659-4.66-9.399-9.23-14.053-13.816-.328-.416-.702-.703-1.14-1.139-.299-.299-.803-.953-1.282-.951-.476.004-1.115.852-1.519 1.234-1.382 1.311-2.796 2.967-4.131 4.037-4.429 4.672-9.058 9.141-13.579 13.721-.438.48-.9.934-1.376 1.377-.454.422-.858.992-1.519 1.186-.264-.646-.101-1.584-.095-2.469.004-.547-.146-1.193 0-1.66.13-.418.881-1.053 1.329-1.473 2.435-2.281 4.595-4.596 6.932-6.932.925-.926 1.89-1.795 2.802-2.707.935-.933 1.773-1.916 2.705-2.848 2.269-2.27 4.561-4.514 6.933-6.885.436-.436.999-1.26 1.472-1.281.688-.031 2.047 1.668 2.469 2.09 3.809 3.807 7.623 7.479 11.394 11.252 1.067 1.066 2.281 2.185 3.466 3.369.351.352.88.936 1.281.951.78.027 1.591-1.24 1.852-1.852-.076-.568-.549-.994-.902-1.377-.366-.399-.775-.729-1.139-1.092-1.501-1.502-3.042-2.945-4.511-4.512-.728-.775-1.554-1.451-2.279-2.231-1.441-1.553-3.058-2.963-4.558-4.463-.75-.75-1.495-1.516-2.23-2.279-.73-.758-1.627-1.414-2.042-2.422.159-.662.725-1.15 1.187-1.613 2.763-2.762 5.512-5.512 8.356-8.355.467-.467.981-1.127 1.472-1.33 1.206-.047 2.86-.139 3.988.048z"/><path d="m72.624 13.747c-1.03 1.291-2.21 2.447-3.371 3.609-1.164 1.164-2.353 2.295-3.466 3.512-1.102 1.203-2.443 2.199-3.561 3.42-2.229 2.434-4.521 4.662-6.885 7.025-2.335 2.334-4.517 4.707-6.836 7.074-1.145 1.168-2.369 2.27-3.467 3.467-1.037.914-1.889 1.961-2.99 2.99-.29.27-.77.805-1.14.807-.469.004-.878-.637-1.234-.996-1.851-1.865-3.797-3.619-5.603-5.461-.748-.762-1.429-1.627-2.374-2.041-.531.008-.851.484-1.187.807-4.917 4.738-9.709 9.805-14.575 14.67-2.603 2.603-5.137 5.279-7.739 7.883-2.265 2.264-4.597 4.455-6.884 6.74-.311.311-.588.811-1.092.855-.242-.496-.143-1.229-.143-1.947 0-.689-.099-1.473.047-2.041.171-.662 1.25-1.535 1.852-2.137 4.606-4.603 9.273-9.193 13.674-13.91 1.279-1.371 2.695-2.586 3.988-3.941 1.926-2.02 3.904-3.951 5.887-5.934 1.304-1.303 2.611-2.611 3.94-3.941.653-.652 1.269-1.438 2.137-1.805.594.051.912.609 1.282.951 2.289 2.104 4.448 4.305 6.741 6.598.359.361.787.93 1.234.951.776.035 1.684-1.305 2.137-1.758 1.979-1.979 3.919-3.889 5.84-5.84 3.683-3.84 7.619-7.789 11.584-11.773 1.922-1.932 3.849-3.943 5.792-5.887.958-.957 1.881-2 2.896-2.943 1.018-.945 1.891-2.09 2.943-2.896.729-.559.57 1.086.57 1.709.003.939.003 1.732.003 2.183z"/><path d="m72.339 18.923h.095c.412.98.086 2.699.19 3.986-.378.643-.962 1.141-1.473 1.662-1.501 1.533-3.072 3.09-4.604 4.654-1.021 1.041-2.008 2.108-3.086 3.133-1.049.996-1.988 2.123-3.039 3.133-3.16 3.037-6.11 6.205-9.258 9.353-.456.455-.875 1.07-1.472 1.613-.486.443-1.396 1.117-1.425 1.662-.029.555 1.275 1.875 1.851 1.9.568.023 1.252-.803 1.614-1.188.493-.523.88-1.07 1.282-1.473 4.648-4.648 9.308-9.168 13.815-13.863 1.35-1.404 2.783-2.734 4.179-4.131.458-.457.817-1.076 1.472-1.281.318 1.123.058 2.822.143 4.178-.324.584-.868 1.031-1.33 1.52-3.162 3.344-6.497 6.498-9.827 9.828-2.741 2.74-5.553 5.6-8.403 8.451-.424.422-.781.988-1.282 1.52-.397.42-1.115 1.23-1.567 1.234-.564.002-1.447-1.15-1.804-1.52-1.14-1.183-2.087-2.002-3.275-3.275-.422-.453-1.486-1.152-1.52-1.758-.046-.83 1.333-1.463 1.614-2.041 9.021-9.053 17.863-18.283 26.967-27.252.076.016.082-.043.143-.045z"/><path d="m22.394 23.29c1.498.701 2.202 2.197 3.466 3.133.516.404 1.011 1.059 1.614 1.662.392.393 1.492 1.152 1.519 1.758.026.58-.937 1.322-1.377 1.803-1.512 1.652-3.174 3.174-4.747 4.748-6.314 6.314-12.76 12.912-18.943 19.086-.857.951-1.824 1.744-2.707 2.705-.271.297-.565.736-1.044.76.017-.965-.356-3.127-.048-4.225.135-.475.984-1.166 1.473-1.613 1.592-1.465 3.094-3.143 4.558-4.605 2.009-2.01 4.243-4.148 6.172-6.078 1.007-1.008 1.905-2.143 2.943-3.18 1.009-1.01 2.055-2.008 3.086-3.039 1.518-1.518 2.99-3.02 4.558-4.652.448-.467 1.373-1.113 1.377-1.662.004-.533-1.309-1.94-1.899-1.947-.446-.006-1.234.848-1.567 1.188-3.13 3.197-6.522 6.582-9.542 9.686-3.162 3.264-6.465 6.387-9.639 9.637-.521.318-.803 1.127-1.472 1.141-.195-.48-.095-1.188-.095-1.994 0-.715-.104-1.545.047-2.137.116-.451.811-1.065 1.282-1.52 1.441-1.389 2.726-2.727 4.13-4.131.906-.904 1.822-1.852 2.802-2.754 1.949-1.791 3.677-3.725 5.507-5.555 1.848-1.846 3.512-3.652 5.508-5.506.404-.377.908-.871 1.377-1.377.48-.523 1.051-1.375 1.661-1.332z"/><path d="m72.291 37.392c.523-.117.333 1.49.333 1.945 0 .869.164 1.56 0 2.137-.128.447-.833 1.055-1.33 1.519-1.454 1.363-2.858 2.906-4.178 4.225-3.784 3.787-7.491 7.539-11.204 11.252-.936.938-1.916 1.834-2.802 2.803-.437.477-.873.998-1.329 1.471-.454.471-.819 1.133-1.52 1.281-.615-.023-.958-.576-1.329-.949-.386-.385-.768-.766-1.14-1.139-.761-.762-1.547-1.48-2.278-2.232-3.702-3.801-7.42-7.41-11.348-11.252-.339-.33-.716-.699-1.139-1.139-.344-.357-.85-.982-1.234-.998-.594-.022-1.927 1.353-1.947 1.947-.027.787 1.618 1.998 2.089 2.469.823.822 1.521 1.568 2.231 2.279 2.314 2.312 4.534 4.393 6.837 6.693 1.867 1.867 3.734 3.646 5.602 5.697.333.367.981.809.997 1.234.022.592-.828 1.145-1.234 1.568-2.328 2.422-4.601 4.617-6.932 6.979-.898.91-1.746 1.947-2.849 2.705-1.287-.057-2.81.119-3.94-.094.12-.783.838-.967 1.186-1.52 2.619-2.812 5.409-5.324 8.118-8.213.335-.357.985-.912.997-1.33.014-.486-.575-.875-.997-1.281-1.145-1.107-2.282-2.404-3.323-3.467-2.971-3.035-6.136-5.994-9.115-8.973-1.04-1.039-2.27-2.197-3.418-3.371-.375-.383-.906-.957-.902-1.33.008-.871 1.136-1.158 1.424-1.852 1.207-1.221 2.423-2.373 3.703-3.703.325-.336.858-1.072 1.33-1.092.697-.025 2.042 1.672 2.469 2.09 4.994 4.894 9.822 9.635 14.766 14.574.394.395.916.943 1.281.951.562.012 1.192-.807 1.566-1.188.506-.516.923-1.018 1.33-1.424.983-.984 1.689-1.867 2.706-2.754 5.446-5.567 10.954-11.075 16.523-16.518z"/><path d="m72.291 46.65c.534-.01.367 1.471.38 1.945.019.676.052 1.732-.047 2.137-.136.551-.978 1.277-1.52 1.852-.589.625-1.229 1.127-1.709 1.662-1.099 1.223-2.262 2.379-3.324 3.418-4.574 4.479-8.898 8.939-13.53 13.436-.288.281-.479.648-.76.949-1.34 1.438-2.722 2.736-4.226 4.18-.529.506-1.242 1.467-1.757 1.613-.996.285-3.02-.043-3.988-.047-.032-.498.467-.799.761-1.092 2.19-2.191 4.433-4.564 6.646-6.789 2.589-2.523 4.986-5.238 7.596-7.74 5.119-5.218 10.238-10.43 15.478-15.524z"/><path d="m23.438 77.794c.117-.582.66-.898 1.044-1.283.386-.385.758-.803 1.14-1.186 2.301-2.301 4.596-4.699 6.932-7.027.309-.564 1.113-.734 1.14-1.473.021-.57-.806-1.137-1.234-1.564-1.382-1.383-2.91-2.973-4.178-4.18-1.375-1.375-2.695-2.723-4.178-4.178-.298-.291-1.055-1.219-1.519-1.234-.554-.018-1.199.859-1.566 1.234-1.387 1.414-2.785 2.756-4.131 4.131-1.887 1.785-3.639 3.703-5.46 5.555-2.778 2.729-5.536 5.479-8.357 8.166-.614.719-1.314 1.422-2.041 2.09-.213.195-.456.588-.807.475-.223-1.152-.156-2.803-.096-4.084.766-1.076 1.784-1.926 2.707-2.848 2.743-2.744 5.58-5.486 8.355-8.262 1.852-1.851 3.58-3.828 5.46-5.65 1.875-1.814 3.691-3.68 5.555-5.506.839-.189 1.757 1.139 2.421 1.756 2.121 1.971 3.857 3.941 5.982 5.936 1.408 1.32 2.484 2.531 3.941 3.986.619.619 1.314 1.191 2.042 1.947.429.447 1.782 1.572 1.804 2.137.021.559-.821 1.201-1.187 1.566-1.439 1.439-2.627 2.748-4.131 4.131-1.205 1.287-2.73 2.73-4.13 4.131-.438.438-.923 1.174-1.425 1.328-.554.172-1.375.049-2.089.049-.715 0-1.45.092-1.994-.143z"/><path d="m72.386 55.955h.096c.413.98.084 2.701.189 3.988-1.2 1.775-2.914 3.037-4.32 4.605-3.327 3.361-6.67 6.691-10.066 10.018-1.117 1.094-2.085 2.351-3.37 3.275-1.225-.006-2.881.211-3.941-.096-.107-.359.289-.605.476-.807 3.191-3.457 6.656-6.799 10.018-10.16 3.589-3.588 7.143-7.229 10.777-10.729.033-.044.085-.071.141-.094z"/><path d="m14.228 77.794c.059-.609.664-1.045 1.092-1.473 2.19-2.189 4.363-4.32 6.599-6.646.395-.41.829-.863 1.329-1.328.347-.324 1.173-.92 1.188-1.426.014-.455-.461-.834-.76-1.139-.344-.352-.596-.744-1.092-.807-.669.047-1.035.664-1.424 1.092-1.149 1.262-2.514 2.418-3.752 3.654-1.644 1.646-3.314 3.27-4.936 4.937-1.103 1.098-2.046 2.356-3.371 3.229-.636-.008-1.357-.047-2.089-.047-.683 0-1.442.111-1.947-.143.104-.496.568-.852.902-1.188 2.119-2.117 4.336-4.287 6.505-6.457 1.747-1.746 3.423-3.625 5.364-5.412.689-.633 1.438-1.389 2.185-2.137.687-.686 1.472-1.818 2.184-2.184.759-.389 1.647.936 2.089 1.377 1.144 1.145 2.138 2.154 3.371 3.324.473.447 1.484 1.201 1.472 1.852-.011.545-.82 1.103-1.234 1.519-3.19 3.19-6.35 6.443-9.543 9.494-1.285.056-2.988.15-4.132-.091z"/><path d="m72.339 65.212c.511-.041.332 1.299.332 1.898v2.186c-1.215 1.502-2.706 2.758-4.178 4.367-.982 1.074-2.132 2.055-3.228 3.182-.371.379-.742.834-1.14.949-.578.166-1.405.047-2.089.047-.7 0-1.398.109-1.946-.143-.021-.383.332-.664.569-.902 3.783-3.781 7.705-7.693 11.537-11.488.035-.045.086-.072.143-.096z"/><path d="m72.434 74.328c.397.244.237 1.01.237 1.615 0 .631.068 1.336-.095 1.756-.849.258-2.493.18-3.419.047-.026-.426.389-.672.665-.949.731-.73 1.746-1.904 2.564-2.469z"/></g></svg>