<svg viewBox="0 0 218 221.2" xmlns="http://www.w3.org/2000/svg"><path d="m129.5 236.3c-48.4 0-87.7-45.6-87.7-103.1a115.26 115.26 0 0 1 1.3-17.7c20.2-1.2 51.9-2.7 77.8-3.1.7 46.9-4.6 110.8-4.6 110.8h26.3s-5.3-63.9-4.6-110.9c41.8.5 99.8 4.3 99.8 4.3-7.9-52.7-53.4-94.2-108.4-94.2-60.5 0-109.6 50.1-109.6 110.6s49.1 110.6 109.6 110.6c54.9 0 100.5-41.4 108.4-94.2h-21.8c-6.5 49.9-42.8 86.9-86.5 86.9zm0-206.3c36.1 0 67.2 25 80.6 62-20.3 1.1-48.3 2.4-71.4 2.7 1.2-24 4-51.6 4-51.6h-26.3s2.7 27.6 4 51.6c-23.4-.3-51.4-1.6-71.4-2.7 13.4-37 44.4-62 80.5-62z" transform="translate(-19.8 -22.4)"/></svg>