<svg enable-background="new 0 0 79.017 73.709" viewBox="0 0 79.017 73.709" xmlns="http://www.w3.org/2000/svg"><path clip-rule="evenodd" d="m38.225.033c6.049-.39 10.161 2.731 12.754 6.277.931 1.272 1.504 2.763 2.009 4.318 1.098 3.383.679 7.846-.703 10.595-.963 1.916-2.265 3.922-3.314 6.177-.319.685-1.004 1.533-1.004 2.159 0 .525.604 1.266.904 1.908.919 1.969 1.957 3.543 3.013 5.373 1.039 1.801 2.004 3.445 3.063 5.323.294.521.699 1.489 1.205 1.708.755.326 2.059.1 3.013.1 3.313 0 6.244-.02 8.687.603 3.261.832 5.819 2.522 7.683 4.67 1.985 2.288 3.281 5.074 3.465 8.938.182 3.822-.996 7.002-2.762 9.491-1.654 2.331-4.181 4.311-7.13 5.272-1.616.527-3.477.826-5.423.753-1.891-.071-3.454-.583-4.971-1.206-4.509-1.848-6.708-5.397-8.938-9.591-.314-.592-.639-1.291-1.054-2.059-.293-.541-.918-1.662-1.457-1.758-1.083-.193-2.549-.05-3.967-.05-2.762 0-4.957-.05-7.884-.05-1.335 0-2.695-.127-3.766 0-.626.074-1.06 1.073-1.457 1.757-1.118 1.931-2.271 4.049-3.364 5.875-1.49 2.49-3.791 4.6-6.478 5.825-1.438.656-3.126 1.121-4.972 1.205-2.014.091-3.977-.248-5.473-.703-3.019-.919-5.35-2.885-7.03-5.272-1.759-2.499-3.001-5.468-2.862-9.491.124-3.573 1.616-6.793 3.465-8.838 2.97-3.284 6.793-5.518 13.157-5.222.729.034 1.878 0 2.962 0 1.09 0 2.158.145 2.913-.151.505-.197.905-1.009 1.255-1.607 2.169-3.699 4.027-7.153 6.126-10.897.296-.527.938-1.286.954-1.858.017-.591-.654-1.463-1.004-2.059-1.19-2.027-2.213-3.8-3.314-5.875-1.288-2.428-2.224-6.446-1.356-10.144 1.128-4.804 3.942-8.248 8.135-10.244 1.435-.68 3.228-1.143 4.92-1.252zm8.486 22.647c1.235-2.174 2.714-4.22 2.762-7.432.018-1.186-.224-2.717-.603-3.816-1.354-3.927-5.183-7.317-10.445-6.98-1.786.114-3.858 1.015-4.921 1.757-.794.556-1.671 1.391-2.26 2.159-1.013 1.321-2.014 3.454-2.159 5.624-.146 2.169.36 4.118 1.155 5.624 2.283 4.322 5.215 8.917 7.432 12.955 1.298 2.857 3.189 5.766 4.771 8.637.351.636 1.186 2.39 1.808 2.662.781.34 2.125.1 3.214.1 1.171 0 2.386.181 3.113-.251-.212-1.082-.917-1.99-1.406-2.962-1.469-2.923-3.19-5.598-4.771-8.437-1.04-1.867-2.176-3.71-3.213-5.574-1.059-1.9-2.267-3.701-3.214-5.574-.387-.766-.681-1.567-1.105-2.31-.415-.728-.949-1.393-1.255-2.159-1.027-2.567.342-5.112 2.46-5.775 2.426-.759 4.454 1.005 5.021 2.611.841 2.38-.613 3.674-1.155 5.523.292 1.095.969 2.041 1.506 2.963.544.934.99 2.053 1.858 2.611.708-.446 1.019-1.274 1.407-1.956zm-42.08 33.343c-.827 2.877-.261 5.985.953 8.084 1.154 1.994 2.976 3.684 5.273 4.57 2.282.88 5.823.782 8.235-.402 1.164-.572 2.258-1.497 3.163-2.561.878-1.031 1.533-2.324 2.21-3.515 1.437-2.529 2.658-4.72 4.167-7.331 2.412-4.172 4.756-8.622 7.231-12.855.343-.587.971-1.449.954-1.958-.017-.539-.472-.959-.753-1.456-.249-.438-.526-.908-.804-1.406-.398-.714-1.021-2.495-1.808-2.662-.481-.102-1.029 1.296-1.306 1.808-.329.607-.762 1.205-1.055 1.707-2.069 3.555-3.996 7.102-5.975 10.596-2.044 3.607-4.088 6.876-6.026 10.545-.604 1.144-1.378 2.666-2.31 3.264-3.287 2.111-7.584-.915-6.277-4.921.475-1.454 1.871-2.692 3.615-2.862.842-.082 1.692.158 2.36-.101.431-.166.756-.708 1.054-1.205.669-1.111 1.111-1.954 1.657-2.962.254-.47.696-.918.653-1.557-.88-.392-2.015-.152-3.063-.201-3.371-.157-6.315.223-8.034 1.707-1.989 1.46-3.415 3.242-4.114 5.674zm49.06 4.921c.908 1.614 1.739 3.261 2.862 4.62 1.492 1.806 3.577 3.225 6.277 3.666 3.784.618 6.748-.997 8.537-2.611 1.557-1.405 2.545-3.007 3.113-5.323 1.262-5.15-1.515-9.433-4.871-11.399-1.087-.637-2.304-1.147-3.816-1.255-2.347-.168-4.797 0-7.181 0-5.807 0-11.834.033-17.324-.051-1.188-.018-2.531-.174-3.616 0-.957.154-1.548 1.847-2.059 2.712-.67 1.134-1.386 1.94-1.456 2.963.457.413 1.149.251 1.707.251 8.315 0 17.021.05 25.559.05 1.271 0 2.666-.141 3.766.051 1.706.296 2.905 1.65 3.314 3.163.704 2.604-1.255 5.121-3.515 5.373-2.448.274-3.682-1.177-4.469-2.561-.327-.575-.662-1.268-1.155-1.456-.773-.293-2.181-.101-3.264-.101-1.158 0-2.395-.173-3.113.251-.069.643.411 1.137.704 1.657z" fill-rule="evenodd"/></svg>