<svg enable-background="new 0 0 77.256 61.677" viewBox="0 0 77.256 61.677" xmlns="http://www.w3.org/2000/svg"><g clip-rule="evenodd" fill-rule="evenodd"><path d="m35.278.194c.292 1.443.255 3.538.049 5.005-1.188.268-2.44.148-3.68.148-6.315-.002-12.142.048-18.647.049-1.233 0-2.469.042-3.68 0-1.19-.042-2.403-.048-3.533.146-.189 4.885-.098 9.793-.098 14.573 0 1.577-.156 3.153-.049 4.711.106 1.541.049 3.151.049 4.76 0 4.904-.098 9.897-.098 14.769 0 .904.142 1.835.147 2.797.005.966 0 1.958 0 2.944 0 1.965-.121 3.948.098 5.79 1.146.343 2.416.195 3.631.196 8.611.002 17.06-.153 25.908.049.196 1.508.304 3.974-.049 5.397-8.437.117-17.628.15-26.35.147-1.949-.001-4.385-.099-6.673-.099-.757 0-1.722.143-2.012-.098-.417-.349-.217-2.76-.246-3.631-.047-1.473 0-2.653 0-3.926 0-2.707-.099-5.377 0-7.557.119-2.608-.119-5.099 0-7.605.06-1.257-.035-2.556 0-3.828.036-1.291 0-2.569 0-3.827.001-10.2-.104-20.734 0-30.814.765-.34 1.643-.194 2.455-.194 4.278-.001 8.743 0 13.003 0 5.494-.001 10.72-.05 16.291-.049 1.16 0 2.364-.115 3.484.147z"/><path d="m38.663 61.481c-.173-.763-.098-1.736-.099-2.699 0-.92-.11-1.905.147-2.601 2.383-.17 4.839-.049 7.164-.049 7.022 0 12.265-2.443 16.291-5.594 3.963-3.103 7.159-7.48 8.685-13.248.52-1.966.915-4.257.834-6.429-.34-9.09-4.4-15.243-9.764-19.431-4.06-3.17-9.137-5.633-16.193-5.741-1.164-.018-2.373-.05-3.582-.049-1.144 0-2.334.113-3.483-.148-.19-.574-.195-1.606-.197-2.846 0-.855-.112-2.429.491-2.552.558-.114 1.536-.016 2.306-.049 10.765-.473 19.258 2.64 24.78 7.556 2.38 1.842 4.41 4.241 6.183 6.87 3.325 4.93 5.887 12.46 4.76 20.707-.507 3.709-1.666 6.95-3.189 9.813-1.918 3.606-4.286 6.571-7.262 9.077-1.778 1.498-3.626 2.643-5.839 3.877-1.367.763-2.917 1.344-4.563 1.963-1.596.6-3.403 1.123-5.152 1.374-2.879.413-5.971.343-9.323.343-1.001.002-2.006.033-2.995-.144z"/><path d="m35.327 11.48c.251.664.147 1.635.147 2.552 0 .904.104 1.85-.147 2.502-5.304.351-11.734-.044-17.37.246-.259.744-.148 1.755-.148 2.747 0 .972-.072 2.003.098 2.797.785.259 1.665.147 2.502.147 4.267 0 8.788-.048 13.052-.049 1.703-.001 3.359.173 4.907-.099.258-.796.147-1.729.147-2.649 0-1.795 0-3.699 0-5.545 0-.901-.11-1.819.147-2.601 1.843-.247 3.797-.146 5.643-.146 1.968 0 3.726.061 5.397.392 3.223.638 5.882 2.004 8.146 3.632 2.113 1.52 4.273 3.808 5.496 6.28 1.338 2.707 2.404 5.609 2.404 9.372 0 3.701-.924 6.715-2.356 9.323-1.397 2.548-3.29 4.689-5.544 6.231-2.35 1.607-4.865 3.016-8.146 3.631-3.392.637-7.055.336-10.991.295-.271-.813-.204-1.753-.196-2.699.021-2.616.065-5.786-.098-8.439-.783-.277-1.669-.128-2.502-.147-2.437-.058-5.166 0-7.802 0-3.487 0-6.964-.099-10.157.147-.27 1.522-.183 3.894-.049 5.495.658.258 1.404.147 2.11.147 4.799.001 10.318-.079 15.31.099.273.736.152 1.685.147 2.552-.004.864.156 1.771-.098 2.502-1.868.26-3.854.147-5.839.147-4.971 0-9.917-.093-14.819.049-.912.026-1.847-.01-2.699-.148-.163-5.202-.164-11.088 0-16.291 8.876-.215 18.265-.147 27.625-.146 1.293 0 2.625-.119 3.876.146.323 1.307-.113 3.089.294 4.27.803-.297 1.364-1.053 1.914-1.668 1.082-1.212 2.358-2.261 3.582-3.484.28-.279 1.684-1.281 1.717-1.815.032-.511-1.358-1.674-1.668-1.963-.635-.592-1.342-1.142-1.865-1.717-.589-.648-1.28-1.194-1.815-1.816-.549-.637-.978-1.45-1.865-1.717-.476.931.028 2.841-.294 3.926-1.261.266-2.576.147-3.876.147-9.012-.002-18.33.065-27.625-.099-.253-1.253-.098-2.598-.098-3.975 0-4.138-.089-8.52.098-12.513 7.753-.168 15.226-.22 23.308-.048zm13.199 33.317c3.067-.536 5.317-1.986 7.213-3.631 2.357-2.046 4.514-5.743 4.514-9.961 0-4.323-1.975-7.899-4.416-10.206-1.208-1.143-2.663-2.068-4.417-2.895-1.448-.683-4.312-1.398-6.33-1.079-.145.398.28.766.491 1.03.778.975 1.893 1.742 2.699 2.601 1.201 1.139 2.324 2.354 3.533 3.483 1.713 1.768 3.486 3.447 5.349 5.152.451.413 1.648 1.271 1.619 1.914-.023.523-1.13 1.36-1.57 1.766-1.828 1.688-3.465 3.425-5.152 5.006-1.733 1.625-3.602 3.26-5.201 4.956-.54.571-1.34 1.082-1.472 1.913 1.085.318 2.186.118 3.14-.049z"/></g></svg>