<svg enable-background="new 0 0 79.757 50.445" viewBox="0 0 79.757 50.445" xmlns="http://www.w3.org/2000/svg"><path clip-rule="evenodd" d="m73.079 24.46c.57.607 1.544.812 2.069 1.464 2.6 2.106 4.433 4.819 4.593 9.085.176 4.71-1.157 7.921-3.18 10.498-2.037 2.594-4.834 4.308-8.883 4.794-2.047.247-4.276.101-6.561.101-6.732 0-13.635-.051-20.44-.051-13.337.001-27.095-.004-40.527-.151-.263-8.01-.101-16.223-.101-24.882 0-7.133 0-14.885 0-22.308 0-.261.039-1.33.05-1.564.058-1.217-.143-1.238.455-1.362.903-.188 2.222 0 3.432 0 19.617-.002 38.617.053 57.99.051 2.306-.001 4.601-.143 6.763.101 4.238.475 6.58 2.361 8.479 5.248 1.837 2.795 2.754 6.917 1.867 11.255-.579 2.833-1.868 4.965-3.835 6.461-.655.496-1.433.741-2.171 1.26zm-34.269-19.632c-4.357-.002-8.476-.076-12.718-.051-5.305.032-11.153.001-16.655 0-1.436 0-2.936-.157-4.239 0-.541.066-.498.263-.506 1.009-.139 13.263.02 26.657.051 39.569.712.31 1.615.098 2.422.101 4.549.017 9.742.175 14.232-.051.198-1.722.104-3.999.051-5.804-2.352-.602-4.522-1.31-6.309-2.524-.86-.584-1.663-1.272-2.372-2.018-.701-.739-1.538-1.49-1.817-2.524.907.101 1.777.451 2.625.757 1.797.648 3.453 1.307 5.148 1.918.846.305 1.736.723 2.675.757.298-.296.239-1.236.101-1.666-.849-.527-1.896-.813-2.927-1.211-2.525-.971-5.056-1.866-7.671-2.776-.456-.158-1.272-.338-1.514-.606-.35-.386-.464-1.295-.606-1.918-.153-.669-.415-1.498-.152-2.069.562-.032 1.097.242 1.615.404 3.781 1.183 7.276 2.822 11.154 3.836.323-.32.229-1.351.101-1.817-3.167-1.277-6.628-2.462-9.842-3.685-1.085-.411-2.393-.469-3.18-1.362-.01-.592.13-1.193.252-1.767.096-.448.129-1.341.606-1.464.408-.104 1.139.297 1.565.455.554.205 1.069.354 1.514.504 3.024 1.028 6.037 2.407 9.034 3.079.233-.396.192-1.35.05-1.816-2.949-1.251-6.757-2.584-10.043-3.735-.41-.144-1.278-.354-1.363-.656-.157-.562.621-1.355.858-1.716.397-.602.611-1.111 1.211-1.362 3.166.973 5.953 2.324 9.236 3.18.303-.3.259-1.382.101-1.817-1.174-.608-2.514-1.039-3.836-1.514-.643-.232-1.272-.518-1.917-.758-.63-.233-1.427-.257-1.868-.807.323-.616.975-1.007 1.615-1.413.416-.265 1.543-1.007 2.069-1.01.291-.002.625.236.959.353.999.35 1.938.759 2.978.857.29-.689-.023-1.672.252-2.372 1.131-.349 3.167-.368 4.239.051.204.688-.187 1.971.252 2.423.665-.022 1.272-.315 1.918-.556.48-.178 1.41-.681 1.917-.656.569.027 1.59.759 1.969 1.01.633.42 1.32.76 1.615 1.413-1.099.663-2.44 1.075-3.735 1.564-.637.241-1.282.476-1.918.707-.638.231-1.386.317-1.868.808-.158.446-.204 1.557.101 1.867 2.537-.739 5.401-1.886 7.974-2.826.426-.156.857-.449 1.161-.404.457.067.909.929 1.161 1.312.379.577.648 1.019.808 1.665-.235.474-.836.499-1.262.656-2.795 1.035-5.823 2.156-8.58 3.18-.458.171-1.055.166-1.363.605-.128.402-.25 1.569.101 1.817 1.038-.122 2.011-.585 2.978-.908 3.04-1.018 5.865-2.272 8.883-3.231.612.752.807 2.187.757 3.432-.872.697-2.038.893-3.079 1.313-2.652 1.069-5.49 2.005-8.125 2.978-.508.188-1.097.349-1.514.707-.171.415-.173 1.467.051 1.816 2.231-.549 4.271-1.469 6.359-2.17 1.574-.528 3.128-1.134 4.644-1.716.507-.195 1.028-.536 1.615-.455.165.633-.014 1.386-.151 2.019-.127.59-.256 1.409-.555 1.817-.231.314-.921.475-1.413.655-2.619.964-5.149 1.953-7.621 2.877-1.054.394-2.122.684-2.977 1.211-.043.491-.172 1.432.101 1.767 3.167-.919 6.145-2.159 9.084-3.229.382-.14.81-.481 1.262-.303-.939 1.898-2.506 3.297-4.189 4.441-1.74 1.184-3.766 2.018-6.157 2.523-.248.798-.151 1.88-.151 2.928 0 1.064-.11 2.173.151 2.978 5.391.261 11.484.184 16.705.051.252-13.088.207-27.188.05-40.477-1.359-.26-2.761-.15-4.138-.15zm11.911 17.462c2.918.005 5.826-.135 8.731 0 1.927.09 4.081.077 6.006 0 1.997-.079 3.65-.372 4.896-1.16 2.6-1.646 3.604-4.648 3.533-8.227-.09-4.55-2.907-7.761-7.268-8.025-2.814-.17-6.012 0-9.135 0-2.993.001-6.594-.04-9.337.051-.432.493-.252 1.266-.252 1.918 0 5.064-.083 10.48.101 15.292.858.218 1.808.15 2.725.151zm-2.725 4.492c-.173.449-.101 1.516-.101 2.321 0 4.2.021 8.019-.05 11.658-.032 1.593-.098 3.189.151 4.694 5.826.184 11.847.1 17.513.1 5.608 0 8.378-3.709 8.378-9.286 0-5.506-2.564-9.59-8.075-9.59-5.741.001-11.601 0-17.665 0-.06.027-.114.056-.151.103z" fill-rule="evenodd"/></svg>