<svg enable-background="new 0 0 74.895 43.002" viewBox="0 0 74.895 43.002" xmlns="http://www.w3.org/2000/svg"><path d="m14.934 12.421c2.757-4.091 5.339-8.305 8.09-12.397 1.925-.021 3.85.041 5.776.035-.007 4.892-.007 9.784-.025 14.677.618-.019 1.237-.008 1.856-.01.03-4.894-.005-9.789.064-14.682 4.612-.07 9.227-.052 13.84.022.155 4.878-.056 9.78.017 14.669.55-.039 1.101.087 1.648.007-.008-4.881.04-9.757.062-14.637 1.953-.091 3.91.043 5.866.013-.005 4.891-.014 9.788-.022 14.676 1.689-.027 3.381.015 5.071-.015 1.336-.321 2.547-1.285 3.104-2.548.715-1.547.605-3.404-.187-4.899-.754-1.294-2.16-2.178-3.656-2.279-.945-.043-1.895-.015-2.842-.019-.14-1.629.013-3.281-.013-4.919 1.439.019 2.892-.098 4.31.2 2.935.561 5.585 2.573 6.875 5.279 1.817 3.52 1.186 8.108-1.538 10.992-.115.142-.384.314-.226.518 2.273 3.684 4.651 7.308 6.901 11.001-.748.038-1.508-.052-2.248.074 2.379 4.914 4.759 9.84 7.239 14.698-.01.032-.029.095-.039.127-5.837-6.58-11.722-13.127-17.37-19.87.759-.053 1.52-.021 2.28-.066-.625-1.107-1.33-2.169-2.021-3.237-1.891-.006-3.783-.02-5.675.001.019 2.751-.022 5.505-.013 8.259-1.955.011-3.919.044-5.867-.047-.017-2.743.011-5.486.003-8.23-.55.013-1.103-.066-1.65.01-.004 3.207-.029 6.416-.004 9.622 5.507.009 11.025.036 16.524.061 1.478 1.524 2.791 3.241 4.266 4.781-.017.036-.052.109-.069.145-3.538-.05-7.083.031-10.619-.052-5.321.046-10.654-.033-15.979-.079-.02-4.847.018-9.707.011-14.559-.541-.038-1.086.007-1.628-.027-.163-.01-.325-.011-.484.025.018 4.854-.041 9.707-.048 14.561-8.287.108-16.573-.032-24.862-.013-.762-.02-1.529.043-2.287-.065 1.496-1.544 2.776-3.29 4.264-4.83 5.651-.064 11.311.08 16.958-.003-.021-3.208.131-6.422-.01-9.625-.602.017-1.211-.036-1.807.051-.027 2.742-.047 5.491-.031 8.236-1.933-.047-3.882.076-5.804-.083-.05-1.444.006-2.95-.026-4.418.01-1.258.031-2.519.004-3.776-1.873-.026-3.759-.052-5.628-.025-.699 1.068-1.394 2.139-2.099 3.202.758.12 1.536.022 2.301.058-5.713 6.692-11.621 13.217-17.487 19.779 2.294-4.984 4.907-9.852 7.285-14.811-.757.011-1.511-.05-2.268-.07 2.321-3.72 4.81-7.345 7.1-11.083-1.228-1.359-2.196-2.999-2.569-4.809-.817-3.361.418-7.059 2.916-9.411 1.547-1.392 3.539-2.306 5.612-2.507-.037 1.642.07 3.295-.057 4.929-3.166.679-4.707 4.668-3.085 7.393zm21.64-6.371c.013 2.87-.018 5.74.002 8.61.518.039 1.04-.03 1.557.032.181-.029.364-.027.548-.02-.034-2.875.111-5.749.003-8.621-.699-.07-1.411-.072-2.11-.001zm-16.035 8.656c.796.025 1.594.001 2.39.01-.003-1.211.012-2.422-.001-3.633-.863 1.159-1.607 2.407-2.389 3.623z"/></svg>