<svg enable-background="new 0 0 71.542 49.711" viewBox="0 0 71.542 49.711" xmlns="http://www.w3.org/2000/svg"><g clip-rule="evenodd" fill-rule="evenodd"><path d="m40.407 23.428c.83-2.03 2.398-3.402 2.181-6.494-.175-2.495-1.688-4.52-3.47-5.552-2.48-1.436-5.75-.863-7.684.645-1.361 1.062-2.516 2.794-2.676 4.907-.167 2.195.666 3.876 1.487 5.155.252.393.666.766.645 1.289-3.235.16-7.037.033-10.41 0-1.165-1.46-1.87-3.32-2.032-5.75-.356-5.309 1.961-9.26 4.61-12.145 2.701-2.941 6.776-5.175 11.5-5.453 4.215-.248 7.401 1.013 10.112 2.578 2.128 1.228 4.054 3.21 5.354 5.056 1.373 1.95 2.498 4.537 2.925 7.535.44 3.093-.406 6.077-1.934 8.278-3.222.148-7.311.189-10.608-.049z"/><path d="m12.549 25.857c-.443 1.411-1.355 2.441-1.834 3.866-1.646 4.894 2.176 9.469 6.692 9.418 3.339-.038 5.91-2.278 6.741-4.908.529-1.672.342-4.023-.397-5.453-.513-.992-1.271-1.823-1.636-2.924.532-.277 1.23-.115 1.834-.099 2.744.071 5.825-.05 8.625.099 1.081.841 1.525 2.222 1.884 3.668 1.257 5.063-.848 9.95-2.974 12.888-1.434 1.981-3.545 3.942-5.948 5.155-2.435 1.229-5.586 2.243-9.071 2.032-6.349-.384-10.573-3.662-13.434-7.733-1.383-1.967-2.58-4.658-2.925-7.683-.373-3.275.223-6.263 1.884-8.377 3.334-.089 7.112-.131 10.559.051z"/><path d="m49.479 25.956c.016.532-.409.901-.644 1.289-.863 1.421-1.847 2.935-1.686 5.403.189 2.894 1.873 4.959 4.064 5.948 2.275 1.026 4.794.613 6.593-.396 1.909-1.072 3.384-3.298 3.569-5.701.227-2.95-1.107-4.429-1.983-6.494.806-.239 1.727-.078 2.627-.099 2.647-.063 5.527-.014 8.129.05 2.028 3.167 1.615 8.922.198 12.541-.837 2.136-2.014 4.038-3.42 5.552-2.894 3.114-6.812 5.459-12.244 5.651-5.61.198-9.96-2.276-12.74-5.056-2.814-2.814-5.185-7.038-5.155-12.59.007-1.17.253-2.536.644-3.619.307-.849 1.032-2.647 1.884-2.627 2.987.067 6.965-.032 10.164.148z"/></g></svg>