<svg enable-background="new 0 0 57.053 71.345" viewBox="0 0 57.053 71.345" xmlns="http://www.w3.org/2000/svg"><g clip-rule="evenodd" fill-rule="evenodd"><path d="m42.596 0c.589.2 1.373 1.183 1.911 1.719 1.786 1.786 3.596 3.614 5.301 5.349 1.197 1.175 2.396 2.348 3.582 3.534 1.176 1.176 2.401 2.317 3.439 3.63-.071 4.689.175 9.073-.048 13.659-2.128.303-4.705.068-7.116.144-2.361.074-4.768-.044-7.021.095-.259 1.069-.143 2.264-.143 3.439 0 3.465.078 7.297-.096 10.65-1.064.259-2.249.144-3.438.144-2.324 0-4.743 0-7.116 0-1.172 0-2.341.114-3.391-.144-.15-9.349-.198-19.062-.095-28.177 2.151-.227 4.595-.096 7.02-.096 2.406 0 4.864.115 7.021-.144.184-1.04.096-2.167.096-3.343 0-2.785-.119-5.826 0-8.645.026-.623-.083-1.224 0-1.671.039-.038.027-.13.094-.143z"/><path d="m13.511 14.042c.195 4.137.221 9.067.048 13.372-.453.002-.675-.461-.956-.716-1.995-1.816-3.929-3.881-5.874-5.827-1.943-1.943-3.862-3.909-5.827-5.874-.258-.257-.678-.487-.716-.907 4.361-.128 9.023-.209 13.325-.048z"/><path d="m42.882 43.174c.455.201 1.337 1.146 1.863 1.671 2.931 2.931 5.763 5.715 8.74 8.692.521.521 1.149 1.144 1.767 1.719.55.511 1.509 1.278 1.671 1.814.261.862.048 2.531.048 3.535 0 3.526.079 7.23-.096 10.555-13.172.195-26.689.143-40.356.143-.857 0-1.921.117-2.579-.048-.72-.181-1.35-1.158-1.863-1.671-.629-.629-1.235-1.145-1.767-1.719-3.026-3.023-6.195-6.109-9.217-9.218-.206-.212-.456-.438-.668-.668-.148-.161-.557-.403-.382-.716 12.608-.111 24.649-.047 37.348-.048 1.748 0 3.53.115 5.253-.144.215-1.03.096-2.158.096-3.295 0-1.131 0-2.31 0-3.486 0-2.339-.039-4.891.047-6.973-.002-.081.035-.123.095-.143z"/></g></svg>