<svg clip-rule="evenodd" fill-rule="evenodd" stroke-linejoin="round" stroke-miterlimit="2" viewBox="0 0 560 400" xmlns="http://www.w3.org/2000/svg"><g fill-rule="nonzero" transform="matrix(.441682 0 0 .441682 148.533 65)"><path d="m537.9 0h-480.4c-31.8 0-57.5 25.7-57.5 57.5s25.7 57.5 57.5 57.5h190.2l-123.9 215.6c-15.8 27.5-6.3 62.6 21.2 78.4 9 5.2 18.9 7.6 28.6 7.6 1.7 0 3.4-.1 5.1-.3-2.7 11.5-4.1 23.6-4.1 35.9 0 87.7 71.4 159.1 159.1 159.1s159.1-71.4 159.1-159.1-71.4-159.1-159.1-159.1c-22.6 0-44 4.7-63.5 13.2l69.3-120.7c12.9 37.1 48.1 63.7 89.6 63.7 52.4 0 94.9-42.5 94.9-94.9h-166.7l22.8-39.7h157.7c31.7 0 57.5-25.7 57.5-57.5s-25.7-57.2-57.4-57.2zm-204.2 386.9c36.1 0 65.5 29.4 65.5 65.5s-29.4 65.5-65.5 65.5-65.5-29.4-65.5-65.5 29.4-65.5 65.5-65.5z"/><path d="m192.9 154.6h-182.5c0 50.4 40.9 91.3 91.3 91.3s91.2-40.9 91.2-91.3z"/></g></svg>