<svg enable-background="new 0 0 70.109 72.749" viewBox="0 0 70.109 72.749" xmlns="http://www.w3.org/2000/svg"><g clip-rule="evenodd" fill-rule="evenodd"><path d="m69.816 34.374c-.779-.236-1.389-.838-2.014-1.31-1.863-1.405-3.688-2.969-5.588-4.379-7.564-5.616-15.113-11.335-22.604-17.118-.968-.682-2.108-1.652-3.222-2.466-.37-.271-.799-.641-1.209-.655-.688-.023-1.706.992-2.315 1.461-2.147 1.649-4.375 3.134-6.545 4.731-2.934 2.16-5.729 4.455-8.559 6.495-5.143 3.707-10.178 7.339-15.304 11.076-.693.506-1.305 1.281-2.215 1.41-.293-.479-.181-1.121-.151-1.763.056-1.215 0-2.489 0-3.927.001-.663-.109-1.405.051-1.913.181-.574 1.523-1.254 2.114-1.712 2.131-1.648 4.43-3.344 6.545-4.833 2.941-2.069 6.037-4.396 8.76-6.443 2.918-2.195 5.693-4.436 8.659-6.545 2.177-1.549 4.289-3.318 6.494-4.884.737-.523 1.465-1.146 2.215-1.561.525-.29 2.064 1.135 2.568 1.511 5.119 3.822 10.16 7.791 15.153 11.68 3.576 2.785 7.266 5.475 10.925 8.256 1.464 1.113 2.715 2.185 4.33 3.323.554.391 1.904 1.301 2.063 1.762.312.906.017 2.963 0 3.877-.013.715 0 1.393 0 2.064 0 .643.114 1.324-.151 1.863z"/><path d="m35.28 48.47c.652.092 1.081.627 1.562 1.006 1.395 1.103 2.902 2.157 4.379 3.223 1.902 1.371 3.779 2.849 5.79 4.329 2.783 2.051 5.775 4.374 8.659 6.545.928.698 1.981 1.652 3.021 2.014 2.479.863 4.788-1.456 3.978-3.775-.32-.917-1.394-1.789-2.216-2.417-6.112-4.67-12.304-9.084-18.325-13.845-1.775-1.144-3.424-2.645-5.235-3.977-.584-.43-1.441-.785-1.661-1.359-.187-.488-.051-1.2-.051-1.913 0-1.314 0-2.748 0-4.078 0-.661-.112-1.331.151-1.862.671.06 1.079.645 1.561 1.007 3.349 2.521 6.833 5.023 10.169 7.652 2.875 2.135 5.693 4.45 8.609 6.646.944.71 2.028 1.612 3.071 2.014 2.686 1.032 5.134-1.905 3.776-4.229-.595-1.017-2.101-2.093-3.173-2.869-3.581-2.594-6.66-5.224-10.32-7.804-2.25-1.585-4.517-3.506-6.847-5.235-1.695-1.26-3.393-2.479-5.236-3.826-.599-.438-1.406-1.157-1.862-1.158-.532-.001-1.375.798-1.862 1.158-2.981 2.204-5.833 4.24-8.71 6.393-1.148.859-2.316 1.695-3.322 2.719-.154 10.51-.033 21.015-.201 31.767-.275.652-.975.949-1.511 1.359-1.078.825-2.179 1.615-3.322 2.417-.528.37-1.018.968-1.712 1.007-.313-1.196-.106-2.482-.101-3.726.034-8.014.051-15.584.051-23.763 0-.666-.022-1.362 0-2.014.02-.558.181-1.199-.201-1.661-.755.026-1.3.643-1.863 1.058-3.4 2.505-6.866 5.051-10.32 7.551-.548.397-1.131.967-1.862 1.007-.191-1.723-.101-3.892-.101-5.89 0-.692-.116-1.485.05-1.964.18-.514 1.449-1.301 2.064-1.762.794-.595 1.593-1.08 2.215-1.561 4.236-3.276 8.832-6.515 13.09-9.616 2.951-2.149 5.707-4.238 8.659-6.494 2.099-1.604 4.31-3.122 6.545-4.782.773-.575 1.521-1.345 2.164-1.611.507-.209 1.203.434 1.763.855 6.938 5.222 13.984 10.546 20.792 15.758 2.678 2.05 5.636 4.186 8.307 6.344 2.545 2.056 5.015 5.385 3.927 10.119-.472 2.053-1.374 3.227-2.869 4.43-.341.274-1.235.791-1.259 1.158-.027.417.757.899 1.107 1.209 1.126.998 2.14 2.628 2.618 4.229.824 2.763.26 5.44-.855 7.451-1.668 2.783-4.507 5.247-8.56 5.034-4.315-.228-6.466-2.587-9.162-4.531-1.321-.953-2.573-1.962-3.877-2.97-2.542-1.968-5.159-3.837-7.854-5.841-.577-.429-1.269-.891-1.964-1.46-.55-.45-1.648-1.092-1.811-1.61-.15-.476 0-1.254 0-1.964-.001-.69 0-1.409 0-2.014-.005-1.44-.12-2.87.147-3.878z"/></g></svg>