<svg enable-background="new 0 0 74.685 75.811" viewBox="0 0 74.685 75.811" xmlns="http://www.w3.org/2000/svg"><g clip-rule="evenodd" fill-rule="evenodd"><path d="m74.538.289c.01.038.049.048.049.096.188 12.579.049 25.095.048 37.61-.001 6.147.112 12.447 0 18.757-.112 6.316.182 12.747-.097 18.901-1.452.241-2.941.131-4.424.145-4.655.044-9.173-.048-13.756-.096-18.725-.198-37.518.094-56.03-.241-.078.014-.083-.045-.145-.048-.331-6.149.073-12.46-.145-18.757-.109-3.187.174-6.371.048-9.524-.122-3.07.064-6.121-.048-9.138-.109-2.973.048-6.145.048-9.33.001-9.28-.051-18.363 0-27.703.002-.296-.114-.755.242-.961 24.406.021 49.85-.002 74.21.289zm-19.959 2.452c-11.345 0-22.481-.097-34.147-.096-5.34 0-11.815-.21-17.267 0-.255.655-.145 1.383-.145 2.068.002 23.365-.108 45.468.049 67.477 0 .049.038.058.048.097.602.288 1.293.157 1.924.145.719-.015 1.443 0 2.164 0 21.194-.003 43.184.322 64.352.192.098-.015.094-.13.192-.145.165-16.959.097-34.807.096-52.279 0-4.413 0-8.88 0-13.082 0-1.512.146-2.986-.192-4.232-5.638-.252-11.352-.145-17.074-.145z"/><path d="m30.243 37.322c.332.794.192 1.794.192 2.741v5.867c0 .96-.113 1.918.145 2.741.755-.184 1.245-.809 1.875-1.202.601-.375 1.292-.749 2.021-1.01 2.759-.986 6.326-.622 8.608.625 2.612 1.427 4.358 4.134 5.147 7.455.828 3.489.364 7.838-1.154 10.581-1.496 2.428-3.864 4.734-7.358 5.242-3.198.465-5.978-.441-7.695-1.684-.602-.435-1.014-1.115-1.731-1.395-.477.534.065 2.086-.337 2.693-.501.234-1.756.216-2.26 0-.288-1.129-.145-2.502-.145-3.896 0-8.121-.001-16.413 0-24.962 0-1.052-.257-3.642.337-3.848.502-.17 1.749-.038 2.355.052zm12.456 12.89c-1.634-1.44-4.715-2.415-7.358-1.443-1.775.652-3.285 1.876-4.185 3.463-.888 1.568-1.271 3.84-1.25 6.012.052 5.363 3.199 10.366 9.042 9.764 2.746-.283 4.437-2.211 5.675-4.425 2.239-4.509.963-10.826-1.924-13.371z"/><path d="m25.289 67.525c.152.551.156 1.663 0 2.213-1.204.621-2.93.217-3.8-.433-.574-.43-.678-1.112-1.25-1.396-.873.254-1.082.795-1.684 1.154-2.49 1.49-6.921 1.728-9.667.241-1.167-.633-2.116-1.642-2.79-2.742-.712-1.165-1.18-2.707-1.106-4.376.143-3.255 1.991-5.458 4.617-6.397 1.682-.601 3.8-.905 5.771-1.25 2.383-.416 5.995-.775 4.761-3.8-.266-.651-.909-1.419-1.539-1.876-2.298-1.665-6.867-1.425-8.801.289-.869.75-1.198 2.04-1.731 3.126-.719.122-2.221.245-2.79-.096-.074-1.114.398-2.123.866-2.935 1.33-2.311 3.955-3.703 7.214-3.943 3.688-.271 6.423.704 8.225 2.549 1.845 1.863 1.587 5.425 1.587 9.042v7.936c0 .801-.07 1.647.433 2.213.355.367 1.18.264 1.684.481zm-7.936-10.628c-2.395.46-5.423.689-7.166 1.684-1.337.763-2.476 2.218-2.213 4.568.192 1.716 1.383 3.266 2.838 3.992 3.825 1.911 8.276-.32 9.282-3.271.133-.389.214-.923.24-1.298.079-1.103 0-3.503 0-4.954 0-.942-.032-1.275-.529-1.299-.787-.037-1.616.417-2.452.578z"/><path d="m67.998 52.905c-.522-.446-.629-.967-.963-1.443-1.291-1.848-3.488-3.135-6.155-3.126-2.07.006-3.802.732-5.051 1.779-2.044 1.715-3.224 4.573-3.078 8.224.182 4.522 2.375 8.266 5.916 9.523 2.38.845 5.178.059 6.686-1.058.799-.592 1.521-1.392 2.164-2.357.182-.272.438-.763.674-.817.394-.091.866.223 1.202.385.379.184.712.353.865.674-.888 2.475-3.119 4.496-5.627 5.29-1.984.628-4.448.6-6.301.145-4.72-1.162-7.251-4.838-8.08-9.764-.551-3.274.035-6.613 1.299-9.042 1.415-2.719 4.775-5.31 8.802-5.339 2.287-.016 4.405.496 6.156 1.54 1.109.66 2.179 1.735 2.934 2.933.219.348.616 1.006.577 1.348-.079.687-1.197.961-2.02 1.105z"/></g></svg>