<svg enable-background="new 0 0 80.708 80.914" viewBox="0 0 80.708 80.914" xmlns="http://www.w3.org/2000/svg"><path clip-rule="evenodd" d="m80.457.111c.363 13.211.006 27.109.206 40.242.103 6.805 0 13.711 0 20.481 0 6.746.127 13.363-.052 19.914-.046.023-.092.045-.103.103-27.083.119-53.663.041-80.276 0-.302-1.58-.103-3.217-.103-4.838 0-25.219-.252-50.893-.051-75.799.947-.279 1.949-.154 2.933-.154 5.034 0 9.927-.051 15.129-.051 20.706 0 41.667-.054 62.317.102zm-8.08 4.889c-3.191 0-6.505.002-9.829 0-8.691-.002-17.388.002-26.244 0-4.236 0-9.033-.197-13.276 0-5.979.277-12.177-.317-17.959.154-.171 4.41-.172 9.535 0 13.945 1.962.332 4.064.104 6.175.104 5.243 0 10.872.076 15.85 0 1.007-.016 2.045-.199 2.984.154.119 4.277.052 8.877.052 13.277 0 1.463-.023 2.924.154 4.27 1.595.338 3.266.078 4.94.154 4.751.221 9.924-.02 14.975 0 .278-1.379.154-2.914.154-4.424 0-3.771.087-7.875 0-11.27-.019-.713-.153-1.432.154-2.059 8.16-.238 17.036.059 25.009-.207.223-2.105.103-4.506.103-6.894 0-2.416.085-4.852-.103-7.051-1.021-.277-2.097-.153-3.139-.153zm-54.546 19.195c-2.42-.049-4.882-.164-7.256-.053-1.794.086-3.757-.08-5.455.207-.474 4.143.101 8.455-.103 12.762-.101 2.147 0 4.305 0 6.482 0 2.178-.06 4.381 0 6.537.185 6.656-.16 13.375 0 19.606.027 1.031-.045 2.057 0 3.088.044 1.008-.091 2.062.206 3.035 6.235.059 13.638.185 19.966-.104.32-6.252-.107-12.832.206-19.246 2.236-.152 4.614-.23 7.05-.152 7.506.24 15.465-.094 22.848.152.251 3.029.154 6.312.154 9.572v7.359c0 .801-.113 1.621.155 2.367 4.813.188 10.143.104 15.077.102 1.683 0 3.373.125 4.94-.154.222-8.506.052-17.018.052-25.625 0-8.646.119-17.521-.154-25.885-4.693-.182-10.11-.104-15.078-.104-1.713 0-3.409-.115-4.992.154-.277 1.389-.154 2.904-.154 4.375 0 4.619.107 9.012-.103 13.275-4.679.26-9.791.105-14.923.104-3.839.001-7.751-.049-11.424-.049-1.197 0-2.424.139-3.551-.104-.306-5.701.113-12.309-.257-17.65-2.349-.278-4.781-.004-7.204-.051zm23.105 37.203c-3.237-.031-6.519-.141-9.571 0-.317.016-.715-.07-.978.104-.171 4.496-.171 9.707 0 14.203.74.283 1.571.133 2.367.154 4.933.137 10.552-.057 15.232.104.824.027 1.663.098 2.418-.154.082-3.389.243-7.404.103-10.91-.047-1.17.093-2.318-.154-3.344-3.006-.247-6.212-.124-9.417-.157z" fill-rule="evenodd"/></svg>