<svg enable-background="new 0 0 244.837 244.641" viewBox="0 0 244.837 244.641" xmlns="http://www.w3.org/2000/svg"><path clip-rule="evenodd" d="m122.385.115c20.368-.97 37.285 4.34 51.06 10.428 14.313 6.325 26.188 15.037 36.078 25.291 5.119 5.307 9.872 10.649 13.904 16.781 8.017 12.191 15.155 25.468 18.698 42.67 3.533 17.155 3.816 38.026-.359 54.537-8.304 32.831-25.431 55.858-49.742 72.995-17.248 12.157-41.377 22.197-69.759 21.814-38.372-.517-65.937-15.936-86.42-35.719-5.061-4.888-9.959-10.648-14.024-16.66-11.817-17.478-22.14-40.521-21.814-69.759.214-19.218 4.208-36.491 10.788-50.102 13.352-27.622 33.547-48.621 61.249-61.489 10.552-4.901 22.383-8.428 35.719-10.068 4.624-.569 9.324-.467 14.622-.719zm42.91 201.006c-11.482-.187-21.453-4.173-28.767-9.349-7.49-5.302-13.487-11.854-17.619-20.736-3.906-8.395-6.891-20.281-3.835-31.643 2.632-9.791 8.91-16.925 16.78-21.455 8.251-4.749 21.006-6.394 30.325-1.318 7.567 4.122 14.027 13.058 13.425 24.691-.303 5.83-2.949 10.359-7.672 11.506-6.335 1.54-10.101-2.966-10.428-8.27-.15-2.446.39-4.497 0-6.353-1.213-5.782-7.251-8.141-13.783-5.873-6.46 2.242-11.801 8.21-11.627 16.9.326 16.27 10.857 28.026 24.212 32.243 16.75 5.289 34.604-2.437 44.349-9.23 11.197-7.806 19.544-18.553 23.853-33.201 4.615-15.693 1.823-35.76-2.518-49.383-4.635-14.544-12.286-26.068-20.735-36.318-8.487-10.294-19.497-18.548-32.123-24.811-14.207-7.046-33.149-12.106-53.937-10.308-7.38.639-14.18 1.821-20.736 3.716-24.99 7.225-44.316 21.943-57.533 41.112-9.057 13.136-15.613 28.631-17.979 47.584-2.513 20.132 1.745 39.153 8.51 54.657 6.273 14.374 16.392 27.464 28.407 37.396 12.092 9.996 27.182 17.869 44.349 21.455 18.996 3.968 41.405 2.523 57.293-3.476 14.864-5.612 27.968-13.395 37.996-23.613.576-.587 1.43-1.263 1.559-2.157-9.729 4.119-20.056 6.425-31.766 6.234zm4.316 32.243c.383.169.303-.717.12-.719-.139.141-.136.423-.12.719z" fill-rule="evenodd"/></svg>