<svg enable-background="new 0 0 67.009 72.192" viewBox="0 0 67.009 72.192" xmlns="http://www.w3.org/2000/svg"><g clip-rule="evenodd" fill-rule="evenodd"><path d="m58.352.01c2.722-.136 4.807 1.173 6.323 2.69 1.48 1.48 2.495 3.966 2.312 6.654-.094 1.373-.435 2.247-.944 3.256-1.125 2.229-3.291 4.121-6.135 4.577-1.57.252-3.555-.077-5.002-.802-1.142-.572-2.66-1.826-3.304-3.02-.476-.883-1.077-2.606-1.18-3.87-.166-2.047.401-4.455 1.18-5.71.637-1.027 1.774-2.062 3.021-2.737 1.016-.55 2.339-.968 3.729-1.038z"/><path d="m32.727 3.738c.29 4.797-.092 9.993.189 14.818.621.253 1.32.142 1.982.142 10.225-.002 20.654-.044 30.485.094.255 1.065.141 2.169.141 3.256.001 16.752-.002 33.452-.141 49.975-1.25.255-2.544.141-3.823.142-6.442 0-13.186-.074-19.442 0-1.279.015-2.548.054-3.822 0-1.304-.055-2.601.089-3.87-.047-4.291-.462-7.928-2.878-10.382-5.332-1.954-1.955-3.416-4.323-4.53-7.22-.366-.953-.747-2.018-.849-3.067-.179-1.832-.001-3.835 0-5.805 0-3.838-.001-7.741 0-11.609 0-1.92.082-3.803-.095-5.616-.697-.251-1.466-.142-2.219-.142-5.325.001-11.04-.04-16.233-.236-.156-4.594-.157-9.846 0-14.44 5.859-.223 12.675.196 18.452 0 .244-2.356.094-4.84.095-7.362 0-1.217.047-2.491.047-3.775 0-1.27-.115-2.586.142-3.775 4.296-.168 9.697-.063 13.873-.001zm16.847 29.588c-4.014 0-7.499.061-11.42 0-1.459-.022-3.323-.194-4.719 0-.574.08-.539.131-.566.991-.167 5.228-.048 9.941-.048 15.29 0 2.223.031 3.69.708 5.05.315.632 1.224 1.565 2.029 1.982 1.135.586 2.746.614 4.483.614h7.928c1.285 0 2.578.091 3.775-.142.162-7.663.148-16.155 0-23.643-.701-.253-1.461-.141-2.17-.142z"/></g></svg>