<svg enable-background="new 0 0 15.171 15.018" viewBox="0 0 15.171 15.018" xmlns="http://www.w3.org/2000/svg"><path d="m11.366.024c.162-.059.331.011.498 0 .246.038.495.079.73.166.064.021.127.043.189.066.198.082.392.176.573.292.493.296.917.706 1.223 1.195.537.834.717 1.887.49 2.853-.264 1.205-1.169 2.239-2.322 2.671-.404.163-.838.225-1.27.258.435-.002.866.1 1.273.247.946.371 1.742 1.133 2.121 2.08.066.142.1.296.156.442.052.232.115.463.107.703.053.185.047.377 0 .562.009.179-.039.349-.059.525-.048.067-.025.158-.076.224-.003.024-.009.071-.012.095-.027.041-.044.086-.05.135-.034.073-.061.149-.088.226-.063.132-.121.268-.201.391-.273.479-.653.899-1.113 1.206-.056.037-.112.074-.168.11-.132.08-.269.151-.405.225-.075.027-.151.054-.223.089-.325.124-.667.188-1.009.235-1.382-.004-2.765.007-4.147-.005-.715-.707-1.437-1.407-2.148-2.119-.529-.535-1.096-1.033-1.6-1.591 1.238.006 2.477.002 3.715.003.008-1.149-.01-2.298.009-3.447.011-1.375-.003-2.749.006-4.121 1.268-.002 2.535 0 3.802-.001-.001-1.239.002-2.477-.001-3.715z"/><path d="m0 3.761c1.278-.02 2.557-.004 3.835-.008-.005 1.252.024 2.503.012 3.755-.073-.008-.121-.063-.166-.113-.645-.654-1.31-1.287-1.957-1.938-.579-.56-1.136-1.145-1.724-1.696z"/></svg>