<svg enable-background="new 0 0 38.123 39.305" viewBox="0 0 38.123 39.305" xmlns="http://www.w3.org/2000/svg"><path d="m14.685.296c6.105-.038 12.217.013 18.312-.296.217 1.843.356 3.706.563 5.556.053.211-.22.19-.348.151-.31-1.352-.586-2.948-1.819-3.785-1.409-.737-3.061-.664-4.6-.82-1.851-.074-3.705-.079-5.558-.106-.459-.033-.98.264-1.007.761-.008 4.205.034 8.408.022 12.614-.221.143-.486.194-.724.302-.802-.468-1.513-1.082-2.17-1.735-.004-3.685-.033-7.367-.025-11.052.016-.453-.401-.862-.856-.826-2.585.058-5.182-.094-7.753.208-.897.108-1.887.252-2.541.938-.919.984-1.554 2.238-1.82 3.555-.108.055-.246.047-.316-.064.146-1.89.309-3.78.46-5.67 3.387.216 6.786.196 10.18.269z"/><path d="m20.345 2.825c1.376.114 2.701.736 3.677 1.711 1.83 1.81 2.246 4.875.897 7.081-1.055 1.784-2.873 2.964-4.763 3.709 3.056 1.949 5.891 4.31 8.11 7.192.652.847 1.209 1.774 1.832 2.631.168-.765.149-1.549.117-2.327-.025-.276-.183-.647.091-.844.36.012.372.479.375.751.1 1.083.003 2.178-.204 3.242.183.454.489.859.636 1.328-.685.106-1.447.172-2.099-.095-2.76-4.511-6.55-8.393-11.024-11.214-3.057 1.199-5.936 3.425-7.042 6.617-.49 1.426-.696 2.976-.468 4.473-.714.301-1.516.309-2.282.363-.235-2.17.24-4.455 1.483-6.269 1.818-2.673 4.766-4.264 7.632-5.586-.984-.69-1.912-1.478-2.663-2.422-1.023-1.365-1.805-3.004-1.725-4.746.071-.492.081-1 .254-1.473.547-1.881 2.182-3.33 4.043-3.853.007.241.008.482.003.723-2.119 1.369-2.735 4.4-1.76 6.64.812 1.856 2.372 3.275 4.039 4.367.885-.325 1.74-.755 2.457-1.376 1.544-1.306 1.958-3.512 1.613-5.426-.273-1.903-1.26-3.989-3.224-4.612-.011-.193-.01-.389-.005-.585z"/><path d="m26.921 12.817c2.691-1.107 6.02-.827 8.34.998 3.197 2.532 3.723 7.564 1.539 10.909-1.034 1.626-2.756 2.758-4.632 3.162-2.338.491-4.965.194-6.921-1.259-2.262-1.619-3.162-4.56-2.962-7.244.892.789 1.748 1.625 2.556 2.5.291 1.359.77 2.721 1.664 3.807 1.058 1.374 2.897 2.125 4.604 1.742.769-.131 1.512-.447 2.118-.941 1.7-1.319 2.378-3.531 2.527-5.6.04-2.396-.603-4.945-2.32-6.699-.976-.975-2.382-1.54-3.763-1.356-1.09.121-2.109.656-2.865 1.444-1.174 1.132-1.781 2.719-2.058 4.298-.646-.505-1.27-1.043-1.922-1.541.736-1.871 2.246-3.427 4.095-4.22z"/><path d="m3.308 13.683c1.761-1.215 4.02-1.447 6.087-1.118.867.19 1.71.468 2.545.768.407.156.986.076 1.082-.426.124-.049.255-.011.381.002-.004 1.232.052 2.466 0 3.696-.121.05-.305.054-.351-.097-.381-.884-.916-1.712-1.646-2.348-1.953-1.674-5.213-1.586-7.006.291-1.233 1.246-1.889 2.963-2.113 4.677-.307 2.32.233 4.836 1.817 6.613.889 1.023 2.162 1.742 3.525 1.827 1.558.019 3.242-.164 4.503-1.172.643-.468 1.069-1.158 1.498-1.813.151-.23.227-.531.465-.688.291.128.068.486-.009.692-.607 1.524-1.934 2.69-3.47 3.223-2.607.841-5.714.552-7.894-1.2-1.725-1.369-2.629-3.579-2.708-5.746-.142-2.721.989-5.618 3.294-7.181z"/><path d="m17.362 16.393c.265-.047.553-.382.807-.151.693.495 1.424.944 2.084 1.48.032 5.474.032 10.951.041 16.426.025.724.011 1.459.146 2.174.096.701.293 1.496.935 1.896.807.478 1.775.384 2.671.487.128.127.135.408.004.545-2.202-.067-4.408-.151-6.612-.064-1.202.018-2.401.098-3.603.116-.298.038-.225-.36-.172-.538.888-.09 1.87.012 2.66-.493.491-.299.725-.868.841-1.408.201-.819.176-1.663.228-2.498.015-5.992-.032-11.981-.03-17.972z"/><path d="m8.352 28.385c.768-.074 1.531-.221 2.273-.444.512 2.15 1.754 4.184 3.655 5.374.881.625 1.936.926 2.982 1.138-.023.402-.035.806-.065 1.208-1.89-.155-3.757-.784-5.318-1.874-1.814-1.256-3.09-3.245-3.527-5.402z"/><path d="m29.148 28.167c.768.12 1.554.092 2.319-.036.164-.057.21.157.29.255.613 1.039 1.157 2.254 2.289 2.823.52.274 1.125.253 1.691.184.182-.024.267.264.085.323-1.149.291-2.415.313-3.508-.195-1.312-.586-1.961-1.971-2.608-3.166-.721 1.931-1.832 3.78-3.492 5.046-1.626 1.291-3.654 2.079-5.718 2.244-.056-.385-.055-.772-.051-1.159 2.428-.173 4.937-.968 6.645-2.783.996-.968 1.577-2.258 2.058-3.536z"/></svg>