<svg enable-background="new 0 0 81.191 46.318" viewBox="0 0 81.191 46.318" xmlns="http://www.w3.org/2000/svg"><g clip-rule="evenodd" fill-rule="evenodd"><path d="m65.586.268c.296 3.04-.098 6.769.199 9.808.825.194 1.54-.045 2.34-.049 2.833-.015 5.158.882 6.97 2.091 3.442 2.295 6.376 6.235 6.074 11.999-.201 3.83-2.132 7.124-4.431 9.111-1.627 1.406-3.489 2.527-5.975 3.087-1.244.28-2.647.199-4.282.199-4.316 0-9.521.446-12.795-.747-.414-.15-1.026-.433-1.543-.697-.38-.193-1.108-.741-1.494-.747-.377-.006-1.034.501-1.444.747-2.059 1.232-4.764 1.988-8.215 1.693-.273.698-.141 1.53-.149 2.34-.024 2.237.036 4.866-.149 7.12-6.801.135-13.834.119-20.563 0-.256-3.212.097-6.827-.1-10.157-3.216-.101-6.581.071-9.808-.1-.267-.992-.149-2.058-.149-3.086 0-7.009.181-14.702-.05-22.106-3.418-.25-6.538.131-9.858-.149-.298-1.585-.1-3.426-.1-5.227 0-1.814-.093-3.657.1-5.228 5.592-.308 11.857-.101 17.774-.1 15.725.001 31.86.016 47.648.198zm-2.639.398c-13.237 0-26.47-.099-39.432-.1-3.052 0-6.084.044-9.012.05-1.464.003-2.924-.224-4.332.1-.197 3.089-.101 6.736-.05 9.908 2.881.273 6.773-.081 9.808.199.236 8.225.027 17.004.1 25.192 2.979.025 6.673.037 9.758-.05.267-.966.149-2.022.149-3.037 0-6.396 0-12.95 0-19.268 0-1.034-.12-2.104.149-3.087 1.866-.217 3.982-.05 6.024-.05 2.097 0 4.196-.115 6.024.199-4.557.585-7.493 2.592-9.56 5.626-.749 1.101-1.345 2.271-1.742 3.585-.429 1.416-.409 3.055-.399 4.879.026 4.867 0 10.304 0 15.534 0 1.732-.126 3.492.1 5.178 3.012.126 6.562.239 9.559.05.27-1.446.149-3.186.149-4.83 0-.808-.008-1.622 0-2.39.008-.803-.104-1.615.149-2.29 1.072.031 2.057.202 3.037.149 1.046-.056 1.967-.213 2.888-.497 4.213-1.304 7.223-4.316 8.464-8.464.26-.869.291-1.802.647-2.738.64 2.613 1.396 5.109 2.987 6.771 2.375 3.115 6.716 5.537 12.099 4.48 4.374-.858 7.729-3.839 9.26-7.816.858-2.227 1.146-4.953.598-7.319-.535-2.307-1.491-4.247-2.838-5.726-2.018-2.216-4.714-3.906-8.514-4.282-1.271-.125-2.491.157-3.834.249-.298-3.124.084-7.101-.149-10.007-.652-.285-1.392-.198-2.087-.198z"/><path d="m55.429 10.674c.265.865.15 1.862.15 2.838 0 2.859.056 6.02-.15 8.713-.425-1.6-.792-3.064-1.443-4.381-1.911-3.864-5.318-6.266-10.306-7.12 3.388-.264 8.107-.195 11.749-.05z"/><path d="m67.577 20.432c1.39-.328 2.547.554 2.987 1.294 1.148 1.933-.304 4.481-2.489 4.481-1.619 0-2.874-1.226-2.788-3.485.375-1.151.986-2.067 2.29-2.29z"/><path d="m42.036 26.307c-1.095-.664-2.036-1.482-1.892-3.385.373-1.076 1.061-2.198 2.241-2.34 4.17-.502 4.311 6.633-.349 5.725z"/></g></svg>