<svg fill="none" viewBox="0 0 130 121" xmlns="http://www.w3.org/2000/svg"><path clip-rule="evenodd" d="m22.423.509075c-.173.322714-.2729 3.833355-.2729 9.589025 0 7.9033.0538 9.1334.4143 9.4935.3451.3443 1.1839.4135 5.0101.4135h4.5959v1.5794 1.5793h-4.5959c-3.8262 0-4.665.0692-5.0101.4135-.3616.3609-.4143 1.6347-.4143 9.9839s.0527 9.623.4143 9.9839c.3451.3443 1.185.4135 5.0222.4135h4.6078l-.0778 1.7768-.0781 1.7767-4.5953.0722c-2.8434.0447-4.7283.1824-4.9442.3614-.4939.409-.5121 18.3304-.0193 18.9919.2872.3851 1.0324.4512 5.7722.511l5.4426.0687-5.8381 10.411-5.8381 10.4111-.1319-4.3129c-.1187-3.8789-.1833-4.3506-.6437-4.686-.42-.3061-2.2907-.3729-10.4408-.3729-9.28436 0-9.957559.0313-10.365491.4814-.3976466.4388-.436409 2.1995-.436409 19.8906 0 12.8764.0917657 19.5814.272922 19.9184.26501.495.715659.509 15.516978.509 14.1918 0 15.2711-.031 15.639-.46.2173-.253 3.9838-6.443 8.3701-13.754 4.3862-7.3108 8.0595-13.3813 8.1626-13.4897.1033-.1082 3.0517 5.1036 6.5519 11.5817 9.8376 18.208 9.1989 17.111 10.0817 17.305.4233.093.9841.053 1.2462-.089.2624-.141 3.7297-6.279 7.7054-13.639 3.9757-7.3604 7.4917-13.8373 7.8139-14.3933l.5857-1.011 7.6632 12.7243c4.2146 6.999 8.023 13.288 8.4631 13.975l.8001 1.25h15.2902c14.848 0 15.299-.014 15.564-.509.181-.338.273-7.065.273-19.99v-19.481l-.586-.4096c-.505-.3533-1.946-.4098-10.416-.4098-9.554 0-9.845.015-10.369.5388-.507.5054-.535.8012-.462 4.7386.043 2.3095.019 4.1955-.053 4.1905-.073-.005-2.754-4.7136-5.958-10.4635l-5.8263-10.4547 6.0683-.0709c3.937-.0457 6.192-.1726 6.42-.3611.485-.4019.517-18.6432.034-19.1257-.222-.2213-1.682-.3158-4.878-.3158h-4.5622v-1.8426-1.8426h4.3682c2.507 0 4.586-.1161 4.878-.2724.49-.2619.51-.6515.51-9.9499 0-7.1761-.081-9.7591-.316-9.9934-.222-.2214-1.682-.3159-4.878-.3159h-4.5622v-1.8425-1.8426h4.8782 4.878v-9.87096-9.87094h-8.965-8.9657v5.93283 5.93287l-2.3073-.0761-2.3073-.0761-.1318-5.79093-.1319-5.790957-8.8023-.0694939c-6.2764-.0494863-8.9059.0165875-9.1632.2297999-.2851.23585-.361 1.484851-.361 5.925991v5.62719h-2.3733-2.3732v-5.60666c0-4.00971-.0902-5.696719-.3164-5.922567-.2331-.2326906-2.5784-.315873-8.9128-.315873s-8.6797.0831824-8.9128.315873c-.2262.225848-.3164 1.912857-.3164 5.922567v5.60666h-2.3732-2.3733v-5.60666c0-4.00971-.0901-5.696719-.3164-5.922567-.2328-.2324274-2.5293-.315873-8.6926-.315873-8.0112 0-8.388.0221084-8.6491.509075zm69.3417 20.285725v1.5793h-11.359-11.3591l-.7573.756c-1.4218 1.4193-1.4957.9505 2.5457 16.1878.6476 2.4422 1.1278 4.4901 1.0669 4.5509s-1.4904.2483-3.1767.4165c-2.3289.2324-3.803.2324-6.1319 0-1.6863-.1682-3.1108-.3507-3.1656-.4051-.0546-.0548.0124-.4444.149-.8661.7665-2.3653 4.5004-17.3117 4.5004-18.0148 0-.5989-.2537-1.0885-.8966-1.7302l-.8965-.895h-11.3651-11.3651v-1.5793-1.5794h26.1054 26.1055zm-35.9886 10.5948c-.6374 1.7736-2.0674 5.7107-3.1775 8.7491-2.1362 5.8467-2.2738 6.7056-1.2565 7.8278.708.781 1.4706 1.086 5.1747 2.0694l3.3829.8982-.1598 1.0113c-.5076 3.2161-3.7262 6.1502-9.0235 8.2263-2.8284 1.1084-7.0836 2.1953-9.3827 2.3964l-1.7799.1558v-15.3184c0-16.7906-.0325-16.4328 1.5621-17.256 2.3379-1.2068 6.645-1.9028 12.0726-1.9512l3.7465-.0332zm28.4734-2.8291c3.8702.5759 6.0119 1.2834 6.833 2.2576l.6822.8092v15.5482 15.5482l-1.6808-.1567c-1.796-.1674-5.9454-1.1529-8.3616-1.9857-5.6504-1.9476-9.5124-5.2751-10.1284-8.7259l-.1646-.9213 3.3777-.8874c1.8577-.4877 3.7684-1.0666 4.2462-1.2856.9804-.4498 1.6365-1.5106 1.6365-2.6454 0-.4206-1.3646-4.5224-3.0325-9.1155-1.6678-4.593-3.0325-8.4597-3.0325-8.5929 0-.3857 6.7231-.2785 9.6248.1532zm-38.2569 3.2671c-.8309.3575-1.9152 1.7747-2.0966 2.7407-.2313 1.2301.5215 2.9397 1.5826 3.5943 1.3567.8368 3.0684.7221 4.2149-.2827 1.7599-1.5422 1.8221-3.767.1506-5.3655-.8349-.7984-2.7836-1.1459-3.8515-.6868zm36.136.2498c-1.189.7239-1.7026 1.6741-1.7026 3.15 0 2.0508 1.4772 3.4678 3.6125 3.4656 2.6264-.0026 4.2457-2.7091 3.0836-5.1536-.8469-1.7813-3.2927-2.4973-4.9935-1.462zm-13.8789 24.3307c1.1619 2.1134 3.0446 4.3461 4.6347 5.4959l1.0284.7436h-8.0608-8.0608l2.2859-2.3032c1.5326-1.5441 2.5903-2.8881 3.2089-4.0779l.9229-1.7744 1.4925-.0024 1.4922-.0021z" fill="#000" fill-rule="evenodd"/></svg>