<svg enable-background="new 0 0 75.53 22.488" viewBox="0 0 75.53 22.488" xmlns="http://www.w3.org/2000/svg"><g clip-rule="evenodd" fill-rule="evenodd"><path d="m37.914 8.585c6.575.154 13.317.026 19.92.046.448-.397.498-1.074.732-1.649.639-1.565.992-3.781 1.74-5.266.278-.551.686-.979 1.237-1.236 2.98.09 6.395-.279 9.067-.046 1.967.172 3.646 1.619 4.396 3.023.523.979.723 3.017.275 4.488-.299.98-.836 1.609-1.557 2.244-.454.447-1.179.622-1.557 1.145.578 1.148 1.302 1.95 1.465 3.343.165 1.403-.157 2.779-.778 3.893-1.048 1.878-3.474 3.418-6.274 3.48-2.528.057-5.169-.046-7.968-.046-.925 0-1.826.081-2.518-.137-2.267-.714-1.076-3.618-.504-5.404.343-1.069.741-2.113.87-3.16-.7-.248-1.489-.138-2.244-.137-5.504 0-10.815.003-16.211 0-.308.514-.365 1.097-.504 1.602-.733 2.676-2.405 4.554-4.533 5.953-.832.547-1.795 1.094-2.794 1.374-3.575 1.002-7.078-.034-9.296-1.694-2.356-1.764-3.823-4.182-4.305-7.373-.566-3.754.611-6.723 2.381-8.93 1.745-2.174 4.203-3.847 7.785-4.076 3.354-.214 5.456 1.176 7.327 2.564 1.286 1.159 2.435 2.518 3.16 4.259.235.563.328 1.197.688 1.74zm-5.496-1.969c-.941-1.133-2.208-1.974-3.847-2.336-.107 0-.213 0-.321 0-.067.04-.145.068-.137.183.864 1.218 2.022 2.246 3.389 2.931.456.229.976.58 1.557.504.033-.5-.359-.942-.641-1.282zm38.834 0c.068-.853-.564-1.702-1.328-1.923-1.356-.393-4.227.074-5.541-.046-.48.398-.659 1.13-.87 1.786-.214.667-.477 1.405-.458 2.106 3.03.148 7.977.826 8.197-1.923zm-44.1 3.069c-.726-.618-1.398-1.289-2.015-2.015-.563-.193-1.272-2.555-2.061-2.061-.795.497-1.698 1.603-2.152 2.61-1.16 2.573-.415 6.12 1.053 7.694 1.356 1.35 3.087 2.626 5.816 2.427 3.074-.224 5.62-2.552 5.999-5.404-2.593-.705-4.871-1.724-6.64-3.251zm33.704 5.541c-.15.437-.757 1.6-.55 2.107.228.556 1.767.366 2.748.366 2.833 0 5.556.193 6.045-2.015.24-1.083-.462-2.212-1.373-2.473-.619-.177-1.836-.092-2.61-.091-1.394.002-2.481-.069-3.48.137-.285.598-.522 1.22-.78 1.969z"/><path d="m12.04 4.418c-.444.623-.643 1.414-.87 2.152-1.172 3.809-2.334 7.488-3.618 11.311-.47 1.4-.847 3.275-2.198 3.755-1.537.545-2.916-.643-2.748-2.473.111-1.208.727-2.503 1.099-3.709 1.096-3.556 2.475-7.344 3.389-10.899-.879-.246-2.055-.137-3.16-.137-1.674 0-3.344-.031-3.801-1.282-.444-1.216.289-2.459 1.237-2.702.919-.236 2.236-.046 3.48-.046h3.526c2.612 0 5.338-.028 7.19-.046.858-.008 1.878.134 2.427.549.969.733 1.046 2.668-.183 3.297-.729.373-1.772.183-2.793.183s-2.02-.035-2.977.047z"/></g></svg>