<svg enable-background="new 0 0 79.339 44.537" viewBox="0 0 79.339 44.537" xmlns="http://www.w3.org/2000/svg"><g clip-rule="evenodd" fill-rule="evenodd"><path d="m23.307.257c.274 1.675.152 3.521.152 5.416 0 12.719-.026 25.878-.152 38.619-1.002.281-2.861.184-3.948.051-.311-13.054.154-26.465-.151-39.632-6.168-.391-12.656-.017-19.082-.304-.168-1.194-.168-3.058 0-4.251 3.656-.276 8.174-.102 12.299-.102 3.735.001 7.437.046 10.882.203z"/><path d="m50.69.308c.164 1.177.17 3.025 0 4.201-7.482.104-15.85.157-23.385-.101-.178-.564-.101-1.378-.101-2.126 0-.77-.11-1.557.152-2.075 7.555.054 15.782-.126 23.334.101z"/><path d="m60.915 24.653c.104.52.559.863.91 1.215 5.182 5.182 10.18 10.756 15.387 15.994.301.454.773.803 1.164 1.215.371.39.877.793.963 1.316-.684.173-1.574.101-2.48.101-.832 0-1.785.124-2.48-.051-.834-.21-2.027-1.876-2.633-2.48-3.455-3.455-6.615-6.935-9.971-10.427-.426-.444-.865-.861-1.266-1.316-1.955-2.223-4.123-4.384-6.123-6.58.061-1.103-.127-2.455.1-3.391 5.08-.602 12.123.839 15.894-1.164 1.297-.907 2.596-2.189 3.238-3.796.953-2.383.354-5.4-.811-7.188-1.244-1.912-3.334-3.278-6.275-3.492-3.871-.282-8.066.268-12.147-.102-.168-1.173-.168-3.027 0-4.201 3.217-.182 6.803-.051 10.273-.051 1.523 0 2.947-.124 4.201.051 1.103.154 2.23.567 3.139 1.062 1.773.969 3.326 2.337 4.453 3.999 1.723 2.536 2.84 6.751 1.621 10.579-1.027 3.222-3.016 5.773-5.67 7.288-1.44.821-3.076 1.265-5.213 1.265-1.956.002-4.083-.112-6.274.154z"/><path d="m50.69 20.402c.018 1.327.209 3.075-.051 4.201-7.557.092-15.652.162-23.385-.051-.167-.473-.101-1.297-.101-2.125 0-.73-.098-1.788.152-2.075.037-.047.092-.077.152-.101 7.898.163 15.509-.155 23.233.151z"/><path d="m50.589 40.192c.272 1.089.193 3.031.051 4.201-7.441.062-15.811.232-23.385-.051-.152-1.215-.194-3.116 0-4.201 7.502-.106 15.625-.061 23.334.051z"/></g></svg>