<svg enable-background="new 0 0 87.496 47.786" viewBox="0 0 87.496 47.786" xmlns="http://www.w3.org/2000/svg"><path clip-rule="evenodd" d="m44.299 11.497c.274-1.711.153-3.718.153-5.684 0-1.95-.038-3.901.103-5.582.936-.274 1.946-.154 2.919-.154 6.755-.001 13.988.051 20.998.051 2.083 0 4.122-.055 5.992.051 5.46.311 9.132 3.028 11.267 6.863 1.48 2.659 2.25 6.56 1.434 9.935-.775 3.201-2.42 5.66-4.609 7.478-2.249 1.867-5.192 2.973-9.014 3.072-1.911.05-3.89-.01-5.838 0-1.877.01-3.749.056-5.583-.153-.306-4.201.101-9.114-.205-13.315-1.016-.199-2.587-.106-3.688-.051-.315.589-.205 1.288-.205 1.946.001 10.414 0 21.259-.154 31.598-4.205.197-9.195.144-13.367-.051-.205-1.635-.103-3.6-.103-5.531 0-1.945.083-3.908-.102-5.634-.466-.034-.563.73-.922.973-2.188 3.094-4.687 5.655-8.092 7.477-3.364 1.8-7.476 3.229-12.496 2.971-4.892-.251-8.547-1.63-11.83-3.739-3.136-2.014-5.734-4.759-7.631-7.938-1.985-3.333-3.326-7.405-3.326-12.241 0-4.856 1.41-8.876 3.329-12.24 1.771-3.104 4.545-5.923 7.682-7.886 3.307-2.07 6.84-3.456 11.831-3.688 5.398-.251 9.855 1.422 13.162 3.38 2.639 1.564 4.652 3.485 6.504 5.787.613.764 1.084 1.619 1.791 2.305zm-2.458 2.202c-4.347 2.513-8.436 4.886-12.804 7.375-.741.422-1.54 1.031-2.202 1.178-.885.196-1.955.051-2.868.051-2.18 0-4.356 0-6.504 0-1.159 0-2.345-.177-3.482.102-.164.79-.171 2.233 0 3.022.951.274 2.032.154 3.073.154h9.781c5.152 2.79 10.156 5.872 15.21 8.706.709.397 1.412.975 2.253 1.076.22-7.28.154-14.491.153-21.714 0-.375.161-1.01-.307-1.229-.812.277-1.529.832-2.303 1.279z" fill-rule="evenodd"/></svg>