<svg enable-background="new 0 0 32.795 25.147" viewBox="0 0 32.795 25.147" xmlns="http://www.w3.org/2000/svg"><path d="m2.588 1.638c1.406-1.196 3.302-1.772 5.134-1.612 1.456.171 2.802.819 4.021 1.611.14.073.284.209.456.169 1.462-.457 2.932-.902 4.432-1.223.788-.141 1.567-.354 2.372-.384 1.779-.252 3.588-.139 5.352.166 1.266.257 2.495.719 3.594 1.4.427.266.786.621 1.176.936.707.674 1.22 1.518 1.673 2.377.342.745.533 1.548.685 2.35.18 1.148.177 2.333.581 3.436.194.476.441.93.731 1.355-.593.492-1.132 1.067-1.483 1.759-.279.51-.559 1.023-.779 1.561-.722 1.498-1.463 3.007-2.5 4.319-1.632 1.956-3.826 3.443-6.26 4.202-2.122.708-4.368.975-6.601.9-2.006.016-3.989-.3-5.985-.44-1.733-.137-3.487-.142-5.212.113-.496.112-1.046.174-1.447.515-.499-.436-1.155-.956-1.073-1.695-.009-.334.28-.574.536-.738.458-.259.956-.458 1.482-.515 1.289-.256 2.604-.056 3.884.135.201-.642.357-1.297.534-1.945.172-.492.255-1.009.368-1.515.048-.519.074-1.088-.232-1.54-.044-.088-.181-.234-.037-.295.709-.429 1.2-1.165 1.41-1.958.237-.766.445-1.539.679-2.305.145-.438.191-.917.459-1.305.153-.292.416-.493.66-.703-.488-.438-1.035-.8-1.537-1.219-1.525.717-3.166 1.328-4.876 1.3-.885-.092-1.79-.206-2.602-.592-.745-.28-1.488-.614-2.103-1.128-.203-.167.033-.382.135-.53.985-1.147 2.321-2.011 3.797-2.366.473-.065.942-.158 1.421-.165.451-.075.893.061 1.34.096.345.042.676.158.997.289.778.269 1.519.639 2.213 1.081 1.346-.627 2.621-1.393 3.963-2.027-.736-.586-1.471-1.172-2.229-1.728-.1-.085-.226-.132-.351-.074-.807.275-1.613.56-2.445.754-.373.084-.736.234-1.124.233-.61.052-1.225.162-1.837.066-.711-.019-1.387-.262-2.066-.447-.807-.287-1.582-.677-2.27-1.188-.158-.085-.135-.31-.042-.435.29-.392.668-.705 1.006-1.051zm12.306.683c-.44.174-.906.284-1.328.504.709.608 1.488 1.129 2.245 1.676.089.076.209.107.32.055 1.067-.417 2.186-.731 3.335-.792 2.021-.117 4.034.676 5.56 1.982.147.135.382.33.257.552-.248.438-.63.778-.991 1.122-.459.379-.947.744-1.505.966-.912.392-1.93.512-2.913.401-.466-.083-.926-.2-1.376-.348-.243.365-.302.811-.429 1.223-.21.918-.523 1.814-.631 2.753.405.243.863.369 1.319.482 1.292.387 2.724.228 3.936-.351-.167-.213-.221-.544-.024-.755.242-.314.774-.32 1.027-.017.088.137.154.299.147.466-.109.298-.326.543-.548.765-1.634 1.646-4.209 2.259-6.417 1.58-.228.848-.308 1.816.202 2.583-.74.418-1.137 1.215-1.367 2-.117.413-.159.848-.327 1.247-.196.521-.587.976-1.102 1.2-.649.347-1.407.369-2.125.35-.044-.073-.088-.147-.13-.218.096-.089.213-.161.285-.271.214-.433.322-.906.458-1.367.564-2.189 1.167-4.368 1.73-6.558.014-.094.045-.223-.061-.273-.519-.351-1.005-.748-1.519-1.105-.429.967-.643 2.012-.935 3.026-.419 1.565-.834 3.132-1.245 4.7-.299.986-.565 1.981-.845 2.972.994.246 2.011.388 3.006.633.384.112.788.079 1.174.179.731.138 1.476.212 2.22.228.607.099 1.215-.041 1.824-.029.683-.115 1.377-.205 2.033-.44 2.364-.738 4.301-2.509 5.564-4.605.553-.94 1.037-1.925 1.396-2.956.234-.528.259-1.113.367-1.672.018-.684.013-1.409-.338-2.019.862-.859 1.201-2.074 1.443-3.232.116-.959.084-1.938-.136-2.88-.089-.778-.437-1.499-.822-2.17-.676-1.078-1.763-1.853-2.952-2.272-.466-.13-.93-.277-1.407-.364-2.821-.495-5.731.015-8.375 1.049zm-12.302.086c-.045.064-.073.139-.104.212.599.342 1.291.451 1.95.624.73.107 1.474.124 2.208.034 1.074-.175 2.143-.405 3.173-.766-.003-.025-.007-.072-.01-.096-.851-.479-1.727-.948-2.693-1.14-1.578-.336-3.261.159-4.524 1.132zm14.934 3.243c.535.33 1.11.586 1.676.857.918.316 1.881.59 2.862.522.883-.093 1.814-.272 2.527-.834-1-.705-2.181-1.209-3.416-1.25-1.248-.081-2.513.191-3.649.705zm-2.28 1.005c-1.231.61-2.425 1.294-3.648 1.923.86.682 1.761 1.309 2.66 1.939.295.186.558.424.879.569.22-.789.403-1.589.639-2.374.163-.501.536-.878.93-1.205-.345-.258-.727-.462-1.071-.72-.116-.072-.243-.22-.389-.132zm-14.096 1.825c-.056.055-.153.111-.095.203 1.234.637 2.656.806 4.026.666 1.036-.166 2.032-.506 3-.904-.663-.458-1.402-.787-2.166-1.032-1.637-.449-3.459-.003-4.765 1.067z"/></svg>