<svg clip-rule="evenodd" fill-rule="evenodd" stroke-linejoin="round" stroke-miterlimit="2" viewBox="0 0 560 400" xmlns="http://www.w3.org/2000/svg"><path d="m272.3 402.2-20.9-20.9v41.9zm0-96.3-20.9-20.9v41.9zm192.7-289.1 16.8 16.8v-33.6zm0 96.3 16.8 16.8v-33.5zm0 96.4 16.8 16.8v-33.5zm-48.2-48.2 23.1 23.1v-46.1zm-48.1-48.2 33.5 33.5v-67zm0 96.4 33.5 33.5v-67zm0 96.4 33.5 33.5v-67zm-48.2-144.6 44 44v-88l-44 44-41.9-41.9c-13.8-13.8-36.5-13.8-50.3 0l-217.9 217.9c-13.8 13.8-13.8 36.5 0 50.3l217.9 217.9c13.8 13.8 36.5 13.8 50.3 0l217.9-217.9c13.8-13.8 13.8-36.5 0-50.3l-31.5-31.5-144.5 144.6-33.6 33.6v-67.1l33.5 33.5v-289.1zm-33.5 62.9 77.5 77.5v-88l-77.5 77.5zm33.5 129.9 44 44v-88l-77.5 77.5v-67.1l4.2 4.2zm96.3-289.2 23.1 23.1v-46.1zm0 192.8 23.1 23.1v-46.1zm-144.5 240.9-20.9-20.9v41.9z" transform="matrix(.438418 0 0 .438418 168.883 65)"/></svg>