<svg enable-background="new 0 0 74.122 75.587" viewBox="0 0 74.122 75.587" xmlns="http://www.w3.org/2000/svg"><path clip-rule="evenodd" d="m74 .186c.16 6.655.161 13.997 0 20.702-.953.259-1.981.145-2.992.145-7.247 0-14.442.044-21.378-.096-.447-.793-.626-1.691-1.013-2.51-.378-.799-.789-1.533-1.254-2.22-1.478-2.015-3.362-3.525-5.116-5.405-1.261-1.352-2.517-2.595-3.86-4.005-.334-.35-.999-1.175-1.399-1.206-.472-.037-1.076.759-1.448 1.11-3.077 2.909-6.012 5.933-9.024 8.831-2.272 2.612-3.827 7-2.702 11.726.932 3.918 3.447 6.808 6.659 8.638 1.696.967 3.765 1.544 6.128 1.544 7.257 0 11.007-4.518 12.933-9.941.039-.009.048-.048.096-.048 7.861-.161 16.41-.161 24.321 0 .262 1.613.145 3.344.145 5.066 0 5.047.08 10.462-.097 15.394-2.109.193-4.281.096-6.515.097-5.624 0-11.155.048-16.986.048-1.192 0-2.423.168-3.378-.048-.533-.121-.91-.822-1.303-1.207-.458-.449-.944-.788-1.255-1.206-2.15-2.121-4.381-4.188-6.611-6.418-.307-.306-.657-.8-1.014-.82-.439-.025-1.071.63-1.448.965-.489.435-.844.826-1.206 1.158-.898.826-1.626 1.659-2.413 2.365-1.687 1.514-3.382 2.986-4.922 4.584-1.553 1.611-2.816 3.791-3.282 6.273-1.151 6.133 1.64 10.757 5.067 13.415 1.788 1.387 4.06 2.519 6.804 2.702 6.282.419 10.016-2.455 12.45-6.466 1.396-2.177 2.09-5.253 1.93-8.831.94-.26 1.966-.145 2.944-.145 6.914 0 14.033-.093 21.088.097.233 1.59.145 3.372.145 5.164 0 5.185.014 10.461-.097 15.78-.709.258-1.489.145-2.22.145-17.759 0-35.137 0-53.179 0-6.195 0-12.384.113-18.482-.145-.175-24.777-.142-51.186 0-75.28.066-.018.079-.086.148-.097 22.978-.15 48.194.175 71.709.048.661-.003 1.377-.109 2.027.097z" fill-rule="evenodd"/></svg>