<svg fill="none" viewBox="0 0 130 126" xmlns="http://www.w3.org/2000/svg"><path clip-rule="evenodd" d="m.00030301 3.7486v3.7486h64.99079699 64.9909v-3.7486-3.7486h-64.9909-64.99079699zm114.43569699 9.4018c-4.808 1.656-7.447 6.7403-5.995 11.5487.233.7719 2.249 4.2008 4.48 7.6198 4.825 7.3962 5.944 9.3775 7.172 12.7036 1.793 4.8579 2.101 7.0716 2.281 16.3796l.163 8.4718h-3.452-3.452l-.361-2.9683c-2.045-16.8135-13.558-29.5219-29.2368-32.2721-1.397-.245-4.3336-.4457-6.5264-.446l-3.9868-.0003.007 2.0243c.0039 1.1131.204 18.623.4447 38.9104s.4408 40.0241.4444 43.8591l.0066 6.972h26.7873 26.788l-.097-37.2611c-.096-36.9897-.101-37.2812-.748-40.0183-1.612-6.8236-3.386-10.6019-9.114-19.4144-2.488-3.8272-4.276-6.8789-4.276-7.299 0-1.5504.355-1.6248 7.56-1.5861l6.657.0357v-3.9073-3.9072l-6.996.0099c-5.917.0081-7.235.0924-8.55.5452zm-114.43569699 59.8117-.00030301 37.5469 4.88905-.213c14.47915-.628 22.34155-3.805 30.51955-12.331 4.33-4.5142 7.0575-8.9798 8.975-14.6948 2.0189-6.0167 2.0247-6.0916 2.167-27.6821l.1288-19.5341-6.114-.176c-3.3627-.0969-13.8653-.2405-23.3395-.3194l-17.22559699-.143zm87.05939699-30.2473c9.5756 2.421 17.1453 10.2931 19.7393 20.5277.749 2.9548 1.218 7.2968 1.218 11.268v3.1605h7.224 7.223l-.077 20.3174-.078 20.3176h-19.106-19.1058l-.1835-17.394c-.1008-9.5661-.2849-26.7386-.4092-38.1605-.1989-18.2526-.1721-20.7672.2199-20.7672.2452 0 1.7461.3287 3.3353.7305zm-56.8531.6676 8.6408.1985-.1029 16.0704-.1032 16.0704-.7938 2.9038c-3.5483 12.9822-15.021 22.7475-27.99326 23.8285l-2.33185.194v-29.7321-29.732h7.02171c3.8621 0 10.9103.0893 15.6625.1985zm24.8554 60.9416c-1.3784.452-3.1163 1.479-8.4248 4.982-9.1793 6.057-14.2883 8.136-21.6867 8.827-1.8905.176-8.2773.321-14.1936.322l-10.75659699.001v3.772 3.772l13.91589699-.127c12.8976-.118 14.1295-.175 16.8341-.777 6.6417-1.477 10.9124-3.459 19.6007-9.099 7.288-4.73 7.1683-4.671 8.1588-4.025l.7645.5v6.74 6.741h3.9305 3.9307l-.0945-7.422-.0941-7.423-.8365-1.697c-.9267-1.881-2.5277-3.481-4.4907-4.487-1.3973-.716-5.1541-1.06-6.5577-.6z" fill="#000" fill-rule="evenodd"/></svg>