<svg enable-background="new 0 0 49.333 81.725" viewBox="0 0 49.333 81.725" xmlns="http://www.w3.org/2000/svg"><path clip-rule="evenodd" d="m49.147.068c.204 6.174.179 12.892.05 19.035-1.938.298-4.558.096-6.494.049-.314-.639-.262-1.452-.297-2.23-.036-.774-.086-1.577-.149-2.379-.196-2.523.067-5.258-1.834-5.998-1.224-.476-3.362-.198-5.056-.198-.851 0-1.653-.037-2.528 0-1.707.072-2.951-.057-3.47 1.14-.406.938-.171 3.187-.198 4.561-.035 1.789.007 3.344 0 4.71-.043 8.064 0 15.852 0 23.693 0 .695.024 1.563.05 2.38.047 1.514-.127 2.505.842 2.974.512.247 1.619.148 2.479.148h5.254c1.764 0 3.001.14 3.619-1.14.561-1.161.367-3.233.446-4.709.171-3.198.304-6.5.496-9.766.096-1.634.112-3.242.396-4.709 1.922-.163 4.522-.165 6.444 0 .093 17.128.229 35.422.049 52.444-.005.513.114 1.067-.148 1.537-2.055.129-4.641.177-6.741 0-.328-1.947-.159-3.979-.248-5.998-.173-3.937-.118-7.74-.297-11.996-.037-.875-.099-1.98-.099-3.023 0-2.012-.003-3.627-1.636-4.064-.949-.255-2.391-.1-3.767-.1-7.698-.001-15.466.001-23.199 0-1.329 0-3.181-.251-4.263.1-1.458.472-1.422 2.182-1.487 4.064-.243 6.998-.547 14.107-.993 21.017-.919.152-2.07.099-3.172.099-1.112 0-2.234.081-3.073-.149-.104-18.156-.144-36.3 0-53.882 1.888-.268 4.741-.208 6.692 0 .373 4.646.263 9.583.545 14.375.145 2.46-.313 5.354 1.934 5.85.744.164 1.552.009 2.478.049 1.532.067 3.278 0 4.957 0 1.629 0 2.802.123 3.42-.893.528-.867.407-2.914.446-4.361.132-4.943-.131-9.898-.05-14.276.085-4.556.051-9.505 0-14.226-.023-2.172.433-4.856-.941-5.602-1.026-.557-3.946-.248-5.403-.248-1.462 0-4.276-.314-5.453.198-1.546.674-1.485 3.727-1.636 5.898-.112 1.613-.182 3.196-.396 4.71-1.954.165-4.59.165-6.543 0-.261-3.018-.148-6.308-.149-9.566 0-3.24-.086-6.482.099-9.468 8.249-.181 16.623-.1 25.032-.099 8.021 0 16.051-.052 23.992.049z" fill-rule="evenodd"/></svg>