<svg enable-background="new 0 0 78.831 54.651" viewBox="0 0 78.831 54.651" xmlns="http://www.w3.org/2000/svg"><path clip-rule="evenodd" d="m21.722.222c.144 1.82-.089 4.168 0 6.542.053 1.426.014 3.293.048 5.003.011.553-.033 1.189.145 1.395.237.274 1.606.192 2.453.192 5.98 0 12.194.009 17.992 0 3.267-.005 6.809.038 10.15-.096 1.668-.067 3.339.094 5.003.048 5.113-.142 10.52.117 13.854 1.731 2.339 1.132 4.022 3.022 5.1 5.34 1.26 2.708.802 6.181-.529 8.371-1.354 2.23-3.409 3.399-6.014 4.426.198.391.688.338 1.011.433 2.459.726 4.602 2.033 6.062 3.896 1.628 2.079 2.412 5.75 1.347 9.092-.998 3.133-3.568 5.03-6.734 6.158-3.204 1.142-7.361 1.308-11.546 1.154-.251-.813-.145-1.75-.145-2.646 0-2.604-.025-5.411-.096-8.13-.534.025-.612.655-.77.962-2.981 5.801-8.28 9.832-16.5 10.487-2.385.19-4.606-.032-6.687-.433-1.924-.371-3.665-1.164-5.244-1.924-2.321-1.119-4.386-2.842-5.965-4.859-.526-.672-1.136-1.379-1.491-2.068-.336-.651-.362-1.415-1.059-1.78-.257.789-.145 1.706-.145 2.598 0 2.584.219 5.478.048 7.938-.994.155-2.437.248-3.367 0-.049-3.045 0-6.179 0-9.333 0-6.313-.111-12.517-.145-18.617-.008-1.552.074-3.128 0-4.667-.071-1.498.039-3.017-.24-4.474-.42-.237-.903-.086-1.395-.096-5.262-.117-11.355.028-16.693-.096-.259-.836-.18-2.454-.048-3.367 5.833-.164 12.365.121 18.088-.144.268-.833.18-2.076.192-3.271.029-2.75.012-5.797-.097-8.515-.023-.612-.179-1.168.337-1.347.938-.326 2.131.086 3.08.097zm7.601 16.548c-2.391.113-5.131-.008-7.312.192-.159.247-.189.616-.191.914-.01 1.284.048 2.779.048 4.233-.001 1.485-.102 2.953.144 4.186.805-.653.934-1.764 1.348-2.646.365-.778.972-1.425 1.491-2.069.547-.676 1.118-1.307 1.732-1.876.679-.499 1.385-.986 2.117-1.443.753-.471 1.603-.765 2.261-1.347-.486-.193-1.075-.17-1.638-.144zm21.407.096c.28.447.786.503 1.203.722 1.189.625 2.348 1.545 3.367 2.502 1.53 1.435 2.552 2.944 3.512 4.811.261.507.364 1.166.866 1.539.159-3.026.148-6.494-.048-9.525-2.652-.271-5.74-.088-8.708-.145-.07.025-.12.071-.192.096zm16.789 14.432c2.85-.915 5.33-2.89 5.821-6.013.408-2.597-.622-4.706-1.924-6.014-1.866-1.631-4.759-2.745-8.323-2.357-.308.62-.192 1.421-.192 2.165.001 2.499.049 4.973.049 7.505 0 1.738-.035 3.455.192 5.051 1.474.275 3.064.085 4.377-.337zm-39.446-8.082c-2.574 2.722-4.748 7.128-4.33 12.508.397 5.099 2.654 8.759 5.629 11.305 3.101 2.655 6.974 4.491 12.604 4.233 5.243-.241 8.579-2.518 11.497-5.436 1.354-1.354 2.482-3.165 3.271-5.196.805-2.071 1.325-4.521 1.107-7.264-.201-2.525-.84-4.612-1.876-6.591-.936-1.789-2.267-3.493-3.753-4.714-2.922-2.403-7.112-4.78-12.604-4.33-5.188.427-8.865 2.652-11.545 5.485zm40.794 26.796c3.489-1.03 6.735-3.27 6.206-7.986-.286-2.542-2.243-4.499-4.282-5.58-1.721-.913-4.789-1.414-7.36-1.347-.402.179-.279.687-.288 1.059-.092 3.849.048 7.896.048 11.834 0 .859-.127 1.772.192 2.55 1.962.203 3.885-.059 5.484-.53z" fill-rule="evenodd"/></svg>