<svg enable-background="new 0 0 74.9 61.324" viewBox="0 0 74.9 61.324" xmlns="http://www.w3.org/2000/svg"><path clip-rule="evenodd" d="m42.33.202c-.4 2.047-1.657 3.778-2.146 5.901-.303 1.318-.308 2.774-.487 4.194-.35 2.763-.703 5.583-.976 8.388-.135 1.394-.242 2.792-.585 4.096-2.289-.767-4.077-2.036-6.291-2.877-.489.714-.573 1.668-.78 2.536-.415 1.737-.823 3.535-1.268 5.315-.219.877-.312 1.782-.731 2.536-6.299.178-13.111-.113-19.409.146.442 1.365 1.023 2.694 1.609 3.999 3.41 7.596 7.081 15.262 10.582 22.823.573 1.237 1.063 2.565 1.902 3.658.888-.408 1.589-1.116 2.292-1.756 2.079-1.893 4.28-3.731 6.389-5.657 3.275-2.74 6.368-5.659 9.607-8.485 2.143-1.869 4.071-3.904 6.242-5.803.277-.242.609-.397.878-.634.261-.229.469-.536.731-.78.516-.482 1.087-.889 1.609-1.366.524-.478.957-1.061 1.512-1.512 1.101-.894 2.058-1.88 3.121-2.878.499-.467 1.157-.881 1.414-1.56-7.665-.144-15.147-.146-22.774-.146-1.045 0-2.13.12-3.121-.146.043-1.181.407-2.351.683-3.511.273-1.15.498-2.339.926-3.365 1.936.631 3.615 1.703 5.365 2.536.9.428 1.795.803 2.682 1.268.852.446 1.712.958 2.682 1.219.492-.682.387-1.701.537-2.536.378-2.113.922-4.287 1.463-6.388.55-2.138.919-4.34 1.365-6.486.676-3.253 1.392-6.419 2.097-9.705.222-1.034.404-2.105.829-3.073 4.683-.168 9.817-.097 14.484-.097 4.989 0 7.941 1.713 9.363 5.315.766 1.94.968 4.293.585 6.389-.364 1.996-1.265 3.68-2.097 5.218-1.747 3.232-4.229 5.596-6.583 8.095-1.136.96-2.205 1.954-3.316 2.975-.35.321-.807.62-.927 1.122.434.365 1.024.288 1.463.341 3.57.438 5.846 2.321 6.974 5.364 1.403 3.787.218 8.541-1.512 11.363-.909 1.482-1.835 2.867-2.877 4.194-3.078 3.919-7.199 6.883-12.094 9.071-1.63.729-3.479 1.257-5.511 1.561-2.053.307-4.423.299-6.876.195-4.524-.191-9.398-.008-13.752-.049-8.022-.075-15.976.001-24.237 0-1.147 0-2.292.119-3.365-.146.349-2.573.954-5.11 1.512-7.656.555-2.528 1.041-5.082 1.609-7.608.576-2.561 1.029-5.132 1.561-7.705 1.052-5.102 2.071-10.211 3.217-15.264 1.146-5.057 2.154-10.148 3.267-15.215.552-2.512.943-5.062 1.707-7.51 8.682-.136 17.512-.097 26.383-.098.552 0 1.11-.017 1.658 0 .461.014.987-.034 1.415.194z" fill-rule="evenodd"/></svg>