<svg enable-background="new 0 0 31.787 32.35" viewBox="0 0 31.787 32.35" xmlns="http://www.w3.org/2000/svg"><path d="m4.766 4.734c3.856-3.906 9.796-5.645 15.126-4.265 5.283 1.24 9.779 5.385 11.401 10.565.266 1.69-2.283 2.561-3.102 1.038-1.315-4.368-5.314-7.704-9.766-8.527-2.539-.414-5.259-.193-7.59.953-3.935 1.779-6.882 5.653-7.393 9.958-.307 2.332-.027 4.778.976 6.918 1.795 4.14 5.933 7.192 10.442 7.575 4.393.454 9.005-1.523 11.563-5.16-1.01-.023-2.025.029-3.033-.023-.787-.067-1.511-.717-1.509-1.535-.121-.931.759-1.815 1.682-1.776 2.219-.008 4.438-.009 6.657.001.875.029 1.576.835 1.556 1.697-.001 2.448.033 4.902-.007 7.348-.065 1.302-1.837 2.049-2.765 1.098-1.021-1.068-.354-2.707-.575-4.03-3.623 4.502-9.836 6.621-15.471 5.476-6.267-1.259-11.566-6.514-12.667-12.84-1.022-5.166.689-10.792 4.475-14.471z"/><path d="m11.23 8.928c3.252.011 6.504-.08 9.752-.027 1.687-.02 2.674 2.187 1.58 3.45-1.007 1.301-2.779.59-4.157.854-.001 3.049.016 6.098.01 9.147.147 1.041-.358 2.164-1.367 2.563-1.392.62-3.09-.509-3.115-2.017-.003-3.234-.032-6.472-.006-9.706-1.313-.208-2.916.43-3.966-.652-1.203-1.168-.427-3.476 1.269-3.612z"/></svg>