<svg enable-background="new 0 0 79.544 52.74" viewBox="0 0 79.544 52.74" xmlns="http://www.w3.org/2000/svg"><path clip-rule="evenodd" d="m27.731 0c12.678.09 25.864.052 38.574.149 1.05 1.282 1.803 2.892 2.688 4.38.281.472.709.958.697 1.543-9.709.272-19.971.004-30.112.1-.313.403-.383 1.306-.349 1.891.384.5 1.127.349 1.692.349 10.014 0 20.238.106 30.262.149.741.846 1.203 1.931 1.792 2.937.572.977 1.278 1.931 1.593 2.987-.532.342-1.378.215-2.19.199-8.135-.161-17.733-.057-25.633-.1-2.102-.012-4.684 0-7.068 0-.796 0-1.717-.152-2.24 0-.6.174-1.058 1.333-1.144 1.941.752.289 1.577.124 2.389.149 5.688.178 11.208.05 17.271.05 5.578 0 11.79.1 17.57.1.852 0 1.893-.116 2.389.1.416.18.819.995 1.095 1.493.662 1.193 1.186 2.159 1.841 3.335.3.538.68 1.095.697 1.742-12.606.246-25.435-.163-37.927.149-.008.522.36.958.597 1.394 1.18 2.166 2.367 4.404 3.633 6.57.491.838.932 1.774 1.643 2.438.81.04 2.134.181 2.787-.1-.093-.688-.504-1.309-.846-1.891-.69-1.174-1.35-2.331-2.041-3.534-.333-.58-.806-1.172-.896-1.891 1.033-.269 2.193-.149 3.335-.149 3.341 0 6.959-.041 10.253.05.795.956 1.314 2.101 1.941 3.186 1.844 3.19 3.801 6.448 5.625 9.706 2.231 3.739 4.431 7.502 6.57 11.348.303.545.733 1.078.796 1.742-.958.388-2.116.171-3.235.149-3.317-.066-6.982.09-10.253-.05-.807-.607-1.197-1.664-1.742-2.588-1.308-2.217-2.552-4.512-3.982-6.819-.276-.446-.553-1.115-.896-1.244-.378-.143-.971-.05-1.443-.05-.48 0-1.025-.083-1.344.149.211 1.021.876 1.827 1.344 2.688.934 1.719 1.912 3.378 2.887 5.127.467.837 1.088 1.655 1.344 2.638-4.38.165-9.299.224-13.787.05-.797-.659-1.164-1.692-1.643-2.588-.958-1.794-2.113-3.54-3.086-5.375-.486-.918-.753-1.984-1.543-2.688-.879-.048-2.19-.146-2.986.05-.067.517.32.949.547 1.344.716 1.245 1.407 2.569 2.14 3.833.467.852 1.019 1.652 1.394 2.588.366.915.991 1.724 1.294 2.688-.932.334-2.028.155-3.086.15-2.74-.015-5.742-.05-8.561-.05-.648 0-1.429.08-1.742-.1-.33-.19-.698-1.057-.995-1.593-2.099-3.781-4.317-7.658-6.471-11.298-1.317-2.227-2.453-4.435-3.683-6.52-.642-1.088-1.122-2.242-1.792-3.285-.335-.521-.636-1.055-.946-1.593-.296-.515-.841-.987-.796-1.643 4.296-.159 9.028-.17 13.389-.1.575.439.923 1.153 1.294 1.792 1.082 1.866 2.033 4.038 3.335 5.773.887.024 2.31.199 3.036-.1-.273-.992-.877-1.856-1.344-2.737-.925-1.747-1.962-3.4-2.937-5.127-.478-.846-.851-1.782-1.543-2.488-8.535-.227-18.017.064-26.678-.149-.298-.858-.278-1.999-.349-3.086-.07-1.086-.284-2.216-.05-3.086 7.228-.644 15.679.772 20.407-2.04 3.656-2.175 6.192-5.161 6.968-9.955.178-1.097.241-2.541.1-3.833-.047-.428-.189-1.025 0-1.244.037-.049.091-.078.15-.102z" fill-rule="evenodd"/></svg>