<svg enable-background="new 0 0 184.704 195.259" viewBox="0 0 184.704 195.259" xmlns="http://www.w3.org/2000/svg"><g clip-rule="evenodd" fill-rule="evenodd"><path d="m164.784 145.955c1.164-1.808 2.469-3.614 3.599-5.518 1.126-1.897 1.858-4.052 3.358-5.638 3.505 1.383 5.715 2.488 9.117 4.199.83.417 2.505 1.125 2.639 1.799.241 1.214-2.226 4.59-2.759 5.518-11.002 19.143-26.677 33.551-48.221 42.104-8 3.175-16.528 5.69-26.39 6.477-22.335 1.782-39.543-3.176-54.218-10.556-14.563-7.323-25.834-18.083-34.667-30.948-8.676-12.637-15.856-28.663-17.033-48.701-1.298-22.082 3.549-39.427 11.515-53.739 1.947-3.498 3.99-6.935 6.358-10.076 2.402-3.187 4.499-6.541 7.077-9.357 12.754-13.927 30.294-25.25 52.54-29.627 4.594-.904 9.772-1.553 14.994-1.799 12.401-.586 23.34 1.7 32.867 4.438 9.383 2.697 17.919 7.253 25.07 12.115 13.62 9.261 24.91 21.596 32.747 37.186.501.998 1.421 2.694 1.319 3.239-.211 1.125-4.699 2.682-5.638 3.119-1.117.521-1.889.734-3.118 1.319-.801.381-2.209 1.435-2.999 1.32-1.026-.15-2.862-4.625-3.358-5.518-11.409-20.524-29.299-35.308-55.179-41.624-9.457-2.308-21.07-2.424-31.907-.6-19.591 3.298-34.614 12.709-45.942 24.47-4.378 4.545-8.015 9.566-11.396 15.114-.575.943-1.201 1.775-1.68 2.759-.474.974-.685 2.048-1.199 3.119-3.842 8.009-6.838 16.73-8.157 26.989-2.213 17.213 1.837 32.804 6.957 44.742 1.768 4.123 3.607 8.173 5.878 11.636 9.225 14.067 22.305 25.089 38.745 31.667 8.662 3.465 18.113 5.648 29.268 5.998 5.724.18 11.229-.398 16.433-1.2 4.928-.759 9.382-2.332 13.675-3.838 17.307-6.073 29.602-16.884 39.705-30.588z"/><path d="m54.668 157.111c-5.025-3.331-9.26-7.454-13.075-11.996-3.149-3.676-5.245-6.564-7.797-10.916-.568-.969-2.142-3.229-1.919-4.318.159-.779 1.855-1.253 2.759-1.679 2.311-1.088 3.383-1.808 5.758-2.879.655-.296 2.476-1.288 3.119-1.2.874.121 2.059 2.812 2.639 3.838 2.342 4.147 5.341 7.861 8.276 10.796 8.407 8.406 18.726 15.274 33.587 17.513 7.271 1.095 16.228.496 23.151-1.2 13.799-3.38 23.323-10.777 31.068-20.032 7.377-8.815 13.176-21.746 13.195-37.785.009-8.049-1.687-15.274-4.199-21.352-2.533-6.128-5.621-11.584-9.477-16.074-7.372-8.588-17.914-16.525-31.307-19.792-15.327-3.739-32.041-.027-42.223 5.757-9.209 5.233-16.824 12.82-22.431 22.191-.654 1.093-1.703 3.67-2.519 3.838-.829.172-2.326-.788-3.239-1.199-2.253-1.017-3.408-1.583-5.878-2.759-.753-.358-2.488-1.086-2.639-1.679-.274-1.079 1.401-3.318 2.039-4.438 5.475-9.607 12.569-17.263 21.112-23.511 9.733-7.118 22.456-12.733 37.905-13.554 14.992-.797 26.335 2.786 36.226 7.677 9.652 4.773 17.929 11.528 24.23 19.552 6.345 8.079 11.57 17.881 14.275 29.628 2.834 12.309 1.771 26.863-1.8 38.385-6.581 21.234-21.898 37.521-41.983 45.702-10.292 4.192-24.046 6.102-37.905 4.318-6.182-.795-11.848-2.826-17.033-4.918-5.186-2.089-9.73-4.688-13.915-7.914z"/><path d="m140.074 77.942c-1.569 1.373-3.745 2.06-5.758 2.999-1.982.925-3.957 2.082-5.998 2.519-1.14-.639-1.47-2.021-2.039-2.999-1.179-2.025-2.491-3.979-4.079-5.758-4.979-5.579-11.659-10.238-21.112-11.396-8.613-1.054-16.476 1.227-22.311 4.798-10.55 6.457-19.643 20.341-15.594 37.545 1.683 7.151 5.378 12.947 10.196 17.393 4.935 4.555 10.843 7.755 18.593 8.876 9.082 1.315 16.536-1.127 22.431-4.438 4.357-2.446 7.65-6.176 10.436-10.196.914-1.318 1.492-2.93 2.759-4.078 2.18.544 4.073 1.791 5.998 2.759 1.923.967 4.111 1.498 5.638 2.999-1.425 4.016-3.868 7.193-6.237 10.076-2.485 3.023-5.282 5.395-8.517 7.797-3.091 2.295-6.315 4.562-10.316 5.997-3.931 1.41-8.381 2.709-13.315 2.999-10.683.628-19.571-1.513-26.75-5.638-7.023-4.036-12.772-8.903-17.153-15.474-4.482-6.723-7.66-14.333-8.157-24.471-.743-15.149 5.094-27.726 12.955-35.746 8.191-8.356 18.275-14.265 33.947-14.994 11.797-.549 21.327 3.745 28.069 8.517 7.41 5.246 12.903 11.545 16.314 19.914z"/><path d="m95.092 73.743c9.775-.801 16.601 4.077 20.632 9.476 2.243 3.005 4.441 7.28 4.798 11.875.917 11.795-5.134 19.851-12.355 23.63-14.875 7.786-30.395-1.358-34.187-14.034-1.42-4.746-1.508-10.408.359-15.474 1.557-4.222 3.805-7.607 7.557-10.436 3.471-2.614 7.095-4.537 13.196-5.037z"/></g></svg>