<svg enable-background="new 0 0 83.158 80.338" viewBox="0 0 83.158 80.338" xmlns="http://www.w3.org/2000/svg"><g clip-rule="evenodd" fill-rule="evenodd"><path d="m56.364.168c.152.475.16 1.399 0 1.873-2.573.277-5.223.104-7.856.104-2.74 0-5.479 0-8.117 0-10.558 0-18.266 3.596-24.246 8.325-.724.572-1.37 1.31-2.082 1.977-4.85 4.549-8.622 10.369-10.666 17.794-1.173 4.26-1.639 9.643-1.04 14.569.578 4.764 1.987 8.792 3.798 12.487 1.772 3.615 4.082 6.788 6.764 9.469 2.669 2.669 5.609 5.127 9.261 7.024 3.535 1.836 7.649 3.44 12.279 4.006 4.783.584 10.602.364 15.921.364h7.804c8.024 0 13.331-2.884 17.274-7.128 2.634-2.835 4.631-6.405 5.359-10.875.864-5.312-.445-9.957-2.29-13.476-1.878-3.583-4.639-6.103-7.96-8.273-1.847-.984-3.823-1.981-6.191-2.498-2.336-.509-4.99-.721-7.857-.78-.167-.422-.167-1.451 0-1.873 5.896-.509 10.483.802 14.205 2.861 5.494 3.041 9.698 7.698 11.602 14.309.635 2.206.963 5.145.78 7.752-.374 5.336-2.133 9.322-4.683 12.591-3.715 4.762-8.973 8.429-16.546 9.366-2.602.322-5.515.156-8.481.156-2.842 0-5.653 0-8.429 0-2.79 0-5.609.093-8.377-.156-7.605-.684-14.04-3.245-19.147-6.712-.821-.557-1.744-1.165-2.446-1.874-.73-.737-1.569-1.324-2.289-2.029-5.792-5.668-10.438-12.563-12.12-22.421-.837-4.906-.822-10.671.312-15.662 2.077-9.138 6.829-16.387 12.904-21.644 6.201-5.366 13.88-9.168 24.818-9.678 5.787-.269 11.931.008 17.742.052z"/><path d="m56.312 4.019c.27.379.18 1.41.052 1.873-5.097.214-10.35.104-15.245.105-5.033 0-9.462.763-13.216 2.185-7.457 2.824-12.859 7.663-16.858 13.944-1.967 3.089-3.499 6.857-4.423 11.031-.952 4.305-.976 9.554-.052 13.996.868 4.171 2.397 7.812 4.371 11.03 1.888 3.08 4.353 6.041 7.024 8.377 2.68 2.344 6.015 4.261 9.73 5.723 3.733 1.47 8.103 2.238 13.164 2.237 5.112 0 10.385.104 15.349.052 2.559-.027 4.837-.04 6.92-.572 5.991-1.531 10.241-5.251 12.487-10.667 1.572-3.792 1.708-8.893.104-12.903-2.102-5.252-6.473-9.239-12.383-10.718-1.055-.264-2.12-.474-3.278-.572-1.114-.094-2.284.074-3.538-.208-.155-.448-.185-1.443.052-1.821 5.24-.573 9.441.883 12.748 2.862 4.899 2.931 8.567 7.463 9.521 14.204 1.096 7.741-2.474 13.533-6.243 17.118-3.219 2.816-6.956 4.911-12.488 5.307-1.781.127-3.656.052-5.671.052-3.752 0-7.813 0-11.759 0-3.966 0-7.73-.179-10.874-.937-6.119-1.474-11.396-4.262-15.713-8.013-.515-.448-.97-.962-1.457-1.509-.461-.517-1.008-.992-1.457-1.509-4.58-5.271-8.206-11.687-9.209-20.396-.426-3.701-.162-7.536.468-10.979 1.178-6.436 4.106-11.844 7.544-16.129 1.79-2.231 3.787-4.178 5.983-5.88 2.24-1.735 4.762-3.085 7.44-4.37 2.689-1.29 5.83-2.181 9.209-2.654 3.382-.473 7.348-.365 11.395-.417 3.32-.041 6.963.055 10.303.158z"/><path d="m56.364 8.337c.159.462.159 1.412 0 1.874-6.451.356-13.301-.189-19.771.208-2.023.124-3.862.561-5.671 1.04-7.024 1.859-11.89 6.153-15.817 11.03-.719 1.519-1.782 2.693-2.446 4.267-2.201 4.398-3.642 9.668-3.174 16.025.417 5.665 2.566 10.626 5.047 14.256.665.973 1.275 1.94 2.029 2.81 5.095 5.881 12.448 10.406 23.362 10.406 3.27 0 6.447.052 9.417.052 3.278 0 6.352.138 9.625 0 5.79-.244 9.998-3.014 12.227-7.076 1.219-2.222 1.884-4.985 1.613-7.857-.517-5.474-3.87-9.287-8.117-11.134-1.155-.503-2.407-.831-3.798-1.041-1.358-.205-2.788-.068-4.371-.312-.164-.422-.164-1.398 0-1.821 4.562-.42 8.248.443 10.926 2.237 2.752 1.843 4.848 4.042 6.243 7.076 1.505 3.27 1.69 7.701.521 11.186-1.614 4.809-5.23 8.36-10.042 9.99-1.717.582-3.55.766-5.723.833-4.185.129-8.615 0-13.215 0-4.552 0-9.161.127-12.644-.728-3.676-.903-6.694-2.015-9.626-3.694-5.721-3.278-9.72-8.151-12.591-14.1-1.45-3.005-2.483-6.473-2.914-10.458-.908-8.402 1.89-16.04 5.307-21.072 1.806-2.66 3.842-5.061 6.296-7.024 4.383-3.507 9.514-5.946 16.39-6.92 1.008-.143 2.228-.156 3.33-.208 5.862-.278 11.869.115 17.587.155z"/><path d="m56.364 12.187c.062.511.137 1.444-.052 1.873-3.739.172-7.594.052-11.342.052-3.818 0-7.522-.124-10.822.52-6.136 1.199-10.969 4.496-14.465 8.429-.804.905-1.686 2.066-2.445 3.278-.722 1.151-1.526 2.487-1.978 3.746-.241.673-.43 1.442-.676 2.185-1.142 3.439-1.553 8.564-.78 12.696.891 4.769 2.695 8.685 5.359 11.811 3.514 4.105 7.807 7.405 14.048 8.845 1.574.363 3.238.686 4.995.729 5.368.129 11.266.051 16.91.052 2 0 3.849.12 5.463-.156 1.565-.268 2.99-.774 4.11-1.613 2.147-1.607 4.013-3.75 4.215-7.232.311-5.371-3.097-8.836-7.181-9.989-1.498-.423-3.217-.369-5.203-.52-.176-.432-.153-1.438 0-1.873 6.471-.605 10.224 1.759 12.591 5.359 1.227 1.865 2.074 4.361 1.873 7.128-.382 5.236-3.669 8.705-7.908 10.25-2.337.852-4.987.78-8.273.78-2.911 0-5.922-.052-9.053-.052-3.017 0-6.088.159-8.949-.104-8.027-.738-13.774-4.448-18.21-9.053-2.322-2.411-3.889-5.203-5.203-8.429-1.31-3.215-2.081-6.904-2.081-11.395-.001-4.993 1.499-9.193 3.278-12.591.258-.494.455-1.022.728-1.509 1.224-2.178 2.95-4.029 4.735-5.775.852-.834 1.917-1.613 2.914-2.342 4.027-2.942 8.989-5.093 15.765-5.255 3.742-.089 7.693 0 11.602 0 2.052-.001 4.116-.127 6.035.155z"/><path d="m56.312 18.119c.223.491.165 1.394 0 1.925-4.656.168-9.502.052-14.204.052-2.494 0-4.803-.037-6.868.365-5.959 1.158-9.998 4.469-12.955 8.689-1.935 2.761-3.358 6.482-3.382 11.03-.025 4.638 1.408 8.252 3.33 11.134 1.936 2.904 4.318 5.21 7.544 6.868 1.613.83 3.392 1.514 5.359 1.873 2.063.377 4.313.417 6.816.417 4.631 0 9.591-.039 14.309.104.248.357.212 1.442.052 1.873-2.135.307-4.357.104-6.556.104-2.25 0-4.498 0-6.712 0-2.33 0-4.545.085-6.556-.156-1.949-.234-3.795-.66-5.411-1.301-6.157-2.444-11.008-7.206-13.112-13.736-1.171-3.636-1.494-8.099-.676-11.863 1.544-7.104 6.004-12.195 11.759-15.089 2.302-1.157 4.679-2.063 7.805-2.29 6.237-.451 12.889-.001 19.458.001z"/><path d="m56.312 21.813c.167.438.167 1.487 0 1.925-5.767.437-12.635-.419-18.575.156-1.924.186-3.479.536-5.047 1.249-2.811 1.278-5.247 3.148-6.972 5.619-1.724 2.469-2.965 5.657-2.965 9.625 0 4.072 1.336 7.147 3.122 9.521 1.755 2.336 4.128 4.359 7.024 5.567 1.525.637 3.318 1.122 5.099 1.197 5.824.245 12.292-.222 18.314.156.167.423.167 1.451 0 1.873-2.688.284-5.509.104-8.325.104-2.888 0-5.784 0-8.481 0-5.501 0-9.408-1.911-12.435-4.527-2.93-2.532-5.413-6.257-6.192-10.822-.908-5.323.617-10.248 2.914-13.528 3.029-4.377 7.53-7.821 14.568-8.272 2.932-.189 6.024 0 9.053 0 2.993.001 6.002-.029 8.898.157z"/><path d="m56.312 25.611c.229.403.245 1.525 0 1.925-3.474.215-6.921.052-10.354.104-3.575.055-7.184-.395-10.198.468-2.661.762-4.888 2.283-6.452 4.319-1.57 2.043-2.758 4.603-2.758 7.96 0 3.444 1.256 5.969 2.862 7.909 1.562 1.886 3.906 3.509 6.556 4.214 1.566.417 3.185.322 4.943.364 4.843.115 10.205-.09 15.401.156.167.438.167 1.487 0 1.925-3.295.246-6.525.052-9.677.052-3.233 0-6.432.284-9.366-.104-5.498-.726-9.342-4.045-11.394-8.221-1.142-2.323-1.731-5.397-1.301-8.221.831-5.457 3.833-9.328 8.117-11.447 1.171-.579 2.277-.983 3.642-1.248 1.34-.261 3.011-.295 4.787-.312 4.972-.048 10.303.059 15.192.157z"/><path d="m56.312 29.618c.173.444.159 1.479 0 1.925-4.518.227-8.865.052-13.476.052-1.465 0-3.009-.046-4.475.052-3.391.228-5.732 2.255-6.972 4.579-1.55 2.905-1.175 6.54.468 8.949 1.022 1.499 2.371 2.523 4.059 3.174 1.862.717 3.994.516 6.295.624 2.34.111 4.725 0 7.128 0 2.319 0 4.669-.09 6.972.104.173.428.158 1.441 0 1.873-4.562.189-9.949.104-14.776.104-2.62 0-4.718-.084-6.608-.833-1.798-.713-3.053-1.815-4.267-3.122-1.394-1.869-2.595-4.245-2.393-7.492.188-3.033 1.636-5.464 3.226-7.024 1.714-1.698 4.012-2.967 7.284-3.122 2.826-.133 5.854 0 8.845 0 2.975 0 5.933-.016 8.69.157z"/></g></svg>