<svg enable-background="new 0 0 73.271 64.969" viewBox="0 0 73.271 64.969" xmlns="http://www.w3.org/2000/svg"><path clip-rule="evenodd" d="m73.133.181c.157 3.303.137 6.817.137 10.305 0 3.583.016 7.13-.137 10.578-.378-1.817-.421-3.556-.87-5.175-1.285-4.63-3.373-8.658-6.823-11.22-3.415-2.535-8.05-3.922-13.876-4.167-.986-.042-2.005 0-3.022 0-.938 0-1.916-.106-2.839.137-.167 3.376-.092 6.932-.092 10.441 0 3.542-.114 7.097.138 10.396 6.127.321 12.786-.411 17.905.916 4.849 1.256 8.732 4.07 8.609 10.304-.058 2.941-1.222 5.054-2.794 6.686-1.576 1.637-3.435 2.85-5.862 3.572-4.921 1.464-11.677.746-17.814 1.053-.211.658-.219 1.449-.183 2.198.097 2.044.117 4.619.046 6.687-.02.563-.067.99-.321 1.373.155.354.287.683.321 1.1.227 2.758-.245 6.23.092 8.93.86.322 1.912.184 2.931.184 2.492 0 5.121-.046 7.739-.046.424 0 .995-.14 1.282.229-.084.397-.576.271-.824.274-5.226.079-10.624.002-15.799 0-5.162 0-10.305.012-15.707-.045-.241-.003-.688.121-.824-.229.216-.447.857-.274 1.282-.274 3.51 0 7.239.096 10.533-.046.246-.85.137-1.736.137-2.61 0-13.487.004-26.155-.091-39.521-.912-.335-1.967-.123-3.022-.137-3.126-.043-6.685-.101-9.846 0-.722.473-.989 1.404-1.465 2.152-1.405 2.202-2.632 4.34-4.121 6.685-.899 1.415-1.797 2.897-2.61 4.625-.719 1.53-1.539 4.023-.504 5.679 1.332 2.13 4.434 2.2 7.785 2.106.639-.018 1.389-.156 1.877.23-.23.438-.877.305-1.282.32-3.561.134-7.37-.001-10.991 0-2.103 0-4.204.046-6.273.045-1.541 0-3.034-.045-4.58-.045-.437 0-.999.137-1.374-.184.141-.43.695-.274.961-.274 1.147 0 2.276.027 3.389-.229 3.869-.891 6.6-3.358 8.792-6.045 1.464-1.792 2.71-3.872 3.984-5.907 1.286-2.054 2.606-4.08 3.847-6.045 1.274-2.019 2.571-4.035 3.801-6.091 3.058-5.11 6.431-10.072 9.479-15.249.619-1.052 1.311-2.061 1.74-3.206-.392-.298-.917-.183-1.374-.183-3.476-.001-7.243-.045-10.166.504-3.425.642-6.434 1.822-8.747 3.479-2.387 1.711-4.055 4.078-5.358 6.869-.629 1.348-1.279 2.857-1.694 4.442-.434 1.656-.462 3.451-.778 5.312-.321-3.263-.183-6.898-.183-10.441 0-3.554-.076-7.135.091-10.487 11.924-.276 24.464-.045 36.635-.047 9.767-.001 19.43-.137 28.713.092zm-37.002 1.466c-.649.584-1.066 1.542-1.602 2.382-1.581 2.472-3.103 5.001-4.58 7.372-1.552 2.493-3.006 4.978-4.58 7.373-.534.813-1.185 1.596-1.419 2.564.938.249 1.983.138 3.022.138 3.095 0 6.422.157 9.388-.046.206-1.523.092-3.136.092-4.763 0-4.998.078-10.201-.092-15.066-.046 0-.054-.037-.091-.046-.054.022-.104.05-.138.092zm12.273 41.81c1.885 0 3.839.019 5.496-.184.798-.098 1.536-.352 2.244-.596 2.787-.961 4.903-2.679 6.228-5.083.819-1.486 1.264-3.356 1.099-5.495-.135-1.756-.781-3.373-1.557-4.671-1.581-2.642-3.904-4.46-7.327-5.129-2.544-.497-5.993-.138-8.838-.092-.171 2.138-.194 4.585-.138 6.961.116 4.825-.122 9.694.138 14.15.858.244 1.787.139 2.655.139z" fill-rule="evenodd"/></svg>