<svg enable-background="new 0 0 18.417 20.549" viewBox="0 0 18.417 20.549" xmlns="http://www.w3.org/2000/svg"><path d="m1.367 4.509c2.626-1.498 5.241-3.018 7.871-4.509 1.132.67 2.28 1.313 3.419 1.972 1.568.904 3.13 1.82 4.708 2.707-1.888 1.092-3.788 2.165-5.68 3.249-.796.473-1.629.885-2.395 1.407-.4.282-.764.63-.993 1.068-.204.432-.23.917-.236 1.386.002 2.389-.001 4.779.001 7.168-.003.49.433.925.917.947.278.007.575.026.829-.112.291-.173.516-.487.516-.835-.003-1.448 0-2.897-.002-4.345-.003-.358.025-.721-.063-1.072-.155-.623-.547-1.182-1.067-1.556 1.908-1.088 3.814-2.179 5.723-3.266.603-.345 1.213-.677 1.808-1.035.56.312 1.14.668 1.456 1.247.198.318.242.7.236 1.067.006 1.448.001 2.895.003 4.343-.001.272.007.547-.057.813-.083.413-.312.778-.579 1.098-.325.363-.766.585-1.18.828-1.662.944-3.323 1.891-4.987 2.833-1.393.84-3.217.839-4.638.067-1.866-1.065-3.737-2.122-5.6-3.194-.286-.175-.583-.353-.785-.627-.408-.469-.599-1.096-.592-1.71.003-2.514 0-5.029.002-7.543 0-.633.137-1.304.564-1.793.201-.276.509-.44.801-.603z"/></svg>