<svg enable-background="new 0 0 50.383 74.686" viewBox="0 0 50.383 74.686" xmlns="http://www.w3.org/2000/svg"><g clip-rule="evenodd" fill-rule="evenodd"><path d="m8.988 9.209c.393-.504.277-1.23.277-1.894 0-.683 0-1.411 0-2.125 0-2.72-.163-4.514 1.986-5.127 1.1-.314 2.281.623 2.587 1.247.344.7.231 1.928.231 3.095v6.652c0 .892.243 2.645-.185 3.049-.393.37-2.099.185-2.911.185-2.151 0-3.973 0-6.143 0-1.008 0-2.216.132-2.957-.092-1.16-.352-2.309-1.843-1.709-3.511.151-.42.708-1.122 1.34-1.34 1.019-.352 2.546-.069 3.742-.046 1.227.022 2.455.049 3.742-.093z"/><path d="m34.534 9.394c.363.941.23 2.224.23 3.511v7.391c0 1.27-.138 2.675.186 3.511.721 1.872 3.581 1.661 4.296 0 .347-.807.185-1.993.185-3.28 0-2.328-.02-4.681.046-6.883.03-1.036-.223-2.541.093-3.418.289-.804 1.176-1.54 2.078-1.571 1.144-.039 2.047.924 2.311 1.755.35 1.102.138 3.55.138 4.851.001 1.587 0 3.289 0 4.943.001 1.747.071 3.54-.322 4.666-1.148 3.284-4.748 6.218-9.332 4.527-2.287-.843-3.995-2.817-4.435-5.451-.308-1.844-.093-4.802-.093-7.114 0-.673.141-1.903-.139-2.263-.4-.518-2.48-.231-3.511-.231-3.489 0-6.193 0-9.654 0-.667 0-1.481.058-1.756-.185-.417-.368-.23-2.258-.23-3.233 0-1.201 0-2.336 0-3.419 0-2.142-.254-5.215.508-6.375.32-.487.974-.968 1.663-1.062 1.705-.235 2.709 1.061 2.817 2.448.119 1.518-.046 3.294 0 4.989.016.552-.064 1.267.139 1.524.374.476 2.466.231 3.558.231h7.576c1.271 0 2.545-.11 3.648.138z"/><path d="m46.96 8.655c1.078-.163 2.058.479 2.448 1.386.446 1.033.113 3.207.186 4.712.074 1.559 0 3.206 0 4.712 0 6.564.045 12.583.046 19.171v7.252c0 .819.057 2.022-.185 2.264-.433.432-3.085.185-3.973.185-2.734 0-5.652-.076-8.27.046-1.545.072-3.627-.311-4.804.139-.587.224-1.217.857-1.387 1.524-.348 1.372.477 2.478 1.525 2.772 1.021.287 2.749.092 4.064.092 2.639 0 5.334-.174 8.038-.046 1.375.065 2.859-.189 3.974.046.799.169 1.345.856 1.524 1.293.717 1.75-.345 3.172-1.339 3.511-.999.34-2.451.231-3.649.231-3.772 0-7.533 0-11.411 0-2.514 0-4.209-.704-5.636-2.079-1.294-1.247-2.265-3.087-2.217-5.451.042-2.097.955-3.5 1.894-4.573.998-1.141 2.422-2.073 4.111-2.356.982-.165 2.062-.093 3.142-.093 2.074 0 4.062-.046 6.421-.046.731 0 2.556.243 3.096-.092.505-.314.276-3.11.276-3.973.001-8.852 0-16.312 0-24.992.001-1.237-.234-2.997.139-4.065.306-.871 1.182-1.448 1.987-1.57z"/><path d="m9.127 20.065c-1.947-.645-4.807.098-7.022-.277-1.335-.226-2.292-1.384-1.986-2.864.245-1.186.999-1.889 2.448-2.033.752-.075 1.836.046 2.864.046 1.905 0 3.644-.001 5.729 0 .837 0 2.508-.134 2.817.231.318.374.185 1.798.185 2.633 0 10.301-.001 20.372 0 30.628 0 3.927.402 6.908 1.524 9.655 2.145 5.258 6.16 8.936 11.549 10.81 1.418.494 3.026.831 4.711.878 4.339.121 9.213-.046 13.859-.046.928 0 1.883-.087 2.68.092.832.187 1.571.887 1.755 1.709.316 1.416-.485 2.813-1.755 3.049-.822.153-1.887.046-2.91.046-2.909-.001-5.957.046-8.778.046-2.004 0-3.993.061-5.82-.046-1.896-.111-3.424-.497-4.896-.97-5.978-1.922-10.269-5.479-13.212-10.302-1.528-2.504-2.592-5.145-3.233-8.546-.64-3.387-.324-7.38-.324-11.411 0-6.797 0-13.74 0-20.603-.001-.902.118-1.855-.185-2.725z"/><path d="m44.004 26.717c.4.468.231 1.208.231 1.848 0 3.44-.086 6.726 0 10.302.021.878.264 3.395-.231 3.788-.486.386-2.713.109-3.511.139-3.413.128-7.756-.403-10.302.647-2.979 1.227-5.856 4.834-4.527 9.378.562 1.918 1.618 3.245 3.003 4.296 1.421 1.079 3.26 1.452 5.82 1.432 3.326-.026 7.198-.046 10.811-.046 1.088 0 2.983-.269 3.834.185 1.853.987 1.521 4.245-.6 4.758-.66.16-1.42.084-2.125.092-3.692.046-7.321.046-11.226.046-1.466 0-3.058.082-4.389-.185-4.929-.986-8.2-4.231-9.793-8.546-.92-2.489-.875-5.416-.093-7.899.772-2.456 1.941-4.111 3.557-5.59 1.576-1.442 3.279-2.647 5.913-3.234 1.882-.419 4.12-.35 6.468-.416.652-.018 1.719.169 2.125-.139.442-.335.36-1.657 0-2.171-1.314-.02-2.432.104-3.511-.046-3.411-.476-5.564-1.782-7.576-3.835-1.333-1.359-2.306-2.853-2.864-4.758-.256-.873-.539-1.901-.601-3.234-.025-.55-.016-1.069-.046-1.755-.026-.604.125-1.443-.139-1.755-.323-.382-3.753-.414-4.158-.046-.358.325-.214 1.428-.184 2.079.039.857.017 1.687 0 2.31-.121 4.337 0 9.093 0 13.581 0 5.028.109 9.291 0 13.813-.034 1.436.413 2.68.832 3.788 1.534 4.063 5.212 7.528 10.116 8.408 2.665.478 6.088.138 9.009.138 2.204 0 4.529.131 6.79.046 1.091-.041 2.012-.142 2.634.277 1.706 1.151 1.24 4.111-.785 4.573-1.521.347-3.618.104-5.359.092-3.228-.022-7.29.046-10.855.046-1.839-.001-3.322-.358-4.712-.786-2.567-.79-5.075-2.381-6.93-4.111-1.935-1.804-3.511-4.114-4.48-6.56-.515-1.296-.947-2.764-1.155-4.388-.622-4.853-.129-11.06-.231-16.215-.127-6.391.001-12.84 0-19.356 0-.855-.149-2.245.277-2.633.306-.278 1.54-.139 2.218-.139 3.511 0 6.033-.047 9.608-.046.804 0 1.982-.117 2.264.231.235.29.139 1.461.139 2.033 0 2.063-.149 4.487 0 6.421.191 2.477 1.536 4.323 3.095 5.497 1.717 1.292 4.181 1.938 6.745 1.201 1.729-.497 2.84-1.345 3.834-2.587.27-.338.504-.921 1.06-.969z"/></g></svg>