<svg enable-background="new 0 0 85.273 78.387" viewBox="0 0 85.273 78.387" xmlns="http://www.w3.org/2000/svg"><g clip-rule="evenodd" fill-rule="evenodd"><path d="m85.117.301c.022.045.044.09.1.101.066 26.591.113 52.281-.1 77.861-3.5.197-7.047.101-10.592.101-17.226 0-35.601-.101-53.113-.101-7.129.001-14.254.113-21.286-.2-.022-.045-.044-.09-.1-.101-.075-25.095.042-51.117 0-77.611.086-.064.062-.239.201-.251.036-.046.091-.076.15-.1 21.216.075 42.428.149 63.755.151 7.071 0 14.109-.048 20.985.15zm-52.009 31.978c14.136 0 28.496.271 42.119.05 1.131-.018 2.338.082 2.761-.301s.26-1.229.301-2.108c.034-.711.05-1.568.05-2.159 0-3.248.211-6.051-.101-8.785-.433-3.803-2.783-6.287-5.371-7.982-1.903-1.247-4.202-1.81-7.028-1.908-2.835-.098-5.801.05-8.835.05-5.961 0-11.601-.05-17.57-.05-2.873 0-6.31-.127-9.036 0-8.206.382-13.388 3.782-17.671 8.183-1.595 1.721-2.864 3.588-3.916 5.773-.519 1.078-.89 2.301-1.305 3.514-1.194 3.489-1.582 8.865-.803 12.952 1.045 5.484 3.444 9.517 6.526 12.902 2.976 3.269 7.47 5.964 12.4 7.028 1.169.252 2.726.553 4.317.552.752 0 1.612.004 2.41 0 .727-.004 1.634-.123 2.208.151.992.472.701 1.927.854 3.213.315 2.657 1.546 4.546 2.912 5.974 1.314 1.67 3.208 2.763 5.572 3.313 1.343.312 2.614.556 4.016.351 3.805-.556 6.407-2.502 8.133-5.271.873-1.401 1.55-2.934 1.656-5.02.048-.925-.129-1.899.352-2.259 1.339-.669 3.259-.402 5.021-.402 1.842 0 3.548.079 5.271 0 1.529-.07 2.956-.701 4.066-1.406 1.143-.726 2.16-1.555 2.962-2.51 1.591-1.894 2.912-4.329 2.912-8.032.001-2.353-.018-5.672.05-8.133.022-.771.018-2.146-.301-2.46-.472-.464-2.47-.251-3.614-.251-7.018 0-14.265-.05-21.386-.05-1.179 0-2.342-.143-3.414.1-.712.667-.442 1.7-.452 2.611-.034 3.153-.05 6.153-.05 9.287v6.326c0 3.289.719 7.778-2.008 8.333-1.405.286-2.532-.886-2.761-2.059-.168-.864-.05-1.968-.05-3.012 0-6.261 0-12.221 0-18.474 0-.971.112-2.478-.251-2.861-.451-.476-1.903-.301-3.062-.301-1.243 0-2.424 0-3.414 0-2.241 0-4.942.185-6.677-.101-1.378-.226-2.5-1.167-2.309-3.012.524-1.897 2.114-1.756 4.516-1.756z"/><path d="m29.343 18.273c2.988-.274 6.427-.05 9.538-.05 7.56 0 15.885.049 23.695.05 1.568 0 3.606-.251 4.719.151.662.239 1.29.851 1.707 1.606.348.631.824 2.022.201 2.661-.436.445-2.316.281-3.213.251-3.364-.113-6.962.05-10.492.05-4.749 0-9.261-.05-14.157-.05-2.343 0-4.81-.141-7.078-.05-2.375.095-4.497.068-6.326.653-3.464 1.108-6.098 3.375-7.379 6.827-.706 1.901-.911 4.889-.402 7.028.481 2.02 1.667 3.938 2.811 5.17 1.803 1.941 4.487 3.378 8.434 3.564 1.159.055 2.931-.265 3.514.352.372.393.301 1.28.301 2.159 0 1.043.15 1.64-.301 2.108-.597.62-2.636.334-3.815.301-4.009-.112-7.052-1.495-9.337-3.213-3.124-2.349-5.56-5.662-6.426-10.342-.435-2.35-.283-5.405.402-7.58 1.344-4.271 3.822-7.36 7.279-9.488 1.698-1.044 3.767-1.923 6.325-2.158z"/><path d="m57.908 50.602c.051-1.351-.54-3.6.502-4.317 2.982-.044 5.648-.217 8.785-.1.946.035 1.816-.012 2.108.603.373.784-.01 2.078-.351 2.66-.554.945-1.507 1.589-2.912 1.707-1.321.111-2.953-.005-4.418.05-1.461.055-3.082.233-3.714-.603z"/></g></svg>