<svg enable-background="new 0 0 76.119 38.316" viewBox="0 0 76.119 38.316" xmlns="http://www.w3.org/2000/svg"><g clip-rule="evenodd" fill-rule="evenodd"><path d="m37.762.171c.26 2.755.149 6.171.149 9.236 0 1.017.08 2.011-.149 2.864-3.774.207-8.571-.15-12.2.198-.239 2.094-.148 4.242-.148 6.421 0 6.485.071 12.949-.049 19.213-.962.233-2.028.169-3.062.148-3.038-.06-6.145.072-9.137-.099-.296-8.332.098-17.353-.198-25.684-4.371-.288-8.817.071-12.842-.247-.146-3.901-.203-8.324.05-12.102 6.505-.084 13.039-.035 19.51-.099 3.039-.03 6.089.122 9.138.049 3.001-.069 6.013-.151 8.938.102z"/><path d="m62.755.171c.266 1.831.148 4.003.148 6.124 0 2.109.098 4.27-.148 6.026-3.275.179-7.24.099-10.817.099-.39 0-1.092-.166-1.136.395.123.866 1.717.543 2.618.543 3.049 0 6.53-.08 9.335.099.18 1.83.099 3.86.099 5.829 0 1.975.139 3.924-.099 5.631-2.717.248-6.071.148-9.187.148-.822 0-2.657-.221-2.766.346-.183.951 1.826.642 2.618.642 2.986 0 6.463-.193 9.384.099.098 3.772.127 8.226-.049 12.002-7.828.174-16.121.156-24.104 0-.322-7.728.005-16.066-.099-23.757-.054-3.964-.001-7.906 0-12.002 0-.751-.116-1.551.148-2.272 7.851-.063 16.347-.097 24.055.048z"/><path d="m75.992.221c.164 4.032.175 8.206 0 12.101-3.838.165-8.361.164-12.2 0-.123-2.888-.174-6.273-.099-9.385.024-.997-.164-1.994.198-2.815 4.004.028 8.295-.144 12.101.099z"/><path d="m75.992 13.458c.164 7.98.165 16.665 0 24.696-3.877.181-8.265.249-12.2 0-.202-6.888-.099-14.488-.099-21.831 0-.987-.121-2.022.148-2.964 3.871.016 8.296-.097 12.151.099z"/></g></svg>