<svg enable-background="new 0 0 81.116 42.816" viewBox="0 0 81.116 42.816" xmlns="http://www.w3.org/2000/svg"><g clip-rule="evenodd" fill-rule="evenodd"><path d="m62.859 2.599c-.32-.249-1.366-.197-1.761-.05-.146 12.248-.07 25.166.05 37.635.363.222 1.4.234 1.761 0 .302-2.682-.057-5.572.101-8.251.15-2.558 1.192-4.552 2.415-5.938 1.205-1.505 2.8-2.722 5.081-3.27 2.066-.497 5.567-.5 7.497.201 1.531.556 2.865 1.954 3.069 3.723.251 2.18-.641 4.066-1.46 5.535-1.63 2.925-3.918 5.484-6.691 7.245-2.817 1.789-6.214 3.166-10.566 3.371-2.125.101-4.247-.302-6.088-.855-3.418-1.026-6.479-3.021-8.554-5.333-.395-.441-.753-1.01-1.157-1.509-2.572-3.179-4.798-8.051-4.729-13.686.069-5.701 2.224-10.336 4.881-13.584 2.57-3.144 5.758-5.731 10.213-7.044 1.254-.369 2.748-.646 4.327-.755 2.875-.198 5.558.517 7.698 1.308 4.334 1.603 7.357 4.423 9.862 8.101.574.844 1.198 1.784 1.61 2.868.548 1.441.984 3.259.453 4.78-1.173 3.36-5.03 3.943-9.358 3.421-3.462-.417-6.216-2.739-7.547-5.434-1.538-3.114-.767-8.127-1.107-12.479z"/><path d="m38.004 22.625c.224-.341.201-1.253.05-1.661-1.418-.273-2.897-.151-4.377-.151-10.381 0-21.333-.044-31.245.101-.243.358-.19 1.33-.051 1.761 2.897.346 5.507-.024 8.151.201 2.443.208 4.303 1.354 5.685 2.817 1.277 1.351 2.483 3.226 2.818 5.685.177 1.297.137 2.685.101 4.075-.073 2.748-.779 4.936-2.767 5.938-1.829.92-4.104.063-5.585-.705-1.674-.867-2.934-1.956-4.126-2.969-3.704-4.183-6.916-9.214-6.642-17.157.251-7.268 3.953-12.23 7.849-15.899 3.039-2.376 6.593-4.137 11.673-4.377 3.246-.153 5.981.698 8.201 1.711 4.494 2.049 7.845 5.442 10.063 9.761 1.113 2.168 2.018 4.836 2.365 7.547.771 6.03-1.196 11.687-3.924 15.396-1.339 1.82-2.981 3.515-4.981 4.931-1.641 1.162-4.712 3.055-7.245 1.811-2.236-1.098-3.019-3.44-3.019-6.742 0-1.683.039-3.132.352-4.428.31-1.282.879-2.382 1.56-3.321 1.31-1.805 3.135-3.433 5.786-3.975 2.883-.588 5.993.11 9.308-.35z"/></g></svg>