<svg enable-background="new 0 0 80.106 78.974" viewBox="0 0 80.106 78.974" xmlns="http://www.w3.org/2000/svg"><path clip-rule="evenodd" d="m79.825.235c.205 2.176.156 4.616.156 7.017 0 2.404.119 4.816-.156 6.964-12.304.207-24.818.105-37.212.104-2.027 0-4.075-.106-6.081-.053-2.029.055-4.035-.095-6.029.053-3.736.275-6.639 1.697-8.939 3.534-3.443 2.748-5.985 6.572-6.497 12.161-.175 1.916.05 3.931-.052 6.081-.093 1.972 0 4.075 0 6.133 0 2.076-.037 4.126.156 6.028.379 3.74 1.512 6.588 3.43 9.043 1.779 2.278 4.159 4.418 6.964 5.458 1.508.559 3.131 1.094 5.042 1.195 1.936.103 4.072.052 6.184.052 4.092-.001 8.239.169 12.162.052 3.786-.112 6.858-1.573 9.147-3.326 3.386-2.593 6.327-6.431 6.912-11.746.209-1.896.104-3.95.104-6.133 0-4.004.05-8.16-.104-12.213-.633-.29-1.352-.14-2.026-.156-4.666-.111-9.988 0-14.916 0-5.754 0-11.563-.101-16.995 0-.281 1.339-.156 2.808-.156 4.262 0 4.282-.057 8.884.156 12.993 1.228.274 2.679.156 4.105.156 3.518 0 7.006-.095 10.654 0 .978.025 2.107.152 1.611-1.092-.266-.666-2.763-.364-3.534-.364-3.8 0-8.074.063-11.33-.104-.279-1.076-.156-2.289-.156-3.482 0-3.511-.085-7.421.104-10.81 1.208-.294 2.479-.105 3.742-.105 8.766.002 18.466.014 27.233.053.023.046.045.093.104.104.19 3.909.104 7.995.104 11.746 0 3.911-.316 7.242-1.767 9.979-1.359 2.561-3.362 4.605-5.665 6.185-2.368 1.623-5.36 2.65-9.199 2.65-3.902 0-7.986-.052-11.798-.052-3.96 0-7.468-.31-10.082-1.767-5.032-2.803-8.627-7.367-8.627-15.072 0-3.856-.052-7.565-.052-11.486 0-3.999.459-7.272 1.819-10.03 1.355-2.748 3.254-4.671 5.665-6.185 1.228-.771 2.633-1.398 4.158-1.768 1.596-.387 3.331-.363 5.457-.364 11.5 0 23.564.054 34.978.053 1.916 0 3.826-.069 5.717 0 1.862.068 3.746-.259 5.561.156.495 10.845-.205 21.02.208 31.339.207 5.186-1.104 9.537-2.807 13.097-1.682 3.517-4.047 6.716-6.704 9.147-2.693 2.465-5.767 4.714-9.511 6.393-3.729 1.672-7.772 2.859-12.993 2.858-5.321-.001-10.406.004-15.695-.052-5.123-.054-9.4-1.069-13.097-2.755-3.644-1.661-6.793-3.777-9.459-6.444-4.025-4.026-7.155-8.662-8.783-15.021-.536-2.091-.767-4.384-.936-6.964-.164-2.501.106-5.075 0-7.744-.102-2.552-.136-5.187-.052-7.848.325-10.392 3.83-17.045 9.094-22.659 5.056-5.39 12.464-8.948 22.296-9.407 3.85-.179 8.3.001 12.265 0 10.943 0 22.027.001 33.263 0 .941 0 1.931-.12 2.859.156z" fill-rule="evenodd"/></svg>