<svg enable-background="new 0 0 39.664 63.799" viewBox="0 0 39.664 63.799" xmlns="http://www.w3.org/2000/svg"><g clip-rule="evenodd" fill-rule="evenodd"><path d="m7.804 0c.153.176.111.545.197.787.325.234 1.067.348.689.986-.198.129-.557.1-.689.295-.109.528-.209 1.141.05 1.526.197.295.494.22.689.492.114 1.084-1.598.842-1.97.445-.534-.572-.03-1.67-.344-2.414-.096-.25-.484-.205-.592-.443 0-.146 0-.295 0-.443.693-.374.907-1.227 1.97-1.231z"/><path d="m21.986 1.182c.036 1.271.421 3.658-.246 4.48-.659.812-3.587 1.293-3.693-.443.361-.213.579-.275.985-.195.396.076.571.479.886.492.4.016.765-.25.69-.936-.649-.109-.96.197-1.477.147-1.404-.135-1.698-2.262-.886-3.199.423-.49 1.462-.766 2.216-.297.4-.131 1.096-.241 1.525-.049zm-1.97 2.658c.827-.053.911-2.242-.197-1.969-.806.199-.72 2.029.197 1.969z"/><path d="m36.61 4.726c-.283.147-.948.147-1.231 0-.346-.865.342-2.803-.689-2.807-1.08-.004-.277 2.023-.738 2.807-.25.139-.938.16-1.182 0-.453-.768.316-2.744-.689-2.807-1.087-.066-.474 1.9-.788 2.807-.248.152-.983.152-1.231 0-.16-.967-.165-2.578 0-3.545.413-.195 1.216-.117 1.526.1.381-.074.517-.262.886-.297.615-.057 1.032.436 1.478.443.441.008.694-.389 1.083-.443 2.004-.285 1.787 1.86 1.575 3.742z"/><path d="m39.466 24.424c.226 1.559.067 3.166.099 4.777.218 11.037.021 23.24-.049 34.418-6.475.432-13.02-.086-19.598.1-4.864.137-9.975.074-14.92 0-1.65-.025-3.285.203-4.875-.1-.159-12.73-.167-26.459 0-39.146 3.682-.338 7.795-.014 11.67-.197 2.237-.106 4.56.049 6.844.049 6.903.001 13.996-.083 20.829.099zm-21.961 20.779c.721 1.432 3.095 1.838 4.235.543 1.65-1.879-.039-4.596-2.413-4.236-1.381.209-2.75 1.851-1.822 3.693zm13.837-3.102c-.318 1.076-.201 2.803-.049 3.891 1.047.164 2.743.158 3.792 0 .161-1.051.163-2.742 0-3.793-1.008-.271-2.518-.135-3.743-.098zm-22.799 1.872c-.423-.637-.731-1.336-1.28-1.871-.033 0-.065 0-.099 0-1.024 1.109-1.852 2.414-2.56 3.84.969.297 2.302.129 3.447.1.574-.016 1.162.096 1.625-.1-.156-.803-.734-1.368-1.133-1.969z"/></g></svg>