<svg enable-background="new 0 0 76.874 76.408" viewBox="0 0 76.874 76.408" xmlns="http://www.w3.org/2000/svg"><g clip-rule="evenodd" fill-rule="evenodd"><path d="m37.456.031c4.446-.211 9.082.678 12.665 1.733 3.724 1.098 6.735 2.789 9.68 4.672 1.923 1.229 3.758 2.746 5.297 4.286 6.35 6.351 11.295 14.322 11.751 26.534.231 6.225-1.12 11.587-3.034 16.036-2.869 6.67-7.291 11.924-12.81 15.94-3.645 2.651-7.919 4.757-13.099 6.067-2.634.667-5.56 1.108-8.428 1.107-3.275 0-6.088-.296-8.812-.771-2.617-.455-5.07-1.354-7.32-2.263-2.255-.911-4.312-2.084-6.261-3.323-.959-.61-1.793-1.396-2.696-2.119-4.439-3.548-7.879-7.935-10.595-13.337-2.188-4.35-3.47-9.343-3.756-15.361-.29-6.096 1.11-11.705 2.985-16.085 1.971-4.602 4.432-8.188 7.705-11.461 4.775-4.775 10.32-8.668 18.203-10.547 2.669-.636 5.453-.961 8.525-1.108zm15.892 4.528c-4.854-2.264-12.276-3.704-19.311-2.842-5.998.735-10.851 2.6-14.977 5.153-4.905 3.034-9.036 7.158-12.087 12.039-2.057 3.29-3.676 7.181-4.623 11.51-1.034 4.721-.955 10.052-.145 14.591.77 4.321 2.554 8.353 4.43 11.654 1.926 3.388 4.541 6.183 7.272 8.812 2.804 2.701 6.064 4.733 9.775 6.357 3.863 1.688 8.025 2.821 13.051 3.033 5.311.225 9.835-.571 14.014-1.974 7.774-2.61 13.992-7.888 18.203-14.015 4.222-6.141 7.451-14.876 6.116-25.427-1.192-9.42-5.501-16.027-10.836-21.381-3.067-3.005-6.651-5.538-10.882-7.51z"/><path d="m36.203 6.773c.175 5.205.098 10.634.097 15.94v11.895c0 2.453-.359 4.807 1.686 5.152 1.089.185 1.944-.486 2.216-1.252.317-.899.144-2.75.144-3.949.001-9.406-.064-18.955.097-27.738 1.517-.162 3.684-.156 5.201 0 .181 8.058.096 16.411.096 24.801v4.19c0 1.381.071 2.788-.192 3.997-.729 3.351-3.83 6.002-7.705 5.634-2.013-.191-3.46-.934-4.671-2.022-1.08-.971-2.056-2.582-2.264-4.431-.145-1.282 0-2.707 0-4.093-.001-8.379.049-16.452.049-24.319 0-.684.021-1.39 0-2.071-.018-.58-.159-1.259.192-1.781 1.563-.052 3.569-.139 5.054.047z"/><path d="m59.656 48.767c.227 1.577.17 3.591 0 5.201-5.899.167-12.512-.003-19.167 0-4.924.002-9.389-.049-14.495-.049-1.53 0-3.646-.267-4.671.193-.653.293-1.302 1.148-1.06 2.263.454 2.087 3.32 1.522 5.972 1.541 9.718.07 19.257.143 28.893.145.811 0 1.619.054 2.408.048.719-.005 1.449-.142 2.119.097.126 1.569.24 3.664 0 5.153-11.323.101-23.65-.003-35.348-.097-2.099-.017-3.732.082-5.249-.53-2.169-.875-3.376-2.389-4.094-4.719-.705-2.293-.206-4.585.916-6.356.642-1.015 1.553-1.739 2.6-2.264 1.138-.57 2.287-.737 4.046-.818 2.924-.137 6.422.001 9.391 0 9.338-.005 18.661-.014 27.739.192z"/></g></svg>