<svg enable-background="new 0 0 84.158 28.553" viewBox="0 0 84.158 28.553" xmlns="http://www.w3.org/2000/svg"><g clip-rule="evenodd" fill-rule="evenodd"><path d="m65.672 8.951c-.883.283-1.919.156-2.938.156-2.107 0-4.394.111-6.35-.051-.71-2.178-1.891-3.949-4.46-4.199-3.103-.301-4.486 2.154-5.3 4.199-2.997.07-6.123.117-9.026-.106-.218-2.619-.014-5.713 0-8.449 1.281-.266 2.858-.156 4.408-.156 1.542 0 3.142-.125 4.408.156.291 1.756-.073 4.166.21 5.93.615-.328.842-1.049 1.154-1.574 1.601-2.691 4.494-5.162 9.183-4.826 2.417.172 4.509 1.221 5.93 2.623 1.549 1.529 2.775 3.66 2.781 6.297z"/><path d="m8.947.396c.175 2.576.172 5.875 0 8.449-1.242.281-2.794.158-4.303.158-1.481 0-3.006.066-4.25-.158-.188-1.76-.105-4.199-.105-6.402 0-.654-.096-1.764.157-2.047.039-.047.096-.078.158-.104 2.747.069 5.769-.138 8.343.104z"/><path d="m27.68.449c.265 2.646.141 5.758 0 8.449-1.365.273-3.004.162-4.513.158-1.537-.006-3.099.051-4.46-.158-.18-2.057-.1-4.576-.105-6.717-.002-.592-.047-1.402.262-1.836 2.87.016 5.983-.121 8.816.104z"/><path d="m84.039.554c.181 2.728.149 5.814-.052 8.502-2.518.205-5.992.152-8.659 0-.213-2.615-.016-5.715 0-8.449.16-.193.409-.135.63-.158 2.39-.233 5.805.111 8.081.105z"/><path d="m8.789 19.445c.515 1.27 1.064 2.504 2.099 3.254 1.51 1.301 4.783 1.012 5.982-.367.749-.756 1.139-1.869 1.627-2.887 2.94-.068 6.338-.146 9.131.106.281 1.246.157 2.787.157 4.303 0 1.483.083 3.02-.105 4.303-1.322.279-2.968.158-4.565.158-1.6 0-3.238.117-4.565-.158-.306-1.723.097-4.154-.21-5.877-.694.297-.765 1.041-1.102 1.574-1.502 2.385-4.02 4.367-7.504 4.67-2.619.229-5.018-.891-6.455-2.15-.843-.74-1.657-1.885-2.257-2.94-.62-1.09-1.147-2.519-.997-3.935 2.697-.21 5.981-.107 8.764-.054z"/><path d="m46.361 19.603c.16 2.707.2 6.074 0 8.658-2.731.209-6.072.129-8.763-.053-.208-2.627-.106-5.84-.053-8.553.227-.17.615-.191.892-.211 2.536-.161 5.455.104 7.924.159z"/><path d="m64.99 19.603c.331 1.352.105 2.975.105 4.512 0 1.48.198 2.971-.105 4.199-2.593.174-5.908.174-8.501 0-.217-1.225-.105-2.736-.105-4.25 0-1.484-.043-3.016.052-4.356.184-.244.563-.139.84-.158 2.354-.164 5.417-.07 7.714.053z"/><path d="m83.986 19.708c.174 2.627.174 5.979 0 8.606-1.248.254-2.773.105-4.303.105-1.489 0-3.047.084-4.355-.105-.188-1.811-.104-4.305-.104-6.561 0-.645-.101-1.842.157-2.098.039-.049.095-.08.157-.105h4.303c1.449 0 2.92-.123 4.145.158z"/></g></svg>