<svg enable-background="new 0 0 76.378 77.704" viewBox="0 0 76.378 77.704" xmlns="http://www.w3.org/2000/svg"><g clip-rule="evenodd" fill-rule="evenodd"><path d="m25.259 5.301c-1.249-.641-.755-2.289-.051-2.881.478-.403 1.627-.681 2.426-.91 2.444-.701 5.936-1.34 8.594-1.466 7.192-.34 13 1.316 17.843 3.589 4.931 2.315 9.016 5.45 12.283 9.149 1.776 1.868 3.186 3.801 4.6 6.116.352.576 1.194 1.742 1.062 2.376-.174.823-1.461.86-2.174.607-.782-.279-1.292-1.288-1.82-2.173-3.398-5.704-8.536-9.906-14.507-13.092-2.549-1.36-5.562-2.409-8.846-2.982-1.142-.2-2.317-.435-3.437-.505-5.153-.326-9.764.294-14.002 1.567-.7.209-1.061.531-1.971.605z"/><path d="m60.44 66.463c2.554-2.043 5.015-4.709 7.025-7.683.628-.928 1.191-2.272 2.123-2.729.569-.279 2.01-.438 2.376.253.476.548-.278 1.404-.556 1.92-.37.689-.626 1.258-.961 1.669-1.998 3.259-4.468 6.045-7.329 8.441-3.368 3.043-7.066 5.056-11.524 6.874-4.381 1.787-9.866 2.872-15.821 2.376-11.112-.926-18.817-5.728-24.92-11.828-2.977-2.977-5.573-6.719-7.38-11.019-1.791-4.266-3.386-8.968-3.387-14.962-.001-10.684.002-21.339 0-32.198 0-1.404-.25-3.449.102-4.448.443-1.262 2.48-.962 2.881.101.343.909.051 2.77.051 4.145.001 9.98-.001 20.257 0 29.57 0 3.05.046 5.692.505 8.087.46 2.395 1.088 4.541 1.871 6.672 2.95 8.029 8.752 14.249 15.973 18.298 3.636 2.039 8.013 3.542 12.94 4.195 5.54.734 10.627-.187 15.013-1.618 4.287-1.399 7.677-3.532 11.018-6.116z"/><path d="m58.367 60.043c.698-.623 1.308-1.354 1.971-2.123.648-.749 1.208-1.685 2.072-1.971.89-.295 2.322-.173 2.528.506.195.647-.739 1.558-1.113 2.072-3.162 4.36-7.548 7.809-12.737 10.109-3.095 1.372-6.476 2.385-10.412 2.679-4.342.325-8.203-.503-11.525-1.416-3.206-.88-6.319-2.443-8.846-4.246-6.298-4.496-11.198-10.59-13.293-19.359-.417-1.743-.811-3.737-.86-5.661-.079-3.092.089-6.322.051-9.453-.057-4.775.045-9.386 0-14.153-.035-3.799 0-7.43 0-11.525 0-1.787-.196-2.995 1.365-3.235.719-.11 1.391.386 1.567.758.349.738.101 2.32.101 3.639.002 8.833-.002 18.123 0 26.739.001 2.674-.102 5.227.102 7.582.206 2.39.541 4.555 1.213 6.47 1.347 3.841 2.938 7.02 5.357 9.958 4.74 5.757 10.983 9.721 20.017 10.666 4.983.521 9.442-.573 13.143-2.022 3.712-1.453 6.497-3.425 9.299-6.014z"/><path d="m19.092 51.198c2.729 4.134 5.868 6.916 10.514 8.947 2.895 1.266 6.847 2.067 10.918 1.719 4.758-.407 8.597-2.322 11.575-4.6.648-.496 1.24-1.102 1.921-1.314 1.075-.335 2.952-.276 3.134.404.184.689-1.025 1.566-1.517 2.022-1.919 1.784-3.872 3.134-6.52 4.347-3.316 1.52-7.321 2.718-11.979 2.376-8.647-.636-14.947-4.608-19.006-9.958-2.151-2.834-3.896-5.819-4.852-9.654-.471-1.882-.859-3.997-.859-6.369.001-10.627-.061-21.596 0-32.552.01-1.81-.429-4.126 1.364-4.246 1.933-.129 1.618 1.906 1.618 3.993-.001 7.617 0 15.08 0 22.645-.001 4.513-.298 8.922.202 12.789.487 3.776 1.821 6.803 3.487 9.451z"/><path d="m19.598 2.37c.652-.136 1.61.108 1.87.657.471.996.115 3.548.151 4.853.05 1.764-.004 3.74 0 4.852.021 6.287.001 12.634-.051 19.461-.024 3.267-.17 6.761.304 9.604.727 4.368 2.786 7.238 5.459 9.705 1.771 1.636 3.977 2.802 6.47 3.64 2.525.848 6.137.725 9.2.707.492-.002 1.611.036 2.426 0 .183-.008 1.999-.178 2.123.404.138.649-.905.933-1.567 1.213-2.033.861-4.22 1.518-6.723 1.617-4.02.161-6.744-.893-9.148-1.92-2.426-1.037-4.627-2.785-6.369-4.751-2.643-2.985-4.632-6.434-5.206-11.424-.189-1.631-.102-3.42-.102-5.257.002-9.645.05-19.977.051-29.923 0-1.694-.32-3.14 1.112-3.438z"/><path d="m64.939 21.375c-.226.782-1.77.472-2.629.455-1.232-.741-1.884-2.035-2.831-3.033-2.764-2.913-6.249-5.524-10.312-7.228-1.452-.609-3.229-1.173-5.004-1.517-4.071-.787-8.967-.847-12.99.253-1.496.409-3.008.927-4.499 1.567-.487.209-1.093.54-1.517.455-.9-.182-.77-2.12-.455-2.679.432-.766 1.527-1.122 2.478-1.466 1.039-.376 1.981-.694 2.932-.96 4.528-1.272 9.625-1.383 14.354-.354 3.432.747 6.166 1.813 8.846 3.286 2.589 1.422 4.849 3.066 7.026 5.055 1.309 1.388 2.633 2.716 3.74 4.347.355.521.843 1.087.861 1.819z"/><path d="m55.637 19.303c.31.588 1.702 1.046 1.517 2.022-.171.902-2.496.562-3.032.404-1.066-.312-1.592-1.103-2.427-1.718-1.685-1.243-3.165-2.123-5.357-2.932-.995-.367-2.102-.771-3.185-.96-4.733-.827-8.998-.551-12.688.809-1.193.44-2.339.913-3.336 1.466-.753.417-2.53 1.982-2.679 0-.163-2.171.911-2.569 2.577-3.387 1.965-.964 4.221-1.781 6.521-2.173 9.443-1.611 17.379 1.986 22.089 6.469z"/><path d="m26.927 26.379c-.336.338-.526.601-.859.96-.268.289-.59.794-1.062.758-.911-.07-.736-2.929-.404-3.741.271-.662.978-1.163 1.617-1.668 2.852-2.251 6.419-4.063 11.373-4.296 3.001-.142 6.019.674 8.239 1.618.552.234 2.021.7 1.921 1.364-.098.651-1.922.455-2.78.455-3.232 0-6.838-.126-9.452.253-3.663.532-6.335 2.302-8.593 4.297z"/><path d="m32.992 48.367c2.373 1.501 5.898 1.473 9.452 1.365 3.541-.107 7.456-.091 10.816.051 5.317.224 11.16-.131 16.429.101 1.521.067 4.328-.452 4.802.505.392.792-.493 2.258-1.011 2.476-.855.361-3.511.102-4.701.102-9.526-.001-18.736-.102-28.256-.102-1.603 0-3.166.067-4.549-.202-5.145-1-8.704-4.448-10.464-8.644-.963-2.297-1.246-5.526-.606-8.239.616-2.608 1.582-4.573 3.184-6.369 2.085-2.17 4.246-4.228 8.139-4.6 1.996-.191 4.158-.05 6.317-.051 6.444 0 12.024.051 18.753.051 2.865 0 6.144.101 9.149.101.799 0 2.273-.199 2.932.101.584.266 1.392 1.795 1.011 2.578-.284.586-1.057.556-2.173.556-4.765 0-8.788-.051-13.597-.05-3.857 0-6.687-.051-10.615-.051-3.633 0-7.029-.045-10.666 0-3.018.038-4.785 1.304-6.368 2.83-1.845 1.777-3.437 4.386-3.437 7.885 0 4.413 2.313 7.408 5.459 9.606z"/><path d="m37.946 31.131c2.396-.13 6.357-.051 9.301-.051 6.147.001 12.357.102 18.702.101 2.122 0 4.654-.012 6.925.051.838.023 1.65-.13 2.123.101.646.315 1.362 1.824.81 2.679-.511.79-3.115.506-4.397.506-9.725 0-19.157-.101-29.115-.102-1.641 0-3.336-.159-4.752.102-2.691.495-4.808 3.371-3.285 6.318.425.823 1.016 1.45 1.87 1.92 2.077 1.145 6.483.807 9.705.758 6.437-.098 13.986.087 20.472.051 1.441-.008 3.216.051 5.055.05 1.55 0 4.097-.342 4.549.556.405.806-.276 2.08-.859 2.375-.436.221-1.556.169-2.274.203-.846.039-1.67-.023-2.274-.051-1.616-.073-3.226.082-4.802.051-7.783-.153-16.129-.102-23.959-.101-1.646 0-3.313.149-4.752-.101-1.691-.295-3.54-1.378-4.448-2.527-.251-.317-.479-.78-.708-1.163-.874-1.458-1.391-3.843-.858-5.914.823-3.222 3.009-5.597 6.971-5.812z"/><path d="m36.733 38.915c.098-1.647 1.72-1.517 3.74-1.517h2.831c2.127 0 4.331-.029 5.763-.101 2.13-.106 4.422.051 6.672.051 2.192 0 4.408.05 6.672.05 3.207.001 6.57.101 10.009.101.966 0 2.708-.152 3.235.101.793.382 1.062 2.32.151 2.881-.621.383-3.688.202-4.65.202-9.519.001-19.224-.101-28.862-.101-2.553.001-5.339.564-5.561-1.667z"/></g></svg>