<svg enable-background="new 0 0 73.054 72.029" viewBox="0 0 73.054 72.029" xmlns="http://www.w3.org/2000/svg"><g clip-rule="evenodd" fill-rule="evenodd"><path d="m72.839.197c.122.973.144 2.105.144 3.25 0 1.125.108 2.313-.144 3.25-21.282.259-44.04-.149-65.995.143-.247.604-.251 1.828-.095 2.532 5.494.224 11.013.048 16.534.048 5.532.001 11.076.228 16.582.096 8.231-.198 16.392 0 24.754 0 2.752 0 5.491-.079 8.219.096.211 1.873.248 4.585 0 6.451-1.468.241-2.964.066-4.444.096-4.256.083-8.962.048-13.572.048-18.156-.001-36.582.01-54.669-.096-.251-4.505-.043-9.186-.095-14.05-.006-.62-.176-1.292.096-1.864 8.041-.141 16.559-.221 24.61-.191 7.287.027 15.099.096 22.604.096 8.655-.001 17.229-.111 25.471.095z"/><path d="m72.886 19.073c.214 6.11.023 12.734.144 18.829.04 2.054.049 4.065-.144 5.973-24.554.213-48.844.061-72.685 0-.2-5-.216-10.629-.048-15.77 21.857-.423 44.173.071 65.995-.191.039-.009.047-.048.096-.048.155-.537.148-1.612 0-2.15-1.276-.255-2.605-.156-3.919-.095-1.327.062-2.706-.048-4.062-.048-2.749 0-5.554-.067-8.363 0-8.368.2-16.699-.048-24.945-.048-5.549 0-11.098.048-16.63.048-2.08 0-4.121.048-6.26.048-.619 0-1.315.103-1.912-.144-.159-1.915-.159-4.488 0-6.404 10.548-.278 21.459-.143 32.209-.143 4.564 0 9.13.047 13.667.048 4.537 0 9.039-.141 13.524 0 4.469.141 8.936-.302 13.333.095zm-52.613 15.579c-4.606 0-9.169-.093-13.428.144-.243.56-.204 1.868 0 2.437 19.503.059 39.751.235 59.352 0 .254-.534.179-1.827.048-2.437-15.424-.127-31.011-.143-45.972-.144z"/><path d="m72.886 46.838c.181.938.144 2.089.144 3.25 0 1.115.109 2.302-.144 3.202-21.82.222-44.319-.173-65.994.143-.25.516-.184 1.799-.048 2.39 1.316.294 2.673.032 4.014.095 3.925.187 8.198 0 12.377 0 11.079-.001 22.027.048 33.117.048 5.571 0 11.119-.113 16.582.144.137 5.1.182 10.849 0 15.817-12.082.198-24.59.049-36.318.048-12.236-.002-24.406.041-36.366-.049-.256-.979-.144-2.024-.144-3.058 0-7.363-.052-14.998.048-22.03 2.945-.24 6.148-.143 9.175-.191 5.199-.083 10.474 0 15.769 0 14.628 0 29.24.047 43.964.048 1.283 0 2.57-.112 3.824.143zm-65.994 15.961c-.236.541-.22 1.893 0 2.437 18.262.11 36.864.095 55.72.095 1.222 0 2.481.118 3.68-.143.147-.621.18-1.836-.047-2.39-19.778-.098-39.921-.253-59.353.001z"/></g></svg>