<svg enable-background="new 0 0 62.756 83.524" viewBox="0 0 62.756 83.524" xmlns="http://www.w3.org/2000/svg"><g clip-rule="evenodd" fill-rule="evenodd"><path d="m40.727.17c.137 2.829.233 5.857.104 8.804-.129 2.95.207 5.856-.104 8.441-6.037.215-12.855.239-19.006.052-.279-2.68-.156-5.651-.156-8.598.002-2.93-.084-5.915.106-8.647 5.217-.464 11.562.101 17.088-.155.619-.03 1.433-.181 1.968.103z"/><path d="m62.477 20.056c.289 3.879.156 7.779.156 11.703 0 11.695.104 23.8.104 35.371 0 2.236.084 4.18-.104 5.903-.182 1.665-.771 3.183-1.502 4.454-1.361 2.364-3.695 4.385-6.682 5.282-1.512.454-3.387.568-5.438.569-9.885.003-19.633.102-29.518.104-3.947.001-8.338.397-11.289-.569-2.992-.98-5.225-2.955-6.578-5.386-.705-1.269-1.24-2.829-1.449-4.506-.215-1.717-.037-3.64-.053-5.8-.037-5.945-.102-11.951-.102-17.762.002-5.755 0-11.637 0-17.607.002-3.854-.096-7.747.103-11.601 5.516-.144 11.172-.154 16.832-.155.752 0 1.57-.119 2.277.155.389 16.452-.051 32.807.311 48.938.012.042.053.052.053.104 7.65.162 15.773.061 23.562-.052.281-.969.156-2.014.156-3.004-.002-15.108-.199-31.085 0-46.09 5.876-.266 13.073-.207 19.161-.051z"/><path d="m40.78 20.107c.195 15.445.221 31.224.104 46.764-4.484.244-9.664.181-14.398.155-1.619-.009-3.229.197-4.711-.104-.144-3.766-.156-7.661-.156-11.601 0-11.709-.129-23.9.053-35.163 6.022-.18 12.758-.245 19.108-.051z"/></g></svg>