<svg enable-background="new 0 0 74.961 76.215" viewBox="0 0 74.961 76.215" xmlns="http://www.w3.org/2000/svg"><g clip-rule="evenodd" fill-rule="evenodd"><path d="m.418.011c5.234-.041 10.209.049 14.995.049 1.647 0 3.341-.12 4.949.15.16 18.19-.002 37.85 0 56.783 0 1.559-.007 3.13-.051 4.698-.087 3.159 0 6.356 0 9.548.001 1.558.122 3.121-.149 4.648-8.369.841-13.816-2.292-17.145-6.848-1.186-1.767-2.385-3.711-2.849-6.249-.245-1.339-.15-2.852-.15-4.398.002-19.532-.013-39.082.2-58.232.102-.015.098-.135.2-.149z"/><path d="m42.506.261c.214 9.574.051 18.927.05 28.492 0 3.17.127 6.371 0 9.547-.245 6.125.168 12.37-.05 18.645-.219 6.312.183 12.677-.15 18.994-1.612.271-3.329.15-5.048.15-5.043.001-10.444-.033-15.397-.2-.267-1.503-.149-3.048-.149-4.599-.001-10.755.1-21.965.1-33.041.001-11.74.049-23.742.05-35.789 0-.772-.002-1.975.2-2.249.037-.047.091-.076.15-.101 6.82.012 14.025-.025 20.244.151z"/><path d="m74.947 76.039c-.903.27-1.902.149-2.849.149-6.781 0-13.772.057-20.545-.149-.465-1.447-.743-2.972-1.049-4.499-1.845-9.196-3.63-18.433-5.599-27.643-.161-.752-.31-1.536-.45-2.299-.144-.781-.382-1.558-.45-2.299-.147-1.605 0-3.341 0-4.999.001-9.865.048-19.522.05-29.292.001-.748.026-1.567.051-2.449.021-.763-.134-2.132.199-2.299.037-.047.092-.075.15-.101 4.777-.202 8.805.064 11.847 1.5 2.979 1.407 5.348 3.634 7.147 6.198 1.798 2.561 2.899 6.366 2.899 10.447 0 4.291.104 8.812 0 13.146-.045 1.885.564 3.787.95 5.647.383 1.851.763 3.745 1.1 5.549.346 1.848.878 3.725 1.1 5.599.227 1.915.645 3.839 1.05 5.598 1.266 5.5 2.203 11.063 3.448 16.596.212.938.332 1.892.5 2.85.16.906.545 1.815.451 2.75z"/></g></svg>