<svg enable-background="new 0 0 79.271 65.509" viewBox="0 0 79.271 65.509" xmlns="http://www.w3.org/2000/svg"><g clip-rule="evenodd" fill-rule="evenodd"><path d="m43.598.696c-.143.803-1.243.469-1.962.453-4.047-.098-7.037 1.31-9.459 3.018-2.852 2.012-4.994 5.033-5.938 9.008-.636 2.676-.349 5.982.654 8.604 1.786 4.666 5.421 7.982 10.566 9.408 2.665.738 5.344 1.412 7.899 2.063 2.584.658 4.731 1.885 6.592 3.371 3.579 2.861 6.369 7.695 5.836 13.938-.268 3.143-1.232 5.207-2.565 7.396-1.279 2.098-2.892 3.783-4.931 5.031-2.042 1.248-4.547 2.338-7.548 2.465-3.115.133-6.526 0-9.962 0-5.656 0-11.397.043-17.358-.102-.679-.016-1.939.162-2.013-.451-.119-.998 2.335-.678 3.27-.705 4.021-.119 6.588-1.232 9.057-3.02 3.012-2.18 5.515-5.586 6.037-10.164.628-5.482-1.35-9.225-3.823-12.074-1.307-1.506-2.905-2.551-4.679-3.422-.944-.463-1.826-.885-2.919-1.156-1.966-.488-4.317-1.186-6.339-1.762-1.08-.307-2.138-.52-3.12-.906-5.642-2.21-9.758-6.579-10.767-13.534-.365-2.521.111-5.197.806-7.096.744-2.035 1.642-3.793 2.868-5.232 2.51-2.947 5.814-5.197 10.465-5.735 1.041-.121 2.477-.004 3.724-.051 3.605-.135 7.468.1 11.17.1 4.275.002 8.722 0 13.132 0 .457 0 1.247-.121 1.307.555z"/><path d="m43.799 29.022c-1.729-1.693-3.084-3.334-4.126-5.584-1.039-2.248-1.799-4.984-1.609-8.101.384-6.34 4-10.68 8.453-13.232 1.551-.889 3.568-1.8 5.483-1.913 2.248-.131 4.548.051 6.894.051 5.725 0 11.45.051 17.157.051.826 0 2.957-.223 3.018.402.058.584-.691.52-1.459.604-3.652.402-6.349 1.842-8.554 3.824-2.7 2.426-4.868 6.006-5.132 10.768-.183 3.283.796 6.156 2.163 8.451 1.178 1.977 3.187 4.111 5.334 5.283 1.529.836 3.527 1.707 5.937 2.014.75.094 1.912-.002 1.912.703 0 .867-2.077.537-2.817.555-3.028.066-6.993.076-10.214 0-4.171-.1-9.234.059-13.433-.051-1.954-.051-3.638-.713-5.082-1.359-1.491-.667-2.713-1.554-3.925-2.466z"/></g></svg>