<svg enable-background="new 0 0 85.311 34.149" viewBox="0 0 85.311 34.149" xmlns="http://www.w3.org/2000/svg"><g clip-rule="evenodd" fill-rule="evenodd"><path d="m26.148.346c.705.275.453 1.529 1.137 1.682.654.145.912-.633 1.631-.643.532.258.152 1.43.593 1.779.63.18 1.434-.457 1.977-.051.185.613-.343 1.16-.148 1.779.367.408 1.465.084 1.878.445.161.779-.778 1.168-.593 1.877.167.643 1.426.365 1.779.939.061.715-.853.85-.84 1.482.013.633 1.158.623 1.235 1.088.088.523-.965.711-1.038 1.285-.097.774.815.92.89 1.68-.361.529-1.345.434-1.73.939-.026.783.44 1.076.396 1.877-.39.361-1.262-.037-1.779.149-.353.537.245 1.348.099 1.976-.412.322-1.261-.125-1.829.051-.557.283-.216 1.463-.741 1.777-.82.072-.98-.529-1.631-.395-.718.15-.459 1.516-1.087 1.631-.683.127-.824-.938-1.483-.988-.622.01-.584 1.375-1.186 1.434-.588.057-.803-1.213-1.334-1.285-.595-.08-1.06.898-1.582.84-.655-.074-.502-1.389-.988-1.482-.775-.043-1.178.525-1.928.346-.27-.404-.05-1.301-.296-1.729-.536-.305-1.28.322-1.829 0-.293-.461.156-1.156-.049-1.682-.357-.416-1.51-.037-1.878-.443-.111-.689.459-1.076.494-1.779-.257-.566-1.268-.381-1.532-.939.038-.691.856-.9.84-1.531-.016-.606-1.093-.713-1.137-1.188-.052-.564 1.148-.9 1.186-1.383.053-.676-.986-.894-.939-1.385.054-.572 1.397-.594 1.532-1.186.17-.744-.665-1.066-.445-1.779.442-.283 1.349-.102 1.779-.394.192-.559-.163-1.387.148-1.779.533-.143 1.456.105 1.73-.297.166-.508-.041-1.391.346-1.68.796-.047 1.067.756 1.73.643.646-.111.434-1.262.988-1.631.709.131.884.795 1.532.988.645-.228.713-1.033 1.235-1.384.807.117.738 1.408 1.434 1.434.602.023.829-1.075 1.433-1.088z"/><path d="m7.616.346c.262.807.149 1.688.149 2.521v7.857c0 6.711 3.177 10.967 7.462 13.59 2.187 1.34 4.841 2.389 8.154 2.322 6.576-.129 10.71-3.426 13.442-7.56 1.435-2.172 2.372-4.725 2.372-8.154 0-2.465 0-5.256 0-7.857 0-.824-.117-1.686.149-2.471 7.628-.174 15.432-.1 23.375-.1 2.618 0 5.293-.199 7.808.051 2.214.219 4.243.939 5.979 1.926 3.392 1.932 5.996 4.496 7.512 8.254.748 1.854 1.378 4.086 1.285 6.572-.27 7.197-4.103 11.898-9.143 14.529-1.707.891-3.786 1.656-6.128 1.73-8.856.279-18.416.051-27.131.049-1.242 0-2.522.121-3.756-.148-.286-1.443.088-3.547-.198-4.99-.628.02-1.031.555-1.483.889-3.192 2.355-7.325 4.422-12.552 4.744-6.231.385-11.481-1.525-15.221-4.35-4.567-3.447-8.299-8.402-9.34-15.369-.217-1.451-.224-2.99-.296-4.645-.123-2.799 0-5.73 0-8.451 0-.313-.117-.76.198-.988 2.326-.051 5.118-.145 7.363.049zm41.462 25.996c.815-.037 1.647.012 2.471.049 1.646.074 3.3-.066 4.941 0 3.297.133 6.38-.051 9.687-.049 1.773 0 3.303.023 4.645-.348 3.675-1.012 6.545-3.893 7.017-8.103.354-3.152-1.012-5.674-2.619-7.314-1.774-1.812-3.849-2.768-7.215-2.768-6.253-.002-13.511-.053-19.767-.049-.36 0-1.022.025-1.384.148-.285 2.826-.099 6.035-.099 9.143 0 3.113-.114 6.225.099 9.142.707.289 1.483.18 2.224.149z"/></g></svg>