<svg enable-background="new 0 0 76.575 59.194" viewBox="0 0 76.575 59.194" xmlns="http://www.w3.org/2000/svg"><path clip-rule="evenodd" d="m18.238.213c.287 3.428 1.447 5.982 3.357 7.914 1.812 1.834 4.528 3.271 7.915 3.307 3.39.033 6.146-1.59 7.915-3.358 1.931-1.93 3.099-4.402 3.406-7.814 2.798-.053 5.696-.131 8.616-.049 8.961.246 18.255-.098 26.951.25.271 1.18.149 2.406.149 3.605.001 2.477-.154 4.99-.05 7.465.148 3.516 0 7.142 0 10.769.001 2.484 0 4.975 0 7.465.002 9.838.033 19.562-.2 29.305-2.829.102-5.74.154-8.666.102-8.818-.164-17.899-.008-26.65-.252-.27-.812-.253-1.617-.451-2.354-.594-2.207-1.605-3.834-3.006-5.311-1.744-1.84-4.423-3.256-7.864-3.256-5.267 0-8.386 2.863-10.119 6.562-.304.649-.572 1.291-.752 2.004-.185.73-.209 1.498-.501 2.254-4.338.07-9.038 0-13.575 0-1.48 0-2.956.102-4.309-.15-.161-4.32 1.08-8.154 2.404-11.32 4.422-9.506 12.026-15.826 24.096-17.684-.369-.371-.949-.332-1.402-.402-.504-.074-1.018-.145-1.503-.25-6.743-1.457-11.938-4.619-15.88-8.916-3.363-3.543-6.171-8.09-7.414-13.826-.205-.949-.41-2.012-.501-3.057-.087-1.001-.381-2.107-.05-3.156 6.048-.066 12.296-.14 18.084.153zm40.526 2.904c-.388 1.922-.721 3.732-1.152 5.461-1.306 5.223-4.134 9.174-7.414 12.424-3.835 3.814-8.819 6.746-15.128 8.014-.907.184-1.864.225-2.756.602 1.832.477 3.637.637 5.311 1.152 5.054 1.555 8.98 3.965 12.273 7.164 3.842 3.773 6.751 8.389 8.165 14.527.192.838.321 1.736.701 2.555.245-12.818.201-26.066.2-39.125 0-4.363.113-8.689-.1-12.873-.003-.031-.008-.06-.051-.051.004.068-.023.109-.049.15z" fill-rule="evenodd"/></svg>