<svg enable-background="new 0 0 47.327 21.531" viewBox="0 0 47.327 21.531" xmlns="http://www.w3.org/2000/svg"><path d="m35.367.005c.09-.002.181-.004.273-.005.676 1.545 1.301 3.111 1.982 4.655.53 1.41 1.174 2.774 1.746 4.168 1.148 2.61 2.261 5.235 3.468 7.818.607 1.219 1.251 2.456 2.22 3.432.379.397.858.681 1.36.896.289.119.607.106.911.157-.002.118-.003.237-.005.357-2.43-.011-4.856.04-7.283.014-1.274-.028-2.549-.003-3.823-.015-.005-.119-.009-.236-.012-.353.438-.001.875-.069 1.301-.169.596-.186 1.192-.577 1.4-1.194.189-.456.201-.965.132-1.447-.208-1.337-.917-2.517-1.31-3.799-1.166-2.951-2.349-5.896-3.522-8.845-.151-.297.012-.61.066-.908.329-1.596.763-3.168 1.096-4.762z"/><path d="m0 .405c3.075-.003 6.15-.006 9.225.001.005.12.021.244-.022.36-.213.062-.439.022-.656.058-.553.117-1.118.335-1.483.787-.719.825-.905 1.959-.939 3.019.004 3.122-.011 6.245.007 9.367.058.976.135 1.959.379 2.909.153.743.473 1.438.804 2.116.557.909 1.441 1.647 2.489 1.906.6.194 1.234.216 1.859.218-.001.122-.002.245-.003.369-1.955.07-4.007-.056-5.756-1.016-1.279-.67-2.251-1.833-2.828-3.144-.761-1.672-.887-3.541-.915-5.352-.001-2.795.01-5.59-.005-8.384.013-.594-.108-1.19-.365-1.725-.306-.678-1.023-1.149-1.772-1.109-.007-.127-.014-.254-.019-.38z"/><path d="m14.187.402c2.086-.022 4.174.035 6.259-.039 2.701-.03 5.403-.014 8.104.003.62.054 1.247-.061 1.865.031.066.181.015.387.027.579 0 1.285.016 2.57-.005 3.854-.064.009-.192.026-.256.035-.157-.251-.139-.558-.231-.831-.145-.484-.32-.97-.615-1.386-.321-.503-.831-.873-1.391-1.069-.711-.297-1.493-.339-2.254-.373-.916.013-1.846-.076-2.747.135-.537.1-1.077.34-1.42.78-.409.531-.534 1.216-.586 1.868-.078.743-.033 1.49-.05 2.236.007.9-.036 1.808.113 2.7.126.563.307 1.173.792 1.532.367.312.849.411 1.31.49.588.043 1.176.091 1.765.086-.001.113-.001.226-.001.34-.897.025-1.836-.005-2.666.391-.562.284-.931.846-1.083 1.445-.277.922-.223 1.895-.228 2.846-.007.85.031 1.702.137 2.547.096.526.238 1.097.665 1.457.422.344.982.414 1.504.484 1.328.054 2.691.161 3.987-.207.824-.213 1.589-.672 2.136-1.326.389-.515.668-1.109.794-1.744.113 0 .226.001.341.003-.009 1.403-.003 2.806-.002 4.21-.501.003-1.001.068-1.501.012-2.944.001-5.892-.052-8.835.023-2.313.031-4.627.001-6.94.013 0-.125 0-.249.002-.372.782-.013 1.58-.148 2.268-.538.794-.454 1.34-1.264 1.584-2.134.195-.616.282-1.263.271-1.909-.001-4.026.004-8.051 0-12.077.004-.846-.129-1.721-.569-2.457-.471-.802-1.409-1.271-2.33-1.242-.249.05-.236-.234-.214-.396z"/><path d="m30.113 7.182c.108 0 .218.001.327.003-.006.46.055.917.075 1.376.095.775.369 1.639 1.103 2.034.844.431 1.819.426 2.744.458-.004.106-.008.211-.009.317-.687.112-1.401.023-2.071.243-.588.132-1.141.494-1.412 1.044-.408.811-.399 1.74-.422 2.626-.112.005-.224.009-.335.014-.015-.792-.033-1.604-.306-2.357-.169-.486-.522-.921-.998-1.132-.794-.394-1.706-.367-2.569-.424-.001-.116 0-.232.001-.347.551.011 1.101-.041 1.647-.101.699-.098 1.439-.414 1.775-1.074.412-.827.434-1.776.45-2.68z"/></svg>