<svg enable-background="new 0 0 78.885 26.377" viewBox="0 0 78.885 26.377" xmlns="http://www.w3.org/2000/svg"><g clip-rule="evenodd" fill-rule="evenodd"><path d="m22.405.097c.18 2.934.099 6.082.099 9.209 0 3.135.287 6.336-.492 8.814-.691 2.195-2.135 4.135-3.841 5.465-1.745 1.361-3.987 2.354-6.894 2.363-2.974.012-5.131-1.059-6.894-2.412-1.732-1.33-3.151-3.225-3.841-5.465-.772-2.512-.493-5.67-.493-8.814 0-3.076-.109-6.113.099-9.061 3.937-.266 8.184-.148 12.36-.148 3.402.001 6.634-.136 9.897.049zm-20.731 1.577c-.244.91-.137 1.906-.147 2.855-.033 3.088-.058 6.478 0 9.406.085 4.32 1.5 6.666 3.988 8.568 2.354 1.797 6.489 2.601 9.75 1.033 2.717-1.307 4.949-3.646 5.564-6.992.415-2.256.148-4.848.148-7.387 0-2.6.126-5.182-.099-7.533-6.316-.154-13.033-.148-19.204.05z"/><path d="m29.299 22.799c-1.733-1.6-2.997-3.557-3.693-6.057-.775-2.781-.466-5.887.493-8.371 1.255-3.252 4.074-5.916 7.436-7.189 1.301-.494 2.602-.762 4.186-.838 2.607-.123 4.755.613 6.549 1.576 3.394 1.822 6.055 5 6.746 9.504.36 2.35-.003 4.9-.886 6.943-1.607 3.717-4.596 6.525-8.667 7.582-4.983 1.295-9.647-.518-12.164-3.15zm8.124-20.928c-2.461.145-4.307 1.014-5.859 2.068-2.779 1.887-5.016 5.1-4.924 9.699.057 2.885 1.181 5.137 2.708 6.992 1.487 1.809 3.449 3.232 5.859 3.891 2.87.783 5.961.188 8.125-.887 2.225-1.103 3.836-2.863 4.924-4.824 1.2-2.164 1.759-5.137 1.083-7.978-.622-2.615-1.806-4.424-3.644-6.105-2.1-1.587-4.484-3.079-8.272-2.856z"/><path d="m64.26.492c.015.004.034-.004.049 0 .518.158 1.154 1.662 1.478 2.215 2.282 3.904 4.529 7.676 6.746 11.572.894 1.57 1.815 3.119 2.561 4.728 1.002 1.686 1.976 3.395 3.004 5.119.319.539.722 1.123.788 1.774-9.747.119-19.383.131-29.25-.049.094-.633.472-1.184.788-1.725 4.538-7.758 9.085-15.711 13.689-23.486.027-.072.076-.121.147-.148zm-.148 3.201c-3.516 5.961-7.073 11.93-10.439 17.924-.487.867-1.15 1.678-1.428 2.658.52.26 1.116.148 1.674.148 6.843 0 13.296.047 19.992.049.786 0 1.637.156 2.314-.197-.115-.807-.726-1.469-1.083-2.217-.893-1.861-1.887-3.459-2.955-5.268-2.207-3.736-4.176-7.418-6.451-11.129-.386-.629-.979-1.977-1.477-2.117-.07.028-.119.077-.147.149z"/></g></svg>