<svg enable-background="new 0 0 86.819 34.742" viewBox="0 0 86.819 34.742" xmlns="http://www.w3.org/2000/svg"><g clip-rule="evenodd" fill-rule="evenodd"><path d="m51.627.056c1.132 1.512 1.863 3.423 2.804 5.124 1.003 1.624 1.644 3.609 2.804 5.076.333-.679.193-1.583.193-2.417 0-2.482-.079-5.341.096-7.687 3.75-.183 7.746-.175 11.65-.097.849 1.352 1.604 2.781 2.32 4.206 2.155 4.287 4.405 8.621 6.622 12.955 2.205 4.308 4.357 8.626 6.623 12.955.371.708.774 1.403 1.112 2.127.333.715.855 1.377.967 2.176-.362.265-.881.145-1.305.145-3.22 0-6.735 0-10.006 0-.648-.771-1.062-1.729-1.499-2.658-.848-1.802-1.893-3.603-2.804-5.414-.453-.901-.837-1.865-1.498-2.61-.261.799-.145 1.731-.145 2.658 0 2.676.073 5.61-.145 7.928-3.739.17-7.686.168-11.553.097-.671-.757-.983-1.762-1.451-2.658-.911-1.75-1.852-3.54-2.755-5.366-.438-.887-.827-1.849-1.499-2.562-.213.898-.187 2.024-.193 3.045-.015 2.468.192 5.113-.048 7.444-.85.26-1.83.146-2.804.146-2.795 0-6 .111-8.604-.146-.195-3.594-.147-7.473-.048-11.215.831-.224 1.796-.097 2.755-.097h5.897c.963 0 1.923.11 2.756-.145.144-3.717.148-7.828 0-11.554-.847-.255-1.824-.145-2.804-.145-2.803 0-6.065.072-8.604-.098-.175-2.615-.097-5.662-.097-8.508 0-.94-.116-1.89.145-2.707 3.591-.09 7.419-.053 11.118.002z"/><path d="m28.134.152c.22 3.583.188 7.431.048 11.118-.831.242-1.768.098-2.707.098-2.704 0-5.766.053-8.508.097-.334.812-.193 1.834-.193 2.803v2.998c0 2.009-.113 4.103.145 5.849 1.763.177 3.758.097 5.705.097 1.948 0 3.906-.115 5.607.146.169 1.677.06 3.438.048 5.221-.014 2.028.226 4.165-.096 6.042-3.675.017-7.668.227-11.264 0-.261-1.566-.145-3.405-.145-5.221 0-1.786.079-3.616-.097-5.221-.438.169-.553.702-.725 1.063-.546 1.147-1.134 2.355-1.74 3.529-1 1.935-1.919 3.828-2.852 5.849-1.774.163-3.738.097-5.704.097-1.936 0-3.947.115-5.656-.146.302-1.091.938-2.074 1.45-3.094 2.5-4.975 4.818-10.179 7.444-15.131 1.538-2.898 2.629-5.854 4.061-8.749.877-1.774 1.624-3.212 2.514-5.125.381-.818.868-2.299 1.643-2.417.338-.051.72.05 1.064.049 3.103-.008 6.907-.172 9.958.048z"/></g></svg>