<svg height="114.44299" viewBox="0 0 130 114.44299" width="130" xmlns="http://www.w3.org/2000/svg"><path d="m37.742 59.6566c-13.9335 0-20.2914-8.1165-20.2914-22.591h.1353v-22.3205c0-9.06352-1.2175-10.01045-9.19878-10.8221h-.54111v-2.29969h21.91469v36.25389c0 11.2279 3.1113 17.7211 11.4984 17.7211 9.1988 0 14.7451-7.9812 14.7451-21.5088v-19.0739c0-8.79291-1.0822-10.28095-9.6046-11.0926h-.6764v-2.29969h22.1853v32.60149c0 14.0686 7.1696 22.3205 19.8855 22.3205 7.9813 0 15.286-3.923 15.286-11.0926 0-5.5464-4.1934-7.9813-9.3339-10.4163-1.6233-.6764-4.5994-2.1644-5.8168-2.7055-8.793-3.923-13.2571-8.7929-13.2571-16.3684 0-8.92817 8.3871-15.9625 19.615-15.9625 3.6525 0 6.8988.811661 9.7398 1.75859 2.435.81165 3.923.81165 5.141-.67638l.27-.270549h1.759l1.217 16.503639h-2.3c-2.57-7.57543-6.222-14.47451-15.5562-14.47451-5.9522 0-10.4163 3.3819-10.4163 8.38711 0 4.7346 3.1114 7.0343 8.3871 9.6046 1.3528.6763 4.4641 2.1644 5.9522 2.8408 10.1452 4.5993 15.1512 9.4693 15.1512 17.4505 0 11.0926-11.499 18.5328-25.9733 18.5328-13.6628 0-23.538-5.6816-28.2726-14.8803v-.1353s-.1353 0-.1353.1353c-3.6524 9.0635-11.4984 14.8803-21.5088 14.8803zm48.2934 30.0312c-1.2175-.4058-1.4881-1.2175-1.6233-1.7586l-2.2997.6764c.1353.5411.4058 1.488 1.3528 2.1644 1.0822.9469 2.5702 1.3528 4.1935 1.3528 3.1113 0 5.411-1.6233 5.411-4.3288 0-2.9761-2.2997-3.6525-3.5171-3.923l-2.2997-.5411c-.6764-.1353-1.8939-.5411-1.8939-1.6233 0-.8117.4058-1.7586 2.2997-1.7586 2.0291 0 2.435 1.0822 2.5702 1.488l2.2997-.5411c0-.4058-.2705-1.0822-1.0822-1.7586-1.0822-.8116-2.4349-1.2175-3.7877-1.2175-2.8408 0-4.8699 1.4881-4.8699 4.0583 0 1.7586.9469 3.1113 2.976 3.6524l3.1114.8117c.5411.1353 1.6233.4058 1.6233 1.7586 0 .5411-.4058 1.7586-2.7055 1.7586-.5411 0-1.0822 0-1.7586-.2706zm-76.5661-2.8408v-8.7929h-2.02914v8.7929c0 .5411 0 1.4881-.40583 2.0292-.40582.5411-1.21747.8116-2.02914.8116-.67636 0-1.48801-.2705-1.89386-.6764-.40582-.4058-.54108-1.3527-.54108-2.1644v-8.7929h-2.57025v8.9282c0 1.0822 0 2.2997 1.08221 3.5172.94693 1.2175 2.84079 1.3527 3.65244 1.3527.40582 0 1.75858 0 2.84079-.6763 1.89386-1.0822 1.89386-2.8408 1.89386-4.3289zm15.4214 4.87v-13.6629h-2.0291v9.6046c-.2296-.5357-.4592-.9416-.6153-1.2175-.1198-.2118-.1964-.3471-.1964-.4058l-4.7346-7.9813h-2.7055v13.7981h2.0291v-10.2809c.0676.1352.2367.4395.4057.7437l.0001.0003.0002.0003.0002.0003c.169.3042.3379.6082.4055.7434l5.2757 8.6577zm8.6577-13.6629h-2.4349v13.6629h2.4349zm8.7929 13.6629h2.5703l4.1935-13.6629h-2.0291l-3.1113 10.5515-3.1114-10.5515h-2.7055zm11.3632 0h8.9282v-2.0292h-6.4932v-3.923h5.1405v-1.8938h-5.1405v-3.7877h6.3579v-2.0292h-8.7929zm19.8855-5.5464h-3.5172v5.5463h-2.4349v-13.6628h5.9521c1.7586 0 2.7055.2706 3.5172 1.0822.6764.6764 1.2175 1.488 1.2175 2.9761 0 2.3077-1.4178 3.0887-2.1969 3.5179-.0887.0488-.169.0931-.2381.1345l2.435 5.9521h-2.5703zm26.92-8.1165h-2.4351v13.6629h2.4351zm8.252 13.6629h2.705v-11.4985h3.517v-2.1644h-9.875v2.1644h3.653zm9.604-13.6629 4.6 7.9813v5.6816h2.705v-5.6816l4.329-7.9813h-2.3l-3.111 5.6816-3.247-5.6816zm-45.0465 6.0874c1.2174 0 2.5702-.4058 2.5702-2.1644 0-1.0822-.6764-2.0291-2.435-2.0291h-3.2466v4.1935zm-61.9563 30.1665c-4.32887 0-5.68162-3.923-5.68162-7.034 0-3.653 2.02914-7.035 5.81682-7.035 3.7878 0 5.6816 3.382 5.6816 7.035 0 4.058-2.1644 7.034-5.8168 7.034zm31.5192-2.3c-1.2174-.406-1.488-1.217-1.6233-1.758l-2.2997.676c.1353.541.4059 1.488 1.3528 2.165 1.0822.946 2.5702 1.352 4.1935 1.352 3.1114 0 5.4111-1.623 5.4111-4.329 0-2.976-2.2997-3.652-3.5172-3.923l-2.2997-.541c-.6764-.135-1.8938-.541-1.8938-1.623 0-.812.4058-1.759 2.2996-1.759 2.0292 0 2.435 1.083 2.5703 1.489l2.2997-.542c0-.405-.2706-1.082-1.0822-1.758-1.0822-.812-2.435-1.218-3.7878-1.218-2.8407 0-4.8699 1.488-4.8699 4.059 0 1.758.9469 3.111 2.9761 3.652l3.1113.812c.5411.135 1.6233.406 1.6233 1.758 0 .541-.4058 1.759-2.7055 1.759-.5411 0-1.0822 0-1.7586-.271zm28.4079 0c-1.2174-.406-1.488-1.217-1.6233-1.758l-2.4349.676c.1352.541.4058 1.488 1.3527 2.165 1.0822.946 2.5703 1.352 4.1936 1.352 3.1113 0 5.411-1.623 5.411-4.329 0-2.976-2.2997-3.652-3.5172-3.923l-2.2997-.541c-.6763-.135-1.8938-.541-1.8938-1.623 0-.812.4058-1.759 2.2997-1.759 2.0291 0 2.4349 1.083 2.5702 1.489l2.2997-.542c0-.405-.2705-1.082-1.0822-1.758-1.0822-.812-2.435-1.218-3.7877-1.218-2.8408 0-4.8699 1.488-4.8699 4.059 0 1.758.9469 3.111 2.976 3.652l3.2466.812c.5411.135 1.6233.406 1.6233 1.758 0 .541-.4058 1.759-2.7055 1.759-.5411 0-1.0822 0-1.7586-.271zm13.9334 0c-1.2174-.406-1.488-1.217-1.6233-1.758l-2.2996.676c.1352.541.4058 1.488 1.3527 2.165 1.0822.946 2.5703 1.352 4.1936 1.352 3.1113 0 5.411-1.623 5.411-4.329 0-2.976-2.2997-3.652-3.5172-3.923l-2.2997-.541c-.6763-.135-1.8938-.541-1.8938-1.623 0-.812.4058-1.759 2.2997-1.759 2.0291 0 2.4349 1.083 2.5702 1.489l2.2997-.542c0-.405-.2706-1.082-1.0822-1.758-1.0822-.812-2.435-1.218-3.7877-1.218-2.8408 0-4.87 1.488-4.87 4.059 0 1.758.947 3.111 2.9761 3.652l3.1113.812c.5411.135 1.6234.406 1.6234 1.758 0 .541-.4059 1.759-2.7056 1.759-.5411 0-1.0822 0-1.7586-.271zm-63.8501 2.029h2.4349v-5.681h4.87v-2.165h-4.87v-3.652h6.0874v-2.164h-8.5223zm40.5827-.541c1.8939-1.082 1.8939-2.84 1.8939-4.328v-8.793h-2.0292v8.793c0 .541 0 1.488-.4058 2.029s-1.2175.811-2.0291.811c-.6764 0-1.4881-.27-1.8939-.676s-.5411-1.353-.5411-2.164v-8.793h-2.5702v8.928c0 1.082 0 2.3 1.0822 3.517.9469 1.217 2.8408 1.353 3.6524 1.353.4059 0 1.7586 0 2.8408-.677zm34.6306-13.121v13.662h8.9281v-2.164h-6.4931v-3.788h5.1401v-1.894h-5.1401v-3.787h6.3581v-2.029zm18.1271 8.251 3.111 5.411h2.841l-4.194-7.44 3.788-6.222h-2.3l-2.705 4.599-2.57-4.599h-2.841l3.788 6.493-4.329 7.169h2.3zm-100.7806-5.005c-.6764-1.353-1.8939-1.488-2.435-1.488-2.57021 0-3.11132 2.57-3.11132 5.005 0 1.624.27057 5.006 3.11132 5.006 1.2175 0 2.1644-.812 2.5703-1.624.0219-.055.0448-.11.0682-.168.2655-.648.6082-1.484.6082-3.349-.0392-.117-.067-.337-.1032-.622-.0888-.701-.2279-1.799-.7085-2.76z" fill-rule="evenodd"/></svg>