<svg enable-background="new 0 0 80.454 39.976" viewBox="0 0 80.454 39.976" xmlns="http://www.w3.org/2000/svg"><g clip-rule="evenodd" fill-rule="evenodd"><path d="m63.809 39.471c-4.618.16-9.452.171-13.846-.05-.164-6.188-.052-12.987-.051-19.494.001-2.214-.101-4.42.101-6.499.384-3.956 2.172-6.853 4.249-8.997 1.652-1.707 3.693-3.023 6.147-3.799.827-.262 1.7-.399 2.699-.6.658-.132.7.144.7.95-.001 6.195.099 12.68.1 18.795.002 6.826.121 13.322-.099 19.694z"/><path d="m67.158.032c3.908.407 6.774 2.175 8.948 4.349 1.958 1.958 4.078 5.253 4.248 8.948.19 4.151.05 8.537.05 12.996.001 4.389.083 8.841-.1 13.096-1.011.266-2.172.15-3.299.15-2.235 0-4.528-.03-6.748.05-1.089.039-2.195.076-3.149-.15-.239-6.148-.149-12.821-.15-19.645 0-4.881-.049-9.875-.049-14.895-.001-.749.086-1.62.049-2.45-.034-.797-.106-1.784.051-2.299.027-.072.077-.123.149-.15z"/><path d="m13.624.731c.3 1.579.114 3.221.149 4.849.242 10.97.036 23.087 0 34.39-1.947.076-3.679-.592-5.198-1.299-1.51-.704-2.877-1.677-3.948-2.75-2.151-2.151-4.088-5.153-4.499-8.848-.236-2.12-.051-4.423-.05-6.648.001-5.38-.051-10.969-.051-16.595 0-1.044-.121-2.134.15-3.149 4.452-.049 9.112-.115 13.447.05z"/><path d="m30.319.731c.216 6.38.2 13.212.199 19.594 0 2.219.139 4.451-.1 6.548-.421 3.711-2.216 6.81-4.398 8.948-2.215 2.167-5.193 3.85-9.098 4.148-.266-1.585-.15-3.218-.149-4.849 0-8.274-.052-16.48-.051-24.693.001-2.48 0-4.922 0-7.398 0-.765-.12-1.578.15-2.299 4.27-.152 9.114-.141 13.447.001z"/><path d="m46.864.731c.269 1.566.15 3.201.15 4.799-.002 10.912.257 22.688 0 33.89-1.028.28-2.181.138-3.3.15-3.078.034-6.773.047-9.947-.1-.311-6.381-.076-12.976-.199-19.395-.106-5.496-.001-11.269 0-17.045 0-.748-.122-1.576.149-2.299 4.137-.155 9.073-.077 13.147 0z"/></g></svg>