<svg width="90" height="80" viewBox="0 0 90 80" fill="none" xmlns="http://www.w3.org/2000/svg">
<path fill-rule="evenodd" clip-rule="evenodd" d="M52.4454 63.4963L50.9469 59.6566H48.512V63.4963H46.8262V54.0375H50.9469C52.1644 54.0375 52.82 54.2248 53.3819 54.7867C53.8502 55.2549 54.2248 55.8168 54.2248 56.847C54.2248 58.4447 53.2432 58.9854 52.7038 59.2825C52.6425 59.3163 52.5868 59.347 52.539 59.3756L54.2248 63.4963H52.4454ZM48.6056 58.2518H50.7596C51.6025 58.2518 52.539 57.9709 52.539 56.7534C52.539 56.0042 52.0708 55.3486 50.8533 55.3486H48.6056V58.2518Z" fill="black"/>
<path d="M58.4391 60.8741C58.5328 61.2487 58.7201 61.8106 59.563 62.0916C60.0312 62.2789 60.4058 62.2789 60.7804 62.2789C62.3725 62.2789 62.6535 61.436 62.6535 61.0614C62.6535 60.1249 61.9043 59.9376 61.5297 59.8439L59.3757 59.282C57.9709 58.9074 57.3153 57.9709 57.3153 56.7534C57.3153 54.974 58.7201 53.9438 60.6868 53.9438C61.6233 53.9438 62.5598 54.2248 63.3091 54.7867C63.871 55.2549 64.0583 55.7232 64.0583 56.0041L62.4662 56.3788C62.3725 56.0978 62.0916 55.3486 60.6868 55.3486C59.3757 55.3486 59.0947 56.0042 59.0947 56.5661C59.0947 57.3153 59.9376 57.5962 60.4058 57.6899L61.9979 58.0645C62.8408 58.2518 64.4329 58.7201 64.4329 60.7804C64.4329 62.6535 62.8408 63.7773 60.6868 63.7773C59.563 63.7773 58.5328 63.4963 57.7836 62.8408C57.128 62.3725 56.9407 61.717 56.847 61.3423L58.4391 60.8741Z" fill="black"/>
<path d="M5.24454 63.1218C6.55567 62.3725 6.55567 61.155 6.55567 60.1249V54.0375H5.15088V60.1249C5.15088 60.4995 5.15088 61.155 4.86993 61.5297C4.58897 61.9043 4.02706 62.0916 3.46514 62.0916C2.99688 62.0916 2.43496 61.9043 2.15401 61.6233C1.87305 61.3424 1.7794 60.6868 1.7794 60.1249V54.0375H0V60.2185C0 60.9677 -7.36596e-07 61.8106 0.749219 62.6535C1.40479 63.4964 2.71592 63.59 3.27784 63.59C3.55879 63.59 4.49532 63.59 5.24454 63.1218Z" fill="black"/>
<path d="M15.7336 63.4964H17.2321V54.0375H15.8273V60.6868C15.6683 60.3159 15.5094 60.0349 15.4013 59.8439C15.3183 59.6973 15.2653 59.6036 15.2653 59.563L11.9875 54.0375H10.1145V63.59H11.5193V56.4724C11.5661 56.566 11.6831 56.7767 11.8001 56.9873L11.8002 56.9875L11.8003 56.9877L11.8004 56.9879C11.9174 57.1985 12.0344 57.409 12.0812 57.5026L15.7336 63.4964Z" fill="black"/>
<path d="M23.2258 54.0375H21.5401V63.4964H23.2258V54.0375Z" fill="black"/>
<path d="M26.41 54.0375L29.3132 63.4964H31.0926L33.9959 54.0375H32.5911L30.4371 61.3424L28.2831 54.0375H26.41Z" fill="black"/>
<path d="M37.18 54.0375V63.4964H43.3611V62.0916H38.8658V59.3757H42.4246V58.0645H38.8658V55.4423H43.2674V54.0375H37.18Z" fill="black"/>
<path d="M69.5838 54.0375H67.898V63.4964H69.5838V54.0375Z" fill="black"/>
<path d="M75.2966 55.5359V63.4964H77.1696V55.5359H79.6046V54.0375H72.768V55.5359H75.2966Z" fill="black"/>
<path d="M81.9459 54.0375L85.1301 59.563V63.4964H87.0031V59.563L90 54.0375H88.4079L86.2539 57.9709L84.0062 54.0375H81.9459Z" fill="black"/>
<path fill-rule="evenodd" clip-rule="evenodd" d="M3.9334 74.2664C3.9334 76.4204 4.86993 79.1363 7.8668 79.1363C10.3954 79.1363 11.8939 77.076 11.8939 74.2664C11.8939 71.7378 10.5827 69.3965 7.96046 69.3965C5.33819 69.3965 3.9334 71.7378 3.9334 74.2664ZM7.96046 70.7076C8.33507 70.7076 9.17794 70.8013 9.6462 71.7378C9.9789 72.4032 10.0752 73.1631 10.1367 73.6481C10.1617 73.8458 10.181 73.9977 10.2081 74.0791C10.2081 75.3699 9.9709 75.9491 9.78709 76.3978C9.77086 76.4374 9.75505 76.4761 9.73985 76.514C9.4589 77.076 8.80333 77.6379 7.96046 77.6379C5.99376 77.6379 5.80645 75.2966 5.80645 74.1727C5.80645 72.487 6.18106 70.7076 7.96046 70.7076Z" fill="black"/>
<path d="M14.7971 69.4901V78.949H16.4828V75.0156H19.8543V73.5172H16.4828V70.9886H20.6972V69.4901H14.7971Z" fill="black"/>
<path d="M28.564 76.3267C28.6577 76.7014 28.845 77.2633 29.6878 77.5442C30.1561 77.7315 30.5307 77.7315 30.9053 77.7315C32.4974 77.7315 32.7784 76.8887 32.7784 76.514C32.7784 75.5775 32.0292 75.3902 31.6545 75.2966L29.5005 74.7346C28.0957 74.36 27.4402 73.4235 27.4402 72.206C27.4402 70.4266 28.845 69.3965 30.8117 69.3965C31.7482 69.3965 32.6847 69.6774 33.4339 70.2393C33.9959 70.7076 34.1832 71.1759 34.1832 71.4568L32.5911 71.8314C32.4974 71.5505 32.2165 70.8013 30.8117 70.8013C29.5005 70.8013 29.2196 71.4568 29.2196 72.0187C29.2196 72.768 30.0624 73.0489 30.5307 73.1426L32.1228 73.5172C32.9657 73.7045 34.5578 74.1727 34.5578 76.2331C34.5578 78.1061 32.9657 79.23 30.8117 79.23C29.6878 79.23 28.6577 78.949 27.9084 78.2934C27.2529 77.8252 27.0656 77.1696 26.9719 76.795L28.564 76.3267Z" fill="black"/>
<path d="M44.204 75.5775C44.204 76.6077 44.204 77.8252 42.8928 78.5744C42.1436 79.0427 41.2071 79.0427 40.9261 79.0427C40.3642 79.0427 39.0531 78.949 38.3975 78.1061C37.6483 77.2633 37.6483 76.4204 37.6483 75.6712V69.4901H39.4277V75.5775C39.4277 76.1394 39.5213 76.795 39.8023 77.076C40.0833 77.3569 40.6452 77.5442 41.1134 77.5442C41.6754 77.5442 42.2373 77.3569 42.5182 76.9823C42.7992 76.6077 42.7992 75.9521 42.7992 75.5775V69.4901H44.204V75.5775Z" fill="black"/>
<path d="M48.231 76.3267C48.3247 76.7014 48.512 77.2633 49.3549 77.5442C49.8231 77.7315 50.1977 77.7315 50.5723 77.7315C52.1644 77.7315 52.4454 76.8887 52.4454 76.514C52.4454 75.5775 51.6962 75.3902 51.3216 75.2966L49.0739 74.7346C47.6691 74.36 47.0135 73.4235 47.0135 72.206C47.0135 70.4266 48.4183 69.3965 50.385 69.3965C51.3216 69.3965 52.2581 69.6774 53.0073 70.2393C53.5692 70.7076 53.7565 71.1759 53.7565 71.4568L52.1644 71.8314C52.0708 71.5505 51.7898 70.8013 50.385 70.8013C49.0739 70.8013 48.7929 71.4568 48.7929 72.0187C48.7929 72.768 49.6358 73.0489 50.1041 73.1426L51.6962 73.5172C52.539 73.7045 54.1311 74.1727 54.1311 76.2331C54.1311 78.1061 52.539 79.23 50.385 79.23C49.2612 79.23 48.231 78.949 47.4818 78.2934C46.8262 77.8252 46.6389 77.1696 46.5453 76.795L48.231 76.3267Z" fill="black"/>
<path d="M57.8772 76.3267C57.9709 76.7014 58.1582 77.2633 59.0011 77.5442C59.4693 77.7315 59.8439 77.7315 60.2185 77.7315C61.8106 77.7315 62.0916 76.8887 62.0916 76.514C62.0916 75.5775 61.3424 75.3902 60.9678 75.2966L58.8138 74.7346C57.409 74.36 56.7534 73.4235 56.7534 72.206C56.7534 70.4266 58.1582 69.3965 60.1249 69.3965C61.0614 69.3965 61.9979 69.6774 62.7472 70.2393C63.3091 70.7076 63.4964 71.1759 63.4964 71.4568L61.9043 71.8314C61.8106 71.5505 61.5297 70.8013 60.1249 70.8013C58.8138 70.8013 58.5328 71.4568 58.5328 72.0187C58.5328 72.768 59.3757 73.0489 59.8439 73.1426L61.436 73.5172C62.2789 73.7045 63.871 74.1727 63.871 76.2331C63.871 78.1061 62.2789 79.23 60.1249 79.23C59.0011 79.23 57.9709 78.949 57.2217 78.2934C56.5661 77.8252 56.3788 77.1696 56.2851 76.795L57.8772 76.3267Z" fill="black"/>
<path d="M66.8679 78.949V69.4901H72.9553V70.8949H68.5536V73.5172H72.1124V74.8283H68.5536V77.4506H73.0489V78.949H66.8679Z" fill="black"/>
<path d="M81.5713 78.949L79.4173 75.2029L77.2633 78.949H75.6712L78.6681 73.9854L76.0458 69.4901H78.0125L79.7919 72.6743L81.665 69.4901H83.257L80.6348 73.7981L83.538 78.949H81.5713Z" fill="black"/>
<path d="M12.0812 25.6608C12.0812 35.6816 16.4828 41.3007 26.129 41.3007C33.0593 41.3007 38.4912 37.2737 41.0198 30.999C41.0198 30.9053 41.1134 30.9053 41.1134 30.9053V30.999C44.3913 37.3673 51.2279 41.3007 60.6868 41.3007C70.7076 41.3007 78.6681 36.1498 78.6681 28.4703C78.6681 22.9448 75.2029 19.5734 68.179 16.3892C67.1488 15.9209 64.9948 14.8907 64.0583 14.4225C60.4058 12.6431 58.2518 11.051 58.2518 7.77315C58.2518 4.30801 61.3424 1.9667 65.4631 1.9667C71.9251 1.9667 74.4537 6.74298 76.2331 11.9875H77.8252L76.9823 0.561915H75.7648L75.5775 0.74922C74.7347 1.7794 73.7045 1.7794 72.0187 1.21748C70.052 0.561915 67.8044 0 65.2758 0C57.5026 0 51.6962 4.86993 51.6962 11.051C51.6962 16.2955 54.7867 19.667 60.8741 22.3829C61.717 22.7575 63.7773 23.7877 64.9012 24.256C68.4599 25.9417 71.3632 27.6275 71.3632 31.4672C71.3632 36.4308 66.3059 39.1467 60.7804 39.1467C51.9771 39.1467 47.0135 33.4339 47.0135 23.6941V1.12383H31.6545V2.71592H32.1228C38.0229 3.27784 38.7721 4.30801 38.7721 10.3954V23.6004C38.7721 32.9657 34.9324 38.4912 28.564 38.4912C22.7576 38.4912 20.6036 33.9958 20.6036 26.2227V1.12383H5.43185V2.71592H5.80646C11.332 3.27784 12.1748 3.9334 12.1748 10.2081V25.6608H12.0812Z" fill="black"/>
</svg>
