<svg enable-background="new 0 0 81.948 53.885" viewBox="0 0 81.948 53.885" xmlns="http://www.w3.org/2000/svg"><g clip-rule="evenodd" fill-rule="evenodd"><path d="m55.322.001c.46-.026 1.225.846 1.658 1.316 1.391 1.507 2.952 3.063 4.389 4.389 2.072 1.912 3.916 3.975 5.804 5.852 3.955 3.935 7.776 7.868 11.557 11.752.479.449 1.045 1.045 1.658 1.658.327.327 1.548 1.277 1.561 1.755.012.469-1.129 1.373-1.561 1.804-.62.62-1.132 1.18-1.658 1.707-5.604 5.605-10.991 11.411-16.58 16.97-1.68 1.671-3.346 3.368-4.974 5.12-.524.565-1.034 1.22-1.756 1.561-.42-.242-.673-.575-1.072-.975-.254-.254-.922-.752-.927-1.122-.008-.535 1.04-1.183 1.463-1.609 1.517-1.528 3.128-3.34 4.486-4.73 5.319-5.32 10.541-10.883 15.946-16.288.343-.343.684-.688 1.121-1.17.335-.368 1.064-.861 1.073-1.219.01-.424-1.042-1.286-1.415-1.658-3.568-3.568-7.024-7.181-10.532-10.728-3.372-3.34-7.026-7.194-10.582-10.679-.37-.362-1.348-1.168-1.365-1.658-.027-.684 1.322-1.633 1.706-2.048z"/><path d="m45.765 9.509c.527-.137.729-.534 1.122-.926.237-.238.759-.925 1.121-.927.257-.001.831.608 1.073.829 2.223 2.035 4.408 4.692 6.437 6.681 2.187 2.19 4.323 4.421 6.534 6.632.297.296.759.579.78 1.073-12.49.296-25.84.013-38.621.146-3.242.034-6.458 0-9.801 0-1.017 0-2.093.133-3.072-.195.223-1.487.87-2.804 1.561-3.998.684-1.183 1.396-2.268 2.389-3.17 1.957-1.777 4.161-3.207 7.12-3.999 3.102-.831 6.924-.184 9.46.878 1.774.743 3.496 1.984 4.925 3.414.378.379 1.265 1.019 1.268 1.463.002.442-.64.829-.926 1.122-.37.378-.662.731-.878 1.121.714.309 1.518.096 2.292.098 5.275.011 11.452.105 16.678-.049.051-.639-.693-.898-.976-1.365-1.109-1.296-2.373-2.438-3.512-3.707-1.172-1.128-2.39-2.289-3.608-3.608-.287-.311-.88-1.116-1.268-1.122-.373-.005-.831.612-1.122.927-.28.303-.736.913-1.073.926-.362.015-1.103-.883-1.512-1.316-3.119-3.312-7.573-5.869-13.118-6.632-3.735-.514-7.001-.053-9.948.829-2.848.852-5.114 2.318-7.266 3.998-4.114 3.212-7.287 7.991-8.339 14.19-1.225 7.219.922 13.47 3.998 17.75 1.979 2.647 4.134 4.831 6.974 6.534 2.774 1.665 6.161 3.037 10.387 3.121 4.494.089 8.116-.762 11.118-2.39 2.149-1.165 4.121-2.528 5.9-4.242.417-.402 1.311-1.609 1.755-1.609.745 0 1.432 1.878 2.146 1.902.446.015.915-.761 1.268-1.122 2.013-2.057 3.917-4.02 5.901-6.047.399-.408.716-.863 1.121-1.268.398-.397.881-.787 1.073-1.317-.699-.29-1.478-.105-2.243-.098-2.247.024-4.667 0-7.071 0-1.606 0-3.214.077-4.828 0-1.567-.074-3.165-.164-4.632.098.119.505.428.734.78 1.122.269.296.869.597.878 1.024.009.441-.73.948-1.024 1.268-.429.467-.735.81-1.171 1.122-2.805 2.464-6.85 4.435-11.947 3.657-5.566-.849-9.512-4.036-11.508-8.436-.363-.923-1.001-1.825-.975-2.975 17.252-.138 34.718-.197 51.348-.049.032.501-.485.725-.779 1.024-2.146 2.187-4.262 4.457-6.486 6.681-.595.595-1.363 1.181-1.901 1.902-1.047 1.402-2.333 2.6-3.608 3.901-.268.273-.548.596-.927.975-.284.284-.777.829-1.024.829-.393 0-.901-.755-1.121-.976-.418-.417-.705-.801-1.073-.975-.868.551-1.456 1.359-2.146 2.048-2.052 2.053-4.601 3.673-7.51 4.974-3.819 1.709-8.834 2.705-14.142 1.853-9.228-1.482-15.333-6.951-19.164-14.142-1.94-3.642-3.17-8.802-2.78-13.8.408-5.212 1.873-9.094 4.047-12.581 2.088-3.349 4.961-6.121 8.388-8.29 3.473-2.199 7.495-3.657 12.728-3.901 4.725-.22 8.964 1.195 12.142 2.731 3.469 1.678 5.924 4.046 8.388 6.389zm-11.802 8.144c-1.484-1.454-3.823-2.769-6.339-3.072-2.874-.347-5.33.225-7.266 1.219-.817.419-1.394.901-2.048 1.415-.303.238-.623.482-.878.731-.508.498-1.188 1.08-1.316 1.755 2.018.305 4.102.016 6.144.098 4.486.179 9.036.001 13.605-.098-.387-.793-1.213-1.373-1.902-2.048zm-15.945 16.385c-.675 0-1.412-.141-1.804.195.097.493.539.915.878 1.268 1.365 1.421 3.297 2.732 5.364 3.316 2.818.796 5.697.435 7.998-.488 1.686-.677 3.001-1.727 4.145-2.877.401-.403.907-.797 1.073-1.317-5.762-.18-11.802-.097-17.654-.097z"/><path d="m71.61 23.846c.598.521 1.385 1.419 2.097 2.146.232.237.626.511.634.78.011.383-1.002 1.246-1.316 1.561-3.319 3.318-6.62 6.815-9.9 10.094-2.936 2.937-5.475 5.766-8.485 8.68-.438.424-.948.966-1.365 1.512-.225.294-1.08 1.352-1.463 1.366-.569.021-.706-.674-1.121-.927-.27-.371-.935-.601-.927-1.122.006-.413 1.354-1.592 1.658-1.902 3.95-4.036 8.208-8.639 12.093-12.581 1.185-1.166 2.368-2.319 3.56-3.511.377-.377.862-.748 1.072-1.268-.552-.266-1.22-.147-1.804-.147-16.317 0-33.051.048-50.325.049-2.485 0-4.938-.152-7.314.098-.065 1.949.567 3.755 1.268 5.315 2.705 6.024 7.556 10.776 16.238 10.777 5.743 0 9.732-2.822 12.679-5.852.244-.251.646-.765.878-.781.546-.036.739.671 1.122.927.295.541.923.578.926 1.122.002.311-.596.791-.926 1.122-1.029 1.029-2.124 2.068-3.268 2.877-3.191 2.259-7.211 4.009-12.532 3.755-2.587-.124-4.771-.637-6.729-1.414-3.842-1.525-6.784-4.119-9.07-7.266-2.282-3.142-3.949-7.253-3.95-12.386-.001-7.421 3.623-13.123 7.949-16.58.796-.636 1.52-1.212 2.389-1.707 2.518-1.434 5.648-2.637 9.46-2.78 5.085-.19 9.495 1.592 12.581 3.755 1.055.739 2.28 1.79 3.267 2.877.224.246.872.898.878 1.122.012.434-.602.797-.927 1.121-.273.273-.648.927-1.073.927-.365 0-.889-.759-1.219-1.122-1.138-1.25-2.507-2.19-3.901-3.023-1.907-1.141-4.193-1.98-6.876-2.341-2.96-.397-5.666.099-7.948.976-2.254.865-4.188 1.985-5.754 3.462-.724.683-1.349 1.52-1.999 2.292-.652.773-1.1 1.718-1.609 2.633-1.012 1.817-1.76 3.953-1.902 6.535.504.332 1.146.195 1.707.195h13.117 22.529c7.255 0 14.696.024 22.188-.146-.056-.553-.645-.888-1.023-1.267-.396-.396-.79-.805-1.171-1.17-3.174-3.352-6.868-6.834-10.24-10.387-.656-.691-1.428-1.33-1.999-2.097-.843-1.13-1.947-2.093-3.024-3.17-.332-.332-.933-.774-.926-1.122.013-.638 1.52-1.424 1.755-1.902.48-.318 1.174.589 1.609 1.024.477.476.802.947 1.171 1.316 5.711 5.713 11.723 11.937 17.261 17.555z"/></g></svg>