<svg enable-background="new 0 0 65.809 70.466" viewBox="0 0 65.809 70.466" xmlns="http://www.w3.org/2000/svg"><path clip-rule="evenodd" d="m13.657.009c1.535.033 3.203-.067 4.654.05.824.697 1.279 1.706 1.872 2.58 2.958 4.362 6.005 8.775 9.004 13.253.847 1.265 1.775 2.549 2.681 3.996.231.368.735 1.151 1.062 1.163.387.015.784-.775 1.062-1.163.933-1.3 1.864-2.72 2.732-3.945 1.205-1.703 2.553-3.532 3.642-5.261.867-1.375 1.728-2.698 2.63-4.047.308-.459.512-.959.809-1.416.58-.894 1.214-1.753 1.821-2.631.597-.863 1.153-1.804 1.922-2.529 1.538.064 3.333-.13 4.704.102-.048.69-.608 1.18-.961 1.72-1.763 2.695-3.704 5.386-5.514 8.144-.72 1.098-1.568 2.117-2.226 3.238-1.209 2.059-2.511 4.079-3.844 6.069-.655.979-1.33 1.981-2.023 2.935-.352.482-.626 1.028-.961 1.517-.342.498-.868.916-.911 1.568.421 1.192 1.069 1.809 1.72 2.832.257.404.553.831.91 1.366.246.369.662 1.188 1.062 1.214.564.037.923-.887 1.164-1.315.31-.554.679-1.08.961-1.467.717-.986 1.422-2.014 2.175-2.731 1.588-1.514 3.962-2.651 6.475-3.137 2.908-.561 5.863.08 8.044 1.113 2.157 1.022 3.839 2.456 5.21 4.4 1.291 1.833 2.276 4.37 2.276 7.284 0 5.831-3.195 9.788-7.284 11.888-2.157 1.107-4.941 1.746-7.942 1.314-2.562-.367-4.978-1.551-6.576-2.984-.799-.717-1.667-1.878-2.327-2.832-.296-.429-.681-.982-1.011-1.568-.198-.35-.583-1.387-1.113-1.416-.652-.036-.717.91-1.163 1.214-.658 1.054-1.344 2.022-2.125 3.136-.238.34-.598.747-.606 1.113-.012.503.611 1.284.91 1.72 1.074 1.562 2.205 3.1 3.136 4.704 1.043 1.579 2.059 3.16 3.085 4.755.515.799.934 1.682 1.467 2.479 2.064 3.083 4.267 6.201 6.272 9.409.5.799 1.224 1.459 1.518 2.377-.553.325-1.473.202-2.327.202-.882 0-1.832.151-2.428-.101-.445-.188-.733-.89-1.062-1.366-.703-1.018-1.307-1.854-1.973-2.833-.333-.488-.556-1.071-1.012-1.365-6.17-.099-12.127-.051-18.16-.051-.889 0-1.916-.152-2.63 0-.499.107-.905.801-1.214 1.265-.694 1.041-1.243 1.9-1.973 2.984-.306.454-.68 1.228-1.062 1.366-.625.226-1.574.05-2.377.05-.887 0-1.774.08-2.428-.1.055-.636.548-1.154.911-1.669 2.526-3.59 4.86-7.298 7.436-10.976 2.531-3.616 4.873-7.312 7.385-11.078.349-.522.943-1.253.961-1.67.021-.489-.533-1.106-.81-1.517-.68-1.016-1.098-1.737-1.872-2.782-.281-.381-.676-1.203-1.062-1.215-.66-.018-.721.937-1.164 1.265-2.322 3.736-5.261 6.749-10.319 7.537-4.226.658-8.125-.893-10.37-2.833-2.447-2.118-4.483-5.775-4.5-10.169-.012-3.075 1.053-5.669 2.377-7.79 1.696-2.716 5.056-4.836 9.054-5.311 4.645-.553 8.085 1.092 10.673 3.389 1.075 1.245 2.125 2.556 3.085 4.098.205.327.676 1.258 1.113 1.264.449.008.898-.937 1.113-1.264.317-.482.701-.972.961-1.366.686-1.042 1.327-1.806 1.771-2.934-.45-1.205-1.348-2.167-2.023-3.237-.667-1.056-1.429-2.043-2.125-3.086-2.783-4.173-5.574-8.19-8.397-12.494-.98-1.494-2.1-3.055-3.187-4.653-.351-.516-1.002-1.188-.911-1.619.03-.073.081-.124.153-.152zm29.996 37.684c1.497 2.59 3.217 4.818 6.272 5.817 4.942 1.615 9.175-1.51 10.725-4.603 2.706-5.4-1.073-11.369-6.02-12.443-1.234-.269-2.961-.272-4.148 0-1.795.411-3.389 1.529-4.451 2.681-1.19 1.289-2.1 3.049-3.086 4.553-.284.434-.653.888-.708 1.416.411.903.939 1.753 1.416 2.579zm-31.412-11.381c-.855.059-1.617.221-2.276.455-3.252 1.154-5.937 4.378-5.918 8.447.013 2.682 1.197 4.613 2.58 6.069 1.359 1.433 3.564 2.673 6.02 2.682 5.796.021 7.611-3.968 9.965-7.335.335-.479.794-.92.911-1.568-.525-1.312-1.422-2.253-2.125-3.389-1.973-2.846-4.116-5.708-9.157-5.361zm21.852 4.501c-.368-.518-.893-1.408-1.366-1.061-.319.278-.651.803-.961 1.265-.623.926-1.195 1.682-1.821 2.63-.243.367-.799 1.063-.81 1.416-.011.393.549 1.14.81 1.519.344.499.69.948.961 1.365.648.997 1.118 2.024 2.023 2.631 1.085-.93 2.008-2.704 2.934-4.047.303-.44.908-1.009.911-1.468.003-.527-.587-.99-.86-1.416-.347-.541-.554-.996-.91-1.416-.244-.277-.519-.866-.911-1.418zm-5.109 23.725c-.974 1.305-1.774 2.686-2.681 3.996-.296.428-.76.86-.759 1.467 1.04.393 2.269.151 3.49.151 3.057 0 6.368.051 9.409.051.591 0 1.241.115 1.771-.151-.039-.577-.447-1.063-.759-1.518-1.895-2.76-3.61-5.488-5.514-8.245-.302-.437-.691-1.248-1.214-1.164-1.392 1.659-2.482 3.622-3.743 5.413z" fill-rule="evenodd"/></svg>