<svg enable-background="new 0 0 69.509 69.841" viewBox="0 0 69.509 69.841" xmlns="http://www.w3.org/2000/svg"><g clip-rule="evenodd" fill-rule="evenodd"><path d="m45.44 1.765c.097 3.604.096 7.343.096 11.071 0 3.684.058 7.364-.145 10.879-.707-.236-1.167-.846-1.781-1.251-1.75-1.156-3.954-2.149-6.449-2.551-4.548-.734-8.712.861-11.457 2.888-.518.382-.982.887-1.637 1.107-.09-6.694-.119-14.959.048-22.046.549-.472 1.378-.581 2.119-.77 2.221-.569 4.764-.932 7.509-1.059 4.257-.199 8.617.55 11.697 1.732z"/><path d="m18.917 3.883c.376.084.237.543.241.77.152 9.936-.001 20.137 0 30.374 0 10.51.047 20.669-.145 30.903-.755-.134-1.438-.579-2.07-.962-1.942-1.176-3.702-2.505-5.343-4.044-2.14-2.007-4.157-4.157-5.776-6.691-3.234-5.059-5.824-11.092-5.824-19.11 0-8.035 2.351-14.427 5.68-19.303 2.49-3.648 5.459-6.96 9.242-9.483 1.305-.87 2.539-1.85 3.995-2.454z"/><path d="m50.591 3.883c1.143.524 2.864 1.714 3.899 2.406 3.678 2.463 6.99 5.77 9.29 9.483 3.238 5.23 5.729 11.304 5.729 19.254-.002 8.048-2.403 14.242-5.825 19.206-3.049 4.423-6.536 7.854-11.216 10.686-.636.385-1.239.955-2.021 1.059-.26-1.244-.144-2.54-.144-3.803 0-6.246 0-12.951 0-19.254 0-11.356.048-23.184.048-35.092 0-1.315-.017-2.636.097-3.803.026-.067.073-.116.143-.142z"/><path d="m34.417 23.33c3.676-.302 6.825 1.578 8.616 3.37 2.04 2.04 3.82 5.134 3.466 9.387-.256 3.075-1.583 5.567-3.466 7.316-1.903 1.769-4.289 3.154-7.365 3.37-3.744.263-6.745-1.238-8.76-3.081-2.108-1.927-3.619-4.439-3.803-8.039-.191-3.725 1.248-6.735 3.129-8.616 2.023-2.023 4.306-3.389 8.183-3.707z"/><path d="m24.164 46.243c1.449.941 2.748 2.088 4.573 2.792 1.807.697 3.684 1.262 6.017 1.299 3.854.062 7.319-1.505 9.531-3.273.335-.269.647-.658 1.106-.722.179 7.152.078 14.441 0 21.758-5.678 2.335-15.631 2.316-21.324 0-.184-5.967-.097-12.598-.097-19.014.001-.924-.037-1.904.049-2.696.028-.07.076-.117.145-.144z"/></g></svg>