<svg enable-background="new 0 0 76.435 41.979" viewBox="0 0 76.435 41.979" xmlns="http://www.w3.org/2000/svg"><g clip-rule="evenodd" fill-rule="evenodd"><path d="m76.115.123c.16.928.166 2.503 0 3.43-4.716.239-9.939.149-15.061.149-3.072 0-5.972-.378-6.263 2.584-.258 2.641.28 6.531-.099 9.047-1.021.084-2.888.134-3.827-.05-.093-2.708-.226-5.853-.1-8.55.132-2.834.989-4.797 2.783-5.964 1.714-.977 4.833-.746 7.903-.745 5.031.001 9.975-.093 14.664.099z"/><path d="m47.187 15.333c-1.069.162-2.808.165-3.877 0-.294-.859.024-2.135-.248-2.934-1.212-.269-2.641-.149-4.075-.149-3.441.001-7.003.14-10.339-.05-.162-1.287-.165-3.236 0-4.523 4.754-.301 9.832.113 14.364-.248.324-1.185.138-2.828-.944-3.23-.971-.361-2.619-.1-4.025-.1-4.23 0-8.68-.043-12.426.149-.27.828-.149 1.805-.149 2.733 0 2.799.099 5.852-.1 8.449-3.259.105-6.66.201-10.04.1-3.383-.102-6.761.17-9.891-.05-2.102-.147-3.52-1.278-4.374-2.733-.896-1.527-1.044-3.515-1.044-5.764 0-2.137-.083-4.464.1-6.71 1.035-.193 2.61-.102 3.727-.05.848 3.541-1.25 9.882 1.84 11.134.893.361 2.597.181 3.777.198 2.704.042 5.49 0 8.15 0 1.312 0 2.604.186 3.777-.1.21-1.647.1-3.606.1-5.566 0-.958 0-1.939 0-2.883 0-.955-.116-1.912.149-2.733 5.928-.141 12.168-.141 18.142-.1 1.758.012 3.231.001 4.423.597 1.611.805 2.923 2.674 3.082 4.572.137 1.629 0 3.36 0 5.07 0 1.617.083 3.266-.099 4.921z"/><path d="m76.164 19.16c.244 1.011.192 2.496.05 3.528-6.292.207-12.602.2-18.888.199-12.554-.002-25.29.097-38.072.099-4.809.001-9.64-.049-14.414-.049-1.52-.001-3.073.151-4.572-.1-.234-.977-.159-2.463 0-3.479 9.627-.217 19.357-.103 29.176-.1 7.253.003 14.69.074 21.919-.099 8.309-.198 16.457.022 24.801.001z"/><path d="m54.791 26.963c.153 1.45.122 3.288.149 5.019.042 2.598-.287 5.006 1.541 5.815 1.115.495 3.355.249 4.821.249 3.518-.001 6.68 0 10.14 0 1.68-.001 3.357-.209 4.871.1.168.983.154 2.592 0 3.578-4.496.225-9.501.149-14.414.149-2.415 0-4.913.337-6.909-.199-1.786-.479-3.144-1.816-3.777-3.528-.519-1.402-.397-3.487-.397-5.517 0-.981 0-1.977 0-2.933 0-.97-.119-1.957.149-2.783 1.151-.051 2.758-.144 3.826.05z"/></g></svg>