<svg enable-background="new 0 0 69.942 69.461" viewBox="0 0 69.942 69.461" xmlns="http://www.w3.org/2000/svg"><g clip-rule="evenodd" fill-rule="evenodd"><path d="m67.967 23.999c-.734.377-1.713.154-2.649.196-1.74.079-3.445.021-5.397.099-.868.035-2.002.039-2.601-.196-.609-.24-1.141-1.478-1.57-2.159-1.422-2.255-3.269-4.381-5.25-5.936-2.788-2.191-5.915-3.832-10.059-4.858-4.301-1.065-9.292-.689-13.101.539-3.741 1.207-6.684 3.237-9.322 5.545-4.745 4.57-8.815 12.078-7.164 21.834 1.185 6.998 5.412 12.338 10.353 15.75.715.494 1.459 1.083 2.356 1.227.443-.544.294-1.552.294-2.502 0-2.579-.168-5.362-.049-8.047.113-2.557-.001-5.352 0-8.193 0-.877-.107-2.217.245-2.503.349-.283 1.887-.148 2.453-.148.983 0 1.858.017 2.552.05 1.819.086 3.617-.183 5.054.146.316 1.387.08 2.828.147 4.269.196 4.239.049 8.615.049 12.954 0 5.073-.001 10.229 0 15.357 0 .641.137 1.376-.196 1.962-5.481.162-9.971-1.338-13.837-3.14-3.876-1.807-7.204-4.212-10.059-7.065-5.698-5.698-9.77-13.546-10.205-24.092-.055-1.33.111-2.767.245-4.072.898-8.751 4.783-15.532 9.519-20.46.71-.739 1.497-1.369 2.258-2.061 2.162-1.97 4.904-3.851 7.752-5.103 2.969-1.306 6.044-2.553 9.813-3.042.626-.081 1.294-.132 1.962-.196 2.87-.276 6.159-.182 8.979.295 6.162 1.039 11.275 3.48 15.358 6.574 2.779 2.106 5.216 4.529 7.31 7.311 1.015 1.348 2.16 2.867 2.797 4.515.489 1.265 1.189 2.44 1.718 3.778.158.403.386.902.245 1.372z"/><path d="m56.927 45.491c-.441-.378-1.168-.245-1.815-.245-.648 0-1.338 0-2.012 0-1.377 0-2.85.147-3.876-.196-.258-.729-.148-1.653-.148-2.552 0-1.771-.049-3.543 0-5.299.023-.799-.174-2.029.245-2.355.35-.271 1.688-.146 2.503-.146 5.389-.001 10.527-.1 15.701 0 .79.015 1.638-.145 2.306.196.267 1.322-.016 2.63-.147 3.876-.543 5.132-2.304 9.173-4.171 13.051-.457.95-1.042 1.785-1.619 2.649-3.983 5.977-9.695 10.349-17.025 13.052-2.119.782-4.375 1.283-6.967 1.619-1.203.156-2.497.507-3.778.196-.378-.59-.245-1.342-.245-2.011 0-5.168-.12-10.371-.099-15.211.02-4.255.001-8.792 0-13.003 0-1.436-.118-2.879.147-4.269.254-.193.836-.18 1.178-.196 2.011-.095 4.569 0 6.869 0 .741 0 1.769-.034 2.012.246.291.334.146 1.766.146 2.6.002 5.546.049 10.693.05 16.143 0 .843-.152 1.766.343 2.355.693.019 1.25-.463 1.767-.785.544-.339 1.046-.708 1.57-1.03 2.203-1.744 4.151-3.69 5.741-6.084.515-.779 1.138-1.601 1.324-2.601z"/></g></svg>