<svg clip-rule="evenodd" fill-rule="evenodd" stroke-linejoin="round" stroke-miterlimit="2" viewBox="0 0 560 400" xmlns="http://www.w3.org/2000/svg"><path d="m574.2 227.4c.1-25.2-6.2-49.4-18-71.5-10-19.3-66.8-114.2-91.9-155.9h-86.5c-2 3.3-64 105.6-90.6 154.1-12.3-22.8-66.7-113.6-91-154.1h-86.5c-2 3.3-65 107.1-91.2 155.2-12.1 22-18.5 47-18.5 72.2 0 84.1 69.4 152.4 154.1 151.8-59.4 99.9 15.9 229 132.4 228 116.9.6 191.5-127.5 132.5-228 85.1 1.3 155.2-67.4 155.2-151.8zm-221.7-36.7c21-38.4 44.7-78.2 68.4-117.4 32.8 55 61.9 103.5 70.3 120.2 5.2 10.6 7.9 22 7.9 33.9 0 42.7-35 77.3-78 77.3-58 .8-97-63.5-68.6-114zm-199.5 114.1c-43 0-78-34.7-78-77.3 0-13 3.1-25.4 9.4-36.8 21-38.4 44.7-78.2 68.4-117.4 32.8 55 61.9 103.5 70.3 120.2 10.6 20.9 10.3 47.8-.3 68.3-1.9 3.2-4 6.6-6.1 10.1-14.1 19.9-37.4 32.9-63.7 32.9zm133.5 228c-43 0-78-34.7-78-77.3 0-13 3.2-25.4 9.4-36.8 18.8-34.4 66.2-112.9 68.6-117.1 32.7 54.9 61.8 103.2 70.1 119.9 25.6 50.4-13.4 112-70.1 111.3z" fill-rule="nonzero" transform="matrix(.44466 0 0 .44466 152.338 65)"/></svg>