<svg enable-background="new 0 0 77.74 78.036" viewBox="0 0 77.74 78.036" xmlns="http://www.w3.org/2000/svg"><g clip-rule="evenodd" fill-rule="evenodd"><path d="m42.757 19.218c.289-.547-.034-1.024-.05-1.588-.07-2.566 1.224-4.321 2.729-5.161 1.359-.759 3.431-1.152 5.31-.943 1.91.213 3.908.684 5.757.546 1.313-.098 2.662-.833 2.978-1.687.199-.539.195-1.651-.248-1.985-.646.238-.673.91-1.042 1.34-.89 1.033-2.827 1.583-4.317.694-.778-.464-1.482-1.598-1.489-2.829-.011-2.107 1.893-3.795 4.317-3.226 2.515.59 5.089 3.781 5.211 6.799.09 2.229-.734 3.298-1.588 4.863-.864 1.049-2.367 1.872-4.565 2.084-.931.09-1.975.271-2.879.446-1.406.273-2.882 1.115-2.729 2.829.082.906.63 1.546 1.341 1.936.461-.307.476-.878.645-1.291.76-1.85 2.693-3.204 4.913-3.374 3.498-.27 6.01 2.49 8.238 3.821 1.229.735 2.8 1.824 4.416 1.191.813-.318 1.562-1.058 1.439-2.233-.73.014-.831.467-1.488.745-2.113.892-4.611-.516-4.615-3.027-.003-1.759 1.407-3.423 3.573-3.275.625.043 1.146.301 1.538.546 1.7 1.064 2.786 3.365 2.779 5.955-.009 3.211-2.253 5.794-4.715 6.551-1.674.515-3.184.104-4.665-.298-1.388-.376-2.847-1.354-4.218-1.29-1.169.054-2.313.998-2.432 2.184-.057.562.049 1.65.546 1.737.354.062.697-.397.992-.645.852-.715 1.995-1.556 3.425-1.588 2.252-.051 3.689 1.341 4.862 2.58 1.188 1.253 1.943 2.704 2.729 4.268.695 1.382 1.606 3.38 3.028 3.97 1.219.506 2.898.115 3.126-1.191-.779-.051-1.815.08-2.531-.199-1.116-.434-1.909-1.363-2.034-2.63-.241-2.441 2.286-4.582 4.813-3.226 1.416.76 2.23 3.122 1.737 5.608-.659 3.322-3.168 5.907-6.799 5.806-3.96-.11-5.102-2.872-7.444-5.111-.727-.333-1.354-.891-2.283-.794-1.273.133-2.362 1.328-2.034 2.73.637.212 1.152-.163 1.786-.199 1.022-.058 1.91.096 2.63.348 1.972.688 3.521 2.886 3.821 5.26.176 1.385.149 2.854.149 4.317 0 1.468-.118 2.876.348 4.069.351.901 1.336 1.908 2.531 1.985.48.031 1.189.004 1.488-.595-.43-.439-.925-.402-1.34-.695-.652-.46-1.303-1.03-1.539-1.886-.391-1.42.119-3.045 1.539-3.821 2.374-1.299 5.347.761 4.813 3.771-.271 1.526-1.076 2.732-1.936 3.672-1.284 1.407-4.074 2.852-6.897 2.035-1.896-.549-3.189-1.569-4.169-3.474-.442-.859-.701-1.866-.943-2.878-.401-1.684-.816-4.053-2.68-4.218-.726-.065-2.632.502-2.481 1.439.083.513 1.654.708 2.135.943.747.367 1.279.77 1.688 1.34 1.017 1.152 1.534 2.889 1.389 4.714-.151 1.899-1.034 3.519-1.886 5.111-.798 1.494-2.444 3.846-1.638 5.906.326.833 1.037 1.546 2.233 1.439.022-.615-.63-1.019-.894-1.687-.303-.768-.244-1.726.05-2.58.642-1.49 2.8-2.493 4.565-1.44 1.359.811 2.287 3.338.893 5.111-.625.796-1.853 1.624-2.878 2.085-2.769 1.243-5.71.336-7.444-1.241-.826-.752-1.675-1.769-1.985-2.928-.801-2.988.844-5.696.844-7.99 0-.971-.597-2.165-1.488-2.382-.699-.171-2.538-.008-2.63.646-.061.421.646.845.893 1.091.397.398.632.7.844 1.142 1.804 2.575.3 6.152-1.39 7.841-.906.906-2.175 1.716-3.275 2.432-1.15.748-2.449 1.437-3.176 2.481-.873 1.253-.867 3.691.844 3.97.158-.479-.178-.925-.199-1.489-.076-2.074 1.406-3.382 3.227-3.424 1.664-.038 3.186 1.16 3.324 2.928.29 3.701-4.051 4.698-7.393 3.623-2.3-.739-4.127-2.849-4.616-4.913-.588-2.483.296-4.267 1.341-5.558 1.057-1.307 2.532-2.299 3.076-4.069.635-2.067-.906-4.036-3.076-3.126.271 1.225.795 2.166.595 3.97-.201 1.81-1.308 2.944-2.58 3.771-.33.215-.688.525-1.042.695-1.171.561-2.715.691-4.119.943-1.489.268-3.019.13-4.417.596-1.153.384-2.466 1.417-2.382 2.878.032.569.344 1.203.844 1.241.393-.429.333-.978.546-1.39.778-1.507 2.844-2.311 4.615-1.34 1.208.662 2.053 2.216 1.44 3.921-.408 1.133-1.399 2.219-3.027 2.283-1.285.05-2.374-.39-3.177-.844-2.411-1.364-4.777-3.576-4.119-7.643.377-2.321 1.767-3.689 3.375-4.615 1.817-1.046 4.182-1.377 5.359-2.63.344-.365.893-1.351.646-2.333-.211-.835-.885-1.382-1.836-1.588-.382.587-.303 1.242-.447 1.787-.425 1.6-1.587 2.958-2.978 3.672-.431.222-1.138.513-1.736.596-2.169.299-4.14-.4-5.857-1.092-.774-.312-1.727-.561-2.63-.893-.891-.328-1.972-.714-2.928-.596-.881.108-1.665.793-1.936 1.439-.158.378-.386 1.169.05 1.489.652-.184.955-.908 1.588-1.24 2.128-1.117 4.708.448 4.715 2.928.003 1.544-.993 2.697-1.787 3.027-1.159.482-2.464.21-3.325-.298-1.555-.917-2.67-2.633-3.226-4.268-.618-1.82-.239-4.324.844-6.054.552-.881 1.223-1.378 1.936-1.836.827-.532 1.701-.873 2.73-.993 1.249-.145 2.356.017 3.424.199.961.164 2.103.38 3.275-.049.75-.275 1.288-.819 1.489-1.291.451-1.062-.09-2.278-.894-2.68-.503.192-.606.784-.942 1.142-1.143 1.08-2.214 2.08-4.069 2.035-3.855-.093-5.485-2.514-7.444-4.665-.442-.485-.996-1.002-1.489-1.539-.511-.557-1.025-1.145-1.588-1.439-1.383-.724-3.851-.42-3.772 1.488.778.088 1.404-.509 2.581-.347 2.325.321 3.359 3.076 2.282 4.863-.74 1.229-2.587 2.309-4.466 1.191-2.088-1.419-2.944-4.822-1.936-7.643.813-2.275 2.863-4.35 5.707-4.616 2.093-.195 3.59.745 4.913 1.638.597.402 1.285.798 2.034 1.241.741.437 1.707 1.033 2.68.844 1.278-.25 2.309-1.889 1.638-3.226-.886.181-1.28.619-2.084.843-.723.203-1.646.312-2.581.1-2.65-.601-4.29-2.975-5.161-5.757-.867-2.773-.896-6.536-3.374-7.493-.802-.31-2.283-.157-2.58.694.316.334.795.208 1.141.298 1.639.429 3.107 2.204 2.382 4.268-.189.536-.46 1.019-.843 1.389-1.438 1.39-4.065.723-4.963-.694-1.639-2.589.293-6.279 1.836-7.792 1.212-1.188 3.391-2.271 6.055-1.638 2.343.558 3.463 1.866 4.367 3.622.203.396.535.787.794 1.241.641 1.124 1.436 2.768 2.68 3.275 1.568.64 2.896-.597 3.077-1.985-.367-.374-1.249-.15-1.737-.199-1.409-.139-2.402-.988-3.275-1.637-1.126-1.462-1.797-3.042-1.737-5.36.038-1.456.596-3.086.943-4.516.343-1.414.75-3.387.248-4.764-.353-.968-1.495-1.853-2.878-1.39-.072.378.368.498.546.645.639.533 1.398 1.505 1.34 2.779-.073 1.615-1.271 2.579-2.631 3.077-3.396.283-4.599-2.66-3.523-5.012.877-1.917 3.646-4.033 6.402-4.069 2.41-.032 4.618 1.484 5.657 2.928.566.786 1.001 2 1.092 3.127.235 2.914-.413 6.428 2.283 7.096 1.265.058 2.007-.408 2.432-1.191-.417-.654-1.062-.664-1.589-1.042-1.237-.891-2.326-2.639-2.382-4.516-.067-2.306 1.347-4.237 2.68-5.905.613-.768 1.308-1.588 1.985-2.333.696-.765 1.478-1.601 1.786-2.481.565-1.613-.31-3.46-1.886-3.474-.149.627.368 1.129.497 1.786.32 1.644-.564 2.831-1.539 3.524-2.644 1.494-5.977-1.166-4.714-4.218.288-.698 1.036-1.485 1.538-1.787 1.158-.696 2.972-1.292 4.963-1.142 3.068.233 5.863 2.715 6.153 5.906.311 3.415-1.76 5.228-2.382 7.345-.297 1.009-.17 2.36.396 2.978.553.601 2.131 1.124 2.977.347-.22-.817-.884-1.311-1.19-2.134-.596-1.595-.364-3.514.248-4.714 1.807-3.546 7.175-4.142 10.272-6.154 1.166-.609 1.701-3.593.05-4.069-.308.365-.122.93-.199 1.39-.139.832-.599 1.422-.992 1.935-2.504 2.168-6.319-.383-5.211-3.622.62-1.812 2.384-2.402 4.665-2.134 1.373.162 2.4.681 3.127 1.142 1.6 1.015 3.151 2.791 3.325 5.161.236 3.243-1.392 5.05-3.077 6.303-.607.45-1.282.778-1.886 1.24-.71.544-2.531 2.146-1.886 3.822.334.866 1.204 1.574 2.431 1.488zm2.482 3.969c-2.017-.809-4.618-1.456-7.444-1.29-4.952.291-8.579 2.45-11.266 5.161-2.742 2.768-4.661 6.424-5.062 11.265-.268 3.242.684 6.345 1.886 8.883 2.271 4.793 6.959 8.258 12.406 9.33 3.452.679 6.818.07 9.43-.943 2.613-1.013 4.501-2.575 6.401-4.466 2.472-2.936 5.004-7.138 4.517-12.754-.459-5.28-2.701-9.026-5.559-11.811-1.451-1.402-3.218-2.535-5.309-3.375z"/><path d="m50.598 27.406c.165 1.077.16 2.792 0 3.871-2.726.332-6.146-.03-9.032.248.65.566 1.408.79 2.035 1.29 1.808 1.443 3.035 3.467 3.324 6.501 1.081.323 2.686-.092 3.673.248.24 3.758.169 7.818 0 11.613-7.642.205-15.856.103-23.622-.05-.18-6.903-.1-13.993-.1-20.992 0-.941-.121-1.932.148-2.829 7.604-.061 16.249.038 23.574.1zm-16.923 3.921c-.993.003-1.996-.052-2.68.198-.053 1.511-.144 3.484.05 4.913.497-.403.625-1.057.942-1.539.327-.494.732-.963 1.142-1.389.837-.871 1.912-1.365 2.978-2.035-.721-.119-1.608-.152-2.432-.148zm12.903 10.669c-.071.028-.121.078-.149.149-.45 1.138-.984 2.191-1.836 2.928-.733.854-1.809 1.367-2.779 1.985.688.296 1.604.147 2.432.149.865.002 1.74.156 2.432-.099.207-1.528.097-3.561 0-5.112-.034 0-.067 0-.1 0zm-15.533 5.062c1.335.165 3.329.162 4.664 0-.417-.457-1.006-.697-1.488-1.042-1.346-.965-2.315-2.155-3.027-3.722-.05 0-.059-.04-.099-.05-.27 1.291-.188 3.443-.05 4.814z"/></g></svg>