<svg enable-background="new 0 0 75.551 50.392" viewBox="0 0 75.551 50.392" xmlns="http://www.w3.org/2000/svg"><g clip-rule="evenodd" fill-rule="evenodd"><path d="m7.871.171c.217 5.187.146 10.584.146 16.002v8.049c0 2.707-.115 5.393.147 8.001.71-2.555 1.006-5.267 1.415-7.952.408-2.683.869-5.371 1.317-8.049.903-5.394 1.586-10.826 2.634-16.051 1.219-.177 2.661-.098 4.049-.098 1.358 0 2.757-.206 3.854.146-.513 4.194-1.161 8.404-1.854 12.586-1.891 11.422-3.531 23.01-5.513 34.442-.174 1.004-.167 2.072-.585 3.024-2.154.162-4.491.14-6.781.049-2.295-.091-4.564.183-6.586-.098-.174-7.734-.098-15.99-.098-24.197 0-8.861-.055-17.732.098-25.855 2.388-.17 5.288-.19 7.757.001z"/><path d="m36.215.171c.274 12.385-.002 25.344.098 37.711.034 4.158.131 8.26-.098 12.342-2.409.162-5.494.162-7.903 0-.399-3.057.075-7.059-.244-10.245-1.14-.164-2.907-.154-4.049 0-.852 3.182-1.02 7.047-1.854 10.245-1.221.178-2.664.098-4.049.098-1.384 0-2.762.123-3.854-.098.114-2.087.541-4.223.878-6.342 1.008-6.329 2.052-12.422 2.976-18.929.588-4.142 1.397-8.229 2-12.635.507-3.708 1.216-7.151 1.805-10.977.131-.849.058-1.311.732-1.317 3.277-.033 6.672 0 10.245 0 1.106.001 2.243-.113 3.317.147zm-8.294 15.172c-.746 4.129-1.538 8.43-2.146 12.636-.205 1.42-.515 2.856-.537 4.293.661.262 2.09.179 2.83.049.164-5.479.16-11.598 0-17.026-.002-.029-.007-.058-.049-.048-.002-.03-.007-.059-.049-.05-.003.062-.063.068-.049.146z"/><path d="m44.8.171c.315 9.567-.139 19.604.244 28.832.403-.473.356-1.132.439-1.708.584-4.063 1.498-8.464 1.951-12.732.387-3.64 1.104-7.287 1.708-10.879.2-1.19.316-2.392.683-3.513 3.92-.111 8.401-.179 12.684 0 .338 9.928-.115 19.51.244 28.93.394-.481.345-1.131.439-1.708 1.456-8.912 2.928-18.274 4.44-27.173 2.328-.26 5.498-.189 7.903-.049.085 1.049-.177 2.087-.341 3.122-1.152 7.261-2.396 14.613-3.512 21.953-1.116 7.335-2.258 14.661-3.464 22.051-.164 1.003-.254 2.031-.634 2.976-4.105.06-8.71.169-12.928 0-.258-1.064-.146-2.206-.146-3.317 0-3.408 0-6.82 0-10.245 0-4.586.113-9.323-.146-13.562-.449 1.015-.544 2.159-.732 3.269-1.142 6.749-1.997 13.785-3.22 20.587-.199 1.104-.317 2.227-.683 3.269-4.147.049-8.764.145-12.83-.049-.246-8.074-.146-16.455-.146-24.977 0-7.923.049-15.93.049-23.807 0-.431-.142-.995.195-1.366 2.386.052 5.419-.121 7.803.096z"/></g></svg>