<svg enable-background="new 0 0 81.195 68.779" viewBox="0 0 81.195 68.779" xmlns="http://www.w3.org/2000/svg"><path clip-rule="evenodd" d="m36.752.172c.252 2.203.146 4.862.146 7.181 0 .797-.109 1.598.146 2.28 2.076.162 4.813.161 6.89 0 .339-.646.194-1.505.194-2.329 0-.812 0-1.66 0-2.475 0-1.664-.072-3.345.146-4.658.707-.259 1.5-.146 2.232-.146 10.897-.001 21.346.001 32.314 0 .72 0 1.495-.107 2.183.146.247 3.118.146 6.397.146 9.704-.001 6.488.156 13.403-.097 19.748-.254 6.355-1.547 11.562-3.688 16.157-3.163 6.789-7.726 12.05-13.731 15.963-2.588 1.817-5.562 3.292-8.782 4.464-3.203 1.166-6.668 2.257-10.529 2.572-.249-.412-.146-.947-.146-1.407 0-3.384.023-7.11-.097-10.48-.043-.021-.087-.042-.097-.097-2.066-.158-4.776-.163-6.841 0-.337.849-.194 1.906-.194 2.911v6.162c0 1.019.111 2.028-.146 2.911-1.922-.102-3.829-.505-5.58-.971-8.744-2.323-15.767-6.262-21.106-11.984-1.644-1.762-3.036-3.49-4.367-5.579-.424-.666-.749-1.405-1.165-2.135-1.59-2.791-2.943-5.934-3.785-9.461-.851-3.571-.776-7.979-.776-12.47 0-7.888 0-16.411 0-24.648 0-.472-.121-1.04.194-1.456 10.53-.057 21.27-.048 32.12-.048 1.475-.001 2.972-.119 4.416.145zm21.591 27.026c-.326-1.149-.805-2.211-1.358-3.154-2.233-3.803-5.274-6.631-9.704-8.249-2.226-.812-4.788-1.402-7.763-1.261-3.589.169-6.807 1.352-9.219 2.911-2.392 1.547-4.587 3.581-6.016 5.92-1.898 3.105-3.304 7.074-2.863 11.936.393 4.33 2.334 7.785 4.658 10.286.969 1.042 2.134 1.822 3.251 2.717 1.129.905 2.43 1.464 3.881 2.086 1.519.651 3.022 1.113 4.658 1.31 3.947.476 7.286-.336 10.092-1.553 2.818-1.222 5.037-2.716 6.938-4.998 1.573-1.789 2.836-4.068 3.59-6.647.25-.855.619-1.806.485-2.766-.988-.3-2.172-.146-3.299-.146-3.243 0-6.653-.062-10.286-.049-.909.694-1.392 1.478-2.329 1.989-2.794 1.524-6.125.072-7.181-2.378-1.055-2.448.16-4.979 1.747-6.016 1.986-1.299 5.211-1.077 6.841.631.443.302.546 1.043 1.116 1.213.904.269 2.26.048 3.396.048h6.793c1.149 0 2.348.179 3.25-.243.106-1.276-.365-2.484-.678-3.587z" fill-rule="evenodd"/></svg>