<svg enable-background="new 0 0 71.329 71.618" viewBox="0 0 71.329 71.618" xmlns="http://www.w3.org/2000/svg"><g clip-rule="evenodd" fill-rule="evenodd"><path d="m71.253.168c.112 23.234.103 47.189-.047 71.274-.043.021-.086.042-.096.095-21.076.146-44.247.048-66.582.048-1.453 0-2.928.112-4.36-.143-.256-.68-.142-1.425-.142-2.132-.002-23.21-.107-46.086.141-69.142.755-.257 1.58-.142 2.37-.142 4.096.001 8.343 0 12.511 0 17.466.001 35.289 0 53.125 0 1.023 0 2.078-.116 3.08.142zm-9.1 44.215c1.151-3.351 1.537-7.897.996-11.989-.717-5.406-2.617-9.488-5.119-12.938-2.6-3.584-5.736-6.158-9.715-8.34-3.95-2.168-8.709-3.548-14.833-3.223-5.149.274-9.47 2.037-12.985 4.312-3.412 2.21-6.5 5.17-8.672 8.483-3.208 4.891-5.736 12.49-4.17 20.662.431 2.251 1.165 4.603 2.085 6.492 1.788 3.671 4.365 7.105 7.44 9.667 3.219 2.682 7.002 4.593 11.421 5.734 2.399.62 5.103.84 7.725.758 8.229-.258 13.546-3.574 18.198-7.535 1.157-1.096 2.193-2.293 3.175-3.649.265-.366.884-1.058.759-1.469-.18-.582-2.125-.94-2.654-1.137-.641-.238-2.125-1.03-2.891-.948-.914.098-1.182 1.306-1.849 1.706-3.308 3.293-7.497 6.129-13.506 6.682-8.852.813-15.176-3.064-19.003-7.725-1.025-1.248-2.061-2.572-2.607-4.123.575-.641 1.51-.746 2.322-.948.862-.214 1.766-.455 2.654-.664 4.476-1.051 9.453-1.564 14.786-1.564 5.576 0 10.156.817 14.738 1.753 3.643.745 6.958 2.016 10.189 2.986.801-.748 1.143-1.896 1.516-2.983z"/><path d="m56.751 39.17c-.836.172-1.67-.186-2.464-.426-.801-.243-1.63-.444-2.464-.616-4.939-1.017-10.465-1.896-16.492-1.895-5.945 0-11.484.925-16.539 1.895-.831.16-1.641.425-2.417.664-.777.239-1.601.57-2.417.427-.527-.724-.39-1.672-.426-2.465-.132-2.841.489-5.28 1.137-7.535.779-2.711 2.457-5.462 4.17-7.346 3.733-4.104 8.345-7.278 15.402-7.629 8.012-.399 13.16 3.135 17.061 7.061 2.77 3.08 5.02 6.982 5.639 12.369.102.875.173 1.878.143 2.843-.029.901.04 1.879-.333 2.653z"/></g></svg>