<svg enable-background="new 0 0 76.708 30.495" viewBox="0 0 76.708 30.495" xmlns="http://www.w3.org/2000/svg"><g clip-rule="evenodd" fill-rule="evenodd"><path d="m30.167 14.318c-.165-4.589-.168-9.602 0-14.116 5.097-.362 10.429.142 15.607-.1 2.113-.098 3.564.768 4.672 1.839 1.2 1.161 2.106 2.841 2.237 4.822.211 3.218-1.669 5.982-4.175 7.107-2.151.966-6.063.454-8.996.546-3.073.097-6.094.095-9.345-.098z"/><path d="m54.074 14.318c-.165-4.476-.166-9.642 0-14.116 3.831-.309 7.421.045 11.283-.1 2.029-.075 4.236-.279 5.815.249 2.67.894 4.989 3.834 4.722 7.356-.239 3.145-2.289 5.52-4.921 6.312-1.692.509-3.313.397-5.467.397-1.902.001-3.89-.01-5.865 0-1.899.011-3.814.198-5.567-.098z"/><path d="m28.129.202c.228 2.142.037 4.702.1 7.008-2.866 7.277-5.941 14.551-8.797 21.87-.177.453-.32.993-.696 1.342-1.165.049-2.507.132-3.628-.05-.315-2.444-.078-4.957-.149-7.505-.071-2.546 0-5.149 0-7.704-.001-5.097-.174-10.108.099-14.911 4.172-.127 8.914-.226 13.071-.05z"/><path d="m.394.152c4.176.065 8.614-.131 12.625.1.147 8.522.14 18.331.149 26.79.002 1.132.088 2.261-.149 3.33-1.024.161-2.705.167-3.728 0-.608-.825-.98-1.852-1.243-2.833-.275-1.026-.692-1.996-1.094-2.982-2.151-5.294-4.343-10.513-6.36-16.005-.187-.51-.435-1.048-.497-1.491-.217-1.544 0-3.472 0-5.219 0-.551-.073-1.334.149-1.591.036-.045.09-.075.148-.099z"/><path d="m54.124 30.272c-.226-4.749-.131-9.45-.05-14.065.925-.269 1.938-.149 2.933-.149h3.032c3.446 0 6.707-.151 9.94-.05 2.725.086 4.822 1.909 5.815 3.728.483.885.814 1.862.895 2.982.128 1.787-.414 3.266-1.143 4.424-.804 1.277-2.268 2.491-3.927 2.983-1.066.315-2.421.248-3.728.248-3.829 0-8.279-.026-11.829 0-.673.004-1.274.202-1.938-.101z"/><path d="m30.266 30.322c-.269-.934-.142-2.326-.149-3.578-.015-2.788 0-6.075 0-9.046 0-.948-.17-1.512.447-1.641 1.052-.22 2.877 0 3.927 0h4.026c2.794 0 5.629-.183 8.002 0 .795.061 1.478.382 2.187.597 2.249 1.277 4.051 3.527 4.076 6.61.019 2.324-1.094 4.119-2.435 5.318-.583.521-1.237 1.096-1.938 1.392-1.156.488-2.727.464-4.275.447-4.454-.047-9.647.113-13.868-.099z"/></g></svg>