<svg enable-background="new 0 0 52.244 74.629" viewBox="0 0 52.244 74.629" xmlns="http://www.w3.org/2000/svg"><path clip-rule="evenodd" d="m29.652 32.556c-.264-.959-.148-1.966-.148-2.952.001-2.997.085-6.277-.147-9.104-.453-5.521-3.233-9.291-8.956-9.596-3.942-.209-7.076 1.317-8.661 3.691-1.519 2.274-1.951 6.235-.197 8.71 1.004 1.417 2.717 2.796 4.921 2.707 1.923-.078 3.872-1.599 4.429-3.396.497-1.603-.058-3.627-1.083-4.477-.441-.366-1.094-.351-1.477-.886.475-.509 1.311.046 1.722.393 1.826 1.544 1.821 4.545 1.821 8.07 0 1.112.062 2.346.049 3.592-.01.912.137 2.876-.246 3.248-.439.427-2.452.197-3.247.197-1.18 0-2.465-.089-3.297.099-1.182.268-2.197 1.421-2.214 2.854-.018 1.416.904 2.769 2.066 3.1.921.262 2.259.197 3.543.197 1.219 0 2.528-.182 3.445.295.338.997.197 2.137.197 3.247 0 3.272.212 7.048 0 10.285-.236 3.606-1.257 6.151-3.494 7.774-.292.212-.741.28-.886.689 1.293.699 3.74-.394 4.822.345.367.25.535 1.037.689 1.525.187.593.414 1.03.59 1.575.387 1.195.509 2.456 1.132 3.198.649-.181.687-.996.886-1.575.415-1.209.816-2.238 1.279-3.543.175-.492.396-1.367.836-1.575.563-.266 1.513-.049 2.362-.049.824 0 1.626.121 2.263-.148.09-.456-.406-.671-.64-.886-.791-.727-1.443-1.646-1.82-2.903-.946-3.148-.59-7.868-.591-12.105 0-.966 0-1.962 0-3.051 0-1.101-.149-2.618.345-3.001.262-.204 1.183-.148 1.624-.148 3.92 0 8.303-.052 10.974 1.083 3.319 1.41 5.581 3.723 7.233 6.545 1.688 2.884 2.722 6.829 2.411 11.317-.28 4.038-1.694 7.594-3.789 9.989-2.281 2.607-4.695 4.36-8.316 5.511-3.543 1.127-8.008 1.23-12.548 1.23-9.028 0-18.201.006-27.36-.147-.239-6.06-.096-12.286-.096-18.55 0-6.19 0-12.469 0-18.748 0-6.135-.175-12.448 0-18.748.142-5.094.049-10.613.049-16.14 0-.797-.107-2.043.197-2.165.036-.046.089-.075.147-.099 8.302-.149 17.226.311 25.883.049 4.496-.135 8.918-.01 12.548.689 3.705.713 6.386 2.432 8.415 4.822 3.27 3.081 4.691 9.405 3.444 15.501-.371 1.813-1.081 3.355-1.87 4.724-1.538 2.667-3.895 5.17-6.988 6.249-2.482.866-5.805.738-9.202.738-1.026 0-2.116.121-3.049-.246z" fill-rule="evenodd"/></svg>