<svg enable-background="new 0 0 82.255 70.832" viewBox="0 0 82.255 70.832" xmlns="http://www.w3.org/2000/svg"><path clip-rule="evenodd" d="m25.174.056c1.321 1.77 2.179 4.002 3.562 5.709.492-.264.752-.846 1.025-1.317.281-.488.558-1.013.829-1.513.544-1.007 1.068-2.069 1.805-2.879 5.252-.005 11.175-.038 16.637.049.564.256.776.907 1.073 1.415.6 1.025 1.155 1.98 1.805 3.123.182.317.712 1.354 1.074 1.365.463.014.827-1.059.976-1.365.271-.563.577-1.061.829-1.513.585-1.054 1.084-2.09 1.707-2.977 1.598-.08 3.526-.08 5.123 0 .574.733 1.088 1.618 1.609 2.537.164.288.438.669.439.927.004.355-.518 1.153-.731 1.562-.283.541-.596 1.003-.829 1.415-.599 1.055-1.224 1.976-1.513 2.927.388.348.987.128 1.513.146 1.602.056 3.503.1 5.122.146.767.6 1.181 1.6 1.708 2.488 1.014 1.709 2.055 3.478 3.073 5.269.509.895 1.132 1.717 1.562 2.586.102.206.208.558.341.83.287.587.808 1.301 1.22 2 .319.54 1.067 1.575 1.073 2.098.007.45-.481 1.1-.731 1.513-.861 1.422-1.676 2.804-2.293 4.391.385.338 1.021.195 1.562.195 1.625 0 3.428-.024 5.025.098.828.696 1.343 1.804 1.951 2.878.18.317.524.722.536 1.024.022.575-.854 1.771-1.122 2.244-.437.772-.787 1.501-1.365 2.001-1.647.066-3.409.049-5.123.049-.532 0-1.121-.107-1.562.146-.119.676.538.988.635 1.609.812 1.528 1.8 2.883 2.585 4.439-.698 1.439-1.47 2.855-2.293 4.244-.728 1.23-1.287 2.547-2 3.806-.436.771-.928 1.533-1.366 2.293-.892 1.55-1.644 3.169-2.731 4.537-1.601.121-3.411 0-5.172 0-.565 0-1.157-.105-1.61.146.599 1.547 1.612 2.994 2.488 4.489.215.366.769 1.165.78 1.512.025.665-.807 1.553-1.122 2.098-.442.767-.674 1.465-1.219 2.001-1.407.077-3.051.002-4.489-.049-.867-.741-1.295-1.889-1.902-2.879-.303-.493-.622-.969-.927-1.463-.289-.471-.499-1.101-1.024-1.366-.548.242-.699.885-.976 1.366-.281.487-.605.973-.879 1.463-.56 1.003-1.127 2.015-1.805 2.879-5.496.052-11.651.127-17.075-.049-.736-.897-1.3-1.967-1.903-3.025-.586-1.029-1.096-2.193-2-2.927-.898.729-1.216 2.037-1.951 2.927-.655.972-1.038 2.216-1.903 2.977-1.354.085-3.034.075-4.391 0-.683-.845-1.266-1.862-1.902-2.927-.167-.279-.537-.807-.537-1.074 0-.321.56-1.115.781-1.463.32-.509.575-.957.829-1.366.591-.954 1.219-1.868 1.561-2.879-.857-.349-2.054-.244-3.22-.244-1.164 0-2.381.04-3.415-.049-.574-.402-.851-1.115-1.22-1.707-2.21-3.545-4.382-7.24-6.586-10.977-.298-.505-1.009-1.454-1.024-1.902-.019-.499.535-1.155.829-1.61.341-.525.627-1.089.878-1.512.654-1.1 1.219-2.002 1.659-3.172-.434-.32-1.118-.216-1.708-.194-1.674.058-3.739 0-5.513-.049-.681-.756-1.191-1.765-1.756-2.781-.191-.343-.49-.71-.488-1.024.004-.604.903-1.753 1.171-2.244.436-.802.708-1.543 1.269-2.098 2.247-.223 4.922.249 7.025-.146-.271-1.129-.99-2.088-1.659-3.123-.428-.659-.886-1.49-1.368-2.294-.174-.289-.386-.634-.39-.829-.012-.494.669-1.408.976-1.951 2.138-3.788 4.19-7.523 6.293-11.27.348-.618.593-1.311 1.122-1.756 1.593-.016 3.351-.164 5.123-.098.548.02 1.156.208 1.561-.147-.538-1.473-1.604-2.943-2.439-4.391-.255-.441-.726-1.101-.731-1.513-.01-.561.578-1.313.927-1.951.335-.613.791-1.484 1.122-1.806.035-.045.089-.073.146-.098 1.659.034 3.446-.062 5.024.05zm15.417 1.611c-1.686 2.99-3.436 5.889-5.074 8.83-.549.987-1.285 1.924-1.561 3.074.947.065 1.891-.357 2.927-.537 3.214-.558 6.918-.413 9.904.293.43.102.758.372 1.22.244.051-.604-.404-1.127-.684-1.61-.295-.512-.615-1.017-.927-1.512-1.573-2.499-2.988-5.012-4.488-7.611-.27-.467-.663-1.361-1.171-1.317-.07.027-.119.076-.146.146zm-28.688 16.881c-.072.606.404 1.087.684 1.561 1.75 2.968 3.471 5.971 5.172 8.88.26.444.532 1.069 1.073 1.269.463-.801.556-1.706.878-2.537.97-2.497 2.222-4.682 3.708-6.587.393-.373.701-.825 1.073-1.22.357-.379.869-.704 1.024-1.269-4.284-.221-9.257-.27-13.612-.097zm56.058.145c-3.564.001-7.785-.185-11.026 0 .01.479.512.756.829 1.074.338.337.64.726.927 1.073.343.737 1.564 1.47 1.562 2.44-.001.549-.65 1.374-.976 1.951-.389.688-.765 1.312-1.073 1.854-.82 1.441-1.487 2.602-2 3.903 2.095.334 4.812.054 7.073.146 1.411-1.855 2.478-3.951 3.659-6.001 1.172-2.032 2.422-4.079 3.367-6.294-.735-.263-1.544-.146-2.342-.146zm-13.466 10.782c-.218-.479-.425-.992-.684-1.415-2.148-3.518-6.358-6.696-11.659-7.025-2.003-.124-3.729.182-5.123.586-2.773.805-4.715 2.324-6.586 4.195-2.183 2.183-4.059 6.159-3.757 10.587.062.909.334 1.807.537 2.684.607 2.628 1.923 4.704 3.512 6.294 2.279 2.278 4.92 3.986 8.587 4.487 3.999.548 7.729-.705 10.294-2.487 1.931-1.342 3.522-3.117 4.635-5.172.363-.671.787-1.464.83-2.342-.765-.218-1.621-.188-2.439-.194-5.575-.051-11.722.216-17.271-.049-.372-.018-.882.144-1.171-.195 1.083-2.157 2.359-4.191 3.512-6.245.383-.681.728-1.423 1.269-2 5.24-.22 10.854.066 15.954-.195.06-.531-.233-1.058-.44-1.514zm-36.883 12.198c-1.435 2.484-2.856 4.855-4.245 7.27-.584 1.015-1.266 1.954-1.609 3.024 1.03.264 2.175.146 3.317.146 3.493 0 7.091.144 10.343-.049-.157-.562-.625-.959-.976-1.366-2.15-2.494-4.096-5.284-5.074-8.977-.127-.479-.374-1.697-.731-1.659-.458.371-.67.995-1.025 1.611zm46.055-1.318c-.182.464-.38 1.2-.537 1.757-1.018 3.619-2.905 6.237-4.927 8.732-.335.413-.824.72-1.024 1.269.797.294 1.779.126 2.684.146 1.768.039 3.64.097 5.513.097 1.905.001 3.836.118 5.513-.146-.314-.995-.839-1.922-1.366-2.781-1.604-2.612-3.091-5.199-4.635-7.854-.451-.361-.442-1.184-1.073-1.366-.072.027-.121.076-.148.146zm-29.516 16.978c.09.561.508 1.025.829 1.562 1.812 3.019 3.416 6.055 5.22 9.025.212.349.717 1.361 1.024 1.366.333.005.821-.964 1.025-1.317 1.778-3.096 3.519-6.09 5.269-9.074.285-.487.73-.996.683-1.61-1.082.085-2.143.456-3.269.635-1.174.187-2.357.342-3.659.342-2.567 0-4.976-.616-7.024-1.074-.061.019-.101.062-.098.145z" fill-rule="evenodd"/></svg>