<svg enable-background="new 0 0 81.045 62.291" viewBox="0 0 81.045 62.291" xmlns="http://www.w3.org/2000/svg"><g clip-rule="evenodd" fill-rule="evenodd"><path d="m40.597 0h.099c1.714 2.621 3.477 5.194 5.074 7.932-.488 1.052-1.188 1.995-1.823 2.956-1.853 2.805-3.801 5.639-5.715 8.474-1.273 1.886-2.417 3.85-3.744 5.715-1.31 1.84-2.591 3.733-3.843 5.617-1.259 1.895-2.623 3.746-3.843 5.666-3.034 4.771-6.457 9.341-9.509 14.14-.6.943-1.114 2.004-2.02 2.71-3.246.017-6.305.127-9.558-.099.149-.673.624-1.207.985-1.773 2.448-3.844 5.084-7.707 7.587-11.578 2.854-4.413 5.829-8.763 8.77-13.154 4.37-6.526 8.513-13.287 13.006-19.904 1.066-1.57 2.206-3.291 3.301-4.927.393-.586.674-1.257 1.084-1.675.037-.047.09-.076.149-.1z"/><path d="m45.967 8.72c.398.037.942 1.044 1.281 1.577 5.355 8.421 10.954 16.821 16.406 25.077 5.531 8.375 10.946 16.7 16.456 25.077.354.54.846 1.054.936 1.725-3.006.229-6.437.034-9.607.099-1.322-1.373-2.248-3.054-3.301-4.631-3.137-4.703-6.292-9.488-9.46-14.238-4.216-6.322-8.371-12.691-12.711-18.87-.358.045-.563.45-.739.69-1.468 2.009-2.863 4.248-4.287 6.356-4.052 6-8.228 12.044-12.218 18.13-.795 1.212-1.463 2.538-2.513 3.547-2.475 0-5.094 0-7.637 0-.799 0-1.656.117-2.365-.148.385-1.07 1.15-1.923 1.774-2.857 4.901-7.35 9.897-14.725 14.83-22.121.612-.917 1.22-1.88 1.873-2.759 1.313-1.769 2.465-3.656 3.695-5.518 1.761-2.667 3.717-5.514 5.567-8.277.675-1.009 1.257-2.069 2.02-2.859z"/><path d="m45.868 25.176h.099c1.601 2.034 3.006 4.411 4.533 6.7.22.331.583.724.591.985.013.408-.55 1.02-.789 1.379-.876 1.327-1.75 2.626-2.611 3.892-2.429 4.048-5.057 7.847-7.636 11.775-.855 1.302-1.765 2.579-2.463 3.991.496.267 1.088.148 1.626.148 8.566 0 17.513.137 25.964.147.661.469.99 1.261 1.429 1.921.874 1.316 1.81 2.627 2.71 3.991.431.652 1.024 1.271 1.133 2.069-16.079.213-32.498-.086-48.43 0-4.375.023-8.793-.049-13.253-.049-2.927 0-5.863.111-8.769-.148.144-.819.78-1.441 1.231-2.118.456-.683.922-1.383 1.38-2.069.925-1.387 1.735-2.86 2.808-4.089 6.87-.215 13.722.027 20.939-.049.633-.38.93-1.09 1.33-1.675 6.01-8.805 11.862-17.984 18.03-26.703.036-.046.09-.074.148-.098z"/></g></svg>