<svg enable-background="new 0 0 72.782 81.917" viewBox="0 0 72.782 81.917" xmlns="http://www.w3.org/2000/svg"><path clip-rule="evenodd" d="m16.796.043c.041.01.051.051.103.051.386 1.125.686 2.35 1.027 3.544.336 1.176.586 2.393 1.13 3.39 12.316-.404 24.668-1.493 36.982-1.9-.068.859-.536 1.525-.925 2.312-.156.317-.358.712-.566 1.13-.168.34-.511.825-.514 1.13-.004.505.828 1.519 1.13 2.003 2.72 4.355 5.696 9.051 8.271 13.303 3.197 5.021 6.281 10.154 9.348 15.307-3.934 10.482-7.799 20.957-11.916 31.332-1.361 3.431-2.574 6.928-4.109 10.272-11.561-.05-23.361.039-35.133-.103-1.043-1.5-1.893-3.138-2.773-4.726-6.208-11.184-12.584-22.434-18.851-33.643 5.503-14.494 11.059-28.936 16.642-43.351.005-.041.169-.156.154-.051zm-.36 3.801c-.354.673-.654 1.617-.977 2.465-.912 2.409-2.012 5.004-2.876 7.345-3.361 9.105-6.981 18.069-10.427 27.12-.289.759-.911 2.042-.874 2.568.021.292.422.848.668 1.284 3.404 6.037 6.708 12.013 10.067 17.926.228.4.41.936.873 1.13.508-.559.794-1.283 1.131-1.952 1.748-3.478 3.458-7.009 5.085-10.478.654-1.396 1.531-2.746 1.9-4.212-2.852-.284-5.498-.905-7.705-1.9-.481-.217-1.913-.779-2.003-1.233-.062-.316.344-1.026.565-1.489 1.539-3.235 3.282-6.626 4.674-9.759 1.264-2.848 2.609-5.502 3.955-8.373.361-.772 1.224-2.079 1.284-2.876.077-1.03-.587-2.359-.873-3.338-.698-2.382-1.278-4.311-1.901-6.523-.298-1.061-.498-2.195-1.026-3.185-.646-.182-1.703.264-2.209-.103-.135-.188-.121-.57-.052-.822.37-.401 1.524-.017 1.85-.462-.046-1.136-.483-2.325-.873-3.287-.034 0-.069 0-.103 0-.072.028-.124.08-.153.154zm36.879 2.517c-5.576.174-11.277.706-16.95.976-5.046.24-10.05.538-14.947.771-.634.03-1.363.02-1.951.308-.133.435.083.92.205 1.335.679 2.309 1.406 4.631 2.055 6.883.276.959.364 2.008.925 2.671.414-.037.383-.85.821-.924.261-.044.915.375 1.233.565 2.312 1.383 4.363 3.096 6.011 4.931.285.319.581.716.976.873.853-1.138 1.31-2.525 1.952-3.801 1.29-2.567 2.564-5.149 3.801-7.704.64-1.322 1.154-2.717 2.003-3.801 3.807.194 7.413 1.452 10.067 3.031.324.193 1.012.658 1.284.616.446-.069.71-1.141.925-1.541.27-.502.837-1.1.821-1.695-.022-.889-1.074-1.23-1.078-2.158.721-1.174 1.202.273 1.746.565.492-.433.812-1.037.925-1.849-.247-.194-.592-.06-.824-.052zm-7.447 5.598c-1.751-.661-3.957-1.245-5.856-1.233-2.105 4.215-4.508 8.915-6.574 13.355-.261.561-.879 1.534-.873 2.003.003.25.312.779.462 1.079.543 1.08 1.035 2.164 1.284 3.441 1.008 5.158-.999 9.033-3.39 11.762-.396.452-1.4 1.287-1.438 1.747-.039.474.352 1.289.514 1.849.388 1.339.676 2.495 1.027 3.698.174.597.249 1.307.719 1.695.552-.646.859-1.453 1.233-2.208 2.66-5.38 5.359-10.801 8.064-16.18 3.1-6.165 6.209-12.327 9.193-18.543-1.061-1.018-2.685-1.83-4.365-2.465zm7.345-.565c-.372.689-1.111 1.681-1.182 2.415-.037.391.821.819 1.079 1.027.447.362.744.693 1.13.976 2.729 2.479 5.08 5.354 6.883 8.732 1.795 3.365 3.086 7.398 3.646 11.968.608 4.957.206 9.994-.925 14.074-1.135 4.095-2.935 7.492-5.084 10.53-2.157 3.047-4.725 5.723-7.653 7.962-2.985 2.281-6.559 3.847-10.839 4.777-4.42.96-9.886.618-13.765-.719s-7.186-3.27-10.119-5.547c-.367-.265-.746-.641-1.13-.976-.334-.292-.847-.787-1.182-.719 2.162 4.478 4.789 8.778 7.14 12.995.332.595.553 1.325 1.13 1.747 10.726.187 22.466.104 33.593.102.541-.689.757-1.567 1.078-2.363 3.711-9.202 7.146-18.444 10.735-27.686.942-2.427 1.879-5.146 2.825-7.653.282-.75.962-1.952.925-2.568-.029-.464-.743-1.312-1.079-1.849-1.186-1.897-2.181-3.827-3.287-5.547-1.575-2.449-3.001-4.967-4.521-7.293-2.367-3.625-4.586-7.278-6.831-10.889-.75-1.207-1.407-2.485-2.363-3.544-.003-.031-.007-.061-.051-.051-.06.021-.115.051-.153.099zm-2.003 3.955c-.392.656-.863 1.576-1.285 2.414-2.889 5.745-5.746 11.628-8.577 17.259-1.663 3.308-3.196 6.661-4.88 9.862-1.292 2.458-2.565 4.885-3.749 7.345-.39.81-.716 1.791-1.387 2.312-1.149-3.063-1.799-6.625-2.98-9.656-.879.157-1.507.787-2.311 1.13-1.026.438-2.163.594-3.441.873-2.478 4.838-4.941 9.862-7.345 14.844-.271.563-1.012 1.724-.976 2.208.022.309.583.796.873 1.079 2.319 2.27 5.112 4.178 8.167 5.548 3.773 1.692 7.686 2.911 12.943 2.671 2.304-.105 4.515-.62 6.523-1.284 1.986-.658 3.967-1.333 5.547-2.312 3.252-2.013 5.947-4.774 8.219-7.499 4.723-5.668 8.027-13.315 7.242-23.833-.175-2.333-.639-4.562-1.182-6.677-1.622-6.322-4.779-10.858-8.886-14.69-.736-.633-1.327-1.412-2.362-1.746-.073.027-.125.078-.153.152zm-27.635 7.807c1.075 3.789 2.216 7.898 3.288 11.403.601-.423.798-1.229 1.13-1.952.661-1.445 1.313-2.713 2.055-4.211.287-.582 1.009-1.593.976-2.158-.022-.362-.415-.663-.668-.976-.801-.992-1.532-1.838-2.465-2.517-.542-.464-1.089-1.034-1.798-1.541-.49-.35-1.543-1.111-2.209-1.181-.956.847-.658 1.897-.309 3.133zm-1.437.462c-.813 1.594-1.62 3.29-2.414 4.931-1.991 4.114-3.917 8.257-5.855 12.379-.394.838-.948 1.638-1.13 2.568 1.119.734 2.495 1.252 3.955 1.644 1.472.395 3.132.75 4.982.565.566-.611.83-1.447 1.182-2.208.722-1.564 1.404-2.972 2.209-4.572.373-.741 1.029-1.605 1.078-2.363.033-.507-.245-1.07-.41-1.644-1.113-3.866-2.12-7.817-3.339-11.403-.034 0-.069 0-.103 0-.063.026-.118.056-.155.103zm9.553 4.161c-.401.581-.738 1.415-1.13 2.209-.743 1.502-1.419 2.919-2.158 4.468-.314.661-1.008 1.714-1.026 2.312-.013.392.248.98.359 1.438.122.5.284.988.411 1.438.279.993.457 1.992.924 2.774.654-.277 1.173-.926 1.645-1.541 1.358-1.776 2.565-4.055 2.722-6.883.149-2.696-.509-4.678-1.489-6.318-.034 0-.068 0-.102 0-.063.025-.118.055-.156.103zm-5.187 11.095c-.655.918-1.167 2.16-1.695 3.288-.511 1.089-1.172 2.125-1.387 3.236 1.912-.023 3.34-.974 4.519-1.9-.148-1.279-.605-2.471-.924-3.544-.108-.359-.097-.862-.463-1.079-.017-.001-.034-.001-.05-.001z" fill-rule="evenodd"/></svg>