<svg enable-background="new 0 0 39.848 75.443" viewBox="0 0 39.848 75.443" xmlns="http://www.w3.org/2000/svg"><path clip-rule="evenodd" d="m36.726.142c.865-.03 2.269-.188 2.979.096-.416 1.058-1.207 1.9-1.873 2.786-4.611 6.125-9.057 12.472-13.74 18.592-.388.492-.683.943-1.106 1.538-.305.43-1.005.984-1.009 1.585-.002.299.505 1.005.865 1.49 3.642 4.904 7.14 9.697 10.905 14.46 1.37 1.733 2.736 3.578 3.699 5.525.992 2.006 1.946 4.423 2.258 7.014.363 3.011.007 5.881-.721 8.312-1.381 4.614-4.321 8.004-7.927 10.521-1.85 1.291-3.979 2.171-6.438 2.835-2.535.685-5.68.683-8.312.24-5.044-.849-8.978-3.381-11.674-6.774-2.677-3.366-4.878-7.901-4.612-13.74.263-5.776 2.46-9.544 5.429-13.02 3.323-3.417 8.231-6.24 14.941-6.149 2.483.033 4.522.675 6.485 1.153-.013-.541-.474-.863-.769-1.249-1.973-2.582-3.956-5.28-5.861-7.975-2.169-3.068-4.545-6.006-6.773-9.032-2.222-3.018-4.48-6.068-6.772-9.032-.584-.755-1.068-1.586-1.634-2.354-1.384-1.88-2.776-3.741-4.179-5.669-.23-.316-.766-.697-.577-1.201.45.053 2.202-.237 2.883 0 .387.134.756.861 1.105 1.345 3.067 4.25 6.238 8.276 9.368 12.491 1.727 2.325 3.326 4.575 5.188 6.966.317.407.861 1.238 1.153 1.249.353.014.878-.827 1.201-1.249 2.464-3.22 4.697-6.439 7.206-9.705 2.088-2.717 4.052-5.629 6.15-8.407.679-.899 1.274-1.913 2.162-2.642zm-21.763 38.818c-1.379.443-2.71.91-3.892 1.633-2.224 1.361-4.428 3.4-5.621 5.429-.368.626-.646 1.372-.961 2.065-.966 2.126-1.651 4.464-1.729 7.351-.106 3.932 1.06 6.846 2.643 9.464 1.391 2.301 3.389 4.113 5.813 5.525 2.375 1.383 5.667 2.424 9.079 2.306 6.472-.223 11.655-3.704 14.365-8.359 1.473-2.53 2.354-5.264 2.354-8.984 0-3.63-1.06-6.545-2.546-8.84-1.383-2.135-3.256-4.329-5.621-5.717-2.413-1.417-5.083-2.621-8.888-2.498-1.993.065-3.487.14-4.996.625z" fill-rule="evenodd"/></svg>