<svg enable-background="new 0 0 183.497 160.31" viewBox="0 0 183.497 160.31" xmlns="http://www.w3.org/2000/svg"><path clip-rule="evenodd" d="m137.695.52c.779.588 1.108 1.569 1.569 2.378 3.281 5.767 6.703 11.622 10.02 17.459 1.883 3.313 3.772 6.651 5.719 9.969.973 1.66 1.786 3.398 2.783 5.061.981 1.635 1.88 3.348 2.833 5.01 3.752 6.538 7.785 13.268 11.487 19.938 3.205 5.774 6.609 11.651 10.02 17.459.434.739 1.446 2.093 1.366 2.733-.087.693-.983 1.74-1.417 2.53-4.181 7.621-8.608 15.035-12.954 22.469-.969 1.657-1.872 3.348-2.834 5.01-3.856 6.661-7.689 13.178-11.437 19.989-1.858 3.376-3.907 6.625-5.77 9.969-1.864 3.348-3.903 6.599-5.819 9.918-1.909 3.307-3.774 6.644-5.819 9.868-29.741.131-61.488-.198-90.987-.202-.277 0-.568.007-.759-.102-3.89-6.599-7.751-13.237-11.487-19.938-11.213-20.113-22.841-40.029-34.209-60.018.076-.716.897-1.968 1.366-2.783 7.171-12.46 14.532-25.005 21.709-37.346 2.83-5.017 5.823-9.909 8.704-14.929.486-.846.838-1.771 1.316-2.631 2.33-4.197 4.757-7.982 7.237-12.398 1.42-2.529 2.836-4.898 4.352-7.489.438-.749 1.035-2.252 1.721-2.378.789-.145 1.883 0 2.884 0 17.708 0 35.834.303 53.945.304 7.621 0 15.154.05 22.873.05 3.868-.002 7.86-.015 11.588.1zm-76.008 3.897c-4.256 0-8.993-.12-13.157 0-3.954 6.454-7.615 13.162-11.487 19.635-.56.935-1.132 1.907-1.518 2.934.867.315 1.836.203 2.783.203 6.023 0 12.335-.009 18.066.051.96.01 1.972-.131 2.884.152-.258.761-.694 1.439-1.062 2.125-.366.681-.757 1.411-1.316 1.923-8.157.042-16.348-.067-23.987 0-.619.825-.968 1.788-1.467 2.682-.487.874-1.062 1.714-1.569 2.581-2.566 4.388-5.179 8.786-7.692 13.158-.516.897-1.128 1.775-1.417 2.783 3.815.211 7.877.253 11.892.253 3.009 0 6.033.05 8.957.05.975 0 1.971-.123 2.885.152-.266.755-.685 1.448-1.063 2.125-.375.672-.727 1.392-1.265 1.923-7.768.126-16.085-.206-24.037-.05-.615.739-1.102 1.591-1.569 2.429-2.882 5.169-5.964 10.265-8.856 15.384-.491.87-1.134 1.69-1.366 2.682 1.004.269 2.05.152 3.087.152 5.383 0 10.879-.212 16.194 0 2.144.086 4.272-.047 6.376.051 4.231.196 8.544.101 12.803.101 4.324 0 8.619.002 12.904 0 1.938-2.925 3.565-6.034 5.364-9.058 5.403-9.083 10.492-18.359 15.839-27.478 4.455-7.596 8.769-15.304 13.208-22.873 2.442-4.165 4.923-8.427 7.287-12.601.206-.363.578-.755.506-1.214-12.712-.137-25.321-.255-38.207-.255zm64.318.252c-5.629-.086-11.253-.051-17.003-.051-1.158 0-2.436-.156-3.492 0-.677.1-1.271 1.359-1.721 2.126-3.154 5.379-6.281 10.725-9.261 15.991-6.561 11.598-13.341 22.776-19.837 34.208-.453.797-.774 1.636-1.214 2.429-1.707 3.074-3.546 6.095-5.313 9.109-1.348 2.298-2.619 4.649-3.947 6.882-.464.779-1.052 1.513-1.214 2.429 1.054.267 2.185.152 3.289.152 8.062-.001 16.268.128 24.189.05 1.951-2.917 3.559-6.049 5.364-9.058 1.809-3.014 3.529-6.079 5.313-9.109 3.573-6.066 7.033-12.2 10.627-18.269.892-1.505 1.762-3.028 2.631-4.554.882-1.548 1.625-3.173 2.53-4.707 4.91-8.312 9.728-16.807 14.524-25.15.43-.749 1.077-1.436 1.214-2.328-2.213-.286-4.459-.116-6.679-.15zm10.476 2.632c-.434.54-.917 1.358-1.367 2.126-3.032 5.169-5.942 10.432-8.906 15.485-3.455 5.892-6.875 11.812-10.222 17.61-.851 1.474-1.59 3-2.479 4.453-2.681 4.379-5.049 8.9-7.642 13.258-3.039 5.109-6.062 10.273-8.957 15.384-.412.726-.964 1.433-1.113 2.277.915.273 1.922.152 2.885.152 7.034 0 14.275.121 21.153.051.899-1.024 1.483-2.271 2.176-3.441.701-1.183 1.394-2.391 2.075-3.593 1.352-2.387 2.804-4.735 4.15-7.135 2.356-4.203 4.777-8.509 7.236-12.55.348-.572.604-1.255 1.164-1.67.499.522.819 1.131 1.265 1.873.251.417 1.082 1.621 1.063 2.125-.013.34-.547 1.12-.81 1.568-3.846 6.577-7.557 13.14-11.335 19.584-.594 1.012-1.275 2.004-1.62 3.137 2.167.349 4.374.055 6.579.152 2.145.094 4.323.072 6.477.051 2.155-.021 4.318.036 6.478-.051 2.178-.087 4.365.19 6.528.101 6.589-.271 13.35.255 19.736.051 1.054-.034 2.089-.003 3.138-.051 1.03-.047 2.088.186 3.087-.101-.21-.839-.693-1.589-1.114-2.328-.419-.738-.887-1.449-1.315-2.176-6.054-10.28-11.737-20.765-17.813-30.971-1.439-3.106-3.306-5.97-4.959-8.957-1.646-2.973-3.386-5.908-5.061-8.856-2.53-4.454-5.129-8.881-7.642-13.258-.844-1.471-1.585-3.014-2.631-4.352-.003-.031-.007-.06-.051-.051-.061.026-.116.055-.153.103zm-87.344 74.844c-1.969-.073-3.979-.082-5.972-.05-3.99.063-8.06-.05-12.196-.051-7.125 0-14.069-.102-21.051-.101-1.078 0-2.272-.163-3.138 0-.754.142-.333.735-.152 1.062 1.27 2.292 2.618 4.624 3.897 6.832 6.829 11.796 13.412 23.417 20.09 35.12 1.527 2.676 2.824 5.286 4.352 7.945 2.231 3.882 4.581 7.926 6.73 11.69 1.25 2.224 2.619 4.476 3.846 6.68.412.739.737 1.595 1.417 2.126.663-.56.939-1.4 1.366-2.126 8.189-13.904 16.324-28.067 24.392-42.002.861-1.488 1.606-3.048 2.429-4.555.818-1.497 1.746-2.922 2.581-4.402 2.916-5.17 6.036-10.396 8.957-15.485.436-.761.946-1.511 1.164-2.379-1.08-.297-2.21-.112-3.34-.151-8.098-.28-16.309.012-24.088-.102-.768.872-1.299 1.945-1.873 2.935-4.16 7.186-8.281 14.282-12.348 21.456-.831 1.045-1.211 2.562-2.176 3.391-.481-.567-.783-1.211-1.214-1.974-.254-.449-1.081-1.598-1.063-2.125.012-.348.499-1.059.759-1.518 3.089-5.47 6.289-10.834 9.362-16.143.857-1.48 1.597-3.035 2.479-4.453.296-.476.715-.937.708-1.518-1.949-.257-3.935-.028-5.918-.102zm47.366.152c-.998 0-2.127-.146-3.036 0-.667.106-1.224 1.403-1.67 2.176-6.655 11.512-13.354 22.941-19.787 34.411-3.498 6.237-7.077 12.351-10.576 18.319-3.122 5.324-6.169 10.749-9.261 15.991-.457.774-.999 1.514-1.265 2.378.869.355 1.875.202 2.834.203 7.108.001 14.07.11 21.254.05.665-.572.99-1.439 1.417-2.176 3.085-5.33 6.297-10.644 9.311-15.991 9.194-16.065 18.661-32.019 27.782-48.075.641-1.128 1.448-2.247 1.974-3.441.282-.641.563-1.229.911-1.822.326-.556.789-1.129.81-1.822-6.675-.215-13.779-.201-20.698-.201zm53.894.152c-9.046 0-18.953-.111-27.832.051-.935 1.209-1.613 2.583-2.378 3.896-.773 1.329-1.53 2.673-2.328 3.998-1.59 2.643-2.934 5.438-4.504 8.097-3.133 5.304-6.123 10.693-9.261 15.991-6.286 10.612-12.265 21.382-18.521 31.982-1.332 2.306-2.695 4.562-3.997 6.831-.445.776-.977 1.54-1.214 2.429 1.048.276 2.159.152 3.238.152 17.041 0 34.342.257 51.313.101.687-.712 1.125-1.635 1.619-2.479 3.313-5.658 6.569-11.461 9.868-17.054.236-.401.672-.836.607-1.367-2.084-.249-4.313-.101-6.578-.101-2.249 0-4.548-.044-6.781 0-2.278.045-4.576-.128-6.831-.05-2.253.077-4.49.167-6.629-.102.134-.746.624-1.454 1.012-2.125.403-.696.751-1.463 1.315-1.973 9.103-.143 18.352.028 27.074-.051.732-.704 1.168-1.659 1.67-2.53 2.048-3.553 4.296-7.037 6.073-10.779.433-.913 1.059-1.76 1.569-2.631.518-.886 1.011-1.788 1.518-2.682.514-.907 1.202-1.749 1.467-2.783-1.038-.245-2.139-.182-3.239-.152-7.193.198-14.849-.051-22.114-.051-.505 0-1.098.122-1.569-.152.189-.712.613-1.43 1.012-2.126.389-.677.736-1.497 1.366-1.923 8.971-.131 18.272.089 27.074 0 .688-.787 1.185-1.735 1.721-2.631.549-.918 1.083-1.854 1.619-2.783 2.692-4.658 5.402-9.315 7.996-13.967.517-.927 1.249-1.77 1.468-2.834-8.72-.122-17.694-.202-26.823-.202z" fill-rule="evenodd"/></svg>