<svg enable-background="new 0 0 79.762 79.519" viewBox="0 0 79.762 79.519" xmlns="http://www.w3.org/2000/svg"><path clip-rule="evenodd" d="m.334.002c19.557-.02 39.698.154 59.481.154 6.642 0 13.274-.015 19.826.205.228 26.136.07 53.291.051 78.998-.045.023-.091.045-.103.103-9.892.127-19.923 0-30.048 0-10.051 0-19.215-.102-29.586-.103-6.668-.001-13.413-.042-19.774-.154-.274-.755-.154-1.58-.154-2.363 0-25.048.042-50.862.102-76.686.104-.015.1-.139.205-.154zm23.678 21.675c-.941-2.117-1.923-4.272-2.773-6.369-.301-.742-.537-1.503-.873-2.208-1.991-4.183-3.732-8.674-7.499-10.889-1.299-.764-2.738-1.502-4.418-1.695-1.863-.215-3.833-.039-5.958-.103-.541-.017-1.452.014-1.9.206-.188 7.285-.103 15.194-.103 22.6 0 1.047-.124 2.136.154 3.133 3.825.194 7.996.102 12.07.102 4.1 0 8.207.06 12.173.103.012.04.044.06.103.051 2.993 6.389 5.93 12.804 8.783 19.21.475 1.066.938 2.173 1.438 3.236.507 1.078 1.147 2.102 1.387 3.288-6.146.176-13.399.088-19.775-.051-1.281-2.182-2.114-4.715-3.287-7.088-1.16-2.346-2.255-4.765-3.236-7.14-1.004-2.429-2.034-4.843-3.544-6.831-.735-.969-1.626-1.813-2.619-2.568-.969-.737-2.15-1.496-3.545-1.593-.143 14.921-.153 30.305-.153 45.251 0 2.139-.125 4.276.153 6.369 1.203.235 2.474.096 3.75.103 3.848.021 8.017.051 11.813.052 1.421 0 2.466-.034 3.493-.36 4.912-1.556 7.272-5.976 9.656-10.119 1.955-3.398 3.794-6.774 5.753-10.067.495-.832.946-1.679 1.438-2.517.485-.827.851-1.772 1.541-2.466.052.001.062-.041.104-.051 5.084.002 10.345.025 15.409.051 1.694.009 3.35-.022 4.931.154 2.544 4.988 4.609 10.847 7.088 16.077 1.208 2.547 2.633 5.098 4.674 6.934 2.056 1.849 4.854 3.062 8.887 2.517.297-1.011.131-2.103.154-3.133.023-1.064 0-2.121 0-3.185-.001-13.893.049-28.386.052-42.324 0-1.066.121-2.147-.154-3.185-1.741-.235-3.313.471-4.623 1.027-1.38.586-2.55 1.347-3.493 2.363-1.879 2.023-3.147 4.773-4.571 7.14-1.466 2.436-2.752 5.053-4.16 7.55-.705 1.25-1.447 2.45-2.209 3.647-.762 1.198-1.31 2.562-2.312 3.544-1.534.094-3.389.052-5.085.051-5.075 0-10.038.024-14.793-.154-.651-.952-1.104-2.044-1.592-3.082-.502-1.069-.949-2.159-1.438-3.236-2.662-5.858-5.519-11.841-8.064-17.721-.227-.526-.615-1.084-.564-1.695 16.071-.171 33.021.054 49.771.051 1.071 0 2.151.22 3.185-.103.193-7.417.102-15.17.103-22.652 0-1.04.123-2.136-.154-3.133-4.618-.069-10.079-.65-13.562.569-1.85.647-3.485 1.429-4.777 2.465-2.604 2.09-4.226 5.582-6.009 8.526-2.273 3.75-4.639 7.653-6.832 11.403-.436.746-.803 1.607-1.489 2.157-6.943-.035-13.742.073-20.546-.051-.854-1.247-1.32-2.739-1.953-4.161zm23.474 1.285c.438-.71.947-1.446 1.388-2.208 1.697-2.941 3.742-5.939 5.29-8.989.812-1.601 1.812-3.181 2.26-4.931.61-2.384-.261-4.58-1.746-5.496-1.633-1.006-4.171-.77-6.883-.77-1.606 0-3.27-.049-4.314 0-2.993.139-5.737 1.449-5.753 4.571-.005.911.353 1.974.668 2.825 2.047 5.542 4.622 10.624 6.882 15.872.163.378.329.86.72 1.079.652-.453 1.046-1.235 1.488-1.953zm10.941 27.017c1.183-1.946 2.371-3.858 3.545-5.753.473-.765.808-1.625 1.283-2.465.866-1.529 1.751-3.072 2.672-4.777 1.168-2.164 2.639-5.5 1.13-8.013-.362-.602-1.199-1.359-1.85-1.643-.906-.397-2.443-.309-3.852-.309-1.066 0-2.152-.053-3.031-.051-1.265.002-2.651-.088-3.903.051-1.893.211-3.643 1.62-4.212 3.133-.829 2.203.277 4.856 1.027 6.677 1.312 3.185 2.784 6.496 4.108 9.502.725 1.645 1.396 3.229 2.209 4.623.455-.115.656-.616.874-.975zm-21.933 7.242c-1.191 1.903-2.211 3.82-3.287 5.753-.555.996-1.278 1.904-1.541 2.979.423.293.972.179 1.49.154.569-.027 1.159.051 1.746.051 2.181 0 4.581-.051 6.78-.051.727 0 1.51.12 2.157-.154-.642-1.986-1.604-3.915-2.518-5.958-.628-1.407-1.286-2.917-2.003-4.366-.221-.447-.49-1.312-.873-1.335-.687.748-1.313 1.91-1.951 2.927zm-5.598 9.965c-1.058 1.859-2.8 3.956-3.082 6.472-.105.929-.142 1.838.205 2.722.368.94 1.543 2.168 2.723 2.466.922.232 2.17.103 3.338.103 2.356 0 4.457.096 6.78 0 1.086-.045 2.411.05 3.236-.206 1-.31 1.911-1.211 2.312-2.055.979-2.062.04-4.802-.616-6.472-.464-1.177-.867-2.372-1.49-3.03-4.197-.204-8.97-.104-13.252-.051-.071-.003-.113.024-.154.051z" fill-rule="evenodd"/></svg>