<svg enable-background="new 0 0 70.231 71.653" viewBox="0 0 70.231 71.653" xmlns="http://www.w3.org/2000/svg"><g clip-rule="evenodd" fill-rule="evenodd"><path d="m29.502 71.247c-.268-1.287-.151-2.7-.151-4.128 0-3.514 0-7.147 0-10.723 0-.642.121-1.357-.201-1.913-.552.053-.913.542-1.259.906-2.423 2.553-5.013 5.063-7.552 7.602-2.152 2.153-4.218 4.319-6.443 6.545-.617.617-1.527 1.808-2.266 2.014-.724.201-1.861.05-2.819.05-1.953 0-3.709 0-5.739 0-.729 0-2.336.183-2.719-.151-.314-.274-.201-1.77-.201-2.668-.003-13.961-.142-28.153-.152-41.837.631-1.018 1.627-1.705 2.417-2.567 5.475-5.979 11.515-11.587 17.167-17.469 1.648-1.731 3.236-3.165 4.934-4.984.499-.535 1.144-1.505 1.763-1.661.859-.217 2.172-.049 3.222 0 3.17.148 6.809-.194 9.767.101.312 1.273.274 2.755.302 4.229.075 3.745.107 7.649.101 11.378-.001.662-.17 1.397.202 1.964.618.108.964-.499 1.309-.856 1.086-1.124 2.29-2.24 3.423-3.373 1.465-1.464 2.877-3.044 4.431-4.632 2.184-2.231 4.448-4.502 6.746-6.847.692-.706 1.622-2.022 2.567-2.165.897-.135 1.955 0 2.921 0h5.84c.812 0 2.319-.122 2.668.202.324.301.305 1.722.302 2.567-.036 10.321.1 20.84.101 31.012.001 1.911-.075 3.81 0 5.689.075 1.872.061 3.877 0 5.538-.779 1.418-2.141 2.256-3.121 3.474-1.083 1.099-2.251 2.112-3.273 3.272-4.98 4.833-9.787 9.815-14.751 14.701-1.644 1.618-3.126 3.44-4.983 4.833-3.621.013-7.25.05-11.025.05-1.208-.002-2.421.116-3.528-.153zm38.916-33.177c.079-1.692-.011-3.41 0-5.035.011-1.664.07-3.384 0-5.135-.066-1.652.069-3.398 0-5.135-.233-5.852-.1-12.171-.1-18.124 0-.89.109-2.16-.151-2.518-.298-.409-1.244-.302-1.963-.302-2.293 0-4.178-.019-6.092 0-.27.003-1.03.003-1.359.101-.388.115-.84.648-1.259 1.107-.417.458-.866.816-1.208 1.158-2.442 2.442-4.712 4.964-7.049 7.3-4.877 4.877-9.376 9.729-14.146 14.499-4.76 4.76-9.473 9.933-14.196 14.5-.37.453-.84.857-1.259 1.309-.397.427-.993.804-1.058 1.41 2.495.261 5.17.072 7.703.101 1.519-1.063 2.533-2.637 3.876-3.876 1.339-1.235 2.588-2.588 3.876-3.877 6.46-6.46 12.761-13.162 19.182-19.584.967-.967 1.888-2.017 2.87-2.92.326-.299.622-.816 1.157-.805.396.425.252 1.083.252 1.661.002 8.481.102 16.825.101 25.374 0 1.134-.205 3.224.252 3.675.355.351 1.761.251 2.467.251 1.883 0 3.671.018 5.438 0 .91-.009 1.826.042 2.517-.251.431-1.453.068-3.179.149-4.884zm-33.933-36.097c-1.279.06-2.992 0-4.48 0-1.417 0-3.505-.391-3.624.806.869.459 2.162.25 3.423.252 1.057.002 2.126-.01 3.071 0 1.124.013 2.982.352 3.172-.855-.359-.411-1.012-.228-1.562-.203zm-2.264 1.46c-.586-.051-1.117-.05-1.763-.05-1.39 0-2.844-.102-3.977-.05-.443.021-1.563.185-1.46.755.097.541 1.209.331 1.812.352 1.322.047 3.28.043 4.983 0 1.074-.027 2.558.33 2.819-.704-.53-.532-1.556-.228-2.414-.303zm5.688 15.305c-.029-3.778-.045-9.173-.201-12.888-.023-.533.044-2.18-.654-1.56-.94.834.081 4.153-.504 5.185-.141-.498-.203-1.163-.201-1.913.001-.643.217-1.966-.402-2.014-.665-.051-.604 1.228-.604 1.862 0 .954-.102 1.632-.101 2.417.001 1.054.285 2.376-.051 3.272-.261-1.406-.082-3.275-.201-4.732-.041-.507.071-1.104-.252-1.46-1.031.06-.654 1.527-1.007 2.266-.099-.404-.12-.835-.503-.856-1.168-.065-.513 4.08-.856 4.783-.114-.523-.024-1.202-.05-1.812-.012-.275-.011-1.424-.453-1.51-.56-.109-.66.754-.705 1.359-.31 4.171.329 9.601-.051 13.693-.187-2.63-.221-5.399-.251-8.106-.018-1.579.157-3.179.05-4.682-.025-.363-.109-.713-.402-.906-.782.214-.748 1.244-.755 2.014-.02 2.051.137 4.638-.101 6.544-.255-1.538-.074-3.532-.151-5.185-.013-.271-.03-1.735-.352-1.812-.509-.121-.583.762-.604 1.158-.097 1.798-.036 3.201 0 4.581.071 2.795-.018 6.406.1 9.213.025.594-.146 1.241.252 1.661.547-.072.619-.786.654-1.258.203-2.674-.179-5.577.151-8.257.331 2.025-.009 4.681.151 6.797.033.435.007.986.352 1.258 1.053.061.574-1.84.956-2.618.188.366.041 1.067.402 1.258.845.02.774-1.079.806-1.913.048-1.272-.094-2.691.101-3.625.168.457.186 1.113.202 1.762.02.791-.251 2.295.402 2.366.669.073.734-1.338.755-1.862.033-.83-.117-1.689.102-2.316.364.635-.252 2.727.553 2.769.921.048.67-2.392.655-3.424-.018-1.264.052-2.957.05-3.977-.001-.479-.207-1.433.101-1.611.148 1.92.087 4.636.101 6.393.005.486.082 1.17.453 1.208.457.047.664-.694.705-1.158.104-1.174-.082-2.614-.05-3.423.009-.219.139-.465.15-.705.027-.56-.333-1.168 0-1.611-.001.831.176 1.947.202 2.668.032.927-.234 2.171.302 2.819.725.003.761-1.22.754-2.112zm-6.797-13.996c-.568-.014-1.183.052-1.812.051-1.222-.003-2.506-.173-3.524-.051-.751.09-1.933-.045-2.165.755.494.565 1.516.352 2.417.352 1.229 0 2.557.014 3.675.051 1.211.039 3.179.34 3.524-.755-.49-.421-1.334-.384-2.115-.403zm-.704 1.46c-.911-.071-2.072 0-3.172 0-1.166 0-2.342-.076-3.273 0-.629.052-1.621.021-1.711.755.258.346.778.353 1.209.353 2.007 0 4.636.073 6.746 0 .655-.023 1.489-.06 1.61-.755-.361-.285-.877-.311-1.409-.353zm-1.812 1.46c-2.062 0-4.774-.153-6.595 0-.512.043-1.097.121-1.158.705.358.525 1.178.352 1.863.352 2.042 0 4.863.2 6.645 0 .477-.054 1.042-.22 1.107-.756-.416-.423-1.186-.301-1.862-.301zm-.554 1.36c-2.285-.054-4.225-.033-6.646.05-.791.027-1.893-.088-1.964.755.56.547 1.786.215 2.669.251 1.661.07 3.401.078 5.235 0 .784-.033 1.811.12 1.863-.705-.263-.293-.734-.342-1.157-.351zm-1.511 1.51c-1.778-.065-4.502-.266-6.293-.05-.777.093-2.057-.145-2.215.755.469.454 1.288.221 2.014.252 1.814.077 3.646.103 5.487.101.849-.001 2.095.109 2.215-.805-.277-.413-.731-.236-1.208-.253zm-3.07 1.409c-1.156.054-2.548 0-3.776 0-1.169 0-2.859-.22-3.07.755.32.366.907.229 1.409.251 1.606.073 3.43-.01 4.984 0 1.189.008 2.968.391 3.322-.705-.606-.5-1.867-.347-2.869-.301zm-1.46 1.41c-1.13 0-2.389-.112-3.323 0-.68.082-3.722-.252-3.474.755.127.515 1.588.197 2.467.252 1.527.095 3.223.079 4.934.05.976-.016 2.299.209 2.366-.755-.641-.455-1.827-.302-2.97-.302zm5.135 4.582c.055 3.134.101 5.761.101 9.062 0 .752-.271 3.669.403 3.726.767.065.654-1.712.654-2.366-.001-3.5-.032-5.876-.051-9.213-.008-1.403-.001-2.797-.101-3.977-.03-.357.101-.908-.302-1.107-.003-.031-.008-.06-.051-.05-.929.276-.674 2.722-.653 3.925zm-5.387-3.122c-1.982 0-4.623-.179-6.394 0-.563.057-1.478.039-1.561.705.571.429 1.476.321 2.366.302 1.84-.039 3.675.007 5.436-.05.797-.026 1.835.173 1.964-.654-.376-.486-1.147-.303-1.811-.303zm4.027 5.941c.16 3.401.073 6.017 0 8.961-.02.805-.131 2.291.453 2.366.824.106.654-1.722.654-2.366 0-4.087.202-7.537 0-11.78-.043-.908.055-2.877-.705-2.417-.711.665-.472 3.752-.402 5.236zm-5.94-4.481c-1.321-.082-2.819.075-4.179-.101-.941.368-2.987-.37-3.273.654.361.513 1.194.377 1.863.403.704.028 1.455.015 2.215 0 1.59-.031 3.329.142 4.632 0 .473-.051.997-.2 1.057-.755-.603-.386-1.513-.151-2.315-.201zm34.737 3.625c-.041.888-.005 1.846 0 2.618.007 1.165-.254 4.053.654 3.977.716-.059.453-2.67.453-3.876 0-1.836.078-3.108.051-4.279-.016-.637-.031-1.728-.605-1.561-.639.187-.506 2.114-.553 3.121zm-30.207 1.812c.001 1.963-.011 3.185 0 5.085.009 1.442-.107 3.171 0 4.682.053.735-.008 1.607.453 2.014.923-.447.805-1.957.756-3.071-.125-2.849-.101-5.392-.101-8.307 0-1.462.083-3.012-.051-4.178-.04-.351.004-.896-.402-1.058-.003-.03-.008-.06-.051-.05-.895.31-.604 3.417-.604 4.883zm-5.436-4.027c-2.115-.028-4.853-.176-6.746 0-.549.051-1.174-.018-1.209.654.521.316 1.311.276 2.064.302 1.774.061 3.591.145 5.438.05.832-.042 2.04.092 2.215-.755-.431-.412-1.131-.242-1.762-.251zm34.132 3.725c-.299-.533.111-1.804-.503-1.913-.799-.142-.688 1.258-.705 2.215-.025 1.402-.018 3.072-.05 4.279.152.292.266.622.604.604.698-.037.407-1.346.705-1.913.228.629-.077 1.791.604 1.862.495.052.662-.615.704-1.007.112-1.034.009-2.396-.05-3.726-.063-1.44.216-3.083-.353-3.775-1.234.209-.473 2.413-.956 3.374zm-29.047-.705c-.079-1.057.26-2.801-.705-2.316-.423.358-.299.97-.302 1.611-.004.725-.162 1.554-.101 2.366.135 1.775.256 3.741.15 5.437-.023.389-.152.793-.15 1.158.005 1.123.168 1.939.101 3.474-.03.678-.007 2.368.503 2.417.819.077.654-2.523.654-3.323 0-1.4-.081-2.704-.101-3.927-.027-1.718.03-3.172-.05-4.732.196-.386.07-1.225.001-2.165zm-6.041-1.56c-1.812-.033-4.231-.16-6.042-.151-.852.004-2.061-.097-2.315.704.249.44.787.246 1.208.252.881.012 1.902.062 2.971.101.966.035 2.048.015 3.02 0 .876-.013 2.236.226 2.417-.705-.31-.424-.782-.193-1.259-.201zm3.724 14.247c.045.685-.171 2.748.353 2.87.311.072.47-.307.554-.604.235-.83.264-2.495.201-3.272-.094-1.185-.074-2.307-.1-3.575-.039-1.914-.17-3.899-.101-5.789.014-.367.146-.988.101-1.611-.05-.685-.049-2.091-.756-1.611-.207.096-.221.383-.353.554.033 4.252-.145 9.282.101 13.038zm-5.285-12.888c-.573-.027-1.182.065-1.763.05-1.776-.044-3.675-.179-5.236-.101-.508.025-1.171.095-1.208.705.67.435 1.713.252 2.669.252 2.036 0 4.12.315 6.041.05.373-.052.938-.221.956-.655-.337-.382-.976-.278-1.459-.301zm33.981 4.883c.048.56.196 1.224.605 1.208.634-.024.555-1.062.554-1.561-.004-1.247.314-3.441-.353-4.128-.033 0-.067 0-.101 0-.875.331-.815 3.172-.705 4.481zm-29.047 10.17c.089-2.847-.166-5.801-.151-8.458.009-1.68.194-3.467.101-4.883 0 .004-.188-1.583-.755-1.006-.571.831-.353 2.979-.353 4.531 0 1.433-.123 2.874-.051 4.078.036.603-.006 1.109 0 1.661.02 1.748.183 3.209.201 4.984.004.38-.123.974.353 1.158.805-.141.63-1.302.655-2.065zm-5.489-13.643c-1.751-.122-4.343.127-6.293-.05-.017-.001-.034 0-.05 0-.925.012-2.4-.158-2.669.705.407.377 1.142.277 1.812.302 1.801.067 3.439 0 5.286 0 .98 0 2.378.304 2.618-.655-.168-.253-.462-.286-.704-.302zm33.127 2.316c-.068.946-.088 2.392.604 2.366.423-.016.582-.716.604-1.309.032-.886.189-3.356-.705-2.819-.34.251-.448.988-.503 1.762zm-30.256 2.366c-.068 1.435.101 2.89.101 4.279 0 2.26.026 4.167.051 6.444.004.423-.057 1.725.452 1.762.502.036.551-.893.554-1.309.009-1.017.127-2.577.051-3.574-.099-1.296.015-2.735 0-4.33-.019-1.913-.112-3.238-.101-5.337.004-.819.121-2.41-.705-1.913-.514 1.045-.336 2.564-.403 3.978zm-5.136-3.172c-1.748-.077-3.389-.171-4.934-.151-1.113.014-2.814-.188-3.273.705.445.457 1.263.271 1.964.302 1.564.069 2.948.037 4.48.05 1.278.011 2.898.313 3.273-.705-.378-.361-.983-.178-1.51-.201zm34.435 3.172c.979.191.685-1.55.705-2.417-.962-1.571-1.486 2.265-.705 2.417zm-30.609 1.762c0 3.733.02 7.031.151 10.321.023.58-.164 1.688.353 1.762.71.101.654-1.794.654-2.769-.001-3.994-.035-8.115-.201-11.227-.05-.935.285-2.614-.453-2.467-.779.155-.504 3.161-.504 4.38zm-5.588-3.575c-2.03 0-4.878-.213-6.645 0-.448.054-1.272.152-1.158.654.097.421 1.059.265 1.511.252 2.364-.067 4.905.113 7.35.05.306-.181.788-.185.805-.655-.416-.451-1.174-.301-1.863-.301zm34.889 1.813c.645.051.772-1.469.05-1.259-.389.113-.659 1.211-.05 1.259zm-30.307-1.108c-.255.094-.416.766-.453 1.259-.103 1.333-.077 3.199 0 4.43.174 2.805.14 5.517.201 8.256.019.845-.253 1.965.402 2.366.876-.172.475-1.991.554-3.121.064-.909.053-1.753.051-2.769-.006-2.632-.151-5.301-.151-8.105 0-.869.087-2.484-.453-2.417-.06.025-.115.054-.151.101zm-5.488.755c-1.863-.006-4.588-.122-6.142-.05-.492.022-2.057-.053-1.964.554.057.369.739.276 1.31.251 2.381-.1 4.175-.05 6.393-.05.677 0 1.607.137 1.662-.503-.302-.407-.771-.2-1.259-.202zm3.675 3.675c0 4.344.065 8.382.201 12.032.008.181-.089 1.271.403 1.309.721.057.554-1.737.554-2.87 0-4.247-.151-7.869-.151-11.881.001-.836.11-1.819-.553-1.611-.677.213-.454 2.033-.454 3.021zm40.074 1.058c-.053 1.131.003 2.329 0 3.222-.006 2.656-.056 5.818.051 8.659.009.235-.109 1.379.302 1.46.704.139.654-.997.654-1.561-.001-4.382.001-8.359 0-12.838 0-1.009.116-2.361-.604-1.913-.436.358-.356 1.971-.403 2.971zm-41.081-2.568c-.24.718-.101 2.131-.101 3.373 0 3.459.101 6.912.101 10.673 0 .649-.128 1.874.353 1.913.565.046.464-1.27.453-1.662-.124-4.487-.045-8.901-.252-13.039-.033-.669.135-1.461-.402-1.41-.073.029-.124.08-.152.152zm34.083.403c-1.121 0-2.284-.013-3.322 0-.133.002-.737-.016-1.007.05-.543.134-1.349 1.238-1.863 1.762-1.832 1.87-3.734 3.786-5.437 5.487-4.882 4.882-9.663 9.864-14.449 14.65-2.465 2.465-4.899 4.88-7.3 7.3-.639.605-1.217 1.532-2.165 1.662-.465-.379-.302-1.089-.302-1.611-.001-8.378-.1-16.958-.101-25.072 0-1.275.116-2.554-.151-3.776-1.169-.483-3.189-.201-4.732-.201-.668 0-1.577 0-2.517 0-.78 0-1.981-.104-2.316.201-.336.309-.252 1.495-.252 2.316.001 1.051-.003 1.847 0 2.517.047 8.456.101 16.942.102 25.524 0 1.72.076 3.465.05 5.135-.026 1.649-.261 3.394.202 4.833 1.133.388 2.6.151 4.128.151 1.502 0 3.207.211 4.48-.05.717-.146 1.509-1.157 2.114-1.762 1.35-1.35 2.474-2.539 3.776-3.775.681-.646 1.238-1.374 1.862-1.963 2.605-2.464 5.13-5.129 7.602-7.602 5.205-5.206 10.116-10.258 15.054-15.305 2.628-2.423 5.021-5.08 7.602-7.552.439-.372.805-.849 1.208-1.309.377-.43 1.032-.793 1.007-1.461-.964-.266-2.121-.149-3.273-.149zm6.797 4.279c.015-.637-.141-1.61-.201-2.316-.057-.652.052-1.745-.604-1.309-.6.583-.357 2.932-.353 4.128.013 3.571-.05 6.248-.05 9.817-.001.826-.107 1.727.302 2.366 1.117-.236.72-1.737.755-2.769.071-2.058.237-4.608.051-6.495.128-.852.078-2.485.1-3.422zm-2.568 2.316c.048 1.284-.125 2.963-.1 4.128.04 1.948-.028 3.854.05 5.94.022.593-.137 1.703.453 1.712.557.008.575-.954.604-1.359.047-.664.059-1.18.05-1.813-.041-2.902.103-5.161 0-8.105-.053-1.528.14-3.031 0-4.33-.04-.377-.164-.88-.402-.806-1.08.033-.694 3.612-.655 4.633zm-1.46 2.014c0 1.794.078 4.208.05 5.437-.029 1.284-.104 3.072 0 4.431.034.433-.03 1.135.353 1.208.916.174.72-3.013.756-3.675.072-1.342-.051-2.676-.051-4.33 0-2.048 0-4.284 0-6.545 0-.923.071-2.149-.654-1.711-.676.68-.454 3.571-.454 5.185zm-1.46-1.208c-.014 1.271.1 2.559.101 3.977 0 2.655-.083 5.753.051 8.559.018.385-.142.921.251 1.158 1.123-.403.625-2.021.705-3.071.255-3.356.05-7.354.05-10.774 0-.888.226-1.982-.351-2.517-.801.025-.798 1.803-.807 2.668zm-.856-1.158c-.407.326-.485 1.179-.503 1.862-.045 1.695.156 3.456.101 5.236-.012.358-.146.701-.151 1.057-.006.345.065.655.051 1.007-.069 1.63.211 3.288-.151 4.531-.24-1.405-.082-3.155-.151-4.582-.011-.229.094-.815.102-1.107.006-.271-.085-.59-.102-.957-.051-1.17.053-2.72.051-3.675-.002-.693.047-1.904-.402-1.963-.49-.064-.594.587-.655 1.108-.208 1.776.06 3.6-.05 5.387-.107 1.728.085 3.705 0 5.638-.068 1.556-.271 3.162.302 4.128 1.294-.344.509-2.639.956-3.726.482.525-.2 1.936.453 2.316.978-.29.756-1.642.756-2.668 0-1.123-.081-2.444 0-3.474.079-1.005-.041-2.162-.05-3.222-.012-1.332.237-2.881.15-4.178-.06-.889.201-2.542-.554-2.819-.061.024-.116.053-.153.101zm-2.82 2.92c-.518.353-.447 1.199-.453 2.114-.018 3.073.009 6.327 0 9.062-.003 1.15-.087 2.234-.05 3.323.014.416.052 1.599.402 1.662.682.122.682-1.112.705-1.46.218-3.309.135-7.188 0-10.773-.037-.998.327-3.88-.403-4.028-.016-.003-.033.002-.05 0-.059.023-.113.052-.151.1zm-1.913 3.976c-.115 1.971 0 3.978 0 6.243 0 1.373.111 2.768.1 4.128-.005.715-.298 3.071.303 3.172.861.144.731-2.074.755-2.92.04-1.423 0-2.689-.051-3.776-.146-3.166.031-5.253 0-7.552-.01-.749.126-2.042-.503-1.913-.65.135-.56 1.876-.604 2.618zm-1.359 2.165c-.105 1.483.186 3.205.051 4.984-.125 1.645-.062 3.679-.101 5.085-.022.836-.129 2.771.503 2.769.615-.002.631-1.366.655-1.964.165-4.134-.05-6.948-.051-11.176 0-.963.254-3.094-.453-3.122-.875.375-.5 1.99-.604 3.424zm-.353 11.429c.067-.84-.012-1.626 0-2.266.006-.268.142-.608.151-.957.058-2.071-.215-3.892-.101-6.343.028-.604.078-1.286 0-2.115-.048-.516-.021-2.193-.705-1.611-.462.202-.402 1.502-.402 2.417 0 4.27-.124 8.572.101 12.284.029.488-.146 1.045.201 1.359 1.102-.106.669-1.672.755-2.768zm-2.466-8.206c.006 1.455.051 2.383.051 4.128 0 2.47-.204 5.059 0 7.501.045.538.174.728.353.755.624.096.641-1.139.654-1.561.133-4.254.001-8.153 0-12.284 0-.85.21-1.913-.302-2.316-.9-.134-.76 2.633-.756 3.777zm-.856-2.367c-.489.174-.621 1.98-.604 2.567.088 2.979.063 7.903.15 10.824.021.719-.375 2.691.302 2.769.655.075.573-1.017.605-1.511.043-.675.101-1.459.101-2.064.001-3.631.164-7.25 0-10.773-.029-.643.11-1.436-.353-1.812-.092-.05-.087-.04-.201 0zm27.086.252c-2.13 0-4.356.059-6.344.05-.702-.002-1.643-.351-1.964.403.619.333 1.489.261 2.366.302 1.809.087 3.578 0 5.387 0 .779 0 1.989.265 2.165-.554-.378-.345-1.056-.201-1.61-.201zm-44.555 3.323c.832.121.923-3.282-.051-2.87-.502.213-.519 2.788.051 2.87zm1.36-1.41c.765.11.724-1.741 0-1.46-.351.136-.517 1.386 0 1.46zm-7.099-1.41c-.417.844-.262 2.217-.252 3.373.007.84.05 1.76.05 2.618 0 .851-.158 1.793.302 2.366.644-.023.647-.729.655-1.309.024-1.604.062-2.828.051-4.279-.008-.903.048-2.334-.504-2.819-.154-.037-.148.087-.302.05zm2.215 4.834c-.016-.947-.06-1.937-.101-2.971-.029-.728.085-1.913-.504-1.913-.611 0-.453 1.174-.453 1.762v1.863c0 1.414-.077 2.85.353 3.373.763-.094.719-1.277.705-2.114zm.402-.453c.002.489-.152 1.188.352 1.208.652.026.623-1.737.605-2.467-.027-1.073.128-3.513-.755-3.071-.164.038-.153.25-.252.353-.052 1.21.046 2.808.05 3.977zm1.511-4.28c-.312.553-.193 1.878-.151 2.869.021.512-.119 1.1.302 1.259.705.003.604-.982.604-2.014 0-.937.214-2.397-.604-2.266-.073.029-.124.08-.151.152zm-5.487.101c-.175.394-.102 1.593-.102 2.366v4.883c0 .653-.156 2.078.403 2.064.528-.013.504-2.157.503-3.021-.002-1.454-.148-2.871-.201-4.078-.042-.951.25-2.434-.453-2.366-.072.029-.123.08-.15.152zm23.712 15.002c.073-1.122-.041-2.59 0-3.876.057-1.807.041-3.472 0-5.236-.027-1.176-.079-2.369-.051-3.423.018-.629.304-2.214-.603-1.913-.475.299-.455 2.256-.453 3.121.005 2.413.045 5.398.05 7.854.002.885-.024 1.805 0 2.669.024.882-.152 1.865.353 2.467.691-.154.663-1.037.704-1.663zm26.582-14.448c-2.076.005-4.064-.05-6.344-.05-.85 0-1.961-.216-2.114.604.514.353 1.262.302 1.963.302 2.245 0 4.719.145 6.645.101.588-.013 1.417-.062 1.611-.654-.384-.543-1.101-.305-1.761-.303zm-29.049 5.185c-.001 3.511.051 7.053.05 10.421 0 .583-.166 1.768.302 1.863.855.173.625-1.483.655-2.115.046-.971.05-2.052.05-2.719 0-3.191.032-6.191 0-9.263-.008-.782.054-1.631-.353-2.114-.033 0-.066 0-.101 0-.824.291-.603 2.623-.603 3.927zm26.078-3.826c-1.75 0-3.964-.146-5.639-.101-.535.014-1.15.105-1.259.654.428.463 1.183.25 1.863.252 1.927.004 3.863.151 5.89.151 1.025 0 2.294.217 2.568-.655-.867-.593-2.173-.301-3.423-.301zm-.554 1.41c-.583-.043-.894.007-1.46 0-1.607-.02-3.865-.283-5.337-.101-.369.046-.903.18-.906.655.58.458 1.448.218 2.215.251.786.035 1.597.051 2.417.051 1.643 0 3.347.23 4.732.05.4-.052.775-.187.906-.604-.471-.546-1.69-.238-2.567-.302zm-25.876 14.247c-.001-2.532.042-5.298.05-7.703.005-1.541-.05-2.545-.05-4.33 0-.798.197-2.699-.655-2.164-.431.386-.355 1.935-.352 2.87.004 1.116.069 2.169 0 3.071-.055.71.041 1.22.05 1.913.019 1.354-.154 2.721-.15 4.028.002.911.182 1.798.15 2.567-.024.6-.359 1.302.302 1.661.749-.215.655-1.148.655-1.913zm24.819-12.888c-1.585-.055-3.173-.05-4.682-.05-1.371 0-2.946-.385-3.373.554.453.524 1.235.272 1.913.302 1.447.063 3.146.149 4.631.151.91.002 1.825.044 2.568 0 .452-.026 1.071-.119 1.107-.705-.554-.456-1.403-.226-2.164-.252zm-26.129 13.794c-.019-.923.031-2.167 0-3.222-.076-2.633.075-5.376-.05-8.005-.037-.786.181-2.871-.654-2.517-.478.38-.403 2.134-.403 3.071 0 3.824-.039 7.244 0 11.025.008.701-.116 1.533.352 2.014.76-.119.773-1.518.755-2.366zm24.82-12.485c-.776 0-1.622 0-2.467 0-1.733 0-3.596-.155-4.884 0-.366.044-.738.181-.806.604.515.392 1.354.302 2.114.302.748 0 1.559.05 2.367.05 1.66 0 3.452.156 4.782.05.447-.036.97-.151 1.007-.705-.514-.357-1.318-.301-2.113-.301zm-26.834.252c-.172.576-.101 1.879-.101 2.769.001 4.001-.068 7.846 0 11.328.009.413-.095 1.002.353 1.209.377-.291.233-.932.252-1.46.132-3.837.001-8.426 0-12.234 0-.637.061-1.74-.353-1.712-.059.023-.114.052-.151.1zm25.877 1.157c-1.93 0-4.061 0-5.84 0-.966 0-2.337-.342-2.718.554.35.448.974.279 1.51.302 2.174.095 4.919.17 7.048.151.62-.005 1.555-.039 1.712-.705-.368-.478-1.115-.302-1.712-.302zm-2.467 1.36c-1.31-.06-2.705-.088-3.876-.05-1.127.036-3.452-.239-3.625.705.574.331 1.42.27 2.165.302 1.979.087 4.458 0 6.544 0 .609 0 1.49.081 1.56-.655-.709-.413-1.778-.257-2.768-.302zm-.704 1.409c-2.237 0-5.24-.218-7.25 0-.396.043-.831.138-.957.554.351.539 1.229.409 1.913.403 1.243-.011 2.718-.053 4.028-.05.725.001 1.651.139 2.467.101.727-.034 1.716.047 1.862-.705-.515-.397-1.311-.303-2.063-.303zm-.906 1.41c-.624 0-1.295-.051-1.863-.05-1.722.002-4.425-.141-5.891.05-.385.05-.854.209-.906.654.42.373 1.274.305 1.913.302 1.83-.009 3.765-.011 5.538 0 1.044.007 2.42.256 2.819-.654-.308-.4-1.003-.302-1.61-.302zm-2.216 1.359c-2.128.006-4.428-.106-6.242 0-.414.024-1.677.075-1.611.604.05.406 1.006.353 1.712.353 2.111 0 4.343.055 6.142.05.873-.002 2.37.118 2.467-.705-.529-.376-1.768-.304-2.468-.302zm-7.853 2.316c1.316.002 2.803.05 4.531.05.743 0 1.796.12 2.769.05.536-.039 1.667-.141 1.561-.705-.08-.426-1.333-.302-2.063-.302-2.334 0-5.178-.22-7.199 0-.464.05-.957.196-1.008.654.199.428.923.252 1.409.253zm5.688.453c-1.77-.098-3.988.009-5.739 0-.769-.004-2.6-.096-2.718.705.382.359 1.075.292 1.661.302 1.701.029 3.737.062 5.487.05 1.054-.007 2.872.197 3.071-.705-.432-.347-1.12-.316-1.762-.352zm-2.215 1.41c-1.875.006-3.47.106-5.337.101-.85-.003-2.013-.269-2.265.604.888.476 2.223.293 3.523.353 1.306.059 2.688-.042 3.877-.05 1.038-.007 2.445.298 2.819-.655-.553-.443-1.647-.356-2.617-.353zm-.151 1.51c-1.262-.053-2.826-.173-4.178-.101-.952.051-2.117-.009-3.172.051-.612.035-1.499.015-1.511.705.324.329.922.201 1.46.201 1.851.001 3.567.05 5.487.05 1.249 0 2.961.337 3.272-.654-.32-.412-.863-.231-1.358-.252zm-2.014 1.309c-2.235.014-5.035-.161-7.098.05-.557.057-1.051.018-1.108.655.466.353 1.224.309 1.913.302 1.234-.012 2.685-.041 4.078.05.725.047 1.491.047 2.114 0 .76-.058 1.906.092 2.114-.755-.505-.379-1.286-.306-2.013-.302zm-.351 1.41c-1.897-.076-4.61-.099-6.696 0-.878.042-2.313-.209-2.567.654.383.416.985.25 1.561.252 1.426.004 3.141.157 4.581.101.271-.01.504-.102.755-.101 1.006.005 3.078.411 3.323-.604-.244-.232-.605-.288-.957-.302zm-1.864 1.46c-.392-.028-.768-.128-1.158-.101-2.168.152-4.518-.007-6.545.151-.383.03-1.042-.06-1.006.554 1.075.383 2.517.255 3.926.252 1.321-.003 2.643.036 3.826.05.829.01 2.25.07 2.367-.704-.309-.365-.91-.167-1.41-.202z"/><path d="m33.781 10.733c.302 1.354.219 3.372.101 4.984-.391-1.297-.189-3.667-.101-4.984z"/><path d="m36.5 11.035c.059-.008.089.011.101.051.209 1.221.14 2.806.05 4.027-.234-1.203-.279-2.802-.151-4.078z"/><path d="m32.371 13.754c.059-.008.09.011.101.05.194 1.121.213 2.675 0 3.776-.368-1.063-.09-2.598-.101-3.826z"/><path d="m33.831 15.969c.33 1.17.228 2.993.102 4.33-.341-1.201-.325-3.033-.102-4.33z"/><path d="m32.422 18.335c.35.423.202 1.495.05 2.014-.127-.569-.201-1.468-.05-2.014z"/><path d="m53.062 22.313c.214.53.173 1.564.051 2.215-.25-.578-.14-1.607-.051-2.215z"/></g></svg>