<svg enable-background="new 0 0 81.121 30.345" viewBox="0 0 81.121 30.345" xmlns="http://www.w3.org/2000/svg"><g clip-rule="evenodd" fill-rule="evenodd"><path d="m11.835.172c.322 6.361-.036 12.951.244 19.367.514-.138.647-.735.878-1.122 1.664-2.78 3.375-5.774 5.122-8.586 2.023-3.254 3.821-6.641 5.952-9.757 4.229-.049 8.926-.146 13.074.049-.49 1.392-1.414 2.565-2.098 3.854-3.374 6.362-7.171 12.569-10.732 18.83-1.071 1.883-2.129 3.759-3.22 5.659-.348.606-.669 1.256-1.171 1.756-6.232.165-13.265.115-19.757-.049-.204-9.333-.097-18.845-.098-28.439 0-.548-.14-1.212.195-1.708h.292c1.549-.043 3.669 0 5.659 0 1.941 0 3.916-.117 5.66.146z"/><path d="m56.033.172c-.3.984-.898 1.864-1.415 2.732-1.033 1.736-1.981 3.488-3.024 5.269-.507.864-1.129 1.705-1.561 2.585-.225.458-.339.931-.585 1.366-1.559 2.751-3.228 5.763-4.927 8.488-1.982 3.179-3.691 6.511-5.757 9.61-2.278.089-4.721.049-7.122.049-2.404 0-4.78.102-6.927-.098.527-1.372 1.386-2.576 2.097-3.854 2.105-3.78 4.343-7.533 6.537-11.27 2.935-4.996 5.74-10.051 8.781-14.976 4.633-.054 9.461-.144 13.903.099z"/><path d="m80.962.172c.162 4.688.22 9.797 0 14.392.248 2.912.127 6.176.146 9.366.013 2.14.01 4.301-.146 6.293-3.726.162-8.129.163-11.855 0-.22-.721-.098-1.516-.097-2.292 0-5.581.002-11.517-.098-17.075-.545.03-.668.662-.878 1.024-.685 1.186-1.505 2.417-2.244 3.659-.973 1.636-1.916 3.312-2.927 4.927-2.038 3.256-3.814 6.715-5.952 9.806-4.217.03-8.994.192-12.928-.098.303-1.037.982-1.923 1.512-2.878 1.271-2.292 2.637-4.635 3.952-6.927.266-.465.437-.969.683-1.464.393-.789.97-1.545 1.415-2.342 2.685-4.815 5.385-9.418 8.147-14.294.369-.65 1.049-2.264 1.708-2.244 5.481.166 12.303-.007 18.001.049.529.006 1.06-.147 1.561.098z"/></g></svg>