<svg enable-background="new 0 0 87.457 39.39" viewBox="0 0 87.457 39.39" xmlns="http://www.w3.org/2000/svg"><path clip-rule="evenodd" d="m24.685 29.603c.459-.285.628-.871.819-1.33 2.666-6.418 5.411-13.043 7.835-19.871.386-1.084.861-2.188.974-3.277.293-2.844-1.247-4.006-3.636-4.199-.572-.047-1.557.211-1.69-.41.041-.541.69-.357.974-.359 2.857-.014 5.82.115 8.705.205 3.333.105 6.78.051 10.192.053 6.899 0 13.866.107 20.434-.205 3.513-.168 7.1-.256 9.628.717 2.565.986 4.667 2.426 5.531 4.916 1.113 3.207.093 6.182-1.588 7.937-1.734 1.812-4.045 2.842-6.709 3.688.659.391 1.409.389 2.1.512 4.677.834 8.766 3.602 9.167 8.809.248 3.219-.826 5.535-2.355 7.426-2.539 3.141-6.697 4.617-12.394 4.354-6.064-.281-12.453-.432-19.051-.152-.496.019-1.305.168-1.383-.256-.127-.686 1.323-.559 1.895-.666 2.139-.406 3.604-1.621 4.251-3.432.431-1.207.503-2.775.563-4.457.14-3.916.329-7.228 0-11.164-1.366-.478-3.286-.074-5.019-.102-.38.535-.245 1.24-.204 1.844.318 4.76.034 9.703-1.588 12.906-1.76 3.473-5.192 6.426-10.55 6.299-4.938-.117-8.476-3.229-9.68-7.17-1.569-5.139 1.292-9.631 4.609-11.369 1.544-.809 3.659-1.184 5.992-.973.021-.348-.443-.481-.717-.666-.297-.203-.565-.445-.819-.615-1.595-1.363-2.7-3.246-2.51-6.146.185-2.814 2.012-4.736 3.943-5.734 1.88-1.295 5.868-1.123 7.682.102.541.449 1.072.908 1.536 1.436 1.603 2.328.8 5.338-1.126 6.555-1.375.867-3.83 1.049-4.661-.359-.857-1.453.12-3.525 1.998-3.328 1.037.108 1.736 1.002 1.741 1.844.004.699-.517.928-.563 1.484 2.445-.506 3.333-3.193 2.202-5.172-.804-1.406-2.664-2.354-5.121-1.69-3.606.971-5.792 6.547-3.482 10.447.302.51 1.342 1.982 2.253 1.945.475-.019.944-.685 1.23-.922 1.251-1.041 2.429-1.469 4.711-1.639 1.847-.137 3.949-.053 6.095-.051.755 0 1.695.035 1.946-.154.377-.285.166-1.557.153-2.201-.05-2.51-.017-4.484-.205-6.812-.257-3.174-1.194-5.269-3.533-6.144-1.941-.727-4.74-.865-7.426-.975-1.324-.053-2.735.102-3.995.205-3.184.262-5.066 1.049-6.657 2.971-3.007 5.144-5.347 10.902-7.682 16.691-1.167 2.892-2.377 5.812-3.432 8.758-.802 2.238-1.676 4.445-2.51 6.658-.265.703-.421 1.502-.922 2.1-.233.117-.787.154-1.075.051-.58-.562-.846-1.406-1.127-2.15-3.203-8.502-6.788-16.98-10.396-25.146-1.312-2.972-2.396-6.058-4.301-8.605-1.144-1.023-2.344-1.453-4.251-1.74-.61-.092-1.519-.027-1.485-.514.026-.385.587-.367.922-.357 2.693.08 6.457.256 10.089.256 2.405 0 5.04.055 7.682-.051.334-.014.532-.066 1.229-.053.325.008.897-.08.922.359.029.535-.817.393-1.536.41-1.804.043-3.894.184-4.353 1.537-.382 1.123.25 2.785.563 3.891.357 1.264.796 2.402 1.178 3.432.849 2.287 1.756 4.436 2.612 6.658.877 2.277 1.777 4.457 2.662 6.606.909 2.205 1.531 4.517 2.714 6.554zm53.415-15.976c.734-1.15 1.094-2.748 1.126-4.609.024-1.287-.048-2.666-.307-3.637-.797-2.984-3.709-4.611-7.733-4.353-2.065.133-3.772.76-4.558 2.1-.463.791-.591 1.926-.717 3.021-.268 2.328-.271 4.865-.308 7.273-.019 1.231-.108 2.467.153 3.635 5.471.576 10.267-.178 12.344-3.43zm-32.11 6.605c-.966 1.174-2.202 3.143-1.946 5.377.156 1.367.929 2.658 2.1 2.971-.015-.453-.478-.887-.513-1.535-.029-.586.171-1.039.41-1.486.567-.711 2.066-.846 2.868-.256.605.518 1.038 1.539.717 2.561-.405 1.287-1.56 1.959-2.867 1.844-1.939-.17-3.396-2.135-3.586-4.098-.13-1.34.128-2.443.461-3.328.159-.42.574-.787.461-1.332-.86-.324-1.8-.295-2.561-.152-3.247.6-4.883 3.354-5.121 6.912-.032.48-.035.975 0 1.436.093 1.207.559 2.711.974 3.635.969 2.158 3.582 3.775 6.35 3.943 2.481.15 4.721-.74 6.146-2.15 2.562-2.533 3.287-7.068 3.023-12.24-.07-1.354.011-2.785-.513-3.994-2.736-.377-5.023.572-6.403 1.892zm19.564 7.016c-.097 2.609-.048 6.394.922 8.143 1.669 3.012 7.229 2.689 10.242.922.886-.518 1.934-1.352 2.458-2.15 1.795-2.736 2.382-8.027.87-11.369-.265-.586-.692-1.273-1.075-1.74-2.307-2.812-8.254-3.148-13.264-2.664-.364 2.953-.046 5.932-.153 8.858z" fill-rule="evenodd"/></svg>