<svg enable-background="new 0 0 33.436 79.716" viewBox="0 0 33.436 79.716" xmlns="http://www.w3.org/2000/svg"><path clip-rule="evenodd" d="m16.151.173c.345 6.498.024 14.304.147 20.534.165.146.655.122.887.049.208-6.549-.161-13.9.197-20.583 2.636-.213 5.396-.055 8.124-.098 2.632-.043 5.426-.189 7.929.098-.469 1.002-1.243 1.807-1.921 2.659-1.349 1.697-2.564 3.432-3.94 5.17-2.98 3.766-6.019 7.581-9.06 11.375-.34.424-.761.803-.936 1.33.594.363 1.311.253 1.921.345 1.779.266 3.605.933 5.022 1.723 1.872 1.044 3.677 2.441 4.875 4.087.428.587.782 1.342 1.182 2.019 1.13 1.917 2.106 4.436 2.019 7.288-1.166.267-2.578.147-3.938.148-3.414 0-6.62.049-10.144.049-.677 0-1.523.012-1.182.739.224.476 3.047.247 3.792.246 2.693-.001 5.342-.023 7.73-.049 1.226-.013 2.556-.066 3.742.148.087 2.922-.888 5.395-2.019 7.436-1.149 2.075-2.673 3.825-4.53 5.121-.6.468-1.306.809-2.019 1.182-.694.363-1.469.656-2.068 1.132 1.868.312 3.95-.046 5.811.197.196 2.126.098 4.366.099 6.647 0 6.687.081 13.785-.099 20.337-3.389.105-7.131.324-10.883.147-3.685-.173-7.483.211-11.03-.098-.262-4.304-.148-8.948-.148-13.542 0-4.566-.108-9.21.148-13.393 1.644-.391 4.135.063 5.86-.246-.097-.36-.603-.459-.936-.591-1.059-.42-2.22-.993-3.053-1.674-1.936-1.191-3.411-2.885-4.629-4.875-1.17-1.911-2.129-4.378-2.315-7.14-.356-5.306 1.707-9.325 4.235-12.064 2.24-2.428 5.267-4.349 9.257-4.973.544-.085 1.137-.075 1.674-.345-.47-1-1.286-1.771-1.97-2.61-2.029-2.492-4.025-5.093-6.057-7.632-2.351-2.943-4.723-5.887-7.038-8.914-.328-.429-.805-.804-.887-1.379 4.77-.348 10.225.127 15.068-.098.325-.015.798-.144 1.083.098z" fill-rule="evenodd"/></svg>