<svg fill="none" viewBox="0 0 130 111" xmlns="http://www.w3.org/2000/svg"><path clip-rule="evenodd" d="m71.4446.186659c-.144.242159-3.412 10.407841-3.412 10.613241 0 .0861 4.6825.1271 10.4058.0913l10.4056-.065 1.6918-5.22642c.9305-2.87456 1.6937-5.310334 1.696-5.413121.0025-.1027868-4.6486-.186659-10.336-.186659-5.6873 0-10.3903.0838722-10.4512.186659zm24.5345-.055247c0 .072424-.786 2.604758-1.7466 5.627898-.9607 3.02288-1.7467 5.58339-1.7467 5.68939 0 .1063.391.2663.8688.3559 1.4305.2675 5.1322 2.2595 6.8834 3.7043 2.035 1.6774 3.756 3.9198 5.003 6.5169 1.239 2.5821 1.714 4.4288 1.89 7.3511.339 5.6197-1.885 11.0171-6.199 15.048-2.2106 2.0657-4.0446 3.1988-6.6886 4.1319-2.6279.9275-5.0099 1.219-9.9639 1.219h-4.1777l-3.0619 9.5196c-1.684 5.2359-3.4355 10.6956-3.8921 12.1329-.4566 1.4372-2.7415 8.5489-5.0775 15.8038-5.8555 18.1849-7.5234 23.4199-7.5234 23.6099 0 .09 4.6806.134 10.4014.099l10.4016-.065 2.7193-8.462c1.4958-4.6544 3.0938-9.6382 3.5514-11.0754 1.193-3.7479 4.4565-13.9111 7.1124-22.1503 1.2576-3.9011 3.1799-9.865 4.2721-13.2528l1.9859-6.1597h10.344c5.69 0 10.345-.0667 10.345-.1483 0-.1904-.266-.57-10.285-14.6936l-3.379-4.7621 7.132-6.1886c3.922-3.4037 8.868-7.7003 10.992-9.5482l3.86-3.3599-8.256-.1244-8.255-.1245 1.72-5.35086c.946-2.943 1.723-5.3790239 1.725-5.4131203.003-.0340964-4.711-.0622197-10.475-.0622197s-10.4799.059237-10.4799.131412zm-95.97600494 11.192088c.07884904.2051 1.50312494 4.601 3.16494494 9.7685 4.92532 15.3162 12.90356 40.1464 18.37286 57.1804 7.4939 23.3416 9.0392 28.1586 9.7199 30.3006.3371 1.061.6921 1.928.7892 1.926.0968-.002 1.2391-3.334 2.5384-7.404 1.2993-4.0708 2.8505-8.913 3.4471-10.7609 3.0559-9.4654 13.4628-41.8303 14.2844-44.4249.5203-1.6426 3.3703-10.5266 6.3332-19.7423 2.963-9.2158 5.3872-16.8593 5.3872-16.986 0-.1399-12.5989-.2302-32.0904-.2302-28.40458 0-32.073812.0428-31.94680494.3728zm84.37000494 8.2879c-2.6988.9308-5.4139 3.1884-6.5827 5.4739-2.2546 4.4078-1.442 9.5631 2.0653 13.1039 5.525 5.5777 14.5404 4.0478 18.0652-3.0657.9088-1.8342.9277-1.931.9277-4.7473 0-2.5-.0788-3.0538-.6046-4.2439-1.9717-4.4639-5.7422-6.9617-10.4991-6.9552-1.3579.0018-2.5709.1581-3.3718.4343zm-29.9786 33.4623c-.5704 1.8136-2.5157 7.8892-4.3227 13.5014-1.8071 5.6122-4.074 12.6679-5.0374 15.6794-.9634 3.0114-3.3556 10.4591-5.3158 16.5504-1.9603 6.0911-3.6416 11.3271-3.7361 11.6351l-.1719.56h10.4619 10.462l.381-1.307c.2094-.718 2.761-8.698 5.6699-17.7322 2.909-9.0343 5.6632-17.602 6.1205-19.0393.4572-1.4372 2.2577-7.037 4.0009-12.4439 1.7434-5.4069 3.2258-10.0269 3.2942-10.2663.1168-.4099-.4923-.4355-10.3225-.4353l-10.4468.0003z" fill="#000" fill-rule="evenodd"/></svg>