<svg enable-background="new 0 0 59.574 34.413" viewBox="0 0 59.574 34.413" xmlns="http://www.w3.org/2000/svg"><path d="m13.057.018c4.102-.178 8.322.969 11.587 3.507 2.341 2.131 4.076 4.881 5.106 7.868 1.074-3.038 2.867-5.841 5.283-7.99 3.372-2.572 7.748-3.54 11.929-3.288 3.817.017 7.635.012 11.452.027.676-.023 1.275.648 1.141 1.318-.06.534-.56.94-1.087.948-.766.062-1.337.663-1.717 1.282-1.846 2.827-.594 6.396-1.893 9.387-1.02 2.691-3.611 4.475-6.342 5.113 3.477 3.245 3.97 9.055 1.141 12.868-1.653 2.507-4.842 3.484-7.716 3.342-2.441-.209-4.926-1.132-6.569-3.019-1.545-1.818-2.189-4.291-2.022-6.647.118-.852.944-1.586 1.821-1.484 1.065.023 1.931 1.211 1.576 2.228-.107.576-.58 1.002-1.091 1.241.239 2.306 1.994 4.28 4.198 4.926 2.59.956 5.911.601 7.759-1.618 1.782-2.089 2.083-5.205 1.051-7.705-.547-1.537-1.772-2.832-3.298-3.42-1.03-.49-2.198-.473-3.306-.578-1.024-.337-.988-1.966.087-2.206 1.264-.053 2.535-.003 3.802-.017 1.999.072 4.042-.596 5.528-1.952 1.082-1.08 1.68-2.594 1.778-4.107.031-2.607.196-5.346 1.569-7.643-2.659-.014-5.317-.009-7.976-.02-2.089-.154-4.198.12-6.207.701-1.904.645-3.865 1.48-5.19 3.055-2.412 2.655-3.961 6.073-4.372 9.634-.201 1.458-.223 2.934-.213 4.406-.005.401-.177.826-.552 1.014-.688.461-1.748-.129-1.712-.957.038-2.302-.031-4.639-.648-6.869-.763-3.112-2.465-5.985-4.826-8.151-2.767-2.118-6.315-3.039-9.767-2.942-2.85-.019-5.713.063-8.556-.045-.027.018-.077.056-.103.075 1.312 2.058 1.416 4.578 1.495 6.943-.035 1.664.492 3.371 1.624 4.616 1.388 1.459 3.429 2.136 5.408 2.172 1.343.009 2.686-.019 4.028.016 1.189.155 1.213 2.093.011 2.248-1.692-.029-3.464.367-4.772 1.497-1.654 1.459-2.419 3.755-2.285 5.919.225 2.215 1.256 4.564 3.331 5.616 2.721 1.341 6.271.878 8.507-1.194.934-.912 1.531-2.14 1.704-3.43-1.167-.453-1.569-2.082-.651-2.966.74-.816 2.207-.656 2.76.291.38.481.26 1.121.267 1.688-.035 2.047-.731 4.116-2.116 5.648-2.976 3.263-8.302 3.884-12.061 1.661-2.339-1.489-3.708-4.164-3.998-6.874-.278-2.949.797-6.083 3.04-8.065-1.941-.476-3.853-1.428-5.11-3.019-1.208-1.561-1.88-3.513-1.887-5.486-.039-2.175-.109-4.533-1.431-6.372-.426-.613-1.11-.96-1.841-1.037-1.071-.292-.912-2.044.191-2.15 4.046-.036 8.094.007 12.141-.004z"/></svg>