<svg enable-background="new 0 0 74.364 82.757" viewBox="0 0 74.364 82.757" xmlns="http://www.w3.org/2000/svg"><path clip-rule="evenodd" d="m59.025 5.997c.184 3.38.102 7.475.102 11.173-.001 1.241-.129 2.547.05 3.555.145.807 2.334 1.732 2.946 2.133 2.925 1.919 5.572 4.369 7.517 7.212 2.62 3.832 4.723 8.539 4.724 14.881 0 6.537-1.332 11.794-3.353 16.303-2.026 4.522-4.939 8.088-8.228 11.376-3.289 3.289-7.298 5.734-11.986 7.669-2.262.934-4.911 1.651-7.771 2.031-2.904.386-6.156.594-9.345.254-5.786-.616-10.621-2.505-14.729-4.876-1.076-.621-2.084-1.205-3.047-1.879-.939-.656-1.771-1.451-2.642-2.234-1.7-1.529-3.267-3.215-4.774-5.028-3.433-4.346-6.08-9.169-7.566-15.338-.502-2.08-.719-4.289-.864-6.754-.575-9.792 3.052-17.431 6.958-23.464 3.931-6.07 9.371-10.812 16.252-14.271 3.27-1.644 6.772-3.292 10.514-4.723 2.695-1.032 5.598-1.934 8.431-2.997 1.014-.38 2.092-.951 2.997-1.016 1.089-.078 2.793.949 3.656 1.321 1.841.792 3.396 1.52 5.181 2.234.593.238 1.193.488 1.727.762 1.115.574 2.317.922 3.25 1.676zm-7.009-1.371c-1.438-.611-2.915-1.252-4.316-1.879-.7-.313-1.822-.924-2.591-.812-1.034.151-2.159.72-3.25 1.066-3.13.996-6.349 2.117-9.243 3.25-6.071 2.377-11.485 5.102-16.15 8.735-1.568 1.221-2.91 2.594-4.216 4.114-5.01 5.837-9.271 13.219-10.31 22.906-.555 5.165.385 10.325 1.828 14.475 2.775 7.984 7.984 14.348 14.424 18.843 1.606 1.121 3.445 2.064 5.383 2.895 1.943.833 4.074 1.638 6.247 2.082 4.606.942 10.161 1.175 14.982.102 9.102-2.027 15.483-6.586 20.468-12.748 4.628-5.721 8.443-14.727 7.212-25.496-.561-4.904-2.281-8.477-4.773-11.834-2.116-2.849-4.675-4.92-7.821-6.755-.627-.366-1.071-.696-1.778-.66-1.743.088-3.467 1.385-5.078 1.98-5.325 1.97-10.324 3.72-14.779 6.45-2.769 1.697-5.496 4.112-7.01 7.161-1.567 3.161-2.066 8.227.661 10.869 1.139 1.311 2.43 2.313 4.266 2.793 2.069.541 4.156-.106 5.79-.914 3.09-1.528 5.554-4.146 8.075-6.095.481-.453.992-.779 1.574-1.27.424-.356 1.137-1.267 1.778-1.168.92.142 1.889.685 2.793 1.168.866.463 1.89.832 2.793 1.219.95.407 1.889.819 2.794 1.168.974.375 2.022.675 2.59 1.422.092 2.525.051 5.565.051 8.228 0 .89.155 2.011-.051 2.743-.167.596-.974.998-1.422 1.371-.507.422-.958.907-1.473 1.321-1.442 1.297-3.112 2.332-4.673 3.454-.528.379-1.001.824-1.523 1.219-2.076 1.567-4.265 3.004-6.603 4.266-2.454 1.325-4.944 2.31-8.278 2.59-3.468.292-6.649-.205-9.701-.965-7.075-1.764-12.261-6.111-15.845-11.325-.731-1.063-1.287-2.292-1.88-3.556-1.159-2.467-2.095-5.221-2.59-8.329-1.113-6.989.937-13.377 3.25-17.979.32-.636.516-1.259.863-1.828 2.467-4.036 5.258-7.37 8.888-10.208 4.104-3.209 9.312-5.194 14.525-7.212 3.948-1.528 8.026-2.842 12.037-4.267.67-.237 1.391-.474 2.082-.66.64-.172 1.487-.184 1.931-.812-.379-.632-1.218-.815-1.931-1.118zm4.267 2.336c-1.873.596-4.201 1.572-6.298 2.286-.743.253-1.73.406-1.98.914-.289.588-.102 2.124-.102 2.794 0 .664-.168 2.259.102 2.844.241.525 1.441.932 2.082 1.219 1.608.72 3.042 1.409 4.52 2.082.738.336 1.464.858 2.336.863.446-.276.305-.896.305-1.371 0-2.81.001-5.622 0-8.38 0-1.114.117-2.239-.152-3.2-.231-.169-.634-.107-.813-.051zm-12.291 57.188c-3.673 1.359-8.923 1.436-12.799.152-3.604-1.192-6.584-3.462-8.735-6.145-2.147-2.68-3.949-6.226-4.57-10.31-.744-4.891.247-9.277 1.727-12.646 1.548-3.525 3.708-6.318 6.298-8.583 4.879-4.268 10.777-6.21 17.217-8.787.764-.305 2.335-.684 2.591-1.168.285-.54.102-1.973.102-3.047 0-.868.257-2.66-.458-2.691-.562-.025-1.42.458-2.031.66-1.84.609-3.868 1.202-5.485 1.879-2.456 1.029-4.754 1.907-6.907 2.946-6.865 3.314-11.653 7.768-15.184 14.271-1.166 2.146-2.024 4.582-2.692 7.161-.708 2.729-1.166 5.72-1.016 8.736.147 2.966.921 5.533 1.879 7.974.251.638.392 1.219.661 1.777.262.546.537 1.037.863 1.575 3.613 5.98 9.073 10.882 17.064 12.443 1.369.268 2.815.551 4.266.66 8.394.63 12.835-3.59 17.573-6.907.953-.667 1.808-1.459 2.793-2.133 1.44-.985 2.809-2.037 4.165-3.2.435-.373 1.082-.785 1.219-1.27.262-.927.102-2.255.102-3.402 0-.604.027-1.2 0-1.778-.024-.516.062-1.138-.254-1.523-.6-.142-.888.465-1.269.711-.368.343-.818.604-1.168.965-2.472 1.778-4.628 3.871-6.856 5.892-2.994 2.234-5.445 4.437-9.096 5.788zm7.924-17.826c-1.68 1.38-3.308 2.81-4.876 4.063-2.127 1.697-4.431 3.594-7.872 4.012-3.876.47-6.754-1.137-8.584-3.098-2.011-2.156-2.96-5.3-2.539-9.193.345-3.187 1.886-5.985 3.758-8.126 1.862-2.128 4.096-3.918 6.653-5.231 1.271-.653 2.53-1.41 3.962-1.981 3.579-1.427 6.878-2.89 10.767-4.114.424-.133 1.975-.589 1.981-1.016.007-.451-1.172-.751-1.676-.965-1.383-.584-2.524-1.092-3.759-1.625-.617-.267-1.244-.621-2.031-.66-.591-.03-1.11.45-1.625.66-.481.196-1.022.334-1.524.508-3.002 1.04-5.882 2.216-8.583 3.454-1.901.871-3.712 1.664-5.333 2.692-1.657 1.051-3.075 2.313-4.418 3.657-2.632 2.631-4.791 6.057-5.841 10.259-.568 2.273-.871 4.638-.559 7.263.268 2.252.998 4.349 1.879 6.196 1.619 3.396 4.35 6.469 7.821 8.228 3.546 1.796 8.775 2.618 13.357 1.117 3.93-1.287 6.701-3.912 9.65-6.45 2.169-1.868 4.25-3.698 6.449-5.587.364-.313 2.066-1.495 1.931-2.133-.08-.374-1.191-.719-1.626-.914-.693-.312-1.295-.515-1.828-.762-1.319-.613-2.096-1.18-3.707-1.473-.657.177-1.322.803-1.827 1.219z" fill-rule="evenodd"/></svg>