<svg enable-background="new 0 0 79.453 52.522" viewBox="0 0 79.453 52.522" xmlns="http://www.w3.org/2000/svg"><path clip-rule="evenodd" d="m19.807.161c.197 4.155.101 8.719.101 13.16 0 1.415-.102 2.863.152 4.1 1.929.17 4.549.165 6.479 0 .271-.641.151-1.369.151-2.075 0-4.938-.083-10.397.102-15.235 8.439-.182 17.285-.132 25.763.101-.502 1.992-1.262 3.897-1.974 5.821-2.101 5.68-4.054 11.491-6.074 17.26-.344.981-.554 2.015-.911 2.986-1.052 2.862-1.968 5.768-2.986 8.655-1.354 3.839-2.76 7.682-3.948 11.591.551.375 1.348.186 2.075.202 2.173.05 4.863.151 6.985-.05.281-.589.152-1.299.152-1.975 0-4.308 0-8.877 0-13.261 0-.689-.114-1.402.152-2.024 6.336-.047 13.492-.154 20.195.051.31 1.307.213 2.762.203 4.2-.011 1.453-.051 2.925-.051 4.404 0 2.943-.057 5.895.152 8.554.883.27 2.047.151 3.189.151 1.123 0 2.305.08 3.239-.101.275-1.644.152-3.345.152-5.012 0-11.735 0-23.79-.152-35.684-1.807-.277-4.488-.188-6.377-.051-.271 1.376-.152 2.883-.152 4.353v8.756c0 1.44.181 2.842-.102 4.151-1.867.004-4.624.039-6.732-.051-.273-.919-.152-1.911-.152-2.886 0-6.784-.032-13.723.101-20.094 6.32-.15 13.443-.213 19.74.05.215 12.9.152 25.877.152 39.075 0 4.395.091 8.83-.101 13.109-6.288.169-13.298.169-19.639 0-.301-5.604.042-11.177-.253-17.058-.919-.259-2.116-.163-3.239-.151-1.143.012-2.279.012-3.239.151-.275 1.385-.152 2.855-.152 4.303 0 4.103.122 8.458-.05 12.755-8.431.211-17.515.101-25.865-.101.439-1.992 1.337-3.846 1.974-5.771 1.905-5.757 4.077-11.523 6.023-17.361.647-1.939 1.314-3.897 2.025-5.82.708-1.916 1.327-3.854 2.025-5.77 1.396-3.832 2.81-7.676 3.999-11.591-.7-.268-1.523-.151-2.328-.151-2.384 0-4.845-.12-7.036.051-.451 1.292-.099 2.77-.152 4.2-.103 2.781 0 5.669 0 8.706 0 1.446.123 2.905-.151 4.252-6.512.144-13.666.259-20.297.051-.308-5.49.091-11.683-.152-17.108-.896-.3-2.008-.119-3.037-.101-1.096.021-2.218-.053-3.291.052-.022.045-.044.091-.101.102-.253 3.329-.152 6.777-.152 10.225 0 10.102-.007 20.204.152 30.42.915.182 2.083.101 3.189.101 1.127 0 2.269.117 3.138-.151.323-5.229-.108-11.711.203-17.158 2.064-.167 4.821-.17 6.884 0 .272.875.152 1.834.152 2.783v14.577c0 1.918.146 3.807-.102 5.518-3.029.152-6.348.151-9.667.151-3.337 0-6.778.085-10.022-.102-.199-17.019-.23-34.749-.051-52.135.431-.32 1.029-.217 1.518-.202 1.601.051 3.277.001 5.011 0 4.519-.001 8.929-.127 13.16.102z" fill-rule="evenodd"/></svg>