<svg enable-background="new 0 0 76.921 72.091" viewBox="0 0 76.921 72.091" xmlns="http://www.w3.org/2000/svg"><path clip-rule="evenodd" d="m24.318 35.496c.857-1.26 2.152-2.081 3.175-3.175 2.817-2.715 5.583-5.474 8.483-8.151.39-.36.896-.782 1.042-1.327-.122-.178-.241-.359-.426-.474-.47-.148-.783.322-1.043.569-3.134 2.975-6.314 5.982-9.43 9.099-.496.496-1.069 1.079-1.706 1.658-.437.398-1.659 1.192-1.659 1.707 0 .356.856 1.084 1.232 1.469 3.093 3.16 6.159 6.234 9.194 9.478.73.726 1.787 1.759 2.654 2.701.273.297.66.791.948.806.836.044 1.109-1.284 1.753-1.611 8.005-7.227 16.195-15.082 24.216-22.604.406-.381 1.28-1.414 1.659-1.422.484-.011 1.383 1.146 1.706 1.469.585.586 1.123 1.119 1.516 1.611 1.078 1.024 2.117 2.086 3.128 3.175 1.828 1.886 3.688 3.517 5.497 5.544.231.259.659.62.664.9.008.506-1.181 1.453-1.611 1.849-3.07 2.818-5.818 5.601-8.862 8.388-1.21 1.108-2.286 2.346-3.459 3.412-4.935 4.482-9.412 9.188-14.169 13.412-2.749 2.409-4.97 5.334-8.341 7.203-1.183.656-2.559.972-4.265.9-2.988-.126-5.067-1.911-6.824-3.507-1.851-1.681-3.439-3.503-5.213-5.118-1.797-1.637-3.356-3.535-5.118-5.26-1.736-1.7-3.379-3.537-5.166-5.166-.905-.825-1.645-1.788-2.512-2.654-2.546-2.546-5.183-5.199-7.677-7.819-1.723-1.777-3.56-3.582-3.697-6.682-.142-3.236 1.791-5.154 3.365-6.966 2.404-2.767 5.219-5.077 7.819-7.677 3.407-3.406 7.051-6.694 10.568-10.141 2.605-2.554 5.207-4.977 7.962-7.535 1.784-1.658 3.643-3.505 6.966-3.554 2.713-.04 4.885 1.072 6.445 2.464 1.595 1.423 3.003 3.031 4.455 4.407 1.554 1.473 2.903 3.046 4.455 4.407.775.68 1.509 1.471 2.228 2.228 2.115 2.227 4.951 4.031 5.544 7.771.422 2.656-.363 5.216-1.753 6.824-.66.764-1.448 1.52-2.227 2.228-2.296 2.085-4.532 4.296-6.824 6.445-3.255 3.293-7.218 6.602-10.663 10.047-.284.284-1.074 1.409-1.516 1.421-.511.015-1.377-1.234-1.659-1.516-.578-.578-1.087-1.039-1.564-1.611-3.112-3.193-6.29-6.319-9.29-9.622z" fill-rule="evenodd"/></svg>