<svg enable-background="new 0 0 57.984 78.518" viewBox="0 0 57.984 78.518" xmlns="http://www.w3.org/2000/svg"><path clip-rule="evenodd" d="m30.006 0c.286.397.127.926.148 1.382.342 7.33-.244 15.56.148 22.603.042-.009.046.02.049.05 4.955.471 10.417-.278 15.299.247 4.371.469 7.445 3.123 9.525 6.021 1.452 2.023 2.525 4.455 2.764 7.551.445 5.781-2.518 9.19-4.886 12.535-4.5 6.356-9.65 12.794-14.115 18.951-1.59 2.351-3.576 4.454-5.083 6.909-.497.811-.995 1.65-1.727 2.271-.818-.675-1.441-1.549-2.122-2.369-4.683-5.643-9.291-11.435-14.016-17.174-4.946-6.007-9.979-12.271-15.052-18.359-.301-.363-.929-1.055-.938-1.285-.015-.415.555-.848.888-1.283.926-1.211 1.901-2.601 2.813-3.652 1.187-1.693 2.475-3.283 3.702-4.936 5.397-7.367 11.205-14.606 16.779-22.01 1.328-1.765 2.764-3.706 4.195-5.528.541-.689 1.008-1.417 1.629-1.924zm-.247 25.958c-.412.396-.861 1.047-1.283 1.629-2.099 2.893-4.061 5.693-6.12 8.439-.838 1.119-1.71 2.236-2.369 3.455 1.801 2.256 3.615 4.508 5.478 6.712 1.399 1.654 2.877 3.269 4.195 4.935.436.551.897 1.178 1.53 1.53.6-.52 1.063-1.198 1.53-1.826.5-.671.881-1.375 1.333-2.073 1.049-1.62 2.434-3.025 3.455-4.639.964-1.096 1.742-2.327 2.616-3.454.289-.374.714-.75.74-1.283-2.583-.16-5.395-.148-8.044-.148-.898 0-1.851.116-2.665-.148-.191-4.336-.008-8.744-.148-13.127-.049 0-.059-.04-.099-.049.014-.102-.144.008-.149.047z" fill-rule="evenodd"/></svg>