<svg enable-background="new 0 0 67.612 78.468" viewBox="0 0 67.612 78.468" xmlns="http://www.w3.org/2000/svg"><path clip-rule="evenodd" d="m32.787 16.037c1.038.273 2.14.151 3.215.151 3.268 0 6.853.01 9.948.151 4.347.198 7.413 1.451 9.847 3.617 2.355 2.097 4.184 5.083 4.37 9.093.201 4.322-2.105 6.809-3.918 9.495.275.822 1.016 1.271 1.507 1.909 1.356 1.761 2.411 4.542 2.411 7.687 0 3.131-1.19 5.682-2.662 7.536-1.505 1.896-3.337 3.382-5.878 4.27-2.657.929-5.818.839-9.144.804-3.252-.034-6.471-.09-9.596.05.254.585 1.107.87 1.708 1.155 4.286 2.041 11.103 2.605 16.88 1.306 3.112-.699 5.381-2.086 7.888-3.416 1.246-.661 2.907-1.186 4.572-.854 1.948.389 3.828 2.271 3.667 4.923-.338 5.56-4.857 7.741-8.741 9.947-2.003 1.138-4.287 2.021-6.582 2.763-2.354.761-4.878 1.417-7.687 1.658-6.153.528-11.814-.109-16.579-1.608-4.772-1.501-8.88-3.843-12.309-6.38-2.333-1.819-4.553-3.753-6.38-6.079-1.163-1.19-2.066-2.63-2.964-4.069-.897-1.438-1.719-2.946-2.462-4.521-1.498-3.176-2.808-6.675-3.415-10.599-2.072-13.385 2.81-24.669 9.093-31.852 3.33-3.807 7.27-6.661 12.007-9.043 1.58-.795 3.243-1.381 4.974-2.01 2.679-.974 5.368-1.549 8.591-1.909 7.842-.877 15.176 1.098 20.699 3.467 2.293.983 4.48 2.396 6.581 3.868 1.929 1.352 4.186 3.163 4.622 5.828.275 1.678-.46 2.835-1.356 3.818-.989.75-2.038 1.481-3.919 1.306-1.281-.119-2.337-.729-3.365-1.306-2.981-1.674-6.212-3.054-10.199-3.718-2.868-.478-5.939-.379-8.641.05-2.011.319-3.778.893-5.376 1.607-.497.224-1.146.389-1.407.905zm8.29-14.519c2.142 2.313 3.859 5.05 4.371 8.993.241-3.736-1.204-6.068-2.964-7.988-.397-.433-.875-.817-1.356-1.105-.011-.04-.042-.059-.101-.051-.003.07.023.111.05.151zm-20.146 4.673c-.05 0-.06.041-.101.05-.002.069.024.11.05.151 1.638.889 3.228 1.863 4.622 3.064 1.234 1.064 2.258 2.251 3.266 3.466.107.13.249.379.452.351-1.93-3.193-4.342-5.905-8.289-7.082zm34.815 5.375c.28-1.236.174-2.855-.302-3.768.238 1.134.246 2.602.302 3.768zm-29.892 9.546c-3.279 3.689-5.683 8.2-6.33 14.369-.414 3.952.126 7.518 1.005 10.601 1.427 5.003 4.508 8.74 7.888 11.756.699.624 1.381 1.399 2.311 1.658.215-3.415.101-6.938.101-10.5 0-10.34.159-20.4 0-30.797-.005-.325.125-.919-.352-1.055-1.67.892-3.314 2.495-4.623 3.968zm20.849 12.811c2.426-.213 4.732-2.566 3.617-5.326-.381-.942-1.301-2.048-2.16-2.462-1.851-.89-4.984-.056-7.486-.352-.059.024-.114.054-.151.101-.155.059-.19.464-.201.704-.092 2.076.083 5.342.15 7.234 2.004.06 4.347.267 6.231.101zm-41.397-6.833c1.063 1.764 2.86 2.763 4.773 3.617.479.215.893.522 1.356.754.962.482 1.993.865 2.964 1.306.983.447 1.774 1.129 2.713 1.558-.465-.94-1.447-1.433-2.311-1.96-2.695-1.642-5.93-2.686-8.39-4.471-.302-.351-.719-.588-1.005-.955-.05 0-.101 0-.151 0-.001.07.025.111.051.151zm41.699 24.115c1.398-.157 2.568-1.207 3.165-2.261.671-1.185.669-2.844-.05-4.07-.321-.548-1.302-1.461-1.858-1.708-.827-.367-2.368-.251-3.617-.251-1.481 0-2.96-.04-4.12.05-.265.565-.15 1.29-.15 1.959 0 1.932-.22 4.277.1 6.18 2.266.035 4.634.314 6.53.101zm-35.067-2.512c1.688-1.202 3.486-2.384 4.823-3.868.446-.495.908-1.094 1.105-1.758-1.441 2.052-3.721 3.144-5.777 4.672-1.657 1.23-3.176 2.515-4.522 3.919-.077.375-.331.573-.452.904 1.453-1.412 3.103-2.645 4.823-3.869zm9.596 22.055c4.034-1.325 6.756-3.961 8.44-7.636-.011-.039-.001-.099-.05-.101-2.211 3.165-4.737 6.016-8.39 7.737zm33.559 1.307c.41-.1.505-.736.604-1.256.246-1.301.556-3.216-.101-4.371-.012-.039-.042-.059-.101-.051.076 1.971-.039 3.912-.402 5.678zm-11.957.703c-.59 1.09-1.501 1.892-2.06 2.964.963-.648 1.686-1.682 2.261-2.713.597-1.07 1.053-2.337 1.256-3.768-.002-.031-.007-.06-.05-.05-.458 1.282-.819 2.483-1.407 3.567z" fill-rule="evenodd"/></svg>