<svg enable-background="new 0 0 53.501 79.641" viewBox="0 0 53.501 79.641" xmlns="http://www.w3.org/2000/svg"><g clip-rule="evenodd" fill-rule="evenodd"><path d="m10.636.062c.459.789.706 1.626 1.085 2.418 1.111 2.315 2.737 4.243 4.639 5.824 3.125 2.603 7.986 4.297 13.522 3.355 4.809-.817 8.225-3.717 10.561-6.909.468-.689.893-1.435 1.283-2.221.391-.788.605-1.645 1.085-2.369 3.164-.166 7.109-.174 10.068.049.052.847-.205 1.697-.444 2.467-1.694 5.445-4.451 9.426-8.242 12.832-2.066 1.856-4.548 3.418-7.452 4.59-2.862 1.154-6.403 2.028-10.117 1.925-7.629-.214-13.201-2.88-17.471-6.613-3.669-3.211-6.72-7.483-8.141-12.93-.197-.754-.584-1.576-.395-2.418 3.225-.082 6.794-.083 10.019 0z"/><path d="m51.548 42.997c-.801.228-1.762.163-2.714.148-1.805-.027-3.525.021-5.577 0-.917-.01-1.941.133-2.665-.049-.548-.138-1.43-1.421-1.826-1.826-2.833-2.891-6.888-5.53-12.782-5.28-2.238.095-4.042.638-5.823 1.382-3.406 1.421-5.886 3.638-7.749 6.711-1.721 2.84-3.001 7.14-2.122 11.795.746 3.951 2.696 6.958 5.182 9.278 2.491 2.324 5.748 3.97 10.067 4.343 4.632.4 8.475-1.18 11.153-3.207 1.365-1.033 2.582-2.273 3.554-3.652.972-1.38 1.891-2.955 2.27-4.836-.517-.352-1.254-.197-1.875-.197-4.702 0-9.424.079-14.016-.148-.144-2.463-.153-5.135-.049-7.6.034-.808-.141-1.628.099-2.319 8.517-.142 17.833-.098 26.206.049 1.529 5.932.023 13.136-2.221 17.224-3.466 6.579-8.997 11.893-17.076 13.967-4.241 1.089-9.532 1.214-13.621 0-4.016-1.193-7.405-2.97-10.216-5.281-2.754-2.273-5.083-5.148-6.909-8.636-1.757-3.358-3.034-7.719-2.813-12.585.116-2.559.36-4.74.938-6.81 1.663-5.956 5.06-10.5 9.376-13.868 3.975-3.011 8.702-5.293 15.2-5.675 3.481-.205 6.719.427 9.426 1.382 6.653 2.348 11.579 6.322 14.904 11.993.672 1.14 1.274 2.391 1.679 3.697z"/></g></svg>