<svg enable-background="new 0 0 85.269 48.208" viewBox="0 0 85.269 48.208" xmlns="http://www.w3.org/2000/svg"><path clip-rule="evenodd" d="m85.038.182c.26.717.145 1.575.145 2.41.001 1.645.049 3.327.049 4.964 0 .822.111 1.654-.145 2.361-13.818.26-28.155-.14-41.591.096.148.772.727 1.336 1.108 2.024.741 1.337 1.434 2.805 1.975 4.385.269.782.441 1.598.819 2.362 11.446.249 23.446-.029 34.892.241.236 3.04.141 6.434.049 9.639-.648.255-1.402.144-2.072.144-10.978 0-21.768-.098-32.724 0-.466.813-.514 1.746-.771 2.603-.494 1.648-1.258 3.237-2.071 4.626-.409.698-.97 1.332-1.205 2.121.783.208 1.634.193 2.458.193 12.968-.01 26.228-.068 39.181.144.147 3.092.188 6.533.048 9.542-.756.259-1.581.145-2.361.145-9.115.001-17.142-.049-26.458-.048-6.58 0-12.516-.049-19.373-.048-3.284 0-6.588.077-9.783 0-1.648-.04-3.268.015-4.771-.097-4.609-.341-8.048-1.713-11.181-3.614-3.98-2.416-7.197-6.109-9.205-10.603-2.024-4.53-2.834-11.009-1.108-16.626 2.243-7.306 7.339-12.755 14.215-15.47 1.204-.475 2.464-.879 3.808-1.157 3.496-.72 8.122-.482 12.386-.482 17.5 0 35.575.035 53.686.145zm-75.229 22.748c-.302 3.905.998 7.177 2.747 9.542 1.697 2.294 4.181 4.297 7.181 5.205 1.688.51 3.541.766 5.543.578 5.303-.496 9.053-3.602 11.133-7.47 1.421-2.645 2.219-6.688 1.204-10.313-.894-3.193-2.55-5.587-4.915-7.47-2.205-1.755-5.272-3.369-9.253-3.181-4.488.212-7.457 2.099-9.88 4.481-2.08 2.286-3.466 4.841-3.76 8.628z" fill-rule="evenodd"/></svg>