<svg enable-background="new 0 0 78.712 77.691" viewBox="0 0 78.712 77.691" xmlns="http://www.w3.org/2000/svg"><path clip-rule="evenodd" d="m31.657.145c.229 3.94.049 7.956.049 11.954 0 6.537-.154 13.31.048 19.874 4.548.178 10.193.109 15.112.049.197-2.534.146-5.189.146-7.872 0-7.889-.005-16.302.194-23.956 4.901-.125 10.788-.209 15.793.049.206 10.403-.099 21.343 0 31.73 1.165.313 2.472.194 3.79.194h7.969c1.329 0 2.647-.117 3.839.146.178 3.729.097 7.528.098 11.322 0 10.393-.145 20.852-.146 31.293 0 .891.114 1.809-.146 2.672-12.853.215-26.09-.016-39.165-.048-13.104-.033-26.352.092-39.164-.146-.141-15.188-.07-30.424.146-45.336 4.981-.267 10.41.117 15.501-.097.138-9.623.194-19.951.193-29.981 0-.667-.088-1.702.146-1.895.034-.045.087-.074.145-.097 5.054.088 10.409-.057 15.452.145zm-15.841 32.022c-.128 1.181.004 2.641-.049 4.033-.198 5.275-.048 10.773-.048 15.841-.001 4.096-.205 8.034.048 11.905 2.376.226 5.054.146 7.727.146 2.695 0 5.424.081 7.92-.097.263-2.549.146-5.197.146-7.872 0-7.965.16-16.239 0-24.004-5.141-.091-10.424-.039-15.598-.097-.07.027-.119.076-.146.145zm31.244.049c-.163.336-.097 1.244-.097 1.943 0 9.407-.291 19.038-.146 28.135.01.576-.084 1.221.194 1.749 3.751.187 8.041.217 11.954.146 1.316-.024 2.604.132 3.79-.146.213-10.635.206-21.399.146-31.827-5.038-.226-10.495-.033-15.695-.097-.057.024-.11.052-.146.097z" fill-rule="evenodd"/></svg>