<svg enable-background="new 0 0 63.191 77.792" viewBox="0 0 63.191 77.792" xmlns="http://www.w3.org/2000/svg"><g clip-rule="evenodd" fill-rule="evenodd"><path d="m61.392 63.176c-.266-.495-.846-.728-1.31-1.008-2.77-1.667-5.684-3.279-8.619-4.99-.506-.295-1.246-.643-1.41-1.008-.33-.725-.102-2.269-.102-3.377-.002-7.852-.01-16.507-.051-23.992-.025-4.635.158-9.302-.049-13.71-.166-3.493.049-6.889.049-10.332 0-1.106.057-2.239-.252-3.276-.586-.043-1.086.336-1.562.605-2.82 1.597-5.613 3.231-8.467 4.99-.519.319-1.103.495-1.311.907-.424.839-.15 3.571-.152 4.637-.006 4.864.172 9.611-.049 14.062-.316.563-.984.838-1.514 1.159-1.598.972-3.33 1.896-4.988 2.923-1.625 1.006-3.275 1.921-4.99 2.923-.516.301-1.049.882-1.713.705-.232-.805.627-1.122 1.107-1.411 1.562-.936 3.32-1.923 4.889-2.823 1.547-1.002 3.123-1.841 4.84-2.873.541-.326 1.318-.629 1.512-1.058.199-.444.139-1.531.15-2.268.086-5.372-.205-11.061 0-16.33.766-.926 1.938-1.459 2.975-2.067 1.043-.612 2.078-1.259 3.125-1.865 2.139-1.238 4.188-2.535 6.352-3.629.541-.274 1.312.292 2.016.706 2.721 1.601 5.416 3.288 8.113 4.839 1.105.635 2.232 1.24 3.076 2.117.111 17.365.101 35.638.1 53.477 0 .698.107 1.543-.051 1.966-.146.396-.924.767-1.461 1.108-1.565.997-3.236 1.927-4.789 2.773-1.604.874-3.078 1.804-4.787 2.772-.469.265-1.264.799-1.715.807-.449.007-1.285-.539-1.764-.807-3.275-1.838-6.33-3.67-9.576-5.545-.42-.242-1.303-.545-1.26-1.159.422-.595 1.252.103 1.613.353 3.223 1.67 6.176 3.641 9.475 5.443.514.28 1.051.734 1.613.655.863-.12 2.018-1.047 2.822-1.512 1.857-1.072 3.646-2.184 5.494-3.175.941-.504 1.923-.97 2.621-1.712zm-10.534-61.642c-.42 1.022-.115 2.152-.152 3.226-.117 3.382-.158 6.755 0 10.13.207 4.439 0 9.001 0 13.609 0 7.73-.012 16.062 0 23.639.002 1.036-.125 2.715.152 3.377.154.371.795.667 1.26.957.496.31 1.022.568 1.41.807 2.512 1.541 4.584 2.771 7.006 4.133.461.258.975.678 1.563.604.379-.664.166-1.867.203-2.772.147-3.71 0-7.353 0-11.038-.002-5.584.186-11.334.049-17.036-.182-7.626.086-15.276-.1-22.883-.691-.836-1.764-1.231-2.672-1.764-2.822-1.655-5.504-3.53-8.418-5.04-.154-.036-.148.087-.301.051z"/><path d="m25.355 14.941c-.588.481-1.201-.129-1.664-.403-3.033-1.796-6.018-3.54-9.172-5.393-.445-.261-1.193-.847-1.564-.857-.375-.01-1.047.49-1.512.756-2.369 1.358-4.685 2.722-7.006 4.082-.926.543-1.902 1.031-2.67 1.764.455.726 1.35 1.06 2.066 1.462 2.215 1.243 4.494 2.564 6.652 3.881.486.288 1.01.492 1.562.807.418.237 1.168.621 1.311 1.008.236.638.045 2.238.051 3.327.018 3.3.18 6.612.051 9.879-.162 4.073.16 8.765.049 12.903-.238 8.893.039 18.127 0 26.21-.002.661-.217 1.355.203 1.865.588.027 1.059-.4 1.512-.655 2.433-1.373 4.478-2.582 7.057-4.083.775-.452 2.281-1.138 2.57-1.865.244-.616.074-1.735.1-2.57.029-.955.02-1.963 0-2.773-.105-4.412-.049-8.69-.049-13.306 0-.801-.104-2.06.1-2.621.16-.441.994-.791 1.512-1.109 2.779-1.706 5.504-3.248 8.217-4.889.826-.5 1.652-.91 2.52-1.411.236-.137.539-.452.857-.252.248.77-.6 1.134-1.059 1.411-2.652 1.601-5.357 3.205-8.065 4.788-1.068.625-2.287 1.089-3.074 2.016-.215 1.708-.082 3.491-.102 5.292-.055 4.986-.135 10.706-.101 15.927-.201.642-.914.835-1.41 1.159-3.057 1.999-6.369 3.71-9.678 5.645-.478.28-1.187.855-1.664.857-.459.001-1.26-.588-1.713-.857-3.23-1.914-6.236-3.604-9.525-5.595-.57-.345-1.307-.61-1.461-1.059-.228-.654-.029-2.245-.051-3.226-.129-5.764-.043-10.9-.102-16.583-.115-11.096.031-22.381-.102-32.812-.012-.996.074-2.001.102-2.923.932-.749 2.031-1.328 3.074-1.966 2.562-1.564 5.285-2.969 7.914-4.586.422-.26 1.297-.958 1.764-.958.516.001 1.172.54 1.713.857 3.203 1.878 6.471 3.689 9.576 5.644.464.294 1.187.526 1.211 1.212zm-24.346 1.31c-.137.59-.147 2.221-.1 3.327.047 1.09 0 2.145 0 3.226-.002 9.268.125 17.83.1 26.813-.014 5.594.002 11.162 0 16.885 0 1.073-.119 2.634.152 3.276.152.359.799.675 1.26.957 2.43 1.488 4.783 2.715 7.057 4.133.451.281.926.565 1.41.806.48.238.961.678 1.564.605.383-.904.195-1.969.201-2.974.016-3.172 0-6.633 0-10.182-.002-6.563 0-13.397 0-20.312-.002-4.602-.045-8.844-.051-13.558-.002-.917-.051-2.023-.051-3.326 0-1.121.162-2.766-.15-3.378-.17-.33-.783-.607-1.262-.907-2.457-1.548-4.619-2.641-7.004-4.032-.752-.438-2.08-1.344-2.975-1.512-.071.03-.122.081-.151.153z"/></g></svg>