<svg enable-background="new 0 0 78.052 78.18" viewBox="0 0 78.052 78.18" xmlns="http://www.w3.org/2000/svg"><path clip-rule="evenodd" d="m.34.007c19.546-.029 38.951.05 58.248.049 6.448 0 12.945-.107 19.318.098.256 9.708.098 19.557.098 29.221-.001 15.644.114 32.567-.098 48.686-13.128.189-25.548.099-38.734.098-12.672 0-25.958.08-38.978-.098-.022-.043-.043-.087-.098-.098.008-4.957-.137-9.915 0-14.83.045-1.617.063-3.283 0-4.878-.256-6.422.121-12.954-.048-19.465-.082-3.15.087-6.37 0-9.61-.087-3.226.197-6.487.049-9.757-.215-4.717.003-9.597-.049-14.635-.007-.71-.011-1.517 0-2.391.009-.752-.014-1.903.147-2.293.035-.046.087-.074.145-.097zm10.342 8.83c-.612-.001-1.287-.113-1.854.146-.174 19.956-.159 40.015 0 60.199.981.264 2.035.146 3.074.146 7.508-.001 15.451.076 22.587-.097.262-1.195.146-2.449.146-3.659.001-17.481-.001-35.37 0-52.98 0-1.248.109-2.495-.146-3.707-7.822-.121-15.79-.047-23.807-.048zm48.54 0c-4.261-.001-8.779.001-13.074 0-.85-.001-1.725-.113-2.537.146-.265 2.047-.146 4.207-.146 6.341v6.44c0 4.26-.087 8.669.098 12.732.977.264 2.049.146 3.073.146 7.506-.001 14.834.094 22.44-.098.211-1.957.146-4.043.146-6.196 0-5.298 0-10.888 0-16.244 0-1.062.118-2.165-.146-3.171-3.254-.183-6.417-.096-9.854-.096zm6.83 34.635c-6.598.002-12.555 0-18.879 0-1.135.001-2.635-.141-3.366.049-.544.142-.341 2.173-.341 2.976 0 7.659-.091 15.346.098 22.686.999.264 2.07.146 3.122.146 7.646-.001 15.306.121 22.392-.049.265-.979.146-2.047.146-3.073 0-6.461 0-13.08 0-19.464 0-1.048.111-2.122-.146-3.123-.982-.265-2.01-.148-3.026-.148z" fill-rule="evenodd"/></svg>