<svg enable-background="new 0 0 77.106 76.561" viewBox="0 0 77.106 76.561" xmlns="http://www.w3.org/2000/svg"><g clip-rule="evenodd" fill-rule="evenodd"><path d="m38.485.003c5.997-.078 11.643 1.451 15.881 3.332 8.844 3.922 15.305 10.438 19.357 19.066 2.072 4.414 3.299 9.709 3.379 15.834.08 6.064-1.293 11.414-3.379 15.736-.545 1.129-.997 2.229-1.593 3.234-4.13 6.961-9.866 12.518-17.668 15.93-4.483 1.959-9.675 3.428-15.736 3.426-6.082 0-11.433-1.326-15.833-3.379-4.441-2.07-8.26-4.59-11.44-7.771-6.466-6.467-11.098-14.658-11.441-26.984-.168-6.029 1.394-11.545 3.331-15.881 2.969-6.644 7.371-11.726 13.081-15.736 1.886-1.324 3.965-2.586 6.131-3.475 4.539-1.865 9.503-3.33 15.833-3.332.033 0 .065 0 .097 0zm36.155 44.99c1.636-8.293-.134-17.164-3.234-22.93-1.654-3.076-3.379-5.723-5.551-8.158-4.14-4.641-9.872-8.721-16.896-10.523-3.636-.934-7.591-1.76-12.165-1.545-8.766.414-15.664 3.637-20.95 7.725-3.256 2.517-5.884 5.519-8.158 8.978-3.081 4.684-5.162 10.207-5.696 17.137-.576 7.496 1.409 13.922 3.767 18.873 2.316 4.865 6.096 9.274 10.378 12.455 2.23 1.656 4.513 3.137 7.096 4.297 2.696 1.209 5.542 2.1 8.688 2.75 3.371.697 7.172.727 10.572.436 3.424-.295 6.52-1.229 9.22-2.221 5.594-2.057 9.894-5.141 13.709-9.123 4.349-4.715 7.728-10.586 9.22-18.151z"/><path d="m26.272 21.677c.595.049 1.394-.106 1.834.098.245 2.32.096 4.98.096 7.578v3.91c0 1.258-.147 2.529.097 3.668.796.26 1.679.144 2.51.144 5.797 0 12.165.168 18.005.049.261-1.203.144-2.52.144-3.812 0-2.42.048-4.922.048-7.627 0-1.281-.113-2.568.145-3.766.476-.139 1.576-.193 1.979.049.161 10.875.061 21.553-.097 32.728-.405.244-1.548.188-2.027.047-.323-4.98.154-10.205-.145-15.156-.797-.283-1.666-.108-2.51-.145-2.514-.115-5.206-.043-7.82-.098-3.456-.07-6.937-.061-10.233.049-.261 1.205-.145 2.527-.145 3.812 0 3.67.005 7.676-.144 11.393-.509.15-1.519.15-2.027 0-.187-2.668-.048-5.367-.048-8.109 0-8.354.006-16.49.145-24.668.098-.013.095-.129.193-.144z"/></g></svg>