<svg enable-background="new 0 0 148.301 186.148" viewBox="0 0 148.301 186.148" xmlns="http://www.w3.org/2000/svg"><g clip-rule="evenodd" fill-rule="evenodd"><path d="m22.797.571c-.15 27.209.002 54.837 0 82.528-.001 6.963-.305 13.925 0 20.752.103 2.295-.079 4.524.12 6.718.41 4.527 1.002 8.494 2.039 12.235.99 3.575 2.601 6.779 4.198 9.956 3.108 6.182 7.325 11.584 12.355 15.954 4.875 4.235 10.862 8.225 17.513 10.795 6.733 2.603 15.324 4.172 24.471 3.119 16.439-1.894 27.497-10.863 34.666-22.071 3.775-5.902 6.063-12.693 6.837-21.472.767-8.696-1.554-16.707-5.277-22.791-3.587-5.86-8.271-10.348-14.274-14.154-5.651-3.584-13.678-6.217-22.432-5.398-8.805.824-14.345 4.181-19.432 8.877-3.786 3.495-6.31 7.699-7.917 13.314-.499 1.743-.476 3.743-1.56 5.518-3.335.262-7.319.24-11.275.24-3.925 0-7.955.286-11.275-.36-.283-6.045 1.458-11.501 3.238-16.313 1.793-4.847 4.021-9.341 6.957-12.955 8.286-11.264 20.22-19.7 37.785-21.951 9.242-1.185 19.004.485 25.91 3.239 7.363 2.937 13.888 6.045 19.192 10.676 10.462 8.876 19.446 21.037 22.551 37.305 3.509 18.383-1.743 36.672-9.236 48.341-11.428 17.798-28.748 31.304-56.378 33.347-4.697.347-9.615-.04-14.034-.72-21.274-3.273-36.696-12.927-48.461-26.27-4.612-5.231-8.339-11.357-11.755-18.113-3.391-6.704-6.017-14.378-6.718-23.15-.76-9.504-.36-19.351-.36-29.029.004-29.47-.462-58.778-.118-88.287 2.626-.642 5.825-.359 8.996-.359 3.149 0 6.362.134 9.236 0 1.516-.071 3.288-.317 4.438.479z"/><path d="m37.072 108.289c1.062 1.217-.072 4.631.96 5.878 2.668-.603 4.673-1.248 6.837-.96 1.238.166 2.81 1.066 3.358 1.439 5.89 4.011 5.717 15.996-.84 18.953-3.271 1.476-8.232 1.261-11.035-.36-2.072-1.198-3.792-4.154-4.078-6.717-.485-4.331-.137-9.455-.36-14.394-.074-1.644-.36-3.89 1.199-4.199 1.182-.234 2.815.222 3.959.36zm4.558 21.472c7.641 1.157 6.892-13.346-.239-11.755-5.287.71-4.617 11.139.239 11.755z"/><path d="m105.565 108.529c1.229 2.689-.216 8.052.84 10.916 1.547-.439 2.512-1.824 3.478-2.879.997-1.089 1.834-2.318 3.118-3.119 1.809.21 3.993-.581 5.278.24-.543 1.634-1.652 2.426-2.879 3.718-.8.843-2.896 2.446-2.999 3.599-.095 1.063 1.12 2.303 1.68 3.119.726 1.059 1.358 2.082 1.919 2.879 1.423 2.021 3.031 3.567 3.599 5.998-.954.772-3.571.498-5.038.36-3.008-1.87-3.484-6.271-6.478-8.157-3.236.472-1.246 5.675-2.279 8.157-1.111.465-3.52.399-4.678-.12-.619-1.155-.304-2.511-.36-3.838-.209-4.959-.239-10.204-.239-15.234 0-1.974-.351-4.129.479-5.758 1.275-.136 3.475-.32 4.559.119z"/><path d="m97.048 120.404c-.882.936-3.136.539-4.559.36-1.236-1.712-2.336-3.755-5.158-3.359-5.013.704-5.035 11.032-.12 11.996 3.486.447 4.193-1.884 5.519-3.599 1.038-.363 3.284-.382 4.318 0 1.189 8.764-12.061 10.739-16.794 4.678-4.882-6.254-1.574-16.746 6.357-17.633 6.056-.677 9.784 2.659 10.437 7.557z"/><path d="m75.216 124.843c-3.693 1.584-10.308-.296-14.034 1.08.05 3.08 3.374 4.582 6.237 3.598 1.451-.498 1.992-1.835 3.119-2.399 1.483.156 3.681-.402 4.438.48-.938 8.156-13.966 8.334-17.514 2.879-4.156-6.392-1.636-16.526 6.118-17.393 7.468-.836 11.972 5.15 11.636 11.755zm-10.675-3.719c1.65-.072 3.869.453 4.559-.6.063-3.858-7.954-4.255-8.037.12.552.882 2.117.539 3.478.48z"/></g></svg>