<svg clip-rule="evenodd" fill-rule="evenodd" stroke-linejoin="round" stroke-miterlimit="2" viewBox="0 0 560 400" xmlns="http://www.w3.org/2000/svg"><g fill-rule="nonzero" transform="matrix(.420561 0 0 .420561 158.626 65)"><path d="m536.8 495-90.1 90.1c-.7.7-1.7 1.2-2.7 1.2h-250.1c-1 0-2-.4-2.7-1.2l-134.4-134.2c-.7-.7-1.2-1.7-1.2-2.8v-254.3c0-1 .4-2.1 1.2-2.8l134.4-134.2c.7-.7 1.7-1.2 2.7-1.2h250.1c1 0 2 .4 2.7 1.2l90.4 90.4c.4.4.7.8.8 1.4l39.2-38.8c-.4-1.3-1.2-2.5-2.2-3.5l-103.4-103.5c-1.8-1.8-4.3-2.8-6.8-2.8h-291.5c-2.6 0-5 1-6.8 2.8l-163.6 163.5c-1.8 1.8-2.8 4.3-2.8 6.8v295.8c0 2.5 1 5 2.8 6.8l163.6 163.5c1.8 1.8 4.2 2.8 6.8 2.8h291.5c2.6 0 5-1 6.8-2.8l103.5-103.5c1-1 1.7-2.2 2.2-3.5l-39.4-38.6c-.3.5-.6 1-1 1.4z"/><path d="m476.8 436.3-64.8 64.9c-.8.8-1.7 1.2-2.8 1.2h-180.6c-1 0-2-.4-2.7-1.2l-85.1-85.1c-.8-.7-1.2-1.7-1.2-2.8v-184.7c0-1 .4-2.1 1.2-2.8l85.1-85.1c.7-.8 1.7-1.2 2.7-1.2h180.6c1 0 2 .4 2.7 1.2l65.5 65.5c.4.4.7.9.9 1.4l39.2-38.8c-.4-1.3-1.2-2.5-2.2-3.5l-78.6-78.6c-1.8-1.8-4.2-2.8-6.8-2.8h-222c-2.5 0-4.9 1-6.8 2.8l-114.4 114.4c-1.8 1.8-2.8 4.2-2.8 6.8v226.2c0 2.6 1 5 2.8 6.8l114.4 114.3c1.9 1.8 4.3 2.8 6.8 2.8h221.9c2.6 0 5-1 6.8-2.8l78.3-78.3c1-1 1.7-2.1 2.2-3.4l-39.4-38.5c-.2.5-.4.9-.9 1.3z"/><path d="m415.9 380.9-.3-.1c-.2.4-.5.8-.8 1.2l-35.3 35.3c-.7.7-1.7 1.2-2.8 1.2h-113.3c-1 0-2-.4-2.8-1.2l-36-36c-.7-.7-1.2-1.7-1.2-2.7v-115.3c0-1 .4-2 1.2-2.7l36-36c.8-.7 1.7-1.2 2.8-1.2h113.3c1 0 2.1.4 2.8 1.2l37 37.1c.3.3.6.8.8 1.3l.3-.1c6.2-3.5 11.9-7.5 17.1-12.1l23.1-22.9c-.4-1.3-1.2-2.5-2.2-3.5l-53.6-53.7c-1.9-1.8-4.3-2.8-6.8-2.8h-152.5c-2.6 0-5 1-6.8 2.8l-65.2 65.2c-1.8 1.8-2.8 4.2-2.8 6.8v156.6c0 2.6 1 5 2.8 6.8l65.2 65.2c1.8 1.8 4.2 2.8 6.8 2.8h152.4c2.5 0 4.9-1 6.8-2.8l53-53c1-1 1.7-2.2 2.2-3.5-4.8-5.2-17.3-19.4-41.2-33.9z"/><path d="m388.8 367.2c-.4 1.2-1.2 2.3-2.1 3.2l-17 17c-1.8 1.8-4.2 2.8-6.8 2.8h-85.3c-2.6 0-5.1-1.1-6.9-3l-16.2-17.1c-1.7-1.8-2.6-4.1-2.6-6.6v-85.5c0-2.5 1-4.9 2.8-6.7l16.1-16.6c1.8-1.9 4.3-2.9 6.9-2.9h85.3c2.6 0 5.1 1 6.9 2.9l16.3 16.6c.8.8 1.5 1.8 2 2.9-4.5 1-9.1 1.7-13.9 2.1l-25.4 1.8-.5.1c-4.3.6-8.5 2.4-11.9 5.5l-14.8 15.2c-8.2-.6-19.6.4-27.9 2.8-10.3 2.6-18.2 11.7-18.9 22.9l-.1 20.1c35.3-.1 86.3 11 114 22.5zm-14.6-91-25.4 1.9"/><path d="m362 298.8v17.5h-14.8c-13.6.2-18.6-11.1-25.6-17.5z"/></g></svg>