<svg enable-background="new 0 0 78.514 79.37" viewBox="0 0 78.514 79.37" xmlns="http://www.w3.org/2000/svg"><g clip-rule="evenodd" fill-rule="evenodd"><path d="m73.275 59.184c-.235-2.942.066-6.606-.197-9.857-1.068-.233-2.222-.139-3.369-.099-3.538.123-7.24-.123-10.749 0-2.352.083-4.789 0-7.183 0-2.392 0-4.776.1-6.984-.148-.135-.925-.216-2.572.05-3.418 2.277-.094 4.64-.049 7.034-.049 6.862 0 14.338.076 21.102-.1.264-.718.23-1.597.198-2.477-.094-2.518.048-5.553-.148-8.024-9.656-.316-19.79.135-29.325-.248-.198-4.678-.149-9.619-.148-14.514.001-2.446-.106-4.901-.05-7.281.058-2.384.123-4.709-.099-6.935-3.255-.165-7.197-.165-10.452 0-.262.536-.148 1.161-.148 1.734 0 6.602.049 13.438.05 20.012 0 2.432.088 4.878-.1 7.183-.965.199-2.379.096-3.368 0-.266-1.149-.148-2.364-.148-3.566 0-5.936-.13-12.275-.05-18.228.032-2.387.087-4.781-.148-7.084-1.468-.268-3.212-.148-4.903-.148-1.703 0-3.426.041-5.004-.049.052-.355.472-.539.743-.694 4.806-2.726 10.551-4.815 17.731-5.154 4.338-.205 8.262.4 11.789 1.387 3.482.973 6.552 2.24 9.312 3.864 5.455 3.207 10.122 7.725 13.375 12.928 3.265 5.223 6.055 12.038 6.39 19.962.346 8.191-1.71 14.902-4.507 20.161-.155.292-.257.806-.694.842z"/><path d="m18.539 34.912c-.913.17-2.453.152-3.369 0-.267-1.034-.148-2.14-.148-3.22 0-7.516-.133-15.133 0-23.034.744-.86 1.956-1.685 3.071-2.328.386-.222.389-.16.446.594.16 2.12.049 4.197.049 6.341.001 4.955.001 9.889 0 14.563 0 2.218.179 5.011-.049 7.084z"/><path d="m4.422 45.612c9.502.279 19.842-.081 29.374.198.266 1.139.148 2.331.148 3.517v3.517c-.001 7.073-.03 14.257.148 21.399.914.264 1.917.148 2.873.148 6.862.001 13.942-.051 20.903.05-.11.491-.719.602-1.09.792-2.911 1.495-6.315 2.703-10.056 3.467-4.441.908-9.638.843-14.167.099-8.664-1.422-15.261-5.624-20.457-10.452-5.309-4.932-9.197-11.526-11.144-19.763-2.114-8.945-.537-19.64 2.972-25.956-.002-.085.037-.128.1-.148h.099c.163 6.745.148 13.421.148 20.359 0 .942-.113 1.889.149 2.773z"/><path d="m44.991 60.027c9.557.044 18.823-.088 27.789.099-.072.658-.564 1.183-.99 1.833-.334.508-.715 1.441-1.239 1.635-.674.249-2.297.049-3.22.049-7.366 0-15.525.081-22.488-.099-.147-.987-.253-2.478 0-3.417.035-.048.089-.076.148-.1z"/></g></svg>