<svg enable-background="new 0 0 58.301 75.248" viewBox="0 0 58.301 75.248" xmlns="http://www.w3.org/2000/svg"><path clip-rule="evenodd" d="m58.253.016c.203.371-.281.619-.483.82-.692.693-1.561 1.484-2.123 2.316.004 18.363.168 36.932.097 55.447v.144c-2.097 1.479-4.369 2.771-6.66 4.15-2.185 1.314-4.356 2.764-6.659 4.15-3.823 2.301-7.774 4.846-11.678 7.238-.514.314-1.339.975-1.833.965-.463-.01-1.276-.713-1.689-.965-1.699-1.041-3.284-1.936-4.874-3.041-4.952-2.914-9.772-6.082-14.718-9.024-.82-.488-1.591-1.053-2.413-1.545-.805-.481-1.63-.963-2.316-1.592-.15-13.419-.145-28.198-.146-41.788 0-3.258-.048-6.848-.048-10.422 0-1.15.238-2.754-.048-3.572-.267-.764-1.509-1.652-2.124-2.268-.216-.215-.595-.479-.531-.82 14.199-.193 29.221-.195 44.203-.193 4.885 0 9.344-.036 14.043 0zm-49.56 2.654c-.887 0-1.814-.115-2.654.145-.182 18.432.01 36.631.193 54.867.804.69 1.757 1.178 2.654 1.738 2.718 1.695 5.442 3.344 8.203 4.971 1.829 1.076 3.593 2.258 5.453 3.33 1.396.805 2.825 1.605 4.15 2.412.455.277.963.596 1.496.725.259-.539.145-1.182.145-1.787 0-3.322 0-6.572 0-9.893 0-.859.236-3.256-.096-3.859-.157-.285-.873-.473-1.351-.676-2.5-1.067-4.798-2.096-7.142-3.137-.962-.428-1.989-.717-2.799-1.351-.087-2.342-.048-4.996-.048-7.383 0-.812-.111-1.658.145-2.365 1.011.113 1.883.635 2.799.965 1.892.685 3.698 1.389 5.501 2.076.905.344 1.801.826 2.799.916.268-1.135.128-2.396.097-3.668-.098-3.951.147-8.219-.097-11.822-.857-.396-1.849-.498-2.799-.725-1.912-.451-3.836-.949-5.743-1.398-.937-.221-1.954-.328-2.75-.82-.168-2.068-.096-4.774-.096-7.094 0-.795-.085-1.615.193-2.268 1.922.281 3.772.598 5.598.965 1.817.365 3.618.865 5.549.916.32-1.217.084-2.529.097-3.859.026-2.607 0-5.336 0-8.012 0-1.34.145-2.69-.193-3.859-6.241-.2-12.937-.05-19.304-.05z" fill-rule="evenodd"/></svg>