<svg enable-background="new 0 0 40.126 41.279" viewBox="0 0 40.126 41.279" xmlns="http://www.w3.org/2000/svg"><path d="m19.98 0c.087.117.162.242.231.372.271.449.617.854 1.021 1.189.23.213.504.373.73.59.149.144.304.288.413.466.109.179.238.35.296.555.075.208.067.431.063.649.198-.112.413-.19.623-.277.223-.094.467-.128.708-.125.175.001.352-.008.525.03.177.036.339.117.507.179.12.043.233.102.337.176.165.118.35.207.507.338.183.148.322.34.448.537.197.305.288.673.278 1.035.003.354-.105.709-.31.998-.213.351-.554.59-.84.876-.013-.233.01-.469-.045-.698-.054-.268-.164-.535-.372-.72-.218-.182-.559-.181-.775.002-.194.173-.321.411-.391.659-.139.554-.082 1.132-.026 1.693.08.53.288 1.028.424 1.544.809-.001 1.618.009 2.426.001.218-.011.399.132.561.259.065.046.05.136.057.206-.006.545-.001 1.091-.003 1.637-.223.076-.457.117-.674.208-.111.045-.218.099-.326.15-.356.161-.67.408-.94.688-.007.136.055.262.1.387.091.218.139.449.207.675.064.218.153.428.209.649.053.208.117.412.195.612.104.27.144.56.252.829.102.256.141.532.234.791.135.371.226.757.358 1.129.123.426.263.846.383 1.274.067.255.173.499.234.757.066.281.195.543.255.825.019.09.061.173.092.259.162-.493.228-1.01.365-1.509.091-.358.163-.72.252-1.078.099-.315.145-.644.21-.967.051-.269.141-.528.188-.797.074-.333.142-.667.225-.997.1-.475.164-.958.295-1.426.078-.429.149-.86.234-1.287.062-.365.163-.722.204-1.09.02-.204.084-.401.094-.606.03-.417.084-.834.076-1.253 0-.286.005-.571-.004-.856-.02-.316-.044-.632-.081-.947-.024-.16-.077-.314-.092-.475-.036-.328-.118-.646-.215-.957-.086-.251-.143-.513-.26-.753-.106-.215-.169-.449-.294-.654-.155-.3-.317-.6-.531-.863-.209-.222-.422-.44-.638-.654-.057-.059-.106-.125-.156-.19.292-.063.593-.103.892-.072.172.019.346.03.515.07.12.028.233.077.348.12.122.046.248.083.363.148.118.065.231.139.354.195.541.257 1.022.637 1.407 1.095.332.393.599.837.841 1.29.067.153.099.32.183.467.139.253.203.536.309.803.113.288.171.591.265.885.072.233.124.472.18.709.025.12.057.242.053.367-.038.076-.116.118-.181.165-.23.148-.431.336-.615.537-.104.114-.178.251-.271.375-.12.16-.203.343-.291.522-.223.508-.239 1.088-.112 1.623.024.095.074.18.119.266.129-.099.283-.175.381-.309.181-.249.399-.472.545-.745.109-.232.218-.467.268-.72.054-.241.117-.484.103-.733.012-.278-.021-.553-.054-.828.311.01.624-.018.934.024.351.035.703.078 1.041.182.158.05.317.092.476.138.278.08.527.233.78.37.187.106.383.196.553.329.133.103.272.199.388.322.138.145.282.287.4.45.112.148.177.322.263.484.082.153.125.322.169.489-.234-.011-.468-.014-.702-.012-.675-.012-1.371.092-1.966.428-.256.154-.486.347-.711.543-.171.157-.351.305-.509.475-.169.182-.346.357-.499.553-.089.114-.183.222-.275.333-.193.249-.371.51-.556.764-.196.297-.372.606-.551.912-.074.135-.118.284-.192.418-.123.219-.237.443-.341.67-.249.651-.503 1.301-.729 1.961-.148.327-.226.68-.38 1.004-.095.219-.133.459-.233.676-.121.258-.156.547-.284.802-.09.196-.132.409-.203.612-.055.16-.131.312-.178.475-.053.18-.101.363-.172.538-.064.159-.113.323-.154.49-.072.285-.193.556-.243.846-.023.118.028.232.065.342.074.192.147.385.195.586.066.277.195.533.277.806.068.231.171.449.243.678.055.175.116.348.193.514.098.214.168.439.263.654.094.213.172.432.273.642.109.223.189.46.305.68.096.181.168.373.259.556.26.503.498 1.02.805 1.498.095.147.145.319.254.458.215.292.437.579.675.853.231.28.524.497.811.715.255.181.549.312.858.367.359.079.736.091 1.095.005.57-.12 1.114-.407 1.505-.843.297-.309.503-.697.608-1.112.092-.266.051-.549.071-.824.002-.512-.187-1.009-.465-1.433-.139-.228-.326-.423-.527-.597-.285-.233-.649-.354-1.013-.387-.164.003-.315.083-.453.165-.16.095-.29.231-.411.37-.163.184-.23.429-.285.663-.04.149.022.296.058.44.037.125.061.262.148.366.119.148.277.259.439.357-.117.038-.233.081-.355.101-.132.019-.265.01-.396-.004-.201-.027-.407-.023-.602-.086-.25-.079-.51-.14-.735-.28-.302-.188-.563-.454-.711-.78-.105-.184-.156-.393-.173-.603-.024-.278-.096-.556-.054-.835.031-.228.067-.457.151-.672.156-.366.387-.704.694-.96.24-.235.556-.364.862-.491-.32-.25-.664-.473-.954-.761-.171-.182-.328-.375-.483-.569-.129-.159-.228-.338-.341-.507-.117-.169-.16-.373-.255-.553-.104-.199-.182-.411-.267-.618-.105-.261-.16-.539-.208-.815-.028-.159-.087-.312-.093-.473-.007-.155-.037-.308-.037-.463.004-.488-.022-.988.115-1.462.068-.303.129-.611.261-.894.07-.148.122-.302.204-.444.049-.085.099-.171.141-.259.096-.21.248-.388.381-.575.287-.388.701-.655 1.123-.873.327-.142.675-.231 1.023-.298.22-.047.447-.031.67-.033.148 0 .295-.003.443.002.196.005.385.066.572.122.218.072.437.143.643.246.144.08.289.16.43.246.463.305.842.75 1.031 1.275.11.336.15.697.103 1.049-.077.385-.281.757-.606.988-.127.099-.274.173-.432.205-.34.07-.696.078-1.034-.007-.241-.062-.45-.218-.6-.414-.137-.193-.145-.445-.112-.67.041-.337.251-.632.515-.836-.039-.057-.077-.114-.12-.167-.341-.368-.851-.585-1.354-.54-.277.035-.555.11-.795.258-.145.088-.297.172-.416.296-.122.127-.253.249-.348.399-.11.178-.233.355-.285.562-.172.552-.103 1.147.056 1.693.036.133.099.257.158.382.069.144.095.305.161.451.139.287.32.551.53.791.21.265.475.477.731.695.352.282.74.515 1.134.735.969.589 1.882 1.293 2.607 2.171.288.376.592.75.78 1.19.068.145.155.283.199.439.042.145.086.29.138.432.098.28.116.579.164.87.039.227.031.458.058.686.011.229.017.46-.004.689-.028.192-.025.387-.053.579-.035.252-.059.51-.148.75-.058.154-.124.305-.179.46-.06.168-.157.318-.24.475-.084.158-.208.289-.315.431-.173.232-.406.409-.636.582-.226.146-.457.288-.711.381-.17.063-.326.159-.499.214-.246.078-.499.134-.749.196-.291.071-.593.061-.889.096-.258.032-.519.013-.777.017-.302.006-.604-.046-.888-.147-.199-.072-.407-.123-.595-.223-.172-.093-.338-.196-.499-.308-.133-.094-.28-.167-.403-.274-.105-.092-.22-.172-.344-.235.085.156.21.285.316.428.2.293.458.54.719.778.148.137.314.252.473.375.193.153.431.231.635.368-.081.284-.159.569-.272.843-.132.326-.178.678-.279 1.014-.099.325-.113.667-.134 1.003-.169-.125-.334-.257-.523-.351-.254-.146-.516-.277-.777-.411-.284-.141-.597-.203-.901-.283-.148-.042-.302-.038-.453-.037.005-.174.004-.348.026-.521.022-.178.024-.36-.007-.537-.061.214-.058.44-.117.655-.058.338-.186.657-.319.97-.068.141-.158.271-.232.409-.14.257-.359.459-.593.629-.305.254-.654.446-1.01.62-.335.163-.71.229-1.08.234-.279.006-.559-.054-.815-.164-.275-.14-.515-.339-.724-.565-.194-.199-.328-.445-.474-.679-.111-.196-.252-.374-.334-.584.108.035.214.076.314.13.23.126.489.177.741.241.3.077.62.118.924.035.181-.05.367-.09.535-.177.268-.135.491-.347.659-.593.163-.218.263-.475.358-.729.087-.283.14-.576.159-.871.037-.348.045-.7.003-1.047-.031-.523-.087-1.047-.213-1.556-.059-.309-.099-.621-.157-.93-.034-.285-.122-.559-.174-.84-.032-.154-.055-.309-.082-.463-.044-.239-.126-.468-.173-.705-.062-.309-.108-.623-.226-.916-.057.17-.102.344-.152.516-.052.179-.133.349-.188.527-.07.218-.111.444-.19.659-.105.277-.163.569-.27.845-.109.284-.181.581-.286.867-.076.213-.132.433-.194.651-.053.189-.135.367-.189.555-.096.331-.212.656-.309.986-.08.287-.176.569-.284.847-.063.018-.129.017-.193.019-.625-.01-1.25-.004-1.875-.009-.08-.345-.083-.701-.138-1.05-.041-.263-.049-.53-.097-.792-.092-.496-.144-.998-.23-1.494-.058-.428-.166-.846-.221-1.274-.053-.376-.178-.738-.236-1.113-.034-.19-.087-.375-.116-.565-.034-.224-.112-.439-.15-.663-.082-.369-.156-.74-.255-1.106-.089-.332-.153-.67-.257-.997-.068-.235-.102-.477-.177-.71-.086-.26-.143-.529-.218-.793-.043-.166-.108-.325-.154-.489-.067-.236-.126-.475-.209-.706-.109-.303-.188-.615-.309-.914-.093-.229-.159-.467-.253-.696-.372.006-.745-.006-1.117.003-.124.338-.262.672-.388 1.01-.087.278-.217.54-.3.819-.044.146-.093.29-.151.431-.099.24-.15.495-.239.739-.073.199-.15.397-.206.602-.103.371-.226.737-.322 1.111-.084.279-.182.554-.247.839-.056.253-.148.495-.204.748-.061.254-.106.512-.181.762-.08.284-.135.573-.19.862-.041.221-.117.433-.156.655-.071.329-.103.666-.195.991-.116.491-.166.994-.256 1.489-.056.204-.079.415-.098.626-.072.548-.127 1.098-.173 1.649-.182.005-.365.03-.547.014-.193-.018-.385.018-.578.004-.329-.037-.66-.009-.989-.024-.032-.124-.069-.248-.116-.367-.107-.26-.147-.541-.25-.803-.109-.28-.158-.578-.26-.859-.125-.339-.196-.696-.322-1.035-.121-.319-.184-.657-.305-.976-.1-.273-.157-.559-.258-.832-.064-.178-.109-.363-.164-.544-.062-.21-.14-.414-.196-.625-.035-.133-.077-.263-.125-.391-.05.106-.094.215-.122.33-.078.315-.155.63-.237.944-.099.396-.137.805-.251 1.197-.12.489-.164.994-.289 1.482-.04.186-.048.377-.085.564-.043.214-.06.432-.089.649-.03.211-.018.425-.042.636-.018.146-.015.294.003.441.033.372.043.75.139 1.113.136.444.346.886.703 1.196.227.21.545.295.849.29.229.007.449-.062.672-.1.234-.042.461-.123.669-.237.086-.05.183-.072.281-.086-.095.311-.148.641-.326.92-.155.293-.387.547-.676.711-.176.092-.355.185-.554.217-.223.045-.451.035-.677.037-.295.006-.585-.063-.867-.141-.156-.05-.322-.086-.456-.187-.185-.142-.385-.268-.547-.437-.299-.266-.524-.606-.695-.966-.122-.232-.191-.485-.286-.728-.079-.27-.147-.545-.185-.824-.023-.157-.063-.311-.076-.47-.017-.199-.02-.398-.044-.596-.077.325-.083.66-.115.991-.003.351-.005.702.006 1.052-.346.075-.702.118-1.03.257-.199.078-.411.124-.606.212-.171.076-.342.153-.513.229-.197.089-.377.209-.571.304-.023-.273.044-.544.01-.815-.021-.288-.055-.576-.132-.854-.076-.237-.114-.484-.188-.721-.047-.162-.112-.318-.177-.474.233-.105.475-.202.675-.365.243-.196.486-.396.688-.636.181-.213.367-.424.516-.661-.142.062-.275.142-.4.233-.497.345-1.088.532-1.683.614-.392.074-.792.072-1.189.065-.214-.005-.431.013-.642-.037-.21-.046-.428-.062-.631-.134-.157-.055-.317-.095-.477-.139-.224-.063-.426-.181-.636-.277-.372-.168-.686-.443-.943-.755-.297-.333-.529-.722-.696-1.135-.128-.274-.21-.568-.254-.867-.042-.294-.131-.585-.116-.885.014-.31-.025-.623.041-.929.042-.197.043-.4.085-.598.055-.269.089-.544.18-.804.089-.25.153-.509.271-.747.092-.188.176-.38.286-.559.303-.456.609-.917 1.005-1.299.312-.322.653-.614.998-.9.401-.318.825-.605 1.263-.87.11-.063.227-.112.336-.174.679-.378 1.253-.944 1.643-1.616.2-.293.331-.627.419-.969.091-.293.148-.595.189-.899.034-.437-.027-.884-.194-1.29-.101-.282-.274-.549-.521-.73-.16-.132-.351-.217-.532-.315-.308-.186-.689-.202-1.036-.142-.17.023-.312.128-.455.214-.153.092-.271.23-.376.372-.062.089-.124.182-.15.289.035.087.139.114.21.167.117.061.194.175.236.298.077.216.161.453.093.683-.054.174-.129.354-.277.469-.124.097-.26.183-.413.228-.15.043-.307.045-.462.057-.389.027-.801-.071-1.102-.328-.123-.114-.223-.252-.311-.393-.165-.288-.135-.629-.147-.946-.012-.232.037-.461.092-.685.045-.185.145-.349.234-.514.141-.264.366-.469.589-.664.211-.161.439-.304.687-.402.278-.113.567-.223.873-.223.499-.007 1.01-.029 1.493.118.162.053.324.105.486.157.184.059.345.171.514.263.192.105.36.248.536.378.27.203.499.454.699.725.154.183.261.397.382.602.108.187.178.392.257.592.114.291.179.599.217.908.02.17.084.334.083.507.001.181-.003.362-.001.544-.001.185.014.375-.03.557-.099.409-.107.84-.272 1.232-.096.222-.167.456-.28.671-.106.198-.198.405-.314.598-.085.142-.15.296-.249.429-.126.168-.241.344-.378.504-.132.162-.295.293-.435.446-.149.167-.365.245-.533.389.113.053.228.1.337.161.169.093.306.233.449.36.255.229.441.525.59.832.19.422.194.897.141 1.349-.022.445-.179.884-.457 1.234-.139.167-.316.296-.493.419-.162.113-.358.152-.542.214-.14.047-.285.091-.435.089-.306.001-.612-.001-.918 0-.108.004-.212-.024-.313-.058.064-.116.136-.228.216-.332.101-.132.179-.278.257-.423.051-.093.092-.191.115-.294.038-.172.075-.354.025-.527-.074-.266-.256-.499-.494-.638-.154-.106-.344-.132-.525-.151-.162-.017-.32.038-.468.099-.435.185-.785.534-1.024.938-.08.137-.171.269-.23.417-.046.113-.083.228-.126.342-.148.364-.133.764-.132 1.148 0 .157.044.31.096.457.075.217.129.445.246.645.124.208.269.405.441.578.2.205.422.408.702.492.241.072.489.117.74.135.245.018.488-.033.726-.085.141-.031.28-.072.412-.131.247-.109.496-.218.72-.369.107-.073.214-.146.318-.224.136-.1.237-.237.365-.346.31-.27.556-.603.798-.933.254-.345.448-.727.672-1.09.15-.281.306-.559.438-.849.152-.275.268-.567.409-.847.077-.164.135-.336.217-.498.128-.254.217-.524.332-.782.084-.19.155-.385.239-.574.094-.211.142-.438.238-.649.116-.258.183-.535.293-.796.085-.198.132-.408.196-.613.056-.187.162-.358.192-.553.03-.212-.026-.424-.1-.621-.106-.279-.151-.577-.264-.854-.105-.264-.187-.537-.282-.805-.12-.326-.202-.665-.332-.987-.079-.197-.129-.405-.218-.598-.096-.21-.141-.438-.226-.652-.115-.288-.188-.592-.317-.874-.125-.273-.191-.568-.307-.844-.097-.229-.152-.474-.252-.702-.068-.154-.121-.313-.174-.472-.059-.177-.171-.33-.244-.501-.081-.184-.188-.354-.275-.535-.062-.127-.139-.245-.21-.366-.267-.489-.576-.954-.906-1.402-.13-.205-.274-.401-.434-.583-.247-.316-.517-.612-.805-.891-.155-.14-.317-.27-.472-.41-.371-.305-.841-.449-1.302-.553-.354-.067-.717-.043-1.075-.046-.228-.003-.452.038-.673.087.052-.246.102-.495.22-.719.224-.527.636-.955 1.11-1.266.141-.089.294-.158.441-.237.276-.147.585-.211.881-.305.37-.118.759-.145 1.143-.185.187-.02.375-.012.563-.014.138-.001.282-.001.411.058.087.039.182.088.225.178.025.108 0 .22-.013.329-.038.247-.004.495.024.741.043.36.163.705.292 1.042.063.162.178.296.274.439.148.216.316.417.509.594.1-.077.205-.155.266-.269.144-.261.152-.567.146-.857.014-.354-.066-.715-.249-1.02-.286-.603-.804-1.063-1.362-1.412.097-.387.162-.781.273-1.164.091-.263.149-.537.244-.8.124-.317.215-.648.37-.953.092-.173.144-.365.245-.535.055-.095.106-.192.157-.289.078-.153.19-.284.277-.432.193-.316.436-.6.702-.858.278-.294.614-.528.968-.723.164-.084.341-.135.512-.205.231-.095.481-.124.727-.154.25-.034.501.007.749.032.175.019.316.129.448.235-.245.313-.575.551-.788.89-.164.23-.276.491-.418.735-.094.163-.143.346-.228.513-.148.307-.229.639-.333.962-.134.41-.181.84-.265 1.261-.084.341-.069.696-.11 1.043-.019.144-.019.29-.017.435.003.299-.021.599.022.897.022.355.032.712.098 1.062.06.308.078.622.151.927.059.242.083.491.149.731.063.238.082.485.126.727.046.245.075.494.144.735.082.289.106.589.174.881.052.253.13.5.167.756.078.501.221.989.322 1.486.071.271.1.552.181.821.118.426.168.868.3 1.291.092.322.107.666.247.974.09-.232.151-.474.239-.706.113-.297.16-.613.277-.909.119-.31.179-.639.298-.949.092-.247.143-.507.235-.753.097-.257.161-.523.234-.787.046-.171.129-.329.176-.499.063-.218.115-.44.195-.653.107-.288.17-.589.275-.877.078-.215.132-.437.198-.655.053-.178.137-.345.186-.523.047-.168.086-.338.15-.501.048-.124.081-.253.107-.383-.203-.196-.425-.373-.666-.52-.393-.198-.799-.404-1.246-.434-.003-.464-.004-.929.012-1.392.016-.221.027-.442.037-.663.793 0 1.586.007 2.38.007.132-.001.265.013.395-.007.052-.038.084-.097.112-.154.077-.173.112-.359.176-.536.043-.123.102-.239.145-.362.077-.225.139-.454.201-.684.047-.169.096-.34.102-.516.008-.257.014-.52-.063-.768-.061-.198-.119-.403-.241-.573-.079-.1-.174-.188-.276-.264-.09-.067-.205-.079-.313-.093-.15-.016-.301-.034-.45-.016-.231.023-.435.173-.561.363-.11.181-.195.387-.197.602-.002.143.003.287-.004.431-.193-.157-.363-.338-.527-.524-.142-.18-.28-.369-.36-.585-.046-.124-.096-.247-.134-.374-.062-.22-.041-.451-.022-.676.017-.204.112-.388.18-.577.062-.173.178-.317.284-.465.098-.137.22-.255.357-.352.383-.253.809-.451 1.261-.537.361-.033.738-.026 1.082.101.175.062.357.107.52.198.104.057.205.12.309.179.014-.219-.011-.442.041-.657.024-.108.056-.214.104-.314.148-.287.333-.56.574-.777.133-.12.298-.194.433-.311.332-.302.643-.632.897-1.003.113-.169.245-.323.358-.491.089-.127.148-.267.212-.402zm-1.462 2.297c-.22.149-.433.322-.569.555-.12.201-.239.416-.245.656-.003.236-.033.484.06.709.066.163.122.332.138.509.019.152-.01.305-.028.455-.087-.25-.188-.508-.385-.693-.172-.188-.394-.315-.613-.438-.205-.111-.436-.157-.657-.224-.257-.082-.533-.059-.794-.011-.277.08-.561.158-.808.313-.159.095-.324.191-.444.336-.104.124-.204.254-.278.398-.102.214-.169.445-.207.679-.043.242.035.481.104.71.058.196.183.361.307.52.055-.286.187-.558.392-.767.123-.116.283-.181.437-.244.209-.086.439-.073.66-.061.182.008.356.069.526.13.277.096.464.348.591.601.183.364.195.782.183 1.181-.006.226-.062.445-.098.666-.031.19-.106.369-.157.554-.055.197-.114.393-.196.581-.103.234-.17.481-.24.726.388.005.776-.004 1.164-.007.061-.209.114-.42.193-.623.104-.272.159-.559.251-.835.081-.245.13-.499.211-.744.17-.439.264-.903.414-1.349.019-.044.029-.1.073-.126.157-.023.317-.007.476-.011.591-.001 1.184-.003 1.775-.004.06.003.122.002.181.021.013.051.021.104.03.157-.526-.006-1.052-.002-1.579-.002-.266-.007-.53.025-.795.018-.08.313-.166.624-.272.93-.087.25-.135.511-.225.76-.083.233-.143.473-.201.714-.043.181-.134.347-.179.528-.046.19-.099.377-.156.564.116.001.231.002.347.005.059-.195.097-.395.167-.587.127-.342.18-.706.297-1.051.086-.262.149-.531.223-.797.093-.26.158-.529.234-.795.385-.025.771-.031 1.156-.002.358-.03.719-.014 1.078-.018.183.37.226.786.358 1.174.128.372.175.768.318 1.135.099.276.14.57.244.845.079.209.128.427.198.639.041.131.089.259.129.391.072.226.114.46.202.68.138.366.156.771.33 1.124.269-.309.53-.63.852-.887.064-.058.159-.128.134-.227-.042-.243-.124-.478-.206-.71-.091-.268-.144-.548-.239-.815-.106-.292-.163-.599-.267-.892-.114-.314-.187-.642-.299-.956-.078-.213-.116-.437-.152-.66-.035-.227-.04-.458-.009-.686.026-.191.04-.386.11-.567.082-.207.166-.413.28-.604.017-.003.052-.009.07-.012.033.032.065.063.098.095-.087.162-.184.322-.239.499-.092.309-.131.633-.117.955-.015.437.094.866.24 1.275.106.29.157.598.271.885.129.329.175.683.309 1.01.119.376.212.759.314 1.14.045-.034.092-.067.138-.1-.06-.23-.129-.458-.189-.689-.102-.38-.159-.775-.319-1.136-.093-.22-.142-.456-.246-.672-.115-.241-.172-.504-.219-.765-.042-.248-.119-.491-.116-.745.002-.267-.025-.542.057-.8.062-.199.109-.41.237-.579.074-.095.155-.184.242-.268.105-.099.242-.153.375-.204.179-.065.367-.117.558-.12.218.005.446.033.633.153.225.117.383.326.506.541.072.152.11.317.174.472.072-.095.138-.195.19-.302.08-.164.178-.324.209-.507.038-.21.041-.429-.001-.639-.034-.174-.12-.329-.195-.487-.151-.336-.445-.582-.749-.777-.171-.117-.37-.177-.556-.261-.204-.091-.432-.104-.653-.103-.271-.002-.527.1-.779.188-.204.075-.376.21-.556.326-.189.123-.35.288-.472.477-.087.134-.138.288-.202.433-.07-.223-.026-.46.025-.682.073-.221.137-.446.168-.677.028-.201-.027-.401-.08-.593-.065-.242-.234-.437-.393-.623-.168-.194-.419-.277-.609-.441-.148-.123-.293-.252-.41-.404-.128-.166-.268-.322-.392-.491-.136-.182-.254-.376-.39-.558-.424.59-.862 1.189-1.457 1.615zm-7.759 2.049c-.256.081-.521.151-.748.3-.163.109-.343.194-.491.324-.138.121-.277.241-.404.374-.267.291-.51.606-.719.942-.096.146-.161.308-.252.457-.071.116-.129.239-.18.365-.081.2-.181.393-.251.598-.046.134-.088.27-.142.401-.137.326-.205.674-.305 1.012-.076.261-.134.526-.18.794.293.181.542.424.778.673.259.301.486.636.628 1.008.092.267.162.547.157.831.009.344-.011.698-.15 1.018-.09.191-.236.366-.434.45-.184.077-.393.024-.562-.066-.307-.167-.533-.441-.751-.707-.202-.239-.341-.527-.431-.825-.042-.141-.095-.279-.139-.419-.111-.429-.125-.874-.099-1.314-.131-.006-.263-.005-.393.011-.263.031-.528.041-.789.088-.163.028-.317.092-.478.13-.183.044-.367.093-.536.179-.221.115-.465.191-.658.355-.293.199-.535.465-.733.758-.092.145-.149.309-.23.461.592.008 1.203-.035 1.772.161.373.098.724.272 1.034.502.338.307.696.593.993.942.154.185.328.356.454.562.126.208.299.381.435.583.176.255.358.507.519.772.254.398.468.819.698 1.232.098.209.201.414.299.623.155.373.299.751.421 1.137.122.275.216.56.313.844.119.273.188.565.306.839.086.205.137.423.225.628.114.269.181.555.289.827.066.165.122.333.174.504.057.194.141.379.203.573.059.181.114.364.18.543.131.355.221.724.345 1.081.079.236.128.48.194.719.04.143.133.269.15.419.033.246.109.484.188.718.105.317.153.65.265.966.107.313.157.642.269.954.045.128.086.257.119.389.092.372.218.735.318 1.105.032.121.071.24.115.357.091.24.133.496.225.737.122.328.186.675.31 1.003.115.313.177.644.3.955.105.271.147.562.255.832.115.285.156.593.273.878.111.278.168.574.266.857.092.265.172.534.242.806.026.078.042.175.12.219.092.028.191.016.286.015.283-.015.567.003.85-.023.02-.304.071-.604.107-.905.108-.477.128-.969.222-1.449.041-.21.054-.425.107-.632.089-.364.141-.735.203-1.104.041-.25.129-.49.168-.74.056-.347.13-.691.223-1.03.074-.332.151-.664.237-.994.106-.32.158-.656.268-.976.074-.218.121-.445.181-.667.051-.194.129-.379.183-.572.071-.234.121-.475.208-.704.069-.18.11-.368.161-.553.054-.198.146-.382.2-.58.081-.328.238-.63.33-.955.107-.332.275-.644.344-.987-.061.027-.117.069-.146.131-.155.29-.237.612-.378.908-.1.207-.143.435-.241.643-.122.26-.159.55-.268.815-.114.276-.169.571-.269.853-.08.222-.151.448-.202.679-.044.204-.125.397-.181.598-.06.205-.091.417-.16.619-.12.344-.174.705-.268 1.056-.131.43-.175.88-.29 1.313-.114.395-.168.804-.237 1.209-.034.205-.105.403-.134.609-.018.124-.034.25-.06.374-.072.339-.094.686-.175 1.024-.055.219-.069.444-.101.667-.042.252-.068.506-.109.757-.023.173-.032.349-.078.518-.291 0-.583-.008-.874-.002-.045-.117-.084-.236-.112-.357-.041-.179-.113-.348-.163-.523-.065-.219-.1-.446-.186-.658-.115-.278-.15-.581-.258-.861-.135-.355-.188-.735-.323-1.09-.102-.285-.152-.585-.259-.868-.12-.318-.161-.658-.28-.976-.103-.266-.137-.552-.238-.818-.111-.288-.163-.594-.264-.885-.134-.384-.219-.783-.362-1.164-.053-.144-.089-.294-.128-.442-.055-.209-.142-.408-.193-.618-.048-.196-.097-.393-.171-.581-.112-.29-.156-.601-.265-.891-.08-.212-.131-.433-.195-.65-.058-.202-.13-.4-.185-.603-.07-.232-.125-.469-.212-.695-.096-.282-.16-.575-.266-.854-.1-.253-.148-.523-.25-.775-.097-.238-.155-.49-.246-.73-.148-.402-.258-.817-.418-1.214-.098-.301-.236-.588-.326-.892-.061-.212-.177-.402-.243-.611-.04-.124-.085-.247-.14-.365-.097-.211-.172-.432-.276-.641-.107-.213-.182-.441-.296-.651-.115-.213-.216-.434-.337-.644-.102-.189-.234-.359-.334-.549-.088-.169-.205-.319-.3-.484-.209-.356-.471-.676-.721-1.004-.093-.123-.175-.253-.271-.373-.211-.273-.464-.509-.709-.75-.223-.208-.454-.409-.707-.58-.169-.116-.367-.175-.548-.267-.286-.141-.604-.19-.916-.235-.335-.048-.675-.01-1.012-.019.091-.13.167-.271.274-.388.211-.221.434-.435.695-.597.223-.137.448-.276.701-.353.536-.202 1.113-.294 1.686-.262.014.233-.012.466.009.699.001.221.076.43.128.643.044.167.085.335.158.492.056.121.127.233.193.349.081.139.157.285.271.401.264.276.572.525.937.651.183.066.395.132.582.044.145-.071.304-.144.39-.287.336-.519.388-1.177.266-1.772-.027-.204-.107-.395-.204-.576-.212-.486-.569-.891-.945-1.256-.137-.141-.336-.216-.446-.385.021-.138.079-.271.111-.41.118-.492.273-.975.451-1.448.107-.238.184-.488.298-.722.126-.237.222-.49.365-.719.222-.396.487-.768.795-1.102.302-.326.689-.558 1.086-.749.218-.119.456-.205.704-.231-.222.275-.448.551-.616.864-.122.191-.214.398-.309.603-.163.309-.271.642-.382.972-.077.229-.118.468-.192.698-.053.164-.072.335-.102.504-.081.395-.101.799-.138 1.2-.01.418-.001.837-.007 1.255-.006.282.035.561.065.841.024.252.08.5.104.752.021.215.082.424.113.639.035.218.074.436.107.654.04.263.129.516.171.78.042.247.091.494.163.734.04.13.074.261.094.396.041.272.099.542.148.813.038.214.108.42.141.635.037.238.082.475.13.712.037.188.098.371.131.56.024.14.05.28.082.419.053.226.07.459.134.683.094.32.149.65.209.979.044.248.135.485.176.734.043.262.094.525.173.78.117.381.177.777.3 1.156.099.341.15.693.261 1.031.104.305.154.625.255.93.12.36.154.742.286 1.098.107.371.193.749.313 1.117.098.3.129.618.234.916.109.314.153.647.273.957.127.33.168.686.297 1.016.095.248.134.512.219.762.117.335.206.68.309 1.019.056.163.116.326.159.493.075.297.22.571.303.866.184-.001.369-.003.554-.001.051-.199.102-.398.143-.599.063-.284.091-.576.177-.855.048-.15.085-.303.114-.458.077-.357.154-.715.255-1.067.113-.529.286-1.043.399-1.572.048-.242.142-.471.195-.712.065-.276.132-.552.227-.82.096-.277.148-.567.249-.842.063-.171.106-.349.156-.524.055-.196.159-.374.213-.57.053-.188.11-.375.192-.552.065-.14.112-.287.144-.438-.037-.01-.075-.02-.112-.028-.052.086-.099.177-.126.275-.061.211-.135.419-.218.623-.104.252-.173.517-.273.77-.098.246-.139.509-.238.754-.126.301-.183.625-.292.933-.12.333-.173.687-.298 1.018-.108.295-.158.607-.245.908-.057.176-.112.353-.151.535-.058.238-.094.481-.167.715-.105.342-.143.7-.23 1.046-.041.175-.095.348-.125.527-.03.168-.04.338-.059.507-.011.045-.005.106-.046.139-.091.039-.192.043-.289.058-.153-.311-.195-.657-.295-.984-.106-.272-.175-.557-.278-.83-.13-.354-.225-.721-.354-1.075-.092-.255-.143-.523-.236-.778-.058-.154-.102-.311-.142-.47-.056-.228-.156-.443-.214-.67-.067-.258-.128-.517-.209-.77-.073-.228-.135-.458-.189-.69-.041-.179-.113-.35-.157-.528-.041-.165-.073-.331-.113-.496-.043-.186-.116-.364-.159-.549-.066-.278-.138-.555-.222-.827-.082-.267-.12-.545-.212-.808-.053-.152-.078-.311-.112-.468-.103-.427-.22-.85-.308-1.28-.054-.229-.095-.461-.162-.687-.1-.337-.138-.69-.235-1.028-.146-.458-.184-.943-.319-1.404-.065-.213-.088-.435-.138-.651-.097-.393-.185-.789-.261-1.187-.059-.243-.079-.494-.151-.733-.066-.221-.105-.449-.143-.677-.065-.409-.167-.811-.235-1.22-.059-.285-.073-.577-.152-.858-.11-.383-.14-.782-.203-1.173-.034-.186-.02-.376-.056-.561-.035-.187-.05-.376-.047-.565.003-.237-.034-.475-.012-.712.024-.258.009-.517.014-.776.002-.185.065-.362.074-.546.012-.158.03-.314.057-.467.046-.258.07-.521.148-.771.091-.289.134-.591.248-.873.101-.242.162-.5.29-.73.117-.205.188-.433.316-.631.11-.173.201-.358.329-.52.14-.184.325-.328.468-.51-.223 0-.449.013-.662.081zm17.755-.072c.16.202.364.366.506.583.112.174.228.346.318.533.084.175.188.341.259.523.09.227.202.446.266.684.049.189.128.367.188.552.108.421.188.847.262 1.275.061.417.072.838.11 1.256.01.291 0 .583.001.874.001.229-.039.456-.039.686-.034.432-.067.866-.172 1.288-.047.36-.157.708-.195 1.069-.024.18-.086.352-.112.532-.048.337-.115.671-.186 1.004-.086.324-.145.653-.201.984-.034.202-.1.397-.143.597-.046.219-.097.437-.136.658-.035.2-.106.391-.142.59-.057.321-.12.641-.204.957-.094.337-.156.682-.231 1.023-.042.188-.112.369-.147.559-.045.243-.102.483-.154.725-.075.27-.149.541-.203.816-.022.111.048.208.089.306.158-.409.21-.849.329-1.27.146-.468.173-.962.319-1.43.122-.599.274-1.192.386-1.793.059-.261.088-.53.164-.787.057-.197.083-.4.12-.601.057-.325.158-.641.208-.967.047-.31.113-.617.204-.917.096-.375.175-.755.235-1.137.117-.517.188-1.043.272-1.567.025-.25.09-.493.123-.742.02-.132.013-.266.016-.398.003-.183.038-.364.038-.546.001-.295.006-.59-.03-.882-.007-.333-.044-.665-.114-.992-.041-.319-.108-.634-.172-.949-.042-.206-.134-.396-.189-.598-.043-.154-.089-.309-.16-.453-.109-.214-.158-.454-.289-.658-.106-.206-.222-.405-.351-.597-.117-.226-.308-.399-.457-.603.167.027.335.057.493.123.457.205.896.464 1.259.813.305.326.562.693.791 1.075.253.482.511.966.681 1.486.047.144.1.286.156.427.089.225.137.464.221.691.086.228.098.473.144.711.032.114-.067.199-.151.255-.248.165-.448.388-.647.608-.167.178-.306.378-.424.591-.181.282-.265.61-.354.93-.059.217-.049.444-.044.667.003.204.075.397.14.588.057.161.11.329.218.464.103.117.25.187.396.238.225.07.456-.013.662-.101.183-.075.338-.2.49-.324.179-.148.352-.309.481-.503.281-.412.488-.883.559-1.379.06-.32.027-.646.042-.97.288-.011.576.022.862.055.236.049.479.082.703.176.22.091.453.16.651.297.45.278.881.624 1.136 1.097-.26.012-.52-.01-.78 0-.316-.003-.623.086-.928.159-.465.153-.905.397-1.26.736-.212.183-.408.384-.609.579-.299.335-.603.667-.865 1.033-.125.181-.272.35-.364.553-.139.241-.301.467-.437.71-.094.174-.218.33-.309.506-.094.179-.207.348-.282.537-.086.211-.212.403-.292.617-.073.195-.175.378-.247.573-.088.234-.186.465-.286.695-.074.169-.114.352-.193.519-.114.229-.157.484-.266.715-.112.244-.157.511-.271.755-.129.284-.175.595-.3.88-.099.232-.138.484-.234.717-.074.179-.138.363-.188.55-.079.289-.195.567-.273.856-.034.107.017.214.047.316.2-.396.272-.841.446-1.247.088-.203.133-.421.218-.625.062-.149.114-.302.159-.457.07-.249.193-.48.258-.731.066-.253.204-.481.27-.734.077-.284.218-.544.296-.827.055-.206.165-.391.223-.595.042-.144.094-.285.153-.423.127-.295.2-.611.355-.894.081-.15.132-.315.214-.465.131-.233.24-.478.385-.703.188-.357.436-.678.626-1.033.087-.148.198-.28.295-.421.148-.21.325-.397.484-.598.109-.14.242-.258.36-.39.243-.277.523-.519.814-.745.168-.15.325-.316.521-.429.216-.12.432-.247.671-.316.345-.099.696-.201 1.058-.205.252-.028.505-.035.758-.024-.041-.167-.101-.329-.203-.468-.177-.289-.412-.541-.693-.73-.268-.202-.574-.348-.885-.469-.429-.127-.857-.279-1.307-.307-.232-.022-.464-.05-.698-.033-.003.175-.003.35 0 .526.006.285-.06.565-.127.841-.058.238-.152.466-.255.688-.081.18-.222.324-.33.488-.194.255-.402.512-.678.682-.136.086-.298.136-.459.125-.115-.009-.219-.069-.305-.142-.191-.157-.296-.393-.363-.625-.102-.429-.075-.881.019-1.309.109-.303.231-.607.42-.871.184-.305.441-.559.712-.785.114-.102.232-.2.359-.287-.052-.253-.143-.496-.184-.751-.034-.199-.056-.4-.125-.59-.096-.259-.147-.532-.265-.782-.11-.228-.162-.479-.289-.699-.102-.175-.167-.369-.271-.543-.12-.205-.249-.404-.379-.603-.386-.565-.896-1.052-1.504-1.372-.174-.085-.361-.142-.543-.208-.226-.097-.481-.082-.725-.122zm-18.942 1.094c-.164.107-.275.275-.397.424.204.01.41.012.614.009.054-.003.111 0 .162-.02.085-.129.141-.275.212-.411-.196-.008-.396-.032-.591-.002zm20.227.023c.065.145.127.291.184.44.258.001.517.005.776-.002-.072-.115-.153-.226-.254-.316-.059-.052-.118-.118-.202-.12-.168-.011-.336.001-.504-.002zm-20.926.792c-.079.111-.137.235-.208.351.322.008.643-.001.965.002.06-.134.116-.269.164-.407-.217 0-.434.007-.65-.013-.092-.002-.213-.024-.271.067zm21.277-.012c.043.122.058.261.141.365.081.024.167.027.251.031.239.005.478.006.716-.017-.064-.14-.147-.271-.248-.387-.286.004-.574-.006-.86.008zm-21.644.679c-.101.13-.179.276-.215.438.372.008.745-.001 1.118.007.045-.143.083-.289.105-.437-.336-.018-.672-.005-1.008-.008zm21.901.036c.023.15.063.296.108.441.372-.008.745.003 1.117-.011-.044-.152-.105-.297-.18-.436-.349.008-.697-.004-1.045.006zm-10.971.632c-.077.246-.124.5-.211.742-.104.307-.172.625-.261.937-.106.298-.19.603-.253.912.98.002 1.96-.003 2.94-.002-.067-.263-.127-.528-.213-.786-.118-.335-.192-.683-.296-1.022-.08-.256-.156-.513-.216-.775-.106-.013-.213-.026-.319-.016-.391.034-.781-.002-1.171.01zm-11.312.079c-.058.141-.106.285-.142.434.427.004.855.001 1.282.003.042-.144.067-.292.075-.441-.405 0-.811-.009-1.215.004zm22.488.026c.021.145.045.29.074.434.417.01.835.014 1.252.004-.031-.153-.085-.3-.158-.438-.389.002-.778.002-1.168 0zm-22.783.745c-.042.125-.079.252-.111.38.481.007.962.01 1.443 0 .003-.128.005-.256.009-.383-.447.004-.894-.004-1.341.003zm22.901.036c.013.126.025.252.034.379.48.001.959.005 1.439-.003-.034-.129-.074-.256-.118-.381-.243-.025-.486.016-.729-.002-.209-.018-.418-.007-.626.007zm-23.089.681c-.075.136-.128.282-.158.434.534.005 1.069.005 1.604.006.007-.137.023-.273.044-.407-.119-.016-.238-.033-.358-.031-.378-.001-.755.003-1.132-.002zm23.147.059c.012.134.027.268.043.402.141.007.282.014.424.012.394-.006.788.004 1.183-.005-.036-.142-.06-.292-.135-.419-.135-.026-.273-.011-.41-.012-.267-.001-.533.007-.8-.001-.103-.005-.204.008-.305.023zm-23.252.664c.131.161.303.28.443.433.253.013.506-.007.758.016.117.012.233-.003.35-.015.004-.138.003-.276 0-.413-.139-.011-.277-.025-.416-.023-.379.003-.757-.011-1.135.002zm23.583.026c-.096 0-.191.017-.285.03.002.137.002.274-.002.412.322.004.644.002.967.003.069-.004.151.004.2-.056.133-.138.283-.257.424-.386-.435-.001-.87.002-1.304-.003zm-6.645.577c.002.016.006.048.007.064.573.009 1.147.006 1.721.005.109-.001.217.012.325.024 0 .313.013.625.022.938-.005.073.011.154-.021.222-.081.067-.188.092-.285.129-.145.048-.277.125-.415.189-.229.101-.448.224-.652.368-.17.138-.359.25-.519.4-.145.125-.29.252-.413.399-.177.191-.295.426-.444.638-.268.377-.532.758-.797 1.137-.086.13-.16.267-.252.393-.192.266-.348.554-.529.827-.073.111-.132.23-.199.345-.353.578-.624 1.199-.952 1.791-.086.183-.168.37-.274.543-.192.376-.361.762-.56 1.134-.084.167-.151.342-.242.506-.106.186-.171.392-.268.583-.058.113-.111.228-.157.346-.065.167-.152.328-.186.506.139-.12.182-.305.264-.462.128-.254.246-.513.38-.764.074-.144.132-.295.211-.436.071-.125.136-.253.194-.385.078-.178.184-.342.262-.52.084-.191.199-.366.286-.555.09-.2.209-.385.302-.582.077-.165.183-.316.262-.481.053-.114.116-.223.182-.331.088-.143.148-.301.239-.442.197-.315.362-.647.561-.96.371-.626.759-1.243 1.193-1.827.131-.186.237-.391.396-.556.157-.16.28-.353.461-.488.175-.13.307-.306.477-.44.285-.225.606-.401.933-.558.203-.09.421-.136.635-.19.006-.496.003-.993.002-1.49-.143-.024-.287-.029-.431-.023-.572.004-1.146-.001-1.719.003zm-6.818.061c-.328-.002-.655 0-.983 0-1.115.013-2.231.003-3.346-.003-.045.312-.019.628-.047.941-.014.165-.01.331-.001.497.382.081.746.23 1.084.425.224.135.417.318.649.441-.025-.063-.048-.131-.102-.175-.229-.21-.492-.382-.769-.519-.22-.093-.44-.189-.668-.261.002-.414-.015-.828.023-1.241 1.827.022 3.655.006 5.483-.008.169-.008.338-.019.508-.017.543.001 1.085-.003 1.628.001.224-.004.447.019.671.007-.001-.022-.003-.066-.004-.087-.24-.043-.484-.023-.726-.027-.884-.006-1.768.002-2.652.004-.25-.012-.498.023-.748.022zm-9.367.103c.082.109.155.224.244.328.043.051.101.095.172.095.14.006.28-.009.421-.01-.002-.138-.013-.276-.031-.413-.269-.004-.537-.004-.806 0zm22.508.035c-.002.137-.005.274-.005.412.169-.008.341.018.508-.012.149-.088.221-.256.304-.401-.269-.007-.538-.007-.807.001zm-6.283.042c.023.11.027.228.084.327.1.064.229.032.341.039.466.006.931-.007 1.397.005.007-.109.031-.22.007-.328-.023-.053-.082-.046-.128-.048-.567.01-1.134-.004-1.701.005zm-10.864.128c.003.08.008.16.014.241.23-.012.461-.007.691-.007.908.008 1.817.006 2.725-.001.26.012.52-.014.78-.021 1.352-.006 2.704-.012 4.057-.003-.022-.07-.04-.14-.053-.212-.622-.038-1.245-.02-1.866-.024-.645-.007-1.289.031-1.934.021-.769.007-1.538.009-2.306.016-.294.02-.588-.01-.882-.003-.409-.004-.818-.003-1.226-.007zm4.685.503c-.494.012-.989.001-1.483.013-.409.037-.82.016-1.23.024-.276.009-.552-.007-.828.005-.004.101-.017.204.001.305.116.123.278.189.418.282-.006-.048-.012-.096-.017-.143-.087-.048-.179-.09-.255-.155-.058-.048-.05-.132-.069-.198.203-.021.405.013.608.004.432-.007.864.014 1.295-.021 1.746-.013 3.493-.017 5.24-.011.002-.044.004-.089.007-.132-.732.001-1.465-.013-2.197-.005-.497.019-.995-.016-1.49.032zm-14.019.028c-.086.001-.174-.004-.255.03-.228.091-.454.204-.622.389.765.013 1.531.001 2.296.009-.003-.14-.006-.28-.011-.42-.303-.003-.607.015-.908-.019-.166-.018-.333.012-.5.011zm4.46.014c.046.136.075.281.148.407.086.043.188.017.281.022-.001-.145-.019-.289-.05-.431-.126.001-.252 0-.379.002zm4.861.03c0 .096-.007.193.013.289.066.087.188.104.29.118.217.012.435-.002.652.004.003-.137.004-.275.004-.412-.222-.035-.446-.028-.67-.029-.098 0-.194.014-.289.03zm11.019-.034c.029.114.056.23.081.345-.236.071-.424.233-.62.374-.198.151-.359.341-.543.507-.214.227-.42.463-.599.718-.219.355-.482.68-.689 1.042-.125.199-.261.392-.387.592-.226.396-.48.775-.694 1.178-.206.35-.403.705-.597 1.062-.13.203-.214.432-.342.637-.102.167-.165.354-.265.522-.129.214-.221.446-.347.662-.118.246-.252.484-.358.735-.083.204-.195.395-.272.602-.073.195-.182.374-.254.569-.132.346-.331.669-.396 1.037.125-.141.173-.328.262-.491.057-.108.1-.221.145-.334.059-.148.148-.281.212-.427.06-.133.113-.27.18-.4.098-.187.172-.386.271-.572.092-.172.162-.354.257-.524.097-.171.154-.36.254-.529.055-.094.106-.19.151-.29.101-.233.237-.449.337-.683.226-.435.45-.873.695-1.298.499-.907 1.099-1.753 1.648-2.63.299-.459.632-.899 1.023-1.283.278-.293.626-.508.983-.692.008-.142.008-.284-.001-.425-.044-.001-.09-.003-.135-.004zm.34.035c-.005.136-.006.272-.004.409.199.006.399.006.599.008.109 0 .222.002.325-.043.125-.053.253-.103.37-.174.076-.038.057-.135.072-.204-.454.009-.908-.001-1.362.004zm5.784.012c-.086.117-.073.27-.082.407.091-.003.182-.002.274.003.056-.139.116-.276.179-.412-.123-.008-.248-.023-.371.002zm3.443-.004c-.016.14-.033.281-.047.422.157.005.314.008.471.006.607-.005 1.215.013 1.821-.006-.074-.072-.15-.144-.239-.196-.19-.112-.389-.238-.618-.232-.463.007-.926-.009-1.388.006zm-17.458.586c-.155.341-.197.718-.316 1.072-.049.002-.098.003-.146.006.003-.185.028-.37.1-.542.069-.164.108-.337.133-.513-.029-.003-.088-.009-.117-.012-.137.41-.181.851-.376 1.241-.028-.012-.083-.036-.111-.048.048-.412.218-.797.29-1.204-.06.019-.124.047-.135.116-.085.293-.153.59-.242.882-.041.131-.059.276-.152.383-.054-.019-.088-.069-.082-.125.001-.091.027-.179.05-.267.057-.205.101-.413.167-.615.038-.128.106-.264.038-.394-.101.136-.123.307-.164.467-.081.353-.207.693-.301 1.043-.045-.014-.098-.015-.135-.047-.021-.091.017-.179.045-.263.072-.191.104-.394.158-.59.048-.197.115-.389.156-.587-.039.022-.1.027-.115.078-.058.149-.079.309-.125.462-.051.194-.143.376-.171.575-.031.22-.09.436-.164.646-.105.289-.162.594-.279.88-.105.248-.148.516-.245.768-.105.278-.174.567-.268.849-.121.367-.21.744-.348 1.105-.097.267-.135.551-.245.813-.1.241-.149.5-.235.746-.125.358-.211.728-.344 1.084-.079.207-.123.425-.182.638-.047.172-.133.329-.179.501-.058.209-.112.419-.188.623-.042.119-.093.24-.09.369.001.082.028.16.055.237.133.357.194.737.327 1.094.127.385.211.784.372 1.157.057-.178.102-.359.168-.534.06-.16.104-.331.212-.468.113-.146.25-.273.401-.38.146-.104.32-.155.482-.229.172-.077.358-.126.547-.134.43.006.86.013 1.29-.003.859-.013 1.718-.01 2.577-.02.249-.002.498.008.746-.008.242-.016.485-.005.727-.012-.079-.199-.178-.389-.257-.587-1.308.006-2.616.003-3.925.011-.238.007-.477.047-.715.012-.189-.026-.348-.142-.492-.259-.129-.123-.194-.295-.252-.459-.036-.09-.003-.184.027-.27.104-.28.169-.572.226-.864.031-.152.083-.297.118-.447.044-.196.081-.394.121-.591.04-.198.116-.386.172-.579.073-.237.115-.482.198-.715.077-.217.133-.44.19-.662.044-.174.115-.34.162-.513.046-.168.087-.338.135-.506.06-.218.143-.428.198-.647.043-.172.082-.345.145-.511.128-.338.193-.695.311-1.036.085-.295.163-.592.241-.889.053-.167.113-.331.161-.498-.071.042-.148.072-.229.087.007-.111.018-.222.027-.333-.104.271-.172.553-.264.827-.095.283-.133.583-.245.86-.088.222-.131.457-.198.686-.043.149-.103.292-.142.442-.077.281-.144.565-.237.842-.1.302-.158.618-.271.916-.068.183-.102.376-.155.563-.073.265-.171.524-.219.795-.032.175-.074.347-.136.514-.129.34-.182.702-.303 1.045-.065.181-.107.368-.157.554-.049.189-.149.364-.164.561-.011.124-.03.248-.026.373.015.178.063.363.181.502.085.106.206.173.321.24-.013.026-.039.079-.052.105-.276-.026-.493-.261-.563-.52-.046-.182-.079-.373-.054-.561.039-.327.145-.64.236-.955.126-.363.194-.742.321-1.104.099-.329.191-.661.299-.987.086-.26.099-.538.188-.798.108-.32.176-.652.288-.971.081-.23.14-.467.199-.704.044-.178.116-.348.162-.526.065-.255.129-.511.224-.757.059-.155.098-.316.137-.476.057-.239.148-.468.205-.707.076-.281.146-.564.244-.838.045-.146.1-.291.123-.443.014-.051-.062-.044-.09-.062zm1.371.014c-.12.297-.182.613-.264.922-.036.138-.101.269-.128.41-.021.09.05.165.093.238.368.532.705 1.085 1.045 1.635.116.17.203.357.315.53.197.307.357.636.547.947.065.108.113.225.171.337.06.115.139.219.215.325.22-.391.433-.785.655-1.175.096-.148.178-.303.26-.458.494-.824 1.003-1.64 1.546-2.432-.087-.273-.171-.546-.241-.824-.035-.154-.078-.305-.126-.454-.301-.036-.604-.018-.905-.023-.746-.008-1.492 0-2.239-.002-.315-.006-.629.024-.944.024zm-15.062.083c-.083.011-.111.099-.153.159.331.005.663.03.989.088.172.03.329.108.492.167.161.058.335.047.504.045.337-.003.674.006 1.011-.002-.035-.15-.075-.299-.118-.447-.125-.017-.251-.025-.376-.02-.667-.001-1.334.001-2.001-.003-.117-.001-.234-.009-.348.013zm5.942-.011c.019.161.036.323.044.485.089-.007.178-.013.268-.018.008-.149-.016-.296-.058-.437-.085-.004-.17-.015-.254-.03zm5.536.038c.165.146.363.255.507.425.046-.132.085-.266.117-.401-.206-.038-.415-.027-.624-.024zm10.002.033c-.201.101-.385.239-.54.403.165.002.33.017.495.021.091.004.165-.055.235-.105.151-.116.315-.216.453-.348-.213.004-.435-.034-.643.029zm6.088-.009c-.026.15-.049.3-.058.452.088-.004.176-.008.265-.011.02-.146.042-.292.061-.438-.09-.001-.18-.002-.268-.003zm3.461.001c-.041.149-.085.297-.127.446.416-.001.833.003 1.249.004.214.003.406-.102.607-.158.378-.108.775-.117 1.166-.119-.036-.052-.063-.113-.112-.153-.107-.037-.223-.017-.333-.02-.817.002-1.634-.001-2.45 0zm-28.941.696c.122.111.245.22.374.324.064.051.137.099.222.105.177.017.355 0 .532-.005-.08-.137-.161-.272-.234-.412-.298.01-.596-.028-.894-.012zm3.897.014c-.018.139-.038.277-.066.415.149.005.299.008.448.007-.006-.141-.025-.281-.051-.419-.109 0-.22-.001-.331-.003zm14.621.044c-.131.097-.214.241-.301.376.178.029.359.027.539.026.122-.143.243-.288.367-.429-.153-.002-.306-.01-.458-.007-.051.001-.106-.001-.147.034zm6.833-.009c-.031.137-.055.276-.063.417.152.003.305.003.458.004-.002-.143-.024-.284-.052-.423-.115.002-.229.002-.343.002zm3.319.006c-.072.134-.141.27-.208.407.171.004.343.015.514.005.086-.001.156-.055.222-.104.127-.098.251-.2.373-.304-.301-.02-.601-.007-.901-.004zm-27.787.713c.112.138.233.269.356.397.202.004.404.005.606.001-.118-.099-.232-.204-.349-.305-.053-.043-.108-.094-.18-.094-.144-.009-.289 0-.433.001zm2.841.001c-.062.134-.126.267-.189.401.304-.008.61.028.913-.02-.028-.128-.055-.255-.08-.383-.215.002-.429.002-.644.002zm14.224.039c-.113.093-.171.233-.237.359.191.01.382.007.573.003.091-.138.192-.269.296-.397-.154-.001-.308-.008-.461-.005-.059.003-.125-.001-.171.04zm7.281-.009c-.03.133-.056.267-.079.402.304 0 .608.008.913-.004-.064-.138-.139-.27-.222-.396-.205.002-.409.001-.612-.002zm3.026.005c-.09.004-.163.061-.229.116-.108.091-.212.185-.316.278.184 0 .37.016.555-.001.087-.008.148-.078.206-.137.079-.088.16-.175.245-.258-.155.004-.308-.011-.461.002zm-8.588.377c.035.179.095.352.146.527.103.31.17.631.284.938.119.321.174.663.301.982.087.224.115.466.197.692.067.187.133.374.184.567.103.383.25.753.342 1.14.044.192.133.369.187.558.063.209.106.425.189.628.118.283.163.59.279.874.104.259.152.536.256.795.081.209.13.428.202.64.051.154.107.307.158.462.066.196.107.4.188.592.102.247.153.511.258.758.128.302.207.623.323.93.102.274.176.559.295.827.086.195.132.405.216.601.117.269.204.55.332.814.121.308.273.603.372.919.073.234.187.452.269.683.046.129.099.256.158.381.076.157.116.329.194.485.053.107.106.214.148.327.077.211.183.408.271.614.115.263.253.515.37.777.251.516.532 1.018.844 1.501.134.195.29.376.417.576-.043.031-.086.062-.129.094-.282-.309-.508-.664-.725-1.02-.118-.18-.197-.382-.313-.564-.211-.384-.385-.787-.588-1.176-.08-.162-.135-.335-.219-.495-.065-.122-.122-.249-.167-.379-.064-.187-.161-.359-.23-.543-.092-.246-.2-.484-.288-.731-.072-.204-.183-.392-.246-.6-.087-.324-.271-.609-.371-.928-.156-.376-.314-.753-.45-1.137-.058-.177-.11-.356-.185-.527-.112-.252-.167-.525-.272-.779-.111-.263-.169-.544-.275-.808-.105-.268-.182-.546-.272-.819-.09-.223-.162-.452-.228-.682-.057-.207-.15-.401-.205-.608-.033-.122-.071-.241-.115-.359-.113-.296-.161-.611-.28-.904-.096-.292-.169-.591-.276-.88-.115-.305-.174-.627-.288-.932-.11-.29-.158-.598-.273-.886-.118-.293-.164-.609-.279-.903-.087-.224-.127-.462-.199-.69-.043-.144-.101-.284-.143-.428-.075-.253-.132-.512-.227-.76-.084-.22-.141-.45-.194-.679-.024-.11-.067-.215-.123-.312.001.2.082.385.127.576.027.11.035.223.047.336-.078-.021-.155-.042-.232-.062.022.088.05.175.061.266.017.072-.047.123-.078.181-.122-.159-.181-.354-.213-.549-.023-.105-.023-.229-.112-.304-.01.238.093.459.138.689.031.168.107.323.139.49-.027.066-.105.075-.162.103-.133-.319-.157-.673-.311-.984-.004.082-.008.166.005.249.072.388.232.757.275 1.151-.027.014-.082.041-.109.055-.042-.06-.09-.119-.106-.191-.079-.317-.137-.64-.233-.953-.067.105-.021.228.004.339.058.225.104.453.172.676.045.145.073.294.1.444-.024.011-.071.034-.095.045-.02-.011-.059-.033-.079-.044-.11-.384-.155-.783-.283-1.162-.033.034-.066.069-.098.104.185.552.286 1.127.439 1.687.057.23.144.45.206.678.068.245.129.492.21.733.104.314.168.64.277.953.101.291.144.599.249.89.069.201.093.413.131.622.033.196.043.409-.046.592-.095.188-.287.296-.473.376-.277.112-.583.109-.877.101-.439-.003-.879-.002-1.318-.006.029.218.169.397.232.605.017.007.053.021.07.027.171-.019.343.009.514.008.344-.001.687.005 1.031.005.198 0 .398-.016.595.019.228.033.439.131.642.235.078.043.164.085.217.161.022.055.031.14-.039.164-.167-.072-.303-.202-.474-.267-.277-.127-.588-.123-.887-.133-.532-.003-1.063-.009-1.595-.007.022.05.027.115.072.151.143.036.292.019.438.022.192-.004.384.02.576.022.237.004.474-.005.711.003.416.03.83.163 1.167.414.235.154.396.399.492.659.071.224.124.455.216.672.09.225.132.465.211.695.053.158.132.307.181.467.048.156.094.313.153.465.091.23.15.47.246.698.106.255.172.524.274.781.07.174.117.356.181.532.1.266.197.532.274.805.075.279.196.544.262.826.043.185.086.372.153.55.108.347.172.706.272 1.055.05.178.073.361.111.542.077.355.14.713.226 1.066.062.349.111.7.177 1.048.109.515.199 1.036.222 1.563.06.461.06.929.003 1.389-.039.587-.218 1.169-.551 1.656-.183.266-.428.484-.698.659-.12.076-.259.114-.393.159-.153.05-.306.109-.468.122-.368.021-.744.01-1.099-.099.198.252.444.466.725.621.222.109.47.167.718.162.296.002.602-.035.867-.175.103-.056.207-.11.311-.163.175-.089.324-.219.48-.335.181-.137.307-.33.433-.514.113-.167.193-.352.282-.531.118-.241.175-.505.262-.757.073-.214.088-.442.129-.663.057-.293.023-.592.036-.887.015-.644-.059-1.289-.22-1.913-.048-.185-.094-.371-.111-.561-.024-.237-.1-.464-.158-.693-.052-.205-.125-.407-.133-.62.085.135.162.276.242.415.09.156.143.329.229.487.057.104.109.21.149.322.091.253.213.493.311.743.089.226.211.439.278.673.052.182.119.359.173.54.122.454.174.922.251 1.385.012.338-.006.677.001 1.015.189.038.382.069.564.135.198.073.407.121.591.228.195.115.412.187.606.305.03-.19.04-.383.079-.571.105-.464.194-.934.37-1.377-.332-.138-.621-.358-.884-.599-.144-.14-.248-.316-.392-.456-.14-.135-.247-.298-.358-.455-.15-.192-.277-.4-.413-.601-.193-.332-.375-.67-.558-1.006-.094-.173-.153-.362-.241-.537-.098-.191-.17-.394-.262-.587-.102-.213-.159-.443-.253-.658-.073-.168-.114-.347-.17-.52-.035-.11-.061-.221-.078-.334.291.484.522 1.002.789 1.5.266.471.564.936.974 1.296.145.127.282.263.439.376.143.104.281.215.417.329.144.12.309.212.464.317.169.116.345.22.525.317.218.118.459.184.693.263.208.07.427.097.645.105.249.007.5.008.748-.027.341-.036.667-.149.997-.236.219-.058.417-.171.625-.258.17-.072.324-.173.484-.264.133-.077.258-.168.371-.273.221-.21.437-.431.592-.697.154-.232.253-.493.366-.747.096-.235.133-.489.177-.737.082-.561.159-1.135.067-1.7-.041-.348-.057-.699-.142-1.04-.054-.313-.176-.608-.293-.901-.166-.359-.377-.697-.62-1.009-.121-.151-.227-.313-.361-.453-.138-.145-.257-.308-.404-.444-.658-.598-1.356-1.16-2.133-1.595-.481-.24-.907-.576-1.285-.957-.192-.207-.365-.431-.524-.664-.133-.181-.225-.386-.338-.579-.104-.175-.138-.378-.212-.565-.046-.116-.095-.232-.122-.354-.05-.226-.118-.451-.123-.684-.008-.284-.044-.573.026-.852.052-.219.095-.444.199-.645.123-.269.282-.524.487-.738.143-.13.305-.24.473-.336.181-.095.359-.2.555-.262.352-.116.732-.128 1.096-.074.199.032.4.07.583.158.199.098.403.197.566.35.182.148.322.339.452.533.08.12.127.258.176.393-.179.001-.368-.01-.532.074-.103.063-.172.167-.236.266-.11.173-.123.387-.107.586.007.11.095.19.169.262.157.155.397.222.611.167.401-.072.73-.39.862-.769.056-.163.097-.334.094-.507-.001-.146-.034-.289-.06-.432-.035-.186-.083-.371-.174-.539-.109-.199-.232-.396-.404-.547-.156-.156-.346-.269-.532-.383-.149-.09-.316-.136-.476-.2-.152-.061-.311-.114-.476-.114-.407.001-.821-.024-1.218.081-.175.049-.349.099-.52.158-.16.054-.301.149-.449.228-.088.047-.174.098-.253.16-.24.188-.467.399-.632.658-.157.202-.273.43-.398.652-.086.157-.108.338-.181.501-.095.21-.145.436-.191.661-.039.192-.045.388-.085.58-.053.255-.029.517-.03.775-.002.217.052.429.072.644.022.218.069.433.118.646.049.221.154.425.199.647.036.2.159.366.242.547.094.211.233.397.347.597.183.274.399.526.637.754.173.18.356.35.564.489.163.108.315.236.496.316.087.044.187.023.279.015-.208-.143-.435-.255-.642-.399-.256-.193-.476-.427-.698-.658-.175-.179-.32-.383-.47-.582-.13-.17-.24-.353-.348-.536-.094-.158-.14-.337-.205-.507-.061-.162-.148-.315-.182-.485-.034-.163-.052-.329-.097-.489-.123-.4-.179-.82-.172-1.238.003-.292-.027-.594.09-.869.011.098.015.197.019.296.006.194.047.385.061.578.009.147.034.292.052.438.026.192.026.388.072.577.035.157.096.307.149.46.057.16.102.324.161.484.049.136.12.262.182.393.243.517.585.983.975 1.399.368.375.782.709 1.243.962.079.045.16.091.25.112.317.063.655.034.955.172.142.064.29.116.432.181.48.25.896.62 1.209 1.062.117.149.22.31.285.489-.15-.142-.282-.302-.435-.44-.324-.288-.682-.543-1.084-.708-.232-.103-.469-.203-.723-.23-.226-.021-.451-.112-.678-.059-.175.037-.352.063-.528.093-.261.043-.496.169-.734.277-.325.15-.587.407-.802.688-.246.375-.353.832-.342 1.278-.002.21.015.423.083.623.091.255.218.509.433.683.321.281.742.41 1.155.484-.1-.111-.245-.195-.285-.348-.085-.268-.13-.555-.072-.833.066-.398.334-.742.669-.958.124-.081.243-.181.393-.21.364-.074.745-.111 1.112-.032.154.032.311.063.452.137.188.099.378.199.54.339.137.112.245.253.36.387.122.144.207.314.306.474.099.164.159.346.227.524.108.273.142.571.133.863-.007.24.024.486-.037.722-.086.347-.194.698-.41.989-.252.406-.611.736-1.014.988-.141.079-.293.135-.437.209-.279.146-.599.163-.905.208-.257.038-.517 0-.771-.041-.24-.048-.482-.099-.704-.203-.185-.085-.38-.154-.549-.269-.425-.274-.842-.578-1.162-.974-.217-.271-.427-.546-.63-.827-.234-.33-.435-.682-.627-1.038-.136-.202-.211-.435-.334-.644-.123-.213-.216-.442-.33-.66-.078-.145-.132-.301-.197-.452-.293-.624-.549-1.264-.794-1.909-.068-.16-.147-.317-.195-.486-.07-.237-.167-.465-.252-.697-.073-.195-.179-.376-.246-.573-.052-.148-.099-.296-.168-.437-.117-.238-.169-.501-.278-.742-.133-.295-.222-.607-.347-.906-.081-.194-.137-.398-.227-.588-.094-.197-.152-.409-.231-.612-.137-.354-.218-.725-.346-1.081-.103-.292-.158-.598-.271-.886-.095-.236-.13-.491-.227-.726-.081-.199-.131-.409-.187-.616-.057-.221-.154-.429-.209-.65-.102-.393-.243-.774-.348-1.166-.063-.235-.168-.456-.227-.691-.049-.194-.1-.387-.172-.573-.108-.282-.15-.584-.259-.865-.094-.244-.152-.499-.231-.747-.072-.242-.169-.477-.228-.723-.057-.236-.148-.463-.218-.695-.031.06-.062.118-.044.179zm-7.351.119c-.003.08-.021.17.028.242.266.46.543.913.799 1.379.306.492.578 1.005.857 1.512.125.197.215.413.334.614.061.106.113.217.165.328.029-.04.063-.077.085-.12 0-.059-.03-.113-.053-.165-.112-.225-.243-.439-.353-.665-.08-.166-.19-.316-.265-.485-.078-.177-.192-.333-.279-.504-.082-.16-.182-.308-.268-.465-.109-.207-.252-.392-.359-.6-.13-.209-.256-.421-.387-.629-.103-.147-.165-.324-.304-.442zm-10.816.194c.098.122.185.251.282.374.034.058.106.051.164.056.881.003 1.763-.001 2.644-.001-.023-.143-.05-.286-.079-.428-.278-.012-.556-.017-.834.003-.237.018-.474-.018-.712-.013-.488.007-.977-.007-1.465.009zm15.986.01c-.095.137-.193.272-.284.412.183.011.368.011.552.004.096-.135.204-.262.28-.41-.182-.006-.365-.005-.548-.006zm7.603.034c-.078.124-.088.276-.118.417.589.006 1.177-.001 1.766.003.328-.004.656.005.983-.007.099-.147.224-.275.316-.426-.433-.011-.866-.005-1.298-.006-.328.003-.657-.006-.984.013-.222.013-.448-.048-.665.006zm-23.028.684c.091.139.184.277.279.413.806.013 1.613.003 2.42.005-.007-.142-.037-.282-.074-.419-.875-.003-1.75-.007-2.625.001zm9.975.001c-.029.098-.065.195-.072.298-.009.069.057.127.122.132.229.022.459.004.687-.014-.059-.109-.114-.221-.182-.324-.028-.038-.055-.086-.108-.086-.149-.019-.299-.006-.447-.006zm4.975-.004c-.083.145-.178.284-.282.416.187.006.374.005.561.001.095-.133.182-.272.261-.415-.18-.006-.36-.006-.54-.002zm7.902.029c-.057.134-.073.28-.103.422.654.006 1.308.001 1.962.002.142-.003.286.016.426-.01.155-.088.218-.268.276-.426-.607.026-1.214.013-1.821.018-.158-.001-.316.003-.474-.007-.09-.007-.179-.016-.266.001zm-13.058.575c.036.211.194.367.296.546.136.237.28.468.411.708.124.195.22.406.35.597.098.145.167.308.255.46.054.093.106.187.156.284.09.179.203.346.285.53.104.21.196.427.334.617.015-.077.05-.159.02-.236-.082-.229-.215-.435-.329-.648-.128-.244-.262-.485-.393-.727-.321-.519-.598-1.064-.934-1.575-.128-.193-.229-.407-.396-.57-.014.002-.042.01-.055.014zm-9.306.15c.08.137.165.271.25.406.53-.001 1.06.005 1.59-.001.175-.004.353.02.526-.011-.001-.139-.058-.268-.102-.396-.754 0-1.509-.005-2.264.002zm9.736.001c.075.14.157.277.25.407.215 0 .43.001.645-.007-.061-.136-.128-.269-.199-.399-.232-.006-.464-.004-.696-.001zm4.251-.007c-.09.125-.165.261-.22.406.171-.002.347.028.516-.012.099-.115.155-.259.232-.388-.175-.005-.352-.006-.528-.006zm8.206.036c-.034.13-.059.263-.07.398.65.016 1.3.004 1.95.012.056-.004.117.001.167-.029.09-.114.139-.254.21-.379-.752-.006-1.505-.001-2.257-.002zm-7.045 1.023c-.213.325-.395.668-.585 1.006-.107.169-.181.355-.286.526-.102.165-.171.347-.266.515-.157.278-.285.571-.429.857.237.516.458 1.039.703 1.552.093.197.145.419.288.59.094.019.192.01.288.011.227-.006.452.028.679.022.223-.004.447.005.67-.001.246-.015.507-.038.714-.184.084-.053.15-.138.159-.239.034-.301-.072-.592-.153-.877-.071-.241-.109-.492-.19-.73-.126-.342-.181-.704-.302-1.048-.192-.619-.312-1.258-.506-1.877-.104-.315-.162-.644-.281-.954-.186.265-.356.542-.503.831zm-5.959-.647c-.067.22-.111.447-.191.664-.116.316-.176.649-.287.966-.125.363-.187.745-.32 1.106-.079.226-.119.463-.19.691-.04.137-.095.269-.132.407-.077.299-.126.606-.221.9-.055.169-.089.344-.132.517-.022.098-.048.204-.017.304.037.072.1.131.176.162.077.025.159.019.239.021.566-.012 1.131-.012 1.697-.018.151.005.302-.005.452-.021.07-.131.14-.263.187-.404.101-.303.267-.579.368-.882.101-.255.227-.5.325-.756.021-.05.015-.105-.005-.153-.085-.211-.183-.416-.297-.612-.179-.387-.395-.755-.605-1.126-.256-.513-.587-.983-.855-1.49-.053-.1-.122-.188-.192-.276zm-8.71.32c.057.142.102.295.203.414.245.052.501.039.75.033.249-.029.498.016.747-.004.109-.007.219-.011.329-.012-.022-.143-.045-.286-.071-.428-.289-.023-.579-.006-.868-.009-.363 0-.726-.011-1.09.006zm9.7.017c.073.126.135.26.226.375.023.041.073.035.114.04.181.007.363-.003.544-.01-.069-.15-.151-.292-.237-.432-.216-.001-.433-.008-.647.027zm3.155.404c.157.003.315.018.473.003.04 0 .062-.038.084-.066.079-.114.137-.24.201-.363-.173-.009-.347-.011-.52-.006-.084.142-.168.283-.238.432zm8.707-.38c-.028.142-.058.283-.092.423.543.003 1.086.004 1.629.005.062-.002.126-.001.188-.014.096-.128.161-.276.251-.409-.157-.021-.315-.027-.473-.022-.395-.001-.791.005-1.186-.002-.107 0-.212.009-.317.019zm-21.19.69c.074.157.122.334.243.463.527-.03 1.056-.006 1.584-.016-.016-.154-.049-.308-.123-.445-.568-.002-1.136.001-1.704-.002zm9.763-.003c.078.144.134.305.243.43.192.042.392.007.588.013-.044-.156-.123-.298-.203-.438-.21-.007-.419-.006-.628-.005zm2.598.005c-.051.003-.077.052-.101.09-.061.109-.106.227-.157.341.165.001.332.025.496.002.122-.116.166-.287.227-.438-.154.001-.31-.014-.465.005zm8.687.031c-.044.144-.076.292-.084.443.534.007 1.069.003 1.603 0 .07-.145.133-.294.19-.444-.569.003-1.139-.001-1.709.001zm-10.867.722c.061.138.135.271.217.399.199.031.4.03.599-.003-.074-.136-.15-.27-.223-.406-.198 0-.396.001-.593.01zm1.747-.009c-.071.131-.133.266-.183.406.154.003.309.017.463.001.048-.006.078-.05.102-.086.058-.1.095-.21.138-.317-.173-.008-.347-.007-.52-.004zm-11.583.032c.057.138.119.274.182.409.48-.007.959.005 1.438-.009-.016-.137-.043-.272-.075-.406-.514-.044-1.03-.006-1.545.006zm20.519.018c-.03.136-.057.274-.066.414.281-.007.563.011.844.005.206-.004.414.02.618-.022.046-.134.098-.265.156-.394-.246-.019-.493-.012-.74-.013-.271.003-.542-.01-.812.01zm-26.174.208c-.182.079-.378.129-.546.239-.221.146-.448.295-.609.51-.161.178-.269.393-.369.609-.138.364-.151.763-.112 1.146.044.353.282.681.616.81.151.054.31.089.47.089.14.001.269-.061.384-.137.088-.059.179-.124.225-.222.067-.145.063-.31.052-.465-.015-.195-.154-.356-.313-.456-.114-.075-.252-.092-.383-.116.036-.111.069-.224.122-.328.219-.397.547-.737.95-.949.214-.112.455-.155.69-.198.113-.022.228-.007.339.015.243.048.491.091.718.196.329.161.674.323.922.602.172.242.339.492.451.768.088.248.183.5.193.767.014.391.025.791-.092 1.169-.086.27-.152.549-.278.804-.089.188-.156.385-.253.569-.09.174-.204.333-.321.49-.125.167-.251.335-.401.48-.278.269-.574.526-.914.712-.315.197-.652.356-.956.571-.17.125-.354.23-.52.363-.301.227-.581.48-.865.727-.307.293-.612.592-.86.939-.198.249-.373.517-.531.793-.123.255-.268.502-.34.779-.067.252-.147.502-.181.762-.024.18-.048.361-.072.542-.026.197-.013.396-.02.594-.008.219.002.439.001.659-.005.219.043.435.072.652.027.203.1.395.158.59.05.169.097.342.185.497.115.199.21.411.358.59.268.333.595.623.973.827.221.143.472.227.71.337.204.093.424.143.639.204.168.043.335.089.505.12.239.046.483.024.725.032.238.007.478-.021.707-.086.208-.059.419-.11.615-.203.187-.089.361-.198.528-.319.114-.082.242-.141.359-.219.231-.163.458-.33.681-.505.259-.19.487-.416.708-.648.147-.162.286-.333.398-.521.118-.199.249-.39.352-.597.13-.234.239-.48.369-.714.124-.221.199-.472.369-.665-.021.141-.063.278-.117.41-.083.206-.126.425-.213.63-.081.191-.156.385-.235.576-.068.167-.156.325-.221.493-.08.207-.195.396-.286.598-.093.204-.226.387-.325.588-.167.33-.383.63-.598.93-.286.375-.586.746-.951 1.049-.219.164-.432.344-.682.461.062.324.176.637.233.962.055.333.112.668.132 1.006.202-.127.432-.194.643-.305.195-.104.411-.154.616-.232.192-.076.399-.096.599-.145-.01-.722.05-1.448.232-2.148.061-.295.133-.59.25-.868.058-.138.1-.282.145-.425.051-.167.147-.315.202-.481.05-.149.099-.299.172-.438.106-.202.183-.418.3-.614.116-.194.184-.416.338-.585-.012.107-.032.214-.066.317-.123.352-.181.721-.266 1.083-.143.519-.205 1.056-.249 1.591-.016.169-.046.338-.044.508.003.251-.012.503.022.752.054.49.073.996.261 1.459.051.136.087.277.14.413.055.14.138.267.208.4.11.207.235.412.41.571.217.174.44.343.693.462.335.184.719.275 1.1.258.222-.014.448-.06.643-.174.126-.075.249-.156.367-.243.136-.101.239-.237.351-.362-.288.083-.589.099-.887.103-.206-.002-.409-.045-.604-.111-.163-.055-.33-.106-.475-.201-.297-.193-.561-.445-.745-.749-.109-.18-.222-.361-.285-.564-.077-.249-.151-.5-.178-.76-.071-.401-.034-.809-.044-1.214-.01-.283.031-.564.061-.844.028-.242.105-.476.13-.718.029-.304.115-.598.154-.9.031-.237.111-.463.149-.698.069-.312.093-.632.184-.938.108-.426.182-.86.313-1.28.092-.297.141-.608.263-.896.064-.162.128-.324.187-.488.047-.117-.018-.237-.045-.35-.21.357-.249.781-.399 1.162-.125.308-.164.641-.266.957-.104.319-.178.648-.245.977-.041.199-.113.391-.145.592-.048.306-.119.608-.179.912-.046.169-.082.341-.1.516-.059.358-.105.719-.132 1.081-.026.197-.055.395-.062.594-.029.248-.021.502-.101.741-.04-.038-.102-.059-.116-.117-.027-.097-.003-.197.009-.293.027-.173.003-.348.02-.522.04-.339.084-.678.12-1.017.014-.209.09-.406.116-.612.055-.462.162-.916.27-1.368.074-.367.137-.738.25-1.095.104-.374.171-.759.31-1.122.09-.251.136-.513.219-.766.119-.341.209-.693.352-1.025-.033-.015-.065-.03-.097-.044-.109.277-.169.578-.344.824-.035-.051-.107-.096-.082-.167.072-.321.243-.609.328-.925.034-.11-.004-.222-.03-.328-.085.171-.166.346-.212.532-.034.136-.087.267-.15.393-.052-.006-.103-.011-.155-.016.016-.092.033-.184.065-.272.092-.251.19-.501.271-.755.024-.078.05-.157.055-.238-.001-.085-.034-.164-.057-.243-.082.198-.126.41-.214.607-.058.128-.091.266-.154.392-.055.019-.128.021-.164-.032.017-.086.056-.165.087-.246.08-.193.12-.398.192-.593.047-.133.116-.258.154-.394.027-.098-.02-.195-.043-.288-.059.1-.108.205-.14.317-.08.263-.159.527-.28.775-.047-.005-.095-.011-.142-.015.034-.237.111-.463.2-.684.09-.212.145-.436.228-.65.032-.072.009-.15-.003-.222-.173.271-.184.619-.389.873-.032-.036-.062-.07-.093-.105.09-.276.162-.558.277-.824.03-.074.061-.148.081-.225.026-.087.001-.178-.012-.265-.019.002-.057.005-.076.006-.099.296-.168.602-.296.887-.102.238-.149.495-.259.731-.1.215-.146.451-.25.664-.112.235-.186.486-.294.722-.098.209-.179.425-.286.629-.109.201-.173.417-.279.614-.101.187-.169.39-.27.577-.056.104-.11.209-.158.317-.089.209-.228.391-.319.599-.145.258-.289.518-.456.764-.286.469-.623.906-1.007 1.298-.174.178-.37.331-.555.495-.14.126-.308.214-.465.317-.098.063-.202.115-.309.162-.176.075-.344.169-.531.216-.316.082-.644.135-.971.13-.419-.021-.842-.097-1.224-.28-.51-.219-.942-.596-1.269-1.041-.087-.122-.149-.258-.22-.389-.158-.294-.222-.626-.273-.952-.045-.292-.029-.591.03-.88.043-.33.157-.647.322-.936.137-.279.325-.53.532-.76.108-.119.236-.218.372-.302.173-.107.349-.218.547-.27.436-.132.906-.112 1.344.002.164.042.302.144.435.243.158.114.272.278.366.447.135.265.15.576.089.863-.042.293-.224.535-.347.798.118-.001.237-.01.351-.042.188-.052.384-.074.566-.148.171-.068.331-.16.48-.268.165-.122.269-.306.356-.488.07-.159.151-.317.168-.492.022-.224.057-.449.029-.673-.023-.171-.013-.35-.084-.51-.126-.268-.25-.547-.472-.751-.235-.208-.497-.39-.793-.498-.402-.188-.849-.235-1.287-.265-.161-.006-.32.021-.479.037-.267.032-.541.071-.783.196-.147.08-.311.131-.455.222-.254.171-.503.352-.726.561-.12.129-.221.277-.363.386.158-.35.383-.67.654-.943.314-.289.672-.543 1.078-.685.148-.055.294-.12.451-.148.149-.027.3-.047.451-.063.164-.017.34-.012.488-.098.27-.153.546-.3.785-.5.448-.345.816-.787 1.102-1.273.128-.211.205-.447.323-.663.11-.201.169-.423.246-.638.089-.251.154-.51.209-.77.055-.264.132-.525.159-.794.021-.226.062-.451.05-.678-.009-.158.007-.317.063-.466.032.233.071.467.067.703-.003.231.009.463-.028.692-.037.248-.06.498-.115.743-.072.325-.187.638-.294.953-.066.198-.161.385-.24.578-.041.1-.101.191-.165.277-.118.157-.202.336-.319.494-.164.239-.356.457-.543.678-.11.127-.238.236-.36.351-.158.15-.354.251-.515.398.1-.024.198-.059.282-.121.146-.104.305-.189.446-.3.247-.192.47-.412.674-.649.113-.129.198-.278.297-.416.066-.092.133-.184.19-.281.096-.166.211-.322.283-.501.086-.209.19-.41.265-.623.064-.172.101-.353.15-.53.117-.39.13-.8.179-1.201.031-.249.006-.5-.026-.748-.028-.307-.045-.619-.137-.915-.077-.248-.13-.506-.254-.736-.112-.203-.202-.42-.341-.607-.148-.231-.322-.443-.501-.651-.096-.111-.215-.199-.34-.273-.181-.105-.357-.224-.559-.286-.193-.061-.388-.111-.583-.164-.2-.054-.409-.051-.614-.065-.216-.015-.431.016-.646.012-.149-.003-.295.038-.431.098zm5.965.487c.045.148.098.293.152.438.343.004.686 0 1.03.002.1-.001.199-.014.298-.024-.028-.135-.045-.273-.093-.402-.066-.022-.136-.017-.204-.018-.395.006-.789 0-1.183.004zm10.927-.007c-.105.123-.16.279-.238.42.175.003.35.004.525.003.083-.137.159-.278.219-.427-.168-.009-.342-.041-.506.004zm9.156.039c-.036.14-.07.281-.103.422.301.027.603.008.905.016.14.005.28-.007.42-.023.051-.137.102-.275.15-.413-.458-.007-.915-.005-1.372-.002zm-19.781.722c.037.149.087.295.148.436.391.001.781.003 1.172-.003-.021-.136-.026-.28-.09-.405-.07-.039-.152-.036-.229-.036-.333.009-.667-.006-1.001.008zm10.254-.013c-.093.136-.168.284-.219.44.12.001.24.006.36.005.061-.002.134-.005.17-.063.079-.116.119-.253.173-.381-.161-.003-.322-.002-.484-.001zm9.357.036c-.04.136-.076.273-.107.412.091.018.184.036.278.034.304-.005.608-.001.912-.004.067-.14.12-.286.158-.436-.414-.002-.828.003-1.241-.006zm-19.342.715c.041.137.054.292.144.409.132.016.266.006.399.005.225-.009.449.021.674.003-.02-.141-.047-.281-.081-.419-.379.001-.757-.006-1.136.002zm9.435.407c.152.002.306.019.458-.001.052-.003.078-.052.1-.092.054-.109.09-.226.132-.339-.167-.002-.334-.002-.501-.003-.07.142-.134.286-.189.435zm9.742-.378c-.03.138-.055.277-.078.416.357 0 .715.006 1.073-.002.052-.136.101-.273.144-.412-.38-.004-.76-.004-1.139-.002zm-8.03.351c.022.117.086.221.136.328.114.221.193.459.307.681.074.145.131.297.191.448.067.177.158.344.222.522.084.241.198.47.277.714.079.239.197.464.276.703.042.128.083.256.134.38.115.273.166.567.279.841.076.182.128.374.178.565s.133.371.184.561c.069.254.133.509.223.757.115.314.149.651.259.967.184.551.276 1.126.406 1.691.076.367.188.725.251 1.095.066.274.097.556.164.83.08.303.115.615.166.923.017.147.045.294.096.434.153-.004.307-.006.46-.004.095-.259.179-.522.249-.789.051-.202.127-.396.183-.596.062-.211.108-.427.18-.636.14-.393.223-.804.361-1.198.088-.259.139-.529.232-.785.102-.272.146-.562.245-.835.085-.232.14-.473.207-.71.02-.08.041-.163.027-.245-.018-.098-.067-.186-.111-.274-.161.464-.247.947-.397 1.414-.092.309-.141.63-.258.932-.099.259-.139.535-.229.798-.097.285-.173.577-.246.869-.043.175-.107.344-.155.517-.064.222-.109.45-.189.667-.068.187-.12.38-.178.571-.08.001-.16.002-.239.004-.04-.281-.065-.565-.115-.845-.035-.259-.11-.511-.144-.77-.042-.3-.116-.594-.193-.887-.064-.319-.124-.639-.212-.952-.1-.307-.159-.625-.243-.937-.11-.408-.178-.828-.328-1.225-.1-.281-.156-.575-.269-.852-.108-.267-.171-.549-.275-.817-.109-.281-.182-.575-.296-.855-.099-.243-.168-.498-.275-.738-.105-.277-.207-.556-.33-.825-.115-.318-.258-.625-.385-.939-.13-.291-.24-.59-.378-.877-.142-.282-.247-.581-.403-.856-.019.079-.046.155-.045.235zm-1.864.335c-.076.139-.141.285-.196.434.161.002.323.002.484.003.091-.136.167-.281.204-.441-.164-.003-.328 0-.492.004zm1.678-.007c-.068.138-.119.284-.151.434.149.006.298.006.448.001-.044-.151-.105-.296-.176-.436-.04 0-.081 0-.121.001zm-10.693.011c.027.149.07.294.124.435.337 0 .674.007 1.011-.001-.045-.135-.07-.276-.125-.407-.106-.031-.218-.029-.327-.03-.228.003-.456.004-.683.003zm18.75.033c-.042.139-.075.282-.095.427.195.01.39.01.585.007.126-.003.254.012.38-.006.1-.118.113-.283.158-.426-.343-.011-.686-.003-1.028-.002zm-18.5.737c.047.144.054.315.162.429.293.028.589.002.883.012-.027-.149-.058-.296-.09-.443-.318.003-.637-.003-.955.002zm8.404-.002c-.021.057-.042.114-.062.173.185.012.37.016.555.007.016-.06.032-.12.047-.179-.179-.016-.36-.017-.54-.001zm1.895-.02c.057.149.125.293.198.435.195.006.39.007.585.004-.048-.129-.084-.265-.153-.385-.02-.046-.076-.048-.118-.053-.17-.011-.341-.001-.512-.001zm8.021.057c-.05.135-.089.274-.119.415.312.029.626.028.938.008.046-.14.085-.283.12-.427-.313-.002-.626-.001-.939.004zm-8.225.007c-.023.087-.068.181-.026.271.091.236.221.456.3.698.084.255.219.489.307.743.08.222.187.433.26.658.064.193.134.385.207.576.091.241.144.495.238.735.086.22.132.452.203.677.047.155.109.306.149.464.041.16.072.323.13.479.1.259.143.535.214.803.055.252.151.493.205.745.058.249.093.503.174.746.117.355.151.73.243 1.091.119.376.171.769.254 1.155.047.193.106.384.137.581.041.257.105.51.139.769.035.275.133.538.15.816.164 1.015.268 2.039.397 3.059.198.016.396-.007.593.01.158.01.317.015.476.032.045-.001.106.018.135-.032.044-.079.063-.169.089-.254.048-.182.121-.356.175-.536.079-.247.138-.5.238-.74.111-.27.149-.563.256-.834.111-.286.174-.587.284-.873.086-.23.143-.468.213-.703.043-.152.114-.295.159-.446.05-.168.085-.34.137-.507.056-.187.133-.367.188-.554.092-.324.212-.639.297-.965.063-.253.187-.487.246-.741.042-.172-.048-.335-.101-.493-.08.227-.151.457-.211.691-.056.229-.163.442-.213.672-.051.231-.145.448-.203.677-.067.253-.134.507-.228.751-.114.299-.159.619-.269.919-.1.273-.149.562-.253.834-.135.345-.2.711-.326 1.059-.099.275-.141.566-.251.837-.115.288-.177.593-.264.891-.026.082-.055.166-.109.235-.119.027-.242.015-.363.01-.176-.014-.351-.015-.527-.015-.022-.166-.044-.332-.059-.498-.025-.354-.125-.697-.152-1.05-.048-.34-.094-.68-.153-1.017-.049-.417-.102-.834-.182-1.246-.035-.181-.05-.365-.094-.543-.041-.167-.084-.333-.108-.503-.056-.485-.187-.956-.288-1.432-.085-.445-.186-.886-.304-1.324-.062-.215-.092-.438-.162-.65-.099-.348-.166-.705-.275-1.05-.104-.35-.179-.709-.308-1.052-.082-.221-.123-.455-.207-.676-.106-.277-.159-.572-.275-.846-.107-.252-.164-.521-.279-.77-.116-.247-.165-.519-.289-.762-.114-.223-.171-.471-.289-.693-.102-.19-.16-.399-.26-.589-.053-.1-.108-.196-.165-.29zm.553.7c.061.134.087.294.195.402.179.025.361.005.542.007-.051-.132-.081-.275-.162-.392-.011-.008-.031-.023-.042-.03-.177-.028-.357-.012-.533.013zm-10.4.018c.013.139.082.266.123.398.292.005.585.004.877.004-.025-.139-.058-.276-.094-.411-.24-.029-.482.009-.721-.019-.063-.002-.139-.028-.185.028zm17.882.018c-.019.065-.042.129-.049.197.006.076.044.145.07.217.247-.006.494-.001.741-.002.057-.139.101-.284.123-.432-.295-.014-.59.019-.885.02zm-13.289.555c-.321-.016-.648.066-.919.241-.151.094-.316.176-.432.315-.102.124-.184.267-.226.423-.059.211-.102.426-.19.628-.038.096-.092.193-.086.3 0 .093.055.172.089.256.083-.238.155-.481.249-.716.08-.196.137-.408.277-.572.12-.141.249-.28.413-.37.185-.115.394-.185.605-.237.335-.097.688-.11 1.034-.088.124.005.248-.009.371-.013.825-.023 1.651.009 2.476-.032.553.001 1.106-.003 1.658-.006-.009-.048-.019-.095-.028-.142-.272-.003-.544-.036-.817-.017-.361.025-.723.009-1.085.017-1.129.002-2.259.02-3.389.013zm-4.375.126c.033.134.046.282.134.395.063.032.136.034.206.041.214.01.429.004.643-.005-.045-.145-.096-.289-.149-.431-.278.001-.556.003-.834 0zm10.481-.008c.052.135.077.287.167.404.179.037.365.014.546.018-.045-.142-.097-.283-.156-.42-.131.005-.26-.035-.391-.016-.055.009-.111.013-.166.014zm7.291.039c.061.134.116.271.166.41.087.002.175.005.263.009.041-.137.077-.276.107-.415-.179 0-.358-.001-.536-.004zm-5.492.682c.061.191.128.379.19.569.053.168.138.324.19.492.055.173.098.35.162.52.182.483.289.99.44 1.483.052.21.143.407.195.617.035.139.064.28.102.418.046.172.115.338.163.51.062.22.122.44.189.658.087.287.126.586.203.875.037.145.085.288.121.434.06.237.093.48.156.716.161-.353.204-.745.328-1.111.121-.342.188-.7.306-1.042.115-.339.179-.692.288-1.033.091-.273.14-.558.221-.833.056-.216.152-.422.175-.645-.001-.17-.073-.329-.128-.487-.099-.247-.142-.51-.234-.759-.08-.22-.144-.446-.206-.672-.063-.233-.188-.45-.361-.618-.116-.111-.288-.081-.434-.084-.689.003-1.378-.011-2.066-.008zm-12.038.035c.026.15.069.296.119.44.264.002.529.011.793-.006-.023-.147-.06-.291-.104-.433-.27 0-.539-.003-.808-.001zm10.541-.003c.028.154.08.302.159.438.184.003.37.006.553-.022-.051-.139-.105-.276-.159-.413-.185-.005-.369-.008-.553-.003zm-6.688.117c-.156.066-.308.168-.387.323-.072.145-.104.304-.154.457-.049.158-.125.306-.18.462-.093.258-.176.521-.283.774-.035.078-.055.164-.029.249.087.384.204.76.277 1.147.034.191.086.379.146.564.095.295.125.606.223.9.104.31.131.64.234.951.081.24.125.49.189.734.047.187.081.379.169.552.109-.263.072-.557.162-.825.112-.335.157-.688.261-1.025.124-.373.196-.761.316-1.135.118-.309.168-.637.278-.948.071-.196.127-.397.178-.599.062-.25.179-.483.242-.732.047-.184.1-.367.177-.541.116-.26.159-.545.278-.803.081-.174.133-.359.175-.546-.339-.014-.678.003-1.017-.006-.245-.007-.489.001-.734 0-.173-.001-.355-.021-.521.047zm3.045-.036c-.089.099-.112.237-.158.359.202.007.405.006.606-.017.05-.115.097-.232.143-.348-.197.001-.396-.023-.591.006zm-6.665.672c.024.138.058.274.101.409.26.004.52.005.78.002-.028-.131-.026-.28-.112-.39-.07-.031-.149-.024-.224-.026-.182.004-.363.005-.545.005zm6.379-.004c-.045.138-.092.275-.138.413.196.003.392.002.588-.001.054-.135.103-.271.147-.409-.199-.005-.398-.002-.597-.003zm4.199.001c.027.139.07.274.123.406.195.004.39.007.586.003-.062-.133-.115-.27-.16-.409-.183-.003-.366-.005-.549 0zm-10.363.739c.03.141.065.28.104.418.253.038.508.019.762.022-.012-.151-.05-.298-.106-.438-.252-.042-.508-.028-.76-.002zm5.9.001c-.049.144-.091.29-.117.44.184.003.369.002.554 0 .06-.15.107-.306.124-.467-.187 0-.375-.002-.561.027zm4.704-.013c.036.153.081.304.129.454.183.003.367-.001.55-.02-.034-.151-.077-.3-.128-.446-.184-.002-.368-.01-.551.012zm-10.405.761c.055.137.106.276.151.417.239.002.479.005.719-.003-.043-.141-.08-.284-.113-.427-.253-.012-.506-.024-.757.013zm5.465-.006c-.043.139-.081.28-.116.423.18.004.36.004.541.004.059-.142.105-.289.138-.439-.188-.012-.376-.007-.563.012zm5.178-.019c.026.15.068.297.117.442.187.001.373.001.56-.001-.026-.152-.073-.299-.132-.441-.182-.002-.364-.003-.545 0zm-10.406.775c.032.114.051.235.112.338.028.054.097.054.15.06.191.012.382.001.572-.009-.034-.131-.07-.261-.108-.391-.242-.001-.484-.005-.726.002zm4.997-.001c-.036.131-.066.263-.09.397.173-.003.356.035.523-.026.059-.118.081-.249.115-.374-.183-.001-.366.001-.548.003zm5.624-.003c.039.126.074.254.108.383.195.023.392.026.588.016-.032-.134-.073-.265-.122-.393-.191-.007-.383-.009-.574-.006zm-10.392.723c.032.143.038.302.125.426.227.033.457.007.685.016-.037-.147-.048-.308-.135-.435-.223-.034-.45-.007-.675-.007zm4.562.021c-.043.138-.081.278-.112.42.172.027.345.025.517-.002.041-.15.09-.297.153-.439-.187-.011-.374-.011-.558.021zm6.023-.026c.04.149.081.297.13.443.191.028.385.028.576 0-.031-.129-.049-.264-.114-.381-.025-.058-.093-.059-.146-.062-.149-.007-.298.001-.446 0zm-10.366.737c.032.139.065.279.11.415.231.005.461.005.691.002-.042-.139-.086-.277-.13-.415-.224 0-.447-.002-.671-.002zm4.165.005c-.038.137-.076.275-.109.415.161.005.322.003.483-.003.054-.134.097-.272.126-.413-.167-.003-.334-.001-.5.001zm6.402-.004c.011.144.046.286.101.42.191-.004.383-.004.574-.002-.031-.139-.066-.278-.101-.416-.191-.003-.383-.004-.574-.002zm3.829.033c-.037.139-.082.275-.136.409.24.001.48.01.719-.001-.031-.138-.063-.275-.096-.411-.163-.023-.326-.024-.487.003zm-14.164.719c.03.126.061.251.095.377.221.005.443.006.664-.006-.036-.124-.071-.247-.108-.37-.217-.006-.434-.007-.651-.001zm3.741.002c-.041.124-.082.248-.112.376.161.022.328.048.488.002.07-.114.083-.25.109-.378-.162-.003-.324-.002-.485 0zm6.8-.004c.016.124.037.249.058.373.203.008.407.016.61.032-.023-.138-.058-.272-.097-.405-.191 0-.382-.001-.571 0zm3.397.03c-.037.123-.07.248-.1.374.251.011.503.004.754.005.042-.124.08-.249.115-.375-.256-.023-.513-.012-.769-.004zm-13.739.677c.048.136.089.275.121.417.218.004.436.006.654.002-.027-.141-.066-.28-.113-.415-.221-.007-.441-.006-.662-.004zm3.35.005c-.051.137-.084.279-.097.425.163.016.328.012.492-.005.035-.14.064-.281.084-.424-.161.002-.32.004-.479.004zm7.132.003c.031.139.067.276.111.412.186.003.372.004.558.001-.026-.14-.054-.28-.085-.418-.195-.003-.389-.004-.584.005zm3.043.043c-.064.119-.076.258-.103.39.243.008.486.001.729.006.066-.134.108-.278.115-.427-.202-.004-.405-.015-.607-.01-.045.005-.108-.008-.134.041zm-13.31.671c.034.15.083.296.146.437.214-.004.43.023.64-.031-.041-.136-.082-.271-.12-.407-.222 0-.444-.003-.666.001zm2.958.025c-.039.135-.069.272-.087.412.152 0 .309.026.457-.016.098-.116.109-.273.115-.417-.163-.008-.326-.01-.485.021zm7.481-.026c.021.139.045.278.075.416.183.029.369.028.554.024-.003-.147-.023-.293-.059-.436-.19-.004-.38-.007-.57-.004zm2.648.032c-.04.137-.08.274-.109.414.247 0 .493-.002.74.001.052-.133.089-.271.104-.412-.245-.013-.49-.01-.735-.003zm-12.861.717c.031.138.07.274.112.41.223.009.446.022.668-.004-.028-.141-.073-.278-.136-.407-.215-.003-.429-.005-.644.001zm2.541.017c-.035.137-.057.277-.062.419.132-.003.264.002.396-.003.036-.005.083-.003.102-.04.049-.124.061-.259.089-.388-.175-.007-.35-.003-.525.012zm7.834-.018c.025.134.048.268.065.404.191.022.383.032.575.029-.014-.137-.037-.272-.065-.406-.19-.022-.383-.032-.575-.027zm2.286.027c-.042.133-.082.267-.119.402.17.007.34.011.51.011.072-.002.147-.001.216-.028.07-.117.086-.254.11-.386-.239-.003-.478-.001-.717.001zm-12.43.693c.024.145.057.29.094.432.236.035.474.03.711.005-.061-.138-.113-.28-.151-.427-.218-.021-.436-.017-.654-.01zm2.174.016c-.031.147-.065.294-.101.44.167 0 .335.015.502-.003.059-.137.062-.295.114-.436-.172-.001-.344-.001-.515-.001zm8.106-.002c.016.143.038.287.067.429.19.019.382.021.573.013-.016-.148-.044-.294-.081-.437-.186-.005-.373-.007-.559-.005zm1.937.006c-.053.144-.093.292-.123.442.238.004.475.003.713.002.054-.144.104-.29.147-.438-.246-.009-.491-.003-.737-.006zm-11.961.755c-.007.01-.021.03-.028.04.018.124.063.243.097.365.251.013.503.013.754-.006-.063-.13-.118-.263-.161-.401-.22-.006-.442-.02-.662.002zm1.74-.005c-.024.134-.099.273-.055.411.16.038.326.02.489.028.033-.105.069-.21.09-.318.005-.04.019-.089-.017-.118-.169-.017-.338.001-.507-.003zm8.418.001c.012.14.026.279.045.419.197.001.394.018.59-.007-.014-.136-.007-.287-.091-.403-.18-.026-.363-.005-.544-.009zm1.559.031c-.039.132-.076.265-.103.4.243.008.487.001.731.006.051-.139.093-.281.115-.428-.248-.014-.496-.002-.743.022zm-11.558.686c.041.146.094.289.15.43.425-.007.849.002 1.274.001.153-.002.306.01.457-.009.072-.126.083-.275.115-.414-.665-.015-1.331-.009-1.996-.008zm10.104.016c.014.129.034.258.051.388.105.017.211.031.317.028.46-.008.919.008 1.379 0 .048-.005.112-.005.131-.06.053-.109.066-.231.088-.349-.408-.005-.816-.003-1.224-.003-.248.008-.495-.034-.742-.004zm-9.874.695c.026.137.028.29.117.405.063.042.15.022.223.03.403-.003.805.006 1.208 0 .037-.133.062-.27.07-.408-.12-.014-.241-.028-.361-.025-.42.002-.839-.006-1.257-.002zm9.981.023c.015.138.041.275.08.409.485.004.97.006 1.455.003.046-.136.086-.273.12-.412-.328-.005-.657.008-.985-.016-.225-.014-.447.015-.67.016zm-9.768.744c.039.14.079.279.117.419.372.005.744.006 1.116.001.024-.138.047-.276.071-.413-.435-.021-.871-.05-1.304-.007zm9.897.002c.016.14.036.279.056.419.377-.005.755.015 1.133.002.032-.142.074-.282.124-.419-.438-.005-.876-.006-1.313-.002zm-9.665.691c.012.149.05.294.097.435.264.019.53.038.794.003.011-.141.028-.28.048-.419-.313.009-.626-.019-.939-.019zm9.772.021c.005.139.017.278.033.416.262.009.525-.008.786.026.077-.136.131-.284.159-.437-.326-.005-.652-.003-.978-.005zm-9.585.727c.021.038.041.081.069.118.183.031.371.007.557.013.008-.044.016-.088.025-.131-.217-.019-.434-.017-.651 0z"/><path d="m20.111 1.214c.132.198.255.402.4.591.192.25.436.457.706.619.142.085.308.131.43.247.18.151.301.36.383.579.065.261.063.545-.056.792-.012-.136-.013-.272-.035-.407-.051-.276-.177-.544-.384-.737-.262-.203-.598-.289-.85-.508-.176-.14-.323-.316-.431-.514-.106-.204-.152-.434-.163-.662z"/><path d="m24.359 4.048c.098-.014.198-.03.296-.013.156.026.297.102.438.171.29.132.513.374.697.628.139.185.214.409.252.636.021.208.003.418-.007.627-.025-.027-.05-.052-.075-.078-.01-.243-.094-.472-.181-.696-.14-.414-.432-.769-.793-1.011-.193-.123-.422-.164-.627-.264z"/><path d="m15.434 4.156c.223-.063.458-.107.689-.054.282.057.577.096.828.246.348.18.645.455.853.787-.184-.137-.353-.295-.552-.411-.192-.126-.4-.226-.612-.311-.379-.172-.797-.227-1.206-.257z"/><path d="m14.757 5.434c.277-.096.581-.092.864-.024.196.047.377.137.555.229-.296-.051-.59-.122-.893-.112-.338-.014-.68.111-.918.353-.146.12-.233.289-.316.453-.008-.123.011-.249.075-.356.126-.259.373-.435.633-.543z"/><path d="m35.409 18.653c.219-.016.44-.053.661-.022.182.026.368.055.533.143.278.148.541.344.715.611.168.256.3.548.302.86-.132-.249-.257-.506-.437-.724-.24-.277-.528-.52-.869-.662-.28-.145-.598-.17-.905-.206z"/><path d="m3.572 18.758c.149-.054.306-.075.462-.088-.29.091-.573.217-.815.405-.308.219-.523.54-.692.872-.065.133-.099.278-.132.423.196.002.403.022.567.141.151.093.212.271.259.433-.072-.081-.138-.167-.214-.243-.081-.088-.204-.11-.317-.126-.21-.031-.415.036-.619.077.042-.309.091-.629.256-.9.149-.289.389-.519.646-.711.176-.14.392-.208.599-.283z"/><path d="m36.762 21.433c-.136-.147-.176-.385-.059-.555.028.13.036.278.136.377.162.167.433.188.641.103.173-.081.309-.221.462-.333-.068.133-.134.277-.261.364-.182.126-.411.204-.633.164-.103-.018-.212-.043-.286-.12z"/><path d="m3.653 27.898c.169-.018.335-.067.507-.059.126.001.249.03.374.048.136.023.276.033.412.063.248.053.482.158.7.285.114.062.22.138.313.229.119.118.251.227.339.371.177.285.296.615.291.954-.003.21.012.425-.045.631-.051.183-.097.374-.204.534-.13.178-.299.324-.486.438.107-.183.211-.369.304-.559.129-.261.191-.554.194-.845.005-.267-.027-.543-.154-.782-.172-.319-.416-.607-.73-.793-.176-.1-.368-.17-.564-.22-.188-.049-.374-.115-.57-.118-.196-.005-.393 0-.589-.002-.455.001-.881.176-1.317.28.349-.273.789-.41 1.225-.455z"/><path d="m34.836 29.333c.391-.215.848-.228 1.283-.2-.128.028-.258.051-.386.079-.182.039-.353.118-.525.186-.326.129-.639.332-.828.633-.103.159-.16.347-.163.536-.003.168-.012.34.033.504.042.159.104.312.151.47-.13-.151-.239-.318-.335-.491-.095-.171-.114-.37-.113-.562.006-.176.038-.358.145-.503.191-.268.431-.515.738-.652z"/><path d="m31.195 34.977c.155.185.275.396.418.59.101.136.188.284.297.415.219.256.446.505.665.762.213.243.48.429.747.607-.09.185-.19.367-.248.566-.077.263-.132.533-.16.806-.109-.254-.159-.536-.113-.81.027-.151.07-.298.107-.447-.14-.122-.289-.234-.417-.37-.159-.17-.337-.322-.476-.509-.174-.213-.344-.43-.484-.666-.083-.15-.143-.312-.213-.468-.067-.15-.102-.313-.123-.476z"/><path d="m8.346 35.739c.13-.221.245-.46.449-.623-.039.18-.1.355-.175.524-.099.224-.154.464-.213.701-.041.17-.099.335-.13.508-.029.162-.047.325-.069.489-.043.294-.023.592-.029.889-.292.111-.605.158-.89.289-.153.067-.293.158-.441.234.137-.238.339-.433.573-.574.132-.078.28-.12.426-.164.028-.231.009-.464.043-.693.04-.311.075-.628.19-.922.088-.221.148-.453.266-.658z"/></svg>