<svg enable-background="new 0 0 74.931 81.584" viewBox="0 0 74.931 81.584" xmlns="http://www.w3.org/2000/svg"><g clip-rule="evenodd" fill-rule="evenodd"><path d="m74.79.151c.226 27.062.146 53.078 0 81.213-6.135.265-12.37.15-18.629.151-3.062.001-6.201-.185-9.265-.05-3.115.137-6.271.157-9.365.05-12.493-.431-25.055.289-37.359-.201-.255-1.339-.151-2.749-.151-4.179 0-10.085-.004-20.645.151-30.663 2.431-.958 5.003-1.596 7.553-2.266 2.542-.668 5.094-1.395 7.603-2.165 3.777-1.161 7.553-2.224 11.429-3.273 1.27-.344 2.491-.917 3.827-.957.336.661.316 1.353.503 1.964 1.26 4.118 5.342 6.347 10.02 7.099 3.05.49 6.24.384 8.912-.252 3.893-.926 6.775-3.153 8.106-6.596.472-1.221.574-2.549.655-4.229.14-2.933.063-6.318 0-9.365-.139-6.67.144-13.066 0-19.032-.813-.352-2.051-.2-3.173-.2-1.155 0-2.338-.079-3.273.101-.223.717-.062 1.818-.201 2.618-.437.161-.809-.507-1.108-.806-2.244-2.244-6.653-3.924-11.278-2.769-3.37.841-5.852 2.53-7.704 4.934-.315.41-.574.841-.805 1.309-.21.426-.348.964-.755 1.309-.44-.176-.135-1.165-.352-1.51-.186-.294-1.192-.494-1.813-.655-5.776-1.5-11.362-3.386-16.968-4.984-1.278-.364-2.571-.682-3.827-1.058-1.252-.374-2.505-.797-3.726-1.157-1.26-.372-2.585-.494-3.675-1.158.016-.983-.302-2.712.201-3.374 24.825.024 49.6-.041 74.467.151z"/><path d="m43.976 11.329c3.151-.136 5.888 1.786 7.149 3.676 1.86 2.786 2.007 7.598.05 10.473-1.664 2.443-4.976 4.255-8.71 3.424-1.887-.42-3.699-1.802-4.733-3.273-1.118-1.591-1.891-3.529-1.762-6.243.113-2.362 1.141-4.206 2.417-5.589 1.204-1.305 3.112-2.361 5.589-2.468z"/><path d="m20.211 16.112c-.277.343-.779.322-1.158.403-4.527.97-9.165 1.918-13.795 2.82-1.673.326-3.32.91-5.035.906-.268-1.159-.151-2.706-.151-4.38 0-.663 0-1.415 0-2.266 0-.616-.114-1.865.202-2.065.704-.179 1.845.206 2.769.403 2.447.521 5.069 1.086 7.502 1.662 2.493.589 4.871 1.205 7.351 1.812.797.196 1.628.293 2.315.705z"/><path d="m29.224 20.744c.455 6.177 2.871 10.46 7.502 12.638 1.687.793 3.506 1.309 5.79 1.309 3.936 0 6.909-1.504 8.761-3.726.237-.285.468-.742.907-.856.183 1.27.101 2.651.101 3.977 0 1.292-.024 2.684-.302 3.726-.556 2.079-2.469 3.46-4.733 3.978-2.407.55-5.332.295-7.2-.906-1.615-1.038-2.154-2.676-2.518-4.833-2.029-.438-5.07.136-7.099-.302-.403-1.459.069-3.795-.252-5.337-.704-.551-1.66-.617-2.518-.806-4.35-.955-8.968-2.127-13.443-3.071-.901-.19-1.794-.431-2.668-.654-.871-.222-1.769-.328-2.568-.705.133-.413.675-.418 1.007-.503 1.135-.291 2.42-.539 3.675-.806 1.594-.337 3.201-.782 4.833-1.108 3.345-.668 6.714-1.432 9.818-2.115.214-.048.64-.124.907.1z"/><path d="m20.261 33.986c-.738.401-1.597.492-2.417.655-2.478.491-5.024 1.107-7.553 1.662-1.67.366-3.369.703-5.035 1.107-1.657.403-3.331.851-5.035.957-.269-1.205-.151-2.73-.151-4.431 0-.639 0-1.435 0-2.266 0-.667-.098-1.901.151-2.165.72-.154 1.842.214 2.769.403 2.468.502 4.978 1.138 7.452 1.712 2.506.581 4.915 1.183 7.452 1.712.808.168 1.675.189 2.367.654z"/></g></svg>