<svg enable-background="new 0 0 83.117 73.533" viewBox="0 0 83.117 73.533" xmlns="http://www.w3.org/2000/svg"><path clip-rule="evenodd" d="m66.632.157c.411 4.791-.152 10.411.254 15.241 3.771.145 8.069.152 12.092.153 1.357 0 2.726-.124 3.962.152.232 8.127.009 16.279.152 24.487.057 3.213 0 6.39 0 9.653 0 1.575.113 3.19-.152 4.674.24 2.898.152 6.1.152 9.348 0 3.23.085 6.542-.101 9.603-27.731.139-54.876.042-82.76-.152-.273-1.146-.153-2.33-.153-3.506 0-17.076-.053-33.842-.05-50.905 0-1.152-.125-2.333.151-3.455 3.881-.17 7.774-.051 11.686-.051 11.4.002 23.528.133 35.105-.051.274-1.159.152-2.454.152-3.759.001-3.209-.001-6.534 0-9.805 0-.581-.144-1.25.203-1.728 6.429-.064 12.889-.116 19.307.101zm-15.597 3.76c-.289 1.012-.186 2.101-.152 3.15.035 1.109 0 2.229 0 3.353 0 6.751.035 13.779 0 20.423-.048 8.821.12 18.238-.101 27.079-.952.141-2.687.224-3.557-.051-.111-11.192-.1-22.381-.102-33.785 0-1.598.123-3.221-.152-4.775-4.513-.186-9.22-.101-13.87-.101-2.298 0-4.606.09-6.857 0-1.137-.045-2.29.053-3.404 0-1.121-.054-2.243-.186-3.303.101-.188 9.413-.101 19.442-.101 29.263 0 2.467-.106 4.984 0 7.315.034.755.196 1.538-.153 2.235-.915.052-2.569.189-3.454-.102-.314-13.032.127-26.361-.254-38.763-3.924-.17-8.046-.174-11.685 0-.439 15.197.185 31.968-.103 47.349-.019.994-.081 2.006.203 2.947 8.916.184 18.222.187 27.333.102.011-.057.057-.079.101-.102.224-12.693-.147-26.437.152-38.865 1.053-.032 2.666-.197 3.557.102.065 8.095.101 16.072.101 24.182.001 3.249 0 6.55 0 9.856.001 1.627-.109 3.254.153 4.775 4.303.15 8.991.152 13.666.152 4.687 0 9.431.084 13.92-.102.187-11.767.102-24.738.102-36.579 0-.759-.19-1.56.102-2.286.925-.141 2.611-.223 3.455.051.009 11.473.052 22.577.051 33.988 0 1.698-.122 3.348.152 4.826 1.865.274 4.062.152 6.198.152h3.201c1.059 0 2.125.123 3.048-.152.135-12.135.051-24.97.051-37.696 0-4.252.101-8.489-.152-12.549-5.07-.333-10.805.111-16.055-.254-.169-3.65-.101-7.665-.102-11.481 0-1.29.119-2.578-.152-3.76-3.712-.165-8.126-.169-11.837.002z" fill-rule="evenodd"/></svg>