<svg clip-rule="evenodd" fill-rule="evenodd" stroke-linejoin="round" stroke-miterlimit="2" viewBox="0 0 560 400" xmlns="http://www.w3.org/2000/svg"><path d="m380 260.4 184.5-260.4h-564.5v5.7h450.9l-18.7 26.4h-432.2v5.7h428.2l-18.7 26.4h-152.8v-23.2l-16.4 23.1h-240.3v5.7h236.3l-18.7 26.4h-217.6v5.7h213.5l-18.7 26.4h-194.8v5.7h190.8l-18.7 26.4h-85.3v-24.4l-17.2 24.3h-69.6v5.7h65.5l-18.7 26.4h-46.8v5.7h42.8l-18.7 26.4h-24.1v5.7h20.1l-20.1 28.2v299.5l175.7-248v238.9l203.1-286.6h1.3v-1.8zm-293.2 1.8h13.2l-13.2 18.6zm169.9 0h12.5l-12.5 17.7zm0-5.7v-26.4h35.2l-18.7 26.4zm0-32.1v-26.4h58l-18.7 26.4zm61.9-32h-62v-26.4h80.7zm22.8-32.1h-84.7v-26.4h103.4zm-237.4 96.2h-17.2v-26.4h35.9zm260.1-128.2h-107.4v-26.4h126.1zm-237.4 96.1h-39.9v-26.4h58.6zm278.8-154.6-18.7 26.4h-130.1v-26.4zm-237.4 96.2-18.7 26.4h-62.6v-26.4z" fill-rule="nonzero" transform="matrix(.478299 0 0 .478299 145 66.5784)"/></svg>