<svg enable-background="new 0 0 117.317 97.555" viewBox="0 0 117.317 97.555" xmlns="http://www.w3.org/2000/svg"><path clip-rule="evenodd" d="m117.317 97.285c-10.855.006-20.824-.001-32.028 0-3.342 0-7.541.607-10.796 0-2.046-.383-6.03-2.807-7.077-4.799-.799-1.52-1.242-3.932-1.799-5.997-1.215-4.501-1.524-7.923-2.399-13.195-.243-1.465-1.276-5.856.24-5.998 1.136-.106 2.358 3.645 3.119 4.678.734.998 1.636 2.027 2.399 2.52 2.974 1.918 7.712 1.472 11.396.72-6.754-12.199-14.976-23.97-22.312-35.987-7.293 11.78-13.976 24.17-20.752 36.466 5.627.412 10.922.044 13.315-3.838.418-.678 1.599-5.428 3.479-4.199.836.547-.544 4.765-.72 5.758-1.095 6.205-1.454 13.068-3.479 17.754-1.131 2.618-4.946 5.705-8.637 6.118-3.381.378-6.987 0-10.436 0-10.083 0-20.46-.007-30.829 0 19.096-32.804 38.86-64.945 58.418-97.286 20.021 31.96 39.545 65.055 58.898 97.285z" fill-rule="evenodd"/></svg>