<svg enable-background="new 0 0 84.932 17.014" viewBox="0 0 84.932 17.014" xmlns="http://www.w3.org/2000/svg"><g clip-rule="evenodd" fill-rule="evenodd"><path d="m20.513 16.212c-.811.383-1.971.149-3.031.149-3.187 0-6.655-.006-9.693-.149-.598-.483-.76-1.276-1.093-1.938-2.163-4.302-4.167-8.856-6.362-13.221-.125-.249-.547-.659-.2-.994 4.172-.111 8.598-.049 12.725.05.551.491.789 1.236 1.094 1.889 1.246 2.669 2.615 5.369 3.877 8.052.324.691.539 1.427.845 2.137.587 1.367 1.438 2.598 1.838 4.025z"/><path d="m27.82.159c.853 1.148 1.457 2.575 2.087 3.926.64 1.37 1.299 2.714 1.938 4.076 1.276 2.713 2.703 5.358 3.827 8.151-.957.203-2.004.106-3.081.149-3.2.128-6.646-.122-9.791-.1-.59-.483-.781-1.272-1.094-1.938-.93-1.978-2.023-3.988-2.933-6.063-1.071-2.442-2.19-4.795-3.33-7.157-.144-.299-.392-.688-.249-1.044 4.151-.142 8.379.071 12.626 0z"/><path d="m45.664.307c-.434 1.433-1.219 2.721-1.89 4.026-1.992 3.881-3.841 7.918-5.964 11.78-.619-.436-.784-1.247-1.094-1.889-1.548-3.208-3.236-6.576-4.771-9.891-.305-.658-.616-1.336-.944-1.988-.322-.642-.766-1.265-.845-1.988.264-.268.716-.149 1.044-.149 4.876 0 9.783-.108 14.464.099z"/><path d="m47.552 16.909c-.265-1.05-.149-2.375-.149-3.678 0-1.272-.079-2.593.1-3.678 7.737-.181 16.1-.099 24.155-.099 1.209 0 2.441.178 2.485-.845.046-1.087-1.312-.994-2.485-.994-7.964-.001-16.393.082-24.155-.1-.226-1.155-.059-2.43-.05-3.678.008-1.205-.138-2.522.149-3.578 7.313-.091 15.104-.05 22.564-.05 2.479 0 4.96-.136 7.257.05 2.271.184 4.006 1.275 5.219 2.534 1.258 1.306 2.223 3.169 2.286 5.468.128 4.589-2.888 7.914-6.858 8.599-1.183.204-2.399.055-3.679.1-3.611.126-7.796 0-11.53 0-5.218-.002-10.162.044-15.309-.051z"/></g></svg>