<svg enable-background="new 0 0 80.692 78.904" viewBox="0 0 80.692 78.904" xmlns="http://www.w3.org/2000/svg"><g clip-rule="evenodd" fill-rule="evenodd"><path d="m28.223 21.22c6.876.359 14.22-.048 21.411.287.805.038 2.589.132 2.868-.143.302-.299.143-1.916.143-2.581 0-5.394.096-10.643.096-15.867 0-.863-.11-1.753.144-2.533 9.145-.044 18.54-.108 27.719.143.203 6.148-.001 12.51 0 18.83.001 6.326.005 12.707-.191 18.83-25.336.174-50.127-.287-75.176-.287-1.638 0-3.294.116-4.922-.144-.032-12.018-.148-24.613.093-36.799.006-.31-.083-.737.239-.956 8.813.055 18.66-.01 27.385.239.27.35.132.836.143 1.242.125 4.493-.154 9.778-.048 14.529.041 1.794-.155 3.544.096 5.21z"/><path d="m80.411 41.531c.128 6.067 0 12.408 0 18.687 0 6.261.016 12.57-.191 18.639-7.953.107-16.481 0-24.469 0-1.113 0-2.236.101-3.297-.143-.272-6.591.148-13.881-.096-20.646-.954-.292-1.965-.098-2.963-.144-6.901-.313-14.264-.036-21.315-.096-.329.751-.191 1.649-.191 2.485 0 2.61.025 5.314-.048 7.934-.097 3.475.188 7.064-.143 10.371-8.925.116-18.627.136-27.528-.144-.259-1.422-.143-2.992-.143-4.636 0-3.106.047-6.288.048-9.51 0-6.864.096-14.026.095-21.124 0-.724-.137-1.514.239-2.151 13.223-.024 27.152.172 40.527.191 13.294.02 26.51.048 39.475.287z"/></g></svg>