<svg enable-background="new 0 0 71.696 57.822" viewBox="0 0 71.696 57.822" xmlns="http://www.w3.org/2000/svg"><g clip-rule="evenodd" fill-rule="evenodd"><path d="m58.408.003c1.946-.07 3.455 1.322 4.05 2.591 1.532 3.263-.781 6.553-3.768 6.783-1.824.14-3.434-1.009-4.145-2.261-1.375-2.42-.17-5.42 1.602-6.5.553-.338 1.319-.579 2.261-.613z"/><path d="m46.067 12.626c-2.077-3.116-.013-7.135 3.25-7.441 1.424-.134 2.645.39 3.297 1.036.485.481 1.088 1.455 1.319 2.261.575 2.005-.326 3.995-1.414 4.993-1.904 1.747-5.251 1.084-6.452-.849z"/><path d="m66.839 5.325c2.023-.199 3.616 1.102 4.286 2.308 1.463 2.631-.098 5.755-2.261 6.642-.826.339-1.74.409-2.591.235-1.511-.309-3.1-1.813-3.485-3.438-.273-1.153.008-2.712.565-3.627.617-1.013 1.678-1.942 3.486-2.12z"/><path d="m57.842 10.506c2.104-.225 3.58.969 4.239 1.978.557.852.751 1.831.753 2.685.008 2.938-2.31 4.646-4.522 4.663-1.828.014-3.322-1.195-4.004-2.497-.508-.971-.744-2.612-.188-4.004.522-1.303 1.902-2.63 3.722-2.825z"/><path d="m52.709 23.695c-1.787 2.064-5.501 1.454-6.877-.66-1.81-2.779-.143-7.071 3.391-7.395 4.299-.393 6.121 5.18 3.486 8.055z"/><path d="m63.777 23.695c-.313-.508-.661-.877-.848-1.319-1.28-3.033.778-6.349 3.768-6.641 1.039-.101 1.875.166 2.497.518 1.429.81 2.501 2.417 2.449 4.333-.049 1.773-1.19 3.39-2.449 4.051-1.737.91-4.135.475-5.417-.942z"/><path d="m57.795 20.916c2.394-.268 4.005 1.211 4.663 2.967.621 1.654.198 3.729-1.036 4.993-1.061 1.087-2.906 1.899-4.899 1.083-1.992-.815-3.706-3.815-2.354-6.5.522-1.038 1.853-2.344 3.626-2.543z"/><path d="m1.038 32.549c.563-.085 1.766-.041 2.873 0 1.535.058 2.997-.246 3.627.66.299.428.429 1.284.612 2.073.806 3.455 1.872 7.039 2.685 10.598.145.636.37 1.363.565 2.072.231.838.351 1.514.849 1.79.562.312 1.883.219 2.26-.047.408-.288.558-1.304.754-2.026 1.207-4.427 2.224-8.589 3.392-13.235.19-.76.499-1.492 1.036-1.695.38-.144 1.013-.022 1.649-.047.62-.025 1.084-.07 1.648-.047 1.114.045 2.565-.164 3.438.141 1.089.38 1.35 2.642 1.695 4.003.396 1.553.813 3.054 1.178 4.475.396 1.539.702 2.909 1.178 4.522.344 1.165.742 3.631 1.602 4.051.717.35 2.158.131 2.591-.377.596-.7.871-2.861 1.13-3.957.801-3.386 1.653-6.734 2.544-10.126.275-1.051.43-2.247 1.271-2.591.601-.245 1.907-.094 2.731-.094h16.58c1.12 0 2.29-.119 2.731.377.358.401.283 1.669.283 2.826 0 6.109-.047 12.252-.047 18.322 0 1.202.23 2.912-.472 3.344-.7.432-2.469.188-3.673.188-1.105 0-2.76.333-3.439-.424-.574-.64-.329-2.568-.329-3.862 0-3.06.047-5.209.047-8.337 0-1.854.386-4.246-.707-4.71-.432-.184-1.373-.094-1.978-.094-.626.001-1.312 0-2.025 0-1.466.001-3.015-.239-3.957.094-1.184.419-1.27 2.439-1.695 3.957-.913 3.257-1.349 5.754-2.214 9.091-.308 1.188-.456 3.649-1.507 4.145-.747.352-2.336.094-3.297.094-2.567 0-4.386.047-6.83.047-1.034 0-2.517.177-3.25-.141-.642-.278-.91-1.357-1.131-2.214-.499-1.946-.858-3.328-1.365-5.323-.15-.586-.366-2.378-.942-2.402-.593-.025-.762 1.672-.942 2.355-.509 1.923-.837 3.363-1.271 5.322-.223 1.005-.37 2.002-1.178 2.261-.82.262-2.289.095-3.203.094-2.035-.003-4.405-.01-6.641-.094-.939-.036-2.775.068-3.297-.188-.725-.356-.965-1.621-1.225-2.638-1.355-5.288-2.542-10.051-3.957-15.356-.238-.894-.482-1.923-.801-3.062-.344-1.229-1.393-3.54.424-3.815z"/></g></svg>