<svg enable-background="new 0 0 49.127 55.146" viewBox="0 0 49.127 55.146" xmlns="http://www.w3.org/2000/svg"><path d="m18.634.079c3.997-.121 8.025-.096 12.024.026 5.469 15.091 10.843 30.229 16.308 45.322.801 1.944 1.554 3.924 2.161 5.936-3.848 1.186-7.615 2.661-11.478 3.784-1.279-3.476-2.516-6.958-3.81-10.427-6.259.05-12.536-.202-18.783.01-1.094 3.51-2.533 6.901-3.677 10.393-3.834-1.171-7.57-2.626-11.379-3.866 6.048-17.111 12.453-34.113 18.634-51.178zm2.516 2.482c1.126 3.11 2.15 6.258 3.341 9.345 1.068-3.142 2.411-6.186 3.416-9.349-2.247-.03-4.515-.063-6.757.004zm-12.234 31.29c2.537.014 5.074.008 7.611.005 2.236-5.724 4.115-11.59 6.265-17.351.116-.522.487-1.068.203-1.598-1.2-3.326-2.364-6.662-3.525-9.999-3.555 9.624-7.191 19.254-10.554 28.943zm16.884-18.397c2.473 6.972 5.129 13.886 7.561 20.875-4.913.045-9.83.003-14.744-.001-.186.009-.427.003-.477.229-.781 1.849-1.347 3.781-2.139 5.627 6.276.242 12.59-.027 18.871.154.212-.045.43-.062.648-.07 1.211 3.288 2.392 6.589 3.614 9.869 2.269-.774 4.559-1.482 6.814-2.297-5.25-14.934-10.767-29.792-15.987-44.74-.058-.056-.175-.171-.234-.228-1.266 3.538-2.737 7.025-3.927 10.582zm-1.366 3.645c-1.905 4.84-3.49 9.8-5.347 14.659 3.563.244 7.178.067 10.762.102-1.695-4.951-3.538-9.877-5.415-14.761zm-18.568 23.112c2.482.12 4.992.019 7.485.056.909-1.906 1.53-3.947 2.24-5.927-2.542-.03-5.083-.011-7.625-.012-.718 1.948-1.549 3.888-2.1 5.883zm-.997 2.423c-.576 1.71-1.254 3.381-1.805 5.101 2.261.795 4.52 1.583 6.8 2.333.938-2.453 1.883-4.909 2.639-7.424-2.545.005-5.089.002-7.634-.01z"/></svg>