<svg enable-background="new 0 0 80.992 83.288" viewBox="0 0 80.992 83.288" xmlns="http://www.w3.org/2000/svg"><path clip-rule="evenodd" d="m40.577 0h.104c3.997 4.722 7.956 9.644 12.015 14.397.232.271.509.702.932.725.255-4.399.028-8.73.207-13.258 1.045-.272 2.165-.155 3.263-.155 3.374 0 6.794.052 10.202.052 4.572 0 9.18-.116 13.516.156.146 4.697.216 9.476.155 14.241-.183 14.474.119 29.05-.155 43.5-17.711.276-36.295-.146-54.014.052-.025.453.414.776.673 1.036 4.444 4.446 8.971 9.105 13.568 13.464.846-.757 1.595-1.617 2.382-2.434 2.318-2.406 4.703-4.847 7.043-7.302.444-.503.972-1.031 1.554-1.657.426-.458 1.06-1.374 1.657-1.502.955-.204 2.343 0 3.47 0 5.82-.001 11.546-.077 16.934.052 2.309.056 4.559-.16 6.732.155.149 7.286.261 14.639 0 21.699-26.662.169-53.747-.025-80.632-.104-.292-1.642-.103-3.346-.103-5.023 0-11.907-.132-23.939.052-35.215 17.965-.433 37.112.079 54.998-.104-.04-.98-1.163-1.322-1.554-2.123-1.871-1.91-3.661-3.9-5.438-5.904-2.477-2.564-4.793-5.288-7.302-7.82-.714.448-1.251 1.118-1.812 1.709-3.409 3.593-6.887 6.995-10.357 10.772-.473.515-1.243 1.499-1.812 1.657-.863.24-2.208.052-3.366.052-7.729.002-16 .079-23.306-.051-.28-1.466-.155-3.123-.155-4.816 0-11.409-.006-23.081.155-34.49 9.028-.198 17.832-.19 27.084-.052.277 1.013.155 2.143.155 3.263 0 3.328-.073 6.831.104 9.995.477.125.681-.454.932-.725 4.085-4.702 8.009-9.565 12.119-14.242z" fill-rule="evenodd"/></svg>