<svg enable-background="new 0 0 70.311 70.684" viewBox="0 0 70.311 70.684" xmlns="http://www.w3.org/2000/svg"><g clip-rule="evenodd" fill-rule="evenodd"><path d="m45.395.185c.146 1.79.146 3.784.146 5.722 0 1.921.104 3.894-.146 5.526-7.299.246-14.369-.054-21.86.098-.324.856-.195 1.854-.195 2.836 0 2.758-.058 5.873.098 8.754.817.23 1.727.179 2.592.196 6.351.125 13.181-.176 19.366.146.193 1.688.146 3.625.146 5.526 0 1.915.115 3.856-.146 5.526-1.781.219-3.618.098-5.477.098-13.171-.001-26.807-.013-39.808-.245-.157-5.464-.1-11.387-.099-17.166 0-5.774-.059-11.597.147-17.163 14.755-.09 30.768-.016 45.236.146z"/><path d="m70.14.283c.199 2.868.147 5.759.146 8.656-.003 18.612.004 38.048 0 57.365 0 1.427.114 2.89-.146 4.303-.039.009-.049.049-.098.049-17.476.02-34.995.086-52.426-.098-5.861-.062-11.697.149-17.507-.146-.078-11.719-.098-22.999 0-34.575.897-.265 1.86-.147 2.787-.147 14.488.002 29.492.199 43.672.049.264-.676.146-1.451.146-2.152 0-10.525-.001-20.934 0-31.396 0-.687-.146-1.428.195-2.054 7.281.023 15.841-.106 23.231.146zm-26.213 47.192c-6.397-.126-13.872-.017-20.295-.048-.398.24-.248.784-.244 1.173.014 1.447 0 2.924 0 4.45 0 2.069-.09 4.248.098 6.016 3.688.233 7.637.146 11.59.146 3.918 0 7.921.087 11.542-.098.163-3.621.161-7.92 0-11.542-.866-.25-1.787-.079-2.691-.097z"/></g></svg>