<svg enable-background="new 0 0 42.843 43.098" viewBox="0 0 42.843 43.098" xmlns="http://www.w3.org/2000/svg"><path d="m3.118 10.227c3.845-6.031 10.73-10.2 17.949-10.204 1.315-.082 2.631.071 3.934.248 2.773.601 5.539 1.509 7.866 3.178 5.851 3.593 9.7 10.202 9.941 17.064.423 7.124-3.054 14.34-8.878 18.478-3.833 2.812-8.647 4.278-13.396 4.092-.242-.033-.487-.086-.723.006-.491-.155-1.004-.158-1.511-.192-1.212-.236-2.407-.553-3.598-.874-4.841-1.597-9.049-4.984-11.689-9.34-1.119-2.165-2.093-4.43-2.575-6.833-.734-3.599-.544-7.389.559-10.902.574-1.629 1.268-3.221 2.121-4.721zm10.833 1.506c.047.659.203 1.305.4 1.934 2.581-2.484 6.46-3.488 9.912-2.513 1.543.477 2.922 1.358 4.129 2.415.184-.602.288-1.224.481-1.824-1.178-1.056-2.648-1.7-4.121-2.23-3.673-1.077-7.859-.254-10.801 2.218zm16.301-2.341c-.814 3.653-1.742 7.29-2.403 10.974.541.031 1.084.022 1.626.004.812-3.056 1.28-6.185 2.052-9.25.004-.616.501-1.304.07-1.856-.406-.216-1.095-.403-1.345.128zm-19.411.204c.102 1.155.463 2.267.708 3.397.592 2.538 1.203 5.07 1.771 7.613 1.166 4.608 2.097 9.275 3.309 13.871.445.503 1.35.726 1.977.42.92-3.342 1.964-6.648 2.885-9.989.461 1.05.675 2.192 1.079 3.266.629 2.228 1.385 4.414 2.025 6.638.573.33 1.33.053 1.828-.299.923-3.546 1.551-7.171 2.377-10.745-.595-.022-1.191-.004-1.786.004-.538 2.589-1.115 5.179-1.666 7.761-.962-3.111-1.959-6.212-2.874-9.335.228-1.051.786-2.033 1.017-3.097.482-1.789.929-3.816.1-5.571-.716-1.499-3.024-1.687-4.046-.418-.691.816-.73 1.931-.715 2.945.16 1.968.796 3.86 1.566 5.668.258.496-.05 1.024-.153 1.518-.852 2.779-1.62 5.583-2.476 8.359-1.88-7.407-3.54-14.885-5.479-22.274-.161-.056-.322-.112-.481-.168-.335.114-.709.168-.966.436zm20.725 5.298c-.079 1.201-.849 2.426-.278 3.593.56.26 1.256.07 1.6-.443-.204-1.122-.703-2.196-1.322-3.15zm-21.378 10.609c.945 2.431 2.588 4.617 4.801 6.028-.149-.912-.387-1.822-.612-2.714-2.851-2.757-3.92-7.177-2.614-10.925-.094-.961-.332-1.939-.668-2.85-1.801 3.147-2.117 7.053-.907 10.461zm15.143-4.299c-.432.173-1.034-.143-1.361.253-.191.522-.268 1.495.492 1.561 2.327-.077 4.667-.051 6.999-.047-.377 2.109-1.343 4.103-2.827 5.655-.228.871-.348 1.776-.588 2.647.084-.012.168-.028.254-.046 2.85-2.013 4.668-5.323 5.017-8.775-.025-.426.185-.863.005-1.272-2.664-.011-5.345.04-7.991.024zm-4.884 10.527c-.23.508-.398 1.042-.523 1.583 1.076.247 2.205.184 3.281-.027-.095-.547-.318-1.062-.445-1.601-.567.032-1.143-.041-1.701.072-.196-.021-.436-.149-.612-.027z"/><path d="m20.653 15.002c.004-.403.202-.921.67-.945.559-.107.853.47.863.943.139 1.64-.108 3.315-.639 4.872-.037-.006-.108-.02-.143-.026-.498-1.561-.839-3.198-.751-4.844z"/></svg>