<svg enable-background="new 0 0 84.078 83.751" viewBox="0 0 84.078 83.751" xmlns="http://www.w3.org/2000/svg"><path clip-rule="evenodd" d="m71.898 12.241c6.188 6.384 10.388 14.073 11.852 24.878 1.166 8.607-.927 17.232-3.897 23.009-1.064 2.071-2.028 4.096-3.31 5.872-4.981 6.909-12.218 12.59-21.141 15.589-4.735 1.592-10.086 2.437-16.069 2.082-5.459-.323-10.337-1.677-14.627-3.63-8.319-3.788-14.777-9.647-19.272-17.457-2.224-3.865-3.951-8.4-4.857-13.506-.916-5.155-.714-11.243.427-16.55 1.034-4.814 3.071-9.3 5.445-12.919 4.825-7.36 11.466-13.117 20.126-16.603 3.332-1.342 6.933-2.336 11.051-2.723 1.396-.131 2.97-.211 4.484-.267 3.351-.123 6.51.478 9.396 1.121 8.666 1.93 14.991 5.961 20.392 11.104zm-46.766 31.658c.029-.845.054-1.844.054-2.776 0-.921.154-2.025-.054-2.776-.084-.304-.45-.765-.747-1.174-3.008-4.147-6.002-8.221-8.915-12.226-1.087-1.494-2.058-3.064-3.364-4.378-1.175.035-2.49-.07-3.576.054-1.098 1.232-1.853 2.806-2.616 4.324-.776 1.544-1.436 3.251-1.975 4.965-1.103 3.507-1.897 7.473-1.869 12.012.06 9.72 3.035 16.843 7.207 22.795 4.096 5.844 9.877 10.646 16.55 13.507 3.457 1.482 7.385 2.659 11.852 3.149 4.617.508 9.65.211 13.773-.854 11.488-2.965 20.312-9.959 25.625-19.433.902-1.609 1.592-3.365 2.295-5.231 2.006-5.323 3.159-12.579 2.136-19.539-.563-3.831-1.583-7.218-2.883-10.25-.209-.487-.293-.964-.48-1.441-.63-1.609-1.771-3.236-2.775-4.698-3.135-4.559-6.762-8.227-11.318-11.264-2.992-1.995-6.37-3.652-10.196-4.805-3.863-1.165-8.306-1.946-13.347-1.709-7.186.34-13.184 2.32-18.151 5.233-4.229 2.479-8.056 5.54-11.051 9.183-.445.541-.962 1.103-1.12 1.814 3.631.153 7.696.054 11.317.054 1.262 0 2.54-.155 3.684.107.059.485.148 1.416-.054 1.815-1.479.237-3.242.16-4.965.16-1.732 0-3.506-.128-4.965.16.722 1.441 1.764 2.624 2.669 3.896 2.276 3.198 4.658 6.372 6.94 9.557.309.43 1.086 1.803 1.549 1.762.222-.021.532-.558.747-.854.737-1.02 1.46-1.973 2.082-2.829 2.339-3.223 4.456-6.445 6.727-9.609.445-.621 1.008-1.266 1.175-2.029-2.666-.322-5.84.1-8.382-.267-.158-.42-.209-1.526.054-1.868 7.072-.072 15.109-.218 22.048-.054.161.427.177 1.444 0 1.868-2.842.273-6.261-.032-9.076.268-.072.489.399.786.642 1.121 3.467 4.805 6.896 9.451 10.409 14.254.449.613 1.165 1.893 1.762 2.082 1.033.326 2.502-.125 3.417-.107.247-1.273.091-2.824.107-4.377.017-1.538.154-3.095-.107-4.324-2.046-.475-4.874.16-6.993-.214-.158-.435-.211-1.565.053-1.922 6.041-.267 12.162.059 17.938-.16 2.019-.076 4.054-.031 6.033.106.177 3.188.178 7.116 0 10.304-.452.138-1.556.226-1.922-.053-.349-2.473.169-5.839-.268-8.169-3.956-.117-8.519-.128-12.438.054-.245 1.281-.176 2.84-.16 4.324.017 1.511.01 3.055.16 4.431 3.224.318 7.187-.104 10.41.214.171.434.171 1.488 0 1.922-3.207.316-7.149-.103-10.356.214-.287 1.435-.16 3.242-.16 4.965v2.562c0 .837-.053 1.707.213 2.402 1.889.116 4.041.053 6.193.053 2.145 0 4.322.122 6.192-.16.489-2.896-.22-6.402.268-9.342.486-.066 1.441-.238 1.921.054.168 3.599.182 7.753 0 11.424-7.852.245-16.343.233-24.023.106-.146-.461-.212-1.542.054-1.922 2.102-.281 4.847.077 6.94-.213.218-1.421.106-3.145.106-4.858 0-1.74.086-3.502-.106-5.018-1.059-.295-2.227-.107-3.417-.107-3.734 0-7.543-.044-10.943.16-.25 6.792-.055 13.902-.054 20.606 0 .954-.128 1.929.16 2.83 2.544.088 5.358.096 8.114.053 2.788-.044 5.647.158 8.222-.16.48-2.092-.191-5.012.267-7.1.487-.144 1.515-.205 1.922.053.094 2.829.208 6.154 0 9.183-7.023.172-14.234.211-21.199.211-2.393 0-4.745.138-6.939-.106-.158-.436-.211-1.565.053-1.922 2.196-.286 4.974.126 7.154-.267.172-7.553.09-15.65-.054-23.329-2.411-.438-5.641.168-8.168-.214-.132-.489-.224-1.572.054-1.976 4.353-.13 9.259-.159 13.72-.16 1.518 0 3.052.201 4.431-.16-.451-1.122-1.213-1.921-1.921-2.882-.397-.539-1.439-2.501-2.136-2.67-.48-.116-1.261 0-1.922 0-4.599 0-9.084.063-13.507.054-.967.84-1.607 2-2.349 3.043-.75 1.054-1.541 2.083-2.188 3.203 0 2.648-.001 5.501 0 8.114 0 .869-.124 1.792.159 2.562 3.555.24 7.482-.058 10.944.16.127.465.256 1.617-.106 1.922-8.051.11-16.692.275-24.772.054-.16-.428-.177-1.444 0-1.869 3.596-.319 7.957.127 11.479-.267.389-1.66.041-3.502.106-5.391zm13.988-22.155c-1.451 2.036-2.953 4.043-4.218 6.193-.421.714-1.139 1.254-1.388 2.081.349.342.951.181 1.441.161 1.652-.07 3.543 0 5.392 0 1.85-.001 3.703.126 5.232-.214-.551-1.215-1.44-2.217-2.188-3.257-.761-1.059-1.503-2.112-2.349-3.096-.541-.688-.863-1.594-1.709-1.975-.106 0-.068.146-.213.107z" fill-rule="evenodd"/></svg>