<svg enable-background="new 0 0 77.566 32.198" viewBox="0 0 77.566 32.198" xmlns="http://www.w3.org/2000/svg"><path clip-rule="evenodd" d="m77.566.171c-.086.729-.485 1.357-.78 2.001-.289.629-.544 1.281-.829 1.902-.58 1.259-1.045 2.58-1.806 3.707-4.554.147-9.447-.048-14.001.098-.537.389-.691 1.117-.976 1.708-.285.593-.636 1.19-.78 1.853.494.286 1.161.203 1.756.195 2.946-.038 6.062 0 9.123 0 1.079 0 2.157-.119 3.122.146-.733 2.141-1.733 4.137-2.635 6.147-.294.656-.481 1.375-.976 1.902-3.805.083-8.259.049-12.488.049-.591 0-1.367-.097-1.757.049-.494.186-.739 1.199-.976 1.708-.303.655-.694 1.183-.731 1.805.49.293 1.128.195 1.707.195 3.042.001 6.047-.049 9.221-.049 1.151 0 2.293-.048 3.269.146-.249 1.611-1.049 2.937-1.659 4.293-.612 1.362-1.089 2.793-1.951 4-7.732.075-15.954.218-23.855 0 .272-1.055.739-2.008 1.171-2.927 1.062-2.262 2.116-4.536 3.22-6.977.207-.456.571-1.056.586-1.414.017-.437-.424-1.172-.684-1.708-1.308-2.703-2.532-5.266-3.805-7.952-.497-1.048-.948-2.138-1.61-3.073-4.512-.158-9.685-.164-14.196 0-.755.985-1.236 2.244-1.707 3.513.494.33 1.167.195 1.756.195 3.165 0 6.531-.126 9.513 0 1.263.054 2.54-.159 3.708.146-.408 1.438-1.101 2.731-1.707 4.049-.604 1.314-1.069 2.702-1.853 3.903-4.88.259-10.31-.032-15.271.146-.522.396-.745 1.105-1.024 1.708-.285.616-.605 1.239-.78 1.902.497.328 1.161.194 1.756.195 4.343.001 9.192-.081 13.416.097-.081.756-.47 1.461-.78 2.147-.911 2.013-1.803 4.185-2.878 6.098-7.304.061-14.501.098-21.855.098-.986 0-2.026.113-2.977-.146.273-1.14.847-2.084 1.317-3.073 1.155-2.426 2.222-4.919 3.415-7.513.23-.499.625-1.079.635-1.513.008-.39-.323-.795-.537-1.269-2.427-5.373-4.9-10.666-7.417-15.95-.377-.79-.822-1.614-.976-2.488 2.706-.244 5.725 0 8.439-.049.617.686.976 1.602 1.366 2.44.784 1.684 1.652 3.349 2.439 5.074.384.844.733 1.733 1.316 2.438.63-.672.923-1.6 1.317-2.438.394-.839.822-1.686 1.22-2.537.793-1.7 1.577-3.438 2.536-4.977 8.579-.111 16.654-.115 25.222-.049.584.734.96 1.622 1.366 2.488.791 1.688 1.716 3.392 2.586 5.122.425.847.681 1.821 1.365 2.488.629-.691.89-1.632 1.269-2.488.377-.849.827-1.684 1.22-2.536.792-1.722 1.488-3.504 2.439-5.074 6.379-.016 12.761-.232 19.172-.048 1.454.041 2.906-.152 4.294.097z" fill-rule="evenodd"/></svg>