<svg enable-background="new 0 0 46.265 41.32" viewBox="0 0 46.265 41.32" xmlns="http://www.w3.org/2000/svg"><path d="m13.126.024c1.31.042 2.634-.101 3.934.073 2.123 3.33 4.004 6.82 6.043 10.208 2.07-3.355 3.96-6.825 6.018-10.183 1.322-.223 2.733-.068 4.088-.089-3.331 5.737-6.689 11.46-9.987 17.217-.045-.001-.134-.002-.179-.004-3.328-5.728-6.672-11.448-9.917-17.222z"/><path d="m10.083 1.758c.73 1.124 1.41 2.299 2.03 3.484-.603 1.156-1.322 2.257-1.956 3.4 1.281 2.351 2.687 4.636 4.028 6.957.136-.027.272-.054.408-.078.68.115 1.381.048 2.068.034.245.028.495.04.737-.017.242.038.486.05.73.055.671 1.162 1.378 2.304 2.033 3.476-6.637.032-13.284-.078-19.914.055-.083-.034-.165-.067-.247-.098 3.4-5.734 6.71-11.521 10.083-17.268zm-3.908 13.819c1.283-.089 2.563-.012 3.848-.059-.606-1.112-1.254-2.205-1.929-3.277-.647 1.106-1.402 2.158-1.919 3.336z"/><path d="m35.789 2.407c.118-.189.349-.859.563-.437 3.166 5.74 6.634 11.312 9.868 17.012-.615-.045-1.231.077-1.842.017-.721.002-1.48.129-2.188-.013-.765-1.07-1.345-2.277-2.065-3.384-2.654.05-5.319-.084-7.967.067-.643 1.148-1.292 2.295-1.998 3.406-1.343-.031-2.686.002-4.029-.019 3.195-5.564 6.454-11.092 9.658-16.649zm-1.504 9.709c1.258.016 2.516.007 3.773.007-.524-1.177-1.198-2.274-1.853-3.379-.646 1.12-1.323 2.224-1.92 3.372z"/><path d="m.011 22.497c6.706-.112 13.423-.046 20.133-.039-3.308 5.674-6.533 11.393-9.962 16.996-.04-.001-.122-.002-.163-.003-.591-1.052-1.238-2.071-1.852-3.109-.144-.231.079-.459.186-.652 1.882-3.247 3.863-6.437 5.703-9.708-3.995-.094-7.983.016-11.975-.034-.752-1.105-1.386-2.3-2.07-3.451z"/><path d="m26.146 22.461c6.704-.018 13.425-.053 20.119-.023-.734 1.118-1.366 2.296-2.041 3.449-3.984.082-7.976.059-11.953.092 1.956 3.398 4.031 6.733 5.899 10.175-.607 1.154-1.201 2.318-1.941 3.396-3.412-5.661-6.8-11.346-10.083-17.089z"/><path d="m23.049 24.24c.04-.002.121-.005.162-.007 3.239 5.74 6.769 11.32 9.968 17.074-6.684.017-13.37.016-20.053.003.616-1.183 1.349-2.297 2.001-3.457 1.261-.014 2.522.006 3.783-.012.207.008.315-.188.411-.337 1.235-2.156 2.523-4.281 3.761-6.433-.591-1.165-1.364-2.238-1.93-3.41.477-1.203 1.349-2.238 1.897-3.421zm.136 13.55c1.302.076 2.624.094 3.927-.008-.666-1.058-1.278-2.149-1.964-3.194-.718 1.027-1.261 2.164-1.963 3.202z"/></svg>