<svg enable-background="new 0 0 77.213 36.722" viewBox="0 0 77.213 36.722" xmlns="http://www.w3.org/2000/svg"><g clip-rule="evenodd" fill-rule="evenodd"><path d="m77.009.125c.271 2.926.15 5.992.15 9.06.002 7.637 0 15.345 0 23.03 0 1.448.172 2.896-.102 4.252-6.654.172-13.174.182-19.789.051-.215-1.781-.111-3.826-.152-5.871-.041-2.074-.07-4.199.152-6.125.812-.162 2.275-.169 3.086 0 .268 2.742-.098 5.807.203 8.604.996.273 2.125.152 3.24.152 3.217-.001 6.822.083 9.92-.102.27-.543.152-1.2.152-1.771.002-9.179.078-19.017-.102-27.939-1.473-.273-3.228-.152-4.961-.152-1.717 0-3.484.083-5.01-.101-.039-.413-.406-3.001.203-3.139.738-.167 2.367 0 3.393 0 3.107 0 6.633-.065 9.617.051z"/><path d="m60.609.176c.166 3.733.17 8.162 0 11.895-.828.188-2.18.109-3.088.051-.289-2.833-.002-5.83-.201-8.604-1.008-.275-2.15-.152-3.291-.152-1.129 0-2.297 0-3.441 0-2.301.001-4.648-.119-6.682.152-.186 4.814-.1 9.873-.102 14.881 0 5.009-.117 10.027.152 14.779.723.269 1.594.151 2.43.152 2.459 0 5.303-.084 7.643.101.166.816.166 2.271 0 3.088-4.236.168-9.176.168-13.412 0-.15-11.948-.182-24.481-.051-36.292 6.47-.181 13.406-.213 20.043-.051z"/><path d="m36.314.226c.264 2.07.164 4.366.152 6.581-.012 2.179.008 4.396 0 6.58-1.834 1.946-3.729 3.829-5.619 5.719-.945.945-1.84 1.94-2.783 2.886-.941.94-1.852 1.938-2.935 2.732-1.453-.032-3.035.066-4.404-.05-.102-.444.373-.677.607-.911 1.818-1.819 3.707-3.759 5.568-5.619 1.049-1.048 2.256-2.038 3.188-3.188.953-1.175 2.209-2.063 3.088-3.29-.09-2.676.188-5.722-.152-8.148-9.68-.188-19.756-.094-29.559.05-.274.829-.153 1.806-.153 2.732v8.655c-.613.915-1.529 1.683-2.328 2.48-.23.229-.518.643-.91.557-.051-5.722-.153-11.971.05-17.665 11.875-.146 24.248-.263 36.19-.101z"/><path d="m15.915 12.121c.037.403-.375.678-.608.911-2.887 2.887-5.879 5.879-8.807 8.807-1.068 1.069-2.223 2.046-3.139 3.239-.031 2.598-.197 5.765.102 8.2 1.172.271 2.42.151 3.645.151 8.578.001 17.777.007 25.965-.202.184-2.501.102-5.857.102-8.706 0-.975-.125-2.032.051-2.733.195-.776 1.084-1.18 1.52-1.67.551-.429.914-1.311 1.67-1.367.135 5.617.123 12.023 0 17.816-11.924.137-24.203.242-36.24.051-.262-1.01-.139-2.108-.152-3.188-.035-2.616-.037-5.614.051-8.402.017-.566-.104-1.144 0-1.568.125-.529.866-1.076 1.315-1.52 3.301-3.264 6.672-6.721 9.971-9.819 1.404-.083 3.15-.085 4.554 0z"/></g></svg>