<svg enable-background="new 0 0 76.865 74.738" viewBox="0 0 76.865 74.738" xmlns="http://www.w3.org/2000/svg"><g clip-rule="evenodd" fill-rule="evenodd"><path d="m76.719 34.42c-.929-.027-1.841-.25-2.826-.346-.97-.096-1.944-.266-2.976-.299-1.973-.061-3.993-.281-6.051-.346-2.037-.064-4.204.182-6.298.248-2.004.062-4.051.336-5.902.594-3.901.547-7.344 1.307-10.066 2.976-3.38 2.072-4.827 5.041-4.91 10.414-.009.607-.276 1.658 0 2.082.334.512 2.321.246 3.174.248 3.03.006 6.924.176 10.067-.049.333-.654.233-1.479.248-2.233.046-2.334.966-4.101 2.033-5.404.927-.795 2.036-1.309 3.372-1.785 3.644-1.305 10.482-1.039 12.398 1.586 1.011 1.385 1.054 3.811.148 5.455-1.001 1.82-3.294 2.49-5.653 3.174-3.319.963-7.278 1.51-10.91 2.232-1.284.256-2.564.371-3.769.645-3.384.766-6.796 2.01-9.225 3.867-1.788 1.369-3.001 3.748-3.124 6.795-.129 3.182-.165 6.264.794 8.926.215.6.696.785.743 1.537-3.106-.084-5.986-.105-8.579-.744-7.453-1.834-13.471-5.332-18.2-9.967-3.099-3.037-5.841-6.668-7.786-11.01-1.971-4.397-3.421-9.43-3.421-15.272 0-9.121 2.864-15.973 6.645-21.572 1.288-1.908 2.681-3.668 4.265-5.109 3.394-3.084 6.927-5.791 11.258-7.537 1.101-.443 2.214-.918 3.372-1.34 2.3-.836 4.723-1.445 7.587-1.834 7.173-.973 14.777.148 20.135 2.429 4.444 1.893 8.201 4.111 11.505 6.943 1.615 1.383 3.065 3.123 4.414 4.859 3.38 4.351 5.9 9.398 7.24 15.82.133.633.26 1.316.348 1.982.084.646.186 1.396-.05 2.035z"/><path d="m52.269 61.398c3.836-2.752 10.345-2.766 14.778-4.91.796-.383 1.583-.703 2.232-1.09.604-.361.608.502.545 1.389-.124 1.768-.273 2.682-.645 4.166-.192.769-.31 1.574-.595 2.281-1.027 2.547-2.141 4.402-4.116 6.049-1.162.969-2.521 1.58-4.067 2.232-.416.176-.815.453-1.239.596-1.778.59-4.538.785-6.199.098-.696-.287-1.474-.77-1.934-1.389-.613-.824-.861-1.912-.992-3.023-.144-1.221-.186-2.629.149-3.67.418-1.297 1.206-1.857 2.083-2.729z"/></g></svg>