<svg enable-background="new 0 0 80.046 40.86" viewBox="0 0 80.046 40.86" xmlns="http://www.w3.org/2000/svg"><path clip-rule="evenodd" d="m79.87.103c.17 3.798.17 8.3 0 12.098-2.113.258-4.469-.017-6.58.202-.305.876-.27 2.695-.049 3.694 1.979.298 4.65-.095 6.629.203.135 2.604.252 5.749.051 8.351-1.984.325-4.777-.155-6.68.253-.186.899-.268 2.465 0 3.341 2.006.322 4.604-.094 6.629.202.297 3.572.137 8.205.102 12.097-.49.237-1.666.207-2.227.051-.301-2.989.098-6.678-.203-9.667-2.053-.374-4.527.109-6.631-.253-.139-2.664-.193-5.742.051-8.251 1.945-.299 4.584.097 6.529-.202.33-.9.064-2.347.051-3.392-.926-.272-2.154-.151-3.34-.151-1.162 0-2.357.066-3.291-.152-.166-2.619-.168-5.934 0-8.554 1.975-.306 4.566.227 6.58-.202.168-2.164.17-5.024 0-7.188-1.232-.274-2.588-.152-3.947-.152-3.992 0-8.342-.082-12.197.102-.266.708-.152 1.558-.152 2.379 0 2.358.082 5.1-.102 7.339-2 .294-4.682-.092-6.682.203-.273.904-.189 2.658-.051 3.644 1.873.414 4.725-.077 6.732.253.168 2.533.168 5.768 0 8.302-1.965.346-4.654-.032-6.682.253-.201.873-.271 2.533 0 3.392 1.996.299 4.688-.098 6.682.202.193 3.888.221 8.203.051 12.097-3.34.268-6.934.151-10.527.152-3.574 0-7.199.083-10.58-.101-.182-1.478-.102-3.191-.1-4.859 0-1.682.121-3.387-.152-4.808-3.512-.303-7.727.1-11.236-.203.031-.496.33-.955.557-1.366.467-.851.973-1.669 1.467-2.531.246-.43.387-.906.607-1.366.842-1.749 1.971-3.379 2.885-5.112 1.547-2.931 3.311-5.967 5.012-8.959.246-.434.566-.958.658-1.316.303-1.199.006-2.673 0-3.847-.008-1.246.154-2.428-.051-3.645-.443-.265-1.043-.12-1.568-.101-1.574.059-3.205-.051-4.859-.051-4.566-.001-9.736.012-14.631.149-.271 1.014-.152 2.319-.15 3.594 0 1.242-.082 2.544.1 3.594.6.398 1.406.14 2.178.152 2.193.035 4.893-.004 7.035.151-.656 1.611-1.582 3.108-2.43 4.606-2.117 3.739-4.152 7.531-6.326 11.287-.416.719-.943 1.439-1.113 2.278.535.319 1.271.202 1.973.202 2.061 0 4.51-.082 6.428.101.168 3.799.17 8.3 0 12.098-8.441.142-17.51.258-26.066.051-.174-1.915-.115-3.873-.102-5.821.016-2.001-.311-4.024-.049-5.871.092-.658.754-1.509 1.164-2.227 1.139-2.007 2.281-4.152 3.391-6.022.744-1.386 1.475-2.744 2.227-4.101.74-1.332 1.619-2.616 2.176-4.1-.617-.268-1.391-.151-2.125-.151-2.154 0-4.695.082-6.732-.102-.168-3.798-.168-8.3 0-12.097.533-.164 1.645-.159 2.178 0 .31 3.037-.126 6.695.199 9.616.768.273 1.682.152 2.582.152h5.467c.899 0 1.811-.117 2.58.151-.293.885-.816 1.665-1.266 2.48-2.606 4.738-5.359 9.496-8.047 14.324-.504.905-1.336 1.915-1.416 2.936-.104 1.288.049 2.775.049 4.201 0 1.42-.082 2.836.102 4.15.813.271 1.711.152 2.582.152 6.139 0 12.682.051 18.678-.152.16-2.187.178-5.203 0-7.238-2.895-.423-6.891.133-10.123-.202.217-.858.738-1.619 1.164-2.379 2.498-4.456 5.047-9.092 7.592-13.565.414-.727.891-1.491 1.062-2.328-1.047-.273-2.369-.151-3.645-.151-1.285 0-2.588.041-3.746-.051-.168-3.798-.168-8.299 0-12.097 2.051-.273 4.217-.152 6.379-.152 6.406.001 13.199-.084 19.486.102.137 1.683.162 3.483.102 5.264-.061 1.728.281 3.818-.051 5.265-.164.709-.801 1.499-1.215 2.227-1.234 2.17-2.436 4.499-3.594 6.58-1.236 2.219-2.406 4.334-3.695 6.529-.406.691-.926 1.407-1.062 2.228.709.271 1.574.151 2.379.151 2.354.001 4.994-.044 7.289.102.41 2.88-.076 6.655.252 9.617.592.269 1.283.151 1.924.151 4.713.001 9.682.06 14.273-.151.268-1.027.152-2.357.152-3.645 0-1.272.092-2.57-.152-3.594-1.994-.3-4.686.097-6.682-.202-.168-2.517-.168-5.733 0-8.251 1.982-.297 4.65.094 6.631-.202.273-.834.191-2.526.051-3.442-1.854-.414-4.691.078-6.682-.253-.168-2.617-.168-5.936 0-8.554 2.084-.211 4.631.04 6.682-.203.184-1.497.102-3.199.102-4.909 0-1.657-.121-3.39.152-4.809 6.99-.083 13.994-.183 20.953 0z" fill-rule="evenodd"/></svg>