<svg enable-background="new 0 0 79.173 28.299" viewBox="0 0 79.173 28.299" xmlns="http://www.w3.org/2000/svg"><path clip-rule="evenodd" d="m78.903.129c.263 1.091.147 2.248.147 3.395 0 6.957.099 13.984.099 21.012 0 1.119.112 2.269-.148 3.346-2.327.336-5.324.056-7.922.148-1.098-1.078-1.868-2.431-2.755-3.691-1.757-2.495-3.506-5.064-5.314-7.577-.446-.62-.829-1.301-1.279-1.92-.432-.592-.879-1.274-1.525-1.673-.317 1.11-.197 2.341-.197 3.593 0 3.567.183 7.594-.049 11.12-.491.308-1.13.233-1.673.246-4.36.106-8.903 0-13.236 0-14.417.001-28.259.147-43.105.148-.568 0-1.192.111-1.723-.148-.183-1.875-.126-3.832-.147-5.855-.007-.646-.104-1.472.049-2.018.143-.509 1.028-1.041 1.525-1.427 1.66-1.289 3.478-2.475 5.118-3.642 2.42-1.722 4.543-3.469 6.741-4.97.571-.527 1.383-.814 1.771-1.525-1.042-.349-2.41-.196-3.74-.197-2.54 0-5.096-.081-7.676 0-1.273.041-2.612.121-3.74-.196-.163-2.414-.164-5.508 0-7.922 1.191-.267 2.423-.148 3.641-.147 18.614.001 37.64-.224 55.998-.099.74.347 1.041 1.154 1.476 1.772 2.65 3.758 5.378 7.62 8.021 11.465.212.309.404.661.64.984.18.246.398.697.787.689.27-.523.148-1.185.148-1.772 0-3.002 0-6.359 0-9.447 0-1.248-.118-2.508.148-3.642 1.747-.402 4.051.031 6.052-.147.469-.044 1.342-.063 1.868.097zm-5.807 1.919c-.489.907-.262 2.039-.295 3.1-.036 1.131.093 2.281.098 3.444.01 2.112-.158 4.123-.049 6.398.06 1.241-.102 2.796.148 3.69.125.447.59.925.935 1.427.706 1.026 1.283 1.886 1.919 2.805.302.437.614 1.122 1.131 1.181.262-.835.148-1.772.148-2.656-.001-5.376-.099-11.17-.099-16.632 0-.909.115-1.847-.147-2.707-.953-.384-2.702-.157-3.789-.05zm-25.489-.05c-3.822.143-8.19-.092-12.104 0-.331.008-.878.046-1.083.296-.22.461-.193 1.256-.197 1.968-.004.723-.091 1.512.246 1.919 3.941.228 8.56.099 12.843.099 1.447 0 2.939.143 4.231-.196.287-1.036.164-2.822 0-3.888-1.219-.305-2.584-.248-3.936-.198zm-25.243.098c-2.927.137-5.968-.003-8.956 0-3.053.004-6.086.068-9.053.049-.738-.004-1.512-.199-2.215.099-.434.91-.178 2.821-.098 3.986.533.373 1.241.246 1.87.246 3.554 0 7.067.08 10.53-.05 1.276-.048 3.035.238 4.183-.049.481-.12 1.012-.615 1.525-.984.971-.697 1.829-1.379 2.706-2.018.455-.33 1.09-.562 1.181-1.132-.433-.286-1.157-.17-1.673-.147zm6.889 0c-.444.023-.899-.06-1.181.197-.299 1.091-.166 2.685 0 3.838.424.309 1.227.197 1.968.197.752 0 1.584.107 2.018-.197.316-1.059.068-2.644.049-3.838-.625-.333-1.87-.248-2.854-.197zm26.326.198c.136.65.642 1.127.984 1.623.351.509.583 1.204 1.23 1.428.249-.763.229-2.433 0-3.199-.561-.124-1.867-.259-2.214.148zm-30.066 1.771c-.472.273-1.003.633-1.476.984-.435.323-.978.623-1.181 1.082.566.412 2.255.316 2.903.049.225-.457.398-1.821-.099-2.115-.048 0-.097 0-.147 0zm28.442.049c-.358.305-.238 1.627-.049 2.018.303.212 1.188.232 1.427-.049-.287-.829-.743-1.49-1.378-1.969zm16.976 16.878c-.003-.536.038-1.226-.099-1.723-.162-.588-.858-1.318-1.279-1.918-1.345-1.92-2.706-3.885-3.937-5.659-1.325-1.753-2.553-3.823-3.937-5.659-.392-.52-1.027-1.62-1.525-1.771-.062.02-.101.064-.099.147.013 1.234-.226 2.809-.049 4.183.083.646.846 1.529 1.279 2.166 2.647 3.887 5.366 7.574 7.971 11.317.425.61.769 1.398 1.477 1.771.228-.869.203-1.896.198-2.854zm-23.275-12.695c-2.568 0-5.118-.065-7.578.049-2.013.094-3.955-.202-5.659.246-.142.228-.142.807 0 1.034.486.372 1.151.245 1.723.245 4.506-.001 9.257-.058 13.679-.049.581.001 1.315.192 1.772-.148.155-.303.145-.984-.049-1.23-1.239-.266-2.558-.147-3.888-.147zm10.334 6.544c.006-1.822.351-3.917-.049-5.265-.124-.415-.635-1.109-.984-1.231-.746-.259-2.328-.027-3.051.197-.3.707-.096 1.556-.099 2.362-.011 2.812-.188 5.938.099 8.61 1.032.415 2.907.396 3.985.05.222-1.31.093-2.962.099-4.723zm-37.348-6.446c-1.553.066-2.17.72-3.198 1.476-3.901 2.868-7.785 5.616-11.563 8.365-.622.453-1.375.879-1.771 1.575.877.206 2.09.199 3.149.196 1.82-.004 2.311-.589 3.346-1.525.633-.572 1.386-.978 1.919-1.377 1.318-.99 2.629-1.864 3.838-2.756 2.275-1.679 4.428-3.338 6.643-4.921.308-.221.774-.39.837-.837-.951-.171-2.132-.243-3.2-.196zm7.479.196c-.15.224-.15.909 0 1.132.991.269 2.817.186 3.887.05.248-.217.278-.965.049-1.231-1.107-.246-2.937-.173-3.936.049zm-2.116 8.268c-.003-1.385.006-3.002 0-4.232-.003-.592.167-2.791-.64-2.312-1.12.662-2.129 1.511-3.199 2.312-2.619 1.964-5.47 3.889-8.021 5.807-.527.396-1.183.726-1.476 1.328.581.338 1.387.197 2.116.197 3.751 0 7.414-.02 11.022-.197.32-.691.201-1.865.198-2.903zm13.089-4.921c-1.403 0-2.995-.272-4.183-.05-.726.136-.669 1.142-.689 2.018-.02.908.005 1.818.246 2.165 1.34.259 2.78.157 4.232.147 2.844-.018 5.754-.048 8.611-.049 1.448 0 2.896.119 4.231-.148.254-.97.25-3.068 0-4.035-3.805-.228-8.444-.049-12.448-.048zm-10.924.148c-.219.473-.197 1.184-.197 1.969 0 .578-.125 1.695.197 2.017.325.325 1.587.198 2.165.197.591-.002 1.282-.038 1.722-.148.338-.964.266-2.994.049-4.035-1.008-.251-2.923-.228-3.936 0zm19.732 6.101c-2.53 0-5.095 0-7.578 0-1.268 0-2.536-.082-3.74-.049-.668.018-1.569-.024-2.116.246-.146.236-.203.75-.098 1.082.698.49 1.798.285 2.706.246 3.436-.148 7.575.108 11.022 0 1.225-.038 2.499.217 3.543-.246.149-.29.14-.898-.049-1.132-1.176-.266-2.439-.147-3.69-.147zm-19.732.197c-.178.333-.237 1.069.049 1.328 1.06.143 2.854.209 3.838-.049.312-.301.247-1.175-.098-1.378-1.143-.037-2.799-.18-3.789.099zm23.62 5.511c0-.539.12-1.617-.197-1.968-.242-.269-1.482-.197-2.116-.197-5.11-.001-10.407-.036-14.91.197-.507.873-.338 2.997-.099 4.034.728.307 1.564.185 2.362.197 3.796.054 7.498-.05 11.269-.05 1.199.001 2.437.146 3.543-.196.215-.491.148-1.264.148-2.017zm2.165-1.919c-.191 1.014-.337 3.077.099 3.936 1.055.225 2.934.326 3.887-.099.1-1.1.307-3.116-.147-3.985-1.152-.016-2.92-.232-3.839.148zm-30.804-.147c-.606.021-1.387.063-2.116.099-3.068.144-6.472.08-9.447.098-.787.005-1.519-.102-2.116.05-.962.243-2.025 1.359-2.805 1.919-.457.327-.93.656-1.378.984-.443.324-1.013.632-1.23 1.181.729.329 1.648.196 2.559.196 5.554.001 11.114-.244 16.534-.098.607.016 2.318.148 2.657-.148.382-.333.148-1.451.147-2.018 0-.771.109-1.516-.147-2.066-.785-.189-1.805-.226-2.658-.197zm4.97.246c-.205 1.075-.222 2.7 0 3.887.925.42 3.089.337 4.035 0 .135-1.102.219-2.963-.049-3.985-1.076-.275-3.009-.211-3.986.098zm-25.931.099c-.223.522-.34 1.777 0 2.263.695-.108 1.225-.584 1.722-.935.502-.353 1.074-.774 1.377-1.328-.745-.264-2.344-.209-3.099 0zm70.956.737c-.344.707-.221 2.184-.049 2.903.451.207 1.773.398 2.116-.049-.533-1.108-1.145-2.136-2.067-2.854z" fill-rule="evenodd"/></svg>