<svg enable-background="new 0 0 32.07 26.045" viewBox="0 0 32.07 26.045" xmlns="http://www.w3.org/2000/svg"><path d="m18.813 0-12.259 26.043h1.774l12.261-26.043z"/><path d="m16.174 0-12.261 26.043h1.326l12.261-26.043z"/><path d="m14.076 0-12.26 26.043h.877l12.26-26.043z"/><path d="m12.26 0-12.26 26.043h.428l12.26-26.043z"/><path d="m17.212 10.889 6.632 15.154h.423l-6.836-15.617z"/><path d="m18.142 8.916 7.496 17.127h.866l-7.913-18.08z"/><path d="m19.215 6.635 8.494 19.408h1.31l-9.125-20.85z"/><path d="m20.566 3.766 9.751 22.279h1.753l-10.595-24.209z"/><path d="m1.116 7.336v.379h5.928l.18-.379z"/><path d="m1.116 5.514v.572h6.699l.271-.572z"/><path d="m9.243 3.068h-8.127v1.041h7.634z"/><path d="m1.116 0v1.707h8.771l.809-1.707z"/><path d="m13.563 18.33-.179.379h5.641v-.379z"/><path d="m12.793 19.957-.272.572h6.503v-.572z"/><path d="m11.364 22.975h7.661v-1.041h-7.168z"/><path d="m10.72 24.336-.808 1.707h9.113v-1.707z"/></svg>