<svg enable-background="new 0 0 81.383 51.913" viewBox="0 0 81.383 51.913" xmlns="http://www.w3.org/2000/svg"><g clip-rule="evenodd" fill-rule="evenodd"><path d="m63.988 0h.1c.305.943.249 2.01.148 2.928-.171 1.568-.629 2.834-1.34 3.871-.287.42-.558.897-.844 1.191-.872.9-2.58 1.695-4.317 1.836-2.144.174-4.505 0-6.849 0-4.377 0-8.943 0-13.548 0-2.352 0-4.847-.197-6.451.348-.555.188-.931.611-1.489.695-.492-5.147 1.456-8.889 6.153-9.23 1.869-.137 3.971 0 6.154 0 3.932 0 8.315.049 12.357.049 2.737 0 5.775.371 7.692-.348.8-.299 1.513-.945 2.234-1.34z"/><path d="m38.38 13.35c.185 4.779-.17 9.209.149 13.697.668-.092 1.004-.756 1.438-1.191 1.312-1.311 2.656-2.768 3.97-4.119.637-.555 1.047-1.336 1.837-1.736 3.552-.002 7.055-.121 10.57.1-.495 1.076-1.42 1.723-2.084 2.629-1.839 2.193-3.81 4.33-5.757 6.602-.261.305-.72.736-.745.992-.039.418.556 1.217.795 1.687.835 1.646 1.706 3.229 2.58 4.863 1.186 2.217 2.291 4.371 3.573 6.353.942.078 2.33.096 3.227 0 .264-2.219.222-4.764.148-7.394-.142-5.109.025-10.697.099-15.684 1.407-.273 2.913-.121 4.418-.1 6.275.098 12.559-.139 18.609.15.266 1.197.149 2.666.149 4.119 0 1.434.079 2.922-.1 4.168-4.433.297-9.518-.092-13.647.148-.226.455-.18 1.174-.198 1.836-.019.656-.017 1.371.1 1.836 4.161.32 9.217-.041 13.498.299.165 1.973.164 4.627 0 6.6-4.337.332-9.245-.146-13.548.15-.266.938-.189 2.703-.05 3.721 1.051.322 2.215.094 3.374.1 3.365.02 7.068.063 10.373.199.261 1.236.148 2.771.148 4.268 0 1.482.11 2.994-.148 4.219-9.478.141-19.278-.051-29.132-.051-1.405.002-3.144.078-4.219-.1-.449-.436-.748-1.041-1.042-1.586-1.508-2.807-3.011-5.744-4.565-8.537-.624-1.119-1.077-2.342-1.886-3.324-.447.049-.759.51-1.092.844-.338.338-.726.582-.844 1.041-.185.719-.033 1.848 0 2.73.103 2.764-.018 6.086-.149 8.586-12.493.166-25.619.065-38.113-.15-.237-1.781-.04-3.76-.05-5.656-.003-.617-.138-1.293 0-1.787.121-.438.71-.963 1.092-1.439 2.613-3.256 5.174-6.693 7.792-9.826.87-1.361 2.085-2.381 2.828-3.871-.336-.336-.851-.164-1.29-.149-3.333.115-7.101-.043-10.174-.148-.131-2.75-.163-5.982 0-8.537.9-.24 1.862-.133 2.829-.149 5.67-.086 12.146.051 18.411.049.998 0 2.033-.119 2.978.15.229 2.566.034 5.557.099 8.287-2.86 3.742-5.842 7.328-8.833 10.967-.98 1.191-2.133 2.275-2.929 3.623.548.271 1.225.199 1.837.199 4.485 0 9.402.152 13.746-.051.396-9.648-.075-19.982.248-29.627 1.336-.238 3.43-.148 5.211-.148 1.58-.001 3.179-.116 4.469.148z"/></g></svg>