<svg enable-background="new 0 0 201.456 67.141" viewBox="0 0 201.456 67.141" xmlns="http://www.w3.org/2000/svg"><g clip-rule="evenodd" fill-rule="evenodd"><path d="m125.832.376c1.134 2.127 1.216 4.778 1.679 7.317 3.268 17.906 2.646 41.735-1.56 58.297-2.082.386-5.717.4-7.797 0 .008-2.569.673-5.145 1.08-7.797 1.206-7.861 2.038-15.803 2.039-25.19.001-8.908-.766-17.507-2.159-25.19-.46-2.533-1.234-5.001-1.08-7.437 2.1-.693 5.532-.265 7.798 0z"/><path d="m145.503.496c1.025 4.965 1.508 10.373 1.919 15.954.816 11.055 1.115 22.933 0 33.827-.558 5.448-1.026 10.807-2.039 15.714-1.975.163-5.913.672-7.797-.24.379-5.048 1.081-10.407 1.56-15.954.949-11.003.951-22.967 0-34.066-.355-4.129-.859-7.976-1.319-11.995-.124-1.076-.785-2.51.12-3.478 2.323-.183 5.394-.136 7.556.238z"/><path d="m201.162.496c.387 2.645.398 6.833 0 9.476-11.082.704-22.508-.051-33.827.6-.785 1.42-.48 3.317-.48 5.158 0 5.223-.281 11.571.36 16.313 2.51.577 5.331.351 8.156.36 7.78.026 16.984-.508 25.07.24.234 2.532.587 6.569-.12 8.876-11.186.491-22.218.004-33.347.6-.643 1.703-.36 3.772-.36 5.758.001 5.644-.13 12.372-.239 17.753-2.139.509-5.679.731-8.037.24-.833-2.685-.459-5.559-.479-8.397-.082-11.322.271-23.427.119-34.787-.099-7.392-.179-15.014.24-22.191 4.853-.546 11.77-.224 17.633-.12 8.33.148 17.159-.344 25.311.121z"/><path d="m54.099 66.71c.247-1.252 1.27-2.107 1.919-2.999.686-.941 1.256-1.9 2.04-2.759 4.061-6.967 7.618-15.451 7.797-26.39.119-7.342-1.804-13.89-3.959-20.152-1.353-3.931-3.594-7.625-5.997-10.556-.818-.999-2.024-1.838-2.279-3.239 1.22-.349 3.149-.27 5.038-.359 1.505-.071 3.445-.284 4.558.12.824.299 1.905 2.149 2.64 3.359 6.025 9.928 10.27 25.595 7.316 40.784-.963 4.956-2.439 9.339-4.438 13.314-1.021 2.029-1.83 4.132-2.879 5.878-.562.935-1.844 2.678-2.519 2.999-2.002.95-6.861.038-9.237 0z"/><path d="m85.407 66.35c-2.391.315-6.163.716-8.637 0 .702-2.469 1.849-4.801 2.76-7.317.887-2.452 1.646-4.986 2.398-7.677 2.945-10.526 2.79-25.119-.12-35.626-.736-2.661-1.359-5.35-2.278-7.797-.916-2.438-2.265-4.658-2.879-7.077.705-.671 2.259-.468 3.358-.6 1.425-.171 4.452-.183 5.158.12 1.161.498 1.884 3.946 2.519 5.638 2.162 5.765 4.029 13.042 4.559 19.912.602 7.827.192 15.571-1.08 22.311-1.31 6.94-2.965 13.337-5.758 18.113z"/><path d="m106.279.376c1.523 3.679 2.204 8.068 2.999 12.595 1.392 7.925 2.188 16.993 1.679 26.51-.257 4.806-1.05 9.521-1.679 14.034-.635 4.556-1.561 8.922-2.999 12.595-2.215.387-5.971.368-8.037.12.153-3.542 1.526-7.099 2.279-10.916.728-3.688 1.502-7.667 1.8-11.515.594-7.691.362-15.539-.36-22.792-.54-5.417-1.835-10.435-2.879-15.713-.319-1.615-1.352-3.275-.72-4.918 2.379-.197 5.538-.197 7.917 0z"/><path d="m.48 66.35c-.8-20.079-.358-40.749-.359-62.136 0-1.183-.361-2.69.479-3.718 6.833-.103 15.36-.116 22.192.12 11.08.383 18.131 3.517 23.511 9.716 4.815 5.549 9.557 13.618 9.236 23.871-.424 13.555-6.785 22.441-15.954 28.069-4.599 2.823-10.637 4.318-17.753 4.318-6.823 0-14.252.41-21.352-.24zm32.747-11.395c6.203-2.758 10.95-9.043 12.115-16.554.935-6.017-.341-12.495-2.759-17.033-2.336-4.386-6.295-7.721-10.915-9.236-5.564-1.825-15.147-2.17-22.071-1.199-.546 11.417-.12 23.265-.12 34.786 0 3.882-.305 7.838.48 11.396 8.992.109 17.185.546 23.27-2.16z"/></g></svg>