<svg height="12" viewBox="0 0 12 12" width="12" xmlns="http://www.w3.org/2000/svg"><path d="m7.28571 0h3.92859c.4345 0 .7857.352.7857.785714v3.928576c0 .43371-.3512.78571-.7857.78571s-.7857-.352-.7857-.78571v-2.03186l-4.94453 4.9445c-.15321.15321-.35436.23021-.5555.23021s-.40228-.077-.5555-.23021c-.30721-.30722-.30721-.80379 0-1.111l4.9445-4.9445h-2.03186c-.4345 0-.78571-.352-.78571-.785716 0-.433714.35121-.785714.78571-.785714zm-.21428 8.07143c0-.43372.35121-.78572.78571-.78572s.78572.352.78572.78572v3.14287c0 .4337-.35122.7857-.78572.7857h-7.071426c-.4345 0-.785714-.352-.785714-.7857v-7.07144c0-.43372.351214-.78572.785714-.78572h3.142856c.4345 0 .78572.352.78572.78572 0 .43371-.35122.78571-.78572.78571h-2.35714v5.50003h5.5z" fill="#ccc" fill-rule="evenodd"/></svg>