<?xml version="1.0" encoding="utf-8"?>
<svg width="12px" height="12px" viewBox="0 0 12 12" version="1.1" xmlns:xlink="http://www.w3.org/1999/xlink" xmlns="http://www.w3.org/2000/svg">
  <path d="M7.28571 0L11.2143 0C11.6488 0 12 0.352 12 0.785714L12 4.71429C12 5.148 11.6488 5.5 11.2143 5.5C10.7798 5.5 10.4286 5.148 10.4286 4.71429L10.4286 2.68243L5.48407 7.62693C5.33086 7.78014 5.12971 7.85714 4.92857 7.85714C4.72743 7.85714 4.52629 7.78014 4.37307 7.62693C4.06586 7.31971 4.06586 6.82314 4.37307 6.51593L9.31757 1.57143L7.28571 1.57143C6.85121 1.57143 6.5 1.21943 6.5 0.785714C6.5 0.352 6.85121 0 7.28571 0ZM7.07143 8.07143C7.07143 7.63771 7.42264 7.28571 7.85714 7.28571C8.29164 7.28571 8.64286 7.63771 8.64286 8.07143L8.64286 11.2143C8.64286 11.648 8.29164 12 7.85714 12L0.785714 12C0.351214 12 0 11.648 0 11.2143L0 4.14286C0 3.70914 0.351214 3.35714 0.785714 3.35714L3.92857 3.35714C4.36307 3.35714 4.71429 3.70914 4.71429 4.14286C4.71429 4.57657 4.36307 4.92857 3.92857 4.92857L1.57143 4.92857L1.57143 10.4286L7.07143 10.4286L7.07143 8.07143Z" id="Shape-Union" fill="#CCCCCC" fill-rule="evenodd" stroke="none" />
</svg>