<?xml version="1.0" encoding="utf-8"?>
<svg width="1080px" height="1080px" viewBox="0 0 1080 1080" version="1.1" xmlns:xlink="http://www.w3.org/1999/xlink" xmlns="http://www.w3.org/2000/svg">
  <defs>
    <rect width="1080" height="1080" id="artboard_1" />
    <clipPath id="clip_1">
      <use xlink:href="#artboard_1" clip-rule="evenodd" />
    </clipPath>
  </defs>
  <g id="favicon" clip-path="url(#clip_1)">
    <path d="M0 540C0 241.766 241.766 0 540 0C838.234 0 1080 241.766 1080 540C1080 838.234 838.234 1080 540 1080C241.766 1080 0 838.234 0 540Z" id="Oval" fill="#FFFFFF" fill-rule="evenodd" stroke="none" artboard="57feabb8-1540-4cb5-8f50-f8abb0a283e4" />
    <path d="M362.108 182.43L357.326 182.429C333.843 182.428 311.256 186.922 289.563 195.909C267.87 204.896 248.721 217.692 232.115 234.294C215.513 250.9 202.717 270.049 193.73 291.742C184.743 313.435 180.249 336.022 180.249 359.505L180.248 359.554C180.249 383.037 184.743 405.626 193.726 427.317C202.713 449.013 215.507 468.161 232.111 484.765L232.544 485.196C195.859 521.953 177.528 566.297 177.553 618.229C177.578 670.16 195.95 714.487 232.669 751.205L404.76 923.297L404.708 923.396L406.477 925.166C443.222 961.91 487.577 980.28 539.549 980.278C591.518 980.273 635.879 961.895 672.633 925.146L672.577 925.09L838.898 758.768C875.938 721.728 894.554 677.018 894.745 624.637C894.934 572.255 876.643 527.411 839.873 490.105C858.417 473.322 872.759 453.498 882.901 430.637C893.043 407.775 898.114 383.839 898.113 358.829L898.114 358.78C898.113 335.298 893.621 312.711 884.634 291.015C875.649 269.322 862.854 250.174 846.251 233.569C829.647 216.965 810.499 204.171 788.804 195.184C767.108 186.197 744.521 181.705 721.041 181.706L716.259 181.706C692.775 181.705 670.189 186.199 648.496 195.186C626.8 204.171 607.651 216.967 591.047 233.57C574.443 250.175 561.646 269.324 552.659 291.018C543.675 312.713 539.181 335.299 539.182 358.782C539.084 335.423 534.545 312.964 525.564 291.405C516.581 269.844 503.832 250.806 487.316 234.29C470.712 217.687 451.563 204.893 429.87 195.908C408.177 186.923 385.59 182.431 362.108 182.43L362.108 182.43ZM539.179 536.627L539.179 535.907L721.037 535.905C740.386 535.904 759.229 532.815 777.566 526.637C795.904 520.461 812.775 511.518 828.182 499.811L537.816 790.176L238.318 490.677C254.609 505.462 273.017 516.817 293.539 524.742C314.06 532.664 335.321 536.626 357.323 536.628L539.179 536.627L539.179 536.627Z" id="Vector" fill="#000000" fill-rule="evenodd" stroke="none" artboard="48a56252-216d-411e-89d8-9a63aed3a502" />
  </g>
</svg>