<svg height="31.998596" viewBox="0 0 31.997955 31.998596" width="31.997955" xmlns="http://www.w3.org/2000/svg"><path d="m19.6163 2.0744.1352.13526q.123.12294.2397.25177.1168.12883.2271.26323.1103.1344.2139.27405.1035.13966.2001.28422.0966.14457.186.2937.0894.14913.1714.30247.0819.15334.1563.31051.0743.15718.1408.31781.0666.16064.1252.32434.0585.16371.109.33009.0505.16638.0927.33504.0423.16865.0762.33918.0339.17053.0594.34251.0255.17199.0426.34502.017.17303.0256.34669.0085.17366.0085.34753 0 .17386-.0085.34752-.0086.17366-.0256.34669-.0171.17303-.0426.34502-.0255.17198-.0594.34251-.0339.17053-.0762.33918-.0422.16866-.0927.33504-.0505.16638-.109.33009-.0586.1637-.1252.32433-.0665.1606-.1408.3178-.0744.1572-.1563.3105-.082.1534-.1714.3025-.0894.1491-.186.2937-.0966.1446-.2001.2842-.1036.1397-.2139.2741-.1103.1344-.2271.2632-.1167.1288-.2397.2518l-5.0095 5.0095-5.14343-5.1433q-.23087-.2309-.43952-.482-.20864-.2512-.3933-.5204-.18466-.2693-.34377-.5544-.1591-.2851-.2913-.58365-.1322-.29854-.23637-.60797-.10417-.30943-.17943-.62713-.07526-.31771-.12098-.64099-.04571-.32328-.06149-.64939v16.94193h16.42439q-.5713-.078-1.1225-.2473-.5512-.1693-1.0677-.4255-.5165-.2562-.9848-.5926-.4683-.3364-.876-.7442l-5.1434-5.1433 5.0095-5.0096q.123-.123.2518-.2397.1288-.1168.2632-.2271.1344-.1103.2741-.2138.1397-.1036.2842-.2002.1446-.0966.2937-.186.1491-.0894.3025-.1713.1533-.082.3105-.1563.1572-.0744.3178-.1409.1606-.0666.3243-.1251.1638-.0586.3301-.1091.1664-.0504.3351-.0927.1686-.0422.3392-.0762.1705-.0339.3425-.0594.172-.0255.345-.0425.173-.0171.3467-.0256.1736-.0085.3475-.0085.1739 0 .3475.0085.1737.0085.3467.0256.1731.017.345.0425.172.0255.3426.0594.1705.034.3391.0762.1687.0423.3351.0927.1664.0505.3301.1091.1637.0585.3243.1251.1606.0665.3178.1409.1572.0743.3105.1563.1534.0819.3025.1713.1491.0894.2937.186.1446.0966.2842.2001.1397.1036.2741.2139.1344.1103.2632.2271.1288.1167.2518.2397l.1352.1352q.246.2461.4668.515.2207.269.414.5583.1933.2893.3573.5962.1641.3069.2972.6283.1332.3215.2342.6544.101.333.1689.6743.0678.3412.102.6875.0341.3463.0341.6942 0 .348-.0341.6942-.0342.3463-.102.6876-.0679.3412-.1689.6742-.101.333-.2342.6544-.1331.3215-.2972.6283-.164.3069-.3573.5962-.1933.2893-.414.5582-.2208.269-.4668.515l-.0014.0014q-.2616.2617-.5491.4946-.2875.233-.5977.4347-.3101.2017-.6396.37-.3295.1683-.6748.3014-.3452.1331-.7025.2294-.3572.0964-.7225.155-.3654.0586-.7348.0788-.3695.0203-.739.0019-.0013.1863-.0118.3724-.0104.186-.03.3714-.0195.1853-.048.3694-.0286.1842-.0661.3667-.0375.1826-.0839.3631-.0464.1804-.1015.3584-.0552.178-.1189.3531-.0638.1751-.1361.3469-.0722.1718-.1528.3398-.0805.1681-.1692.332-.0886.1639-.1852.3233-.0966.1594-.2008.3138-.1042.1545-.2159.3037-.1116.1492-.2304.2928-.1188.1436-.2445.2811-.1257.1376-.2579.2689-.1323.1313-.2708.256-.1385.1247-.2829.2424-.1444.1178-.2944.2284-.15.1105-.3053.2136-.1552.1032-.3153.1986-.16.0954-.3246.1828-.1645.0875-.3331.1668-.1687.0794-.341.1504-.1722.071-.3478.1335-.1756.0625-.354.1163-.1784.0539-.3592.099-.1808.045-.3636.0812-.1828.0362-.3672.0634-.1843.0273-.3698.0454-.1854.0182-.3716.0273-.1861.0091-.3724.0091h-9.40799v.0031h-.00101q-.18478 0-.36934-.009-.18455-.0091-.36845-.0272-.18389-.0181-.36667-.0452-.18278-.0271-.36401-.0632-.18122-.036-.36047-.0809-.17924-.0449-.35606-.0986-.17683-.0536-.3508-.1159-.17398-.0622-.3447-.1329-.17071-.0707-.33775-.1498-.16704-.079-.33-.1661-.16296-.0871-.32145-.1821-.15849-.095-.31213-.1976-.15364-.1027-.30206-.2127-.14842-.1101-.29125-.2273-.14284-.1173-.27975-.2414-.13691-.124-.26757-.2547-.13066-.1307-.25475-.2676-.12409-.1369-.24132-.2797-.11722-.1429-.22729-.2913-.11008-.1484-.21274-.302-.10265-.1537-.19765-.3122-.094995-.1585-.1821-.3214-.087104-.163-.166108-.33-.079003-.1671-.149716-.3378-.070712-.1707-.132962-.3447-.062251-.1739-.11589-.3508-.053638-.1768-.098536-.356-.044898-.1793-.080947-.3605-.036049-.1812-.0631615-.364-.0271129-.1828-.0452245-.3667-.0181116-.1839-.02717828-.3684-.00906672-.1846-.00906672-.3694v-.1001h7.52499v-.0013h-7.52068702v-9.7346q0-.1846.00905562-.3691.0090556-.1844.0271451-.3682.0180895-.1838.0451693-.3665.02708-.1826.063085-.3637.036005-.1812.080848-.3603.044844-.1792.098418-.3559.053574-.1767.11575-.3506.062176-.1739.132804-.3445.070628-.1706.149538-.3376.07891-.1669.165912-.3298.087003-.1629.181892-.3214.09488-.1584.19742-.312.10254-.1535.21249-.3019.10995-.1484.22704-.29118.11709-.1428.24104-.27969.12396-.13688.25447-.26753.13052-.13064.26728-.25473.13677-.12408.27946-.24131.14268-.11723.29095-.22732.14826-.11009.30174-.21278.15349-.10269.31182-.19773.15833-.09504.32114-.1822.1628-.08716.32968-.16623.16689-.07907.33745-.14987.17055-.07079.34438-.13313.17382-.06235.3505-.11609.17667-.05375.35577-.09876.17909-.04502.36018-.0812.18109-.03618.36373-.06344.18265-.02725.36641-.04552.18376-.01827.3682-.0275.18443-.00923.3691-.00941-.00003-.01215-.00003-.0243 0-.34794.0341-.69421.03411-.34627.10199-.68754.06788-.34126.16888-.67422.10101-.33297.23416-.65443.13315-.32146.29717-.62832.16402-.30687.35733-.59617.1933-.28931.41404-.55828.22073-.26897.46676-.515l.00144-.00141q.24603-.24603.51499-.46676.269-.22073.5583-.41403.2893-.19331.5961-.357323.3069-.164017.6284-.297168.3214-.13315.6544-.234151.3329-.101001.6742-.168881.3413-.0678791.6875-.1019831.3463-.0341039.6943-.0341039.3479 0 .6942.0341039.3462.034104.6875.1019831.3413.06788.6742.168881.333.101001.6545.234151.3214.133151.6283.297168.3068.164013.5961.357323.2893.1933.5583.41403.269.22073.515.46676z" fill="#fff" fill-rule="evenodd"/></svg>