<?xml version="1.0" standalone="no"?>
<!DOCTYPE svg PUBLIC "-//W3C//DTD SVG 20010904//EN"
 "http://www.w3.org/TR/2001/REC-SVG-20010904/DTD/svg10.dtd">
<svg version="1.0" xmlns="http://www.w3.org/2000/svg"
 width="1080.000000pt" height="1080.000000pt" viewBox="0 0 1080.000000 1080.000000"
 preserveAspectRatio="xMidYMid meet">
<metadata>
Created by potrace 1.14, written by Peter Selinger 2001-2017
</metadata>
<g transform="translate(0.000000,1080.000000) scale(0.100000,-0.100000)"
fill="#000000" stroke="none">
<path d="M5315 9354 c-185 -22 -324 -56 -462 -115 -239 -101 -448 -251 -600
-431 -230 -271 -352 -563 -384 -919 l-12 -126 -102 -7 c-332 -21 -628 -127
-887 -317 -112 -83 -318 -293 -400 -409 -158 -222 -256 -487 -287 -772 -14
-129 -15 -2467 -1 -2593 32 -285 114 -515 267 -745 96 -143 311 -364 450 -461
234 -162 455 -247 740 -284 108 -14 270 -16 1335 -12 1196 4 1215 4 1327 25
226 44 434 129 631 259 141 94 360 308 463 453 84 119 176 303 221 440 36 111
76 321 76 399 0 25 3 62 6 82 l6 36 122 7 c225 12 398 51 584 132 493 215 835
646 938 1184 27 145 25 419 -4 568 -69 344 -222 623 -484 879 -489 479 -1235
589 -1848 272 -63 -33 -155 -90 -204 -127 -49 -37 -99 -74 -110 -82 -12 -8 0
10 25 40 154 183 274 437 330 700 31 143 33 435 5 585 -129 692 -701 1239
-1394 1330 -102 14 -269 18 -347 9z m-1419 -1904 c35 -187 127 -406 243 -579
33 -49 109 -142 169 -207 194 -211 2423 -2416 2502 -2475 176 -131 374 -226
584 -280 l111 -28 -1822 -1 -1823 0 1 1873 c1 1144 5 1855 10 1827 5 -25 16
-83 25 -130z"/>
</g>
</svg>
